{
    "header": {
        "PPQ": 480,
        "timeSignature": [
            4,
            4
        ],
        "bpm": 67.6699870073625,
        "name": "Mendelssohn: Lieder ohne Worte Opus 19 Nr. 4"
    },
    "startTime": 0,
    "duration": 103.2954240000003,
    "tracks": [
        {
            "startTime": 0,
            "duration": 0,
            "length": 0,
            "notes": [],
            "controlChanges": {},
            "id": 0,
            "name": "Mendelssohn: Lieder ohne Worte Opus 19 Nr. 4"
        },
        {
            "startTime": 0,
            "duration": 103.2954240000003,
            "length": 365,
            "notes": [
                {
                    "name": "C#4",
                    "midi": 61,
                    "time": 0,
                    "velocity": 0.33070866141732286,
                    "duration": 0.221664
                },
                {
                    "name": "A4",
                    "midi": 69,
                    "time": 0,
                    "velocity": 0.3937007874015748,
                    "duration": 0.221664
                },
                {
                    "name": "E4",
                    "midi": 64,
                    "time": 0.221664,
                    "velocity": 0.28346456692913385,
                    "duration": 0.221664
                },
                {
                    "name": "C#4",
                    "midi": 61,
                    "time": 0.443328,
                    "velocity": 0.28346456692913385,
                    "duration": 0.22166400000000003
                },
                {
                    "name": "E4",
                    "midi": 64,
                    "time": 0.664992,
                    "velocity": 0.28346456692913385,
                    "duration": 0.22166399999999997
                },
                {
                    "name": "A4",
                    "midi": 69,
                    "time": 0.886656,
                    "velocity": 0.3937007874015748,
                    "duration": 0.22166399999999997
                },
                {
                    "name": "E4",
                    "midi": 64,
                    "time": 1.10832,
                    "velocity": 0.2677165354330709,
                    "duration": 0.22166400000000008
                },
                {
                    "name": "B4",
                    "midi": 71,
                    "time": 1.329984,
                    "velocity": 0.3543307086614173,
                    "duration": 0.22166400000000008
                },
                {
                    "name": "G#4",
                    "midi": 68,
                    "time": 1.329984,
                    "velocity": 0.2992125984251969,
                    "duration": 0.22166400000000008
                },
                {
                    "name": "E4",
                    "midi": 64,
                    "time": 1.5516480000000001,
                    "velocity": 0.25984251968503935,
                    "duration": 0.22166400000000008
                },
                {
                    "name": "A4",
                    "midi": 69,
                    "time": 1.7733120000000002,
                    "velocity": 0.33070866141732286,
                    "duration": 0.22166400000000008
                },
                {
                    "name": "C#5",
                    "midi": 73,
                    "time": 1.7733120000000002,
                    "velocity": 0.3937007874015748,
                    "duration": 0.22166400000000008
                },
                {
                    "name": "E4",
                    "midi": 64,
                    "time": 1.9949760000000003,
                    "velocity": 0.28346456692913385,
                    "duration": 0.22166400000000008
                },
                {
                    "name": "C#4",
                    "midi": 61,
                    "time": 2.2166400000000004,
                    "velocity": 0.28346456692913385,
                    "duration": 0.22166400000000008
                },
                {
                    "name": "E4",
                    "midi": 64,
                    "time": 2.4383040000000005,
                    "velocity": 0.28346456692913385,
                    "duration": 0.22166400000000008
                },
                {
                    "name": "C#5",
                    "midi": 73,
                    "time": 2.6599680000000006,
                    "velocity": 0.3937007874015748,
                    "duration": 0.22166400000000008
                },
                {
                    "name": "A4",
                    "midi": 69,
                    "time": 2.8816320000000006,
                    "velocity": 0.25984251968503935,
                    "duration": 0.22166400000000008
                },
                {
                    "name": "B4",
                    "midi": 71,
                    "time": 3.1032960000000007,
                    "velocity": 0.33070866141732286,
                    "duration": 0.22166400000000008
                },
                {
                    "name": "D5",
                    "midi": 74,
                    "time": 3.1032960000000007,
                    "velocity": 0.3937007874015748,
                    "duration": 0.22166400000000008
                },
                {
                    "name": "A4",
                    "midi": 69,
                    "time": 3.324960000000001,
                    "velocity": 0.25984251968503935,
                    "duration": 0.22166400000000008
                },
                {
                    "name": "C#5",
                    "midi": 73,
                    "time": 3.546624000000001,
                    "velocity": 0.33858267716535434,
                    "duration": 0.22166400000000008
                },
                {
                    "name": "E5",
                    "midi": 76,
                    "time": 3.546624000000001,
                    "velocity": 0.4015748031496063,
                    "duration": 0.22166400000000008
                },
                {
                    "name": "A4",
                    "midi": 69,
                    "time": 3.768288000000001,
                    "velocity": 0.31496062992125984,
                    "duration": 0.22166400000000008
                },
                {
                    "name": "C#5",
                    "midi": 73,
                    "time": 3.989952000000001,
                    "velocity": 0.3858267716535433,
                    "duration": 0.22166400000000008
                },
                {
                    "name": "E5",
                    "midi": 76,
                    "time": 3.989952000000001,
                    "velocity": 0.4566929133858268,
                    "duration": 0.22166400000000008
                },
                {
                    "name": "A4",
                    "midi": 69,
                    "time": 4.211616000000001,
                    "velocity": 0.33858267716535434,
                    "duration": 0.22166399999999964
                },
                {
                    "name": "D5",
                    "midi": 74,
                    "time": 4.433280000000001,
                    "velocity": 0.41732283464566927,
                    "duration": 0.22166399999999964
                },
                {
                    "name": "F#5",
                    "midi": 78,
                    "time": 4.433280000000001,
                    "velocity": 0.49606299212598426,
                    "duration": 0.22166399999999964
                },
                {
                    "name": "A4",
                    "midi": 69,
                    "time": 4.654944,
                    "velocity": 0.3228346456692913,
                    "duration": 0.22166399999999964
                },
                {
                    "name": "E5",
                    "midi": 76,
                    "time": 4.876608,
                    "velocity": 0.4409448818897638,
                    "duration": 0.22166399999999964
                },
                {
                    "name": "G#5",
                    "midi": 80,
                    "time": 4.876608,
                    "velocity": 0.5275590551181102,
                    "duration": 0.22166399999999964
                },
                {
                    "name": "A4",
                    "midi": 69,
                    "time": 5.098272,
                    "velocity": 0.3779527559055118,
                    "duration": 0.22166399999999964
                },
                {
                    "name": "G#5",
                    "midi": 80,
                    "time": 5.319935999999999,
                    "velocity": 0.3700787401574803,
                    "duration": 0.22166399999999964
                },
                {
                    "name": "B5",
                    "midi": 83,
                    "time": 5.319935999999999,
                    "velocity": 0.4409448818897638,
                    "duration": 0.4433279999999993
                },
                {
                    "name": "A4",
                    "midi": 69,
                    "time": 5.541599999999999,
                    "velocity": 0.25984251968503935,
                    "duration": 0.22166399999999964
                },
                {
                    "name": "A5",
                    "midi": 81,
                    "time": 5.763263999999999,
                    "velocity": 0.4094488188976378,
                    "duration": 0.4433279999999993
                },
                {
                    "name": "F#5",
                    "midi": 78,
                    "time": 5.763263999999999,
                    "velocity": 0.3464566929133858,
                    "duration": 0.22166399999999964
                },
                {
                    "name": "A4",
                    "midi": 69,
                    "time": 5.984927999999998,
                    "velocity": 0.2283464566929134,
                    "duration": 0.22166399999999964
                },
                {
                    "name": "G#5",
                    "midi": 80,
                    "time": 6.206591999999998,
                    "velocity": 0.3779527559055118,
                    "duration": 0.4433279999999993
                },
                {
                    "name": "E5",
                    "midi": 76,
                    "time": 6.206591999999998,
                    "velocity": 0.31496062992125984,
                    "duration": 0.22166399999999964
                },
                {
                    "name": "A4",
                    "midi": 69,
                    "time": 6.4282559999999975,
                    "velocity": 0.2283464566929134,
                    "duration": 0.22166399999999964
                },
                {
                    "name": "F#5",
                    "midi": 78,
                    "time": 6.649919999999997,
                    "velocity": 0.3858267716535433,
                    "duration": 0.4433279999999993
                },
                {
                    "name": "D5",
                    "midi": 74,
                    "time": 6.649919999999997,
                    "velocity": 0.3228346456692913,
                    "duration": 0.22166399999999964
                },
                {
                    "name": "A4",
                    "midi": 69,
                    "time": 6.871583999999997,
                    "velocity": 0.28346456692913385,
                    "duration": 0.22166399999999964
                },
                {
                    "name": "E5",
                    "midi": 76,
                    "time": 7.0932479999999964,
                    "velocity": 0.3858267716535433,
                    "duration": 0.4433279999999993
                },
                {
                    "name": "C#5",
                    "midi": 73,
                    "time": 7.0932479999999964,
                    "velocity": 0.3228346456692913,
                    "duration": 0.22166399999999964
                },
                {
                    "name": "F#4",
                    "midi": 66,
                    "time": 7.314911999999996,
                    "velocity": 0.2283464566929134,
                    "duration": 0.22166399999999964
                },
                {
                    "name": "D5",
                    "midi": 74,
                    "time": 7.536575999999996,
                    "velocity": 0.3779527559055118,
                    "duration": 0.4433279999999993
                },
                {
                    "name": "B4",
                    "midi": 71,
                    "time": 7.536575999999996,
                    "velocity": 0.31496062992125984,
                    "duration": 0.22166399999999964
                },
                {
                    "name": "F#4",
                    "midi": 66,
                    "time": 7.758239999999995,
                    "velocity": 0.1889763779527559,
                    "duration": 0.22166399999999964
                },
                {
                    "name": "C#5",
                    "midi": 73,
                    "time": 7.979903999999995,
                    "velocity": 0.3700787401574803,
                    "duration": 0.44332800000000017
                },
                {
                    "name": "E4",
                    "midi": 64,
                    "time": 7.979903999999995,
                    "velocity": 0.30708661417322836,
                    "duration": 0.22166399999999964
                },
                {
                    "name": "F#4",
                    "midi": 66,
                    "time": 8.201567999999995,
                    "velocity": 0.2677165354330709,
                    "duration": 0.22166400000000053
                },
                {
                    "name": "B4",
                    "midi": 71,
                    "time": 8.423231999999995,
                    "velocity": 0.3543307086614173,
                    "duration": 0.44332800000000105
                },
                {
                    "name": "D4",
                    "midi": 62,
                    "time": 8.423231999999995,
                    "velocity": 0.2992125984251969,
                    "duration": 0.22166400000000053
                },
                {
                    "name": "F#4",
                    "midi": 66,
                    "time": 8.644895999999996,
                    "velocity": 0.25984251968503935,
                    "duration": 0.22166400000000053
                },
                {
                    "name": "A4",
                    "midi": 69,
                    "time": 8.866559999999996,
                    "velocity": 0.3543307086614173,
                    "duration": 0.44332800000000105
                },
                {
                    "name": "C#4",
                    "midi": 61,
                    "time": 8.866559999999996,
                    "velocity": 0.2992125984251969,
                    "duration": 0.22166400000000053
                },
                {
                    "name": "E4",
                    "midi": 64,
                    "time": 9.088223999999997,
                    "velocity": 0.25984251968503935,
                    "duration": 0.22166400000000053
                },
                {
                    "name": "C#5",
                    "midi": 73,
                    "time": 9.309887999999997,
                    "velocity": 0.3700787401574803,
                    "duration": 0.44332800000000105
                },
                {
                    "name": "E4",
                    "midi": 64,
                    "time": 9.531551999999998,
                    "velocity": 0.25984251968503935,
                    "duration": 0.22166400000000053
                },
                {
                    "name": "D4",
                    "midi": 62,
                    "time": 9.753215999999998,
                    "velocity": 0.2755905511811024,
                    "duration": 0.22166400000000053
                },
                {
                    "name": "B4",
                    "midi": 71,
                    "time": 9.753215999999998,
                    "velocity": 0.33070866141732286,
                    "duration": 0.44332800000000105
                },
                {
                    "name": "E4",
                    "midi": 64,
                    "time": 9.974879999999999,
                    "velocity": 0.25196850393700787,
                    "duration": 0.22166400000000053
                },
                {
                    "name": "G#4",
                    "midi": 68,
                    "time": 10.196544,
                    "velocity": 0.33070866141732286,
                    "duration": 0.44332800000000105
                },
                {
                    "name": "E4",
                    "midi": 64,
                    "time": 10.418208,
                    "velocity": 0.2283464566929134,
                    "duration": 0.22166400000000053
                },
                {
                    "name": "C#4",
                    "midi": 61,
                    "time": 10.639872,
                    "velocity": 0.29133858267716534,
                    "duration": 0.22166400000000053
                },
                {
                    "name": "A4",
                    "midi": 69,
                    "time": 10.639872,
                    "velocity": 0.3543307086614173,
                    "duration": 0.22166400000000053
                },
                {
                    "name": "E4",
                    "midi": 64,
                    "time": 10.861536000000001,
                    "velocity": 0.25196850393700787,
                    "duration": 0.22166400000000053
                },
                {
                    "name": "C#4",
                    "midi": 61,
                    "time": 11.083200000000001,
                    "velocity": 0.2440944881889764,
                    "duration": 0.22166400000000053
                },
                {
                    "name": "E4",
                    "midi": 64,
                    "time": 11.304864000000002,
                    "velocity": 0.23622047244094488,
                    "duration": 0.22166400000000053
                },
                {
                    "name": "A4",
                    "midi": 69,
                    "time": 11.526528000000003,
                    "velocity": 0.30708661417322836,
                    "duration": 0.22166400000000053
                },
                {
                    "name": "C#5",
                    "midi": 73,
                    "time": 11.748192000000003,
                    "velocity": 0.25196850393700787,
                    "duration": 0.22166400000000053
                },
                {
                    "name": "E5",
                    "midi": 76,
                    "time": 11.969856000000004,
                    "velocity": 0.29133858267716534,
                    "duration": 0.22166400000000053
                },
                {
                    "name": "C#5",
                    "midi": 73,
                    "time": 12.191520000000004,
                    "velocity": 0.25984251968503935,
                    "duration": 0.22166400000000053
                },
                {
                    "name": "C#4",
                    "midi": 61,
                    "time": 12.413184000000005,
                    "velocity": 0.2440944881889764,
                    "duration": 0.4433279999999993
                },
                {
                    "name": "A4",
                    "midi": 69,
                    "time": 12.413184000000005,
                    "velocity": 0.29133858267716534,
                    "duration": 0.4433279999999993
                },
                {
                    "name": "A4",
                    "midi": 69,
                    "time": 13.299840000000003,
                    "velocity": 0.2677165354330709,
                    "duration": 0.4433279999999993
                },
                {
                    "name": "C#4",
                    "midi": 61,
                    "time": 13.299840000000003,
                    "velocity": 0.2283464566929134,
                    "duration": 0.4433279999999993
                },
                {
                    "name": "C#4",
                    "midi": 61,
                    "time": 14.186496000000002,
                    "velocity": 0.29133858267716534,
                    "duration": 0.4433279999999993
                },
                {
                    "name": "A4",
                    "midi": 69,
                    "time": 14.186496000000002,
                    "velocity": 0.29133858267716534,
                    "duration": 0.4433279999999993
                },
                {
                    "name": "E4",
                    "midi": 64,
                    "time": 15.516480000000001,
                    "velocity": 0.4094488188976378,
                    "duration": 0.4433279999999993
                },
                {
                    "name": "A4",
                    "midi": 69,
                    "time": 15.959808,
                    "velocity": 0.47244094488188976,
                    "duration": 0.8423232000000009
                },
                {
                    "name": "E4",
                    "midi": 64,
                    "time": 15.959808,
                    "velocity": 0.4015748031496063,
                    "duration": 0.8423232000000009
                },
                {
                    "name": "B4",
                    "midi": 71,
                    "time": 16.846464,
                    "velocity": 0.5433070866141733,
                    "duration": 0.8423231999999992
                },
                {
                    "name": "G#4",
                    "midi": 68,
                    "time": 16.846464,
                    "velocity": 0.4566929133858268,
                    "duration": 0.8423231999999992
                },
                {
                    "name": "E4",
                    "midi": 64,
                    "time": 16.846464,
                    "velocity": 0.4566929133858268,
                    "duration": 0.8423231999999992
                },
                {
                    "name": "C#5",
                    "midi": 73,
                    "time": 17.73312,
                    "velocity": 0.5748031496062992,
                    "duration": 1.3170536000000013
                },
                {
                    "name": "A4",
                    "midi": 69,
                    "time": 17.73312,
                    "velocity": 0.47244094488188976,
                    "duration": 1.3170536000000013
                },
                {
                    "name": "E4",
                    "midi": 64,
                    "time": 17.73312,
                    "velocity": 0.47244094488188976,
                    "duration": 1.3170536000000013
                },
                {
                    "name": "C#5",
                    "midi": 73,
                    "time": 19.063104,
                    "velocity": 0.4645669291338583,
                    "duration": 0.43224479999999943
                },
                {
                    "name": "C#5",
                    "midi": 73,
                    "time": 19.506432,
                    "velocity": 0.5354330708661418,
                    "duration": 0.43224479999999943
                },
                {
                    "name": "A4",
                    "midi": 69,
                    "time": 19.506432,
                    "velocity": 0.44881889763779526,
                    "duration": 0.44332800000000105
                },
                {
                    "name": "F#4",
                    "midi": 66,
                    "time": 19.506432,
                    "velocity": 0.44881889763779526,
                    "duration": 0.44332800000000105
                },
                {
                    "name": "C#5",
                    "midi": 73,
                    "time": 19.94976,
                    "velocity": 0.4645669291338583,
                    "duration": 0.44332800000000105
                },
                {
                    "name": "E5",
                    "midi": 76,
                    "time": 20.393088000000002,
                    "velocity": 0.5669291338582677,
                    "duration": 0.6649920000000016
                },
                {
                    "name": "D5",
                    "midi": 74,
                    "time": 21.058080000000004,
                    "velocity": 0.4645669291338583,
                    "duration": 0.22166400000000053
                },
                {
                    "name": "C#5",
                    "midi": 73,
                    "time": 21.279744000000004,
                    "velocity": 0.5433070866141733,
                    "duration": 0.8866559999999986
                },
                {
                    "name": "F#4",
                    "midi": 66,
                    "time": 21.279744000000004,
                    "velocity": 0.4566929133858268,
                    "duration": 0.8866559999999986
                },
                {
                    "name": "B4",
                    "midi": 71,
                    "time": 22.166400000000003,
                    "velocity": 0.4094488188976378,
                    "duration": 0.42116160000000136
                },
                {
                    "name": "B4",
                    "midi": 71,
                    "time": 22.609728000000004,
                    "velocity": 0.3700787401574803,
                    "duration": 0.42116160000000136
                },
                {
                    "name": "D5",
                    "midi": 74,
                    "time": 23.053056000000005,
                    "velocity": 0.44881889763779526,
                    "duration": 0.8423231999999992
                },
                {
                    "name": "F#4",
                    "midi": 66,
                    "time": 23.053056000000005,
                    "velocity": 0.3779527559055118,
                    "duration": 0.8423231999999992
                },
                {
                    "name": "C#5",
                    "midi": 73,
                    "time": 23.939712000000004,
                    "velocity": 0.41732283464566927,
                    "duration": 0.8866559999999986
                },
                {
                    "name": "F4",
                    "midi": 65,
                    "time": 23.939712000000004,
                    "velocity": 0.3543307086614173,
                    "duration": 0.8866559999999986
                },
                {
                    "name": "C#4",
                    "midi": 61,
                    "time": 24.826368000000002,
                    "velocity": 0.33070866141732286,
                    "duration": 1.3299839999999996
                },
                {
                    "name": "F#4",
                    "midi": 66,
                    "time": 24.826368000000002,
                    "velocity": 0.33070866141732286,
                    "duration": 1.3299839999999996
                },
                {
                    "name": "A4",
                    "midi": 69,
                    "time": 24.826368000000002,
                    "velocity": 0.3937007874015748,
                    "duration": 1.326289599999999
                },
                {
                    "name": "A4",
                    "midi": 69,
                    "time": 26.156352000000002,
                    "velocity": 0.29133858267716534,
                    "duration": 0.44332800000000105
                },
                {
                    "name": "B4",
                    "midi": 71,
                    "time": 26.599680000000003,
                    "velocity": 0.33070866141732286,
                    "duration": 1.3299839999999996
                },
                {
                    "name": "A4",
                    "midi": 69,
                    "time": 26.599680000000003,
                    "velocity": 0.33070866141732286,
                    "duration": 0.8866559999999986
                },
                {
                    "name": "D4",
                    "midi": 62,
                    "time": 26.599680000000003,
                    "velocity": 0.33070866141732286,
                    "duration": 1.7733120000000007
                },
                {
                    "name": "G#4",
                    "midi": 68,
                    "time": 27.486336,
                    "velocity": 0.2992125984251969,
                    "duration": 0.8866560000000021
                },
                {
                    "name": "C#5",
                    "midi": 73,
                    "time": 27.929664000000002,
                    "velocity": 0.2677165354330709,
                    "duration": 0.44332800000000105
                },
                {
                    "name": "C#4",
                    "midi": 61,
                    "time": 28.372992000000004,
                    "velocity": 0.25196850393700787,
                    "duration": 0.8866559999999986
                },
                {
                    "name": "A4",
                    "midi": 69,
                    "time": 28.372992000000004,
                    "velocity": 0.2992125984251969,
                    "duration": 0.8866559999999986
                },
                {
                    "name": "E4",
                    "midi": 64,
                    "time": 29.702976000000003,
                    "velocity": 0.5354330708661418,
                    "duration": 0.44332800000000105
                },
                {
                    "name": "A4",
                    "midi": 69,
                    "time": 30.146304000000004,
                    "velocity": 0.5433070866141733,
                    "duration": 0.8423231999999992
                },
                {
                    "name": "E4",
                    "midi": 64,
                    "time": 30.146304000000004,
                    "velocity": 0.4566929133858268,
                    "duration": 0.8423231999999992
                },
                {
                    "name": "B4",
                    "midi": 71,
                    "time": 31.032960000000003,
                    "velocity": 0.6141732283464567,
                    "duration": 0.8423231999999992
                },
                {
                    "name": "G#4",
                    "midi": 68,
                    "time": 31.032960000000003,
                    "velocity": 0.5275590551181102,
                    "duration": 0.8423231999999992
                },
                {
                    "name": "E4",
                    "midi": 64,
                    "time": 31.032960000000003,
                    "velocity": 0.5275590551181102,
                    "duration": 0.8423231999999992
                },
                {
                    "name": "C#5",
                    "midi": 73,
                    "time": 31.919616,
                    "velocity": 0.6614173228346457,
                    "duration": 1.3170535999999977
                },
                {
                    "name": "A4",
                    "midi": 69,
                    "time": 31.919616,
                    "velocity": 0.5433070866141733,
                    "duration": 1.3170535999999977
                },
                {
                    "name": "E4",
                    "midi": 64,
                    "time": 31.919616,
                    "velocity": 0.5433070866141733,
                    "duration": 1.3170535999999977
                },
                {
                    "name": "C#5",
                    "midi": 73,
                    "time": 33.2496,
                    "velocity": 0.5354330708661418,
                    "duration": 0.4211615999999978
                },
                {
                    "name": "C#5",
                    "midi": 73,
                    "time": 33.692928,
                    "velocity": 0.6062992125984252,
                    "duration": 0.4211615999999978
                },
                {
                    "name": "A4",
                    "midi": 69,
                    "time": 33.692928,
                    "velocity": 0.5196850393700787,
                    "duration": 1.7733120000000042
                },
                {
                    "name": "F#4",
                    "midi": 66,
                    "time": 33.692928,
                    "velocity": 0.5196850393700787,
                    "duration": 1.7733120000000042
                },
                {
                    "name": "C#5",
                    "midi": 73,
                    "time": 34.136256,
                    "velocity": 0.5354330708661418,
                    "duration": 0.3140240000000034
                },
                {
                    "name": "C#5",
                    "midi": 73,
                    "time": 34.46875200000001,
                    "velocity": 0.5118110236220472,
                    "duration": 0.11083200000000204
                },
                {
                    "name": "E5",
                    "midi": 76,
                    "time": 34.57958400000001,
                    "velocity": 0.6456692913385826,
                    "duration": 0.664991999999998
                },
                {
                    "name": "D5",
                    "midi": 74,
                    "time": 35.24457600000001,
                    "velocity": 0.5354330708661418,
                    "duration": 0.22166399999999697
                },
                {
                    "name": "C#5",
                    "midi": 73,
                    "time": 35.466240000000006,
                    "velocity": 0.6141732283464567,
                    "duration": 0.8866560000000021
                },
                {
                    "name": "F#4",
                    "midi": 66,
                    "time": 35.466240000000006,
                    "velocity": 0.5275590551181102,
                    "duration": 0.8866560000000021
                },
                {
                    "name": "B4",
                    "midi": 71,
                    "time": 36.35289600000001,
                    "velocity": 0.4330708661417323,
                    "duration": 0.4211615999999978
                },
                {
                    "name": "B4",
                    "midi": 71,
                    "time": 36.79622400000001,
                    "velocity": 0.3779527559055118,
                    "duration": 0.4211615999999978
                },
                {
                    "name": "D5",
                    "midi": 74,
                    "time": 37.23955200000001,
                    "velocity": 0.44881889763779526,
                    "duration": 0.8866560000000021
                },
                {
                    "name": "F#4",
                    "midi": 66,
                    "time": 37.23955200000001,
                    "velocity": 0.3779527559055118,
                    "duration": 0.8866560000000021
                },
                {
                    "name": "C#5",
                    "midi": 73,
                    "time": 38.12620800000001,
                    "velocity": 0.41732283464566927,
                    "duration": 0.8866560000000021
                },
                {
                    "name": "F4",
                    "midi": 65,
                    "time": 38.12620800000001,
                    "velocity": 0.3543307086614173,
                    "duration": 0.8866560000000021
                },
                {
                    "name": "C#4",
                    "midi": 61,
                    "time": 39.012864000000015,
                    "velocity": 0.33070866141732286,
                    "duration": 1.3299840000000032
                },
                {
                    "name": "F#4",
                    "midi": 66,
                    "time": 39.012864000000015,
                    "velocity": 0.33070866141732286,
                    "duration": 1.3299840000000032
                },
                {
                    "name": "A4",
                    "midi": 69,
                    "time": 39.012864000000015,
                    "velocity": 0.3937007874015748,
                    "duration": 1.3262896000000026
                },
                {
                    "name": "A4",
                    "midi": 69,
                    "time": 40.34284800000002,
                    "velocity": 0.29133858267716534,
                    "duration": 0.44332800000000105
                },
                {
                    "name": "B4",
                    "midi": 71,
                    "time": 40.78617600000002,
                    "velocity": 0.33070866141732286,
                    "duration": 1.3299840000000032
                },
                {
                    "name": "A4",
                    "midi": 69,
                    "time": 40.78617600000002,
                    "velocity": 0.33070866141732286,
                    "duration": 0.8866560000000021
                },
                {
                    "name": "D4",
                    "midi": 62,
                    "time": 40.78617600000002,
                    "velocity": 0.33070866141732286,
                    "duration": 1.7733120000000042
                },
                {
                    "name": "G#4",
                    "midi": 68,
                    "time": 41.67283200000002,
                    "velocity": 0.2992125984251969,
                    "duration": 0.8866560000000021
                },
                {
                    "name": "C#5",
                    "midi": 73,
                    "time": 42.11616000000002,
                    "velocity": 0.2677165354330709,
                    "duration": 0.44332800000000105
                },
                {
                    "name": "C#4",
                    "midi": 61,
                    "time": 42.55948800000002,
                    "velocity": 0.25196850393700787,
                    "duration": 0.8866560000000021
                },
                {
                    "name": "A4",
                    "midi": 69,
                    "time": 42.55948800000002,
                    "velocity": 0.2992125984251969,
                    "duration": 0.8866560000000021
                },
                {
                    "name": "E4",
                    "midi": 64,
                    "time": 44.33280000000003,
                    "velocity": 0.4566929133858268,
                    "duration": 0.8866560000000021
                },
                {
                    "name": "A4",
                    "midi": 69,
                    "time": 44.33280000000003,
                    "velocity": 0.4566929133858268,
                    "duration": 0.8866560000000021
                },
                {
                    "name": "E5",
                    "midi": 76,
                    "time": 44.33280000000003,
                    "velocity": 0.5433070866141733,
                    "duration": 0.8866560000000021
                },
                {
                    "name": "B4",
                    "midi": 71,
                    "time": 45.21945600000003,
                    "velocity": 0.41732283464566927,
                    "duration": 0.44332800000000105
                },
                {
                    "name": "D5",
                    "midi": 74,
                    "time": 45.21945600000003,
                    "velocity": 0.5118110236220472,
                    "duration": 0.44332800000000105
                },
                {
                    "name": "C#5",
                    "midi": 73,
                    "time": 45.66278400000003,
                    "velocity": 0.41732283464566927,
                    "duration": 0.39899520000000166
                },
                {
                    "name": "A4",
                    "midi": 69,
                    "time": 45.66278400000003,
                    "velocity": 0.3543307086614173,
                    "duration": 0.39899520000000166
                },
                {
                    "name": "E4",
                    "midi": 64,
                    "time": 46.10611200000003,
                    "velocity": 0.4566929133858268,
                    "duration": 0.8866560000000021
                },
                {
                    "name": "G#4",
                    "midi": 68,
                    "time": 46.10611200000003,
                    "velocity": 0.4566929133858268,
                    "duration": 0.8866560000000021
                },
                {
                    "name": "C#5",
                    "midi": 73,
                    "time": 46.10611200000003,
                    "velocity": 0.5433070866141733,
                    "duration": 0.8866560000000021
                },
                {
                    "name": "B4",
                    "midi": 71,
                    "time": 46.992768000000034,
                    "velocity": 0.49606299212598426,
                    "duration": 0.44332800000000105
                },
                {
                    "name": "E4",
                    "midi": 64,
                    "time": 47.879424000000036,
                    "velocity": 0.3543307086614173,
                    "duration": 0.39899520000000166
                },
                {
                    "name": "A4",
                    "midi": 69,
                    "time": 47.879424000000036,
                    "velocity": 0.41732283464566927,
                    "duration": 0.39899520000000166
                },
                {
                    "name": "E4",
                    "midi": 64,
                    "time": 48.32275200000004,
                    "velocity": 0.30708661417322836,
                    "duration": 0.39899520000000166
                },
                {
                    "name": "A4",
                    "midi": 69,
                    "time": 48.32275200000004,
                    "velocity": 0.36220472440944884,
                    "duration": 0.39899520000000166
                },
                {
                    "name": "D4",
                    "midi": 62,
                    "time": 48.76608000000004,
                    "velocity": 0.3543307086614173,
                    "duration": 0.39899520000000166
                },
                {
                    "name": "G#4",
                    "midi": 68,
                    "time": 48.76608000000004,
                    "velocity": 0.4251968503937008,
                    "duration": 0.39899520000000166
                },
                {
                    "name": "C#4",
                    "midi": 61,
                    "time": 49.20940800000004,
                    "velocity": 0.30708661417322836,
                    "duration": 0.39899520000000166
                },
                {
                    "name": "F#4",
                    "midi": 66,
                    "time": 49.20940800000004,
                    "velocity": 0.36220472440944884,
                    "duration": 0.39899520000000166
                },
                {
                    "name": "B3",
                    "midi": 59,
                    "time": 49.65273600000004,
                    "velocity": 0.36220472440944884,
                    "duration": 1.7733120000000042
                },
                {
                    "name": "D4",
                    "midi": 62,
                    "time": 49.65273600000004,
                    "velocity": 0.36220472440944884,
                    "duration": 1.7733120000000042
                },
                {
                    "name": "F#4",
                    "midi": 66,
                    "time": 49.65273600000004,
                    "velocity": 0.4330708661417323,
                    "duration": 0.8866560000000021
                },
                {
                    "name": "E4",
                    "midi": 64,
                    "time": 50.53939200000004,
                    "velocity": 0.4094488188976378,
                    "duration": 1.3299840000000032
                },
                {
                    "name": "C#4",
                    "midi": 61,
                    "time": 51.426048000000044,
                    "velocity": 0.3464566929133858,
                    "duration": 0.44332800000000105
                },
                {
                    "name": "D#4",
                    "midi": 63,
                    "time": 51.869376000000045,
                    "velocity": 0.3543307086614173,
                    "duration": 0.44332800000000105
                },
                {
                    "name": "F#4",
                    "midi": 66,
                    "time": 51.869376000000045,
                    "velocity": 0.41732283464566927,
                    "duration": 0.44332800000000105
                },
                {
                    "name": "E4",
                    "midi": 64,
                    "time": 52.312704000000046,
                    "velocity": 0.3543307086614173,
                    "duration": 0.44332800000000105
                },
                {
                    "name": "G#4",
                    "midi": 68,
                    "time": 52.312704000000046,
                    "velocity": 0.4251968503937008,
                    "duration": 0.44332800000000105
                },
                {
                    "name": "F#4",
                    "midi": 66,
                    "time": 52.75603200000005,
                    "velocity": 0.36220472440944884,
                    "duration": 0.44332800000000105
                },
                {
                    "name": "A4",
                    "midi": 69,
                    "time": 52.75603200000005,
                    "velocity": 0.4330708661417323,
                    "duration": 0.44332800000000105
                },
                {
                    "name": "B4",
                    "midi": 71,
                    "time": 53.19936000000005,
                    "velocity": 0.5118110236220472,
                    "duration": 0.44332800000000105
                },
                {
                    "name": "E4",
                    "midi": 64,
                    "time": 53.19936000000005,
                    "velocity": 0.4330708661417323,
                    "duration": 2.659967999999999
                },
                {
                    "name": "E5",
                    "midi": 76,
                    "time": 53.64268800000005,
                    "velocity": 0.5196850393700787,
                    "duration": 0.44332800000000105
                },
                {
                    "name": "B4",
                    "midi": 71,
                    "time": 54.08601600000005,
                    "velocity": 0.4566929133858268,
                    "duration": 0.664991999999998
                },
                {
                    "name": "G#4",
                    "midi": 68,
                    "time": 54.75100800000005,
                    "velocity": 0.4409448818897638,
                    "duration": 0.22166399999999697
                },
                {
                    "name": "B4",
                    "midi": 71,
                    "time": 54.972672000000046,
                    "velocity": 0.5196850393700787,
                    "duration": 0.8866560000000021
                },
                {
                    "name": "A4",
                    "midi": 69,
                    "time": 55.85932800000005,
                    "velocity": 0.4409448818897638,
                    "duration": 0.44332800000000105
                },
                {
                    "name": "D#4",
                    "midi": 63,
                    "time": 55.85932800000005,
                    "velocity": 0.3700787401574803,
                    "duration": 0.8774200000000008
                },
                {
                    "name": "F#4",
                    "midi": 66,
                    "time": 56.30265600000005,
                    "velocity": 0.33858267716535434,
                    "duration": 0.42485599999999835
                },
                {
                    "name": "B3",
                    "midi": 59,
                    "time": 56.74598400000005,
                    "velocity": 0.25196850393700787,
                    "duration": 0.8866560000000021
                },
                {
                    "name": "A3",
                    "midi": 57,
                    "time": 56.74598400000005,
                    "velocity": 0.25196850393700787,
                    "duration": 0.8866560000000021
                },
                {
                    "name": "D#4",
                    "midi": 63,
                    "time": 56.74598400000005,
                    "velocity": 0.25196850393700787,
                    "duration": 0.8866560000000021
                },
                {
                    "name": "F#4",
                    "midi": 66,
                    "time": 56.74598400000005,
                    "velocity": 0.2992125984251969,
                    "duration": 0.8866560000000021
                },
                {
                    "name": "G#3",
                    "midi": 56,
                    "time": 57.63264000000005,
                    "velocity": 0.25196850393700787,
                    "duration": 0.44332800000000105
                },
                {
                    "name": "E4",
                    "midi": 64,
                    "time": 57.63264000000005,
                    "velocity": 0.2992125984251969,
                    "duration": 0.44332800000000105
                },
                {
                    "name": "C#4",
                    "midi": 61,
                    "time": 58.519296000000054,
                    "velocity": 0.3228346456692913,
                    "duration": 0.8866560000000021
                },
                {
                    "name": "E4",
                    "midi": 64,
                    "time": 58.519296000000054,
                    "velocity": 0.3228346456692913,
                    "duration": 0.8866560000000021
                },
                {
                    "name": "C#5",
                    "midi": 73,
                    "time": 58.519296000000054,
                    "velocity": 0.3858267716535433,
                    "duration": 0.8866560000000021
                },
                {
                    "name": "E4",
                    "midi": 64,
                    "time": 59.405952000000056,
                    "velocity": 0.33858267716535434,
                    "duration": 0.44332800000000105
                },
                {
                    "name": "C#5",
                    "midi": 73,
                    "time": 59.405952000000056,
                    "velocity": 0.3779527559055118,
                    "duration": 0.44332800000000105
                },
                {
                    "name": "A4",
                    "midi": 69,
                    "time": 59.84928000000006,
                    "velocity": 0.33858267716535434,
                    "duration": 0.44332800000000105
                },
                {
                    "name": "D4",
                    "midi": 62,
                    "time": 60.29260800000006,
                    "velocity": 0.33070866141732286,
                    "duration": 0.8866560000000021
                },
                {
                    "name": "G#4",
                    "midi": 68,
                    "time": 60.29260800000006,
                    "velocity": 0.3937007874015748,
                    "duration": 0.8866560000000021
                },
                {
                    "name": "F#4",
                    "midi": 66,
                    "time": 61.17926400000006,
                    "velocity": 0.3543307086614173,
                    "duration": 0.44332800000000105
                },
                {
                    "name": "C#4",
                    "midi": 61,
                    "time": 62.06592000000006,
                    "velocity": 0.2204724409448819,
                    "duration": 0.8866560000000021
                },
                {
                    "name": "E4",
                    "midi": 64,
                    "time": 62.06592000000006,
                    "velocity": 0.2204724409448819,
                    "duration": 0.8866560000000021
                },
                {
                    "name": "C#5",
                    "midi": 73,
                    "time": 62.06592000000006,
                    "velocity": 0.2755905511811024,
                    "duration": 0.8866560000000021
                },
                {
                    "name": "E4",
                    "midi": 64,
                    "time": 62.952576000000064,
                    "velocity": 0.23622047244094488,
                    "duration": 0.44332800000000105
                },
                {
                    "name": "C#5",
                    "midi": 73,
                    "time": 62.952576000000064,
                    "velocity": 0.2677165354330709,
                    "duration": 0.44332800000000105
                },
                {
                    "name": "A4",
                    "midi": 69,
                    "time": 63.395904000000066,
                    "velocity": 0.23622047244094488,
                    "duration": 0.44332800000000105
                },
                {
                    "name": "D4",
                    "midi": 62,
                    "time": 63.83923200000007,
                    "velocity": 0.2047244094488189,
                    "duration": 0.8866560000000021
                },
                {
                    "name": "G#4",
                    "midi": 68,
                    "time": 63.83923200000007,
                    "velocity": 0.25196850393700787,
                    "duration": 0.8866560000000021
                },
                {
                    "name": "F#4",
                    "midi": 66,
                    "time": 64.72588800000007,
                    "velocity": 0.2204724409448819,
                    "duration": 0.44332799999999395
                },
                {
                    "name": "F#4",
                    "midi": 66,
                    "time": 65.61254400000006,
                    "velocity": 0.5039370078740157,
                    "duration": 2.216639999999998
                },
                {
                    "name": "F#5",
                    "midi": 78,
                    "time": 65.61254400000006,
                    "velocity": 0.5748031496062992,
                    "duration": 0.8866560000000021
                },
                {
                    "name": "C#5",
                    "midi": 73,
                    "time": 66.49920000000006,
                    "velocity": 0.5433070866141733,
                    "duration": 1.329983999999996
                },
                {
                    "name": "F#4",
                    "midi": 66,
                    "time": 67.82918400000005,
                    "velocity": 0.1732283464566929,
                    "duration": 0.3324960000000061
                },
                {
                    "name": "B4",
                    "midi": 71,
                    "time": 67.82918400000005,
                    "velocity": 0.3543307086614173,
                    "duration": 0.3324960000000061
                },
                {
                    "name": "F#4",
                    "midi": 66,
                    "time": 68.27251200000006,
                    "velocity": 0.1732283464566929,
                    "duration": 0.3324960000000061
                },
                {
                    "name": "C#5",
                    "midi": 73,
                    "time": 68.27251200000006,
                    "velocity": 0.3543307086614173,
                    "duration": 0.3324960000000061
                },
                {
                    "name": "F#4",
                    "midi": 66,
                    "time": 68.71584000000007,
                    "velocity": 0.1732283464566929,
                    "duration": 0.3324960000000061
                },
                {
                    "name": "D5",
                    "midi": 74,
                    "time": 68.71584000000007,
                    "velocity": 0.3543307086614173,
                    "duration": 0.3324960000000061
                },
                {
                    "name": "E4",
                    "midi": 64,
                    "time": 69.15916800000008,
                    "velocity": 0.25984251968503935,
                    "duration": 1.7733120000000184
                },
                {
                    "name": "C#5",
                    "midi": 73,
                    "time": 69.15916800000008,
                    "velocity": 0.30708661417322836,
                    "duration": 0.8866560000000021
                },
                {
                    "name": "B4",
                    "midi": 71,
                    "time": 70.04582400000008,
                    "velocity": 0.31496062992125984,
                    "duration": 0.39899520000000166
                },
                {
                    "name": "E5",
                    "midi": 76,
                    "time": 70.48915200000009,
                    "velocity": 0.2677165354330709,
                    "duration": 0.39899520000000166
                },
                {
                    "name": "E4",
                    "midi": 64,
                    "time": 70.9324800000001,
                    "velocity": 0.2677165354330709,
                    "duration": 0.8866560000000021
                },
                {
                    "name": "G#4",
                    "midi": 68,
                    "time": 70.9324800000001,
                    "velocity": 0.2677165354330709,
                    "duration": 0.8866560000000021
                },
                {
                    "name": "D5",
                    "midi": 74,
                    "time": 70.9324800000001,
                    "velocity": 0.3228346456692913,
                    "duration": 0.8866560000000021
                },
                {
                    "name": "A4",
                    "midi": 69,
                    "time": 71.8191360000001,
                    "velocity": 0.2755905511811024,
                    "duration": 0.44332799999999395
                },
                {
                    "name": "C#5",
                    "midi": 73,
                    "time": 71.8191360000001,
                    "velocity": 0.30708661417322836,
                    "duration": 0.44332799999999395
                },
                {
                    "name": "E4",
                    "midi": 64,
                    "time": 72.2624640000001,
                    "velocity": 0.5354330708661418,
                    "duration": 0.44332799999999395
                },
                {
                    "name": "A4",
                    "midi": 69,
                    "time": 72.70579200000009,
                    "velocity": 0.5433070866141733,
                    "duration": 0.8423231999999956
                },
                {
                    "name": "E4",
                    "midi": 64,
                    "time": 73.14912000000008,
                    "velocity": 0.36220472440944884,
                    "duration": 0.44332800000000816
                },
                {
                    "name": "B4",
                    "midi": 71,
                    "time": 73.59244800000009,
                    "velocity": 0.6141732283464567,
                    "duration": 0.8423231999999956
                },
                {
                    "name": "E4",
                    "midi": 64,
                    "time": 74.03577600000008,
                    "velocity": 0.41732283464566927,
                    "duration": 0.44332800000000816
                },
                {
                    "name": "G#4",
                    "midi": 68,
                    "time": 74.03577600000008,
                    "velocity": 0.41732283464566927,
                    "duration": 0.44332800000000816
                },
                {
                    "name": "C#5",
                    "midi": 73,
                    "time": 74.47910400000009,
                    "velocity": 0.6614173228346457,
                    "duration": 1.3170536000000084
                },
                {
                    "name": "E4",
                    "midi": 64,
                    "time": 74.92243200000009,
                    "velocity": 0.36220472440944884,
                    "duration": 0.39899520000000166
                },
                {
                    "name": "A4",
                    "midi": 69,
                    "time": 74.92243200000009,
                    "velocity": 0.36220472440944884,
                    "duration": 0.39899520000000166
                },
                {
                    "name": "E4",
                    "midi": 64,
                    "time": 75.3657600000001,
                    "velocity": 0.36220472440944884,
                    "duration": 0.39899520000000166
                },
                {
                    "name": "A4",
                    "midi": 69,
                    "time": 75.3657600000001,
                    "velocity": 0.36220472440944884,
                    "duration": 0.39899520000000166
                },
                {
                    "name": "E4",
                    "midi": 64,
                    "time": 75.8090880000001,
                    "velocity": 0.36220472440944884,
                    "duration": 0.39899520000000166
                },
                {
                    "name": "A4",
                    "midi": 69,
                    "time": 75.8090880000001,
                    "velocity": 0.36220472440944884,
                    "duration": 0.39899520000000166
                },
                {
                    "name": "C#5",
                    "midi": 73,
                    "time": 75.8090880000001,
                    "velocity": 0.5826771653543307,
                    "duration": 0.4211616000000049
                },
                {
                    "name": "C#5",
                    "midi": 73,
                    "time": 76.25241600000011,
                    "velocity": 0.6692913385826772,
                    "duration": 0.4211616000000049
                },
                {
                    "name": "C#5",
                    "midi": 73,
                    "time": 76.69574400000012,
                    "velocity": 0.5826771653543307,
                    "duration": 0.3140240000000034
                },
                {
                    "name": "A4",
                    "midi": 69,
                    "time": 76.69574400000012,
                    "velocity": 0.36220472440944884,
                    "duration": 0.39899520000000166
                },
                {
                    "name": "E4",
                    "midi": 64,
                    "time": 76.69574400000012,
                    "velocity": 0.36220472440944884,
                    "duration": 0.39899520000000166
                },
                {
                    "name": "C#5",
                    "midi": 73,
                    "time": 77.02824000000012,
                    "velocity": 0.5590551181102362,
                    "duration": 0.11083200000000204
                },
                {
                    "name": "E5",
                    "midi": 76,
                    "time": 77.13907200000013,
                    "velocity": 0.7086614173228346,
                    "duration": 0.6649920000000122
                },
                {
                    "name": "A4",
                    "midi": 69,
                    "time": 77.13907200000013,
                    "velocity": 0.36220472440944884,
                    "duration": 0.39899520000000166
                },
                {
                    "name": "E4",
                    "midi": 64,
                    "time": 77.13907200000013,
                    "velocity": 0.36220472440944884,
                    "duration": 0.39899520000000166
                },
                {
                    "name": "A4",
                    "midi": 69,
                    "time": 77.58240000000013,
                    "velocity": 0.36220472440944884,
                    "duration": 0.39899520000000166
                },
                {
                    "name": "E4",
                    "midi": 64,
                    "time": 77.58240000000013,
                    "velocity": 0.36220472440944884,
                    "duration": 0.39899520000000166
                },
                {
                    "name": "D5",
                    "midi": 74,
                    "time": 77.80406400000014,
                    "velocity": 0.5826771653543307,
                    "duration": 0.22166400000000408
                },
                {
                    "name": "C#5",
                    "midi": 73,
                    "time": 78.02572800000014,
                    "velocity": 0.6456692913385826,
                    "duration": 0.8866559999999879
                },
                {
                    "name": "A4",
                    "midi": 69,
                    "time": 78.46905600000014,
                    "velocity": 0.4566929133858268,
                    "duration": 0.44332799999999395
                },
                {
                    "name": "A4",
                    "midi": 69,
                    "time": 78.91238400000013,
                    "velocity": 0.5669291338582677,
                    "duration": 0.4211616000000049
                },
                {
                    "name": "B4",
                    "midi": 71,
                    "time": 78.91238400000013,
                    "velocity": 0.5669291338582677,
                    "duration": 0.4211616000000049
                },
                {
                    "name": "A4",
                    "midi": 69,
                    "time": 79.35571200000014,
                    "velocity": 0.5275590551181102,
                    "duration": 0.4211616000000049
                },
                {
                    "name": "B4",
                    "midi": 71,
                    "time": 79.35571200000014,
                    "velocity": 0.5275590551181102,
                    "duration": 0.4211616000000049
                },
                {
                    "name": "A5",
                    "midi": 81,
                    "time": 79.79904000000015,
                    "velocity": 0.7244094488188977,
                    "duration": 0.8866560000000021
                },
                {
                    "name": "A5",
                    "midi": 81,
                    "time": 80.68569600000015,
                    "velocity": 0.6692913385826772,
                    "duration": 0.8866560000000021
                },
                {
                    "name": "A5",
                    "midi": 81,
                    "time": 81.57235200000015,
                    "velocity": 0.5905511811023622,
                    "duration": 0.44332799999999395
                },
                {
                    "name": "E5",
                    "midi": 76,
                    "time": 82.01568000000015,
                    "velocity": 0.49606299212598426,
                    "duration": 0.44332799999999395
                },
                {
                    "name": "C#5",
                    "midi": 73,
                    "time": 82.45900800000014,
                    "velocity": 0.5354330708661418,
                    "duration": 0.44332799999999395
                },
                {
                    "name": "F#5",
                    "midi": 78,
                    "time": 82.90233600000013,
                    "velocity": 0.49606299212598426,
                    "duration": 0.44332799999999395
                },
                {
                    "name": "E5",
                    "midi": 76,
                    "time": 83.34566400000013,
                    "velocity": 0.5354330708661418,
                    "duration": 0.44332799999999395
                },
                {
                    "name": "C#5",
                    "midi": 73,
                    "time": 83.78899200000012,
                    "velocity": 0.4566929133858268,
                    "duration": 0.44332799999999395
                },
                {
                    "name": "A4",
                    "midi": 69,
                    "time": 84.23232000000012,
                    "velocity": 0.44881889763779526,
                    "duration": 0.44332799999999395
                },
                {
                    "name": "F#4",
                    "midi": 66,
                    "time": 84.67564800000011,
                    "velocity": 0.4409448818897638,
                    "duration": 0.44332799999999395
                },
                {
                    "name": "E4",
                    "midi": 64,
                    "time": 85.1189760000001,
                    "velocity": 0.49606299212598426,
                    "duration": 2.216639999999998
                },
                {
                    "name": "A3",
                    "midi": 57,
                    "time": 86.0056320000001,
                    "velocity": 0.2440944881889764,
                    "duration": 0.8866560000000021
                },
                {
                    "name": "C#4",
                    "midi": 61,
                    "time": 86.0056320000001,
                    "velocity": 0.31496062992125984,
                    "duration": 0.8866560000000021
                },
                {
                    "name": "G#3",
                    "midi": 56,
                    "time": 86.89228800000011,
                    "velocity": 0.2440944881889764,
                    "duration": 1.77331199999999
                },
                {
                    "name": "B3",
                    "midi": 59,
                    "time": 86.89228800000011,
                    "velocity": 0.2755905511811024,
                    "duration": 1.5331759999999832
                },
                {
                    "name": "D#4",
                    "midi": 63,
                    "time": 87.3356160000001,
                    "velocity": 0.3543307086614173,
                    "duration": 0.44332799999999395
                },
                {
                    "name": "D4",
                    "midi": 62,
                    "time": 87.7789440000001,
                    "velocity": 0.33070866141732286,
                    "duration": 0.664991999999998
                },
                {
                    "name": "B3",
                    "midi": 59,
                    "time": 88.4439360000001,
                    "velocity": 0.2440944881889764,
                    "duration": 0.22166400000000408
                },
                {
                    "name": "A3",
                    "midi": 57,
                    "time": 88.6656000000001,
                    "velocity": 0.2992125984251969,
                    "duration": 0.22166400000000408
                },
                {
                    "name": "E4",
                    "midi": 64,
                    "time": 88.8872640000001,
                    "velocity": 0.23622047244094488,
                    "duration": 0.22166400000000408
                },
                {
                    "name": "C#4",
                    "midi": 61,
                    "time": 89.1089280000001,
                    "velocity": 0.23622047244094488,
                    "duration": 0.22166400000000408
                },
                {
                    "name": "E4",
                    "midi": 64,
                    "time": 89.33059200000011,
                    "velocity": 0.23622047244094488,
                    "duration": 0.22166400000000408
                },
                {
                    "name": "A4",
                    "midi": 69,
                    "time": 89.55225600000011,
                    "velocity": 0.33070866141732286,
                    "duration": 0.22166400000000408
                },
                {
                    "name": "E4",
                    "midi": 64,
                    "time": 89.77392000000012,
                    "velocity": 0.2204724409448819,
                    "duration": 0.22166400000000408
                },
                {
                    "name": "B4",
                    "midi": 71,
                    "time": 89.99558400000012,
                    "velocity": 0.2992125984251969,
                    "duration": 0.22166400000000408
                },
                {
                    "name": "G#4",
                    "midi": 68,
                    "time": 89.99558400000012,
                    "velocity": 0.25196850393700787,
                    "duration": 0.22166400000000408
                },
                {
                    "name": "E4",
                    "midi": 64,
                    "time": 90.21724800000013,
                    "velocity": 0.2204724409448819,
                    "duration": 0.22166400000000408
                },
                {
                    "name": "A4",
                    "midi": 69,
                    "time": 90.43891200000013,
                    "velocity": 0.2755905511811024,
                    "duration": 0.22166400000000408
                },
                {
                    "name": "C#5",
                    "midi": 73,
                    "time": 90.43891200000013,
                    "velocity": 0.33070866141732286,
                    "duration": 0.22166400000000408
                },
                {
                    "name": "E4",
                    "midi": 64,
                    "time": 90.66057600000013,
                    "velocity": 0.23622047244094488,
                    "duration": 0.22166400000000408
                },
                {
                    "name": "C#4",
                    "midi": 61,
                    "time": 90.88224000000014,
                    "velocity": 0.23622047244094488,
                    "duration": 0.22166400000000408
                },
                {
                    "name": "E4",
                    "midi": 64,
                    "time": 91.10390400000014,
                    "velocity": 0.23622047244094488,
                    "duration": 0.22166400000000408
                },
                {
                    "name": "C#5",
                    "midi": 73,
                    "time": 91.32556800000015,
                    "velocity": 0.33070866141732286,
                    "duration": 0.22166400000000408
                },
                {
                    "name": "A4",
                    "midi": 69,
                    "time": 91.54723200000015,
                    "velocity": 0.2204724409448819,
                    "duration": 0.22166400000000408
                },
                {
                    "name": "B4",
                    "midi": 71,
                    "time": 91.76889600000015,
                    "velocity": 0.2755905511811024,
                    "duration": 0.22166400000000408
                },
                {
                    "name": "D5",
                    "midi": 74,
                    "time": 91.76889600000015,
                    "velocity": 0.33070866141732286,
                    "duration": 0.22166400000000408
                },
                {
                    "name": "A4",
                    "midi": 69,
                    "time": 91.99056000000016,
                    "velocity": 0.2204724409448819,
                    "duration": 0.22166400000000408
                },
                {
                    "name": "C#5",
                    "midi": 73,
                    "time": 92.21222400000016,
                    "velocity": 0.28346456692913385,
                    "duration": 0.22166400000000408
                },
                {
                    "name": "E5",
                    "midi": 76,
                    "time": 92.21222400000016,
                    "velocity": 0.33858267716535434,
                    "duration": 0.22166400000000408
                },
                {
                    "name": "A4",
                    "midi": 69,
                    "time": 92.43388800000017,
                    "velocity": 0.2677165354330709,
                    "duration": 0.22166400000000408
                },
                {
                    "name": "C#5",
                    "midi": 73,
                    "time": 92.65555200000017,
                    "velocity": 0.3228346456692913,
                    "duration": 0.22166400000000408
                },
                {
                    "name": "E5",
                    "midi": 76,
                    "time": 92.65555200000017,
                    "velocity": 0.3858267716535433,
                    "duration": 0.22166400000000408
                },
                {
                    "name": "A4",
                    "midi": 69,
                    "time": 92.87721600000017,
                    "velocity": 0.28346456692913385,
                    "duration": 0.22166400000000408
                },
                {
                    "name": "D5",
                    "midi": 74,
                    "time": 93.09888000000018,
                    "velocity": 0.3543307086614173,
                    "duration": 0.22166400000000408
                },
                {
                    "name": "F#5",
                    "midi": 78,
                    "time": 93.09888000000018,
                    "velocity": 0.41732283464566927,
                    "duration": 0.22166400000000408
                },
                {
                    "name": "A4",
                    "midi": 69,
                    "time": 93.32054400000018,
                    "velocity": 0.2677165354330709,
                    "duration": 0.22166400000000408
                },
                {
                    "name": "E5",
                    "midi": 76,
                    "time": 93.54220800000019,
                    "velocity": 0.3700787401574803,
                    "duration": 0.22166400000000408
                },
                {
                    "name": "G#5",
                    "midi": 80,
                    "time": 93.54220800000019,
                    "velocity": 0.4409448818897638,
                    "duration": 0.22166400000000408
                },
                {
                    "name": "A4",
                    "midi": 69,
                    "time": 93.76387200000019,
                    "velocity": 0.31496062992125984,
                    "duration": 0.22166400000000408
                },
                {
                    "name": "G#5",
                    "midi": 80,
                    "time": 93.9855360000002,
                    "velocity": 0.30708661417322836,
                    "duration": 0.22166400000000408
                },
                {
                    "name": "B5",
                    "midi": 83,
                    "time": 93.9855360000002,
                    "velocity": 0.3700787401574803,
                    "duration": 0.44332800000000816
                },
                {
                    "name": "A4",
                    "midi": 69,
                    "time": 94.2072000000002,
                    "velocity": 0.2204724409448819,
                    "duration": 0.22166400000000408
                },
                {
                    "name": "A5",
                    "midi": 81,
                    "time": 94.4288640000002,
                    "velocity": 0.3464566929133858,
                    "duration": 0.44332800000000816
                },
                {
                    "name": "F#5",
                    "midi": 78,
                    "time": 94.4288640000002,
                    "velocity": 0.29133858267716534,
                    "duration": 0.22166400000000408
                },
                {
                    "name": "A4",
                    "midi": 69,
                    "time": 94.65052800000021,
                    "velocity": 0.1889763779527559,
                    "duration": 0.22166400000000408
                },
                {
                    "name": "G#5",
                    "midi": 80,
                    "time": 94.87219200000021,
                    "velocity": 0.31496062992125984,
                    "duration": 0.44332800000000816
                },
                {
                    "name": "E5",
                    "midi": 76,
                    "time": 94.87219200000021,
                    "velocity": 0.2677165354330709,
                    "duration": 0.22166400000000408
                },
                {
                    "name": "A4",
                    "midi": 69,
                    "time": 95.09385600000022,
                    "velocity": 0.1889763779527559,
                    "duration": 0.22166400000000408
                },
                {
                    "name": "F#5",
                    "midi": 78,
                    "time": 95.31552000000022,
                    "velocity": 0.3228346456692913,
                    "duration": 0.44332800000000816
                },
                {
                    "name": "D5",
                    "midi": 74,
                    "time": 95.31552000000022,
                    "velocity": 0.2677165354330709,
                    "duration": 0.22166400000000408
                },
                {
                    "name": "A4",
                    "midi": 69,
                    "time": 95.53718400000022,
                    "velocity": 0.23622047244094488,
                    "duration": 0.22166400000000408
                },
                {
                    "name": "E5",
                    "midi": 76,
                    "time": 95.75884800000023,
                    "velocity": 0.3228346456692913,
                    "duration": 0.44332800000000816
                },
                {
                    "name": "C#5",
                    "midi": 73,
                    "time": 95.75884800000023,
                    "velocity": 0.2677165354330709,
                    "duration": 0.22166400000000408
                },
                {
                    "name": "F#4",
                    "midi": 66,
                    "time": 95.98051200000023,
                    "velocity": 0.1889763779527559,
                    "duration": 0.22166400000000408
                },
                {
                    "name": "D5",
                    "midi": 74,
                    "time": 96.20217600000024,
                    "velocity": 0.31496062992125984,
                    "duration": 0.44332800000000816
                },
                {
                    "name": "B4",
                    "midi": 71,
                    "time": 96.20217600000024,
                    "velocity": 0.2677165354330709,
                    "duration": 0.22166400000000408
                },
                {
                    "name": "F#4",
                    "midi": 66,
                    "time": 96.42384000000024,
                    "velocity": 0.15748031496062992,
                    "duration": 0.22166400000000408
                },
                {
                    "name": "C#5",
                    "midi": 73,
                    "time": 96.64550400000024,
                    "velocity": 0.30708661417322836,
                    "duration": 0.44332800000000816
                },
                {
                    "name": "E4",
                    "midi": 64,
                    "time": 96.64550400000024,
                    "velocity": 0.25984251968503935,
                    "duration": 0.22166400000000408
                },
                {
                    "name": "F#4",
                    "midi": 66,
                    "time": 96.86716800000025,
                    "velocity": 0.2204724409448819,
                    "duration": 0.22166400000000408
                },
                {
                    "name": "B4",
                    "midi": 71,
                    "time": 97.08883200000025,
                    "velocity": 0.2992125984251969,
                    "duration": 0.44332800000000816
                },
                {
                    "name": "D4",
                    "midi": 62,
                    "time": 97.08883200000025,
                    "velocity": 0.25196850393700787,
                    "duration": 0.22166400000000408
                },
                {
                    "name": "F#4",
                    "midi": 66,
                    "time": 97.31049600000026,
                    "velocity": 0.2204724409448819,
                    "duration": 0.22166400000000408
                },
                {
                    "name": "A4",
                    "midi": 69,
                    "time": 97.53216000000026,
                    "velocity": 0.2992125984251969,
                    "duration": 0.44332800000000816
                },
                {
                    "name": "C#4",
                    "midi": 61,
                    "time": 97.53216000000026,
                    "velocity": 0.25196850393700787,
                    "duration": 0.22166400000000408
                },
                {
                    "name": "E4",
                    "midi": 64,
                    "time": 97.75382400000026,
                    "velocity": 0.2204724409448819,
                    "duration": 0.22166400000000408
                },
                {
                    "name": "C#5",
                    "midi": 73,
                    "time": 97.97548800000027,
                    "velocity": 0.30708661417322836,
                    "duration": 0.44332800000000816
                },
                {
                    "name": "E4",
                    "midi": 64,
                    "time": 98.19715200000027,
                    "velocity": 0.2204724409448819,
                    "duration": 0.22166400000000408
                },
                {
                    "name": "D4",
                    "midi": 62,
                    "time": 98.41881600000028,
                    "velocity": 0.2283464566929134,
                    "duration": 0.22166400000000408
                },
                {
                    "name": "B4",
                    "midi": 71,
                    "time": 98.41881600000028,
                    "velocity": 0.2755905511811024,
                    "duration": 0.44332800000000816
                },
                {
                    "name": "E4",
                    "midi": 64,
                    "time": 98.64048000000028,
                    "velocity": 0.2125984251968504,
                    "duration": 0.22166400000000408
                },
                {
                    "name": "G#4",
                    "midi": 68,
                    "time": 98.86214400000028,
                    "velocity": 0.2755905511811024,
                    "duration": 0.44332800000000816
                },
                {
                    "name": "E4",
                    "midi": 64,
                    "time": 99.08380800000029,
                    "velocity": 0.1889763779527559,
                    "duration": 0.22166400000000408
                },
                {
                    "name": "C#4",
                    "midi": 61,
                    "time": 99.3054720000003,
                    "velocity": 0.2440944881889764,
                    "duration": 0.22166400000000408
                },
                {
                    "name": "A4",
                    "midi": 69,
                    "time": 99.3054720000003,
                    "velocity": 0.2992125984251969,
                    "duration": 0.22166400000000408
                },
                {
                    "name": "E4",
                    "midi": 64,
                    "time": 99.5271360000003,
                    "velocity": 0.2125984251968504,
                    "duration": 0.22166400000000408
                },
                {
                    "name": "C#4",
                    "midi": 61,
                    "time": 99.7488000000003,
                    "velocity": 0.2047244094488189,
                    "duration": 0.22166400000000408
                },
                {
                    "name": "E4",
                    "midi": 64,
                    "time": 99.9704640000003,
                    "velocity": 0.1968503937007874,
                    "duration": 0.22166400000000408
                },
                {
                    "name": "A4",
                    "midi": 69,
                    "time": 100.19212800000031,
                    "velocity": 0.25984251968503935,
                    "duration": 0.22166400000000408
                },
                {
                    "name": "C#5",
                    "midi": 73,
                    "time": 100.41379200000031,
                    "velocity": 0.2125984251968504,
                    "duration": 0.22166400000000408
                },
                {
                    "name": "E5",
                    "midi": 76,
                    "time": 100.63545600000032,
                    "velocity": 0.2440944881889764,
                    "duration": 0.22166400000000408
                },
                {
                    "name": "C#5",
                    "midi": 73,
                    "time": 100.85712000000032,
                    "velocity": 0.2204724409448819,
                    "duration": 0.22166400000000408
                },
                {
                    "name": "E5",
                    "midi": 76,
                    "time": 101.07878400000033,
                    "velocity": 0.2047244094488189,
                    "duration": 0.44332799999999395
                },
                {
                    "name": "A4",
                    "midi": 69,
                    "time": 101.07878400000033,
                    "velocity": 0.2047244094488189,
                    "duration": 0.44332799999999395
                },
                {
                    "name": "A5",
                    "midi": 81,
                    "time": 101.07878400000033,
                    "velocity": 0.2440944881889764,
                    "duration": 0.44332799999999395
                },
                {
                    "name": "E5",
                    "midi": 76,
                    "time": 101.96544000000031,
                    "velocity": 0.1889763779527559,
                    "duration": 0.44332799999999395
                },
                {
                    "name": "A5",
                    "midi": 81,
                    "time": 101.96544000000031,
                    "velocity": 0.2204724409448819,
                    "duration": 0.44332799999999395
                },
                {
                    "name": "A4",
                    "midi": 69,
                    "time": 101.96544000000031,
                    "velocity": 0.1889763779527559,
                    "duration": 0.44332799999999395
                },
                {
                    "name": "E5",
                    "midi": 76,
                    "time": 102.8520960000003,
                    "velocity": 0.2440944881889764,
                    "duration": 0.44332799999999395
                },
                {
                    "name": "A4",
                    "midi": 69,
                    "time": 102.8520960000003,
                    "velocity": 0.2440944881889764,
                    "duration": 0.44332799999999395
                },
                {
                    "name": "A5",
                    "midi": 81,
                    "time": 102.8520960000003,
                    "velocity": 0.2440944881889764,
                    "duration": 0.44332799999999395
                }
            ],
            "controlChanges": {},
            "id": 1,
            "name": "Piano right",
            "instrumentNumber": 0,
            "instrument": "acoustic grand piano",
            "instrumentFamily": "piano",
            "channelNumber": 0,
            "isPercussion": false
        },
        {
            "startTime": 0,
            "duration": 103.29542400000017,
            "length": 217,
            "notes": [
                {
                    "name": "A2",
                    "midi": 45,
                    "time": 0,
                    "velocity": 0.2677165354330709,
                    "duration": 3.546624
                },
                {
                    "name": "A3",
                    "midi": 57,
                    "time": 0,
                    "velocity": 0.31496062992125984,
                    "duration": 3.546624
                },
                {
                    "name": "A1",
                    "midi": 33,
                    "time": 3.546624,
                    "velocity": 0.2677165354330709,
                    "duration": 1.329984
                },
                {
                    "name": "A2",
                    "midi": 45,
                    "time": 3.546624,
                    "velocity": 0.31496062992125984,
                    "duration": 1.329984
                },
                {
                    "name": "G#1",
                    "midi": 32,
                    "time": 4.876608,
                    "velocity": 0.2677165354330709,
                    "duration": 0.44332800000000017
                },
                {
                    "name": "G#2",
                    "midi": 44,
                    "time": 4.876608,
                    "velocity": 0.31496062992125984,
                    "duration": 0.44332800000000017
                },
                {
                    "name": "F#2",
                    "midi": 42,
                    "time": 5.319936,
                    "velocity": 0.3543307086614173,
                    "duration": 2.659968
                },
                {
                    "name": "F#1",
                    "midi": 30,
                    "time": 5.319936,
                    "velocity": 0.2992125984251969,
                    "duration": 2.659968
                },
                {
                    "name": "D3",
                    "midi": 50,
                    "time": 7.979904,
                    "velocity": 0.36220472440944884,
                    "duration": 0.8866559999999994
                },
                {
                    "name": "D2",
                    "midi": 38,
                    "time": 7.979904,
                    "velocity": 0.30708661417322836,
                    "duration": 0.8866559999999994
                },
                {
                    "name": "E3",
                    "midi": 52,
                    "time": 8.86656,
                    "velocity": 0.33858267716535434,
                    "duration": 1.7733120000000007
                },
                {
                    "name": "E2",
                    "midi": 40,
                    "time": 8.86656,
                    "velocity": 0.28346456692913385,
                    "duration": 1.7733120000000007
                },
                {
                    "name": "E3",
                    "midi": 52,
                    "time": 10.639872,
                    "velocity": 0.33858267716535434,
                    "duration": 0.8866560000000003
                },
                {
                    "name": "A2",
                    "midi": 45,
                    "time": 10.639872,
                    "velocity": 0.28346456692913385,
                    "duration": 0.8866560000000003
                },
                {
                    "name": "A2",
                    "midi": 45,
                    "time": 12.413184000000001,
                    "velocity": 0.1968503937007874,
                    "duration": 0.4433279999999993
                },
                {
                    "name": "E3",
                    "midi": 52,
                    "time": 12.413184000000001,
                    "velocity": 0.23622047244094488,
                    "duration": 0.4433279999999993
                },
                {
                    "name": "E3",
                    "midi": 52,
                    "time": 13.29984,
                    "velocity": 0.2125984251968504,
                    "duration": 0.4433279999999993
                },
                {
                    "name": "A2",
                    "midi": 45,
                    "time": 13.29984,
                    "velocity": 0.18110236220472442,
                    "duration": 0.4433279999999993
                },
                {
                    "name": "A2",
                    "midi": 45,
                    "time": 14.186495999999998,
                    "velocity": 0.23622047244094488,
                    "duration": 0.4433279999999993
                },
                {
                    "name": "E3",
                    "midi": 52,
                    "time": 14.186495999999998,
                    "velocity": 0.23622047244094488,
                    "duration": 0.4433279999999993
                },
                {
                    "name": "E3",
                    "midi": 52,
                    "time": 15.516479999999998,
                    "velocity": 0.33070866141732286,
                    "duration": 0.4433279999999993
                },
                {
                    "name": "A3",
                    "midi": 57,
                    "time": 15.959807999999997,
                    "velocity": 0.41732283464566927,
                    "duration": 0.8423232000000009
                },
                {
                    "name": "C#3",
                    "midi": 49,
                    "time": 15.959807999999997,
                    "velocity": 0.3543307086614173,
                    "duration": 0.8423232000000009
                },
                {
                    "name": "B3",
                    "midi": 59,
                    "time": 16.846463999999997,
                    "velocity": 0.4251968503937008,
                    "duration": 0.8423231999999992
                },
                {
                    "name": "E3",
                    "midi": 52,
                    "time": 16.846463999999997,
                    "velocity": 0.36220472440944884,
                    "duration": 0.8423231999999992
                },
                {
                    "name": "A3",
                    "midi": 57,
                    "time": 17.733119999999996,
                    "velocity": 0.3858267716535433,
                    "duration": 1.7566871999999982
                },
                {
                    "name": "C#4",
                    "midi": 61,
                    "time": 17.733119999999996,
                    "velocity": 0.4566929133858268,
                    "duration": 1.7566871999999982
                },
                {
                    "name": "C#4",
                    "midi": 61,
                    "time": 19.506431999999993,
                    "velocity": 0.4409448818897638,
                    "duration": 1.7566871999999982
                },
                {
                    "name": "A3",
                    "midi": 57,
                    "time": 19.506431999999993,
                    "velocity": 0.36220472440944884,
                    "duration": 1.7566871999999982
                },
                {
                    "name": "F#3",
                    "midi": 54,
                    "time": 19.506431999999993,
                    "velocity": 0.36220472440944884,
                    "duration": 1.7566871999999982
                },
                {
                    "name": "F#3",
                    "midi": 54,
                    "time": 21.27974399999999,
                    "velocity": 0.44881889763779526,
                    "duration": 1.7733120000000007
                },
                {
                    "name": "D3",
                    "midi": 50,
                    "time": 21.27974399999999,
                    "velocity": 0.3779527559055118,
                    "duration": 1.7733120000000007
                },
                {
                    "name": "G#3",
                    "midi": 56,
                    "time": 23.05305599999999,
                    "velocity": 0.3543307086614173,
                    "duration": 0.8423231999999992
                },
                {
                    "name": "B2",
                    "midi": 47,
                    "time": 23.05305599999999,
                    "velocity": 0.2992125984251969,
                    "duration": 0.8423231999999992
                },
                {
                    "name": "C#3",
                    "midi": 49,
                    "time": 23.93971199999999,
                    "velocity": 0.2677165354330709,
                    "duration": 0.8866559999999986
                },
                {
                    "name": "G#3",
                    "midi": 56,
                    "time": 23.93971199999999,
                    "velocity": 0.31496062992125984,
                    "duration": 0.8866559999999986
                },
                {
                    "name": "F#3",
                    "midi": 54,
                    "time": 24.826367999999988,
                    "velocity": 0.2677165354330709,
                    "duration": 1.7733120000000007
                },
                {
                    "name": "A3",
                    "midi": 57,
                    "time": 24.826367999999988,
                    "velocity": 0.31496062992125984,
                    "duration": 1.7733120000000007
                },
                {
                    "name": "E3",
                    "midi": 52,
                    "time": 26.59967999999999,
                    "velocity": 0.2440944881889764,
                    "duration": 1.7733120000000007
                },
                {
                    "name": "E2",
                    "midi": 40,
                    "time": 26.59967999999999,
                    "velocity": 0.2047244094488189,
                    "duration": 1.7733120000000007
                },
                {
                    "name": "E3",
                    "midi": 52,
                    "time": 28.37299199999999,
                    "velocity": 0.25196850393700787,
                    "duration": 0.8866559999999986
                },
                {
                    "name": "A2",
                    "midi": 45,
                    "time": 28.37299199999999,
                    "velocity": 0.2125984251968504,
                    "duration": 0.8866559999999986
                },
                {
                    "name": "E3",
                    "midi": 52,
                    "time": 29.70297599999999,
                    "velocity": 0.4251968503937008,
                    "duration": 0.44332800000000105
                },
                {
                    "name": "A3",
                    "midi": 57,
                    "time": 30.14630399999999,
                    "velocity": 0.47244094488188976,
                    "duration": 0.8423231999999992
                },
                {
                    "name": "C#3",
                    "midi": 49,
                    "time": 30.14630399999999,
                    "velocity": 0.4015748031496063,
                    "duration": 0.8423231999999992
                },
                {
                    "name": "B3",
                    "midi": 59,
                    "time": 31.03295999999999,
                    "velocity": 0.48031496062992124,
                    "duration": 0.8423231999999992
                },
                {
                    "name": "E3",
                    "midi": 52,
                    "time": 31.03295999999999,
                    "velocity": 0.4094488188976378,
                    "duration": 0.8423231999999992
                },
                {
                    "name": "A3",
                    "midi": 57,
                    "time": 31.919615999999987,
                    "velocity": 0.4409448818897638,
                    "duration": 1.7733120000000007
                },
                {
                    "name": "C#4",
                    "midi": 61,
                    "time": 31.919615999999987,
                    "velocity": 0.5275590551181102,
                    "duration": 1.3170535999999977
                },
                {
                    "name": "C#4",
                    "midi": 61,
                    "time": 33.24959999999999,
                    "velocity": 0.4409448818897638,
                    "duration": 0.4211615999999978
                },
                {
                    "name": "C#4",
                    "midi": 61,
                    "time": 33.69292799999999,
                    "velocity": 0.5118110236220472,
                    "duration": 0.4211615999999978
                },
                {
                    "name": "A3",
                    "midi": 57,
                    "time": 33.69292799999999,
                    "velocity": 0.4094488188976378,
                    "duration": 1.7733119999999971
                },
                {
                    "name": "F#3",
                    "midi": 54,
                    "time": 33.69292799999999,
                    "velocity": 0.4094488188976378,
                    "duration": 1.7733119999999971
                },
                {
                    "name": "C#4",
                    "midi": 61,
                    "time": 34.13625599999999,
                    "velocity": 0.4566929133858268,
                    "duration": 0.4211615999999978
                },
                {
                    "name": "E4",
                    "midi": 64,
                    "time": 34.57958399999999,
                    "velocity": 0.5118110236220472,
                    "duration": 0.664991999999998
                },
                {
                    "name": "D4",
                    "midi": 62,
                    "time": 35.24457599999999,
                    "velocity": 0.44881889763779526,
                    "duration": 0.22166399999999697
                },
                {
                    "name": "D3",
                    "midi": 50,
                    "time": 35.466239999999985,
                    "velocity": 0.5196850393700787,
                    "duration": 0.8866560000000021
                },
                {
                    "name": "C#4",
                    "midi": 61,
                    "time": 35.466239999999985,
                    "velocity": 0.4251968503937008,
                    "duration": 0.8866560000000021
                },
                {
                    "name": "B3",
                    "midi": 59,
                    "time": 36.35289599999999,
                    "velocity": 0.31496062992125984,
                    "duration": 0.44332800000000105
                },
                {
                    "name": "B2",
                    "midi": 47,
                    "time": 37.23955199999999,
                    "velocity": 0.3543307086614173,
                    "duration": 0.8866560000000021
                },
                {
                    "name": "C#3",
                    "midi": 49,
                    "time": 38.12620799999999,
                    "velocity": 0.2677165354330709,
                    "duration": 0.8866560000000021
                },
                {
                    "name": "G#3",
                    "midi": 56,
                    "time": 38.12620799999999,
                    "velocity": 0.31496062992125984,
                    "duration": 0.8866560000000021
                },
                {
                    "name": "F#3",
                    "midi": 54,
                    "time": 39.01286399999999,
                    "velocity": 0.2677165354330709,
                    "duration": 1.7733119999999971
                },
                {
                    "name": "A3",
                    "midi": 57,
                    "time": 39.01286399999999,
                    "velocity": 0.31496062992125984,
                    "duration": 1.7733119999999971
                },
                {
                    "name": "E3",
                    "midi": 52,
                    "time": 40.78617599999999,
                    "velocity": 0.2440944881889764,
                    "duration": 1.7733119999999971
                },
                {
                    "name": "E2",
                    "midi": 40,
                    "time": 40.78617599999999,
                    "velocity": 0.2047244094488189,
                    "duration": 1.7733119999999971
                },
                {
                    "name": "A2",
                    "midi": 45,
                    "time": 42.55948799999999,
                    "velocity": 0.2125984251968504,
                    "duration": 1.7733120000000042
                },
                {
                    "name": "E3",
                    "midi": 52,
                    "time": 43.00281599999999,
                    "velocity": 0.2992125984251969,
                    "duration": 0.39899520000000166
                },
                {
                    "name": "E3",
                    "midi": 52,
                    "time": 43.44614399999999,
                    "velocity": 0.3228346456692913,
                    "duration": 0.39899520000000166
                },
                {
                    "name": "E3",
                    "midi": 52,
                    "time": 43.88947199999999,
                    "velocity": 0.3700787401574803,
                    "duration": 0.39899520000000166
                },
                {
                    "name": "C#3",
                    "midi": 49,
                    "time": 44.33279999999999,
                    "velocity": 0.2677165354330709,
                    "duration": 1.7733120000000042
                },
                {
                    "name": "E3",
                    "midi": 52,
                    "time": 44.33279999999999,
                    "velocity": 0.31496062992125984,
                    "duration": 0.39899520000000166
                },
                {
                    "name": "E3",
                    "midi": 52,
                    "time": 44.77612799999999,
                    "velocity": 0.23622047244094488,
                    "duration": 0.39899520000000166
                },
                {
                    "name": "E3",
                    "midi": 52,
                    "time": 45.219455999999994,
                    "velocity": 0.25984251968503935,
                    "duration": 0.39899520000000166
                },
                {
                    "name": "E3",
                    "midi": 52,
                    "time": 45.662783999999995,
                    "velocity": 0.25984251968503935,
                    "duration": 0.39899520000000166
                },
                {
                    "name": "D3",
                    "midi": 50,
                    "time": 46.106111999999996,
                    "velocity": 0.2677165354330709,
                    "duration": 1.7733120000000042
                },
                {
                    "name": "E3",
                    "midi": 52,
                    "time": 46.54944,
                    "velocity": 0.2440944881889764,
                    "duration": 0.39899520000000166
                },
                {
                    "name": "E3",
                    "midi": 52,
                    "time": 46.992768,
                    "velocity": 0.25984251968503935,
                    "duration": 0.39899520000000166
                },
                {
                    "name": "E3",
                    "midi": 52,
                    "time": 47.436096,
                    "velocity": 0.25196850393700787,
                    "duration": 0.39899520000000166
                },
                {
                    "name": "C#3",
                    "midi": 49,
                    "time": 47.879424,
                    "velocity": 0.25196850393700787,
                    "duration": 0.39899520000000166
                },
                {
                    "name": "E3",
                    "midi": 52,
                    "time": 47.879424,
                    "velocity": 0.2992125984251969,
                    "duration": 0.39899520000000166
                },
                {
                    "name": "C#3",
                    "midi": 49,
                    "time": 48.322752,
                    "velocity": 0.2047244094488189,
                    "duration": 0.39899520000000166
                },
                {
                    "name": "E3",
                    "midi": 52,
                    "time": 48.322752,
                    "velocity": 0.2440944881889764,
                    "duration": 0.39899520000000166
                },
                {
                    "name": "B2",
                    "midi": 47,
                    "time": 48.76608,
                    "velocity": 0.2125984251968504,
                    "duration": 0.39899520000000166
                },
                {
                    "name": "E3",
                    "midi": 52,
                    "time": 48.76608,
                    "velocity": 0.25196850393700787,
                    "duration": 0.39899520000000166
                },
                {
                    "name": "A2",
                    "midi": 45,
                    "time": 49.209408,
                    "velocity": 0.1968503937007874,
                    "duration": 0.39899520000000166
                },
                {
                    "name": "E3",
                    "midi": 52,
                    "time": 49.209408,
                    "velocity": 0.23622047244094488,
                    "duration": 0.39899520000000166
                },
                {
                    "name": "G#2",
                    "midi": 44,
                    "time": 49.652736000000004,
                    "velocity": 0.25984251968503935,
                    "duration": 1.7733120000000042
                },
                {
                    "name": "E3",
                    "midi": 52,
                    "time": 50.096064000000005,
                    "velocity": 0.2283464566929134,
                    "duration": 0.39899520000000166
                },
                {
                    "name": "E3",
                    "midi": 52,
                    "time": 50.53939200000001,
                    "velocity": 0.25196850393700787,
                    "duration": 0.39899520000000166
                },
                {
                    "name": "E3",
                    "midi": 52,
                    "time": 50.98272000000001,
                    "velocity": 0.2125984251968504,
                    "duration": 0.39899520000000166
                },
                {
                    "name": "E3",
                    "midi": 52,
                    "time": 51.42604800000001,
                    "velocity": 0.25196850393700787,
                    "duration": 0.44332800000000105
                },
                {
                    "name": "A2",
                    "midi": 45,
                    "time": 51.86937600000001,
                    "velocity": 0.23622047244094488,
                    "duration": 0.44332800000000105
                },
                {
                    "name": "G#2",
                    "midi": 44,
                    "time": 52.31270400000001,
                    "velocity": 0.25196850393700787,
                    "duration": 0.44332800000000105
                },
                {
                    "name": "B3",
                    "midi": 59,
                    "time": 52.31270400000001,
                    "velocity": 0.3543307086614173,
                    "duration": 0.44332800000000105
                },
                {
                    "name": "F#2",
                    "midi": 42,
                    "time": 52.75603200000001,
                    "velocity": 0.25196850393700787,
                    "duration": 0.44332800000000105
                },
                {
                    "name": "A3",
                    "midi": 57,
                    "time": 52.75603200000001,
                    "velocity": 0.36220472440944884,
                    "duration": 0.44332800000000105
                },
                {
                    "name": "B2",
                    "midi": 47,
                    "time": 53.19936000000001,
                    "velocity": 0.25984251968503935,
                    "duration": 3.5466240000000013
                },
                {
                    "name": "G#3",
                    "midi": 56,
                    "time": 53.19936000000001,
                    "velocity": 0.25984251968503935,
                    "duration": 1.7733119999999971
                },
                {
                    "name": "F#3",
                    "midi": 54,
                    "time": 54.97267200000001,
                    "velocity": 0.25984251968503935,
                    "duration": 1.3299840000000032
                },
                {
                    "name": "A3",
                    "midi": 57,
                    "time": 56.30265600000001,
                    "velocity": 0.25984251968503935,
                    "duration": 0.42485599999999835
                },
                {
                    "name": "E2",
                    "midi": 40,
                    "time": 56.745984000000014,
                    "velocity": 0.25984251968503935,
                    "duration": 1.7733119999999971
                },
                {
                    "name": "A2",
                    "midi": 45,
                    "time": 58.51929600000001,
                    "velocity": 0.2204724409448819,
                    "duration": 0.8866560000000021
                },
                {
                    "name": "A3",
                    "midi": 57,
                    "time": 58.51929600000001,
                    "velocity": 0.25984251968503935,
                    "duration": 0.39899520000000166
                },
                {
                    "name": "A3",
                    "midi": 57,
                    "time": 58.96262400000001,
                    "velocity": 0.1889763779527559,
                    "duration": 0.39899520000000166
                },
                {
                    "name": "C#3",
                    "midi": 49,
                    "time": 59.40595200000001,
                    "velocity": 0.2204724409448819,
                    "duration": 0.8866560000000021
                },
                {
                    "name": "A3",
                    "midi": 57,
                    "time": 59.40595200000001,
                    "velocity": 0.2125984251968504,
                    "duration": 0.39899520000000166
                },
                {
                    "name": "A3",
                    "midi": 57,
                    "time": 59.849280000000014,
                    "velocity": 0.2125984251968504,
                    "duration": 0.39899520000000166
                },
                {
                    "name": "A3",
                    "midi": 57,
                    "time": 60.292608000000016,
                    "velocity": 0.25984251968503935,
                    "duration": 0.39899520000000166
                },
                {
                    "name": "D3",
                    "midi": 50,
                    "time": 60.292608000000016,
                    "velocity": 0.2204724409448819,
                    "duration": 1.7733120000000042
                },
                {
                    "name": "A3",
                    "midi": 57,
                    "time": 60.73593600000002,
                    "velocity": 0.1968503937007874,
                    "duration": 0.39899520000000166
                },
                {
                    "name": "A3",
                    "midi": 57,
                    "time": 61.17926400000002,
                    "velocity": 0.2125984251968504,
                    "duration": 0.39899520000000166
                },
                {
                    "name": "A3",
                    "midi": 57,
                    "time": 61.62259200000002,
                    "velocity": 0.2125984251968504,
                    "duration": 0.39899520000000166
                },
                {
                    "name": "A2",
                    "midi": 45,
                    "time": 62.06592000000002,
                    "velocity": 0.15748031496062992,
                    "duration": 0.8866560000000021
                },
                {
                    "name": "A3",
                    "midi": 57,
                    "time": 62.06592000000002,
                    "velocity": 0.18110236220472442,
                    "duration": 0.39899520000000166
                },
                {
                    "name": "A3",
                    "midi": 57,
                    "time": 62.50924800000002,
                    "velocity": 0.12598425196850394,
                    "duration": 0.39899520000000166
                },
                {
                    "name": "C#3",
                    "midi": 49,
                    "time": 62.95257600000002,
                    "velocity": 0.15748031496062992,
                    "duration": 0.8866560000000021
                },
                {
                    "name": "A3",
                    "midi": 57,
                    "time": 62.95257600000002,
                    "velocity": 0.14960629921259844,
                    "duration": 0.39899520000000166
                },
                {
                    "name": "A3",
                    "midi": 57,
                    "time": 63.39590400000002,
                    "velocity": 0.14960629921259844,
                    "duration": 0.39899520000000166
                },
                {
                    "name": "A3",
                    "midi": 57,
                    "time": 63.839232000000024,
                    "velocity": 0.15748031496062992,
                    "duration": 0.39899520000000166
                },
                {
                    "name": "D3",
                    "midi": 50,
                    "time": 63.839232000000024,
                    "velocity": 0.13385826771653545,
                    "duration": 1.7733120000000326
                },
                {
                    "name": "A3",
                    "midi": 57,
                    "time": 64.28256000000003,
                    "velocity": 0.11811023622047244,
                    "duration": 0.39899520000000166
                },
                {
                    "name": "A3",
                    "midi": 57,
                    "time": 64.72588800000004,
                    "velocity": 0.12598425196850394,
                    "duration": 0.39899520000000166
                },
                {
                    "name": "A3",
                    "midi": 57,
                    "time": 65.16921600000005,
                    "velocity": 0.14960629921259844,
                    "duration": 0.39899520000000166
                },
                {
                    "name": "A3",
                    "midi": 57,
                    "time": 65.61254400000006,
                    "velocity": 0.4251968503937008,
                    "duration": 0.39899520000000166
                },
                {
                    "name": "C#3",
                    "midi": 49,
                    "time": 65.61254400000006,
                    "velocity": 0.3779527559055118,
                    "duration": 2.216640000000041
                },
                {
                    "name": "A3",
                    "midi": 57,
                    "time": 66.05587200000006,
                    "velocity": 0.33070866141732286,
                    "duration": 0.39899520000000166
                },
                {
                    "name": "A3",
                    "midi": 57,
                    "time": 66.49920000000007,
                    "velocity": 0.3464566929133858,
                    "duration": 0.39899520000000166
                },
                {
                    "name": "A3",
                    "midi": 57,
                    "time": 66.94252800000008,
                    "velocity": 0.3464566929133858,
                    "duration": 0.39899520000000166
                },
                {
                    "name": "A3",
                    "midi": 57,
                    "time": 67.38585600000009,
                    "velocity": 0.31496062992125984,
                    "duration": 0.39899520000000166
                },
                {
                    "name": "D3",
                    "midi": 50,
                    "time": 67.8291840000001,
                    "velocity": 0.1732283464566929,
                    "duration": 0.3324960000000061
                },
                {
                    "name": "A3",
                    "midi": 57,
                    "time": 67.8291840000001,
                    "velocity": 0.1732283464566929,
                    "duration": 0.3324960000000061
                },
                {
                    "name": "C#3",
                    "midi": 49,
                    "time": 68.2725120000001,
                    "velocity": 0.1732283464566929,
                    "duration": 0.3324960000000061
                },
                {
                    "name": "A3",
                    "midi": 57,
                    "time": 68.2725120000001,
                    "velocity": 0.1889763779527559,
                    "duration": 0.3324960000000061
                },
                {
                    "name": "B2",
                    "midi": 47,
                    "time": 68.71584000000011,
                    "velocity": 0.1732283464566929,
                    "duration": 0.3324960000000061
                },
                {
                    "name": "A3",
                    "midi": 57,
                    "time": 68.71584000000011,
                    "velocity": 0.1889763779527559,
                    "duration": 0.3324960000000061
                },
                {
                    "name": "E3",
                    "midi": 52,
                    "time": 69.15916800000012,
                    "velocity": 0.1889763779527559,
                    "duration": 1.7733120000000042
                },
                {
                    "name": "A3",
                    "midi": 57,
                    "time": 69.15916800000012,
                    "velocity": 0.2204724409448819,
                    "duration": 0.8866560000000021
                },
                {
                    "name": "G#3",
                    "midi": 56,
                    "time": 70.04582400000012,
                    "velocity": 0.1889763779527559,
                    "duration": 0.8866560000000021
                },
                {
                    "name": "A2",
                    "midi": 45,
                    "time": 70.93248000000013,
                    "velocity": 0.1889763779527559,
                    "duration": 1.77331199999999
                },
                {
                    "name": "E3",
                    "midi": 52,
                    "time": 72.26246400000012,
                    "velocity": 0.4251968503937008,
                    "duration": 0.44332799999999395
                },
                {
                    "name": "E3",
                    "midi": 52,
                    "time": 73.14912000000011,
                    "velocity": 0.31496062992125984,
                    "duration": 0.44332799999999395
                },
                {
                    "name": "C#3",
                    "midi": 49,
                    "time": 73.14912000000011,
                    "velocity": 0.31496062992125984,
                    "duration": 0.44332799999999395
                },
                {
                    "name": "A3",
                    "midi": 57,
                    "time": 73.14912000000011,
                    "velocity": 0.3779527559055118,
                    "duration": 0.44332799999999395
                },
                {
                    "name": "G#3",
                    "midi": 56,
                    "time": 74.0357760000001,
                    "velocity": 0.33070866141732286,
                    "duration": 0.44332799999999395
                },
                {
                    "name": "E3",
                    "midi": 52,
                    "time": 74.0357760000001,
                    "velocity": 0.33070866141732286,
                    "duration": 0.44332799999999395
                },
                {
                    "name": "B3",
                    "midi": 59,
                    "time": 74.0357760000001,
                    "velocity": 0.3858267716535433,
                    "duration": 0.44332799999999395
                },
                {
                    "name": "A3",
                    "midi": 57,
                    "time": 74.92243200000009,
                    "velocity": 0.29133858267716534,
                    "duration": 0.39899520000000166
                },
                {
                    "name": "C#4",
                    "midi": 61,
                    "time": 74.92243200000009,
                    "velocity": 0.3543307086614173,
                    "duration": 0.39899520000000166
                },
                {
                    "name": "A3",
                    "midi": 57,
                    "time": 75.3657600000001,
                    "velocity": 0.29133858267716534,
                    "duration": 0.39899520000000166
                },
                {
                    "name": "C#4",
                    "midi": 61,
                    "time": 75.3657600000001,
                    "velocity": 0.3543307086614173,
                    "duration": 0.39899520000000166
                },
                {
                    "name": "A3",
                    "midi": 57,
                    "time": 75.8090880000001,
                    "velocity": 0.2440944881889764,
                    "duration": 0.39899520000000166
                },
                {
                    "name": "C#4",
                    "midi": 61,
                    "time": 75.8090880000001,
                    "velocity": 0.29133858267716534,
                    "duration": 0.39899520000000166
                },
                {
                    "name": "C#3",
                    "midi": 49,
                    "time": 76.6957440000001,
                    "velocity": 0.29133858267716534,
                    "duration": 0.39899520000000166
                },
                {
                    "name": "E3",
                    "midi": 52,
                    "time": 76.6957440000001,
                    "velocity": 0.29133858267716534,
                    "duration": 0.39899520000000166
                },
                {
                    "name": "C#4",
                    "midi": 61,
                    "time": 76.6957440000001,
                    "velocity": 0.3543307086614173,
                    "duration": 0.39899520000000166
                },
                {
                    "name": "A3",
                    "midi": 57,
                    "time": 76.6957440000001,
                    "velocity": 0.29133858267716534,
                    "duration": 0.39899520000000166
                },
                {
                    "name": "C#3",
                    "midi": 49,
                    "time": 77.13907200000011,
                    "velocity": 0.29133858267716534,
                    "duration": 0.39899520000000166
                },
                {
                    "name": "E3",
                    "midi": 52,
                    "time": 77.13907200000011,
                    "velocity": 0.29133858267716534,
                    "duration": 0.39899520000000166
                },
                {
                    "name": "A3",
                    "midi": 57,
                    "time": 77.13907200000011,
                    "velocity": 0.29133858267716534,
                    "duration": 0.39899520000000166
                },
                {
                    "name": "C#4",
                    "midi": 61,
                    "time": 77.13907200000011,
                    "velocity": 0.3543307086614173,
                    "duration": 0.39899520000000166
                },
                {
                    "name": "C#3",
                    "midi": 49,
                    "time": 77.58240000000012,
                    "velocity": 0.2440944881889764,
                    "duration": 0.39899520000000166
                },
                {
                    "name": "E3",
                    "midi": 52,
                    "time": 77.58240000000012,
                    "velocity": 0.2440944881889764,
                    "duration": 0.39899520000000166
                },
                {
                    "name": "A3",
                    "midi": 57,
                    "time": 77.58240000000012,
                    "velocity": 0.2440944881889764,
                    "duration": 0.39899520000000166
                },
                {
                    "name": "C#4",
                    "midi": 61,
                    "time": 77.58240000000012,
                    "velocity": 0.29133858267716534,
                    "duration": 0.39899520000000166
                },
                {
                    "name": "F#3",
                    "midi": 54,
                    "time": 78.46905600000012,
                    "velocity": 0.3700787401574803,
                    "duration": 0.39899520000000166
                },
                {
                    "name": "D#4",
                    "midi": 63,
                    "time": 78.46905600000012,
                    "velocity": 0.4409448818897638,
                    "duration": 0.39899520000000166
                },
                {
                    "name": "A3",
                    "midi": 57,
                    "time": 78.46905600000012,
                    "velocity": 0.3700787401574803,
                    "duration": 0.39899520000000166
                },
                {
                    "name": "F#3",
                    "midi": 54,
                    "time": 78.91238400000013,
                    "velocity": 0.3700787401574803,
                    "duration": 0.39899520000000166
                },
                {
                    "name": "A3",
                    "midi": 57,
                    "time": 78.91238400000013,
                    "velocity": 0.3700787401574803,
                    "duration": 0.39899520000000166
                },
                {
                    "name": "D#4",
                    "midi": 63,
                    "time": 78.91238400000013,
                    "velocity": 0.4409448818897638,
                    "duration": 0.39899520000000166
                },
                {
                    "name": "F#3",
                    "midi": 54,
                    "time": 79.35571200000014,
                    "velocity": 0.30708661417322836,
                    "duration": 0.39899520000000166
                },
                {
                    "name": "A3",
                    "midi": 57,
                    "time": 79.35571200000014,
                    "velocity": 0.30708661417322836,
                    "duration": 0.39899520000000166
                },
                {
                    "name": "D#4",
                    "midi": 63,
                    "time": 79.35571200000014,
                    "velocity": 0.3700787401574803,
                    "duration": 0.39899520000000166
                },
                {
                    "name": "F3",
                    "midi": 53,
                    "time": 79.79904000000015,
                    "velocity": 0.4015748031496063,
                    "duration": 0.39899520000000166
                },
                {
                    "name": "A3",
                    "midi": 57,
                    "time": 79.79904000000015,
                    "velocity": 0.4015748031496063,
                    "duration": 0.39899520000000166
                },
                {
                    "name": "D4",
                    "midi": 62,
                    "time": 79.79904000000015,
                    "velocity": 0.48031496062992124,
                    "duration": 0.39899520000000166
                },
                {
                    "name": "F3",
                    "midi": 53,
                    "time": 80.24236800000016,
                    "velocity": 0.33858267716535434,
                    "duration": 0.39899520000000166
                },
                {
                    "name": "A3",
                    "midi": 57,
                    "time": 80.24236800000016,
                    "velocity": 0.33858267716535434,
                    "duration": 0.39899520000000166
                },
                {
                    "name": "D4",
                    "midi": 62,
                    "time": 80.24236800000016,
                    "velocity": 0.4015748031496063,
                    "duration": 0.39899520000000166
                },
                {
                    "name": "B3",
                    "midi": 59,
                    "time": 80.68569600000016,
                    "velocity": 0.4015748031496063,
                    "duration": 0.39899520000000166
                },
                {
                    "name": "F3",
                    "midi": 53,
                    "time": 80.68569600000016,
                    "velocity": 0.4015748031496063,
                    "duration": 0.39899520000000166
                },
                {
                    "name": "A3",
                    "midi": 57,
                    "time": 80.68569600000016,
                    "velocity": 0.4015748031496063,
                    "duration": 0.39899520000000166
                },
                {
                    "name": "D4",
                    "midi": 62,
                    "time": 80.68569600000016,
                    "velocity": 0.48031496062992124,
                    "duration": 0.39899520000000166
                },
                {
                    "name": "B3",
                    "midi": 59,
                    "time": 81.12902400000017,
                    "velocity": 0.33858267716535434,
                    "duration": 0.39899520000000166
                },
                {
                    "name": "F3",
                    "midi": 53,
                    "time": 81.12902400000017,
                    "velocity": 0.33858267716535434,
                    "duration": 0.39899520000000166
                },
                {
                    "name": "A3",
                    "midi": 57,
                    "time": 81.12902400000017,
                    "velocity": 0.33858267716535434,
                    "duration": 0.39899520000000166
                },
                {
                    "name": "D4",
                    "midi": 62,
                    "time": 81.12902400000017,
                    "velocity": 0.4015748031496063,
                    "duration": 0.39899520000000166
                },
                {
                    "name": "E3",
                    "midi": 52,
                    "time": 81.57235200000018,
                    "velocity": 0.3937007874015748,
                    "duration": 0.8866560000000021
                },
                {
                    "name": "A3",
                    "midi": 57,
                    "time": 81.57235200000018,
                    "velocity": 0.3937007874015748,
                    "duration": 0.8866560000000021
                },
                {
                    "name": "C#4",
                    "midi": 61,
                    "time": 81.57235200000018,
                    "velocity": 0.4645669291338583,
                    "duration": 0.8866560000000021
                },
                {
                    "name": "E3",
                    "midi": 52,
                    "time": 86.00563200000018,
                    "velocity": 0.2440944881889764,
                    "duration": 0.8866560000000021
                },
                {
                    "name": "E2",
                    "midi": 40,
                    "time": 86.89228800000018,
                    "velocity": 0.2047244094488189,
                    "duration": 1.7733120000000042
                },
                {
                    "name": "D3",
                    "midi": 50,
                    "time": 86.89228800000018,
                    "velocity": 0.2440944881889764,
                    "duration": 1.7733120000000042
                },
                {
                    "name": "A2",
                    "midi": 45,
                    "time": 88.66560000000018,
                    "velocity": 0.2204724409448819,
                    "duration": 3.5466240000000084
                },
                {
                    "name": "C#3",
                    "midi": 49,
                    "time": 88.66560000000018,
                    "velocity": 0.2677165354330709,
                    "duration": 0.8866560000000021
                },
                {
                    "name": "A1",
                    "midi": 33,
                    "time": 92.21222400000019,
                    "velocity": 0.2204724409448819,
                    "duration": 1.329983999999996
                },
                {
                    "name": "A2",
                    "midi": 45,
                    "time": 92.21222400000019,
                    "velocity": 0.2677165354330709,
                    "duration": 1.329983999999996
                },
                {
                    "name": "G#1",
                    "midi": 32,
                    "time": 93.54220800000019,
                    "velocity": 0.2204724409448819,
                    "duration": 0.44332799999999395
                },
                {
                    "name": "G#2",
                    "midi": 44,
                    "time": 93.54220800000019,
                    "velocity": 0.2677165354330709,
                    "duration": 0.44332799999999395
                },
                {
                    "name": "F#2",
                    "midi": 42,
                    "time": 93.98553600000018,
                    "velocity": 0.2992125984251969,
                    "duration": 2.6599680000000063
                },
                {
                    "name": "F#1",
                    "midi": 30,
                    "time": 93.98553600000018,
                    "velocity": 0.25196850393700787,
                    "duration": 2.6599680000000063
                },
                {
                    "name": "D3",
                    "midi": 50,
                    "time": 96.64550400000019,
                    "velocity": 0.30708661417322836,
                    "duration": 0.8866560000000021
                },
                {
                    "name": "D2",
                    "midi": 38,
                    "time": 96.64550400000019,
                    "velocity": 0.25984251968503935,
                    "duration": 0.8866560000000021
                },
                {
                    "name": "E3",
                    "midi": 52,
                    "time": 97.53216000000019,
                    "velocity": 0.28346456692913385,
                    "duration": 1.7733120000000042
                },
                {
                    "name": "E2",
                    "midi": 40,
                    "time": 97.53216000000019,
                    "velocity": 0.23622047244094488,
                    "duration": 1.7733120000000042
                },
                {
                    "name": "E3",
                    "midi": 52,
                    "time": 99.3054720000002,
                    "velocity": 0.28346456692913385,
                    "duration": 0.8866560000000021
                },
                {
                    "name": "A2",
                    "midi": 45,
                    "time": 99.3054720000002,
                    "velocity": 0.23622047244094488,
                    "duration": 0.8866560000000021
                },
                {
                    "name": "C#4",
                    "midi": 61,
                    "time": 101.0787840000002,
                    "velocity": 0.16535433070866143,
                    "duration": 0.44332799999999395
                },
                {
                    "name": "A3",
                    "midi": 57,
                    "time": 101.0787840000002,
                    "velocity": 0.16535433070866143,
                    "duration": 0.44332799999999395
                },
                {
                    "name": "E4",
                    "midi": 64,
                    "time": 101.0787840000002,
                    "velocity": 0.1968503937007874,
                    "duration": 0.44332799999999395
                },
                {
                    "name": "C#4",
                    "midi": 61,
                    "time": 101.96544000000019,
                    "velocity": 0.14960629921259844,
                    "duration": 0.44332799999999395
                },
                {
                    "name": "E4",
                    "midi": 64,
                    "time": 101.96544000000019,
                    "velocity": 0.1732283464566929,
                    "duration": 0.44332799999999395
                },
                {
                    "name": "A3",
                    "midi": 57,
                    "time": 101.96544000000019,
                    "velocity": 0.14960629921259844,
                    "duration": 0.44332799999999395
                },
                {
                    "name": "C#4",
                    "midi": 61,
                    "time": 102.85209600000017,
                    "velocity": 0.1968503937007874,
                    "duration": 0.44332799999999395
                },
                {
                    "name": "A3",
                    "midi": 57,
                    "time": 102.85209600000017,
                    "velocity": 0.1968503937007874,
                    "duration": 0.44332799999999395
                },
                {
                    "name": "E4",
                    "midi": 64,
                    "time": 102.85209600000017,
                    "velocity": 0.1968503937007874,
                    "duration": 0.44332799999999395
                }
            ],
            "controlChanges": {},
            "id": 2,
            "name": "Piano left",
            "instrumentNumber": 0,
            "instrument": "acoustic grand piano",
            "instrumentFamily": "piano",
            "channelNumber": 0,
            "isPercussion": false
        },
        {
            "startTime": 0,
            "duration": 0,
            "length": 0,
            "notes": [],
            "controlChanges": {
                "64": [
                    {
                        "number": 64,
                        "time": 0.157012,
                        "value": 1
                    },
                    {
                        "number": 64,
                        "time": 1.7843951999999998,
                        "value": 0
                    },
                    {
                        "number": 64,
                        "time": 1.9691151999999998,
                        "value": 1
                    },
                    {
                        "number": 64,
                        "time": 3.5632487999999998,
                        "value": 0
                    },
                    {
                        "number": 64,
                        "time": 3.6777751999999997,
                        "value": 1
                    },
                    {
                        "number": 64,
                        "time": 4.4499048,
                        "value": 0
                    },
                    {
                        "number": 64,
                        "time": 4.5644312,
                        "value": 1
                    },
                    {
                        "number": 64,
                        "time": 4.902468799999999,
                        "value": 0
                    },
                    {
                        "number": 64,
                        "time": 5.059480799999999,
                        "value": 1
                    },
                    {
                        "number": 64,
                        "time": 5.3457968,
                        "value": 0
                    },
                    {
                        "number": 64,
                        "time": 5.4381568,
                        "value": 1
                    },
                    {
                        "number": 64,
                        "time": 5.7946664,
                        "value": 0
                    },
                    {
                        "number": 64,
                        "time": 5.907345599999999,
                        "value": 1
                    },
                    {
                        "number": 64,
                        "time": 6.225064,
                        "value": 0
                    },
                    {
                        "number": 64,
                        "time": 6.3765344,
                        "value": 1
                    },
                    {
                        "number": 64,
                        "time": 6.668392,
                        "value": 0
                    },
                    {
                        "number": 64,
                        "time": 6.7810711999999995,
                        "value": 1
                    },
                    {
                        "number": 64,
                        "time": 7.185607999999999,
                        "value": 0
                    },
                    {
                        "number": 64,
                        "time": 7.276120799999999,
                        "value": 1
                    },
                    {
                        "number": 64,
                        "time": 7.5624367999999995,
                        "value": 0
                    },
                    {
                        "number": 64,
                        "time": 7.7323792,
                        "value": 1
                    },
                    {
                        "number": 64,
                        "time": 8.0334728,
                        "value": 0
                    },
                    {
                        "number": 64,
                        "time": 8.1627768,
                        "value": 1
                    },
                    {
                        "number": 64,
                        "time": 8.438009599999999,
                        "value": 0
                    },
                    {
                        "number": 64,
                        "time": 8.5285224,
                        "value": 1
                    },
                    {
                        "number": 64,
                        "time": 8.8979624,
                        "value": 0
                    },
                    {
                        "number": 64,
                        "time": 9.0752936,
                        "value": 1
                    },
                    {
                        "number": 64,
                        "time": 9.7864656,
                        "value": 0
                    },
                    {
                        "number": 64,
                        "time": 9.974879999999999,
                        "value": 1
                    },
                    {
                        "number": 64,
                        "time": 10.663885599999999,
                        "value": 0
                    },
                    {
                        "number": 64,
                        "time": 10.835675199999999,
                        "value": 1
                    },
                    {
                        "number": 64,
                        "time": 15.256024799999999,
                        "value": 0
                    },
                    {
                        "number": 64,
                        "time": 16.116819999999997,
                        "value": 1
                    },
                    {
                        "number": 64,
                        "time": 16.876019199999998,
                        "value": 0
                    },
                    {
                        "number": 64,
                        "time": 17.0551976,
                        "value": 1
                    },
                    {
                        "number": 64,
                        "time": 17.7589808,
                        "value": 0
                    },
                    {
                        "number": 64,
                        "time": 17.9806448,
                        "value": 1
                    },
                    {
                        "number": 64,
                        "time": 19.5489176,
                        "value": 0
                    },
                    {
                        "number": 64,
                        "time": 21.3591736,
                        "value": 1
                    },
                    {
                        "number": 64,
                        "time": 23.095541599999997,
                        "value": 0
                    },
                    {
                        "number": 64,
                        "time": 23.313511199999997,
                        "value": 1
                    },
                    {
                        "number": 64,
                        "time": 23.971114399999998,
                        "value": 0
                    },
                    {
                        "number": 64,
                        "time": 24.2001672,
                        "value": 1
                    },
                    {
                        "number": 64,
                        "time": 24.846687199999998,
                        "value": 0
                    },
                    {
                        "number": 64,
                        "time": 25.140392,
                        "value": 1
                    },
                    {
                        "number": 64,
                        "time": 26.631082399999997,
                        "value": 0
                    },
                    {
                        "number": 64,
                        "time": 26.991286399999996,
                        "value": 1
                    },
                    {
                        "number": 64,
                        "time": 28.419171999999996,
                        "value": 0
                    },
                    {
                        "number": 64,
                        "time": 28.768292799999998,
                        "value": 1
                    },
                    {
                        "number": 64,
                        "time": 29.363091199999996,
                        "value": 0
                    },
                    {
                        "number": 64,
                        "time": 30.303315999999995,
                        "value": 1
                    },
                    {
                        "number": 64,
                        "time": 31.062515199999996,
                        "value": 0
                    },
                    {
                        "number": 64,
                        "time": 31.241693599999998,
                        "value": 1
                    },
                    {
                        "number": 64,
                        "time": 31.945476799999998,
                        "value": 0
                    },
                    {
                        "number": 64,
                        "time": 32.1671408,
                        "value": 1
                    },
                    {
                        "number": 64,
                        "time": 33.7354136,
                        "value": 0
                    },
                    {
                        "number": 64,
                        "time": 35.545669600000004,
                        "value": 1
                    },
                    {
                        "number": 64,
                        "time": 37.2820376,
                        "value": 0
                    },
                    {
                        "number": 64,
                        "time": 37.5000072,
                        "value": 1
                    },
                    {
                        "number": 64,
                        "time": 38.157610399999996,
                        "value": 0
                    },
                    {
                        "number": 64,
                        "time": 38.386663199999994,
                        "value": 1
                    },
                    {
                        "number": 64,
                        "time": 39.033183199999996,
                        "value": 0
                    },
                    {
                        "number": 64,
                        "time": 39.326888,
                        "value": 1
                    },
                    {
                        "number": 64,
                        "time": 40.817578399999995,
                        "value": 0
                    },
                    {
                        "number": 64,
                        "time": 41.1777824,
                        "value": 1
                    },
                    {
                        "number": 64,
                        "time": 42.605668,
                        "value": 0
                    },
                    {
                        "number": 64,
                        "time": 42.9547888,
                        "value": 1
                    },
                    {
                        "number": 64,
                        "time": 44.3586608,
                        "value": 0
                    },
                    {
                        "number": 64,
                        "time": 44.620963200000006,
                        "value": 1
                    },
                    {
                        "number": 64,
                        "time": 45.247164000000005,
                        "value": 0
                    },
                    {
                        "number": 64,
                        "time": 46.106112,
                        "value": 1
                    },
                    {
                        "number": 64,
                        "time": 47.0056984,
                        "value": 0
                    },
                    {
                        "number": 64,
                        "time": 49.652736,
                        "value": 1
                    },
                    {
                        "number": 64,
                        "time": 50.561558399999996,
                        "value": 0
                    },
                    {
                        "number": 64,
                        "time": 50.7721392,
                        "value": 1
                    },
                    {
                        "number": 64,
                        "time": 51.887848,
                        "value": 0
                    },
                    {
                        "number": 64,
                        "time": 53.3175808,
                        "value": 1
                    },
                    {
                        "number": 64,
                        "time": 54.9985328,
                        "value": 0
                    },
                    {
                        "number": 64,
                        "time": 55.129684,
                        "value": 1
                    },
                    {
                        "number": 64,
                        "time": 56.764455999999996,
                        "value": 0
                    },
                    {
                        "number": 64,
                        "time": 57.006439199999996,
                        "value": 1
                    },
                    {
                        "number": 64,
                        "time": 57.66773679999999,
                        "value": 0
                    },
                    {
                        "number": 64,
                        "time": 58.545156799999994,
                        "value": 0
                    },
                    {
                        "number": 64,
                        "time": 58.8074592,
                        "value": 1
                    },
                    {
                        "number": 64,
                        "time": 60.305538399999996,
                        "value": 0
                    },
                    {
                        "number": 64,
                        "time": 60.449619999999996,
                        "value": 1
                    },
                    {
                        "number": 64,
                        "time": 61.1921944,
                        "value": 0
                    },
                    {
                        "number": 64,
                        "time": 62.091780799999995,
                        "value": 0
                    },
                    {
                        "number": 64,
                        "time": 62.3540832,
                        "value": 1
                    },
                    {
                        "number": 64,
                        "time": 63.8540096,
                        "value": 0
                    },
                    {
                        "number": 64,
                        "time": 64.0479656,
                        "value": 1
                    },
                    {
                        "number": 64,
                        "time": 64.7388184,
                        "value": 0
                    },
                    {
                        "number": 64,
                        "time": 65.6384048,
                        "value": 0
                    },
                    {
                        "number": 64,
                        "time": 65.9007072,
                        "value": 1
                    },
                    {
                        "number": 64,
                        "time": 67.3913976,
                        "value": 0
                    },
                    {
                        "number": 64,
                        "time": 67.478216,
                        "value": 1
                    },
                    {
                        "number": 64,
                        "time": 67.8458088,
                        "value": 0
                    },
                    {
                        "number": 64,
                        "time": 70.93248,
                        "value": 1
                    },
                    {
                        "number": 64,
                        "time": 71.8413024,
                        "value": 0
                    },
                    {
                        "number": 64,
                        "time": 72.862804,
                        "value": 1
                    },
                    {
                        "number": 64,
                        "time": 73.6220032,
                        "value": 0
                    },
                    {
                        "number": 64,
                        "time": 73.80118159999999,
                        "value": 1
                    },
                    {
                        "number": 64,
                        "time": 74.5049648,
                        "value": 0
                    },
                    {
                        "number": 64,
                        "time": 74.7266288,
                        "value": 1
                    },
                    {
                        "number": 64,
                        "time": 76.2949016,
                        "value": 0
                    },
                    {
                        "number": 64,
                        "time": 76.3835672,
                        "value": 1
                    },
                    {
                        "number": 64,
                        "time": 78.025728,
                        "value": 0
                    },
                    {
                        "number": 64,
                        "time": 78.2787944,
                        "value": 1
                    },
                    {
                        "number": 64,
                        "time": 79.84522,
                        "value": 0
                    },
                    {
                        "number": 64,
                        "time": 80.1370776,
                        "value": 1
                    },
                    {
                        "number": 64,
                        "time": 81.5797408,
                        "value": 0
                    },
                    {
                        "number": 64,
                        "time": 81.9122368,
                        "value": 1
                    },
                    {
                        "number": 64,
                        "time": 82.93004400000001,
                        "value": 0
                    },
                    {
                        "number": 64,
                        "time": 83.5802584,
                        "value": 1
                    },
                    {
                        "number": 64,
                        "time": 85.1319064,
                        "value": 0
                    },
                    {
                        "number": 64,
                        "time": 85.3147792,
                        "value": 1
                    },
                    {
                        "number": 64,
                        "time": 86.90521840000001,
                        "value": 0
                    },
                    {
                        "number": 64,
                        "time": 87.0751608,
                        "value": 1
                    },
                    {
                        "number": 64,
                        "time": 87.3596296,
                        "value": 0
                    },
                    {
                        "number": 64,
                        "time": 88.822612,
                        "value": 1
                    },
                    {
                        "number": 64,
                        "time": 90.4499952,
                        "value": 0
                    },
                    {
                        "number": 64,
                        "time": 90.6347152,
                        "value": 1
                    },
                    {
                        "number": 64,
                        "time": 92.22884880000001,
                        "value": 0
                    },
                    {
                        "number": 64,
                        "time": 92.34337520000001,
                        "value": 1
                    },
                    {
                        "number": 64,
                        "time": 93.11550480000001,
                        "value": 0
                    },
                    {
                        "number": 64,
                        "time": 93.23003120000001,
                        "value": 1
                    },
                    {
                        "number": 64,
                        "time": 93.56806880000002,
                        "value": 0
                    },
                    {
                        "number": 64,
                        "time": 93.72508080000001,
                        "value": 1
                    },
                    {
                        "number": 64,
                        "time": 94.01139680000001,
                        "value": 0
                    },
                    {
                        "number": 64,
                        "time": 94.10375680000001,
                        "value": 1
                    },
                    {
                        "number": 64,
                        "time": 94.46026640000001,
                        "value": 0
                    },
                    {
                        "number": 64,
                        "time": 94.57294560000001,
                        "value": 1
                    },
                    {
                        "number": 64,
                        "time": 94.89066400000002,
                        "value": 0
                    },
                    {
                        "number": 64,
                        "time": 95.04213440000001,
                        "value": 1
                    },
                    {
                        "number": 64,
                        "time": 95.33399200000001,
                        "value": 0
                    },
                    {
                        "number": 64,
                        "time": 95.44667120000001,
                        "value": 1
                    },
                    {
                        "number": 64,
                        "time": 95.85120800000001,
                        "value": 0
                    },
                    {
                        "number": 64,
                        "time": 95.94172080000001,
                        "value": 1
                    },
                    {
                        "number": 64,
                        "time": 96.22803680000001,
                        "value": 0
                    },
                    {
                        "number": 64,
                        "time": 96.39797920000001,
                        "value": 1
                    },
                    {
                        "number": 64,
                        "time": 96.69907280000001,
                        "value": 0
                    },
                    {
                        "number": 64,
                        "time": 96.82837680000002,
                        "value": 1
                    },
                    {
                        "number": 64,
                        "time": 97.10360960000001,
                        "value": 0
                    },
                    {
                        "number": 64,
                        "time": 97.19412240000001,
                        "value": 1
                    },
                    {
                        "number": 64,
                        "time": 97.56356240000001,
                        "value": 0
                    },
                    {
                        "number": 64,
                        "time": 97.7408936,
                        "value": 1
                    },
                    {
                        "number": 64,
                        "time": 98.45206560000001,
                        "value": 0
                    },
                    {
                        "number": 64,
                        "time": 98.64048000000001,
                        "value": 1
                    },
                    {
                        "number": 64,
                        "time": 99.32948560000001,
                        "value": 0
                    },
                    {
                        "number": 64,
                        "time": 99.50127520000001,
                        "value": 1
                    },
                    {
                        "number": 64,
                        "time": 103.50415760000001,
                        "value": 0
                    }
                ]
            },
            "id": 3,
            "name": "Pedale",
            "instrumentNumber": 0,
            "instrument": "acoustic grand piano",
            "instrumentFamily": "piano",
            "channelNumber": 0,
            "isPercussion": false
        },
        {
            "startTime": 0,
            "duration": 0,
            "length": 0,
            "notes": [],
            "controlChanges": {},
            "id": 4,
            "name": "Mendelssohn: Songs without words Opus 19 No. 4"
        },
        {
            "startTime": 0,
            "duration": 0,
            "length": 0,
            "notes": [],
            "controlChanges": {},
            "id": 5,
            "name": "Copyright  2010 by Bernd Krueger"
        },
        {
            "startTime": 0,
            "duration": 0,
            "length": 0,
            "notes": [],
            "controlChanges": {},
            "id": 6,
            "name": "http://www.piano-midi.de/"
        },
        {
            "startTime": 0,
            "duration": 0,
            "length": 0,
            "notes": [],
            "controlChanges": {},
            "id": 7,
            "name": "Edition: 2014-11-10"
        },
        {
            "startTime": 0,
            "duration": 0,
            "length": 0,
            "notes": [],
            "controlChanges": {},
            "id": 8,
            "name": "Spur 8"
        },
        {
            "startTime": 0,
            "duration": 0,
            "length": 0,
            "notes": [],
            "controlChanges": {},
            "id": 9,
            "name": "Spur 9"
        },
        {
            "startTime": 0,
            "duration": 0,
            "length": 0,
            "notes": [],
            "controlChanges": {},
            "id": 10,
            "name": "Spur 10"
        },
        {
            "startTime": 0,
            "duration": 0,
            "length": 0,
            "notes": [],
            "controlChanges": {},
            "id": 11,
            "name": "Spur 11"
        },
        {
            "startTime": 0,
            "duration": 0,
            "length": 0,
            "notes": [],
            "controlChanges": {},
            "id": 12,
            "name": "Spur 12"
        },
        {
            "startTime": 0,
            "duration": 0,
            "length": 0,
            "notes": [],
            "controlChanges": {},
            "id": 13,
            "name": "Spur 13"
        },
        {
            "startTime": 0,
            "duration": 0,
            "length": 0,
            "notes": [],
            "controlChanges": {},
            "id": 14,
            "name": "Spur 14"
        },
        {
            "startTime": 0,
            "duration": 0,
            "length": 0,
            "notes": [],
            "controlChanges": {},
            "id": 15,
            "name": "Spur 15"
        },
        {
            "startTime": 0,
            "duration": 0,
            "length": 0,
            "notes": [],
            "controlChanges": {},
            "id": 16,
            "name": "Spur 16"
        }
    ]
}