{
    "header": {
        "PPQ": 480,
        "timeSignature": [
            3,
            8
        ],
        "bpm": 129.9300326774032,
        "name": "Sonate D960, 3. Satz"
    },
    "startTime": 0,
    "duration": 217.03988999999888,
    "tracks": [
        {
            "startTime": 0,
            "duration": 0,
            "length": 0,
            "notes": [],
            "controlChanges": {},
            "id": 0,
            "name": "Sonate D960, 3. Satz"
        },
        {
            "startTime": 0,
            "duration": 217.03988999999774,
            "length": 1705,
            "notes": [
                {
                    "name": "A#5",
                    "midi": 82,
                    "time": 0,
                    "velocity": 0.4251968503937008,
                    "duration": 0.23089350000000003
                },
                {
                    "name": "A5",
                    "midi": 81,
                    "time": 0.23089350000000003,
                    "velocity": 0.3700787401574803,
                    "duration": 0.23089350000000003
                },
                {
                    "name": "A#5",
                    "midi": 82,
                    "time": 0.46178700000000006,
                    "velocity": 0.3700787401574803,
                    "duration": 0.23089349999999997
                },
                {
                    "name": "G5",
                    "midi": 79,
                    "time": 0.6926805,
                    "velocity": 0.4015748031496063,
                    "duration": 0.23089350000000008
                },
                {
                    "name": "A5",
                    "midi": 81,
                    "time": 0.9235740000000001,
                    "velocity": 0.36220472440944884,
                    "duration": 0.11544675000000004
                },
                {
                    "name": "A#5",
                    "midi": 82,
                    "time": 1.0390207500000002,
                    "velocity": 0.3700787401574803,
                    "duration": 0.11544675000000004
                },
                {
                    "name": "C6",
                    "midi": 84,
                    "time": 1.1544675000000002,
                    "velocity": 0.3858267716535433,
                    "duration": 0.11544675000000004
                },
                {
                    "name": "D6",
                    "midi": 86,
                    "time": 1.2699142500000002,
                    "velocity": 0.3937007874015748,
                    "duration": 0.11544675000000004
                },
                {
                    "name": "A#5",
                    "midi": 82,
                    "time": 1.3853610000000003,
                    "velocity": 0.41732283464566927,
                    "duration": 0.23089350000000008
                },
                {
                    "name": "C6",
                    "midi": 84,
                    "time": 1.6162545000000004,
                    "velocity": 0.4251968503937008,
                    "duration": 0.11544675000000004
                },
                {
                    "name": "A#5",
                    "midi": 82,
                    "time": 1.7317012500000004,
                    "velocity": 0.3700787401574803,
                    "duration": 0.11544675000000004
                },
                {
                    "name": "A5",
                    "midi": 81,
                    "time": 1.8471480000000005,
                    "velocity": 0.4015748031496063,
                    "duration": 0.11544675000000004
                },
                {
                    "name": "G5",
                    "midi": 79,
                    "time": 1.9625947500000005,
                    "velocity": 0.3700787401574803,
                    "duration": 0.11544674999999982
                },
                {
                    "name": "F5",
                    "midi": 77,
                    "time": 2.0780415000000003,
                    "velocity": 0.4409448818897638,
                    "duration": 0.05772337500000013
                },
                {
                    "name": "F5",
                    "midi": 77,
                    "time": 2.3089350000000004,
                    "velocity": 0.4015748031496063,
                    "duration": 0.05772337500000013
                },
                {
                    "name": "F5",
                    "midi": 77,
                    "time": 2.5398285000000005,
                    "velocity": 0.3937007874015748,
                    "duration": 0.05772337500000013
                },
                {
                    "name": "F#5",
                    "midi": 78,
                    "time": 2.7707220000000006,
                    "velocity": 0.48031496062992124,
                    "duration": 0.23089350000000008
                },
                {
                    "name": "F#6",
                    "midi": 90,
                    "time": 3.0016155000000007,
                    "velocity": 0.44881889763779526,
                    "duration": 0.23089350000000008
                },
                {
                    "name": "F#6",
                    "midi": 90,
                    "time": 3.2325090000000007,
                    "velocity": 0.44881889763779526,
                    "duration": 0.05772337500000013
                },
                {
                    "name": "G6",
                    "midi": 91,
                    "time": 3.463402500000001,
                    "velocity": 0.5118110236220472,
                    "duration": 0.23089350000000008
                },
                {
                    "name": "G5",
                    "midi": 79,
                    "time": 3.694296000000001,
                    "velocity": 0.4015748031496063,
                    "duration": 0.23089350000000008
                },
                {
                    "name": "G5",
                    "midi": 79,
                    "time": 3.925189500000001,
                    "velocity": 0.4015748031496063,
                    "duration": 0.05772337500000013
                },
                {
                    "name": "A5",
                    "midi": 81,
                    "time": 4.1560830000000015,
                    "velocity": 0.41732283464566927,
                    "duration": 0.05772337500000013
                },
                {
                    "name": "A#6",
                    "midi": 94,
                    "time": 4.358114812500002,
                    "velocity": 0.36220472440944884,
                    "duration": 0.028861687500000066
                },
                {
                    "name": "A6",
                    "midi": 93,
                    "time": 4.386976500000002,
                    "velocity": 0.4094488188976378,
                    "duration": 0.11544675000000026
                },
                {
                    "name": "G6",
                    "midi": 91,
                    "time": 4.502423250000002,
                    "velocity": 0.4015748031496063,
                    "duration": 0.11544675000000026
                },
                {
                    "name": "A6",
                    "midi": 93,
                    "time": 4.617870000000003,
                    "velocity": 0.4094488188976378,
                    "duration": 0.23089349999999964
                },
                {
                    "name": "A#6",
                    "midi": 94,
                    "time": 4.848763500000002,
                    "velocity": 0.4251968503937008,
                    "duration": 0.05772337500000013
                },
                {
                    "name": "C6",
                    "midi": 84,
                    "time": 5.050795312500003,
                    "velocity": 0.3543307086614173,
                    "duration": 0.028861687500000066
                },
                {
                    "name": "A#5",
                    "midi": 82,
                    "time": 5.079657000000003,
                    "velocity": 0.4015748031496063,
                    "duration": 0.11544675000000026
                },
                {
                    "name": "A5",
                    "midi": 81,
                    "time": 5.195103750000003,
                    "velocity": 0.3700787401574803,
                    "duration": 0.11544675000000026
                },
                {
                    "name": "A#5",
                    "midi": 82,
                    "time": 5.310550500000003,
                    "velocity": 0.4015748031496063,
                    "duration": 0.11544675000000026
                },
                {
                    "name": "A#4",
                    "midi": 70,
                    "time": 5.541444000000004,
                    "velocity": 0.2677165354330709,
                    "duration": 0.11544675000000026
                },
                {
                    "name": "D5",
                    "midi": 74,
                    "time": 5.541444000000004,
                    "velocity": 0.31496062992125984,
                    "duration": 0.11544675000000026
                },
                {
                    "name": "F5",
                    "midi": 77,
                    "time": 5.656890750000004,
                    "velocity": 0.2755905511811024,
                    "duration": 0.11544675000000026
                },
                {
                    "name": "A#4",
                    "midi": 70,
                    "time": 5.772337500000004,
                    "velocity": 0.2677165354330709,
                    "duration": 0.11544675000000026
                },
                {
                    "name": "D5",
                    "midi": 74,
                    "time": 5.772337500000004,
                    "velocity": 0.3228346456692913,
                    "duration": 0.11544675000000026
                },
                {
                    "name": "F5",
                    "midi": 77,
                    "time": 5.887784250000005,
                    "velocity": 0.2677165354330709,
                    "duration": 0.11544675000000026
                },
                {
                    "name": "D5",
                    "midi": 74,
                    "time": 6.003231000000005,
                    "velocity": 0.3228346456692913,
                    "duration": 0.11544675000000026
                },
                {
                    "name": "A#4",
                    "midi": 70,
                    "time": 6.003231000000005,
                    "velocity": 0.2677165354330709,
                    "duration": 0.11544675000000026
                },
                {
                    "name": "F5",
                    "midi": 77,
                    "time": 6.118677750000005,
                    "velocity": 0.2755905511811024,
                    "duration": 0.11544675000000026
                },
                {
                    "name": "A#4",
                    "midi": 70,
                    "time": 6.234124500000005,
                    "velocity": 0.2755905511811024,
                    "duration": 0.11544675000000026
                },
                {
                    "name": "D5",
                    "midi": 74,
                    "time": 6.234124500000005,
                    "velocity": 0.33070866141732286,
                    "duration": 0.11544675000000026
                },
                {
                    "name": "G5",
                    "midi": 79,
                    "time": 6.349571250000006,
                    "velocity": 0.2755905511811024,
                    "duration": 0.11544675000000026
                },
                {
                    "name": "A#4",
                    "midi": 70,
                    "time": 6.465018000000006,
                    "velocity": 0.2677165354330709,
                    "duration": 0.11544675000000026
                },
                {
                    "name": "D5",
                    "midi": 74,
                    "time": 6.465018000000006,
                    "velocity": 0.3228346456692913,
                    "duration": 0.11544675000000026
                },
                {
                    "name": "G5",
                    "midi": 79,
                    "time": 6.580464750000006,
                    "velocity": 0.2677165354330709,
                    "duration": 0.11544675000000026
                },
                {
                    "name": "A#4",
                    "midi": 70,
                    "time": 6.6959115000000065,
                    "velocity": 0.2677165354330709,
                    "duration": 0.11544675000000026
                },
                {
                    "name": "D5",
                    "midi": 74,
                    "time": 6.6959115000000065,
                    "velocity": 0.3228346456692913,
                    "duration": 0.11544675000000026
                },
                {
                    "name": "G5",
                    "midi": 79,
                    "time": 6.811358250000007,
                    "velocity": 0.2677165354330709,
                    "duration": 0.11544675000000026
                },
                {
                    "name": "A#4",
                    "midi": 70,
                    "time": 6.926805000000007,
                    "velocity": 0.29133858267716534,
                    "duration": 0.11544675000000026
                },
                {
                    "name": "D5",
                    "midi": 74,
                    "time": 6.926805000000007,
                    "velocity": 0.3464566929133858,
                    "duration": 0.11544675000000026
                },
                {
                    "name": "F5",
                    "midi": 77,
                    "time": 7.042251750000007,
                    "velocity": 0.2755905511811024,
                    "duration": 0.11544675000000026
                },
                {
                    "name": "A#4",
                    "midi": 70,
                    "time": 7.1576985000000075,
                    "velocity": 0.2677165354330709,
                    "duration": 0.11544675000000026
                },
                {
                    "name": "D5",
                    "midi": 74,
                    "time": 7.1576985000000075,
                    "velocity": 0.3228346456692913,
                    "duration": 0.11544675000000026
                },
                {
                    "name": "F5",
                    "midi": 77,
                    "time": 7.273145250000008,
                    "velocity": 0.2677165354330709,
                    "duration": 0.11544675000000026
                },
                {
                    "name": "D5",
                    "midi": 74,
                    "time": 7.388592000000008,
                    "velocity": 0.3228346456692913,
                    "duration": 0.11544675000000026
                },
                {
                    "name": "A#4",
                    "midi": 70,
                    "time": 7.388592000000008,
                    "velocity": 0.2677165354330709,
                    "duration": 0.11544675000000026
                },
                {
                    "name": "F5",
                    "midi": 77,
                    "time": 7.504038750000008,
                    "velocity": 0.2677165354330709,
                    "duration": 0.11544675000000026
                },
                {
                    "name": "D#5",
                    "midi": 75,
                    "time": 7.619485500000009,
                    "velocity": 0.3700787401574803,
                    "duration": 0.11544675000000026
                },
                {
                    "name": "A4",
                    "midi": 69,
                    "time": 7.619485500000009,
                    "velocity": 0.30708661417322836,
                    "duration": 0.11544675000000026
                },
                {
                    "name": "F5",
                    "midi": 77,
                    "time": 7.734932250000009,
                    "velocity": 0.2755905511811024,
                    "duration": 0.11544675000000026
                },
                {
                    "name": "D#5",
                    "midi": 75,
                    "time": 7.850379000000009,
                    "velocity": 0.3228346456692913,
                    "duration": 0.11544675000000026
                },
                {
                    "name": "A4",
                    "midi": 69,
                    "time": 7.850379000000009,
                    "velocity": 0.2677165354330709,
                    "duration": 0.11544675000000026
                },
                {
                    "name": "F5",
                    "midi": 77,
                    "time": 7.965825750000009,
                    "velocity": 0.29133858267716534,
                    "duration": 0.11544675000000026
                },
                {
                    "name": "D#5",
                    "midi": 75,
                    "time": 8.08127250000001,
                    "velocity": 0.3228346456692913,
                    "duration": 0.11544675000000026
                },
                {
                    "name": "A4",
                    "midi": 69,
                    "time": 8.08127250000001,
                    "velocity": 0.2677165354330709,
                    "duration": 0.11544675000000026
                },
                {
                    "name": "F5",
                    "midi": 77,
                    "time": 8.19671925000001,
                    "velocity": 0.2755905511811024,
                    "duration": 0.11544675000000026
                },
                {
                    "name": "A4",
                    "midi": 69,
                    "time": 8.31216600000001,
                    "velocity": 0.2992125984251969,
                    "duration": 0.11544675000000026
                },
                {
                    "name": "D#5",
                    "midi": 75,
                    "time": 8.31216600000001,
                    "velocity": 0.3543307086614173,
                    "duration": 0.11544675000000026
                },
                {
                    "name": "A5",
                    "midi": 81,
                    "time": 8.42761275000001,
                    "velocity": 0.2755905511811024,
                    "duration": 0.11544675000000026
                },
                {
                    "name": "A4",
                    "midi": 69,
                    "time": 8.54305950000001,
                    "velocity": 0.2677165354330709,
                    "duration": 0.11544675000000026
                },
                {
                    "name": "D#5",
                    "midi": 75,
                    "time": 8.54305950000001,
                    "velocity": 0.3228346456692913,
                    "duration": 0.11544675000000026
                },
                {
                    "name": "A5",
                    "midi": 81,
                    "time": 8.658506250000011,
                    "velocity": 0.2755905511811024,
                    "duration": 0.11544675000000026
                },
                {
                    "name": "A4",
                    "midi": 69,
                    "time": 8.773953000000011,
                    "velocity": 0.2677165354330709,
                    "duration": 0.11544675000000026
                },
                {
                    "name": "D#5",
                    "midi": 75,
                    "time": 8.773953000000011,
                    "velocity": 0.3228346456692913,
                    "duration": 0.11544675000000026
                },
                {
                    "name": "A5",
                    "midi": 81,
                    "time": 8.889399750000011,
                    "velocity": 0.2755905511811024,
                    "duration": 0.11544675000000026
                },
                {
                    "name": "D#5",
                    "midi": 75,
                    "time": 9.004846500000012,
                    "velocity": 0.3464566929133858,
                    "duration": 0.11544675000000026
                },
                {
                    "name": "A#4",
                    "midi": 70,
                    "time": 9.004846500000012,
                    "velocity": 0.29133858267716534,
                    "duration": 0.11544675000000026
                },
                {
                    "name": "A#5",
                    "midi": 82,
                    "time": 9.120293250000012,
                    "velocity": 0.2755905511811024,
                    "duration": 0.11544675000000026
                },
                {
                    "name": "A#4",
                    "midi": 70,
                    "time": 9.235740000000012,
                    "velocity": 0.2677165354330709,
                    "duration": 0.11544675000000026
                },
                {
                    "name": "D#5",
                    "midi": 75,
                    "time": 9.235740000000012,
                    "velocity": 0.3228346456692913,
                    "duration": 0.11544675000000026
                },
                {
                    "name": "A5",
                    "midi": 81,
                    "time": 9.351186750000013,
                    "velocity": 0.2755905511811024,
                    "duration": 0.11544675000000026
                },
                {
                    "name": "A#4",
                    "midi": 70,
                    "time": 9.466633500000013,
                    "velocity": 0.2677165354330709,
                    "duration": 0.11544675000000026
                },
                {
                    "name": "D#5",
                    "midi": 75,
                    "time": 9.466633500000013,
                    "velocity": 0.3228346456692913,
                    "duration": 0.11544675000000026
                },
                {
                    "name": "G5",
                    "midi": 79,
                    "time": 9.582080250000013,
                    "velocity": 0.2755905511811024,
                    "duration": 0.11544675000000026
                },
                {
                    "name": "G#4",
                    "midi": 68,
                    "time": 9.697527000000013,
                    "velocity": 0.2677165354330709,
                    "duration": 0.11544675000000026
                },
                {
                    "name": "D5",
                    "midi": 74,
                    "time": 9.697527000000013,
                    "velocity": 0.3228346456692913,
                    "duration": 0.11544675000000026
                },
                {
                    "name": "F5",
                    "midi": 77,
                    "time": 9.812973750000014,
                    "velocity": 0.2755905511811024,
                    "duration": 0.11544675000000026
                },
                {
                    "name": "G#4",
                    "midi": 68,
                    "time": 9.928420500000014,
                    "velocity": 0.2677165354330709,
                    "duration": 0.11544675000000026
                },
                {
                    "name": "D5",
                    "midi": 74,
                    "time": 9.928420500000014,
                    "velocity": 0.3228346456692913,
                    "duration": 0.11544675000000026
                },
                {
                    "name": "F5",
                    "midi": 77,
                    "time": 10.043867250000014,
                    "velocity": 0.2755905511811024,
                    "duration": 0.11544675000000026
                },
                {
                    "name": "D5",
                    "midi": 74,
                    "time": 10.159314000000014,
                    "velocity": 0.3228346456692913,
                    "duration": 0.11544675000000026
                },
                {
                    "name": "G#4",
                    "midi": 68,
                    "time": 10.159314000000014,
                    "velocity": 0.2677165354330709,
                    "duration": 0.11544675000000026
                },
                {
                    "name": "F5",
                    "midi": 77,
                    "time": 10.274760750000015,
                    "velocity": 0.2755905511811024,
                    "duration": 0.11544675000000026
                },
                {
                    "name": "D#5",
                    "midi": 75,
                    "time": 10.390207500000015,
                    "velocity": 0.3228346456692913,
                    "duration": 0.11544675000000026
                },
                {
                    "name": "G4",
                    "midi": 67,
                    "time": 10.390207500000015,
                    "velocity": 0.2677165354330709,
                    "duration": 0.11544675000000026
                },
                {
                    "name": "G5",
                    "midi": 79,
                    "time": 10.505654250000015,
                    "velocity": 0.2755905511811024,
                    "duration": 0.11544675000000026
                },
                {
                    "name": "D#5",
                    "midi": 75,
                    "time": 10.621101000000015,
                    "velocity": 0.3228346456692913,
                    "duration": 0.11544675000000026
                },
                {
                    "name": "G4",
                    "midi": 67,
                    "time": 10.621101000000015,
                    "velocity": 0.2677165354330709,
                    "duration": 0.11544675000000026
                },
                {
                    "name": "G5",
                    "midi": 79,
                    "time": 10.736547750000016,
                    "velocity": 0.2755905511811024,
                    "duration": 0.11544675000000026
                },
                {
                    "name": "D#5",
                    "midi": 75,
                    "time": 10.851994500000016,
                    "velocity": 0.3228346456692913,
                    "duration": 0.11544675000000026
                },
                {
                    "name": "G4",
                    "midi": 67,
                    "time": 10.851994500000016,
                    "velocity": 0.2677165354330709,
                    "duration": 0.11544675000000026
                },
                {
                    "name": "A#5",
                    "midi": 82,
                    "time": 11.082888000000017,
                    "velocity": 0.4409448818897638,
                    "duration": 0.05772337500000013
                },
                {
                    "name": "G#5",
                    "midi": 80,
                    "time": 11.256058125000017,
                    "velocity": 0.3937007874015748,
                    "duration": 0.05772337500000013
                },
                {
                    "name": "G5",
                    "midi": 79,
                    "time": 11.313781500000017,
                    "velocity": 0.4409448818897638,
                    "duration": 0.11544675000000026
                },
                {
                    "name": "F5",
                    "midi": 77,
                    "time": 11.429228250000017,
                    "velocity": 0.4094488188976378,
                    "duration": 0.11544675000000026
                },
                {
                    "name": "G5",
                    "midi": 79,
                    "time": 11.544675000000018,
                    "velocity": 0.4409448818897638,
                    "duration": 0.23089350000000053
                },
                {
                    "name": "A#5",
                    "midi": 82,
                    "time": 11.775568500000018,
                    "velocity": 0.4409448818897638,
                    "duration": 0.05772337500000013
                },
                {
                    "name": "G5",
                    "midi": 79,
                    "time": 11.948738625000018,
                    "velocity": 0.3858267716535433,
                    "duration": 0.05772337500000013
                },
                {
                    "name": "F5",
                    "midi": 77,
                    "time": 12.006462000000019,
                    "velocity": 0.4409448818897638,
                    "duration": 0.11544675000000026
                },
                {
                    "name": "E5",
                    "midi": 76,
                    "time": 12.121908750000019,
                    "velocity": 0.4094488188976378,
                    "duration": 0.11544675000000026
                },
                {
                    "name": "F5",
                    "midi": 77,
                    "time": 12.23735550000002,
                    "velocity": 0.4409448818897638,
                    "duration": 0.23089350000000053
                },
                {
                    "name": "C6",
                    "midi": 84,
                    "time": 12.46824900000002,
                    "velocity": 0.4566929133858268,
                    "duration": 0.23089350000000053
                },
                {
                    "name": "A#5",
                    "midi": 82,
                    "time": 12.69914250000002,
                    "velocity": 0.4645669291338583,
                    "duration": 0.11544675000000026
                },
                {
                    "name": "G#5",
                    "midi": 80,
                    "time": 12.81458925000002,
                    "velocity": 0.4251968503937008,
                    "duration": 0.11544675000000026
                },
                {
                    "name": "G5",
                    "midi": 79,
                    "time": 12.93003600000002,
                    "velocity": 0.4566929133858268,
                    "duration": 0.11544675000000026
                },
                {
                    "name": "F5",
                    "midi": 77,
                    "time": 13.045482750000021,
                    "velocity": 0.4566929133858268,
                    "duration": 0.11544675000000026
                },
                {
                    "name": "C6",
                    "midi": 84,
                    "time": 13.160929500000021,
                    "velocity": 0.4566929133858268,
                    "duration": 0.23089350000000053
                },
                {
                    "name": "C5",
                    "midi": 72,
                    "time": 13.391823000000022,
                    "velocity": 0.4409448818897638,
                    "duration": 0.23089350000000053
                },
                {
                    "name": "C5",
                    "midi": 72,
                    "time": 13.622716500000022,
                    "velocity": 0.4409448818897638,
                    "duration": 0.23089350000000053
                },
                {
                    "name": "G#4",
                    "midi": 68,
                    "time": 13.853610000000023,
                    "velocity": 0.29133858267716534,
                    "duration": 0.11544675000000026
                },
                {
                    "name": "C5",
                    "midi": 72,
                    "time": 13.853610000000023,
                    "velocity": 0.3464566929133858,
                    "duration": 0.11544675000000026
                },
                {
                    "name": "D#5",
                    "midi": 75,
                    "time": 13.969056750000023,
                    "velocity": 0.30708661417322836,
                    "duration": 0.11544675000000026
                },
                {
                    "name": "G#4",
                    "midi": 68,
                    "time": 14.084503500000023,
                    "velocity": 0.2992125984251969,
                    "duration": 0.11544675000000026
                },
                {
                    "name": "C5",
                    "midi": 72,
                    "time": 14.084503500000023,
                    "velocity": 0.3543307086614173,
                    "duration": 0.11544675000000026
                },
                {
                    "name": "D#5",
                    "midi": 75,
                    "time": 14.199950250000024,
                    "velocity": 0.2992125984251969,
                    "duration": 0.11544675000000026
                },
                {
                    "name": "G#4",
                    "midi": 68,
                    "time": 14.315397000000024,
                    "velocity": 0.2992125984251969,
                    "duration": 0.11544675000000026
                },
                {
                    "name": "C5",
                    "midi": 72,
                    "time": 14.315397000000024,
                    "velocity": 0.3543307086614173,
                    "duration": 0.11544675000000026
                },
                {
                    "name": "D#5",
                    "midi": 75,
                    "time": 14.430843750000024,
                    "velocity": 0.30708661417322836,
                    "duration": 0.11544675000000026
                },
                {
                    "name": "G#4",
                    "midi": 68,
                    "time": 14.546290500000024,
                    "velocity": 0.29133858267716534,
                    "duration": 0.11544675000000026
                },
                {
                    "name": "F5",
                    "midi": 77,
                    "time": 14.546290500000024,
                    "velocity": 0.3464566929133858,
                    "duration": 0.11544675000000026
                },
                {
                    "name": "G#5",
                    "midi": 80,
                    "time": 14.661737250000025,
                    "velocity": 0.30708661417322836,
                    "duration": 0.11544675000000026
                },
                {
                    "name": "G#4",
                    "midi": 68,
                    "time": 14.777184000000025,
                    "velocity": 0.30708661417322836,
                    "duration": 0.11544675000000026
                },
                {
                    "name": "F5",
                    "midi": 77,
                    "time": 14.777184000000025,
                    "velocity": 0.3700787401574803,
                    "duration": 0.11544675000000026
                },
                {
                    "name": "G#5",
                    "midi": 80,
                    "time": 14.892630750000025,
                    "velocity": 0.30708661417322836,
                    "duration": 0.11544675000000026
                },
                {
                    "name": "G#4",
                    "midi": 68,
                    "time": 15.008077500000025,
                    "velocity": 0.3228346456692913,
                    "duration": 0.11544675000000026
                },
                {
                    "name": "F5",
                    "midi": 77,
                    "time": 15.008077500000025,
                    "velocity": 0.3858267716535433,
                    "duration": 0.11544675000000026
                },
                {
                    "name": "G#5",
                    "midi": 80,
                    "time": 15.123524250000026,
                    "velocity": 0.33858267716535434,
                    "duration": 0.11544675000000026
                },
                {
                    "name": "G#4",
                    "midi": 68,
                    "time": 15.238971000000026,
                    "velocity": 0.29133858267716534,
                    "duration": 0.11544675000000026
                },
                {
                    "name": "C5",
                    "midi": 72,
                    "time": 15.238971000000026,
                    "velocity": 0.3464566929133858,
                    "duration": 0.11544675000000026
                },
                {
                    "name": "D#5",
                    "midi": 75,
                    "time": 15.354417750000026,
                    "velocity": 0.2992125984251969,
                    "duration": 0.11544675000000026
                },
                {
                    "name": "G#4",
                    "midi": 68,
                    "time": 15.469864500000027,
                    "velocity": 0.2755905511811024,
                    "duration": 0.11544675000000026
                },
                {
                    "name": "C5",
                    "midi": 72,
                    "time": 15.469864500000027,
                    "velocity": 0.33070866141732286,
                    "duration": 0.11544675000000026
                },
                {
                    "name": "D#5",
                    "midi": 75,
                    "time": 15.585311250000027,
                    "velocity": 0.2677165354330709,
                    "duration": 0.11544675000000026
                },
                {
                    "name": "G#4",
                    "midi": 68,
                    "time": 15.700758000000027,
                    "velocity": 0.2677165354330709,
                    "duration": 0.11544675000000026
                },
                {
                    "name": "C5",
                    "midi": 72,
                    "time": 15.700758000000027,
                    "velocity": 0.31496062992125984,
                    "duration": 0.11544675000000026
                },
                {
                    "name": "D#5",
                    "midi": 75,
                    "time": 15.816204750000027,
                    "velocity": 0.25984251968503935,
                    "duration": 0.11544675000000026
                },
                {
                    "name": "G4",
                    "midi": 67,
                    "time": 15.931651500000028,
                    "velocity": 0.2440944881889764,
                    "duration": 0.11544674999999849
                },
                {
                    "name": "C#5",
                    "midi": 73,
                    "time": 15.931651500000028,
                    "velocity": 0.29133858267716534,
                    "duration": 0.11544674999999849
                },
                {
                    "name": "D#5",
                    "midi": 75,
                    "time": 16.047098250000026,
                    "velocity": 0.25196850393700787,
                    "duration": 0.11544675000000026
                },
                {
                    "name": "G4",
                    "midi": 67,
                    "time": 16.162545000000026,
                    "velocity": 0.2440944881889764,
                    "duration": 0.11544675000000026
                },
                {
                    "name": "C#5",
                    "midi": 73,
                    "time": 16.162545000000026,
                    "velocity": 0.2992125984251969,
                    "duration": 0.11544675000000026
                },
                {
                    "name": "D#5",
                    "midi": 75,
                    "time": 16.277991750000027,
                    "velocity": 0.2440944881889764,
                    "duration": 0.11544675000000026
                },
                {
                    "name": "G4",
                    "midi": 67,
                    "time": 16.393438500000027,
                    "velocity": 0.2440944881889764,
                    "duration": 0.11544675000000026
                },
                {
                    "name": "C#5",
                    "midi": 73,
                    "time": 16.393438500000027,
                    "velocity": 0.2992125984251969,
                    "duration": 0.11544675000000026
                },
                {
                    "name": "D#5",
                    "midi": 75,
                    "time": 16.508885250000027,
                    "velocity": 0.25196850393700787,
                    "duration": 0.11544675000000026
                },
                {
                    "name": "G#4",
                    "midi": 68,
                    "time": 16.624332000000027,
                    "velocity": 0.3700787401574803,
                    "duration": 0.057723374999998356
                },
                {
                    "name": "C5",
                    "midi": 72,
                    "time": 16.624332000000027,
                    "velocity": 0.3700787401574803,
                    "duration": 0.057723374999998356
                },
                {
                    "name": "D#5",
                    "midi": 75,
                    "time": 16.624332000000027,
                    "velocity": 0.4409448818897638,
                    "duration": 0.057723374999998356
                },
                {
                    "name": "C#5",
                    "midi": 73,
                    "time": 16.797502125000026,
                    "velocity": 0.3779527559055118,
                    "duration": 0.057723374999998356
                },
                {
                    "name": "C5",
                    "midi": 72,
                    "time": 16.855225500000024,
                    "velocity": 0.4409448818897638,
                    "duration": 0.11544675000000026
                },
                {
                    "name": "A#4",
                    "midi": 70,
                    "time": 16.970672250000025,
                    "velocity": 0.4094488188976378,
                    "duration": 0.11544675000000026
                },
                {
                    "name": "C5",
                    "midi": 72,
                    "time": 17.086119000000025,
                    "velocity": 0.4409448818897638,
                    "duration": 0.23089350000000053
                },
                {
                    "name": "D#5",
                    "midi": 75,
                    "time": 17.317012500000025,
                    "velocity": 0.4409448818897638,
                    "duration": 0.057723374999998356
                },
                {
                    "name": "C5",
                    "midi": 72,
                    "time": 17.490182625000024,
                    "velocity": 0.3779527559055118,
                    "duration": 0.057723374999998356
                },
                {
                    "name": "A#4",
                    "midi": 70,
                    "time": 17.547906000000022,
                    "velocity": 0.4409448818897638,
                    "duration": 0.11544675000000026
                },
                {
                    "name": "A4",
                    "midi": 69,
                    "time": 17.663352750000023,
                    "velocity": 0.4094488188976378,
                    "duration": 0.11544675000000026
                },
                {
                    "name": "A#4",
                    "midi": 70,
                    "time": 17.778799500000023,
                    "velocity": 0.4409448818897638,
                    "duration": 0.23089350000000053
                },
                {
                    "name": "F5",
                    "midi": 77,
                    "time": 18.009693000000023,
                    "velocity": 0.4566929133858268,
                    "duration": 0.23089350000000053
                },
                {
                    "name": "D#5",
                    "midi": 75,
                    "time": 18.240586500000024,
                    "velocity": 0.4645669291338583,
                    "duration": 0.11544675000000026
                },
                {
                    "name": "C#5",
                    "midi": 73,
                    "time": 18.356033250000024,
                    "velocity": 0.4251968503937008,
                    "duration": 0.11544675000000026
                },
                {
                    "name": "C5",
                    "midi": 72,
                    "time": 18.471480000000025,
                    "velocity": 0.4566929133858268,
                    "duration": 0.11544675000000026
                },
                {
                    "name": "A#4",
                    "midi": 70,
                    "time": 18.586926750000025,
                    "velocity": 0.4566929133858268,
                    "duration": 0.11544675000000026
                },
                {
                    "name": "F5",
                    "midi": 77,
                    "time": 18.702373500000025,
                    "velocity": 0.4566929133858268,
                    "duration": 0.23089350000000053
                },
                {
                    "name": "F4",
                    "midi": 65,
                    "time": 18.933267000000026,
                    "velocity": 0.4409448818897638,
                    "duration": 0.23089350000000053
                },
                {
                    "name": "F4",
                    "midi": 65,
                    "time": 19.164160500000026,
                    "velocity": 0.4409448818897638,
                    "duration": 0.23089350000000053
                },
                {
                    "name": "C#5",
                    "midi": 73,
                    "time": 19.395054000000027,
                    "velocity": 0.29133858267716534,
                    "duration": 0.11544675000000026
                },
                {
                    "name": "F5",
                    "midi": 77,
                    "time": 19.395054000000027,
                    "velocity": 0.3464566929133858,
                    "duration": 0.11544675000000026
                },
                {
                    "name": "G#5",
                    "midi": 80,
                    "time": 19.510500750000027,
                    "velocity": 0.30708661417322836,
                    "duration": 0.11544675000000026
                },
                {
                    "name": "C#5",
                    "midi": 73,
                    "time": 19.625947500000027,
                    "velocity": 0.2992125984251969,
                    "duration": 0.11544675000000026
                },
                {
                    "name": "F5",
                    "midi": 77,
                    "time": 19.625947500000027,
                    "velocity": 0.3543307086614173,
                    "duration": 0.11544675000000026
                },
                {
                    "name": "G#5",
                    "midi": 80,
                    "time": 19.741394250000027,
                    "velocity": 0.2992125984251969,
                    "duration": 0.11544675000000026
                },
                {
                    "name": "C#5",
                    "midi": 73,
                    "time": 19.856841000000028,
                    "velocity": 0.2992125984251969,
                    "duration": 0.11544675000000026
                },
                {
                    "name": "F5",
                    "midi": 77,
                    "time": 19.856841000000028,
                    "velocity": 0.3543307086614173,
                    "duration": 0.11544675000000026
                },
                {
                    "name": "G#5",
                    "midi": 80,
                    "time": 19.972287750000028,
                    "velocity": 0.30708661417322836,
                    "duration": 0.11544675000000026
                },
                {
                    "name": "C#5",
                    "midi": 73,
                    "time": 20.08773450000003,
                    "velocity": 0.29133858267716534,
                    "duration": 0.11544675000000026
                },
                {
                    "name": "A#5",
                    "midi": 82,
                    "time": 20.08773450000003,
                    "velocity": 0.3464566929133858,
                    "duration": 0.11544675000000026
                },
                {
                    "name": "C#6",
                    "midi": 85,
                    "time": 20.20318125000003,
                    "velocity": 0.30708661417322836,
                    "duration": 0.11544675000000026
                },
                {
                    "name": "C#5",
                    "midi": 73,
                    "time": 20.31862800000003,
                    "velocity": 0.30708661417322836,
                    "duration": 0.11544675000000026
                },
                {
                    "name": "A#5",
                    "midi": 82,
                    "time": 20.31862800000003,
                    "velocity": 0.3700787401574803,
                    "duration": 0.11544675000000026
                },
                {
                    "name": "C#6",
                    "midi": 85,
                    "time": 20.43407475000003,
                    "velocity": 0.30708661417322836,
                    "duration": 0.11544675000000026
                },
                {
                    "name": "C#5",
                    "midi": 73,
                    "time": 20.54952150000003,
                    "velocity": 0.3228346456692913,
                    "duration": 0.11544675000000026
                },
                {
                    "name": "A#5",
                    "midi": 82,
                    "time": 20.54952150000003,
                    "velocity": 0.3858267716535433,
                    "duration": 0.11544675000000026
                },
                {
                    "name": "C#6",
                    "midi": 85,
                    "time": 20.66496825000003,
                    "velocity": 0.33858267716535434,
                    "duration": 0.11544675000000026
                },
                {
                    "name": "C#5",
                    "midi": 73,
                    "time": 20.78041500000003,
                    "velocity": 0.29133858267716534,
                    "duration": 0.11544675000000026
                },
                {
                    "name": "F5",
                    "midi": 77,
                    "time": 20.78041500000003,
                    "velocity": 0.3464566929133858,
                    "duration": 0.11544675000000026
                },
                {
                    "name": "G#5",
                    "midi": 80,
                    "time": 20.89586175000003,
                    "velocity": 0.2992125984251969,
                    "duration": 0.11544675000000026
                },
                {
                    "name": "C#5",
                    "midi": 73,
                    "time": 21.01130850000003,
                    "velocity": 0.2755905511811024,
                    "duration": 0.11544675000000026
                },
                {
                    "name": "F5",
                    "midi": 77,
                    "time": 21.01130850000003,
                    "velocity": 0.33070866141732286,
                    "duration": 0.11544675000000026
                },
                {
                    "name": "G#5",
                    "midi": 80,
                    "time": 21.12675525000003,
                    "velocity": 0.2677165354330709,
                    "duration": 0.11544675000000026
                },
                {
                    "name": "C#5",
                    "midi": 73,
                    "time": 21.24220200000003,
                    "velocity": 0.2677165354330709,
                    "duration": 0.11544675000000026
                },
                {
                    "name": "F5",
                    "midi": 77,
                    "time": 21.24220200000003,
                    "velocity": 0.31496062992125984,
                    "duration": 0.11544675000000026
                },
                {
                    "name": "G#5",
                    "midi": 80,
                    "time": 21.35764875000003,
                    "velocity": 0.25984251968503935,
                    "duration": 0.11544675000000026
                },
                {
                    "name": "C5",
                    "midi": 72,
                    "time": 21.47309550000003,
                    "velocity": 0.2440944881889764,
                    "duration": 0.11544675000000026
                },
                {
                    "name": "F#5",
                    "midi": 78,
                    "time": 21.47309550000003,
                    "velocity": 0.29133858267716534,
                    "duration": 0.11544675000000026
                },
                {
                    "name": "G#5",
                    "midi": 80,
                    "time": 21.58854225000003,
                    "velocity": 0.25196850393700787,
                    "duration": 0.11544675000000026
                },
                {
                    "name": "C5",
                    "midi": 72,
                    "time": 21.703989000000032,
                    "velocity": 0.2440944881889764,
                    "duration": 0.11544675000000026
                },
                {
                    "name": "F#5",
                    "midi": 78,
                    "time": 21.703989000000032,
                    "velocity": 0.2992125984251969,
                    "duration": 0.11544675000000026
                },
                {
                    "name": "G#5",
                    "midi": 80,
                    "time": 21.819435750000032,
                    "velocity": 0.2440944881889764,
                    "duration": 0.11544675000000026
                },
                {
                    "name": "C5",
                    "midi": 72,
                    "time": 21.934882500000032,
                    "velocity": 0.2440944881889764,
                    "duration": 0.11544675000000026
                },
                {
                    "name": "F#5",
                    "midi": 78,
                    "time": 21.934882500000032,
                    "velocity": 0.2992125984251969,
                    "duration": 0.11544675000000026
                },
                {
                    "name": "G#5",
                    "midi": 80,
                    "time": 22.050329250000033,
                    "velocity": 0.25196850393700787,
                    "duration": 0.11544675000000026
                },
                {
                    "name": "C#5",
                    "midi": 73,
                    "time": 22.165776000000033,
                    "velocity": 0.2440944881889764,
                    "duration": 0.23089350000000053
                },
                {
                    "name": "F5",
                    "midi": 77,
                    "time": 22.165776000000033,
                    "velocity": 0.2440944881889764,
                    "duration": 0.23089350000000053
                },
                {
                    "name": "G#5",
                    "midi": 80,
                    "time": 22.165776000000033,
                    "velocity": 0.29133858267716534,
                    "duration": 0.23089350000000053
                },
                {
                    "name": "C#5",
                    "midi": 73,
                    "time": 23.493413625000034,
                    "velocity": 0.31496062992125984,
                    "duration": 0.17317012500000217
                },
                {
                    "name": "F5",
                    "midi": 77,
                    "time": 23.522275312500035,
                    "velocity": 0.31496062992125984,
                    "duration": 0.14430843750000122
                },
                {
                    "name": "G#5",
                    "midi": 80,
                    "time": 23.551137000000036,
                    "velocity": 0.4015748031496063,
                    "duration": 0.11544675000000026
                },
                {
                    "name": "F#5",
                    "midi": 78,
                    "time": 23.782030500000037,
                    "velocity": 0.31496062992125984,
                    "duration": 0.11544675000000026
                },
                {
                    "name": "F5",
                    "midi": 77,
                    "time": 23.897477250000037,
                    "velocity": 0.31496062992125984,
                    "duration": 0.11544675000000026
                },
                {
                    "name": "D#5",
                    "midi": 75,
                    "time": 24.012924000000037,
                    "velocity": 0.31496062992125984,
                    "duration": 0.11544675000000026
                },
                {
                    "name": "C#5",
                    "midi": 73,
                    "time": 24.128370750000038,
                    "velocity": 0.31496062992125984,
                    "duration": 0.11544675000000026
                },
                {
                    "name": "G#4",
                    "midi": 68,
                    "time": 24.186094125000036,
                    "velocity": 0.31496062992125984,
                    "duration": 0.17317012500000217
                },
                {
                    "name": "C5",
                    "midi": 72,
                    "time": 24.214955812500037,
                    "velocity": 0.31496062992125984,
                    "duration": 0.14430843750000122
                },
                {
                    "name": "D#5",
                    "midi": 75,
                    "time": 24.243817500000038,
                    "velocity": 0.3858267716535433,
                    "duration": 0.11544675000000026
                },
                {
                    "name": "C#5",
                    "midi": 73,
                    "time": 24.47471100000004,
                    "velocity": 0.31496062992125984,
                    "duration": 0.11544675000000026
                },
                {
                    "name": "C5",
                    "midi": 72,
                    "time": 24.59015775000004,
                    "velocity": 0.31496062992125984,
                    "duration": 0.11544675000000026
                },
                {
                    "name": "A#4",
                    "midi": 70,
                    "time": 24.70560450000004,
                    "velocity": 0.31496062992125984,
                    "duration": 0.11544675000000026
                },
                {
                    "name": "G#4",
                    "midi": 68,
                    "time": 24.82105125000004,
                    "velocity": 0.31496062992125984,
                    "duration": 0.11544675000000026
                },
                {
                    "name": "C#5",
                    "midi": 73,
                    "time": 24.878774625000037,
                    "velocity": 0.31496062992125984,
                    "duration": 0.17317012500000217
                },
                {
                    "name": "F5",
                    "midi": 77,
                    "time": 24.90763631250004,
                    "velocity": 0.31496062992125984,
                    "duration": 0.14430843750000122
                },
                {
                    "name": "G#5",
                    "midi": 80,
                    "time": 24.93649800000004,
                    "velocity": 0.41732283464566927,
                    "duration": 0.11544675000000026
                },
                {
                    "name": "F#5",
                    "midi": 78,
                    "time": 25.16739150000004,
                    "velocity": 0.33070866141732286,
                    "duration": 0.11544675000000026
                },
                {
                    "name": "F5",
                    "midi": 77,
                    "time": 25.28283825000004,
                    "velocity": 0.3543307086614173,
                    "duration": 0.11544675000000026
                },
                {
                    "name": "D#5",
                    "midi": 75,
                    "time": 25.39828500000004,
                    "velocity": 0.3700787401574803,
                    "duration": 0.11544675000000026
                },
                {
                    "name": "C#5",
                    "midi": 73,
                    "time": 25.51373175000004,
                    "velocity": 0.4015748031496063,
                    "duration": 0.11544675000000026
                },
                {
                    "name": "C#6",
                    "midi": 85,
                    "time": 25.62917850000004,
                    "velocity": 0.44881889763779526,
                    "duration": 0.057723374999998356
                },
                {
                    "name": "A#5",
                    "midi": 82,
                    "time": 25.62917850000004,
                    "velocity": 0.44881889763779526,
                    "duration": 0.057723374999998356
                },
                {
                    "name": "F#5",
                    "midi": 78,
                    "time": 25.62917850000004,
                    "velocity": 0.44881889763779526,
                    "duration": 0.057723374999998356
                },
                {
                    "name": "F#5",
                    "midi": 78,
                    "time": 25.860072000000038,
                    "velocity": 0.4015748031496063,
                    "duration": 0.057723374999998356
                },
                {
                    "name": "A#5",
                    "midi": 82,
                    "time": 25.860072000000038,
                    "velocity": 0.4015748031496063,
                    "duration": 0.057723374999998356
                },
                {
                    "name": "C#6",
                    "midi": 85,
                    "time": 25.860072000000038,
                    "velocity": 0.4015748031496063,
                    "duration": 0.057723374999998356
                },
                {
                    "name": "F#5",
                    "midi": 78,
                    "time": 26.090965500000035,
                    "velocity": 0.4015748031496063,
                    "duration": 0.057723374999998356
                },
                {
                    "name": "A#5",
                    "midi": 82,
                    "time": 26.090965500000035,
                    "velocity": 0.4015748031496063,
                    "duration": 0.057723374999998356
                },
                {
                    "name": "C#6",
                    "midi": 85,
                    "time": 26.090965500000035,
                    "velocity": 0.4015748031496063,
                    "duration": 0.057723374999998356
                },
                {
                    "name": "F4",
                    "midi": 65,
                    "time": 27.707220000000035,
                    "velocity": 0.3858267716535433,
                    "duration": 0.23089349999999698
                },
                {
                    "name": "G#4",
                    "midi": 68,
                    "time": 27.880390125000034,
                    "velocity": 0.25196850393700787,
                    "duration": 0.057723374999998356
                },
                {
                    "name": "F#4",
                    "midi": 66,
                    "time": 27.938113500000032,
                    "velocity": 0.3228346456692913,
                    "duration": 0.23089350000000053
                },
                {
                    "name": "F4",
                    "midi": 65,
                    "time": 28.169007000000033,
                    "velocity": 0.3228346456692913,
                    "duration": 0.23089350000000053
                },
                {
                    "name": "D#4",
                    "midi": 63,
                    "time": 28.399900500000033,
                    "velocity": 0.3779527559055118,
                    "duration": 0.23089350000000053
                },
                {
                    "name": "F4",
                    "midi": 65,
                    "time": 28.630794000000034,
                    "velocity": 0.3228346456692913,
                    "duration": 0.11544675000000026
                },
                {
                    "name": "F#4",
                    "midi": 66,
                    "time": 28.746240750000034,
                    "velocity": 0.3228346456692913,
                    "duration": 0.11544675000000026
                },
                {
                    "name": "G#4",
                    "midi": 68,
                    "time": 28.861687500000034,
                    "velocity": 0.33858267716535434,
                    "duration": 0.11544675000000026
                },
                {
                    "name": "A#4",
                    "midi": 70,
                    "time": 28.977134250000034,
                    "velocity": 0.3464566929133858,
                    "duration": 0.11544675000000026
                },
                {
                    "name": "C5",
                    "midi": 72,
                    "time": 29.092581000000035,
                    "velocity": 0.4094488188976378,
                    "duration": 0.23089350000000053
                },
                {
                    "name": "A#4",
                    "midi": 70,
                    "time": 29.323474500000035,
                    "velocity": 0.3937007874015748,
                    "duration": 0.11544675000000026
                },
                {
                    "name": "C5",
                    "midi": 72,
                    "time": 29.438921250000035,
                    "velocity": 0.36220472440944884,
                    "duration": 0.11544675000000026
                },
                {
                    "name": "C#5",
                    "midi": 73,
                    "time": 29.554368000000036,
                    "velocity": 0.3779527559055118,
                    "duration": 0.11544675000000026
                },
                {
                    "name": "D#5",
                    "midi": 75,
                    "time": 29.669814750000036,
                    "velocity": 0.3937007874015748,
                    "duration": 0.11544675000000026
                },
                {
                    "name": "F5",
                    "midi": 77,
                    "time": 29.785261500000036,
                    "velocity": 0.41732283464566927,
                    "duration": 0.057723374999998356
                },
                {
                    "name": "F5",
                    "midi": 77,
                    "time": 30.016155000000033,
                    "velocity": 0.3543307086614173,
                    "duration": 0.057723374999998356
                },
                {
                    "name": "F5",
                    "midi": 77,
                    "time": 30.24704850000003,
                    "velocity": 0.3464566929133858,
                    "duration": 0.057723374999998356
                },
                {
                    "name": "C#5",
                    "midi": 73,
                    "time": 31.80557962500003,
                    "velocity": 0.31496062992125984,
                    "duration": 0.17317012500000217
                },
                {
                    "name": "F5",
                    "midi": 77,
                    "time": 31.83444131250003,
                    "velocity": 0.31496062992125984,
                    "duration": 0.14430843750000122
                },
                {
                    "name": "G#5",
                    "midi": 80,
                    "time": 31.86330300000003,
                    "velocity": 0.4015748031496063,
                    "duration": 0.11544675000000026
                },
                {
                    "name": "F#5",
                    "midi": 78,
                    "time": 32.09419650000003,
                    "velocity": 0.31496062992125984,
                    "duration": 0.11544674999999671
                },
                {
                    "name": "F5",
                    "midi": 77,
                    "time": 32.20964325000003,
                    "velocity": 0.31496062992125984,
                    "duration": 0.11544674999999671
                },
                {
                    "name": "D#5",
                    "midi": 75,
                    "time": 32.325090000000024,
                    "velocity": 0.31496062992125984,
                    "duration": 0.11544674999999671
                },
                {
                    "name": "C#5",
                    "midi": 73,
                    "time": 32.44053675000002,
                    "velocity": 0.31496062992125984,
                    "duration": 0.11544674999999671
                },
                {
                    "name": "G#4",
                    "midi": 68,
                    "time": 32.49826012500002,
                    "velocity": 0.31496062992125984,
                    "duration": 0.17317012499999151
                },
                {
                    "name": "C5",
                    "midi": 72,
                    "time": 32.52712181250002,
                    "velocity": 0.31496062992125984,
                    "duration": 0.1443084374999941
                },
                {
                    "name": "D#5",
                    "midi": 75,
                    "time": 32.55598350000002,
                    "velocity": 0.3858267716535433,
                    "duration": 0.11544674999999671
                },
                {
                    "name": "C#5",
                    "midi": 73,
                    "time": 32.78687700000001,
                    "velocity": 0.31496062992125984,
                    "duration": 0.11544674999999671
                },
                {
                    "name": "C5",
                    "midi": 72,
                    "time": 32.90232375000001,
                    "velocity": 0.31496062992125984,
                    "duration": 0.11544674999999671
                },
                {
                    "name": "A#4",
                    "midi": 70,
                    "time": 33.017770500000005,
                    "velocity": 0.31496062992125984,
                    "duration": 0.11544674999999671
                },
                {
                    "name": "G#4",
                    "midi": 68,
                    "time": 33.13321725,
                    "velocity": 0.31496062992125984,
                    "duration": 0.11544674999999671
                },
                {
                    "name": "C#5",
                    "midi": 73,
                    "time": 33.190940625,
                    "velocity": 0.31496062992125984,
                    "duration": 0.17317012499999151
                },
                {
                    "name": "F5",
                    "midi": 77,
                    "time": 33.2198023125,
                    "velocity": 0.31496062992125984,
                    "duration": 0.1443084374999941
                },
                {
                    "name": "G#5",
                    "midi": 80,
                    "time": 33.248664,
                    "velocity": 0.41732283464566927,
                    "duration": 0.11544674999999671
                },
                {
                    "name": "F#5",
                    "midi": 78,
                    "time": 33.47955749999999,
                    "velocity": 0.33070866141732286,
                    "duration": 0.11544674999999671
                },
                {
                    "name": "F5",
                    "midi": 77,
                    "time": 33.59500424999999,
                    "velocity": 0.3543307086614173,
                    "duration": 0.11544674999999671
                },
                {
                    "name": "D#5",
                    "midi": 75,
                    "time": 33.710450999999985,
                    "velocity": 0.3700787401574803,
                    "duration": 0.11544674999999671
                },
                {
                    "name": "C#5",
                    "midi": 73,
                    "time": 33.82589774999998,
                    "velocity": 0.4015748031496063,
                    "duration": 0.11544674999999671
                },
                {
                    "name": "C#6",
                    "midi": 85,
                    "time": 33.94134449999998,
                    "velocity": 0.44881889763779526,
                    "duration": 0.05772337500000191
                },
                {
                    "name": "A5",
                    "midi": 81,
                    "time": 33.94134449999998,
                    "velocity": 0.44881889763779526,
                    "duration": 0.05772337500000191
                },
                {
                    "name": "F#5",
                    "midi": 78,
                    "time": 33.94134449999998,
                    "velocity": 0.44881889763779526,
                    "duration": 0.05772337500000191
                },
                {
                    "name": "F#5",
                    "midi": 78,
                    "time": 34.17223799999998,
                    "velocity": 0.4015748031496063,
                    "duration": 0.05772337500000191
                },
                {
                    "name": "A5",
                    "midi": 81,
                    "time": 34.17223799999998,
                    "velocity": 0.4015748031496063,
                    "duration": 0.05772337500000191
                },
                {
                    "name": "C#6",
                    "midi": 85,
                    "time": 34.17223799999998,
                    "velocity": 0.4015748031496063,
                    "duration": 0.05772337500000191
                },
                {
                    "name": "F#5",
                    "midi": 78,
                    "time": 34.40313149999998,
                    "velocity": 0.4015748031496063,
                    "duration": 0.05772337500000191
                },
                {
                    "name": "A5",
                    "midi": 81,
                    "time": 34.40313149999998,
                    "velocity": 0.4015748031496063,
                    "duration": 0.05772337500000191
                },
                {
                    "name": "C#6",
                    "midi": 85,
                    "time": 34.40313149999998,
                    "velocity": 0.4015748031496063,
                    "duration": 0.05772337500000191
                },
                {
                    "name": "C#5",
                    "midi": 73,
                    "time": 36.01938599999998,
                    "velocity": 0.41732283464566927,
                    "duration": 0.23089350000000053
                },
                {
                    "name": "E5",
                    "midi": 76,
                    "time": 36.19255612499998,
                    "velocity": 0.2992125984251969,
                    "duration": 0.05772337500000191
                },
                {
                    "name": "D5",
                    "midi": 74,
                    "time": 36.250279499999984,
                    "velocity": 0.3543307086614173,
                    "duration": 0.23089350000000053
                },
                {
                    "name": "C#5",
                    "midi": 73,
                    "time": 36.481172999999984,
                    "velocity": 0.3543307086614173,
                    "duration": 0.23089350000000053
                },
                {
                    "name": "B4",
                    "midi": 71,
                    "time": 36.712066499999985,
                    "velocity": 0.4094488188976378,
                    "duration": 0.23089350000000053
                },
                {
                    "name": "C#5",
                    "midi": 73,
                    "time": 36.942959999999985,
                    "velocity": 0.3543307086614173,
                    "duration": 0.11544674999999671
                },
                {
                    "name": "D5",
                    "midi": 74,
                    "time": 37.05840674999998,
                    "velocity": 0.3543307086614173,
                    "duration": 0.11544674999999671
                },
                {
                    "name": "E5",
                    "midi": 76,
                    "time": 37.17385349999998,
                    "velocity": 0.3700787401574803,
                    "duration": 0.11544674999999671
                },
                {
                    "name": "F#5",
                    "midi": 78,
                    "time": 37.289300249999975,
                    "velocity": 0.3779527559055118,
                    "duration": 0.11544674999999671
                },
                {
                    "name": "G#5",
                    "midi": 80,
                    "time": 37.40474699999997,
                    "velocity": 0.4094488188976378,
                    "duration": 0.23089350000000053
                },
                {
                    "name": "F#5",
                    "midi": 78,
                    "time": 37.63564049999997,
                    "velocity": 0.41732283464566927,
                    "duration": 0.11544674999999671
                },
                {
                    "name": "G#5",
                    "midi": 80,
                    "time": 37.75108724999997,
                    "velocity": 0.33858267716535434,
                    "duration": 0.11544674999999671
                },
                {
                    "name": "A5",
                    "midi": 81,
                    "time": 37.866533999999966,
                    "velocity": 0.36220472440944884,
                    "duration": 0.11544674999999671
                },
                {
                    "name": "B5",
                    "midi": 83,
                    "time": 37.98198074999996,
                    "velocity": 0.3858267716535433,
                    "duration": 0.11544674999999671
                },
                {
                    "name": "C#6",
                    "midi": 85,
                    "time": 38.09742749999996,
                    "velocity": 0.4094488188976378,
                    "duration": 0.05772337500000191
                },
                {
                    "name": "C#6",
                    "midi": 85,
                    "time": 38.32832099999996,
                    "velocity": 0.3858267716535433,
                    "duration": 0.05772337500000191
                },
                {
                    "name": "C#6",
                    "midi": 85,
                    "time": 38.55921449999996,
                    "velocity": 0.3779527559055118,
                    "duration": 0.05772337500000191
                },
                {
                    "name": "C#5",
                    "midi": 73,
                    "time": 39.48278849999996,
                    "velocity": 0.41732283464566927,
                    "duration": 0.0144308437499987
                },
                {
                    "name": "C#5",
                    "midi": 73,
                    "time": 39.71368199999996,
                    "velocity": 0.3543307086614173,
                    "duration": 0.0144308437499987
                },
                {
                    "name": "C#5",
                    "midi": 73,
                    "time": 39.944575499999964,
                    "velocity": 0.3543307086614173,
                    "duration": 0.0144308437499987
                },
                {
                    "name": "C#5",
                    "midi": 73,
                    "time": 40.175468999999964,
                    "velocity": 0.4094488188976378,
                    "duration": 0.23089350000000053
                },
                {
                    "name": "E5",
                    "midi": 76,
                    "time": 40.406362499999965,
                    "velocity": 0.3543307086614173,
                    "duration": 0.11544674999999671
                },
                {
                    "name": "D5",
                    "midi": 74,
                    "time": 40.52180924999996,
                    "velocity": 0.3543307086614173,
                    "duration": 0.11544674999999671
                },
                {
                    "name": "C#5",
                    "midi": 73,
                    "time": 40.63725599999996,
                    "velocity": 0.3700787401574803,
                    "duration": 0.11544674999999671
                },
                {
                    "name": "E5",
                    "midi": 76,
                    "time": 40.752702749999955,
                    "velocity": 0.3779527559055118,
                    "duration": 0.11544674999999671
                },
                {
                    "name": "D5",
                    "midi": 74,
                    "time": 40.86814949999995,
                    "velocity": 0.4094488188976378,
                    "duration": 0.05772337500000191
                },
                {
                    "name": "D5",
                    "midi": 74,
                    "time": 41.09904299999995,
                    "velocity": 0.4094488188976378,
                    "duration": 0.05772337500000191
                },
                {
                    "name": "D5",
                    "midi": 74,
                    "time": 41.32993649999995,
                    "velocity": 0.4015748031496063,
                    "duration": 0.05772337500000191
                },
                {
                    "name": "D6",
                    "midi": 86,
                    "time": 41.56082999999995,
                    "velocity": 0.4094488188976378,
                    "duration": 0.05772337500000191
                },
                {
                    "name": "D6",
                    "midi": 86,
                    "time": 41.791723499999954,
                    "velocity": 0.3858267716535433,
                    "duration": 0.05772337500000191
                },
                {
                    "name": "D6",
                    "midi": 86,
                    "time": 42.022616999999954,
                    "velocity": 0.3779527559055118,
                    "duration": 0.05772337500000191
                },
                {
                    "name": "D5",
                    "midi": 74,
                    "time": 42.946190999999956,
                    "velocity": 0.41732283464566927,
                    "duration": 0.05772337500000191
                },
                {
                    "name": "D5",
                    "midi": 74,
                    "time": 43.17708449999996,
                    "velocity": 0.3543307086614173,
                    "duration": 0.05772337500000191
                },
                {
                    "name": "D5",
                    "midi": 74,
                    "time": 43.40797799999996,
                    "velocity": 0.3543307086614173,
                    "duration": 0.05772337500000191
                },
                {
                    "name": "D5",
                    "midi": 74,
                    "time": 43.63887149999996,
                    "velocity": 0.4094488188976378,
                    "duration": 0.23089350000000053
                },
                {
                    "name": "F5",
                    "midi": 77,
                    "time": 43.86976499999996,
                    "velocity": 0.3543307086614173,
                    "duration": 0.11544674999999671
                },
                {
                    "name": "E5",
                    "midi": 76,
                    "time": 43.985211749999955,
                    "velocity": 0.3543307086614173,
                    "duration": 0.11544674999999671
                },
                {
                    "name": "D5",
                    "midi": 74,
                    "time": 44.10065849999995,
                    "velocity": 0.3700787401574803,
                    "duration": 0.11544674999999671
                },
                {
                    "name": "F5",
                    "midi": 77,
                    "time": 44.21610524999995,
                    "velocity": 0.3779527559055118,
                    "duration": 0.11544674999999671
                },
                {
                    "name": "D5",
                    "midi": 74,
                    "time": 44.331551999999945,
                    "velocity": 0.4094488188976378,
                    "duration": 0.05772337500000191
                },
                {
                    "name": "D5",
                    "midi": 74,
                    "time": 44.562445499999946,
                    "velocity": 0.4094488188976378,
                    "duration": 0.05772337500000191
                },
                {
                    "name": "D5",
                    "midi": 74,
                    "time": 44.793338999999946,
                    "velocity": 0.4094488188976378,
                    "duration": 0.05772337500000191
                },
                {
                    "name": "D6",
                    "midi": 86,
                    "time": 45.02423249999995,
                    "velocity": 0.4094488188976378,
                    "duration": 0.05772337500000191
                },
                {
                    "name": "D6",
                    "midi": 86,
                    "time": 45.25512599999995,
                    "velocity": 0.3858267716535433,
                    "duration": 0.05772337500000191
                },
                {
                    "name": "D6",
                    "midi": 86,
                    "time": 45.48601949999995,
                    "velocity": 0.3779527559055118,
                    "duration": 0.05772337500000191
                },
                {
                    "name": "D5",
                    "midi": 74,
                    "time": 45.71691299999995,
                    "velocity": 0.4409448818897638,
                    "duration": 0.23089350000000053
                },
                {
                    "name": "C#5",
                    "midi": 73,
                    "time": 45.94780649999995,
                    "velocity": 0.4094488188976378,
                    "duration": 0.23089350000000053
                },
                {
                    "name": "D5",
                    "midi": 74,
                    "time": 46.17869999999995,
                    "velocity": 0.4094488188976378,
                    "duration": 0.23089350000000053
                },
                {
                    "name": "D6",
                    "midi": 86,
                    "time": 46.40959349999995,
                    "velocity": 0.4409448818897638,
                    "duration": 0.23089350000000053
                },
                {
                    "name": "C#6",
                    "midi": 85,
                    "time": 46.64048699999995,
                    "velocity": 0.4094488188976378,
                    "duration": 0.23089350000000053
                },
                {
                    "name": "D6",
                    "midi": 86,
                    "time": 46.87138049999995,
                    "velocity": 0.4094488188976378,
                    "duration": 0.23089350000000053
                },
                {
                    "name": "A#5",
                    "midi": 82,
                    "time": 47.10227399999995,
                    "velocity": 0.4251968503937008,
                    "duration": 0.23089350000000053
                },
                {
                    "name": "A5",
                    "midi": 81,
                    "time": 47.33316749999995,
                    "velocity": 0.3700787401574803,
                    "duration": 0.23089350000000053
                },
                {
                    "name": "A#5",
                    "midi": 82,
                    "time": 47.56406099999995,
                    "velocity": 0.3779527559055118,
                    "duration": 0.23089350000000053
                },
                {
                    "name": "G5",
                    "midi": 79,
                    "time": 47.79495449999995,
                    "velocity": 0.4015748031496063,
                    "duration": 0.23089350000000053
                },
                {
                    "name": "A5",
                    "midi": 81,
                    "time": 48.025847999999954,
                    "velocity": 0.3779527559055118,
                    "duration": 0.11544674999999671
                },
                {
                    "name": "A#5",
                    "midi": 82,
                    "time": 48.14129474999995,
                    "velocity": 0.3858267716535433,
                    "duration": 0.11544674999999671
                },
                {
                    "name": "C6",
                    "midi": 84,
                    "time": 48.25674149999995,
                    "velocity": 0.4015748031496063,
                    "duration": 0.11544674999999671
                },
                {
                    "name": "D6",
                    "midi": 86,
                    "time": 48.372188249999944,
                    "velocity": 0.4094488188976378,
                    "duration": 0.11544674999999671
                },
                {
                    "name": "A#5",
                    "midi": 82,
                    "time": 48.48763499999994,
                    "velocity": 0.44881889763779526,
                    "duration": 0.23089350000000053
                },
                {
                    "name": "C6",
                    "midi": 84,
                    "time": 48.71852849999994,
                    "velocity": 0.4566929133858268,
                    "duration": 0.11544674999999671
                },
                {
                    "name": "A#5",
                    "midi": 82,
                    "time": 48.83397524999994,
                    "velocity": 0.4015748031496063,
                    "duration": 0.11544674999999671
                },
                {
                    "name": "A5",
                    "midi": 81,
                    "time": 48.949421999999934,
                    "velocity": 0.4409448818897638,
                    "duration": 0.11544674999999671
                },
                {
                    "name": "G5",
                    "midi": 79,
                    "time": 49.06486874999993,
                    "velocity": 0.4015748031496063,
                    "duration": 0.11544674999999671
                },
                {
                    "name": "F5",
                    "midi": 77,
                    "time": 49.18031549999993,
                    "velocity": 0.48031496062992124,
                    "duration": 0.05772337500000191
                },
                {
                    "name": "F5",
                    "midi": 77,
                    "time": 49.41120899999993,
                    "velocity": 0.4409448818897638,
                    "duration": 0.05772337500000191
                },
                {
                    "name": "F5",
                    "midi": 77,
                    "time": 49.64210249999993,
                    "velocity": 0.4409448818897638,
                    "duration": 0.05772337500000191
                },
                {
                    "name": "F#5",
                    "midi": 78,
                    "time": 49.87299599999993,
                    "velocity": 0.5433070866141733,
                    "duration": 0.23089350000000053
                },
                {
                    "name": "F#6",
                    "midi": 90,
                    "time": 50.10388949999993,
                    "velocity": 0.5196850393700787,
                    "duration": 0.23089350000000053
                },
                {
                    "name": "F#6",
                    "midi": 90,
                    "time": 50.33478299999993,
                    "velocity": 0.5275590551181102,
                    "duration": 0.05772337500000191
                },
                {
                    "name": "G6",
                    "midi": 91,
                    "time": 50.56567649999993,
                    "velocity": 0.5984251968503937,
                    "duration": 0.23089350000000053
                },
                {
                    "name": "G5",
                    "midi": 79,
                    "time": 50.79656999999993,
                    "velocity": 0.48031496062992124,
                    "duration": 0.23089350000000053
                },
                {
                    "name": "G5",
                    "midi": 79,
                    "time": 51.02746349999993,
                    "velocity": 0.48031496062992124,
                    "duration": 0.05772337500000191
                },
                {
                    "name": "A5",
                    "midi": 81,
                    "time": 51.25835699999993,
                    "velocity": 0.5118110236220472,
                    "duration": 0.05772337500000191
                },
                {
                    "name": "A#6",
                    "midi": 94,
                    "time": 51.460388812499936,
                    "velocity": 0.4881889763779528,
                    "duration": 0.0288616874999974
                },
                {
                    "name": "A6",
                    "midi": 93,
                    "time": 51.48925049999993,
                    "velocity": 0.5118110236220472,
                    "duration": 0.11544674999999671
                },
                {
                    "name": "G6",
                    "midi": 91,
                    "time": 51.60469724999993,
                    "velocity": 0.4881889763779528,
                    "duration": 0.11544674999999671
                },
                {
                    "name": "A6",
                    "midi": 93,
                    "time": 51.72014399999993,
                    "velocity": 0.5196850393700787,
                    "duration": 0.23089350000000053
                },
                {
                    "name": "A#6",
                    "midi": 94,
                    "time": 51.95103749999993,
                    "velocity": 0.5354330708661418,
                    "duration": 0.05772337500000191
                },
                {
                    "name": "C6",
                    "midi": 84,
                    "time": 52.15306931249993,
                    "velocity": 0.48031496062992124,
                    "duration": 0.0288616874999974
                },
                {
                    "name": "A#5",
                    "midi": 82,
                    "time": 52.18193099999993,
                    "velocity": 0.49606299212598426,
                    "duration": 0.11544674999999671
                },
                {
                    "name": "A5",
                    "midi": 81,
                    "time": 52.297377749999924,
                    "velocity": 0.47244094488188976,
                    "duration": 0.11544674999999671
                },
                {
                    "name": "A#5",
                    "midi": 82,
                    "time": 52.41282449999992,
                    "velocity": 0.5118110236220472,
                    "duration": 0.11544674999999671
                },
                {
                    "name": "D#5",
                    "midi": 75,
                    "time": 52.643717999999915,
                    "velocity": 0.3464566929133858,
                    "duration": 0.11544674999999671
                },
                {
                    "name": "G5",
                    "midi": 79,
                    "time": 52.643717999999915,
                    "velocity": 0.4094488188976378,
                    "duration": 0.11544674999999671
                },
                {
                    "name": "A#5",
                    "midi": 82,
                    "time": 52.75916474999991,
                    "velocity": 0.36220472440944884,
                    "duration": 0.11544674999999671
                },
                {
                    "name": "D#5",
                    "midi": 75,
                    "time": 52.87461149999991,
                    "velocity": 0.3543307086614173,
                    "duration": 0.11544674999999671
                },
                {
                    "name": "G5",
                    "midi": 79,
                    "time": 52.87461149999991,
                    "velocity": 0.41732283464566927,
                    "duration": 0.11544674999999671
                },
                {
                    "name": "A#5",
                    "midi": 82,
                    "time": 52.990058249999905,
                    "velocity": 0.3543307086614173,
                    "duration": 0.11544674999999671
                },
                {
                    "name": "D#5",
                    "midi": 75,
                    "time": 53.1055049999999,
                    "velocity": 0.3543307086614173,
                    "duration": 0.11544674999999671
                },
                {
                    "name": "G5",
                    "midi": 79,
                    "time": 53.1055049999999,
                    "velocity": 0.41732283464566927,
                    "duration": 0.11544674999999671
                },
                {
                    "name": "A#5",
                    "midi": 82,
                    "time": 53.2209517499999,
                    "velocity": 0.36220472440944884,
                    "duration": 0.11544674999999671
                },
                {
                    "name": "D#5",
                    "midi": 75,
                    "time": 53.336398499999895,
                    "velocity": 0.36220472440944884,
                    "duration": 0.11544674999999671
                },
                {
                    "name": "G5",
                    "midi": 79,
                    "time": 53.336398499999895,
                    "velocity": 0.4251968503937008,
                    "duration": 0.11544674999999671
                },
                {
                    "name": "C6",
                    "midi": 84,
                    "time": 53.45184524999989,
                    "velocity": 0.36220472440944884,
                    "duration": 0.11544674999999671
                },
                {
                    "name": "D#5",
                    "midi": 75,
                    "time": 53.56729199999989,
                    "velocity": 0.3543307086614173,
                    "duration": 0.11544674999999671
                },
                {
                    "name": "G5",
                    "midi": 79,
                    "time": 53.56729199999989,
                    "velocity": 0.41732283464566927,
                    "duration": 0.11544674999999671
                },
                {
                    "name": "C6",
                    "midi": 84,
                    "time": 53.682738749999885,
                    "velocity": 0.3543307086614173,
                    "duration": 0.11544674999999671
                },
                {
                    "name": "D#5",
                    "midi": 75,
                    "time": 53.79818549999988,
                    "velocity": 0.3543307086614173,
                    "duration": 0.11544674999999671
                },
                {
                    "name": "G5",
                    "midi": 79,
                    "time": 53.79818549999988,
                    "velocity": 0.41732283464566927,
                    "duration": 0.11544674999999671
                },
                {
                    "name": "C6",
                    "midi": 84,
                    "time": 53.91363224999988,
                    "velocity": 0.3543307086614173,
                    "duration": 0.11544674999999671
                },
                {
                    "name": "D#5",
                    "midi": 75,
                    "time": 54.029078999999875,
                    "velocity": 0.3779527559055118,
                    "duration": 0.11544674999999671
                },
                {
                    "name": "G5",
                    "midi": 79,
                    "time": 54.029078999999875,
                    "velocity": 0.44881889763779526,
                    "duration": 0.11544674999999671
                },
                {
                    "name": "A#5",
                    "midi": 82,
                    "time": 54.14452574999987,
                    "velocity": 0.36220472440944884,
                    "duration": 0.11544674999999671
                },
                {
                    "name": "G5",
                    "midi": 79,
                    "time": 54.25997249999987,
                    "velocity": 0.41732283464566927,
                    "duration": 0.11544674999999671
                },
                {
                    "name": "D#5",
                    "midi": 75,
                    "time": 54.25997249999987,
                    "velocity": 0.3543307086614173,
                    "duration": 0.11544674999999671
                },
                {
                    "name": "A#5",
                    "midi": 82,
                    "time": 54.375419249999865,
                    "velocity": 0.3543307086614173,
                    "duration": 0.11544674999999671
                },
                {
                    "name": "D#5",
                    "midi": 75,
                    "time": 54.49086599999986,
                    "velocity": 0.3543307086614173,
                    "duration": 0.11544674999999671
                },
                {
                    "name": "G5",
                    "midi": 79,
                    "time": 54.49086599999986,
                    "velocity": 0.41732283464566927,
                    "duration": 0.11544674999999671
                },
                {
                    "name": "A#5",
                    "midi": 82,
                    "time": 54.60631274999986,
                    "velocity": 0.3543307086614173,
                    "duration": 0.11544674999999671
                },
                {
                    "name": "D5",
                    "midi": 74,
                    "time": 54.721759499999855,
                    "velocity": 0.4015748031496063,
                    "duration": 0.11544674999999671
                },
                {
                    "name": "G#5",
                    "midi": 80,
                    "time": 54.721759499999855,
                    "velocity": 0.48031496062992124,
                    "duration": 0.11544674999999671
                },
                {
                    "name": "A#5",
                    "midi": 82,
                    "time": 54.83720624999985,
                    "velocity": 0.36220472440944884,
                    "duration": 0.11544674999999671
                },
                {
                    "name": "D5",
                    "midi": 74,
                    "time": 54.95265299999985,
                    "velocity": 0.3543307086614173,
                    "duration": 0.11544674999999671
                },
                {
                    "name": "G#5",
                    "midi": 80,
                    "time": 54.95265299999985,
                    "velocity": 0.41732283464566927,
                    "duration": 0.11544674999999671
                },
                {
                    "name": "A#5",
                    "midi": 82,
                    "time": 55.068099749999845,
                    "velocity": 0.3779527559055118,
                    "duration": 0.11544674999999671
                },
                {
                    "name": "D5",
                    "midi": 74,
                    "time": 55.18354649999984,
                    "velocity": 0.3543307086614173,
                    "duration": 0.11544674999999671
                },
                {
                    "name": "G#5",
                    "midi": 80,
                    "time": 55.18354649999984,
                    "velocity": 0.41732283464566927,
                    "duration": 0.11544674999999671
                },
                {
                    "name": "A#5",
                    "midi": 82,
                    "time": 55.29899324999984,
                    "velocity": 0.36220472440944884,
                    "duration": 0.11544674999999671
                },
                {
                    "name": "D5",
                    "midi": 74,
                    "time": 55.414439999999836,
                    "velocity": 0.3858267716535433,
                    "duration": 0.11544674999999671
                },
                {
                    "name": "G#5",
                    "midi": 80,
                    "time": 55.414439999999836,
                    "velocity": 0.4566929133858268,
                    "duration": 0.11544674999999671
                },
                {
                    "name": "D6",
                    "midi": 86,
                    "time": 55.52988674999983,
                    "velocity": 0.36220472440944884,
                    "duration": 0.11544674999999671
                },
                {
                    "name": "D5",
                    "midi": 74,
                    "time": 55.64533349999983,
                    "velocity": 0.3543307086614173,
                    "duration": 0.11544674999999671
                },
                {
                    "name": "G#5",
                    "midi": 80,
                    "time": 55.64533349999983,
                    "velocity": 0.41732283464566927,
                    "duration": 0.11544674999999671
                },
                {
                    "name": "D6",
                    "midi": 86,
                    "time": 55.760780249999826,
                    "velocity": 0.36220472440944884,
                    "duration": 0.11544674999999671
                },
                {
                    "name": "D5",
                    "midi": 74,
                    "time": 55.87622699999982,
                    "velocity": 0.3543307086614173,
                    "duration": 0.11544674999999671
                },
                {
                    "name": "G#5",
                    "midi": 80,
                    "time": 55.87622699999982,
                    "velocity": 0.41732283464566927,
                    "duration": 0.11544674999999671
                },
                {
                    "name": "D6",
                    "midi": 86,
                    "time": 55.99167374999982,
                    "velocity": 0.36220472440944884,
                    "duration": 0.11544674999999671
                },
                {
                    "name": "D#5",
                    "midi": 75,
                    "time": 56.107120499999816,
                    "velocity": 0.3779527559055118,
                    "duration": 0.11544674999999671
                },
                {
                    "name": "G5",
                    "midi": 79,
                    "time": 56.107120499999816,
                    "velocity": 0.44881889763779526,
                    "duration": 0.11544674999999671
                },
                {
                    "name": "D#6",
                    "midi": 87,
                    "time": 56.22256724999981,
                    "velocity": 0.36220472440944884,
                    "duration": 0.11544674999999671
                },
                {
                    "name": "D#5",
                    "midi": 75,
                    "time": 56.33801399999981,
                    "velocity": 0.3543307086614173,
                    "duration": 0.11544674999999671
                },
                {
                    "name": "G5",
                    "midi": 79,
                    "time": 56.33801399999981,
                    "velocity": 0.41732283464566927,
                    "duration": 0.11544674999999671
                },
                {
                    "name": "D#6",
                    "midi": 87,
                    "time": 56.453460749999806,
                    "velocity": 0.36220472440944884,
                    "duration": 0.11544674999999671
                },
                {
                    "name": "D#5",
                    "midi": 75,
                    "time": 56.5689074999998,
                    "velocity": 0.3543307086614173,
                    "duration": 0.11544674999999671
                },
                {
                    "name": "G5",
                    "midi": 79,
                    "time": 56.5689074999998,
                    "velocity": 0.41732283464566927,
                    "duration": 0.11544674999999671
                },
                {
                    "name": "D6",
                    "midi": 86,
                    "time": 56.6843542499998,
                    "velocity": 0.36220472440944884,
                    "duration": 0.11544674999999671
                },
                {
                    "name": "D#5",
                    "midi": 75,
                    "time": 56.799800999999796,
                    "velocity": 0.3543307086614173,
                    "duration": 0.11544674999999671
                },
                {
                    "name": "A5",
                    "midi": 81,
                    "time": 56.799800999999796,
                    "velocity": 0.41732283464566927,
                    "duration": 0.11544674999999671
                },
                {
                    "name": "C6",
                    "midi": 84,
                    "time": 56.91524774999979,
                    "velocity": 0.36220472440944884,
                    "duration": 0.11544674999999671
                },
                {
                    "name": "D#5",
                    "midi": 75,
                    "time": 57.03069449999979,
                    "velocity": 0.3543307086614173,
                    "duration": 0.11544674999999671
                },
                {
                    "name": "A5",
                    "midi": 81,
                    "time": 57.03069449999979,
                    "velocity": 0.41732283464566927,
                    "duration": 0.11544674999999671
                },
                {
                    "name": "C6",
                    "midi": 84,
                    "time": 57.146141249999786,
                    "velocity": 0.36220472440944884,
                    "duration": 0.11544674999999671
                },
                {
                    "name": "D#5",
                    "midi": 75,
                    "time": 57.26158799999978,
                    "velocity": 0.3543307086614173,
                    "duration": 0.11544674999999671
                },
                {
                    "name": "A5",
                    "midi": 81,
                    "time": 57.26158799999978,
                    "velocity": 0.41732283464566927,
                    "duration": 0.11544674999999671
                },
                {
                    "name": "C6",
                    "midi": 84,
                    "time": 57.37703474999978,
                    "velocity": 0.36220472440944884,
                    "duration": 0.11544674999999671
                },
                {
                    "name": "D5",
                    "midi": 74,
                    "time": 57.492481499999776,
                    "velocity": 0.3543307086614173,
                    "duration": 0.11544674999999671
                },
                {
                    "name": "A#5",
                    "midi": 82,
                    "time": 57.492481499999776,
                    "velocity": 0.41732283464566927,
                    "duration": 0.11544674999999671
                },
                {
                    "name": "D6",
                    "midi": 86,
                    "time": 57.60792824999977,
                    "velocity": 0.36220472440944884,
                    "duration": 0.11544674999999671
                },
                {
                    "name": "D5",
                    "midi": 74,
                    "time": 57.72337499999977,
                    "velocity": 0.3543307086614173,
                    "duration": 0.11544674999999671
                },
                {
                    "name": "A#5",
                    "midi": 82,
                    "time": 57.72337499999977,
                    "velocity": 0.41732283464566927,
                    "duration": 0.11544674999999671
                },
                {
                    "name": "D6",
                    "midi": 86,
                    "time": 57.83882174999977,
                    "velocity": 0.36220472440944884,
                    "duration": 0.11544674999999671
                },
                {
                    "name": "D5",
                    "midi": 74,
                    "time": 57.95426849999976,
                    "velocity": 0.3543307086614173,
                    "duration": 0.11544674999999671
                },
                {
                    "name": "A#5",
                    "midi": 82,
                    "time": 57.95426849999976,
                    "velocity": 0.41732283464566927,
                    "duration": 0.11544674999999671
                },
                {
                    "name": "D6",
                    "midi": 86,
                    "time": 58.06971524999976,
                    "velocity": 0.36220472440944884,
                    "duration": 0.11544674999999671
                },
                {
                    "name": "D#5",
                    "midi": 75,
                    "time": 58.18516199999976,
                    "velocity": 0.36220472440944884,
                    "duration": 0.11544674999999671
                },
                {
                    "name": "A5",
                    "midi": 81,
                    "time": 58.18516199999976,
                    "velocity": 0.4251968503937008,
                    "duration": 0.11544674999999671
                },
                {
                    "name": "C6",
                    "midi": 84,
                    "time": 58.30060874999975,
                    "velocity": 0.36220472440944884,
                    "duration": 0.11544674999999671
                },
                {
                    "name": "D#5",
                    "midi": 75,
                    "time": 58.41605549999975,
                    "velocity": 0.3543307086614173,
                    "duration": 0.11544674999999671
                },
                {
                    "name": "A5",
                    "midi": 81,
                    "time": 58.41605549999975,
                    "velocity": 0.41732283464566927,
                    "duration": 0.11544674999999671
                },
                {
                    "name": "C6",
                    "midi": 84,
                    "time": 58.53150224999975,
                    "velocity": 0.3543307086614173,
                    "duration": 0.11544674999999671
                },
                {
                    "name": "D#5",
                    "midi": 75,
                    "time": 58.64694899999974,
                    "velocity": 0.3543307086614173,
                    "duration": 0.11544674999999671
                },
                {
                    "name": "A5",
                    "midi": 81,
                    "time": 58.64694899999974,
                    "velocity": 0.41732283464566927,
                    "duration": 0.11544674999999671
                },
                {
                    "name": "C6",
                    "midi": 84,
                    "time": 58.76239574999974,
                    "velocity": 0.3543307086614173,
                    "duration": 0.11544674999999671
                },
                {
                    "name": "D5",
                    "midi": 74,
                    "time": 58.87784249999974,
                    "velocity": 0.3779527559055118,
                    "duration": 0.11544674999999671
                },
                {
                    "name": "A#5",
                    "midi": 82,
                    "time": 58.87784249999974,
                    "velocity": 0.44881889763779526,
                    "duration": 0.11544674999999671
                },
                {
                    "name": "D6",
                    "midi": 86,
                    "time": 58.993289249999734,
                    "velocity": 0.36220472440944884,
                    "duration": 0.11544674999999671
                },
                {
                    "name": "A#5",
                    "midi": 82,
                    "time": 59.10873599999973,
                    "velocity": 0.41732283464566927,
                    "duration": 0.11544674999999671
                },
                {
                    "name": "D5",
                    "midi": 74,
                    "time": 59.10873599999973,
                    "velocity": 0.3543307086614173,
                    "duration": 0.11544674999999671
                },
                {
                    "name": "D6",
                    "midi": 86,
                    "time": 59.22418274999973,
                    "velocity": 0.3543307086614173,
                    "duration": 0.11544674999999671
                },
                {
                    "name": "D5",
                    "midi": 74,
                    "time": 59.339629499999724,
                    "velocity": 0.3543307086614173,
                    "duration": 0.11544674999999671
                },
                {
                    "name": "A#5",
                    "midi": 82,
                    "time": 59.339629499999724,
                    "velocity": 0.41732283464566927,
                    "duration": 0.11544674999999671
                },
                {
                    "name": "D6",
                    "midi": 86,
                    "time": 59.45507624999972,
                    "velocity": 0.3543307086614173,
                    "duration": 0.11544674999999671
                },
                {
                    "name": "D#5",
                    "midi": 75,
                    "time": 59.57052299999972,
                    "velocity": 0.3228346456692913,
                    "duration": 0.11544674999999671
                },
                {
                    "name": "A5",
                    "midi": 81,
                    "time": 59.57052299999972,
                    "velocity": 0.3858267716535433,
                    "duration": 0.11544674999999671
                },
                {
                    "name": "C6",
                    "midi": 84,
                    "time": 59.685969749999714,
                    "velocity": 0.3228346456692913,
                    "duration": 0.11544674999999671
                },
                {
                    "name": "D#5",
                    "midi": 75,
                    "time": 59.80141649999971,
                    "velocity": 0.31496062992125984,
                    "duration": 0.11544674999999671
                },
                {
                    "name": "A5",
                    "midi": 81,
                    "time": 59.80141649999971,
                    "velocity": 0.3779527559055118,
                    "duration": 0.11544674999999671
                },
                {
                    "name": "C6",
                    "midi": 84,
                    "time": 59.91686324999971,
                    "velocity": 0.31496062992125984,
                    "duration": 0.11544674999999671
                },
                {
                    "name": "D#5",
                    "midi": 75,
                    "time": 60.032309999999704,
                    "velocity": 0.31496062992125984,
                    "duration": 0.11544674999999671
                },
                {
                    "name": "A5",
                    "midi": 81,
                    "time": 60.032309999999704,
                    "velocity": 0.3779527559055118,
                    "duration": 0.11544674999999671
                },
                {
                    "name": "C6",
                    "midi": 84,
                    "time": 60.1477567499997,
                    "velocity": 0.31496062992125984,
                    "duration": 0.11544674999999671
                },
                {
                    "name": "D5",
                    "midi": 74,
                    "time": 60.2632034999997,
                    "velocity": 0.33070866141732286,
                    "duration": 0.11544674999999671
                },
                {
                    "name": "A#5",
                    "midi": 82,
                    "time": 60.2632034999997,
                    "velocity": 0.4015748031496063,
                    "duration": 0.11544674999999671
                },
                {
                    "name": "D6",
                    "midi": 86,
                    "time": 60.378650249999694,
                    "velocity": 0.3228346456692913,
                    "duration": 0.11544674999999671
                },
                {
                    "name": "A#5",
                    "midi": 82,
                    "time": 60.49409699999969,
                    "velocity": 0.3779527559055118,
                    "duration": 0.11544674999999671
                },
                {
                    "name": "D5",
                    "midi": 74,
                    "time": 60.49409699999969,
                    "velocity": 0.31496062992125984,
                    "duration": 0.11544674999999671
                },
                {
                    "name": "D6",
                    "midi": 86,
                    "time": 60.60954374999969,
                    "velocity": 0.31496062992125984,
                    "duration": 0.11544674999999671
                },
                {
                    "name": "D5",
                    "midi": 74,
                    "time": 60.724990499999684,
                    "velocity": 0.31496062992125984,
                    "duration": 0.11544674999999671
                },
                {
                    "name": "A#5",
                    "midi": 82,
                    "time": 60.724990499999684,
                    "velocity": 0.3779527559055118,
                    "duration": 0.11544674999999671
                },
                {
                    "name": "D6",
                    "midi": 86,
                    "time": 60.84043724999968,
                    "velocity": 0.31496062992125984,
                    "duration": 0.11544674999999671
                },
                {
                    "name": "D#5",
                    "midi": 75,
                    "time": 60.95588399999968,
                    "velocity": 0.2755905511811024,
                    "duration": 0.11544674999999671
                },
                {
                    "name": "A5",
                    "midi": 81,
                    "time": 60.95588399999968,
                    "velocity": 0.33858267716535434,
                    "duration": 0.11544674999999671
                },
                {
                    "name": "C6",
                    "midi": 84,
                    "time": 61.071330749999674,
                    "velocity": 0.29133858267716534,
                    "duration": 0.11544674999999671
                },
                {
                    "name": "D#5",
                    "midi": 75,
                    "time": 61.18677749999967,
                    "velocity": 0.2755905511811024,
                    "duration": 0.11544674999999671
                },
                {
                    "name": "A5",
                    "midi": 81,
                    "time": 61.18677749999967,
                    "velocity": 0.33070866141732286,
                    "duration": 0.11544674999999671
                },
                {
                    "name": "C6",
                    "midi": 84,
                    "time": 61.30222424999967,
                    "velocity": 0.2755905511811024,
                    "duration": 0.11544674999999671
                },
                {
                    "name": "D#5",
                    "midi": 75,
                    "time": 61.417670999999665,
                    "velocity": 0.2755905511811024,
                    "duration": 0.11544674999999671
                },
                {
                    "name": "A5",
                    "midi": 81,
                    "time": 61.417670999999665,
                    "velocity": 0.33070866141732286,
                    "duration": 0.11544674999999671
                },
                {
                    "name": "C6",
                    "midi": 84,
                    "time": 61.53311774999966,
                    "velocity": 0.2755905511811024,
                    "duration": 0.11544674999999671
                },
                {
                    "name": "D5",
                    "midi": 74,
                    "time": 61.64856449999966,
                    "velocity": 0.2992125984251969,
                    "duration": 0.11544674999999671
                },
                {
                    "name": "A#5",
                    "midi": 82,
                    "time": 61.64856449999966,
                    "velocity": 0.3543307086614173,
                    "duration": 0.11544674999999671
                },
                {
                    "name": "D6",
                    "midi": 86,
                    "time": 61.764011249999655,
                    "velocity": 0.29133858267716534,
                    "duration": 0.11544674999999671
                },
                {
                    "name": "A#5",
                    "midi": 82,
                    "time": 61.87945799999965,
                    "velocity": 0.33070866141732286,
                    "duration": 0.11544674999999671
                },
                {
                    "name": "D5",
                    "midi": 74,
                    "time": 61.87945799999965,
                    "velocity": 0.2755905511811024,
                    "duration": 0.11544674999999671
                },
                {
                    "name": "D6",
                    "midi": 86,
                    "time": 61.99490474999965,
                    "velocity": 0.2755905511811024,
                    "duration": 0.11544674999999671
                },
                {
                    "name": "D5",
                    "midi": 74,
                    "time": 62.110351499999645,
                    "velocity": 0.2755905511811024,
                    "duration": 0.23089350000000053
                },
                {
                    "name": "A#5",
                    "midi": 82,
                    "time": 62.110351499999645,
                    "velocity": 0.33070866141732286,
                    "duration": 0.23089350000000053
                },
                {
                    "name": "A#5",
                    "midi": 82,
                    "time": 62.341244999999645,
                    "velocity": 0.4409448818897638,
                    "duration": 0.05772337500000191
                },
                {
                    "name": "G#5",
                    "midi": 80,
                    "time": 62.514415124999644,
                    "velocity": 0.3779527559055118,
                    "duration": 0.05772337500000191
                },
                {
                    "name": "G5",
                    "midi": 79,
                    "time": 62.572138499999646,
                    "velocity": 0.4409448818897638,
                    "duration": 0.11544674999999671
                },
                {
                    "name": "F5",
                    "midi": 77,
                    "time": 62.68758524999964,
                    "velocity": 0.4094488188976378,
                    "duration": 0.11544674999999671
                },
                {
                    "name": "G5",
                    "midi": 79,
                    "time": 62.80303199999964,
                    "velocity": 0.4409448818897638,
                    "duration": 0.23089350000000053
                },
                {
                    "name": "A#5",
                    "midi": 82,
                    "time": 63.03392549999964,
                    "velocity": 0.4409448818897638,
                    "duration": 0.05772337500000191
                },
                {
                    "name": "G5",
                    "midi": 79,
                    "time": 63.20709562499964,
                    "velocity": 0.3779527559055118,
                    "duration": 0.05772337500000191
                },
                {
                    "name": "F5",
                    "midi": 77,
                    "time": 63.26481899999964,
                    "velocity": 0.4409448818897638,
                    "duration": 0.11544674999999671
                },
                {
                    "name": "E5",
                    "midi": 76,
                    "time": 63.38026574999964,
                    "velocity": 0.4094488188976378,
                    "duration": 0.11544674999999671
                },
                {
                    "name": "F5",
                    "midi": 77,
                    "time": 63.495712499999634,
                    "velocity": 0.4409448818897638,
                    "duration": 0.23089350000000053
                },
                {
                    "name": "C6",
                    "midi": 84,
                    "time": 63.726605999999634,
                    "velocity": 0.4566929133858268,
                    "duration": 0.23089350000000053
                },
                {
                    "name": "A#5",
                    "midi": 82,
                    "time": 63.957499499999635,
                    "velocity": 0.4645669291338583,
                    "duration": 0.11544674999999671
                },
                {
                    "name": "G#5",
                    "midi": 80,
                    "time": 64.07294624999963,
                    "velocity": 0.4251968503937008,
                    "duration": 0.11544675000000382
                },
                {
                    "name": "G5",
                    "midi": 79,
                    "time": 64.18839299999964,
                    "velocity": 0.4566929133858268,
                    "duration": 0.11544675000000382
                },
                {
                    "name": "F5",
                    "midi": 77,
                    "time": 64.30383974999964,
                    "velocity": 0.4566929133858268,
                    "duration": 0.11544675000000382
                },
                {
                    "name": "C6",
                    "midi": 84,
                    "time": 64.41928649999964,
                    "velocity": 0.4566929133858268,
                    "duration": 0.23089349999999342
                },
                {
                    "name": "C5",
                    "midi": 72,
                    "time": 64.65017999999964,
                    "velocity": 0.4409448818897638,
                    "duration": 0.23089349999999342
                },
                {
                    "name": "C5",
                    "midi": 72,
                    "time": 64.88107349999963,
                    "velocity": 0.4409448818897638,
                    "duration": 0.23089349999999342
                },
                {
                    "name": "G#4",
                    "midi": 68,
                    "time": 65.11196699999962,
                    "velocity": 0.29133858267716534,
                    "duration": 0.11544675000000382
                },
                {
                    "name": "C5",
                    "midi": 72,
                    "time": 65.11196699999962,
                    "velocity": 0.3464566929133858,
                    "duration": 0.11544675000000382
                },
                {
                    "name": "D#5",
                    "midi": 75,
                    "time": 65.22741374999963,
                    "velocity": 0.30708661417322836,
                    "duration": 0.11544675000000382
                },
                {
                    "name": "G#4",
                    "midi": 68,
                    "time": 65.34286049999963,
                    "velocity": 0.2992125984251969,
                    "duration": 0.11544675000000382
                },
                {
                    "name": "C5",
                    "midi": 72,
                    "time": 65.34286049999963,
                    "velocity": 0.3543307086614173,
                    "duration": 0.11544675000000382
                },
                {
                    "name": "D#5",
                    "midi": 75,
                    "time": 65.45830724999963,
                    "velocity": 0.2992125984251969,
                    "duration": 0.11544675000000382
                },
                {
                    "name": "G#4",
                    "midi": 68,
                    "time": 65.57375399999964,
                    "velocity": 0.2992125984251969,
                    "duration": 0.11544675000000382
                },
                {
                    "name": "C5",
                    "midi": 72,
                    "time": 65.57375399999964,
                    "velocity": 0.3543307086614173,
                    "duration": 0.11544675000000382
                },
                {
                    "name": "D#5",
                    "midi": 75,
                    "time": 65.68920074999964,
                    "velocity": 0.30708661417322836,
                    "duration": 0.11544675000000382
                },
                {
                    "name": "G#4",
                    "midi": 68,
                    "time": 65.80464749999965,
                    "velocity": 0.29133858267716534,
                    "duration": 0.11544675000000382
                },
                {
                    "name": "F5",
                    "midi": 77,
                    "time": 65.80464749999965,
                    "velocity": 0.3464566929133858,
                    "duration": 0.11544675000000382
                },
                {
                    "name": "G#5",
                    "midi": 80,
                    "time": 65.92009424999965,
                    "velocity": 0.30708661417322836,
                    "duration": 0.11544675000000382
                },
                {
                    "name": "G#4",
                    "midi": 68,
                    "time": 66.03554099999965,
                    "velocity": 0.30708661417322836,
                    "duration": 0.11544675000000382
                },
                {
                    "name": "F5",
                    "midi": 77,
                    "time": 66.03554099999965,
                    "velocity": 0.3700787401574803,
                    "duration": 0.11544675000000382
                },
                {
                    "name": "G#5",
                    "midi": 80,
                    "time": 66.15098774999966,
                    "velocity": 0.30708661417322836,
                    "duration": 0.11544675000000382
                },
                {
                    "name": "G#4",
                    "midi": 68,
                    "time": 66.26643449999966,
                    "velocity": 0.3228346456692913,
                    "duration": 0.11544675000000382
                },
                {
                    "name": "F5",
                    "midi": 77,
                    "time": 66.26643449999966,
                    "velocity": 0.3858267716535433,
                    "duration": 0.11544675000000382
                },
                {
                    "name": "G#5",
                    "midi": 80,
                    "time": 66.38188124999967,
                    "velocity": 0.33858267716535434,
                    "duration": 0.11544675000000382
                },
                {
                    "name": "G#4",
                    "midi": 68,
                    "time": 66.49732799999967,
                    "velocity": 0.29133858267716534,
                    "duration": 0.11544675000000382
                },
                {
                    "name": "C5",
                    "midi": 72,
                    "time": 66.49732799999967,
                    "velocity": 0.3464566929133858,
                    "duration": 0.11544675000000382
                },
                {
                    "name": "D#5",
                    "midi": 75,
                    "time": 66.61277474999967,
                    "velocity": 0.2992125984251969,
                    "duration": 0.11544675000000382
                },
                {
                    "name": "G#4",
                    "midi": 68,
                    "time": 66.72822149999968,
                    "velocity": 0.2755905511811024,
                    "duration": 0.11544675000000382
                },
                {
                    "name": "C5",
                    "midi": 72,
                    "time": 66.72822149999968,
                    "velocity": 0.33070866141732286,
                    "duration": 0.11544675000000382
                },
                {
                    "name": "D#5",
                    "midi": 75,
                    "time": 66.84366824999968,
                    "velocity": 0.2677165354330709,
                    "duration": 0.11544675000000382
                },
                {
                    "name": "G#4",
                    "midi": 68,
                    "time": 66.95911499999968,
                    "velocity": 0.2677165354330709,
                    "duration": 0.11544675000000382
                },
                {
                    "name": "C5",
                    "midi": 72,
                    "time": 66.95911499999968,
                    "velocity": 0.31496062992125984,
                    "duration": 0.11544675000000382
                },
                {
                    "name": "D#5",
                    "midi": 75,
                    "time": 67.07456174999969,
                    "velocity": 0.25984251968503935,
                    "duration": 0.11544675000000382
                },
                {
                    "name": "G4",
                    "midi": 67,
                    "time": 67.19000849999969,
                    "velocity": 0.2440944881889764,
                    "duration": 0.11544675000000382
                },
                {
                    "name": "C#5",
                    "midi": 73,
                    "time": 67.19000849999969,
                    "velocity": 0.29133858267716534,
                    "duration": 0.11544675000000382
                },
                {
                    "name": "D#5",
                    "midi": 75,
                    "time": 67.3054552499997,
                    "velocity": 0.25196850393700787,
                    "duration": 0.11544675000000382
                },
                {
                    "name": "G4",
                    "midi": 67,
                    "time": 67.4209019999997,
                    "velocity": 0.2440944881889764,
                    "duration": 0.11544675000000382
                },
                {
                    "name": "C#5",
                    "midi": 73,
                    "time": 67.4209019999997,
                    "velocity": 0.2992125984251969,
                    "duration": 0.11544675000000382
                },
                {
                    "name": "D#5",
                    "midi": 75,
                    "time": 67.5363487499997,
                    "velocity": 0.2440944881889764,
                    "duration": 0.11544675000000382
                },
                {
                    "name": "G4",
                    "midi": 67,
                    "time": 67.65179549999971,
                    "velocity": 0.2440944881889764,
                    "duration": 0.11544675000000382
                },
                {
                    "name": "C#5",
                    "midi": 73,
                    "time": 67.65179549999971,
                    "velocity": 0.2992125984251969,
                    "duration": 0.11544675000000382
                },
                {
                    "name": "D#5",
                    "midi": 75,
                    "time": 67.76724224999971,
                    "velocity": 0.25196850393700787,
                    "duration": 0.11544675000000382
                },
                {
                    "name": "G#4",
                    "midi": 68,
                    "time": 67.88268899999971,
                    "velocity": 0.3700787401574803,
                    "duration": 0.0577233749999948
                },
                {
                    "name": "C5",
                    "midi": 72,
                    "time": 67.88268899999971,
                    "velocity": 0.3700787401574803,
                    "duration": 0.0577233749999948
                },
                {
                    "name": "D#5",
                    "midi": 75,
                    "time": 67.88268899999971,
                    "velocity": 0.4409448818897638,
                    "duration": 0.0577233749999948
                },
                {
                    "name": "C#5",
                    "midi": 73,
                    "time": 68.05585912499971,
                    "velocity": 0.3858267716535433,
                    "duration": 0.0577233749999948
                },
                {
                    "name": "C5",
                    "midi": 72,
                    "time": 68.11358249999971,
                    "velocity": 0.4409448818897638,
                    "duration": 0.11544675000000382
                },
                {
                    "name": "A#4",
                    "midi": 70,
                    "time": 68.22902924999971,
                    "velocity": 0.4094488188976378,
                    "duration": 0.11544675000000382
                },
                {
                    "name": "C5",
                    "midi": 72,
                    "time": 68.34447599999972,
                    "velocity": 0.4409448818897638,
                    "duration": 0.23089349999999342
                },
                {
                    "name": "D#5",
                    "midi": 75,
                    "time": 68.57536949999971,
                    "velocity": 0.4409448818897638,
                    "duration": 0.0577233749999948
                },
                {
                    "name": "C5",
                    "midi": 72,
                    "time": 68.74853962499971,
                    "velocity": 0.3858267716535433,
                    "duration": 0.0577233749999948
                },
                {
                    "name": "A#4",
                    "midi": 70,
                    "time": 68.8062629999997,
                    "velocity": 0.4409448818897638,
                    "duration": 0.11544675000000382
                },
                {
                    "name": "A4",
                    "midi": 69,
                    "time": 68.9217097499997,
                    "velocity": 0.4094488188976378,
                    "duration": 0.11544675000000382
                },
                {
                    "name": "A#4",
                    "midi": 70,
                    "time": 69.03715649999971,
                    "velocity": 0.4409448818897638,
                    "duration": 0.23089349999999342
                },
                {
                    "name": "F5",
                    "midi": 77,
                    "time": 69.2680499999997,
                    "velocity": 0.4566929133858268,
                    "duration": 0.23089349999999342
                },
                {
                    "name": "D#5",
                    "midi": 75,
                    "time": 69.4989434999997,
                    "velocity": 0.4645669291338583,
                    "duration": 0.11544675000000382
                },
                {
                    "name": "C#5",
                    "midi": 73,
                    "time": 69.6143902499997,
                    "velocity": 0.4251968503937008,
                    "duration": 0.11544675000000382
                },
                {
                    "name": "C5",
                    "midi": 72,
                    "time": 69.7298369999997,
                    "velocity": 0.4566929133858268,
                    "duration": 0.11544675000000382
                },
                {
                    "name": "A#4",
                    "midi": 70,
                    "time": 69.84528374999971,
                    "velocity": 0.4566929133858268,
                    "duration": 0.11544675000000382
                },
                {
                    "name": "F5",
                    "midi": 77,
                    "time": 69.96073049999971,
                    "velocity": 0.4566929133858268,
                    "duration": 0.23089349999999342
                },
                {
                    "name": "F4",
                    "midi": 65,
                    "time": 70.1916239999997,
                    "velocity": 0.4409448818897638,
                    "duration": 0.23089349999999342
                },
                {
                    "name": "F4",
                    "midi": 65,
                    "time": 70.4225174999997,
                    "velocity": 0.4409448818897638,
                    "duration": 0.23089349999999342
                },
                {
                    "name": "C#5",
                    "midi": 73,
                    "time": 70.65341099999969,
                    "velocity": 0.29133858267716534,
                    "duration": 0.11544675000000382
                },
                {
                    "name": "F5",
                    "midi": 77,
                    "time": 70.65341099999969,
                    "velocity": 0.3464566929133858,
                    "duration": 0.11544675000000382
                },
                {
                    "name": "G#5",
                    "midi": 80,
                    "time": 70.7688577499997,
                    "velocity": 0.30708661417322836,
                    "duration": 0.11544675000000382
                },
                {
                    "name": "C#5",
                    "midi": 73,
                    "time": 70.8843044999997,
                    "velocity": 0.2992125984251969,
                    "duration": 0.11544675000000382
                },
                {
                    "name": "F5",
                    "midi": 77,
                    "time": 70.8843044999997,
                    "velocity": 0.3543307086614173,
                    "duration": 0.11544675000000382
                },
                {
                    "name": "G#5",
                    "midi": 80,
                    "time": 70.9997512499997,
                    "velocity": 0.2992125984251969,
                    "duration": 0.11544675000000382
                },
                {
                    "name": "C#5",
                    "midi": 73,
                    "time": 71.11519799999971,
                    "velocity": 0.2992125984251969,
                    "duration": 0.11544675000000382
                },
                {
                    "name": "F5",
                    "midi": 77,
                    "time": 71.11519799999971,
                    "velocity": 0.3543307086614173,
                    "duration": 0.11544675000000382
                },
                {
                    "name": "G#5",
                    "midi": 80,
                    "time": 71.23064474999971,
                    "velocity": 0.30708661417322836,
                    "duration": 0.11544675000000382
                },
                {
                    "name": "C#5",
                    "midi": 73,
                    "time": 71.34609149999972,
                    "velocity": 0.29133858267716534,
                    "duration": 0.11544675000000382
                },
                {
                    "name": "A#5",
                    "midi": 82,
                    "time": 71.34609149999972,
                    "velocity": 0.3464566929133858,
                    "duration": 0.11544675000000382
                },
                {
                    "name": "C#6",
                    "midi": 85,
                    "time": 71.46153824999972,
                    "velocity": 0.30708661417322836,
                    "duration": 0.11544675000000382
                },
                {
                    "name": "C#5",
                    "midi": 73,
                    "time": 71.57698499999972,
                    "velocity": 0.30708661417322836,
                    "duration": 0.11544675000000382
                },
                {
                    "name": "A#5",
                    "midi": 82,
                    "time": 71.57698499999972,
                    "velocity": 0.3700787401574803,
                    "duration": 0.11544675000000382
                },
                {
                    "name": "C#6",
                    "midi": 85,
                    "time": 71.69243174999973,
                    "velocity": 0.30708661417322836,
                    "duration": 0.11544675000000382
                },
                {
                    "name": "C#5",
                    "midi": 73,
                    "time": 71.80787849999973,
                    "velocity": 0.3228346456692913,
                    "duration": 0.11544675000000382
                },
                {
                    "name": "A#5",
                    "midi": 82,
                    "time": 71.80787849999973,
                    "velocity": 0.3858267716535433,
                    "duration": 0.11544675000000382
                },
                {
                    "name": "C#6",
                    "midi": 85,
                    "time": 71.92332524999973,
                    "velocity": 0.33858267716535434,
                    "duration": 0.11544675000000382
                },
                {
                    "name": "C#5",
                    "midi": 73,
                    "time": 72.03877199999974,
                    "velocity": 0.29133858267716534,
                    "duration": 0.11544675000000382
                },
                {
                    "name": "F5",
                    "midi": 77,
                    "time": 72.03877199999974,
                    "velocity": 0.3464566929133858,
                    "duration": 0.11544675000000382
                },
                {
                    "name": "G#5",
                    "midi": 80,
                    "time": 72.15421874999974,
                    "velocity": 0.2992125984251969,
                    "duration": 0.11544675000000382
                },
                {
                    "name": "C#5",
                    "midi": 73,
                    "time": 72.26966549999975,
                    "velocity": 0.2755905511811024,
                    "duration": 0.11544675000000382
                },
                {
                    "name": "F5",
                    "midi": 77,
                    "time": 72.26966549999975,
                    "velocity": 0.33070866141732286,
                    "duration": 0.11544675000000382
                },
                {
                    "name": "G#5",
                    "midi": 80,
                    "time": 72.38511224999975,
                    "velocity": 0.2677165354330709,
                    "duration": 0.11544675000000382
                },
                {
                    "name": "C#5",
                    "midi": 73,
                    "time": 72.50055899999975,
                    "velocity": 0.2677165354330709,
                    "duration": 0.11544675000000382
                },
                {
                    "name": "F5",
                    "midi": 77,
                    "time": 72.50055899999975,
                    "velocity": 0.31496062992125984,
                    "duration": 0.11544675000000382
                },
                {
                    "name": "G#5",
                    "midi": 80,
                    "time": 72.61600574999976,
                    "velocity": 0.25984251968503935,
                    "duration": 0.11544675000000382
                },
                {
                    "name": "C5",
                    "midi": 72,
                    "time": 72.73145249999976,
                    "velocity": 0.2440944881889764,
                    "duration": 0.11544675000000382
                },
                {
                    "name": "F#5",
                    "midi": 78,
                    "time": 72.73145249999976,
                    "velocity": 0.29133858267716534,
                    "duration": 0.11544675000000382
                },
                {
                    "name": "G#5",
                    "midi": 80,
                    "time": 72.84689924999977,
                    "velocity": 0.25196850393700787,
                    "duration": 0.11544675000000382
                },
                {
                    "name": "C5",
                    "midi": 72,
                    "time": 72.96234599999977,
                    "velocity": 0.2440944881889764,
                    "duration": 0.11544675000000382
                },
                {
                    "name": "F#5",
                    "midi": 78,
                    "time": 72.96234599999977,
                    "velocity": 0.2992125984251969,
                    "duration": 0.11544675000000382
                },
                {
                    "name": "G#5",
                    "midi": 80,
                    "time": 73.07779274999977,
                    "velocity": 0.2440944881889764,
                    "duration": 0.11544675000000382
                },
                {
                    "name": "C5",
                    "midi": 72,
                    "time": 73.19323949999978,
                    "velocity": 0.2440944881889764,
                    "duration": 0.11544675000000382
                },
                {
                    "name": "F#5",
                    "midi": 78,
                    "time": 73.19323949999978,
                    "velocity": 0.2992125984251969,
                    "duration": 0.11544675000000382
                },
                {
                    "name": "G#5",
                    "midi": 80,
                    "time": 73.30868624999978,
                    "velocity": 0.25196850393700787,
                    "duration": 0.11544675000000382
                },
                {
                    "name": "C#5",
                    "midi": 73,
                    "time": 73.42413299999978,
                    "velocity": 0.2440944881889764,
                    "duration": 0.23089349999999342
                },
                {
                    "name": "F5",
                    "midi": 77,
                    "time": 73.42413299999978,
                    "velocity": 0.2440944881889764,
                    "duration": 0.23089349999999342
                },
                {
                    "name": "G#5",
                    "midi": 80,
                    "time": 73.42413299999978,
                    "velocity": 0.29133858267716534,
                    "duration": 0.23089349999999342
                },
                {
                    "name": "C#5",
                    "midi": 73,
                    "time": 74.75177062499978,
                    "velocity": 0.31496062992125984,
                    "duration": 0.17317012499999862
                },
                {
                    "name": "F5",
                    "midi": 77,
                    "time": 74.78063231249978,
                    "velocity": 0.31496062992125984,
                    "duration": 0.14430843750000122
                },
                {
                    "name": "G#5",
                    "midi": 80,
                    "time": 74.80949399999977,
                    "velocity": 0.4015748031496063,
                    "duration": 0.11544675000000382
                },
                {
                    "name": "F#5",
                    "midi": 78,
                    "time": 75.04038749999978,
                    "velocity": 0.31496062992125984,
                    "duration": 0.11544675000000382
                },
                {
                    "name": "F5",
                    "midi": 77,
                    "time": 75.15583424999978,
                    "velocity": 0.31496062992125984,
                    "duration": 0.11544675000000382
                },
                {
                    "name": "D#5",
                    "midi": 75,
                    "time": 75.27128099999979,
                    "velocity": 0.31496062992125984,
                    "duration": 0.11544675000000382
                },
                {
                    "name": "C#5",
                    "midi": 73,
                    "time": 75.38672774999979,
                    "velocity": 0.31496062992125984,
                    "duration": 0.1154467499999896
                },
                {
                    "name": "G#4",
                    "midi": 68,
                    "time": 75.44445112499979,
                    "velocity": 0.31496062992125984,
                    "duration": 0.17317012499999862
                },
                {
                    "name": "C5",
                    "midi": 72,
                    "time": 75.47331281249978,
                    "velocity": 0.31496062992125984,
                    "duration": 0.14430843750000122
                },
                {
                    "name": "D#5",
                    "midi": 75,
                    "time": 75.50217449999978,
                    "velocity": 0.3858267716535433,
                    "duration": 0.11544675000000382
                },
                {
                    "name": "C#5",
                    "midi": 73,
                    "time": 75.73306799999979,
                    "velocity": 0.31496062992125984,
                    "duration": 0.11544675000000382
                },
                {
                    "name": "C5",
                    "midi": 72,
                    "time": 75.8485147499998,
                    "velocity": 0.31496062992125984,
                    "duration": 0.11544675000000382
                },
                {
                    "name": "A#4",
                    "midi": 70,
                    "time": 75.9639614999998,
                    "velocity": 0.31496062992125984,
                    "duration": 0.11544675000000382
                },
                {
                    "name": "G#4",
                    "midi": 68,
                    "time": 76.0794082499998,
                    "velocity": 0.31496062992125984,
                    "duration": 0.1154467499999896
                },
                {
                    "name": "C#5",
                    "midi": 73,
                    "time": 76.1371316249998,
                    "velocity": 0.31496062992125984,
                    "duration": 0.17317012499999862
                },
                {
                    "name": "F5",
                    "midi": 77,
                    "time": 76.1659933124998,
                    "velocity": 0.31496062992125984,
                    "duration": 0.14430843750000122
                },
                {
                    "name": "G#5",
                    "midi": 80,
                    "time": 76.19485499999979,
                    "velocity": 0.41732283464566927,
                    "duration": 0.11544675000000382
                },
                {
                    "name": "F#5",
                    "midi": 78,
                    "time": 76.4257484999998,
                    "velocity": 0.33070866141732286,
                    "duration": 0.11544675000000382
                },
                {
                    "name": "F5",
                    "midi": 77,
                    "time": 76.5411952499998,
                    "velocity": 0.3543307086614173,
                    "duration": 0.11544675000000382
                },
                {
                    "name": "D#5",
                    "midi": 75,
                    "time": 76.6566419999998,
                    "velocity": 0.3700787401574803,
                    "duration": 0.11544675000000382
                },
                {
                    "name": "C#5",
                    "midi": 73,
                    "time": 76.77208874999981,
                    "velocity": 0.4015748031496063,
                    "duration": 0.11544675000000382
                },
                {
                    "name": "C#6",
                    "midi": 85,
                    "time": 76.88753549999981,
                    "velocity": 0.44881889763779526,
                    "duration": 0.0577233749999948
                },
                {
                    "name": "A#5",
                    "midi": 82,
                    "time": 76.88753549999981,
                    "velocity": 0.44881889763779526,
                    "duration": 0.0577233749999948
                },
                {
                    "name": "F#5",
                    "midi": 78,
                    "time": 76.88753549999981,
                    "velocity": 0.44881889763779526,
                    "duration": 0.0577233749999948
                },
                {
                    "name": "F#5",
                    "midi": 78,
                    "time": 77.11842899999981,
                    "velocity": 0.4015748031496063,
                    "duration": 0.0577233749999948
                },
                {
                    "name": "A#5",
                    "midi": 82,
                    "time": 77.11842899999981,
                    "velocity": 0.4015748031496063,
                    "duration": 0.0577233749999948
                },
                {
                    "name": "C#6",
                    "midi": 85,
                    "time": 77.11842899999981,
                    "velocity": 0.4015748031496063,
                    "duration": 0.0577233749999948
                },
                {
                    "name": "F#5",
                    "midi": 78,
                    "time": 77.3493224999998,
                    "velocity": 0.4015748031496063,
                    "duration": 0.0577233749999948
                },
                {
                    "name": "A#5",
                    "midi": 82,
                    "time": 77.3493224999998,
                    "velocity": 0.4015748031496063,
                    "duration": 0.0577233749999948
                },
                {
                    "name": "C#6",
                    "midi": 85,
                    "time": 77.3493224999998,
                    "velocity": 0.4015748031496063,
                    "duration": 0.0577233749999948
                },
                {
                    "name": "F4",
                    "midi": 65,
                    "time": 78.9655769999998,
                    "velocity": 0.3858267716535433,
                    "duration": 0.23089349999999342
                },
                {
                    "name": "G#4",
                    "midi": 68,
                    "time": 79.1387471249998,
                    "velocity": 0.25196850393700787,
                    "duration": 0.0577233749999948
                },
                {
                    "name": "F#4",
                    "midi": 66,
                    "time": 79.19647049999979,
                    "velocity": 0.3228346456692913,
                    "duration": 0.23089349999999342
                },
                {
                    "name": "F4",
                    "midi": 65,
                    "time": 79.42736399999978,
                    "velocity": 0.3228346456692913,
                    "duration": 0.23089349999999342
                },
                {
                    "name": "D#4",
                    "midi": 63,
                    "time": 79.65825749999978,
                    "velocity": 0.3779527559055118,
                    "duration": 0.23089349999999342
                },
                {
                    "name": "F4",
                    "midi": 65,
                    "time": 79.88915099999977,
                    "velocity": 0.3228346456692913,
                    "duration": 0.11544675000000382
                },
                {
                    "name": "F#4",
                    "midi": 66,
                    "time": 80.00459774999977,
                    "velocity": 0.3228346456692913,
                    "duration": 0.11544675000000382
                },
                {
                    "name": "G#4",
                    "midi": 68,
                    "time": 80.12004449999978,
                    "velocity": 0.33858267716535434,
                    "duration": 0.11544675000000382
                },
                {
                    "name": "A#4",
                    "midi": 70,
                    "time": 80.23549124999978,
                    "velocity": 0.3464566929133858,
                    "duration": 0.11544675000000382
                },
                {
                    "name": "C5",
                    "midi": 72,
                    "time": 80.35093799999979,
                    "velocity": 0.4094488188976378,
                    "duration": 0.23089349999999342
                },
                {
                    "name": "A#4",
                    "midi": 70,
                    "time": 80.58183149999978,
                    "velocity": 0.3937007874015748,
                    "duration": 0.11544675000000382
                },
                {
                    "name": "C5",
                    "midi": 72,
                    "time": 80.69727824999978,
                    "velocity": 0.36220472440944884,
                    "duration": 0.11544675000000382
                },
                {
                    "name": "C#5",
                    "midi": 73,
                    "time": 80.81272499999979,
                    "velocity": 0.3779527559055118,
                    "duration": 0.11544675000000382
                },
                {
                    "name": "D#5",
                    "midi": 75,
                    "time": 80.92817174999979,
                    "velocity": 0.3937007874015748,
                    "duration": 0.11544675000000382
                },
                {
                    "name": "F5",
                    "midi": 77,
                    "time": 81.0436184999998,
                    "velocity": 0.41732283464566927,
                    "duration": 0.0577233749999948
                },
                {
                    "name": "F5",
                    "midi": 77,
                    "time": 81.27451199999979,
                    "velocity": 0.3543307086614173,
                    "duration": 0.0577233749999948
                },
                {
                    "name": "F5",
                    "midi": 77,
                    "time": 81.50540549999978,
                    "velocity": 0.3464566929133858,
                    "duration": 0.0577233749999948
                },
                {
                    "name": "C#5",
                    "midi": 73,
                    "time": 83.06393662499978,
                    "velocity": 0.31496062992125984,
                    "duration": 0.17317012499999862
                },
                {
                    "name": "F5",
                    "midi": 77,
                    "time": 83.09279831249978,
                    "velocity": 0.31496062992125984,
                    "duration": 0.14430843750000122
                },
                {
                    "name": "G#5",
                    "midi": 80,
                    "time": 83.12165999999978,
                    "velocity": 0.4015748031496063,
                    "duration": 0.11544675000000382
                },
                {
                    "name": "F#5",
                    "midi": 78,
                    "time": 83.35255349999979,
                    "velocity": 0.31496062992125984,
                    "duration": 0.11544675000000382
                },
                {
                    "name": "F5",
                    "midi": 77,
                    "time": 83.46800024999979,
                    "velocity": 0.31496062992125984,
                    "duration": 0.11544675000000382
                },
                {
                    "name": "D#5",
                    "midi": 75,
                    "time": 83.5834469999998,
                    "velocity": 0.31496062992125984,
                    "duration": 0.11544675000000382
                },
                {
                    "name": "C#5",
                    "midi": 73,
                    "time": 83.6988937499998,
                    "velocity": 0.31496062992125984,
                    "duration": 0.1154467499999896
                },
                {
                    "name": "G#4",
                    "midi": 68,
                    "time": 83.75661712499979,
                    "velocity": 0.31496062992125984,
                    "duration": 0.17317012499999862
                },
                {
                    "name": "C5",
                    "midi": 72,
                    "time": 83.78547881249979,
                    "velocity": 0.31496062992125984,
                    "duration": 0.14430843750000122
                },
                {
                    "name": "D#5",
                    "midi": 75,
                    "time": 83.81434049999979,
                    "velocity": 0.3858267716535433,
                    "duration": 0.11544675000000382
                },
                {
                    "name": "C#5",
                    "midi": 73,
                    "time": 84.0452339999998,
                    "velocity": 0.31496062992125984,
                    "duration": 0.11544675000000382
                },
                {
                    "name": "C5",
                    "midi": 72,
                    "time": 84.1606807499998,
                    "velocity": 0.31496062992125984,
                    "duration": 0.11544675000000382
                },
                {
                    "name": "A#4",
                    "midi": 70,
                    "time": 84.2761274999998,
                    "velocity": 0.31496062992125984,
                    "duration": 0.11544675000000382
                },
                {
                    "name": "G#4",
                    "midi": 68,
                    "time": 84.3915742499998,
                    "velocity": 0.31496062992125984,
                    "duration": 0.1154467499999896
                },
                {
                    "name": "C#5",
                    "midi": 73,
                    "time": 84.4492976249998,
                    "velocity": 0.31496062992125984,
                    "duration": 0.17317012499999862
                },
                {
                    "name": "F5",
                    "midi": 77,
                    "time": 84.4781593124998,
                    "velocity": 0.31496062992125984,
                    "duration": 0.14430843750000122
                },
                {
                    "name": "G#5",
                    "midi": 80,
                    "time": 84.5070209999998,
                    "velocity": 0.41732283464566927,
                    "duration": 0.11544675000000382
                },
                {
                    "name": "F#5",
                    "midi": 78,
                    "time": 84.7379144999998,
                    "velocity": 0.33070866141732286,
                    "duration": 0.11544675000000382
                },
                {
                    "name": "F5",
                    "midi": 77,
                    "time": 84.85336124999981,
                    "velocity": 0.3543307086614173,
                    "duration": 0.11544675000000382
                },
                {
                    "name": "D#5",
                    "midi": 75,
                    "time": 84.96880799999981,
                    "velocity": 0.3700787401574803,
                    "duration": 0.11544675000000382
                },
                {
                    "name": "C#5",
                    "midi": 73,
                    "time": 85.08425474999981,
                    "velocity": 0.4015748031496063,
                    "duration": 0.11544675000000382
                },
                {
                    "name": "C#6",
                    "midi": 85,
                    "time": 85.19970149999982,
                    "velocity": 0.44881889763779526,
                    "duration": 0.0577233749999948
                },
                {
                    "name": "A5",
                    "midi": 81,
                    "time": 85.19970149999982,
                    "velocity": 0.44881889763779526,
                    "duration": 0.0577233749999948
                },
                {
                    "name": "F#5",
                    "midi": 78,
                    "time": 85.19970149999982,
                    "velocity": 0.44881889763779526,
                    "duration": 0.0577233749999948
                },
                {
                    "name": "F#5",
                    "midi": 78,
                    "time": 85.43059499999981,
                    "velocity": 0.4015748031496063,
                    "duration": 0.0577233749999948
                },
                {
                    "name": "A5",
                    "midi": 81,
                    "time": 85.43059499999981,
                    "velocity": 0.4015748031496063,
                    "duration": 0.0577233749999948
                },
                {
                    "name": "C#6",
                    "midi": 85,
                    "time": 85.43059499999981,
                    "velocity": 0.4015748031496063,
                    "duration": 0.0577233749999948
                },
                {
                    "name": "F#5",
                    "midi": 78,
                    "time": 85.6614884999998,
                    "velocity": 0.4015748031496063,
                    "duration": 0.0577233749999948
                },
                {
                    "name": "A5",
                    "midi": 81,
                    "time": 85.6614884999998,
                    "velocity": 0.4015748031496063,
                    "duration": 0.0577233749999948
                },
                {
                    "name": "C#6",
                    "midi": 85,
                    "time": 85.6614884999998,
                    "velocity": 0.4015748031496063,
                    "duration": 0.0577233749999948
                },
                {
                    "name": "C#5",
                    "midi": 73,
                    "time": 87.2777429999998,
                    "velocity": 0.41732283464566927,
                    "duration": 0.23089349999999342
                },
                {
                    "name": "E5",
                    "midi": 76,
                    "time": 87.4509131249998,
                    "velocity": 0.2992125984251969,
                    "duration": 0.0577233749999948
                },
                {
                    "name": "D5",
                    "midi": 74,
                    "time": 87.5086364999998,
                    "velocity": 0.3543307086614173,
                    "duration": 0.23089349999999342
                },
                {
                    "name": "C#5",
                    "midi": 73,
                    "time": 87.73952999999979,
                    "velocity": 0.3543307086614173,
                    "duration": 0.23089349999999342
                },
                {
                    "name": "B4",
                    "midi": 71,
                    "time": 87.97042349999978,
                    "velocity": 0.4094488188976378,
                    "duration": 0.23089349999999342
                },
                {
                    "name": "C#5",
                    "midi": 73,
                    "time": 88.20131699999978,
                    "velocity": 0.3543307086614173,
                    "duration": 0.11544675000000382
                },
                {
                    "name": "D5",
                    "midi": 74,
                    "time": 88.31676374999978,
                    "velocity": 0.3543307086614173,
                    "duration": 0.11544675000000382
                },
                {
                    "name": "E5",
                    "midi": 76,
                    "time": 88.43221049999978,
                    "velocity": 0.3700787401574803,
                    "duration": 0.11544675000000382
                },
                {
                    "name": "F#5",
                    "midi": 78,
                    "time": 88.54765724999979,
                    "velocity": 0.3779527559055118,
                    "duration": 0.11544675000000382
                },
                {
                    "name": "G#5",
                    "midi": 80,
                    "time": 88.66310399999979,
                    "velocity": 0.4094488188976378,
                    "duration": 0.23089349999999342
                },
                {
                    "name": "F#5",
                    "midi": 78,
                    "time": 88.89399749999978,
                    "velocity": 0.41732283464566927,
                    "duration": 0.11544675000000382
                },
                {
                    "name": "G#5",
                    "midi": 80,
                    "time": 89.00944424999979,
                    "velocity": 0.33858267716535434,
                    "duration": 0.11544675000000382
                },
                {
                    "name": "A5",
                    "midi": 81,
                    "time": 89.12489099999979,
                    "velocity": 0.36220472440944884,
                    "duration": 0.11544675000000382
                },
                {
                    "name": "B5",
                    "midi": 83,
                    "time": 89.2403377499998,
                    "velocity": 0.3858267716535433,
                    "duration": 0.11544675000000382
                },
                {
                    "name": "C#6",
                    "midi": 85,
                    "time": 89.3557844999998,
                    "velocity": 0.4094488188976378,
                    "duration": 0.0577233749999948
                },
                {
                    "name": "C#6",
                    "midi": 85,
                    "time": 89.5866779999998,
                    "velocity": 0.3858267716535433,
                    "duration": 0.0577233749999948
                },
                {
                    "name": "C#6",
                    "midi": 85,
                    "time": 89.81757149999979,
                    "velocity": 0.3779527559055118,
                    "duration": 0.0577233749999948
                },
                {
                    "name": "C#5",
                    "midi": 73,
                    "time": 90.74114549999977,
                    "velocity": 0.41732283464566927,
                    "duration": 0.0577233749999948
                },
                {
                    "name": "C#5",
                    "midi": 73,
                    "time": 90.97203899999977,
                    "velocity": 0.3543307086614173,
                    "duration": 0.0577233749999948
                },
                {
                    "name": "C#5",
                    "midi": 73,
                    "time": 91.20293249999976,
                    "velocity": 0.3543307086614173,
                    "duration": 0.0577233749999948
                },
                {
                    "name": "C#5",
                    "midi": 73,
                    "time": 91.43382599999975,
                    "velocity": 0.4094488188976378,
                    "duration": 0.23089349999999342
                },
                {
                    "name": "E5",
                    "midi": 76,
                    "time": 91.66471949999975,
                    "velocity": 0.3543307086614173,
                    "duration": 0.11544675000000382
                },
                {
                    "name": "D5",
                    "midi": 74,
                    "time": 91.78016624999975,
                    "velocity": 0.3543307086614173,
                    "duration": 0.11544675000000382
                },
                {
                    "name": "C#5",
                    "midi": 73,
                    "time": 91.89561299999976,
                    "velocity": 0.3700787401574803,
                    "duration": 0.11544675000000382
                },
                {
                    "name": "E5",
                    "midi": 76,
                    "time": 92.01105974999976,
                    "velocity": 0.3779527559055118,
                    "duration": 0.11544675000000382
                },
                {
                    "name": "D5",
                    "midi": 74,
                    "time": 92.12650649999976,
                    "velocity": 0.4094488188976378,
                    "duration": 0.0577233749999948
                },
                {
                    "name": "D5",
                    "midi": 74,
                    "time": 92.35739999999976,
                    "velocity": 0.4094488188976378,
                    "duration": 0.0577233749999948
                },
                {
                    "name": "D5",
                    "midi": 74,
                    "time": 92.58829349999975,
                    "velocity": 0.4015748031496063,
                    "duration": 0.0577233749999948
                },
                {
                    "name": "D6",
                    "midi": 86,
                    "time": 92.81918699999974,
                    "velocity": 0.4094488188976378,
                    "duration": 0.0577233749999948
                },
                {
                    "name": "D6",
                    "midi": 86,
                    "time": 93.05008049999974,
                    "velocity": 0.3858267716535433,
                    "duration": 0.0577233749999948
                },
                {
                    "name": "D6",
                    "midi": 86,
                    "time": 93.28097399999973,
                    "velocity": 0.3779527559055118,
                    "duration": 0.0577233749999948
                },
                {
                    "name": "D5",
                    "midi": 74,
                    "time": 94.20454799999972,
                    "velocity": 0.41732283464566927,
                    "duration": 0.0577233749999948
                },
                {
                    "name": "D5",
                    "midi": 74,
                    "time": 94.43544149999971,
                    "velocity": 0.3543307086614173,
                    "duration": 0.0577233749999948
                },
                {
                    "name": "D5",
                    "midi": 74,
                    "time": 94.6663349999997,
                    "velocity": 0.3543307086614173,
                    "duration": 0.0577233749999948
                },
                {
                    "name": "D5",
                    "midi": 74,
                    "time": 94.8972284999997,
                    "velocity": 0.4094488188976378,
                    "duration": 0.23089349999999342
                },
                {
                    "name": "F5",
                    "midi": 77,
                    "time": 95.12812199999969,
                    "velocity": 0.3543307086614173,
                    "duration": 0.11544675000000382
                },
                {
                    "name": "E5",
                    "midi": 76,
                    "time": 95.2435687499997,
                    "velocity": 0.3543307086614173,
                    "duration": 0.11544675000000382
                },
                {
                    "name": "D5",
                    "midi": 74,
                    "time": 95.3590154999997,
                    "velocity": 0.3700787401574803,
                    "duration": 0.11544675000000382
                },
                {
                    "name": "F5",
                    "midi": 77,
                    "time": 95.4744622499997,
                    "velocity": 0.3779527559055118,
                    "duration": 0.11544675000000382
                },
                {
                    "name": "D5",
                    "midi": 74,
                    "time": 95.58990899999971,
                    "velocity": 0.4094488188976378,
                    "duration": 0.0577233749999948
                },
                {
                    "name": "D5",
                    "midi": 74,
                    "time": 95.8208024999997,
                    "velocity": 0.4094488188976378,
                    "duration": 0.0577233749999948
                },
                {
                    "name": "D5",
                    "midi": 74,
                    "time": 96.0516959999997,
                    "velocity": 0.4094488188976378,
                    "duration": 0.0577233749999948
                },
                {
                    "name": "D6",
                    "midi": 86,
                    "time": 96.28258949999969,
                    "velocity": 0.4094488188976378,
                    "duration": 0.0577233749999948
                },
                {
                    "name": "D6",
                    "midi": 86,
                    "time": 96.51348299999968,
                    "velocity": 0.3858267716535433,
                    "duration": 0.0577233749999948
                },
                {
                    "name": "D6",
                    "midi": 86,
                    "time": 96.74437649999967,
                    "velocity": 0.3779527559055118,
                    "duration": 0.0577233749999948
                },
                {
                    "name": "D5",
                    "midi": 74,
                    "time": 96.97526999999967,
                    "velocity": 0.4409448818897638,
                    "duration": 0.23089349999999342
                },
                {
                    "name": "C#5",
                    "midi": 73,
                    "time": 97.20616349999966,
                    "velocity": 0.4094488188976378,
                    "duration": 0.23089349999999342
                },
                {
                    "name": "D5",
                    "midi": 74,
                    "time": 97.43705699999965,
                    "velocity": 0.4094488188976378,
                    "duration": 0.23089349999999342
                },
                {
                    "name": "D6",
                    "midi": 86,
                    "time": 97.66795049999965,
                    "velocity": 0.4409448818897638,
                    "duration": 0.23089349999999342
                },
                {
                    "name": "C#6",
                    "midi": 85,
                    "time": 97.89884399999964,
                    "velocity": 0.4094488188976378,
                    "duration": 0.23089349999999342
                },
                {
                    "name": "D6",
                    "midi": 86,
                    "time": 98.12973749999964,
                    "velocity": 0.4094488188976378,
                    "duration": 0.23089349999999342
                },
                {
                    "name": "A#5",
                    "midi": 82,
                    "time": 98.36063099999963,
                    "velocity": 0.4251968503937008,
                    "duration": 0.23089349999999342
                },
                {
                    "name": "A5",
                    "midi": 81,
                    "time": 98.59152449999962,
                    "velocity": 0.3700787401574803,
                    "duration": 0.23089349999999342
                },
                {
                    "name": "A#5",
                    "midi": 82,
                    "time": 98.82241799999962,
                    "velocity": 0.3779527559055118,
                    "duration": 0.23089349999999342
                },
                {
                    "name": "G5",
                    "midi": 79,
                    "time": 99.05331149999961,
                    "velocity": 0.4015748031496063,
                    "duration": 0.23089349999999342
                },
                {
                    "name": "A5",
                    "midi": 81,
                    "time": 99.2842049999996,
                    "velocity": 0.3779527559055118,
                    "duration": 0.11544675000000382
                },
                {
                    "name": "A#5",
                    "midi": 82,
                    "time": 99.3996517499996,
                    "velocity": 0.3858267716535433,
                    "duration": 0.11544675000000382
                },
                {
                    "name": "C6",
                    "midi": 84,
                    "time": 99.51509849999961,
                    "velocity": 0.4015748031496063,
                    "duration": 0.11544675000000382
                },
                {
                    "name": "D6",
                    "midi": 86,
                    "time": 99.63054524999961,
                    "velocity": 0.4094488188976378,
                    "duration": 0.11544675000000382
                },
                {
                    "name": "A#5",
                    "midi": 82,
                    "time": 99.74599199999962,
                    "velocity": 0.44881889763779526,
                    "duration": 0.23089349999999342
                },
                {
                    "name": "C6",
                    "midi": 84,
                    "time": 99.97688549999961,
                    "velocity": 0.4566929133858268,
                    "duration": 0.11544675000000382
                },
                {
                    "name": "A#5",
                    "midi": 82,
                    "time": 100.09233224999961,
                    "velocity": 0.4015748031496063,
                    "duration": 0.11544675000000382
                },
                {
                    "name": "A5",
                    "midi": 81,
                    "time": 100.20777899999962,
                    "velocity": 0.4409448818897638,
                    "duration": 0.11544675000000382
                },
                {
                    "name": "G5",
                    "midi": 79,
                    "time": 100.32322574999962,
                    "velocity": 0.4015748031496063,
                    "duration": 0.11544675000000382
                },
                {
                    "name": "F5",
                    "midi": 77,
                    "time": 100.43867249999963,
                    "velocity": 0.48031496062992124,
                    "duration": 0.0577233749999948
                },
                {
                    "name": "F5",
                    "midi": 77,
                    "time": 100.66956599999962,
                    "velocity": 0.4409448818897638,
                    "duration": 0.0577233749999948
                },
                {
                    "name": "F5",
                    "midi": 77,
                    "time": 100.90045949999961,
                    "velocity": 0.4409448818897638,
                    "duration": 0.0577233749999948
                },
                {
                    "name": "F#5",
                    "midi": 78,
                    "time": 101.1313529999996,
                    "velocity": 0.5433070866141733,
                    "duration": 0.23089349999999342
                },
                {
                    "name": "F#6",
                    "midi": 90,
                    "time": 101.3622464999996,
                    "velocity": 0.5196850393700787,
                    "duration": 0.23089349999999342
                },
                {
                    "name": "F#6",
                    "midi": 90,
                    "time": 101.5931399999996,
                    "velocity": 0.5275590551181102,
                    "duration": 0.0577233749999948
                },
                {
                    "name": "G6",
                    "midi": 91,
                    "time": 101.82403349999959,
                    "velocity": 0.5984251968503937,
                    "duration": 0.23089349999999342
                },
                {
                    "name": "G5",
                    "midi": 79,
                    "time": 102.05492699999958,
                    "velocity": 0.48031496062992124,
                    "duration": 0.23089349999999342
                },
                {
                    "name": "G5",
                    "midi": 79,
                    "time": 102.28582049999957,
                    "velocity": 0.48031496062992124,
                    "duration": 0.0577233749999948
                },
                {
                    "name": "A5",
                    "midi": 81,
                    "time": 102.51671399999957,
                    "velocity": 0.5118110236220472,
                    "duration": 0.0577233749999948
                },
                {
                    "name": "A#6",
                    "midi": 94,
                    "time": 102.71874581249956,
                    "velocity": 0.4881889763779528,
                    "duration": 0.0288616874999974
                },
                {
                    "name": "A6",
                    "midi": 93,
                    "time": 102.74760749999956,
                    "velocity": 0.5118110236220472,
                    "duration": 0.11544675000000382
                },
                {
                    "name": "G6",
                    "midi": 91,
                    "time": 102.86305424999956,
                    "velocity": 0.4881889763779528,
                    "duration": 0.11544675000000382
                },
                {
                    "name": "A6",
                    "midi": 93,
                    "time": 102.97850099999957,
                    "velocity": 0.5196850393700787,
                    "duration": 0.23089349999999342
                },
                {
                    "name": "A#6",
                    "midi": 94,
                    "time": 103.20939449999956,
                    "velocity": 0.5354330708661418,
                    "duration": 0.0577233749999948
                },
                {
                    "name": "C6",
                    "midi": 84,
                    "time": 103.41142631249956,
                    "velocity": 0.48031496062992124,
                    "duration": 0.0288616874999974
                },
                {
                    "name": "A#5",
                    "midi": 82,
                    "time": 103.44028799999955,
                    "velocity": 0.49606299212598426,
                    "duration": 0.11544675000000382
                },
                {
                    "name": "A5",
                    "midi": 81,
                    "time": 103.55573474999956,
                    "velocity": 0.47244094488188976,
                    "duration": 0.11544675000000382
                },
                {
                    "name": "A#5",
                    "midi": 82,
                    "time": 103.67118149999956,
                    "velocity": 0.5118110236220472,
                    "duration": 0.11544675000000382
                },
                {
                    "name": "D#5",
                    "midi": 75,
                    "time": 103.90207499999957,
                    "velocity": 0.3464566929133858,
                    "duration": 0.11544675000000382
                },
                {
                    "name": "G5",
                    "midi": 79,
                    "time": 103.90207499999957,
                    "velocity": 0.4094488188976378,
                    "duration": 0.11544675000000382
                },
                {
                    "name": "A#5",
                    "midi": 82,
                    "time": 104.01752174999957,
                    "velocity": 0.36220472440944884,
                    "duration": 0.11544675000000382
                },
                {
                    "name": "D#5",
                    "midi": 75,
                    "time": 104.13296849999958,
                    "velocity": 0.3543307086614173,
                    "duration": 0.11544675000000382
                },
                {
                    "name": "G5",
                    "midi": 79,
                    "time": 104.13296849999958,
                    "velocity": 0.41732283464566927,
                    "duration": 0.11544675000000382
                },
                {
                    "name": "A#5",
                    "midi": 82,
                    "time": 104.24841524999958,
                    "velocity": 0.3543307086614173,
                    "duration": 0.11544675000000382
                },
                {
                    "name": "D#5",
                    "midi": 75,
                    "time": 104.36386199999959,
                    "velocity": 0.3543307086614173,
                    "duration": 0.11544675000000382
                },
                {
                    "name": "G5",
                    "midi": 79,
                    "time": 104.36386199999959,
                    "velocity": 0.41732283464566927,
                    "duration": 0.11544675000000382
                },
                {
                    "name": "A#5",
                    "midi": 82,
                    "time": 104.47930874999959,
                    "velocity": 0.36220472440944884,
                    "duration": 0.11544675000000382
                },
                {
                    "name": "D#5",
                    "midi": 75,
                    "time": 104.5947554999996,
                    "velocity": 0.36220472440944884,
                    "duration": 0.11544675000000382
                },
                {
                    "name": "G5",
                    "midi": 79,
                    "time": 104.5947554999996,
                    "velocity": 0.4251968503937008,
                    "duration": 0.11544675000000382
                },
                {
                    "name": "C6",
                    "midi": 84,
                    "time": 104.7102022499996,
                    "velocity": 0.36220472440944884,
                    "duration": 0.11544675000000382
                },
                {
                    "name": "D#5",
                    "midi": 75,
                    "time": 104.8256489999996,
                    "velocity": 0.3543307086614173,
                    "duration": 0.11544675000000382
                },
                {
                    "name": "G5",
                    "midi": 79,
                    "time": 104.8256489999996,
                    "velocity": 0.41732283464566927,
                    "duration": 0.11544675000000382
                },
                {
                    "name": "C6",
                    "midi": 84,
                    "time": 104.9410957499996,
                    "velocity": 0.3543307086614173,
                    "duration": 0.11544675000000382
                },
                {
                    "name": "D#5",
                    "midi": 75,
                    "time": 105.05654249999961,
                    "velocity": 0.3543307086614173,
                    "duration": 0.11544675000000382
                },
                {
                    "name": "G5",
                    "midi": 79,
                    "time": 105.05654249999961,
                    "velocity": 0.41732283464566927,
                    "duration": 0.11544675000000382
                },
                {
                    "name": "C6",
                    "midi": 84,
                    "time": 105.17198924999961,
                    "velocity": 0.3543307086614173,
                    "duration": 0.11544675000000382
                },
                {
                    "name": "D#5",
                    "midi": 75,
                    "time": 105.28743599999962,
                    "velocity": 0.3779527559055118,
                    "duration": 0.11544675000000382
                },
                {
                    "name": "G5",
                    "midi": 79,
                    "time": 105.28743599999962,
                    "velocity": 0.44881889763779526,
                    "duration": 0.11544675000000382
                },
                {
                    "name": "A#5",
                    "midi": 82,
                    "time": 105.40288274999962,
                    "velocity": 0.36220472440944884,
                    "duration": 0.11544675000000382
                },
                {
                    "name": "G5",
                    "midi": 79,
                    "time": 105.51832949999962,
                    "velocity": 0.41732283464566927,
                    "duration": 0.11544675000000382
                },
                {
                    "name": "D#5",
                    "midi": 75,
                    "time": 105.51832949999962,
                    "velocity": 0.3543307086614173,
                    "duration": 0.11544675000000382
                },
                {
                    "name": "A#5",
                    "midi": 82,
                    "time": 105.63377624999963,
                    "velocity": 0.3543307086614173,
                    "duration": 0.11544675000000382
                },
                {
                    "name": "D#5",
                    "midi": 75,
                    "time": 105.74922299999963,
                    "velocity": 0.3543307086614173,
                    "duration": 0.11544675000000382
                },
                {
                    "name": "G5",
                    "midi": 79,
                    "time": 105.74922299999963,
                    "velocity": 0.41732283464566927,
                    "duration": 0.11544675000000382
                },
                {
                    "name": "A#5",
                    "midi": 82,
                    "time": 105.86466974999963,
                    "velocity": 0.3543307086614173,
                    "duration": 0.11544675000000382
                },
                {
                    "name": "D5",
                    "midi": 74,
                    "time": 105.98011649999964,
                    "velocity": 0.4015748031496063,
                    "duration": 0.11544675000000382
                },
                {
                    "name": "G#5",
                    "midi": 80,
                    "time": 105.98011649999964,
                    "velocity": 0.48031496062992124,
                    "duration": 0.11544675000000382
                },
                {
                    "name": "A#5",
                    "midi": 82,
                    "time": 106.09556324999964,
                    "velocity": 0.36220472440944884,
                    "duration": 0.11544675000000382
                },
                {
                    "name": "D5",
                    "midi": 74,
                    "time": 106.21100999999965,
                    "velocity": 0.3543307086614173,
                    "duration": 0.11544675000000382
                },
                {
                    "name": "G#5",
                    "midi": 80,
                    "time": 106.21100999999965,
                    "velocity": 0.41732283464566927,
                    "duration": 0.11544675000000382
                },
                {
                    "name": "A#5",
                    "midi": 82,
                    "time": 106.32645674999965,
                    "velocity": 0.3779527559055118,
                    "duration": 0.11544675000000382
                },
                {
                    "name": "D5",
                    "midi": 74,
                    "time": 106.44190349999965,
                    "velocity": 0.3543307086614173,
                    "duration": 0.11544675000000382
                },
                {
                    "name": "G#5",
                    "midi": 80,
                    "time": 106.44190349999965,
                    "velocity": 0.41732283464566927,
                    "duration": 0.11544675000000382
                },
                {
                    "name": "A#5",
                    "midi": 82,
                    "time": 106.55735024999966,
                    "velocity": 0.36220472440944884,
                    "duration": 0.11544675000000382
                },
                {
                    "name": "D5",
                    "midi": 74,
                    "time": 106.67279699999966,
                    "velocity": 0.3858267716535433,
                    "duration": 0.11544675000000382
                },
                {
                    "name": "G#5",
                    "midi": 80,
                    "time": 106.67279699999966,
                    "velocity": 0.4566929133858268,
                    "duration": 0.11544675000000382
                },
                {
                    "name": "D6",
                    "midi": 86,
                    "time": 106.78824374999967,
                    "velocity": 0.36220472440944884,
                    "duration": 0.11544675000000382
                },
                {
                    "name": "D5",
                    "midi": 74,
                    "time": 106.90369049999967,
                    "velocity": 0.3543307086614173,
                    "duration": 0.11544675000000382
                },
                {
                    "name": "G#5",
                    "midi": 80,
                    "time": 106.90369049999967,
                    "velocity": 0.41732283464566927,
                    "duration": 0.11544675000000382
                },
                {
                    "name": "D6",
                    "midi": 86,
                    "time": 107.01913724999967,
                    "velocity": 0.36220472440944884,
                    "duration": 0.11544675000000382
                },
                {
                    "name": "D5",
                    "midi": 74,
                    "time": 107.13458399999968,
                    "velocity": 0.3543307086614173,
                    "duration": 0.11544675000000382
                },
                {
                    "name": "G#5",
                    "midi": 80,
                    "time": 107.13458399999968,
                    "velocity": 0.41732283464566927,
                    "duration": 0.11544675000000382
                },
                {
                    "name": "D6",
                    "midi": 86,
                    "time": 107.25003074999968,
                    "velocity": 0.36220472440944884,
                    "duration": 0.11544675000000382
                },
                {
                    "name": "D#5",
                    "midi": 75,
                    "time": 107.36547749999968,
                    "velocity": 0.3779527559055118,
                    "duration": 0.11544675000000382
                },
                {
                    "name": "G5",
                    "midi": 79,
                    "time": 107.36547749999968,
                    "velocity": 0.44881889763779526,
                    "duration": 0.11544675000000382
                },
                {
                    "name": "D#6",
                    "midi": 87,
                    "time": 107.48092424999969,
                    "velocity": 0.36220472440944884,
                    "duration": 0.11544675000000382
                },
                {
                    "name": "D#5",
                    "midi": 75,
                    "time": 107.59637099999969,
                    "velocity": 0.3543307086614173,
                    "duration": 0.11544675000000382
                },
                {
                    "name": "G5",
                    "midi": 79,
                    "time": 107.59637099999969,
                    "velocity": 0.41732283464566927,
                    "duration": 0.11544675000000382
                },
                {
                    "name": "D#6",
                    "midi": 87,
                    "time": 107.7118177499997,
                    "velocity": 0.36220472440944884,
                    "duration": 0.11544675000000382
                },
                {
                    "name": "D#5",
                    "midi": 75,
                    "time": 107.8272644999997,
                    "velocity": 0.3543307086614173,
                    "duration": 0.11544675000000382
                },
                {
                    "name": "G5",
                    "midi": 79,
                    "time": 107.8272644999997,
                    "velocity": 0.41732283464566927,
                    "duration": 0.11544675000000382
                },
                {
                    "name": "D6",
                    "midi": 86,
                    "time": 107.9427112499997,
                    "velocity": 0.36220472440944884,
                    "duration": 0.11544675000000382
                },
                {
                    "name": "D#5",
                    "midi": 75,
                    "time": 108.05815799999971,
                    "velocity": 0.3543307086614173,
                    "duration": 0.11544675000000382
                },
                {
                    "name": "A5",
                    "midi": 81,
                    "time": 108.05815799999971,
                    "velocity": 0.41732283464566927,
                    "duration": 0.11544675000000382
                },
                {
                    "name": "C6",
                    "midi": 84,
                    "time": 108.17360474999971,
                    "velocity": 0.36220472440944884,
                    "duration": 0.11544675000000382
                },
                {
                    "name": "D#5",
                    "midi": 75,
                    "time": 108.28905149999972,
                    "velocity": 0.3543307086614173,
                    "duration": 0.11544675000000382
                },
                {
                    "name": "A5",
                    "midi": 81,
                    "time": 108.28905149999972,
                    "velocity": 0.41732283464566927,
                    "duration": 0.11544675000000382
                },
                {
                    "name": "C6",
                    "midi": 84,
                    "time": 108.40449824999972,
                    "velocity": 0.36220472440944884,
                    "duration": 0.11544675000000382
                },
                {
                    "name": "D#5",
                    "midi": 75,
                    "time": 108.51994499999972,
                    "velocity": 0.3543307086614173,
                    "duration": 0.11544675000000382
                },
                {
                    "name": "A5",
                    "midi": 81,
                    "time": 108.51994499999972,
                    "velocity": 0.41732283464566927,
                    "duration": 0.11544675000000382
                },
                {
                    "name": "C6",
                    "midi": 84,
                    "time": 108.63539174999973,
                    "velocity": 0.36220472440944884,
                    "duration": 0.11544675000000382
                },
                {
                    "name": "D5",
                    "midi": 74,
                    "time": 108.75083849999973,
                    "velocity": 0.3543307086614173,
                    "duration": 0.11544675000000382
                },
                {
                    "name": "A#5",
                    "midi": 82,
                    "time": 108.75083849999973,
                    "velocity": 0.41732283464566927,
                    "duration": 0.11544675000000382
                },
                {
                    "name": "D6",
                    "midi": 86,
                    "time": 108.86628524999973,
                    "velocity": 0.36220472440944884,
                    "duration": 0.11544675000000382
                },
                {
                    "name": "D5",
                    "midi": 74,
                    "time": 108.98173199999974,
                    "velocity": 0.3543307086614173,
                    "duration": 0.11544675000000382
                },
                {
                    "name": "A#5",
                    "midi": 82,
                    "time": 108.98173199999974,
                    "velocity": 0.41732283464566927,
                    "duration": 0.11544675000000382
                },
                {
                    "name": "D6",
                    "midi": 86,
                    "time": 109.09717874999974,
                    "velocity": 0.36220472440944884,
                    "duration": 0.11544675000000382
                },
                {
                    "name": "D5",
                    "midi": 74,
                    "time": 109.21262549999975,
                    "velocity": 0.3543307086614173,
                    "duration": 0.11544675000000382
                },
                {
                    "name": "A#5",
                    "midi": 82,
                    "time": 109.21262549999975,
                    "velocity": 0.41732283464566927,
                    "duration": 0.11544675000000382
                },
                {
                    "name": "D6",
                    "midi": 86,
                    "time": 109.32807224999975,
                    "velocity": 0.36220472440944884,
                    "duration": 0.11544675000000382
                },
                {
                    "name": "D#5",
                    "midi": 75,
                    "time": 109.44351899999975,
                    "velocity": 0.36220472440944884,
                    "duration": 0.11544675000000382
                },
                {
                    "name": "A5",
                    "midi": 81,
                    "time": 109.44351899999975,
                    "velocity": 0.4251968503937008,
                    "duration": 0.11544675000000382
                },
                {
                    "name": "C6",
                    "midi": 84,
                    "time": 109.55896574999976,
                    "velocity": 0.36220472440944884,
                    "duration": 0.11544675000000382
                },
                {
                    "name": "D#5",
                    "midi": 75,
                    "time": 109.67441249999976,
                    "velocity": 0.3543307086614173,
                    "duration": 0.11544675000000382
                },
                {
                    "name": "A5",
                    "midi": 81,
                    "time": 109.67441249999976,
                    "velocity": 0.41732283464566927,
                    "duration": 0.11544675000000382
                },
                {
                    "name": "C6",
                    "midi": 84,
                    "time": 109.78985924999976,
                    "velocity": 0.3543307086614173,
                    "duration": 0.11544675000000382
                },
                {
                    "name": "D#5",
                    "midi": 75,
                    "time": 109.90530599999977,
                    "velocity": 0.3543307086614173,
                    "duration": 0.11544675000000382
                },
                {
                    "name": "A5",
                    "midi": 81,
                    "time": 109.90530599999977,
                    "velocity": 0.41732283464566927,
                    "duration": 0.11544675000000382
                },
                {
                    "name": "C6",
                    "midi": 84,
                    "time": 110.02075274999977,
                    "velocity": 0.3543307086614173,
                    "duration": 0.11544675000000382
                },
                {
                    "name": "D5",
                    "midi": 74,
                    "time": 110.13619949999978,
                    "velocity": 0.3779527559055118,
                    "duration": 0.11544675000000382
                },
                {
                    "name": "A#5",
                    "midi": 82,
                    "time": 110.13619949999978,
                    "velocity": 0.44881889763779526,
                    "duration": 0.11544675000000382
                },
                {
                    "name": "D6",
                    "midi": 86,
                    "time": 110.25164624999978,
                    "velocity": 0.36220472440944884,
                    "duration": 0.11544675000000382
                },
                {
                    "name": "A#5",
                    "midi": 82,
                    "time": 110.36709299999978,
                    "velocity": 0.41732283464566927,
                    "duration": 0.11544675000000382
                },
                {
                    "name": "D5",
                    "midi": 74,
                    "time": 110.36709299999978,
                    "velocity": 0.3543307086614173,
                    "duration": 0.11544675000000382
                },
                {
                    "name": "D6",
                    "midi": 86,
                    "time": 110.48253974999979,
                    "velocity": 0.3543307086614173,
                    "duration": 0.11544675000000382
                },
                {
                    "name": "D5",
                    "midi": 74,
                    "time": 110.59798649999979,
                    "velocity": 0.3543307086614173,
                    "duration": 0.11544675000000382
                },
                {
                    "name": "A#5",
                    "midi": 82,
                    "time": 110.59798649999979,
                    "velocity": 0.41732283464566927,
                    "duration": 0.11544675000000382
                },
                {
                    "name": "D6",
                    "midi": 86,
                    "time": 110.7134332499998,
                    "velocity": 0.3543307086614173,
                    "duration": 0.11544675000000382
                },
                {
                    "name": "D#5",
                    "midi": 75,
                    "time": 110.8288799999998,
                    "velocity": 0.3228346456692913,
                    "duration": 0.11544675000000382
                },
                {
                    "name": "A5",
                    "midi": 81,
                    "time": 110.8288799999998,
                    "velocity": 0.3858267716535433,
                    "duration": 0.11544675000000382
                },
                {
                    "name": "C6",
                    "midi": 84,
                    "time": 110.9443267499998,
                    "velocity": 0.3228346456692913,
                    "duration": 0.11544675000000382
                },
                {
                    "name": "D#5",
                    "midi": 75,
                    "time": 111.0597734999998,
                    "velocity": 0.31496062992125984,
                    "duration": 0.11544675000000382
                },
                {
                    "name": "A5",
                    "midi": 81,
                    "time": 111.0597734999998,
                    "velocity": 0.3779527559055118,
                    "duration": 0.11544675000000382
                },
                {
                    "name": "C6",
                    "midi": 84,
                    "time": 111.17522024999981,
                    "velocity": 0.31496062992125984,
                    "duration": 0.11544675000000382
                },
                {
                    "name": "D#5",
                    "midi": 75,
                    "time": 111.29066699999981,
                    "velocity": 0.31496062992125984,
                    "duration": 0.11544675000000382
                },
                {
                    "name": "A5",
                    "midi": 81,
                    "time": 111.29066699999981,
                    "velocity": 0.3779527559055118,
                    "duration": 0.11544675000000382
                },
                {
                    "name": "C6",
                    "midi": 84,
                    "time": 111.40611374999982,
                    "velocity": 0.31496062992125984,
                    "duration": 0.11544675000000382
                },
                {
                    "name": "D5",
                    "midi": 74,
                    "time": 111.52156049999982,
                    "velocity": 0.33070866141732286,
                    "duration": 0.11544675000000382
                },
                {
                    "name": "A#5",
                    "midi": 82,
                    "time": 111.52156049999982,
                    "velocity": 0.4015748031496063,
                    "duration": 0.11544675000000382
                },
                {
                    "name": "D6",
                    "midi": 86,
                    "time": 111.63700724999983,
                    "velocity": 0.3228346456692913,
                    "duration": 0.11544675000000382
                },
                {
                    "name": "A#5",
                    "midi": 82,
                    "time": 111.75245399999983,
                    "velocity": 0.3779527559055118,
                    "duration": 0.11544675000000382
                },
                {
                    "name": "D5",
                    "midi": 74,
                    "time": 111.75245399999983,
                    "velocity": 0.31496062992125984,
                    "duration": 0.11544675000000382
                },
                {
                    "name": "D6",
                    "midi": 86,
                    "time": 111.86790074999983,
                    "velocity": 0.31496062992125984,
                    "duration": 0.11544675000000382
                },
                {
                    "name": "D5",
                    "midi": 74,
                    "time": 111.98334749999984,
                    "velocity": 0.31496062992125984,
                    "duration": 0.11544675000000382
                },
                {
                    "name": "A#5",
                    "midi": 82,
                    "time": 111.98334749999984,
                    "velocity": 0.3779527559055118,
                    "duration": 0.11544675000000382
                },
                {
                    "name": "D6",
                    "midi": 86,
                    "time": 112.09879424999984,
                    "velocity": 0.31496062992125984,
                    "duration": 0.11544675000000382
                },
                {
                    "name": "D#5",
                    "midi": 75,
                    "time": 112.21424099999984,
                    "velocity": 0.2755905511811024,
                    "duration": 0.11544675000000382
                },
                {
                    "name": "A5",
                    "midi": 81,
                    "time": 112.21424099999984,
                    "velocity": 0.33858267716535434,
                    "duration": 0.11544675000000382
                },
                {
                    "name": "C6",
                    "midi": 84,
                    "time": 112.32968774999985,
                    "velocity": 0.29133858267716534,
                    "duration": 0.11544675000000382
                },
                {
                    "name": "D#5",
                    "midi": 75,
                    "time": 112.44513449999985,
                    "velocity": 0.2755905511811024,
                    "duration": 0.11544675000000382
                },
                {
                    "name": "A5",
                    "midi": 81,
                    "time": 112.44513449999985,
                    "velocity": 0.33070866141732286,
                    "duration": 0.11544675000000382
                },
                {
                    "name": "C6",
                    "midi": 84,
                    "time": 112.56058124999986,
                    "velocity": 0.2755905511811024,
                    "duration": 0.11544675000000382
                },
                {
                    "name": "D#5",
                    "midi": 75,
                    "time": 112.67602799999986,
                    "velocity": 0.2755905511811024,
                    "duration": 0.11544675000000382
                },
                {
                    "name": "A5",
                    "midi": 81,
                    "time": 112.67602799999986,
                    "velocity": 0.33070866141732286,
                    "duration": 0.11544675000000382
                },
                {
                    "name": "C6",
                    "midi": 84,
                    "time": 112.79147474999986,
                    "velocity": 0.2755905511811024,
                    "duration": 0.11544675000000382
                },
                {
                    "name": "D6",
                    "midi": 86,
                    "time": 112.90692149999987,
                    "velocity": 0.3543307086614173,
                    "duration": 0.23089349999999342
                },
                {
                    "name": "D5",
                    "midi": 74,
                    "time": 112.90692149999987,
                    "velocity": 0.2992125984251969,
                    "duration": 0.23089349999999342
                },
                {
                    "name": "A#5",
                    "midi": 82,
                    "time": 112.90692149999987,
                    "velocity": 0.3543307086614173,
                    "duration": 0.23089349999999342
                },
                {
                    "name": "C#4",
                    "midi": 61,
                    "time": 113.59960199999986,
                    "velocity": 0.3543307086614173,
                    "duration": 0.46178700000000106
                },
                {
                    "name": "F4",
                    "midi": 65,
                    "time": 113.59960199999986,
                    "velocity": 0.3543307086614173,
                    "duration": 0.46178700000000106
                },
                {
                    "name": "C#4",
                    "midi": 61,
                    "time": 114.06138899999986,
                    "velocity": 0.3543307086614173,
                    "duration": 0.34634024999999724
                },
                {
                    "name": "F4",
                    "midi": 65,
                    "time": 114.06138899999986,
                    "velocity": 0.3543307086614173,
                    "duration": 0.34634024999999724
                },
                {
                    "name": "C4",
                    "midi": 60,
                    "time": 114.52317599999986,
                    "velocity": 0.2677165354330709,
                    "duration": 0.08658506250000642
                },
                {
                    "name": "D#4",
                    "midi": 63,
                    "time": 114.52317599999986,
                    "velocity": 0.3228346456692913,
                    "duration": 0.08658506250000642
                },
                {
                    "name": "F4",
                    "midi": 65,
                    "time": 114.52317599999986,
                    "velocity": 0.3228346456692913,
                    "duration": 0.08658506250000642
                },
                {
                    "name": "A#3",
                    "midi": 58,
                    "time": 114.75406949999987,
                    "velocity": 0.2755905511811024,
                    "duration": 0.08658506250000642
                },
                {
                    "name": "C#4",
                    "midi": 61,
                    "time": 114.75406949999987,
                    "velocity": 0.33070866141732286,
                    "duration": 0.08658506250000642
                },
                {
                    "name": "F4",
                    "midi": 65,
                    "time": 114.75406949999987,
                    "velocity": 0.33070866141732286,
                    "duration": 0.08658506250000642
                },
                {
                    "name": "A3",
                    "midi": 57,
                    "time": 114.98496299999988,
                    "velocity": 0.2992125984251969,
                    "duration": 0.46178700000000106
                },
                {
                    "name": "C4",
                    "midi": 60,
                    "time": 114.98496299999988,
                    "velocity": 0.3543307086614173,
                    "duration": 0.46178700000000106
                },
                {
                    "name": "F4",
                    "midi": 65,
                    "time": 114.98496299999988,
                    "velocity": 0.3543307086614173,
                    "duration": 0.46178700000000106
                },
                {
                    "name": "A3",
                    "midi": 57,
                    "time": 115.44674999999988,
                    "velocity": 0.2992125984251969,
                    "duration": 0.34634024999999724
                },
                {
                    "name": "C4",
                    "midi": 60,
                    "time": 115.44674999999988,
                    "velocity": 0.3543307086614173,
                    "duration": 0.34634024999999724
                },
                {
                    "name": "F4",
                    "midi": 65,
                    "time": 115.44674999999988,
                    "velocity": 0.3543307086614173,
                    "duration": 0.34634024999999724
                },
                {
                    "name": "A#3",
                    "midi": 58,
                    "time": 115.90853699999988,
                    "velocity": 0.2677165354330709,
                    "duration": 0.08658506250000642
                },
                {
                    "name": "C#4",
                    "midi": 61,
                    "time": 115.90853699999988,
                    "velocity": 0.3228346456692913,
                    "duration": 0.08658506250000642
                },
                {
                    "name": "F4",
                    "midi": 65,
                    "time": 115.90853699999988,
                    "velocity": 0.3228346456692913,
                    "duration": 0.08658506250000642
                },
                {
                    "name": "C4",
                    "midi": 60,
                    "time": 116.13943049999989,
                    "velocity": 0.2755905511811024,
                    "duration": 0.08658506250000642
                },
                {
                    "name": "D#4",
                    "midi": 63,
                    "time": 116.13943049999989,
                    "velocity": 0.33070866141732286,
                    "duration": 0.08658506250000642
                },
                {
                    "name": "F4",
                    "midi": 65,
                    "time": 116.13943049999989,
                    "velocity": 0.33070866141732286,
                    "duration": 0.08658506250000642
                },
                {
                    "name": "C#4",
                    "midi": 61,
                    "time": 116.3703239999999,
                    "velocity": 0.3543307086614173,
                    "duration": 0.46178700000000106
                },
                {
                    "name": "F4",
                    "midi": 65,
                    "time": 116.3703239999999,
                    "velocity": 0.3543307086614173,
                    "duration": 0.46178700000000106
                },
                {
                    "name": "C#4",
                    "midi": 61,
                    "time": 116.8321109999999,
                    "velocity": 0.3543307086614173,
                    "duration": 0.46178700000000106
                },
                {
                    "name": "F4",
                    "midi": 65,
                    "time": 116.8321109999999,
                    "velocity": 0.3543307086614173,
                    "duration": 0.46178700000000106
                },
                {
                    "name": "C4",
                    "midi": 60,
                    "time": 117.2938979999999,
                    "velocity": 0.2677165354330709,
                    "duration": 0.08658506250000642
                },
                {
                    "name": "D#4",
                    "midi": 63,
                    "time": 117.2938979999999,
                    "velocity": 0.3228346456692913,
                    "duration": 0.08658506250000642
                },
                {
                    "name": "F4",
                    "midi": 65,
                    "time": 117.2938979999999,
                    "velocity": 0.3228346456692913,
                    "duration": 0.08658506250000642
                },
                {
                    "name": "A#3",
                    "midi": 58,
                    "time": 117.5247914999999,
                    "velocity": 0.2755905511811024,
                    "duration": 0.08658506250000642
                },
                {
                    "name": "C#4",
                    "midi": 61,
                    "time": 117.5247914999999,
                    "velocity": 0.33070866141732286,
                    "duration": 0.08658506250000642
                },
                {
                    "name": "F4",
                    "midi": 65,
                    "time": 117.5247914999999,
                    "velocity": 0.33070866141732286,
                    "duration": 0.08658506250000642
                },
                {
                    "name": "G#3",
                    "midi": 56,
                    "time": 117.75568499999991,
                    "velocity": 0.25196850393700787,
                    "duration": 0.46178700000000106
                },
                {
                    "name": "C#4",
                    "midi": 61,
                    "time": 117.75568499999991,
                    "velocity": 0.2992125984251969,
                    "duration": 0.46178700000000106
                },
                {
                    "name": "F4",
                    "midi": 65,
                    "time": 117.75568499999991,
                    "velocity": 0.2992125984251969,
                    "duration": 0.46178700000000106
                },
                {
                    "name": "G#3",
                    "midi": 56,
                    "time": 118.21747199999992,
                    "velocity": 0.25196850393700787,
                    "duration": 0.34634024999999724
                },
                {
                    "name": "C#4",
                    "midi": 61,
                    "time": 118.21747199999992,
                    "velocity": 0.2992125984251969,
                    "duration": 0.34634024999999724
                },
                {
                    "name": "F4",
                    "midi": 65,
                    "time": 118.21747199999992,
                    "velocity": 0.2992125984251969,
                    "duration": 0.34634024999999724
                },
                {
                    "name": "G#3",
                    "midi": 56,
                    "time": 118.67925899999992,
                    "velocity": 0.2204724409448819,
                    "duration": 0.08658506250000642
                },
                {
                    "name": "F4",
                    "midi": 65,
                    "time": 118.67925899999992,
                    "velocity": 0.2677165354330709,
                    "duration": 0.08658506250000642
                },
                {
                    "name": "G#4",
                    "midi": 68,
                    "time": 118.67925899999992,
                    "velocity": 0.2677165354330709,
                    "duration": 0.08658506250000642
                },
                {
                    "name": "G#3",
                    "midi": 56,
                    "time": 118.91015249999992,
                    "velocity": 0.2283464566929134,
                    "duration": 0.08658506250000642
                },
                {
                    "name": "F4",
                    "midi": 65,
                    "time": 118.91015249999992,
                    "velocity": 0.2755905511811024,
                    "duration": 0.08658506250000642
                },
                {
                    "name": "G#4",
                    "midi": 68,
                    "time": 118.91015249999992,
                    "velocity": 0.2755905511811024,
                    "duration": 0.08658506250000642
                },
                {
                    "name": "G#3",
                    "midi": 56,
                    "time": 119.14104599999993,
                    "velocity": 0.25196850393700787,
                    "duration": 0.46178700000000106
                },
                {
                    "name": "C#4",
                    "midi": 61,
                    "time": 119.14104599999993,
                    "velocity": 0.2992125984251969,
                    "duration": 0.46178700000000106
                },
                {
                    "name": "F4",
                    "midi": 65,
                    "time": 119.14104599999993,
                    "velocity": 0.2992125984251969,
                    "duration": 0.46178700000000106
                },
                {
                    "name": "G#3",
                    "midi": 56,
                    "time": 119.60283299999993,
                    "velocity": 0.25196850393700787,
                    "duration": 0.46178700000000106
                },
                {
                    "name": "C#4",
                    "midi": 61,
                    "time": 119.60283299999993,
                    "velocity": 0.2992125984251969,
                    "duration": 0.46178700000000106
                },
                {
                    "name": "F4",
                    "midi": 65,
                    "time": 119.60283299999993,
                    "velocity": 0.2992125984251969,
                    "duration": 0.46178700000000106
                },
                {
                    "name": "C#4",
                    "midi": 61,
                    "time": 120.52640699999994,
                    "velocity": 0.3543307086614173,
                    "duration": 0.46178700000000106
                },
                {
                    "name": "F4",
                    "midi": 65,
                    "time": 120.52640699999994,
                    "velocity": 0.3543307086614173,
                    "duration": 0.46178700000000106
                },
                {
                    "name": "C#4",
                    "midi": 61,
                    "time": 120.98819399999994,
                    "velocity": 0.3543307086614173,
                    "duration": 0.34634024999999724
                },
                {
                    "name": "F4",
                    "midi": 65,
                    "time": 120.98819399999994,
                    "velocity": 0.3543307086614173,
                    "duration": 0.34634024999999724
                },
                {
                    "name": "C4",
                    "midi": 60,
                    "time": 121.44998099999994,
                    "velocity": 0.2677165354330709,
                    "duration": 0.08658506250000642
                },
                {
                    "name": "D#4",
                    "midi": 63,
                    "time": 121.44998099999994,
                    "velocity": 0.3228346456692913,
                    "duration": 0.08658506250000642
                },
                {
                    "name": "F4",
                    "midi": 65,
                    "time": 121.44998099999994,
                    "velocity": 0.3228346456692913,
                    "duration": 0.08658506250000642
                },
                {
                    "name": "A#3",
                    "midi": 58,
                    "time": 121.68087449999994,
                    "velocity": 0.2755905511811024,
                    "duration": 0.08658506250000642
                },
                {
                    "name": "C#4",
                    "midi": 61,
                    "time": 121.68087449999994,
                    "velocity": 0.33070866141732286,
                    "duration": 0.08658506250000642
                },
                {
                    "name": "F4",
                    "midi": 65,
                    "time": 121.68087449999994,
                    "velocity": 0.33070866141732286,
                    "duration": 0.08658506250000642
                },
                {
                    "name": "A3",
                    "midi": 57,
                    "time": 121.91176799999995,
                    "velocity": 0.2992125984251969,
                    "duration": 0.46178700000000106
                },
                {
                    "name": "C4",
                    "midi": 60,
                    "time": 121.91176799999995,
                    "velocity": 0.3543307086614173,
                    "duration": 0.46178700000000106
                },
                {
                    "name": "F4",
                    "midi": 65,
                    "time": 121.91176799999995,
                    "velocity": 0.3543307086614173,
                    "duration": 0.46178700000000106
                },
                {
                    "name": "A3",
                    "midi": 57,
                    "time": 122.37355499999995,
                    "velocity": 0.2992125984251969,
                    "duration": 0.34634024999999724
                },
                {
                    "name": "C4",
                    "midi": 60,
                    "time": 122.37355499999995,
                    "velocity": 0.3543307086614173,
                    "duration": 0.34634024999999724
                },
                {
                    "name": "F4",
                    "midi": 65,
                    "time": 122.37355499999995,
                    "velocity": 0.3543307086614173,
                    "duration": 0.34634024999999724
                },
                {
                    "name": "A#3",
                    "midi": 58,
                    "time": 122.83534199999995,
                    "velocity": 0.2677165354330709,
                    "duration": 0.08658506250000642
                },
                {
                    "name": "C#4",
                    "midi": 61,
                    "time": 122.83534199999995,
                    "velocity": 0.3228346456692913,
                    "duration": 0.08658506250000642
                },
                {
                    "name": "F4",
                    "midi": 65,
                    "time": 122.83534199999995,
                    "velocity": 0.3228346456692913,
                    "duration": 0.08658506250000642
                },
                {
                    "name": "C4",
                    "midi": 60,
                    "time": 123.06623549999996,
                    "velocity": 0.2755905511811024,
                    "duration": 0.08658506250000642
                },
                {
                    "name": "D#4",
                    "midi": 63,
                    "time": 123.06623549999996,
                    "velocity": 0.33070866141732286,
                    "duration": 0.08658506250000642
                },
                {
                    "name": "F4",
                    "midi": 65,
                    "time": 123.06623549999996,
                    "velocity": 0.33070866141732286,
                    "duration": 0.08658506250000642
                },
                {
                    "name": "C#4",
                    "midi": 61,
                    "time": 123.29712899999997,
                    "velocity": 0.3543307086614173,
                    "duration": 0.46178700000000106
                },
                {
                    "name": "F4",
                    "midi": 65,
                    "time": 123.29712899999997,
                    "velocity": 0.3543307086614173,
                    "duration": 0.46178700000000106
                },
                {
                    "name": "C#4",
                    "midi": 61,
                    "time": 123.75891599999997,
                    "velocity": 0.3543307086614173,
                    "duration": 0.46178700000000106
                },
                {
                    "name": "F4",
                    "midi": 65,
                    "time": 123.75891599999997,
                    "velocity": 0.3543307086614173,
                    "duration": 0.46178700000000106
                },
                {
                    "name": "C4",
                    "midi": 60,
                    "time": 124.22070299999997,
                    "velocity": 0.2677165354330709,
                    "duration": 0.08658506250000642
                },
                {
                    "name": "D#4",
                    "midi": 63,
                    "time": 124.22070299999997,
                    "velocity": 0.3228346456692913,
                    "duration": 0.08658506250000642
                },
                {
                    "name": "F4",
                    "midi": 65,
                    "time": 124.22070299999997,
                    "velocity": 0.3228346456692913,
                    "duration": 0.08658506250000642
                },
                {
                    "name": "A#3",
                    "midi": 58,
                    "time": 124.45159649999998,
                    "velocity": 0.2755905511811024,
                    "duration": 0.08658506250000642
                },
                {
                    "name": "C#4",
                    "midi": 61,
                    "time": 124.45159649999998,
                    "velocity": 0.33070866141732286,
                    "duration": 0.08658506250000642
                },
                {
                    "name": "F4",
                    "midi": 65,
                    "time": 124.45159649999998,
                    "velocity": 0.33070866141732286,
                    "duration": 0.08658506250000642
                },
                {
                    "name": "G#3",
                    "midi": 56,
                    "time": 124.68248999999999,
                    "velocity": 0.25196850393700787,
                    "duration": 0.46178700000000106
                },
                {
                    "name": "C#4",
                    "midi": 61,
                    "time": 124.68248999999999,
                    "velocity": 0.2992125984251969,
                    "duration": 0.46178700000000106
                },
                {
                    "name": "F4",
                    "midi": 65,
                    "time": 124.68248999999999,
                    "velocity": 0.2992125984251969,
                    "duration": 0.46178700000000106
                },
                {
                    "name": "G#3",
                    "midi": 56,
                    "time": 125.14427699999999,
                    "velocity": 0.25196850393700787,
                    "duration": 0.34634024999999724
                },
                {
                    "name": "C#4",
                    "midi": 61,
                    "time": 125.14427699999999,
                    "velocity": 0.2992125984251969,
                    "duration": 0.34634024999999724
                },
                {
                    "name": "F4",
                    "midi": 65,
                    "time": 125.14427699999999,
                    "velocity": 0.2992125984251969,
                    "duration": 0.34634024999999724
                },
                {
                    "name": "G#3",
                    "midi": 56,
                    "time": 125.60606399999999,
                    "velocity": 0.2204724409448819,
                    "duration": 0.08658506250000642
                },
                {
                    "name": "F4",
                    "midi": 65,
                    "time": 125.60606399999999,
                    "velocity": 0.2677165354330709,
                    "duration": 0.08658506250000642
                },
                {
                    "name": "G#4",
                    "midi": 68,
                    "time": 125.60606399999999,
                    "velocity": 0.2677165354330709,
                    "duration": 0.08658506250000642
                },
                {
                    "name": "G#3",
                    "midi": 56,
                    "time": 125.8369575,
                    "velocity": 0.2283464566929134,
                    "duration": 0.08658506250000642
                },
                {
                    "name": "F4",
                    "midi": 65,
                    "time": 125.8369575,
                    "velocity": 0.2755905511811024,
                    "duration": 0.08658506250000642
                },
                {
                    "name": "G#4",
                    "midi": 68,
                    "time": 125.8369575,
                    "velocity": 0.2755905511811024,
                    "duration": 0.08658506250000642
                },
                {
                    "name": "G#3",
                    "midi": 56,
                    "time": 126.067851,
                    "velocity": 0.25196850393700787,
                    "duration": 0.46178700000000106
                },
                {
                    "name": "C#4",
                    "midi": 61,
                    "time": 126.067851,
                    "velocity": 0.2992125984251969,
                    "duration": 0.46178700000000106
                },
                {
                    "name": "F4",
                    "midi": 65,
                    "time": 126.067851,
                    "velocity": 0.2992125984251969,
                    "duration": 0.46178700000000106
                },
                {
                    "name": "G#3",
                    "midi": 56,
                    "time": 126.529638,
                    "velocity": 0.25196850393700787,
                    "duration": 0.46178700000000106
                },
                {
                    "name": "C#4",
                    "midi": 61,
                    "time": 126.529638,
                    "velocity": 0.2992125984251969,
                    "duration": 0.46178700000000106
                },
                {
                    "name": "F4",
                    "midi": 65,
                    "time": 126.529638,
                    "velocity": 0.2992125984251969,
                    "duration": 0.46178700000000106
                },
                {
                    "name": "A#3",
                    "midi": 58,
                    "time": 127.45321200000001,
                    "velocity": 0.2992125984251969,
                    "duration": 0.46178700000000106
                },
                {
                    "name": "C#4",
                    "midi": 61,
                    "time": 127.45321200000001,
                    "velocity": 0.3543307086614173,
                    "duration": 0.46178700000000106
                },
                {
                    "name": "F#4",
                    "midi": 66,
                    "time": 127.45321200000001,
                    "velocity": 0.3543307086614173,
                    "duration": 0.46178700000000106
                },
                {
                    "name": "A#3",
                    "midi": 58,
                    "time": 127.91499900000001,
                    "velocity": 0.30708661417322836,
                    "duration": 0.46178700000000106
                },
                {
                    "name": "C#4",
                    "midi": 61,
                    "time": 127.91499900000001,
                    "velocity": 0.3700787401574803,
                    "duration": 0.46178700000000106
                },
                {
                    "name": "F#4",
                    "midi": 66,
                    "time": 127.91499900000001,
                    "velocity": 0.3700787401574803,
                    "duration": 0.46178700000000106
                },
                {
                    "name": "A#3",
                    "midi": 58,
                    "time": 128.376786,
                    "velocity": 0.2992125984251969,
                    "duration": 0.08658506250000642
                },
                {
                    "name": "C#4",
                    "midi": 61,
                    "time": 128.376786,
                    "velocity": 0.3543307086614173,
                    "duration": 0.08658506250000642
                },
                {
                    "name": "G#4",
                    "midi": 68,
                    "time": 128.376786,
                    "velocity": 0.3543307086614173,
                    "duration": 0.08658506250000642
                },
                {
                    "name": "A#3",
                    "midi": 58,
                    "time": 128.60767950000002,
                    "velocity": 0.30708661417322836,
                    "duration": 0.08658506250000642
                },
                {
                    "name": "C#4",
                    "midi": 61,
                    "time": 128.60767950000002,
                    "velocity": 0.3700787401574803,
                    "duration": 0.08658506250000642
                },
                {
                    "name": "A#4",
                    "midi": 70,
                    "time": 128.60767950000002,
                    "velocity": 0.3700787401574803,
                    "duration": 0.08658506250000642
                },
                {
                    "name": "G#3",
                    "midi": 56,
                    "time": 128.83857300000003,
                    "velocity": 0.33858267716535434,
                    "duration": 0.46178699999998685
                },
                {
                    "name": "C4",
                    "midi": 60,
                    "time": 128.83857300000003,
                    "velocity": 0.4015748031496063,
                    "duration": 0.46178699999998685
                },
                {
                    "name": "F4",
                    "midi": 65,
                    "time": 128.83857300000003,
                    "velocity": 0.4015748031496063,
                    "duration": 0.46178699999998685
                },
                {
                    "name": "G#3",
                    "midi": 56,
                    "time": 129.30036,
                    "velocity": 0.33070866141732286,
                    "duration": 0.46178699999998685
                },
                {
                    "name": "C4",
                    "midi": 60,
                    "time": 129.30036,
                    "velocity": 0.3937007874015748,
                    "duration": 0.46178699999998685
                },
                {
                    "name": "F4",
                    "midi": 65,
                    "time": 129.30036,
                    "velocity": 0.3937007874015748,
                    "duration": 0.46178699999998685
                },
                {
                    "name": "G3",
                    "midi": 55,
                    "time": 129.762147,
                    "velocity": 0.30708661417322836,
                    "duration": 0.08658506250000642
                },
                {
                    "name": "C4",
                    "midi": 60,
                    "time": 129.762147,
                    "velocity": 0.3700787401574803,
                    "duration": 0.08658506250000642
                },
                {
                    "name": "E4",
                    "midi": 64,
                    "time": 129.762147,
                    "velocity": 0.3700787401574803,
                    "duration": 0.08658506250000642
                },
                {
                    "name": "G3",
                    "midi": 55,
                    "time": 129.9930405,
                    "velocity": 0.31496062992125984,
                    "duration": 0.08658506250000642
                },
                {
                    "name": "C4",
                    "midi": 60,
                    "time": 129.9930405,
                    "velocity": 0.3779527559055118,
                    "duration": 0.08658506250000642
                },
                {
                    "name": "E4",
                    "midi": 64,
                    "time": 129.9930405,
                    "velocity": 0.3779527559055118,
                    "duration": 0.08658506250000642
                },
                {
                    "name": "D#4",
                    "midi": 63,
                    "time": 130.223934,
                    "velocity": 0.3543307086614173,
                    "duration": 0.46178699999998685
                },
                {
                    "name": "G#3",
                    "midi": 56,
                    "time": 130.223934,
                    "velocity": 0.2992125984251969,
                    "duration": 0.46178699999998685
                },
                {
                    "name": "C4",
                    "midi": 60,
                    "time": 130.223934,
                    "velocity": 0.3543307086614173,
                    "duration": 0.46178699999998685
                },
                {
                    "name": "G#3",
                    "midi": 56,
                    "time": 130.685721,
                    "velocity": 0.2992125984251969,
                    "duration": 0.23089350000000763
                },
                {
                    "name": "C4",
                    "midi": 60,
                    "time": 130.685721,
                    "velocity": 0.3543307086614173,
                    "duration": 0.23089350000000763
                },
                {
                    "name": "D#4",
                    "midi": 63,
                    "time": 130.685721,
                    "velocity": 0.3543307086614173,
                    "duration": 0.46178700000001527
                },
                {
                    "name": "A#3",
                    "midi": 58,
                    "time": 130.9166145,
                    "velocity": 0.2440944881889764,
                    "duration": 0.23089350000000763
                },
                {
                    "name": "C#4",
                    "midi": 61,
                    "time": 130.9166145,
                    "velocity": 0.29133858267716534,
                    "duration": 0.23089350000000763
                },
                {
                    "name": "G3",
                    "midi": 55,
                    "time": 131.14750800000002,
                    "velocity": 0.2677165354330709,
                    "duration": 0.08658506250000642
                },
                {
                    "name": "A#3",
                    "midi": 58,
                    "time": 131.14750800000002,
                    "velocity": 0.3228346456692913,
                    "duration": 0.08658506250000642
                },
                {
                    "name": "D#4",
                    "midi": 63,
                    "time": 131.14750800000002,
                    "velocity": 0.3228346456692913,
                    "duration": 0.08658506250000642
                },
                {
                    "name": "G3",
                    "midi": 55,
                    "time": 131.37840150000002,
                    "velocity": 0.2755905511811024,
                    "duration": 0.08658506250000642
                },
                {
                    "name": "A#3",
                    "midi": 58,
                    "time": 131.37840150000002,
                    "velocity": 0.33070866141732286,
                    "duration": 0.08658506250000642
                },
                {
                    "name": "D#4",
                    "midi": 63,
                    "time": 131.37840150000002,
                    "velocity": 0.33070866141732286,
                    "duration": 0.08658506250000642
                },
                {
                    "name": "G#4",
                    "midi": 68,
                    "time": 131.60929500000003,
                    "velocity": 0.3543307086614173,
                    "duration": 0.46178699999998685
                },
                {
                    "name": "C4",
                    "midi": 60,
                    "time": 131.60929500000003,
                    "velocity": 0.2992125984251969,
                    "duration": 0.46178699999998685
                },
                {
                    "name": "D#4",
                    "midi": 63,
                    "time": 131.60929500000003,
                    "velocity": 0.3543307086614173,
                    "duration": 0.46178699999998685
                },
                {
                    "name": "C4",
                    "midi": 60,
                    "time": 132.07108200000002,
                    "velocity": 0.33070866141732286,
                    "duration": 0.46178700000001527
                },
                {
                    "name": "D#4",
                    "midi": 63,
                    "time": 132.07108200000002,
                    "velocity": 0.3937007874015748,
                    "duration": 0.46178700000001527
                },
                {
                    "name": "G#4",
                    "midi": 68,
                    "time": 132.07108200000002,
                    "velocity": 0.3937007874015748,
                    "duration": 0.23089350000000763
                },
                {
                    "name": "A4",
                    "midi": 69,
                    "time": 132.30197550000003,
                    "velocity": 0.3700787401574803,
                    "duration": 0.23089350000000763
                },
                {
                    "name": "C4",
                    "midi": 60,
                    "time": 132.53286900000003,
                    "velocity": 0.2677165354330709,
                    "duration": 0.08658506250000642
                },
                {
                    "name": "D#4",
                    "midi": 63,
                    "time": 132.53286900000003,
                    "velocity": 0.3228346456692913,
                    "duration": 0.08658506250000642
                },
                {
                    "name": "F4",
                    "midi": 65,
                    "time": 132.53286900000003,
                    "velocity": 0.3228346456692913,
                    "duration": 0.08658506250000642
                },
                {
                    "name": "C4",
                    "midi": 60,
                    "time": 132.76376250000004,
                    "velocity": 0.2755905511811024,
                    "duration": 0.08658506250000642
                },
                {
                    "name": "D#4",
                    "midi": 63,
                    "time": 132.76376250000004,
                    "velocity": 0.33070866141732286,
                    "duration": 0.08658506250000642
                },
                {
                    "name": "F4",
                    "midi": 65,
                    "time": 132.76376250000004,
                    "velocity": 0.33070866141732286,
                    "duration": 0.08658506250000642
                },
                {
                    "name": "F4",
                    "midi": 65,
                    "time": 132.99465600000005,
                    "velocity": 0.3543307086614173,
                    "duration": 0.46178699999998685
                },
                {
                    "name": "C#5",
                    "midi": 73,
                    "time": 132.99465600000005,
                    "velocity": 0.3543307086614173,
                    "duration": 0.46178699999998685
                },
                {
                    "name": "F4",
                    "midi": 65,
                    "time": 133.45644300000004,
                    "velocity": 0.3543307086614173,
                    "duration": 0.46178699999998685
                },
                {
                    "name": "C#5",
                    "midi": 73,
                    "time": 133.45644300000004,
                    "velocity": 0.3543307086614173,
                    "duration": 0.46178699999998685
                },
                {
                    "name": "D#4",
                    "midi": 63,
                    "time": 133.91823000000002,
                    "velocity": 0.3228346456692913,
                    "duration": 0.08658506250000642
                },
                {
                    "name": "F4",
                    "midi": 65,
                    "time": 133.91823000000002,
                    "velocity": 0.3228346456692913,
                    "duration": 0.08658506250000642
                },
                {
                    "name": "C5",
                    "midi": 72,
                    "time": 133.91823000000002,
                    "velocity": 0.3228346456692913,
                    "duration": 0.08658506250000642
                },
                {
                    "name": "C#4",
                    "midi": 61,
                    "time": 134.14912350000003,
                    "velocity": 0.2755905511811024,
                    "duration": 0.08658506250000642
                },
                {
                    "name": "F4",
                    "midi": 65,
                    "time": 134.14912350000003,
                    "velocity": 0.33070866141732286,
                    "duration": 0.08658506250000642
                },
                {
                    "name": "A#4",
                    "midi": 70,
                    "time": 134.14912350000003,
                    "velocity": 0.33070866141732286,
                    "duration": 0.08658506250000642
                },
                {
                    "name": "F4",
                    "midi": 65,
                    "time": 134.38001700000004,
                    "velocity": 0.3543307086614173,
                    "duration": 0.46178699999998685
                },
                {
                    "name": "C4",
                    "midi": 60,
                    "time": 134.38001700000004,
                    "velocity": 0.2992125984251969,
                    "duration": 0.46178699999998685
                },
                {
                    "name": "A4",
                    "midi": 69,
                    "time": 134.38001700000004,
                    "velocity": 0.3543307086614173,
                    "duration": 0.46178699999998685
                },
                {
                    "name": "F4",
                    "midi": 65,
                    "time": 134.84180400000002,
                    "velocity": 0.3543307086614173,
                    "duration": 0.46178699999998685
                },
                {
                    "name": "C4",
                    "midi": 60,
                    "time": 134.84180400000002,
                    "velocity": 0.2992125984251969,
                    "duration": 0.46178699999998685
                },
                {
                    "name": "A4",
                    "midi": 69,
                    "time": 134.84180400000002,
                    "velocity": 0.3543307086614173,
                    "duration": 0.46178699999998685
                },
                {
                    "name": "C#4",
                    "midi": 61,
                    "time": 135.303591,
                    "velocity": 0.2677165354330709,
                    "duration": 0.08658506250000642
                },
                {
                    "name": "F4",
                    "midi": 65,
                    "time": 135.303591,
                    "velocity": 0.3228346456692913,
                    "duration": 0.08658506250000642
                },
                {
                    "name": "A#4",
                    "midi": 70,
                    "time": 135.303591,
                    "velocity": 0.3228346456692913,
                    "duration": 0.08658506250000642
                },
                {
                    "name": "D#4",
                    "midi": 63,
                    "time": 135.53448450000002,
                    "velocity": 0.2755905511811024,
                    "duration": 0.08658506250000642
                },
                {
                    "name": "F4",
                    "midi": 65,
                    "time": 135.53448450000002,
                    "velocity": 0.33070866141732286,
                    "duration": 0.08658506250000642
                },
                {
                    "name": "C5",
                    "midi": 72,
                    "time": 135.53448450000002,
                    "velocity": 0.33070866141732286,
                    "duration": 0.08658506250000642
                },
                {
                    "name": "C#4",
                    "midi": 61,
                    "time": 135.76537800000003,
                    "velocity": 0.3543307086614173,
                    "duration": 0.46178699999998685
                },
                {
                    "name": "F4",
                    "midi": 65,
                    "time": 135.76537800000003,
                    "velocity": 0.3543307086614173,
                    "duration": 0.46178699999998685
                },
                {
                    "name": "C#4",
                    "midi": 61,
                    "time": 136.227165,
                    "velocity": 0.3543307086614173,
                    "duration": 0.46178699999998685
                },
                {
                    "name": "F4",
                    "midi": 65,
                    "time": 136.227165,
                    "velocity": 0.3543307086614173,
                    "duration": 0.46178699999998685
                },
                {
                    "name": "C4",
                    "midi": 60,
                    "time": 136.688952,
                    "velocity": 0.2677165354330709,
                    "duration": 0.08658506250000642
                },
                {
                    "name": "D#4",
                    "midi": 63,
                    "time": 136.688952,
                    "velocity": 0.3228346456692913,
                    "duration": 0.08658506250000642
                },
                {
                    "name": "F4",
                    "midi": 65,
                    "time": 136.688952,
                    "velocity": 0.3228346456692913,
                    "duration": 0.08658506250000642
                },
                {
                    "name": "A#3",
                    "midi": 58,
                    "time": 136.9198455,
                    "velocity": 0.2755905511811024,
                    "duration": 0.08658506250000642
                },
                {
                    "name": "C#4",
                    "midi": 61,
                    "time": 136.9198455,
                    "velocity": 0.33070866141732286,
                    "duration": 0.08658506250000642
                },
                {
                    "name": "F4",
                    "midi": 65,
                    "time": 136.9198455,
                    "velocity": 0.33070866141732286,
                    "duration": 0.08658506250000642
                },
                {
                    "name": "G#3",
                    "midi": 56,
                    "time": 137.15073900000002,
                    "velocity": 0.25196850393700787,
                    "duration": 0.46178699999998685
                },
                {
                    "name": "C#4",
                    "midi": 61,
                    "time": 137.15073900000002,
                    "velocity": 0.2992125984251969,
                    "duration": 0.46178699999998685
                },
                {
                    "name": "F4",
                    "midi": 65,
                    "time": 137.15073900000002,
                    "velocity": 0.2992125984251969,
                    "duration": 0.46178699999998685
                },
                {
                    "name": "G#3",
                    "midi": 56,
                    "time": 137.612526,
                    "velocity": 0.25196850393700787,
                    "duration": 0.46178699999998685
                },
                {
                    "name": "C#4",
                    "midi": 61,
                    "time": 137.612526,
                    "velocity": 0.2992125984251969,
                    "duration": 0.46178699999998685
                },
                {
                    "name": "F4",
                    "midi": 65,
                    "time": 137.612526,
                    "velocity": 0.2992125984251969,
                    "duration": 0.46178699999998685
                },
                {
                    "name": "F#3",
                    "midi": 54,
                    "time": 138.074313,
                    "velocity": 0.2204724409448819,
                    "duration": 0.08658506250000642
                },
                {
                    "name": "A3",
                    "midi": 57,
                    "time": 138.074313,
                    "velocity": 0.2677165354330709,
                    "duration": 0.08658506250000642
                },
                {
                    "name": "C4",
                    "midi": 60,
                    "time": 138.074313,
                    "velocity": 0.2677165354330709,
                    "duration": 0.08658506250000642
                },
                {
                    "name": "D#4",
                    "midi": 63,
                    "time": 138.074313,
                    "velocity": 0.2677165354330709,
                    "duration": 0.08658506250000642
                },
                {
                    "name": "F#3",
                    "midi": 54,
                    "time": 138.3052065,
                    "velocity": 0.2283464566929134,
                    "duration": 0.08658506250000642
                },
                {
                    "name": "A3",
                    "midi": 57,
                    "time": 138.3052065,
                    "velocity": 0.2283464566929134,
                    "duration": 0.08658506250000642
                },
                {
                    "name": "C4",
                    "midi": 60,
                    "time": 138.3052065,
                    "velocity": 0.2755905511811024,
                    "duration": 0.08658506250000642
                },
                {
                    "name": "D#4",
                    "midi": 63,
                    "time": 138.3052065,
                    "velocity": 0.2755905511811024,
                    "duration": 0.08658506250000642
                },
                {
                    "name": "F3",
                    "midi": 53,
                    "time": 138.5361,
                    "velocity": 0.25196850393700787,
                    "duration": 0.46178699999998685
                },
                {
                    "name": "A#3",
                    "midi": 58,
                    "time": 138.5361,
                    "velocity": 0.2992125984251969,
                    "duration": 0.46178699999998685
                },
                {
                    "name": "C#4",
                    "midi": 61,
                    "time": 138.5361,
                    "velocity": 0.2992125984251969,
                    "duration": 0.46178699999998685
                },
                {
                    "name": "F3",
                    "midi": 53,
                    "time": 138.997887,
                    "velocity": 0.25196850393700787,
                    "duration": 0.46178699999998685
                },
                {
                    "name": "A#3",
                    "midi": 58,
                    "time": 138.997887,
                    "velocity": 0.2992125984251969,
                    "duration": 0.46178699999998685
                },
                {
                    "name": "C#4",
                    "midi": 61,
                    "time": 138.997887,
                    "velocity": 0.2992125984251969,
                    "duration": 0.46178699999998685
                },
                {
                    "name": "A#3",
                    "midi": 58,
                    "time": 139.92146099999997,
                    "velocity": 0.2992125984251969,
                    "duration": 0.46178699999998685
                },
                {
                    "name": "C#4",
                    "midi": 61,
                    "time": 139.92146099999997,
                    "velocity": 0.3543307086614173,
                    "duration": 0.46178699999998685
                },
                {
                    "name": "F#4",
                    "midi": 66,
                    "time": 139.92146099999997,
                    "velocity": 0.3543307086614173,
                    "duration": 0.46178699999998685
                },
                {
                    "name": "A#3",
                    "midi": 58,
                    "time": 140.38324799999995,
                    "velocity": 0.30708661417322836,
                    "duration": 0.46178699999998685
                },
                {
                    "name": "C#4",
                    "midi": 61,
                    "time": 140.38324799999995,
                    "velocity": 0.3700787401574803,
                    "duration": 0.46178699999998685
                },
                {
                    "name": "F#4",
                    "midi": 66,
                    "time": 140.38324799999995,
                    "velocity": 0.3700787401574803,
                    "duration": 0.46178699999998685
                },
                {
                    "name": "A#3",
                    "midi": 58,
                    "time": 140.84503499999994,
                    "velocity": 0.2992125984251969,
                    "duration": 0.08658506250000642
                },
                {
                    "name": "C#4",
                    "midi": 61,
                    "time": 140.84503499999994,
                    "velocity": 0.3543307086614173,
                    "duration": 0.08658506250000642
                },
                {
                    "name": "G#4",
                    "midi": 68,
                    "time": 140.84503499999994,
                    "velocity": 0.3543307086614173,
                    "duration": 0.08658506250000642
                },
                {
                    "name": "A#3",
                    "midi": 58,
                    "time": 141.07592849999995,
                    "velocity": 0.30708661417322836,
                    "duration": 0.08658506250000642
                },
                {
                    "name": "C#4",
                    "midi": 61,
                    "time": 141.07592849999995,
                    "velocity": 0.3700787401574803,
                    "duration": 0.08658506250000642
                },
                {
                    "name": "A#4",
                    "midi": 70,
                    "time": 141.07592849999995,
                    "velocity": 0.3700787401574803,
                    "duration": 0.08658506250000642
                },
                {
                    "name": "G#3",
                    "midi": 56,
                    "time": 141.30682199999995,
                    "velocity": 0.33858267716535434,
                    "duration": 0.46178699999998685
                },
                {
                    "name": "C4",
                    "midi": 60,
                    "time": 141.30682199999995,
                    "velocity": 0.4015748031496063,
                    "duration": 0.46178699999998685
                },
                {
                    "name": "F4",
                    "midi": 65,
                    "time": 141.30682199999995,
                    "velocity": 0.4015748031496063,
                    "duration": 0.46178699999998685
                },
                {
                    "name": "G#3",
                    "midi": 56,
                    "time": 141.76860899999994,
                    "velocity": 0.33070866141732286,
                    "duration": 0.46178699999998685
                },
                {
                    "name": "C4",
                    "midi": 60,
                    "time": 141.76860899999994,
                    "velocity": 0.3937007874015748,
                    "duration": 0.46178699999998685
                },
                {
                    "name": "F4",
                    "midi": 65,
                    "time": 141.76860899999994,
                    "velocity": 0.3937007874015748,
                    "duration": 0.46178699999998685
                },
                {
                    "name": "G3",
                    "midi": 55,
                    "time": 142.23039599999993,
                    "velocity": 0.30708661417322836,
                    "duration": 0.08658506250000642
                },
                {
                    "name": "C4",
                    "midi": 60,
                    "time": 142.23039599999993,
                    "velocity": 0.3700787401574803,
                    "duration": 0.08658506250000642
                },
                {
                    "name": "E4",
                    "midi": 64,
                    "time": 142.23039599999993,
                    "velocity": 0.3700787401574803,
                    "duration": 0.08658506250000642
                },
                {
                    "name": "G3",
                    "midi": 55,
                    "time": 142.46128949999994,
                    "velocity": 0.31496062992125984,
                    "duration": 0.08658506250000642
                },
                {
                    "name": "C4",
                    "midi": 60,
                    "time": 142.46128949999994,
                    "velocity": 0.3779527559055118,
                    "duration": 0.08658506250000642
                },
                {
                    "name": "E4",
                    "midi": 64,
                    "time": 142.46128949999994,
                    "velocity": 0.3779527559055118,
                    "duration": 0.08658506250000642
                },
                {
                    "name": "D#4",
                    "midi": 63,
                    "time": 142.69218299999994,
                    "velocity": 0.3543307086614173,
                    "duration": 0.46178699999998685
                },
                {
                    "name": "G#3",
                    "midi": 56,
                    "time": 142.69218299999994,
                    "velocity": 0.2992125984251969,
                    "duration": 0.46178699999998685
                },
                {
                    "name": "C4",
                    "midi": 60,
                    "time": 142.69218299999994,
                    "velocity": 0.3543307086614173,
                    "duration": 0.46178699999998685
                },
                {
                    "name": "G#3",
                    "midi": 56,
                    "time": 143.15396999999993,
                    "velocity": 0.2992125984251969,
                    "duration": 0.23089350000000763
                },
                {
                    "name": "C4",
                    "midi": 60,
                    "time": 143.15396999999993,
                    "velocity": 0.3543307086614173,
                    "duration": 0.23089350000000763
                },
                {
                    "name": "D#4",
                    "midi": 63,
                    "time": 143.15396999999993,
                    "velocity": 0.3543307086614173,
                    "duration": 0.46178700000001527
                },
                {
                    "name": "A#3",
                    "midi": 58,
                    "time": 143.38486349999994,
                    "velocity": 0.2440944881889764,
                    "duration": 0.23089350000000763
                },
                {
                    "name": "C#4",
                    "midi": 61,
                    "time": 143.38486349999994,
                    "velocity": 0.29133858267716534,
                    "duration": 0.23089350000000763
                },
                {
                    "name": "G3",
                    "midi": 55,
                    "time": 143.61575699999995,
                    "velocity": 0.2677165354330709,
                    "duration": 0.08658506250000642
                },
                {
                    "name": "A#3",
                    "midi": 58,
                    "time": 143.61575699999995,
                    "velocity": 0.3228346456692913,
                    "duration": 0.08658506250000642
                },
                {
                    "name": "D#4",
                    "midi": 63,
                    "time": 143.61575699999995,
                    "velocity": 0.3228346456692913,
                    "duration": 0.08658506250000642
                },
                {
                    "name": "G3",
                    "midi": 55,
                    "time": 143.84665049999995,
                    "velocity": 0.2755905511811024,
                    "duration": 0.08658506250000642
                },
                {
                    "name": "A#3",
                    "midi": 58,
                    "time": 143.84665049999995,
                    "velocity": 0.33070866141732286,
                    "duration": 0.08658506250000642
                },
                {
                    "name": "D#4",
                    "midi": 63,
                    "time": 143.84665049999995,
                    "velocity": 0.33070866141732286,
                    "duration": 0.08658506250000642
                },
                {
                    "name": "G#4",
                    "midi": 68,
                    "time": 144.07754399999996,
                    "velocity": 0.3543307086614173,
                    "duration": 0.46178699999998685
                },
                {
                    "name": "C4",
                    "midi": 60,
                    "time": 144.07754399999996,
                    "velocity": 0.2992125984251969,
                    "duration": 0.46178699999998685
                },
                {
                    "name": "D#4",
                    "midi": 63,
                    "time": 144.07754399999996,
                    "velocity": 0.3543307086614173,
                    "duration": 0.46178699999998685
                },
                {
                    "name": "C4",
                    "midi": 60,
                    "time": 144.53933099999995,
                    "velocity": 0.33070866141732286,
                    "duration": 0.46178700000001527
                },
                {
                    "name": "D#4",
                    "midi": 63,
                    "time": 144.53933099999995,
                    "velocity": 0.33070866141732286,
                    "duration": 0.46178700000001527
                },
                {
                    "name": "G#4",
                    "midi": 68,
                    "time": 144.53933099999995,
                    "velocity": 0.3937007874015748,
                    "duration": 0.23089350000000763
                },
                {
                    "name": "A4",
                    "midi": 69,
                    "time": 144.77022449999996,
                    "velocity": 0.3700787401574803,
                    "duration": 0.23089350000000763
                },
                {
                    "name": "C4",
                    "midi": 60,
                    "time": 145.00111799999996,
                    "velocity": 0.2677165354330709,
                    "duration": 0.08658506250000642
                },
                {
                    "name": "D#4",
                    "midi": 63,
                    "time": 145.00111799999996,
                    "velocity": 0.2677165354330709,
                    "duration": 0.08658506250000642
                },
                {
                    "name": "F4",
                    "midi": 65,
                    "time": 145.00111799999996,
                    "velocity": 0.3228346456692913,
                    "duration": 0.08658506250000642
                },
                {
                    "name": "C4",
                    "midi": 60,
                    "time": 145.23201149999997,
                    "velocity": 0.2755905511811024,
                    "duration": 0.08658506250000642
                },
                {
                    "name": "D#4",
                    "midi": 63,
                    "time": 145.23201149999997,
                    "velocity": 0.2755905511811024,
                    "duration": 0.08658506250000642
                },
                {
                    "name": "F4",
                    "midi": 65,
                    "time": 145.23201149999997,
                    "velocity": 0.33070866141732286,
                    "duration": 0.08658506250000642
                },
                {
                    "name": "F4",
                    "midi": 65,
                    "time": 145.46290499999998,
                    "velocity": 0.3543307086614173,
                    "duration": 0.46178699999998685
                },
                {
                    "name": "C#5",
                    "midi": 73,
                    "time": 145.46290499999998,
                    "velocity": 0.3543307086614173,
                    "duration": 0.46178699999998685
                },
                {
                    "name": "F4",
                    "midi": 65,
                    "time": 145.92469199999996,
                    "velocity": 0.3543307086614173,
                    "duration": 0.46178699999998685
                },
                {
                    "name": "C#5",
                    "midi": 73,
                    "time": 145.92469199999996,
                    "velocity": 0.3543307086614173,
                    "duration": 0.46178699999998685
                },
                {
                    "name": "D#4",
                    "midi": 63,
                    "time": 146.38647899999995,
                    "velocity": 0.2677165354330709,
                    "duration": 0.08658506250000642
                },
                {
                    "name": "F4",
                    "midi": 65,
                    "time": 146.38647899999995,
                    "velocity": 0.3228346456692913,
                    "duration": 0.08658506250000642
                },
                {
                    "name": "C5",
                    "midi": 72,
                    "time": 146.38647899999995,
                    "velocity": 0.3228346456692913,
                    "duration": 0.08658506250000642
                },
                {
                    "name": "C#4",
                    "midi": 61,
                    "time": 146.61737249999996,
                    "velocity": 0.2755905511811024,
                    "duration": 0.08658506250000642
                },
                {
                    "name": "F4",
                    "midi": 65,
                    "time": 146.61737249999996,
                    "velocity": 0.33070866141732286,
                    "duration": 0.08658506250000642
                },
                {
                    "name": "A#4",
                    "midi": 70,
                    "time": 146.61737249999996,
                    "velocity": 0.33070866141732286,
                    "duration": 0.08658506250000642
                },
                {
                    "name": "F4",
                    "midi": 65,
                    "time": 146.84826599999997,
                    "velocity": 0.3543307086614173,
                    "duration": 0.46178699999998685
                },
                {
                    "name": "C4",
                    "midi": 60,
                    "time": 146.84826599999997,
                    "velocity": 0.2992125984251969,
                    "duration": 0.46178699999998685
                },
                {
                    "name": "A4",
                    "midi": 69,
                    "time": 146.84826599999997,
                    "velocity": 0.3543307086614173,
                    "duration": 0.46178699999998685
                },
                {
                    "name": "F4",
                    "midi": 65,
                    "time": 147.31005299999995,
                    "velocity": 0.3543307086614173,
                    "duration": 0.46178699999998685
                },
                {
                    "name": "C4",
                    "midi": 60,
                    "time": 147.31005299999995,
                    "velocity": 0.2992125984251969,
                    "duration": 0.46178699999998685
                },
                {
                    "name": "A4",
                    "midi": 69,
                    "time": 147.31005299999995,
                    "velocity": 0.3543307086614173,
                    "duration": 0.46178699999998685
                },
                {
                    "name": "C#4",
                    "midi": 61,
                    "time": 147.77183999999994,
                    "velocity": 0.2677165354330709,
                    "duration": 0.08658506250000642
                },
                {
                    "name": "F4",
                    "midi": 65,
                    "time": 147.77183999999994,
                    "velocity": 0.3228346456692913,
                    "duration": 0.08658506250000642
                },
                {
                    "name": "A#4",
                    "midi": 70,
                    "time": 147.77183999999994,
                    "velocity": 0.3228346456692913,
                    "duration": 0.08658506250000642
                },
                {
                    "name": "D#4",
                    "midi": 63,
                    "time": 148.00273349999995,
                    "velocity": 0.2755905511811024,
                    "duration": 0.08658506250000642
                },
                {
                    "name": "F4",
                    "midi": 65,
                    "time": 148.00273349999995,
                    "velocity": 0.33070866141732286,
                    "duration": 0.08658506250000642
                },
                {
                    "name": "C5",
                    "midi": 72,
                    "time": 148.00273349999995,
                    "velocity": 0.33070866141732286,
                    "duration": 0.08658506250000642
                },
                {
                    "name": "C#4",
                    "midi": 61,
                    "time": 148.23362699999996,
                    "velocity": 0.3543307086614173,
                    "duration": 0.46178699999998685
                },
                {
                    "name": "F4",
                    "midi": 65,
                    "time": 148.23362699999996,
                    "velocity": 0.3543307086614173,
                    "duration": 0.46178699999998685
                },
                {
                    "name": "C#4",
                    "midi": 61,
                    "time": 148.69541399999994,
                    "velocity": 0.3543307086614173,
                    "duration": 0.46178699999998685
                },
                {
                    "name": "F4",
                    "midi": 65,
                    "time": 148.69541399999994,
                    "velocity": 0.3543307086614173,
                    "duration": 0.46178699999998685
                },
                {
                    "name": "C4",
                    "midi": 60,
                    "time": 149.15720099999993,
                    "velocity": 0.2677165354330709,
                    "duration": 0.08658506250000642
                },
                {
                    "name": "D#4",
                    "midi": 63,
                    "time": 149.15720099999993,
                    "velocity": 0.3228346456692913,
                    "duration": 0.08658506250000642
                },
                {
                    "name": "F4",
                    "midi": 65,
                    "time": 149.15720099999993,
                    "velocity": 0.3228346456692913,
                    "duration": 0.08658506250000642
                },
                {
                    "name": "A#3",
                    "midi": 58,
                    "time": 149.38809449999994,
                    "velocity": 0.2755905511811024,
                    "duration": 0.08658506250000642
                },
                {
                    "name": "C#4",
                    "midi": 61,
                    "time": 149.38809449999994,
                    "velocity": 0.33070866141732286,
                    "duration": 0.08658506250000642
                },
                {
                    "name": "F4",
                    "midi": 65,
                    "time": 149.38809449999994,
                    "velocity": 0.33070866141732286,
                    "duration": 0.08658506250000642
                },
                {
                    "name": "G#3",
                    "midi": 56,
                    "time": 149.61898799999994,
                    "velocity": 0.25196850393700787,
                    "duration": 0.46178699999998685
                },
                {
                    "name": "C#4",
                    "midi": 61,
                    "time": 149.61898799999994,
                    "velocity": 0.2992125984251969,
                    "duration": 0.46178699999998685
                },
                {
                    "name": "F4",
                    "midi": 65,
                    "time": 149.61898799999994,
                    "velocity": 0.2992125984251969,
                    "duration": 0.46178699999998685
                },
                {
                    "name": "G#3",
                    "midi": 56,
                    "time": 150.08077499999993,
                    "velocity": 0.25196850393700787,
                    "duration": 0.46178699999998685
                },
                {
                    "name": "C#4",
                    "midi": 61,
                    "time": 150.08077499999993,
                    "velocity": 0.2992125984251969,
                    "duration": 0.46178699999998685
                },
                {
                    "name": "F4",
                    "midi": 65,
                    "time": 150.08077499999993,
                    "velocity": 0.2992125984251969,
                    "duration": 0.46178699999998685
                },
                {
                    "name": "F#3",
                    "midi": 54,
                    "time": 150.54256199999992,
                    "velocity": 0.2204724409448819,
                    "duration": 0.08658506250000642
                },
                {
                    "name": "A3",
                    "midi": 57,
                    "time": 150.54256199999992,
                    "velocity": 0.2204724409448819,
                    "duration": 0.08658506250000642
                },
                {
                    "name": "C4",
                    "midi": 60,
                    "time": 150.54256199999992,
                    "velocity": 0.2677165354330709,
                    "duration": 0.08658506250000642
                },
                {
                    "name": "D#4",
                    "midi": 63,
                    "time": 150.54256199999992,
                    "velocity": 0.2677165354330709,
                    "duration": 0.08658506250000642
                },
                {
                    "name": "F#3",
                    "midi": 54,
                    "time": 150.77345549999993,
                    "velocity": 0.2283464566929134,
                    "duration": 0.08658506250000642
                },
                {
                    "name": "A3",
                    "midi": 57,
                    "time": 150.77345549999993,
                    "velocity": 0.2283464566929134,
                    "duration": 0.08658506250000642
                },
                {
                    "name": "C4",
                    "midi": 60,
                    "time": 150.77345549999993,
                    "velocity": 0.2755905511811024,
                    "duration": 0.08658506250000642
                },
                {
                    "name": "D#4",
                    "midi": 63,
                    "time": 150.77345549999993,
                    "velocity": 0.2755905511811024,
                    "duration": 0.08658506250000642
                },
                {
                    "name": "F3",
                    "midi": 53,
                    "time": 151.00434899999993,
                    "velocity": 0.25196850393700787,
                    "duration": 0.46178699999998685
                },
                {
                    "name": "A#3",
                    "midi": 58,
                    "time": 151.00434899999993,
                    "velocity": 0.2992125984251969,
                    "duration": 0.46178699999998685
                },
                {
                    "name": "C#4",
                    "midi": 61,
                    "time": 151.00434899999993,
                    "velocity": 0.2992125984251969,
                    "duration": 0.46178699999998685
                },
                {
                    "name": "F3",
                    "midi": 53,
                    "time": 151.46613599999992,
                    "velocity": 0.25196850393700787,
                    "duration": 0.46178699999998685
                },
                {
                    "name": "A#3",
                    "midi": 58,
                    "time": 151.46613599999992,
                    "velocity": 0.2992125984251969,
                    "duration": 0.46178699999998685
                },
                {
                    "name": "C#4",
                    "midi": 61,
                    "time": 151.46613599999992,
                    "velocity": 0.2992125984251969,
                    "duration": 0.46178699999998685
                },
                {
                    "name": "A#5",
                    "midi": 82,
                    "time": 152.3897099999999,
                    "velocity": 0.4251968503937008,
                    "duration": 0.23089350000000763
                },
                {
                    "name": "A5",
                    "midi": 81,
                    "time": 152.6206034999999,
                    "velocity": 0.3700787401574803,
                    "duration": 0.23089350000000763
                },
                {
                    "name": "A#5",
                    "midi": 82,
                    "time": 152.8514969999999,
                    "velocity": 0.3700787401574803,
                    "duration": 0.23089350000000763
                },
                {
                    "name": "G5",
                    "midi": 79,
                    "time": 153.08239049999992,
                    "velocity": 0.4015748031496063,
                    "duration": 0.23089350000000763
                },
                {
                    "name": "A5",
                    "midi": 81,
                    "time": 153.31328399999992,
                    "velocity": 0.36220472440944884,
                    "duration": 0.1154467499999896
                },
                {
                    "name": "A#5",
                    "midi": 82,
                    "time": 153.42873074999991,
                    "velocity": 0.3700787401574803,
                    "duration": 0.1154467499999896
                },
                {
                    "name": "C6",
                    "midi": 84,
                    "time": 153.5441774999999,
                    "velocity": 0.3858267716535433,
                    "duration": 0.1154467499999896
                },
                {
                    "name": "D6",
                    "midi": 86,
                    "time": 153.6596242499999,
                    "velocity": 0.3937007874015748,
                    "duration": 0.1154467499999896
                },
                {
                    "name": "A#5",
                    "midi": 82,
                    "time": 153.77507099999988,
                    "velocity": 0.41732283464566927,
                    "duration": 0.23089350000000763
                },
                {
                    "name": "C6",
                    "midi": 84,
                    "time": 154.0059644999999,
                    "velocity": 0.4251968503937008,
                    "duration": 0.1154467499999896
                },
                {
                    "name": "A#5",
                    "midi": 82,
                    "time": 154.12141124999988,
                    "velocity": 0.3700787401574803,
                    "duration": 0.1154467499999896
                },
                {
                    "name": "A5",
                    "midi": 81,
                    "time": 154.23685799999987,
                    "velocity": 0.4015748031496063,
                    "duration": 0.1154467499999896
                },
                {
                    "name": "G5",
                    "midi": 79,
                    "time": 154.35230474999986,
                    "velocity": 0.3700787401574803,
                    "duration": 0.1154467499999896
                },
                {
                    "name": "F5",
                    "midi": 77,
                    "time": 154.46775149999985,
                    "velocity": 0.4409448818897638,
                    "duration": 0.0577233749999948
                },
                {
                    "name": "F5",
                    "midi": 77,
                    "time": 154.69864499999986,
                    "velocity": 0.4015748031496063,
                    "duration": 0.0577233749999948
                },
                {
                    "name": "F5",
                    "midi": 77,
                    "time": 154.92953849999986,
                    "velocity": 0.3937007874015748,
                    "duration": 0.0577233749999948
                },
                {
                    "name": "F#5",
                    "midi": 78,
                    "time": 155.16043199999987,
                    "velocity": 0.48031496062992124,
                    "duration": 0.23089350000000763
                },
                {
                    "name": "F#6",
                    "midi": 90,
                    "time": 155.39132549999988,
                    "velocity": 0.44881889763779526,
                    "duration": 0.23089350000000763
                },
                {
                    "name": "F#6",
                    "midi": 90,
                    "time": 155.6222189999999,
                    "velocity": 0.44881889763779526,
                    "duration": 0.0577233749999948
                },
                {
                    "name": "G6",
                    "midi": 91,
                    "time": 155.8531124999999,
                    "velocity": 0.5118110236220472,
                    "duration": 0.23089350000000763
                },
                {
                    "name": "G5",
                    "midi": 79,
                    "time": 156.0840059999999,
                    "velocity": 0.4015748031496063,
                    "duration": 0.23089350000000763
                },
                {
                    "name": "G5",
                    "midi": 79,
                    "time": 156.3148994999999,
                    "velocity": 0.4015748031496063,
                    "duration": 0.0577233749999948
                },
                {
                    "name": "A5",
                    "midi": 81,
                    "time": 156.54579299999992,
                    "velocity": 0.41732283464566927,
                    "duration": 0.0577233749999948
                },
                {
                    "name": "A#6",
                    "midi": 94,
                    "time": 156.7478248124999,
                    "velocity": 0.3543307086614173,
                    "duration": 0.028861687500011612
                },
                {
                    "name": "A6",
                    "midi": 93,
                    "time": 156.77668649999993,
                    "velocity": 0.4094488188976378,
                    "duration": 0.1154467499999896
                },
                {
                    "name": "G6",
                    "midi": 91,
                    "time": 156.89213324999992,
                    "velocity": 0.4015748031496063,
                    "duration": 0.1154467499999896
                },
                {
                    "name": "A6",
                    "midi": 93,
                    "time": 157.0075799999999,
                    "velocity": 0.4094488188976378,
                    "duration": 0.23089350000000763
                },
                {
                    "name": "A#6",
                    "midi": 94,
                    "time": 157.2384734999999,
                    "velocity": 0.4251968503937008,
                    "duration": 0.0577233749999948
                },
                {
                    "name": "C6",
                    "midi": 84,
                    "time": 157.4405053124999,
                    "velocity": 0.3543307086614173,
                    "duration": 0.028861687500011612
                },
                {
                    "name": "A#5",
                    "midi": 82,
                    "time": 157.46936699999992,
                    "velocity": 0.4015748031496063,
                    "duration": 0.1154467499999896
                },
                {
                    "name": "A5",
                    "midi": 81,
                    "time": 157.5848137499999,
                    "velocity": 0.3700787401574803,
                    "duration": 0.1154467499999896
                },
                {
                    "name": "A#5",
                    "midi": 82,
                    "time": 157.7002604999999,
                    "velocity": 0.4015748031496063,
                    "duration": 0.1154467499999896
                },
                {
                    "name": "A#4",
                    "midi": 70,
                    "time": 157.93115399999988,
                    "velocity": 0.2677165354330709,
                    "duration": 0.1154467499999896
                },
                {
                    "name": "D5",
                    "midi": 74,
                    "time": 157.93115399999988,
                    "velocity": 0.31496062992125984,
                    "duration": 0.1154467499999896
                },
                {
                    "name": "F5",
                    "midi": 77,
                    "time": 158.04660074999987,
                    "velocity": 0.2755905511811024,
                    "duration": 0.1154467499999896
                },
                {
                    "name": "A#4",
                    "midi": 70,
                    "time": 158.16204749999986,
                    "velocity": 0.2677165354330709,
                    "duration": 0.1154467499999896
                },
                {
                    "name": "D5",
                    "midi": 74,
                    "time": 158.16204749999986,
                    "velocity": 0.3228346456692913,
                    "duration": 0.1154467499999896
                },
                {
                    "name": "F5",
                    "midi": 77,
                    "time": 158.27749424999985,
                    "velocity": 0.2677165354330709,
                    "duration": 0.1154467499999896
                },
                {
                    "name": "A#4",
                    "midi": 70,
                    "time": 158.39294099999984,
                    "velocity": 0.2677165354330709,
                    "duration": 0.1154467499999896
                },
                {
                    "name": "D5",
                    "midi": 74,
                    "time": 158.39294099999984,
                    "velocity": 0.3228346456692913,
                    "duration": 0.1154467499999896
                },
                {
                    "name": "F5",
                    "midi": 77,
                    "time": 158.50838774999983,
                    "velocity": 0.2755905511811024,
                    "duration": 0.1154467499999896
                },
                {
                    "name": "A#4",
                    "midi": 70,
                    "time": 158.62383449999982,
                    "velocity": 0.2755905511811024,
                    "duration": 0.1154467499999896
                },
                {
                    "name": "D5",
                    "midi": 74,
                    "time": 158.62383449999982,
                    "velocity": 0.33070866141732286,
                    "duration": 0.1154467499999896
                },
                {
                    "name": "G5",
                    "midi": 79,
                    "time": 158.7392812499998,
                    "velocity": 0.2755905511811024,
                    "duration": 0.1154467499999896
                },
                {
                    "name": "A#4",
                    "midi": 70,
                    "time": 158.8547279999998,
                    "velocity": 0.2677165354330709,
                    "duration": 0.1154467499999896
                },
                {
                    "name": "D5",
                    "midi": 74,
                    "time": 158.8547279999998,
                    "velocity": 0.3228346456692913,
                    "duration": 0.1154467499999896
                },
                {
                    "name": "G5",
                    "midi": 79,
                    "time": 158.97017474999979,
                    "velocity": 0.2677165354330709,
                    "duration": 0.1154467499999896
                },
                {
                    "name": "A#4",
                    "midi": 70,
                    "time": 159.08562149999977,
                    "velocity": 0.2677165354330709,
                    "duration": 0.1154467499999896
                },
                {
                    "name": "D5",
                    "midi": 74,
                    "time": 159.08562149999977,
                    "velocity": 0.3228346456692913,
                    "duration": 0.1154467499999896
                },
                {
                    "name": "G5",
                    "midi": 79,
                    "time": 159.20106824999976,
                    "velocity": 0.2677165354330709,
                    "duration": 0.1154467499999896
                },
                {
                    "name": "A#4",
                    "midi": 70,
                    "time": 159.31651499999975,
                    "velocity": 0.29133858267716534,
                    "duration": 0.1154467499999896
                },
                {
                    "name": "D5",
                    "midi": 74,
                    "time": 159.31651499999975,
                    "velocity": 0.3464566929133858,
                    "duration": 0.1154467499999896
                },
                {
                    "name": "F5",
                    "midi": 77,
                    "time": 159.43196174999974,
                    "velocity": 0.2755905511811024,
                    "duration": 0.1154467499999896
                },
                {
                    "name": "D5",
                    "midi": 74,
                    "time": 159.54740849999973,
                    "velocity": 0.3228346456692913,
                    "duration": 0.1154467499999896
                },
                {
                    "name": "A#4",
                    "midi": 70,
                    "time": 159.54740849999973,
                    "velocity": 0.2677165354330709,
                    "duration": 0.1154467499999896
                },
                {
                    "name": "F5",
                    "midi": 77,
                    "time": 159.66285524999972,
                    "velocity": 0.2677165354330709,
                    "duration": 0.1154467499999896
                },
                {
                    "name": "A#4",
                    "midi": 70,
                    "time": 159.7783019999997,
                    "velocity": 0.2677165354330709,
                    "duration": 0.1154467499999896
                },
                {
                    "name": "D5",
                    "midi": 74,
                    "time": 159.7783019999997,
                    "velocity": 0.3228346456692913,
                    "duration": 0.1154467499999896
                },
                {
                    "name": "F5",
                    "midi": 77,
                    "time": 159.8937487499997,
                    "velocity": 0.2677165354330709,
                    "duration": 0.1154467499999896
                },
                {
                    "name": "A4",
                    "midi": 69,
                    "time": 160.0091954999997,
                    "velocity": 0.30708661417322836,
                    "duration": 0.1154467499999896
                },
                {
                    "name": "D#5",
                    "midi": 75,
                    "time": 160.0091954999997,
                    "velocity": 0.3700787401574803,
                    "duration": 0.1154467499999896
                },
                {
                    "name": "F5",
                    "midi": 77,
                    "time": 160.12464224999968,
                    "velocity": 0.2755905511811024,
                    "duration": 0.1154467499999896
                },
                {
                    "name": "A4",
                    "midi": 69,
                    "time": 160.24008899999967,
                    "velocity": 0.2677165354330709,
                    "duration": 0.1154467499999896
                },
                {
                    "name": "D#5",
                    "midi": 75,
                    "time": 160.24008899999967,
                    "velocity": 0.3228346456692913,
                    "duration": 0.1154467499999896
                },
                {
                    "name": "F5",
                    "midi": 77,
                    "time": 160.35553574999966,
                    "velocity": 0.29133858267716534,
                    "duration": 0.1154467499999896
                },
                {
                    "name": "A4",
                    "midi": 69,
                    "time": 160.47098249999965,
                    "velocity": 0.2677165354330709,
                    "duration": 0.1154467499999896
                },
                {
                    "name": "D#5",
                    "midi": 75,
                    "time": 160.47098249999965,
                    "velocity": 0.3228346456692913,
                    "duration": 0.1154467499999896
                },
                {
                    "name": "F5",
                    "midi": 77,
                    "time": 160.58642924999964,
                    "velocity": 0.2755905511811024,
                    "duration": 0.1154467499999896
                },
                {
                    "name": "A4",
                    "midi": 69,
                    "time": 160.70187599999963,
                    "velocity": 0.2992125984251969,
                    "duration": 0.1154467499999896
                },
                {
                    "name": "D#5",
                    "midi": 75,
                    "time": 160.70187599999963,
                    "velocity": 0.3543307086614173,
                    "duration": 0.1154467499999896
                },
                {
                    "name": "A5",
                    "midi": 81,
                    "time": 160.81732274999962,
                    "velocity": 0.2755905511811024,
                    "duration": 0.1154467499999896
                },
                {
                    "name": "A4",
                    "midi": 69,
                    "time": 160.9327694999996,
                    "velocity": 0.2677165354330709,
                    "duration": 0.1154467499999896
                },
                {
                    "name": "D#5",
                    "midi": 75,
                    "time": 160.9327694999996,
                    "velocity": 0.3228346456692913,
                    "duration": 0.1154467499999896
                },
                {
                    "name": "A5",
                    "midi": 81,
                    "time": 161.0482162499996,
                    "velocity": 0.2755905511811024,
                    "duration": 0.1154467499999896
                },
                {
                    "name": "A4",
                    "midi": 69,
                    "time": 161.1636629999996,
                    "velocity": 0.2677165354330709,
                    "duration": 0.1154467499999896
                },
                {
                    "name": "D#5",
                    "midi": 75,
                    "time": 161.1636629999996,
                    "velocity": 0.3228346456692913,
                    "duration": 0.1154467499999896
                },
                {
                    "name": "A5",
                    "midi": 81,
                    "time": 161.27910974999958,
                    "velocity": 0.2755905511811024,
                    "duration": 0.1154467499999896
                },
                {
                    "name": "A#4",
                    "midi": 70,
                    "time": 161.39455649999957,
                    "velocity": 0.29133858267716534,
                    "duration": 0.1154467499999896
                },
                {
                    "name": "D#5",
                    "midi": 75,
                    "time": 161.39455649999957,
                    "velocity": 0.3464566929133858,
                    "duration": 0.1154467499999896
                },
                {
                    "name": "A#5",
                    "midi": 82,
                    "time": 161.51000324999956,
                    "velocity": 0.2755905511811024,
                    "duration": 0.1154467499999896
                },
                {
                    "name": "A#4",
                    "midi": 70,
                    "time": 161.62544999999955,
                    "velocity": 0.2677165354330709,
                    "duration": 0.1154467499999896
                },
                {
                    "name": "D#5",
                    "midi": 75,
                    "time": 161.62544999999955,
                    "velocity": 0.3228346456692913,
                    "duration": 0.1154467499999896
                },
                {
                    "name": "A5",
                    "midi": 81,
                    "time": 161.74089674999954,
                    "velocity": 0.2755905511811024,
                    "duration": 0.1154467499999896
                },
                {
                    "name": "A#4",
                    "midi": 70,
                    "time": 161.85634349999953,
                    "velocity": 0.2677165354330709,
                    "duration": 0.1154467499999896
                },
                {
                    "name": "D#5",
                    "midi": 75,
                    "time": 161.85634349999953,
                    "velocity": 0.3228346456692913,
                    "duration": 0.1154467499999896
                },
                {
                    "name": "G5",
                    "midi": 79,
                    "time": 161.97179024999951,
                    "velocity": 0.2755905511811024,
                    "duration": 0.1154467499999896
                },
                {
                    "name": "G#4",
                    "midi": 68,
                    "time": 162.0872369999995,
                    "velocity": 0.2677165354330709,
                    "duration": 0.1154467499999896
                },
                {
                    "name": "D5",
                    "midi": 74,
                    "time": 162.0872369999995,
                    "velocity": 0.3228346456692913,
                    "duration": 0.1154467499999896
                },
                {
                    "name": "F5",
                    "midi": 77,
                    "time": 162.2026837499995,
                    "velocity": 0.2755905511811024,
                    "duration": 0.1154467499999896
                },
                {
                    "name": "G#4",
                    "midi": 68,
                    "time": 162.31813049999948,
                    "velocity": 0.2677165354330709,
                    "duration": 0.1154467499999896
                },
                {
                    "name": "D5",
                    "midi": 74,
                    "time": 162.31813049999948,
                    "velocity": 0.3228346456692913,
                    "duration": 0.1154467499999896
                },
                {
                    "name": "F5",
                    "midi": 77,
                    "time": 162.43357724999947,
                    "velocity": 0.2755905511811024,
                    "duration": 0.1154467499999896
                },
                {
                    "name": "G#4",
                    "midi": 68,
                    "time": 162.54902399999946,
                    "velocity": 0.2677165354330709,
                    "duration": 0.1154467499999896
                },
                {
                    "name": "D5",
                    "midi": 74,
                    "time": 162.54902399999946,
                    "velocity": 0.3228346456692913,
                    "duration": 0.1154467499999896
                },
                {
                    "name": "F5",
                    "midi": 77,
                    "time": 162.66447074999945,
                    "velocity": 0.2755905511811024,
                    "duration": 0.1154467499999896
                },
                {
                    "name": "G4",
                    "midi": 67,
                    "time": 162.77991749999944,
                    "velocity": 0.2677165354330709,
                    "duration": 0.1154467499999896
                },
                {
                    "name": "D#5",
                    "midi": 75,
                    "time": 162.77991749999944,
                    "velocity": 0.3228346456692913,
                    "duration": 0.1154467499999896
                },
                {
                    "name": "G5",
                    "midi": 79,
                    "time": 162.89536424999943,
                    "velocity": 0.2755905511811024,
                    "duration": 0.1154467499999896
                },
                {
                    "name": "G4",
                    "midi": 67,
                    "time": 163.01081099999942,
                    "velocity": 0.2677165354330709,
                    "duration": 0.1154467499999896
                },
                {
                    "name": "D#5",
                    "midi": 75,
                    "time": 163.01081099999942,
                    "velocity": 0.3228346456692913,
                    "duration": 0.1154467499999896
                },
                {
                    "name": "G5",
                    "midi": 79,
                    "time": 163.1262577499994,
                    "velocity": 0.2755905511811024,
                    "duration": 0.1154467499999896
                },
                {
                    "name": "G4",
                    "midi": 67,
                    "time": 163.2417044999994,
                    "velocity": 0.2677165354330709,
                    "duration": 0.1154467499999896
                },
                {
                    "name": "D#5",
                    "midi": 75,
                    "time": 163.2417044999994,
                    "velocity": 0.3228346456692913,
                    "duration": 0.1154467499999896
                },
                {
                    "name": "A#5",
                    "midi": 82,
                    "time": 163.47259799999938,
                    "velocity": 0.4409448818897638,
                    "duration": 0.0577233749999948
                },
                {
                    "name": "G#5",
                    "midi": 80,
                    "time": 163.64576812499936,
                    "velocity": 0.3700787401574803,
                    "duration": 0.0577233749999948
                },
                {
                    "name": "G5",
                    "midi": 79,
                    "time": 163.70349149999936,
                    "velocity": 0.4409448818897638,
                    "duration": 0.1154467499999896
                },
                {
                    "name": "F5",
                    "midi": 77,
                    "time": 163.81893824999935,
                    "velocity": 0.4094488188976378,
                    "duration": 0.1154467499999896
                },
                {
                    "name": "G5",
                    "midi": 79,
                    "time": 163.93438499999934,
                    "velocity": 0.4409448818897638,
                    "duration": 0.23089350000000763
                },
                {
                    "name": "A#5",
                    "midi": 82,
                    "time": 164.16527849999935,
                    "velocity": 0.4409448818897638,
                    "duration": 0.0577233749999948
                },
                {
                    "name": "G5",
                    "midi": 79,
                    "time": 164.33844862499933,
                    "velocity": 0.3779527559055118,
                    "duration": 0.0577233749999948
                },
                {
                    "name": "F5",
                    "midi": 77,
                    "time": 164.39617199999932,
                    "velocity": 0.4409448818897638,
                    "duration": 0.1154467499999896
                },
                {
                    "name": "E5",
                    "midi": 76,
                    "time": 164.51161874999931,
                    "velocity": 0.4094488188976378,
                    "duration": 0.1154467499999896
                },
                {
                    "name": "F5",
                    "midi": 77,
                    "time": 164.6270654999993,
                    "velocity": 0.4409448818897638,
                    "duration": 0.23089350000000763
                },
                {
                    "name": "C6",
                    "midi": 84,
                    "time": 164.8579589999993,
                    "velocity": 0.4566929133858268,
                    "duration": 0.23089350000000763
                },
                {
                    "name": "A#5",
                    "midi": 82,
                    "time": 165.08885249999932,
                    "velocity": 0.4645669291338583,
                    "duration": 0.1154467499999896
                },
                {
                    "name": "G#5",
                    "midi": 80,
                    "time": 165.2042992499993,
                    "velocity": 0.4251968503937008,
                    "duration": 0.1154467499999896
                },
                {
                    "name": "G5",
                    "midi": 79,
                    "time": 165.3197459999993,
                    "velocity": 0.4566929133858268,
                    "duration": 0.1154467499999896
                },
                {
                    "name": "F5",
                    "midi": 77,
                    "time": 165.4351927499993,
                    "velocity": 0.4566929133858268,
                    "duration": 0.1154467499999896
                },
                {
                    "name": "C6",
                    "midi": 84,
                    "time": 165.55063949999928,
                    "velocity": 0.4566929133858268,
                    "duration": 0.23089350000000763
                },
                {
                    "name": "C5",
                    "midi": 72,
                    "time": 165.78153299999929,
                    "velocity": 0.4409448818897638,
                    "duration": 0.23089350000000763
                },
                {
                    "name": "C5",
                    "midi": 72,
                    "time": 166.0124264999993,
                    "velocity": 0.4409448818897638,
                    "duration": 0.23089350000000763
                },
                {
                    "name": "G#4",
                    "midi": 68,
                    "time": 166.2433199999993,
                    "velocity": 0.29133858267716534,
                    "duration": 0.1154467499999896
                },
                {
                    "name": "C5",
                    "midi": 72,
                    "time": 166.2433199999993,
                    "velocity": 0.3464566929133858,
                    "duration": 0.1154467499999896
                },
                {
                    "name": "D#5",
                    "midi": 75,
                    "time": 166.3587667499993,
                    "velocity": 0.30708661417322836,
                    "duration": 0.1154467499999896
                },
                {
                    "name": "G#4",
                    "midi": 68,
                    "time": 166.47421349999928,
                    "velocity": 0.2992125984251969,
                    "duration": 0.1154467499999896
                },
                {
                    "name": "C5",
                    "midi": 72,
                    "time": 166.47421349999928,
                    "velocity": 0.3543307086614173,
                    "duration": 0.1154467499999896
                },
                {
                    "name": "D#5",
                    "midi": 75,
                    "time": 166.58966024999927,
                    "velocity": 0.2992125984251969,
                    "duration": 0.1154467499999896
                },
                {
                    "name": "G#4",
                    "midi": 68,
                    "time": 166.70510699999926,
                    "velocity": 0.2992125984251969,
                    "duration": 0.1154467499999896
                },
                {
                    "name": "C5",
                    "midi": 72,
                    "time": 166.70510699999926,
                    "velocity": 0.3543307086614173,
                    "duration": 0.1154467499999896
                },
                {
                    "name": "D#5",
                    "midi": 75,
                    "time": 166.82055374999925,
                    "velocity": 0.30708661417322836,
                    "duration": 0.1154467499999896
                },
                {
                    "name": "G#4",
                    "midi": 68,
                    "time": 166.93600049999924,
                    "velocity": 0.29133858267716534,
                    "duration": 0.1154467499999896
                },
                {
                    "name": "F5",
                    "midi": 77,
                    "time": 166.93600049999924,
                    "velocity": 0.3464566929133858,
                    "duration": 0.1154467499999896
                },
                {
                    "name": "G#5",
                    "midi": 80,
                    "time": 167.05144724999923,
                    "velocity": 0.30708661417322836,
                    "duration": 0.1154467499999896
                },
                {
                    "name": "G#4",
                    "midi": 68,
                    "time": 167.16689399999922,
                    "velocity": 0.30708661417322836,
                    "duration": 0.1154467499999896
                },
                {
                    "name": "F5",
                    "midi": 77,
                    "time": 167.16689399999922,
                    "velocity": 0.3700787401574803,
                    "duration": 0.1154467499999896
                },
                {
                    "name": "G#5",
                    "midi": 80,
                    "time": 167.2823407499992,
                    "velocity": 0.30708661417322836,
                    "duration": 0.1154467499999896
                },
                {
                    "name": "G#4",
                    "midi": 68,
                    "time": 167.3977874999992,
                    "velocity": 0.3228346456692913,
                    "duration": 0.1154467499999896
                },
                {
                    "name": "F5",
                    "midi": 77,
                    "time": 167.3977874999992,
                    "velocity": 0.3858267716535433,
                    "duration": 0.1154467499999896
                },
                {
                    "name": "G#5",
                    "midi": 80,
                    "time": 167.5132342499992,
                    "velocity": 0.33858267716535434,
                    "duration": 0.1154467499999896
                },
                {
                    "name": "G#4",
                    "midi": 68,
                    "time": 167.62868099999918,
                    "velocity": 0.29133858267716534,
                    "duration": 0.1154467499999896
                },
                {
                    "name": "C5",
                    "midi": 72,
                    "time": 167.62868099999918,
                    "velocity": 0.3464566929133858,
                    "duration": 0.1154467499999896
                },
                {
                    "name": "D#5",
                    "midi": 75,
                    "time": 167.74412774999917,
                    "velocity": 0.2992125984251969,
                    "duration": 0.1154467499999896
                },
                {
                    "name": "G#4",
                    "midi": 68,
                    "time": 167.85957449999916,
                    "velocity": 0.2755905511811024,
                    "duration": 0.1154467499999896
                },
                {
                    "name": "C5",
                    "midi": 72,
                    "time": 167.85957449999916,
                    "velocity": 0.33070866141732286,
                    "duration": 0.1154467499999896
                },
                {
                    "name": "D#5",
                    "midi": 75,
                    "time": 167.97502124999914,
                    "velocity": 0.2677165354330709,
                    "duration": 0.1154467499999896
                },
                {
                    "name": "G#4",
                    "midi": 68,
                    "time": 168.09046799999913,
                    "velocity": 0.2677165354330709,
                    "duration": 0.1154467499999896
                },
                {
                    "name": "C5",
                    "midi": 72,
                    "time": 168.09046799999913,
                    "velocity": 0.31496062992125984,
                    "duration": 0.1154467499999896
                },
                {
                    "name": "D#5",
                    "midi": 75,
                    "time": 168.20591474999912,
                    "velocity": 0.25984251968503935,
                    "duration": 0.1154467499999896
                },
                {
                    "name": "G4",
                    "midi": 67,
                    "time": 168.3213614999991,
                    "velocity": 0.2440944881889764,
                    "duration": 0.1154467499999896
                },
                {
                    "name": "C#5",
                    "midi": 73,
                    "time": 168.3213614999991,
                    "velocity": 0.29133858267716534,
                    "duration": 0.1154467499999896
                },
                {
                    "name": "D#5",
                    "midi": 75,
                    "time": 168.4368082499991,
                    "velocity": 0.25196850393700787,
                    "duration": 0.1154467499999896
                },
                {
                    "name": "G4",
                    "midi": 67,
                    "time": 168.5522549999991,
                    "velocity": 0.2440944881889764,
                    "duration": 0.1154467499999896
                },
                {
                    "name": "C#5",
                    "midi": 73,
                    "time": 168.5522549999991,
                    "velocity": 0.2992125984251969,
                    "duration": 0.1154467499999896
                },
                {
                    "name": "D#5",
                    "midi": 75,
                    "time": 168.66770174999908,
                    "velocity": 0.2440944881889764,
                    "duration": 0.1154467499999896
                },
                {
                    "name": "G4",
                    "midi": 67,
                    "time": 168.78314849999907,
                    "velocity": 0.2440944881889764,
                    "duration": 0.1154467499999896
                },
                {
                    "name": "C#5",
                    "midi": 73,
                    "time": 168.78314849999907,
                    "velocity": 0.2992125984251969,
                    "duration": 0.1154467499999896
                },
                {
                    "name": "D#5",
                    "midi": 75,
                    "time": 168.89859524999906,
                    "velocity": 0.25196850393700787,
                    "duration": 0.1154467499999896
                },
                {
                    "name": "G#4",
                    "midi": 68,
                    "time": 169.01404199999905,
                    "velocity": 0.3700787401574803,
                    "duration": 0.0577233749999948
                },
                {
                    "name": "C5",
                    "midi": 72,
                    "time": 169.01404199999905,
                    "velocity": 0.3700787401574803,
                    "duration": 0.0577233749999948
                },
                {
                    "name": "D#5",
                    "midi": 75,
                    "time": 169.01404199999905,
                    "velocity": 0.4409448818897638,
                    "duration": 0.0577233749999948
                },
                {
                    "name": "C#5",
                    "midi": 73,
                    "time": 169.18721212499904,
                    "velocity": 0.3858267716535433,
                    "duration": 0.0577233749999948
                },
                {
                    "name": "C5",
                    "midi": 72,
                    "time": 169.24493549999903,
                    "velocity": 0.4409448818897638,
                    "duration": 0.1154467499999896
                },
                {
                    "name": "A#4",
                    "midi": 70,
                    "time": 169.36038224999902,
                    "velocity": 0.4094488188976378,
                    "duration": 0.1154467499999896
                },
                {
                    "name": "C5",
                    "midi": 72,
                    "time": 169.475828999999,
                    "velocity": 0.4409448818897638,
                    "duration": 0.23089350000000763
                },
                {
                    "name": "D#5",
                    "midi": 75,
                    "time": 169.70672249999902,
                    "velocity": 0.4409448818897638,
                    "duration": 0.0577233749999948
                },
                {
                    "name": "C5",
                    "midi": 72,
                    "time": 169.879892624999,
                    "velocity": 0.3858267716535433,
                    "duration": 0.0577233749999948
                },
                {
                    "name": "A#4",
                    "midi": 70,
                    "time": 169.937615999999,
                    "velocity": 0.4409448818897638,
                    "duration": 0.1154467499999896
                },
                {
                    "name": "A4",
                    "midi": 69,
                    "time": 170.053062749999,
                    "velocity": 0.4094488188976378,
                    "duration": 0.1154467499999896
                },
                {
                    "name": "A#4",
                    "midi": 70,
                    "time": 170.16850949999898,
                    "velocity": 0.4409448818897638,
                    "duration": 0.23089350000000763
                },
                {
                    "name": "F5",
                    "midi": 77,
                    "time": 170.39940299999898,
                    "velocity": 0.4566929133858268,
                    "duration": 0.23089350000000763
                },
                {
                    "name": "D#5",
                    "midi": 75,
                    "time": 170.630296499999,
                    "velocity": 0.4645669291338583,
                    "duration": 0.1154467499999896
                },
                {
                    "name": "C#5",
                    "midi": 73,
                    "time": 170.74574324999898,
                    "velocity": 0.4251968503937008,
                    "duration": 0.1154467499999896
                },
                {
                    "name": "C5",
                    "midi": 72,
                    "time": 170.86118999999897,
                    "velocity": 0.4566929133858268,
                    "duration": 0.1154467499999896
                },
                {
                    "name": "A#4",
                    "midi": 70,
                    "time": 170.97663674999896,
                    "velocity": 0.4566929133858268,
                    "duration": 0.1154467499999896
                },
                {
                    "name": "F5",
                    "midi": 77,
                    "time": 171.09208349999895,
                    "velocity": 0.4566929133858268,
                    "duration": 0.23089350000000763
                },
                {
                    "name": "F4",
                    "midi": 65,
                    "time": 171.32297699999896,
                    "velocity": 0.4409448818897638,
                    "duration": 0.23089350000000763
                },
                {
                    "name": "F4",
                    "midi": 65,
                    "time": 171.55387049999896,
                    "velocity": 0.4409448818897638,
                    "duration": 0.23089350000000763
                },
                {
                    "name": "C#5",
                    "midi": 73,
                    "time": 171.78476399999897,
                    "velocity": 0.29133858267716534,
                    "duration": 0.1154467499999896
                },
                {
                    "name": "F5",
                    "midi": 77,
                    "time": 171.78476399999897,
                    "velocity": 0.3464566929133858,
                    "duration": 0.1154467499999896
                },
                {
                    "name": "G#5",
                    "midi": 80,
                    "time": 171.90021074999896,
                    "velocity": 0.30708661417322836,
                    "duration": 0.1154467499999896
                },
                {
                    "name": "C#5",
                    "midi": 73,
                    "time": 172.01565749999895,
                    "velocity": 0.2992125984251969,
                    "duration": 0.1154467499999896
                },
                {
                    "name": "F5",
                    "midi": 77,
                    "time": 172.01565749999895,
                    "velocity": 0.3543307086614173,
                    "duration": 0.1154467499999896
                },
                {
                    "name": "G#5",
                    "midi": 80,
                    "time": 172.13110424999894,
                    "velocity": 0.2992125984251969,
                    "duration": 0.1154467499999896
                },
                {
                    "name": "C#5",
                    "midi": 73,
                    "time": 172.24655099999893,
                    "velocity": 0.2992125984251969,
                    "duration": 0.1154467499999896
                },
                {
                    "name": "F5",
                    "midi": 77,
                    "time": 172.24655099999893,
                    "velocity": 0.3543307086614173,
                    "duration": 0.1154467499999896
                },
                {
                    "name": "G#5",
                    "midi": 80,
                    "time": 172.36199774999892,
                    "velocity": 0.30708661417322836,
                    "duration": 0.1154467499999896
                },
                {
                    "name": "C#5",
                    "midi": 73,
                    "time": 172.4774444999989,
                    "velocity": 0.29133858267716534,
                    "duration": 0.1154467499999896
                },
                {
                    "name": "A#5",
                    "midi": 82,
                    "time": 172.4774444999989,
                    "velocity": 0.3464566929133858,
                    "duration": 0.1154467499999896
                },
                {
                    "name": "C#6",
                    "midi": 85,
                    "time": 172.5928912499989,
                    "velocity": 0.30708661417322836,
                    "duration": 0.1154467499999896
                },
                {
                    "name": "C#5",
                    "midi": 73,
                    "time": 172.7083379999989,
                    "velocity": 0.30708661417322836,
                    "duration": 0.1154467499999896
                },
                {
                    "name": "A#5",
                    "midi": 82,
                    "time": 172.7083379999989,
                    "velocity": 0.3700787401574803,
                    "duration": 0.1154467499999896
                },
                {
                    "name": "C#6",
                    "midi": 85,
                    "time": 172.82378474999888,
                    "velocity": 0.30708661417322836,
                    "duration": 0.1154467499999896
                },
                {
                    "name": "C#5",
                    "midi": 73,
                    "time": 172.93923149999887,
                    "velocity": 0.3228346456692913,
                    "duration": 0.1154467499999896
                },
                {
                    "name": "A#5",
                    "midi": 82,
                    "time": 172.93923149999887,
                    "velocity": 0.3858267716535433,
                    "duration": 0.1154467499999896
                },
                {
                    "name": "C#6",
                    "midi": 85,
                    "time": 173.05467824999886,
                    "velocity": 0.33858267716535434,
                    "duration": 0.1154467499999896
                },
                {
                    "name": "C#5",
                    "midi": 73,
                    "time": 173.17012499999885,
                    "velocity": 0.29133858267716534,
                    "duration": 0.1154467499999896
                },
                {
                    "name": "F5",
                    "midi": 77,
                    "time": 173.17012499999885,
                    "velocity": 0.3464566929133858,
                    "duration": 0.1154467499999896
                },
                {
                    "name": "G#5",
                    "midi": 80,
                    "time": 173.28557174999884,
                    "velocity": 0.2992125984251969,
                    "duration": 0.1154467499999896
                },
                {
                    "name": "C#5",
                    "midi": 73,
                    "time": 173.40101849999883,
                    "velocity": 0.2755905511811024,
                    "duration": 0.1154467499999896
                },
                {
                    "name": "F5",
                    "midi": 77,
                    "time": 173.40101849999883,
                    "velocity": 0.33070866141732286,
                    "duration": 0.1154467499999896
                },
                {
                    "name": "G#5",
                    "midi": 80,
                    "time": 173.51646524999882,
                    "velocity": 0.2677165354330709,
                    "duration": 0.1154467499999896
                },
                {
                    "name": "C#5",
                    "midi": 73,
                    "time": 173.6319119999988,
                    "velocity": 0.2677165354330709,
                    "duration": 0.1154467499999896
                },
                {
                    "name": "F5",
                    "midi": 77,
                    "time": 173.6319119999988,
                    "velocity": 0.31496062992125984,
                    "duration": 0.1154467499999896
                },
                {
                    "name": "G#5",
                    "midi": 80,
                    "time": 173.7473587499988,
                    "velocity": 0.25984251968503935,
                    "duration": 0.1154467499999896
                },
                {
                    "name": "C5",
                    "midi": 72,
                    "time": 173.86280549999879,
                    "velocity": 0.2440944881889764,
                    "duration": 0.1154467499999896
                },
                {
                    "name": "F#5",
                    "midi": 78,
                    "time": 173.86280549999879,
                    "velocity": 0.29133858267716534,
                    "duration": 0.1154467499999896
                },
                {
                    "name": "G#5",
                    "midi": 80,
                    "time": 173.97825224999877,
                    "velocity": 0.25196850393700787,
                    "duration": 0.1154467499999896
                },
                {
                    "name": "C5",
                    "midi": 72,
                    "time": 174.09369899999876,
                    "velocity": 0.2440944881889764,
                    "duration": 0.1154467499999896
                },
                {
                    "name": "F#5",
                    "midi": 78,
                    "time": 174.09369899999876,
                    "velocity": 0.2992125984251969,
                    "duration": 0.1154467499999896
                },
                {
                    "name": "G#5",
                    "midi": 80,
                    "time": 174.20914574999875,
                    "velocity": 0.2440944881889764,
                    "duration": 0.1154467499999896
                },
                {
                    "name": "C5",
                    "midi": 72,
                    "time": 174.32459249999874,
                    "velocity": 0.2440944881889764,
                    "duration": 0.1154467499999896
                },
                {
                    "name": "F#5",
                    "midi": 78,
                    "time": 174.32459249999874,
                    "velocity": 0.2992125984251969,
                    "duration": 0.1154467499999896
                },
                {
                    "name": "G#5",
                    "midi": 80,
                    "time": 174.44003924999873,
                    "velocity": 0.25196850393700787,
                    "duration": 0.1154467499999896
                },
                {
                    "name": "C#5",
                    "midi": 73,
                    "time": 174.55548599999872,
                    "velocity": 0.2440944881889764,
                    "duration": 0.23089350000000763
                },
                {
                    "name": "F5",
                    "midi": 77,
                    "time": 174.55548599999872,
                    "velocity": 0.2440944881889764,
                    "duration": 0.23089350000000763
                },
                {
                    "name": "G#5",
                    "midi": 80,
                    "time": 174.55548599999872,
                    "velocity": 0.29133858267716534,
                    "duration": 0.23089350000000763
                },
                {
                    "name": "C#5",
                    "midi": 73,
                    "time": 175.88312362499872,
                    "velocity": 0.31496062992125984,
                    "duration": 0.17317012500001283
                },
                {
                    "name": "F5",
                    "midi": 77,
                    "time": 175.91198531249873,
                    "velocity": 0.31496062992125984,
                    "duration": 0.14430843750000122
                },
                {
                    "name": "G#5",
                    "midi": 80,
                    "time": 175.94084699999874,
                    "velocity": 0.4015748031496063,
                    "duration": 0.1154467499999896
                },
                {
                    "name": "F#5",
                    "midi": 78,
                    "time": 176.17174049999872,
                    "velocity": 0.31496062992125984,
                    "duration": 0.1154467499999896
                },
                {
                    "name": "F5",
                    "midi": 77,
                    "time": 176.2871872499987,
                    "velocity": 0.31496062992125984,
                    "duration": 0.1154467499999896
                },
                {
                    "name": "D#5",
                    "midi": 75,
                    "time": 176.4026339999987,
                    "velocity": 0.31496062992125984,
                    "duration": 0.1154467499999896
                },
                {
                    "name": "C#5",
                    "midi": 73,
                    "time": 176.5180807499987,
                    "velocity": 0.31496062992125984,
                    "duration": 0.11544675000001803
                },
                {
                    "name": "G#4",
                    "midi": 68,
                    "time": 176.57580412499868,
                    "velocity": 0.31496062992125984,
                    "duration": 0.17317012500001283
                },
                {
                    "name": "C5",
                    "midi": 72,
                    "time": 176.6046658124987,
                    "velocity": 0.31496062992125984,
                    "duration": 0.14430843750000122
                },
                {
                    "name": "D#5",
                    "midi": 75,
                    "time": 176.6335274999987,
                    "velocity": 0.3858267716535433,
                    "duration": 0.1154467499999896
                },
                {
                    "name": "C#5",
                    "midi": 73,
                    "time": 176.86442099999869,
                    "velocity": 0.31496062992125984,
                    "duration": 0.1154467499999896
                },
                {
                    "name": "C5",
                    "midi": 72,
                    "time": 176.97986774999868,
                    "velocity": 0.31496062992125984,
                    "duration": 0.1154467499999896
                },
                {
                    "name": "A#4",
                    "midi": 70,
                    "time": 177.09531449999866,
                    "velocity": 0.31496062992125984,
                    "duration": 0.1154467499999896
                },
                {
                    "name": "G#4",
                    "midi": 68,
                    "time": 177.21076124999865,
                    "velocity": 0.31496062992125984,
                    "duration": 0.11544675000001803
                },
                {
                    "name": "C#5",
                    "midi": 73,
                    "time": 177.26848462499865,
                    "velocity": 0.31496062992125984,
                    "duration": 0.17317012500001283
                },
                {
                    "name": "F5",
                    "midi": 77,
                    "time": 177.29734631249866,
                    "velocity": 0.31496062992125984,
                    "duration": 0.14430843750000122
                },
                {
                    "name": "G#5",
                    "midi": 80,
                    "time": 177.32620799999867,
                    "velocity": 0.41732283464566927,
                    "duration": 0.1154467499999896
                },
                {
                    "name": "F#5",
                    "midi": 78,
                    "time": 177.55710149999865,
                    "velocity": 0.33070866141732286,
                    "duration": 0.1154467499999896
                },
                {
                    "name": "F5",
                    "midi": 77,
                    "time": 177.67254824999864,
                    "velocity": 0.3543307086614173,
                    "duration": 0.1154467499999896
                },
                {
                    "name": "D#5",
                    "midi": 75,
                    "time": 177.78799499999863,
                    "velocity": 0.3700787401574803,
                    "duration": 0.1154467499999896
                },
                {
                    "name": "C#5",
                    "midi": 73,
                    "time": 177.90344174999862,
                    "velocity": 0.4015748031496063,
                    "duration": 0.1154467499999896
                },
                {
                    "name": "C#6",
                    "midi": 85,
                    "time": 178.0188884999986,
                    "velocity": 0.44881889763779526,
                    "duration": 0.0577233749999948
                },
                {
                    "name": "A#5",
                    "midi": 82,
                    "time": 178.0188884999986,
                    "velocity": 0.44881889763779526,
                    "duration": 0.0577233749999948
                },
                {
                    "name": "F#5",
                    "midi": 78,
                    "time": 178.0188884999986,
                    "velocity": 0.44881889763779526,
                    "duration": 0.0577233749999948
                },
                {
                    "name": "F#5",
                    "midi": 78,
                    "time": 178.24978199999862,
                    "velocity": 0.4015748031496063,
                    "duration": 0.0577233749999948
                },
                {
                    "name": "A#5",
                    "midi": 82,
                    "time": 178.24978199999862,
                    "velocity": 0.4015748031496063,
                    "duration": 0.0577233749999948
                },
                {
                    "name": "C#6",
                    "midi": 85,
                    "time": 178.24978199999862,
                    "velocity": 0.4015748031496063,
                    "duration": 0.0577233749999948
                },
                {
                    "name": "F#5",
                    "midi": 78,
                    "time": 178.48067549999863,
                    "velocity": 0.4015748031496063,
                    "duration": 0.0577233749999948
                },
                {
                    "name": "A#5",
                    "midi": 82,
                    "time": 178.48067549999863,
                    "velocity": 0.4015748031496063,
                    "duration": 0.0577233749999948
                },
                {
                    "name": "C#6",
                    "midi": 85,
                    "time": 178.48067549999863,
                    "velocity": 0.4015748031496063,
                    "duration": 0.0577233749999948
                },
                {
                    "name": "F4",
                    "midi": 65,
                    "time": 180.09692999999862,
                    "velocity": 0.3858267716535433,
                    "duration": 0.23089350000000763
                },
                {
                    "name": "G#4",
                    "midi": 68,
                    "time": 180.27010012499863,
                    "velocity": 0.2677165354330709,
                    "duration": 0.0577233749999948
                },
                {
                    "name": "F#4",
                    "midi": 66,
                    "time": 180.32782349999863,
                    "velocity": 0.3228346456692913,
                    "duration": 0.23089350000000763
                },
                {
                    "name": "F4",
                    "midi": 65,
                    "time": 180.55871699999864,
                    "velocity": 0.3228346456692913,
                    "duration": 0.23089350000000763
                },
                {
                    "name": "D#4",
                    "midi": 63,
                    "time": 180.78961049999864,
                    "velocity": 0.3779527559055118,
                    "duration": 0.23089350000000763
                },
                {
                    "name": "F4",
                    "midi": 65,
                    "time": 181.02050399999865,
                    "velocity": 0.3228346456692913,
                    "duration": 0.1154467499999896
                },
                {
                    "name": "F#4",
                    "midi": 66,
                    "time": 181.13595074999864,
                    "velocity": 0.3228346456692913,
                    "duration": 0.1154467499999896
                },
                {
                    "name": "G#4",
                    "midi": 68,
                    "time": 181.25139749999863,
                    "velocity": 0.33858267716535434,
                    "duration": 0.1154467499999896
                },
                {
                    "name": "A#4",
                    "midi": 70,
                    "time": 181.36684424999862,
                    "velocity": 0.3464566929133858,
                    "duration": 0.1154467499999896
                },
                {
                    "name": "C5",
                    "midi": 72,
                    "time": 181.4822909999986,
                    "velocity": 0.4094488188976378,
                    "duration": 0.23089350000000763
                },
                {
                    "name": "A#4",
                    "midi": 70,
                    "time": 181.71318449999862,
                    "velocity": 0.3937007874015748,
                    "duration": 0.1154467499999896
                },
                {
                    "name": "C5",
                    "midi": 72,
                    "time": 181.8286312499986,
                    "velocity": 0.36220472440944884,
                    "duration": 0.1154467499999896
                },
                {
                    "name": "C#5",
                    "midi": 73,
                    "time": 181.9440779999986,
                    "velocity": 0.3779527559055118,
                    "duration": 0.1154467499999896
                },
                {
                    "name": "D#5",
                    "midi": 75,
                    "time": 182.0595247499986,
                    "velocity": 0.3937007874015748,
                    "duration": 0.1154467499999896
                },
                {
                    "name": "F5",
                    "midi": 77,
                    "time": 182.17497149999858,
                    "velocity": 0.41732283464566927,
                    "duration": 0.0577233749999948
                },
                {
                    "name": "F5",
                    "midi": 77,
                    "time": 182.40586499999858,
                    "velocity": 0.3543307086614173,
                    "duration": 0.0577233749999948
                },
                {
                    "name": "F5",
                    "midi": 77,
                    "time": 182.6367584999986,
                    "velocity": 0.3464566929133858,
                    "duration": 0.0577233749999948
                },
                {
                    "name": "C#5",
                    "midi": 73,
                    "time": 184.1952896249986,
                    "velocity": 0.31496062992125984,
                    "duration": 0.17317012500001283
                },
                {
                    "name": "F5",
                    "midi": 77,
                    "time": 184.2241513124986,
                    "velocity": 0.31496062992125984,
                    "duration": 0.14430843750000122
                },
                {
                    "name": "G#5",
                    "midi": 80,
                    "time": 184.25301299999862,
                    "velocity": 0.4015748031496063,
                    "duration": 0.1154467499999896
                },
                {
                    "name": "F#5",
                    "midi": 78,
                    "time": 184.4839064999986,
                    "velocity": 0.31496062992125984,
                    "duration": 0.1154467499999896
                },
                {
                    "name": "F5",
                    "midi": 77,
                    "time": 184.5993532499986,
                    "velocity": 0.31496062992125984,
                    "duration": 0.1154467499999896
                },
                {
                    "name": "D#5",
                    "midi": 75,
                    "time": 184.71479999999858,
                    "velocity": 0.31496062992125984,
                    "duration": 0.1154467499999896
                },
                {
                    "name": "C#5",
                    "midi": 73,
                    "time": 184.83024674999857,
                    "velocity": 0.31496062992125984,
                    "duration": 0.11544675000001803
                },
                {
                    "name": "G#4",
                    "midi": 68,
                    "time": 184.88797012499856,
                    "velocity": 0.31496062992125984,
                    "duration": 0.17317012500001283
                },
                {
                    "name": "C5",
                    "midi": 72,
                    "time": 184.91683181249857,
                    "velocity": 0.31496062992125984,
                    "duration": 0.14430843750000122
                },
                {
                    "name": "D#5",
                    "midi": 75,
                    "time": 184.94569349999858,
                    "velocity": 0.3858267716535433,
                    "duration": 0.1154467499999896
                },
                {
                    "name": "C#5",
                    "midi": 73,
                    "time": 185.17658699999856,
                    "velocity": 0.31496062992125984,
                    "duration": 0.1154467499999896
                },
                {
                    "name": "C5",
                    "midi": 72,
                    "time": 185.29203374999855,
                    "velocity": 0.31496062992125984,
                    "duration": 0.1154467499999896
                },
                {
                    "name": "A#4",
                    "midi": 70,
                    "time": 185.40748049999854,
                    "velocity": 0.31496062992125984,
                    "duration": 0.1154467499999896
                },
                {
                    "name": "G#4",
                    "midi": 68,
                    "time": 185.52292724999853,
                    "velocity": 0.31496062992125984,
                    "duration": 0.11544675000001803
                },
                {
                    "name": "C#5",
                    "midi": 73,
                    "time": 185.58065062499853,
                    "velocity": 0.31496062992125984,
                    "duration": 0.17317012500001283
                },
                {
                    "name": "F5",
                    "midi": 77,
                    "time": 185.60951231249854,
                    "velocity": 0.31496062992125984,
                    "duration": 0.14430843750000122
                },
                {
                    "name": "G#5",
                    "midi": 80,
                    "time": 185.63837399999855,
                    "velocity": 0.41732283464566927,
                    "duration": 0.1154467499999896
                },
                {
                    "name": "F#5",
                    "midi": 78,
                    "time": 185.86926749999853,
                    "velocity": 0.33070866141732286,
                    "duration": 0.1154467499999896
                },
                {
                    "name": "F5",
                    "midi": 77,
                    "time": 185.98471424999852,
                    "velocity": 0.3543307086614173,
                    "duration": 0.1154467499999896
                },
                {
                    "name": "D#5",
                    "midi": 75,
                    "time": 186.1001609999985,
                    "velocity": 0.3700787401574803,
                    "duration": 0.1154467499999896
                },
                {
                    "name": "C#5",
                    "midi": 73,
                    "time": 186.2156077499985,
                    "velocity": 0.4015748031496063,
                    "duration": 0.1154467499999896
                },
                {
                    "name": "C#6",
                    "midi": 85,
                    "time": 186.3310544999985,
                    "velocity": 0.44881889763779526,
                    "duration": 0.0577233749999948
                },
                {
                    "name": "A5",
                    "midi": 81,
                    "time": 186.3310544999985,
                    "velocity": 0.44881889763779526,
                    "duration": 0.0577233749999948
                },
                {
                    "name": "F#5",
                    "midi": 78,
                    "time": 186.3310544999985,
                    "velocity": 0.44881889763779526,
                    "duration": 0.0577233749999948
                },
                {
                    "name": "F#5",
                    "midi": 78,
                    "time": 186.5619479999985,
                    "velocity": 0.4015748031496063,
                    "duration": 0.0577233749999948
                },
                {
                    "name": "A5",
                    "midi": 81,
                    "time": 186.5619479999985,
                    "velocity": 0.4015748031496063,
                    "duration": 0.0577233749999948
                },
                {
                    "name": "C#6",
                    "midi": 85,
                    "time": 186.5619479999985,
                    "velocity": 0.4015748031496063,
                    "duration": 0.0577233749999948
                },
                {
                    "name": "F#5",
                    "midi": 78,
                    "time": 186.7928414999985,
                    "velocity": 0.4015748031496063,
                    "duration": 0.0577233749999948
                },
                {
                    "name": "A5",
                    "midi": 81,
                    "time": 186.7928414999985,
                    "velocity": 0.4015748031496063,
                    "duration": 0.0577233749999948
                },
                {
                    "name": "C#6",
                    "midi": 85,
                    "time": 186.7928414999985,
                    "velocity": 0.4015748031496063,
                    "duration": 0.0577233749999948
                },
                {
                    "name": "C#5",
                    "midi": 73,
                    "time": 188.4090959999985,
                    "velocity": 0.41732283464566927,
                    "duration": 0.23089350000000763
                },
                {
                    "name": "E5",
                    "midi": 76,
                    "time": 188.5822661249985,
                    "velocity": 0.2992125984251969,
                    "duration": 0.0577233749999948
                },
                {
                    "name": "D5",
                    "midi": 74,
                    "time": 188.6399894999985,
                    "velocity": 0.3543307086614173,
                    "duration": 0.23089350000000763
                },
                {
                    "name": "C#5",
                    "midi": 73,
                    "time": 188.8708829999985,
                    "velocity": 0.3543307086614173,
                    "duration": 0.23089350000000763
                },
                {
                    "name": "B4",
                    "midi": 71,
                    "time": 189.10177649999852,
                    "velocity": 0.4094488188976378,
                    "duration": 0.23089350000000763
                },
                {
                    "name": "C#5",
                    "midi": 73,
                    "time": 189.33266999999853,
                    "velocity": 0.3543307086614173,
                    "duration": 0.1154467499999896
                },
                {
                    "name": "D5",
                    "midi": 74,
                    "time": 189.44811674999852,
                    "velocity": 0.3543307086614173,
                    "duration": 0.1154467499999896
                },
                {
                    "name": "E5",
                    "midi": 76,
                    "time": 189.5635634999985,
                    "velocity": 0.3700787401574803,
                    "duration": 0.1154467499999896
                },
                {
                    "name": "F#5",
                    "midi": 78,
                    "time": 189.6790102499985,
                    "velocity": 0.3779527559055118,
                    "duration": 0.1154467499999896
                },
                {
                    "name": "G#5",
                    "midi": 80,
                    "time": 189.7944569999985,
                    "velocity": 0.4094488188976378,
                    "duration": 0.23089350000000763
                },
                {
                    "name": "F#5",
                    "midi": 78,
                    "time": 190.0253504999985,
                    "velocity": 0.41732283464566927,
                    "duration": 0.1154467499999896
                },
                {
                    "name": "G#5",
                    "midi": 80,
                    "time": 190.14079724999849,
                    "velocity": 0.33858267716535434,
                    "duration": 0.1154467499999896
                },
                {
                    "name": "A5",
                    "midi": 81,
                    "time": 190.25624399999847,
                    "velocity": 0.36220472440944884,
                    "duration": 0.1154467499999896
                },
                {
                    "name": "B5",
                    "midi": 83,
                    "time": 190.37169074999846,
                    "velocity": 0.3858267716535433,
                    "duration": 0.1154467499999896
                },
                {
                    "name": "C#6",
                    "midi": 85,
                    "time": 190.48713749999845,
                    "velocity": 0.4094488188976378,
                    "duration": 0.0577233749999948
                },
                {
                    "name": "C#6",
                    "midi": 85,
                    "time": 190.71803099999846,
                    "velocity": 0.3858267716535433,
                    "duration": 0.0577233749999948
                },
                {
                    "name": "C#6",
                    "midi": 85,
                    "time": 190.94892449999847,
                    "velocity": 0.3779527559055118,
                    "duration": 0.0577233749999948
                },
                {
                    "name": "C#5",
                    "midi": 73,
                    "time": 191.87249849999847,
                    "velocity": 0.41732283464566927,
                    "duration": 0.0577233749999948
                },
                {
                    "name": "C#5",
                    "midi": 73,
                    "time": 192.10339199999848,
                    "velocity": 0.3543307086614173,
                    "duration": 0.0577233749999948
                },
                {
                    "name": "C#5",
                    "midi": 73,
                    "time": 192.3342854999985,
                    "velocity": 0.3543307086614173,
                    "duration": 0.0577233749999948
                },
                {
                    "name": "C#5",
                    "midi": 73,
                    "time": 192.5651789999985,
                    "velocity": 0.4094488188976378,
                    "duration": 0.23089350000000763
                },
                {
                    "name": "E5",
                    "midi": 76,
                    "time": 192.7960724999985,
                    "velocity": 0.3543307086614173,
                    "duration": 0.1154467499999896
                },
                {
                    "name": "D5",
                    "midi": 74,
                    "time": 192.9115192499985,
                    "velocity": 0.3543307086614173,
                    "duration": 0.1154467499999896
                },
                {
                    "name": "C#5",
                    "midi": 73,
                    "time": 193.02696599999848,
                    "velocity": 0.3700787401574803,
                    "duration": 0.1154467499999896
                },
                {
                    "name": "E5",
                    "midi": 76,
                    "time": 193.14241274999847,
                    "velocity": 0.3779527559055118,
                    "duration": 0.1154467499999896
                },
                {
                    "name": "D5",
                    "midi": 74,
                    "time": 193.25785949999846,
                    "velocity": 0.4094488188976378,
                    "duration": 0.0577233749999948
                },
                {
                    "name": "D5",
                    "midi": 74,
                    "time": 193.48875299999847,
                    "velocity": 0.4094488188976378,
                    "duration": 0.0577233749999948
                },
                {
                    "name": "D5",
                    "midi": 74,
                    "time": 193.71964649999848,
                    "velocity": 0.4015748031496063,
                    "duration": 0.0577233749999948
                },
                {
                    "name": "D6",
                    "midi": 86,
                    "time": 193.95053999999848,
                    "velocity": 0.4094488188976378,
                    "duration": 0.0577233749999948
                },
                {
                    "name": "D6",
                    "midi": 86,
                    "time": 194.1814334999985,
                    "velocity": 0.3858267716535433,
                    "duration": 0.0577233749999948
                },
                {
                    "name": "D6",
                    "midi": 86,
                    "time": 194.4123269999985,
                    "velocity": 0.3779527559055118,
                    "duration": 0.0577233749999948
                },
                {
                    "name": "D5",
                    "midi": 74,
                    "time": 195.3359009999985,
                    "velocity": 0.41732283464566927,
                    "duration": 0.0577233749999948
                },
                {
                    "name": "D5",
                    "midi": 74,
                    "time": 195.5667944999985,
                    "velocity": 0.3543307086614173,
                    "duration": 0.0577233749999948
                },
                {
                    "name": "D5",
                    "midi": 74,
                    "time": 195.79768799999852,
                    "velocity": 0.3543307086614173,
                    "duration": 0.0577233749999948
                },
                {
                    "name": "D5",
                    "midi": 74,
                    "time": 196.02858149999852,
                    "velocity": 0.4094488188976378,
                    "duration": 0.23089350000000763
                },
                {
                    "name": "F5",
                    "midi": 77,
                    "time": 196.25947499999853,
                    "velocity": 0.3543307086614173,
                    "duration": 0.1154467499999896
                },
                {
                    "name": "E5",
                    "midi": 76,
                    "time": 196.37492174999852,
                    "velocity": 0.3543307086614173,
                    "duration": 0.1154467499999896
                },
                {
                    "name": "D5",
                    "midi": 74,
                    "time": 196.4903684999985,
                    "velocity": 0.3700787401574803,
                    "duration": 0.1154467499999896
                },
                {
                    "name": "F5",
                    "midi": 77,
                    "time": 196.6058152499985,
                    "velocity": 0.3779527559055118,
                    "duration": 0.1154467499999896
                },
                {
                    "name": "D5",
                    "midi": 74,
                    "time": 196.7212619999985,
                    "velocity": 0.4094488188976378,
                    "duration": 0.0577233749999948
                },
                {
                    "name": "D5",
                    "midi": 74,
                    "time": 196.9521554999985,
                    "velocity": 0.4094488188976378,
                    "duration": 0.0577233749999948
                },
                {
                    "name": "D5",
                    "midi": 74,
                    "time": 197.1830489999985,
                    "velocity": 0.4094488188976378,
                    "duration": 0.0577233749999948
                },
                {
                    "name": "D6",
                    "midi": 86,
                    "time": 197.4139424999985,
                    "velocity": 0.4094488188976378,
                    "duration": 0.0577233749999948
                },
                {
                    "name": "D6",
                    "midi": 86,
                    "time": 197.64483599999852,
                    "velocity": 0.3858267716535433,
                    "duration": 0.0577233749999948
                },
                {
                    "name": "D6",
                    "midi": 86,
                    "time": 197.87572949999853,
                    "velocity": 0.3779527559055118,
                    "duration": 0.0577233749999948
                },
                {
                    "name": "D5",
                    "midi": 74,
                    "time": 198.10662299999854,
                    "velocity": 0.4409448818897638,
                    "duration": 0.23089350000000763
                },
                {
                    "name": "C#5",
                    "midi": 73,
                    "time": 198.33751649999854,
                    "velocity": 0.4094488188976378,
                    "duration": 0.23089350000000763
                },
                {
                    "name": "D5",
                    "midi": 74,
                    "time": 198.56840999999855,
                    "velocity": 0.4094488188976378,
                    "duration": 0.23089350000000763
                },
                {
                    "name": "D6",
                    "midi": 86,
                    "time": 198.79930349999856,
                    "velocity": 0.4409448818897638,
                    "duration": 0.23089350000000763
                },
                {
                    "name": "C#6",
                    "midi": 85,
                    "time": 199.03019699999857,
                    "velocity": 0.4094488188976378,
                    "duration": 0.23089350000000763
                },
                {
                    "name": "D6",
                    "midi": 86,
                    "time": 199.26109049999857,
                    "velocity": 0.4094488188976378,
                    "duration": 0.23089350000000763
                },
                {
                    "name": "A#5",
                    "midi": 82,
                    "time": 199.49198399999858,
                    "velocity": 0.4251968503937008,
                    "duration": 0.23089350000000763
                },
                {
                    "name": "A5",
                    "midi": 81,
                    "time": 199.7228774999986,
                    "velocity": 0.3700787401574803,
                    "duration": 0.23089350000000763
                },
                {
                    "name": "A#5",
                    "midi": 82,
                    "time": 199.9537709999986,
                    "velocity": 0.3779527559055118,
                    "duration": 0.23089350000000763
                },
                {
                    "name": "G5",
                    "midi": 79,
                    "time": 200.1846644999986,
                    "velocity": 0.4015748031496063,
                    "duration": 0.23089350000000763
                },
                {
                    "name": "A5",
                    "midi": 81,
                    "time": 200.4155579999986,
                    "velocity": 0.3779527559055118,
                    "duration": 0.1154467499999896
                },
                {
                    "name": "A#5",
                    "midi": 82,
                    "time": 200.5310047499986,
                    "velocity": 0.3858267716535433,
                    "duration": 0.1154467499999896
                },
                {
                    "name": "C6",
                    "midi": 84,
                    "time": 200.6464514999986,
                    "velocity": 0.4015748031496063,
                    "duration": 0.1154467499999896
                },
                {
                    "name": "D6",
                    "midi": 86,
                    "time": 200.76189824999858,
                    "velocity": 0.4094488188976378,
                    "duration": 0.1154467499999896
                },
                {
                    "name": "A#5",
                    "midi": 82,
                    "time": 200.87734499999857,
                    "velocity": 0.44881889763779526,
                    "duration": 0.23089350000000763
                },
                {
                    "name": "C6",
                    "midi": 84,
                    "time": 201.10823849999858,
                    "velocity": 0.4566929133858268,
                    "duration": 0.1154467499999896
                },
                {
                    "name": "A#5",
                    "midi": 82,
                    "time": 201.22368524999857,
                    "velocity": 0.4015748031496063,
                    "duration": 0.1154467499999896
                },
                {
                    "name": "A5",
                    "midi": 81,
                    "time": 201.33913199999856,
                    "velocity": 0.4409448818897638,
                    "duration": 0.1154467499999896
                },
                {
                    "name": "G5",
                    "midi": 79,
                    "time": 201.45457874999855,
                    "velocity": 0.4015748031496063,
                    "duration": 0.1154467499999896
                },
                {
                    "name": "F5",
                    "midi": 77,
                    "time": 201.57002549999854,
                    "velocity": 0.48031496062992124,
                    "duration": 0.0577233749999948
                },
                {
                    "name": "F5",
                    "midi": 77,
                    "time": 201.80091899999854,
                    "velocity": 0.4409448818897638,
                    "duration": 0.0577233749999948
                },
                {
                    "name": "F5",
                    "midi": 77,
                    "time": 202.03181249999855,
                    "velocity": 0.4409448818897638,
                    "duration": 0.0577233749999948
                },
                {
                    "name": "F#5",
                    "midi": 78,
                    "time": 202.26270599999856,
                    "velocity": 0.5433070866141733,
                    "duration": 0.23089350000000763
                },
                {
                    "name": "F#6",
                    "midi": 90,
                    "time": 202.49359949999857,
                    "velocity": 0.5196850393700787,
                    "duration": 0.23089350000000763
                },
                {
                    "name": "F#6",
                    "midi": 90,
                    "time": 202.72449299999857,
                    "velocity": 0.5275590551181102,
                    "duration": 0.0577233749999948
                },
                {
                    "name": "G6",
                    "midi": 91,
                    "time": 202.95538649999858,
                    "velocity": 0.5984251968503937,
                    "duration": 0.23089350000000763
                },
                {
                    "name": "G5",
                    "midi": 79,
                    "time": 203.1862799999986,
                    "velocity": 0.48031496062992124,
                    "duration": 0.23089350000000763
                },
                {
                    "name": "G5",
                    "midi": 79,
                    "time": 203.4171734999986,
                    "velocity": 0.48031496062992124,
                    "duration": 0.0577233749999948
                },
                {
                    "name": "A5",
                    "midi": 81,
                    "time": 203.6480669999986,
                    "velocity": 0.5118110236220472,
                    "duration": 0.0577233749999948
                },
                {
                    "name": "A#6",
                    "midi": 94,
                    "time": 203.8500988124986,
                    "velocity": 0.4881889763779528,
                    "duration": 0.028861687500011612
                },
                {
                    "name": "A6",
                    "midi": 93,
                    "time": 203.8789604999986,
                    "velocity": 0.5118110236220472,
                    "duration": 0.1154467499999896
                },
                {
                    "name": "G6",
                    "midi": 91,
                    "time": 203.9944072499986,
                    "velocity": 0.4881889763779528,
                    "duration": 0.1154467499999896
                },
                {
                    "name": "A6",
                    "midi": 93,
                    "time": 204.1098539999986,
                    "velocity": 0.5196850393700787,
                    "duration": 0.23089350000000763
                },
                {
                    "name": "A#6",
                    "midi": 94,
                    "time": 204.3407474999986,
                    "velocity": 0.5354330708661418,
                    "duration": 0.0577233749999948
                },
                {
                    "name": "C6",
                    "midi": 84,
                    "time": 204.5427793124986,
                    "velocity": 0.48031496062992124,
                    "duration": 0.028861687500011612
                },
                {
                    "name": "A#5",
                    "midi": 82,
                    "time": 204.5716409999986,
                    "velocity": 0.49606299212598426,
                    "duration": 0.1154467499999896
                },
                {
                    "name": "A5",
                    "midi": 81,
                    "time": 204.6870877499986,
                    "velocity": 0.47244094488188976,
                    "duration": 0.1154467499999896
                },
                {
                    "name": "A#5",
                    "midi": 82,
                    "time": 204.8025344999986,
                    "velocity": 0.5118110236220472,
                    "duration": 0.1154467499999896
                },
                {
                    "name": "D#5",
                    "midi": 75,
                    "time": 205.03342799999857,
                    "velocity": 0.3464566929133858,
                    "duration": 0.1154467499999896
                },
                {
                    "name": "G5",
                    "midi": 79,
                    "time": 205.03342799999857,
                    "velocity": 0.4094488188976378,
                    "duration": 0.1154467499999896
                },
                {
                    "name": "A#5",
                    "midi": 82,
                    "time": 205.14887474999855,
                    "velocity": 0.36220472440944884,
                    "duration": 0.1154467499999896
                },
                {
                    "name": "D#5",
                    "midi": 75,
                    "time": 205.26432149999854,
                    "velocity": 0.3543307086614173,
                    "duration": 0.1154467499999896
                },
                {
                    "name": "G5",
                    "midi": 79,
                    "time": 205.26432149999854,
                    "velocity": 0.41732283464566927,
                    "duration": 0.1154467499999896
                },
                {
                    "name": "A#5",
                    "midi": 82,
                    "time": 205.37976824999853,
                    "velocity": 0.3543307086614173,
                    "duration": 0.1154467499999896
                },
                {
                    "name": "D#5",
                    "midi": 75,
                    "time": 205.49521499999852,
                    "velocity": 0.3543307086614173,
                    "duration": 0.1154467499999896
                },
                {
                    "name": "G5",
                    "midi": 79,
                    "time": 205.49521499999852,
                    "velocity": 0.41732283464566927,
                    "duration": 0.1154467499999896
                },
                {
                    "name": "A#5",
                    "midi": 82,
                    "time": 205.6106617499985,
                    "velocity": 0.36220472440944884,
                    "duration": 0.1154467499999896
                },
                {
                    "name": "D#5",
                    "midi": 75,
                    "time": 205.7261084999985,
                    "velocity": 0.36220472440944884,
                    "duration": 0.1154467499999896
                },
                {
                    "name": "G5",
                    "midi": 79,
                    "time": 205.7261084999985,
                    "velocity": 0.4251968503937008,
                    "duration": 0.1154467499999896
                },
                {
                    "name": "C6",
                    "midi": 84,
                    "time": 205.8415552499985,
                    "velocity": 0.36220472440944884,
                    "duration": 0.1154467499999896
                },
                {
                    "name": "D#5",
                    "midi": 75,
                    "time": 205.95700199999848,
                    "velocity": 0.3543307086614173,
                    "duration": 0.1154467499999896
                },
                {
                    "name": "G5",
                    "midi": 79,
                    "time": 205.95700199999848,
                    "velocity": 0.41732283464566927,
                    "duration": 0.1154467499999896
                },
                {
                    "name": "C6",
                    "midi": 84,
                    "time": 206.07244874999847,
                    "velocity": 0.3543307086614173,
                    "duration": 0.1154467499999896
                },
                {
                    "name": "D#5",
                    "midi": 75,
                    "time": 206.18789549999846,
                    "velocity": 0.3543307086614173,
                    "duration": 0.1154467499999896
                },
                {
                    "name": "G5",
                    "midi": 79,
                    "time": 206.18789549999846,
                    "velocity": 0.41732283464566927,
                    "duration": 0.1154467499999896
                },
                {
                    "name": "C6",
                    "midi": 84,
                    "time": 206.30334224999845,
                    "velocity": 0.3543307086614173,
                    "duration": 0.1154467499999896
                },
                {
                    "name": "D#5",
                    "midi": 75,
                    "time": 206.41878899999844,
                    "velocity": 0.3779527559055118,
                    "duration": 0.1154467499999896
                },
                {
                    "name": "G5",
                    "midi": 79,
                    "time": 206.41878899999844,
                    "velocity": 0.44881889763779526,
                    "duration": 0.1154467499999896
                },
                {
                    "name": "A#5",
                    "midi": 82,
                    "time": 206.53423574999843,
                    "velocity": 0.36220472440944884,
                    "duration": 0.1154467499999896
                },
                {
                    "name": "G5",
                    "midi": 79,
                    "time": 206.64968249999842,
                    "velocity": 0.41732283464566927,
                    "duration": 0.1154467499999896
                },
                {
                    "name": "D#5",
                    "midi": 75,
                    "time": 206.64968249999842,
                    "velocity": 0.3543307086614173,
                    "duration": 0.1154467499999896
                },
                {
                    "name": "A#5",
                    "midi": 82,
                    "time": 206.7651292499984,
                    "velocity": 0.3543307086614173,
                    "duration": 0.1154467499999896
                },
                {
                    "name": "D#5",
                    "midi": 75,
                    "time": 206.8805759999984,
                    "velocity": 0.3543307086614173,
                    "duration": 0.1154467499999896
                },
                {
                    "name": "G5",
                    "midi": 79,
                    "time": 206.8805759999984,
                    "velocity": 0.41732283464566927,
                    "duration": 0.1154467499999896
                },
                {
                    "name": "A#5",
                    "midi": 82,
                    "time": 206.9960227499984,
                    "velocity": 0.3543307086614173,
                    "duration": 0.1154467499999896
                },
                {
                    "name": "D5",
                    "midi": 74,
                    "time": 207.11146949999838,
                    "velocity": 0.4015748031496063,
                    "duration": 0.1154467499999896
                },
                {
                    "name": "G#5",
                    "midi": 80,
                    "time": 207.11146949999838,
                    "velocity": 0.48031496062992124,
                    "duration": 0.1154467499999896
                },
                {
                    "name": "A#5",
                    "midi": 82,
                    "time": 207.22691624999837,
                    "velocity": 0.36220472440944884,
                    "duration": 0.1154467499999896
                },
                {
                    "name": "D5",
                    "midi": 74,
                    "time": 207.34236299999836,
                    "velocity": 0.3543307086614173,
                    "duration": 0.1154467499999896
                },
                {
                    "name": "G#5",
                    "midi": 80,
                    "time": 207.34236299999836,
                    "velocity": 0.41732283464566927,
                    "duration": 0.1154467499999896
                },
                {
                    "name": "A#5",
                    "midi": 82,
                    "time": 207.45780974999835,
                    "velocity": 0.3779527559055118,
                    "duration": 0.1154467499999896
                },
                {
                    "name": "D5",
                    "midi": 74,
                    "time": 207.57325649999834,
                    "velocity": 0.3543307086614173,
                    "duration": 0.1154467499999896
                },
                {
                    "name": "G#5",
                    "midi": 80,
                    "time": 207.57325649999834,
                    "velocity": 0.41732283464566927,
                    "duration": 0.1154467499999896
                },
                {
                    "name": "A#5",
                    "midi": 82,
                    "time": 207.68870324999833,
                    "velocity": 0.36220472440944884,
                    "duration": 0.1154467499999896
                },
                {
                    "name": "D5",
                    "midi": 74,
                    "time": 207.80414999999832,
                    "velocity": 0.3858267716535433,
                    "duration": 0.1154467499999896
                },
                {
                    "name": "G#5",
                    "midi": 80,
                    "time": 207.80414999999832,
                    "velocity": 0.4566929133858268,
                    "duration": 0.1154467499999896
                },
                {
                    "name": "D6",
                    "midi": 86,
                    "time": 207.9195967499983,
                    "velocity": 0.36220472440944884,
                    "duration": 0.1154467499999896
                },
                {
                    "name": "D5",
                    "midi": 74,
                    "time": 208.0350434999983,
                    "velocity": 0.3543307086614173,
                    "duration": 0.1154467499999896
                },
                {
                    "name": "G#5",
                    "midi": 80,
                    "time": 208.0350434999983,
                    "velocity": 0.41732283464566927,
                    "duration": 0.1154467499999896
                },
                {
                    "name": "D6",
                    "midi": 86,
                    "time": 208.15049024999828,
                    "velocity": 0.36220472440944884,
                    "duration": 0.1154467499999896
                },
                {
                    "name": "D5",
                    "midi": 74,
                    "time": 208.26593699999827,
                    "velocity": 0.3543307086614173,
                    "duration": 0.1154467499999896
                },
                {
                    "name": "G#5",
                    "midi": 80,
                    "time": 208.26593699999827,
                    "velocity": 0.41732283464566927,
                    "duration": 0.1154467499999896
                },
                {
                    "name": "D6",
                    "midi": 86,
                    "time": 208.38138374999826,
                    "velocity": 0.36220472440944884,
                    "duration": 0.1154467499999896
                },
                {
                    "name": "D#5",
                    "midi": 75,
                    "time": 208.49683049999825,
                    "velocity": 0.3779527559055118,
                    "duration": 0.1154467499999896
                },
                {
                    "name": "G#5",
                    "midi": 80,
                    "time": 208.49683049999825,
                    "velocity": 0.44881889763779526,
                    "duration": 0.1154467499999896
                },
                {
                    "name": "D#6",
                    "midi": 87,
                    "time": 208.61227724999824,
                    "velocity": 0.36220472440944884,
                    "duration": 0.1154467499999896
                },
                {
                    "name": "D#5",
                    "midi": 75,
                    "time": 208.72772399999823,
                    "velocity": 0.3543307086614173,
                    "duration": 0.1154467499999896
                },
                {
                    "name": "G#5",
                    "midi": 80,
                    "time": 208.72772399999823,
                    "velocity": 0.41732283464566927,
                    "duration": 0.1154467499999896
                },
                {
                    "name": "D#6",
                    "midi": 87,
                    "time": 208.84317074999822,
                    "velocity": 0.36220472440944884,
                    "duration": 0.1154467499999896
                },
                {
                    "name": "D#5",
                    "midi": 75,
                    "time": 208.9586174999982,
                    "velocity": 0.3543307086614173,
                    "duration": 0.1154467499999896
                },
                {
                    "name": "G#5",
                    "midi": 80,
                    "time": 208.9586174999982,
                    "velocity": 0.41732283464566927,
                    "duration": 0.1154467499999896
                },
                {
                    "name": "D6",
                    "midi": 86,
                    "time": 209.0740642499982,
                    "velocity": 0.36220472440944884,
                    "duration": 0.1154467499999896
                },
                {
                    "name": "D#5",
                    "midi": 75,
                    "time": 209.1895109999982,
                    "velocity": 0.3543307086614173,
                    "duration": 0.1154467499999896
                },
                {
                    "name": "A5",
                    "midi": 81,
                    "time": 209.1895109999982,
                    "velocity": 0.41732283464566927,
                    "duration": 0.1154467499999896
                },
                {
                    "name": "C6",
                    "midi": 84,
                    "time": 209.30495774999818,
                    "velocity": 0.36220472440944884,
                    "duration": 0.1154467499999896
                },
                {
                    "name": "D#5",
                    "midi": 75,
                    "time": 209.42040449999817,
                    "velocity": 0.3543307086614173,
                    "duration": 0.1154467499999896
                },
                {
                    "name": "A5",
                    "midi": 81,
                    "time": 209.42040449999817,
                    "velocity": 0.41732283464566927,
                    "duration": 0.1154467499999896
                },
                {
                    "name": "C6",
                    "midi": 84,
                    "time": 209.53585124999816,
                    "velocity": 0.36220472440944884,
                    "duration": 0.1154467499999896
                },
                {
                    "name": "D#5",
                    "midi": 75,
                    "time": 209.65129799999815,
                    "velocity": 0.3543307086614173,
                    "duration": 0.1154467499999896
                },
                {
                    "name": "A5",
                    "midi": 81,
                    "time": 209.65129799999815,
                    "velocity": 0.41732283464566927,
                    "duration": 0.1154467499999896
                },
                {
                    "name": "C6",
                    "midi": 84,
                    "time": 209.76674474999814,
                    "velocity": 0.36220472440944884,
                    "duration": 0.1154467499999896
                },
                {
                    "name": "D5",
                    "midi": 74,
                    "time": 209.88219149999813,
                    "velocity": 0.3543307086614173,
                    "duration": 0.1154467499999896
                },
                {
                    "name": "A#5",
                    "midi": 82,
                    "time": 209.88219149999813,
                    "velocity": 0.41732283464566927,
                    "duration": 0.1154467499999896
                },
                {
                    "name": "D6",
                    "midi": 86,
                    "time": 209.99763824999812,
                    "velocity": 0.36220472440944884,
                    "duration": 0.1154467499999896
                },
                {
                    "name": "D5",
                    "midi": 74,
                    "time": 210.1130849999981,
                    "velocity": 0.3543307086614173,
                    "duration": 0.1154467499999896
                },
                {
                    "name": "A#5",
                    "midi": 82,
                    "time": 210.1130849999981,
                    "velocity": 0.41732283464566927,
                    "duration": 0.1154467499999896
                },
                {
                    "name": "D6",
                    "midi": 86,
                    "time": 210.2285317499981,
                    "velocity": 0.36220472440944884,
                    "duration": 0.1154467499999896
                },
                {
                    "name": "D5",
                    "midi": 74,
                    "time": 210.3439784999981,
                    "velocity": 0.3543307086614173,
                    "duration": 0.1154467499999896
                },
                {
                    "name": "A#5",
                    "midi": 82,
                    "time": 210.3439784999981,
                    "velocity": 0.41732283464566927,
                    "duration": 0.1154467499999896
                },
                {
                    "name": "D6",
                    "midi": 86,
                    "time": 210.45942524999808,
                    "velocity": 0.36220472440944884,
                    "duration": 0.1154467499999896
                },
                {
                    "name": "D#5",
                    "midi": 75,
                    "time": 210.57487199999807,
                    "velocity": 0.36220472440944884,
                    "duration": 0.1154467499999896
                },
                {
                    "name": "A5",
                    "midi": 81,
                    "time": 210.57487199999807,
                    "velocity": 0.4251968503937008,
                    "duration": 0.1154467499999896
                },
                {
                    "name": "C6",
                    "midi": 84,
                    "time": 210.69031874999806,
                    "velocity": 0.36220472440944884,
                    "duration": 0.1154467499999896
                },
                {
                    "name": "D#5",
                    "midi": 75,
                    "time": 210.80576549999805,
                    "velocity": 0.3543307086614173,
                    "duration": 0.1154467499999896
                },
                {
                    "name": "A5",
                    "midi": 81,
                    "time": 210.80576549999805,
                    "velocity": 0.41732283464566927,
                    "duration": 0.1154467499999896
                },
                {
                    "name": "C6",
                    "midi": 84,
                    "time": 210.92121224999804,
                    "velocity": 0.3543307086614173,
                    "duration": 0.1154467499999896
                },
                {
                    "name": "D#5",
                    "midi": 75,
                    "time": 211.03665899999802,
                    "velocity": 0.3543307086614173,
                    "duration": 0.1154467499999896
                },
                {
                    "name": "A5",
                    "midi": 81,
                    "time": 211.03665899999802,
                    "velocity": 0.41732283464566927,
                    "duration": 0.1154467499999896
                },
                {
                    "name": "C6",
                    "midi": 84,
                    "time": 211.15210574999801,
                    "velocity": 0.3543307086614173,
                    "duration": 0.1154467499999896
                },
                {
                    "name": "D5",
                    "midi": 74,
                    "time": 211.267552499998,
                    "velocity": 0.3779527559055118,
                    "duration": 0.1154467499999896
                },
                {
                    "name": "A#5",
                    "midi": 82,
                    "time": 211.267552499998,
                    "velocity": 0.44881889763779526,
                    "duration": 0.1154467499999896
                },
                {
                    "name": "D6",
                    "midi": 86,
                    "time": 211.382999249998,
                    "velocity": 0.36220472440944884,
                    "duration": 0.1154467499999896
                },
                {
                    "name": "A#5",
                    "midi": 82,
                    "time": 211.49844599999798,
                    "velocity": 0.41732283464566927,
                    "duration": 0.1154467499999896
                },
                {
                    "name": "D5",
                    "midi": 74,
                    "time": 211.49844599999798,
                    "velocity": 0.3543307086614173,
                    "duration": 0.1154467499999896
                },
                {
                    "name": "D6",
                    "midi": 86,
                    "time": 211.61389274999797,
                    "velocity": 0.3543307086614173,
                    "duration": 0.1154467499999896
                },
                {
                    "name": "D5",
                    "midi": 74,
                    "time": 211.72933949999796,
                    "velocity": 0.3543307086614173,
                    "duration": 0.1154467499999896
                },
                {
                    "name": "A#5",
                    "midi": 82,
                    "time": 211.72933949999796,
                    "velocity": 0.41732283464566927,
                    "duration": 0.1154467499999896
                },
                {
                    "name": "D6",
                    "midi": 86,
                    "time": 211.84478624999795,
                    "velocity": 0.3543307086614173,
                    "duration": 0.1154467499999896
                },
                {
                    "name": "D#5",
                    "midi": 75,
                    "time": 211.96023299999794,
                    "velocity": 0.3228346456692913,
                    "duration": 0.1154467499999896
                },
                {
                    "name": "A5",
                    "midi": 81,
                    "time": 211.96023299999794,
                    "velocity": 0.3858267716535433,
                    "duration": 0.1154467499999896
                },
                {
                    "name": "C6",
                    "midi": 84,
                    "time": 212.07567974999793,
                    "velocity": 0.3228346456692913,
                    "duration": 0.1154467499999896
                },
                {
                    "name": "D#5",
                    "midi": 75,
                    "time": 212.19112649999792,
                    "velocity": 0.31496062992125984,
                    "duration": 0.1154467499999896
                },
                {
                    "name": "A5",
                    "midi": 81,
                    "time": 212.19112649999792,
                    "velocity": 0.3779527559055118,
                    "duration": 0.1154467499999896
                },
                {
                    "name": "C6",
                    "midi": 84,
                    "time": 212.3065732499979,
                    "velocity": 0.31496062992125984,
                    "duration": 0.1154467499999896
                },
                {
                    "name": "D#5",
                    "midi": 75,
                    "time": 212.4220199999979,
                    "velocity": 0.31496062992125984,
                    "duration": 0.1154467499999896
                },
                {
                    "name": "A5",
                    "midi": 81,
                    "time": 212.4220199999979,
                    "velocity": 0.3779527559055118,
                    "duration": 0.1154467499999896
                },
                {
                    "name": "C6",
                    "midi": 84,
                    "time": 212.5374667499979,
                    "velocity": 0.31496062992125984,
                    "duration": 0.1154467499999896
                },
                {
                    "name": "D5",
                    "midi": 74,
                    "time": 212.65291349999788,
                    "velocity": 0.33070866141732286,
                    "duration": 0.1154467499999896
                },
                {
                    "name": "A#5",
                    "midi": 82,
                    "time": 212.65291349999788,
                    "velocity": 0.4015748031496063,
                    "duration": 0.1154467499999896
                },
                {
                    "name": "D6",
                    "midi": 86,
                    "time": 212.76836024999787,
                    "velocity": 0.3228346456692913,
                    "duration": 0.1154467499999896
                },
                {
                    "name": "A#5",
                    "midi": 82,
                    "time": 212.88380699999786,
                    "velocity": 0.3779527559055118,
                    "duration": 0.1154467499999896
                },
                {
                    "name": "D5",
                    "midi": 74,
                    "time": 212.88380699999786,
                    "velocity": 0.31496062992125984,
                    "duration": 0.1154467499999896
                },
                {
                    "name": "D6",
                    "midi": 86,
                    "time": 212.99925374999785,
                    "velocity": 0.31496062992125984,
                    "duration": 0.1154467499999896
                },
                {
                    "name": "D5",
                    "midi": 74,
                    "time": 213.11470049999784,
                    "velocity": 0.31496062992125984,
                    "duration": 0.1154467499999896
                },
                {
                    "name": "A#5",
                    "midi": 82,
                    "time": 213.11470049999784,
                    "velocity": 0.3779527559055118,
                    "duration": 0.1154467499999896
                },
                {
                    "name": "D6",
                    "midi": 86,
                    "time": 213.23014724999783,
                    "velocity": 0.31496062992125984,
                    "duration": 0.1154467499999896
                },
                {
                    "name": "D#5",
                    "midi": 75,
                    "time": 213.34559399999782,
                    "velocity": 0.2755905511811024,
                    "duration": 0.1154467499999896
                },
                {
                    "name": "A5",
                    "midi": 81,
                    "time": 213.34559399999782,
                    "velocity": 0.33858267716535434,
                    "duration": 0.1154467499999896
                },
                {
                    "name": "C6",
                    "midi": 84,
                    "time": 213.4610407499978,
                    "velocity": 0.29133858267716534,
                    "duration": 0.1154467499999896
                },
                {
                    "name": "D#5",
                    "midi": 75,
                    "time": 213.5764874999978,
                    "velocity": 0.2755905511811024,
                    "duration": 0.1154467499999896
                },
                {
                    "name": "A5",
                    "midi": 81,
                    "time": 213.5764874999978,
                    "velocity": 0.33070866141732286,
                    "duration": 0.1154467499999896
                },
                {
                    "name": "C6",
                    "midi": 84,
                    "time": 213.6919342499978,
                    "velocity": 0.2755905511811024,
                    "duration": 0.1154467499999896
                },
                {
                    "name": "D#5",
                    "midi": 75,
                    "time": 213.80738099999778,
                    "velocity": 0.2755905511811024,
                    "duration": 0.1154467499999896
                },
                {
                    "name": "A5",
                    "midi": 81,
                    "time": 213.80738099999778,
                    "velocity": 0.33070866141732286,
                    "duration": 0.1154467499999896
                },
                {
                    "name": "C6",
                    "midi": 84,
                    "time": 213.92282774999777,
                    "velocity": 0.2755905511811024,
                    "duration": 0.1154467499999896
                },
                {
                    "name": "D6",
                    "midi": 86,
                    "time": 214.03827449999775,
                    "velocity": 0.3543307086614173,
                    "duration": 0.23089350000000763
                },
                {
                    "name": "D5",
                    "midi": 74,
                    "time": 214.03827449999775,
                    "velocity": 0.2992125984251969,
                    "duration": 0.23089350000000763
                },
                {
                    "name": "A#5",
                    "midi": 82,
                    "time": 214.03827449999775,
                    "velocity": 0.3543307086614173,
                    "duration": 0.23089350000000763
                },
                {
                    "name": "D5",
                    "midi": 74,
                    "time": 214.73095499999775,
                    "velocity": 0.25984251968503935,
                    "duration": 0.23089350000000763
                },
                {
                    "name": "A#5",
                    "midi": 82,
                    "time": 214.73095499999775,
                    "velocity": 0.30708661417322836,
                    "duration": 0.23089350000000763
                },
                {
                    "name": "D6",
                    "midi": 86,
                    "time": 214.73095499999775,
                    "velocity": 0.30708661417322836,
                    "duration": 0.23089350000000763
                },
                {
                    "name": "D5",
                    "midi": 74,
                    "time": 215.42363549999774,
                    "velocity": 0.25196850393700787,
                    "duration": 0.23089350000000763
                },
                {
                    "name": "A#5",
                    "midi": 82,
                    "time": 215.42363549999774,
                    "velocity": 0.2992125984251969,
                    "duration": 0.23089350000000763
                },
                {
                    "name": "D6",
                    "midi": 86,
                    "time": 215.42363549999774,
                    "velocity": 0.2992125984251969,
                    "duration": 0.23089350000000763
                },
                {
                    "name": "D5",
                    "midi": 74,
                    "time": 216.11631599999774,
                    "velocity": 0.2204724409448819,
                    "duration": 0.9235740000000021
                },
                {
                    "name": "A#5",
                    "midi": 82,
                    "time": 216.11631599999774,
                    "velocity": 0.2677165354330709,
                    "duration": 0.9235740000000021
                },
                {
                    "name": "D6",
                    "midi": 86,
                    "time": 216.11631599999774,
                    "velocity": 0.2677165354330709,
                    "duration": 0.9235740000000021
                }
            ],
            "controlChanges": {
                "7": [
                    {
                        "number": 7,
                        "time": 0,
                        "value": 0.7874015748031497
                    }
                ],
                "10": [
                    {
                        "number": 10,
                        "time": 0,
                        "value": 0.5039370078740157
                    }
                ],
                "91": [
                    {
                        "number": 91,
                        "time": 0,
                        "value": 1
                    }
                ]
            },
            "id": 1,
            "name": "Piano right",
            "instrumentNumber": 1,
            "instrument": "bright acoustic piano",
            "instrumentFamily": "piano",
            "channelNumber": 0,
            "isPercussion": false
        },
        {
            "startTime": 0,
            "duration": 217.03988999999888,
            "length": 1443,
            "notes": [
                {
                    "name": "A#3",
                    "midi": 58,
                    "time": 0,
                    "velocity": 0.2440944881889764,
                    "duration": 0.11544675000000001
                },
                {
                    "name": "D4",
                    "midi": 62,
                    "time": 0,
                    "velocity": 0.2992125984251969,
                    "duration": 0.11544675000000001
                },
                {
                    "name": "F4",
                    "midi": 65,
                    "time": 0.11544675000000001,
                    "velocity": 0.1968503937007874,
                    "duration": 0.11544675000000001
                },
                {
                    "name": "A#3",
                    "midi": 58,
                    "time": 0.23089350000000003,
                    "velocity": 0.1889763779527559,
                    "duration": 0.11544675000000004
                },
                {
                    "name": "D4",
                    "midi": 62,
                    "time": 0.23089350000000003,
                    "velocity": 0.2283464566929134,
                    "duration": 0.11544675000000004
                },
                {
                    "name": "F4",
                    "midi": 65,
                    "time": 0.34634025000000007,
                    "velocity": 0.1889763779527559,
                    "duration": 0.11544674999999999
                },
                {
                    "name": "D4",
                    "midi": 62,
                    "time": 0.46178700000000006,
                    "velocity": 0.2283464566929134,
                    "duration": 0.11544675000000004
                },
                {
                    "name": "A#3",
                    "midi": 58,
                    "time": 0.46178700000000006,
                    "velocity": 0.1889763779527559,
                    "duration": 0.11544675000000004
                },
                {
                    "name": "F4",
                    "midi": 65,
                    "time": 0.5772337500000001,
                    "velocity": 0.1968503937007874,
                    "duration": 0.11544675000000004
                },
                {
                    "name": "D#4",
                    "midi": 63,
                    "time": 0.6926805000000001,
                    "velocity": 0.2677165354330709,
                    "duration": 0.11544674999999993
                },
                {
                    "name": "A#3",
                    "midi": 58,
                    "time": 0.6926805000000001,
                    "velocity": 0.2204724409448819,
                    "duration": 0.11544674999999993
                },
                {
                    "name": "G4",
                    "midi": 67,
                    "time": 0.8081272500000001,
                    "velocity": 0.1968503937007874,
                    "duration": 0.11544675000000004
                },
                {
                    "name": "D#4",
                    "midi": 63,
                    "time": 0.9235740000000001,
                    "velocity": 0.2283464566929134,
                    "duration": 0.11544675000000004
                },
                {
                    "name": "A#3",
                    "midi": 58,
                    "time": 0.9235740000000001,
                    "velocity": 0.1889763779527559,
                    "duration": 0.11544675000000004
                },
                {
                    "name": "G4",
                    "midi": 67,
                    "time": 1.0390207500000002,
                    "velocity": 0.1889763779527559,
                    "duration": 0.11544675000000004
                },
                {
                    "name": "A#3",
                    "midi": 58,
                    "time": 1.1544675000000002,
                    "velocity": 0.1889763779527559,
                    "duration": 0.11544675000000004
                },
                {
                    "name": "D#4",
                    "midi": 63,
                    "time": 1.1544675000000002,
                    "velocity": 0.2283464566929134,
                    "duration": 0.11544675000000004
                },
                {
                    "name": "G4",
                    "midi": 67,
                    "time": 1.2699142500000002,
                    "velocity": 0.1889763779527559,
                    "duration": 0.11544675000000004
                },
                {
                    "name": "A#3",
                    "midi": 58,
                    "time": 1.3853610000000003,
                    "velocity": 0.2677165354330709,
                    "duration": 0.11544675000000004
                },
                {
                    "name": "D4",
                    "midi": 62,
                    "time": 1.3853610000000003,
                    "velocity": 0.31496062992125984,
                    "duration": 0.11544675000000004
                },
                {
                    "name": "F4",
                    "midi": 65,
                    "time": 1.5008077500000003,
                    "velocity": 0.1968503937007874,
                    "duration": 0.11544675000000004
                },
                {
                    "name": "D4",
                    "midi": 62,
                    "time": 1.6162545000000004,
                    "velocity": 0.2283464566929134,
                    "duration": 0.11544675000000004
                },
                {
                    "name": "A#3",
                    "midi": 58,
                    "time": 1.6162545000000004,
                    "velocity": 0.1889763779527559,
                    "duration": 0.11544675000000004
                },
                {
                    "name": "F4",
                    "midi": 65,
                    "time": 1.7317012500000004,
                    "velocity": 0.1889763779527559,
                    "duration": 0.11544675000000004
                },
                {
                    "name": "A#3",
                    "midi": 58,
                    "time": 1.8471480000000005,
                    "velocity": 0.1889763779527559,
                    "duration": 0.11544675000000004
                },
                {
                    "name": "D4",
                    "midi": 62,
                    "time": 1.8471480000000005,
                    "velocity": 0.2283464566929134,
                    "duration": 0.11544675000000004
                },
                {
                    "name": "F4",
                    "midi": 65,
                    "time": 1.9625947500000005,
                    "velocity": 0.1889763779527559,
                    "duration": 0.11544674999999982
                },
                {
                    "name": "D#4",
                    "midi": 63,
                    "time": 2.0780415000000003,
                    "velocity": 0.2677165354330709,
                    "duration": 0.11544674999999982
                },
                {
                    "name": "A3",
                    "midi": 57,
                    "time": 2.0780415000000003,
                    "velocity": 0.2283464566929134,
                    "duration": 0.11544674999999982
                },
                {
                    "name": "F4",
                    "midi": 65,
                    "time": 2.19348825,
                    "velocity": 0.1968503937007874,
                    "duration": 0.11544674999999982
                },
                {
                    "name": "A3",
                    "midi": 57,
                    "time": 2.308935,
                    "velocity": 0.1889763779527559,
                    "duration": 0.11544674999999982
                },
                {
                    "name": "D#4",
                    "midi": 63,
                    "time": 2.308935,
                    "velocity": 0.2283464566929134,
                    "duration": 0.11544674999999982
                },
                {
                    "name": "F4",
                    "midi": 65,
                    "time": 2.42438175,
                    "velocity": 0.2047244094488189,
                    "duration": 0.11544674999999982
                },
                {
                    "name": "A3",
                    "midi": 57,
                    "time": 2.5398284999999996,
                    "velocity": 0.1889763779527559,
                    "duration": 0.11544674999999982
                },
                {
                    "name": "D#4",
                    "midi": 63,
                    "time": 2.5398284999999996,
                    "velocity": 0.2283464566929134,
                    "duration": 0.11544674999999982
                },
                {
                    "name": "F4",
                    "midi": 65,
                    "time": 2.6552752499999994,
                    "velocity": 0.1968503937007874,
                    "duration": 0.11544674999999982
                },
                {
                    "name": "D#4",
                    "midi": 63,
                    "time": 2.7707219999999992,
                    "velocity": 0.29133858267716534,
                    "duration": 0.11544674999999982
                },
                {
                    "name": "A3",
                    "midi": 57,
                    "time": 2.7707219999999992,
                    "velocity": 0.2440944881889764,
                    "duration": 0.11544674999999982
                },
                {
                    "name": "F#4",
                    "midi": 66,
                    "time": 2.886168749999999,
                    "velocity": 0.1968503937007874,
                    "duration": 0.11544674999999982
                },
                {
                    "name": "A3",
                    "midi": 57,
                    "time": 3.001615499999999,
                    "velocity": 0.1889763779527559,
                    "duration": 0.11544674999999982
                },
                {
                    "name": "D#4",
                    "midi": 63,
                    "time": 3.001615499999999,
                    "velocity": 0.2283464566929134,
                    "duration": 0.11544674999999982
                },
                {
                    "name": "F#4",
                    "midi": 66,
                    "time": 3.1170622499999987,
                    "velocity": 0.1968503937007874,
                    "duration": 0.11544675000000026
                },
                {
                    "name": "A3",
                    "midi": 57,
                    "time": 3.232508999999999,
                    "velocity": 0.1889763779527559,
                    "duration": 0.11544674999999982
                },
                {
                    "name": "D#4",
                    "midi": 63,
                    "time": 3.232508999999999,
                    "velocity": 0.2283464566929134,
                    "duration": 0.11544674999999982
                },
                {
                    "name": "F#4",
                    "midi": 66,
                    "time": 3.347955749999999,
                    "velocity": 0.1968503937007874,
                    "duration": 0.11544674999999982
                },
                {
                    "name": "A#3",
                    "midi": 58,
                    "time": 3.4634024999999986,
                    "velocity": 0.2283464566929134,
                    "duration": 0.11544674999999982
                },
                {
                    "name": "D#4",
                    "midi": 63,
                    "time": 3.4634024999999986,
                    "velocity": 0.2677165354330709,
                    "duration": 0.11544674999999982
                },
                {
                    "name": "G4",
                    "midi": 67,
                    "time": 3.5788492499999984,
                    "velocity": 0.1968503937007874,
                    "duration": 0.11544674999999982
                },
                {
                    "name": "D#4",
                    "midi": 63,
                    "time": 3.6942959999999982,
                    "velocity": 0.2283464566929134,
                    "duration": 0.11544674999999982
                },
                {
                    "name": "A#3",
                    "midi": 58,
                    "time": 3.6942959999999982,
                    "velocity": 0.1889763779527559,
                    "duration": 0.11544674999999982
                },
                {
                    "name": "G4",
                    "midi": 67,
                    "time": 3.809742749999998,
                    "velocity": 0.1968503937007874,
                    "duration": 0.11544674999999982
                },
                {
                    "name": "A#3",
                    "midi": 58,
                    "time": 3.925189499999998,
                    "velocity": 0.1889763779527559,
                    "duration": 0.11544674999999982
                },
                {
                    "name": "D#4",
                    "midi": 63,
                    "time": 3.925189499999998,
                    "velocity": 0.2283464566929134,
                    "duration": 0.11544674999999982
                },
                {
                    "name": "G4",
                    "midi": 67,
                    "time": 4.040636249999998,
                    "velocity": 0.1968503937007874,
                    "duration": 0.11544675000000026
                },
                {
                    "name": "C4",
                    "midi": 60,
                    "time": 4.156082999999998,
                    "velocity": 0.2283464566929134,
                    "duration": 0.11544675000000026
                },
                {
                    "name": "D#4",
                    "midi": 63,
                    "time": 4.156082999999998,
                    "velocity": 0.2677165354330709,
                    "duration": 0.11544675000000026
                },
                {
                    "name": "F4",
                    "midi": 65,
                    "time": 4.271529749999998,
                    "velocity": 0.1968503937007874,
                    "duration": 0.11544675000000026
                },
                {
                    "name": "C4",
                    "midi": 60,
                    "time": 4.3869764999999985,
                    "velocity": 0.1889763779527559,
                    "duration": 0.11544675000000026
                },
                {
                    "name": "D#4",
                    "midi": 63,
                    "time": 4.3869764999999985,
                    "velocity": 0.2283464566929134,
                    "duration": 0.11544675000000026
                },
                {
                    "name": "F4",
                    "midi": 65,
                    "time": 4.502423249999999,
                    "velocity": 0.1968503937007874,
                    "duration": 0.11544675000000026
                },
                {
                    "name": "C4",
                    "midi": 60,
                    "time": 4.617869999999999,
                    "velocity": 0.1889763779527559,
                    "duration": 0.11544675000000026
                },
                {
                    "name": "D#4",
                    "midi": 63,
                    "time": 4.617869999999999,
                    "velocity": 0.2283464566929134,
                    "duration": 0.11544675000000026
                },
                {
                    "name": "F4",
                    "midi": 65,
                    "time": 4.733316749999999,
                    "velocity": 0.1968503937007874,
                    "duration": 0.11544675000000026
                },
                {
                    "name": "A#3",
                    "midi": 58,
                    "time": 4.8487635,
                    "velocity": 0.2283464566929134,
                    "duration": 0.11544675000000026
                },
                {
                    "name": "D4",
                    "midi": 62,
                    "time": 4.8487635,
                    "velocity": 0.2677165354330709,
                    "duration": 0.11544675000000026
                },
                {
                    "name": "F4",
                    "midi": 65,
                    "time": 4.96421025,
                    "velocity": 0.1968503937007874,
                    "duration": 0.11544675000000026
                },
                {
                    "name": "A#3",
                    "midi": 58,
                    "time": 5.079657,
                    "velocity": 0.1889763779527559,
                    "duration": 0.11544675000000026
                },
                {
                    "name": "D4",
                    "midi": 62,
                    "time": 5.079657,
                    "velocity": 0.2283464566929134,
                    "duration": 0.11544675000000026
                },
                {
                    "name": "F4",
                    "midi": 65,
                    "time": 5.19510375,
                    "velocity": 0.1968503937007874,
                    "duration": 0.11544675000000026
                },
                {
                    "name": "A#3",
                    "midi": 58,
                    "time": 5.310550500000001,
                    "velocity": 0.1889763779527559,
                    "duration": 0.11544675000000026
                },
                {
                    "name": "D4",
                    "midi": 62,
                    "time": 5.310550500000001,
                    "velocity": 0.2283464566929134,
                    "duration": 0.11544675000000026
                },
                {
                    "name": "F4",
                    "midi": 65,
                    "time": 5.425997250000001,
                    "velocity": 0.1968503937007874,
                    "duration": 0.11544675000000026
                },
                {
                    "name": "A#3",
                    "midi": 58,
                    "time": 5.541444000000001,
                    "velocity": 0.3779527559055118,
                    "duration": 0.23089349999999964
                },
                {
                    "name": "A3",
                    "midi": 57,
                    "time": 5.772337500000001,
                    "velocity": 0.31496062992125984,
                    "duration": 0.23089349999999964
                },
                {
                    "name": "A#3",
                    "midi": 58,
                    "time": 6.003231,
                    "velocity": 0.31496062992125984,
                    "duration": 0.23089349999999964
                },
                {
                    "name": "G3",
                    "midi": 55,
                    "time": 6.2341245,
                    "velocity": 0.3779527559055118,
                    "duration": 0.23089349999999964
                },
                {
                    "name": "A3",
                    "midi": 57,
                    "time": 6.465018,
                    "velocity": 0.30708661417322836,
                    "duration": 0.11544675000000026
                },
                {
                    "name": "A#3",
                    "midi": 58,
                    "time": 6.58046475,
                    "velocity": 0.30708661417322836,
                    "duration": 0.11544675000000026
                },
                {
                    "name": "C4",
                    "midi": 60,
                    "time": 6.6959115,
                    "velocity": 0.31496062992125984,
                    "duration": 0.11544675000000026
                },
                {
                    "name": "D4",
                    "midi": 62,
                    "time": 6.8113582500000005,
                    "velocity": 0.31496062992125984,
                    "duration": 0.11544675000000026
                },
                {
                    "name": "A#3",
                    "midi": 58,
                    "time": 6.926805000000001,
                    "velocity": 0.36220472440944884,
                    "duration": 0.23089349999999964
                },
                {
                    "name": "C4",
                    "midi": 60,
                    "time": 7.1576985,
                    "velocity": 0.3464566929133858,
                    "duration": 0.11544675000000026
                },
                {
                    "name": "A#3",
                    "midi": 58,
                    "time": 7.273145250000001,
                    "velocity": 0.31496062992125984,
                    "duration": 0.11544675000000026
                },
                {
                    "name": "A3",
                    "midi": 57,
                    "time": 7.388592000000001,
                    "velocity": 0.3464566929133858,
                    "duration": 0.11544675000000026
                },
                {
                    "name": "G3",
                    "midi": 55,
                    "time": 7.504038750000001,
                    "velocity": 0.31496062992125984,
                    "duration": 0.11544675000000026
                },
                {
                    "name": "F3",
                    "midi": 53,
                    "time": 7.6194855000000015,
                    "velocity": 0.3700787401574803,
                    "duration": 0.05772337500000013
                },
                {
                    "name": "F3",
                    "midi": 53,
                    "time": 7.850379000000002,
                    "velocity": 0.31496062992125984,
                    "duration": 0.05772337500000013
                },
                {
                    "name": "F3",
                    "midi": 53,
                    "time": 8.081272500000003,
                    "velocity": 0.31496062992125984,
                    "duration": 0.05772337500000013
                },
                {
                    "name": "F#3",
                    "midi": 54,
                    "time": 8.312166000000003,
                    "velocity": 0.4015748031496063,
                    "duration": 0.23089350000000053
                },
                {
                    "name": "F#4",
                    "midi": 66,
                    "time": 8.543059500000004,
                    "velocity": 0.30708661417322836,
                    "duration": 0.23089350000000053
                },
                {
                    "name": "F#4",
                    "midi": 66,
                    "time": 8.773953000000004,
                    "velocity": 0.3228346456692913,
                    "duration": 0.05772337500000013
                },
                {
                    "name": "G4",
                    "midi": 67,
                    "time": 9.004846500000005,
                    "velocity": 0.4015748031496063,
                    "duration": 0.23089350000000053
                },
                {
                    "name": "G3",
                    "midi": 55,
                    "time": 9.235740000000005,
                    "velocity": 0.3543307086614173,
                    "duration": 0.23089350000000053
                },
                {
                    "name": "G3",
                    "midi": 55,
                    "time": 9.466633500000006,
                    "velocity": 0.36220472440944884,
                    "duration": 0.05772337500000013
                },
                {
                    "name": "A#3",
                    "midi": 58,
                    "time": 9.697527000000006,
                    "velocity": 0.4015748031496063,
                    "duration": 0.05772337500000013
                },
                {
                    "name": "C3",
                    "midi": 48,
                    "time": 9.870697125000007,
                    "velocity": 0.30708661417322836,
                    "duration": 0.07696450000000077
                },
                {
                    "name": "A#2",
                    "midi": 46,
                    "time": 9.928420500000007,
                    "velocity": 0.36220472440944884,
                    "duration": 0.1346878750000009
                },
                {
                    "name": "A2",
                    "midi": 45,
                    "time": 10.043867250000007,
                    "velocity": 0.33070866141732286,
                    "duration": 0.1346878750000009
                },
                {
                    "name": "A#2",
                    "midi": 46,
                    "time": 10.159314000000007,
                    "velocity": 0.3543307086614173,
                    "duration": 0.23089350000000053
                },
                {
                    "name": "D#3",
                    "midi": 51,
                    "time": 10.390207500000008,
                    "velocity": 0.33070866141732286,
                    "duration": 0.05772337500000013
                },
                {
                    "name": "F2",
                    "midi": 41,
                    "time": 10.563377625000008,
                    "velocity": 0.29133858267716534,
                    "duration": 0.07696450000000077
                },
                {
                    "name": "D#2",
                    "midi": 39,
                    "time": 10.621101000000008,
                    "velocity": 0.33070866141732286,
                    "duration": 0.1346878750000009
                },
                {
                    "name": "D2",
                    "midi": 38,
                    "time": 10.736547750000009,
                    "velocity": 0.30708661417322836,
                    "duration": 0.1346878750000009
                },
                {
                    "name": "D#2",
                    "midi": 39,
                    "time": 10.851994500000009,
                    "velocity": 0.33070866141732286,
                    "duration": 0.11544675000000026
                },
                {
                    "name": "D#4",
                    "midi": 63,
                    "time": 11.08288800000001,
                    "velocity": 0.2283464566929134,
                    "duration": 0.11544675000000026
                },
                {
                    "name": "G4",
                    "midi": 67,
                    "time": 11.08288800000001,
                    "velocity": 0.2677165354330709,
                    "duration": 0.11544675000000026
                },
                {
                    "name": "A#4",
                    "midi": 70,
                    "time": 11.19833475000001,
                    "velocity": 0.2204724409448819,
                    "duration": 0.11544675000000026
                },
                {
                    "name": "D#4",
                    "midi": 63,
                    "time": 11.31378150000001,
                    "velocity": 0.2047244094488189,
                    "duration": 0.11544675000000026
                },
                {
                    "name": "G4",
                    "midi": 67,
                    "time": 11.31378150000001,
                    "velocity": 0.25196850393700787,
                    "duration": 0.11544675000000026
                },
                {
                    "name": "A#4",
                    "midi": 70,
                    "time": 11.42922825000001,
                    "velocity": 0.2204724409448819,
                    "duration": 0.11544675000000026
                },
                {
                    "name": "D#4",
                    "midi": 63,
                    "time": 11.54467500000001,
                    "velocity": 0.2047244094488189,
                    "duration": 0.11544675000000026
                },
                {
                    "name": "G4",
                    "midi": 67,
                    "time": 11.54467500000001,
                    "velocity": 0.25196850393700787,
                    "duration": 0.11544675000000026
                },
                {
                    "name": "A#4",
                    "midi": 70,
                    "time": 11.66012175000001,
                    "velocity": 0.2204724409448819,
                    "duration": 0.11544675000000026
                },
                {
                    "name": "D4",
                    "midi": 62,
                    "time": 11.775568500000011,
                    "velocity": 0.2047244094488189,
                    "duration": 0.11544675000000026
                },
                {
                    "name": "F4",
                    "midi": 65,
                    "time": 11.775568500000011,
                    "velocity": 0.25196850393700787,
                    "duration": 0.11544675000000026
                },
                {
                    "name": "A#4",
                    "midi": 70,
                    "time": 11.891015250000011,
                    "velocity": 0.2204724409448819,
                    "duration": 0.11544675000000026
                },
                {
                    "name": "D4",
                    "midi": 62,
                    "time": 12.006462000000012,
                    "velocity": 0.2047244094488189,
                    "duration": 0.11544675000000026
                },
                {
                    "name": "F4",
                    "midi": 65,
                    "time": 12.006462000000012,
                    "velocity": 0.25196850393700787,
                    "duration": 0.11544675000000026
                },
                {
                    "name": "A#4",
                    "midi": 70,
                    "time": 12.121908750000012,
                    "velocity": 0.2204724409448819,
                    "duration": 0.11544675000000026
                },
                {
                    "name": "C#4",
                    "midi": 61,
                    "time": 12.237355500000012,
                    "velocity": 0.2047244094488189,
                    "duration": 0.11544675000000026
                },
                {
                    "name": "F4",
                    "midi": 65,
                    "time": 12.237355500000012,
                    "velocity": 0.25196850393700787,
                    "duration": 0.11544675000000026
                },
                {
                    "name": "A#4",
                    "midi": 70,
                    "time": 12.352802250000012,
                    "velocity": 0.2204724409448819,
                    "duration": 0.11544675000000026
                },
                {
                    "name": "C4",
                    "midi": 60,
                    "time": 12.468249000000013,
                    "velocity": 0.2047244094488189,
                    "duration": 0.11544675000000026
                },
                {
                    "name": "F4",
                    "midi": 65,
                    "time": 12.468249000000013,
                    "velocity": 0.25196850393700787,
                    "duration": 0.11544675000000026
                },
                {
                    "name": "G#4",
                    "midi": 68,
                    "time": 12.583695750000013,
                    "velocity": 0.2204724409448819,
                    "duration": 0.11544675000000026
                },
                {
                    "name": "C4",
                    "midi": 60,
                    "time": 12.699142500000013,
                    "velocity": 0.2047244094488189,
                    "duration": 0.11544675000000026
                },
                {
                    "name": "F4",
                    "midi": 65,
                    "time": 12.699142500000013,
                    "velocity": 0.25196850393700787,
                    "duration": 0.11544675000000026
                },
                {
                    "name": "G#4",
                    "midi": 68,
                    "time": 12.814589250000013,
                    "velocity": 0.2204724409448819,
                    "duration": 0.11544675000000026
                },
                {
                    "name": "C4",
                    "midi": 60,
                    "time": 12.930036000000014,
                    "velocity": 0.2047244094488189,
                    "duration": 0.11544675000000026
                },
                {
                    "name": "F4",
                    "midi": 65,
                    "time": 12.930036000000014,
                    "velocity": 0.25196850393700787,
                    "duration": 0.11544675000000026
                },
                {
                    "name": "G#4",
                    "midi": 68,
                    "time": 13.045482750000014,
                    "velocity": 0.2204724409448819,
                    "duration": 0.11544675000000026
                },
                {
                    "name": "C4",
                    "midi": 60,
                    "time": 13.160929500000014,
                    "velocity": 0.2047244094488189,
                    "duration": 0.11544675000000026
                },
                {
                    "name": "F4",
                    "midi": 65,
                    "time": 13.160929500000014,
                    "velocity": 0.25196850393700787,
                    "duration": 0.11544675000000026
                },
                {
                    "name": "G4",
                    "midi": 67,
                    "time": 13.276376250000014,
                    "velocity": 0.2204724409448819,
                    "duration": 0.11544675000000026
                },
                {
                    "name": "C4",
                    "midi": 60,
                    "time": 13.391823000000015,
                    "velocity": 0.2047244094488189,
                    "duration": 0.11544675000000026
                },
                {
                    "name": "E4",
                    "midi": 64,
                    "time": 13.391823000000015,
                    "velocity": 0.25196850393700787,
                    "duration": 0.11544675000000026
                },
                {
                    "name": "G4",
                    "midi": 67,
                    "time": 13.507269750000015,
                    "velocity": 0.2204724409448819,
                    "duration": 0.11544675000000026
                },
                {
                    "name": "C4",
                    "midi": 60,
                    "time": 13.622716500000015,
                    "velocity": 0.2047244094488189,
                    "duration": 0.11544675000000026
                },
                {
                    "name": "E4",
                    "midi": 64,
                    "time": 13.622716500000015,
                    "velocity": 0.25196850393700787,
                    "duration": 0.11544675000000026
                },
                {
                    "name": "G4",
                    "midi": 67,
                    "time": 13.738163250000015,
                    "velocity": 0.23622047244094488,
                    "duration": 0.11544675000000026
                },
                {
                    "name": "G#3",
                    "midi": 56,
                    "time": 13.853610000000016,
                    "velocity": 0.29133858267716534,
                    "duration": 0.6926805000000016
                },
                {
                    "name": "C4",
                    "midi": 60,
                    "time": 13.853610000000016,
                    "velocity": 0.3464566929133858,
                    "duration": 0.23089350000000053
                },
                {
                    "name": "C#4",
                    "midi": 61,
                    "time": 14.084503500000016,
                    "velocity": 0.31496062992125984,
                    "duration": 0.23089350000000053
                },
                {
                    "name": "C4",
                    "midi": 60,
                    "time": 14.315397000000017,
                    "velocity": 0.31496062992125984,
                    "duration": 0.23089350000000053
                },
                {
                    "name": "C#3",
                    "midi": 49,
                    "time": 14.546290500000017,
                    "velocity": 0.29133858267716534,
                    "duration": 0.6926805000000016
                },
                {
                    "name": "A#3",
                    "midi": 58,
                    "time": 14.546290500000017,
                    "velocity": 0.3464566929133858,
                    "duration": 0.23089350000000053
                },
                {
                    "name": "F3",
                    "midi": 53,
                    "time": 14.777184000000018,
                    "velocity": 0.33070866141732286,
                    "duration": 0.23089350000000053
                },
                {
                    "name": "G3",
                    "midi": 55,
                    "time": 15.008077500000018,
                    "velocity": 0.3464566929133858,
                    "duration": 0.23089350000000053
                },
                {
                    "name": "A#3",
                    "midi": 58,
                    "time": 15.181247625000019,
                    "velocity": 0.3464566929133858,
                    "duration": 0.05772337500000013
                },
                {
                    "name": "D#3",
                    "midi": 51,
                    "time": 15.238971000000019,
                    "velocity": 0.29133858267716534,
                    "duration": 1.3853610000000014
                },
                {
                    "name": "G#3",
                    "midi": 56,
                    "time": 15.238971000000019,
                    "velocity": 0.3464566929133858,
                    "duration": 0.23089350000000053
                },
                {
                    "name": "G3",
                    "midi": 55,
                    "time": 15.46986450000002,
                    "velocity": 0.2992125984251969,
                    "duration": 0.23089350000000053
                },
                {
                    "name": "G#3",
                    "midi": 56,
                    "time": 15.70075800000002,
                    "velocity": 0.2755905511811024,
                    "duration": 0.23089350000000053
                },
                {
                    "name": "A#3",
                    "midi": 58,
                    "time": 15.93165150000002,
                    "velocity": 0.29133858267716534,
                    "duration": 0.4617869999999993
                },
                {
                    "name": "B3",
                    "midi": 59,
                    "time": 16.39343850000002,
                    "velocity": 0.2677165354330709,
                    "duration": 0.23089350000000053
                },
                {
                    "name": "G#3",
                    "midi": 56,
                    "time": 16.62433200000002,
                    "velocity": 0.2283464566929134,
                    "duration": 0.11544675000000026
                },
                {
                    "name": "C4",
                    "midi": 60,
                    "time": 16.62433200000002,
                    "velocity": 0.2677165354330709,
                    "duration": 0.11544675000000026
                },
                {
                    "name": "D#4",
                    "midi": 63,
                    "time": 16.73977875000002,
                    "velocity": 0.2204724409448819,
                    "duration": 0.11544675000000026
                },
                {
                    "name": "G#3",
                    "midi": 56,
                    "time": 16.85522550000002,
                    "velocity": 0.2047244094488189,
                    "duration": 0.11544675000000026
                },
                {
                    "name": "C4",
                    "midi": 60,
                    "time": 16.85522550000002,
                    "velocity": 0.25196850393700787,
                    "duration": 0.11544675000000026
                },
                {
                    "name": "D#4",
                    "midi": 63,
                    "time": 16.97067225000002,
                    "velocity": 0.2204724409448819,
                    "duration": 0.11544675000000026
                },
                {
                    "name": "G#3",
                    "midi": 56,
                    "time": 17.08611900000002,
                    "velocity": 0.2047244094488189,
                    "duration": 0.11544674999999671
                },
                {
                    "name": "C4",
                    "midi": 60,
                    "time": 17.08611900000002,
                    "velocity": 0.25196850393700787,
                    "duration": 0.11544674999999671
                },
                {
                    "name": "D#4",
                    "midi": 63,
                    "time": 17.201565750000018,
                    "velocity": 0.2204724409448819,
                    "duration": 0.11544675000000026
                },
                {
                    "name": "G3",
                    "midi": 55,
                    "time": 17.31701250000002,
                    "velocity": 0.2047244094488189,
                    "duration": 0.11544674999999671
                },
                {
                    "name": "A#3",
                    "midi": 58,
                    "time": 17.31701250000002,
                    "velocity": 0.25196850393700787,
                    "duration": 0.11544674999999671
                },
                {
                    "name": "D#4",
                    "midi": 63,
                    "time": 17.432459250000015,
                    "velocity": 0.2204724409448819,
                    "duration": 0.11544675000000026
                },
                {
                    "name": "G3",
                    "midi": 55,
                    "time": 17.547906000000015,
                    "velocity": 0.2047244094488189,
                    "duration": 0.11544675000000026
                },
                {
                    "name": "A#3",
                    "midi": 58,
                    "time": 17.547906000000015,
                    "velocity": 0.25196850393700787,
                    "duration": 0.11544675000000026
                },
                {
                    "name": "D#4",
                    "midi": 63,
                    "time": 17.663352750000016,
                    "velocity": 0.2204724409448819,
                    "duration": 0.11544675000000026
                },
                {
                    "name": "F#3",
                    "midi": 54,
                    "time": 17.778799500000016,
                    "velocity": 0.2047244094488189,
                    "duration": 0.11544675000000026
                },
                {
                    "name": "A#3",
                    "midi": 58,
                    "time": 17.778799500000016,
                    "velocity": 0.25196850393700787,
                    "duration": 0.11544675000000026
                },
                {
                    "name": "D#4",
                    "midi": 63,
                    "time": 17.894246250000016,
                    "velocity": 0.2204724409448819,
                    "duration": 0.11544675000000026
                },
                {
                    "name": "F3",
                    "midi": 53,
                    "time": 18.009693000000016,
                    "velocity": 0.2047244094488189,
                    "duration": 0.11544674999999671
                },
                {
                    "name": "A#3",
                    "midi": 58,
                    "time": 18.009693000000016,
                    "velocity": 0.25196850393700787,
                    "duration": 0.11544674999999671
                },
                {
                    "name": "C#4",
                    "midi": 61,
                    "time": 18.125139750000013,
                    "velocity": 0.2204724409448819,
                    "duration": 0.11544675000000026
                },
                {
                    "name": "F3",
                    "midi": 53,
                    "time": 18.240586500000013,
                    "velocity": 0.2047244094488189,
                    "duration": 0.11544675000000026
                },
                {
                    "name": "A#3",
                    "midi": 58,
                    "time": 18.240586500000013,
                    "velocity": 0.25196850393700787,
                    "duration": 0.11544675000000026
                },
                {
                    "name": "C#4",
                    "midi": 61,
                    "time": 18.356033250000014,
                    "velocity": 0.2204724409448819,
                    "duration": 0.11544675000000026
                },
                {
                    "name": "F3",
                    "midi": 53,
                    "time": 18.471480000000014,
                    "velocity": 0.2047244094488189,
                    "duration": 0.11544675000000026
                },
                {
                    "name": "A#3",
                    "midi": 58,
                    "time": 18.471480000000014,
                    "velocity": 0.25196850393700787,
                    "duration": 0.11544675000000026
                },
                {
                    "name": "C#4",
                    "midi": 61,
                    "time": 18.586926750000014,
                    "velocity": 0.2204724409448819,
                    "duration": 0.11544675000000026
                },
                {
                    "name": "F3",
                    "midi": 53,
                    "time": 18.702373500000014,
                    "velocity": 0.2047244094488189,
                    "duration": 0.11544674999999671
                },
                {
                    "name": "A#3",
                    "midi": 58,
                    "time": 18.702373500000014,
                    "velocity": 0.25196850393700787,
                    "duration": 0.11544674999999671
                },
                {
                    "name": "C4",
                    "midi": 60,
                    "time": 18.81782025000001,
                    "velocity": 0.2204724409448819,
                    "duration": 0.11544675000000026
                },
                {
                    "name": "F3",
                    "midi": 53,
                    "time": 18.93326700000001,
                    "velocity": 0.2047244094488189,
                    "duration": 0.11544675000000382
                },
                {
                    "name": "A3",
                    "midi": 57,
                    "time": 18.93326700000001,
                    "velocity": 0.25196850393700787,
                    "duration": 0.11544675000000382
                },
                {
                    "name": "C4",
                    "midi": 60,
                    "time": 19.048713750000015,
                    "velocity": 0.2204724409448819,
                    "duration": 0.11544675000000026
                },
                {
                    "name": "F3",
                    "midi": 53,
                    "time": 19.164160500000015,
                    "velocity": 0.2047244094488189,
                    "duration": 0.11544675000000026
                },
                {
                    "name": "A3",
                    "midi": 57,
                    "time": 19.164160500000015,
                    "velocity": 0.25196850393700787,
                    "duration": 0.11544675000000026
                },
                {
                    "name": "C4",
                    "midi": 60,
                    "time": 19.279607250000016,
                    "velocity": 0.23622047244094488,
                    "duration": 0.11544675000000026
                },
                {
                    "name": "C#4",
                    "midi": 61,
                    "time": 19.395054000000016,
                    "velocity": 0.29133858267716534,
                    "duration": 0.6926805000000016
                },
                {
                    "name": "F4",
                    "midi": 65,
                    "time": 19.395054000000016,
                    "velocity": 0.3464566929133858,
                    "duration": 0.23089350000000053
                },
                {
                    "name": "F#4",
                    "midi": 66,
                    "time": 19.625947500000017,
                    "velocity": 0.31496062992125984,
                    "duration": 0.23089350000000053
                },
                {
                    "name": "F4",
                    "midi": 65,
                    "time": 19.856841000000017,
                    "velocity": 0.31496062992125984,
                    "duration": 0.23089350000000053
                },
                {
                    "name": "F#3",
                    "midi": 54,
                    "time": 20.087734500000018,
                    "velocity": 0.29133858267716534,
                    "duration": 0.692680499999998
                },
                {
                    "name": "D#4",
                    "midi": 63,
                    "time": 20.087734500000018,
                    "velocity": 0.3464566929133858,
                    "duration": 0.23089350000000053
                },
                {
                    "name": "A#3",
                    "midi": 58,
                    "time": 20.318628000000018,
                    "velocity": 0.33070866141732286,
                    "duration": 0.23089350000000053
                },
                {
                    "name": "C4",
                    "midi": 60,
                    "time": 20.54952150000002,
                    "velocity": 0.3464566929133858,
                    "duration": 0.23089349999999698
                },
                {
                    "name": "D#4",
                    "midi": 63,
                    "time": 20.722691625000017,
                    "velocity": 0.3228346456692913,
                    "duration": 0.057723374999998356
                },
                {
                    "name": "G#3",
                    "midi": 56,
                    "time": 20.780415000000016,
                    "velocity": 0.29133858267716534,
                    "duration": 1.3853610000000032
                },
                {
                    "name": "C#4",
                    "midi": 61,
                    "time": 20.780415000000016,
                    "velocity": 0.3464566929133858,
                    "duration": 0.23089350000000053
                },
                {
                    "name": "C4",
                    "midi": 60,
                    "time": 21.011308500000016,
                    "velocity": 0.2992125984251969,
                    "duration": 0.23089350000000053
                },
                {
                    "name": "C#4",
                    "midi": 61,
                    "time": 21.242202000000017,
                    "velocity": 0.2755905511811024,
                    "duration": 0.23089350000000053
                },
                {
                    "name": "D#4",
                    "midi": 63,
                    "time": 21.473095500000017,
                    "velocity": 0.29133858267716534,
                    "duration": 0.46178700000000106
                },
                {
                    "name": "E4",
                    "midi": 64,
                    "time": 21.93488250000002,
                    "velocity": 0.2677165354330709,
                    "duration": 0.23089350000000053
                },
                {
                    "name": "C#4",
                    "midi": 61,
                    "time": 22.16577600000002,
                    "velocity": 0.2283464566929134,
                    "duration": 0.057723374999998356
                },
                {
                    "name": "F4",
                    "midi": 65,
                    "time": 22.16577600000002,
                    "velocity": 0.2677165354330709,
                    "duration": 0.057723374999998356
                },
                {
                    "name": "C#3",
                    "midi": 49,
                    "time": 22.396669500000016,
                    "velocity": 0.2204724409448819,
                    "duration": 0.057723374999998356
                },
                {
                    "name": "C#3",
                    "midi": 49,
                    "time": 22.627563000000013,
                    "velocity": 0.2204724409448819,
                    "duration": 0.057723374999998356
                },
                {
                    "name": "C#4",
                    "midi": 61,
                    "time": 22.85845650000001,
                    "velocity": 0.2047244094488189,
                    "duration": 0.057723374999998356
                },
                {
                    "name": "F4",
                    "midi": 65,
                    "time": 22.86134266875001,
                    "velocity": 0.25196850393700787,
                    "duration": 0.057723374999998356
                },
                {
                    "name": "C#3",
                    "midi": 49,
                    "time": 23.089350000000007,
                    "velocity": 0.2204724409448819,
                    "duration": 0.057723374999998356
                },
                {
                    "name": "C#3",
                    "midi": 49,
                    "time": 23.320243500000004,
                    "velocity": 0.2204724409448819,
                    "duration": 0.057723374999998356
                },
                {
                    "name": "C#4",
                    "midi": 61,
                    "time": 23.551137,
                    "velocity": 0.2204724409448819,
                    "duration": 0.057723374999998356
                },
                {
                    "name": "F4",
                    "midi": 65,
                    "time": 23.551137,
                    "velocity": 0.25984251968503935,
                    "duration": 0.057723374999998356
                },
                {
                    "name": "C#3",
                    "midi": 49,
                    "time": 23.782030499999998,
                    "velocity": 0.2204724409448819,
                    "duration": 0.057723374999998356
                },
                {
                    "name": "C#3",
                    "midi": 49,
                    "time": 24.012923999999995,
                    "velocity": 0.2204724409448819,
                    "duration": 0.057723374999998356
                },
                {
                    "name": "C#4",
                    "midi": 61,
                    "time": 24.24381749999999,
                    "velocity": 0.2204724409448819,
                    "duration": 0.057723374999998356
                },
                {
                    "name": "F#4",
                    "midi": 66,
                    "time": 24.24381749999999,
                    "velocity": 0.2677165354330709,
                    "duration": 0.057723374999998356
                },
                {
                    "name": "C#3",
                    "midi": 49,
                    "time": 24.47471099999999,
                    "velocity": 0.2204724409448819,
                    "duration": 0.057723374999998356
                },
                {
                    "name": "C#3",
                    "midi": 49,
                    "time": 24.705604499999986,
                    "velocity": 0.2204724409448819,
                    "duration": 0.057723374999998356
                },
                {
                    "name": "C#4",
                    "midi": 61,
                    "time": 24.936497999999983,
                    "velocity": 0.2204724409448819,
                    "duration": 0.057723374999998356
                },
                {
                    "name": "F4",
                    "midi": 65,
                    "time": 24.936497999999983,
                    "velocity": 0.25984251968503935,
                    "duration": 0.057723374999998356
                },
                {
                    "name": "C#3",
                    "midi": 49,
                    "time": 25.16739149999998,
                    "velocity": 0.2204724409448819,
                    "duration": 0.057723374999998356
                },
                {
                    "name": "C#3",
                    "midi": 49,
                    "time": 25.398284999999976,
                    "velocity": 0.25984251968503935,
                    "duration": 0.057723374999998356
                },
                {
                    "name": "C#4",
                    "midi": 61,
                    "time": 25.629178499999973,
                    "velocity": 0.2440944881889764,
                    "duration": 0.057723374999998356
                },
                {
                    "name": "F#4",
                    "midi": 66,
                    "time": 25.629178499999973,
                    "velocity": 0.2992125984251969,
                    "duration": 0.057723374999998356
                },
                {
                    "name": "C#3",
                    "midi": 49,
                    "time": 25.86007199999997,
                    "velocity": 0.2204724409448819,
                    "duration": 0.057723374999998356
                },
                {
                    "name": "C#3",
                    "midi": 49,
                    "time": 26.090965499999967,
                    "velocity": 0.2204724409448819,
                    "duration": 0.057723374999998356
                },
                {
                    "name": "A#3",
                    "midi": 58,
                    "time": 26.321858999999964,
                    "velocity": 0.2204724409448819,
                    "duration": 0.057723374999998356
                },
                {
                    "name": "C#4",
                    "midi": 61,
                    "time": 26.321858999999964,
                    "velocity": 0.2204724409448819,
                    "duration": 0.057723374999998356
                },
                {
                    "name": "F#4",
                    "midi": 66,
                    "time": 26.321858999999964,
                    "velocity": 0.25984251968503935,
                    "duration": 0.057723374999998356
                },
                {
                    "name": "C#3",
                    "midi": 49,
                    "time": 26.55275249999996,
                    "velocity": 0.1968503937007874,
                    "duration": 0.057723374999998356
                },
                {
                    "name": "C#3",
                    "midi": 49,
                    "time": 26.78364599999996,
                    "velocity": 0.1968503937007874,
                    "duration": 0.057723374999998356
                },
                {
                    "name": "A#3",
                    "midi": 58,
                    "time": 27.014539499999955,
                    "velocity": 0.1968503937007874,
                    "duration": 0.057723374999998356
                },
                {
                    "name": "C#4",
                    "midi": 61,
                    "time": 27.014539499999955,
                    "velocity": 0.1968503937007874,
                    "duration": 0.057723374999998356
                },
                {
                    "name": "F#4",
                    "midi": 66,
                    "time": 27.014539499999955,
                    "velocity": 0.23622047244094488,
                    "duration": 0.057723374999998356
                },
                {
                    "name": "C#3",
                    "midi": 49,
                    "time": 27.245432999999952,
                    "velocity": 0.1968503937007874,
                    "duration": 0.057723374999998356
                },
                {
                    "name": "C#3",
                    "midi": 49,
                    "time": 27.47632649999995,
                    "velocity": 0.1968503937007874,
                    "duration": 0.057723374999998356
                },
                {
                    "name": "G#3",
                    "midi": 56,
                    "time": 27.707219999999946,
                    "velocity": 0.1889763779527559,
                    "duration": 0.057723374999998356
                },
                {
                    "name": "C#4",
                    "midi": 61,
                    "time": 27.707219999999946,
                    "velocity": 0.2283464566929134,
                    "duration": 0.057723374999998356
                },
                {
                    "name": "C#3",
                    "midi": 49,
                    "time": 27.938113499999943,
                    "velocity": 0.1889763779527559,
                    "duration": 0.05772337500000191
                },
                {
                    "name": "C#3",
                    "midi": 49,
                    "time": 28.169006999999944,
                    "velocity": 0.1889763779527559,
                    "duration": 0.057723374999998356
                },
                {
                    "name": "F#3",
                    "midi": 54,
                    "time": 28.39990049999994,
                    "velocity": 0.1968503937007874,
                    "duration": 0.057723374999998356
                },
                {
                    "name": "A#3",
                    "midi": 58,
                    "time": 28.39990049999994,
                    "velocity": 0.23622047244094488,
                    "duration": 0.057723374999998356
                },
                {
                    "name": "F#2",
                    "midi": 42,
                    "time": 28.630793999999938,
                    "velocity": 0.1889763779527559,
                    "duration": 0.05772337500000191
                },
                {
                    "name": "F#2",
                    "midi": 42,
                    "time": 28.861687499999938,
                    "velocity": 0.1889763779527559,
                    "duration": 0.057723374999998356
                },
                {
                    "name": "D#4",
                    "midi": 63,
                    "time": 29.092580999999935,
                    "velocity": 0.1889763779527559,
                    "duration": 0.05772337500000191
                },
                {
                    "name": "F#4",
                    "midi": 66,
                    "time": 29.092580999999935,
                    "velocity": 0.2283464566929134,
                    "duration": 0.05772337500000191
                },
                {
                    "name": "G#3",
                    "midi": 56,
                    "time": 29.323474499999936,
                    "velocity": 0.1889763779527559,
                    "duration": 0.057723374999998356
                },
                {
                    "name": "G#3",
                    "midi": 56,
                    "time": 29.554367999999933,
                    "velocity": 0.1889763779527559,
                    "duration": 0.057723374999998356
                },
                {
                    "name": "F4",
                    "midi": 65,
                    "time": 29.78526149999993,
                    "velocity": 0.2283464566929134,
                    "duration": 0.057723374999998356
                },
                {
                    "name": "C#4",
                    "midi": 61,
                    "time": 29.78526149999993,
                    "velocity": 0.1889763779527559,
                    "duration": 0.057723374999998356
                },
                {
                    "name": "C#3",
                    "midi": 49,
                    "time": 30.016154999999927,
                    "velocity": 0.1889763779527559,
                    "duration": 0.057723374999998356
                },
                {
                    "name": "C#3",
                    "midi": 49,
                    "time": 30.247048499999924,
                    "velocity": 0.1889763779527559,
                    "duration": 0.057723374999998356
                },
                {
                    "name": "C#4",
                    "midi": 61,
                    "time": 30.47794199999992,
                    "velocity": 0.1968503937007874,
                    "duration": 0.057723374999998356
                },
                {
                    "name": "F4",
                    "midi": 65,
                    "time": 30.47794199999992,
                    "velocity": 0.23622047244094488,
                    "duration": 0.057723374999998356
                },
                {
                    "name": "C#3",
                    "midi": 49,
                    "time": 30.708835499999918,
                    "velocity": 0.1968503937007874,
                    "duration": 0.057723374999998356
                },
                {
                    "name": "C#3",
                    "midi": 49,
                    "time": 30.939728999999915,
                    "velocity": 0.1968503937007874,
                    "duration": 0.057723374999998356
                },
                {
                    "name": "C#4",
                    "midi": 61,
                    "time": 31.17062249999991,
                    "velocity": 0.1968503937007874,
                    "duration": 0.057723374999998356
                },
                {
                    "name": "F4",
                    "midi": 65,
                    "time": 31.17350866874991,
                    "velocity": 0.2440944881889764,
                    "duration": 0.057723374999998356
                },
                {
                    "name": "C#3",
                    "midi": 49,
                    "time": 31.40151599999991,
                    "velocity": 0.2204724409448819,
                    "duration": 0.057723374999998356
                },
                {
                    "name": "C#3",
                    "midi": 49,
                    "time": 31.632409499999905,
                    "velocity": 0.2204724409448819,
                    "duration": 0.057723374999998356
                },
                {
                    "name": "C#4",
                    "midi": 61,
                    "time": 31.863302999999902,
                    "velocity": 0.2204724409448819,
                    "duration": 0.057723374999998356
                },
                {
                    "name": "F4",
                    "midi": 65,
                    "time": 31.863302999999902,
                    "velocity": 0.25984251968503935,
                    "duration": 0.057723374999998356
                },
                {
                    "name": "C#3",
                    "midi": 49,
                    "time": 32.0941964999999,
                    "velocity": 0.2204724409448819,
                    "duration": 0.05772337500000191
                },
                {
                    "name": "C#3",
                    "midi": 49,
                    "time": 32.3250899999999,
                    "velocity": 0.2204724409448819,
                    "duration": 0.05772337500000191
                },
                {
                    "name": "C#4",
                    "midi": 61,
                    "time": 32.555983499999904,
                    "velocity": 0.2204724409448819,
                    "duration": 0.05772337500000191
                },
                {
                    "name": "F#4",
                    "midi": 66,
                    "time": 32.555983499999904,
                    "velocity": 0.2677165354330709,
                    "duration": 0.05772337500000191
                },
                {
                    "name": "C#3",
                    "midi": 49,
                    "time": 32.786876999999905,
                    "velocity": 0.2204724409448819,
                    "duration": 0.05772337500000191
                },
                {
                    "name": "C#3",
                    "midi": 49,
                    "time": 33.017770499999905,
                    "velocity": 0.2204724409448819,
                    "duration": 0.05772337500000191
                },
                {
                    "name": "C#4",
                    "midi": 61,
                    "time": 33.248663999999906,
                    "velocity": 0.2204724409448819,
                    "duration": 0.05772337500000191
                },
                {
                    "name": "F4",
                    "midi": 65,
                    "time": 33.248663999999906,
                    "velocity": 0.25984251968503935,
                    "duration": 0.05772337500000191
                },
                {
                    "name": "C#3",
                    "midi": 49,
                    "time": 33.479557499999906,
                    "velocity": 0.2204724409448819,
                    "duration": 0.05772337500000191
                },
                {
                    "name": "C#3",
                    "midi": 49,
                    "time": 33.71045099999991,
                    "velocity": 0.25984251968503935,
                    "duration": 0.05772337500000191
                },
                {
                    "name": "C#4",
                    "midi": 61,
                    "time": 33.94134449999991,
                    "velocity": 0.2440944881889764,
                    "duration": 0.05772337500000191
                },
                {
                    "name": "F#4",
                    "midi": 66,
                    "time": 33.94134449999991,
                    "velocity": 0.2992125984251969,
                    "duration": 0.05772337500000191
                },
                {
                    "name": "C#3",
                    "midi": 49,
                    "time": 34.17223799999991,
                    "velocity": 0.2204724409448819,
                    "duration": 0.05772337500000191
                },
                {
                    "name": "C#3",
                    "midi": 49,
                    "time": 34.40313149999991,
                    "velocity": 0.2204724409448819,
                    "duration": 0.05772337500000191
                },
                {
                    "name": "A3",
                    "midi": 57,
                    "time": 34.63402499999991,
                    "velocity": 0.2204724409448819,
                    "duration": 0.05772337500000191
                },
                {
                    "name": "C#4",
                    "midi": 61,
                    "time": 34.63402499999991,
                    "velocity": 0.2204724409448819,
                    "duration": 0.05772337500000191
                },
                {
                    "name": "F#4",
                    "midi": 66,
                    "time": 34.63402499999991,
                    "velocity": 0.25984251968503935,
                    "duration": 0.05772337500000191
                },
                {
                    "name": "F#3",
                    "midi": 54,
                    "time": 34.86491849999991,
                    "velocity": 0.1968503937007874,
                    "duration": 0.05772337500000191
                },
                {
                    "name": "F#3",
                    "midi": 54,
                    "time": 35.09581199999991,
                    "velocity": 0.1968503937007874,
                    "duration": 0.05772337500000191
                },
                {
                    "name": "A3",
                    "midi": 57,
                    "time": 35.32670549999991,
                    "velocity": 0.1968503937007874,
                    "duration": 0.05772337500000191
                },
                {
                    "name": "C#4",
                    "midi": 61,
                    "time": 35.32670549999991,
                    "velocity": 0.1968503937007874,
                    "duration": 0.05772337500000191
                },
                {
                    "name": "F#4",
                    "midi": 66,
                    "time": 35.32670549999991,
                    "velocity": 0.23622047244094488,
                    "duration": 0.05772337500000191
                },
                {
                    "name": "F#3",
                    "midi": 54,
                    "time": 35.55759899999991,
                    "velocity": 0.1968503937007874,
                    "duration": 0.05772337500000191
                },
                {
                    "name": "F#3",
                    "midi": 54,
                    "time": 35.78849249999991,
                    "velocity": 0.1968503937007874,
                    "duration": 0.05772337500000191
                },
                {
                    "name": "F#4",
                    "midi": 66,
                    "time": 36.01938599999991,
                    "velocity": 0.2283464566929134,
                    "duration": 0.05772337500000191
                },
                {
                    "name": "A3",
                    "midi": 57,
                    "time": 36.01938599999991,
                    "velocity": 0.1889763779527559,
                    "duration": 0.05772337500000191
                },
                {
                    "name": "C#4",
                    "midi": 61,
                    "time": 36.01938599999991,
                    "velocity": 0.1889763779527559,
                    "duration": 0.05772337500000191
                },
                {
                    "name": "F#3",
                    "midi": 54,
                    "time": 36.25027949999991,
                    "velocity": 0.1889763779527559,
                    "duration": 0.05772337500000191
                },
                {
                    "name": "F#3",
                    "midi": 54,
                    "time": 36.48117299999991,
                    "velocity": 0.1889763779527559,
                    "duration": 0.05772337500000191
                },
                {
                    "name": "D4",
                    "midi": 62,
                    "time": 36.712066499999914,
                    "velocity": 0.1968503937007874,
                    "duration": 0.05772337500000191
                },
                {
                    "name": "F#4",
                    "midi": 66,
                    "time": 36.712066499999914,
                    "velocity": 0.23622047244094488,
                    "duration": 0.05772337500000191
                },
                {
                    "name": "D3",
                    "midi": 50,
                    "time": 36.942959999999914,
                    "velocity": 0.1889763779527559,
                    "duration": 0.0577233749999948
                },
                {
                    "name": "D3",
                    "midi": 50,
                    "time": 37.17385349999991,
                    "velocity": 0.1889763779527559,
                    "duration": 0.05772337500000191
                },
                {
                    "name": "D4",
                    "midi": 62,
                    "time": 37.40474699999991,
                    "velocity": 0.1889763779527559,
                    "duration": 0.05772337500000191
                },
                {
                    "name": "E4",
                    "midi": 64,
                    "time": 37.40474699999991,
                    "velocity": 0.2283464566929134,
                    "duration": 0.05772337500000191
                },
                {
                    "name": "E3",
                    "midi": 52,
                    "time": 37.63564049999991,
                    "velocity": 0.1889763779527559,
                    "duration": 0.05772337500000191
                },
                {
                    "name": "E3",
                    "midi": 52,
                    "time": 37.86653399999991,
                    "velocity": 0.1889763779527559,
                    "duration": 0.05772337500000191
                },
                {
                    "name": "E4",
                    "midi": 64,
                    "time": 38.09742749999991,
                    "velocity": 0.2283464566929134,
                    "duration": 0.05772337500000191
                },
                {
                    "name": "C#4",
                    "midi": 61,
                    "time": 38.09742749999991,
                    "velocity": 0.1889763779527559,
                    "duration": 0.05772337500000191
                },
                {
                    "name": "A3",
                    "midi": 57,
                    "time": 38.32832099999991,
                    "velocity": 0.1889763779527559,
                    "duration": 0.05772337500000191
                },
                {
                    "name": "A3",
                    "midi": 57,
                    "time": 38.55921449999991,
                    "velocity": 0.1889763779527559,
                    "duration": 0.05772337500000191
                },
                {
                    "name": "C#4",
                    "midi": 61,
                    "time": 38.79010799999991,
                    "velocity": 0.1968503937007874,
                    "duration": 0.05772337500000191
                },
                {
                    "name": "E4",
                    "midi": 64,
                    "time": 38.79010799999991,
                    "velocity": 0.23622047244094488,
                    "duration": 0.05772337500000191
                },
                {
                    "name": "A3",
                    "midi": 57,
                    "time": 39.02100149999991,
                    "velocity": 0.1968503937007874,
                    "duration": 0.05772337500000191
                },
                {
                    "name": "A3",
                    "midi": 57,
                    "time": 39.25189499999991,
                    "velocity": 0.2047244094488189,
                    "duration": 0.05772337500000191
                },
                {
                    "name": "E4",
                    "midi": 64,
                    "time": 39.48278849999991,
                    "velocity": 0.2283464566929134,
                    "duration": 0.0144308437499987
                },
                {
                    "name": "C#4",
                    "midi": 61,
                    "time": 39.48278849999991,
                    "velocity": 0.1889763779527559,
                    "duration": 0.0144308437499987
                },
                {
                    "name": "A3",
                    "midi": 57,
                    "time": 39.71368199999991,
                    "velocity": 0.1889763779527559,
                    "duration": 0.0144308437499987
                },
                {
                    "name": "A3",
                    "midi": 57,
                    "time": 39.944575499999914,
                    "velocity": 0.1889763779527559,
                    "duration": 0.0144308437499987
                },
                {
                    "name": "C#4",
                    "midi": 61,
                    "time": 40.175468999999914,
                    "velocity": 0.1968503937007874,
                    "duration": 0.05772337500000191
                },
                {
                    "name": "E4",
                    "midi": 64,
                    "time": 40.175468999999914,
                    "velocity": 0.23622047244094488,
                    "duration": 0.05772337500000191
                },
                {
                    "name": "A#3",
                    "midi": 58,
                    "time": 40.406362499999915,
                    "velocity": 0.1889763779527559,
                    "duration": 0.05772337500000191
                },
                {
                    "name": "A#3",
                    "midi": 58,
                    "time": 40.637255999999915,
                    "velocity": 0.1889763779527559,
                    "duration": 0.05772337500000191
                },
                {
                    "name": "D4",
                    "midi": 62,
                    "time": 40.868149499999916,
                    "velocity": 0.1889763779527559,
                    "duration": 0.05772337500000191
                },
                {
                    "name": "E4",
                    "midi": 64,
                    "time": 40.868149499999916,
                    "velocity": 0.2283464566929134,
                    "duration": 0.05772337500000191
                },
                {
                    "name": "B3",
                    "midi": 59,
                    "time": 41.09904299999992,
                    "velocity": 0.1889763779527559,
                    "duration": 0.05772337500000191
                },
                {
                    "name": "B3",
                    "midi": 59,
                    "time": 41.32993649999992,
                    "velocity": 0.1889763779527559,
                    "duration": 0.05772337500000191
                },
                {
                    "name": "E4",
                    "midi": 64,
                    "time": 41.56082999999992,
                    "velocity": 0.2283464566929134,
                    "duration": 0.05772337500000191
                },
                {
                    "name": "D4",
                    "midi": 62,
                    "time": 41.56082999999992,
                    "velocity": 0.1889763779527559,
                    "duration": 0.05772337500000191
                },
                {
                    "name": "B3",
                    "midi": 59,
                    "time": 41.79172349999992,
                    "velocity": 0.1889763779527559,
                    "duration": 0.05772337500000191
                },
                {
                    "name": "B3",
                    "midi": 59,
                    "time": 42.02261699999992,
                    "velocity": 0.1889763779527559,
                    "duration": 0.05772337500000191
                },
                {
                    "name": "D4",
                    "midi": 62,
                    "time": 42.25351049999992,
                    "velocity": 0.1732283464566929,
                    "duration": 0.05772337500000191
                },
                {
                    "name": "E4",
                    "midi": 64,
                    "time": 42.25351049999992,
                    "velocity": 0.1968503937007874,
                    "duration": 0.05772337500000191
                },
                {
                    "name": "B3",
                    "midi": 59,
                    "time": 42.48440399999992,
                    "velocity": 0.1732283464566929,
                    "duration": 0.05772337500000191
                },
                {
                    "name": "B3",
                    "midi": 59,
                    "time": 42.71529749999992,
                    "velocity": 0.1732283464566929,
                    "duration": 0.05772337500000191
                },
                {
                    "name": "E4",
                    "midi": 64,
                    "time": 42.94619099999992,
                    "velocity": 0.2283464566929134,
                    "duration": 0.05772337500000191
                },
                {
                    "name": "D4",
                    "midi": 62,
                    "time": 42.94619099999992,
                    "velocity": 0.1889763779527559,
                    "duration": 0.05772337500000191
                },
                {
                    "name": "B3",
                    "midi": 59,
                    "time": 43.17708449999992,
                    "velocity": 0.1889763779527559,
                    "duration": 0.05772337500000191
                },
                {
                    "name": "B3",
                    "midi": 59,
                    "time": 43.40797799999992,
                    "velocity": 0.1889763779527559,
                    "duration": 0.05772337500000191
                },
                {
                    "name": "D4",
                    "midi": 62,
                    "time": 43.63887149999992,
                    "velocity": 0.1968503937007874,
                    "duration": 0.05772337500000191
                },
                {
                    "name": "F4",
                    "midi": 65,
                    "time": 43.63887149999992,
                    "velocity": 0.23622047244094488,
                    "duration": 0.05772337500000191
                },
                {
                    "name": "B3",
                    "midi": 59,
                    "time": 43.86976499999992,
                    "velocity": 0.1889763779527559,
                    "duration": 0.05772337500000191
                },
                {
                    "name": "B3",
                    "midi": 59,
                    "time": 44.10065849999992,
                    "velocity": 0.1889763779527559,
                    "duration": 0.05772337500000191
                },
                {
                    "name": "D4",
                    "midi": 62,
                    "time": 44.331551999999924,
                    "velocity": 0.1889763779527559,
                    "duration": 0.05772337500000191
                },
                {
                    "name": "F4",
                    "midi": 65,
                    "time": 44.331551999999924,
                    "velocity": 0.2283464566929134,
                    "duration": 0.05772337500000191
                },
                {
                    "name": "B3",
                    "midi": 59,
                    "time": 44.562445499999924,
                    "velocity": 0.1889763779527559,
                    "duration": 0.05772337500000191
                },
                {
                    "name": "B3",
                    "midi": 59,
                    "time": 44.793338999999925,
                    "velocity": 0.1889763779527559,
                    "duration": 0.05772337500000191
                },
                {
                    "name": "F4",
                    "midi": 65,
                    "time": 45.024232499999925,
                    "velocity": 0.2283464566929134,
                    "duration": 0.05772337500000191
                },
                {
                    "name": "D4",
                    "midi": 62,
                    "time": 45.024232499999925,
                    "velocity": 0.1889763779527559,
                    "duration": 0.05772337500000191
                },
                {
                    "name": "B3",
                    "midi": 59,
                    "time": 45.255125999999926,
                    "velocity": 0.1889763779527559,
                    "duration": 0.05772337500000191
                },
                {
                    "name": "B3",
                    "midi": 59,
                    "time": 45.48601949999993,
                    "velocity": 0.1889763779527559,
                    "duration": 0.05772337500000191
                },
                {
                    "name": "B3",
                    "midi": 59,
                    "time": 45.71691299999993,
                    "velocity": 0.2047244094488189,
                    "duration": 0.11544675000000382
                },
                {
                    "name": "D4",
                    "midi": 62,
                    "time": 45.71691299999993,
                    "velocity": 0.25196850393700787,
                    "duration": 0.11544675000000382
                },
                {
                    "name": "F4",
                    "midi": 65,
                    "time": 45.83235974999993,
                    "velocity": 0.2047244094488189,
                    "duration": 0.11544674999999671
                },
                {
                    "name": "D4",
                    "midi": 62,
                    "time": 45.94780649999993,
                    "velocity": 0.2204724409448819,
                    "duration": 0.11544675000000382
                },
                {
                    "name": "B3",
                    "midi": 59,
                    "time": 45.94780649999993,
                    "velocity": 0.1732283464566929,
                    "duration": 0.11544675000000382
                },
                {
                    "name": "F4",
                    "midi": 65,
                    "time": 46.06325324999993,
                    "velocity": 0.2047244094488189,
                    "duration": 0.11544674999999671
                },
                {
                    "name": "D4",
                    "midi": 62,
                    "time": 46.17869999999993,
                    "velocity": 0.2204724409448819,
                    "duration": 0.11544674999999671
                },
                {
                    "name": "B3",
                    "midi": 59,
                    "time": 46.17869999999993,
                    "velocity": 0.1732283464566929,
                    "duration": 0.11544674999999671
                },
                {
                    "name": "F4",
                    "midi": 65,
                    "time": 46.294146749999925,
                    "velocity": 0.2047244094488189,
                    "duration": 0.11544674999999671
                },
                {
                    "name": "A#3",
                    "midi": 58,
                    "time": 46.40959349999992,
                    "velocity": 0.2047244094488189,
                    "duration": 0.11544675000000382
                },
                {
                    "name": "D4",
                    "midi": 62,
                    "time": 46.40959349999992,
                    "velocity": 0.25196850393700787,
                    "duration": 0.11544675000000382
                },
                {
                    "name": "F4",
                    "midi": 65,
                    "time": 46.525040249999925,
                    "velocity": 0.2047244094488189,
                    "duration": 0.11544674999999671
                },
                {
                    "name": "D4",
                    "midi": 62,
                    "time": 46.64048699999992,
                    "velocity": 0.2204724409448819,
                    "duration": 0.11544674999999671
                },
                {
                    "name": "A#3",
                    "midi": 58,
                    "time": 46.64048699999992,
                    "velocity": 0.1732283464566929,
                    "duration": 0.11544674999999671
                },
                {
                    "name": "F4",
                    "midi": 65,
                    "time": 46.75593374999992,
                    "velocity": 0.2047244094488189,
                    "duration": 0.11544674999999671
                },
                {
                    "name": "D4",
                    "midi": 62,
                    "time": 46.871380499999916,
                    "velocity": 0.2204724409448819,
                    "duration": 0.11544674999999671
                },
                {
                    "name": "A#3",
                    "midi": 58,
                    "time": 46.871380499999916,
                    "velocity": 0.1732283464566929,
                    "duration": 0.11544674999999671
                },
                {
                    "name": "F4",
                    "midi": 65,
                    "time": 46.98682724999991,
                    "velocity": 0.2047244094488189,
                    "duration": 0.11544674999999671
                },
                {
                    "name": "A#3",
                    "midi": 58,
                    "time": 47.10227399999991,
                    "velocity": 0.2440944881889764,
                    "duration": 0.11544675000000382
                },
                {
                    "name": "D4",
                    "midi": 62,
                    "time": 47.10227399999991,
                    "velocity": 0.2992125984251969,
                    "duration": 0.11544675000000382
                },
                {
                    "name": "F4",
                    "midi": 65,
                    "time": 47.21772074999991,
                    "velocity": 0.1968503937007874,
                    "duration": 0.11544674999999671
                },
                {
                    "name": "A#3",
                    "midi": 58,
                    "time": 47.33316749999991,
                    "velocity": 0.1889763779527559,
                    "duration": 0.11544675000000382
                },
                {
                    "name": "D4",
                    "midi": 62,
                    "time": 47.33316749999991,
                    "velocity": 0.2283464566929134,
                    "duration": 0.11544675000000382
                },
                {
                    "name": "F4",
                    "midi": 65,
                    "time": 47.44861424999991,
                    "velocity": 0.1889763779527559,
                    "duration": 0.11544674999999671
                },
                {
                    "name": "A#3",
                    "midi": 58,
                    "time": 47.56406099999991,
                    "velocity": 0.1889763779527559,
                    "duration": 0.11544674999999671
                },
                {
                    "name": "D4",
                    "midi": 62,
                    "time": 47.56406099999991,
                    "velocity": 0.2283464566929134,
                    "duration": 0.11544674999999671
                },
                {
                    "name": "F4",
                    "midi": 65,
                    "time": 47.67950774999991,
                    "velocity": 0.1968503937007874,
                    "duration": 0.11544674999999671
                },
                {
                    "name": "A#3",
                    "midi": 58,
                    "time": 47.7949544999999,
                    "velocity": 0.2283464566929134,
                    "duration": 0.11544675000000382
                },
                {
                    "name": "D#4",
                    "midi": 63,
                    "time": 47.7949544999999,
                    "velocity": 0.2677165354330709,
                    "duration": 0.11544675000000382
                },
                {
                    "name": "G4",
                    "midi": 67,
                    "time": 47.91040124999991,
                    "velocity": 0.2047244094488189,
                    "duration": 0.11544674999999671
                },
                {
                    "name": "A#3",
                    "midi": 58,
                    "time": 48.025847999999904,
                    "velocity": 0.1968503937007874,
                    "duration": 0.11544675000000382
                },
                {
                    "name": "D#4",
                    "midi": 63,
                    "time": 48.025847999999904,
                    "velocity": 0.23622047244094488,
                    "duration": 0.11544675000000382
                },
                {
                    "name": "G4",
                    "midi": 67,
                    "time": 48.14129474999991,
                    "velocity": 0.1968503937007874,
                    "duration": 0.11544675000000382
                },
                {
                    "name": "A#3",
                    "midi": 58,
                    "time": 48.25674149999991,
                    "velocity": 0.1968503937007874,
                    "duration": 0.11544674999999671
                },
                {
                    "name": "D#4",
                    "midi": 63,
                    "time": 48.25674149999991,
                    "velocity": 0.23622047244094488,
                    "duration": 0.11544674999999671
                },
                {
                    "name": "G4",
                    "midi": 67,
                    "time": 48.37218824999991,
                    "velocity": 0.1968503937007874,
                    "duration": 0.11544674999999671
                },
                {
                    "name": "A#3",
                    "midi": 58,
                    "time": 48.487634999999905,
                    "velocity": 0.2755905511811024,
                    "duration": 0.11544675000000382
                },
                {
                    "name": "D4",
                    "midi": 62,
                    "time": 48.487634999999905,
                    "velocity": 0.33858267716535434,
                    "duration": 0.11544675000000382
                },
                {
                    "name": "F4",
                    "midi": 65,
                    "time": 48.60308174999991,
                    "velocity": 0.2204724409448819,
                    "duration": 0.11544674999999671
                },
                {
                    "name": "D4",
                    "midi": 62,
                    "time": 48.718528499999906,
                    "velocity": 0.2440944881889764,
                    "duration": 0.11544675000000382
                },
                {
                    "name": "A#3",
                    "midi": 58,
                    "time": 48.718528499999906,
                    "velocity": 0.1968503937007874,
                    "duration": 0.11544675000000382
                },
                {
                    "name": "F4",
                    "midi": 65,
                    "time": 48.83397524999991,
                    "velocity": 0.2047244094488189,
                    "duration": 0.11544674999999671
                },
                {
                    "name": "A#3",
                    "midi": 58,
                    "time": 48.949421999999906,
                    "velocity": 0.2047244094488189,
                    "duration": 0.11544674999999671
                },
                {
                    "name": "D4",
                    "midi": 62,
                    "time": 48.949421999999906,
                    "velocity": 0.25196850393700787,
                    "duration": 0.11544674999999671
                },
                {
                    "name": "F4",
                    "midi": 65,
                    "time": 49.0648687499999,
                    "velocity": 0.2047244094488189,
                    "duration": 0.11544674999999671
                },
                {
                    "name": "A3",
                    "midi": 57,
                    "time": 49.1803154999999,
                    "velocity": 0.25196850393700787,
                    "duration": 0.11544674999999671
                },
                {
                    "name": "D#4",
                    "midi": 63,
                    "time": 49.1803154999999,
                    "velocity": 0.30708661417322836,
                    "duration": 0.11544674999999671
                },
                {
                    "name": "F4",
                    "midi": 65,
                    "time": 49.295762249999896,
                    "velocity": 0.2204724409448819,
                    "duration": 0.11544674999999671
                },
                {
                    "name": "A3",
                    "midi": 57,
                    "time": 49.41120899999989,
                    "velocity": 0.2047244094488189,
                    "duration": 0.11544674999999671
                },
                {
                    "name": "D#4",
                    "midi": 63,
                    "time": 49.41120899999989,
                    "velocity": 0.25196850393700787,
                    "duration": 0.11544674999999671
                },
                {
                    "name": "F4",
                    "midi": 65,
                    "time": 49.52665574999989,
                    "velocity": 0.2283464566929134,
                    "duration": 0.11544674999999671
                },
                {
                    "name": "A3",
                    "midi": 57,
                    "time": 49.642102499999886,
                    "velocity": 0.2204724409448819,
                    "duration": 0.11544674999999671
                },
                {
                    "name": "D#4",
                    "midi": 63,
                    "time": 49.642102499999886,
                    "velocity": 0.25984251968503935,
                    "duration": 0.11544674999999671
                },
                {
                    "name": "F4",
                    "midi": 65,
                    "time": 49.75754924999988,
                    "velocity": 0.2204724409448819,
                    "duration": 0.11544674999999671
                },
                {
                    "name": "A3",
                    "midi": 57,
                    "time": 49.87299599999988,
                    "velocity": 0.2755905511811024,
                    "duration": 0.11544674999999671
                },
                {
                    "name": "D#4",
                    "midi": 63,
                    "time": 49.87299599999988,
                    "velocity": 0.33070866141732286,
                    "duration": 0.11544674999999671
                },
                {
                    "name": "F#4",
                    "midi": 66,
                    "time": 49.98844274999988,
                    "velocity": 0.2283464566929134,
                    "duration": 0.11544674999999671
                },
                {
                    "name": "A3",
                    "midi": 57,
                    "time": 50.10388949999987,
                    "velocity": 0.2204724409448819,
                    "duration": 0.11544674999999671
                },
                {
                    "name": "D#4",
                    "midi": 63,
                    "time": 50.10388949999987,
                    "velocity": 0.2677165354330709,
                    "duration": 0.11544674999999671
                },
                {
                    "name": "F#4",
                    "midi": 66,
                    "time": 50.21933624999987,
                    "velocity": 0.2283464566929134,
                    "duration": 0.11544675000000382
                },
                {
                    "name": "A3",
                    "midi": 57,
                    "time": 50.334782999999874,
                    "velocity": 0.2204724409448819,
                    "duration": 0.11544674999999671
                },
                {
                    "name": "D#4",
                    "midi": 63,
                    "time": 50.334782999999874,
                    "velocity": 0.2677165354330709,
                    "duration": 0.11544674999999671
                },
                {
                    "name": "F#4",
                    "midi": 66,
                    "time": 50.45022974999987,
                    "velocity": 0.23622047244094488,
                    "duration": 0.11544674999999671
                },
                {
                    "name": "A#3",
                    "midi": 58,
                    "time": 50.56567649999987,
                    "velocity": 0.2677165354330709,
                    "duration": 0.11544674999999671
                },
                {
                    "name": "D#4",
                    "midi": 63,
                    "time": 50.56567649999987,
                    "velocity": 0.31496062992125984,
                    "duration": 0.11544674999999671
                },
                {
                    "name": "G4",
                    "midi": 67,
                    "time": 50.681123249999864,
                    "velocity": 0.23622047244094488,
                    "duration": 0.11544674999999671
                },
                {
                    "name": "A#3",
                    "midi": 58,
                    "time": 50.79656999999986,
                    "velocity": 0.2283464566929134,
                    "duration": 0.11544674999999671
                },
                {
                    "name": "D#4",
                    "midi": 63,
                    "time": 50.79656999999986,
                    "velocity": 0.2677165354330709,
                    "duration": 0.11544674999999671
                },
                {
                    "name": "G4",
                    "midi": 67,
                    "time": 50.91201674999986,
                    "velocity": 0.23622047244094488,
                    "duration": 0.11544674999999671
                },
                {
                    "name": "A#3",
                    "midi": 58,
                    "time": 51.027463499999854,
                    "velocity": 0.2283464566929134,
                    "duration": 0.11544674999999671
                },
                {
                    "name": "D#4",
                    "midi": 63,
                    "time": 51.027463499999854,
                    "velocity": 0.2677165354330709,
                    "duration": 0.11544674999999671
                },
                {
                    "name": "G4",
                    "midi": 67,
                    "time": 51.14291024999985,
                    "velocity": 0.23622047244094488,
                    "duration": 0.11544674999999671
                },
                {
                    "name": "C4",
                    "midi": 60,
                    "time": 51.25835699999985,
                    "velocity": 0.2755905511811024,
                    "duration": 0.11544674999999671
                },
                {
                    "name": "D#4",
                    "midi": 63,
                    "time": 51.25835699999985,
                    "velocity": 0.33070866141732286,
                    "duration": 0.11544674999999671
                },
                {
                    "name": "G4",
                    "midi": 67,
                    "time": 51.373803749999844,
                    "velocity": 0.2440944881889764,
                    "duration": 0.11544674999999671
                },
                {
                    "name": "C4",
                    "midi": 60,
                    "time": 51.48925049999984,
                    "velocity": 0.23622047244094488,
                    "duration": 0.11544674999999671
                },
                {
                    "name": "D#4",
                    "midi": 63,
                    "time": 51.48925049999984,
                    "velocity": 0.2755905511811024,
                    "duration": 0.11544674999999671
                },
                {
                    "name": "G4",
                    "midi": 67,
                    "time": 51.60469724999984,
                    "velocity": 0.2440944881889764,
                    "duration": 0.11544674999999671
                },
                {
                    "name": "C4",
                    "midi": 60,
                    "time": 51.720143999999834,
                    "velocity": 0.2440944881889764,
                    "duration": 0.11544674999999671
                },
                {
                    "name": "D#4",
                    "midi": 63,
                    "time": 51.720143999999834,
                    "velocity": 0.29133858267716534,
                    "duration": 0.11544674999999671
                },
                {
                    "name": "G4",
                    "midi": 67,
                    "time": 51.83559074999983,
                    "velocity": 0.25196850393700787,
                    "duration": 0.11544674999999671
                },
                {
                    "name": "G3",
                    "midi": 55,
                    "time": 51.95103749999983,
                    "velocity": 0.2755905511811024,
                    "duration": 0.11544674999999671
                },
                {
                    "name": "D4",
                    "midi": 62,
                    "time": 51.95103749999983,
                    "velocity": 0.33858267716535434,
                    "duration": 0.11544674999999671
                },
                {
                    "name": "G4",
                    "midi": 67,
                    "time": 52.066484249999824,
                    "velocity": 0.25196850393700787,
                    "duration": 0.11544674999999671
                },
                {
                    "name": "G3",
                    "midi": 55,
                    "time": 52.18193099999982,
                    "velocity": 0.2440944881889764,
                    "duration": 0.11544674999999671
                },
                {
                    "name": "D4",
                    "midi": 62,
                    "time": 52.18193099999982,
                    "velocity": 0.29133858267716534,
                    "duration": 0.11544674999999671
                },
                {
                    "name": "G4",
                    "midi": 67,
                    "time": 52.29737774999982,
                    "velocity": 0.25196850393700787,
                    "duration": 0.11544674999999671
                },
                {
                    "name": "G3",
                    "midi": 55,
                    "time": 52.412824499999815,
                    "velocity": 0.2440944881889764,
                    "duration": 0.11544674999999671
                },
                {
                    "name": "D4",
                    "midi": 62,
                    "time": 52.412824499999815,
                    "velocity": 0.29133858267716534,
                    "duration": 0.11544674999999671
                },
                {
                    "name": "G4",
                    "midi": 67,
                    "time": 52.52827124999981,
                    "velocity": 0.25984251968503935,
                    "duration": 0.11544674999999671
                },
                {
                    "name": "D#4",
                    "midi": 63,
                    "time": 52.64371799999981,
                    "velocity": 0.4881889763779528,
                    "duration": 0.23089350000000053
                },
                {
                    "name": "D4",
                    "midi": 62,
                    "time": 52.87461149999981,
                    "velocity": 0.4094488188976378,
                    "duration": 0.23089350000000053
                },
                {
                    "name": "D#4",
                    "midi": 63,
                    "time": 53.10550499999981,
                    "velocity": 0.4094488188976378,
                    "duration": 0.23089350000000053
                },
                {
                    "name": "C4",
                    "midi": 60,
                    "time": 53.33639849999981,
                    "velocity": 0.4881889763779528,
                    "duration": 0.23089350000000053
                },
                {
                    "name": "D4",
                    "midi": 62,
                    "time": 53.56729199999981,
                    "velocity": 0.3937007874015748,
                    "duration": 0.11544674999999671
                },
                {
                    "name": "D#4",
                    "midi": 63,
                    "time": 53.68273874999981,
                    "velocity": 0.3937007874015748,
                    "duration": 0.11544674999999671
                },
                {
                    "name": "F4",
                    "midi": 65,
                    "time": 53.7981854999998,
                    "velocity": 0.4094488188976378,
                    "duration": 0.11544674999999671
                },
                {
                    "name": "G4",
                    "midi": 67,
                    "time": 53.9136322499998,
                    "velocity": 0.4094488188976378,
                    "duration": 0.11544674999999671
                },
                {
                    "name": "D#4",
                    "midi": 63,
                    "time": 54.0290789999998,
                    "velocity": 0.47244094488188976,
                    "duration": 0.23089350000000053
                },
                {
                    "name": "F4",
                    "midi": 65,
                    "time": 54.2599724999998,
                    "velocity": 0.44881889763779526,
                    "duration": 0.11544674999999671
                },
                {
                    "name": "D#4",
                    "midi": 63,
                    "time": 54.375419249999794,
                    "velocity": 0.4094488188976378,
                    "duration": 0.11544674999999671
                },
                {
                    "name": "D4",
                    "midi": 62,
                    "time": 54.49086599999979,
                    "velocity": 0.44881889763779526,
                    "duration": 0.11544674999999671
                },
                {
                    "name": "C4",
                    "midi": 60,
                    "time": 54.60631274999979,
                    "velocity": 0.4094488188976378,
                    "duration": 0.11544674999999671
                },
                {
                    "name": "A#3",
                    "midi": 58,
                    "time": 54.721759499999784,
                    "velocity": 0.48031496062992124,
                    "duration": 0.05772337500000191
                },
                {
                    "name": "A#3",
                    "midi": 58,
                    "time": 54.952652999999785,
                    "velocity": 0.4094488188976378,
                    "duration": 0.05772337500000191
                },
                {
                    "name": "A#3",
                    "midi": 58,
                    "time": 55.183546499999785,
                    "velocity": 0.4094488188976378,
                    "duration": 0.05772337500000191
                },
                {
                    "name": "B3",
                    "midi": 59,
                    "time": 55.414439999999786,
                    "velocity": 0.47244094488188976,
                    "duration": 0.23089350000000053
                },
                {
                    "name": "B4",
                    "midi": 71,
                    "time": 55.645333499999786,
                    "velocity": 0.3937007874015748,
                    "duration": 0.23089350000000053
                },
                {
                    "name": "B4",
                    "midi": 71,
                    "time": 55.87622699999979,
                    "velocity": 0.41732283464566927,
                    "duration": 0.05772337500000191
                },
                {
                    "name": "C5",
                    "midi": 72,
                    "time": 56.10712049999979,
                    "velocity": 0.4881889763779528,
                    "duration": 0.23089350000000053
                },
                {
                    "name": "C4",
                    "midi": 60,
                    "time": 56.33801399999979,
                    "velocity": 0.4566929133858268,
                    "duration": 0.23089350000000053
                },
                {
                    "name": "C4",
                    "midi": 60,
                    "time": 56.56890749999979,
                    "velocity": 0.47244094488188976,
                    "duration": 0.05772337500000191
                },
                {
                    "name": "F4",
                    "midi": 65,
                    "time": 56.79980099999979,
                    "velocity": 0.5196850393700787,
                    "duration": 0.05772337500000191
                },
                {
                    "name": "G3",
                    "midi": 55,
                    "time": 56.97297112499979,
                    "velocity": 0.4566929133858268,
                    "duration": 0.07696450000000254
                },
                {
                    "name": "F3",
                    "midi": 53,
                    "time": 57.03069449999979,
                    "velocity": 0.5275590551181102,
                    "duration": 0.13468787500000445
                },
                {
                    "name": "E3",
                    "midi": 52,
                    "time": 57.14614124999979,
                    "velocity": 0.4881889763779528,
                    "duration": 0.13468787500000445
                },
                {
                    "name": "F3",
                    "midi": 53,
                    "time": 57.2615879999998,
                    "velocity": 0.5196850393700787,
                    "duration": 0.23089350000000053
                },
                {
                    "name": "A#3",
                    "midi": 58,
                    "time": 57.4924814999998,
                    "velocity": 0.4881889763779528,
                    "duration": 0.05772337500000191
                },
                {
                    "name": "C3",
                    "midi": 48,
                    "time": 57.665651624999796,
                    "velocity": 0.4251968503937008,
                    "duration": 0.07696450000000254
                },
                {
                    "name": "A#2",
                    "midi": 46,
                    "time": 57.7233749999998,
                    "velocity": 0.4881889763779528,
                    "duration": 0.13468787500000445
                },
                {
                    "name": "A2",
                    "midi": 45,
                    "time": 57.8388217499998,
                    "velocity": 0.44881889763779526,
                    "duration": 0.13468787500000445
                },
                {
                    "name": "A#2",
                    "midi": 46,
                    "time": 57.954268499999806,
                    "velocity": 0.4881889763779528,
                    "duration": 0.23089350000000053
                },
                {
                    "name": "F2",
                    "midi": 41,
                    "time": 58.185161999999806,
                    "velocity": 0.4409448818897638,
                    "duration": 0.23089350000000053
                },
                {
                    "name": "G2",
                    "midi": 43,
                    "time": 58.41605549999981,
                    "velocity": 0.3464566929133858,
                    "duration": 0.11544674999999671
                },
                {
                    "name": "A2",
                    "midi": 45,
                    "time": 58.531502249999804,
                    "velocity": 0.3464566929133858,
                    "duration": 0.11544674999999671
                },
                {
                    "name": "A#2",
                    "midi": 46,
                    "time": 58.6469489999998,
                    "velocity": 0.3700787401574803,
                    "duration": 0.11544674999999671
                },
                {
                    "name": "C3",
                    "midi": 48,
                    "time": 58.7623957499998,
                    "velocity": 0.3700787401574803,
                    "duration": 0.11544674999999671
                },
                {
                    "name": "A#2",
                    "midi": 46,
                    "time": 58.877842499999794,
                    "velocity": 0.41732283464566927,
                    "duration": 0.05772337500000191
                },
                {
                    "name": "A#2",
                    "midi": 46,
                    "time": 59.108735999999794,
                    "velocity": 0.41732283464566927,
                    "duration": 0.05772337500000191
                },
                {
                    "name": "A#2",
                    "midi": 46,
                    "time": 59.339629499999795,
                    "velocity": 0.41732283464566927,
                    "duration": 0.05772337500000191
                },
                {
                    "name": "F3",
                    "midi": 53,
                    "time": 59.570522999999795,
                    "velocity": 0.3937007874015748,
                    "duration": 0.23089350000000053
                },
                {
                    "name": "G3",
                    "midi": 55,
                    "time": 59.801416499999796,
                    "velocity": 0.30708661417322836,
                    "duration": 0.11544674999999671
                },
                {
                    "name": "A3",
                    "midi": 57,
                    "time": 59.91686324999979,
                    "velocity": 0.30708661417322836,
                    "duration": 0.11544674999999671
                },
                {
                    "name": "A#3",
                    "midi": 58,
                    "time": 60.03230999999979,
                    "velocity": 0.3228346456692913,
                    "duration": 0.11544674999999671
                },
                {
                    "name": "C4",
                    "midi": 60,
                    "time": 60.147756749999786,
                    "velocity": 0.3228346456692913,
                    "duration": 0.11544674999999671
                },
                {
                    "name": "A#3",
                    "midi": 58,
                    "time": 60.26320349999978,
                    "velocity": 0.3779527559055118,
                    "duration": 0.05772337500000191
                },
                {
                    "name": "A#3",
                    "midi": 58,
                    "time": 60.49409699999978,
                    "velocity": 0.3779527559055118,
                    "duration": 0.05772337500000191
                },
                {
                    "name": "A#3",
                    "midi": 58,
                    "time": 60.724990499999784,
                    "velocity": 0.3779527559055118,
                    "duration": 0.05772337500000191
                },
                {
                    "name": "F4",
                    "midi": 65,
                    "time": 60.955883999999784,
                    "velocity": 0.3464566929133858,
                    "duration": 0.23089350000000053
                },
                {
                    "name": "G4",
                    "midi": 67,
                    "time": 61.186777499999785,
                    "velocity": 0.2677165354330709,
                    "duration": 0.11544675000000382
                },
                {
                    "name": "A4",
                    "midi": 69,
                    "time": 61.30222424999979,
                    "velocity": 0.2677165354330709,
                    "duration": 0.11544674999999671
                },
                {
                    "name": "A#4",
                    "midi": 70,
                    "time": 61.417670999999785,
                    "velocity": 0.29133858267716534,
                    "duration": 0.11544674999999671
                },
                {
                    "name": "C5",
                    "midi": 72,
                    "time": 61.53311774999978,
                    "velocity": 0.29133858267716534,
                    "duration": 0.11544674999999671
                },
                {
                    "name": "A#4",
                    "midi": 70,
                    "time": 61.64856449999978,
                    "velocity": 0.33070866141732286,
                    "duration": 0.05772337500000191
                },
                {
                    "name": "A#4",
                    "midi": 70,
                    "time": 61.87945799999978,
                    "velocity": 0.33070866141732286,
                    "duration": 0.05772337500000191
                },
                {
                    "name": "A#4",
                    "midi": 70,
                    "time": 62.11035149999978,
                    "velocity": 0.33070866141732286,
                    "duration": 0.05772337500000191
                },
                {
                    "name": "D#4",
                    "midi": 63,
                    "time": 62.34124499999978,
                    "velocity": 0.2283464566929134,
                    "duration": 0.11544674999999671
                },
                {
                    "name": "G4",
                    "midi": 67,
                    "time": 62.34124499999978,
                    "velocity": 0.2677165354330709,
                    "duration": 0.11544674999999671
                },
                {
                    "name": "A#4",
                    "midi": 70,
                    "time": 62.45669174999978,
                    "velocity": 0.2204724409448819,
                    "duration": 0.11544674999999671
                },
                {
                    "name": "D#4",
                    "midi": 63,
                    "time": 62.572138499999774,
                    "velocity": 0.2047244094488189,
                    "duration": 0.11544675000000382
                },
                {
                    "name": "G4",
                    "midi": 67,
                    "time": 62.572138499999774,
                    "velocity": 0.25196850393700787,
                    "duration": 0.11544675000000382
                },
                {
                    "name": "A#4",
                    "midi": 70,
                    "time": 62.68758524999978,
                    "velocity": 0.2204724409448819,
                    "duration": 0.11544674999999671
                },
                {
                    "name": "D#4",
                    "midi": 63,
                    "time": 62.803031999999774,
                    "velocity": 0.2047244094488189,
                    "duration": 0.11544675000000382
                },
                {
                    "name": "G4",
                    "midi": 67,
                    "time": 62.803031999999774,
                    "velocity": 0.25196850393700787,
                    "duration": 0.11544675000000382
                },
                {
                    "name": "A#4",
                    "midi": 70,
                    "time": 62.91847874999978,
                    "velocity": 0.2204724409448819,
                    "duration": 0.11544674999999671
                },
                {
                    "name": "D4",
                    "midi": 62,
                    "time": 63.033925499999775,
                    "velocity": 0.2047244094488189,
                    "duration": 0.11544674999999671
                },
                {
                    "name": "F4",
                    "midi": 65,
                    "time": 63.033925499999775,
                    "velocity": 0.25196850393700787,
                    "duration": 0.11544674999999671
                },
                {
                    "name": "A#4",
                    "midi": 70,
                    "time": 63.14937224999977,
                    "velocity": 0.2204724409448819,
                    "duration": 0.11544674999999671
                },
                {
                    "name": "D4",
                    "midi": 62,
                    "time": 63.26481899999977,
                    "velocity": 0.2047244094488189,
                    "duration": 0.11544674999999671
                },
                {
                    "name": "F4",
                    "midi": 65,
                    "time": 63.26481899999977,
                    "velocity": 0.25196850393700787,
                    "duration": 0.11544674999999671
                },
                {
                    "name": "A#4",
                    "midi": 70,
                    "time": 63.380265749999765,
                    "velocity": 0.2204724409448819,
                    "duration": 0.11544674999999671
                },
                {
                    "name": "C#4",
                    "midi": 61,
                    "time": 63.49571249999976,
                    "velocity": 0.2047244094488189,
                    "duration": 0.11544675000000382
                },
                {
                    "name": "F4",
                    "midi": 65,
                    "time": 63.49571249999976,
                    "velocity": 0.25196850393700787,
                    "duration": 0.11544675000000382
                },
                {
                    "name": "A#4",
                    "midi": 70,
                    "time": 63.611159249999766,
                    "velocity": 0.2204724409448819,
                    "duration": 0.11544674999999671
                },
                {
                    "name": "C4",
                    "midi": 60,
                    "time": 63.72660599999976,
                    "velocity": 0.2047244094488189,
                    "duration": 0.11544674999999671
                },
                {
                    "name": "F4",
                    "midi": 65,
                    "time": 63.72660599999976,
                    "velocity": 0.25196850393700787,
                    "duration": 0.11544674999999671
                },
                {
                    "name": "G#4",
                    "midi": 68,
                    "time": 63.84205274999976,
                    "velocity": 0.2204724409448819,
                    "duration": 0.11544674999999671
                },
                {
                    "name": "C4",
                    "midi": 60,
                    "time": 63.957499499999756,
                    "velocity": 0.2047244094488189,
                    "duration": 0.1154467499999896
                },
                {
                    "name": "F4",
                    "midi": 65,
                    "time": 63.957499499999756,
                    "velocity": 0.25196850393700787,
                    "duration": 0.1154467499999896
                },
                {
                    "name": "G#4",
                    "midi": 68,
                    "time": 64.07294624999975,
                    "velocity": 0.2204724409448819,
                    "duration": 0.11544675000000382
                },
                {
                    "name": "C4",
                    "midi": 60,
                    "time": 64.18839299999975,
                    "velocity": 0.2047244094488189,
                    "duration": 0.11544675000000382
                },
                {
                    "name": "F4",
                    "midi": 65,
                    "time": 64.18839299999975,
                    "velocity": 0.25196850393700787,
                    "duration": 0.11544675000000382
                },
                {
                    "name": "G#4",
                    "midi": 68,
                    "time": 64.30383974999975,
                    "velocity": 0.2204724409448819,
                    "duration": 0.11544675000000382
                },
                {
                    "name": "C4",
                    "midi": 60,
                    "time": 64.41928649999976,
                    "velocity": 0.2047244094488189,
                    "duration": 0.11544675000000382
                },
                {
                    "name": "F4",
                    "midi": 65,
                    "time": 64.41928649999976,
                    "velocity": 0.25196850393700787,
                    "duration": 0.11544675000000382
                },
                {
                    "name": "G4",
                    "midi": 67,
                    "time": 64.53473324999976,
                    "velocity": 0.2204724409448819,
                    "duration": 0.11544675000000382
                },
                {
                    "name": "C4",
                    "midi": 60,
                    "time": 64.65017999999976,
                    "velocity": 0.2047244094488189,
                    "duration": 0.11544675000000382
                },
                {
                    "name": "E4",
                    "midi": 64,
                    "time": 64.65017999999976,
                    "velocity": 0.25196850393700787,
                    "duration": 0.11544675000000382
                },
                {
                    "name": "G4",
                    "midi": 67,
                    "time": 64.76562674999977,
                    "velocity": 0.2204724409448819,
                    "duration": 0.11544675000000382
                },
                {
                    "name": "C4",
                    "midi": 60,
                    "time": 64.88107349999977,
                    "velocity": 0.2047244094488189,
                    "duration": 0.11544675000000382
                },
                {
                    "name": "E4",
                    "midi": 64,
                    "time": 64.88107349999977,
                    "velocity": 0.25196850393700787,
                    "duration": 0.11544675000000382
                },
                {
                    "name": "G4",
                    "midi": 67,
                    "time": 64.99652024999978,
                    "velocity": 0.23622047244094488,
                    "duration": 0.11544675000000382
                },
                {
                    "name": "G#3",
                    "midi": 56,
                    "time": 65.11196699999978,
                    "velocity": 0.29133858267716534,
                    "duration": 0.6926804999999803
                },
                {
                    "name": "C4",
                    "midi": 60,
                    "time": 65.11196699999978,
                    "velocity": 0.3464566929133858,
                    "duration": 0.23089349999999342
                },
                {
                    "name": "C#4",
                    "midi": 61,
                    "time": 65.34286049999977,
                    "velocity": 0.31496062992125984,
                    "duration": 0.23089349999999342
                },
                {
                    "name": "C4",
                    "midi": 60,
                    "time": 65.57375399999977,
                    "velocity": 0.31496062992125984,
                    "duration": 0.23089349999999342
                },
                {
                    "name": "C#3",
                    "midi": 49,
                    "time": 65.80464749999976,
                    "velocity": 0.29133858267716534,
                    "duration": 0.6926804999999803
                },
                {
                    "name": "A#3",
                    "midi": 58,
                    "time": 65.80464749999976,
                    "velocity": 0.3464566929133858,
                    "duration": 0.23089349999999342
                },
                {
                    "name": "F3",
                    "midi": 53,
                    "time": 66.03554099999975,
                    "velocity": 0.33070866141732286,
                    "duration": 0.23089349999999342
                },
                {
                    "name": "G3",
                    "midi": 55,
                    "time": 66.26643449999975,
                    "velocity": 0.3464566929133858,
                    "duration": 0.23089349999999342
                },
                {
                    "name": "A#3",
                    "midi": 58,
                    "time": 66.43960462499975,
                    "velocity": 0.30708661417322836,
                    "duration": 0.0577233749999948
                },
                {
                    "name": "D#3",
                    "midi": 51,
                    "time": 66.49732799999974,
                    "velocity": 0.29133858267716534,
                    "duration": 1.3853609999999748
                },
                {
                    "name": "G#3",
                    "midi": 56,
                    "time": 66.49732799999974,
                    "velocity": 0.3464566929133858,
                    "duration": 0.23089349999999342
                },
                {
                    "name": "G3",
                    "midi": 55,
                    "time": 66.72822149999973,
                    "velocity": 0.2992125984251969,
                    "duration": 0.23089349999999342
                },
                {
                    "name": "G#3",
                    "midi": 56,
                    "time": 66.95911499999973,
                    "velocity": 0.2755905511811024,
                    "duration": 0.23089349999999342
                },
                {
                    "name": "A#3",
                    "midi": 58,
                    "time": 67.19000849999972,
                    "velocity": 0.29133858267716534,
                    "duration": 0.46178700000000106
                },
                {
                    "name": "B3",
                    "midi": 59,
                    "time": 67.65179549999972,
                    "velocity": 0.2677165354330709,
                    "duration": 0.23089349999999342
                },
                {
                    "name": "G#3",
                    "midi": 56,
                    "time": 67.88268899999971,
                    "velocity": 0.2283464566929134,
                    "duration": 0.11544675000000382
                },
                {
                    "name": "C4",
                    "midi": 60,
                    "time": 67.88268899999971,
                    "velocity": 0.2677165354330709,
                    "duration": 0.11544675000000382
                },
                {
                    "name": "D#4",
                    "midi": 63,
                    "time": 67.99813574999972,
                    "velocity": 0.2204724409448819,
                    "duration": 0.11544675000000382
                },
                {
                    "name": "G#3",
                    "midi": 56,
                    "time": 68.11358249999972,
                    "velocity": 0.2047244094488189,
                    "duration": 0.11544675000000382
                },
                {
                    "name": "C4",
                    "midi": 60,
                    "time": 68.11358249999972,
                    "velocity": 0.25196850393700787,
                    "duration": 0.11544675000000382
                },
                {
                    "name": "D#4",
                    "midi": 63,
                    "time": 68.22902924999973,
                    "velocity": 0.2204724409448819,
                    "duration": 0.11544675000000382
                },
                {
                    "name": "G#3",
                    "midi": 56,
                    "time": 68.34447599999973,
                    "velocity": 0.2047244094488189,
                    "duration": 0.11544675000000382
                },
                {
                    "name": "C4",
                    "midi": 60,
                    "time": 68.34447599999973,
                    "velocity": 0.25196850393700787,
                    "duration": 0.11544675000000382
                },
                {
                    "name": "D#4",
                    "midi": 63,
                    "time": 68.45992274999973,
                    "velocity": 0.2204724409448819,
                    "duration": 0.11544675000000382
                },
                {
                    "name": "G3",
                    "midi": 55,
                    "time": 68.57536949999974,
                    "velocity": 0.2047244094488189,
                    "duration": 0.11544675000000382
                },
                {
                    "name": "A#3",
                    "midi": 58,
                    "time": 68.57536949999974,
                    "velocity": 0.25196850393700787,
                    "duration": 0.11544675000000382
                },
                {
                    "name": "D#4",
                    "midi": 63,
                    "time": 68.69081624999974,
                    "velocity": 0.2204724409448819,
                    "duration": 0.11544675000000382
                },
                {
                    "name": "G3",
                    "midi": 55,
                    "time": 68.80626299999975,
                    "velocity": 0.2047244094488189,
                    "duration": 0.11544675000000382
                },
                {
                    "name": "A#3",
                    "midi": 58,
                    "time": 68.80626299999975,
                    "velocity": 0.25196850393700787,
                    "duration": 0.11544675000000382
                },
                {
                    "name": "D#4",
                    "midi": 63,
                    "time": 68.92170974999975,
                    "velocity": 0.2204724409448819,
                    "duration": 0.11544675000000382
                },
                {
                    "name": "F#3",
                    "midi": 54,
                    "time": 69.03715649999975,
                    "velocity": 0.2047244094488189,
                    "duration": 0.1154467499999896
                },
                {
                    "name": "A#3",
                    "midi": 58,
                    "time": 69.03715649999975,
                    "velocity": 0.25196850393700787,
                    "duration": 0.1154467499999896
                },
                {
                    "name": "D#4",
                    "midi": 63,
                    "time": 69.15260324999974,
                    "velocity": 0.2204724409448819,
                    "duration": 0.11544675000000382
                },
                {
                    "name": "F3",
                    "midi": 53,
                    "time": 69.26804999999975,
                    "velocity": 0.2047244094488189,
                    "duration": 0.11544675000000382
                },
                {
                    "name": "A#3",
                    "midi": 58,
                    "time": 69.26804999999975,
                    "velocity": 0.25196850393700787,
                    "duration": 0.11544675000000382
                },
                {
                    "name": "C#4",
                    "midi": 61,
                    "time": 69.38349674999975,
                    "velocity": 0.2204724409448819,
                    "duration": 0.11544675000000382
                },
                {
                    "name": "F3",
                    "midi": 53,
                    "time": 69.49894349999975,
                    "velocity": 0.2047244094488189,
                    "duration": 0.11544675000000382
                },
                {
                    "name": "A#3",
                    "midi": 58,
                    "time": 69.49894349999975,
                    "velocity": 0.25196850393700787,
                    "duration": 0.11544675000000382
                },
                {
                    "name": "C#4",
                    "midi": 61,
                    "time": 69.61439024999976,
                    "velocity": 0.2204724409448819,
                    "duration": 0.11544675000000382
                },
                {
                    "name": "F3",
                    "midi": 53,
                    "time": 69.72983699999976,
                    "velocity": 0.2047244094488189,
                    "duration": 0.11544675000000382
                },
                {
                    "name": "A#3",
                    "midi": 58,
                    "time": 69.72983699999976,
                    "velocity": 0.25196850393700787,
                    "duration": 0.11544675000000382
                },
                {
                    "name": "C#4",
                    "midi": 61,
                    "time": 69.84528374999977,
                    "velocity": 0.2204724409448819,
                    "duration": 0.11544675000000382
                },
                {
                    "name": "F3",
                    "midi": 53,
                    "time": 69.96073049999977,
                    "velocity": 0.2047244094488189,
                    "duration": 0.11544675000000382
                },
                {
                    "name": "A#3",
                    "midi": 58,
                    "time": 69.96073049999977,
                    "velocity": 0.25196850393700787,
                    "duration": 0.11544675000000382
                },
                {
                    "name": "C4",
                    "midi": 60,
                    "time": 70.07617724999977,
                    "velocity": 0.2204724409448819,
                    "duration": 0.11544675000000382
                },
                {
                    "name": "F3",
                    "midi": 53,
                    "time": 70.19162399999978,
                    "velocity": 0.2047244094488189,
                    "duration": 0.11544675000000382
                },
                {
                    "name": "A3",
                    "midi": 57,
                    "time": 70.19162399999978,
                    "velocity": 0.25196850393700787,
                    "duration": 0.11544675000000382
                },
                {
                    "name": "C4",
                    "midi": 60,
                    "time": 70.30707074999978,
                    "velocity": 0.2204724409448819,
                    "duration": 0.11544675000000382
                },
                {
                    "name": "F3",
                    "midi": 53,
                    "time": 70.42251749999978,
                    "velocity": 0.2047244094488189,
                    "duration": 0.11544675000000382
                },
                {
                    "name": "A3",
                    "midi": 57,
                    "time": 70.42251749999978,
                    "velocity": 0.25196850393700787,
                    "duration": 0.11544675000000382
                },
                {
                    "name": "C4",
                    "midi": 60,
                    "time": 70.53796424999979,
                    "velocity": 0.23622047244094488,
                    "duration": 0.11544675000000382
                },
                {
                    "name": "C#4",
                    "midi": 61,
                    "time": 70.65341099999979,
                    "velocity": 0.29133858267716534,
                    "duration": 0.6926804999999803
                },
                {
                    "name": "F4",
                    "midi": 65,
                    "time": 70.65341099999979,
                    "velocity": 0.3464566929133858,
                    "duration": 0.23089349999999342
                },
                {
                    "name": "F#4",
                    "midi": 66,
                    "time": 70.88430449999979,
                    "velocity": 0.31496062992125984,
                    "duration": 0.23089349999999342
                },
                {
                    "name": "F4",
                    "midi": 65,
                    "time": 71.11519799999978,
                    "velocity": 0.31496062992125984,
                    "duration": 0.23089349999999342
                },
                {
                    "name": "F#3",
                    "midi": 54,
                    "time": 71.34609149999977,
                    "velocity": 0.29133858267716534,
                    "duration": 0.6926804999999803
                },
                {
                    "name": "D#4",
                    "midi": 63,
                    "time": 71.34609149999977,
                    "velocity": 0.3464566929133858,
                    "duration": 0.23089349999999342
                },
                {
                    "name": "A#3",
                    "midi": 58,
                    "time": 71.57698499999977,
                    "velocity": 0.33070866141732286,
                    "duration": 0.23089349999999342
                },
                {
                    "name": "C4",
                    "midi": 60,
                    "time": 71.80787849999976,
                    "velocity": 0.3464566929133858,
                    "duration": 0.23089349999999342
                },
                {
                    "name": "D#4",
                    "midi": 63,
                    "time": 71.98104862499976,
                    "velocity": 0.31496062992125984,
                    "duration": 0.0577233749999948
                },
                {
                    "name": "G#3",
                    "midi": 56,
                    "time": 72.03877199999975,
                    "velocity": 0.29133858267716534,
                    "duration": 1.3853609999999748
                },
                {
                    "name": "C#4",
                    "midi": 61,
                    "time": 72.03877199999975,
                    "velocity": 0.3464566929133858,
                    "duration": 0.23089349999999342
                },
                {
                    "name": "C4",
                    "midi": 60,
                    "time": 72.26966549999975,
                    "velocity": 0.2992125984251969,
                    "duration": 0.23089349999999342
                },
                {
                    "name": "C#4",
                    "midi": 61,
                    "time": 72.50055899999974,
                    "velocity": 0.2755905511811024,
                    "duration": 0.23089349999999342
                },
                {
                    "name": "D#4",
                    "midi": 63,
                    "time": 72.73145249999973,
                    "velocity": 0.29133858267716534,
                    "duration": 0.46178700000000106
                },
                {
                    "name": "E4",
                    "midi": 64,
                    "time": 73.19323949999973,
                    "velocity": 0.2677165354330709,
                    "duration": 0.23089349999999342
                },
                {
                    "name": "C#4",
                    "midi": 61,
                    "time": 73.42413299999973,
                    "velocity": 0.2283464566929134,
                    "duration": 0.0577233749999948
                },
                {
                    "name": "F4",
                    "midi": 65,
                    "time": 73.42413299999973,
                    "velocity": 0.2677165354330709,
                    "duration": 0.0577233749999948
                },
                {
                    "name": "C#3",
                    "midi": 49,
                    "time": 73.65502649999972,
                    "velocity": 0.2204724409448819,
                    "duration": 0.0577233749999948
                },
                {
                    "name": "C#3",
                    "midi": 49,
                    "time": 73.88591999999971,
                    "velocity": 0.2204724409448819,
                    "duration": 0.0577233749999948
                },
                {
                    "name": "C#4",
                    "midi": 61,
                    "time": 74.11681349999971,
                    "velocity": 0.2047244094488189,
                    "duration": 0.0577233749999948
                },
                {
                    "name": "F4",
                    "midi": 65,
                    "time": 74.1196996687497,
                    "velocity": 0.25196850393700787,
                    "duration": 0.0577233749999948
                },
                {
                    "name": "C#3",
                    "midi": 49,
                    "time": 74.3477069999997,
                    "velocity": 0.2204724409448819,
                    "duration": 0.0577233749999948
                },
                {
                    "name": "C#3",
                    "midi": 49,
                    "time": 74.5786004999997,
                    "velocity": 0.2204724409448819,
                    "duration": 0.0577233749999948
                },
                {
                    "name": "C#4",
                    "midi": 61,
                    "time": 74.80949399999969,
                    "velocity": 0.2204724409448819,
                    "duration": 0.0577233749999948
                },
                {
                    "name": "F4",
                    "midi": 65,
                    "time": 74.80949399999969,
                    "velocity": 0.25984251968503935,
                    "duration": 0.0577233749999948
                },
                {
                    "name": "C#3",
                    "midi": 49,
                    "time": 75.04038749999968,
                    "velocity": 0.2204724409448819,
                    "duration": 0.0577233749999948
                },
                {
                    "name": "C#3",
                    "midi": 49,
                    "time": 75.27128099999968,
                    "velocity": 0.2204724409448819,
                    "duration": 0.0577233749999948
                },
                {
                    "name": "C#4",
                    "midi": 61,
                    "time": 75.50217449999967,
                    "velocity": 0.2204724409448819,
                    "duration": 0.0577233749999948
                },
                {
                    "name": "F#4",
                    "midi": 66,
                    "time": 75.50217449999967,
                    "velocity": 0.2677165354330709,
                    "duration": 0.0577233749999948
                },
                {
                    "name": "C#3",
                    "midi": 49,
                    "time": 75.73306799999966,
                    "velocity": 0.2204724409448819,
                    "duration": 0.0577233749999948
                },
                {
                    "name": "C#3",
                    "midi": 49,
                    "time": 75.96396149999966,
                    "velocity": 0.2204724409448819,
                    "duration": 0.0577233749999948
                },
                {
                    "name": "C#4",
                    "midi": 61,
                    "time": 76.19485499999965,
                    "velocity": 0.2204724409448819,
                    "duration": 0.0577233749999948
                },
                {
                    "name": "F4",
                    "midi": 65,
                    "time": 76.19485499999965,
                    "velocity": 0.25984251968503935,
                    "duration": 0.0577233749999948
                },
                {
                    "name": "C#3",
                    "midi": 49,
                    "time": 76.42574849999964,
                    "velocity": 0.2204724409448819,
                    "duration": 0.0577233749999948
                },
                {
                    "name": "C#3",
                    "midi": 49,
                    "time": 76.65664199999964,
                    "velocity": 0.25984251968503935,
                    "duration": 0.0577233749999948
                },
                {
                    "name": "C#4",
                    "midi": 61,
                    "time": 76.88753549999963,
                    "velocity": 0.2440944881889764,
                    "duration": 0.0577233749999948
                },
                {
                    "name": "F#4",
                    "midi": 66,
                    "time": 76.88753549999963,
                    "velocity": 0.2992125984251969,
                    "duration": 0.0577233749999948
                },
                {
                    "name": "C#3",
                    "midi": 49,
                    "time": 77.11842899999962,
                    "velocity": 0.2204724409448819,
                    "duration": 0.0577233749999948
                },
                {
                    "name": "C#3",
                    "midi": 49,
                    "time": 77.34932249999962,
                    "velocity": 0.2204724409448819,
                    "duration": 0.0577233749999948
                },
                {
                    "name": "A#3",
                    "midi": 58,
                    "time": 77.58021599999961,
                    "velocity": 0.2204724409448819,
                    "duration": 0.0577233749999948
                },
                {
                    "name": "C#4",
                    "midi": 61,
                    "time": 77.58021599999961,
                    "velocity": 0.2204724409448819,
                    "duration": 0.0577233749999948
                },
                {
                    "name": "F#4",
                    "midi": 66,
                    "time": 77.58021599999961,
                    "velocity": 0.25984251968503935,
                    "duration": 0.0577233749999948
                },
                {
                    "name": "C#3",
                    "midi": 49,
                    "time": 77.8111094999996,
                    "velocity": 0.1968503937007874,
                    "duration": 0.0577233749999948
                },
                {
                    "name": "C#3",
                    "midi": 49,
                    "time": 78.0420029999996,
                    "velocity": 0.1968503937007874,
                    "duration": 0.0577233749999948
                },
                {
                    "name": "A#3",
                    "midi": 58,
                    "time": 78.27289649999959,
                    "velocity": 0.1968503937007874,
                    "duration": 0.0577233749999948
                },
                {
                    "name": "C#4",
                    "midi": 61,
                    "time": 78.27289649999959,
                    "velocity": 0.1968503937007874,
                    "duration": 0.0577233749999948
                },
                {
                    "name": "F#4",
                    "midi": 66,
                    "time": 78.27289649999959,
                    "velocity": 0.23622047244094488,
                    "duration": 0.0577233749999948
                },
                {
                    "name": "C#3",
                    "midi": 49,
                    "time": 78.50378999999958,
                    "velocity": 0.1968503937007874,
                    "duration": 0.0577233749999948
                },
                {
                    "name": "C#3",
                    "midi": 49,
                    "time": 78.73468349999958,
                    "velocity": 0.1968503937007874,
                    "duration": 0.0577233749999948
                },
                {
                    "name": "G#3",
                    "midi": 56,
                    "time": 78.96557699999957,
                    "velocity": 0.1889763779527559,
                    "duration": 0.0577233749999948
                },
                {
                    "name": "C#4",
                    "midi": 61,
                    "time": 78.96557699999957,
                    "velocity": 0.2283464566929134,
                    "duration": 0.0577233749999948
                },
                {
                    "name": "C#3",
                    "midi": 49,
                    "time": 79.19647049999956,
                    "velocity": 0.1889763779527559,
                    "duration": 0.0577233749999948
                },
                {
                    "name": "C#3",
                    "midi": 49,
                    "time": 79.42736399999956,
                    "velocity": 0.1889763779527559,
                    "duration": 0.0577233749999948
                },
                {
                    "name": "F#3",
                    "midi": 54,
                    "time": 79.65825749999955,
                    "velocity": 0.1968503937007874,
                    "duration": 0.057723375000009014
                },
                {
                    "name": "A#3",
                    "midi": 58,
                    "time": 79.65825749999955,
                    "velocity": 0.23622047244094488,
                    "duration": 0.057723375000009014
                },
                {
                    "name": "F#2",
                    "midi": 42,
                    "time": 79.88915099999956,
                    "velocity": 0.1889763779527559,
                    "duration": 0.057723375000009014
                },
                {
                    "name": "F#2",
                    "midi": 42,
                    "time": 80.12004449999957,
                    "velocity": 0.1889763779527559,
                    "duration": 0.0577233749999948
                },
                {
                    "name": "D#4",
                    "midi": 63,
                    "time": 80.35093799999956,
                    "velocity": 0.1889763779527559,
                    "duration": 0.0577233749999948
                },
                {
                    "name": "F#4",
                    "midi": 66,
                    "time": 80.35093799999956,
                    "velocity": 0.2283464566929134,
                    "duration": 0.0577233749999948
                },
                {
                    "name": "G#3",
                    "midi": 56,
                    "time": 80.58183149999955,
                    "velocity": 0.1889763779527559,
                    "duration": 0.057723375000009014
                },
                {
                    "name": "G#3",
                    "midi": 56,
                    "time": 80.81272499999956,
                    "velocity": 0.1889763779527559,
                    "duration": 0.0577233749999948
                },
                {
                    "name": "F4",
                    "midi": 65,
                    "time": 81.04361849999955,
                    "velocity": 0.2283464566929134,
                    "duration": 0.0577233749999948
                },
                {
                    "name": "C#4",
                    "midi": 61,
                    "time": 81.04361849999955,
                    "velocity": 0.1889763779527559,
                    "duration": 0.0577233749999948
                },
                {
                    "name": "C#3",
                    "midi": 49,
                    "time": 81.27451199999955,
                    "velocity": 0.1889763779527559,
                    "duration": 0.0577233749999948
                },
                {
                    "name": "C#3",
                    "midi": 49,
                    "time": 81.50540549999954,
                    "velocity": 0.1889763779527559,
                    "duration": 0.0577233749999948
                },
                {
                    "name": "C#4",
                    "midi": 61,
                    "time": 81.73629899999953,
                    "velocity": 0.1968503937007874,
                    "duration": 0.0577233749999948
                },
                {
                    "name": "F4",
                    "midi": 65,
                    "time": 81.73629899999953,
                    "velocity": 0.23622047244094488,
                    "duration": 0.0577233749999948
                },
                {
                    "name": "C#3",
                    "midi": 49,
                    "time": 81.96719249999953,
                    "velocity": 0.1968503937007874,
                    "duration": 0.0577233749999948
                },
                {
                    "name": "C#3",
                    "midi": 49,
                    "time": 82.19808599999952,
                    "velocity": 0.1968503937007874,
                    "duration": 0.0577233749999948
                },
                {
                    "name": "C#4",
                    "midi": 61,
                    "time": 82.42897949999951,
                    "velocity": 0.1968503937007874,
                    "duration": 0.0577233749999948
                },
                {
                    "name": "F4",
                    "midi": 65,
                    "time": 82.43186566874951,
                    "velocity": 0.2440944881889764,
                    "duration": 0.0577233749999948
                },
                {
                    "name": "C#3",
                    "midi": 49,
                    "time": 82.65987299999951,
                    "velocity": 0.2204724409448819,
                    "duration": 0.0577233749999948
                },
                {
                    "name": "C#3",
                    "midi": 49,
                    "time": 82.8907664999995,
                    "velocity": 0.2204724409448819,
                    "duration": 0.0577233749999948
                },
                {
                    "name": "C#4",
                    "midi": 61,
                    "time": 83.1216599999995,
                    "velocity": 0.2204724409448819,
                    "duration": 0.0577233749999948
                },
                {
                    "name": "F4",
                    "midi": 65,
                    "time": 83.1216599999995,
                    "velocity": 0.25984251968503935,
                    "duration": 0.0577233749999948
                },
                {
                    "name": "C#3",
                    "midi": 49,
                    "time": 83.35255349999949,
                    "velocity": 0.2204724409448819,
                    "duration": 0.0577233749999948
                },
                {
                    "name": "C#3",
                    "midi": 49,
                    "time": 83.58344699999948,
                    "velocity": 0.2204724409448819,
                    "duration": 0.0577233749999948
                },
                {
                    "name": "C#4",
                    "midi": 61,
                    "time": 83.81434049999947,
                    "velocity": 0.2204724409448819,
                    "duration": 0.0577233749999948
                },
                {
                    "name": "F#4",
                    "midi": 66,
                    "time": 83.81434049999947,
                    "velocity": 0.2677165354330709,
                    "duration": 0.0577233749999948
                },
                {
                    "name": "C#3",
                    "midi": 49,
                    "time": 84.04523399999947,
                    "velocity": 0.2204724409448819,
                    "duration": 0.0577233749999948
                },
                {
                    "name": "C#3",
                    "midi": 49,
                    "time": 84.27612749999946,
                    "velocity": 0.2204724409448819,
                    "duration": 0.0577233749999948
                },
                {
                    "name": "C#4",
                    "midi": 61,
                    "time": 84.50702099999945,
                    "velocity": 0.2204724409448819,
                    "duration": 0.0577233749999948
                },
                {
                    "name": "F4",
                    "midi": 65,
                    "time": 84.50702099999945,
                    "velocity": 0.25984251968503935,
                    "duration": 0.0577233749999948
                },
                {
                    "name": "C#3",
                    "midi": 49,
                    "time": 84.73791449999945,
                    "velocity": 0.2204724409448819,
                    "duration": 0.0577233749999948
                },
                {
                    "name": "C#3",
                    "midi": 49,
                    "time": 84.96880799999944,
                    "velocity": 0.25984251968503935,
                    "duration": 0.0577233749999948
                },
                {
                    "name": "C#4",
                    "midi": 61,
                    "time": 85.19970149999943,
                    "velocity": 0.2440944881889764,
                    "duration": 0.0577233749999948
                },
                {
                    "name": "F#4",
                    "midi": 66,
                    "time": 85.19970149999943,
                    "velocity": 0.2992125984251969,
                    "duration": 0.0577233749999948
                },
                {
                    "name": "C#3",
                    "midi": 49,
                    "time": 85.43059499999943,
                    "velocity": 0.2204724409448819,
                    "duration": 0.0577233749999948
                },
                {
                    "name": "C#3",
                    "midi": 49,
                    "time": 85.66148849999942,
                    "velocity": 0.2204724409448819,
                    "duration": 0.0577233749999948
                },
                {
                    "name": "A3",
                    "midi": 57,
                    "time": 85.89238199999942,
                    "velocity": 0.2204724409448819,
                    "duration": 0.0577233749999948
                },
                {
                    "name": "C#4",
                    "midi": 61,
                    "time": 85.89238199999942,
                    "velocity": 0.2204724409448819,
                    "duration": 0.0577233749999948
                },
                {
                    "name": "F#4",
                    "midi": 66,
                    "time": 85.89238199999942,
                    "velocity": 0.25984251968503935,
                    "duration": 0.0577233749999948
                },
                {
                    "name": "F#3",
                    "midi": 54,
                    "time": 86.12327549999941,
                    "velocity": 0.1968503937007874,
                    "duration": 0.0577233749999948
                },
                {
                    "name": "F#3",
                    "midi": 54,
                    "time": 86.3541689999994,
                    "velocity": 0.1968503937007874,
                    "duration": 0.0577233749999948
                },
                {
                    "name": "A3",
                    "midi": 57,
                    "time": 86.5850624999994,
                    "velocity": 0.1968503937007874,
                    "duration": 0.0577233749999948
                },
                {
                    "name": "C#4",
                    "midi": 61,
                    "time": 86.5850624999994,
                    "velocity": 0.1968503937007874,
                    "duration": 0.0577233749999948
                },
                {
                    "name": "F#4",
                    "midi": 66,
                    "time": 86.5850624999994,
                    "velocity": 0.23622047244094488,
                    "duration": 0.0577233749999948
                },
                {
                    "name": "F#3",
                    "midi": 54,
                    "time": 86.81595599999939,
                    "velocity": 0.1968503937007874,
                    "duration": 0.0577233749999948
                },
                {
                    "name": "F#3",
                    "midi": 54,
                    "time": 87.04684949999938,
                    "velocity": 0.1968503937007874,
                    "duration": 0.0577233749999948
                },
                {
                    "name": "F#4",
                    "midi": 66,
                    "time": 87.27774299999938,
                    "velocity": 0.2283464566929134,
                    "duration": 0.0577233749999948
                },
                {
                    "name": "A3",
                    "midi": 57,
                    "time": 87.27774299999938,
                    "velocity": 0.1889763779527559,
                    "duration": 0.0577233749999948
                },
                {
                    "name": "C#4",
                    "midi": 61,
                    "time": 87.27774299999938,
                    "velocity": 0.1889763779527559,
                    "duration": 0.0577233749999948
                },
                {
                    "name": "F#3",
                    "midi": 54,
                    "time": 87.50863649999937,
                    "velocity": 0.1889763779527559,
                    "duration": 0.0577233749999948
                },
                {
                    "name": "F#3",
                    "midi": 54,
                    "time": 87.73952999999936,
                    "velocity": 0.1889763779527559,
                    "duration": 0.0577233749999948
                },
                {
                    "name": "D4",
                    "midi": 62,
                    "time": 87.97042349999936,
                    "velocity": 0.1968503937007874,
                    "duration": 0.057723375000009014
                },
                {
                    "name": "F#4",
                    "midi": 66,
                    "time": 87.97042349999936,
                    "velocity": 0.23622047244094488,
                    "duration": 0.057723375000009014
                },
                {
                    "name": "D3",
                    "midi": 50,
                    "time": 88.20131699999936,
                    "velocity": 0.1889763779527559,
                    "duration": 0.0577233749999948
                },
                {
                    "name": "D3",
                    "midi": 50,
                    "time": 88.43221049999937,
                    "velocity": 0.1889763779527559,
                    "duration": 0.0577233749999948
                },
                {
                    "name": "D4",
                    "midi": 62,
                    "time": 88.66310399999936,
                    "velocity": 0.1889763779527559,
                    "duration": 0.0577233749999948
                },
                {
                    "name": "E4",
                    "midi": 64,
                    "time": 88.66310399999936,
                    "velocity": 0.2283464566929134,
                    "duration": 0.0577233749999948
                },
                {
                    "name": "E3",
                    "midi": 52,
                    "time": 88.89399749999936,
                    "velocity": 0.1889763779527559,
                    "duration": 0.0577233749999948
                },
                {
                    "name": "E3",
                    "midi": 52,
                    "time": 89.12489099999935,
                    "velocity": 0.1889763779527559,
                    "duration": 0.0577233749999948
                },
                {
                    "name": "E4",
                    "midi": 64,
                    "time": 89.35578449999934,
                    "velocity": 0.2283464566929134,
                    "duration": 0.0577233749999948
                },
                {
                    "name": "C#4",
                    "midi": 61,
                    "time": 89.35578449999934,
                    "velocity": 0.1889763779527559,
                    "duration": 0.0577233749999948
                },
                {
                    "name": "A3",
                    "midi": 57,
                    "time": 89.58667799999934,
                    "velocity": 0.1889763779527559,
                    "duration": 0.0577233749999948
                },
                {
                    "name": "A3",
                    "midi": 57,
                    "time": 89.81757149999933,
                    "velocity": 0.1889763779527559,
                    "duration": 0.0577233749999948
                },
                {
                    "name": "C#4",
                    "midi": 61,
                    "time": 90.04846499999933,
                    "velocity": 0.1968503937007874,
                    "duration": 0.0577233749999948
                },
                {
                    "name": "E4",
                    "midi": 64,
                    "time": 90.04846499999933,
                    "velocity": 0.23622047244094488,
                    "duration": 0.0577233749999948
                },
                {
                    "name": "A3",
                    "midi": 57,
                    "time": 90.27935849999932,
                    "velocity": 0.1968503937007874,
                    "duration": 0.0577233749999948
                },
                {
                    "name": "A3",
                    "midi": 57,
                    "time": 90.51025199999931,
                    "velocity": 0.2047244094488189,
                    "duration": 0.0577233749999948
                },
                {
                    "name": "E4",
                    "midi": 64,
                    "time": 90.7411454999993,
                    "velocity": 0.2283464566929134,
                    "duration": 0.0577233749999948
                },
                {
                    "name": "C#4",
                    "midi": 61,
                    "time": 90.7411454999993,
                    "velocity": 0.1889763779527559,
                    "duration": 0.0577233749999948
                },
                {
                    "name": "A3",
                    "midi": 57,
                    "time": 90.9720389999993,
                    "velocity": 0.1889763779527559,
                    "duration": 0.0577233749999948
                },
                {
                    "name": "A3",
                    "midi": 57,
                    "time": 91.20293249999929,
                    "velocity": 0.1889763779527559,
                    "duration": 0.0577233749999948
                },
                {
                    "name": "C#4",
                    "midi": 61,
                    "time": 91.43382599999929,
                    "velocity": 0.1968503937007874,
                    "duration": 0.057723375000009014
                },
                {
                    "name": "E4",
                    "midi": 64,
                    "time": 91.43382599999929,
                    "velocity": 0.23622047244094488,
                    "duration": 0.057723375000009014
                },
                {
                    "name": "A#3",
                    "midi": 58,
                    "time": 91.6647194999993,
                    "velocity": 0.1889763779527559,
                    "duration": 0.057723375000009014
                },
                {
                    "name": "A#3",
                    "midi": 58,
                    "time": 91.8956129999993,
                    "velocity": 0.1889763779527559,
                    "duration": 0.0577233749999948
                },
                {
                    "name": "D4",
                    "midi": 62,
                    "time": 92.1265064999993,
                    "velocity": 0.1889763779527559,
                    "duration": 0.0577233749999948
                },
                {
                    "name": "E4",
                    "midi": 64,
                    "time": 92.1265064999993,
                    "velocity": 0.2283464566929134,
                    "duration": 0.0577233749999948
                },
                {
                    "name": "B3",
                    "midi": 59,
                    "time": 92.35739999999929,
                    "velocity": 0.1889763779527559,
                    "duration": 0.0577233749999948
                },
                {
                    "name": "B3",
                    "midi": 59,
                    "time": 92.58829349999928,
                    "velocity": 0.1889763779527559,
                    "duration": 0.0577233749999948
                },
                {
                    "name": "E4",
                    "midi": 64,
                    "time": 92.81918699999927,
                    "velocity": 0.2283464566929134,
                    "duration": 0.0577233749999948
                },
                {
                    "name": "D4",
                    "midi": 62,
                    "time": 92.81918699999927,
                    "velocity": 0.1889763779527559,
                    "duration": 0.0577233749999948
                },
                {
                    "name": "B3",
                    "midi": 59,
                    "time": 93.05008049999927,
                    "velocity": 0.1889763779527559,
                    "duration": 0.0577233749999948
                },
                {
                    "name": "B3",
                    "midi": 59,
                    "time": 93.28097399999926,
                    "velocity": 0.1889763779527559,
                    "duration": 0.0577233749999948
                },
                {
                    "name": "D4",
                    "midi": 62,
                    "time": 93.51186749999925,
                    "velocity": 0.1732283464566929,
                    "duration": 0.0577233749999948
                },
                {
                    "name": "E4",
                    "midi": 64,
                    "time": 93.51186749999925,
                    "velocity": 0.1968503937007874,
                    "duration": 0.0577233749999948
                },
                {
                    "name": "B3",
                    "midi": 59,
                    "time": 93.74276099999925,
                    "velocity": 0.1732283464566929,
                    "duration": 0.0577233749999948
                },
                {
                    "name": "B3",
                    "midi": 59,
                    "time": 93.97365449999924,
                    "velocity": 0.1732283464566929,
                    "duration": 0.0577233749999948
                },
                {
                    "name": "E4",
                    "midi": 64,
                    "time": 94.20454799999924,
                    "velocity": 0.2283464566929134,
                    "duration": 0.0577233749999948
                },
                {
                    "name": "D4",
                    "midi": 62,
                    "time": 94.20454799999924,
                    "velocity": 0.1889763779527559,
                    "duration": 0.0577233749999948
                },
                {
                    "name": "B3",
                    "midi": 59,
                    "time": 94.43544149999923,
                    "velocity": 0.1889763779527559,
                    "duration": 0.0577233749999948
                },
                {
                    "name": "B3",
                    "midi": 59,
                    "time": 94.66633499999922,
                    "velocity": 0.1889763779527559,
                    "duration": 0.0577233749999948
                },
                {
                    "name": "D4",
                    "midi": 62,
                    "time": 94.89722849999922,
                    "velocity": 0.1968503937007874,
                    "duration": 0.057723375000009014
                },
                {
                    "name": "F4",
                    "midi": 65,
                    "time": 94.89722849999922,
                    "velocity": 0.23622047244094488,
                    "duration": 0.057723375000009014
                },
                {
                    "name": "B3",
                    "midi": 59,
                    "time": 95.12812199999922,
                    "velocity": 0.1889763779527559,
                    "duration": 0.0577233749999948
                },
                {
                    "name": "B3",
                    "midi": 59,
                    "time": 95.35901549999922,
                    "velocity": 0.1889763779527559,
                    "duration": 0.0577233749999948
                },
                {
                    "name": "D4",
                    "midi": 62,
                    "time": 95.58990899999921,
                    "velocity": 0.1889763779527559,
                    "duration": 0.0577233749999948
                },
                {
                    "name": "F4",
                    "midi": 65,
                    "time": 95.58990899999921,
                    "velocity": 0.2283464566929134,
                    "duration": 0.0577233749999948
                },
                {
                    "name": "B3",
                    "midi": 59,
                    "time": 95.8208024999992,
                    "velocity": 0.1889763779527559,
                    "duration": 0.0577233749999948
                },
                {
                    "name": "B3",
                    "midi": 59,
                    "time": 96.0516959999992,
                    "velocity": 0.1889763779527559,
                    "duration": 0.0577233749999948
                },
                {
                    "name": "F4",
                    "midi": 65,
                    "time": 96.28258949999919,
                    "velocity": 0.2283464566929134,
                    "duration": 0.0577233749999948
                },
                {
                    "name": "D4",
                    "midi": 62,
                    "time": 96.28258949999919,
                    "velocity": 0.1889763779527559,
                    "duration": 0.0577233749999948
                },
                {
                    "name": "B3",
                    "midi": 59,
                    "time": 96.51348299999918,
                    "velocity": 0.1889763779527559,
                    "duration": 0.0577233749999948
                },
                {
                    "name": "B3",
                    "midi": 59,
                    "time": 96.74437649999918,
                    "velocity": 0.1889763779527559,
                    "duration": 0.0577233749999948
                },
                {
                    "name": "B3",
                    "midi": 59,
                    "time": 96.97526999999917,
                    "velocity": 0.2047244094488189,
                    "duration": 0.11544675000000382
                },
                {
                    "name": "D4",
                    "midi": 62,
                    "time": 96.97526999999917,
                    "velocity": 0.25196850393700787,
                    "duration": 0.11544675000000382
                },
                {
                    "name": "F4",
                    "midi": 65,
                    "time": 97.09071674999917,
                    "velocity": 0.2047244094488189,
                    "duration": 0.11544675000000382
                },
                {
                    "name": "D4",
                    "midi": 62,
                    "time": 97.20616349999918,
                    "velocity": 0.2204724409448819,
                    "duration": 0.1154467499999896
                },
                {
                    "name": "B3",
                    "midi": 59,
                    "time": 97.20616349999918,
                    "velocity": 0.1732283464566929,
                    "duration": 0.1154467499999896
                },
                {
                    "name": "F4",
                    "midi": 65,
                    "time": 97.32161024999917,
                    "velocity": 0.2047244094488189,
                    "duration": 0.11544675000000382
                },
                {
                    "name": "D4",
                    "midi": 62,
                    "time": 97.43705699999917,
                    "velocity": 0.2204724409448819,
                    "duration": 0.11544675000000382
                },
                {
                    "name": "B3",
                    "midi": 59,
                    "time": 97.43705699999917,
                    "velocity": 0.1732283464566929,
                    "duration": 0.11544675000000382
                },
                {
                    "name": "F4",
                    "midi": 65,
                    "time": 97.55250374999918,
                    "velocity": 0.2047244094488189,
                    "duration": 0.11544675000000382
                },
                {
                    "name": "A#3",
                    "midi": 58,
                    "time": 97.66795049999918,
                    "velocity": 0.2047244094488189,
                    "duration": 0.11544675000000382
                },
                {
                    "name": "D4",
                    "midi": 62,
                    "time": 97.66795049999918,
                    "velocity": 0.25196850393700787,
                    "duration": 0.11544675000000382
                },
                {
                    "name": "F4",
                    "midi": 65,
                    "time": 97.78339724999918,
                    "velocity": 0.2047244094488189,
                    "duration": 0.11544675000000382
                },
                {
                    "name": "D4",
                    "midi": 62,
                    "time": 97.89884399999919,
                    "velocity": 0.2204724409448819,
                    "duration": 0.11544675000000382
                },
                {
                    "name": "A#3",
                    "midi": 58,
                    "time": 97.89884399999919,
                    "velocity": 0.1732283464566929,
                    "duration": 0.11544675000000382
                },
                {
                    "name": "F4",
                    "midi": 65,
                    "time": 98.01429074999919,
                    "velocity": 0.2047244094488189,
                    "duration": 0.11544675000000382
                },
                {
                    "name": "D4",
                    "midi": 62,
                    "time": 98.1297374999992,
                    "velocity": 0.2204724409448819,
                    "duration": 0.1154467499999896
                },
                {
                    "name": "A#3",
                    "midi": 58,
                    "time": 98.1297374999992,
                    "velocity": 0.1732283464566929,
                    "duration": 0.1154467499999896
                },
                {
                    "name": "F4",
                    "midi": 65,
                    "time": 98.24518424999918,
                    "velocity": 0.2047244094488189,
                    "duration": 0.11544675000000382
                },
                {
                    "name": "A#3",
                    "midi": 58,
                    "time": 98.36063099999919,
                    "velocity": 0.2440944881889764,
                    "duration": 0.11544675000000382
                },
                {
                    "name": "D4",
                    "midi": 62,
                    "time": 98.36063099999919,
                    "velocity": 0.2992125984251969,
                    "duration": 0.11544675000000382
                },
                {
                    "name": "F4",
                    "midi": 65,
                    "time": 98.47607774999919,
                    "velocity": 0.1968503937007874,
                    "duration": 0.11544675000000382
                },
                {
                    "name": "A#3",
                    "midi": 58,
                    "time": 98.5915244999992,
                    "velocity": 0.1889763779527559,
                    "duration": 0.11544675000000382
                },
                {
                    "name": "D4",
                    "midi": 62,
                    "time": 98.5915244999992,
                    "velocity": 0.2283464566929134,
                    "duration": 0.11544675000000382
                },
                {
                    "name": "F4",
                    "midi": 65,
                    "time": 98.7069712499992,
                    "velocity": 0.1889763779527559,
                    "duration": 0.11544675000000382
                },
                {
                    "name": "A#3",
                    "midi": 58,
                    "time": 98.8224179999992,
                    "velocity": 0.1889763779527559,
                    "duration": 0.1154467499999896
                },
                {
                    "name": "D4",
                    "midi": 62,
                    "time": 98.8224179999992,
                    "velocity": 0.2283464566929134,
                    "duration": 0.1154467499999896
                },
                {
                    "name": "F4",
                    "midi": 65,
                    "time": 98.93786474999919,
                    "velocity": 0.1968503937007874,
                    "duration": 0.11544675000000382
                },
                {
                    "name": "A#3",
                    "midi": 58,
                    "time": 99.0533114999992,
                    "velocity": 0.2283464566929134,
                    "duration": 0.11544675000000382
                },
                {
                    "name": "D#4",
                    "midi": 63,
                    "time": 99.0533114999992,
                    "velocity": 0.2677165354330709,
                    "duration": 0.11544675000000382
                },
                {
                    "name": "G4",
                    "midi": 67,
                    "time": 99.1687582499992,
                    "velocity": 0.2047244094488189,
                    "duration": 0.11544675000000382
                },
                {
                    "name": "A#3",
                    "midi": 58,
                    "time": 99.2842049999992,
                    "velocity": 0.1968503937007874,
                    "duration": 0.1154467499999896
                },
                {
                    "name": "D#4",
                    "midi": 63,
                    "time": 99.2842049999992,
                    "velocity": 0.23622047244094488,
                    "duration": 0.1154467499999896
                },
                {
                    "name": "G4",
                    "midi": 67,
                    "time": 99.3996517499992,
                    "velocity": 0.1968503937007874,
                    "duration": 0.11544675000000382
                },
                {
                    "name": "A#3",
                    "midi": 58,
                    "time": 99.5150984999992,
                    "velocity": 0.1968503937007874,
                    "duration": 0.11544675000000382
                },
                {
                    "name": "D#4",
                    "midi": 63,
                    "time": 99.5150984999992,
                    "velocity": 0.23622047244094488,
                    "duration": 0.11544675000000382
                },
                {
                    "name": "G4",
                    "midi": 67,
                    "time": 99.6305452499992,
                    "velocity": 0.1968503937007874,
                    "duration": 0.11544675000000382
                },
                {
                    "name": "A#3",
                    "midi": 58,
                    "time": 99.7459919999992,
                    "velocity": 0.2755905511811024,
                    "duration": 0.11544675000000382
                },
                {
                    "name": "D4",
                    "midi": 62,
                    "time": 99.7459919999992,
                    "velocity": 0.33858267716535434,
                    "duration": 0.11544675000000382
                },
                {
                    "name": "F4",
                    "midi": 65,
                    "time": 99.86143874999921,
                    "velocity": 0.2204724409448819,
                    "duration": 0.11544675000000382
                },
                {
                    "name": "D4",
                    "midi": 62,
                    "time": 99.97688549999921,
                    "velocity": 0.2440944881889764,
                    "duration": 0.1154467499999896
                },
                {
                    "name": "A#3",
                    "midi": 58,
                    "time": 99.97688549999921,
                    "velocity": 0.1968503937007874,
                    "duration": 0.1154467499999896
                },
                {
                    "name": "F4",
                    "midi": 65,
                    "time": 100.0923322499992,
                    "velocity": 0.2047244094488189,
                    "duration": 0.11544675000000382
                },
                {
                    "name": "A#3",
                    "midi": 58,
                    "time": 100.2077789999992,
                    "velocity": 0.2047244094488189,
                    "duration": 0.11544675000000382
                },
                {
                    "name": "D4",
                    "midi": 62,
                    "time": 100.2077789999992,
                    "velocity": 0.25196850393700787,
                    "duration": 0.11544675000000382
                },
                {
                    "name": "F4",
                    "midi": 65,
                    "time": 100.32322574999921,
                    "velocity": 0.2047244094488189,
                    "duration": 0.11544675000000382
                },
                {
                    "name": "A3",
                    "midi": 57,
                    "time": 100.43867249999921,
                    "velocity": 0.25196850393700787,
                    "duration": 0.11544675000000382
                },
                {
                    "name": "D#4",
                    "midi": 63,
                    "time": 100.43867249999921,
                    "velocity": 0.30708661417322836,
                    "duration": 0.11544675000000382
                },
                {
                    "name": "F4",
                    "midi": 65,
                    "time": 100.55411924999922,
                    "velocity": 0.2204724409448819,
                    "duration": 0.11544675000000382
                },
                {
                    "name": "A3",
                    "midi": 57,
                    "time": 100.66956599999922,
                    "velocity": 0.2047244094488189,
                    "duration": 0.11544675000000382
                },
                {
                    "name": "D#4",
                    "midi": 63,
                    "time": 100.66956599999922,
                    "velocity": 0.25196850393700787,
                    "duration": 0.11544675000000382
                },
                {
                    "name": "F4",
                    "midi": 65,
                    "time": 100.78501274999923,
                    "velocity": 0.2283464566929134,
                    "duration": 0.11544675000000382
                },
                {
                    "name": "A3",
                    "midi": 57,
                    "time": 100.90045949999923,
                    "velocity": 0.2204724409448819,
                    "duration": 0.11544675000000382
                },
                {
                    "name": "D#4",
                    "midi": 63,
                    "time": 100.90045949999923,
                    "velocity": 0.25984251968503935,
                    "duration": 0.11544675000000382
                },
                {
                    "name": "F4",
                    "midi": 65,
                    "time": 101.01590624999923,
                    "velocity": 0.2204724409448819,
                    "duration": 0.11544675000000382
                },
                {
                    "name": "A3",
                    "midi": 57,
                    "time": 101.13135299999924,
                    "velocity": 0.2755905511811024,
                    "duration": 0.1154467499999896
                },
                {
                    "name": "D#4",
                    "midi": 63,
                    "time": 101.13135299999924,
                    "velocity": 0.33070866141732286,
                    "duration": 0.1154467499999896
                },
                {
                    "name": "F#4",
                    "midi": 66,
                    "time": 101.24679974999923,
                    "velocity": 0.2283464566929134,
                    "duration": 0.11544675000000382
                },
                {
                    "name": "A3",
                    "midi": 57,
                    "time": 101.36224649999923,
                    "velocity": 0.2204724409448819,
                    "duration": 0.11544675000000382
                },
                {
                    "name": "D#4",
                    "midi": 63,
                    "time": 101.36224649999923,
                    "velocity": 0.2677165354330709,
                    "duration": 0.11544675000000382
                },
                {
                    "name": "F#4",
                    "midi": 66,
                    "time": 101.47769324999923,
                    "velocity": 0.2283464566929134,
                    "duration": 0.11544675000000382
                },
                {
                    "name": "A3",
                    "midi": 57,
                    "time": 101.59313999999924,
                    "velocity": 0.2204724409448819,
                    "duration": 0.11544675000000382
                },
                {
                    "name": "D#4",
                    "midi": 63,
                    "time": 101.59313999999924,
                    "velocity": 0.2677165354330709,
                    "duration": 0.11544675000000382
                },
                {
                    "name": "F#4",
                    "midi": 66,
                    "time": 101.70858674999924,
                    "velocity": 0.23622047244094488,
                    "duration": 0.11544675000000382
                },
                {
                    "name": "A#3",
                    "midi": 58,
                    "time": 101.82403349999925,
                    "velocity": 0.2677165354330709,
                    "duration": 0.11544675000000382
                },
                {
                    "name": "D#4",
                    "midi": 63,
                    "time": 101.82403349999925,
                    "velocity": 0.31496062992125984,
                    "duration": 0.11544675000000382
                },
                {
                    "name": "G4",
                    "midi": 67,
                    "time": 101.93948024999925,
                    "velocity": 0.23622047244094488,
                    "duration": 0.1154467499999896
                },
                {
                    "name": "A#3",
                    "midi": 58,
                    "time": 102.05492699999924,
                    "velocity": 0.2283464566929134,
                    "duration": 0.11544675000000382
                },
                {
                    "name": "D#4",
                    "midi": 63,
                    "time": 102.05492699999924,
                    "velocity": 0.2677165354330709,
                    "duration": 0.11544675000000382
                },
                {
                    "name": "G4",
                    "midi": 67,
                    "time": 102.17037374999924,
                    "velocity": 0.23622047244094488,
                    "duration": 0.11544675000000382
                },
                {
                    "name": "A#3",
                    "midi": 58,
                    "time": 102.28582049999925,
                    "velocity": 0.2283464566929134,
                    "duration": 0.11544675000000382
                },
                {
                    "name": "D#4",
                    "midi": 63,
                    "time": 102.28582049999925,
                    "velocity": 0.2677165354330709,
                    "duration": 0.11544675000000382
                },
                {
                    "name": "G4",
                    "midi": 67,
                    "time": 102.40126724999925,
                    "velocity": 0.23622047244094488,
                    "duration": 0.11544675000000382
                },
                {
                    "name": "C4",
                    "midi": 60,
                    "time": 102.51671399999925,
                    "velocity": 0.2755905511811024,
                    "duration": 0.11544675000000382
                },
                {
                    "name": "D#4",
                    "midi": 63,
                    "time": 102.51671399999925,
                    "velocity": 0.33070866141732286,
                    "duration": 0.11544675000000382
                },
                {
                    "name": "G4",
                    "midi": 67,
                    "time": 102.63216074999926,
                    "velocity": 0.2440944881889764,
                    "duration": 0.11544675000000382
                },
                {
                    "name": "C4",
                    "midi": 60,
                    "time": 102.74760749999926,
                    "velocity": 0.23622047244094488,
                    "duration": 0.11544675000000382
                },
                {
                    "name": "D#4",
                    "midi": 63,
                    "time": 102.74760749999926,
                    "velocity": 0.2755905511811024,
                    "duration": 0.11544675000000382
                },
                {
                    "name": "G4",
                    "midi": 67,
                    "time": 102.86305424999927,
                    "velocity": 0.2440944881889764,
                    "duration": 0.11544675000000382
                },
                {
                    "name": "C4",
                    "midi": 60,
                    "time": 102.97850099999927,
                    "velocity": 0.2440944881889764,
                    "duration": 0.11544675000000382
                },
                {
                    "name": "D#4",
                    "midi": 63,
                    "time": 102.97850099999927,
                    "velocity": 0.29133858267716534,
                    "duration": 0.11544675000000382
                },
                {
                    "name": "G4",
                    "midi": 67,
                    "time": 103.09394774999927,
                    "velocity": 0.25196850393700787,
                    "duration": 0.11544675000000382
                },
                {
                    "name": "G3",
                    "midi": 55,
                    "time": 103.20939449999928,
                    "velocity": 0.2755905511811024,
                    "duration": 0.11544675000000382
                },
                {
                    "name": "D4",
                    "midi": 62,
                    "time": 103.20939449999928,
                    "velocity": 0.33858267716535434,
                    "duration": 0.11544675000000382
                },
                {
                    "name": "G4",
                    "midi": 67,
                    "time": 103.32484124999928,
                    "velocity": 0.25196850393700787,
                    "duration": 0.11544675000000382
                },
                {
                    "name": "G3",
                    "midi": 55,
                    "time": 103.44028799999928,
                    "velocity": 0.2440944881889764,
                    "duration": 0.1154467499999896
                },
                {
                    "name": "D4",
                    "midi": 62,
                    "time": 103.44028799999928,
                    "velocity": 0.29133858267716534,
                    "duration": 0.1154467499999896
                },
                {
                    "name": "G4",
                    "midi": 67,
                    "time": 103.55573474999927,
                    "velocity": 0.25196850393700787,
                    "duration": 0.11544675000000382
                },
                {
                    "name": "G3",
                    "midi": 55,
                    "time": 103.67118149999928,
                    "velocity": 0.2440944881889764,
                    "duration": 0.11544675000000382
                },
                {
                    "name": "D4",
                    "midi": 62,
                    "time": 103.67118149999928,
                    "velocity": 0.29133858267716534,
                    "duration": 0.11544675000000382
                },
                {
                    "name": "G4",
                    "midi": 67,
                    "time": 103.78662824999928,
                    "velocity": 0.25984251968503935,
                    "duration": 0.11544675000000382
                },
                {
                    "name": "D#4",
                    "midi": 63,
                    "time": 103.90207499999929,
                    "velocity": 0.4881889763779528,
                    "duration": 0.23089349999999342
                },
                {
                    "name": "D4",
                    "midi": 62,
                    "time": 104.13296849999928,
                    "velocity": 0.4094488188976378,
                    "duration": 0.23089349999999342
                },
                {
                    "name": "D#4",
                    "midi": 63,
                    "time": 104.36386199999927,
                    "velocity": 0.4094488188976378,
                    "duration": 0.23089349999999342
                },
                {
                    "name": "C4",
                    "midi": 60,
                    "time": 104.59475549999927,
                    "velocity": 0.4881889763779528,
                    "duration": 0.23089349999999342
                },
                {
                    "name": "D4",
                    "midi": 62,
                    "time": 104.82564899999926,
                    "velocity": 0.3937007874015748,
                    "duration": 0.11544675000000382
                },
                {
                    "name": "D#4",
                    "midi": 63,
                    "time": 104.94109574999926,
                    "velocity": 0.3937007874015748,
                    "duration": 0.11544675000000382
                },
                {
                    "name": "F4",
                    "midi": 65,
                    "time": 105.05654249999927,
                    "velocity": 0.4094488188976378,
                    "duration": 0.11544675000000382
                },
                {
                    "name": "G4",
                    "midi": 67,
                    "time": 105.17198924999927,
                    "velocity": 0.4094488188976378,
                    "duration": 0.11544675000000382
                },
                {
                    "name": "D#4",
                    "midi": 63,
                    "time": 105.28743599999927,
                    "velocity": 0.47244094488188976,
                    "duration": 0.23089349999999342
                },
                {
                    "name": "F4",
                    "midi": 65,
                    "time": 105.51832949999927,
                    "velocity": 0.44881889763779526,
                    "duration": 0.11544675000000382
                },
                {
                    "name": "D#4",
                    "midi": 63,
                    "time": 105.63377624999927,
                    "velocity": 0.4094488188976378,
                    "duration": 0.11544675000000382
                },
                {
                    "name": "D4",
                    "midi": 62,
                    "time": 105.74922299999928,
                    "velocity": 0.44881889763779526,
                    "duration": 0.11544675000000382
                },
                {
                    "name": "C4",
                    "midi": 60,
                    "time": 105.86466974999928,
                    "velocity": 0.4094488188976378,
                    "duration": 0.11544675000000382
                },
                {
                    "name": "A#3",
                    "midi": 58,
                    "time": 105.98011649999928,
                    "velocity": 0.48031496062992124,
                    "duration": 0.0577233749999948
                },
                {
                    "name": "A#3",
                    "midi": 58,
                    "time": 106.21100999999928,
                    "velocity": 0.4094488188976378,
                    "duration": 0.0577233749999948
                },
                {
                    "name": "A#3",
                    "midi": 58,
                    "time": 106.44190349999927,
                    "velocity": 0.4094488188976378,
                    "duration": 0.0577233749999948
                },
                {
                    "name": "B3",
                    "midi": 59,
                    "time": 106.67279699999926,
                    "velocity": 0.47244094488188976,
                    "duration": 0.23089349999999342
                },
                {
                    "name": "B4",
                    "midi": 71,
                    "time": 106.90369049999926,
                    "velocity": 0.3937007874015748,
                    "duration": 0.23089349999999342
                },
                {
                    "name": "B4",
                    "midi": 71,
                    "time": 107.13458399999925,
                    "velocity": 0.41732283464566927,
                    "duration": 0.0577233749999948
                },
                {
                    "name": "C5",
                    "midi": 72,
                    "time": 107.36547749999924,
                    "velocity": 0.4881889763779528,
                    "duration": 0.23089349999999342
                },
                {
                    "name": "C4",
                    "midi": 60,
                    "time": 107.59637099999924,
                    "velocity": 0.4566929133858268,
                    "duration": 0.23089349999999342
                },
                {
                    "name": "C4",
                    "midi": 60,
                    "time": 107.82726449999923,
                    "velocity": 0.47244094488188976,
                    "duration": 0.0577233749999948
                },
                {
                    "name": "F4",
                    "midi": 65,
                    "time": 108.05815799999922,
                    "velocity": 0.5196850393700787,
                    "duration": 0.0577233749999948
                },
                {
                    "name": "G3",
                    "midi": 55,
                    "time": 108.23132812499922,
                    "velocity": 0.4566929133858268,
                    "duration": 0.07696449999998833
                },
                {
                    "name": "F3",
                    "midi": 53,
                    "time": 108.28905149999922,
                    "velocity": 0.5275590551181102,
                    "duration": 0.13468787499998314
                },
                {
                    "name": "E3",
                    "midi": 52,
                    "time": 108.40449824999921,
                    "velocity": 0.4881889763779528,
                    "duration": 0.13468787499998314
                },
                {
                    "name": "F3",
                    "midi": 53,
                    "time": 108.5199449999992,
                    "velocity": 0.5196850393700787,
                    "duration": 0.23089349999999342
                },
                {
                    "name": "A#3",
                    "midi": 58,
                    "time": 108.75083849999919,
                    "velocity": 0.4881889763779528,
                    "duration": 0.0577233749999948
                },
                {
                    "name": "C3",
                    "midi": 48,
                    "time": 108.92400862499919,
                    "velocity": 0.4409448818897638,
                    "duration": 0.07696449999998833
                },
                {
                    "name": "A#2",
                    "midi": 46,
                    "time": 108.98173199999918,
                    "velocity": 0.4881889763779528,
                    "duration": 0.13468787499998314
                },
                {
                    "name": "A2",
                    "midi": 45,
                    "time": 109.09717874999917,
                    "velocity": 0.44881889763779526,
                    "duration": 0.13468787499998314
                },
                {
                    "name": "A#2",
                    "midi": 46,
                    "time": 109.21262549999916,
                    "velocity": 0.4881889763779528,
                    "duration": 0.23089349999999342
                },
                {
                    "name": "F2",
                    "midi": 41,
                    "time": 109.44351899999916,
                    "velocity": 0.4409448818897638,
                    "duration": 0.23089349999999342
                },
                {
                    "name": "G2",
                    "midi": 43,
                    "time": 109.67441249999915,
                    "velocity": 0.3464566929133858,
                    "duration": 0.11544675000000382
                },
                {
                    "name": "A2",
                    "midi": 45,
                    "time": 109.78985924999915,
                    "velocity": 0.3464566929133858,
                    "duration": 0.11544675000000382
                },
                {
                    "name": "A#2",
                    "midi": 46,
                    "time": 109.90530599999916,
                    "velocity": 0.3700787401574803,
                    "duration": 0.11544675000000382
                },
                {
                    "name": "C3",
                    "midi": 48,
                    "time": 110.02075274999916,
                    "velocity": 0.3700787401574803,
                    "duration": 0.11544675000000382
                },
                {
                    "name": "A#2",
                    "midi": 46,
                    "time": 110.13619949999917,
                    "velocity": 0.41732283464566927,
                    "duration": 0.0577233749999948
                },
                {
                    "name": "A#2",
                    "midi": 46,
                    "time": 110.36709299999916,
                    "velocity": 0.41732283464566927,
                    "duration": 0.0577233749999948
                },
                {
                    "name": "A#2",
                    "midi": 46,
                    "time": 110.59798649999915,
                    "velocity": 0.41732283464566927,
                    "duration": 0.0577233749999948
                },
                {
                    "name": "F3",
                    "midi": 53,
                    "time": 110.82887999999915,
                    "velocity": 0.3937007874015748,
                    "duration": 0.23089349999999342
                },
                {
                    "name": "G3",
                    "midi": 55,
                    "time": 111.05977349999914,
                    "velocity": 0.30708661417322836,
                    "duration": 0.11544675000000382
                },
                {
                    "name": "A3",
                    "midi": 57,
                    "time": 111.17522024999914,
                    "velocity": 0.30708661417322836,
                    "duration": 0.11544675000000382
                },
                {
                    "name": "A#3",
                    "midi": 58,
                    "time": 111.29066699999915,
                    "velocity": 0.3228346456692913,
                    "duration": 0.11544675000000382
                },
                {
                    "name": "C4",
                    "midi": 60,
                    "time": 111.40611374999915,
                    "velocity": 0.3228346456692913,
                    "duration": 0.11544675000000382
                },
                {
                    "name": "A#3",
                    "midi": 58,
                    "time": 111.52156049999915,
                    "velocity": 0.3779527559055118,
                    "duration": 0.0577233749999948
                },
                {
                    "name": "A#3",
                    "midi": 58,
                    "time": 111.75245399999915,
                    "velocity": 0.3779527559055118,
                    "duration": 0.0577233749999948
                },
                {
                    "name": "A#3",
                    "midi": 58,
                    "time": 111.98334749999914,
                    "velocity": 0.3779527559055118,
                    "duration": 0.0577233749999948
                },
                {
                    "name": "F4",
                    "midi": 65,
                    "time": 112.21424099999913,
                    "velocity": 0.3464566929133858,
                    "duration": 0.23089349999999342
                },
                {
                    "name": "G4",
                    "midi": 67,
                    "time": 112.44513449999913,
                    "velocity": 0.2677165354330709,
                    "duration": 0.11544675000000382
                },
                {
                    "name": "A4",
                    "midi": 69,
                    "time": 112.56058124999913,
                    "velocity": 0.2677165354330709,
                    "duration": 0.11544675000000382
                },
                {
                    "name": "A#4",
                    "midi": 70,
                    "time": 112.67602799999914,
                    "velocity": 0.29133858267716534,
                    "duration": 0.11544675000000382
                },
                {
                    "name": "C5",
                    "midi": 72,
                    "time": 112.79147474999914,
                    "velocity": 0.29133858267716534,
                    "duration": 0.11544675000000382
                },
                {
                    "name": "A#4",
                    "midi": 70,
                    "time": 112.90692149999914,
                    "velocity": 0.33070866141732286,
                    "duration": 0.23089349999999342
                },
                {
                    "name": "A#2",
                    "midi": 46,
                    "time": 113.83049549999915,
                    "velocity": 0.3543307086614173,
                    "duration": 0.11544675000000382
                },
                {
                    "name": "C#3",
                    "midi": 49,
                    "time": 114.29228249999915,
                    "velocity": 0.49606299212598426,
                    "duration": 0.11544675000000382
                },
                {
                    "name": "F#2",
                    "midi": 42,
                    "time": 115.21585649999915,
                    "velocity": 0.3543307086614173,
                    "duration": 0.23089349999999342
                },
                {
                    "name": "F2",
                    "midi": 41,
                    "time": 115.67764349999914,
                    "velocity": 0.49606299212598426,
                    "duration": 0.11544675000000382
                },
                {
                    "name": "A#2",
                    "midi": 46,
                    "time": 116.60121749999914,
                    "velocity": 0.3543307086614173,
                    "duration": 0.23089349999999342
                },
                {
                    "name": "C#3",
                    "midi": 49,
                    "time": 117.06300449999912,
                    "velocity": 0.49606299212598426,
                    "duration": 0.23089349999999342
                },
                {
                    "name": "F2",
                    "midi": 41,
                    "time": 117.98657849999911,
                    "velocity": 0.2992125984251969,
                    "duration": 0.23089349999999342
                },
                {
                    "name": "G#1",
                    "midi": 32,
                    "time": 118.4483654999991,
                    "velocity": 0.33858267716535434,
                    "duration": 0.11544675000000382
                },
                {
                    "name": "C#2",
                    "midi": 37,
                    "time": 119.3719394999991,
                    "velocity": 0.2992125984251969,
                    "duration": 0.23089349999999342
                },
                {
                    "name": "C#2",
                    "midi": 37,
                    "time": 119.83372649999909,
                    "velocity": 0.30708661417322836,
                    "duration": 0.11544675000000382
                },
                {
                    "name": "C#3",
                    "midi": 49,
                    "time": 120.0646199999991,
                    "velocity": 0.25196850393700787,
                    "duration": 0.11544675000000382
                },
                {
                    "name": "C3",
                    "midi": 48,
                    "time": 120.2955134999991,
                    "velocity": 0.2283464566929134,
                    "duration": 0.11544675000000382
                },
                {
                    "name": "A#2",
                    "midi": 46,
                    "time": 120.7573004999991,
                    "velocity": 0.3543307086614173,
                    "duration": 0.11544675000000382
                },
                {
                    "name": "C#3",
                    "midi": 49,
                    "time": 121.2190874999991,
                    "velocity": 0.49606299212598426,
                    "duration": 0.11544675000000382
                },
                {
                    "name": "F#2",
                    "midi": 42,
                    "time": 122.14266149999911,
                    "velocity": 0.3543307086614173,
                    "duration": 0.23089349999999342
                },
                {
                    "name": "F2",
                    "midi": 41,
                    "time": 122.6044484999991,
                    "velocity": 0.49606299212598426,
                    "duration": 0.11544675000000382
                },
                {
                    "name": "A#2",
                    "midi": 46,
                    "time": 123.5280224999991,
                    "velocity": 0.3543307086614173,
                    "duration": 0.23089349999999342
                },
                {
                    "name": "C#3",
                    "midi": 49,
                    "time": 123.98980949999908,
                    "velocity": 0.49606299212598426,
                    "duration": 0.23089349999999342
                },
                {
                    "name": "F2",
                    "midi": 41,
                    "time": 124.91338349999907,
                    "velocity": 0.2992125984251969,
                    "duration": 0.23089349999999342
                },
                {
                    "name": "G#1",
                    "midi": 32,
                    "time": 125.37517049999906,
                    "velocity": 0.33858267716535434,
                    "duration": 0.11544675000000382
                },
                {
                    "name": "C#2",
                    "midi": 37,
                    "time": 126.29874449999906,
                    "velocity": 0.2992125984251969,
                    "duration": 0.23089349999999342
                },
                {
                    "name": "C#2",
                    "midi": 37,
                    "time": 126.76053149999905,
                    "velocity": 0.30708661417322836,
                    "duration": 0.11544675000000382
                },
                {
                    "name": "C#3",
                    "midi": 49,
                    "time": 126.99142499999905,
                    "velocity": 0.25196850393700787,
                    "duration": 0.11544675000000382
                },
                {
                    "name": "C3",
                    "midi": 48,
                    "time": 127.22231849999906,
                    "velocity": 0.2283464566929134,
                    "duration": 0.11544675000000382
                },
                {
                    "name": "A#2",
                    "midi": 46,
                    "time": 127.68410549999906,
                    "velocity": 0.3543307086614173,
                    "duration": 0.23089349999999342
                },
                {
                    "name": "C#3",
                    "midi": 49,
                    "time": 128.14589249999906,
                    "velocity": 0.5275590551181102,
                    "duration": 0.23089350000000763
                },
                {
                    "name": "C3",
                    "midi": 48,
                    "time": 129.06946649999907,
                    "velocity": 0.4015748031496063,
                    "duration": 0.23089350000000763
                },
                {
                    "name": "C2",
                    "midi": 36,
                    "time": 129.53125349999908,
                    "velocity": 0.5748031496062992,
                    "duration": 0.23089350000000763
                },
                {
                    "name": "C3",
                    "midi": 48,
                    "time": 130.45482749999908,
                    "velocity": 0.33858267716535434,
                    "duration": 0.23089350000000763
                },
                {
                    "name": "D#3",
                    "midi": 51,
                    "time": 130.9166144999991,
                    "velocity": 0.2755905511811024,
                    "duration": 0.23089350000000763
                },
                {
                    "name": "G#2",
                    "midi": 44,
                    "time": 131.8401884999991,
                    "velocity": 0.3543307086614173,
                    "duration": 0.1154467499999896
                },
                {
                    "name": "F#2",
                    "midi": 42,
                    "time": 132.07108199999908,
                    "velocity": 0.3779527559055118,
                    "duration": 0.1154467499999896
                },
                {
                    "name": "F2",
                    "midi": 41,
                    "time": 132.30197549999906,
                    "velocity": 0.33070866141732286,
                    "duration": 0.1154467499999896
                },
                {
                    "name": "A#3",
                    "midi": 58,
                    "time": 133.22554949999906,
                    "velocity": 0.3543307086614173,
                    "duration": 0.23089350000000763
                },
                {
                    "name": "C#4",
                    "midi": 61,
                    "time": 133.68733649999908,
                    "velocity": 0.49606299212598426,
                    "duration": 0.23089350000000763
                },
                {
                    "name": "F#3",
                    "midi": 54,
                    "time": 134.6109104999991,
                    "velocity": 0.3543307086614173,
                    "duration": 0.23089350000000763
                },
                {
                    "name": "F3",
                    "midi": 53,
                    "time": 135.07269749999912,
                    "velocity": 0.49606299212598426,
                    "duration": 0.23089350000000763
                },
                {
                    "name": "A#2",
                    "midi": 46,
                    "time": 135.99627149999915,
                    "velocity": 0.3543307086614173,
                    "duration": 0.23089350000000763
                },
                {
                    "name": "C#3",
                    "midi": 49,
                    "time": 136.45805849999917,
                    "velocity": 0.49606299212598426,
                    "duration": 0.23089350000000763
                },
                {
                    "name": "F2",
                    "midi": 41,
                    "time": 137.38163249999917,
                    "velocity": 0.3543307086614173,
                    "duration": 0.23089350000000763
                },
                {
                    "name": "F1",
                    "midi": 29,
                    "time": 137.8434194999992,
                    "velocity": 0.5039370078740157,
                    "duration": 0.23089350000000763
                },
                {
                    "name": "A#1",
                    "midi": 34,
                    "time": 138.7669934999992,
                    "velocity": 0.2992125984251969,
                    "duration": 0.23089350000000763
                },
                {
                    "name": "A#2",
                    "midi": 46,
                    "time": 139.2287804999992,
                    "velocity": 0.30708661417322836,
                    "duration": 0.1154467499999896
                },
                {
                    "name": "C#3",
                    "midi": 49,
                    "time": 139.45967399999918,
                    "velocity": 0.25196850393700787,
                    "duration": 0.1154467499999896
                },
                {
                    "name": "C3",
                    "midi": 48,
                    "time": 139.69056749999916,
                    "velocity": 0.2283464566929134,
                    "duration": 0.1154467499999896
                },
                {
                    "name": "A#2",
                    "midi": 46,
                    "time": 140.15235449999915,
                    "velocity": 0.3543307086614173,
                    "duration": 0.23089350000000763
                },
                {
                    "name": "C#3",
                    "midi": 49,
                    "time": 140.61414149999916,
                    "velocity": 0.5275590551181102,
                    "duration": 0.23089350000000763
                },
                {
                    "name": "C3",
                    "midi": 48,
                    "time": 141.53771549999917,
                    "velocity": 0.4015748031496063,
                    "duration": 0.23089350000000763
                },
                {
                    "name": "C2",
                    "midi": 36,
                    "time": 141.99950249999918,
                    "velocity": 0.5748031496062992,
                    "duration": 0.23089350000000763
                },
                {
                    "name": "C3",
                    "midi": 48,
                    "time": 142.92307649999918,
                    "velocity": 0.33858267716535434,
                    "duration": 0.23089350000000763
                },
                {
                    "name": "D#3",
                    "midi": 51,
                    "time": 143.3848634999992,
                    "velocity": 0.2755905511811024,
                    "duration": 0.23089350000000763
                },
                {
                    "name": "G#2",
                    "midi": 44,
                    "time": 144.3084374999992,
                    "velocity": 0.3543307086614173,
                    "duration": 0.1154467499999896
                },
                {
                    "name": "F#2",
                    "midi": 42,
                    "time": 144.53933099999918,
                    "velocity": 0.3779527559055118,
                    "duration": 0.1154467499999896
                },
                {
                    "name": "F2",
                    "midi": 41,
                    "time": 144.77022449999916,
                    "velocity": 0.33070866141732286,
                    "duration": 0.1154467499999896
                },
                {
                    "name": "A#3",
                    "midi": 58,
                    "time": 145.69379849999916,
                    "velocity": 0.3543307086614173,
                    "duration": 0.23089350000000763
                },
                {
                    "name": "C#4",
                    "midi": 61,
                    "time": 146.15558549999918,
                    "velocity": 0.49606299212598426,
                    "duration": 0.23089350000000763
                },
                {
                    "name": "F#3",
                    "midi": 54,
                    "time": 147.0791594999992,
                    "velocity": 0.3543307086614173,
                    "duration": 0.23089350000000763
                },
                {
                    "name": "F3",
                    "midi": 53,
                    "time": 147.54094649999922,
                    "velocity": 0.49606299212598426,
                    "duration": 0.23089350000000763
                },
                {
                    "name": "A#2",
                    "midi": 46,
                    "time": 148.46452049999925,
                    "velocity": 0.3543307086614173,
                    "duration": 0.23089350000000763
                },
                {
                    "name": "C#3",
                    "midi": 49,
                    "time": 148.92630749999927,
                    "velocity": 0.49606299212598426,
                    "duration": 0.23089350000000763
                },
                {
                    "name": "F2",
                    "midi": 41,
                    "time": 149.84988149999927,
                    "velocity": 0.3543307086614173,
                    "duration": 0.23089350000000763
                },
                {
                    "name": "F1",
                    "midi": 29,
                    "time": 150.31166849999929,
                    "velocity": 0.5039370078740157,
                    "duration": 0.23089350000000763
                },
                {
                    "name": "A#1",
                    "midi": 34,
                    "time": 151.2352424999993,
                    "velocity": 0.2992125984251969,
                    "duration": 0.23089350000000763
                },
                {
                    "name": "A#2",
                    "midi": 46,
                    "time": 151.6970294999993,
                    "velocity": 0.30708661417322836,
                    "duration": 0.23089350000000763
                },
                {
                    "name": "A#3",
                    "midi": 58,
                    "time": 152.3897099999993,
                    "velocity": 0.2440944881889764,
                    "duration": 0.1154467499999896
                },
                {
                    "name": "D4",
                    "midi": 62,
                    "time": 152.3897099999993,
                    "velocity": 0.2992125984251969,
                    "duration": 0.1154467499999896
                },
                {
                    "name": "F4",
                    "midi": 65,
                    "time": 152.5051567499993,
                    "velocity": 0.1968503937007874,
                    "duration": 0.1154467499999896
                },
                {
                    "name": "A#3",
                    "midi": 58,
                    "time": 152.62060349999928,
                    "velocity": 0.1889763779527559,
                    "duration": 0.11544675000001803
                },
                {
                    "name": "D4",
                    "midi": 62,
                    "time": 152.62060349999928,
                    "velocity": 0.2283464566929134,
                    "duration": 0.11544675000001803
                },
                {
                    "name": "F4",
                    "midi": 65,
                    "time": 152.7360502499993,
                    "velocity": 0.1889763779527559,
                    "duration": 0.1154467499999896
                },
                {
                    "name": "A#3",
                    "midi": 58,
                    "time": 152.85149699999928,
                    "velocity": 0.1889763779527559,
                    "duration": 0.11544675000001803
                },
                {
                    "name": "D4",
                    "midi": 62,
                    "time": 152.85149699999928,
                    "velocity": 0.2283464566929134,
                    "duration": 0.11544675000001803
                },
                {
                    "name": "F4",
                    "midi": 65,
                    "time": 152.9669437499993,
                    "velocity": 0.1968503937007874,
                    "duration": 0.1154467499999896
                },
                {
                    "name": "A#3",
                    "midi": 58,
                    "time": 153.0823904999993,
                    "velocity": 0.2204724409448819,
                    "duration": 0.1154467499999896
                },
                {
                    "name": "D#4",
                    "midi": 63,
                    "time": 153.0823904999993,
                    "velocity": 0.2677165354330709,
                    "duration": 0.1154467499999896
                },
                {
                    "name": "G4",
                    "midi": 67,
                    "time": 153.19783724999928,
                    "velocity": 0.1968503937007874,
                    "duration": 0.1154467499999896
                },
                {
                    "name": "A#3",
                    "midi": 58,
                    "time": 153.31328399999927,
                    "velocity": 0.1889763779527559,
                    "duration": 0.11544675000001803
                },
                {
                    "name": "D#4",
                    "midi": 63,
                    "time": 153.31328399999927,
                    "velocity": 0.2283464566929134,
                    "duration": 0.11544675000001803
                },
                {
                    "name": "G4",
                    "midi": 67,
                    "time": 153.4287307499993,
                    "velocity": 0.1889763779527559,
                    "duration": 0.1154467499999896
                },
                {
                    "name": "A#3",
                    "midi": 58,
                    "time": 153.54417749999928,
                    "velocity": 0.1889763779527559,
                    "duration": 0.1154467499999896
                },
                {
                    "name": "D#4",
                    "midi": 63,
                    "time": 153.54417749999928,
                    "velocity": 0.2283464566929134,
                    "duration": 0.1154467499999896
                },
                {
                    "name": "G4",
                    "midi": 67,
                    "time": 153.65962424999927,
                    "velocity": 0.1889763779527559,
                    "duration": 0.1154467499999896
                },
                {
                    "name": "A#3",
                    "midi": 58,
                    "time": 153.77507099999926,
                    "velocity": 0.2677165354330709,
                    "duration": 0.1154467499999896
                },
                {
                    "name": "D4",
                    "midi": 62,
                    "time": 153.77507099999926,
                    "velocity": 0.31496062992125984,
                    "duration": 0.1154467499999896
                },
                {
                    "name": "F4",
                    "midi": 65,
                    "time": 153.89051774999925,
                    "velocity": 0.1968503937007874,
                    "duration": 0.1154467499999896
                },
                {
                    "name": "D4",
                    "midi": 62,
                    "time": 154.00596449999924,
                    "velocity": 0.2283464566929134,
                    "duration": 0.1154467499999896
                },
                {
                    "name": "A#3",
                    "midi": 58,
                    "time": 154.00596449999924,
                    "velocity": 0.1889763779527559,
                    "duration": 0.1154467499999896
                },
                {
                    "name": "F4",
                    "midi": 65,
                    "time": 154.12141124999923,
                    "velocity": 0.1889763779527559,
                    "duration": 0.1154467499999896
                },
                {
                    "name": "A#3",
                    "midi": 58,
                    "time": 154.23685799999922,
                    "velocity": 0.1889763779527559,
                    "duration": 0.1154467499999896
                },
                {
                    "name": "D4",
                    "midi": 62,
                    "time": 154.23685799999922,
                    "velocity": 0.2283464566929134,
                    "duration": 0.1154467499999896
                },
                {
                    "name": "F4",
                    "midi": 65,
                    "time": 154.3523047499992,
                    "velocity": 0.1889763779527559,
                    "duration": 0.1154467499999896
                },
                {
                    "name": "A3",
                    "midi": 57,
                    "time": 154.4677514999992,
                    "velocity": 0.2283464566929134,
                    "duration": 0.11544675000001803
                },
                {
                    "name": "D#4",
                    "midi": 63,
                    "time": 154.4677514999992,
                    "velocity": 0.2677165354330709,
                    "duration": 0.11544675000001803
                },
                {
                    "name": "F4",
                    "midi": 65,
                    "time": 154.5831982499992,
                    "velocity": 0.1968503937007874,
                    "duration": 0.1154467499999896
                },
                {
                    "name": "A3",
                    "midi": 57,
                    "time": 154.6986449999992,
                    "velocity": 0.1889763779527559,
                    "duration": 0.1154467499999896
                },
                {
                    "name": "D#4",
                    "midi": 63,
                    "time": 154.6986449999992,
                    "velocity": 0.2283464566929134,
                    "duration": 0.1154467499999896
                },
                {
                    "name": "F4",
                    "midi": 65,
                    "time": 154.8140917499992,
                    "velocity": 0.2047244094488189,
                    "duration": 0.1154467499999896
                },
                {
                    "name": "A3",
                    "midi": 57,
                    "time": 154.92953849999918,
                    "velocity": 0.1889763779527559,
                    "duration": 0.1154467499999896
                },
                {
                    "name": "D#4",
                    "midi": 63,
                    "time": 154.92953849999918,
                    "velocity": 0.2283464566929134,
                    "duration": 0.1154467499999896
                },
                {
                    "name": "F4",
                    "midi": 65,
                    "time": 155.04498524999917,
                    "velocity": 0.1968503937007874,
                    "duration": 0.1154467499999896
                },
                {
                    "name": "A3",
                    "midi": 57,
                    "time": 155.16043199999916,
                    "velocity": 0.2440944881889764,
                    "duration": 0.11544675000001803
                },
                {
                    "name": "D#4",
                    "midi": 63,
                    "time": 155.16043199999916,
                    "velocity": 0.29133858267716534,
                    "duration": 0.11544675000001803
                },
                {
                    "name": "F#4",
                    "midi": 66,
                    "time": 155.27587874999918,
                    "velocity": 0.1968503937007874,
                    "duration": 0.1154467499999896
                },
                {
                    "name": "A3",
                    "midi": 57,
                    "time": 155.39132549999917,
                    "velocity": 0.1889763779527559,
                    "duration": 0.1154467499999896
                },
                {
                    "name": "D#4",
                    "midi": 63,
                    "time": 155.39132549999917,
                    "velocity": 0.2283464566929134,
                    "duration": 0.1154467499999896
                },
                {
                    "name": "F#4",
                    "midi": 66,
                    "time": 155.50677224999916,
                    "velocity": 0.1968503937007874,
                    "duration": 0.1154467499999896
                },
                {
                    "name": "A3",
                    "midi": 57,
                    "time": 155.62221899999915,
                    "velocity": 0.1889763779527559,
                    "duration": 0.1154467499999896
                },
                {
                    "name": "D#4",
                    "midi": 63,
                    "time": 155.62221899999915,
                    "velocity": 0.2283464566929134,
                    "duration": 0.1154467499999896
                },
                {
                    "name": "F#4",
                    "midi": 66,
                    "time": 155.73766574999914,
                    "velocity": 0.1968503937007874,
                    "duration": 0.1154467499999896
                },
                {
                    "name": "A#3",
                    "midi": 58,
                    "time": 155.85311249999913,
                    "velocity": 0.2283464566929134,
                    "duration": 0.1154467499999896
                },
                {
                    "name": "D#4",
                    "midi": 63,
                    "time": 155.85311249999913,
                    "velocity": 0.2677165354330709,
                    "duration": 0.1154467499999896
                },
                {
                    "name": "G4",
                    "midi": 67,
                    "time": 155.96855924999912,
                    "velocity": 0.1968503937007874,
                    "duration": 0.1154467499999896
                },
                {
                    "name": "A#3",
                    "midi": 58,
                    "time": 156.0840059999991,
                    "velocity": 0.1889763779527559,
                    "duration": 0.1154467499999896
                },
                {
                    "name": "D#4",
                    "midi": 63,
                    "time": 156.0840059999991,
                    "velocity": 0.2283464566929134,
                    "duration": 0.1154467499999896
                },
                {
                    "name": "G4",
                    "midi": 67,
                    "time": 156.1994527499991,
                    "velocity": 0.1968503937007874,
                    "duration": 0.1154467499999896
                },
                {
                    "name": "A#3",
                    "midi": 58,
                    "time": 156.3148994999991,
                    "velocity": 0.1889763779527559,
                    "duration": 0.1154467499999896
                },
                {
                    "name": "D#4",
                    "midi": 63,
                    "time": 156.3148994999991,
                    "velocity": 0.2283464566929134,
                    "duration": 0.1154467499999896
                },
                {
                    "name": "G4",
                    "midi": 67,
                    "time": 156.43034624999908,
                    "velocity": 0.1968503937007874,
                    "duration": 0.1154467499999896
                },
                {
                    "name": "C4",
                    "midi": 60,
                    "time": 156.54579299999907,
                    "velocity": 0.2283464566929134,
                    "duration": 0.1154467499999896
                },
                {
                    "name": "D#4",
                    "midi": 63,
                    "time": 156.54579299999907,
                    "velocity": 0.2677165354330709,
                    "duration": 0.1154467499999896
                },
                {
                    "name": "F4",
                    "midi": 65,
                    "time": 156.66123974999905,
                    "velocity": 0.1968503937007874,
                    "duration": 0.1154467499999896
                },
                {
                    "name": "C4",
                    "midi": 60,
                    "time": 156.77668649999904,
                    "velocity": 0.1889763779527559,
                    "duration": 0.11544675000001803
                },
                {
                    "name": "D#4",
                    "midi": 63,
                    "time": 156.77668649999904,
                    "velocity": 0.2283464566929134,
                    "duration": 0.11544675000001803
                },
                {
                    "name": "F4",
                    "midi": 65,
                    "time": 156.89213324999906,
                    "velocity": 0.1968503937007874,
                    "duration": 0.1154467499999896
                },
                {
                    "name": "C4",
                    "midi": 60,
                    "time": 157.00757999999905,
                    "velocity": 0.1889763779527559,
                    "duration": 0.1154467499999896
                },
                {
                    "name": "D#4",
                    "midi": 63,
                    "time": 157.00757999999905,
                    "velocity": 0.2283464566929134,
                    "duration": 0.1154467499999896
                },
                {
                    "name": "F4",
                    "midi": 65,
                    "time": 157.12302674999904,
                    "velocity": 0.1968503937007874,
                    "duration": 0.1154467499999896
                },
                {
                    "name": "A#3",
                    "midi": 58,
                    "time": 157.23847349999903,
                    "velocity": 0.2283464566929134,
                    "duration": 0.1154467499999896
                },
                {
                    "name": "D4",
                    "midi": 62,
                    "time": 157.23847349999903,
                    "velocity": 0.2677165354330709,
                    "duration": 0.1154467499999896
                },
                {
                    "name": "F4",
                    "midi": 65,
                    "time": 157.35392024999902,
                    "velocity": 0.1968503937007874,
                    "duration": 0.1154467499999896
                },
                {
                    "name": "A#3",
                    "midi": 58,
                    "time": 157.469366999999,
                    "velocity": 0.1889763779527559,
                    "duration": 0.1154467499999896
                },
                {
                    "name": "D4",
                    "midi": 62,
                    "time": 157.469366999999,
                    "velocity": 0.2283464566929134,
                    "duration": 0.1154467499999896
                },
                {
                    "name": "F4",
                    "midi": 65,
                    "time": 157.584813749999,
                    "velocity": 0.1968503937007874,
                    "duration": 0.1154467499999896
                },
                {
                    "name": "A#3",
                    "midi": 58,
                    "time": 157.700260499999,
                    "velocity": 0.1889763779527559,
                    "duration": 0.1154467499999896
                },
                {
                    "name": "D4",
                    "midi": 62,
                    "time": 157.700260499999,
                    "velocity": 0.2283464566929134,
                    "duration": 0.1154467499999896
                },
                {
                    "name": "F4",
                    "midi": 65,
                    "time": 157.81570724999898,
                    "velocity": 0.1968503937007874,
                    "duration": 0.1154467499999896
                },
                {
                    "name": "A#3",
                    "midi": 58,
                    "time": 157.93115399999897,
                    "velocity": 0.3779527559055118,
                    "duration": 0.23089350000000763
                },
                {
                    "name": "A3",
                    "midi": 57,
                    "time": 158.16204749999898,
                    "velocity": 0.31496062992125984,
                    "duration": 0.23089350000000763
                },
                {
                    "name": "A#3",
                    "midi": 58,
                    "time": 158.39294099999898,
                    "velocity": 0.31496062992125984,
                    "duration": 0.23089350000000763
                },
                {
                    "name": "G3",
                    "midi": 55,
                    "time": 158.623834499999,
                    "velocity": 0.3779527559055118,
                    "duration": 0.23089350000000763
                },
                {
                    "name": "A3",
                    "midi": 57,
                    "time": 158.854727999999,
                    "velocity": 0.30708661417322836,
                    "duration": 0.1154467499999896
                },
                {
                    "name": "A#3",
                    "midi": 58,
                    "time": 158.970174749999,
                    "velocity": 0.30708661417322836,
                    "duration": 0.1154467499999896
                },
                {
                    "name": "C4",
                    "midi": 60,
                    "time": 159.08562149999898,
                    "velocity": 0.31496062992125984,
                    "duration": 0.1154467499999896
                },
                {
                    "name": "D4",
                    "midi": 62,
                    "time": 159.20106824999897,
                    "velocity": 0.31496062992125984,
                    "duration": 0.1154467499999896
                },
                {
                    "name": "A#3",
                    "midi": 58,
                    "time": 159.31651499999896,
                    "velocity": 0.36220472440944884,
                    "duration": 0.23089350000000763
                },
                {
                    "name": "C4",
                    "midi": 60,
                    "time": 159.54740849999897,
                    "velocity": 0.3464566929133858,
                    "duration": 0.1154467499999896
                },
                {
                    "name": "A#3",
                    "midi": 58,
                    "time": 159.66285524999896,
                    "velocity": 0.31496062992125984,
                    "duration": 0.1154467499999896
                },
                {
                    "name": "A3",
                    "midi": 57,
                    "time": 159.77830199999894,
                    "velocity": 0.3464566929133858,
                    "duration": 0.1154467499999896
                },
                {
                    "name": "G3",
                    "midi": 55,
                    "time": 159.89374874999893,
                    "velocity": 0.31496062992125984,
                    "duration": 0.1154467499999896
                },
                {
                    "name": "F3",
                    "midi": 53,
                    "time": 160.00919549999892,
                    "velocity": 0.3700787401574803,
                    "duration": 0.1154467499999896
                },
                {
                    "name": "F3",
                    "midi": 53,
                    "time": 160.2400889999989,
                    "velocity": 0.31496062992125984,
                    "duration": 0.1154467499999896
                },
                {
                    "name": "F3",
                    "midi": 53,
                    "time": 160.47098249999888,
                    "velocity": 0.31496062992125984,
                    "duration": 0.1154467499999896
                },
                {
                    "name": "F#3",
                    "midi": 54,
                    "time": 160.70187599999886,
                    "velocity": 0.4015748031496063,
                    "duration": 0.23089350000000763
                },
                {
                    "name": "F#4",
                    "midi": 66,
                    "time": 160.93276949999887,
                    "velocity": 0.30708661417322836,
                    "duration": 0.23089350000000763
                },
                {
                    "name": "F#4",
                    "midi": 66,
                    "time": 161.16366299999888,
                    "velocity": 0.3228346456692913,
                    "duration": 0.1154467499999896
                },
                {
                    "name": "G4",
                    "midi": 67,
                    "time": 161.39455649999886,
                    "velocity": 0.4015748031496063,
                    "duration": 0.23089350000000763
                },
                {
                    "name": "G3",
                    "midi": 55,
                    "time": 161.62544999999886,
                    "velocity": 0.3543307086614173,
                    "duration": 0.23089350000000763
                },
                {
                    "name": "G3",
                    "midi": 55,
                    "time": 161.85634349999887,
                    "velocity": 0.36220472440944884,
                    "duration": 0.1154467499999896
                },
                {
                    "name": "A#3",
                    "midi": 58,
                    "time": 162.08723699999885,
                    "velocity": 0.4015748031496063,
                    "duration": 0.0577233749999948
                },
                {
                    "name": "C3",
                    "midi": 48,
                    "time": 162.26040712499884,
                    "velocity": 0.30708661417322836,
                    "duration": 0.07696450000000254
                },
                {
                    "name": "A#2",
                    "midi": 46,
                    "time": 162.31813049999883,
                    "velocity": 0.36220472440944884,
                    "duration": 0.13468787500002577
                },
                {
                    "name": "A2",
                    "midi": 45,
                    "time": 162.43357724999885,
                    "velocity": 0.33070866141732286,
                    "duration": 0.13468787500002577
                },
                {
                    "name": "A#2",
                    "midi": 46,
                    "time": 162.54902399999887,
                    "velocity": 0.3543307086614173,
                    "duration": 0.23089350000000763
                },
                {
                    "name": "D#3",
                    "midi": 51,
                    "time": 162.77991749999887,
                    "velocity": 0.33070866141732286,
                    "duration": 0.0577233749999948
                },
                {
                    "name": "F2",
                    "midi": 41,
                    "time": 162.95308762499886,
                    "velocity": 0.30708661417322836,
                    "duration": 0.07696450000000254
                },
                {
                    "name": "D#2",
                    "midi": 39,
                    "time": 163.01081099999885,
                    "velocity": 0.33070866141732286,
                    "duration": 0.13468787500002577
                },
                {
                    "name": "D2",
                    "midi": 38,
                    "time": 163.12625774999887,
                    "velocity": 0.30708661417322836,
                    "duration": 0.13468787500002577
                },
                {
                    "name": "D#2",
                    "midi": 39,
                    "time": 163.2417044999989,
                    "velocity": 0.33070866141732286,
                    "duration": 0.11544675000001803
                },
                {
                    "name": "D#4",
                    "midi": 63,
                    "time": 163.4725979999989,
                    "velocity": 0.2283464566929134,
                    "duration": 0.1154467499999896
                },
                {
                    "name": "G4",
                    "midi": 67,
                    "time": 163.4725979999989,
                    "velocity": 0.2677165354330709,
                    "duration": 0.1154467499999896
                },
                {
                    "name": "A#4",
                    "midi": 70,
                    "time": 163.5880447499989,
                    "velocity": 0.2204724409448819,
                    "duration": 0.1154467499999896
                },
                {
                    "name": "D#4",
                    "midi": 63,
                    "time": 163.70349149999888,
                    "velocity": 0.2047244094488189,
                    "duration": 0.1154467499999896
                },
                {
                    "name": "G4",
                    "midi": 67,
                    "time": 163.70349149999888,
                    "velocity": 0.25196850393700787,
                    "duration": 0.1154467499999896
                },
                {
                    "name": "A#4",
                    "midi": 70,
                    "time": 163.81893824999887,
                    "velocity": 0.2204724409448819,
                    "duration": 0.1154467499999896
                },
                {
                    "name": "D#4",
                    "midi": 63,
                    "time": 163.93438499999885,
                    "velocity": 0.2047244094488189,
                    "duration": 0.1154467499999896
                },
                {
                    "name": "G4",
                    "midi": 67,
                    "time": 163.93438499999885,
                    "velocity": 0.25196850393700787,
                    "duration": 0.1154467499999896
                },
                {
                    "name": "A#4",
                    "midi": 70,
                    "time": 164.04983174999884,
                    "velocity": 0.2204724409448819,
                    "duration": 0.1154467499999896
                },
                {
                    "name": "D4",
                    "midi": 62,
                    "time": 164.16527849999883,
                    "velocity": 0.2047244094488189,
                    "duration": 0.11544675000001803
                },
                {
                    "name": "F4",
                    "midi": 65,
                    "time": 164.16527849999883,
                    "velocity": 0.25196850393700787,
                    "duration": 0.11544675000001803
                },
                {
                    "name": "A#4",
                    "midi": 70,
                    "time": 164.28072524999885,
                    "velocity": 0.2204724409448819,
                    "duration": 0.1154467499999896
                },
                {
                    "name": "D4",
                    "midi": 62,
                    "time": 164.39617199999884,
                    "velocity": 0.2047244094488189,
                    "duration": 0.1154467499999896
                },
                {
                    "name": "F4",
                    "midi": 65,
                    "time": 164.39617199999884,
                    "velocity": 0.25196850393700787,
                    "duration": 0.1154467499999896
                },
                {
                    "name": "A#4",
                    "midi": 70,
                    "time": 164.51161874999883,
                    "velocity": 0.2204724409448819,
                    "duration": 0.1154467499999896
                },
                {
                    "name": "C#4",
                    "midi": 61,
                    "time": 164.62706549999882,
                    "velocity": 0.2047244094488189,
                    "duration": 0.1154467499999896
                },
                {
                    "name": "F4",
                    "midi": 65,
                    "time": 164.62706549999882,
                    "velocity": 0.25196850393700787,
                    "duration": 0.1154467499999896
                },
                {
                    "name": "A#4",
                    "midi": 70,
                    "time": 164.7425122499988,
                    "velocity": 0.2204724409448819,
                    "duration": 0.1154467499999896
                },
                {
                    "name": "C4",
                    "midi": 60,
                    "time": 164.8579589999988,
                    "velocity": 0.2047244094488189,
                    "duration": 0.11544675000001803
                },
                {
                    "name": "F4",
                    "midi": 65,
                    "time": 164.8579589999988,
                    "velocity": 0.25196850393700787,
                    "duration": 0.11544675000001803
                },
                {
                    "name": "G#4",
                    "midi": 68,
                    "time": 164.97340574999882,
                    "velocity": 0.2204724409448819,
                    "duration": 0.1154467499999896
                },
                {
                    "name": "C4",
                    "midi": 60,
                    "time": 165.0888524999988,
                    "velocity": 0.2047244094488189,
                    "duration": 0.1154467499999896
                },
                {
                    "name": "F4",
                    "midi": 65,
                    "time": 165.0888524999988,
                    "velocity": 0.25196850393700787,
                    "duration": 0.1154467499999896
                },
                {
                    "name": "G#4",
                    "midi": 68,
                    "time": 165.2042992499988,
                    "velocity": 0.2204724409448819,
                    "duration": 0.1154467499999896
                },
                {
                    "name": "C4",
                    "midi": 60,
                    "time": 165.3197459999988,
                    "velocity": 0.2047244094488189,
                    "duration": 0.1154467499999896
                },
                {
                    "name": "F4",
                    "midi": 65,
                    "time": 165.3197459999988,
                    "velocity": 0.25196850393700787,
                    "duration": 0.1154467499999896
                },
                {
                    "name": "G#4",
                    "midi": 68,
                    "time": 165.43519274999878,
                    "velocity": 0.2204724409448819,
                    "duration": 0.1154467499999896
                },
                {
                    "name": "C4",
                    "midi": 60,
                    "time": 165.55063949999877,
                    "velocity": 0.2047244094488189,
                    "duration": 0.11544675000001803
                },
                {
                    "name": "F4",
                    "midi": 65,
                    "time": 165.55063949999877,
                    "velocity": 0.25196850393700787,
                    "duration": 0.11544675000001803
                },
                {
                    "name": "G4",
                    "midi": 67,
                    "time": 165.66608624999878,
                    "velocity": 0.2204724409448819,
                    "duration": 0.1154467499999896
                },
                {
                    "name": "C4",
                    "midi": 60,
                    "time": 165.78153299999877,
                    "velocity": 0.2047244094488189,
                    "duration": 0.1154467499999896
                },
                {
                    "name": "E4",
                    "midi": 64,
                    "time": 165.78153299999877,
                    "velocity": 0.25196850393700787,
                    "duration": 0.1154467499999896
                },
                {
                    "name": "G4",
                    "midi": 67,
                    "time": 165.89697974999876,
                    "velocity": 0.2204724409448819,
                    "duration": 0.1154467499999896
                },
                {
                    "name": "C4",
                    "midi": 60,
                    "time": 166.01242649999875,
                    "velocity": 0.2047244094488189,
                    "duration": 0.1154467499999896
                },
                {
                    "name": "E4",
                    "midi": 64,
                    "time": 166.01242649999875,
                    "velocity": 0.25196850393700787,
                    "duration": 0.1154467499999896
                },
                {
                    "name": "G4",
                    "midi": 67,
                    "time": 166.12787324999874,
                    "velocity": 0.23622047244094488,
                    "duration": 0.1154467499999896
                },
                {
                    "name": "G#3",
                    "midi": 56,
                    "time": 166.24331999999873,
                    "velocity": 0.29133858267716534,
                    "duration": 0.6926805000000229
                },
                {
                    "name": "C4",
                    "midi": 60,
                    "time": 166.24331999999873,
                    "velocity": 0.3464566929133858,
                    "duration": 0.23089350000000763
                },
                {
                    "name": "C#4",
                    "midi": 61,
                    "time": 166.47421349999874,
                    "velocity": 0.31496062992125984,
                    "duration": 0.23089350000000763
                },
                {
                    "name": "C4",
                    "midi": 60,
                    "time": 166.70510699999875,
                    "velocity": 0.31496062992125984,
                    "duration": 0.23089350000000763
                },
                {
                    "name": "C#3",
                    "midi": 49,
                    "time": 166.93600049999876,
                    "velocity": 0.29133858267716534,
                    "duration": 0.6926805000000229
                },
                {
                    "name": "A#3",
                    "midi": 58,
                    "time": 166.93600049999876,
                    "velocity": 0.3464566929133858,
                    "duration": 0.23089350000000763
                },
                {
                    "name": "F3",
                    "midi": 53,
                    "time": 167.16689399999876,
                    "velocity": 0.33070866141732286,
                    "duration": 0.23089350000000763
                },
                {
                    "name": "G3",
                    "midi": 55,
                    "time": 167.39778749999877,
                    "velocity": 0.3464566929133858,
                    "duration": 0.23089350000000763
                },
                {
                    "name": "A#3",
                    "midi": 58,
                    "time": 167.57095762499878,
                    "velocity": 0.3228346456692913,
                    "duration": 0.0577233749999948
                },
                {
                    "name": "D#3",
                    "midi": 51,
                    "time": 167.62868099999878,
                    "velocity": 0.29133858267716534,
                    "duration": 1.3853610000000174
                },
                {
                    "name": "G#3",
                    "midi": 56,
                    "time": 167.62868099999878,
                    "velocity": 0.3464566929133858,
                    "duration": 0.23089350000000763
                },
                {
                    "name": "G3",
                    "midi": 55,
                    "time": 167.85957449999879,
                    "velocity": 0.2992125984251969,
                    "duration": 0.23089350000000763
                },
                {
                    "name": "G#3",
                    "midi": 56,
                    "time": 168.0904679999988,
                    "velocity": 0.2755905511811024,
                    "duration": 0.23089350000000763
                },
                {
                    "name": "A#3",
                    "midi": 58,
                    "time": 168.3213614999988,
                    "velocity": 0.29133858267716534,
                    "duration": 0.46178699999998685
                },
                {
                    "name": "B3",
                    "midi": 59,
                    "time": 168.7831484999988,
                    "velocity": 0.2677165354330709,
                    "duration": 0.23089350000000763
                },
                {
                    "name": "G#3",
                    "midi": 56,
                    "time": 169.0140419999988,
                    "velocity": 0.2283464566929134,
                    "duration": 0.1154467499999896
                },
                {
                    "name": "C4",
                    "midi": 60,
                    "time": 169.0140419999988,
                    "velocity": 0.2677165354330709,
                    "duration": 0.1154467499999896
                },
                {
                    "name": "D#4",
                    "midi": 63,
                    "time": 169.12948874999879,
                    "velocity": 0.2204724409448819,
                    "duration": 0.1154467499999896
                },
                {
                    "name": "G#3",
                    "midi": 56,
                    "time": 169.24493549999877,
                    "velocity": 0.2047244094488189,
                    "duration": 0.1154467499999896
                },
                {
                    "name": "C4",
                    "midi": 60,
                    "time": 169.24493549999877,
                    "velocity": 0.25196850393700787,
                    "duration": 0.1154467499999896
                },
                {
                    "name": "D#4",
                    "midi": 63,
                    "time": 169.36038224999876,
                    "velocity": 0.2204724409448819,
                    "duration": 0.1154467499999896
                },
                {
                    "name": "G#3",
                    "midi": 56,
                    "time": 169.47582899999875,
                    "velocity": 0.2047244094488189,
                    "duration": 0.11544675000001803
                },
                {
                    "name": "C4",
                    "midi": 60,
                    "time": 169.47582899999875,
                    "velocity": 0.25196850393700787,
                    "duration": 0.11544675000001803
                },
                {
                    "name": "D#4",
                    "midi": 63,
                    "time": 169.59127574999877,
                    "velocity": 0.2204724409448819,
                    "duration": 0.1154467499999896
                },
                {
                    "name": "G3",
                    "midi": 55,
                    "time": 169.70672249999876,
                    "velocity": 0.2047244094488189,
                    "duration": 0.11544675000001803
                },
                {
                    "name": "A#3",
                    "midi": 58,
                    "time": 169.70672249999876,
                    "velocity": 0.25196850393700787,
                    "duration": 0.11544675000001803
                },
                {
                    "name": "D#4",
                    "midi": 63,
                    "time": 169.82216924999878,
                    "velocity": 0.2204724409448819,
                    "duration": 0.1154467499999896
                },
                {
                    "name": "G3",
                    "midi": 55,
                    "time": 169.93761599999877,
                    "velocity": 0.2047244094488189,
                    "duration": 0.1154467499999896
                },
                {
                    "name": "A#3",
                    "midi": 58,
                    "time": 169.93761599999877,
                    "velocity": 0.25196850393700787,
                    "duration": 0.1154467499999896
                },
                {
                    "name": "D#4",
                    "midi": 63,
                    "time": 170.05306274999876,
                    "velocity": 0.2204724409448819,
                    "duration": 0.1154467499999896
                },
                {
                    "name": "F#3",
                    "midi": 54,
                    "time": 170.16850949999875,
                    "velocity": 0.2047244094488189,
                    "duration": 0.11544674999996118
                },
                {
                    "name": "A#3",
                    "midi": 58,
                    "time": 170.16850949999875,
                    "velocity": 0.25196850393700787,
                    "duration": 0.11544674999996118
                },
                {
                    "name": "D#4",
                    "midi": 63,
                    "time": 170.2839562499987,
                    "velocity": 0.2204724409448819,
                    "duration": 0.1154467499999896
                },
                {
                    "name": "F3",
                    "midi": 53,
                    "time": 170.3994029999987,
                    "velocity": 0.2047244094488189,
                    "duration": 0.11544675000001803
                },
                {
                    "name": "A#3",
                    "midi": 58,
                    "time": 170.3994029999987,
                    "velocity": 0.25196850393700787,
                    "duration": 0.11544675000001803
                },
                {
                    "name": "C#4",
                    "midi": 61,
                    "time": 170.51484974999872,
                    "velocity": 0.2204724409448819,
                    "duration": 0.1154467499999896
                },
                {
                    "name": "F3",
                    "midi": 53,
                    "time": 170.6302964999987,
                    "velocity": 0.2047244094488189,
                    "duration": 0.1154467499999896
                },
                {
                    "name": "A#3",
                    "midi": 58,
                    "time": 170.6302964999987,
                    "velocity": 0.25196850393700787,
                    "duration": 0.1154467499999896
                },
                {
                    "name": "C#4",
                    "midi": 61,
                    "time": 170.7457432499987,
                    "velocity": 0.2204724409448819,
                    "duration": 0.1154467499999896
                },
                {
                    "name": "F3",
                    "midi": 53,
                    "time": 170.8611899999987,
                    "velocity": 0.2047244094488189,
                    "duration": 0.1154467499999896
                },
                {
                    "name": "A#3",
                    "midi": 58,
                    "time": 170.8611899999987,
                    "velocity": 0.25196850393700787,
                    "duration": 0.1154467499999896
                },
                {
                    "name": "C#4",
                    "midi": 61,
                    "time": 170.97663674999868,
                    "velocity": 0.2204724409448819,
                    "duration": 0.1154467499999896
                },
                {
                    "name": "F3",
                    "midi": 53,
                    "time": 171.09208349999867,
                    "velocity": 0.2047244094488189,
                    "duration": 0.11544675000001803
                },
                {
                    "name": "A#3",
                    "midi": 58,
                    "time": 171.09208349999867,
                    "velocity": 0.25196850393700787,
                    "duration": 0.11544675000001803
                },
                {
                    "name": "C4",
                    "midi": 60,
                    "time": 171.20753024999868,
                    "velocity": 0.2204724409448819,
                    "duration": 0.1154467499999896
                },
                {
                    "name": "F3",
                    "midi": 53,
                    "time": 171.32297699999867,
                    "velocity": 0.2047244094488189,
                    "duration": 0.11544675000001803
                },
                {
                    "name": "A3",
                    "midi": 57,
                    "time": 171.32297699999867,
                    "velocity": 0.25196850393700787,
                    "duration": 0.11544675000001803
                },
                {
                    "name": "C4",
                    "midi": 60,
                    "time": 171.4384237499987,
                    "velocity": 0.2204724409448819,
                    "duration": 0.1154467499999896
                },
                {
                    "name": "F3",
                    "midi": 53,
                    "time": 171.55387049999868,
                    "velocity": 0.2047244094488189,
                    "duration": 0.1154467499999896
                },
                {
                    "name": "A3",
                    "midi": 57,
                    "time": 171.55387049999868,
                    "velocity": 0.25196850393700787,
                    "duration": 0.1154467499999896
                },
                {
                    "name": "C4",
                    "midi": 60,
                    "time": 171.66931724999867,
                    "velocity": 0.23622047244094488,
                    "duration": 0.1154467499999896
                },
                {
                    "name": "C#4",
                    "midi": 61,
                    "time": 171.78476399999866,
                    "velocity": 0.29133858267716534,
                    "duration": 0.6926805000000229
                },
                {
                    "name": "F4",
                    "midi": 65,
                    "time": 171.78476399999866,
                    "velocity": 0.3464566929133858,
                    "duration": 0.23089350000000763
                },
                {
                    "name": "F#4",
                    "midi": 66,
                    "time": 172.01565749999867,
                    "velocity": 0.31496062992125984,
                    "duration": 0.23089350000000763
                },
                {
                    "name": "F4",
                    "midi": 65,
                    "time": 172.24655099999868,
                    "velocity": 0.31496062992125984,
                    "duration": 0.23089350000000763
                },
                {
                    "name": "F#3",
                    "midi": 54,
                    "time": 172.47744449999868,
                    "velocity": 0.29133858267716534,
                    "duration": 0.6926805000000229
                },
                {
                    "name": "D#4",
                    "midi": 63,
                    "time": 172.47744449999868,
                    "velocity": 0.3464566929133858,
                    "duration": 0.23089350000000763
                },
                {
                    "name": "A#3",
                    "midi": 58,
                    "time": 172.7083379999987,
                    "velocity": 0.33070866141732286,
                    "duration": 0.23089350000000763
                },
                {
                    "name": "C4",
                    "midi": 60,
                    "time": 172.9392314999987,
                    "velocity": 0.3464566929133858,
                    "duration": 0.23089350000000763
                },
                {
                    "name": "D#4",
                    "midi": 63,
                    "time": 173.1124016249987,
                    "velocity": 0.3228346456692913,
                    "duration": 0.0577233749999948
                },
                {
                    "name": "G#3",
                    "midi": 56,
                    "time": 173.1701249999987,
                    "velocity": 0.29133858267716534,
                    "duration": 1.3853610000000174
                },
                {
                    "name": "C#4",
                    "midi": 61,
                    "time": 173.1701249999987,
                    "velocity": 0.3464566929133858,
                    "duration": 0.23089350000000763
                },
                {
                    "name": "C4",
                    "midi": 60,
                    "time": 173.4010184999987,
                    "velocity": 0.2992125984251969,
                    "duration": 0.23089350000000763
                },
                {
                    "name": "C#4",
                    "midi": 61,
                    "time": 173.63191199999872,
                    "velocity": 0.2755905511811024,
                    "duration": 0.23089350000000763
                },
                {
                    "name": "D#4",
                    "midi": 63,
                    "time": 173.86280549999873,
                    "velocity": 0.29133858267716534,
                    "duration": 0.46178699999998685
                },
                {
                    "name": "E4",
                    "midi": 64,
                    "time": 174.32459249999872,
                    "velocity": 0.2677165354330709,
                    "duration": 0.23089350000000763
                },
                {
                    "name": "C#4",
                    "midi": 61,
                    "time": 174.55548599999872,
                    "velocity": 0.2283464566929134,
                    "duration": 0.0577233749999948
                },
                {
                    "name": "F4",
                    "midi": 65,
                    "time": 174.55548599999872,
                    "velocity": 0.2677165354330709,
                    "duration": 0.0577233749999948
                },
                {
                    "name": "C#3",
                    "midi": 49,
                    "time": 174.78637949999873,
                    "velocity": 0.2204724409448819,
                    "duration": 0.0577233749999948
                },
                {
                    "name": "C#3",
                    "midi": 49,
                    "time": 175.01727299999874,
                    "velocity": 0.2204724409448819,
                    "duration": 0.0577233749999948
                },
                {
                    "name": "C#4",
                    "midi": 61,
                    "time": 175.24816649999875,
                    "velocity": 0.2047244094488189,
                    "duration": 0.0577233749999948
                },
                {
                    "name": "F4",
                    "midi": 65,
                    "time": 175.25105266874874,
                    "velocity": 0.25196850393700787,
                    "duration": 0.0577233749999948
                },
                {
                    "name": "C#3",
                    "midi": 49,
                    "time": 175.47905999999873,
                    "velocity": 0.2204724409448819,
                    "duration": 0.0577233749999948
                },
                {
                    "name": "C#3",
                    "midi": 49,
                    "time": 175.70995349999873,
                    "velocity": 0.2204724409448819,
                    "duration": 0.0577233749999948
                },
                {
                    "name": "C#4",
                    "midi": 61,
                    "time": 175.94084699999874,
                    "velocity": 0.2204724409448819,
                    "duration": 0.0577233749999948
                },
                {
                    "name": "F4",
                    "midi": 65,
                    "time": 175.94084699999874,
                    "velocity": 0.25984251968503935,
                    "duration": 0.0577233749999948
                },
                {
                    "name": "C#3",
                    "midi": 49,
                    "time": 176.17174049999875,
                    "velocity": 0.2204724409448819,
                    "duration": 0.0577233749999948
                },
                {
                    "name": "C#3",
                    "midi": 49,
                    "time": 176.40263399999876,
                    "velocity": 0.2204724409448819,
                    "duration": 0.0577233749999948
                },
                {
                    "name": "C#4",
                    "midi": 61,
                    "time": 176.63352749999876,
                    "velocity": 0.2204724409448819,
                    "duration": 0.0577233749999948
                },
                {
                    "name": "F#4",
                    "midi": 66,
                    "time": 176.63352749999876,
                    "velocity": 0.2677165354330709,
                    "duration": 0.0577233749999948
                },
                {
                    "name": "C#3",
                    "midi": 49,
                    "time": 176.86442099999877,
                    "velocity": 0.2204724409448819,
                    "duration": 0.0577233749999948
                },
                {
                    "name": "C#3",
                    "midi": 49,
                    "time": 177.09531449999878,
                    "velocity": 0.2204724409448819,
                    "duration": 0.0577233749999948
                },
                {
                    "name": "C#4",
                    "midi": 61,
                    "time": 177.3262079999988,
                    "velocity": 0.2204724409448819,
                    "duration": 0.0577233749999948
                },
                {
                    "name": "F4",
                    "midi": 65,
                    "time": 177.3262079999988,
                    "velocity": 0.25984251968503935,
                    "duration": 0.0577233749999948
                },
                {
                    "name": "C#3",
                    "midi": 49,
                    "time": 177.5571014999988,
                    "velocity": 0.2204724409448819,
                    "duration": 0.0577233749999948
                },
                {
                    "name": "C#3",
                    "midi": 49,
                    "time": 177.7879949999988,
                    "velocity": 0.25984251968503935,
                    "duration": 0.0577233749999948
                },
                {
                    "name": "C#4",
                    "midi": 61,
                    "time": 178.0188884999988,
                    "velocity": 0.2440944881889764,
                    "duration": 0.0577233749999948
                },
                {
                    "name": "F#4",
                    "midi": 66,
                    "time": 178.0188884999988,
                    "velocity": 0.2992125984251969,
                    "duration": 0.0577233749999948
                },
                {
                    "name": "C#3",
                    "midi": 49,
                    "time": 178.24978199999882,
                    "velocity": 0.2204724409448819,
                    "duration": 0.0577233749999948
                },
                {
                    "name": "C#3",
                    "midi": 49,
                    "time": 178.48067549999882,
                    "velocity": 0.2204724409448819,
                    "duration": 0.0577233749999948
                },
                {
                    "name": "A#3",
                    "midi": 58,
                    "time": 178.71156899999883,
                    "velocity": 0.2204724409448819,
                    "duration": 0.0577233749999948
                },
                {
                    "name": "C#4",
                    "midi": 61,
                    "time": 178.71156899999883,
                    "velocity": 0.2204724409448819,
                    "duration": 0.0577233749999948
                },
                {
                    "name": "F#4",
                    "midi": 66,
                    "time": 178.71156899999883,
                    "velocity": 0.25984251968503935,
                    "duration": 0.0577233749999948
                },
                {
                    "name": "C#3",
                    "midi": 49,
                    "time": 178.94246249999884,
                    "velocity": 0.1968503937007874,
                    "duration": 0.0577233749999948
                },
                {
                    "name": "C#3",
                    "midi": 49,
                    "time": 179.17335599999885,
                    "velocity": 0.1968503937007874,
                    "duration": 0.0577233749999948
                },
                {
                    "name": "A#3",
                    "midi": 58,
                    "time": 179.40424949999885,
                    "velocity": 0.1968503937007874,
                    "duration": 0.0577233749999948
                },
                {
                    "name": "C#4",
                    "midi": 61,
                    "time": 179.40424949999885,
                    "velocity": 0.1968503937007874,
                    "duration": 0.0577233749999948
                },
                {
                    "name": "F#4",
                    "midi": 66,
                    "time": 179.40424949999885,
                    "velocity": 0.23622047244094488,
                    "duration": 0.0577233749999948
                },
                {
                    "name": "C#3",
                    "midi": 49,
                    "time": 179.63514299999886,
                    "velocity": 0.1968503937007874,
                    "duration": 0.0577233749999948
                },
                {
                    "name": "C#3",
                    "midi": 49,
                    "time": 179.86603649999887,
                    "velocity": 0.1968503937007874,
                    "duration": 0.0577233749999948
                },
                {
                    "name": "G#3",
                    "midi": 56,
                    "time": 180.09692999999888,
                    "velocity": 0.1889763779527559,
                    "duration": 0.0577233749999948
                },
                {
                    "name": "C#4",
                    "midi": 61,
                    "time": 180.09692999999888,
                    "velocity": 0.2283464566929134,
                    "duration": 0.0577233749999948
                },
                {
                    "name": "C#3",
                    "midi": 49,
                    "time": 180.32782349999889,
                    "velocity": 0.1889763779527559,
                    "duration": 0.0577233749999948
                },
                {
                    "name": "C#3",
                    "midi": 49,
                    "time": 180.5587169999989,
                    "velocity": 0.1889763779527559,
                    "duration": 0.0577233749999948
                },
                {
                    "name": "F#3",
                    "midi": 54,
                    "time": 180.7896104999989,
                    "velocity": 0.1968503937007874,
                    "duration": 0.0577233749999948
                },
                {
                    "name": "A#3",
                    "midi": 58,
                    "time": 180.7896104999989,
                    "velocity": 0.23622047244094488,
                    "duration": 0.0577233749999948
                },
                {
                    "name": "F#2",
                    "midi": 42,
                    "time": 181.0205039999989,
                    "velocity": 0.1889763779527559,
                    "duration": 0.0577233749999948
                },
                {
                    "name": "F#2",
                    "midi": 42,
                    "time": 181.25139749999892,
                    "velocity": 0.1889763779527559,
                    "duration": 0.0577233749999948
                },
                {
                    "name": "D#4",
                    "midi": 63,
                    "time": 181.48229099999892,
                    "velocity": 0.1889763779527559,
                    "duration": 0.0577233749999948
                },
                {
                    "name": "F#4",
                    "midi": 66,
                    "time": 181.48229099999892,
                    "velocity": 0.2283464566929134,
                    "duration": 0.0577233749999948
                },
                {
                    "name": "G#3",
                    "midi": 56,
                    "time": 181.71318449999893,
                    "velocity": 0.1889763779527559,
                    "duration": 0.0577233749999948
                },
                {
                    "name": "G#3",
                    "midi": 56,
                    "time": 181.9440779999989,
                    "velocity": 0.1889763779527559,
                    "duration": 0.0577233749999948
                },
                {
                    "name": "F4",
                    "midi": 65,
                    "time": 182.17497149999892,
                    "velocity": 0.2283464566929134,
                    "duration": 0.0577233749999948
                },
                {
                    "name": "C#4",
                    "midi": 61,
                    "time": 182.17497149999892,
                    "velocity": 0.1889763779527559,
                    "duration": 0.0577233749999948
                },
                {
                    "name": "C#3",
                    "midi": 49,
                    "time": 182.40586499999893,
                    "velocity": 0.1889763779527559,
                    "duration": 0.0577233749999948
                },
                {
                    "name": "C#3",
                    "midi": 49,
                    "time": 182.63675849999893,
                    "velocity": 0.1889763779527559,
                    "duration": 0.0577233749999948
                },
                {
                    "name": "C#4",
                    "midi": 61,
                    "time": 182.86765199999894,
                    "velocity": 0.1968503937007874,
                    "duration": 0.0577233749999948
                },
                {
                    "name": "F4",
                    "midi": 65,
                    "time": 182.86765199999894,
                    "velocity": 0.23622047244094488,
                    "duration": 0.0577233749999948
                },
                {
                    "name": "C#3",
                    "midi": 49,
                    "time": 183.09854549999895,
                    "velocity": 0.1968503937007874,
                    "duration": 0.0577233749999948
                },
                {
                    "name": "C#3",
                    "midi": 49,
                    "time": 183.32943899999896,
                    "velocity": 0.1968503937007874,
                    "duration": 0.0577233749999948
                },
                {
                    "name": "C#4",
                    "midi": 61,
                    "time": 183.56033249999896,
                    "velocity": 0.1968503937007874,
                    "duration": 0.0577233749999948
                },
                {
                    "name": "F4",
                    "midi": 65,
                    "time": 183.56321866874896,
                    "velocity": 0.2440944881889764,
                    "duration": 0.0577233749999948
                },
                {
                    "name": "C#3",
                    "midi": 49,
                    "time": 183.79122599999894,
                    "velocity": 0.2204724409448819,
                    "duration": 0.0577233749999948
                },
                {
                    "name": "C#3",
                    "midi": 49,
                    "time": 184.02211949999895,
                    "velocity": 0.2204724409448819,
                    "duration": 0.0577233749999948
                },
                {
                    "name": "C#4",
                    "midi": 61,
                    "time": 184.25301299999896,
                    "velocity": 0.2204724409448819,
                    "duration": 0.0577233749999948
                },
                {
                    "name": "F4",
                    "midi": 65,
                    "time": 184.25301299999896,
                    "velocity": 0.25984251968503935,
                    "duration": 0.0577233749999948
                },
                {
                    "name": "C#3",
                    "midi": 49,
                    "time": 184.48390649999897,
                    "velocity": 0.2204724409448819,
                    "duration": 0.0577233749999948
                },
                {
                    "name": "C#3",
                    "midi": 49,
                    "time": 184.71479999999897,
                    "velocity": 0.2204724409448819,
                    "duration": 0.0577233749999948
                },
                {
                    "name": "C#4",
                    "midi": 61,
                    "time": 184.94569349999898,
                    "velocity": 0.2204724409448819,
                    "duration": 0.0577233749999948
                },
                {
                    "name": "F#4",
                    "midi": 66,
                    "time": 184.94569349999898,
                    "velocity": 0.2677165354330709,
                    "duration": 0.0577233749999948
                },
                {
                    "name": "C#3",
                    "midi": 49,
                    "time": 185.176586999999,
                    "velocity": 0.2204724409448819,
                    "duration": 0.0577233749999948
                },
                {
                    "name": "C#3",
                    "midi": 49,
                    "time": 185.407480499999,
                    "velocity": 0.2204724409448819,
                    "duration": 0.0577233749999948
                },
                {
                    "name": "C#4",
                    "midi": 61,
                    "time": 185.638373999999,
                    "velocity": 0.2204724409448819,
                    "duration": 0.0577233749999948
                },
                {
                    "name": "F4",
                    "midi": 65,
                    "time": 185.638373999999,
                    "velocity": 0.25984251968503935,
                    "duration": 0.0577233749999948
                },
                {
                    "name": "C#3",
                    "midi": 49,
                    "time": 185.869267499999,
                    "velocity": 0.2204724409448819,
                    "duration": 0.0577233749999948
                },
                {
                    "name": "C#3",
                    "midi": 49,
                    "time": 186.10016099999902,
                    "velocity": 0.25984251968503935,
                    "duration": 0.0577233749999948
                },
                {
                    "name": "C#4",
                    "midi": 61,
                    "time": 186.33105449999903,
                    "velocity": 0.2440944881889764,
                    "duration": 0.0577233749999948
                },
                {
                    "name": "F#4",
                    "midi": 66,
                    "time": 186.33105449999903,
                    "velocity": 0.2992125984251969,
                    "duration": 0.0577233749999948
                },
                {
                    "name": "C#3",
                    "midi": 49,
                    "time": 186.56194799999903,
                    "velocity": 0.2204724409448819,
                    "duration": 0.0577233749999948
                },
                {
                    "name": "C#3",
                    "midi": 49,
                    "time": 186.79284149999904,
                    "velocity": 0.2204724409448819,
                    "duration": 0.0577233749999948
                },
                {
                    "name": "A3",
                    "midi": 57,
                    "time": 187.02373499999905,
                    "velocity": 0.2204724409448819,
                    "duration": 0.0577233749999948
                },
                {
                    "name": "C#4",
                    "midi": 61,
                    "time": 187.02373499999905,
                    "velocity": 0.2204724409448819,
                    "duration": 0.0577233749999948
                },
                {
                    "name": "F#4",
                    "midi": 66,
                    "time": 187.02373499999905,
                    "velocity": 0.25984251968503935,
                    "duration": 0.0577233749999948
                },
                {
                    "name": "F#3",
                    "midi": 54,
                    "time": 187.25462849999906,
                    "velocity": 0.1968503937007874,
                    "duration": 0.0577233749999948
                },
                {
                    "name": "F#3",
                    "midi": 54,
                    "time": 187.48552199999907,
                    "velocity": 0.1968503937007874,
                    "duration": 0.0577233749999948
                },
                {
                    "name": "A3",
                    "midi": 57,
                    "time": 187.71641549999907,
                    "velocity": 0.1968503937007874,
                    "duration": 0.0577233749999948
                },
                {
                    "name": "C#4",
                    "midi": 61,
                    "time": 187.71641549999907,
                    "velocity": 0.1968503937007874,
                    "duration": 0.0577233749999948
                },
                {
                    "name": "F#4",
                    "midi": 66,
                    "time": 187.71641549999907,
                    "velocity": 0.23622047244094488,
                    "duration": 0.0577233749999948
                },
                {
                    "name": "F#3",
                    "midi": 54,
                    "time": 187.94730899999908,
                    "velocity": 0.1968503937007874,
                    "duration": 0.0577233749999948
                },
                {
                    "name": "F#3",
                    "midi": 54,
                    "time": 188.1782024999991,
                    "velocity": 0.1968503937007874,
                    "duration": 0.0577233749999948
                },
                {
                    "name": "F#4",
                    "midi": 66,
                    "time": 188.4090959999991,
                    "velocity": 0.2283464566929134,
                    "duration": 0.0577233749999948
                },
                {
                    "name": "A3",
                    "midi": 57,
                    "time": 188.4090959999991,
                    "velocity": 0.1889763779527559,
                    "duration": 0.0577233749999948
                },
                {
                    "name": "C#4",
                    "midi": 61,
                    "time": 188.4090959999991,
                    "velocity": 0.1889763779527559,
                    "duration": 0.0577233749999948
                },
                {
                    "name": "F#3",
                    "midi": 54,
                    "time": 188.6399894999991,
                    "velocity": 0.1889763779527559,
                    "duration": 0.0577233749999948
                },
                {
                    "name": "F#3",
                    "midi": 54,
                    "time": 188.8708829999991,
                    "velocity": 0.1889763779527559,
                    "duration": 0.0577233749999948
                },
                {
                    "name": "D4",
                    "midi": 62,
                    "time": 189.10177649999912,
                    "velocity": 0.1968503937007874,
                    "duration": 0.0577233749999948
                },
                {
                    "name": "F#4",
                    "midi": 66,
                    "time": 189.10177649999912,
                    "velocity": 0.23622047244094488,
                    "duration": 0.0577233749999948
                },
                {
                    "name": "D3",
                    "midi": 50,
                    "time": 189.33266999999913,
                    "velocity": 0.1889763779527559,
                    "duration": 0.0577233749999948
                },
                {
                    "name": "D3",
                    "midi": 50,
                    "time": 189.56356349999913,
                    "velocity": 0.1889763779527559,
                    "duration": 0.0577233749999948
                },
                {
                    "name": "D4",
                    "midi": 62,
                    "time": 189.79445699999914,
                    "velocity": 0.1889763779527559,
                    "duration": 0.0577233749999948
                },
                {
                    "name": "E4",
                    "midi": 64,
                    "time": 189.79445699999914,
                    "velocity": 0.2283464566929134,
                    "duration": 0.0577233749999948
                },
                {
                    "name": "E3",
                    "midi": 52,
                    "time": 190.02535049999915,
                    "velocity": 0.1889763779527559,
                    "duration": 0.0577233749999948
                },
                {
                    "name": "E3",
                    "midi": 52,
                    "time": 190.25624399999916,
                    "velocity": 0.1889763779527559,
                    "duration": 0.0577233749999948
                },
                {
                    "name": "E4",
                    "midi": 64,
                    "time": 190.48713749999916,
                    "velocity": 0.2283464566929134,
                    "duration": 0.0577233749999948
                },
                {
                    "name": "C#4",
                    "midi": 61,
                    "time": 190.48713749999916,
                    "velocity": 0.1889763779527559,
                    "duration": 0.0577233749999948
                },
                {
                    "name": "A3",
                    "midi": 57,
                    "time": 190.71803099999917,
                    "velocity": 0.1889763779527559,
                    "duration": 0.0577233749999948
                },
                {
                    "name": "A3",
                    "midi": 57,
                    "time": 190.94892449999918,
                    "velocity": 0.1889763779527559,
                    "duration": 0.0577233749999948
                },
                {
                    "name": "C#4",
                    "midi": 61,
                    "time": 191.1798179999992,
                    "velocity": 0.1968503937007874,
                    "duration": 0.0577233749999948
                },
                {
                    "name": "E4",
                    "midi": 64,
                    "time": 191.1798179999992,
                    "velocity": 0.23622047244094488,
                    "duration": 0.0577233749999948
                },
                {
                    "name": "A3",
                    "midi": 57,
                    "time": 191.4107114999992,
                    "velocity": 0.1968503937007874,
                    "duration": 0.0577233749999948
                },
                {
                    "name": "A3",
                    "midi": 57,
                    "time": 191.6416049999992,
                    "velocity": 0.2047244094488189,
                    "duration": 0.0577233749999948
                },
                {
                    "name": "E4",
                    "midi": 64,
                    "time": 191.8724984999992,
                    "velocity": 0.2283464566929134,
                    "duration": 0.0577233749999948
                },
                {
                    "name": "C#4",
                    "midi": 61,
                    "time": 191.8724984999992,
                    "velocity": 0.1889763779527559,
                    "duration": 0.0577233749999948
                },
                {
                    "name": "A3",
                    "midi": 57,
                    "time": 192.10339199999922,
                    "velocity": 0.1889763779527559,
                    "duration": 0.0577233749999948
                },
                {
                    "name": "A3",
                    "midi": 57,
                    "time": 192.33428549999923,
                    "velocity": 0.1889763779527559,
                    "duration": 0.0577233749999948
                },
                {
                    "name": "C#4",
                    "midi": 61,
                    "time": 192.56517899999923,
                    "velocity": 0.1968503937007874,
                    "duration": 0.0577233749999948
                },
                {
                    "name": "E4",
                    "midi": 64,
                    "time": 192.56517899999923,
                    "velocity": 0.23622047244094488,
                    "duration": 0.0577233749999948
                },
                {
                    "name": "A#3",
                    "midi": 58,
                    "time": 192.79607249999924,
                    "velocity": 0.1889763779527559,
                    "duration": 0.0577233749999948
                },
                {
                    "name": "A#3",
                    "midi": 58,
                    "time": 193.02696599999922,
                    "velocity": 0.1889763779527559,
                    "duration": 0.0577233749999948
                },
                {
                    "name": "D4",
                    "midi": 62,
                    "time": 193.25785949999923,
                    "velocity": 0.1889763779527559,
                    "duration": 0.0577233749999948
                },
                {
                    "name": "E4",
                    "midi": 64,
                    "time": 193.25785949999923,
                    "velocity": 0.2283464566929134,
                    "duration": 0.0577233749999948
                },
                {
                    "name": "B3",
                    "midi": 59,
                    "time": 193.48875299999924,
                    "velocity": 0.1889763779527559,
                    "duration": 0.0577233749999948
                },
                {
                    "name": "B3",
                    "midi": 59,
                    "time": 193.71964649999924,
                    "velocity": 0.1889763779527559,
                    "duration": 0.0577233749999948
                },
                {
                    "name": "E4",
                    "midi": 64,
                    "time": 193.95053999999925,
                    "velocity": 0.2283464566929134,
                    "duration": 0.0577233749999948
                },
                {
                    "name": "D4",
                    "midi": 62,
                    "time": 193.95053999999925,
                    "velocity": 0.1889763779527559,
                    "duration": 0.0577233749999948
                },
                {
                    "name": "B3",
                    "midi": 59,
                    "time": 194.18143349999926,
                    "velocity": 0.1889763779527559,
                    "duration": 0.0577233749999948
                },
                {
                    "name": "B3",
                    "midi": 59,
                    "time": 194.41232699999927,
                    "velocity": 0.1889763779527559,
                    "duration": 0.0577233749999948
                },
                {
                    "name": "D4",
                    "midi": 62,
                    "time": 194.64322049999927,
                    "velocity": 0.1732283464566929,
                    "duration": 0.0577233749999948
                },
                {
                    "name": "E4",
                    "midi": 64,
                    "time": 194.64322049999927,
                    "velocity": 0.1968503937007874,
                    "duration": 0.0577233749999948
                },
                {
                    "name": "B3",
                    "midi": 59,
                    "time": 194.87411399999928,
                    "velocity": 0.1732283464566929,
                    "duration": 0.0577233749999948
                },
                {
                    "name": "B3",
                    "midi": 59,
                    "time": 195.1050074999993,
                    "velocity": 0.1732283464566929,
                    "duration": 0.0577233749999948
                },
                {
                    "name": "E4",
                    "midi": 64,
                    "time": 195.3359009999993,
                    "velocity": 0.2283464566929134,
                    "duration": 0.0577233749999948
                },
                {
                    "name": "D4",
                    "midi": 62,
                    "time": 195.3359009999993,
                    "velocity": 0.1889763779527559,
                    "duration": 0.0577233749999948
                },
                {
                    "name": "B3",
                    "midi": 59,
                    "time": 195.5667944999993,
                    "velocity": 0.1889763779527559,
                    "duration": 0.0577233749999948
                },
                {
                    "name": "B3",
                    "midi": 59,
                    "time": 195.7976879999993,
                    "velocity": 0.1889763779527559,
                    "duration": 0.0577233749999948
                },
                {
                    "name": "D4",
                    "midi": 62,
                    "time": 196.02858149999932,
                    "velocity": 0.1968503937007874,
                    "duration": 0.0577233749999948
                },
                {
                    "name": "F4",
                    "midi": 65,
                    "time": 196.02858149999932,
                    "velocity": 0.23622047244094488,
                    "duration": 0.0577233749999948
                },
                {
                    "name": "B3",
                    "midi": 59,
                    "time": 196.25947499999933,
                    "velocity": 0.1889763779527559,
                    "duration": 0.0577233749999948
                },
                {
                    "name": "B3",
                    "midi": 59,
                    "time": 196.49036849999933,
                    "velocity": 0.1889763779527559,
                    "duration": 0.0577233749999948
                },
                {
                    "name": "D4",
                    "midi": 62,
                    "time": 196.72126199999934,
                    "velocity": 0.1889763779527559,
                    "duration": 0.0577233749999948
                },
                {
                    "name": "F4",
                    "midi": 65,
                    "time": 196.72126199999934,
                    "velocity": 0.2283464566929134,
                    "duration": 0.0577233749999948
                },
                {
                    "name": "B3",
                    "midi": 59,
                    "time": 196.95215549999935,
                    "velocity": 0.1889763779527559,
                    "duration": 0.0577233749999948
                },
                {
                    "name": "B3",
                    "midi": 59,
                    "time": 197.18304899999936,
                    "velocity": 0.1889763779527559,
                    "duration": 0.0577233749999948
                },
                {
                    "name": "F4",
                    "midi": 65,
                    "time": 197.41394249999937,
                    "velocity": 0.2283464566929134,
                    "duration": 0.0577233749999948
                },
                {
                    "name": "D4",
                    "midi": 62,
                    "time": 197.41394249999937,
                    "velocity": 0.1889763779527559,
                    "duration": 0.0577233749999948
                },
                {
                    "name": "B3",
                    "midi": 59,
                    "time": 197.64483599999937,
                    "velocity": 0.1889763779527559,
                    "duration": 0.0577233749999948
                },
                {
                    "name": "B3",
                    "midi": 59,
                    "time": 197.87572949999938,
                    "velocity": 0.1889763779527559,
                    "duration": 0.0577233749999948
                },
                {
                    "name": "B3",
                    "midi": 59,
                    "time": 198.1066229999994,
                    "velocity": 0.2047244094488189,
                    "duration": 0.1154467499999896
                },
                {
                    "name": "D4",
                    "midi": 62,
                    "time": 198.1066229999994,
                    "velocity": 0.25196850393700787,
                    "duration": 0.1154467499999896
                },
                {
                    "name": "F4",
                    "midi": 65,
                    "time": 198.22206974999938,
                    "velocity": 0.2047244094488189,
                    "duration": 0.1154467499999896
                },
                {
                    "name": "D4",
                    "midi": 62,
                    "time": 198.33751649999937,
                    "velocity": 0.2204724409448819,
                    "duration": 0.1154467499999896
                },
                {
                    "name": "B3",
                    "midi": 59,
                    "time": 198.33751649999937,
                    "velocity": 0.1732283464566929,
                    "duration": 0.1154467499999896
                },
                {
                    "name": "F4",
                    "midi": 65,
                    "time": 198.45296324999936,
                    "velocity": 0.2047244094488189,
                    "duration": 0.1154467499999896
                },
                {
                    "name": "D4",
                    "midi": 62,
                    "time": 198.56840999999935,
                    "velocity": 0.2204724409448819,
                    "duration": 0.1154467499999896
                },
                {
                    "name": "B3",
                    "midi": 59,
                    "time": 198.56840999999935,
                    "velocity": 0.1732283464566929,
                    "duration": 0.1154467499999896
                },
                {
                    "name": "F4",
                    "midi": 65,
                    "time": 198.68385674999934,
                    "velocity": 0.2047244094488189,
                    "duration": 0.1154467499999896
                },
                {
                    "name": "A#3",
                    "midi": 58,
                    "time": 198.79930349999933,
                    "velocity": 0.2047244094488189,
                    "duration": 0.1154467499999896
                },
                {
                    "name": "D4",
                    "midi": 62,
                    "time": 198.79930349999933,
                    "velocity": 0.25196850393700787,
                    "duration": 0.1154467499999896
                },
                {
                    "name": "F4",
                    "midi": 65,
                    "time": 198.91475024999932,
                    "velocity": 0.2047244094488189,
                    "duration": 0.1154467499999896
                },
                {
                    "name": "D4",
                    "midi": 62,
                    "time": 199.0301969999993,
                    "velocity": 0.2204724409448819,
                    "duration": 0.1154467499999896
                },
                {
                    "name": "A#3",
                    "midi": 58,
                    "time": 199.0301969999993,
                    "velocity": 0.1732283464566929,
                    "duration": 0.1154467499999896
                },
                {
                    "name": "F4",
                    "midi": 65,
                    "time": 199.1456437499993,
                    "velocity": 0.2047244094488189,
                    "duration": 0.1154467499999896
                },
                {
                    "name": "D4",
                    "midi": 62,
                    "time": 199.26109049999928,
                    "velocity": 0.2204724409448819,
                    "duration": 0.1154467499999896
                },
                {
                    "name": "A#3",
                    "midi": 58,
                    "time": 199.26109049999928,
                    "velocity": 0.1732283464566929,
                    "duration": 0.1154467499999896
                },
                {
                    "name": "F4",
                    "midi": 65,
                    "time": 199.37653724999927,
                    "velocity": 0.2047244094488189,
                    "duration": 0.1154467499999896
                },
                {
                    "name": "A#3",
                    "midi": 58,
                    "time": 199.49198399999926,
                    "velocity": 0.2440944881889764,
                    "duration": 0.1154467499999896
                },
                {
                    "name": "D4",
                    "midi": 62,
                    "time": 199.49198399999926,
                    "velocity": 0.2992125984251969,
                    "duration": 0.1154467499999896
                },
                {
                    "name": "F4",
                    "midi": 65,
                    "time": 199.60743074999925,
                    "velocity": 0.1968503937007874,
                    "duration": 0.1154467499999896
                },
                {
                    "name": "A#3",
                    "midi": 58,
                    "time": 199.72287749999924,
                    "velocity": 0.1889763779527559,
                    "duration": 0.1154467499999896
                },
                {
                    "name": "D4",
                    "midi": 62,
                    "time": 199.72287749999924,
                    "velocity": 0.2283464566929134,
                    "duration": 0.1154467499999896
                },
                {
                    "name": "F4",
                    "midi": 65,
                    "time": 199.83832424999923,
                    "velocity": 0.1889763779527559,
                    "duration": 0.1154467499999896
                },
                {
                    "name": "A#3",
                    "midi": 58,
                    "time": 199.95377099999922,
                    "velocity": 0.1889763779527559,
                    "duration": 0.11544675000001803
                },
                {
                    "name": "D4",
                    "midi": 62,
                    "time": 199.95377099999922,
                    "velocity": 0.2283464566929134,
                    "duration": 0.11544675000001803
                },
                {
                    "name": "F4",
                    "midi": 65,
                    "time": 200.06921774999924,
                    "velocity": 0.1968503937007874,
                    "duration": 0.1154467499999896
                },
                {
                    "name": "A#3",
                    "midi": 58,
                    "time": 200.18466449999923,
                    "velocity": 0.2283464566929134,
                    "duration": 0.1154467499999896
                },
                {
                    "name": "D#4",
                    "midi": 63,
                    "time": 200.18466449999923,
                    "velocity": 0.2677165354330709,
                    "duration": 0.1154467499999896
                },
                {
                    "name": "G4",
                    "midi": 67,
                    "time": 200.30011124999922,
                    "velocity": 0.2047244094488189,
                    "duration": 0.1154467499999896
                },
                {
                    "name": "A#3",
                    "midi": 58,
                    "time": 200.4155579999992,
                    "velocity": 0.1968503937007874,
                    "duration": 0.1154467499999896
                },
                {
                    "name": "D#4",
                    "midi": 63,
                    "time": 200.4155579999992,
                    "velocity": 0.23622047244094488,
                    "duration": 0.1154467499999896
                },
                {
                    "name": "G4",
                    "midi": 67,
                    "time": 200.5310047499992,
                    "velocity": 0.1968503937007874,
                    "duration": 0.1154467499999896
                },
                {
                    "name": "A#3",
                    "midi": 58,
                    "time": 200.6464514999992,
                    "velocity": 0.1968503937007874,
                    "duration": 0.1154467499999896
                },
                {
                    "name": "D#4",
                    "midi": 63,
                    "time": 200.6464514999992,
                    "velocity": 0.23622047244094488,
                    "duration": 0.1154467499999896
                },
                {
                    "name": "G4",
                    "midi": 67,
                    "time": 200.76189824999918,
                    "velocity": 0.1968503937007874,
                    "duration": 0.1154467499999896
                },
                {
                    "name": "A#3",
                    "midi": 58,
                    "time": 200.87734499999917,
                    "velocity": 0.2755905511811024,
                    "duration": 0.1154467499999896
                },
                {
                    "name": "D4",
                    "midi": 62,
                    "time": 200.87734499999917,
                    "velocity": 0.33858267716535434,
                    "duration": 0.1154467499999896
                },
                {
                    "name": "F4",
                    "midi": 65,
                    "time": 200.99279174999916,
                    "velocity": 0.2204724409448819,
                    "duration": 0.1154467499999896
                },
                {
                    "name": "D4",
                    "midi": 62,
                    "time": 201.10823849999915,
                    "velocity": 0.2440944881889764,
                    "duration": 0.1154467499999896
                },
                {
                    "name": "A#3",
                    "midi": 58,
                    "time": 201.10823849999915,
                    "velocity": 0.1968503937007874,
                    "duration": 0.1154467499999896
                },
                {
                    "name": "F4",
                    "midi": 65,
                    "time": 201.22368524999914,
                    "velocity": 0.2047244094488189,
                    "duration": 0.1154467499999896
                },
                {
                    "name": "A#3",
                    "midi": 58,
                    "time": 201.33913199999913,
                    "velocity": 0.2047244094488189,
                    "duration": 0.1154467499999896
                },
                {
                    "name": "D4",
                    "midi": 62,
                    "time": 201.33913199999913,
                    "velocity": 0.25196850393700787,
                    "duration": 0.1154467499999896
                },
                {
                    "name": "F4",
                    "midi": 65,
                    "time": 201.45457874999911,
                    "velocity": 0.2047244094488189,
                    "duration": 0.1154467499999896
                },
                {
                    "name": "A3",
                    "midi": 57,
                    "time": 201.5700254999991,
                    "velocity": 0.25196850393700787,
                    "duration": 0.11544675000001803
                },
                {
                    "name": "D#4",
                    "midi": 63,
                    "time": 201.5700254999991,
                    "velocity": 0.30708661417322836,
                    "duration": 0.11544675000001803
                },
                {
                    "name": "F4",
                    "midi": 65,
                    "time": 201.68547224999912,
                    "velocity": 0.2204724409448819,
                    "duration": 0.1154467499999896
                },
                {
                    "name": "A3",
                    "midi": 57,
                    "time": 201.8009189999991,
                    "velocity": 0.2047244094488189,
                    "duration": 0.1154467499999896
                },
                {
                    "name": "D#4",
                    "midi": 63,
                    "time": 201.8009189999991,
                    "velocity": 0.25196850393700787,
                    "duration": 0.1154467499999896
                },
                {
                    "name": "F4",
                    "midi": 65,
                    "time": 201.9163657499991,
                    "velocity": 0.2283464566929134,
                    "duration": 0.1154467499999896
                },
                {
                    "name": "A3",
                    "midi": 57,
                    "time": 202.0318124999991,
                    "velocity": 0.2204724409448819,
                    "duration": 0.1154467499999896
                },
                {
                    "name": "D#4",
                    "midi": 63,
                    "time": 202.0318124999991,
                    "velocity": 0.25984251968503935,
                    "duration": 0.1154467499999896
                },
                {
                    "name": "F4",
                    "midi": 65,
                    "time": 202.14725924999908,
                    "velocity": 0.2204724409448819,
                    "duration": 0.1154467499999896
                },
                {
                    "name": "A3",
                    "midi": 57,
                    "time": 202.26270599999907,
                    "velocity": 0.2755905511811024,
                    "duration": 0.11544675000001803
                },
                {
                    "name": "D#4",
                    "midi": 63,
                    "time": 202.26270599999907,
                    "velocity": 0.33070866141732286,
                    "duration": 0.11544675000001803
                },
                {
                    "name": "F#4",
                    "midi": 66,
                    "time": 202.3781527499991,
                    "velocity": 0.2283464566929134,
                    "duration": 0.1154467499999896
                },
                {
                    "name": "A3",
                    "midi": 57,
                    "time": 202.49359949999908,
                    "velocity": 0.2204724409448819,
                    "duration": 0.1154467499999896
                },
                {
                    "name": "D#4",
                    "midi": 63,
                    "time": 202.49359949999908,
                    "velocity": 0.2677165354330709,
                    "duration": 0.1154467499999896
                },
                {
                    "name": "F#4",
                    "midi": 66,
                    "time": 202.60904624999907,
                    "velocity": 0.2283464566929134,
                    "duration": 0.1154467499999896
                },
                {
                    "name": "A3",
                    "midi": 57,
                    "time": 202.72449299999906,
                    "velocity": 0.2204724409448819,
                    "duration": 0.11544675000001803
                },
                {
                    "name": "D#4",
                    "midi": 63,
                    "time": 202.72449299999906,
                    "velocity": 0.2677165354330709,
                    "duration": 0.11544675000001803
                },
                {
                    "name": "F#4",
                    "midi": 66,
                    "time": 202.83993974999908,
                    "velocity": 0.23622047244094488,
                    "duration": 0.1154467499999896
                },
                {
                    "name": "A#3",
                    "midi": 58,
                    "time": 202.95538649999907,
                    "velocity": 0.2677165354330709,
                    "duration": 0.1154467499999896
                },
                {
                    "name": "D#4",
                    "midi": 63,
                    "time": 202.95538649999907,
                    "velocity": 0.31496062992125984,
                    "duration": 0.1154467499999896
                },
                {
                    "name": "G4",
                    "midi": 67,
                    "time": 203.07083324999905,
                    "velocity": 0.23622047244094488,
                    "duration": 0.11544675000001803
                },
                {
                    "name": "A#3",
                    "midi": 58,
                    "time": 203.18627999999907,
                    "velocity": 0.2283464566929134,
                    "duration": 0.1154467499999896
                },
                {
                    "name": "D#4",
                    "midi": 63,
                    "time": 203.18627999999907,
                    "velocity": 0.2677165354330709,
                    "duration": 0.1154467499999896
                },
                {
                    "name": "G4",
                    "midi": 67,
                    "time": 203.30172674999906,
                    "velocity": 0.23622047244094488,
                    "duration": 0.1154467499999896
                },
                {
                    "name": "A#3",
                    "midi": 58,
                    "time": 203.41717349999905,
                    "velocity": 0.2283464566929134,
                    "duration": 0.11544675000001803
                },
                {
                    "name": "D#4",
                    "midi": 63,
                    "time": 203.41717349999905,
                    "velocity": 0.2677165354330709,
                    "duration": 0.11544675000001803
                },
                {
                    "name": "G4",
                    "midi": 67,
                    "time": 203.53262024999907,
                    "velocity": 0.23622047244094488,
                    "duration": 0.1154467499999896
                },
                {
                    "name": "C4",
                    "midi": 60,
                    "time": 203.64806699999906,
                    "velocity": 0.2755905511811024,
                    "duration": 0.1154467499999896
                },
                {
                    "name": "D#4",
                    "midi": 63,
                    "time": 203.64806699999906,
                    "velocity": 0.33070866141732286,
                    "duration": 0.1154467499999896
                },
                {
                    "name": "G4",
                    "midi": 67,
                    "time": 203.76351374999905,
                    "velocity": 0.2440944881889764,
                    "duration": 0.1154467499999896
                },
                {
                    "name": "C4",
                    "midi": 60,
                    "time": 203.87896049999904,
                    "velocity": 0.23622047244094488,
                    "duration": 0.1154467499999896
                },
                {
                    "name": "D#4",
                    "midi": 63,
                    "time": 203.87896049999904,
                    "velocity": 0.2755905511811024,
                    "duration": 0.1154467499999896
                },
                {
                    "name": "G4",
                    "midi": 67,
                    "time": 203.99440724999903,
                    "velocity": 0.2440944881889764,
                    "duration": 0.1154467499999896
                },
                {
                    "name": "C4",
                    "midi": 60,
                    "time": 204.10985399999902,
                    "velocity": 0.2440944881889764,
                    "duration": 0.1154467499999896
                },
                {
                    "name": "D#4",
                    "midi": 63,
                    "time": 204.10985399999902,
                    "velocity": 0.29133858267716534,
                    "duration": 0.1154467499999896
                },
                {
                    "name": "G4",
                    "midi": 67,
                    "time": 204.225300749999,
                    "velocity": 0.25196850393700787,
                    "duration": 0.1154467499999896
                },
                {
                    "name": "G3",
                    "midi": 55,
                    "time": 204.340747499999,
                    "velocity": 0.2755905511811024,
                    "duration": 0.1154467499999896
                },
                {
                    "name": "D4",
                    "midi": 62,
                    "time": 204.340747499999,
                    "velocity": 0.33858267716535434,
                    "duration": 0.1154467499999896
                },
                {
                    "name": "G4",
                    "midi": 67,
                    "time": 204.456194249999,
                    "velocity": 0.25196850393700787,
                    "duration": 0.1154467499999896
                },
                {
                    "name": "G3",
                    "midi": 55,
                    "time": 204.57164099999898,
                    "velocity": 0.2440944881889764,
                    "duration": 0.1154467499999896
                },
                {
                    "name": "D4",
                    "midi": 62,
                    "time": 204.57164099999898,
                    "velocity": 0.29133858267716534,
                    "duration": 0.1154467499999896
                },
                {
                    "name": "G4",
                    "midi": 67,
                    "time": 204.68708774999897,
                    "velocity": 0.25196850393700787,
                    "duration": 0.1154467499999896
                },
                {
                    "name": "G3",
                    "midi": 55,
                    "time": 204.80253449999896,
                    "velocity": 0.2440944881889764,
                    "duration": 0.1154467499999896
                },
                {
                    "name": "D4",
                    "midi": 62,
                    "time": 204.80253449999896,
                    "velocity": 0.29133858267716534,
                    "duration": 0.1154467499999896
                },
                {
                    "name": "G4",
                    "midi": 67,
                    "time": 204.91798124999895,
                    "velocity": 0.25984251968503935,
                    "duration": 0.1154467499999896
                },
                {
                    "name": "D#4",
                    "midi": 63,
                    "time": 205.03342799999893,
                    "velocity": 0.4881889763779528,
                    "duration": 0.23089350000000763
                },
                {
                    "name": "D4",
                    "midi": 62,
                    "time": 205.26432149999894,
                    "velocity": 0.4094488188976378,
                    "duration": 0.23089350000000763
                },
                {
                    "name": "D#4",
                    "midi": 63,
                    "time": 205.49521499999895,
                    "velocity": 0.4094488188976378,
                    "duration": 0.23089350000000763
                },
                {
                    "name": "C4",
                    "midi": 60,
                    "time": 205.72610849999896,
                    "velocity": 0.4881889763779528,
                    "duration": 0.23089350000000763
                },
                {
                    "name": "D4",
                    "midi": 62,
                    "time": 205.95700199999897,
                    "velocity": 0.3937007874015748,
                    "duration": 0.1154467499999896
                },
                {
                    "name": "D#4",
                    "midi": 63,
                    "time": 206.07244874999896,
                    "velocity": 0.3937007874015748,
                    "duration": 0.1154467499999896
                },
                {
                    "name": "F4",
                    "midi": 65,
                    "time": 206.18789549999894,
                    "velocity": 0.4094488188976378,
                    "duration": 0.1154467499999896
                },
                {
                    "name": "G4",
                    "midi": 67,
                    "time": 206.30334224999893,
                    "velocity": 0.4094488188976378,
                    "duration": 0.1154467499999896
                },
                {
                    "name": "D#4",
                    "midi": 63,
                    "time": 206.41878899999892,
                    "velocity": 0.47244094488188976,
                    "duration": 0.23089350000000763
                },
                {
                    "name": "F4",
                    "midi": 65,
                    "time": 206.64968249999893,
                    "velocity": 0.44881889763779526,
                    "duration": 0.1154467499999896
                },
                {
                    "name": "D#4",
                    "midi": 63,
                    "time": 206.76512924999892,
                    "velocity": 0.4094488188976378,
                    "duration": 0.1154467499999896
                },
                {
                    "name": "D4",
                    "midi": 62,
                    "time": 206.8805759999989,
                    "velocity": 0.44881889763779526,
                    "duration": 0.1154467499999896
                },
                {
                    "name": "C4",
                    "midi": 60,
                    "time": 206.9960227499989,
                    "velocity": 0.4094488188976378,
                    "duration": 0.1154467499999896
                },
                {
                    "name": "A#3",
                    "midi": 58,
                    "time": 207.1114694999989,
                    "velocity": 0.48031496062992124,
                    "duration": 0.0577233749999948
                },
                {
                    "name": "A#3",
                    "midi": 58,
                    "time": 207.3423629999989,
                    "velocity": 0.4094488188976378,
                    "duration": 0.0577233749999948
                },
                {
                    "name": "A#3",
                    "midi": 58,
                    "time": 207.5732564999989,
                    "velocity": 0.4094488188976378,
                    "duration": 0.0577233749999948
                },
                {
                    "name": "B3",
                    "midi": 59,
                    "time": 207.8041499999989,
                    "velocity": 0.47244094488188976,
                    "duration": 0.23089350000000763
                },
                {
                    "name": "B4",
                    "midi": 71,
                    "time": 208.03504349999892,
                    "velocity": 0.3937007874015748,
                    "duration": 0.23089350000000763
                },
                {
                    "name": "B4",
                    "midi": 71,
                    "time": 208.26593699999893,
                    "velocity": 0.41732283464566927,
                    "duration": 0.1154467499999896
                },
                {
                    "name": "C5",
                    "midi": 72,
                    "time": 208.4968304999989,
                    "velocity": 0.4881889763779528,
                    "duration": 0.23089350000000763
                },
                {
                    "name": "C4",
                    "midi": 60,
                    "time": 208.72772399999891,
                    "velocity": 0.4566929133858268,
                    "duration": 0.23089350000000763
                },
                {
                    "name": "C4",
                    "midi": 60,
                    "time": 208.95861749999892,
                    "velocity": 0.47244094488188976,
                    "duration": 0.1154467499999896
                },
                {
                    "name": "F4",
                    "midi": 65,
                    "time": 209.1895109999989,
                    "velocity": 0.5196850393700787,
                    "duration": 0.0577233749999948
                },
                {
                    "name": "G3",
                    "midi": 55,
                    "time": 209.3626811249989,
                    "velocity": 0.4566929133858268,
                    "duration": 0.07696450000000254
                },
                {
                    "name": "F3",
                    "midi": 53,
                    "time": 209.42040449999888,
                    "velocity": 0.5275590551181102,
                    "duration": 0.13468787500002577
                },
                {
                    "name": "E3",
                    "midi": 52,
                    "time": 209.5358512499989,
                    "velocity": 0.4881889763779528,
                    "duration": 0.13468787500002577
                },
                {
                    "name": "F3",
                    "midi": 53,
                    "time": 209.65129799999892,
                    "velocity": 0.5196850393700787,
                    "duration": 0.23089350000000763
                },
                {
                    "name": "A#3",
                    "midi": 58,
                    "time": 209.88219149999892,
                    "velocity": 0.4881889763779528,
                    "duration": 0.0577233749999948
                },
                {
                    "name": "C3",
                    "midi": 48,
                    "time": 210.0553616249989,
                    "velocity": 0.4330708661417323,
                    "duration": 0.07696450000000254
                },
                {
                    "name": "A#2",
                    "midi": 46,
                    "time": 210.1130849999989,
                    "velocity": 0.4881889763779528,
                    "duration": 0.13468787500002577
                },
                {
                    "name": "A2",
                    "midi": 45,
                    "time": 210.22853174999892,
                    "velocity": 0.44881889763779526,
                    "duration": 0.13468787500002577
                },
                {
                    "name": "A#2",
                    "midi": 46,
                    "time": 210.34397849999894,
                    "velocity": 0.4881889763779528,
                    "duration": 0.23089350000000763
                },
                {
                    "name": "F2",
                    "midi": 41,
                    "time": 210.57487199999895,
                    "velocity": 0.4409448818897638,
                    "duration": 0.23089350000000763
                },
                {
                    "name": "G2",
                    "midi": 43,
                    "time": 210.80576549999896,
                    "velocity": 0.3464566929133858,
                    "duration": 0.1154467499999896
                },
                {
                    "name": "A2",
                    "midi": 45,
                    "time": 210.92121224999894,
                    "velocity": 0.3464566929133858,
                    "duration": 0.1154467499999896
                },
                {
                    "name": "A#2",
                    "midi": 46,
                    "time": 211.03665899999893,
                    "velocity": 0.3700787401574803,
                    "duration": 0.1154467499999896
                },
                {
                    "name": "C3",
                    "midi": 48,
                    "time": 211.15210574999892,
                    "velocity": 0.3700787401574803,
                    "duration": 0.1154467499999896
                },
                {
                    "name": "A#2",
                    "midi": 46,
                    "time": 211.2675524999989,
                    "velocity": 0.41732283464566927,
                    "duration": 0.0577233749999948
                },
                {
                    "name": "A#2",
                    "midi": 46,
                    "time": 211.49844599999892,
                    "velocity": 0.41732283464566927,
                    "duration": 0.0577233749999948
                },
                {
                    "name": "A#2",
                    "midi": 46,
                    "time": 211.72933949999893,
                    "velocity": 0.41732283464566927,
                    "duration": 0.0577233749999948
                },
                {
                    "name": "F3",
                    "midi": 53,
                    "time": 211.96023299999894,
                    "velocity": 0.3937007874015748,
                    "duration": 0.23089350000000763
                },
                {
                    "name": "G3",
                    "midi": 55,
                    "time": 212.19112649999894,
                    "velocity": 0.30708661417322836,
                    "duration": 0.1154467499999896
                },
                {
                    "name": "A3",
                    "midi": 57,
                    "time": 212.30657324999893,
                    "velocity": 0.30708661417322836,
                    "duration": 0.1154467499999896
                },
                {
                    "name": "A#3",
                    "midi": 58,
                    "time": 212.42201999999892,
                    "velocity": 0.3228346456692913,
                    "duration": 0.1154467499999896
                },
                {
                    "name": "C4",
                    "midi": 60,
                    "time": 212.5374667499989,
                    "velocity": 0.3228346456692913,
                    "duration": 0.1154467499999896
                },
                {
                    "name": "A#3",
                    "midi": 58,
                    "time": 212.6529134999989,
                    "velocity": 0.3779527559055118,
                    "duration": 0.0577233749999948
                },
                {
                    "name": "A#3",
                    "midi": 58,
                    "time": 212.8838069999989,
                    "velocity": 0.3779527559055118,
                    "duration": 0.0577233749999948
                },
                {
                    "name": "A#3",
                    "midi": 58,
                    "time": 213.11470049999892,
                    "velocity": 0.3779527559055118,
                    "duration": 0.0577233749999948
                },
                {
                    "name": "F4",
                    "midi": 65,
                    "time": 213.34559399999893,
                    "velocity": 0.3464566929133858,
                    "duration": 0.23089350000000763
                },
                {
                    "name": "G4",
                    "midi": 67,
                    "time": 213.57648749999893,
                    "velocity": 0.2677165354330709,
                    "duration": 0.1154467499999896
                },
                {
                    "name": "A4",
                    "midi": 69,
                    "time": 213.69193424999892,
                    "velocity": 0.2677165354330709,
                    "duration": 0.1154467499999896
                },
                {
                    "name": "A#4",
                    "midi": 70,
                    "time": 213.8073809999989,
                    "velocity": 0.29133858267716534,
                    "duration": 0.1154467499999896
                },
                {
                    "name": "C5",
                    "midi": 72,
                    "time": 213.9228277499989,
                    "velocity": 0.29133858267716534,
                    "duration": 0.1154467499999896
                },
                {
                    "name": "A#4",
                    "midi": 70,
                    "time": 214.0382744999989,
                    "velocity": 0.33070866141732286,
                    "duration": 0.23089350000000763
                },
                {
                    "name": "F4",
                    "midi": 65,
                    "time": 214.7309549999989,
                    "velocity": 0.2204724409448819,
                    "duration": 0.23089350000000763
                },
                {
                    "name": "A#4",
                    "midi": 70,
                    "time": 214.7309549999989,
                    "velocity": 0.25984251968503935,
                    "duration": 0.23089350000000763
                },
                {
                    "name": "D4",
                    "midi": 62,
                    "time": 215.42363549999888,
                    "velocity": 0.2047244094488189,
                    "duration": 0.23089350000000763
                },
                {
                    "name": "F4",
                    "midi": 65,
                    "time": 215.42363549999888,
                    "velocity": 0.2047244094488189,
                    "duration": 0.23089350000000763
                },
                {
                    "name": "A#4",
                    "midi": 70,
                    "time": 215.42363549999888,
                    "velocity": 0.2440944881889764,
                    "duration": 0.23089350000000763
                },
                {
                    "name": "A#3",
                    "midi": 58,
                    "time": 216.11631599999887,
                    "velocity": 0.2047244094488189,
                    "duration": 0.9235740000000021
                },
                {
                    "name": "F4",
                    "midi": 65,
                    "time": 216.11631599999887,
                    "velocity": 0.2047244094488189,
                    "duration": 0.9235740000000021
                },
                {
                    "name": "A#4",
                    "midi": 70,
                    "time": 216.11631599999887,
                    "velocity": 0.2440944881889764,
                    "duration": 0.9235740000000021
                }
            ],
            "controlChanges": {
                "7": [
                    {
                        "number": 7,
                        "time": 0,
                        "value": 0.7874015748031497
                    }
                ],
                "10": [
                    {
                        "number": 10,
                        "time": 0,
                        "value": 0.5039370078740157
                    }
                ],
                "64": [
                    {
                        "number": 64,
                        "time": 0,
                        "value": 1
                    },
                    {
                        "number": 64,
                        "time": 0.23089350000000003,
                        "value": 0
                    },
                    {
                        "number": 64,
                        "time": 0.27129986250000004,
                        "value": 1
                    },
                    {
                        "number": 64,
                        "time": 0.46755933750000006,
                        "value": 0
                    },
                    {
                        "number": 64,
                        "time": 0.49545896875000006,
                        "value": 1
                    },
                    {
                        "number": 64,
                        "time": 0.6994148937500001,
                        "value": 0
                    },
                    {
                        "number": 64,
                        "time": 0.7398212562500001,
                        "value": 1
                    },
                    {
                        "number": 64,
                        "time": 0.9370427875000001,
                        "value": 0
                    },
                    {
                        "number": 64,
                        "time": 0.9707147562500001,
                        "value": 1
                    },
                    {
                        "number": 64,
                        "time": 1.3997918437500003,
                        "value": 0
                    },
                    {
                        "number": 64,
                        "time": 1.4325017562500004,
                        "value": 1
                    },
                    {
                        "number": 64,
                        "time": 1.6162545000000004,
                        "value": 0
                    },
                    {
                        "number": 64,
                        "time": 1.6633952562500003,
                        "value": 1
                    },
                    {
                        "number": 64,
                        "time": 2.0780415000000003,
                        "value": 0
                    },
                    {
                        "number": 64,
                        "time": 2.837103881249999,
                        "value": 1
                    },
                    {
                        "number": 64,
                        "time": 3.228660774999999,
                        "value": 0
                    },
                    {
                        "number": 64,
                        "time": 3.5855836437499984,
                        "value": 1
                    },
                    {
                        "number": 64,
                        "time": 3.898251924999998,
                        "value": 0
                    },
                    {
                        "number": 64,
                        "time": 4.369659487499998,
                        "value": 1
                    },
                    {
                        "number": 64,
                        "time": 4.8487635,
                        "value": 0
                    },
                    {
                        "number": 64,
                        "time": 5.04598503125,
                        "value": 1
                    },
                    {
                        "number": 64,
                        "time": 5.541444000000001,
                        "value": 0
                    },
                    {
                        "number": 64,
                        "time": 11.13099081250001,
                        "value": 1
                    },
                    {
                        "number": 64,
                        "time": 11.253171956250009,
                        "value": 0
                    },
                    {
                        "number": 64,
                        "time": 11.28876803750001,
                        "value": 1
                    },
                    {
                        "number": 64,
                        "time": 11.559105843750011,
                        "value": 0
                    },
                    {
                        "number": 64,
                        "time": 11.574498743750011,
                        "value": 1
                    },
                    {
                        "number": 64,
                        "time": 11.789999343750011,
                        "value": 0
                    },
                    {
                        "number": 64,
                        "time": 11.82367131250001,
                        "value": 1
                    },
                    {
                        "number": 64,
                        "time": 11.952586850000012,
                        "value": 0
                    },
                    {
                        "number": 64,
                        "time": 11.986258818750011,
                        "value": 1
                    },
                    {
                        "number": 64,
                        "time": 12.241203725000013,
                        "value": 0
                    },
                    {
                        "number": 64,
                        "time": 12.284496256250012,
                        "value": 1
                    },
                    {
                        "number": 64,
                        "time": 12.482679843750013,
                        "value": 0
                    },
                    {
                        "number": 64,
                        "time": 12.498072743750013,
                        "value": 0
                    },
                    {
                        "number": 64,
                        "time": 12.516351812500012,
                        "value": 1
                    },
                    {
                        "number": 64,
                        "time": 12.716459512500013,
                        "value": 0
                    },
                    {
                        "number": 64,
                        "time": 12.804006631250013,
                        "value": 1
                    },
                    {
                        "number": 64,
                        "time": 13.160929500000014,
                        "value": 0
                    },
                    {
                        "number": 64,
                        "time": 13.175360343750015,
                        "value": 0
                    },
                    {
                        "number": 64,
                        "time": 13.209032312500014,
                        "value": 1
                    },
                    {
                        "number": 64,
                        "time": 13.397595337500015,
                        "value": 0
                    },
                    {
                        "number": 64,
                        "time": 13.424532912500014,
                        "value": 1
                    },
                    {
                        "number": 64,
                        "time": 13.853610000000016,
                        "value": 0
                    },
                    {
                        "number": 64,
                        "time": 16.672434812500022,
                        "value": 1
                    },
                    {
                        "number": 64,
                        "time": 16.861959893750022,
                        "value": 0
                    },
                    {
                        "number": 64,
                        "time": 16.883125131250022,
                        "value": 1
                    },
                    {
                        "number": 64,
                        "time": 17.08900516875002,
                        "value": 0
                    },
                    {
                        "number": 64,
                        "time": 17.11401863125002,
                        "value": 1
                    },
                    {
                        "number": 64,
                        "time": 17.31701250000002,
                        "value": 0
                    },
                    {
                        "number": 64,
                        "time": 17.331443343750017,
                        "value": 0
                    },
                    {
                        "number": 64,
                        "time": 17.365115312500016,
                        "value": 1
                    },
                    {
                        "number": 64,
                        "time": 17.551754225000014,
                        "value": 0
                    },
                    {
                        "number": 64,
                        "time": 17.592160587500015,
                        "value": 1
                    },
                    {
                        "number": 64,
                        "time": 17.758596318750016,
                        "value": 0
                    },
                    {
                        "number": 64,
                        "time": 17.792268287500015,
                        "value": 1
                    },
                    {
                        "number": 64,
                        "time": 18.009693000000016,
                        "value": 0
                    },
                    {
                        "number": 64,
                        "time": 18.024123843750015,
                        "value": 0
                    },
                    {
                        "number": 64,
                        "time": 18.057795812500014,
                        "value": 1
                    },
                    {
                        "number": 64,
                        "time": 18.259827625000014,
                        "value": 0
                    },
                    {
                        "number": 64,
                        "time": 18.289651368750015,
                        "value": 1
                    },
                    {
                        "number": 64,
                        "time": 18.702373500000014,
                        "value": 0
                    },
                    {
                        "number": 64,
                        "time": 18.716804343750013,
                        "value": 0
                    },
                    {
                        "number": 64,
                        "time": 18.750476312500012,
                        "value": 1
                    },
                    {
                        "number": 64,
                        "time": 18.939039337500013,
                        "value": 0
                    },
                    {
                        "number": 64,
                        "time": 18.965976912500015,
                        "value": 1
                    },
                    {
                        "number": 64,
                        "time": 19.395054000000016,
                        "value": 0
                    },
                    {
                        "number": 64,
                        "time": 27.707219999999946,
                        "value": 0
                    },
                    {
                        "number": 64,
                        "time": 27.957354624999944,
                        "value": 1
                    },
                    {
                        "number": 64,
                        "time": 28.39990049999994,
                        "value": 0
                    },
                    {
                        "number": 64,
                        "time": 28.44415508749994,
                        "value": 1
                    },
                    {
                        "number": 64,
                        "time": 28.64907306874994,
                        "value": 0
                    },
                    {
                        "number": 64,
                        "time": 28.71353083749994,
                        "value": 1
                    },
                    {
                        "number": 64,
                        "time": 29.092580999999935,
                        "value": 0
                    },
                    {
                        "number": 64,
                        "time": 29.131063249999936,
                        "value": 1
                    },
                    {
                        "number": 64,
                        "time": 29.343677681249936,
                        "value": 0
                    },
                    {
                        "number": 64,
                        "time": 29.367729087499935,
                        "value": 1
                    },
                    {
                        "number": 64,
                        "time": 29.78526149999993,
                        "value": 0
                    },
                    {
                        "number": 64,
                        "time": 36.01938599999991,
                        "value": 0
                    },
                    {
                        "number": 64,
                        "time": 36.25893800624991,
                        "value": 1
                    },
                    {
                        "number": 64,
                        "time": 36.712066499999914,
                        "value": 0
                    },
                    {
                        "number": 64,
                        "time": 36.75632108749991,
                        "value": 1
                    },
                    {
                        "number": 64,
                        "time": 36.94873233749991,
                        "value": 0
                    },
                    {
                        "number": 64,
                        "time": 37.01511421874991,
                        "value": 1
                    },
                    {
                        "number": 64,
                        "time": 37.40474699999991,
                        "value": 0
                    },
                    {
                        "number": 64,
                        "time": 37.44322924999991,
                        "value": 1
                    },
                    {
                        "number": 64,
                        "time": 37.655843681249905,
                        "value": 0
                    },
                    {
                        "number": 64,
                        "time": 37.69047770624991,
                        "value": 1
                    },
                    {
                        "number": 64,
                        "time": 38.09742749999991,
                        "value": 0
                    },
                    {
                        "number": 64,
                        "time": 39.48278849999991,
                        "value": 0
                    },
                    {
                        "number": 64,
                        "time": 40.175468999999914,
                        "value": 0
                    },
                    {
                        "number": 64,
                        "time": 40.219723587499914,
                        "value": 1
                    },
                    {
                        "number": 64,
                        "time": 40.416945118749915,
                        "value": 0
                    },
                    {
                        "number": 64,
                        "time": 40.455427368749916,
                        "value": 1
                    },
                    {
                        "number": 64,
                        "time": 40.868149499999916,
                        "value": 0
                    },
                    {
                        "number": 64,
                        "time": 42.94619099999992,
                        "value": 0
                    },
                    {
                        "number": 64,
                        "time": 43.63887149999992,
                        "value": 0
                    },
                    {
                        "number": 64,
                        "time": 43.68312608749992,
                        "value": 1
                    },
                    {
                        "number": 64,
                        "time": 43.89285434999992,
                        "value": 0
                    },
                    {
                        "number": 64,
                        "time": 43.918829868749924,
                        "value": 1
                    },
                    {
                        "number": 64,
                        "time": 44.331551999999924,
                        "value": 0
                    },
                    {
                        "number": 64,
                        "time": 45.79387749999993,
                        "value": 1
                    },
                    {
                        "number": 64,
                        "time": 45.95838911874993,
                        "value": 0
                    },
                    {
                        "number": 64,
                        "time": 45.98628874999993,
                        "value": 1
                    },
                    {
                        "number": 64,
                        "time": 46.18543439374993,
                        "value": 0
                    },
                    {
                        "number": 64,
                        "time": 46.22295458749993,
                        "value": 1
                    },
                    {
                        "number": 64,
                        "time": 46.40959349999992,
                        "value": 0
                    },
                    {
                        "number": 64,
                        "time": 46.44807574999992,
                        "value": 1
                    },
                    {
                        "number": 64,
                        "time": 46.65684195624992,
                        "value": 0
                    },
                    {
                        "number": 64,
                        "time": 46.70879299374992,
                        "value": 1
                    },
                    {
                        "number": 64,
                        "time": 46.877152837499914,
                        "value": 0
                    },
                    {
                        "number": 64,
                        "time": 46.905052468749915,
                        "value": 1
                    },
                    {
                        "number": 64,
                        "time": 47.10227399999991,
                        "value": 0
                    },
                    {
                        "number": 64,
                        "time": 47.17057999374991,
                        "value": 1
                    },
                    {
                        "number": 64,
                        "time": 47.34663628749991,
                        "value": 0
                    },
                    {
                        "number": 64,
                        "time": 47.414942281249914,
                        "value": 1
                    },
                    {
                        "number": 64,
                        "time": 47.58041595624991,
                        "value": 0
                    },
                    {
                        "number": 64,
                        "time": 47.61889820624991,
                        "value": 1
                    },
                    {
                        "number": 64,
                        "time": 47.7949544999999,
                        "value": 0
                    },
                    {
                        "number": 64,
                        "time": 47.842095256249905,
                        "value": 1
                    },
                    {
                        "number": 64,
                        "time": 48.04797529374991,
                        "value": 0
                    },
                    {
                        "number": 64,
                        "time": 48.15476353749991,
                        "value": 1
                    },
                    {
                        "number": 64,
                        "time": 48.487634999999905,
                        "value": 0
                    },
                    {
                        "number": 64,
                        "time": 48.53477575624991,
                        "value": 1
                    },
                    {
                        "number": 64,
                        "time": 48.73392139999991,
                        "value": 0
                    },
                    {
                        "number": 64,
                        "time": 48.80030328124991,
                        "value": 1
                    },
                    {
                        "number": 64,
                        "time": 49.2072530749999,
                        "value": 0
                    },
                    {
                        "number": 64,
                        "time": 49.90378179999988,
                        "value": 1
                    },
                    {
                        "number": 64,
                        "time": 50.32804860624987,
                        "value": 0
                    },
                    {
                        "number": 64,
                        "time": 50.56567649999987,
                        "value": 1
                    },
                    {
                        "number": 64,
                        "time": 51.023615274999855,
                        "value": 0
                    },
                    {
                        "number": 64,
                        "time": 51.46231292499984,
                        "value": 1
                    },
                    {
                        "number": 64,
                        "time": 51.95103749999983,
                        "value": 0
                    },
                    {
                        "number": 64,
                        "time": 52.14441080624982,
                        "value": 1
                    },
                    {
                        "number": 64,
                        "time": 52.64371799999981,
                        "value": 0
                    },
                    {
                        "number": 64,
                        "time": 58.19189639374981,
                        "value": 0
                    },
                    {
                        "number": 64,
                        "time": 58.273671174999805,
                        "value": 1
                    },
                    {
                        "number": 64,
                        "time": 58.434334568749804,
                        "value": 0
                    },
                    {
                        "number": 64,
                        "time": 58.5180334624998,
                        "value": 1
                    },
                    {
                        "number": 64,
                        "time": 58.877842499999794,
                        "value": 0
                    },
                    {
                        "number": 64,
                        "time": 59.659032174999794,
                        "value": 1
                    },
                    {
                        "number": 64,
                        "time": 59.81969556874979,
                        "value": 0
                    },
                    {
                        "number": 64,
                        "time": 59.90339446249979,
                        "value": 1
                    },
                    {
                        "number": 64,
                        "time": 60.26320349999978,
                        "value": 0
                    },
                    {
                        "number": 64,
                        "time": 61.04439317499978,
                        "value": 1
                    },
                    {
                        "number": 64,
                        "time": 61.23391825624979,
                        "value": 0
                    },
                    {
                        "number": 64,
                        "time": 61.288755462499786,
                        "value": 1
                    },
                    {
                        "number": 64,
                        "time": 61.64856449999978,
                        "value": 0
                    },
                    {
                        "number": 64,
                        "time": 62.38934781249978,
                        "value": 1
                    },
                    {
                        "number": 64,
                        "time": 62.576948781249776,
                        "value": 0
                    },
                    {
                        "number": 64,
                        "time": 62.610620749999775,
                        "value": 1
                    },
                    {
                        "number": 64,
                        "time": 62.81650078749978,
                        "value": 0
                    },
                    {
                        "number": 64,
                        "time": 62.83574191249978,
                        "value": 1
                    },
                    {
                        "number": 64,
                        "time": 63.033925499999775,
                        "value": 0
                    },
                    {
                        "number": 64,
                        "time": 63.048356343749774,
                        "value": 0
                    },
                    {
                        "number": 64,
                        "time": 63.08202831249977,
                        "value": 1
                    },
                    {
                        "number": 64,
                        "time": 63.26866722499977,
                        "value": 0
                    },
                    {
                        "number": 64,
                        "time": 63.306187418749765,
                        "value": 1
                    },
                    {
                        "number": 64,
                        "time": 63.51495362499976,
                        "value": 0
                    },
                    {
                        "number": 64,
                        "time": 63.542853256249764,
                        "value": 1
                    },
                    {
                        "number": 64,
                        "time": 63.74103684374976,
                        "value": 0
                    },
                    {
                        "number": 64,
                        "time": 63.75931591249976,
                        "value": 0
                    },
                    {
                        "number": 64,
                        "time": 63.77470881249976,
                        "value": 1
                    },
                    {
                        "number": 64,
                        "time": 63.968082118749756,
                        "value": 0
                    },
                    {
                        "number": 64,
                        "time": 64.00656436874975,
                        "value": 1
                    },
                    {
                        "number": 64,
                        "time": 64.41928649999976,
                        "value": 0
                    },
                    {
                        "number": 64,
                        "time": 64.43371734374976,
                        "value": 0
                    },
                    {
                        "number": 64,
                        "time": 64.46738931249976,
                        "value": 1
                    },
                    {
                        "number": 64,
                        "time": 64.65595233749977,
                        "value": 0
                    },
                    {
                        "number": 64,
                        "time": 64.68288991249977,
                        "value": 1
                    },
                    {
                        "number": 64,
                        "time": 65.11196699999978,
                        "value": 0
                    },
                    {
                        "number": 64,
                        "time": 67.88268899999971,
                        "value": 0
                    },
                    {
                        "number": 64,
                        "time": 67.93079181249972,
                        "value": 1
                    },
                    {
                        "number": 64,
                        "time": 68.11646866874972,
                        "value": 0
                    },
                    {
                        "number": 64,
                        "time": 68.16360942499972,
                        "value": 1
                    },
                    {
                        "number": 64,
                        "time": 68.35024833749974,
                        "value": 0
                    },
                    {
                        "number": 64,
                        "time": 68.37237563124974,
                        "value": 1
                    },
                    {
                        "number": 64,
                        "time": 68.57536949999974,
                        "value": 0
                    },
                    {
                        "number": 64,
                        "time": 68.58980034374974,
                        "value": 0
                    },
                    {
                        "number": 64,
                        "time": 68.62347231249974,
                        "value": 1
                    },
                    {
                        "number": 64,
                        "time": 68.81299739374974,
                        "value": 0
                    },
                    {
                        "number": 64,
                        "time": 68.85725198124975,
                        "value": 1
                    },
                    {
                        "number": 64,
                        "time": 69.04100472499975,
                        "value": 0
                    },
                    {
                        "number": 64,
                        "time": 69.09487987499975,
                        "value": 1
                    },
                    {
                        "number": 64,
                        "time": 69.26804999999975,
                        "value": 0
                    },
                    {
                        "number": 64,
                        "time": 69.28248084374975,
                        "value": 0
                    },
                    {
                        "number": 64,
                        "time": 69.31615281249975,
                        "value": 1
                    },
                    {
                        "number": 64,
                        "time": 69.50471583749976,
                        "value": 0
                    },
                    {
                        "number": 64,
                        "time": 69.55955304374976,
                        "value": 1
                    },
                    {
                        "number": 64,
                        "time": 69.96073049999977,
                        "value": 0
                    },
                    {
                        "number": 64,
                        "time": 69.97516134374978,
                        "value": 0
                    },
                    {
                        "number": 64,
                        "time": 70.00883331249977,
                        "value": 1
                    },
                    {
                        "number": 64,
                        "time": 70.19739633749978,
                        "value": 0
                    },
                    {
                        "number": 64,
                        "time": 70.23780269999978,
                        "value": 1
                    },
                    {
                        "number": 64,
                        "time": 70.65341099999979,
                        "value": 0
                    },
                    {
                        "number": 64,
                        "time": 78.96557699999957,
                        "value": 0
                    },
                    {
                        "number": 64,
                        "time": 79.21282545624956,
                        "value": 1
                    },
                    {
                        "number": 64,
                        "time": 79.65825749999955,
                        "value": 0
                    },
                    {
                        "number": 64,
                        "time": 79.70251208749956,
                        "value": 1
                    },
                    {
                        "number": 64,
                        "time": 79.89973361874956,
                        "value": 0
                    },
                    {
                        "number": 64,
                        "time": 80.00459774999956,
                        "value": 1
                    },
                    {
                        "number": 64,
                        "time": 80.35093799999956,
                        "value": 0
                    },
                    {
                        "number": 64,
                        "time": 80.38942024999956,
                        "value": 1
                    },
                    {
                        "number": 64,
                        "time": 80.58760383749956,
                        "value": 0
                    },
                    {
                        "number": 64,
                        "time": 80.65879599999955,
                        "value": 1
                    },
                    {
                        "number": 64,
                        "time": 81.04361849999955,
                        "value": 0
                    },
                    {
                        "number": 64,
                        "time": 87.27774299999938,
                        "value": 0
                    },
                    {
                        "number": 64,
                        "time": 87.55000491874937,
                        "value": 1
                    },
                    {
                        "number": 64,
                        "time": 87.97042349999936,
                        "value": 0
                    },
                    {
                        "number": 64,
                        "time": 88.01467808749936,
                        "value": 1
                    },
                    {
                        "number": 64,
                        "time": 88.21286167499936,
                        "value": 0
                    },
                    {
                        "number": 64,
                        "time": 88.29463645624936,
                        "value": 1
                    },
                    {
                        "number": 64,
                        "time": 88.66310399999936,
                        "value": 0
                    },
                    {
                        "number": 64,
                        "time": 88.70158624999937,
                        "value": 1
                    },
                    {
                        "number": 64,
                        "time": 88.91035245624936,
                        "value": 0
                    },
                    {
                        "number": 64,
                        "time": 88.99886163124935,
                        "value": 1
                    },
                    {
                        "number": 64,
                        "time": 89.35578449999934,
                        "value": 0
                    },
                    {
                        "number": 64,
                        "time": 91.43382599999929,
                        "value": 0
                    },
                    {
                        "number": 64,
                        "time": 91.47808058749929,
                        "value": 1
                    },
                    {
                        "number": 64,
                        "time": 91.6753021187493,
                        "value": 0
                    },
                    {
                        "number": 64,
                        "time": 91.7195567062493,
                        "value": 1
                    },
                    {
                        "number": 64,
                        "time": 92.1265064999993,
                        "value": 0
                    },
                    {
                        "number": 64,
                        "time": 94.20454799999924,
                        "value": 0
                    },
                    {
                        "number": 64,
                        "time": 94.89722849999922,
                        "value": 0
                    },
                    {
                        "number": 64,
                        "time": 94.94148308749922,
                        "value": 1
                    },
                    {
                        "number": 64,
                        "time": 95.13678050624922,
                        "value": 0
                    },
                    {
                        "number": 64,
                        "time": 95.21663117499922,
                        "value": 1
                    },
                    {
                        "number": 64,
                        "time": 95.58990899999921,
                        "value": 0
                    },
                    {
                        "number": 64,
                        "time": 97.05223449999917,
                        "value": 1
                    },
                    {
                        "number": 64,
                        "time": 97.22251845624918,
                        "value": 0
                    },
                    {
                        "number": 64,
                        "time": 97.25522836874917,
                        "value": 1
                    },
                    {
                        "number": 64,
                        "time": 97.44763961874918,
                        "value": 0
                    },
                    {
                        "number": 64,
                        "time": 97.49766654374918,
                        "value": 1
                    },
                    {
                        "number": 64,
                        "time": 97.66795049999918,
                        "value": 0
                    },
                    {
                        "number": 64,
                        "time": 97.70643274999918,
                        "value": 1
                    },
                    {
                        "number": 64,
                        "time": 97.90173016874918,
                        "value": 0
                    },
                    {
                        "number": 64,
                        "time": 97.96714999374919,
                        "value": 1
                    },
                    {
                        "number": 64,
                        "time": 98.13743394999919,
                        "value": 0
                    },
                    {
                        "number": 64,
                        "time": 98.19130909999919,
                        "value": 1
                    },
                    {
                        "number": 64,
                        "time": 98.36063099999919,
                        "value": 0
                    },
                    {
                        "number": 64,
                        "time": 98.42893699374919,
                        "value": 1
                    },
                    {
                        "number": 64,
                        "time": 98.5992209499992,
                        "value": 0
                    },
                    {
                        "number": 64,
                        "time": 98.6463617062492,
                        "value": 1
                    },
                    {
                        "number": 64,
                        "time": 98.8291523937492,
                        "value": 0
                    },
                    {
                        "number": 64,
                        "time": 98.9041927812492,
                        "value": 1
                    },
                    {
                        "number": 64,
                        "time": 99.0552356124992,
                        "value": 0
                    },
                    {
                        "number": 64,
                        "time": 99.1004522562492,
                        "value": 1
                    },
                    {
                        "number": 64,
                        "time": 99.2909393937492,
                        "value": 0
                    },
                    {
                        "number": 64,
                        "time": 99.3659797812492,
                        "value": 1
                    },
                    {
                        "number": 64,
                        "time": 99.7459919999992,
                        "value": 0
                    },
                    {
                        "number": 64,
                        "time": 99.79313275624921,
                        "value": 1
                    },
                    {
                        "number": 64,
                        "time": 99.99708868124921,
                        "value": 0
                    },
                    {
                        "number": 64,
                        "time": 100.03076064999921,
                        "value": 1
                    },
                    {
                        "number": 64,
                        "time": 100.46561007499922,
                        "value": 0
                    },
                    {
                        "number": 64,
                        "time": 101.19773488124923,
                        "value": 1
                    },
                    {
                        "number": 64,
                        "time": 101.58929177499924,
                        "value": 0
                    },
                    {
                        "number": 64,
                        "time": 101.94621464374924,
                        "value": 1
                    },
                    {
                        "number": 64,
                        "time": 102.30313751249925,
                        "value": 0
                    },
                    {
                        "number": 64,
                        "time": 102.56385475624926,
                        "value": 1
                    },
                    {
                        "number": 64,
                        "time": 102.75434189374926,
                        "value": 0
                    },
                    {
                        "number": 64,
                        "time": 102.78897591874926,
                        "value": 1
                    },
                    {
                        "number": 64,
                        "time": 103.20939449999928,
                        "value": 0
                    },
                    {
                        "number": 64,
                        "time": 103.26038348124928,
                        "value": 1
                    },
                    {
                        "number": 64,
                        "time": 103.44702239374928,
                        "value": 0
                    },
                    {
                        "number": 64,
                        "time": 103.50474576874927,
                        "value": 1
                    },
                    {
                        "number": 64,
                        "time": 103.90207499999929,
                        "value": 0
                    },
                    {
                        "number": 64,
                        "time": 109.45025339374915,
                        "value": 0
                    },
                    {
                        "number": 64,
                        "time": 109.53202817499916,
                        "value": 1
                    },
                    {
                        "number": 64,
                        "time": 109.69269156874915,
                        "value": 0
                    },
                    {
                        "number": 64,
                        "time": 109.77639046249915,
                        "value": 1
                    },
                    {
                        "number": 64,
                        "time": 110.13619949999917,
                        "value": 0
                    },
                    {
                        "number": 64,
                        "time": 110.91738917499914,
                        "value": 1
                    },
                    {
                        "number": 64,
                        "time": 111.07805256874914,
                        "value": 0
                    },
                    {
                        "number": 64,
                        "time": 111.16175146249914,
                        "value": 1
                    },
                    {
                        "number": 64,
                        "time": 111.52156049999915,
                        "value": 0
                    },
                    {
                        "number": 64,
                        "time": 112.30275017499913,
                        "value": 1
                    },
                    {
                        "number": 64,
                        "time": 112.46341356874913,
                        "value": 0
                    },
                    {
                        "number": 64,
                        "time": 112.54711246249913,
                        "value": 1
                    },
                    {
                        "number": 64,
                        "time": 112.90692149999914,
                        "value": 0
                    },
                    {
                        "number": 64,
                        "time": 113.62653957499914,
                        "value": 1
                    },
                    {
                        "number": 64,
                        "time": 114.29228249999915,
                        "value": 0
                    },
                    {
                        "number": 64,
                        "time": 114.99169739374915,
                        "value": 1
                    },
                    {
                        "number": 64,
                        "time": 115.67764349999914,
                        "value": 0
                    },
                    {
                        "number": 64,
                        "time": 116.39052718124914,
                        "value": 1
                    },
                    {
                        "number": 64,
                        "time": 117.14189311249912,
                        "value": 0
                    },
                    {
                        "number": 64,
                        "time": 117.75568499999912,
                        "value": 1
                    },
                    {
                        "number": 64,
                        "time": 118.4955062562491,
                        "value": 0
                    },
                    {
                        "number": 64,
                        "time": 119.14104599999911,
                        "value": 1
                    },
                    {
                        "number": 64,
                        "time": 119.83372649999909,
                        "value": 0
                    },
                    {
                        "number": 64,
                        "time": 120.5533445749991,
                        "value": 1
                    },
                    {
                        "number": 64,
                        "time": 121.2190874999991,
                        "value": 0
                    },
                    {
                        "number": 64,
                        "time": 121.91850239374911,
                        "value": 1
                    },
                    {
                        "number": 64,
                        "time": 122.6044484999991,
                        "value": 0
                    },
                    {
                        "number": 64,
                        "time": 123.3173321812491,
                        "value": 1
                    },
                    {
                        "number": 64,
                        "time": 124.06869811249908,
                        "value": 0
                    },
                    {
                        "number": 64,
                        "time": 124.68248999999908,
                        "value": 1
                    },
                    {
                        "number": 64,
                        "time": 125.42231125624906,
                        "value": 0
                    },
                    {
                        "number": 64,
                        "time": 126.06785099999907,
                        "value": 1
                    },
                    {
                        "number": 64,
                        "time": 126.76053149999905,
                        "value": 0
                    },
                    {
                        "number": 64,
                        "time": 127.45994639374906,
                        "value": 1
                    },
                    {
                        "number": 64,
                        "time": 128.14589249999906,
                        "value": 0
                    },
                    {
                        "number": 64,
                        "time": 128.92034778124906,
                        "value": 1
                    },
                    {
                        "number": 64,
                        "time": 129.53125349999908,
                        "value": 0
                    },
                    {
                        "number": 64,
                        "time": 130.33264635624909,
                        "value": 1
                    },
                    {
                        "number": 64,
                        "time": 130.9166144999991,
                        "value": 0
                    },
                    {
                        "number": 64,
                        "time": 131.7180073562491,
                        "value": 1
                    },
                    {
                        "number": 64,
                        "time": 132.30197549999906,
                        "value": 0
                    },
                    {
                        "number": 64,
                        "time": 133.01485918124905,
                        "value": 1
                    },
                    {
                        "number": 64,
                        "time": 133.7662251124991,
                        "value": 0
                    },
                    {
                        "number": 64,
                        "time": 134.4002201812491,
                        "value": 1
                    },
                    {
                        "number": 64,
                        "time": 135.15158611249913,
                        "value": 0
                    },
                    {
                        "number": 64,
                        "time": 135.78558118124914,
                        "value": 1
                    },
                    {
                        "number": 64,
                        "time": 136.53694711249918,
                        "value": 0
                    },
                    {
                        "number": 64,
                        "time": 137.15073899999916,
                        "value": 1
                    },
                    {
                        "number": 64,
                        "time": 137.8905602562492,
                        "value": 0
                    },
                    {
                        "number": 64,
                        "time": 138.53609999999918,
                        "value": 1
                    },
                    {
                        "number": 64,
                        "time": 139.2287804999992,
                        "value": 0
                    },
                    {
                        "number": 64,
                        "time": 139.92819539374915,
                        "value": 1
                    },
                    {
                        "number": 64,
                        "time": 140.61414149999916,
                        "value": 0
                    },
                    {
                        "number": 64,
                        "time": 141.38859678124916,
                        "value": 1
                    },
                    {
                        "number": 64,
                        "time": 141.99950249999918,
                        "value": 0
                    },
                    {
                        "number": 64,
                        "time": 142.80089535624919,
                        "value": 1
                    },
                    {
                        "number": 64,
                        "time": 143.3848634999992,
                        "value": 0
                    },
                    {
                        "number": 64,
                        "time": 144.1862563562492,
                        "value": 1
                    },
                    {
                        "number": 64,
                        "time": 144.77022449999916,
                        "value": 0
                    },
                    {
                        "number": 64,
                        "time": 145.48310818124915,
                        "value": 1
                    },
                    {
                        "number": 64,
                        "time": 146.23447411249919,
                        "value": 0
                    },
                    {
                        "number": 64,
                        "time": 146.8684691812492,
                        "value": 1
                    },
                    {
                        "number": 64,
                        "time": 147.61983511249923,
                        "value": 0
                    },
                    {
                        "number": 64,
                        "time": 148.25383018124924,
                        "value": 1
                    },
                    {
                        "number": 64,
                        "time": 149.00519611249928,
                        "value": 0
                    },
                    {
                        "number": 64,
                        "time": 149.61898799999926,
                        "value": 1
                    },
                    {
                        "number": 64,
                        "time": 150.3588092562493,
                        "value": 0
                    },
                    {
                        "number": 64,
                        "time": 151.00434899999928,
                        "value": 1
                    },
                    {
                        "number": 64,
                        "time": 151.9538985187493,
                        "value": 0
                    },
                    {
                        "number": 64,
                        "time": 152.3897099999993,
                        "value": 1
                    },
                    {
                        "number": 64,
                        "time": 152.62733789374929,
                        "value": 0
                    },
                    {
                        "number": 64,
                        "time": 152.6610098624993,
                        "value": 1
                    },
                    {
                        "number": 64,
                        "time": 152.85149699999928,
                        "value": 0
                    },
                    {
                        "number": 64,
                        "time": 152.8784345749993,
                        "value": 1
                    },
                    {
                        "number": 64,
                        "time": 153.0823904999993,
                        "value": 0
                    },
                    {
                        "number": 64,
                        "time": 153.1295312562493,
                        "value": 1
                    },
                    {
                        "number": 64,
                        "time": 153.33348718124927,
                        "value": 0
                    },
                    {
                        "number": 64,
                        "time": 153.36715914999928,
                        "value": 1
                    },
                    {
                        "number": 64,
                        "time": 153.77507099999926,
                        "value": 0
                    },
                    {
                        "number": 64,
                        "time": 153.82221175624926,
                        "value": 1
                    },
                    {
                        "number": 64,
                        "time": 154.01173683749923,
                        "value": 0
                    },
                    {
                        "number": 64,
                        "time": 154.08100488749923,
                        "value": 1
                    },
                    {
                        "number": 64,
                        "time": 154.4946890749992,
                        "value": 0
                    },
                    {
                        "number": 64,
                        "time": 155.22681388124917,
                        "value": 1
                    },
                    {
                        "number": 64,
                        "time": 155.61163638124916,
                        "value": 0
                    },
                    {
                        "number": 64,
                        "time": 155.86369511874912,
                        "value": 1
                    },
                    {
                        "number": 64,
                        "time": 156.33510268124908,
                        "value": 0
                    },
                    {
                        "number": 64,
                        "time": 156.59293375624907,
                        "value": 1
                    },
                    {
                        "number": 64,
                        "time": 156.78053472499906,
                        "value": 0
                    },
                    {
                        "number": 64,
                        "time": 156.83440987499907,
                        "value": 1
                    },
                    {
                        "number": 64,
                        "time": 157.23847349999903,
                        "value": 0
                    },
                    {
                        "number": 64,
                        "time": 157.28946248124902,
                        "value": 1
                    },
                    {
                        "number": 64,
                        "time": 157.47610139374902,
                        "value": 0
                    },
                    {
                        "number": 64,
                        "time": 157.527090374999,
                        "value": 1
                    },
                    {
                        "number": 64,
                        "time": 157.93115399999897,
                        "value": 0
                    },
                    {
                        "number": 64,
                        "time": 163.5207008124989,
                        "value": 1
                    },
                    {
                        "number": 64,
                        "time": 163.70926383749887,
                        "value": 0
                    },
                    {
                        "number": 64,
                        "time": 163.73139113124887,
                        "value": 1
                    },
                    {
                        "number": 64,
                        "time": 163.94400556249886,
                        "value": 0
                    },
                    {
                        "number": 64,
                        "time": 163.98152575624886,
                        "value": 1
                    },
                    {
                        "number": 64,
                        "time": 164.16527849999883,
                        "value": 0
                    },
                    {
                        "number": 64,
                        "time": 164.17970934374884,
                        "value": 0
                    },
                    {
                        "number": 64,
                        "time": 164.21338131249885,
                        "value": 1
                    },
                    {
                        "number": 64,
                        "time": 164.40386844999884,
                        "value": 0
                    },
                    {
                        "number": 64,
                        "time": 164.43369219374884,
                        "value": 1
                    },
                    {
                        "number": 64,
                        "time": 164.64438251249882,
                        "value": 0
                    },
                    {
                        "number": 64,
                        "time": 164.67420625624882,
                        "value": 1
                    },
                    {
                        "number": 64,
                        "time": 164.8579589999988,
                        "value": 0
                    },
                    {
                        "number": 64,
                        "time": 164.8723898437488,
                        "value": 0
                    },
                    {
                        "number": 64,
                        "time": 164.90606181249882,
                        "value": 1
                    },
                    {
                        "number": 64,
                        "time": 165.09270072499882,
                        "value": 0
                    },
                    {
                        "number": 64,
                        "time": 165.1436897062488,
                        "value": 1
                    },
                    {
                        "number": 64,
                        "time": 165.55063949999877,
                        "value": 0
                    },
                    {
                        "number": 64,
                        "time": 165.56507034374877,
                        "value": 0
                    },
                    {
                        "number": 64,
                        "time": 165.59874231249879,
                        "value": 1
                    },
                    {
                        "number": 64,
                        "time": 165.78730533749876,
                        "value": 0
                    },
                    {
                        "number": 64,
                        "time": 165.86426983749877,
                        "value": 1
                    },
                    {
                        "number": 64,
                        "time": 166.24331999999873,
                        "value": 0
                    },
                    {
                        "number": 64,
                        "time": 169.0688792062488,
                        "value": 1
                    },
                    {
                        "number": 64,
                        "time": 169.25263194999877,
                        "value": 0
                    },
                    {
                        "number": 64,
                        "time": 169.27860746874876,
                        "value": 1
                    },
                    {
                        "number": 64,
                        "time": 169.48737367499876,
                        "value": 0
                    },
                    {
                        "number": 64,
                        "time": 169.51142508124877,
                        "value": 1
                    },
                    {
                        "number": 64,
                        "time": 169.70672249999876,
                        "value": 0
                    },
                    {
                        "number": 64,
                        "time": 169.72115334374877,
                        "value": 0
                    },
                    {
                        "number": 64,
                        "time": 169.75482531249878,
                        "value": 1
                    },
                    {
                        "number": 64,
                        "time": 169.94531244999877,
                        "value": 0
                    },
                    {
                        "number": 64,
                        "time": 169.97225002499877,
                        "value": 1
                    },
                    {
                        "number": 64,
                        "time": 170.18197828749874,
                        "value": 0
                    },
                    {
                        "number": 64,
                        "time": 170.23296726874872,
                        "value": 1
                    },
                    {
                        "number": 64,
                        "time": 170.3994029999987,
                        "value": 0
                    },
                    {
                        "number": 64,
                        "time": 170.4138338437487,
                        "value": 0
                    },
                    {
                        "number": 64,
                        "time": 170.44750581249872,
                        "value": 1
                    },
                    {
                        "number": 64,
                        "time": 170.64665145624872,
                        "value": 0
                    },
                    {
                        "number": 64,
                        "time": 170.7072609999987,
                        "value": 1
                    },
                    {
                        "number": 64,
                        "time": 171.09208349999867,
                        "value": 0
                    },
                    {
                        "number": 64,
                        "time": 171.10651434374867,
                        "value": 0
                    },
                    {
                        "number": 64,
                        "time": 171.14018631249868,
                        "value": 1
                    },
                    {
                        "number": 64,
                        "time": 171.32874933749866,
                        "value": 0
                    },
                    {
                        "number": 64,
                        "time": 171.40475178124868,
                        "value": 1
                    },
                    {
                        "number": 64,
                        "time": 171.78476399999866,
                        "value": 0
                    },
                    {
                        "number": 64,
                        "time": 180.09692999999888,
                        "value": 0
                    },
                    {
                        "number": 64,
                        "time": 180.35860929999888,
                        "value": 1
                    },
                    {
                        "number": 64,
                        "time": 180.7896104999989,
                        "value": 0
                    },
                    {
                        "number": 64,
                        "time": 180.8338650874989,
                        "value": 1
                    },
                    {
                        "number": 64,
                        "time": 181.0387830687489,
                        "value": 0
                    },
                    {
                        "number": 64,
                        "time": 181.1195957937489,
                        "value": 1
                    },
                    {
                        "number": 64,
                        "time": 181.48229099999892,
                        "value": 0
                    },
                    {
                        "number": 64,
                        "time": 181.5207732499989,
                        "value": 1
                    },
                    {
                        "number": 64,
                        "time": 181.72665328749892,
                        "value": 0
                    },
                    {
                        "number": 64,
                        "time": 181.7795663812489,
                        "value": 1
                    },
                    {
                        "number": 64,
                        "time": 182.17497149999892,
                        "value": 0
                    },
                    {
                        "number": 64,
                        "time": 182.86765199999894,
                        "value": 0
                    },
                    {
                        "number": 64,
                        "time": 188.4090959999991,
                        "value": 0
                    },
                    {
                        "number": 64,
                        "time": 188.6621167937491,
                        "value": 1
                    },
                    {
                        "number": 64,
                        "time": 189.10177649999912,
                        "value": 0
                    },
                    {
                        "number": 64,
                        "time": 189.14603108749913,
                        "value": 1
                    },
                    {
                        "number": 64,
                        "time": 189.34036644999912,
                        "value": 0
                    },
                    {
                        "number": 64,
                        "time": 189.36537991249912,
                        "value": 1
                    },
                    {
                        "number": 64,
                        "time": 189.79445699999914,
                        "value": 0
                    },
                    {
                        "number": 64,
                        "time": 189.83293924999913,
                        "value": 1
                    },
                    {
                        "number": 64,
                        "time": 190.03881928749914,
                        "value": 0
                    },
                    {
                        "number": 64,
                        "time": 190.08018770624915,
                        "value": 1
                    },
                    {
                        "number": 64,
                        "time": 190.48713749999916,
                        "value": 0
                    },
                    {
                        "number": 64,
                        "time": 191.8724984999992,
                        "value": 0
                    },
                    {
                        "number": 64,
                        "time": 192.56517899999923,
                        "value": 0
                    },
                    {
                        "number": 64,
                        "time": 192.60943358749924,
                        "value": 1
                    },
                    {
                        "number": 64,
                        "time": 192.80954128749923,
                        "value": 0
                    },
                    {
                        "number": 64,
                        "time": 192.86245438124922,
                        "value": 1
                    },
                    {
                        "number": 64,
                        "time": 193.25785949999923,
                        "value": 0
                    },
                    {
                        "number": 64,
                        "time": 195.3359009999993,
                        "value": 0
                    },
                    {
                        "number": 64,
                        "time": 196.02858149999932,
                        "value": 0
                    },
                    {
                        "number": 64,
                        "time": 196.07283608749933,
                        "value": 1
                    },
                    {
                        "number": 64,
                        "time": 196.27775406874932,
                        "value": 0
                    },
                    {
                        "number": 64,
                        "time": 196.31431220624933,
                        "value": 1
                    },
                    {
                        "number": 64,
                        "time": 196.72126199999934,
                        "value": 0
                    },
                    {
                        "number": 64,
                        "time": 198.14510524999938,
                        "value": 1
                    },
                    {
                        "number": 64,
                        "time": 198.34617500624935,
                        "value": 0
                    },
                    {
                        "number": 64,
                        "time": 198.39812604374936,
                        "value": 1
                    },
                    {
                        "number": 64,
                        "time": 198.57418233749934,
                        "value": 0
                    },
                    {
                        "number": 64,
                        "time": 198.61266458749932,
                        "value": 1
                    },
                    {
                        "number": 64,
                        "time": 198.79930349999933,
                        "value": 0
                    },
                    {
                        "number": 64,
                        "time": 198.8377857499993,
                        "value": 1
                    },
                    {
                        "number": 64,
                        "time": 199.0359693374993,
                        "value": 0
                    },
                    {
                        "number": 64,
                        "time": 199.09176859999928,
                        "value": 1
                    },
                    {
                        "number": 64,
                        "time": 199.26974900624927,
                        "value": 0
                    },
                    {
                        "number": 64,
                        "time": 199.32266209999926,
                        "value": 1
                    },
                    {
                        "number": 64,
                        "time": 199.49198399999926,
                        "value": 0
                    },
                    {
                        "number": 64,
                        "time": 199.56028999374925,
                        "value": 1
                    },
                    {
                        "number": 64,
                        "time": 199.74115656874923,
                        "value": 0
                    },
                    {
                        "number": 64,
                        "time": 199.79118349374923,
                        "value": 1
                    },
                    {
                        "number": 64,
                        "time": 199.96050539374923,
                        "value": 0
                    },
                    {
                        "number": 64,
                        "time": 199.98744296874924,
                        "value": 1
                    },
                    {
                        "number": 64,
                        "time": 200.18466449999923,
                        "value": 0
                    },
                    {
                        "number": 64,
                        "time": 200.23180525624923,
                        "value": 1
                    },
                    {
                        "number": 64,
                        "time": 200.4290267874992,
                        "value": 0
                    },
                    {
                        "number": 64,
                        "time": 200.5108015687492,
                        "value": 1
                    },
                    {
                        "number": 64,
                        "time": 200.87734499999917,
                        "value": 0
                    },
                    {
                        "number": 64,
                        "time": 200.92448575624917,
                        "value": 1
                    },
                    {
                        "number": 64,
                        "time": 201.11112466874914,
                        "value": 0
                    },
                    {
                        "number": 64,
                        "time": 201.15537925624915,
                        "value": 1
                    },
                    {
                        "number": 64,
                        "time": 201.5969630749991,
                        "value": 0
                    },
                    {
                        "number": 64,
                        "time": 202.32908788124908,
                        "value": 1
                    },
                    {
                        "number": 64,
                        "time": 202.73122739374907,
                        "value": 0
                    },
                    {
                        "number": 64,
                        "time": 203.07756764374906,
                        "value": 1
                    },
                    {
                        "number": 64,
                        "time": 203.42102172499906,
                        "value": 0
                    },
                    {
                        "number": 64,
                        "time": 203.73272794999906,
                        "value": 1
                    },
                    {
                        "number": 64,
                        "time": 204.340747499999,
                        "value": 0
                    },
                    {
                        "number": 64,
                        "time": 204.46966303749898,
                        "value": 1
                    },
                    {
                        "number": 64,
                        "time": 205.03342799999893,
                        "value": 0
                    },
                    {
                        "number": 64,
                        "time": 210.58160639374896,
                        "value": 0
                    },
                    {
                        "number": 64,
                        "time": 210.66338117499896,
                        "value": 1
                    },
                    {
                        "number": 64,
                        "time": 210.82404456874895,
                        "value": 0
                    },
                    {
                        "number": 64,
                        "time": 210.90774346249896,
                        "value": 1
                    },
                    {
                        "number": 64,
                        "time": 211.2675524999989,
                        "value": 0
                    },
                    {
                        "number": 64,
                        "time": 212.04874217499895,
                        "value": 1
                    },
                    {
                        "number": 64,
                        "time": 212.20940556874893,
                        "value": 0
                    },
                    {
                        "number": 64,
                        "time": 212.29310446249895,
                        "value": 1
                    },
                    {
                        "number": 64,
                        "time": 212.6529134999989,
                        "value": 0
                    },
                    {
                        "number": 64,
                        "time": 213.43410317499894,
                        "value": 1
                    },
                    {
                        "number": 64,
                        "time": 213.59476656874892,
                        "value": 0
                    },
                    {
                        "number": 64,
                        "time": 213.67846546249893,
                        "value": 1
                    },
                    {
                        "number": 64,
                        "time": 213.9978681374989,
                        "value": 0
                    },
                    {
                        "number": 64,
                        "time": 217.38623024999887,
                        "value": 0
                    }
                ]
            },
            "id": 2,
            "name": "Piano left",
            "instrumentNumber": 1,
            "instrument": "bright acoustic piano",
            "instrumentFamily": "piano",
            "channelNumber": 0,
            "isPercussion": false
        },
        {
            "startTime": 0,
            "duration": 0,
            "length": 0,
            "notes": [],
            "controlChanges": {},
            "id": 3,
            "name": "Schubert Sonate D960  3. Satz"
        },
        {
            "startTime": 0,
            "duration": 0,
            "length": 0,
            "notes": [],
            "controlChanges": {},
            "id": 4,
            "name": "Copyright  2002 by Bernd Krger"
        },
        {
            "startTime": 0,
            "duration": 0,
            "length": 0,
            "notes": [],
            "controlChanges": {},
            "id": 5,
            "name": "http://www.piano-midi.de"
        },
        {
            "startTime": 0,
            "duration": 0,
            "length": 0,
            "notes": [],
            "controlChanges": {},
            "id": 6,
            "name": "Edition: 2014-03-24"
        },
        {
            "startTime": 0,
            "duration": 0,
            "length": 0,
            "notes": [],
            "controlChanges": {},
            "id": 7,
            "name": "Spur 7"
        },
        {
            "startTime": 0,
            "duration": 0,
            "length": 0,
            "notes": [],
            "controlChanges": {},
            "id": 8,
            "name": "Spur 8"
        },
        {
            "startTime": 0,
            "duration": 0,
            "length": 0,
            "notes": [],
            "controlChanges": {},
            "id": 9,
            "name": "Spur 9"
        }
    ]
}