{
    "header": {
        "PPQ": 480,
        "timeSignature": [
            3,
            4
        ],
        "bpm": 48.67001083718908,
        "name": "Sonate D960, 2. Satz"
    },
    "startTime": 0,
    "duration": 510.3758879999921,
    "tracks": [
        {
            "startTime": 0,
            "duration": 0,
            "length": 0,
            "notes": [],
            "controlChanges": {},
            "id": 0,
            "name": "Sonate D960, 2. Satz"
        },
        {
            "startTime": 0,
            "duration": 505.598819000003,
            "length": 1374,
            "notes": [
                {
                    "name": "E4",
                    "midi": 64,
                    "time": 0,
                    "velocity": 0.25984251968503935,
                    "duration": 2.4655839999999998
                },
                {
                    "name": "G#4",
                    "midi": 68,
                    "time": 0,
                    "velocity": 0.30708661417322836,
                    "duration": 2.4655839999999998
                },
                {
                    "name": "C#5",
                    "midi": 73,
                    "time": 1.8491879999999998,
                    "velocity": 0.2047244094488189,
                    "duration": 0.6163959999999999
                },
                {
                    "name": "E4",
                    "midi": 64,
                    "time": 2.4655839999999998,
                    "velocity": 0.2283464566929134,
                    "duration": 0.9245939999999999
                },
                {
                    "name": "G#4",
                    "midi": 68,
                    "time": 2.4655839999999998,
                    "velocity": 0.2677165354330709,
                    "duration": 0.9245939999999999
                },
                {
                    "name": "F#4",
                    "midi": 66,
                    "time": 3.3901779999999997,
                    "velocity": 0.2677165354330709,
                    "duration": 0.30819799999999997
                },
                {
                    "name": "D#4",
                    "midi": 63,
                    "time": 3.3901779999999997,
                    "velocity": 0.2204724409448819,
                    "duration": 0.30819799999999997
                },
                {
                    "name": "D#4",
                    "midi": 63,
                    "time": 3.6983759999999997,
                    "velocity": 0.2677165354330709,
                    "duration": 2.4655839999999998
                },
                {
                    "name": "F#4",
                    "midi": 66,
                    "time": 3.6983759999999997,
                    "velocity": 0.3228346456692913,
                    "duration": 2.4655839999999998
                },
                {
                    "name": "C#5",
                    "midi": 73,
                    "time": 5.5475639999999995,
                    "velocity": 0.2047244094488189,
                    "duration": 0.6163959999999999
                },
                {
                    "name": "F#4",
                    "midi": 66,
                    "time": 6.163959999999999,
                    "velocity": 0.29133858267716534,
                    "duration": 1.2327919999999999
                },
                {
                    "name": "D#4",
                    "midi": 63,
                    "time": 6.163959999999999,
                    "velocity": 0.2440944881889764,
                    "duration": 1.2327919999999999
                },
                {
                    "name": "A4",
                    "midi": 69,
                    "time": 7.396751999999999,
                    "velocity": 0.3228346456692913,
                    "duration": 2.4655839999999998
                },
                {
                    "name": "F#4",
                    "midi": 66,
                    "time": 7.396751999999999,
                    "velocity": 0.2677165354330709,
                    "duration": 2.4655839999999998
                },
                {
                    "name": "C#5",
                    "midi": 73,
                    "time": 9.24594,
                    "velocity": 0.2204724409448819,
                    "duration": 0.6163959999999999
                },
                {
                    "name": "F#4",
                    "midi": 66,
                    "time": 9.862335999999999,
                    "velocity": 0.2204724409448819,
                    "duration": 0.6163959999999999
                },
                {
                    "name": "A4",
                    "midi": 69,
                    "time": 9.862335999999999,
                    "velocity": 0.25984251968503935,
                    "duration": 0.6163959999999999
                },
                {
                    "name": "G#4",
                    "midi": 68,
                    "time": 10.478731999999999,
                    "velocity": 0.23622047244094488,
                    "duration": 0.3081979999999991
                },
                {
                    "name": "E4",
                    "midi": 64,
                    "time": 10.478731999999999,
                    "velocity": 0.1968503937007874,
                    "duration": 0.3081979999999991
                },
                {
                    "name": "D#4",
                    "midi": 63,
                    "time": 10.786929999999998,
                    "velocity": 0.18110236220472442,
                    "duration": 0.30819800000000086
                },
                {
                    "name": "F#4",
                    "midi": 66,
                    "time": 10.786929999999998,
                    "velocity": 0.2204724409448819,
                    "duration": 0.30819800000000086
                },
                {
                    "name": "G#4",
                    "midi": 68,
                    "time": 11.095127999999999,
                    "velocity": 0.30708661417322836,
                    "duration": 2.4655839999999998
                },
                {
                    "name": "E4",
                    "midi": 64,
                    "time": 11.095127999999999,
                    "velocity": 0.25984251968503935,
                    "duration": 2.4655839999999998
                },
                {
                    "name": "C#5",
                    "midi": 73,
                    "time": 12.944315999999999,
                    "velocity": 0.2204724409448819,
                    "duration": 0.6163959999999999
                },
                {
                    "name": "E4",
                    "midi": 64,
                    "time": 13.560711999999999,
                    "velocity": 0.2283464566929134,
                    "duration": 1.2327919999999999
                },
                {
                    "name": "G#4",
                    "midi": 68,
                    "time": 13.560711999999999,
                    "velocity": 0.2677165354330709,
                    "duration": 1.2327919999999999
                },
                {
                    "name": "F4",
                    "midi": 65,
                    "time": 14.793503999999999,
                    "velocity": 0.2677165354330709,
                    "duration": 2.4655839999999998
                },
                {
                    "name": "B4",
                    "midi": 71,
                    "time": 14.793503999999999,
                    "velocity": 0.3228346456692913,
                    "duration": 2.4655839999999998
                },
                {
                    "name": "C#5",
                    "midi": 73,
                    "time": 16.642691999999997,
                    "velocity": 0.2677165354330709,
                    "duration": 0.6163960000000017
                },
                {
                    "name": "F4",
                    "midi": 65,
                    "time": 17.259088,
                    "velocity": 0.2204724409448819,
                    "duration": 0.30819800000000086
                },
                {
                    "name": "B4",
                    "midi": 71,
                    "time": 17.259088,
                    "velocity": 0.25984251968503935,
                    "duration": 0.6163960000000017
                },
                {
                    "name": "G#4",
                    "midi": 68,
                    "time": 17.567286,
                    "velocity": 0.2204724409448819,
                    "duration": 0.30819800000000086
                },
                {
                    "name": "A4",
                    "midi": 69,
                    "time": 17.875484,
                    "velocity": 0.23622047244094488,
                    "duration": 0.30819800000000086
                },
                {
                    "name": "F#4",
                    "midi": 66,
                    "time": 17.875484,
                    "velocity": 0.1968503937007874,
                    "duration": 0.30819800000000086
                },
                {
                    "name": "G#4",
                    "midi": 68,
                    "time": 18.183682,
                    "velocity": 0.2204724409448819,
                    "duration": 0.30819800000000086
                },
                {
                    "name": "F4",
                    "midi": 65,
                    "time": 18.183682,
                    "velocity": 0.18110236220472442,
                    "duration": 0.30819800000000086
                },
                {
                    "name": "F#4",
                    "midi": 66,
                    "time": 18.491880000000002,
                    "velocity": 0.2677165354330709,
                    "duration": 1.849187999999998
                },
                {
                    "name": "A4",
                    "midi": 69,
                    "time": 18.491880000000002,
                    "velocity": 0.3228346456692913,
                    "duration": 1.849187999999998
                },
                {
                    "name": "C#5",
                    "midi": 73,
                    "time": 20.341068,
                    "velocity": 0.2677165354330709,
                    "duration": 0.5855761999999984
                },
                {
                    "name": "F#4",
                    "midi": 66,
                    "time": 20.341068,
                    "velocity": 0.18110236220472442,
                    "duration": 0.5855761999999984
                },
                {
                    "name": "A4",
                    "midi": 69,
                    "time": 20.341068,
                    "velocity": 0.2204724409448819,
                    "duration": 0.5855761999999984
                },
                {
                    "name": "F#4",
                    "midi": 66,
                    "time": 20.957463999999998,
                    "velocity": 0.2677165354330709,
                    "duration": 0.5855761999999984
                },
                {
                    "name": "A4",
                    "midi": 69,
                    "time": 20.957463999999998,
                    "velocity": 0.31496062992125984,
                    "duration": 0.5855761999999984
                },
                {
                    "name": "A4",
                    "midi": 69,
                    "time": 21.573859999999996,
                    "velocity": 0.3228346456692913,
                    "duration": 0.5855761999999984
                },
                {
                    "name": "F#4",
                    "midi": 66,
                    "time": 21.573859999999996,
                    "velocity": 0.2677165354330709,
                    "duration": 0.5855761999999984
                },
                {
                    "name": "C#5",
                    "midi": 73,
                    "time": 22.190255999999994,
                    "velocity": 0.3858267716535433,
                    "duration": 2.4655840000000033
                },
                {
                    "name": "A4",
                    "midi": 69,
                    "time": 22.190255999999994,
                    "velocity": 0.3228346456692913,
                    "duration": 2.4655840000000033
                },
                {
                    "name": "C#5",
                    "midi": 73,
                    "time": 24.039443999999996,
                    "velocity": 0.2992125984251969,
                    "duration": 0.6163960000000017
                },
                {
                    "name": "A4",
                    "midi": 69,
                    "time": 24.655839999999998,
                    "velocity": 0.25984251968503935,
                    "duration": 0.924593999999999
                },
                {
                    "name": "C#5",
                    "midi": 73,
                    "time": 24.655839999999998,
                    "velocity": 0.30708661417322836,
                    "duration": 0.924593999999999
                },
                {
                    "name": "A4",
                    "midi": 69,
                    "time": 25.580433999999997,
                    "velocity": 0.2204724409448819,
                    "duration": 0.30819800000000086
                },
                {
                    "name": "F#4",
                    "midi": 66,
                    "time": 25.580433999999997,
                    "velocity": 0.18110236220472442,
                    "duration": 0.30819800000000086
                },
                {
                    "name": "E4",
                    "midi": 64,
                    "time": 25.888631999999998,
                    "velocity": 0.23622047244094488,
                    "duration": 3.081980000000005
                },
                {
                    "name": "G#4",
                    "midi": 68,
                    "time": 25.888631999999998,
                    "velocity": 0.29133858267716534,
                    "duration": 3.081980000000005
                },
                {
                    "name": "C#5",
                    "midi": 73,
                    "time": 27.73782,
                    "velocity": 0.2204724409448819,
                    "duration": 0.6163960000000017
                },
                {
                    "name": "E4",
                    "midi": 64,
                    "time": 28.970612000000003,
                    "velocity": 0.2677165354330709,
                    "duration": 0.6163960000000017
                },
                {
                    "name": "G#4",
                    "midi": 68,
                    "time": 28.970612000000003,
                    "velocity": 0.3228346456692913,
                    "duration": 0.6163960000000017
                },
                {
                    "name": "E4",
                    "midi": 64,
                    "time": 29.587008000000004,
                    "velocity": 0.33070866141732286,
                    "duration": 0.924593999999999
                },
                {
                    "name": "A4",
                    "midi": 69,
                    "time": 29.587008000000004,
                    "velocity": 0.33070866141732286,
                    "duration": 0.924593999999999
                },
                {
                    "name": "C#5",
                    "midi": 73,
                    "time": 29.587008000000004,
                    "velocity": 0.3937007874015748,
                    "duration": 0.924593999999999
                },
                {
                    "name": "C5",
                    "midi": 72,
                    "time": 30.511602000000003,
                    "velocity": 0.3464566929133858,
                    "duration": 0.30819800000000086
                },
                {
                    "name": "D#4",
                    "midi": 63,
                    "time": 30.511602000000003,
                    "velocity": 0.29133858267716534,
                    "duration": 0.30819800000000086
                },
                {
                    "name": "G#4",
                    "midi": 68,
                    "time": 30.511602000000003,
                    "velocity": 0.29133858267716534,
                    "duration": 0.30819800000000086
                },
                {
                    "name": "D#4",
                    "midi": 63,
                    "time": 30.819800000000004,
                    "velocity": 0.33070866141732286,
                    "duration": 1.8491880000000016
                },
                {
                    "name": "G#4",
                    "midi": 68,
                    "time": 30.819800000000004,
                    "velocity": 0.33070866141732286,
                    "duration": 1.8491880000000016
                },
                {
                    "name": "C5",
                    "midi": 72,
                    "time": 30.819800000000004,
                    "velocity": 0.3858267716535433,
                    "duration": 1.8491880000000016
                },
                {
                    "name": "G#5",
                    "midi": 80,
                    "time": 31.436196000000002,
                    "velocity": 0.33858267716535434,
                    "duration": 0.6163960000000017
                },
                {
                    "name": "C5",
                    "midi": 72,
                    "time": 32.668988000000006,
                    "velocity": 0.4330708661417323,
                    "duration": 0.6163960000000017
                },
                {
                    "name": "G#4",
                    "midi": 68,
                    "time": 32.668988000000006,
                    "velocity": 0.3543307086614173,
                    "duration": 0.6163960000000017
                },
                {
                    "name": "G4",
                    "midi": 67,
                    "time": 33.28538400000001,
                    "velocity": 0.4015748031496063,
                    "duration": 0.924593999999999
                },
                {
                    "name": "C#5",
                    "midi": 73,
                    "time": 33.28538400000001,
                    "velocity": 0.4015748031496063,
                    "duration": 0.924593999999999
                },
                {
                    "name": "E5",
                    "midi": 76,
                    "time": 33.28538400000001,
                    "velocity": 0.47244094488188976,
                    "duration": 0.924593999999999
                },
                {
                    "name": "C5",
                    "midi": 72,
                    "time": 34.20997800000001,
                    "velocity": 0.3543307086614173,
                    "duration": 0.3081979999999973
                },
                {
                    "name": "G#4",
                    "midi": 68,
                    "time": 34.20997800000001,
                    "velocity": 0.3543307086614173,
                    "duration": 0.3081979999999973
                },
                {
                    "name": "D#5",
                    "midi": 75,
                    "time": 34.20997800000001,
                    "velocity": 0.41732283464566927,
                    "duration": 0.3081979999999973
                },
                {
                    "name": "G#4",
                    "midi": 68,
                    "time": 34.518176000000004,
                    "velocity": 0.3937007874015748,
                    "duration": 1.8491880000000052
                },
                {
                    "name": "D#5",
                    "midi": 75,
                    "time": 34.518176000000004,
                    "velocity": 0.47244094488188976,
                    "duration": 1.8491880000000052
                },
                {
                    "name": "C5",
                    "midi": 72,
                    "time": 34.518176000000004,
                    "velocity": 0.3937007874015748,
                    "duration": 1.8491880000000052
                },
                {
                    "name": "G#5",
                    "midi": 80,
                    "time": 35.134572000000006,
                    "velocity": 0.41732283464566927,
                    "duration": 0.6163960000000017
                },
                {
                    "name": "G#4",
                    "midi": 68,
                    "time": 36.36736400000001,
                    "velocity": 0.4094488188976378,
                    "duration": 0.6163960000000017
                },
                {
                    "name": "C5",
                    "midi": 72,
                    "time": 36.36736400000001,
                    "velocity": 0.4094488188976378,
                    "duration": 0.6163960000000017
                },
                {
                    "name": "D#5",
                    "midi": 75,
                    "time": 36.36736400000001,
                    "velocity": 0.49606299212598426,
                    "duration": 0.6163960000000017
                },
                {
                    "name": "G#5",
                    "midi": 80,
                    "time": 36.98376000000001,
                    "velocity": 0.5433070866141733,
                    "duration": 0.924593999999999
                },
                {
                    "name": "G#4",
                    "midi": 68,
                    "time": 36.98376000000001,
                    "velocity": 0.4566929133858268,
                    "duration": 0.924593999999999
                },
                {
                    "name": "E5",
                    "midi": 76,
                    "time": 36.98376000000001,
                    "velocity": 0.4566929133858268,
                    "duration": 0.924593999999999
                },
                {
                    "name": "A4",
                    "midi": 69,
                    "time": 37.90835400000001,
                    "velocity": 0.4094488188976378,
                    "duration": 0.3081979999999973
                },
                {
                    "name": "D#5",
                    "midi": 75,
                    "time": 37.90835400000001,
                    "velocity": 0.4094488188976378,
                    "duration": 0.3081979999999973
                },
                {
                    "name": "F#5",
                    "midi": 78,
                    "time": 37.90835400000001,
                    "velocity": 0.48031496062992124,
                    "duration": 0.3081979999999973
                },
                {
                    "name": "F#5",
                    "midi": 78,
                    "time": 38.21655200000001,
                    "velocity": 0.5433070866141733,
                    "duration": 1.8491880000000052
                },
                {
                    "name": "D#5",
                    "midi": 75,
                    "time": 38.21655200000001,
                    "velocity": 0.4566929133858268,
                    "duration": 1.8491880000000052
                },
                {
                    "name": "A4",
                    "midi": 69,
                    "time": 38.21655200000001,
                    "velocity": 0.4566929133858268,
                    "duration": 1.8491880000000052
                },
                {
                    "name": "G#5",
                    "midi": 80,
                    "time": 38.83294800000001,
                    "velocity": 0.48031496062992124,
                    "duration": 0.6163960000000017
                },
                {
                    "name": "A4",
                    "midi": 69,
                    "time": 40.06574000000001,
                    "velocity": 0.47244094488188976,
                    "duration": 0.6163960000000017
                },
                {
                    "name": "F#5",
                    "midi": 78,
                    "time": 40.06574000000001,
                    "velocity": 0.5748031496062992,
                    "duration": 0.6163960000000017
                },
                {
                    "name": "D#5",
                    "midi": 75,
                    "time": 40.06574000000001,
                    "velocity": 0.47244094488188976,
                    "duration": 0.6163960000000017
                },
                {
                    "name": "C#5",
                    "midi": 73,
                    "time": 40.682136000000014,
                    "velocity": 0.5354330708661418,
                    "duration": 0.924593999999999
                },
                {
                    "name": "E5",
                    "midi": 76,
                    "time": 40.682136000000014,
                    "velocity": 0.5354330708661418,
                    "duration": 0.924593999999999
                },
                {
                    "name": "A5",
                    "midi": 81,
                    "time": 40.682136000000014,
                    "velocity": 0.6299212598425197,
                    "duration": 0.924593999999999
                },
                {
                    "name": "G#5",
                    "midi": 80,
                    "time": 41.60673000000001,
                    "velocity": 0.5354330708661418,
                    "duration": 0.3081979999999973
                },
                {
                    "name": "D#5",
                    "midi": 75,
                    "time": 41.60673000000001,
                    "velocity": 0.4566929133858268,
                    "duration": 0.3081979999999973
                },
                {
                    "name": "C5",
                    "midi": 72,
                    "time": 41.60673000000001,
                    "velocity": 0.4566929133858268,
                    "duration": 0.3081979999999973
                },
                {
                    "name": "C5",
                    "midi": 72,
                    "time": 41.91492800000001,
                    "velocity": 0.5118110236220472,
                    "duration": 6.163959999999996
                },
                {
                    "name": "D#5",
                    "midi": 75,
                    "time": 41.91492800000001,
                    "velocity": 0.5118110236220472,
                    "duration": 6.163959999999996
                },
                {
                    "name": "G#5",
                    "midi": 80,
                    "time": 41.91492800000001,
                    "velocity": 0.6062992125984252,
                    "duration": 6.163959999999996
                },
                {
                    "name": "E5",
                    "midi": 76,
                    "time": 48.078888000000006,
                    "velocity": 0.2677165354330709,
                    "duration": 3.0819800000000015
                },
                {
                    "name": "G#5",
                    "midi": 80,
                    "time": 48.078888000000006,
                    "velocity": 0.3228346456692913,
                    "duration": 3.0819800000000015
                },
                {
                    "name": "B4",
                    "midi": 71,
                    "time": 48.078888000000006,
                    "velocity": 0.2677165354330709,
                    "duration": 3.0819800000000015
                },
                {
                    "name": "G#4",
                    "midi": 68,
                    "time": 48.078888000000006,
                    "velocity": 0.2677165354330709,
                    "duration": 3.0819800000000015
                },
                {
                    "name": "E6",
                    "midi": 88,
                    "time": 49.928076000000004,
                    "velocity": 0.2755905511811024,
                    "duration": 0.6163960000000017
                },
                {
                    "name": "E5",
                    "midi": 76,
                    "time": 51.16086800000001,
                    "velocity": 0.29133858267716534,
                    "duration": 0.6163960000000017
                },
                {
                    "name": "B4",
                    "midi": 71,
                    "time": 51.16086800000001,
                    "velocity": 0.23622047244094488,
                    "duration": 0.6163960000000017
                },
                {
                    "name": "E4",
                    "midi": 64,
                    "time": 51.16086800000001,
                    "velocity": 0.23622047244094488,
                    "duration": 0.6163960000000017
                },
                {
                    "name": "E4",
                    "midi": 64,
                    "time": 51.77726400000001,
                    "velocity": 0.2677165354330709,
                    "duration": 1.2327919999999963
                },
                {
                    "name": "A4",
                    "midi": 69,
                    "time": 51.77726400000001,
                    "velocity": 0.2677165354330709,
                    "duration": 1.2327919999999963
                },
                {
                    "name": "D#5",
                    "midi": 75,
                    "time": 51.77726400000001,
                    "velocity": 0.3228346456692913,
                    "duration": 0.924593999999999
                },
                {
                    "name": "C#5",
                    "midi": 73,
                    "time": 52.70185800000001,
                    "velocity": 0.3228346456692913,
                    "duration": 0.3081979999999973
                },
                {
                    "name": "A4",
                    "midi": 69,
                    "time": 53.010056000000006,
                    "velocity": 0.2677165354330709,
                    "duration": 1.8491880000000052
                },
                {
                    "name": "E4",
                    "midi": 64,
                    "time": 53.010056000000006,
                    "velocity": 0.2677165354330709,
                    "duration": 1.8491880000000052
                },
                {
                    "name": "C#5",
                    "midi": 73,
                    "time": 53.010056000000006,
                    "velocity": 0.3228346456692913,
                    "duration": 1.8491880000000052
                },
                {
                    "name": "C#6",
                    "midi": 85,
                    "time": 53.62645200000001,
                    "velocity": 0.2677165354330709,
                    "duration": 0.6163960000000017
                },
                {
                    "name": "C#5",
                    "midi": 73,
                    "time": 54.85924400000001,
                    "velocity": 0.29133858267716534,
                    "duration": 0.6163960000000017
                },
                {
                    "name": "A4",
                    "midi": 69,
                    "time": 54.85924400000001,
                    "velocity": 0.23622047244094488,
                    "duration": 0.6163960000000017
                },
                {
                    "name": "E4",
                    "midi": 64,
                    "time": 54.85924400000001,
                    "velocity": 0.23622047244094488,
                    "duration": 0.6163960000000017
                },
                {
                    "name": "E4",
                    "midi": 64,
                    "time": 55.47564000000001,
                    "velocity": 0.2677165354330709,
                    "duration": 0.924593999999999
                },
                {
                    "name": "F#4",
                    "midi": 66,
                    "time": 55.47564000000001,
                    "velocity": 0.2677165354330709,
                    "duration": 1.2327919999999963
                },
                {
                    "name": "C#5",
                    "midi": 73,
                    "time": 55.47564000000001,
                    "velocity": 0.3228346456692913,
                    "duration": 0.924593999999999
                },
                {
                    "name": "B4",
                    "midi": 71,
                    "time": 56.40023400000001,
                    "velocity": 0.3228346456692913,
                    "duration": 0.3081979999999973
                },
                {
                    "name": "D#4",
                    "midi": 63,
                    "time": 56.40023400000001,
                    "velocity": 0.2992125984251969,
                    "duration": 0.3081979999999973
                },
                {
                    "name": "D#4",
                    "midi": 63,
                    "time": 56.70843200000001,
                    "velocity": 0.2677165354330709,
                    "duration": 1.8491880000000052
                },
                {
                    "name": "F#4",
                    "midi": 66,
                    "time": 56.70843200000001,
                    "velocity": 0.2677165354330709,
                    "duration": 1.8491880000000052
                },
                {
                    "name": "B4",
                    "midi": 71,
                    "time": 56.70843200000001,
                    "velocity": 0.3228346456692913,
                    "duration": 1.8491880000000052
                },
                {
                    "name": "B5",
                    "midi": 83,
                    "time": 57.32482800000001,
                    "velocity": 0.23622047244094488,
                    "duration": 0.6163960000000017
                },
                {
                    "name": "A4",
                    "midi": 69,
                    "time": 58.557620000000014,
                    "velocity": 0.2677165354330709,
                    "duration": 0.6163960000000017
                },
                {
                    "name": "E4",
                    "midi": 64,
                    "time": 58.557620000000014,
                    "velocity": 0.2204724409448819,
                    "duration": 0.6163960000000017
                },
                {
                    "name": "C#4",
                    "midi": 61,
                    "time": 58.557620000000014,
                    "velocity": 0.2204724409448819,
                    "duration": 0.6163960000000017
                },
                {
                    "name": "B3",
                    "midi": 59,
                    "time": 59.174016000000016,
                    "velocity": 0.2204724409448819,
                    "duration": 1.2327919999999963
                },
                {
                    "name": "E4",
                    "midi": 64,
                    "time": 59.174016000000016,
                    "velocity": 0.2204724409448819,
                    "duration": 1.2327919999999963
                },
                {
                    "name": "G#4",
                    "midi": 68,
                    "time": 59.174016000000016,
                    "velocity": 0.2677165354330709,
                    "duration": 1.2327919999999963
                },
                {
                    "name": "B3",
                    "midi": 59,
                    "time": 60.40680800000001,
                    "velocity": 0.1968503937007874,
                    "duration": 2.465584000000007
                },
                {
                    "name": "G#3",
                    "midi": 56,
                    "time": 60.40680800000001,
                    "velocity": 0.1968503937007874,
                    "duration": 2.465584000000007
                },
                {
                    "name": "E4",
                    "midi": 64,
                    "time": 60.40680800000001,
                    "velocity": 0.23622047244094488,
                    "duration": 2.465584000000007
                },
                {
                    "name": "E5",
                    "midi": 76,
                    "time": 61.023204000000014,
                    "velocity": 0.2125984251968504,
                    "duration": 0.6163960000000017
                },
                {
                    "name": "G#4",
                    "midi": 68,
                    "time": 62.87239200000002,
                    "velocity": 0.30708661417322836,
                    "duration": 2.4655839999999927
                },
                {
                    "name": "E4",
                    "midi": 64,
                    "time": 62.87239200000002,
                    "velocity": 0.25984251968503935,
                    "duration": 2.4655839999999927
                },
                {
                    "name": "B4",
                    "midi": 71,
                    "time": 64.72158000000002,
                    "velocity": 0.2125984251968504,
                    "duration": 0.6163959999999946
                },
                {
                    "name": "E4",
                    "midi": 64,
                    "time": 65.33797600000001,
                    "velocity": 0.2283464566929134,
                    "duration": 0.924593999999999
                },
                {
                    "name": "G#4",
                    "midi": 68,
                    "time": 65.33797600000001,
                    "velocity": 0.2677165354330709,
                    "duration": 0.924593999999999
                },
                {
                    "name": "D#4",
                    "midi": 63,
                    "time": 66.26257000000001,
                    "velocity": 0.2204724409448819,
                    "duration": 0.3081980000000044
                },
                {
                    "name": "F#4",
                    "midi": 66,
                    "time": 66.26257000000001,
                    "velocity": 0.2677165354330709,
                    "duration": 0.3081980000000044
                },
                {
                    "name": "F#4",
                    "midi": 66,
                    "time": 66.57076800000002,
                    "velocity": 0.3228346456692913,
                    "duration": 2.4655839999999927
                },
                {
                    "name": "D#4",
                    "midi": 63,
                    "time": 66.57076800000002,
                    "velocity": 0.2677165354330709,
                    "duration": 2.4655839999999927
                },
                {
                    "name": "B4",
                    "midi": 71,
                    "time": 68.41995600000001,
                    "velocity": 0.2125984251968504,
                    "duration": 0.6163959999999946
                },
                {
                    "name": "D#4",
                    "midi": 63,
                    "time": 69.03635200000001,
                    "velocity": 0.2440944881889764,
                    "duration": 1.2327920000000034
                },
                {
                    "name": "F#4",
                    "midi": 66,
                    "time": 69.03635200000001,
                    "velocity": 0.29133858267716534,
                    "duration": 1.2327920000000034
                },
                {
                    "name": "C#4",
                    "midi": 61,
                    "time": 70.26914400000001,
                    "velocity": 0.2677165354330709,
                    "duration": 2.4655839999999927
                },
                {
                    "name": "A4",
                    "midi": 69,
                    "time": 70.26914400000001,
                    "velocity": 0.3228346456692913,
                    "duration": 2.4655839999999927
                },
                {
                    "name": "B4",
                    "midi": 71,
                    "time": 72.11833200000001,
                    "velocity": 0.2125984251968504,
                    "duration": 0.6163959999999946
                },
                {
                    "name": "D#4",
                    "midi": 63,
                    "time": 72.734728,
                    "velocity": 0.2204724409448819,
                    "duration": 0.3081980000000044
                },
                {
                    "name": "A4",
                    "midi": 69,
                    "time": 72.734728,
                    "velocity": 0.25984251968503935,
                    "duration": 0.6163960000000088
                },
                {
                    "name": "F#4",
                    "midi": 66,
                    "time": 73.04292600000001,
                    "velocity": 0.1889763779527559,
                    "duration": 0.3081980000000044
                },
                {
                    "name": "G#4",
                    "midi": 68,
                    "time": 73.35112400000001,
                    "velocity": 0.23622047244094488,
                    "duration": 0.3081980000000044
                },
                {
                    "name": "E4",
                    "midi": 64,
                    "time": 73.35112400000001,
                    "velocity": 0.1968503937007874,
                    "duration": 0.3081980000000044
                },
                {
                    "name": "D#4",
                    "midi": 63,
                    "time": 73.65932200000002,
                    "velocity": 0.18110236220472442,
                    "duration": 0.3081980000000044
                },
                {
                    "name": "F#4",
                    "midi": 66,
                    "time": 73.65932200000002,
                    "velocity": 0.2204724409448819,
                    "duration": 0.3081980000000044
                },
                {
                    "name": "G#4",
                    "midi": 68,
                    "time": 73.96752000000002,
                    "velocity": 0.30708661417322836,
                    "duration": 2.4655839999999927
                },
                {
                    "name": "E4",
                    "midi": 64,
                    "time": 73.96752000000002,
                    "velocity": 0.25984251968503935,
                    "duration": 2.4655839999999927
                },
                {
                    "name": "B4",
                    "midi": 71,
                    "time": 75.81670800000002,
                    "velocity": 0.2047244094488189,
                    "duration": 0.6163959999999946
                },
                {
                    "name": "E4",
                    "midi": 64,
                    "time": 76.43310400000001,
                    "velocity": 0.25196850393700787,
                    "duration": 1.2327920000000034
                },
                {
                    "name": "G#4",
                    "midi": 68,
                    "time": 76.43310400000001,
                    "velocity": 0.2992125984251969,
                    "duration": 1.2327920000000034
                },
                {
                    "name": "D4",
                    "midi": 62,
                    "time": 77.66589600000002,
                    "velocity": 0.33070866141732286,
                    "duration": 2.4655839999999927
                },
                {
                    "name": "B4",
                    "midi": 71,
                    "time": 77.66589600000002,
                    "velocity": 0.3937007874015748,
                    "duration": 2.4655839999999927
                },
                {
                    "name": "G#4",
                    "midi": 68,
                    "time": 77.66589600000002,
                    "velocity": 0.33070866141732286,
                    "duration": 2.4655839999999927
                },
                {
                    "name": "E5",
                    "midi": 76,
                    "time": 79.51508400000002,
                    "velocity": 0.33070866141732286,
                    "duration": 0.6163959999999946
                },
                {
                    "name": "D4",
                    "midi": 62,
                    "time": 80.13148000000001,
                    "velocity": 0.25984251968503935,
                    "duration": 0.924593999999999
                },
                {
                    "name": "G#4",
                    "midi": 68,
                    "time": 80.13148000000001,
                    "velocity": 0.25984251968503935,
                    "duration": 0.924593999999999
                },
                {
                    "name": "B4",
                    "midi": 71,
                    "time": 80.13148000000001,
                    "velocity": 0.30708661417322836,
                    "duration": 0.924593999999999
                },
                {
                    "name": "C#4",
                    "midi": 61,
                    "time": 81.05607400000001,
                    "velocity": 0.2204724409448819,
                    "duration": 0.3081980000000044
                },
                {
                    "name": "A4",
                    "midi": 69,
                    "time": 81.05607400000001,
                    "velocity": 0.2755905511811024,
                    "duration": 0.3081980000000044
                },
                {
                    "name": "A4",
                    "midi": 69,
                    "time": 81.36427200000001,
                    "velocity": 0.3937007874015748,
                    "duration": 1.849187999999998
                },
                {
                    "name": "C#4",
                    "midi": 61,
                    "time": 81.36427200000001,
                    "velocity": 0.33070866141732286,
                    "duration": 1.849187999999998
                },
                {
                    "name": "C#4",
                    "midi": 61,
                    "time": 83.21346000000001,
                    "velocity": 0.2204724409448819,
                    "duration": 0.6163959999999946
                },
                {
                    "name": "A4",
                    "midi": 69,
                    "time": 83.21346000000001,
                    "velocity": 0.2755905511811024,
                    "duration": 0.6163959999999946
                },
                {
                    "name": "E5",
                    "midi": 76,
                    "time": 83.21346000000001,
                    "velocity": 0.33070866141732286,
                    "duration": 0.6163959999999946
                },
                {
                    "name": "A4",
                    "midi": 69,
                    "time": 83.829856,
                    "velocity": 0.3858267716535433,
                    "duration": 0.6163959999999946
                },
                {
                    "name": "C#4",
                    "midi": 61,
                    "time": 83.829856,
                    "velocity": 0.3228346456692913,
                    "duration": 0.6163959999999946
                },
                {
                    "name": "C#4",
                    "midi": 61,
                    "time": 84.446252,
                    "velocity": 0.3228346456692913,
                    "duration": 0.6163959999999946
                },
                {
                    "name": "A4",
                    "midi": 69,
                    "time": 84.446252,
                    "velocity": 0.3937007874015748,
                    "duration": 0.6163959999999946
                },
                {
                    "name": "C#5",
                    "midi": 73,
                    "time": 85.062648,
                    "velocity": 0.4645669291338583,
                    "duration": 2.4655839999999927
                },
                {
                    "name": "A4",
                    "midi": 69,
                    "time": 85.062648,
                    "velocity": 0.3937007874015748,
                    "duration": 2.4655839999999927
                },
                {
                    "name": "D#4",
                    "midi": 63,
                    "time": 85.062648,
                    "velocity": 0.3937007874015748,
                    "duration": 2.4655839999999927
                },
                {
                    "name": "E5",
                    "midi": 76,
                    "time": 86.911836,
                    "velocity": 0.33858267716535434,
                    "duration": 0.6163959999999946
                },
                {
                    "name": "D#4",
                    "midi": 63,
                    "time": 87.52823199999999,
                    "velocity": 0.28346456692913385,
                    "duration": 0.924593999999999
                },
                {
                    "name": "A4",
                    "midi": 69,
                    "time": 87.52823199999999,
                    "velocity": 0.28346456692913385,
                    "duration": 0.924593999999999
                },
                {
                    "name": "C#5",
                    "midi": 73,
                    "time": 87.52823199999999,
                    "velocity": 0.3464566929133858,
                    "duration": 0.924593999999999
                },
                {
                    "name": "G#4",
                    "midi": 68,
                    "time": 88.45282599999999,
                    "velocity": 0.2204724409448819,
                    "duration": 0.29278809999999567
                },
                {
                    "name": "E4",
                    "midi": 64,
                    "time": 88.45282599999999,
                    "velocity": 0.2204724409448819,
                    "duration": 0.29278809999999567
                },
                {
                    "name": "B4",
                    "midi": 71,
                    "time": 88.45282599999999,
                    "velocity": 0.2677165354330709,
                    "duration": 0.29278809999999567
                },
                {
                    "name": "G#4",
                    "midi": 68,
                    "time": 88.76102399999998,
                    "velocity": 0.3228346456692913,
                    "duration": 3.0819799999999873
                },
                {
                    "name": "B4",
                    "midi": 71,
                    "time": 88.76102399999998,
                    "velocity": 0.3858267716535433,
                    "duration": 3.0819799999999873
                },
                {
                    "name": "E4",
                    "midi": 64,
                    "time": 88.76102399999998,
                    "velocity": 0.3228346456692913,
                    "duration": 3.0819799999999873
                },
                {
                    "name": "E5",
                    "midi": 76,
                    "time": 90.61021199999998,
                    "velocity": 0.2677165354330709,
                    "duration": 0.6163959999999946
                },
                {
                    "name": "G#4",
                    "midi": 68,
                    "time": 91.84300399999997,
                    "velocity": 0.33070866141732286,
                    "duration": 0.6163959999999946
                },
                {
                    "name": "E4",
                    "midi": 64,
                    "time": 91.84300399999997,
                    "velocity": 0.33070866141732286,
                    "duration": 0.6163959999999946
                },
                {
                    "name": "B4",
                    "midi": 71,
                    "time": 91.84300399999997,
                    "velocity": 0.4015748031496063,
                    "duration": 0.6163959999999946
                },
                {
                    "name": "E5",
                    "midi": 76,
                    "time": 92.45939999999996,
                    "velocity": 0.48031496062992124,
                    "duration": 0.924593999999999
                },
                {
                    "name": "G#4",
                    "midi": 68,
                    "time": 92.45939999999996,
                    "velocity": 0.4094488188976378,
                    "duration": 0.924593999999999
                },
                {
                    "name": "B4",
                    "midi": 71,
                    "time": 92.45939999999996,
                    "velocity": 0.4094488188976378,
                    "duration": 0.924593999999999
                },
                {
                    "name": "F#4",
                    "midi": 66,
                    "time": 93.38399399999996,
                    "velocity": 0.36220472440944884,
                    "duration": 0.3081980000000044
                },
                {
                    "name": "B4",
                    "midi": 71,
                    "time": 93.38399399999996,
                    "velocity": 0.36220472440944884,
                    "duration": 0.3081980000000044
                },
                {
                    "name": "D#5",
                    "midi": 75,
                    "time": 93.38399399999996,
                    "velocity": 0.4251968503937008,
                    "duration": 0.3081980000000044
                },
                {
                    "name": "D#5",
                    "midi": 75,
                    "time": 93.69219199999996,
                    "velocity": 0.48031496062992124,
                    "duration": 1.8491879999999838
                },
                {
                    "name": "B4",
                    "midi": 71,
                    "time": 93.69219199999996,
                    "velocity": 0.4015748031496063,
                    "duration": 1.8491879999999838
                },
                {
                    "name": "F#4",
                    "midi": 66,
                    "time": 93.69219199999996,
                    "velocity": 0.4015748031496063,
                    "duration": 1.8491879999999838
                },
                {
                    "name": "B5",
                    "midi": 83,
                    "time": 94.30858799999996,
                    "velocity": 0.41732283464566927,
                    "duration": 0.6163959999999946
                },
                {
                    "name": "F#4",
                    "midi": 66,
                    "time": 95.54137999999995,
                    "velocity": 0.4251968503937008,
                    "duration": 0.6163959999999946
                },
                {
                    "name": "D#5",
                    "midi": 75,
                    "time": 95.54137999999995,
                    "velocity": 0.5196850393700787,
                    "duration": 0.6163959999999946
                },
                {
                    "name": "B4",
                    "midi": 71,
                    "time": 95.54137999999995,
                    "velocity": 0.4251968503937008,
                    "duration": 0.6163959999999946
                },
                {
                    "name": "B4",
                    "midi": 71,
                    "time": 96.15777599999994,
                    "velocity": 0.47244094488188976,
                    "duration": 1.2327919999999892
                },
                {
                    "name": "E5",
                    "midi": 76,
                    "time": 96.15777599999994,
                    "velocity": 0.47244094488188976,
                    "duration": 0.924593999999999
                },
                {
                    "name": "G#5",
                    "midi": 80,
                    "time": 96.15777599999994,
                    "velocity": 0.5590551181102362,
                    "duration": 0.924593999999999
                },
                {
                    "name": "F#5",
                    "midi": 78,
                    "time": 97.08236999999994,
                    "velocity": 0.49606299212598426,
                    "duration": 0.29278809999999567
                },
                {
                    "name": "D#5",
                    "midi": 75,
                    "time": 97.08236999999994,
                    "velocity": 0.4251968503937008,
                    "duration": 0.29278809999999567
                },
                {
                    "name": "D#5",
                    "midi": 75,
                    "time": 97.39056799999993,
                    "velocity": 0.47244094488188976,
                    "duration": 1.8491879999999838
                },
                {
                    "name": "B4",
                    "midi": 71,
                    "time": 97.39056799999993,
                    "velocity": 0.47244094488188976,
                    "duration": 1.8491879999999838
                },
                {
                    "name": "F#5",
                    "midi": 78,
                    "time": 97.39056799999993,
                    "velocity": 0.5590551181102362,
                    "duration": 1.8491879999999838
                },
                {
                    "name": "B5",
                    "midi": 83,
                    "time": 98.00696399999993,
                    "velocity": 0.4881889763779528,
                    "duration": 0.6163959999999946
                },
                {
                    "name": "G#5",
                    "midi": 80,
                    "time": 99.23975599999991,
                    "velocity": 0.5826771653543307,
                    "duration": 0.6163959999999946
                },
                {
                    "name": "B4",
                    "midi": 71,
                    "time": 99.23975599999991,
                    "velocity": 0.48031496062992124,
                    "duration": 0.6163959999999946
                },
                {
                    "name": "E5",
                    "midi": 76,
                    "time": 99.23975599999991,
                    "velocity": 0.48031496062992124,
                    "duration": 0.6163959999999946
                },
                {
                    "name": "E5",
                    "midi": 76,
                    "time": 99.85615199999991,
                    "velocity": 0.5354330708661418,
                    "duration": 0.924593999999999
                },
                {
                    "name": "G#5",
                    "midi": 80,
                    "time": 99.85615199999991,
                    "velocity": 0.5354330708661418,
                    "duration": 0.924593999999999
                },
                {
                    "name": "C#6",
                    "midi": 85,
                    "time": 99.85615199999991,
                    "velocity": 0.6299212598425197,
                    "duration": 0.924593999999999
                },
                {
                    "name": "B5",
                    "midi": 83,
                    "time": 100.78074599999991,
                    "velocity": 0.5511811023622047,
                    "duration": 0.29278809999999567
                },
                {
                    "name": "F#5",
                    "midi": 78,
                    "time": 100.78074599999991,
                    "velocity": 0.47244094488188976,
                    "duration": 0.29278809999999567
                },
                {
                    "name": "D#5",
                    "midi": 75,
                    "time": 100.78074599999991,
                    "velocity": 0.47244094488188976,
                    "duration": 0.29278809999999567
                },
                {
                    "name": "D#5",
                    "midi": 75,
                    "time": 101.0889439999999,
                    "velocity": 0.5275590551181102,
                    "duration": 6.163959999999975
                },
                {
                    "name": "F#5",
                    "midi": 78,
                    "time": 101.0889439999999,
                    "velocity": 0.5275590551181102,
                    "duration": 6.163959999999975
                },
                {
                    "name": "B5",
                    "midi": 83,
                    "time": 101.0889439999999,
                    "velocity": 0.6220472440944882,
                    "duration": 5.54756399999998
                },
                {
                    "name": "B4",
                    "midi": 71,
                    "time": 101.7053399999999,
                    "velocity": 0.4645669291338583,
                    "duration": 0.6163959999999946
                },
                {
                    "name": "B4",
                    "midi": 71,
                    "time": 105.40371599999989,
                    "velocity": 0.29133858267716534,
                    "duration": 0.6163959999999946
                },
                {
                    "name": "A5",
                    "midi": 81,
                    "time": 106.63650799999988,
                    "velocity": 0.3228346456692913,
                    "duration": 0.6163959999999946
                },
                {
                    "name": "G#4",
                    "midi": 68,
                    "time": 107.25290399999987,
                    "velocity": 0.2677165354330709,
                    "duration": 3.0819799999999873
                },
                {
                    "name": "G#5",
                    "midi": 80,
                    "time": 107.25290399999987,
                    "velocity": 0.3228346456692913,
                    "duration": 3.0819799999999873
                },
                {
                    "name": "E5",
                    "midi": 76,
                    "time": 107.25290399999987,
                    "velocity": 0.2677165354330709,
                    "duration": 3.0819799999999873
                },
                {
                    "name": "C#5",
                    "midi": 73,
                    "time": 109.10209199999987,
                    "velocity": 0.25196850393700787,
                    "duration": 0.6163959999999946
                },
                {
                    "name": "E4",
                    "midi": 64,
                    "time": 110.33488399999986,
                    "velocity": 0.23622047244094488,
                    "duration": 0.6163959999999946
                },
                {
                    "name": "G#4",
                    "midi": 68,
                    "time": 110.33488399999986,
                    "velocity": 0.23622047244094488,
                    "duration": 0.6163959999999946
                },
                {
                    "name": "E5",
                    "midi": 76,
                    "time": 110.33488399999986,
                    "velocity": 0.29133858267716534,
                    "duration": 0.6163959999999946
                },
                {
                    "name": "D#5",
                    "midi": 75,
                    "time": 110.95127999999985,
                    "velocity": 0.3228346456692913,
                    "duration": 0.924593999999999
                },
                {
                    "name": "F#4",
                    "midi": 66,
                    "time": 110.95127999999985,
                    "velocity": 0.2677165354330709,
                    "duration": 1.2327920000000034
                },
                {
                    "name": "A4",
                    "midi": 69,
                    "time": 110.95127999999985,
                    "velocity": 0.2677165354330709,
                    "duration": 1.2327920000000034
                },
                {
                    "name": "C#5",
                    "midi": 73,
                    "time": 111.87587399999985,
                    "velocity": 0.3228346456692913,
                    "duration": 0.3081980000000044
                },
                {
                    "name": "F#4",
                    "midi": 66,
                    "time": 112.18407199999986,
                    "velocity": 0.2677165354330709,
                    "duration": 1.8491879999999838
                },
                {
                    "name": "C#5",
                    "midi": 73,
                    "time": 112.18407199999986,
                    "velocity": 0.3228346456692913,
                    "duration": 1.8491879999999838
                },
                {
                    "name": "A4",
                    "midi": 69,
                    "time": 112.18407199999986,
                    "velocity": 0.2677165354330709,
                    "duration": 1.8491879999999838
                },
                {
                    "name": "A5",
                    "midi": 81,
                    "time": 112.80046799999985,
                    "velocity": 0.23622047244094488,
                    "duration": 0.6163959999999946
                },
                {
                    "name": "D#4",
                    "midi": 63,
                    "time": 114.03325999999984,
                    "velocity": 0.23622047244094488,
                    "duration": 0.6163959999999946
                },
                {
                    "name": "A4",
                    "midi": 69,
                    "time": 114.03325999999984,
                    "velocity": 0.23622047244094488,
                    "duration": 0.6163959999999946
                },
                {
                    "name": "C#5",
                    "midi": 73,
                    "time": 114.03325999999984,
                    "velocity": 0.29133858267716534,
                    "duration": 0.6163959999999946
                },
                {
                    "name": "C#5",
                    "midi": 73,
                    "time": 114.64965599999984,
                    "velocity": 0.3228346456692913,
                    "duration": 1.2327920000000034
                },
                {
                    "name": "E4",
                    "midi": 64,
                    "time": 114.64965599999984,
                    "velocity": 0.2677165354330709,
                    "duration": 2.4655839999999927
                },
                {
                    "name": "G#4",
                    "midi": 68,
                    "time": 114.64965599999984,
                    "velocity": 0.2677165354330709,
                    "duration": 3.0819799999999873
                },
                {
                    "name": "B4",
                    "midi": 71,
                    "time": 115.88244799999984,
                    "velocity": 0.3228346456692913,
                    "duration": 1.8491879999999838
                },
                {
                    "name": "G#5",
                    "midi": 80,
                    "time": 116.49884399999983,
                    "velocity": 0.25196850393700787,
                    "duration": 0.6163959999999946
                },
                {
                    "name": "C4",
                    "midi": 60,
                    "time": 117.11523999999983,
                    "velocity": 0.2125984251968504,
                    "duration": 1.2327919999999892
                },
                {
                    "name": "F#4",
                    "midi": 66,
                    "time": 117.73163599999982,
                    "velocity": 0.2204724409448819,
                    "duration": 0.6163959999999946
                },
                {
                    "name": "A4",
                    "midi": 69,
                    "time": 117.73163599999982,
                    "velocity": 0.2677165354330709,
                    "duration": 0.6163959999999946
                },
                {
                    "name": "C#4",
                    "midi": 61,
                    "time": 118.34803199999982,
                    "velocity": 0.2204724409448819,
                    "duration": 1.2327920000000034
                },
                {
                    "name": "E4",
                    "midi": 64,
                    "time": 118.34803199999982,
                    "velocity": 0.2204724409448819,
                    "duration": 1.2327920000000034
                },
                {
                    "name": "G#4",
                    "midi": 68,
                    "time": 118.34803199999982,
                    "velocity": 0.2677165354330709,
                    "duration": 1.2327920000000034
                },
                {
                    "name": "E4",
                    "midi": 64,
                    "time": 119.58082399999982,
                    "velocity": 0.23622047244094488,
                    "duration": 1.8491879999999838
                },
                {
                    "name": "G#3",
                    "midi": 56,
                    "time": 119.58082399999982,
                    "velocity": 0.1968503937007874,
                    "duration": 1.8491879999999838
                },
                {
                    "name": "C#4",
                    "midi": 61,
                    "time": 119.58082399999982,
                    "velocity": 0.1968503937007874,
                    "duration": 1.8491879999999838
                },
                {
                    "name": "C#5",
                    "midi": 73,
                    "time": 120.19721999999982,
                    "velocity": 0.2125984251968504,
                    "duration": 0.6163959999999946
                },
                {
                    "name": "G#3",
                    "midi": 56,
                    "time": 121.4300119999998,
                    "velocity": 0.1968503937007874,
                    "duration": 0.6163959999999946
                },
                {
                    "name": "E4",
                    "midi": 64,
                    "time": 121.4300119999998,
                    "velocity": 0.23622047244094488,
                    "duration": 0.6163959999999946
                },
                {
                    "name": "C#4",
                    "midi": 61,
                    "time": 121.4300119999998,
                    "velocity": 0.1968503937007874,
                    "duration": 0.6163959999999946
                },
                {
                    "name": "C#4",
                    "midi": 61,
                    "time": 122.0464079999998,
                    "velocity": 0.2204724409448819,
                    "duration": 1.2327920000000034
                },
                {
                    "name": "G3",
                    "midi": 55,
                    "time": 122.0464079999998,
                    "velocity": 0.2204724409448819,
                    "duration": 1.2327920000000034
                },
                {
                    "name": "E4",
                    "midi": 64,
                    "time": 122.0464079999998,
                    "velocity": 0.2677165354330709,
                    "duration": 0.924593999999999
                },
                {
                    "name": "D#4",
                    "midi": 63,
                    "time": 122.9710019999998,
                    "velocity": 0.2677165354330709,
                    "duration": 0.3081980000000044
                },
                {
                    "name": "C#4",
                    "midi": 61,
                    "time": 123.2791999999998,
                    "velocity": 0.1968503937007874,
                    "duration": 1.8491879999999838
                },
                {
                    "name": "D#4",
                    "midi": 63,
                    "time": 123.2791999999998,
                    "velocity": 0.23622047244094488,
                    "duration": 1.8491879999999838
                },
                {
                    "name": "G3",
                    "midi": 55,
                    "time": 123.2791999999998,
                    "velocity": 0.1968503937007874,
                    "duration": 1.8491879999999838
                },
                {
                    "name": "A4",
                    "midi": 69,
                    "time": 123.2791999999998,
                    "velocity": 0.2283464566929134,
                    "duration": 0.6163959999999946
                },
                {
                    "name": "A5",
                    "midi": 81,
                    "time": 123.8955959999998,
                    "velocity": 0.2125984251968504,
                    "duration": 0.6163959999999946
                },
                {
                    "name": "D#4",
                    "midi": 63,
                    "time": 125.12838799999979,
                    "velocity": 0.25984251968503935,
                    "duration": 0.6163959999999946
                },
                {
                    "name": "C#4",
                    "midi": 61,
                    "time": 125.12838799999979,
                    "velocity": 0.2204724409448819,
                    "duration": 0.6163959999999946
                },
                {
                    "name": "G3",
                    "midi": 55,
                    "time": 125.12838799999979,
                    "velocity": 0.2204724409448819,
                    "duration": 0.6163959999999946
                },
                {
                    "name": "F#3",
                    "midi": 54,
                    "time": 125.74478399999978,
                    "velocity": 0.2440944881889764,
                    "duration": 1.2327920000000034
                },
                {
                    "name": "C#4",
                    "midi": 61,
                    "time": 125.74478399999978,
                    "velocity": 0.2440944881889764,
                    "duration": 1.2327920000000034
                },
                {
                    "name": "E4",
                    "midi": 64,
                    "time": 125.74478399999978,
                    "velocity": 0.29133858267716534,
                    "duration": 0.924593999999999
                },
                {
                    "name": "D#4",
                    "midi": 63,
                    "time": 126.66937799999978,
                    "velocity": 0.2677165354330709,
                    "duration": 0.3081980000000044
                },
                {
                    "name": "F#3",
                    "midi": 54,
                    "time": 126.97757599999979,
                    "velocity": 0.1968503937007874,
                    "duration": 1.8491880000000123
                },
                {
                    "name": "D#4",
                    "midi": 63,
                    "time": 126.97757599999979,
                    "velocity": 0.23622047244094488,
                    "duration": 1.8491880000000123
                },
                {
                    "name": "C#4",
                    "midi": 61,
                    "time": 126.97757599999979,
                    "velocity": 0.1968503937007874,
                    "duration": 1.8491880000000123
                },
                {
                    "name": "A4",
                    "midi": 69,
                    "time": 126.97757599999979,
                    "velocity": 0.2283464566929134,
                    "duration": 0.6163959999999946
                },
                {
                    "name": "A5",
                    "midi": 81,
                    "time": 127.59397199999978,
                    "velocity": 0.2125984251968504,
                    "duration": 0.6163960000000088
                },
                {
                    "name": "D#4",
                    "midi": 63,
                    "time": 128.8267639999998,
                    "velocity": 0.23622047244094488,
                    "duration": 0.6163960000000088
                },
                {
                    "name": "C#4",
                    "midi": 61,
                    "time": 128.8267639999998,
                    "velocity": 0.1968503937007874,
                    "duration": 0.6163960000000088
                },
                {
                    "name": "F#3",
                    "midi": 54,
                    "time": 128.8267639999998,
                    "velocity": 0.1968503937007874,
                    "duration": 0.6163960000000088
                },
                {
                    "name": "F#3",
                    "midi": 54,
                    "time": 129.4431599999998,
                    "velocity": 0.2204724409448819,
                    "duration": 1.849187999999998
                },
                {
                    "name": "C4",
                    "midi": 60,
                    "time": 129.4431599999998,
                    "velocity": 0.2204724409448819,
                    "duration": 1.849187999999998
                },
                {
                    "name": "D#4",
                    "midi": 63,
                    "time": 129.4431599999998,
                    "velocity": 0.2677165354330709,
                    "duration": 1.849187999999998
                },
                {
                    "name": "G#4",
                    "midi": 68,
                    "time": 130.6759519999998,
                    "velocity": 0.2283464566929134,
                    "duration": 0.6163960000000088
                },
                {
                    "name": "E4",
                    "midi": 64,
                    "time": 131.2923479999998,
                    "velocity": 0.2283464566929134,
                    "duration": 0.3081980000000044
                },
                {
                    "name": "G#5",
                    "midi": 80,
                    "time": 131.2923479999998,
                    "velocity": 0.2283464566929134,
                    "duration": 0.6163960000000088
                },
                {
                    "name": "F#4",
                    "midi": 66,
                    "time": 131.6005459999998,
                    "velocity": 0.2283464566929134,
                    "duration": 0.3081980000000044
                },
                {
                    "name": "G#4",
                    "midi": 68,
                    "time": 131.9087439999998,
                    "velocity": 0.2283464566929134,
                    "duration": 0.6163960000000088
                },
                {
                    "name": "D#4",
                    "midi": 63,
                    "time": 132.52513999999982,
                    "velocity": 0.23622047244094488,
                    "duration": 0.6163960000000088
                },
                {
                    "name": "C4",
                    "midi": 60,
                    "time": 132.52513999999982,
                    "velocity": 0.1968503937007874,
                    "duration": 0.6163960000000088
                },
                {
                    "name": "A3",
                    "midi": 57,
                    "time": 132.52513999999982,
                    "velocity": 0.1968503937007874,
                    "duration": 0.6163960000000088
                },
                {
                    "name": "G#3",
                    "midi": 56,
                    "time": 133.14153599999983,
                    "velocity": 0.2204724409448819,
                    "duration": 3.0819800000000157
                },
                {
                    "name": "C#4",
                    "midi": 61,
                    "time": 133.14153599999983,
                    "velocity": 0.2204724409448819,
                    "duration": 3.0819800000000157
                },
                {
                    "name": "E4",
                    "midi": 64,
                    "time": 133.14153599999983,
                    "velocity": 0.2677165354330709,
                    "duration": 3.0819800000000157
                },
                {
                    "name": "C#5",
                    "midi": 73,
                    "time": 134.99072399999983,
                    "velocity": 0.2204724409448819,
                    "duration": 0.6163960000000088
                },
                {
                    "name": "G#3",
                    "midi": 56,
                    "time": 136.22351599999985,
                    "velocity": 0.1968503937007874,
                    "duration": 0.6163960000000088
                },
                {
                    "name": "C#4",
                    "midi": 61,
                    "time": 136.22351599999985,
                    "velocity": 0.1968503937007874,
                    "duration": 0.6163960000000088
                },
                {
                    "name": "E4",
                    "midi": 64,
                    "time": 136.22351599999985,
                    "velocity": 0.23622047244094488,
                    "duration": 0.6163960000000088
                },
                {
                    "name": "E4",
                    "midi": 64,
                    "time": 136.83991199999986,
                    "velocity": 0.23622047244094488,
                    "duration": 0.9245940000000132
                },
                {
                    "name": "C#4",
                    "midi": 61,
                    "time": 136.83991199999986,
                    "velocity": 0.1968503937007874,
                    "duration": 1.2327920000000177
                },
                {
                    "name": "G3",
                    "midi": 55,
                    "time": 136.83991199999986,
                    "velocity": 0.1968503937007874,
                    "duration": 1.2327920000000177
                },
                {
                    "name": "D#4",
                    "midi": 63,
                    "time": 137.76450599999987,
                    "velocity": 0.23622047244094488,
                    "duration": 0.3081980000000044
                },
                {
                    "name": "G3",
                    "midi": 55,
                    "time": 138.07270399999987,
                    "velocity": 0.1732283464566929,
                    "duration": 1.8491880000000265
                },
                {
                    "name": "C#4",
                    "midi": 61,
                    "time": 138.07270399999987,
                    "velocity": 0.1732283464566929,
                    "duration": 1.8491880000000265
                },
                {
                    "name": "D#4",
                    "midi": 63,
                    "time": 138.07270399999987,
                    "velocity": 0.2125984251968504,
                    "duration": 1.8491880000000265
                },
                {
                    "name": "A4",
                    "midi": 69,
                    "time": 138.68909999999988,
                    "velocity": 0.2047244094488189,
                    "duration": 0.6163960000000088
                },
                {
                    "name": "G3",
                    "midi": 55,
                    "time": 139.9218919999999,
                    "velocity": 0.1968503937007874,
                    "duration": 0.6163960000000088
                },
                {
                    "name": "C#4",
                    "midi": 61,
                    "time": 139.9218919999999,
                    "velocity": 0.1968503937007874,
                    "duration": 0.6163960000000088
                },
                {
                    "name": "D#4",
                    "midi": 63,
                    "time": 139.9218919999999,
                    "velocity": 0.2283464566929134,
                    "duration": 0.6163960000000088
                },
                {
                    "name": "E4",
                    "midi": 64,
                    "time": 140.5382879999999,
                    "velocity": 0.25984251968503935,
                    "duration": 0.9245940000000132
                },
                {
                    "name": "C#4",
                    "midi": 61,
                    "time": 140.5382879999999,
                    "velocity": 0.2125984251968504,
                    "duration": 1.2327920000000177
                },
                {
                    "name": "F#3",
                    "midi": 54,
                    "time": 140.5382879999999,
                    "velocity": 0.2125984251968504,
                    "duration": 1.2327920000000177
                },
                {
                    "name": "D#4",
                    "midi": 63,
                    "time": 141.46288199999992,
                    "velocity": 0.23622047244094488,
                    "duration": 0.3081980000000044
                },
                {
                    "name": "F#3",
                    "midi": 54,
                    "time": 141.77107999999993,
                    "velocity": 0.1732283464566929,
                    "duration": 1.8491880000000265
                },
                {
                    "name": "C#4",
                    "midi": 61,
                    "time": 141.77107999999993,
                    "velocity": 0.1732283464566929,
                    "duration": 1.8491880000000265
                },
                {
                    "name": "D#4",
                    "midi": 63,
                    "time": 141.77107999999993,
                    "velocity": 0.2125984251968504,
                    "duration": 1.8491880000000265
                },
                {
                    "name": "A4",
                    "midi": 69,
                    "time": 142.38747599999994,
                    "velocity": 0.2047244094488189,
                    "duration": 0.6163960000000088
                },
                {
                    "name": "F#3",
                    "midi": 54,
                    "time": 143.62026799999995,
                    "velocity": 0.1732283464566929,
                    "duration": 0.6163960000000088
                },
                {
                    "name": "C#4",
                    "midi": 61,
                    "time": 143.62026799999995,
                    "velocity": 0.1732283464566929,
                    "duration": 0.6163960000000088
                },
                {
                    "name": "D#4",
                    "midi": 63,
                    "time": 143.62026799999995,
                    "velocity": 0.2125984251968504,
                    "duration": 0.6163960000000088
                },
                {
                    "name": "D#4",
                    "midi": 63,
                    "time": 144.23666399999996,
                    "velocity": 0.1968503937007874,
                    "duration": 1.849187999999998
                },
                {
                    "name": "C4",
                    "midi": 60,
                    "time": 144.23666399999996,
                    "velocity": 0.15748031496062992,
                    "duration": 1.849187999999998
                },
                {
                    "name": "F#3",
                    "midi": 54,
                    "time": 144.23666399999996,
                    "velocity": 0.15748031496062992,
                    "duration": 1.849187999999998
                },
                {
                    "name": "E4",
                    "midi": 64,
                    "time": 146.08585199999996,
                    "velocity": 0.16535433070866143,
                    "duration": 0.3081980000000044
                },
                {
                    "name": "F#4",
                    "midi": 66,
                    "time": 146.39404999999996,
                    "velocity": 0.16535433070866143,
                    "duration": 0.3081980000000044
                },
                {
                    "name": "G#4",
                    "midi": 68,
                    "time": 146.70224799999997,
                    "velocity": 0.16535433070866143,
                    "duration": 0.6163960000000088
                },
                {
                    "name": "C4",
                    "midi": 60,
                    "time": 147.31864399999998,
                    "velocity": 0.1732283464566929,
                    "duration": 0.6163960000000088
                },
                {
                    "name": "F#3",
                    "midi": 54,
                    "time": 147.31864399999998,
                    "velocity": 0.14173228346456693,
                    "duration": 0.6163960000000088
                },
                {
                    "name": "A3",
                    "midi": 57,
                    "time": 147.31864399999998,
                    "velocity": 0.14173228346456693,
                    "duration": 0.6163960000000088
                },
                {
                    "name": "C#5",
                    "midi": 73,
                    "time": 149.78422799999998,
                    "velocity": 0.2047244094488189,
                    "duration": 0.6163960000000088
                },
                {
                    "name": "C#5",
                    "midi": 73,
                    "time": 153.48260399999998,
                    "velocity": 0.2047244094488189,
                    "duration": 0.6163960000000088
                },
                {
                    "name": "C#3",
                    "midi": 49,
                    "time": 155.33179199999998,
                    "velocity": 0.2992125984251969,
                    "duration": 1.2327919999999892
                },
                {
                    "name": "E3",
                    "midi": 52,
                    "time": 155.33179199999998,
                    "velocity": 0.2992125984251969,
                    "duration": 1.2327919999999892
                },
                {
                    "name": "A3",
                    "midi": 57,
                    "time": 155.33179199999998,
                    "velocity": 0.3543307086614173,
                    "duration": 1.2327919999999892
                },
                {
                    "name": "C#3",
                    "midi": 49,
                    "time": 156.56458399999997,
                    "velocity": 0.2992125984251969,
                    "duration": 1.2327919999999892
                },
                {
                    "name": "A3",
                    "midi": 57,
                    "time": 156.56458399999997,
                    "velocity": 0.36220472440944884,
                    "duration": 1.2327919999999892
                },
                {
                    "name": "D3",
                    "midi": 50,
                    "time": 157.79737599999996,
                    "velocity": 0.2992125984251969,
                    "duration": 1.2327919999999892
                },
                {
                    "name": "A3",
                    "midi": 57,
                    "time": 157.79737599999996,
                    "velocity": 0.2992125984251969,
                    "duration": 1.2327919999999892
                },
                {
                    "name": "B3",
                    "midi": 59,
                    "time": 157.79737599999996,
                    "velocity": 0.3543307086614173,
                    "duration": 1.2327919999999892
                },
                {
                    "name": "E3",
                    "midi": 52,
                    "time": 159.03016799999995,
                    "velocity": 0.2992125984251969,
                    "duration": 0.9502771666666661
                },
                {
                    "name": "C#4",
                    "midi": 61,
                    "time": 159.03016799999995,
                    "velocity": 0.36220472440944884,
                    "duration": 0.9502771666666661
                },
                {
                    "name": "A3",
                    "midi": 57,
                    "time": 159.03016799999995,
                    "velocity": 0.2992125984251969,
                    "duration": 0.9245940000000132
                },
                {
                    "name": "D3",
                    "midi": 50,
                    "time": 159.95476199999996,
                    "velocity": 0.28346456692913385,
                    "duration": 0.3338811666666288
                },
                {
                    "name": "A3",
                    "midi": 57,
                    "time": 159.95476199999996,
                    "velocity": 0.28346456692913385,
                    "duration": 0.308197999999976
                },
                {
                    "name": "B3",
                    "midi": 59,
                    "time": 159.95476199999996,
                    "velocity": 0.33070866141732286,
                    "duration": 0.3338811666666288
                },
                {
                    "name": "C#3",
                    "midi": 49,
                    "time": 160.26295999999994,
                    "velocity": 0.28346456692913385,
                    "duration": 1.849187999999998
                },
                {
                    "name": "A3",
                    "midi": 57,
                    "time": 160.26295999999994,
                    "velocity": 0.33070866141732286,
                    "duration": 1.849187999999998
                },
                {
                    "name": "E3",
                    "midi": 52,
                    "time": 162.11214799999993,
                    "velocity": 0.2992125984251969,
                    "duration": 0.6163960000000088
                },
                {
                    "name": "A3",
                    "midi": 57,
                    "time": 162.11214799999993,
                    "velocity": 0.2992125984251969,
                    "duration": 0.6163960000000088
                },
                {
                    "name": "C#4",
                    "midi": 61,
                    "time": 162.11214799999993,
                    "velocity": 0.36220472440944884,
                    "duration": 0.6163960000000088
                },
                {
                    "name": "F#3",
                    "midi": 54,
                    "time": 162.72854399999994,
                    "velocity": 0.31496062992125984,
                    "duration": 0.9502771666666661
                },
                {
                    "name": "A3",
                    "midi": 57,
                    "time": 162.72854399999994,
                    "velocity": 0.31496062992125984,
                    "duration": 0.9245940000000132
                },
                {
                    "name": "D4",
                    "midi": 62,
                    "time": 162.72854399999994,
                    "velocity": 0.3779527559055118,
                    "duration": 0.9502771666666661
                },
                {
                    "name": "E3",
                    "midi": 52,
                    "time": 163.65313799999996,
                    "velocity": 0.2992125984251969,
                    "duration": 0.3338811666666288
                },
                {
                    "name": "A3",
                    "midi": 57,
                    "time": 163.65313799999996,
                    "velocity": 0.2992125984251969,
                    "duration": 0.308197999999976
                },
                {
                    "name": "C#4",
                    "midi": 61,
                    "time": 163.65313799999996,
                    "velocity": 0.3543307086614173,
                    "duration": 0.3338811666666288
                },
                {
                    "name": "D3",
                    "midi": 50,
                    "time": 163.96133599999993,
                    "velocity": 0.30708661417322836,
                    "duration": 0.6163959999999804
                },
                {
                    "name": "A3",
                    "midi": 57,
                    "time": 163.96133599999993,
                    "velocity": 0.30708661417322836,
                    "duration": 0.6163959999999804
                },
                {
                    "name": "B3",
                    "midi": 59,
                    "time": 163.96133599999993,
                    "velocity": 0.3700787401574803,
                    "duration": 0.6163959999999804
                },
                {
                    "name": "F#3",
                    "midi": 54,
                    "time": 164.5777319999999,
                    "velocity": 0.2992125984251969,
                    "duration": 0.6163960000000088
                },
                {
                    "name": "A3",
                    "midi": 57,
                    "time": 164.5777319999999,
                    "velocity": 0.2992125984251969,
                    "duration": 0.6163960000000088
                },
                {
                    "name": "D4",
                    "midi": 62,
                    "time": 164.5777319999999,
                    "velocity": 0.3543307086614173,
                    "duration": 0.6163960000000088
                },
                {
                    "name": "E3",
                    "midi": 52,
                    "time": 165.19412799999992,
                    "velocity": 0.2992125984251969,
                    "duration": 0.6163960000000088
                },
                {
                    "name": "A3",
                    "midi": 57,
                    "time": 165.19412799999992,
                    "velocity": 0.2992125984251969,
                    "duration": 0.6163960000000088
                },
                {
                    "name": "C#4",
                    "midi": 61,
                    "time": 165.19412799999992,
                    "velocity": 0.3543307086614173,
                    "duration": 0.6163960000000088
                },
                {
                    "name": "C#3",
                    "midi": 49,
                    "time": 165.81052399999993,
                    "velocity": 0.2992125984251969,
                    "duration": 0.6163960000000088
                },
                {
                    "name": "E3",
                    "midi": 52,
                    "time": 165.81052399999993,
                    "velocity": 0.2992125984251969,
                    "duration": 0.6163960000000088
                },
                {
                    "name": "A3",
                    "midi": 57,
                    "time": 165.81052399999993,
                    "velocity": 0.3543307086614173,
                    "duration": 0.6163960000000088
                },
                {
                    "name": "B2",
                    "midi": 47,
                    "time": 166.42691999999994,
                    "velocity": 0.30708661417322836,
                    "duration": 1.849187999999998
                },
                {
                    "name": "E3",
                    "midi": 52,
                    "time": 166.42691999999994,
                    "velocity": 0.30708661417322836,
                    "duration": 1.849187999999998
                },
                {
                    "name": "G#3",
                    "midi": 56,
                    "time": 166.42691999999994,
                    "velocity": 0.3700787401574803,
                    "duration": 1.849187999999998
                },
                {
                    "name": "B2",
                    "midi": 47,
                    "time": 168.27610799999994,
                    "velocity": 0.2992125984251969,
                    "duration": 0.6163960000000088
                },
                {
                    "name": "F#3",
                    "midi": 54,
                    "time": 168.27610799999994,
                    "velocity": 0.2992125984251969,
                    "duration": 0.6163960000000088
                },
                {
                    "name": "G#3",
                    "midi": 56,
                    "time": 168.27610799999994,
                    "velocity": 0.36220472440944884,
                    "duration": 0.6163960000000088
                },
                {
                    "name": "C#3",
                    "midi": 49,
                    "time": 168.89250399999995,
                    "velocity": 0.3228346456692913,
                    "duration": 0.6163960000000088
                },
                {
                    "name": "E3",
                    "midi": 52,
                    "time": 168.89250399999995,
                    "velocity": 0.3228346456692913,
                    "duration": 0.6163960000000088
                },
                {
                    "name": "G#3",
                    "midi": 56,
                    "time": 168.89250399999995,
                    "velocity": 0.3858267716535433,
                    "duration": 0.6163960000000088
                },
                {
                    "name": "D3",
                    "midi": 50,
                    "time": 169.50889999999995,
                    "velocity": 0.3228346456692913,
                    "duration": 0.6163960000000088
                },
                {
                    "name": "E3",
                    "midi": 52,
                    "time": 169.50889999999995,
                    "velocity": 0.3228346456692913,
                    "duration": 0.6163960000000088
                },
                {
                    "name": "G#3",
                    "midi": 56,
                    "time": 169.50889999999995,
                    "velocity": 0.3858267716535433,
                    "duration": 0.6163960000000088
                },
                {
                    "name": "C#3",
                    "midi": 49,
                    "time": 170.12529599999996,
                    "velocity": 0.2992125984251969,
                    "duration": 1.2327919999999892
                },
                {
                    "name": "E3",
                    "midi": 52,
                    "time": 170.12529599999996,
                    "velocity": 0.2992125984251969,
                    "duration": 1.2327919999999892
                },
                {
                    "name": "A3",
                    "midi": 57,
                    "time": 170.12529599999996,
                    "velocity": 0.3543307086614173,
                    "duration": 1.2327919999999892
                },
                {
                    "name": "C#3",
                    "midi": 49,
                    "time": 171.35808799999995,
                    "velocity": 0.2992125984251969,
                    "duration": 1.2327919999999892
                },
                {
                    "name": "A3",
                    "midi": 57,
                    "time": 171.35808799999995,
                    "velocity": 0.36220472440944884,
                    "duration": 1.2327919999999892
                },
                {
                    "name": "D3",
                    "midi": 50,
                    "time": 172.59087999999994,
                    "velocity": 0.2992125984251969,
                    "duration": 1.2327919999999892
                },
                {
                    "name": "A3",
                    "midi": 57,
                    "time": 172.59087999999994,
                    "velocity": 0.2992125984251969,
                    "duration": 1.2327919999999892
                },
                {
                    "name": "B3",
                    "midi": 59,
                    "time": 172.59087999999994,
                    "velocity": 0.3543307086614173,
                    "duration": 1.2327919999999892
                },
                {
                    "name": "E3",
                    "midi": 52,
                    "time": 173.82367199999993,
                    "velocity": 0.2992125984251969,
                    "duration": 0.9502771666666661
                },
                {
                    "name": "C#4",
                    "midi": 61,
                    "time": 173.82367199999993,
                    "velocity": 0.36220472440944884,
                    "duration": 0.9502771666666661
                },
                {
                    "name": "A3",
                    "midi": 57,
                    "time": 173.82367199999993,
                    "velocity": 0.2992125984251969,
                    "duration": 0.9245940000000132
                },
                {
                    "name": "D3",
                    "midi": 50,
                    "time": 174.74826599999994,
                    "velocity": 0.28346456692913385,
                    "duration": 0.3338811666666288
                },
                {
                    "name": "A3",
                    "midi": 57,
                    "time": 174.74826599999994,
                    "velocity": 0.28346456692913385,
                    "duration": 0.308197999999976
                },
                {
                    "name": "B3",
                    "midi": 59,
                    "time": 174.74826599999994,
                    "velocity": 0.33070866141732286,
                    "duration": 0.3338811666666288
                },
                {
                    "name": "C#3",
                    "midi": 49,
                    "time": 175.05646399999992,
                    "velocity": 0.25196850393700787,
                    "duration": 1.849187999999998
                },
                {
                    "name": "A3",
                    "midi": 57,
                    "time": 175.05646399999992,
                    "velocity": 0.29133858267716534,
                    "duration": 1.849187999999998
                },
                {
                    "name": "F#3",
                    "midi": 54,
                    "time": 176.90565199999992,
                    "velocity": 0.3228346456692913,
                    "duration": 0.6163960000000088
                },
                {
                    "name": "E3",
                    "midi": 52,
                    "time": 176.90565199999992,
                    "velocity": 0.3228346456692913,
                    "duration": 0.6163960000000088
                },
                {
                    "name": "A#3",
                    "midi": 58,
                    "time": 176.90565199999992,
                    "velocity": 0.3228346456692913,
                    "duration": 0.6163960000000088
                },
                {
                    "name": "C#4",
                    "midi": 61,
                    "time": 176.90565199999992,
                    "velocity": 0.3937007874015748,
                    "duration": 0.6163960000000088
                },
                {
                    "name": "D3",
                    "midi": 50,
                    "time": 177.52204799999993,
                    "velocity": 0.3543307086614173,
                    "duration": 0.9502771666666661
                },
                {
                    "name": "F#3",
                    "midi": 54,
                    "time": 177.52204799999993,
                    "velocity": 0.3543307086614173,
                    "duration": 0.9245940000000132
                },
                {
                    "name": "B3",
                    "midi": 59,
                    "time": 177.52204799999993,
                    "velocity": 0.3543307086614173,
                    "duration": 0.9502771666666661
                },
                {
                    "name": "D4",
                    "midi": 62,
                    "time": 177.52204799999993,
                    "velocity": 0.41732283464566927,
                    "duration": 0.9502771666666661
                },
                {
                    "name": "F#3",
                    "midi": 54,
                    "time": 178.44664199999994,
                    "velocity": 0.2992125984251969,
                    "duration": 0.3338811666666288
                },
                {
                    "name": "E3",
                    "midi": 52,
                    "time": 178.44664199999994,
                    "velocity": 0.2992125984251969,
                    "duration": 0.3338811666666288
                },
                {
                    "name": "A#3",
                    "midi": 58,
                    "time": 178.44664199999994,
                    "velocity": 0.2992125984251969,
                    "duration": 0.308197999999976
                },
                {
                    "name": "C#4",
                    "midi": 61,
                    "time": 178.44664199999994,
                    "velocity": 0.3464566929133858,
                    "duration": 0.3338811666666288
                },
                {
                    "name": "D3",
                    "midi": 50,
                    "time": 178.75483999999992,
                    "velocity": 0.30708661417322836,
                    "duration": 0.6163959999999804
                },
                {
                    "name": "A3",
                    "midi": 57,
                    "time": 178.75483999999992,
                    "velocity": 0.30708661417322836,
                    "duration": 0.6163959999999804
                },
                {
                    "name": "B3",
                    "midi": 59,
                    "time": 178.75483999999992,
                    "velocity": 0.3700787401574803,
                    "duration": 0.6163959999999804
                },
                {
                    "name": "D3",
                    "midi": 50,
                    "time": 179.3712359999999,
                    "velocity": 0.3228346456692913,
                    "duration": 0.6163960000000088
                },
                {
                    "name": "F#3",
                    "midi": 54,
                    "time": 179.3712359999999,
                    "velocity": 0.3228346456692913,
                    "duration": 0.3081980000000044
                },
                {
                    "name": "D4",
                    "midi": 62,
                    "time": 179.3712359999999,
                    "velocity": 0.3858267716535433,
                    "duration": 0.6163960000000088
                },
                {
                    "name": "G#3",
                    "midi": 56,
                    "time": 179.6794339999999,
                    "velocity": 0.31496062992125984,
                    "duration": 0.3081980000000044
                },
                {
                    "name": "E3",
                    "midi": 52,
                    "time": 179.9876319999999,
                    "velocity": 0.30708661417322836,
                    "duration": 0.6163960000000088
                },
                {
                    "name": "A3",
                    "midi": 57,
                    "time": 179.9876319999999,
                    "velocity": 0.30708661417322836,
                    "duration": 0.6163960000000088
                },
                {
                    "name": "C#4",
                    "midi": 61,
                    "time": 179.9876319999999,
                    "velocity": 0.36220472440944884,
                    "duration": 0.6163960000000088
                },
                {
                    "name": "D3",
                    "midi": 50,
                    "time": 180.60402799999991,
                    "velocity": 0.2992125984251969,
                    "duration": 0.6163960000000088
                },
                {
                    "name": "E3",
                    "midi": 52,
                    "time": 180.60402799999991,
                    "velocity": 0.2992125984251969,
                    "duration": 0.6163960000000088
                },
                {
                    "name": "G#3",
                    "midi": 56,
                    "time": 180.60402799999991,
                    "velocity": 0.2992125984251969,
                    "duration": 0.6163960000000088
                },
                {
                    "name": "B3",
                    "midi": 59,
                    "time": 180.60402799999991,
                    "velocity": 0.3543307086614173,
                    "duration": 0.6163960000000088
                },
                {
                    "name": "D3",
                    "midi": 50,
                    "time": 181.22042399999992,
                    "velocity": 0.30708661417322836,
                    "duration": 1.2327919999999892
                },
                {
                    "name": "E3",
                    "midi": 52,
                    "time": 181.22042399999992,
                    "velocity": 0.30708661417322836,
                    "duration": 1.849187999999998
                },
                {
                    "name": "G#3",
                    "midi": 56,
                    "time": 181.22042399999992,
                    "velocity": 0.30708661417322836,
                    "duration": 1.2327919999999892
                },
                {
                    "name": "B3",
                    "midi": 59,
                    "time": 181.22042399999992,
                    "velocity": 0.3700787401574803,
                    "duration": 1.2327919999999892
                },
                {
                    "name": "C#3",
                    "midi": 49,
                    "time": 182.4532159999999,
                    "velocity": 0.30708661417322836,
                    "duration": 1.2327920000000177
                },
                {
                    "name": "A3",
                    "midi": 57,
                    "time": 182.4532159999999,
                    "velocity": 0.3700787401574803,
                    "duration": 1.2327920000000177
                },
                {
                    "name": "A4",
                    "midi": 69,
                    "time": 184.91879999999992,
                    "velocity": 0.4881889763779528,
                    "duration": 1.2327920000000177
                },
                {
                    "name": "E4",
                    "midi": 64,
                    "time": 185.12426533333326,
                    "velocity": 0.2440944881889764,
                    "duration": 0.20546533333333628
                },
                {
                    "name": "C#4",
                    "midi": 61,
                    "time": 185.3297306666666,
                    "velocity": 0.2440944881889764,
                    "duration": 0.20546533333333628
                },
                {
                    "name": "E4",
                    "midi": 64,
                    "time": 185.53519599999993,
                    "velocity": 0.2440944881889764,
                    "duration": 0.20546533333333628
                },
                {
                    "name": "C#4",
                    "midi": 61,
                    "time": 185.74066133333326,
                    "velocity": 0.2440944881889764,
                    "duration": 0.20546533333333628
                },
                {
                    "name": "A3",
                    "midi": 57,
                    "time": 185.9461266666666,
                    "velocity": 0.2440944881889764,
                    "duration": 0.20546533333333628
                },
                {
                    "name": "A4",
                    "midi": 69,
                    "time": 186.15159199999994,
                    "velocity": 0.49606299212598426,
                    "duration": 1.2327920000000177
                },
                {
                    "name": "E4",
                    "midi": 64,
                    "time": 186.35705733333327,
                    "velocity": 0.2440944881889764,
                    "duration": 0.20546533333333628
                },
                {
                    "name": "C#4",
                    "midi": 61,
                    "time": 186.5625226666666,
                    "velocity": 0.2440944881889764,
                    "duration": 0.20546533333333628
                },
                {
                    "name": "E4",
                    "midi": 64,
                    "time": 186.76798799999995,
                    "velocity": 0.2440944881889764,
                    "duration": 0.20546533333333628
                },
                {
                    "name": "C#4",
                    "midi": 61,
                    "time": 186.97345333333328,
                    "velocity": 0.2440944881889764,
                    "duration": 0.20546533333333628
                },
                {
                    "name": "A3",
                    "midi": 57,
                    "time": 187.17891866666662,
                    "velocity": 0.2440944881889764,
                    "duration": 0.20546533333333628
                },
                {
                    "name": "B4",
                    "midi": 71,
                    "time": 187.38438399999995,
                    "velocity": 0.4881889763779528,
                    "duration": 1.2327920000000177
                },
                {
                    "name": "G#4",
                    "midi": 68,
                    "time": 187.5898493333333,
                    "velocity": 0.2440944881889764,
                    "duration": 0.20546533333333628
                },
                {
                    "name": "E4",
                    "midi": 64,
                    "time": 187.79531466666663,
                    "velocity": 0.25196850393700787,
                    "duration": 0.20546533333333628
                },
                {
                    "name": "G#4",
                    "midi": 68,
                    "time": 188.00077999999996,
                    "velocity": 0.25196850393700787,
                    "duration": 0.20546533333333628
                },
                {
                    "name": "E4",
                    "midi": 64,
                    "time": 188.2062453333333,
                    "velocity": 0.25196850393700787,
                    "duration": 0.20546533333333628
                },
                {
                    "name": "B3",
                    "midi": 59,
                    "time": 188.41171066666664,
                    "velocity": 0.25196850393700787,
                    "duration": 0.20546533333333628
                },
                {
                    "name": "C#5",
                    "midi": 73,
                    "time": 188.61717599999997,
                    "velocity": 0.49606299212598426,
                    "duration": 1.0786930000000154
                },
                {
                    "name": "A4",
                    "midi": 69,
                    "time": 188.8226413333333,
                    "velocity": 0.25196850393700787,
                    "duration": 0.20546533333333628
                },
                {
                    "name": "E4",
                    "midi": 64,
                    "time": 189.02810666666664,
                    "velocity": 0.25196850393700787,
                    "duration": 0.20546533333333628
                },
                {
                    "name": "A4",
                    "midi": 69,
                    "time": 189.23357199999998,
                    "velocity": 0.25196850393700787,
                    "duration": 0.20546533333333628
                },
                {
                    "name": "E4",
                    "midi": 64,
                    "time": 189.43903733333332,
                    "velocity": 0.25196850393700787,
                    "duration": 0.20546533333333628
                },
                {
                    "name": "D4",
                    "midi": 62,
                    "time": 189.64450266666665,
                    "velocity": 0.25196850393700787,
                    "duration": 0.20546533333333628
                },
                {
                    "name": "B4",
                    "midi": 71,
                    "time": 189.695869,
                    "velocity": 0.4645669291338583,
                    "duration": 0.1540990000000022
                },
                {
                    "name": "A4",
                    "midi": 69,
                    "time": 189.849968,
                    "velocity": 0.4645669291338583,
                    "duration": 1.8491880000000265
                },
                {
                    "name": "E4",
                    "midi": 64,
                    "time": 190.05543333333333,
                    "velocity": 0.2440944881889764,
                    "duration": 0.20546533333333628
                },
                {
                    "name": "C#4",
                    "midi": 61,
                    "time": 190.26089866666666,
                    "velocity": 0.2440944881889764,
                    "duration": 0.20546533333333628
                },
                {
                    "name": "E4",
                    "midi": 64,
                    "time": 190.466364,
                    "velocity": 0.2440944881889764,
                    "duration": 0.20546533333333628
                },
                {
                    "name": "C#4",
                    "midi": 61,
                    "time": 190.67182933333333,
                    "velocity": 0.2440944881889764,
                    "duration": 0.20546533333333628
                },
                {
                    "name": "A3",
                    "midi": 57,
                    "time": 190.87729466666667,
                    "velocity": 0.2440944881889764,
                    "duration": 0.20546533333333628
                },
                {
                    "name": "C#4",
                    "midi": 61,
                    "time": 191.28822533333334,
                    "velocity": 0.25196850393700787,
                    "duration": 0.20546533333333628
                },
                {
                    "name": "E4",
                    "midi": 64,
                    "time": 191.49369066666668,
                    "velocity": 0.25196850393700787,
                    "duration": 0.20546533333333628
                },
                {
                    "name": "C#4",
                    "midi": 61,
                    "time": 191.69915600000002,
                    "velocity": 0.25196850393700787,
                    "duration": 0.20546533333333628
                },
                {
                    "name": "C#5",
                    "midi": 73,
                    "time": 191.69915600000002,
                    "velocity": 0.49606299212598426,
                    "duration": 0.6163960000000088
                },
                {
                    "name": "E4",
                    "midi": 64,
                    "time": 191.90462133333335,
                    "velocity": 0.25196850393700787,
                    "duration": 0.20546533333333628
                },
                {
                    "name": "A4",
                    "midi": 69,
                    "time": 192.1100866666667,
                    "velocity": 0.25196850393700787,
                    "duration": 0.20546533333333628
                },
                {
                    "name": "D5",
                    "midi": 74,
                    "time": 192.31555200000003,
                    "velocity": 0.5275590551181102,
                    "duration": 1.0786930000000154
                },
                {
                    "name": "A4",
                    "midi": 69,
                    "time": 192.52101733333336,
                    "velocity": 0.2677165354330709,
                    "duration": 0.20546533333333628
                },
                {
                    "name": "F#4",
                    "midi": 66,
                    "time": 192.7264826666667,
                    "velocity": 0.2677165354330709,
                    "duration": 0.20546533333333628
                },
                {
                    "name": "A4",
                    "midi": 69,
                    "time": 192.93194800000003,
                    "velocity": 0.2677165354330709,
                    "duration": 0.20546533333333628
                },
                {
                    "name": "F#4",
                    "midi": 66,
                    "time": 193.13741333333337,
                    "velocity": 0.2677165354330709,
                    "duration": 0.20546533333333628
                },
                {
                    "name": "E4",
                    "midi": 64,
                    "time": 193.3428786666667,
                    "velocity": 0.25196850393700787,
                    "duration": 0.20546533333333628
                },
                {
                    "name": "C#5",
                    "midi": 73,
                    "time": 193.39424500000004,
                    "velocity": 0.4881889763779528,
                    "duration": 0.1540990000000022
                },
                {
                    "name": "B4",
                    "midi": 71,
                    "time": 193.54834400000004,
                    "velocity": 0.5196850393700787,
                    "duration": 0.6163960000000088
                },
                {
                    "name": "D4",
                    "midi": 62,
                    "time": 193.75380933333338,
                    "velocity": 0.25196850393700787,
                    "duration": 0.20546533333333628
                },
                {
                    "name": "A4",
                    "midi": 69,
                    "time": 193.95927466666672,
                    "velocity": 0.25196850393700787,
                    "duration": 0.20546533333333628
                },
                {
                    "name": "D5",
                    "midi": 74,
                    "time": 194.16474000000005,
                    "velocity": 0.4881889763779528,
                    "duration": 0.6163960000000088
                },
                {
                    "name": "F#4",
                    "midi": 66,
                    "time": 194.3702053333334,
                    "velocity": 0.23622047244094488,
                    "duration": 0.20546533333333628
                },
                {
                    "name": "A4",
                    "midi": 69,
                    "time": 194.57567066666672,
                    "velocity": 0.23622047244094488,
                    "duration": 0.20546533333333628
                },
                {
                    "name": "C#5",
                    "midi": 73,
                    "time": 194.78113600000006,
                    "velocity": 0.4881889763779528,
                    "duration": 0.6163960000000088
                },
                {
                    "name": "A4",
                    "midi": 69,
                    "time": 194.9866013333334,
                    "velocity": 0.25196850393700787,
                    "duration": 0.20546533333333628
                },
                {
                    "name": "E4",
                    "midi": 64,
                    "time": 195.19206666666673,
                    "velocity": 0.25196850393700787,
                    "duration": 0.20546533333333628
                },
                {
                    "name": "A4",
                    "midi": 69,
                    "time": 195.39753200000007,
                    "velocity": 0.4881889763779528,
                    "duration": 0.6163960000000088
                },
                {
                    "name": "E4",
                    "midi": 64,
                    "time": 195.6029973333334,
                    "velocity": 0.25196850393700787,
                    "duration": 0.20546533333333628
                },
                {
                    "name": "C#4",
                    "midi": 61,
                    "time": 195.80846266666674,
                    "velocity": 0.25196850393700787,
                    "duration": 0.20546533333333628
                },
                {
                    "name": "G#4",
                    "midi": 68,
                    "time": 196.01392800000008,
                    "velocity": 0.5196850393700787,
                    "duration": 1.8491880000000265
                },
                {
                    "name": "E4",
                    "midi": 64,
                    "time": 196.21939333333341,
                    "velocity": 0.2440944881889764,
                    "duration": 0.20546533333333628
                },
                {
                    "name": "B3",
                    "midi": 59,
                    "time": 196.42485866666675,
                    "velocity": 0.2440944881889764,
                    "duration": 0.20546533333333628
                },
                {
                    "name": "E4",
                    "midi": 64,
                    "time": 196.6303240000001,
                    "velocity": 0.2440944881889764,
                    "duration": 0.20546533333333628
                },
                {
                    "name": "B3",
                    "midi": 59,
                    "time": 196.83578933333342,
                    "velocity": 0.2440944881889764,
                    "duration": 0.20546533333333628
                },
                {
                    "name": "G#3",
                    "midi": 56,
                    "time": 197.04125466666676,
                    "velocity": 0.2440944881889764,
                    "duration": 0.20546533333333628
                },
                {
                    "name": "E4",
                    "midi": 64,
                    "time": 197.2467200000001,
                    "velocity": 0.2440944881889764,
                    "duration": 0.20546533333333628
                },
                {
                    "name": "B3",
                    "midi": 59,
                    "time": 197.45218533333343,
                    "velocity": 0.2440944881889764,
                    "duration": 0.20546533333333628
                },
                {
                    "name": "G#3",
                    "midi": 56,
                    "time": 197.65765066666677,
                    "velocity": 0.2440944881889764,
                    "duration": 0.20546533333333628
                },
                {
                    "name": "G#4",
                    "midi": 68,
                    "time": 197.8631160000001,
                    "velocity": 0.49606299212598426,
                    "duration": 0.6163960000000088
                },
                {
                    "name": "F#4",
                    "midi": 66,
                    "time": 198.06858133333344,
                    "velocity": 0.25196850393700787,
                    "duration": 0.20546533333333628
                },
                {
                    "name": "B3",
                    "midi": 59,
                    "time": 198.27404666666678,
                    "velocity": 0.25196850393700787,
                    "duration": 0.20546533333333628
                },
                {
                    "name": "G#4",
                    "midi": 68,
                    "time": 198.4795120000001,
                    "velocity": 0.5354330708661418,
                    "duration": 0.6163960000000088
                },
                {
                    "name": "E4",
                    "midi": 64,
                    "time": 198.68497733333345,
                    "velocity": 0.2677165354330709,
                    "duration": 0.20546533333333628
                },
                {
                    "name": "C#4",
                    "midi": 61,
                    "time": 198.8904426666668,
                    "velocity": 0.2677165354330709,
                    "duration": 0.20546533333333628
                },
                {
                    "name": "G#4",
                    "midi": 68,
                    "time": 199.09590800000012,
                    "velocity": 0.5354330708661418,
                    "duration": 0.6163960000000088
                },
                {
                    "name": "E4",
                    "midi": 64,
                    "time": 199.30137333333346,
                    "velocity": 0.25196850393700787,
                    "duration": 0.20546533333333628
                },
                {
                    "name": "D4",
                    "midi": 62,
                    "time": 199.5068386666668,
                    "velocity": 0.25196850393700787,
                    "duration": 0.20546533333333628
                },
                {
                    "name": "A4",
                    "midi": 69,
                    "time": 199.71230400000013,
                    "velocity": 0.4881889763779528,
                    "duration": 1.2327920000000177
                },
                {
                    "name": "E4",
                    "midi": 64,
                    "time": 199.91776933333347,
                    "velocity": 0.2440944881889764,
                    "duration": 0.20546533333333628
                },
                {
                    "name": "C#4",
                    "midi": 61,
                    "time": 200.1232346666668,
                    "velocity": 0.2440944881889764,
                    "duration": 0.20546533333333628
                },
                {
                    "name": "E4",
                    "midi": 64,
                    "time": 200.32870000000014,
                    "velocity": 0.2440944881889764,
                    "duration": 0.20546533333333628
                },
                {
                    "name": "C#4",
                    "midi": 61,
                    "time": 200.53416533333348,
                    "velocity": 0.2440944881889764,
                    "duration": 0.20546533333333628
                },
                {
                    "name": "A3",
                    "midi": 57,
                    "time": 200.7396306666668,
                    "velocity": 0.2440944881889764,
                    "duration": 0.20546533333333628
                },
                {
                    "name": "A4",
                    "midi": 69,
                    "time": 200.94509600000015,
                    "velocity": 0.49606299212598426,
                    "duration": 1.2327920000000177
                },
                {
                    "name": "E4",
                    "midi": 64,
                    "time": 201.15056133333348,
                    "velocity": 0.2440944881889764,
                    "duration": 0.20546533333333628
                },
                {
                    "name": "C#4",
                    "midi": 61,
                    "time": 201.35602666666682,
                    "velocity": 0.2440944881889764,
                    "duration": 0.20546533333333628
                },
                {
                    "name": "E4",
                    "midi": 64,
                    "time": 201.56149200000016,
                    "velocity": 0.2440944881889764,
                    "duration": 0.20546533333333628
                },
                {
                    "name": "C#4",
                    "midi": 61,
                    "time": 201.7669573333335,
                    "velocity": 0.2440944881889764,
                    "duration": 0.20546533333333628
                },
                {
                    "name": "A3",
                    "midi": 57,
                    "time": 201.97242266666683,
                    "velocity": 0.2440944881889764,
                    "duration": 0.20546533333333628
                },
                {
                    "name": "B4",
                    "midi": 71,
                    "time": 202.17788800000017,
                    "velocity": 0.4881889763779528,
                    "duration": 1.2327920000000177
                },
                {
                    "name": "G#4",
                    "midi": 68,
                    "time": 202.3833533333335,
                    "velocity": 0.2440944881889764,
                    "duration": 0.20546533333333628
                },
                {
                    "name": "E4",
                    "midi": 64,
                    "time": 202.58881866666684,
                    "velocity": 0.25196850393700787,
                    "duration": 0.20546533333333628
                },
                {
                    "name": "G#4",
                    "midi": 68,
                    "time": 202.79428400000018,
                    "velocity": 0.25196850393700787,
                    "duration": 0.20546533333333628
                },
                {
                    "name": "E4",
                    "midi": 64,
                    "time": 202.9997493333335,
                    "velocity": 0.25196850393700787,
                    "duration": 0.20546533333333628
                },
                {
                    "name": "B3",
                    "midi": 59,
                    "time": 203.20521466666685,
                    "velocity": 0.25196850393700787,
                    "duration": 0.20546533333333628
                },
                {
                    "name": "C#5",
                    "midi": 73,
                    "time": 203.41068000000018,
                    "velocity": 0.49606299212598426,
                    "duration": 1.0786930000000154
                },
                {
                    "name": "A4",
                    "midi": 69,
                    "time": 203.61614533333352,
                    "velocity": 0.25196850393700787,
                    "duration": 0.20546533333333628
                },
                {
                    "name": "E4",
                    "midi": 64,
                    "time": 203.82161066666686,
                    "velocity": 0.25196850393700787,
                    "duration": 0.20546533333333628
                },
                {
                    "name": "A4",
                    "midi": 69,
                    "time": 204.0270760000002,
                    "velocity": 0.25196850393700787,
                    "duration": 0.20546533333333628
                },
                {
                    "name": "E4",
                    "midi": 64,
                    "time": 204.23254133333353,
                    "velocity": 0.25196850393700787,
                    "duration": 0.20546533333333628
                },
                {
                    "name": "D4",
                    "midi": 62,
                    "time": 204.43800666666687,
                    "velocity": 0.25196850393700787,
                    "duration": 0.20546533333333628
                },
                {
                    "name": "B4",
                    "midi": 71,
                    "time": 204.4893730000002,
                    "velocity": 0.4645669291338583,
                    "duration": 0.1540990000000022
                },
                {
                    "name": "A4",
                    "midi": 69,
                    "time": 204.6434720000002,
                    "velocity": 0.4645669291338583,
                    "duration": 1.8491880000000265
                },
                {
                    "name": "E4",
                    "midi": 64,
                    "time": 204.84893733333354,
                    "velocity": 0.2440944881889764,
                    "duration": 0.20546533333333628
                },
                {
                    "name": "C#4",
                    "midi": 61,
                    "time": 205.05440266666687,
                    "velocity": 0.2440944881889764,
                    "duration": 0.20546533333333628
                },
                {
                    "name": "E4",
                    "midi": 64,
                    "time": 205.2598680000002,
                    "velocity": 0.2440944881889764,
                    "duration": 0.20546533333333628
                },
                {
                    "name": "C#4",
                    "midi": 61,
                    "time": 205.46533333333355,
                    "velocity": 0.2440944881889764,
                    "duration": 0.20546533333333628
                },
                {
                    "name": "A3",
                    "midi": 57,
                    "time": 205.67079866666688,
                    "velocity": 0.2440944881889764,
                    "duration": 0.20546533333333628
                },
                {
                    "name": "C#4",
                    "midi": 61,
                    "time": 206.08172933333356,
                    "velocity": 0.25196850393700787,
                    "duration": 0.20546533333333628
                },
                {
                    "name": "E4",
                    "midi": 64,
                    "time": 206.2871946666669,
                    "velocity": 0.25196850393700787,
                    "duration": 0.20546533333333628
                },
                {
                    "name": "A#4",
                    "midi": 70,
                    "time": 206.49266000000023,
                    "velocity": 0.25196850393700787,
                    "duration": 0.20546533333333628
                },
                {
                    "name": "C#5",
                    "midi": 73,
                    "time": 206.49266000000023,
                    "velocity": 0.49606299212598426,
                    "duration": 0.6163960000000088
                },
                {
                    "name": "F#4",
                    "midi": 66,
                    "time": 206.69812533333356,
                    "velocity": 0.25196850393700787,
                    "duration": 0.20546533333333628
                },
                {
                    "name": "E4",
                    "midi": 64,
                    "time": 206.9035906666669,
                    "velocity": 0.25196850393700787,
                    "duration": 0.20546533333333628
                },
                {
                    "name": "D5",
                    "midi": 74,
                    "time": 207.10905600000024,
                    "velocity": 0.5275590551181102,
                    "duration": 1.0786930000000154
                },
                {
                    "name": "B4",
                    "midi": 71,
                    "time": 207.31452133333357,
                    "velocity": 0.2677165354330709,
                    "duration": 0.20546533333333628
                },
                {
                    "name": "F#4",
                    "midi": 66,
                    "time": 207.5199866666669,
                    "velocity": 0.2677165354330709,
                    "duration": 0.20546533333333628
                },
                {
                    "name": "B4",
                    "midi": 71,
                    "time": 207.72545200000025,
                    "velocity": 0.2677165354330709,
                    "duration": 0.20546533333333628
                },
                {
                    "name": "F#4",
                    "midi": 66,
                    "time": 207.93091733333358,
                    "velocity": 0.2677165354330709,
                    "duration": 0.20546533333333628
                },
                {
                    "name": "E4",
                    "midi": 64,
                    "time": 208.13638266666692,
                    "velocity": 0.25196850393700787,
                    "duration": 0.20546533333333628
                },
                {
                    "name": "C#5",
                    "midi": 73,
                    "time": 208.18774900000025,
                    "velocity": 0.4881889763779528,
                    "duration": 0.1540990000000022
                },
                {
                    "name": "B4",
                    "midi": 71,
                    "time": 208.34184800000025,
                    "velocity": 0.5196850393700787,
                    "duration": 0.6163960000000088
                },
                {
                    "name": "D4",
                    "midi": 62,
                    "time": 208.5473133333336,
                    "velocity": 0.25196850393700787,
                    "duration": 0.20546533333333628
                },
                {
                    "name": "F#4",
                    "midi": 66,
                    "time": 208.75277866666693,
                    "velocity": 0.25196850393700787,
                    "duration": 0.20546533333333628
                },
                {
                    "name": "D5",
                    "midi": 74,
                    "time": 208.95824400000026,
                    "velocity": 0.4881889763779528,
                    "duration": 0.6163960000000088
                },
                {
                    "name": "F#4",
                    "midi": 66,
                    "time": 209.1637093333336,
                    "velocity": 0.23622047244094488,
                    "duration": 0.20546533333333628
                },
                {
                    "name": "G#4",
                    "midi": 68,
                    "time": 209.36917466666694,
                    "velocity": 0.23622047244094488,
                    "duration": 0.20546533333333628
                },
                {
                    "name": "C#5",
                    "midi": 73,
                    "time": 209.57464000000027,
                    "velocity": 0.4881889763779528,
                    "duration": 0.6163960000000088
                },
                {
                    "name": "A4",
                    "midi": 69,
                    "time": 209.7801053333336,
                    "velocity": 0.25196850393700787,
                    "duration": 0.20546533333333628
                },
                {
                    "name": "E4",
                    "midi": 64,
                    "time": 209.98557066666694,
                    "velocity": 0.25196850393700787,
                    "duration": 0.20546533333333628
                },
                {
                    "name": "B4",
                    "midi": 71,
                    "time": 210.19103600000028,
                    "velocity": 0.4881889763779528,
                    "duration": 0.6163960000000088
                },
                {
                    "name": "E4",
                    "midi": 64,
                    "time": 210.39650133333362,
                    "velocity": 0.25196850393700787,
                    "duration": 0.20546533333333628
                },
                {
                    "name": "D4",
                    "midi": 62,
                    "time": 210.6533330000003,
                    "velocity": 0.25196850393700787,
                    "duration": 0.20546533333333628
                },
                {
                    "name": "B4",
                    "midi": 71,
                    "time": 210.8074320000003,
                    "velocity": 0.5196850393700787,
                    "duration": 1.2327920000000177
                },
                {
                    "name": "G#4",
                    "midi": 68,
                    "time": 211.01289733333363,
                    "velocity": 0.2440944881889764,
                    "duration": 0.20546533333333628
                },
                {
                    "name": "E4",
                    "midi": 64,
                    "time": 211.21836266666696,
                    "velocity": 0.2440944881889764,
                    "duration": 0.20546533333333628
                },
                {
                    "name": "G#4",
                    "midi": 68,
                    "time": 211.4238280000003,
                    "velocity": 0.2440944881889764,
                    "duration": 0.20546533333333628
                },
                {
                    "name": "E4",
                    "midi": 64,
                    "time": 211.62929333333364,
                    "velocity": 0.2440944881889764,
                    "duration": 0.20546533333333628
                },
                {
                    "name": "D4",
                    "midi": 62,
                    "time": 211.83475866666697,
                    "velocity": 0.2440944881889764,
                    "duration": 0.20546533333333628
                },
                {
                    "name": "A4",
                    "midi": 69,
                    "time": 212.0402240000003,
                    "velocity": 0.5196850393700787,
                    "duration": 0.6163960000000088
                },
                {
                    "name": "C#4",
                    "midi": 61,
                    "time": 212.0402240000003,
                    "velocity": 0.2440944881889764,
                    "duration": 0.6163960000000088
                },
                {
                    "name": "G#3",
                    "midi": 56,
                    "time": 214.50580800000031,
                    "velocity": 0.2992125984251969,
                    "duration": 1.2327919999999892
                },
                {
                    "name": "B3",
                    "midi": 59,
                    "time": 214.50580800000031,
                    "velocity": 0.3543307086614173,
                    "duration": 1.2327919999999892
                },
                {
                    "name": "G#3",
                    "midi": 56,
                    "time": 215.7386000000003,
                    "velocity": 0.2992125984251969,
                    "duration": 1.2327919999999892
                },
                {
                    "name": "B3",
                    "midi": 59,
                    "time": 215.7386000000003,
                    "velocity": 0.36220472440944884,
                    "duration": 1.2327919999999892
                },
                {
                    "name": "E3",
                    "midi": 52,
                    "time": 216.9713920000003,
                    "velocity": 0.2992125984251969,
                    "duration": 1.2327919999999892
                },
                {
                    "name": "A#3",
                    "midi": 58,
                    "time": 216.9713920000003,
                    "velocity": 0.2992125984251969,
                    "duration": 1.2327919999999892
                },
                {
                    "name": "C#4",
                    "midi": 61,
                    "time": 216.9713920000003,
                    "velocity": 0.3543307086614173,
                    "duration": 1.2327919999999892
                },
                {
                    "name": "F#3",
                    "midi": 54,
                    "time": 218.20418400000028,
                    "velocity": 0.2992125984251969,
                    "duration": 2.4655839999999785
                },
                {
                    "name": "D4",
                    "midi": 62,
                    "time": 218.20418400000028,
                    "velocity": 0.36220472440944884,
                    "duration": 0.9502771666666661
                },
                {
                    "name": "B3",
                    "midi": 59,
                    "time": 218.20418400000028,
                    "velocity": 0.2992125984251969,
                    "duration": 0.9502771666666661
                },
                {
                    "name": "C#4",
                    "midi": 61,
                    "time": 219.1287780000003,
                    "velocity": 0.28346456692913385,
                    "duration": 0.3338811666666288
                },
                {
                    "name": "E4",
                    "midi": 64,
                    "time": 219.1287780000003,
                    "velocity": 0.33070866141732286,
                    "duration": 0.3338811666666288
                },
                {
                    "name": "D4",
                    "midi": 62,
                    "time": 219.43697600000027,
                    "velocity": 0.28346456692913385,
                    "duration": 1.849187999999998
                },
                {
                    "name": "F#4",
                    "midi": 66,
                    "time": 219.43697600000027,
                    "velocity": 0.33070866141732286,
                    "duration": 1.849187999999998
                },
                {
                    "name": "F#3",
                    "midi": 54,
                    "time": 220.66976800000026,
                    "velocity": 0.2992125984251969,
                    "duration": 0.6163960000000088
                },
                {
                    "name": "G#3",
                    "midi": 56,
                    "time": 221.28616400000027,
                    "velocity": 0.3543307086614173,
                    "duration": 0.6163960000000088
                },
                {
                    "name": "D4",
                    "midi": 62,
                    "time": 221.28616400000027,
                    "velocity": 0.3543307086614173,
                    "duration": 0.6163960000000088
                },
                {
                    "name": "F#4",
                    "midi": 66,
                    "time": 221.28616400000027,
                    "velocity": 0.4251968503937008,
                    "duration": 0.6163960000000088
                },
                {
                    "name": "A3",
                    "midi": 57,
                    "time": 221.90256000000028,
                    "velocity": 0.3858267716535433,
                    "duration": 0.9245940000000132
                },
                {
                    "name": "D4",
                    "midi": 62,
                    "time": 221.90256000000028,
                    "velocity": 0.3858267716535433,
                    "duration": 0.9245940000000132
                },
                {
                    "name": "F#4",
                    "midi": 66,
                    "time": 221.90256000000028,
                    "velocity": 0.4566929133858268,
                    "duration": 0.9245940000000132
                },
                {
                    "name": "B3",
                    "midi": 59,
                    "time": 222.8271540000003,
                    "velocity": 0.3779527559055118,
                    "duration": 0.3081980000000044
                },
                {
                    "name": "D4",
                    "midi": 62,
                    "time": 222.8271540000003,
                    "velocity": 0.3779527559055118,
                    "duration": 0.3081980000000044
                },
                {
                    "name": "G4",
                    "midi": 67,
                    "time": 222.8271540000003,
                    "velocity": 0.4566929133858268,
                    "duration": 0.3081980000000044
                },
                {
                    "name": "A3",
                    "midi": 57,
                    "time": 223.1353520000003,
                    "velocity": 0.3937007874015748,
                    "duration": 0.6163960000000088
                },
                {
                    "name": "D4",
                    "midi": 62,
                    "time": 223.1353520000003,
                    "velocity": 0.3937007874015748,
                    "duration": 0.6163960000000088
                },
                {
                    "name": "A4",
                    "midi": 69,
                    "time": 223.1353520000003,
                    "velocity": 0.47244094488188976,
                    "duration": 0.6163960000000088
                },
                {
                    "name": "B3",
                    "midi": 59,
                    "time": 223.7517480000003,
                    "velocity": 0.3779527559055118,
                    "duration": 0.6163960000000088
                },
                {
                    "name": "D4",
                    "midi": 62,
                    "time": 223.7517480000003,
                    "velocity": 0.3779527559055118,
                    "duration": 0.6163960000000088
                },
                {
                    "name": "G4",
                    "midi": 67,
                    "time": 223.7517480000003,
                    "velocity": 0.44881889763779526,
                    "duration": 0.6163960000000088
                },
                {
                    "name": "A3",
                    "midi": 57,
                    "time": 224.3681440000003,
                    "velocity": 0.36220472440944884,
                    "duration": 0.6163960000000088
                },
                {
                    "name": "D4",
                    "midi": 62,
                    "time": 224.3681440000003,
                    "velocity": 0.36220472440944884,
                    "duration": 0.6163960000000088
                },
                {
                    "name": "F#4",
                    "midi": 66,
                    "time": 224.3681440000003,
                    "velocity": 0.4330708661417323,
                    "duration": 0.6163960000000088
                },
                {
                    "name": "G3",
                    "midi": 55,
                    "time": 224.98454000000032,
                    "velocity": 0.3464566929133858,
                    "duration": 0.6163960000000088
                },
                {
                    "name": "A3",
                    "midi": 57,
                    "time": 224.98454000000032,
                    "velocity": 0.3464566929133858,
                    "duration": 0.6163960000000088
                },
                {
                    "name": "C#4",
                    "midi": 61,
                    "time": 224.98454000000032,
                    "velocity": 0.3464566929133858,
                    "duration": 0.6163960000000088
                },
                {
                    "name": "E4",
                    "midi": 64,
                    "time": 224.98454000000032,
                    "velocity": 0.4015748031496063,
                    "duration": 0.6163960000000088
                },
                {
                    "name": "G3",
                    "midi": 55,
                    "time": 225.60093600000033,
                    "velocity": 0.30708661417322836,
                    "duration": 1.2327919999999892
                },
                {
                    "name": "A3",
                    "midi": 57,
                    "time": 225.60093600000033,
                    "velocity": 0.30708661417322836,
                    "duration": 1.2327919999999892
                },
                {
                    "name": "C#4",
                    "midi": 61,
                    "time": 225.60093600000033,
                    "velocity": 0.30708661417322836,
                    "duration": 1.2327919999999892
                },
                {
                    "name": "E4",
                    "midi": 64,
                    "time": 225.60093600000033,
                    "velocity": 0.3700787401574803,
                    "duration": 1.2327919999999892
                },
                {
                    "name": "F#3",
                    "midi": 54,
                    "time": 226.83372800000032,
                    "velocity": 0.30708661417322836,
                    "duration": 2.465584000000007
                },
                {
                    "name": "A3",
                    "midi": 57,
                    "time": 226.83372800000032,
                    "velocity": 0.30708661417322836,
                    "duration": 2.465584000000007
                },
                {
                    "name": "D4",
                    "midi": 62,
                    "time": 226.83372800000032,
                    "velocity": 0.3700787401574803,
                    "duration": 2.465584000000007
                },
                {
                    "name": "F3",
                    "midi": 53,
                    "time": 229.29931200000033,
                    "velocity": 0.2204724409448819,
                    "duration": 1.2327919999999892
                },
                {
                    "name": "A#3",
                    "midi": 58,
                    "time": 229.29931200000033,
                    "velocity": 0.2677165354330709,
                    "duration": 1.2327919999999892
                },
                {
                    "name": "F3",
                    "midi": 53,
                    "time": 230.53210400000032,
                    "velocity": 0.2204724409448819,
                    "duration": 1.2327919999999892
                },
                {
                    "name": "A#3",
                    "midi": 58,
                    "time": 230.53210400000032,
                    "velocity": 0.2677165354330709,
                    "duration": 1.2327919999999892
                },
                {
                    "name": "F3",
                    "midi": 53,
                    "time": 231.7648960000003,
                    "velocity": 0.2204724409448819,
                    "duration": 1.2327919999999892
                },
                {
                    "name": "A#3",
                    "midi": 58,
                    "time": 231.7648960000003,
                    "velocity": 0.2677165354330709,
                    "duration": 1.2327919999999892
                },
                {
                    "name": "A#3",
                    "midi": 58,
                    "time": 232.9976880000003,
                    "velocity": 0.2677165354330709,
                    "duration": 0.9245940000000132
                },
                {
                    "name": "G3",
                    "midi": 55,
                    "time": 232.9976880000003,
                    "velocity": 0.2204724409448819,
                    "duration": 0.9245940000000132
                },
                {
                    "name": "A3",
                    "midi": 57,
                    "time": 233.9222820000003,
                    "velocity": 0.2125984251968504,
                    "duration": 0.10273266666663972
                },
                {
                    "name": "A#3",
                    "midi": 58,
                    "time": 233.9993315000003,
                    "velocity": 0.2125984251968504,
                    "duration": 0.10273266666663972
                },
                {
                    "name": "C4",
                    "midi": 60,
                    "time": 234.07638100000028,
                    "velocity": 0.2125984251968504,
                    "duration": 0.10273266666663972
                },
                {
                    "name": "A#3",
                    "midi": 58,
                    "time": 234.15343050000027,
                    "velocity": 0.2125984251968504,
                    "duration": 0.10273266666663972
                },
                {
                    "name": "G3",
                    "midi": 55,
                    "time": 234.23048000000026,
                    "velocity": 0.2440944881889764,
                    "duration": 0.6163959999999804
                },
                {
                    "name": "G3",
                    "midi": 55,
                    "time": 234.84687600000024,
                    "velocity": 0.2204724409448819,
                    "duration": 0.6163960000000088
                },
                {
                    "name": "D#4",
                    "midi": 63,
                    "time": 234.84687600000024,
                    "velocity": 0.2204724409448819,
                    "duration": 0.6163960000000088
                },
                {
                    "name": "G4",
                    "midi": 67,
                    "time": 234.84687600000024,
                    "velocity": 0.2677165354330709,
                    "duration": 0.6163960000000088
                },
                {
                    "name": "G3",
                    "midi": 55,
                    "time": 235.46327200000025,
                    "velocity": 0.2204724409448819,
                    "duration": 0.6163960000000088
                },
                {
                    "name": "B3",
                    "midi": 59,
                    "time": 235.46327200000025,
                    "velocity": 0.2204724409448819,
                    "duration": 0.6163960000000088
                },
                {
                    "name": "F4",
                    "midi": 65,
                    "time": 235.46327200000025,
                    "velocity": 0.2677165354330709,
                    "duration": 0.6163960000000088
                },
                {
                    "name": "G3",
                    "midi": 55,
                    "time": 236.07966800000025,
                    "velocity": 0.18110236220472442,
                    "duration": 0.6163960000000088
                },
                {
                    "name": "C4",
                    "midi": 60,
                    "time": 236.07966800000025,
                    "velocity": 0.18110236220472442,
                    "duration": 0.6163960000000088
                },
                {
                    "name": "D#4",
                    "midi": 63,
                    "time": 236.07966800000025,
                    "velocity": 0.2677165354330709,
                    "duration": 0.6163960000000088
                },
                {
                    "name": "F3",
                    "midi": 53,
                    "time": 236.69606400000026,
                    "velocity": 0.23622047244094488,
                    "duration": 2.465584000000007
                },
                {
                    "name": "A#3",
                    "midi": 58,
                    "time": 236.69606400000026,
                    "velocity": 0.23622047244094488,
                    "duration": 2.465584000000007
                },
                {
                    "name": "D4",
                    "midi": 62,
                    "time": 236.69606400000026,
                    "velocity": 0.29133858267716534,
                    "duration": 2.465584000000007
                },
                {
                    "name": "D#3",
                    "midi": 51,
                    "time": 239.16164800000027,
                    "velocity": 0.23622047244094488,
                    "duration": 1.2327919999999892
                },
                {
                    "name": "A3",
                    "midi": 57,
                    "time": 239.16164800000027,
                    "velocity": 0.23622047244094488,
                    "duration": 1.2327919999999892
                },
                {
                    "name": "D#4",
                    "midi": 63,
                    "time": 239.16164800000027,
                    "velocity": 0.28346456692913385,
                    "duration": 0.9502771666666661
                },
                {
                    "name": "C4",
                    "midi": 60,
                    "time": 240.08624200000028,
                    "velocity": 0.2677165354330709,
                    "duration": 0.3338811666666288
                },
                {
                    "name": "D3",
                    "midi": 50,
                    "time": 240.39444000000026,
                    "velocity": 0.2283464566929134,
                    "duration": 3.698375999999996
                },
                {
                    "name": "G#3",
                    "midi": 56,
                    "time": 240.39444000000026,
                    "velocity": 0.2283464566929134,
                    "duration": 3.698375999999996
                },
                {
                    "name": "B3",
                    "midi": 59,
                    "time": 240.39444000000026,
                    "velocity": 0.2755905511811024,
                    "duration": 3.698375999999996
                },
                {
                    "name": "D3",
                    "midi": 50,
                    "time": 244.09281600000025,
                    "velocity": 0.28346456692913385,
                    "duration": 2.4655839999999785
                },
                {
                    "name": "G#3",
                    "midi": 56,
                    "time": 244.09281600000025,
                    "velocity": 0.28346456692913385,
                    "duration": 2.4655839999999785
                },
                {
                    "name": "B3",
                    "midi": 59,
                    "time": 244.09281600000025,
                    "velocity": 0.3464566929133858,
                    "duration": 1.849187999999998
                },
                {
                    "name": "C#4",
                    "midi": 61,
                    "time": 245.94200400000025,
                    "velocity": 0.36220472440944884,
                    "duration": 0.33388116666665724
                },
                {
                    "name": "D4",
                    "midi": 62,
                    "time": 246.25020200000026,
                    "velocity": 0.36220472440944884,
                    "duration": 0.3338811666666288
                },
                {
                    "name": "E4",
                    "midi": 64,
                    "time": 246.55840000000023,
                    "velocity": 0.3543307086614173,
                    "duration": 0.6163959999999804
                },
                {
                    "name": "D3",
                    "midi": 50,
                    "time": 247.1747960000002,
                    "velocity": 0.3464566929133858,
                    "duration": 0.6163960000000088
                },
                {
                    "name": "E3",
                    "midi": 52,
                    "time": 247.1747960000002,
                    "velocity": 0.3464566929133858,
                    "duration": 0.6163960000000088
                },
                {
                    "name": "G#3",
                    "midi": 56,
                    "time": 247.1747960000002,
                    "velocity": 0.3464566929133858,
                    "duration": 0.6163960000000088
                },
                {
                    "name": "C#3",
                    "midi": 49,
                    "time": 247.79119200000022,
                    "velocity": 0.2992125984251969,
                    "duration": 1.2327919999999892
                },
                {
                    "name": "E3",
                    "midi": 52,
                    "time": 247.79119200000022,
                    "velocity": 0.2992125984251969,
                    "duration": 1.2327919999999892
                },
                {
                    "name": "A3",
                    "midi": 57,
                    "time": 247.79119200000022,
                    "velocity": 0.3543307086614173,
                    "duration": 1.2327919999999892
                },
                {
                    "name": "C#3",
                    "midi": 49,
                    "time": 249.0239840000002,
                    "velocity": 0.2992125984251969,
                    "duration": 1.2327919999999892
                },
                {
                    "name": "A3",
                    "midi": 57,
                    "time": 249.0239840000002,
                    "velocity": 0.36220472440944884,
                    "duration": 1.2327919999999892
                },
                {
                    "name": "D3",
                    "midi": 50,
                    "time": 250.2567760000002,
                    "velocity": 0.2992125984251969,
                    "duration": 1.2327919999999892
                },
                {
                    "name": "A3",
                    "midi": 57,
                    "time": 250.2567760000002,
                    "velocity": 0.2992125984251969,
                    "duration": 1.2327919999999892
                },
                {
                    "name": "B3",
                    "midi": 59,
                    "time": 250.2567760000002,
                    "velocity": 0.3543307086614173,
                    "duration": 1.2327919999999892
                },
                {
                    "name": "E3",
                    "midi": 52,
                    "time": 251.4895680000002,
                    "velocity": 0.2992125984251969,
                    "duration": 0.9502771666666661
                },
                {
                    "name": "C#4",
                    "midi": 61,
                    "time": 251.4895680000002,
                    "velocity": 0.36220472440944884,
                    "duration": 0.9502771666666661
                },
                {
                    "name": "A3",
                    "midi": 57,
                    "time": 251.4895680000002,
                    "velocity": 0.2992125984251969,
                    "duration": 0.9245940000000132
                },
                {
                    "name": "D3",
                    "midi": 50,
                    "time": 252.4141620000002,
                    "velocity": 0.28346456692913385,
                    "duration": 0.3338811666666288
                },
                {
                    "name": "A3",
                    "midi": 57,
                    "time": 252.4141620000002,
                    "velocity": 0.28346456692913385,
                    "duration": 0.308197999999976
                },
                {
                    "name": "B3",
                    "midi": 59,
                    "time": 252.4141620000002,
                    "velocity": 0.33070866141732286,
                    "duration": 0.3338811666666288
                },
                {
                    "name": "C#3",
                    "midi": 49,
                    "time": 252.72236000000018,
                    "velocity": 0.28346456692913385,
                    "duration": 1.849187999999998
                },
                {
                    "name": "A3",
                    "midi": 57,
                    "time": 252.72236000000018,
                    "velocity": 0.33070866141732286,
                    "duration": 1.849187999999998
                },
                {
                    "name": "E3",
                    "midi": 52,
                    "time": 254.57154800000018,
                    "velocity": 0.3228346456692913,
                    "duration": 0.6163960000000088
                },
                {
                    "name": "A3",
                    "midi": 57,
                    "time": 254.57154800000018,
                    "velocity": 0.3228346456692913,
                    "duration": 0.6163960000000088
                },
                {
                    "name": "C#4",
                    "midi": 61,
                    "time": 254.57154800000018,
                    "velocity": 0.3937007874015748,
                    "duration": 0.6163960000000088
                },
                {
                    "name": "F3",
                    "midi": 53,
                    "time": 255.1879440000002,
                    "velocity": 0.3464566929133858,
                    "duration": 0.9502771666666945
                },
                {
                    "name": "A3",
                    "midi": 57,
                    "time": 255.1879440000002,
                    "velocity": 0.3464566929133858,
                    "duration": 0.9245940000000132
                },
                {
                    "name": "D4",
                    "midi": 62,
                    "time": 255.1879440000002,
                    "velocity": 0.4094488188976378,
                    "duration": 0.9502771666666945
                },
                {
                    "name": "E3",
                    "midi": 52,
                    "time": 256.1125380000002,
                    "velocity": 0.3228346456692913,
                    "duration": 0.33388116666668566
                },
                {
                    "name": "A3",
                    "midi": 57,
                    "time": 256.1125380000002,
                    "velocity": 0.3228346456692913,
                    "duration": 0.3081980000000044
                },
                {
                    "name": "C#4",
                    "midi": 61,
                    "time": 256.1125380000002,
                    "velocity": 0.3858267716535433,
                    "duration": 0.33388116666668566
                },
                {
                    "name": "D3",
                    "midi": 50,
                    "time": 256.4207360000002,
                    "velocity": 0.33070866141732286,
                    "duration": 0.6163960000000088
                },
                {
                    "name": "A3",
                    "midi": 57,
                    "time": 256.4207360000002,
                    "velocity": 0.33070866141732286,
                    "duration": 0.6163960000000088
                },
                {
                    "name": "B3",
                    "midi": 59,
                    "time": 256.4207360000002,
                    "velocity": 0.4015748031496063,
                    "duration": 0.6163960000000088
                },
                {
                    "name": "F3",
                    "midi": 53,
                    "time": 257.0371320000002,
                    "velocity": 0.3228346456692913,
                    "duration": 0.6163960000000088
                },
                {
                    "name": "A3",
                    "midi": 57,
                    "time": 257.0371320000002,
                    "velocity": 0.3228346456692913,
                    "duration": 0.6163960000000088
                },
                {
                    "name": "D4",
                    "midi": 62,
                    "time": 257.0371320000002,
                    "velocity": 0.3858267716535433,
                    "duration": 0.6163960000000088
                },
                {
                    "name": "E3",
                    "midi": 52,
                    "time": 257.6535280000002,
                    "velocity": 0.3228346456692913,
                    "duration": 0.6163960000000088
                },
                {
                    "name": "A3",
                    "midi": 57,
                    "time": 257.6535280000002,
                    "velocity": 0.3228346456692913,
                    "duration": 0.6163960000000088
                },
                {
                    "name": "C#4",
                    "midi": 61,
                    "time": 257.6535280000002,
                    "velocity": 0.3858267716535433,
                    "duration": 0.6163960000000088
                },
                {
                    "name": "C#3",
                    "midi": 49,
                    "time": 258.26992400000023,
                    "velocity": 0.3228346456692913,
                    "duration": 0.6163960000000088
                },
                {
                    "name": "E3",
                    "midi": 52,
                    "time": 258.26992400000023,
                    "velocity": 0.3228346456692913,
                    "duration": 0.6163960000000088
                },
                {
                    "name": "A3",
                    "midi": 57,
                    "time": 258.26992400000023,
                    "velocity": 0.3858267716535433,
                    "duration": 0.6163960000000088
                },
                {
                    "name": "B2",
                    "midi": 47,
                    "time": 258.88632000000024,
                    "velocity": 0.33070866141732286,
                    "duration": 1.8491880000000265
                },
                {
                    "name": "E3",
                    "midi": 52,
                    "time": 258.88632000000024,
                    "velocity": 0.33070866141732286,
                    "duration": 1.8491880000000265
                },
                {
                    "name": "G#3",
                    "midi": 56,
                    "time": 258.88632000000024,
                    "velocity": 0.4015748031496063,
                    "duration": 1.8491880000000265
                },
                {
                    "name": "B2",
                    "midi": 47,
                    "time": 260.73550800000027,
                    "velocity": 0.3858267716535433,
                    "duration": 0.6163960000000088
                },
                {
                    "name": "F3",
                    "midi": 53,
                    "time": 260.73550800000027,
                    "velocity": 0.3858267716535433,
                    "duration": 0.6163960000000088
                },
                {
                    "name": "G#3",
                    "midi": 56,
                    "time": 260.73550800000027,
                    "velocity": 0.47244094488188976,
                    "duration": 0.6163960000000088
                },
                {
                    "name": "C3",
                    "midi": 48,
                    "time": 261.3519040000003,
                    "velocity": 0.4409448818897638,
                    "duration": 0.6163960000000088
                },
                {
                    "name": "E3",
                    "midi": 52,
                    "time": 261.3519040000003,
                    "velocity": 0.4409448818897638,
                    "duration": 0.6163960000000088
                },
                {
                    "name": "G#3",
                    "midi": 56,
                    "time": 261.3519040000003,
                    "velocity": 0.5196850393700787,
                    "duration": 0.6163960000000088
                },
                {
                    "name": "D3",
                    "midi": 50,
                    "time": 261.9683000000003,
                    "velocity": 0.4645669291338583,
                    "duration": 0.6163960000000088
                },
                {
                    "name": "E3",
                    "midi": 52,
                    "time": 261.9683000000003,
                    "velocity": 0.4645669291338583,
                    "duration": 0.6163960000000088
                },
                {
                    "name": "G#3",
                    "midi": 56,
                    "time": 261.9683000000003,
                    "velocity": 0.5433070866141733,
                    "duration": 0.6163960000000088
                },
                {
                    "name": "C3",
                    "midi": 48,
                    "time": 262.5846960000003,
                    "velocity": 0.49606299212598426,
                    "duration": 1.2327920000000177
                },
                {
                    "name": "E3",
                    "midi": 52,
                    "time": 262.5846960000003,
                    "velocity": 0.49606299212598426,
                    "duration": 1.2327920000000177
                },
                {
                    "name": "A3",
                    "midi": 57,
                    "time": 262.5846960000003,
                    "velocity": 0.5984251968503937,
                    "duration": 1.2327920000000177
                },
                {
                    "name": "E3",
                    "midi": 52,
                    "time": 263.8174880000003,
                    "velocity": 0.49606299212598426,
                    "duration": 1.2327920000000177
                },
                {
                    "name": "C3",
                    "midi": 48,
                    "time": 263.8174880000003,
                    "velocity": 0.49606299212598426,
                    "duration": 1.2327920000000177
                },
                {
                    "name": "A3",
                    "midi": 57,
                    "time": 263.8174880000003,
                    "velocity": 0.6062992125984252,
                    "duration": 1.2327920000000177
                },
                {
                    "name": "D3",
                    "midi": 50,
                    "time": 265.0502800000003,
                    "velocity": 0.5196850393700787,
                    "duration": 1.2327920000000177
                },
                {
                    "name": "F3",
                    "midi": 53,
                    "time": 265.0502800000003,
                    "velocity": 0.5196850393700787,
                    "duration": 1.2327920000000177
                },
                {
                    "name": "B3",
                    "midi": 59,
                    "time": 265.0502800000003,
                    "velocity": 0.6220472440944882,
                    "duration": 1.2327920000000177
                },
                {
                    "name": "E3",
                    "midi": 52,
                    "time": 266.28307200000035,
                    "velocity": 0.5433070866141733,
                    "duration": 0.9502771666666945
                },
                {
                    "name": "C4",
                    "midi": 60,
                    "time": 266.28307200000035,
                    "velocity": 0.6614173228346457,
                    "duration": 1.2327920000000177
                },
                {
                    "name": "G3",
                    "midi": 55,
                    "time": 266.28307200000035,
                    "velocity": 0.5433070866141733,
                    "duration": 0.9502771666666945
                },
                {
                    "name": "F3",
                    "midi": 53,
                    "time": 267.20766600000036,
                    "velocity": 0.5196850393700787,
                    "duration": 0.33388116666668566
                },
                {
                    "name": "A3",
                    "midi": 57,
                    "time": 267.20766600000036,
                    "velocity": 0.5196850393700787,
                    "duration": 0.33388116666668566
                },
                {
                    "name": "G3",
                    "midi": 55,
                    "time": 267.51586400000036,
                    "velocity": 0.5196850393700787,
                    "duration": 1.8491880000000265
                },
                {
                    "name": "E3",
                    "midi": 52,
                    "time": 267.51586400000036,
                    "velocity": 0.5196850393700787,
                    "duration": 1.8491880000000265
                },
                {
                    "name": "C4",
                    "midi": 60,
                    "time": 267.51586400000036,
                    "velocity": 0.6062992125984252,
                    "duration": 1.8491880000000265
                },
                {
                    "name": "A3",
                    "midi": 57,
                    "time": 269.3650520000004,
                    "velocity": 0.5196850393700787,
                    "duration": 0.6163960000000088
                },
                {
                    "name": "D4",
                    "midi": 62,
                    "time": 269.3650520000004,
                    "velocity": 0.6299212598425197,
                    "duration": 0.6163960000000088
                },
                {
                    "name": "G#3",
                    "midi": 56,
                    "time": 269.9814480000004,
                    "velocity": 0.5590551181102362,
                    "duration": 1.2327920000000177
                },
                {
                    "name": "B3",
                    "midi": 59,
                    "time": 269.9814480000004,
                    "velocity": 0.5590551181102362,
                    "duration": 1.2327920000000177
                },
                {
                    "name": "E4",
                    "midi": 64,
                    "time": 269.9814480000004,
                    "velocity": 0.6692913385826772,
                    "duration": 0.9502771666666945
                },
                {
                    "name": "D4",
                    "midi": 62,
                    "time": 270.9060420000004,
                    "velocity": 0.4645669291338583,
                    "duration": 0.33388116666668566
                },
                {
                    "name": "A3",
                    "midi": 57,
                    "time": 271.2142400000004,
                    "velocity": 0.4094488188976378,
                    "duration": 0.6163960000000088
                },
                {
                    "name": "C#4",
                    "midi": 61,
                    "time": 271.2142400000004,
                    "velocity": 0.49606299212598426,
                    "duration": 0.6163960000000088
                },
                {
                    "name": "F#3",
                    "midi": 54,
                    "time": 271.8306360000004,
                    "velocity": 0.2755905511811024,
                    "duration": 0.3081980000000044
                },
                {
                    "name": "A3",
                    "midi": 57,
                    "time": 271.8306360000004,
                    "velocity": 0.2755905511811024,
                    "duration": 0.3081980000000044
                },
                {
                    "name": "E4",
                    "midi": 64,
                    "time": 271.8306360000004,
                    "velocity": 0.3228346456692913,
                    "duration": 0.3081980000000044
                },
                {
                    "name": "D4",
                    "midi": 62,
                    "time": 272.13883400000043,
                    "velocity": 0.3228346456692913,
                    "duration": 0.3081980000000044
                },
                {
                    "name": "E3",
                    "midi": 52,
                    "time": 272.44703200000043,
                    "velocity": 0.3228346456692913,
                    "duration": 0.6163960000000088
                },
                {
                    "name": "A3",
                    "midi": 57,
                    "time": 272.44703200000043,
                    "velocity": 0.3228346456692913,
                    "duration": 0.6163960000000088
                },
                {
                    "name": "C#4",
                    "midi": 61,
                    "time": 272.44703200000043,
                    "velocity": 0.3858267716535433,
                    "duration": 0.6163960000000088
                },
                {
                    "name": "D3",
                    "midi": 50,
                    "time": 273.06342800000044,
                    "velocity": 0.2992125984251969,
                    "duration": 0.6163960000000088
                },
                {
                    "name": "E3",
                    "midi": 52,
                    "time": 273.06342800000044,
                    "velocity": 0.2992125984251969,
                    "duration": 0.6163960000000088
                },
                {
                    "name": "G#3",
                    "midi": 56,
                    "time": 273.06342800000044,
                    "velocity": 0.2992125984251969,
                    "duration": 0.6163960000000088
                },
                {
                    "name": "B3",
                    "midi": 59,
                    "time": 273.06342800000044,
                    "velocity": 0.3543307086614173,
                    "duration": 0.6163960000000088
                },
                {
                    "name": "D3",
                    "midi": 50,
                    "time": 273.67982400000045,
                    "velocity": 0.30708661417322836,
                    "duration": 1.2327920000000177
                },
                {
                    "name": "E3",
                    "midi": 52,
                    "time": 273.67982400000045,
                    "velocity": 0.30708661417322836,
                    "duration": 1.8491880000000265
                },
                {
                    "name": "G#3",
                    "midi": 56,
                    "time": 273.67982400000045,
                    "velocity": 0.30708661417322836,
                    "duration": 1.2327920000000177
                },
                {
                    "name": "B3",
                    "midi": 59,
                    "time": 273.67982400000045,
                    "velocity": 0.3700787401574803,
                    "duration": 1.2327920000000177
                },
                {
                    "name": "C#3",
                    "midi": 49,
                    "time": 274.91261600000047,
                    "velocity": 0.30708661417322836,
                    "duration": 1.2327920000000177
                },
                {
                    "name": "A3",
                    "midi": 57,
                    "time": 274.91261600000047,
                    "velocity": 0.3700787401574803,
                    "duration": 1.2327920000000177
                },
                {
                    "name": "B4",
                    "midi": 71,
                    "time": 277.3782000000005,
                    "velocity": 0.4881889763779528,
                    "duration": 1.2327920000000177
                },
                {
                    "name": "G#4",
                    "midi": 68,
                    "time": 277.58366533333384,
                    "velocity": 0.2440944881889764,
                    "duration": 0.20546533333333628
                },
                {
                    "name": "E4",
                    "midi": 64,
                    "time": 277.7891306666672,
                    "velocity": 0.2440944881889764,
                    "duration": 0.20546533333333628
                },
                {
                    "name": "G#4",
                    "midi": 68,
                    "time": 277.9945960000005,
                    "velocity": 0.2440944881889764,
                    "duration": 0.20546533333333628
                },
                {
                    "name": "E4",
                    "midi": 64,
                    "time": 278.20006133333385,
                    "velocity": 0.2440944881889764,
                    "duration": 0.20546533333333628
                },
                {
                    "name": "B3",
                    "midi": 59,
                    "time": 278.4055266666672,
                    "velocity": 0.2440944881889764,
                    "duration": 0.20546533333333628
                },
                {
                    "name": "B4",
                    "midi": 71,
                    "time": 278.6109920000005,
                    "velocity": 0.49606299212598426,
                    "duration": 1.2327920000000177
                },
                {
                    "name": "G#4",
                    "midi": 68,
                    "time": 278.81645733333386,
                    "velocity": 0.2440944881889764,
                    "duration": 0.20546533333333628
                },
                {
                    "name": "E4",
                    "midi": 64,
                    "time": 279.0219226666672,
                    "velocity": 0.2440944881889764,
                    "duration": 0.20546533333333628
                },
                {
                    "name": "G#4",
                    "midi": 68,
                    "time": 279.22738800000053,
                    "velocity": 0.2440944881889764,
                    "duration": 0.20546533333333628
                },
                {
                    "name": "E4",
                    "midi": 64,
                    "time": 279.43285333333387,
                    "velocity": 0.2440944881889764,
                    "duration": 0.20546533333333628
                },
                {
                    "name": "B3",
                    "midi": 59,
                    "time": 279.6383186666672,
                    "velocity": 0.2440944881889764,
                    "duration": 0.20546533333333628
                },
                {
                    "name": "C#5",
                    "midi": 73,
                    "time": 279.84378400000054,
                    "velocity": 0.4881889763779528,
                    "duration": 1.2327920000000177
                },
                {
                    "name": "A#4",
                    "midi": 70,
                    "time": 280.0492493333339,
                    "velocity": 0.2440944881889764,
                    "duration": 0.20546533333333628
                },
                {
                    "name": "F#4",
                    "midi": 66,
                    "time": 280.2547146666672,
                    "velocity": 0.25196850393700787,
                    "duration": 0.20546533333333628
                },
                {
                    "name": "A#4",
                    "midi": 70,
                    "time": 280.46018000000055,
                    "velocity": 0.25196850393700787,
                    "duration": 0.20546533333333628
                },
                {
                    "name": "F#4",
                    "midi": 66,
                    "time": 280.6656453333339,
                    "velocity": 0.25196850393700787,
                    "duration": 0.20546533333333628
                },
                {
                    "name": "E4",
                    "midi": 64,
                    "time": 280.8711106666672,
                    "velocity": 0.25196850393700787,
                    "duration": 0.20546533333333628
                },
                {
                    "name": "D5",
                    "midi": 74,
                    "time": 281.07657600000056,
                    "velocity": 0.49606299212598426,
                    "duration": 1.078692999999987
                },
                {
                    "name": "B4",
                    "midi": 71,
                    "time": 281.2820413333339,
                    "velocity": 0.25196850393700787,
                    "duration": 0.20546533333333628
                },
                {
                    "name": "F#4",
                    "midi": 66,
                    "time": 281.48750666666723,
                    "velocity": 0.25196850393700787,
                    "duration": 0.20546533333333628
                },
                {
                    "name": "B4",
                    "midi": 71,
                    "time": 281.69297200000057,
                    "velocity": 0.25196850393700787,
                    "duration": 0.20546533333333628
                },
                {
                    "name": "F#4",
                    "midi": 66,
                    "time": 281.8984373333339,
                    "velocity": 0.25196850393700787,
                    "duration": 0.20546533333333628
                },
                {
                    "name": "C#5",
                    "midi": 73,
                    "time": 282.10390266666724,
                    "velocity": 0.1968503937007874,
                    "duration": 0.20546533333327943
                },
                {
                    "name": "E5",
                    "midi": 76,
                    "time": 282.15526900000054,
                    "velocity": 0.4409448818897638,
                    "duration": 0.15409899999997378
                },
                {
                    "name": "F#5",
                    "midi": 78,
                    "time": 282.3093680000005,
                    "velocity": 0.4645669291338583,
                    "duration": 1.8491880000000265
                },
                {
                    "name": "D5",
                    "midi": 74,
                    "time": 282.51483333333385,
                    "velocity": 0.2440944881889764,
                    "duration": 0.20546533333333628
                },
                {
                    "name": "B4",
                    "midi": 71,
                    "time": 282.7202986666672,
                    "velocity": 0.2440944881889764,
                    "duration": 0.20546533333333628
                },
                {
                    "name": "D5",
                    "midi": 74,
                    "time": 282.9257640000005,
                    "velocity": 0.2440944881889764,
                    "duration": 0.20546533333333628
                },
                {
                    "name": "B4",
                    "midi": 71,
                    "time": 283.13122933333386,
                    "velocity": 0.2440944881889764,
                    "duration": 0.20546533333333628
                },
                {
                    "name": "F#4",
                    "midi": 66,
                    "time": 283.3366946666672,
                    "velocity": 0.2440944881889764,
                    "duration": 0.20546533333333628
                },
                {
                    "name": "D5",
                    "midi": 74,
                    "time": 283.7476253333339,
                    "velocity": 0.25196850393700787,
                    "duration": 0.20546533333333628
                },
                {
                    "name": "B4",
                    "midi": 71,
                    "time": 283.9530906666672,
                    "velocity": 0.25196850393700787,
                    "duration": 0.20546533333333628
                },
                {
                    "name": "D5",
                    "midi": 74,
                    "time": 284.15855600000054,
                    "velocity": 0.25196850393700787,
                    "duration": 0.20546533333333628
                },
                {
                    "name": "F#5",
                    "midi": 78,
                    "time": 284.15855600000054,
                    "velocity": 0.49606299212598426,
                    "duration": 0.6163960000000088
                },
                {
                    "name": "B4",
                    "midi": 71,
                    "time": 284.3640213333339,
                    "velocity": 0.25196850393700787,
                    "duration": 0.20546533333333628
                },
                {
                    "name": "G#4",
                    "midi": 68,
                    "time": 284.5694866666672,
                    "velocity": 0.25196850393700787,
                    "duration": 0.20546533333333628
                },
                {
                    "name": "F#5",
                    "midi": 78,
                    "time": 284.77495200000055,
                    "velocity": 0.5275590551181102,
                    "duration": 1.078692999999987
                },
                {
                    "name": "D5",
                    "midi": 74,
                    "time": 284.9804173333339,
                    "velocity": 0.2677165354330709,
                    "duration": 0.20546533333333628
                },
                {
                    "name": "A4",
                    "midi": 69,
                    "time": 285.1858826666672,
                    "velocity": 0.2677165354330709,
                    "duration": 0.20546533333333628
                },
                {
                    "name": "D5",
                    "midi": 74,
                    "time": 285.39134800000056,
                    "velocity": 0.2677165354330709,
                    "duration": 0.20546533333333628
                },
                {
                    "name": "A4",
                    "midi": 69,
                    "time": 285.5968133333339,
                    "velocity": 0.2677165354330709,
                    "duration": 0.20546533333333628
                },
                {
                    "name": "B4",
                    "midi": 71,
                    "time": 285.80227866666723,
                    "velocity": 0.25196850393700787,
                    "duration": 0.20546533333327943
                },
                {
                    "name": "G5",
                    "midi": 79,
                    "time": 285.85364500000054,
                    "velocity": 0.4881889763779528,
                    "duration": 0.15409899999997378
                },
                {
                    "name": "A5",
                    "midi": 81,
                    "time": 286.0077440000005,
                    "velocity": 0.5196850393700787,
                    "duration": 0.6163960000000088
                },
                {
                    "name": "A4",
                    "midi": 69,
                    "time": 286.21320933333385,
                    "velocity": 0.25196850393700787,
                    "duration": 0.20546533333333628
                },
                {
                    "name": "D5",
                    "midi": 74,
                    "time": 286.4186746666672,
                    "velocity": 0.25196850393700787,
                    "duration": 0.20546533333333628
                },
                {
                    "name": "G5",
                    "midi": 79,
                    "time": 286.6241400000005,
                    "velocity": 0.4881889763779528,
                    "duration": 0.6163960000000088
                },
                {
                    "name": "B4",
                    "midi": 71,
                    "time": 286.82960533333386,
                    "velocity": 0.23622047244094488,
                    "duration": 0.20546533333333628
                },
                {
                    "name": "D5",
                    "midi": 74,
                    "time": 287.0350706666672,
                    "velocity": 0.23622047244094488,
                    "duration": 0.20546533333333628
                },
                {
                    "name": "F#5",
                    "midi": 78,
                    "time": 287.24053600000053,
                    "velocity": 0.4881889763779528,
                    "duration": 0.6163960000000088
                },
                {
                    "name": "A4",
                    "midi": 69,
                    "time": 287.44600133333387,
                    "velocity": 0.25196850393700787,
                    "duration": 0.20546533333333628
                },
                {
                    "name": "D5",
                    "midi": 74,
                    "time": 287.6514666666672,
                    "velocity": 0.25196850393700787,
                    "duration": 0.20546533333333628
                },
                {
                    "name": "E5",
                    "midi": 76,
                    "time": 287.85693200000054,
                    "velocity": 0.4881889763779528,
                    "duration": 0.6163960000000088
                },
                {
                    "name": "G4",
                    "midi": 67,
                    "time": 288.0623973333339,
                    "velocity": 0.25196850393700787,
                    "duration": 0.20546533333333628
                },
                {
                    "name": "A4",
                    "midi": 69,
                    "time": 288.2678626666672,
                    "velocity": 0.25196850393700787,
                    "duration": 0.20546533333333628
                },
                {
                    "name": "E5",
                    "midi": 76,
                    "time": 288.47332800000055,
                    "velocity": 0.5196850393700787,
                    "duration": 1.2327920000000177
                },
                {
                    "name": "C#5",
                    "midi": 73,
                    "time": 288.6787933333339,
                    "velocity": 0.2440944881889764,
                    "duration": 0.20546533333333628
                },
                {
                    "name": "A4",
                    "midi": 69,
                    "time": 288.8842586666672,
                    "velocity": 0.2440944881889764,
                    "duration": 0.20546533333333628
                },
                {
                    "name": "C#5",
                    "midi": 73,
                    "time": 289.08972400000056,
                    "velocity": 0.2440944881889764,
                    "duration": 0.20546533333333628
                },
                {
                    "name": "A4",
                    "midi": 69,
                    "time": 289.2951893333339,
                    "velocity": 0.2440944881889764,
                    "duration": 0.20546533333333628
                },
                {
                    "name": "G4",
                    "midi": 67,
                    "time": 289.50065466666723,
                    "velocity": 0.2440944881889764,
                    "duration": 0.20546533333333628
                },
                {
                    "name": "D5",
                    "midi": 74,
                    "time": 289.70612000000057,
                    "velocity": 0.5196850393700787,
                    "duration": 2.4655840000000353
                },
                {
                    "name": "A4",
                    "midi": 69,
                    "time": 289.9115853333339,
                    "velocity": 0.2440944881889764,
                    "duration": 0.20546533333333628
                },
                {
                    "name": "F#4",
                    "midi": 66,
                    "time": 290.11705066666724,
                    "velocity": 0.2440944881889764,
                    "duration": 0.20546533333333628
                },
                {
                    "name": "A4",
                    "midi": 69,
                    "time": 290.3225160000006,
                    "velocity": 0.2677165354330709,
                    "duration": 0.20546533333333628
                },
                {
                    "name": "F#4",
                    "midi": 66,
                    "time": 290.5279813333339,
                    "velocity": 0.25196850393700787,
                    "duration": 0.20546533333333628
                },
                {
                    "name": "D4",
                    "midi": 62,
                    "time": 290.73344666666725,
                    "velocity": 0.25196850393700787,
                    "duration": 0.20546533333333628
                },
                {
                    "name": "F#4",
                    "midi": 66,
                    "time": 291.1443773333339,
                    "velocity": 0.25984251968503935,
                    "duration": 0.20546533333333628
                },
                {
                    "name": "D4",
                    "midi": 62,
                    "time": 291.34984266666726,
                    "velocity": 0.25196850393700787,
                    "duration": 0.20546533333333628
                },
                {
                    "name": "A4",
                    "midi": 69,
                    "time": 291.5553080000006,
                    "velocity": 0.25196850393700787,
                    "duration": 0.20546533333333628
                },
                {
                    "name": "F#4",
                    "midi": 66,
                    "time": 291.76077333333393,
                    "velocity": 0.2204724409448819,
                    "duration": 0.20546533333333628
                },
                {
                    "name": "D4",
                    "midi": 62,
                    "time": 291.96623866666727,
                    "velocity": 0.2125984251968504,
                    "duration": 0.20546533333333628
                },
                {
                    "name": "A#4",
                    "midi": 70,
                    "time": 292.1717040000006,
                    "velocity": 0.3464566929133858,
                    "duration": 1.2327920000000177
                },
                {
                    "name": "F4",
                    "midi": 65,
                    "time": 292.37716933333394,
                    "velocity": 0.1889763779527559,
                    "duration": 0.20546533333333628
                },
                {
                    "name": "D4",
                    "midi": 62,
                    "time": 292.5826346666673,
                    "velocity": 0.1889763779527559,
                    "duration": 0.20546533333333628
                },
                {
                    "name": "F4",
                    "midi": 65,
                    "time": 292.7881000000006,
                    "velocity": 0.1889763779527559,
                    "duration": 0.20546533333333628
                },
                {
                    "name": "D4",
                    "midi": 62,
                    "time": 292.99356533333395,
                    "velocity": 0.1889763779527559,
                    "duration": 0.20546533333333628
                },
                {
                    "name": "A#3",
                    "midi": 58,
                    "time": 293.1990306666673,
                    "velocity": 0.1889763779527559,
                    "duration": 0.20546533333333628
                },
                {
                    "name": "A#4",
                    "midi": 70,
                    "time": 293.4044960000006,
                    "velocity": 0.3543307086614173,
                    "duration": 1.2327920000000177
                },
                {
                    "name": "F4",
                    "midi": 65,
                    "time": 293.60996133333396,
                    "velocity": 0.1889763779527559,
                    "duration": 0.20546533333333628
                },
                {
                    "name": "D4",
                    "midi": 62,
                    "time": 293.8154266666673,
                    "velocity": 0.1889763779527559,
                    "duration": 0.20546533333333628
                },
                {
                    "name": "F4",
                    "midi": 65,
                    "time": 294.02089200000063,
                    "velocity": 0.1889763779527559,
                    "duration": 0.20546533333333628
                },
                {
                    "name": "D4",
                    "midi": 62,
                    "time": 294.22635733333397,
                    "velocity": 0.1889763779527559,
                    "duration": 0.20546533333333628
                },
                {
                    "name": "A#3",
                    "midi": 58,
                    "time": 294.4318226666673,
                    "velocity": 0.1889763779527559,
                    "duration": 0.20546533333333628
                },
                {
                    "name": "A#4",
                    "midi": 70,
                    "time": 294.63728800000064,
                    "velocity": 0.3464566929133858,
                    "duration": 1.2327920000000177
                },
                {
                    "name": "F4",
                    "midi": 65,
                    "time": 294.842753333334,
                    "velocity": 0.1889763779527559,
                    "duration": 0.20546533333333628
                },
                {
                    "name": "D4",
                    "midi": 62,
                    "time": 295.0482186666673,
                    "velocity": 0.1968503937007874,
                    "duration": 0.20546533333333628
                },
                {
                    "name": "F4",
                    "midi": 65,
                    "time": 295.25368400000065,
                    "velocity": 0.1968503937007874,
                    "duration": 0.20546533333333628
                },
                {
                    "name": "D4",
                    "midi": 62,
                    "time": 295.459149333334,
                    "velocity": 0.1968503937007874,
                    "duration": 0.20546533333333628
                },
                {
                    "name": "A#3",
                    "midi": 58,
                    "time": 295.6646146666673,
                    "velocity": 0.1968503937007874,
                    "duration": 0.20546533333333628
                },
                {
                    "name": "A#4",
                    "midi": 70,
                    "time": 295.87008000000066,
                    "velocity": 0.3543307086614173,
                    "duration": 1.2327920000000177
                },
                {
                    "name": "G4",
                    "midi": 67,
                    "time": 296.075545333334,
                    "velocity": 0.1968503937007874,
                    "duration": 0.20546533333333628
                },
                {
                    "name": "D#4",
                    "midi": 63,
                    "time": 296.2810106666673,
                    "velocity": 0.1968503937007874,
                    "duration": 0.20546533333333628
                },
                {
                    "name": "G4",
                    "midi": 67,
                    "time": 296.48647600000066,
                    "velocity": 0.1968503937007874,
                    "duration": 0.20546533333333628
                },
                {
                    "name": "D#4",
                    "midi": 63,
                    "time": 296.691941333334,
                    "velocity": 0.1968503937007874,
                    "duration": 0.20546533333333628
                },
                {
                    "name": "A#3",
                    "midi": 58,
                    "time": 296.89740666666734,
                    "velocity": 0.1968503937007874,
                    "duration": 0.20546533333333628
                },
                {
                    "name": "G4",
                    "midi": 67,
                    "time": 297.1028720000007,
                    "velocity": 0.30708661417322836,
                    "duration": 0.6163960000000088
                },
                {
                    "name": "D#4",
                    "midi": 63,
                    "time": 297.308337333334,
                    "velocity": 0.1889763779527559,
                    "duration": 0.20546533333333628
                },
                {
                    "name": "A#3",
                    "midi": 58,
                    "time": 297.51380266666735,
                    "velocity": 0.1889763779527559,
                    "duration": 0.20546533333333628
                },
                {
                    "name": "G5",
                    "midi": 79,
                    "time": 297.7192680000007,
                    "velocity": 0.33070866141732286,
                    "duration": 0.6163960000000088
                },
                {
                    "name": "D#5",
                    "midi": 75,
                    "time": 297.924733333334,
                    "velocity": 0.1889763779527559,
                    "duration": 0.20546533333333628
                },
                {
                    "name": "G4",
                    "midi": 67,
                    "time": 298.13019866666735,
                    "velocity": 0.1889763779527559,
                    "duration": 0.20546533333333628
                },
                {
                    "name": "F5",
                    "midi": 77,
                    "time": 298.3356640000007,
                    "velocity": 0.33070866141732286,
                    "duration": 0.6163960000000088
                },
                {
                    "name": "B4",
                    "midi": 71,
                    "time": 298.541129333334,
                    "velocity": 0.1968503937007874,
                    "duration": 0.20546533333333628
                },
                {
                    "name": "G4",
                    "midi": 67,
                    "time": 298.74659466666736,
                    "velocity": 0.1968503937007874,
                    "duration": 0.20546533333333628
                },
                {
                    "name": "D#5",
                    "midi": 75,
                    "time": 298.9520600000007,
                    "velocity": 0.3543307086614173,
                    "duration": 0.6163960000000088
                },
                {
                    "name": "C5",
                    "midi": 72,
                    "time": 299.15752533333404,
                    "velocity": 0.1968503937007874,
                    "duration": 0.20546533333333628
                },
                {
                    "name": "G4",
                    "midi": 67,
                    "time": 299.3629906666674,
                    "velocity": 0.1968503937007874,
                    "duration": 0.20546533333333628
                },
                {
                    "name": "D5",
                    "midi": 74,
                    "time": 299.5684560000007,
                    "velocity": 0.3543307086614173,
                    "duration": 2.4655840000000353
                },
                {
                    "name": "A#4",
                    "midi": 70,
                    "time": 299.77392133333404,
                    "velocity": 0.2125984251968504,
                    "duration": 0.20546533333333628
                },
                {
                    "name": "F4",
                    "midi": 65,
                    "time": 299.9793866666674,
                    "velocity": 0.2125984251968504,
                    "duration": 0.20546533333333628
                },
                {
                    "name": "A#4",
                    "midi": 70,
                    "time": 300.1848520000007,
                    "velocity": 0.2125984251968504,
                    "duration": 0.20546533333333628
                },
                {
                    "name": "F4",
                    "midi": 65,
                    "time": 300.39031733333405,
                    "velocity": 0.2125984251968504,
                    "duration": 0.20546533333333628
                },
                {
                    "name": "D4",
                    "midi": 62,
                    "time": 300.5957826666674,
                    "velocity": 0.1968503937007874,
                    "duration": 0.20546533333333628
                },
                {
                    "name": "A#4",
                    "midi": 70,
                    "time": 301.00671333333406,
                    "velocity": 0.2125984251968504,
                    "duration": 0.20546533333333628
                },
                {
                    "name": "F4",
                    "midi": 65,
                    "time": 301.2121786666674,
                    "velocity": 0.2125984251968504,
                    "duration": 0.20546533333333628
                },
                {
                    "name": "A#4",
                    "midi": 70,
                    "time": 301.41764400000073,
                    "velocity": 0.2125984251968504,
                    "duration": 0.20546533333333628
                },
                {
                    "name": "F4",
                    "midi": 65,
                    "time": 301.62310933333407,
                    "velocity": 0.1968503937007874,
                    "duration": 0.20546533333333628
                },
                {
                    "name": "D4",
                    "midi": 62,
                    "time": 301.8285746666674,
                    "velocity": 0.1968503937007874,
                    "duration": 0.20546533333333628
                },
                {
                    "name": "D#5",
                    "midi": 75,
                    "time": 302.03404000000074,
                    "velocity": 0.3464566929133858,
                    "duration": 1.078692999999987
                },
                {
                    "name": "C5",
                    "midi": 72,
                    "time": 302.2395053333341,
                    "velocity": 0.1968503937007874,
                    "duration": 0.20546533333333628
                },
                {
                    "name": "A4",
                    "midi": 69,
                    "time": 302.4449706666674,
                    "velocity": 0.1968503937007874,
                    "duration": 0.20546533333333628
                },
                {
                    "name": "C5",
                    "midi": 72,
                    "time": 302.65043600000075,
                    "velocity": 0.2125984251968504,
                    "duration": 0.616395999999952
                },
                {
                    "name": "A4",
                    "midi": 69,
                    "time": 302.8559013333341,
                    "velocity": 0.1968503937007874,
                    "duration": 0.20546533333333628
                },
                {
                    "name": "D#4",
                    "midi": 63,
                    "time": 303.0613666666674,
                    "velocity": 0.1968503937007874,
                    "duration": 0.20546533333327943
                },
                {
                    "name": "C5",
                    "midi": 72,
                    "time": 303.11273300000073,
                    "velocity": 0.30708661417322836,
                    "duration": 0.15409899999997378
                },
                {
                    "name": "B4",
                    "midi": 71,
                    "time": 303.2668320000007,
                    "velocity": 0.33858267716535434,
                    "duration": 3.698376000000053
                },
                {
                    "name": "G#4",
                    "midi": 68,
                    "time": 303.47229733333404,
                    "velocity": 0.1889763779527559,
                    "duration": 0.20546533333333628
                },
                {
                    "name": "D4",
                    "midi": 62,
                    "time": 303.6777626666674,
                    "velocity": 0.1889763779527559,
                    "duration": 0.20546533333333628
                },
                {
                    "name": "G#4",
                    "midi": 68,
                    "time": 303.8832280000007,
                    "velocity": 0.1889763779527559,
                    "duration": 0.20546533333333628
                },
                {
                    "name": "D4",
                    "midi": 62,
                    "time": 304.08869333333405,
                    "velocity": 0.1889763779527559,
                    "duration": 0.20546533333333628
                },
                {
                    "name": "B3",
                    "midi": 59,
                    "time": 304.2941586666674,
                    "velocity": 0.1889763779527559,
                    "duration": 0.20546533333333628
                },
                {
                    "name": "G#4",
                    "midi": 68,
                    "time": 304.70508933333406,
                    "velocity": 0.1889763779527559,
                    "duration": 0.20546533333333628
                },
                {
                    "name": "D4",
                    "midi": 62,
                    "time": 304.9105546666674,
                    "velocity": 0.1889763779527559,
                    "duration": 0.20546533333333628
                },
                {
                    "name": "G#4",
                    "midi": 68,
                    "time": 305.11602000000073,
                    "velocity": 0.2125984251968504,
                    "duration": 0.20546533333333628
                },
                {
                    "name": "D4",
                    "midi": 62,
                    "time": 305.32148533333407,
                    "velocity": 0.1968503937007874,
                    "duration": 0.20546533333333628
                },
                {
                    "name": "B3",
                    "midi": 59,
                    "time": 305.5269506666674,
                    "velocity": 0.1968503937007874,
                    "duration": 0.20546533333333628
                },
                {
                    "name": "G#4",
                    "midi": 68,
                    "time": 305.9378813333341,
                    "velocity": 0.2125984251968504,
                    "duration": 0.20546533333333628
                },
                {
                    "name": "D4",
                    "midi": 62,
                    "time": 306.1433466666674,
                    "velocity": 0.2125984251968504,
                    "duration": 0.20546533333333628
                },
                {
                    "name": "G#4",
                    "midi": 68,
                    "time": 306.34881200000075,
                    "velocity": 0.2204724409448819,
                    "duration": 0.20546533333333628
                },
                {
                    "name": "D4",
                    "midi": 62,
                    "time": 306.5542773333341,
                    "velocity": 0.1968503937007874,
                    "duration": 0.20546533333333628
                },
                {
                    "name": "B3",
                    "midi": 59,
                    "time": 306.7597426666674,
                    "velocity": 0.1968503937007874,
                    "duration": 0.20546533333333628
                },
                {
                    "name": "B4",
                    "midi": 71,
                    "time": 306.96520800000076,
                    "velocity": 0.33070866141732286,
                    "duration": 2.4655840000000353
                },
                {
                    "name": "G#4",
                    "midi": 68,
                    "time": 307.1706733333341,
                    "velocity": 0.1889763779527559,
                    "duration": 0.20546533333333628
                },
                {
                    "name": "C#4",
                    "midi": 61,
                    "time": 307.37613866666743,
                    "velocity": 0.1889763779527559,
                    "duration": 0.20546533333333628
                },
                {
                    "name": "G#4",
                    "midi": 68,
                    "time": 307.58160400000077,
                    "velocity": 0.1889763779527559,
                    "duration": 0.20546533333333628
                },
                {
                    "name": "C#4",
                    "midi": 61,
                    "time": 307.7870693333341,
                    "velocity": 0.1889763779527559,
                    "duration": 0.20546533333333628
                },
                {
                    "name": "B3",
                    "midi": 59,
                    "time": 307.99253466666744,
                    "velocity": 0.1889763779527559,
                    "duration": 0.20546533333333628
                },
                {
                    "name": "G#4",
                    "midi": 68,
                    "time": 308.4034653333341,
                    "velocity": 0.1889763779527559,
                    "duration": 0.20546533333333628
                },
                {
                    "name": "C#4",
                    "midi": 61,
                    "time": 308.60893066666745,
                    "velocity": 0.1889763779527559,
                    "duration": 0.20546533333333628
                },
                {
                    "name": "G#4",
                    "midi": 68,
                    "time": 308.8143960000008,
                    "velocity": 0.2125984251968504,
                    "duration": 0.20546533333333628
                },
                {
                    "name": "C#4",
                    "midi": 61,
                    "time": 309.0198613333341,
                    "velocity": 0.1968503937007874,
                    "duration": 0.20546533333333628
                },
                {
                    "name": "B3",
                    "midi": 59,
                    "time": 309.22532666666746,
                    "velocity": 0.1968503937007874,
                    "duration": 0.20546533333333628
                },
                {
                    "name": "B4",
                    "midi": 71,
                    "time": 309.4307920000008,
                    "velocity": 0.33858267716535434,
                    "duration": 1.2327920000000177
                },
                {
                    "name": "G#4",
                    "midi": 68,
                    "time": 309.63625733333413,
                    "velocity": 0.2125984251968504,
                    "duration": 0.20546533333333628
                },
                {
                    "name": "D4",
                    "midi": 62,
                    "time": 309.84172266666747,
                    "velocity": 0.2125984251968504,
                    "duration": 0.20546533333333628
                },
                {
                    "name": "G#4",
                    "midi": 68,
                    "time": 310.0471880000008,
                    "velocity": 0.2204724409448819,
                    "duration": 0.20546533333333628
                },
                {
                    "name": "D4",
                    "midi": 62,
                    "time": 310.25265333333414,
                    "velocity": 0.2047244094488189,
                    "duration": 0.20546533333333628
                },
                {
                    "name": "B3",
                    "midi": 59,
                    "time": 310.4581186666675,
                    "velocity": 0.2125984251968504,
                    "duration": 0.20546533333333628
                },
                {
                    "name": "B4",
                    "midi": 71,
                    "time": 310.6635840000008,
                    "velocity": 0.3464566929133858,
                    "duration": 1.078692999999987
                },
                {
                    "name": "F#4",
                    "midi": 66,
                    "time": 310.86904933333415,
                    "velocity": 0.2047244094488189,
                    "duration": 0.20546533333333628
                },
                {
                    "name": "D4",
                    "midi": 62,
                    "time": 311.0745146666675,
                    "velocity": 0.2047244094488189,
                    "duration": 0.20546533333333628
                },
                {
                    "name": "F#4",
                    "midi": 66,
                    "time": 311.2799800000008,
                    "velocity": 0.1968503937007874,
                    "duration": 0.20546533333333628
                },
                {
                    "name": "D4",
                    "midi": 62,
                    "time": 311.48544533333416,
                    "velocity": 0.1968503937007874,
                    "duration": 0.20546533333333628
                },
                {
                    "name": "C#4",
                    "midi": 61,
                    "time": 311.6909106666675,
                    "velocity": 0.1889763779527559,
                    "duration": 0.20546533333333628
                },
                {
                    "name": "A4",
                    "midi": 69,
                    "time": 311.7422770000008,
                    "velocity": 0.3228346456692913,
                    "duration": 0.12841583333334938
                },
                {
                    "name": "A4",
                    "midi": 69,
                    "time": 311.8963760000008,
                    "velocity": 0.33070866141732286,
                    "duration": 2.4655840000000353
                },
                {
                    "name": "F#4",
                    "midi": 66,
                    "time": 312.10184133333416,
                    "velocity": 0.1889763779527559,
                    "duration": 0.20546533333333628
                },
                {
                    "name": "C#4",
                    "midi": 61,
                    "time": 312.3073066666675,
                    "velocity": 0.1889763779527559,
                    "duration": 0.20546533333333628
                },
                {
                    "name": "F#4",
                    "midi": 66,
                    "time": 312.51277200000084,
                    "velocity": 0.2125984251968504,
                    "duration": 0.20546533333333628
                },
                {
                    "name": "C#4",
                    "midi": 61,
                    "time": 312.7182373333342,
                    "velocity": 0.1968503937007874,
                    "duration": 0.20546533333333628
                },
                {
                    "name": "A3",
                    "midi": 57,
                    "time": 312.9237026666675,
                    "velocity": 0.1968503937007874,
                    "duration": 0.20546533333333628
                },
                {
                    "name": "F#4",
                    "midi": 66,
                    "time": 313.3346333333342,
                    "velocity": 0.2125984251968504,
                    "duration": 0.20546533333333628
                },
                {
                    "name": "C#4",
                    "midi": 61,
                    "time": 313.5400986666675,
                    "velocity": 0.2125984251968504,
                    "duration": 0.20546533333333628
                },
                {
                    "name": "F#4",
                    "midi": 66,
                    "time": 313.74556400000085,
                    "velocity": 0.2204724409448819,
                    "duration": 0.20546533333333628
                },
                {
                    "name": "C#4",
                    "midi": 61,
                    "time": 313.9510293333342,
                    "velocity": 0.1968503937007874,
                    "duration": 0.20546533333333628
                },
                {
                    "name": "A3",
                    "midi": 57,
                    "time": 314.1564946666675,
                    "velocity": 0.1968503937007874,
                    "duration": 0.20546533333333628
                },
                {
                    "name": "A4",
                    "midi": 69,
                    "time": 314.36196000000086,
                    "velocity": 0.33858267716535434,
                    "duration": 2.4655840000000353
                },
                {
                    "name": "F#4",
                    "midi": 66,
                    "time": 314.5674253333342,
                    "velocity": 0.1889763779527559,
                    "duration": 0.20546533333333628
                },
                {
                    "name": "C#4",
                    "midi": 61,
                    "time": 314.77289066666754,
                    "velocity": 0.1889763779527559,
                    "duration": 0.20546533333333628
                },
                {
                    "name": "F#4",
                    "midi": 66,
                    "time": 314.9783560000009,
                    "velocity": 0.1889763779527559,
                    "duration": 0.20546533333333628
                },
                {
                    "name": "C#4",
                    "midi": 61,
                    "time": 315.1838213333342,
                    "velocity": 0.1889763779527559,
                    "duration": 0.20546533333333628
                },
                {
                    "name": "A3",
                    "midi": 57,
                    "time": 315.38928666666754,
                    "velocity": 0.1889763779527559,
                    "duration": 0.20546533333333628
                },
                {
                    "name": "F#4",
                    "midi": 66,
                    "time": 315.8002173333342,
                    "velocity": 0.1889763779527559,
                    "duration": 0.20546533333333628
                },
                {
                    "name": "C#4",
                    "midi": 61,
                    "time": 316.00568266666755,
                    "velocity": 0.1889763779527559,
                    "duration": 0.20546533333333628
                },
                {
                    "name": "F#4",
                    "midi": 66,
                    "time": 316.2111480000009,
                    "velocity": 0.2125984251968504,
                    "duration": 0.20546533333333628
                },
                {
                    "name": "C#4",
                    "midi": 61,
                    "time": 316.4166133333342,
                    "velocity": 0.1968503937007874,
                    "duration": 0.20546533333333628
                },
                {
                    "name": "A3",
                    "midi": 57,
                    "time": 316.62207866666756,
                    "velocity": 0.1968503937007874,
                    "duration": 0.20546533333333628
                },
                {
                    "name": "A4",
                    "midi": 69,
                    "time": 316.8275440000009,
                    "velocity": 0.3228346456692913,
                    "duration": 1.2327920000000177
                },
                {
                    "name": "F#4",
                    "midi": 66,
                    "time": 317.03300933333423,
                    "velocity": 0.2125984251968504,
                    "duration": 0.20546533333333628
                },
                {
                    "name": "D4",
                    "midi": 62,
                    "time": 317.23847466666757,
                    "velocity": 0.2125984251968504,
                    "duration": 0.20546533333333628
                },
                {
                    "name": "F#4",
                    "midi": 66,
                    "time": 317.4439400000009,
                    "velocity": 0.2204724409448819,
                    "duration": 0.20546533333333628
                },
                {
                    "name": "D4",
                    "midi": 62,
                    "time": 317.64940533333424,
                    "velocity": 0.2047244094488189,
                    "duration": 0.20546533333333628
                },
                {
                    "name": "A3",
                    "midi": 57,
                    "time": 317.8548706666676,
                    "velocity": 0.2125984251968504,
                    "duration": 0.20546533333333628
                },
                {
                    "name": "A4",
                    "midi": 69,
                    "time": 318.0603360000009,
                    "velocity": 0.3543307086614173,
                    "duration": 1.078692999999987
                },
                {
                    "name": "F#4",
                    "midi": 66,
                    "time": 318.26580133333425,
                    "velocity": 0.2047244094488189,
                    "duration": 0.20546533333333628
                },
                {
                    "name": "C#4",
                    "midi": 61,
                    "time": 318.4712666666676,
                    "velocity": 0.2047244094488189,
                    "duration": 0.20546533333333628
                },
                {
                    "name": "F#4",
                    "midi": 66,
                    "time": 318.6767320000009,
                    "velocity": 0.1968503937007874,
                    "duration": 0.20546533333333628
                },
                {
                    "name": "C#4",
                    "midi": 61,
                    "time": 318.88219733333426,
                    "velocity": 0.1968503937007874,
                    "duration": 0.20546533333333628
                },
                {
                    "name": "E4",
                    "midi": 64,
                    "time": 319.0876626666676,
                    "velocity": 0.1889763779527559,
                    "duration": 0.20546533333333628
                },
                {
                    "name": "G#4",
                    "midi": 68,
                    "time": 319.1390290000009,
                    "velocity": 0.33858267716535434,
                    "duration": 0.13612078333335376
                },
                {
                    "name": "G#4",
                    "midi": 68,
                    "time": 319.29312800000093,
                    "velocity": 0.3228346456692913,
                    "duration": 2.4655840000000353
                },
                {
                    "name": "E4",
                    "midi": 64,
                    "time": 319.49859333333427,
                    "velocity": 0.1889763779527559,
                    "duration": 0.20546533333333628
                },
                {
                    "name": "C#4",
                    "midi": 61,
                    "time": 319.7040586666676,
                    "velocity": 0.1889763779527559,
                    "duration": 0.20546533333333628
                },
                {
                    "name": "E4",
                    "midi": 64,
                    "time": 319.90952400000094,
                    "velocity": 0.2125984251968504,
                    "duration": 0.20546533333333628
                },
                {
                    "name": "C#4",
                    "midi": 61,
                    "time": 320.1149893333343,
                    "velocity": 0.1968503937007874,
                    "duration": 0.20546533333333628
                },
                {
                    "name": "G#3",
                    "midi": 56,
                    "time": 320.3204546666676,
                    "velocity": 0.1968503937007874,
                    "duration": 0.20546533333333628
                },
                {
                    "name": "E4",
                    "midi": 64,
                    "time": 320.7313853333343,
                    "velocity": 0.2125984251968504,
                    "duration": 0.20546533333333628
                },
                {
                    "name": "C#4",
                    "midi": 61,
                    "time": 320.9368506666676,
                    "velocity": 0.2125984251968504,
                    "duration": 0.20546533333333628
                },
                {
                    "name": "E4",
                    "midi": 64,
                    "time": 321.14231600000096,
                    "velocity": 0.2204724409448819,
                    "duration": 0.20546533333333628
                },
                {
                    "name": "C#4",
                    "midi": 61,
                    "time": 321.3477813333343,
                    "velocity": 0.1968503937007874,
                    "duration": 0.20546533333333628
                },
                {
                    "name": "G#3",
                    "midi": 56,
                    "time": 321.55324666666763,
                    "velocity": 0.1968503937007874,
                    "duration": 0.20546533333333628
                },
                {
                    "name": "G#4",
                    "midi": 68,
                    "time": 321.75871200000097,
                    "velocity": 0.31496062992125984,
                    "duration": 2.4655840000000353
                },
                {
                    "name": "D#4",
                    "midi": 63,
                    "time": 321.9641773333343,
                    "velocity": 0.18110236220472442,
                    "duration": 0.20546533333333628
                },
                {
                    "name": "C#4",
                    "midi": 61,
                    "time": 322.16964266666764,
                    "velocity": 0.18110236220472442,
                    "duration": 0.20546533333333628
                },
                {
                    "name": "D#4",
                    "midi": 63,
                    "time": 322.375108000001,
                    "velocity": 0.18110236220472442,
                    "duration": 0.20546533333333628
                },
                {
                    "name": "C#4",
                    "midi": 61,
                    "time": 322.5805733333343,
                    "velocity": 0.1732283464566929,
                    "duration": 0.20546533333333628
                },
                {
                    "name": "G#3",
                    "midi": 56,
                    "time": 322.78603866666765,
                    "velocity": 0.1732283464566929,
                    "duration": 0.20546533333333628
                },
                {
                    "name": "D#4",
                    "midi": 63,
                    "time": 323.1969693333343,
                    "velocity": 0.1732283464566929,
                    "duration": 0.20546533333333628
                },
                {
                    "name": "C#4",
                    "midi": 61,
                    "time": 323.40243466666766,
                    "velocity": 0.1732283464566929,
                    "duration": 0.20546533333333628
                },
                {
                    "name": "D#4",
                    "midi": 63,
                    "time": 323.607900000001,
                    "velocity": 0.18110236220472442,
                    "duration": 0.20546533333333628
                },
                {
                    "name": "C#4",
                    "midi": 61,
                    "time": 323.81336533333433,
                    "velocity": 0.1732283464566929,
                    "duration": 0.20546533333333628
                },
                {
                    "name": "G#3",
                    "midi": 56,
                    "time": 324.01883066666767,
                    "velocity": 0.1732283464566929,
                    "duration": 0.20546533333333628
                },
                {
                    "name": "G#4",
                    "midi": 68,
                    "time": 324.224296000001,
                    "velocity": 0.29133858267716534,
                    "duration": 1.2327920000000177
                },
                {
                    "name": "D#4",
                    "midi": 63,
                    "time": 324.42976133333434,
                    "velocity": 0.1732283464566929,
                    "duration": 0.20546533333333628
                },
                {
                    "name": "C4",
                    "midi": 60,
                    "time": 324.6352266666677,
                    "velocity": 0.1732283464566929,
                    "duration": 0.20546533333333628
                },
                {
                    "name": "D#4",
                    "midi": 63,
                    "time": 324.840692000001,
                    "velocity": 0.18110236220472442,
                    "duration": 0.20546533333333628
                },
                {
                    "name": "C4",
                    "midi": 60,
                    "time": 325.04615733333435,
                    "velocity": 0.16535433070866143,
                    "duration": 0.20546533333333628
                },
                {
                    "name": "G#3",
                    "midi": 56,
                    "time": 325.2516226666677,
                    "velocity": 0.1732283464566929,
                    "duration": 0.20546533333333628
                },
                {
                    "name": "E4",
                    "midi": 64,
                    "time": 329.155464000001,
                    "velocity": 0.25984251968503935,
                    "duration": 2.4655840000000353
                },
                {
                    "name": "G#4",
                    "midi": 68,
                    "time": 329.155464000001,
                    "velocity": 0.30708661417322836,
                    "duration": 2.4655840000000353
                },
                {
                    "name": "C#5",
                    "midi": 73,
                    "time": 331.00465200000104,
                    "velocity": 0.2047244094488189,
                    "duration": 0.6163960000000088
                },
                {
                    "name": "E4",
                    "midi": 64,
                    "time": 331.62104800000105,
                    "velocity": 0.2283464566929134,
                    "duration": 1.078692999999987
                },
                {
                    "name": "G#4",
                    "midi": 68,
                    "time": 331.62104800000105,
                    "velocity": 0.2677165354330709,
                    "duration": 1.078692999999987
                },
                {
                    "name": "D#4",
                    "midi": 63,
                    "time": 332.69974100000104,
                    "velocity": 0.1968503937007874,
                    "duration": 0.14639405000002625
                },
                {
                    "name": "F#4",
                    "midi": 66,
                    "time": 332.69974100000104,
                    "velocity": 0.23622047244094488,
                    "duration": 0.14639405000002625
                },
                {
                    "name": "D#4",
                    "midi": 63,
                    "time": 332.85384000000107,
                    "velocity": 0.23622047244094488,
                    "duration": 2.4655840000000353
                },
                {
                    "name": "F#4",
                    "midi": 66,
                    "time": 332.85384000000107,
                    "velocity": 0.29133858267716534,
                    "duration": 2.4655840000000353
                },
                {
                    "name": "C#5",
                    "midi": 73,
                    "time": 334.7030280000011,
                    "velocity": 0.2204724409448819,
                    "duration": 0.6163960000000088
                },
                {
                    "name": "D#4",
                    "midi": 63,
                    "time": 335.3194240000011,
                    "velocity": 0.2440944881889764,
                    "duration": 1.2327920000000177
                },
                {
                    "name": "F#4",
                    "midi": 66,
                    "time": 335.3194240000011,
                    "velocity": 0.29133858267716534,
                    "duration": 1.2327920000000177
                },
                {
                    "name": "F#4",
                    "midi": 66,
                    "time": 336.5522160000011,
                    "velocity": 0.2677165354330709,
                    "duration": 2.4655840000000353
                },
                {
                    "name": "A4",
                    "midi": 69,
                    "time": 336.5522160000011,
                    "velocity": 0.3228346456692913,
                    "duration": 2.4655840000000353
                },
                {
                    "name": "C#5",
                    "midi": 73,
                    "time": 338.40140400000115,
                    "velocity": 0.2204724409448819,
                    "duration": 0.6163960000000088
                },
                {
                    "name": "F#4",
                    "midi": 66,
                    "time": 339.01780000000116,
                    "velocity": 0.2204724409448819,
                    "duration": 0.6163960000000088
                },
                {
                    "name": "A4",
                    "midi": 69,
                    "time": 339.01780000000116,
                    "velocity": 0.25984251968503935,
                    "duration": 0.6163960000000088
                },
                {
                    "name": "E4",
                    "midi": 64,
                    "time": 339.63419600000117,
                    "velocity": 0.1968503937007874,
                    "duration": 0.3081980000000044
                },
                {
                    "name": "G#4",
                    "midi": 68,
                    "time": 339.63419600000117,
                    "velocity": 0.23622047244094488,
                    "duration": 0.3081980000000044
                },
                {
                    "name": "D#4",
                    "midi": 63,
                    "time": 339.9423940000012,
                    "velocity": 0.18110236220472442,
                    "duration": 0.3081980000000044
                },
                {
                    "name": "F#4",
                    "midi": 66,
                    "time": 339.9423940000012,
                    "velocity": 0.2204724409448819,
                    "duration": 0.3081980000000044
                },
                {
                    "name": "E4",
                    "midi": 64,
                    "time": 340.2505920000012,
                    "velocity": 0.25984251968503935,
                    "duration": 2.4655840000000353
                },
                {
                    "name": "G#4",
                    "midi": 68,
                    "time": 340.2505920000012,
                    "velocity": 0.30708661417322836,
                    "duration": 2.4655840000000353
                },
                {
                    "name": "C#5",
                    "midi": 73,
                    "time": 342.0997800000012,
                    "velocity": 0.2125984251968504,
                    "duration": 0.6163960000000088
                },
                {
                    "name": "E4",
                    "midi": 64,
                    "time": 342.7161760000012,
                    "velocity": 0.2283464566929134,
                    "duration": 1.2327920000000177
                },
                {
                    "name": "G#4",
                    "midi": 68,
                    "time": 342.7161760000012,
                    "velocity": 0.2677165354330709,
                    "duration": 1.2327920000000177
                },
                {
                    "name": "F4",
                    "midi": 65,
                    "time": 343.94896800000123,
                    "velocity": 0.2677165354330709,
                    "duration": 2.4655840000000353
                },
                {
                    "name": "B4",
                    "midi": 71,
                    "time": 343.94896800000123,
                    "velocity": 0.3228346456692913,
                    "duration": 2.4655840000000353
                },
                {
                    "name": "C#5",
                    "midi": 73,
                    "time": 345.79815600000126,
                    "velocity": 0.2440944881889764,
                    "duration": 0.6163960000000088
                },
                {
                    "name": "F4",
                    "midi": 65,
                    "time": 346.41455200000127,
                    "velocity": 0.2204724409448819,
                    "duration": 0.3081980000000044
                },
                {
                    "name": "B4",
                    "midi": 71,
                    "time": 346.41455200000127,
                    "velocity": 0.25984251968503935,
                    "duration": 0.6163960000000088
                },
                {
                    "name": "G#4",
                    "midi": 68,
                    "time": 346.72275000000127,
                    "velocity": 0.2204724409448819,
                    "duration": 0.3081980000000044
                },
                {
                    "name": "F#4",
                    "midi": 66,
                    "time": 347.0309480000013,
                    "velocity": 0.1968503937007874,
                    "duration": 0.3081980000000044
                },
                {
                    "name": "A4",
                    "midi": 69,
                    "time": 347.0309480000013,
                    "velocity": 0.23622047244094488,
                    "duration": 0.3081980000000044
                },
                {
                    "name": "F4",
                    "midi": 65,
                    "time": 347.3391460000013,
                    "velocity": 0.18110236220472442,
                    "duration": 0.3081980000000044
                },
                {
                    "name": "G#4",
                    "midi": 68,
                    "time": 347.3391460000013,
                    "velocity": 0.2204724409448819,
                    "duration": 0.3081980000000044
                },
                {
                    "name": "F#4",
                    "midi": 66,
                    "time": 347.6473440000013,
                    "velocity": 0.2677165354330709,
                    "duration": 1.8491880000000265
                },
                {
                    "name": "A4",
                    "midi": 69,
                    "time": 347.6473440000013,
                    "velocity": 0.3228346456692913,
                    "duration": 1.8491880000000265
                },
                {
                    "name": "F#4",
                    "midi": 66,
                    "time": 349.4965320000013,
                    "velocity": 0.18110236220472442,
                    "duration": 0.5855761999999913
                },
                {
                    "name": "A4",
                    "midi": 69,
                    "time": 349.4965320000013,
                    "velocity": 0.2204724409448819,
                    "duration": 0.5855761999999913
                },
                {
                    "name": "C#5",
                    "midi": 73,
                    "time": 349.4965320000013,
                    "velocity": 0.2677165354330709,
                    "duration": 0.5855761999999913
                },
                {
                    "name": "F#4",
                    "midi": 66,
                    "time": 350.1129280000013,
                    "velocity": 0.2677165354330709,
                    "duration": 0.5855761999999913
                },
                {
                    "name": "A4",
                    "midi": 69,
                    "time": 350.1129280000013,
                    "velocity": 0.31496062992125984,
                    "duration": 0.5855761999999913
                },
                {
                    "name": "F#4",
                    "midi": 66,
                    "time": 350.7293240000013,
                    "velocity": 0.2677165354330709,
                    "duration": 0.5855761999999913
                },
                {
                    "name": "A4",
                    "midi": 69,
                    "time": 350.7293240000013,
                    "velocity": 0.3228346456692913,
                    "duration": 0.5855761999999913
                },
                {
                    "name": "A4",
                    "midi": 69,
                    "time": 351.34572000000134,
                    "velocity": 0.3228346456692913,
                    "duration": 2.4655840000000353
                },
                {
                    "name": "C#5",
                    "midi": 73,
                    "time": 351.34572000000134,
                    "velocity": 0.3858267716535433,
                    "duration": 2.4655840000000353
                },
                {
                    "name": "C#5",
                    "midi": 73,
                    "time": 353.19490800000136,
                    "velocity": 0.2992125984251969,
                    "duration": 0.6163960000000088
                },
                {
                    "name": "A4",
                    "midi": 69,
                    "time": 353.81130400000137,
                    "velocity": 0.25984251968503935,
                    "duration": 0.9245940000000132
                },
                {
                    "name": "C#5",
                    "midi": 73,
                    "time": 353.81130400000137,
                    "velocity": 0.30708661417322836,
                    "duration": 0.9245940000000132
                },
                {
                    "name": "F#4",
                    "midi": 66,
                    "time": 354.7358980000014,
                    "velocity": 0.18110236220472442,
                    "duration": 0.3081980000000044
                },
                {
                    "name": "A4",
                    "midi": 69,
                    "time": 354.7358980000014,
                    "velocity": 0.2204724409448819,
                    "duration": 0.3081980000000044
                },
                {
                    "name": "E4",
                    "midi": 64,
                    "time": 355.0440960000014,
                    "velocity": 0.23622047244094488,
                    "duration": 3.081980000000044
                },
                {
                    "name": "G#4",
                    "midi": 68,
                    "time": 355.0440960000014,
                    "velocity": 0.29133858267716534,
                    "duration": 3.081980000000044
                },
                {
                    "name": "C#5",
                    "midi": 73,
                    "time": 356.8932840000014,
                    "velocity": 0.2204724409448819,
                    "duration": 0.6163960000000088
                },
                {
                    "name": "E4",
                    "midi": 64,
                    "time": 358.12607600000143,
                    "velocity": 0.2677165354330709,
                    "duration": 0.6163960000000088
                },
                {
                    "name": "G#4",
                    "midi": 68,
                    "time": 358.12607600000143,
                    "velocity": 0.3228346456692913,
                    "duration": 0.6163960000000088
                },
                {
                    "name": "E4",
                    "midi": 64,
                    "time": 358.74247200000144,
                    "velocity": 0.33070866141732286,
                    "duration": 0.9245940000000132
                },
                {
                    "name": "A4",
                    "midi": 69,
                    "time": 358.74247200000144,
                    "velocity": 0.33070866141732286,
                    "duration": 0.9245940000000132
                },
                {
                    "name": "C#5",
                    "midi": 73,
                    "time": 358.74247200000144,
                    "velocity": 0.3937007874015748,
                    "duration": 0.9245940000000132
                },
                {
                    "name": "D#4",
                    "midi": 63,
                    "time": 359.66706600000145,
                    "velocity": 0.29133858267716534,
                    "duration": 0.29278809999999567
                },
                {
                    "name": "G#4",
                    "midi": 68,
                    "time": 359.66706600000145,
                    "velocity": 0.29133858267716534,
                    "duration": 0.29278809999999567
                },
                {
                    "name": "C5",
                    "midi": 72,
                    "time": 359.66706600000145,
                    "velocity": 0.3464566929133858,
                    "duration": 0.29278809999999567
                },
                {
                    "name": "D#4",
                    "midi": 63,
                    "time": 359.97526400000146,
                    "velocity": 0.33070866141732286,
                    "duration": 1.8491880000000265
                },
                {
                    "name": "G#4",
                    "midi": 68,
                    "time": 359.97526400000146,
                    "velocity": 0.33070866141732286,
                    "duration": 1.8491880000000265
                },
                {
                    "name": "C5",
                    "midi": 72,
                    "time": 359.97526400000146,
                    "velocity": 0.3858267716535433,
                    "duration": 1.8491880000000265
                },
                {
                    "name": "G#5",
                    "midi": 80,
                    "time": 360.59166000000147,
                    "velocity": 0.33858267716535434,
                    "duration": 0.6163960000000088
                },
                {
                    "name": "G#4",
                    "midi": 68,
                    "time": 361.8244520000015,
                    "velocity": 0.3543307086614173,
                    "duration": 0.6163960000000088
                },
                {
                    "name": "C5",
                    "midi": 72,
                    "time": 361.8244520000015,
                    "velocity": 0.4330708661417323,
                    "duration": 0.6163960000000088
                },
                {
                    "name": "G4",
                    "midi": 67,
                    "time": 362.4408480000015,
                    "velocity": 0.4015748031496063,
                    "duration": 0.9245940000000132
                },
                {
                    "name": "C#5",
                    "midi": 73,
                    "time": 362.4408480000015,
                    "velocity": 0.4015748031496063,
                    "duration": 0.9245940000000132
                },
                {
                    "name": "E5",
                    "midi": 76,
                    "time": 362.4408480000015,
                    "velocity": 0.47244094488188976,
                    "duration": 0.9245940000000132
                },
                {
                    "name": "G#4",
                    "midi": 68,
                    "time": 363.3654420000015,
                    "velocity": 0.3543307086614173,
                    "duration": 0.29278809999999567
                },
                {
                    "name": "C5",
                    "midi": 72,
                    "time": 363.3654420000015,
                    "velocity": 0.3543307086614173,
                    "duration": 0.29278809999999567
                },
                {
                    "name": "D#5",
                    "midi": 75,
                    "time": 363.3654420000015,
                    "velocity": 0.41732283464566927,
                    "duration": 0.29278809999999567
                },
                {
                    "name": "G#4",
                    "midi": 68,
                    "time": 363.6736400000015,
                    "velocity": 0.3937007874015748,
                    "duration": 1.8491880000000265
                },
                {
                    "name": "C5",
                    "midi": 72,
                    "time": 363.6736400000015,
                    "velocity": 0.3937007874015748,
                    "duration": 1.8491880000000265
                },
                {
                    "name": "D#5",
                    "midi": 75,
                    "time": 363.6736400000015,
                    "velocity": 0.47244094488188976,
                    "duration": 1.8491880000000265
                },
                {
                    "name": "G#5",
                    "midi": 80,
                    "time": 364.2900360000015,
                    "velocity": 0.41732283464566927,
                    "duration": 0.6163960000000088
                },
                {
                    "name": "G#4",
                    "midi": 68,
                    "time": 365.52282800000154,
                    "velocity": 0.4094488188976378,
                    "duration": 0.6163960000000088
                },
                {
                    "name": "C5",
                    "midi": 72,
                    "time": 365.52282800000154,
                    "velocity": 0.4094488188976378,
                    "duration": 0.6163960000000088
                },
                {
                    "name": "D#5",
                    "midi": 75,
                    "time": 365.52282800000154,
                    "velocity": 0.49606299212598426,
                    "duration": 0.6163960000000088
                },
                {
                    "name": "G#4",
                    "midi": 68,
                    "time": 366.13922400000155,
                    "velocity": 0.4566929133858268,
                    "duration": 0.9245940000000132
                },
                {
                    "name": "E5",
                    "midi": 76,
                    "time": 366.13922400000155,
                    "velocity": 0.4566929133858268,
                    "duration": 0.9245940000000132
                },
                {
                    "name": "G#5",
                    "midi": 80,
                    "time": 366.13922400000155,
                    "velocity": 0.5433070866141733,
                    "duration": 0.9245940000000132
                },
                {
                    "name": "A4",
                    "midi": 69,
                    "time": 367.06381800000156,
                    "velocity": 0.4094488188976378,
                    "duration": 0.29278809999999567
                },
                {
                    "name": "D#5",
                    "midi": 75,
                    "time": 367.06381800000156,
                    "velocity": 0.4094488188976378,
                    "duration": 0.29278809999999567
                },
                {
                    "name": "F#5",
                    "midi": 78,
                    "time": 367.06381800000156,
                    "velocity": 0.48031496062992124,
                    "duration": 0.29278809999999567
                },
                {
                    "name": "A4",
                    "midi": 69,
                    "time": 367.37201600000157,
                    "velocity": 0.4566929133858268,
                    "duration": 1.8491880000000265
                },
                {
                    "name": "D#5",
                    "midi": 75,
                    "time": 367.37201600000157,
                    "velocity": 0.4566929133858268,
                    "duration": 1.8491880000000265
                },
                {
                    "name": "F#5",
                    "midi": 78,
                    "time": 367.37201600000157,
                    "velocity": 0.5433070866141733,
                    "duration": 1.8491880000000265
                },
                {
                    "name": "G#5",
                    "midi": 80,
                    "time": 367.9884120000016,
                    "velocity": 0.48031496062992124,
                    "duration": 0.6163960000000088
                },
                {
                    "name": "A4",
                    "midi": 69,
                    "time": 369.2212040000016,
                    "velocity": 0.47244094488188976,
                    "duration": 0.6163960000000088
                },
                {
                    "name": "D#5",
                    "midi": 75,
                    "time": 369.2212040000016,
                    "velocity": 0.47244094488188976,
                    "duration": 0.6163960000000088
                },
                {
                    "name": "F#5",
                    "midi": 78,
                    "time": 369.2212040000016,
                    "velocity": 0.5748031496062992,
                    "duration": 0.6163960000000088
                },
                {
                    "name": "C#5",
                    "midi": 73,
                    "time": 369.8376000000016,
                    "velocity": 0.5354330708661418,
                    "duration": 0.9245940000000132
                },
                {
                    "name": "E5",
                    "midi": 76,
                    "time": 369.8376000000016,
                    "velocity": 0.5354330708661418,
                    "duration": 0.9245940000000132
                },
                {
                    "name": "A5",
                    "midi": 81,
                    "time": 369.8376000000016,
                    "velocity": 0.6299212598425197,
                    "duration": 0.9245940000000132
                },
                {
                    "name": "C5",
                    "midi": 72,
                    "time": 370.7621940000016,
                    "velocity": 0.47244094488188976,
                    "duration": 0.29278809999999567
                },
                {
                    "name": "D#5",
                    "midi": 75,
                    "time": 370.7621940000016,
                    "velocity": 0.47244094488188976,
                    "duration": 0.29278809999999567
                },
                {
                    "name": "G#5",
                    "midi": 80,
                    "time": 370.7621940000016,
                    "velocity": 0.5511811023622047,
                    "duration": 0.29278809999999567
                },
                {
                    "name": "C5",
                    "midi": 72,
                    "time": 371.0703920000016,
                    "velocity": 0.5275590551181102,
                    "duration": 6.163959999999975
                },
                {
                    "name": "D#5",
                    "midi": 75,
                    "time": 371.0703920000016,
                    "velocity": 0.5275590551181102,
                    "duration": 6.163959999999975
                },
                {
                    "name": "G#5",
                    "midi": 80,
                    "time": 371.0703920000016,
                    "velocity": 0.6220472440944882,
                    "duration": 6.163959999999975
                },
                {
                    "name": "C5",
                    "midi": 72,
                    "time": 377.2343520000016,
                    "velocity": 0.2677165354330709,
                    "duration": 3.0819799999999873
                },
                {
                    "name": "E5",
                    "midi": 76,
                    "time": 377.2343520000016,
                    "velocity": 0.2677165354330709,
                    "duration": 3.0819799999999873
                },
                {
                    "name": "G5",
                    "midi": 79,
                    "time": 377.2343520000016,
                    "velocity": 0.3228346456692913,
                    "duration": 3.0819799999999873
                },
                {
                    "name": "C5",
                    "midi": 72,
                    "time": 380.3163320000016,
                    "velocity": 0.23622047244094488,
                    "duration": 0.6163960000000088
                },
                {
                    "name": "G5",
                    "midi": 79,
                    "time": 380.3163320000016,
                    "velocity": 0.23622047244094488,
                    "duration": 0.6163960000000088
                },
                {
                    "name": "C6",
                    "midi": 84,
                    "time": 380.3163320000016,
                    "velocity": 0.29133858267716534,
                    "duration": 0.6163960000000088
                },
                {
                    "name": "C5",
                    "midi": 72,
                    "time": 380.9327280000016,
                    "velocity": 0.2677165354330709,
                    "duration": 1.2327920000000177
                },
                {
                    "name": "F5",
                    "midi": 77,
                    "time": 380.9327280000016,
                    "velocity": 0.2677165354330709,
                    "duration": 1.2327920000000177
                },
                {
                    "name": "B5",
                    "midi": 83,
                    "time": 380.9327280000016,
                    "velocity": 0.3228346456692913,
                    "duration": 0.9245940000000132
                },
                {
                    "name": "A5",
                    "midi": 81,
                    "time": 381.8573220000016,
                    "velocity": 0.3228346456692913,
                    "duration": 0.29278809999999567
                },
                {
                    "name": "C5",
                    "midi": 72,
                    "time": 382.1655200000016,
                    "velocity": 0.2677165354330709,
                    "duration": 1.8491880000000265
                },
                {
                    "name": "F5",
                    "midi": 77,
                    "time": 382.1655200000016,
                    "velocity": 0.2677165354330709,
                    "duration": 1.8491880000000265
                },
                {
                    "name": "A5",
                    "midi": 81,
                    "time": 382.1655200000016,
                    "velocity": 0.3228346456692913,
                    "duration": 1.8491880000000265
                },
                {
                    "name": "A5",
                    "midi": 81,
                    "time": 384.01470800000163,
                    "velocity": 0.28346456692913385,
                    "duration": 0.6163960000000088
                },
                {
                    "name": "C5",
                    "midi": 72,
                    "time": 384.01470800000163,
                    "velocity": 0.23622047244094488,
                    "duration": 0.6163960000000088
                },
                {
                    "name": "E5",
                    "midi": 76,
                    "time": 384.01470800000163,
                    "velocity": 0.23622047244094488,
                    "duration": 0.6163960000000088
                },
                {
                    "name": "C5",
                    "midi": 72,
                    "time": 384.63110400000164,
                    "velocity": 0.2677165354330709,
                    "duration": 0.9245940000000132
                },
                {
                    "name": "D5",
                    "midi": 74,
                    "time": 384.63110400000164,
                    "velocity": 0.2677165354330709,
                    "duration": 1.2327920000000177
                },
                {
                    "name": "A5",
                    "midi": 81,
                    "time": 384.63110400000164,
                    "velocity": 0.3228346456692913,
                    "duration": 0.9245940000000132
                },
                {
                    "name": "B4",
                    "midi": 71,
                    "time": 385.55569800000166,
                    "velocity": 0.2992125984251969,
                    "duration": 0.29278809999999567
                },
                {
                    "name": "G5",
                    "midi": 79,
                    "time": 385.55569800000166,
                    "velocity": 0.3228346456692913,
                    "duration": 0.29278809999999567
                },
                {
                    "name": "B4",
                    "midi": 71,
                    "time": 385.86389600000166,
                    "velocity": 0.2677165354330709,
                    "duration": 1.8491880000000265
                },
                {
                    "name": "D5",
                    "midi": 74,
                    "time": 385.86389600000166,
                    "velocity": 0.2677165354330709,
                    "duration": 1.8491880000000265
                },
                {
                    "name": "G5",
                    "midi": 79,
                    "time": 385.86389600000166,
                    "velocity": 0.3228346456692913,
                    "duration": 1.8491880000000265
                },
                {
                    "name": "A4",
                    "midi": 69,
                    "time": 387.7130840000017,
                    "velocity": 0.2204724409448819,
                    "duration": 0.6163960000000088
                },
                {
                    "name": "C5",
                    "midi": 72,
                    "time": 387.7130840000017,
                    "velocity": 0.2204724409448819,
                    "duration": 0.6163960000000088
                },
                {
                    "name": "F5",
                    "midi": 77,
                    "time": 387.7130840000017,
                    "velocity": 0.2677165354330709,
                    "duration": 0.6163960000000088
                },
                {
                    "name": "G4",
                    "midi": 67,
                    "time": 388.3294800000017,
                    "velocity": 0.2204724409448819,
                    "duration": 1.2327920000000177
                },
                {
                    "name": "C5",
                    "midi": 72,
                    "time": 388.3294800000017,
                    "velocity": 0.2204724409448819,
                    "duration": 1.2327920000000177
                },
                {
                    "name": "E5",
                    "midi": 76,
                    "time": 388.3294800000017,
                    "velocity": 0.2677165354330709,
                    "duration": 1.2327920000000177
                },
                {
                    "name": "E4",
                    "midi": 64,
                    "time": 389.5622720000017,
                    "velocity": 0.1968503937007874,
                    "duration": 2.4655840000000353
                },
                {
                    "name": "G4",
                    "midi": 67,
                    "time": 389.5622720000017,
                    "velocity": 0.1968503937007874,
                    "duration": 2.4655840000000353
                },
                {
                    "name": "C5",
                    "midi": 72,
                    "time": 389.5622720000017,
                    "velocity": 0.23622047244094488,
                    "duration": 2.4655840000000353
                },
                {
                    "name": "C6",
                    "midi": 84,
                    "time": 390.1786680000017,
                    "velocity": 0.2283464566929134,
                    "duration": 0.3081980000000044
                },
                {
                    "name": "C4",
                    "midi": 60,
                    "time": 392.02785600000175,
                    "velocity": 0.25984251968503935,
                    "duration": 2.4655840000000353
                },
                {
                    "name": "E4",
                    "midi": 64,
                    "time": 392.02785600000175,
                    "velocity": 0.30708661417322836,
                    "duration": 2.4655840000000353
                },
                {
                    "name": "G5",
                    "midi": 79,
                    "time": 393.8770440000018,
                    "velocity": 0.2204724409448819,
                    "duration": 0.3081980000000044
                },
                {
                    "name": "C4",
                    "midi": 60,
                    "time": 394.4934400000018,
                    "velocity": 0.2283464566929134,
                    "duration": 0.9245940000000132
                },
                {
                    "name": "E4",
                    "midi": 64,
                    "time": 394.4934400000018,
                    "velocity": 0.2677165354330709,
                    "duration": 0.9245940000000132
                },
                {
                    "name": "B3",
                    "midi": 59,
                    "time": 395.4180340000018,
                    "velocity": 0.2204724409448819,
                    "duration": 0.29278809999999567
                },
                {
                    "name": "D4",
                    "midi": 62,
                    "time": 395.4180340000018,
                    "velocity": 0.2677165354330709,
                    "duration": 0.29278809999999567
                },
                {
                    "name": "B3",
                    "midi": 59,
                    "time": 395.7262320000018,
                    "velocity": 0.2677165354330709,
                    "duration": 2.4655840000000353
                },
                {
                    "name": "D4",
                    "midi": 62,
                    "time": 395.7262320000018,
                    "velocity": 0.3228346456692913,
                    "duration": 2.4655840000000353
                },
                {
                    "name": "G5",
                    "midi": 79,
                    "time": 397.5754200000018,
                    "velocity": 0.2204724409448819,
                    "duration": 0.3081980000000044
                },
                {
                    "name": "B3",
                    "midi": 59,
                    "time": 398.19181600000184,
                    "velocity": 0.2440944881889764,
                    "duration": 1.2327920000000177
                },
                {
                    "name": "D4",
                    "midi": 62,
                    "time": 398.19181600000184,
                    "velocity": 0.29133858267716534,
                    "duration": 1.2327920000000177
                },
                {
                    "name": "A3",
                    "midi": 57,
                    "time": 399.42460800000185,
                    "velocity": 0.2677165354330709,
                    "duration": 2.4655840000000353
                },
                {
                    "name": "F4",
                    "midi": 65,
                    "time": 399.42460800000185,
                    "velocity": 0.3228346456692913,
                    "duration": 2.4655840000000353
                },
                {
                    "name": "G5",
                    "midi": 79,
                    "time": 401.2737960000019,
                    "velocity": 0.2204724409448819,
                    "duration": 0.3081980000000044
                },
                {
                    "name": "B3",
                    "midi": 59,
                    "time": 401.8901920000019,
                    "velocity": 0.2204724409448819,
                    "duration": 0.3081980000000044
                },
                {
                    "name": "F4",
                    "midi": 65,
                    "time": 401.8901920000019,
                    "velocity": 0.25984251968503935,
                    "duration": 0.6163960000000088
                },
                {
                    "name": "D4",
                    "midi": 62,
                    "time": 402.1983900000019,
                    "velocity": 0.1889763779527559,
                    "duration": 0.3081980000000044
                },
                {
                    "name": "C4",
                    "midi": 60,
                    "time": 402.5065880000019,
                    "velocity": 0.1968503937007874,
                    "duration": 0.3081980000000044
                },
                {
                    "name": "E4",
                    "midi": 64,
                    "time": 402.5065880000019,
                    "velocity": 0.23622047244094488,
                    "duration": 0.3081980000000044
                },
                {
                    "name": "B3",
                    "midi": 59,
                    "time": 402.8147860000019,
                    "velocity": 0.18110236220472442,
                    "duration": 0.3081980000000044
                },
                {
                    "name": "D4",
                    "midi": 62,
                    "time": 402.8147860000019,
                    "velocity": 0.2204724409448819,
                    "duration": 0.3081980000000044
                },
                {
                    "name": "C4",
                    "midi": 60,
                    "time": 403.1229840000019,
                    "velocity": 0.25984251968503935,
                    "duration": 1.8491880000000265
                },
                {
                    "name": "E4",
                    "midi": 64,
                    "time": 403.1229840000019,
                    "velocity": 0.30708661417322836,
                    "duration": 1.8491880000000265
                },
                {
                    "name": "C4",
                    "midi": 60,
                    "time": 404.97217200000193,
                    "velocity": 0.2283464566929134,
                    "duration": 0.3081980000000044
                },
                {
                    "name": "E4",
                    "midi": 64,
                    "time": 404.97217200000193,
                    "velocity": 0.2755905511811024,
                    "duration": 0.3081980000000044
                },
                {
                    "name": "G5",
                    "midi": 79,
                    "time": 404.97217200000193,
                    "velocity": 0.2283464566929134,
                    "duration": 0.3081980000000044
                },
                {
                    "name": "B3",
                    "midi": 59,
                    "time": 405.58856800000194,
                    "velocity": 0.2283464566929134,
                    "duration": 0.3081980000000044
                },
                {
                    "name": "E4",
                    "midi": 64,
                    "time": 405.58856800000194,
                    "velocity": 0.2755905511811024,
                    "duration": 0.3081980000000044
                },
                {
                    "name": "A#3",
                    "midi": 58,
                    "time": 406.20496400000195,
                    "velocity": 0.2283464566929134,
                    "duration": 0.3081980000000044
                },
                {
                    "name": "F#4",
                    "midi": 66,
                    "time": 406.20496400000195,
                    "velocity": 0.2755905511811024,
                    "duration": 0.3081980000000044
                },
                {
                    "name": "B3",
                    "midi": 59,
                    "time": 406.82136000000196,
                    "velocity": 0.25984251968503935,
                    "duration": 0.6163960000000088
                },
                {
                    "name": "G#4",
                    "midi": 68,
                    "time": 406.82136000000196,
                    "velocity": 0.30708661417322836,
                    "duration": 2.4655840000000353
                },
                {
                    "name": "E4",
                    "midi": 64,
                    "time": 407.43775600000197,
                    "velocity": 0.25984251968503935,
                    "duration": 1.8491880000000265
                },
                {
                    "name": "B4",
                    "midi": 71,
                    "time": 408.670548000002,
                    "velocity": 0.2125984251968504,
                    "duration": 0.3081980000000044
                },
                {
                    "name": "E4",
                    "midi": 64,
                    "time": 409.286944000002,
                    "velocity": 0.2283464566929134,
                    "duration": 0.9245940000000132
                },
                {
                    "name": "G#4",
                    "midi": 68,
                    "time": 409.286944000002,
                    "velocity": 0.2677165354330709,
                    "duration": 0.9245940000000132
                },
                {
                    "name": "D#4",
                    "midi": 63,
                    "time": 410.211538000002,
                    "velocity": 0.2204724409448819,
                    "duration": 0.29278809999999567
                },
                {
                    "name": "F#4",
                    "midi": 66,
                    "time": 410.211538000002,
                    "velocity": 0.2677165354330709,
                    "duration": 0.29278809999999567
                },
                {
                    "name": "D#4",
                    "midi": 63,
                    "time": 410.519736000002,
                    "velocity": 0.2677165354330709,
                    "duration": 2.4655840000000353
                },
                {
                    "name": "F#4",
                    "midi": 66,
                    "time": 410.519736000002,
                    "velocity": 0.3228346456692913,
                    "duration": 2.4655840000000353
                },
                {
                    "name": "B4",
                    "midi": 71,
                    "time": 412.36892400000204,
                    "velocity": 0.2125984251968504,
                    "duration": 0.3081980000000044
                },
                {
                    "name": "D#4",
                    "midi": 63,
                    "time": 412.98532000000205,
                    "velocity": 0.2440944881889764,
                    "duration": 1.2327920000000177
                },
                {
                    "name": "F#4",
                    "midi": 66,
                    "time": 412.98532000000205,
                    "velocity": 0.29133858267716534,
                    "duration": 1.2327920000000177
                },
                {
                    "name": "C#4",
                    "midi": 61,
                    "time": 414.21811200000207,
                    "velocity": 0.2677165354330709,
                    "duration": 2.4655840000000353
                },
                {
                    "name": "A4",
                    "midi": 69,
                    "time": 414.21811200000207,
                    "velocity": 0.3228346456692913,
                    "duration": 2.4655840000000353
                },
                {
                    "name": "B4",
                    "midi": 71,
                    "time": 416.0673000000021,
                    "velocity": 0.2204724409448819,
                    "duration": 0.3081980000000044
                },
                {
                    "name": "D#4",
                    "midi": 63,
                    "time": 416.6836960000021,
                    "velocity": 0.2204724409448819,
                    "duration": 0.3081980000000044
                },
                {
                    "name": "A4",
                    "midi": 69,
                    "time": 416.6836960000021,
                    "velocity": 0.25984251968503935,
                    "duration": 0.6163960000000088
                },
                {
                    "name": "F#4",
                    "midi": 66,
                    "time": 416.9918940000021,
                    "velocity": 0.1889763779527559,
                    "duration": 0.3081980000000044
                },
                {
                    "name": "E4",
                    "midi": 64,
                    "time": 417.3000920000021,
                    "velocity": 0.1968503937007874,
                    "duration": 0.3081980000000044
                },
                {
                    "name": "G#4",
                    "midi": 68,
                    "time": 417.3000920000021,
                    "velocity": 0.23622047244094488,
                    "duration": 0.3081980000000044
                },
                {
                    "name": "D#4",
                    "midi": 63,
                    "time": 417.6082900000021,
                    "velocity": 0.18110236220472442,
                    "duration": 0.3081980000000044
                },
                {
                    "name": "F#4",
                    "midi": 66,
                    "time": 417.6082900000021,
                    "velocity": 0.2204724409448819,
                    "duration": 0.3081980000000044
                },
                {
                    "name": "E4",
                    "midi": 64,
                    "time": 417.9164880000021,
                    "velocity": 0.25984251968503935,
                    "duration": 3.081980000000044
                },
                {
                    "name": "G#4",
                    "midi": 68,
                    "time": 417.9164880000021,
                    "velocity": 0.30708661417322836,
                    "duration": 3.081980000000044
                },
                {
                    "name": "B4",
                    "midi": 71,
                    "time": 419.76567600000214,
                    "velocity": 0.2204724409448819,
                    "duration": 0.3081980000000044
                },
                {
                    "name": "G#4",
                    "midi": 68,
                    "time": 420.99846800000216,
                    "velocity": 0.23622047244094488,
                    "duration": 0.6163960000000088
                },
                {
                    "name": "B4",
                    "midi": 71,
                    "time": 420.99846800000216,
                    "velocity": 0.29133858267716534,
                    "duration": 0.6163960000000088
                },
                {
                    "name": "G#4",
                    "midi": 68,
                    "time": 421.61486400000217,
                    "velocity": 0.3464566929133858,
                    "duration": 0.9245940000000132
                },
                {
                    "name": "B4",
                    "midi": 71,
                    "time": 421.61486400000217,
                    "velocity": 0.3464566929133858,
                    "duration": 0.9245940000000132
                },
                {
                    "name": "E5",
                    "midi": 76,
                    "time": 421.61486400000217,
                    "velocity": 0.4015748031496063,
                    "duration": 0.9245940000000132
                },
                {
                    "name": "F#4",
                    "midi": 66,
                    "time": 422.5394580000022,
                    "velocity": 0.30708661417322836,
                    "duration": 0.29278809999999567
                },
                {
                    "name": "B4",
                    "midi": 71,
                    "time": 422.5394580000022,
                    "velocity": 0.30708661417322836,
                    "duration": 0.29278809999999567
                },
                {
                    "name": "D#5",
                    "midi": 75,
                    "time": 422.5394580000022,
                    "velocity": 0.3700787401574803,
                    "duration": 0.29278809999999567
                },
                {
                    "name": "F#4",
                    "midi": 66,
                    "time": 422.8476560000022,
                    "velocity": 0.3464566929133858,
                    "duration": 1.8491880000000265
                },
                {
                    "name": "B4",
                    "midi": 71,
                    "time": 422.8476560000022,
                    "velocity": 0.3464566929133858,
                    "duration": 1.8491880000000265
                },
                {
                    "name": "D#5",
                    "midi": 75,
                    "time": 422.8476560000022,
                    "velocity": 0.41732283464566927,
                    "duration": 1.8491880000000265
                },
                {
                    "name": "B5",
                    "midi": 83,
                    "time": 423.4640520000022,
                    "velocity": 0.36220472440944884,
                    "duration": 0.6163960000000088
                },
                {
                    "name": "F#4",
                    "midi": 66,
                    "time": 424.6968440000022,
                    "velocity": 0.3858267716535433,
                    "duration": 0.6163960000000088
                },
                {
                    "name": "B4",
                    "midi": 71,
                    "time": 424.6968440000022,
                    "velocity": 0.3858267716535433,
                    "duration": 0.6163960000000088
                },
                {
                    "name": "D#5",
                    "midi": 75,
                    "time": 424.6968440000022,
                    "velocity": 0.47244094488188976,
                    "duration": 0.6163960000000088
                },
                {
                    "name": "B4",
                    "midi": 71,
                    "time": 425.3132400000022,
                    "velocity": 0.4330708661417323,
                    "duration": 1.2327920000000177
                },
                {
                    "name": "E5",
                    "midi": 76,
                    "time": 425.3132400000022,
                    "velocity": 0.4330708661417323,
                    "duration": 0.9245940000000132
                },
                {
                    "name": "G#5",
                    "midi": 80,
                    "time": 425.3132400000022,
                    "velocity": 0.5118110236220472,
                    "duration": 0.9245940000000132
                },
                {
                    "name": "D#5",
                    "midi": 75,
                    "time": 426.23783400000224,
                    "velocity": 0.3937007874015748,
                    "duration": 0.29278809999999567
                },
                {
                    "name": "F#5",
                    "midi": 78,
                    "time": 426.23783400000224,
                    "velocity": 0.4645669291338583,
                    "duration": 0.29278809999999567
                },
                {
                    "name": "B4",
                    "midi": 71,
                    "time": 426.54603200000224,
                    "velocity": 0.44881889763779526,
                    "duration": 1.8491880000000265
                },
                {
                    "name": "D#5",
                    "midi": 75,
                    "time": 426.54603200000224,
                    "velocity": 0.44881889763779526,
                    "duration": 1.8491880000000265
                },
                {
                    "name": "F#5",
                    "midi": 78,
                    "time": 426.54603200000224,
                    "velocity": 0.5275590551181102,
                    "duration": 1.8491880000000265
                },
                {
                    "name": "B5",
                    "midi": 83,
                    "time": 427.16242800000225,
                    "velocity": 0.47244094488188976,
                    "duration": 0.6163960000000088
                },
                {
                    "name": "B4",
                    "midi": 71,
                    "time": 428.39522000000227,
                    "velocity": 0.4645669291338583,
                    "duration": 0.6163960000000088
                },
                {
                    "name": "E5",
                    "midi": 76,
                    "time": 428.39522000000227,
                    "velocity": 0.4645669291338583,
                    "duration": 0.6163960000000088
                },
                {
                    "name": "G#5",
                    "midi": 80,
                    "time": 428.39522000000227,
                    "velocity": 0.5669291338582677,
                    "duration": 0.6163960000000088
                },
                {
                    "name": "E5",
                    "midi": 76,
                    "time": 429.0116160000023,
                    "velocity": 0.5354330708661418,
                    "duration": 0.9245940000000132
                },
                {
                    "name": "G#5",
                    "midi": 80,
                    "time": 429.0116160000023,
                    "velocity": 0.5354330708661418,
                    "duration": 0.9245940000000132
                },
                {
                    "name": "C#6",
                    "midi": 85,
                    "time": 429.0116160000023,
                    "velocity": 0.6299212598425197,
                    "duration": 0.9245940000000132
                },
                {
                    "name": "D#5",
                    "midi": 75,
                    "time": 429.9362100000023,
                    "velocity": 0.47244094488188976,
                    "duration": 0.29278809999999567
                },
                {
                    "name": "F#5",
                    "midi": 78,
                    "time": 429.9362100000023,
                    "velocity": 0.47244094488188976,
                    "duration": 0.29278809999999567
                },
                {
                    "name": "B5",
                    "midi": 83,
                    "time": 429.9362100000023,
                    "velocity": 0.5511811023622047,
                    "duration": 0.29278809999999567
                },
                {
                    "name": "D#5",
                    "midi": 75,
                    "time": 430.2444080000023,
                    "velocity": 0.5275590551181102,
                    "duration": 6.163960000000031
                },
                {
                    "name": "F#5",
                    "midi": 78,
                    "time": 430.2444080000023,
                    "velocity": 0.5275590551181102,
                    "duration": 6.163960000000031
                },
                {
                    "name": "B5",
                    "midi": 83,
                    "time": 430.2444080000023,
                    "velocity": 0.6220472440944882,
                    "duration": 5.547564000000023
                },
                {
                    "name": "B4",
                    "midi": 71,
                    "time": 430.8608040000023,
                    "velocity": 0.4645669291338583,
                    "duration": 0.6163960000000088
                },
                {
                    "name": "B4",
                    "midi": 71,
                    "time": 434.5591800000023,
                    "velocity": 0.25984251968503935,
                    "duration": 0.6163960000000088
                },
                {
                    "name": "A5",
                    "midi": 81,
                    "time": 435.7919720000023,
                    "velocity": 0.33070866141732286,
                    "duration": 0.6163960000000088
                },
                {
                    "name": "G#4",
                    "midi": 68,
                    "time": 436.4083680000023,
                    "velocity": 0.2677165354330709,
                    "duration": 3.081980000000044
                },
                {
                    "name": "E5",
                    "midi": 76,
                    "time": 436.4083680000023,
                    "velocity": 0.2677165354330709,
                    "duration": 3.081980000000044
                },
                {
                    "name": "G#5",
                    "midi": 80,
                    "time": 436.4083680000023,
                    "velocity": 0.3228346456692913,
                    "duration": 3.081980000000044
                },
                {
                    "name": "C#5",
                    "midi": 73,
                    "time": 438.25755600000235,
                    "velocity": 0.2440944881889764,
                    "duration": 0.6163960000000088
                },
                {
                    "name": "G#4",
                    "midi": 68,
                    "time": 439.49034800000237,
                    "velocity": 0.23622047244094488,
                    "duration": 0.6163960000000088
                },
                {
                    "name": "C#5",
                    "midi": 73,
                    "time": 439.49034800000237,
                    "velocity": 0.23622047244094488,
                    "duration": 0.6163960000000088
                },
                {
                    "name": "E5",
                    "midi": 76,
                    "time": 439.49034800000237,
                    "velocity": 0.29133858267716534,
                    "duration": 0.6163960000000088
                },
                {
                    "name": "F#4",
                    "midi": 66,
                    "time": 440.1067440000024,
                    "velocity": 0.2677165354330709,
                    "duration": 1.2327920000000177
                },
                {
                    "name": "A4",
                    "midi": 69,
                    "time": 440.1067440000024,
                    "velocity": 0.2677165354330709,
                    "duration": 1.2327920000000177
                },
                {
                    "name": "D#5",
                    "midi": 75,
                    "time": 440.1067440000024,
                    "velocity": 0.3228346456692913,
                    "duration": 0.9245940000000132
                },
                {
                    "name": "C#5",
                    "midi": 73,
                    "time": 441.0313380000024,
                    "velocity": 0.3228346456692913,
                    "duration": 0.3081980000000044
                },
                {
                    "name": "F#4",
                    "midi": 66,
                    "time": 441.3395360000024,
                    "velocity": 0.2677165354330709,
                    "duration": 0.6061227333333363
                },
                {
                    "name": "A4",
                    "midi": 69,
                    "time": 441.3395360000024,
                    "velocity": 0.2677165354330709,
                    "duration": 1.8491880000000265
                },
                {
                    "name": "C#5",
                    "midi": 73,
                    "time": 441.3395360000024,
                    "velocity": 0.3228346456692913,
                    "duration": 1.8491880000000265
                },
                {
                    "name": "D#4",
                    "midi": 63,
                    "time": 443.1887240000024,
                    "velocity": 0.23622047244094488,
                    "duration": 0.6163960000000088
                },
                {
                    "name": "A4",
                    "midi": 69,
                    "time": 443.1887240000024,
                    "velocity": 0.23622047244094488,
                    "duration": 0.6163960000000088
                },
                {
                    "name": "C#5",
                    "midi": 73,
                    "time": 443.1887240000024,
                    "velocity": 0.29133858267716534,
                    "duration": 0.6163960000000088
                },
                {
                    "name": "E4",
                    "midi": 64,
                    "time": 443.80512000000243,
                    "velocity": 0.2677165354330709,
                    "duration": 2.4655840000000353
                },
                {
                    "name": "G#4",
                    "midi": 68,
                    "time": 443.80512000000243,
                    "velocity": 0.2677165354330709,
                    "duration": 3.081980000000044
                },
                {
                    "name": "C#5",
                    "midi": 73,
                    "time": 443.80512000000243,
                    "velocity": 0.3228346456692913,
                    "duration": 1.2327920000000177
                },
                {
                    "name": "B4",
                    "midi": 71,
                    "time": 445.03791200000245,
                    "velocity": 0.3228346456692913,
                    "duration": 1.8491880000000265
                },
                {
                    "name": "G#5",
                    "midi": 80,
                    "time": 445.65430800000246,
                    "velocity": 0.2283464566929134,
                    "duration": 0.6163960000000088
                },
                {
                    "name": "C4",
                    "midi": 60,
                    "time": 446.27070400000247,
                    "velocity": 0.1968503937007874,
                    "duration": 1.2327920000000177
                },
                {
                    "name": "F#4",
                    "midi": 66,
                    "time": 446.8871000000025,
                    "velocity": 0.2204724409448819,
                    "duration": 0.6163960000000088
                },
                {
                    "name": "A4",
                    "midi": 69,
                    "time": 446.8871000000025,
                    "velocity": 0.2677165354330709,
                    "duration": 0.6163960000000088
                },
                {
                    "name": "C#4",
                    "midi": 61,
                    "time": 447.5034960000025,
                    "velocity": 0.2204724409448819,
                    "duration": 1.2327920000000177
                },
                {
                    "name": "E4",
                    "midi": 64,
                    "time": 447.5034960000025,
                    "velocity": 0.2204724409448819,
                    "duration": 1.2327920000000177
                },
                {
                    "name": "G#4",
                    "midi": 68,
                    "time": 447.5034960000025,
                    "velocity": 0.2677165354330709,
                    "duration": 1.2327920000000177
                },
                {
                    "name": "G#3",
                    "midi": 56,
                    "time": 448.7362880000025,
                    "velocity": 0.1968503937007874,
                    "duration": 1.8491880000000265
                },
                {
                    "name": "C#4",
                    "midi": 61,
                    "time": 448.7362880000025,
                    "velocity": 0.1968503937007874,
                    "duration": 1.8491880000000265
                },
                {
                    "name": "E4",
                    "midi": 64,
                    "time": 448.7362880000025,
                    "velocity": 0.23622047244094488,
                    "duration": 1.8491880000000265
                },
                {
                    "name": "C#5",
                    "midi": 73,
                    "time": 449.3526840000025,
                    "velocity": 0.2283464566929134,
                    "duration": 0.6163960000000088
                },
                {
                    "name": "C#4",
                    "midi": 61,
                    "time": 451.20187200000254,
                    "velocity": 0.2125984251968504,
                    "duration": 3.081980000000044
                },
                {
                    "name": "F4",
                    "midi": 65,
                    "time": 451.20187200000254,
                    "velocity": 0.2125984251968504,
                    "duration": 3.081980000000044
                },
                {
                    "name": "G#4",
                    "midi": 68,
                    "time": 451.20187200000254,
                    "velocity": 0.25984251968503935,
                    "duration": 3.081980000000044
                },
                {
                    "name": "C#5",
                    "midi": 73,
                    "time": 453.05106000000256,
                    "velocity": 0.2204724409448819,
                    "duration": 0.6163960000000088
                },
                {
                    "name": "C#4",
                    "midi": 61,
                    "time": 454.2838520000026,
                    "velocity": 0.18110236220472442,
                    "duration": 0.6163960000000088
                },
                {
                    "name": "G#4",
                    "midi": 68,
                    "time": 454.2838520000026,
                    "velocity": 0.18110236220472442,
                    "duration": 0.6163960000000088
                },
                {
                    "name": "C#5",
                    "midi": 73,
                    "time": 454.2838520000026,
                    "velocity": 0.2283464566929134,
                    "duration": 0.6163960000000088
                },
                {
                    "name": "C#4",
                    "midi": 61,
                    "time": 454.9002480000026,
                    "velocity": 0.2125984251968504,
                    "duration": 2.4655840000000353
                },
                {
                    "name": "F#4",
                    "midi": 66,
                    "time": 454.9002480000026,
                    "velocity": 0.2125984251968504,
                    "duration": 2.4655840000000353
                },
                {
                    "name": "C5",
                    "midi": 72,
                    "time": 454.9002480000026,
                    "velocity": 0.25984251968503935,
                    "duration": 1.2327920000000177
                },
                {
                    "name": "A#4",
                    "midi": 70,
                    "time": 456.1330400000026,
                    "velocity": 0.25984251968503935,
                    "duration": 1.8491880000000265
                },
                {
                    "name": "A#5",
                    "midi": 82,
                    "time": 456.7494360000026,
                    "velocity": 0.2125984251968504,
                    "duration": 0.6163960000000088
                },
                {
                    "name": "C#4",
                    "midi": 61,
                    "time": 457.98222800000264,
                    "velocity": 0.18110236220472442,
                    "duration": 0.6163960000000088
                },
                {
                    "name": "F4",
                    "midi": 65,
                    "time": 457.98222800000264,
                    "velocity": 0.18110236220472442,
                    "duration": 0.6163960000000088
                },
                {
                    "name": "A#4",
                    "midi": 70,
                    "time": 457.98222800000264,
                    "velocity": 0.2283464566929134,
                    "duration": 0.6163960000000088
                },
                {
                    "name": "C#4",
                    "midi": 61,
                    "time": 458.59862400000264,
                    "velocity": 0.2125984251968504,
                    "duration": 1.2327920000000177
                },
                {
                    "name": "D#4",
                    "midi": 63,
                    "time": 458.59862400000264,
                    "velocity": 0.2125984251968504,
                    "duration": 1.2327920000000177
                },
                {
                    "name": "A#4",
                    "midi": 70,
                    "time": 458.59862400000264,
                    "velocity": 0.25984251968503935,
                    "duration": 1.2327920000000177
                },
                {
                    "name": "C4",
                    "midi": 60,
                    "time": 459.83141600000266,
                    "velocity": 0.1732283464566929,
                    "duration": 1.8491880000000265
                },
                {
                    "name": "D#4",
                    "midi": 63,
                    "time": 459.83141600000266,
                    "velocity": 0.1889763779527559,
                    "duration": 1.8491880000000265
                },
                {
                    "name": "G#4",
                    "midi": 68,
                    "time": 459.83141600000266,
                    "velocity": 0.23622047244094488,
                    "duration": 1.8491880000000265
                },
                {
                    "name": "G#5",
                    "midi": 80,
                    "time": 460.44781200000267,
                    "velocity": 0.1889763779527559,
                    "duration": 0.6163960000000088
                },
                {
                    "name": "A#3",
                    "midi": 58,
                    "time": 461.6806040000027,
                    "velocity": 0.1889763779527559,
                    "duration": 0.6163960000000088
                },
                {
                    "name": "C#4",
                    "midi": 61,
                    "time": 461.6806040000027,
                    "velocity": 0.1889763779527559,
                    "duration": 0.6163960000000088
                },
                {
                    "name": "F#4",
                    "midi": 66,
                    "time": 461.6806040000027,
                    "velocity": 0.2283464566929134,
                    "duration": 0.6163960000000088
                },
                {
                    "name": "G#3",
                    "midi": 56,
                    "time": 462.2970000000027,
                    "velocity": 0.1889763779527559,
                    "duration": 1.2327920000000177
                },
                {
                    "name": "C#4",
                    "midi": 61,
                    "time": 462.2970000000027,
                    "velocity": 0.1889763779527559,
                    "duration": 1.2327920000000177
                },
                {
                    "name": "F4",
                    "midi": 65,
                    "time": 462.2970000000027,
                    "velocity": 0.2283464566929134,
                    "duration": 1.2327920000000177
                },
                {
                    "name": "F3",
                    "midi": 53,
                    "time": 463.5297920000027,
                    "velocity": 0.1732283464566929,
                    "duration": 1.8491880000000265
                },
                {
                    "name": "G#3",
                    "midi": 56,
                    "time": 463.5297920000027,
                    "velocity": 0.1732283464566929,
                    "duration": 1.8491880000000265
                },
                {
                    "name": "C#4",
                    "midi": 61,
                    "time": 463.5297920000027,
                    "velocity": 0.1968503937007874,
                    "duration": 1.8491880000000265
                },
                {
                    "name": "C#5",
                    "midi": 73,
                    "time": 464.1461880000027,
                    "velocity": 0.1968503937007874,
                    "duration": 0.6163960000000088
                },
                {
                    "name": "G#3",
                    "midi": 56,
                    "time": 465.37898000000274,
                    "velocity": 0.1889763779527559,
                    "duration": 0.6163960000000088
                },
                {
                    "name": "C#4",
                    "midi": 61,
                    "time": 465.37898000000274,
                    "velocity": 0.1889763779527559,
                    "duration": 0.6163960000000088
                },
                {
                    "name": "F4",
                    "midi": 65,
                    "time": 465.37898000000274,
                    "velocity": 0.2283464566929134,
                    "duration": 0.6163960000000088
                },
                {
                    "name": "G3",
                    "midi": 55,
                    "time": 465.99537600000275,
                    "velocity": 0.2204724409448819,
                    "duration": 1.2327920000000177
                },
                {
                    "name": "C#4",
                    "midi": 61,
                    "time": 465.99537600000275,
                    "velocity": 0.2204724409448819,
                    "duration": 1.2327920000000177
                },
                {
                    "name": "F4",
                    "midi": 65,
                    "time": 465.99537600000275,
                    "velocity": 0.2677165354330709,
                    "duration": 0.9245940000000132
                },
                {
                    "name": "A#4",
                    "midi": 70,
                    "time": 466.61177200000276,
                    "velocity": 0.2283464566929134,
                    "duration": 0.3081980000000044
                },
                {
                    "name": "D#4",
                    "midi": 63,
                    "time": 466.91997000000276,
                    "velocity": 0.2677165354330709,
                    "duration": 0.3081980000000044
                },
                {
                    "name": "A#5",
                    "midi": 82,
                    "time": 467.22816800000277,
                    "velocity": 0.2283464566929134,
                    "duration": 0.6163960000000088
                },
                {
                    "name": "G3",
                    "midi": 55,
                    "time": 467.22816800000277,
                    "velocity": 0.1968503937007874,
                    "duration": 1.8491880000000265
                },
                {
                    "name": "C#4",
                    "midi": 61,
                    "time": 467.22816800000277,
                    "velocity": 0.1968503937007874,
                    "duration": 1.8491880000000265
                },
                {
                    "name": "D#4",
                    "midi": 63,
                    "time": 467.22816800000277,
                    "velocity": 0.23622047244094488,
                    "duration": 1.8491880000000265
                },
                {
                    "name": "G3",
                    "midi": 55,
                    "time": 469.0773560000028,
                    "velocity": 0.2204724409448819,
                    "duration": 0.6163960000000088
                },
                {
                    "name": "C#4",
                    "midi": 61,
                    "time": 469.0773560000028,
                    "velocity": 0.2204724409448819,
                    "duration": 0.6163960000000088
                },
                {
                    "name": "D#4",
                    "midi": 63,
                    "time": 469.0773560000028,
                    "velocity": 0.25984251968503935,
                    "duration": 0.6163960000000088
                },
                {
                    "name": "F#3",
                    "midi": 54,
                    "time": 469.6937520000028,
                    "velocity": 0.2440944881889764,
                    "duration": 1.2327920000000177
                },
                {
                    "name": "C#4",
                    "midi": 61,
                    "time": 469.6937520000028,
                    "velocity": 0.2440944881889764,
                    "duration": 1.2327920000000177
                },
                {
                    "name": "E4",
                    "midi": 64,
                    "time": 469.6937520000028,
                    "velocity": 0.29133858267716534,
                    "duration": 0.9245940000000132
                },
                {
                    "name": "A4",
                    "midi": 69,
                    "time": 470.3101480000028,
                    "velocity": 0.2283464566929134,
                    "duration": 0.3081980000000044
                },
                {
                    "name": "D#4",
                    "midi": 63,
                    "time": 470.6183460000028,
                    "velocity": 0.2677165354330709,
                    "duration": 0.3081980000000044
                },
                {
                    "name": "A5",
                    "midi": 81,
                    "time": 470.9265440000028,
                    "velocity": 0.2283464566929134,
                    "duration": 0.6163960000000088
                },
                {
                    "name": "F#3",
                    "midi": 54,
                    "time": 470.9265440000028,
                    "velocity": 0.1968503937007874,
                    "duration": 1.8491880000000265
                },
                {
                    "name": "C#4",
                    "midi": 61,
                    "time": 470.9265440000028,
                    "velocity": 0.1968503937007874,
                    "duration": 1.8491880000000265
                },
                {
                    "name": "D#4",
                    "midi": 63,
                    "time": 470.9265440000028,
                    "velocity": 0.23622047244094488,
                    "duration": 1.8491880000000265
                },
                {
                    "name": "F#3",
                    "midi": 54,
                    "time": 472.77573200000285,
                    "velocity": 0.1968503937007874,
                    "duration": 0.6163960000000088
                },
                {
                    "name": "C#4",
                    "midi": 61,
                    "time": 472.77573200000285,
                    "velocity": 0.1968503937007874,
                    "duration": 0.6163960000000088
                },
                {
                    "name": "D#4",
                    "midi": 63,
                    "time": 472.77573200000285,
                    "velocity": 0.23622047244094488,
                    "duration": 0.6163960000000088
                },
                {
                    "name": "F#3",
                    "midi": 54,
                    "time": 473.39212800000286,
                    "velocity": 0.2204724409448819,
                    "duration": 1.8491880000000265
                },
                {
                    "name": "C4",
                    "midi": 60,
                    "time": 473.39212800000286,
                    "velocity": 0.2204724409448819,
                    "duration": 1.8491880000000265
                },
                {
                    "name": "D#4",
                    "midi": 63,
                    "time": 473.39212800000286,
                    "velocity": 0.2677165354330709,
                    "duration": 1.8491880000000265
                },
                {
                    "name": "G#4",
                    "midi": 68,
                    "time": 474.00852400000286,
                    "velocity": 0.2125984251968504,
                    "duration": 0.3081980000000044
                },
                {
                    "name": "G#5",
                    "midi": 80,
                    "time": 474.6249200000029,
                    "velocity": 0.2204724409448819,
                    "duration": 0.6163960000000088
                },
                {
                    "name": "F4",
                    "midi": 65,
                    "time": 475.2413160000029,
                    "velocity": 0.2283464566929134,
                    "duration": 0.3081980000000044
                },
                {
                    "name": "F#4",
                    "midi": 66,
                    "time": 475.5495140000029,
                    "velocity": 0.2283464566929134,
                    "duration": 0.3081980000000044
                },
                {
                    "name": "G#4",
                    "midi": 68,
                    "time": 475.8577120000029,
                    "velocity": 0.2283464566929134,
                    "duration": 0.6163960000000088
                },
                {
                    "name": "G#3",
                    "midi": 56,
                    "time": 476.4741080000029,
                    "velocity": 0.1968503937007874,
                    "duration": 0.6163960000000088
                },
                {
                    "name": "C4",
                    "midi": 60,
                    "time": 476.4741080000029,
                    "velocity": 0.1968503937007874,
                    "duration": 0.6163960000000088
                },
                {
                    "name": "E4",
                    "midi": 64,
                    "time": 476.4741080000029,
                    "velocity": 0.23622047244094488,
                    "duration": 0.6163960000000088
                },
                {
                    "name": "G#3",
                    "midi": 56,
                    "time": 477.0905040000029,
                    "velocity": 0.2204724409448819,
                    "duration": 3.081980000000044
                },
                {
                    "name": "C#4",
                    "midi": 61,
                    "time": 477.0905040000029,
                    "velocity": 0.2204724409448819,
                    "duration": 3.081980000000044
                },
                {
                    "name": "F4",
                    "midi": 65,
                    "time": 477.0905040000029,
                    "velocity": 0.2677165354330709,
                    "duration": 3.081980000000044
                },
                {
                    "name": "C#5",
                    "midi": 73,
                    "time": 478.3232960000029,
                    "velocity": 0.2283464566929134,
                    "duration": 1.2327920000000177
                },
                {
                    "name": "G#3",
                    "midi": 56,
                    "time": 480.17248400000295,
                    "velocity": 0.1968503937007874,
                    "duration": 0.6163960000000088
                },
                {
                    "name": "C#4",
                    "midi": 61,
                    "time": 480.17248400000295,
                    "velocity": 0.1968503937007874,
                    "duration": 0.6163960000000088
                },
                {
                    "name": "F4",
                    "midi": 65,
                    "time": 480.17248400000295,
                    "velocity": 0.23622047244094488,
                    "duration": 0.6163960000000088
                },
                {
                    "name": "G3",
                    "midi": 55,
                    "time": 480.78888000000296,
                    "velocity": 0.18110236220472442,
                    "duration": 1.2327920000000177
                },
                {
                    "name": "C#4",
                    "midi": 61,
                    "time": 480.78888000000296,
                    "velocity": 0.18110236220472442,
                    "duration": 1.2327920000000177
                },
                {
                    "name": "F4",
                    "midi": 65,
                    "time": 480.78888000000296,
                    "velocity": 0.2204724409448819,
                    "duration": 0.9245940000000132
                },
                {
                    "name": "D#4",
                    "midi": 63,
                    "time": 481.713474000003,
                    "velocity": 0.2204724409448819,
                    "duration": 0.3081980000000044
                },
                {
                    "name": "A#4",
                    "midi": 70,
                    "time": 482.021672000003,
                    "velocity": 0.1889763779527559,
                    "duration": 1.2327920000000177
                },
                {
                    "name": "G3",
                    "midi": 55,
                    "time": 482.021672000003,
                    "velocity": 0.16535433070866143,
                    "duration": 1.8491880000000265
                },
                {
                    "name": "C#4",
                    "midi": 61,
                    "time": 482.021672000003,
                    "velocity": 0.16535433070866143,
                    "duration": 1.8491880000000265
                },
                {
                    "name": "D#4",
                    "midi": 63,
                    "time": 482.021672000003,
                    "velocity": 0.1968503937007874,
                    "duration": 1.8491880000000265
                },
                {
                    "name": "G3",
                    "midi": 55,
                    "time": 483.870860000003,
                    "velocity": 0.18110236220472442,
                    "duration": 0.6163960000000088
                },
                {
                    "name": "C#4",
                    "midi": 61,
                    "time": 483.870860000003,
                    "velocity": 0.18110236220472442,
                    "duration": 0.6163960000000088
                },
                {
                    "name": "D#4",
                    "midi": 63,
                    "time": 483.870860000003,
                    "velocity": 0.2204724409448819,
                    "duration": 0.6163960000000088
                },
                {
                    "name": "F#3",
                    "midi": 54,
                    "time": 484.487256000003,
                    "velocity": 0.2047244094488189,
                    "duration": 1.2327920000000177
                },
                {
                    "name": "C#4",
                    "midi": 61,
                    "time": 484.487256000003,
                    "velocity": 0.2047244094488189,
                    "duration": 1.2327920000000177
                },
                {
                    "name": "E4",
                    "midi": 64,
                    "time": 484.487256000003,
                    "velocity": 0.2440944881889764,
                    "duration": 0.9245940000000132
                },
                {
                    "name": "D#4",
                    "midi": 63,
                    "time": 485.411850000003,
                    "velocity": 0.2204724409448819,
                    "duration": 0.3081980000000044
                },
                {
                    "name": "A4",
                    "midi": 69,
                    "time": 485.72004800000303,
                    "velocity": 0.1889763779527559,
                    "duration": 0.6163960000000088
                },
                {
                    "name": "F#3",
                    "midi": 54,
                    "time": 485.72004800000303,
                    "velocity": 0.16535433070866143,
                    "duration": 1.8491880000000265
                },
                {
                    "name": "C#4",
                    "midi": 61,
                    "time": 485.72004800000303,
                    "velocity": 0.16535433070866143,
                    "duration": 1.8491880000000265
                },
                {
                    "name": "D#4",
                    "midi": 63,
                    "time": 485.72004800000303,
                    "velocity": 0.1968503937007874,
                    "duration": 1.8491880000000265
                },
                {
                    "name": "F#3",
                    "midi": 54,
                    "time": 487.56923600000306,
                    "velocity": 0.16535433070866143,
                    "duration": 0.6163960000000088
                },
                {
                    "name": "C#4",
                    "midi": 61,
                    "time": 487.56923600000306,
                    "velocity": 0.16535433070866143,
                    "duration": 0.6163960000000088
                },
                {
                    "name": "D#4",
                    "midi": 63,
                    "time": 487.56923600000306,
                    "velocity": 0.1968503937007874,
                    "duration": 0.6163960000000088
                },
                {
                    "name": "F#3",
                    "midi": 54,
                    "time": 488.18563200000307,
                    "velocity": 0.18110236220472442,
                    "duration": 1.8491880000000265
                },
                {
                    "name": "C4",
                    "midi": 60,
                    "time": 488.18563200000307,
                    "velocity": 0.18110236220472442,
                    "duration": 1.8491880000000265
                },
                {
                    "name": "D#4",
                    "midi": 63,
                    "time": 488.18563200000307,
                    "velocity": 0.2204724409448819,
                    "duration": 1.8491880000000265
                },
                {
                    "name": "F4",
                    "midi": 65,
                    "time": 490.0348200000031,
                    "velocity": 0.1889763779527559,
                    "duration": 0.3081980000000044
                },
                {
                    "name": "F#4",
                    "midi": 66,
                    "time": 490.3430180000031,
                    "velocity": 0.1889763779527559,
                    "duration": 0.3081980000000044
                },
                {
                    "name": "G#4",
                    "midi": 68,
                    "time": 490.6512160000031,
                    "velocity": 0.1889763779527559,
                    "duration": 0.6163960000000088
                },
                {
                    "name": "F#3",
                    "midi": 54,
                    "time": 491.2676120000031,
                    "velocity": 0.16535433070866143,
                    "duration": 0.6163960000000088
                },
                {
                    "name": "A3",
                    "midi": 57,
                    "time": 491.2676120000031,
                    "velocity": 0.16535433070866143,
                    "duration": 0.6163960000000088
                },
                {
                    "name": "C4",
                    "midi": 60,
                    "time": 491.2676120000031,
                    "velocity": 0.1968503937007874,
                    "duration": 0.6163960000000088
                },
                {
                    "name": "C#5",
                    "midi": 73,
                    "time": 493.11680000000314,
                    "velocity": 0.1889763779527559,
                    "duration": 1.2327920000000177
                },
                {
                    "name": "C#5",
                    "midi": 73,
                    "time": 496.81517600000313,
                    "velocity": 0.1889763779527559,
                    "duration": 1.2327920000000177
                },
                {
                    "name": "C#5",
                    "midi": 73,
                    "time": 500.51355200000313,
                    "velocity": 0.1889763779527559,
                    "duration": 1.2327920000000177
                },
                {
                    "name": "G#4",
                    "midi": 68,
                    "time": 503.5955320000032,
                    "velocity": 0.1732283464566929,
                    "duration": 0.15409899999997378
                },
                {
                    "name": "C#5",
                    "midi": 73,
                    "time": 504.2119280000031,
                    "velocity": 0.18110236220472442,
                    "duration": 0.15409899999997378
                },
                {
                    "name": "G#5",
                    "midi": 80,
                    "time": 504.8283240000031,
                    "velocity": 0.18110236220472442,
                    "duration": 0.15409899999997378
                },
                {
                    "name": "C#6",
                    "midi": 85,
                    "time": 505.44472000000303,
                    "velocity": 0.18110236220472442,
                    "duration": 0.15409899999997378
                }
            ],
            "controlChanges": {
                "7": [
                    {
                        "number": 7,
                        "time": 0,
                        "value": 0.7874015748031497
                    }
                ],
                "10": [
                    {
                        "number": 10,
                        "time": 0,
                        "value": 0.5039370078740157
                    }
                ],
                "91": [
                    {
                        "number": 91,
                        "time": 0,
                        "value": 1
                    },
                    {
                        "number": 91,
                        "time": 0,
                        "value": 1
                    }
                ]
            },
            "id": 1,
            "name": "Piano right",
            "instrumentNumber": 1,
            "instrument": "bright acoustic piano",
            "instrumentFamily": "piano",
            "channelNumber": 0,
            "isPercussion": false
        },
        {
            "startTime": 0,
            "duration": 510.3758879999921,
            "length": 917,
            "notes": [
                {
                    "name": "C#2",
                    "midi": 37,
                    "time": 0,
                    "velocity": 0.2047244094488189,
                    "duration": 0.6163959999999999
                },
                {
                    "name": "C#3",
                    "midi": 49,
                    "time": 1.078693,
                    "velocity": 0.1732283464566929,
                    "duration": 0.15409899999999999
                },
                {
                    "name": "C#4",
                    "midi": 61,
                    "time": 1.2327919999999999,
                    "velocity": 0.2125984251968504,
                    "duration": 0.6163959999999999
                },
                {
                    "name": "C#2",
                    "midi": 37,
                    "time": 3.6983759999999997,
                    "velocity": 0.2047244094488189,
                    "duration": 0.6163959999999999
                },
                {
                    "name": "C#3",
                    "midi": 49,
                    "time": 4.777068999999999,
                    "velocity": 0.1732283464566929,
                    "duration": 0.15409900000000043
                },
                {
                    "name": "C#4",
                    "midi": 61,
                    "time": 4.9311679999999996,
                    "velocity": 0.2125984251968504,
                    "duration": 0.6163959999999999
                },
                {
                    "name": "C#2",
                    "midi": 37,
                    "time": 7.396751999999999,
                    "velocity": 0.2047244094488189,
                    "duration": 0.6163959999999999
                },
                {
                    "name": "C#3",
                    "midi": 49,
                    "time": 8.475444999999999,
                    "velocity": 0.1732283464566929,
                    "duration": 0.15409900000000043
                },
                {
                    "name": "C#4",
                    "midi": 61,
                    "time": 8.629544,
                    "velocity": 0.2125984251968504,
                    "duration": 0.6163959999999999
                },
                {
                    "name": "C#2",
                    "midi": 37,
                    "time": 11.095127999999999,
                    "velocity": 0.2047244094488189,
                    "duration": 0.6163959999999982
                },
                {
                    "name": "C#3",
                    "midi": 49,
                    "time": 12.173820999999997,
                    "velocity": 0.1732283464566929,
                    "duration": 0.15409900000000043
                },
                {
                    "name": "C#4",
                    "midi": 61,
                    "time": 12.327919999999997,
                    "velocity": 0.2125984251968504,
                    "duration": 0.6163959999999999
                },
                {
                    "name": "C#2",
                    "midi": 37,
                    "time": 14.793503999999997,
                    "velocity": 0.2047244094488189,
                    "duration": 0.6163959999999999
                },
                {
                    "name": "C#3",
                    "midi": 49,
                    "time": 15.872196999999996,
                    "velocity": 0.1732283464566929,
                    "duration": 0.15409899999999865
                },
                {
                    "name": "C#4",
                    "midi": 61,
                    "time": 16.026295999999995,
                    "velocity": 0.2125984251968504,
                    "duration": 0.6163960000000017
                },
                {
                    "name": "C#2",
                    "midi": 37,
                    "time": 18.49188,
                    "velocity": 0.2047244094488189,
                    "duration": 0.6163960000000017
                },
                {
                    "name": "C#3",
                    "midi": 49,
                    "time": 19.570573,
                    "velocity": 0.1732283464566929,
                    "duration": 0.15409899999999865
                },
                {
                    "name": "C#4",
                    "midi": 61,
                    "time": 19.724671999999998,
                    "velocity": 0.2125984251968504,
                    "duration": 0.6163960000000017
                },
                {
                    "name": "C#2",
                    "midi": 37,
                    "time": 22.190256,
                    "velocity": 0.2440944881889764,
                    "duration": 0.6163960000000017
                },
                {
                    "name": "C#3",
                    "midi": 49,
                    "time": 23.268949000000003,
                    "velocity": 0.1968503937007874,
                    "duration": 0.15409899999999865
                },
                {
                    "name": "C#4",
                    "midi": 61,
                    "time": 23.423048,
                    "velocity": 0.23622047244094488,
                    "duration": 0.6163960000000017
                },
                {
                    "name": "C#2",
                    "midi": 37,
                    "time": 25.888632000000005,
                    "velocity": 0.2047244094488189,
                    "duration": 0.6163960000000017
                },
                {
                    "name": "C#3",
                    "midi": 49,
                    "time": 26.967325000000006,
                    "velocity": 0.1732283464566929,
                    "duration": 0.15409899999999865
                },
                {
                    "name": "C#4",
                    "midi": 61,
                    "time": 27.121424000000005,
                    "velocity": 0.2125984251968504,
                    "duration": 0.6163960000000017
                },
                {
                    "name": "G#1",
                    "midi": 32,
                    "time": 29.587008000000008,
                    "velocity": 0.2204724409448819,
                    "duration": 0.6163960000000017
                },
                {
                    "name": "G#2",
                    "midi": 44,
                    "time": 29.587008000000008,
                    "velocity": 0.2677165354330709,
                    "duration": 0.6163960000000017
                },
                {
                    "name": "G#2",
                    "midi": 44,
                    "time": 30.66570100000001,
                    "velocity": 0.28346456692913385,
                    "duration": 0.15409899999999865
                },
                {
                    "name": "G#3",
                    "midi": 56,
                    "time": 30.819800000000008,
                    "velocity": 0.3228346456692913,
                    "duration": 0.6163960000000017
                },
                {
                    "name": "G#1",
                    "midi": 32,
                    "time": 33.28538400000001,
                    "velocity": 0.2755905511811024,
                    "duration": 0.6163960000000017
                },
                {
                    "name": "G#2",
                    "midi": 44,
                    "time": 33.28538400000001,
                    "velocity": 0.3228346456692913,
                    "duration": 0.6163960000000017
                },
                {
                    "name": "G#2",
                    "midi": 44,
                    "time": 34.36407700000001,
                    "velocity": 0.33858267716535434,
                    "duration": 0.1540990000000022
                },
                {
                    "name": "G#3",
                    "midi": 56,
                    "time": 34.51817600000001,
                    "velocity": 0.3937007874015748,
                    "duration": 0.6163960000000017
                },
                {
                    "name": "G#2",
                    "midi": 44,
                    "time": 36.98376000000001,
                    "velocity": 0.3700787401574803,
                    "duration": 0.6163960000000017
                },
                {
                    "name": "G#1",
                    "midi": 32,
                    "time": 36.98376000000001,
                    "velocity": 0.30708661417322836,
                    "duration": 0.6163960000000017
                },
                {
                    "name": "G#2",
                    "midi": 44,
                    "time": 38.06245300000001,
                    "velocity": 0.3858267716535433,
                    "duration": 0.1540989999999951
                },
                {
                    "name": "G#3",
                    "midi": 56,
                    "time": 38.21655200000001,
                    "velocity": 0.44881889763779526,
                    "duration": 0.6163960000000017
                },
                {
                    "name": "G#2",
                    "midi": 44,
                    "time": 40.68213600000001,
                    "velocity": 0.4330708661417323,
                    "duration": 0.6163960000000017
                },
                {
                    "name": "G#1",
                    "midi": 32,
                    "time": 40.68213600000001,
                    "velocity": 0.36220472440944884,
                    "duration": 0.6163960000000017
                },
                {
                    "name": "G#2",
                    "midi": 44,
                    "time": 41.76082900000001,
                    "velocity": 0.3937007874015748,
                    "duration": 0.1540990000000022
                },
                {
                    "name": "G#3",
                    "midi": 56,
                    "time": 41.91492800000001,
                    "velocity": 0.4566929133858268,
                    "duration": 0.6163960000000017
                },
                {
                    "name": "G#4",
                    "midi": 68,
                    "time": 42.53132400000001,
                    "velocity": 0.4409448818897638,
                    "duration": 0.6163960000000017
                },
                {
                    "name": "G#1",
                    "midi": 32,
                    "time": 44.38051200000001,
                    "velocity": 0.25984251968503935,
                    "duration": 0.6163960000000017
                },
                {
                    "name": "G#2",
                    "midi": 44,
                    "time": 44.38051200000001,
                    "velocity": 0.31496062992125984,
                    "duration": 0.6163960000000017
                },
                {
                    "name": "G#2",
                    "midi": 44,
                    "time": 45.45920500000001,
                    "velocity": 0.2677165354330709,
                    "duration": 0.1540990000000022
                },
                {
                    "name": "G#3",
                    "midi": 56,
                    "time": 45.613304000000014,
                    "velocity": 0.30708661417322836,
                    "duration": 0.6163960000000017
                },
                {
                    "name": "G#4",
                    "midi": 68,
                    "time": 46.229700000000015,
                    "velocity": 0.2755905511811024,
                    "duration": 0.6163960000000017
                },
                {
                    "name": "G#1",
                    "midi": 32,
                    "time": 48.07888800000002,
                    "velocity": 0.1732283464566929,
                    "duration": 0.6163960000000017
                },
                {
                    "name": "G#2",
                    "midi": 44,
                    "time": 48.07888800000002,
                    "velocity": 0.2047244094488189,
                    "duration": 0.6163960000000017
                },
                {
                    "name": "B2",
                    "midi": 47,
                    "time": 49.15758100000002,
                    "velocity": 0.1732283464566929,
                    "duration": 0.1540990000000022
                },
                {
                    "name": "B3",
                    "midi": 59,
                    "time": 49.311680000000024,
                    "velocity": 0.2125984251968504,
                    "duration": 0.6163960000000017
                },
                {
                    "name": "A2",
                    "midi": 45,
                    "time": 51.777264000000024,
                    "velocity": 0.2047244094488189,
                    "duration": 0.6163960000000017
                },
                {
                    "name": "A1",
                    "midi": 33,
                    "time": 51.777264000000024,
                    "velocity": 0.1732283464566929,
                    "duration": 0.6163960000000017
                },
                {
                    "name": "C#3",
                    "midi": 49,
                    "time": 52.855957000000025,
                    "velocity": 0.1732283464566929,
                    "duration": 0.1540990000000022
                },
                {
                    "name": "C#4",
                    "midi": 61,
                    "time": 53.01005600000003,
                    "velocity": 0.2125984251968504,
                    "duration": 0.6163960000000017
                },
                {
                    "name": "B2",
                    "midi": 47,
                    "time": 55.47564000000003,
                    "velocity": 0.2047244094488189,
                    "duration": 0.6163960000000017
                },
                {
                    "name": "B1",
                    "midi": 35,
                    "time": 55.47564000000003,
                    "velocity": 0.1732283464566929,
                    "duration": 0.6163960000000017
                },
                {
                    "name": "B2",
                    "midi": 47,
                    "time": 56.55433300000003,
                    "velocity": 0.1732283464566929,
                    "duration": 0.1540990000000022
                },
                {
                    "name": "B3",
                    "midi": 59,
                    "time": 56.70843200000003,
                    "velocity": 0.2125984251968504,
                    "duration": 0.6163960000000017
                },
                {
                    "name": "E2",
                    "midi": 40,
                    "time": 59.17401600000003,
                    "velocity": 0.2047244094488189,
                    "duration": 0.6163960000000017
                },
                {
                    "name": "B2",
                    "midi": 47,
                    "time": 60.25270900000003,
                    "velocity": 0.1732283464566929,
                    "duration": 0.1540990000000022
                },
                {
                    "name": "E3",
                    "midi": 52,
                    "time": 60.406808000000034,
                    "velocity": 0.2125984251968504,
                    "duration": 0.6163960000000017
                },
                {
                    "name": "E2",
                    "midi": 40,
                    "time": 62.87239200000003,
                    "velocity": 0.2047244094488189,
                    "duration": 0.6163959999999946
                },
                {
                    "name": "B2",
                    "midi": 47,
                    "time": 63.95108500000003,
                    "velocity": 0.1732283464566929,
                    "duration": 0.1540989999999951
                },
                {
                    "name": "B3",
                    "midi": 59,
                    "time": 64.10518400000002,
                    "velocity": 0.2125984251968504,
                    "duration": 0.6163959999999946
                },
                {
                    "name": "E2",
                    "midi": 40,
                    "time": 66.57076800000002,
                    "velocity": 0.2047244094488189,
                    "duration": 0.6163959999999946
                },
                {
                    "name": "B2",
                    "midi": 47,
                    "time": 67.64946100000002,
                    "velocity": 0.1732283464566929,
                    "duration": 0.1540990000000022
                },
                {
                    "name": "B3",
                    "midi": 59,
                    "time": 67.80356000000002,
                    "velocity": 0.2125984251968504,
                    "duration": 0.6163959999999946
                },
                {
                    "name": "E2",
                    "midi": 40,
                    "time": 70.26914400000001,
                    "velocity": 0.2047244094488189,
                    "duration": 0.6163959999999946
                },
                {
                    "name": "B2",
                    "midi": 47,
                    "time": 71.34783700000001,
                    "velocity": 0.1732283464566929,
                    "duration": 0.1540990000000022
                },
                {
                    "name": "B3",
                    "midi": 59,
                    "time": 71.50193600000001,
                    "velocity": 0.2125984251968504,
                    "duration": 0.6163959999999946
                },
                {
                    "name": "E2",
                    "midi": 40,
                    "time": 73.96752000000001,
                    "velocity": 0.2047244094488189,
                    "duration": 0.6163960000000088
                },
                {
                    "name": "B2",
                    "midi": 47,
                    "time": 75.04621300000002,
                    "velocity": 0.1732283464566929,
                    "duration": 0.1540990000000022
                },
                {
                    "name": "B3",
                    "midi": 59,
                    "time": 75.20031200000003,
                    "velocity": 0.2125984251968504,
                    "duration": 0.6163959999999946
                },
                {
                    "name": "E2",
                    "midi": 40,
                    "time": 77.66589600000003,
                    "velocity": 0.2440944881889764,
                    "duration": 0.6163959999999946
                },
                {
                    "name": "E3",
                    "midi": 52,
                    "time": 78.74458900000003,
                    "velocity": 0.23622047244094488,
                    "duration": 0.1540990000000022
                },
                {
                    "name": "E4",
                    "midi": 64,
                    "time": 78.89868800000004,
                    "velocity": 0.28346456692913385,
                    "duration": 0.6163959999999946
                },
                {
                    "name": "E2",
                    "midi": 40,
                    "time": 81.36427200000003,
                    "velocity": 0.2440944881889764,
                    "duration": 0.6163959999999946
                },
                {
                    "name": "E3",
                    "midi": 52,
                    "time": 82.44296500000003,
                    "velocity": 0.23622047244094488,
                    "duration": 0.1540990000000022
                },
                {
                    "name": "E4",
                    "midi": 64,
                    "time": 82.59706400000003,
                    "velocity": 0.28346456692913385,
                    "duration": 0.6163959999999946
                },
                {
                    "name": "E2",
                    "midi": 40,
                    "time": 85.06264800000002,
                    "velocity": 0.29133858267716534,
                    "duration": 0.6163959999999946
                },
                {
                    "name": "E3",
                    "midi": 52,
                    "time": 86.14134100000003,
                    "velocity": 0.25984251968503935,
                    "duration": 0.1540990000000022
                },
                {
                    "name": "E4",
                    "midi": 64,
                    "time": 86.29544000000003,
                    "velocity": 0.31496062992125984,
                    "duration": 0.6163959999999946
                },
                {
                    "name": "E2",
                    "midi": 40,
                    "time": 88.76102400000002,
                    "velocity": 0.2440944881889764,
                    "duration": 0.6163959999999946
                },
                {
                    "name": "E3",
                    "midi": 52,
                    "time": 89.83971700000002,
                    "velocity": 0.23622047244094488,
                    "duration": 0.1540990000000022
                },
                {
                    "name": "E4",
                    "midi": 64,
                    "time": 89.99381600000002,
                    "velocity": 0.28346456692913385,
                    "duration": 0.6163959999999946
                },
                {
                    "name": "B1",
                    "midi": 35,
                    "time": 92.45940000000002,
                    "velocity": 0.2755905511811024,
                    "duration": 0.6163959999999946
                },
                {
                    "name": "B2",
                    "midi": 47,
                    "time": 92.45940000000002,
                    "velocity": 0.33070866141732286,
                    "duration": 0.6163959999999946
                },
                {
                    "name": "B2",
                    "midi": 47,
                    "time": 93.53809300000002,
                    "velocity": 0.3464566929133858,
                    "duration": 0.1540990000000022
                },
                {
                    "name": "B3",
                    "midi": 59,
                    "time": 93.69219200000002,
                    "velocity": 0.3937007874015748,
                    "duration": 0.6163960000000088
                },
                {
                    "name": "B1",
                    "midi": 35,
                    "time": 96.15777600000003,
                    "velocity": 0.3228346456692913,
                    "duration": 0.6163959999999946
                },
                {
                    "name": "B2",
                    "midi": 47,
                    "time": 96.15777600000003,
                    "velocity": 0.3858267716535433,
                    "duration": 0.6163959999999946
                },
                {
                    "name": "B2",
                    "midi": 47,
                    "time": 97.23646900000003,
                    "velocity": 0.4015748031496063,
                    "duration": 0.1540990000000022
                },
                {
                    "name": "B3",
                    "midi": 59,
                    "time": 97.39056800000003,
                    "velocity": 0.4645669291338583,
                    "duration": 0.6163959999999946
                },
                {
                    "name": "B1",
                    "midi": 35,
                    "time": 99.85615200000002,
                    "velocity": 0.36220472440944884,
                    "duration": 0.6163959999999946
                },
                {
                    "name": "B2",
                    "midi": 47,
                    "time": 99.85615200000002,
                    "velocity": 0.4330708661417323,
                    "duration": 0.6163959999999946
                },
                {
                    "name": "B2",
                    "midi": 47,
                    "time": 100.93484500000002,
                    "velocity": 0.4094488188976378,
                    "duration": 0.1540990000000022
                },
                {
                    "name": "B3",
                    "midi": 59,
                    "time": 101.08894400000003,
                    "velocity": 0.47244094488188976,
                    "duration": 0.6163959999999946
                },
                {
                    "name": "B1",
                    "midi": 35,
                    "time": 103.55452800000002,
                    "velocity": 0.28346456692913385,
                    "duration": 0.6163959999999946
                },
                {
                    "name": "B2",
                    "midi": 47,
                    "time": 104.63322100000002,
                    "velocity": 0.30708661417322836,
                    "duration": 0.1540990000000022
                },
                {
                    "name": "B3",
                    "midi": 59,
                    "time": 104.78732000000002,
                    "velocity": 0.3464566929133858,
                    "duration": 0.6163959999999946
                },
                {
                    "name": "C#2",
                    "midi": 37,
                    "time": 107.25290400000002,
                    "velocity": 0.2047244094488189,
                    "duration": 0.6163959999999946
                },
                {
                    "name": "C#3",
                    "midi": 49,
                    "time": 108.33159700000002,
                    "velocity": 0.1968503937007874,
                    "duration": 0.1540990000000022
                },
                {
                    "name": "C#4",
                    "midi": 61,
                    "time": 108.48569600000002,
                    "velocity": 0.23622047244094488,
                    "duration": 0.6163959999999946
                },
                {
                    "name": "F#2",
                    "midi": 42,
                    "time": 110.95128000000001,
                    "velocity": 0.1732283464566929,
                    "duration": 0.6163960000000088
                },
                {
                    "name": "F#1",
                    "midi": 30,
                    "time": 110.95128000000001,
                    "velocity": 0.14960629921259844,
                    "duration": 0.6163960000000088
                },
                {
                    "name": "F#2",
                    "midi": 42,
                    "time": 112.02997300000003,
                    "velocity": 0.1968503937007874,
                    "duration": 0.1540990000000022
                },
                {
                    "name": "F#3",
                    "midi": 54,
                    "time": 112.18407200000003,
                    "velocity": 0.23622047244094488,
                    "duration": 0.6163959999999946
                },
                {
                    "name": "G#1",
                    "midi": 32,
                    "time": 114.64965600000002,
                    "velocity": 0.1732283464566929,
                    "duration": 0.6163959999999946
                },
                {
                    "name": "G#2",
                    "midi": 44,
                    "time": 114.64965600000002,
                    "velocity": 0.2047244094488189,
                    "duration": 0.6163959999999946
                },
                {
                    "name": "G#2",
                    "midi": 44,
                    "time": 115.72834900000002,
                    "velocity": 0.1732283464566929,
                    "duration": 0.1540990000000022
                },
                {
                    "name": "G#3",
                    "midi": 56,
                    "time": 115.88244800000002,
                    "velocity": 0.2125984251968504,
                    "duration": 0.6163959999999946
                },
                {
                    "name": "C#2",
                    "midi": 37,
                    "time": 118.34803200000002,
                    "velocity": 0.2047244094488189,
                    "duration": 0.6163959999999946
                },
                {
                    "name": "C#2",
                    "midi": 37,
                    "time": 119.42672500000002,
                    "velocity": 0.1732283464566929,
                    "duration": 0.1540990000000022
                },
                {
                    "name": "C#3",
                    "midi": 49,
                    "time": 119.58082400000002,
                    "velocity": 0.2125984251968504,
                    "duration": 0.6163959999999946
                },
                {
                    "name": "A1",
                    "midi": 33,
                    "time": 122.04640800000001,
                    "velocity": 0.2047244094488189,
                    "duration": 0.6163959999999946
                },
                {
                    "name": "A2",
                    "midi": 45,
                    "time": 122.04640800000001,
                    "velocity": 0.2047244094488189,
                    "duration": 0.6163959999999946
                },
                {
                    "name": "A1",
                    "midi": 33,
                    "time": 125.74478400000001,
                    "velocity": 0.2047244094488189,
                    "duration": 0.6163960000000088
                },
                {
                    "name": "A2",
                    "midi": 45,
                    "time": 125.74478400000001,
                    "velocity": 0.2047244094488189,
                    "duration": 0.6163960000000088
                },
                {
                    "name": "G#2",
                    "midi": 44,
                    "time": 129.44316,
                    "velocity": 0.2047244094488189,
                    "duration": 0.6163960000000088
                },
                {
                    "name": "G#1",
                    "midi": 32,
                    "time": 129.44316,
                    "velocity": 0.2047244094488189,
                    "duration": 0.6163960000000088
                },
                {
                    "name": "C#2",
                    "midi": 37,
                    "time": 133.141536,
                    "velocity": 0.2047244094488189,
                    "duration": 0.6163960000000088
                },
                {
                    "name": "C#3",
                    "midi": 49,
                    "time": 134.37432800000002,
                    "velocity": 0.2125984251968504,
                    "duration": 0.6163960000000088
                },
                {
                    "name": "A1",
                    "midi": 33,
                    "time": 136.83991200000003,
                    "velocity": 0.18110236220472442,
                    "duration": 0.6163959999999804
                },
                {
                    "name": "A2",
                    "midi": 45,
                    "time": 138.07270400000002,
                    "velocity": 0.2047244094488189,
                    "duration": 0.6163960000000088
                },
                {
                    "name": "A1",
                    "midi": 33,
                    "time": 140.53828800000002,
                    "velocity": 0.18110236220472442,
                    "duration": 0.6163959999999804
                },
                {
                    "name": "A2",
                    "midi": 45,
                    "time": 141.77108,
                    "velocity": 0.2047244094488189,
                    "duration": 0.6163960000000088
                },
                {
                    "name": "G#1",
                    "midi": 32,
                    "time": 144.23666400000002,
                    "velocity": 0.14960629921259844,
                    "duration": 0.6163959999999804
                },
                {
                    "name": "G#2",
                    "midi": 44,
                    "time": 145.469456,
                    "velocity": 0.16535433070866143,
                    "duration": 0.6163960000000088
                },
                {
                    "name": "G#3",
                    "midi": 56,
                    "time": 146.08585200000002,
                    "velocity": 0.16535433070866143,
                    "duration": 0.6163960000000088
                },
                {
                    "name": "C#4",
                    "midi": 61,
                    "time": 147.93504000000001,
                    "velocity": 0.2125984251968504,
                    "duration": 7.396752000000049
                },
                {
                    "name": "E3",
                    "midi": 52,
                    "time": 147.93504000000001,
                    "velocity": 0.1732283464566929,
                    "duration": 7.396752000000049
                },
                {
                    "name": "G#3",
                    "midi": 56,
                    "time": 147.93504000000001,
                    "velocity": 0.1732283464566929,
                    "duration": 7.396752000000049
                },
                {
                    "name": "C#2",
                    "midi": 37,
                    "time": 147.93504000000001,
                    "velocity": 0.18110236220472442,
                    "duration": 0.6163960000000088
                },
                {
                    "name": "C#3",
                    "midi": 49,
                    "time": 149.16783200000003,
                    "velocity": 0.1889763779527559,
                    "duration": 0.6163960000000088
                },
                {
                    "name": "C#2",
                    "midi": 37,
                    "time": 151.63341600000004,
                    "velocity": 0.18110236220472442,
                    "duration": 0.6163960000000088
                },
                {
                    "name": "C#3",
                    "midi": 49,
                    "time": 152.86620800000006,
                    "velocity": 0.1889763779527559,
                    "duration": 0.6163960000000088
                },
                {
                    "name": "G#1",
                    "midi": 32,
                    "time": 154.7513524333334,
                    "velocity": 0.29133858267716534,
                    "duration": 0.6163959999999804
                },
                {
                    "name": "A1",
                    "midi": 33,
                    "time": 155.33179200000006,
                    "velocity": 0.2677165354330709,
                    "duration": 0.3081980000000044
                },
                {
                    "name": "A2",
                    "midi": 45,
                    "time": 155.63999000000007,
                    "velocity": 0.2204724409448819,
                    "duration": 0.1540990000000022
                },
                {
                    "name": "A2",
                    "midi": 45,
                    "time": 155.94818800000007,
                    "velocity": 0.2204724409448819,
                    "duration": 0.1540990000000022
                },
                {
                    "name": "A2",
                    "midi": 45,
                    "time": 156.25638600000008,
                    "velocity": 0.2204724409448819,
                    "duration": 0.1540990000000022
                },
                {
                    "name": "A1",
                    "midi": 33,
                    "time": 156.56458400000008,
                    "velocity": 0.25984251968503935,
                    "duration": 0.3081980000000044
                },
                {
                    "name": "A2",
                    "midi": 45,
                    "time": 156.8727820000001,
                    "velocity": 0.2204724409448819,
                    "duration": 0.1540990000000022
                },
                {
                    "name": "A2",
                    "midi": 45,
                    "time": 157.1809800000001,
                    "velocity": 0.2204724409448819,
                    "duration": 0.1540990000000022
                },
                {
                    "name": "A2",
                    "midi": 45,
                    "time": 157.4891780000001,
                    "velocity": 0.2204724409448819,
                    "duration": 0.1540990000000022
                },
                {
                    "name": "A1",
                    "midi": 33,
                    "time": 157.7973760000001,
                    "velocity": 0.25196850393700787,
                    "duration": 0.3081980000000044
                },
                {
                    "name": "A2",
                    "midi": 45,
                    "time": 158.1055740000001,
                    "velocity": 0.2204724409448819,
                    "duration": 0.1540990000000022
                },
                {
                    "name": "A2",
                    "midi": 45,
                    "time": 158.4137720000001,
                    "velocity": 0.2204724409448819,
                    "duration": 0.1540990000000022
                },
                {
                    "name": "A2",
                    "midi": 45,
                    "time": 158.7219700000001,
                    "velocity": 0.2204724409448819,
                    "duration": 0.1540990000000022
                },
                {
                    "name": "A1",
                    "midi": 33,
                    "time": 159.03016800000012,
                    "velocity": 0.2677165354330709,
                    "duration": 0.3081980000000044
                },
                {
                    "name": "A2",
                    "midi": 45,
                    "time": 159.33836600000012,
                    "velocity": 0.2283464566929134,
                    "duration": 0.1540990000000022
                },
                {
                    "name": "A2",
                    "midi": 45,
                    "time": 159.64656400000013,
                    "velocity": 0.2283464566929134,
                    "duration": 0.1540990000000022
                },
                {
                    "name": "A2",
                    "midi": 45,
                    "time": 159.95476200000013,
                    "velocity": 0.2283464566929134,
                    "duration": 0.1540990000000022
                },
                {
                    "name": "A2",
                    "midi": 45,
                    "time": 160.26296000000013,
                    "velocity": 0.2283464566929134,
                    "duration": 0.1540990000000022
                },
                {
                    "name": "A2",
                    "midi": 45,
                    "time": 160.57115800000014,
                    "velocity": 0.2283464566929134,
                    "duration": 0.1540990000000022
                },
                {
                    "name": "A2",
                    "midi": 45,
                    "time": 160.87935600000014,
                    "velocity": 0.2283464566929134,
                    "duration": 0.1540990000000022
                },
                {
                    "name": "A2",
                    "midi": 45,
                    "time": 161.18755400000015,
                    "velocity": 0.2283464566929134,
                    "duration": 0.1540990000000022
                },
                {
                    "name": "A1",
                    "midi": 33,
                    "time": 161.49575200000015,
                    "velocity": 0.2677165354330709,
                    "duration": 0.3081980000000044
                },
                {
                    "name": "A2",
                    "midi": 45,
                    "time": 161.80395000000016,
                    "velocity": 0.2047244094488189,
                    "duration": 0.1540990000000022
                },
                {
                    "name": "A2",
                    "midi": 45,
                    "time": 162.11214800000016,
                    "velocity": 0.2283464566929134,
                    "duration": 0.1540990000000022
                },
                {
                    "name": "A2",
                    "midi": 45,
                    "time": 162.42034600000017,
                    "velocity": 0.2440944881889764,
                    "duration": 0.1540990000000022
                },
                {
                    "name": "A1",
                    "midi": 33,
                    "time": 162.72854400000017,
                    "velocity": 0.2677165354330709,
                    "duration": 0.3081980000000044
                },
                {
                    "name": "A2",
                    "midi": 45,
                    "time": 163.03674200000017,
                    "velocity": 0.2440944881889764,
                    "duration": 0.1540990000000022
                },
                {
                    "name": "A2",
                    "midi": 45,
                    "time": 163.34494000000018,
                    "velocity": 0.2440944881889764,
                    "duration": 0.1540990000000022
                },
                {
                    "name": "A2",
                    "midi": 45,
                    "time": 163.65313800000018,
                    "velocity": 0.2440944881889764,
                    "duration": 0.1540990000000022
                },
                {
                    "name": "A2",
                    "midi": 45,
                    "time": 163.9613360000002,
                    "velocity": 0.2440944881889764,
                    "duration": 0.1540990000000022
                },
                {
                    "name": "A2",
                    "midi": 45,
                    "time": 164.2695340000002,
                    "velocity": 0.23622047244094488,
                    "duration": 0.1540990000000022
                },
                {
                    "name": "A1",
                    "midi": 33,
                    "time": 164.5777320000002,
                    "velocity": 0.2440944881889764,
                    "duration": 0.3081980000000044
                },
                {
                    "name": "A2",
                    "midi": 45,
                    "time": 164.8859300000002,
                    "velocity": 0.2440944881889764,
                    "duration": 0.3081980000000044
                },
                {
                    "name": "A1",
                    "midi": 33,
                    "time": 165.1941280000002,
                    "velocity": 0.2440944881889764,
                    "duration": 0.3081980000000044
                },
                {
                    "name": "A2",
                    "midi": 45,
                    "time": 165.5023260000002,
                    "velocity": 0.2440944881889764,
                    "duration": 0.3081980000000044
                },
                {
                    "name": "C#2",
                    "midi": 37,
                    "time": 165.8105240000002,
                    "velocity": 0.2440944881889764,
                    "duration": 0.3081980000000044
                },
                {
                    "name": "C#3",
                    "midi": 49,
                    "time": 166.11872200000022,
                    "velocity": 0.2440944881889764,
                    "duration": 0.3081980000000044
                },
                {
                    "name": "E2",
                    "midi": 40,
                    "time": 166.42692000000022,
                    "velocity": 0.2677165354330709,
                    "duration": 0.3081980000000044
                },
                {
                    "name": "E2",
                    "midi": 40,
                    "time": 166.73511800000023,
                    "velocity": 0.25984251968503935,
                    "duration": 0.3081980000000044
                },
                {
                    "name": "E2",
                    "midi": 40,
                    "time": 167.04331600000023,
                    "velocity": 0.28346456692913385,
                    "duration": 0.3081980000000044
                },
                {
                    "name": "E2",
                    "midi": 40,
                    "time": 167.35151400000024,
                    "velocity": 0.30708661417322836,
                    "duration": 0.3081980000000044
                },
                {
                    "name": "E2",
                    "midi": 40,
                    "time": 167.65971200000024,
                    "velocity": 0.29133858267716534,
                    "duration": 0.1540990000000022
                },
                {
                    "name": "E2",
                    "midi": 40,
                    "time": 167.96791000000024,
                    "velocity": 0.2755905511811024,
                    "duration": 0.1540990000000022
                },
                {
                    "name": "D2",
                    "midi": 38,
                    "time": 168.27610800000025,
                    "velocity": 0.25984251968503935,
                    "duration": 0.1540990000000022
                },
                {
                    "name": "D2",
                    "midi": 38,
                    "time": 168.58430600000025,
                    "velocity": 0.2440944881889764,
                    "duration": 0.1540990000000022
                },
                {
                    "name": "C#2",
                    "midi": 37,
                    "time": 168.89250400000026,
                    "velocity": 0.23622047244094488,
                    "duration": 0.1540990000000022
                },
                {
                    "name": "C#2",
                    "midi": 37,
                    "time": 169.20070200000026,
                    "velocity": 0.23622047244094488,
                    "duration": 0.1540990000000022
                },
                {
                    "name": "B1",
                    "midi": 35,
                    "time": 169.50890000000027,
                    "velocity": 0.2283464566929134,
                    "duration": 0.1540990000000022
                },
                {
                    "name": "B1",
                    "midi": 35,
                    "time": 169.81709800000027,
                    "velocity": 0.2283464566929134,
                    "duration": 0.1540990000000022
                },
                {
                    "name": "A1",
                    "midi": 33,
                    "time": 170.12529600000028,
                    "velocity": 0.2677165354330709,
                    "duration": 0.3081980000000044
                },
                {
                    "name": "A2",
                    "midi": 45,
                    "time": 170.43349400000028,
                    "velocity": 0.2204724409448819,
                    "duration": 0.1540990000000022
                },
                {
                    "name": "A2",
                    "midi": 45,
                    "time": 170.74169200000028,
                    "velocity": 0.2204724409448819,
                    "duration": 0.1540990000000022
                },
                {
                    "name": "A2",
                    "midi": 45,
                    "time": 171.0498900000003,
                    "velocity": 0.2204724409448819,
                    "duration": 0.1540990000000022
                },
                {
                    "name": "A1",
                    "midi": 33,
                    "time": 171.3580880000003,
                    "velocity": 0.25984251968503935,
                    "duration": 0.3081980000000044
                },
                {
                    "name": "A2",
                    "midi": 45,
                    "time": 171.6662860000003,
                    "velocity": 0.2204724409448819,
                    "duration": 0.1540990000000022
                },
                {
                    "name": "A2",
                    "midi": 45,
                    "time": 171.9744840000003,
                    "velocity": 0.2204724409448819,
                    "duration": 0.1540990000000022
                },
                {
                    "name": "A2",
                    "midi": 45,
                    "time": 172.2826820000003,
                    "velocity": 0.2204724409448819,
                    "duration": 0.1540990000000022
                },
                {
                    "name": "A1",
                    "midi": 33,
                    "time": 172.5908800000003,
                    "velocity": 0.25196850393700787,
                    "duration": 0.308197999999976
                },
                {
                    "name": "A2",
                    "midi": 45,
                    "time": 172.8990780000003,
                    "velocity": 0.2204724409448819,
                    "duration": 0.1540990000000022
                },
                {
                    "name": "A2",
                    "midi": 45,
                    "time": 173.2072760000003,
                    "velocity": 0.2204724409448819,
                    "duration": 0.1540990000000022
                },
                {
                    "name": "A2",
                    "midi": 45,
                    "time": 173.5154740000003,
                    "velocity": 0.2204724409448819,
                    "duration": 0.1540990000000022
                },
                {
                    "name": "A1",
                    "midi": 33,
                    "time": 173.8236720000003,
                    "velocity": 0.2677165354330709,
                    "duration": 0.3081980000000044
                },
                {
                    "name": "A2",
                    "midi": 45,
                    "time": 174.1318700000003,
                    "velocity": 0.2283464566929134,
                    "duration": 0.1540990000000022
                },
                {
                    "name": "A2",
                    "midi": 45,
                    "time": 174.4400680000003,
                    "velocity": 0.2283464566929134,
                    "duration": 0.1540990000000022
                },
                {
                    "name": "A2",
                    "midi": 45,
                    "time": 174.7482660000003,
                    "velocity": 0.2283464566929134,
                    "duration": 0.1540990000000022
                },
                {
                    "name": "A2",
                    "midi": 45,
                    "time": 175.05646400000032,
                    "velocity": 0.2283464566929134,
                    "duration": 0.1540990000000022
                },
                {
                    "name": "A2",
                    "midi": 45,
                    "time": 175.36466200000032,
                    "velocity": 0.2283464566929134,
                    "duration": 0.1540990000000022
                },
                {
                    "name": "A1",
                    "midi": 33,
                    "time": 175.67286000000033,
                    "velocity": 0.2283464566929134,
                    "duration": 0.1540990000000022
                },
                {
                    "name": "A2",
                    "midi": 45,
                    "time": 175.98105800000033,
                    "velocity": 0.23622047244094488,
                    "duration": 0.1540990000000022
                },
                {
                    "name": "G1",
                    "midi": 31,
                    "time": 176.28925600000034,
                    "velocity": 0.33070866141732286,
                    "duration": 0.3081980000000044
                },
                {
                    "name": "G2",
                    "midi": 43,
                    "time": 176.59745400000034,
                    "velocity": 0.28346456692913385,
                    "duration": 0.3081980000000044
                },
                {
                    "name": "E1",
                    "midi": 28,
                    "time": 176.90565200000034,
                    "velocity": 0.30708661417322836,
                    "duration": 0.2311484999999891
                },
                {
                    "name": "F#2",
                    "midi": 42,
                    "time": 177.21385000000032,
                    "velocity": 0.33858267716535434,
                    "duration": 0.2311484999999891
                },
                {
                    "name": "B1",
                    "midi": 35,
                    "time": 177.5220480000003,
                    "velocity": 0.3700787401574803,
                    "duration": 0.3081980000000044
                },
                {
                    "name": "B2",
                    "midi": 47,
                    "time": 177.8302460000003,
                    "velocity": 0.28346456692913385,
                    "duration": 0.3081980000000044
                },
                {
                    "name": "B2",
                    "midi": 47,
                    "time": 178.1384440000003,
                    "velocity": 0.2677165354330709,
                    "duration": 0.3081980000000044
                },
                {
                    "name": "C#3",
                    "midi": 49,
                    "time": 178.4466420000003,
                    "velocity": 0.25196850393700787,
                    "duration": 0.3081980000000044
                },
                {
                    "name": "D3",
                    "midi": 50,
                    "time": 178.7548400000003,
                    "velocity": 0.2440944881889764,
                    "duration": 0.3081980000000044
                },
                {
                    "name": "B2",
                    "midi": 47,
                    "time": 179.06303800000032,
                    "velocity": 0.23622047244094488,
                    "duration": 0.3081980000000044
                },
                {
                    "name": "B1",
                    "midi": 35,
                    "time": 179.37123600000032,
                    "velocity": 0.2677165354330709,
                    "duration": 0.3081980000000044
                },
                {
                    "name": "B2",
                    "midi": 47,
                    "time": 179.67943400000033,
                    "velocity": 0.25984251968503935,
                    "duration": 0.3081980000000044
                },
                {
                    "name": "C#2",
                    "midi": 37,
                    "time": 179.98763200000033,
                    "velocity": 0.25196850393700787,
                    "duration": 0.3081980000000044
                },
                {
                    "name": "C#3",
                    "midi": 49,
                    "time": 180.29583000000034,
                    "velocity": 0.2440944881889764,
                    "duration": 0.3081980000000044
                },
                {
                    "name": "E2",
                    "midi": 40,
                    "time": 180.60402800000034,
                    "velocity": 0.2440944881889764,
                    "duration": 0.3081980000000044
                },
                {
                    "name": "E3",
                    "midi": 52,
                    "time": 180.91222600000035,
                    "velocity": 0.2440944881889764,
                    "duration": 0.3081980000000044
                },
                {
                    "name": "E2",
                    "midi": 40,
                    "time": 181.52862200000035,
                    "velocity": 0.2283464566929134,
                    "duration": 0.3081980000000044
                },
                {
                    "name": "G#2",
                    "midi": 44,
                    "time": 181.83682000000036,
                    "velocity": 0.2440944881889764,
                    "duration": 0.3081980000000044
                },
                {
                    "name": "E2",
                    "midi": 40,
                    "time": 182.14501800000036,
                    "velocity": 0.25984251968503935,
                    "duration": 0.3081980000000044
                },
                {
                    "name": "A2",
                    "midi": 45,
                    "time": 182.45321600000037,
                    "velocity": 0.2755905511811024,
                    "duration": 0.2311484999999891
                },
                {
                    "name": "C#2",
                    "midi": 37,
                    "time": 182.76141400000034,
                    "velocity": 0.25196850393700787,
                    "duration": 0.1540990000000022
                },
                {
                    "name": "D2",
                    "midi": 38,
                    "time": 183.06961200000035,
                    "velocity": 0.25196850393700787,
                    "duration": 0.1540990000000022
                },
                {
                    "name": "E2",
                    "midi": 40,
                    "time": 183.37781000000035,
                    "velocity": 0.25196850393700787,
                    "duration": 0.1540990000000022
                },
                {
                    "name": "F#2",
                    "midi": 42,
                    "time": 183.68600800000036,
                    "velocity": 0.25196850393700787,
                    "duration": 0.1540990000000022
                },
                {
                    "name": "E2",
                    "midi": 40,
                    "time": 183.99420600000036,
                    "velocity": 0.25196850393700787,
                    "duration": 0.1540990000000022
                },
                {
                    "name": "F#2",
                    "midi": 42,
                    "time": 184.30240400000037,
                    "velocity": 0.2440944881889764,
                    "duration": 0.1540990000000022
                },
                {
                    "name": "G#2",
                    "midi": 44,
                    "time": 184.61060200000037,
                    "velocity": 0.2440944881889764,
                    "duration": 0.1540990000000022
                },
                {
                    "name": "A2",
                    "midi": 45,
                    "time": 184.91880000000037,
                    "velocity": 0.28346456692913385,
                    "duration": 0.3081980000000044
                },
                {
                    "name": "C#3",
                    "midi": 49,
                    "time": 185.53519600000038,
                    "velocity": 0.18110236220472442,
                    "duration": 0.3081980000000044
                },
                {
                    "name": "E3",
                    "midi": 52,
                    "time": 185.53519600000038,
                    "velocity": 0.2125984251968504,
                    "duration": 0.3081980000000044
                },
                {
                    "name": "A2",
                    "midi": 45,
                    "time": 186.1515920000004,
                    "velocity": 0.28346456692913385,
                    "duration": 0.3081980000000044
                },
                {
                    "name": "C#3",
                    "midi": 49,
                    "time": 186.7679880000004,
                    "velocity": 0.1889763779527559,
                    "duration": 0.3081980000000044
                },
                {
                    "name": "E3",
                    "midi": 52,
                    "time": 186.7679880000004,
                    "velocity": 0.2204724409448819,
                    "duration": 0.3081980000000044
                },
                {
                    "name": "A2",
                    "midi": 45,
                    "time": 187.3843840000004,
                    "velocity": 0.28346456692913385,
                    "duration": 0.3081980000000044
                },
                {
                    "name": "D3",
                    "midi": 50,
                    "time": 188.00078000000042,
                    "velocity": 0.1968503937007874,
                    "duration": 0.3081980000000044
                },
                {
                    "name": "E3",
                    "midi": 52,
                    "time": 188.00078000000042,
                    "velocity": 0.2283464566929134,
                    "duration": 0.3081980000000044
                },
                {
                    "name": "A2",
                    "midi": 45,
                    "time": 188.61717600000043,
                    "velocity": 0.28346456692913385,
                    "duration": 0.3081980000000044
                },
                {
                    "name": "E3",
                    "midi": 52,
                    "time": 189.23357200000044,
                    "velocity": 0.23622047244094488,
                    "duration": 0.3081980000000044
                },
                {
                    "name": "A2",
                    "midi": 45,
                    "time": 189.84996800000044,
                    "velocity": 0.28346456692913385,
                    "duration": 0.3081980000000044
                },
                {
                    "name": "E3",
                    "midi": 52,
                    "time": 190.46636400000045,
                    "velocity": 0.2283464566929134,
                    "duration": 0.3081980000000044
                },
                {
                    "name": "C#3",
                    "midi": 49,
                    "time": 190.46636400000045,
                    "velocity": 0.1968503937007874,
                    "duration": 0.3081980000000044
                },
                {
                    "name": "A2",
                    "midi": 45,
                    "time": 191.08276000000046,
                    "velocity": 0.28346456692913385,
                    "duration": 0.3081980000000044
                },
                {
                    "name": "E3",
                    "midi": 52,
                    "time": 191.69915600000047,
                    "velocity": 0.2283464566929134,
                    "duration": 0.3081980000000044
                },
                {
                    "name": "A3",
                    "midi": 57,
                    "time": 191.69915600000047,
                    "velocity": 0.2283464566929134,
                    "duration": 0.3081980000000044
                },
                {
                    "name": "A2",
                    "midi": 45,
                    "time": 192.31555200000048,
                    "velocity": 0.28346456692913385,
                    "duration": 0.3081980000000044
                },
                {
                    "name": "A3",
                    "midi": 57,
                    "time": 192.9319480000005,
                    "velocity": 0.2204724409448819,
                    "duration": 0.3081980000000044
                },
                {
                    "name": "F#3",
                    "midi": 54,
                    "time": 192.9319480000005,
                    "velocity": 0.1889763779527559,
                    "duration": 0.3081980000000044
                },
                {
                    "name": "A2",
                    "midi": 45,
                    "time": 193.5483440000005,
                    "velocity": 0.28346456692913385,
                    "duration": 0.3081980000000044
                },
                {
                    "name": "F#3",
                    "midi": 54,
                    "time": 194.1647400000005,
                    "velocity": 0.2125984251968504,
                    "duration": 0.6163959999999804
                },
                {
                    "name": "A3",
                    "midi": 57,
                    "time": 194.1647400000005,
                    "velocity": 0.25196850393700787,
                    "duration": 0.6163959999999804
                },
                {
                    "name": "E3",
                    "midi": 52,
                    "time": 194.7811360000005,
                    "velocity": 0.2125984251968504,
                    "duration": 0.6163959999999804
                },
                {
                    "name": "A3",
                    "midi": 57,
                    "time": 194.7811360000005,
                    "velocity": 0.25196850393700787,
                    "duration": 0.6163959999999804
                },
                {
                    "name": "C#3",
                    "midi": 49,
                    "time": 195.39753200000047,
                    "velocity": 0.2204724409448819,
                    "duration": 0.6163960000000088
                },
                {
                    "name": "A3",
                    "midi": 57,
                    "time": 195.39753200000047,
                    "velocity": 0.25984251968503935,
                    "duration": 0.6163960000000088
                },
                {
                    "name": "E2",
                    "midi": 40,
                    "time": 196.01392800000048,
                    "velocity": 0.28346456692913385,
                    "duration": 0.3081980000000044
                },
                {
                    "name": "E3",
                    "midi": 52,
                    "time": 196.63032400000048,
                    "velocity": 0.25984251968503935,
                    "duration": 0.3081980000000044
                },
                {
                    "name": "E2",
                    "midi": 40,
                    "time": 197.2467200000005,
                    "velocity": 0.25984251968503935,
                    "duration": 0.3081980000000044
                },
                {
                    "name": "D3",
                    "midi": 50,
                    "time": 197.8631160000005,
                    "velocity": 0.2125984251968504,
                    "duration": 0.4622969999999782
                },
                {
                    "name": "E3",
                    "midi": 52,
                    "time": 197.8631160000005,
                    "velocity": 0.25196850393700787,
                    "duration": 0.4622969999999782
                },
                {
                    "name": "C#3",
                    "midi": 49,
                    "time": 198.47951200000048,
                    "velocity": 0.23622047244094488,
                    "duration": 0.46229700000003504
                },
                {
                    "name": "E3",
                    "midi": 52,
                    "time": 198.47951200000048,
                    "velocity": 0.28346456692913385,
                    "duration": 0.46229700000003504
                },
                {
                    "name": "B2",
                    "midi": 47,
                    "time": 199.09590800000052,
                    "velocity": 0.2204724409448819,
                    "duration": 0.4622969999999782
                },
                {
                    "name": "E3",
                    "midi": 52,
                    "time": 199.09590800000052,
                    "velocity": 0.25984251968503935,
                    "duration": 0.4622969999999782
                },
                {
                    "name": "A2",
                    "midi": 45,
                    "time": 199.7123040000005,
                    "velocity": 0.28346456692913385,
                    "duration": 0.3081980000000044
                },
                {
                    "name": "C#3",
                    "midi": 49,
                    "time": 200.3287000000005,
                    "velocity": 0.18110236220472442,
                    "duration": 0.3081980000000044
                },
                {
                    "name": "E3",
                    "midi": 52,
                    "time": 200.3287000000005,
                    "velocity": 0.2125984251968504,
                    "duration": 0.3081980000000044
                },
                {
                    "name": "A2",
                    "midi": 45,
                    "time": 200.94509600000052,
                    "velocity": 0.28346456692913385,
                    "duration": 0.3081980000000044
                },
                {
                    "name": "C#3",
                    "midi": 49,
                    "time": 201.56149200000053,
                    "velocity": 0.1889763779527559,
                    "duration": 0.3081980000000044
                },
                {
                    "name": "E3",
                    "midi": 52,
                    "time": 201.56149200000053,
                    "velocity": 0.2204724409448819,
                    "duration": 0.3081980000000044
                },
                {
                    "name": "A2",
                    "midi": 45,
                    "time": 202.17788800000054,
                    "velocity": 0.28346456692913385,
                    "duration": 0.3081980000000044
                },
                {
                    "name": "D3",
                    "midi": 50,
                    "time": 202.79428400000054,
                    "velocity": 0.1968503937007874,
                    "duration": 0.3081980000000044
                },
                {
                    "name": "E3",
                    "midi": 52,
                    "time": 202.79428400000054,
                    "velocity": 0.2283464566929134,
                    "duration": 0.3081980000000044
                },
                {
                    "name": "A2",
                    "midi": 45,
                    "time": 203.41068000000055,
                    "velocity": 0.28346456692913385,
                    "duration": 0.3081980000000044
                },
                {
                    "name": "E3",
                    "midi": 52,
                    "time": 204.02707600000056,
                    "velocity": 0.23622047244094488,
                    "duration": 0.3081980000000044
                },
                {
                    "name": "A2",
                    "midi": 45,
                    "time": 204.64347200000057,
                    "velocity": 0.28346456692913385,
                    "duration": 0.3081980000000044
                },
                {
                    "name": "A2",
                    "midi": 45,
                    "time": 205.25986800000058,
                    "velocity": 0.2047244094488189,
                    "duration": 0.3081980000000044
                },
                {
                    "name": "E3",
                    "midi": 52,
                    "time": 205.25986800000058,
                    "velocity": 0.23622047244094488,
                    "duration": 0.3081980000000044
                },
                {
                    "name": "C#3",
                    "midi": 49,
                    "time": 205.25986800000058,
                    "velocity": 0.2047244094488189,
                    "duration": 0.3081980000000044
                },
                {
                    "name": "G2",
                    "midi": 43,
                    "time": 205.8762640000006,
                    "velocity": 0.2125984251968504,
                    "duration": 0.3081980000000044
                },
                {
                    "name": "C#3",
                    "midi": 49,
                    "time": 205.8762640000006,
                    "velocity": 0.2125984251968504,
                    "duration": 0.3081980000000044
                },
                {
                    "name": "E3",
                    "midi": 52,
                    "time": 205.8762640000006,
                    "velocity": 0.2440944881889764,
                    "duration": 0.3081980000000044
                },
                {
                    "name": "F#2",
                    "midi": 42,
                    "time": 206.4926600000006,
                    "velocity": 0.25196850393700787,
                    "duration": 0.3081980000000044
                },
                {
                    "name": "C#3",
                    "midi": 49,
                    "time": 206.4926600000006,
                    "velocity": 0.25196850393700787,
                    "duration": 0.3081980000000044
                },
                {
                    "name": "F#3",
                    "midi": 54,
                    "time": 206.4926600000006,
                    "velocity": 0.25196850393700787,
                    "duration": 0.3081980000000044
                },
                {
                    "name": "B2",
                    "midi": 47,
                    "time": 207.1090560000006,
                    "velocity": 0.31496062992125984,
                    "duration": 0.3081980000000044
                },
                {
                    "name": "F#3",
                    "midi": 54,
                    "time": 207.72545200000062,
                    "velocity": 0.2204724409448819,
                    "duration": 0.4622970000000066
                },
                {
                    "name": "A#3",
                    "midi": 58,
                    "time": 208.18774900000062,
                    "velocity": 0.2204724409448819,
                    "duration": 0.1540990000000022
                },
                {
                    "name": "B3",
                    "midi": 59,
                    "time": 208.34184800000062,
                    "velocity": 0.28346456692913385,
                    "duration": 0.6163960000000088
                },
                {
                    "name": "B2",
                    "midi": 47,
                    "time": 208.95824400000063,
                    "velocity": 0.2125984251968504,
                    "duration": 0.6163959999999804
                },
                {
                    "name": "F#3",
                    "midi": 54,
                    "time": 208.95824400000063,
                    "velocity": 0.25196850393700787,
                    "duration": 0.4622969999999782
                },
                {
                    "name": "G#3",
                    "midi": 56,
                    "time": 209.4205410000006,
                    "velocity": 0.25196850393700787,
                    "duration": 0.1540990000000022
                },
                {
                    "name": "C#3",
                    "midi": 49,
                    "time": 209.5746400000006,
                    "velocity": 0.2125984251968504,
                    "duration": 0.6163959999999804
                },
                {
                    "name": "A3",
                    "midi": 57,
                    "time": 209.5746400000006,
                    "velocity": 0.25196850393700787,
                    "duration": 0.6163959999999804
                },
                {
                    "name": "E3",
                    "midi": 52,
                    "time": 210.1910360000006,
                    "velocity": 0.2204724409448819,
                    "duration": 0.6163960000000088
                },
                {
                    "name": "G#3",
                    "midi": 56,
                    "time": 210.1910360000006,
                    "velocity": 0.25984251968503935,
                    "duration": 0.6163960000000088
                },
                {
                    "name": "A2",
                    "midi": 45,
                    "time": 210.8074320000006,
                    "velocity": 0.28346456692913385,
                    "duration": 0.3081980000000044
                },
                {
                    "name": "E3",
                    "midi": 52,
                    "time": 211.4238280000006,
                    "velocity": 0.25984251968503935,
                    "duration": 0.3081980000000044
                },
                {
                    "name": "G#3",
                    "midi": 56,
                    "time": 211.4238280000006,
                    "velocity": 0.25984251968503935,
                    "duration": 0.3081980000000044
                },
                {
                    "name": "E3",
                    "midi": 52,
                    "time": 212.04022400000062,
                    "velocity": 0.2204724409448819,
                    "duration": 0.308197999999976
                },
                {
                    "name": "A3",
                    "midi": 57,
                    "time": 212.04022400000062,
                    "velocity": 0.25984251968503935,
                    "duration": 0.308197999999976
                },
                {
                    "name": "A2",
                    "midi": 45,
                    "time": 212.04022400000062,
                    "velocity": 0.2440944881889764,
                    "duration": 0.2311484999999891
                },
                {
                    "name": "A2",
                    "midi": 45,
                    "time": 212.3484220000006,
                    "velocity": 0.2992125984251969,
                    "duration": 0.1540990000000022
                },
                {
                    "name": "B2",
                    "midi": 47,
                    "time": 212.6566200000006,
                    "velocity": 0.29133858267716534,
                    "duration": 0.1540990000000022
                },
                {
                    "name": "C#3",
                    "midi": 49,
                    "time": 212.9648180000006,
                    "velocity": 0.2755905511811024,
                    "duration": 0.1540990000000022
                },
                {
                    "name": "B2",
                    "midi": 47,
                    "time": 213.2730160000006,
                    "velocity": 0.2677165354330709,
                    "duration": 0.1540990000000022
                },
                {
                    "name": "A2",
                    "midi": 45,
                    "time": 213.5812140000006,
                    "velocity": 0.25196850393700787,
                    "duration": 0.1540990000000022
                },
                {
                    "name": "G#2",
                    "midi": 44,
                    "time": 213.88941200000062,
                    "velocity": 0.2440944881889764,
                    "duration": 0.1540990000000022
                },
                {
                    "name": "F#2",
                    "midi": 42,
                    "time": 214.19761000000062,
                    "velocity": 0.2440944881889764,
                    "duration": 0.1540990000000022
                },
                {
                    "name": "E2",
                    "midi": 40,
                    "time": 214.50580800000063,
                    "velocity": 0.2677165354330709,
                    "duration": 0.3081980000000044
                },
                {
                    "name": "E3",
                    "midi": 52,
                    "time": 214.81400600000063,
                    "velocity": 0.2204724409448819,
                    "duration": 0.1540990000000022
                },
                {
                    "name": "E3",
                    "midi": 52,
                    "time": 215.12220400000064,
                    "velocity": 0.2204724409448819,
                    "duration": 0.1540990000000022
                },
                {
                    "name": "E3",
                    "midi": 52,
                    "time": 215.43040200000064,
                    "velocity": 0.2204724409448819,
                    "duration": 0.1540990000000022
                },
                {
                    "name": "E2",
                    "midi": 40,
                    "time": 215.73860000000064,
                    "velocity": 0.25984251968503935,
                    "duration": 0.3081980000000044
                },
                {
                    "name": "E3",
                    "midi": 52,
                    "time": 216.04679800000065,
                    "velocity": 0.2204724409448819,
                    "duration": 0.1540990000000022
                },
                {
                    "name": "E3",
                    "midi": 52,
                    "time": 216.35499600000065,
                    "velocity": 0.2204724409448819,
                    "duration": 0.1540990000000022
                },
                {
                    "name": "E3",
                    "midi": 52,
                    "time": 216.66319400000066,
                    "velocity": 0.2204724409448819,
                    "duration": 0.1540990000000022
                },
                {
                    "name": "C#2",
                    "midi": 37,
                    "time": 216.97139200000066,
                    "velocity": 0.25196850393700787,
                    "duration": 0.3081980000000044
                },
                {
                    "name": "C#3",
                    "midi": 49,
                    "time": 217.27959000000067,
                    "velocity": 0.2204724409448819,
                    "duration": 0.1540990000000022
                },
                {
                    "name": "C#3",
                    "midi": 49,
                    "time": 217.58778800000067,
                    "velocity": 0.2204724409448819,
                    "duration": 0.1540990000000022
                },
                {
                    "name": "C#3",
                    "midi": 49,
                    "time": 217.89598600000068,
                    "velocity": 0.2204724409448819,
                    "duration": 0.1540990000000022
                },
                {
                    "name": "B1",
                    "midi": 35,
                    "time": 218.20418400000068,
                    "velocity": 0.2677165354330709,
                    "duration": 0.3081980000000044
                },
                {
                    "name": "B2",
                    "midi": 47,
                    "time": 218.51238200000068,
                    "velocity": 0.2283464566929134,
                    "duration": 0.1540990000000022
                },
                {
                    "name": "B2",
                    "midi": 47,
                    "time": 218.8205800000007,
                    "velocity": 0.2283464566929134,
                    "duration": 0.1540990000000022
                },
                {
                    "name": "B2",
                    "midi": 47,
                    "time": 219.1287780000007,
                    "velocity": 0.2283464566929134,
                    "duration": 0.1540990000000022
                },
                {
                    "name": "B1",
                    "midi": 35,
                    "time": 219.4369760000007,
                    "velocity": 0.2283464566929134,
                    "duration": 0.2311484999999891
                },
                {
                    "name": "B2",
                    "midi": 47,
                    "time": 219.74517400000067,
                    "velocity": 0.2283464566929134,
                    "duration": 0.1540990000000022
                },
                {
                    "name": "B2",
                    "midi": 47,
                    "time": 220.05337200000068,
                    "velocity": 0.2283464566929134,
                    "duration": 0.1540990000000022
                },
                {
                    "name": "B2",
                    "midi": 47,
                    "time": 220.36157000000068,
                    "velocity": 0.2283464566929134,
                    "duration": 0.1540990000000022
                },
                {
                    "name": "B1",
                    "midi": 35,
                    "time": 220.6697680000007,
                    "velocity": 0.2677165354330709,
                    "duration": 0.3081980000000044
                },
                {
                    "name": "B2",
                    "midi": 47,
                    "time": 220.9779660000007,
                    "velocity": 0.25196850393700787,
                    "duration": 0.3081980000000044
                },
                {
                    "name": "B1",
                    "midi": 35,
                    "time": 221.2861640000007,
                    "velocity": 0.2755905511811024,
                    "duration": 0.23114850000001752
                },
                {
                    "name": "B2",
                    "midi": 47,
                    "time": 221.5943620000007,
                    "velocity": 0.30708661417322836,
                    "duration": 0.2311484999999891
                },
                {
                    "name": "A1",
                    "midi": 33,
                    "time": 221.90256000000068,
                    "velocity": 0.33070866141732286,
                    "duration": 0.3081980000000044
                },
                {
                    "name": "A2",
                    "midi": 45,
                    "time": 222.21075800000068,
                    "velocity": 0.2992125984251969,
                    "duration": 0.3081980000000044
                },
                {
                    "name": "A2",
                    "midi": 45,
                    "time": 222.51895600000068,
                    "velocity": 0.31496062992125984,
                    "duration": 0.3081980000000044
                },
                {
                    "name": "G2",
                    "midi": 43,
                    "time": 222.8271540000007,
                    "velocity": 0.3228346456692913,
                    "duration": 0.3081980000000044
                },
                {
                    "name": "F#1",
                    "midi": 30,
                    "time": 223.1353520000007,
                    "velocity": 0.33858267716535434,
                    "duration": 0.3081980000000044
                },
                {
                    "name": "F#2",
                    "midi": 42,
                    "time": 223.4435500000007,
                    "velocity": 0.29133858267716534,
                    "duration": 0.3081980000000044
                },
                {
                    "name": "G1",
                    "midi": 31,
                    "time": 223.7517480000007,
                    "velocity": 0.30708661417322836,
                    "duration": 0.3081980000000044
                },
                {
                    "name": "G2",
                    "midi": 43,
                    "time": 224.0599460000007,
                    "velocity": 0.29133858267716534,
                    "duration": 0.3081980000000044
                },
                {
                    "name": "A1",
                    "midi": 33,
                    "time": 224.3681440000007,
                    "velocity": 0.29133858267716534,
                    "duration": 0.3081980000000044
                },
                {
                    "name": "A2",
                    "midi": 45,
                    "time": 224.67634200000072,
                    "velocity": 0.28346456692913385,
                    "duration": 0.3081980000000044
                },
                {
                    "name": "A1",
                    "midi": 33,
                    "time": 224.98454000000072,
                    "velocity": 0.2755905511811024,
                    "duration": 0.3081980000000044
                },
                {
                    "name": "A2",
                    "midi": 45,
                    "time": 225.29273800000072,
                    "velocity": 0.2677165354330709,
                    "duration": 0.3081980000000044
                },
                {
                    "name": "A1",
                    "midi": 33,
                    "time": 225.60093600000073,
                    "velocity": 0.2440944881889764,
                    "duration": 0.3081980000000044
                },
                {
                    "name": "A2",
                    "midi": 45,
                    "time": 225.90913400000073,
                    "velocity": 0.2283464566929134,
                    "duration": 0.3081980000000044
                },
                {
                    "name": "C#3",
                    "midi": 49,
                    "time": 226.21733200000074,
                    "velocity": 0.2440944881889764,
                    "duration": 0.3081980000000044
                },
                {
                    "name": "A2",
                    "midi": 45,
                    "time": 226.52553000000074,
                    "velocity": 0.25984251968503935,
                    "duration": 0.3081980000000044
                },
                {
                    "name": "D2",
                    "midi": 38,
                    "time": 226.83372800000075,
                    "velocity": 0.2755905511811024,
                    "duration": 0.2311484999999891
                },
                {
                    "name": "D3",
                    "midi": 50,
                    "time": 227.14192600000072,
                    "velocity": 0.2283464566929134,
                    "duration": 0.1540990000000022
                },
                {
                    "name": "D3",
                    "midi": 50,
                    "time": 227.45012400000073,
                    "velocity": 0.2204724409448819,
                    "duration": 0.1540990000000022
                },
                {
                    "name": "D3",
                    "midi": 50,
                    "time": 227.75832200000073,
                    "velocity": 0.2204724409448819,
                    "duration": 0.1540990000000022
                },
                {
                    "name": "D3",
                    "midi": 50,
                    "time": 228.06652000000074,
                    "velocity": 0.2125984251968504,
                    "duration": 0.1540990000000022
                },
                {
                    "name": "D3",
                    "midi": 50,
                    "time": 228.37471800000074,
                    "velocity": 0.2047244094488189,
                    "duration": 0.1540990000000022
                },
                {
                    "name": "D3",
                    "midi": 50,
                    "time": 228.68291600000074,
                    "velocity": 0.1968503937007874,
                    "duration": 0.1540990000000022
                },
                {
                    "name": "D3",
                    "midi": 50,
                    "time": 228.99111400000075,
                    "velocity": 0.1889763779527559,
                    "duration": 0.2311484999999891
                },
                {
                    "name": "D2",
                    "midi": 38,
                    "time": 229.29931200000073,
                    "velocity": 0.1968503937007874,
                    "duration": 0.308197999999976
                },
                {
                    "name": "D3",
                    "midi": 50,
                    "time": 229.6075100000007,
                    "velocity": 0.16535433070866143,
                    "duration": 0.1540990000000022
                },
                {
                    "name": "D3",
                    "midi": 50,
                    "time": 229.9157080000007,
                    "velocity": 0.16535433070866143,
                    "duration": 0.1540990000000022
                },
                {
                    "name": "D3",
                    "midi": 50,
                    "time": 230.2239060000007,
                    "velocity": 0.16535433070866143,
                    "duration": 0.1540990000000022
                },
                {
                    "name": "D2",
                    "midi": 38,
                    "time": 230.53210400000071,
                    "velocity": 0.1889763779527559,
                    "duration": 0.3081980000000044
                },
                {
                    "name": "D3",
                    "midi": 50,
                    "time": 230.84030200000072,
                    "velocity": 0.16535433070866143,
                    "duration": 0.1540990000000022
                },
                {
                    "name": "D3",
                    "midi": 50,
                    "time": 231.14850000000072,
                    "velocity": 0.16535433070866143,
                    "duration": 0.1540990000000022
                },
                {
                    "name": "D3",
                    "midi": 50,
                    "time": 231.45669800000073,
                    "velocity": 0.16535433070866143,
                    "duration": 0.1540990000000022
                },
                {
                    "name": "D2",
                    "midi": 38,
                    "time": 231.76489600000073,
                    "velocity": 0.18110236220472442,
                    "duration": 0.308197999999976
                },
                {
                    "name": "D3",
                    "midi": 50,
                    "time": 232.0730940000007,
                    "velocity": 0.16535433070866143,
                    "duration": 0.15409899999997378
                },
                {
                    "name": "D3",
                    "midi": 50,
                    "time": 232.38129200000068,
                    "velocity": 0.16535433070866143,
                    "duration": 0.1540990000000022
                },
                {
                    "name": "D3",
                    "midi": 50,
                    "time": 232.6894900000007,
                    "velocity": 0.16535433070866143,
                    "duration": 0.1540990000000022
                },
                {
                    "name": "D#2",
                    "midi": 39,
                    "time": 232.9976880000007,
                    "velocity": 0.1968503937007874,
                    "duration": 0.3081980000000044
                },
                {
                    "name": "D#3",
                    "midi": 51,
                    "time": 233.3058860000007,
                    "velocity": 0.1732283464566929,
                    "duration": 0.1540990000000022
                },
                {
                    "name": "D#3",
                    "midi": 51,
                    "time": 233.6140840000007,
                    "velocity": 0.1732283464566929,
                    "duration": 0.1540990000000022
                },
                {
                    "name": "D#3",
                    "midi": 51,
                    "time": 233.9222820000007,
                    "velocity": 0.1732283464566929,
                    "duration": 0.1540990000000022
                },
                {
                    "name": "D#2",
                    "midi": 39,
                    "time": 234.2304800000007,
                    "velocity": 0.1732283464566929,
                    "duration": 0.2311484999999891
                },
                {
                    "name": "D#3",
                    "midi": 51,
                    "time": 234.5386780000007,
                    "velocity": 0.1732283464566929,
                    "duration": 0.2311484999999891
                },
                {
                    "name": "C2",
                    "midi": 36,
                    "time": 234.84687600000066,
                    "velocity": 0.1732283464566929,
                    "duration": 0.2311484999999891
                },
                {
                    "name": "C3",
                    "midi": 48,
                    "time": 235.15507400000064,
                    "velocity": 0.1732283464566929,
                    "duration": 0.2311484999999891
                },
                {
                    "name": "D2",
                    "midi": 38,
                    "time": 235.46327200000061,
                    "velocity": 0.1968503937007874,
                    "duration": 0.308197999999976
                },
                {
                    "name": "D3",
                    "midi": 50,
                    "time": 235.7714700000006,
                    "velocity": 0.14960629921259844,
                    "duration": 0.3081980000000044
                },
                {
                    "name": "D#2",
                    "midi": 39,
                    "time": 236.0796680000006,
                    "velocity": 0.1732283464566929,
                    "duration": 0.23114850000001752
                },
                {
                    "name": "D#3",
                    "midi": 51,
                    "time": 236.3878660000006,
                    "velocity": 0.1732283464566929,
                    "duration": 0.2311484999999891
                },
                {
                    "name": "F1",
                    "midi": 29,
                    "time": 236.69606400000058,
                    "velocity": 0.2047244094488189,
                    "duration": 0.3081980000000044
                },
                {
                    "name": "F2",
                    "midi": 41,
                    "time": 237.00426200000058,
                    "velocity": 0.1732283464566929,
                    "duration": 0.1540990000000022
                },
                {
                    "name": "F2",
                    "midi": 41,
                    "time": 237.31246000000058,
                    "velocity": 0.1732283464566929,
                    "duration": 0.1540990000000022
                },
                {
                    "name": "F2",
                    "midi": 41,
                    "time": 237.6206580000006,
                    "velocity": 0.1732283464566929,
                    "duration": 0.1540990000000022
                },
                {
                    "name": "F1",
                    "midi": 29,
                    "time": 237.9288560000006,
                    "velocity": 0.1732283464566929,
                    "duration": 0.308197999999976
                },
                {
                    "name": "F2",
                    "midi": 41,
                    "time": 238.23705400000057,
                    "velocity": 0.1732283464566929,
                    "duration": 0.1540990000000022
                },
                {
                    "name": "F2",
                    "midi": 41,
                    "time": 238.54525200000057,
                    "velocity": 0.1732283464566929,
                    "duration": 0.1540990000000022
                },
                {
                    "name": "F2",
                    "midi": 41,
                    "time": 238.85345000000058,
                    "velocity": 0.1732283464566929,
                    "duration": 0.1540990000000022
                },
                {
                    "name": "F1",
                    "midi": 29,
                    "time": 239.16164800000058,
                    "velocity": 0.1732283464566929,
                    "duration": 0.3081980000000044
                },
                {
                    "name": "F2",
                    "midi": 41,
                    "time": 239.4698460000006,
                    "velocity": 0.1732283464566929,
                    "duration": 0.1540990000000022
                },
                {
                    "name": "F2",
                    "midi": 41,
                    "time": 239.7780440000006,
                    "velocity": 0.1732283464566929,
                    "duration": 0.1540990000000022
                },
                {
                    "name": "F2",
                    "midi": 41,
                    "time": 240.0862420000006,
                    "velocity": 0.1732283464566929,
                    "duration": 0.1540990000000022
                },
                {
                    "name": "F1",
                    "midi": 29,
                    "time": 240.3944400000006,
                    "velocity": 0.2047244094488189,
                    "duration": 0.3081980000000044
                },
                {
                    "name": "F2",
                    "midi": 41,
                    "time": 240.7026380000006,
                    "velocity": 0.18110236220472442,
                    "duration": 0.1540990000000022
                },
                {
                    "name": "F2",
                    "midi": 41,
                    "time": 241.0108360000006,
                    "velocity": 0.18110236220472442,
                    "duration": 0.1540990000000022
                },
                {
                    "name": "F2",
                    "midi": 41,
                    "time": 241.3190340000006,
                    "velocity": 0.1889763779527559,
                    "duration": 0.1540990000000022
                },
                {
                    "name": "F1",
                    "midi": 29,
                    "time": 241.62723200000062,
                    "velocity": 0.1889763779527559,
                    "duration": 0.3081980000000044
                },
                {
                    "name": "F2",
                    "midi": 41,
                    "time": 241.93543000000062,
                    "velocity": 0.18110236220472442,
                    "duration": 0.1540990000000022
                },
                {
                    "name": "F2",
                    "midi": 41,
                    "time": 242.24362800000063,
                    "velocity": 0.18110236220472442,
                    "duration": 0.1540990000000022
                },
                {
                    "name": "F2",
                    "midi": 41,
                    "time": 242.55182600000063,
                    "velocity": 0.18110236220472442,
                    "duration": 0.1540990000000022
                },
                {
                    "name": "F1",
                    "midi": 29,
                    "time": 242.86002400000064,
                    "velocity": 0.1889763779527559,
                    "duration": 0.3081980000000044
                },
                {
                    "name": "F2",
                    "midi": 41,
                    "time": 243.16822200000064,
                    "velocity": 0.18110236220472442,
                    "duration": 0.1540990000000022
                },
                {
                    "name": "F2",
                    "midi": 41,
                    "time": 243.47642000000064,
                    "velocity": 0.18110236220472442,
                    "duration": 0.1540990000000022
                },
                {
                    "name": "F2",
                    "midi": 41,
                    "time": 243.78461800000065,
                    "velocity": 0.1732283464566929,
                    "duration": 0.1540990000000022
                },
                {
                    "name": "E2",
                    "midi": 40,
                    "time": 244.09281600000065,
                    "velocity": 0.2440944881889764,
                    "duration": 0.308197999999976
                },
                {
                    "name": "E3",
                    "midi": 52,
                    "time": 244.40101400000063,
                    "velocity": 0.2204724409448819,
                    "duration": 0.1540990000000022
                },
                {
                    "name": "E3",
                    "midi": 52,
                    "time": 244.70921200000063,
                    "velocity": 0.2204724409448819,
                    "duration": 0.1540990000000022
                },
                {
                    "name": "E3",
                    "midi": 52,
                    "time": 245.01741000000064,
                    "velocity": 0.2283464566929134,
                    "duration": 0.1540990000000022
                },
                {
                    "name": "E2",
                    "midi": 40,
                    "time": 245.32560800000064,
                    "velocity": 0.2283464566929134,
                    "duration": 0.3081980000000044
                },
                {
                    "name": "E3",
                    "midi": 52,
                    "time": 245.63380600000065,
                    "velocity": 0.2283464566929134,
                    "duration": 0.1540990000000022
                },
                {
                    "name": "E3",
                    "midi": 52,
                    "time": 245.94200400000065,
                    "velocity": 0.2440944881889764,
                    "duration": 0.1540990000000022
                },
                {
                    "name": "E3",
                    "midi": 52,
                    "time": 246.25020200000066,
                    "velocity": 0.23622047244094488,
                    "duration": 0.1540990000000022
                },
                {
                    "name": "E2",
                    "midi": 40,
                    "time": 246.55840000000066,
                    "velocity": 0.23622047244094488,
                    "duration": 0.3081980000000044
                },
                {
                    "name": "E3",
                    "midi": 52,
                    "time": 246.86659800000066,
                    "velocity": 0.2283464566929134,
                    "duration": 0.3081980000000044
                },
                {
                    "name": "E2",
                    "midi": 40,
                    "time": 247.17479600000067,
                    "velocity": 0.23622047244094488,
                    "duration": 0.3081980000000044
                },
                {
                    "name": "E2",
                    "midi": 40,
                    "time": 247.48299400000067,
                    "velocity": 0.2283464566929134,
                    "duration": 0.3081980000000044
                },
                {
                    "name": "A1",
                    "midi": 33,
                    "time": 247.79119200000068,
                    "velocity": 0.2677165354330709,
                    "duration": 0.3081980000000044
                },
                {
                    "name": "A2",
                    "midi": 45,
                    "time": 248.09939000000068,
                    "velocity": 0.2204724409448819,
                    "duration": 0.1540990000000022
                },
                {
                    "name": "A2",
                    "midi": 45,
                    "time": 248.4075880000007,
                    "velocity": 0.2204724409448819,
                    "duration": 0.1540990000000022
                },
                {
                    "name": "A2",
                    "midi": 45,
                    "time": 248.7157860000007,
                    "velocity": 0.2204724409448819,
                    "duration": 0.1540990000000022
                },
                {
                    "name": "A1",
                    "midi": 33,
                    "time": 249.0239840000007,
                    "velocity": 0.25984251968503935,
                    "duration": 0.3081980000000044
                },
                {
                    "name": "A2",
                    "midi": 45,
                    "time": 249.3321820000007,
                    "velocity": 0.2204724409448819,
                    "duration": 0.1540990000000022
                },
                {
                    "name": "A2",
                    "midi": 45,
                    "time": 249.6403800000007,
                    "velocity": 0.2204724409448819,
                    "duration": 0.1540990000000022
                },
                {
                    "name": "A2",
                    "midi": 45,
                    "time": 249.9485780000007,
                    "velocity": 0.2204724409448819,
                    "duration": 0.1540990000000022
                },
                {
                    "name": "A1",
                    "midi": 33,
                    "time": 250.2567760000007,
                    "velocity": 0.25196850393700787,
                    "duration": 0.3081980000000044
                },
                {
                    "name": "A2",
                    "midi": 45,
                    "time": 250.56497400000072,
                    "velocity": 0.2204724409448819,
                    "duration": 0.1540990000000022
                },
                {
                    "name": "A2",
                    "midi": 45,
                    "time": 250.87317200000072,
                    "velocity": 0.2204724409448819,
                    "duration": 0.1540990000000022
                },
                {
                    "name": "A2",
                    "midi": 45,
                    "time": 251.18137000000073,
                    "velocity": 0.2204724409448819,
                    "duration": 0.1540990000000022
                },
                {
                    "name": "A1",
                    "midi": 33,
                    "time": 251.48956800000073,
                    "velocity": 0.2677165354330709,
                    "duration": 0.3081980000000044
                },
                {
                    "name": "A2",
                    "midi": 45,
                    "time": 251.79776600000073,
                    "velocity": 0.2283464566929134,
                    "duration": 0.1540990000000022
                },
                {
                    "name": "A2",
                    "midi": 45,
                    "time": 252.10596400000074,
                    "velocity": 0.2283464566929134,
                    "duration": 0.1540990000000022
                },
                {
                    "name": "A2",
                    "midi": 45,
                    "time": 252.41416200000074,
                    "velocity": 0.2283464566929134,
                    "duration": 0.1540990000000022
                },
                {
                    "name": "A2",
                    "midi": 45,
                    "time": 252.72236000000075,
                    "velocity": 0.2283464566929134,
                    "duration": 0.1540990000000022
                },
                {
                    "name": "A2",
                    "midi": 45,
                    "time": 253.03055800000075,
                    "velocity": 0.2283464566929134,
                    "duration": 0.1540990000000022
                },
                {
                    "name": "A2",
                    "midi": 45,
                    "time": 253.33875600000076,
                    "velocity": 0.2283464566929134,
                    "duration": 0.1540990000000022
                },
                {
                    "name": "A2",
                    "midi": 45,
                    "time": 253.64695400000076,
                    "velocity": 0.2283464566929134,
                    "duration": 0.1540990000000022
                },
                {
                    "name": "A2",
                    "midi": 45,
                    "time": 253.95515200000077,
                    "velocity": 0.29133858267716534,
                    "duration": 0.1540990000000022
                },
                {
                    "name": "A2",
                    "midi": 45,
                    "time": 254.26335000000077,
                    "velocity": 0.2204724409448819,
                    "duration": 0.1540990000000022
                },
                {
                    "name": "A2",
                    "midi": 45,
                    "time": 254.57154800000077,
                    "velocity": 0.2440944881889764,
                    "duration": 0.1540990000000022
                },
                {
                    "name": "A2",
                    "midi": 45,
                    "time": 254.87974600000078,
                    "velocity": 0.2677165354330709,
                    "duration": 0.1540990000000022
                },
                {
                    "name": "A1",
                    "midi": 33,
                    "time": 255.18794400000078,
                    "velocity": 0.29133858267716534,
                    "duration": 0.3081980000000044
                },
                {
                    "name": "A2",
                    "midi": 45,
                    "time": 255.4961420000008,
                    "velocity": 0.2677165354330709,
                    "duration": 0.15409899999997378
                },
                {
                    "name": "A2",
                    "midi": 45,
                    "time": 255.80434000000076,
                    "velocity": 0.2677165354330709,
                    "duration": 0.1540990000000022
                },
                {
                    "name": "A2",
                    "midi": 45,
                    "time": 256.11253800000077,
                    "velocity": 0.2677165354330709,
                    "duration": 0.15409899999997378
                },
                {
                    "name": "A1",
                    "midi": 33,
                    "time": 256.4207360000007,
                    "velocity": 0.2677165354330709,
                    "duration": 0.15409899999997378
                },
                {
                    "name": "A2",
                    "midi": 45,
                    "time": 256.72893400000066,
                    "velocity": 0.25984251968503935,
                    "duration": 0.15409899999997378
                },
                {
                    "name": "A2",
                    "midi": 45,
                    "time": 257.0371320000006,
                    "velocity": 0.2677165354330709,
                    "duration": 0.15409899999997378
                },
                {
                    "name": "A2",
                    "midi": 45,
                    "time": 257.34533000000056,
                    "velocity": 0.2677165354330709,
                    "duration": 0.15409899999997378
                },
                {
                    "name": "A1",
                    "midi": 33,
                    "time": 257.6535280000005,
                    "velocity": 0.2677165354330709,
                    "duration": 0.3081980000000044
                },
                {
                    "name": "A2",
                    "midi": 45,
                    "time": 257.9617260000005,
                    "velocity": 0.2677165354330709,
                    "duration": 0.3081980000000044
                },
                {
                    "name": "C#2",
                    "midi": 37,
                    "time": 258.2699240000005,
                    "velocity": 0.2677165354330709,
                    "duration": 0.3081980000000044
                },
                {
                    "name": "C#3",
                    "midi": 49,
                    "time": 258.5781220000005,
                    "velocity": 0.2677165354330709,
                    "duration": 0.3081980000000044
                },
                {
                    "name": "E1",
                    "midi": 28,
                    "time": 258.8863200000005,
                    "velocity": 0.29133858267716534,
                    "duration": 0.3081980000000044
                },
                {
                    "name": "E2",
                    "midi": 40,
                    "time": 259.1945180000005,
                    "velocity": 0.2440944881889764,
                    "duration": 0.3081980000000044
                },
                {
                    "name": "E2",
                    "midi": 40,
                    "time": 259.50271600000053,
                    "velocity": 0.2677165354330709,
                    "duration": 0.3081980000000044
                },
                {
                    "name": "E2",
                    "midi": 40,
                    "time": 259.81091400000054,
                    "velocity": 0.28346456692913385,
                    "duration": 0.3081980000000044
                },
                {
                    "name": "E2",
                    "midi": 40,
                    "time": 260.11911200000054,
                    "velocity": 0.31496062992125984,
                    "duration": 0.15409900000003063
                },
                {
                    "name": "E2",
                    "midi": 40,
                    "time": 260.42731000000055,
                    "velocity": 0.3228346456692913,
                    "duration": 0.15409899999997378
                },
                {
                    "name": "D2",
                    "midi": 38,
                    "time": 260.7355080000005,
                    "velocity": 0.36220472440944884,
                    "duration": 0.15409899999997378
                },
                {
                    "name": "D2",
                    "midi": 38,
                    "time": 261.04370600000044,
                    "velocity": 0.3700787401574803,
                    "duration": 0.15409899999997378
                },
                {
                    "name": "C2",
                    "midi": 36,
                    "time": 261.3519040000004,
                    "velocity": 0.3779527559055118,
                    "duration": 0.15409899999997378
                },
                {
                    "name": "C2",
                    "midi": 36,
                    "time": 261.66010200000034,
                    "velocity": 0.3858267716535433,
                    "duration": 0.15409899999997378
                },
                {
                    "name": "B1",
                    "midi": 35,
                    "time": 261.9683000000003,
                    "velocity": 0.4015748031496063,
                    "duration": 0.15409899999997378
                },
                {
                    "name": "B1",
                    "midi": 35,
                    "time": 262.27649800000023,
                    "velocity": 0.41732283464566927,
                    "duration": 0.15409899999997378
                },
                {
                    "name": "A1",
                    "midi": 33,
                    "time": 262.5846960000002,
                    "velocity": 0.44881889763779526,
                    "duration": 0.3081980000000044
                },
                {
                    "name": "A2",
                    "midi": 45,
                    "time": 262.8928940000002,
                    "velocity": 0.36220472440944884,
                    "duration": 0.15409899999997378
                },
                {
                    "name": "A2",
                    "midi": 45,
                    "time": 263.20109200000013,
                    "velocity": 0.36220472440944884,
                    "duration": 0.15409899999997378
                },
                {
                    "name": "A2",
                    "midi": 45,
                    "time": 263.5092900000001,
                    "velocity": 0.36220472440944884,
                    "duration": 0.15409899999997378
                },
                {
                    "name": "A1",
                    "midi": 33,
                    "time": 263.817488,
                    "velocity": 0.44881889763779526,
                    "duration": 0.3081980000000044
                },
                {
                    "name": "A2",
                    "midi": 45,
                    "time": 264.12568600000003,
                    "velocity": 0.36220472440944884,
                    "duration": 0.15409899999997378
                },
                {
                    "name": "A2",
                    "midi": 45,
                    "time": 264.433884,
                    "velocity": 0.3700787401574803,
                    "duration": 0.15409899999997378
                },
                {
                    "name": "A2",
                    "midi": 45,
                    "time": 264.7420819999999,
                    "velocity": 0.3700787401574803,
                    "duration": 0.15409899999997378
                },
                {
                    "name": "G1",
                    "midi": 31,
                    "time": 265.0502799999999,
                    "velocity": 0.4330708661417323,
                    "duration": 0.3081980000000044
                },
                {
                    "name": "G2",
                    "midi": 43,
                    "time": 265.3584779999999,
                    "velocity": 0.3700787401574803,
                    "duration": 0.15409899999997378
                },
                {
                    "name": "G2",
                    "midi": 43,
                    "time": 265.6666759999998,
                    "velocity": 0.3779527559055118,
                    "duration": 0.15409899999997378
                },
                {
                    "name": "G2",
                    "midi": 43,
                    "time": 265.9748739999998,
                    "velocity": 0.3779527559055118,
                    "duration": 0.15409899999997378
                },
                {
                    "name": "C2",
                    "midi": 36,
                    "time": 266.2830719999997,
                    "velocity": 0.47244094488188976,
                    "duration": 0.3081980000000044
                },
                {
                    "name": "C3",
                    "midi": 48,
                    "time": 266.5912699999997,
                    "velocity": 0.3858267716535433,
                    "duration": 0.15409900000003063
                },
                {
                    "name": "C3",
                    "midi": 48,
                    "time": 266.89946799999973,
                    "velocity": 0.3937007874015748,
                    "duration": 0.15409899999997378
                },
                {
                    "name": "C3",
                    "midi": 48,
                    "time": 267.2076659999997,
                    "velocity": 0.3937007874015748,
                    "duration": 0.15409899999997378
                },
                {
                    "name": "C2",
                    "midi": 36,
                    "time": 267.5158639999996,
                    "velocity": 0.3937007874015748,
                    "duration": 0.23114850000001752
                },
                {
                    "name": "C3",
                    "midi": 48,
                    "time": 267.8240619999996,
                    "velocity": 0.3937007874015748,
                    "duration": 0.15409899999997378
                },
                {
                    "name": "C3",
                    "midi": 48,
                    "time": 268.1322599999996,
                    "velocity": 0.4015748031496063,
                    "duration": 0.15409899999997378
                },
                {
                    "name": "C3",
                    "midi": 48,
                    "time": 268.4404579999995,
                    "velocity": 0.4015748031496063,
                    "duration": 0.15409899999997378
                },
                {
                    "name": "C2",
                    "midi": 36,
                    "time": 268.74865599999947,
                    "velocity": 0.44881889763779526,
                    "duration": 0.3081980000000044
                },
                {
                    "name": "C3",
                    "midi": 48,
                    "time": 269.0568539999995,
                    "velocity": 0.4015748031496063,
                    "duration": 0.3081980000000044
                },
                {
                    "name": "F2",
                    "midi": 41,
                    "time": 269.3650519999995,
                    "velocity": 0.4251968503937008,
                    "duration": 0.23114850000001752
                },
                {
                    "name": "F3",
                    "midi": 53,
                    "time": 269.6732499999995,
                    "velocity": 0.44881889763779526,
                    "duration": 0.23114850000001752
                },
                {
                    "name": "E2",
                    "midi": 40,
                    "time": 269.9814479999995,
                    "velocity": 0.47244094488188976,
                    "duration": 0.3081980000000044
                },
                {
                    "name": "E3",
                    "midi": 52,
                    "time": 270.2896459999995,
                    "velocity": 0.3937007874015748,
                    "duration": 0.15409900000003063
                },
                {
                    "name": "E3",
                    "midi": 52,
                    "time": 270.5978439999995,
                    "velocity": 0.3937007874015748,
                    "duration": 0.15409899999997378
                },
                {
                    "name": "E3",
                    "midi": 52,
                    "time": 270.90604199999945,
                    "velocity": 0.3779527559055118,
                    "duration": 0.15409899999997378
                },
                {
                    "name": "F#2",
                    "midi": 42,
                    "time": 271.2142399999994,
                    "velocity": 0.3228346456692913,
                    "duration": 0.3081980000000044
                },
                {
                    "name": "F#3",
                    "midi": 54,
                    "time": 271.5224379999994,
                    "velocity": 0.30708661417322836,
                    "duration": 0.3081980000000044
                },
                {
                    "name": "D2",
                    "midi": 38,
                    "time": 271.8306359999994,
                    "velocity": 0.2677165354330709,
                    "duration": 0.3081980000000044
                },
                {
                    "name": "D3",
                    "midi": 50,
                    "time": 272.1388339999994,
                    "velocity": 0.2677165354330709,
                    "duration": 0.3081980000000044
                },
                {
                    "name": "E2",
                    "midi": 40,
                    "time": 272.4470319999994,
                    "velocity": 0.2677165354330709,
                    "duration": 0.3081980000000044
                },
                {
                    "name": "E3",
                    "midi": 52,
                    "time": 272.7552299999994,
                    "velocity": 0.2677165354330709,
                    "duration": 0.3081980000000044
                },
                {
                    "name": "E2",
                    "midi": 40,
                    "time": 273.0634279999994,
                    "velocity": 0.2440944881889764,
                    "duration": 0.3081980000000044
                },
                {
                    "name": "E3",
                    "midi": 52,
                    "time": 273.3716259999994,
                    "velocity": 0.2440944881889764,
                    "duration": 0.3081980000000044
                },
                {
                    "name": "E2",
                    "midi": 40,
                    "time": 273.98802199999943,
                    "velocity": 0.2283464566929134,
                    "duration": 0.3081980000000044
                },
                {
                    "name": "G#2",
                    "midi": 44,
                    "time": 274.29621999999944,
                    "velocity": 0.2440944881889764,
                    "duration": 0.3081980000000044
                },
                {
                    "name": "E2",
                    "midi": 40,
                    "time": 274.60441799999944,
                    "velocity": 0.25984251968503935,
                    "duration": 0.3081980000000044
                },
                {
                    "name": "A2",
                    "midi": 45,
                    "time": 274.91261599999945,
                    "velocity": 0.2755905511811024,
                    "duration": 0.23114850000001752
                },
                {
                    "name": "A2",
                    "midi": 45,
                    "time": 275.22081399999945,
                    "velocity": 0.25196850393700787,
                    "duration": 0.15409899999997378
                },
                {
                    "name": "B2",
                    "midi": 47,
                    "time": 275.5290119999994,
                    "velocity": 0.25196850393700787,
                    "duration": 0.15409899999997378
                },
                {
                    "name": "C#3",
                    "midi": 49,
                    "time": 275.83720999999935,
                    "velocity": 0.25196850393700787,
                    "duration": 0.15409899999997378
                },
                {
                    "name": "B2",
                    "midi": 47,
                    "time": 276.1454079999993,
                    "velocity": 0.25196850393700787,
                    "duration": 0.15409899999997378
                },
                {
                    "name": "A2",
                    "midi": 45,
                    "time": 276.45360599999924,
                    "velocity": 0.25196850393700787,
                    "duration": 0.15409899999997378
                },
                {
                    "name": "G#2",
                    "midi": 44,
                    "time": 276.7618039999992,
                    "velocity": 0.2440944881889764,
                    "duration": 0.15409899999997378
                },
                {
                    "name": "F#2",
                    "midi": 42,
                    "time": 277.07000199999914,
                    "velocity": 0.2440944881889764,
                    "duration": 0.15409899999997378
                },
                {
                    "name": "E2",
                    "midi": 40,
                    "time": 277.3781999999991,
                    "velocity": 0.28346456692913385,
                    "duration": 0.3081980000000044
                },
                {
                    "name": "E3",
                    "midi": 52,
                    "time": 277.9945959999991,
                    "velocity": 0.18110236220472442,
                    "duration": 0.3081980000000044
                },
                {
                    "name": "G#3",
                    "midi": 56,
                    "time": 277.9945959999991,
                    "velocity": 0.2125984251968504,
                    "duration": 0.3081980000000044
                },
                {
                    "name": "E2",
                    "midi": 40,
                    "time": 278.6109919999991,
                    "velocity": 0.28346456692913385,
                    "duration": 0.3081980000000044
                },
                {
                    "name": "E3",
                    "midi": 52,
                    "time": 279.2273879999991,
                    "velocity": 0.1889763779527559,
                    "duration": 0.3081980000000044
                },
                {
                    "name": "G#3",
                    "midi": 56,
                    "time": 279.2273879999991,
                    "velocity": 0.2204724409448819,
                    "duration": 0.3081980000000044
                },
                {
                    "name": "C#3",
                    "midi": 49,
                    "time": 279.8437839999991,
                    "velocity": 0.28346456692913385,
                    "duration": 0.30819799999994757
                },
                {
                    "name": "F#3",
                    "midi": 54,
                    "time": 280.46017999999907,
                    "velocity": 0.1968503937007874,
                    "duration": 0.3081980000000044
                },
                {
                    "name": "A#3",
                    "midi": 58,
                    "time": 280.46017999999907,
                    "velocity": 0.2283464566929134,
                    "duration": 0.3081980000000044
                },
                {
                    "name": "B2",
                    "midi": 47,
                    "time": 281.0765759999991,
                    "velocity": 0.28346456692913385,
                    "duration": 0.3081980000000044
                },
                {
                    "name": "F#3",
                    "midi": 54,
                    "time": 281.6929719999991,
                    "velocity": 0.1968503937007874,
                    "duration": 0.3081980000000044
                },
                {
                    "name": "B3",
                    "midi": 59,
                    "time": 281.6929719999991,
                    "velocity": 0.23622047244094488,
                    "duration": 0.3081980000000044
                },
                {
                    "name": "B2",
                    "midi": 47,
                    "time": 282.3093679999991,
                    "velocity": 0.28346456692913385,
                    "duration": 0.3081980000000044
                },
                {
                    "name": "B3",
                    "midi": 59,
                    "time": 282.9257639999991,
                    "velocity": 0.2283464566929134,
                    "duration": 0.3081980000000044
                },
                {
                    "name": "F#3",
                    "midi": 54,
                    "time": 282.9257639999991,
                    "velocity": 0.1968503937007874,
                    "duration": 0.3081980000000044
                },
                {
                    "name": "B2",
                    "midi": 47,
                    "time": 283.5421599999991,
                    "velocity": 0.28346456692913385,
                    "duration": 0.3081980000000044
                },
                {
                    "name": "D4",
                    "midi": 62,
                    "time": 284.1585559999991,
                    "velocity": 0.2283464566929134,
                    "duration": 0.3081980000000044
                },
                {
                    "name": "G#3",
                    "midi": 56,
                    "time": 284.1585559999991,
                    "velocity": 0.1968503937007874,
                    "duration": 0.3081980000000044
                },
                {
                    "name": "B3",
                    "midi": 59,
                    "time": 284.1585559999991,
                    "velocity": 0.1968503937007874,
                    "duration": 0.3081980000000044
                },
                {
                    "name": "A2",
                    "midi": 45,
                    "time": 284.77495199999913,
                    "velocity": 0.28346456692913385,
                    "duration": 0.3081980000000044
                },
                {
                    "name": "D4",
                    "midi": 62,
                    "time": 285.39134799999914,
                    "velocity": 0.2204724409448819,
                    "duration": 0.616395999999952
                },
                {
                    "name": "A3",
                    "midi": 57,
                    "time": 285.39134799999914,
                    "velocity": 0.1889763779527559,
                    "duration": 0.4622969999999782
                },
                {
                    "name": "G3",
                    "midi": 55,
                    "time": 285.8536449999991,
                    "velocity": 0.1889763779527559,
                    "duration": 0.15409899999997378
                },
                {
                    "name": "F#3",
                    "midi": 54,
                    "time": 286.0077439999991,
                    "velocity": 0.2125984251968504,
                    "duration": 0.6163960000000088
                },
                {
                    "name": "D4",
                    "midi": 62,
                    "time": 286.0077439999991,
                    "velocity": 0.28346456692913385,
                    "duration": 0.6163960000000088
                },
                {
                    "name": "G3",
                    "midi": 55,
                    "time": 286.6241399999991,
                    "velocity": 0.2125984251968504,
                    "duration": 0.6163960000000088
                },
                {
                    "name": "D4",
                    "midi": 62,
                    "time": 286.6241399999991,
                    "velocity": 0.25196850393700787,
                    "duration": 0.6163960000000088
                },
                {
                    "name": "A3",
                    "midi": 57,
                    "time": 287.2405359999991,
                    "velocity": 0.2125984251968504,
                    "duration": 0.6163960000000088
                },
                {
                    "name": "D4",
                    "midi": 62,
                    "time": 287.2405359999991,
                    "velocity": 0.25196850393700787,
                    "duration": 0.6163960000000088
                },
                {
                    "name": "A3",
                    "midi": 57,
                    "time": 287.8569319999991,
                    "velocity": 0.2204724409448819,
                    "duration": 0.6163960000000088
                },
                {
                    "name": "C#4",
                    "midi": 61,
                    "time": 287.8569319999991,
                    "velocity": 0.25984251968503935,
                    "duration": 0.6163960000000088
                },
                {
                    "name": "D3",
                    "midi": 50,
                    "time": 288.4733279999991,
                    "velocity": 0.28346456692913385,
                    "duration": 0.3081980000000044
                },
                {
                    "name": "A3",
                    "midi": 57,
                    "time": 289.08972399999914,
                    "velocity": 0.2125984251968504,
                    "duration": 0.3081980000000044
                },
                {
                    "name": "C#4",
                    "midi": 61,
                    "time": 289.08972399999914,
                    "velocity": 0.25984251968503935,
                    "duration": 0.3081980000000044
                },
                {
                    "name": "D3",
                    "midi": 50,
                    "time": 289.70611999999915,
                    "velocity": 0.25984251968503935,
                    "duration": 0.3081980000000044
                },
                {
                    "name": "A3",
                    "midi": 57,
                    "time": 290.32251599999915,
                    "velocity": 0.2125984251968504,
                    "duration": 0.4622969999999782
                },
                {
                    "name": "D4",
                    "midi": 62,
                    "time": 290.32251599999915,
                    "velocity": 0.25196850393700787,
                    "duration": 0.4622969999999782
                },
                {
                    "name": "D3",
                    "midi": 50,
                    "time": 290.9389119999991,
                    "velocity": 0.28346456692913385,
                    "duration": 0.4622969999999782
                },
                {
                    "name": "F#3",
                    "midi": 54,
                    "time": 291.55530799999906,
                    "velocity": 0.2047244094488189,
                    "duration": 0.4622969999999782
                },
                {
                    "name": "A3",
                    "midi": 57,
                    "time": 291.55530799999906,
                    "velocity": 0.23622047244094488,
                    "duration": 0.4622969999999782
                },
                {
                    "name": "D2",
                    "midi": 38,
                    "time": 292.171703999999,
                    "velocity": 0.1968503937007874,
                    "duration": 0.3081980000000044
                },
                {
                    "name": "D3",
                    "midi": 50,
                    "time": 292.788099999999,
                    "velocity": 0.12598425196850394,
                    "duration": 0.3081980000000044
                },
                {
                    "name": "F3",
                    "midi": 53,
                    "time": 292.788099999999,
                    "velocity": 0.14173228346456693,
                    "duration": 0.3081980000000044
                },
                {
                    "name": "D2",
                    "midi": 38,
                    "time": 293.404495999999,
                    "velocity": 0.1968503937007874,
                    "duration": 0.3081980000000044
                },
                {
                    "name": "D3",
                    "midi": 50,
                    "time": 294.02089199999904,
                    "velocity": 0.13385826771653545,
                    "duration": 0.3081980000000044
                },
                {
                    "name": "F3",
                    "midi": 53,
                    "time": 294.02089199999904,
                    "velocity": 0.14960629921259844,
                    "duration": 0.3081980000000044
                },
                {
                    "name": "D2",
                    "midi": 38,
                    "time": 294.63728799999905,
                    "velocity": 0.1968503937007874,
                    "duration": 0.3081980000000044
                },
                {
                    "name": "D3",
                    "midi": 50,
                    "time": 295.25368399999905,
                    "velocity": 0.13385826771653545,
                    "duration": 0.3081980000000044
                },
                {
                    "name": "F3",
                    "midi": 53,
                    "time": 295.25368399999905,
                    "velocity": 0.15748031496062992,
                    "duration": 0.3081980000000044
                },
                {
                    "name": "D#2",
                    "midi": 39,
                    "time": 295.87007999999906,
                    "velocity": 0.1968503937007874,
                    "duration": 0.3081980000000044
                },
                {
                    "name": "D#3",
                    "midi": 51,
                    "time": 296.4864759999991,
                    "velocity": 0.13385826771653545,
                    "duration": 0.3081980000000044
                },
                {
                    "name": "G3",
                    "midi": 55,
                    "time": 296.4864759999991,
                    "velocity": 0.16535433070866143,
                    "duration": 0.3081980000000044
                },
                {
                    "name": "D#2",
                    "midi": 39,
                    "time": 297.1028719999991,
                    "velocity": 0.1968503937007874,
                    "duration": 0.6163960000000088
                },
                {
                    "name": "D#3",
                    "midi": 51,
                    "time": 297.7192679999991,
                    "velocity": 0.13385826771653545,
                    "duration": 0.6163960000000088
                },
                {
                    "name": "G3",
                    "midi": 55,
                    "time": 297.7192679999991,
                    "velocity": 0.13385826771653545,
                    "duration": 0.6163960000000088
                },
                {
                    "name": "A#3",
                    "midi": 58,
                    "time": 297.7192679999991,
                    "velocity": 0.15748031496062992,
                    "duration": 0.6163960000000088
                },
                {
                    "name": "D3",
                    "midi": 50,
                    "time": 298.3356639999991,
                    "velocity": 0.13385826771653545,
                    "duration": 0.6163960000000088
                },
                {
                    "name": "G3",
                    "midi": 55,
                    "time": 298.3356639999991,
                    "velocity": 0.13385826771653545,
                    "duration": 0.6163960000000088
                },
                {
                    "name": "B3",
                    "midi": 59,
                    "time": 298.3356639999991,
                    "velocity": 0.15748031496062992,
                    "duration": 0.6163960000000088
                },
                {
                    "name": "C3",
                    "midi": 48,
                    "time": 298.9520599999991,
                    "velocity": 0.13385826771653545,
                    "duration": 0.6163960000000088
                },
                {
                    "name": "G3",
                    "midi": 55,
                    "time": 298.9520599999991,
                    "velocity": 0.13385826771653545,
                    "duration": 0.6163960000000088
                },
                {
                    "name": "C4",
                    "midi": 60,
                    "time": 298.9520599999991,
                    "velocity": 0.15748031496062992,
                    "duration": 0.6163960000000088
                },
                {
                    "name": "F2",
                    "midi": 41,
                    "time": 299.5684559999991,
                    "velocity": 0.1968503937007874,
                    "duration": 0.3081980000000044
                },
                {
                    "name": "A#3",
                    "midi": 58,
                    "time": 300.1848519999991,
                    "velocity": 0.14960629921259844,
                    "duration": 0.3081980000000044
                },
                {
                    "name": "F3",
                    "midi": 53,
                    "time": 300.1848519999991,
                    "velocity": 0.13385826771653545,
                    "duration": 0.3081980000000044
                },
                {
                    "name": "F2",
                    "midi": 41,
                    "time": 300.80124799999913,
                    "velocity": 0.1968503937007874,
                    "duration": 0.3081980000000044
                },
                {
                    "name": "F3",
                    "midi": 53,
                    "time": 301.41764399999914,
                    "velocity": 0.13385826771653545,
                    "duration": 0.3081980000000044
                },
                {
                    "name": "A#3",
                    "midi": 58,
                    "time": 301.41764399999914,
                    "velocity": 0.14960629921259844,
                    "duration": 0.3081980000000044
                },
                {
                    "name": "F2",
                    "midi": 41,
                    "time": 302.03403999999915,
                    "velocity": 0.1968503937007874,
                    "duration": 0.3081980000000044
                },
                {
                    "name": "F3",
                    "midi": 53,
                    "time": 302.65043599999916,
                    "velocity": 0.13385826771653545,
                    "duration": 0.3081980000000044
                },
                {
                    "name": "A3",
                    "midi": 57,
                    "time": 302.65043599999916,
                    "velocity": 0.14960629921259844,
                    "duration": 0.3081980000000044
                },
                {
                    "name": "F2",
                    "midi": 41,
                    "time": 303.26683199999917,
                    "velocity": 0.1968503937007874,
                    "duration": 0.3081980000000044
                },
                {
                    "name": "F3",
                    "midi": 53,
                    "time": 303.8832279999992,
                    "velocity": 0.18110236220472442,
                    "duration": 0.3081980000000044
                },
                {
                    "name": "F2",
                    "midi": 41,
                    "time": 304.4996239999992,
                    "velocity": 0.18110236220472442,
                    "duration": 0.3081980000000044
                },
                {
                    "name": "F3",
                    "midi": 53,
                    "time": 305.1160199999992,
                    "velocity": 0.1732283464566929,
                    "duration": 0.4622969999999782
                },
                {
                    "name": "F2",
                    "midi": 41,
                    "time": 305.73241599999915,
                    "velocity": 0.1968503937007874,
                    "duration": 0.4622969999999782
                },
                {
                    "name": "F3",
                    "midi": 53,
                    "time": 306.3488119999991,
                    "velocity": 0.18110236220472442,
                    "duration": 0.4622969999999782
                },
                {
                    "name": "F2",
                    "midi": 41,
                    "time": 306.96520799999905,
                    "velocity": 0.1968503937007874,
                    "duration": 0.3081980000000044
                },
                {
                    "name": "F3",
                    "midi": 53,
                    "time": 307.58160399999906,
                    "velocity": 0.18110236220472442,
                    "duration": 0.3081980000000044
                },
                {
                    "name": "F2",
                    "midi": 41,
                    "time": 308.19799999999907,
                    "velocity": 0.18110236220472442,
                    "duration": 0.3081980000000044
                },
                {
                    "name": "F3",
                    "midi": 53,
                    "time": 308.8143959999991,
                    "velocity": 0.1732283464566929,
                    "duration": 0.4622969999999782
                },
                {
                    "name": "F2",
                    "midi": 41,
                    "time": 309.43079199999903,
                    "velocity": 0.1968503937007874,
                    "duration": 0.46229700000003504
                },
                {
                    "name": "F3",
                    "midi": 53,
                    "time": 310.04718799999904,
                    "velocity": 0.1889763779527559,
                    "duration": 0.4622969999999782
                },
                {
                    "name": "F#2",
                    "midi": 42,
                    "time": 310.663583999999,
                    "velocity": 0.2204724409448819,
                    "duration": 0.3081980000000044
                },
                {
                    "name": "F#3",
                    "midi": 54,
                    "time": 311.279979999999,
                    "velocity": 0.1889763779527559,
                    "duration": 0.3081980000000044
                },
                {
                    "name": "F#2",
                    "midi": 42,
                    "time": 311.896375999999,
                    "velocity": 0.18110236220472442,
                    "duration": 0.3081980000000044
                },
                {
                    "name": "F#3",
                    "midi": 54,
                    "time": 312.512771999999,
                    "velocity": 0.1732283464566929,
                    "duration": 0.4622969999999782
                },
                {
                    "name": "F#2",
                    "midi": 42,
                    "time": 313.12916799999897,
                    "velocity": 0.1968503937007874,
                    "duration": 0.4622969999999782
                },
                {
                    "name": "F#3",
                    "midi": 54,
                    "time": 313.7455639999989,
                    "velocity": 0.18110236220472442,
                    "duration": 0.4622969999999782
                },
                {
                    "name": "F#1",
                    "midi": 30,
                    "time": 314.3619599999989,
                    "velocity": 0.1968503937007874,
                    "duration": 0.3081980000000044
                },
                {
                    "name": "F#2",
                    "midi": 42,
                    "time": 314.9783559999989,
                    "velocity": 0.18110236220472442,
                    "duration": 0.3081980000000044
                },
                {
                    "name": "F#1",
                    "midi": 30,
                    "time": 315.5947519999989,
                    "velocity": 0.18110236220472442,
                    "duration": 0.3081980000000044
                },
                {
                    "name": "F#2",
                    "midi": 42,
                    "time": 316.2111479999989,
                    "velocity": 0.1732283464566929,
                    "duration": 0.4622969999999782
                },
                {
                    "name": "F#1",
                    "midi": 30,
                    "time": 316.82754399999885,
                    "velocity": 0.1968503937007874,
                    "duration": 0.46229700000003504
                },
                {
                    "name": "F#2",
                    "midi": 42,
                    "time": 317.44393999999886,
                    "velocity": 0.1889763779527559,
                    "duration": 0.4622969999999782
                },
                {
                    "name": "G#1",
                    "midi": 32,
                    "time": 318.0603359999988,
                    "velocity": 0.2204724409448819,
                    "duration": 0.3081980000000044
                },
                {
                    "name": "G#2",
                    "midi": 44,
                    "time": 318.6767319999988,
                    "velocity": 0.1889763779527559,
                    "duration": 0.3081980000000044
                },
                {
                    "name": "G#1",
                    "midi": 32,
                    "time": 319.29312799999883,
                    "velocity": 0.18110236220472442,
                    "duration": 0.3081980000000044
                },
                {
                    "name": "G#2",
                    "midi": 44,
                    "time": 319.90952399999884,
                    "velocity": 0.1732283464566929,
                    "duration": 0.4622969999999782
                },
                {
                    "name": "G#1",
                    "midi": 32,
                    "time": 320.5259199999988,
                    "velocity": 0.1968503937007874,
                    "duration": 0.4622969999999782
                },
                {
                    "name": "G#2",
                    "midi": 44,
                    "time": 321.14231599999874,
                    "velocity": 0.18110236220472442,
                    "duration": 0.4622969999999782
                },
                {
                    "name": "G#1",
                    "midi": 32,
                    "time": 321.7587119999987,
                    "velocity": 0.1968503937007874,
                    "duration": 0.3081980000000044
                },
                {
                    "name": "G#2",
                    "midi": 44,
                    "time": 322.3751079999987,
                    "velocity": 0.1732283464566929,
                    "duration": 0.3081980000000044
                },
                {
                    "name": "G#1",
                    "midi": 32,
                    "time": 322.9915039999987,
                    "velocity": 0.1732283464566929,
                    "duration": 0.3081980000000044
                },
                {
                    "name": "G#2",
                    "midi": 44,
                    "time": 323.6078999999987,
                    "velocity": 0.15748031496062992,
                    "duration": 0.4622969999999782
                },
                {
                    "name": "G#1",
                    "midi": 32,
                    "time": 324.2242959999987,
                    "velocity": 0.1732283464566929,
                    "duration": 0.46229700000003504
                },
                {
                    "name": "G#2",
                    "midi": 44,
                    "time": 324.8406919999987,
                    "velocity": 0.15748031496062992,
                    "duration": 0.4622969999999782
                },
                {
                    "name": "C#2",
                    "midi": 37,
                    "time": 329.15546399999863,
                    "velocity": 0.2047244094488189,
                    "duration": 0.3081980000000044
                },
                {
                    "name": "C#3",
                    "midi": 49,
                    "time": 329.77185999999864,
                    "velocity": 0.1732283464566929,
                    "duration": 0.6163960000000088
                },
                {
                    "name": "C#4",
                    "midi": 61,
                    "time": 330.38825599999865,
                    "velocity": 0.2125984251968504,
                    "duration": 0.6163960000000088
                },
                {
                    "name": "C#2",
                    "midi": 37,
                    "time": 331.92924599999867,
                    "velocity": 0.1968503937007874,
                    "duration": 0.15409899999997378
                },
                {
                    "name": "C#2",
                    "midi": 37,
                    "time": 332.2374439999986,
                    "velocity": 0.1968503937007874,
                    "duration": 0.15409899999997378
                },
                {
                    "name": "C2",
                    "midi": 36,
                    "time": 332.54564199999857,
                    "velocity": 0.1968503937007874,
                    "duration": 0.15409899999997378
                },
                {
                    "name": "C#2",
                    "midi": 37,
                    "time": 332.8538399999985,
                    "velocity": 0.2047244094488189,
                    "duration": 0.3081980000000044
                },
                {
                    "name": "C#3",
                    "midi": 49,
                    "time": 333.4702359999985,
                    "velocity": 0.1732283464566929,
                    "duration": 0.6163960000000088
                },
                {
                    "name": "C#4",
                    "midi": 61,
                    "time": 334.08663199999853,
                    "velocity": 0.2125984251968504,
                    "duration": 0.6163960000000088
                },
                {
                    "name": "C#2",
                    "midi": 37,
                    "time": 335.6276219999985,
                    "velocity": 0.2047244094488189,
                    "duration": 0.15409899999997378
                },
                {
                    "name": "C#2",
                    "midi": 37,
                    "time": 335.93581999999844,
                    "velocity": 0.2047244094488189,
                    "duration": 0.15409899999997378
                },
                {
                    "name": "C2",
                    "midi": 36,
                    "time": 336.2440179999984,
                    "velocity": 0.2125984251968504,
                    "duration": 0.15409899999997378
                },
                {
                    "name": "C#2",
                    "midi": 37,
                    "time": 336.55221599999834,
                    "velocity": 0.2047244094488189,
                    "duration": 0.3081980000000044
                },
                {
                    "name": "C#3",
                    "midi": 49,
                    "time": 337.16861199999835,
                    "velocity": 0.1732283464566929,
                    "duration": 0.6163960000000088
                },
                {
                    "name": "C#4",
                    "midi": 61,
                    "time": 337.78500799999836,
                    "velocity": 0.2125984251968504,
                    "duration": 0.6163960000000088
                },
                {
                    "name": "C#2",
                    "midi": 37,
                    "time": 339.3259979999983,
                    "velocity": 0.2125984251968504,
                    "duration": 0.15409899999997378
                },
                {
                    "name": "C#2",
                    "midi": 37,
                    "time": 339.63419599999827,
                    "velocity": 0.2047244094488189,
                    "duration": 0.15409899999997378
                },
                {
                    "name": "C2",
                    "midi": 36,
                    "time": 339.9423939999982,
                    "velocity": 0.2047244094488189,
                    "duration": 0.15409899999997378
                },
                {
                    "name": "C#2",
                    "midi": 37,
                    "time": 340.25059199999816,
                    "velocity": 0.2047244094488189,
                    "duration": 0.3081980000000044
                },
                {
                    "name": "C#3",
                    "midi": 49,
                    "time": 340.8669879999982,
                    "velocity": 0.1732283464566929,
                    "duration": 0.6163960000000088
                },
                {
                    "name": "C#4",
                    "midi": 61,
                    "time": 341.4833839999982,
                    "velocity": 0.2125984251968504,
                    "duration": 0.6163960000000088
                },
                {
                    "name": "C#2",
                    "midi": 37,
                    "time": 343.0243739999982,
                    "velocity": 0.2204724409448819,
                    "duration": 0.15409899999997378
                },
                {
                    "name": "C#2",
                    "midi": 37,
                    "time": 343.33257199999815,
                    "velocity": 0.2125984251968504,
                    "duration": 0.15409899999997378
                },
                {
                    "name": "C2",
                    "midi": 36,
                    "time": 343.6407699999981,
                    "velocity": 0.2047244094488189,
                    "duration": 0.15409899999997378
                },
                {
                    "name": "C#2",
                    "midi": 37,
                    "time": 343.94896799999805,
                    "velocity": 0.2047244094488189,
                    "duration": 0.3081980000000044
                },
                {
                    "name": "C#3",
                    "midi": 49,
                    "time": 344.56536399999806,
                    "velocity": 0.1732283464566929,
                    "duration": 0.6163960000000088
                },
                {
                    "name": "C#4",
                    "midi": 61,
                    "time": 345.18175999999806,
                    "velocity": 0.2125984251968504,
                    "duration": 0.6163960000000088
                },
                {
                    "name": "C#2",
                    "midi": 37,
                    "time": 346.72274999999803,
                    "velocity": 0.1968503937007874,
                    "duration": 0.15409899999997378
                },
                {
                    "name": "C#2",
                    "midi": 37,
                    "time": 347.030947999998,
                    "velocity": 0.1968503937007874,
                    "duration": 0.15409899999997378
                },
                {
                    "name": "C2",
                    "midi": 36,
                    "time": 347.3391459999979,
                    "velocity": 0.2047244094488189,
                    "duration": 0.15409899999997378
                },
                {
                    "name": "C#2",
                    "midi": 37,
                    "time": 347.6473439999979,
                    "velocity": 0.2047244094488189,
                    "duration": 0.3081980000000044
                },
                {
                    "name": "C#3",
                    "midi": 49,
                    "time": 348.2637399999979,
                    "velocity": 0.1732283464566929,
                    "duration": 0.6163960000000088
                },
                {
                    "name": "C#4",
                    "midi": 61,
                    "time": 348.8801359999979,
                    "velocity": 0.2125984251968504,
                    "duration": 0.6163960000000088
                },
                {
                    "name": "C#2",
                    "midi": 37,
                    "time": 350.42112599999786,
                    "velocity": 0.2047244094488189,
                    "duration": 0.15409899999997378
                },
                {
                    "name": "C#2",
                    "midi": 37,
                    "time": 350.7293239999978,
                    "velocity": 0.2047244094488189,
                    "duration": 0.15409899999997378
                },
                {
                    "name": "C2",
                    "midi": 36,
                    "time": 351.03752199999775,
                    "velocity": 0.2125984251968504,
                    "duration": 0.15409899999997378
                },
                {
                    "name": "C#2",
                    "midi": 37,
                    "time": 351.3457199999977,
                    "velocity": 0.2440944881889764,
                    "duration": 0.3081980000000044
                },
                {
                    "name": "C#3",
                    "midi": 49,
                    "time": 351.9621159999977,
                    "velocity": 0.1968503937007874,
                    "duration": 0.6163960000000088
                },
                {
                    "name": "C#4",
                    "midi": 61,
                    "time": 352.5785119999977,
                    "velocity": 0.23622047244094488,
                    "duration": 0.6163960000000088
                },
                {
                    "name": "C#2",
                    "midi": 37,
                    "time": 354.1195019999977,
                    "velocity": 0.2047244094488189,
                    "duration": 0.15409899999997378
                },
                {
                    "name": "C#2",
                    "midi": 37,
                    "time": 354.4276999999976,
                    "velocity": 0.2047244094488189,
                    "duration": 0.15409899999997378
                },
                {
                    "name": "C2",
                    "midi": 36,
                    "time": 354.7358979999976,
                    "velocity": 0.2047244094488189,
                    "duration": 0.15409899999997378
                },
                {
                    "name": "C#2",
                    "midi": 37,
                    "time": 355.0440959999975,
                    "velocity": 0.2047244094488189,
                    "duration": 0.3081980000000044
                },
                {
                    "name": "C#3",
                    "midi": 49,
                    "time": 355.66049199999753,
                    "velocity": 0.1732283464566929,
                    "duration": 0.6163960000000088
                },
                {
                    "name": "C#4",
                    "midi": 61,
                    "time": 356.27688799999754,
                    "velocity": 0.2125984251968504,
                    "duration": 0.6163960000000088
                },
                {
                    "name": "C#2",
                    "midi": 37,
                    "time": 357.8178779999975,
                    "velocity": 0.2125984251968504,
                    "duration": 0.15409899999997378
                },
                {
                    "name": "C#2",
                    "midi": 37,
                    "time": 358.12607599999745,
                    "velocity": 0.2125984251968504,
                    "duration": 0.15409899999997378
                },
                {
                    "name": "E2",
                    "midi": 40,
                    "time": 358.4342739999974,
                    "velocity": 0.2125984251968504,
                    "duration": 0.15409899999997378
                },
                {
                    "name": "G#1",
                    "midi": 32,
                    "time": 358.74247199999735,
                    "velocity": 0.2204724409448819,
                    "duration": 0.3081980000000044
                },
                {
                    "name": "G#2",
                    "midi": 44,
                    "time": 359.35886799999736,
                    "velocity": 0.2755905511811024,
                    "duration": 0.6163960000000088
                },
                {
                    "name": "G#3",
                    "midi": 56,
                    "time": 359.97526399999737,
                    "velocity": 0.3228346456692913,
                    "duration": 0.6163960000000088
                },
                {
                    "name": "G#1",
                    "midi": 32,
                    "time": 361.51625399999733,
                    "velocity": 0.2440944881889764,
                    "duration": 0.15409899999997378
                },
                {
                    "name": "G#1",
                    "midi": 32,
                    "time": 361.8244519999973,
                    "velocity": 0.25196850393700787,
                    "duration": 0.15409899999997378
                },
                {
                    "name": "G1",
                    "midi": 31,
                    "time": 362.1326499999972,
                    "velocity": 0.25196850393700787,
                    "duration": 0.15409899999997378
                },
                {
                    "name": "G#1",
                    "midi": 32,
                    "time": 362.4408479999972,
                    "velocity": 0.2755905511811024,
                    "duration": 0.3081980000000044
                },
                {
                    "name": "G#2",
                    "midi": 44,
                    "time": 363.0572439999972,
                    "velocity": 0.33858267716535434,
                    "duration": 0.6163960000000088
                },
                {
                    "name": "G#3",
                    "midi": 56,
                    "time": 363.6736399999972,
                    "velocity": 0.3937007874015748,
                    "duration": 0.6163960000000088
                },
                {
                    "name": "G#1",
                    "midi": 32,
                    "time": 365.21462999999716,
                    "velocity": 0.2755905511811024,
                    "duration": 0.15409899999997378
                },
                {
                    "name": "G#1",
                    "midi": 32,
                    "time": 365.5228279999971,
                    "velocity": 0.2755905511811024,
                    "duration": 0.15409899999997378
                },
                {
                    "name": "G1",
                    "midi": 31,
                    "time": 365.83102599999705,
                    "velocity": 0.2755905511811024,
                    "duration": 0.15409899999997378
                },
                {
                    "name": "G#1",
                    "midi": 32,
                    "time": 366.139223999997,
                    "velocity": 0.30708661417322836,
                    "duration": 0.3081980000000044
                },
                {
                    "name": "G#2",
                    "midi": 44,
                    "time": 366.755619999997,
                    "velocity": 0.3858267716535433,
                    "duration": 0.6163960000000088
                },
                {
                    "name": "G#3",
                    "midi": 56,
                    "time": 367.372015999997,
                    "velocity": 0.44881889763779526,
                    "duration": 0.6163960000000088
                },
                {
                    "name": "G#1",
                    "midi": 32,
                    "time": 368.913005999997,
                    "velocity": 0.33070866141732286,
                    "duration": 0.15409899999997378
                },
                {
                    "name": "G#1",
                    "midi": 32,
                    "time": 369.22120399999693,
                    "velocity": 0.33070866141732286,
                    "duration": 0.15409899999997378
                },
                {
                    "name": "G1",
                    "midi": 31,
                    "time": 369.5294019999969,
                    "velocity": 0.33070866141732286,
                    "duration": 0.15409899999997378
                },
                {
                    "name": "G#1",
                    "midi": 32,
                    "time": 369.8375999999968,
                    "velocity": 0.36220472440944884,
                    "duration": 0.3081980000000044
                },
                {
                    "name": "G#2",
                    "midi": 44,
                    "time": 370.45399599999683,
                    "velocity": 0.4094488188976378,
                    "duration": 0.6163960000000088
                },
                {
                    "name": "G#3",
                    "midi": 56,
                    "time": 371.07039199999684,
                    "velocity": 0.47244094488188976,
                    "duration": 0.6163960000000657
                },
                {
                    "name": "G#4",
                    "midi": 68,
                    "time": 371.6867879999969,
                    "velocity": 0.4645669291338583,
                    "duration": 0.3081980000000044
                },
                {
                    "name": "G#1",
                    "midi": 32,
                    "time": 372.6113819999969,
                    "velocity": 0.28346456692913385,
                    "duration": 0.15409900000003063
                },
                {
                    "name": "G#1",
                    "midi": 32,
                    "time": 372.9195799999969,
                    "velocity": 0.28346456692913385,
                    "duration": 0.15409899999997378
                },
                {
                    "name": "G1",
                    "midi": 31,
                    "time": 373.2277779999969,
                    "velocity": 0.28346456692913385,
                    "duration": 0.15409899999997378
                },
                {
                    "name": "G#1",
                    "midi": 32,
                    "time": 373.5359759999968,
                    "velocity": 0.28346456692913385,
                    "duration": 0.30819799999994757
                },
                {
                    "name": "G#2",
                    "midi": 44,
                    "time": 374.1523719999968,
                    "velocity": 0.2992125984251969,
                    "duration": 0.6163960000000088
                },
                {
                    "name": "G#3",
                    "midi": 56,
                    "time": 374.7687679999968,
                    "velocity": 0.3228346456692913,
                    "duration": 0.6163960000000088
                },
                {
                    "name": "G#4",
                    "midi": 68,
                    "time": 375.3851639999968,
                    "velocity": 0.2992125984251969,
                    "duration": 0.3081980000000044
                },
                {
                    "name": "C2",
                    "midi": 36,
                    "time": 377.2343519999968,
                    "velocity": 0.2047244094488189,
                    "duration": 0.6163960000000088
                },
                {
                    "name": "C3",
                    "midi": 48,
                    "time": 377.8507479999968,
                    "velocity": 0.1732283464566929,
                    "duration": 0.6163960000000088
                },
                {
                    "name": "C4",
                    "midi": 60,
                    "time": 378.46714399999684,
                    "velocity": 0.1889763779527559,
                    "duration": 0.6163960000000088
                },
                {
                    "name": "E4",
                    "midi": 64,
                    "time": 379.08353999999684,
                    "velocity": 0.1968503937007874,
                    "duration": 0.3081980000000044
                },
                {
                    "name": "C2",
                    "midi": 36,
                    "time": 380.00813399999686,
                    "velocity": 0.1968503937007874,
                    "duration": 0.15409899999997378
                },
                {
                    "name": "D2",
                    "midi": 38,
                    "time": 380.3163319999968,
                    "velocity": 0.1968503937007874,
                    "duration": 0.15409899999997378
                },
                {
                    "name": "E2",
                    "midi": 40,
                    "time": 380.62452999999675,
                    "velocity": 0.1968503937007874,
                    "duration": 0.15409899999997378
                },
                {
                    "name": "F1",
                    "midi": 29,
                    "time": 380.9327279999967,
                    "velocity": 0.2047244094488189,
                    "duration": 0.6163960000000088
                },
                {
                    "name": "F2",
                    "midi": 41,
                    "time": 381.5491239999967,
                    "velocity": 0.1732283464566929,
                    "duration": 0.6163960000000088
                },
                {
                    "name": "F3",
                    "midi": 53,
                    "time": 382.1655199999967,
                    "velocity": 0.2047244094488189,
                    "duration": 0.6163960000000088
                },
                {
                    "name": "F4",
                    "midi": 65,
                    "time": 382.7819159999967,
                    "velocity": 0.1968503937007874,
                    "duration": 0.3081980000000044
                },
                {
                    "name": "D2",
                    "midi": 38,
                    "time": 383.70650999999674,
                    "velocity": 0.1968503937007874,
                    "duration": 0.15409899999997378
                },
                {
                    "name": "E2",
                    "midi": 40,
                    "time": 384.0147079999967,
                    "velocity": 0.1968503937007874,
                    "duration": 0.15409899999997378
                },
                {
                    "name": "F2",
                    "midi": 41,
                    "time": 384.32290599999664,
                    "velocity": 0.1968503937007874,
                    "duration": 0.15409899999997378
                },
                {
                    "name": "G1",
                    "midi": 31,
                    "time": 384.6311039999966,
                    "velocity": 0.2047244094488189,
                    "duration": 0.6163960000000088
                },
                {
                    "name": "G2",
                    "midi": 43,
                    "time": 385.2474999999966,
                    "velocity": 0.1732283464566929,
                    "duration": 0.6163960000000088
                },
                {
                    "name": "G3",
                    "midi": 55,
                    "time": 385.8638959999966,
                    "velocity": 0.2125984251968504,
                    "duration": 0.6163960000000088
                },
                {
                    "name": "G4",
                    "midi": 67,
                    "time": 386.4802919999966,
                    "velocity": 0.2204724409448819,
                    "duration": 0.3081980000000044
                },
                {
                    "name": "G1",
                    "midi": 31,
                    "time": 387.4048859999966,
                    "velocity": 0.1968503937007874,
                    "duration": 0.15409899999997378
                },
                {
                    "name": "A1",
                    "midi": 33,
                    "time": 387.71308399999657,
                    "velocity": 0.1968503937007874,
                    "duration": 0.15409899999997378
                },
                {
                    "name": "B1",
                    "midi": 35,
                    "time": 388.0212819999965,
                    "velocity": 0.1968503937007874,
                    "duration": 0.15409899999997378
                },
                {
                    "name": "C2",
                    "midi": 36,
                    "time": 388.32947999999647,
                    "velocity": 0.2047244094488189,
                    "duration": 0.6163960000000088
                },
                {
                    "name": "C3",
                    "midi": 48,
                    "time": 388.9458759999965,
                    "velocity": 0.1732283464566929,
                    "duration": 0.6163960000000088
                },
                {
                    "name": "C4",
                    "midi": 60,
                    "time": 389.5622719999965,
                    "velocity": 0.2125984251968504,
                    "duration": 0.6163960000000088
                },
                {
                    "name": "C2",
                    "midi": 36,
                    "time": 391.1032619999965,
                    "velocity": 0.1968503937007874,
                    "duration": 0.15409899999997378
                },
                {
                    "name": "C2",
                    "midi": 36,
                    "time": 391.41145999999645,
                    "velocity": 0.1968503937007874,
                    "duration": 0.15409899999997378
                },
                {
                    "name": "D2",
                    "midi": 38,
                    "time": 391.7196579999964,
                    "velocity": 0.1968503937007874,
                    "duration": 0.15409899999997378
                },
                {
                    "name": "C2",
                    "midi": 36,
                    "time": 392.02785599999635,
                    "velocity": 0.2047244094488189,
                    "duration": 0.6163960000000088
                },
                {
                    "name": "G3",
                    "midi": 55,
                    "time": 392.64425199999636,
                    "velocity": 0.1732283464566929,
                    "duration": 0.6163960000000088
                },
                {
                    "name": "G4",
                    "midi": 67,
                    "time": 393.26064799999637,
                    "velocity": 0.2125984251968504,
                    "duration": 0.6163960000000088
                },
                {
                    "name": "C2",
                    "midi": 36,
                    "time": 394.8016379999964,
                    "velocity": 0.1968503937007874,
                    "duration": 0.15409899999997378
                },
                {
                    "name": "C2",
                    "midi": 36,
                    "time": 395.10983599999633,
                    "velocity": 0.1968503937007874,
                    "duration": 0.15409899999997378
                },
                {
                    "name": "D2",
                    "midi": 38,
                    "time": 395.4180339999963,
                    "velocity": 0.1968503937007874,
                    "duration": 0.15409899999997378
                },
                {
                    "name": "C2",
                    "midi": 36,
                    "time": 395.72623199999623,
                    "velocity": 0.2047244094488189,
                    "duration": 0.6163960000000088
                },
                {
                    "name": "G3",
                    "midi": 55,
                    "time": 396.34262799999624,
                    "velocity": 0.1732283464566929,
                    "duration": 0.6163960000000088
                },
                {
                    "name": "G4",
                    "midi": 67,
                    "time": 396.95902399999625,
                    "velocity": 0.2125984251968504,
                    "duration": 0.6163960000000088
                },
                {
                    "name": "C2",
                    "midi": 36,
                    "time": 398.5000139999962,
                    "velocity": 0.1968503937007874,
                    "duration": 0.15409899999997378
                },
                {
                    "name": "C2",
                    "midi": 36,
                    "time": 398.80821199999616,
                    "velocity": 0.1968503937007874,
                    "duration": 0.15409899999997378
                },
                {
                    "name": "D2",
                    "midi": 38,
                    "time": 399.1164099999961,
                    "velocity": 0.1968503937007874,
                    "duration": 0.15409899999997378
                },
                {
                    "name": "C2",
                    "midi": 36,
                    "time": 399.42460799999606,
                    "velocity": 0.2047244094488189,
                    "duration": 0.6163960000000088
                },
                {
                    "name": "G3",
                    "midi": 55,
                    "time": 400.04100399999606,
                    "velocity": 0.1732283464566929,
                    "duration": 0.6163960000000088
                },
                {
                    "name": "G4",
                    "midi": 67,
                    "time": 400.6573999999961,
                    "velocity": 0.2125984251968504,
                    "duration": 0.6163960000000088
                },
                {
                    "name": "C2",
                    "midi": 36,
                    "time": 402.19838999999604,
                    "velocity": 0.1968503937007874,
                    "duration": 0.15409899999997378
                },
                {
                    "name": "C2",
                    "midi": 36,
                    "time": 402.506587999996,
                    "velocity": 0.1968503937007874,
                    "duration": 0.15409899999997378
                },
                {
                    "name": "D2",
                    "midi": 38,
                    "time": 402.81478599999593,
                    "velocity": 0.1968503937007874,
                    "duration": 0.15409899999997378
                },
                {
                    "name": "C2",
                    "midi": 36,
                    "time": 403.1229839999959,
                    "velocity": 0.2047244094488189,
                    "duration": 0.6163960000000088
                },
                {
                    "name": "G3",
                    "midi": 55,
                    "time": 403.7393799999959,
                    "velocity": 0.1732283464566929,
                    "duration": 0.6163960000000088
                },
                {
                    "name": "G4",
                    "midi": 67,
                    "time": 404.3557759999959,
                    "velocity": 0.2125984251968504,
                    "duration": 0.6163960000000088
                },
                {
                    "name": "C2",
                    "midi": 36,
                    "time": 405.8967659999959,
                    "velocity": 0.1968503937007874,
                    "duration": 0.15409899999997378
                },
                {
                    "name": "C2",
                    "midi": 36,
                    "time": 406.20496399999587,
                    "velocity": 0.1968503937007874,
                    "duration": 0.15409899999997378
                },
                {
                    "name": "D2",
                    "midi": 38,
                    "time": 406.5131619999958,
                    "velocity": 0.1968503937007874,
                    "duration": 0.15409899999997378
                },
                {
                    "name": "B1",
                    "midi": 35,
                    "time": 406.82135999999576,
                    "velocity": 0.2047244094488189,
                    "duration": 0.6163960000000088
                },
                {
                    "name": "B2",
                    "midi": 47,
                    "time": 407.4377559999958,
                    "velocity": 0.1732283464566929,
                    "duration": 0.6163960000000088
                },
                {
                    "name": "B3",
                    "midi": 59,
                    "time": 408.0541519999958,
                    "velocity": 0.2125984251968504,
                    "duration": 0.6163960000000088
                },
                {
                    "name": "B1",
                    "midi": 35,
                    "time": 409.5951419999958,
                    "velocity": 0.1968503937007874,
                    "duration": 0.15409899999997378
                },
                {
                    "name": "B1",
                    "midi": 35,
                    "time": 409.90333999999575,
                    "velocity": 0.1968503937007874,
                    "duration": 0.15409899999997378
                },
                {
                    "name": "C#2",
                    "midi": 37,
                    "time": 410.2115379999957,
                    "velocity": 0.1968503937007874,
                    "duration": 0.15409899999997378
                },
                {
                    "name": "B1",
                    "midi": 35,
                    "time": 410.51973599999565,
                    "velocity": 0.2047244094488189,
                    "duration": 0.3081980000000044
                },
                {
                    "name": "B2",
                    "midi": 47,
                    "time": 411.13613199999565,
                    "velocity": 0.1732283464566929,
                    "duration": 0.6163960000000088
                },
                {
                    "name": "B3",
                    "midi": 59,
                    "time": 411.75252799999566,
                    "velocity": 0.2125984251968504,
                    "duration": 0.6163960000000088
                },
                {
                    "name": "B1",
                    "midi": 35,
                    "time": 413.29351799999563,
                    "velocity": 0.1968503937007874,
                    "duration": 0.15409899999997378
                },
                {
                    "name": "B1",
                    "midi": 35,
                    "time": 413.6017159999956,
                    "velocity": 0.1968503937007874,
                    "duration": 0.15409899999997378
                },
                {
                    "name": "C#2",
                    "midi": 37,
                    "time": 413.9099139999955,
                    "velocity": 0.1968503937007874,
                    "duration": 0.15409899999997378
                },
                {
                    "name": "B1",
                    "midi": 35,
                    "time": 414.2181119999955,
                    "velocity": 0.2047244094488189,
                    "duration": 0.3081980000000044
                },
                {
                    "name": "B2",
                    "midi": 47,
                    "time": 414.8345079999955,
                    "velocity": 0.1732283464566929,
                    "duration": 0.6163960000000088
                },
                {
                    "name": "B3",
                    "midi": 59,
                    "time": 415.4509039999955,
                    "velocity": 0.2125984251968504,
                    "duration": 0.6163960000000088
                },
                {
                    "name": "B1",
                    "midi": 35,
                    "time": 416.99189399999545,
                    "velocity": 0.1968503937007874,
                    "duration": 0.15409899999997378
                },
                {
                    "name": "B1",
                    "midi": 35,
                    "time": 417.3000919999954,
                    "velocity": 0.1968503937007874,
                    "duration": 0.15409899999997378
                },
                {
                    "name": "C#2",
                    "midi": 37,
                    "time": 417.60828999999535,
                    "velocity": 0.1968503937007874,
                    "duration": 0.15409899999997378
                },
                {
                    "name": "B1",
                    "midi": 35,
                    "time": 417.9164879999953,
                    "velocity": 0.2047244094488189,
                    "duration": 0.3081980000000044
                },
                {
                    "name": "B2",
                    "midi": 47,
                    "time": 418.5328839999953,
                    "velocity": 0.1732283464566929,
                    "duration": 0.6163960000000088
                },
                {
                    "name": "B3",
                    "midi": 59,
                    "time": 419.1492799999953,
                    "velocity": 0.2125984251968504,
                    "duration": 0.6163960000000088
                },
                {
                    "name": "B1",
                    "midi": 35,
                    "time": 420.69026999999534,
                    "velocity": 0.2047244094488189,
                    "duration": 0.15409899999997378
                },
                {
                    "name": "B1",
                    "midi": 35,
                    "time": 420.9984679999953,
                    "velocity": 0.2047244094488189,
                    "duration": 0.15409899999997378
                },
                {
                    "name": "C#2",
                    "midi": 37,
                    "time": 421.30666599999523,
                    "velocity": 0.2047244094488189,
                    "duration": 0.15409899999997378
                },
                {
                    "name": "B1",
                    "midi": 35,
                    "time": 421.6148639999952,
                    "velocity": 0.2283464566929134,
                    "duration": 0.3081980000000044
                },
                {
                    "name": "B2",
                    "midi": 47,
                    "time": 422.2312599999952,
                    "velocity": 0.29133858267716534,
                    "duration": 0.6163960000000088
                },
                {
                    "name": "B3",
                    "midi": 59,
                    "time": 422.8476559999952,
                    "velocity": 0.33858267716535434,
                    "duration": 0.6163960000000088
                },
                {
                    "name": "B1",
                    "midi": 35,
                    "time": 424.38864599999516,
                    "velocity": 0.25196850393700787,
                    "duration": 0.15409899999997378
                },
                {
                    "name": "B1",
                    "midi": 35,
                    "time": 424.6968439999951,
                    "velocity": 0.25984251968503935,
                    "duration": 0.15409899999997378
                },
                {
                    "name": "C#2",
                    "midi": 37,
                    "time": 425.00504199999506,
                    "velocity": 0.25984251968503935,
                    "duration": 0.15409899999997378
                },
                {
                    "name": "B1",
                    "midi": 35,
                    "time": 425.313239999995,
                    "velocity": 0.29133858267716534,
                    "duration": 0.3081980000000044
                },
                {
                    "name": "B2",
                    "midi": 47,
                    "time": 425.929635999995,
                    "velocity": 0.3700787401574803,
                    "duration": 0.6163960000000088
                },
                {
                    "name": "B3",
                    "midi": 59,
                    "time": 426.546031999995,
                    "velocity": 0.4409448818897638,
                    "duration": 0.6163960000000088
                },
                {
                    "name": "B1",
                    "midi": 35,
                    "time": 428.087021999995,
                    "velocity": 0.31496062992125984,
                    "duration": 0.15409899999997378
                },
                {
                    "name": "B1",
                    "midi": 35,
                    "time": 428.39521999999494,
                    "velocity": 0.3228346456692913,
                    "duration": 0.15409899999997378
                },
                {
                    "name": "C#2",
                    "midi": 37,
                    "time": 428.7034179999949,
                    "velocity": 0.33858267716535434,
                    "duration": 0.15409899999997378
                },
                {
                    "name": "B1",
                    "midi": 35,
                    "time": 429.01161599999483,
                    "velocity": 0.36220472440944884,
                    "duration": 0.3081980000000044
                },
                {
                    "name": "B2",
                    "midi": 47,
                    "time": 429.62801199999484,
                    "velocity": 0.4094488188976378,
                    "duration": 0.6163960000000088
                },
                {
                    "name": "B3",
                    "midi": 59,
                    "time": 430.24440799999485,
                    "velocity": 0.47244094488188976,
                    "duration": 0.6163960000000088
                },
                {
                    "name": "B1",
                    "midi": 35,
                    "time": 431.78539799999487,
                    "velocity": 0.25984251968503935,
                    "duration": 0.15409899999997378
                },
                {
                    "name": "B1",
                    "midi": 35,
                    "time": 432.0935959999948,
                    "velocity": 0.25196850393700787,
                    "duration": 0.15409899999997378
                },
                {
                    "name": "C#2",
                    "midi": 37,
                    "time": 432.40179399999477,
                    "velocity": 0.25984251968503935,
                    "duration": 0.15409899999997378
                },
                {
                    "name": "B1",
                    "midi": 35,
                    "time": 432.7099919999947,
                    "velocity": 0.2677165354330709,
                    "duration": 0.3081980000000044
                },
                {
                    "name": "B2",
                    "midi": 47,
                    "time": 433.3263879999947,
                    "velocity": 0.23622047244094488,
                    "duration": 0.6163960000000088
                },
                {
                    "name": "B3",
                    "midi": 59,
                    "time": 433.94278399999473,
                    "velocity": 0.2440944881889764,
                    "duration": 0.6163960000000088
                },
                {
                    "name": "C#2",
                    "midi": 37,
                    "time": 436.40836799999477,
                    "velocity": 0.2047244094488189,
                    "duration": 0.3081980000000044
                },
                {
                    "name": "C#3",
                    "midi": 49,
                    "time": 437.0247639999948,
                    "velocity": 0.1732283464566929,
                    "duration": 0.6163960000000088
                },
                {
                    "name": "C#4",
                    "midi": 61,
                    "time": 437.6411599999948,
                    "velocity": 0.2047244094488189,
                    "duration": 0.6163960000000088
                },
                {
                    "name": "C#2",
                    "midi": 37,
                    "time": 439.18214999999475,
                    "velocity": 0.1968503937007874,
                    "duration": 0.15409899999997378
                },
                {
                    "name": "D#2",
                    "midi": 39,
                    "time": 439.4903479999947,
                    "velocity": 0.1968503937007874,
                    "duration": 0.15409899999997378
                },
                {
                    "name": "E2",
                    "midi": 40,
                    "time": 439.79854599999464,
                    "velocity": 0.1968503937007874,
                    "duration": 0.15409899999997378
                },
                {
                    "name": "F#1",
                    "midi": 30,
                    "time": 440.1067439999946,
                    "velocity": 0.1889763779527559,
                    "duration": 0.3081980000000044
                },
                {
                    "name": "F#2",
                    "midi": 42,
                    "time": 440.7231399999946,
                    "velocity": 0.1889763779527559,
                    "duration": 0.6163960000000088
                },
                {
                    "name": "F#3",
                    "midi": 54,
                    "time": 441.3395359999946,
                    "velocity": 0.2125984251968504,
                    "duration": 0.6163960000000088
                },
                {
                    "name": "F#4",
                    "midi": 66,
                    "time": 441.9482270499946,
                    "velocity": 0.23622047244094488,
                    "duration": 0.6163960000000088
                },
                {
                    "name": "F#1",
                    "midi": 30,
                    "time": 442.88052599999463,
                    "velocity": 0.1968503937007874,
                    "duration": 0.15409899999997378
                },
                {
                    "name": "F1",
                    "midi": 29,
                    "time": 443.1887239999946,
                    "velocity": 0.1968503937007874,
                    "duration": 0.15409899999997378
                },
                {
                    "name": "F#1",
                    "midi": 30,
                    "time": 443.4969219999945,
                    "velocity": 0.1968503937007874,
                    "duration": 0.15409899999997378
                },
                {
                    "name": "G#1",
                    "midi": 32,
                    "time": 443.8051199999945,
                    "velocity": 0.1889763779527559,
                    "duration": 0.3081980000000044
                },
                {
                    "name": "G#2",
                    "midi": 44,
                    "time": 444.4215159999945,
                    "velocity": 0.1732283464566929,
                    "duration": 0.6163960000000088
                },
                {
                    "name": "G#3",
                    "midi": 56,
                    "time": 445.0379119999945,
                    "velocity": 0.2125984251968504,
                    "duration": 0.6163960000000088
                },
                {
                    "name": "G#1",
                    "midi": 32,
                    "time": 446.57890199999446,
                    "velocity": 0.1968503937007874,
                    "duration": 0.15409899999997378
                },
                {
                    "name": "G1",
                    "midi": 31,
                    "time": 446.8870999999944,
                    "velocity": 0.1968503937007874,
                    "duration": 0.15409899999997378
                },
                {
                    "name": "G#1",
                    "midi": 32,
                    "time": 447.19529799999435,
                    "velocity": 0.1968503937007874,
                    "duration": 0.15409899999997378
                },
                {
                    "name": "C#2",
                    "midi": 37,
                    "time": 447.5034959999943,
                    "velocity": 0.2047244094488189,
                    "duration": 0.3081980000000044
                },
                {
                    "name": "G#2",
                    "midi": 44,
                    "time": 448.1198919999943,
                    "velocity": 0.1732283464566929,
                    "duration": 0.6163960000000088
                },
                {
                    "name": "C#3",
                    "midi": 49,
                    "time": 448.7362879999943,
                    "velocity": 0.2125984251968504,
                    "duration": 0.6163960000000088
                },
                {
                    "name": "C#2",
                    "midi": 37,
                    "time": 450.27727799999434,
                    "velocity": 0.1968503937007874,
                    "duration": 0.15409899999997378
                },
                {
                    "name": "C#2",
                    "midi": 37,
                    "time": 450.5854759999943,
                    "velocity": 0.1968503937007874,
                    "duration": 0.15409899999997378
                },
                {
                    "name": "C2",
                    "midi": 36,
                    "time": 450.89367399999423,
                    "velocity": 0.1968503937007874,
                    "duration": 0.15409899999997378
                },
                {
                    "name": "C#2",
                    "midi": 37,
                    "time": 451.2018719999942,
                    "velocity": 0.15748031496062992,
                    "duration": 0.6163960000000088
                },
                {
                    "name": "C#3",
                    "midi": 49,
                    "time": 451.8182679999942,
                    "velocity": 0.15748031496062992,
                    "duration": 0.6163960000000088
                },
                {
                    "name": "C#4",
                    "midi": 61,
                    "time": 452.4346639999942,
                    "velocity": 0.18110236220472442,
                    "duration": 0.6163960000000088
                },
                {
                    "name": "C#2",
                    "midi": 37,
                    "time": 453.97565399999417,
                    "velocity": 0.15748031496062992,
                    "duration": 0.15409899999997378
                },
                {
                    "name": "D#2",
                    "midi": 39,
                    "time": 454.2838519999941,
                    "velocity": 0.15748031496062992,
                    "duration": 0.15409899999997378
                },
                {
                    "name": "F2",
                    "midi": 41,
                    "time": 454.59204999999406,
                    "velocity": 0.15748031496062992,
                    "duration": 0.15409899999997378
                },
                {
                    "name": "F#1",
                    "midi": 30,
                    "time": 454.900247999994,
                    "velocity": 0.14960629921259844,
                    "duration": 0.6163960000000088
                },
                {
                    "name": "F#2",
                    "midi": 42,
                    "time": 455.516643999994,
                    "velocity": 0.15748031496062992,
                    "duration": 0.6163960000000088
                },
                {
                    "name": "F#3",
                    "midi": 54,
                    "time": 456.133039999994,
                    "velocity": 0.18110236220472442,
                    "duration": 0.6163960000000088
                },
                {
                    "name": "D#2",
                    "midi": 39,
                    "time": 457.674029999994,
                    "velocity": 0.15748031496062992,
                    "duration": 0.15409899999997378
                },
                {
                    "name": "F2",
                    "midi": 41,
                    "time": 457.98222799999394,
                    "velocity": 0.15748031496062992,
                    "duration": 0.15409899999997378
                },
                {
                    "name": "F#2",
                    "midi": 42,
                    "time": 458.2904259999939,
                    "velocity": 0.15748031496062992,
                    "duration": 0.15409899999997378
                },
                {
                    "name": "G#1",
                    "midi": 32,
                    "time": 458.59862399999383,
                    "velocity": 0.14960629921259844,
                    "duration": 0.6163960000000088
                },
                {
                    "name": "G#2",
                    "midi": 44,
                    "time": 459.21501999999384,
                    "velocity": 0.13385826771653545,
                    "duration": 0.6163960000000088
                },
                {
                    "name": "G#3",
                    "midi": 56,
                    "time": 459.83141599999385,
                    "velocity": 0.16535433070866143,
                    "duration": 0.6163960000000088
                },
                {
                    "name": "G#1",
                    "midi": 32,
                    "time": 461.3724059999938,
                    "velocity": 0.15748031496062992,
                    "duration": 0.15409899999997378
                },
                {
                    "name": "A#1",
                    "midi": 34,
                    "time": 461.68060399999376,
                    "velocity": 0.1732283464566929,
                    "duration": 0.15409899999997378
                },
                {
                    "name": "C2",
                    "midi": 36,
                    "time": 461.9888019999937,
                    "velocity": 0.1732283464566929,
                    "duration": 0.15409899999997378
                },
                {
                    "name": "C#2",
                    "midi": 37,
                    "time": 462.29699999999366,
                    "velocity": 0.1732283464566929,
                    "duration": 0.6163960000000088
                },
                {
                    "name": "G#2",
                    "midi": 44,
                    "time": 462.91339599999367,
                    "velocity": 0.14960629921259844,
                    "duration": 0.6163960000000088
                },
                {
                    "name": "C#3",
                    "midi": 49,
                    "time": 463.5297919999937,
                    "velocity": 0.1732283464566929,
                    "duration": 0.6163960000000088
                },
                {
                    "name": "C#3",
                    "midi": 49,
                    "time": 465.0707819999937,
                    "velocity": 0.1968503937007874,
                    "duration": 0.15409899999997378
                },
                {
                    "name": "C3",
                    "midi": 48,
                    "time": 465.37897999999365,
                    "velocity": 0.1968503937007874,
                    "duration": 0.15409899999997378
                },
                {
                    "name": "C#3",
                    "midi": 49,
                    "time": 465.6871779999936,
                    "velocity": 0.1968503937007874,
                    "duration": 0.15409899999997378
                },
                {
                    "name": "A#2",
                    "midi": 46,
                    "time": 465.99537599999354,
                    "velocity": 0.2047244094488189,
                    "duration": 0.6163960000000088
                },
                {
                    "name": "A#2",
                    "midi": 46,
                    "time": 468.7691579999936,
                    "velocity": 0.1968503937007874,
                    "duration": 0.15409899999997378
                },
                {
                    "name": "A#2",
                    "midi": 46,
                    "time": 469.07735599999353,
                    "velocity": 0.1968503937007874,
                    "duration": 0.15409899999997378
                },
                {
                    "name": "C#3",
                    "midi": 49,
                    "time": 469.3855539999935,
                    "velocity": 0.1968503937007874,
                    "duration": 0.15409899999997378
                },
                {
                    "name": "A2",
                    "midi": 45,
                    "time": 469.6937519999934,
                    "velocity": 0.2047244094488189,
                    "duration": 0.6163960000000088
                },
                {
                    "name": "A2",
                    "midi": 45,
                    "time": 472.46753399999346,
                    "velocity": 0.1968503937007874,
                    "duration": 0.15409899999997378
                },
                {
                    "name": "A2",
                    "midi": 45,
                    "time": 472.7757319999934,
                    "velocity": 0.1968503937007874,
                    "duration": 0.15409899999997378
                },
                {
                    "name": "C#3",
                    "midi": 49,
                    "time": 473.08392999999336,
                    "velocity": 0.1968503937007874,
                    "duration": 0.15409899999997378
                },
                {
                    "name": "G#2",
                    "midi": 44,
                    "time": 473.3921279999933,
                    "velocity": 0.2047244094488189,
                    "duration": 0.6163960000000088
                },
                {
                    "name": "G#2",
                    "midi": 44,
                    "time": 476.1659099999933,
                    "velocity": 0.1968503937007874,
                    "duration": 0.15409899999997378
                },
                {
                    "name": "G2",
                    "midi": 43,
                    "time": 476.47410799999324,
                    "velocity": 0.1968503937007874,
                    "duration": 0.15409899999997378
                },
                {
                    "name": "G#2",
                    "midi": 44,
                    "time": 476.7823059999932,
                    "velocity": 0.1968503937007874,
                    "duration": 0.15409899999997378
                },
                {
                    "name": "C#2",
                    "midi": 37,
                    "time": 477.09050399999313,
                    "velocity": 0.2047244094488189,
                    "duration": 0.6163960000000088
                },
                {
                    "name": "C#3",
                    "midi": 49,
                    "time": 477.70689999999314,
                    "velocity": 0.2125984251968504,
                    "duration": 0.3081980000000044
                },
                {
                    "name": "C#2",
                    "midi": 37,
                    "time": 479.8642859999931,
                    "velocity": 0.1732283464566929,
                    "duration": 0.15409899999997378
                },
                {
                    "name": "C2",
                    "midi": 36,
                    "time": 480.17248399999306,
                    "velocity": 0.1732283464566929,
                    "duration": 0.15409899999997378
                },
                {
                    "name": "C#2",
                    "midi": 37,
                    "time": 480.480681999993,
                    "velocity": 0.1732283464566929,
                    "duration": 0.15409899999997378
                },
                {
                    "name": "A#1",
                    "midi": 34,
                    "time": 480.78887999999296,
                    "velocity": 0.1732283464566929,
                    "duration": 0.3081980000000044
                },
                {
                    "name": "A#2",
                    "midi": 46,
                    "time": 481.40527599999297,
                    "velocity": 0.1889763779527559,
                    "duration": 0.3081980000000044
                },
                {
                    "name": "A#1",
                    "midi": 34,
                    "time": 483.562661999993,
                    "velocity": 0.16535433070866143,
                    "duration": 0.15409899999997378
                },
                {
                    "name": "A#1",
                    "midi": 34,
                    "time": 483.87085999999294,
                    "velocity": 0.16535433070866143,
                    "duration": 0.15409899999997378
                },
                {
                    "name": "C#2",
                    "midi": 37,
                    "time": 484.1790579999929,
                    "velocity": 0.16535433070866143,
                    "duration": 0.15409899999997378
                },
                {
                    "name": "A1",
                    "midi": 33,
                    "time": 484.48725599999284,
                    "velocity": 0.1732283464566929,
                    "duration": 0.3081980000000044
                },
                {
                    "name": "A2",
                    "midi": 45,
                    "time": 485.10365199999285,
                    "velocity": 0.1889763779527559,
                    "duration": 0.3081980000000044
                },
                {
                    "name": "A1",
                    "midi": 33,
                    "time": 487.2610379999929,
                    "velocity": 0.16535433070866143,
                    "duration": 0.15409899999997378
                },
                {
                    "name": "A1",
                    "midi": 33,
                    "time": 487.5692359999928,
                    "velocity": 0.16535433070866143,
                    "duration": 0.15409899999997378
                },
                {
                    "name": "B1",
                    "midi": 35,
                    "time": 487.8774339999928,
                    "velocity": 0.16535433070866143,
                    "duration": 0.15409899999997378
                },
                {
                    "name": "G#1",
                    "midi": 32,
                    "time": 488.1856319999927,
                    "velocity": 0.1732283464566929,
                    "duration": 0.3081980000000044
                },
                {
                    "name": "G#2",
                    "midi": 44,
                    "time": 488.80202799999273,
                    "velocity": 0.1889763779527559,
                    "duration": 0.3081980000000044
                },
                {
                    "name": "G#3",
                    "midi": 56,
                    "time": 489.41842399999274,
                    "velocity": 0.1889763779527559,
                    "duration": 1.2327920000000177
                },
                {
                    "name": "G#1",
                    "midi": 32,
                    "time": 490.95941399999276,
                    "velocity": 0.16535433070866143,
                    "duration": 0.15409899999997378
                },
                {
                    "name": "G1",
                    "midi": 31,
                    "time": 491.2676119999927,
                    "velocity": 0.16535433070866143,
                    "duration": 0.15409899999997378
                },
                {
                    "name": "G#1",
                    "midi": 32,
                    "time": 491.57580999999266,
                    "velocity": 0.16535433070866143,
                    "duration": 0.15409899999997378
                },
                {
                    "name": "C#4",
                    "midi": 61,
                    "time": 491.8840079999926,
                    "velocity": 0.1968503937007874,
                    "duration": 3.0819799999999304
                },
                {
                    "name": "G#3",
                    "midi": 56,
                    "time": 491.8840079999926,
                    "velocity": 0.16535433070866143,
                    "duration": 3.0819799999999304
                },
                {
                    "name": "F3",
                    "midi": 53,
                    "time": 491.8840079999926,
                    "velocity": 0.16535433070866143,
                    "duration": 3.0819799999999304
                },
                {
                    "name": "C#2",
                    "midi": 37,
                    "time": 491.8840079999926,
                    "velocity": 0.1732283464566929,
                    "duration": 0.3081980000000044
                },
                {
                    "name": "C#3",
                    "midi": 49,
                    "time": 492.5004039999926,
                    "velocity": 0.1732283464566929,
                    "duration": 0.3081980000000044
                },
                {
                    "name": "C#2",
                    "midi": 37,
                    "time": 494.6577899999926,
                    "velocity": 0.16535433070866143,
                    "duration": 0.15409899999997378
                },
                {
                    "name": "C#2",
                    "midi": 37,
                    "time": 494.96598799999254,
                    "velocity": 0.16535433070866143,
                    "duration": 0.15409899999997378
                },
                {
                    "name": "C2",
                    "midi": 36,
                    "time": 495.2741859999925,
                    "velocity": 0.16535433070866143,
                    "duration": 0.15409899999997378
                },
                {
                    "name": "C#4",
                    "midi": 61,
                    "time": 495.58238399999243,
                    "velocity": 0.1968503937007874,
                    "duration": 3.0819799999999304
                },
                {
                    "name": "A#3",
                    "midi": 58,
                    "time": 495.58238399999243,
                    "velocity": 0.16535433070866143,
                    "duration": 3.0819799999999304
                },
                {
                    "name": "F#3",
                    "midi": 54,
                    "time": 495.58238399999243,
                    "velocity": 0.16535433070866143,
                    "duration": 3.0819799999999304
                },
                {
                    "name": "C#2",
                    "midi": 37,
                    "time": 495.58238399999243,
                    "velocity": 0.1732283464566929,
                    "duration": 0.3081980000000044
                },
                {
                    "name": "C#3",
                    "midi": 49,
                    "time": 496.19877999999244,
                    "velocity": 0.1732283464566929,
                    "duration": 0.3081980000000044
                },
                {
                    "name": "C#2",
                    "midi": 37,
                    "time": 498.3561659999924,
                    "velocity": 0.16535433070866143,
                    "duration": 0.15409899999997378
                },
                {
                    "name": "C#2",
                    "midi": 37,
                    "time": 498.66436399999236,
                    "velocity": 0.16535433070866143,
                    "duration": 0.15409899999997378
                },
                {
                    "name": "C2",
                    "midi": 36,
                    "time": 498.9725619999923,
                    "velocity": 0.16535433070866143,
                    "duration": 0.15409899999997378
                },
                {
                    "name": "C#4",
                    "midi": 61,
                    "time": 499.28075999999226,
                    "velocity": 0.1968503937007874,
                    "duration": 3.0819799999999304
                },
                {
                    "name": "F#3",
                    "midi": 54,
                    "time": 499.28075999999226,
                    "velocity": 0.16535433070866143,
                    "duration": 3.0819799999999304
                },
                {
                    "name": "D#3",
                    "midi": 51,
                    "time": 499.28075999999226,
                    "velocity": 0.16535433070866143,
                    "duration": 3.0819799999999304
                },
                {
                    "name": "C#2",
                    "midi": 37,
                    "time": 499.28075999999226,
                    "velocity": 0.1732283464566929,
                    "duration": 0.3081980000000044
                },
                {
                    "name": "C#3",
                    "midi": 49,
                    "time": 499.89715599999226,
                    "velocity": 0.1732283464566929,
                    "duration": 0.3081980000000044
                },
                {
                    "name": "C#2",
                    "midi": 37,
                    "time": 502.05454199999224,
                    "velocity": 0.16535433070866143,
                    "duration": 0.15409899999997378
                },
                {
                    "name": "C#2",
                    "midi": 37,
                    "time": 502.3627399999922,
                    "velocity": 0.16535433070866143,
                    "duration": 0.15409899999997378
                },
                {
                    "name": "C2",
                    "midi": 36,
                    "time": 502.67093799999213,
                    "velocity": 0.16535433070866143,
                    "duration": 0.15409899999997378
                },
                {
                    "name": "C#2",
                    "midi": 37,
                    "time": 502.9791359999921,
                    "velocity": 0.1732283464566929,
                    "duration": 0.6163960000000088
                },
                {
                    "name": "F3",
                    "midi": 53,
                    "time": 502.9791359999921,
                    "velocity": 0.16535433070866143,
                    "duration": 1.2327920000000177
                },
                {
                    "name": "G#3",
                    "midi": 56,
                    "time": 502.9791359999921,
                    "velocity": 0.16535433070866143,
                    "duration": 1.2327920000000177
                },
                {
                    "name": "C#4",
                    "midi": 61,
                    "time": 502.9791359999921,
                    "velocity": 0.1968503937007874,
                    "duration": 1.2327920000000177
                },
                {
                    "name": "F3",
                    "midi": 53,
                    "time": 504.2119279999921,
                    "velocity": 0.14173228346456693,
                    "duration": 1.2327920000000177
                },
                {
                    "name": "G#3",
                    "midi": 56,
                    "time": 504.2119279999921,
                    "velocity": 0.14173228346456693,
                    "duration": 1.2327920000000177
                },
                {
                    "name": "C#4",
                    "midi": 61,
                    "time": 504.2119279999921,
                    "velocity": 0.1732283464566929,
                    "duration": 1.2327920000000177
                },
                {
                    "name": "F3",
                    "midi": 53,
                    "time": 505.4447199999921,
                    "velocity": 0.14173228346456693,
                    "duration": 1.2327919999999608
                },
                {
                    "name": "G#3",
                    "midi": 56,
                    "time": 505.4447199999921,
                    "velocity": 0.14173228346456693,
                    "duration": 1.2327919999999608
                },
                {
                    "name": "C#4",
                    "midi": 61,
                    "time": 505.4447199999921,
                    "velocity": 0.1732283464566929,
                    "duration": 1.2327919999999608
                },
                {
                    "name": "G#1",
                    "midi": 32,
                    "time": 506.0611159999921,
                    "velocity": 0.14173228346456693,
                    "duration": 0.15409899999997378
                },
                {
                    "name": "C#2",
                    "midi": 37,
                    "time": 506.6775119999921,
                    "velocity": 0.14960629921259844,
                    "duration": 3.698375999999996
                },
                {
                    "name": "F3",
                    "midi": 53,
                    "time": 506.6775119999921,
                    "velocity": 0.14173228346456693,
                    "duration": 3.698375999999996
                },
                {
                    "name": "G#3",
                    "midi": 56,
                    "time": 506.6775119999921,
                    "velocity": 0.14173228346456693,
                    "duration": 3.698375999999996
                },
                {
                    "name": "C#4",
                    "midi": 61,
                    "time": 506.6775119999921,
                    "velocity": 0.1732283464566929,
                    "duration": 3.698375999999996
                }
            ],
            "controlChanges": {
                "7": [
                    {
                        "number": 7,
                        "time": 0,
                        "value": 0.7874015748031497
                    }
                ],
                "10": [
                    {
                        "number": 10,
                        "time": 0,
                        "value": 0.5039370078740157
                    }
                ],
                "64": [
                    {
                        "number": 64,
                        "time": 0.03595643333333333,
                        "value": 1
                    },
                    {
                        "number": 64,
                        "time": 2.5272235999999997,
                        "value": 0
                    },
                    {
                        "number": 64,
                        "time": 2.609409733333333,
                        "value": 1
                    },
                    {
                        "number": 64,
                        "time": 3.7702888666666663,
                        "value": 0
                    },
                    {
                        "number": 64,
                        "time": 3.888431433333333,
                        "value": 1
                    },
                    {
                        "number": 64,
                        "time": 6.199916433333333,
                        "value": 0
                    },
                    {
                        "number": 64,
                        "time": 6.346310483333332,
                        "value": 1
                    },
                    {
                        "number": 64,
                        "time": 7.468664866666666,
                        "value": 0
                    },
                    {
                        "number": 64,
                        "time": 7.586807433333332,
                        "value": 1
                    },
                    {
                        "number": 64,
                        "time": 9.898292433333332,
                        "value": 0
                    },
                    {
                        "number": 64,
                        "time": 10.006161733333332,
                        "value": 1
                    },
                    {
                        "number": 64,
                        "time": 11.095127999999999,
                        "value": 0
                    },
                    {
                        "number": 64,
                        "time": 11.231248783333331,
                        "value": 1
                    },
                    {
                        "number": 64,
                        "time": 13.632624866666664,
                        "value": 0
                    },
                    {
                        "number": 64,
                        "time": 13.70453773333333,
                        "value": 1
                    },
                    {
                        "number": 64,
                        "time": 14.865416866666664,
                        "value": 0
                    },
                    {
                        "number": 64,
                        "time": 14.98355943333333,
                        "value": 1
                    },
                    {
                        "number": 64,
                        "time": 17.29504443333333,
                        "value": 0
                    },
                    {
                        "number": 64,
                        "time": 17.40291373333333,
                        "value": 1
                    },
                    {
                        "number": 64,
                        "time": 18.563792866666667,
                        "value": 0
                    },
                    {
                        "number": 64,
                        "time": 18.681935433333333,
                        "value": 1
                    },
                    {
                        "number": 64,
                        "time": 20.993420433333334,
                        "value": 0
                    },
                    {
                        "number": 64,
                        "time": 21.101289733333335,
                        "value": 1
                    },
                    {
                        "number": 64,
                        "time": 22.26216886666667,
                        "value": 0
                    },
                    {
                        "number": 64,
                        "time": 22.380311433333336,
                        "value": 1
                    },
                    {
                        "number": 64,
                        "time": 24.691796433333337,
                        "value": 0
                    },
                    {
                        "number": 64,
                        "time": 24.799665733333338,
                        "value": 1
                    },
                    {
                        "number": 64,
                        "time": 25.960544866666673,
                        "value": 0
                    },
                    {
                        "number": 64,
                        "time": 26.07868743333334,
                        "value": 1
                    },
                    {
                        "number": 64,
                        "time": 28.39017243333334,
                        "value": 0
                    },
                    {
                        "number": 64,
                        "time": 28.49804173333334,
                        "value": 1
                    },
                    {
                        "number": 64,
                        "time": 29.658920866666676,
                        "value": 0
                    },
                    {
                        "number": 64,
                        "time": 29.777063433333343,
                        "value": 1
                    },
                    {
                        "number": 64,
                        "time": 30.86602970000001,
                        "value": 0
                    },
                    {
                        "number": 64,
                        "time": 31.00215048333334,
                        "value": 1
                    },
                    {
                        "number": 64,
                        "time": 33.35729686666667,
                        "value": 0
                    },
                    {
                        "number": 64,
                        "time": 33.47543943333334,
                        "value": 1
                    },
                    {
                        "number": 64,
                        "time": 34.51817600000001,
                        "value": 0
                    },
                    {
                        "number": 64,
                        "time": 34.610635400000014,
                        "value": 1
                    },
                    {
                        "number": 64,
                        "time": 37.055672866666676,
                        "value": 0
                    },
                    {
                        "number": 64,
                        "time": 37.173815433333345,
                        "value": 1
                    },
                    {
                        "number": 64,
                        "time": 38.20884705000001,
                        "value": 0
                    },
                    {
                        "number": 64,
                        "time": 38.30901140000001,
                        "value": 1
                    },
                    {
                        "number": 64,
                        "time": 40.75404886666667,
                        "value": 0
                    },
                    {
                        "number": 64,
                        "time": 40.87219143333334,
                        "value": 1
                    },
                    {
                        "number": 64,
                        "time": 41.93290621666668,
                        "value": 0
                    },
                    {
                        "number": 64,
                        "time": 42.08700521666668,
                        "value": 1
                    },
                    {
                        "number": 64,
                        "time": 48.07888800000002,
                        "value": 0
                    },
                    {
                        "number": 64,
                        "time": 48.268943433333355,
                        "value": 1
                    },
                    {
                        "number": 64,
                        "time": 50.58042843333336,
                        "value": 0
                    },
                    {
                        "number": 64,
                        "time": 50.68829773333336,
                        "value": 1
                    },
                    {
                        "number": 64,
                        "time": 51.777264000000024,
                        "value": 0
                    },
                    {
                        "number": 64,
                        "time": 51.96731943333336,
                        "value": 1
                    },
                    {
                        "number": 64,
                        "time": 53.0280342166667,
                        "value": 0
                    },
                    {
                        "number": 64,
                        "time": 53.13847183333336,
                        "value": 1
                    },
                    {
                        "number": 64,
                        "time": 55.48077663333336,
                        "value": 0
                    },
                    {
                        "number": 64,
                        "time": 55.66569543333336,
                        "value": 1
                    },
                    {
                        "number": 64,
                        "time": 56.74438843333336,
                        "value": 0
                    },
                    {
                        "number": 64,
                        "time": 56.836847833333366,
                        "value": 1
                    },
                    {
                        "number": 64,
                        "time": 58.60384970000003,
                        "value": 0
                    },
                    {
                        "number": 64,
                        "time": 59.263907083333365,
                        "value": 1
                    },
                    {
                        "number": 64,
                        "time": 62.8826652666667,
                        "value": 0
                    },
                    {
                        "number": 64,
                        "time": 63.054742483333364,
                        "value": 1
                    },
                    {
                        "number": 64,
                        "time": 65.40988886666668,
                        "value": 0
                    },
                    {
                        "number": 64,
                        "time": 65.48180173333334,
                        "value": 1
                    },
                    {
                        "number": 64,
                        "time": 66.64268086666668,
                        "value": 0
                    },
                    {
                        "number": 64,
                        "time": 66.76082343333334,
                        "value": 1
                    },
                    {
                        "number": 64,
                        "time": 69.07230843333335,
                        "value": 0
                    },
                    {
                        "number": 64,
                        "time": 69.21870248333335,
                        "value": 1
                    },
                    {
                        "number": 64,
                        "time": 70.34105686666668,
                        "value": 0
                    },
                    {
                        "number": 64,
                        "time": 70.45919943333334,
                        "value": 1
                    },
                    {
                        "number": 64,
                        "time": 72.77068443333334,
                        "value": 0
                    },
                    {
                        "number": 64,
                        "time": 72.87855373333335,
                        "value": 1
                    },
                    {
                        "number": 64,
                        "time": 73.96752000000001,
                        "value": 0
                    },
                    {
                        "number": 64,
                        "time": 74.10364078333335,
                        "value": 1
                    },
                    {
                        "number": 64,
                        "time": 76.5050168666667,
                        "value": 0
                    },
                    {
                        "number": 64,
                        "time": 76.57692973333336,
                        "value": 1
                    },
                    {
                        "number": 64,
                        "time": 77.7378088666667,
                        "value": 0
                    },
                    {
                        "number": 64,
                        "time": 77.85595143333336,
                        "value": 1
                    },
                    {
                        "number": 64,
                        "time": 80.16743643333336,
                        "value": 0
                    },
                    {
                        "number": 64,
                        "time": 80.27530573333337,
                        "value": 1
                    },
                    {
                        "number": 64,
                        "time": 81.4361848666667,
                        "value": 0
                    },
                    {
                        "number": 64,
                        "time": 81.55432743333336,
                        "value": 1
                    },
                    {
                        "number": 64,
                        "time": 83.86581243333336,
                        "value": 0
                    },
                    {
                        "number": 64,
                        "time": 83.97368173333336,
                        "value": 1
                    },
                    {
                        "number": 64,
                        "time": 85.13456086666669,
                        "value": 0
                    },
                    {
                        "number": 64,
                        "time": 85.25270343333335,
                        "value": 1
                    },
                    {
                        "number": 64,
                        "time": 87.56418843333336,
                        "value": 0
                    },
                    {
                        "number": 64,
                        "time": 87.67205773333336,
                        "value": 1
                    },
                    {
                        "number": 64,
                        "time": 88.83293686666669,
                        "value": 0
                    },
                    {
                        "number": 64,
                        "time": 88.95107943333335,
                        "value": 1
                    },
                    {
                        "number": 64,
                        "time": 91.26256443333335,
                        "value": 0
                    },
                    {
                        "number": 64,
                        "time": 91.37043373333336,
                        "value": 1
                    },
                    {
                        "number": 64,
                        "time": 92.53131286666668,
                        "value": 0
                    },
                    {
                        "number": 64,
                        "time": 92.64945543333334,
                        "value": 1
                    },
                    {
                        "number": 64,
                        "time": 93.71017021666668,
                        "value": 0
                    },
                    {
                        "number": 64,
                        "time": 93.82060783333336,
                        "value": 1
                    },
                    {
                        "number": 64,
                        "time": 96.22968886666669,
                        "value": 0
                    },
                    {
                        "number": 64,
                        "time": 96.34783143333335,
                        "value": 1
                    },
                    {
                        "number": 64,
                        "time": 97.40854621666669,
                        "value": 0
                    },
                    {
                        "number": 64,
                        "time": 97.52668878333336,
                        "value": 1
                    },
                    {
                        "number": 64,
                        "time": 99.92806486666669,
                        "value": 0
                    },
                    {
                        "number": 64,
                        "time": 100.04620743333335,
                        "value": 1
                    },
                    {
                        "number": 64,
                        "time": 101.11205885000003,
                        "value": 0
                    },
                    {
                        "number": 64,
                        "time": 101.26102121666669,
                        "value": 1
                    },
                    {
                        "number": 64,
                        "time": 107.25290400000002,
                        "value": 0
                    },
                    {
                        "number": 64,
                        "time": 107.44295943333334,
                        "value": 1
                    },
                    {
                        "number": 64,
                        "time": 110.96155326666668,
                        "value": 0
                    },
                    {
                        "number": 64,
                        "time": 111.14133543333335,
                        "value": 1
                    },
                    {
                        "number": 64,
                        "time": 114.66763421666668,
                        "value": 0
                    },
                    {
                        "number": 64,
                        "time": 114.83971143333335,
                        "value": 1
                    },
                    {
                        "number": 64,
                        "time": 117.15119643333335,
                        "value": 0
                    },
                    {
                        "number": 64,
                        "time": 117.25906573333336,
                        "value": 1
                    },
                    {
                        "number": 64,
                        "time": 118.34803200000002,
                        "value": 0
                    },
                    {
                        "number": 64,
                        "time": 118.43792308333335,
                        "value": 1
                    },
                    {
                        "number": 64,
                        "time": 122.04640800000001,
                        "value": 0
                    },
                    {
                        "number": 64,
                        "time": 122.13629908333334,
                        "value": 1
                    },
                    {
                        "number": 64,
                        "time": 125.74478400000001,
                        "value": 0
                    },
                    {
                        "number": 64,
                        "time": 125.90401963333335,
                        "value": 1
                    },
                    {
                        "number": 64,
                        "time": 129.44316,
                        "value": 0
                    },
                    {
                        "number": 64,
                        "time": 129.597259,
                        "value": 1
                    },
                    {
                        "number": 64,
                        "time": 133.1569459,
                        "value": 0
                    },
                    {
                        "number": 64,
                        "time": 133.50366865,
                        "value": 1
                    },
                    {
                        "number": 64,
                        "time": 136.83991200000003,
                        "value": 0
                    },
                    {
                        "number": 64,
                        "time": 136.92980308333335,
                        "value": 1
                    },
                    {
                        "number": 64,
                        "time": 140.53828800000002,
                        "value": 0
                    },
                    {
                        "number": 64,
                        "time": 140.62817908333335,
                        "value": 1
                    },
                    {
                        "number": 64,
                        "time": 144.23666400000002,
                        "value": 0
                    },
                    {
                        "number": 64,
                        "time": 144.32655508333335,
                        "value": 1
                    },
                    {
                        "number": 64,
                        "time": 147.95558653333336,
                        "value": 0
                    },
                    {
                        "number": 64,
                        "time": 148.44356670000002,
                        "value": 1
                    },
                    {
                        "number": 64,
                        "time": 154.7513524333334,
                        "value": 0
                    },
                    {
                        "number": 64,
                        "time": 155.36004348333338,
                        "value": 1
                    },
                    {
                        "number": 64,
                        "time": 155.74015435000007,
                        "value": 0
                    },
                    {
                        "number": 64,
                        "time": 156.68272656666676,
                        "value": 1
                    },
                    {
                        "number": 64,
                        "time": 156.9087384333334,
                        "value": 0
                    },
                    {
                        "number": 64,
                        "time": 157.8975403500001,
                        "value": 1
                    },
                    {
                        "number": 64,
                        "time": 158.1595086500001,
                        "value": 0
                    },
                    {
                        "number": 64,
                        "time": 159.17656205000011,
                        "value": 1
                    },
                    {
                        "number": 64,
                        "time": 159.4565085666668,
                        "value": 0
                    },
                    {
                        "number": 64,
                        "time": 161.56766486666683,
                        "value": 1
                    },
                    {
                        "number": 64,
                        "time": 161.85788465000016,
                        "value": 0
                    },
                    {
                        "number": 64,
                        "time": 162.92887270000017,
                        "value": 1
                    },
                    {
                        "number": 64,
                        "time": 163.23707070000017,
                        "value": 0
                    },
                    {
                        "number": 64,
                        "time": 164.81401713333352,
                        "value": 1
                    },
                    {
                        "number": 64,
                        "time": 165.2326527500002,
                        "value": 0
                    },
                    {
                        "number": 64,
                        "time": 165.43041313333353,
                        "value": 1
                    },
                    {
                        "number": 64,
                        "time": 166.42692000000022,
                        "value": 0
                    },
                    {
                        "number": 64,
                        "time": 166.57074573333355,
                        "value": 1
                    },
                    {
                        "number": 64,
                        "time": 167.69566843333357,
                        "value": 0
                    },
                    {
                        "number": 64,
                        "time": 170.32562470000028,
                        "value": 1
                    },
                    {
                        "number": 64,
                        "time": 170.74169200000028,
                        "value": 0
                    },
                    {
                        "number": 64,
                        "time": 171.49420878333362,
                        "value": 1
                    },
                    {
                        "number": 64,
                        "time": 171.80240678333362,
                        "value": 0
                    },
                    {
                        "number": 64,
                        "time": 172.67306613333363,
                        "value": 1
                    },
                    {
                        "number": 64,
                        "time": 172.9530126500003,
                        "value": 0
                    },
                    {
                        "number": 64,
                        "time": 173.9700660500003,
                        "value": 1
                    },
                    {
                        "number": 64,
                        "time": 174.26799078333363,
                        "value": 0
                    },
                    {
                        "number": 64,
                        "time": 176.34832728333367,
                        "value": 1
                    },
                    {
                        "number": 64,
                        "time": 176.94417675000034,
                        "value": 0
                    },
                    {
                        "number": 64,
                        "time": 177.023794566667,
                        "value": 1
                    },
                    {
                        "number": 64,
                        "time": 177.5220480000003,
                        "value": 0
                    },
                    {
                        "number": 64,
                        "time": 177.7223767000003,
                        "value": 1
                    },
                    {
                        "number": 64,
                        "time": 177.97920836666697,
                        "value": 0
                    },
                    {
                        "number": 64,
                        "time": 178.919212266667,
                        "value": 1
                    },
                    {
                        "number": 64,
                        "time": 179.41232906666698,
                        "value": 0
                    },
                    {
                        "number": 64,
                        "time": 179.60752113333365,
                        "value": 1
                    },
                    {
                        "number": 64,
                        "time": 180.02615675000033,
                        "value": 0
                    },
                    {
                        "number": 64,
                        "time": 180.22391713333366,
                        "value": 1
                    },
                    {
                        "number": 64,
                        "time": 181.22042400000035,
                        "value": 0
                    },
                    {
                        "number": 64,
                        "time": 181.36424973333368,
                        "value": 1
                    },
                    {
                        "number": 64,
                        "time": 182.45321600000037,
                        "value": 0
                    },
                    {
                        "number": 64,
                        "time": 185.01896435000037,
                        "value": 1
                    },
                    {
                        "number": 64,
                        "time": 187.44088696666708,
                        "value": 0
                    },
                    {
                        "number": 64,
                        "time": 187.6386473500004,
                        "value": 1
                    },
                    {
                        "number": 64,
                        "time": 188.61717600000043,
                        "value": 0
                    },
                    {
                        "number": 64,
                        "time": 188.76357005000042,
                        "value": 1
                    },
                    {
                        "number": 64,
                        "time": 189.90647096666711,
                        "value": 0
                    },
                    {
                        "number": 64,
                        "time": 190.14275610000044,
                        "value": 1
                    },
                    {
                        "number": 64,
                        "time": 192.31555200000048,
                        "value": 0
                    },
                    {
                        "number": 64,
                        "time": 192.51588070000048,
                        "value": 1
                    },
                    {
                        "number": 64,
                        "time": 193.56632221666717,
                        "value": 0
                    },
                    {
                        "number": 64,
                        "time": 193.71271626666717,
                        "value": 1
                    },
                    {
                        "number": 64,
                        "time": 194.2032647500005,
                        "value": 0
                    },
                    {
                        "number": 64,
                        "time": 194.40102513333383,
                        "value": 1
                    },
                    {
                        "number": 64,
                        "time": 194.81966075000048,
                        "value": 0
                    },
                    {
                        "number": 64,
                        "time": 195.0174211333338,
                        "value": 1
                    },
                    {
                        "number": 64,
                        "time": 196.01392800000048,
                        "value": 0
                    },
                    {
                        "number": 64,
                        "time": 196.1577537333338,
                        "value": 1
                    },
                    {
                        "number": 64,
                        "time": 197.82715956666718,
                        "value": 0
                    },
                    {
                        "number": 64,
                        "time": 197.89907243333383,
                        "value": 1
                    },
                    {
                        "number": 64,
                        "time": 198.49749021666716,
                        "value": 0
                    },
                    {
                        "number": 64,
                        "time": 198.56940308333384,
                        "value": 1
                    },
                    {
                        "number": 64,
                        "time": 199.17809413333384,
                        "value": 0
                    },
                    {
                        "number": 64,
                        "time": 199.23202878333385,
                        "value": 1
                    },
                    {
                        "number": 64,
                        "time": 199.73028221666718,
                        "value": 0
                    },
                    {
                        "number": 64,
                        "time": 199.8664030000005,
                        "value": 1
                    },
                    {
                        "number": 64,
                        "time": 202.2343909666672,
                        "value": 0
                    },
                    {
                        "number": 64,
                        "time": 202.43215135000054,
                        "value": 1
                    },
                    {
                        "number": 64,
                        "time": 203.41068000000055,
                        "value": 0
                    },
                    {
                        "number": 64,
                        "time": 203.55707405000055,
                        "value": 1
                    },
                    {
                        "number": 64,
                        "time": 204.70511160000058,
                        "value": 0
                    },
                    {
                        "number": 64,
                        "time": 204.93626010000057,
                        "value": 1
                    },
                    {
                        "number": 64,
                        "time": 207.1090560000006,
                        "value": 0
                    },
                    {
                        "number": 64,
                        "time": 207.3093847000006,
                        "value": 1
                    },
                    {
                        "number": 64,
                        "time": 208.3598262166673,
                        "value": 0
                    },
                    {
                        "number": 64,
                        "time": 208.5062202666673,
                        "value": 1
                    },
                    {
                        "number": 64,
                        "time": 208.99676875000063,
                        "value": 0
                    },
                    {
                        "number": 64,
                        "time": 209.19452913333396,
                        "value": 1
                    },
                    {
                        "number": 64,
                        "time": 209.6131647500006,
                        "value": 0
                    },
                    {
                        "number": 64,
                        "time": 209.81092513333394,
                        "value": 1
                    },
                    {
                        "number": 64,
                        "time": 210.8074320000006,
                        "value": 0
                    },
                    {
                        "number": 64,
                        "time": 210.95125773333393,
                        "value": 1
                    },
                    {
                        "number": 64,
                        "time": 212.32017051666728,
                        "value": 0
                    },
                    {
                        "number": 64,
                        "time": 214.70613670000063,
                        "value": 1
                    },
                    {
                        "number": 64,
                        "time": 214.95012678333396,
                        "value": 0
                    },
                    {
                        "number": 64,
                        "time": 215.80280791666732,
                        "value": 1
                    },
                    {
                        "number": 64,
                        "time": 216.15466730000065,
                        "value": 0
                    },
                    {
                        "number": 64,
                        "time": 217.07926130000067,
                        "value": 1
                    },
                    {
                        "number": 64,
                        "time": 217.369481083334,
                        "value": 0
                    },
                    {
                        "number": 64,
                        "time": 218.25041370000068,
                        "value": 1
                    },
                    {
                        "number": 64,
                        "time": 218.68445921666736,
                        "value": 0
                    },
                    {
                        "number": 64,
                        "time": 219.57309678333402,
                        "value": 1
                    },
                    {
                        "number": 64,
                        "time": 219.91725121666735,
                        "value": 0
                    },
                    {
                        "number": 64,
                        "time": 220.72883928333403,
                        "value": 1
                    },
                    {
                        "number": 64,
                        "time": 221.36064518333404,
                        "value": 0
                    },
                    {
                        "number": 64,
                        "time": 221.40430656666737,
                        "value": 1
                    },
                    {
                        "number": 64,
                        "time": 221.90256000000068,
                        "value": 0
                    },
                    {
                        "number": 64,
                        "time": 222.10288870000068,
                        "value": 1
                    },
                    {
                        "number": 64,
                        "time": 223.19442328333403,
                        "value": 0
                    },
                    {
                        "number": 64,
                        "time": 223.29972426666737,
                        "value": 1
                    },
                    {
                        "number": 64,
                        "time": 223.79284106666736,
                        "value": 0
                    },
                    {
                        "number": 64,
                        "time": 223.98803313333403,
                        "value": 1
                    },
                    {
                        "number": 64,
                        "time": 224.4066687500007,
                        "value": 0
                    },
                    {
                        "number": 64,
                        "time": 224.60442913333404,
                        "value": 1
                    },
                    {
                        "number": 64,
                        "time": 225.60093600000073,
                        "value": 0
                    },
                    {
                        "number": 64,
                        "time": 225.74476173333406,
                        "value": 1
                    },
                    {
                        "number": 64,
                        "time": 226.83372800000075,
                        "value": 0
                    },
                    {
                        "number": 64,
                        "time": 229.32756348333405,
                        "value": 1
                    },
                    {
                        "number": 64,
                        "time": 229.67171791666738,
                        "value": 0
                    },
                    {
                        "number": 64,
                        "time": 230.6040168666674,
                        "value": 1
                    },
                    {
                        "number": 64,
                        "time": 230.94817130000072,
                        "value": 0
                    },
                    {
                        "number": 64,
                        "time": 231.84708213333406,
                        "value": 1
                    },
                    {
                        "number": 64,
                        "time": 232.19894151666736,
                        "value": 0
                    },
                    {
                        "number": 64,
                        "time": 233.0130979000007,
                        "value": 1
                    },
                    {
                        "number": 64,
                        "time": 233.34954738333403,
                        "value": 0
                    },
                    {
                        "number": 64,
                        "time": 234.87255916666732,
                        "value": 1
                    },
                    {
                        "number": 64,
                        "time": 235.49666011666727,
                        "value": 0
                    },
                    {
                        "number": 64,
                        "time": 235.58141456666726,
                        "value": 1
                    },
                    {
                        "number": 64,
                        "time": 236.12846601666726,
                        "value": 0
                    },
                    {
                        "number": 64,
                        "time": 236.19781056666727,
                        "value": 1
                    },
                    {
                        "number": 64,
                        "time": 236.69606400000058,
                        "value": 0
                    },
                    {
                        "number": 64,
                        "time": 236.79879666666724,
                        "value": 1
                    },
                    {
                        "number": 64,
                        "time": 237.0479233833339,
                        "value": 0
                    },
                    {
                        "number": 64,
                        "time": 238.00847381666725,
                        "value": 1
                    },
                    {
                        "number": 64,
                        "time": 238.2961252833339,
                        "value": 0
                    },
                    {
                        "number": 64,
                        "time": 239.26438066666725,
                        "value": 1
                    },
                    {
                        "number": 64,
                        "time": 239.57257866666725,
                        "value": 0
                    },
                    {
                        "number": 64,
                        "time": 244.09281600000065,
                        "value": 0
                    },
                    {
                        "number": 64,
                        "time": 244.2186635166673,
                        "value": 1
                    },
                    {
                        "number": 64,
                        "time": 244.59106943333396,
                        "value": 0
                    },
                    {
                        "number": 64,
                        "time": 245.37954265000064,
                        "value": 1
                    },
                    {
                        "number": 64,
                        "time": 245.66976243333397,
                        "value": 0
                    },
                    {
                        "number": 64,
                        "time": 246.79468513333399,
                        "value": 1
                    },
                    {
                        "number": 64,
                        "time": 247.79119200000068,
                        "value": 0
                    },
                    {
                        "number": 64,
                        "time": 247.99152070000068,
                        "value": 1
                    },
                    {
                        "number": 64,
                        "time": 248.42556621666736,
                        "value": 0
                    },
                    {
                        "number": 64,
                        "time": 249.16010478333402,
                        "value": 1
                    },
                    {
                        "number": 64,
                        "time": 249.4400513000007,
                        "value": 0
                    },
                    {
                        "number": 64,
                        "time": 250.3569403500007,
                        "value": 1
                    },
                    {
                        "number": 64,
                        "time": 250.6831165666674,
                        "value": 0
                    },
                    {
                        "number": 64,
                        "time": 251.63596205000073,
                        "value": 1
                    },
                    {
                        "number": 64,
                        "time": 251.95186500000074,
                        "value": 0
                    },
                    {
                        "number": 64,
                        "time": 255.25215191666746,
                        "value": 1
                    },
                    {
                        "number": 64,
                        "time": 255.62198951666744,
                        "value": 0
                    },
                    {
                        "number": 64,
                        "time": 257.88981313333386,
                        "value": 1
                    },
                    {
                        "number": 64,
                        "time": 258.8863200000005,
                        "value": 0
                    },
                    {
                        "number": 64,
                        "time": 259.0301457333339,
                        "value": 1
                    },
                    {
                        "number": 64,
                        "time": 260.14222685000055,
                        "value": 0
                    },
                    {
                        "number": 64,
                        "time": 262.62065243333353,
                        "value": 1
                    },
                    {
                        "number": 64,
                        "time": 262.9442603333335,
                        "value": 0
                    },
                    {
                        "number": 64,
                        "time": 263.88426423333334,
                        "value": 1
                    },
                    {
                        "number": 64,
                        "time": 264.19246223333334,
                        "value": 0
                    },
                    {
                        "number": 64,
                        "time": 265.1093512833332,
                        "value": 1
                    },
                    {
                        "number": 64,
                        "time": 265.4175492833332,
                        "value": 0
                    },
                    {
                        "number": 64,
                        "time": 266.29848189999973,
                        "value": 1
                    },
                    {
                        "number": 64,
                        "time": 266.61438484999974,
                        "value": 0
                    },
                    {
                        "number": 64,
                        "time": 267.6185966666663,
                        "value": 1
                    },
                    {
                        "number": 64,
                        "time": 267.9781609999996,
                        "value": 0
                    },
                    {
                        "number": 64,
                        "time": 268.8077272833328,
                        "value": 1
                    },
                    {
                        "number": 64,
                        "time": 269.4138500166662,
                        "value": 0
                    },
                    {
                        "number": 64,
                        "time": 269.48319456666616,
                        "value": 1
                    },
                    {
                        "number": 64,
                        "time": 269.9814479999995,
                        "value": 0
                    },
                    {
                        "number": 64,
                        "time": 270.0636341333328,
                        "value": 1
                    },
                    {
                        "number": 64,
                        "time": 270.43347173333285,
                        "value": 0
                    },
                    {
                        "number": 64,
                        "time": 271.37861226666604,
                        "value": 1
                    },
                    {
                        "number": 64,
                        "time": 271.8717290666661,
                        "value": 0
                    },
                    {
                        "number": 64,
                        "time": 272.06692113333276,
                        "value": 1
                    },
                    {
                        "number": 64,
                        "time": 272.53692308333274,
                        "value": 0
                    },
                    {
                        "number": 64,
                        "time": 272.68331713333276,
                        "value": 1
                    },
                    {
                        "number": 64,
                        "time": 273.6798239999994,
                        "value": 0
                    },
                    {
                        "number": 64,
                        "time": 273.8236497333328,
                        "value": 1
                    },
                    {
                        "number": 64,
                        "time": 274.91261599999945,
                        "value": 0
                    },
                    {
                        "number": 64,
                        "time": 277.38847326666576,
                        "value": 1
                    },
                    {
                        "number": 64,
                        "time": 279.90028696666576,
                        "value": 0
                    },
                    {
                        "number": 64,
                        "time": 280.0980473499991,
                        "value": 1
                    },
                    {
                        "number": 64,
                        "time": 281.0765759999991,
                        "value": 0
                    },
                    {
                        "number": 64,
                        "time": 281.2229700499991,
                        "value": 1
                    },
                    {
                        "number": 64,
                        "time": 282.3710075999991,
                        "value": 0
                    },
                    {
                        "number": 64,
                        "time": 282.6021560999991,
                        "value": 1
                    },
                    {
                        "number": 64,
                        "time": 283.5601382166658,
                        "value": 0
                    },
                    {
                        "number": 64,
                        "time": 283.7501936499991,
                        "value": 1
                    },
                    {
                        "number": 64,
                        "time": 284.77495199999913,
                        "value": 0
                    },
                    {
                        "number": 64,
                        "time": 284.97528069999913,
                        "value": 1
                    },
                    {
                        "number": 64,
                        "time": 286.02572221666577,
                        "value": 0
                    },
                    {
                        "number": 64,
                        "time": 286.1721162666658,
                        "value": 1
                    },
                    {
                        "number": 64,
                        "time": 286.6626647499991,
                        "value": 0
                    },
                    {
                        "number": 64,
                        "time": 286.86042513333246,
                        "value": 1
                    },
                    {
                        "number": 64,
                        "time": 287.27906074999913,
                        "value": 0
                    },
                    {
                        "number": 64,
                        "time": 287.47682113333246,
                        "value": 1
                    },
                    {
                        "number": 64,
                        "time": 288.4733279999991,
                        "value": 0
                    },
                    {
                        "number": 64,
                        "time": 288.6171537333325,
                        "value": 1
                    },
                    {
                        "number": 64,
                        "time": 289.72923484999916,
                        "value": 0
                    },
                    {
                        "number": 64,
                        "time": 289.8319675166658,
                        "value": 1
                    },
                    {
                        "number": 64,
                        "time": 292.19995548333236,
                        "value": 0
                    },
                    {
                        "number": 64,
                        "time": 292.302688149999,
                        "value": 1
                    },
                    {
                        "number": 64,
                        "time": 295.87007999999906,
                        "value": 0
                    },
                    {
                        "number": 64,
                        "time": 296.0164740499991,
                        "value": 1
                    },
                    {
                        "number": 64,
                        "time": 297.16451159999906,
                        "value": 0
                    },
                    {
                        "number": 64,
                        "time": 297.3956600999991,
                        "value": 1
                    },
                    {
                        "number": 64,
                        "time": 297.7346778999991,
                        "value": 0
                    },
                    {
                        "number": 64,
                        "time": 297.84511551666577,
                        "value": 1
                    },
                    {
                        "number": 64,
                        "time": 298.3510738999991,
                        "value": 0
                    },
                    {
                        "number": 64,
                        "time": 298.4692164666658,
                        "value": 1
                    },
                    {
                        "number": 64,
                        "time": 298.9854481166658,
                        "value": 0
                    },
                    {
                        "number": 64,
                        "time": 299.04708771666577,
                        "value": 1
                    },
                    {
                        "number": 64,
                        "time": 299.5684559999991,
                        "value": 0
                    },
                    {
                        "number": 64,
                        "time": 299.7687846999991,
                        "value": 1
                    },
                    {
                        "number": 64,
                        "time": 302.1239310833325,
                        "value": 0
                    },
                    {
                        "number": 64,
                        "time": 302.2703251333325,
                        "value": 1
                    },
                    {
                        "number": 64,
                        "time": 303.26683199999917,
                        "value": 0
                    },
                    {
                        "number": 64,
                        "time": 303.4106577333325,
                        "value": 1
                    },
                    {
                        "number": 64,
                        "time": 306.96520799999905,
                        "value": 0
                    },
                    {
                        "number": 64,
                        "time": 307.1090337333324,
                        "value": 1
                    },
                    {
                        "number": 64,
                        "time": 309.4667484333324,
                        "value": 0
                    },
                    {
                        "number": 64,
                        "time": 309.67735039999906,
                        "value": 1
                    },
                    {
                        "number": 64,
                        "time": 310.663583999999,
                        "value": 0
                    },
                    {
                        "number": 64,
                        "time": 310.80740973333235,
                        "value": 1
                    },
                    {
                        "number": 64,
                        "time": 314.3619599999989,
                        "value": 0
                    },
                    {
                        "number": 64,
                        "time": 314.50578573333223,
                        "value": 1
                    },
                    {
                        "number": 64,
                        "time": 316.8635004333322,
                        "value": 0
                    },
                    {
                        "number": 64,
                        "time": 317.0741023999989,
                        "value": 1
                    },
                    {
                        "number": 64,
                        "time": 318.0603359999988,
                        "value": 0
                    },
                    {
                        "number": 64,
                        "time": 318.20416173333217,
                        "value": 1
                    },
                    {
                        "number": 64,
                        "time": 321.7587119999987,
                        "value": 0
                    },
                    {
                        "number": 64,
                        "time": 321.90253773333205,
                        "value": 1
                    },
                    {
                        "number": 64,
                        "time": 324.2474108499987,
                        "value": 0
                    },
                    {
                        "number": 64,
                        "time": 324.3938048999987,
                        "value": 1
                    },
                    {
                        "number": 64,
                        "time": 325.45708799999863,
                        "value": 0
                    },
                    {
                        "number": 64,
                        "time": 329.191420433332,
                        "value": 1
                    },
                    {
                        "number": 64,
                        "time": 331.6929608666653,
                        "value": 0
                    },
                    {
                        "number": 64,
                        "time": 332.9719825666652,
                        "value": 1
                    },
                    {
                        "number": 64,
                        "time": 335.35538043333185,
                        "value": 0
                    },
                    {
                        "number": 64,
                        "time": 336.631833816665,
                        "value": 1
                    },
                    {
                        "number": 64,
                        "time": 339.05375643333167,
                        "value": 0
                    },
                    {
                        "number": 64,
                        "time": 340.3302098166648,
                        "value": 1
                    },
                    {
                        "number": 64,
                        "time": 342.78808886666485,
                        "value": 0
                    },
                    {
                        "number": 64,
                        "time": 344.0517006666647,
                        "value": 1
                    },
                    {
                        "number": 64,
                        "time": 346.4505084333314,
                        "value": 0
                    },
                    {
                        "number": 64,
                        "time": 347.73466676666453,
                        "value": 1
                    },
                    {
                        "number": 64,
                        "time": 350.1488844333312,
                        "value": 0
                    },
                    {
                        "number": 64,
                        "time": 351.412496233331,
                        "value": 1
                    },
                    {
                        "number": 64,
                        "time": 353.84726043333103,
                        "value": 0
                    },
                    {
                        "number": 64,
                        "time": 355.1519652999975,
                        "value": 1
                    },
                    {
                        "number": 64,
                        "time": 357.54563643333086,
                        "value": 0
                    },
                    {
                        "number": 64,
                        "time": 358.80154328333066,
                        "value": 1
                    },
                    {
                        "number": 64,
                        "time": 359.97526399999737,
                        "value": 0
                    },
                    {
                        "number": 64,
                        "time": 360.16018279999736,
                        "value": 1
                    },
                    {
                        "number": 64,
                        "time": 361.2440124333307,
                        "value": 0
                    },
                    {
                        "number": 64,
                        "time": 361.3518817333307,
                        "value": 1
                    },
                    {
                        "number": 64,
                        "time": 362.5127608666638,
                        "value": 0
                    },
                    {
                        "number": 64,
                        "time": 362.52817076666383,
                        "value": 1
                    },
                    {
                        "number": 64,
                        "time": 363.6890498999972,
                        "value": 0
                    },
                    {
                        "number": 64,
                        "time": 363.8200340499972,
                        "value": 1
                    },
                    {
                        "number": 64,
                        "time": 364.9423884333305,
                        "value": 0
                    },
                    {
                        "number": 64,
                        "time": 365.0502577333305,
                        "value": 1
                    },
                    {
                        "number": 64,
                        "time": 366.21113686666365,
                        "value": 0
                    },
                    {
                        "number": 64,
                        "time": 366.22654676666366,
                        "value": 1
                    },
                    {
                        "number": 64,
                        "time": 367.3899942166637,
                        "value": 0
                    },
                    {
                        "number": 64,
                        "time": 367.5055684666637,
                        "value": 1
                    },
                    {
                        "number": 64,
                        "time": 368.64076443333033,
                        "value": 0
                    },
                    {
                        "number": 64,
                        "time": 368.74863373333034,
                        "value": 1
                    },
                    {
                        "number": 64,
                        "time": 369.8375999999968,
                        "value": 0
                    },
                    {
                        "number": 64,
                        "time": 369.9172178166635,
                        "value": 1
                    },
                    {
                        "number": 64,
                        "time": 371.10891674999687,
                        "value": 0
                    },
                    {
                        "number": 64,
                        "time": 371.2399008999969,
                        "value": 1
                    },
                    {
                        "number": 64,
                        "time": 372.6396334833303,
                        "value": 0
                    },
                    {
                        "number": 64,
                        "time": 372.6858631833303,
                        "value": 1
                    },
                    {
                        "number": 64,
                        "time": 373.5359759999968,
                        "value": 0
                    },
                    {
                        "number": 64,
                        "time": 373.7902393499968,
                        "value": 1
                    },
                    {
                        "number": 64,
                        "time": 377.2343519999968,
                        "value": 0
                    },
                    {
                        "number": 64,
                        "time": 377.42440743333015,
                        "value": 1
                    },
                    {
                        "number": 64,
                        "time": 379.7358924333302,
                        "value": 0
                    },
                    {
                        "number": 64,
                        "time": 381.12278343333,
                        "value": 1
                    },
                    {
                        "number": 64,
                        "time": 383.4342684333301,
                        "value": 0
                    },
                    {
                        "number": 64,
                        "time": 384.8211594333299,
                        "value": 1
                    },
                    {
                        "number": 64,
                        "time": 387.13264443333,
                        "value": 0
                    },
                    {
                        "number": 64,
                        "time": 388.4193710833298,
                        "value": 1
                    },
                    {
                        "number": 64,
                        "time": 390.89009171666316,
                        "value": 0
                    },
                    {
                        "number": 64,
                        "time": 392.21020648332967,
                        "value": 1
                    },
                    {
                        "number": 64,
                        "time": 394.56535286666303,
                        "value": 0
                    },
                    {
                        "number": 64,
                        "time": 395.91628743332956,
                        "value": 1
                    },
                    {
                        "number": 64,
                        "time": 398.22777243332956,
                        "value": 0
                    },
                    {
                        "number": 64,
                        "time": 399.6146634333294,
                        "value": 1
                    },
                    {
                        "number": 64,
                        "time": 401.9261484333294,
                        "value": 0
                    },
                    {
                        "number": 64,
                        "time": 403.25910478332924,
                        "value": 1
                    },
                    {
                        "number": 64,
                        "time": 405.66048086666257,
                        "value": 0
                    },
                    {
                        "number": 64,
                        "time": 407.0037104833291,
                        "value": 1
                    },
                    {
                        "number": 64,
                        "time": 409.35885686666245,
                        "value": 0
                    },
                    {
                        "number": 64,
                        "time": 410.609627083329,
                        "value": 1
                    },
                    {
                        "number": 64,
                        "time": 413.021276433329,
                        "value": 0
                    },
                    {
                        "number": 64,
                        "time": 414.4081674333288,
                        "value": 1
                    },
                    {
                        "number": 64,
                        "time": 416.7196524333288,
                        "value": 0
                    },
                    {
                        "number": 64,
                        "time": 418.05260878332865,
                        "value": 1
                    },
                    {
                        "number": 64,
                        "time": 420.453984866662,
                        "value": 0
                    },
                    {
                        "number": 64,
                        "time": 421.68677686666183,
                        "value": 0
                    },
                    {
                        "number": 64,
                        "time": 421.8049194333285,
                        "value": 1
                    },
                    {
                        "number": 64,
                        "time": 424.1164044333285,
                        "value": 0
                    },
                    {
                        "number": 64,
                        "time": 425.50329543332833,
                        "value": 1
                    },
                    {
                        "number": 64,
                        "time": 427.81478043332834,
                        "value": 0
                    },
                    {
                        "number": 64,
                        "time": 429.10150708332816,
                        "value": 1
                    },
                    {
                        "number": 64,
                        "time": 431.7571465166615,
                        "value": 0
                    },
                    {
                        "number": 64,
                        "time": 432.87436426666136,
                        "value": 1
                    },
                    {
                        "number": 64,
                        "time": 435.9743224833281,
                        "value": 0
                    },
                    {
                        "number": 64,
                        "time": 436.50853234999477,
                        "value": 1
                    },
                    {
                        "number": 64,
                        "time": 438.9099084333281,
                        "value": 0
                    },
                    {
                        "number": 64,
                        "time": 440.20947666666126,
                        "value": 1
                    },
                    {
                        "number": 64,
                        "time": 442.608284433328,
                        "value": 0
                    },
                    {
                        "number": 64,
                        "time": 443.96692394999445,
                        "value": 1
                    },
                    {
                        "number": 64,
                        "time": 446.3066604333278,
                        "value": 0
                    },
                    {
                        "number": 64,
                        "time": 447.5933870833276,
                        "value": 1
                    },
                    {
                        "number": 64,
                        "time": 450.27727799999434,
                        "value": 0
                    },
                    {
                        "number": 64,
                        "time": 451.3919274333275,
                        "value": 1
                    },
                    {
                        "number": 64,
                        "time": 453.7034124333275,
                        "value": 0
                    },
                    {
                        "number": 64,
                        "time": 455.09030343332734,
                        "value": 1
                    },
                    {
                        "number": 64,
                        "time": 457.40178843332734,
                        "value": 0
                    },
                    {
                        "number": 64,
                        "time": 458.78867943332716,
                        "value": 1
                    },
                    {
                        "number": 64,
                        "time": 461.10016443332717,
                        "value": 0
                    },
                    {
                        "number": 64,
                        "time": 462.386891083327,
                        "value": 1
                    },
                    {
                        "number": 64,
                        "time": 465.0707819999937,
                        "value": 0
                    },
                    {
                        "number": 64,
                        "time": 465.99537599999354,
                        "value": 0
                    },
                    {
                        "number": 64,
                        "time": 466.08526708332687,
                        "value": 1
                    },
                    {
                        "number": 64,
                        "time": 468.72292829999355,
                        "value": 0
                    },
                    {
                        "number": 64,
                        "time": 469.78364308332675,
                        "value": 1
                    },
                    {
                        "number": 64,
                        "time": 472.4572607333268,
                        "value": 0
                    },
                    {
                        "number": 64,
                        "time": 473.48201908332663,
                        "value": 1
                    },
                    {
                        "number": 64,
                        "time": 476.10683871666,
                        "value": 0
                    },
                    {
                        "number": 64,
                        "time": 477.18039508332646,
                        "value": 1
                    },
                    {
                        "number": 64,
                        "time": 479.7820998666598,
                        "value": 0
                    },
                    {
                        "number": 64,
                        "time": 480.78887999999296,
                        "value": 0
                    },
                    {
                        "number": 64,
                        "time": 480.8787710833263,
                        "value": 1
                    },
                    {
                        "number": 64,
                        "time": 483.51643229999297,
                        "value": 0
                    },
                    {
                        "number": 64,
                        "time": 484.57714708332617,
                        "value": 1
                    },
                    {
                        "number": 64,
                        "time": 487.2507647333262,
                        "value": 0
                    },
                    {
                        "number": 64,
                        "time": 488.27552308332605,
                        "value": 1
                    },
                    {
                        "number": 64,
                        "time": 490.90034271665945,
                        "value": 0
                    },
                    {
                        "number": 64,
                        "time": 491.97389908332593,
                        "value": 1
                    },
                    {
                        "number": 64,
                        "time": 494.57560386665926,
                        "value": 0
                    },
                    {
                        "number": 64,
                        "time": 495.67227508332576,
                        "value": 1
                    },
                    {
                        "number": 64,
                        "time": 498.2739798666591,
                        "value": 0
                    },
                    {
                        "number": 64,
                        "time": 499.3706510833256,
                        "value": 1
                    },
                    {
                        "number": 64,
                        "time": 501.9723558666589,
                        "value": 0
                    },
                    {
                        "number": 64,
                        "time": 503.0870052999921,
                        "value": 1
                    },
                    {
                        "number": 64,
                        "time": 513.388523449992,
                        "value": 0
                    }
                ]
            },
            "id": 2,
            "name": "Piano left",
            "instrumentNumber": 1,
            "instrument": "bright acoustic piano",
            "instrumentFamily": "piano",
            "channelNumber": 0,
            "isPercussion": false
        },
        {
            "startTime": 0,
            "duration": 0,
            "length": 0,
            "notes": [],
            "controlChanges": {},
            "id": 3,
            "name": "Schubert Sonate D960  2. Satz"
        },
        {
            "startTime": 0,
            "duration": 0,
            "length": 0,
            "notes": [],
            "controlChanges": {},
            "id": 4,
            "name": "Copyright  2002 by Bernd Krger"
        },
        {
            "startTime": 0,
            "duration": 0,
            "length": 0,
            "notes": [],
            "controlChanges": {},
            "id": 5,
            "name": "http://www.piano-midi.de"
        },
        {
            "startTime": 0,
            "duration": 0,
            "length": 0,
            "notes": [],
            "controlChanges": {},
            "id": 6,
            "name": "Edition: 2014-03-24"
        },
        {
            "startTime": 0,
            "duration": 0,
            "length": 0,
            "notes": [],
            "controlChanges": {},
            "id": 7,
            "name": "Spur 7"
        },
        {
            "startTime": 0,
            "duration": 0,
            "length": 0,
            "notes": [],
            "controlChanges": {},
            "id": 8,
            "name": "Spur 8"
        },
        {
            "startTime": 0,
            "duration": 0,
            "length": 0,
            "notes": [],
            "controlChanges": {},
            "id": 9,
            "name": "Spur 9"
        }
    ]
}