{
    "header": {
        "PPQ": 480,
        "timeSignature": [
            4,
            4
        ],
        "bpm": 91.09002882999413,
        "name": "Impromptu D 935 No. 3"
    },
    "startTime": 0,
    "duration": 571.7420520000112,
    "tracks": [
        {
            "startTime": 0,
            "duration": 0,
            "length": 0,
            "notes": [],
            "controlChanges": {},
            "id": 0,
            "name": "Impromptu D 935 No. 3"
        },
        {
            "startTime": 0,
            "duration": 571.7420520000112,
            "length": 3239,
            "notes": [
                {
                    "name": "D5",
                    "midi": 74,
                    "time": 0,
                    "velocity": 0.3937007874015748,
                    "duration": 0.658689
                },
                {
                    "name": "D5",
                    "midi": 74,
                    "time": 0.658689,
                    "velocity": 0.3543307086614173,
                    "duration": 0.29641005
                },
                {
                    "name": "D5",
                    "midi": 74,
                    "time": 0.9880334999999999,
                    "velocity": 0.3543307086614173,
                    "duration": 0.29641004999999987
                },
                {
                    "name": "A#4",
                    "midi": 70,
                    "time": 1.3173779999999997,
                    "velocity": 0.3937007874015748,
                    "duration": 0.6586889999999999
                },
                {
                    "name": "A#4",
                    "midi": 70,
                    "time": 1.9760669999999996,
                    "velocity": 0.3543307086614173,
                    "duration": 0.6586889999999999
                },
                {
                    "name": "A4",
                    "midi": 69,
                    "time": 2.6347559999999994,
                    "velocity": 0.3937007874015748,
                    "duration": 0.6586889999999999
                },
                {
                    "name": "A4",
                    "midi": 69,
                    "time": 3.2934449999999993,
                    "velocity": 0.3700787401574803,
                    "duration": 0.32934449999999993
                },
                {
                    "name": "A4",
                    "midi": 69,
                    "time": 3.622789499999999,
                    "velocity": 0.3700787401574803,
                    "duration": 0.24700837500000006
                },
                {
                    "name": "A4",
                    "midi": 69,
                    "time": 3.8697978749999993,
                    "velocity": 0.31496062992125984,
                    "duration": 0.08233612499999987
                },
                {
                    "name": "D#5",
                    "midi": 75,
                    "time": 3.952133999999999,
                    "velocity": 0.3937007874015748,
                    "duration": 1.3173779999999997
                },
                {
                    "name": "D5",
                    "midi": 74,
                    "time": 5.269511999999999,
                    "velocity": 0.3937007874015748,
                    "duration": 0.6586889999999999
                },
                {
                    "name": "D5",
                    "midi": 74,
                    "time": 5.928200999999999,
                    "velocity": 0.3543307086614173,
                    "duration": 0.29641004999999954
                },
                {
                    "name": "D5",
                    "midi": 74,
                    "time": 6.257545499999998,
                    "velocity": 0.3543307086614173,
                    "duration": 0.29641004999999954
                },
                {
                    "name": "D5",
                    "midi": 74,
                    "time": 6.586889999999998,
                    "velocity": 0.3937007874015748,
                    "duration": 0.3293445000000004
                },
                {
                    "name": "G4",
                    "midi": 67,
                    "time": 6.916234499999998,
                    "velocity": 0.3937007874015748,
                    "duration": 0.16467224999999974
                },
                {
                    "name": "G4",
                    "midi": 67,
                    "time": 7.2455789999999975,
                    "velocity": 0.3543307086614173,
                    "duration": 0.6586889999999999
                },
                {
                    "name": "C5",
                    "midi": 72,
                    "time": 7.904267999999997,
                    "velocity": 0.3937007874015748,
                    "duration": 0.3293445000000004
                },
                {
                    "name": "B4",
                    "midi": 71,
                    "time": 8.233612499999998,
                    "velocity": 0.3464566929133858,
                    "duration": 0.16467225000000063
                },
                {
                    "name": "C5",
                    "midi": 72,
                    "time": 8.398284749999998,
                    "velocity": 0.3464566929133858,
                    "duration": 0.16467225000000063
                },
                {
                    "name": "B4",
                    "midi": 71,
                    "time": 8.562956999999999,
                    "velocity": 0.3464566929133858,
                    "duration": 0.16467225000000063
                },
                {
                    "name": "C5",
                    "midi": 72,
                    "time": 8.72762925,
                    "velocity": 0.3700787401574803,
                    "duration": 0.16467225000000063
                },
                {
                    "name": "D5",
                    "midi": 74,
                    "time": 8.8923015,
                    "velocity": 0.3858267716535433,
                    "duration": 0.16467225000000063
                },
                {
                    "name": "C5",
                    "midi": 72,
                    "time": 9.056973750000001,
                    "velocity": 0.3464566929133858,
                    "duration": 0.16467225000000063
                },
                {
                    "name": "F4",
                    "midi": 65,
                    "time": 9.221646000000002,
                    "velocity": 0.3937007874015748,
                    "duration": 1.317377999999998
                },
                {
                    "name": "C4",
                    "midi": 60,
                    "time": 9.5592241125,
                    "velocity": 0.25196850393700787,
                    "duration": 0.3293444999999995
                },
                {
                    "name": "D4",
                    "midi": 62,
                    "time": 9.880335,
                    "velocity": 0.2440944881889764,
                    "duration": 0.3293444999999995
                },
                {
                    "name": "D#4",
                    "midi": 63,
                    "time": 10.2096795,
                    "velocity": 0.2283464566929134,
                    "duration": 0.3293444999999995
                },
                {
                    "name": "D6",
                    "midi": 86,
                    "time": 10.539024,
                    "velocity": 0.3937007874015748,
                    "duration": 0.6586890000000007
                },
                {
                    "name": "D5",
                    "midi": 74,
                    "time": 10.539024,
                    "velocity": 0.33070866141732286,
                    "duration": 0.6586890000000007
                },
                {
                    "name": "D6",
                    "midi": 86,
                    "time": 11.197713,
                    "velocity": 0.3543307086614173,
                    "duration": 0.2964100500000004
                },
                {
                    "name": "D5",
                    "midi": 74,
                    "time": 11.197713,
                    "velocity": 0.2992125984251969,
                    "duration": 0.2964100500000004
                },
                {
                    "name": "D6",
                    "midi": 86,
                    "time": 11.527057500000002,
                    "velocity": 0.3543307086614173,
                    "duration": 0.2964100500000004
                },
                {
                    "name": "D5",
                    "midi": 74,
                    "time": 11.527057500000002,
                    "velocity": 0.2992125984251969,
                    "duration": 0.2964100500000004
                },
                {
                    "name": "A#5",
                    "midi": 82,
                    "time": 11.856402000000003,
                    "velocity": 0.3937007874015748,
                    "duration": 0.6586890000000007
                },
                {
                    "name": "A#4",
                    "midi": 70,
                    "time": 11.856402000000003,
                    "velocity": 0.33070866141732286,
                    "duration": 0.6586890000000007
                },
                {
                    "name": "A#5",
                    "midi": 82,
                    "time": 12.515091000000004,
                    "velocity": 0.3543307086614173,
                    "duration": 0.6586890000000007
                },
                {
                    "name": "A#4",
                    "midi": 70,
                    "time": 12.515091000000004,
                    "velocity": 0.2992125984251969,
                    "duration": 0.6586890000000007
                },
                {
                    "name": "A4",
                    "midi": 69,
                    "time": 13.173780000000004,
                    "velocity": 0.33070866141732286,
                    "duration": 0.6586890000000007
                },
                {
                    "name": "A5",
                    "midi": 81,
                    "time": 13.173780000000004,
                    "velocity": 0.3937007874015748,
                    "duration": 0.6586890000000007
                },
                {
                    "name": "A5",
                    "midi": 81,
                    "time": 13.832469000000005,
                    "velocity": 0.3700787401574803,
                    "duration": 0.3293444999999995
                },
                {
                    "name": "A4",
                    "midi": 69,
                    "time": 13.832469000000005,
                    "velocity": 0.30708661417322836,
                    "duration": 0.3293444999999995
                },
                {
                    "name": "A5",
                    "midi": 81,
                    "time": 14.161813500000004,
                    "velocity": 0.3700787401574803,
                    "duration": 0.24700837500000006
                },
                {
                    "name": "A4",
                    "midi": 69,
                    "time": 14.161813500000004,
                    "velocity": 0.30708661417322836,
                    "duration": 0.24700837500000006
                },
                {
                    "name": "A5",
                    "midi": 81,
                    "time": 14.408821875000005,
                    "velocity": 0.31496062992125984,
                    "duration": 0.08233612499999943
                },
                {
                    "name": "D#5",
                    "midi": 75,
                    "time": 14.491158000000004,
                    "velocity": 0.33070866141732286,
                    "duration": 1.3173779999999997
                },
                {
                    "name": "D#6",
                    "midi": 87,
                    "time": 14.491158000000004,
                    "velocity": 0.3937007874015748,
                    "duration": 1.3173779999999997
                },
                {
                    "name": "D5",
                    "midi": 74,
                    "time": 15.808536000000004,
                    "velocity": 0.33070866141732286,
                    "duration": 0.658688999999999
                },
                {
                    "name": "D6",
                    "midi": 86,
                    "time": 15.808536000000004,
                    "velocity": 0.3937007874015748,
                    "duration": 0.658688999999999
                },
                {
                    "name": "D6",
                    "midi": 86,
                    "time": 16.467225000000003,
                    "velocity": 0.3779527559055118,
                    "duration": 0.29641004999999865
                },
                {
                    "name": "D5",
                    "midi": 74,
                    "time": 16.467225000000003,
                    "velocity": 0.31496062992125984,
                    "duration": 0.29641004999999865
                },
                {
                    "name": "D6",
                    "midi": 86,
                    "time": 16.7965695,
                    "velocity": 0.4094488188976378,
                    "duration": 0.29641004999999865
                },
                {
                    "name": "D5",
                    "midi": 74,
                    "time": 16.7965695,
                    "velocity": 0.3464566929133858,
                    "duration": 0.29641004999999865
                },
                {
                    "name": "G6",
                    "midi": 91,
                    "time": 17.125913999999998,
                    "velocity": 0.44881889763779526,
                    "duration": 0.658688999999999
                },
                {
                    "name": "G5",
                    "midi": 79,
                    "time": 17.125913999999998,
                    "velocity": 0.3779527559055118,
                    "duration": 0.658688999999999
                },
                {
                    "name": "G5",
                    "midi": 79,
                    "time": 17.784602999999997,
                    "velocity": 0.2992125984251969,
                    "duration": 0.32934450000000126
                },
                {
                    "name": "G6",
                    "midi": 91,
                    "time": 17.784602999999997,
                    "velocity": 0.3543307086614173,
                    "duration": 0.6586890000000025
                },
                {
                    "name": "A#5",
                    "midi": 82,
                    "time": 18.1139475,
                    "velocity": 0.33858267716535434,
                    "duration": 0.32934450000000126
                },
                {
                    "name": "C6",
                    "midi": 84,
                    "time": 18.443292,
                    "velocity": 0.30708661417322836,
                    "duration": 0.9880335000000002
                },
                {
                    "name": "A#5",
                    "midi": 82,
                    "time": 18.443292,
                    "velocity": 0.3700787401574803,
                    "duration": 0.32934450000000126
                },
                {
                    "name": "A5",
                    "midi": 81,
                    "time": 18.7726365,
                    "velocity": 0.2992125984251969,
                    "duration": 0.16467224999999885
                },
                {
                    "name": "G5",
                    "midi": 79,
                    "time": 18.93730875,
                    "velocity": 0.2992125984251969,
                    "duration": 0.16467224999999885
                },
                {
                    "name": "A5",
                    "midi": 81,
                    "time": 19.101981,
                    "velocity": 0.33858267716535434,
                    "duration": 0.32934450000000126
                },
                {
                    "name": "D#5",
                    "midi": 75,
                    "time": 19.4313255,
                    "velocity": 0.29133858267716534,
                    "duration": 0.32934450000000126
                },
                {
                    "name": "A5",
                    "midi": 81,
                    "time": 19.4313255,
                    "velocity": 0.29133858267716534,
                    "duration": 0.32934450000000126
                },
                {
                    "name": "F6",
                    "midi": 89,
                    "time": 19.4313255,
                    "velocity": 0.3464566929133858,
                    "duration": 0.32934450000000126
                },
                {
                    "name": "A#5",
                    "midi": 82,
                    "time": 19.76067,
                    "velocity": 0.3464566929133858,
                    "duration": 1.3173780000000015
                },
                {
                    "name": "D5",
                    "midi": 74,
                    "time": 19.76067,
                    "velocity": 0.29133858267716534,
                    "duration": 1.3173780000000015
                },
                {
                    "name": "D5",
                    "midi": 74,
                    "time": 21.078048000000003,
                    "velocity": 0.3937007874015748,
                    "duration": 0.658688999999999
                },
                {
                    "name": "D5",
                    "midi": 74,
                    "time": 21.736737,
                    "velocity": 0.3543307086614173,
                    "duration": 0.29641004999999865
                },
                {
                    "name": "D5",
                    "midi": 74,
                    "time": 22.0660815,
                    "velocity": 0.3543307086614173,
                    "duration": 0.29641004999999865
                },
                {
                    "name": "A#4",
                    "midi": 70,
                    "time": 22.395425999999997,
                    "velocity": 0.3937007874015748,
                    "duration": 0.658688999999999
                },
                {
                    "name": "A#4",
                    "midi": 70,
                    "time": 23.054114999999996,
                    "velocity": 0.3543307086614173,
                    "duration": 0.658688999999999
                },
                {
                    "name": "A4",
                    "midi": 69,
                    "time": 23.712803999999995,
                    "velocity": 0.3937007874015748,
                    "duration": 0.658688999999999
                },
                {
                    "name": "A4",
                    "midi": 69,
                    "time": 24.371492999999994,
                    "velocity": 0.3700787401574803,
                    "duration": 0.32934450000000126
                },
                {
                    "name": "A4",
                    "midi": 69,
                    "time": 24.700837499999995,
                    "velocity": 0.3700787401574803,
                    "duration": 0.24700837500000006
                },
                {
                    "name": "A4",
                    "midi": 69,
                    "time": 24.947845874999995,
                    "velocity": 0.31496062992125984,
                    "duration": 0.0823361250000012
                },
                {
                    "name": "D#5",
                    "midi": 75,
                    "time": 25.030181999999996,
                    "velocity": 0.3937007874015748,
                    "duration": 1.3173780000000015
                },
                {
                    "name": "D5",
                    "midi": 74,
                    "time": 26.347559999999998,
                    "velocity": 0.3937007874015748,
                    "duration": 0.658688999999999
                },
                {
                    "name": "D5",
                    "midi": 74,
                    "time": 27.006248999999997,
                    "velocity": 0.3543307086614173,
                    "duration": 0.29641004999999865
                },
                {
                    "name": "D5",
                    "midi": 74,
                    "time": 27.335593499999995,
                    "velocity": 0.3543307086614173,
                    "duration": 0.29641004999999865
                },
                {
                    "name": "D5",
                    "midi": 74,
                    "time": 27.664937999999992,
                    "velocity": 0.3937007874015748,
                    "duration": 0.32934450000000126
                },
                {
                    "name": "G4",
                    "midi": 67,
                    "time": 27.994282499999994,
                    "velocity": 0.3937007874015748,
                    "duration": 0.16467224999999885
                },
                {
                    "name": "G4",
                    "midi": 67,
                    "time": 28.32362699999999,
                    "velocity": 0.3543307086614173,
                    "duration": 0.658688999999999
                },
                {
                    "name": "C5",
                    "midi": 72,
                    "time": 28.98231599999999,
                    "velocity": 0.3937007874015748,
                    "duration": 0.32934450000000126
                },
                {
                    "name": "B4",
                    "midi": 71,
                    "time": 29.31166049999999,
                    "velocity": 0.3464566929133858,
                    "duration": 0.16467224999999885
                },
                {
                    "name": "C5",
                    "midi": 72,
                    "time": 29.47633274999999,
                    "velocity": 0.3464566929133858,
                    "duration": 0.16467224999999885
                },
                {
                    "name": "B4",
                    "midi": 71,
                    "time": 29.64100499999999,
                    "velocity": 0.3464566929133858,
                    "duration": 0.16467224999999885
                },
                {
                    "name": "C5",
                    "midi": 72,
                    "time": 29.805677249999988,
                    "velocity": 0.3700787401574803,
                    "duration": 0.16467224999999885
                },
                {
                    "name": "D5",
                    "midi": 74,
                    "time": 29.970349499999987,
                    "velocity": 0.3858267716535433,
                    "duration": 0.16467224999999885
                },
                {
                    "name": "C5",
                    "midi": 72,
                    "time": 30.135021749999986,
                    "velocity": 0.3464566929133858,
                    "duration": 0.16467224999999885
                },
                {
                    "name": "F4",
                    "midi": 65,
                    "time": 30.299693999999985,
                    "velocity": 0.3937007874015748,
                    "duration": 1.317378000000005
                },
                {
                    "name": "C4",
                    "midi": 60,
                    "time": 30.637272112499986,
                    "velocity": 0.25196850393700787,
                    "duration": 0.32934450000000126
                },
                {
                    "name": "D4",
                    "midi": 62,
                    "time": 30.958382999999987,
                    "velocity": 0.2440944881889764,
                    "duration": 0.32934450000000126
                },
                {
                    "name": "D#4",
                    "midi": 63,
                    "time": 31.28772749999999,
                    "velocity": 0.2283464566929134,
                    "duration": 0.32934450000000126
                },
                {
                    "name": "D5",
                    "midi": 74,
                    "time": 31.61707199999999,
                    "velocity": 0.33070866141732286,
                    "duration": 0.658688999999999
                },
                {
                    "name": "D6",
                    "midi": 86,
                    "time": 31.61707199999999,
                    "velocity": 0.3937007874015748,
                    "duration": 0.658688999999999
                },
                {
                    "name": "D6",
                    "midi": 86,
                    "time": 32.27576099999999,
                    "velocity": 0.3543307086614173,
                    "duration": 0.29641004999999865
                },
                {
                    "name": "D5",
                    "midi": 74,
                    "time": 32.27576099999999,
                    "velocity": 0.2992125984251969,
                    "duration": 0.29641004999999865
                },
                {
                    "name": "D6",
                    "midi": 86,
                    "time": 32.605105499999986,
                    "velocity": 0.3543307086614173,
                    "duration": 0.29641004999999865
                },
                {
                    "name": "D5",
                    "midi": 74,
                    "time": 32.605105499999986,
                    "velocity": 0.2992125984251969,
                    "duration": 0.29641004999999865
                },
                {
                    "name": "A#5",
                    "midi": 82,
                    "time": 32.934449999999984,
                    "velocity": 0.3937007874015748,
                    "duration": 0.6586890000000025
                },
                {
                    "name": "A#4",
                    "midi": 70,
                    "time": 32.934449999999984,
                    "velocity": 0.33070866141732286,
                    "duration": 0.6586890000000025
                },
                {
                    "name": "A#4",
                    "midi": 70,
                    "time": 33.59313899999999,
                    "velocity": 0.2992125984251969,
                    "duration": 0.6586890000000025
                },
                {
                    "name": "A#5",
                    "midi": 82,
                    "time": 33.59313899999999,
                    "velocity": 0.3543307086614173,
                    "duration": 0.6586890000000025
                },
                {
                    "name": "A4",
                    "midi": 69,
                    "time": 34.25182799999999,
                    "velocity": 0.33070866141732286,
                    "duration": 0.6586890000000025
                },
                {
                    "name": "A5",
                    "midi": 81,
                    "time": 34.25182799999999,
                    "velocity": 0.3937007874015748,
                    "duration": 0.6586890000000025
                },
                {
                    "name": "A5",
                    "midi": 81,
                    "time": 34.91051699999999,
                    "velocity": 0.3700787401574803,
                    "duration": 0.3293444999999977
                },
                {
                    "name": "A4",
                    "midi": 69,
                    "time": 34.91051699999999,
                    "velocity": 0.30708661417322836,
                    "duration": 0.3293444999999977
                },
                {
                    "name": "A4",
                    "midi": 69,
                    "time": 35.23986149999999,
                    "velocity": 0.30708661417322836,
                    "duration": 0.24700837500000006
                },
                {
                    "name": "A5",
                    "midi": 81,
                    "time": 35.23986149999999,
                    "velocity": 0.3700787401574803,
                    "duration": 0.24700837500000006
                },
                {
                    "name": "A5",
                    "midi": 81,
                    "time": 35.48686987499999,
                    "velocity": 0.31496062992125984,
                    "duration": 0.08233612499999765
                },
                {
                    "name": "D#5",
                    "midi": 75,
                    "time": 35.56920599999999,
                    "velocity": 0.33070866141732286,
                    "duration": 1.317377999999998
                },
                {
                    "name": "D#6",
                    "midi": 87,
                    "time": 35.56920599999999,
                    "velocity": 0.3937007874015748,
                    "duration": 1.317377999999998
                },
                {
                    "name": "D5",
                    "midi": 74,
                    "time": 36.886583999999985,
                    "velocity": 0.33070866141732286,
                    "duration": 0.6586890000000025
                },
                {
                    "name": "D6",
                    "midi": 86,
                    "time": 36.886583999999985,
                    "velocity": 0.3937007874015748,
                    "duration": 0.6586890000000025
                },
                {
                    "name": "D5",
                    "midi": 74,
                    "time": 37.54527299999999,
                    "velocity": 0.31496062992125984,
                    "duration": 0.29641004999999865
                },
                {
                    "name": "D6",
                    "midi": 86,
                    "time": 37.54527299999999,
                    "velocity": 0.3779527559055118,
                    "duration": 0.29641004999999865
                },
                {
                    "name": "D6",
                    "midi": 86,
                    "time": 37.874617499999985,
                    "velocity": 0.4094488188976378,
                    "duration": 0.29641004999999865
                },
                {
                    "name": "D5",
                    "midi": 74,
                    "time": 37.874617499999985,
                    "velocity": 0.3464566929133858,
                    "duration": 0.29641004999999865
                },
                {
                    "name": "G5",
                    "midi": 79,
                    "time": 38.20396199999998,
                    "velocity": 0.3779527559055118,
                    "duration": 0.6586890000000025
                },
                {
                    "name": "G6",
                    "midi": 91,
                    "time": 38.20396199999998,
                    "velocity": 0.44881889763779526,
                    "duration": 0.6586890000000025
                },
                {
                    "name": "G5",
                    "midi": 79,
                    "time": 38.862650999999985,
                    "velocity": 0.2992125984251969,
                    "duration": 0.3293444999999977
                },
                {
                    "name": "G6",
                    "midi": 91,
                    "time": 38.862650999999985,
                    "velocity": 0.3543307086614173,
                    "duration": 0.6586889999999954
                },
                {
                    "name": "A#5",
                    "midi": 82,
                    "time": 39.19199549999998,
                    "velocity": 0.3464566929133858,
                    "duration": 0.3293444999999977
                },
                {
                    "name": "C6",
                    "midi": 84,
                    "time": 39.52133999999998,
                    "velocity": 0.30708661417322836,
                    "duration": 0.9880335000000002
                },
                {
                    "name": "A#5",
                    "midi": 82,
                    "time": 39.52133999999998,
                    "velocity": 0.3700787401574803,
                    "duration": 0.3293444999999977
                },
                {
                    "name": "A5",
                    "midi": 81,
                    "time": 39.85068449999998,
                    "velocity": 0.2992125984251969,
                    "duration": 0.1646722500000024
                },
                {
                    "name": "G5",
                    "midi": 79,
                    "time": 40.01535674999998,
                    "velocity": 0.2992125984251969,
                    "duration": 0.1646722500000024
                },
                {
                    "name": "A5",
                    "midi": 81,
                    "time": 40.18002899999998,
                    "velocity": 0.33858267716535434,
                    "duration": 0.3293444999999977
                },
                {
                    "name": "F6",
                    "midi": 89,
                    "time": 40.50937349999998,
                    "velocity": 0.3464566929133858,
                    "duration": 0.3293444999999977
                },
                {
                    "name": "D#5",
                    "midi": 75,
                    "time": 40.50937349999998,
                    "velocity": 0.29133858267716534,
                    "duration": 0.3293444999999977
                },
                {
                    "name": "A5",
                    "midi": 81,
                    "time": 40.50937349999998,
                    "velocity": 0.29133858267716534,
                    "duration": 0.3293444999999977
                },
                {
                    "name": "A#5",
                    "midi": 82,
                    "time": 40.83871799999998,
                    "velocity": 0.3464566929133858,
                    "duration": 1.317377999999998
                },
                {
                    "name": "D5",
                    "midi": 74,
                    "time": 40.83871799999998,
                    "velocity": 0.29133858267716534,
                    "duration": 1.317377999999998
                },
                {
                    "name": "A4",
                    "midi": 69,
                    "time": 42.15609599999998,
                    "velocity": 0.3937007874015748,
                    "duration": 0.6586890000000025
                },
                {
                    "name": "D5",
                    "midi": 74,
                    "time": 42.15609599999998,
                    "velocity": 0.47244094488188976,
                    "duration": 0.6586890000000025
                },
                {
                    "name": "F#4",
                    "midi": 66,
                    "time": 42.15609599999998,
                    "velocity": 0.3937007874015748,
                    "duration": 0.6586890000000025
                },
                {
                    "name": "D5",
                    "midi": 74,
                    "time": 42.81478499999998,
                    "velocity": 0.4251968503937008,
                    "duration": 0.29641004999999865
                },
                {
                    "name": "A4",
                    "midi": 69,
                    "time": 42.81478499999998,
                    "velocity": 0.3543307086614173,
                    "duration": 0.29641004999999865
                },
                {
                    "name": "F#4",
                    "midi": 66,
                    "time": 42.81478499999998,
                    "velocity": 0.3543307086614173,
                    "duration": 0.29641004999999865
                },
                {
                    "name": "A4",
                    "midi": 69,
                    "time": 43.14412949999998,
                    "velocity": 0.3543307086614173,
                    "duration": 0.29641004999999865
                },
                {
                    "name": "F#4",
                    "midi": 66,
                    "time": 43.14412949999998,
                    "velocity": 0.3543307086614173,
                    "duration": 0.29641004999999865
                },
                {
                    "name": "D5",
                    "midi": 74,
                    "time": 43.14412949999998,
                    "velocity": 0.4251968503937008,
                    "duration": 0.29641004999999865
                },
                {
                    "name": "D4",
                    "midi": 62,
                    "time": 43.473473999999975,
                    "velocity": 0.3937007874015748,
                    "duration": 0.6586890000000025
                },
                {
                    "name": "G4",
                    "midi": 67,
                    "time": 43.473473999999975,
                    "velocity": 0.3937007874015748,
                    "duration": 0.6586890000000025
                },
                {
                    "name": "A#4",
                    "midi": 70,
                    "time": 43.473473999999975,
                    "velocity": 0.47244094488188976,
                    "duration": 0.6586890000000025
                },
                {
                    "name": "D4",
                    "midi": 62,
                    "time": 44.13216299999998,
                    "velocity": 0.3543307086614173,
                    "duration": 0.6586890000000025
                },
                {
                    "name": "G4",
                    "midi": 67,
                    "time": 44.13216299999998,
                    "velocity": 0.3543307086614173,
                    "duration": 0.6586890000000025
                },
                {
                    "name": "A#4",
                    "midi": 70,
                    "time": 44.13216299999998,
                    "velocity": 0.4251968503937008,
                    "duration": 0.6586890000000025
                },
                {
                    "name": "G4",
                    "midi": 67,
                    "time": 44.79085199999998,
                    "velocity": 0.3937007874015748,
                    "duration": 0.6586889999999954
                },
                {
                    "name": "D4",
                    "midi": 62,
                    "time": 44.79085199999998,
                    "velocity": 0.3937007874015748,
                    "duration": 0.6586889999999954
                },
                {
                    "name": "A#4",
                    "midi": 70,
                    "time": 44.79085199999998,
                    "velocity": 0.47244094488188976,
                    "duration": 0.4940167500000001
                },
                {
                    "name": "C5",
                    "midi": 72,
                    "time": 45.28486874999998,
                    "velocity": 0.47244094488188976,
                    "duration": 0.08233612499999765
                },
                {
                    "name": "A#4",
                    "midi": 70,
                    "time": 45.36720487499998,
                    "velocity": 0.47244094488188976,
                    "duration": 0.08233612499999765
                },
                {
                    "name": "D4",
                    "midi": 62,
                    "time": 45.449540999999975,
                    "velocity": 0.36220472440944884,
                    "duration": 0.3293444999999977
                },
                {
                    "name": "A4",
                    "midi": 69,
                    "time": 45.449540999999975,
                    "velocity": 0.4409448818897638,
                    "duration": 0.3293444999999977
                },
                {
                    "name": "G4",
                    "midi": 67,
                    "time": 45.77888549999997,
                    "velocity": 0.4409448818897638,
                    "duration": 0.3293444999999977
                },
                {
                    "name": "D4",
                    "midi": 62,
                    "time": 45.77888549999997,
                    "velocity": 0.36220472440944884,
                    "duration": 0.3293444999999977
                },
                {
                    "name": "E4",
                    "midi": 64,
                    "time": 46.10822999999997,
                    "velocity": 0.3937007874015748,
                    "duration": 1.317377999999998
                },
                {
                    "name": "G4",
                    "midi": 67,
                    "time": 46.10822999999997,
                    "velocity": 0.3937007874015748,
                    "duration": 1.317377999999998
                },
                {
                    "name": "C5",
                    "midi": 72,
                    "time": 46.10822999999997,
                    "velocity": 0.47244094488188976,
                    "duration": 0.9880335000000002
                },
                {
                    "name": "A#4",
                    "midi": 70,
                    "time": 47.09626349999997,
                    "velocity": 0.47244094488188976,
                    "duration": 0.3293444999999977
                },
                {
                    "name": "F4",
                    "midi": 65,
                    "time": 47.42560799999997,
                    "velocity": 0.3937007874015748,
                    "duration": 0.6586890000000025
                },
                {
                    "name": "A4",
                    "midi": 69,
                    "time": 47.42560799999997,
                    "velocity": 0.47244094488188976,
                    "duration": 0.6586890000000025
                },
                {
                    "name": "C4",
                    "midi": 60,
                    "time": 47.42560799999997,
                    "velocity": 0.3937007874015748,
                    "duration": 0.6586890000000025
                },
                {
                    "name": "F4",
                    "midi": 65,
                    "time": 48.08429699999997,
                    "velocity": 0.33858267716535434,
                    "duration": 0.29641004999999865
                },
                {
                    "name": "C4",
                    "midi": 60,
                    "time": 48.08429699999997,
                    "velocity": 0.33858267716535434,
                    "duration": 0.29641004999999865
                },
                {
                    "name": "A4",
                    "midi": 69,
                    "time": 48.08429699999997,
                    "velocity": 0.4015748031496063,
                    "duration": 0.29641004999999865
                },
                {
                    "name": "C4",
                    "midi": 60,
                    "time": 48.41364149999997,
                    "velocity": 0.33070866141732286,
                    "duration": 0.29641004999999865
                },
                {
                    "name": "F4",
                    "midi": 65,
                    "time": 48.41364149999997,
                    "velocity": 0.33070866141732286,
                    "duration": 0.29641004999999865
                },
                {
                    "name": "A4",
                    "midi": 69,
                    "time": 48.41364149999997,
                    "velocity": 0.3937007874015748,
                    "duration": 0.29641004999999865
                },
                {
                    "name": "G4",
                    "midi": 67,
                    "time": 48.742985999999966,
                    "velocity": 0.4330708661417323,
                    "duration": 0.6586890000000025
                },
                {
                    "name": "D4",
                    "midi": 62,
                    "time": 48.742985999999966,
                    "velocity": 0.36220472440944884,
                    "duration": 0.6586890000000025
                },
                {
                    "name": "F4",
                    "midi": 65,
                    "time": 48.742985999999966,
                    "velocity": 0.36220472440944884,
                    "duration": 0.6586890000000025
                },
                {
                    "name": "F4",
                    "midi": 65,
                    "time": 49.40167499999997,
                    "velocity": 0.30708661417322836,
                    "duration": 0.6586890000000025
                },
                {
                    "name": "D4",
                    "midi": 62,
                    "time": 49.40167499999997,
                    "velocity": 0.30708661417322836,
                    "duration": 0.6586890000000025
                },
                {
                    "name": "G4",
                    "midi": 67,
                    "time": 49.40167499999997,
                    "velocity": 0.3700787401574803,
                    "duration": 0.6586890000000025
                },
                {
                    "name": "G4",
                    "midi": 67,
                    "time": 50.06036399999997,
                    "velocity": 0.3937007874015748,
                    "duration": 0.3293444999999977
                },
                {
                    "name": "C4",
                    "midi": 60,
                    "time": 50.06036399999997,
                    "velocity": 0.33070866141732286,
                    "duration": 1.317377999999998
                },
                {
                    "name": "E4",
                    "midi": 64,
                    "time": 50.06036399999997,
                    "velocity": 0.33070866141732286,
                    "duration": 0.6586890000000025
                },
                {
                    "name": "A4",
                    "midi": 69,
                    "time": 50.38970849999997,
                    "velocity": 0.3464566929133858,
                    "duration": 0.1646722500000024
                },
                {
                    "name": "A#4",
                    "midi": 70,
                    "time": 50.55438074999997,
                    "velocity": 0.3464566929133858,
                    "duration": 0.1646722500000024
                },
                {
                    "name": "F4",
                    "midi": 65,
                    "time": 50.719052999999974,
                    "velocity": 0.29133858267716534,
                    "duration": 0.3293444999999977
                },
                {
                    "name": "A4",
                    "midi": 69,
                    "time": 50.719052999999974,
                    "velocity": 0.3464566929133858,
                    "duration": 0.3293444999999977
                },
                {
                    "name": "G4",
                    "midi": 67,
                    "time": 51.04839749999997,
                    "velocity": 0.3858267716535433,
                    "duration": 0.3293444999999977
                },
                {
                    "name": "E4",
                    "midi": 64,
                    "time": 51.04839749999997,
                    "velocity": 0.3228346456692913,
                    "duration": 0.3293444999999977
                },
                {
                    "name": "F4",
                    "midi": 65,
                    "time": 51.37774199999997,
                    "velocity": 0.3937007874015748,
                    "duration": 1.3173779999999908
                },
                {
                    "name": "C4",
                    "midi": 60,
                    "time": 51.70708649999997,
                    "velocity": 0.25196850393700787,
                    "duration": 0.3293444999999977
                },
                {
                    "name": "D4",
                    "midi": 62,
                    "time": 52.036430999999965,
                    "velocity": 0.2440944881889764,
                    "duration": 0.3293444999999977
                },
                {
                    "name": "D#4",
                    "midi": 63,
                    "time": 52.36577549999996,
                    "velocity": 0.2283464566929134,
                    "duration": 0.3293444999999977
                },
                {
                    "name": "D5",
                    "midi": 74,
                    "time": 52.69511999999996,
                    "velocity": 0.33070866141732286,
                    "duration": 0.6586890000000025
                },
                {
                    "name": "D6",
                    "midi": 86,
                    "time": 52.69511999999996,
                    "velocity": 0.3937007874015748,
                    "duration": 0.6586890000000025
                },
                {
                    "name": "D5",
                    "midi": 74,
                    "time": 53.35380899999996,
                    "velocity": 0.2992125984251969,
                    "duration": 0.29641004999999865
                },
                {
                    "name": "D6",
                    "midi": 86,
                    "time": 53.35380899999996,
                    "velocity": 0.3543307086614173,
                    "duration": 0.29641004999999865
                },
                {
                    "name": "D5",
                    "midi": 74,
                    "time": 53.68315349999996,
                    "velocity": 0.2992125984251969,
                    "duration": 0.29641004999999865
                },
                {
                    "name": "D6",
                    "midi": 86,
                    "time": 53.68315349999996,
                    "velocity": 0.3543307086614173,
                    "duration": 0.29641004999999865
                },
                {
                    "name": "A#5",
                    "midi": 82,
                    "time": 54.01249799999996,
                    "velocity": 0.3937007874015748,
                    "duration": 0.6586890000000025
                },
                {
                    "name": "A#4",
                    "midi": 70,
                    "time": 54.01249799999996,
                    "velocity": 0.33070866141732286,
                    "duration": 0.6586890000000025
                },
                {
                    "name": "A#5",
                    "midi": 82,
                    "time": 54.67118699999996,
                    "velocity": 0.3543307086614173,
                    "duration": 0.6586890000000025
                },
                {
                    "name": "A#4",
                    "midi": 70,
                    "time": 54.67118699999996,
                    "velocity": 0.2992125984251969,
                    "duration": 0.6586890000000025
                },
                {
                    "name": "A#5",
                    "midi": 82,
                    "time": 55.32987599999996,
                    "velocity": 0.3937007874015748,
                    "duration": 0.4940167500000001
                },
                {
                    "name": "C6",
                    "midi": 84,
                    "time": 55.82389274999996,
                    "velocity": 0.3228346456692913,
                    "duration": 0.08233612499999765
                },
                {
                    "name": "A#5",
                    "midi": 82,
                    "time": 55.90622887499996,
                    "velocity": 0.31496062992125984,
                    "duration": 0.08233612499999765
                },
                {
                    "name": "A5",
                    "midi": 81,
                    "time": 55.98856499999996,
                    "velocity": 0.3700787401574803,
                    "duration": 0.1646722500000024
                },
                {
                    "name": "A#5",
                    "midi": 82,
                    "time": 56.15323724999996,
                    "velocity": 0.3700787401574803,
                    "duration": 0.08233612499999765
                },
                {
                    "name": "C6",
                    "midi": 84,
                    "time": 56.23557337499996,
                    "velocity": 0.31496062992125984,
                    "duration": 0.041168062499998825
                },
                {
                    "name": "D6",
                    "midi": 86,
                    "time": 56.27674143749996,
                    "velocity": 0.31496062992125984,
                    "duration": 0.041168062499998825
                },
                {
                    "name": "C6",
                    "midi": 84,
                    "time": 56.317909499999956,
                    "velocity": 0.3700787401574803,
                    "duration": 0.1646722500000024
                },
                {
                    "name": "A#5",
                    "midi": 82,
                    "time": 56.48258174999996,
                    "velocity": 0.3700787401574803,
                    "duration": 0.1646722500000024
                },
                {
                    "name": "G5",
                    "midi": 79,
                    "time": 56.64725399999996,
                    "velocity": 0.33070866141732286,
                    "duration": 1.317377999999998
                },
                {
                    "name": "G6",
                    "midi": 91,
                    "time": 56.64725399999996,
                    "velocity": 0.3937007874015748,
                    "duration": 1.317377999999998
                },
                {
                    "name": "C5",
                    "midi": 72,
                    "time": 57.96463199999996,
                    "velocity": 0.3937007874015748,
                    "duration": 0.6586890000000025
                },
                {
                    "name": "E4",
                    "midi": 64,
                    "time": 57.96463199999996,
                    "velocity": 0.33070866141732286,
                    "duration": 0.6586890000000025
                },
                {
                    "name": "A#4",
                    "midi": 70,
                    "time": 57.96463199999996,
                    "velocity": 0.33070866141732286,
                    "duration": 0.6586890000000025
                },
                {
                    "name": "A#4",
                    "midi": 70,
                    "time": 58.62332099999996,
                    "velocity": 0.31496062992125984,
                    "duration": 0.29641004999999865
                },
                {
                    "name": "E4",
                    "midi": 64,
                    "time": 58.62332099999996,
                    "velocity": 0.31496062992125984,
                    "duration": 0.29641004999999865
                },
                {
                    "name": "C5",
                    "midi": 72,
                    "time": 58.62332099999996,
                    "velocity": 0.3779527559055118,
                    "duration": 0.29641004999999865
                },
                {
                    "name": "A#4",
                    "midi": 70,
                    "time": 58.95266549999996,
                    "velocity": 0.3464566929133858,
                    "duration": 0.29641004999999865
                },
                {
                    "name": "C5",
                    "midi": 72,
                    "time": 58.95266549999996,
                    "velocity": 0.4094488188976378,
                    "duration": 0.29641004999999865
                },
                {
                    "name": "E4",
                    "midi": 64,
                    "time": 58.95266549999996,
                    "velocity": 0.3464566929133858,
                    "duration": 0.29641004999999865
                },
                {
                    "name": "A#4",
                    "midi": 70,
                    "time": 59.28200999999996,
                    "velocity": 0.3779527559055118,
                    "duration": 0.6586890000000025
                },
                {
                    "name": "F5",
                    "midi": 77,
                    "time": 59.28200999999996,
                    "velocity": 0.44881889763779526,
                    "duration": 0.6586890000000025
                },
                {
                    "name": "D5",
                    "midi": 74,
                    "time": 59.28200999999996,
                    "velocity": 0.3779527559055118,
                    "duration": 0.6586890000000025
                },
                {
                    "name": "F4",
                    "midi": 65,
                    "time": 59.28200999999996,
                    "velocity": 0.3779527559055118,
                    "duration": 0.6586890000000025
                },
                {
                    "name": "F4",
                    "midi": 65,
                    "time": 59.94069899999996,
                    "velocity": 0.31496062992125984,
                    "duration": 0.6586890000000025
                },
                {
                    "name": "A#4",
                    "midi": 70,
                    "time": 59.94069899999996,
                    "velocity": 0.31496062992125984,
                    "duration": 0.6586890000000025
                },
                {
                    "name": "D5",
                    "midi": 74,
                    "time": 59.94069899999996,
                    "velocity": 0.31496062992125984,
                    "duration": 0.6586890000000025
                },
                {
                    "name": "F5",
                    "midi": 77,
                    "time": 59.94069899999996,
                    "velocity": 0.3543307086614173,
                    "duration": 0.6586890000000025
                },
                {
                    "name": "C5",
                    "midi": 72,
                    "time": 60.59938799999996,
                    "velocity": 0.30708661417322836,
                    "duration": 0.9880335000000002
                },
                {
                    "name": "A#4",
                    "midi": 70,
                    "time": 60.59938799999996,
                    "velocity": 0.3700787401574803,
                    "duration": 0.3293444999999977
                },
                {
                    "name": "A4",
                    "midi": 69,
                    "time": 60.92873249999996,
                    "velocity": 0.2992125984251969,
                    "duration": 0.1646722500000024
                },
                {
                    "name": "G4",
                    "midi": 67,
                    "time": 61.09340474999996,
                    "velocity": 0.2992125984251969,
                    "duration": 0.1646722500000024
                },
                {
                    "name": "A4",
                    "midi": 69,
                    "time": 61.258076999999965,
                    "velocity": 0.33858267716535434,
                    "duration": 0.3293444999999977
                },
                {
                    "name": "D#4",
                    "midi": 63,
                    "time": 61.58742149999996,
                    "velocity": 0.29133858267716534,
                    "duration": 0.3293444999999977
                },
                {
                    "name": "A4",
                    "midi": 69,
                    "time": 61.58742149999996,
                    "velocity": 0.29133858267716534,
                    "duration": 0.3293444999999977
                },
                {
                    "name": "F5",
                    "midi": 77,
                    "time": 61.58742149999996,
                    "velocity": 0.3464566929133858,
                    "duration": 0.3293444999999977
                },
                {
                    "name": "A#4",
                    "midi": 70,
                    "time": 61.91676599999996,
                    "velocity": 0.3464566929133858,
                    "duration": 1.317377999999998
                },
                {
                    "name": "D4",
                    "midi": 62,
                    "time": 61.91676599999996,
                    "velocity": 0.29133858267716534,
                    "duration": 1.317377999999998
                },
                {
                    "name": "A4",
                    "midi": 69,
                    "time": 63.23414399999996,
                    "velocity": 0.3937007874015748,
                    "duration": 0.6586890000000025
                },
                {
                    "name": "D5",
                    "midi": 74,
                    "time": 63.23414399999996,
                    "velocity": 0.47244094488188976,
                    "duration": 0.6586890000000025
                },
                {
                    "name": "F#4",
                    "midi": 66,
                    "time": 63.23414399999996,
                    "velocity": 0.3937007874015748,
                    "duration": 0.6586890000000025
                },
                {
                    "name": "D5",
                    "midi": 74,
                    "time": 63.89283299999996,
                    "velocity": 0.4251968503937008,
                    "duration": 0.29641004999999865
                },
                {
                    "name": "F#4",
                    "midi": 66,
                    "time": 63.89283299999996,
                    "velocity": 0.3543307086614173,
                    "duration": 0.29641004999999865
                },
                {
                    "name": "A4",
                    "midi": 69,
                    "time": 63.89283299999996,
                    "velocity": 0.3543307086614173,
                    "duration": 0.29641004999999865
                },
                {
                    "name": "D5",
                    "midi": 74,
                    "time": 64.22217749999996,
                    "velocity": 0.4251968503937008,
                    "duration": 0.29641005000000575
                },
                {
                    "name": "F#4",
                    "midi": 66,
                    "time": 64.22217749999996,
                    "velocity": 0.3543307086614173,
                    "duration": 0.29641005000000575
                },
                {
                    "name": "A4",
                    "midi": 69,
                    "time": 64.22217749999996,
                    "velocity": 0.3543307086614173,
                    "duration": 0.29641005000000575
                },
                {
                    "name": "A#4",
                    "midi": 70,
                    "time": 64.55152199999996,
                    "velocity": 0.47244094488188976,
                    "duration": 0.6586889999999954
                },
                {
                    "name": "G4",
                    "midi": 67,
                    "time": 64.55152199999996,
                    "velocity": 0.3937007874015748,
                    "duration": 0.6586889999999954
                },
                {
                    "name": "D4",
                    "midi": 62,
                    "time": 64.55152199999996,
                    "velocity": 0.3937007874015748,
                    "duration": 0.6586889999999954
                },
                {
                    "name": "G4",
                    "midi": 67,
                    "time": 65.21021099999996,
                    "velocity": 0.3543307086614173,
                    "duration": 0.6586889999999954
                },
                {
                    "name": "A#4",
                    "midi": 70,
                    "time": 65.21021099999996,
                    "velocity": 0.4251968503937008,
                    "duration": 0.6586889999999954
                },
                {
                    "name": "D4",
                    "midi": 62,
                    "time": 65.21021099999996,
                    "velocity": 0.3543307086614173,
                    "duration": 0.6586889999999954
                },
                {
                    "name": "A#4",
                    "midi": 70,
                    "time": 65.86889999999995,
                    "velocity": 0.47244094488188976,
                    "duration": 0.4940167500000001
                },
                {
                    "name": "G4",
                    "midi": 67,
                    "time": 65.86889999999995,
                    "velocity": 0.3937007874015748,
                    "duration": 0.6586889999999954
                },
                {
                    "name": "D4",
                    "midi": 62,
                    "time": 65.86889999999995,
                    "velocity": 0.3937007874015748,
                    "duration": 0.6586889999999954
                },
                {
                    "name": "C5",
                    "midi": 72,
                    "time": 66.36291674999995,
                    "velocity": 0.47244094488188976,
                    "duration": 0.08233612499999765
                },
                {
                    "name": "A#4",
                    "midi": 70,
                    "time": 66.44525287499995,
                    "velocity": 0.47244094488188976,
                    "duration": 0.08233612499999765
                },
                {
                    "name": "A4",
                    "midi": 69,
                    "time": 66.52758899999995,
                    "velocity": 0.4409448818897638,
                    "duration": 0.3293445000000048
                },
                {
                    "name": "D4",
                    "midi": 62,
                    "time": 66.52758899999995,
                    "velocity": 0.36220472440944884,
                    "duration": 0.3293445000000048
                },
                {
                    "name": "G4",
                    "midi": 67,
                    "time": 66.85693349999995,
                    "velocity": 0.4409448818897638,
                    "duration": 0.3293445000000048
                },
                {
                    "name": "D4",
                    "midi": 62,
                    "time": 66.85693349999995,
                    "velocity": 0.36220472440944884,
                    "duration": 0.3293445000000048
                },
                {
                    "name": "E4",
                    "midi": 64,
                    "time": 67.18627799999996,
                    "velocity": 0.3937007874015748,
                    "duration": 1.317378000000005
                },
                {
                    "name": "C5",
                    "midi": 72,
                    "time": 67.18627799999996,
                    "velocity": 0.47244094488188976,
                    "duration": 0.9880335000000002
                },
                {
                    "name": "G4",
                    "midi": 67,
                    "time": 67.18627799999996,
                    "velocity": 0.3937007874015748,
                    "duration": 1.317378000000005
                },
                {
                    "name": "A#4",
                    "midi": 70,
                    "time": 68.17431149999996,
                    "velocity": 0.47244094488188976,
                    "duration": 0.3293445000000048
                },
                {
                    "name": "F4",
                    "midi": 65,
                    "time": 68.50365599999996,
                    "velocity": 0.3937007874015748,
                    "duration": 0.6586889999999954
                },
                {
                    "name": "C4",
                    "midi": 60,
                    "time": 68.50365599999996,
                    "velocity": 0.3937007874015748,
                    "duration": 0.6586889999999954
                },
                {
                    "name": "A4",
                    "midi": 69,
                    "time": 68.50365599999996,
                    "velocity": 0.47244094488188976,
                    "duration": 0.6586889999999954
                },
                {
                    "name": "C4",
                    "midi": 60,
                    "time": 69.16234499999996,
                    "velocity": 0.33858267716535434,
                    "duration": 0.29641005000000575
                },
                {
                    "name": "F4",
                    "midi": 65,
                    "time": 69.16234499999996,
                    "velocity": 0.33858267716535434,
                    "duration": 0.29641005000000575
                },
                {
                    "name": "A4",
                    "midi": 69,
                    "time": 69.16234499999996,
                    "velocity": 0.4015748031496063,
                    "duration": 0.29641005000000575
                },
                {
                    "name": "A4",
                    "midi": 69,
                    "time": 69.49168949999996,
                    "velocity": 0.3937007874015748,
                    "duration": 0.29641005000000575
                },
                {
                    "name": "C4",
                    "midi": 60,
                    "time": 69.49168949999996,
                    "velocity": 0.33070866141732286,
                    "duration": 0.29641005000000575
                },
                {
                    "name": "F4",
                    "midi": 65,
                    "time": 69.49168949999996,
                    "velocity": 0.33070866141732286,
                    "duration": 0.29641005000000575
                },
                {
                    "name": "G4",
                    "midi": 67,
                    "time": 69.82103399999997,
                    "velocity": 0.4330708661417323,
                    "duration": 0.6586889999999954
                },
                {
                    "name": "D4",
                    "midi": 62,
                    "time": 69.82103399999997,
                    "velocity": 0.36220472440944884,
                    "duration": 0.6586889999999954
                },
                {
                    "name": "F4",
                    "midi": 65,
                    "time": 69.82103399999997,
                    "velocity": 0.36220472440944884,
                    "duration": 0.6586889999999954
                },
                {
                    "name": "F4",
                    "midi": 65,
                    "time": 70.47972299999996,
                    "velocity": 0.30708661417322836,
                    "duration": 0.6586889999999954
                },
                {
                    "name": "G4",
                    "midi": 67,
                    "time": 70.47972299999996,
                    "velocity": 0.3700787401574803,
                    "duration": 0.6586889999999954
                },
                {
                    "name": "D4",
                    "midi": 62,
                    "time": 70.47972299999996,
                    "velocity": 0.30708661417322836,
                    "duration": 0.6586889999999954
                },
                {
                    "name": "C4",
                    "midi": 60,
                    "time": 71.13841199999996,
                    "velocity": 0.33070866141732286,
                    "duration": 1.317378000000005
                },
                {
                    "name": "E4",
                    "midi": 64,
                    "time": 71.13841199999996,
                    "velocity": 0.33070866141732286,
                    "duration": 0.6586889999999954
                },
                {
                    "name": "G4",
                    "midi": 67,
                    "time": 71.13841199999996,
                    "velocity": 0.3937007874015748,
                    "duration": 0.3293445000000048
                },
                {
                    "name": "A4",
                    "midi": 69,
                    "time": 71.46775649999996,
                    "velocity": 0.3464566929133858,
                    "duration": 0.1646722499999953
                },
                {
                    "name": "A#4",
                    "midi": 70,
                    "time": 71.63242874999996,
                    "velocity": 0.3464566929133858,
                    "duration": 0.1646722499999953
                },
                {
                    "name": "A4",
                    "midi": 69,
                    "time": 71.79710099999996,
                    "velocity": 0.3464566929133858,
                    "duration": 0.3293445000000048
                },
                {
                    "name": "F4",
                    "midi": 65,
                    "time": 71.79710099999996,
                    "velocity": 0.29133858267716534,
                    "duration": 0.3293445000000048
                },
                {
                    "name": "G4",
                    "midi": 67,
                    "time": 72.12644549999996,
                    "velocity": 0.3858267716535433,
                    "duration": 0.3293445000000048
                },
                {
                    "name": "E4",
                    "midi": 64,
                    "time": 72.12644549999996,
                    "velocity": 0.3228346456692913,
                    "duration": 0.3293445000000048
                },
                {
                    "name": "F4",
                    "midi": 65,
                    "time": 72.45578999999996,
                    "velocity": 0.3937007874015748,
                    "duration": 1.3173780000000193
                },
                {
                    "name": "C4",
                    "midi": 60,
                    "time": 72.78513449999997,
                    "velocity": 0.25196850393700787,
                    "duration": 0.3293445000000048
                },
                {
                    "name": "D4",
                    "midi": 62,
                    "time": 73.11447899999997,
                    "velocity": 0.2440944881889764,
                    "duration": 0.3293445000000048
                },
                {
                    "name": "D#4",
                    "midi": 63,
                    "time": 73.44382349999998,
                    "velocity": 0.2283464566929134,
                    "duration": 0.3293445000000048
                },
                {
                    "name": "D5",
                    "midi": 74,
                    "time": 73.77316799999998,
                    "velocity": 0.33070866141732286,
                    "duration": 0.6586889999999954
                },
                {
                    "name": "D6",
                    "midi": 86,
                    "time": 73.77316799999998,
                    "velocity": 0.3937007874015748,
                    "duration": 0.6586889999999954
                },
                {
                    "name": "D6",
                    "midi": 86,
                    "time": 74.43185699999998,
                    "velocity": 0.3543307086614173,
                    "duration": 0.29641005000000575
                },
                {
                    "name": "D5",
                    "midi": 74,
                    "time": 74.43185699999998,
                    "velocity": 0.2992125984251969,
                    "duration": 0.29641005000000575
                },
                {
                    "name": "D5",
                    "midi": 74,
                    "time": 74.76120149999998,
                    "velocity": 0.2992125984251969,
                    "duration": 0.29641005000000575
                },
                {
                    "name": "D6",
                    "midi": 86,
                    "time": 74.76120149999998,
                    "velocity": 0.3543307086614173,
                    "duration": 0.29641005000000575
                },
                {
                    "name": "A#4",
                    "midi": 70,
                    "time": 75.09054599999999,
                    "velocity": 0.33070866141732286,
                    "duration": 0.6586889999999954
                },
                {
                    "name": "A#5",
                    "midi": 82,
                    "time": 75.09054599999999,
                    "velocity": 0.3937007874015748,
                    "duration": 0.6586889999999954
                },
                {
                    "name": "A#5",
                    "midi": 82,
                    "time": 75.74923499999998,
                    "velocity": 0.3543307086614173,
                    "duration": 0.6586889999999954
                },
                {
                    "name": "A#4",
                    "midi": 70,
                    "time": 75.74923499999998,
                    "velocity": 0.2992125984251969,
                    "duration": 0.6586889999999954
                },
                {
                    "name": "A#5",
                    "midi": 82,
                    "time": 76.40792399999998,
                    "velocity": 0.3937007874015748,
                    "duration": 0.4940167500000001
                },
                {
                    "name": "C6",
                    "midi": 84,
                    "time": 76.90194074999998,
                    "velocity": 0.3228346456692913,
                    "duration": 0.08233612499999765
                },
                {
                    "name": "A#5",
                    "midi": 82,
                    "time": 76.98427687499998,
                    "velocity": 0.31496062992125984,
                    "duration": 0.08233612499999765
                },
                {
                    "name": "A5",
                    "midi": 81,
                    "time": 77.06661299999998,
                    "velocity": 0.3700787401574803,
                    "duration": 0.1646722499999953
                },
                {
                    "name": "A#5",
                    "midi": 82,
                    "time": 77.23128524999997,
                    "velocity": 0.3700787401574803,
                    "duration": 0.08233612499999765
                },
                {
                    "name": "C6",
                    "midi": 84,
                    "time": 77.31362137499997,
                    "velocity": 0.31496062992125984,
                    "duration": 0.04116806250000593
                },
                {
                    "name": "D6",
                    "midi": 86,
                    "time": 77.35478943749997,
                    "velocity": 0.31496062992125984,
                    "duration": 0.04116806250000593
                },
                {
                    "name": "C6",
                    "midi": 84,
                    "time": 77.39595749999998,
                    "velocity": 0.3700787401574803,
                    "duration": 0.1646722499999953
                },
                {
                    "name": "A#5",
                    "midi": 82,
                    "time": 77.56062974999998,
                    "velocity": 0.3700787401574803,
                    "duration": 0.1646722499999953
                },
                {
                    "name": "G5",
                    "midi": 79,
                    "time": 77.72530199999997,
                    "velocity": 0.33070866141732286,
                    "duration": 1.317378000000005
                },
                {
                    "name": "G6",
                    "midi": 91,
                    "time": 77.72530199999997,
                    "velocity": 0.3937007874015748,
                    "duration": 1.317378000000005
                },
                {
                    "name": "E4",
                    "midi": 64,
                    "time": 79.04267999999998,
                    "velocity": 0.33070866141732286,
                    "duration": 0.6586889999999954
                },
                {
                    "name": "A#4",
                    "midi": 70,
                    "time": 79.04267999999998,
                    "velocity": 0.33070866141732286,
                    "duration": 0.6586889999999954
                },
                {
                    "name": "C5",
                    "midi": 72,
                    "time": 79.04267999999998,
                    "velocity": 0.3937007874015748,
                    "duration": 0.6586889999999954
                },
                {
                    "name": "A#4",
                    "midi": 70,
                    "time": 79.70136899999997,
                    "velocity": 0.31496062992125984,
                    "duration": 0.29641005000000575
                },
                {
                    "name": "C5",
                    "midi": 72,
                    "time": 79.70136899999997,
                    "velocity": 0.3779527559055118,
                    "duration": 0.29641005000000575
                },
                {
                    "name": "E4",
                    "midi": 64,
                    "time": 79.70136899999997,
                    "velocity": 0.31496062992125984,
                    "duration": 0.29641005000000575
                },
                {
                    "name": "E4",
                    "midi": 64,
                    "time": 80.03071349999998,
                    "velocity": 0.3464566929133858,
                    "duration": 0.29641005000000575
                },
                {
                    "name": "A#4",
                    "midi": 70,
                    "time": 80.03071349999998,
                    "velocity": 0.3464566929133858,
                    "duration": 0.29641005000000575
                },
                {
                    "name": "C5",
                    "midi": 72,
                    "time": 80.03071349999998,
                    "velocity": 0.4094488188976378,
                    "duration": 0.29641005000000575
                },
                {
                    "name": "A#4",
                    "midi": 70,
                    "time": 80.36005799999998,
                    "velocity": 0.3779527559055118,
                    "duration": 0.6586889999999954
                },
                {
                    "name": "F4",
                    "midi": 65,
                    "time": 80.36005799999998,
                    "velocity": 0.3779527559055118,
                    "duration": 0.6586889999999954
                },
                {
                    "name": "D5",
                    "midi": 74,
                    "time": 80.36005799999998,
                    "velocity": 0.3779527559055118,
                    "duration": 0.6586889999999954
                },
                {
                    "name": "F5",
                    "midi": 77,
                    "time": 80.36005799999998,
                    "velocity": 0.44881889763779526,
                    "duration": 0.6586889999999954
                },
                {
                    "name": "A#4",
                    "midi": 70,
                    "time": 81.01874699999998,
                    "velocity": 0.31496062992125984,
                    "duration": 0.6586889999999954
                },
                {
                    "name": "F4",
                    "midi": 65,
                    "time": 81.01874699999998,
                    "velocity": 0.31496062992125984,
                    "duration": 0.6586889999999954
                },
                {
                    "name": "F5",
                    "midi": 77,
                    "time": 81.01874699999998,
                    "velocity": 0.3543307086614173,
                    "duration": 0.6586889999999954
                },
                {
                    "name": "D5",
                    "midi": 74,
                    "time": 81.01874699999998,
                    "velocity": 0.31496062992125984,
                    "duration": 0.6586889999999954
                },
                {
                    "name": "A#4",
                    "midi": 70,
                    "time": 81.67743599999997,
                    "velocity": 0.3700787401574803,
                    "duration": 0.3293445000000048
                },
                {
                    "name": "C5",
                    "midi": 72,
                    "time": 81.67743599999997,
                    "velocity": 0.30708661417322836,
                    "duration": 0.9880335000000002
                },
                {
                    "name": "A4",
                    "midi": 69,
                    "time": 82.00678049999998,
                    "velocity": 0.2992125984251969,
                    "duration": 0.1646722499999953
                },
                {
                    "name": "G4",
                    "midi": 67,
                    "time": 82.17145274999997,
                    "velocity": 0.2992125984251969,
                    "duration": 0.1646722499999953
                },
                {
                    "name": "A4",
                    "midi": 69,
                    "time": 82.33612499999997,
                    "velocity": 0.33858267716535434,
                    "duration": 0.3293445000000048
                },
                {
                    "name": "A4",
                    "midi": 69,
                    "time": 82.66546949999997,
                    "velocity": 0.29133858267716534,
                    "duration": 0.3293445000000048
                },
                {
                    "name": "F5",
                    "midi": 77,
                    "time": 82.66546949999997,
                    "velocity": 0.3464566929133858,
                    "duration": 0.3293445000000048
                },
                {
                    "name": "D#4",
                    "midi": 63,
                    "time": 82.66546949999997,
                    "velocity": 0.29133858267716534,
                    "duration": 0.3293445000000048
                },
                {
                    "name": "A#4",
                    "midi": 70,
                    "time": 82.99481399999998,
                    "velocity": 0.3464566929133858,
                    "duration": 1.317378000000005
                },
                {
                    "name": "D4",
                    "midi": 62,
                    "time": 82.99481399999998,
                    "velocity": 0.29133858267716534,
                    "duration": 1.317378000000005
                },
                {
                    "name": "C5",
                    "midi": 72,
                    "time": 84.31219199999998,
                    "velocity": 0.2440944881889764,
                    "duration": 0.9880335000000002
                },
                {
                    "name": "A#4",
                    "midi": 70,
                    "time": 84.31219199999998,
                    "velocity": 0.29133858267716534,
                    "duration": 0.3293445000000048
                },
                {
                    "name": "A4",
                    "midi": 69,
                    "time": 84.64153649999999,
                    "velocity": 0.23622047244094488,
                    "duration": 0.1646722499999953
                },
                {
                    "name": "G4",
                    "midi": 67,
                    "time": 84.80620874999998,
                    "velocity": 0.23622047244094488,
                    "duration": 0.1646722499999953
                },
                {
                    "name": "A4",
                    "midi": 69,
                    "time": 84.97088099999998,
                    "velocity": 0.2677165354330709,
                    "duration": 0.3293445000000048
                },
                {
                    "name": "D#4",
                    "midi": 63,
                    "time": 85.30022549999998,
                    "velocity": 0.2283464566929134,
                    "duration": 0.3293445000000048
                },
                {
                    "name": "F5",
                    "midi": 77,
                    "time": 85.30022549999998,
                    "velocity": 0.2755905511811024,
                    "duration": 0.3293445000000048
                },
                {
                    "name": "A4",
                    "midi": 69,
                    "time": 85.30022549999998,
                    "velocity": 0.2283464566929134,
                    "duration": 0.3293445000000048
                },
                {
                    "name": "D4",
                    "midi": 62,
                    "time": 85.62956999999999,
                    "velocity": 0.2283464566929134,
                    "duration": 0.9880335000000002
                },
                {
                    "name": "A#4",
                    "midi": 70,
                    "time": 85.62956999999999,
                    "velocity": 0.2755905511811024,
                    "duration": 0.9880335000000002
                },
                {
                    "name": "A#3",
                    "midi": 58,
                    "time": 86.61760349999999,
                    "velocity": 0.2283464566929134,
                    "duration": 0.3293445000000048
                },
                {
                    "name": "C4",
                    "midi": 60,
                    "time": 86.94694799999999,
                    "velocity": 0.2047244094488189,
                    "duration": 0.9880335000000002
                },
                {
                    "name": "A#3",
                    "midi": 58,
                    "time": 86.94694799999999,
                    "velocity": 0.2440944881889764,
                    "duration": 0.3293445000000048
                },
                {
                    "name": "A3",
                    "midi": 57,
                    "time": 87.2762925,
                    "velocity": 0.1968503937007874,
                    "duration": 0.1646722499999953
                },
                {
                    "name": "G3",
                    "midi": 55,
                    "time": 87.44096474999999,
                    "velocity": 0.1968503937007874,
                    "duration": 0.1646722499999953
                },
                {
                    "name": "A3",
                    "midi": 57,
                    "time": 87.60563699999999,
                    "velocity": 0.2204724409448819,
                    "duration": 0.3293445000000048
                },
                {
                    "name": "D#3",
                    "midi": 51,
                    "time": 87.93498149999999,
                    "velocity": 0.1889763779527559,
                    "duration": 0.3293445000000048
                },
                {
                    "name": "F4",
                    "midi": 65,
                    "time": 87.93498149999999,
                    "velocity": 0.2283464566929134,
                    "duration": 0.3293445000000048
                },
                {
                    "name": "A3",
                    "midi": 57,
                    "time": 87.93498149999999,
                    "velocity": 0.1889763779527559,
                    "duration": 0.3293445000000048
                },
                {
                    "name": "D3",
                    "midi": 50,
                    "time": 88.264326,
                    "velocity": 0.1889763779527559,
                    "duration": 0.9880335000000002
                },
                {
                    "name": "A#3",
                    "midi": 58,
                    "time": 88.264326,
                    "velocity": 0.2283464566929134,
                    "duration": 0.9880335000000002
                },
                {
                    "name": "D5",
                    "midi": 74,
                    "time": 89.581704,
                    "velocity": 0.3937007874015748,
                    "duration": 0.4940167499999859
                },
                {
                    "name": "D4",
                    "midi": 62,
                    "time": 89.74637625,
                    "velocity": 0.2047244094488189,
                    "duration": 0.1646722499999953
                },
                {
                    "name": "F4",
                    "midi": 65,
                    "time": 89.91104849999999,
                    "velocity": 0.2047244094488189,
                    "duration": 0.1646722499999953
                },
                {
                    "name": "D5",
                    "midi": 74,
                    "time": 90.07572074999999,
                    "velocity": 0.3543307086614173,
                    "duration": 0.1646722499999953
                },
                {
                    "name": "D5",
                    "midi": 74,
                    "time": 90.24039299999998,
                    "velocity": 0.3937007874015748,
                    "duration": 0.4940167499999859
                },
                {
                    "name": "D4",
                    "midi": 62,
                    "time": 90.40506524999998,
                    "velocity": 0.2047244094488189,
                    "duration": 0.1646722499999953
                },
                {
                    "name": "F4",
                    "midi": 65,
                    "time": 90.56973749999997,
                    "velocity": 0.2047244094488189,
                    "duration": 0.1646722499999953
                },
                {
                    "name": "D5",
                    "midi": 74,
                    "time": 90.73440974999997,
                    "velocity": 0.3700787401574803,
                    "duration": 0.1646722499999953
                },
                {
                    "name": "C5",
                    "midi": 72,
                    "time": 90.89908199999996,
                    "velocity": 0.3937007874015748,
                    "duration": 0.4940167499999859
                },
                {
                    "name": "D4",
                    "midi": 62,
                    "time": 91.06375424999996,
                    "velocity": 0.2047244094488189,
                    "duration": 0.1646722499999953
                },
                {
                    "name": "F4",
                    "midi": 65,
                    "time": 91.22842649999996,
                    "velocity": 0.2047244094488189,
                    "duration": 0.1646722499999953
                },
                {
                    "name": "A#4",
                    "midi": 70,
                    "time": 91.39309874999995,
                    "velocity": 0.3543307086614173,
                    "duration": 0.1646722499999953
                },
                {
                    "name": "A#4",
                    "midi": 70,
                    "time": 91.55777099999995,
                    "velocity": 0.3937007874015748,
                    "duration": 0.4940167499999859
                },
                {
                    "name": "D4",
                    "midi": 62,
                    "time": 91.72244324999994,
                    "velocity": 0.2047244094488189,
                    "duration": 0.1646722499999953
                },
                {
                    "name": "F4",
                    "midi": 65,
                    "time": 91.88711549999994,
                    "velocity": 0.2047244094488189,
                    "duration": 0.1646722499999953
                },
                {
                    "name": "C5",
                    "midi": 72,
                    "time": 92.05178774999993,
                    "velocity": 0.36220472440944884,
                    "duration": 0.1646722499999953
                },
                {
                    "name": "A#4",
                    "midi": 70,
                    "time": 92.21645999999993,
                    "velocity": 0.3937007874015748,
                    "duration": 0.4940167499999859
                },
                {
                    "name": "D#4",
                    "midi": 63,
                    "time": 92.38113224999992,
                    "velocity": 0.2204724409448819,
                    "duration": 0.1646722499999953
                },
                {
                    "name": "F4",
                    "midi": 65,
                    "time": 92.54580449999992,
                    "velocity": 0.2204724409448819,
                    "duration": 0.1646722499999953
                },
                {
                    "name": "A4",
                    "midi": 69,
                    "time": 92.71047674999991,
                    "velocity": 0.3779527559055118,
                    "duration": 0.1646722499999953
                },
                {
                    "name": "C5",
                    "midi": 72,
                    "time": 92.87514899999991,
                    "velocity": 0.4094488188976378,
                    "duration": 0.4940167499999859
                },
                {
                    "name": "F4",
                    "midi": 65,
                    "time": 93.0398212499999,
                    "velocity": 0.2204724409448819,
                    "duration": 0.1646722499999953
                },
                {
                    "name": "A4",
                    "midi": 69,
                    "time": 93.2044934999999,
                    "velocity": 0.2283464566929134,
                    "duration": 0.1646722499999953
                },
                {
                    "name": "D5",
                    "midi": 74,
                    "time": 93.3691657499999,
                    "velocity": 0.3937007874015748,
                    "duration": 0.1646722499999953
                },
                {
                    "name": "D#5",
                    "midi": 75,
                    "time": 93.53383799999989,
                    "velocity": 0.4330708661417323,
                    "duration": 0.4940167499999859
                },
                {
                    "name": "A4",
                    "midi": 69,
                    "time": 93.69851024999988,
                    "velocity": 0.25196850393700787,
                    "duration": 0.1646722499999953
                },
                {
                    "name": "C5",
                    "midi": 72,
                    "time": 93.86318249999988,
                    "velocity": 0.25196850393700787,
                    "duration": 0.1646722499999953
                },
                {
                    "name": "F#5",
                    "midi": 78,
                    "time": 94.02785474999988,
                    "velocity": 0.4094488188976378,
                    "duration": 0.1646722499999953
                },
                {
                    "name": "G5",
                    "midi": 79,
                    "time": 94.19252699999987,
                    "velocity": 0.44881889763779526,
                    "duration": 0.4940167499999859
                },
                {
                    "name": "A4",
                    "midi": 69,
                    "time": 94.35719924999987,
                    "velocity": 0.2677165354330709,
                    "duration": 0.1646722499999953
                },
                {
                    "name": "C5",
                    "midi": 72,
                    "time": 94.52187149999986,
                    "velocity": 0.2677165354330709,
                    "duration": 0.1646722499999953
                },
                {
                    "name": "D#5",
                    "midi": 75,
                    "time": 94.68654374999986,
                    "velocity": 0.3937007874015748,
                    "duration": 0.1646722499999953
                },
                {
                    "name": "D5",
                    "midi": 74,
                    "time": 94.85121599999985,
                    "velocity": 0.3937007874015748,
                    "duration": 0.4940167499999859
                },
                {
                    "name": "F#4",
                    "midi": 66,
                    "time": 95.01588824999985,
                    "velocity": 0.2047244094488189,
                    "duration": 0.1646722499999953
                },
                {
                    "name": "A4",
                    "midi": 69,
                    "time": 95.18056049999984,
                    "velocity": 0.2047244094488189,
                    "duration": 0.1646722499999953
                },
                {
                    "name": "D#5",
                    "midi": 75,
                    "time": 95.34523274999984,
                    "velocity": 0.3543307086614173,
                    "duration": 0.1646722499999953
                },
                {
                    "name": "D5",
                    "midi": 74,
                    "time": 95.50990499999983,
                    "velocity": 0.3937007874015748,
                    "duration": 0.4940167499999859
                },
                {
                    "name": "F#4",
                    "midi": 66,
                    "time": 95.67457724999983,
                    "velocity": 0.2047244094488189,
                    "duration": 0.1646722499999953
                },
                {
                    "name": "A4",
                    "midi": 69,
                    "time": 95.83924949999982,
                    "velocity": 0.2047244094488189,
                    "duration": 0.1646722499999953
                },
                {
                    "name": "C5",
                    "midi": 72,
                    "time": 96.00392174999982,
                    "velocity": 0.3700787401574803,
                    "duration": 0.1646722499999953
                },
                {
                    "name": "C5",
                    "midi": 72,
                    "time": 96.16859399999981,
                    "velocity": 0.3937007874015748,
                    "duration": 0.4940167499999859
                },
                {
                    "name": "F4",
                    "midi": 65,
                    "time": 96.33326624999981,
                    "velocity": 0.2047244094488189,
                    "duration": 0.1646722499999953
                },
                {
                    "name": "G#4",
                    "midi": 68,
                    "time": 96.4979384999998,
                    "velocity": 0.2047244094488189,
                    "duration": 0.1646722499999953
                },
                {
                    "name": "C5",
                    "midi": 72,
                    "time": 96.6626107499998,
                    "velocity": 0.3543307086614173,
                    "duration": 0.1646722499999953
                },
                {
                    "name": "B4",
                    "midi": 71,
                    "time": 96.8272829999998,
                    "velocity": 0.3937007874015748,
                    "duration": 0.4940167499999859
                },
                {
                    "name": "F4",
                    "midi": 65,
                    "time": 96.99195524999979,
                    "velocity": 0.2047244094488189,
                    "duration": 0.1646722499999953
                },
                {
                    "name": "G#4",
                    "midi": 68,
                    "time": 97.15662749999979,
                    "velocity": 0.2047244094488189,
                    "duration": 0.1646722499999953
                },
                {
                    "name": "B4",
                    "midi": 71,
                    "time": 97.32129974999978,
                    "velocity": 0.36220472440944884,
                    "duration": 0.1646722499999953
                },
                {
                    "name": "B4",
                    "midi": 71,
                    "time": 97.48597199999978,
                    "velocity": 0.3937007874015748,
                    "duration": 0.4940167499999859
                },
                {
                    "name": "D#4",
                    "midi": 63,
                    "time": 97.65064424999977,
                    "velocity": 0.2204724409448819,
                    "duration": 0.1646722499999953
                },
                {
                    "name": "G4",
                    "midi": 67,
                    "time": 97.81531649999977,
                    "velocity": 0.2204724409448819,
                    "duration": 0.1646722499999953
                },
                {
                    "name": "C5",
                    "midi": 72,
                    "time": 97.97998874999976,
                    "velocity": 0.3779527559055118,
                    "duration": 0.1646722499999953
                },
                {
                    "name": "D#5",
                    "midi": 75,
                    "time": 98.14466099999976,
                    "velocity": 0.4094488188976378,
                    "duration": 0.4940167499999859
                },
                {
                    "name": "D#4",
                    "midi": 63,
                    "time": 98.30933324999975,
                    "velocity": 0.2204724409448819,
                    "duration": 0.1646722499999953
                },
                {
                    "name": "F#4",
                    "midi": 66,
                    "time": 98.47400549999975,
                    "velocity": 0.2283464566929134,
                    "duration": 0.1646722499999953
                },
                {
                    "name": "C5",
                    "midi": 72,
                    "time": 98.63867774999974,
                    "velocity": 0.3543307086614173,
                    "duration": 0.1646722499999953
                },
                {
                    "name": "A#4",
                    "midi": 70,
                    "time": 98.80334999999974,
                    "velocity": 0.4015748031496063,
                    "duration": 0.4940167499999859
                },
                {
                    "name": "D4",
                    "midi": 62,
                    "time": 98.96802224999973,
                    "velocity": 0.2283464566929134,
                    "duration": 0.1646722499999953
                },
                {
                    "name": "F4",
                    "midi": 65,
                    "time": 99.13269449999973,
                    "velocity": 0.2047244094488189,
                    "duration": 0.1646722499999953
                },
                {
                    "name": "A#4",
                    "midi": 70,
                    "time": 99.29736674999972,
                    "velocity": 0.2755905511811024,
                    "duration": 0.1646722499999953
                },
                {
                    "name": "A4",
                    "midi": 69,
                    "time": 99.46203899999972,
                    "velocity": 0.31496062992125984,
                    "duration": 0.4940167499999859
                },
                {
                    "name": "C4",
                    "midi": 60,
                    "time": 99.62671124999972,
                    "velocity": 0.1889763779527559,
                    "duration": 0.1646722499999953
                },
                {
                    "name": "F4",
                    "midi": 65,
                    "time": 99.79138349999971,
                    "velocity": 0.1889763779527559,
                    "duration": 0.1646722499999953
                },
                {
                    "name": "A4",
                    "midi": 69,
                    "time": 99.9560557499997,
                    "velocity": 0.33070866141732286,
                    "duration": 0.1646722499999953
                },
                {
                    "name": "D5",
                    "midi": 74,
                    "time": 100.1207279999997,
                    "velocity": 0.3937007874015748,
                    "duration": 0.4940167499999859
                },
                {
                    "name": "D4",
                    "midi": 62,
                    "time": 100.2854002499997,
                    "velocity": 0.2047244094488189,
                    "duration": 0.1646722499999953
                },
                {
                    "name": "F4",
                    "midi": 65,
                    "time": 100.45007249999969,
                    "velocity": 0.2047244094488189,
                    "duration": 0.1646722499999953
                },
                {
                    "name": "D5",
                    "midi": 74,
                    "time": 100.61474474999969,
                    "velocity": 0.3543307086614173,
                    "duration": 0.1646722499999953
                },
                {
                    "name": "D5",
                    "midi": 74,
                    "time": 100.77941699999968,
                    "velocity": 0.3937007874015748,
                    "duration": 0.4940167499999859
                },
                {
                    "name": "D4",
                    "midi": 62,
                    "time": 100.94408924999968,
                    "velocity": 0.2047244094488189,
                    "duration": 0.1646722499999953
                },
                {
                    "name": "F4",
                    "midi": 65,
                    "time": 101.10876149999967,
                    "velocity": 0.2047244094488189,
                    "duration": 0.1646722499999953
                },
                {
                    "name": "D5",
                    "midi": 74,
                    "time": 101.27343374999967,
                    "velocity": 0.3700787401574803,
                    "duration": 0.1646722499999953
                },
                {
                    "name": "C5",
                    "midi": 72,
                    "time": 101.43810599999966,
                    "velocity": 0.3937007874015748,
                    "duration": 0.4940167499999859
                },
                {
                    "name": "D4",
                    "midi": 62,
                    "time": 101.60277824999966,
                    "velocity": 0.2047244094488189,
                    "duration": 0.1646722499999953
                },
                {
                    "name": "F4",
                    "midi": 65,
                    "time": 101.76745049999965,
                    "velocity": 0.2047244094488189,
                    "duration": 0.1646722499999953
                },
                {
                    "name": "A#4",
                    "midi": 70,
                    "time": 101.93212274999965,
                    "velocity": 0.3543307086614173,
                    "duration": 0.1646722499999953
                },
                {
                    "name": "A#4",
                    "midi": 70,
                    "time": 102.09679499999964,
                    "velocity": 0.3937007874015748,
                    "duration": 0.4940167499999859
                },
                {
                    "name": "D4",
                    "midi": 62,
                    "time": 102.26146724999964,
                    "velocity": 0.2047244094488189,
                    "duration": 0.1646722499999953
                },
                {
                    "name": "F4",
                    "midi": 65,
                    "time": 102.42613949999964,
                    "velocity": 0.2047244094488189,
                    "duration": 0.1646722499999953
                },
                {
                    "name": "C5",
                    "midi": 72,
                    "time": 102.59081174999963,
                    "velocity": 0.36220472440944884,
                    "duration": 0.1646722499999953
                },
                {
                    "name": "A#4",
                    "midi": 70,
                    "time": 102.75548399999963,
                    "velocity": 0.3937007874015748,
                    "duration": 0.4940167499999859
                },
                {
                    "name": "D#4",
                    "midi": 63,
                    "time": 102.92015624999962,
                    "velocity": 0.2204724409448819,
                    "duration": 0.1646722499999953
                },
                {
                    "name": "F4",
                    "midi": 65,
                    "time": 103.08482849999962,
                    "velocity": 0.2204724409448819,
                    "duration": 0.1646722499999953
                },
                {
                    "name": "A4",
                    "midi": 69,
                    "time": 103.24950074999961,
                    "velocity": 0.3779527559055118,
                    "duration": 0.1646722499999953
                },
                {
                    "name": "C5",
                    "midi": 72,
                    "time": 103.41417299999961,
                    "velocity": 0.4094488188976378,
                    "duration": 0.4940167499999859
                },
                {
                    "name": "F4",
                    "midi": 65,
                    "time": 103.5788452499996,
                    "velocity": 0.2204724409448819,
                    "duration": 0.1646722499999953
                },
                {
                    "name": "A4",
                    "midi": 69,
                    "time": 103.7435174999996,
                    "velocity": 0.2283464566929134,
                    "duration": 0.1646722499999953
                },
                {
                    "name": "D5",
                    "midi": 74,
                    "time": 103.9081897499996,
                    "velocity": 0.3937007874015748,
                    "duration": 0.1646722499999953
                },
                {
                    "name": "D#5",
                    "midi": 75,
                    "time": 104.07286199999959,
                    "velocity": 0.4330708661417323,
                    "duration": 0.4940167499999859
                },
                {
                    "name": "A4",
                    "midi": 69,
                    "time": 104.23753424999958,
                    "velocity": 0.25196850393700787,
                    "duration": 0.1646722499999953
                },
                {
                    "name": "C5",
                    "midi": 72,
                    "time": 104.40220649999958,
                    "velocity": 0.25196850393700787,
                    "duration": 0.1646722499999953
                },
                {
                    "name": "F#5",
                    "midi": 78,
                    "time": 104.56687874999957,
                    "velocity": 0.4094488188976378,
                    "duration": 0.1646722499999953
                },
                {
                    "name": "G5",
                    "midi": 79,
                    "time": 104.73155099999957,
                    "velocity": 0.44881889763779526,
                    "duration": 0.4940167499999859
                },
                {
                    "name": "A4",
                    "midi": 69,
                    "time": 104.89622324999957,
                    "velocity": 0.2677165354330709,
                    "duration": 0.1646722499999953
                },
                {
                    "name": "C5",
                    "midi": 72,
                    "time": 105.06089549999956,
                    "velocity": 0.2677165354330709,
                    "duration": 0.1646722499999953
                },
                {
                    "name": "D#5",
                    "midi": 75,
                    "time": 105.22556774999956,
                    "velocity": 0.3937007874015748,
                    "duration": 0.1646722499999953
                },
                {
                    "name": "D5",
                    "midi": 74,
                    "time": 105.39023999999955,
                    "velocity": 0.3937007874015748,
                    "duration": 0.4940167499999859
                },
                {
                    "name": "D4",
                    "midi": 62,
                    "time": 105.55491224999955,
                    "velocity": 0.2047244094488189,
                    "duration": 0.1646722499999953
                },
                {
                    "name": "F4",
                    "midi": 65,
                    "time": 105.71958449999954,
                    "velocity": 0.2047244094488189,
                    "duration": 0.1646722499999953
                },
                {
                    "name": "A4",
                    "midi": 69,
                    "time": 105.88425674999954,
                    "velocity": 0.3543307086614173,
                    "duration": 0.1646722499999953
                },
                {
                    "name": "A#4",
                    "midi": 70,
                    "time": 106.04892899999953,
                    "velocity": 0.3937007874015748,
                    "duration": 0.4940167499999859
                },
                {
                    "name": "D4",
                    "midi": 62,
                    "time": 106.21360124999953,
                    "velocity": 0.2047244094488189,
                    "duration": 0.1646722499999953
                },
                {
                    "name": "F4",
                    "midi": 65,
                    "time": 106.37827349999952,
                    "velocity": 0.2047244094488189,
                    "duration": 0.1646722499999953
                },
                {
                    "name": "C5",
                    "midi": 72,
                    "time": 106.54294574999952,
                    "velocity": 0.41732283464566927,
                    "duration": 0.1646722499999953
                },
                {
                    "name": "C#5",
                    "midi": 73,
                    "time": 106.70761799999951,
                    "velocity": 0.4566929133858268,
                    "duration": 0.4940167500000143
                },
                {
                    "name": "G4",
                    "midi": 67,
                    "time": 106.86542890624952,
                    "velocity": 0.2992125984251969,
                    "duration": 0.1646722499999953
                },
                {
                    "name": "A#4",
                    "midi": 70,
                    "time": 107.03696249999952,
                    "velocity": 0.2992125984251969,
                    "duration": 0.1646722500000095
                },
                {
                    "name": "G5",
                    "midi": 79,
                    "time": 107.19477340624952,
                    "velocity": 0.3543307086614173,
                    "duration": 0.1646722500000095
                },
                {
                    "name": "A5",
                    "midi": 81,
                    "time": 107.36630699999954,
                    "velocity": 0.4330708661417323,
                    "duration": 0.4940167500000001
                },
                {
                    "name": "A#4",
                    "midi": 70,
                    "time": 107.53097924999953,
                    "velocity": 0.2755905511811024,
                    "duration": 0.1646722499999953
                },
                {
                    "name": "C#5",
                    "midi": 73,
                    "time": 107.69565149999953,
                    "velocity": 0.2755905511811024,
                    "duration": 0.1646722500000095
                },
                {
                    "name": "A#5",
                    "midi": 82,
                    "time": 107.85346240624953,
                    "velocity": 0.36220472440944884,
                    "duration": 0.1646722500000095
                },
                {
                    "name": "C5",
                    "midi": 72,
                    "time": 108.02499599999955,
                    "velocity": 0.3937007874015748,
                    "duration": 0.4940167499999859
                },
                {
                    "name": "F4",
                    "midi": 65,
                    "time": 108.18966824999954,
                    "velocity": 0.2204724409448819,
                    "duration": 0.1646722499999953
                },
                {
                    "name": "A#4",
                    "midi": 70,
                    "time": 108.35434049999954,
                    "velocity": 0.2204724409448819,
                    "duration": 0.1646722499999953
                },
                {
                    "name": "D5",
                    "midi": 74,
                    "time": 108.51901274999953,
                    "velocity": 0.33858267716535434,
                    "duration": 0.1646722499999953
                },
                {
                    "name": "D#5",
                    "midi": 75,
                    "time": 108.68368499999953,
                    "velocity": 0.3858267716535433,
                    "duration": 0.4940167499999859
                },
                {
                    "name": "F4",
                    "midi": 65,
                    "time": 108.84835724999952,
                    "velocity": 0.2204724409448819,
                    "duration": 0.1646722499999953
                },
                {
                    "name": "A4",
                    "midi": 69,
                    "time": 109.01302949999952,
                    "velocity": 0.2283464566929134,
                    "duration": 0.1646722499999953
                },
                {
                    "name": "F5",
                    "midi": 77,
                    "time": 109.17770174999951,
                    "velocity": 0.33858267716535434,
                    "duration": 0.1646722499999953
                },
                {
                    "name": "A#4",
                    "midi": 70,
                    "time": 109.34237399999951,
                    "velocity": 0.3937007874015748,
                    "duration": 0.4940167499999859
                },
                {
                    "name": "D4",
                    "midi": 62,
                    "time": 109.5070462499995,
                    "velocity": 0.2283464566929134,
                    "duration": 0.1646722499999953
                },
                {
                    "name": "F4",
                    "midi": 65,
                    "time": 109.6717184999995,
                    "velocity": 0.2047244094488189,
                    "duration": 0.1646722499999953
                },
                {
                    "name": "A4",
                    "midi": 69,
                    "time": 109.8363907499995,
                    "velocity": 0.25196850393700787,
                    "duration": 0.1646722500000095
                },
                {
                    "name": "A#4",
                    "midi": 70,
                    "time": 109.9942016562495,
                    "velocity": 0.2992125984251969,
                    "duration": 0.4940167500000001
                },
                {
                    "name": "D4",
                    "midi": 62,
                    "time": 110.1657352499995,
                    "velocity": 0.1889763779527559,
                    "duration": 0.1646722499999953
                },
                {
                    "name": "F4",
                    "midi": 65,
                    "time": 110.3304074999995,
                    "velocity": 0.1889763779527559,
                    "duration": 0.1646722500000095
                },
                {
                    "name": "C5",
                    "midi": 72,
                    "time": 110.4950797499995,
                    "velocity": 0.30708661417322836,
                    "duration": 0.1646722499999953
                },
                {
                    "name": "D5",
                    "midi": 74,
                    "time": 110.6597519999995,
                    "velocity": 0.3937007874015748,
                    "duration": 0.4940167499999859
                },
                {
                    "name": "D4",
                    "midi": 62,
                    "time": 110.8244242499995,
                    "velocity": 0.2047244094488189,
                    "duration": 0.1646722499999953
                },
                {
                    "name": "F4",
                    "midi": 65,
                    "time": 110.98909649999949,
                    "velocity": 0.2047244094488189,
                    "duration": 0.1646722499999953
                },
                {
                    "name": "D5",
                    "midi": 74,
                    "time": 111.15376874999949,
                    "velocity": 0.3543307086614173,
                    "duration": 0.1646722499999953
                },
                {
                    "name": "D5",
                    "midi": 74,
                    "time": 111.31844099999948,
                    "velocity": 0.3937007874015748,
                    "duration": 0.4940167499999859
                },
                {
                    "name": "D4",
                    "midi": 62,
                    "time": 111.48311324999948,
                    "velocity": 0.2047244094488189,
                    "duration": 0.1646722499999953
                },
                {
                    "name": "F4",
                    "midi": 65,
                    "time": 111.64778549999947,
                    "velocity": 0.2047244094488189,
                    "duration": 0.1646722499999953
                },
                {
                    "name": "D5",
                    "midi": 74,
                    "time": 111.81245774999947,
                    "velocity": 0.3700787401574803,
                    "duration": 0.1646722499999953
                },
                {
                    "name": "C5",
                    "midi": 72,
                    "time": 111.97712999999946,
                    "velocity": 0.3937007874015748,
                    "duration": 0.4940167499999859
                },
                {
                    "name": "D4",
                    "midi": 62,
                    "time": 112.14180224999946,
                    "velocity": 0.2047244094488189,
                    "duration": 0.1646722499999953
                },
                {
                    "name": "F4",
                    "midi": 65,
                    "time": 112.30647449999945,
                    "velocity": 0.2047244094488189,
                    "duration": 0.1646722499999953
                },
                {
                    "name": "A#4",
                    "midi": 70,
                    "time": 112.47114674999945,
                    "velocity": 0.3543307086614173,
                    "duration": 0.1646722499999953
                },
                {
                    "name": "A#4",
                    "midi": 70,
                    "time": 112.63581899999944,
                    "velocity": 0.3937007874015748,
                    "duration": 0.4940167499999859
                },
                {
                    "name": "D4",
                    "midi": 62,
                    "time": 112.80049124999944,
                    "velocity": 0.2047244094488189,
                    "duration": 0.1646722499999953
                },
                {
                    "name": "F4",
                    "midi": 65,
                    "time": 112.96516349999943,
                    "velocity": 0.2047244094488189,
                    "duration": 0.1646722499999953
                },
                {
                    "name": "C5",
                    "midi": 72,
                    "time": 113.12983574999943,
                    "velocity": 0.36220472440944884,
                    "duration": 0.1646722499999953
                },
                {
                    "name": "A#4",
                    "midi": 70,
                    "time": 113.29450799999942,
                    "velocity": 0.3937007874015748,
                    "duration": 0.4940167499999859
                },
                {
                    "name": "D#4",
                    "midi": 63,
                    "time": 113.45918024999942,
                    "velocity": 0.2204724409448819,
                    "duration": 0.1646722499999953
                },
                {
                    "name": "F4",
                    "midi": 65,
                    "time": 113.62385249999942,
                    "velocity": 0.2204724409448819,
                    "duration": 0.1646722499999953
                },
                {
                    "name": "A4",
                    "midi": 69,
                    "time": 113.78852474999941,
                    "velocity": 0.3779527559055118,
                    "duration": 0.1646722499999953
                },
                {
                    "name": "C5",
                    "midi": 72,
                    "time": 113.9531969999994,
                    "velocity": 0.4094488188976378,
                    "duration": 0.4940167499999859
                },
                {
                    "name": "F4",
                    "midi": 65,
                    "time": 114.1178692499994,
                    "velocity": 0.2204724409448819,
                    "duration": 0.1646722499999953
                },
                {
                    "name": "A4",
                    "midi": 69,
                    "time": 114.2825414999994,
                    "velocity": 0.2283464566929134,
                    "duration": 0.1646722499999953
                },
                {
                    "name": "D5",
                    "midi": 74,
                    "time": 114.44721374999939,
                    "velocity": 0.3937007874015748,
                    "duration": 0.1646722499999953
                },
                {
                    "name": "D#5",
                    "midi": 75,
                    "time": 114.61188599999939,
                    "velocity": 0.4330708661417323,
                    "duration": 0.4940167499999859
                },
                {
                    "name": "A4",
                    "midi": 69,
                    "time": 114.77655824999938,
                    "velocity": 0.25196850393700787,
                    "duration": 0.1646722499999953
                },
                {
                    "name": "C5",
                    "midi": 72,
                    "time": 114.94123049999938,
                    "velocity": 0.25196850393700787,
                    "duration": 0.1646722499999953
                },
                {
                    "name": "F#5",
                    "midi": 78,
                    "time": 115.10590274999937,
                    "velocity": 0.4094488188976378,
                    "duration": 0.1646722499999953
                },
                {
                    "name": "G5",
                    "midi": 79,
                    "time": 115.27057499999937,
                    "velocity": 0.44881889763779526,
                    "duration": 0.4940167499999859
                },
                {
                    "name": "A4",
                    "midi": 69,
                    "time": 115.43524724999936,
                    "velocity": 0.2677165354330709,
                    "duration": 0.1646722499999953
                },
                {
                    "name": "C5",
                    "midi": 72,
                    "time": 115.59991949999936,
                    "velocity": 0.2677165354330709,
                    "duration": 0.1646722499999953
                },
                {
                    "name": "D#5",
                    "midi": 75,
                    "time": 115.76459174999935,
                    "velocity": 0.3937007874015748,
                    "duration": 0.1646722499999953
                },
                {
                    "name": "D5",
                    "midi": 74,
                    "time": 115.92926399999935,
                    "velocity": 0.3937007874015748,
                    "duration": 0.4940167499999859
                },
                {
                    "name": "F#4",
                    "midi": 66,
                    "time": 116.09393624999935,
                    "velocity": 0.2047244094488189,
                    "duration": 0.1646722499999953
                },
                {
                    "name": "A4",
                    "midi": 69,
                    "time": 116.25860849999934,
                    "velocity": 0.2047244094488189,
                    "duration": 0.1646722499999953
                },
                {
                    "name": "D#5",
                    "midi": 75,
                    "time": 116.42328074999934,
                    "velocity": 0.3543307086614173,
                    "duration": 0.1646722499999953
                },
                {
                    "name": "D5",
                    "midi": 74,
                    "time": 116.58795299999933,
                    "velocity": 0.3937007874015748,
                    "duration": 0.4940167499999859
                },
                {
                    "name": "F#4",
                    "midi": 66,
                    "time": 116.75262524999933,
                    "velocity": 0.2047244094488189,
                    "duration": 0.1646722499999953
                },
                {
                    "name": "A4",
                    "midi": 69,
                    "time": 116.91729749999932,
                    "velocity": 0.2047244094488189,
                    "duration": 0.1646722499999953
                },
                {
                    "name": "C5",
                    "midi": 72,
                    "time": 117.08196974999932,
                    "velocity": 0.3700787401574803,
                    "duration": 0.1646722499999953
                },
                {
                    "name": "C5",
                    "midi": 72,
                    "time": 117.24664199999931,
                    "velocity": 0.3937007874015748,
                    "duration": 0.4940167499999859
                },
                {
                    "name": "F4",
                    "midi": 65,
                    "time": 117.41131424999931,
                    "velocity": 0.2047244094488189,
                    "duration": 0.1646722499999953
                },
                {
                    "name": "G#4",
                    "midi": 68,
                    "time": 117.5759864999993,
                    "velocity": 0.2047244094488189,
                    "duration": 0.1646722499999953
                },
                {
                    "name": "C5",
                    "midi": 72,
                    "time": 117.7406587499993,
                    "velocity": 0.3543307086614173,
                    "duration": 0.1646722499999953
                },
                {
                    "name": "B4",
                    "midi": 71,
                    "time": 117.9053309999993,
                    "velocity": 0.3937007874015748,
                    "duration": 0.4940167499999859
                },
                {
                    "name": "F4",
                    "midi": 65,
                    "time": 118.07000324999929,
                    "velocity": 0.2047244094488189,
                    "duration": 0.1646722499999953
                },
                {
                    "name": "G#4",
                    "midi": 68,
                    "time": 118.23467549999928,
                    "velocity": 0.2047244094488189,
                    "duration": 0.1646722499999953
                },
                {
                    "name": "B4",
                    "midi": 71,
                    "time": 118.39934774999928,
                    "velocity": 0.36220472440944884,
                    "duration": 0.1646722499999953
                },
                {
                    "name": "B4",
                    "midi": 71,
                    "time": 118.56401999999927,
                    "velocity": 0.3937007874015748,
                    "duration": 0.4940167499999859
                },
                {
                    "name": "D#4",
                    "midi": 63,
                    "time": 118.72869224999927,
                    "velocity": 0.2204724409448819,
                    "duration": 0.1646722499999953
                },
                {
                    "name": "G4",
                    "midi": 67,
                    "time": 118.89336449999927,
                    "velocity": 0.2204724409448819,
                    "duration": 0.1646722499999953
                },
                {
                    "name": "C5",
                    "midi": 72,
                    "time": 119.05803674999926,
                    "velocity": 0.3779527559055118,
                    "duration": 0.1646722499999953
                },
                {
                    "name": "D#5",
                    "midi": 75,
                    "time": 119.22270899999926,
                    "velocity": 0.4094488188976378,
                    "duration": 0.4940167499999859
                },
                {
                    "name": "D#4",
                    "midi": 63,
                    "time": 119.38738124999925,
                    "velocity": 0.2204724409448819,
                    "duration": 0.1646722499999953
                },
                {
                    "name": "F#4",
                    "midi": 66,
                    "time": 119.55205349999925,
                    "velocity": 0.2283464566929134,
                    "duration": 0.1646722499999953
                },
                {
                    "name": "C5",
                    "midi": 72,
                    "time": 119.71672574999924,
                    "velocity": 0.3543307086614173,
                    "duration": 0.1646722499999953
                },
                {
                    "name": "A#4",
                    "midi": 70,
                    "time": 119.88139799999924,
                    "velocity": 0.4015748031496063,
                    "duration": 0.4940167499999859
                },
                {
                    "name": "D4",
                    "midi": 62,
                    "time": 120.04607024999923,
                    "velocity": 0.2283464566929134,
                    "duration": 0.1646722499999953
                },
                {
                    "name": "F4",
                    "midi": 65,
                    "time": 120.21074249999923,
                    "velocity": 0.2047244094488189,
                    "duration": 0.1646722499999953
                },
                {
                    "name": "A#4",
                    "midi": 70,
                    "time": 120.37541474999922,
                    "velocity": 0.2755905511811024,
                    "duration": 0.1646722499999953
                },
                {
                    "name": "A4",
                    "midi": 69,
                    "time": 120.54008699999922,
                    "velocity": 0.31496062992125984,
                    "duration": 0.4940167499999859
                },
                {
                    "name": "C4",
                    "midi": 60,
                    "time": 120.70475924999921,
                    "velocity": 0.1889763779527559,
                    "duration": 0.1646722499999953
                },
                {
                    "name": "F4",
                    "midi": 65,
                    "time": 120.86943149999921,
                    "velocity": 0.1889763779527559,
                    "duration": 0.1646722499999953
                },
                {
                    "name": "A4",
                    "midi": 69,
                    "time": 121.0341037499992,
                    "velocity": 0.33070866141732286,
                    "duration": 0.1646722499999953
                },
                {
                    "name": "D5",
                    "midi": 74,
                    "time": 121.1987759999992,
                    "velocity": 0.3937007874015748,
                    "duration": 0.4940167499999859
                },
                {
                    "name": "D4",
                    "midi": 62,
                    "time": 121.3634482499992,
                    "velocity": 0.2047244094488189,
                    "duration": 0.1646722499999953
                },
                {
                    "name": "F4",
                    "midi": 65,
                    "time": 121.52812049999919,
                    "velocity": 0.2047244094488189,
                    "duration": 0.1646722499999953
                },
                {
                    "name": "D5",
                    "midi": 74,
                    "time": 121.69279274999919,
                    "velocity": 0.3543307086614173,
                    "duration": 0.1646722499999953
                },
                {
                    "name": "D5",
                    "midi": 74,
                    "time": 121.85746499999918,
                    "velocity": 0.3937007874015748,
                    "duration": 0.4940167499999859
                },
                {
                    "name": "D4",
                    "midi": 62,
                    "time": 122.02213724999918,
                    "velocity": 0.2047244094488189,
                    "duration": 0.1646722499999953
                },
                {
                    "name": "F4",
                    "midi": 65,
                    "time": 122.18680949999917,
                    "velocity": 0.2047244094488189,
                    "duration": 0.1646722499999953
                },
                {
                    "name": "D5",
                    "midi": 74,
                    "time": 122.35148174999917,
                    "velocity": 0.3700787401574803,
                    "duration": 0.1646722499999953
                },
                {
                    "name": "C5",
                    "midi": 72,
                    "time": 122.51615399999916,
                    "velocity": 0.3937007874015748,
                    "duration": 0.4940167499999859
                },
                {
                    "name": "D4",
                    "midi": 62,
                    "time": 122.68082624999916,
                    "velocity": 0.2047244094488189,
                    "duration": 0.1646722499999953
                },
                {
                    "name": "F4",
                    "midi": 65,
                    "time": 122.84549849999915,
                    "velocity": 0.2047244094488189,
                    "duration": 0.1646722499999953
                },
                {
                    "name": "A#4",
                    "midi": 70,
                    "time": 123.01017074999915,
                    "velocity": 0.3543307086614173,
                    "duration": 0.1646722499999953
                },
                {
                    "name": "A#4",
                    "midi": 70,
                    "time": 123.17484299999914,
                    "velocity": 0.3937007874015748,
                    "duration": 0.4940167499999859
                },
                {
                    "name": "D4",
                    "midi": 62,
                    "time": 123.33951524999914,
                    "velocity": 0.2047244094488189,
                    "duration": 0.1646722499999953
                },
                {
                    "name": "F4",
                    "midi": 65,
                    "time": 123.50418749999913,
                    "velocity": 0.2047244094488189,
                    "duration": 0.1646722499999953
                },
                {
                    "name": "C5",
                    "midi": 72,
                    "time": 123.66885974999913,
                    "velocity": 0.36220472440944884,
                    "duration": 0.1646722499999953
                },
                {
                    "name": "A#4",
                    "midi": 70,
                    "time": 123.83353199999912,
                    "velocity": 0.3937007874015748,
                    "duration": 0.4940167499999859
                },
                {
                    "name": "D#4",
                    "midi": 63,
                    "time": 123.99820424999912,
                    "velocity": 0.2204724409448819,
                    "duration": 0.1646722499999953
                },
                {
                    "name": "F4",
                    "midi": 65,
                    "time": 124.16287649999911,
                    "velocity": 0.2204724409448819,
                    "duration": 0.1646722499999953
                },
                {
                    "name": "A4",
                    "midi": 69,
                    "time": 124.32754874999911,
                    "velocity": 0.3779527559055118,
                    "duration": 0.1646722499999953
                },
                {
                    "name": "C5",
                    "midi": 72,
                    "time": 124.4922209999991,
                    "velocity": 0.4094488188976378,
                    "duration": 0.4940167499999859
                },
                {
                    "name": "F4",
                    "midi": 65,
                    "time": 124.6568932499991,
                    "velocity": 0.2204724409448819,
                    "duration": 0.1646722499999953
                },
                {
                    "name": "A4",
                    "midi": 69,
                    "time": 124.8215654999991,
                    "velocity": 0.2283464566929134,
                    "duration": 0.1646722499999953
                },
                {
                    "name": "D5",
                    "midi": 74,
                    "time": 124.98623774999909,
                    "velocity": 0.3937007874015748,
                    "duration": 0.1646722499999953
                },
                {
                    "name": "D#5",
                    "midi": 75,
                    "time": 125.15090999999909,
                    "velocity": 0.4330708661417323,
                    "duration": 0.4940167499999859
                },
                {
                    "name": "A4",
                    "midi": 69,
                    "time": 125.31558224999908,
                    "velocity": 0.25196850393700787,
                    "duration": 0.1646722499999953
                },
                {
                    "name": "C5",
                    "midi": 72,
                    "time": 125.48025449999908,
                    "velocity": 0.25196850393700787,
                    "duration": 0.1646722499999953
                },
                {
                    "name": "F#5",
                    "midi": 78,
                    "time": 125.64492674999907,
                    "velocity": 0.4094488188976378,
                    "duration": 0.1646722499999953
                },
                {
                    "name": "G5",
                    "midi": 79,
                    "time": 125.80959899999907,
                    "velocity": 0.44881889763779526,
                    "duration": 0.4940167499999859
                },
                {
                    "name": "A4",
                    "midi": 69,
                    "time": 125.97427124999906,
                    "velocity": 0.2677165354330709,
                    "duration": 0.1646722499999953
                },
                {
                    "name": "C5",
                    "midi": 72,
                    "time": 126.13894349999906,
                    "velocity": 0.2677165354330709,
                    "duration": 0.1646722499999953
                },
                {
                    "name": "D#5",
                    "midi": 75,
                    "time": 126.30361574999905,
                    "velocity": 0.3937007874015748,
                    "duration": 0.1646722499999953
                },
                {
                    "name": "D5",
                    "midi": 74,
                    "time": 126.46828799999905,
                    "velocity": 0.3937007874015748,
                    "duration": 0.4940167499999859
                },
                {
                    "name": "D4",
                    "midi": 62,
                    "time": 126.63296024999904,
                    "velocity": 0.2047244094488189,
                    "duration": 0.1646722499999953
                },
                {
                    "name": "F4",
                    "midi": 65,
                    "time": 126.79763249999904,
                    "velocity": 0.2047244094488189,
                    "duration": 0.1646722499999953
                },
                {
                    "name": "A4",
                    "midi": 69,
                    "time": 126.96230474999903,
                    "velocity": 0.3543307086614173,
                    "duration": 0.1646722499999953
                },
                {
                    "name": "A#4",
                    "midi": 70,
                    "time": 127.12697699999903,
                    "velocity": 0.3937007874015748,
                    "duration": 0.4940167499999859
                },
                {
                    "name": "D4",
                    "midi": 62,
                    "time": 127.29164924999903,
                    "velocity": 0.25984251968503935,
                    "duration": 0.1646722499999953
                },
                {
                    "name": "F4",
                    "midi": 65,
                    "time": 127.45632149999902,
                    "velocity": 0.25984251968503935,
                    "duration": 0.1646722499999953
                },
                {
                    "name": "C5",
                    "midi": 72,
                    "time": 127.62099374999902,
                    "velocity": 0.41732283464566927,
                    "duration": 0.1646722499999953
                },
                {
                    "name": "C#5",
                    "midi": 73,
                    "time": 127.78566599999901,
                    "velocity": 0.4566929133858268,
                    "duration": 0.4940167500000001
                },
                {
                    "name": "G4",
                    "midi": 67,
                    "time": 127.94347690624902,
                    "velocity": 0.2992125984251969,
                    "duration": 0.1646722500000095
                },
                {
                    "name": "A#4",
                    "midi": 70,
                    "time": 128.11501049999902,
                    "velocity": 0.2992125984251969,
                    "duration": 0.1646722499999953
                },
                {
                    "name": "G5",
                    "midi": 79,
                    "time": 128.27282140624902,
                    "velocity": 0.3543307086614173,
                    "duration": 0.1646722499999953
                },
                {
                    "name": "A5",
                    "midi": 81,
                    "time": 128.444354999999,
                    "velocity": 0.4566929133858268,
                    "duration": 0.4940167499999859
                },
                {
                    "name": "A#4",
                    "midi": 70,
                    "time": 128.609027249999,
                    "velocity": 0.2992125984251969,
                    "duration": 0.1646722499999953
                },
                {
                    "name": "C#5",
                    "midi": 73,
                    "time": 128.773699499999,
                    "velocity": 0.2755905511811024,
                    "duration": 0.1646722499999953
                },
                {
                    "name": "A#5",
                    "midi": 82,
                    "time": 128.931510406249,
                    "velocity": 0.36220472440944884,
                    "duration": 0.1646722499999953
                },
                {
                    "name": "C5",
                    "midi": 72,
                    "time": 129.103043999999,
                    "velocity": 0.4251968503937008,
                    "duration": 0.4940167499999859
                },
                {
                    "name": "F4",
                    "midi": 65,
                    "time": 129.26771624999898,
                    "velocity": 0.2755905511811024,
                    "duration": 0.1646722499999953
                },
                {
                    "name": "A#4",
                    "midi": 70,
                    "time": 129.43238849999898,
                    "velocity": 0.29133858267716534,
                    "duration": 0.1646722499999953
                },
                {
                    "name": "D5",
                    "midi": 74,
                    "time": 129.59706074999897,
                    "velocity": 0.33858267716535434,
                    "duration": 0.1646722499999953
                },
                {
                    "name": "D#5",
                    "midi": 75,
                    "time": 129.76173299999897,
                    "velocity": 0.41732283464566927,
                    "duration": 0.4940167499999859
                },
                {
                    "name": "F4",
                    "midi": 65,
                    "time": 129.92640524999896,
                    "velocity": 0.2440944881889764,
                    "duration": 0.1646722499999953
                },
                {
                    "name": "A4",
                    "midi": 69,
                    "time": 130.09107749999896,
                    "velocity": 0.2440944881889764,
                    "duration": 0.1646722499999953
                },
                {
                    "name": "F5",
                    "midi": 77,
                    "time": 130.25574974999896,
                    "velocity": 0.33858267716535434,
                    "duration": 0.1646722499999953
                },
                {
                    "name": "A#4",
                    "midi": 70,
                    "time": 130.42042199999895,
                    "velocity": 0.4251968503937008,
                    "duration": 0.4940167499999859
                },
                {
                    "name": "D4",
                    "midi": 62,
                    "time": 130.58509424999895,
                    "velocity": 0.2283464566929134,
                    "duration": 0.1646722499999953
                },
                {
                    "name": "F4",
                    "midi": 65,
                    "time": 130.74976649999894,
                    "velocity": 0.2047244094488189,
                    "duration": 0.1646722499999953
                },
                {
                    "name": "A4",
                    "midi": 69,
                    "time": 130.91443874999894,
                    "velocity": 0.25196850393700787,
                    "duration": 0.1646722499999953
                },
                {
                    "name": "A#4",
                    "midi": 70,
                    "time": 131.07224965624894,
                    "velocity": 0.36220472440944884,
                    "duration": 0.4940167499999859
                },
                {
                    "name": "D4",
                    "midi": 62,
                    "time": 131.24378324999893,
                    "velocity": 0.2204724409448819,
                    "duration": 0.1646722499999953
                },
                {
                    "name": "F4",
                    "midi": 65,
                    "time": 131.40845549999892,
                    "velocity": 0.2204724409448819,
                    "duration": 0.1646722499999953
                },
                {
                    "name": "C5",
                    "midi": 72,
                    "time": 131.57312774999892,
                    "velocity": 0.3543307086614173,
                    "duration": 0.1646722499999953
                },
                {
                    "name": "D5",
                    "midi": 74,
                    "time": 131.7377999999989,
                    "velocity": 0.44881889763779526,
                    "duration": 0.4940167499999859
                },
                {
                    "name": "F#4",
                    "midi": 66,
                    "time": 131.9024722499989,
                    "velocity": 0.2283464566929134,
                    "duration": 0.1646722499999953
                },
                {
                    "name": "A4",
                    "midi": 69,
                    "time": 132.0671444999989,
                    "velocity": 0.2283464566929134,
                    "duration": 0.1646722499999953
                },
                {
                    "name": "D#5",
                    "midi": 75,
                    "time": 132.2318167499989,
                    "velocity": 0.4015748031496063,
                    "duration": 0.1646722499999953
                },
                {
                    "name": "D5",
                    "midi": 74,
                    "time": 132.3964889999989,
                    "velocity": 0.44881889763779526,
                    "duration": 0.4940167499999859
                },
                {
                    "name": "F#4",
                    "midi": 66,
                    "time": 132.5611612499989,
                    "velocity": 0.2283464566929134,
                    "duration": 0.1646722499999953
                },
                {
                    "name": "A4",
                    "midi": 69,
                    "time": 132.72583349999888,
                    "velocity": 0.2283464566929134,
                    "duration": 0.1646722499999953
                },
                {
                    "name": "C5",
                    "midi": 72,
                    "time": 132.89050574999888,
                    "velocity": 0.4251968503937008,
                    "duration": 0.1646722499999953
                },
                {
                    "name": "C5",
                    "midi": 72,
                    "time": 133.05517799999888,
                    "velocity": 0.44881889763779526,
                    "duration": 0.4940167499999859
                },
                {
                    "name": "F4",
                    "midi": 65,
                    "time": 133.21985024999887,
                    "velocity": 0.2283464566929134,
                    "duration": 0.1646722499999953
                },
                {
                    "name": "G4",
                    "midi": 67,
                    "time": 133.38452249999887,
                    "velocity": 0.2283464566929134,
                    "duration": 0.1646722499999953
                },
                {
                    "name": "B4",
                    "midi": 71,
                    "time": 133.54919474999886,
                    "velocity": 0.4015748031496063,
                    "duration": 0.1646722499999953
                },
                {
                    "name": "C5",
                    "midi": 72,
                    "time": 133.71386699999886,
                    "velocity": 0.44881889763779526,
                    "duration": 0.4940167499999859
                },
                {
                    "name": "F4",
                    "midi": 65,
                    "time": 133.87853924999885,
                    "velocity": 0.31496062992125984,
                    "duration": 0.1646722499999953
                },
                {
                    "name": "G4",
                    "midi": 67,
                    "time": 134.04321149999885,
                    "velocity": 0.3779527559055118,
                    "duration": 0.1646722499999953
                },
                {
                    "name": "D5",
                    "midi": 74,
                    "time": 134.20788374999884,
                    "velocity": 0.4094488188976378,
                    "duration": 0.1646722499999953
                },
                {
                    "name": "G5",
                    "midi": 79,
                    "time": 134.37255599999884,
                    "velocity": 0.5354330708661418,
                    "duration": 0.4940167499999859
                },
                {
                    "name": "B4",
                    "midi": 71,
                    "time": 134.53722824999883,
                    "velocity": 0.3700787401574803,
                    "duration": 0.1646722499999953
                },
                {
                    "name": "D5",
                    "midi": 74,
                    "time": 134.70190049999883,
                    "velocity": 0.3700787401574803,
                    "duration": 0.1646722499999953
                },
                {
                    "name": "G#5",
                    "midi": 80,
                    "time": 134.86657274999882,
                    "velocity": 0.5196850393700787,
                    "duration": 0.1646722499999953
                },
                {
                    "name": "G5",
                    "midi": 79,
                    "time": 135.03124499999882,
                    "velocity": 0.5669291338582677,
                    "duration": 0.4940167499999859
                },
                {
                    "name": "B4",
                    "midi": 71,
                    "time": 135.19591724999881,
                    "velocity": 0.3700787401574803,
                    "duration": 0.1646722499999953
                },
                {
                    "name": "D5",
                    "midi": 74,
                    "time": 135.3605894999988,
                    "velocity": 0.3700787401574803,
                    "duration": 0.1646722499999953
                },
                {
                    "name": "F5",
                    "midi": 77,
                    "time": 135.5252617499988,
                    "velocity": 0.49606299212598426,
                    "duration": 0.1646722499999953
                },
                {
                    "name": "F5",
                    "midi": 77,
                    "time": 135.6899339999988,
                    "velocity": 0.5511811023622047,
                    "duration": 0.4940167499999859
                },
                {
                    "name": "G4",
                    "midi": 67,
                    "time": 135.8546062499988,
                    "velocity": 0.28346456692913385,
                    "duration": 0.1646722499999953
                },
                {
                    "name": "A#4",
                    "midi": 70,
                    "time": 136.0192784999988,
                    "velocity": 0.3228346456692913,
                    "duration": 0.1646722499999953
                },
                {
                    "name": "E5",
                    "midi": 76,
                    "time": 136.1839507499988,
                    "velocity": 0.4645669291338583,
                    "duration": 0.1646722499999953
                },
                {
                    "name": "D5",
                    "midi": 74,
                    "time": 136.34862299999878,
                    "velocity": 0.5118110236220472,
                    "duration": 0.4940167499999859
                },
                {
                    "name": "E4",
                    "midi": 64,
                    "time": 136.51329524999878,
                    "velocity": 0.30708661417322836,
                    "duration": 0.1646722499999953
                },
                {
                    "name": "A#4",
                    "midi": 70,
                    "time": 136.67796749999877,
                    "velocity": 0.30708661417322836,
                    "duration": 0.1646722499999953
                },
                {
                    "name": "C5",
                    "midi": 72,
                    "time": 136.84263974999877,
                    "velocity": 0.44881889763779526,
                    "duration": 0.1646722499999953
                },
                {
                    "name": "C5",
                    "midi": 72,
                    "time": 137.00731199999876,
                    "velocity": 0.5196850393700787,
                    "duration": 0.4940167499999859
                },
                {
                    "name": "F4",
                    "midi": 65,
                    "time": 137.17198424999876,
                    "velocity": 0.33858267716535434,
                    "duration": 0.1646722499999953
                },
                {
                    "name": "A4",
                    "midi": 69,
                    "time": 137.33665649999875,
                    "velocity": 0.33858267716535434,
                    "duration": 0.1646722499999953
                },
                {
                    "name": "D5",
                    "midi": 74,
                    "time": 137.50132874999875,
                    "velocity": 0.4566929133858268,
                    "duration": 0.1646722499999953
                },
                {
                    "name": "E5",
                    "midi": 76,
                    "time": 137.66600099999874,
                    "velocity": 0.5275590551181102,
                    "duration": 0.4940167499999859
                },
                {
                    "name": "A4",
                    "midi": 69,
                    "time": 137.83067324999874,
                    "velocity": 0.3228346456692913,
                    "duration": 0.1646722499999953
                },
                {
                    "name": "C5",
                    "midi": 72,
                    "time": 137.99534549999873,
                    "velocity": 0.36220472440944884,
                    "duration": 0.1646722499999953
                },
                {
                    "name": "F5",
                    "midi": 77,
                    "time": 138.16001774999873,
                    "velocity": 0.5118110236220472,
                    "duration": 0.1646722499999953
                },
                {
                    "name": "F5",
                    "midi": 77,
                    "time": 138.32468999999872,
                    "velocity": 0.5748031496062992,
                    "duration": 0.4940167499999859
                },
                {
                    "name": "F4",
                    "midi": 65,
                    "time": 138.48936224999872,
                    "velocity": 0.28346456692913385,
                    "duration": 0.1646722499999953
                },
                {
                    "name": "A#4",
                    "midi": 70,
                    "time": 138.65403449999872,
                    "velocity": 0.28346456692913385,
                    "duration": 0.1646722499999953
                },
                {
                    "name": "D5",
                    "midi": 74,
                    "time": 138.8187067499987,
                    "velocity": 0.44881889763779526,
                    "duration": 0.1646722499999953
                },
                {
                    "name": "C5",
                    "midi": 72,
                    "time": 138.9833789999987,
                    "velocity": 0.5118110236220472,
                    "duration": 0.4940167499999859
                },
                {
                    "name": "F#4",
                    "midi": 66,
                    "time": 139.1480512499987,
                    "velocity": 0.2283464566929134,
                    "duration": 0.1646722499999953
                },
                {
                    "name": "G4",
                    "midi": 67,
                    "time": 139.3127234999987,
                    "velocity": 0.2283464566929134,
                    "duration": 0.1646722499999953
                },
                {
                    "name": "A#4",
                    "midi": 70,
                    "time": 139.4773957499987,
                    "velocity": 0.4094488188976378,
                    "duration": 0.1646722499999953
                },
                {
                    "name": "A4",
                    "midi": 69,
                    "time": 139.6420679999987,
                    "velocity": 0.44881889763779526,
                    "duration": 0.4940167499999859
                },
                {
                    "name": "C4",
                    "midi": 60,
                    "time": 139.80674024999868,
                    "velocity": 0.25196850393700787,
                    "duration": 0.1646722499999953
                },
                {
                    "name": "F4",
                    "midi": 65,
                    "time": 139.97141249999868,
                    "velocity": 0.25196850393700787,
                    "duration": 0.1646722499999953
                },
                {
                    "name": "A#4",
                    "midi": 70,
                    "time": 140.13608474999867,
                    "velocity": 0.4330708661417323,
                    "duration": 0.1646722499999953
                },
                {
                    "name": "G4",
                    "midi": 67,
                    "time": 140.30075699999867,
                    "velocity": 0.4645669291338583,
                    "duration": 0.4940167499999859
                },
                {
                    "name": "C4",
                    "midi": 60,
                    "time": 140.46542924999866,
                    "velocity": 0.25196850393700787,
                    "duration": 0.1646722499999953
                },
                {
                    "name": "E4",
                    "midi": 64,
                    "time": 140.63010149999866,
                    "velocity": 0.25984251968503935,
                    "duration": 0.1646722499999953
                },
                {
                    "name": "C5",
                    "midi": 72,
                    "time": 140.79477374999865,
                    "velocity": 0.4015748031496063,
                    "duration": 0.1646722499999953
                },
                {
                    "name": "F4",
                    "midi": 65,
                    "time": 140.95944599999865,
                    "velocity": 0.4566929133858268,
                    "duration": 0.4940167499999859
                },
                {
                    "name": "C4",
                    "midi": 60,
                    "time": 141.12411824999865,
                    "velocity": 0.25984251968503935,
                    "duration": 0.1646722499999953
                },
                {
                    "name": "F4",
                    "midi": 65,
                    "time": 141.28879049999864,
                    "velocity": 0.2283464566929134,
                    "duration": 0.1646722499999953
                },
                {
                    "name": "A4",
                    "midi": 69,
                    "time": 141.45346274999864,
                    "velocity": 0.2755905511811024,
                    "duration": 0.1646722499999953
                },
                {
                    "name": "C5",
                    "midi": 72,
                    "time": 141.61813499999863,
                    "velocity": 0.31496062992125984,
                    "duration": 0.3293444999999906
                },
                {
                    "name": "F4",
                    "midi": 65,
                    "time": 141.78280724999863,
                    "velocity": 0.1889763779527559,
                    "duration": 0.1646722499999953
                },
                {
                    "name": "C#5",
                    "midi": 73,
                    "time": 141.94747949999862,
                    "velocity": 0.33070866141732286,
                    "duration": 0.3293444999999906
                },
                {
                    "name": "F4",
                    "midi": 65,
                    "time": 142.11215174999862,
                    "velocity": 0.1889763779527559,
                    "duration": 0.1646722499999953
                },
                {
                    "name": "D5",
                    "midi": 74,
                    "time": 142.2768239999986,
                    "velocity": 0.3937007874015748,
                    "duration": 0.4940167499999859
                },
                {
                    "name": "D4",
                    "midi": 62,
                    "time": 142.4414962499986,
                    "velocity": 0.2047244094488189,
                    "duration": 0.1646722499999953
                },
                {
                    "name": "F4",
                    "midi": 65,
                    "time": 142.6061684999986,
                    "velocity": 0.2047244094488189,
                    "duration": 0.1646722499999953
                },
                {
                    "name": "D5",
                    "midi": 74,
                    "time": 142.7708407499986,
                    "velocity": 0.3543307086614173,
                    "duration": 0.1646722499999953
                },
                {
                    "name": "D5",
                    "midi": 74,
                    "time": 142.9355129999986,
                    "velocity": 0.3937007874015748,
                    "duration": 0.4940167499999859
                },
                {
                    "name": "D4",
                    "midi": 62,
                    "time": 143.1001852499986,
                    "velocity": 0.2047244094488189,
                    "duration": 0.1646722499999953
                },
                {
                    "name": "F4",
                    "midi": 65,
                    "time": 143.26485749999858,
                    "velocity": 0.2047244094488189,
                    "duration": 0.1646722499999953
                },
                {
                    "name": "D5",
                    "midi": 74,
                    "time": 143.42952974999858,
                    "velocity": 0.3700787401574803,
                    "duration": 0.1646722499999953
                },
                {
                    "name": "C5",
                    "midi": 72,
                    "time": 143.59420199999857,
                    "velocity": 0.3937007874015748,
                    "duration": 0.4940167499999859
                },
                {
                    "name": "F4",
                    "midi": 65,
                    "time": 143.75887424999857,
                    "velocity": 0.2047244094488189,
                    "duration": 0.1646722499999953
                },
                {
                    "name": "G#4",
                    "midi": 68,
                    "time": 143.92354649999857,
                    "velocity": 0.2047244094488189,
                    "duration": 0.1646722499999953
                },
                {
                    "name": "A#4",
                    "midi": 70,
                    "time": 144.08821874999856,
                    "velocity": 0.3543307086614173,
                    "duration": 0.1646722499999953
                },
                {
                    "name": "A#4",
                    "midi": 70,
                    "time": 144.25289099999856,
                    "velocity": 0.3937007874015748,
                    "duration": 0.4940167499999859
                },
                {
                    "name": "F4",
                    "midi": 65,
                    "time": 144.41756324999855,
                    "velocity": 0.2047244094488189,
                    "duration": 0.1646722499999953
                },
                {
                    "name": "G#4",
                    "midi": 68,
                    "time": 144.58223549999855,
                    "velocity": 0.2047244094488189,
                    "duration": 0.1646722499999953
                },
                {
                    "name": "C5",
                    "midi": 72,
                    "time": 144.74690774999854,
                    "velocity": 0.36220472440944884,
                    "duration": 0.1646722499999953
                },
                {
                    "name": "A#4",
                    "midi": 70,
                    "time": 144.91157999999854,
                    "velocity": 0.3937007874015748,
                    "duration": 0.4940167499999859
                },
                {
                    "name": "F#4",
                    "midi": 66,
                    "time": 145.07625224999853,
                    "velocity": 0.25196850393700787,
                    "duration": 0.1646722499999953
                },
                {
                    "name": "G4",
                    "midi": 67,
                    "time": 145.24092449999853,
                    "velocity": 0.25984251968503935,
                    "duration": 0.1646722499999953
                },
                {
                    "name": "C5",
                    "midi": 72,
                    "time": 145.40559674999852,
                    "velocity": 0.3779527559055118,
                    "duration": 0.1646722499999953
                },
                {
                    "name": "D5",
                    "midi": 74,
                    "time": 145.57026899999852,
                    "velocity": 0.44881889763779526,
                    "duration": 0.4940167499999859
                },
                {
                    "name": "G4",
                    "midi": 67,
                    "time": 145.7349412499985,
                    "velocity": 0.3228346456692913,
                    "duration": 0.1646722499999953
                },
                {
                    "name": "A#4",
                    "midi": 70,
                    "time": 145.8996134999985,
                    "velocity": 0.33858267716535434,
                    "duration": 0.1646722499999953
                },
                {
                    "name": "D#5",
                    "midi": 75,
                    "time": 146.0642857499985,
                    "velocity": 0.48031496062992124,
                    "duration": 0.1646722499999953
                },
                {
                    "name": "F#5",
                    "midi": 78,
                    "time": 146.2289579999985,
                    "velocity": 0.5511811023622047,
                    "duration": 0.4940167499999859
                },
                {
                    "name": "A#4",
                    "midi": 70,
                    "time": 146.3936302499985,
                    "velocity": 0.3228346456692913,
                    "duration": 0.1646722499999953
                },
                {
                    "name": "C#5",
                    "midi": 73,
                    "time": 146.5583024999985,
                    "velocity": 0.3228346456692913,
                    "duration": 0.1646722499999953
                },
                {
                    "name": "G5",
                    "midi": 79,
                    "time": 146.72297474999849,
                    "velocity": 0.4409448818897638,
                    "duration": 0.1646722499999953
                },
                {
                    "name": "A5",
                    "midi": 81,
                    "time": 146.88764699999848,
                    "velocity": 0.49606299212598426,
                    "duration": 0.4940167499999859
                },
                {
                    "name": "A#4",
                    "midi": 70,
                    "time": 147.05231924999848,
                    "velocity": 0.2677165354330709,
                    "duration": 0.1646722499999953
                },
                {
                    "name": "C#5",
                    "midi": 73,
                    "time": 147.21699149999847,
                    "velocity": 0.2677165354330709,
                    "duration": 0.1646722499999953
                },
                {
                    "name": "A#5",
                    "midi": 82,
                    "time": 147.38166374999847,
                    "velocity": 0.36220472440944884,
                    "duration": 0.1646722499999953
                },
                {
                    "name": "C5",
                    "midi": 72,
                    "time": 147.54633599999846,
                    "velocity": 0.3937007874015748,
                    "duration": 0.4940167499999859
                },
                {
                    "name": "E4",
                    "midi": 64,
                    "time": 147.71100824999846,
                    "velocity": 0.2047244094488189,
                    "duration": 0.1646722499999953
                },
                {
                    "name": "A#4",
                    "midi": 70,
                    "time": 147.87568049999845,
                    "velocity": 0.2047244094488189,
                    "duration": 0.1646722499999953
                },
                {
                    "name": "D5",
                    "midi": 74,
                    "time": 148.04035274999845,
                    "velocity": 0.3543307086614173,
                    "duration": 0.1646722499999953
                },
                {
                    "name": "C5",
                    "midi": 72,
                    "time": 148.20502499999844,
                    "velocity": 0.3937007874015748,
                    "duration": 0.4940167499999859
                },
                {
                    "name": "E4",
                    "midi": 64,
                    "time": 148.36969724999844,
                    "velocity": 0.2047244094488189,
                    "duration": 0.1646722499999953
                },
                {
                    "name": "A#4",
                    "midi": 70,
                    "time": 148.53436949999843,
                    "velocity": 0.2047244094488189,
                    "duration": 0.1646722499999953
                },
                {
                    "name": "C#5",
                    "midi": 73,
                    "time": 148.69904174999843,
                    "velocity": 0.41732283464566927,
                    "duration": 0.1646722499999953
                },
                {
                    "name": "D5",
                    "midi": 74,
                    "time": 148.86371399999842,
                    "velocity": 0.4566929133858268,
                    "duration": 0.4940167499999859
                },
                {
                    "name": "F4",
                    "midi": 65,
                    "time": 149.02838624999842,
                    "velocity": 0.2992125984251969,
                    "duration": 0.1646722499999953
                },
                {
                    "name": "A#4",
                    "midi": 70,
                    "time": 149.19305849999841,
                    "velocity": 0.2992125984251969,
                    "duration": 0.1646722499999953
                },
                {
                    "name": "D5",
                    "midi": 74,
                    "time": 149.3577307499984,
                    "velocity": 0.3543307086614173,
                    "duration": 0.1646722499999953
                },
                {
                    "name": "D#5",
                    "midi": 75,
                    "time": 149.5224029999984,
                    "velocity": 0.4330708661417323,
                    "duration": 0.3293444999999906
                },
                {
                    "name": "F4",
                    "midi": 65,
                    "time": 149.6870752499984,
                    "velocity": 0.2755905511811024,
                    "duration": 0.1646722499999953
                },
                {
                    "name": "D5",
                    "midi": 74,
                    "time": 149.8517474999984,
                    "velocity": 0.4881889763779528,
                    "duration": 0.1646722499999953
                },
                {
                    "name": "F5",
                    "midi": 77,
                    "time": 150.0164197499984,
                    "velocity": 0.4645669291338583,
                    "duration": 0.1646722499999953
                },
                {
                    "name": "F5",
                    "midi": 77,
                    "time": 150.1810919999984,
                    "velocity": 0.5039370078740157,
                    "duration": 0.4940167499999859
                },
                {
                    "name": "F4",
                    "midi": 65,
                    "time": 150.34576424999838,
                    "velocity": 0.2204724409448819,
                    "duration": 0.1646722499999953
                },
                {
                    "name": "C5",
                    "midi": 72,
                    "time": 150.51043649999838,
                    "velocity": 0.2204724409448819,
                    "duration": 0.1646722499999953
                },
                {
                    "name": "D#5",
                    "midi": 75,
                    "time": 150.67510874999837,
                    "velocity": 0.33858267716535434,
                    "duration": 0.1646722499999953
                },
                {
                    "name": "D5",
                    "midi": 74,
                    "time": 150.83978099999837,
                    "velocity": 0.3858267716535433,
                    "duration": 0.4940167499999859
                },
                {
                    "name": "F4",
                    "midi": 65,
                    "time": 151.00445324999836,
                    "velocity": 0.2204724409448819,
                    "duration": 0.1646722499999953
                },
                {
                    "name": "A4",
                    "midi": 69,
                    "time": 151.16912549999836,
                    "velocity": 0.2283464566929134,
                    "duration": 0.1646722499999953
                },
                {
                    "name": "C5",
                    "midi": 72,
                    "time": 151.33379774999835,
                    "velocity": 0.33858267716535434,
                    "duration": 0.1646722499999953
                },
                {
                    "name": "A#4",
                    "midi": 70,
                    "time": 151.49846999999835,
                    "velocity": 0.3937007874015748,
                    "duration": 0.4940167499999859
                },
                {
                    "name": "D4",
                    "midi": 62,
                    "time": 151.66314224999834,
                    "velocity": 0.2283464566929134,
                    "duration": 0.1646722499999953
                },
                {
                    "name": "F4",
                    "midi": 65,
                    "time": 151.82781449999834,
                    "velocity": 0.2047244094488189,
                    "duration": 0.1646722499999953
                },
                {
                    "name": "A4",
                    "midi": 69,
                    "time": 151.99248674999833,
                    "velocity": 0.25196850393700787,
                    "duration": 0.1646722499999953
                },
                {
                    "name": "A#4",
                    "midi": 70,
                    "time": 152.15029765624834,
                    "velocity": 0.2992125984251969,
                    "duration": 0.4940167499999859
                },
                {
                    "name": "D4",
                    "midi": 62,
                    "time": 152.32183124999833,
                    "velocity": 0.1889763779527559,
                    "duration": 0.1646722499999953
                },
                {
                    "name": "F4",
                    "midi": 65,
                    "time": 152.48650349999832,
                    "velocity": 0.1889763779527559,
                    "duration": 0.1646722499999953
                },
                {
                    "name": "C5",
                    "midi": 72,
                    "time": 152.65117574999832,
                    "velocity": 0.30708661417322836,
                    "duration": 0.1646722499999953
                },
                {
                    "name": "D5",
                    "midi": 74,
                    "time": 152.8158479999983,
                    "velocity": 0.44881889763779526,
                    "duration": 0.4940167499999859
                },
                {
                    "name": "F#4",
                    "midi": 66,
                    "time": 152.9805202499983,
                    "velocity": 0.2283464566929134,
                    "duration": 0.1646722499999953
                },
                {
                    "name": "A4",
                    "midi": 69,
                    "time": 153.1451924999983,
                    "velocity": 0.2283464566929134,
                    "duration": 0.1646722499999953
                },
                {
                    "name": "D#5",
                    "midi": 75,
                    "time": 153.3098647499983,
                    "velocity": 0.4015748031496063,
                    "duration": 0.1646722499999953
                },
                {
                    "name": "D5",
                    "midi": 74,
                    "time": 153.4745369999983,
                    "velocity": 0.44881889763779526,
                    "duration": 0.4940167499999859
                },
                {
                    "name": "F#4",
                    "midi": 66,
                    "time": 153.6392092499983,
                    "velocity": 0.2283464566929134,
                    "duration": 0.1646722499999953
                },
                {
                    "name": "A4",
                    "midi": 69,
                    "time": 153.80388149999828,
                    "velocity": 0.2283464566929134,
                    "duration": 0.1646722499999953
                },
                {
                    "name": "C5",
                    "midi": 72,
                    "time": 153.96855374999828,
                    "velocity": 0.4251968503937008,
                    "duration": 0.1646722499999953
                },
                {
                    "name": "C5",
                    "midi": 72,
                    "time": 154.13322599999827,
                    "velocity": 0.44881889763779526,
                    "duration": 0.4940167499999859
                },
                {
                    "name": "F4",
                    "midi": 65,
                    "time": 154.29789824999827,
                    "velocity": 0.2283464566929134,
                    "duration": 0.1646722499999953
                },
                {
                    "name": "G4",
                    "midi": 67,
                    "time": 154.46257049999826,
                    "velocity": 0.2283464566929134,
                    "duration": 0.1646722499999953
                },
                {
                    "name": "B4",
                    "midi": 71,
                    "time": 154.62724274999826,
                    "velocity": 0.4015748031496063,
                    "duration": 0.1646722499999953
                },
                {
                    "name": "C5",
                    "midi": 72,
                    "time": 154.79191499999826,
                    "velocity": 0.44881889763779526,
                    "duration": 0.4940167499999859
                },
                {
                    "name": "F4",
                    "midi": 65,
                    "time": 154.95658724999825,
                    "velocity": 0.31496062992125984,
                    "duration": 0.1646722499999953
                },
                {
                    "name": "G4",
                    "midi": 67,
                    "time": 155.12125949999825,
                    "velocity": 0.3779527559055118,
                    "duration": 0.1646722499999953
                },
                {
                    "name": "D5",
                    "midi": 74,
                    "time": 155.28593174999824,
                    "velocity": 0.4094488188976378,
                    "duration": 0.1646722499999953
                },
                {
                    "name": "G5",
                    "midi": 79,
                    "time": 155.45060399999824,
                    "velocity": 0.5196850393700787,
                    "duration": 0.4940167499999859
                },
                {
                    "name": "B4",
                    "midi": 71,
                    "time": 155.61527624999823,
                    "velocity": 0.3700787401574803,
                    "duration": 0.1646722499999953
                },
                {
                    "name": "D5",
                    "midi": 74,
                    "time": 155.77994849999823,
                    "velocity": 0.3700787401574803,
                    "duration": 0.1646722499999953
                },
                {
                    "name": "G#5",
                    "midi": 80,
                    "time": 155.94462074999822,
                    "velocity": 0.5039370078740157,
                    "duration": 0.1646722499999953
                },
                {
                    "name": "G5",
                    "midi": 79,
                    "time": 156.10929299999822,
                    "velocity": 0.5748031496062992,
                    "duration": 0.4940167499999859
                },
                {
                    "name": "B4",
                    "midi": 71,
                    "time": 156.2739652499982,
                    "velocity": 0.3700787401574803,
                    "duration": 0.1646722499999953
                },
                {
                    "name": "D5",
                    "midi": 74,
                    "time": 156.4386374999982,
                    "velocity": 0.3700787401574803,
                    "duration": 0.1646722499999953
                },
                {
                    "name": "F5",
                    "midi": 77,
                    "time": 156.6033097499982,
                    "velocity": 0.49606299212598426,
                    "duration": 0.1646722499999953
                },
                {
                    "name": "F5",
                    "midi": 77,
                    "time": 156.7679819999982,
                    "velocity": 0.5511811023622047,
                    "duration": 0.4940167499999859
                },
                {
                    "name": "G4",
                    "midi": 67,
                    "time": 156.9326542499982,
                    "velocity": 0.28346456692913385,
                    "duration": 0.1646722499999953
                },
                {
                    "name": "A#4",
                    "midi": 70,
                    "time": 157.0973264999982,
                    "velocity": 0.3228346456692913,
                    "duration": 0.1646722499999953
                },
                {
                    "name": "E5",
                    "midi": 76,
                    "time": 157.26199874999818,
                    "velocity": 0.4645669291338583,
                    "duration": 0.1646722499999953
                },
                {
                    "name": "D5",
                    "midi": 74,
                    "time": 157.42667099999818,
                    "velocity": 0.5118110236220472,
                    "duration": 0.4940167499999859
                },
                {
                    "name": "E4",
                    "midi": 64,
                    "time": 157.59134324999818,
                    "velocity": 0.30708661417322836,
                    "duration": 0.1646722499999953
                },
                {
                    "name": "A#4",
                    "midi": 70,
                    "time": 157.75601549999817,
                    "velocity": 0.30708661417322836,
                    "duration": 0.1646722499999953
                },
                {
                    "name": "C5",
                    "midi": 72,
                    "time": 157.92068774999817,
                    "velocity": 0.44881889763779526,
                    "duration": 0.1646722499999953
                },
                {
                    "name": "C5",
                    "midi": 72,
                    "time": 158.08535999999816,
                    "velocity": 0.5196850393700787,
                    "duration": 0.4940167499999859
                },
                {
                    "name": "F4",
                    "midi": 65,
                    "time": 158.25003224999816,
                    "velocity": 0.33858267716535434,
                    "duration": 0.1646722499999953
                },
                {
                    "name": "A4",
                    "midi": 69,
                    "time": 158.41470449999815,
                    "velocity": 0.33858267716535434,
                    "duration": 0.1646722499999953
                },
                {
                    "name": "D5",
                    "midi": 74,
                    "time": 158.57937674999815,
                    "velocity": 0.4566929133858268,
                    "duration": 0.1646722499999953
                },
                {
                    "name": "E5",
                    "midi": 76,
                    "time": 158.74404899999814,
                    "velocity": 0.5275590551181102,
                    "duration": 0.4940167499999859
                },
                {
                    "name": "A4",
                    "midi": 69,
                    "time": 158.90872124999814,
                    "velocity": 0.3228346456692913,
                    "duration": 0.1646722499999953
                },
                {
                    "name": "C5",
                    "midi": 72,
                    "time": 159.07339349999813,
                    "velocity": 0.36220472440944884,
                    "duration": 0.1646722499999953
                },
                {
                    "name": "F5",
                    "midi": 77,
                    "time": 159.23806574999813,
                    "velocity": 0.5118110236220472,
                    "duration": 0.1646722499999953
                },
                {
                    "name": "F5",
                    "midi": 77,
                    "time": 159.40273799999812,
                    "velocity": 0.5748031496062992,
                    "duration": 0.4940167499999859
                },
                {
                    "name": "F4",
                    "midi": 65,
                    "time": 159.56741024999812,
                    "velocity": 0.28346456692913385,
                    "duration": 0.1646722499999953
                },
                {
                    "name": "A#4",
                    "midi": 70,
                    "time": 159.7320824999981,
                    "velocity": 0.28346456692913385,
                    "duration": 0.1646722499999953
                },
                {
                    "name": "D5",
                    "midi": 74,
                    "time": 159.8967547499981,
                    "velocity": 0.44881889763779526,
                    "duration": 0.1646722499999953
                },
                {
                    "name": "C5",
                    "midi": 72,
                    "time": 160.0614269999981,
                    "velocity": 0.5118110236220472,
                    "duration": 0.4940167499999859
                },
                {
                    "name": "F#4",
                    "midi": 66,
                    "time": 160.2260992499981,
                    "velocity": 0.2283464566929134,
                    "duration": 0.1646722499999953
                },
                {
                    "name": "G4",
                    "midi": 67,
                    "time": 160.3907714999981,
                    "velocity": 0.2283464566929134,
                    "duration": 0.1646722499999953
                },
                {
                    "name": "A#4",
                    "midi": 70,
                    "time": 160.5554437499981,
                    "velocity": 0.4094488188976378,
                    "duration": 0.1646722499999953
                },
                {
                    "name": "A4",
                    "midi": 69,
                    "time": 160.7201159999981,
                    "velocity": 0.44881889763779526,
                    "duration": 0.4940167499999859
                },
                {
                    "name": "C4",
                    "midi": 60,
                    "time": 160.88478824999808,
                    "velocity": 0.25196850393700787,
                    "duration": 0.1646722499999953
                },
                {
                    "name": "F4",
                    "midi": 65,
                    "time": 161.04946049999808,
                    "velocity": 0.25196850393700787,
                    "duration": 0.1646722499999953
                },
                {
                    "name": "A#4",
                    "midi": 70,
                    "time": 161.21413274999807,
                    "velocity": 0.4330708661417323,
                    "duration": 0.1646722499999953
                },
                {
                    "name": "G4",
                    "midi": 67,
                    "time": 161.37880499999807,
                    "velocity": 0.4645669291338583,
                    "duration": 0.4940167499999859
                },
                {
                    "name": "C4",
                    "midi": 60,
                    "time": 161.54347724999806,
                    "velocity": 0.25196850393700787,
                    "duration": 0.1646722499999953
                },
                {
                    "name": "E4",
                    "midi": 64,
                    "time": 161.70814949999806,
                    "velocity": 0.25984251968503935,
                    "duration": 0.1646722499999953
                },
                {
                    "name": "C5",
                    "midi": 72,
                    "time": 161.87282174999805,
                    "velocity": 0.4015748031496063,
                    "duration": 0.1646722499999953
                },
                {
                    "name": "F4",
                    "midi": 65,
                    "time": 162.03749399999805,
                    "velocity": 0.4566929133858268,
                    "duration": 0.4940167499999859
                },
                {
                    "name": "C4",
                    "midi": 60,
                    "time": 162.20216624999804,
                    "velocity": 0.25984251968503935,
                    "duration": 0.1646722499999953
                },
                {
                    "name": "F4",
                    "midi": 65,
                    "time": 162.36683849999804,
                    "velocity": 0.2283464566929134,
                    "duration": 0.1646722499999953
                },
                {
                    "name": "A4",
                    "midi": 69,
                    "time": 162.53151074999803,
                    "velocity": 0.31496062992125984,
                    "duration": 0.1646722499999953
                },
                {
                    "name": "C5",
                    "midi": 72,
                    "time": 162.69618299999803,
                    "velocity": 0.31496062992125984,
                    "duration": 0.3293444999999906
                },
                {
                    "name": "F4",
                    "midi": 65,
                    "time": 162.86085524999802,
                    "velocity": 0.1889763779527559,
                    "duration": 0.1646722499999953
                },
                {
                    "name": "C#5",
                    "midi": 73,
                    "time": 163.02552749999802,
                    "velocity": 0.33070866141732286,
                    "duration": 0.3293444999999906
                },
                {
                    "name": "F4",
                    "midi": 65,
                    "time": 163.19019974999802,
                    "velocity": 0.1889763779527559,
                    "duration": 0.1646722499999953
                },
                {
                    "name": "D5",
                    "midi": 74,
                    "time": 163.354871999998,
                    "velocity": 0.3937007874015748,
                    "duration": 0.4940167499999859
                },
                {
                    "name": "D4",
                    "midi": 62,
                    "time": 163.519544249998,
                    "velocity": 0.2047244094488189,
                    "duration": 0.1646722499999953
                },
                {
                    "name": "F4",
                    "midi": 65,
                    "time": 163.684216499998,
                    "velocity": 0.2047244094488189,
                    "duration": 0.1646722499999953
                },
                {
                    "name": "D5",
                    "midi": 74,
                    "time": 163.848888749998,
                    "velocity": 0.3543307086614173,
                    "duration": 0.1646722499999953
                },
                {
                    "name": "D5",
                    "midi": 74,
                    "time": 164.013560999998,
                    "velocity": 0.3937007874015748,
                    "duration": 0.4940167499999859
                },
                {
                    "name": "D4",
                    "midi": 62,
                    "time": 164.178233249998,
                    "velocity": 0.2047244094488189,
                    "duration": 0.1646722499999953
                },
                {
                    "name": "F4",
                    "midi": 65,
                    "time": 164.34290549999798,
                    "velocity": 0.2047244094488189,
                    "duration": 0.1646722499999953
                },
                {
                    "name": "D5",
                    "midi": 74,
                    "time": 164.50757774999798,
                    "velocity": 0.3700787401574803,
                    "duration": 0.1646722499999953
                },
                {
                    "name": "C5",
                    "midi": 72,
                    "time": 164.67224999999797,
                    "velocity": 0.3937007874015748,
                    "duration": 0.4940167499999859
                },
                {
                    "name": "F4",
                    "midi": 65,
                    "time": 164.83692224999797,
                    "velocity": 0.2047244094488189,
                    "duration": 0.1646722499999953
                },
                {
                    "name": "G#4",
                    "midi": 68,
                    "time": 165.00159449999796,
                    "velocity": 0.2047244094488189,
                    "duration": 0.1646722499999953
                },
                {
                    "name": "A#4",
                    "midi": 70,
                    "time": 165.16626674999796,
                    "velocity": 0.3543307086614173,
                    "duration": 0.1646722499999953
                },
                {
                    "name": "A#4",
                    "midi": 70,
                    "time": 165.33093899999795,
                    "velocity": 0.3937007874015748,
                    "duration": 0.4940167499999859
                },
                {
                    "name": "F4",
                    "midi": 65,
                    "time": 165.49561124999795,
                    "velocity": 0.2047244094488189,
                    "duration": 0.1646722499999953
                },
                {
                    "name": "G#4",
                    "midi": 68,
                    "time": 165.66028349999795,
                    "velocity": 0.2047244094488189,
                    "duration": 0.1646722499999953
                },
                {
                    "name": "C5",
                    "midi": 72,
                    "time": 165.82495574999794,
                    "velocity": 0.36220472440944884,
                    "duration": 0.1646722499999953
                },
                {
                    "name": "A#4",
                    "midi": 70,
                    "time": 165.98962799999794,
                    "velocity": 0.3937007874015748,
                    "duration": 0.4940167499999859
                },
                {
                    "name": "F#4",
                    "midi": 66,
                    "time": 166.15430024999793,
                    "velocity": 0.25196850393700787,
                    "duration": 0.1646722499999953
                },
                {
                    "name": "G4",
                    "midi": 67,
                    "time": 166.31897249999793,
                    "velocity": 0.25984251968503935,
                    "duration": 0.1646722499999953
                },
                {
                    "name": "C5",
                    "midi": 72,
                    "time": 166.48364474999792,
                    "velocity": 0.3779527559055118,
                    "duration": 0.1646722499999953
                },
                {
                    "name": "D5",
                    "midi": 74,
                    "time": 166.64831699999792,
                    "velocity": 0.44881889763779526,
                    "duration": 0.4940167499999859
                },
                {
                    "name": "G4",
                    "midi": 67,
                    "time": 166.8129892499979,
                    "velocity": 0.3228346456692913,
                    "duration": 0.1646722499999953
                },
                {
                    "name": "A#4",
                    "midi": 70,
                    "time": 166.9776614999979,
                    "velocity": 0.33858267716535434,
                    "duration": 0.1646722499999953
                },
                {
                    "name": "D#5",
                    "midi": 75,
                    "time": 167.1423337499979,
                    "velocity": 0.48031496062992124,
                    "duration": 0.1646722499999953
                },
                {
                    "name": "F#5",
                    "midi": 78,
                    "time": 167.3070059999979,
                    "velocity": 0.5511811023622047,
                    "duration": 0.4940167499999859
                },
                {
                    "name": "A#4",
                    "midi": 70,
                    "time": 167.4716782499979,
                    "velocity": 0.3228346456692913,
                    "duration": 0.1646722499999953
                },
                {
                    "name": "C#5",
                    "midi": 73,
                    "time": 167.6363504999979,
                    "velocity": 0.3228346456692913,
                    "duration": 0.1646722499999953
                },
                {
                    "name": "G5",
                    "midi": 79,
                    "time": 167.80102274999788,
                    "velocity": 0.4409448818897638,
                    "duration": 0.1646722499999953
                },
                {
                    "name": "A5",
                    "midi": 81,
                    "time": 167.96569499999788,
                    "velocity": 0.49606299212598426,
                    "duration": 0.4940167499999859
                },
                {
                    "name": "A#4",
                    "midi": 70,
                    "time": 168.13036724999787,
                    "velocity": 0.2677165354330709,
                    "duration": 0.1646722499999953
                },
                {
                    "name": "C#5",
                    "midi": 73,
                    "time": 168.29503949999787,
                    "velocity": 0.2677165354330709,
                    "duration": 0.1646722499999953
                },
                {
                    "name": "A#5",
                    "midi": 82,
                    "time": 168.45971174999787,
                    "velocity": 0.36220472440944884,
                    "duration": 0.1646722499999953
                },
                {
                    "name": "C5",
                    "midi": 72,
                    "time": 168.62438399999786,
                    "velocity": 0.3937007874015748,
                    "duration": 0.4940167499999859
                },
                {
                    "name": "E4",
                    "midi": 64,
                    "time": 168.78905624999786,
                    "velocity": 0.2047244094488189,
                    "duration": 0.1646722499999953
                },
                {
                    "name": "A#4",
                    "midi": 70,
                    "time": 168.95372849999785,
                    "velocity": 0.2047244094488189,
                    "duration": 0.1646722499999953
                },
                {
                    "name": "D5",
                    "midi": 74,
                    "time": 169.11840074999785,
                    "velocity": 0.3543307086614173,
                    "duration": 0.1646722499999953
                },
                {
                    "name": "C5",
                    "midi": 72,
                    "time": 169.28307299999784,
                    "velocity": 0.3937007874015748,
                    "duration": 0.4940167499999859
                },
                {
                    "name": "E4",
                    "midi": 64,
                    "time": 169.44774524999784,
                    "velocity": 0.2047244094488189,
                    "duration": 0.1646722499999953
                },
                {
                    "name": "A#4",
                    "midi": 70,
                    "time": 169.61241749999783,
                    "velocity": 0.2047244094488189,
                    "duration": 0.1646722499999953
                },
                {
                    "name": "C#5",
                    "midi": 73,
                    "time": 169.77708974999783,
                    "velocity": 0.41732283464566927,
                    "duration": 0.1646722499999953
                },
                {
                    "name": "D5",
                    "midi": 74,
                    "time": 169.94176199999782,
                    "velocity": 0.4566929133858268,
                    "duration": 0.4940167499999859
                },
                {
                    "name": "F4",
                    "midi": 65,
                    "time": 170.10643424999782,
                    "velocity": 0.2992125984251969,
                    "duration": 0.1646722499999953
                },
                {
                    "name": "A#4",
                    "midi": 70,
                    "time": 170.2711064999978,
                    "velocity": 0.2992125984251969,
                    "duration": 0.1646722499999953
                },
                {
                    "name": "D5",
                    "midi": 74,
                    "time": 170.4357787499978,
                    "velocity": 0.3543307086614173,
                    "duration": 0.1646722499999953
                },
                {
                    "name": "D#5",
                    "midi": 75,
                    "time": 170.6004509999978,
                    "velocity": 0.4330708661417323,
                    "duration": 0.3293444999999906
                },
                {
                    "name": "F4",
                    "midi": 65,
                    "time": 170.7651232499978,
                    "velocity": 0.2755905511811024,
                    "duration": 0.1646722499999953
                },
                {
                    "name": "D5",
                    "midi": 74,
                    "time": 170.9297954999978,
                    "velocity": 0.4881889763779528,
                    "duration": 0.1646722499999953
                },
                {
                    "name": "F5",
                    "midi": 77,
                    "time": 171.0944677499978,
                    "velocity": 0.4645669291338583,
                    "duration": 0.1646722499999953
                },
                {
                    "name": "F5",
                    "midi": 77,
                    "time": 171.25913999999779,
                    "velocity": 0.5039370078740157,
                    "duration": 0.4940167499999859
                },
                {
                    "name": "F4",
                    "midi": 65,
                    "time": 171.42381224999778,
                    "velocity": 0.2204724409448819,
                    "duration": 0.1646722499999953
                },
                {
                    "name": "C5",
                    "midi": 72,
                    "time": 171.58848449999778,
                    "velocity": 0.2204724409448819,
                    "duration": 0.1646722499999953
                },
                {
                    "name": "D#5",
                    "midi": 75,
                    "time": 171.75315674999777,
                    "velocity": 0.33858267716535434,
                    "duration": 0.1646722499999953
                },
                {
                    "name": "D5",
                    "midi": 74,
                    "time": 171.91782899999777,
                    "velocity": 0.3858267716535433,
                    "duration": 0.4940167499999859
                },
                {
                    "name": "F4",
                    "midi": 65,
                    "time": 172.08250124999776,
                    "velocity": 0.2204724409448819,
                    "duration": 0.1646722499999953
                },
                {
                    "name": "A4",
                    "midi": 69,
                    "time": 172.24717349999776,
                    "velocity": 0.2283464566929134,
                    "duration": 0.1646722499999953
                },
                {
                    "name": "C5",
                    "midi": 72,
                    "time": 172.41184574999775,
                    "velocity": 0.33858267716535434,
                    "duration": 0.1646722499999953
                },
                {
                    "name": "A#4",
                    "midi": 70,
                    "time": 172.57651799999775,
                    "velocity": 0.3937007874015748,
                    "duration": 0.4940167499999859
                },
                {
                    "name": "D4",
                    "midi": 62,
                    "time": 172.74119024999774,
                    "velocity": 0.2283464566929134,
                    "duration": 0.1646722499999953
                },
                {
                    "name": "F4",
                    "midi": 65,
                    "time": 172.90586249999774,
                    "velocity": 0.2047244094488189,
                    "duration": 0.1646722499999953
                },
                {
                    "name": "C5",
                    "midi": 72,
                    "time": 173.07053474999773,
                    "velocity": 0.25196850393700787,
                    "duration": 0.1646722499999953
                },
                {
                    "name": "A#4",
                    "midi": 70,
                    "time": 173.22834565624774,
                    "velocity": 0.2992125984251969,
                    "duration": 0.4940167499999859
                },
                {
                    "name": "D4",
                    "midi": 62,
                    "time": 173.39987924999772,
                    "velocity": 0.1889763779527559,
                    "duration": 0.1646722499999953
                },
                {
                    "name": "F4",
                    "midi": 65,
                    "time": 173.56455149999772,
                    "velocity": 0.1889763779527559,
                    "duration": 0.1646722499999953
                },
                {
                    "name": "D5",
                    "midi": 74,
                    "time": 173.72922374999771,
                    "velocity": 0.30708661417322836,
                    "duration": 0.1646722499999953
                },
                {
                    "name": "F5",
                    "midi": 77,
                    "time": 173.8938959999977,
                    "velocity": 0.3700787401574803,
                    "duration": 0.4940167499999859
                },
                {
                    "name": "F4",
                    "midi": 65,
                    "time": 174.0585682499977,
                    "velocity": 0.2204724409448819,
                    "duration": 0.1646722499999953
                },
                {
                    "name": "C5",
                    "midi": 72,
                    "time": 174.2232404999977,
                    "velocity": 0.2204724409448819,
                    "duration": 0.1646722499999953
                },
                {
                    "name": "D#5",
                    "midi": 75,
                    "time": 174.3879127499977,
                    "velocity": 0.29133858267716534,
                    "duration": 0.1646722499999953
                },
                {
                    "name": "D5",
                    "midi": 74,
                    "time": 174.5525849999977,
                    "velocity": 0.33858267716535434,
                    "duration": 0.4940167499999859
                },
                {
                    "name": "F4",
                    "midi": 65,
                    "time": 174.7172572499977,
                    "velocity": 0.2204724409448819,
                    "duration": 0.1646722499999953
                },
                {
                    "name": "A4",
                    "midi": 69,
                    "time": 174.88192949999768,
                    "velocity": 0.2283464566929134,
                    "duration": 0.1646722499999953
                },
                {
                    "name": "C5",
                    "midi": 72,
                    "time": 175.04660174999768,
                    "velocity": 0.2992125984251969,
                    "duration": 0.1646722499999953
                },
                {
                    "name": "A#4",
                    "midi": 70,
                    "time": 175.21127399999767,
                    "velocity": 0.33858267716535434,
                    "duration": 0.4940167499999859
                },
                {
                    "name": "D4",
                    "midi": 62,
                    "time": 175.37594624999767,
                    "velocity": 0.2125984251968504,
                    "duration": 0.1646722499999953
                },
                {
                    "name": "F4",
                    "midi": 65,
                    "time": 175.54061849999766,
                    "velocity": 0.2047244094488189,
                    "duration": 0.1646722499999953
                },
                {
                    "name": "D5",
                    "midi": 74,
                    "time": 175.70529074999766,
                    "velocity": 0.25196850393700787,
                    "duration": 0.1646722499999953
                },
                {
                    "name": "A#4",
                    "midi": 70,
                    "time": 175.86310165624766,
                    "velocity": 0.2992125984251969,
                    "duration": 0.4940167499999859
                },
                {
                    "name": "D4",
                    "midi": 62,
                    "time": 176.03463524999765,
                    "velocity": 0.1889763779527559,
                    "duration": 0.1646722499999953
                },
                {
                    "name": "F4",
                    "midi": 65,
                    "time": 176.19930749999764,
                    "velocity": 0.1889763779527559,
                    "duration": 0.1646722499999953
                },
                {
                    "name": "G4",
                    "midi": 67,
                    "time": 176.36397974999764,
                    "velocity": 0.30708661417322836,
                    "duration": 0.1646722499999953
                },
                {
                    "name": "F4",
                    "midi": 65,
                    "time": 176.52865199999763,
                    "velocity": 0.3700787401574803,
                    "duration": 0.4940167499999859
                },
                {
                    "name": "F3",
                    "midi": 53,
                    "time": 176.69332424999763,
                    "velocity": 0.2204724409448819,
                    "duration": 0.1646722499999953
                },
                {
                    "name": "C4",
                    "midi": 60,
                    "time": 176.85799649999763,
                    "velocity": 0.2204724409448819,
                    "duration": 0.1646722499999953
                },
                {
                    "name": "D#4",
                    "midi": 63,
                    "time": 177.02266874999762,
                    "velocity": 0.29133858267716534,
                    "duration": 0.1646722499999953
                },
                {
                    "name": "D4",
                    "midi": 62,
                    "time": 177.18734099999762,
                    "velocity": 0.33858267716535434,
                    "duration": 0.4940167499999859
                },
                {
                    "name": "F3",
                    "midi": 53,
                    "time": 177.3520132499976,
                    "velocity": 0.2204724409448819,
                    "duration": 0.1646722499999953
                },
                {
                    "name": "A3",
                    "midi": 57,
                    "time": 177.5166854999976,
                    "velocity": 0.2283464566929134,
                    "duration": 0.1646722499999953
                },
                {
                    "name": "C4",
                    "midi": 60,
                    "time": 177.6813577499976,
                    "velocity": 0.2677165354330709,
                    "duration": 0.1646722499999953
                },
                {
                    "name": "A#3",
                    "midi": 58,
                    "time": 177.8460299999976,
                    "velocity": 0.25984251968503935,
                    "duration": 0.1646722499999953
                },
                {
                    "name": "D3",
                    "midi": 50,
                    "time": 178.0107022499976,
                    "velocity": 0.1968503937007874,
                    "duration": 1.1527057499999955
                },
                {
                    "name": "F3",
                    "midi": 53,
                    "time": 178.1753744999976,
                    "velocity": 0.1968503937007874,
                    "duration": 0.9880335000000002
                },
                {
                    "name": "A3",
                    "midi": 57,
                    "time": 178.34004674999758,
                    "velocity": 0.1968503937007874,
                    "duration": 0.1646722499999953
                },
                {
                    "name": "A#3",
                    "midi": 58,
                    "time": 178.50471899999758,
                    "velocity": 0.23622047244094488,
                    "duration": 0.6586890000000096
                },
                {
                    "name": "D5",
                    "midi": 74,
                    "time": 181.7981639999976,
                    "velocity": 0.3937007874015748,
                    "duration": 0.3293444999999906
                },
                {
                    "name": "C#5",
                    "midi": 73,
                    "time": 182.1275084999976,
                    "velocity": 0.3937007874015748,
                    "duration": 0.1646722499999953
                },
                {
                    "name": "D5",
                    "midi": 74,
                    "time": 182.29218074999758,
                    "velocity": 0.3543307086614173,
                    "duration": 0.1646722499999953
                },
                {
                    "name": "C#5",
                    "midi": 73,
                    "time": 182.45685299999758,
                    "velocity": 0.41732283464566927,
                    "duration": 0.1646722499999953
                },
                {
                    "name": "D5",
                    "midi": 74,
                    "time": 182.62152524999757,
                    "velocity": 0.3543307086614173,
                    "duration": 0.1646722499999953
                },
                {
                    "name": "A#4",
                    "midi": 70,
                    "time": 182.78619749999757,
                    "velocity": 0.3543307086614173,
                    "duration": 0.1646722499999953
                },
                {
                    "name": "G4",
                    "midi": 67,
                    "time": 182.95086974999757,
                    "velocity": 0.3543307086614173,
                    "duration": 0.14820502500000998
                },
                {
                    "name": "G4",
                    "midi": 67,
                    "time": 183.1155419999976,
                    "velocity": 0.4409448818897638,
                    "duration": 0.6586890000000096
                },
                {
                    "name": "F4",
                    "midi": 65,
                    "time": 183.7742309999976,
                    "velocity": 0.3937007874015748,
                    "duration": 0.3293444999999906
                },
                {
                    "name": "A#4",
                    "midi": 70,
                    "time": 184.3505838749976,
                    "velocity": 0.36220472440944884,
                    "duration": 0.08233612500001186
                },
                {
                    "name": "A4",
                    "midi": 69,
                    "time": 184.4329199999976,
                    "velocity": 0.4094488188976378,
                    "duration": 0.1646722499999953
                },
                {
                    "name": "A#4",
                    "midi": 70,
                    "time": 184.5975922499976,
                    "velocity": 0.33858267716535434,
                    "duration": 0.054890749999998434
                },
                {
                    "name": "A4",
                    "midi": 69,
                    "time": 184.6524829999976,
                    "velocity": 0.33858267716535434,
                    "duration": 0.054890749999998434
                },
                {
                    "name": "G4",
                    "midi": 67,
                    "time": 184.7073737499976,
                    "velocity": 0.33858267716535434,
                    "duration": 0.054890749999998434
                },
                {
                    "name": "A4",
                    "midi": 69,
                    "time": 184.7622644999976,
                    "velocity": 0.4015748031496063,
                    "duration": 0.1646722499999953
                },
                {
                    "name": "A#4",
                    "midi": 70,
                    "time": 184.9269367499976,
                    "velocity": 0.3543307086614173,
                    "duration": 0.1646722499999953
                },
                {
                    "name": "B4",
                    "midi": 71,
                    "time": 185.0916089999976,
                    "velocity": 0.4015748031496063,
                    "duration": 0.1646722499999953
                },
                {
                    "name": "C5",
                    "midi": 72,
                    "time": 185.25628124999758,
                    "velocity": 0.33070866141732286,
                    "duration": 0.1646722499999953
                },
                {
                    "name": "C#5",
                    "midi": 73,
                    "time": 185.42095349999758,
                    "velocity": 0.36220472440944884,
                    "duration": 0.1646722499999953
                },
                {
                    "name": "D5",
                    "midi": 74,
                    "time": 185.58562574999758,
                    "velocity": 0.3858267716535433,
                    "duration": 0.1646722499999953
                },
                {
                    "name": "F5",
                    "midi": 77,
                    "time": 185.75029799999757,
                    "velocity": 0.49606299212598426,
                    "duration": 0.6586890000000096
                },
                {
                    "name": "D#5",
                    "midi": 75,
                    "time": 186.40898699999758,
                    "velocity": 0.4645669291338583,
                    "duration": 0.3293444999999906
                },
                {
                    "name": "D5",
                    "midi": 74,
                    "time": 187.06767599999756,
                    "velocity": 0.4645669291338583,
                    "duration": 0.3293444999999906
                },
                {
                    "name": "E5",
                    "midi": 76,
                    "time": 187.39702049999755,
                    "velocity": 0.41732283464566927,
                    "duration": 0.1646722499999953
                },
                {
                    "name": "F5",
                    "midi": 77,
                    "time": 187.56169274999755,
                    "velocity": 0.41732283464566927,
                    "duration": 0.1646722499999953
                },
                {
                    "name": "A5",
                    "midi": 81,
                    "time": 187.72636499999754,
                    "velocity": 0.4645669291338583,
                    "duration": 0.1646722499999953
                },
                {
                    "name": "A#5",
                    "midi": 82,
                    "time": 187.89103724999754,
                    "velocity": 0.4094488188976378,
                    "duration": 0.1646722499999953
                },
                {
                    "name": "F5",
                    "midi": 77,
                    "time": 188.05570949999753,
                    "velocity": 0.4094488188976378,
                    "duration": 0.1646722499999953
                },
                {
                    "name": "D5",
                    "midi": 74,
                    "time": 188.22038174999753,
                    "velocity": 0.4094488188976378,
                    "duration": 0.1646722499999953
                },
                {
                    "name": "C5",
                    "midi": 72,
                    "time": 188.38505399999752,
                    "velocity": 0.4645669291338583,
                    "duration": 0.3293444999999906
                },
                {
                    "name": "F#5",
                    "midi": 78,
                    "time": 188.71439849999751,
                    "velocity": 0.4094488188976378,
                    "duration": 0.1646722499999953
                },
                {
                    "name": "G5",
                    "midi": 79,
                    "time": 188.8790707499975,
                    "velocity": 0.4094488188976378,
                    "duration": 0.1646722499999953
                },
                {
                    "name": "A5",
                    "midi": 81,
                    "time": 189.0437429999975,
                    "velocity": 0.4645669291338583,
                    "duration": 0.1646722499999953
                },
                {
                    "name": "A#5",
                    "midi": 82,
                    "time": 189.2084152499975,
                    "velocity": 0.4094488188976378,
                    "duration": 0.1646722499999953
                },
                {
                    "name": "G5",
                    "midi": 79,
                    "time": 189.3730874999975,
                    "velocity": 0.4094488188976378,
                    "duration": 0.1646722499999953
                },
                {
                    "name": "C5",
                    "midi": 72,
                    "time": 189.5377597499975,
                    "velocity": 0.4094488188976378,
                    "duration": 0.1646722499999953
                },
                {
                    "name": "C5",
                    "midi": 72,
                    "time": 189.7024319999975,
                    "velocity": 0.4645669291338583,
                    "duration": 0.1646722499999953
                },
                {
                    "name": "C6",
                    "midi": 84,
                    "time": 189.86710424999748,
                    "velocity": 0.5118110236220472,
                    "duration": 0.1646722499999953
                },
                {
                    "name": "B5",
                    "midi": 83,
                    "time": 190.03177649999748,
                    "velocity": 0.49606299212598426,
                    "duration": 0.1646722499999953
                },
                {
                    "name": "A#5",
                    "midi": 82,
                    "time": 190.19644874999747,
                    "velocity": 0.4645669291338583,
                    "duration": 0.1646722499999953
                },
                {
                    "name": "A5",
                    "midi": 81,
                    "time": 190.36112099999747,
                    "velocity": 0.4645669291338583,
                    "duration": 0.1646722499999953
                },
                {
                    "name": "C5",
                    "midi": 72,
                    "time": 190.52579324999746,
                    "velocity": 0.4015748031496063,
                    "duration": 0.1646722499999953
                },
                {
                    "name": "A#4",
                    "midi": 70,
                    "time": 190.69046549999746,
                    "velocity": 0.4015748031496063,
                    "duration": 0.1646722499999953
                },
                {
                    "name": "G5",
                    "midi": 79,
                    "time": 190.85513774999745,
                    "velocity": 0.4645669291338583,
                    "duration": 0.1646722499999953
                },
                {
                    "name": "A4",
                    "midi": 69,
                    "time": 191.01980999999745,
                    "velocity": 0.4645669291338583,
                    "duration": 0.1646722499999953
                },
                {
                    "name": "F5",
                    "midi": 77,
                    "time": 191.18448224999744,
                    "velocity": 0.3858267716535433,
                    "duration": 0.1646722499999953
                },
                {
                    "name": "C5",
                    "midi": 72,
                    "time": 191.34915449999744,
                    "velocity": 0.4409448818897638,
                    "duration": 0.1646722499999953
                },
                {
                    "name": "D#5",
                    "midi": 75,
                    "time": 191.51382674999743,
                    "velocity": 0.36220472440944884,
                    "duration": 0.1646722499999953
                },
                {
                    "name": "A#4",
                    "midi": 70,
                    "time": 191.67849899999743,
                    "velocity": 0.4645669291338583,
                    "duration": 0.1646722499999953
                },
                {
                    "name": "D5",
                    "midi": 74,
                    "time": 191.84317124999743,
                    "velocity": 0.3858267716535433,
                    "duration": 0.1646722499999953
                },
                {
                    "name": "A4",
                    "midi": 69,
                    "time": 192.00784349999742,
                    "velocity": 0.4645669291338583,
                    "duration": 0.1646722499999953
                },
                {
                    "name": "C5",
                    "midi": 72,
                    "time": 192.17251574999742,
                    "velocity": 0.36220472440944884,
                    "duration": 0.1646722499999953
                },
                {
                    "name": "A#4",
                    "midi": 70,
                    "time": 192.3371879999974,
                    "velocity": 0.3937007874015748,
                    "duration": 0.08233612500001186
                },
                {
                    "name": "D6",
                    "midi": 86,
                    "time": 192.50186024999743,
                    "velocity": 0.44881889763779526,
                    "duration": 0.1646722499999953
                },
                {
                    "name": "C#6",
                    "midi": 85,
                    "time": 192.66653249999743,
                    "velocity": 0.44881889763779526,
                    "duration": 0.1646722499999953
                },
                {
                    "name": "D6",
                    "midi": 86,
                    "time": 192.83120474999743,
                    "velocity": 0.4015748031496063,
                    "duration": 0.1646722499999953
                },
                {
                    "name": "C#6",
                    "midi": 85,
                    "time": 192.99587699999742,
                    "velocity": 0.47244094488188976,
                    "duration": 0.1646722499999953
                },
                {
                    "name": "D6",
                    "midi": 86,
                    "time": 193.16054924999742,
                    "velocity": 0.4015748031496063,
                    "duration": 0.1646722499999953
                },
                {
                    "name": "A#5",
                    "midi": 82,
                    "time": 193.3252214999974,
                    "velocity": 0.4015748031496063,
                    "duration": 0.1646722499999953
                },
                {
                    "name": "G5",
                    "midi": 79,
                    "time": 193.4898937499974,
                    "velocity": 0.4015748031496063,
                    "duration": 0.14820502500000998
                },
                {
                    "name": "G5",
                    "midi": 79,
                    "time": 193.65456599999743,
                    "velocity": 0.5039370078740157,
                    "duration": 0.6586890000000096
                },
                {
                    "name": "F5",
                    "midi": 77,
                    "time": 194.31325499999744,
                    "velocity": 0.44881889763779526,
                    "duration": 0.3293444999999906
                },
                {
                    "name": "A#5",
                    "midi": 82,
                    "time": 194.88960787499744,
                    "velocity": 0.4094488188976378,
                    "duration": 0.08233612500001186
                },
                {
                    "name": "A5",
                    "midi": 81,
                    "time": 194.97194399999745,
                    "velocity": 0.4645669291338583,
                    "duration": 0.1646722499999953
                },
                {
                    "name": "A#5",
                    "midi": 82,
                    "time": 195.13661624999745,
                    "velocity": 0.3858267716535433,
                    "duration": 0.054890749999998434
                },
                {
                    "name": "A5",
                    "midi": 81,
                    "time": 195.19150699999744,
                    "velocity": 0.3858267716535433,
                    "duration": 0.054890749999998434
                },
                {
                    "name": "G5",
                    "midi": 79,
                    "time": 195.24639774999744,
                    "velocity": 0.3858267716535433,
                    "duration": 0.054890749999998434
                },
                {
                    "name": "A5",
                    "midi": 81,
                    "time": 195.30128849999744,
                    "velocity": 0.4566929133858268,
                    "duration": 0.1646722499999953
                },
                {
                    "name": "A#5",
                    "midi": 82,
                    "time": 195.46596074999744,
                    "velocity": 0.4015748031496063,
                    "duration": 0.1646722499999953
                },
                {
                    "name": "B5",
                    "midi": 83,
                    "time": 195.63063299999743,
                    "velocity": 0.4566929133858268,
                    "duration": 0.1646722499999953
                },
                {
                    "name": "C6",
                    "midi": 84,
                    "time": 195.79530524999743,
                    "velocity": 0.3779527559055118,
                    "duration": 0.1646722499999953
                },
                {
                    "name": "C#6",
                    "midi": 85,
                    "time": 195.95997749999742,
                    "velocity": 0.4094488188976378,
                    "duration": 0.1646722499999953
                },
                {
                    "name": "D6",
                    "midi": 86,
                    "time": 196.12464974999742,
                    "velocity": 0.4409448818897638,
                    "duration": 0.1646722499999953
                },
                {
                    "name": "F6",
                    "midi": 89,
                    "time": 196.2893219999974,
                    "velocity": 0.5433070866141733,
                    "duration": 0.4940167499999859
                },
                {
                    "name": "E6",
                    "midi": 88,
                    "time": 196.7833387499974,
                    "velocity": 0.5118110236220472,
                    "duration": 0.1646722499999953
                },
                {
                    "name": "D#6",
                    "midi": 87,
                    "time": 196.9480109999974,
                    "velocity": 0.5275590551181102,
                    "duration": 0.3293444999999906
                },
                {
                    "name": "D6",
                    "midi": 86,
                    "time": 197.60669999999737,
                    "velocity": 0.5275590551181102,
                    "duration": 0.3293444999999906
                },
                {
                    "name": "E6",
                    "midi": 88,
                    "time": 197.93604449999737,
                    "velocity": 0.47244094488188976,
                    "duration": 0.1646722499999953
                },
                {
                    "name": "F6",
                    "midi": 89,
                    "time": 198.10071674999736,
                    "velocity": 0.47244094488188976,
                    "duration": 0.1646722499999953
                },
                {
                    "name": "A6",
                    "midi": 93,
                    "time": 198.26538899999736,
                    "velocity": 0.5275590551181102,
                    "duration": 0.1646722499999953
                },
                {
                    "name": "A#6",
                    "midi": 94,
                    "time": 198.43006124999735,
                    "velocity": 0.4881889763779528,
                    "duration": 0.1646722499999953
                },
                {
                    "name": "F6",
                    "midi": 89,
                    "time": 198.59473349999735,
                    "velocity": 0.5039370078740157,
                    "duration": 0.1646722499999953
                },
                {
                    "name": "D6",
                    "midi": 86,
                    "time": 198.75940574999734,
                    "velocity": 0.5196850393700787,
                    "duration": 0.1646722499999953
                },
                {
                    "name": "C#6",
                    "midi": 85,
                    "time": 198.92407799999734,
                    "velocity": 0.5826771653543307,
                    "duration": 0.3293444999999906
                },
                {
                    "name": "G6",
                    "midi": 91,
                    "time": 199.25342249999733,
                    "velocity": 0.4645669291338583,
                    "duration": 0.1646722499999953
                },
                {
                    "name": "A#6",
                    "midi": 94,
                    "time": 199.41809474999732,
                    "velocity": 0.4645669291338583,
                    "duration": 0.1646722499999953
                },
                {
                    "name": "C7",
                    "midi": 96,
                    "time": 199.58276699999732,
                    "velocity": 0.5748031496062992,
                    "duration": 0.1646722499999953
                },
                {
                    "name": "C#7",
                    "midi": 97,
                    "time": 199.7474392499973,
                    "velocity": 0.4645669291338583,
                    "duration": 0.1646722499999953
                },
                {
                    "name": "A#6",
                    "midi": 94,
                    "time": 199.9121114999973,
                    "velocity": 0.4645669291338583,
                    "duration": 0.1646722499999953
                },
                {
                    "name": "C#6",
                    "midi": 85,
                    "time": 200.0767837499973,
                    "velocity": 0.4645669291338583,
                    "duration": 0.1646722499999953
                },
                {
                    "name": "C6",
                    "midi": 84,
                    "time": 200.2414559999973,
                    "velocity": 0.3937007874015748,
                    "duration": 0.1646722499999953
                },
                {
                    "name": "D6",
                    "midi": 86,
                    "time": 200.4061282499973,
                    "velocity": 0.4251968503937008,
                    "duration": 0.1646722499999953
                },
                {
                    "name": "D#6",
                    "midi": 87,
                    "time": 200.5708004999973,
                    "velocity": 0.4566929133858268,
                    "duration": 0.1646722499999953
                },
                {
                    "name": "E6",
                    "midi": 88,
                    "time": 200.73547274999729,
                    "velocity": 0.48031496062992124,
                    "duration": 0.1646722499999953
                },
                {
                    "name": "F6",
                    "midi": 89,
                    "time": 200.90014499999728,
                    "velocity": 0.4645669291338583,
                    "duration": 0.1646722499999953
                },
                {
                    "name": "G6",
                    "midi": 91,
                    "time": 201.06481724999728,
                    "velocity": 0.4015748031496063,
                    "duration": 0.1646722499999953
                },
                {
                    "name": "D#6",
                    "midi": 87,
                    "time": 201.22948949999727,
                    "velocity": 0.4015748031496063,
                    "duration": 0.1646722499999953
                },
                {
                    "name": "C6",
                    "midi": 84,
                    "time": 201.39416174999727,
                    "velocity": 0.3779527559055118,
                    "duration": 0.1646722499999953
                },
                {
                    "name": "A#5",
                    "midi": 82,
                    "time": 201.55883399999726,
                    "velocity": 0.4645669291338583,
                    "duration": 0.1646722499999953
                },
                {
                    "name": "F5",
                    "midi": 77,
                    "time": 201.72350624999726,
                    "velocity": 0.3858267716535433,
                    "duration": 0.1646722499999953
                },
                {
                    "name": "D5",
                    "midi": 74,
                    "time": 201.88817849999725,
                    "velocity": 0.3937007874015748,
                    "duration": 0.1646722499999953
                },
                {
                    "name": "A#4",
                    "midi": 70,
                    "time": 202.05285074999725,
                    "velocity": 0.36220472440944884,
                    "duration": 0.1646722499999953
                },
                {
                    "name": "A4",
                    "midi": 69,
                    "time": 202.21752299999724,
                    "velocity": 0.4094488188976378,
                    "duration": 0.1646722499999953
                },
                {
                    "name": "A#4",
                    "midi": 70,
                    "time": 202.38219524999724,
                    "velocity": 0.3858267716535433,
                    "duration": 0.1646722499999953
                },
                {
                    "name": "C5",
                    "midi": 72,
                    "time": 202.54686749999723,
                    "velocity": 0.3700787401574803,
                    "duration": 0.1646722499999953
                },
                {
                    "name": "C#5",
                    "midi": 73,
                    "time": 202.71153974999723,
                    "velocity": 0.3464566929133858,
                    "duration": 0.1646722499999953
                },
                {
                    "name": "D5",
                    "midi": 74,
                    "time": 202.87621199999722,
                    "velocity": 0.3937007874015748,
                    "duration": 0.3293444999999906
                },
                {
                    "name": "C#5",
                    "midi": 73,
                    "time": 203.20555649999721,
                    "velocity": 0.3937007874015748,
                    "duration": 0.1646722499999953
                },
                {
                    "name": "D5",
                    "midi": 74,
                    "time": 203.3702287499972,
                    "velocity": 0.3543307086614173,
                    "duration": 0.1646722499999953
                },
                {
                    "name": "C#5",
                    "midi": 73,
                    "time": 203.5349009999972,
                    "velocity": 0.41732283464566927,
                    "duration": 0.1646722499999953
                },
                {
                    "name": "D5",
                    "midi": 74,
                    "time": 203.6995732499972,
                    "velocity": 0.3543307086614173,
                    "duration": 0.1646722499999953
                },
                {
                    "name": "A#4",
                    "midi": 70,
                    "time": 203.8642454999972,
                    "velocity": 0.3543307086614173,
                    "duration": 0.1646722499999953
                },
                {
                    "name": "G4",
                    "midi": 67,
                    "time": 204.0289177499972,
                    "velocity": 0.3543307086614173,
                    "duration": 0.14820502500000998
                },
                {
                    "name": "G4",
                    "midi": 67,
                    "time": 204.19358999999722,
                    "velocity": 0.4409448818897638,
                    "duration": 0.6586890000000096
                },
                {
                    "name": "F4",
                    "midi": 65,
                    "time": 204.85227899999722,
                    "velocity": 0.3937007874015748,
                    "duration": 0.3293444999999906
                },
                {
                    "name": "A#4",
                    "midi": 70,
                    "time": 205.42863187499722,
                    "velocity": 0.36220472440944884,
                    "duration": 0.08233612500001186
                },
                {
                    "name": "A4",
                    "midi": 69,
                    "time": 205.51096799999723,
                    "velocity": 0.4094488188976378,
                    "duration": 0.1646722499999953
                },
                {
                    "name": "A#4",
                    "midi": 70,
                    "time": 205.67564024999723,
                    "velocity": 0.33858267716535434,
                    "duration": 0.054890749999998434
                },
                {
                    "name": "A4",
                    "midi": 69,
                    "time": 205.73053099999723,
                    "velocity": 0.33858267716535434,
                    "duration": 0.054890749999998434
                },
                {
                    "name": "G4",
                    "midi": 67,
                    "time": 205.78542174999723,
                    "velocity": 0.33858267716535434,
                    "duration": 0.054890749999998434
                },
                {
                    "name": "A4",
                    "midi": 69,
                    "time": 205.84031249999722,
                    "velocity": 0.4015748031496063,
                    "duration": 0.1646722499999953
                },
                {
                    "name": "A#4",
                    "midi": 70,
                    "time": 206.00498474999722,
                    "velocity": 0.3543307086614173,
                    "duration": 0.1646722499999953
                },
                {
                    "name": "B4",
                    "midi": 71,
                    "time": 206.16965699999722,
                    "velocity": 0.4015748031496063,
                    "duration": 0.1646722499999953
                },
                {
                    "name": "C5",
                    "midi": 72,
                    "time": 206.3343292499972,
                    "velocity": 0.33070866141732286,
                    "duration": 0.1646722499999953
                },
                {
                    "name": "C#5",
                    "midi": 73,
                    "time": 206.4990014999972,
                    "velocity": 0.36220472440944884,
                    "duration": 0.1646722499999953
                },
                {
                    "name": "D5",
                    "midi": 74,
                    "time": 206.6636737499972,
                    "velocity": 0.3858267716535433,
                    "duration": 0.1646722499999953
                },
                {
                    "name": "F5",
                    "midi": 77,
                    "time": 206.8283459999972,
                    "velocity": 0.49606299212598426,
                    "duration": 0.6586890000000096
                },
                {
                    "name": "D#5",
                    "midi": 75,
                    "time": 207.4870349999972,
                    "velocity": 0.4645669291338583,
                    "duration": 0.3293444999999906
                },
                {
                    "name": "D5",
                    "midi": 74,
                    "time": 208.1457239999972,
                    "velocity": 0.4645669291338583,
                    "duration": 0.3293444999999906
                },
                {
                    "name": "E5",
                    "midi": 76,
                    "time": 208.47506849999718,
                    "velocity": 0.41732283464566927,
                    "duration": 0.1646722499999953
                },
                {
                    "name": "F5",
                    "midi": 77,
                    "time": 208.63974074999717,
                    "velocity": 0.41732283464566927,
                    "duration": 0.1646722499999953
                },
                {
                    "name": "A5",
                    "midi": 81,
                    "time": 208.80441299999717,
                    "velocity": 0.4645669291338583,
                    "duration": 0.1646722499999953
                },
                {
                    "name": "A#5",
                    "midi": 82,
                    "time": 208.96908524999716,
                    "velocity": 0.4094488188976378,
                    "duration": 0.1646722499999953
                },
                {
                    "name": "F5",
                    "midi": 77,
                    "time": 209.13375749999716,
                    "velocity": 0.4094488188976378,
                    "duration": 0.1646722499999953
                },
                {
                    "name": "D5",
                    "midi": 74,
                    "time": 209.29842974999715,
                    "velocity": 0.4094488188976378,
                    "duration": 0.1646722499999953
                },
                {
                    "name": "C5",
                    "midi": 72,
                    "time": 209.46310199999715,
                    "velocity": 0.4645669291338583,
                    "duration": 0.3293444999999906
                },
                {
                    "name": "F#5",
                    "midi": 78,
                    "time": 209.79244649999714,
                    "velocity": 0.4094488188976378,
                    "duration": 0.1646722499999953
                },
                {
                    "name": "G5",
                    "midi": 79,
                    "time": 209.95711874999714,
                    "velocity": 0.4094488188976378,
                    "duration": 0.1646722499999953
                },
                {
                    "name": "A5",
                    "midi": 81,
                    "time": 210.12179099999713,
                    "velocity": 0.4645669291338583,
                    "duration": 0.1646722499999953
                },
                {
                    "name": "A#5",
                    "midi": 82,
                    "time": 210.28646324999713,
                    "velocity": 0.4094488188976378,
                    "duration": 0.1646722499999953
                },
                {
                    "name": "G5",
                    "midi": 79,
                    "time": 210.45113549999712,
                    "velocity": 0.4094488188976378,
                    "duration": 0.1646722499999953
                },
                {
                    "name": "C5",
                    "midi": 72,
                    "time": 210.61580774999712,
                    "velocity": 0.4094488188976378,
                    "duration": 0.1646722499999953
                },
                {
                    "name": "C5",
                    "midi": 72,
                    "time": 210.7804799999971,
                    "velocity": 0.4645669291338583,
                    "duration": 0.1646722499999953
                },
                {
                    "name": "C6",
                    "midi": 84,
                    "time": 210.9451522499971,
                    "velocity": 0.5118110236220472,
                    "duration": 0.1646722499999953
                },
                {
                    "name": "B5",
                    "midi": 83,
                    "time": 211.1098244999971,
                    "velocity": 0.49606299212598426,
                    "duration": 0.1646722499999953
                },
                {
                    "name": "A#5",
                    "midi": 82,
                    "time": 211.2744967499971,
                    "velocity": 0.4645669291338583,
                    "duration": 0.1646722499999953
                },
                {
                    "name": "A5",
                    "midi": 81,
                    "time": 211.4391689999971,
                    "velocity": 0.4645669291338583,
                    "duration": 0.1646722499999953
                },
                {
                    "name": "C5",
                    "midi": 72,
                    "time": 211.6038412499971,
                    "velocity": 0.4015748031496063,
                    "duration": 0.1646722499999953
                },
                {
                    "name": "A#4",
                    "midi": 70,
                    "time": 211.76851349999708,
                    "velocity": 0.4015748031496063,
                    "duration": 0.1646722499999953
                },
                {
                    "name": "G5",
                    "midi": 79,
                    "time": 211.93318574999708,
                    "velocity": 0.4645669291338583,
                    "duration": 0.1646722499999953
                },
                {
                    "name": "A4",
                    "midi": 69,
                    "time": 212.09785799999707,
                    "velocity": 0.4645669291338583,
                    "duration": 0.1646722499999953
                },
                {
                    "name": "F5",
                    "midi": 77,
                    "time": 212.26253024999707,
                    "velocity": 0.3858267716535433,
                    "duration": 0.1646722499999953
                },
                {
                    "name": "C5",
                    "midi": 72,
                    "time": 212.42720249999707,
                    "velocity": 0.4409448818897638,
                    "duration": 0.1646722499999953
                },
                {
                    "name": "D#5",
                    "midi": 75,
                    "time": 212.59187474999706,
                    "velocity": 0.36220472440944884,
                    "duration": 0.1646722499999953
                },
                {
                    "name": "A#4",
                    "midi": 70,
                    "time": 212.75654699999706,
                    "velocity": 0.4645669291338583,
                    "duration": 0.1646722499999953
                },
                {
                    "name": "D5",
                    "midi": 74,
                    "time": 212.92121924999705,
                    "velocity": 0.3858267716535433,
                    "duration": 0.1646722499999953
                },
                {
                    "name": "A4",
                    "midi": 69,
                    "time": 213.08589149999705,
                    "velocity": 0.4645669291338583,
                    "duration": 0.1646722499999953
                },
                {
                    "name": "C5",
                    "midi": 72,
                    "time": 213.25056374999704,
                    "velocity": 0.36220472440944884,
                    "duration": 0.1646722499999953
                },
                {
                    "name": "A#4",
                    "midi": 70,
                    "time": 213.41523599999704,
                    "velocity": 0.3937007874015748,
                    "duration": 0.08233612500001186
                },
                {
                    "name": "D6",
                    "midi": 86,
                    "time": 213.57990824999706,
                    "velocity": 0.44881889763779526,
                    "duration": 0.1646722499999953
                },
                {
                    "name": "C#6",
                    "midi": 85,
                    "time": 213.74458049999706,
                    "velocity": 0.44881889763779526,
                    "duration": 0.1646722499999953
                },
                {
                    "name": "D6",
                    "midi": 86,
                    "time": 213.90925274999705,
                    "velocity": 0.4015748031496063,
                    "duration": 0.1646722499999953
                },
                {
                    "name": "C#6",
                    "midi": 85,
                    "time": 214.07392499999705,
                    "velocity": 0.47244094488188976,
                    "duration": 0.1646722499999953
                },
                {
                    "name": "D6",
                    "midi": 86,
                    "time": 214.23859724999704,
                    "velocity": 0.4015748031496063,
                    "duration": 0.1646722499999953
                },
                {
                    "name": "A#5",
                    "midi": 82,
                    "time": 214.40326949999704,
                    "velocity": 0.4015748031496063,
                    "duration": 0.1646722499999953
                },
                {
                    "name": "G5",
                    "midi": 79,
                    "time": 214.56794174999703,
                    "velocity": 0.4015748031496063,
                    "duration": 0.14820502500000998
                },
                {
                    "name": "G5",
                    "midi": 79,
                    "time": 214.73261399999706,
                    "velocity": 0.5039370078740157,
                    "duration": 0.6586890000000096
                },
                {
                    "name": "F5",
                    "midi": 77,
                    "time": 215.39130299999707,
                    "velocity": 0.44881889763779526,
                    "duration": 0.3293444999999906
                },
                {
                    "name": "A#5",
                    "midi": 82,
                    "time": 215.96765587499706,
                    "velocity": 0.4094488188976378,
                    "duration": 0.08233612500001186
                },
                {
                    "name": "A5",
                    "midi": 81,
                    "time": 216.04999199999708,
                    "velocity": 0.4645669291338583,
                    "duration": 0.1646722499999953
                },
                {
                    "name": "A#5",
                    "midi": 82,
                    "time": 216.21466424999707,
                    "velocity": 0.3858267716535433,
                    "duration": 0.054890749999998434
                },
                {
                    "name": "A5",
                    "midi": 81,
                    "time": 216.26955499999707,
                    "velocity": 0.3858267716535433,
                    "duration": 0.054890749999998434
                },
                {
                    "name": "G5",
                    "midi": 79,
                    "time": 216.32444574999707,
                    "velocity": 0.3858267716535433,
                    "duration": 0.054890749999998434
                },
                {
                    "name": "A5",
                    "midi": 81,
                    "time": 216.37933649999707,
                    "velocity": 0.4566929133858268,
                    "duration": 0.1646722499999953
                },
                {
                    "name": "A#5",
                    "midi": 82,
                    "time": 216.54400874999706,
                    "velocity": 0.4015748031496063,
                    "duration": 0.1646722499999953
                },
                {
                    "name": "B5",
                    "midi": 83,
                    "time": 216.70868099999706,
                    "velocity": 0.4566929133858268,
                    "duration": 0.1646722499999953
                },
                {
                    "name": "C6",
                    "midi": 84,
                    "time": 216.87335324999705,
                    "velocity": 0.3779527559055118,
                    "duration": 0.1646722499999953
                },
                {
                    "name": "C#6",
                    "midi": 85,
                    "time": 217.03802549999705,
                    "velocity": 0.4094488188976378,
                    "duration": 0.1646722499999953
                },
                {
                    "name": "D6",
                    "midi": 86,
                    "time": 217.20269774999704,
                    "velocity": 0.4409448818897638,
                    "duration": 0.1646722499999953
                },
                {
                    "name": "F6",
                    "midi": 89,
                    "time": 217.36736999999704,
                    "velocity": 0.5433070866141733,
                    "duration": 0.4940167499999859
                },
                {
                    "name": "E6",
                    "midi": 88,
                    "time": 217.86138674999702,
                    "velocity": 0.5118110236220472,
                    "duration": 0.1646722499999953
                },
                {
                    "name": "D#6",
                    "midi": 87,
                    "time": 218.02605899999702,
                    "velocity": 0.5275590551181102,
                    "duration": 0.3293444999999906
                },
                {
                    "name": "D6",
                    "midi": 86,
                    "time": 218.684747999997,
                    "velocity": 0.5275590551181102,
                    "duration": 0.3293444999999906
                },
                {
                    "name": "E6",
                    "midi": 88,
                    "time": 219.014092499997,
                    "velocity": 0.47244094488188976,
                    "duration": 0.1646722499999953
                },
                {
                    "name": "F6",
                    "midi": 89,
                    "time": 219.178764749997,
                    "velocity": 0.47244094488188976,
                    "duration": 0.1646722499999953
                },
                {
                    "name": "A6",
                    "midi": 93,
                    "time": 219.34343699999698,
                    "velocity": 0.5275590551181102,
                    "duration": 0.1646722499999953
                },
                {
                    "name": "A#6",
                    "midi": 94,
                    "time": 219.50810924999698,
                    "velocity": 0.4881889763779528,
                    "duration": 0.1646722499999953
                },
                {
                    "name": "F6",
                    "midi": 89,
                    "time": 219.67278149999697,
                    "velocity": 0.5039370078740157,
                    "duration": 0.1646722499999953
                },
                {
                    "name": "D6",
                    "midi": 86,
                    "time": 219.83745374999697,
                    "velocity": 0.5196850393700787,
                    "duration": 0.1646722499999953
                },
                {
                    "name": "C#6",
                    "midi": 85,
                    "time": 220.00212599999696,
                    "velocity": 0.5826771653543307,
                    "duration": 0.3293444999999906
                },
                {
                    "name": "G6",
                    "midi": 91,
                    "time": 220.33147049999695,
                    "velocity": 0.4645669291338583,
                    "duration": 0.1646722499999953
                },
                {
                    "name": "A#6",
                    "midi": 94,
                    "time": 220.49614274999695,
                    "velocity": 0.4645669291338583,
                    "duration": 0.1646722499999953
                },
                {
                    "name": "C7",
                    "midi": 96,
                    "time": 220.66081499999694,
                    "velocity": 0.5748031496062992,
                    "duration": 0.1646722499999953
                },
                {
                    "name": "C#7",
                    "midi": 97,
                    "time": 220.82548724999694,
                    "velocity": 0.4645669291338583,
                    "duration": 0.1646722499999953
                },
                {
                    "name": "A#6",
                    "midi": 94,
                    "time": 220.99015949999693,
                    "velocity": 0.4645669291338583,
                    "duration": 0.1646722499999953
                },
                {
                    "name": "C#6",
                    "midi": 85,
                    "time": 221.15483174999693,
                    "velocity": 0.4645669291338583,
                    "duration": 0.1646722499999953
                },
                {
                    "name": "C6",
                    "midi": 84,
                    "time": 221.31950399999693,
                    "velocity": 0.3937007874015748,
                    "duration": 0.1646722499999953
                },
                {
                    "name": "D6",
                    "midi": 86,
                    "time": 221.48417624999692,
                    "velocity": 0.4251968503937008,
                    "duration": 0.1646722499999953
                },
                {
                    "name": "D#6",
                    "midi": 87,
                    "time": 221.64884849999692,
                    "velocity": 0.4566929133858268,
                    "duration": 0.1646722499999953
                },
                {
                    "name": "E6",
                    "midi": 88,
                    "time": 221.8135207499969,
                    "velocity": 0.48031496062992124,
                    "duration": 0.1646722499999953
                },
                {
                    "name": "F6",
                    "midi": 89,
                    "time": 221.9781929999969,
                    "velocity": 0.4645669291338583,
                    "duration": 0.1646722499999953
                },
                {
                    "name": "G6",
                    "midi": 91,
                    "time": 222.1428652499969,
                    "velocity": 0.4015748031496063,
                    "duration": 0.1646722499999953
                },
                {
                    "name": "D#6",
                    "midi": 87,
                    "time": 222.3075374999969,
                    "velocity": 0.4015748031496063,
                    "duration": 0.1646722499999953
                },
                {
                    "name": "C6",
                    "midi": 84,
                    "time": 222.4722097499969,
                    "velocity": 0.3779527559055118,
                    "duration": 0.1646722499999953
                },
                {
                    "name": "A#5",
                    "midi": 82,
                    "time": 222.6368819999969,
                    "velocity": 0.4645669291338583,
                    "duration": 0.1646722499999953
                },
                {
                    "name": "F5",
                    "midi": 77,
                    "time": 222.80155424999688,
                    "velocity": 0.3858267716535433,
                    "duration": 0.1646722499999953
                },
                {
                    "name": "D5",
                    "midi": 74,
                    "time": 222.96622649999688,
                    "velocity": 0.3937007874015748,
                    "duration": 0.1646722499999953
                },
                {
                    "name": "A#4",
                    "midi": 70,
                    "time": 223.13089874999687,
                    "velocity": 0.36220472440944884,
                    "duration": 0.1646722499999953
                },
                {
                    "name": "A4",
                    "midi": 69,
                    "time": 223.29557099999687,
                    "velocity": 0.4094488188976378,
                    "duration": 0.1646722499999953
                },
                {
                    "name": "A#4",
                    "midi": 70,
                    "time": 223.46024324999686,
                    "velocity": 0.3858267716535433,
                    "duration": 0.1646722499999953
                },
                {
                    "name": "C5",
                    "midi": 72,
                    "time": 223.62491549999686,
                    "velocity": 0.3700787401574803,
                    "duration": 0.1646722499999953
                },
                {
                    "name": "C#5",
                    "midi": 73,
                    "time": 223.78958774999685,
                    "velocity": 0.3464566929133858,
                    "duration": 0.1646722499999953
                },
                {
                    "name": "D5",
                    "midi": 74,
                    "time": 223.95425999999685,
                    "velocity": 0.49606299212598426,
                    "duration": 0.1646722499999953
                },
                {
                    "name": "F#4",
                    "midi": 66,
                    "time": 224.28360449999684,
                    "velocity": 0.44881889763779526,
                    "duration": 0.6586890000000096
                },
                {
                    "name": "A4",
                    "midi": 69,
                    "time": 224.28360449999684,
                    "velocity": 0.44881889763779526,
                    "duration": 0.6586890000000096
                },
                {
                    "name": "D5",
                    "midi": 74,
                    "time": 224.28360449999684,
                    "velocity": 0.5433070866141733,
                    "duration": 0.6586890000000096
                },
                {
                    "name": "C5",
                    "midi": 72,
                    "time": 224.28360449999684,
                    "velocity": 0.44881889763779526,
                    "duration": 0.6586890000000096
                },
                {
                    "name": "F#4",
                    "midi": 66,
                    "time": 224.94229349999685,
                    "velocity": 0.3779527559055118,
                    "duration": 0.3293444999999906
                },
                {
                    "name": "D5",
                    "midi": 74,
                    "time": 224.94229349999685,
                    "velocity": 0.44881889763779526,
                    "duration": 0.3293444999999906
                },
                {
                    "name": "A4",
                    "midi": 69,
                    "time": 224.94229349999685,
                    "velocity": 0.3779527559055118,
                    "duration": 0.3293444999999906
                },
                {
                    "name": "C5",
                    "midi": 72,
                    "time": 224.94229349999685,
                    "velocity": 0.3779527559055118,
                    "duration": 0.3293444999999906
                },
                {
                    "name": "D5",
                    "midi": 74,
                    "time": 225.60098249999683,
                    "velocity": 0.49606299212598426,
                    "duration": 0.6586890000000096
                },
                {
                    "name": "G4",
                    "midi": 67,
                    "time": 225.60098249999683,
                    "velocity": 0.49606299212598426,
                    "duration": 0.6586890000000096
                },
                {
                    "name": "G5",
                    "midi": 79,
                    "time": 225.60098249999683,
                    "velocity": 0.5905511811023622,
                    "duration": 0.6586890000000096
                },
                {
                    "name": "A#4",
                    "midi": 70,
                    "time": 225.60098249999683,
                    "velocity": 0.49606299212598426,
                    "duration": 0.6586890000000096
                },
                {
                    "name": "D5",
                    "midi": 74,
                    "time": 226.25967149999684,
                    "velocity": 0.3779527559055118,
                    "duration": 0.3293444999999906
                },
                {
                    "name": "A#4",
                    "midi": 70,
                    "time": 226.25967149999684,
                    "velocity": 0.3779527559055118,
                    "duration": 0.3293444999999906
                },
                {
                    "name": "G4",
                    "midi": 67,
                    "time": 226.25967149999684,
                    "velocity": 0.3779527559055118,
                    "duration": 0.3293444999999906
                },
                {
                    "name": "G5",
                    "midi": 79,
                    "time": 226.25967149999684,
                    "velocity": 0.44881889763779526,
                    "duration": 0.3293444999999906
                },
                {
                    "name": "F#4",
                    "midi": 66,
                    "time": 226.91836049999682,
                    "velocity": 0.44881889763779526,
                    "duration": 0.3293444999999906
                },
                {
                    "name": "D5",
                    "midi": 74,
                    "time": 226.91836049999682,
                    "velocity": 0.5354330708661418,
                    "duration": 0.6586889999999812
                },
                {
                    "name": "G4",
                    "midi": 67,
                    "time": 227.2477049999968,
                    "velocity": 0.5511811023622047,
                    "duration": 0.3293444999999906
                },
                {
                    "name": "F5",
                    "midi": 77,
                    "time": 227.5770494999968,
                    "velocity": 0.5275590551181102,
                    "duration": 0.3293444999999906
                },
                {
                    "name": "F4",
                    "midi": 65,
                    "time": 227.5770494999968,
                    "velocity": 0.4409448818897638,
                    "duration": 0.3293444999999906
                },
                {
                    "name": "D5",
                    "midi": 74,
                    "time": 227.5770494999968,
                    "velocity": 0.4409448818897638,
                    "duration": 0.3293444999999906
                },
                {
                    "name": "G4",
                    "midi": 67,
                    "time": 227.5770494999968,
                    "velocity": 0.4409448818897638,
                    "duration": 0.3293444999999906
                },
                {
                    "name": "C5",
                    "midi": 72,
                    "time": 227.9063939999968,
                    "velocity": 0.5275590551181102,
                    "duration": 0.9880335000000002
                },
                {
                    "name": "G4",
                    "midi": 67,
                    "time": 227.9063939999968,
                    "velocity": 0.5354330708661418,
                    "duration": 1.3173779999999908
                },
                {
                    "name": "E4",
                    "midi": 64,
                    "time": 227.9063939999968,
                    "velocity": 0.5354330708661418,
                    "duration": 1.3173779999999908
                },
                {
                    "name": "E5",
                    "midi": 76,
                    "time": 227.9063939999968,
                    "velocity": 0.6299212598425197,
                    "duration": 1.3173779999999908
                },
                {
                    "name": "A#4",
                    "midi": 70,
                    "time": 228.8944274999968,
                    "velocity": 0.44881889763779526,
                    "duration": 0.3293444999999906
                },
                {
                    "name": "C5",
                    "midi": 72,
                    "time": 229.55311649999678,
                    "velocity": 0.49606299212598426,
                    "duration": 0.6586890000000096
                },
                {
                    "name": "A4",
                    "midi": 69,
                    "time": 229.55311649999678,
                    "velocity": 0.49606299212598426,
                    "duration": 0.6586890000000096
                },
                {
                    "name": "F5",
                    "midi": 77,
                    "time": 229.55311649999678,
                    "velocity": 0.49606299212598426,
                    "duration": 0.6586890000000096
                },
                {
                    "name": "A5",
                    "midi": 81,
                    "time": 229.55311649999678,
                    "velocity": 0.5905511811023622,
                    "duration": 0.6586890000000096
                },
                {
                    "name": "C5",
                    "midi": 72,
                    "time": 230.21180549999679,
                    "velocity": 0.3779527559055118,
                    "duration": 0.3293444999999906
                },
                {
                    "name": "A4",
                    "midi": 69,
                    "time": 230.21180549999679,
                    "velocity": 0.3779527559055118,
                    "duration": 0.3293444999999906
                },
                {
                    "name": "F5",
                    "midi": 77,
                    "time": 230.21180549999679,
                    "velocity": 0.3779527559055118,
                    "duration": 0.3293444999999906
                },
                {
                    "name": "A5",
                    "midi": 81,
                    "time": 230.21180549999679,
                    "velocity": 0.44881889763779526,
                    "duration": 0.3293444999999906
                },
                {
                    "name": "D5",
                    "midi": 74,
                    "time": 230.54114999999678,
                    "velocity": 0.5433070866141733,
                    "duration": 0.3293444999999906
                },
                {
                    "name": "G5",
                    "midi": 79,
                    "time": 230.87049449999677,
                    "velocity": 0.44881889763779526,
                    "duration": 0.1646722499999953
                },
                {
                    "name": "A#5",
                    "midi": 82,
                    "time": 231.03516674999676,
                    "velocity": 0.44881889763779526,
                    "duration": 0.1646722499999953
                },
                {
                    "name": "C#6",
                    "midi": 85,
                    "time": 231.19983899999676,
                    "velocity": 0.5118110236220472,
                    "duration": 0.1646722499999953
                },
                {
                    "name": "D6",
                    "midi": 86,
                    "time": 231.36451124999675,
                    "velocity": 0.44881889763779526,
                    "duration": 0.1646722499999953
                },
                {
                    "name": "G6",
                    "midi": 91,
                    "time": 231.52918349999675,
                    "velocity": 0.5118110236220472,
                    "duration": 0.1646722499999953
                },
                {
                    "name": "A#6",
                    "midi": 94,
                    "time": 231.69385574999674,
                    "velocity": 0.5354330708661418,
                    "duration": 0.1646722499999953
                },
                {
                    "name": "E6",
                    "midi": 88,
                    "time": 231.85852799999674,
                    "velocity": 0.5984251968503937,
                    "duration": 0.1646722499999953
                },
                {
                    "name": "C7",
                    "midi": 96,
                    "time": 232.02320024999673,
                    "velocity": 0.5511811023622047,
                    "duration": 0.1646722499999953
                },
                {
                    "name": "A#6",
                    "midi": 94,
                    "time": 232.18787249999673,
                    "velocity": 0.5590551181102362,
                    "duration": 0.1646722499999953
                },
                {
                    "name": "G6",
                    "midi": 91,
                    "time": 232.35254474999672,
                    "velocity": 0.5196850393700787,
                    "duration": 0.1646722499999953
                },
                {
                    "name": "E6",
                    "midi": 88,
                    "time": 232.51721699999672,
                    "velocity": 0.5826771653543307,
                    "duration": 0.1646722499999953
                },
                {
                    "name": "C6",
                    "midi": 84,
                    "time": 232.68188924999671,
                    "velocity": 0.5669291338582677,
                    "duration": 0.1646722499999953
                },
                {
                    "name": "A#5",
                    "midi": 82,
                    "time": 232.8465614999967,
                    "velocity": 0.5433070866141733,
                    "duration": 0.1646722499999953
                },
                {
                    "name": "G5",
                    "midi": 79,
                    "time": 233.0112337499967,
                    "velocity": 0.5275590551181102,
                    "duration": 0.1646722499999953
                },
                {
                    "name": "F5",
                    "midi": 77,
                    "time": 233.1759059999967,
                    "velocity": 0.47244094488188976,
                    "duration": 0.3293444999999906
                },
                {
                    "name": "D#5",
                    "midi": 75,
                    "time": 233.5052504999967,
                    "velocity": 0.41732283464566927,
                    "duration": 0.9880335000000002
                },
                {
                    "name": "F5",
                    "midi": 77,
                    "time": 233.5052504999967,
                    "velocity": 0.41732283464566927,
                    "duration": 0.9880335000000002
                },
                {
                    "name": "C5",
                    "midi": 72,
                    "time": 233.5052504999967,
                    "velocity": 0.41732283464566927,
                    "duration": 0.9880335000000002
                },
                {
                    "name": "A4",
                    "midi": 69,
                    "time": 233.5052504999967,
                    "velocity": 0.41732283464566927,
                    "duration": 0.9880335000000002
                },
                {
                    "name": "D6",
                    "midi": 86,
                    "time": 234.4932839999967,
                    "velocity": 0.5511811023622047,
                    "duration": 0.3293444999999906
                },
                {
                    "name": "C#6",
                    "midi": 85,
                    "time": 234.82262849999668,
                    "velocity": 0.44881889763779526,
                    "duration": 0.1646722499999953
                },
                {
                    "name": "D6",
                    "midi": 86,
                    "time": 234.98730074999668,
                    "velocity": 0.4015748031496063,
                    "duration": 0.1646722499999953
                },
                {
                    "name": "C#6",
                    "midi": 85,
                    "time": 235.15197299999667,
                    "velocity": 0.47244094488188976,
                    "duration": 0.1646722499999953
                },
                {
                    "name": "D6",
                    "midi": 86,
                    "time": 235.31664524999667,
                    "velocity": 0.4015748031496063,
                    "duration": 0.1646722499999953
                },
                {
                    "name": "F6",
                    "midi": 89,
                    "time": 235.48131749999666,
                    "velocity": 0.4015748031496063,
                    "duration": 0.1646722499999953
                },
                {
                    "name": "D6",
                    "midi": 86,
                    "time": 235.64598974999666,
                    "velocity": 0.4015748031496063,
                    "duration": 0.1646722499999953
                },
                {
                    "name": "C6",
                    "midi": 84,
                    "time": 235.81066199999665,
                    "velocity": 0.5039370078740157,
                    "duration": 0.6586890000000096
                },
                {
                    "name": "A#5",
                    "midi": 82,
                    "time": 236.46935099999666,
                    "velocity": 0.44881889763779526,
                    "duration": 0.3293444999999906
                },
                {
                    "name": "A#5",
                    "midi": 82,
                    "time": 237.04570387499666,
                    "velocity": 0.4094488188976378,
                    "duration": 0.08233612500001186
                },
                {
                    "name": "A5",
                    "midi": 81,
                    "time": 237.12803999999667,
                    "velocity": 0.4645669291338583,
                    "duration": 0.1646722499999953
                },
                {
                    "name": "A#5",
                    "midi": 82,
                    "time": 237.29271224999667,
                    "velocity": 0.3858267716535433,
                    "duration": 0.1646722499999953
                },
                {
                    "name": "C6",
                    "midi": 84,
                    "time": 237.45738449999666,
                    "velocity": 0.4566929133858268,
                    "duration": 0.1646722499999953
                },
                {
                    "name": "D6",
                    "midi": 86,
                    "time": 237.62205674999666,
                    "velocity": 0.4015748031496063,
                    "duration": 0.1646722499999953
                },
                {
                    "name": "D#6",
                    "midi": 87,
                    "time": 237.78672899999665,
                    "velocity": 0.4566929133858268,
                    "duration": 0.1646722499999953
                },
                {
                    "name": "E6",
                    "midi": 88,
                    "time": 237.95140124999665,
                    "velocity": 0.3779527559055118,
                    "duration": 0.1646722499999953
                },
                {
                    "name": "F6",
                    "midi": 89,
                    "time": 238.11607349999665,
                    "velocity": 0.4094488188976378,
                    "duration": 0.1646722499999953
                },
                {
                    "name": "F#6",
                    "midi": 90,
                    "time": 238.28074574999664,
                    "velocity": 0.4409448818897638,
                    "duration": 0.1646722499999953
                },
                {
                    "name": "G6",
                    "midi": 91,
                    "time": 238.44541799999664,
                    "velocity": 0.5433070866141733,
                    "duration": 0.08233612500001186
                },
                {
                    "name": "A6",
                    "midi": 93,
                    "time": 238.52775412499665,
                    "velocity": 0.4566929133858268,
                    "duration": 0.08233612500001186
                },
                {
                    "name": "G6",
                    "midi": 91,
                    "time": 238.61009024999666,
                    "velocity": 0.49606299212598426,
                    "duration": 0.08233612500001186
                },
                {
                    "name": "A6",
                    "midi": 93,
                    "time": 238.69242637499667,
                    "velocity": 0.4566929133858268,
                    "duration": 0.08233612500001186
                },
                {
                    "name": "G6",
                    "midi": 91,
                    "time": 238.77476249999668,
                    "velocity": 0.49606299212598426,
                    "duration": 0.08233612500001186
                },
                {
                    "name": "F#6",
                    "midi": 90,
                    "time": 238.8570986249967,
                    "velocity": 0.4881889763779528,
                    "duration": 0.08233612500001186
                },
                {
                    "name": "G6",
                    "midi": 91,
                    "time": 238.9394347499967,
                    "velocity": 0.5196850393700787,
                    "duration": 0.08233612500001186
                },
                {
                    "name": "A6",
                    "midi": 93,
                    "time": 239.02177087499672,
                    "velocity": 0.5511811023622047,
                    "duration": 0.08233612500001186
                },
                {
                    "name": "A#6",
                    "midi": 94,
                    "time": 239.10410699999673,
                    "velocity": 0.5826771653543307,
                    "duration": 0.1646722499999953
                },
                {
                    "name": "C5",
                    "midi": 72,
                    "time": 239.68045987499673,
                    "velocity": 0.3228346456692913,
                    "duration": 0.04116806249999172
                },
                {
                    "name": "D5",
                    "midi": 74,
                    "time": 239.72162793749672,
                    "velocity": 0.3228346456692913,
                    "duration": 0.04116806249999172
                },
                {
                    "name": "C5",
                    "midi": 72,
                    "time": 239.7627959999967,
                    "velocity": 0.4015748031496063,
                    "duration": 0.3293444999999906
                },
                {
                    "name": "B4",
                    "midi": 71,
                    "time": 240.0921404999967,
                    "velocity": 0.31496062992125984,
                    "duration": 0.1646722499999953
                },
                {
                    "name": "C5",
                    "midi": 72,
                    "time": 240.2568127499967,
                    "velocity": 0.33858267716535434,
                    "duration": 0.1646722499999953
                },
                {
                    "name": "E5",
                    "midi": 76,
                    "time": 240.4214849999967,
                    "velocity": 0.4251968503937008,
                    "duration": 0.1646722499999953
                },
                {
                    "name": "A#5",
                    "midi": 82,
                    "time": 240.5861572499967,
                    "velocity": 0.33070866141732286,
                    "duration": 0.1646722499999953
                },
                {
                    "name": "G5",
                    "midi": 79,
                    "time": 240.75082949999668,
                    "velocity": 0.33070866141732286,
                    "duration": 0.1646722499999953
                },
                {
                    "name": "E5",
                    "midi": 76,
                    "time": 240.91550174999668,
                    "velocity": 0.33070866141732286,
                    "duration": 0.08233612500001186
                },
                {
                    "name": "F5",
                    "midi": 77,
                    "time": 240.9978378749967,
                    "velocity": 0.25984251968503935,
                    "duration": 0.04116806249999172
                },
                {
                    "name": "G5",
                    "midi": 79,
                    "time": 241.03900593749668,
                    "velocity": 0.2677165354330709,
                    "duration": 0.04116806249999172
                },
                {
                    "name": "F5",
                    "midi": 77,
                    "time": 241.08017399999667,
                    "velocity": 0.4094488188976378,
                    "duration": 0.3293444999999906
                },
                {
                    "name": "E5",
                    "midi": 76,
                    "time": 241.40951849999666,
                    "velocity": 0.33070866141732286,
                    "duration": 0.1646722499999953
                },
                {
                    "name": "F5",
                    "midi": 77,
                    "time": 241.57419074999666,
                    "velocity": 0.33070866141732286,
                    "duration": 0.1646722499999953
                },
                {
                    "name": "A#5",
                    "midi": 82,
                    "time": 241.73886299999666,
                    "velocity": 0.4566929133858268,
                    "duration": 0.1646722499999953
                },
                {
                    "name": "F6",
                    "midi": 89,
                    "time": 241.90353524999665,
                    "velocity": 0.33858267716535434,
                    "duration": 0.1646722499999953
                },
                {
                    "name": "D6",
                    "midi": 86,
                    "time": 242.06820749999665,
                    "velocity": 0.33858267716535434,
                    "duration": 0.1646722499999953
                },
                {
                    "name": "A#5",
                    "midi": 82,
                    "time": 242.23287974999664,
                    "velocity": 0.29133858267716534,
                    "duration": 0.1646722499999953
                },
                {
                    "name": "A5",
                    "midi": 81,
                    "time": 242.39755199999664,
                    "velocity": 0.2992125984251969,
                    "duration": 0.12350418750000358
                },
                {
                    "name": "A#5",
                    "midi": 82,
                    "time": 242.56222424999663,
                    "velocity": 0.25196850393700787,
                    "duration": 0.12350418750000358
                },
                {
                    "name": "C6",
                    "midi": 84,
                    "time": 242.72689649999663,
                    "velocity": 0.2755905511811024,
                    "duration": 0.12350418750000358
                },
                {
                    "name": "D6",
                    "midi": 86,
                    "time": 242.89156874999662,
                    "velocity": 0.2992125984251969,
                    "duration": 0.12350418750000358
                },
                {
                    "name": "D#6",
                    "midi": 87,
                    "time": 243.05624099999662,
                    "velocity": 0.3228346456692913,
                    "duration": 0.12350418750000358
                },
                {
                    "name": "F6",
                    "midi": 89,
                    "time": 243.2209132499966,
                    "velocity": 0.3464566929133858,
                    "duration": 0.12350418750000358
                },
                {
                    "name": "G6",
                    "midi": 91,
                    "time": 243.3855854999966,
                    "velocity": 0.3779527559055118,
                    "duration": 0.12350418750000358
                },
                {
                    "name": "A6",
                    "midi": 93,
                    "time": 243.5502577499966,
                    "velocity": 0.4015748031496063,
                    "duration": 0.08233612500001186
                },
                {
                    "name": "C7",
                    "midi": 96,
                    "time": 243.63259387499662,
                    "velocity": 0.4015748031496063,
                    "duration": 0.08233612500001186
                },
                {
                    "name": "A#6",
                    "midi": 94,
                    "time": 243.71492999999663,
                    "velocity": 0.4251968503937008,
                    "duration": 0.12350418750000358
                },
                {
                    "name": "F6",
                    "midi": 89,
                    "time": 243.87960224999662,
                    "velocity": 0.3937007874015748,
                    "duration": 0.12350418750000358
                },
                {
                    "name": "D6",
                    "midi": 86,
                    "time": 244.04427449999662,
                    "velocity": 0.3779527559055118,
                    "duration": 0.12350418750000358
                },
                {
                    "name": "A#5",
                    "midi": 82,
                    "time": 244.2089467499966,
                    "velocity": 0.3543307086614173,
                    "duration": 0.12350418750000358
                },
                {
                    "name": "F5",
                    "midi": 77,
                    "time": 244.3736189999966,
                    "velocity": 0.33070866141732286,
                    "duration": 0.12350418750000358
                },
                {
                    "name": "D5",
                    "midi": 74,
                    "time": 244.5382912499966,
                    "velocity": 0.31496062992125984,
                    "duration": 0.12350418750000358
                },
                {
                    "name": "A#4",
                    "midi": 70,
                    "time": 244.7029634999966,
                    "velocity": 0.29133858267716534,
                    "duration": 0.12350418750000358
                },
                {
                    "name": "C5",
                    "midi": 72,
                    "time": 244.8676357499966,
                    "velocity": 0.2677165354330709,
                    "duration": 0.12350418750000358
                },
                {
                    "name": "D5",
                    "midi": 74,
                    "time": 245.0323079999966,
                    "velocity": 0.49606299212598426,
                    "duration": 0.1646722499999953
                },
                {
                    "name": "A4",
                    "midi": 69,
                    "time": 245.36165249999658,
                    "velocity": 0.44881889763779526,
                    "duration": 0.6586890000000096
                },
                {
                    "name": "D5",
                    "midi": 74,
                    "time": 245.36165249999658,
                    "velocity": 0.5433070866141733,
                    "duration": 0.6586890000000096
                },
                {
                    "name": "C5",
                    "midi": 72,
                    "time": 245.36165249999658,
                    "velocity": 0.44881889763779526,
                    "duration": 0.6586890000000096
                },
                {
                    "name": "F#4",
                    "midi": 66,
                    "time": 245.36165249999658,
                    "velocity": 0.44881889763779526,
                    "duration": 0.6586890000000096
                },
                {
                    "name": "A4",
                    "midi": 69,
                    "time": 246.0203414999966,
                    "velocity": 0.3779527559055118,
                    "duration": 0.3293444999999906
                },
                {
                    "name": "D5",
                    "midi": 74,
                    "time": 246.0203414999966,
                    "velocity": 0.44881889763779526,
                    "duration": 0.3293444999999906
                },
                {
                    "name": "C5",
                    "midi": 72,
                    "time": 246.0203414999966,
                    "velocity": 0.3779527559055118,
                    "duration": 0.3293444999999906
                },
                {
                    "name": "F#4",
                    "midi": 66,
                    "time": 246.0203414999966,
                    "velocity": 0.3779527559055118,
                    "duration": 0.3293444999999906
                },
                {
                    "name": "A#4",
                    "midi": 70,
                    "time": 246.67903049999657,
                    "velocity": 0.49606299212598426,
                    "duration": 0.6586890000000096
                },
                {
                    "name": "G4",
                    "midi": 67,
                    "time": 246.67903049999657,
                    "velocity": 0.49606299212598426,
                    "duration": 0.6586890000000096
                },
                {
                    "name": "D5",
                    "midi": 74,
                    "time": 246.67903049999657,
                    "velocity": 0.49606299212598426,
                    "duration": 0.6586890000000096
                },
                {
                    "name": "G5",
                    "midi": 79,
                    "time": 246.67903049999657,
                    "velocity": 0.5905511811023622,
                    "duration": 0.6586890000000096
                },
                {
                    "name": "G4",
                    "midi": 67,
                    "time": 247.33771949999658,
                    "velocity": 0.3779527559055118,
                    "duration": 0.3293444999999906
                },
                {
                    "name": "G5",
                    "midi": 79,
                    "time": 247.33771949999658,
                    "velocity": 0.44881889763779526,
                    "duration": 0.3293444999999906
                },
                {
                    "name": "D5",
                    "midi": 74,
                    "time": 247.33771949999658,
                    "velocity": 0.3779527559055118,
                    "duration": 0.3293444999999906
                },
                {
                    "name": "A#4",
                    "midi": 70,
                    "time": 247.33771949999658,
                    "velocity": 0.3779527559055118,
                    "duration": 0.3293444999999906
                },
                {
                    "name": "F#4",
                    "midi": 66,
                    "time": 247.99640849999656,
                    "velocity": 0.44881889763779526,
                    "duration": 0.3293444999999906
                },
                {
                    "name": "D5",
                    "midi": 74,
                    "time": 247.99640849999656,
                    "velocity": 0.5354330708661418,
                    "duration": 0.6586889999999812
                },
                {
                    "name": "G4",
                    "midi": 67,
                    "time": 248.32575299999655,
                    "velocity": 0.5511811023622047,
                    "duration": 0.3293444999999906
                },
                {
                    "name": "D5",
                    "midi": 74,
                    "time": 248.65509749999654,
                    "velocity": 0.4409448818897638,
                    "duration": 0.3293444999999906
                },
                {
                    "name": "G4",
                    "midi": 67,
                    "time": 248.65509749999654,
                    "velocity": 0.4409448818897638,
                    "duration": 0.3293444999999906
                },
                {
                    "name": "F4",
                    "midi": 65,
                    "time": 248.65509749999654,
                    "velocity": 0.4409448818897638,
                    "duration": 0.3293444999999906
                },
                {
                    "name": "F5",
                    "midi": 77,
                    "time": 248.65509749999654,
                    "velocity": 0.5275590551181102,
                    "duration": 0.3293444999999906
                },
                {
                    "name": "G4",
                    "midi": 67,
                    "time": 248.98444199999653,
                    "velocity": 0.5354330708661418,
                    "duration": 1.3173779999999908
                },
                {
                    "name": "E5",
                    "midi": 76,
                    "time": 248.98444199999653,
                    "velocity": 0.6299212598425197,
                    "duration": 1.3173779999999908
                },
                {
                    "name": "C5",
                    "midi": 72,
                    "time": 248.98444199999653,
                    "velocity": 0.5275590551181102,
                    "duration": 0.9880335000000002
                },
                {
                    "name": "E4",
                    "midi": 64,
                    "time": 248.98444199999653,
                    "velocity": 0.5354330708661418,
                    "duration": 1.3173779999999908
                },
                {
                    "name": "A#4",
                    "midi": 70,
                    "time": 249.97247549999653,
                    "velocity": 0.44881889763779526,
                    "duration": 0.3293444999999906
                },
                {
                    "name": "C5",
                    "midi": 72,
                    "time": 250.63116449999652,
                    "velocity": 0.49606299212598426,
                    "duration": 0.6586890000000096
                },
                {
                    "name": "F5",
                    "midi": 77,
                    "time": 250.63116449999652,
                    "velocity": 0.49606299212598426,
                    "duration": 0.6586890000000096
                },
                {
                    "name": "A4",
                    "midi": 69,
                    "time": 250.63116449999652,
                    "velocity": 0.49606299212598426,
                    "duration": 0.6586890000000096
                },
                {
                    "name": "A5",
                    "midi": 81,
                    "time": 250.63116449999652,
                    "velocity": 0.5905511811023622,
                    "duration": 0.6586890000000096
                },
                {
                    "name": "A4",
                    "midi": 69,
                    "time": 251.28985349999652,
                    "velocity": 0.3779527559055118,
                    "duration": 0.3293444999999906
                },
                {
                    "name": "F5",
                    "midi": 77,
                    "time": 251.28985349999652,
                    "velocity": 0.3779527559055118,
                    "duration": 0.3293444999999906
                },
                {
                    "name": "A5",
                    "midi": 81,
                    "time": 251.28985349999652,
                    "velocity": 0.44881889763779526,
                    "duration": 0.3293444999999906
                },
                {
                    "name": "C5",
                    "midi": 72,
                    "time": 251.28985349999652,
                    "velocity": 0.3779527559055118,
                    "duration": 0.3293444999999906
                },
                {
                    "name": "D5",
                    "midi": 74,
                    "time": 251.61919799999652,
                    "velocity": 0.5433070866141733,
                    "duration": 0.3293444999999906
                },
                {
                    "name": "G5",
                    "midi": 79,
                    "time": 251.9485424999965,
                    "velocity": 0.44881889763779526,
                    "duration": 0.1646722499999953
                },
                {
                    "name": "A#5",
                    "midi": 82,
                    "time": 252.1132147499965,
                    "velocity": 0.44881889763779526,
                    "duration": 0.1646722499999953
                },
                {
                    "name": "C#6",
                    "midi": 85,
                    "time": 252.2778869999965,
                    "velocity": 0.5118110236220472,
                    "duration": 0.1646722499999953
                },
                {
                    "name": "D6",
                    "midi": 86,
                    "time": 252.4425592499965,
                    "velocity": 0.44881889763779526,
                    "duration": 0.1646722499999953
                },
                {
                    "name": "G6",
                    "midi": 91,
                    "time": 252.6072314999965,
                    "velocity": 0.5118110236220472,
                    "duration": 0.1646722499999953
                },
                {
                    "name": "A#6",
                    "midi": 94,
                    "time": 252.77190374999648,
                    "velocity": 0.5354330708661418,
                    "duration": 0.1646722499999953
                },
                {
                    "name": "E6",
                    "midi": 88,
                    "time": 252.93657599999648,
                    "velocity": 0.5984251968503937,
                    "duration": 0.1646722499999953
                },
                {
                    "name": "C7",
                    "midi": 96,
                    "time": 253.10124824999647,
                    "velocity": 0.5511811023622047,
                    "duration": 0.1646722499999953
                },
                {
                    "name": "A#6",
                    "midi": 94,
                    "time": 253.26592049999647,
                    "velocity": 0.5590551181102362,
                    "duration": 0.1646722499999953
                },
                {
                    "name": "G6",
                    "midi": 91,
                    "time": 253.43059274999646,
                    "velocity": 0.5196850393700787,
                    "duration": 0.1646722499999953
                },
                {
                    "name": "E6",
                    "midi": 88,
                    "time": 253.59526499999646,
                    "velocity": 0.5826771653543307,
                    "duration": 0.1646722499999953
                },
                {
                    "name": "C6",
                    "midi": 84,
                    "time": 253.75993724999645,
                    "velocity": 0.5669291338582677,
                    "duration": 0.1646722499999953
                },
                {
                    "name": "A#5",
                    "midi": 82,
                    "time": 253.92460949999645,
                    "velocity": 0.5433070866141733,
                    "duration": 0.1646722499999953
                },
                {
                    "name": "G5",
                    "midi": 79,
                    "time": 254.08928174999645,
                    "velocity": 0.5275590551181102,
                    "duration": 0.1646722499999953
                },
                {
                    "name": "F5",
                    "midi": 77,
                    "time": 254.25395399999644,
                    "velocity": 0.47244094488188976,
                    "duration": 0.3293444999999906
                },
                {
                    "name": "D#5",
                    "midi": 75,
                    "time": 254.58329849999643,
                    "velocity": 0.41732283464566927,
                    "duration": 0.9880335000000002
                },
                {
                    "name": "A4",
                    "midi": 69,
                    "time": 254.58329849999643,
                    "velocity": 0.41732283464566927,
                    "duration": 0.9880335000000002
                },
                {
                    "name": "F5",
                    "midi": 77,
                    "time": 254.58329849999643,
                    "velocity": 0.41732283464566927,
                    "duration": 0.9880335000000002
                },
                {
                    "name": "C5",
                    "midi": 72,
                    "time": 254.58329849999643,
                    "velocity": 0.41732283464566927,
                    "duration": 0.9880335000000002
                },
                {
                    "name": "D6",
                    "midi": 86,
                    "time": 255.57133199999643,
                    "velocity": 0.5511811023622047,
                    "duration": 0.3293444999999906
                },
                {
                    "name": "C#6",
                    "midi": 85,
                    "time": 255.90067649999642,
                    "velocity": 0.44881889763779526,
                    "duration": 0.1646722499999953
                },
                {
                    "name": "D6",
                    "midi": 86,
                    "time": 256.0653487499964,
                    "velocity": 0.4015748031496063,
                    "duration": 0.16467225000002372
                },
                {
                    "name": "C#6",
                    "midi": 85,
                    "time": 256.23002099999644,
                    "velocity": 0.47244094488188976,
                    "duration": 0.16467225000002372
                },
                {
                    "name": "D6",
                    "midi": 86,
                    "time": 256.39469324999646,
                    "velocity": 0.4015748031496063,
                    "duration": 0.16467225000002372
                },
                {
                    "name": "F6",
                    "midi": 89,
                    "time": 256.5593654999965,
                    "velocity": 0.4015748031496063,
                    "duration": 0.16467225000002372
                },
                {
                    "name": "D6",
                    "midi": 86,
                    "time": 256.7240377499965,
                    "velocity": 0.4015748031496063,
                    "duration": 0.16467225000002372
                },
                {
                    "name": "C6",
                    "midi": 84,
                    "time": 256.88870999999654,
                    "velocity": 0.5039370078740157,
                    "duration": 0.6586889999999812
                },
                {
                    "name": "A#5",
                    "midi": 82,
                    "time": 257.5473989999965,
                    "velocity": 0.44881889763779526,
                    "duration": 0.3293444999999906
                },
                {
                    "name": "A#5",
                    "midi": 82,
                    "time": 258.1237518749965,
                    "velocity": 0.4094488188976378,
                    "duration": 0.08233612499998344
                },
                {
                    "name": "A5",
                    "midi": 81,
                    "time": 258.2060879999965,
                    "velocity": 0.4645669291338583,
                    "duration": 0.16467225000002372
                },
                {
                    "name": "A#5",
                    "midi": 82,
                    "time": 258.3707602499965,
                    "velocity": 0.3858267716535433,
                    "duration": 0.16467225000002372
                },
                {
                    "name": "C6",
                    "midi": 84,
                    "time": 258.53543249999655,
                    "velocity": 0.4566929133858268,
                    "duration": 0.16467225000002372
                },
                {
                    "name": "D6",
                    "midi": 86,
                    "time": 258.70010474999657,
                    "velocity": 0.4015748031496063,
                    "duration": 0.16467225000002372
                },
                {
                    "name": "D#6",
                    "midi": 87,
                    "time": 258.8647769999966,
                    "velocity": 0.4566929133858268,
                    "duration": 0.16467225000002372
                },
                {
                    "name": "E6",
                    "midi": 88,
                    "time": 259.0294492499966,
                    "velocity": 0.3779527559055118,
                    "duration": 0.16467225000002372
                },
                {
                    "name": "F6",
                    "midi": 89,
                    "time": 259.19412149999664,
                    "velocity": 0.4094488188976378,
                    "duration": 0.16467225000002372
                },
                {
                    "name": "F#6",
                    "midi": 90,
                    "time": 259.35879374999666,
                    "velocity": 0.4409448818897638,
                    "duration": 0.16467225000002372
                },
                {
                    "name": "G6",
                    "midi": 91,
                    "time": 259.5234659999967,
                    "velocity": 0.5433070866141733,
                    "duration": 0.08233612499998344
                },
                {
                    "name": "A6",
                    "midi": 93,
                    "time": 259.60580212499667,
                    "velocity": 0.4566929133858268,
                    "duration": 0.08233612499998344
                },
                {
                    "name": "G6",
                    "midi": 91,
                    "time": 259.68813824999665,
                    "velocity": 0.49606299212598426,
                    "duration": 0.08233612499998344
                },
                {
                    "name": "A6",
                    "midi": 93,
                    "time": 259.77047437499664,
                    "velocity": 0.4566929133858268,
                    "duration": 0.08233612499998344
                },
                {
                    "name": "G6",
                    "midi": 91,
                    "time": 259.8528104999966,
                    "velocity": 0.49606299212598426,
                    "duration": 0.08233612499998344
                },
                {
                    "name": "F#6",
                    "midi": 90,
                    "time": 259.9351466249966,
                    "velocity": 0.4881889763779528,
                    "duration": 0.08233612499998344
                },
                {
                    "name": "G6",
                    "midi": 91,
                    "time": 260.0174827499966,
                    "velocity": 0.5196850393700787,
                    "duration": 0.08233612499998344
                },
                {
                    "name": "A6",
                    "midi": 93,
                    "time": 260.0998188749966,
                    "velocity": 0.5511811023622047,
                    "duration": 0.08233612499998344
                },
                {
                    "name": "A#6",
                    "midi": 94,
                    "time": 260.18215499999656,
                    "velocity": 0.5826771653543307,
                    "duration": 0.16467225000002372
                },
                {
                    "name": "C5",
                    "midi": 72,
                    "time": 260.75850787499655,
                    "velocity": 0.3228346456692913,
                    "duration": 0.04116806249999172
                },
                {
                    "name": "D5",
                    "midi": 74,
                    "time": 260.79967593749654,
                    "velocity": 0.3228346456692913,
                    "duration": 0.04116806249999172
                },
                {
                    "name": "C5",
                    "midi": 72,
                    "time": 260.84084399999654,
                    "velocity": 0.4015748031496063,
                    "duration": 0.3293444999999906
                },
                {
                    "name": "B4",
                    "midi": 71,
                    "time": 261.1701884999965,
                    "velocity": 0.31496062992125984,
                    "duration": 0.16467225000002372
                },
                {
                    "name": "C5",
                    "midi": 72,
                    "time": 261.33486074999655,
                    "velocity": 0.33858267716535434,
                    "duration": 0.16467225000002372
                },
                {
                    "name": "E5",
                    "midi": 76,
                    "time": 261.4995329999966,
                    "velocity": 0.4251968503937008,
                    "duration": 0.16467225000002372
                },
                {
                    "name": "A#5",
                    "midi": 82,
                    "time": 261.6642052499966,
                    "velocity": 0.33070866141732286,
                    "duration": 0.16467225000002372
                },
                {
                    "name": "G5",
                    "midi": 79,
                    "time": 261.8288774999966,
                    "velocity": 0.33070866141732286,
                    "duration": 0.16467225000002372
                },
                {
                    "name": "E5",
                    "midi": 76,
                    "time": 261.99354974999665,
                    "velocity": 0.33070866141732286,
                    "duration": 0.08233612499998344
                },
                {
                    "name": "F5",
                    "midi": 77,
                    "time": 262.07588587499663,
                    "velocity": 0.25984251968503935,
                    "duration": 0.04116806249999172
                },
                {
                    "name": "G5",
                    "midi": 79,
                    "time": 262.1170539374966,
                    "velocity": 0.2677165354330709,
                    "duration": 0.04116806249999172
                },
                {
                    "name": "F5",
                    "midi": 77,
                    "time": 262.1582219999966,
                    "velocity": 0.4094488188976378,
                    "duration": 0.3293444999999906
                },
                {
                    "name": "E5",
                    "midi": 76,
                    "time": 262.4875664999966,
                    "velocity": 0.33070866141732286,
                    "duration": 0.16467225000002372
                },
                {
                    "name": "F5",
                    "midi": 77,
                    "time": 262.6522387499966,
                    "velocity": 0.33070866141732286,
                    "duration": 0.16467225000002372
                },
                {
                    "name": "A#5",
                    "midi": 82,
                    "time": 262.81691099999665,
                    "velocity": 0.4566929133858268,
                    "duration": 0.16467225000002372
                },
                {
                    "name": "F6",
                    "midi": 89,
                    "time": 262.9815832499967,
                    "velocity": 0.33858267716535434,
                    "duration": 0.16467225000002372
                },
                {
                    "name": "D6",
                    "midi": 86,
                    "time": 263.1462554999967,
                    "velocity": 0.33858267716535434,
                    "duration": 0.16467225000002372
                },
                {
                    "name": "A#5",
                    "midi": 82,
                    "time": 263.3109277499967,
                    "velocity": 0.29133858267716534,
                    "duration": 0.16467225000002372
                },
                {
                    "name": "A5",
                    "midi": 81,
                    "time": 263.47559999999675,
                    "velocity": 0.2992125984251969,
                    "duration": 0.12350418749997516
                },
                {
                    "name": "A#5",
                    "midi": 82,
                    "time": 263.6402722499967,
                    "velocity": 0.25196850393700787,
                    "duration": 0.12350418749997516
                },
                {
                    "name": "C6",
                    "midi": 84,
                    "time": 263.8049444999967,
                    "velocity": 0.2755905511811024,
                    "duration": 0.12350418749997516
                },
                {
                    "name": "D6",
                    "midi": 86,
                    "time": 263.96961674999665,
                    "velocity": 0.2992125984251969,
                    "duration": 0.12350418749997516
                },
                {
                    "name": "D#6",
                    "midi": 87,
                    "time": 264.1342889999966,
                    "velocity": 0.3228346456692913,
                    "duration": 0.12350418749997516
                },
                {
                    "name": "F6",
                    "midi": 89,
                    "time": 264.2989612499966,
                    "velocity": 0.3464566929133858,
                    "duration": 0.12350418749997516
                },
                {
                    "name": "G6",
                    "midi": 91,
                    "time": 264.46363349999655,
                    "velocity": 0.3779527559055118,
                    "duration": 0.12350418749997516
                },
                {
                    "name": "A6",
                    "midi": 93,
                    "time": 264.6283057499965,
                    "velocity": 0.4015748031496063,
                    "duration": 0.08233612499998344
                },
                {
                    "name": "C7",
                    "midi": 96,
                    "time": 264.7106418749965,
                    "velocity": 0.4015748031496063,
                    "duration": 0.08233612499998344
                },
                {
                    "name": "A#6",
                    "midi": 94,
                    "time": 264.7929779999965,
                    "velocity": 0.4251968503937008,
                    "duration": 0.12350418749997516
                },
                {
                    "name": "A6",
                    "midi": 93,
                    "time": 264.95765024999645,
                    "velocity": 0.3937007874015748,
                    "duration": 0.12350418749997516
                },
                {
                    "name": "G6",
                    "midi": 91,
                    "time": 265.1223224999964,
                    "velocity": 0.3779527559055118,
                    "duration": 0.12350418749997516
                },
                {
                    "name": "F6",
                    "midi": 89,
                    "time": 265.2869947499964,
                    "velocity": 0.3543307086614173,
                    "duration": 0.12350418749997516
                },
                {
                    "name": "D#6",
                    "midi": 87,
                    "time": 265.45166699999635,
                    "velocity": 0.33070866141732286,
                    "duration": 0.12350418749997516
                },
                {
                    "name": "D6",
                    "midi": 86,
                    "time": 265.6163392499963,
                    "velocity": 0.31496062992125984,
                    "duration": 0.12350418749997516
                },
                {
                    "name": "C6",
                    "midi": 84,
                    "time": 265.7810114999963,
                    "velocity": 0.29133858267716534,
                    "duration": 0.12350418749997516
                },
                {
                    "name": "B5",
                    "midi": 83,
                    "time": 265.94568374999625,
                    "velocity": 0.2677165354330709,
                    "duration": 0.08233612499998344
                },
                {
                    "name": "D6",
                    "midi": 86,
                    "time": 266.02801987499623,
                    "velocity": 0.4015748031496063,
                    "duration": 0.08233612499998344
                },
                {
                    "name": "C6",
                    "midi": 84,
                    "time": 266.1103559999962,
                    "velocity": 0.4251968503937008,
                    "duration": 0.12350418749997516
                },
                {
                    "name": "A#5",
                    "midi": 82,
                    "time": 266.2750282499962,
                    "velocity": 0.3937007874015748,
                    "duration": 0.12350418749997516
                },
                {
                    "name": "A5",
                    "midi": 81,
                    "time": 266.43970049999615,
                    "velocity": 0.3779527559055118,
                    "duration": 0.12350418749997516
                },
                {
                    "name": "G5",
                    "midi": 79,
                    "time": 266.6043727499961,
                    "velocity": 0.3543307086614173,
                    "duration": 0.12350418749997516
                },
                {
                    "name": "F5",
                    "midi": 77,
                    "time": 266.7690449999961,
                    "velocity": 0.33070866141732286,
                    "duration": 0.12350418749997516
                },
                {
                    "name": "D#5",
                    "midi": 75,
                    "time": 266.93371724999605,
                    "velocity": 0.31496062992125984,
                    "duration": 0.12350418749997516
                },
                {
                    "name": "D5",
                    "midi": 74,
                    "time": 267.098389499996,
                    "velocity": 0.29133858267716534,
                    "duration": 0.12350418749997516
                },
                {
                    "name": "C#5",
                    "midi": 73,
                    "time": 267.263061749996,
                    "velocity": 0.2677165354330709,
                    "duration": 0.08233612499998344
                },
                {
                    "name": "C6",
                    "midi": 84,
                    "time": 267.34539787499597,
                    "velocity": 0.4015748031496063,
                    "duration": 0.08233612499998344
                },
                {
                    "name": "D5",
                    "midi": 74,
                    "time": 267.42773399999595,
                    "velocity": 0.3858267716535433,
                    "duration": 0.12350418749997516
                },
                {
                    "name": "A#5",
                    "midi": 82,
                    "time": 267.42773399999595,
                    "velocity": 0.4251968503937008,
                    "duration": 0.12350418749997516
                },
                {
                    "name": "A5",
                    "midi": 81,
                    "time": 267.5924062499959,
                    "velocity": 0.3937007874015748,
                    "duration": 0.12350418749997516
                },
                {
                    "name": "G5",
                    "midi": 79,
                    "time": 267.7570784999959,
                    "velocity": 0.3779527559055118,
                    "duration": 0.12350418749997516
                },
                {
                    "name": "F5",
                    "midi": 77,
                    "time": 267.92175074999585,
                    "velocity": 0.3543307086614173,
                    "duration": 0.12350418749997516
                },
                {
                    "name": "D#5",
                    "midi": 75,
                    "time": 268.0864229999958,
                    "velocity": 0.33070866141732286,
                    "duration": 0.12350418749997516
                },
                {
                    "name": "D5",
                    "midi": 74,
                    "time": 268.2510952499958,
                    "velocity": 0.31496062992125984,
                    "duration": 0.12350418749997516
                },
                {
                    "name": "C5",
                    "midi": 72,
                    "time": 268.41576749999575,
                    "velocity": 0.29133858267716534,
                    "duration": 0.12350418749997516
                },
                {
                    "name": "B4",
                    "midi": 71,
                    "time": 268.5804397499957,
                    "velocity": 0.2677165354330709,
                    "duration": 0.08233612499998344
                },
                {
                    "name": "D5",
                    "midi": 74,
                    "time": 268.6627758749957,
                    "velocity": 0.3543307086614173,
                    "duration": 0.08233612499998344
                },
                {
                    "name": "C5",
                    "midi": 72,
                    "time": 268.7451119999957,
                    "velocity": 0.3779527559055118,
                    "duration": 0.12350418749997516
                },
                {
                    "name": "A#4",
                    "midi": 70,
                    "time": 268.90978424999565,
                    "velocity": 0.3543307086614173,
                    "duration": 0.12350418749997516
                },
                {
                    "name": "A4",
                    "midi": 69,
                    "time": 269.0744564999956,
                    "velocity": 0.33858267716535434,
                    "duration": 0.12350418749997516
                },
                {
                    "name": "G4",
                    "midi": 67,
                    "time": 269.2391287499956,
                    "velocity": 0.31496062992125984,
                    "duration": 0.12350418749997516
                },
                {
                    "name": "F4",
                    "midi": 65,
                    "time": 269.40380099999555,
                    "velocity": 0.29133858267716534,
                    "duration": 0.12350418749997516
                },
                {
                    "name": "D#4",
                    "midi": 63,
                    "time": 269.5684732499955,
                    "velocity": 0.28346456692913385,
                    "duration": 0.12350418749997516
                },
                {
                    "name": "D4",
                    "midi": 62,
                    "time": 269.7331454999955,
                    "velocity": 0.25984251968503935,
                    "duration": 0.12350418749997516
                },
                {
                    "name": "C4",
                    "midi": 60,
                    "time": 269.89781774999545,
                    "velocity": 0.23622047244094488,
                    "duration": 0.12350418749997516
                },
                {
                    "name": "F4",
                    "midi": 65,
                    "time": 271.05052349999545,
                    "velocity": 0.36220472440944884,
                    "duration": 0.3293444999999906
                },
                {
                    "name": "C#4",
                    "midi": 61,
                    "time": 271.37986799999544,
                    "velocity": 0.33070866141732286,
                    "duration": 0.9880334999999718
                },
                {
                    "name": "F4",
                    "midi": 65,
                    "time": 271.37986799999544,
                    "velocity": 0.33070866141732286,
                    "duration": 0.9880334999999718
                },
                {
                    "name": "C#5",
                    "midi": 73,
                    "time": 271.37986799999544,
                    "velocity": 0.4330708661417323,
                    "duration": 0.9880334999999718
                },
                {
                    "name": "F4",
                    "midi": 65,
                    "time": 272.3679014999954,
                    "velocity": 0.2992125984251969,
                    "duration": 0.3293444999999906
                },
                {
                    "name": "C#5",
                    "midi": 73,
                    "time": 272.3679014999954,
                    "velocity": 0.4015748031496063,
                    "duration": 0.3293444999999906
                },
                {
                    "name": "C#4",
                    "midi": 61,
                    "time": 272.3679014999954,
                    "velocity": 0.2992125984251969,
                    "duration": 0.3293444999999906
                },
                {
                    "name": "C4",
                    "midi": 60,
                    "time": 272.6972459999954,
                    "velocity": 0.33070866141732286,
                    "duration": 0.6586889999999812
                },
                {
                    "name": "C5",
                    "midi": 72,
                    "time": 272.6972459999954,
                    "velocity": 0.4330708661417323,
                    "duration": 0.6586889999999812
                },
                {
                    "name": "F4",
                    "midi": 65,
                    "time": 272.6972459999954,
                    "velocity": 0.33070866141732286,
                    "duration": 0.9880334999999718
                },
                {
                    "name": "A#4",
                    "midi": 70,
                    "time": 273.3559349999954,
                    "velocity": 0.3464566929133858,
                    "duration": 0.3293444999999906
                },
                {
                    "name": "A#3",
                    "midi": 58,
                    "time": 273.3559349999954,
                    "velocity": 0.25984251968503935,
                    "duration": 0.3293444999999906
                },
                {
                    "name": "F4",
                    "midi": 65,
                    "time": 273.6852794999954,
                    "velocity": 0.29133858267716534,
                    "duration": 0.3293444999999906
                },
                {
                    "name": "A#4",
                    "midi": 70,
                    "time": 273.6852794999954,
                    "velocity": 0.3779527559055118,
                    "duration": 0.3293444999999906
                },
                {
                    "name": "A#3",
                    "midi": 58,
                    "time": 273.6852794999954,
                    "velocity": 0.29133858267716534,
                    "duration": 0.3293444999999906
                },
                {
                    "name": "A#3",
                    "midi": 58,
                    "time": 274.01462399999537,
                    "velocity": 0.3543307086614173,
                    "duration": 0.4940167500000143
                },
                {
                    "name": "F4",
                    "midi": 65,
                    "time": 274.01462399999537,
                    "velocity": 0.41732283464566927,
                    "duration": 0.658689000000038
                },
                {
                    "name": "A#4",
                    "midi": 70,
                    "time": 274.01462399999537,
                    "velocity": 0.4566929133858268,
                    "duration": 0.4940167500000143
                },
                {
                    "name": "A3",
                    "midi": 57,
                    "time": 274.5086407499954,
                    "velocity": 0.33070866141732286,
                    "duration": 0.16467225000002372
                },
                {
                    "name": "A4",
                    "midi": 69,
                    "time": 274.5086407499954,
                    "velocity": 0.4330708661417323,
                    "duration": 0.16467225000002372
                },
                {
                    "name": "C4",
                    "midi": 60,
                    "time": 274.6733129999954,
                    "velocity": 0.3543307086614173,
                    "duration": 0.21956299999999374
                },
                {
                    "name": "C5",
                    "midi": 72,
                    "time": 274.6733129999954,
                    "velocity": 0.4645669291338583,
                    "duration": 0.21956299999999374
                },
                {
                    "name": "D#4",
                    "midi": 63,
                    "time": 274.8928759999954,
                    "velocity": 0.3700787401574803,
                    "duration": 0.21956299999999374
                },
                {
                    "name": "D#5",
                    "midi": 75,
                    "time": 274.8928759999954,
                    "velocity": 0.48031496062992124,
                    "duration": 0.21956299999999374
                },
                {
                    "name": "F#4",
                    "midi": 66,
                    "time": 275.1124389999954,
                    "velocity": 0.3779527559055118,
                    "duration": 0.21956299999999374
                },
                {
                    "name": "D#5",
                    "midi": 75,
                    "time": 275.1124389999954,
                    "velocity": 0.3779527559055118,
                    "duration": 0.21956299999999374
                },
                {
                    "name": "C5",
                    "midi": 72,
                    "time": 275.1124389999954,
                    "velocity": 0.3779527559055118,
                    "duration": 0.21956299999999374
                },
                {
                    "name": "F#5",
                    "midi": 78,
                    "time": 275.1124389999954,
                    "velocity": 0.4881889763779528,
                    "duration": 0.21956299999999374
                },
                {
                    "name": "D#5",
                    "midi": 75,
                    "time": 275.3320019999954,
                    "velocity": 0.3937007874015748,
                    "duration": 0.9880334999999718
                },
                {
                    "name": "C5",
                    "midi": 72,
                    "time": 275.3320019999954,
                    "velocity": 0.3937007874015748,
                    "duration": 0.9880334999999718
                },
                {
                    "name": "F4",
                    "midi": 65,
                    "time": 275.3320019999954,
                    "velocity": 0.3937007874015748,
                    "duration": 0.9880334999999718
                },
                {
                    "name": "F5",
                    "midi": 77,
                    "time": 275.3320019999954,
                    "velocity": 0.5039370078740157,
                    "duration": 0.9880334999999718
                },
                {
                    "name": "D#5",
                    "midi": 75,
                    "time": 276.32003549999536,
                    "velocity": 0.4881889763779528,
                    "duration": 0.3293444999999906
                },
                {
                    "name": "D#4",
                    "midi": 63,
                    "time": 276.32003549999536,
                    "velocity": 0.3779527559055118,
                    "duration": 0.3293444999999906
                },
                {
                    "name": "D#4",
                    "midi": 63,
                    "time": 276.64937999999535,
                    "velocity": 0.4330708661417323,
                    "duration": 0.4940167500000143
                },
                {
                    "name": "D#5",
                    "midi": 75,
                    "time": 276.64937999999535,
                    "velocity": 0.5590551181102362,
                    "duration": 0.4940167500000143
                },
                {
                    "name": "C#4",
                    "midi": 61,
                    "time": 277.14339674999536,
                    "velocity": 0.4015748031496063,
                    "duration": 0.16467225000002372
                },
                {
                    "name": "C#5",
                    "midi": 73,
                    "time": 277.14339674999536,
                    "velocity": 0.5275590551181102,
                    "duration": 0.16467225000002372
                },
                {
                    "name": "A#3",
                    "midi": 58,
                    "time": 277.3080689999954,
                    "velocity": 0.4409448818897638,
                    "duration": 0.16467225000002372
                },
                {
                    "name": "A#4",
                    "midi": 70,
                    "time": 277.3080689999954,
                    "velocity": 0.5669291338582677,
                    "duration": 0.16467225000002372
                },
                {
                    "name": "C5",
                    "midi": 72,
                    "time": 277.52763199999544,
                    "velocity": 0.5433070866141733,
                    "duration": 0.16467225000002372
                },
                {
                    "name": "C4",
                    "midi": 60,
                    "time": 277.52763199999544,
                    "velocity": 0.4251968503937008,
                    "duration": 0.16467225000002372
                },
                {
                    "name": "C#4",
                    "midi": 61,
                    "time": 277.7471949999955,
                    "velocity": 0.4251968503937008,
                    "duration": 0.16467225000002372
                },
                {
                    "name": "C#5",
                    "midi": 73,
                    "time": 277.7471949999955,
                    "velocity": 0.5433070866141733,
                    "duration": 0.16467225000002372
                },
                {
                    "name": "F4",
                    "midi": 65,
                    "time": 277.96675799999554,
                    "velocity": 0.4881889763779528,
                    "duration": 0.4940167500000143
                },
                {
                    "name": "F5",
                    "midi": 77,
                    "time": 277.96675799999554,
                    "velocity": 0.6299212598425197,
                    "duration": 0.4940167500000143
                },
                {
                    "name": "D#4",
                    "midi": 63,
                    "time": 278.46077474999555,
                    "velocity": 0.41732283464566927,
                    "duration": 0.14820502499998156
                },
                {
                    "name": "D#5",
                    "midi": 75,
                    "time": 278.46077474999555,
                    "velocity": 0.5354330708661418,
                    "duration": 0.14820502499998156
                },
                {
                    "name": "D#4",
                    "midi": 63,
                    "time": 278.6254469999955,
                    "velocity": 0.47244094488188976,
                    "duration": 0.16467225000002372
                },
                {
                    "name": "D#5",
                    "midi": 75,
                    "time": 278.6254469999955,
                    "velocity": 0.6062992125984252,
                    "duration": 0.16467225000002372
                },
                {
                    "name": "C#5",
                    "midi": 73,
                    "time": 278.84500999999557,
                    "velocity": 0.5275590551181102,
                    "duration": 0.16467225000002372
                },
                {
                    "name": "C#4",
                    "midi": 61,
                    "time": 278.84500999999557,
                    "velocity": 0.4094488188976378,
                    "duration": 0.16467225000002372
                },
                {
                    "name": "C5",
                    "midi": 72,
                    "time": 279.0645729999956,
                    "velocity": 0.5275590551181102,
                    "duration": 0.16467225000002372
                },
                {
                    "name": "C4",
                    "midi": 60,
                    "time": 279.0645729999956,
                    "velocity": 0.4094488188976378,
                    "duration": 0.16467225000002372
                },
                {
                    "name": "A#4",
                    "midi": 70,
                    "time": 279.28413599999567,
                    "velocity": 0.5826771653543307,
                    "duration": 0.4940167500000143
                },
                {
                    "name": "A#3",
                    "midi": 58,
                    "time": 279.28413599999567,
                    "velocity": 0.44881889763779526,
                    "duration": 0.4940167500000143
                },
                {
                    "name": "A4",
                    "midi": 69,
                    "time": 279.7781527499957,
                    "velocity": 0.49606299212598426,
                    "duration": 0.16467225000002372
                },
                {
                    "name": "A3",
                    "midi": 57,
                    "time": 279.7781527499957,
                    "velocity": 0.3858267716535433,
                    "duration": 0.16467225000002372
                },
                {
                    "name": "A#4",
                    "midi": 70,
                    "time": 279.9428249999957,
                    "velocity": 0.5826771653543307,
                    "duration": 0.21956299999999374
                },
                {
                    "name": "A#3",
                    "midi": 58,
                    "time": 279.9428249999957,
                    "velocity": 0.44881889763779526,
                    "duration": 0.21956299999999374
                },
                {
                    "name": "C#5",
                    "midi": 73,
                    "time": 280.1623879999957,
                    "velocity": 0.5039370078740157,
                    "duration": 0.21956299999999374
                },
                {
                    "name": "C#4",
                    "midi": 61,
                    "time": 280.1623879999957,
                    "velocity": 0.3937007874015748,
                    "duration": 0.21956299999999374
                },
                {
                    "name": "C4",
                    "midi": 60,
                    "time": 280.3819509999957,
                    "velocity": 0.3937007874015748,
                    "duration": 0.19760669999999436
                },
                {
                    "name": "C5",
                    "midi": 72,
                    "time": 280.3819509999957,
                    "velocity": 0.5039370078740157,
                    "duration": 0.19760669999999436
                },
                {
                    "name": "C4",
                    "midi": 60,
                    "time": 280.6015139999957,
                    "velocity": 0.44881889763779526,
                    "duration": 0.9880334999999718
                },
                {
                    "name": "C5",
                    "midi": 72,
                    "time": 280.6015139999957,
                    "velocity": 0.5826771653543307,
                    "duration": 0.9880334999999718
                },
                {
                    "name": "F4",
                    "midi": 65,
                    "time": 281.58954749999566,
                    "velocity": 0.5511811023622047,
                    "duration": 0.3293444999999906
                },
                {
                    "name": "C#4",
                    "midi": 61,
                    "time": 281.91889199999565,
                    "velocity": 0.5275590551181102,
                    "duration": 0.9880334999999718
                },
                {
                    "name": "C#5",
                    "midi": 73,
                    "time": 281.91889199999565,
                    "velocity": 0.6220472440944882,
                    "duration": 0.9880334999999718
                },
                {
                    "name": "F4",
                    "midi": 65,
                    "time": 281.91889199999565,
                    "velocity": 0.5275590551181102,
                    "duration": 0.9880334999999718
                },
                {
                    "name": "C#5",
                    "midi": 73,
                    "time": 282.9069254999956,
                    "velocity": 0.5748031496062992,
                    "duration": 0.3293444999999906
                },
                {
                    "name": "F4",
                    "midi": 65,
                    "time": 282.9069254999956,
                    "velocity": 0.4881889763779528,
                    "duration": 0.3293444999999906
                },
                {
                    "name": "C#4",
                    "midi": 61,
                    "time": 282.9069254999956,
                    "velocity": 0.4881889763779528,
                    "duration": 0.3293444999999906
                },
                {
                    "name": "C5",
                    "midi": 72,
                    "time": 283.2362699999956,
                    "velocity": 0.6141732283464567,
                    "duration": 0.6586889999999812
                },
                {
                    "name": "F4",
                    "midi": 65,
                    "time": 283.2362699999956,
                    "velocity": 0.5196850393700787,
                    "duration": 0.9880334999999718
                },
                {
                    "name": "C4",
                    "midi": 60,
                    "time": 283.2362699999956,
                    "velocity": 0.5196850393700787,
                    "duration": 0.6586889999999812
                },
                {
                    "name": "A#3",
                    "midi": 58,
                    "time": 283.8949589999956,
                    "velocity": 0.4330708661417323,
                    "duration": 0.3293444999999906
                },
                {
                    "name": "A#4",
                    "midi": 70,
                    "time": 283.8949589999956,
                    "velocity": 0.5118110236220472,
                    "duration": 0.3293444999999906
                },
                {
                    "name": "F4",
                    "midi": 65,
                    "time": 284.2243034999956,
                    "velocity": 0.47244094488188976,
                    "duration": 0.3293444999999906
                },
                {
                    "name": "A#4",
                    "midi": 70,
                    "time": 284.2243034999956,
                    "velocity": 0.5590551181102362,
                    "duration": 0.3293444999999906
                },
                {
                    "name": "A#3",
                    "midi": 58,
                    "time": 284.2243034999956,
                    "velocity": 0.47244094488188976,
                    "duration": 0.3293444999999906
                },
                {
                    "name": "F4",
                    "midi": 65,
                    "time": 284.5536479999956,
                    "velocity": 0.5354330708661418,
                    "duration": 0.658689000000038
                },
                {
                    "name": "A#4",
                    "midi": 70,
                    "time": 284.5536479999956,
                    "velocity": 0.5905511811023622,
                    "duration": 0.4940167500000143
                },
                {
                    "name": "A#3",
                    "midi": 58,
                    "time": 284.5536479999956,
                    "velocity": 0.4566929133858268,
                    "duration": 0.4940167500000143
                },
                {
                    "name": "A4",
                    "midi": 69,
                    "time": 285.0476647499956,
                    "velocity": 0.5590551181102362,
                    "duration": 0.16467225000002372
                },
                {
                    "name": "A3",
                    "midi": 57,
                    "time": 285.0476647499956,
                    "velocity": 0.4251968503937008,
                    "duration": 0.16467225000002372
                },
                {
                    "name": "C5",
                    "midi": 72,
                    "time": 285.2123369999956,
                    "velocity": 0.5984251968503937,
                    "duration": 0.21956299999999374
                },
                {
                    "name": "C4",
                    "midi": 60,
                    "time": 285.2123369999956,
                    "velocity": 0.4566929133858268,
                    "duration": 0.21956299999999374
                },
                {
                    "name": "D#4",
                    "midi": 63,
                    "time": 285.4318999999956,
                    "velocity": 0.48031496062992124,
                    "duration": 0.21956299999999374
                },
                {
                    "name": "D#5",
                    "midi": 75,
                    "time": 285.4318999999956,
                    "velocity": 0.6220472440944882,
                    "duration": 0.21956299999999374
                },
                {
                    "name": "C5",
                    "midi": 72,
                    "time": 285.6514629999956,
                    "velocity": 0.4881889763779528,
                    "duration": 0.21956299999999374
                },
                {
                    "name": "F#4",
                    "midi": 66,
                    "time": 285.6514629999956,
                    "velocity": 0.4881889763779528,
                    "duration": 0.21956299999999374
                },
                {
                    "name": "F#5",
                    "midi": 78,
                    "time": 285.6514629999956,
                    "velocity": 0.6299212598425197,
                    "duration": 0.21956299999999374
                },
                {
                    "name": "D#5",
                    "midi": 75,
                    "time": 285.6514629999956,
                    "velocity": 0.4881889763779528,
                    "duration": 0.21956299999999374
                },
                {
                    "name": "F4",
                    "midi": 65,
                    "time": 285.8710259999956,
                    "velocity": 0.5118110236220472,
                    "duration": 0.9880334999999718
                },
                {
                    "name": "F5",
                    "midi": 77,
                    "time": 285.8710259999956,
                    "velocity": 0.6535433070866141,
                    "duration": 0.9880334999999718
                },
                {
                    "name": "D#5",
                    "midi": 75,
                    "time": 285.8710259999956,
                    "velocity": 0.5118110236220472,
                    "duration": 0.9880334999999718
                },
                {
                    "name": "C5",
                    "midi": 72,
                    "time": 285.8710259999956,
                    "velocity": 0.5118110236220472,
                    "duration": 0.9880334999999718
                },
                {
                    "name": "D#4",
                    "midi": 63,
                    "time": 286.85905949999557,
                    "velocity": 0.4094488188976378,
                    "duration": 0.3293444999999906
                },
                {
                    "name": "D#5",
                    "midi": 75,
                    "time": 286.85905949999557,
                    "velocity": 0.5354330708661418,
                    "duration": 0.3293444999999906
                },
                {
                    "name": "D#4",
                    "midi": 63,
                    "time": 287.18840399999556,
                    "velocity": 0.47244094488188976,
                    "duration": 0.4940167500000143
                },
                {
                    "name": "D#5",
                    "midi": 75,
                    "time": 287.18840399999556,
                    "velocity": 0.6141732283464567,
                    "duration": 0.4940167500000143
                },
                {
                    "name": "C#4",
                    "midi": 61,
                    "time": 287.6824207499956,
                    "velocity": 0.4015748031496063,
                    "duration": 0.16467225000002372
                },
                {
                    "name": "C#5",
                    "midi": 73,
                    "time": 287.6824207499956,
                    "velocity": 0.5275590551181102,
                    "duration": 0.16467225000002372
                },
                {
                    "name": "A#3",
                    "midi": 58,
                    "time": 287.8470929999956,
                    "velocity": 0.4409448818897638,
                    "duration": 0.16467225000002372
                },
                {
                    "name": "A#4",
                    "midi": 70,
                    "time": 287.8470929999956,
                    "velocity": 0.5669291338582677,
                    "duration": 0.16467225000002372
                },
                {
                    "name": "C5",
                    "midi": 72,
                    "time": 288.06665599999565,
                    "velocity": 0.5433070866141733,
                    "duration": 0.16467225000002372
                },
                {
                    "name": "C4",
                    "midi": 60,
                    "time": 288.06665599999565,
                    "velocity": 0.4251968503937008,
                    "duration": 0.16467225000002372
                },
                {
                    "name": "C#4",
                    "midi": 61,
                    "time": 288.2862189999957,
                    "velocity": 0.4251968503937008,
                    "duration": 0.16467225000002372
                },
                {
                    "name": "C#5",
                    "midi": 73,
                    "time": 288.2862189999957,
                    "velocity": 0.5433070866141733,
                    "duration": 0.16467225000002372
                },
                {
                    "name": "C4",
                    "midi": 60,
                    "time": 288.50578199999575,
                    "velocity": 0.4645669291338583,
                    "duration": 0.4940167500000143
                },
                {
                    "name": "C5",
                    "midi": 72,
                    "time": 288.50578199999575,
                    "velocity": 0.5984251968503937,
                    "duration": 0.4940167500000143
                },
                {
                    "name": "A#3",
                    "midi": 58,
                    "time": 288.99979874999576,
                    "velocity": 0.3543307086614173,
                    "duration": 0.16467225000002372
                },
                {
                    "name": "A#4",
                    "midi": 70,
                    "time": 288.99979874999576,
                    "velocity": 0.44881889763779526,
                    "duration": 0.16467225000002372
                },
                {
                    "name": "C#4",
                    "midi": 61,
                    "time": 289.1644709999958,
                    "velocity": 0.4015748031496063,
                    "duration": 0.16467225000002372
                },
                {
                    "name": "C#5",
                    "midi": 73,
                    "time": 289.1644709999958,
                    "velocity": 0.5118110236220472,
                    "duration": 0.16467225000002372
                },
                {
                    "name": "C4",
                    "midi": 60,
                    "time": 289.38403399999584,
                    "velocity": 0.3464566929133858,
                    "duration": 0.16467225000002372
                },
                {
                    "name": "C5",
                    "midi": 72,
                    "time": 289.38403399999584,
                    "velocity": 0.4409448818897638,
                    "duration": 0.16467225000002372
                },
                {
                    "name": "A#3",
                    "midi": 58,
                    "time": 289.6035969999959,
                    "velocity": 0.3464566929133858,
                    "duration": 0.16467225000002372
                },
                {
                    "name": "A#4",
                    "midi": 70,
                    "time": 289.6035969999959,
                    "velocity": 0.4409448818897638,
                    "duration": 0.16467225000002372
                },
                {
                    "name": "F#3",
                    "midi": 54,
                    "time": 289.82315999999594,
                    "velocity": 0.3779527559055118,
                    "duration": 0.4940167500000143
                },
                {
                    "name": "F#4",
                    "midi": 66,
                    "time": 289.82315999999594,
                    "velocity": 0.4881889763779528,
                    "duration": 0.4940167500000143
                },
                {
                    "name": "F3",
                    "midi": 53,
                    "time": 290.31717674999595,
                    "velocity": 0.2992125984251969,
                    "duration": 0.16467225000002372
                },
                {
                    "name": "F4",
                    "midi": 65,
                    "time": 290.31717674999595,
                    "velocity": 0.3937007874015748,
                    "duration": 0.16467225000002372
                },
                {
                    "name": "F3",
                    "midi": 53,
                    "time": 290.481848999996,
                    "velocity": 0.3543307086614173,
                    "duration": 0.16467225000002372
                },
                {
                    "name": "F4",
                    "midi": 65,
                    "time": 290.481848999996,
                    "velocity": 0.4566929133858268,
                    "duration": 0.16467225000002372
                },
                {
                    "name": "F#3",
                    "midi": 54,
                    "time": 290.701411999996,
                    "velocity": 0.30708661417322836,
                    "duration": 0.16467225000002372
                },
                {
                    "name": "F#4",
                    "midi": 66,
                    "time": 290.701411999996,
                    "velocity": 0.3937007874015748,
                    "duration": 0.16467225000002372
                },
                {
                    "name": "F3",
                    "midi": 53,
                    "time": 290.9209749999961,
                    "velocity": 0.2992125984251969,
                    "duration": 0.16467225000002372
                },
                {
                    "name": "F4",
                    "midi": 65,
                    "time": 290.9209749999961,
                    "velocity": 0.3858267716535433,
                    "duration": 0.16467225000002372
                },
                {
                    "name": "A#3",
                    "midi": 58,
                    "time": 291.1405379999961,
                    "velocity": 0.4330708661417323,
                    "duration": 0.9880334999999718
                },
                {
                    "name": "F5",
                    "midi": 77,
                    "time": 292.1285714999961,
                    "velocity": 0.3937007874015748,
                    "duration": 0.3293444999999906
                },
                {
                    "name": "C#6",
                    "midi": 85,
                    "time": 292.4579159999961,
                    "velocity": 0.47244094488188976,
                    "duration": 0.9880334999999718
                },
                {
                    "name": "F5",
                    "midi": 77,
                    "time": 292.4579159999961,
                    "velocity": 0.36220472440944884,
                    "duration": 0.9880334999999718
                },
                {
                    "name": "C#5",
                    "midi": 73,
                    "time": 292.4579159999961,
                    "velocity": 0.36220472440944884,
                    "duration": 0.9880334999999718
                },
                {
                    "name": "F5",
                    "midi": 77,
                    "time": 293.44594949999606,
                    "velocity": 0.3228346456692913,
                    "duration": 0.3293444999999906
                },
                {
                    "name": "C#5",
                    "midi": 73,
                    "time": 293.44594949999606,
                    "velocity": 0.3228346456692913,
                    "duration": 0.3293444999999906
                },
                {
                    "name": "C#6",
                    "midi": 85,
                    "time": 293.44594949999606,
                    "velocity": 0.4409448818897638,
                    "duration": 0.3293444999999906
                },
                {
                    "name": "C5",
                    "midi": 72,
                    "time": 293.77529399999605,
                    "velocity": 0.36220472440944884,
                    "duration": 0.6586889999999812
                },
                {
                    "name": "F5",
                    "midi": 77,
                    "time": 293.77529399999605,
                    "velocity": 0.36220472440944884,
                    "duration": 0.9880334999999718
                },
                {
                    "name": "C6",
                    "midi": 84,
                    "time": 293.77529399999605,
                    "velocity": 0.47244094488188976,
                    "duration": 0.6586889999999812
                },
                {
                    "name": "A#4",
                    "midi": 70,
                    "time": 294.43398299999603,
                    "velocity": 0.28346456692913385,
                    "duration": 0.3293444999999906
                },
                {
                    "name": "A#5",
                    "midi": 82,
                    "time": 294.43398299999603,
                    "velocity": 0.3779527559055118,
                    "duration": 0.3293444999999906
                },
                {
                    "name": "A#5",
                    "midi": 82,
                    "time": 294.763327499996,
                    "velocity": 0.4094488188976378,
                    "duration": 0.3293444999999906
                },
                {
                    "name": "A#4",
                    "midi": 70,
                    "time": 294.763327499996,
                    "velocity": 0.31496062992125984,
                    "duration": 0.3293444999999906
                },
                {
                    "name": "F5",
                    "midi": 77,
                    "time": 294.763327499996,
                    "velocity": 0.31496062992125984,
                    "duration": 0.3293444999999906
                },
                {
                    "name": "F5",
                    "midi": 77,
                    "time": 295.092671999996,
                    "velocity": 0.4566929133858268,
                    "duration": 0.658689000000038
                },
                {
                    "name": "A#4",
                    "midi": 70,
                    "time": 295.092671999996,
                    "velocity": 0.3858267716535433,
                    "duration": 0.4940167500000143
                },
                {
                    "name": "A#5",
                    "midi": 82,
                    "time": 295.092671999996,
                    "velocity": 0.49606299212598426,
                    "duration": 0.4940167500000143
                },
                {
                    "name": "A4",
                    "midi": 69,
                    "time": 295.58668874999603,
                    "velocity": 0.36220472440944884,
                    "duration": 0.16467225000002372
                },
                {
                    "name": "A5",
                    "midi": 81,
                    "time": 295.58668874999603,
                    "velocity": 0.47244094488188976,
                    "duration": 0.16467225000002372
                },
                {
                    "name": "C5",
                    "midi": 72,
                    "time": 295.75136099999605,
                    "velocity": 0.3858267716535433,
                    "duration": 0.21956299999999374
                },
                {
                    "name": "C6",
                    "midi": 84,
                    "time": 295.75136099999605,
                    "velocity": 0.5039370078740157,
                    "duration": 0.21956299999999374
                },
                {
                    "name": "D#6",
                    "midi": 87,
                    "time": 295.97092399999605,
                    "velocity": 0.5275590551181102,
                    "duration": 0.21956299999999374
                },
                {
                    "name": "D#5",
                    "midi": 75,
                    "time": 295.97092399999605,
                    "velocity": 0.4015748031496063,
                    "duration": 0.21956299999999374
                },
                {
                    "name": "D#6",
                    "midi": 87,
                    "time": 296.19048699999604,
                    "velocity": 0.4094488188976378,
                    "duration": 0.21956299999999374
                },
                {
                    "name": "C6",
                    "midi": 84,
                    "time": 296.19048699999604,
                    "velocity": 0.4094488188976378,
                    "duration": 0.21956299999999374
                },
                {
                    "name": "F#6",
                    "midi": 90,
                    "time": 296.19048699999604,
                    "velocity": 0.5354330708661418,
                    "duration": 0.21956299999999374
                },
                {
                    "name": "F#5",
                    "midi": 78,
                    "time": 296.19048699999604,
                    "velocity": 0.4094488188976378,
                    "duration": 0.21956299999999374
                },
                {
                    "name": "C6",
                    "midi": 84,
                    "time": 296.41004999999603,
                    "velocity": 0.4330708661417323,
                    "duration": 0.9880334999999718
                },
                {
                    "name": "F5",
                    "midi": 77,
                    "time": 296.41004999999603,
                    "velocity": 0.4330708661417323,
                    "duration": 0.9880334999999718
                },
                {
                    "name": "F6",
                    "midi": 89,
                    "time": 296.41004999999603,
                    "velocity": 0.5511811023622047,
                    "duration": 0.9880334999999718
                },
                {
                    "name": "D#6",
                    "midi": 87,
                    "time": 296.41004999999603,
                    "velocity": 0.4330708661417323,
                    "duration": 0.9880334999999718
                },
                {
                    "name": "D#5",
                    "midi": 75,
                    "time": 297.398083499996,
                    "velocity": 0.4251968503937008,
                    "duration": 0.3293444999999906
                },
                {
                    "name": "D#6",
                    "midi": 87,
                    "time": 297.398083499996,
                    "velocity": 0.5590551181102362,
                    "duration": 0.3293444999999906
                },
                {
                    "name": "D#5",
                    "midi": 75,
                    "time": 297.727427999996,
                    "velocity": 0.49606299212598426,
                    "duration": 0.4940167500000143
                },
                {
                    "name": "D#6",
                    "midi": 87,
                    "time": 297.727427999996,
                    "velocity": 0.6377952755905512,
                    "duration": 0.4940167500000143
                },
                {
                    "name": "C#5",
                    "midi": 73,
                    "time": 298.221444749996,
                    "velocity": 0.4409448818897638,
                    "duration": 0.16467225000002372
                },
                {
                    "name": "C#6",
                    "midi": 85,
                    "time": 298.221444749996,
                    "velocity": 0.5748031496062992,
                    "duration": 0.16467225000002372
                },
                {
                    "name": "A#4",
                    "midi": 70,
                    "time": 298.38611699999603,
                    "velocity": 0.48031496062992124,
                    "duration": 0.16467225000002372
                },
                {
                    "name": "A#5",
                    "midi": 82,
                    "time": 298.38611699999603,
                    "velocity": 0.6220472440944882,
                    "duration": 0.16467225000002372
                },
                {
                    "name": "C5",
                    "midi": 72,
                    "time": 298.6056799999961,
                    "velocity": 0.4645669291338583,
                    "duration": 0.16467225000002372
                },
                {
                    "name": "C6",
                    "midi": 84,
                    "time": 298.6056799999961,
                    "velocity": 0.5905511811023622,
                    "duration": 0.16467225000002372
                },
                {
                    "name": "C#5",
                    "midi": 73,
                    "time": 298.82524299999614,
                    "velocity": 0.4645669291338583,
                    "duration": 0.1029201562499793
                },
                {
                    "name": "C#6",
                    "midi": 85,
                    "time": 298.82524299999614,
                    "velocity": 0.5905511811023622,
                    "duration": 0.1029201562499793
                },
                {
                    "name": "C#6",
                    "midi": 85,
                    "time": 298.9624698749961,
                    "velocity": 0.4881889763779528,
                    "duration": 0.08233612499998344
                },
                {
                    "name": "F5",
                    "midi": 77,
                    "time": 299.0448059999961,
                    "velocity": 0.5354330708661418,
                    "duration": 0.4940167500000143
                },
                {
                    "name": "F6",
                    "midi": 89,
                    "time": 299.0448059999961,
                    "velocity": 0.6929133858267716,
                    "duration": 0.4940167500000143
                },
                {
                    "name": "D#5",
                    "midi": 75,
                    "time": 299.5388227499961,
                    "velocity": 0.4566929133858268,
                    "duration": 0.16467225000002372
                },
                {
                    "name": "D#6",
                    "midi": 87,
                    "time": 299.5388227499961,
                    "velocity": 0.5826771653543307,
                    "duration": 0.16467225000002372
                },
                {
                    "name": "D#6",
                    "midi": 87,
                    "time": 299.7034949999961,
                    "velocity": 0.6614173228346457,
                    "duration": 0.16467225000002372
                },
                {
                    "name": "D#5",
                    "midi": 75,
                    "time": 299.7034949999961,
                    "velocity": 0.5196850393700787,
                    "duration": 0.16467225000002372
                },
                {
                    "name": "C#5",
                    "midi": 73,
                    "time": 299.92305799999616,
                    "velocity": 0.44881889763779526,
                    "duration": 0.16467225000002372
                },
                {
                    "name": "C#6",
                    "midi": 85,
                    "time": 299.92305799999616,
                    "velocity": 0.5748031496062992,
                    "duration": 0.16467225000002372
                },
                {
                    "name": "C5",
                    "midi": 72,
                    "time": 300.1426209999962,
                    "velocity": 0.44881889763779526,
                    "duration": 0.16467225000002372
                },
                {
                    "name": "C6",
                    "midi": 84,
                    "time": 300.1426209999962,
                    "velocity": 0.5748031496062992,
                    "duration": 0.16467225000002372
                },
                {
                    "name": "A#4",
                    "midi": 70,
                    "time": 300.36218399999626,
                    "velocity": 0.4881889763779528,
                    "duration": 0.4940167500000143
                },
                {
                    "name": "A#5",
                    "midi": 82,
                    "time": 300.36218399999626,
                    "velocity": 0.6377952755905512,
                    "duration": 0.4940167500000143
                },
                {
                    "name": "A4",
                    "midi": 69,
                    "time": 300.8562007499963,
                    "velocity": 0.41732283464566927,
                    "duration": 0.16467225000002372
                },
                {
                    "name": "A5",
                    "midi": 81,
                    "time": 300.8562007499963,
                    "velocity": 0.5433070866141733,
                    "duration": 0.16467225000002372
                },
                {
                    "name": "A#5",
                    "midi": 82,
                    "time": 301.0208729999963,
                    "velocity": 0.6377952755905512,
                    "duration": 0.21956299999999374
                },
                {
                    "name": "A#4",
                    "midi": 70,
                    "time": 301.0208729999963,
                    "velocity": 0.4881889763779528,
                    "duration": 0.21956299999999374
                },
                {
                    "name": "C#6",
                    "midi": 85,
                    "time": 301.2404359999963,
                    "velocity": 0.5511811023622047,
                    "duration": 0.21956299999999374
                },
                {
                    "name": "C#5",
                    "midi": 73,
                    "time": 301.2404359999963,
                    "velocity": 0.4330708661417323,
                    "duration": 0.21956299999999374
                },
                {
                    "name": "C6",
                    "midi": 84,
                    "time": 301.4599989999963,
                    "velocity": 0.5511811023622047,
                    "duration": 0.21956299999999374
                },
                {
                    "name": "C5",
                    "midi": 72,
                    "time": 301.4599989999963,
                    "velocity": 0.4330708661417323,
                    "duration": 0.21956299999999374
                },
                {
                    "name": "C6",
                    "midi": 84,
                    "time": 301.6795619999963,
                    "velocity": 0.6377952755905512,
                    "duration": 0.9880334999999718
                },
                {
                    "name": "C5",
                    "midi": 72,
                    "time": 301.6795619999963,
                    "velocity": 0.4881889763779528,
                    "duration": 0.9880334999999718
                },
                {
                    "name": "F5",
                    "midi": 77,
                    "time": 302.66759549999625,
                    "velocity": 0.6062992125984252,
                    "duration": 0.3293444999999906
                },
                {
                    "name": "F5",
                    "midi": 77,
                    "time": 302.99693999999624,
                    "velocity": 0.5748031496062992,
                    "duration": 0.9880334999999718
                },
                {
                    "name": "C#6",
                    "midi": 85,
                    "time": 302.99693999999624,
                    "velocity": 0.6771653543307087,
                    "duration": 0.9880334999999718
                },
                {
                    "name": "C#5",
                    "midi": 73,
                    "time": 302.99693999999624,
                    "velocity": 0.5748031496062992,
                    "duration": 0.9880334999999718
                },
                {
                    "name": "C#5",
                    "midi": 73,
                    "time": 303.9849734999962,
                    "velocity": 0.5354330708661418,
                    "duration": 0.3293444999999906
                },
                {
                    "name": "C#6",
                    "midi": 85,
                    "time": 303.9849734999962,
                    "velocity": 0.6299212598425197,
                    "duration": 0.3293444999999906
                },
                {
                    "name": "F5",
                    "midi": 77,
                    "time": 303.9849734999962,
                    "velocity": 0.5354330708661418,
                    "duration": 0.3293444999999906
                },
                {
                    "name": "F5",
                    "midi": 77,
                    "time": 304.3143179999962,
                    "velocity": 0.5669291338582677,
                    "duration": 0.9880334999999718
                },
                {
                    "name": "C5",
                    "midi": 72,
                    "time": 304.3143179999962,
                    "velocity": 0.5669291338582677,
                    "duration": 0.6586889999999812
                },
                {
                    "name": "C6",
                    "midi": 84,
                    "time": 304.3143179999962,
                    "velocity": 0.6692913385826772,
                    "duration": 0.6586889999999812
                },
                {
                    "name": "A#4",
                    "midi": 70,
                    "time": 304.9730069999962,
                    "velocity": 0.47244094488188976,
                    "duration": 0.3293444999999906
                },
                {
                    "name": "A#5",
                    "midi": 82,
                    "time": 304.9730069999962,
                    "velocity": 0.5590551181102362,
                    "duration": 0.3293444999999906
                },
                {
                    "name": "A#5",
                    "midi": 82,
                    "time": 305.3023514999962,
                    "velocity": 0.6141732283464567,
                    "duration": 0.3293444999999906
                },
                {
                    "name": "F5",
                    "midi": 77,
                    "time": 305.3023514999962,
                    "velocity": 0.5196850393700787,
                    "duration": 0.3293444999999906
                },
                {
                    "name": "A#4",
                    "midi": 70,
                    "time": 305.3023514999962,
                    "velocity": 0.5196850393700787,
                    "duration": 0.3293444999999906
                },
                {
                    "name": "A#5",
                    "midi": 82,
                    "time": 305.63169599999617,
                    "velocity": 0.6456692913385826,
                    "duration": 0.4940167500000143
                },
                {
                    "name": "A#4",
                    "midi": 70,
                    "time": 305.63169599999617,
                    "velocity": 0.49606299212598426,
                    "duration": 0.4940167500000143
                },
                {
                    "name": "F5",
                    "midi": 77,
                    "time": 305.63169599999617,
                    "velocity": 0.5826771653543307,
                    "duration": 0.658689000000038
                },
                {
                    "name": "A4",
                    "midi": 69,
                    "time": 306.1257127499962,
                    "velocity": 0.4645669291338583,
                    "duration": 0.16467225000002372
                },
                {
                    "name": "A5",
                    "midi": 81,
                    "time": 306.1257127499962,
                    "velocity": 0.6141732283464567,
                    "duration": 0.16467225000002372
                },
                {
                    "name": "C6",
                    "midi": 84,
                    "time": 306.2903849999962,
                    "velocity": 0.6535433070866141,
                    "duration": 0.21956299999999374
                },
                {
                    "name": "C5",
                    "midi": 72,
                    "time": 306.2903849999962,
                    "velocity": 0.49606299212598426,
                    "duration": 0.21956299999999374
                },
                {
                    "name": "D#5",
                    "midi": 75,
                    "time": 306.5099479999962,
                    "velocity": 0.5275590551181102,
                    "duration": 0.21956299999999374
                },
                {
                    "name": "D#6",
                    "midi": 87,
                    "time": 306.5099479999962,
                    "velocity": 0.6771653543307087,
                    "duration": 0.21956299999999374
                },
                {
                    "name": "F#5",
                    "midi": 78,
                    "time": 306.7295109999962,
                    "velocity": 0.5354330708661418,
                    "duration": 0.21956299999999374
                },
                {
                    "name": "F#6",
                    "midi": 90,
                    "time": 306.7295109999962,
                    "velocity": 0.6929133858267716,
                    "duration": 0.21956299999999374
                },
                {
                    "name": "C6",
                    "midi": 84,
                    "time": 306.7295109999962,
                    "velocity": 0.5354330708661418,
                    "duration": 0.21956299999999374
                },
                {
                    "name": "D#6",
                    "midi": 87,
                    "time": 306.7295109999962,
                    "velocity": 0.5354330708661418,
                    "duration": 0.21956299999999374
                },
                {
                    "name": "C6",
                    "midi": 84,
                    "time": 306.9490739999962,
                    "velocity": 0.5590551181102362,
                    "duration": 0.9880334999999718
                },
                {
                    "name": "D#6",
                    "midi": 87,
                    "time": 306.9490739999962,
                    "velocity": 0.5590551181102362,
                    "duration": 0.9880334999999718
                },
                {
                    "name": "F6",
                    "midi": 89,
                    "time": 306.9490739999962,
                    "velocity": 0.7165354330708661,
                    "duration": 0.9880334999999718
                },
                {
                    "name": "F5",
                    "midi": 77,
                    "time": 306.9490739999962,
                    "velocity": 0.5590551181102362,
                    "duration": 0.9880334999999718
                },
                {
                    "name": "D#5",
                    "midi": 75,
                    "time": 307.93710749999616,
                    "velocity": 0.49606299212598426,
                    "duration": 0.3293444999999906
                },
                {
                    "name": "D#6",
                    "midi": 87,
                    "time": 307.93710749999616,
                    "velocity": 0.6062992125984252,
                    "duration": 0.3293444999999906
                },
                {
                    "name": "D#5",
                    "midi": 75,
                    "time": 308.26645199999615,
                    "velocity": 0.49606299212598426,
                    "duration": 0.4940167500000143
                },
                {
                    "name": "D#6",
                    "midi": 87,
                    "time": 308.26645199999615,
                    "velocity": 0.6377952755905512,
                    "duration": 0.4940167500000143
                },
                {
                    "name": "C#5",
                    "midi": 73,
                    "time": 308.76046874999616,
                    "velocity": 0.41732283464566927,
                    "duration": 0.16467225000002372
                },
                {
                    "name": "C#6",
                    "midi": 85,
                    "time": 308.76046874999616,
                    "velocity": 0.5433070866141733,
                    "duration": 0.16467225000002372
                },
                {
                    "name": "A#5",
                    "midi": 82,
                    "time": 308.9251409999962,
                    "velocity": 0.5905511811023622,
                    "duration": 0.16467225000002372
                },
                {
                    "name": "A#4",
                    "midi": 70,
                    "time": 308.9251409999962,
                    "velocity": 0.44881889763779526,
                    "duration": 0.16467225000002372
                },
                {
                    "name": "C6",
                    "midi": 84,
                    "time": 309.14470399999624,
                    "velocity": 0.5590551181102362,
                    "duration": 0.16467225000002372
                },
                {
                    "name": "C5",
                    "midi": 72,
                    "time": 309.14470399999624,
                    "velocity": 0.4409448818897638,
                    "duration": 0.16467225000002372
                },
                {
                    "name": "C#6",
                    "midi": 85,
                    "time": 309.3642669999963,
                    "velocity": 0.5590551181102362,
                    "duration": 0.16467225000002372
                },
                {
                    "name": "C#5",
                    "midi": 73,
                    "time": 309.3642669999963,
                    "velocity": 0.4409448818897638,
                    "duration": 0.16467225000002372
                },
                {
                    "name": "C6",
                    "midi": 84,
                    "time": 309.58382999999634,
                    "velocity": 0.6141732283464567,
                    "duration": 0.4940167500000143
                },
                {
                    "name": "C5",
                    "midi": 72,
                    "time": 309.58382999999634,
                    "velocity": 0.47244094488188976,
                    "duration": 0.4940167500000143
                },
                {
                    "name": "A#5",
                    "midi": 82,
                    "time": 310.07784674999635,
                    "velocity": 0.4566929133858268,
                    "duration": 0.16467225000002372
                },
                {
                    "name": "A#4",
                    "midi": 70,
                    "time": 310.07784674999635,
                    "velocity": 0.36220472440944884,
                    "duration": 0.16467225000002372
                },
                {
                    "name": "C#6",
                    "midi": 85,
                    "time": 310.2425189999964,
                    "velocity": 0.5275590551181102,
                    "duration": 0.16467225000002372
                },
                {
                    "name": "C#5",
                    "midi": 73,
                    "time": 310.2425189999964,
                    "velocity": 0.41732283464566927,
                    "duration": 0.16467225000002372
                },
                {
                    "name": "C5",
                    "midi": 72,
                    "time": 310.4620819999964,
                    "velocity": 0.3543307086614173,
                    "duration": 0.16467225000002372
                },
                {
                    "name": "C6",
                    "midi": 84,
                    "time": 310.4620819999964,
                    "velocity": 0.44881889763779526,
                    "duration": 0.16467225000002372
                },
                {
                    "name": "A#4",
                    "midi": 70,
                    "time": 310.6816449999965,
                    "velocity": 0.3543307086614173,
                    "duration": 0.16467225000002372
                },
                {
                    "name": "A#5",
                    "midi": 82,
                    "time": 310.6816449999965,
                    "velocity": 0.44881889763779526,
                    "duration": 0.16467225000002372
                },
                {
                    "name": "F#4",
                    "midi": 66,
                    "time": 310.90120799999653,
                    "velocity": 0.3858267716535433,
                    "duration": 0.4940167500000143
                },
                {
                    "name": "F#5",
                    "midi": 78,
                    "time": 310.90120799999653,
                    "velocity": 0.5039370078740157,
                    "duration": 0.4940167500000143
                },
                {
                    "name": "F5",
                    "midi": 77,
                    "time": 311.39522474999654,
                    "velocity": 0.4094488188976378,
                    "duration": 0.16467225000002372
                },
                {
                    "name": "F4",
                    "midi": 65,
                    "time": 311.39522474999654,
                    "velocity": 0.2992125984251969,
                    "duration": 0.16467225000002372
                },
                {
                    "name": "F4",
                    "midi": 65,
                    "time": 311.55989699999657,
                    "velocity": 0.36220472440944884,
                    "duration": 0.16467225000002372
                },
                {
                    "name": "F5",
                    "midi": 77,
                    "time": 311.55989699999657,
                    "velocity": 0.4645669291338583,
                    "duration": 0.16467225000002372
                },
                {
                    "name": "F#4",
                    "midi": 66,
                    "time": 311.7794599999966,
                    "velocity": 0.30708661417322836,
                    "duration": 0.16467225000002372
                },
                {
                    "name": "F#5",
                    "midi": 78,
                    "time": 311.7794599999966,
                    "velocity": 0.4094488188976378,
                    "duration": 0.16467225000002372
                },
                {
                    "name": "F4",
                    "midi": 65,
                    "time": 311.99902299999667,
                    "velocity": 0.2992125984251969,
                    "duration": 0.16467225000002372
                },
                {
                    "name": "F5",
                    "midi": 77,
                    "time": 311.99902299999667,
                    "velocity": 0.3937007874015748,
                    "duration": 0.16467225000002372
                },
                {
                    "name": "A#3",
                    "midi": 58,
                    "time": 312.2185859999967,
                    "velocity": 0.44881889763779526,
                    "duration": 0.9880334999999718
                },
                {
                    "name": "A#4",
                    "midi": 70,
                    "time": 312.2185859999967,
                    "velocity": 0.44881889763779526,
                    "duration": 0.9880334999999718
                },
                {
                    "name": "C#4",
                    "midi": 61,
                    "time": 313.2066194999967,
                    "velocity": 0.5669291338582677,
                    "duration": 0.3293444999999906
                },
                {
                    "name": "C#5",
                    "midi": 73,
                    "time": 313.2066194999967,
                    "velocity": 0.5669291338582677,
                    "duration": 0.3293444999999906
                },
                {
                    "name": "C#4",
                    "midi": 61,
                    "time": 313.5359639999967,
                    "velocity": 0.6299212598425197,
                    "duration": 0.6586889999999812
                },
                {
                    "name": "C#5",
                    "midi": 73,
                    "time": 313.5359639999967,
                    "velocity": 0.6299212598425197,
                    "duration": 0.6586889999999812
                },
                {
                    "name": "C#4",
                    "midi": 61,
                    "time": 314.19465299999666,
                    "velocity": 0.6141732283464567,
                    "duration": 0.21956299999999374
                },
                {
                    "name": "C#5",
                    "midi": 73,
                    "time": 314.19465299999666,
                    "velocity": 0.6141732283464567,
                    "duration": 0.21956299999999374
                },
                {
                    "name": "D#4",
                    "midi": 63,
                    "time": 314.41421599999666,
                    "velocity": 0.5748031496062992,
                    "duration": 0.21956299999999374
                },
                {
                    "name": "D#5",
                    "midi": 75,
                    "time": 314.41421599999666,
                    "velocity": 0.5748031496062992,
                    "duration": 0.21956299999999374
                },
                {
                    "name": "C#4",
                    "midi": 61,
                    "time": 314.63377899999665,
                    "velocity": 0.5826771653543307,
                    "duration": 0.21956299999999374
                },
                {
                    "name": "C#5",
                    "midi": 73,
                    "time": 314.63377899999665,
                    "velocity": 0.5826771653543307,
                    "duration": 0.21956299999999374
                },
                {
                    "name": "C#4",
                    "midi": 61,
                    "time": 314.85334199999664,
                    "velocity": 0.6299212598425197,
                    "duration": 0.6586889999999812
                },
                {
                    "name": "C#5",
                    "midi": 73,
                    "time": 314.85334199999664,
                    "velocity": 0.6299212598425197,
                    "duration": 0.6586889999999812
                },
                {
                    "name": "A#3",
                    "midi": 58,
                    "time": 315.5120309999966,
                    "velocity": 0.5511811023622047,
                    "duration": 0.16467225000002372
                },
                {
                    "name": "A#4",
                    "midi": 70,
                    "time": 315.5120309999966,
                    "velocity": 0.5511811023622047,
                    "duration": 0.4940167500000143
                },
                {
                    "name": "A#4",
                    "midi": 70,
                    "time": 316.00604774999664,
                    "velocity": 0.6062992125984252,
                    "duration": 0.16467225000002372
                },
                {
                    "name": "A#5",
                    "midi": 82,
                    "time": 316.00604774999664,
                    "velocity": 0.6062992125984252,
                    "duration": 0.16467225000002372
                },
                {
                    "name": "A#4",
                    "midi": 70,
                    "time": 316.17071999999666,
                    "velocity": 0.6535433070866141,
                    "duration": 0.4940167500000143
                },
                {
                    "name": "A#5",
                    "midi": 82,
                    "time": 316.17071999999666,
                    "velocity": 0.6535433070866141,
                    "duration": 0.4940167500000143
                },
                {
                    "name": "B5",
                    "midi": 83,
                    "time": 316.6647367499967,
                    "velocity": 0.6771653543307087,
                    "duration": 0.38423525000001746
                },
                {
                    "name": "B4",
                    "midi": 71,
                    "time": 316.6647367499967,
                    "velocity": 0.6771653543307087,
                    "duration": 0.38423525000001746
                },
                {
                    "name": "C6",
                    "midi": 84,
                    "time": 317.0489719999967,
                    "velocity": 0.6535433070866141,
                    "duration": 0.21956299999999374
                },
                {
                    "name": "C5",
                    "midi": 72,
                    "time": 317.0489719999967,
                    "velocity": 0.6535433070866141,
                    "duration": 0.21956299999999374
                },
                {
                    "name": "C#6",
                    "midi": 85,
                    "time": 317.2685349999967,
                    "velocity": 0.6692913385826772,
                    "duration": 0.1372268750000103
                },
                {
                    "name": "C#5",
                    "midi": 73,
                    "time": 317.2685349999967,
                    "velocity": 0.6692913385826772,
                    "duration": 0.1372268750000103
                },
                {
                    "name": "C#6",
                    "midi": 85,
                    "time": 317.4057618749967,
                    "velocity": 0.6299212598425197,
                    "duration": 0.08233612499998344
                },
                {
                    "name": "F5",
                    "midi": 77,
                    "time": 317.4880979999967,
                    "velocity": 0.7086614173228346,
                    "duration": 0.4940167500000143
                },
                {
                    "name": "F6",
                    "midi": 89,
                    "time": 317.4880979999967,
                    "velocity": 0.7086614173228346,
                    "duration": 0.4940167500000143
                },
                {
                    "name": "C#5",
                    "midi": 73,
                    "time": 317.9821147499967,
                    "velocity": 0.6535433070866141,
                    "duration": 0.16467225000002372
                },
                {
                    "name": "C#6",
                    "midi": 85,
                    "time": 317.9821147499967,
                    "velocity": 0.6535433070866141,
                    "duration": 0.16467225000002372
                },
                {
                    "name": "C6",
                    "midi": 84,
                    "time": 318.1467869999967,
                    "velocity": 0.6141732283464567,
                    "duration": 0.3293444999999906
                },
                {
                    "name": "C5",
                    "midi": 72,
                    "time": 318.1467869999967,
                    "velocity": 0.6141732283464567,
                    "duration": 0.3293444999999906
                },
                {
                    "name": "C4",
                    "midi": 60,
                    "time": 318.8054759999967,
                    "velocity": 0.33070866141732286,
                    "duration": 0.3293444999999906
                },
                {
                    "name": "C5",
                    "midi": 72,
                    "time": 318.8054759999967,
                    "velocity": 0.3937007874015748,
                    "duration": 0.3293444999999906
                },
                {
                    "name": "F5",
                    "midi": 77,
                    "time": 319.1348204999967,
                    "velocity": 0.33858267716535434,
                    "duration": 0.3293444999999906
                },
                {
                    "name": "F4",
                    "midi": 65,
                    "time": 319.1348204999967,
                    "velocity": 0.28346456692913385,
                    "duration": 0.3293444999999906
                },
                {
                    "name": "A5",
                    "midi": 81,
                    "time": 319.4641649999967,
                    "velocity": 0.3700787401574803,
                    "duration": 0.3293444999999906
                },
                {
                    "name": "A4",
                    "midi": 69,
                    "time": 319.4641649999967,
                    "velocity": 0.30708661417322836,
                    "duration": 0.3293444999999906
                },
                {
                    "name": "C6",
                    "midi": 84,
                    "time": 319.7935094999967,
                    "velocity": 0.3700787401574803,
                    "duration": 0.3293444999999906
                },
                {
                    "name": "C5",
                    "midi": 72,
                    "time": 319.7935094999967,
                    "velocity": 0.30708661417322836,
                    "duration": 0.3293444999999906
                },
                {
                    "name": "C6",
                    "midi": 84,
                    "time": 320.12285399999666,
                    "velocity": 0.4330708661417323,
                    "duration": 0.6586889999999812
                },
                {
                    "name": "C5",
                    "midi": 72,
                    "time": 320.12285399999666,
                    "velocity": 0.36220472440944884,
                    "duration": 0.6586889999999812
                },
                {
                    "name": "A#4",
                    "midi": 70,
                    "time": 320.78154299999665,
                    "velocity": 0.33070866141732286,
                    "duration": 0.21956299999999374
                },
                {
                    "name": "A#5",
                    "midi": 82,
                    "time": 320.78154299999665,
                    "velocity": 0.3937007874015748,
                    "duration": 0.21956299999999374
                },
                {
                    "name": "A4",
                    "midi": 69,
                    "time": 321.00110599999664,
                    "velocity": 0.29133858267716534,
                    "duration": 0.21956299999999374
                },
                {
                    "name": "A5",
                    "midi": 81,
                    "time": 321.00110599999664,
                    "velocity": 0.3464566929133858,
                    "duration": 0.21956299999999374
                },
                {
                    "name": "G4",
                    "midi": 67,
                    "time": 321.22066899999663,
                    "velocity": 0.29133858267716534,
                    "duration": 0.21956299999999374
                },
                {
                    "name": "G5",
                    "midi": 79,
                    "time": 321.22066899999663,
                    "velocity": 0.3464566929133858,
                    "duration": 0.21956299999999374
                },
                {
                    "name": "G4",
                    "midi": 67,
                    "time": 321.4402319999966,
                    "velocity": 0.33070866141732286,
                    "duration": 0.21956299999999374
                },
                {
                    "name": "G5",
                    "midi": 79,
                    "time": 321.4402319999966,
                    "velocity": 0.3937007874015748,
                    "duration": 0.21956299999999374
                },
                {
                    "name": "A5",
                    "midi": 81,
                    "time": 321.6597949999966,
                    "velocity": 0.3464566929133858,
                    "duration": 0.19760669999999436
                },
                {
                    "name": "A4",
                    "midi": 69,
                    "time": 321.6597949999966,
                    "velocity": 0.29133858267716534,
                    "duration": 0.19760669999999436
                },
                {
                    "name": "F4",
                    "midi": 65,
                    "time": 321.8793579999966,
                    "velocity": 0.29133858267716534,
                    "duration": 0.19760669999999436
                },
                {
                    "name": "F5",
                    "midi": 77,
                    "time": 321.8793579999966,
                    "velocity": 0.3464566929133858,
                    "duration": 0.19760669999999436
                },
                {
                    "name": "F4",
                    "midi": 65,
                    "time": 322.0989209999966,
                    "velocity": 0.33070866141732286,
                    "duration": 0.21956299999999374
                },
                {
                    "name": "F5",
                    "midi": 77,
                    "time": 322.0989209999966,
                    "velocity": 0.3937007874015748,
                    "duration": 0.21956299999999374
                },
                {
                    "name": "G4",
                    "midi": 67,
                    "time": 322.3184839999966,
                    "velocity": 0.29133858267716534,
                    "duration": 0.19760669999999436
                },
                {
                    "name": "G5",
                    "midi": 79,
                    "time": 322.3184839999966,
                    "velocity": 0.3464566929133858,
                    "duration": 0.19760669999999436
                },
                {
                    "name": "E5",
                    "midi": 76,
                    "time": 322.5380469999966,
                    "velocity": 0.3464566929133858,
                    "duration": 0.19760669999999436
                },
                {
                    "name": "E4",
                    "midi": 64,
                    "time": 322.5380469999966,
                    "velocity": 0.29133858267716534,
                    "duration": 0.19760669999999436
                },
                {
                    "name": "F5",
                    "midi": 77,
                    "time": 322.7576099999966,
                    "velocity": 0.3858267716535433,
                    "duration": 0.6586889999999812
                },
                {
                    "name": "F4",
                    "midi": 65,
                    "time": 322.7576099999966,
                    "velocity": 0.3228346456692913,
                    "duration": 0.6586889999999812
                },
                {
                    "name": "D#5",
                    "midi": 75,
                    "time": 323.41629899999657,
                    "velocity": 0.4409448818897638,
                    "duration": 0.21956299999999374
                },
                {
                    "name": "D#4",
                    "midi": 63,
                    "time": 323.41629899999657,
                    "velocity": 0.3700787401574803,
                    "duration": 0.21956299999999374
                },
                {
                    "name": "C#5",
                    "midi": 73,
                    "time": 323.63586199999656,
                    "velocity": 0.4645669291338583,
                    "duration": 0.21956299999999374
                },
                {
                    "name": "C#4",
                    "midi": 61,
                    "time": 323.63586199999656,
                    "velocity": 0.3937007874015748,
                    "duration": 0.21956299999999374
                },
                {
                    "name": "C5",
                    "midi": 72,
                    "time": 323.85542499999656,
                    "velocity": 0.49606299212598426,
                    "duration": 0.21956299999999374
                },
                {
                    "name": "C4",
                    "midi": 60,
                    "time": 323.85542499999656,
                    "velocity": 0.41732283464566927,
                    "duration": 0.21956299999999374
                },
                {
                    "name": "C4",
                    "midi": 60,
                    "time": 324.07498799999655,
                    "velocity": 0.4409448818897638,
                    "duration": 0.6586889999999812
                },
                {
                    "name": "C5",
                    "midi": 72,
                    "time": 324.07498799999655,
                    "velocity": 0.5196850393700787,
                    "duration": 0.6586889999999812
                },
                {
                    "name": "A#4",
                    "midi": 70,
                    "time": 324.73367699999653,
                    "velocity": 0.48031496062992124,
                    "duration": 0.3293444999999906
                },
                {
                    "name": "A#3",
                    "midi": 58,
                    "time": 324.73367699999653,
                    "velocity": 0.4015748031496063,
                    "duration": 0.3293444999999906
                },
                {
                    "name": "A#3",
                    "midi": 58,
                    "time": 325.0630214999965,
                    "velocity": 0.4015748031496063,
                    "duration": 0.3293444999999906
                },
                {
                    "name": "A#4",
                    "midi": 70,
                    "time": 325.0630214999965,
                    "velocity": 0.48031496062992124,
                    "duration": 0.3293444999999906
                },
                {
                    "name": "C4",
                    "midi": 60,
                    "time": 325.3923659999965,
                    "velocity": 0.4645669291338583,
                    "duration": 0.6586889999999812
                },
                {
                    "name": "C5",
                    "midi": 72,
                    "time": 325.3923659999965,
                    "velocity": 0.5511811023622047,
                    "duration": 0.6586889999999812
                },
                {
                    "name": "A#3",
                    "midi": 58,
                    "time": 326.0510549999965,
                    "velocity": 0.41732283464566927,
                    "duration": 0.3293444999999906
                },
                {
                    "name": "A#4",
                    "midi": 70,
                    "time": 326.0510549999965,
                    "velocity": 0.49606299212598426,
                    "duration": 0.3293444999999906
                },
                {
                    "name": "A#4",
                    "midi": 70,
                    "time": 326.3803994999965,
                    "velocity": 0.5354330708661418,
                    "duration": 0.3293444999999906
                },
                {
                    "name": "A#3",
                    "midi": 58,
                    "time": 326.3803994999965,
                    "velocity": 0.44881889763779526,
                    "duration": 0.3293444999999906
                },
                {
                    "name": "B3",
                    "midi": 59,
                    "time": 326.7097439999965,
                    "velocity": 0.4566929133858268,
                    "duration": 0.21956299999999374
                },
                {
                    "name": "B4",
                    "midi": 71,
                    "time": 326.7097439999965,
                    "velocity": 0.5511811023622047,
                    "duration": 0.21956299999999374
                },
                {
                    "name": "A#3",
                    "midi": 58,
                    "time": 326.92930699999647,
                    "velocity": 0.41732283464566927,
                    "duration": 0.21956299999999374
                },
                {
                    "name": "A#4",
                    "midi": 70,
                    "time": 326.92930699999647,
                    "velocity": 0.4881889763779528,
                    "duration": 0.21956299999999374
                },
                {
                    "name": "D4",
                    "midi": 62,
                    "time": 327.14886999999646,
                    "velocity": 0.4251968503937008,
                    "duration": 0.21956299999999374
                },
                {
                    "name": "D5",
                    "midi": 74,
                    "time": 327.14886999999646,
                    "velocity": 0.5039370078740157,
                    "duration": 0.21956299999999374
                },
                {
                    "name": "F5",
                    "midi": 77,
                    "time": 327.36843299999646,
                    "velocity": 0.5511811023622047,
                    "duration": 0.21956299999999374
                },
                {
                    "name": "F4",
                    "midi": 65,
                    "time": 327.36843299999646,
                    "velocity": 0.4645669291338583,
                    "duration": 0.21956299999999374
                },
                {
                    "name": "G#4",
                    "midi": 68,
                    "time": 327.58799599999645,
                    "velocity": 0.4881889763779528,
                    "duration": 0.21956299999999374
                },
                {
                    "name": "G#5",
                    "midi": 80,
                    "time": 327.58799599999645,
                    "velocity": 0.5826771653543307,
                    "duration": 0.21956299999999374
                },
                {
                    "name": "F5",
                    "midi": 77,
                    "time": 327.80755899999644,
                    "velocity": 0.5275590551181102,
                    "duration": 0.21956299999999374
                },
                {
                    "name": "B5",
                    "midi": 83,
                    "time": 327.80755899999644,
                    "velocity": 0.6220472440944882,
                    "duration": 0.21956299999999374
                },
                {
                    "name": "B4",
                    "midi": 71,
                    "time": 327.80755899999644,
                    "velocity": 0.5275590551181102,
                    "duration": 0.21956299999999374
                },
                {
                    "name": "G#5",
                    "midi": 80,
                    "time": 327.80755899999644,
                    "velocity": 0.5275590551181102,
                    "duration": 0.21956299999999374
                },
                {
                    "name": "A#4",
                    "midi": 70,
                    "time": 328.02712199999644,
                    "velocity": 0.5590551181102362,
                    "duration": 0.9880334999999718
                },
                {
                    "name": "A#5",
                    "midi": 82,
                    "time": 328.02712199999644,
                    "velocity": 0.6614173228346457,
                    "duration": 0.9880334999999718
                },
                {
                    "name": "F5",
                    "midi": 77,
                    "time": 328.02712199999644,
                    "velocity": 0.5590551181102362,
                    "duration": 0.6586889999999812
                },
                {
                    "name": "G#5",
                    "midi": 80,
                    "time": 328.02712199999644,
                    "velocity": 0.5590551181102362,
                    "duration": 0.6586889999999812
                },
                {
                    "name": "D#5",
                    "midi": 75,
                    "time": 328.6858109999964,
                    "velocity": 0.4251968503937008,
                    "duration": 0.3293444999999906
                },
                {
                    "name": "F#5",
                    "midi": 78,
                    "time": 328.6858109999964,
                    "velocity": 0.5039370078740157,
                    "duration": 0.3293444999999906
                },
                {
                    "name": "D#5",
                    "midi": 75,
                    "time": 329.0151554999964,
                    "velocity": 0.4409448818897638,
                    "duration": 0.3293444999999906
                },
                {
                    "name": "D#4",
                    "midi": 63,
                    "time": 329.0151554999964,
                    "velocity": 0.3700787401574803,
                    "duration": 0.3293444999999906
                },
                {
                    "name": "C#4",
                    "midi": 61,
                    "time": 329.3444999999964,
                    "velocity": 0.4094488188976378,
                    "duration": 0.4940167500000143
                },
                {
                    "name": "C#5",
                    "midi": 73,
                    "time": 329.3444999999964,
                    "velocity": 0.4881889763779528,
                    "duration": 0.4940167500000143
                },
                {
                    "name": "C4",
                    "midi": 60,
                    "time": 329.8385167499964,
                    "velocity": 0.3700787401574803,
                    "duration": 0.16467225000002372
                },
                {
                    "name": "C5",
                    "midi": 72,
                    "time": 329.8385167499964,
                    "velocity": 0.4409448818897638,
                    "duration": 0.16467225000002372
                },
                {
                    "name": "C4",
                    "midi": 60,
                    "time": 330.00318899999644,
                    "velocity": 0.3937007874015748,
                    "duration": 0.21956299999999374
                },
                {
                    "name": "C5",
                    "midi": 72,
                    "time": 330.00318899999644,
                    "velocity": 0.47244094488188976,
                    "duration": 0.21956299999999374
                },
                {
                    "name": "C#4",
                    "midi": 61,
                    "time": 330.22275199999643,
                    "velocity": 0.3700787401574803,
                    "duration": 0.21956299999999374
                },
                {
                    "name": "C#5",
                    "midi": 73,
                    "time": 330.22275199999643,
                    "velocity": 0.4409448818897638,
                    "duration": 0.21956299999999374
                },
                {
                    "name": "D#5",
                    "midi": 75,
                    "time": 330.4423149999964,
                    "velocity": 0.4409448818897638,
                    "duration": 0.1372268750000103
                },
                {
                    "name": "D#4",
                    "midi": 63,
                    "time": 330.4423149999964,
                    "velocity": 0.3700787401574803,
                    "duration": 0.1372268750000103
                },
                {
                    "name": "D#5",
                    "midi": 75,
                    "time": 330.57954187499644,
                    "velocity": 0.36220472440944884,
                    "duration": 0.08233612499998344
                },
                {
                    "name": "F#4",
                    "midi": 66,
                    "time": 330.6618779999964,
                    "velocity": 0.4094488188976378,
                    "duration": 0.4940167500000143
                },
                {
                    "name": "F#5",
                    "midi": 78,
                    "time": 330.6618779999964,
                    "velocity": 0.4881889763779528,
                    "duration": 0.4940167500000143
                },
                {
                    "name": "F4",
                    "midi": 65,
                    "time": 331.15589474999643,
                    "velocity": 0.3700787401574803,
                    "duration": 0.16467225000002372
                },
                {
                    "name": "F5",
                    "midi": 77,
                    "time": 331.15589474999643,
                    "velocity": 0.4409448818897638,
                    "duration": 0.16467225000002372
                },
                {
                    "name": "F5",
                    "midi": 77,
                    "time": 331.32056699999646,
                    "velocity": 0.4409448818897638,
                    "duration": 0.21956299999999374
                },
                {
                    "name": "F4",
                    "midi": 65,
                    "time": 331.32056699999646,
                    "velocity": 0.3700787401574803,
                    "duration": 0.21956299999999374
                },
                {
                    "name": "A#4",
                    "midi": 70,
                    "time": 331.54012999999645,
                    "velocity": 0.3937007874015748,
                    "duration": 0.21956299999999374
                },
                {
                    "name": "A#5",
                    "midi": 82,
                    "time": 331.54012999999645,
                    "velocity": 0.47244094488188976,
                    "duration": 0.21956299999999374
                },
                {
                    "name": "C#5",
                    "midi": 73,
                    "time": 331.75969299999645,
                    "velocity": 0.4094488188976378,
                    "duration": 0.21956299999999374
                },
                {
                    "name": "C#6",
                    "midi": 85,
                    "time": 331.75969299999645,
                    "velocity": 0.4881889763779528,
                    "duration": 0.21956299999999374
                },
                {
                    "name": "C#5",
                    "midi": 73,
                    "time": 331.97925599999644,
                    "velocity": 0.4330708661417323,
                    "duration": 0.4940167500000143
                },
                {
                    "name": "C#6",
                    "midi": 85,
                    "time": 331.97925599999644,
                    "velocity": 0.5039370078740157,
                    "duration": 0.4940167500000143
                },
                {
                    "name": "C6",
                    "midi": 84,
                    "time": 332.47327274999645,
                    "velocity": 0.41732283464566927,
                    "duration": 0.16467225000002372
                },
                {
                    "name": "C5",
                    "midi": 72,
                    "time": 332.47327274999645,
                    "velocity": 0.3543307086614173,
                    "duration": 0.16467225000002372
                },
                {
                    "name": "C5",
                    "midi": 72,
                    "time": 332.6379449999965,
                    "velocity": 0.36220472440944884,
                    "duration": 0.21956299999999374
                },
                {
                    "name": "C6",
                    "midi": 84,
                    "time": 332.6379449999965,
                    "velocity": 0.4330708661417323,
                    "duration": 0.21956299999999374
                },
                {
                    "name": "D#5",
                    "midi": 75,
                    "time": 332.85750799999647,
                    "velocity": 0.2992125984251969,
                    "duration": 0.21956299999999374
                },
                {
                    "name": "D#6",
                    "midi": 87,
                    "time": 332.85750799999647,
                    "velocity": 0.3543307086614173,
                    "duration": 0.21956299999999374
                },
                {
                    "name": "A4",
                    "midi": 69,
                    "time": 333.07707099999647,
                    "velocity": 0.2992125984251969,
                    "duration": 0.21956299999999374
                },
                {
                    "name": "A5",
                    "midi": 81,
                    "time": 333.07707099999647,
                    "velocity": 0.3543307086614173,
                    "duration": 0.21956299999999374
                },
                {
                    "name": "A#4",
                    "midi": 70,
                    "time": 333.29663399999646,
                    "velocity": 0.36220472440944884,
                    "duration": 0.9880334999999718
                },
                {
                    "name": "A#5",
                    "midi": 82,
                    "time": 333.29663399999646,
                    "velocity": 0.4330708661417323,
                    "duration": 0.9880334999999718
                },
                {
                    "name": "C#5",
                    "midi": 73,
                    "time": 334.28466749999643,
                    "velocity": 0.5669291338582677,
                    "duration": 0.29641005000001996
                },
                {
                    "name": "C#4",
                    "midi": 61,
                    "time": 334.28466749999643,
                    "velocity": 0.5669291338582677,
                    "duration": 0.29641005000001996
                },
                {
                    "name": "C#5",
                    "midi": 73,
                    "time": 334.6140119999965,
                    "velocity": 0.6299212598425197,
                    "duration": 0.6586889999999812
                },
                {
                    "name": "C#4",
                    "midi": 61,
                    "time": 334.6140119999965,
                    "velocity": 0.6299212598425197,
                    "duration": 0.6586889999999812
                },
                {
                    "name": "C#5",
                    "midi": 73,
                    "time": 335.27270099999646,
                    "velocity": 0.6141732283464567,
                    "duration": 0.21956299999999374
                },
                {
                    "name": "C#4",
                    "midi": 61,
                    "time": 335.27270099999646,
                    "velocity": 0.6141732283464567,
                    "duration": 0.21956299999999374
                },
                {
                    "name": "D#4",
                    "midi": 63,
                    "time": 335.49226399999645,
                    "velocity": 0.5748031496062992,
                    "duration": 0.21956299999999374
                },
                {
                    "name": "D#5",
                    "midi": 75,
                    "time": 335.49226399999645,
                    "velocity": 0.5748031496062992,
                    "duration": 0.21956299999999374
                },
                {
                    "name": "C#4",
                    "midi": 61,
                    "time": 335.71182699999645,
                    "velocity": 0.5826771653543307,
                    "duration": 0.21956299999999374
                },
                {
                    "name": "C#5",
                    "midi": 73,
                    "time": 335.71182699999645,
                    "velocity": 0.5826771653543307,
                    "duration": 0.21956299999999374
                },
                {
                    "name": "C#4",
                    "midi": 61,
                    "time": 335.93138999999644,
                    "velocity": 0.6299212598425197,
                    "duration": 0.6586889999999812
                },
                {
                    "name": "C#5",
                    "midi": 73,
                    "time": 335.93138999999644,
                    "velocity": 0.6299212598425197,
                    "duration": 0.6586889999999812
                },
                {
                    "name": "A#4",
                    "midi": 70,
                    "time": 336.5900789999964,
                    "velocity": 0.5511811023622047,
                    "duration": 0.4940167500000143
                },
                {
                    "name": "A#3",
                    "midi": 58,
                    "time": 336.5900789999964,
                    "velocity": 0.5511811023622047,
                    "duration": 0.16467225000002372
                },
                {
                    "name": "A#5",
                    "midi": 82,
                    "time": 337.08409574999644,
                    "velocity": 0.6062992125984252,
                    "duration": 0.16467225000002372
                },
                {
                    "name": "A#4",
                    "midi": 70,
                    "time": 337.08409574999644,
                    "velocity": 0.6062992125984252,
                    "duration": 0.16467225000002372
                },
                {
                    "name": "A#5",
                    "midi": 82,
                    "time": 337.24876799999646,
                    "velocity": 0.6535433070866141,
                    "duration": 0.4940167500000143
                },
                {
                    "name": "A#4",
                    "midi": 70,
                    "time": 337.24876799999646,
                    "velocity": 0.6535433070866141,
                    "duration": 0.4940167500000143
                },
                {
                    "name": "B4",
                    "midi": 71,
                    "time": 337.7427847499965,
                    "velocity": 0.6771653543307087,
                    "duration": 0.38423525000001746
                },
                {
                    "name": "B5",
                    "midi": 83,
                    "time": 337.7427847499965,
                    "velocity": 0.6771653543307087,
                    "duration": 0.38423525000001746
                },
                {
                    "name": "C5",
                    "midi": 72,
                    "time": 338.1270199999965,
                    "velocity": 0.6535433070866141,
                    "duration": 0.21956299999999374
                },
                {
                    "name": "C6",
                    "midi": 84,
                    "time": 338.1270199999965,
                    "velocity": 0.6535433070866141,
                    "duration": 0.21956299999999374
                },
                {
                    "name": "C#6",
                    "midi": 85,
                    "time": 338.3465829999965,
                    "velocity": 0.6692913385826772,
                    "duration": 0.1372268750000103
                },
                {
                    "name": "C#5",
                    "midi": 73,
                    "time": 338.3465829999965,
                    "velocity": 0.6692913385826772,
                    "duration": 0.1372268750000103
                },
                {
                    "name": "C#6",
                    "midi": 85,
                    "time": 338.4838098749965,
                    "velocity": 0.6299212598425197,
                    "duration": 0.08233612499998344
                },
                {
                    "name": "F5",
                    "midi": 77,
                    "time": 338.5661459999965,
                    "velocity": 0.7086614173228346,
                    "duration": 0.4940167500000143
                },
                {
                    "name": "F6",
                    "midi": 89,
                    "time": 338.5661459999965,
                    "velocity": 0.7086614173228346,
                    "duration": 0.4940167500000143
                },
                {
                    "name": "C#5",
                    "midi": 73,
                    "time": 339.0601627499965,
                    "velocity": 0.6535433070866141,
                    "duration": 0.16467225000002372
                },
                {
                    "name": "C#6",
                    "midi": 85,
                    "time": 339.0601627499965,
                    "velocity": 0.6535433070866141,
                    "duration": 0.16467225000002372
                },
                {
                    "name": "C6",
                    "midi": 84,
                    "time": 339.2248349999965,
                    "velocity": 0.6141732283464567,
                    "duration": 0.3293444999999906
                },
                {
                    "name": "C5",
                    "midi": 72,
                    "time": 339.2248349999965,
                    "velocity": 0.6141732283464567,
                    "duration": 0.3293444999999906
                },
                {
                    "name": "C4",
                    "midi": 60,
                    "time": 339.8835239999965,
                    "velocity": 0.33070866141732286,
                    "duration": 0.21819073124999022
                },
                {
                    "name": "C5",
                    "midi": 72,
                    "time": 339.8835239999965,
                    "velocity": 0.3937007874015748,
                    "duration": 0.3293444999999906
                },
                {
                    "name": "F4",
                    "midi": 65,
                    "time": 340.2128684999965,
                    "velocity": 0.28346456692913385,
                    "duration": 0.3293444999999906
                },
                {
                    "name": "F5",
                    "midi": 77,
                    "time": 340.2128684999965,
                    "velocity": 0.33858267716535434,
                    "duration": 0.3293444999999906
                },
                {
                    "name": "A4",
                    "midi": 69,
                    "time": 340.5422129999965,
                    "velocity": 0.30708661417322836,
                    "duration": 0.3293444999999906
                },
                {
                    "name": "A5",
                    "midi": 81,
                    "time": 340.5422129999965,
                    "velocity": 0.3700787401574803,
                    "duration": 0.3293444999999906
                },
                {
                    "name": "C5",
                    "midi": 72,
                    "time": 340.87155749999647,
                    "velocity": 0.30708661417322836,
                    "duration": 0.3293444999999906
                },
                {
                    "name": "C6",
                    "midi": 84,
                    "time": 340.87155749999647,
                    "velocity": 0.3700787401574803,
                    "duration": 0.3293444999999906
                },
                {
                    "name": "C6",
                    "midi": 84,
                    "time": 341.20090199999646,
                    "velocity": 0.4330708661417323,
                    "duration": 0.6586889999999812
                },
                {
                    "name": "C5",
                    "midi": 72,
                    "time": 341.20090199999646,
                    "velocity": 0.36220472440944884,
                    "duration": 0.6586889999999812
                },
                {
                    "name": "A#4",
                    "midi": 70,
                    "time": 341.85959099999644,
                    "velocity": 0.33070866141732286,
                    "duration": 0.21956299999999374
                },
                {
                    "name": "A#5",
                    "midi": 82,
                    "time": 341.85959099999644,
                    "velocity": 0.3937007874015748,
                    "duration": 0.21956299999999374
                },
                {
                    "name": "A4",
                    "midi": 69,
                    "time": 342.07915399999644,
                    "velocity": 0.29133858267716534,
                    "duration": 0.21956299999999374
                },
                {
                    "name": "A5",
                    "midi": 81,
                    "time": 342.07915399999644,
                    "velocity": 0.3464566929133858,
                    "duration": 0.21956299999999374
                },
                {
                    "name": "G4",
                    "midi": 67,
                    "time": 342.29871699999643,
                    "velocity": 0.29133858267716534,
                    "duration": 0.21956299999999374
                },
                {
                    "name": "G5",
                    "midi": 79,
                    "time": 342.29871699999643,
                    "velocity": 0.3464566929133858,
                    "duration": 0.21956299999999374
                },
                {
                    "name": "G5",
                    "midi": 79,
                    "time": 342.5182799999964,
                    "velocity": 0.3937007874015748,
                    "duration": 0.21956299999999374
                },
                {
                    "name": "G4",
                    "midi": 67,
                    "time": 342.5182799999964,
                    "velocity": 0.33070866141732286,
                    "duration": 0.21956299999999374
                },
                {
                    "name": "A4",
                    "midi": 69,
                    "time": 342.7378429999964,
                    "velocity": 0.29133858267716534,
                    "duration": 0.19760669999999436
                },
                {
                    "name": "A5",
                    "midi": 81,
                    "time": 342.7378429999964,
                    "velocity": 0.3464566929133858,
                    "duration": 0.19760669999999436
                },
                {
                    "name": "F4",
                    "midi": 65,
                    "time": 342.9574059999964,
                    "velocity": 0.29133858267716534,
                    "duration": 0.19760669999999436
                },
                {
                    "name": "F5",
                    "midi": 77,
                    "time": 342.9574059999964,
                    "velocity": 0.3464566929133858,
                    "duration": 0.19760669999999436
                },
                {
                    "name": "F4",
                    "midi": 65,
                    "time": 343.1769689999964,
                    "velocity": 0.33070866141732286,
                    "duration": 0.21956299999999374
                },
                {
                    "name": "F5",
                    "midi": 77,
                    "time": 343.1769689999964,
                    "velocity": 0.3937007874015748,
                    "duration": 0.21956299999999374
                },
                {
                    "name": "G4",
                    "midi": 67,
                    "time": 343.3965319999964,
                    "velocity": 0.29133858267716534,
                    "duration": 0.19760669999999436
                },
                {
                    "name": "G5",
                    "midi": 79,
                    "time": 343.3965319999964,
                    "velocity": 0.3464566929133858,
                    "duration": 0.19760669999999436
                },
                {
                    "name": "E4",
                    "midi": 64,
                    "time": 343.6160949999964,
                    "velocity": 0.29133858267716534,
                    "duration": 0.19760669999999436
                },
                {
                    "name": "E5",
                    "midi": 76,
                    "time": 343.6160949999964,
                    "velocity": 0.3464566929133858,
                    "duration": 0.19760669999999436
                },
                {
                    "name": "F5",
                    "midi": 77,
                    "time": 343.8356579999964,
                    "velocity": 0.3858267716535433,
                    "duration": 0.6586889999999812
                },
                {
                    "name": "F4",
                    "midi": 65,
                    "time": 343.8356579999964,
                    "velocity": 0.3228346456692913,
                    "duration": 0.6586889999999812
                },
                {
                    "name": "D#5",
                    "midi": 75,
                    "time": 344.49434699999637,
                    "velocity": 0.4409448818897638,
                    "duration": 0.21956299999999374
                },
                {
                    "name": "D#4",
                    "midi": 63,
                    "time": 344.49434699999637,
                    "velocity": 0.3700787401574803,
                    "duration": 0.21956299999999374
                },
                {
                    "name": "C#5",
                    "midi": 73,
                    "time": 344.71390999999636,
                    "velocity": 0.4645669291338583,
                    "duration": 0.21956299999999374
                },
                {
                    "name": "C#4",
                    "midi": 61,
                    "time": 344.71390999999636,
                    "velocity": 0.3937007874015748,
                    "duration": 0.21956299999999374
                },
                {
                    "name": "C5",
                    "midi": 72,
                    "time": 344.93347299999635,
                    "velocity": 0.49606299212598426,
                    "duration": 0.21956299999999374
                },
                {
                    "name": "C4",
                    "midi": 60,
                    "time": 344.93347299999635,
                    "velocity": 0.41732283464566927,
                    "duration": 0.21956299999999374
                },
                {
                    "name": "C5",
                    "midi": 72,
                    "time": 345.15303599999635,
                    "velocity": 0.5196850393700787,
                    "duration": 0.6586889999999812
                },
                {
                    "name": "C4",
                    "midi": 60,
                    "time": 345.15303599999635,
                    "velocity": 0.4409448818897638,
                    "duration": 0.6586889999999812
                },
                {
                    "name": "A#3",
                    "midi": 58,
                    "time": 345.81172499999633,
                    "velocity": 0.4015748031496063,
                    "duration": 0.29641005000001996
                },
                {
                    "name": "A#4",
                    "midi": 70,
                    "time": 345.81172499999633,
                    "velocity": 0.48031496062992124,
                    "duration": 0.29641005000001996
                },
                {
                    "name": "A#4",
                    "midi": 70,
                    "time": 346.1410694999964,
                    "velocity": 0.48031496062992124,
                    "duration": 0.29641005000001996
                },
                {
                    "name": "A#3",
                    "midi": 58,
                    "time": 346.1410694999964,
                    "velocity": 0.4015748031496063,
                    "duration": 0.29641005000001996
                },
                {
                    "name": "C4",
                    "midi": 60,
                    "time": 346.4704139999964,
                    "velocity": 0.4645669291338583,
                    "duration": 0.6586889999999812
                },
                {
                    "name": "C5",
                    "midi": 72,
                    "time": 346.4704139999964,
                    "velocity": 0.5511811023622047,
                    "duration": 0.6586889999999812
                },
                {
                    "name": "A#4",
                    "midi": 70,
                    "time": 347.1291029999964,
                    "velocity": 0.49606299212598426,
                    "duration": 0.29641005000001996
                },
                {
                    "name": "A#3",
                    "midi": 58,
                    "time": 347.1291029999964,
                    "velocity": 0.41732283464566927,
                    "duration": 0.29641005000001996
                },
                {
                    "name": "A#4",
                    "midi": 70,
                    "time": 347.45844749999645,
                    "velocity": 0.5354330708661418,
                    "duration": 0.29641005000001996
                },
                {
                    "name": "A#3",
                    "midi": 58,
                    "time": 347.45844749999645,
                    "velocity": 0.44881889763779526,
                    "duration": 0.29641005000001996
                },
                {
                    "name": "B3",
                    "midi": 59,
                    "time": 347.7877919999965,
                    "velocity": 0.4566929133858268,
                    "duration": 0.21956299999999374
                },
                {
                    "name": "B4",
                    "midi": 71,
                    "time": 347.7877919999965,
                    "velocity": 0.5511811023622047,
                    "duration": 0.21956299999999374
                },
                {
                    "name": "A#3",
                    "midi": 58,
                    "time": 348.0073549999965,
                    "velocity": 0.41732283464566927,
                    "duration": 0.21956299999999374
                },
                {
                    "name": "A#4",
                    "midi": 70,
                    "time": 348.0073549999965,
                    "velocity": 0.4881889763779528,
                    "duration": 0.21956299999999374
                },
                {
                    "name": "D4",
                    "midi": 62,
                    "time": 348.2269179999965,
                    "velocity": 0.4251968503937008,
                    "duration": 0.21956299999999374
                },
                {
                    "name": "D5",
                    "midi": 74,
                    "time": 348.2269179999965,
                    "velocity": 0.5039370078740157,
                    "duration": 0.21956299999999374
                },
                {
                    "name": "F4",
                    "midi": 65,
                    "time": 348.4464809999965,
                    "velocity": 0.4645669291338583,
                    "duration": 0.21956299999999374
                },
                {
                    "name": "F5",
                    "midi": 77,
                    "time": 348.4464809999965,
                    "velocity": 0.5511811023622047,
                    "duration": 0.21956299999999374
                },
                {
                    "name": "G#5",
                    "midi": 80,
                    "time": 348.6660439999965,
                    "velocity": 0.5826771653543307,
                    "duration": 0.21956299999999374
                },
                {
                    "name": "G#4",
                    "midi": 68,
                    "time": 348.6660439999965,
                    "velocity": 0.4881889763779528,
                    "duration": 0.21956299999999374
                },
                {
                    "name": "F5",
                    "midi": 77,
                    "time": 348.88560699999647,
                    "velocity": 0.5275590551181102,
                    "duration": 0.21956299999999374
                },
                {
                    "name": "B4",
                    "midi": 71,
                    "time": 348.88560699999647,
                    "velocity": 0.5275590551181102,
                    "duration": 0.21956299999999374
                },
                {
                    "name": "G#5",
                    "midi": 80,
                    "time": 348.88560699999647,
                    "velocity": 0.5275590551181102,
                    "duration": 0.21956299999999374
                },
                {
                    "name": "B5",
                    "midi": 83,
                    "time": 348.88560699999647,
                    "velocity": 0.6220472440944882,
                    "duration": 0.21956299999999374
                },
                {
                    "name": "G#5",
                    "midi": 80,
                    "time": 349.10516999999646,
                    "velocity": 0.5590551181102362,
                    "duration": 0.6586889999999812
                },
                {
                    "name": "A#5",
                    "midi": 82,
                    "time": 349.10516999999646,
                    "velocity": 0.6614173228346457,
                    "duration": 0.9880334999999718
                },
                {
                    "name": "F5",
                    "midi": 77,
                    "time": 349.10516999999646,
                    "velocity": 0.5590551181102362,
                    "duration": 0.6586889999999812
                },
                {
                    "name": "A#4",
                    "midi": 70,
                    "time": 349.10516999999646,
                    "velocity": 0.5590551181102362,
                    "duration": 0.9880334999999718
                },
                {
                    "name": "F#5",
                    "midi": 78,
                    "time": 349.76385899999644,
                    "velocity": 0.5039370078740157,
                    "duration": 0.3293444999999906
                },
                {
                    "name": "D#5",
                    "midi": 75,
                    "time": 349.76385899999644,
                    "velocity": 0.4409448818897638,
                    "duration": 0.3293444999999906
                },
                {
                    "name": "D#4",
                    "midi": 63,
                    "time": 350.09320349999643,
                    "velocity": 0.3700787401574803,
                    "duration": 0.3293444999999906
                },
                {
                    "name": "D#5",
                    "midi": 75,
                    "time": 350.09320349999643,
                    "velocity": 0.4409448818897638,
                    "duration": 0.3293444999999906
                },
                {
                    "name": "C#4",
                    "midi": 61,
                    "time": 350.4225479999964,
                    "velocity": 0.4094488188976378,
                    "duration": 0.4940167500000143
                },
                {
                    "name": "C#5",
                    "midi": 73,
                    "time": 350.4225479999964,
                    "velocity": 0.4881889763779528,
                    "duration": 0.4940167500000143
                },
                {
                    "name": "C5",
                    "midi": 72,
                    "time": 350.91656474999644,
                    "velocity": 0.4409448818897638,
                    "duration": 0.14820502499998156
                },
                {
                    "name": "C4",
                    "midi": 60,
                    "time": 350.91656474999644,
                    "velocity": 0.3700787401574803,
                    "duration": 0.14820502499998156
                },
                {
                    "name": "C4",
                    "midi": 60,
                    "time": 351.0812369999964,
                    "velocity": 0.3937007874015748,
                    "duration": 0.21956299999999374
                },
                {
                    "name": "C5",
                    "midi": 72,
                    "time": 351.0812369999964,
                    "velocity": 0.47244094488188976,
                    "duration": 0.21956299999999374
                },
                {
                    "name": "C#4",
                    "midi": 61,
                    "time": 351.3007999999964,
                    "velocity": 0.3700787401574803,
                    "duration": 0.21956299999999374
                },
                {
                    "name": "C#5",
                    "midi": 73,
                    "time": 351.3007999999964,
                    "velocity": 0.4409448818897638,
                    "duration": 0.21956299999999374
                },
                {
                    "name": "D#5",
                    "midi": 75,
                    "time": 351.5203629999964,
                    "velocity": 0.4409448818897638,
                    "duration": 0.1372268750000103
                },
                {
                    "name": "D#4",
                    "midi": 63,
                    "time": 351.5203629999964,
                    "velocity": 0.3700787401574803,
                    "duration": 0.1372268750000103
                },
                {
                    "name": "D#5",
                    "midi": 75,
                    "time": 351.6575898749964,
                    "velocity": 0.36220472440944884,
                    "duration": 0.08233612499998344
                },
                {
                    "name": "F#5",
                    "midi": 78,
                    "time": 351.7399259999964,
                    "velocity": 0.4881889763779528,
                    "duration": 0.4940167500000143
                },
                {
                    "name": "F#4",
                    "midi": 66,
                    "time": 351.7399259999964,
                    "velocity": 0.4094488188976378,
                    "duration": 0.4940167500000143
                },
                {
                    "name": "F4",
                    "midi": 65,
                    "time": 352.2339427499964,
                    "velocity": 0.3700787401574803,
                    "duration": 0.14820502499998156
                },
                {
                    "name": "F5",
                    "midi": 77,
                    "time": 352.2339427499964,
                    "velocity": 0.4409448818897638,
                    "duration": 0.14820502499998156
                },
                {
                    "name": "F4",
                    "midi": 65,
                    "time": 352.39861499999637,
                    "velocity": 0.3700787401574803,
                    "duration": 0.21956299999999374
                },
                {
                    "name": "F5",
                    "midi": 77,
                    "time": 352.39861499999637,
                    "velocity": 0.4409448818897638,
                    "duration": 0.21956299999999374
                },
                {
                    "name": "A#5",
                    "midi": 82,
                    "time": 352.61817799999636,
                    "velocity": 0.47244094488188976,
                    "duration": 0.21956299999999374
                },
                {
                    "name": "A#4",
                    "midi": 70,
                    "time": 352.61817799999636,
                    "velocity": 0.3937007874015748,
                    "duration": 0.21956299999999374
                },
                {
                    "name": "C#6",
                    "midi": 85,
                    "time": 352.83774099999636,
                    "velocity": 0.4881889763779528,
                    "duration": 0.21956299999999374
                },
                {
                    "name": "C#5",
                    "midi": 73,
                    "time": 352.83774099999636,
                    "velocity": 0.4094488188976378,
                    "duration": 0.21956299999999374
                },
                {
                    "name": "C#6",
                    "midi": 85,
                    "time": 353.05730399999635,
                    "velocity": 0.5039370078740157,
                    "duration": 0.4940167500000143
                },
                {
                    "name": "C#5",
                    "midi": 73,
                    "time": 353.05730399999635,
                    "velocity": 0.4330708661417323,
                    "duration": 0.4940167500000143
                },
                {
                    "name": "C6",
                    "midi": 84,
                    "time": 353.55132074999636,
                    "velocity": 0.41732283464566927,
                    "duration": 0.16467225000002372
                },
                {
                    "name": "C5",
                    "midi": 72,
                    "time": 353.55132074999636,
                    "velocity": 0.3543307086614173,
                    "duration": 0.16467225000002372
                },
                {
                    "name": "C6",
                    "midi": 84,
                    "time": 353.7159929999964,
                    "velocity": 0.4330708661417323,
                    "duration": 0.21956299999999374
                },
                {
                    "name": "C5",
                    "midi": 72,
                    "time": 353.7159929999964,
                    "velocity": 0.36220472440944884,
                    "duration": 0.21956299999999374
                },
                {
                    "name": "D#5",
                    "midi": 75,
                    "time": 353.9355559999964,
                    "velocity": 0.2992125984251969,
                    "duration": 0.21956299999999374
                },
                {
                    "name": "D#6",
                    "midi": 87,
                    "time": 353.9355559999964,
                    "velocity": 0.3543307086614173,
                    "duration": 0.21956299999999374
                },
                {
                    "name": "A5",
                    "midi": 81,
                    "time": 354.1551189999964,
                    "velocity": 0.3543307086614173,
                    "duration": 0.21956299999999374
                },
                {
                    "name": "A4",
                    "midi": 69,
                    "time": 354.1551189999964,
                    "velocity": 0.2992125984251969,
                    "duration": 0.21956299999999374
                },
                {
                    "name": "A#5",
                    "midi": 82,
                    "time": 354.37468199999637,
                    "velocity": 0.4330708661417323,
                    "duration": 0.6586889999999812
                },
                {
                    "name": "A#4",
                    "midi": 70,
                    "time": 354.37468199999637,
                    "velocity": 0.36220472440944884,
                    "duration": 0.6586889999999812
                },
                {
                    "name": "C#5",
                    "midi": 73,
                    "time": 355.36271549999634,
                    "velocity": 0.4015748031496063,
                    "duration": 0.29641005000001996
                },
                {
                    "name": "C#5",
                    "midi": 73,
                    "time": 355.6920599999964,
                    "velocity": 0.4645669291338583,
                    "duration": 0.4940167500000143
                },
                {
                    "name": "C5",
                    "midi": 72,
                    "time": 356.1860767499964,
                    "velocity": 0.3937007874015748,
                    "duration": 0.14820502499998156
                },
                {
                    "name": "C5",
                    "midi": 72,
                    "time": 356.35074899999637,
                    "velocity": 0.4409448818897638,
                    "duration": 0.21956299999999374
                },
                {
                    "name": "D#5",
                    "midi": 75,
                    "time": 356.57031199999636,
                    "velocity": 0.3543307086614173,
                    "duration": 0.21956299999999374
                },
                {
                    "name": "F#4",
                    "midi": 66,
                    "time": 356.57031199999636,
                    "velocity": 0.2992125984251969,
                    "duration": 0.21956299999999374
                },
                {
                    "name": "F4",
                    "midi": 65,
                    "time": 356.78987499999636,
                    "velocity": 0.2992125984251969,
                    "duration": 0.19760669999999436
                },
                {
                    "name": "A4",
                    "midi": 69,
                    "time": 356.78987499999636,
                    "velocity": 0.3543307086614173,
                    "duration": 0.19760669999999436
                },
                {
                    "name": "A#4",
                    "midi": 70,
                    "time": 357.00943799999635,
                    "velocity": 0.4330708661417323,
                    "duration": 0.8782519999999749
                },
                {
                    "name": "F4",
                    "midi": 65,
                    "time": 357.00943799999635,
                    "velocity": 0.36220472440944884,
                    "duration": 0.6586889999999812
                },
                {
                    "name": "C#5",
                    "midi": 73,
                    "time": 357.8876899999963,
                    "velocity": 0.3228346456692913,
                    "duration": 0.21956299999999374
                },
                {
                    "name": "F5",
                    "midi": 77,
                    "time": 358.1072529999963,
                    "velocity": 0.3228346456692913,
                    "duration": 0.21956299999999374
                },
                {
                    "name": "C#5",
                    "midi": 73,
                    "time": 358.3268159999963,
                    "velocity": 0.33070866141732286,
                    "duration": 0.4940167500000143
                },
                {
                    "name": "F5",
                    "midi": 77,
                    "time": 358.3268159999963,
                    "velocity": 0.3937007874015748,
                    "duration": 0.4940167500000143
                },
                {
                    "name": "C5",
                    "midi": 72,
                    "time": 358.8208327499963,
                    "velocity": 0.2677165354330709,
                    "duration": 0.14820502499998156
                },
                {
                    "name": "D#5",
                    "midi": 75,
                    "time": 358.8208327499963,
                    "velocity": 0.3228346456692913,
                    "duration": 0.14820502499998156
                },
                {
                    "name": "D#5",
                    "midi": 75,
                    "time": 358.9855049999963,
                    "velocity": 0.4094488188976378,
                    "duration": 0.19760669999999436
                },
                {
                    "name": "C5",
                    "midi": 72,
                    "time": 358.9855049999963,
                    "velocity": 0.3464566929133858,
                    "duration": 0.19760669999999436
                },
                {
                    "name": "F#5",
                    "midi": 78,
                    "time": 359.2050679999963,
                    "velocity": 0.28346456692913385,
                    "duration": 0.19760669999999436
                },
                {
                    "name": "D#5",
                    "midi": 75,
                    "time": 359.2050679999963,
                    "velocity": 0.23622047244094488,
                    "duration": 0.19760669999999436
                },
                {
                    "name": "A4",
                    "midi": 69,
                    "time": 359.4246309999963,
                    "velocity": 0.23622047244094488,
                    "duration": 0.19760669999999436
                },
                {
                    "name": "C5",
                    "midi": 72,
                    "time": 359.4246309999963,
                    "velocity": 0.23622047244094488,
                    "duration": 0.19760669999999436
                },
                {
                    "name": "F5",
                    "midi": 77,
                    "time": 359.4246309999963,
                    "velocity": 0.23622047244094488,
                    "duration": 0.19760669999999436
                },
                {
                    "name": "A5",
                    "midi": 81,
                    "time": 359.4246309999963,
                    "velocity": 0.28346456692913385,
                    "duration": 0.19760669999999436
                },
                {
                    "name": "A#4",
                    "midi": 70,
                    "time": 359.6441939999963,
                    "velocity": 0.3228346456692913,
                    "duration": 0.9880334999999718
                },
                {
                    "name": "F5",
                    "midi": 77,
                    "time": 359.6441939999963,
                    "velocity": 0.3228346456692913,
                    "duration": 0.9880334999999718
                },
                {
                    "name": "A#5",
                    "midi": 82,
                    "time": 359.6441939999963,
                    "velocity": 0.3858267716535433,
                    "duration": 0.9880334999999718
                },
                {
                    "name": "C#5",
                    "midi": 73,
                    "time": 359.6441939999963,
                    "velocity": 0.3228346456692913,
                    "duration": 0.9880334999999718
                },
                {
                    "name": "C#5",
                    "midi": 73,
                    "time": 360.63222749999625,
                    "velocity": 0.2677165354330709,
                    "duration": 0.3293444999999906
                },
                {
                    "name": "C#4",
                    "midi": 61,
                    "time": 360.96157199999624,
                    "velocity": 0.2677165354330709,
                    "duration": 0.16467225000002372
                },
                {
                    "name": "C#5",
                    "midi": 73,
                    "time": 361.12624424999626,
                    "velocity": 0.1968503937007874,
                    "duration": 0.16467225000002372
                },
                {
                    "name": "F#4",
                    "midi": 66,
                    "time": 361.2909164999963,
                    "velocity": 0.16535433070866143,
                    "duration": 0.16467225000002372
                },
                {
                    "name": "A#4",
                    "midi": 70,
                    "time": 361.2909164999963,
                    "velocity": 0.1968503937007874,
                    "duration": 0.16467225000002372
                },
                {
                    "name": "C#5",
                    "midi": 73,
                    "time": 361.4555887499963,
                    "velocity": 0.1968503937007874,
                    "duration": 0.16467225000002372
                },
                {
                    "name": "C#4",
                    "midi": 61,
                    "time": 361.62026099999633,
                    "velocity": 0.25196850393700787,
                    "duration": 0.16467225000002372
                },
                {
                    "name": "C#5",
                    "midi": 73,
                    "time": 361.78493324999636,
                    "velocity": 0.1889763779527559,
                    "duration": 0.16467225000002372
                },
                {
                    "name": "A#4",
                    "midi": 70,
                    "time": 361.9496054999964,
                    "velocity": 0.1889763779527559,
                    "duration": 0.16467225000002372
                },
                {
                    "name": "F#4",
                    "midi": 66,
                    "time": 361.9496054999964,
                    "velocity": 0.15748031496062992,
                    "duration": 0.16467225000002372
                },
                {
                    "name": "C#5",
                    "midi": 73,
                    "time": 362.1142777499964,
                    "velocity": 0.1889763779527559,
                    "duration": 0.16467225000002372
                },
                {
                    "name": "C#4",
                    "midi": 61,
                    "time": 362.2789499999964,
                    "velocity": 0.25196850393700787,
                    "duration": 0.16467225000002372
                },
                {
                    "name": "C#5",
                    "midi": 73,
                    "time": 362.44362224999645,
                    "velocity": 0.1968503937007874,
                    "duration": 0.16467225000002372
                },
                {
                    "name": "A#4",
                    "midi": 70,
                    "time": 362.6082944999965,
                    "velocity": 0.1889763779527559,
                    "duration": 0.16467225000002372
                },
                {
                    "name": "F#4",
                    "midi": 66,
                    "time": 362.6082944999965,
                    "velocity": 0.15748031496062992,
                    "duration": 0.16467225000002372
                },
                {
                    "name": "C#5",
                    "midi": 73,
                    "time": 362.7729667499965,
                    "velocity": 0.1889763779527559,
                    "duration": 0.16467225000002372
                },
                {
                    "name": "C#4",
                    "midi": 61,
                    "time": 362.9376389999965,
                    "velocity": 0.25984251968503935,
                    "duration": 0.16467225000002372
                },
                {
                    "name": "C#5",
                    "midi": 73,
                    "time": 363.10231124999655,
                    "velocity": 0.2125984251968504,
                    "duration": 0.16467225000002372
                },
                {
                    "name": "F#4",
                    "midi": 66,
                    "time": 363.26698349999657,
                    "velocity": 0.16535433070866143,
                    "duration": 0.16467225000002372
                },
                {
                    "name": "A#4",
                    "midi": 70,
                    "time": 363.26698349999657,
                    "velocity": 0.1968503937007874,
                    "duration": 0.16467225000002372
                },
                {
                    "name": "C#5",
                    "midi": 73,
                    "time": 363.4316557499966,
                    "velocity": 0.1968503937007874,
                    "duration": 0.16467225000002372
                },
                {
                    "name": "C#4",
                    "midi": 61,
                    "time": 363.5963279999966,
                    "velocity": 0.28346456692913385,
                    "duration": 0.16467225000002372
                },
                {
                    "name": "C#5",
                    "midi": 73,
                    "time": 363.76100024999664,
                    "velocity": 0.2125984251968504,
                    "duration": 0.16467225000002372
                },
                {
                    "name": "G#4",
                    "midi": 68,
                    "time": 363.92567249999667,
                    "velocity": 0.1732283464566929,
                    "duration": 0.16467225000002372
                },
                {
                    "name": "B4",
                    "midi": 71,
                    "time": 363.92567249999667,
                    "velocity": 0.2125984251968504,
                    "duration": 0.16467225000002372
                },
                {
                    "name": "C#5",
                    "midi": 73,
                    "time": 364.0903447499967,
                    "velocity": 0.2125984251968504,
                    "duration": 0.16467225000002372
                },
                {
                    "name": "C#4",
                    "midi": 61,
                    "time": 364.2550169999967,
                    "velocity": 0.2677165354330709,
                    "duration": 0.16467225000002372
                },
                {
                    "name": "C#5",
                    "midi": 73,
                    "time": 364.41968924999674,
                    "velocity": 0.2047244094488189,
                    "duration": 0.16467225000002372
                },
                {
                    "name": "G#4",
                    "midi": 68,
                    "time": 364.58436149999676,
                    "velocity": 0.1732283464566929,
                    "duration": 0.16467225000002372
                },
                {
                    "name": "B4",
                    "midi": 71,
                    "time": 364.58436149999676,
                    "velocity": 0.2047244094488189,
                    "duration": 0.16467225000002372
                },
                {
                    "name": "C#5",
                    "midi": 73,
                    "time": 364.7490337499968,
                    "velocity": 0.2125984251968504,
                    "duration": 0.16467225000002372
                },
                {
                    "name": "C#4",
                    "midi": 61,
                    "time": 364.9137059999968,
                    "velocity": 0.28346456692913385,
                    "duration": 0.16467225000002372
                },
                {
                    "name": "C#5",
                    "midi": 73,
                    "time": 365.07837824999683,
                    "velocity": 0.2283464566929134,
                    "duration": 0.16467225000002372
                },
                {
                    "name": "B4",
                    "midi": 71,
                    "time": 365.24305049999685,
                    "velocity": 0.2125984251968504,
                    "duration": 0.16467225000002372
                },
                {
                    "name": "G#4",
                    "midi": 68,
                    "time": 365.24305049999685,
                    "velocity": 0.18110236220472442,
                    "duration": 0.16467225000002372
                },
                {
                    "name": "C#5",
                    "midi": 73,
                    "time": 365.4077227499969,
                    "velocity": 0.2125984251968504,
                    "duration": 0.16467225000002372
                },
                {
                    "name": "C#4",
                    "midi": 61,
                    "time": 365.5723949999969,
                    "velocity": 0.29133858267716534,
                    "duration": 0.16467225000002372
                },
                {
                    "name": "C#5",
                    "midi": 73,
                    "time": 365.7370672499969,
                    "velocity": 0.23622047244094488,
                    "duration": 0.16467225000002372
                },
                {
                    "name": "B4",
                    "midi": 71,
                    "time": 365.90173949999695,
                    "velocity": 0.2283464566929134,
                    "duration": 0.16467225000002372
                },
                {
                    "name": "G#4",
                    "midi": 68,
                    "time": 365.90173949999695,
                    "velocity": 0.1889763779527559,
                    "duration": 0.16467225000002372
                },
                {
                    "name": "C#5",
                    "midi": 73,
                    "time": 366.066411749997,
                    "velocity": 0.2283464566929134,
                    "duration": 0.16467225000002372
                },
                {
                    "name": "C#4",
                    "midi": 61,
                    "time": 366.231083999997,
                    "velocity": 0.31496062992125984,
                    "duration": 0.16467225000002372
                },
                {
                    "name": "C#5",
                    "midi": 73,
                    "time": 366.395756249997,
                    "velocity": 0.23622047244094488,
                    "duration": 0.16467225000002372
                },
                {
                    "name": "F#4",
                    "midi": 66,
                    "time": 366.56042849999704,
                    "velocity": 0.1968503937007874,
                    "duration": 0.16467225000002372
                },
                {
                    "name": "A#4",
                    "midi": 70,
                    "time": 366.56042849999704,
                    "velocity": 0.23622047244094488,
                    "duration": 0.16467225000002372
                },
                {
                    "name": "C#5",
                    "midi": 73,
                    "time": 366.72510074999707,
                    "velocity": 0.23622047244094488,
                    "duration": 0.16467225000002372
                },
                {
                    "name": "C#4",
                    "midi": 61,
                    "time": 366.8897729999971,
                    "velocity": 0.2992125984251969,
                    "duration": 0.16467225000002372
                },
                {
                    "name": "C#5",
                    "midi": 73,
                    "time": 367.0544452499971,
                    "velocity": 0.2283464566929134,
                    "duration": 0.16467225000002372
                },
                {
                    "name": "F#4",
                    "midi": 66,
                    "time": 367.21911749999714,
                    "velocity": 0.1889763779527559,
                    "duration": 0.16467225000002372
                },
                {
                    "name": "A#4",
                    "midi": 70,
                    "time": 367.21911749999714,
                    "velocity": 0.2283464566929134,
                    "duration": 0.16467225000002372
                },
                {
                    "name": "C#5",
                    "midi": 73,
                    "time": 367.38378974999716,
                    "velocity": 0.2283464566929134,
                    "duration": 0.16467225000002372
                },
                {
                    "name": "D#4",
                    "midi": 63,
                    "time": 367.5484619999972,
                    "velocity": 0.2992125984251969,
                    "duration": 0.16467225000002372
                },
                {
                    "name": "D#5",
                    "midi": 75,
                    "time": 367.7131342499972,
                    "velocity": 0.23622047244094488,
                    "duration": 0.16467225000002372
                },
                {
                    "name": "G#4",
                    "midi": 68,
                    "time": 367.87780649999723,
                    "velocity": 0.1889763779527559,
                    "duration": 0.16467225000002372
                },
                {
                    "name": "B4",
                    "midi": 71,
                    "time": 367.87780649999723,
                    "velocity": 0.2283464566929134,
                    "duration": 0.16467225000002372
                },
                {
                    "name": "D#5",
                    "midi": 75,
                    "time": 368.04247874999726,
                    "velocity": 0.2283464566929134,
                    "duration": 0.16467225000002372
                },
                {
                    "name": "D#4",
                    "midi": 63,
                    "time": 368.2071509999973,
                    "velocity": 0.30708661417322836,
                    "duration": 0.16467225000002372
                },
                {
                    "name": "D#5",
                    "midi": 75,
                    "time": 368.3718232499973,
                    "velocity": 0.25196850393700787,
                    "duration": 0.16467225000002372
                },
                {
                    "name": "B4",
                    "midi": 71,
                    "time": 368.53649549999733,
                    "velocity": 0.23622047244094488,
                    "duration": 0.16467225000002372
                },
                {
                    "name": "G#4",
                    "midi": 68,
                    "time": 368.53649549999733,
                    "velocity": 0.1968503937007874,
                    "duration": 0.16467225000002372
                },
                {
                    "name": "D#5",
                    "midi": 75,
                    "time": 368.70116774999735,
                    "velocity": 0.23622047244094488,
                    "duration": 0.16467225000002372
                },
                {
                    "name": "G#4",
                    "midi": 68,
                    "time": 368.8658399999974,
                    "velocity": 0.33858267716535434,
                    "duration": 0.16467225000002372
                },
                {
                    "name": "G#5",
                    "midi": 80,
                    "time": 369.0305122499974,
                    "velocity": 0.30708661417322836,
                    "duration": 0.16467225000002372
                },
                {
                    "name": "D#5",
                    "midi": 75,
                    "time": 369.1951844999974,
                    "velocity": 0.30708661417322836,
                    "duration": 0.16467225000002372
                },
                {
                    "name": "F#5",
                    "midi": 78,
                    "time": 369.1951844999974,
                    "velocity": 0.3700787401574803,
                    "duration": 0.16467225000002372
                },
                {
                    "name": "G#5",
                    "midi": 80,
                    "time": 369.35985674999745,
                    "velocity": 0.31496062992125984,
                    "duration": 0.16467225000002372
                },
                {
                    "name": "C5",
                    "midi": 72,
                    "time": 369.5245289999975,
                    "velocity": 0.41732283464566927,
                    "duration": 0.16467225000002372
                },
                {
                    "name": "F#5",
                    "midi": 78,
                    "time": 369.5245289999975,
                    "velocity": 0.41732283464566927,
                    "duration": 0.16467225000002372
                },
                {
                    "name": "G#5",
                    "midi": 80,
                    "time": 369.6892012499975,
                    "velocity": 0.33858267716535434,
                    "duration": 0.16467225000002372
                },
                {
                    "name": "D#5",
                    "midi": 75,
                    "time": 369.8538734999975,
                    "velocity": 0.3700787401574803,
                    "duration": 0.16467225000002372
                },
                {
                    "name": "C5",
                    "midi": 72,
                    "time": 369.8538734999975,
                    "velocity": 0.3700787401574803,
                    "duration": 0.16467225000002372
                },
                {
                    "name": "G#5",
                    "midi": 80,
                    "time": 370.01854574999754,
                    "velocity": 0.3228346456692913,
                    "duration": 0.16467225000002372
                },
                {
                    "name": "C#5",
                    "midi": 73,
                    "time": 370.18321799999757,
                    "velocity": 0.36220472440944884,
                    "duration": 0.16467225000002372
                },
                {
                    "name": "F5",
                    "midi": 77,
                    "time": 370.18321799999757,
                    "velocity": 0.4330708661417323,
                    "duration": 0.16467225000002372
                },
                {
                    "name": "G#5",
                    "midi": 80,
                    "time": 370.3478902499976,
                    "velocity": 0.4015748031496063,
                    "duration": 0.16467225000002372
                },
                {
                    "name": "B5",
                    "midi": 83,
                    "time": 370.5125624999976,
                    "velocity": 0.4566929133858268,
                    "duration": 0.16467225000002372
                },
                {
                    "name": "F5",
                    "midi": 77,
                    "time": 370.5125624999976,
                    "velocity": 0.3858267716535433,
                    "duration": 0.16467225000002372
                },
                {
                    "name": "C#6",
                    "midi": 85,
                    "time": 370.67723474999764,
                    "velocity": 0.41732283464566927,
                    "duration": 0.16467225000002372
                },
                {
                    "name": "A#5",
                    "midi": 82,
                    "time": 370.84190699999766,
                    "velocity": 0.4881889763779528,
                    "duration": 0.16467225000002372
                },
                {
                    "name": "F#5",
                    "midi": 78,
                    "time": 370.84190699999766,
                    "velocity": 0.4094488188976378,
                    "duration": 0.16467225000002372
                },
                {
                    "name": "C#6",
                    "midi": 85,
                    "time": 371.0065792499977,
                    "velocity": 0.44881889763779526,
                    "duration": 0.16467225000002372
                },
                {
                    "name": "F5",
                    "midi": 77,
                    "time": 371.1712514999977,
                    "velocity": 0.4330708661417323,
                    "duration": 0.16467225000002372
                },
                {
                    "name": "G#5",
                    "midi": 80,
                    "time": 371.1712514999977,
                    "velocity": 0.5196850393700787,
                    "duration": 0.16467225000002372
                },
                {
                    "name": "C#6",
                    "midi": 85,
                    "time": 371.33592374999773,
                    "velocity": 0.47244094488188976,
                    "duration": 0.16467225000002372
                },
                {
                    "name": "F#5",
                    "midi": 78,
                    "time": 371.50059599999776,
                    "velocity": 0.5590551181102362,
                    "duration": 0.24700837500000716
                },
                {
                    "name": "C#6",
                    "midi": 85,
                    "time": 371.74760437499776,
                    "velocity": 0.5669291338582677,
                    "duration": 0.08233612499998344
                },
                {
                    "name": "A#5",
                    "midi": 82,
                    "time": 371.82994049999775,
                    "velocity": 0.6141732283464567,
                    "duration": 0.5763528749999978
                },
                {
                    "name": "A#6",
                    "midi": 94,
                    "time": 371.82994049999775,
                    "velocity": 0.6141732283464567,
                    "duration": 0.5763528749999978
                },
                {
                    "name": "F#6",
                    "midi": 90,
                    "time": 372.40629337499774,
                    "velocity": 0.5511811023622047,
                    "duration": 0.08233612499998344
                },
                {
                    "name": "A#5",
                    "midi": 82,
                    "time": 372.4886294999977,
                    "velocity": 0.6141732283464567,
                    "duration": 0.6586889999999812
                },
                {
                    "name": "A#6",
                    "midi": 94,
                    "time": 372.4886294999977,
                    "velocity": 0.6141732283464567,
                    "duration": 0.6586889999999812
                },
                {
                    "name": "F#5",
                    "midi": 78,
                    "time": 373.1473184999977,
                    "velocity": 0.5669291338582677,
                    "duration": 0.3293444999999906
                },
                {
                    "name": "F#6",
                    "midi": 90,
                    "time": 373.1473184999977,
                    "velocity": 0.5669291338582677,
                    "duration": 0.3293444999999906
                },
                {
                    "name": "C#6",
                    "midi": 85,
                    "time": 373.4766629999977,
                    "velocity": 0.5669291338582677,
                    "duration": 0.3293444999999906
                },
                {
                    "name": "C#5",
                    "midi": 73,
                    "time": 373.4766629999977,
                    "velocity": 0.5669291338582677,
                    "duration": 0.3293444999999906
                },
                {
                    "name": "A#5",
                    "midi": 82,
                    "time": 373.8060074999977,
                    "velocity": 0.5669291338582677,
                    "duration": 0.3293444999999906
                },
                {
                    "name": "A#4",
                    "midi": 70,
                    "time": 373.8060074999977,
                    "velocity": 0.5669291338582677,
                    "duration": 0.3293444999999906
                },
                {
                    "name": "C#6",
                    "midi": 85,
                    "time": 374.3823603749977,
                    "velocity": 0.5669291338582677,
                    "duration": 0.08233612499998344
                },
                {
                    "name": "B5",
                    "midi": 83,
                    "time": 374.4646964999977,
                    "velocity": 0.6141732283464567,
                    "duration": 0.5763528749999978
                },
                {
                    "name": "B6",
                    "midi": 95,
                    "time": 374.4646964999977,
                    "velocity": 0.6141732283464567,
                    "duration": 0.5763528749999978
                },
                {
                    "name": "G#6",
                    "midi": 92,
                    "time": 375.04104937499767,
                    "velocity": 0.5590551181102362,
                    "duration": 0.08233612499998344
                },
                {
                    "name": "B5",
                    "midi": 83,
                    "time": 375.12338549999765,
                    "velocity": 0.6141732283464567,
                    "duration": 0.6586889999999812
                },
                {
                    "name": "B6",
                    "midi": 95,
                    "time": 375.12338549999765,
                    "velocity": 0.6141732283464567,
                    "duration": 0.6586889999999812
                },
                {
                    "name": "G#6",
                    "midi": 92,
                    "time": 375.78207449999763,
                    "velocity": 0.5669291338582677,
                    "duration": 0.3293444999999906
                },
                {
                    "name": "G#5",
                    "midi": 80,
                    "time": 375.78207449999763,
                    "velocity": 0.5669291338582677,
                    "duration": 0.3293444999999906
                },
                {
                    "name": "F6",
                    "midi": 89,
                    "time": 376.1114189999976,
                    "velocity": 0.5669291338582677,
                    "duration": 0.3293444999999906
                },
                {
                    "name": "F5",
                    "midi": 77,
                    "time": 376.1114189999976,
                    "velocity": 0.5669291338582677,
                    "duration": 0.3293444999999906
                },
                {
                    "name": "B4",
                    "midi": 71,
                    "time": 376.4407634999976,
                    "velocity": 0.5669291338582677,
                    "duration": 0.3293444999999906
                },
                {
                    "name": "B5",
                    "midi": 83,
                    "time": 376.4407634999976,
                    "velocity": 0.5669291338582677,
                    "duration": 0.3293444999999906
                },
                {
                    "name": "C#5",
                    "midi": 73,
                    "time": 377.0171163749976,
                    "velocity": 0.4645669291338583,
                    "duration": 0.08233612499998344
                },
                {
                    "name": "A#4",
                    "midi": 70,
                    "time": 377.0994524999976,
                    "velocity": 0.49606299212598426,
                    "duration": 0.5763528749999978
                },
                {
                    "name": "A#5",
                    "midi": 82,
                    "time": 377.0994524999976,
                    "velocity": 0.49606299212598426,
                    "duration": 0.5763528749999978
                },
                {
                    "name": "F#5",
                    "midi": 78,
                    "time": 377.6758053749976,
                    "velocity": 0.44881889763779526,
                    "duration": 0.08233612499998344
                },
                {
                    "name": "A#5",
                    "midi": 82,
                    "time": 377.7581414999976,
                    "velocity": 0.49606299212598426,
                    "duration": 0.6586889999999812
                },
                {
                    "name": "A#4",
                    "midi": 70,
                    "time": 377.7581414999976,
                    "velocity": 0.49606299212598426,
                    "duration": 0.6586889999999812
                },
                {
                    "name": "A5",
                    "midi": 81,
                    "time": 378.41683049999756,
                    "velocity": 0.41732283464566927,
                    "duration": 0.3293444999999906
                },
                {
                    "name": "A4",
                    "midi": 69,
                    "time": 378.41683049999756,
                    "velocity": 0.41732283464566927,
                    "duration": 0.3293444999999906
                },
                {
                    "name": "G#4",
                    "midi": 68,
                    "time": 378.74617499999755,
                    "velocity": 0.3937007874015748,
                    "duration": 0.3293444999999906
                },
                {
                    "name": "G#5",
                    "midi": 80,
                    "time": 378.74617499999755,
                    "velocity": 0.3937007874015748,
                    "duration": 0.3293444999999906
                },
                {
                    "name": "F#5",
                    "midi": 78,
                    "time": 379.07551949999754,
                    "velocity": 0.3700787401574803,
                    "duration": 0.3293444999999906
                },
                {
                    "name": "F#4",
                    "midi": 66,
                    "time": 379.07551949999754,
                    "velocity": 0.3700787401574803,
                    "duration": 0.3293444999999906
                },
                {
                    "name": "F5",
                    "midi": 77,
                    "time": 379.40486399999753,
                    "velocity": 0.30708661417322836,
                    "duration": 0.3293444999999906
                },
                {
                    "name": "F4",
                    "midi": 65,
                    "time": 379.40486399999753,
                    "velocity": 0.30708661417322836,
                    "duration": 0.3293444999999906
                },
                {
                    "name": "C#6",
                    "midi": 85,
                    "time": 379.7342084999975,
                    "velocity": 0.3464566929133858,
                    "duration": 0.3293444999999906
                },
                {
                    "name": "C#5",
                    "midi": 73,
                    "time": 379.7342084999975,
                    "velocity": 0.3464566929133858,
                    "duration": 0.3293444999999906
                },
                {
                    "name": "B4",
                    "midi": 71,
                    "time": 380.0635529999975,
                    "velocity": 0.31496062992125984,
                    "duration": 0.3293444999999906
                },
                {
                    "name": "B5",
                    "midi": 83,
                    "time": 380.0635529999975,
                    "velocity": 0.31496062992125984,
                    "duration": 0.3293444999999906
                },
                {
                    "name": "G#5",
                    "midi": 80,
                    "time": 380.3928974999975,
                    "velocity": 0.31496062992125984,
                    "duration": 0.3293444999999906
                },
                {
                    "name": "G#4",
                    "midi": 68,
                    "time": 380.3928974999975,
                    "velocity": 0.31496062992125984,
                    "duration": 0.3293444999999906
                },
                {
                    "name": "F#5",
                    "midi": 78,
                    "time": 380.7222419999975,
                    "velocity": 0.3700787401574803,
                    "duration": 1.3173780000000193
                },
                {
                    "name": "F#4",
                    "midi": 66,
                    "time": 380.7222419999975,
                    "velocity": 0.3700787401574803,
                    "duration": 1.3173780000000193
                },
                {
                    "name": "C#4",
                    "midi": 61,
                    "time": 382.0396199999975,
                    "velocity": 0.31496062992125984,
                    "duration": 0.16467225000002372
                },
                {
                    "name": "C#5",
                    "midi": 73,
                    "time": 382.20429224999754,
                    "velocity": 0.23622047244094488,
                    "duration": 0.16467225000002372
                },
                {
                    "name": "A#4",
                    "midi": 70,
                    "time": 382.36896449999756,
                    "velocity": 0.23622047244094488,
                    "duration": 0.16467225000002372
                },
                {
                    "name": "F#4",
                    "midi": 66,
                    "time": 382.36896449999756,
                    "velocity": 0.1968503937007874,
                    "duration": 0.16467225000002372
                },
                {
                    "name": "C#5",
                    "midi": 73,
                    "time": 382.5336367499976,
                    "velocity": 0.23622047244094488,
                    "duration": 0.16467225000002372
                },
                {
                    "name": "C#4",
                    "midi": 61,
                    "time": 382.6983089999976,
                    "velocity": 0.2992125984251969,
                    "duration": 0.16467225000002372
                },
                {
                    "name": "C#5",
                    "midi": 73,
                    "time": 382.86298124999763,
                    "velocity": 0.2204724409448819,
                    "duration": 0.16467225000002372
                },
                {
                    "name": "F#4",
                    "midi": 66,
                    "time": 383.02765349999765,
                    "velocity": 0.1889763779527559,
                    "duration": 0.16467225000002372
                },
                {
                    "name": "A#4",
                    "midi": 70,
                    "time": 383.02765349999765,
                    "velocity": 0.2204724409448819,
                    "duration": 0.16467225000002372
                },
                {
                    "name": "C#5",
                    "midi": 73,
                    "time": 383.1923257499977,
                    "velocity": 0.2204724409448819,
                    "duration": 0.16467225000002372
                },
                {
                    "name": "C#4",
                    "midi": 61,
                    "time": 383.3569979999977,
                    "velocity": 0.2992125984251969,
                    "duration": 0.16467225000002372
                },
                {
                    "name": "C#5",
                    "midi": 73,
                    "time": 383.5216702499977,
                    "velocity": 0.23622047244094488,
                    "duration": 0.16467225000002372
                },
                {
                    "name": "F#4",
                    "midi": 66,
                    "time": 383.68634249999775,
                    "velocity": 0.1889763779527559,
                    "duration": 0.16467225000002372
                },
                {
                    "name": "A#4",
                    "midi": 70,
                    "time": 383.68634249999775,
                    "velocity": 0.2204724409448819,
                    "duration": 0.16467225000002372
                },
                {
                    "name": "C#5",
                    "midi": 73,
                    "time": 383.8510147499978,
                    "velocity": 0.2204724409448819,
                    "duration": 0.16467225000002372
                },
                {
                    "name": "C#4",
                    "midi": 61,
                    "time": 384.0156869999978,
                    "velocity": 0.30708661417322836,
                    "duration": 0.16467225000002372
                },
                {
                    "name": "C#5",
                    "midi": 73,
                    "time": 384.1803592499978,
                    "velocity": 0.25196850393700787,
                    "duration": 0.16467225000002372
                },
                {
                    "name": "A#4",
                    "midi": 70,
                    "time": 384.34503149999784,
                    "velocity": 0.23622047244094488,
                    "duration": 0.16467225000002372
                },
                {
                    "name": "F#4",
                    "midi": 66,
                    "time": 384.34503149999784,
                    "velocity": 0.1968503937007874,
                    "duration": 0.16467225000002372
                },
                {
                    "name": "C#5",
                    "midi": 73,
                    "time": 384.50970374999787,
                    "velocity": 0.23622047244094488,
                    "duration": 0.16467225000002372
                },
                {
                    "name": "C#4",
                    "midi": 61,
                    "time": 384.6743759999979,
                    "velocity": 0.33858267716535434,
                    "duration": 0.16467225000002372
                },
                {
                    "name": "C#5",
                    "midi": 73,
                    "time": 384.8390482499979,
                    "velocity": 0.25196850393700787,
                    "duration": 0.16467225000002372
                },
                {
                    "name": "B4",
                    "midi": 71,
                    "time": 385.00372049999794,
                    "velocity": 0.25196850393700787,
                    "duration": 0.16467225000002372
                },
                {
                    "name": "G#4",
                    "midi": 68,
                    "time": 385.00372049999794,
                    "velocity": 0.2047244094488189,
                    "duration": 0.16467225000002372
                },
                {
                    "name": "C#5",
                    "midi": 73,
                    "time": 385.16839274999796,
                    "velocity": 0.25196850393700787,
                    "duration": 0.16467225000002372
                },
                {
                    "name": "C#4",
                    "midi": 61,
                    "time": 385.333064999998,
                    "velocity": 0.31496062992125984,
                    "duration": 0.16467225000002372
                },
                {
                    "name": "C#5",
                    "midi": 73,
                    "time": 385.497737249998,
                    "velocity": 0.2440944881889764,
                    "duration": 0.16467225000002372
                },
                {
                    "name": "G#4",
                    "midi": 68,
                    "time": 385.66240949999803,
                    "velocity": 0.2047244094488189,
                    "duration": 0.16467225000002372
                },
                {
                    "name": "B4",
                    "midi": 71,
                    "time": 385.66240949999803,
                    "velocity": 0.2440944881889764,
                    "duration": 0.16467225000002372
                },
                {
                    "name": "C#5",
                    "midi": 73,
                    "time": 385.82708174999806,
                    "velocity": 0.25196850393700787,
                    "duration": 0.16467225000002372
                },
                {
                    "name": "C#4",
                    "midi": 61,
                    "time": 385.9917539999981,
                    "velocity": 0.33858267716535434,
                    "duration": 0.16467225000002372
                },
                {
                    "name": "C#5",
                    "midi": 73,
                    "time": 386.1564262499981,
                    "velocity": 0.2677165354330709,
                    "duration": 0.16467225000002372
                },
                {
                    "name": "G#4",
                    "midi": 68,
                    "time": 386.32109849999813,
                    "velocity": 0.2125984251968504,
                    "duration": 0.16467225000002372
                },
                {
                    "name": "B4",
                    "midi": 71,
                    "time": 386.32109849999813,
                    "velocity": 0.25196850393700787,
                    "duration": 0.16467225000002372
                },
                {
                    "name": "C#5",
                    "midi": 73,
                    "time": 386.48577074999815,
                    "velocity": 0.25196850393700787,
                    "duration": 0.16467225000002372
                },
                {
                    "name": "C#4",
                    "midi": 61,
                    "time": 386.6504429999982,
                    "velocity": 0.3464566929133858,
                    "duration": 0.16467225000002372
                },
                {
                    "name": "C#5",
                    "midi": 73,
                    "time": 386.8151152499982,
                    "velocity": 0.28346456692913385,
                    "duration": 0.16467225000002372
                },
                {
                    "name": "B4",
                    "midi": 71,
                    "time": 386.9797874999982,
                    "velocity": 0.2677165354330709,
                    "duration": 0.16467225000002372
                },
                {
                    "name": "G#4",
                    "midi": 68,
                    "time": 386.9797874999982,
                    "velocity": 0.2204724409448819,
                    "duration": 0.16467225000002372
                },
                {
                    "name": "C#5",
                    "midi": 73,
                    "time": 387.14445974999825,
                    "velocity": 0.2677165354330709,
                    "duration": 0.16467225000002372
                },
                {
                    "name": "C#4",
                    "midi": 61,
                    "time": 387.30913199999827,
                    "velocity": 0.3779527559055118,
                    "duration": 0.16467225000002372
                },
                {
                    "name": "C#5",
                    "midi": 73,
                    "time": 387.4738042499983,
                    "velocity": 0.28346456692913385,
                    "duration": 0.16467225000002372
                },
                {
                    "name": "F#4",
                    "midi": 66,
                    "time": 387.6384764999983,
                    "velocity": 0.23622047244094488,
                    "duration": 0.16467225000002372
                },
                {
                    "name": "A#4",
                    "midi": 70,
                    "time": 387.6384764999983,
                    "velocity": 0.28346456692913385,
                    "duration": 0.16467225000002372
                },
                {
                    "name": "C#5",
                    "midi": 73,
                    "time": 387.80314874999834,
                    "velocity": 0.28346456692913385,
                    "duration": 0.16467225000002372
                },
                {
                    "name": "C#4",
                    "midi": 61,
                    "time": 387.96782099999837,
                    "velocity": 0.3543307086614173,
                    "duration": 0.16467225000002372
                },
                {
                    "name": "C#5",
                    "midi": 73,
                    "time": 388.1324932499984,
                    "velocity": 0.2677165354330709,
                    "duration": 0.16467225000002372
                },
                {
                    "name": "A#4",
                    "midi": 70,
                    "time": 388.2971654999984,
                    "velocity": 0.2677165354330709,
                    "duration": 0.16467225000002372
                },
                {
                    "name": "F#4",
                    "midi": 66,
                    "time": 388.2971654999984,
                    "velocity": 0.2204724409448819,
                    "duration": 0.16467225000002372
                },
                {
                    "name": "C#5",
                    "midi": 73,
                    "time": 388.46183774999844,
                    "velocity": 0.2677165354330709,
                    "duration": 0.16467225000002372
                },
                {
                    "name": "D#4",
                    "midi": 63,
                    "time": 388.62650999999846,
                    "velocity": 0.3543307086614173,
                    "duration": 0.16467225000002372
                },
                {
                    "name": "D#5",
                    "midi": 75,
                    "time": 388.7911822499985,
                    "velocity": 0.28346456692913385,
                    "duration": 0.16467225000002372
                },
                {
                    "name": "B4",
                    "midi": 71,
                    "time": 388.9558544999985,
                    "velocity": 0.2677165354330709,
                    "duration": 0.16467225000002372
                },
                {
                    "name": "G#4",
                    "midi": 68,
                    "time": 388.9558544999985,
                    "velocity": 0.2204724409448819,
                    "duration": 0.16467225000002372
                },
                {
                    "name": "D#5",
                    "midi": 75,
                    "time": 389.12052674999853,
                    "velocity": 0.2677165354330709,
                    "duration": 0.16467225000002372
                },
                {
                    "name": "D#4",
                    "midi": 63,
                    "time": 389.28519899999856,
                    "velocity": 0.36220472440944884,
                    "duration": 0.16467225000002372
                },
                {
                    "name": "D#5",
                    "midi": 75,
                    "time": 389.4498712499986,
                    "velocity": 0.2992125984251969,
                    "duration": 0.16467225000002372
                },
                {
                    "name": "B4",
                    "midi": 71,
                    "time": 389.6145434999986,
                    "velocity": 0.28346456692913385,
                    "duration": 0.16467225000002372
                },
                {
                    "name": "G#4",
                    "midi": 68,
                    "time": 389.6145434999986,
                    "velocity": 0.23622047244094488,
                    "duration": 0.16467225000002372
                },
                {
                    "name": "D#5",
                    "midi": 75,
                    "time": 389.7792157499986,
                    "velocity": 0.28346456692913385,
                    "duration": 0.16467225000002372
                },
                {
                    "name": "G#4",
                    "midi": 68,
                    "time": 389.94388799999865,
                    "velocity": 0.3700787401574803,
                    "duration": 0.16467225000002372
                },
                {
                    "name": "G#5",
                    "midi": 80,
                    "time": 390.1085602499987,
                    "velocity": 0.33070866141732286,
                    "duration": 0.16467225000002372
                },
                {
                    "name": "D#5",
                    "midi": 75,
                    "time": 390.2732324999987,
                    "velocity": 0.33070866141732286,
                    "duration": 0.16467225000002372
                },
                {
                    "name": "F#5",
                    "midi": 78,
                    "time": 390.2732324999987,
                    "velocity": 0.4015748031496063,
                    "duration": 0.16467225000002372
                },
                {
                    "name": "G#5",
                    "midi": 80,
                    "time": 390.4379047499987,
                    "velocity": 0.3464566929133858,
                    "duration": 0.16467225000002372
                },
                {
                    "name": "C5",
                    "midi": 72,
                    "time": 390.60257699999875,
                    "velocity": 0.4566929133858268,
                    "duration": 0.16467225000002372
                },
                {
                    "name": "F#5",
                    "midi": 78,
                    "time": 390.60257699999875,
                    "velocity": 0.4566929133858268,
                    "duration": 0.16467225000002372
                },
                {
                    "name": "G#5",
                    "midi": 80,
                    "time": 390.76724924999877,
                    "velocity": 0.3700787401574803,
                    "duration": 0.16467225000002372
                },
                {
                    "name": "D#5",
                    "midi": 75,
                    "time": 390.9319214999988,
                    "velocity": 0.4015748031496063,
                    "duration": 0.16467225000002372
                },
                {
                    "name": "C5",
                    "midi": 72,
                    "time": 390.9319214999988,
                    "velocity": 0.4015748031496063,
                    "duration": 0.16467225000002372
                },
                {
                    "name": "G#5",
                    "midi": 80,
                    "time": 391.0965937499988,
                    "velocity": 0.3543307086614173,
                    "duration": 0.16467225000002372
                },
                {
                    "name": "C#5",
                    "midi": 73,
                    "time": 391.26126599999884,
                    "velocity": 0.3937007874015748,
                    "duration": 0.16467225000002372
                },
                {
                    "name": "F5",
                    "midi": 77,
                    "time": 391.26126599999884,
                    "velocity": 0.47244094488188976,
                    "duration": 0.16467225000002372
                },
                {
                    "name": "G#5",
                    "midi": 80,
                    "time": 391.42593824999886,
                    "velocity": 0.4409448818897638,
                    "duration": 0.16467225000002372
                },
                {
                    "name": "B5",
                    "midi": 83,
                    "time": 391.5906104999989,
                    "velocity": 0.49606299212598426,
                    "duration": 0.16467225000002372
                },
                {
                    "name": "F5",
                    "midi": 77,
                    "time": 391.5906104999989,
                    "velocity": 0.41732283464566927,
                    "duration": 0.16467225000002372
                },
                {
                    "name": "C#6",
                    "midi": 85,
                    "time": 391.7552827499989,
                    "velocity": 0.4566929133858268,
                    "duration": 0.16467225000002372
                },
                {
                    "name": "F#5",
                    "midi": 78,
                    "time": 391.91995499999894,
                    "velocity": 0.44881889763779526,
                    "duration": 0.16467225000002372
                },
                {
                    "name": "A#5",
                    "midi": 82,
                    "time": 391.91995499999894,
                    "velocity": 0.5354330708661418,
                    "duration": 0.16467225000002372
                },
                {
                    "name": "C#6",
                    "midi": 85,
                    "time": 392.08462724999896,
                    "velocity": 0.4881889763779528,
                    "duration": 0.16467225000002372
                },
                {
                    "name": "G#5",
                    "midi": 80,
                    "time": 392.249299499999,
                    "velocity": 0.5669291338582677,
                    "duration": 0.16467225000002372
                },
                {
                    "name": "F5",
                    "midi": 77,
                    "time": 392.249299499999,
                    "velocity": 0.47244094488188976,
                    "duration": 0.16467225000002372
                },
                {
                    "name": "C#6",
                    "midi": 85,
                    "time": 392.413971749999,
                    "velocity": 0.5196850393700787,
                    "duration": 0.16467225000002372
                },
                {
                    "name": "F#5",
                    "midi": 78,
                    "time": 392.57864399999903,
                    "velocity": 0.6141732283464567,
                    "duration": 0.24700837500000716
                },
                {
                    "name": "C#6",
                    "midi": 85,
                    "time": 392.82565237499904,
                    "velocity": 0.6220472440944882,
                    "duration": 0.08233612499998344
                },
                {
                    "name": "A#5",
                    "midi": 82,
                    "time": 392.907988499999,
                    "velocity": 0.6692913385826772,
                    "duration": 0.5763528749999978
                },
                {
                    "name": "A#6",
                    "midi": 94,
                    "time": 392.907988499999,
                    "velocity": 0.6692913385826772,
                    "duration": 0.5763528749999978
                },
                {
                    "name": "F#6",
                    "midi": 90,
                    "time": 393.484341374999,
                    "velocity": 0.6062992125984252,
                    "duration": 0.08233612499998344
                },
                {
                    "name": "A#5",
                    "midi": 82,
                    "time": 393.566677499999,
                    "velocity": 0.6692913385826772,
                    "duration": 0.6586889999999812
                },
                {
                    "name": "A#6",
                    "midi": 94,
                    "time": 393.566677499999,
                    "velocity": 0.6692913385826772,
                    "duration": 0.6586889999999812
                },
                {
                    "name": "F#5",
                    "midi": 78,
                    "time": 394.225366499999,
                    "velocity": 0.6220472440944882,
                    "duration": 0.3293444999999906
                },
                {
                    "name": "F#6",
                    "midi": 90,
                    "time": 394.225366499999,
                    "velocity": 0.6220472440944882,
                    "duration": 0.3293444999999906
                },
                {
                    "name": "C#6",
                    "midi": 85,
                    "time": 394.554710999999,
                    "velocity": 0.6220472440944882,
                    "duration": 0.3293444999999906
                },
                {
                    "name": "C#5",
                    "midi": 73,
                    "time": 394.554710999999,
                    "velocity": 0.6220472440944882,
                    "duration": 0.3293444999999906
                },
                {
                    "name": "A#4",
                    "midi": 70,
                    "time": 394.88405549999896,
                    "velocity": 0.6220472440944882,
                    "duration": 0.3293444999999906
                },
                {
                    "name": "A#5",
                    "midi": 82,
                    "time": 394.88405549999896,
                    "velocity": 0.6220472440944882,
                    "duration": 0.3293444999999906
                },
                {
                    "name": "C#6",
                    "midi": 85,
                    "time": 395.46040837499896,
                    "velocity": 0.6220472440944882,
                    "duration": 0.08233612499998344
                },
                {
                    "name": "B6",
                    "midi": 95,
                    "time": 395.54274449999895,
                    "velocity": 0.6692913385826772,
                    "duration": 0.5763528749999978
                },
                {
                    "name": "B5",
                    "midi": 83,
                    "time": 395.54274449999895,
                    "velocity": 0.6692913385826772,
                    "duration": 0.5763528749999978
                },
                {
                    "name": "G#6",
                    "midi": 92,
                    "time": 396.11909737499894,
                    "velocity": 0.6141732283464567,
                    "duration": 0.08233612499998344
                },
                {
                    "name": "B6",
                    "midi": 95,
                    "time": 396.2014334999989,
                    "velocity": 0.6692913385826772,
                    "duration": 0.6586889999999812
                },
                {
                    "name": "B5",
                    "midi": 83,
                    "time": 396.2014334999989,
                    "velocity": 0.6692913385826772,
                    "duration": 0.6586889999999812
                },
                {
                    "name": "G#5",
                    "midi": 80,
                    "time": 396.8601224999989,
                    "velocity": 0.6220472440944882,
                    "duration": 0.3293444999999906
                },
                {
                    "name": "G#6",
                    "midi": 92,
                    "time": 396.8601224999989,
                    "velocity": 0.6220472440944882,
                    "duration": 0.3293444999999906
                },
                {
                    "name": "F5",
                    "midi": 77,
                    "time": 397.1894669999989,
                    "velocity": 0.6220472440944882,
                    "duration": 0.3293444999999906
                },
                {
                    "name": "F6",
                    "midi": 89,
                    "time": 397.1894669999989,
                    "velocity": 0.6220472440944882,
                    "duration": 0.3293444999999906
                },
                {
                    "name": "B5",
                    "midi": 83,
                    "time": 397.5188114999989,
                    "velocity": 0.6220472440944882,
                    "duration": 0.3293444999999906
                },
                {
                    "name": "B4",
                    "midi": 71,
                    "time": 397.5188114999989,
                    "velocity": 0.6220472440944882,
                    "duration": 0.3293444999999906
                },
                {
                    "name": "C#5",
                    "midi": 73,
                    "time": 398.0951643749989,
                    "velocity": 0.5039370078740157,
                    "duration": 0.08233612499998344
                },
                {
                    "name": "A#5",
                    "midi": 82,
                    "time": 398.17750049999887,
                    "velocity": 0.5354330708661418,
                    "duration": 0.5763528749999978
                },
                {
                    "name": "A#4",
                    "midi": 70,
                    "time": 398.17750049999887,
                    "velocity": 0.5354330708661418,
                    "duration": 0.5763528749999978
                },
                {
                    "name": "F#5",
                    "midi": 78,
                    "time": 398.75385337499887,
                    "velocity": 0.47244094488188976,
                    "duration": 0.08233612499998344
                },
                {
                    "name": "A#4",
                    "midi": 70,
                    "time": 398.83618949999885,
                    "velocity": 0.5275590551181102,
                    "duration": 0.6586889999999812
                },
                {
                    "name": "A#5",
                    "midi": 82,
                    "time": 398.83618949999885,
                    "velocity": 0.5275590551181102,
                    "duration": 0.6586889999999812
                },
                {
                    "name": "A5",
                    "midi": 81,
                    "time": 399.49487849999883,
                    "velocity": 0.4330708661417323,
                    "duration": 0.3293444999999906
                },
                {
                    "name": "A4",
                    "midi": 69,
                    "time": 399.49487849999883,
                    "velocity": 0.4330708661417323,
                    "duration": 0.3293444999999906
                },
                {
                    "name": "G#5",
                    "midi": 80,
                    "time": 399.8242229999988,
                    "velocity": 0.4015748031496063,
                    "duration": 0.3293444999999906
                },
                {
                    "name": "G#4",
                    "midi": 68,
                    "time": 399.8242229999988,
                    "velocity": 0.4015748031496063,
                    "duration": 0.3293444999999906
                },
                {
                    "name": "F#5",
                    "midi": 78,
                    "time": 400.1535674999988,
                    "velocity": 0.3700787401574803,
                    "duration": 0.3293444999999906
                },
                {
                    "name": "F#4",
                    "midi": 66,
                    "time": 400.1535674999988,
                    "velocity": 0.3700787401574803,
                    "duration": 0.3293444999999906
                },
                {
                    "name": "F5",
                    "midi": 77,
                    "time": 400.4829119999988,
                    "velocity": 0.30708661417322836,
                    "duration": 0.3293444999999906
                },
                {
                    "name": "F4",
                    "midi": 65,
                    "time": 400.4829119999988,
                    "velocity": 0.30708661417322836,
                    "duration": 0.3293444999999906
                },
                {
                    "name": "C#5",
                    "midi": 73,
                    "time": 400.8122564999988,
                    "velocity": 0.3464566929133858,
                    "duration": 0.3293444999999906
                },
                {
                    "name": "C#6",
                    "midi": 85,
                    "time": 400.8122564999988,
                    "velocity": 0.3464566929133858,
                    "duration": 0.3293444999999906
                },
                {
                    "name": "B4",
                    "midi": 71,
                    "time": 401.1416009999988,
                    "velocity": 0.31496062992125984,
                    "duration": 0.3293444999999906
                },
                {
                    "name": "B5",
                    "midi": 83,
                    "time": 401.1416009999988,
                    "velocity": 0.31496062992125984,
                    "duration": 0.3293444999999906
                },
                {
                    "name": "G#4",
                    "midi": 68,
                    "time": 401.4709454999988,
                    "velocity": 0.31496062992125984,
                    "duration": 0.3293444999999906
                },
                {
                    "name": "G#5",
                    "midi": 80,
                    "time": 401.4709454999988,
                    "velocity": 0.31496062992125984,
                    "duration": 0.3293444999999906
                },
                {
                    "name": "F#5",
                    "midi": 78,
                    "time": 401.80028999999877,
                    "velocity": 0.3700787401574803,
                    "duration": 1.3173780000000193
                },
                {
                    "name": "F#4",
                    "midi": 66,
                    "time": 401.80028999999877,
                    "velocity": 0.3700787401574803,
                    "duration": 1.3173780000000193
                },
                {
                    "name": "D4",
                    "midi": 62,
                    "time": 403.1176679999988,
                    "velocity": 0.4881889763779528,
                    "duration": 0.16467225000002372
                },
                {
                    "name": "D5",
                    "midi": 74,
                    "time": 403.2823402499988,
                    "velocity": 0.36220472440944884,
                    "duration": 0.16467225000002372
                },
                {
                    "name": "F4",
                    "midi": 65,
                    "time": 403.44701249999883,
                    "velocity": 0.30708661417322836,
                    "duration": 0.16467225000002372
                },
                {
                    "name": "A#4",
                    "midi": 70,
                    "time": 403.44701249999883,
                    "velocity": 0.36220472440944884,
                    "duration": 0.16467225000002372
                },
                {
                    "name": "D5",
                    "midi": 74,
                    "time": 403.61168474999886,
                    "velocity": 0.36220472440944884,
                    "duration": 0.16467225000002372
                },
                {
                    "name": "D4",
                    "midi": 62,
                    "time": 403.7763569999989,
                    "velocity": 0.49606299212598426,
                    "duration": 0.16467225000002372
                },
                {
                    "name": "D5",
                    "midi": 74,
                    "time": 403.9410292499989,
                    "velocity": 0.3464566929133858,
                    "duration": 0.16467225000002372
                },
                {
                    "name": "F4",
                    "midi": 65,
                    "time": 404.10570149999893,
                    "velocity": 0.29133858267716534,
                    "duration": 0.16467225000002372
                },
                {
                    "name": "A#4",
                    "midi": 70,
                    "time": 404.10570149999893,
                    "velocity": 0.3464566929133858,
                    "duration": 0.16467225000002372
                },
                {
                    "name": "D5",
                    "midi": 74,
                    "time": 404.27037374999895,
                    "velocity": 0.3464566929133858,
                    "duration": 0.16467225000002372
                },
                {
                    "name": "D#4",
                    "midi": 63,
                    "time": 404.435045999999,
                    "velocity": 0.49606299212598426,
                    "duration": 0.16467225000002372
                },
                {
                    "name": "D#5",
                    "midi": 75,
                    "time": 404.599718249999,
                    "velocity": 0.3464566929133858,
                    "duration": 0.16467225000002372
                },
                {
                    "name": "F#4",
                    "midi": 66,
                    "time": 404.764390499999,
                    "velocity": 0.29133858267716534,
                    "duration": 0.16467225000002372
                },
                {
                    "name": "A#4",
                    "midi": 70,
                    "time": 404.764390499999,
                    "velocity": 0.3464566929133858,
                    "duration": 0.16467225000002372
                },
                {
                    "name": "D#5",
                    "midi": 75,
                    "time": 404.92906274999905,
                    "velocity": 0.3464566929133858,
                    "duration": 0.16467225000002372
                },
                {
                    "name": "A#4",
                    "midi": 70,
                    "time": 405.09373499999907,
                    "velocity": 0.5511811023622047,
                    "duration": 0.16467225000002372
                },
                {
                    "name": "A#5",
                    "midi": 82,
                    "time": 405.2584072499991,
                    "velocity": 0.4015748031496063,
                    "duration": 0.16467225000002372
                },
                {
                    "name": "F#5",
                    "midi": 78,
                    "time": 405.4230794999991,
                    "velocity": 0.4015748031496063,
                    "duration": 0.16467225000002372
                },
                {
                    "name": "D#5",
                    "midi": 75,
                    "time": 405.4230794999991,
                    "velocity": 0.4015748031496063,
                    "duration": 0.16467225000002372
                },
                {
                    "name": "A#5",
                    "midi": 82,
                    "time": 405.58775174999914,
                    "velocity": 0.4015748031496063,
                    "duration": 0.16467225000002372
                },
                {
                    "name": "D#4",
                    "midi": 63,
                    "time": 405.75242399999917,
                    "velocity": 0.4881889763779528,
                    "duration": 0.16467225000002372
                },
                {
                    "name": "D#5",
                    "midi": 75,
                    "time": 405.9170962499992,
                    "velocity": 0.36220472440944884,
                    "duration": 0.16467225000002372
                },
                {
                    "name": "F#4",
                    "midi": 66,
                    "time": 406.0817684999992,
                    "velocity": 0.30708661417322836,
                    "duration": 0.16467225000002372
                },
                {
                    "name": "A#4",
                    "midi": 70,
                    "time": 406.0817684999992,
                    "velocity": 0.36220472440944884,
                    "duration": 0.16467225000002372
                },
                {
                    "name": "D#5",
                    "midi": 75,
                    "time": 406.24644074999924,
                    "velocity": 0.36220472440944884,
                    "duration": 0.16467225000002372
                },
                {
                    "name": "D#4",
                    "midi": 63,
                    "time": 406.41111299999926,
                    "velocity": 0.49606299212598426,
                    "duration": 0.16467225000002372
                },
                {
                    "name": "D#5",
                    "midi": 75,
                    "time": 406.5757852499993,
                    "velocity": 0.3464566929133858,
                    "duration": 0.16467225000002372
                },
                {
                    "name": "C#5",
                    "midi": 73,
                    "time": 406.7404574999993,
                    "velocity": 0.3464566929133858,
                    "duration": 0.16467225000002372
                },
                {
                    "name": "G4",
                    "midi": 67,
                    "time": 406.7404574999993,
                    "velocity": 0.29133858267716534,
                    "duration": 0.16467225000002372
                },
                {
                    "name": "D#5",
                    "midi": 75,
                    "time": 406.90512974999933,
                    "velocity": 0.3464566929133858,
                    "duration": 0.16467225000002372
                },
                {
                    "name": "D#4",
                    "midi": 63,
                    "time": 407.06980199999936,
                    "velocity": 0.5196850393700787,
                    "duration": 0.16467225000002372
                },
                {
                    "name": "D#5",
                    "midi": 75,
                    "time": 407.2344742499994,
                    "velocity": 0.3858267716535433,
                    "duration": 0.16467225000002372
                },
                {
                    "name": "C5",
                    "midi": 72,
                    "time": 407.3991464999994,
                    "velocity": 0.3858267716535433,
                    "duration": 0.16467225000002372
                },
                {
                    "name": "G#4",
                    "midi": 68,
                    "time": 407.3991464999994,
                    "velocity": 0.3858267716535433,
                    "duration": 0.16467225000002372
                },
                {
                    "name": "D#5",
                    "midi": 75,
                    "time": 407.5638187499994,
                    "velocity": 0.4015748031496063,
                    "duration": 0.16467225000002372
                },
                {
                    "name": "C5",
                    "midi": 72,
                    "time": 407.72849099999945,
                    "velocity": 0.5039370078740157,
                    "duration": 0.16467225000002372
                },
                {
                    "name": "C6",
                    "midi": 84,
                    "time": 407.8931632499995,
                    "velocity": 0.3858267716535433,
                    "duration": 0.16467225000002372
                },
                {
                    "name": "G#5",
                    "midi": 80,
                    "time": 408.0578354999995,
                    "velocity": 0.3937007874015748,
                    "duration": 0.16467225000002372
                },
                {
                    "name": "D#5",
                    "midi": 75,
                    "time": 408.0578354999995,
                    "velocity": 0.3937007874015748,
                    "duration": 0.16467225000002372
                },
                {
                    "name": "C6",
                    "midi": 84,
                    "time": 408.2225077499995,
                    "velocity": 0.3937007874015748,
                    "duration": 0.16467225000002372
                },
                {
                    "name": "C#5",
                    "midi": 73,
                    "time": 408.63418837499955,
                    "velocity": 0.4015748031496063,
                    "duration": 0.6586889999999812
                },
                {
                    "name": "C#6",
                    "midi": 85,
                    "time": 408.71652449999954,
                    "velocity": 0.5118110236220472,
                    "duration": 0.5763528749999978
                },
                {
                    "name": "C#5",
                    "midi": 73,
                    "time": 409.29287737499953,
                    "velocity": 0.4251968503937008,
                    "duration": 0.7410251249999646
                },
                {
                    "name": "C#6",
                    "midi": 85,
                    "time": 409.3752134999995,
                    "velocity": 0.5275590551181102,
                    "duration": 0.6586889999999812
                },
                {
                    "name": "A#4",
                    "midi": 70,
                    "time": 410.0339024999995,
                    "velocity": 0.3779527559055118,
                    "duration": 0.3293444999999906
                },
                {
                    "name": "A#5",
                    "midi": 82,
                    "time": 410.0339024999995,
                    "velocity": 0.3779527559055118,
                    "duration": 0.3293444999999906
                },
                {
                    "name": "F#4",
                    "midi": 66,
                    "time": 410.3632469999995,
                    "velocity": 0.4015748031496063,
                    "duration": 0.3293444999999906
                },
                {
                    "name": "F#5",
                    "midi": 78,
                    "time": 410.3632469999995,
                    "velocity": 0.4015748031496063,
                    "duration": 0.3293444999999906
                },
                {
                    "name": "A#5",
                    "midi": 82,
                    "time": 410.6925914999995,
                    "velocity": 0.3700787401574803,
                    "duration": 0.3293444999999906
                },
                {
                    "name": "A#4",
                    "midi": 70,
                    "time": 410.6925914999995,
                    "velocity": 0.3700787401574803,
                    "duration": 0.3293444999999906
                },
                {
                    "name": "C#5",
                    "midi": 73,
                    "time": 411.02193599999947,
                    "velocity": 0.30708661417322836,
                    "duration": 0.3293444999999906
                },
                {
                    "name": "C#4",
                    "midi": 61,
                    "time": 411.02193599999947,
                    "velocity": 0.30708661417322836,
                    "duration": 0.3293444999999906
                },
                {
                    "name": "G#5",
                    "midi": 80,
                    "time": 411.35128049999946,
                    "velocity": 0.3464566929133858,
                    "duration": 0.3293444999999906
                },
                {
                    "name": "G#4",
                    "midi": 68,
                    "time": 411.35128049999946,
                    "velocity": 0.29133858267716534,
                    "duration": 0.3293444999999906
                },
                {
                    "name": "F#5",
                    "midi": 78,
                    "time": 411.68062499999945,
                    "velocity": 0.31496062992125984,
                    "duration": 0.3293444999999906
                },
                {
                    "name": "F#4",
                    "midi": 66,
                    "time": 411.68062499999945,
                    "velocity": 0.2677165354330709,
                    "duration": 0.3293444999999906
                },
                {
                    "name": "D#5",
                    "midi": 75,
                    "time": 412.00996949999944,
                    "velocity": 0.31496062992125984,
                    "duration": 0.3293444999999906
                },
                {
                    "name": "D#4",
                    "midi": 63,
                    "time": 412.00996949999944,
                    "velocity": 0.2677165354330709,
                    "duration": 0.3293444999999906
                },
                {
                    "name": "C#5",
                    "midi": 73,
                    "time": 412.33931399999943,
                    "velocity": 0.3464566929133858,
                    "duration": 1.3173779999999624
                },
                {
                    "name": "C#4",
                    "midi": 61,
                    "time": 412.33931399999943,
                    "velocity": 0.29133858267716534,
                    "duration": 0.3293444999999906
                },
                {
                    "name": "G#4",
                    "midi": 68,
                    "time": 412.6686584999994,
                    "velocity": 0.2677165354330709,
                    "duration": 0.3293444999999906
                },
                {
                    "name": "B4",
                    "midi": 71,
                    "time": 412.6686584999994,
                    "velocity": 0.31496062992125984,
                    "duration": 0.3293444999999906
                },
                {
                    "name": "F#4",
                    "midi": 66,
                    "time": 412.9980029999994,
                    "velocity": 0.2204724409448819,
                    "duration": 0.3293444999999906
                },
                {
                    "name": "A#4",
                    "midi": 70,
                    "time": 412.9980029999994,
                    "velocity": 0.2677165354330709,
                    "duration": 0.3293444999999906
                },
                {
                    "name": "F4",
                    "midi": 65,
                    "time": 413.3273474999994,
                    "velocity": 0.2204724409448819,
                    "duration": 0.3293444999999906
                },
                {
                    "name": "G#4",
                    "midi": 68,
                    "time": 413.3273474999994,
                    "velocity": 0.2677165354330709,
                    "duration": 0.3293444999999906
                },
                {
                    "name": "C#4",
                    "midi": 61,
                    "time": 413.6566919999994,
                    "velocity": 0.31496062992125984,
                    "duration": 0.16467225000002372
                },
                {
                    "name": "C#5",
                    "midi": 73,
                    "time": 413.8213642499994,
                    "velocity": 0.23622047244094488,
                    "duration": 0.16467225000002372
                },
                {
                    "name": "A#4",
                    "midi": 70,
                    "time": 413.98603649999944,
                    "velocity": 0.23622047244094488,
                    "duration": 0.16467225000002372
                },
                {
                    "name": "F#4",
                    "midi": 66,
                    "time": 413.98603649999944,
                    "velocity": 0.1968503937007874,
                    "duration": 0.16467225000002372
                },
                {
                    "name": "C#5",
                    "midi": 73,
                    "time": 414.15070874999947,
                    "velocity": 0.23622047244094488,
                    "duration": 0.16467225000002372
                },
                {
                    "name": "C#4",
                    "midi": 61,
                    "time": 414.3153809999995,
                    "velocity": 0.2992125984251969,
                    "duration": 0.16467225000002372
                },
                {
                    "name": "C#5",
                    "midi": 73,
                    "time": 414.4800532499995,
                    "velocity": 0.2204724409448819,
                    "duration": 0.16467225000002372
                },
                {
                    "name": "A#4",
                    "midi": 70,
                    "time": 414.64472549999954,
                    "velocity": 0.2204724409448819,
                    "duration": 0.16467225000002372
                },
                {
                    "name": "F#4",
                    "midi": 66,
                    "time": 414.64472549999954,
                    "velocity": 0.1889763779527559,
                    "duration": 0.16467225000002372
                },
                {
                    "name": "C#5",
                    "midi": 73,
                    "time": 414.80939774999956,
                    "velocity": 0.2204724409448819,
                    "duration": 0.16467225000002372
                },
                {
                    "name": "E4",
                    "midi": 64,
                    "time": 414.9740699999996,
                    "velocity": 0.36220472440944884,
                    "duration": 0.16467225000002372
                },
                {
                    "name": "E5",
                    "midi": 76,
                    "time": 415.1387422499996,
                    "velocity": 0.2677165354330709,
                    "duration": 0.16467225000002372
                },
                {
                    "name": "C#5",
                    "midi": 73,
                    "time": 415.30341449999963,
                    "velocity": 0.2677165354330709,
                    "duration": 0.16467225000002372
                },
                {
                    "name": "F#4",
                    "midi": 66,
                    "time": 415.30341449999963,
                    "velocity": 0.2677165354330709,
                    "duration": 0.16467225000002372
                },
                {
                    "name": "E5",
                    "midi": 76,
                    "time": 415.46808674999966,
                    "velocity": 0.2677165354330709,
                    "duration": 0.16467225000002372
                },
                {
                    "name": "E4",
                    "midi": 64,
                    "time": 415.6327589999997,
                    "velocity": 0.3779527559055118,
                    "duration": 0.16467225000002372
                },
                {
                    "name": "E5",
                    "midi": 76,
                    "time": 415.7974312499997,
                    "velocity": 0.2992125984251969,
                    "duration": 0.16467225000002372
                },
                {
                    "name": "C#5",
                    "midi": 73,
                    "time": 415.9621034999997,
                    "velocity": 0.30708661417322836,
                    "duration": 0.16467225000002372
                },
                {
                    "name": "F#4",
                    "midi": 66,
                    "time": 415.9621034999997,
                    "velocity": 0.30708661417322836,
                    "duration": 0.16467225000002372
                },
                {
                    "name": "E5",
                    "midi": 76,
                    "time": 416.12677574999975,
                    "velocity": 0.31496062992125984,
                    "duration": 0.16467225000002372
                },
                {
                    "name": "D#4",
                    "midi": 63,
                    "time": 416.2914479999998,
                    "velocity": 0.4251968503937008,
                    "duration": 0.16467225000002372
                },
                {
                    "name": "D#5",
                    "midi": 75,
                    "time": 416.4561202499998,
                    "velocity": 0.3543307086614173,
                    "duration": 0.16467225000002372
                },
                {
                    "name": "F#4",
                    "midi": 66,
                    "time": 416.6207924999998,
                    "velocity": 0.3543307086614173,
                    "duration": 0.16467225000002372
                },
                {
                    "name": "B4",
                    "midi": 71,
                    "time": 416.6207924999998,
                    "velocity": 0.3543307086614173,
                    "duration": 0.16467225000002372
                },
                {
                    "name": "D#5",
                    "midi": 75,
                    "time": 416.78546474999985,
                    "velocity": 0.3700787401574803,
                    "duration": 0.16467225000002372
                },
                {
                    "name": "D#4",
                    "midi": 63,
                    "time": 416.95013699999987,
                    "velocity": 0.4330708661417323,
                    "duration": 0.16467225000002372
                },
                {
                    "name": "D#5",
                    "midi": 75,
                    "time": 417.1148092499999,
                    "velocity": 0.3700787401574803,
                    "duration": 0.16467225000002372
                },
                {
                    "name": "F#4",
                    "midi": 66,
                    "time": 417.2794814999999,
                    "velocity": 0.3779527559055118,
                    "duration": 0.16467225000002372
                },
                {
                    "name": "B4",
                    "midi": 71,
                    "time": 417.2794814999999,
                    "velocity": 0.3779527559055118,
                    "duration": 0.16467225000002372
                },
                {
                    "name": "D#5",
                    "midi": 75,
                    "time": 417.44415374999994,
                    "velocity": 0.3779527559055118,
                    "duration": 0.16467225000002372
                },
                {
                    "name": "A4",
                    "midi": 69,
                    "time": 417.60882599999997,
                    "velocity": 0.4645669291338583,
                    "duration": 0.16467225000002372
                },
                {
                    "name": "A5",
                    "midi": 81,
                    "time": 417.77349825,
                    "velocity": 0.4094488188976378,
                    "duration": 0.16467225000002372
                },
                {
                    "name": "D#5",
                    "midi": 75,
                    "time": 417.9381705,
                    "velocity": 0.4094488188976378,
                    "duration": 0.16467225000002372
                },
                {
                    "name": "F#5",
                    "midi": 78,
                    "time": 417.9381705,
                    "velocity": 0.4094488188976378,
                    "duration": 0.16467225000002372
                },
                {
                    "name": "A5",
                    "midi": 81,
                    "time": 418.10284275000004,
                    "velocity": 0.4094488188976378,
                    "duration": 0.16467225000002372
                },
                {
                    "name": "A4",
                    "midi": 69,
                    "time": 418.26751500000006,
                    "velocity": 0.49606299212598426,
                    "duration": 0.16467225000002372
                },
                {
                    "name": "A5",
                    "midi": 81,
                    "time": 418.4321872500001,
                    "velocity": 0.4330708661417323,
                    "duration": 0.16467225000002372
                },
                {
                    "name": "D#5",
                    "midi": 75,
                    "time": 418.5968595000001,
                    "velocity": 0.4566929133858268,
                    "duration": 0.16467225000002372
                },
                {
                    "name": "F#5",
                    "midi": 78,
                    "time": 418.5968595000001,
                    "velocity": 0.4566929133858268,
                    "duration": 0.16467225000002372
                },
                {
                    "name": "A5",
                    "midi": 81,
                    "time": 418.76153175000013,
                    "velocity": 0.4645669291338583,
                    "duration": 0.16467225000002372
                },
                {
                    "name": "C6",
                    "midi": 84,
                    "time": 419.17321237500016,
                    "velocity": 0.4645669291338583,
                    "duration": 0.6586889999999812
                },
                {
                    "name": "C7",
                    "midi": 96,
                    "time": 419.25554850000015,
                    "velocity": 0.49606299212598426,
                    "duration": 0.5763528749999978
                },
                {
                    "name": "C6",
                    "midi": 84,
                    "time": 419.83190137500014,
                    "velocity": 0.44881889763779526,
                    "duration": 0.41168062499997404
                },
                {
                    "name": "C7",
                    "midi": 96,
                    "time": 419.9142375000001,
                    "velocity": 0.49606299212598426,
                    "duration": 0.3293444999999906
                },
                {
                    "name": "D#6",
                    "midi": 87,
                    "time": 420.2435820000001,
                    "velocity": 0.49606299212598426,
                    "duration": 0.3293444999999906
                },
                {
                    "name": "D#7",
                    "midi": 99,
                    "time": 420.2435820000001,
                    "velocity": 0.49606299212598426,
                    "duration": 0.3293444999999906
                },
                {
                    "name": "C#6",
                    "midi": 85,
                    "time": 420.5729265000001,
                    "velocity": 0.41732283464566927,
                    "duration": 0.3293444999999906
                },
                {
                    "name": "C#7",
                    "midi": 97,
                    "time": 420.5729265000001,
                    "velocity": 0.41732283464566927,
                    "duration": 0.3293444999999906
                },
                {
                    "name": "A#6",
                    "midi": 94,
                    "time": 420.9022710000001,
                    "velocity": 0.3937007874015748,
                    "duration": 0.3293444999999906
                },
                {
                    "name": "A#5",
                    "midi": 82,
                    "time": 420.9022710000001,
                    "velocity": 0.3937007874015748,
                    "duration": 0.3293444999999906
                },
                {
                    "name": "F#5",
                    "midi": 78,
                    "time": 421.2316155000001,
                    "velocity": 0.3700787401574803,
                    "duration": 0.3293444999999906
                },
                {
                    "name": "F#6",
                    "midi": 90,
                    "time": 421.2316155000001,
                    "velocity": 0.3700787401574803,
                    "duration": 0.3293444999999906
                },
                {
                    "name": "F5",
                    "midi": 77,
                    "time": 421.5609600000001,
                    "velocity": 0.30708661417322836,
                    "duration": 0.3293444999999906
                },
                {
                    "name": "F6",
                    "midi": 89,
                    "time": 421.5609600000001,
                    "velocity": 0.30708661417322836,
                    "duration": 0.3293444999999906
                },
                {
                    "name": "C#7",
                    "midi": 97,
                    "time": 421.89030450000007,
                    "velocity": 0.3464566929133858,
                    "duration": 0.3293444999999906
                },
                {
                    "name": "C#6",
                    "midi": 85,
                    "time": 421.89030450000007,
                    "velocity": 0.3464566929133858,
                    "duration": 0.3293444999999906
                },
                {
                    "name": "B6",
                    "midi": 95,
                    "time": 422.21964900000006,
                    "velocity": 0.31496062992125984,
                    "duration": 0.3293444999999906
                },
                {
                    "name": "B5",
                    "midi": 83,
                    "time": 422.21964900000006,
                    "velocity": 0.31496062992125984,
                    "duration": 0.3293444999999906
                },
                {
                    "name": "G#5",
                    "midi": 80,
                    "time": 422.54899350000005,
                    "velocity": 0.31496062992125984,
                    "duration": 0.3293444999999906
                },
                {
                    "name": "G#6",
                    "midi": 92,
                    "time": 422.54899350000005,
                    "velocity": 0.31496062992125984,
                    "duration": 0.3293444999999906
                },
                {
                    "name": "F#6",
                    "midi": 90,
                    "time": 422.87833800000004,
                    "velocity": 0.3700787401574803,
                    "duration": 1.3173780000000193
                },
                {
                    "name": "F#5",
                    "midi": 78,
                    "time": 422.87833800000004,
                    "velocity": 0.3700787401574803,
                    "duration": 1.3173780000000193
                },
                {
                    "name": "D4",
                    "midi": 62,
                    "time": 424.19571600000006,
                    "velocity": 0.4881889763779528,
                    "duration": 0.16467225000002372
                },
                {
                    "name": "D5",
                    "midi": 74,
                    "time": 424.3603882500001,
                    "velocity": 0.36220472440944884,
                    "duration": 0.16467225000002372
                },
                {
                    "name": "A#4",
                    "midi": 70,
                    "time": 424.5250605000001,
                    "velocity": 0.36220472440944884,
                    "duration": 0.16467225000002372
                },
                {
                    "name": "F4",
                    "midi": 65,
                    "time": 424.5250605000001,
                    "velocity": 0.30708661417322836,
                    "duration": 0.16467225000002372
                },
                {
                    "name": "D5",
                    "midi": 74,
                    "time": 424.68973275000013,
                    "velocity": 0.36220472440944884,
                    "duration": 0.16467225000002372
                },
                {
                    "name": "D4",
                    "midi": 62,
                    "time": 424.85440500000016,
                    "velocity": 0.49606299212598426,
                    "duration": 0.16467225000002372
                },
                {
                    "name": "D5",
                    "midi": 74,
                    "time": 425.0190772500002,
                    "velocity": 0.3464566929133858,
                    "duration": 0.16467225000002372
                },
                {
                    "name": "F4",
                    "midi": 65,
                    "time": 425.1837495000002,
                    "velocity": 0.29133858267716534,
                    "duration": 0.16467225000002372
                },
                {
                    "name": "A#4",
                    "midi": 70,
                    "time": 425.1837495000002,
                    "velocity": 0.3464566929133858,
                    "duration": 0.16467225000002372
                },
                {
                    "name": "D5",
                    "midi": 74,
                    "time": 425.3484217500002,
                    "velocity": 0.3464566929133858,
                    "duration": 0.16467225000002372
                },
                {
                    "name": "D#4",
                    "midi": 63,
                    "time": 425.51309400000025,
                    "velocity": 0.49606299212598426,
                    "duration": 0.16467225000002372
                },
                {
                    "name": "D#5",
                    "midi": 75,
                    "time": 425.6777662500003,
                    "velocity": 0.3464566929133858,
                    "duration": 0.16467225000002372
                },
                {
                    "name": "A#4",
                    "midi": 70,
                    "time": 425.8424385000003,
                    "velocity": 0.3464566929133858,
                    "duration": 0.16467225000002372
                },
                {
                    "name": "F#4",
                    "midi": 66,
                    "time": 425.8424385000003,
                    "velocity": 0.29133858267716534,
                    "duration": 0.16467225000002372
                },
                {
                    "name": "D#5",
                    "midi": 75,
                    "time": 426.0071107500003,
                    "velocity": 0.3464566929133858,
                    "duration": 0.16467225000002372
                },
                {
                    "name": "A#4",
                    "midi": 70,
                    "time": 426.17178300000035,
                    "velocity": 0.5511811023622047,
                    "duration": 0.16467225000002372
                },
                {
                    "name": "A#5",
                    "midi": 82,
                    "time": 426.33645525000037,
                    "velocity": 0.4015748031496063,
                    "duration": 0.16467225000002372
                },
                {
                    "name": "D#5",
                    "midi": 75,
                    "time": 426.5011275000004,
                    "velocity": 0.4015748031496063,
                    "duration": 0.16467225000002372
                },
                {
                    "name": "F#5",
                    "midi": 78,
                    "time": 426.5011275000004,
                    "velocity": 0.4015748031496063,
                    "duration": 0.16467225000002372
                },
                {
                    "name": "A#5",
                    "midi": 82,
                    "time": 426.6657997500004,
                    "velocity": 0.4015748031496063,
                    "duration": 0.16467225000002372
                },
                {
                    "name": "D#4",
                    "midi": 63,
                    "time": 426.83047200000044,
                    "velocity": 0.4881889763779528,
                    "duration": 0.16467225000002372
                },
                {
                    "name": "D#5",
                    "midi": 75,
                    "time": 426.99514425000046,
                    "velocity": 0.36220472440944884,
                    "duration": 0.16467225000002372
                },
                {
                    "name": "F#4",
                    "midi": 66,
                    "time": 427.1598165000005,
                    "velocity": 0.30708661417322836,
                    "duration": 0.16467225000002372
                },
                {
                    "name": "A#4",
                    "midi": 70,
                    "time": 427.1598165000005,
                    "velocity": 0.36220472440944884,
                    "duration": 0.16467225000002372
                },
                {
                    "name": "D#5",
                    "midi": 75,
                    "time": 427.3244887500005,
                    "velocity": 0.36220472440944884,
                    "duration": 0.16467225000002372
                },
                {
                    "name": "D#4",
                    "midi": 63,
                    "time": 427.48916100000054,
                    "velocity": 0.49606299212598426,
                    "duration": 0.16467225000002372
                },
                {
                    "name": "D#5",
                    "midi": 75,
                    "time": 427.65383325000056,
                    "velocity": 0.3464566929133858,
                    "duration": 0.16467225000002372
                },
                {
                    "name": "C#5",
                    "midi": 73,
                    "time": 427.8185055000006,
                    "velocity": 0.3464566929133858,
                    "duration": 0.16467225000002372
                },
                {
                    "name": "G4",
                    "midi": 67,
                    "time": 427.8185055000006,
                    "velocity": 0.29133858267716534,
                    "duration": 0.16467225000002372
                },
                {
                    "name": "D#5",
                    "midi": 75,
                    "time": 427.9831777500006,
                    "velocity": 0.3464566929133858,
                    "duration": 0.16467225000002372
                },
                {
                    "name": "D#4",
                    "midi": 63,
                    "time": 428.14785000000063,
                    "velocity": 0.5196850393700787,
                    "duration": 0.16467225000002372
                },
                {
                    "name": "D#5",
                    "midi": 75,
                    "time": 428.31252225000065,
                    "velocity": 0.3858267716535433,
                    "duration": 0.16467225000002372
                },
                {
                    "name": "C5",
                    "midi": 72,
                    "time": 428.4771945000007,
                    "velocity": 0.3858267716535433,
                    "duration": 0.16467225000002372
                },
                {
                    "name": "G#4",
                    "midi": 68,
                    "time": 428.4771945000007,
                    "velocity": 0.3858267716535433,
                    "duration": 0.16467225000002372
                },
                {
                    "name": "D#5",
                    "midi": 75,
                    "time": 428.6418667500007,
                    "velocity": 0.4015748031496063,
                    "duration": 0.16467225000002372
                },
                {
                    "name": "C5",
                    "midi": 72,
                    "time": 428.8065390000007,
                    "velocity": 0.5039370078740157,
                    "duration": 0.16467225000002372
                },
                {
                    "name": "C6",
                    "midi": 84,
                    "time": 428.97121125000075,
                    "velocity": 0.3858267716535433,
                    "duration": 0.16467225000002372
                },
                {
                    "name": "G#5",
                    "midi": 80,
                    "time": 429.1358835000008,
                    "velocity": 0.3937007874015748,
                    "duration": 0.16467225000002372
                },
                {
                    "name": "D#5",
                    "midi": 75,
                    "time": 429.1358835000008,
                    "velocity": 0.3937007874015748,
                    "duration": 0.16467225000002372
                },
                {
                    "name": "C6",
                    "midi": 84,
                    "time": 429.3005557500008,
                    "velocity": 0.3937007874015748,
                    "duration": 0.16467225000002372
                },
                {
                    "name": "C#5",
                    "midi": 73,
                    "time": 429.7122363750008,
                    "velocity": 0.4015748031496063,
                    "duration": 0.6586889999999812
                },
                {
                    "name": "C#6",
                    "midi": 85,
                    "time": 429.7945725000008,
                    "velocity": 0.5118110236220472,
                    "duration": 0.5763528749999978
                },
                {
                    "name": "C#5",
                    "midi": 73,
                    "time": 430.3709253750008,
                    "velocity": 0.4251968503937008,
                    "duration": 0.7410251249999646
                },
                {
                    "name": "C#6",
                    "midi": 85,
                    "time": 430.4532615000008,
                    "velocity": 0.5275590551181102,
                    "duration": 0.6586889999999812
                },
                {
                    "name": "A#5",
                    "midi": 82,
                    "time": 431.1119505000008,
                    "velocity": 0.3779527559055118,
                    "duration": 0.3293444999999906
                },
                {
                    "name": "A#4",
                    "midi": 70,
                    "time": 431.1119505000008,
                    "velocity": 0.3779527559055118,
                    "duration": 0.3293444999999906
                },
                {
                    "name": "F#5",
                    "midi": 78,
                    "time": 431.44129500000076,
                    "velocity": 0.4015748031496063,
                    "duration": 0.3293444999999906
                },
                {
                    "name": "F#4",
                    "midi": 66,
                    "time": 431.44129500000076,
                    "velocity": 0.4015748031496063,
                    "duration": 0.3293444999999906
                },
                {
                    "name": "A#5",
                    "midi": 82,
                    "time": 431.77063950000075,
                    "velocity": 0.3700787401574803,
                    "duration": 0.3293444999999906
                },
                {
                    "name": "A#4",
                    "midi": 70,
                    "time": 431.77063950000075,
                    "velocity": 0.3700787401574803,
                    "duration": 0.3293444999999906
                },
                {
                    "name": "C#5",
                    "midi": 73,
                    "time": 432.09998400000075,
                    "velocity": 0.30708661417322836,
                    "duration": 0.3293444999999906
                },
                {
                    "name": "C#4",
                    "midi": 61,
                    "time": 432.09998400000075,
                    "velocity": 0.30708661417322836,
                    "duration": 0.3293444999999906
                },
                {
                    "name": "G#5",
                    "midi": 80,
                    "time": 432.42932850000074,
                    "velocity": 0.3464566929133858,
                    "duration": 0.3293444999999906
                },
                {
                    "name": "G#4",
                    "midi": 68,
                    "time": 432.42932850000074,
                    "velocity": 0.29133858267716534,
                    "duration": 0.3293444999999906
                },
                {
                    "name": "F#5",
                    "midi": 78,
                    "time": 432.7586730000007,
                    "velocity": 0.31496062992125984,
                    "duration": 0.3293444999999906
                },
                {
                    "name": "F#4",
                    "midi": 66,
                    "time": 432.7586730000007,
                    "velocity": 0.2677165354330709,
                    "duration": 0.3293444999999906
                },
                {
                    "name": "D#5",
                    "midi": 75,
                    "time": 433.0880175000007,
                    "velocity": 0.31496062992125984,
                    "duration": 0.3293444999999906
                },
                {
                    "name": "D#4",
                    "midi": 63,
                    "time": 433.0880175000007,
                    "velocity": 0.2677165354330709,
                    "duration": 0.3293444999999906
                },
                {
                    "name": "C#5",
                    "midi": 73,
                    "time": 433.4173620000007,
                    "velocity": 0.3464566929133858,
                    "duration": 1.3173779999999624
                },
                {
                    "name": "C#4",
                    "midi": 61,
                    "time": 433.4173620000007,
                    "velocity": 0.29133858267716534,
                    "duration": 0.3293444999999906
                },
                {
                    "name": "G#4",
                    "midi": 68,
                    "time": 433.7467065000007,
                    "velocity": 0.2677165354330709,
                    "duration": 0.3293444999999906
                },
                {
                    "name": "B4",
                    "midi": 71,
                    "time": 433.7467065000007,
                    "velocity": 0.31496062992125984,
                    "duration": 0.3293444999999906
                },
                {
                    "name": "A#4",
                    "midi": 70,
                    "time": 434.0760510000007,
                    "velocity": 0.2677165354330709,
                    "duration": 0.3293444999999906
                },
                {
                    "name": "F#4",
                    "midi": 66,
                    "time": 434.0760510000007,
                    "velocity": 0.2204724409448819,
                    "duration": 0.3293444999999906
                },
                {
                    "name": "F4",
                    "midi": 65,
                    "time": 434.4053955000007,
                    "velocity": 0.2204724409448819,
                    "duration": 0.3293444999999906
                },
                {
                    "name": "G#4",
                    "midi": 68,
                    "time": 434.4053955000007,
                    "velocity": 0.2677165354330709,
                    "duration": 0.3293444999999906
                },
                {
                    "name": "C#4",
                    "midi": 61,
                    "time": 434.73474000000067,
                    "velocity": 0.31496062992125984,
                    "duration": 0.16467225000002372
                },
                {
                    "name": "C#5",
                    "midi": 73,
                    "time": 434.8994122500007,
                    "velocity": 0.23622047244094488,
                    "duration": 0.16467225000002372
                },
                {
                    "name": "F#4",
                    "midi": 66,
                    "time": 435.0640845000007,
                    "velocity": 0.1968503937007874,
                    "duration": 0.16467225000002372
                },
                {
                    "name": "A#4",
                    "midi": 70,
                    "time": 435.0640845000007,
                    "velocity": 0.23622047244094488,
                    "duration": 0.16467225000002372
                },
                {
                    "name": "C#5",
                    "midi": 73,
                    "time": 435.22875675000074,
                    "velocity": 0.23622047244094488,
                    "duration": 0.16467225000002372
                },
                {
                    "name": "C#4",
                    "midi": 61,
                    "time": 435.39342900000076,
                    "velocity": 0.2992125984251969,
                    "duration": 0.16467225000002372
                },
                {
                    "name": "C#5",
                    "midi": 73,
                    "time": 435.5581012500008,
                    "velocity": 0.2204724409448819,
                    "duration": 0.16467225000002372
                },
                {
                    "name": "A#4",
                    "midi": 70,
                    "time": 435.7227735000008,
                    "velocity": 0.2204724409448819,
                    "duration": 0.16467225000002372
                },
                {
                    "name": "F#4",
                    "midi": 66,
                    "time": 435.7227735000008,
                    "velocity": 0.1889763779527559,
                    "duration": 0.16467225000002372
                },
                {
                    "name": "C#5",
                    "midi": 73,
                    "time": 435.88744575000084,
                    "velocity": 0.2204724409448819,
                    "duration": 0.16467225000002372
                },
                {
                    "name": "E4",
                    "midi": 64,
                    "time": 436.05211800000086,
                    "velocity": 0.36220472440944884,
                    "duration": 0.16467225000002372
                },
                {
                    "name": "E5",
                    "midi": 76,
                    "time": 436.2167902500009,
                    "velocity": 0.2677165354330709,
                    "duration": 0.16467225000002372
                },
                {
                    "name": "C#5",
                    "midi": 73,
                    "time": 436.3814625000009,
                    "velocity": 0.2677165354330709,
                    "duration": 0.16467225000002372
                },
                {
                    "name": "F#4",
                    "midi": 66,
                    "time": 436.3814625000009,
                    "velocity": 0.2677165354330709,
                    "duration": 0.16467225000002372
                },
                {
                    "name": "E5",
                    "midi": 76,
                    "time": 436.54613475000093,
                    "velocity": 0.2677165354330709,
                    "duration": 0.16467225000002372
                },
                {
                    "name": "E4",
                    "midi": 64,
                    "time": 436.71080700000095,
                    "velocity": 0.3779527559055118,
                    "duration": 0.16467225000002372
                },
                {
                    "name": "E5",
                    "midi": 76,
                    "time": 436.875479250001,
                    "velocity": 0.2992125984251969,
                    "duration": 0.16467225000002372
                },
                {
                    "name": "C#5",
                    "midi": 73,
                    "time": 437.040151500001,
                    "velocity": 0.30708661417322836,
                    "duration": 0.16467225000002372
                },
                {
                    "name": "F#4",
                    "midi": 66,
                    "time": 437.040151500001,
                    "velocity": 0.30708661417322836,
                    "duration": 0.16467225000002372
                },
                {
                    "name": "E5",
                    "midi": 76,
                    "time": 437.204823750001,
                    "velocity": 0.31496062992125984,
                    "duration": 0.16467225000002372
                },
                {
                    "name": "D#4",
                    "midi": 63,
                    "time": 437.36949600000105,
                    "velocity": 0.4251968503937008,
                    "duration": 0.16467225000002372
                },
                {
                    "name": "D#5",
                    "midi": 75,
                    "time": 437.5341682500011,
                    "velocity": 0.3543307086614173,
                    "duration": 0.16467225000002372
                },
                {
                    "name": "B4",
                    "midi": 71,
                    "time": 437.6988405000011,
                    "velocity": 0.3543307086614173,
                    "duration": 0.16467225000002372
                },
                {
                    "name": "F#4",
                    "midi": 66,
                    "time": 437.6988405000011,
                    "velocity": 0.3543307086614173,
                    "duration": 0.16467225000002372
                },
                {
                    "name": "D#5",
                    "midi": 75,
                    "time": 437.8635127500011,
                    "velocity": 0.3700787401574803,
                    "duration": 0.16467225000002372
                },
                {
                    "name": "D#4",
                    "midi": 63,
                    "time": 438.02818500000114,
                    "velocity": 0.4330708661417323,
                    "duration": 0.16467225000002372
                },
                {
                    "name": "D#5",
                    "midi": 75,
                    "time": 438.19285725000117,
                    "velocity": 0.3700787401574803,
                    "duration": 0.16467225000002372
                },
                {
                    "name": "F#4",
                    "midi": 66,
                    "time": 438.3575295000012,
                    "velocity": 0.3779527559055118,
                    "duration": 0.16467225000002372
                },
                {
                    "name": "B4",
                    "midi": 71,
                    "time": 438.3575295000012,
                    "velocity": 0.3779527559055118,
                    "duration": 0.16467225000002372
                },
                {
                    "name": "D#5",
                    "midi": 75,
                    "time": 438.5222017500012,
                    "velocity": 0.3779527559055118,
                    "duration": 0.16467225000002372
                },
                {
                    "name": "A4",
                    "midi": 69,
                    "time": 438.68687400000124,
                    "velocity": 0.4645669291338583,
                    "duration": 0.16467225000002372
                },
                {
                    "name": "A5",
                    "midi": 81,
                    "time": 438.85154625000126,
                    "velocity": 0.4094488188976378,
                    "duration": 0.16467225000002372
                },
                {
                    "name": "F#5",
                    "midi": 78,
                    "time": 439.0162185000013,
                    "velocity": 0.4094488188976378,
                    "duration": 0.16467225000002372
                },
                {
                    "name": "D#5",
                    "midi": 75,
                    "time": 439.0162185000013,
                    "velocity": 0.4094488188976378,
                    "duration": 0.16467225000002372
                },
                {
                    "name": "A5",
                    "midi": 81,
                    "time": 439.1808907500013,
                    "velocity": 0.4094488188976378,
                    "duration": 0.16467225000002372
                },
                {
                    "name": "A4",
                    "midi": 69,
                    "time": 439.34556300000133,
                    "velocity": 0.49606299212598426,
                    "duration": 0.16467225000002372
                },
                {
                    "name": "A5",
                    "midi": 81,
                    "time": 439.51023525000136,
                    "velocity": 0.4330708661417323,
                    "duration": 0.16467225000002372
                },
                {
                    "name": "F#5",
                    "midi": 78,
                    "time": 439.6749075000014,
                    "velocity": 0.4566929133858268,
                    "duration": 0.16467225000002372
                },
                {
                    "name": "D#5",
                    "midi": 75,
                    "time": 439.6749075000014,
                    "velocity": 0.4566929133858268,
                    "duration": 0.16467225000002372
                },
                {
                    "name": "A5",
                    "midi": 81,
                    "time": 439.8395797500014,
                    "velocity": 0.4645669291338583,
                    "duration": 0.16467225000002372
                },
                {
                    "name": "C6",
                    "midi": 84,
                    "time": 440.25126037500144,
                    "velocity": 0.4645669291338583,
                    "duration": 0.6586889999999812
                },
                {
                    "name": "C7",
                    "midi": 96,
                    "time": 440.3335965000014,
                    "velocity": 0.49606299212598426,
                    "duration": 0.5763528749999978
                },
                {
                    "name": "C6",
                    "midi": 84,
                    "time": 440.9099493750014,
                    "velocity": 0.44881889763779526,
                    "duration": 0.41168062499997404
                },
                {
                    "name": "C7",
                    "midi": 96,
                    "time": 440.9922855000014,
                    "velocity": 0.49606299212598426,
                    "duration": 0.3293444999999906
                },
                {
                    "name": "D#6",
                    "midi": 87,
                    "time": 441.3216300000014,
                    "velocity": 0.49606299212598426,
                    "duration": 0.3293444999999906
                },
                {
                    "name": "D#7",
                    "midi": 99,
                    "time": 441.3216300000014,
                    "velocity": 0.49606299212598426,
                    "duration": 0.3293444999999906
                },
                {
                    "name": "C#7",
                    "midi": 97,
                    "time": 441.6509745000014,
                    "velocity": 0.41732283464566927,
                    "duration": 0.3293444999999906
                },
                {
                    "name": "C#6",
                    "midi": 85,
                    "time": 441.6509745000014,
                    "velocity": 0.41732283464566927,
                    "duration": 0.3293444999999906
                },
                {
                    "name": "A#5",
                    "midi": 82,
                    "time": 441.9803190000014,
                    "velocity": 0.3937007874015748,
                    "duration": 0.3293444999999906
                },
                {
                    "name": "A#6",
                    "midi": 94,
                    "time": 441.9803190000014,
                    "velocity": 0.3937007874015748,
                    "duration": 0.3293444999999906
                },
                {
                    "name": "F#5",
                    "midi": 78,
                    "time": 442.30966350000136,
                    "velocity": 0.3700787401574803,
                    "duration": 0.3293444999999906
                },
                {
                    "name": "F#6",
                    "midi": 90,
                    "time": 442.30966350000136,
                    "velocity": 0.3700787401574803,
                    "duration": 0.3293444999999906
                },
                {
                    "name": "F6",
                    "midi": 89,
                    "time": 442.63900800000135,
                    "velocity": 0.30708661417322836,
                    "duration": 0.3293444999999906
                },
                {
                    "name": "F5",
                    "midi": 77,
                    "time": 442.63900800000135,
                    "velocity": 0.30708661417322836,
                    "duration": 0.3293444999999906
                },
                {
                    "name": "C#7",
                    "midi": 97,
                    "time": 442.96835250000134,
                    "velocity": 0.3464566929133858,
                    "duration": 0.3293444999999906
                },
                {
                    "name": "C#6",
                    "midi": 85,
                    "time": 442.96835250000134,
                    "velocity": 0.3464566929133858,
                    "duration": 0.3293444999999906
                },
                {
                    "name": "B5",
                    "midi": 83,
                    "time": 443.29769700000134,
                    "velocity": 0.31496062992125984,
                    "duration": 0.3293444999999906
                },
                {
                    "name": "B6",
                    "midi": 95,
                    "time": 443.29769700000134,
                    "velocity": 0.31496062992125984,
                    "duration": 0.3293444999999906
                },
                {
                    "name": "G#6",
                    "midi": 92,
                    "time": 443.6270415000013,
                    "velocity": 0.31496062992125984,
                    "duration": 0.3293444999999906
                },
                {
                    "name": "G#5",
                    "midi": 80,
                    "time": 443.6270415000013,
                    "velocity": 0.31496062992125984,
                    "duration": 0.3293444999999906
                },
                {
                    "name": "F#6",
                    "midi": 90,
                    "time": 443.9563860000013,
                    "velocity": 0.3700787401574803,
                    "duration": 0.9880334999999718
                },
                {
                    "name": "F#5",
                    "midi": 78,
                    "time": 443.9563860000013,
                    "velocity": 0.3700787401574803,
                    "duration": 0.9880334999999718
                },
                {
                    "name": "F#5",
                    "midi": 78,
                    "time": 444.9444195000013,
                    "velocity": 0.3464566929133858,
                    "duration": 0.3293444999999906
                },
                {
                    "name": "F#4",
                    "midi": 66,
                    "time": 444.9444195000013,
                    "velocity": 0.29133858267716534,
                    "duration": 0.3293444999999906
                },
                {
                    "name": "F5",
                    "midi": 77,
                    "time": 445.2737640000013,
                    "velocity": 0.2677165354330709,
                    "duration": 0.3293444999999906
                },
                {
                    "name": "F4",
                    "midi": 65,
                    "time": 445.2737640000013,
                    "velocity": 0.2204724409448819,
                    "duration": 0.3293444999999906
                },
                {
                    "name": "C#5",
                    "midi": 73,
                    "time": 445.60310850000127,
                    "velocity": 0.29133858267716534,
                    "duration": 0.3293444999999906
                },
                {
                    "name": "C#6",
                    "midi": 85,
                    "time": 445.60310850000127,
                    "velocity": 0.3464566929133858,
                    "duration": 0.3293444999999906
                },
                {
                    "name": "B4",
                    "midi": 71,
                    "time": 445.93245300000126,
                    "velocity": 0.2677165354330709,
                    "duration": 0.3293444999999906
                },
                {
                    "name": "B5",
                    "midi": 83,
                    "time": 445.93245300000126,
                    "velocity": 0.31496062992125984,
                    "duration": 0.3293444999999906
                },
                {
                    "name": "G#5",
                    "midi": 80,
                    "time": 446.26179750000125,
                    "velocity": 0.2755905511811024,
                    "duration": 0.3293444999999906
                },
                {
                    "name": "G#4",
                    "midi": 68,
                    "time": 446.26179750000125,
                    "velocity": 0.2283464566929134,
                    "duration": 0.3293444999999906
                },
                {
                    "name": "F#4",
                    "midi": 66,
                    "time": 446.59114200000124,
                    "velocity": 0.29133858267716534,
                    "duration": 0.9880334999999718
                },
                {
                    "name": "F#5",
                    "midi": 78,
                    "time": 446.59114200000124,
                    "velocity": 0.3464566929133858,
                    "duration": 0.9880334999999718
                },
                {
                    "name": "F#4",
                    "midi": 66,
                    "time": 447.5791755000012,
                    "velocity": 0.3464566929133858,
                    "duration": 0.3293444999999906
                },
                {
                    "name": "F4",
                    "midi": 65,
                    "time": 447.9085200000012,
                    "velocity": 0.2677165354330709,
                    "duration": 0.3293444999999906
                },
                {
                    "name": "C#5",
                    "midi": 73,
                    "time": 448.2378645000012,
                    "velocity": 0.3464566929133858,
                    "duration": 0.3293444999999906
                },
                {
                    "name": "B4",
                    "midi": 71,
                    "time": 448.5672090000012,
                    "velocity": 0.31496062992125984,
                    "duration": 0.3293444999999906
                },
                {
                    "name": "G#4",
                    "midi": 68,
                    "time": 448.8965535000012,
                    "velocity": 0.2755905511811024,
                    "duration": 0.3293444999999906
                },
                {
                    "name": "F#4",
                    "midi": 66,
                    "time": 449.22589800000117,
                    "velocity": 0.3464566929133858,
                    "duration": 1.3173780000000193
                },
                {
                    "name": "F#4",
                    "midi": 66,
                    "time": 450.5432760000012,
                    "velocity": 0.36220472440944884,
                    "duration": 0.6586889999999812
                },
                {
                    "name": "F#4",
                    "midi": 66,
                    "time": 451.20196500000117,
                    "velocity": 0.36220472440944884,
                    "duration": 0.9880334999999718
                },
                {
                    "name": "F#4",
                    "midi": 66,
                    "time": 452.18999850000114,
                    "velocity": 0.4015748031496063,
                    "duration": 0.3293444999999906
                },
                {
                    "name": "F4",
                    "midi": 65,
                    "time": 452.51934300000113,
                    "velocity": 0.3464566929133858,
                    "duration": 0.3293444999999906
                },
                {
                    "name": "E4",
                    "midi": 64,
                    "time": 452.8486875000011,
                    "velocity": 0.3464566929133858,
                    "duration": 0.3293444999999906
                },
                {
                    "name": "F4",
                    "midi": 65,
                    "time": 453.1780320000011,
                    "velocity": 0.36220472440944884,
                    "duration": 1.9760670000000005
                },
                {
                    "name": "A#4",
                    "midi": 70,
                    "time": 455.1540990000011,
                    "velocity": 0.30708661417322836,
                    "duration": 0.6586889999999812
                },
                {
                    "name": "A4",
                    "midi": 69,
                    "time": 455.8127880000011,
                    "velocity": 0.33858267716535434,
                    "duration": 0.6586889999999812
                },
                {
                    "name": "F5",
                    "midi": 77,
                    "time": 456.4714770000011,
                    "velocity": 0.2992125984251969,
                    "duration": 0.6586889999999812
                },
                {
                    "name": "D#5",
                    "midi": 75,
                    "time": 457.13016600000105,
                    "velocity": 0.2992125984251969,
                    "duration": 0.6586889999999812
                },
                {
                    "name": "C5",
                    "midi": 72,
                    "time": 457.78885500000104,
                    "velocity": 0.2992125984251969,
                    "duration": 0.4940167500000143
                },
                {
                    "name": "F6",
                    "midi": 89,
                    "time": 458.28287175000105,
                    "velocity": 0.36220472440944884,
                    "duration": 0.16467225000002372
                },
                {
                    "name": "E6",
                    "midi": 88,
                    "time": 458.4475440000011,
                    "velocity": 0.4015748031496063,
                    "duration": 0.10978149999999687
                },
                {
                    "name": "G6",
                    "midi": 91,
                    "time": 458.55732550000107,
                    "velocity": 0.36220472440944884,
                    "duration": 0.10978149999999687
                },
                {
                    "name": "F6",
                    "midi": 89,
                    "time": 458.66710700000107,
                    "velocity": 0.36220472440944884,
                    "duration": 0.10978149999999687
                },
                {
                    "name": "D#6",
                    "midi": 87,
                    "time": 458.77688850000106,
                    "velocity": 0.3937007874015748,
                    "duration": 0.10978149999999687
                },
                {
                    "name": "D6",
                    "midi": 86,
                    "time": 458.88667000000106,
                    "velocity": 0.36220472440944884,
                    "duration": 0.10978149999999687
                },
                {
                    "name": "C6",
                    "midi": 84,
                    "time": 458.99645150000106,
                    "velocity": 0.36220472440944884,
                    "duration": 0.10978149999999687
                },
                {
                    "name": "A#5",
                    "midi": 82,
                    "time": 459.10623300000105,
                    "velocity": 0.3937007874015748,
                    "duration": 0.10978149999999687
                },
                {
                    "name": "A5",
                    "midi": 81,
                    "time": 459.21601450000105,
                    "velocity": 0.36220472440944884,
                    "duration": 0.10978149999999687
                },
                {
                    "name": "G5",
                    "midi": 79,
                    "time": 459.32579600000105,
                    "velocity": 0.36220472440944884,
                    "duration": 0.10978149999999687
                },
                {
                    "name": "F5",
                    "midi": 77,
                    "time": 459.43557750000105,
                    "velocity": 0.36220472440944884,
                    "duration": 0.10978149999999687
                },
                {
                    "name": "D#5",
                    "midi": 75,
                    "time": 459.54535900000104,
                    "velocity": 0.36220472440944884,
                    "duration": 0.10978149999999687
                },
                {
                    "name": "D5",
                    "midi": 74,
                    "time": 459.65514050000104,
                    "velocity": 0.36220472440944884,
                    "duration": 0.10978149999999687
                },
                {
                    "name": "C5",
                    "midi": 72,
                    "time": 459.76492200000104,
                    "velocity": 0.33858267716535434,
                    "duration": 0.6586889999999812
                },
                {
                    "name": "A#4",
                    "midi": 70,
                    "time": 460.423611000001,
                    "velocity": 0.2992125984251969,
                    "duration": 0.3293444999999906
                },
                {
                    "name": "A#4",
                    "midi": 70,
                    "time": 460.91762775000103,
                    "velocity": 0.36220472440944884,
                    "duration": 0.16467225000002372
                },
                {
                    "name": "A4",
                    "midi": 69,
                    "time": 461.08230000000106,
                    "velocity": 0.28346456692913385,
                    "duration": 0.10978149999999687
                },
                {
                    "name": "A#4",
                    "midi": 70,
                    "time": 461.19208150000105,
                    "velocity": 0.29133858267716534,
                    "duration": 0.10978149999999687
                },
                {
                    "name": "C5",
                    "midi": 72,
                    "time": 461.30186300000105,
                    "velocity": 0.2992125984251969,
                    "duration": 0.10978149999999687
                },
                {
                    "name": "D5",
                    "midi": 74,
                    "time": 461.41164450000105,
                    "velocity": 0.31496062992125984,
                    "duration": 0.10978149999999687
                },
                {
                    "name": "D#5",
                    "midi": 75,
                    "time": 461.52142600000104,
                    "velocity": 0.3228346456692913,
                    "duration": 0.10978149999999687
                },
                {
                    "name": "F5",
                    "midi": 77,
                    "time": 461.63120750000104,
                    "velocity": 0.33070866141732286,
                    "duration": 0.10978149999999687
                },
                {
                    "name": "G5",
                    "midi": 79,
                    "time": 461.74098900000104,
                    "velocity": 0.3464566929133858,
                    "duration": 0.10978149999999687
                },
                {
                    "name": "A5",
                    "midi": 81,
                    "time": 461.85077050000103,
                    "velocity": 0.3543307086614173,
                    "duration": 0.10978149999999687
                },
                {
                    "name": "A#5",
                    "midi": 82,
                    "time": 461.96055200000103,
                    "velocity": 0.36220472440944884,
                    "duration": 0.10978149999999687
                },
                {
                    "name": "B5",
                    "midi": 83,
                    "time": 462.070333500001,
                    "velocity": 0.3779527559055118,
                    "duration": 0.10978149999999687
                },
                {
                    "name": "C6",
                    "midi": 84,
                    "time": 462.180115000001,
                    "velocity": 0.3858267716535433,
                    "duration": 0.10978149999999687
                },
                {
                    "name": "D6",
                    "midi": 86,
                    "time": 462.289896500001,
                    "velocity": 0.4015748031496063,
                    "duration": 0.10978149999999687
                },
                {
                    "name": "F6",
                    "midi": 89,
                    "time": 462.399678000001,
                    "velocity": 0.5118110236220472,
                    "duration": 0.6586889999999812
                },
                {
                    "name": "D#6",
                    "midi": 87,
                    "time": 463.058367000001,
                    "velocity": 0.48031496062992124,
                    "duration": 0.3293444999999906
                },
                {
                    "name": "D#6",
                    "midi": 87,
                    "time": 463.552383750001,
                    "velocity": 0.36220472440944884,
                    "duration": 0.16467225000002372
                },
                {
                    "name": "D6",
                    "midi": 86,
                    "time": 463.71705600000104,
                    "velocity": 0.4015748031496063,
                    "duration": 0.10978149999999687
                },
                {
                    "name": "D7",
                    "midi": 98,
                    "time": 463.82683750000103,
                    "velocity": 0.36220472440944884,
                    "duration": 0.10978149999999687
                },
                {
                    "name": "C7",
                    "midi": 96,
                    "time": 463.93661900000103,
                    "velocity": 0.36220472440944884,
                    "duration": 0.10978149999999687
                },
                {
                    "name": "A#6",
                    "midi": 94,
                    "time": 464.046400500001,
                    "velocity": 0.3937007874015748,
                    "duration": 0.10978149999999687
                },
                {
                    "name": "A6",
                    "midi": 93,
                    "time": 464.156182000001,
                    "velocity": 0.36220472440944884,
                    "duration": 0.10978149999999687
                },
                {
                    "name": "G6",
                    "midi": 91,
                    "time": 464.265963500001,
                    "velocity": 0.36220472440944884,
                    "duration": 0.10978149999999687
                },
                {
                    "name": "F6",
                    "midi": 89,
                    "time": 464.375745000001,
                    "velocity": 0.3937007874015748,
                    "duration": 0.10978149999999687
                },
                {
                    "name": "D#6",
                    "midi": 87,
                    "time": 464.485526500001,
                    "velocity": 0.36220472440944884,
                    "duration": 0.10978149999999687
                },
                {
                    "name": "D6",
                    "midi": 86,
                    "time": 464.595308000001,
                    "velocity": 0.36220472440944884,
                    "duration": 0.10978149999999687
                },
                {
                    "name": "C6",
                    "midi": 84,
                    "time": 464.705089500001,
                    "velocity": 0.36220472440944884,
                    "duration": 0.10978149999999687
                },
                {
                    "name": "A#5",
                    "midi": 82,
                    "time": 464.814871000001,
                    "velocity": 0.36220472440944884,
                    "duration": 0.10978149999999687
                },
                {
                    "name": "A5",
                    "midi": 81,
                    "time": 464.924652500001,
                    "velocity": 0.36220472440944884,
                    "duration": 0.10978149999999687
                },
                {
                    "name": "G5",
                    "midi": 79,
                    "time": 465.034434000001,
                    "velocity": 0.4015748031496063,
                    "duration": 0.10978149999999687
                },
                {
                    "name": "G6",
                    "midi": 91,
                    "time": 465.144215500001,
                    "velocity": 0.36220472440944884,
                    "duration": 0.10978149999999687
                },
                {
                    "name": "F6",
                    "midi": 89,
                    "time": 465.253997000001,
                    "velocity": 0.36220472440944884,
                    "duration": 0.10978149999999687
                },
                {
                    "name": "D#6",
                    "midi": 87,
                    "time": 465.363778500001,
                    "velocity": 0.3937007874015748,
                    "duration": 0.10978149999999687
                },
                {
                    "name": "D6",
                    "midi": 86,
                    "time": 465.473560000001,
                    "velocity": 0.36220472440944884,
                    "duration": 0.10978149999999687
                },
                {
                    "name": "C6",
                    "midi": 84,
                    "time": 465.583341500001,
                    "velocity": 0.36220472440944884,
                    "duration": 0.10978149999999687
                },
                {
                    "name": "A#5",
                    "midi": 82,
                    "time": 465.693123000001,
                    "velocity": 0.3937007874015748,
                    "duration": 0.10978149999999687
                },
                {
                    "name": "A5",
                    "midi": 81,
                    "time": 465.802904500001,
                    "velocity": 0.3858267716535433,
                    "duration": 0.10978149999999687
                },
                {
                    "name": "G5",
                    "midi": 79,
                    "time": 465.912686000001,
                    "velocity": 0.3937007874015748,
                    "duration": 0.10978149999999687
                },
                {
                    "name": "F5",
                    "midi": 77,
                    "time": 466.02246750000097,
                    "velocity": 0.4094488188976378,
                    "duration": 0.10978149999999687
                },
                {
                    "name": "D#5",
                    "midi": 75,
                    "time": 466.13224900000097,
                    "velocity": 0.41732283464566927,
                    "duration": 0.10978149999999687
                },
                {
                    "name": "D5",
                    "midi": 74,
                    "time": 466.24203050000096,
                    "velocity": 0.4251968503937008,
                    "duration": 0.10978149999999687
                },
                {
                    "name": "C5",
                    "midi": 72,
                    "time": 466.35181200000096,
                    "velocity": 0.4409448818897638,
                    "duration": 0.10978149999999687
                },
                {
                    "name": "E5",
                    "midi": 76,
                    "time": 466.46159350000096,
                    "velocity": 0.4409448818897638,
                    "duration": 0.10978149999999687
                },
                {
                    "name": "G5",
                    "midi": 79,
                    "time": 466.57137500000096,
                    "velocity": 0.4330708661417323,
                    "duration": 0.10978149999999687
                },
                {
                    "name": "A#5",
                    "midi": 82,
                    "time": 466.68115650000095,
                    "velocity": 0.4251968503937008,
                    "duration": 0.10978149999999687
                },
                {
                    "name": "G5",
                    "midi": 79,
                    "time": 466.79093800000095,
                    "velocity": 0.41732283464566927,
                    "duration": 0.10978149999999687
                },
                {
                    "name": "A#5",
                    "midi": 82,
                    "time": 466.90071950000095,
                    "velocity": 0.4094488188976378,
                    "duration": 0.10978149999999687
                },
                {
                    "name": "C6",
                    "midi": 84,
                    "time": 467.01050100000094,
                    "velocity": 0.4015748031496063,
                    "duration": 0.10978149999999687
                },
                {
                    "name": "E6",
                    "midi": 88,
                    "time": 467.12028250000094,
                    "velocity": 0.3937007874015748,
                    "duration": 0.10978149999999687
                },
                {
                    "name": "G6",
                    "midi": 91,
                    "time": 467.23006400000094,
                    "velocity": 0.3858267716535433,
                    "duration": 0.10978149999999687
                },
                {
                    "name": "A#6",
                    "midi": 94,
                    "time": 467.33984550000093,
                    "velocity": 0.3700787401574803,
                    "duration": 0.10978149999999687
                },
                {
                    "name": "G6",
                    "midi": 91,
                    "time": 467.44962700000093,
                    "velocity": 0.36220472440944884,
                    "duration": 0.10978149999999687
                },
                {
                    "name": "E6",
                    "midi": 88,
                    "time": 467.5594085000009,
                    "velocity": 0.3543307086614173,
                    "duration": 0.10978149999999687
                },
                {
                    "name": "F6",
                    "midi": 89,
                    "time": 467.6691900000009,
                    "velocity": 0.41732283464566927,
                    "duration": 0.3293444999999906
                },
                {
                    "name": "F6",
                    "midi": 89,
                    "time": 467.9985345000009,
                    "velocity": 0.3858267716535433,
                    "duration": 0.10978149999999687
                },
                {
                    "name": "G6",
                    "midi": 91,
                    "time": 468.1083160000009,
                    "velocity": 0.33858267716535434,
                    "duration": 0.10978149999999687
                },
                {
                    "name": "F6",
                    "midi": 89,
                    "time": 468.2180975000009,
                    "velocity": 0.33858267716535434,
                    "duration": 0.10978149999999687
                },
                {
                    "name": "E6",
                    "midi": 88,
                    "time": 468.3278790000009,
                    "velocity": 0.3779527559055118,
                    "duration": 0.10978149999999687
                },
                {
                    "name": "G6",
                    "midi": 91,
                    "time": 468.4376605000009,
                    "velocity": 0.33070866141732286,
                    "duration": 0.10978149999999687
                },
                {
                    "name": "F6",
                    "midi": 89,
                    "time": 468.5474420000009,
                    "velocity": 0.33070866141732286,
                    "duration": 0.10978149999999687
                },
                {
                    "name": "E6",
                    "midi": 88,
                    "time": 468.6572235000009,
                    "velocity": 0.33858267716535434,
                    "duration": 0.10978149999999687
                },
                {
                    "name": "G6",
                    "midi": 91,
                    "time": 468.7670050000009,
                    "velocity": 0.33070866141732286,
                    "duration": 0.10978149999999687
                },
                {
                    "name": "F6",
                    "midi": 89,
                    "time": 468.8767865000009,
                    "velocity": 0.31496062992125984,
                    "duration": 0.10978149999999687
                },
                {
                    "name": "E6",
                    "midi": 88,
                    "time": 468.9865680000009,
                    "velocity": 0.4015748031496063,
                    "duration": 0.10978149999999687
                },
                {
                    "name": "G6",
                    "midi": 91,
                    "time": 469.0963495000009,
                    "velocity": 0.36220472440944884,
                    "duration": 0.10978149999999687
                },
                {
                    "name": "F6",
                    "midi": 89,
                    "time": 469.2061310000009,
                    "velocity": 0.36220472440944884,
                    "duration": 0.10978149999999687
                },
                {
                    "name": "D#6",
                    "midi": 87,
                    "time": 469.3159125000009,
                    "velocity": 0.3937007874015748,
                    "duration": 0.10978149999999687
                },
                {
                    "name": "D6",
                    "midi": 86,
                    "time": 469.4256940000009,
                    "velocity": 0.36220472440944884,
                    "duration": 0.10978149999999687
                },
                {
                    "name": "C6",
                    "midi": 84,
                    "time": 469.53547550000087,
                    "velocity": 0.36220472440944884,
                    "duration": 0.10978149999999687
                },
                {
                    "name": "A#5",
                    "midi": 82,
                    "time": 469.64525700000087,
                    "velocity": 0.3937007874015748,
                    "duration": 0.10978149999999687
                },
                {
                    "name": "A5",
                    "midi": 81,
                    "time": 469.75503850000086,
                    "velocity": 0.36220472440944884,
                    "duration": 0.10978149999999687
                },
                {
                    "name": "G5",
                    "midi": 79,
                    "time": 469.86482000000086,
                    "velocity": 0.36220472440944884,
                    "duration": 0.10978149999999687
                },
                {
                    "name": "F5",
                    "midi": 77,
                    "time": 469.97460150000086,
                    "velocity": 0.36220472440944884,
                    "duration": 0.10978149999999687
                },
                {
                    "name": "D#5",
                    "midi": 75,
                    "time": 470.08438300000086,
                    "velocity": 0.36220472440944884,
                    "duration": 0.10978149999999687
                },
                {
                    "name": "D5",
                    "midi": 74,
                    "time": 470.19416450000085,
                    "velocity": 0.36220472440944884,
                    "duration": 0.10978149999999687
                },
                {
                    "name": "C5",
                    "midi": 72,
                    "time": 470.30394600000085,
                    "velocity": 0.33858267716535434,
                    "duration": 0.6586889999999812
                },
                {
                    "name": "A#4",
                    "midi": 70,
                    "time": 470.96263500000083,
                    "velocity": 0.2992125984251969,
                    "duration": 0.3293444999999906
                },
                {
                    "name": "A#4",
                    "midi": 70,
                    "time": 471.45665175000084,
                    "velocity": 0.36220472440944884,
                    "duration": 0.16467225000002372
                },
                {
                    "name": "A4",
                    "midi": 69,
                    "time": 471.62132400000087,
                    "velocity": 0.28346456692913385,
                    "duration": 0.10978149999999687
                },
                {
                    "name": "A#4",
                    "midi": 70,
                    "time": 471.73110550000087,
                    "velocity": 0.29133858267716534,
                    "duration": 0.10978149999999687
                },
                {
                    "name": "C5",
                    "midi": 72,
                    "time": 471.84088700000086,
                    "velocity": 0.2992125984251969,
                    "duration": 0.10978149999999687
                },
                {
                    "name": "D5",
                    "midi": 74,
                    "time": 471.95066850000086,
                    "velocity": 0.31496062992125984,
                    "duration": 0.10978149999999687
                },
                {
                    "name": "D#5",
                    "midi": 75,
                    "time": 472.06045000000086,
                    "velocity": 0.3228346456692913,
                    "duration": 0.10978149999999687
                },
                {
                    "name": "F5",
                    "midi": 77,
                    "time": 472.17023150000085,
                    "velocity": 0.33070866141732286,
                    "duration": 0.10978149999999687
                },
                {
                    "name": "G5",
                    "midi": 79,
                    "time": 472.28001300000085,
                    "velocity": 0.3464566929133858,
                    "duration": 0.10978149999999687
                },
                {
                    "name": "A5",
                    "midi": 81,
                    "time": 472.38979450000085,
                    "velocity": 0.3543307086614173,
                    "duration": 0.10978149999999687
                },
                {
                    "name": "A#5",
                    "midi": 82,
                    "time": 472.49957600000084,
                    "velocity": 0.36220472440944884,
                    "duration": 0.10978149999999687
                },
                {
                    "name": "B5",
                    "midi": 83,
                    "time": 472.60935750000084,
                    "velocity": 0.3779527559055118,
                    "duration": 0.10978149999999687
                },
                {
                    "name": "C6",
                    "midi": 84,
                    "time": 472.71913900000084,
                    "velocity": 0.3858267716535433,
                    "duration": 0.10978149999999687
                },
                {
                    "name": "D6",
                    "midi": 86,
                    "time": 472.82892050000083,
                    "velocity": 0.4015748031496063,
                    "duration": 0.10978149999999687
                },
                {
                    "name": "F6",
                    "midi": 89,
                    "time": 472.93870200000083,
                    "velocity": 0.5118110236220472,
                    "duration": 0.4940167500000143
                },
                {
                    "name": "E6",
                    "midi": 88,
                    "time": 473.43271875000084,
                    "velocity": 0.4645669291338583,
                    "duration": 0.16467225000002372
                },
                {
                    "name": "D#6",
                    "midi": 87,
                    "time": 473.59739100000087,
                    "velocity": 0.48031496062992124,
                    "duration": 0.3293444999999906
                },
                {
                    "name": "D#6",
                    "midi": 87,
                    "time": 474.0914077500009,
                    "velocity": 0.36220472440944884,
                    "duration": 0.16467225000002372
                },
                {
                    "name": "D6",
                    "midi": 86,
                    "time": 474.2560800000009,
                    "velocity": 0.4015748031496063,
                    "duration": 0.10978149999999687
                },
                {
                    "name": "D7",
                    "midi": 98,
                    "time": 474.3658615000009,
                    "velocity": 0.36220472440944884,
                    "duration": 0.10978149999999687
                },
                {
                    "name": "C7",
                    "midi": 96,
                    "time": 474.4756430000009,
                    "velocity": 0.36220472440944884,
                    "duration": 0.10978149999999687
                },
                {
                    "name": "A#6",
                    "midi": 94,
                    "time": 474.5854245000009,
                    "velocity": 0.3937007874015748,
                    "duration": 0.10978149999999687
                },
                {
                    "name": "A6",
                    "midi": 93,
                    "time": 474.6952060000009,
                    "velocity": 0.36220472440944884,
                    "duration": 0.10978149999999687
                },
                {
                    "name": "G6",
                    "midi": 91,
                    "time": 474.8049875000009,
                    "velocity": 0.36220472440944884,
                    "duration": 0.10978149999999687
                },
                {
                    "name": "F6",
                    "midi": 89,
                    "time": 474.9147690000009,
                    "velocity": 0.3937007874015748,
                    "duration": 0.10978149999999687
                },
                {
                    "name": "D#6",
                    "midi": 87,
                    "time": 475.0245505000009,
                    "velocity": 0.36220472440944884,
                    "duration": 0.10978149999999687
                },
                {
                    "name": "D6",
                    "midi": 86,
                    "time": 475.1343320000009,
                    "velocity": 0.3858267716535433,
                    "duration": 0.10978149999999687
                },
                {
                    "name": "C6",
                    "midi": 84,
                    "time": 475.2441135000009,
                    "velocity": 0.4094488188976378,
                    "duration": 0.10978149999999687
                },
                {
                    "name": "A#5",
                    "midi": 82,
                    "time": 475.3538950000009,
                    "velocity": 0.4251968503937008,
                    "duration": 0.10978149999999687
                },
                {
                    "name": "A5",
                    "midi": 81,
                    "time": 475.4636765000009,
                    "velocity": 0.44881889763779526,
                    "duration": 0.10978149999999687
                },
                {
                    "name": "G5",
                    "midi": 79,
                    "time": 475.57345800000087,
                    "velocity": 0.47244094488188976,
                    "duration": 0.10978149999999687
                },
                {
                    "name": "A#6",
                    "midi": 94,
                    "time": 475.68323950000087,
                    "velocity": 0.47244094488188976,
                    "duration": 0.10978149999999687
                },
                {
                    "name": "G6",
                    "midi": 91,
                    "time": 475.79302100000086,
                    "velocity": 0.4566929133858268,
                    "duration": 0.10978149999999687
                },
                {
                    "name": "E6",
                    "midi": 88,
                    "time": 475.90280250000086,
                    "velocity": 0.4409448818897638,
                    "duration": 0.10978149999999687
                },
                {
                    "name": "C#6",
                    "midi": 85,
                    "time": 476.01258400000086,
                    "velocity": 0.4251968503937008,
                    "duration": 0.10978149999999687
                },
                {
                    "name": "A#5",
                    "midi": 82,
                    "time": 476.12236550000085,
                    "velocity": 0.4094488188976378,
                    "duration": 0.10978149999999687
                },
                {
                    "name": "G5",
                    "midi": 79,
                    "time": 476.23214700000085,
                    "velocity": 0.4409448818897638,
                    "duration": 0.10978149999999687
                },
                {
                    "name": "E5",
                    "midi": 76,
                    "time": 476.34192850000085,
                    "velocity": 0.4015748031496063,
                    "duration": 0.10978149999999687
                },
                {
                    "name": "C#5",
                    "midi": 73,
                    "time": 476.45171000000084,
                    "velocity": 0.3937007874015748,
                    "duration": 0.10978149999999687
                },
                {
                    "name": "A#4",
                    "midi": 70,
                    "time": 476.56149150000084,
                    "velocity": 0.3858267716535433,
                    "duration": 0.10978149999999687
                },
                {
                    "name": "G4",
                    "midi": 67,
                    "time": 476.67127300000084,
                    "velocity": 0.3858267716535433,
                    "duration": 0.10978149999999687
                },
                {
                    "name": "E4",
                    "midi": 64,
                    "time": 476.78105450000083,
                    "velocity": 0.3779527559055118,
                    "duration": 0.10978149999999687
                },
                {
                    "name": "F4",
                    "midi": 65,
                    "time": 476.89083600000083,
                    "velocity": 0.3858267716535433,
                    "duration": 0.10978149999999687
                },
                {
                    "name": "E4",
                    "midi": 64,
                    "time": 477.0006175000008,
                    "velocity": 0.3543307086614173,
                    "duration": 0.10978149999999687
                },
                {
                    "name": "F4",
                    "midi": 65,
                    "time": 477.1103990000008,
                    "velocity": 0.3543307086614173,
                    "duration": 0.10978149999999687
                },
                {
                    "name": "G4",
                    "midi": 67,
                    "time": 477.2201805000008,
                    "velocity": 0.3464566929133858,
                    "duration": 0.10978149999999687
                },
                {
                    "name": "A4",
                    "midi": 69,
                    "time": 477.3299620000008,
                    "velocity": 0.3464566929133858,
                    "duration": 0.10978149999999687
                },
                {
                    "name": "A#4",
                    "midi": 70,
                    "time": 477.4397435000008,
                    "velocity": 0.3464566929133858,
                    "duration": 0.10978149999999687
                },
                {
                    "name": "C5",
                    "midi": 72,
                    "time": 477.5495250000008,
                    "velocity": 0.3464566929133858,
                    "duration": 0.10978149999999687
                },
                {
                    "name": "D5",
                    "midi": 74,
                    "time": 477.6593065000008,
                    "velocity": 0.33858267716535434,
                    "duration": 0.10978149999999687
                },
                {
                    "name": "D#5",
                    "midi": 75,
                    "time": 477.7690880000008,
                    "velocity": 0.3464566929133858,
                    "duration": 0.10978149999999687
                },
                {
                    "name": "F5",
                    "midi": 77,
                    "time": 477.8788695000008,
                    "velocity": 0.3543307086614173,
                    "duration": 0.10978149999999687
                },
                {
                    "name": "G5",
                    "midi": 79,
                    "time": 477.9886510000008,
                    "velocity": 0.36220472440944884,
                    "duration": 0.10978149999999687
                },
                {
                    "name": "A5",
                    "midi": 81,
                    "time": 478.0984325000008,
                    "velocity": 0.3700787401574803,
                    "duration": 0.10978149999999687
                },
                {
                    "name": "A#5",
                    "midi": 82,
                    "time": 478.2082140000008,
                    "velocity": 0.3779527559055118,
                    "duration": 0.10978149999999687
                },
                {
                    "name": "D6",
                    "midi": 86,
                    "time": 478.3179955000008,
                    "velocity": 0.3858267716535433,
                    "duration": 0.10978149999999687
                },
                {
                    "name": "F6",
                    "midi": 89,
                    "time": 478.4277770000008,
                    "velocity": 0.4015748031496063,
                    "duration": 0.10978149999999687
                },
                {
                    "name": "A#6",
                    "midi": 94,
                    "time": 478.5375585000008,
                    "velocity": 0.4094488188976378,
                    "duration": 0.10978149999999687
                },
                {
                    "name": "D7",
                    "midi": 98,
                    "time": 478.6473400000008,
                    "velocity": 0.4251968503937008,
                    "duration": 0.10978149999999687
                },
                {
                    "name": "C7",
                    "midi": 96,
                    "time": 478.7571215000008,
                    "velocity": 0.4251968503937008,
                    "duration": 0.10978149999999687
                },
                {
                    "name": "A#6",
                    "midi": 94,
                    "time": 478.8669030000008,
                    "velocity": 0.41732283464566927,
                    "duration": 0.10978149999999687
                },
                {
                    "name": "F6",
                    "midi": 89,
                    "time": 478.9766845000008,
                    "velocity": 0.4094488188976378,
                    "duration": 0.10978149999999687
                },
                {
                    "name": "D6",
                    "midi": 86,
                    "time": 479.08646600000077,
                    "velocity": 0.3937007874015748,
                    "duration": 0.10978149999999687
                },
                {
                    "name": "A#5",
                    "midi": 82,
                    "time": 479.19624750000077,
                    "velocity": 0.3779527559055118,
                    "duration": 0.10978149999999687
                },
                {
                    "name": "D6",
                    "midi": 86,
                    "time": 479.30602900000076,
                    "velocity": 0.3700787401574803,
                    "duration": 0.10978149999999687
                },
                {
                    "name": "F6",
                    "midi": 89,
                    "time": 479.41581050000076,
                    "velocity": 0.3543307086614173,
                    "duration": 0.10978149999999687
                },
                {
                    "name": "E6",
                    "midi": 88,
                    "time": 479.52559200000076,
                    "velocity": 0.4015748031496063,
                    "duration": 0.10978149999999687
                },
                {
                    "name": "G6",
                    "midi": 91,
                    "time": 479.63537350000075,
                    "velocity": 0.36220472440944884,
                    "duration": 0.10978149999999687
                },
                {
                    "name": "F6",
                    "midi": 89,
                    "time": 479.74515500000075,
                    "velocity": 0.36220472440944884,
                    "duration": 0.10978149999999687
                },
                {
                    "name": "D#6",
                    "midi": 87,
                    "time": 479.85493650000075,
                    "velocity": 0.3937007874015748,
                    "duration": 0.10978149999999687
                },
                {
                    "name": "D6",
                    "midi": 86,
                    "time": 479.96471800000074,
                    "velocity": 0.36220472440944884,
                    "duration": 0.10978149999999687
                },
                {
                    "name": "C6",
                    "midi": 84,
                    "time": 480.07449950000074,
                    "velocity": 0.36220472440944884,
                    "duration": 0.10978149999999687
                },
                {
                    "name": "A#5",
                    "midi": 82,
                    "time": 480.18428100000074,
                    "velocity": 0.3937007874015748,
                    "duration": 0.10978149999999687
                },
                {
                    "name": "A5",
                    "midi": 81,
                    "time": 480.29406250000073,
                    "velocity": 0.36220472440944884,
                    "duration": 0.10978149999999687
                },
                {
                    "name": "G5",
                    "midi": 79,
                    "time": 480.40384400000073,
                    "velocity": 0.36220472440944884,
                    "duration": 0.10978149999999687
                },
                {
                    "name": "F5",
                    "midi": 77,
                    "time": 480.5136255000007,
                    "velocity": 0.36220472440944884,
                    "duration": 0.10978149999999687
                },
                {
                    "name": "D#5",
                    "midi": 75,
                    "time": 480.6234070000007,
                    "velocity": 0.36220472440944884,
                    "duration": 0.10978149999999687
                },
                {
                    "name": "D5",
                    "midi": 74,
                    "time": 480.7331885000007,
                    "velocity": 0.36220472440944884,
                    "duration": 0.10978149999999687
                },
                {
                    "name": "C5",
                    "midi": 72,
                    "time": 480.8429700000007,
                    "velocity": 0.33858267716535434,
                    "duration": 0.6586889999999812
                },
                {
                    "name": "A#4",
                    "midi": 70,
                    "time": 481.5016590000007,
                    "velocity": 0.2992125984251969,
                    "duration": 0.3293444999999906
                },
                {
                    "name": "A#4",
                    "midi": 70,
                    "time": 481.9956757500007,
                    "velocity": 0.36220472440944884,
                    "duration": 0.16467225000002372
                },
                {
                    "name": "A4",
                    "midi": 69,
                    "time": 482.16034800000074,
                    "velocity": 0.28346456692913385,
                    "duration": 0.10978149999999687
                },
                {
                    "name": "A#4",
                    "midi": 70,
                    "time": 482.27012950000073,
                    "velocity": 0.29133858267716534,
                    "duration": 0.10978149999999687
                },
                {
                    "name": "C5",
                    "midi": 72,
                    "time": 482.37991100000073,
                    "velocity": 0.2992125984251969,
                    "duration": 0.10978149999999687
                },
                {
                    "name": "D5",
                    "midi": 74,
                    "time": 482.48969250000073,
                    "velocity": 0.31496062992125984,
                    "duration": 0.10978149999999687
                },
                {
                    "name": "D#5",
                    "midi": 75,
                    "time": 482.5994740000007,
                    "velocity": 0.3228346456692913,
                    "duration": 0.10978149999999687
                },
                {
                    "name": "F5",
                    "midi": 77,
                    "time": 482.7092555000007,
                    "velocity": 0.33070866141732286,
                    "duration": 0.10978149999999687
                },
                {
                    "name": "G5",
                    "midi": 79,
                    "time": 482.8190370000007,
                    "velocity": 0.3464566929133858,
                    "duration": 0.10978149999999687
                },
                {
                    "name": "A5",
                    "midi": 81,
                    "time": 482.9288185000007,
                    "velocity": 0.3543307086614173,
                    "duration": 0.10978149999999687
                },
                {
                    "name": "A#5",
                    "midi": 82,
                    "time": 483.0386000000007,
                    "velocity": 0.36220472440944884,
                    "duration": 0.10978149999999687
                },
                {
                    "name": "B5",
                    "midi": 83,
                    "time": 483.1483815000007,
                    "velocity": 0.3779527559055118,
                    "duration": 0.10978149999999687
                },
                {
                    "name": "C6",
                    "midi": 84,
                    "time": 483.2581630000007,
                    "velocity": 0.3858267716535433,
                    "duration": 0.10978149999999687
                },
                {
                    "name": "D6",
                    "midi": 86,
                    "time": 483.3679445000007,
                    "velocity": 0.4015748031496063,
                    "duration": 0.10978149999999687
                },
                {
                    "name": "F6",
                    "midi": 89,
                    "time": 483.4777260000007,
                    "velocity": 0.5118110236220472,
                    "duration": 0.6586889999999812
                },
                {
                    "name": "D#6",
                    "midi": 87,
                    "time": 484.1364150000007,
                    "velocity": 0.48031496062992124,
                    "duration": 0.3293444999999906
                },
                {
                    "name": "D#6",
                    "midi": 87,
                    "time": 484.6304317500007,
                    "velocity": 0.36220472440944884,
                    "duration": 0.16467225000002372
                },
                {
                    "name": "D6",
                    "midi": 86,
                    "time": 484.7951040000007,
                    "velocity": 0.4015748031496063,
                    "duration": 0.10978149999999687
                },
                {
                    "name": "D7",
                    "midi": 98,
                    "time": 484.9048855000007,
                    "velocity": 0.36220472440944884,
                    "duration": 0.10978149999999687
                },
                {
                    "name": "C7",
                    "midi": 96,
                    "time": 485.0146670000007,
                    "velocity": 0.36220472440944884,
                    "duration": 0.10978149999999687
                },
                {
                    "name": "A#6",
                    "midi": 94,
                    "time": 485.1244485000007,
                    "velocity": 0.3937007874015748,
                    "duration": 0.10978149999999687
                },
                {
                    "name": "A6",
                    "midi": 93,
                    "time": 485.2342300000007,
                    "velocity": 0.36220472440944884,
                    "duration": 0.10978149999999687
                },
                {
                    "name": "G6",
                    "midi": 91,
                    "time": 485.3440115000007,
                    "velocity": 0.36220472440944884,
                    "duration": 0.10978149999999687
                },
                {
                    "name": "F6",
                    "midi": 89,
                    "time": 485.4537930000007,
                    "velocity": 0.3937007874015748,
                    "duration": 0.10978149999999687
                },
                {
                    "name": "D#6",
                    "midi": 87,
                    "time": 485.5635745000007,
                    "velocity": 0.36220472440944884,
                    "duration": 0.10978149999999687
                },
                {
                    "name": "D6",
                    "midi": 86,
                    "time": 485.6733560000007,
                    "velocity": 0.36220472440944884,
                    "duration": 0.10978149999999687
                },
                {
                    "name": "C6",
                    "midi": 84,
                    "time": 485.7831375000007,
                    "velocity": 0.36220472440944884,
                    "duration": 0.10978149999999687
                },
                {
                    "name": "A#5",
                    "midi": 82,
                    "time": 485.8929190000007,
                    "velocity": 0.36220472440944884,
                    "duration": 0.10978149999999687
                },
                {
                    "name": "A5",
                    "midi": 81,
                    "time": 486.0027005000007,
                    "velocity": 0.36220472440944884,
                    "duration": 0.10978149999999687
                },
                {
                    "name": "G5",
                    "midi": 79,
                    "time": 486.1124820000007,
                    "velocity": 0.4015748031496063,
                    "duration": 0.10978149999999687
                },
                {
                    "name": "G6",
                    "midi": 91,
                    "time": 486.2222635000007,
                    "velocity": 0.36220472440944884,
                    "duration": 0.10978149999999687
                },
                {
                    "name": "F6",
                    "midi": 89,
                    "time": 486.3320450000007,
                    "velocity": 0.36220472440944884,
                    "duration": 0.10978149999999687
                },
                {
                    "name": "D#6",
                    "midi": 87,
                    "time": 486.4418265000007,
                    "velocity": 0.3937007874015748,
                    "duration": 0.10978149999999687
                },
                {
                    "name": "D6",
                    "midi": 86,
                    "time": 486.55160800000067,
                    "velocity": 0.36220472440944884,
                    "duration": 0.10978149999999687
                },
                {
                    "name": "C6",
                    "midi": 84,
                    "time": 486.66138950000067,
                    "velocity": 0.36220472440944884,
                    "duration": 0.10978149999999687
                },
                {
                    "name": "A#5",
                    "midi": 82,
                    "time": 486.77117100000066,
                    "velocity": 0.3937007874015748,
                    "duration": 0.10978149999999687
                },
                {
                    "name": "A5",
                    "midi": 81,
                    "time": 486.88095250000066,
                    "velocity": 0.3858267716535433,
                    "duration": 0.10978149999999687
                },
                {
                    "name": "G5",
                    "midi": 79,
                    "time": 486.99073400000066,
                    "velocity": 0.3937007874015748,
                    "duration": 0.10978149999999687
                },
                {
                    "name": "F5",
                    "midi": 77,
                    "time": 487.10051550000065,
                    "velocity": 0.4094488188976378,
                    "duration": 0.10978149999999687
                },
                {
                    "name": "D#5",
                    "midi": 75,
                    "time": 487.21029700000065,
                    "velocity": 0.41732283464566927,
                    "duration": 0.10978149999999687
                },
                {
                    "name": "D5",
                    "midi": 74,
                    "time": 487.32007850000065,
                    "velocity": 0.4251968503937008,
                    "duration": 0.10978149999999687
                },
                {
                    "name": "C5",
                    "midi": 72,
                    "time": 487.42986000000064,
                    "velocity": 0.4409448818897638,
                    "duration": 0.10978149999999687
                },
                {
                    "name": "E5",
                    "midi": 76,
                    "time": 487.53964150000064,
                    "velocity": 0.4409448818897638,
                    "duration": 0.10978149999999687
                },
                {
                    "name": "G5",
                    "midi": 79,
                    "time": 487.64942300000064,
                    "velocity": 0.4330708661417323,
                    "duration": 0.10978149999999687
                },
                {
                    "name": "A#5",
                    "midi": 82,
                    "time": 487.75920450000064,
                    "velocity": 0.4251968503937008,
                    "duration": 0.10978149999999687
                },
                {
                    "name": "G5",
                    "midi": 79,
                    "time": 487.86898600000063,
                    "velocity": 0.41732283464566927,
                    "duration": 0.10978149999999687
                },
                {
                    "name": "A#5",
                    "midi": 82,
                    "time": 487.97876750000063,
                    "velocity": 0.4094488188976378,
                    "duration": 0.10978149999999687
                },
                {
                    "name": "C6",
                    "midi": 84,
                    "time": 488.0885490000006,
                    "velocity": 0.4015748031496063,
                    "duration": 0.10978149999999687
                },
                {
                    "name": "E6",
                    "midi": 88,
                    "time": 488.1983305000006,
                    "velocity": 0.3937007874015748,
                    "duration": 0.10978149999999687
                },
                {
                    "name": "G6",
                    "midi": 91,
                    "time": 488.3081120000006,
                    "velocity": 0.3858267716535433,
                    "duration": 0.10978149999999687
                },
                {
                    "name": "A#6",
                    "midi": 94,
                    "time": 488.4178935000006,
                    "velocity": 0.3700787401574803,
                    "duration": 0.10978149999999687
                },
                {
                    "name": "G6",
                    "midi": 91,
                    "time": 488.5276750000006,
                    "velocity": 0.36220472440944884,
                    "duration": 0.10978149999999687
                },
                {
                    "name": "E6",
                    "midi": 88,
                    "time": 488.6374565000006,
                    "velocity": 0.3543307086614173,
                    "duration": 0.10978149999999687
                },
                {
                    "name": "F6",
                    "midi": 89,
                    "time": 488.7472380000006,
                    "velocity": 0.41732283464566927,
                    "duration": 0.3293444999999906
                },
                {
                    "name": "F6",
                    "midi": 89,
                    "time": 489.0765825000006,
                    "velocity": 0.3858267716535433,
                    "duration": 0.10978149999999687
                },
                {
                    "name": "G6",
                    "midi": 91,
                    "time": 489.1863640000006,
                    "velocity": 0.33858267716535434,
                    "duration": 0.10978149999999687
                },
                {
                    "name": "F6",
                    "midi": 89,
                    "time": 489.2961455000006,
                    "velocity": 0.33858267716535434,
                    "duration": 0.10978149999999687
                },
                {
                    "name": "E6",
                    "midi": 88,
                    "time": 489.4059270000006,
                    "velocity": 0.3779527559055118,
                    "duration": 0.10978149999999687
                },
                {
                    "name": "G6",
                    "midi": 91,
                    "time": 489.5157085000006,
                    "velocity": 0.33070866141732286,
                    "duration": 0.10978149999999687
                },
                {
                    "name": "F6",
                    "midi": 89,
                    "time": 489.6254900000006,
                    "velocity": 0.33070866141732286,
                    "duration": 0.10978149999999687
                },
                {
                    "name": "E6",
                    "midi": 88,
                    "time": 489.7352715000006,
                    "velocity": 0.33070866141732286,
                    "duration": 0.10978149999999687
                },
                {
                    "name": "G6",
                    "midi": 91,
                    "time": 489.8450530000006,
                    "velocity": 0.30708661417322836,
                    "duration": 0.10978149999999687
                },
                {
                    "name": "F6",
                    "midi": 89,
                    "time": 489.9548345000006,
                    "velocity": 0.28346456692913385,
                    "duration": 0.10978149999999687
                },
                {
                    "name": "E6",
                    "midi": 88,
                    "time": 490.06461600000057,
                    "velocity": 0.4015748031496063,
                    "duration": 0.10978149999999687
                },
                {
                    "name": "G6",
                    "midi": 91,
                    "time": 490.17439750000057,
                    "velocity": 0.36220472440944884,
                    "duration": 0.10978149999999687
                },
                {
                    "name": "F6",
                    "midi": 89,
                    "time": 490.28417900000056,
                    "velocity": 0.36220472440944884,
                    "duration": 0.10978149999999687
                },
                {
                    "name": "D#6",
                    "midi": 87,
                    "time": 490.39396050000056,
                    "velocity": 0.3937007874015748,
                    "duration": 0.10978149999999687
                },
                {
                    "name": "D6",
                    "midi": 86,
                    "time": 490.50374200000056,
                    "velocity": 0.36220472440944884,
                    "duration": 0.10978149999999687
                },
                {
                    "name": "C6",
                    "midi": 84,
                    "time": 490.61352350000055,
                    "velocity": 0.36220472440944884,
                    "duration": 0.10978149999999687
                },
                {
                    "name": "A#5",
                    "midi": 82,
                    "time": 490.72330500000055,
                    "velocity": 0.3937007874015748,
                    "duration": 0.10978149999999687
                },
                {
                    "name": "A5",
                    "midi": 81,
                    "time": 490.83308650000055,
                    "velocity": 0.36220472440944884,
                    "duration": 0.10978149999999687
                },
                {
                    "name": "G5",
                    "midi": 79,
                    "time": 490.94286800000054,
                    "velocity": 0.36220472440944884,
                    "duration": 0.10978149999999687
                },
                {
                    "name": "F5",
                    "midi": 77,
                    "time": 491.05264950000054,
                    "velocity": 0.36220472440944884,
                    "duration": 0.10978149999999687
                },
                {
                    "name": "D#5",
                    "midi": 75,
                    "time": 491.16243100000054,
                    "velocity": 0.36220472440944884,
                    "duration": 0.10978149999999687
                },
                {
                    "name": "D5",
                    "midi": 74,
                    "time": 491.27221250000053,
                    "velocity": 0.36220472440944884,
                    "duration": 0.10978149999999687
                },
                {
                    "name": "C5",
                    "midi": 72,
                    "time": 491.38199400000053,
                    "velocity": 0.33858267716535434,
                    "duration": 0.6586889999999812
                },
                {
                    "name": "A#4",
                    "midi": 70,
                    "time": 492.0406830000005,
                    "velocity": 0.2992125984251969,
                    "duration": 0.3293444999999906
                },
                {
                    "name": "A#4",
                    "midi": 70,
                    "time": 492.5346997500005,
                    "velocity": 0.36220472440944884,
                    "duration": 0.16467225000002372
                },
                {
                    "name": "A4",
                    "midi": 69,
                    "time": 492.69937200000055,
                    "velocity": 0.28346456692913385,
                    "duration": 0.10978149999999687
                },
                {
                    "name": "A#4",
                    "midi": 70,
                    "time": 492.80915350000055,
                    "velocity": 0.29133858267716534,
                    "duration": 0.10978149999999687
                },
                {
                    "name": "C5",
                    "midi": 72,
                    "time": 492.91893500000054,
                    "velocity": 0.2992125984251969,
                    "duration": 0.10978149999999687
                },
                {
                    "name": "D5",
                    "midi": 74,
                    "time": 493.02871650000054,
                    "velocity": 0.31496062992125984,
                    "duration": 0.10978149999999687
                },
                {
                    "name": "D#5",
                    "midi": 75,
                    "time": 493.13849800000054,
                    "velocity": 0.3228346456692913,
                    "duration": 0.10978149999999687
                },
                {
                    "name": "F5",
                    "midi": 77,
                    "time": 493.24827950000054,
                    "velocity": 0.33070866141732286,
                    "duration": 0.10978149999999687
                },
                {
                    "name": "G5",
                    "midi": 79,
                    "time": 493.35806100000053,
                    "velocity": 0.3464566929133858,
                    "duration": 0.10978149999999687
                },
                {
                    "name": "A5",
                    "midi": 81,
                    "time": 493.46784250000053,
                    "velocity": 0.3543307086614173,
                    "duration": 0.10978149999999687
                },
                {
                    "name": "A#5",
                    "midi": 82,
                    "time": 493.5776240000005,
                    "velocity": 0.36220472440944884,
                    "duration": 0.10978149999999687
                },
                {
                    "name": "B5",
                    "midi": 83,
                    "time": 493.6874055000005,
                    "velocity": 0.3779527559055118,
                    "duration": 0.10978149999999687
                },
                {
                    "name": "C6",
                    "midi": 84,
                    "time": 493.7971870000005,
                    "velocity": 0.3858267716535433,
                    "duration": 0.10978149999999687
                },
                {
                    "name": "D6",
                    "midi": 86,
                    "time": 493.9069685000005,
                    "velocity": 0.4015748031496063,
                    "duration": 0.10978149999999687
                },
                {
                    "name": "F6",
                    "midi": 89,
                    "time": 494.0167500000005,
                    "velocity": 0.5118110236220472,
                    "duration": 0.4940167500000143
                },
                {
                    "name": "E6",
                    "midi": 88,
                    "time": 494.5107667500005,
                    "velocity": 0.4645669291338583,
                    "duration": 0.16467225000002372
                },
                {
                    "name": "D#6",
                    "midi": 87,
                    "time": 494.67543900000055,
                    "velocity": 0.48031496062992124,
                    "duration": 0.3293444999999906
                },
                {
                    "name": "D#6",
                    "midi": 87,
                    "time": 495.16945575000057,
                    "velocity": 0.36220472440944884,
                    "duration": 0.16467225000002372
                },
                {
                    "name": "D6",
                    "midi": 86,
                    "time": 495.3341280000006,
                    "velocity": 0.4015748031496063,
                    "duration": 0.10978149999999687
                },
                {
                    "name": "D7",
                    "midi": 98,
                    "time": 495.4439095000006,
                    "velocity": 0.36220472440944884,
                    "duration": 0.10978149999999687
                },
                {
                    "name": "C7",
                    "midi": 96,
                    "time": 495.5536910000006,
                    "velocity": 0.36220472440944884,
                    "duration": 0.10978149999999687
                },
                {
                    "name": "A#6",
                    "midi": 94,
                    "time": 495.6634725000006,
                    "velocity": 0.3937007874015748,
                    "duration": 0.10978149999999687
                },
                {
                    "name": "A6",
                    "midi": 93,
                    "time": 495.7732540000006,
                    "velocity": 0.36220472440944884,
                    "duration": 0.10978149999999687
                },
                {
                    "name": "G6",
                    "midi": 91,
                    "time": 495.8830355000006,
                    "velocity": 0.36220472440944884,
                    "duration": 0.10978149999999687
                },
                {
                    "name": "F6",
                    "midi": 89,
                    "time": 495.99281700000057,
                    "velocity": 0.3937007874015748,
                    "duration": 0.10978149999999687
                },
                {
                    "name": "D#6",
                    "midi": 87,
                    "time": 496.10259850000057,
                    "velocity": 0.36220472440944884,
                    "duration": 0.10978149999999687
                },
                {
                    "name": "D6",
                    "midi": 86,
                    "time": 496.21238000000056,
                    "velocity": 0.3858267716535433,
                    "duration": 0.10978149999999687
                },
                {
                    "name": "C6",
                    "midi": 84,
                    "time": 496.32216150000056,
                    "velocity": 0.4094488188976378,
                    "duration": 0.10978149999999687
                },
                {
                    "name": "A#5",
                    "midi": 82,
                    "time": 496.43194300000056,
                    "velocity": 0.4251968503937008,
                    "duration": 0.10978149999999687
                },
                {
                    "name": "A5",
                    "midi": 81,
                    "time": 496.54172450000056,
                    "velocity": 0.44881889763779526,
                    "duration": 0.10978149999999687
                },
                {
                    "name": "G5",
                    "midi": 79,
                    "time": 496.65150600000055,
                    "velocity": 0.47244094488188976,
                    "duration": 0.10978149999999687
                },
                {
                    "name": "A#6",
                    "midi": 94,
                    "time": 496.76128750000055,
                    "velocity": 0.47244094488188976,
                    "duration": 0.10978149999999687
                },
                {
                    "name": "G6",
                    "midi": 91,
                    "time": 496.87106900000055,
                    "velocity": 0.4566929133858268,
                    "duration": 0.10978149999999687
                },
                {
                    "name": "E6",
                    "midi": 88,
                    "time": 496.98085050000054,
                    "velocity": 0.4409448818897638,
                    "duration": 0.10978149999999687
                },
                {
                    "name": "C#6",
                    "midi": 85,
                    "time": 497.09063200000054,
                    "velocity": 0.4251968503937008,
                    "duration": 0.10978149999999687
                },
                {
                    "name": "A#5",
                    "midi": 82,
                    "time": 497.20041350000054,
                    "velocity": 0.4094488188976378,
                    "duration": 0.10978149999999687
                },
                {
                    "name": "G5",
                    "midi": 79,
                    "time": 497.31019500000053,
                    "velocity": 0.4409448818897638,
                    "duration": 0.10978149999999687
                },
                {
                    "name": "E5",
                    "midi": 76,
                    "time": 497.41997650000053,
                    "velocity": 0.4015748031496063,
                    "duration": 0.10978149999999687
                },
                {
                    "name": "C#5",
                    "midi": 73,
                    "time": 497.5297580000005,
                    "velocity": 0.3937007874015748,
                    "duration": 0.10978149999999687
                },
                {
                    "name": "A#4",
                    "midi": 70,
                    "time": 497.6395395000005,
                    "velocity": 0.3858267716535433,
                    "duration": 0.10978149999999687
                },
                {
                    "name": "G4",
                    "midi": 67,
                    "time": 497.7493210000005,
                    "velocity": 0.3858267716535433,
                    "duration": 0.10978149999999687
                },
                {
                    "name": "E4",
                    "midi": 64,
                    "time": 497.8591025000005,
                    "velocity": 0.3779527559055118,
                    "duration": 0.10978149999999687
                },
                {
                    "name": "F4",
                    "midi": 65,
                    "time": 497.9688840000005,
                    "velocity": 0.3858267716535433,
                    "duration": 0.10978149999999687
                },
                {
                    "name": "E4",
                    "midi": 64,
                    "time": 498.0786655000005,
                    "velocity": 0.3543307086614173,
                    "duration": 0.10978149999999687
                },
                {
                    "name": "F4",
                    "midi": 65,
                    "time": 498.1884470000005,
                    "velocity": 0.3543307086614173,
                    "duration": 0.10978149999999687
                },
                {
                    "name": "G4",
                    "midi": 67,
                    "time": 498.2982285000005,
                    "velocity": 0.3464566929133858,
                    "duration": 0.10978149999999687
                },
                {
                    "name": "A4",
                    "midi": 69,
                    "time": 498.4080100000005,
                    "velocity": 0.3464566929133858,
                    "duration": 0.10978149999999687
                },
                {
                    "name": "A#4",
                    "midi": 70,
                    "time": 498.5177915000005,
                    "velocity": 0.3464566929133858,
                    "duration": 0.10978149999999687
                },
                {
                    "name": "C5",
                    "midi": 72,
                    "time": 498.6275730000005,
                    "velocity": 0.3464566929133858,
                    "duration": 0.10978149999999687
                },
                {
                    "name": "D5",
                    "midi": 74,
                    "time": 498.7373545000005,
                    "velocity": 0.33858267716535434,
                    "duration": 0.10978149999999687
                },
                {
                    "name": "D#5",
                    "midi": 75,
                    "time": 498.8471360000005,
                    "velocity": 0.3464566929133858,
                    "duration": 0.10978149999999687
                },
                {
                    "name": "F5",
                    "midi": 77,
                    "time": 498.9569175000005,
                    "velocity": 0.3543307086614173,
                    "duration": 0.10978149999999687
                },
                {
                    "name": "G5",
                    "midi": 79,
                    "time": 499.0666990000005,
                    "velocity": 0.36220472440944884,
                    "duration": 0.10978149999999687
                },
                {
                    "name": "A5",
                    "midi": 81,
                    "time": 499.1764805000005,
                    "velocity": 0.3700787401574803,
                    "duration": 0.10978149999999687
                },
                {
                    "name": "A#5",
                    "midi": 82,
                    "time": 499.2862620000005,
                    "velocity": 0.3779527559055118,
                    "duration": 0.10978149999999687
                },
                {
                    "name": "D6",
                    "midi": 86,
                    "time": 499.3960435000005,
                    "velocity": 0.3858267716535433,
                    "duration": 0.10978149999999687
                },
                {
                    "name": "F6",
                    "midi": 89,
                    "time": 499.50582500000047,
                    "velocity": 0.4015748031496063,
                    "duration": 0.10978149999999687
                },
                {
                    "name": "A#6",
                    "midi": 94,
                    "time": 499.61560650000047,
                    "velocity": 0.4094488188976378,
                    "duration": 0.10978149999999687
                },
                {
                    "name": "D7",
                    "midi": 98,
                    "time": 499.72538800000046,
                    "velocity": 0.4251968503937008,
                    "duration": 0.10978149999999687
                },
                {
                    "name": "C7",
                    "midi": 96,
                    "time": 499.83516950000046,
                    "velocity": 0.4251968503937008,
                    "duration": 0.10978149999999687
                },
                {
                    "name": "A#6",
                    "midi": 94,
                    "time": 499.94495100000046,
                    "velocity": 0.41732283464566927,
                    "duration": 0.10978149999999687
                },
                {
                    "name": "F6",
                    "midi": 89,
                    "time": 500.05473250000045,
                    "velocity": 0.4094488188976378,
                    "duration": 0.10978149999999687
                },
                {
                    "name": "D6",
                    "midi": 86,
                    "time": 500.16451400000045,
                    "velocity": 0.3937007874015748,
                    "duration": 0.10978149999999687
                },
                {
                    "name": "A#5",
                    "midi": 82,
                    "time": 500.27429550000045,
                    "velocity": 0.3779527559055118,
                    "duration": 0.10978149999999687
                },
                {
                    "name": "C6",
                    "midi": 84,
                    "time": 500.38407700000045,
                    "velocity": 0.3700787401574803,
                    "duration": 0.10978149999999687
                },
                {
                    "name": "C#6",
                    "midi": 85,
                    "time": 500.49385850000044,
                    "velocity": 0.3543307086614173,
                    "duration": 0.10978149999999687
                },
                {
                    "name": "D6",
                    "midi": 86,
                    "time": 500.60364000000044,
                    "velocity": 0.5905511811023622,
                    "duration": 0.16467225000002372
                },
                {
                    "name": "D5",
                    "midi": 74,
                    "time": 500.9329845000005,
                    "velocity": 0.5354330708661418,
                    "duration": 0.6586889999999812
                },
                {
                    "name": "F#5",
                    "midi": 78,
                    "time": 500.9329845000005,
                    "velocity": 0.5354330708661418,
                    "duration": 0.6586889999999812
                },
                {
                    "name": "C6",
                    "midi": 84,
                    "time": 500.9329845000005,
                    "velocity": 0.5354330708661418,
                    "duration": 0.6586889999999812
                },
                {
                    "name": "D6",
                    "midi": 86,
                    "time": 500.9329845000005,
                    "velocity": 0.6299212598425197,
                    "duration": 0.6586889999999812
                },
                {
                    "name": "D5",
                    "midi": 74,
                    "time": 501.59167350000047,
                    "velocity": 0.4645669291338583,
                    "duration": 0.3293444999999906
                },
                {
                    "name": "F#5",
                    "midi": 78,
                    "time": 501.59167350000047,
                    "velocity": 0.4645669291338583,
                    "duration": 0.3293444999999906
                },
                {
                    "name": "C6",
                    "midi": 84,
                    "time": 501.59167350000047,
                    "velocity": 0.4645669291338583,
                    "duration": 0.3293444999999906
                },
                {
                    "name": "D6",
                    "midi": 86,
                    "time": 501.59167350000047,
                    "velocity": 0.5511811023622047,
                    "duration": 0.3293444999999906
                },
                {
                    "name": "D6",
                    "midi": 86,
                    "time": 502.25036250000045,
                    "velocity": 0.6220472440944882,
                    "duration": 0.6586889999999812
                },
                {
                    "name": "A#5",
                    "midi": 82,
                    "time": 502.25036250000045,
                    "velocity": 0.5275590551181102,
                    "duration": 0.6586889999999812
                },
                {
                    "name": "G5",
                    "midi": 79,
                    "time": 502.25036250000045,
                    "velocity": 0.5275590551181102,
                    "duration": 0.6586889999999812
                },
                {
                    "name": "D5",
                    "midi": 74,
                    "time": 502.25036250000045,
                    "velocity": 0.5275590551181102,
                    "duration": 0.6586889999999812
                },
                {
                    "name": "G6",
                    "midi": 91,
                    "time": 502.90905150000043,
                    "velocity": 0.5826771653543307,
                    "duration": 0.3293444999999906
                },
                {
                    "name": "D6",
                    "midi": 86,
                    "time": 502.90905150000043,
                    "velocity": 0.4881889763779528,
                    "duration": 0.3293444999999906
                },
                {
                    "name": "A#5",
                    "midi": 82,
                    "time": 502.90905150000043,
                    "velocity": 0.4881889763779528,
                    "duration": 0.3293444999999906
                },
                {
                    "name": "G5",
                    "midi": 79,
                    "time": 502.90905150000043,
                    "velocity": 0.4881889763779528,
                    "duration": 0.3293444999999906
                },
                {
                    "name": "A#5",
                    "midi": 82,
                    "time": 503.5677405000004,
                    "velocity": 0.5826771653543307,
                    "duration": 0.6586889999999812
                },
                {
                    "name": "D6",
                    "midi": 86,
                    "time": 503.5677405000004,
                    "velocity": 0.5826771653543307,
                    "duration": 0.6586889999999812
                },
                {
                    "name": "A#6",
                    "midi": 94,
                    "time": 503.5677405000004,
                    "velocity": 0.6929133858267716,
                    "duration": 0.6586889999999812
                },
                {
                    "name": "G5",
                    "midi": 79,
                    "time": 504.2264295000004,
                    "velocity": 0.5039370078740157,
                    "duration": 0.3293444999999906
                },
                {
                    "name": "D6",
                    "midi": 86,
                    "time": 504.2264295000004,
                    "velocity": 0.5039370078740157,
                    "duration": 0.3293444999999906
                },
                {
                    "name": "G6",
                    "midi": 91,
                    "time": 504.2264295000004,
                    "velocity": 0.6062992125984252,
                    "duration": 0.3293444999999906
                },
                {
                    "name": "E5",
                    "midi": 76,
                    "time": 504.5557740000004,
                    "velocity": 0.5275590551181102,
                    "duration": 1.3173780000000193
                },
                {
                    "name": "G5",
                    "midi": 79,
                    "time": 504.5557740000004,
                    "velocity": 0.5275590551181102,
                    "duration": 1.3173780000000193
                },
                {
                    "name": "C6",
                    "midi": 84,
                    "time": 504.5557740000004,
                    "velocity": 0.5275590551181102,
                    "duration": 1.3173780000000193
                },
                {
                    "name": "E6",
                    "midi": 88,
                    "time": 504.5557740000004,
                    "velocity": 0.6220472440944882,
                    "duration": 1.3173780000000193
                },
                {
                    "name": "F5",
                    "midi": 77,
                    "time": 506.2024965000004,
                    "velocity": 0.5826771653543307,
                    "duration": 0.3293444999999906
                },
                {
                    "name": "C6",
                    "midi": 84,
                    "time": 506.2024965000004,
                    "velocity": 0.5826771653543307,
                    "duration": 0.3293444999999906
                },
                {
                    "name": "F6",
                    "midi": 89,
                    "time": 506.2024965000004,
                    "velocity": 0.6929133858267716,
                    "duration": 0.43912599999998747
                },
                {
                    "name": "C6",
                    "midi": 84,
                    "time": 506.6416225000004,
                    "velocity": 0.5039370078740157,
                    "duration": 0.10978149999999687
                },
                {
                    "name": "A5",
                    "midi": 81,
                    "time": 506.7514040000004,
                    "velocity": 0.48031496062992124,
                    "duration": 0.10978149999999687
                },
                {
                    "name": "F5",
                    "midi": 77,
                    "time": 506.8611855000004,
                    "velocity": 0.4645669291338583,
                    "duration": 0.10978149999999687
                },
                {
                    "name": "C5",
                    "midi": 72,
                    "time": 506.97096700000037,
                    "velocity": 0.44881889763779526,
                    "duration": 0.10978149999999687
                },
                {
                    "name": "A4",
                    "midi": 69,
                    "time": 507.08074850000037,
                    "velocity": 0.4251968503937008,
                    "duration": 0.10978149999999687
                },
                {
                    "name": "G4",
                    "midi": 67,
                    "time": 507.19053000000036,
                    "velocity": 0.4094488188976378,
                    "duration": 0.16467225000002372
                },
                {
                    "name": "F5",
                    "midi": 77,
                    "time": 507.5198745000004,
                    "velocity": 0.5826771653543307,
                    "duration": 0.3293444999999906
                },
                {
                    "name": "D6",
                    "midi": 86,
                    "time": 507.5198745000004,
                    "velocity": 0.5826771653543307,
                    "duration": 0.3293444999999906
                },
                {
                    "name": "F6",
                    "midi": 89,
                    "time": 507.5198745000004,
                    "velocity": 0.6929133858267716,
                    "duration": 0.43912599999998747
                },
                {
                    "name": "D6",
                    "midi": 86,
                    "time": 507.9590005000004,
                    "velocity": 0.47244094488188976,
                    "duration": 0.10978149999999687
                },
                {
                    "name": "A#5",
                    "midi": 82,
                    "time": 508.0687820000004,
                    "velocity": 0.4566929133858268,
                    "duration": 0.10978149999999687
                },
                {
                    "name": "F5",
                    "midi": 77,
                    "time": 508.1785635000004,
                    "velocity": 0.4409448818897638,
                    "duration": 0.10978149999999687
                },
                {
                    "name": "D5",
                    "midi": 74,
                    "time": 508.2883450000004,
                    "velocity": 0.4330708661417323,
                    "duration": 0.10978149999999687
                },
                {
                    "name": "A#4",
                    "midi": 70,
                    "time": 508.3981265000004,
                    "velocity": 0.41732283464566927,
                    "duration": 0.10978149999999687
                },
                {
                    "name": "A4",
                    "midi": 69,
                    "time": 508.5079080000004,
                    "velocity": 0.4015748031496063,
                    "duration": 0.10978149999999687
                },
                {
                    "name": "C6",
                    "midi": 84,
                    "time": 508.6176895000004,
                    "velocity": 0.5511811023622047,
                    "duration": 0.10978149999999687
                },
                {
                    "name": "A#5",
                    "midi": 82,
                    "time": 508.7274710000004,
                    "velocity": 0.5275590551181102,
                    "duration": 0.10978149999999687
                },
                {
                    "name": "A5",
                    "midi": 81,
                    "time": 508.8372525000004,
                    "velocity": 0.5118110236220472,
                    "duration": 0.10978149999999687
                },
                {
                    "name": "G5",
                    "midi": 79,
                    "time": 508.9470340000004,
                    "velocity": 0.49606299212598426,
                    "duration": 0.10978149999999687
                },
                {
                    "name": "F5",
                    "midi": 77,
                    "time": 509.05681550000037,
                    "velocity": 0.48031496062992124,
                    "duration": 0.10978149999999687
                },
                {
                    "name": "E5",
                    "midi": 76,
                    "time": 509.16659700000037,
                    "velocity": 0.4645669291338583,
                    "duration": 0.10978149999999687
                },
                {
                    "name": "D5",
                    "midi": 74,
                    "time": 509.27637850000036,
                    "velocity": 0.44881889763779526,
                    "duration": 0.10978149999999687
                },
                {
                    "name": "C5",
                    "midi": 72,
                    "time": 509.38616000000036,
                    "velocity": 0.4330708661417323,
                    "duration": 0.10978149999999687
                },
                {
                    "name": "A#4",
                    "midi": 70,
                    "time": 509.49594150000036,
                    "velocity": 0.41732283464566927,
                    "duration": 0.10978149999999687
                },
                {
                    "name": "A4",
                    "midi": 69,
                    "time": 509.60572300000035,
                    "velocity": 0.4015748031496063,
                    "duration": 0.10978149999999687
                },
                {
                    "name": "G4",
                    "midi": 67,
                    "time": 509.71550450000035,
                    "velocity": 0.3858267716535433,
                    "duration": 0.10978149999999687
                },
                {
                    "name": "F4",
                    "midi": 65,
                    "time": 509.82528600000035,
                    "velocity": 0.41732283464566927,
                    "duration": 0.3293444999999906
                },
                {
                    "name": "F5",
                    "midi": 77,
                    "time": 510.15463050000034,
                    "velocity": 0.3858267716535433,
                    "duration": 0.10978149999999687
                },
                {
                    "name": "G5",
                    "midi": 79,
                    "time": 510.26441200000033,
                    "velocity": 0.33858267716535434,
                    "duration": 0.10978149999999687
                },
                {
                    "name": "F5",
                    "midi": 77,
                    "time": 510.37419350000033,
                    "velocity": 0.33858267716535434,
                    "duration": 0.10978149999999687
                },
                {
                    "name": "E5",
                    "midi": 76,
                    "time": 510.4839750000003,
                    "velocity": 0.3779527559055118,
                    "duration": 0.10978149999999687
                },
                {
                    "name": "G5",
                    "midi": 79,
                    "time": 510.5937565000003,
                    "velocity": 0.3464566929133858,
                    "duration": 0.10978149999999687
                },
                {
                    "name": "F5",
                    "midi": 77,
                    "time": 510.7035380000003,
                    "velocity": 0.33070866141732286,
                    "duration": 0.10978149999999687
                },
                {
                    "name": "E5",
                    "midi": 76,
                    "time": 510.8133195000003,
                    "velocity": 0.3228346456692913,
                    "duration": 0.10978149999999687
                },
                {
                    "name": "G6",
                    "midi": 91,
                    "time": 510.9231010000003,
                    "velocity": 0.30708661417322836,
                    "duration": 0.10978149999999687
                },
                {
                    "name": "F6",
                    "midi": 89,
                    "time": 511.0328825000003,
                    "velocity": 0.2992125984251969,
                    "duration": 0.10978149999999687
                },
                {
                    "name": "E6",
                    "midi": 88,
                    "time": 511.1426640000003,
                    "velocity": 0.4015748031496063,
                    "duration": 0.10978149999999687
                },
                {
                    "name": "G6",
                    "midi": 91,
                    "time": 511.2524455000003,
                    "velocity": 0.36220472440944884,
                    "duration": 0.10978149999999687
                },
                {
                    "name": "F6",
                    "midi": 89,
                    "time": 511.3622270000003,
                    "velocity": 0.36220472440944884,
                    "duration": 0.10978149999999687
                },
                {
                    "name": "D#6",
                    "midi": 87,
                    "time": 511.4720085000003,
                    "velocity": 0.3937007874015748,
                    "duration": 0.10978149999999687
                },
                {
                    "name": "D6",
                    "midi": 86,
                    "time": 511.5817900000003,
                    "velocity": 0.36220472440944884,
                    "duration": 0.10978149999999687
                },
                {
                    "name": "C6",
                    "midi": 84,
                    "time": 511.6915715000003,
                    "velocity": 0.36220472440944884,
                    "duration": 0.10978149999999687
                },
                {
                    "name": "A#5",
                    "midi": 82,
                    "time": 511.8013530000003,
                    "velocity": 0.3937007874015748,
                    "duration": 0.10978149999999687
                },
                {
                    "name": "A5",
                    "midi": 81,
                    "time": 511.9111345000003,
                    "velocity": 0.36220472440944884,
                    "duration": 0.10978149999999687
                },
                {
                    "name": "G5",
                    "midi": 79,
                    "time": 512.0209160000003,
                    "velocity": 0.36220472440944884,
                    "duration": 0.10978150000005371
                },
                {
                    "name": "F5",
                    "midi": 77,
                    "time": 512.1306975000003,
                    "velocity": 0.36220472440944884,
                    "duration": 0.10978150000005371
                },
                {
                    "name": "D#5",
                    "midi": 75,
                    "time": 512.2404790000004,
                    "velocity": 0.36220472440944884,
                    "duration": 0.10978150000005371
                },
                {
                    "name": "D5",
                    "midi": 74,
                    "time": 512.3502605000004,
                    "velocity": 0.36220472440944884,
                    "duration": 0.10978150000005371
                },
                {
                    "name": "C5",
                    "midi": 72,
                    "time": 512.4600420000005,
                    "velocity": 0.33858267716535434,
                    "duration": 0.6586889999999812
                },
                {
                    "name": "A#4",
                    "midi": 70,
                    "time": 513.1187310000005,
                    "velocity": 0.2992125984251969,
                    "duration": 0.32934450000004745
                },
                {
                    "name": "A4",
                    "midi": 69,
                    "time": 513.6127477500005,
                    "velocity": 0.36220472440944884,
                    "duration": 0.16467224999996688
                },
                {
                    "name": "A#4",
                    "midi": 70,
                    "time": 513.7774200000005,
                    "velocity": 0.28346456692913385,
                    "duration": 0.10978150000005371
                },
                {
                    "name": "C5",
                    "midi": 72,
                    "time": 513.8872015000005,
                    "velocity": 0.29133858267716534,
                    "duration": 0.10978150000005371
                },
                {
                    "name": "D5",
                    "midi": 74,
                    "time": 513.9969830000006,
                    "velocity": 0.2992125984251969,
                    "duration": 0.10978150000005371
                },
                {
                    "name": "D#5",
                    "midi": 75,
                    "time": 514.1067645000006,
                    "velocity": 0.31496062992125984,
                    "duration": 0.10978150000005371
                },
                {
                    "name": "F5",
                    "midi": 77,
                    "time": 514.2165460000007,
                    "velocity": 0.3228346456692913,
                    "duration": 0.10978150000005371
                },
                {
                    "name": "G5",
                    "midi": 79,
                    "time": 514.3263275000007,
                    "velocity": 0.33070866141732286,
                    "duration": 0.10978150000005371
                },
                {
                    "name": "A5",
                    "midi": 81,
                    "time": 514.4361090000008,
                    "velocity": 0.3543307086614173,
                    "duration": 0.10978150000005371
                },
                {
                    "name": "A#5",
                    "midi": 82,
                    "time": 514.5458905000008,
                    "velocity": 0.3700787401574803,
                    "duration": 0.10978150000005371
                },
                {
                    "name": "C6",
                    "midi": 84,
                    "time": 514.6556720000009,
                    "velocity": 0.3937007874015748,
                    "duration": 0.10978150000005371
                },
                {
                    "name": "D6",
                    "midi": 86,
                    "time": 514.765453500001,
                    "velocity": 0.4094488188976378,
                    "duration": 0.10978150000005371
                },
                {
                    "name": "D#6",
                    "midi": 87,
                    "time": 514.875235000001,
                    "velocity": 0.4330708661417323,
                    "duration": 0.10978150000005371
                },
                {
                    "name": "F6",
                    "midi": 89,
                    "time": 514.985016500001,
                    "velocity": 0.44881889763779526,
                    "duration": 0.10978150000005371
                },
                {
                    "name": "G6",
                    "midi": 91,
                    "time": 515.0947980000011,
                    "velocity": 0.47244094488188976,
                    "duration": 0.054890750000026856
                },
                {
                    "name": "A6",
                    "midi": 93,
                    "time": 515.1496887500011,
                    "velocity": 0.3937007874015748,
                    "duration": 0.054890750000026856
                },
                {
                    "name": "G6",
                    "midi": 91,
                    "time": 515.2045795000012,
                    "velocity": 0.4015748031496063,
                    "duration": 0.054890750000026856
                },
                {
                    "name": "A6",
                    "midi": 93,
                    "time": 515.2594702500012,
                    "velocity": 0.4094488188976378,
                    "duration": 0.054890750000026856
                },
                {
                    "name": "G6",
                    "midi": 91,
                    "time": 515.3143610000012,
                    "velocity": 0.41732283464566927,
                    "duration": 0.054890750000026856
                },
                {
                    "name": "A6",
                    "midi": 93,
                    "time": 515.3692517500012,
                    "velocity": 0.4330708661417323,
                    "duration": 0.054890750000026856
                },
                {
                    "name": "G6",
                    "midi": 91,
                    "time": 515.4241425000013,
                    "velocity": 0.4251968503937008,
                    "duration": 0.054890750000026856
                },
                {
                    "name": "F#6",
                    "midi": 90,
                    "time": 515.4790332500013,
                    "velocity": 0.41732283464566927,
                    "duration": 0.054890750000026856
                },
                {
                    "name": "G6",
                    "midi": 91,
                    "time": 515.5339240000013,
                    "velocity": 0.4094488188976378,
                    "duration": 0.054890750000026856
                },
                {
                    "name": "A#6",
                    "midi": 94,
                    "time": 515.5888147500013,
                    "velocity": 0.4015748031496063,
                    "duration": 0.16467224999996688
                },
                {
                    "name": "C#7",
                    "midi": 97,
                    "time": 515.7534870000013,
                    "velocity": 0.5354330708661418,
                    "duration": 0.32934450000004745
                },
                {
                    "name": "C5",
                    "midi": 72,
                    "time": 516.2475037500013,
                    "velocity": 0.36220472440944884,
                    "duration": 0.16467224999996688
                },
                {
                    "name": "B4",
                    "midi": 71,
                    "time": 516.4121760000013,
                    "velocity": 0.4015748031496063,
                    "duration": 0.10978150000005371
                },
                {
                    "name": "C5",
                    "midi": 72,
                    "time": 516.5219575000013,
                    "velocity": 0.36220472440944884,
                    "duration": 0.10978150000005371
                },
                {
                    "name": "D5",
                    "midi": 74,
                    "time": 516.6317390000014,
                    "velocity": 0.36220472440944884,
                    "duration": 0.10978150000005371
                },
                {
                    "name": "E5",
                    "midi": 76,
                    "time": 516.7415205000015,
                    "velocity": 0.3937007874015748,
                    "duration": 0.10978150000005371
                },
                {
                    "name": "F5",
                    "midi": 77,
                    "time": 516.8513020000015,
                    "velocity": 0.36220472440944884,
                    "duration": 0.10978150000005371
                },
                {
                    "name": "G5",
                    "midi": 79,
                    "time": 516.9610835000016,
                    "velocity": 0.36220472440944884,
                    "duration": 0.10978150000005371
                },
                {
                    "name": "A5",
                    "midi": 81,
                    "time": 517.0708650000016,
                    "velocity": 0.3937007874015748,
                    "duration": 0.10978150000005371
                },
                {
                    "name": "A#5",
                    "midi": 82,
                    "time": 517.1806465000017,
                    "velocity": 0.3779527559055118,
                    "duration": 0.10978150000005371
                },
                {
                    "name": "C6",
                    "midi": 84,
                    "time": 517.2904280000017,
                    "velocity": 0.4015748031496063,
                    "duration": 0.10978150000005371
                },
                {
                    "name": "D6",
                    "midi": 86,
                    "time": 517.4002095000018,
                    "velocity": 0.4251968503937008,
                    "duration": 0.10978150000005371
                },
                {
                    "name": "D#6",
                    "midi": 87,
                    "time": 517.5099910000018,
                    "velocity": 0.44881889763779526,
                    "duration": 0.10978150000005371
                },
                {
                    "name": "E6",
                    "midi": 88,
                    "time": 517.6197725000019,
                    "velocity": 0.47244094488188976,
                    "duration": 0.10978150000005371
                },
                {
                    "name": "F6",
                    "midi": 89,
                    "time": 517.7295540000019,
                    "velocity": 0.5118110236220472,
                    "duration": 0.10978150000005371
                },
                {
                    "name": "F7",
                    "midi": 101,
                    "time": 517.839335500002,
                    "velocity": 0.5275590551181102,
                    "duration": 0.10978150000005371
                },
                {
                    "name": "E7",
                    "midi": 100,
                    "time": 517.949117000002,
                    "velocity": 0.5118110236220472,
                    "duration": 0.10978150000005371
                },
                {
                    "name": "D#7",
                    "midi": 99,
                    "time": 518.0588985000021,
                    "velocity": 0.49606299212598426,
                    "duration": 0.10978150000005371
                },
                {
                    "name": "D7",
                    "midi": 98,
                    "time": 518.1686800000022,
                    "velocity": 0.48031496062992124,
                    "duration": 0.10978150000005371
                },
                {
                    "name": "C7",
                    "midi": 96,
                    "time": 518.2784615000022,
                    "velocity": 0.47244094488188976,
                    "duration": 0.10978150000005371
                },
                {
                    "name": "A#6",
                    "midi": 94,
                    "time": 518.3882430000023,
                    "velocity": 0.4566929133858268,
                    "duration": 0.10978150000005371
                },
                {
                    "name": "A6",
                    "midi": 93,
                    "time": 518.4980245000023,
                    "velocity": 0.4409448818897638,
                    "duration": 0.10978150000005371
                },
                {
                    "name": "G6",
                    "midi": 91,
                    "time": 518.6078060000024,
                    "velocity": 0.4251968503937008,
                    "duration": 0.10978150000005371
                },
                {
                    "name": "F6",
                    "midi": 89,
                    "time": 518.7175875000024,
                    "velocity": 0.4094488188976378,
                    "duration": 0.10978150000005371
                },
                {
                    "name": "D#6",
                    "midi": 87,
                    "time": 518.8273690000025,
                    "velocity": 0.3937007874015748,
                    "duration": 0.10978150000005371
                },
                {
                    "name": "D6",
                    "midi": 86,
                    "time": 518.9371505000025,
                    "velocity": 0.3779527559055118,
                    "duration": 0.10978150000005371
                },
                {
                    "name": "C6",
                    "midi": 84,
                    "time": 519.0469320000026,
                    "velocity": 0.36220472440944884,
                    "duration": 0.10978150000005371
                },
                {
                    "name": "A6",
                    "midi": 93,
                    "time": 519.1567135000026,
                    "velocity": 0.3543307086614173,
                    "duration": 0.10978150000005371
                },
                {
                    "name": "G6",
                    "midi": 91,
                    "time": 519.2664950000027,
                    "velocity": 0.3543307086614173,
                    "duration": 0.10978150000005371
                },
                {
                    "name": "D#6",
                    "midi": 87,
                    "time": 519.3762765000027,
                    "velocity": 0.3464566929133858,
                    "duration": 0.10978150000005371
                },
                {
                    "name": "C6",
                    "midi": 84,
                    "time": 519.4860580000028,
                    "velocity": 0.3464566929133858,
                    "duration": 0.10978150000005371
                },
                {
                    "name": "A#5",
                    "midi": 82,
                    "time": 519.5958395000029,
                    "velocity": 0.3464566929133858,
                    "duration": 0.10978150000005371
                },
                {
                    "name": "A5",
                    "midi": 81,
                    "time": 519.7056210000029,
                    "velocity": 0.3464566929133858,
                    "duration": 0.10978150000005371
                },
                {
                    "name": "G5",
                    "midi": 79,
                    "time": 519.815402500003,
                    "velocity": 0.33858267716535434,
                    "duration": 0.10978150000005371
                },
                {
                    "name": "F5",
                    "midi": 77,
                    "time": 519.925184000003,
                    "velocity": 0.33858267716535434,
                    "duration": 0.10978150000005371
                },
                {
                    "name": "D#5",
                    "midi": 75,
                    "time": 520.0349655000031,
                    "velocity": 0.33858267716535434,
                    "duration": 0.10978150000005371
                },
                {
                    "name": "D5",
                    "midi": 74,
                    "time": 520.1447470000031,
                    "velocity": 0.33858267716535434,
                    "duration": 0.10978150000005371
                },
                {
                    "name": "C5",
                    "midi": 72,
                    "time": 520.2545285000032,
                    "velocity": 0.33858267716535434,
                    "duration": 0.10978150000005371
                },
                {
                    "name": "A#4",
                    "midi": 70,
                    "time": 520.3643100000032,
                    "velocity": 0.3543307086614173,
                    "duration": 0.10978150000005371
                },
                {
                    "name": "D5",
                    "midi": 74,
                    "time": 520.4740915000033,
                    "velocity": 0.36220472440944884,
                    "duration": 0.10978150000005371
                },
                {
                    "name": "F5",
                    "midi": 77,
                    "time": 520.5838730000033,
                    "velocity": 0.36220472440944884,
                    "duration": 0.10978150000005371
                },
                {
                    "name": "A#5",
                    "midi": 82,
                    "time": 520.6936545000034,
                    "velocity": 0.3700787401574803,
                    "duration": 0.10978150000005371
                },
                {
                    "name": "D6",
                    "midi": 86,
                    "time": 520.8034360000034,
                    "velocity": 0.3779527559055118,
                    "duration": 0.10978150000005371
                },
                {
                    "name": "C6",
                    "midi": 84,
                    "time": 520.9132175000035,
                    "velocity": 0.3858267716535433,
                    "duration": 0.10978150000005371
                },
                {
                    "name": "A#5",
                    "midi": 82,
                    "time": 521.0229990000036,
                    "velocity": 0.4015748031496063,
                    "duration": 0.10978150000005371
                },
                {
                    "name": "A5",
                    "midi": 81,
                    "time": 521.1327805000036,
                    "velocity": 0.4330708661417323,
                    "duration": 0.10978150000005371
                },
                {
                    "name": "A#5",
                    "midi": 82,
                    "time": 521.2425620000037,
                    "velocity": 0.4566929133858268,
                    "duration": 0.10978150000005371
                },
                {
                    "name": "B5",
                    "midi": 83,
                    "time": 521.3523435000037,
                    "velocity": 0.4881889763779528,
                    "duration": 0.10978150000005371
                },
                {
                    "name": "C6",
                    "midi": 84,
                    "time": 521.4621250000038,
                    "velocity": 0.5118110236220472,
                    "duration": 0.10978150000005371
                },
                {
                    "name": "C#6",
                    "midi": 85,
                    "time": 521.5719065000038,
                    "velocity": 0.5354330708661418,
                    "duration": 0.10978150000005371
                },
                {
                    "name": "D6",
                    "midi": 86,
                    "time": 521.6816880000039,
                    "velocity": 0.5905511811023622,
                    "duration": 0.16467224999996688
                },
                {
                    "name": "D5",
                    "midi": 74,
                    "time": 522.0110325000038,
                    "velocity": 0.5354330708661418,
                    "duration": 0.6586889999999812
                },
                {
                    "name": "F#5",
                    "midi": 78,
                    "time": 522.0110325000038,
                    "velocity": 0.5354330708661418,
                    "duration": 0.6586889999999812
                },
                {
                    "name": "C6",
                    "midi": 84,
                    "time": 522.0110325000038,
                    "velocity": 0.5354330708661418,
                    "duration": 0.6586889999999812
                },
                {
                    "name": "D6",
                    "midi": 86,
                    "time": 522.0110325000038,
                    "velocity": 0.6299212598425197,
                    "duration": 0.6586889999999812
                },
                {
                    "name": "D5",
                    "midi": 74,
                    "time": 522.6697215000038,
                    "velocity": 0.4645669291338583,
                    "duration": 0.32934450000004745
                },
                {
                    "name": "F#5",
                    "midi": 78,
                    "time": 522.6697215000038,
                    "velocity": 0.4645669291338583,
                    "duration": 0.32934450000004745
                },
                {
                    "name": "C6",
                    "midi": 84,
                    "time": 522.6697215000038,
                    "velocity": 0.4645669291338583,
                    "duration": 0.32934450000004745
                },
                {
                    "name": "D6",
                    "midi": 86,
                    "time": 522.6697215000038,
                    "velocity": 0.5511811023622047,
                    "duration": 0.32934450000004745
                },
                {
                    "name": "D6",
                    "midi": 86,
                    "time": 523.3284105000039,
                    "velocity": 0.6220472440944882,
                    "duration": 0.6586889999999812
                },
                {
                    "name": "A#5",
                    "midi": 82,
                    "time": 523.3284105000039,
                    "velocity": 0.5275590551181102,
                    "duration": 0.6586889999999812
                },
                {
                    "name": "G5",
                    "midi": 79,
                    "time": 523.3284105000039,
                    "velocity": 0.5275590551181102,
                    "duration": 0.6586889999999812
                },
                {
                    "name": "D5",
                    "midi": 74,
                    "time": 523.3284105000039,
                    "velocity": 0.5275590551181102,
                    "duration": 0.6586889999999812
                },
                {
                    "name": "G6",
                    "midi": 91,
                    "time": 523.9870995000039,
                    "velocity": 0.5826771653543307,
                    "duration": 0.32934450000004745
                },
                {
                    "name": "D6",
                    "midi": 86,
                    "time": 523.9870995000039,
                    "velocity": 0.4881889763779528,
                    "duration": 0.32934450000004745
                },
                {
                    "name": "A#5",
                    "midi": 82,
                    "time": 523.9870995000039,
                    "velocity": 0.4881889763779528,
                    "duration": 0.32934450000004745
                },
                {
                    "name": "G5",
                    "midi": 79,
                    "time": 523.9870995000039,
                    "velocity": 0.4881889763779528,
                    "duration": 0.32934450000004745
                },
                {
                    "name": "A#5",
                    "midi": 82,
                    "time": 524.645788500004,
                    "velocity": 0.5826771653543307,
                    "duration": 0.6586889999999812
                },
                {
                    "name": "D6",
                    "midi": 86,
                    "time": 524.645788500004,
                    "velocity": 0.5826771653543307,
                    "duration": 0.6586889999999812
                },
                {
                    "name": "A#6",
                    "midi": 94,
                    "time": 524.645788500004,
                    "velocity": 0.6929133858267716,
                    "duration": 0.6586889999999812
                },
                {
                    "name": "G5",
                    "midi": 79,
                    "time": 525.3044775000039,
                    "velocity": 0.5039370078740157,
                    "duration": 0.32934450000004745
                },
                {
                    "name": "D6",
                    "midi": 86,
                    "time": 525.3044775000039,
                    "velocity": 0.5039370078740157,
                    "duration": 0.32934450000004745
                },
                {
                    "name": "G6",
                    "midi": 91,
                    "time": 525.3044775000039,
                    "velocity": 0.6062992125984252,
                    "duration": 0.32934450000004745
                },
                {
                    "name": "E5",
                    "midi": 76,
                    "time": 525.633822000004,
                    "velocity": 0.5275590551181102,
                    "duration": 1.3173779999999624
                },
                {
                    "name": "G5",
                    "midi": 79,
                    "time": 525.633822000004,
                    "velocity": 0.5275590551181102,
                    "duration": 1.3173779999999624
                },
                {
                    "name": "C6",
                    "midi": 84,
                    "time": 525.633822000004,
                    "velocity": 0.5275590551181102,
                    "duration": 1.3173779999999624
                },
                {
                    "name": "E6",
                    "midi": 88,
                    "time": 525.633822000004,
                    "velocity": 0.6220472440944882,
                    "duration": 1.3173779999999624
                },
                {
                    "name": "F5",
                    "midi": 77,
                    "time": 527.280544500004,
                    "velocity": 0.5826771653543307,
                    "duration": 0.32934450000004745
                },
                {
                    "name": "C6",
                    "midi": 84,
                    "time": 527.280544500004,
                    "velocity": 0.5826771653543307,
                    "duration": 0.32934450000004745
                },
                {
                    "name": "F6",
                    "midi": 89,
                    "time": 527.280544500004,
                    "velocity": 0.6929133858267716,
                    "duration": 0.43912600000010116
                },
                {
                    "name": "C6",
                    "midi": 84,
                    "time": 527.7196705000041,
                    "velocity": 0.49606299212598426,
                    "duration": 0.10978150000005371
                },
                {
                    "name": "A5",
                    "midi": 81,
                    "time": 527.8294520000042,
                    "velocity": 0.48031496062992124,
                    "duration": 0.10978150000005371
                },
                {
                    "name": "F5",
                    "midi": 77,
                    "time": 527.9392335000042,
                    "velocity": 0.4645669291338583,
                    "duration": 0.10978150000005371
                },
                {
                    "name": "C5",
                    "midi": 72,
                    "time": 528.0490150000043,
                    "velocity": 0.4409448818897638,
                    "duration": 0.10978150000005371
                },
                {
                    "name": "A4",
                    "midi": 69,
                    "time": 528.1587965000043,
                    "velocity": 0.4251968503937008,
                    "duration": 0.10978150000005371
                },
                {
                    "name": "G4",
                    "midi": 67,
                    "time": 528.2685780000044,
                    "velocity": 0.4094488188976378,
                    "duration": 0.16467224999996688
                },
                {
                    "name": "F5",
                    "midi": 77,
                    "time": 528.5979225000043,
                    "velocity": 0.5826771653543307,
                    "duration": 0.32934450000004745
                },
                {
                    "name": "D6",
                    "midi": 86,
                    "time": 528.5979225000043,
                    "velocity": 0.5826771653543307,
                    "duration": 0.32934450000004745
                },
                {
                    "name": "F6",
                    "midi": 89,
                    "time": 528.5979225000043,
                    "velocity": 0.6929133858267716,
                    "duration": 0.43912600000010116
                },
                {
                    "name": "D6",
                    "midi": 86,
                    "time": 529.0370485000044,
                    "velocity": 0.5118110236220472,
                    "duration": 0.10978150000005371
                },
                {
                    "name": "A#5",
                    "midi": 82,
                    "time": 529.1468300000045,
                    "velocity": 0.49606299212598426,
                    "duration": 0.10978150000005371
                },
                {
                    "name": "F5",
                    "midi": 77,
                    "time": 529.2566115000045,
                    "velocity": 0.48031496062992124,
                    "duration": 0.10978150000005371
                },
                {
                    "name": "D5",
                    "midi": 74,
                    "time": 529.3663930000046,
                    "velocity": 0.4645669291338583,
                    "duration": 0.10978150000005371
                },
                {
                    "name": "A#4",
                    "midi": 70,
                    "time": 529.4761745000046,
                    "velocity": 0.44881889763779526,
                    "duration": 0.10978150000005371
                },
                {
                    "name": "A4",
                    "midi": 69,
                    "time": 529.5859560000047,
                    "velocity": 0.4330708661417323,
                    "duration": 0.10978150000005371
                },
                {
                    "name": "C6",
                    "midi": 84,
                    "time": 529.6957375000047,
                    "velocity": 0.5511811023622047,
                    "duration": 0.10978150000005371
                },
                {
                    "name": "A#5",
                    "midi": 82,
                    "time": 529.8055190000048,
                    "velocity": 0.5275590551181102,
                    "duration": 0.10978150000005371
                },
                {
                    "name": "A5",
                    "midi": 81,
                    "time": 529.9153005000048,
                    "velocity": 0.5118110236220472,
                    "duration": 0.10978150000005371
                },
                {
                    "name": "G5",
                    "midi": 79,
                    "time": 530.0250820000049,
                    "velocity": 0.49606299212598426,
                    "duration": 0.10978150000005371
                },
                {
                    "name": "F5",
                    "midi": 77,
                    "time": 530.1348635000049,
                    "velocity": 0.48031496062992124,
                    "duration": 0.10978150000005371
                },
                {
                    "name": "E5",
                    "midi": 76,
                    "time": 530.244645000005,
                    "velocity": 0.4645669291338583,
                    "duration": 0.10978150000005371
                },
                {
                    "name": "D5",
                    "midi": 74,
                    "time": 530.354426500005,
                    "velocity": 0.44881889763779526,
                    "duration": 0.10978150000005371
                },
                {
                    "name": "C5",
                    "midi": 72,
                    "time": 530.4642080000051,
                    "velocity": 0.4330708661417323,
                    "duration": 0.10978150000005371
                },
                {
                    "name": "A#4",
                    "midi": 70,
                    "time": 530.5739895000052,
                    "velocity": 0.41732283464566927,
                    "duration": 0.10978150000005371
                },
                {
                    "name": "A4",
                    "midi": 69,
                    "time": 530.6837710000052,
                    "velocity": 0.4015748031496063,
                    "duration": 0.10978150000005371
                },
                {
                    "name": "G4",
                    "midi": 67,
                    "time": 530.7935525000053,
                    "velocity": 0.3858267716535433,
                    "duration": 0.10978150000005371
                },
                {
                    "name": "F4",
                    "midi": 65,
                    "time": 530.9033340000053,
                    "velocity": 0.41732283464566927,
                    "duration": 0.32934450000004745
                },
                {
                    "name": "F5",
                    "midi": 77,
                    "time": 531.2326785000054,
                    "velocity": 0.3858267716535433,
                    "duration": 0.10978150000005371
                },
                {
                    "name": "G5",
                    "midi": 79,
                    "time": 531.3424600000054,
                    "velocity": 0.33858267716535434,
                    "duration": 0.10978150000005371
                },
                {
                    "name": "F5",
                    "midi": 77,
                    "time": 531.4522415000055,
                    "velocity": 0.33858267716535434,
                    "duration": 0.10978150000005371
                },
                {
                    "name": "E5",
                    "midi": 76,
                    "time": 531.5620230000055,
                    "velocity": 0.3779527559055118,
                    "duration": 0.10978150000005371
                },
                {
                    "name": "G5",
                    "midi": 79,
                    "time": 531.6718045000056,
                    "velocity": 0.33070866141732286,
                    "duration": 0.10978150000005371
                },
                {
                    "name": "F5",
                    "midi": 77,
                    "time": 531.7815860000056,
                    "velocity": 0.33070866141732286,
                    "duration": 0.10978150000005371
                },
                {
                    "name": "E5",
                    "midi": 76,
                    "time": 531.8913675000057,
                    "velocity": 0.33858267716535434,
                    "duration": 0.10978150000005371
                },
                {
                    "name": "G6",
                    "midi": 91,
                    "time": 532.0011490000057,
                    "velocity": 0.31496062992125984,
                    "duration": 0.10978150000005371
                },
                {
                    "name": "F6",
                    "midi": 89,
                    "time": 532.1109305000058,
                    "velocity": 0.2992125984251969,
                    "duration": 0.10978150000005371
                },
                {
                    "name": "E6",
                    "midi": 88,
                    "time": 532.2207120000058,
                    "velocity": 0.4015748031496063,
                    "duration": 0.10978150000005371
                },
                {
                    "name": "G6",
                    "midi": 91,
                    "time": 532.3304935000059,
                    "velocity": 0.36220472440944884,
                    "duration": 0.10978150000005371
                },
                {
                    "name": "F6",
                    "midi": 89,
                    "time": 532.440275000006,
                    "velocity": 0.36220472440944884,
                    "duration": 0.10978150000005371
                },
                {
                    "name": "D#6",
                    "midi": 87,
                    "time": 532.550056500006,
                    "velocity": 0.3937007874015748,
                    "duration": 0.10978150000005371
                },
                {
                    "name": "D6",
                    "midi": 86,
                    "time": 532.6598380000061,
                    "velocity": 0.36220472440944884,
                    "duration": 0.10978150000005371
                },
                {
                    "name": "C6",
                    "midi": 84,
                    "time": 532.7696195000061,
                    "velocity": 0.36220472440944884,
                    "duration": 0.10978150000005371
                },
                {
                    "name": "A#5",
                    "midi": 82,
                    "time": 532.8794010000062,
                    "velocity": 0.3937007874015748,
                    "duration": 0.10978150000005371
                },
                {
                    "name": "A5",
                    "midi": 81,
                    "time": 532.9891825000062,
                    "velocity": 0.36220472440944884,
                    "duration": 0.10978150000005371
                },
                {
                    "name": "G5",
                    "midi": 79,
                    "time": 533.0989640000063,
                    "velocity": 0.36220472440944884,
                    "duration": 0.10978150000005371
                },
                {
                    "name": "F5",
                    "midi": 77,
                    "time": 533.2087455000063,
                    "velocity": 0.36220472440944884,
                    "duration": 0.10978150000005371
                },
                {
                    "name": "D#5",
                    "midi": 75,
                    "time": 533.3185270000064,
                    "velocity": 0.36220472440944884,
                    "duration": 0.10978150000005371
                },
                {
                    "name": "D5",
                    "midi": 74,
                    "time": 533.4283085000064,
                    "velocity": 0.36220472440944884,
                    "duration": 0.10978150000005371
                },
                {
                    "name": "C5",
                    "midi": 72,
                    "time": 533.5380900000065,
                    "velocity": 0.33858267716535434,
                    "duration": 0.6586889999999812
                },
                {
                    "name": "A#4",
                    "midi": 70,
                    "time": 534.1967790000065,
                    "velocity": 0.2992125984251969,
                    "duration": 0.32934450000004745
                },
                {
                    "name": "A4",
                    "midi": 69,
                    "time": 534.6907957500065,
                    "velocity": 0.36220472440944884,
                    "duration": 0.16467224999996688
                },
                {
                    "name": "A#4",
                    "midi": 70,
                    "time": 534.8554680000065,
                    "velocity": 0.28346456692913385,
                    "duration": 0.10978150000005371
                },
                {
                    "name": "C5",
                    "midi": 72,
                    "time": 534.9652495000065,
                    "velocity": 0.29133858267716534,
                    "duration": 0.10978150000005371
                },
                {
                    "name": "D5",
                    "midi": 74,
                    "time": 535.0750310000066,
                    "velocity": 0.2992125984251969,
                    "duration": 0.10978150000005371
                },
                {
                    "name": "D#5",
                    "midi": 75,
                    "time": 535.1848125000066,
                    "velocity": 0.31496062992125984,
                    "duration": 0.10978150000005371
                },
                {
                    "name": "F5",
                    "midi": 77,
                    "time": 535.2945940000067,
                    "velocity": 0.3228346456692913,
                    "duration": 0.10978150000005371
                },
                {
                    "name": "G5",
                    "midi": 79,
                    "time": 535.4043755000067,
                    "velocity": 0.33070866141732286,
                    "duration": 0.10978150000005371
                },
                {
                    "name": "A5",
                    "midi": 81,
                    "time": 535.5141570000068,
                    "velocity": 0.3543307086614173,
                    "duration": 0.10978150000005371
                },
                {
                    "name": "A#5",
                    "midi": 82,
                    "time": 535.6239385000068,
                    "velocity": 0.3700787401574803,
                    "duration": 0.10978150000005371
                },
                {
                    "name": "C6",
                    "midi": 84,
                    "time": 535.7337200000069,
                    "velocity": 0.3937007874015748,
                    "duration": 0.10978150000005371
                },
                {
                    "name": "D6",
                    "midi": 86,
                    "time": 535.8435015000069,
                    "velocity": 0.4094488188976378,
                    "duration": 0.10978150000005371
                },
                {
                    "name": "D#6",
                    "midi": 87,
                    "time": 535.953283000007,
                    "velocity": 0.4330708661417323,
                    "duration": 0.10978150000005371
                },
                {
                    "name": "F6",
                    "midi": 89,
                    "time": 536.063064500007,
                    "velocity": 0.44881889763779526,
                    "duration": 0.10978150000005371
                },
                {
                    "name": "G6",
                    "midi": 91,
                    "time": 536.1728460000071,
                    "velocity": 0.4015748031496063,
                    "duration": 0.054890750000026856
                },
                {
                    "name": "A6",
                    "midi": 93,
                    "time": 536.2277367500071,
                    "velocity": 0.4094488188976378,
                    "duration": 0.054890750000026856
                },
                {
                    "name": "G6",
                    "midi": 91,
                    "time": 536.2826275000072,
                    "velocity": 0.41732283464566927,
                    "duration": 0.054890750000026856
                },
                {
                    "name": "A6",
                    "midi": 93,
                    "time": 536.3375182500072,
                    "velocity": 0.4251968503937008,
                    "duration": 0.054890750000026856
                },
                {
                    "name": "G6",
                    "midi": 91,
                    "time": 536.3924090000072,
                    "velocity": 0.4330708661417323,
                    "duration": 0.054890750000026856
                },
                {
                    "name": "A6",
                    "midi": 93,
                    "time": 536.4472997500072,
                    "velocity": 0.4409448818897638,
                    "duration": 0.054890750000026856
                },
                {
                    "name": "G6",
                    "midi": 91,
                    "time": 536.5021905000073,
                    "velocity": 0.4251968503937008,
                    "duration": 0.054890750000026856
                },
                {
                    "name": "F#6",
                    "midi": 90,
                    "time": 536.5570812500073,
                    "velocity": 0.41732283464566927,
                    "duration": 0.054890750000026856
                },
                {
                    "name": "G6",
                    "midi": 91,
                    "time": 536.6119720000073,
                    "velocity": 0.4094488188976378,
                    "duration": 0.054890750000026856
                },
                {
                    "name": "A#6",
                    "midi": 94,
                    "time": 536.6668627500073,
                    "velocity": 0.4015748031496063,
                    "duration": 0.16467224999996688
                },
                {
                    "name": "C#7",
                    "midi": 97,
                    "time": 536.8315350000073,
                    "velocity": 0.5354330708661418,
                    "duration": 0.32934450000004745
                },
                {
                    "name": "C5",
                    "midi": 72,
                    "time": 537.3255517500073,
                    "velocity": 0.36220472440944884,
                    "duration": 0.16467224999996688
                },
                {
                    "name": "B4",
                    "midi": 71,
                    "time": 537.4902240000073,
                    "velocity": 0.4015748031496063,
                    "duration": 0.10978150000005371
                },
                {
                    "name": "C5",
                    "midi": 72,
                    "time": 537.6000055000073,
                    "velocity": 0.36220472440944884,
                    "duration": 0.10978150000005371
                },
                {
                    "name": "D5",
                    "midi": 74,
                    "time": 537.7097870000074,
                    "velocity": 0.36220472440944884,
                    "duration": 0.10978150000005371
                },
                {
                    "name": "E5",
                    "midi": 76,
                    "time": 537.8195685000074,
                    "velocity": 0.3937007874015748,
                    "duration": 0.10978150000005371
                },
                {
                    "name": "F5",
                    "midi": 77,
                    "time": 537.9293500000075,
                    "velocity": 0.36220472440944884,
                    "duration": 0.10978150000005371
                },
                {
                    "name": "G5",
                    "midi": 79,
                    "time": 538.0391315000076,
                    "velocity": 0.36220472440944884,
                    "duration": 0.10978150000005371
                },
                {
                    "name": "A5",
                    "midi": 81,
                    "time": 538.1489130000076,
                    "velocity": 0.3937007874015748,
                    "duration": 0.10978150000005371
                },
                {
                    "name": "A#5",
                    "midi": 82,
                    "time": 538.2586945000077,
                    "velocity": 0.3858267716535433,
                    "duration": 0.10978150000005371
                },
                {
                    "name": "C6",
                    "midi": 84,
                    "time": 538.3684760000077,
                    "velocity": 0.4015748031496063,
                    "duration": 0.10978150000005371
                },
                {
                    "name": "D6",
                    "midi": 86,
                    "time": 538.4782575000078,
                    "velocity": 0.4251968503937008,
                    "duration": 0.10978150000005371
                },
                {
                    "name": "D#6",
                    "midi": 87,
                    "time": 538.5880390000078,
                    "velocity": 0.4409448818897638,
                    "duration": 0.10978150000005371
                },
                {
                    "name": "E6",
                    "midi": 88,
                    "time": 538.6978205000079,
                    "velocity": 0.4645669291338583,
                    "duration": 0.10978150000005371
                },
                {
                    "name": "F6",
                    "midi": 89,
                    "time": 538.8076020000079,
                    "velocity": 0.48031496062992124,
                    "duration": 0.10978150000005371
                },
                {
                    "name": "F7",
                    "midi": 101,
                    "time": 538.917383500008,
                    "velocity": 0.5118110236220472,
                    "duration": 0.10978150000005371
                },
                {
                    "name": "E7",
                    "midi": 100,
                    "time": 539.027165000008,
                    "velocity": 0.49606299212598426,
                    "duration": 0.10978150000005371
                },
                {
                    "name": "D#7",
                    "midi": 99,
                    "time": 539.1369465000081,
                    "velocity": 0.48031496062992124,
                    "duration": 0.10978150000005371
                },
                {
                    "name": "D7",
                    "midi": 98,
                    "time": 539.2467280000081,
                    "velocity": 0.47244094488188976,
                    "duration": 0.10978150000005371
                },
                {
                    "name": "C7",
                    "midi": 96,
                    "time": 539.3565095000082,
                    "velocity": 0.4566929133858268,
                    "duration": 0.10978150000005371
                },
                {
                    "name": "A#6",
                    "midi": 94,
                    "time": 539.4662910000083,
                    "velocity": 0.4409448818897638,
                    "duration": 0.10978150000005371
                },
                {
                    "name": "A6",
                    "midi": 93,
                    "time": 539.5760725000083,
                    "velocity": 0.4330708661417323,
                    "duration": 0.10978150000005371
                },
                {
                    "name": "G6",
                    "midi": 91,
                    "time": 539.6858540000084,
                    "velocity": 0.41732283464566927,
                    "duration": 0.10978150000005371
                },
                {
                    "name": "F6",
                    "midi": 89,
                    "time": 539.7956355000084,
                    "velocity": 0.4015748031496063,
                    "duration": 0.10978150000005371
                },
                {
                    "name": "D#6",
                    "midi": 87,
                    "time": 539.9054170000085,
                    "velocity": 0.3937007874015748,
                    "duration": 0.10978150000005371
                },
                {
                    "name": "D6",
                    "midi": 86,
                    "time": 540.0151985000085,
                    "velocity": 0.3779527559055118,
                    "duration": 0.10978150000005371
                },
                {
                    "name": "C6",
                    "midi": 84,
                    "time": 540.1249800000086,
                    "velocity": 0.3858267716535433,
                    "duration": 0.10978150000005371
                },
                {
                    "name": "A6",
                    "midi": 93,
                    "time": 540.2347615000086,
                    "velocity": 0.3543307086614173,
                    "duration": 0.10978150000005371
                },
                {
                    "name": "G6",
                    "midi": 91,
                    "time": 540.3445430000087,
                    "velocity": 0.3543307086614173,
                    "duration": 0.10978150000005371
                },
                {
                    "name": "D#6",
                    "midi": 87,
                    "time": 540.4543245000087,
                    "velocity": 0.3464566929133858,
                    "duration": 0.10978150000005371
                },
                {
                    "name": "C6",
                    "midi": 84,
                    "time": 540.5641060000088,
                    "velocity": 0.3464566929133858,
                    "duration": 0.10978150000005371
                },
                {
                    "name": "A#5",
                    "midi": 82,
                    "time": 540.6738875000088,
                    "velocity": 0.3464566929133858,
                    "duration": 0.10978150000005371
                },
                {
                    "name": "A5",
                    "midi": 81,
                    "time": 540.7836690000089,
                    "velocity": 0.3464566929133858,
                    "duration": 0.10978150000005371
                },
                {
                    "name": "G5",
                    "midi": 79,
                    "time": 540.893450500009,
                    "velocity": 0.33858267716535434,
                    "duration": 0.10978150000005371
                },
                {
                    "name": "F5",
                    "midi": 77,
                    "time": 541.003232000009,
                    "velocity": 0.33858267716535434,
                    "duration": 0.10978150000005371
                },
                {
                    "name": "D#5",
                    "midi": 75,
                    "time": 541.1130135000091,
                    "velocity": 0.33858267716535434,
                    "duration": 0.10978150000005371
                },
                {
                    "name": "D5",
                    "midi": 74,
                    "time": 541.2227950000091,
                    "velocity": 0.33858267716535434,
                    "duration": 0.10978150000005371
                },
                {
                    "name": "C5",
                    "midi": 72,
                    "time": 541.3325765000092,
                    "velocity": 0.33858267716535434,
                    "duration": 0.10978150000005371
                },
                {
                    "name": "A#4",
                    "midi": 70,
                    "time": 541.4423580000092,
                    "velocity": 0.3543307086614173,
                    "duration": 0.10978150000005371
                },
                {
                    "name": "D5",
                    "midi": 74,
                    "time": 541.5521395000093,
                    "velocity": 0.36220472440944884,
                    "duration": 0.10978150000005371
                },
                {
                    "name": "F5",
                    "midi": 77,
                    "time": 541.6619210000093,
                    "velocity": 0.36220472440944884,
                    "duration": 0.10978150000005371
                },
                {
                    "name": "A#5",
                    "midi": 82,
                    "time": 541.7717025000094,
                    "velocity": 0.3779527559055118,
                    "duration": 0.10978150000005371
                },
                {
                    "name": "D6",
                    "midi": 86,
                    "time": 541.8814840000094,
                    "velocity": 0.3779527559055118,
                    "duration": 0.10978150000005371
                },
                {
                    "name": "C6",
                    "midi": 84,
                    "time": 541.9912655000095,
                    "velocity": 0.3700787401574803,
                    "duration": 0.10978150000005371
                },
                {
                    "name": "A#5",
                    "midi": 82,
                    "time": 542.1010470000095,
                    "velocity": 0.3700787401574803,
                    "duration": 0.10978150000005371
                },
                {
                    "name": "A5",
                    "midi": 81,
                    "time": 542.2108285000096,
                    "velocity": 0.3543307086614173,
                    "duration": 0.10978150000005371
                },
                {
                    "name": "G5",
                    "midi": 79,
                    "time": 542.3206100000097,
                    "velocity": 0.3464566929133858,
                    "duration": 0.10978150000005371
                },
                {
                    "name": "F5",
                    "midi": 77,
                    "time": 542.4303915000097,
                    "velocity": 0.33070866141732286,
                    "duration": 0.10978150000005371
                },
                {
                    "name": "D#5",
                    "midi": 75,
                    "time": 542.5401730000098,
                    "velocity": 0.31496062992125984,
                    "duration": 0.10978150000005371
                },
                {
                    "name": "D5",
                    "midi": 74,
                    "time": 542.6499545000098,
                    "velocity": 0.2992125984251969,
                    "duration": 0.10978150000005371
                },
                {
                    "name": "C5",
                    "midi": 72,
                    "time": 542.7597360000099,
                    "velocity": 0.33070866141732286,
                    "duration": 0.10978150000005371
                },
                {
                    "name": "A5",
                    "midi": 81,
                    "time": 542.8695175000099,
                    "velocity": 0.3543307086614173,
                    "duration": 0.10978150000005371
                },
                {
                    "name": "G5",
                    "midi": 79,
                    "time": 542.97929900001,
                    "velocity": 0.3464566929133858,
                    "duration": 0.10978150000005371
                },
                {
                    "name": "D#5",
                    "midi": 75,
                    "time": 543.08908050001,
                    "velocity": 0.33858267716535434,
                    "duration": 0.10978150000005371
                },
                {
                    "name": "C5",
                    "midi": 72,
                    "time": 543.1988620000101,
                    "velocity": 0.3228346456692913,
                    "duration": 0.10978150000005371
                },
                {
                    "name": "A#4",
                    "midi": 70,
                    "time": 543.3086435000101,
                    "velocity": 0.31496062992125984,
                    "duration": 0.10978150000005371
                },
                {
                    "name": "A4",
                    "midi": 69,
                    "time": 543.4184250000102,
                    "velocity": 0.30708661417322836,
                    "duration": 0.10978150000005371
                },
                {
                    "name": "G4",
                    "midi": 67,
                    "time": 543.5282065000102,
                    "velocity": 0.29133858267716534,
                    "duration": 0.10978150000005371
                },
                {
                    "name": "F4",
                    "midi": 65,
                    "time": 543.6379880000103,
                    "velocity": 0.28346456692913385,
                    "duration": 0.10978150000005371
                },
                {
                    "name": "D#4",
                    "midi": 63,
                    "time": 543.7477695000103,
                    "velocity": 0.29133858267716534,
                    "duration": 0.10978150000005371
                },
                {
                    "name": "D4",
                    "midi": 62,
                    "time": 543.8575510000104,
                    "velocity": 0.28346456692913385,
                    "duration": 0.10978150000005371
                },
                {
                    "name": "C4",
                    "midi": 60,
                    "time": 543.9673325000105,
                    "velocity": 0.2755905511811024,
                    "duration": 0.10978150000005371
                },
                {
                    "name": "A#3",
                    "midi": 58,
                    "time": 544.0771140000105,
                    "velocity": 0.2677165354330709,
                    "duration": 0.10978150000005371
                },
                {
                    "name": "D4",
                    "midi": 62,
                    "time": 544.1868955000106,
                    "velocity": 0.30708661417322836,
                    "duration": 0.10978150000005371
                },
                {
                    "name": "F4",
                    "midi": 65,
                    "time": 544.2966770000106,
                    "velocity": 0.2992125984251969,
                    "duration": 0.10978150000005371
                },
                {
                    "name": "A#4",
                    "midi": 70,
                    "time": 544.4064585000107,
                    "velocity": 0.29133858267716534,
                    "duration": 0.10978150000005371
                },
                {
                    "name": "D5",
                    "midi": 74,
                    "time": 544.5162400000107,
                    "velocity": 0.28346456692913385,
                    "duration": 0.10978150000005371
                },
                {
                    "name": "C5",
                    "midi": 72,
                    "time": 544.6260215000108,
                    "velocity": 0.2755905511811024,
                    "duration": 0.10978150000005371
                },
                {
                    "name": "A#4",
                    "midi": 70,
                    "time": 544.7358030000108,
                    "velocity": 0.2677165354330709,
                    "duration": 0.10978150000005371
                },
                {
                    "name": "A4",
                    "midi": 69,
                    "time": 544.8455845000109,
                    "velocity": 0.25984251968503935,
                    "duration": 0.10978150000005371
                },
                {
                    "name": "G4",
                    "midi": 67,
                    "time": 544.9553660000109,
                    "velocity": 0.25196850393700787,
                    "duration": 0.10978150000005371
                },
                {
                    "name": "F4",
                    "midi": 65,
                    "time": 545.065147500011,
                    "velocity": 0.2440944881889764,
                    "duration": 0.10978150000005371
                },
                {
                    "name": "D#4",
                    "midi": 63,
                    "time": 545.174929000011,
                    "velocity": 0.23622047244094488,
                    "duration": 0.10978150000005371
                },
                {
                    "name": "D4",
                    "midi": 62,
                    "time": 545.2847105000111,
                    "velocity": 0.2283464566929134,
                    "duration": 0.10978150000005371
                },
                {
                    "name": "C4",
                    "midi": 60,
                    "time": 545.3944920000112,
                    "velocity": 0.2125984251968504,
                    "duration": 0.10978150000005371
                },
                {
                    "name": "A4",
                    "midi": 69,
                    "time": 545.5042735000112,
                    "velocity": 0.2440944881889764,
                    "duration": 0.10978150000005371
                },
                {
                    "name": "G4",
                    "midi": 67,
                    "time": 545.6140550000113,
                    "velocity": 0.2440944881889764,
                    "duration": 0.10978150000005371
                },
                {
                    "name": "D#4",
                    "midi": 63,
                    "time": 545.7238365000113,
                    "velocity": 0.23622047244094488,
                    "duration": 0.10978150000005371
                },
                {
                    "name": "C4",
                    "midi": 60,
                    "time": 545.8336180000114,
                    "velocity": 0.2283464566929134,
                    "duration": 0.10978150000005371
                },
                {
                    "name": "A#3",
                    "midi": 58,
                    "time": 545.9433995000114,
                    "velocity": 0.2283464566929134,
                    "duration": 0.10978150000005371
                },
                {
                    "name": "A3",
                    "midi": 57,
                    "time": 546.0531810000115,
                    "velocity": 0.2204724409448819,
                    "duration": 0.054890750000026856
                },
                {
                    "name": "G3",
                    "midi": 55,
                    "time": 546.1629625000115,
                    "velocity": 0.2125984251968504,
                    "duration": 0.054890750000026856
                },
                {
                    "name": "F3",
                    "midi": 53,
                    "time": 546.2727440000116,
                    "velocity": 0.2125984251968504,
                    "duration": 0.054890750000026856
                },
                {
                    "name": "D#3",
                    "midi": 51,
                    "time": 546.3825255000116,
                    "velocity": 0.2047244094488189,
                    "duration": 0.054890750000026856
                },
                {
                    "name": "D3",
                    "midi": 50,
                    "time": 546.4923070000117,
                    "velocity": 0.1968503937007874,
                    "duration": 0.054890750000026856
                },
                {
                    "name": "C3",
                    "midi": 48,
                    "time": 546.6020885000117,
                    "velocity": 0.1968503937007874,
                    "duration": 0.054890750000026856
                },
                {
                    "name": "F3",
                    "midi": 53,
                    "time": 547.6999035000118,
                    "velocity": 0.28346456692913385,
                    "duration": 0.32934450000004745
                },
                {
                    "name": "D3",
                    "midi": 50,
                    "time": 548.0292480000119,
                    "velocity": 0.2677165354330709,
                    "duration": 0.5928201000000399
                },
                {
                    "name": "F3",
                    "midi": 53,
                    "time": 548.0292480000119,
                    "velocity": 0.2677165354330709,
                    "duration": 0.5928201000000399
                },
                {
                    "name": "D4",
                    "midi": 62,
                    "time": 548.0292480000119,
                    "velocity": 0.31496062992125984,
                    "duration": 0.5928201000000399
                },
                {
                    "name": "D3",
                    "midi": 50,
                    "time": 548.687937000012,
                    "velocity": 0.2677165354330709,
                    "duration": 0.2964100499999631
                },
                {
                    "name": "F3",
                    "midi": 53,
                    "time": 548.687937000012,
                    "velocity": 0.2677165354330709,
                    "duration": 0.2964100499999631
                },
                {
                    "name": "D4",
                    "midi": 62,
                    "time": 548.687937000012,
                    "velocity": 0.31496062992125984,
                    "duration": 0.2964100499999631
                },
                {
                    "name": "D3",
                    "midi": 50,
                    "time": 549.0172815000119,
                    "velocity": 0.23622047244094488,
                    "duration": 0.2964100499999631
                },
                {
                    "name": "F3",
                    "midi": 53,
                    "time": 549.0172815000119,
                    "velocity": 0.23622047244094488,
                    "duration": 0.2964100499999631
                },
                {
                    "name": "D4",
                    "midi": 62,
                    "time": 549.0172815000119,
                    "velocity": 0.28346456692913385,
                    "duration": 0.2964100499999631
                },
                {
                    "name": "D3",
                    "midi": 50,
                    "time": 549.3466260000118,
                    "velocity": 0.2677165354330709,
                    "duration": 0.5928201000000399
                },
                {
                    "name": "F3",
                    "midi": 53,
                    "time": 549.3466260000118,
                    "velocity": 0.2677165354330709,
                    "duration": 0.5928201000000399
                },
                {
                    "name": "A#3",
                    "midi": 58,
                    "time": 549.3466260000118,
                    "velocity": 0.31496062992125984,
                    "duration": 0.5928201000000399
                },
                {
                    "name": "D3",
                    "midi": 50,
                    "time": 550.0053150000119,
                    "velocity": 0.23622047244094488,
                    "duration": 0.5928201000000399
                },
                {
                    "name": "F3",
                    "midi": 53,
                    "time": 550.0053150000119,
                    "velocity": 0.23622047244094488,
                    "duration": 0.5928201000000399
                },
                {
                    "name": "A#3",
                    "midi": 58,
                    "time": 550.0053150000119,
                    "velocity": 0.28346456692913385,
                    "duration": 0.5928201000000399
                },
                {
                    "name": "F3",
                    "midi": 53,
                    "time": 550.664004000012,
                    "velocity": 0.2677165354330709,
                    "duration": 0.5928201000000399
                },
                {
                    "name": "D#3",
                    "midi": 51,
                    "time": 550.664004000012,
                    "velocity": 0.2677165354330709,
                    "duration": 0.5928201000000399
                },
                {
                    "name": "A3",
                    "midi": 57,
                    "time": 550.664004000012,
                    "velocity": 0.31496062992125984,
                    "duration": 0.5928201000000399
                },
                {
                    "name": "D#3",
                    "midi": 51,
                    "time": 551.3226930000121,
                    "velocity": 0.23622047244094488,
                    "duration": 0.2964100499999631
                },
                {
                    "name": "F3",
                    "midi": 53,
                    "time": 551.3226930000121,
                    "velocity": 0.23622047244094488,
                    "duration": 0.2964100499999631
                },
                {
                    "name": "A3",
                    "midi": 57,
                    "time": 551.3226930000121,
                    "velocity": 0.28346456692913385,
                    "duration": 0.2964100499999631
                },
                {
                    "name": "D#3",
                    "midi": 51,
                    "time": 551.652037500012,
                    "velocity": 0.25984251968503935,
                    "duration": 0.2964100499999631
                },
                {
                    "name": "F3",
                    "midi": 53,
                    "time": 551.652037500012,
                    "velocity": 0.25984251968503935,
                    "duration": 0.2964100499999631
                },
                {
                    "name": "A3",
                    "midi": 57,
                    "time": 551.652037500012,
                    "velocity": 0.30708661417322836,
                    "duration": 0.2964100499999631
                },
                {
                    "name": "D#4",
                    "midi": 63,
                    "time": 551.981382000012,
                    "velocity": 0.36220472440944884,
                    "duration": 1.3173779999999624
                },
                {
                    "name": "C4",
                    "midi": 60,
                    "time": 551.981382000012,
                    "velocity": 0.2992125984251969,
                    "duration": 1.3173779999999624
                },
                {
                    "name": "A#3",
                    "midi": 58,
                    "time": 553.298760000012,
                    "velocity": 0.2677165354330709,
                    "duration": 0.5928201000000399
                },
                {
                    "name": "F3",
                    "midi": 53,
                    "time": 553.298760000012,
                    "velocity": 0.2677165354330709,
                    "duration": 0.5928201000000399
                },
                {
                    "name": "D4",
                    "midi": 62,
                    "time": 553.298760000012,
                    "velocity": 0.31496062992125984,
                    "duration": 0.5928201000000399
                },
                {
                    "name": "G3",
                    "midi": 55,
                    "time": 553.957449000012,
                    "velocity": 0.23622047244094488,
                    "duration": 0.2964100499999631
                },
                {
                    "name": "F3",
                    "midi": 53,
                    "time": 553.957449000012,
                    "velocity": 0.23622047244094488,
                    "duration": 0.2964100499999631
                },
                {
                    "name": "B3",
                    "midi": 59,
                    "time": 553.957449000012,
                    "velocity": 0.23622047244094488,
                    "duration": 0.2964100499999631
                },
                {
                    "name": "D4",
                    "midi": 62,
                    "time": 553.957449000012,
                    "velocity": 0.28346456692913385,
                    "duration": 0.2964100499999631
                },
                {
                    "name": "G3",
                    "midi": 55,
                    "time": 554.286793500012,
                    "velocity": 0.25984251968503935,
                    "duration": 0.2964100499999631
                },
                {
                    "name": "F3",
                    "midi": 53,
                    "time": 554.286793500012,
                    "velocity": 0.25984251968503935,
                    "duration": 0.2964100499999631
                },
                {
                    "name": "B3",
                    "midi": 59,
                    "time": 554.286793500012,
                    "velocity": 0.25984251968503935,
                    "duration": 0.2964100499999631
                },
                {
                    "name": "D4",
                    "midi": 62,
                    "time": 554.286793500012,
                    "velocity": 0.30708661417322836,
                    "duration": 0.2964100499999631
                },
                {
                    "name": "D4",
                    "midi": 62,
                    "time": 554.6161380000119,
                    "velocity": 0.3543307086614173,
                    "duration": 0.6586889999999812
                },
                {
                    "name": "G3",
                    "midi": 55,
                    "time": 554.6161380000119,
                    "velocity": 0.36220472440944884,
                    "duration": 0.6586889999999812
                },
                {
                    "name": "D#3",
                    "midi": 51,
                    "time": 554.6161380000119,
                    "velocity": 0.2992125984251969,
                    "duration": 1.3173779999999624
                },
                {
                    "name": "G3",
                    "midi": 55,
                    "time": 555.2748270000119,
                    "velocity": 0.2992125984251969,
                    "duration": 0.6586889999999812
                },
                {
                    "name": "D#3",
                    "midi": 51,
                    "time": 555.9335160000119,
                    "velocity": 0.2992125984251969,
                    "duration": 1.3173779999998487
                },
                {
                    "name": "A3",
                    "midi": 57,
                    "time": 555.9335160000119,
                    "velocity": 0.2992125984251969,
                    "duration": 1.3173779999998487
                },
                {
                    "name": "C4",
                    "midi": 60,
                    "time": 555.9335160000119,
                    "velocity": 0.29133858267716534,
                    "duration": 0.32934450000004745
                },
                {
                    "name": "B3",
                    "midi": 59,
                    "time": 556.2628605000119,
                    "velocity": 0.25984251968503935,
                    "duration": 0.16467224999996688
                },
                {
                    "name": "C4",
                    "midi": 60,
                    "time": 556.4275327500119,
                    "velocity": 0.1968503937007874,
                    "duration": 0.16467224999996688
                },
                {
                    "name": "B3",
                    "midi": 59,
                    "time": 556.5922050000119,
                    "velocity": 0.25196850393700787,
                    "duration": 0.16467224999996688
                },
                {
                    "name": "C4",
                    "midi": 60,
                    "time": 556.7568772500118,
                    "velocity": 0.1889763779527559,
                    "duration": 0.16467224999996688
                },
                {
                    "name": "D4",
                    "midi": 62,
                    "time": 556.9215495000118,
                    "velocity": 0.29133858267716534,
                    "duration": 0.24700837499995032
                },
                {
                    "name": "C4",
                    "midi": 60,
                    "time": 557.1685578750117,
                    "velocity": 0.2677165354330709,
                    "duration": 0.08233612499998344
                },
                {
                    "name": "D3",
                    "midi": 50,
                    "time": 557.2508940000117,
                    "velocity": 0.1968503937007874,
                    "duration": 1.3173779999999624
                },
                {
                    "name": "A#3",
                    "midi": 58,
                    "time": 557.2508940000117,
                    "velocity": 0.23622047244094488,
                    "duration": 1.3173779999999624
                },
                {
                    "name": "D4",
                    "midi": 62,
                    "time": 558.5682720000117,
                    "velocity": 0.2677165354330709,
                    "duration": 0.5928201000000399
                },
                {
                    "name": "A#4",
                    "midi": 70,
                    "time": 558.5682720000117,
                    "velocity": 0.2677165354330709,
                    "duration": 0.5928201000000399
                },
                {
                    "name": "F4",
                    "midi": 65,
                    "time": 558.5682720000117,
                    "velocity": 0.2677165354330709,
                    "duration": 0.5928201000000399
                },
                {
                    "name": "D5",
                    "midi": 74,
                    "time": 558.5682720000117,
                    "velocity": 0.31496062992125984,
                    "duration": 0.5928201000000399
                },
                {
                    "name": "G4",
                    "midi": 67,
                    "time": 559.2269610000118,
                    "velocity": 0.23622047244094488,
                    "duration": 0.2964100499999631
                },
                {
                    "name": "F4",
                    "midi": 65,
                    "time": 559.2269610000118,
                    "velocity": 0.23622047244094488,
                    "duration": 0.2964100499999631
                },
                {
                    "name": "B4",
                    "midi": 71,
                    "time": 559.2269610000118,
                    "velocity": 0.23622047244094488,
                    "duration": 0.2964100499999631
                },
                {
                    "name": "D5",
                    "midi": 74,
                    "time": 559.2269610000118,
                    "velocity": 0.28346456692913385,
                    "duration": 0.2964100499999631
                },
                {
                    "name": "G4",
                    "midi": 67,
                    "time": 559.5563055000117,
                    "velocity": 0.25984251968503935,
                    "duration": 0.2964100499999631
                },
                {
                    "name": "F4",
                    "midi": 65,
                    "time": 559.5563055000117,
                    "velocity": 0.25984251968503935,
                    "duration": 0.2964100499999631
                },
                {
                    "name": "B4",
                    "midi": 71,
                    "time": 559.5563055000117,
                    "velocity": 0.25984251968503935,
                    "duration": 0.2964100499999631
                },
                {
                    "name": "D5",
                    "midi": 74,
                    "time": 559.5563055000117,
                    "velocity": 0.30708661417322836,
                    "duration": 0.2964100499999631
                },
                {
                    "name": "D5",
                    "midi": 74,
                    "time": 559.8856500000117,
                    "velocity": 0.3543307086614173,
                    "duration": 0.6586889999999812
                },
                {
                    "name": "G4",
                    "midi": 67,
                    "time": 559.8856500000117,
                    "velocity": 0.36220472440944884,
                    "duration": 0.6586889999999812
                },
                {
                    "name": "D#4",
                    "midi": 63,
                    "time": 559.8856500000117,
                    "velocity": 0.2992125984251969,
                    "duration": 1.3173779999999624
                },
                {
                    "name": "G4",
                    "midi": 67,
                    "time": 560.5443390000116,
                    "velocity": 0.2992125984251969,
                    "duration": 0.6586889999999812
                },
                {
                    "name": "D#4",
                    "midi": 63,
                    "time": 561.2030280000116,
                    "velocity": 0.2992125984251969,
                    "duration": 1.3173779999998487
                },
                {
                    "name": "A4",
                    "midi": 69,
                    "time": 561.2030280000116,
                    "velocity": 0.2992125984251969,
                    "duration": 1.3173779999998487
                },
                {
                    "name": "C5",
                    "midi": 72,
                    "time": 561.2030280000116,
                    "velocity": 0.29133858267716534,
                    "duration": 0.32934450000004745
                },
                {
                    "name": "B4",
                    "midi": 71,
                    "time": 561.5323725000117,
                    "velocity": 0.29133858267716534,
                    "duration": 0.16467224999996688
                },
                {
                    "name": "C5",
                    "midi": 72,
                    "time": 561.6970447500116,
                    "velocity": 0.2204724409448819,
                    "duration": 0.16467224999996688
                },
                {
                    "name": "B4",
                    "midi": 71,
                    "time": 561.8617170000116,
                    "velocity": 0.28346456692913385,
                    "duration": 0.16467224999996688
                },
                {
                    "name": "C5",
                    "midi": 72,
                    "time": 562.0263892500116,
                    "velocity": 0.2204724409448819,
                    "duration": 0.16467224999996688
                },
                {
                    "name": "D5",
                    "midi": 74,
                    "time": 562.1910615000115,
                    "velocity": 0.29133858267716534,
                    "duration": 0.24700837499995032
                },
                {
                    "name": "C5",
                    "midi": 72,
                    "time": 562.4380698750115,
                    "velocity": 0.2677165354330709,
                    "duration": 0.08233612499998344
                },
                {
                    "name": "D4",
                    "midi": 62,
                    "time": 562.5204060000115,
                    "velocity": 0.1968503937007874,
                    "duration": 1.3173779999999624
                },
                {
                    "name": "A#4",
                    "midi": 70,
                    "time": 562.5204060000115,
                    "velocity": 0.23622047244094488,
                    "duration": 1.3173779999999624
                },
                {
                    "name": "D#5",
                    "midi": 75,
                    "time": 563.8377840000114,
                    "velocity": 0.2992125984251969,
                    "duration": 1.6467225000000099
                },
                {
                    "name": "A5",
                    "midi": 81,
                    "time": 563.8377840000114,
                    "velocity": 0.2992125984251969,
                    "duration": 1.6467225000000099
                },
                {
                    "name": "C6",
                    "midi": 84,
                    "time": 563.8377840000114,
                    "velocity": 0.29133858267716534,
                    "duration": 1.6467225000000099
                },
                {
                    "name": "B5",
                    "midi": 83,
                    "time": 565.4845065000114,
                    "velocity": 0.29133858267716534,
                    "duration": 0.16467224999996688
                },
                {
                    "name": "C6",
                    "midi": 84,
                    "time": 565.6491787500114,
                    "velocity": 0.23622047244094488,
                    "duration": 0.16467224999996688
                },
                {
                    "name": "B5",
                    "midi": 83,
                    "time": 565.8138510000114,
                    "velocity": 0.29133858267716534,
                    "duration": 0.16467224999996688
                },
                {
                    "name": "C6",
                    "midi": 84,
                    "time": 565.9785232500113,
                    "velocity": 0.25196850393700787,
                    "duration": 0.16467224999996688
                },
                {
                    "name": "D#6",
                    "midi": 87,
                    "time": 566.1431955000113,
                    "velocity": 0.33858267716535434,
                    "duration": 0.24700837499995032
                },
                {
                    "name": "A5",
                    "midi": 81,
                    "time": 566.3902038750113,
                    "velocity": 0.2677165354330709,
                    "duration": 0.08233612499998344
                },
                {
                    "name": "D5",
                    "midi": 74,
                    "time": 566.4725400000112,
                    "velocity": 0.1968503937007874,
                    "duration": 0.6586889999999812
                },
                {
                    "name": "A#5",
                    "midi": 82,
                    "time": 566.4725400000112,
                    "velocity": 0.23622047244094488,
                    "duration": 0.6586889999999812
                },
                {
                    "name": "D4",
                    "midi": 62,
                    "time": 567.7899180000112,
                    "velocity": 0.1968503937007874,
                    "duration": 0.6586889999999812
                },
                {
                    "name": "F4",
                    "midi": 65,
                    "time": 567.7899180000112,
                    "velocity": 0.1968503937007874,
                    "duration": 0.6586889999999812
                },
                {
                    "name": "A#4",
                    "midi": 70,
                    "time": 567.7899180000112,
                    "velocity": 0.1968503937007874,
                    "duration": 0.6586889999999812
                },
                {
                    "name": "D5",
                    "midi": 74,
                    "time": 567.7899180000112,
                    "velocity": 0.23622047244094488,
                    "duration": 0.6586889999999812
                },
                {
                    "name": "D4",
                    "midi": 62,
                    "time": 569.1072960000112,
                    "velocity": 0.1968503937007874,
                    "duration": 2.6347560000000385
                },
                {
                    "name": "F4",
                    "midi": 65,
                    "time": 569.1072960000112,
                    "velocity": 0.1968503937007874,
                    "duration": 2.6347560000000385
                },
                {
                    "name": "A#4",
                    "midi": 70,
                    "time": 569.1072960000112,
                    "velocity": 0.23622047244094488,
                    "duration": 2.6347560000000385
                }
            ],
            "controlChanges": {},
            "id": 1,
            "name": "Piano right",
            "instrumentNumber": 0,
            "instrument": "acoustic grand piano",
            "instrumentFamily": "piano",
            "channelNumber": 0,
            "isPercussion": false
        },
        {
            "startTime": 0,
            "duration": 571.7420520000084,
            "length": 3186,
            "notes": [
                {
                    "name": "A#2",
                    "midi": 46,
                    "time": 0,
                    "velocity": 0.2755905511811024,
                    "duration": 0.16467225
                },
                {
                    "name": "D4",
                    "midi": 62,
                    "time": 0.3293445,
                    "velocity": 0.1889763779527559,
                    "duration": 0.3293445
                },
                {
                    "name": "F3",
                    "midi": 53,
                    "time": 0.658689,
                    "velocity": 0.1732283464566929,
                    "duration": 0.32934450000000004
                },
                {
                    "name": "A#3",
                    "midi": 58,
                    "time": 0.658689,
                    "velocity": 0.2125984251968504,
                    "duration": 0.32934450000000004
                },
                {
                    "name": "D4",
                    "midi": 62,
                    "time": 0.9880335,
                    "velocity": 0.1968503937007874,
                    "duration": 0.32934449999999993
                },
                {
                    "name": "D3",
                    "midi": 50,
                    "time": 1.317378,
                    "velocity": 0.2755905511811024,
                    "duration": 0.16467224999999996
                },
                {
                    "name": "F4",
                    "midi": 65,
                    "time": 1.6467224999999999,
                    "velocity": 0.2125984251968504,
                    "duration": 0.32934449999999993
                },
                {
                    "name": "A#3",
                    "midi": 58,
                    "time": 1.9760669999999998,
                    "velocity": 0.23622047244094488,
                    "duration": 0.32934450000000015
                },
                {
                    "name": "F3",
                    "midi": 53,
                    "time": 1.9760669999999998,
                    "velocity": 0.1968503937007874,
                    "duration": 0.32934450000000015
                },
                {
                    "name": "F4",
                    "midi": 65,
                    "time": 2.3054115,
                    "velocity": 0.2125984251968504,
                    "duration": 0.32934449999999993
                },
                {
                    "name": "C3",
                    "midi": 48,
                    "time": 2.634756,
                    "velocity": 0.2755905511811024,
                    "duration": 0.1646722500000002
                },
                {
                    "name": "D#4",
                    "midi": 63,
                    "time": 2.9641005000000002,
                    "velocity": 0.2047244094488189,
                    "duration": 0.32934449999999993
                },
                {
                    "name": "F3",
                    "midi": 53,
                    "time": 3.293445,
                    "velocity": 0.1889763779527559,
                    "duration": 0.32934449999999993
                },
                {
                    "name": "A3",
                    "midi": 57,
                    "time": 3.293445,
                    "velocity": 0.2283464566929134,
                    "duration": 0.32934449999999993
                },
                {
                    "name": "D#4",
                    "midi": 63,
                    "time": 3.6227895,
                    "velocity": 0.2047244094488189,
                    "duration": 0.32934449999999993
                },
                {
                    "name": "F2",
                    "midi": 41,
                    "time": 3.952134,
                    "velocity": 0.2755905511811024,
                    "duration": 0.16467224999999974
                },
                {
                    "name": "C4",
                    "midi": 60,
                    "time": 4.2814784999999995,
                    "velocity": 0.18110236220472442,
                    "duration": 0.3293445000000004
                },
                {
                    "name": "A3",
                    "midi": 57,
                    "time": 4.610823,
                    "velocity": 0.18110236220472442,
                    "duration": 0.3293445000000004
                },
                {
                    "name": "F3",
                    "midi": 53,
                    "time": 4.610823,
                    "velocity": 0.14960629921259844,
                    "duration": 0.3293445000000004
                },
                {
                    "name": "C4",
                    "midi": 60,
                    "time": 4.9401675,
                    "velocity": 0.18110236220472442,
                    "duration": 0.3293445000000004
                },
                {
                    "name": "A#2",
                    "midi": 46,
                    "time": 5.269512000000001,
                    "velocity": 0.2755905511811024,
                    "duration": 0.16467224999999974
                },
                {
                    "name": "D4",
                    "midi": 62,
                    "time": 5.5988565,
                    "velocity": 0.1889763779527559,
                    "duration": 0.3293445000000004
                },
                {
                    "name": "F3",
                    "midi": 53,
                    "time": 5.9282010000000005,
                    "velocity": 0.1732283464566929,
                    "duration": 0.3293445000000004
                },
                {
                    "name": "A#3",
                    "midi": 58,
                    "time": 5.9282010000000005,
                    "velocity": 0.2125984251968504,
                    "duration": 0.3293445000000004
                },
                {
                    "name": "D4",
                    "midi": 62,
                    "time": 6.257545500000001,
                    "velocity": 0.1968503937007874,
                    "duration": 0.3293445000000004
                },
                {
                    "name": "D#2",
                    "midi": 39,
                    "time": 6.586890000000001,
                    "velocity": 0.2755905511811024,
                    "duration": 0.16467224999999974
                },
                {
                    "name": "C4",
                    "midi": 60,
                    "time": 6.916234500000001,
                    "velocity": 0.2125984251968504,
                    "duration": 0.3293445000000004
                },
                {
                    "name": "G3",
                    "midi": 55,
                    "time": 7.245579000000001,
                    "velocity": 0.1968503937007874,
                    "duration": 0.3293445000000004
                },
                {
                    "name": "A#3",
                    "midi": 58,
                    "time": 7.245579000000001,
                    "velocity": 0.23622047244094488,
                    "duration": 0.3293445000000004
                },
                {
                    "name": "D#3",
                    "midi": 51,
                    "time": 7.245579000000001,
                    "velocity": 0.1968503937007874,
                    "duration": 0.3293445000000004
                },
                {
                    "name": "C4",
                    "midi": 60,
                    "time": 7.5749235000000015,
                    "velocity": 0.2125984251968504,
                    "duration": 0.3293445000000004
                },
                {
                    "name": "E2",
                    "midi": 40,
                    "time": 7.904268000000002,
                    "velocity": 0.2755905511811024,
                    "duration": 0.16467225000000063
                },
                {
                    "name": "C4",
                    "midi": 60,
                    "time": 8.233612500000003,
                    "velocity": 0.2047244094488189,
                    "duration": 0.3293444999999995
                },
                {
                    "name": "A#3",
                    "midi": 58,
                    "time": 8.562957000000003,
                    "velocity": 0.2283464566929134,
                    "duration": 0.3293444999999995
                },
                {
                    "name": "G3",
                    "midi": 55,
                    "time": 8.562957000000003,
                    "velocity": 0.1889763779527559,
                    "duration": 0.3293444999999995
                },
                {
                    "name": "E3",
                    "midi": 52,
                    "time": 8.562957000000003,
                    "velocity": 0.1889763779527559,
                    "duration": 0.3293444999999995
                },
                {
                    "name": "C4",
                    "midi": 60,
                    "time": 8.892301500000002,
                    "velocity": 0.2047244094488189,
                    "duration": 0.3293444999999995
                },
                {
                    "name": "F2",
                    "midi": 41,
                    "time": 9.221646000000002,
                    "velocity": 0.2755905511811024,
                    "duration": 0.16467225000000063
                },
                {
                    "name": "F3",
                    "midi": 53,
                    "time": 9.550990500000003,
                    "velocity": 0.15748031496062992,
                    "duration": 0.9880334999999985
                },
                {
                    "name": "A3",
                    "midi": 57,
                    "time": 9.550990500000003,
                    "velocity": 0.1968503937007874,
                    "duration": 0.3293444999999995
                },
                {
                    "name": "A#3",
                    "midi": 58,
                    "time": 9.880335000000002,
                    "velocity": 0.18110236220472442,
                    "duration": 0.3293444999999995
                },
                {
                    "name": "C4",
                    "midi": 60,
                    "time": 10.209679500000002,
                    "velocity": 0.16535433070866143,
                    "duration": 0.3293444999999995
                },
                {
                    "name": "A#2",
                    "midi": 46,
                    "time": 10.539024000000001,
                    "velocity": 0.2755905511811024,
                    "duration": 0.3293444999999995
                },
                {
                    "name": "D4",
                    "midi": 62,
                    "time": 10.8683685,
                    "velocity": 0.1889763779527559,
                    "duration": 0.3293444999999995
                },
                {
                    "name": "A#3",
                    "midi": 58,
                    "time": 11.197713,
                    "velocity": 0.2125984251968504,
                    "duration": 0.3293444999999995
                },
                {
                    "name": "F3",
                    "midi": 53,
                    "time": 11.197713,
                    "velocity": 0.1732283464566929,
                    "duration": 0.3293444999999995
                },
                {
                    "name": "D4",
                    "midi": 62,
                    "time": 11.5270575,
                    "velocity": 0.1968503937007874,
                    "duration": 0.3293444999999995
                },
                {
                    "name": "D3",
                    "midi": 50,
                    "time": 11.856402,
                    "velocity": 0.2755905511811024,
                    "duration": 0.3293444999999995
                },
                {
                    "name": "F4",
                    "midi": 65,
                    "time": 12.185746499999999,
                    "velocity": 0.2125984251968504,
                    "duration": 0.3293444999999995
                },
                {
                    "name": "F3",
                    "midi": 53,
                    "time": 12.515090999999998,
                    "velocity": 0.1968503937007874,
                    "duration": 0.3293444999999995
                },
                {
                    "name": "A#3",
                    "midi": 58,
                    "time": 12.515090999999998,
                    "velocity": 0.23622047244094488,
                    "duration": 0.3293444999999995
                },
                {
                    "name": "F4",
                    "midi": 65,
                    "time": 12.844435499999998,
                    "velocity": 0.2125984251968504,
                    "duration": 0.3293444999999995
                },
                {
                    "name": "C3",
                    "midi": 48,
                    "time": 13.173779999999997,
                    "velocity": 0.2755905511811024,
                    "duration": 0.3293444999999995
                },
                {
                    "name": "D#4",
                    "midi": 63,
                    "time": 13.503124499999997,
                    "velocity": 0.2047244094488189,
                    "duration": 0.3293444999999995
                },
                {
                    "name": "A3",
                    "midi": 57,
                    "time": 13.832468999999996,
                    "velocity": 0.2283464566929134,
                    "duration": 0.3293444999999995
                },
                {
                    "name": "F3",
                    "midi": 53,
                    "time": 13.832468999999996,
                    "velocity": 0.1889763779527559,
                    "duration": 0.3293444999999995
                },
                {
                    "name": "D#4",
                    "midi": 63,
                    "time": 14.161813499999996,
                    "velocity": 0.2047244094488189,
                    "duration": 0.3293444999999995
                },
                {
                    "name": "F2",
                    "midi": 41,
                    "time": 14.491157999999995,
                    "velocity": 0.2755905511811024,
                    "duration": 0.3293444999999995
                },
                {
                    "name": "C4",
                    "midi": 60,
                    "time": 14.820502499999995,
                    "velocity": 0.18110236220472442,
                    "duration": 0.3293444999999995
                },
                {
                    "name": "A3",
                    "midi": 57,
                    "time": 15.149846999999994,
                    "velocity": 0.18110236220472442,
                    "duration": 0.3293444999999995
                },
                {
                    "name": "F3",
                    "midi": 53,
                    "time": 15.149846999999994,
                    "velocity": 0.14960629921259844,
                    "duration": 0.3293444999999995
                },
                {
                    "name": "C4",
                    "midi": 60,
                    "time": 15.479191499999994,
                    "velocity": 0.18110236220472442,
                    "duration": 0.3293444999999995
                },
                {
                    "name": "A#2",
                    "midi": 46,
                    "time": 15.808535999999993,
                    "velocity": 0.2755905511811024,
                    "duration": 0.32934450000000126
                },
                {
                    "name": "D4",
                    "midi": 62,
                    "time": 16.137880499999994,
                    "velocity": 0.1889763779527559,
                    "duration": 0.32934450000000126
                },
                {
                    "name": "F3",
                    "midi": 53,
                    "time": 16.467224999999996,
                    "velocity": 0.1732283464566929,
                    "duration": 0.32934450000000126
                },
                {
                    "name": "A#3",
                    "midi": 58,
                    "time": 16.467224999999996,
                    "velocity": 0.2125984251968504,
                    "duration": 0.32934450000000126
                },
                {
                    "name": "D4",
                    "midi": 62,
                    "time": 16.796569499999997,
                    "velocity": 0.1968503937007874,
                    "duration": 0.32934450000000126
                },
                {
                    "name": "E2",
                    "midi": 40,
                    "time": 17.125913999999998,
                    "velocity": 0.2755905511811024,
                    "duration": 0.32934450000000126
                },
                {
                    "name": "C#4",
                    "midi": 61,
                    "time": 17.4552585,
                    "velocity": 0.2125984251968504,
                    "duration": 0.32934450000000126
                },
                {
                    "name": "E3",
                    "midi": 52,
                    "time": 17.784603,
                    "velocity": 0.1968503937007874,
                    "duration": 0.32934450000000126
                },
                {
                    "name": "G3",
                    "midi": 55,
                    "time": 17.784603,
                    "velocity": 0.1968503937007874,
                    "duration": 0.32934450000000126
                },
                {
                    "name": "A#3",
                    "midi": 58,
                    "time": 17.784603,
                    "velocity": 0.23622047244094488,
                    "duration": 0.32934450000000126
                },
                {
                    "name": "C#4",
                    "midi": 61,
                    "time": 18.113947500000002,
                    "velocity": 0.2125984251968504,
                    "duration": 0.32934450000000126
                },
                {
                    "name": "A#3",
                    "midi": 58,
                    "time": 18.443292000000003,
                    "velocity": 0.2755905511811024,
                    "duration": 0.32934450000000126
                },
                {
                    "name": "F3",
                    "midi": 53,
                    "time": 18.443292000000003,
                    "velocity": 0.2755905511811024,
                    "duration": 0.9880335000000002
                },
                {
                    "name": "C4",
                    "midi": 60,
                    "time": 18.443292000000003,
                    "velocity": 0.2283464566929134,
                    "duration": 0.9880335000000002
                },
                {
                    "name": "A3",
                    "midi": 57,
                    "time": 18.772636500000004,
                    "velocity": 0.1889763779527559,
                    "duration": 0.16467224999999885
                },
                {
                    "name": "G3",
                    "midi": 55,
                    "time": 18.937308750000003,
                    "velocity": 0.1889763779527559,
                    "duration": 0.16467224999999885
                },
                {
                    "name": "A3",
                    "midi": 57,
                    "time": 19.101981000000002,
                    "velocity": 0.2440944881889764,
                    "duration": 0.32934450000000126
                },
                {
                    "name": "F3",
                    "midi": 53,
                    "time": 19.431325500000003,
                    "velocity": 0.2047244094488189,
                    "duration": 0.32934450000000126
                },
                {
                    "name": "C4",
                    "midi": 60,
                    "time": 19.431325500000003,
                    "velocity": 0.2047244094488189,
                    "duration": 0.32934450000000126
                },
                {
                    "name": "A#2",
                    "midi": 46,
                    "time": 19.760670000000005,
                    "velocity": 0.23622047244094488,
                    "duration": 0.16467224999999885
                },
                {
                    "name": "A#3",
                    "midi": 58,
                    "time": 20.090014500000002,
                    "velocity": 0.1968503937007874,
                    "duration": 0.32934450000000126
                },
                {
                    "name": "F3",
                    "midi": 53,
                    "time": 20.419359000000004,
                    "velocity": 0.18110236220472442,
                    "duration": 0.32934450000000126
                },
                {
                    "name": "D3",
                    "midi": 50,
                    "time": 20.419359000000004,
                    "velocity": 0.14173228346456693,
                    "duration": 0.32934450000000126
                },
                {
                    "name": "A#3",
                    "midi": 58,
                    "time": 20.748703500000005,
                    "velocity": 0.16535433070866143,
                    "duration": 0.32934450000000126
                },
                {
                    "name": "A#2",
                    "midi": 46,
                    "time": 21.078048000000006,
                    "velocity": 0.2755905511811024,
                    "duration": 0.16467224999999885
                },
                {
                    "name": "D4",
                    "midi": 62,
                    "time": 21.407392500000004,
                    "velocity": 0.1889763779527559,
                    "duration": 0.32934450000000126
                },
                {
                    "name": "A#3",
                    "midi": 58,
                    "time": 21.736737000000005,
                    "velocity": 0.2125984251968504,
                    "duration": 0.32934450000000126
                },
                {
                    "name": "F3",
                    "midi": 53,
                    "time": 21.736737000000005,
                    "velocity": 0.1732283464566929,
                    "duration": 0.32934450000000126
                },
                {
                    "name": "D4",
                    "midi": 62,
                    "time": 22.066081500000006,
                    "velocity": 0.1968503937007874,
                    "duration": 0.32934450000000126
                },
                {
                    "name": "D3",
                    "midi": 50,
                    "time": 22.395426000000008,
                    "velocity": 0.2755905511811024,
                    "duration": 0.16467224999999885
                },
                {
                    "name": "F4",
                    "midi": 65,
                    "time": 22.724770500000005,
                    "velocity": 0.2125984251968504,
                    "duration": 0.32934450000000126
                },
                {
                    "name": "A#3",
                    "midi": 58,
                    "time": 23.054115000000007,
                    "velocity": 0.23622047244094488,
                    "duration": 0.32934450000000126
                },
                {
                    "name": "F3",
                    "midi": 53,
                    "time": 23.054115000000007,
                    "velocity": 0.1968503937007874,
                    "duration": 0.32934450000000126
                },
                {
                    "name": "F4",
                    "midi": 65,
                    "time": 23.383459500000008,
                    "velocity": 0.2125984251968504,
                    "duration": 0.32934450000000126
                },
                {
                    "name": "C3",
                    "midi": 48,
                    "time": 23.71280400000001,
                    "velocity": 0.2755905511811024,
                    "duration": 0.16467224999999885
                },
                {
                    "name": "D#4",
                    "midi": 63,
                    "time": 24.042148500000007,
                    "velocity": 0.2047244094488189,
                    "duration": 0.32934450000000126
                },
                {
                    "name": "A3",
                    "midi": 57,
                    "time": 24.371493000000008,
                    "velocity": 0.2283464566929134,
                    "duration": 0.32934450000000126
                },
                {
                    "name": "F3",
                    "midi": 53,
                    "time": 24.371493000000008,
                    "velocity": 0.1889763779527559,
                    "duration": 0.32934450000000126
                },
                {
                    "name": "D#4",
                    "midi": 63,
                    "time": 24.70083750000001,
                    "velocity": 0.2047244094488189,
                    "duration": 0.32934450000000126
                },
                {
                    "name": "F2",
                    "midi": 41,
                    "time": 25.03018200000001,
                    "velocity": 0.2755905511811024,
                    "duration": 0.16467224999999885
                },
                {
                    "name": "C4",
                    "midi": 60,
                    "time": 25.35952650000001,
                    "velocity": 0.18110236220472442,
                    "duration": 0.32934450000000126
                },
                {
                    "name": "F3",
                    "midi": 53,
                    "time": 25.68887100000001,
                    "velocity": 0.14960629921259844,
                    "duration": 0.32934450000000126
                },
                {
                    "name": "A3",
                    "midi": 57,
                    "time": 25.68887100000001,
                    "velocity": 0.18110236220472442,
                    "duration": 0.32934450000000126
                },
                {
                    "name": "C4",
                    "midi": 60,
                    "time": 26.01821550000001,
                    "velocity": 0.18110236220472442,
                    "duration": 0.32934450000000126
                },
                {
                    "name": "A#2",
                    "midi": 46,
                    "time": 26.347560000000012,
                    "velocity": 0.2755905511811024,
                    "duration": 0.16467224999999885
                },
                {
                    "name": "D4",
                    "midi": 62,
                    "time": 26.67690450000001,
                    "velocity": 0.1889763779527559,
                    "duration": 0.32934450000000126
                },
                {
                    "name": "F3",
                    "midi": 53,
                    "time": 27.00624900000001,
                    "velocity": 0.1732283464566929,
                    "duration": 0.32934450000000126
                },
                {
                    "name": "A#3",
                    "midi": 58,
                    "time": 27.00624900000001,
                    "velocity": 0.2125984251968504,
                    "duration": 0.32934450000000126
                },
                {
                    "name": "D4",
                    "midi": 62,
                    "time": 27.335593500000012,
                    "velocity": 0.1968503937007874,
                    "duration": 0.32934450000000126
                },
                {
                    "name": "D#2",
                    "midi": 39,
                    "time": 27.664938000000014,
                    "velocity": 0.2755905511811024,
                    "duration": 0.16467224999999885
                },
                {
                    "name": "C4",
                    "midi": 60,
                    "time": 27.99428250000001,
                    "velocity": 0.2125984251968504,
                    "duration": 0.32934450000000126
                },
                {
                    "name": "D#3",
                    "midi": 51,
                    "time": 28.323627000000013,
                    "velocity": 0.1968503937007874,
                    "duration": 0.32934450000000126
                },
                {
                    "name": "A#3",
                    "midi": 58,
                    "time": 28.323627000000013,
                    "velocity": 0.23622047244094488,
                    "duration": 0.32934450000000126
                },
                {
                    "name": "G3",
                    "midi": 55,
                    "time": 28.323627000000013,
                    "velocity": 0.1968503937007874,
                    "duration": 0.32934450000000126
                },
                {
                    "name": "C4",
                    "midi": 60,
                    "time": 28.652971500000014,
                    "velocity": 0.2125984251968504,
                    "duration": 0.32934450000000126
                },
                {
                    "name": "E2",
                    "midi": 40,
                    "time": 28.982316000000015,
                    "velocity": 0.2755905511811024,
                    "duration": 0.16467224999999885
                },
                {
                    "name": "C4",
                    "midi": 60,
                    "time": 29.311660500000013,
                    "velocity": 0.2047244094488189,
                    "duration": 0.32934450000000126
                },
                {
                    "name": "A#3",
                    "midi": 58,
                    "time": 29.641005000000014,
                    "velocity": 0.2283464566929134,
                    "duration": 0.32934450000000126
                },
                {
                    "name": "G3",
                    "midi": 55,
                    "time": 29.641005000000014,
                    "velocity": 0.1889763779527559,
                    "duration": 0.32934450000000126
                },
                {
                    "name": "E3",
                    "midi": 52,
                    "time": 29.641005000000014,
                    "velocity": 0.1889763779527559,
                    "duration": 0.32934450000000126
                },
                {
                    "name": "C4",
                    "midi": 60,
                    "time": 29.970349500000015,
                    "velocity": 0.2047244094488189,
                    "duration": 0.32934450000000126
                },
                {
                    "name": "F2",
                    "midi": 41,
                    "time": 30.299694000000017,
                    "velocity": 0.2755905511811024,
                    "duration": 0.16467224999999885
                },
                {
                    "name": "F3",
                    "midi": 53,
                    "time": 30.629038500000014,
                    "velocity": 0.15748031496062992,
                    "duration": 0.9880335000000038
                },
                {
                    "name": "A3",
                    "midi": 57,
                    "time": 30.629038500000014,
                    "velocity": 0.1968503937007874,
                    "duration": 0.32934450000000126
                },
                {
                    "name": "A#3",
                    "midi": 58,
                    "time": 30.958383000000016,
                    "velocity": 0.18110236220472442,
                    "duration": 0.32934450000000126
                },
                {
                    "name": "C4",
                    "midi": 60,
                    "time": 31.287727500000017,
                    "velocity": 0.16535433070866143,
                    "duration": 0.32934450000000126
                },
                {
                    "name": "A#2",
                    "midi": 46,
                    "time": 31.617072000000018,
                    "velocity": 0.2755905511811024,
                    "duration": 0.32934450000000126
                },
                {
                    "name": "D4",
                    "midi": 62,
                    "time": 31.94641650000002,
                    "velocity": 0.1889763779527559,
                    "duration": 0.3293444999999977
                },
                {
                    "name": "F3",
                    "midi": 53,
                    "time": 32.27576100000002,
                    "velocity": 0.1732283464566929,
                    "duration": 0.3293444999999977
                },
                {
                    "name": "A#3",
                    "midi": 58,
                    "time": 32.27576100000002,
                    "velocity": 0.2125984251968504,
                    "duration": 0.3293444999999977
                },
                {
                    "name": "D4",
                    "midi": 62,
                    "time": 32.605105500000015,
                    "velocity": 0.1968503937007874,
                    "duration": 0.3293444999999977
                },
                {
                    "name": "D3",
                    "midi": 50,
                    "time": 32.93445000000001,
                    "velocity": 0.2755905511811024,
                    "duration": 0.3293444999999977
                },
                {
                    "name": "F4",
                    "midi": 65,
                    "time": 33.26379450000001,
                    "velocity": 0.2125984251968504,
                    "duration": 0.3293444999999977
                },
                {
                    "name": "F3",
                    "midi": 53,
                    "time": 33.59313900000001,
                    "velocity": 0.1968503937007874,
                    "duration": 0.3293444999999977
                },
                {
                    "name": "A#3",
                    "midi": 58,
                    "time": 33.59313900000001,
                    "velocity": 0.23622047244094488,
                    "duration": 0.3293444999999977
                },
                {
                    "name": "F4",
                    "midi": 65,
                    "time": 33.922483500000006,
                    "velocity": 0.2125984251968504,
                    "duration": 0.3293444999999977
                },
                {
                    "name": "C3",
                    "midi": 48,
                    "time": 34.251828,
                    "velocity": 0.2755905511811024,
                    "duration": 0.3293444999999977
                },
                {
                    "name": "D#4",
                    "midi": 63,
                    "time": 34.5811725,
                    "velocity": 0.2047244094488189,
                    "duration": 0.3293444999999977
                },
                {
                    "name": "F3",
                    "midi": 53,
                    "time": 34.910517,
                    "velocity": 0.1889763779527559,
                    "duration": 0.3293444999999977
                },
                {
                    "name": "A3",
                    "midi": 57,
                    "time": 34.910517,
                    "velocity": 0.2283464566929134,
                    "duration": 0.3293444999999977
                },
                {
                    "name": "D#4",
                    "midi": 63,
                    "time": 35.239861499999996,
                    "velocity": 0.2047244094488189,
                    "duration": 0.3293444999999977
                },
                {
                    "name": "F2",
                    "midi": 41,
                    "time": 35.569205999999994,
                    "velocity": 0.2755905511811024,
                    "duration": 0.3293444999999977
                },
                {
                    "name": "C4",
                    "midi": 60,
                    "time": 35.89855049999999,
                    "velocity": 0.18110236220472442,
                    "duration": 0.3293444999999977
                },
                {
                    "name": "A3",
                    "midi": 57,
                    "time": 36.22789499999999,
                    "velocity": 0.18110236220472442,
                    "duration": 0.3293444999999977
                },
                {
                    "name": "F3",
                    "midi": 53,
                    "time": 36.22789499999999,
                    "velocity": 0.14960629921259844,
                    "duration": 0.3293444999999977
                },
                {
                    "name": "C4",
                    "midi": 60,
                    "time": 36.55723949999999,
                    "velocity": 0.18110236220472442,
                    "duration": 0.3293444999999977
                },
                {
                    "name": "A#2",
                    "midi": 46,
                    "time": 36.886583999999985,
                    "velocity": 0.2755905511811024,
                    "duration": 0.3293444999999977
                },
                {
                    "name": "D4",
                    "midi": 62,
                    "time": 37.21592849999998,
                    "velocity": 0.1889763779527559,
                    "duration": 0.3293444999999977
                },
                {
                    "name": "F3",
                    "midi": 53,
                    "time": 37.54527299999998,
                    "velocity": 0.1732283464566929,
                    "duration": 0.3293444999999977
                },
                {
                    "name": "A#3",
                    "midi": 58,
                    "time": 37.54527299999998,
                    "velocity": 0.2125984251968504,
                    "duration": 0.3293444999999977
                },
                {
                    "name": "D4",
                    "midi": 62,
                    "time": 37.87461749999998,
                    "velocity": 0.1968503937007874,
                    "duration": 0.3293444999999977
                },
                {
                    "name": "E2",
                    "midi": 40,
                    "time": 38.203961999999976,
                    "velocity": 0.2755905511811024,
                    "duration": 0.3293444999999977
                },
                {
                    "name": "C#4",
                    "midi": 61,
                    "time": 38.53330649999997,
                    "velocity": 0.2125984251968504,
                    "duration": 0.3293444999999977
                },
                {
                    "name": "A#3",
                    "midi": 58,
                    "time": 38.86265099999997,
                    "velocity": 0.23622047244094488,
                    "duration": 0.3293444999999977
                },
                {
                    "name": "G3",
                    "midi": 55,
                    "time": 38.86265099999997,
                    "velocity": 0.1968503937007874,
                    "duration": 0.3293444999999977
                },
                {
                    "name": "E3",
                    "midi": 52,
                    "time": 38.86265099999997,
                    "velocity": 0.1968503937007874,
                    "duration": 0.3293444999999977
                },
                {
                    "name": "C#4",
                    "midi": 61,
                    "time": 39.19199549999997,
                    "velocity": 0.2125984251968504,
                    "duration": 0.3293444999999977
                },
                {
                    "name": "C4",
                    "midi": 60,
                    "time": 39.52133999999997,
                    "velocity": 0.2283464566929134,
                    "duration": 0.9880335000000002
                },
                {
                    "name": "A#3",
                    "midi": 58,
                    "time": 39.52133999999997,
                    "velocity": 0.2755905511811024,
                    "duration": 0.3293444999999977
                },
                {
                    "name": "F3",
                    "midi": 53,
                    "time": 39.52133999999997,
                    "velocity": 0.2755905511811024,
                    "duration": 0.9880335000000002
                },
                {
                    "name": "A3",
                    "midi": 57,
                    "time": 39.850684499999964,
                    "velocity": 0.1889763779527559,
                    "duration": 0.1646722500000024
                },
                {
                    "name": "G3",
                    "midi": 55,
                    "time": 40.01535674999997,
                    "velocity": 0.1889763779527559,
                    "duration": 0.1646722500000024
                },
                {
                    "name": "A3",
                    "midi": 57,
                    "time": 40.18002899999997,
                    "velocity": 0.2440944881889764,
                    "duration": 0.3293444999999977
                },
                {
                    "name": "F3",
                    "midi": 53,
                    "time": 40.50937349999997,
                    "velocity": 0.2047244094488189,
                    "duration": 0.3293444999999977
                },
                {
                    "name": "C4",
                    "midi": 60,
                    "time": 40.50937349999997,
                    "velocity": 0.2047244094488189,
                    "duration": 0.3293444999999977
                },
                {
                    "name": "A#2",
                    "midi": 46,
                    "time": 40.838717999999965,
                    "velocity": 0.23622047244094488,
                    "duration": 0.1646722500000024
                },
                {
                    "name": "A#3",
                    "midi": 58,
                    "time": 41.16806249999997,
                    "velocity": 0.1968503937007874,
                    "duration": 0.3293444999999977
                },
                {
                    "name": "D3",
                    "midi": 50,
                    "time": 41.49740699999997,
                    "velocity": 0.14173228346456693,
                    "duration": 0.3293444999999977
                },
                {
                    "name": "F3",
                    "midi": 53,
                    "time": 41.49740699999997,
                    "velocity": 0.18110236220472442,
                    "duration": 0.3293444999999977
                },
                {
                    "name": "A#3",
                    "midi": 58,
                    "time": 41.826751499999965,
                    "velocity": 0.16535433070866143,
                    "duration": 0.3293444999999977
                },
                {
                    "name": "D3",
                    "midi": 50,
                    "time": 42.15609599999996,
                    "velocity": 0.33070866141732286,
                    "duration": 0.3293444999999977
                },
                {
                    "name": "D2",
                    "midi": 38,
                    "time": 42.15609599999996,
                    "velocity": 0.33070866141732286,
                    "duration": 0.3293444999999977
                },
                {
                    "name": "D4",
                    "midi": 62,
                    "time": 42.48544049999996,
                    "velocity": 0.2204724409448819,
                    "duration": 0.3293444999999977
                },
                {
                    "name": "A3",
                    "midi": 57,
                    "time": 42.81478499999996,
                    "velocity": 0.25196850393700787,
                    "duration": 0.3293444999999977
                },
                {
                    "name": "F#3",
                    "midi": 54,
                    "time": 42.81478499999996,
                    "velocity": 0.2047244094488189,
                    "duration": 0.3293444999999977
                },
                {
                    "name": "D4",
                    "midi": 62,
                    "time": 43.144129499999956,
                    "velocity": 0.23622047244094488,
                    "duration": 0.3293444999999977
                },
                {
                    "name": "G2",
                    "midi": 43,
                    "time": 43.47347399999995,
                    "velocity": 0.33070866141732286,
                    "duration": 0.3293444999999977
                },
                {
                    "name": "A#3",
                    "midi": 58,
                    "time": 43.80281849999995,
                    "velocity": 0.25196850393700787,
                    "duration": 0.3293444999999977
                },
                {
                    "name": "G3",
                    "midi": 55,
                    "time": 44.13216299999995,
                    "velocity": 0.28346456692913385,
                    "duration": 0.3293444999999977
                },
                {
                    "name": "D3",
                    "midi": 50,
                    "time": 44.13216299999995,
                    "velocity": 0.23622047244094488,
                    "duration": 0.3293444999999977
                },
                {
                    "name": "A#3",
                    "midi": 58,
                    "time": 44.461507499999946,
                    "velocity": 0.25196850393700787,
                    "duration": 0.3293444999999977
                },
                {
                    "name": "G2",
                    "midi": 43,
                    "time": 44.790851999999944,
                    "velocity": 0.33070866141732286,
                    "duration": 0.3293444999999977
                },
                {
                    "name": "A#3",
                    "midi": 58,
                    "time": 45.12019649999994,
                    "velocity": 0.2440944881889764,
                    "duration": 0.3293444999999977
                },
                {
                    "name": "G3",
                    "midi": 55,
                    "time": 45.44954099999994,
                    "velocity": 0.2677165354330709,
                    "duration": 0.3293444999999977
                },
                {
                    "name": "D3",
                    "midi": 50,
                    "time": 45.44954099999994,
                    "velocity": 0.2204724409448819,
                    "duration": 0.3293444999999977
                },
                {
                    "name": "A#3",
                    "midi": 58,
                    "time": 45.77888549999994,
                    "velocity": 0.2440944881889764,
                    "duration": 0.3293444999999977
                },
                {
                    "name": "C2",
                    "midi": 36,
                    "time": 46.108229999999935,
                    "velocity": 0.33070866141732286,
                    "duration": 0.3293444999999977
                },
                {
                    "name": "G3",
                    "midi": 55,
                    "time": 46.43757449999993,
                    "velocity": 0.2125984251968504,
                    "duration": 0.3293444999999977
                },
                {
                    "name": "C3",
                    "midi": 48,
                    "time": 46.76691899999993,
                    "velocity": 0.1732283464566929,
                    "duration": 0.3293444999999977
                },
                {
                    "name": "E3",
                    "midi": 52,
                    "time": 46.76691899999993,
                    "velocity": 0.2125984251968504,
                    "duration": 0.3293444999999977
                },
                {
                    "name": "G3",
                    "midi": 55,
                    "time": 47.09626349999993,
                    "velocity": 0.2125984251968504,
                    "duration": 0.3293444999999977
                },
                {
                    "name": "F2",
                    "midi": 41,
                    "time": 47.425607999999926,
                    "velocity": 0.33070866141732286,
                    "duration": 0.3293444999999977
                },
                {
                    "name": "A3",
                    "midi": 57,
                    "time": 47.75495249999992,
                    "velocity": 0.2204724409448819,
                    "duration": 0.3293444999999977
                },
                {
                    "name": "C3",
                    "midi": 48,
                    "time": 48.08429699999992,
                    "velocity": 0.1968503937007874,
                    "duration": 0.3293444999999977
                },
                {
                    "name": "F3",
                    "midi": 53,
                    "time": 48.08429699999992,
                    "velocity": 0.2440944881889764,
                    "duration": 0.3293444999999977
                },
                {
                    "name": "A3",
                    "midi": 57,
                    "time": 48.41364149999992,
                    "velocity": 0.2204724409448819,
                    "duration": 0.3293444999999977
                },
                {
                    "name": "A#1",
                    "midi": 34,
                    "time": 48.74298599999992,
                    "velocity": 0.2992125984251969,
                    "duration": 0.3293444999999977
                },
                {
                    "name": "G3",
                    "midi": 55,
                    "time": 49.072330499999914,
                    "velocity": 0.2283464566929134,
                    "duration": 0.3293444999999977
                },
                {
                    "name": "D3",
                    "midi": 50,
                    "time": 49.40167499999991,
                    "velocity": 0.2047244094488189,
                    "duration": 0.3293444999999977
                },
                {
                    "name": "F3",
                    "midi": 53,
                    "time": 49.40167499999991,
                    "velocity": 0.2440944881889764,
                    "duration": 0.3293444999999977
                },
                {
                    "name": "G3",
                    "midi": 55,
                    "time": 49.73101949999991,
                    "velocity": 0.2125984251968504,
                    "duration": 0.3293444999999977
                },
                {
                    "name": "C2",
                    "midi": 36,
                    "time": 50.06036399999991,
                    "velocity": 0.2755905511811024,
                    "duration": 0.3293444999999977
                },
                {
                    "name": "C3",
                    "midi": 48,
                    "time": 50.389708499999905,
                    "velocity": 0.2047244094488189,
                    "duration": 0.9880334999999931
                },
                {
                    "name": "G3",
                    "midi": 55,
                    "time": 50.389708499999905,
                    "velocity": 0.2047244094488189,
                    "duration": 0.3293444999999977
                },
                {
                    "name": "A3",
                    "midi": 57,
                    "time": 50.7190529999999,
                    "velocity": 0.2283464566929134,
                    "duration": 0.3293444999999977
                },
                {
                    "name": "A#3",
                    "midi": 58,
                    "time": 51.0483974999999,
                    "velocity": 0.2047244094488189,
                    "duration": 0.3293444999999977
                },
                {
                    "name": "F2",
                    "midi": 41,
                    "time": 51.3777419999999,
                    "velocity": 0.2755905511811024,
                    "duration": 0.3293444999999977
                },
                {
                    "name": "F3",
                    "midi": 53,
                    "time": 51.707086499999896,
                    "velocity": 0.15748031496062992,
                    "duration": 0.9880334999999931
                },
                {
                    "name": "A3",
                    "midi": 57,
                    "time": 51.707086499999896,
                    "velocity": 0.1968503937007874,
                    "duration": 0.3293444999999977
                },
                {
                    "name": "A#3",
                    "midi": 58,
                    "time": 52.036430999999894,
                    "velocity": 0.18110236220472442,
                    "duration": 0.3293444999999977
                },
                {
                    "name": "C4",
                    "midi": 60,
                    "time": 52.36577549999989,
                    "velocity": 0.16535433070866143,
                    "duration": 0.3293444999999977
                },
                {
                    "name": "A#2",
                    "midi": 46,
                    "time": 52.69511999999989,
                    "velocity": 0.2755905511811024,
                    "duration": 0.3293444999999977
                },
                {
                    "name": "D4",
                    "midi": 62,
                    "time": 53.02446449999989,
                    "velocity": 0.1889763779527559,
                    "duration": 0.3293444999999977
                },
                {
                    "name": "A#3",
                    "midi": 58,
                    "time": 53.353808999999885,
                    "velocity": 0.2125984251968504,
                    "duration": 0.3293444999999977
                },
                {
                    "name": "F3",
                    "midi": 53,
                    "time": 53.353808999999885,
                    "velocity": 0.1732283464566929,
                    "duration": 0.3293444999999977
                },
                {
                    "name": "D4",
                    "midi": 62,
                    "time": 53.68315349999988,
                    "velocity": 0.1968503937007874,
                    "duration": 0.3293444999999977
                },
                {
                    "name": "D3",
                    "midi": 50,
                    "time": 54.01249799999988,
                    "velocity": 0.2755905511811024,
                    "duration": 0.3293444999999977
                },
                {
                    "name": "F4",
                    "midi": 65,
                    "time": 54.34184249999988,
                    "velocity": 0.2125984251968504,
                    "duration": 0.3293444999999977
                },
                {
                    "name": "G#3",
                    "midi": 56,
                    "time": 54.671186999999875,
                    "velocity": 0.1968503937007874,
                    "duration": 0.3293444999999977
                },
                {
                    "name": "A#3",
                    "midi": 58,
                    "time": 54.671186999999875,
                    "velocity": 0.23622047244094488,
                    "duration": 0.3293444999999977
                },
                {
                    "name": "F4",
                    "midi": 65,
                    "time": 55.00053149999987,
                    "velocity": 0.2125984251968504,
                    "duration": 0.3293444999999977
                },
                {
                    "name": "C3",
                    "midi": 48,
                    "time": 55.32987599999987,
                    "velocity": 0.2755905511811024,
                    "duration": 0.3293444999999977
                },
                {
                    "name": "D#4",
                    "midi": 63,
                    "time": 55.65922049999987,
                    "velocity": 0.2047244094488189,
                    "duration": 0.3293444999999977
                },
                {
                    "name": "G3",
                    "midi": 55,
                    "time": 55.988564999999866,
                    "velocity": 0.1889763779527559,
                    "duration": 0.3293444999999977
                },
                {
                    "name": "A#3",
                    "midi": 58,
                    "time": 55.988564999999866,
                    "velocity": 0.2283464566929134,
                    "duration": 0.3293444999999977
                },
                {
                    "name": "D#4",
                    "midi": 63,
                    "time": 56.317909499999864,
                    "velocity": 0.2047244094488189,
                    "duration": 0.3293444999999977
                },
                {
                    "name": "E3",
                    "midi": 52,
                    "time": 56.64725399999986,
                    "velocity": 0.2755905511811024,
                    "duration": 0.3293444999999977
                },
                {
                    "name": "G4",
                    "midi": 67,
                    "time": 56.97659849999986,
                    "velocity": 0.18110236220472442,
                    "duration": 0.3293444999999977
                },
                {
                    "name": "C#4",
                    "midi": 61,
                    "time": 57.30594299999986,
                    "velocity": 0.18110236220472442,
                    "duration": 0.3293444999999977
                },
                {
                    "name": "A#3",
                    "midi": 58,
                    "time": 57.30594299999986,
                    "velocity": 0.14960629921259844,
                    "duration": 0.3293444999999977
                },
                {
                    "name": "G4",
                    "midi": 67,
                    "time": 57.635287499999855,
                    "velocity": 0.18110236220472442,
                    "duration": 0.3293444999999977
                },
                {
                    "name": "G2",
                    "midi": 43,
                    "time": 57.96463199999985,
                    "velocity": 0.2755905511811024,
                    "duration": 0.3293444999999977
                },
                {
                    "name": "C4",
                    "midi": 60,
                    "time": 58.29397649999985,
                    "velocity": 0.1889763779527559,
                    "duration": 0.3293444999999977
                },
                {
                    "name": "G3",
                    "midi": 55,
                    "time": 58.62332099999985,
                    "velocity": 0.1732283464566929,
                    "duration": 0.3293444999999977
                },
                {
                    "name": "A#3",
                    "midi": 58,
                    "time": 58.62332099999985,
                    "velocity": 0.2125984251968504,
                    "duration": 0.3293444999999977
                },
                {
                    "name": "C4",
                    "midi": 60,
                    "time": 58.952665499999846,
                    "velocity": 0.1968503937007874,
                    "duration": 0.3293444999999977
                },
                {
                    "name": "F2",
                    "midi": 41,
                    "time": 59.28200999999984,
                    "velocity": 0.2755905511811024,
                    "duration": 0.3293444999999977
                },
                {
                    "name": "D4",
                    "midi": 62,
                    "time": 59.61135449999984,
                    "velocity": 0.2125984251968504,
                    "duration": 0.3293444999999977
                },
                {
                    "name": "F3",
                    "midi": 53,
                    "time": 59.94069899999984,
                    "velocity": 0.1968503937007874,
                    "duration": 0.3293444999999977
                },
                {
                    "name": "A#3",
                    "midi": 58,
                    "time": 59.94069899999984,
                    "velocity": 0.23622047244094488,
                    "duration": 0.3293444999999977
                },
                {
                    "name": "D4",
                    "midi": 62,
                    "time": 60.27004349999984,
                    "velocity": 0.2125984251968504,
                    "duration": 0.3293444999999977
                },
                {
                    "name": "F2",
                    "midi": 41,
                    "time": 60.599387999999834,
                    "velocity": 0.2755905511811024,
                    "duration": 0.3293444999999977
                },
                {
                    "name": "C4",
                    "midi": 60,
                    "time": 60.92873249999983,
                    "velocity": 0.1889763779527559,
                    "duration": 0.3293444999999977
                },
                {
                    "name": "F3",
                    "midi": 53,
                    "time": 61.25807699999983,
                    "velocity": 0.2440944881889764,
                    "duration": 0.3293444999999977
                },
                {
                    "name": "C4",
                    "midi": 60,
                    "time": 61.58742149999983,
                    "velocity": 0.2047244094488189,
                    "duration": 0.3293444999999977
                },
                {
                    "name": "A#2",
                    "midi": 46,
                    "time": 61.916765999999825,
                    "velocity": 0.23622047244094488,
                    "duration": 0.3293444999999977
                },
                {
                    "name": "A#3",
                    "midi": 58,
                    "time": 62.24611049999982,
                    "velocity": 0.1968503937007874,
                    "duration": 0.3293444999999977
                },
                {
                    "name": "F3",
                    "midi": 53,
                    "time": 62.57545499999982,
                    "velocity": 0.18110236220472442,
                    "duration": 0.3293444999999977
                },
                {
                    "name": "D3",
                    "midi": 50,
                    "time": 62.57545499999982,
                    "velocity": 0.18110236220472442,
                    "duration": 0.3293444999999977
                },
                {
                    "name": "A#3",
                    "midi": 58,
                    "time": 62.90479949999982,
                    "velocity": 0.16535433070866143,
                    "duration": 0.3293444999999977
                },
                {
                    "name": "D2",
                    "midi": 38,
                    "time": 63.234143999999816,
                    "velocity": 0.33070866141732286,
                    "duration": 0.3293444999999977
                },
                {
                    "name": "D3",
                    "midi": 50,
                    "time": 63.234143999999816,
                    "velocity": 0.33070866141732286,
                    "duration": 0.3293444999999977
                },
                {
                    "name": "D4",
                    "midi": 62,
                    "time": 63.56348849999981,
                    "velocity": 0.2204724409448819,
                    "duration": 0.3293444999999977
                },
                {
                    "name": "F#3",
                    "midi": 54,
                    "time": 63.89283299999981,
                    "velocity": 0.2047244094488189,
                    "duration": 0.3293445000000048
                },
                {
                    "name": "A3",
                    "midi": 57,
                    "time": 63.89283299999981,
                    "velocity": 0.25196850393700787,
                    "duration": 0.3293445000000048
                },
                {
                    "name": "D4",
                    "midi": 62,
                    "time": 64.22217749999982,
                    "velocity": 0.23622047244094488,
                    "duration": 0.3293445000000048
                },
                {
                    "name": "G2",
                    "midi": 43,
                    "time": 64.55152199999982,
                    "velocity": 0.33070866141732286,
                    "duration": 0.3293445000000048
                },
                {
                    "name": "A#3",
                    "midi": 58,
                    "time": 64.88086649999983,
                    "velocity": 0.25196850393700787,
                    "duration": 0.3293445000000048
                },
                {
                    "name": "D3",
                    "midi": 50,
                    "time": 65.21021099999983,
                    "velocity": 0.23622047244094488,
                    "duration": 0.3293445000000048
                },
                {
                    "name": "G3",
                    "midi": 55,
                    "time": 65.21021099999983,
                    "velocity": 0.28346456692913385,
                    "duration": 0.3293445000000048
                },
                {
                    "name": "A#3",
                    "midi": 58,
                    "time": 65.53955549999984,
                    "velocity": 0.25196850393700787,
                    "duration": 0.3293445000000048
                },
                {
                    "name": "G2",
                    "midi": 43,
                    "time": 65.86889999999984,
                    "velocity": 0.33070866141732286,
                    "duration": 0.3293445000000048
                },
                {
                    "name": "A#3",
                    "midi": 58,
                    "time": 66.19824449999984,
                    "velocity": 0.2440944881889764,
                    "duration": 0.3293445000000048
                },
                {
                    "name": "G3",
                    "midi": 55,
                    "time": 66.52758899999985,
                    "velocity": 0.2677165354330709,
                    "duration": 0.3293445000000048
                },
                {
                    "name": "D3",
                    "midi": 50,
                    "time": 66.52758899999985,
                    "velocity": 0.2204724409448819,
                    "duration": 0.3293445000000048
                },
                {
                    "name": "A#3",
                    "midi": 58,
                    "time": 66.85693349999985,
                    "velocity": 0.2440944881889764,
                    "duration": 0.3293445000000048
                },
                {
                    "name": "C2",
                    "midi": 36,
                    "time": 67.18627799999986,
                    "velocity": 0.33070866141732286,
                    "duration": 0.3293445000000048
                },
                {
                    "name": "G3",
                    "midi": 55,
                    "time": 67.51562249999986,
                    "velocity": 0.2125984251968504,
                    "duration": 0.3293445000000048
                },
                {
                    "name": "E3",
                    "midi": 52,
                    "time": 67.84496699999987,
                    "velocity": 0.2125984251968504,
                    "duration": 0.3293445000000048
                },
                {
                    "name": "C3",
                    "midi": 48,
                    "time": 67.84496699999987,
                    "velocity": 0.1732283464566929,
                    "duration": 0.3293445000000048
                },
                {
                    "name": "G3",
                    "midi": 55,
                    "time": 68.17431149999987,
                    "velocity": 0.2125984251968504,
                    "duration": 0.3293445000000048
                },
                {
                    "name": "F2",
                    "midi": 41,
                    "time": 68.50365599999988,
                    "velocity": 0.33070866141732286,
                    "duration": 0.3293445000000048
                },
                {
                    "name": "A3",
                    "midi": 57,
                    "time": 68.83300049999988,
                    "velocity": 0.2204724409448819,
                    "duration": 0.3293445000000048
                },
                {
                    "name": "F3",
                    "midi": 53,
                    "time": 69.16234499999989,
                    "velocity": 0.2440944881889764,
                    "duration": 0.3293445000000048
                },
                {
                    "name": "C3",
                    "midi": 48,
                    "time": 69.16234499999989,
                    "velocity": 0.1968503937007874,
                    "duration": 0.3293445000000048
                },
                {
                    "name": "A3",
                    "midi": 57,
                    "time": 69.4916894999999,
                    "velocity": 0.2204724409448819,
                    "duration": 0.3293445000000048
                },
                {
                    "name": "A#1",
                    "midi": 34,
                    "time": 69.8210339999999,
                    "velocity": 0.2992125984251969,
                    "duration": 0.3293445000000048
                },
                {
                    "name": "G3",
                    "midi": 55,
                    "time": 70.1503784999999,
                    "velocity": 0.2283464566929134,
                    "duration": 0.3293445000000048
                },
                {
                    "name": "F3",
                    "midi": 53,
                    "time": 70.47972299999991,
                    "velocity": 0.2440944881889764,
                    "duration": 0.3293445000000048
                },
                {
                    "name": "D3",
                    "midi": 50,
                    "time": 70.47972299999991,
                    "velocity": 0.2047244094488189,
                    "duration": 0.3293445000000048
                },
                {
                    "name": "G3",
                    "midi": 55,
                    "time": 70.80906749999991,
                    "velocity": 0.2125984251968504,
                    "duration": 0.3293445000000048
                },
                {
                    "name": "C2",
                    "midi": 36,
                    "time": 71.13841199999992,
                    "velocity": 0.2755905511811024,
                    "duration": 0.3293445000000048
                },
                {
                    "name": "G3",
                    "midi": 55,
                    "time": 71.46775649999992,
                    "velocity": 0.2047244094488189,
                    "duration": 0.3293445000000048
                },
                {
                    "name": "C3",
                    "midi": 48,
                    "time": 71.46775649999992,
                    "velocity": 0.2047244094488189,
                    "duration": 0.9880335000000144
                },
                {
                    "name": "A3",
                    "midi": 57,
                    "time": 71.79710099999993,
                    "velocity": 0.2283464566929134,
                    "duration": 0.3293445000000048
                },
                {
                    "name": "A#3",
                    "midi": 58,
                    "time": 72.12644549999993,
                    "velocity": 0.2047244094488189,
                    "duration": 0.3293445000000048
                },
                {
                    "name": "F2",
                    "midi": 41,
                    "time": 72.45578999999994,
                    "velocity": 0.2755905511811024,
                    "duration": 0.3293445000000048
                },
                {
                    "name": "F3",
                    "midi": 53,
                    "time": 72.78513449999994,
                    "velocity": 0.15748031496062992,
                    "duration": 0.9880335000000144
                },
                {
                    "name": "A3",
                    "midi": 57,
                    "time": 72.78513449999994,
                    "velocity": 0.1968503937007874,
                    "duration": 0.3293445000000048
                },
                {
                    "name": "A#3",
                    "midi": 58,
                    "time": 73.11447899999995,
                    "velocity": 0.18110236220472442,
                    "duration": 0.3293445000000048
                },
                {
                    "name": "C4",
                    "midi": 60,
                    "time": 73.44382349999995,
                    "velocity": 0.16535433070866143,
                    "duration": 0.3293445000000048
                },
                {
                    "name": "A#2",
                    "midi": 46,
                    "time": 73.77316799999996,
                    "velocity": 0.2755905511811024,
                    "duration": 0.3293445000000048
                },
                {
                    "name": "D4",
                    "midi": 62,
                    "time": 74.10251249999996,
                    "velocity": 0.1889763779527559,
                    "duration": 0.3293445000000048
                },
                {
                    "name": "A#3",
                    "midi": 58,
                    "time": 74.43185699999997,
                    "velocity": 0.2125984251968504,
                    "duration": 0.3293445000000048
                },
                {
                    "name": "F3",
                    "midi": 53,
                    "time": 74.43185699999997,
                    "velocity": 0.1732283464566929,
                    "duration": 0.3293445000000048
                },
                {
                    "name": "D4",
                    "midi": 62,
                    "time": 74.76120149999997,
                    "velocity": 0.1968503937007874,
                    "duration": 0.3293445000000048
                },
                {
                    "name": "D3",
                    "midi": 50,
                    "time": 75.09054599999997,
                    "velocity": 0.2755905511811024,
                    "duration": 0.3293445000000048
                },
                {
                    "name": "F4",
                    "midi": 65,
                    "time": 75.41989049999998,
                    "velocity": 0.2125984251968504,
                    "duration": 0.3293445000000048
                },
                {
                    "name": "G#3",
                    "midi": 56,
                    "time": 75.74923499999998,
                    "velocity": 0.1968503937007874,
                    "duration": 0.3293445000000048
                },
                {
                    "name": "A#3",
                    "midi": 58,
                    "time": 75.74923499999998,
                    "velocity": 0.23622047244094488,
                    "duration": 0.3293445000000048
                },
                {
                    "name": "F4",
                    "midi": 65,
                    "time": 76.07857949999999,
                    "velocity": 0.2125984251968504,
                    "duration": 0.3293445000000048
                },
                {
                    "name": "C3",
                    "midi": 48,
                    "time": 76.407924,
                    "velocity": 0.2755905511811024,
                    "duration": 0.3293445000000048
                },
                {
                    "name": "D#4",
                    "midi": 63,
                    "time": 76.7372685,
                    "velocity": 0.2047244094488189,
                    "duration": 0.3293445000000048
                },
                {
                    "name": "A#3",
                    "midi": 58,
                    "time": 77.066613,
                    "velocity": 0.2283464566929134,
                    "duration": 0.3293445000000048
                },
                {
                    "name": "G3",
                    "midi": 55,
                    "time": 77.066613,
                    "velocity": 0.1889763779527559,
                    "duration": 0.3293445000000048
                },
                {
                    "name": "D#4",
                    "midi": 63,
                    "time": 77.39595750000001,
                    "velocity": 0.2047244094488189,
                    "duration": 0.3293445000000048
                },
                {
                    "name": "E3",
                    "midi": 52,
                    "time": 77.72530200000001,
                    "velocity": 0.2755905511811024,
                    "duration": 0.3293445000000048
                },
                {
                    "name": "G4",
                    "midi": 67,
                    "time": 78.05464650000002,
                    "velocity": 0.18110236220472442,
                    "duration": 0.3293445000000048
                },
                {
                    "name": "A#3",
                    "midi": 58,
                    "time": 78.38399100000002,
                    "velocity": 0.14960629921259844,
                    "duration": 0.3293445000000048
                },
                {
                    "name": "C#4",
                    "midi": 61,
                    "time": 78.38399100000002,
                    "velocity": 0.18110236220472442,
                    "duration": 0.3293445000000048
                },
                {
                    "name": "G4",
                    "midi": 67,
                    "time": 78.71333550000003,
                    "velocity": 0.18110236220472442,
                    "duration": 0.3293445000000048
                },
                {
                    "name": "G2",
                    "midi": 43,
                    "time": 79.04268000000003,
                    "velocity": 0.2755905511811024,
                    "duration": 0.3293445000000048
                },
                {
                    "name": "C4",
                    "midi": 60,
                    "time": 79.37202450000004,
                    "velocity": 0.1889763779527559,
                    "duration": 0.3293445000000048
                },
                {
                    "name": "G3",
                    "midi": 55,
                    "time": 79.70136900000004,
                    "velocity": 0.1732283464566929,
                    "duration": 0.3293445000000048
                },
                {
                    "name": "A#3",
                    "midi": 58,
                    "time": 79.70136900000004,
                    "velocity": 0.2125984251968504,
                    "duration": 0.3293445000000048
                },
                {
                    "name": "C4",
                    "midi": 60,
                    "time": 80.03071350000005,
                    "velocity": 0.1968503937007874,
                    "duration": 0.3293445000000048
                },
                {
                    "name": "F2",
                    "midi": 41,
                    "time": 80.36005800000005,
                    "velocity": 0.2755905511811024,
                    "duration": 0.3293445000000048
                },
                {
                    "name": "D4",
                    "midi": 62,
                    "time": 80.68940250000006,
                    "velocity": 0.2125984251968504,
                    "duration": 0.3293445000000048
                },
                {
                    "name": "F3",
                    "midi": 53,
                    "time": 81.01874700000006,
                    "velocity": 0.1968503937007874,
                    "duration": 0.3293445000000048
                },
                {
                    "name": "A#3",
                    "midi": 58,
                    "time": 81.01874700000006,
                    "velocity": 0.23622047244094488,
                    "duration": 0.3293445000000048
                },
                {
                    "name": "D4",
                    "midi": 62,
                    "time": 81.34809150000007,
                    "velocity": 0.2125984251968504,
                    "duration": 0.3293445000000048
                },
                {
                    "name": "F2",
                    "midi": 41,
                    "time": 81.67743600000007,
                    "velocity": 0.2755905511811024,
                    "duration": 0.3293445000000048
                },
                {
                    "name": "C4",
                    "midi": 60,
                    "time": 82.00678050000008,
                    "velocity": 0.1889763779527559,
                    "duration": 0.3293445000000048
                },
                {
                    "name": "F3",
                    "midi": 53,
                    "time": 82.33612500000008,
                    "velocity": 0.2440944881889764,
                    "duration": 0.3293445000000048
                },
                {
                    "name": "C4",
                    "midi": 60,
                    "time": 82.66546950000009,
                    "velocity": 0.2047244094488189,
                    "duration": 0.3293445000000048
                },
                {
                    "name": "A#2",
                    "midi": 46,
                    "time": 82.99481400000009,
                    "velocity": 0.23622047244094488,
                    "duration": 0.3293445000000048
                },
                {
                    "name": "A#3",
                    "midi": 58,
                    "time": 83.3241585000001,
                    "velocity": 0.1968503937007874,
                    "duration": 0.3293445000000048
                },
                {
                    "name": "D3",
                    "midi": 50,
                    "time": 83.6535030000001,
                    "velocity": 0.18110236220472442,
                    "duration": 0.3293445000000048
                },
                {
                    "name": "F3",
                    "midi": 53,
                    "time": 83.6535030000001,
                    "velocity": 0.18110236220472442,
                    "duration": 0.3293445000000048
                },
                {
                    "name": "A#3",
                    "midi": 58,
                    "time": 83.9828475000001,
                    "velocity": 0.16535433070866143,
                    "duration": 0.3293445000000048
                },
                {
                    "name": "F2",
                    "midi": 41,
                    "time": 84.31219200000011,
                    "velocity": 0.2204724409448819,
                    "duration": 0.3293445000000048
                },
                {
                    "name": "C4",
                    "midi": 60,
                    "time": 84.64153650000011,
                    "velocity": 0.14960629921259844,
                    "duration": 0.3293445000000048
                },
                {
                    "name": "F3",
                    "midi": 53,
                    "time": 84.97088100000012,
                    "velocity": 0.1889763779527559,
                    "duration": 0.3293445000000048
                },
                {
                    "name": "C4",
                    "midi": 60,
                    "time": 85.30022550000012,
                    "velocity": 0.15748031496062992,
                    "duration": 0.3293445000000048
                },
                {
                    "name": "A#2",
                    "midi": 46,
                    "time": 85.62957000000013,
                    "velocity": 0.1889763779527559,
                    "duration": 0.1646722499999953
                },
                {
                    "name": "A#3",
                    "midi": 58,
                    "time": 85.95891450000012,
                    "velocity": 0.15748031496062992,
                    "duration": 0.3293445000000048
                },
                {
                    "name": "F3",
                    "midi": 53,
                    "time": 86.28825900000012,
                    "velocity": 0.14173228346456693,
                    "duration": 0.3293445000000048
                },
                {
                    "name": "D3",
                    "midi": 50,
                    "time": 86.61760350000013,
                    "velocity": 0.16535433070866143,
                    "duration": 0.3293445000000048
                },
                {
                    "name": "F1",
                    "midi": 29,
                    "time": 86.94694800000013,
                    "velocity": 0.18110236220472442,
                    "duration": 0.3293445000000048
                },
                {
                    "name": "C3",
                    "midi": 48,
                    "time": 87.27629250000014,
                    "velocity": 0.12598425196850394,
                    "duration": 0.3293445000000048
                },
                {
                    "name": "F2",
                    "midi": 41,
                    "time": 87.60563700000014,
                    "velocity": 0.15748031496062992,
                    "duration": 0.3293445000000048
                },
                {
                    "name": "C3",
                    "midi": 48,
                    "time": 87.93498150000015,
                    "velocity": 0.13385826771653545,
                    "duration": 0.3293445000000048
                },
                {
                    "name": "A#2",
                    "midi": 46,
                    "time": 88.26432600000015,
                    "velocity": 0.15748031496062992,
                    "duration": 0.9880335000000002
                },
                {
                    "name": "A#1",
                    "midi": 34,
                    "time": 88.26432600000015,
                    "velocity": 0.15748031496062992,
                    "duration": 0.9880335000000002
                },
                {
                    "name": "F2",
                    "midi": 41,
                    "time": 88.26432600000015,
                    "velocity": 0.15748031496062992,
                    "duration": 0.9880335000000002
                },
                {
                    "name": "A#2",
                    "midi": 46,
                    "time": 89.58170400000016,
                    "velocity": 0.23622047244094488,
                    "duration": 1.317378000000005
                },
                {
                    "name": "F3",
                    "midi": 53,
                    "time": 89.91104850000016,
                    "velocity": 0.1889763779527559,
                    "duration": 0.6586889999999954
                },
                {
                    "name": "F3",
                    "midi": 53,
                    "time": 90.56973750000016,
                    "velocity": 0.1889763779527559,
                    "duration": 0.3293445000000048
                },
                {
                    "name": "D3",
                    "midi": 50,
                    "time": 90.89908200000016,
                    "velocity": 0.23622047244094488,
                    "duration": 1.317378000000005
                },
                {
                    "name": "F3",
                    "midi": 53,
                    "time": 91.22842650000017,
                    "velocity": 0.1889763779527559,
                    "duration": 0.6586889999999954
                },
                {
                    "name": "F3",
                    "midi": 53,
                    "time": 91.88711550000016,
                    "velocity": 0.1889763779527559,
                    "duration": 0.3293445000000048
                },
                {
                    "name": "C3",
                    "midi": 48,
                    "time": 92.21646000000017,
                    "velocity": 0.23622047244094488,
                    "duration": 1.317378000000005
                },
                {
                    "name": "F3",
                    "midi": 53,
                    "time": 92.54580450000017,
                    "velocity": 0.1889763779527559,
                    "duration": 0.6586889999999954
                },
                {
                    "name": "F3",
                    "midi": 53,
                    "time": 93.20449350000017,
                    "velocity": 0.1889763779527559,
                    "duration": 0.3293445000000048
                },
                {
                    "name": "F2",
                    "midi": 41,
                    "time": 93.53383800000017,
                    "velocity": 0.23622047244094488,
                    "duration": 1.317378000000005
                },
                {
                    "name": "F3",
                    "midi": 53,
                    "time": 93.86318250000018,
                    "velocity": 0.1889763779527559,
                    "duration": 0.6586889999999954
                },
                {
                    "name": "F3",
                    "midi": 53,
                    "time": 94.52187150000017,
                    "velocity": 0.1889763779527559,
                    "duration": 0.3293445000000048
                },
                {
                    "name": "D3",
                    "midi": 50,
                    "time": 94.85121600000018,
                    "velocity": 0.23622047244094488,
                    "duration": 1.317378000000005
                },
                {
                    "name": "A3",
                    "midi": 57,
                    "time": 95.18056050000018,
                    "velocity": 0.1889763779527559,
                    "duration": 0.6586889999999954
                },
                {
                    "name": "A3",
                    "midi": 57,
                    "time": 95.83924950000018,
                    "velocity": 0.1889763779527559,
                    "duration": 0.3293445000000048
                },
                {
                    "name": "D3",
                    "midi": 50,
                    "time": 96.16859400000018,
                    "velocity": 0.23622047244094488,
                    "duration": 1.317378000000005
                },
                {
                    "name": "G#3",
                    "midi": 56,
                    "time": 96.49793850000019,
                    "velocity": 0.1889763779527559,
                    "duration": 0.6586889999999954
                },
                {
                    "name": "G#3",
                    "midi": 56,
                    "time": 97.15662750000018,
                    "velocity": 0.1889763779527559,
                    "duration": 0.3293445000000048
                },
                {
                    "name": "D#3",
                    "midi": 51,
                    "time": 97.48597200000019,
                    "velocity": 0.23622047244094488,
                    "duration": 1.317378000000005
                },
                {
                    "name": "G3",
                    "midi": 55,
                    "time": 97.8153165000002,
                    "velocity": 0.1889763779527559,
                    "duration": 0.6586889999999954
                },
                {
                    "name": "F#3",
                    "midi": 54,
                    "time": 98.47400550000019,
                    "velocity": 0.1889763779527559,
                    "duration": 0.3293445000000048
                },
                {
                    "name": "F2",
                    "midi": 41,
                    "time": 98.8033500000002,
                    "velocity": 0.23622047244094488,
                    "duration": 1.317378000000005
                },
                {
                    "name": "F3",
                    "midi": 53,
                    "time": 99.1326945000002,
                    "velocity": 0.1889763779527559,
                    "duration": 0.6586889999999954
                },
                {
                    "name": "F3",
                    "midi": 53,
                    "time": 99.7913835000002,
                    "velocity": 0.1889763779527559,
                    "duration": 0.3293445000000048
                },
                {
                    "name": "A#2",
                    "midi": 46,
                    "time": 100.1207280000002,
                    "velocity": 0.23622047244094488,
                    "duration": 1.317378000000005
                },
                {
                    "name": "F3",
                    "midi": 53,
                    "time": 100.4500725000002,
                    "velocity": 0.1889763779527559,
                    "duration": 0.6586889999999954
                },
                {
                    "name": "F3",
                    "midi": 53,
                    "time": 101.1087615000002,
                    "velocity": 0.1889763779527559,
                    "duration": 0.3293445000000048
                },
                {
                    "name": "D3",
                    "midi": 50,
                    "time": 101.4381060000002,
                    "velocity": 0.23622047244094488,
                    "duration": 1.317378000000005
                },
                {
                    "name": "F3",
                    "midi": 53,
                    "time": 101.76745050000021,
                    "velocity": 0.1889763779527559,
                    "duration": 0.6586889999999954
                },
                {
                    "name": "F3",
                    "midi": 53,
                    "time": 102.4261395000002,
                    "velocity": 0.1889763779527559,
                    "duration": 0.3293445000000048
                },
                {
                    "name": "C3",
                    "midi": 48,
                    "time": 102.75548400000021,
                    "velocity": 0.23622047244094488,
                    "duration": 1.317378000000005
                },
                {
                    "name": "F3",
                    "midi": 53,
                    "time": 103.08482850000021,
                    "velocity": 0.1889763779527559,
                    "duration": 0.6586889999999954
                },
                {
                    "name": "F3",
                    "midi": 53,
                    "time": 103.74351750000021,
                    "velocity": 0.1889763779527559,
                    "duration": 0.3293445000000048
                },
                {
                    "name": "F2",
                    "midi": 41,
                    "time": 104.07286200000021,
                    "velocity": 0.23622047244094488,
                    "duration": 1.317378000000005
                },
                {
                    "name": "F3",
                    "midi": 53,
                    "time": 104.40220650000022,
                    "velocity": 0.1889763779527559,
                    "duration": 0.6586889999999954
                },
                {
                    "name": "F3",
                    "midi": 53,
                    "time": 105.06089550000021,
                    "velocity": 0.1889763779527559,
                    "duration": 0.3293445000000048
                },
                {
                    "name": "D3",
                    "midi": 50,
                    "time": 105.39024000000022,
                    "velocity": 0.23622047244094488,
                    "duration": 1.317378000000005
                },
                {
                    "name": "F3",
                    "midi": 53,
                    "time": 105.71958450000022,
                    "velocity": 0.1889763779527559,
                    "duration": 0.6586889999999954
                },
                {
                    "name": "A#3",
                    "midi": 58,
                    "time": 106.37827350000022,
                    "velocity": 0.1889763779527559,
                    "duration": 0.3293445000000048
                },
                {
                    "name": "E3",
                    "midi": 52,
                    "time": 106.70761800000022,
                    "velocity": 0.2677165354330709,
                    "duration": 1.317378000000005
                },
                {
                    "name": "A#3",
                    "midi": 58,
                    "time": 107.03696250000023,
                    "velocity": 0.2283464566929134,
                    "duration": 0.6586889999999954
                },
                {
                    "name": "C#4",
                    "midi": 61,
                    "time": 107.03696250000023,
                    "velocity": 0.2283464566929134,
                    "duration": 0.6586889999999954
                },
                {
                    "name": "A#3",
                    "midi": 58,
                    "time": 107.69565150000022,
                    "velocity": 0.1889763779527559,
                    "duration": 0.3293445000000048
                },
                {
                    "name": "C#4",
                    "midi": 61,
                    "time": 107.69565150000022,
                    "velocity": 0.1889763779527559,
                    "duration": 0.3293445000000048
                },
                {
                    "name": "F3",
                    "midi": 53,
                    "time": 108.02499600000023,
                    "velocity": 0.23622047244094488,
                    "duration": 1.317378000000005
                },
                {
                    "name": "C4",
                    "midi": 60,
                    "time": 108.35434050000023,
                    "velocity": 0.1889763779527559,
                    "duration": 0.6586889999999954
                },
                {
                    "name": "D#4",
                    "midi": 63,
                    "time": 109.01302950000023,
                    "velocity": 0.1889763779527559,
                    "duration": 0.3293445000000048
                },
                {
                    "name": "D4",
                    "midi": 62,
                    "time": 109.34237400000023,
                    "velocity": 0.23622047244094488,
                    "duration": 0.6586889999999954
                },
                {
                    "name": "A#3",
                    "midi": 58,
                    "time": 109.34237400000023,
                    "velocity": 0.23622047244094488,
                    "duration": 0.6586889999999954
                },
                {
                    "name": "A#2",
                    "midi": 46,
                    "time": 110.65975200000022,
                    "velocity": 0.23622047244094488,
                    "duration": 1.317378000000005
                },
                {
                    "name": "F3",
                    "midi": 53,
                    "time": 110.98909650000023,
                    "velocity": 0.1889763779527559,
                    "duration": 0.6586889999999954
                },
                {
                    "name": "F3",
                    "midi": 53,
                    "time": 111.64778550000023,
                    "velocity": 0.1889763779527559,
                    "duration": 0.3293445000000048
                },
                {
                    "name": "D3",
                    "midi": 50,
                    "time": 111.97713000000023,
                    "velocity": 0.23622047244094488,
                    "duration": 1.317378000000005
                },
                {
                    "name": "F3",
                    "midi": 53,
                    "time": 112.30647450000023,
                    "velocity": 0.1889763779527559,
                    "duration": 0.6586889999999954
                },
                {
                    "name": "F3",
                    "midi": 53,
                    "time": 112.96516350000023,
                    "velocity": 0.1889763779527559,
                    "duration": 0.3293445000000048
                },
                {
                    "name": "C3",
                    "midi": 48,
                    "time": 113.29450800000023,
                    "velocity": 0.23622047244094488,
                    "duration": 1.317378000000005
                },
                {
                    "name": "F3",
                    "midi": 53,
                    "time": 113.62385250000024,
                    "velocity": 0.1889763779527559,
                    "duration": 0.6586889999999954
                },
                {
                    "name": "F3",
                    "midi": 53,
                    "time": 114.28254150000024,
                    "velocity": 0.1889763779527559,
                    "duration": 0.3293445000000048
                },
                {
                    "name": "F2",
                    "midi": 41,
                    "time": 114.61188600000024,
                    "velocity": 0.23622047244094488,
                    "duration": 1.317378000000005
                },
                {
                    "name": "F3",
                    "midi": 53,
                    "time": 114.94123050000024,
                    "velocity": 0.1889763779527559,
                    "duration": 0.6586889999999954
                },
                {
                    "name": "F3",
                    "midi": 53,
                    "time": 115.59991950000024,
                    "velocity": 0.1889763779527559,
                    "duration": 0.3293445000000048
                },
                {
                    "name": "D3",
                    "midi": 50,
                    "time": 115.92926400000025,
                    "velocity": 0.23622047244094488,
                    "duration": 1.317378000000005
                },
                {
                    "name": "A3",
                    "midi": 57,
                    "time": 116.25860850000025,
                    "velocity": 0.1889763779527559,
                    "duration": 0.6586889999999954
                },
                {
                    "name": "A3",
                    "midi": 57,
                    "time": 116.91729750000025,
                    "velocity": 0.1889763779527559,
                    "duration": 0.3293445000000048
                },
                {
                    "name": "D3",
                    "midi": 50,
                    "time": 117.24664200000025,
                    "velocity": 0.23622047244094488,
                    "duration": 1.317378000000005
                },
                {
                    "name": "G#3",
                    "midi": 56,
                    "time": 117.57598650000025,
                    "velocity": 0.1889763779527559,
                    "duration": 0.6586889999999954
                },
                {
                    "name": "G#3",
                    "midi": 56,
                    "time": 118.23467550000025,
                    "velocity": 0.1889763779527559,
                    "duration": 0.3293445000000048
                },
                {
                    "name": "D#3",
                    "midi": 51,
                    "time": 118.56402000000026,
                    "velocity": 0.23622047244094488,
                    "duration": 1.317378000000005
                },
                {
                    "name": "G3",
                    "midi": 55,
                    "time": 118.89336450000026,
                    "velocity": 0.1889763779527559,
                    "duration": 0.6586889999999954
                },
                {
                    "name": "F#3",
                    "midi": 54,
                    "time": 119.55205350000026,
                    "velocity": 0.1889763779527559,
                    "duration": 0.3293445000000048
                },
                {
                    "name": "F2",
                    "midi": 41,
                    "time": 119.88139800000026,
                    "velocity": 0.23622047244094488,
                    "duration": 1.317378000000005
                },
                {
                    "name": "F3",
                    "midi": 53,
                    "time": 120.21074250000026,
                    "velocity": 0.1889763779527559,
                    "duration": 0.6586889999999954
                },
                {
                    "name": "F3",
                    "midi": 53,
                    "time": 120.86943150000026,
                    "velocity": 0.1889763779527559,
                    "duration": 0.3293445000000048
                },
                {
                    "name": "A#2",
                    "midi": 46,
                    "time": 121.19877600000027,
                    "velocity": 0.23622047244094488,
                    "duration": 1.317378000000005
                },
                {
                    "name": "F3",
                    "midi": 53,
                    "time": 121.52812050000027,
                    "velocity": 0.1889763779527559,
                    "duration": 0.6586889999999954
                },
                {
                    "name": "F3",
                    "midi": 53,
                    "time": 122.18680950000027,
                    "velocity": 0.1889763779527559,
                    "duration": 0.3293445000000048
                },
                {
                    "name": "D3",
                    "midi": 50,
                    "time": 122.51615400000027,
                    "velocity": 0.23622047244094488,
                    "duration": 1.317378000000005
                },
                {
                    "name": "F3",
                    "midi": 53,
                    "time": 122.84549850000028,
                    "velocity": 0.1889763779527559,
                    "duration": 0.6586889999999954
                },
                {
                    "name": "F3",
                    "midi": 53,
                    "time": 123.50418750000027,
                    "velocity": 0.1889763779527559,
                    "duration": 0.3293445000000048
                },
                {
                    "name": "C3",
                    "midi": 48,
                    "time": 123.83353200000028,
                    "velocity": 0.23622047244094488,
                    "duration": 1.317378000000005
                },
                {
                    "name": "F3",
                    "midi": 53,
                    "time": 124.16287650000028,
                    "velocity": 0.1889763779527559,
                    "duration": 0.6586889999999954
                },
                {
                    "name": "F3",
                    "midi": 53,
                    "time": 124.82156550000028,
                    "velocity": 0.1889763779527559,
                    "duration": 0.3293445000000048
                },
                {
                    "name": "F2",
                    "midi": 41,
                    "time": 125.15091000000028,
                    "velocity": 0.23622047244094488,
                    "duration": 1.317378000000005
                },
                {
                    "name": "F3",
                    "midi": 53,
                    "time": 125.48025450000029,
                    "velocity": 0.1889763779527559,
                    "duration": 0.6586889999999954
                },
                {
                    "name": "F3",
                    "midi": 53,
                    "time": 126.13894350000028,
                    "velocity": 0.1889763779527559,
                    "duration": 0.3293445000000048
                },
                {
                    "name": "D3",
                    "midi": 50,
                    "time": 126.46828800000029,
                    "velocity": 0.23622047244094488,
                    "duration": 1.317378000000005
                },
                {
                    "name": "F3",
                    "midi": 53,
                    "time": 126.79763250000029,
                    "velocity": 0.1889763779527559,
                    "duration": 0.6586889999999954
                },
                {
                    "name": "A#3",
                    "midi": 58,
                    "time": 127.45632150000029,
                    "velocity": 0.1889763779527559,
                    "duration": 0.3293445000000048
                },
                {
                    "name": "E3",
                    "midi": 52,
                    "time": 127.78566600000029,
                    "velocity": 0.2677165354330709,
                    "duration": 1.317378000000005
                },
                {
                    "name": "C#4",
                    "midi": 61,
                    "time": 128.1150105000003,
                    "velocity": 0.2283464566929134,
                    "duration": 0.6586890000000096
                },
                {
                    "name": "A#3",
                    "midi": 58,
                    "time": 128.1150105000003,
                    "velocity": 0.2283464566929134,
                    "duration": 0.6586890000000096
                },
                {
                    "name": "C#4",
                    "midi": 61,
                    "time": 128.7736995000003,
                    "velocity": 0.1889763779527559,
                    "duration": 0.3293444999999906
                },
                {
                    "name": "A#3",
                    "midi": 58,
                    "time": 128.7736995000003,
                    "velocity": 0.1889763779527559,
                    "duration": 0.3293444999999906
                },
                {
                    "name": "F3",
                    "midi": 53,
                    "time": 129.1030440000003,
                    "velocity": 0.23622047244094488,
                    "duration": 1.3173779999999908
                },
                {
                    "name": "C4",
                    "midi": 60,
                    "time": 129.4323885000003,
                    "velocity": 0.1889763779527559,
                    "duration": 0.6586890000000096
                },
                {
                    "name": "D#4",
                    "midi": 63,
                    "time": 130.0910775000003,
                    "velocity": 0.1889763779527559,
                    "duration": 0.3293444999999906
                },
                {
                    "name": "A#3",
                    "midi": 58,
                    "time": 130.4204220000003,
                    "velocity": 0.23622047244094488,
                    "duration": 0.6586890000000096
                },
                {
                    "name": "D4",
                    "midi": 62,
                    "time": 130.4204220000003,
                    "velocity": 0.23622047244094488,
                    "duration": 0.6586890000000096
                },
                {
                    "name": "D3",
                    "midi": 50,
                    "time": 131.7378000000003,
                    "velocity": 0.2677165354330709,
                    "duration": 1.3173779999999908
                },
                {
                    "name": "C4",
                    "midi": 60,
                    "time": 132.0671445000003,
                    "velocity": 0.2125984251968504,
                    "duration": 0.6586890000000096
                },
                {
                    "name": "A3",
                    "midi": 57,
                    "time": 132.7258335000003,
                    "velocity": 0.2125984251968504,
                    "duration": 0.3293444999999906
                },
                {
                    "name": "G2",
                    "midi": 43,
                    "time": 133.0551780000003,
                    "velocity": 0.2677165354330709,
                    "duration": 0.3293444999999906
                },
                {
                    "name": "D4",
                    "midi": 62,
                    "time": 133.3845225000003,
                    "velocity": 0.31496062992125984,
                    "duration": 0.3293444999999906
                },
                {
                    "name": "G3",
                    "midi": 55,
                    "time": 133.3845225000003,
                    "velocity": 0.25984251968503935,
                    "duration": 0.3293444999999906
                },
                {
                    "name": "G#3",
                    "midi": 56,
                    "time": 133.71386700000028,
                    "velocity": 0.31496062992125984,
                    "duration": 0.3293444999999906
                },
                {
                    "name": "C4",
                    "midi": 60,
                    "time": 133.71386700000028,
                    "velocity": 0.3779527559055118,
                    "duration": 0.3293444999999906
                },
                {
                    "name": "G3",
                    "midi": 55,
                    "time": 134.04321150000027,
                    "velocity": 0.2440944881889764,
                    "duration": 0.3293444999999906
                },
                {
                    "name": "B3",
                    "midi": 59,
                    "time": 134.04321150000027,
                    "velocity": 0.28346456692913385,
                    "duration": 0.3293444999999906
                },
                {
                    "name": "G2",
                    "midi": 43,
                    "time": 134.37255600000026,
                    "velocity": 0.2677165354330709,
                    "duration": 0.3293444999999906
                },
                {
                    "name": "F4",
                    "midi": 65,
                    "time": 134.70190050000025,
                    "velocity": 0.36220472440944884,
                    "duration": 0.6586890000000096
                },
                {
                    "name": "G3",
                    "midi": 55,
                    "time": 134.70190050000025,
                    "velocity": 0.29133858267716534,
                    "duration": 0.9880335000000002
                },
                {
                    "name": "D4",
                    "midi": 62,
                    "time": 135.36058950000026,
                    "velocity": 0.2755905511811024,
                    "duration": 0.3293444999999906
                },
                {
                    "name": "C3",
                    "midi": 48,
                    "time": 135.68993400000025,
                    "velocity": 0.33070866141732286,
                    "duration": 0.9880335000000002
                },
                {
                    "name": "C4",
                    "midi": 60,
                    "time": 136.01927850000024,
                    "velocity": 0.25984251968503935,
                    "duration": 0.9880335000000002
                },
                {
                    "name": "G3",
                    "midi": 55,
                    "time": 136.67796750000025,
                    "velocity": 0.2125984251968504,
                    "duration": 0.3293444999999906
                },
                {
                    "name": "A3",
                    "midi": 57,
                    "time": 137.00731200000024,
                    "velocity": 0.2677165354330709,
                    "duration": 0.6586889999999812
                },
                {
                    "name": "C4",
                    "midi": 60,
                    "time": 137.33665650000023,
                    "velocity": 0.2125984251968504,
                    "duration": 0.6586889999999812
                },
                {
                    "name": "F3",
                    "midi": 53,
                    "time": 137.66600100000022,
                    "velocity": 0.29133858267716534,
                    "duration": 0.6586889999999812
                },
                {
                    "name": "C4",
                    "midi": 60,
                    "time": 137.9953455000002,
                    "velocity": 0.2125984251968504,
                    "duration": 0.3293444999999906
                },
                {
                    "name": "A#2",
                    "midi": 46,
                    "time": 138.3246900000002,
                    "velocity": 0.3228346456692913,
                    "duration": 0.3293444999999906
                },
                {
                    "name": "A#3",
                    "midi": 58,
                    "time": 138.6540345000002,
                    "velocity": 0.2283464566929134,
                    "duration": 0.3293444999999906
                },
                {
                    "name": "D4",
                    "midi": 62,
                    "time": 138.6540345000002,
                    "velocity": 0.2755905511811024,
                    "duration": 0.3293444999999906
                },
                {
                    "name": "C4",
                    "midi": 60,
                    "time": 138.98337900000018,
                    "velocity": 0.25984251968503935,
                    "duration": 0.3293444999999906
                },
                {
                    "name": "A3",
                    "midi": 57,
                    "time": 138.98337900000018,
                    "velocity": 0.2125984251968504,
                    "duration": 0.3293444999999906
                },
                {
                    "name": "G3",
                    "midi": 55,
                    "time": 139.31272350000017,
                    "velocity": 0.1968503937007874,
                    "duration": 0.3293444999999906
                },
                {
                    "name": "A#3",
                    "midi": 58,
                    "time": 139.31272350000017,
                    "velocity": 0.2440944881889764,
                    "duration": 0.3293444999999906
                },
                {
                    "name": "C3",
                    "midi": 48,
                    "time": 139.64206800000017,
                    "velocity": 0.2677165354330709,
                    "duration": 0.6586889999999812
                },
                {
                    "name": "A3",
                    "midi": 57,
                    "time": 139.97141250000016,
                    "velocity": 0.2125984251968504,
                    "duration": 0.3293444999999906
                },
                {
                    "name": "C3",
                    "midi": 48,
                    "time": 140.30075700000015,
                    "velocity": 0.2677165354330709,
                    "duration": 0.6586889999999812
                },
                {
                    "name": "A#3",
                    "midi": 58,
                    "time": 140.63010150000014,
                    "velocity": 0.2125984251968504,
                    "duration": 0.3293444999999906
                },
                {
                    "name": "A3",
                    "midi": 57,
                    "time": 140.95944600000013,
                    "velocity": 0.2677165354330709,
                    "duration": 1.3173779999999908
                },
                {
                    "name": "F3",
                    "midi": 53,
                    "time": 140.95944600000013,
                    "velocity": 0.2677165354330709,
                    "duration": 1.3173779999999908
                },
                {
                    "name": "A#2",
                    "midi": 46,
                    "time": 142.27682400000012,
                    "velocity": 0.23622047244094488,
                    "duration": 1.3173779999999908
                },
                {
                    "name": "F3",
                    "midi": 53,
                    "time": 142.6061685000001,
                    "velocity": 0.1889763779527559,
                    "duration": 0.6586890000000096
                },
                {
                    "name": "F3",
                    "midi": 53,
                    "time": 143.26485750000012,
                    "velocity": 0.1889763779527559,
                    "duration": 0.3293444999999906
                },
                {
                    "name": "D3",
                    "midi": 50,
                    "time": 143.5942020000001,
                    "velocity": 0.23622047244094488,
                    "duration": 1.3173779999999908
                },
                {
                    "name": "A#3",
                    "midi": 58,
                    "time": 143.9235465000001,
                    "velocity": 0.1889763779527559,
                    "duration": 0.6586890000000096
                },
                {
                    "name": "A#3",
                    "midi": 58,
                    "time": 144.5822355000001,
                    "velocity": 0.1889763779527559,
                    "duration": 0.3293444999999906
                },
                {
                    "name": "D#3",
                    "midi": 51,
                    "time": 144.9115800000001,
                    "velocity": 0.23622047244094488,
                    "duration": 1.3173779999999908
                },
                {
                    "name": "A#3",
                    "midi": 58,
                    "time": 145.2409245000001,
                    "velocity": 0.2204724409448819,
                    "duration": 0.6586890000000096
                },
                {
                    "name": "A#3",
                    "midi": 58,
                    "time": 145.8996135000001,
                    "velocity": 0.2204724409448819,
                    "duration": 0.3293444999999906
                },
                {
                    "name": "E3",
                    "midi": 52,
                    "time": 146.2289580000001,
                    "velocity": 0.29133858267716534,
                    "duration": 1.3173779999999908
                },
                {
                    "name": "A#3",
                    "midi": 58,
                    "time": 146.55830250000008,
                    "velocity": 0.2204724409448819,
                    "duration": 0.6586890000000096
                },
                {
                    "name": "C#4",
                    "midi": 61,
                    "time": 146.55830250000008,
                    "velocity": 0.2204724409448819,
                    "duration": 0.6586890000000096
                },
                {
                    "name": "C#4",
                    "midi": 61,
                    "time": 147.2169915000001,
                    "velocity": 0.2204724409448819,
                    "duration": 0.3293444999999906
                },
                {
                    "name": "A#3",
                    "midi": 58,
                    "time": 147.2169915000001,
                    "velocity": 0.2204724409448819,
                    "duration": 0.3293444999999906
                },
                {
                    "name": "G3",
                    "midi": 55,
                    "time": 147.54633600000008,
                    "velocity": 0.29133858267716534,
                    "duration": 1.3173779999999908
                },
                {
                    "name": "C4",
                    "midi": 60,
                    "time": 147.87568050000007,
                    "velocity": 0.1889763779527559,
                    "duration": 0.6586890000000096
                },
                {
                    "name": "A#3",
                    "midi": 58,
                    "time": 147.87568050000007,
                    "velocity": 0.1889763779527559,
                    "duration": 0.6586890000000096
                },
                {
                    "name": "C#4",
                    "midi": 61,
                    "time": 148.53436950000008,
                    "velocity": 0.1889763779527559,
                    "duration": 0.3293444999999906
                },
                {
                    "name": "A#3",
                    "midi": 58,
                    "time": 148.53436950000008,
                    "velocity": 0.1889763779527559,
                    "duration": 0.3293444999999906
                },
                {
                    "name": "F3",
                    "midi": 53,
                    "time": 148.86371400000007,
                    "velocity": 0.2677165354330709,
                    "duration": 1.3173779999999624
                },
                {
                    "name": "A#3",
                    "midi": 58,
                    "time": 149.19305850000006,
                    "velocity": 0.2283464566929134,
                    "duration": 0.3293444999999906
                },
                {
                    "name": "D4",
                    "midi": 62,
                    "time": 149.19305850000006,
                    "velocity": 0.2283464566929134,
                    "duration": 0.3293444999999906
                },
                {
                    "name": "D#4",
                    "midi": 63,
                    "time": 149.52240300000005,
                    "velocity": 0.2283464566929134,
                    "duration": 0.3293444999999906
                },
                {
                    "name": "C4",
                    "midi": 60,
                    "time": 149.52240300000005,
                    "velocity": 0.1889763779527559,
                    "duration": 0.3293444999999906
                },
                {
                    "name": "D4",
                    "midi": 62,
                    "time": 149.85174750000004,
                    "velocity": 0.15748031496062992,
                    "duration": 0.3293444999999906
                },
                {
                    "name": "F4",
                    "midi": 65,
                    "time": 149.85174750000004,
                    "velocity": 0.1889763779527559,
                    "duration": 0.3293444999999906
                },
                {
                    "name": "F3",
                    "midi": 53,
                    "time": 150.18109200000004,
                    "velocity": 0.23622047244094488,
                    "duration": 0.9880334999999718
                },
                {
                    "name": "C4",
                    "midi": 60,
                    "time": 150.51043650000003,
                    "velocity": 0.1889763779527559,
                    "duration": 0.3293444999999906
                },
                {
                    "name": "D#4",
                    "midi": 63,
                    "time": 150.51043650000003,
                    "velocity": 0.1889763779527559,
                    "duration": 0.3293444999999906
                },
                {
                    "name": "D4",
                    "midi": 62,
                    "time": 150.83978100000002,
                    "velocity": 0.1889763779527559,
                    "duration": 0.3293444999999906
                },
                {
                    "name": "A#3",
                    "midi": 58,
                    "time": 150.83978100000002,
                    "velocity": 0.1889763779527559,
                    "duration": 0.3293444999999906
                },
                {
                    "name": "C4",
                    "midi": 60,
                    "time": 151.1691255,
                    "velocity": 0.1889763779527559,
                    "duration": 0.3293444999999906
                },
                {
                    "name": "F3",
                    "midi": 53,
                    "time": 151.1691255,
                    "velocity": 0.1889763779527559,
                    "duration": 0.3293444999999906
                },
                {
                    "name": "A#2",
                    "midi": 46,
                    "time": 151.49847,
                    "velocity": 0.1968503937007874,
                    "duration": 0.6586890000000096
                },
                {
                    "name": "A#3",
                    "midi": 58,
                    "time": 151.49847,
                    "velocity": 0.23622047244094488,
                    "duration": 0.6586890000000096
                },
                {
                    "name": "D3",
                    "midi": 50,
                    "time": 151.49847,
                    "velocity": 0.1968503937007874,
                    "duration": 0.6586890000000096
                },
                {
                    "name": "D3",
                    "midi": 50,
                    "time": 152.4865035,
                    "velocity": 0.23622047244094488,
                    "duration": 0.1646722499999953
                },
                {
                    "name": "D3",
                    "midi": 50,
                    "time": 152.815848,
                    "velocity": 0.2677165354330709,
                    "duration": 1.3173779999999908
                },
                {
                    "name": "C4",
                    "midi": 60,
                    "time": 153.14519249999998,
                    "velocity": 0.2125984251968504,
                    "duration": 0.6586890000000096
                },
                {
                    "name": "A3",
                    "midi": 57,
                    "time": 153.8038815,
                    "velocity": 0.2125984251968504,
                    "duration": 0.3293444999999906
                },
                {
                    "name": "G2",
                    "midi": 43,
                    "time": 154.13322599999998,
                    "velocity": 0.2677165354330709,
                    "duration": 0.3293444999999906
                },
                {
                    "name": "D4",
                    "midi": 62,
                    "time": 154.46257049999997,
                    "velocity": 0.31496062992125984,
                    "duration": 0.3293444999999906
                },
                {
                    "name": "G3",
                    "midi": 55,
                    "time": 154.46257049999997,
                    "velocity": 0.25984251968503935,
                    "duration": 0.3293444999999906
                },
                {
                    "name": "G#3",
                    "midi": 56,
                    "time": 154.79191499999996,
                    "velocity": 0.31496062992125984,
                    "duration": 0.3293444999999906
                },
                {
                    "name": "C4",
                    "midi": 60,
                    "time": 154.79191499999996,
                    "velocity": 0.3779527559055118,
                    "duration": 0.3293444999999906
                },
                {
                    "name": "B3",
                    "midi": 59,
                    "time": 155.12125949999995,
                    "velocity": 0.28346456692913385,
                    "duration": 0.3293444999999906
                },
                {
                    "name": "G3",
                    "midi": 55,
                    "time": 155.12125949999995,
                    "velocity": 0.2440944881889764,
                    "duration": 0.3293444999999906
                },
                {
                    "name": "G2",
                    "midi": 43,
                    "time": 155.45060399999994,
                    "velocity": 0.2677165354330709,
                    "duration": 0.3293444999999906
                },
                {
                    "name": "G3",
                    "midi": 55,
                    "time": 155.77994849999993,
                    "velocity": 0.29133858267716534,
                    "duration": 0.9880335000000002
                },
                {
                    "name": "F4",
                    "midi": 65,
                    "time": 155.77994849999993,
                    "velocity": 0.36220472440944884,
                    "duration": 0.6586890000000096
                },
                {
                    "name": "D4",
                    "midi": 62,
                    "time": 156.43863749999994,
                    "velocity": 0.2755905511811024,
                    "duration": 0.3293444999999906
                },
                {
                    "name": "C3",
                    "midi": 48,
                    "time": 156.76798199999993,
                    "velocity": 0.33070866141732286,
                    "duration": 0.9880335000000002
                },
                {
                    "name": "C4",
                    "midi": 60,
                    "time": 157.09732649999992,
                    "velocity": 0.25984251968503935,
                    "duration": 0.9880335000000002
                },
                {
                    "name": "G3",
                    "midi": 55,
                    "time": 157.75601549999993,
                    "velocity": 0.2125984251968504,
                    "duration": 0.3293444999999906
                },
                {
                    "name": "A3",
                    "midi": 57,
                    "time": 158.08535999999992,
                    "velocity": 0.2677165354330709,
                    "duration": 0.6586889999999812
                },
                {
                    "name": "C4",
                    "midi": 60,
                    "time": 158.4147044999999,
                    "velocity": 0.2125984251968504,
                    "duration": 0.6586889999999812
                },
                {
                    "name": "F3",
                    "midi": 53,
                    "time": 158.7440489999999,
                    "velocity": 0.29133858267716534,
                    "duration": 0.6586889999999812
                },
                {
                    "name": "C4",
                    "midi": 60,
                    "time": 159.0733934999999,
                    "velocity": 0.2125984251968504,
                    "duration": 0.3293444999999906
                },
                {
                    "name": "A#2",
                    "midi": 46,
                    "time": 159.40273799999989,
                    "velocity": 0.3228346456692913,
                    "duration": 0.3293444999999906
                },
                {
                    "name": "D4",
                    "midi": 62,
                    "time": 159.73208249999988,
                    "velocity": 0.2755905511811024,
                    "duration": 0.3293444999999906
                },
                {
                    "name": "A#3",
                    "midi": 58,
                    "time": 159.73208249999988,
                    "velocity": 0.2283464566929134,
                    "duration": 0.3293444999999906
                },
                {
                    "name": "C4",
                    "midi": 60,
                    "time": 160.06142699999987,
                    "velocity": 0.25984251968503935,
                    "duration": 0.3293444999999906
                },
                {
                    "name": "A3",
                    "midi": 57,
                    "time": 160.06142699999987,
                    "velocity": 0.2125984251968504,
                    "duration": 0.3293444999999906
                },
                {
                    "name": "G3",
                    "midi": 55,
                    "time": 160.39077149999986,
                    "velocity": 0.1968503937007874,
                    "duration": 0.3293444999999906
                },
                {
                    "name": "A#3",
                    "midi": 58,
                    "time": 160.39077149999986,
                    "velocity": 0.2440944881889764,
                    "duration": 0.3293444999999906
                },
                {
                    "name": "C3",
                    "midi": 48,
                    "time": 160.72011599999985,
                    "velocity": 0.2677165354330709,
                    "duration": 0.6586889999999812
                },
                {
                    "name": "A3",
                    "midi": 57,
                    "time": 161.04946049999984,
                    "velocity": 0.2125984251968504,
                    "duration": 0.3293444999999906
                },
                {
                    "name": "C3",
                    "midi": 48,
                    "time": 161.37880499999983,
                    "velocity": 0.2677165354330709,
                    "duration": 0.6586889999999812
                },
                {
                    "name": "A#3",
                    "midi": 58,
                    "time": 161.70814949999982,
                    "velocity": 0.2125984251968504,
                    "duration": 0.3293444999999906
                },
                {
                    "name": "A3",
                    "midi": 57,
                    "time": 162.0374939999998,
                    "velocity": 0.2677165354330709,
                    "duration": 1.3173779999999908
                },
                {
                    "name": "F3",
                    "midi": 53,
                    "time": 162.0374939999998,
                    "velocity": 0.2677165354330709,
                    "duration": 1.3173779999999908
                },
                {
                    "name": "A#2",
                    "midi": 46,
                    "time": 163.3548719999998,
                    "velocity": 0.23622047244094488,
                    "duration": 1.3173779999999908
                },
                {
                    "name": "F3",
                    "midi": 53,
                    "time": 163.6842164999998,
                    "velocity": 0.1889763779527559,
                    "duration": 0.6586890000000096
                },
                {
                    "name": "F3",
                    "midi": 53,
                    "time": 164.3429054999998,
                    "velocity": 0.1889763779527559,
                    "duration": 0.3293444999999906
                },
                {
                    "name": "D3",
                    "midi": 50,
                    "time": 164.6722499999998,
                    "velocity": 0.23622047244094488,
                    "duration": 1.3173779999999908
                },
                {
                    "name": "A#3",
                    "midi": 58,
                    "time": 165.00159449999978,
                    "velocity": 0.1889763779527559,
                    "duration": 0.6586890000000096
                },
                {
                    "name": "A#3",
                    "midi": 58,
                    "time": 165.6602834999998,
                    "velocity": 0.1889763779527559,
                    "duration": 0.3293444999999906
                },
                {
                    "name": "D#3",
                    "midi": 51,
                    "time": 165.98962799999978,
                    "velocity": 0.23622047244094488,
                    "duration": 1.3173779999999908
                },
                {
                    "name": "A#3",
                    "midi": 58,
                    "time": 166.31897249999977,
                    "velocity": 0.2204724409448819,
                    "duration": 0.6586890000000096
                },
                {
                    "name": "A#3",
                    "midi": 58,
                    "time": 166.97766149999978,
                    "velocity": 0.2204724409448819,
                    "duration": 0.3293444999999906
                },
                {
                    "name": "E3",
                    "midi": 52,
                    "time": 167.30700599999977,
                    "velocity": 0.29133858267716534,
                    "duration": 1.3173779999999908
                },
                {
                    "name": "A#3",
                    "midi": 58,
                    "time": 167.63635049999976,
                    "velocity": 0.2204724409448819,
                    "duration": 0.6586890000000096
                },
                {
                    "name": "C#4",
                    "midi": 61,
                    "time": 167.63635049999976,
                    "velocity": 0.2204724409448819,
                    "duration": 0.6586890000000096
                },
                {
                    "name": "C#4",
                    "midi": 61,
                    "time": 168.29503949999977,
                    "velocity": 0.2204724409448819,
                    "duration": 0.3293444999999906
                },
                {
                    "name": "A#3",
                    "midi": 58,
                    "time": 168.29503949999977,
                    "velocity": 0.2204724409448819,
                    "duration": 0.3293444999999906
                },
                {
                    "name": "G3",
                    "midi": 55,
                    "time": 168.62438399999976,
                    "velocity": 0.29133858267716534,
                    "duration": 1.3173779999999908
                },
                {
                    "name": "C4",
                    "midi": 60,
                    "time": 168.95372849999976,
                    "velocity": 0.1889763779527559,
                    "duration": 0.6586890000000096
                },
                {
                    "name": "A#3",
                    "midi": 58,
                    "time": 168.95372849999976,
                    "velocity": 0.1889763779527559,
                    "duration": 0.6586890000000096
                },
                {
                    "name": "C#4",
                    "midi": 61,
                    "time": 169.61241749999976,
                    "velocity": 0.1889763779527559,
                    "duration": 0.3293444999999906
                },
                {
                    "name": "A#3",
                    "midi": 58,
                    "time": 169.61241749999976,
                    "velocity": 0.1889763779527559,
                    "duration": 0.3293444999999906
                },
                {
                    "name": "F3",
                    "midi": 53,
                    "time": 169.94176199999976,
                    "velocity": 0.2677165354330709,
                    "duration": 1.3173779999999624
                },
                {
                    "name": "A#3",
                    "midi": 58,
                    "time": 170.27110649999975,
                    "velocity": 0.2283464566929134,
                    "duration": 0.3293444999999906
                },
                {
                    "name": "D4",
                    "midi": 62,
                    "time": 170.27110649999975,
                    "velocity": 0.2283464566929134,
                    "duration": 0.3293444999999906
                },
                {
                    "name": "D#4",
                    "midi": 63,
                    "time": 170.60045099999974,
                    "velocity": 0.2283464566929134,
                    "duration": 0.3293444999999906
                },
                {
                    "name": "C4",
                    "midi": 60,
                    "time": 170.60045099999974,
                    "velocity": 0.1889763779527559,
                    "duration": 0.3293444999999906
                },
                {
                    "name": "D4",
                    "midi": 62,
                    "time": 170.92979549999973,
                    "velocity": 0.15748031496062992,
                    "duration": 0.3293444999999906
                },
                {
                    "name": "F4",
                    "midi": 65,
                    "time": 170.92979549999973,
                    "velocity": 0.1889763779527559,
                    "duration": 0.3293444999999906
                },
                {
                    "name": "F3",
                    "midi": 53,
                    "time": 171.25913999999972,
                    "velocity": 0.23622047244094488,
                    "duration": 0.9880334999999718
                },
                {
                    "name": "C4",
                    "midi": 60,
                    "time": 171.5884844999997,
                    "velocity": 0.1889763779527559,
                    "duration": 0.3293444999999906
                },
                {
                    "name": "D#4",
                    "midi": 63,
                    "time": 171.5884844999997,
                    "velocity": 0.1889763779527559,
                    "duration": 0.3293444999999906
                },
                {
                    "name": "D4",
                    "midi": 62,
                    "time": 171.9178289999997,
                    "velocity": 0.1889763779527559,
                    "duration": 0.3293444999999906
                },
                {
                    "name": "A#3",
                    "midi": 58,
                    "time": 171.9178289999997,
                    "velocity": 0.1889763779527559,
                    "duration": 0.3293444999999906
                },
                {
                    "name": "C4",
                    "midi": 60,
                    "time": 172.2471734999997,
                    "velocity": 0.1889763779527559,
                    "duration": 0.3293444999999906
                },
                {
                    "name": "F3",
                    "midi": 53,
                    "time": 172.2471734999997,
                    "velocity": 0.1889763779527559,
                    "duration": 0.3293444999999906
                },
                {
                    "name": "A#2",
                    "midi": 46,
                    "time": 172.57651799999968,
                    "velocity": 0.1968503937007874,
                    "duration": 0.6586890000000096
                },
                {
                    "name": "D3",
                    "midi": 50,
                    "time": 172.57651799999968,
                    "velocity": 0.1968503937007874,
                    "duration": 0.6586890000000096
                },
                {
                    "name": "A#3",
                    "midi": 58,
                    "time": 172.57651799999968,
                    "velocity": 0.23622047244094488,
                    "duration": 0.6586890000000096
                },
                {
                    "name": "A#3",
                    "midi": 58,
                    "time": 173.56455149999968,
                    "velocity": 0.23622047244094488,
                    "duration": 0.3293444999999906
                },
                {
                    "name": "F3",
                    "midi": 53,
                    "time": 173.89389599999967,
                    "velocity": 0.2125984251968504,
                    "duration": 0.9880334999999718
                },
                {
                    "name": "D#4",
                    "midi": 63,
                    "time": 174.22324049999966,
                    "velocity": 0.16535433070866143,
                    "duration": 0.3293444999999906
                },
                {
                    "name": "C4",
                    "midi": 60,
                    "time": 174.22324049999966,
                    "velocity": 0.16535433070866143,
                    "duration": 0.3293444999999906
                },
                {
                    "name": "D4",
                    "midi": 62,
                    "time": 174.55258499999965,
                    "velocity": 0.16535433070866143,
                    "duration": 0.3293444999999906
                },
                {
                    "name": "A#3",
                    "midi": 58,
                    "time": 174.55258499999965,
                    "velocity": 0.16535433070866143,
                    "duration": 0.3293444999999906
                },
                {
                    "name": "C4",
                    "midi": 60,
                    "time": 174.88192949999964,
                    "velocity": 0.16535433070866143,
                    "duration": 0.3293444999999906
                },
                {
                    "name": "F3",
                    "midi": 53,
                    "time": 174.88192949999964,
                    "velocity": 0.16535433070866143,
                    "duration": 0.3293444999999906
                },
                {
                    "name": "D3",
                    "midi": 50,
                    "time": 175.21127399999963,
                    "velocity": 0.1732283464566929,
                    "duration": 0.6586890000000096
                },
                {
                    "name": "A#2",
                    "midi": 46,
                    "time": 175.21127399999963,
                    "velocity": 0.1732283464566929,
                    "duration": 0.6586890000000096
                },
                {
                    "name": "A#3",
                    "midi": 58,
                    "time": 175.21127399999963,
                    "velocity": 0.2125984251968504,
                    "duration": 0.6586890000000096
                },
                {
                    "name": "F3",
                    "midi": 53,
                    "time": 176.19930749999963,
                    "velocity": 0.2125984251968504,
                    "duration": 0.3293444999999906
                },
                {
                    "name": "D3",
                    "midi": 50,
                    "time": 176.19930749999963,
                    "velocity": 0.16535433070866143,
                    "duration": 0.3293444999999906
                },
                {
                    "name": "F2",
                    "midi": 41,
                    "time": 176.52865199999962,
                    "velocity": 0.2125984251968504,
                    "duration": 0.9880334999999718
                },
                {
                    "name": "D#3",
                    "midi": 51,
                    "time": 176.85799649999962,
                    "velocity": 0.16535433070866143,
                    "duration": 0.3293444999999906
                },
                {
                    "name": "C3",
                    "midi": 48,
                    "time": 176.85799649999962,
                    "velocity": 0.16535433070866143,
                    "duration": 0.3293444999999906
                },
                {
                    "name": "A#2",
                    "midi": 46,
                    "time": 177.1873409999996,
                    "velocity": 0.16535433070866143,
                    "duration": 0.3293444999999906
                },
                {
                    "name": "D3",
                    "midi": 50,
                    "time": 177.1873409999996,
                    "velocity": 0.16535433070866143,
                    "duration": 0.3293444999999906
                },
                {
                    "name": "C3",
                    "midi": 48,
                    "time": 177.5166854999996,
                    "velocity": 0.16535433070866143,
                    "duration": 0.3293444999999906
                },
                {
                    "name": "F2",
                    "midi": 41,
                    "time": 177.5166854999996,
                    "velocity": 0.16535433070866143,
                    "duration": 0.3293444999999906
                },
                {
                    "name": "A#2",
                    "midi": 46,
                    "time": 177.8460299999996,
                    "velocity": 0.2125984251968504,
                    "duration": 1.3173779999999908
                },
                {
                    "name": "F2",
                    "midi": 41,
                    "time": 177.8460299999996,
                    "velocity": 0.2125984251968504,
                    "duration": 1.3173779999999908
                },
                {
                    "name": "A#1",
                    "midi": 34,
                    "time": 177.8460299999996,
                    "velocity": 0.2125984251968504,
                    "duration": 1.3173779999999908
                },
                {
                    "name": "A#2",
                    "midi": 46,
                    "time": 181.7981639999996,
                    "velocity": 0.2755905511811024,
                    "duration": 0.1646722499999953
                },
                {
                    "name": "D4",
                    "midi": 62,
                    "time": 182.12750849999958,
                    "velocity": 0.1889763779527559,
                    "duration": 0.6586890000000096
                },
                {
                    "name": "A#3",
                    "midi": 58,
                    "time": 182.12750849999958,
                    "velocity": 0.15748031496062992,
                    "duration": 0.6586890000000096
                },
                {
                    "name": "F3",
                    "midi": 53,
                    "time": 182.12750849999958,
                    "velocity": 0.15748031496062992,
                    "duration": 0.6586890000000096
                },
                {
                    "name": "F3",
                    "midi": 53,
                    "time": 182.7861974999996,
                    "velocity": 0.16535433070866143,
                    "duration": 0.3293444999999906
                },
                {
                    "name": "A#3",
                    "midi": 58,
                    "time": 182.7861974999996,
                    "velocity": 0.16535433070866143,
                    "duration": 0.3293444999999906
                },
                {
                    "name": "D4",
                    "midi": 62,
                    "time": 182.7861974999996,
                    "velocity": 0.1968503937007874,
                    "duration": 0.3293444999999906
                },
                {
                    "name": "D3",
                    "midi": 50,
                    "time": 183.11554199999958,
                    "velocity": 0.2755905511811024,
                    "duration": 0.1646722499999953
                },
                {
                    "name": "A#3",
                    "midi": 58,
                    "time": 183.44488649999957,
                    "velocity": 0.18110236220472442,
                    "duration": 0.6586890000000096
                },
                {
                    "name": "F3",
                    "midi": 53,
                    "time": 183.44488649999957,
                    "velocity": 0.18110236220472442,
                    "duration": 0.6586890000000096
                },
                {
                    "name": "D4",
                    "midi": 62,
                    "time": 183.44488649999957,
                    "velocity": 0.2204724409448819,
                    "duration": 0.6586890000000096
                },
                {
                    "name": "A#3",
                    "midi": 58,
                    "time": 184.10357549999958,
                    "velocity": 0.1732283464566929,
                    "duration": 0.3293444999999906
                },
                {
                    "name": "D4",
                    "midi": 62,
                    "time": 184.10357549999958,
                    "velocity": 0.2125984251968504,
                    "duration": 0.3293444999999906
                },
                {
                    "name": "F3",
                    "midi": 53,
                    "time": 184.10357549999958,
                    "velocity": 0.1732283464566929,
                    "duration": 0.3293444999999906
                },
                {
                    "name": "C3",
                    "midi": 48,
                    "time": 184.43291999999957,
                    "velocity": 0.2755905511811024,
                    "duration": 0.1646722499999953
                },
                {
                    "name": "F3",
                    "midi": 53,
                    "time": 184.76226449999956,
                    "velocity": 0.15748031496062992,
                    "duration": 0.6586890000000096
                },
                {
                    "name": "A3",
                    "midi": 57,
                    "time": 184.76226449999956,
                    "velocity": 0.15748031496062992,
                    "duration": 0.6586890000000096
                },
                {
                    "name": "D#4",
                    "midi": 63,
                    "time": 184.76226449999956,
                    "velocity": 0.1889763779527559,
                    "duration": 0.6586890000000096
                },
                {
                    "name": "F3",
                    "midi": 53,
                    "time": 185.42095349999957,
                    "velocity": 0.16535433070866143,
                    "duration": 0.3293444999999906
                },
                {
                    "name": "D#4",
                    "midi": 63,
                    "time": 185.42095349999957,
                    "velocity": 0.1968503937007874,
                    "duration": 0.3293444999999906
                },
                {
                    "name": "A3",
                    "midi": 57,
                    "time": 185.42095349999957,
                    "velocity": 0.16535433070866143,
                    "duration": 0.3293444999999906
                },
                {
                    "name": "F2",
                    "midi": 41,
                    "time": 185.75029799999956,
                    "velocity": 0.2755905511811024,
                    "duration": 0.1646722499999953
                },
                {
                    "name": "F3",
                    "midi": 53,
                    "time": 186.07964249999955,
                    "velocity": 0.18110236220472442,
                    "duration": 0.6586890000000096
                },
                {
                    "name": "C4",
                    "midi": 60,
                    "time": 186.07964249999955,
                    "velocity": 0.2204724409448819,
                    "duration": 0.6586890000000096
                },
                {
                    "name": "A3",
                    "midi": 57,
                    "time": 186.07964249999955,
                    "velocity": 0.18110236220472442,
                    "duration": 0.6586890000000096
                },
                {
                    "name": "A3",
                    "midi": 57,
                    "time": 186.73833149999956,
                    "velocity": 0.1732283464566929,
                    "duration": 0.3293444999999906
                },
                {
                    "name": "F3",
                    "midi": 53,
                    "time": 186.73833149999956,
                    "velocity": 0.1732283464566929,
                    "duration": 0.3293444999999906
                },
                {
                    "name": "C4",
                    "midi": 60,
                    "time": 186.73833149999956,
                    "velocity": 0.2125984251968504,
                    "duration": 0.3293444999999906
                },
                {
                    "name": "A#2",
                    "midi": 46,
                    "time": 187.06767599999955,
                    "velocity": 0.2755905511811024,
                    "duration": 0.1646722499999953
                },
                {
                    "name": "D4",
                    "midi": 62,
                    "time": 187.39702049999954,
                    "velocity": 0.1889763779527559,
                    "duration": 0.6586890000000096
                },
                {
                    "name": "F3",
                    "midi": 53,
                    "time": 187.39702049999954,
                    "velocity": 0.15748031496062992,
                    "duration": 0.6586890000000096
                },
                {
                    "name": "A#3",
                    "midi": 58,
                    "time": 187.39702049999954,
                    "velocity": 0.15748031496062992,
                    "duration": 0.6586890000000096
                },
                {
                    "name": "A#3",
                    "midi": 58,
                    "time": 188.05570949999955,
                    "velocity": 0.16535433070866143,
                    "duration": 0.3293444999999906
                },
                {
                    "name": "D4",
                    "midi": 62,
                    "time": 188.05570949999955,
                    "velocity": 0.1968503937007874,
                    "duration": 0.3293444999999906
                },
                {
                    "name": "F3",
                    "midi": 53,
                    "time": 188.05570949999955,
                    "velocity": 0.16535433070866143,
                    "duration": 0.3293444999999906
                },
                {
                    "name": "D#2",
                    "midi": 39,
                    "time": 188.38505399999954,
                    "velocity": 0.2755905511811024,
                    "duration": 0.1646722499999953
                },
                {
                    "name": "A#3",
                    "midi": 58,
                    "time": 188.71439849999953,
                    "velocity": 0.18110236220472442,
                    "duration": 0.6586890000000096
                },
                {
                    "name": "G3",
                    "midi": 55,
                    "time": 188.71439849999953,
                    "velocity": 0.18110236220472442,
                    "duration": 0.6586890000000096
                },
                {
                    "name": "D#3",
                    "midi": 51,
                    "time": 188.71439849999953,
                    "velocity": 0.18110236220472442,
                    "duration": 0.6586890000000096
                },
                {
                    "name": "C4",
                    "midi": 60,
                    "time": 188.71439849999953,
                    "velocity": 0.2204724409448819,
                    "duration": 0.6586890000000096
                },
                {
                    "name": "A#3",
                    "midi": 58,
                    "time": 189.37308749999954,
                    "velocity": 0.1732283464566929,
                    "duration": 0.3293444999999906
                },
                {
                    "name": "D#3",
                    "midi": 51,
                    "time": 189.37308749999954,
                    "velocity": 0.1732283464566929,
                    "duration": 0.3293444999999906
                },
                {
                    "name": "C4",
                    "midi": 60,
                    "time": 189.37308749999954,
                    "velocity": 0.2125984251968504,
                    "duration": 0.3293444999999906
                },
                {
                    "name": "G3",
                    "midi": 55,
                    "time": 189.37308749999954,
                    "velocity": 0.1732283464566929,
                    "duration": 0.3293444999999906
                },
                {
                    "name": "D#2",
                    "midi": 39,
                    "time": 189.70243199999953,
                    "velocity": 0.33070866141732286,
                    "duration": 0.3293444999999906
                },
                {
                    "name": "C4",
                    "midi": 60,
                    "time": 190.03177649999952,
                    "velocity": 0.2755905511811024,
                    "duration": 0.6586889999999812
                },
                {
                    "name": "G3",
                    "midi": 55,
                    "time": 190.03177649999952,
                    "velocity": 0.2283464566929134,
                    "duration": 0.3293444999999906
                },
                {
                    "name": "E3",
                    "midi": 52,
                    "time": 190.03177649999952,
                    "velocity": 0.2283464566929134,
                    "duration": 0.6586889999999812
                },
                {
                    "name": "A3",
                    "midi": 57,
                    "time": 190.3611209999995,
                    "velocity": 0.2755905511811024,
                    "duration": 0.3293444999999906
                },
                {
                    "name": "C4",
                    "midi": 60,
                    "time": 190.6904654999995,
                    "velocity": 0.30708661417322836,
                    "duration": 0.3293444999999906
                },
                {
                    "name": "E3",
                    "midi": 52,
                    "time": 190.6904654999995,
                    "velocity": 0.25984251968503935,
                    "duration": 0.3293444999999906
                },
                {
                    "name": "A#3",
                    "midi": 58,
                    "time": 190.6904654999995,
                    "velocity": 0.25984251968503935,
                    "duration": 0.3293444999999906
                },
                {
                    "name": "F2",
                    "midi": 41,
                    "time": 191.0198099999995,
                    "velocity": 0.3464566929133858,
                    "duration": 0.3293444999999906
                },
                {
                    "name": "C4",
                    "midi": 60,
                    "time": 191.34915449999949,
                    "velocity": 0.2992125984251969,
                    "duration": 0.3293444999999906
                },
                {
                    "name": "F3",
                    "midi": 53,
                    "time": 191.34915449999949,
                    "velocity": 0.25196850393700787,
                    "duration": 0.9880334999999718
                },
                {
                    "name": "A3",
                    "midi": 57,
                    "time": 191.34915449999949,
                    "velocity": 0.25196850393700787,
                    "duration": 0.3293444999999906
                },
                {
                    "name": "D4",
                    "midi": 62,
                    "time": 191.67849899999948,
                    "velocity": 0.29133858267716534,
                    "duration": 0.3293444999999906
                },
                {
                    "name": "A#3",
                    "midi": 58,
                    "time": 191.67849899999948,
                    "velocity": 0.2440944881889764,
                    "duration": 0.3293444999999906
                },
                {
                    "name": "D#4",
                    "midi": 63,
                    "time": 192.00784349999947,
                    "velocity": 0.28346456692913385,
                    "duration": 0.3293444999999906
                },
                {
                    "name": "C4",
                    "midi": 60,
                    "time": 192.00784349999947,
                    "velocity": 0.23622047244094488,
                    "duration": 0.3293444999999906
                },
                {
                    "name": "A#2",
                    "midi": 46,
                    "time": 192.33718799999946,
                    "velocity": 0.2755905511811024,
                    "duration": 0.1646722499999953
                },
                {
                    "name": "A#3",
                    "midi": 58,
                    "time": 192.66653249999945,
                    "velocity": 0.15748031496062992,
                    "duration": 0.6586890000000096
                },
                {
                    "name": "D4",
                    "midi": 62,
                    "time": 192.66653249999945,
                    "velocity": 0.1889763779527559,
                    "duration": 0.6586890000000096
                },
                {
                    "name": "F3",
                    "midi": 53,
                    "time": 192.66653249999945,
                    "velocity": 0.15748031496062992,
                    "duration": 0.6586890000000096
                },
                {
                    "name": "D4",
                    "midi": 62,
                    "time": 193.32522149999946,
                    "velocity": 0.1968503937007874,
                    "duration": 0.3293444999999906
                },
                {
                    "name": "F3",
                    "midi": 53,
                    "time": 193.32522149999946,
                    "velocity": 0.16535433070866143,
                    "duration": 0.3293444999999906
                },
                {
                    "name": "A#3",
                    "midi": 58,
                    "time": 193.32522149999946,
                    "velocity": 0.16535433070866143,
                    "duration": 0.3293444999999906
                },
                {
                    "name": "D3",
                    "midi": 50,
                    "time": 193.65456599999945,
                    "velocity": 0.2755905511811024,
                    "duration": 0.1646722499999953
                },
                {
                    "name": "F4",
                    "midi": 65,
                    "time": 193.98391049999944,
                    "velocity": 0.2204724409448819,
                    "duration": 0.6586890000000096
                },
                {
                    "name": "F3",
                    "midi": 53,
                    "time": 193.98391049999944,
                    "velocity": 0.18110236220472442,
                    "duration": 0.6586890000000096
                },
                {
                    "name": "A#3",
                    "midi": 58,
                    "time": 193.98391049999944,
                    "velocity": 0.18110236220472442,
                    "duration": 0.6586890000000096
                },
                {
                    "name": "F4",
                    "midi": 65,
                    "time": 194.64259949999945,
                    "velocity": 0.2125984251968504,
                    "duration": 0.3293444999999906
                },
                {
                    "name": "F3",
                    "midi": 53,
                    "time": 194.64259949999945,
                    "velocity": 0.1732283464566929,
                    "duration": 0.3293444999999906
                },
                {
                    "name": "A#3",
                    "midi": 58,
                    "time": 194.64259949999945,
                    "velocity": 0.1732283464566929,
                    "duration": 0.3293444999999906
                },
                {
                    "name": "C3",
                    "midi": 48,
                    "time": 194.97194399999944,
                    "velocity": 0.2755905511811024,
                    "duration": 0.1646722499999953
                },
                {
                    "name": "F3",
                    "midi": 53,
                    "time": 195.30128849999943,
                    "velocity": 0.15748031496062992,
                    "duration": 0.6586890000000096
                },
                {
                    "name": "D#4",
                    "midi": 63,
                    "time": 195.30128849999943,
                    "velocity": 0.1889763779527559,
                    "duration": 0.6586890000000096
                },
                {
                    "name": "A3",
                    "midi": 57,
                    "time": 195.30128849999943,
                    "velocity": 0.15748031496062992,
                    "duration": 0.6586890000000096
                },
                {
                    "name": "A3",
                    "midi": 57,
                    "time": 195.95997749999944,
                    "velocity": 0.16535433070866143,
                    "duration": 0.3293444999999906
                },
                {
                    "name": "D#4",
                    "midi": 63,
                    "time": 195.95997749999944,
                    "velocity": 0.1968503937007874,
                    "duration": 0.3293444999999906
                },
                {
                    "name": "F3",
                    "midi": 53,
                    "time": 195.95997749999944,
                    "velocity": 0.16535433070866143,
                    "duration": 0.3293444999999906
                },
                {
                    "name": "F2",
                    "midi": 41,
                    "time": 196.28932199999943,
                    "velocity": 0.2755905511811024,
                    "duration": 0.1646722499999953
                },
                {
                    "name": "A3",
                    "midi": 57,
                    "time": 196.61866649999942,
                    "velocity": 0.18110236220472442,
                    "duration": 0.6586890000000096
                },
                {
                    "name": "C4",
                    "midi": 60,
                    "time": 196.61866649999942,
                    "velocity": 0.2204724409448819,
                    "duration": 0.6586890000000096
                },
                {
                    "name": "F3",
                    "midi": 53,
                    "time": 196.61866649999942,
                    "velocity": 0.18110236220472442,
                    "duration": 0.6586890000000096
                },
                {
                    "name": "C4",
                    "midi": 60,
                    "time": 197.27735549999943,
                    "velocity": 0.2125984251968504,
                    "duration": 0.3293444999999906
                },
                {
                    "name": "F3",
                    "midi": 53,
                    "time": 197.27735549999943,
                    "velocity": 0.1732283464566929,
                    "duration": 0.3293444999999906
                },
                {
                    "name": "A3",
                    "midi": 57,
                    "time": 197.27735549999943,
                    "velocity": 0.1732283464566929,
                    "duration": 0.3293444999999906
                },
                {
                    "name": "A#2",
                    "midi": 46,
                    "time": 197.60669999999942,
                    "velocity": 0.2755905511811024,
                    "duration": 0.1646722499999953
                },
                {
                    "name": "D4",
                    "midi": 62,
                    "time": 197.9360444999994,
                    "velocity": 0.1889763779527559,
                    "duration": 0.6586890000000096
                },
                {
                    "name": "A#3",
                    "midi": 58,
                    "time": 197.9360444999994,
                    "velocity": 0.15748031496062992,
                    "duration": 0.6586890000000096
                },
                {
                    "name": "F3",
                    "midi": 53,
                    "time": 197.9360444999994,
                    "velocity": 0.15748031496062992,
                    "duration": 0.6586890000000096
                },
                {
                    "name": "A#3",
                    "midi": 58,
                    "time": 198.59473349999942,
                    "velocity": 0.16535433070866143,
                    "duration": 0.3293444999999906
                },
                {
                    "name": "F3",
                    "midi": 53,
                    "time": 198.59473349999942,
                    "velocity": 0.16535433070866143,
                    "duration": 0.3293444999999906
                },
                {
                    "name": "D4",
                    "midi": 62,
                    "time": 198.59473349999942,
                    "velocity": 0.1968503937007874,
                    "duration": 0.3293444999999906
                },
                {
                    "name": "E2",
                    "midi": 40,
                    "time": 198.9240779999994,
                    "velocity": 0.2755905511811024,
                    "duration": 0.1646722499999953
                },
                {
                    "name": "C#4",
                    "midi": 61,
                    "time": 199.2534224999994,
                    "velocity": 0.2204724409448819,
                    "duration": 0.6586890000000096
                },
                {
                    "name": "A#3",
                    "midi": 58,
                    "time": 199.2534224999994,
                    "velocity": 0.18110236220472442,
                    "duration": 0.6586890000000096
                },
                {
                    "name": "G3",
                    "midi": 55,
                    "time": 199.2534224999994,
                    "velocity": 0.18110236220472442,
                    "duration": 0.6586890000000096
                },
                {
                    "name": "E3",
                    "midi": 52,
                    "time": 199.2534224999994,
                    "velocity": 0.18110236220472442,
                    "duration": 0.6586890000000096
                },
                {
                    "name": "C#4",
                    "midi": 61,
                    "time": 199.9121114999994,
                    "velocity": 0.2125984251968504,
                    "duration": 0.3293444999999906
                },
                {
                    "name": "G3",
                    "midi": 55,
                    "time": 199.9121114999994,
                    "velocity": 0.1732283464566929,
                    "duration": 0.3293444999999906
                },
                {
                    "name": "E3",
                    "midi": 52,
                    "time": 199.9121114999994,
                    "velocity": 0.1732283464566929,
                    "duration": 0.3293444999999906
                },
                {
                    "name": "A#3",
                    "midi": 58,
                    "time": 199.9121114999994,
                    "velocity": 0.1732283464566929,
                    "duration": 0.3293444999999906
                },
                {
                    "name": "F3",
                    "midi": 53,
                    "time": 200.2414559999994,
                    "velocity": 0.33070866141732286,
                    "duration": 1.3173779999999624
                },
                {
                    "name": "C4",
                    "midi": 60,
                    "time": 200.2414559999994,
                    "velocity": 0.33070866141732286,
                    "duration": 0.9880334999999718
                },
                {
                    "name": "A#3",
                    "midi": 58,
                    "time": 200.2414559999994,
                    "velocity": 0.30708661417322836,
                    "duration": 0.3293444999999906
                },
                {
                    "name": "A3",
                    "midi": 57,
                    "time": 200.5708004999994,
                    "velocity": 0.30708661417322836,
                    "duration": 0.1646722499999953
                },
                {
                    "name": "G3",
                    "midi": 55,
                    "time": 200.7354727499994,
                    "velocity": 0.33070866141732286,
                    "duration": 0.1646722499999953
                },
                {
                    "name": "A3",
                    "midi": 57,
                    "time": 200.90014499999938,
                    "velocity": 0.3779527559055118,
                    "duration": 0.3293444999999906
                },
                {
                    "name": "D#4",
                    "midi": 63,
                    "time": 201.22948949999937,
                    "velocity": 0.30708661417322836,
                    "duration": 0.3293444999999906
                },
                {
                    "name": "C4",
                    "midi": 60,
                    "time": 201.22948949999937,
                    "velocity": 0.25984251968503935,
                    "duration": 0.3293444999999906
                },
                {
                    "name": "A#3",
                    "midi": 58,
                    "time": 201.55883399999937,
                    "velocity": 0.3464566929133858,
                    "duration": 1.3173779999999908
                },
                {
                    "name": "D4",
                    "midi": 62,
                    "time": 201.55883399999937,
                    "velocity": 0.3464566929133858,
                    "duration": 1.3173779999999908
                },
                {
                    "name": "A#2",
                    "midi": 46,
                    "time": 202.87621199999936,
                    "velocity": 0.2755905511811024,
                    "duration": 0.1646722499999953
                },
                {
                    "name": "F3",
                    "midi": 53,
                    "time": 203.20555649999935,
                    "velocity": 0.15748031496062992,
                    "duration": 0.6586890000000096
                },
                {
                    "name": "A#3",
                    "midi": 58,
                    "time": 203.20555649999935,
                    "velocity": 0.15748031496062992,
                    "duration": 0.6586890000000096
                },
                {
                    "name": "D4",
                    "midi": 62,
                    "time": 203.20555649999935,
                    "velocity": 0.1889763779527559,
                    "duration": 0.6586890000000096
                },
                {
                    "name": "A#3",
                    "midi": 58,
                    "time": 203.86424549999936,
                    "velocity": 0.16535433070866143,
                    "duration": 0.3293444999999906
                },
                {
                    "name": "D4",
                    "midi": 62,
                    "time": 203.86424549999936,
                    "velocity": 0.1968503937007874,
                    "duration": 0.3293444999999906
                },
                {
                    "name": "F3",
                    "midi": 53,
                    "time": 203.86424549999936,
                    "velocity": 0.16535433070866143,
                    "duration": 0.3293444999999906
                },
                {
                    "name": "D3",
                    "midi": 50,
                    "time": 204.19358999999935,
                    "velocity": 0.2755905511811024,
                    "duration": 0.1646722499999953
                },
                {
                    "name": "D4",
                    "midi": 62,
                    "time": 204.52293449999934,
                    "velocity": 0.2204724409448819,
                    "duration": 0.6586890000000096
                },
                {
                    "name": "A#3",
                    "midi": 58,
                    "time": 204.52293449999934,
                    "velocity": 0.18110236220472442,
                    "duration": 0.6586890000000096
                },
                {
                    "name": "F3",
                    "midi": 53,
                    "time": 204.52293449999934,
                    "velocity": 0.18110236220472442,
                    "duration": 0.6586890000000096
                },
                {
                    "name": "A#3",
                    "midi": 58,
                    "time": 205.18162349999935,
                    "velocity": 0.1732283464566929,
                    "duration": 0.3293444999999906
                },
                {
                    "name": "F3",
                    "midi": 53,
                    "time": 205.18162349999935,
                    "velocity": 0.1732283464566929,
                    "duration": 0.3293444999999906
                },
                {
                    "name": "D4",
                    "midi": 62,
                    "time": 205.18162349999935,
                    "velocity": 0.2125984251968504,
                    "duration": 0.3293444999999906
                },
                {
                    "name": "C3",
                    "midi": 48,
                    "time": 205.51096799999934,
                    "velocity": 0.2755905511811024,
                    "duration": 0.1646722499999953
                },
                {
                    "name": "A3",
                    "midi": 57,
                    "time": 205.84031249999933,
                    "velocity": 0.15748031496062992,
                    "duration": 0.6586890000000096
                },
                {
                    "name": "F3",
                    "midi": 53,
                    "time": 205.84031249999933,
                    "velocity": 0.15748031496062992,
                    "duration": 0.6586890000000096
                },
                {
                    "name": "D#4",
                    "midi": 63,
                    "time": 205.84031249999933,
                    "velocity": 0.1889763779527559,
                    "duration": 0.6586890000000096
                },
                {
                    "name": "A3",
                    "midi": 57,
                    "time": 206.49900149999934,
                    "velocity": 0.16535433070866143,
                    "duration": 0.3293444999999906
                },
                {
                    "name": "F3",
                    "midi": 53,
                    "time": 206.49900149999934,
                    "velocity": 0.16535433070866143,
                    "duration": 0.3293444999999906
                },
                {
                    "name": "D#4",
                    "midi": 63,
                    "time": 206.49900149999934,
                    "velocity": 0.1968503937007874,
                    "duration": 0.3293444999999906
                },
                {
                    "name": "F2",
                    "midi": 41,
                    "time": 206.82834599999933,
                    "velocity": 0.2755905511811024,
                    "duration": 0.1646722499999953
                },
                {
                    "name": "C4",
                    "midi": 60,
                    "time": 207.15769049999932,
                    "velocity": 0.2204724409448819,
                    "duration": 0.6586890000000096
                },
                {
                    "name": "A3",
                    "midi": 57,
                    "time": 207.15769049999932,
                    "velocity": 0.18110236220472442,
                    "duration": 0.6586890000000096
                },
                {
                    "name": "F3",
                    "midi": 53,
                    "time": 207.15769049999932,
                    "velocity": 0.18110236220472442,
                    "duration": 0.6586890000000096
                },
                {
                    "name": "A3",
                    "midi": 57,
                    "time": 207.81637949999933,
                    "velocity": 0.1732283464566929,
                    "duration": 0.3293444999999906
                },
                {
                    "name": "F3",
                    "midi": 53,
                    "time": 207.81637949999933,
                    "velocity": 0.1732283464566929,
                    "duration": 0.3293444999999906
                },
                {
                    "name": "C4",
                    "midi": 60,
                    "time": 207.81637949999933,
                    "velocity": 0.2125984251968504,
                    "duration": 0.3293444999999906
                },
                {
                    "name": "A#2",
                    "midi": 46,
                    "time": 208.14572399999932,
                    "velocity": 0.2755905511811024,
                    "duration": 0.1646722499999953
                },
                {
                    "name": "A#3",
                    "midi": 58,
                    "time": 208.4750684999993,
                    "velocity": 0.15748031496062992,
                    "duration": 0.6586890000000096
                },
                {
                    "name": "F3",
                    "midi": 53,
                    "time": 208.4750684999993,
                    "velocity": 0.15748031496062992,
                    "duration": 0.6586890000000096
                },
                {
                    "name": "D4",
                    "midi": 62,
                    "time": 208.4750684999993,
                    "velocity": 0.1889763779527559,
                    "duration": 0.6586890000000096
                },
                {
                    "name": "A#3",
                    "midi": 58,
                    "time": 209.13375749999932,
                    "velocity": 0.16535433070866143,
                    "duration": 0.3293444999999906
                },
                {
                    "name": "F3",
                    "midi": 53,
                    "time": 209.13375749999932,
                    "velocity": 0.16535433070866143,
                    "duration": 0.3293444999999906
                },
                {
                    "name": "D4",
                    "midi": 62,
                    "time": 209.13375749999932,
                    "velocity": 0.1968503937007874,
                    "duration": 0.3293444999999906
                },
                {
                    "name": "D#2",
                    "midi": 39,
                    "time": 209.4631019999993,
                    "velocity": 0.2755905511811024,
                    "duration": 0.1646722499999953
                },
                {
                    "name": "A#3",
                    "midi": 58,
                    "time": 209.7924464999993,
                    "velocity": 0.18110236220472442,
                    "duration": 0.6586890000000096
                },
                {
                    "name": "D#3",
                    "midi": 51,
                    "time": 209.7924464999993,
                    "velocity": 0.18110236220472442,
                    "duration": 0.6586890000000096
                },
                {
                    "name": "C4",
                    "midi": 60,
                    "time": 209.7924464999993,
                    "velocity": 0.2204724409448819,
                    "duration": 0.6586890000000096
                },
                {
                    "name": "G3",
                    "midi": 55,
                    "time": 209.7924464999993,
                    "velocity": 0.18110236220472442,
                    "duration": 0.6586890000000096
                },
                {
                    "name": "D#3",
                    "midi": 51,
                    "time": 210.4511354999993,
                    "velocity": 0.1732283464566929,
                    "duration": 0.3293444999999906
                },
                {
                    "name": "C4",
                    "midi": 60,
                    "time": 210.4511354999993,
                    "velocity": 0.2125984251968504,
                    "duration": 0.3293444999999906
                },
                {
                    "name": "A#3",
                    "midi": 58,
                    "time": 210.4511354999993,
                    "velocity": 0.1732283464566929,
                    "duration": 0.3293444999999906
                },
                {
                    "name": "G3",
                    "midi": 55,
                    "time": 210.4511354999993,
                    "velocity": 0.1732283464566929,
                    "duration": 0.3293444999999906
                },
                {
                    "name": "D#2",
                    "midi": 39,
                    "time": 210.7804799999993,
                    "velocity": 0.33070866141732286,
                    "duration": 0.3293444999999906
                },
                {
                    "name": "C4",
                    "midi": 60,
                    "time": 211.1098244999993,
                    "velocity": 0.2755905511811024,
                    "duration": 0.6586889999999812
                },
                {
                    "name": "E3",
                    "midi": 52,
                    "time": 211.1098244999993,
                    "velocity": 0.2283464566929134,
                    "duration": 0.6586889999999812
                },
                {
                    "name": "G3",
                    "midi": 55,
                    "time": 211.1098244999993,
                    "velocity": 0.2283464566929134,
                    "duration": 0.3293444999999906
                },
                {
                    "name": "A3",
                    "midi": 57,
                    "time": 211.43916899999928,
                    "velocity": 0.2755905511811024,
                    "duration": 0.3293444999999906
                },
                {
                    "name": "E3",
                    "midi": 52,
                    "time": 211.76851349999927,
                    "velocity": 0.25984251968503935,
                    "duration": 0.3293444999999906
                },
                {
                    "name": "C4",
                    "midi": 60,
                    "time": 211.76851349999927,
                    "velocity": 0.30708661417322836,
                    "duration": 0.3293444999999906
                },
                {
                    "name": "A#3",
                    "midi": 58,
                    "time": 211.76851349999927,
                    "velocity": 0.25984251968503935,
                    "duration": 0.3293444999999906
                },
                {
                    "name": "F2",
                    "midi": 41,
                    "time": 212.09785799999926,
                    "velocity": 0.3464566929133858,
                    "duration": 0.3293444999999906
                },
                {
                    "name": "F3",
                    "midi": 53,
                    "time": 212.42720249999925,
                    "velocity": 0.25196850393700787,
                    "duration": 0.9880334999999718
                },
                {
                    "name": "A3",
                    "midi": 57,
                    "time": 212.42720249999925,
                    "velocity": 0.25196850393700787,
                    "duration": 0.3293444999999906
                },
                {
                    "name": "C4",
                    "midi": 60,
                    "time": 212.42720249999925,
                    "velocity": 0.2992125984251969,
                    "duration": 0.3293444999999906
                },
                {
                    "name": "A#3",
                    "midi": 58,
                    "time": 212.75654699999924,
                    "velocity": 0.2440944881889764,
                    "duration": 0.3293444999999906
                },
                {
                    "name": "D4",
                    "midi": 62,
                    "time": 212.75654699999924,
                    "velocity": 0.29133858267716534,
                    "duration": 0.3293444999999906
                },
                {
                    "name": "D#4",
                    "midi": 63,
                    "time": 213.08589149999924,
                    "velocity": 0.28346456692913385,
                    "duration": 0.3293444999999906
                },
                {
                    "name": "C4",
                    "midi": 60,
                    "time": 213.08589149999924,
                    "velocity": 0.23622047244094488,
                    "duration": 0.3293444999999906
                },
                {
                    "name": "A#2",
                    "midi": 46,
                    "time": 213.41523599999923,
                    "velocity": 0.2755905511811024,
                    "duration": 0.1646722499999953
                },
                {
                    "name": "F3",
                    "midi": 53,
                    "time": 213.74458049999922,
                    "velocity": 0.15748031496062992,
                    "duration": 0.6586890000000096
                },
                {
                    "name": "D4",
                    "midi": 62,
                    "time": 213.74458049999922,
                    "velocity": 0.1889763779527559,
                    "duration": 0.6586890000000096
                },
                {
                    "name": "A#3",
                    "midi": 58,
                    "time": 213.74458049999922,
                    "velocity": 0.15748031496062992,
                    "duration": 0.6586890000000096
                },
                {
                    "name": "D4",
                    "midi": 62,
                    "time": 214.40326949999923,
                    "velocity": 0.1968503937007874,
                    "duration": 0.3293444999999906
                },
                {
                    "name": "A#3",
                    "midi": 58,
                    "time": 214.40326949999923,
                    "velocity": 0.16535433070866143,
                    "duration": 0.3293444999999906
                },
                {
                    "name": "F3",
                    "midi": 53,
                    "time": 214.40326949999923,
                    "velocity": 0.16535433070866143,
                    "duration": 0.3293444999999906
                },
                {
                    "name": "D3",
                    "midi": 50,
                    "time": 214.73261399999922,
                    "velocity": 0.2755905511811024,
                    "duration": 0.1646722499999953
                },
                {
                    "name": "A#3",
                    "midi": 58,
                    "time": 215.0619584999992,
                    "velocity": 0.18110236220472442,
                    "duration": 0.6586890000000096
                },
                {
                    "name": "F4",
                    "midi": 65,
                    "time": 215.0619584999992,
                    "velocity": 0.2204724409448819,
                    "duration": 0.6586890000000096
                },
                {
                    "name": "F3",
                    "midi": 53,
                    "time": 215.0619584999992,
                    "velocity": 0.18110236220472442,
                    "duration": 0.6586890000000096
                },
                {
                    "name": "A#3",
                    "midi": 58,
                    "time": 215.72064749999922,
                    "velocity": 0.1732283464566929,
                    "duration": 0.3293444999999906
                },
                {
                    "name": "F3",
                    "midi": 53,
                    "time": 215.72064749999922,
                    "velocity": 0.1732283464566929,
                    "duration": 0.3293444999999906
                },
                {
                    "name": "F4",
                    "midi": 65,
                    "time": 215.72064749999922,
                    "velocity": 0.2125984251968504,
                    "duration": 0.3293444999999906
                },
                {
                    "name": "C3",
                    "midi": 48,
                    "time": 216.0499919999992,
                    "velocity": 0.2755905511811024,
                    "duration": 0.1646722499999953
                },
                {
                    "name": "A3",
                    "midi": 57,
                    "time": 216.3793364999992,
                    "velocity": 0.15748031496062992,
                    "duration": 0.6586890000000096
                },
                {
                    "name": "F3",
                    "midi": 53,
                    "time": 216.3793364999992,
                    "velocity": 0.15748031496062992,
                    "duration": 0.6586890000000096
                },
                {
                    "name": "D#4",
                    "midi": 63,
                    "time": 216.3793364999992,
                    "velocity": 0.1889763779527559,
                    "duration": 0.6586890000000096
                },
                {
                    "name": "A3",
                    "midi": 57,
                    "time": 217.0380254999992,
                    "velocity": 0.16535433070866143,
                    "duration": 0.3293444999999906
                },
                {
                    "name": "D#4",
                    "midi": 63,
                    "time": 217.0380254999992,
                    "velocity": 0.1968503937007874,
                    "duration": 0.3293444999999906
                },
                {
                    "name": "F3",
                    "midi": 53,
                    "time": 217.0380254999992,
                    "velocity": 0.16535433070866143,
                    "duration": 0.3293444999999906
                },
                {
                    "name": "F2",
                    "midi": 41,
                    "time": 217.3673699999992,
                    "velocity": 0.2755905511811024,
                    "duration": 0.1646722499999953
                },
                {
                    "name": "C4",
                    "midi": 60,
                    "time": 217.6967144999992,
                    "velocity": 0.2204724409448819,
                    "duration": 0.6586890000000096
                },
                {
                    "name": "F3",
                    "midi": 53,
                    "time": 217.6967144999992,
                    "velocity": 0.18110236220472442,
                    "duration": 0.6586890000000096
                },
                {
                    "name": "A3",
                    "midi": 57,
                    "time": 217.6967144999992,
                    "velocity": 0.18110236220472442,
                    "duration": 0.6586890000000096
                },
                {
                    "name": "A3",
                    "midi": 57,
                    "time": 218.3554034999992,
                    "velocity": 0.1732283464566929,
                    "duration": 0.3293444999999906
                },
                {
                    "name": "C4",
                    "midi": 60,
                    "time": 218.3554034999992,
                    "velocity": 0.2125984251968504,
                    "duration": 0.3293444999999906
                },
                {
                    "name": "F3",
                    "midi": 53,
                    "time": 218.3554034999992,
                    "velocity": 0.1732283464566929,
                    "duration": 0.3293444999999906
                },
                {
                    "name": "A#2",
                    "midi": 46,
                    "time": 218.6847479999992,
                    "velocity": 0.2755905511811024,
                    "duration": 0.1646722499999953
                },
                {
                    "name": "A#3",
                    "midi": 58,
                    "time": 219.01409249999918,
                    "velocity": 0.15748031496062992,
                    "duration": 0.6586890000000096
                },
                {
                    "name": "F3",
                    "midi": 53,
                    "time": 219.01409249999918,
                    "velocity": 0.15748031496062992,
                    "duration": 0.6586890000000096
                },
                {
                    "name": "D4",
                    "midi": 62,
                    "time": 219.01409249999918,
                    "velocity": 0.1889763779527559,
                    "duration": 0.6586890000000096
                },
                {
                    "name": "A#3",
                    "midi": 58,
                    "time": 219.6727814999992,
                    "velocity": 0.16535433070866143,
                    "duration": 0.3293444999999906
                },
                {
                    "name": "F3",
                    "midi": 53,
                    "time": 219.6727814999992,
                    "velocity": 0.16535433070866143,
                    "duration": 0.3293444999999906
                },
                {
                    "name": "D4",
                    "midi": 62,
                    "time": 219.6727814999992,
                    "velocity": 0.1968503937007874,
                    "duration": 0.3293444999999906
                },
                {
                    "name": "E2",
                    "midi": 40,
                    "time": 220.00212599999918,
                    "velocity": 0.2755905511811024,
                    "duration": 0.1646722499999953
                },
                {
                    "name": "E3",
                    "midi": 52,
                    "time": 220.33147049999917,
                    "velocity": 0.18110236220472442,
                    "duration": 0.6586890000000096
                },
                {
                    "name": "A#3",
                    "midi": 58,
                    "time": 220.33147049999917,
                    "velocity": 0.18110236220472442,
                    "duration": 0.6586890000000096
                },
                {
                    "name": "G3",
                    "midi": 55,
                    "time": 220.33147049999917,
                    "velocity": 0.18110236220472442,
                    "duration": 0.6586890000000096
                },
                {
                    "name": "C#4",
                    "midi": 61,
                    "time": 220.33147049999917,
                    "velocity": 0.2204724409448819,
                    "duration": 0.6586890000000096
                },
                {
                    "name": "C#4",
                    "midi": 61,
                    "time": 220.99015949999918,
                    "velocity": 0.2125984251968504,
                    "duration": 0.3293444999999906
                },
                {
                    "name": "A#3",
                    "midi": 58,
                    "time": 220.99015949999918,
                    "velocity": 0.1732283464566929,
                    "duration": 0.3293444999999906
                },
                {
                    "name": "E3",
                    "midi": 52,
                    "time": 220.99015949999918,
                    "velocity": 0.1732283464566929,
                    "duration": 0.3293444999999906
                },
                {
                    "name": "G3",
                    "midi": 55,
                    "time": 220.99015949999918,
                    "velocity": 0.1732283464566929,
                    "duration": 0.3293444999999906
                },
                {
                    "name": "F3",
                    "midi": 53,
                    "time": 221.31950399999917,
                    "velocity": 0.33070866141732286,
                    "duration": 1.3173779999999624
                },
                {
                    "name": "C4",
                    "midi": 60,
                    "time": 221.31950399999917,
                    "velocity": 0.33070866141732286,
                    "duration": 0.9880334999999718
                },
                {
                    "name": "A#3",
                    "midi": 58,
                    "time": 221.31950399999917,
                    "velocity": 0.30708661417322836,
                    "duration": 0.3293444999999906
                },
                {
                    "name": "A3",
                    "midi": 57,
                    "time": 221.64884849999916,
                    "velocity": 0.30708661417322836,
                    "duration": 0.1646722499999953
                },
                {
                    "name": "G3",
                    "midi": 55,
                    "time": 221.81352074999916,
                    "velocity": 0.33070866141732286,
                    "duration": 0.1646722499999953
                },
                {
                    "name": "A3",
                    "midi": 57,
                    "time": 221.97819299999915,
                    "velocity": 0.3779527559055118,
                    "duration": 0.3293444999999906
                },
                {
                    "name": "C4",
                    "midi": 60,
                    "time": 222.30753749999914,
                    "velocity": 0.25984251968503935,
                    "duration": 0.3293444999999906
                },
                {
                    "name": "D#4",
                    "midi": 63,
                    "time": 222.30753749999914,
                    "velocity": 0.30708661417322836,
                    "duration": 0.3293444999999906
                },
                {
                    "name": "D4",
                    "midi": 62,
                    "time": 222.63688199999913,
                    "velocity": 0.3464566929133858,
                    "duration": 1.3173779999999908
                },
                {
                    "name": "A#3",
                    "midi": 58,
                    "time": 222.63688199999913,
                    "velocity": 0.3464566929133858,
                    "duration": 1.3173779999999908
                },
                {
                    "name": "D3",
                    "midi": 50,
                    "time": 223.95425999999912,
                    "velocity": 0.49606299212598426,
                    "duration": 0.3293444999999906
                },
                {
                    "name": "F#3",
                    "midi": 54,
                    "time": 224.28360449999911,
                    "velocity": 0.4094488188976378,
                    "duration": 0.1646722499999953
                },
                {
                    "name": "A3",
                    "midi": 57,
                    "time": 224.4482767499991,
                    "velocity": 0.4409448818897638,
                    "duration": 0.1646722499999953
                },
                {
                    "name": "C#4",
                    "midi": 61,
                    "time": 224.6129489999991,
                    "velocity": 0.4881889763779528,
                    "duration": 0.1646722499999953
                },
                {
                    "name": "D4",
                    "midi": 62,
                    "time": 224.7776212499991,
                    "velocity": 0.4094488188976378,
                    "duration": 0.1646722499999953
                },
                {
                    "name": "D3",
                    "midi": 50,
                    "time": 224.9422934999991,
                    "velocity": 0.48031496062992124,
                    "duration": 0.1646722499999953
                },
                {
                    "name": "D4",
                    "midi": 62,
                    "time": 225.1069657499991,
                    "velocity": 0.41732283464566927,
                    "duration": 0.1646722499999953
                },
                {
                    "name": "A#2",
                    "midi": 46,
                    "time": 225.2716379999991,
                    "velocity": 0.49606299212598426,
                    "duration": 0.1646722499999953
                },
                {
                    "name": "A#3",
                    "midi": 58,
                    "time": 225.43631024999908,
                    "velocity": 0.4251968503937008,
                    "duration": 0.1646722499999953
                },
                {
                    "name": "A2",
                    "midi": 45,
                    "time": 225.60098249999908,
                    "velocity": 0.4881889763779528,
                    "duration": 0.1646722499999953
                },
                {
                    "name": "A3",
                    "midi": 57,
                    "time": 225.76565474999907,
                    "velocity": 0.44881889763779526,
                    "duration": 0.1646722499999953
                },
                {
                    "name": "G2",
                    "midi": 43,
                    "time": 225.93032699999907,
                    "velocity": 0.5118110236220472,
                    "duration": 0.1646722499999953
                },
                {
                    "name": "G3",
                    "midi": 55,
                    "time": 226.09499924999906,
                    "velocity": 0.47244094488188976,
                    "duration": 0.1646722499999953
                },
                {
                    "name": "F#2",
                    "midi": 42,
                    "time": 226.25967149999906,
                    "velocity": 0.5354330708661418,
                    "duration": 0.1646722499999953
                },
                {
                    "name": "F#3",
                    "midi": 54,
                    "time": 226.42434374999905,
                    "velocity": 0.5039370078740157,
                    "duration": 0.1646722499999953
                },
                {
                    "name": "G2",
                    "midi": 43,
                    "time": 226.58901599999905,
                    "velocity": 0.6062992125984252,
                    "duration": 0.1646722499999953
                },
                {
                    "name": "G3",
                    "midi": 55,
                    "time": 226.75368824999904,
                    "velocity": 0.5118110236220472,
                    "duration": 0.1646722499999953
                },
                {
                    "name": "A2",
                    "midi": 45,
                    "time": 226.91836049999904,
                    "velocity": 0.5748031496062992,
                    "duration": 0.1646722499999953
                },
                {
                    "name": "A3",
                    "midi": 57,
                    "time": 227.08303274999903,
                    "velocity": 0.4881889763779528,
                    "duration": 0.1646722499999953
                },
                {
                    "name": "A#2",
                    "midi": 46,
                    "time": 227.24770499999903,
                    "velocity": 0.5511811023622047,
                    "duration": 0.1646722499999953
                },
                {
                    "name": "A#3",
                    "midi": 58,
                    "time": 227.41237724999903,
                    "velocity": 0.4881889763779528,
                    "duration": 0.1646722499999953
                },
                {
                    "name": "B2",
                    "midi": 47,
                    "time": 227.57704949999902,
                    "velocity": 0.5275590551181102,
                    "duration": 0.1646722499999953
                },
                {
                    "name": "B3",
                    "midi": 59,
                    "time": 227.74172174999902,
                    "velocity": 0.48031496062992124,
                    "duration": 0.1646722499999953
                },
                {
                    "name": "C3",
                    "midi": 48,
                    "time": 227.906393999999,
                    "velocity": 0.5354330708661418,
                    "duration": 0.3293444999999906
                },
                {
                    "name": "E3",
                    "midi": 52,
                    "time": 228.235738499999,
                    "velocity": 0.4015748031496063,
                    "duration": 0.1646722499999953
                },
                {
                    "name": "G3",
                    "midi": 55,
                    "time": 228.400410749999,
                    "velocity": 0.44881889763779526,
                    "duration": 0.1646722499999953
                },
                {
                    "name": "B3",
                    "midi": 59,
                    "time": 228.565082999999,
                    "velocity": 0.44881889763779526,
                    "duration": 0.1646722499999953
                },
                {
                    "name": "C4",
                    "midi": 60,
                    "time": 228.729755249999,
                    "velocity": 0.41732283464566927,
                    "duration": 0.1646722499999953
                },
                {
                    "name": "C3",
                    "midi": 48,
                    "time": 228.89442749999898,
                    "velocity": 0.44881889763779526,
                    "duration": 0.1646722499999953
                },
                {
                    "name": "C4",
                    "midi": 60,
                    "time": 229.05909974999898,
                    "velocity": 0.4015748031496063,
                    "duration": 0.1646722499999953
                },
                {
                    "name": "F2",
                    "midi": 41,
                    "time": 229.22377199999897,
                    "velocity": 0.4881889763779528,
                    "duration": 0.3293444999999906
                },
                {
                    "name": "A2",
                    "midi": 45,
                    "time": 229.55311649999896,
                    "velocity": 0.4015748031496063,
                    "duration": 0.1646722499999953
                },
                {
                    "name": "C3",
                    "midi": 48,
                    "time": 229.71778874999896,
                    "velocity": 0.4015748031496063,
                    "duration": 0.1646722499999953
                },
                {
                    "name": "E3",
                    "midi": 52,
                    "time": 229.88246099999895,
                    "velocity": 0.5039370078740157,
                    "duration": 0.1646722499999953
                },
                {
                    "name": "F3",
                    "midi": 53,
                    "time": 230.04713324999895,
                    "velocity": 0.44881889763779526,
                    "duration": 0.1646722499999953
                },
                {
                    "name": "A3",
                    "midi": 57,
                    "time": 230.21180549999895,
                    "velocity": 0.48031496062992124,
                    "duration": 0.1646722499999953
                },
                {
                    "name": "C4",
                    "midi": 60,
                    "time": 230.37647774999894,
                    "velocity": 0.5039370078740157,
                    "duration": 0.1646722499999953
                },
                {
                    "name": "A#2",
                    "midi": 46,
                    "time": 230.54114999999894,
                    "velocity": 0.49606299212598426,
                    "duration": 0.3293444999999906
                },
                {
                    "name": "D4",
                    "midi": 62,
                    "time": 230.87049449999893,
                    "velocity": 0.4094488188976378,
                    "duration": 0.6586890000000096
                },
                {
                    "name": "F4",
                    "midi": 65,
                    "time": 230.87049449999893,
                    "velocity": 0.4881889763779528,
                    "duration": 0.6586890000000096
                },
                {
                    "name": "G3",
                    "midi": 55,
                    "time": 230.87049449999893,
                    "velocity": 0.4094488188976378,
                    "duration": 0.6586890000000096
                },
                {
                    "name": "F4",
                    "midi": 65,
                    "time": 231.52918349999894,
                    "velocity": 0.48031496062992124,
                    "duration": 0.3293444999999906
                },
                {
                    "name": "G3",
                    "midi": 55,
                    "time": 231.52918349999894,
                    "velocity": 0.4015748031496063,
                    "duration": 0.3293444999999906
                },
                {
                    "name": "D4",
                    "midi": 62,
                    "time": 231.52918349999894,
                    "velocity": 0.4015748031496063,
                    "duration": 0.3293444999999906
                },
                {
                    "name": "C3",
                    "midi": 48,
                    "time": 231.85852799999893,
                    "velocity": 0.49606299212598426,
                    "duration": 0.3293444999999906
                },
                {
                    "name": "C4",
                    "midi": 60,
                    "time": 232.18787249999892,
                    "velocity": 0.4015748031496063,
                    "duration": 0.6586890000000096
                },
                {
                    "name": "G3",
                    "midi": 55,
                    "time": 232.18787249999892,
                    "velocity": 0.4015748031496063,
                    "duration": 0.6586890000000096
                },
                {
                    "name": "E4",
                    "midi": 64,
                    "time": 232.18787249999892,
                    "velocity": 0.47244094488188976,
                    "duration": 0.6586890000000096
                },
                {
                    "name": "A#3",
                    "midi": 58,
                    "time": 232.18787249999892,
                    "velocity": 0.4015748031496063,
                    "duration": 0.6586890000000096
                },
                {
                    "name": "C4",
                    "midi": 60,
                    "time": 232.84656149999893,
                    "velocity": 0.4015748031496063,
                    "duration": 0.3293444999999906
                },
                {
                    "name": "E4",
                    "midi": 64,
                    "time": 232.84656149999893,
                    "velocity": 0.47244094488188976,
                    "duration": 0.3293444999999906
                },
                {
                    "name": "F3",
                    "midi": 53,
                    "time": 233.17590599999892,
                    "velocity": 0.4251968503937008,
                    "duration": 0.1646722499999953
                },
                {
                    "name": "D#4",
                    "midi": 63,
                    "time": 233.3405782499989,
                    "velocity": 0.48031496062992124,
                    "duration": 0.1646722499999953
                },
                {
                    "name": "C4",
                    "midi": 60,
                    "time": 233.5052504999989,
                    "velocity": 0.48031496062992124,
                    "duration": 0.1646722499999953
                },
                {
                    "name": "A3",
                    "midi": 57,
                    "time": 233.6699227499989,
                    "velocity": 0.47244094488188976,
                    "duration": 0.1646722499999953
                },
                {
                    "name": "F3",
                    "midi": 53,
                    "time": 233.8345949999989,
                    "velocity": 0.4566929133858268,
                    "duration": 0.1646722499999953
                },
                {
                    "name": "D#3",
                    "midi": 51,
                    "time": 233.9992672499989,
                    "velocity": 0.44881889763779526,
                    "duration": 0.1646722499999953
                },
                {
                    "name": "C3",
                    "midi": 48,
                    "time": 234.1639394999989,
                    "velocity": 0.4330708661417323,
                    "duration": 0.1646722499999953
                },
                {
                    "name": "F3",
                    "midi": 53,
                    "time": 234.32861174999888,
                    "velocity": 0.4251968503937008,
                    "duration": 0.1646722499999953
                },
                {
                    "name": "A#2",
                    "midi": 46,
                    "time": 234.49328399999888,
                    "velocity": 0.2755905511811024,
                    "duration": 0.3293444999999906
                },
                {
                    "name": "D4",
                    "midi": 62,
                    "time": 234.82262849999887,
                    "velocity": 0.1889763779527559,
                    "duration": 0.6586890000000096
                },
                {
                    "name": "F3",
                    "midi": 53,
                    "time": 234.82262849999887,
                    "velocity": 0.15748031496062992,
                    "duration": 0.6586890000000096
                },
                {
                    "name": "A#3",
                    "midi": 58,
                    "time": 234.82262849999887,
                    "velocity": 0.15748031496062992,
                    "duration": 0.6586890000000096
                },
                {
                    "name": "D4",
                    "midi": 62,
                    "time": 235.48131749999888,
                    "velocity": 0.1968503937007874,
                    "duration": 0.3293444999999906
                },
                {
                    "name": "A#3",
                    "midi": 58,
                    "time": 235.48131749999888,
                    "velocity": 0.16535433070866143,
                    "duration": 0.3293444999999906
                },
                {
                    "name": "F3",
                    "midi": 53,
                    "time": 235.48131749999888,
                    "velocity": 0.16535433070866143,
                    "duration": 0.3293444999999906
                },
                {
                    "name": "D3",
                    "midi": 50,
                    "time": 235.81066199999887,
                    "velocity": 0.2755905511811024,
                    "duration": 0.3293444999999906
                },
                {
                    "name": "F4",
                    "midi": 65,
                    "time": 236.14000649999886,
                    "velocity": 0.2204724409448819,
                    "duration": 0.6586890000000096
                },
                {
                    "name": "A#3",
                    "midi": 58,
                    "time": 236.14000649999886,
                    "velocity": 0.18110236220472442,
                    "duration": 0.6586890000000096
                },
                {
                    "name": "G#3",
                    "midi": 56,
                    "time": 236.14000649999886,
                    "velocity": 0.18110236220472442,
                    "duration": 0.6586890000000096
                },
                {
                    "name": "A#3",
                    "midi": 58,
                    "time": 236.79869549999887,
                    "velocity": 0.1732283464566929,
                    "duration": 0.3293444999999906
                },
                {
                    "name": "G#3",
                    "midi": 56,
                    "time": 236.79869549999887,
                    "velocity": 0.1732283464566929,
                    "duration": 0.3293444999999906
                },
                {
                    "name": "F4",
                    "midi": 65,
                    "time": 236.79869549999887,
                    "velocity": 0.2125984251968504,
                    "duration": 0.3293444999999906
                },
                {
                    "name": "D#3",
                    "midi": 51,
                    "time": 237.12803999999886,
                    "velocity": 0.2755905511811024,
                    "duration": 0.3293444999999906
                },
                {
                    "name": "A#3",
                    "midi": 58,
                    "time": 237.45738449999885,
                    "velocity": 0.15748031496062992,
                    "duration": 0.6586890000000096
                },
                {
                    "name": "G3",
                    "midi": 55,
                    "time": 237.45738449999885,
                    "velocity": 0.15748031496062992,
                    "duration": 0.6586890000000096
                },
                {
                    "name": "D#4",
                    "midi": 63,
                    "time": 237.45738449999885,
                    "velocity": 0.1889763779527559,
                    "duration": 0.6586890000000096
                },
                {
                    "name": "D#4",
                    "midi": 63,
                    "time": 238.11607349999886,
                    "velocity": 0.1968503937007874,
                    "duration": 0.3293444999999906
                },
                {
                    "name": "A#3",
                    "midi": 58,
                    "time": 238.11607349999886,
                    "velocity": 0.16535433070866143,
                    "duration": 0.3293444999999906
                },
                {
                    "name": "G3",
                    "midi": 55,
                    "time": 238.11607349999886,
                    "velocity": 0.16535433070866143,
                    "duration": 0.3293444999999906
                },
                {
                    "name": "E3",
                    "midi": 52,
                    "time": 238.44541799999885,
                    "velocity": 0.2755905511811024,
                    "duration": 0.3293444999999906
                },
                {
                    "name": "A#3",
                    "midi": 58,
                    "time": 238.77476249999884,
                    "velocity": 0.18110236220472442,
                    "duration": 0.6586890000000096
                },
                {
                    "name": "C#4",
                    "midi": 61,
                    "time": 238.77476249999884,
                    "velocity": 0.18110236220472442,
                    "duration": 0.6586890000000096
                },
                {
                    "name": "G4",
                    "midi": 67,
                    "time": 238.77476249999884,
                    "velocity": 0.2204724409448819,
                    "duration": 0.6586890000000096
                },
                {
                    "name": "G4",
                    "midi": 67,
                    "time": 239.43345149999885,
                    "velocity": 0.2125984251968504,
                    "duration": 0.3293444999999906
                },
                {
                    "name": "A#3",
                    "midi": 58,
                    "time": 239.43345149999885,
                    "velocity": 0.1732283464566929,
                    "duration": 0.3293444999999906
                },
                {
                    "name": "C#4",
                    "midi": 61,
                    "time": 239.43345149999885,
                    "velocity": 0.1732283464566929,
                    "duration": 0.3293444999999906
                },
                {
                    "name": "G3",
                    "midi": 55,
                    "time": 239.76279599999884,
                    "velocity": 0.2440944881889764,
                    "duration": 0.3293444999999906
                },
                {
                    "name": "E4",
                    "midi": 64,
                    "time": 240.09214049999883,
                    "velocity": 0.16535433070866143,
                    "duration": 0.6586890000000096
                },
                {
                    "name": "A#3",
                    "midi": 58,
                    "time": 240.09214049999883,
                    "velocity": 0.14173228346456693,
                    "duration": 0.6586890000000096
                },
                {
                    "name": "C4",
                    "midi": 60,
                    "time": 240.09214049999883,
                    "velocity": 0.14173228346456693,
                    "duration": 0.6586890000000096
                },
                {
                    "name": "A#3",
                    "midi": 58,
                    "time": 240.75082949999884,
                    "velocity": 0.14173228346456693,
                    "duration": 0.3293444999999906
                },
                {
                    "name": "E4",
                    "midi": 64,
                    "time": 240.75082949999884,
                    "velocity": 0.1732283464566929,
                    "duration": 0.3293444999999906
                },
                {
                    "name": "C4",
                    "midi": 60,
                    "time": 240.75082949999884,
                    "velocity": 0.14173228346456693,
                    "duration": 0.3293444999999906
                },
                {
                    "name": "F3",
                    "midi": 53,
                    "time": 241.08017399999883,
                    "velocity": 0.2440944881889764,
                    "duration": 0.3293444999999906
                },
                {
                    "name": "D4",
                    "midi": 62,
                    "time": 241.40951849999882,
                    "velocity": 0.15748031496062992,
                    "duration": 0.6586890000000096
                },
                {
                    "name": "F4",
                    "midi": 65,
                    "time": 241.40951849999882,
                    "velocity": 0.1968503937007874,
                    "duration": 0.6586890000000096
                },
                {
                    "name": "A#3",
                    "midi": 58,
                    "time": 241.40951849999882,
                    "velocity": 0.15748031496062992,
                    "duration": 0.6586890000000096
                },
                {
                    "name": "F4",
                    "midi": 65,
                    "time": 242.06820749999883,
                    "velocity": 0.1889763779527559,
                    "duration": 0.3293444999999906
                },
                {
                    "name": "D4",
                    "midi": 62,
                    "time": 242.06820749999883,
                    "velocity": 0.14960629921259844,
                    "duration": 0.3293444999999906
                },
                {
                    "name": "A#3",
                    "midi": 58,
                    "time": 242.06820749999883,
                    "velocity": 0.14960629921259844,
                    "duration": 0.3293444999999906
                },
                {
                    "name": "F3",
                    "midi": 53,
                    "time": 242.39755199999883,
                    "velocity": 0.2440944881889764,
                    "duration": 0.3293444999999906
                },
                {
                    "name": "D#4",
                    "midi": 63,
                    "time": 242.72689649999882,
                    "velocity": 0.14173228346456693,
                    "duration": 0.6586890000000096
                },
                {
                    "name": "C4",
                    "midi": 60,
                    "time": 242.72689649999882,
                    "velocity": 0.14173228346456693,
                    "duration": 0.6586890000000096
                },
                {
                    "name": "F4",
                    "midi": 65,
                    "time": 242.72689649999882,
                    "velocity": 0.16535433070866143,
                    "duration": 0.6586890000000096
                },
                {
                    "name": "D#4",
                    "midi": 63,
                    "time": 243.38558549999883,
                    "velocity": 0.14173228346456693,
                    "duration": 0.3293444999999906
                },
                {
                    "name": "F4",
                    "midi": 65,
                    "time": 243.38558549999883,
                    "velocity": 0.1732283464566929,
                    "duration": 0.3293444999999906
                },
                {
                    "name": "C4",
                    "midi": 60,
                    "time": 243.38558549999883,
                    "velocity": 0.14173228346456693,
                    "duration": 0.3293444999999906
                },
                {
                    "name": "A#2",
                    "midi": 46,
                    "time": 243.71492999999882,
                    "velocity": 0.2440944881889764,
                    "duration": 0.3293444999999906
                },
                {
                    "name": "D4",
                    "midi": 62,
                    "time": 244.0442744999988,
                    "velocity": 0.15748031496062992,
                    "duration": 0.9880335000000002
                },
                {
                    "name": "A#3",
                    "midi": 58,
                    "time": 244.0442744999988,
                    "velocity": 0.15748031496062992,
                    "duration": 0.9880335000000002
                },
                {
                    "name": "F4",
                    "midi": 65,
                    "time": 244.0442744999988,
                    "velocity": 0.1968503937007874,
                    "duration": 0.9880335000000002
                },
                {
                    "name": "D3",
                    "midi": 50,
                    "time": 245.0323079999988,
                    "velocity": 0.49606299212598426,
                    "duration": 0.3293444999999906
                },
                {
                    "name": "F#3",
                    "midi": 54,
                    "time": 245.3616524999988,
                    "velocity": 0.4094488188976378,
                    "duration": 0.1646722499999953
                },
                {
                    "name": "A3",
                    "midi": 57,
                    "time": 245.5263247499988,
                    "velocity": 0.4409448818897638,
                    "duration": 0.1646722499999953
                },
                {
                    "name": "C#4",
                    "midi": 61,
                    "time": 245.6909969999988,
                    "velocity": 0.4881889763779528,
                    "duration": 0.1646722499999953
                },
                {
                    "name": "D4",
                    "midi": 62,
                    "time": 245.85566924999878,
                    "velocity": 0.4094488188976378,
                    "duration": 0.1646722499999953
                },
                {
                    "name": "D3",
                    "midi": 50,
                    "time": 246.02034149999878,
                    "velocity": 0.48031496062992124,
                    "duration": 0.1646722499999953
                },
                {
                    "name": "D4",
                    "midi": 62,
                    "time": 246.18501374999877,
                    "velocity": 0.41732283464566927,
                    "duration": 0.1646722499999953
                },
                {
                    "name": "A#2",
                    "midi": 46,
                    "time": 246.34968599999877,
                    "velocity": 0.49606299212598426,
                    "duration": 0.1646722499999953
                },
                {
                    "name": "A#3",
                    "midi": 58,
                    "time": 246.51435824999876,
                    "velocity": 0.4251968503937008,
                    "duration": 0.1646722499999953
                },
                {
                    "name": "A2",
                    "midi": 45,
                    "time": 246.67903049999876,
                    "velocity": 0.4881889763779528,
                    "duration": 0.1646722499999953
                },
                {
                    "name": "A3",
                    "midi": 57,
                    "time": 246.84370274999876,
                    "velocity": 0.44881889763779526,
                    "duration": 0.1646722499999953
                },
                {
                    "name": "G2",
                    "midi": 43,
                    "time": 247.00837499999875,
                    "velocity": 0.5118110236220472,
                    "duration": 0.1646722499999953
                },
                {
                    "name": "G3",
                    "midi": 55,
                    "time": 247.17304724999875,
                    "velocity": 0.47244094488188976,
                    "duration": 0.1646722499999953
                },
                {
                    "name": "F#2",
                    "midi": 42,
                    "time": 247.33771949999874,
                    "velocity": 0.5354330708661418,
                    "duration": 0.1646722499999953
                },
                {
                    "name": "F#3",
                    "midi": 54,
                    "time": 247.50239174999874,
                    "velocity": 0.5039370078740157,
                    "duration": 0.1646722499999953
                },
                {
                    "name": "G2",
                    "midi": 43,
                    "time": 247.66706399999873,
                    "velocity": 0.6062992125984252,
                    "duration": 0.1646722499999953
                },
                {
                    "name": "G3",
                    "midi": 55,
                    "time": 247.83173624999873,
                    "velocity": 0.5118110236220472,
                    "duration": 0.1646722499999953
                },
                {
                    "name": "A2",
                    "midi": 45,
                    "time": 247.99640849999872,
                    "velocity": 0.5748031496062992,
                    "duration": 0.1646722499999953
                },
                {
                    "name": "A3",
                    "midi": 57,
                    "time": 248.16108074999872,
                    "velocity": 0.4881889763779528,
                    "duration": 0.1646722499999953
                },
                {
                    "name": "A#2",
                    "midi": 46,
                    "time": 248.3257529999987,
                    "velocity": 0.5511811023622047,
                    "duration": 0.1646722499999953
                },
                {
                    "name": "A#3",
                    "midi": 58,
                    "time": 248.4904252499987,
                    "velocity": 0.4881889763779528,
                    "duration": 0.1646722499999953
                },
                {
                    "name": "B2",
                    "midi": 47,
                    "time": 248.6550974999987,
                    "velocity": 0.5275590551181102,
                    "duration": 0.1646722499999953
                },
                {
                    "name": "B3",
                    "midi": 59,
                    "time": 248.8197697499987,
                    "velocity": 0.48031496062992124,
                    "duration": 0.1646722499999953
                },
                {
                    "name": "C3",
                    "midi": 48,
                    "time": 248.9844419999987,
                    "velocity": 0.5354330708661418,
                    "duration": 0.3293444999999906
                },
                {
                    "name": "E3",
                    "midi": 52,
                    "time": 249.31378649999868,
                    "velocity": 0.4015748031496063,
                    "duration": 0.1646722499999953
                },
                {
                    "name": "G3",
                    "midi": 55,
                    "time": 249.47845874999868,
                    "velocity": 0.44881889763779526,
                    "duration": 0.1646722499999953
                },
                {
                    "name": "B3",
                    "midi": 59,
                    "time": 249.64313099999868,
                    "velocity": 0.44881889763779526,
                    "duration": 0.1646722499999953
                },
                {
                    "name": "C4",
                    "midi": 60,
                    "time": 249.80780324999867,
                    "velocity": 0.41732283464566927,
                    "duration": 0.1646722499999953
                },
                {
                    "name": "C3",
                    "midi": 48,
                    "time": 249.97247549999867,
                    "velocity": 0.44881889763779526,
                    "duration": 0.1646722499999953
                },
                {
                    "name": "C4",
                    "midi": 60,
                    "time": 250.13714774999866,
                    "velocity": 0.4015748031496063,
                    "duration": 0.1646722499999953
                },
                {
                    "name": "F2",
                    "midi": 41,
                    "time": 250.30181999999866,
                    "velocity": 0.4881889763779528,
                    "duration": 0.3293444999999906
                },
                {
                    "name": "A2",
                    "midi": 45,
                    "time": 250.63116449999865,
                    "velocity": 0.4015748031496063,
                    "duration": 0.1646722499999953
                },
                {
                    "name": "C3",
                    "midi": 48,
                    "time": 250.79583674999864,
                    "velocity": 0.4015748031496063,
                    "duration": 0.1646722499999953
                },
                {
                    "name": "E3",
                    "midi": 52,
                    "time": 250.96050899999864,
                    "velocity": 0.5039370078740157,
                    "duration": 0.1646722499999953
                },
                {
                    "name": "F3",
                    "midi": 53,
                    "time": 251.12518124999863,
                    "velocity": 0.44881889763779526,
                    "duration": 0.1646722499999953
                },
                {
                    "name": "A3",
                    "midi": 57,
                    "time": 251.28985349999863,
                    "velocity": 0.48031496062992124,
                    "duration": 0.1646722499999953
                },
                {
                    "name": "C4",
                    "midi": 60,
                    "time": 251.45452574999862,
                    "velocity": 0.5039370078740157,
                    "duration": 0.1646722499999953
                },
                {
                    "name": "A#2",
                    "midi": 46,
                    "time": 251.61919799999862,
                    "velocity": 0.49606299212598426,
                    "duration": 0.3293444999999906
                },
                {
                    "name": "D4",
                    "midi": 62,
                    "time": 251.9485424999986,
                    "velocity": 0.4094488188976378,
                    "duration": 0.6586890000000096
                },
                {
                    "name": "F4",
                    "midi": 65,
                    "time": 251.9485424999986,
                    "velocity": 0.4881889763779528,
                    "duration": 0.6586890000000096
                },
                {
                    "name": "G3",
                    "midi": 55,
                    "time": 251.9485424999986,
                    "velocity": 0.4094488188976378,
                    "duration": 0.6586890000000096
                },
                {
                    "name": "D4",
                    "midi": 62,
                    "time": 252.60723149999862,
                    "velocity": 0.4015748031496063,
                    "duration": 0.3293444999999906
                },
                {
                    "name": "F4",
                    "midi": 65,
                    "time": 252.60723149999862,
                    "velocity": 0.48031496062992124,
                    "duration": 0.3293444999999906
                },
                {
                    "name": "G3",
                    "midi": 55,
                    "time": 252.60723149999862,
                    "velocity": 0.4015748031496063,
                    "duration": 0.3293444999999906
                },
                {
                    "name": "C3",
                    "midi": 48,
                    "time": 252.9365759999986,
                    "velocity": 0.49606299212598426,
                    "duration": 0.3293444999999906
                },
                {
                    "name": "A#3",
                    "midi": 58,
                    "time": 253.2659204999986,
                    "velocity": 0.4015748031496063,
                    "duration": 0.6586890000000096
                },
                {
                    "name": "E4",
                    "midi": 64,
                    "time": 253.2659204999986,
                    "velocity": 0.47244094488188976,
                    "duration": 0.6586890000000096
                },
                {
                    "name": "C4",
                    "midi": 60,
                    "time": 253.2659204999986,
                    "velocity": 0.4015748031496063,
                    "duration": 0.6586890000000096
                },
                {
                    "name": "G3",
                    "midi": 55,
                    "time": 253.2659204999986,
                    "velocity": 0.4015748031496063,
                    "duration": 0.6586890000000096
                },
                {
                    "name": "C4",
                    "midi": 60,
                    "time": 253.9246094999986,
                    "velocity": 0.4015748031496063,
                    "duration": 0.3293444999999906
                },
                {
                    "name": "E4",
                    "midi": 64,
                    "time": 253.9246094999986,
                    "velocity": 0.47244094488188976,
                    "duration": 0.3293444999999906
                },
                {
                    "name": "F3",
                    "midi": 53,
                    "time": 254.2539539999986,
                    "velocity": 0.4251968503937008,
                    "duration": 0.1646722499999953
                },
                {
                    "name": "D#4",
                    "midi": 63,
                    "time": 254.4186262499986,
                    "velocity": 0.48031496062992124,
                    "duration": 0.1646722499999953
                },
                {
                    "name": "C4",
                    "midi": 60,
                    "time": 254.5832984999986,
                    "velocity": 0.48031496062992124,
                    "duration": 0.1646722499999953
                },
                {
                    "name": "A3",
                    "midi": 57,
                    "time": 254.7479707499986,
                    "velocity": 0.47244094488188976,
                    "duration": 0.1646722499999953
                },
                {
                    "name": "F3",
                    "midi": 53,
                    "time": 254.91264299999858,
                    "velocity": 0.4566929133858268,
                    "duration": 0.1646722499999953
                },
                {
                    "name": "D#3",
                    "midi": 51,
                    "time": 255.07731524999858,
                    "velocity": 0.44881889763779526,
                    "duration": 0.1646722499999953
                },
                {
                    "name": "C3",
                    "midi": 48,
                    "time": 255.24198749999857,
                    "velocity": 0.4330708661417323,
                    "duration": 0.1646722499999953
                },
                {
                    "name": "F3",
                    "midi": 53,
                    "time": 255.40665974999857,
                    "velocity": 0.4251968503937008,
                    "duration": 0.1646722499999953
                },
                {
                    "name": "A#2",
                    "midi": 46,
                    "time": 255.57133199999856,
                    "velocity": 0.2755905511811024,
                    "duration": 0.3293444999999906
                },
                {
                    "name": "D4",
                    "midi": 62,
                    "time": 255.90067649999855,
                    "velocity": 0.1889763779527559,
                    "duration": 0.6586889999999812
                },
                {
                    "name": "A#3",
                    "midi": 58,
                    "time": 255.90067649999855,
                    "velocity": 0.15748031496062992,
                    "duration": 0.6586889999999812
                },
                {
                    "name": "F3",
                    "midi": 53,
                    "time": 255.90067649999855,
                    "velocity": 0.15748031496062992,
                    "duration": 0.6586889999999812
                },
                {
                    "name": "F3",
                    "midi": 53,
                    "time": 256.55936549999853,
                    "velocity": 0.16535433070866143,
                    "duration": 0.3293444999999906
                },
                {
                    "name": "D4",
                    "midi": 62,
                    "time": 256.55936549999853,
                    "velocity": 0.1968503937007874,
                    "duration": 0.3293444999999906
                },
                {
                    "name": "A#3",
                    "midi": 58,
                    "time": 256.55936549999853,
                    "velocity": 0.16535433070866143,
                    "duration": 0.3293444999999906
                },
                {
                    "name": "D3",
                    "midi": 50,
                    "time": 256.8887099999985,
                    "velocity": 0.2755905511811024,
                    "duration": 0.3293444999999906
                },
                {
                    "name": "F4",
                    "midi": 65,
                    "time": 257.2180544999985,
                    "velocity": 0.2204724409448819,
                    "duration": 0.6586889999999812
                },
                {
                    "name": "A#3",
                    "midi": 58,
                    "time": 257.2180544999985,
                    "velocity": 0.18110236220472442,
                    "duration": 0.6586889999999812
                },
                {
                    "name": "G#3",
                    "midi": 56,
                    "time": 257.2180544999985,
                    "velocity": 0.18110236220472442,
                    "duration": 0.6586889999999812
                },
                {
                    "name": "A#3",
                    "midi": 58,
                    "time": 257.8767434999985,
                    "velocity": 0.1732283464566929,
                    "duration": 0.3293444999999906
                },
                {
                    "name": "G#3",
                    "midi": 56,
                    "time": 257.8767434999985,
                    "velocity": 0.1732283464566929,
                    "duration": 0.3293444999999906
                },
                {
                    "name": "F4",
                    "midi": 65,
                    "time": 257.8767434999985,
                    "velocity": 0.2125984251968504,
                    "duration": 0.3293444999999906
                },
                {
                    "name": "D#3",
                    "midi": 51,
                    "time": 258.2060879999985,
                    "velocity": 0.2755905511811024,
                    "duration": 0.3293444999999906
                },
                {
                    "name": "G3",
                    "midi": 55,
                    "time": 258.5354324999985,
                    "velocity": 0.15748031496062992,
                    "duration": 0.6586889999999812
                },
                {
                    "name": "A#3",
                    "midi": 58,
                    "time": 258.5354324999985,
                    "velocity": 0.15748031496062992,
                    "duration": 0.6586889999999812
                },
                {
                    "name": "D#4",
                    "midi": 63,
                    "time": 258.5354324999985,
                    "velocity": 0.1889763779527559,
                    "duration": 0.6586889999999812
                },
                {
                    "name": "A#3",
                    "midi": 58,
                    "time": 259.19412149999846,
                    "velocity": 0.16535433070866143,
                    "duration": 0.3293444999999906
                },
                {
                    "name": "D#4",
                    "midi": 63,
                    "time": 259.19412149999846,
                    "velocity": 0.1968503937007874,
                    "duration": 0.3293444999999906
                },
                {
                    "name": "G3",
                    "midi": 55,
                    "time": 259.19412149999846,
                    "velocity": 0.16535433070866143,
                    "duration": 0.3293444999999906
                },
                {
                    "name": "E3",
                    "midi": 52,
                    "time": 259.52346599999845,
                    "velocity": 0.2755905511811024,
                    "duration": 0.3293444999999906
                },
                {
                    "name": "A#3",
                    "midi": 58,
                    "time": 259.85281049999844,
                    "velocity": 0.18110236220472442,
                    "duration": 0.6586889999999812
                },
                {
                    "name": "G4",
                    "midi": 67,
                    "time": 259.85281049999844,
                    "velocity": 0.2204724409448819,
                    "duration": 0.6586889999999812
                },
                {
                    "name": "C#4",
                    "midi": 61,
                    "time": 259.85281049999844,
                    "velocity": 0.18110236220472442,
                    "duration": 0.6586889999999812
                },
                {
                    "name": "C#4",
                    "midi": 61,
                    "time": 260.5114994999984,
                    "velocity": 0.1732283464566929,
                    "duration": 0.3293444999999906
                },
                {
                    "name": "A#3",
                    "midi": 58,
                    "time": 260.5114994999984,
                    "velocity": 0.1732283464566929,
                    "duration": 0.3293444999999906
                },
                {
                    "name": "G4",
                    "midi": 67,
                    "time": 260.5114994999984,
                    "velocity": 0.2125984251968504,
                    "duration": 0.3293444999999906
                },
                {
                    "name": "G3",
                    "midi": 55,
                    "time": 260.8408439999984,
                    "velocity": 0.2440944881889764,
                    "duration": 0.3293444999999906
                },
                {
                    "name": "C4",
                    "midi": 60,
                    "time": 261.1701884999984,
                    "velocity": 0.14173228346456693,
                    "duration": 0.6586889999999812
                },
                {
                    "name": "A#3",
                    "midi": 58,
                    "time": 261.1701884999984,
                    "velocity": 0.14173228346456693,
                    "duration": 0.6586889999999812
                },
                {
                    "name": "E4",
                    "midi": 64,
                    "time": 261.1701884999984,
                    "velocity": 0.16535433070866143,
                    "duration": 0.6586889999999812
                },
                {
                    "name": "A#3",
                    "midi": 58,
                    "time": 261.8288774999984,
                    "velocity": 0.14173228346456693,
                    "duration": 0.3293444999999906
                },
                {
                    "name": "C4",
                    "midi": 60,
                    "time": 261.8288774999984,
                    "velocity": 0.14173228346456693,
                    "duration": 0.3293444999999906
                },
                {
                    "name": "E4",
                    "midi": 64,
                    "time": 261.8288774999984,
                    "velocity": 0.1732283464566929,
                    "duration": 0.3293444999999906
                },
                {
                    "name": "F3",
                    "midi": 53,
                    "time": 262.1582219999984,
                    "velocity": 0.2440944881889764,
                    "duration": 0.3293444999999906
                },
                {
                    "name": "A#3",
                    "midi": 58,
                    "time": 262.48756649999837,
                    "velocity": 0.15748031496062992,
                    "duration": 0.6586889999999812
                },
                {
                    "name": "D4",
                    "midi": 62,
                    "time": 262.48756649999837,
                    "velocity": 0.15748031496062992,
                    "duration": 0.6586889999999812
                },
                {
                    "name": "F4",
                    "midi": 65,
                    "time": 262.48756649999837,
                    "velocity": 0.1968503937007874,
                    "duration": 0.6586889999999812
                },
                {
                    "name": "A#3",
                    "midi": 58,
                    "time": 263.14625549999835,
                    "velocity": 0.14960629921259844,
                    "duration": 0.3293444999999906
                },
                {
                    "name": "D4",
                    "midi": 62,
                    "time": 263.14625549999835,
                    "velocity": 0.14960629921259844,
                    "duration": 0.3293444999999906
                },
                {
                    "name": "F4",
                    "midi": 65,
                    "time": 263.14625549999835,
                    "velocity": 0.1889763779527559,
                    "duration": 0.3293444999999906
                },
                {
                    "name": "F3",
                    "midi": 53,
                    "time": 263.47559999999834,
                    "velocity": 0.2440944881889764,
                    "duration": 0.3293444999999906
                },
                {
                    "name": "C4",
                    "midi": 60,
                    "time": 263.8049444999983,
                    "velocity": 0.14173228346456693,
                    "duration": 0.6586889999999812
                },
                {
                    "name": "D#4",
                    "midi": 63,
                    "time": 263.8049444999983,
                    "velocity": 0.14173228346456693,
                    "duration": 0.6586889999999812
                },
                {
                    "name": "F4",
                    "midi": 65,
                    "time": 263.8049444999983,
                    "velocity": 0.16535433070866143,
                    "duration": 0.6586889999999812
                },
                {
                    "name": "F4",
                    "midi": 65,
                    "time": 264.4636334999983,
                    "velocity": 0.1732283464566929,
                    "duration": 0.3293444999999906
                },
                {
                    "name": "C4",
                    "midi": 60,
                    "time": 264.4636334999983,
                    "velocity": 0.14173228346456693,
                    "duration": 0.3293444999999906
                },
                {
                    "name": "D#4",
                    "midi": 63,
                    "time": 264.4636334999983,
                    "velocity": 0.14173228346456693,
                    "duration": 0.3293444999999906
                },
                {
                    "name": "F3",
                    "midi": 53,
                    "time": 264.7929779999983,
                    "velocity": 0.2440944881889764,
                    "duration": 0.3293444999999906
                },
                {
                    "name": "F4",
                    "midi": 65,
                    "time": 265.1223224999983,
                    "velocity": 0.16535433070866143,
                    "duration": 0.6586889999999812
                },
                {
                    "name": "D4",
                    "midi": 62,
                    "time": 265.1223224999983,
                    "velocity": 0.14173228346456693,
                    "duration": 0.6586889999999812
                },
                {
                    "name": "A#3",
                    "midi": 58,
                    "time": 265.1223224999983,
                    "velocity": 0.14173228346456693,
                    "duration": 0.6586889999999812
                },
                {
                    "name": "F4",
                    "midi": 65,
                    "time": 265.78101149999827,
                    "velocity": 0.1732283464566929,
                    "duration": 0.3293444999999906
                },
                {
                    "name": "A#3",
                    "midi": 58,
                    "time": 265.78101149999827,
                    "velocity": 0.14173228346456693,
                    "duration": 0.3293444999999906
                },
                {
                    "name": "D4",
                    "midi": 62,
                    "time": 265.78101149999827,
                    "velocity": 0.14173228346456693,
                    "duration": 0.3293444999999906
                },
                {
                    "name": "F2",
                    "midi": 41,
                    "time": 266.11035599999826,
                    "velocity": 0.2440944881889764,
                    "duration": 0.3293444999999906
                },
                {
                    "name": "C4",
                    "midi": 60,
                    "time": 266.43970049999825,
                    "velocity": 0.14173228346456693,
                    "duration": 0.6586889999999812
                },
                {
                    "name": "D#4",
                    "midi": 63,
                    "time": 266.43970049999825,
                    "velocity": 0.16535433070866143,
                    "duration": 0.6586889999999812
                },
                {
                    "name": "F3",
                    "midi": 53,
                    "time": 266.43970049999825,
                    "velocity": 0.14173228346456693,
                    "duration": 0.6586889999999812
                },
                {
                    "name": "F3",
                    "midi": 53,
                    "time": 267.09838949999823,
                    "velocity": 0.14173228346456693,
                    "duration": 0.3293444999999906
                },
                {
                    "name": "D#4",
                    "midi": 63,
                    "time": 267.09838949999823,
                    "velocity": 0.1732283464566929,
                    "duration": 0.3293444999999906
                },
                {
                    "name": "C4",
                    "midi": 60,
                    "time": 267.09838949999823,
                    "velocity": 0.14173228346456693,
                    "duration": 0.3293444999999906
                },
                {
                    "name": "F2",
                    "midi": 41,
                    "time": 267.4277339999982,
                    "velocity": 0.2440944881889764,
                    "duration": 0.3293444999999906
                },
                {
                    "name": "F3",
                    "midi": 53,
                    "time": 267.7570784999982,
                    "velocity": 0.14173228346456693,
                    "duration": 0.6586889999999812
                },
                {
                    "name": "A#3",
                    "midi": 58,
                    "time": 267.7570784999982,
                    "velocity": 0.14173228346456693,
                    "duration": 0.6586889999999812
                },
                {
                    "name": "D4",
                    "midi": 62,
                    "time": 267.7570784999982,
                    "velocity": 0.16535433070866143,
                    "duration": 0.6586889999999812
                },
                {
                    "name": "D4",
                    "midi": 62,
                    "time": 268.4157674999982,
                    "velocity": 0.1732283464566929,
                    "duration": 0.24700837500000716
                },
                {
                    "name": "A#3",
                    "midi": 58,
                    "time": 268.4157674999982,
                    "velocity": 0.14173228346456693,
                    "duration": 0.24700837500000716
                },
                {
                    "name": "F3",
                    "midi": 53,
                    "time": 268.4157674999982,
                    "velocity": 0.14173228346456693,
                    "duration": 0.24700837500000716
                },
                {
                    "name": "F2",
                    "midi": 41,
                    "time": 268.7451119999982,
                    "velocity": 0.2440944881889764,
                    "duration": 0.3293444999999906
                },
                {
                    "name": "F3",
                    "midi": 53,
                    "time": 269.0744564999982,
                    "velocity": 0.14173228346456693,
                    "duration": 0.6586889999999812
                },
                {
                    "name": "C4",
                    "midi": 60,
                    "time": 269.0744564999982,
                    "velocity": 0.16535433070866143,
                    "duration": 0.6586889999999812
                },
                {
                    "name": "D#3",
                    "midi": 51,
                    "time": 269.0744564999982,
                    "velocity": 0.14173228346456693,
                    "duration": 0.6586889999999812
                },
                {
                    "name": "F3",
                    "midi": 53,
                    "time": 269.73314549999816,
                    "velocity": 0.14173228346456693,
                    "duration": 0.3293444999999906
                },
                {
                    "name": "D#3",
                    "midi": 51,
                    "time": 269.73314549999816,
                    "velocity": 0.14173228346456693,
                    "duration": 0.3293444999999906
                },
                {
                    "name": "A3",
                    "midi": 57,
                    "time": 269.73314549999816,
                    "velocity": 0.1732283464566929,
                    "duration": 0.3293444999999906
                },
                {
                    "name": "A#3",
                    "midi": 58,
                    "time": 270.06248999999815,
                    "velocity": 0.2677165354330709,
                    "duration": 0.9880335000000855
                },
                {
                    "name": "F3",
                    "midi": 53,
                    "time": 270.2271622499982,
                    "velocity": 0.2440944881889764,
                    "duration": 0.8233612500000618
                },
                {
                    "name": "D3",
                    "midi": 50,
                    "time": 270.3918344999982,
                    "velocity": 0.2283464566929134,
                    "duration": 0.658689000000038
                },
                {
                    "name": "A#2",
                    "midi": 46,
                    "time": 270.5565067499982,
                    "velocity": 0.2204724409448819,
                    "duration": 0.4940167500000143
                },
                {
                    "name": "A#1",
                    "midi": 34,
                    "time": 270.72117899999824,
                    "velocity": 0.2047244094488189,
                    "duration": 0.3293444999999906
                },
                {
                    "name": "A#2",
                    "midi": 46,
                    "time": 271.3798679999982,
                    "velocity": 0.28346456692913385,
                    "duration": 0.21956299999999374
                },
                {
                    "name": "A#1",
                    "midi": 34,
                    "time": 271.3798679999982,
                    "velocity": 0.23622047244094488,
                    "duration": 0.21956299999999374
                },
                {
                    "name": "A#2",
                    "midi": 46,
                    "time": 271.5994309999982,
                    "velocity": 0.1968503937007874,
                    "duration": 0.16467225000002372
                },
                {
                    "name": "F3",
                    "midi": 53,
                    "time": 271.5994309999982,
                    "velocity": 0.2283464566929134,
                    "duration": 0.16467225000002372
                },
                {
                    "name": "C#3",
                    "midi": 49,
                    "time": 271.5994309999982,
                    "velocity": 0.1968503937007874,
                    "duration": 0.16467225000002372
                },
                {
                    "name": "E3",
                    "midi": 52,
                    "time": 271.81899399999827,
                    "velocity": 0.2283464566929134,
                    "duration": 0.16467225000002372
                },
                {
                    "name": "C#3",
                    "midi": 49,
                    "time": 271.81899399999827,
                    "velocity": 0.1968503937007874,
                    "duration": 0.16467225000002372
                },
                {
                    "name": "A#2",
                    "midi": 46,
                    "time": 271.81899399999827,
                    "velocity": 0.1968503937007874,
                    "duration": 0.16467225000002372
                },
                {
                    "name": "C#3",
                    "midi": 49,
                    "time": 272.0385569999983,
                    "velocity": 0.23622047244094488,
                    "duration": 0.16467225000002372
                },
                {
                    "name": "F3",
                    "midi": 53,
                    "time": 272.0385569999983,
                    "velocity": 0.28346456692913385,
                    "duration": 0.16467225000002372
                },
                {
                    "name": "A#2",
                    "midi": 46,
                    "time": 272.0385569999983,
                    "velocity": 0.23622047244094488,
                    "duration": 0.16467225000002372
                },
                {
                    "name": "C#3",
                    "midi": 49,
                    "time": 272.25811999999837,
                    "velocity": 0.1968503937007874,
                    "duration": 0.16467225000002372
                },
                {
                    "name": "A#2",
                    "midi": 46,
                    "time": 272.25811999999837,
                    "velocity": 0.1968503937007874,
                    "duration": 0.16467225000002372
                },
                {
                    "name": "F#3",
                    "midi": 54,
                    "time": 272.25811999999837,
                    "velocity": 0.2283464566929134,
                    "duration": 0.16467225000002372
                },
                {
                    "name": "C#3",
                    "midi": 49,
                    "time": 272.4776829999984,
                    "velocity": 0.1968503937007874,
                    "duration": 0.16467225000002372
                },
                {
                    "name": "F3",
                    "midi": 53,
                    "time": 272.4776829999984,
                    "velocity": 0.2283464566929134,
                    "duration": 0.16467225000002372
                },
                {
                    "name": "A#2",
                    "midi": 46,
                    "time": 272.4776829999984,
                    "velocity": 0.1968503937007874,
                    "duration": 0.16467225000002372
                },
                {
                    "name": "C#2",
                    "midi": 37,
                    "time": 272.6972459999985,
                    "velocity": 0.23622047244094488,
                    "duration": 0.21956299999999374
                },
                {
                    "name": "C#3",
                    "midi": 49,
                    "time": 272.6972459999985,
                    "velocity": 0.28346456692913385,
                    "duration": 0.21956299999999374
                },
                {
                    "name": "F3",
                    "midi": 53,
                    "time": 272.91680899999847,
                    "velocity": 0.2204724409448819,
                    "duration": 0.16467225000002372
                },
                {
                    "name": "C#3",
                    "midi": 49,
                    "time": 272.91680899999847,
                    "velocity": 0.1889763779527559,
                    "duration": 0.16467225000002372
                },
                {
                    "name": "C#3",
                    "midi": 49,
                    "time": 273.1363719999985,
                    "velocity": 0.1968503937007874,
                    "duration": 0.16467225000002372
                },
                {
                    "name": "E3",
                    "midi": 52,
                    "time": 273.1363719999985,
                    "velocity": 0.2283464566929134,
                    "duration": 0.16467225000002372
                },
                {
                    "name": "C#3",
                    "midi": 49,
                    "time": 273.35593499999857,
                    "velocity": 0.2047244094488189,
                    "duration": 0.16467225000002372
                },
                {
                    "name": "F3",
                    "midi": 53,
                    "time": 273.35593499999857,
                    "velocity": 0.2440944881889764,
                    "duration": 0.16467225000002372
                },
                {
                    "name": "C#3",
                    "midi": 49,
                    "time": 273.5754979999986,
                    "velocity": 0.1968503937007874,
                    "duration": 0.16467225000002372
                },
                {
                    "name": "F#3",
                    "midi": 54,
                    "time": 273.5754979999986,
                    "velocity": 0.2283464566929134,
                    "duration": 0.16467225000002372
                },
                {
                    "name": "F3",
                    "midi": 53,
                    "time": 273.79506099999867,
                    "velocity": 0.2283464566929134,
                    "duration": 0.16467225000002372
                },
                {
                    "name": "C#3",
                    "midi": 49,
                    "time": 273.79506099999867,
                    "velocity": 0.1968503937007874,
                    "duration": 0.16467225000002372
                },
                {
                    "name": "C2",
                    "midi": 36,
                    "time": 274.0146239999987,
                    "velocity": 0.28346456692913385,
                    "duration": 0.21956299999999374
                },
                {
                    "name": "C3",
                    "midi": 48,
                    "time": 274.2341869999987,
                    "velocity": 0.1968503937007874,
                    "duration": 0.21956299999999374
                },
                {
                    "name": "F3",
                    "midi": 53,
                    "time": 274.2341869999987,
                    "velocity": 0.2283464566929134,
                    "duration": 0.21956299999999374
                },
                {
                    "name": "D#3",
                    "midi": 51,
                    "time": 274.2341869999987,
                    "velocity": 0.1968503937007874,
                    "duration": 0.21956299999999374
                },
                {
                    "name": "C3",
                    "midi": 48,
                    "time": 274.4537499999987,
                    "velocity": 0.1968503937007874,
                    "duration": 0.21956299999999374
                },
                {
                    "name": "D#3",
                    "midi": 51,
                    "time": 274.4537499999987,
                    "velocity": 0.2283464566929134,
                    "duration": 0.21956299999999374
                },
                {
                    "name": "E3",
                    "midi": 52,
                    "time": 274.4537499999987,
                    "velocity": 0.1968503937007874,
                    "duration": 0.21956299999999374
                },
                {
                    "name": "F3",
                    "midi": 53,
                    "time": 274.6733129999987,
                    "velocity": 0.2440944881889764,
                    "duration": 0.21956299999999374
                },
                {
                    "name": "D#3",
                    "midi": 51,
                    "time": 274.6733129999987,
                    "velocity": 0.2047244094488189,
                    "duration": 0.21956299999999374
                },
                {
                    "name": "C3",
                    "midi": 48,
                    "time": 274.6733129999987,
                    "velocity": 0.2047244094488189,
                    "duration": 0.21956299999999374
                },
                {
                    "name": "C3",
                    "midi": 48,
                    "time": 274.8928759999987,
                    "velocity": 0.2204724409448819,
                    "duration": 0.21956299999999374
                },
                {
                    "name": "D#3",
                    "midi": 51,
                    "time": 274.8928759999987,
                    "velocity": 0.2677165354330709,
                    "duration": 0.21956299999999374
                },
                {
                    "name": "C3",
                    "midi": 48,
                    "time": 275.1124389999987,
                    "velocity": 0.23622047244094488,
                    "duration": 0.21956299999999374
                },
                {
                    "name": "F#3",
                    "midi": 54,
                    "time": 275.1124389999987,
                    "velocity": 0.28346456692913385,
                    "duration": 0.21956299999999374
                },
                {
                    "name": "D#3",
                    "midi": 51,
                    "time": 275.1124389999987,
                    "velocity": 0.23622047244094488,
                    "duration": 0.21956299999999374
                },
                {
                    "name": "A1",
                    "midi": 33,
                    "time": 275.3320019999987,
                    "velocity": 0.3543307086614173,
                    "duration": 0.21956299999999374
                },
                {
                    "name": "F3",
                    "midi": 53,
                    "time": 275.5515649999987,
                    "velocity": 0.2755905511811024,
                    "duration": 0.21956299999999374
                },
                {
                    "name": "C3",
                    "midi": 48,
                    "time": 275.5515649999987,
                    "velocity": 0.2283464566929134,
                    "duration": 0.21956299999999374
                },
                {
                    "name": "A2",
                    "midi": 45,
                    "time": 275.5515649999987,
                    "velocity": 0.2283464566929134,
                    "duration": 0.21956299999999374
                },
                {
                    "name": "E3",
                    "midi": 52,
                    "time": 275.77112799999867,
                    "velocity": 0.2755905511811024,
                    "duration": 0.21956299999999374
                },
                {
                    "name": "C3",
                    "midi": 48,
                    "time": 275.77112799999867,
                    "velocity": 0.2283464566929134,
                    "duration": 0.21956299999999374
                },
                {
                    "name": "A2",
                    "midi": 45,
                    "time": 275.77112799999867,
                    "velocity": 0.2283464566929134,
                    "duration": 0.21956299999999374
                },
                {
                    "name": "F3",
                    "midi": 53,
                    "time": 275.99069099999866,
                    "velocity": 0.29133858267716534,
                    "duration": 0.21956299999999374
                },
                {
                    "name": "A2",
                    "midi": 45,
                    "time": 275.99069099999866,
                    "velocity": 0.2440944881889764,
                    "duration": 0.21956299999999374
                },
                {
                    "name": "C3",
                    "midi": 48,
                    "time": 275.99069099999866,
                    "velocity": 0.2440944881889764,
                    "duration": 0.21956299999999374
                },
                {
                    "name": "C3",
                    "midi": 48,
                    "time": 276.21025399999866,
                    "velocity": 0.2047244094488189,
                    "duration": 0.21956299999999374
                },
                {
                    "name": "F#3",
                    "midi": 54,
                    "time": 276.21025399999866,
                    "velocity": 0.23622047244094488,
                    "duration": 0.21956299999999374
                },
                {
                    "name": "A2",
                    "midi": 45,
                    "time": 276.21025399999866,
                    "velocity": 0.2047244094488189,
                    "duration": 0.21956299999999374
                },
                {
                    "name": "F3",
                    "midi": 53,
                    "time": 276.42981699999865,
                    "velocity": 0.23622047244094488,
                    "duration": 0.21956299999999374
                },
                {
                    "name": "A2",
                    "midi": 45,
                    "time": 276.42981699999865,
                    "velocity": 0.2047244094488189,
                    "duration": 0.21956299999999374
                },
                {
                    "name": "C3",
                    "midi": 48,
                    "time": 276.42981699999865,
                    "velocity": 0.2047244094488189,
                    "duration": 0.21956299999999374
                },
                {
                    "name": "A#1",
                    "midi": 34,
                    "time": 276.64937999999864,
                    "velocity": 0.30708661417322836,
                    "duration": 0.21956299999999374
                },
                {
                    "name": "F3",
                    "midi": 53,
                    "time": 276.86894299999864,
                    "velocity": 0.2440944881889764,
                    "duration": 0.21956299999999374
                },
                {
                    "name": "C#3",
                    "midi": 49,
                    "time": 276.86894299999864,
                    "velocity": 0.2125984251968504,
                    "duration": 0.21956299999999374
                },
                {
                    "name": "A#2",
                    "midi": 46,
                    "time": 276.86894299999864,
                    "velocity": 0.2125984251968504,
                    "duration": 0.21956299999999374
                },
                {
                    "name": "E3",
                    "midi": 52,
                    "time": 277.08850599999863,
                    "velocity": 0.2440944881889764,
                    "duration": 0.21956299999999374
                },
                {
                    "name": "A#2",
                    "midi": 46,
                    "time": 277.08850599999863,
                    "velocity": 0.2125984251968504,
                    "duration": 0.21956299999999374
                },
                {
                    "name": "C#3",
                    "midi": 49,
                    "time": 277.08850599999863,
                    "velocity": 0.2125984251968504,
                    "duration": 0.21956299999999374
                },
                {
                    "name": "C#3",
                    "midi": 49,
                    "time": 277.3080689999986,
                    "velocity": 0.25984251968503935,
                    "duration": 0.16467225000002372
                },
                {
                    "name": "F3",
                    "midi": 53,
                    "time": 277.3080689999986,
                    "velocity": 0.30708661417322836,
                    "duration": 0.16467225000002372
                },
                {
                    "name": "A#2",
                    "midi": 46,
                    "time": 277.3080689999986,
                    "velocity": 0.25984251968503935,
                    "duration": 0.16467225000002372
                },
                {
                    "name": "A#2",
                    "midi": 46,
                    "time": 277.5276319999987,
                    "velocity": 0.2125984251968504,
                    "duration": 0.16467225000002372
                },
                {
                    "name": "F#3",
                    "midi": 54,
                    "time": 277.5276319999987,
                    "velocity": 0.2440944881889764,
                    "duration": 0.16467225000002372
                },
                {
                    "name": "C#3",
                    "midi": 49,
                    "time": 277.5276319999987,
                    "velocity": 0.2125984251968504,
                    "duration": 0.16467225000002372
                },
                {
                    "name": "F3",
                    "midi": 53,
                    "time": 277.7471949999987,
                    "velocity": 0.2440944881889764,
                    "duration": 0.16467225000002372
                },
                {
                    "name": "C#3",
                    "midi": 49,
                    "time": 277.7471949999987,
                    "velocity": 0.2125984251968504,
                    "duration": 0.16467225000002372
                },
                {
                    "name": "A#2",
                    "midi": 46,
                    "time": 277.7471949999987,
                    "velocity": 0.2125984251968504,
                    "duration": 0.16467225000002372
                },
                {
                    "name": "F#1",
                    "midi": 30,
                    "time": 277.9667579999988,
                    "velocity": 0.30708661417322836,
                    "duration": 0.21956299999999374
                },
                {
                    "name": "F#2",
                    "midi": 42,
                    "time": 278.18632099999877,
                    "velocity": 0.2047244094488189,
                    "duration": 0.21956299999999374
                },
                {
                    "name": "A#2",
                    "midi": 46,
                    "time": 278.18632099999877,
                    "velocity": 0.2047244094488189,
                    "duration": 0.21956299999999374
                },
                {
                    "name": "D#3",
                    "midi": 51,
                    "time": 278.18632099999877,
                    "velocity": 0.23622047244094488,
                    "duration": 0.21956299999999374
                },
                {
                    "name": "D#3",
                    "midi": 51,
                    "time": 278.40588399999876,
                    "velocity": 0.2440944881889764,
                    "duration": 0.21956299999999374
                },
                {
                    "name": "A2",
                    "midi": 45,
                    "time": 278.40588399999876,
                    "velocity": 0.2125984251968504,
                    "duration": 0.21956299999999374
                },
                {
                    "name": "F#2",
                    "midi": 42,
                    "time": 278.40588399999876,
                    "velocity": 0.2125984251968504,
                    "duration": 0.21956299999999374
                },
                {
                    "name": "A#2",
                    "midi": 46,
                    "time": 278.62544699999876,
                    "velocity": 0.2204724409448819,
                    "duration": 0.16467225000002372
                },
                {
                    "name": "D#3",
                    "midi": 51,
                    "time": 278.62544699999876,
                    "velocity": 0.2677165354330709,
                    "duration": 0.16467225000002372
                },
                {
                    "name": "F#2",
                    "midi": 42,
                    "time": 278.62544699999876,
                    "velocity": 0.2204724409448819,
                    "duration": 0.16467225000002372
                },
                {
                    "name": "F3",
                    "midi": 53,
                    "time": 278.8450099999988,
                    "velocity": 0.2440944881889764,
                    "duration": 0.16467225000002372
                },
                {
                    "name": "F#2",
                    "midi": 42,
                    "time": 278.8450099999988,
                    "velocity": 0.2204724409448819,
                    "duration": 0.16467225000002372
                },
                {
                    "name": "A#2",
                    "midi": 46,
                    "time": 278.8450099999988,
                    "velocity": 0.2125984251968504,
                    "duration": 0.16467225000002372
                },
                {
                    "name": "A#2",
                    "midi": 46,
                    "time": 279.06457299999886,
                    "velocity": 0.2125984251968504,
                    "duration": 0.16467225000002372
                },
                {
                    "name": "F#2",
                    "midi": 42,
                    "time": 279.06457299999886,
                    "velocity": 0.2204724409448819,
                    "duration": 0.16467225000002372
                },
                {
                    "name": "D#3",
                    "midi": 51,
                    "time": 279.06457299999886,
                    "velocity": 0.2440944881889764,
                    "duration": 0.16467225000002372
                },
                {
                    "name": "F2",
                    "midi": 41,
                    "time": 279.2841359999989,
                    "velocity": 0.3858267716535433,
                    "duration": 0.21956299999999374
                },
                {
                    "name": "F1",
                    "midi": 29,
                    "time": 279.2841359999989,
                    "velocity": 0.31496062992125984,
                    "duration": 0.21956299999999374
                },
                {
                    "name": "F2",
                    "midi": 41,
                    "time": 279.5036989999989,
                    "velocity": 0.2283464566929134,
                    "duration": 0.21956299999999374
                },
                {
                    "name": "C#3",
                    "midi": 49,
                    "time": 279.5036989999989,
                    "velocity": 0.28346456692913385,
                    "duration": 0.21956299999999374
                },
                {
                    "name": "A#2",
                    "midi": 46,
                    "time": 279.5036989999989,
                    "velocity": 0.2283464566929134,
                    "duration": 0.21956299999999374
                },
                {
                    "name": "A#2",
                    "midi": 46,
                    "time": 279.7232619999989,
                    "velocity": 0.2283464566929134,
                    "duration": 0.21956299999999374
                },
                {
                    "name": "C3",
                    "midi": 48,
                    "time": 279.7232619999989,
                    "velocity": 0.28346456692913385,
                    "duration": 0.21956299999999374
                },
                {
                    "name": "F2",
                    "midi": 41,
                    "time": 279.7232619999989,
                    "velocity": 0.2283464566929134,
                    "duration": 0.21956299999999374
                },
                {
                    "name": "F2",
                    "midi": 41,
                    "time": 279.9428249999989,
                    "velocity": 0.2440944881889764,
                    "duration": 0.21956299999999374
                },
                {
                    "name": "A#2",
                    "midi": 46,
                    "time": 279.9428249999989,
                    "velocity": 0.2440944881889764,
                    "duration": 0.21956299999999374
                },
                {
                    "name": "C#3",
                    "midi": 49,
                    "time": 279.9428249999989,
                    "velocity": 0.2992125984251969,
                    "duration": 0.21956299999999374
                },
                {
                    "name": "A#2",
                    "midi": 46,
                    "time": 280.1623879999989,
                    "velocity": 0.2677165354330709,
                    "duration": 0.21956299999999374
                },
                {
                    "name": "D#3",
                    "midi": 51,
                    "time": 280.1623879999989,
                    "velocity": 0.31496062992125984,
                    "duration": 0.21956299999999374
                },
                {
                    "name": "F2",
                    "midi": 41,
                    "time": 280.1623879999989,
                    "velocity": 0.2677165354330709,
                    "duration": 0.21956299999999374
                },
                {
                    "name": "E3",
                    "midi": 52,
                    "time": 280.3819509999989,
                    "velocity": 0.33070866141732286,
                    "duration": 0.21956299999999374
                },
                {
                    "name": "F2",
                    "midi": 41,
                    "time": 280.3819509999989,
                    "velocity": 0.28346456692913385,
                    "duration": 0.21956299999999374
                },
                {
                    "name": "A#2",
                    "midi": 46,
                    "time": 280.3819509999989,
                    "velocity": 0.28346456692913385,
                    "duration": 0.21956299999999374
                },
                {
                    "name": "F1",
                    "midi": 29,
                    "time": 280.6015139999989,
                    "velocity": 0.3464566929133858,
                    "duration": 0.21956299999999374
                },
                {
                    "name": "F2",
                    "midi": 41,
                    "time": 280.6015139999989,
                    "velocity": 0.4094488188976378,
                    "duration": 0.21956299999999374
                },
                {
                    "name": "F2",
                    "midi": 41,
                    "time": 280.82107699999887,
                    "velocity": 0.29133858267716534,
                    "duration": 0.21956299999999374
                },
                {
                    "name": "F3",
                    "midi": 53,
                    "time": 280.82107699999887,
                    "velocity": 0.3464566929133858,
                    "duration": 0.21956299999999374
                },
                {
                    "name": "A2",
                    "midi": 45,
                    "time": 280.82107699999887,
                    "velocity": 0.29133858267716534,
                    "duration": 0.21956299999999374
                },
                {
                    "name": "E3",
                    "midi": 52,
                    "time": 281.04063999999886,
                    "velocity": 0.3464566929133858,
                    "duration": 0.21956299999999374
                },
                {
                    "name": "A2",
                    "midi": 45,
                    "time": 281.04063999999886,
                    "velocity": 0.29133858267716534,
                    "duration": 0.21956299999999374
                },
                {
                    "name": "F2",
                    "midi": 41,
                    "time": 281.04063999999886,
                    "velocity": 0.29133858267716534,
                    "duration": 0.21956299999999374
                },
                {
                    "name": "F2",
                    "midi": 41,
                    "time": 281.26020299999885,
                    "velocity": 0.3464566929133858,
                    "duration": 0.21956299999999374
                },
                {
                    "name": "F3",
                    "midi": 53,
                    "time": 281.26020299999885,
                    "velocity": 0.4015748031496063,
                    "duration": 0.21956299999999374
                },
                {
                    "name": "A2",
                    "midi": 45,
                    "time": 281.26020299999885,
                    "velocity": 0.3464566929133858,
                    "duration": 0.21956299999999374
                },
                {
                    "name": "F#3",
                    "midi": 54,
                    "time": 281.47976599999885,
                    "velocity": 0.3464566929133858,
                    "duration": 0.21956299999999374
                },
                {
                    "name": "F2",
                    "midi": 41,
                    "time": 281.47976599999885,
                    "velocity": 0.29133858267716534,
                    "duration": 0.21956299999999374
                },
                {
                    "name": "A2",
                    "midi": 45,
                    "time": 281.47976599999885,
                    "velocity": 0.29133858267716534,
                    "duration": 0.21956299999999374
                },
                {
                    "name": "F2",
                    "midi": 41,
                    "time": 281.69932899999884,
                    "velocity": 0.29133858267716534,
                    "duration": 0.21956299999999374
                },
                {
                    "name": "F3",
                    "midi": 53,
                    "time": 281.69932899999884,
                    "velocity": 0.3464566929133858,
                    "duration": 0.21956299999999374
                },
                {
                    "name": "A2",
                    "midi": 45,
                    "time": 281.69932899999884,
                    "velocity": 0.29133858267716534,
                    "duration": 0.21956299999999374
                },
                {
                    "name": "A#2",
                    "midi": 46,
                    "time": 281.91889199999883,
                    "velocity": 0.3937007874015748,
                    "duration": 0.21956299999999374
                },
                {
                    "name": "A#1",
                    "midi": 34,
                    "time": 281.91889199999883,
                    "velocity": 0.33070866141732286,
                    "duration": 0.21956299999999374
                },
                {
                    "name": "F3",
                    "midi": 53,
                    "time": 282.1384549999988,
                    "velocity": 0.31496062992125984,
                    "duration": 0.16467225000002372
                },
                {
                    "name": "C#3",
                    "midi": 49,
                    "time": 282.1384549999988,
                    "velocity": 0.2755905511811024,
                    "duration": 0.16467225000002372
                },
                {
                    "name": "A#2",
                    "midi": 46,
                    "time": 282.1384549999988,
                    "velocity": 0.2755905511811024,
                    "duration": 0.16467225000002372
                },
                {
                    "name": "C#3",
                    "midi": 49,
                    "time": 282.3580179999989,
                    "velocity": 0.2755905511811024,
                    "duration": 0.16467225000002372
                },
                {
                    "name": "A#2",
                    "midi": 46,
                    "time": 282.3580179999989,
                    "velocity": 0.2755905511811024,
                    "duration": 0.16467225000002372
                },
                {
                    "name": "E3",
                    "midi": 52,
                    "time": 282.3580179999989,
                    "velocity": 0.31496062992125984,
                    "duration": 0.16467225000002372
                },
                {
                    "name": "A#2",
                    "midi": 46,
                    "time": 282.57758099999893,
                    "velocity": 0.33070866141732286,
                    "duration": 0.16467225000002372
                },
                {
                    "name": "C#3",
                    "midi": 49,
                    "time": 282.57758099999893,
                    "velocity": 0.33070866141732286,
                    "duration": 0.16467225000002372
                },
                {
                    "name": "F3",
                    "midi": 53,
                    "time": 282.57758099999893,
                    "velocity": 0.3937007874015748,
                    "duration": 0.16467225000002372
                },
                {
                    "name": "F#3",
                    "midi": 54,
                    "time": 282.797143999999,
                    "velocity": 0.31496062992125984,
                    "duration": 0.16467225000002372
                },
                {
                    "name": "A#2",
                    "midi": 46,
                    "time": 282.797143999999,
                    "velocity": 0.2755905511811024,
                    "duration": 0.16467225000002372
                },
                {
                    "name": "C#3",
                    "midi": 49,
                    "time": 282.797143999999,
                    "velocity": 0.2755905511811024,
                    "duration": 0.16467225000002372
                },
                {
                    "name": "F3",
                    "midi": 53,
                    "time": 283.01670699999903,
                    "velocity": 0.31496062992125984,
                    "duration": 0.16467225000002372
                },
                {
                    "name": "A#2",
                    "midi": 46,
                    "time": 283.01670699999903,
                    "velocity": 0.2755905511811024,
                    "duration": 0.16467225000002372
                },
                {
                    "name": "C#3",
                    "midi": 49,
                    "time": 283.01670699999903,
                    "velocity": 0.2755905511811024,
                    "duration": 0.16467225000002372
                },
                {
                    "name": "C#3",
                    "midi": 49,
                    "time": 283.2362699999991,
                    "velocity": 0.3937007874015748,
                    "duration": 0.21956299999999374
                },
                {
                    "name": "C#2",
                    "midi": 37,
                    "time": 283.2362699999991,
                    "velocity": 0.33070866141732286,
                    "duration": 0.21956299999999374
                },
                {
                    "name": "C#3",
                    "midi": 49,
                    "time": 283.4558329999991,
                    "velocity": 0.2677165354330709,
                    "duration": 0.16467225000002372
                },
                {
                    "name": "F3",
                    "midi": 53,
                    "time": 283.4558329999991,
                    "velocity": 0.30708661417322836,
                    "duration": 0.16467225000002372
                },
                {
                    "name": "E3",
                    "midi": 52,
                    "time": 283.6753959999991,
                    "velocity": 0.31496062992125984,
                    "duration": 0.16467225000002372
                },
                {
                    "name": "C#3",
                    "midi": 49,
                    "time": 283.6753959999991,
                    "velocity": 0.2755905511811024,
                    "duration": 0.16467225000002372
                },
                {
                    "name": "C#3",
                    "midi": 49,
                    "time": 283.8949589999992,
                    "velocity": 0.28346456692913385,
                    "duration": 0.16467225000002372
                },
                {
                    "name": "F3",
                    "midi": 53,
                    "time": 283.8949589999992,
                    "velocity": 0.3464566929133858,
                    "duration": 0.16467225000002372
                },
                {
                    "name": "C#3",
                    "midi": 49,
                    "time": 284.1145219999992,
                    "velocity": 0.2755905511811024,
                    "duration": 0.16467225000002372
                },
                {
                    "name": "F#3",
                    "midi": 54,
                    "time": 284.1145219999992,
                    "velocity": 0.31496062992125984,
                    "duration": 0.16467225000002372
                },
                {
                    "name": "F3",
                    "midi": 53,
                    "time": 284.3340849999993,
                    "velocity": 0.31496062992125984,
                    "duration": 0.16467225000002372
                },
                {
                    "name": "C#3",
                    "midi": 49,
                    "time": 284.3340849999993,
                    "velocity": 0.2755905511811024,
                    "duration": 0.16467225000002372
                },
                {
                    "name": "C2",
                    "midi": 36,
                    "time": 284.5536479999993,
                    "velocity": 0.3937007874015748,
                    "duration": 0.21956299999999374
                },
                {
                    "name": "C3",
                    "midi": 48,
                    "time": 284.7732109999993,
                    "velocity": 0.2755905511811024,
                    "duration": 0.21956299999999374
                },
                {
                    "name": "D#3",
                    "midi": 51,
                    "time": 284.7732109999993,
                    "velocity": 0.2755905511811024,
                    "duration": 0.21956299999999374
                },
                {
                    "name": "F3",
                    "midi": 53,
                    "time": 284.7732109999993,
                    "velocity": 0.31496062992125984,
                    "duration": 0.21956299999999374
                },
                {
                    "name": "D#3",
                    "midi": 51,
                    "time": 284.9927739999993,
                    "velocity": 0.31496062992125984,
                    "duration": 0.21956299999999374
                },
                {
                    "name": "C3",
                    "midi": 48,
                    "time": 284.9927739999993,
                    "velocity": 0.2755905511811024,
                    "duration": 0.21956299999999374
                },
                {
                    "name": "E3",
                    "midi": 52,
                    "time": 284.9927739999993,
                    "velocity": 0.2755905511811024,
                    "duration": 0.21956299999999374
                },
                {
                    "name": "C3",
                    "midi": 48,
                    "time": 285.2123369999993,
                    "velocity": 0.28346456692913385,
                    "duration": 0.21956299999999374
                },
                {
                    "name": "F3",
                    "midi": 53,
                    "time": 285.2123369999993,
                    "velocity": 0.3464566929133858,
                    "duration": 0.21956299999999374
                },
                {
                    "name": "D#3",
                    "midi": 51,
                    "time": 285.2123369999993,
                    "velocity": 0.28346456692913385,
                    "duration": 0.21956299999999374
                },
                {
                    "name": "D#3",
                    "midi": 51,
                    "time": 285.4318999999993,
                    "velocity": 0.3779527559055118,
                    "duration": 0.21956299999999374
                },
                {
                    "name": "C3",
                    "midi": 48,
                    "time": 285.4318999999993,
                    "velocity": 0.30708661417322836,
                    "duration": 0.21956299999999374
                },
                {
                    "name": "F#3",
                    "midi": 54,
                    "time": 285.6514629999993,
                    "velocity": 0.3937007874015748,
                    "duration": 0.21956299999999374
                },
                {
                    "name": "C3",
                    "midi": 48,
                    "time": 285.6514629999993,
                    "velocity": 0.33070866141732286,
                    "duration": 0.21956299999999374
                },
                {
                    "name": "D#3",
                    "midi": 51,
                    "time": 285.6514629999993,
                    "velocity": 0.33070866141732286,
                    "duration": 0.21956299999999374
                },
                {
                    "name": "A1",
                    "midi": 33,
                    "time": 285.8710259999993,
                    "velocity": 0.49606299212598426,
                    "duration": 0.21956299999999374
                },
                {
                    "name": "A2",
                    "midi": 45,
                    "time": 286.0905889999993,
                    "velocity": 0.31496062992125984,
                    "duration": 0.21956299999999374
                },
                {
                    "name": "F3",
                    "midi": 53,
                    "time": 286.0905889999993,
                    "velocity": 0.3858267716535433,
                    "duration": 0.21956299999999374
                },
                {
                    "name": "C3",
                    "midi": 48,
                    "time": 286.0905889999993,
                    "velocity": 0.31496062992125984,
                    "duration": 0.21956299999999374
                },
                {
                    "name": "C3",
                    "midi": 48,
                    "time": 286.3101519999993,
                    "velocity": 0.31496062992125984,
                    "duration": 0.21956299999999374
                },
                {
                    "name": "A2",
                    "midi": 45,
                    "time": 286.3101519999993,
                    "velocity": 0.31496062992125984,
                    "duration": 0.21956299999999374
                },
                {
                    "name": "E3",
                    "midi": 52,
                    "time": 286.3101519999993,
                    "velocity": 0.3858267716535433,
                    "duration": 0.21956299999999374
                },
                {
                    "name": "C3",
                    "midi": 48,
                    "time": 286.52971499999927,
                    "velocity": 0.3464566929133858,
                    "duration": 0.21956299999999374
                },
                {
                    "name": "F3",
                    "midi": 53,
                    "time": 286.52971499999927,
                    "velocity": 0.4094488188976378,
                    "duration": 0.21956299999999374
                },
                {
                    "name": "A2",
                    "midi": 45,
                    "time": 286.52971499999927,
                    "velocity": 0.3464566929133858,
                    "duration": 0.21956299999999374
                },
                {
                    "name": "A2",
                    "midi": 45,
                    "time": 286.74927799999926,
                    "velocity": 0.2677165354330709,
                    "duration": 0.21956299999999374
                },
                {
                    "name": "F#3",
                    "midi": 54,
                    "time": 286.74927799999926,
                    "velocity": 0.30708661417322836,
                    "duration": 0.21956299999999374
                },
                {
                    "name": "C3",
                    "midi": 48,
                    "time": 286.74927799999926,
                    "velocity": 0.2677165354330709,
                    "duration": 0.21956299999999374
                },
                {
                    "name": "A2",
                    "midi": 45,
                    "time": 286.96884099999926,
                    "velocity": 0.2204724409448819,
                    "duration": 0.21956299999999374
                },
                {
                    "name": "F3",
                    "midi": 53,
                    "time": 286.96884099999926,
                    "velocity": 0.25984251968503935,
                    "duration": 0.21956299999999374
                },
                {
                    "name": "C3",
                    "midi": 48,
                    "time": 286.96884099999926,
                    "velocity": 0.2204724409448819,
                    "duration": 0.21956299999999374
                },
                {
                    "name": "A#1",
                    "midi": 34,
                    "time": 287.18840399999925,
                    "velocity": 0.33070866141732286,
                    "duration": 0.21956299999999374
                },
                {
                    "name": "A#2",
                    "midi": 46,
                    "time": 287.40796699999925,
                    "velocity": 0.2283464566929134,
                    "duration": 0.21956299999999374
                },
                {
                    "name": "F3",
                    "midi": 53,
                    "time": 287.40796699999925,
                    "velocity": 0.2677165354330709,
                    "duration": 0.21956299999999374
                },
                {
                    "name": "C#3",
                    "midi": 49,
                    "time": 287.40796699999925,
                    "velocity": 0.2283464566929134,
                    "duration": 0.21956299999999374
                },
                {
                    "name": "E3",
                    "midi": 52,
                    "time": 287.62752999999924,
                    "velocity": 0.2677165354330709,
                    "duration": 0.21956299999999374
                },
                {
                    "name": "A#2",
                    "midi": 46,
                    "time": 287.62752999999924,
                    "velocity": 0.2283464566929134,
                    "duration": 0.21956299999999374
                },
                {
                    "name": "C#3",
                    "midi": 49,
                    "time": 287.62752999999924,
                    "velocity": 0.2283464566929134,
                    "duration": 0.21956299999999374
                },
                {
                    "name": "F3",
                    "midi": 53,
                    "time": 287.84709299999923,
                    "velocity": 0.33070866141732286,
                    "duration": 0.16467225000002372
                },
                {
                    "name": "C#3",
                    "midi": 49,
                    "time": 287.84709299999923,
                    "velocity": 0.28346456692913385,
                    "duration": 0.16467225000002372
                },
                {
                    "name": "A#2",
                    "midi": 46,
                    "time": 287.84709299999923,
                    "velocity": 0.28346456692913385,
                    "duration": 0.16467225000002372
                },
                {
                    "name": "C#3",
                    "midi": 49,
                    "time": 288.0666559999993,
                    "velocity": 0.2283464566929134,
                    "duration": 0.16467225000002372
                },
                {
                    "name": "F#3",
                    "midi": 54,
                    "time": 288.0666559999993,
                    "velocity": 0.2677165354330709,
                    "duration": 0.16467225000002372
                },
                {
                    "name": "A#2",
                    "midi": 46,
                    "time": 288.0666559999993,
                    "velocity": 0.2283464566929134,
                    "duration": 0.16467225000002372
                },
                {
                    "name": "C#3",
                    "midi": 49,
                    "time": 288.28621899999933,
                    "velocity": 0.2283464566929134,
                    "duration": 0.16467225000002372
                },
                {
                    "name": "F3",
                    "midi": 53,
                    "time": 288.28621899999933,
                    "velocity": 0.2677165354330709,
                    "duration": 0.16467225000002372
                },
                {
                    "name": "A#2",
                    "midi": 46,
                    "time": 288.28621899999933,
                    "velocity": 0.2283464566929134,
                    "duration": 0.16467225000002372
                },
                {
                    "name": "E2",
                    "midi": 40,
                    "time": 288.5057819999994,
                    "velocity": 0.33070866141732286,
                    "duration": 0.21956299999999374
                },
                {
                    "name": "G3",
                    "midi": 55,
                    "time": 288.7253449999994,
                    "velocity": 0.25984251968503935,
                    "duration": 0.21956299999999374
                },
                {
                    "name": "C3",
                    "midi": 48,
                    "time": 288.7253449999994,
                    "velocity": 0.2204724409448819,
                    "duration": 0.21956299999999374
                },
                {
                    "name": "A#2",
                    "midi": 46,
                    "time": 288.7253449999994,
                    "velocity": 0.2204724409448819,
                    "duration": 0.21956299999999374
                },
                {
                    "name": "G3",
                    "midi": 55,
                    "time": 288.9449079999994,
                    "velocity": 0.2204724409448819,
                    "duration": 0.21956299999999374
                },
                {
                    "name": "A#2",
                    "midi": 46,
                    "time": 288.9449079999994,
                    "velocity": 0.1968503937007874,
                    "duration": 0.21956299999999374
                },
                {
                    "name": "C#3",
                    "midi": 49,
                    "time": 288.9449079999994,
                    "velocity": 0.1968503937007874,
                    "duration": 0.21956299999999374
                },
                {
                    "name": "G3",
                    "midi": 55,
                    "time": 289.16447099999937,
                    "velocity": 0.23622047244094488,
                    "duration": 0.16467225000002372
                },
                {
                    "name": "A#2",
                    "midi": 46,
                    "time": 289.16447099999937,
                    "velocity": 0.2047244094488189,
                    "duration": 0.16467225000002372
                },
                {
                    "name": "C3",
                    "midi": 48,
                    "time": 289.3840339999994,
                    "velocity": 0.1968503937007874,
                    "duration": 0.16467225000002372
                },
                {
                    "name": "A#2",
                    "midi": 46,
                    "time": 289.3840339999994,
                    "velocity": 0.1968503937007874,
                    "duration": 0.16467225000002372
                },
                {
                    "name": "G3",
                    "midi": 55,
                    "time": 289.3840339999994,
                    "velocity": 0.2204724409448819,
                    "duration": 0.16467225000002372
                },
                {
                    "name": "C#3",
                    "midi": 49,
                    "time": 289.60359699999947,
                    "velocity": 0.1968503937007874,
                    "duration": 0.16467225000002372
                },
                {
                    "name": "G3",
                    "midi": 55,
                    "time": 289.60359699999947,
                    "velocity": 0.2204724409448819,
                    "duration": 0.16467225000002372
                },
                {
                    "name": "A#2",
                    "midi": 46,
                    "time": 289.60359699999947,
                    "velocity": 0.1968503937007874,
                    "duration": 0.16467225000002372
                },
                {
                    "name": "F2",
                    "midi": 41,
                    "time": 289.8231599999995,
                    "velocity": 0.3228346456692913,
                    "duration": 0.21956299999999374
                },
                {
                    "name": "A#2",
                    "midi": 46,
                    "time": 290.0427229999995,
                    "velocity": 0.1889763779527559,
                    "duration": 0.21956299999999374
                },
                {
                    "name": "C#3",
                    "midi": 49,
                    "time": 290.0427229999995,
                    "velocity": 0.23622047244094488,
                    "duration": 0.21956299999999374
                },
                {
                    "name": "A#2",
                    "midi": 46,
                    "time": 290.2622859999995,
                    "velocity": 0.1732283464566929,
                    "duration": 0.21956299999999374
                },
                {
                    "name": "C#3",
                    "midi": 49,
                    "time": 290.2622859999995,
                    "velocity": 0.2204724409448819,
                    "duration": 0.21956299999999374
                },
                {
                    "name": "F2",
                    "midi": 41,
                    "time": 290.4818489999995,
                    "velocity": 0.2204724409448819,
                    "duration": 0.16467225000002372
                },
                {
                    "name": "C3",
                    "midi": 48,
                    "time": 290.70141199999955,
                    "velocity": 0.1889763779527559,
                    "duration": 0.16467225000002372
                },
                {
                    "name": "A2",
                    "midi": 45,
                    "time": 290.70141199999955,
                    "velocity": 0.1889763779527559,
                    "duration": 0.16467225000002372
                },
                {
                    "name": "C3",
                    "midi": 48,
                    "time": 290.9209749999996,
                    "velocity": 0.1889763779527559,
                    "duration": 0.16467225000002372
                },
                {
                    "name": "A2",
                    "midi": 45,
                    "time": 290.9209749999996,
                    "velocity": 0.1889763779527559,
                    "duration": 0.16467225000002372
                },
                {
                    "name": "A#1",
                    "midi": 34,
                    "time": 291.14053799999965,
                    "velocity": 0.2440944881889764,
                    "duration": 0.21956299999999374
                },
                {
                    "name": "A#2",
                    "midi": 46,
                    "time": 291.36010099999964,
                    "velocity": 0.14173228346456693,
                    "duration": 0.21956299999999374
                },
                {
                    "name": "F3",
                    "midi": 53,
                    "time": 291.36010099999964,
                    "velocity": 0.18110236220472442,
                    "duration": 0.21956299999999374
                },
                {
                    "name": "C#3",
                    "midi": 49,
                    "time": 291.36010099999964,
                    "velocity": 0.14173228346456693,
                    "duration": 0.21956299999999374
                },
                {
                    "name": "A#2",
                    "midi": 46,
                    "time": 291.57966399999964,
                    "velocity": 0.1732283464566929,
                    "duration": 0.21956299999999374
                },
                {
                    "name": "C3",
                    "midi": 48,
                    "time": 291.57966399999964,
                    "velocity": 0.1732283464566929,
                    "duration": 0.21956299999999374
                },
                {
                    "name": "D#3",
                    "midi": 51,
                    "time": 291.57966399999964,
                    "velocity": 0.2047244094488189,
                    "duration": 0.21956299999999374
                },
                {
                    "name": "A#2",
                    "midi": 46,
                    "time": 291.79922699999963,
                    "velocity": 0.23622047244094488,
                    "duration": 0.6586889999999812
                },
                {
                    "name": "C#3",
                    "midi": 49,
                    "time": 291.79922699999963,
                    "velocity": 0.28346456692913385,
                    "duration": 0.6586889999999812
                },
                {
                    "name": "A#3",
                    "midi": 58,
                    "time": 292.4579159999996,
                    "velocity": 0.28346456692913385,
                    "duration": 0.21956299999999374
                },
                {
                    "name": "A#2",
                    "midi": 46,
                    "time": 292.4579159999996,
                    "velocity": 0.23622047244094488,
                    "duration": 0.21956299999999374
                },
                {
                    "name": "C#4",
                    "midi": 61,
                    "time": 292.6774789999996,
                    "velocity": 0.1968503937007874,
                    "duration": 0.16467225000002372
                },
                {
                    "name": "A#3",
                    "midi": 58,
                    "time": 292.6774789999996,
                    "velocity": 0.1968503937007874,
                    "duration": 0.16467225000002372
                },
                {
                    "name": "F4",
                    "midi": 65,
                    "time": 292.6774789999996,
                    "velocity": 0.2283464566929134,
                    "duration": 0.16467225000002372
                },
                {
                    "name": "E4",
                    "midi": 64,
                    "time": 292.89704199999966,
                    "velocity": 0.2283464566929134,
                    "duration": 0.16467225000002372
                },
                {
                    "name": "A#3",
                    "midi": 58,
                    "time": 292.89704199999966,
                    "velocity": 0.1968503937007874,
                    "duration": 0.16467225000002372
                },
                {
                    "name": "C#4",
                    "midi": 61,
                    "time": 292.89704199999966,
                    "velocity": 0.1968503937007874,
                    "duration": 0.16467225000002372
                },
                {
                    "name": "F4",
                    "midi": 65,
                    "time": 293.1166049999997,
                    "velocity": 0.28346456692913385,
                    "duration": 0.16467225000002372
                },
                {
                    "name": "C#4",
                    "midi": 61,
                    "time": 293.1166049999997,
                    "velocity": 0.23622047244094488,
                    "duration": 0.16467225000002372
                },
                {
                    "name": "A#3",
                    "midi": 58,
                    "time": 293.1166049999997,
                    "velocity": 0.23622047244094488,
                    "duration": 0.16467225000002372
                },
                {
                    "name": "C#4",
                    "midi": 61,
                    "time": 293.33616799999976,
                    "velocity": 0.1968503937007874,
                    "duration": 0.16467225000002372
                },
                {
                    "name": "F#4",
                    "midi": 66,
                    "time": 293.33616799999976,
                    "velocity": 0.2283464566929134,
                    "duration": 0.16467225000002372
                },
                {
                    "name": "A#3",
                    "midi": 58,
                    "time": 293.33616799999976,
                    "velocity": 0.1968503937007874,
                    "duration": 0.16467225000002372
                },
                {
                    "name": "C#4",
                    "midi": 61,
                    "time": 293.5557309999998,
                    "velocity": 0.1968503937007874,
                    "duration": 0.16467225000002372
                },
                {
                    "name": "F4",
                    "midi": 65,
                    "time": 293.5557309999998,
                    "velocity": 0.2283464566929134,
                    "duration": 0.16467225000002372
                },
                {
                    "name": "A#3",
                    "midi": 58,
                    "time": 293.5557309999998,
                    "velocity": 0.1968503937007874,
                    "duration": 0.16467225000002372
                },
                {
                    "name": "C#3",
                    "midi": 49,
                    "time": 293.77529399999986,
                    "velocity": 0.28346456692913385,
                    "duration": 0.21956299999999374
                },
                {
                    "name": "F4",
                    "midi": 65,
                    "time": 293.99485699999985,
                    "velocity": 0.2204724409448819,
                    "duration": 0.16467225000002372
                },
                {
                    "name": "C#4",
                    "midi": 61,
                    "time": 293.99485699999985,
                    "velocity": 0.1889763779527559,
                    "duration": 0.16467225000002372
                },
                {
                    "name": "C#4",
                    "midi": 61,
                    "time": 294.2144199999999,
                    "velocity": 0.1968503937007874,
                    "duration": 0.16467225000002372
                },
                {
                    "name": "E4",
                    "midi": 64,
                    "time": 294.2144199999999,
                    "velocity": 0.2283464566929134,
                    "duration": 0.16467225000002372
                },
                {
                    "name": "C#4",
                    "midi": 61,
                    "time": 294.43398299999996,
                    "velocity": 0.2047244094488189,
                    "duration": 0.16467225000002372
                },
                {
                    "name": "F4",
                    "midi": 65,
                    "time": 294.43398299999996,
                    "velocity": 0.2440944881889764,
                    "duration": 0.16467225000002372
                },
                {
                    "name": "C#4",
                    "midi": 61,
                    "time": 294.653546,
                    "velocity": 0.1968503937007874,
                    "duration": 0.16467225000002372
                },
                {
                    "name": "F#4",
                    "midi": 66,
                    "time": 294.653546,
                    "velocity": 0.2283464566929134,
                    "duration": 0.16467225000002372
                },
                {
                    "name": "C#4",
                    "midi": 61,
                    "time": 294.87310900000006,
                    "velocity": 0.1968503937007874,
                    "duration": 0.16467225000002372
                },
                {
                    "name": "F4",
                    "midi": 65,
                    "time": 294.87310900000006,
                    "velocity": 0.2283464566929134,
                    "duration": 0.16467225000002372
                },
                {
                    "name": "C3",
                    "midi": 48,
                    "time": 295.0926720000001,
                    "velocity": 0.28346456692913385,
                    "duration": 0.21956299999999374
                },
                {
                    "name": "D#4",
                    "midi": 63,
                    "time": 295.3122350000001,
                    "velocity": 0.1968503937007874,
                    "duration": 0.21956299999999374
                },
                {
                    "name": "F4",
                    "midi": 65,
                    "time": 295.3122350000001,
                    "velocity": 0.2283464566929134,
                    "duration": 0.21956299999999374
                },
                {
                    "name": "C4",
                    "midi": 60,
                    "time": 295.3122350000001,
                    "velocity": 0.1968503937007874,
                    "duration": 0.21956299999999374
                },
                {
                    "name": "E4",
                    "midi": 64,
                    "time": 295.5317980000001,
                    "velocity": 0.1968503937007874,
                    "duration": 0.21956299999999374
                },
                {
                    "name": "C4",
                    "midi": 60,
                    "time": 295.5317980000001,
                    "velocity": 0.1968503937007874,
                    "duration": 0.21956299999999374
                },
                {
                    "name": "D#4",
                    "midi": 63,
                    "time": 295.5317980000001,
                    "velocity": 0.2283464566929134,
                    "duration": 0.21956299999999374
                },
                {
                    "name": "C4",
                    "midi": 60,
                    "time": 295.7513610000001,
                    "velocity": 0.2047244094488189,
                    "duration": 0.21956299999999374
                },
                {
                    "name": "D#4",
                    "midi": 63,
                    "time": 295.7513610000001,
                    "velocity": 0.2047244094488189,
                    "duration": 0.21956299999999374
                },
                {
                    "name": "F4",
                    "midi": 65,
                    "time": 295.7513610000001,
                    "velocity": 0.2440944881889764,
                    "duration": 0.21956299999999374
                },
                {
                    "name": "C4",
                    "midi": 60,
                    "time": 295.9709240000001,
                    "velocity": 0.2204724409448819,
                    "duration": 0.21956299999999374
                },
                {
                    "name": "D#4",
                    "midi": 63,
                    "time": 295.9709240000001,
                    "velocity": 0.2677165354330709,
                    "duration": 0.21956299999999374
                },
                {
                    "name": "C4",
                    "midi": 60,
                    "time": 296.1904870000001,
                    "velocity": 0.23622047244094488,
                    "duration": 0.21956299999999374
                },
                {
                    "name": "D#4",
                    "midi": 63,
                    "time": 296.1904870000001,
                    "velocity": 0.23622047244094488,
                    "duration": 0.21956299999999374
                },
                {
                    "name": "F#4",
                    "midi": 66,
                    "time": 296.1904870000001,
                    "velocity": 0.28346456692913385,
                    "duration": 0.21956299999999374
                },
                {
                    "name": "A2",
                    "midi": 45,
                    "time": 296.41005000000007,
                    "velocity": 0.3543307086614173,
                    "duration": 0.21956299999999374
                },
                {
                    "name": "F4",
                    "midi": 65,
                    "time": 296.62961300000006,
                    "velocity": 0.2755905511811024,
                    "duration": 0.21956299999999374
                },
                {
                    "name": "C4",
                    "midi": 60,
                    "time": 296.62961300000006,
                    "velocity": 0.2283464566929134,
                    "duration": 0.21956299999999374
                },
                {
                    "name": "A3",
                    "midi": 57,
                    "time": 296.62961300000006,
                    "velocity": 0.2283464566929134,
                    "duration": 0.21956299999999374
                },
                {
                    "name": "C4",
                    "midi": 60,
                    "time": 296.84917600000006,
                    "velocity": 0.2283464566929134,
                    "duration": 0.21956299999999374
                },
                {
                    "name": "E4",
                    "midi": 64,
                    "time": 296.84917600000006,
                    "velocity": 0.2755905511811024,
                    "duration": 0.21956299999999374
                },
                {
                    "name": "A3",
                    "midi": 57,
                    "time": 296.84917600000006,
                    "velocity": 0.2283464566929134,
                    "duration": 0.21956299999999374
                },
                {
                    "name": "C4",
                    "midi": 60,
                    "time": 297.06873900000005,
                    "velocity": 0.2677165354330709,
                    "duration": 0.21956299999999374
                },
                {
                    "name": "F4",
                    "midi": 65,
                    "time": 297.06873900000005,
                    "velocity": 0.31496062992125984,
                    "duration": 0.21956299999999374
                },
                {
                    "name": "A3",
                    "midi": 57,
                    "time": 297.06873900000005,
                    "velocity": 0.2677165354330709,
                    "duration": 0.21956299999999374
                },
                {
                    "name": "A3",
                    "midi": 57,
                    "time": 297.28830200000004,
                    "velocity": 0.2047244094488189,
                    "duration": 0.21956299999999374
                },
                {
                    "name": "F#4",
                    "midi": 66,
                    "time": 297.28830200000004,
                    "velocity": 0.23622047244094488,
                    "duration": 0.21956299999999374
                },
                {
                    "name": "C4",
                    "midi": 60,
                    "time": 297.28830200000004,
                    "velocity": 0.2047244094488189,
                    "duration": 0.21956299999999374
                },
                {
                    "name": "A3",
                    "midi": 57,
                    "time": 297.50786500000004,
                    "velocity": 0.2047244094488189,
                    "duration": 0.21956299999999374
                },
                {
                    "name": "F4",
                    "midi": 65,
                    "time": 297.50786500000004,
                    "velocity": 0.23622047244094488,
                    "duration": 0.21956299999999374
                },
                {
                    "name": "C4",
                    "midi": 60,
                    "time": 297.50786500000004,
                    "velocity": 0.2047244094488189,
                    "duration": 0.21956299999999374
                },
                {
                    "name": "A#2",
                    "midi": 46,
                    "time": 297.72742800000003,
                    "velocity": 0.31496062992125984,
                    "duration": 0.21956299999999374
                },
                {
                    "name": "F4",
                    "midi": 65,
                    "time": 297.946991,
                    "velocity": 0.25984251968503935,
                    "duration": 0.21956299999999374
                },
                {
                    "name": "A#3",
                    "midi": 58,
                    "time": 297.946991,
                    "velocity": 0.2204724409448819,
                    "duration": 0.21956299999999374
                },
                {
                    "name": "C#4",
                    "midi": 61,
                    "time": 297.946991,
                    "velocity": 0.2204724409448819,
                    "duration": 0.21956299999999374
                },
                {
                    "name": "A#3",
                    "midi": 58,
                    "time": 298.166554,
                    "velocity": 0.2204724409448819,
                    "duration": 0.21956299999999374
                },
                {
                    "name": "C#4",
                    "midi": 61,
                    "time": 298.166554,
                    "velocity": 0.2204724409448819,
                    "duration": 0.21956299999999374
                },
                {
                    "name": "E4",
                    "midi": 64,
                    "time": 298.166554,
                    "velocity": 0.25984251968503935,
                    "duration": 0.21956299999999374
                },
                {
                    "name": "A#3",
                    "midi": 58,
                    "time": 298.386117,
                    "velocity": 0.2677165354330709,
                    "duration": 0.16467225000002372
                },
                {
                    "name": "F4",
                    "midi": 65,
                    "time": 298.386117,
                    "velocity": 0.31496062992125984,
                    "duration": 0.16467225000002372
                },
                {
                    "name": "C#4",
                    "midi": 61,
                    "time": 298.386117,
                    "velocity": 0.2677165354330709,
                    "duration": 0.16467225000002372
                },
                {
                    "name": "F#4",
                    "midi": 66,
                    "time": 298.60568000000006,
                    "velocity": 0.25984251968503935,
                    "duration": 0.16467225000002372
                },
                {
                    "name": "C#4",
                    "midi": 61,
                    "time": 298.60568000000006,
                    "velocity": 0.2204724409448819,
                    "duration": 0.16467225000002372
                },
                {
                    "name": "A#3",
                    "midi": 58,
                    "time": 298.60568000000006,
                    "velocity": 0.2204724409448819,
                    "duration": 0.16467225000002372
                },
                {
                    "name": "C#4",
                    "midi": 61,
                    "time": 298.8252430000001,
                    "velocity": 0.2204724409448819,
                    "duration": 0.16467225000002372
                },
                {
                    "name": "F4",
                    "midi": 65,
                    "time": 298.8252430000001,
                    "velocity": 0.25984251968503935,
                    "duration": 0.16467225000002372
                },
                {
                    "name": "A#3",
                    "midi": 58,
                    "time": 298.8252430000001,
                    "velocity": 0.2204724409448819,
                    "duration": 0.16467225000002372
                },
                {
                    "name": "F#2",
                    "midi": 42,
                    "time": 299.04480600000016,
                    "velocity": 0.31496062992125984,
                    "duration": 0.21956299999999374
                },
                {
                    "name": "F#3",
                    "midi": 54,
                    "time": 299.26436900000016,
                    "velocity": 0.2125984251968504,
                    "duration": 0.21956299999999374
                },
                {
                    "name": "D#4",
                    "midi": 63,
                    "time": 299.26436900000016,
                    "velocity": 0.2440944881889764,
                    "duration": 0.21956299999999374
                },
                {
                    "name": "A#3",
                    "midi": 58,
                    "time": 299.26436900000016,
                    "velocity": 0.2125984251968504,
                    "duration": 0.21956299999999374
                },
                {
                    "name": "A3",
                    "midi": 57,
                    "time": 299.48393200000015,
                    "velocity": 0.2204724409448819,
                    "duration": 0.21956299999999374
                },
                {
                    "name": "F#3",
                    "midi": 54,
                    "time": 299.48393200000015,
                    "velocity": 0.2204724409448819,
                    "duration": 0.21956299999999374
                },
                {
                    "name": "D#4",
                    "midi": 63,
                    "time": 299.48393200000015,
                    "velocity": 0.25984251968503935,
                    "duration": 0.21956299999999374
                },
                {
                    "name": "D#4",
                    "midi": 63,
                    "time": 299.70349500000015,
                    "velocity": 0.2755905511811024,
                    "duration": 0.16467225000002372
                },
                {
                    "name": "A#3",
                    "midi": 58,
                    "time": 299.70349500000015,
                    "velocity": 0.2283464566929134,
                    "duration": 0.16467225000002372
                },
                {
                    "name": "F#3",
                    "midi": 54,
                    "time": 299.70349500000015,
                    "velocity": 0.2283464566929134,
                    "duration": 0.16467225000002372
                },
                {
                    "name": "A#3",
                    "midi": 58,
                    "time": 299.9230580000002,
                    "velocity": 0.2204724409448819,
                    "duration": 0.16467225000002372
                },
                {
                    "name": "F4",
                    "midi": 65,
                    "time": 299.9230580000002,
                    "velocity": 0.25984251968503935,
                    "duration": 0.16467225000002372
                },
                {
                    "name": "F#3",
                    "midi": 54,
                    "time": 299.9230580000002,
                    "velocity": 0.2283464566929134,
                    "duration": 0.16467225000002372
                },
                {
                    "name": "D#4",
                    "midi": 63,
                    "time": 300.14262100000025,
                    "velocity": 0.25984251968503935,
                    "duration": 0.16467225000002372
                },
                {
                    "name": "A#3",
                    "midi": 58,
                    "time": 300.14262100000025,
                    "velocity": 0.2204724409448819,
                    "duration": 0.16467225000002372
                },
                {
                    "name": "F#3",
                    "midi": 54,
                    "time": 300.14262100000025,
                    "velocity": 0.2283464566929134,
                    "duration": 0.16467225000002372
                },
                {
                    "name": "F3",
                    "midi": 53,
                    "time": 300.3621840000003,
                    "velocity": 0.4015748031496063,
                    "duration": 0.21956299999999374
                },
                {
                    "name": "F2",
                    "midi": 41,
                    "time": 300.3621840000003,
                    "velocity": 0.3228346456692913,
                    "duration": 0.21956299999999374
                },
                {
                    "name": "A#3",
                    "midi": 58,
                    "time": 300.5817470000003,
                    "velocity": 0.23622047244094488,
                    "duration": 0.21956299999999374
                },
                {
                    "name": "F3",
                    "midi": 53,
                    "time": 300.5817470000003,
                    "velocity": 0.23622047244094488,
                    "duration": 0.21956299999999374
                },
                {
                    "name": "C#4",
                    "midi": 61,
                    "time": 300.5817470000003,
                    "velocity": 0.29133858267716534,
                    "duration": 0.21956299999999374
                },
                {
                    "name": "A#3",
                    "midi": 58,
                    "time": 300.8013100000003,
                    "velocity": 0.23622047244094488,
                    "duration": 0.21956299999999374
                },
                {
                    "name": "F3",
                    "midi": 53,
                    "time": 300.8013100000003,
                    "velocity": 0.23622047244094488,
                    "duration": 0.21956299999999374
                },
                {
                    "name": "C4",
                    "midi": 60,
                    "time": 300.8013100000003,
                    "velocity": 0.29133858267716534,
                    "duration": 0.21956299999999374
                },
                {
                    "name": "C#4",
                    "midi": 61,
                    "time": 301.0208730000003,
                    "velocity": 0.30708661417322836,
                    "duration": 0.21956299999999374
                },
                {
                    "name": "F3",
                    "midi": 53,
                    "time": 301.0208730000003,
                    "velocity": 0.25984251968503935,
                    "duration": 0.21956299999999374
                },
                {
                    "name": "A#3",
                    "midi": 58,
                    "time": 301.0208730000003,
                    "velocity": 0.25984251968503935,
                    "duration": 0.21956299999999374
                },
                {
                    "name": "F3",
                    "midi": 53,
                    "time": 301.2404360000003,
                    "velocity": 0.2755905511811024,
                    "duration": 0.21956299999999374
                },
                {
                    "name": "A#3",
                    "midi": 58,
                    "time": 301.2404360000003,
                    "velocity": 0.2755905511811024,
                    "duration": 0.21956299999999374
                },
                {
                    "name": "D#4",
                    "midi": 63,
                    "time": 301.2404360000003,
                    "velocity": 0.3228346456692913,
                    "duration": 0.21956299999999374
                },
                {
                    "name": "F3",
                    "midi": 53,
                    "time": 301.45999900000027,
                    "velocity": 0.2677165354330709,
                    "duration": 0.21956299999999374
                },
                {
                    "name": "E4",
                    "midi": 64,
                    "time": 301.45999900000027,
                    "velocity": 0.31496062992125984,
                    "duration": 0.21956299999999374
                },
                {
                    "name": "A#3",
                    "midi": 58,
                    "time": 301.45999900000027,
                    "velocity": 0.2677165354330709,
                    "duration": 0.21956299999999374
                },
                {
                    "name": "F3",
                    "midi": 53,
                    "time": 301.67956200000026,
                    "velocity": 0.3937007874015748,
                    "duration": 0.21956299999999374
                },
                {
                    "name": "F2",
                    "midi": 41,
                    "time": 301.67956200000026,
                    "velocity": 0.33070866141732286,
                    "duration": 0.21956299999999374
                },
                {
                    "name": "F3",
                    "midi": 53,
                    "time": 301.89912500000025,
                    "velocity": 0.2755905511811024,
                    "duration": 0.21956299999999374
                },
                {
                    "name": "F4",
                    "midi": 65,
                    "time": 301.89912500000025,
                    "velocity": 0.33070866141732286,
                    "duration": 0.21956299999999374
                },
                {
                    "name": "A3",
                    "midi": 57,
                    "time": 301.89912500000025,
                    "velocity": 0.2755905511811024,
                    "duration": 0.21956299999999374
                },
                {
                    "name": "A3",
                    "midi": 57,
                    "time": 302.11868800000025,
                    "velocity": 0.2755905511811024,
                    "duration": 0.21956299999999374
                },
                {
                    "name": "E4",
                    "midi": 64,
                    "time": 302.11868800000025,
                    "velocity": 0.33070866141732286,
                    "duration": 0.21956299999999374
                },
                {
                    "name": "F3",
                    "midi": 53,
                    "time": 302.11868800000025,
                    "velocity": 0.2755905511811024,
                    "duration": 0.21956299999999374
                },
                {
                    "name": "A3",
                    "midi": 57,
                    "time": 302.33825100000024,
                    "velocity": 0.33070866141732286,
                    "duration": 0.21956299999999374
                },
                {
                    "name": "F3",
                    "midi": 53,
                    "time": 302.33825100000024,
                    "velocity": 0.33070866141732286,
                    "duration": 0.21956299999999374
                },
                {
                    "name": "F4",
                    "midi": 65,
                    "time": 302.33825100000024,
                    "velocity": 0.3858267716535433,
                    "duration": 0.21956299999999374
                },
                {
                    "name": "F3",
                    "midi": 53,
                    "time": 302.55781400000023,
                    "velocity": 0.2755905511811024,
                    "duration": 0.21956299999999374
                },
                {
                    "name": "A3",
                    "midi": 57,
                    "time": 302.55781400000023,
                    "velocity": 0.2755905511811024,
                    "duration": 0.21956299999999374
                },
                {
                    "name": "F#4",
                    "midi": 66,
                    "time": 302.55781400000023,
                    "velocity": 0.33070866141732286,
                    "duration": 0.21956299999999374
                },
                {
                    "name": "F4",
                    "midi": 65,
                    "time": 302.77737700000023,
                    "velocity": 0.33070866141732286,
                    "duration": 0.21956299999999374
                },
                {
                    "name": "F3",
                    "midi": 53,
                    "time": 302.77737700000023,
                    "velocity": 0.2755905511811024,
                    "duration": 0.21956299999999374
                },
                {
                    "name": "A3",
                    "midi": 57,
                    "time": 302.77737700000023,
                    "velocity": 0.2755905511811024,
                    "duration": 0.21956299999999374
                },
                {
                    "name": "A#2",
                    "midi": 46,
                    "time": 302.9969400000002,
                    "velocity": 0.31496062992125984,
                    "duration": 0.21956299999999374
                },
                {
                    "name": "A#3",
                    "midi": 58,
                    "time": 302.9969400000002,
                    "velocity": 0.3779527559055118,
                    "duration": 0.21956299999999374
                },
                {
                    "name": "A#3",
                    "midi": 58,
                    "time": 303.2165030000002,
                    "velocity": 0.25984251968503935,
                    "duration": 0.21956299999999374
                },
                {
                    "name": "C#4",
                    "midi": 61,
                    "time": 303.2165030000002,
                    "velocity": 0.25984251968503935,
                    "duration": 0.21956299999999374
                },
                {
                    "name": "F4",
                    "midi": 65,
                    "time": 303.2165030000002,
                    "velocity": 0.2992125984251969,
                    "duration": 0.21956299999999374
                },
                {
                    "name": "C#4",
                    "midi": 61,
                    "time": 303.4360660000002,
                    "velocity": 0.25984251968503935,
                    "duration": 0.21956299999999374
                },
                {
                    "name": "E4",
                    "midi": 64,
                    "time": 303.4360660000002,
                    "velocity": 0.2992125984251969,
                    "duration": 0.21956299999999374
                },
                {
                    "name": "A#3",
                    "midi": 58,
                    "time": 303.4360660000002,
                    "velocity": 0.25984251968503935,
                    "duration": 0.21956299999999374
                },
                {
                    "name": "F4",
                    "midi": 65,
                    "time": 303.6556290000002,
                    "velocity": 0.3779527559055118,
                    "duration": 0.21956299999999374
                },
                {
                    "name": "C#4",
                    "midi": 61,
                    "time": 303.6556290000002,
                    "velocity": 0.31496062992125984,
                    "duration": 0.21956299999999374
                },
                {
                    "name": "A#3",
                    "midi": 58,
                    "time": 303.6556290000002,
                    "velocity": 0.31496062992125984,
                    "duration": 0.21956299999999374
                },
                {
                    "name": "A#3",
                    "midi": 58,
                    "time": 303.8751920000002,
                    "velocity": 0.25984251968503935,
                    "duration": 0.21956299999999374
                },
                {
                    "name": "C#4",
                    "midi": 61,
                    "time": 303.8751920000002,
                    "velocity": 0.25984251968503935,
                    "duration": 0.21956299999999374
                },
                {
                    "name": "F#4",
                    "midi": 66,
                    "time": 303.8751920000002,
                    "velocity": 0.2992125984251969,
                    "duration": 0.21956299999999374
                },
                {
                    "name": "A#3",
                    "midi": 58,
                    "time": 304.0947550000002,
                    "velocity": 0.25984251968503935,
                    "duration": 0.21956299999999374
                },
                {
                    "name": "F4",
                    "midi": 65,
                    "time": 304.0947550000002,
                    "velocity": 0.2992125984251969,
                    "duration": 0.21956299999999374
                },
                {
                    "name": "C#4",
                    "midi": 61,
                    "time": 304.0947550000002,
                    "velocity": 0.25984251968503935,
                    "duration": 0.21956299999999374
                },
                {
                    "name": "C#3",
                    "midi": 49,
                    "time": 304.3143180000002,
                    "velocity": 0.31496062992125984,
                    "duration": 0.21956299999999374
                },
                {
                    "name": "C#4",
                    "midi": 61,
                    "time": 304.3143180000002,
                    "velocity": 0.3779527559055118,
                    "duration": 0.21956299999999374
                },
                {
                    "name": "F4",
                    "midi": 65,
                    "time": 304.5338810000002,
                    "velocity": 0.29133858267716534,
                    "duration": 0.21956299999999374
                },
                {
                    "name": "C#4",
                    "midi": 61,
                    "time": 304.5338810000002,
                    "velocity": 0.25196850393700787,
                    "duration": 0.21956299999999374
                },
                {
                    "name": "C#4",
                    "midi": 61,
                    "time": 304.7534440000002,
                    "velocity": 0.25984251968503935,
                    "duration": 0.21956299999999374
                },
                {
                    "name": "E4",
                    "midi": 64,
                    "time": 304.7534440000002,
                    "velocity": 0.2992125984251969,
                    "duration": 0.21956299999999374
                },
                {
                    "name": "F4",
                    "midi": 65,
                    "time": 304.97300700000017,
                    "velocity": 0.33070866141732286,
                    "duration": 0.21956299999999374
                },
                {
                    "name": "C#4",
                    "midi": 61,
                    "time": 304.97300700000017,
                    "velocity": 0.2677165354330709,
                    "duration": 0.21956299999999374
                },
                {
                    "name": "F#4",
                    "midi": 66,
                    "time": 305.19257000000016,
                    "velocity": 0.2992125984251969,
                    "duration": 0.21956299999999374
                },
                {
                    "name": "C#4",
                    "midi": 61,
                    "time": 305.19257000000016,
                    "velocity": 0.25984251968503935,
                    "duration": 0.21956299999999374
                },
                {
                    "name": "C#4",
                    "midi": 61,
                    "time": 305.41213300000015,
                    "velocity": 0.25984251968503935,
                    "duration": 0.21956299999999374
                },
                {
                    "name": "F4",
                    "midi": 65,
                    "time": 305.41213300000015,
                    "velocity": 0.2992125984251969,
                    "duration": 0.21956299999999374
                },
                {
                    "name": "C3",
                    "midi": 48,
                    "time": 305.63169600000015,
                    "velocity": 0.3779527559055118,
                    "duration": 0.21956299999999374
                },
                {
                    "name": "C4",
                    "midi": 60,
                    "time": 305.85125900000014,
                    "velocity": 0.25984251968503935,
                    "duration": 0.21956299999999374
                },
                {
                    "name": "F4",
                    "midi": 65,
                    "time": 305.85125900000014,
                    "velocity": 0.2992125984251969,
                    "duration": 0.21956299999999374
                },
                {
                    "name": "D#4",
                    "midi": 63,
                    "time": 305.85125900000014,
                    "velocity": 0.25984251968503935,
                    "duration": 0.21956299999999374
                },
                {
                    "name": "E4",
                    "midi": 64,
                    "time": 306.07082200000013,
                    "velocity": 0.25984251968503935,
                    "duration": 0.21956299999999374
                },
                {
                    "name": "C4",
                    "midi": 60,
                    "time": 306.07082200000013,
                    "velocity": 0.25984251968503935,
                    "duration": 0.21956299999999374
                },
                {
                    "name": "D#4",
                    "midi": 63,
                    "time": 306.07082200000013,
                    "velocity": 0.2992125984251969,
                    "duration": 0.21956299999999374
                },
                {
                    "name": "C4",
                    "midi": 60,
                    "time": 306.29038500000013,
                    "velocity": 0.2677165354330709,
                    "duration": 0.21956299999999374
                },
                {
                    "name": "F4",
                    "midi": 65,
                    "time": 306.29038500000013,
                    "velocity": 0.33070866141732286,
                    "duration": 0.21956299999999374
                },
                {
                    "name": "D#4",
                    "midi": 63,
                    "time": 306.29038500000013,
                    "velocity": 0.2677165354330709,
                    "duration": 0.21956299999999374
                },
                {
                    "name": "D#4",
                    "midi": 63,
                    "time": 306.5099480000001,
                    "velocity": 0.36220472440944884,
                    "duration": 0.21956299999999374
                },
                {
                    "name": "C4",
                    "midi": 60,
                    "time": 306.5099480000001,
                    "velocity": 0.29133858267716534,
                    "duration": 0.21956299999999374
                },
                {
                    "name": "C4",
                    "midi": 60,
                    "time": 306.7295110000001,
                    "velocity": 0.31496062992125984,
                    "duration": 0.21956299999999374
                },
                {
                    "name": "F#4",
                    "midi": 66,
                    "time": 306.7295110000001,
                    "velocity": 0.3779527559055118,
                    "duration": 0.21956299999999374
                },
                {
                    "name": "D#4",
                    "midi": 63,
                    "time": 306.7295110000001,
                    "velocity": 0.31496062992125984,
                    "duration": 0.21956299999999374
                },
                {
                    "name": "A2",
                    "midi": 45,
                    "time": 306.9490740000001,
                    "velocity": 0.47244094488188976,
                    "duration": 0.21956299999999374
                },
                {
                    "name": "F4",
                    "midi": 65,
                    "time": 307.1686370000001,
                    "velocity": 0.3700787401574803,
                    "duration": 0.21956299999999374
                },
                {
                    "name": "A3",
                    "midi": 57,
                    "time": 307.1686370000001,
                    "velocity": 0.2992125984251969,
                    "duration": 0.21956299999999374
                },
                {
                    "name": "C4",
                    "midi": 60,
                    "time": 307.1686370000001,
                    "velocity": 0.2992125984251969,
                    "duration": 0.21956299999999374
                },
                {
                    "name": "E4",
                    "midi": 64,
                    "time": 307.3882000000001,
                    "velocity": 0.3700787401574803,
                    "duration": 0.21956299999999374
                },
                {
                    "name": "A3",
                    "midi": 57,
                    "time": 307.3882000000001,
                    "velocity": 0.2992125984251969,
                    "duration": 0.21956299999999374
                },
                {
                    "name": "C4",
                    "midi": 60,
                    "time": 307.3882000000001,
                    "velocity": 0.2992125984251969,
                    "duration": 0.21956299999999374
                },
                {
                    "name": "C4",
                    "midi": 60,
                    "time": 307.6077630000001,
                    "velocity": 0.33070866141732286,
                    "duration": 0.21956299999999374
                },
                {
                    "name": "A3",
                    "midi": 57,
                    "time": 307.6077630000001,
                    "velocity": 0.33070866141732286,
                    "duration": 0.21956299999999374
                },
                {
                    "name": "F4",
                    "midi": 65,
                    "time": 307.6077630000001,
                    "velocity": 0.3937007874015748,
                    "duration": 0.21956299999999374
                },
                {
                    "name": "F#4",
                    "midi": 66,
                    "time": 307.8273260000001,
                    "velocity": 0.31496062992125984,
                    "duration": 0.21956299999999374
                },
                {
                    "name": "A3",
                    "midi": 57,
                    "time": 307.8273260000001,
                    "velocity": 0.2755905511811024,
                    "duration": 0.21956299999999374
                },
                {
                    "name": "C4",
                    "midi": 60,
                    "time": 307.8273260000001,
                    "velocity": 0.2755905511811024,
                    "duration": 0.21956299999999374
                },
                {
                    "name": "F4",
                    "midi": 65,
                    "time": 308.0468890000001,
                    "velocity": 0.25984251968503935,
                    "duration": 0.21956299999999374
                },
                {
                    "name": "C4",
                    "midi": 60,
                    "time": 308.0468890000001,
                    "velocity": 0.2204724409448819,
                    "duration": 0.21956299999999374
                },
                {
                    "name": "A3",
                    "midi": 57,
                    "time": 308.0468890000001,
                    "velocity": 0.2204724409448819,
                    "duration": 0.21956299999999374
                },
                {
                    "name": "A#2",
                    "midi": 46,
                    "time": 308.2664520000001,
                    "velocity": 0.33070866141732286,
                    "duration": 0.21956299999999374
                },
                {
                    "name": "A#3",
                    "midi": 58,
                    "time": 308.48601500000007,
                    "velocity": 0.2283464566929134,
                    "duration": 0.21956299999999374
                },
                {
                    "name": "F4",
                    "midi": 65,
                    "time": 308.48601500000007,
                    "velocity": 0.2677165354330709,
                    "duration": 0.21956299999999374
                },
                {
                    "name": "C#4",
                    "midi": 61,
                    "time": 308.48601500000007,
                    "velocity": 0.2283464566929134,
                    "duration": 0.21956299999999374
                },
                {
                    "name": "A#3",
                    "midi": 58,
                    "time": 308.70557800000006,
                    "velocity": 0.2283464566929134,
                    "duration": 0.21956299999999374
                },
                {
                    "name": "C#4",
                    "midi": 61,
                    "time": 308.70557800000006,
                    "velocity": 0.2283464566929134,
                    "duration": 0.21956299999999374
                },
                {
                    "name": "E4",
                    "midi": 64,
                    "time": 308.70557800000006,
                    "velocity": 0.2677165354330709,
                    "duration": 0.21956299999999374
                },
                {
                    "name": "C#4",
                    "midi": 61,
                    "time": 308.92514100000005,
                    "velocity": 0.28346456692913385,
                    "duration": 0.16467225000002372
                },
                {
                    "name": "F4",
                    "midi": 65,
                    "time": 308.92514100000005,
                    "velocity": 0.33070866141732286,
                    "duration": 0.16467225000002372
                },
                {
                    "name": "A#3",
                    "midi": 58,
                    "time": 308.92514100000005,
                    "velocity": 0.28346456692913385,
                    "duration": 0.16467225000002372
                },
                {
                    "name": "C#4",
                    "midi": 61,
                    "time": 309.1447040000001,
                    "velocity": 0.2283464566929134,
                    "duration": 0.16467225000002372
                },
                {
                    "name": "F#4",
                    "midi": 66,
                    "time": 309.1447040000001,
                    "velocity": 0.2677165354330709,
                    "duration": 0.16467225000002372
                },
                {
                    "name": "A#3",
                    "midi": 58,
                    "time": 309.1447040000001,
                    "velocity": 0.2283464566929134,
                    "duration": 0.16467225000002372
                },
                {
                    "name": "A#3",
                    "midi": 58,
                    "time": 309.36426700000015,
                    "velocity": 0.2283464566929134,
                    "duration": 0.16467225000002372
                },
                {
                    "name": "C#4",
                    "midi": 61,
                    "time": 309.36426700000015,
                    "velocity": 0.2283464566929134,
                    "duration": 0.16467225000002372
                },
                {
                    "name": "F4",
                    "midi": 65,
                    "time": 309.36426700000015,
                    "velocity": 0.2677165354330709,
                    "duration": 0.16467225000002372
                },
                {
                    "name": "E3",
                    "midi": 52,
                    "time": 309.5838300000002,
                    "velocity": 0.33070866141732286,
                    "duration": 0.21956299999999374
                },
                {
                    "name": "G4",
                    "midi": 67,
                    "time": 309.8033930000002,
                    "velocity": 0.25984251968503935,
                    "duration": 0.21956299999999374
                },
                {
                    "name": "A#3",
                    "midi": 58,
                    "time": 309.8033930000002,
                    "velocity": 0.2204724409448819,
                    "duration": 0.21956299999999374
                },
                {
                    "name": "C4",
                    "midi": 60,
                    "time": 309.8033930000002,
                    "velocity": 0.2204724409448819,
                    "duration": 0.21956299999999374
                },
                {
                    "name": "A#3",
                    "midi": 58,
                    "time": 310.0229560000002,
                    "velocity": 0.1968503937007874,
                    "duration": 0.21956299999999374
                },
                {
                    "name": "G4",
                    "midi": 67,
                    "time": 310.0229560000002,
                    "velocity": 0.2204724409448819,
                    "duration": 0.21956299999999374
                },
                {
                    "name": "C#4",
                    "midi": 61,
                    "time": 310.0229560000002,
                    "velocity": 0.1968503937007874,
                    "duration": 0.21956299999999374
                },
                {
                    "name": "G4",
                    "midi": 67,
                    "time": 310.2425190000002,
                    "velocity": 0.23622047244094488,
                    "duration": 0.16467225000002372
                },
                {
                    "name": "A#3",
                    "midi": 58,
                    "time": 310.2425190000002,
                    "velocity": 0.2047244094488189,
                    "duration": 0.16467225000002372
                },
                {
                    "name": "A#3",
                    "midi": 58,
                    "time": 310.46208200000024,
                    "velocity": 0.1968503937007874,
                    "duration": 0.16467225000002372
                },
                {
                    "name": "C4",
                    "midi": 60,
                    "time": 310.46208200000024,
                    "velocity": 0.1968503937007874,
                    "duration": 0.16467225000002372
                },
                {
                    "name": "G4",
                    "midi": 67,
                    "time": 310.46208200000024,
                    "velocity": 0.2204724409448819,
                    "duration": 0.16467225000002372
                },
                {
                    "name": "A#3",
                    "midi": 58,
                    "time": 310.6816450000003,
                    "velocity": 0.1968503937007874,
                    "duration": 0.16467225000002372
                },
                {
                    "name": "G4",
                    "midi": 67,
                    "time": 310.6816450000003,
                    "velocity": 0.2204724409448819,
                    "duration": 0.16467225000002372
                },
                {
                    "name": "C#4",
                    "midi": 61,
                    "time": 310.6816450000003,
                    "velocity": 0.1968503937007874,
                    "duration": 0.16467225000002372
                },
                {
                    "name": "F3",
                    "midi": 53,
                    "time": 310.90120800000034,
                    "velocity": 0.3228346456692913,
                    "duration": 0.21956299999999374
                },
                {
                    "name": "C#4",
                    "midi": 61,
                    "time": 311.12077100000033,
                    "velocity": 0.23622047244094488,
                    "duration": 0.21956299999999374
                },
                {
                    "name": "A#3",
                    "midi": 58,
                    "time": 311.12077100000033,
                    "velocity": 0.1889763779527559,
                    "duration": 0.21956299999999374
                },
                {
                    "name": "C#4",
                    "midi": 61,
                    "time": 311.3403340000003,
                    "velocity": 0.2204724409448819,
                    "duration": 0.21956299999999374
                },
                {
                    "name": "A#3",
                    "midi": 58,
                    "time": 311.3403340000003,
                    "velocity": 0.1732283464566929,
                    "duration": 0.21956299999999374
                },
                {
                    "name": "F3",
                    "midi": 53,
                    "time": 311.5598970000003,
                    "velocity": 0.2204724409448819,
                    "duration": 0.16467225000002372
                },
                {
                    "name": "C4",
                    "midi": 60,
                    "time": 311.77946000000037,
                    "velocity": 0.1889763779527559,
                    "duration": 0.16467225000002372
                },
                {
                    "name": "A3",
                    "midi": 57,
                    "time": 311.77946000000037,
                    "velocity": 0.1889763779527559,
                    "duration": 0.16467225000002372
                },
                {
                    "name": "A3",
                    "midi": 57,
                    "time": 311.9990230000004,
                    "velocity": 0.1889763779527559,
                    "duration": 0.16467225000002372
                },
                {
                    "name": "C4",
                    "midi": 60,
                    "time": 311.9990230000004,
                    "velocity": 0.1889763779527559,
                    "duration": 0.16467225000002372
                },
                {
                    "name": "A#2",
                    "midi": 46,
                    "time": 312.21858600000047,
                    "velocity": 0.2440944881889764,
                    "duration": 0.21956299999999374
                },
                {
                    "name": "F3",
                    "midi": 53,
                    "time": 312.43814900000046,
                    "velocity": 0.18110236220472442,
                    "duration": 0.21956299999999374
                },
                {
                    "name": "C#3",
                    "midi": 49,
                    "time": 312.43814900000046,
                    "velocity": 0.14173228346456693,
                    "duration": 0.21956299999999374
                },
                {
                    "name": "C3",
                    "midi": 48,
                    "time": 312.65771200000046,
                    "velocity": 0.1732283464566929,
                    "duration": 0.21956299999999374
                },
                {
                    "name": "D#3",
                    "midi": 51,
                    "time": 312.65771200000046,
                    "velocity": 0.2047244094488189,
                    "duration": 0.21956299999999374
                },
                {
                    "name": "C#3",
                    "midi": 49,
                    "time": 312.87727500000045,
                    "velocity": 0.2440944881889764,
                    "duration": 0.3293444999999906
                },
                {
                    "name": "A#2",
                    "midi": 46,
                    "time": 312.87727500000045,
                    "velocity": 0.2204724409448819,
                    "duration": 0.3293444999999906
                },
                {
                    "name": "C#2",
                    "midi": 37,
                    "time": 313.53596400000043,
                    "velocity": 0.3937007874015748,
                    "duration": 0.10978149999999687
                },
                {
                    "name": "G#3",
                    "midi": 56,
                    "time": 313.7555270000004,
                    "velocity": 0.31496062992125984,
                    "duration": 0.19760669999999436
                },
                {
                    "name": "F3",
                    "midi": 53,
                    "time": 313.7555270000004,
                    "velocity": 0.2755905511811024,
                    "duration": 0.19760669999999436
                },
                {
                    "name": "C#3",
                    "midi": 49,
                    "time": 313.7555270000004,
                    "velocity": 0.2755905511811024,
                    "duration": 0.19760669999999436
                },
                {
                    "name": "G#3",
                    "midi": 56,
                    "time": 313.9750900000004,
                    "velocity": 0.31496062992125984,
                    "duration": 0.19760669999999436
                },
                {
                    "name": "F3",
                    "midi": 53,
                    "time": 313.9750900000004,
                    "velocity": 0.2755905511811024,
                    "duration": 0.19760669999999436
                },
                {
                    "name": "C#3",
                    "midi": 49,
                    "time": 313.9750900000004,
                    "velocity": 0.2755905511811024,
                    "duration": 0.19760669999999436
                },
                {
                    "name": "C#3",
                    "midi": 49,
                    "time": 314.1946530000004,
                    "velocity": 0.2755905511811024,
                    "duration": 0.19760669999999436
                },
                {
                    "name": "A3",
                    "midi": 57,
                    "time": 314.1946530000004,
                    "velocity": 0.3937007874015748,
                    "duration": 0.19760669999999436
                },
                {
                    "name": "F3",
                    "midi": 53,
                    "time": 314.1946530000004,
                    "velocity": 0.2755905511811024,
                    "duration": 0.19760669999999436
                },
                {
                    "name": "C#3",
                    "midi": 49,
                    "time": 314.4142160000004,
                    "velocity": 0.2755905511811024,
                    "duration": 0.19760669999999436
                },
                {
                    "name": "A3",
                    "midi": 57,
                    "time": 314.4142160000004,
                    "velocity": 0.31496062992125984,
                    "duration": 0.19760669999999436
                },
                {
                    "name": "F3",
                    "midi": 53,
                    "time": 314.4142160000004,
                    "velocity": 0.2755905511811024,
                    "duration": 0.19760669999999436
                },
                {
                    "name": "F3",
                    "midi": 53,
                    "time": 314.6337790000004,
                    "velocity": 0.2755905511811024,
                    "duration": 0.19760669999999436
                },
                {
                    "name": "A3",
                    "midi": 57,
                    "time": 314.6337790000004,
                    "velocity": 0.31496062992125984,
                    "duration": 0.19760669999999436
                },
                {
                    "name": "C#3",
                    "midi": 49,
                    "time": 314.6337790000004,
                    "velocity": 0.2755905511811024,
                    "duration": 0.19760669999999436
                },
                {
                    "name": "F#2",
                    "midi": 42,
                    "time": 314.8533420000004,
                    "velocity": 0.3937007874015748,
                    "duration": 0.10978149999999687
                },
                {
                    "name": "F#3",
                    "midi": 54,
                    "time": 315.0729050000004,
                    "velocity": 0.2677165354330709,
                    "duration": 0.19760669999999436
                },
                {
                    "name": "A#3",
                    "midi": 58,
                    "time": 315.0729050000004,
                    "velocity": 0.30708661417322836,
                    "duration": 0.19760669999999436
                },
                {
                    "name": "C#3",
                    "midi": 49,
                    "time": 315.0729050000004,
                    "velocity": 0.2755905511811024,
                    "duration": 0.19760669999999436
                },
                {
                    "name": "F#3",
                    "midi": 54,
                    "time": 315.2924680000004,
                    "velocity": 0.2755905511811024,
                    "duration": 0.19760669999999436
                },
                {
                    "name": "A#3",
                    "midi": 58,
                    "time": 315.2924680000004,
                    "velocity": 0.31496062992125984,
                    "duration": 0.19486216249998733
                },
                {
                    "name": "C#3",
                    "midi": 49,
                    "time": 315.2924680000004,
                    "velocity": 0.2755905511811024,
                    "duration": 0.19760669999999436
                },
                {
                    "name": "D2",
                    "midi": 38,
                    "time": 315.5120310000004,
                    "velocity": 0.3464566929133858,
                    "duration": 0.10978149999999687
                },
                {
                    "name": "G#3",
                    "midi": 56,
                    "time": 315.73159400000037,
                    "velocity": 0.29133858267716534,
                    "duration": 0.19760669999999436
                },
                {
                    "name": "F3",
                    "midi": 53,
                    "time": 315.73159400000037,
                    "velocity": 0.29133858267716534,
                    "duration": 0.19760669999999436
                },
                {
                    "name": "A#3",
                    "midi": 58,
                    "time": 315.73159400000037,
                    "velocity": 0.33858267716535434,
                    "duration": 0.19760669999999436
                },
                {
                    "name": "D3",
                    "midi": 50,
                    "time": 315.73159400000037,
                    "velocity": 0.29133858267716534,
                    "duration": 0.19760669999999436
                },
                {
                    "name": "D3",
                    "midi": 50,
                    "time": 315.95115700000036,
                    "velocity": 0.31496062992125984,
                    "duration": 0.19760669999999436
                },
                {
                    "name": "G#3",
                    "midi": 56,
                    "time": 315.95115700000036,
                    "velocity": 0.31496062992125984,
                    "duration": 0.19760669999999436
                },
                {
                    "name": "F3",
                    "midi": 53,
                    "time": 315.95115700000036,
                    "velocity": 0.31496062992125984,
                    "duration": 0.19760669999999436
                },
                {
                    "name": "A#3",
                    "midi": 58,
                    "time": 315.95115700000036,
                    "velocity": 0.36220472440944884,
                    "duration": 0.19760669999999436
                },
                {
                    "name": "D#2",
                    "midi": 39,
                    "time": 316.17072000000036,
                    "velocity": 0.4881889763779528,
                    "duration": 0.10978149999999687
                },
                {
                    "name": "D#3",
                    "midi": 51,
                    "time": 316.39028300000035,
                    "velocity": 0.33858267716535434,
                    "duration": 0.21956299999999374
                },
                {
                    "name": "A#3",
                    "midi": 58,
                    "time": 316.39028300000035,
                    "velocity": 0.3937007874015748,
                    "duration": 0.21956299999999374
                },
                {
                    "name": "F#3",
                    "midi": 54,
                    "time": 316.39028300000035,
                    "velocity": 0.33858267716535434,
                    "duration": 0.21956299999999374
                },
                {
                    "name": "F#3",
                    "midi": 54,
                    "time": 316.60984600000035,
                    "velocity": 0.33858267716535434,
                    "duration": 0.21956299999999374
                },
                {
                    "name": "B3",
                    "midi": 59,
                    "time": 316.60984600000035,
                    "velocity": 0.3937007874015748,
                    "duration": 0.21956299999999374
                },
                {
                    "name": "D#3",
                    "midi": 51,
                    "time": 316.60984600000035,
                    "velocity": 0.33858267716535434,
                    "duration": 0.21956299999999374
                },
                {
                    "name": "E2",
                    "midi": 40,
                    "time": 316.82940900000034,
                    "velocity": 0.4330708661417323,
                    "duration": 0.10978149999999687
                },
                {
                    "name": "A#3",
                    "midi": 58,
                    "time": 317.04897200000033,
                    "velocity": 0.3779527559055118,
                    "duration": 0.21956299999999374
                },
                {
                    "name": "E3",
                    "midi": 52,
                    "time": 317.04897200000033,
                    "velocity": 0.3779527559055118,
                    "duration": 0.21956299999999374
                },
                {
                    "name": "F#3",
                    "midi": 54,
                    "time": 317.04897200000033,
                    "velocity": 0.3779527559055118,
                    "duration": 0.21956299999999374
                },
                {
                    "name": "C4",
                    "midi": 60,
                    "time": 317.04897200000033,
                    "velocity": 0.47244094488188976,
                    "duration": 0.21956299999999374
                },
                {
                    "name": "F#3",
                    "midi": 54,
                    "time": 317.2685350000003,
                    "velocity": 0.4094488188976378,
                    "duration": 0.21956299999999374
                },
                {
                    "name": "A#3",
                    "midi": 58,
                    "time": 317.2685350000003,
                    "velocity": 0.4094488188976378,
                    "duration": 0.21956299999999374
                },
                {
                    "name": "C#4",
                    "midi": 61,
                    "time": 317.2685350000003,
                    "velocity": 0.4881889763779528,
                    "duration": 0.21956299999999374
                },
                {
                    "name": "E3",
                    "midi": 52,
                    "time": 317.2685350000003,
                    "velocity": 0.4094488188976378,
                    "duration": 0.21956299999999374
                },
                {
                    "name": "F2",
                    "midi": 41,
                    "time": 317.4880980000003,
                    "velocity": 0.6141732283464567,
                    "duration": 0.10978149999999687
                },
                {
                    "name": "C#4",
                    "midi": 61,
                    "time": 317.7076610000003,
                    "velocity": 0.44881889763779526,
                    "duration": 0.19760669999999436
                },
                {
                    "name": "A#3",
                    "midi": 58,
                    "time": 317.7076610000003,
                    "velocity": 0.36220472440944884,
                    "duration": 0.19760669999999436
                },
                {
                    "name": "F3",
                    "midi": 53,
                    "time": 317.7076610000003,
                    "velocity": 0.36220472440944884,
                    "duration": 0.19760669999999436
                },
                {
                    "name": "F3",
                    "midi": 53,
                    "time": 317.9272240000003,
                    "velocity": 0.33858267716535434,
                    "duration": 0.19760669999999436
                },
                {
                    "name": "C#4",
                    "midi": 61,
                    "time": 317.9272240000003,
                    "velocity": 0.41732283464566927,
                    "duration": 0.19760669999999436
                },
                {
                    "name": "A#3",
                    "midi": 58,
                    "time": 317.9272240000003,
                    "velocity": 0.33858267716535434,
                    "duration": 0.19760669999999436
                },
                {
                    "name": "A3",
                    "midi": 57,
                    "time": 318.1467870000003,
                    "velocity": 0.3464566929133858,
                    "duration": 0.19760669999999436
                },
                {
                    "name": "F3",
                    "midi": 53,
                    "time": 318.1467870000003,
                    "velocity": 0.3464566929133858,
                    "duration": 0.19760669999999436
                },
                {
                    "name": "C4",
                    "midi": 60,
                    "time": 318.1467870000003,
                    "velocity": 0.4094488188976378,
                    "duration": 0.19760669999999436
                },
                {
                    "name": "C4",
                    "midi": 60,
                    "time": 318.3663500000003,
                    "velocity": 0.30708661417322836,
                    "duration": 0.19760669999999436
                },
                {
                    "name": "A3",
                    "midi": 57,
                    "time": 318.3663500000003,
                    "velocity": 0.2677165354330709,
                    "duration": 0.19760669999999436
                },
                {
                    "name": "F3",
                    "midi": 53,
                    "time": 318.3663500000003,
                    "velocity": 0.2677165354330709,
                    "duration": 0.19760669999999436
                },
                {
                    "name": "F3",
                    "midi": 53,
                    "time": 318.5859130000003,
                    "velocity": 0.2204724409448819,
                    "duration": 0.19760669999999436
                },
                {
                    "name": "C4",
                    "midi": 60,
                    "time": 318.5859130000003,
                    "velocity": 0.25984251968503935,
                    "duration": 0.19486216249998733
                },
                {
                    "name": "A3",
                    "midi": 57,
                    "time": 318.5859130000003,
                    "velocity": 0.2204724409448819,
                    "duration": 0.19760669999999436
                },
                {
                    "name": "A2",
                    "midi": 45,
                    "time": 318.8054760000003,
                    "velocity": 0.4094488188976378,
                    "duration": 0.21956299999999374
                },
                {
                    "name": "C4",
                    "midi": 60,
                    "time": 319.0250390000003,
                    "velocity": 0.23622047244094488,
                    "duration": 0.21956299999999374
                },
                {
                    "name": "F3",
                    "midi": 53,
                    "time": 319.0250390000003,
                    "velocity": 0.1968503937007874,
                    "duration": 0.21956299999999374
                },
                {
                    "name": "A3",
                    "midi": 57,
                    "time": 319.0250390000003,
                    "velocity": 0.1968503937007874,
                    "duration": 0.21956299999999374
                },
                {
                    "name": "C4",
                    "midi": 60,
                    "time": 319.24460200000027,
                    "velocity": 0.23622047244094488,
                    "duration": 0.21956299999999374
                },
                {
                    "name": "A3",
                    "midi": 57,
                    "time": 319.24460200000027,
                    "velocity": 0.1968503937007874,
                    "duration": 0.21956299999999374
                },
                {
                    "name": "E3",
                    "midi": 52,
                    "time": 319.24460200000027,
                    "velocity": 0.1968503937007874,
                    "duration": 0.21956299999999374
                },
                {
                    "name": "F3",
                    "midi": 53,
                    "time": 319.46416500000026,
                    "velocity": 0.1968503937007874,
                    "duration": 0.21956299999999374
                },
                {
                    "name": "C4",
                    "midi": 60,
                    "time": 319.46416500000026,
                    "velocity": 0.23622047244094488,
                    "duration": 0.21956299999999374
                },
                {
                    "name": "A3",
                    "midi": 57,
                    "time": 319.46416500000026,
                    "velocity": 0.1968503937007874,
                    "duration": 0.21956299999999374
                },
                {
                    "name": "A3",
                    "midi": 57,
                    "time": 319.68372800000026,
                    "velocity": 0.1968503937007874,
                    "duration": 0.21956299999999374
                },
                {
                    "name": "F3",
                    "midi": 53,
                    "time": 319.68372800000026,
                    "velocity": 0.1968503937007874,
                    "duration": 0.21956299999999374
                },
                {
                    "name": "D4",
                    "midi": 62,
                    "time": 319.68372800000026,
                    "velocity": 0.23622047244094488,
                    "duration": 0.21956299999999374
                },
                {
                    "name": "A3",
                    "midi": 57,
                    "time": 319.90329100000025,
                    "velocity": 0.1968503937007874,
                    "duration": 0.21956299999999374
                },
                {
                    "name": "F3",
                    "midi": 53,
                    "time": 319.90329100000025,
                    "velocity": 0.1968503937007874,
                    "duration": 0.21956299999999374
                },
                {
                    "name": "C4",
                    "midi": 60,
                    "time": 319.90329100000025,
                    "velocity": 0.23622047244094488,
                    "duration": 0.21956299999999374
                },
                {
                    "name": "A#2",
                    "midi": 46,
                    "time": 320.12285400000025,
                    "velocity": 0.3464566929133858,
                    "duration": 0.21956299999999374
                },
                {
                    "name": "A3",
                    "midi": 57,
                    "time": 320.34241700000024,
                    "velocity": 0.1968503937007874,
                    "duration": 0.21956299999999374
                },
                {
                    "name": "D#4",
                    "midi": 63,
                    "time": 320.34241700000024,
                    "velocity": 0.23622047244094488,
                    "duration": 0.21956299999999374
                },
                {
                    "name": "F#3",
                    "midi": 54,
                    "time": 320.34241700000024,
                    "velocity": 0.1968503937007874,
                    "duration": 0.21956299999999374
                },
                {
                    "name": "D4",
                    "midi": 62,
                    "time": 320.56198000000023,
                    "velocity": 0.23622047244094488,
                    "duration": 0.21956299999999374
                },
                {
                    "name": "A3",
                    "midi": 57,
                    "time": 320.56198000000023,
                    "velocity": 0.1968503937007874,
                    "duration": 0.21956299999999374
                },
                {
                    "name": "F#3",
                    "midi": 54,
                    "time": 320.56198000000023,
                    "velocity": 0.1968503937007874,
                    "duration": 0.21956299999999374
                },
                {
                    "name": "A#3",
                    "midi": 58,
                    "time": 320.7815430000002,
                    "velocity": 0.1968503937007874,
                    "duration": 0.21956299999999374
                },
                {
                    "name": "D4",
                    "midi": 62,
                    "time": 320.7815430000002,
                    "velocity": 0.23622047244094488,
                    "duration": 0.21956299999999374
                },
                {
                    "name": "G3",
                    "midi": 55,
                    "time": 320.7815430000002,
                    "velocity": 0.1968503937007874,
                    "duration": 0.21956299999999374
                },
                {
                    "name": "D4",
                    "midi": 62,
                    "time": 321.0011060000002,
                    "velocity": 0.23622047244094488,
                    "duration": 0.21956299999999374
                },
                {
                    "name": "C4",
                    "midi": 60,
                    "time": 321.0011060000002,
                    "velocity": 0.1968503937007874,
                    "duration": 0.21956299999999374
                },
                {
                    "name": "A3",
                    "midi": 57,
                    "time": 321.0011060000002,
                    "velocity": 0.1968503937007874,
                    "duration": 0.21956299999999374
                },
                {
                    "name": "D4",
                    "midi": 62,
                    "time": 321.2206690000002,
                    "velocity": 0.23622047244094488,
                    "duration": 0.21956299999999374
                },
                {
                    "name": "A#3",
                    "midi": 58,
                    "time": 321.2206690000002,
                    "velocity": 0.1968503937007874,
                    "duration": 0.21956299999999374
                },
                {
                    "name": "C3",
                    "midi": 48,
                    "time": 321.4402320000002,
                    "velocity": 0.31496062992125984,
                    "duration": 0.21956299999999374
                },
                {
                    "name": "A3",
                    "midi": 57,
                    "time": 321.6597950000002,
                    "velocity": 0.2204724409448819,
                    "duration": 0.19760669999999436
                },
                {
                    "name": "C4",
                    "midi": 60,
                    "time": 321.6597950000002,
                    "velocity": 0.25984251968503935,
                    "duration": 0.19760669999999436
                },
                {
                    "name": "A3",
                    "midi": 57,
                    "time": 321.8793580000002,
                    "velocity": 0.2125984251968504,
                    "duration": 0.19760669999999436
                },
                {
                    "name": "C4",
                    "midi": 60,
                    "time": 321.8793580000002,
                    "velocity": 0.25196850393700787,
                    "duration": 0.19760669999999436
                },
                {
                    "name": "C3",
                    "midi": 48,
                    "time": 322.0989210000002,
                    "velocity": 0.30708661417322836,
                    "duration": 0.21956299999999374
                },
                {
                    "name": "C4",
                    "midi": 60,
                    "time": 322.3184840000002,
                    "velocity": 0.25196850393700787,
                    "duration": 0.19760669999999436
                },
                {
                    "name": "A#3",
                    "midi": 58,
                    "time": 322.3184840000002,
                    "velocity": 0.2125984251968504,
                    "duration": 0.19760669999999436
                },
                {
                    "name": "G3",
                    "midi": 55,
                    "time": 322.3184840000002,
                    "velocity": 0.2125984251968504,
                    "duration": 0.19760669999999436
                },
                {
                    "name": "C4",
                    "midi": 60,
                    "time": 322.5380470000002,
                    "velocity": 0.25196850393700787,
                    "duration": 0.19760669999999436
                },
                {
                    "name": "A#3",
                    "midi": 58,
                    "time": 322.5380470000002,
                    "velocity": 0.2125984251968504,
                    "duration": 0.19760669999999436
                },
                {
                    "name": "G3",
                    "midi": 55,
                    "time": 322.5380470000002,
                    "velocity": 0.2125984251968504,
                    "duration": 0.19760669999999436
                },
                {
                    "name": "F2",
                    "midi": 41,
                    "time": 322.75761000000017,
                    "velocity": 0.31496062992125984,
                    "duration": 0.21956299999999374
                },
                {
                    "name": "F3",
                    "midi": 53,
                    "time": 322.97717300000016,
                    "velocity": 0.2125984251968504,
                    "duration": 0.21956299999999374
                },
                {
                    "name": "A3",
                    "midi": 57,
                    "time": 322.97717300000016,
                    "velocity": 0.2125984251968504,
                    "duration": 0.21956299999999374
                },
                {
                    "name": "C4",
                    "midi": 60,
                    "time": 322.97717300000016,
                    "velocity": 0.25196850393700787,
                    "duration": 0.21956299999999374
                },
                {
                    "name": "F3",
                    "midi": 53,
                    "time": 323.19673600000016,
                    "velocity": 0.25196850393700787,
                    "duration": 0.16467225000002372
                },
                {
                    "name": "D#3",
                    "midi": 51,
                    "time": 323.4162990000002,
                    "velocity": 0.31496062992125984,
                    "duration": 0.21956300000005058
                },
                {
                    "name": "F3",
                    "midi": 53,
                    "time": 323.4162990000002,
                    "velocity": 0.2677165354330709,
                    "duration": 0.16467225000002372
                },
                {
                    "name": "F3",
                    "midi": 53,
                    "time": 323.63586200000026,
                    "velocity": 0.29133858267716534,
                    "duration": 0.16467225000002372
                },
                {
                    "name": "C#3",
                    "midi": 49,
                    "time": 323.63586200000026,
                    "velocity": 0.3464566929133858,
                    "duration": 0.21956300000005058
                },
                {
                    "name": "F3",
                    "midi": 53,
                    "time": 323.8554250000003,
                    "velocity": 0.31496062992125984,
                    "duration": 0.16467225000002372
                },
                {
                    "name": "C3",
                    "midi": 48,
                    "time": 323.8554250000003,
                    "velocity": 0.3779527559055118,
                    "duration": 0.21956300000005058
                },
                {
                    "name": "F#2",
                    "midi": 42,
                    "time": 324.07498800000036,
                    "velocity": 0.3937007874015748,
                    "duration": 0.10978149999999687
                },
                {
                    "name": "F#1",
                    "midi": 30,
                    "time": 324.07498800000036,
                    "velocity": 0.33070866141732286,
                    "duration": 0.10978149999999687
                },
                {
                    "name": "F#2",
                    "midi": 42,
                    "time": 324.29455100000035,
                    "velocity": 0.29133858267716534,
                    "duration": 0.21956299999999374
                },
                {
                    "name": "C#3",
                    "midi": 49,
                    "time": 324.29455100000035,
                    "velocity": 0.3464566929133858,
                    "duration": 0.21956299999999374
                },
                {
                    "name": "A#2",
                    "midi": 46,
                    "time": 324.29455100000035,
                    "velocity": 0.29133858267716534,
                    "duration": 0.21956299999999374
                },
                {
                    "name": "F#2",
                    "midi": 42,
                    "time": 324.51411400000035,
                    "velocity": 0.29133858267716534,
                    "duration": 0.21956299999999374
                },
                {
                    "name": "C3",
                    "midi": 48,
                    "time": 324.51411400000035,
                    "velocity": 0.3464566929133858,
                    "duration": 0.21956299999999374
                },
                {
                    "name": "A#2",
                    "midi": 46,
                    "time": 324.51411400000035,
                    "velocity": 0.29133858267716534,
                    "duration": 0.21956299999999374
                },
                {
                    "name": "F#2",
                    "midi": 42,
                    "time": 324.73367700000034,
                    "velocity": 0.33858267716535434,
                    "duration": 0.21956299999999374
                },
                {
                    "name": "C#3",
                    "midi": 49,
                    "time": 324.73367700000034,
                    "velocity": 0.4015748031496063,
                    "duration": 0.21956299999999374
                },
                {
                    "name": "A#2",
                    "midi": 46,
                    "time": 324.73367700000034,
                    "velocity": 0.33858267716535434,
                    "duration": 0.21956299999999374
                },
                {
                    "name": "F#2",
                    "midi": 42,
                    "time": 324.95324000000033,
                    "velocity": 0.2992125984251969,
                    "duration": 0.21956299999999374
                },
                {
                    "name": "A#2",
                    "midi": 46,
                    "time": 324.95324000000033,
                    "velocity": 0.2992125984251969,
                    "duration": 0.21956299999999374
                },
                {
                    "name": "D#3",
                    "midi": 51,
                    "time": 324.95324000000033,
                    "velocity": 0.3543307086614173,
                    "duration": 0.21956299999999374
                },
                {
                    "name": "C#3",
                    "midi": 49,
                    "time": 325.17280300000033,
                    "velocity": 0.3543307086614173,
                    "duration": 0.21956299999999374
                },
                {
                    "name": "A#2",
                    "midi": 46,
                    "time": 325.17280300000033,
                    "velocity": 0.2992125984251969,
                    "duration": 0.21956299999999374
                },
                {
                    "name": "F#2",
                    "midi": 42,
                    "time": 325.17280300000033,
                    "velocity": 0.2992125984251969,
                    "duration": 0.21956299999999374
                },
                {
                    "name": "F1",
                    "midi": 29,
                    "time": 325.3923660000003,
                    "velocity": 0.33858267716535434,
                    "duration": 0.10978149999999687
                },
                {
                    "name": "F2",
                    "midi": 41,
                    "time": 325.3923660000003,
                    "velocity": 0.4015748031496063,
                    "duration": 0.10978149999999687
                },
                {
                    "name": "A#2",
                    "midi": 46,
                    "time": 325.6119290000003,
                    "velocity": 0.28346456692913385,
                    "duration": 0.21956299999999374
                },
                {
                    "name": "C#3",
                    "midi": 49,
                    "time": 325.6119290000003,
                    "velocity": 0.33858267716535434,
                    "duration": 0.21956299999999374
                },
                {
                    "name": "F2",
                    "midi": 41,
                    "time": 325.6119290000003,
                    "velocity": 0.28346456692913385,
                    "duration": 0.21956299999999374
                },
                {
                    "name": "F2",
                    "midi": 41,
                    "time": 325.8314920000003,
                    "velocity": 0.28346456692913385,
                    "duration": 0.21956299999999374
                },
                {
                    "name": "C3",
                    "midi": 48,
                    "time": 325.8314920000003,
                    "velocity": 0.33858267716535434,
                    "duration": 0.21956299999999374
                },
                {
                    "name": "A#2",
                    "midi": 46,
                    "time": 325.8314920000003,
                    "velocity": 0.28346456692913385,
                    "duration": 0.21956299999999374
                },
                {
                    "name": "F2",
                    "midi": 41,
                    "time": 326.0510550000003,
                    "velocity": 0.33858267716535434,
                    "duration": 0.21956299999999374
                },
                {
                    "name": "A#2",
                    "midi": 46,
                    "time": 326.0510550000003,
                    "velocity": 0.33858267716535434,
                    "duration": 0.21956299999999374
                },
                {
                    "name": "C#3",
                    "midi": 49,
                    "time": 326.0510550000003,
                    "velocity": 0.4015748031496063,
                    "duration": 0.21956299999999374
                },
                {
                    "name": "F2",
                    "midi": 41,
                    "time": 326.2706180000003,
                    "velocity": 0.30708661417322836,
                    "duration": 0.21956299999999374
                },
                {
                    "name": "D#3",
                    "midi": 51,
                    "time": 326.2706180000003,
                    "velocity": 0.36220472440944884,
                    "duration": 0.21956299999999374
                },
                {
                    "name": "A#2",
                    "midi": 46,
                    "time": 326.2706180000003,
                    "velocity": 0.30708661417322836,
                    "duration": 0.21956299999999374
                },
                {
                    "name": "C#3",
                    "midi": 49,
                    "time": 326.4901810000003,
                    "velocity": 0.36220472440944884,
                    "duration": 0.21956299999999374
                },
                {
                    "name": "F2",
                    "midi": 41,
                    "time": 326.4901810000003,
                    "velocity": 0.30708661417322836,
                    "duration": 0.21956299999999374
                },
                {
                    "name": "A#2",
                    "midi": 46,
                    "time": 326.4901810000003,
                    "velocity": 0.30708661417322836,
                    "duration": 0.21956299999999374
                },
                {
                    "name": "D2",
                    "midi": 38,
                    "time": 326.7097440000003,
                    "velocity": 0.4015748031496063,
                    "duration": 0.10978149999999687
                },
                {
                    "name": "D3",
                    "midi": 50,
                    "time": 326.9293070000003,
                    "velocity": 0.2677165354330709,
                    "duration": 0.21956299999999374
                },
                {
                    "name": "G#3",
                    "midi": 56,
                    "time": 326.9293070000003,
                    "velocity": 0.3228346456692913,
                    "duration": 0.21956299999999374
                },
                {
                    "name": "F3",
                    "midi": 53,
                    "time": 326.9293070000003,
                    "velocity": 0.2677165354330709,
                    "duration": 0.21956299999999374
                },
                {
                    "name": "D3",
                    "midi": 50,
                    "time": 327.1488700000003,
                    "velocity": 0.2755905511811024,
                    "duration": 0.21956299999999374
                },
                {
                    "name": "A3",
                    "midi": 57,
                    "time": 327.1488700000003,
                    "velocity": 0.3228346456692913,
                    "duration": 0.21956299999999374
                },
                {
                    "name": "F3",
                    "midi": 53,
                    "time": 327.1488700000003,
                    "velocity": 0.2755905511811024,
                    "duration": 0.21956299999999374
                },
                {
                    "name": "A#3",
                    "midi": 58,
                    "time": 327.36843300000027,
                    "velocity": 0.3700787401574803,
                    "duration": 0.21956299999999374
                },
                {
                    "name": "D3",
                    "midi": 50,
                    "time": 327.36843300000027,
                    "velocity": 0.31496062992125984,
                    "duration": 0.21956299999999374
                },
                {
                    "name": "F3",
                    "midi": 53,
                    "time": 327.36843300000027,
                    "velocity": 0.31496062992125984,
                    "duration": 0.21956299999999374
                },
                {
                    "name": "D3",
                    "midi": 50,
                    "time": 327.58799600000026,
                    "velocity": 0.3464566929133858,
                    "duration": 0.21956299999999374
                },
                {
                    "name": "F3",
                    "midi": 53,
                    "time": 327.58799600000026,
                    "velocity": 0.3464566929133858,
                    "duration": 0.21956299999999374
                },
                {
                    "name": "G#3",
                    "midi": 56,
                    "time": 327.58799600000026,
                    "velocity": 0.4094488188976378,
                    "duration": 0.21956299999999374
                },
                {
                    "name": "G#3",
                    "midi": 56,
                    "time": 327.80755900000025,
                    "velocity": 0.3779527559055118,
                    "duration": 0.21956299999999374
                },
                {
                    "name": "D3",
                    "midi": 50,
                    "time": 327.80755900000025,
                    "velocity": 0.3779527559055118,
                    "duration": 0.21956299999999374
                },
                {
                    "name": "F3",
                    "midi": 53,
                    "time": 327.80755900000025,
                    "velocity": 0.3779527559055118,
                    "duration": 0.21956299999999374
                },
                {
                    "name": "B3",
                    "midi": 59,
                    "time": 327.80755900000025,
                    "velocity": 0.44881889763779526,
                    "duration": 0.21956299999999374
                },
                {
                    "name": "D#2",
                    "midi": 39,
                    "time": 328.02712200000025,
                    "velocity": 0.4881889763779528,
                    "duration": 0.10978149999999687
                },
                {
                    "name": "D#3",
                    "midi": 51,
                    "time": 328.24668500000024,
                    "velocity": 0.2677165354330709,
                    "duration": 0.21956299999999374
                },
                {
                    "name": "A#3",
                    "midi": 58,
                    "time": 328.24668500000024,
                    "velocity": 0.3228346456692913,
                    "duration": 0.21956299999999374
                },
                {
                    "name": "F#3",
                    "midi": 54,
                    "time": 328.24668500000024,
                    "velocity": 0.2677165354330709,
                    "duration": 0.21956299999999374
                },
                {
                    "name": "D#3",
                    "midi": 51,
                    "time": 328.46624800000023,
                    "velocity": 0.2677165354330709,
                    "duration": 0.21956299999999374
                },
                {
                    "name": "F#3",
                    "midi": 54,
                    "time": 328.46624800000023,
                    "velocity": 0.2677165354330709,
                    "duration": 0.21956299999999374
                },
                {
                    "name": "A3",
                    "midi": 57,
                    "time": 328.46624800000023,
                    "velocity": 0.3228346456692913,
                    "duration": 0.21956299999999374
                },
                {
                    "name": "D#3",
                    "midi": 51,
                    "time": 328.68581100000023,
                    "velocity": 0.3228346456692913,
                    "duration": 0.21956299999999374
                },
                {
                    "name": "F#3",
                    "midi": 54,
                    "time": 328.68581100000023,
                    "velocity": 0.3228346456692913,
                    "duration": 0.21956299999999374
                },
                {
                    "name": "A#3",
                    "midi": 58,
                    "time": 328.68581100000023,
                    "velocity": 0.3858267716535433,
                    "duration": 0.21956299999999374
                },
                {
                    "name": "F#3",
                    "midi": 54,
                    "time": 328.9053740000002,
                    "velocity": 0.2677165354330709,
                    "duration": 0.21956299999999374
                },
                {
                    "name": "D#3",
                    "midi": 51,
                    "time": 328.9053740000002,
                    "velocity": 0.2677165354330709,
                    "duration": 0.21956299999999374
                },
                {
                    "name": "B3",
                    "midi": 59,
                    "time": 328.9053740000002,
                    "velocity": 0.31496062992125984,
                    "duration": 0.21956299999999374
                },
                {
                    "name": "F#3",
                    "midi": 54,
                    "time": 329.1249370000002,
                    "velocity": 0.2677165354330709,
                    "duration": 0.21956299999999374
                },
                {
                    "name": "A#3",
                    "midi": 58,
                    "time": 329.1249370000002,
                    "velocity": 0.31496062992125984,
                    "duration": 0.21956299999999374
                },
                {
                    "name": "D#3",
                    "midi": 51,
                    "time": 329.1249370000002,
                    "velocity": 0.2677165354330709,
                    "duration": 0.21956299999999374
                },
                {
                    "name": "A#2",
                    "midi": 46,
                    "time": 329.3445000000002,
                    "velocity": 0.31496062992125984,
                    "duration": 0.21956299999999374
                },
                {
                    "name": "F#3",
                    "midi": 54,
                    "time": 329.5640630000002,
                    "velocity": 0.18110236220472442,
                    "duration": 0.19760669999999436
                },
                {
                    "name": "A#3",
                    "midi": 58,
                    "time": 329.5640630000002,
                    "velocity": 0.25984251968503935,
                    "duration": 0.19760669999999436
                },
                {
                    "name": "F#3",
                    "midi": 54,
                    "time": 329.7836260000002,
                    "velocity": 0.18110236220472442,
                    "duration": 0.19760669999999436
                },
                {
                    "name": "A#3",
                    "midi": 58,
                    "time": 329.7836260000002,
                    "velocity": 0.25984251968503935,
                    "duration": 0.19760669999999436
                },
                {
                    "name": "A#3",
                    "midi": 58,
                    "time": 330.0031890000002,
                    "velocity": 0.31496062992125984,
                    "duration": 0.19760669999999436
                },
                {
                    "name": "F#3",
                    "midi": 54,
                    "time": 330.0031890000002,
                    "velocity": 0.2204724409448819,
                    "duration": 0.19760669999999436
                },
                {
                    "name": "A#3",
                    "midi": 58,
                    "time": 330.2227520000002,
                    "velocity": 0.25984251968503935,
                    "duration": 0.19760669999999436
                },
                {
                    "name": "F#3",
                    "midi": 54,
                    "time": 330.2227520000002,
                    "velocity": 0.18110236220472442,
                    "duration": 0.19760669999999436
                },
                {
                    "name": "C4",
                    "midi": 60,
                    "time": 330.4423150000002,
                    "velocity": 0.25984251968503935,
                    "duration": 0.21956299999999374
                },
                {
                    "name": "A#3",
                    "midi": 58,
                    "time": 330.4423150000002,
                    "velocity": 0.18110236220472442,
                    "duration": 0.21956299999999374
                },
                {
                    "name": "F#3",
                    "midi": 54,
                    "time": 330.4423150000002,
                    "velocity": 0.18110236220472442,
                    "duration": 0.21956299999999374
                },
                {
                    "name": "F2",
                    "midi": 41,
                    "time": 330.6618780000002,
                    "velocity": 0.31496062992125984,
                    "duration": 0.21956299999999374
                },
                {
                    "name": "A#3",
                    "midi": 58,
                    "time": 330.88144100000017,
                    "velocity": 0.1732283464566929,
                    "duration": 0.19760669999999436
                },
                {
                    "name": "C#4",
                    "midi": 61,
                    "time": 330.88144100000017,
                    "velocity": 0.2440944881889764,
                    "duration": 0.19760669999999436
                },
                {
                    "name": "F3",
                    "midi": 53,
                    "time": 330.88144100000017,
                    "velocity": 0.1732283464566929,
                    "duration": 0.19760669999999436
                },
                {
                    "name": "C#4",
                    "midi": 61,
                    "time": 331.10100400000016,
                    "velocity": 0.25984251968503935,
                    "duration": 0.19760669999999436
                },
                {
                    "name": "A#3",
                    "midi": 58,
                    "time": 331.10100400000016,
                    "velocity": 0.18110236220472442,
                    "duration": 0.19760669999999436
                },
                {
                    "name": "F3",
                    "midi": 53,
                    "time": 331.10100400000016,
                    "velocity": 0.18110236220472442,
                    "duration": 0.19760669999999436
                },
                {
                    "name": "C#4",
                    "midi": 61,
                    "time": 331.32056700000015,
                    "velocity": 0.2755905511811024,
                    "duration": 0.19760669999999436
                },
                {
                    "name": "A#3",
                    "midi": 58,
                    "time": 331.32056700000015,
                    "velocity": 0.1889763779527559,
                    "duration": 0.19760669999999436
                },
                {
                    "name": "F3",
                    "midi": 53,
                    "time": 331.32056700000015,
                    "velocity": 0.1889763779527559,
                    "duration": 0.19760669999999436
                },
                {
                    "name": "A#3",
                    "midi": 58,
                    "time": 331.54013000000015,
                    "velocity": 0.18110236220472442,
                    "duration": 0.19760669999999436
                },
                {
                    "name": "E3",
                    "midi": 52,
                    "time": 331.54013000000015,
                    "velocity": 0.1889763779527559,
                    "duration": 0.19760669999999436
                },
                {
                    "name": "C#4",
                    "midi": 61,
                    "time": 331.54013000000015,
                    "velocity": 0.25984251968503935,
                    "duration": 0.19760669999999436
                },
                {
                    "name": "F3",
                    "midi": 53,
                    "time": 331.75969300000014,
                    "velocity": 0.1889763779527559,
                    "duration": 0.19760669999999436
                },
                {
                    "name": "A#3",
                    "midi": 58,
                    "time": 331.75969300000014,
                    "velocity": 0.18110236220472442,
                    "duration": 0.19760669999999436
                },
                {
                    "name": "C#4",
                    "midi": 61,
                    "time": 331.75969300000014,
                    "velocity": 0.25984251968503935,
                    "duration": 0.19760669999999436
                },
                {
                    "name": "E2",
                    "midi": 40,
                    "time": 331.97925600000013,
                    "velocity": 0.3543307086614173,
                    "duration": 0.21956299999999374
                },
                {
                    "name": "A#3",
                    "midi": 58,
                    "time": 332.1988190000001,
                    "velocity": 0.25984251968503935,
                    "duration": 0.19760669999999436
                },
                {
                    "name": "C#4",
                    "midi": 61,
                    "time": 332.1988190000001,
                    "velocity": 0.2992125984251969,
                    "duration": 0.19760669999999436
                },
                {
                    "name": "F#3",
                    "midi": 54,
                    "time": 332.1988190000001,
                    "velocity": 0.25984251968503935,
                    "duration": 0.19760669999999436
                },
                {
                    "name": "E3",
                    "midi": 52,
                    "time": 332.1988190000001,
                    "velocity": 0.25984251968503935,
                    "duration": 0.19760669999999436
                },
                {
                    "name": "A#3",
                    "midi": 58,
                    "time": 332.4183820000001,
                    "velocity": 0.2283464566929134,
                    "duration": 0.19760669999999436
                },
                {
                    "name": "F#3",
                    "midi": 54,
                    "time": 332.4183820000001,
                    "velocity": 0.2283464566929134,
                    "duration": 0.19760669999999436
                },
                {
                    "name": "C4",
                    "midi": 60,
                    "time": 332.4183820000001,
                    "velocity": 0.2755905511811024,
                    "duration": 0.19760669999999436
                },
                {
                    "name": "E3",
                    "midi": 52,
                    "time": 332.4183820000001,
                    "velocity": 0.2283464566929134,
                    "duration": 0.19760669999999436
                },
                {
                    "name": "F2",
                    "midi": 41,
                    "time": 332.6379450000001,
                    "velocity": 0.30708661417322836,
                    "duration": 0.21956299999999374
                },
                {
                    "name": "A3",
                    "midi": 57,
                    "time": 332.8575080000001,
                    "velocity": 0.2204724409448819,
                    "duration": 0.21956299999999374
                },
                {
                    "name": "F3",
                    "midi": 53,
                    "time": 332.8575080000001,
                    "velocity": 0.2204724409448819,
                    "duration": 0.21956299999999374
                },
                {
                    "name": "C4",
                    "midi": 60,
                    "time": 332.8575080000001,
                    "velocity": 0.2204724409448819,
                    "duration": 0.21956299999999374
                },
                {
                    "name": "F#4",
                    "midi": 66,
                    "time": 332.8575080000001,
                    "velocity": 0.25984251968503935,
                    "duration": 0.21956299999999374
                },
                {
                    "name": "F3",
                    "midi": 53,
                    "time": 333.0770710000001,
                    "velocity": 0.2204724409448819,
                    "duration": 0.21956299999999374
                },
                {
                    "name": "C4",
                    "midi": 60,
                    "time": 333.0770710000001,
                    "velocity": 0.2204724409448819,
                    "duration": 0.21956299999999374
                },
                {
                    "name": "D#4",
                    "midi": 63,
                    "time": 333.0770710000001,
                    "velocity": 0.2204724409448819,
                    "duration": 0.21956299999999374
                },
                {
                    "name": "F4",
                    "midi": 65,
                    "time": 333.0770710000001,
                    "velocity": 0.25984251968503935,
                    "duration": 0.21956299999999374
                },
                {
                    "name": "A#2",
                    "midi": 46,
                    "time": 333.2966340000001,
                    "velocity": 0.33070866141732286,
                    "duration": 0.21956299999999374
                },
                {
                    "name": "F3",
                    "midi": 53,
                    "time": 333.5161970000001,
                    "velocity": 0.2204724409448819,
                    "duration": 0.19760669999999436
                },
                {
                    "name": "F4",
                    "midi": 65,
                    "time": 333.5161970000001,
                    "velocity": 0.25984251968503935,
                    "duration": 0.19760669999999436
                },
                {
                    "name": "C#4",
                    "midi": 61,
                    "time": 333.5161970000001,
                    "velocity": 0.2204724409448819,
                    "duration": 0.19760669999999436
                },
                {
                    "name": "F3",
                    "midi": 53,
                    "time": 333.7357600000001,
                    "velocity": 0.2204724409448819,
                    "duration": 0.19760669999999436
                },
                {
                    "name": "D#4",
                    "midi": 63,
                    "time": 333.7357600000001,
                    "velocity": 0.25984251968503935,
                    "duration": 0.19760669999999436
                },
                {
                    "name": "C4",
                    "midi": 60,
                    "time": 333.7357600000001,
                    "velocity": 0.2204724409448819,
                    "duration": 0.19760669999999436
                },
                {
                    "name": "C#4",
                    "midi": 61,
                    "time": 333.9553230000001,
                    "velocity": 0.31496062992125984,
                    "duration": 0.3265999624999836
                },
                {
                    "name": "F3",
                    "midi": 53,
                    "time": 333.9553230000001,
                    "velocity": 0.2677165354330709,
                    "duration": 0.3293444999999906
                },
                {
                    "name": "A#3",
                    "midi": 58,
                    "time": 333.9553230000001,
                    "velocity": 0.2677165354330709,
                    "duration": 0.3293444999999906
                },
                {
                    "name": "C#2",
                    "midi": 37,
                    "time": 334.61401200000006,
                    "velocity": 0.3937007874015748,
                    "duration": 0.10978149999999687
                },
                {
                    "name": "F3",
                    "midi": 53,
                    "time": 334.83357500000005,
                    "velocity": 0.2755905511811024,
                    "duration": 0.19760669999999436
                },
                {
                    "name": "C#3",
                    "midi": 49,
                    "time": 334.83357500000005,
                    "velocity": 0.2755905511811024,
                    "duration": 0.19760669999999436
                },
                {
                    "name": "G#3",
                    "midi": 56,
                    "time": 334.83357500000005,
                    "velocity": 0.31496062992125984,
                    "duration": 0.19760669999999436
                },
                {
                    "name": "C#3",
                    "midi": 49,
                    "time": 335.05313800000005,
                    "velocity": 0.2755905511811024,
                    "duration": 0.19760669999999436
                },
                {
                    "name": "G#3",
                    "midi": 56,
                    "time": 335.05313800000005,
                    "velocity": 0.31496062992125984,
                    "duration": 0.19760669999999436
                },
                {
                    "name": "F3",
                    "midi": 53,
                    "time": 335.05313800000005,
                    "velocity": 0.2755905511811024,
                    "duration": 0.19760669999999436
                },
                {
                    "name": "C#3",
                    "midi": 49,
                    "time": 335.27270100000004,
                    "velocity": 0.2755905511811024,
                    "duration": 0.19760669999999436
                },
                {
                    "name": "F3",
                    "midi": 53,
                    "time": 335.27270100000004,
                    "velocity": 0.2755905511811024,
                    "duration": 0.19760669999999436
                },
                {
                    "name": "A3",
                    "midi": 57,
                    "time": 335.27270100000004,
                    "velocity": 0.3937007874015748,
                    "duration": 0.19760669999999436
                },
                {
                    "name": "F3",
                    "midi": 53,
                    "time": 335.49226400000003,
                    "velocity": 0.2755905511811024,
                    "duration": 0.19760669999999436
                },
                {
                    "name": "C#3",
                    "midi": 49,
                    "time": 335.49226400000003,
                    "velocity": 0.2755905511811024,
                    "duration": 0.19760669999999436
                },
                {
                    "name": "A3",
                    "midi": 57,
                    "time": 335.49226400000003,
                    "velocity": 0.31496062992125984,
                    "duration": 0.19760669999999436
                },
                {
                    "name": "A3",
                    "midi": 57,
                    "time": 335.711827,
                    "velocity": 0.31496062992125984,
                    "duration": 0.19760669999999436
                },
                {
                    "name": "C#3",
                    "midi": 49,
                    "time": 335.711827,
                    "velocity": 0.2755905511811024,
                    "duration": 0.19760669999999436
                },
                {
                    "name": "F3",
                    "midi": 53,
                    "time": 335.711827,
                    "velocity": 0.2755905511811024,
                    "duration": 0.19760669999999436
                },
                {
                    "name": "F#2",
                    "midi": 42,
                    "time": 335.93139,
                    "velocity": 0.3937007874015748,
                    "duration": 0.10978149999999687
                },
                {
                    "name": "C#3",
                    "midi": 49,
                    "time": 336.150953,
                    "velocity": 0.2755905511811024,
                    "duration": 0.19760669999999436
                },
                {
                    "name": "F#3",
                    "midi": 54,
                    "time": 336.150953,
                    "velocity": 0.2677165354330709,
                    "duration": 0.19760669999999436
                },
                {
                    "name": "A#3",
                    "midi": 58,
                    "time": 336.150953,
                    "velocity": 0.30708661417322836,
                    "duration": 0.19760669999999436
                },
                {
                    "name": "C#3",
                    "midi": 49,
                    "time": 336.370516,
                    "velocity": 0.2755905511811024,
                    "duration": 0.19760669999999436
                },
                {
                    "name": "A#3",
                    "midi": 58,
                    "time": 336.370516,
                    "velocity": 0.31496062992125984,
                    "duration": 0.19486216249998733
                },
                {
                    "name": "F#3",
                    "midi": 54,
                    "time": 336.370516,
                    "velocity": 0.2755905511811024,
                    "duration": 0.19760669999999436
                },
                {
                    "name": "D2",
                    "midi": 38,
                    "time": 336.590079,
                    "velocity": 0.3464566929133858,
                    "duration": 0.10978149999999687
                },
                {
                    "name": "D3",
                    "midi": 50,
                    "time": 336.809642,
                    "velocity": 0.29133858267716534,
                    "duration": 0.19760669999999436
                },
                {
                    "name": "F3",
                    "midi": 53,
                    "time": 336.809642,
                    "velocity": 0.29133858267716534,
                    "duration": 0.19760669999999436
                },
                {
                    "name": "A#3",
                    "midi": 58,
                    "time": 336.809642,
                    "velocity": 0.33858267716535434,
                    "duration": 0.19760669999999436
                },
                {
                    "name": "G#3",
                    "midi": 56,
                    "time": 336.809642,
                    "velocity": 0.29133858267716534,
                    "duration": 0.19760669999999436
                },
                {
                    "name": "F3",
                    "midi": 53,
                    "time": 337.029205,
                    "velocity": 0.31496062992125984,
                    "duration": 0.19760669999999436
                },
                {
                    "name": "G#3",
                    "midi": 56,
                    "time": 337.029205,
                    "velocity": 0.31496062992125984,
                    "duration": 0.19760669999999436
                },
                {
                    "name": "D3",
                    "midi": 50,
                    "time": 337.029205,
                    "velocity": 0.31496062992125984,
                    "duration": 0.19760669999999436
                },
                {
                    "name": "A#3",
                    "midi": 58,
                    "time": 337.029205,
                    "velocity": 0.36220472440944884,
                    "duration": 0.19760669999999436
                },
                {
                    "name": "D#2",
                    "midi": 39,
                    "time": 337.248768,
                    "velocity": 0.4881889763779528,
                    "duration": 0.10978149999999687
                },
                {
                    "name": "A#3",
                    "midi": 58,
                    "time": 337.468331,
                    "velocity": 0.3937007874015748,
                    "duration": 0.21956299999999374
                },
                {
                    "name": "F#3",
                    "midi": 54,
                    "time": 337.468331,
                    "velocity": 0.33858267716535434,
                    "duration": 0.21956299999999374
                },
                {
                    "name": "D#3",
                    "midi": 51,
                    "time": 337.468331,
                    "velocity": 0.33858267716535434,
                    "duration": 0.21956299999999374
                },
                {
                    "name": "D#3",
                    "midi": 51,
                    "time": 337.687894,
                    "velocity": 0.33858267716535434,
                    "duration": 0.21956299999999374
                },
                {
                    "name": "F#3",
                    "midi": 54,
                    "time": 337.687894,
                    "velocity": 0.33858267716535434,
                    "duration": 0.21956299999999374
                },
                {
                    "name": "B3",
                    "midi": 59,
                    "time": 337.687894,
                    "velocity": 0.3937007874015748,
                    "duration": 0.21956299999999374
                },
                {
                    "name": "E2",
                    "midi": 40,
                    "time": 337.90745699999997,
                    "velocity": 0.4330708661417323,
                    "duration": 0.10978149999999687
                },
                {
                    "name": "A#3",
                    "midi": 58,
                    "time": 338.12701999999996,
                    "velocity": 0.3779527559055118,
                    "duration": 0.21956299999999374
                },
                {
                    "name": "C4",
                    "midi": 60,
                    "time": 338.12701999999996,
                    "velocity": 0.47244094488188976,
                    "duration": 0.21956299999999374
                },
                {
                    "name": "E3",
                    "midi": 52,
                    "time": 338.12701999999996,
                    "velocity": 0.3779527559055118,
                    "duration": 0.21956299999999374
                },
                {
                    "name": "F#3",
                    "midi": 54,
                    "time": 338.12701999999996,
                    "velocity": 0.3779527559055118,
                    "duration": 0.21956299999999374
                },
                {
                    "name": "C#4",
                    "midi": 61,
                    "time": 338.34658299999995,
                    "velocity": 0.4881889763779528,
                    "duration": 0.21956299999999374
                },
                {
                    "name": "E3",
                    "midi": 52,
                    "time": 338.34658299999995,
                    "velocity": 0.4094488188976378,
                    "duration": 0.21956299999999374
                },
                {
                    "name": "F#3",
                    "midi": 54,
                    "time": 338.34658299999995,
                    "velocity": 0.4094488188976378,
                    "duration": 0.21956299999999374
                },
                {
                    "name": "A#3",
                    "midi": 58,
                    "time": 338.34658299999995,
                    "velocity": 0.4094488188976378,
                    "duration": 0.21956299999999374
                },
                {
                    "name": "F2",
                    "midi": 41,
                    "time": 338.56614599999995,
                    "velocity": 0.6141732283464567,
                    "duration": 0.10978149999999687
                },
                {
                    "name": "C#4",
                    "midi": 61,
                    "time": 338.78570899999994,
                    "velocity": 0.44881889763779526,
                    "duration": 0.19760669999999436
                },
                {
                    "name": "F3",
                    "midi": 53,
                    "time": 338.78570899999994,
                    "velocity": 0.36220472440944884,
                    "duration": 0.19760669999999436
                },
                {
                    "name": "A#3",
                    "midi": 58,
                    "time": 338.78570899999994,
                    "velocity": 0.36220472440944884,
                    "duration": 0.19760669999999436
                },
                {
                    "name": "F3",
                    "midi": 53,
                    "time": 339.00527199999993,
                    "velocity": 0.33858267716535434,
                    "duration": 0.19760669999999436
                },
                {
                    "name": "C#4",
                    "midi": 61,
                    "time": 339.00527199999993,
                    "velocity": 0.41732283464566927,
                    "duration": 0.19760669999999436
                },
                {
                    "name": "A#3",
                    "midi": 58,
                    "time": 339.00527199999993,
                    "velocity": 0.33858267716535434,
                    "duration": 0.19760669999999436
                },
                {
                    "name": "A3",
                    "midi": 57,
                    "time": 339.2248349999999,
                    "velocity": 0.3464566929133858,
                    "duration": 0.19760669999999436
                },
                {
                    "name": "F3",
                    "midi": 53,
                    "time": 339.2248349999999,
                    "velocity": 0.3464566929133858,
                    "duration": 0.19760669999999436
                },
                {
                    "name": "C4",
                    "midi": 60,
                    "time": 339.2248349999999,
                    "velocity": 0.4094488188976378,
                    "duration": 0.19760669999999436
                },
                {
                    "name": "A3",
                    "midi": 57,
                    "time": 339.4443979999999,
                    "velocity": 0.2677165354330709,
                    "duration": 0.19760669999999436
                },
                {
                    "name": "C4",
                    "midi": 60,
                    "time": 339.4443979999999,
                    "velocity": 0.30708661417322836,
                    "duration": 0.19760669999999436
                },
                {
                    "name": "F3",
                    "midi": 53,
                    "time": 339.4443979999999,
                    "velocity": 0.2677165354330709,
                    "duration": 0.19760669999999436
                },
                {
                    "name": "F3",
                    "midi": 53,
                    "time": 339.6639609999999,
                    "velocity": 0.2204724409448819,
                    "duration": 0.19760669999999436
                },
                {
                    "name": "C4",
                    "midi": 60,
                    "time": 339.6639609999999,
                    "velocity": 0.25984251968503935,
                    "duration": 0.19486216249998733
                },
                {
                    "name": "A3",
                    "midi": 57,
                    "time": 339.6639609999999,
                    "velocity": 0.2204724409448819,
                    "duration": 0.19760669999999436
                },
                {
                    "name": "A2",
                    "midi": 45,
                    "time": 339.8835239999999,
                    "velocity": 0.4094488188976378,
                    "duration": 0.21956299999999374
                },
                {
                    "name": "F3",
                    "midi": 53,
                    "time": 340.1030869999999,
                    "velocity": 0.1968503937007874,
                    "duration": 0.19760669999999436
                },
                {
                    "name": "A3",
                    "midi": 57,
                    "time": 340.1030869999999,
                    "velocity": 0.1968503937007874,
                    "duration": 0.19760669999999436
                },
                {
                    "name": "C4",
                    "midi": 60,
                    "time": 340.1030869999999,
                    "velocity": 0.23622047244094488,
                    "duration": 0.19760669999999436
                },
                {
                    "name": "E3",
                    "midi": 52,
                    "time": 340.3226499999999,
                    "velocity": 0.1968503937007874,
                    "duration": 0.19760669999999436
                },
                {
                    "name": "A3",
                    "midi": 57,
                    "time": 340.3226499999999,
                    "velocity": 0.1968503937007874,
                    "duration": 0.19760669999999436
                },
                {
                    "name": "C4",
                    "midi": 60,
                    "time": 340.3226499999999,
                    "velocity": 0.23622047244094488,
                    "duration": 0.19760669999999436
                },
                {
                    "name": "C4",
                    "midi": 60,
                    "time": 340.5422129999999,
                    "velocity": 0.23622047244094488,
                    "duration": 0.19760669999999436
                },
                {
                    "name": "A3",
                    "midi": 57,
                    "time": 340.5422129999999,
                    "velocity": 0.1968503937007874,
                    "duration": 0.19760669999999436
                },
                {
                    "name": "F3",
                    "midi": 53,
                    "time": 340.5422129999999,
                    "velocity": 0.1968503937007874,
                    "duration": 0.19760669999999436
                },
                {
                    "name": "F3",
                    "midi": 53,
                    "time": 340.7617759999999,
                    "velocity": 0.1968503937007874,
                    "duration": 0.19760669999999436
                },
                {
                    "name": "A3",
                    "midi": 57,
                    "time": 340.7617759999999,
                    "velocity": 0.1968503937007874,
                    "duration": 0.19760669999999436
                },
                {
                    "name": "D4",
                    "midi": 62,
                    "time": 340.7617759999999,
                    "velocity": 0.23622047244094488,
                    "duration": 0.19760669999999436
                },
                {
                    "name": "A3",
                    "midi": 57,
                    "time": 340.9813389999999,
                    "velocity": 0.1968503937007874,
                    "duration": 0.19760669999999436
                },
                {
                    "name": "C4",
                    "midi": 60,
                    "time": 340.9813389999999,
                    "velocity": 0.23622047244094488,
                    "duration": 0.19760669999999436
                },
                {
                    "name": "F3",
                    "midi": 53,
                    "time": 340.9813389999999,
                    "velocity": 0.1968503937007874,
                    "duration": 0.19760669999999436
                },
                {
                    "name": "A#2",
                    "midi": 46,
                    "time": 341.20090199999987,
                    "velocity": 0.3464566929133858,
                    "duration": 0.21956299999999374
                },
                {
                    "name": "F#3",
                    "midi": 54,
                    "time": 341.42046499999987,
                    "velocity": 0.1968503937007874,
                    "duration": 0.19760669999999436
                },
                {
                    "name": "D#4",
                    "midi": 63,
                    "time": 341.42046499999987,
                    "velocity": 0.23622047244094488,
                    "duration": 0.19760669999999436
                },
                {
                    "name": "A3",
                    "midi": 57,
                    "time": 341.42046499999987,
                    "velocity": 0.1968503937007874,
                    "duration": 0.19760669999999436
                },
                {
                    "name": "D4",
                    "midi": 62,
                    "time": 341.64002799999986,
                    "velocity": 0.23622047244094488,
                    "duration": 0.19760669999999436
                },
                {
                    "name": "F#3",
                    "midi": 54,
                    "time": 341.64002799999986,
                    "velocity": 0.1968503937007874,
                    "duration": 0.19760669999999436
                },
                {
                    "name": "A3",
                    "midi": 57,
                    "time": 341.64002799999986,
                    "velocity": 0.1968503937007874,
                    "duration": 0.19760669999999436
                },
                {
                    "name": "A#3",
                    "midi": 58,
                    "time": 341.85959099999985,
                    "velocity": 0.1968503937007874,
                    "duration": 0.19760669999999436
                },
                {
                    "name": "G3",
                    "midi": 55,
                    "time": 341.85959099999985,
                    "velocity": 0.1968503937007874,
                    "duration": 0.19760669999999436
                },
                {
                    "name": "D4",
                    "midi": 62,
                    "time": 341.85959099999985,
                    "velocity": 0.23622047244094488,
                    "duration": 0.19760669999999436
                },
                {
                    "name": "C4",
                    "midi": 60,
                    "time": 342.07915399999985,
                    "velocity": 0.1968503937007874,
                    "duration": 0.19760669999999436
                },
                {
                    "name": "D4",
                    "midi": 62,
                    "time": 342.07915399999985,
                    "velocity": 0.23622047244094488,
                    "duration": 0.19760669999999436
                },
                {
                    "name": "A3",
                    "midi": 57,
                    "time": 342.07915399999985,
                    "velocity": 0.1968503937007874,
                    "duration": 0.19760669999999436
                },
                {
                    "name": "A#3",
                    "midi": 58,
                    "time": 342.29871699999984,
                    "velocity": 0.1968503937007874,
                    "duration": 0.19760669999999436
                },
                {
                    "name": "D4",
                    "midi": 62,
                    "time": 342.29871699999984,
                    "velocity": 0.23622047244094488,
                    "duration": 0.19760669999999436
                },
                {
                    "name": "C3",
                    "midi": 48,
                    "time": 342.51827999999983,
                    "velocity": 0.31496062992125984,
                    "duration": 0.21956299999999374
                },
                {
                    "name": "A3",
                    "midi": 57,
                    "time": 342.7378429999998,
                    "velocity": 0.2204724409448819,
                    "duration": 0.19760669999999436
                },
                {
                    "name": "C4",
                    "midi": 60,
                    "time": 342.7378429999998,
                    "velocity": 0.25984251968503935,
                    "duration": 0.19760669999999436
                },
                {
                    "name": "A3",
                    "midi": 57,
                    "time": 342.9574059999998,
                    "velocity": 0.2125984251968504,
                    "duration": 0.19760669999999436
                },
                {
                    "name": "C4",
                    "midi": 60,
                    "time": 342.9574059999998,
                    "velocity": 0.25196850393700787,
                    "duration": 0.19760669999999436
                },
                {
                    "name": "C3",
                    "midi": 48,
                    "time": 343.1769689999998,
                    "velocity": 0.30708661417322836,
                    "duration": 0.21956299999999374
                },
                {
                    "name": "C4",
                    "midi": 60,
                    "time": 343.3965319999998,
                    "velocity": 0.25196850393700787,
                    "duration": 0.19760669999999436
                },
                {
                    "name": "G3",
                    "midi": 55,
                    "time": 343.3965319999998,
                    "velocity": 0.2125984251968504,
                    "duration": 0.19760669999999436
                },
                {
                    "name": "A#3",
                    "midi": 58,
                    "time": 343.3965319999998,
                    "velocity": 0.2125984251968504,
                    "duration": 0.19760669999999436
                },
                {
                    "name": "C4",
                    "midi": 60,
                    "time": 343.6160949999998,
                    "velocity": 0.25196850393700787,
                    "duration": 0.19760669999999436
                },
                {
                    "name": "A#3",
                    "midi": 58,
                    "time": 343.6160949999998,
                    "velocity": 0.2125984251968504,
                    "duration": 0.19760669999999436
                },
                {
                    "name": "G3",
                    "midi": 55,
                    "time": 343.6160949999998,
                    "velocity": 0.2125984251968504,
                    "duration": 0.19760669999999436
                },
                {
                    "name": "F2",
                    "midi": 41,
                    "time": 343.8356579999998,
                    "velocity": 0.31496062992125984,
                    "duration": 0.21956299999999374
                },
                {
                    "name": "F3",
                    "midi": 53,
                    "time": 344.0552209999998,
                    "velocity": 0.2125984251968504,
                    "duration": 0.21956299999999374
                },
                {
                    "name": "A3",
                    "midi": 57,
                    "time": 344.0552209999998,
                    "velocity": 0.2125984251968504,
                    "duration": 0.21956299999999374
                },
                {
                    "name": "C4",
                    "midi": 60,
                    "time": 344.0552209999998,
                    "velocity": 0.25196850393700787,
                    "duration": 0.21956299999999374
                },
                {
                    "name": "F3",
                    "midi": 53,
                    "time": 344.2747839999998,
                    "velocity": 0.25196850393700787,
                    "duration": 0.21956299999999374
                },
                {
                    "name": "D#3",
                    "midi": 51,
                    "time": 344.4943469999998,
                    "velocity": 0.31496062992125984,
                    "duration": 0.21956300000005058
                },
                {
                    "name": "F3",
                    "midi": 53,
                    "time": 344.4943469999998,
                    "velocity": 0.2677165354330709,
                    "duration": 0.16467225000002372
                },
                {
                    "name": "F3",
                    "midi": 53,
                    "time": 344.7139099999998,
                    "velocity": 0.29133858267716534,
                    "duration": 0.16467225000002372
                },
                {
                    "name": "C#3",
                    "midi": 49,
                    "time": 344.7139099999998,
                    "velocity": 0.3464566929133858,
                    "duration": 0.21956300000005058
                },
                {
                    "name": "C3",
                    "midi": 48,
                    "time": 344.9334729999999,
                    "velocity": 0.3779527559055118,
                    "duration": 0.21956300000005058
                },
                {
                    "name": "F3",
                    "midi": 53,
                    "time": 344.9334729999999,
                    "velocity": 0.31496062992125984,
                    "duration": 0.16467225000002372
                },
                {
                    "name": "F#1",
                    "midi": 30,
                    "time": 345.15303599999993,
                    "velocity": 0.33070866141732286,
                    "duration": 0.10978149999999687
                },
                {
                    "name": "F#2",
                    "midi": 42,
                    "time": 345.15303599999993,
                    "velocity": 0.3937007874015748,
                    "duration": 0.10978149999999687
                },
                {
                    "name": "C#3",
                    "midi": 49,
                    "time": 345.3725989999999,
                    "velocity": 0.3464566929133858,
                    "duration": 0.19760669999999436
                },
                {
                    "name": "A#2",
                    "midi": 46,
                    "time": 345.3725989999999,
                    "velocity": 0.29133858267716534,
                    "duration": 0.19760669999999436
                },
                {
                    "name": "F#2",
                    "midi": 42,
                    "time": 345.3725989999999,
                    "velocity": 0.29133858267716534,
                    "duration": 0.19760669999999436
                },
                {
                    "name": "C3",
                    "midi": 48,
                    "time": 345.5921619999999,
                    "velocity": 0.3464566929133858,
                    "duration": 0.19760669999999436
                },
                {
                    "name": "F#2",
                    "midi": 42,
                    "time": 345.5921619999999,
                    "velocity": 0.29133858267716534,
                    "duration": 0.19760669999999436
                },
                {
                    "name": "A#2",
                    "midi": 46,
                    "time": 345.5921619999999,
                    "velocity": 0.29133858267716534,
                    "duration": 0.19760669999999436
                },
                {
                    "name": "C#3",
                    "midi": 49,
                    "time": 345.8117249999999,
                    "velocity": 0.4015748031496063,
                    "duration": 0.19760669999999436
                },
                {
                    "name": "A#2",
                    "midi": 46,
                    "time": 345.8117249999999,
                    "velocity": 0.33858267716535434,
                    "duration": 0.19760669999999436
                },
                {
                    "name": "F#2",
                    "midi": 42,
                    "time": 345.8117249999999,
                    "velocity": 0.33858267716535434,
                    "duration": 0.19760669999999436
                },
                {
                    "name": "D#3",
                    "midi": 51,
                    "time": 346.0312879999999,
                    "velocity": 0.3543307086614173,
                    "duration": 0.19760669999999436
                },
                {
                    "name": "F#2",
                    "midi": 42,
                    "time": 346.0312879999999,
                    "velocity": 0.2992125984251969,
                    "duration": 0.19760669999999436
                },
                {
                    "name": "A#2",
                    "midi": 46,
                    "time": 346.0312879999999,
                    "velocity": 0.2992125984251969,
                    "duration": 0.19760669999999436
                },
                {
                    "name": "F#2",
                    "midi": 42,
                    "time": 346.2508509999999,
                    "velocity": 0.2992125984251969,
                    "duration": 0.19760669999999436
                },
                {
                    "name": "C#3",
                    "midi": 49,
                    "time": 346.2508509999999,
                    "velocity": 0.3543307086614173,
                    "duration": 0.19760669999999436
                },
                {
                    "name": "A#2",
                    "midi": 46,
                    "time": 346.2508509999999,
                    "velocity": 0.2992125984251969,
                    "duration": 0.19760669999999436
                },
                {
                    "name": "F2",
                    "midi": 41,
                    "time": 346.4704139999999,
                    "velocity": 0.4015748031496063,
                    "duration": 0.10978149999999687
                },
                {
                    "name": "F1",
                    "midi": 29,
                    "time": 346.4704139999999,
                    "velocity": 0.33858267716535434,
                    "duration": 0.10978149999999687
                },
                {
                    "name": "F2",
                    "midi": 41,
                    "time": 346.6899769999999,
                    "velocity": 0.28346456692913385,
                    "duration": 0.19760669999999436
                },
                {
                    "name": "A#2",
                    "midi": 46,
                    "time": 346.6899769999999,
                    "velocity": 0.28346456692913385,
                    "duration": 0.19760669999999436
                },
                {
                    "name": "C#3",
                    "midi": 49,
                    "time": 346.6899769999999,
                    "velocity": 0.33858267716535434,
                    "duration": 0.19760669999999436
                },
                {
                    "name": "F2",
                    "midi": 41,
                    "time": 346.9095399999999,
                    "velocity": 0.28346456692913385,
                    "duration": 0.19760669999999436
                },
                {
                    "name": "A#2",
                    "midi": 46,
                    "time": 346.9095399999999,
                    "velocity": 0.28346456692913385,
                    "duration": 0.19760669999999436
                },
                {
                    "name": "C3",
                    "midi": 48,
                    "time": 346.9095399999999,
                    "velocity": 0.33858267716535434,
                    "duration": 0.19760669999999436
                },
                {
                    "name": "C#3",
                    "midi": 49,
                    "time": 347.1291029999999,
                    "velocity": 0.4015748031496063,
                    "duration": 0.19760669999999436
                },
                {
                    "name": "A#2",
                    "midi": 46,
                    "time": 347.1291029999999,
                    "velocity": 0.33858267716535434,
                    "duration": 0.19760669999999436
                },
                {
                    "name": "F2",
                    "midi": 41,
                    "time": 347.1291029999999,
                    "velocity": 0.33858267716535434,
                    "duration": 0.19760669999999436
                },
                {
                    "name": "D#3",
                    "midi": 51,
                    "time": 347.34866599999987,
                    "velocity": 0.36220472440944884,
                    "duration": 0.19760669999999436
                },
                {
                    "name": "F2",
                    "midi": 41,
                    "time": 347.34866599999987,
                    "velocity": 0.30708661417322836,
                    "duration": 0.19760669999999436
                },
                {
                    "name": "A#2",
                    "midi": 46,
                    "time": 347.34866599999987,
                    "velocity": 0.30708661417322836,
                    "duration": 0.19760669999999436
                },
                {
                    "name": "F2",
                    "midi": 41,
                    "time": 347.56822899999986,
                    "velocity": 0.30708661417322836,
                    "duration": 0.19760669999999436
                },
                {
                    "name": "A#2",
                    "midi": 46,
                    "time": 347.56822899999986,
                    "velocity": 0.30708661417322836,
                    "duration": 0.19760669999999436
                },
                {
                    "name": "C#3",
                    "midi": 49,
                    "time": 347.56822899999986,
                    "velocity": 0.36220472440944884,
                    "duration": 0.19760669999999436
                },
                {
                    "name": "D2",
                    "midi": 38,
                    "time": 347.78779199999985,
                    "velocity": 0.4015748031496063,
                    "duration": 0.10978149999999687
                },
                {
                    "name": "F3",
                    "midi": 53,
                    "time": 348.00735499999985,
                    "velocity": 0.2677165354330709,
                    "duration": 0.19760669999999436
                },
                {
                    "name": "D3",
                    "midi": 50,
                    "time": 348.00735499999985,
                    "velocity": 0.2677165354330709,
                    "duration": 0.19760669999999436
                },
                {
                    "name": "G#3",
                    "midi": 56,
                    "time": 348.00735499999985,
                    "velocity": 0.3228346456692913,
                    "duration": 0.19760669999999436
                },
                {
                    "name": "F3",
                    "midi": 53,
                    "time": 348.22691799999984,
                    "velocity": 0.2755905511811024,
                    "duration": 0.19760669999999436
                },
                {
                    "name": "A3",
                    "midi": 57,
                    "time": 348.22691799999984,
                    "velocity": 0.3228346456692913,
                    "duration": 0.19760669999999436
                },
                {
                    "name": "D3",
                    "midi": 50,
                    "time": 348.22691799999984,
                    "velocity": 0.2755905511811024,
                    "duration": 0.19760669999999436
                },
                {
                    "name": "F3",
                    "midi": 53,
                    "time": 348.44648099999984,
                    "velocity": 0.31496062992125984,
                    "duration": 0.19760669999999436
                },
                {
                    "name": "D3",
                    "midi": 50,
                    "time": 348.44648099999984,
                    "velocity": 0.31496062992125984,
                    "duration": 0.19760669999999436
                },
                {
                    "name": "A#3",
                    "midi": 58,
                    "time": 348.44648099999984,
                    "velocity": 0.3700787401574803,
                    "duration": 0.19760669999999436
                },
                {
                    "name": "G#3",
                    "midi": 56,
                    "time": 348.66604399999983,
                    "velocity": 0.4094488188976378,
                    "duration": 0.19760669999999436
                },
                {
                    "name": "D3",
                    "midi": 50,
                    "time": 348.66604399999983,
                    "velocity": 0.3464566929133858,
                    "duration": 0.19760669999999436
                },
                {
                    "name": "F3",
                    "midi": 53,
                    "time": 348.66604399999983,
                    "velocity": 0.3464566929133858,
                    "duration": 0.19760669999999436
                },
                {
                    "name": "G#3",
                    "midi": 56,
                    "time": 348.8856069999998,
                    "velocity": 0.3779527559055118,
                    "duration": 0.19760669999999436
                },
                {
                    "name": "D3",
                    "midi": 50,
                    "time": 348.8856069999998,
                    "velocity": 0.3779527559055118,
                    "duration": 0.19760669999999436
                },
                {
                    "name": "B3",
                    "midi": 59,
                    "time": 348.8856069999998,
                    "velocity": 0.44881889763779526,
                    "duration": 0.19760669999999436
                },
                {
                    "name": "F3",
                    "midi": 53,
                    "time": 348.8856069999998,
                    "velocity": 0.3779527559055118,
                    "duration": 0.19760669999999436
                },
                {
                    "name": "D#2",
                    "midi": 39,
                    "time": 349.1051699999998,
                    "velocity": 0.4881889763779528,
                    "duration": 0.10978149999999687
                },
                {
                    "name": "D#3",
                    "midi": 51,
                    "time": 349.3247329999998,
                    "velocity": 0.2677165354330709,
                    "duration": 0.19760669999999436
                },
                {
                    "name": "F#3",
                    "midi": 54,
                    "time": 349.3247329999998,
                    "velocity": 0.2677165354330709,
                    "duration": 0.19760669999999436
                },
                {
                    "name": "A#3",
                    "midi": 58,
                    "time": 349.3247329999998,
                    "velocity": 0.3228346456692913,
                    "duration": 0.19760669999999436
                },
                {
                    "name": "D#3",
                    "midi": 51,
                    "time": 349.5442959999998,
                    "velocity": 0.2677165354330709,
                    "duration": 0.19760669999999436
                },
                {
                    "name": "F#3",
                    "midi": 54,
                    "time": 349.5442959999998,
                    "velocity": 0.2677165354330709,
                    "duration": 0.19760669999999436
                },
                {
                    "name": "A3",
                    "midi": 57,
                    "time": 349.5442959999998,
                    "velocity": 0.3228346456692913,
                    "duration": 0.19760669999999436
                },
                {
                    "name": "D#3",
                    "midi": 51,
                    "time": 349.7638589999998,
                    "velocity": 0.3228346456692913,
                    "duration": 0.19760669999999436
                },
                {
                    "name": "A#3",
                    "midi": 58,
                    "time": 349.7638589999998,
                    "velocity": 0.3858267716535433,
                    "duration": 0.19760669999999436
                },
                {
                    "name": "F#3",
                    "midi": 54,
                    "time": 349.7638589999998,
                    "velocity": 0.3228346456692913,
                    "duration": 0.19760669999999436
                },
                {
                    "name": "B3",
                    "midi": 59,
                    "time": 349.9834219999998,
                    "velocity": 0.31496062992125984,
                    "duration": 0.19760669999999436
                },
                {
                    "name": "F#3",
                    "midi": 54,
                    "time": 349.9834219999998,
                    "velocity": 0.2677165354330709,
                    "duration": 0.19760669999999436
                },
                {
                    "name": "D#3",
                    "midi": 51,
                    "time": 349.9834219999998,
                    "velocity": 0.2677165354330709,
                    "duration": 0.19760669999999436
                },
                {
                    "name": "F#3",
                    "midi": 54,
                    "time": 350.2029849999998,
                    "velocity": 0.2677165354330709,
                    "duration": 0.19760669999999436
                },
                {
                    "name": "A#3",
                    "midi": 58,
                    "time": 350.2029849999998,
                    "velocity": 0.31496062992125984,
                    "duration": 0.19760669999999436
                },
                {
                    "name": "D#3",
                    "midi": 51,
                    "time": 350.2029849999998,
                    "velocity": 0.2677165354330709,
                    "duration": 0.19760669999999436
                },
                {
                    "name": "A#2",
                    "midi": 46,
                    "time": 350.4225479999998,
                    "velocity": 0.31496062992125984,
                    "duration": 0.21956299999999374
                },
                {
                    "name": "F#3",
                    "midi": 54,
                    "time": 350.6421109999998,
                    "velocity": 0.18110236220472442,
                    "duration": 0.19760669999999436
                },
                {
                    "name": "A#3",
                    "midi": 58,
                    "time": 350.6421109999998,
                    "velocity": 0.25984251968503935,
                    "duration": 0.19760669999999436
                },
                {
                    "name": "A#3",
                    "midi": 58,
                    "time": 350.86167399999977,
                    "velocity": 0.25984251968503935,
                    "duration": 0.19760669999999436
                },
                {
                    "name": "F#3",
                    "midi": 54,
                    "time": 350.86167399999977,
                    "velocity": 0.18110236220472442,
                    "duration": 0.19760669999999436
                },
                {
                    "name": "A#3",
                    "midi": 58,
                    "time": 351.08123699999976,
                    "velocity": 0.31496062992125984,
                    "duration": 0.19760669999999436
                },
                {
                    "name": "F#3",
                    "midi": 54,
                    "time": 351.08123699999976,
                    "velocity": 0.2204724409448819,
                    "duration": 0.19760669999999436
                },
                {
                    "name": "F#3",
                    "midi": 54,
                    "time": 351.30079999999975,
                    "velocity": 0.18110236220472442,
                    "duration": 0.19760669999999436
                },
                {
                    "name": "A#3",
                    "midi": 58,
                    "time": 351.30079999999975,
                    "velocity": 0.25984251968503935,
                    "duration": 0.19760669999999436
                },
                {
                    "name": "C4",
                    "midi": 60,
                    "time": 351.52036299999975,
                    "velocity": 0.25984251968503935,
                    "duration": 0.19760669999999436
                },
                {
                    "name": "A#3",
                    "midi": 58,
                    "time": 351.52036299999975,
                    "velocity": 0.18110236220472442,
                    "duration": 0.19760669999999436
                },
                {
                    "name": "F#3",
                    "midi": 54,
                    "time": 351.52036299999975,
                    "velocity": 0.18110236220472442,
                    "duration": 0.19760669999999436
                },
                {
                    "name": "F2",
                    "midi": 41,
                    "time": 351.73992599999974,
                    "velocity": 0.31496062992125984,
                    "duration": 0.21956299999999374
                },
                {
                    "name": "A#3",
                    "midi": 58,
                    "time": 351.95948899999973,
                    "velocity": 0.1732283464566929,
                    "duration": 0.19760669999999436
                },
                {
                    "name": "F3",
                    "midi": 53,
                    "time": 351.95948899999973,
                    "velocity": 0.1732283464566929,
                    "duration": 0.19760669999999436
                },
                {
                    "name": "C#4",
                    "midi": 61,
                    "time": 351.95948899999973,
                    "velocity": 0.2440944881889764,
                    "duration": 0.19760669999999436
                },
                {
                    "name": "A#3",
                    "midi": 58,
                    "time": 352.17905199999973,
                    "velocity": 0.18110236220472442,
                    "duration": 0.19760669999999436
                },
                {
                    "name": "C#4",
                    "midi": 61,
                    "time": 352.17905199999973,
                    "velocity": 0.25984251968503935,
                    "duration": 0.19760669999999436
                },
                {
                    "name": "F3",
                    "midi": 53,
                    "time": 352.17905199999973,
                    "velocity": 0.18110236220472442,
                    "duration": 0.19760669999999436
                },
                {
                    "name": "F3",
                    "midi": 53,
                    "time": 352.3986149999997,
                    "velocity": 0.1889763779527559,
                    "duration": 0.19760669999999436
                },
                {
                    "name": "A#3",
                    "midi": 58,
                    "time": 352.3986149999997,
                    "velocity": 0.1889763779527559,
                    "duration": 0.19760669999999436
                },
                {
                    "name": "C#4",
                    "midi": 61,
                    "time": 352.3986149999997,
                    "velocity": 0.2755905511811024,
                    "duration": 0.19760669999999436
                },
                {
                    "name": "C#4",
                    "midi": 61,
                    "time": 352.6181779999997,
                    "velocity": 0.25984251968503935,
                    "duration": 0.19760669999999436
                },
                {
                    "name": "E3",
                    "midi": 52,
                    "time": 352.6181779999997,
                    "velocity": 0.1889763779527559,
                    "duration": 0.19760669999999436
                },
                {
                    "name": "A#3",
                    "midi": 58,
                    "time": 352.6181779999997,
                    "velocity": 0.18110236220472442,
                    "duration": 0.19760669999999436
                },
                {
                    "name": "A#3",
                    "midi": 58,
                    "time": 352.8377409999997,
                    "velocity": 0.18110236220472442,
                    "duration": 0.19760669999999436
                },
                {
                    "name": "C#4",
                    "midi": 61,
                    "time": 352.8377409999997,
                    "velocity": 0.25984251968503935,
                    "duration": 0.19760669999999436
                },
                {
                    "name": "F3",
                    "midi": 53,
                    "time": 352.8377409999997,
                    "velocity": 0.1889763779527559,
                    "duration": 0.19760669999999436
                },
                {
                    "name": "E2",
                    "midi": 40,
                    "time": 353.0573039999997,
                    "velocity": 0.3543307086614173,
                    "duration": 0.21956299999999374
                },
                {
                    "name": "F#3",
                    "midi": 54,
                    "time": 353.2768669999997,
                    "velocity": 0.25984251968503935,
                    "duration": 0.19760669999999436
                },
                {
                    "name": "C#4",
                    "midi": 61,
                    "time": 353.2768669999997,
                    "velocity": 0.2992125984251969,
                    "duration": 0.19760669999999436
                },
                {
                    "name": "E3",
                    "midi": 52,
                    "time": 353.2768669999997,
                    "velocity": 0.25984251968503935,
                    "duration": 0.19760669999999436
                },
                {
                    "name": "A#3",
                    "midi": 58,
                    "time": 353.2768669999997,
                    "velocity": 0.25984251968503935,
                    "duration": 0.19760669999999436
                },
                {
                    "name": "F#3",
                    "midi": 54,
                    "time": 353.4964299999997,
                    "velocity": 0.2283464566929134,
                    "duration": 0.19760669999999436
                },
                {
                    "name": "A#3",
                    "midi": 58,
                    "time": 353.4964299999997,
                    "velocity": 0.2283464566929134,
                    "duration": 0.19760669999999436
                },
                {
                    "name": "C4",
                    "midi": 60,
                    "time": 353.4964299999997,
                    "velocity": 0.2755905511811024,
                    "duration": 0.19760669999999436
                },
                {
                    "name": "E3",
                    "midi": 52,
                    "time": 353.4964299999997,
                    "velocity": 0.2283464566929134,
                    "duration": 0.19760669999999436
                },
                {
                    "name": "F2",
                    "midi": 41,
                    "time": 353.7159929999997,
                    "velocity": 0.30708661417322836,
                    "duration": 0.21956299999999374
                },
                {
                    "name": "F#4",
                    "midi": 66,
                    "time": 353.9355559999997,
                    "velocity": 0.25984251968503935,
                    "duration": 0.19760669999999436
                },
                {
                    "name": "A3",
                    "midi": 57,
                    "time": 353.9355559999997,
                    "velocity": 0.2204724409448819,
                    "duration": 0.19760669999999436
                },
                {
                    "name": "F3",
                    "midi": 53,
                    "time": 353.9355559999997,
                    "velocity": 0.2204724409448819,
                    "duration": 0.19760669999999436
                },
                {
                    "name": "C4",
                    "midi": 60,
                    "time": 353.9355559999997,
                    "velocity": 0.2204724409448819,
                    "duration": 0.19760669999999436
                },
                {
                    "name": "D#4",
                    "midi": 63,
                    "time": 354.1551189999997,
                    "velocity": 0.2204724409448819,
                    "duration": 0.19760669999999436
                },
                {
                    "name": "F3",
                    "midi": 53,
                    "time": 354.1551189999997,
                    "velocity": 0.2204724409448819,
                    "duration": 0.19760669999999436
                },
                {
                    "name": "F4",
                    "midi": 65,
                    "time": 354.1551189999997,
                    "velocity": 0.25984251968503935,
                    "duration": 0.19760669999999436
                },
                {
                    "name": "C4",
                    "midi": 60,
                    "time": 354.1551189999997,
                    "velocity": 0.2204724409448819,
                    "duration": 0.19760669999999436
                },
                {
                    "name": "A#2",
                    "midi": 46,
                    "time": 354.37468199999967,
                    "velocity": 0.33070866141732286,
                    "duration": 0.21956299999999374
                },
                {
                    "name": "F3",
                    "midi": 53,
                    "time": 354.59424499999966,
                    "velocity": 0.2204724409448819,
                    "duration": 0.19760669999999436
                },
                {
                    "name": "A#3",
                    "midi": 58,
                    "time": 354.59424499999966,
                    "velocity": 0.2204724409448819,
                    "duration": 0.19760669999999436
                },
                {
                    "name": "C#4",
                    "midi": 61,
                    "time": 354.59424499999966,
                    "velocity": 0.25984251968503935,
                    "duration": 0.19760669999999436
                },
                {
                    "name": "A3",
                    "midi": 57,
                    "time": 354.81380799999965,
                    "velocity": 0.2204724409448819,
                    "duration": 0.19760669999999436
                },
                {
                    "name": "F3",
                    "midi": 53,
                    "time": 354.81380799999965,
                    "velocity": 0.2204724409448819,
                    "duration": 0.19760669999999436
                },
                {
                    "name": "C4",
                    "midi": 60,
                    "time": 354.81380799999965,
                    "velocity": 0.25984251968503935,
                    "duration": 0.19760669999999436
                },
                {
                    "name": "F3",
                    "midi": 53,
                    "time": 355.03337099999965,
                    "velocity": 0.2992125984251969,
                    "duration": 0.19760669999999436
                },
                {
                    "name": "A#3",
                    "midi": 58,
                    "time": 355.03337099999965,
                    "velocity": 0.2992125984251969,
                    "duration": 0.19760669999999436
                },
                {
                    "name": "C#4",
                    "midi": 61,
                    "time": 355.03337099999965,
                    "velocity": 0.2992125984251969,
                    "duration": 0.19760669999999436
                },
                {
                    "name": "C#4",
                    "midi": 61,
                    "time": 355.25293399999964,
                    "velocity": 0.2047244094488189,
                    "duration": 0.19760669999999436
                },
                {
                    "name": "F3",
                    "midi": 53,
                    "time": 355.25293399999964,
                    "velocity": 0.2047244094488189,
                    "duration": 0.19760669999999436
                },
                {
                    "name": "F4",
                    "midi": 65,
                    "time": 355.25293399999964,
                    "velocity": 0.2047244094488189,
                    "duration": 0.19760669999999436
                },
                {
                    "name": "F3",
                    "midi": 53,
                    "time": 355.47249699999963,
                    "velocity": 0.1732283464566929,
                    "duration": 0.19760669999999436
                },
                {
                    "name": "A#3",
                    "midi": 58,
                    "time": 355.47249699999963,
                    "velocity": 0.1732283464566929,
                    "duration": 0.19760669999999436
                },
                {
                    "name": "C#4",
                    "midi": 61,
                    "time": 355.47249699999963,
                    "velocity": 0.1732283464566929,
                    "duration": 0.19760669999999436
                },
                {
                    "name": "E2",
                    "midi": 40,
                    "time": 355.6920599999996,
                    "velocity": 0.31496062992125984,
                    "duration": 0.21956299999999374
                },
                {
                    "name": "A#3",
                    "midi": 58,
                    "time": 355.9116229999996,
                    "velocity": 0.18110236220472442,
                    "duration": 0.19760669999999436
                },
                {
                    "name": "E3",
                    "midi": 52,
                    "time": 355.9116229999996,
                    "velocity": 0.18110236220472442,
                    "duration": 0.19760669999999436
                },
                {
                    "name": "C#4",
                    "midi": 61,
                    "time": 355.9116229999996,
                    "velocity": 0.25984251968503935,
                    "duration": 0.19760669999999436
                },
                {
                    "name": "G3",
                    "midi": 55,
                    "time": 355.9116229999996,
                    "velocity": 0.18110236220472442,
                    "duration": 0.19760669999999436
                },
                {
                    "name": "A#3",
                    "midi": 58,
                    "time": 356.1311859999996,
                    "velocity": 0.2125984251968504,
                    "duration": 0.21956299999999374
                },
                {
                    "name": "C4",
                    "midi": 60,
                    "time": 356.1311859999996,
                    "velocity": 0.2125984251968504,
                    "duration": 0.21956299999999374
                },
                {
                    "name": "G3",
                    "midi": 55,
                    "time": 356.1311859999996,
                    "velocity": 0.2125984251968504,
                    "duration": 0.21956299999999374
                },
                {
                    "name": "E3",
                    "midi": 52,
                    "time": 356.1311859999996,
                    "velocity": 0.2125984251968504,
                    "duration": 0.21956299999999374
                },
                {
                    "name": "F2",
                    "midi": 41,
                    "time": 356.3507489999996,
                    "velocity": 0.2440944881889764,
                    "duration": 0.21956299999999374
                },
                {
                    "name": "A3",
                    "midi": 57,
                    "time": 356.5703119999996,
                    "velocity": 0.1732283464566929,
                    "duration": 0.19760669999999436
                },
                {
                    "name": "F3",
                    "midi": 53,
                    "time": 356.5703119999996,
                    "velocity": 0.1732283464566929,
                    "duration": 0.19760669999999436
                },
                {
                    "name": "C4",
                    "midi": 60,
                    "time": 356.5703119999996,
                    "velocity": 0.2047244094488189,
                    "duration": 0.19760669999999436
                },
                {
                    "name": "F3",
                    "midi": 53,
                    "time": 356.7898749999996,
                    "velocity": 0.1732283464566929,
                    "duration": 0.19760669999999436
                },
                {
                    "name": "D#4",
                    "midi": 63,
                    "time": 356.7898749999996,
                    "velocity": 0.2047244094488189,
                    "duration": 0.19760669999999436
                },
                {
                    "name": "C4",
                    "midi": 60,
                    "time": 356.7898749999996,
                    "velocity": 0.1732283464566929,
                    "duration": 0.19760669999999436
                },
                {
                    "name": "F2",
                    "midi": 41,
                    "time": 357.0094379999996,
                    "velocity": 0.2755905511811024,
                    "duration": 0.21956299999999374
                },
                {
                    "name": "F3",
                    "midi": 53,
                    "time": 357.2290009999996,
                    "velocity": 0.1889763779527559,
                    "duration": 0.19760669999999436
                },
                {
                    "name": "A#3",
                    "midi": 58,
                    "time": 357.2290009999996,
                    "velocity": 0.1889763779527559,
                    "duration": 0.19760669999999436
                },
                {
                    "name": "C#4",
                    "midi": 61,
                    "time": 357.2290009999996,
                    "velocity": 0.2283464566929134,
                    "duration": 0.19760669999999436
                },
                {
                    "name": "C4",
                    "midi": 60,
                    "time": 357.4485639999996,
                    "velocity": 0.2283464566929134,
                    "duration": 0.19760669999999436
                },
                {
                    "name": "F3",
                    "midi": 53,
                    "time": 357.4485639999996,
                    "velocity": 0.1889763779527559,
                    "duration": 0.19760669999999436
                },
                {
                    "name": "A3",
                    "midi": 57,
                    "time": 357.4485639999996,
                    "velocity": 0.1889763779527559,
                    "duration": 0.19760669999999436
                },
                {
                    "name": "A#3",
                    "midi": 58,
                    "time": 357.6681269999996,
                    "velocity": 0.15748031496062992,
                    "duration": 0.19760669999999436
                },
                {
                    "name": "F3",
                    "midi": 53,
                    "time": 357.6681269999996,
                    "velocity": 0.15748031496062992,
                    "duration": 0.19760669999999436
                },
                {
                    "name": "C#4",
                    "midi": 61,
                    "time": 357.6681269999996,
                    "velocity": 0.2755905511811024,
                    "duration": 0.19760669999999436
                },
                {
                    "name": "F3",
                    "midi": 53,
                    "time": 357.88768999999957,
                    "velocity": 0.1968503937007874,
                    "duration": 0.19760669999999436
                },
                {
                    "name": "F4",
                    "midi": 65,
                    "time": 357.88768999999957,
                    "velocity": 0.23622047244094488,
                    "duration": 0.19760669999999436
                },
                {
                    "name": "C#4",
                    "midi": 61,
                    "time": 357.88768999999957,
                    "velocity": 0.1968503937007874,
                    "duration": 0.19760669999999436
                },
                {
                    "name": "A#3",
                    "midi": 58,
                    "time": 358.10725299999956,
                    "velocity": 0.1968503937007874,
                    "duration": 0.19760669999999436
                },
                {
                    "name": "F3",
                    "midi": 53,
                    "time": 358.10725299999956,
                    "velocity": 0.1968503937007874,
                    "duration": 0.19760669999999436
                },
                {
                    "name": "C#4",
                    "midi": 61,
                    "time": 358.10725299999956,
                    "velocity": 0.23622047244094488,
                    "duration": 0.19760669999999436
                },
                {
                    "name": "F#2",
                    "midi": 42,
                    "time": 358.32681599999955,
                    "velocity": 0.2440944881889764,
                    "duration": 0.21956299999999374
                },
                {
                    "name": "A#3",
                    "midi": 58,
                    "time": 358.54637899999955,
                    "velocity": 0.2440944881889764,
                    "duration": 0.19760669999999436
                },
                {
                    "name": "F#3",
                    "midi": 54,
                    "time": 358.54637899999955,
                    "velocity": 0.2047244094488189,
                    "duration": 0.19760669999999436
                },
                {
                    "name": "A#3",
                    "midi": 58,
                    "time": 358.76594199999954,
                    "velocity": 0.2125984251968504,
                    "duration": 0.19760669999999436
                },
                {
                    "name": "F#3",
                    "midi": 54,
                    "time": 358.76594199999954,
                    "velocity": 0.2125984251968504,
                    "duration": 0.19760669999999436
                },
                {
                    "name": "C4",
                    "midi": 60,
                    "time": 358.76594199999954,
                    "velocity": 0.25196850393700787,
                    "duration": 0.19760669999999436
                },
                {
                    "name": "F2",
                    "midi": 41,
                    "time": 358.98550499999953,
                    "velocity": 0.2992125984251969,
                    "duration": 0.21956299999999374
                },
                {
                    "name": "C4",
                    "midi": 60,
                    "time": 359.2050679999995,
                    "velocity": 0.2283464566929134,
                    "duration": 0.19760669999999436
                },
                {
                    "name": "F3",
                    "midi": 53,
                    "time": 359.2050679999995,
                    "velocity": 0.15748031496062992,
                    "duration": 0.19760669999999436
                },
                {
                    "name": "A3",
                    "midi": 57,
                    "time": 359.2050679999995,
                    "velocity": 0.1968503937007874,
                    "duration": 0.19760669999999436
                },
                {
                    "name": "F3",
                    "midi": 53,
                    "time": 359.4246309999995,
                    "velocity": 0.1732283464566929,
                    "duration": 0.19760669999999436
                },
                {
                    "name": "D#4",
                    "midi": 63,
                    "time": 359.4246309999995,
                    "velocity": 0.2125984251968504,
                    "duration": 0.19760669999999436
                },
                {
                    "name": "C4",
                    "midi": 60,
                    "time": 359.4246309999995,
                    "velocity": 0.1732283464566929,
                    "duration": 0.19760669999999436
                },
                {
                    "name": "A#1",
                    "midi": 34,
                    "time": 359.6441939999995,
                    "velocity": 0.2755905511811024,
                    "duration": 0.21956299999999374
                },
                {
                    "name": "A#3",
                    "midi": 58,
                    "time": 359.8637569999995,
                    "velocity": 0.14173228346456693,
                    "duration": 0.19760669999999436
                },
                {
                    "name": "F3",
                    "midi": 53,
                    "time": 359.8637569999995,
                    "velocity": 0.14173228346456693,
                    "duration": 0.19760669999999436
                },
                {
                    "name": "C#4",
                    "midi": 61,
                    "time": 359.8637569999995,
                    "velocity": 0.1732283464566929,
                    "duration": 0.19760669999999436
                },
                {
                    "name": "F4",
                    "midi": 65,
                    "time": 360.0833199999995,
                    "velocity": 0.1732283464566929,
                    "duration": 0.19760669999999436
                },
                {
                    "name": "C#4",
                    "midi": 61,
                    "time": 360.0833199999995,
                    "velocity": 0.14173228346456693,
                    "duration": 0.19760669999999436
                },
                {
                    "name": "F3",
                    "midi": 53,
                    "time": 360.0833199999995,
                    "velocity": 0.14173228346456693,
                    "duration": 0.19760669999999436
                },
                {
                    "name": "A#3",
                    "midi": 58,
                    "time": 360.3028829999995,
                    "velocity": 0.14960629921259844,
                    "duration": 0.3293444999999906
                },
                {
                    "name": "F3",
                    "midi": 53,
                    "time": 360.3028829999995,
                    "velocity": 0.14173228346456693,
                    "duration": 0.3293444999999906
                },
                {
                    "name": "C#4",
                    "midi": 61,
                    "time": 360.3028829999995,
                    "velocity": 0.1732283464566929,
                    "duration": 0.3293444999999906
                },
                {
                    "name": "F#2",
                    "midi": 42,
                    "time": 360.9615719999995,
                    "velocity": 0.2992125984251969,
                    "duration": 0.24700837500000716
                },
                {
                    "name": "C#3",
                    "midi": 49,
                    "time": 361.2085803749995,
                    "velocity": 0.2440944881889764,
                    "duration": 0.08233612499998344
                },
                {
                    "name": "A#3",
                    "midi": 58,
                    "time": 361.29091649999947,
                    "velocity": 0.33070866141732286,
                    "duration": 0.5763528749999978
                },
                {
                    "name": "F#3",
                    "midi": 54,
                    "time": 361.86726937499947,
                    "velocity": 0.2283464566929134,
                    "duration": 0.08233612499998344
                },
                {
                    "name": "A#3",
                    "midi": 58,
                    "time": 361.94960549999945,
                    "velocity": 0.30708661417322836,
                    "duration": 0.6586889999999812
                },
                {
                    "name": "F#3",
                    "midi": 54,
                    "time": 362.60829449999943,
                    "velocity": 0.2677165354330709,
                    "duration": 0.3293444999999906
                },
                {
                    "name": "C#3",
                    "midi": 49,
                    "time": 362.9376389999994,
                    "velocity": 0.2677165354330709,
                    "duration": 0.3293444999999906
                },
                {
                    "name": "A#2",
                    "midi": 46,
                    "time": 363.2669834999994,
                    "velocity": 0.2677165354330709,
                    "duration": 0.3293444999999906
                },
                {
                    "name": "F2",
                    "midi": 41,
                    "time": 363.5963279999994,
                    "velocity": 0.3543307086614173,
                    "duration": 0.24700837500000716
                },
                {
                    "name": "C#3",
                    "midi": 49,
                    "time": 363.8433363749994,
                    "velocity": 0.28346456692913385,
                    "duration": 0.08233612499998344
                },
                {
                    "name": "B3",
                    "midi": 59,
                    "time": 363.9256724999994,
                    "velocity": 0.3543307086614173,
                    "duration": 0.5763528749999978
                },
                {
                    "name": "G#3",
                    "midi": 56,
                    "time": 364.5020253749994,
                    "velocity": 0.29133858267716534,
                    "duration": 0.08233612499998344
                },
                {
                    "name": "B3",
                    "midi": 59,
                    "time": 364.5843614999994,
                    "velocity": 0.36220472440944884,
                    "duration": 0.6586889999999812
                },
                {
                    "name": "G#3",
                    "midi": 56,
                    "time": 365.24305049999936,
                    "velocity": 0.2992125984251969,
                    "duration": 0.3293444999999906
                },
                {
                    "name": "F3",
                    "midi": 53,
                    "time": 365.57239499999935,
                    "velocity": 0.2992125984251969,
                    "duration": 0.3293444999999906
                },
                {
                    "name": "C#3",
                    "midi": 49,
                    "time": 365.90173949999934,
                    "velocity": 0.30708661417322836,
                    "duration": 0.3293444999999906
                },
                {
                    "name": "F#2",
                    "midi": 42,
                    "time": 366.2310839999993,
                    "velocity": 0.3937007874015748,
                    "duration": 0.24700837500000716
                },
                {
                    "name": "C#3",
                    "midi": 49,
                    "time": 366.47809237499933,
                    "velocity": 0.31496062992125984,
                    "duration": 0.08233612499998344
                },
                {
                    "name": "A#3",
                    "midi": 58,
                    "time": 366.5604284999993,
                    "velocity": 0.3937007874015748,
                    "duration": 0.5763528749999978
                },
                {
                    "name": "F#3",
                    "midi": 54,
                    "time": 367.1367813749993,
                    "velocity": 0.31496062992125984,
                    "duration": 0.08233612499998344
                },
                {
                    "name": "A#3",
                    "midi": 58,
                    "time": 367.2191174999993,
                    "velocity": 0.3937007874015748,
                    "duration": 0.6586889999999812
                },
                {
                    "name": "B2",
                    "midi": 47,
                    "time": 367.5484619999993,
                    "velocity": 0.31496062992125984,
                    "duration": 1.3173779999999624
                },
                {
                    "name": "G#3",
                    "midi": 56,
                    "time": 367.8778064999993,
                    "velocity": 0.31496062992125984,
                    "duration": 0.3293444999999906
                },
                {
                    "name": "D#3",
                    "midi": 51,
                    "time": 368.20715099999927,
                    "velocity": 0.31496062992125984,
                    "duration": 0.3293444999999906
                },
                {
                    "name": "G#3",
                    "midi": 56,
                    "time": 368.53649549999926,
                    "velocity": 0.31496062992125984,
                    "duration": 0.3293444999999906
                },
                {
                    "name": "C3",
                    "midi": 48,
                    "time": 368.86583999999925,
                    "velocity": 0.3464566929133858,
                    "duration": 0.6586889999999812
                },
                {
                    "name": "G#3",
                    "midi": 56,
                    "time": 368.86583999999925,
                    "velocity": 0.4094488188976378,
                    "duration": 0.3293444999999906
                },
                {
                    "name": "C4",
                    "midi": 60,
                    "time": 369.19518449999924,
                    "velocity": 0.3464566929133858,
                    "duration": 0.3293444999999906
                },
                {
                    "name": "D#4",
                    "midi": 63,
                    "time": 369.52452899999923,
                    "velocity": 0.3858267716535433,
                    "duration": 0.3293444999999906
                },
                {
                    "name": "G#3",
                    "midi": 56,
                    "time": 369.52452899999923,
                    "velocity": 0.3228346456692913,
                    "duration": 0.6586889999999812
                },
                {
                    "name": "F#4",
                    "midi": 66,
                    "time": 369.8538734999992,
                    "velocity": 0.4330708661417323,
                    "duration": 0.3293444999999906
                },
                {
                    "name": "C#4",
                    "midi": 61,
                    "time": 370.1832179999992,
                    "velocity": 0.3779527559055118,
                    "duration": 1.3173779999999624
                },
                {
                    "name": "F4",
                    "midi": 65,
                    "time": 370.1832179999992,
                    "velocity": 0.44881889763779526,
                    "duration": 0.3293444999999906
                },
                {
                    "name": "G#4",
                    "midi": 68,
                    "time": 370.5125624999992,
                    "velocity": 0.41732283464566927,
                    "duration": 0.3293444999999906
                },
                {
                    "name": "A#4",
                    "midi": 70,
                    "time": 370.8419069999992,
                    "velocity": 0.4566929133858268,
                    "duration": 0.3293444999999906
                },
                {
                    "name": "B4",
                    "midi": 71,
                    "time": 371.1712514999992,
                    "velocity": 0.4881889763779528,
                    "duration": 0.3293444999999906
                },
                {
                    "name": "F#2",
                    "midi": 42,
                    "time": 371.5005959999992,
                    "velocity": 0.4330708661417323,
                    "duration": 0.16467225000002372
                },
                {
                    "name": "A#3",
                    "midi": 58,
                    "time": 371.6652682499992,
                    "velocity": 0.3937007874015748,
                    "duration": 0.16467225000002372
                },
                {
                    "name": "C#3",
                    "midi": 49,
                    "time": 371.8299404999992,
                    "velocity": 0.3937007874015748,
                    "duration": 0.16467225000002372
                },
                {
                    "name": "A#3",
                    "midi": 58,
                    "time": 371.99461274999925,
                    "velocity": 0.3937007874015748,
                    "duration": 0.16467225000002372
                },
                {
                    "name": "F#3",
                    "midi": 54,
                    "time": 372.1592849999993,
                    "velocity": 0.4645669291338583,
                    "duration": 0.16467225000002372
                },
                {
                    "name": "A#3",
                    "midi": 58,
                    "time": 372.3239572499993,
                    "velocity": 0.3937007874015748,
                    "duration": 0.16467225000002372
                },
                {
                    "name": "C#3",
                    "midi": 49,
                    "time": 372.4886294999993,
                    "velocity": 0.3937007874015748,
                    "duration": 0.16467225000002372
                },
                {
                    "name": "A#3",
                    "midi": 58,
                    "time": 372.65330174999934,
                    "velocity": 0.3937007874015748,
                    "duration": 0.16467225000002372
                },
                {
                    "name": "F#2",
                    "midi": 42,
                    "time": 372.81797399999937,
                    "velocity": 0.4645669291338583,
                    "duration": 0.16467225000002372
                },
                {
                    "name": "A#3",
                    "midi": 58,
                    "time": 372.9826462499994,
                    "velocity": 0.3937007874015748,
                    "duration": 0.16467225000002372
                },
                {
                    "name": "C#3",
                    "midi": 49,
                    "time": 373.1473184999994,
                    "velocity": 0.3937007874015748,
                    "duration": 0.16467225000002372
                },
                {
                    "name": "A#3",
                    "midi": 58,
                    "time": 373.31199074999944,
                    "velocity": 0.3937007874015748,
                    "duration": 0.16467225000002372
                },
                {
                    "name": "F#3",
                    "midi": 54,
                    "time": 373.47666299999946,
                    "velocity": 0.4645669291338583,
                    "duration": 0.16467225000002372
                },
                {
                    "name": "A#3",
                    "midi": 58,
                    "time": 373.6413352499995,
                    "velocity": 0.3858267716535433,
                    "duration": 0.16467225000002372
                },
                {
                    "name": "C#3",
                    "midi": 49,
                    "time": 373.8060074999995,
                    "velocity": 0.3858267716535433,
                    "duration": 0.16467225000002372
                },
                {
                    "name": "A#3",
                    "midi": 58,
                    "time": 373.97067974999953,
                    "velocity": 0.3858267716535433,
                    "duration": 0.16467225000002372
                },
                {
                    "name": "F2",
                    "midi": 41,
                    "time": 374.13535199999956,
                    "velocity": 0.4330708661417323,
                    "duration": 0.16467225000002372
                },
                {
                    "name": "B3",
                    "midi": 59,
                    "time": 374.3000242499996,
                    "velocity": 0.3937007874015748,
                    "duration": 0.16467225000002372
                },
                {
                    "name": "C#3",
                    "midi": 49,
                    "time": 374.4646964999996,
                    "velocity": 0.3937007874015748,
                    "duration": 0.16467225000002372
                },
                {
                    "name": "B3",
                    "midi": 59,
                    "time": 374.6293687499996,
                    "velocity": 0.3937007874015748,
                    "duration": 0.16467225000002372
                },
                {
                    "name": "G#3",
                    "midi": 56,
                    "time": 374.79404099999965,
                    "velocity": 0.4645669291338583,
                    "duration": 0.16467225000002372
                },
                {
                    "name": "B3",
                    "midi": 59,
                    "time": 374.9587132499997,
                    "velocity": 0.3937007874015748,
                    "duration": 0.16467225000002372
                },
                {
                    "name": "C#3",
                    "midi": 49,
                    "time": 375.1233854999997,
                    "velocity": 0.3937007874015748,
                    "duration": 0.16467225000002372
                },
                {
                    "name": "B3",
                    "midi": 59,
                    "time": 375.2880577499997,
                    "velocity": 0.3937007874015748,
                    "duration": 0.16467225000002372
                },
                {
                    "name": "F2",
                    "midi": 41,
                    "time": 375.45272999999975,
                    "velocity": 0.4645669291338583,
                    "duration": 0.16467225000002372
                },
                {
                    "name": "B3",
                    "midi": 59,
                    "time": 375.61740224999977,
                    "velocity": 0.3937007874015748,
                    "duration": 0.16467225000002372
                },
                {
                    "name": "C#3",
                    "midi": 49,
                    "time": 375.7820744999998,
                    "velocity": 0.3937007874015748,
                    "duration": 0.16467225000002372
                },
                {
                    "name": "B3",
                    "midi": 59,
                    "time": 375.9467467499998,
                    "velocity": 0.3937007874015748,
                    "duration": 0.16467225000002372
                },
                {
                    "name": "G#3",
                    "midi": 56,
                    "time": 376.11141899999984,
                    "velocity": 0.4645669291338583,
                    "duration": 0.16467225000002372
                },
                {
                    "name": "B3",
                    "midi": 59,
                    "time": 376.27609124999987,
                    "velocity": 0.3858267716535433,
                    "duration": 0.16467225000002372
                },
                {
                    "name": "C#3",
                    "midi": 49,
                    "time": 376.4407634999999,
                    "velocity": 0.3858267716535433,
                    "duration": 0.16467225000002372
                },
                {
                    "name": "B3",
                    "midi": 59,
                    "time": 376.6054357499999,
                    "velocity": 0.3858267716535433,
                    "duration": 0.16467225000002372
                },
                {
                    "name": "F#2",
                    "midi": 42,
                    "time": 376.77010799999994,
                    "velocity": 0.3937007874015748,
                    "duration": 0.16467225000002372
                },
                {
                    "name": "A#3",
                    "midi": 58,
                    "time": 376.93478024999996,
                    "velocity": 0.33070866141732286,
                    "duration": 0.16467225000002372
                },
                {
                    "name": "C#3",
                    "midi": 49,
                    "time": 377.0994525,
                    "velocity": 0.33070866141732286,
                    "duration": 0.16467225000002372
                },
                {
                    "name": "A#3",
                    "midi": 58,
                    "time": 377.26412475,
                    "velocity": 0.33070866141732286,
                    "duration": 0.16467225000002372
                },
                {
                    "name": "F#3",
                    "midi": 54,
                    "time": 377.42879700000003,
                    "velocity": 0.4251968503937008,
                    "duration": 0.16467225000002372
                },
                {
                    "name": "A#3",
                    "midi": 58,
                    "time": 377.59346925000006,
                    "velocity": 0.36220472440944884,
                    "duration": 0.16467225000002372
                },
                {
                    "name": "C#3",
                    "midi": 49,
                    "time": 377.7581415000001,
                    "velocity": 0.33070866141732286,
                    "duration": 0.16467225000002372
                },
                {
                    "name": "A#3",
                    "midi": 58,
                    "time": 377.9228137500001,
                    "velocity": 0.33070866141732286,
                    "duration": 0.16467225000002372
                },
                {
                    "name": "C2",
                    "midi": 36,
                    "time": 378.0874860000001,
                    "velocity": 0.4094488188976378,
                    "duration": 0.16467225000002372
                },
                {
                    "name": "C3",
                    "midi": 48,
                    "time": 378.25215825000015,
                    "velocity": 0.30708661417322836,
                    "duration": 0.16467225000002372
                },
                {
                    "name": "D#3",
                    "midi": 51,
                    "time": 378.4168305000002,
                    "velocity": 0.30708661417322836,
                    "duration": 0.16467225000002372
                },
                {
                    "name": "C3",
                    "midi": 48,
                    "time": 378.5815027500002,
                    "velocity": 0.30708661417322836,
                    "duration": 0.16467225000002372
                },
                {
                    "name": "G#3",
                    "midi": 56,
                    "time": 378.7461750000002,
                    "velocity": 0.4015748031496063,
                    "duration": 0.16467225000002372
                },
                {
                    "name": "C3",
                    "midi": 48,
                    "time": 378.91084725000024,
                    "velocity": 0.25984251968503935,
                    "duration": 0.16467225000002372
                },
                {
                    "name": "A3",
                    "midi": 57,
                    "time": 379.07551950000027,
                    "velocity": 0.25984251968503935,
                    "duration": 0.16467225000002372
                },
                {
                    "name": "C3",
                    "midi": 48,
                    "time": 379.2401917500003,
                    "velocity": 0.25984251968503935,
                    "duration": 0.16467225000002372
                },
                {
                    "name": "C#2",
                    "midi": 37,
                    "time": 379.4048640000003,
                    "velocity": 0.3464566929133858,
                    "duration": 0.16467225000002372
                },
                {
                    "name": "C#3",
                    "midi": 49,
                    "time": 379.56953625000034,
                    "velocity": 0.2677165354330709,
                    "duration": 0.16467225000002372
                },
                {
                    "name": "F3",
                    "midi": 53,
                    "time": 379.73420850000036,
                    "velocity": 0.2755905511811024,
                    "duration": 0.16467225000002372
                },
                {
                    "name": "C#3",
                    "midi": 49,
                    "time": 379.8988807500004,
                    "velocity": 0.2755905511811024,
                    "duration": 0.16467225000002372
                },
                {
                    "name": "G#3",
                    "midi": 56,
                    "time": 380.0635530000004,
                    "velocity": 0.2755905511811024,
                    "duration": 0.16467225000002372
                },
                {
                    "name": "C#3",
                    "midi": 49,
                    "time": 380.22822525000043,
                    "velocity": 0.2440944881889764,
                    "duration": 0.16467225000002372
                },
                {
                    "name": "B3",
                    "midi": 59,
                    "time": 380.39289750000046,
                    "velocity": 0.2440944881889764,
                    "duration": 0.16467225000002372
                },
                {
                    "name": "C#3",
                    "midi": 49,
                    "time": 380.5575697500005,
                    "velocity": 0.2440944881889764,
                    "duration": 0.16467225000002372
                },
                {
                    "name": "F#2",
                    "midi": 42,
                    "time": 380.7222420000005,
                    "velocity": 0.2755905511811024,
                    "duration": 0.16467225000002372
                },
                {
                    "name": "C#3",
                    "midi": 49,
                    "time": 380.88691425000053,
                    "velocity": 0.2283464566929134,
                    "duration": 0.16467225000002372
                },
                {
                    "name": "A#3",
                    "midi": 58,
                    "time": 381.05158650000055,
                    "velocity": 0.2283464566929134,
                    "duration": 0.16467225000002372
                },
                {
                    "name": "F#3",
                    "midi": 54,
                    "time": 381.2162587500006,
                    "velocity": 0.2283464566929134,
                    "duration": 0.16467225000002372
                },
                {
                    "name": "C#3",
                    "midi": 49,
                    "time": 381.3809310000006,
                    "velocity": 0.2755905511811024,
                    "duration": 0.16467225000002372
                },
                {
                    "name": "F#3",
                    "midi": 54,
                    "time": 381.5456032500006,
                    "velocity": 0.2440944881889764,
                    "duration": 0.16467225000002372
                },
                {
                    "name": "C#3",
                    "midi": 49,
                    "time": 381.71027550000065,
                    "velocity": 0.2440944881889764,
                    "duration": 0.16467225000002372
                },
                {
                    "name": "A#2",
                    "midi": 46,
                    "time": 381.8749477500007,
                    "velocity": 0.2440944881889764,
                    "duration": 0.16467225000002372
                },
                {
                    "name": "F#2",
                    "midi": 42,
                    "time": 382.0396200000007,
                    "velocity": 0.3543307086614173,
                    "duration": 0.24700837500000716
                },
                {
                    "name": "C#3",
                    "midi": 49,
                    "time": 382.2866283750007,
                    "velocity": 0.29133858267716534,
                    "duration": 0.08233612499998344
                },
                {
                    "name": "A#3",
                    "midi": 58,
                    "time": 382.3689645000007,
                    "velocity": 0.3937007874015748,
                    "duration": 0.5763528749999978
                },
                {
                    "name": "F#3",
                    "midi": 54,
                    "time": 382.9453173750007,
                    "velocity": 0.2677165354330709,
                    "duration": 0.08233612499998344
                },
                {
                    "name": "A#3",
                    "midi": 58,
                    "time": 383.02765350000067,
                    "velocity": 0.36220472440944884,
                    "duration": 0.6586889999999812
                },
                {
                    "name": "F#3",
                    "midi": 54,
                    "time": 383.68634250000065,
                    "velocity": 0.31496062992125984,
                    "duration": 0.3293444999999906
                },
                {
                    "name": "C#3",
                    "midi": 49,
                    "time": 384.01568700000064,
                    "velocity": 0.31496062992125984,
                    "duration": 0.3293444999999906
                },
                {
                    "name": "A#2",
                    "midi": 46,
                    "time": 384.34503150000063,
                    "velocity": 0.31496062992125984,
                    "duration": 0.3293444999999906
                },
                {
                    "name": "F2",
                    "midi": 41,
                    "time": 384.6743760000006,
                    "velocity": 0.4251968503937008,
                    "duration": 0.24700837500000716
                },
                {
                    "name": "C#3",
                    "midi": 49,
                    "time": 384.9213843750006,
                    "velocity": 0.33858267716535434,
                    "duration": 0.08233612499998344
                },
                {
                    "name": "B3",
                    "midi": 59,
                    "time": 385.0037205000006,
                    "velocity": 0.4251968503937008,
                    "duration": 0.5763528749999978
                },
                {
                    "name": "G#3",
                    "midi": 56,
                    "time": 385.5800733750006,
                    "velocity": 0.3464566929133858,
                    "duration": 0.08233612499998344
                },
                {
                    "name": "B3",
                    "midi": 59,
                    "time": 385.6624095000006,
                    "velocity": 0.4330708661417323,
                    "duration": 0.6586889999999812
                },
                {
                    "name": "G#3",
                    "midi": 56,
                    "time": 386.3210985000006,
                    "velocity": 0.3543307086614173,
                    "duration": 0.3293444999999906
                },
                {
                    "name": "F3",
                    "midi": 53,
                    "time": 386.65044300000056,
                    "velocity": 0.3543307086614173,
                    "duration": 0.3293444999999906
                },
                {
                    "name": "C#3",
                    "midi": 49,
                    "time": 386.97978750000055,
                    "velocity": 0.36220472440944884,
                    "duration": 0.3293444999999906
                },
                {
                    "name": "F#2",
                    "midi": 42,
                    "time": 387.30913200000055,
                    "velocity": 0.47244094488188976,
                    "duration": 0.24700837500000716
                },
                {
                    "name": "C#3",
                    "midi": 49,
                    "time": 387.55614037500055,
                    "velocity": 0.3779527559055118,
                    "duration": 0.08233612499998344
                },
                {
                    "name": "A#3",
                    "midi": 58,
                    "time": 387.63847650000054,
                    "velocity": 0.47244094488188976,
                    "duration": 0.5763528749999978
                },
                {
                    "name": "F#3",
                    "midi": 54,
                    "time": 388.21482937500053,
                    "velocity": 0.3779527559055118,
                    "duration": 0.08233612499998344
                },
                {
                    "name": "A#3",
                    "midi": 58,
                    "time": 388.2971655000005,
                    "velocity": 0.47244094488188976,
                    "duration": 0.6586889999999812
                },
                {
                    "name": "B2",
                    "midi": 47,
                    "time": 388.6265100000005,
                    "velocity": 0.3779527559055118,
                    "duration": 1.3173779999999624
                },
                {
                    "name": "G#3",
                    "midi": 56,
                    "time": 388.9558545000005,
                    "velocity": 0.3779527559055118,
                    "duration": 0.3293444999999906
                },
                {
                    "name": "D#3",
                    "midi": 51,
                    "time": 389.2851990000005,
                    "velocity": 0.3779527559055118,
                    "duration": 0.3293444999999906
                },
                {
                    "name": "G#3",
                    "midi": 56,
                    "time": 389.6145435000005,
                    "velocity": 0.3779527559055118,
                    "duration": 0.3293444999999906
                },
                {
                    "name": "C3",
                    "midi": 48,
                    "time": 389.94388800000047,
                    "velocity": 0.3779527559055118,
                    "duration": 0.6586889999999812
                },
                {
                    "name": "G#3",
                    "midi": 56,
                    "time": 389.94388800000047,
                    "velocity": 0.44881889763779526,
                    "duration": 0.3293444999999906
                },
                {
                    "name": "C4",
                    "midi": 60,
                    "time": 390.27323250000046,
                    "velocity": 0.3779527559055118,
                    "duration": 0.3293444999999906
                },
                {
                    "name": "D#4",
                    "midi": 63,
                    "time": 390.60257700000045,
                    "velocity": 0.41732283464566927,
                    "duration": 0.3293444999999906
                },
                {
                    "name": "G#3",
                    "midi": 56,
                    "time": 390.60257700000045,
                    "velocity": 0.3543307086614173,
                    "duration": 0.6586889999999812
                },
                {
                    "name": "F#4",
                    "midi": 66,
                    "time": 390.93192150000044,
                    "velocity": 0.47244094488188976,
                    "duration": 0.3293444999999906
                },
                {
                    "name": "C#4",
                    "midi": 61,
                    "time": 391.26126600000043,
                    "velocity": 0.4094488188976378,
                    "duration": 1.3173779999999624
                },
                {
                    "name": "F4",
                    "midi": 65,
                    "time": 391.26126600000043,
                    "velocity": 0.4881889763779528,
                    "duration": 0.3293444999999906
                },
                {
                    "name": "G#4",
                    "midi": 68,
                    "time": 391.5906105000004,
                    "velocity": 0.4566929133858268,
                    "duration": 0.3293444999999906
                },
                {
                    "name": "A#4",
                    "midi": 70,
                    "time": 391.9199550000004,
                    "velocity": 0.49606299212598426,
                    "duration": 0.3293444999999906
                },
                {
                    "name": "B4",
                    "midi": 71,
                    "time": 392.2492995000004,
                    "velocity": 0.5354330708661418,
                    "duration": 0.3293444999999906
                },
                {
                    "name": "F#2",
                    "midi": 42,
                    "time": 392.5786440000004,
                    "velocity": 0.47244094488188976,
                    "duration": 0.16467225000002372
                },
                {
                    "name": "A#3",
                    "midi": 58,
                    "time": 392.7433162500004,
                    "velocity": 0.4330708661417323,
                    "duration": 0.16467225000002372
                },
                {
                    "name": "C#3",
                    "midi": 49,
                    "time": 392.90798850000044,
                    "velocity": 0.4330708661417323,
                    "duration": 0.16467225000002372
                },
                {
                    "name": "A#3",
                    "midi": 58,
                    "time": 393.07266075000047,
                    "velocity": 0.4330708661417323,
                    "duration": 0.16467225000002372
                },
                {
                    "name": "F#3",
                    "midi": 54,
                    "time": 393.2373330000005,
                    "velocity": 0.5039370078740157,
                    "duration": 0.16467225000002372
                },
                {
                    "name": "A#3",
                    "midi": 58,
                    "time": 393.4020052500005,
                    "velocity": 0.4330708661417323,
                    "duration": 0.16467225000002372
                },
                {
                    "name": "C#3",
                    "midi": 49,
                    "time": 393.56667750000054,
                    "velocity": 0.4330708661417323,
                    "duration": 0.16467225000002372
                },
                {
                    "name": "A#3",
                    "midi": 58,
                    "time": 393.73134975000056,
                    "velocity": 0.4330708661417323,
                    "duration": 0.16467225000002372
                },
                {
                    "name": "F#2",
                    "midi": 42,
                    "time": 393.8960220000006,
                    "velocity": 0.5039370078740157,
                    "duration": 0.16467225000002372
                },
                {
                    "name": "A#3",
                    "midi": 58,
                    "time": 394.0606942500006,
                    "velocity": 0.4330708661417323,
                    "duration": 0.16467225000002372
                },
                {
                    "name": "C#3",
                    "midi": 49,
                    "time": 394.22536650000063,
                    "velocity": 0.4330708661417323,
                    "duration": 0.16467225000002372
                },
                {
                    "name": "A#3",
                    "midi": 58,
                    "time": 394.39003875000066,
                    "velocity": 0.4330708661417323,
                    "duration": 0.16467225000002372
                },
                {
                    "name": "F#3",
                    "midi": 54,
                    "time": 394.5547110000007,
                    "velocity": 0.5039370078740157,
                    "duration": 0.16467225000002372
                },
                {
                    "name": "A#3",
                    "midi": 58,
                    "time": 394.7193832500007,
                    "velocity": 0.41732283464566927,
                    "duration": 0.16467225000002372
                },
                {
                    "name": "C#3",
                    "midi": 49,
                    "time": 394.8840555000007,
                    "velocity": 0.41732283464566927,
                    "duration": 0.16467225000002372
                },
                {
                    "name": "A#3",
                    "midi": 58,
                    "time": 395.04872775000075,
                    "velocity": 0.41732283464566927,
                    "duration": 0.16467225000002372
                },
                {
                    "name": "F2",
                    "midi": 41,
                    "time": 395.2134000000008,
                    "velocity": 0.47244094488188976,
                    "duration": 0.16467225000002372
                },
                {
                    "name": "B3",
                    "midi": 59,
                    "time": 395.3780722500008,
                    "velocity": 0.4330708661417323,
                    "duration": 0.16467225000002372
                },
                {
                    "name": "C#3",
                    "midi": 49,
                    "time": 395.5427445000008,
                    "velocity": 0.4330708661417323,
                    "duration": 0.16467225000002372
                },
                {
                    "name": "B3",
                    "midi": 59,
                    "time": 395.70741675000085,
                    "velocity": 0.4330708661417323,
                    "duration": 0.16467225000002372
                },
                {
                    "name": "G#3",
                    "midi": 56,
                    "time": 395.87208900000087,
                    "velocity": 0.5039370078740157,
                    "duration": 0.16467225000002372
                },
                {
                    "name": "B3",
                    "midi": 59,
                    "time": 396.0367612500009,
                    "velocity": 0.4330708661417323,
                    "duration": 0.16467225000002372
                },
                {
                    "name": "C#3",
                    "midi": 49,
                    "time": 396.2014335000009,
                    "velocity": 0.4330708661417323,
                    "duration": 0.16467225000002372
                },
                {
                    "name": "B3",
                    "midi": 59,
                    "time": 396.36610575000094,
                    "velocity": 0.4330708661417323,
                    "duration": 0.16467225000002372
                },
                {
                    "name": "F2",
                    "midi": 41,
                    "time": 396.53077800000096,
                    "velocity": 0.5039370078740157,
                    "duration": 0.16467225000002372
                },
                {
                    "name": "B3",
                    "midi": 59,
                    "time": 396.695450250001,
                    "velocity": 0.4330708661417323,
                    "duration": 0.16467225000002372
                },
                {
                    "name": "C#3",
                    "midi": 49,
                    "time": 396.860122500001,
                    "velocity": 0.4330708661417323,
                    "duration": 0.16467225000002372
                },
                {
                    "name": "B3",
                    "midi": 59,
                    "time": 397.02479475000104,
                    "velocity": 0.4330708661417323,
                    "duration": 0.16467225000002372
                },
                {
                    "name": "G#3",
                    "midi": 56,
                    "time": 397.18946700000106,
                    "velocity": 0.5039370078740157,
                    "duration": 0.16467225000002372
                },
                {
                    "name": "B3",
                    "midi": 59,
                    "time": 397.3541392500011,
                    "velocity": 0.41732283464566927,
                    "duration": 0.16467225000002372
                },
                {
                    "name": "C#3",
                    "midi": 49,
                    "time": 397.5188115000011,
                    "velocity": 0.41732283464566927,
                    "duration": 0.16467225000002372
                },
                {
                    "name": "B3",
                    "midi": 59,
                    "time": 397.68348375000113,
                    "velocity": 0.41732283464566927,
                    "duration": 0.16467225000002372
                },
                {
                    "name": "F#2",
                    "midi": 42,
                    "time": 397.84815600000115,
                    "velocity": 0.4330708661417323,
                    "duration": 0.16467225000002372
                },
                {
                    "name": "A#3",
                    "midi": 58,
                    "time": 398.0128282500012,
                    "velocity": 0.36220472440944884,
                    "duration": 0.16467225000002372
                },
                {
                    "name": "C#3",
                    "midi": 49,
                    "time": 398.1775005000012,
                    "velocity": 0.3543307086614173,
                    "duration": 0.16467225000002372
                },
                {
                    "name": "A#3",
                    "midi": 58,
                    "time": 398.3421727500012,
                    "velocity": 0.3543307086614173,
                    "duration": 0.16467225000002372
                },
                {
                    "name": "F#3",
                    "midi": 54,
                    "time": 398.50684500000125,
                    "velocity": 0.4094488188976378,
                    "duration": 0.16467225000002372
                },
                {
                    "name": "A#3",
                    "midi": 58,
                    "time": 398.6715172500013,
                    "velocity": 0.3464566929133858,
                    "duration": 0.16467225000002372
                },
                {
                    "name": "C#3",
                    "midi": 49,
                    "time": 398.8361895000013,
                    "velocity": 0.31496062992125984,
                    "duration": 0.16467225000002372
                },
                {
                    "name": "A#3",
                    "midi": 58,
                    "time": 399.0008617500013,
                    "velocity": 0.31496062992125984,
                    "duration": 0.16467225000002372
                },
                {
                    "name": "C2",
                    "midi": 36,
                    "time": 399.16553400000134,
                    "velocity": 0.4251968503937008,
                    "duration": 0.16467225000002372
                },
                {
                    "name": "C3",
                    "midi": 48,
                    "time": 399.33020625000137,
                    "velocity": 0.31496062992125984,
                    "duration": 0.16467225000002372
                },
                {
                    "name": "D#3",
                    "midi": 51,
                    "time": 399.4948785000014,
                    "velocity": 0.31496062992125984,
                    "duration": 0.16467225000002372
                },
                {
                    "name": "C3",
                    "midi": 48,
                    "time": 399.6595507500014,
                    "velocity": 0.31496062992125984,
                    "duration": 0.16467225000002372
                },
                {
                    "name": "G#3",
                    "midi": 56,
                    "time": 399.82422300000144,
                    "velocity": 0.4094488188976378,
                    "duration": 0.16467225000002372
                },
                {
                    "name": "C3",
                    "midi": 48,
                    "time": 399.98889525000146,
                    "velocity": 0.25984251968503935,
                    "duration": 0.16467225000002372
                },
                {
                    "name": "A3",
                    "midi": 57,
                    "time": 400.1535675000015,
                    "velocity": 0.25984251968503935,
                    "duration": 0.16467225000002372
                },
                {
                    "name": "C3",
                    "midi": 48,
                    "time": 400.3182397500015,
                    "velocity": 0.25984251968503935,
                    "duration": 0.16467225000002372
                },
                {
                    "name": "C#2",
                    "midi": 37,
                    "time": 400.48291200000153,
                    "velocity": 0.3464566929133858,
                    "duration": 0.16467225000002372
                },
                {
                    "name": "C#3",
                    "midi": 49,
                    "time": 400.64758425000156,
                    "velocity": 0.2677165354330709,
                    "duration": 0.16467225000002372
                },
                {
                    "name": "F3",
                    "midi": 53,
                    "time": 400.8122565000016,
                    "velocity": 0.2755905511811024,
                    "duration": 0.16467225000002372
                },
                {
                    "name": "C#3",
                    "midi": 49,
                    "time": 400.9769287500016,
                    "velocity": 0.2755905511811024,
                    "duration": 0.16467225000002372
                },
                {
                    "name": "G#3",
                    "midi": 56,
                    "time": 401.14160100000163,
                    "velocity": 0.2755905511811024,
                    "duration": 0.16467225000002372
                },
                {
                    "name": "C#3",
                    "midi": 49,
                    "time": 401.30627325000165,
                    "velocity": 0.2440944881889764,
                    "duration": 0.16467225000002372
                },
                {
                    "name": "B3",
                    "midi": 59,
                    "time": 401.4709455000017,
                    "velocity": 0.2440944881889764,
                    "duration": 0.16467225000002372
                },
                {
                    "name": "C#3",
                    "midi": 49,
                    "time": 401.6356177500017,
                    "velocity": 0.2440944881889764,
                    "duration": 0.16467225000002372
                },
                {
                    "name": "F#2",
                    "midi": 42,
                    "time": 401.8002900000017,
                    "velocity": 0.2755905511811024,
                    "duration": 0.16467225000002372
                },
                {
                    "name": "C#3",
                    "midi": 49,
                    "time": 401.96496225000175,
                    "velocity": 0.2283464566929134,
                    "duration": 0.16467225000002372
                },
                {
                    "name": "A#3",
                    "midi": 58,
                    "time": 402.12963450000177,
                    "velocity": 0.2283464566929134,
                    "duration": 0.16467225000002372
                },
                {
                    "name": "F#3",
                    "midi": 54,
                    "time": 402.2943067500018,
                    "velocity": 0.2283464566929134,
                    "duration": 0.16467225000002372
                },
                {
                    "name": "C#3",
                    "midi": 49,
                    "time": 402.4589790000018,
                    "velocity": 0.2755905511811024,
                    "duration": 0.16467225000002372
                },
                {
                    "name": "F#3",
                    "midi": 54,
                    "time": 402.62365125000184,
                    "velocity": 0.2440944881889764,
                    "duration": 0.16467225000002372
                },
                {
                    "name": "C#3",
                    "midi": 49,
                    "time": 402.78832350000187,
                    "velocity": 0.2440944881889764,
                    "duration": 0.16467225000002372
                },
                {
                    "name": "A#2",
                    "midi": 46,
                    "time": 402.9529957500019,
                    "velocity": 0.2440944881889764,
                    "duration": 0.16467225000002372
                },
                {
                    "name": "A#2",
                    "midi": 46,
                    "time": 403.3646763750019,
                    "velocity": 0.47244094488188976,
                    "duration": 0.6586889999999812
                },
                {
                    "name": "A#3",
                    "midi": 58,
                    "time": 403.4470125000019,
                    "velocity": 0.5669291338582677,
                    "duration": 0.5763528749999978
                },
                {
                    "name": "A#2",
                    "midi": 46,
                    "time": 404.0233653750019,
                    "velocity": 0.49606299212598426,
                    "duration": 0.7410251249999646
                },
                {
                    "name": "A#3",
                    "midi": 58,
                    "time": 404.1057015000019,
                    "velocity": 0.5748031496062992,
                    "duration": 0.6586889999999812
                },
                {
                    "name": "F#3",
                    "midi": 54,
                    "time": 404.76439050000187,
                    "velocity": 0.4330708661417323,
                    "duration": 0.24700837500000716
                },
                {
                    "name": "F#2",
                    "midi": 42,
                    "time": 404.76439050000187,
                    "velocity": 0.36220472440944884,
                    "duration": 0.24700837500000716
                },
                {
                    "name": "D#2",
                    "midi": 39,
                    "time": 405.09373500000186,
                    "velocity": 0.3937007874015748,
                    "duration": 0.24700837500000716
                },
                {
                    "name": "D#3",
                    "midi": 51,
                    "time": 405.09373500000186,
                    "velocity": 0.4645669291338583,
                    "duration": 0.24700837500000716
                },
                {
                    "name": "A#1",
                    "midi": 34,
                    "time": 405.42307950000185,
                    "velocity": 0.3464566929133858,
                    "duration": 0.24700837500000716
                },
                {
                    "name": "A#2",
                    "midi": 46,
                    "time": 405.42307950000185,
                    "velocity": 0.4094488188976378,
                    "duration": 0.24700837500000716
                },
                {
                    "name": "A#2",
                    "midi": 46,
                    "time": 405.99943237500185,
                    "velocity": 0.47244094488188976,
                    "duration": 0.6586889999999812
                },
                {
                    "name": "A#3",
                    "midi": 58,
                    "time": 406.08176850000183,
                    "velocity": 0.5669291338582677,
                    "duration": 0.5763528749999978
                },
                {
                    "name": "A2",
                    "midi": 45,
                    "time": 406.6581213750018,
                    "velocity": 0.49606299212598426,
                    "duration": 0.41168062499997404
                },
                {
                    "name": "A3",
                    "midi": 57,
                    "time": 406.7404575000018,
                    "velocity": 0.5748031496062992,
                    "duration": 0.3293444999999906
                },
                {
                    "name": "G#2",
                    "midi": 44,
                    "time": 407.0698020000018,
                    "velocity": 0.4645669291338583,
                    "duration": 0.3293444999999906
                },
                {
                    "name": "G#3",
                    "midi": 56,
                    "time": 407.0698020000018,
                    "velocity": 0.5748031496062992,
                    "duration": 0.3293444999999906
                },
                {
                    "name": "D#2",
                    "midi": 39,
                    "time": 407.3991465000018,
                    "velocity": 0.36220472440944884,
                    "duration": 0.24700837500000716
                },
                {
                    "name": "D#3",
                    "midi": 51,
                    "time": 407.3991465000018,
                    "velocity": 0.4330708661417323,
                    "duration": 0.24700837500000716
                },
                {
                    "name": "C2",
                    "midi": 36,
                    "time": 407.7284910000018,
                    "velocity": 0.3937007874015748,
                    "duration": 0.24700837500000716
                },
                {
                    "name": "C3",
                    "midi": 48,
                    "time": 407.7284910000018,
                    "velocity": 0.4645669291338583,
                    "duration": 0.24700837500000716
                },
                {
                    "name": "F#1",
                    "midi": 30,
                    "time": 408.0578355000018,
                    "velocity": 0.3464566929133858,
                    "duration": 0.24700837500000716
                },
                {
                    "name": "F#2",
                    "midi": 42,
                    "time": 408.0578355000018,
                    "velocity": 0.4094488188976378,
                    "duration": 0.24700837500000716
                },
                {
                    "name": "F2",
                    "midi": 41,
                    "time": 408.38718000000176,
                    "velocity": 0.44881889763779526,
                    "duration": 0.16467225000002372
                },
                {
                    "name": "F3",
                    "midi": 53,
                    "time": 408.5518522500018,
                    "velocity": 0.2677165354330709,
                    "duration": 0.16467225000002372
                },
                {
                    "name": "C#3",
                    "midi": 49,
                    "time": 408.7165245000018,
                    "velocity": 0.2755905511811024,
                    "duration": 0.16467225000002372
                },
                {
                    "name": "G#2",
                    "midi": 44,
                    "time": 408.7165245000018,
                    "velocity": 0.2283464566929134,
                    "duration": 0.16467225000002372
                },
                {
                    "name": "F3",
                    "midi": 53,
                    "time": 408.88119675000183,
                    "velocity": 0.2755905511811024,
                    "duration": 0.16467225000002372
                },
                {
                    "name": "G2",
                    "midi": 43,
                    "time": 409.04586900000186,
                    "velocity": 0.30708661417322836,
                    "duration": 0.16467225000002372
                },
                {
                    "name": "F3",
                    "midi": 53,
                    "time": 409.2105412500019,
                    "velocity": 0.2755905511811024,
                    "duration": 0.16467225000002372
                },
                {
                    "name": "G#2",
                    "midi": 44,
                    "time": 409.3752135000019,
                    "velocity": 0.2283464566929134,
                    "duration": 0.16467225000002372
                },
                {
                    "name": "C#3",
                    "midi": 49,
                    "time": 409.3752135000019,
                    "velocity": 0.2755905511811024,
                    "duration": 0.16467225000002372
                },
                {
                    "name": "F3",
                    "midi": 53,
                    "time": 409.53988575000193,
                    "velocity": 0.2755905511811024,
                    "duration": 0.16467225000002372
                },
                {
                    "name": "F#2",
                    "midi": 42,
                    "time": 409.70455800000195,
                    "velocity": 0.30708661417322836,
                    "duration": 0.16467225000002372
                },
                {
                    "name": "D#3",
                    "midi": 51,
                    "time": 409.869230250002,
                    "velocity": 0.2677165354330709,
                    "duration": 0.16467225000002372
                },
                {
                    "name": "C#3",
                    "midi": 49,
                    "time": 410.033902500002,
                    "velocity": 0.2677165354330709,
                    "duration": 0.16467225000002372
                },
                {
                    "name": "A#2",
                    "midi": 46,
                    "time": 410.033902500002,
                    "velocity": 0.2204724409448819,
                    "duration": 0.16467225000002372
                },
                {
                    "name": "D#3",
                    "midi": 51,
                    "time": 410.198574750002,
                    "velocity": 0.2677165354330709,
                    "duration": 0.16467225000002372
                },
                {
                    "name": "A2",
                    "midi": 45,
                    "time": 410.36324700000205,
                    "velocity": 0.2992125984251969,
                    "duration": 0.16467225000002372
                },
                {
                    "name": "F#3",
                    "midi": 54,
                    "time": 410.52791925000207,
                    "velocity": 0.2677165354330709,
                    "duration": 0.16467225000002372
                },
                {
                    "name": "A#2",
                    "midi": 46,
                    "time": 410.6925915000021,
                    "velocity": 0.2204724409448819,
                    "duration": 0.16467225000002372
                },
                {
                    "name": "C#3",
                    "midi": 49,
                    "time": 410.6925915000021,
                    "velocity": 0.2677165354330709,
                    "duration": 0.16467225000002372
                },
                {
                    "name": "F#3",
                    "midi": 54,
                    "time": 410.8572637500021,
                    "velocity": 0.2677165354330709,
                    "duration": 0.16467225000002372
                },
                {
                    "name": "G#2",
                    "midi": 44,
                    "time": 411.02193600000214,
                    "velocity": 0.3464566929133858,
                    "duration": 0.16467225000002372
                },
                {
                    "name": "G#3",
                    "midi": 56,
                    "time": 411.18660825000217,
                    "velocity": 0.2677165354330709,
                    "duration": 0.16467225000002372
                },
                {
                    "name": "C#3",
                    "midi": 49,
                    "time": 411.3512805000022,
                    "velocity": 0.2283464566929134,
                    "duration": 0.16467225000002372
                },
                {
                    "name": "F3",
                    "midi": 53,
                    "time": 411.3512805000022,
                    "velocity": 0.2755905511811024,
                    "duration": 0.16467225000002372
                },
                {
                    "name": "G#3",
                    "midi": 56,
                    "time": 411.5159527500022,
                    "velocity": 0.2755905511811024,
                    "duration": 0.16467225000002372
                },
                {
                    "name": "G#2",
                    "midi": 44,
                    "time": 411.68062500000224,
                    "velocity": 0.2755905511811024,
                    "duration": 0.16467225000002372
                },
                {
                    "name": "G#3",
                    "midi": 56,
                    "time": 411.84529725000226,
                    "velocity": 0.2440944881889764,
                    "duration": 0.16467225000002372
                },
                {
                    "name": "C3",
                    "midi": 48,
                    "time": 412.0099695000023,
                    "velocity": 0.2047244094488189,
                    "duration": 0.16467225000002372
                },
                {
                    "name": "F#3",
                    "midi": 54,
                    "time": 412.0099695000023,
                    "velocity": 0.2440944881889764,
                    "duration": 0.16467225000002372
                },
                {
                    "name": "G#3",
                    "midi": 56,
                    "time": 412.1746417500023,
                    "velocity": 0.2440944881889764,
                    "duration": 0.16467225000002372
                },
                {
                    "name": "C#2",
                    "midi": 37,
                    "time": 412.33931400000233,
                    "velocity": 0.2755905511811024,
                    "duration": 0.16467225000002372
                },
                {
                    "name": "C#3",
                    "midi": 49,
                    "time": 412.50398625000236,
                    "velocity": 0.2047244094488189,
                    "duration": 0.16467225000002372
                },
                {
                    "name": "G#3",
                    "midi": 56,
                    "time": 412.6686585000024,
                    "velocity": 0.2047244094488189,
                    "duration": 0.16467225000002372
                },
                {
                    "name": "F3",
                    "midi": 53,
                    "time": 412.6686585000024,
                    "velocity": 0.1732283464566929,
                    "duration": 0.16467225000002372
                },
                {
                    "name": "C#3",
                    "midi": 49,
                    "time": 412.8333307500024,
                    "velocity": 0.2047244094488189,
                    "duration": 0.16467225000002372
                },
                {
                    "name": "A#3",
                    "midi": 58,
                    "time": 412.9980030000024,
                    "velocity": 0.29133858267716534,
                    "duration": 0.16467225000002372
                },
                {
                    "name": "F#3",
                    "midi": 54,
                    "time": 412.9980030000024,
                    "velocity": 0.2440944881889764,
                    "duration": 0.16467225000002372
                },
                {
                    "name": "C#3",
                    "midi": 49,
                    "time": 413.16267525000245,
                    "velocity": 0.23622047244094488,
                    "duration": 0.16467225000002372
                },
                {
                    "name": "B3",
                    "midi": 59,
                    "time": 413.3273475000025,
                    "velocity": 0.23622047244094488,
                    "duration": 0.16467225000002372
                },
                {
                    "name": "G#3",
                    "midi": 56,
                    "time": 413.3273475000025,
                    "velocity": 0.1968503937007874,
                    "duration": 0.16467225000002372
                },
                {
                    "name": "C#3",
                    "midi": 49,
                    "time": 413.4920197500025,
                    "velocity": 0.23622047244094488,
                    "duration": 0.16467225000002372
                },
                {
                    "name": "F#2",
                    "midi": 42,
                    "time": 413.6566920000025,
                    "velocity": 0.3543307086614173,
                    "duration": 0.24700837500000716
                },
                {
                    "name": "C#3",
                    "midi": 49,
                    "time": 413.90370037500253,
                    "velocity": 0.29133858267716534,
                    "duration": 0.08233612499998344
                },
                {
                    "name": "A#3",
                    "midi": 58,
                    "time": 413.9860365000025,
                    "velocity": 0.3937007874015748,
                    "duration": 0.5763528749999978
                },
                {
                    "name": "F#3",
                    "midi": 54,
                    "time": 414.5623893750025,
                    "velocity": 0.2677165354330709,
                    "duration": 0.08233612499998344
                },
                {
                    "name": "A#3",
                    "midi": 58,
                    "time": 414.6447255000025,
                    "velocity": 0.36220472440944884,
                    "duration": 0.6586889999999812
                },
                {
                    "name": "F#3",
                    "midi": 54,
                    "time": 415.3034145000025,
                    "velocity": 0.3543307086614173,
                    "duration": 0.3293444999999906
                },
                {
                    "name": "C#3",
                    "midi": 49,
                    "time": 415.63275900000247,
                    "velocity": 0.3858267716535433,
                    "duration": 0.3293444999999906
                },
                {
                    "name": "A#2",
                    "midi": 46,
                    "time": 415.96210350000246,
                    "velocity": 0.4094488188976378,
                    "duration": 0.3293444999999906
                },
                {
                    "name": "B1",
                    "midi": 35,
                    "time": 416.29144800000245,
                    "velocity": 0.4251968503937008,
                    "duration": 0.18525628125001958
                },
                {
                    "name": "B2",
                    "midi": 47,
                    "time": 416.53845637500245,
                    "velocity": 0.47244094488188976,
                    "duration": 0.08233612499998344
                },
                {
                    "name": "D#3",
                    "midi": 51,
                    "time": 416.62079250000244,
                    "velocity": 0.5196850393700787,
                    "duration": 0.5763528749999978
                },
                {
                    "name": "B2",
                    "midi": 47,
                    "time": 417.19714537500244,
                    "velocity": 0.4645669291338583,
                    "duration": 0.08233612499998344
                },
                {
                    "name": "D#3",
                    "midi": 51,
                    "time": 417.2794815000024,
                    "velocity": 0.5511811023622047,
                    "duration": 0.6586889999999812
                },
                {
                    "name": "C3",
                    "midi": 48,
                    "time": 417.9381705000024,
                    "velocity": 0.4881889763779528,
                    "duration": 0.24700837500000716
                },
                {
                    "name": "A2",
                    "midi": 45,
                    "time": 418.2675150000024,
                    "velocity": 0.41732283464566927,
                    "duration": 0.24700837500000716
                },
                {
                    "name": "C2",
                    "midi": 36,
                    "time": 418.5968595000024,
                    "velocity": 0.4015748031496063,
                    "duration": 0.24700837500000716
                },
                {
                    "name": "D#3",
                    "midi": 51,
                    "time": 418.9262040000024,
                    "velocity": 0.3937007874015748,
                    "duration": 0.16467225000002372
                },
                {
                    "name": "C4",
                    "midi": 60,
                    "time": 419.0908762500024,
                    "velocity": 0.33070866141732286,
                    "duration": 0.16467225000002372
                },
                {
                    "name": "F#3",
                    "midi": 54,
                    "time": 419.2555485000024,
                    "velocity": 0.33070866141732286,
                    "duration": 0.16467225000002372
                },
                {
                    "name": "A3",
                    "midi": 57,
                    "time": 419.2555485000024,
                    "velocity": 0.33070866141732286,
                    "duration": 0.16467225000002372
                },
                {
                    "name": "C4",
                    "midi": 60,
                    "time": 419.42022075000244,
                    "velocity": 0.33070866141732286,
                    "duration": 0.16467225000002372
                },
                {
                    "name": "F3",
                    "midi": 53,
                    "time": 419.58489300000247,
                    "velocity": 0.4251968503937008,
                    "duration": 0.16467225000002372
                },
                {
                    "name": "C4",
                    "midi": 60,
                    "time": 419.7495652500025,
                    "velocity": 0.36220472440944884,
                    "duration": 0.16467225000002372
                },
                {
                    "name": "F#3",
                    "midi": 54,
                    "time": 419.9142375000025,
                    "velocity": 0.33070866141732286,
                    "duration": 0.16467225000002372
                },
                {
                    "name": "A3",
                    "midi": 57,
                    "time": 419.9142375000025,
                    "velocity": 0.33070866141732286,
                    "duration": 0.16467225000002372
                },
                {
                    "name": "C4",
                    "midi": 60,
                    "time": 420.07890975000254,
                    "velocity": 0.33070866141732286,
                    "duration": 0.16467225000002372
                },
                {
                    "name": "C#3",
                    "midi": 49,
                    "time": 420.24358200000256,
                    "velocity": 0.4094488188976378,
                    "duration": 0.16467225000002372
                },
                {
                    "name": "C#4",
                    "midi": 61,
                    "time": 420.4082542500026,
                    "velocity": 0.30708661417322836,
                    "duration": 0.16467225000002372
                },
                {
                    "name": "F#3",
                    "midi": 54,
                    "time": 420.5729265000026,
                    "velocity": 0.30708661417322836,
                    "duration": 0.16467225000002372
                },
                {
                    "name": "A#3",
                    "midi": 58,
                    "time": 420.5729265000026,
                    "velocity": 0.30708661417322836,
                    "duration": 0.16467225000002372
                },
                {
                    "name": "C#4",
                    "midi": 61,
                    "time": 420.73759875000263,
                    "velocity": 0.30708661417322836,
                    "duration": 0.16467225000002372
                },
                {
                    "name": "F3",
                    "midi": 53,
                    "time": 420.90227100000266,
                    "velocity": 0.4015748031496063,
                    "duration": 0.16467225000002372
                },
                {
                    "name": "C#4",
                    "midi": 61,
                    "time": 421.0669432500027,
                    "velocity": 0.25984251968503935,
                    "duration": 0.16467225000002372
                },
                {
                    "name": "A#3",
                    "midi": 58,
                    "time": 421.2316155000027,
                    "velocity": 0.25984251968503935,
                    "duration": 0.16467225000002372
                },
                {
                    "name": "F#3",
                    "midi": 54,
                    "time": 421.2316155000027,
                    "velocity": 0.25984251968503935,
                    "duration": 0.16467225000002372
                },
                {
                    "name": "C#4",
                    "midi": 61,
                    "time": 421.3962877500027,
                    "velocity": 0.25984251968503935,
                    "duration": 0.16467225000002372
                },
                {
                    "name": "C#2",
                    "midi": 37,
                    "time": 421.56096000000275,
                    "velocity": 0.3464566929133858,
                    "duration": 0.12350418749997516
                },
                {
                    "name": "C#3",
                    "midi": 49,
                    "time": 421.7256322500027,
                    "velocity": 0.2677165354330709,
                    "duration": 0.16467225000002372
                },
                {
                    "name": "F3",
                    "midi": 53,
                    "time": 421.89030450000274,
                    "velocity": 0.2755905511811024,
                    "duration": 0.16467225000002372
                },
                {
                    "name": "C#3",
                    "midi": 49,
                    "time": 422.05497675000277,
                    "velocity": 0.2755905511811024,
                    "duration": 0.16467225000002372
                },
                {
                    "name": "G#3",
                    "midi": 56,
                    "time": 422.2196490000028,
                    "velocity": 0.2755905511811024,
                    "duration": 0.16467225000002372
                },
                {
                    "name": "C#3",
                    "midi": 49,
                    "time": 422.3843212500028,
                    "velocity": 0.2440944881889764,
                    "duration": 0.16467225000002372
                },
                {
                    "name": "B3",
                    "midi": 59,
                    "time": 422.54899350000284,
                    "velocity": 0.2440944881889764,
                    "duration": 0.16467225000002372
                },
                {
                    "name": "C#3",
                    "midi": 49,
                    "time": 422.71366575000286,
                    "velocity": 0.2440944881889764,
                    "duration": 0.16467225000002372
                },
                {
                    "name": "F#2",
                    "midi": 42,
                    "time": 422.8783380000029,
                    "velocity": 0.2755905511811024,
                    "duration": 0.12350418749997516
                },
                {
                    "name": "C#3",
                    "midi": 49,
                    "time": 423.04301025000285,
                    "velocity": 0.2283464566929134,
                    "duration": 0.16467225000002372
                },
                {
                    "name": "A#3",
                    "midi": 58,
                    "time": 423.2076825000029,
                    "velocity": 0.2283464566929134,
                    "duration": 0.16467225000002372
                },
                {
                    "name": "F#3",
                    "midi": 54,
                    "time": 423.3723547500029,
                    "velocity": 0.2283464566929134,
                    "duration": 0.16467225000002372
                },
                {
                    "name": "C#3",
                    "midi": 49,
                    "time": 423.5370270000029,
                    "velocity": 0.2755905511811024,
                    "duration": 0.16467225000002372
                },
                {
                    "name": "F#3",
                    "midi": 54,
                    "time": 423.70169925000295,
                    "velocity": 0.2440944881889764,
                    "duration": 0.16467225000002372
                },
                {
                    "name": "C#3",
                    "midi": 49,
                    "time": 423.86637150000297,
                    "velocity": 0.2440944881889764,
                    "duration": 0.16467225000002372
                },
                {
                    "name": "A#2",
                    "midi": 46,
                    "time": 424.031043750003,
                    "velocity": 0.2440944881889764,
                    "duration": 0.16467225000002372
                },
                {
                    "name": "A#2",
                    "midi": 46,
                    "time": 424.442724375003,
                    "velocity": 0.47244094488188976,
                    "duration": 0.6586889999999812
                },
                {
                    "name": "A#3",
                    "midi": 58,
                    "time": 424.525060500003,
                    "velocity": 0.5669291338582677,
                    "duration": 0.5763528749999978
                },
                {
                    "name": "A#2",
                    "midi": 46,
                    "time": 425.101413375003,
                    "velocity": 0.49606299212598426,
                    "duration": 0.7410251249999646
                },
                {
                    "name": "A#3",
                    "midi": 58,
                    "time": 425.183749500003,
                    "velocity": 0.5748031496062992,
                    "duration": 0.6586889999999812
                },
                {
                    "name": "F#2",
                    "midi": 42,
                    "time": 425.84243850000297,
                    "velocity": 0.36220472440944884,
                    "duration": 0.24700837500000716
                },
                {
                    "name": "F#3",
                    "midi": 54,
                    "time": 425.84243850000297,
                    "velocity": 0.4330708661417323,
                    "duration": 0.24700837500000716
                },
                {
                    "name": "D#2",
                    "midi": 39,
                    "time": 426.17178300000296,
                    "velocity": 0.3937007874015748,
                    "duration": 0.24700837500000716
                },
                {
                    "name": "D#3",
                    "midi": 51,
                    "time": 426.17178300000296,
                    "velocity": 0.4645669291338583,
                    "duration": 0.24700837500000716
                },
                {
                    "name": "A#1",
                    "midi": 34,
                    "time": 426.50112750000295,
                    "velocity": 0.3464566929133858,
                    "duration": 0.24700837500000716
                },
                {
                    "name": "A#2",
                    "midi": 46,
                    "time": 426.50112750000295,
                    "velocity": 0.4094488188976378,
                    "duration": 0.24700837500000716
                },
                {
                    "name": "A#2",
                    "midi": 46,
                    "time": 427.07748037500295,
                    "velocity": 0.47244094488188976,
                    "duration": 0.6586889999999812
                },
                {
                    "name": "A#3",
                    "midi": 58,
                    "time": 427.15981650000293,
                    "velocity": 0.5669291338582677,
                    "duration": 0.5763528749999978
                },
                {
                    "name": "A2",
                    "midi": 45,
                    "time": 427.73616937500293,
                    "velocity": 0.49606299212598426,
                    "duration": 0.41168062499997404
                },
                {
                    "name": "A3",
                    "midi": 57,
                    "time": 427.8185055000029,
                    "velocity": 0.5748031496062992,
                    "duration": 0.3293444999999906
                },
                {
                    "name": "G#2",
                    "midi": 44,
                    "time": 428.1478500000029,
                    "velocity": 0.5118110236220472,
                    "duration": 0.3293444999999906
                },
                {
                    "name": "G#3",
                    "midi": 56,
                    "time": 428.1478500000029,
                    "velocity": 0.5748031496062992,
                    "duration": 0.3293444999999906
                },
                {
                    "name": "D#2",
                    "midi": 39,
                    "time": 428.4771945000029,
                    "velocity": 0.36220472440944884,
                    "duration": 0.24700837500000716
                },
                {
                    "name": "D#3",
                    "midi": 51,
                    "time": 428.4771945000029,
                    "velocity": 0.4330708661417323,
                    "duration": 0.24700837500000716
                },
                {
                    "name": "C2",
                    "midi": 36,
                    "time": 428.8065390000029,
                    "velocity": 0.3937007874015748,
                    "duration": 0.24700837500000716
                },
                {
                    "name": "C3",
                    "midi": 48,
                    "time": 428.8065390000029,
                    "velocity": 0.4645669291338583,
                    "duration": 0.24700837500000716
                },
                {
                    "name": "F#2",
                    "midi": 42,
                    "time": 429.1358835000029,
                    "velocity": 0.4094488188976378,
                    "duration": 0.24700837500000716
                },
                {
                    "name": "F#1",
                    "midi": 30,
                    "time": 429.1358835000029,
                    "velocity": 0.3464566929133858,
                    "duration": 0.24700837500000716
                },
                {
                    "name": "F2",
                    "midi": 41,
                    "time": 429.46522800000287,
                    "velocity": 0.44881889763779526,
                    "duration": 0.16467225000002372
                },
                {
                    "name": "F3",
                    "midi": 53,
                    "time": 429.6299002500029,
                    "velocity": 0.2677165354330709,
                    "duration": 0.16467225000002372
                },
                {
                    "name": "C#3",
                    "midi": 49,
                    "time": 429.7945725000029,
                    "velocity": 0.2755905511811024,
                    "duration": 0.16467225000002372
                },
                {
                    "name": "G#2",
                    "midi": 44,
                    "time": 429.7945725000029,
                    "velocity": 0.2283464566929134,
                    "duration": 0.16467225000002372
                },
                {
                    "name": "F3",
                    "midi": 53,
                    "time": 429.95924475000294,
                    "velocity": 0.2755905511811024,
                    "duration": 0.16467225000002372
                },
                {
                    "name": "G2",
                    "midi": 43,
                    "time": 430.12391700000296,
                    "velocity": 0.30708661417322836,
                    "duration": 0.16467225000002372
                },
                {
                    "name": "F3",
                    "midi": 53,
                    "time": 430.288589250003,
                    "velocity": 0.2755905511811024,
                    "duration": 0.16467225000002372
                },
                {
                    "name": "C#3",
                    "midi": 49,
                    "time": 430.453261500003,
                    "velocity": 0.2755905511811024,
                    "duration": 0.16467225000002372
                },
                {
                    "name": "G#2",
                    "midi": 44,
                    "time": 430.453261500003,
                    "velocity": 0.2283464566929134,
                    "duration": 0.16467225000002372
                },
                {
                    "name": "F3",
                    "midi": 53,
                    "time": 430.61793375000303,
                    "velocity": 0.2755905511811024,
                    "duration": 0.16467225000002372
                },
                {
                    "name": "F#2",
                    "midi": 42,
                    "time": 430.78260600000306,
                    "velocity": 0.30708661417322836,
                    "duration": 0.16467225000002372
                },
                {
                    "name": "D#3",
                    "midi": 51,
                    "time": 430.9472782500031,
                    "velocity": 0.2677165354330709,
                    "duration": 0.16467225000002372
                },
                {
                    "name": "A#2",
                    "midi": 46,
                    "time": 431.1119505000031,
                    "velocity": 0.2204724409448819,
                    "duration": 0.16467225000002372
                },
                {
                    "name": "C#3",
                    "midi": 49,
                    "time": 431.1119505000031,
                    "velocity": 0.2677165354330709,
                    "duration": 0.16467225000002372
                },
                {
                    "name": "D#3",
                    "midi": 51,
                    "time": 431.2766227500031,
                    "velocity": 0.2677165354330709,
                    "duration": 0.16467225000002372
                },
                {
                    "name": "A2",
                    "midi": 45,
                    "time": 431.44129500000315,
                    "velocity": 0.2992125984251969,
                    "duration": 0.16467225000002372
                },
                {
                    "name": "F#3",
                    "midi": 54,
                    "time": 431.6059672500032,
                    "velocity": 0.2677165354330709,
                    "duration": 0.16467225000002372
                },
                {
                    "name": "A#2",
                    "midi": 46,
                    "time": 431.7706395000032,
                    "velocity": 0.2204724409448819,
                    "duration": 0.16467225000002372
                },
                {
                    "name": "C#3",
                    "midi": 49,
                    "time": 431.7706395000032,
                    "velocity": 0.2677165354330709,
                    "duration": 0.16467225000002372
                },
                {
                    "name": "F#3",
                    "midi": 54,
                    "time": 431.9353117500032,
                    "velocity": 0.2677165354330709,
                    "duration": 0.16467225000002372
                },
                {
                    "name": "G#2",
                    "midi": 44,
                    "time": 432.09998400000325,
                    "velocity": 0.3464566929133858,
                    "duration": 0.16467225000002372
                },
                {
                    "name": "G#3",
                    "midi": 56,
                    "time": 432.26465625000327,
                    "velocity": 0.2677165354330709,
                    "duration": 0.16467225000002372
                },
                {
                    "name": "F3",
                    "midi": 53,
                    "time": 432.4293285000033,
                    "velocity": 0.2755905511811024,
                    "duration": 0.16467225000002372
                },
                {
                    "name": "C#3",
                    "midi": 49,
                    "time": 432.4293285000033,
                    "velocity": 0.2283464566929134,
                    "duration": 0.16467225000002372
                },
                {
                    "name": "G#3",
                    "midi": 56,
                    "time": 432.5940007500033,
                    "velocity": 0.2755905511811024,
                    "duration": 0.16467225000002372
                },
                {
                    "name": "G#2",
                    "midi": 44,
                    "time": 432.75867300000334,
                    "velocity": 0.2755905511811024,
                    "duration": 0.16467225000002372
                },
                {
                    "name": "G#3",
                    "midi": 56,
                    "time": 432.92334525000336,
                    "velocity": 0.2440944881889764,
                    "duration": 0.16467225000002372
                },
                {
                    "name": "C3",
                    "midi": 48,
                    "time": 433.0880175000034,
                    "velocity": 0.2047244094488189,
                    "duration": 0.16467225000002372
                },
                {
                    "name": "F#3",
                    "midi": 54,
                    "time": 433.0880175000034,
                    "velocity": 0.2440944881889764,
                    "duration": 0.16467225000002372
                },
                {
                    "name": "G#3",
                    "midi": 56,
                    "time": 433.2526897500034,
                    "velocity": 0.2440944881889764,
                    "duration": 0.16467225000002372
                },
                {
                    "name": "C#2",
                    "midi": 37,
                    "time": 433.41736200000344,
                    "velocity": 0.2755905511811024,
                    "duration": 0.16467225000002372
                },
                {
                    "name": "C#3",
                    "midi": 49,
                    "time": 433.58203425000346,
                    "velocity": 0.2047244094488189,
                    "duration": 0.16467225000002372
                },
                {
                    "name": "G#3",
                    "midi": 56,
                    "time": 433.7467065000035,
                    "velocity": 0.2047244094488189,
                    "duration": 0.16467225000002372
                },
                {
                    "name": "F3",
                    "midi": 53,
                    "time": 433.7467065000035,
                    "velocity": 0.1732283464566929,
                    "duration": 0.16467225000002372
                },
                {
                    "name": "C#3",
                    "midi": 49,
                    "time": 433.9113787500035,
                    "velocity": 0.2047244094488189,
                    "duration": 0.16467225000002372
                },
                {
                    "name": "F#3",
                    "midi": 54,
                    "time": 434.07605100000353,
                    "velocity": 0.2440944881889764,
                    "duration": 0.16467225000002372
                },
                {
                    "name": "A#3",
                    "midi": 58,
                    "time": 434.07605100000353,
                    "velocity": 0.29133858267716534,
                    "duration": 0.16467225000002372
                },
                {
                    "name": "C#3",
                    "midi": 49,
                    "time": 434.24072325000355,
                    "velocity": 0.23622047244094488,
                    "duration": 0.16467225000002372
                },
                {
                    "name": "B3",
                    "midi": 59,
                    "time": 434.4053955000036,
                    "velocity": 0.23622047244094488,
                    "duration": 0.16467225000002372
                },
                {
                    "name": "G#3",
                    "midi": 56,
                    "time": 434.4053955000036,
                    "velocity": 0.1968503937007874,
                    "duration": 0.16467225000002372
                },
                {
                    "name": "C#3",
                    "midi": 49,
                    "time": 434.5700677500036,
                    "velocity": 0.23622047244094488,
                    "duration": 0.16467225000002372
                },
                {
                    "name": "F#2",
                    "midi": 42,
                    "time": 434.7347400000036,
                    "velocity": 0.3543307086614173,
                    "duration": 0.24700837500000716
                },
                {
                    "name": "C#3",
                    "midi": 49,
                    "time": 434.98174837500363,
                    "velocity": 0.29133858267716534,
                    "duration": 0.08233612499998344
                },
                {
                    "name": "A#3",
                    "midi": 58,
                    "time": 435.0640845000036,
                    "velocity": 0.3937007874015748,
                    "duration": 0.5763528749999978
                },
                {
                    "name": "F#3",
                    "midi": 54,
                    "time": 435.6404373750036,
                    "velocity": 0.2677165354330709,
                    "duration": 0.08233612499998344
                },
                {
                    "name": "A#3",
                    "midi": 58,
                    "time": 435.7227735000036,
                    "velocity": 0.36220472440944884,
                    "duration": 0.6586889999999812
                },
                {
                    "name": "F#3",
                    "midi": 54,
                    "time": 436.3814625000036,
                    "velocity": 0.3543307086614173,
                    "duration": 0.3293444999999906
                },
                {
                    "name": "C#3",
                    "midi": 49,
                    "time": 436.71080700000357,
                    "velocity": 0.3858267716535433,
                    "duration": 0.3293444999999906
                },
                {
                    "name": "A#2",
                    "midi": 46,
                    "time": 437.04015150000356,
                    "velocity": 0.4094488188976378,
                    "duration": 0.3293444999999906
                },
                {
                    "name": "B1",
                    "midi": 35,
                    "time": 437.36949600000355,
                    "velocity": 0.4251968503937008,
                    "duration": 0.24700837500000716
                },
                {
                    "name": "B2",
                    "midi": 47,
                    "time": 437.61650437500356,
                    "velocity": 0.47244094488188976,
                    "duration": 0.08233612499998344
                },
                {
                    "name": "D#3",
                    "midi": 51,
                    "time": 437.69884050000354,
                    "velocity": 0.5196850393700787,
                    "duration": 0.5763528749999978
                },
                {
                    "name": "B2",
                    "midi": 47,
                    "time": 438.27519337500354,
                    "velocity": 0.4645669291338583,
                    "duration": 0.08233612499998344
                },
                {
                    "name": "D#3",
                    "midi": 51,
                    "time": 438.3575295000035,
                    "velocity": 0.5511811023622047,
                    "duration": 0.6586889999999812
                },
                {
                    "name": "C3",
                    "midi": 48,
                    "time": 439.0162185000035,
                    "velocity": 0.4881889763779528,
                    "duration": 0.3293444999999906
                },
                {
                    "name": "A2",
                    "midi": 45,
                    "time": 439.3455630000035,
                    "velocity": 0.41732283464566927,
                    "duration": 0.3293444999999906
                },
                {
                    "name": "C2",
                    "midi": 36,
                    "time": 439.6749075000035,
                    "velocity": 0.4015748031496063,
                    "duration": 0.3293444999999906
                },
                {
                    "name": "D#3",
                    "midi": 51,
                    "time": 440.0042520000035,
                    "velocity": 0.3937007874015748,
                    "duration": 0.16467225000002372
                },
                {
                    "name": "C4",
                    "midi": 60,
                    "time": 440.1689242500035,
                    "velocity": 0.33070866141732286,
                    "duration": 0.16467225000002372
                },
                {
                    "name": "F#3",
                    "midi": 54,
                    "time": 440.3335965000035,
                    "velocity": 0.33070866141732286,
                    "duration": 0.16467225000002372
                },
                {
                    "name": "A3",
                    "midi": 57,
                    "time": 440.3335965000035,
                    "velocity": 0.33070866141732286,
                    "duration": 0.16467225000002372
                },
                {
                    "name": "C4",
                    "midi": 60,
                    "time": 440.49826875000355,
                    "velocity": 0.33070866141732286,
                    "duration": 0.16467225000002372
                },
                {
                    "name": "F3",
                    "midi": 53,
                    "time": 440.66294100000357,
                    "velocity": 0.4251968503937008,
                    "duration": 0.16467225000002372
                },
                {
                    "name": "C4",
                    "midi": 60,
                    "time": 440.8276132500036,
                    "velocity": 0.36220472440944884,
                    "duration": 0.16467225000002372
                },
                {
                    "name": "A3",
                    "midi": 57,
                    "time": 440.9922855000036,
                    "velocity": 0.33070866141732286,
                    "duration": 0.16467225000002372
                },
                {
                    "name": "F#3",
                    "midi": 54,
                    "time": 440.9922855000036,
                    "velocity": 0.33070866141732286,
                    "duration": 0.16467225000002372
                },
                {
                    "name": "C4",
                    "midi": 60,
                    "time": 441.15695775000364,
                    "velocity": 0.33070866141732286,
                    "duration": 0.16467225000002372
                },
                {
                    "name": "C#3",
                    "midi": 49,
                    "time": 441.32163000000367,
                    "velocity": 0.4094488188976378,
                    "duration": 0.16467225000002372
                },
                {
                    "name": "C#4",
                    "midi": 61,
                    "time": 441.4863022500037,
                    "velocity": 0.30708661417322836,
                    "duration": 0.16467225000002372
                },
                {
                    "name": "F#3",
                    "midi": 54,
                    "time": 441.6509745000037,
                    "velocity": 0.30708661417322836,
                    "duration": 0.16467225000002372
                },
                {
                    "name": "A#3",
                    "midi": 58,
                    "time": 441.6509745000037,
                    "velocity": 0.30708661417322836,
                    "duration": 0.16467225000002372
                },
                {
                    "name": "C#4",
                    "midi": 61,
                    "time": 441.81564675000374,
                    "velocity": 0.30708661417322836,
                    "duration": 0.16467225000002372
                },
                {
                    "name": "F3",
                    "midi": 53,
                    "time": 441.98031900000376,
                    "velocity": 0.4015748031496063,
                    "duration": 0.16467225000002372
                },
                {
                    "name": "C#4",
                    "midi": 61,
                    "time": 442.1449912500038,
                    "velocity": 0.25984251968503935,
                    "duration": 0.16467225000002372
                },
                {
                    "name": "F#3",
                    "midi": 54,
                    "time": 442.3096635000038,
                    "velocity": 0.25984251968503935,
                    "duration": 0.16467225000002372
                },
                {
                    "name": "A#3",
                    "midi": 58,
                    "time": 442.3096635000038,
                    "velocity": 0.25984251968503935,
                    "duration": 0.16467225000002372
                },
                {
                    "name": "C#4",
                    "midi": 61,
                    "time": 442.47433575000383,
                    "velocity": 0.25984251968503935,
                    "duration": 0.16467225000002372
                },
                {
                    "name": "C#2",
                    "midi": 37,
                    "time": 442.63900800000386,
                    "velocity": 0.3464566929133858,
                    "duration": 0.12350418749997516
                },
                {
                    "name": "C#3",
                    "midi": 49,
                    "time": 442.8036802500038,
                    "velocity": 0.2677165354330709,
                    "duration": 0.16467225000002372
                },
                {
                    "name": "F3",
                    "midi": 53,
                    "time": 442.96835250000385,
                    "velocity": 0.2755905511811024,
                    "duration": 0.16467225000002372
                },
                {
                    "name": "C#3",
                    "midi": 49,
                    "time": 443.13302475000387,
                    "velocity": 0.2755905511811024,
                    "duration": 0.16467225000002372
                },
                {
                    "name": "G#3",
                    "midi": 56,
                    "time": 443.2976970000039,
                    "velocity": 0.2755905511811024,
                    "duration": 0.16467225000002372
                },
                {
                    "name": "C#3",
                    "midi": 49,
                    "time": 443.4623692500039,
                    "velocity": 0.2440944881889764,
                    "duration": 0.16467225000002372
                },
                {
                    "name": "B3",
                    "midi": 59,
                    "time": 443.62704150000394,
                    "velocity": 0.2440944881889764,
                    "duration": 0.16467225000002372
                },
                {
                    "name": "C#3",
                    "midi": 49,
                    "time": 443.79171375000396,
                    "velocity": 0.2440944881889764,
                    "duration": 0.16467225000002372
                },
                {
                    "name": "F#2",
                    "midi": 42,
                    "time": 443.956386000004,
                    "velocity": 0.2755905511811024,
                    "duration": 0.12350418749997516
                },
                {
                    "name": "A#3",
                    "midi": 58,
                    "time": 444.12105825000395,
                    "velocity": 0.2283464566929134,
                    "duration": 0.16467225000002372
                },
                {
                    "name": "C#3",
                    "midi": 49,
                    "time": 444.285730500004,
                    "velocity": 0.2283464566929134,
                    "duration": 0.16467225000002372
                },
                {
                    "name": "A#3",
                    "midi": 58,
                    "time": 444.450402750004,
                    "velocity": 0.2283464566929134,
                    "duration": 0.16467225000002372
                },
                {
                    "name": "F#3",
                    "midi": 54,
                    "time": 444.615075000004,
                    "velocity": 0.2755905511811024,
                    "duration": 0.16467225000002372
                },
                {
                    "name": "A#3",
                    "midi": 58,
                    "time": 444.77974725000405,
                    "velocity": 0.2440944881889764,
                    "duration": 0.16467225000002372
                },
                {
                    "name": "C#3",
                    "midi": 49,
                    "time": 444.9444195000041,
                    "velocity": 0.2440944881889764,
                    "duration": 0.16467225000002372
                },
                {
                    "name": "A#3",
                    "midi": 58,
                    "time": 445.1090917500041,
                    "velocity": 0.2440944881889764,
                    "duration": 0.16467225000002372
                },
                {
                    "name": "C#2",
                    "midi": 37,
                    "time": 445.2737640000041,
                    "velocity": 0.3464566929133858,
                    "duration": 0.12350418749997516
                },
                {
                    "name": "B3",
                    "midi": 59,
                    "time": 445.4384362500041,
                    "velocity": 0.25196850393700787,
                    "duration": 0.16467225000002372
                },
                {
                    "name": "C#3",
                    "midi": 49,
                    "time": 445.6031085000041,
                    "velocity": 0.2125984251968504,
                    "duration": 0.16467225000002372
                },
                {
                    "name": "F3",
                    "midi": 53,
                    "time": 445.6031085000041,
                    "velocity": 0.25196850393700787,
                    "duration": 0.16467225000002372
                },
                {
                    "name": "B3",
                    "midi": 59,
                    "time": 445.76778075000414,
                    "velocity": 0.25196850393700787,
                    "duration": 0.16467225000002372
                },
                {
                    "name": "F3",
                    "midi": 53,
                    "time": 445.93245300000416,
                    "velocity": 0.2755905511811024,
                    "duration": 0.16467225000002372
                },
                {
                    "name": "D3",
                    "midi": 50,
                    "time": 445.93245300000416,
                    "velocity": 0.2283464566929134,
                    "duration": 0.16467225000002372
                },
                {
                    "name": "B3",
                    "midi": 59,
                    "time": 446.0971252500042,
                    "velocity": 0.2440944881889764,
                    "duration": 0.16467225000002372
                },
                {
                    "name": "C#3",
                    "midi": 49,
                    "time": 446.2617975000042,
                    "velocity": 0.2047244094488189,
                    "duration": 0.16467225000002372
                },
                {
                    "name": "F3",
                    "midi": 53,
                    "time": 446.2617975000042,
                    "velocity": 0.2440944881889764,
                    "duration": 0.16467225000002372
                },
                {
                    "name": "B3",
                    "midi": 59,
                    "time": 446.42646975000423,
                    "velocity": 0.2440944881889764,
                    "duration": 0.16467225000002372
                },
                {
                    "name": "F#2",
                    "midi": 42,
                    "time": 446.59114200000425,
                    "velocity": 0.2755905511811024,
                    "duration": 0.12350418749997516
                },
                {
                    "name": "A#3",
                    "midi": 58,
                    "time": 446.7558142500042,
                    "velocity": 0.2283464566929134,
                    "duration": 0.16467225000002372
                },
                {
                    "name": "C#3",
                    "midi": 49,
                    "time": 446.92048650000424,
                    "velocity": 0.2283464566929134,
                    "duration": 0.16467225000002372
                },
                {
                    "name": "A#3",
                    "midi": 58,
                    "time": 447.08515875000427,
                    "velocity": 0.2283464566929134,
                    "duration": 0.16467225000002372
                },
                {
                    "name": "F#3",
                    "midi": 54,
                    "time": 447.2498310000043,
                    "velocity": 0.2755905511811024,
                    "duration": 0.16467225000002372
                },
                {
                    "name": "A#3",
                    "midi": 58,
                    "time": 447.4145032500043,
                    "velocity": 0.23622047244094488,
                    "duration": 0.16467225000002372
                },
                {
                    "name": "C#3",
                    "midi": 49,
                    "time": 447.57917550000434,
                    "velocity": 0.23622047244094488,
                    "duration": 0.16467225000002372
                },
                {
                    "name": "A#3",
                    "midi": 58,
                    "time": 447.74384775000436,
                    "velocity": 0.23622047244094488,
                    "duration": 0.16467225000002372
                },
                {
                    "name": "C#2",
                    "midi": 37,
                    "time": 447.9085200000044,
                    "velocity": 0.3464566929133858,
                    "duration": 0.12350418749997516
                },
                {
                    "name": "B3",
                    "midi": 59,
                    "time": 448.07319225000435,
                    "velocity": 0.23622047244094488,
                    "duration": 0.16467225000002372
                },
                {
                    "name": "C#3",
                    "midi": 49,
                    "time": 448.2378645000044,
                    "velocity": 0.23622047244094488,
                    "duration": 0.16467225000002372
                },
                {
                    "name": "F3",
                    "midi": 53,
                    "time": 448.2378645000044,
                    "velocity": 0.23622047244094488,
                    "duration": 0.16467225000002372
                },
                {
                    "name": "B3",
                    "midi": 59,
                    "time": 448.4025367500044,
                    "velocity": 0.23622047244094488,
                    "duration": 0.16467225000002372
                },
                {
                    "name": "D3",
                    "midi": 50,
                    "time": 448.5672090000044,
                    "velocity": 0.2283464566929134,
                    "duration": 0.16467225000002372
                },
                {
                    "name": "F3",
                    "midi": 53,
                    "time": 448.5672090000044,
                    "velocity": 0.2755905511811024,
                    "duration": 0.16467225000002372
                },
                {
                    "name": "B3",
                    "midi": 59,
                    "time": 448.73188125000445,
                    "velocity": 0.2283464566929134,
                    "duration": 0.16467225000002372
                },
                {
                    "name": "F3",
                    "midi": 53,
                    "time": 448.8965535000045,
                    "velocity": 0.2283464566929134,
                    "duration": 0.16467225000002372
                },
                {
                    "name": "C#3",
                    "midi": 49,
                    "time": 448.8965535000045,
                    "velocity": 0.2283464566929134,
                    "duration": 0.16467225000002372
                },
                {
                    "name": "B3",
                    "midi": 59,
                    "time": 449.0612257500045,
                    "velocity": 0.2440944881889764,
                    "duration": 0.16467225000002372
                },
                {
                    "name": "F#2",
                    "midi": 42,
                    "time": 449.2258980000045,
                    "velocity": 0.2755905511811024,
                    "duration": 0.12350418749997516
                },
                {
                    "name": "A#3",
                    "midi": 58,
                    "time": 449.3905702500045,
                    "velocity": 0.2283464566929134,
                    "duration": 0.16467225000002372
                },
                {
                    "name": "C#3",
                    "midi": 49,
                    "time": 449.5552425000045,
                    "velocity": 0.2283464566929134,
                    "duration": 0.16467225000002372
                },
                {
                    "name": "A#3",
                    "midi": 58,
                    "time": 449.71991475000453,
                    "velocity": 0.2283464566929134,
                    "duration": 0.16467225000002372
                },
                {
                    "name": "F#3",
                    "midi": 54,
                    "time": 449.88458700000456,
                    "velocity": 0.2755905511811024,
                    "duration": 0.16467225000002372
                },
                {
                    "name": "A#3",
                    "midi": 58,
                    "time": 450.0492592500046,
                    "velocity": 0.2283464566929134,
                    "duration": 0.16467225000002372
                },
                {
                    "name": "C#3",
                    "midi": 49,
                    "time": 450.2139315000046,
                    "velocity": 0.2283464566929134,
                    "duration": 0.16467225000002372
                },
                {
                    "name": "A#3",
                    "midi": 58,
                    "time": 450.37860375000463,
                    "velocity": 0.2283464566929134,
                    "duration": 0.16467225000002372
                },
                {
                    "name": "F#2",
                    "midi": 42,
                    "time": 450.54327600000465,
                    "velocity": 0.2755905511811024,
                    "duration": 0.12350418749997516
                },
                {
                    "name": "A#3",
                    "midi": 58,
                    "time": 450.7079482500046,
                    "velocity": 0.2204724409448819,
                    "duration": 0.16467225000002372
                },
                {
                    "name": "C#3",
                    "midi": 49,
                    "time": 450.87262050000464,
                    "velocity": 0.2204724409448819,
                    "duration": 0.16467225000002372
                },
                {
                    "name": "A#3",
                    "midi": 58,
                    "time": 451.03729275000467,
                    "velocity": 0.2204724409448819,
                    "duration": 0.16467225000002372
                },
                {
                    "name": "F#3",
                    "midi": 54,
                    "time": 451.2019650000047,
                    "velocity": 0.2755905511811024,
                    "duration": 0.16467225000002372
                },
                {
                    "name": "A#3",
                    "midi": 58,
                    "time": 451.3666372500047,
                    "velocity": 0.2440944881889764,
                    "duration": 0.16467225000002372
                },
                {
                    "name": "C#3",
                    "midi": 49,
                    "time": 451.53130950000474,
                    "velocity": 0.2440944881889764,
                    "duration": 0.16467225000002372
                },
                {
                    "name": "A#3",
                    "midi": 58,
                    "time": 451.69598175000476,
                    "velocity": 0.2440944881889764,
                    "duration": 0.16467225000002372
                },
                {
                    "name": "F#2",
                    "midi": 42,
                    "time": 451.8606540000048,
                    "velocity": 0.31496062992125984,
                    "duration": 0.12350418749997516
                },
                {
                    "name": "A#3",
                    "midi": 58,
                    "time": 452.02532625000475,
                    "velocity": 0.28346456692913385,
                    "duration": 0.16467225000002372
                },
                {
                    "name": "C#3",
                    "midi": 49,
                    "time": 452.1899985000048,
                    "velocity": 0.28346456692913385,
                    "duration": 0.16467225000002372
                },
                {
                    "name": "A#3",
                    "midi": 58,
                    "time": 452.3546707500048,
                    "velocity": 0.28346456692913385,
                    "duration": 0.16467225000002372
                },
                {
                    "name": "F#3",
                    "midi": 54,
                    "time": 452.5193430000048,
                    "velocity": 0.2755905511811024,
                    "duration": 0.16467225000002372
                },
                {
                    "name": "A#3",
                    "midi": 58,
                    "time": 452.68401525000485,
                    "velocity": 0.2440944881889764,
                    "duration": 0.16467225000002372
                },
                {
                    "name": "C#3",
                    "midi": 49,
                    "time": 452.84868750000487,
                    "velocity": 0.2440944881889764,
                    "duration": 0.16467225000002372
                },
                {
                    "name": "A#3",
                    "midi": 58,
                    "time": 453.0133597500049,
                    "velocity": 0.2440944881889764,
                    "duration": 0.16467225000002372
                },
                {
                    "name": "F2",
                    "midi": 41,
                    "time": 453.1780320000049,
                    "velocity": 0.2755905511811024,
                    "duration": 0.12350418749997516
                },
                {
                    "name": "A#3",
                    "midi": 58,
                    "time": 453.3427042500049,
                    "velocity": 0.2204724409448819,
                    "duration": 0.16467225000002372
                },
                {
                    "name": "D3",
                    "midi": 50,
                    "time": 453.5073765000049,
                    "velocity": 0.2204724409448819,
                    "duration": 0.16467225000002372
                },
                {
                    "name": "A#3",
                    "midi": 58,
                    "time": 453.67204875000493,
                    "velocity": 0.2204724409448819,
                    "duration": 0.16467225000002372
                },
                {
                    "name": "F3",
                    "midi": 53,
                    "time": 453.83672100000496,
                    "velocity": 0.2755905511811024,
                    "duration": 0.16467225000002372
                },
                {
                    "name": "A#3",
                    "midi": 58,
                    "time": 454.001393250005,
                    "velocity": 0.2440944881889764,
                    "duration": 0.16467225000002372
                },
                {
                    "name": "D3",
                    "midi": 50,
                    "time": 454.166065500005,
                    "velocity": 0.2440944881889764,
                    "duration": 0.16467225000002372
                },
                {
                    "name": "A#3",
                    "midi": 58,
                    "time": 454.330737750005,
                    "velocity": 0.2440944881889764,
                    "duration": 0.16467225000002372
                },
                {
                    "name": "F2",
                    "midi": 41,
                    "time": 454.49541000000505,
                    "velocity": 0.31496062992125984,
                    "duration": 0.12350418749997516
                },
                {
                    "name": "A#3",
                    "midi": 58,
                    "time": 454.660082250005,
                    "velocity": 0.28346456692913385,
                    "duration": 0.16467225000002372
                },
                {
                    "name": "D3",
                    "midi": 50,
                    "time": 454.82475450000504,
                    "velocity": 0.28346456692913385,
                    "duration": 0.16467225000002372
                },
                {
                    "name": "A#3",
                    "midi": 58,
                    "time": 454.98942675000507,
                    "velocity": 0.28346456692913385,
                    "duration": 0.16467225000002372
                },
                {
                    "name": "F3",
                    "midi": 53,
                    "time": 455.1540990000051,
                    "velocity": 0.2755905511811024,
                    "duration": 0.16467225000002372
                },
                {
                    "name": "A#3",
                    "midi": 58,
                    "time": 455.3187712500051,
                    "velocity": 0.2283464566929134,
                    "duration": 0.16467225000002372
                },
                {
                    "name": "D3",
                    "midi": 50,
                    "time": 455.48344350000514,
                    "velocity": 0.2283464566929134,
                    "duration": 0.16467225000002372
                },
                {
                    "name": "A#3",
                    "midi": 58,
                    "time": 455.64811575000516,
                    "velocity": 0.2283464566929134,
                    "duration": 0.16467225000002372
                },
                {
                    "name": "F2",
                    "midi": 41,
                    "time": 455.8127880000052,
                    "velocity": 0.2755905511811024,
                    "duration": 0.12350418749997516
                },
                {
                    "name": "A3",
                    "midi": 57,
                    "time": 455.97746025000515,
                    "velocity": 0.2204724409448819,
                    "duration": 0.16467225000002372
                },
                {
                    "name": "D#3",
                    "midi": 51,
                    "time": 456.1421325000052,
                    "velocity": 0.2204724409448819,
                    "duration": 0.16467225000002372
                },
                {
                    "name": "A3",
                    "midi": 57,
                    "time": 456.3068047500052,
                    "velocity": 0.2204724409448819,
                    "duration": 0.16467225000002372
                },
                {
                    "name": "F3",
                    "midi": 53,
                    "time": 456.4714770000052,
                    "velocity": 0.2755905511811024,
                    "duration": 0.16467225000002372
                },
                {
                    "name": "A3",
                    "midi": 57,
                    "time": 456.63614925000525,
                    "velocity": 0.2283464566929134,
                    "duration": 0.16467225000002372
                },
                {
                    "name": "D#3",
                    "midi": 51,
                    "time": 456.80082150000527,
                    "velocity": 0.2283464566929134,
                    "duration": 0.16467225000002372
                },
                {
                    "name": "A3",
                    "midi": 57,
                    "time": 456.9654937500053,
                    "velocity": 0.2283464566929134,
                    "duration": 0.16467225000002372
                },
                {
                    "name": "F2",
                    "midi": 41,
                    "time": 457.1301660000053,
                    "velocity": 0.28346456692913385,
                    "duration": 0.12350418749997516
                },
                {
                    "name": "A3",
                    "midi": 57,
                    "time": 457.2948382500053,
                    "velocity": 0.23622047244094488,
                    "duration": 0.16467225000002372
                },
                {
                    "name": "D#3",
                    "midi": 51,
                    "time": 457.4595105000053,
                    "velocity": 0.23622047244094488,
                    "duration": 0.16467225000002372
                },
                {
                    "name": "A3",
                    "midi": 57,
                    "time": 457.62418275000533,
                    "velocity": 0.2047244094488189,
                    "duration": 0.16467225000002372
                },
                {
                    "name": "F3",
                    "midi": 53,
                    "time": 457.78885500000536,
                    "velocity": 0.25984251968503935,
                    "duration": 0.49401675000007117
                },
                {
                    "name": "A3",
                    "midi": 57,
                    "time": 457.9535272500054,
                    "velocity": 0.18110236220472442,
                    "duration": 0.32934450000004745
                },
                {
                    "name": "D#3",
                    "midi": 51,
                    "time": 458.1181995000054,
                    "velocity": 0.18110236220472442,
                    "duration": 0.16467225000002372
                },
                {
                    "name": "A#2",
                    "midi": 46,
                    "time": 458.44754400000545,
                    "velocity": 0.31496062992125984,
                    "duration": 0.16467225000002372
                },
                {
                    "name": "D4",
                    "midi": 62,
                    "time": 458.7768885000055,
                    "velocity": 0.2677165354330709,
                    "duration": 0.6586889999999812
                },
                {
                    "name": "A#3",
                    "midi": 58,
                    "time": 458.7768885000055,
                    "velocity": 0.2204724409448819,
                    "duration": 0.6586889999999812
                },
                {
                    "name": "F3",
                    "midi": 53,
                    "time": 458.7768885000055,
                    "velocity": 0.2204724409448819,
                    "duration": 0.6586889999999812
                },
                {
                    "name": "F3",
                    "midi": 53,
                    "time": 459.4355775000055,
                    "velocity": 0.2204724409448819,
                    "duration": 0.3293444999999906
                },
                {
                    "name": "A#3",
                    "midi": 58,
                    "time": 459.4355775000055,
                    "velocity": 0.2204724409448819,
                    "duration": 0.3293444999999906
                },
                {
                    "name": "D4",
                    "midi": 62,
                    "time": 459.4355775000055,
                    "velocity": 0.2677165354330709,
                    "duration": 0.3293444999999906
                },
                {
                    "name": "D3",
                    "midi": 50,
                    "time": 459.76492200000547,
                    "velocity": 0.31496062992125984,
                    "duration": 0.16467225000002372
                },
                {
                    "name": "F3",
                    "midi": 53,
                    "time": 460.0942665000055,
                    "velocity": 0.1889763779527559,
                    "duration": 0.6586889999999812
                },
                {
                    "name": "A#3",
                    "midi": 58,
                    "time": 460.0942665000055,
                    "velocity": 0.1889763779527559,
                    "duration": 0.6586889999999812
                },
                {
                    "name": "F4",
                    "midi": 65,
                    "time": 460.0942665000055,
                    "velocity": 0.2283464566929134,
                    "duration": 0.6586889999999812
                },
                {
                    "name": "F3",
                    "midi": 53,
                    "time": 460.7529555000055,
                    "velocity": 0.1889763779527559,
                    "duration": 0.3293444999999906
                },
                {
                    "name": "A#3",
                    "midi": 58,
                    "time": 460.7529555000055,
                    "velocity": 0.1889763779527559,
                    "duration": 0.3293444999999906
                },
                {
                    "name": "F4",
                    "midi": 65,
                    "time": 460.7529555000055,
                    "velocity": 0.2283464566929134,
                    "duration": 0.3293444999999906
                },
                {
                    "name": "C3",
                    "midi": 48,
                    "time": 461.0823000000055,
                    "velocity": 0.31496062992125984,
                    "duration": 0.16467225000002372
                },
                {
                    "name": "D#4",
                    "midi": 63,
                    "time": 461.41164450000554,
                    "velocity": 0.2677165354330709,
                    "duration": 0.6586889999999812
                },
                {
                    "name": "A3",
                    "midi": 57,
                    "time": 461.41164450000554,
                    "velocity": 0.2204724409448819,
                    "duration": 0.6586889999999812
                },
                {
                    "name": "F3",
                    "midi": 53,
                    "time": 461.41164450000554,
                    "velocity": 0.2204724409448819,
                    "duration": 0.6586889999999812
                },
                {
                    "name": "F3",
                    "midi": 53,
                    "time": 462.0703335000055,
                    "velocity": 0.2204724409448819,
                    "duration": 0.3293444999999906
                },
                {
                    "name": "A3",
                    "midi": 57,
                    "time": 462.0703335000055,
                    "velocity": 0.2204724409448819,
                    "duration": 0.3293444999999906
                },
                {
                    "name": "D#4",
                    "midi": 63,
                    "time": 462.0703335000055,
                    "velocity": 0.2677165354330709,
                    "duration": 0.3293444999999906
                },
                {
                    "name": "F2",
                    "midi": 41,
                    "time": 462.3996780000055,
                    "velocity": 0.31496062992125984,
                    "duration": 0.16467225000002372
                },
                {
                    "name": "F3",
                    "midi": 53,
                    "time": 462.72902250000556,
                    "velocity": 0.1889763779527559,
                    "duration": 0.6586889999999812
                },
                {
                    "name": "A3",
                    "midi": 57,
                    "time": 462.72902250000556,
                    "velocity": 0.1889763779527559,
                    "duration": 0.6586889999999812
                },
                {
                    "name": "C4",
                    "midi": 60,
                    "time": 462.72902250000556,
                    "velocity": 0.2283464566929134,
                    "duration": 0.6586889999999812
                },
                {
                    "name": "F3",
                    "midi": 53,
                    "time": 463.38771150000554,
                    "velocity": 0.1889763779527559,
                    "duration": 0.3293444999999906
                },
                {
                    "name": "A3",
                    "midi": 57,
                    "time": 463.38771150000554,
                    "velocity": 0.1889763779527559,
                    "duration": 0.3293444999999906
                },
                {
                    "name": "C4",
                    "midi": 60,
                    "time": 463.38771150000554,
                    "velocity": 0.2283464566929134,
                    "duration": 0.3293444999999906
                },
                {
                    "name": "A#2",
                    "midi": 46,
                    "time": 463.7170560000055,
                    "velocity": 0.31496062992125984,
                    "duration": 0.16467225000002372
                },
                {
                    "name": "D4",
                    "midi": 62,
                    "time": 464.0464005000056,
                    "velocity": 0.2677165354330709,
                    "duration": 0.6586889999999812
                },
                {
                    "name": "A#3",
                    "midi": 58,
                    "time": 464.0464005000056,
                    "velocity": 0.2204724409448819,
                    "duration": 0.6586889999999812
                },
                {
                    "name": "F3",
                    "midi": 53,
                    "time": 464.0464005000056,
                    "velocity": 0.2204724409448819,
                    "duration": 0.6586889999999812
                },
                {
                    "name": "F3",
                    "midi": 53,
                    "time": 464.70508950000556,
                    "velocity": 0.2204724409448819,
                    "duration": 0.3293444999999906
                },
                {
                    "name": "A#3",
                    "midi": 58,
                    "time": 464.70508950000556,
                    "velocity": 0.2204724409448819,
                    "duration": 0.3293444999999906
                },
                {
                    "name": "D4",
                    "midi": 62,
                    "time": 464.70508950000556,
                    "velocity": 0.2677165354330709,
                    "duration": 0.3293444999999906
                },
                {
                    "name": "D#2",
                    "midi": 39,
                    "time": 465.03443400000555,
                    "velocity": 0.31496062992125984,
                    "duration": 0.16467225000002372
                },
                {
                    "name": "A#3",
                    "midi": 58,
                    "time": 465.3637785000056,
                    "velocity": 0.1889763779527559,
                    "duration": 0.6586889999999812
                },
                {
                    "name": "D#3",
                    "midi": 51,
                    "time": 465.3637785000056,
                    "velocity": 0.1889763779527559,
                    "duration": 0.6586889999999812
                },
                {
                    "name": "G3",
                    "midi": 55,
                    "time": 465.3637785000056,
                    "velocity": 0.1889763779527559,
                    "duration": 0.6586889999999812
                },
                {
                    "name": "C4",
                    "midi": 60,
                    "time": 465.3637785000056,
                    "velocity": 0.2283464566929134,
                    "duration": 0.6586889999999812
                },
                {
                    "name": "A#3",
                    "midi": 58,
                    "time": 466.0224675000056,
                    "velocity": 0.1889763779527559,
                    "duration": 0.3293444999999906
                },
                {
                    "name": "D#3",
                    "midi": 51,
                    "time": 466.0224675000056,
                    "velocity": 0.1889763779527559,
                    "duration": 0.3293444999999906
                },
                {
                    "name": "G3",
                    "midi": 55,
                    "time": 466.0224675000056,
                    "velocity": 0.1889763779527559,
                    "duration": 0.3293444999999906
                },
                {
                    "name": "C4",
                    "midi": 60,
                    "time": 466.0224675000056,
                    "velocity": 0.2283464566929134,
                    "duration": 0.3293444999999906
                },
                {
                    "name": "E2",
                    "midi": 40,
                    "time": 466.35181200000557,
                    "velocity": 0.31496062992125984,
                    "duration": 0.16467225000002372
                },
                {
                    "name": "A#3",
                    "midi": 58,
                    "time": 466.6811565000056,
                    "velocity": 0.2204724409448819,
                    "duration": 0.6586889999999812
                },
                {
                    "name": "C4",
                    "midi": 60,
                    "time": 466.6811565000056,
                    "velocity": 0.2677165354330709,
                    "duration": 0.6586889999999812
                },
                {
                    "name": "G3",
                    "midi": 55,
                    "time": 466.6811565000056,
                    "velocity": 0.2204724409448819,
                    "duration": 0.6586889999999812
                },
                {
                    "name": "E3",
                    "midi": 52,
                    "time": 466.6811565000056,
                    "velocity": 0.2204724409448819,
                    "duration": 0.6586889999999812
                },
                {
                    "name": "C3",
                    "midi": 48,
                    "time": 467.3398455000056,
                    "velocity": 0.2677165354330709,
                    "duration": 0.3293444999999906
                },
                {
                    "name": "F2",
                    "midi": 41,
                    "time": 467.6691900000056,
                    "velocity": 0.31496062992125984,
                    "duration": 0.16467225000002372
                },
                {
                    "name": "F3",
                    "midi": 53,
                    "time": 467.99853450000563,
                    "velocity": 0.2440944881889764,
                    "duration": 0.9880334999999718
                },
                {
                    "name": "C4",
                    "midi": 60,
                    "time": 467.99853450000563,
                    "velocity": 0.2440944881889764,
                    "duration": 0.3293444999999906
                },
                {
                    "name": "A3",
                    "midi": 57,
                    "time": 467.99853450000563,
                    "velocity": 0.2440944881889764,
                    "duration": 0.3293444999999906
                },
                {
                    "name": "D4",
                    "midi": 62,
                    "time": 468.3278790000056,
                    "velocity": 0.2440944881889764,
                    "duration": 0.3293444999999906
                },
                {
                    "name": "A#3",
                    "midi": 58,
                    "time": 468.3278790000056,
                    "velocity": 0.2440944881889764,
                    "duration": 0.3293444999999906
                },
                {
                    "name": "A3",
                    "midi": 57,
                    "time": 468.6572235000056,
                    "velocity": 0.2440944881889764,
                    "duration": 0.3293444999999906
                },
                {
                    "name": "D#4",
                    "midi": 63,
                    "time": 468.6572235000056,
                    "velocity": 0.2440944881889764,
                    "duration": 0.3293444999999906
                },
                {
                    "name": "A#2",
                    "midi": 46,
                    "time": 468.9865680000056,
                    "velocity": 0.31496062992125984,
                    "duration": 0.16467225000002372
                },
                {
                    "name": "D4",
                    "midi": 62,
                    "time": 469.31591250000565,
                    "velocity": 0.2677165354330709,
                    "duration": 0.6586889999999812
                },
                {
                    "name": "A#3",
                    "midi": 58,
                    "time": 469.31591250000565,
                    "velocity": 0.2204724409448819,
                    "duration": 0.6586889999999812
                },
                {
                    "name": "F3",
                    "midi": 53,
                    "time": 469.31591250000565,
                    "velocity": 0.2204724409448819,
                    "duration": 0.6586889999999812
                },
                {
                    "name": "F3",
                    "midi": 53,
                    "time": 469.97460150000563,
                    "velocity": 0.2204724409448819,
                    "duration": 0.3293444999999906
                },
                {
                    "name": "A#3",
                    "midi": 58,
                    "time": 469.97460150000563,
                    "velocity": 0.2204724409448819,
                    "duration": 0.3293444999999906
                },
                {
                    "name": "D4",
                    "midi": 62,
                    "time": 469.97460150000563,
                    "velocity": 0.2677165354330709,
                    "duration": 0.3293444999999906
                },
                {
                    "name": "D3",
                    "midi": 50,
                    "time": 470.3039460000056,
                    "velocity": 0.31496062992125984,
                    "duration": 0.16467225000002372
                },
                {
                    "name": "F3",
                    "midi": 53,
                    "time": 470.63329050000567,
                    "velocity": 0.1889763779527559,
                    "duration": 0.6586889999999812
                },
                {
                    "name": "A#3",
                    "midi": 58,
                    "time": 470.63329050000567,
                    "velocity": 0.1889763779527559,
                    "duration": 0.6586889999999812
                },
                {
                    "name": "F4",
                    "midi": 65,
                    "time": 470.63329050000567,
                    "velocity": 0.2283464566929134,
                    "duration": 0.6586889999999812
                },
                {
                    "name": "F3",
                    "midi": 53,
                    "time": 471.29197950000565,
                    "velocity": 0.1889763779527559,
                    "duration": 0.3293444999999906
                },
                {
                    "name": "A#3",
                    "midi": 58,
                    "time": 471.29197950000565,
                    "velocity": 0.1889763779527559,
                    "duration": 0.3293444999999906
                },
                {
                    "name": "F4",
                    "midi": 65,
                    "time": 471.29197950000565,
                    "velocity": 0.2283464566929134,
                    "duration": 0.3293444999999906
                },
                {
                    "name": "C3",
                    "midi": 48,
                    "time": 471.62132400000564,
                    "velocity": 0.31496062992125984,
                    "duration": 0.16467225000002372
                },
                {
                    "name": "D#4",
                    "midi": 63,
                    "time": 471.9506685000057,
                    "velocity": 0.2677165354330709,
                    "duration": 0.6586889999999812
                },
                {
                    "name": "A3",
                    "midi": 57,
                    "time": 471.9506685000057,
                    "velocity": 0.2204724409448819,
                    "duration": 0.6586889999999812
                },
                {
                    "name": "F3",
                    "midi": 53,
                    "time": 471.9506685000057,
                    "velocity": 0.2204724409448819,
                    "duration": 0.6586889999999812
                },
                {
                    "name": "F3",
                    "midi": 53,
                    "time": 472.6093575000057,
                    "velocity": 0.2204724409448819,
                    "duration": 0.3293444999999906
                },
                {
                    "name": "A3",
                    "midi": 57,
                    "time": 472.6093575000057,
                    "velocity": 0.2204724409448819,
                    "duration": 0.3293444999999906
                },
                {
                    "name": "D#4",
                    "midi": 63,
                    "time": 472.6093575000057,
                    "velocity": 0.2677165354330709,
                    "duration": 0.3293444999999906
                },
                {
                    "name": "F2",
                    "midi": 41,
                    "time": 472.93870200000566,
                    "velocity": 0.31496062992125984,
                    "duration": 0.16467225000002372
                },
                {
                    "name": "A3",
                    "midi": 57,
                    "time": 473.2680465000057,
                    "velocity": 0.1889763779527559,
                    "duration": 0.6586889999999812
                },
                {
                    "name": "F3",
                    "midi": 53,
                    "time": 473.2680465000057,
                    "velocity": 0.1889763779527559,
                    "duration": 0.6586889999999812
                },
                {
                    "name": "C4",
                    "midi": 60,
                    "time": 473.2680465000057,
                    "velocity": 0.2283464566929134,
                    "duration": 0.6586889999999812
                },
                {
                    "name": "C4",
                    "midi": 60,
                    "time": 473.9267355000057,
                    "velocity": 0.2283464566929134,
                    "duration": 0.3293444999999906
                },
                {
                    "name": "F3",
                    "midi": 53,
                    "time": 473.9267355000057,
                    "velocity": 0.1889763779527559,
                    "duration": 0.3293444999999906
                },
                {
                    "name": "A3",
                    "midi": 57,
                    "time": 473.9267355000057,
                    "velocity": 0.1889763779527559,
                    "duration": 0.3293444999999906
                },
                {
                    "name": "A#2",
                    "midi": 46,
                    "time": 474.2560800000057,
                    "velocity": 0.31496062992125984,
                    "duration": 0.16467225000002372
                },
                {
                    "name": "D4",
                    "midi": 62,
                    "time": 474.58542450000573,
                    "velocity": 0.2677165354330709,
                    "duration": 0.6586889999999812
                },
                {
                    "name": "A#3",
                    "midi": 58,
                    "time": 474.58542450000573,
                    "velocity": 0.2204724409448819,
                    "duration": 0.6586889999999812
                },
                {
                    "name": "F3",
                    "midi": 53,
                    "time": 474.58542450000573,
                    "velocity": 0.2204724409448819,
                    "duration": 0.6586889999999812
                },
                {
                    "name": "F3",
                    "midi": 53,
                    "time": 475.2441135000057,
                    "velocity": 0.2204724409448819,
                    "duration": 0.3293444999999906
                },
                {
                    "name": "A#3",
                    "midi": 58,
                    "time": 475.2441135000057,
                    "velocity": 0.2204724409448819,
                    "duration": 0.3293444999999906
                },
                {
                    "name": "D4",
                    "midi": 62,
                    "time": 475.2441135000057,
                    "velocity": 0.2677165354330709,
                    "duration": 0.3293444999999906
                },
                {
                    "name": "E3",
                    "midi": 52,
                    "time": 475.5734580000057,
                    "velocity": 0.31496062992125984,
                    "duration": 0.16467225000002372
                },
                {
                    "name": "C#4",
                    "midi": 61,
                    "time": 475.90280250000575,
                    "velocity": 0.1889763779527559,
                    "duration": 0.6586889999999812
                },
                {
                    "name": "A#3",
                    "midi": 58,
                    "time": 475.90280250000575,
                    "velocity": 0.1889763779527559,
                    "duration": 0.6586889999999812
                },
                {
                    "name": "G4",
                    "midi": 67,
                    "time": 475.90280250000575,
                    "velocity": 0.2283464566929134,
                    "duration": 0.6586889999999812
                },
                {
                    "name": "A#3",
                    "midi": 58,
                    "time": 476.56149150000573,
                    "velocity": 0.1889763779527559,
                    "duration": 0.3293444999999906
                },
                {
                    "name": "G3",
                    "midi": 55,
                    "time": 476.56149150000573,
                    "velocity": 0.1889763779527559,
                    "duration": 0.3293444999999906
                },
                {
                    "name": "C#4",
                    "midi": 61,
                    "time": 476.56149150000573,
                    "velocity": 0.2283464566929134,
                    "duration": 0.3293444999999906
                },
                {
                    "name": "F2",
                    "midi": 41,
                    "time": 476.8908360000057,
                    "velocity": 0.31496062992125984,
                    "duration": 0.16467225000002372
                },
                {
                    "name": "A#3",
                    "midi": 58,
                    "time": 477.22018050000577,
                    "velocity": 0.2440944881889764,
                    "duration": 0.3293444999999906
                },
                {
                    "name": "F3",
                    "midi": 53,
                    "time": 477.22018050000577,
                    "velocity": 0.2440944881889764,
                    "duration": 0.9880334999999718
                },
                {
                    "name": "C4",
                    "midi": 60,
                    "time": 477.22018050000577,
                    "velocity": 0.2440944881889764,
                    "duration": 0.6586889999999812
                },
                {
                    "name": "A3",
                    "midi": 57,
                    "time": 477.54952500000576,
                    "velocity": 0.2440944881889764,
                    "duration": 0.3293444999999906
                },
                {
                    "name": "D#4",
                    "midi": 63,
                    "time": 477.87886950000575,
                    "velocity": 0.2440944881889764,
                    "duration": 0.3293444999999906
                },
                {
                    "name": "C4",
                    "midi": 60,
                    "time": 477.87886950000575,
                    "velocity": 0.2440944881889764,
                    "duration": 0.3293444999999906
                },
                {
                    "name": "A#2",
                    "midi": 46,
                    "time": 478.20821400000574,
                    "velocity": 0.31496062992125984,
                    "duration": 0.16467225000002372
                },
                {
                    "name": "D4",
                    "midi": 62,
                    "time": 478.5375585000058,
                    "velocity": 0.2440944881889764,
                    "duration": 0.9880334999999718
                },
                {
                    "name": "A#3",
                    "midi": 58,
                    "time": 478.5375585000058,
                    "velocity": 0.2440944881889764,
                    "duration": 0.9880334999999718
                },
                {
                    "name": "A#2",
                    "midi": 46,
                    "time": 479.52559200000576,
                    "velocity": 0.31496062992125984,
                    "duration": 0.16467225000002372
                },
                {
                    "name": "D4",
                    "midi": 62,
                    "time": 479.8549365000058,
                    "velocity": 0.2677165354330709,
                    "duration": 0.6586889999999812
                },
                {
                    "name": "A#3",
                    "midi": 58,
                    "time": 479.8549365000058,
                    "velocity": 0.2204724409448819,
                    "duration": 0.6586889999999812
                },
                {
                    "name": "F3",
                    "midi": 53,
                    "time": 479.8549365000058,
                    "velocity": 0.2204724409448819,
                    "duration": 0.6586889999999812
                },
                {
                    "name": "F3",
                    "midi": 53,
                    "time": 480.5136255000058,
                    "velocity": 0.2204724409448819,
                    "duration": 0.3293444999999906
                },
                {
                    "name": "A#3",
                    "midi": 58,
                    "time": 480.5136255000058,
                    "velocity": 0.2204724409448819,
                    "duration": 0.3293444999999906
                },
                {
                    "name": "D4",
                    "midi": 62,
                    "time": 480.5136255000058,
                    "velocity": 0.2677165354330709,
                    "duration": 0.3293444999999906
                },
                {
                    "name": "D3",
                    "midi": 50,
                    "time": 480.8429700000058,
                    "velocity": 0.31496062992125984,
                    "duration": 0.16467225000002372
                },
                {
                    "name": "F3",
                    "midi": 53,
                    "time": 481.1723145000058,
                    "velocity": 0.1889763779527559,
                    "duration": 0.6586889999999812
                },
                {
                    "name": "A#3",
                    "midi": 58,
                    "time": 481.1723145000058,
                    "velocity": 0.1889763779527559,
                    "duration": 0.6586889999999812
                },
                {
                    "name": "F4",
                    "midi": 65,
                    "time": 481.1723145000058,
                    "velocity": 0.2283464566929134,
                    "duration": 0.6586889999999812
                },
                {
                    "name": "F3",
                    "midi": 53,
                    "time": 481.8310035000058,
                    "velocity": 0.1889763779527559,
                    "duration": 0.3293444999999906
                },
                {
                    "name": "A#3",
                    "midi": 58,
                    "time": 481.8310035000058,
                    "velocity": 0.1889763779527559,
                    "duration": 0.3293444999999906
                },
                {
                    "name": "F4",
                    "midi": 65,
                    "time": 481.8310035000058,
                    "velocity": 0.2283464566929134,
                    "duration": 0.3293444999999906
                },
                {
                    "name": "C3",
                    "midi": 48,
                    "time": 482.1603480000058,
                    "velocity": 0.31496062992125984,
                    "duration": 0.16467225000002372
                },
                {
                    "name": "D#4",
                    "midi": 63,
                    "time": 482.48969250000584,
                    "velocity": 0.2677165354330709,
                    "duration": 0.6586889999999812
                },
                {
                    "name": "A3",
                    "midi": 57,
                    "time": 482.48969250000584,
                    "velocity": 0.2204724409448819,
                    "duration": 0.6586889999999812
                },
                {
                    "name": "F3",
                    "midi": 53,
                    "time": 482.48969250000584,
                    "velocity": 0.2204724409448819,
                    "duration": 0.6586889999999812
                },
                {
                    "name": "D#4",
                    "midi": 63,
                    "time": 483.1483815000058,
                    "velocity": 0.2677165354330709,
                    "duration": 0.3293444999999906
                },
                {
                    "name": "F3",
                    "midi": 53,
                    "time": 483.1483815000058,
                    "velocity": 0.2204724409448819,
                    "duration": 0.3293444999999906
                },
                {
                    "name": "A3",
                    "midi": 57,
                    "time": 483.1483815000058,
                    "velocity": 0.2204724409448819,
                    "duration": 0.3293444999999906
                },
                {
                    "name": "F2",
                    "midi": 41,
                    "time": 483.4777260000058,
                    "velocity": 0.31496062992125984,
                    "duration": 0.16467225000002372
                },
                {
                    "name": "C4",
                    "midi": 60,
                    "time": 483.80707050000586,
                    "velocity": 0.2283464566929134,
                    "duration": 0.6586889999999812
                },
                {
                    "name": "F3",
                    "midi": 53,
                    "time": 483.80707050000586,
                    "velocity": 0.1889763779527559,
                    "duration": 0.6586889999999812
                },
                {
                    "name": "A3",
                    "midi": 57,
                    "time": 483.80707050000586,
                    "velocity": 0.1889763779527559,
                    "duration": 0.6586889999999812
                },
                {
                    "name": "A3",
                    "midi": 57,
                    "time": 484.46575950000584,
                    "velocity": 0.1889763779527559,
                    "duration": 0.3293444999999906
                },
                {
                    "name": "C4",
                    "midi": 60,
                    "time": 484.46575950000584,
                    "velocity": 0.2283464566929134,
                    "duration": 0.3293444999999906
                },
                {
                    "name": "F3",
                    "midi": 53,
                    "time": 484.46575950000584,
                    "velocity": 0.1889763779527559,
                    "duration": 0.3293444999999906
                },
                {
                    "name": "A#2",
                    "midi": 46,
                    "time": 484.79510400000584,
                    "velocity": 0.31496062992125984,
                    "duration": 0.16467225000002372
                },
                {
                    "name": "D4",
                    "midi": 62,
                    "time": 485.1244485000059,
                    "velocity": 0.2677165354330709,
                    "duration": 0.6586889999999812
                },
                {
                    "name": "F3",
                    "midi": 53,
                    "time": 485.1244485000059,
                    "velocity": 0.2204724409448819,
                    "duration": 0.6586889999999812
                },
                {
                    "name": "A#3",
                    "midi": 58,
                    "time": 485.1244485000059,
                    "velocity": 0.2204724409448819,
                    "duration": 0.6586889999999812
                },
                {
                    "name": "F3",
                    "midi": 53,
                    "time": 485.78313750000586,
                    "velocity": 0.2204724409448819,
                    "duration": 0.3293444999999906
                },
                {
                    "name": "A#3",
                    "midi": 58,
                    "time": 485.78313750000586,
                    "velocity": 0.2204724409448819,
                    "duration": 0.3293444999999906
                },
                {
                    "name": "D4",
                    "midi": 62,
                    "time": 485.78313750000586,
                    "velocity": 0.2677165354330709,
                    "duration": 0.3293444999999906
                },
                {
                    "name": "D#2",
                    "midi": 39,
                    "time": 486.11248200000585,
                    "velocity": 0.31496062992125984,
                    "duration": 0.16467225000002372
                },
                {
                    "name": "D#3",
                    "midi": 51,
                    "time": 486.4418265000059,
                    "velocity": 0.1889763779527559,
                    "duration": 0.6586889999999812
                },
                {
                    "name": "A#3",
                    "midi": 58,
                    "time": 486.4418265000059,
                    "velocity": 0.1889763779527559,
                    "duration": 0.6586889999999812
                },
                {
                    "name": "G3",
                    "midi": 55,
                    "time": 486.4418265000059,
                    "velocity": 0.1889763779527559,
                    "duration": 0.6586889999999812
                },
                {
                    "name": "C4",
                    "midi": 60,
                    "time": 486.4418265000059,
                    "velocity": 0.2283464566929134,
                    "duration": 0.6586889999999812
                },
                {
                    "name": "D#3",
                    "midi": 51,
                    "time": 487.1005155000059,
                    "velocity": 0.1889763779527559,
                    "duration": 0.3293444999999906
                },
                {
                    "name": "G3",
                    "midi": 55,
                    "time": 487.1005155000059,
                    "velocity": 0.1889763779527559,
                    "duration": 0.3293444999999906
                },
                {
                    "name": "A#3",
                    "midi": 58,
                    "time": 487.1005155000059,
                    "velocity": 0.1889763779527559,
                    "duration": 0.3293444999999906
                },
                {
                    "name": "C4",
                    "midi": 60,
                    "time": 487.1005155000059,
                    "velocity": 0.2283464566929134,
                    "duration": 0.3293444999999906
                },
                {
                    "name": "E2",
                    "midi": 40,
                    "time": 487.4298600000059,
                    "velocity": 0.31496062992125984,
                    "duration": 0.16467225000002372
                },
                {
                    "name": "C4",
                    "midi": 60,
                    "time": 487.7592045000059,
                    "velocity": 0.2677165354330709,
                    "duration": 0.6586889999999812
                },
                {
                    "name": "A#3",
                    "midi": 58,
                    "time": 487.7592045000059,
                    "velocity": 0.2204724409448819,
                    "duration": 0.6586889999999812
                },
                {
                    "name": "E3",
                    "midi": 52,
                    "time": 487.7592045000059,
                    "velocity": 0.2204724409448819,
                    "duration": 0.6586889999999812
                },
                {
                    "name": "G3",
                    "midi": 55,
                    "time": 487.7592045000059,
                    "velocity": 0.2204724409448819,
                    "duration": 0.6586889999999812
                },
                {
                    "name": "C3",
                    "midi": 48,
                    "time": 488.4178935000059,
                    "velocity": 0.2677165354330709,
                    "duration": 0.3293444999999906
                },
                {
                    "name": "F2",
                    "midi": 41,
                    "time": 488.7472380000059,
                    "velocity": 0.31496062992125984,
                    "duration": 0.16467225000002372
                },
                {
                    "name": "F3",
                    "midi": 53,
                    "time": 489.07658250000594,
                    "velocity": 0.2440944881889764,
                    "duration": 0.9880334999999718
                },
                {
                    "name": "A3",
                    "midi": 57,
                    "time": 489.07658250000594,
                    "velocity": 0.2440944881889764,
                    "duration": 0.3293444999999906
                },
                {
                    "name": "C4",
                    "midi": 60,
                    "time": 489.07658250000594,
                    "velocity": 0.2440944881889764,
                    "duration": 0.3293444999999906
                },
                {
                    "name": "A#3",
                    "midi": 58,
                    "time": 489.40592700000593,
                    "velocity": 0.2440944881889764,
                    "duration": 0.3293444999999906
                },
                {
                    "name": "D4",
                    "midi": 62,
                    "time": 489.40592700000593,
                    "velocity": 0.2440944881889764,
                    "duration": 0.3293444999999906
                },
                {
                    "name": "D#4",
                    "midi": 63,
                    "time": 489.7352715000059,
                    "velocity": 0.2440944881889764,
                    "duration": 0.3293444999999906
                },
                {
                    "name": "A3",
                    "midi": 57,
                    "time": 489.7352715000059,
                    "velocity": 0.2440944881889764,
                    "duration": 0.3293444999999906
                },
                {
                    "name": "A#2",
                    "midi": 46,
                    "time": 490.0646160000059,
                    "velocity": 0.31496062992125984,
                    "duration": 0.16467225000002372
                },
                {
                    "name": "D4",
                    "midi": 62,
                    "time": 490.39396050000596,
                    "velocity": 0.2677165354330709,
                    "duration": 0.6586889999999812
                },
                {
                    "name": "A#3",
                    "midi": 58,
                    "time": 490.39396050000596,
                    "velocity": 0.2204724409448819,
                    "duration": 0.6586889999999812
                },
                {
                    "name": "F3",
                    "midi": 53,
                    "time": 490.39396050000596,
                    "velocity": 0.2204724409448819,
                    "duration": 0.6586889999999812
                },
                {
                    "name": "F3",
                    "midi": 53,
                    "time": 491.05264950000594,
                    "velocity": 0.2204724409448819,
                    "duration": 0.3293444999999906
                },
                {
                    "name": "A#3",
                    "midi": 58,
                    "time": 491.05264950000594,
                    "velocity": 0.2204724409448819,
                    "duration": 0.3293444999999906
                },
                {
                    "name": "D4",
                    "midi": 62,
                    "time": 491.05264950000594,
                    "velocity": 0.2677165354330709,
                    "duration": 0.3293444999999906
                },
                {
                    "name": "D3",
                    "midi": 50,
                    "time": 491.38199400000593,
                    "velocity": 0.31496062992125984,
                    "duration": 0.16467225000002372
                },
                {
                    "name": "A#3",
                    "midi": 58,
                    "time": 491.711338500006,
                    "velocity": 0.1889763779527559,
                    "duration": 0.6586889999999812
                },
                {
                    "name": "F3",
                    "midi": 53,
                    "time": 491.711338500006,
                    "velocity": 0.1889763779527559,
                    "duration": 0.6586889999999812
                },
                {
                    "name": "F4",
                    "midi": 65,
                    "time": 491.711338500006,
                    "velocity": 0.2283464566929134,
                    "duration": 0.6586889999999812
                },
                {
                    "name": "A#3",
                    "midi": 58,
                    "time": 492.37002750000596,
                    "velocity": 0.1889763779527559,
                    "duration": 0.3293444999999906
                },
                {
                    "name": "F3",
                    "midi": 53,
                    "time": 492.37002750000596,
                    "velocity": 0.1889763779527559,
                    "duration": 0.3293444999999906
                },
                {
                    "name": "F4",
                    "midi": 65,
                    "time": 492.37002750000596,
                    "velocity": 0.2283464566929134,
                    "duration": 0.3293444999999906
                },
                {
                    "name": "C3",
                    "midi": 48,
                    "time": 492.69937200000595,
                    "velocity": 0.31496062992125984,
                    "duration": 0.16467225000002372
                },
                {
                    "name": "A3",
                    "midi": 57,
                    "time": 493.028716500006,
                    "velocity": 0.2204724409448819,
                    "duration": 0.6586889999999812
                },
                {
                    "name": "F3",
                    "midi": 53,
                    "time": 493.028716500006,
                    "velocity": 0.2204724409448819,
                    "duration": 0.6586889999999812
                },
                {
                    "name": "D#4",
                    "midi": 63,
                    "time": 493.028716500006,
                    "velocity": 0.2677165354330709,
                    "duration": 0.6586889999999812
                },
                {
                    "name": "A3",
                    "midi": 57,
                    "time": 493.687405500006,
                    "velocity": 0.2204724409448819,
                    "duration": 0.3293444999999906
                },
                {
                    "name": "F3",
                    "midi": 53,
                    "time": 493.687405500006,
                    "velocity": 0.2204724409448819,
                    "duration": 0.3293444999999906
                },
                {
                    "name": "D#4",
                    "midi": 63,
                    "time": 493.687405500006,
                    "velocity": 0.2677165354330709,
                    "duration": 0.3293444999999906
                },
                {
                    "name": "F2",
                    "midi": 41,
                    "time": 494.01675000000597,
                    "velocity": 0.31496062992125984,
                    "duration": 0.16467225000002372
                },
                {
                    "name": "A3",
                    "midi": 57,
                    "time": 494.346094500006,
                    "velocity": 0.1889763779527559,
                    "duration": 0.6586889999999812
                },
                {
                    "name": "F3",
                    "midi": 53,
                    "time": 494.346094500006,
                    "velocity": 0.1889763779527559,
                    "duration": 0.6586889999999812
                },
                {
                    "name": "C4",
                    "midi": 60,
                    "time": 494.346094500006,
                    "velocity": 0.2283464566929134,
                    "duration": 0.6586889999999812
                },
                {
                    "name": "A3",
                    "midi": 57,
                    "time": 495.004783500006,
                    "velocity": 0.1889763779527559,
                    "duration": 0.3293444999999906
                },
                {
                    "name": "C4",
                    "midi": 60,
                    "time": 495.004783500006,
                    "velocity": 0.2283464566929134,
                    "duration": 0.3293444999999906
                },
                {
                    "name": "F3",
                    "midi": 53,
                    "time": 495.004783500006,
                    "velocity": 0.1889763779527559,
                    "duration": 0.3293444999999906
                },
                {
                    "name": "A#2",
                    "midi": 46,
                    "time": 495.334128000006,
                    "velocity": 0.31496062992125984,
                    "duration": 0.16467225000002372
                },
                {
                    "name": "A#3",
                    "midi": 58,
                    "time": 495.66347250000604,
                    "velocity": 0.2204724409448819,
                    "duration": 0.6586889999999812
                },
                {
                    "name": "D4",
                    "midi": 62,
                    "time": 495.66347250000604,
                    "velocity": 0.2677165354330709,
                    "duration": 0.6586889999999812
                },
                {
                    "name": "F3",
                    "midi": 53,
                    "time": 495.66347250000604,
                    "velocity": 0.2204724409448819,
                    "duration": 0.6586889999999812
                },
                {
                    "name": "F3",
                    "midi": 53,
                    "time": 496.322161500006,
                    "velocity": 0.2204724409448819,
                    "duration": 0.3293444999999906
                },
                {
                    "name": "A#3",
                    "midi": 58,
                    "time": 496.322161500006,
                    "velocity": 0.2204724409448819,
                    "duration": 0.3293444999999906
                },
                {
                    "name": "D4",
                    "midi": 62,
                    "time": 496.322161500006,
                    "velocity": 0.2677165354330709,
                    "duration": 0.3293444999999906
                },
                {
                    "name": "E3",
                    "midi": 52,
                    "time": 496.651506000006,
                    "velocity": 0.31496062992125984,
                    "duration": 0.16467225000002372
                },
                {
                    "name": "C#4",
                    "midi": 61,
                    "time": 496.98085050000606,
                    "velocity": 0.1889763779527559,
                    "duration": 0.6586889999999812
                },
                {
                    "name": "A#3",
                    "midi": 58,
                    "time": 496.98085050000606,
                    "velocity": 0.1889763779527559,
                    "duration": 0.6586889999999812
                },
                {
                    "name": "G4",
                    "midi": 67,
                    "time": 496.98085050000606,
                    "velocity": 0.2283464566929134,
                    "duration": 0.6586889999999812
                },
                {
                    "name": "A#3",
                    "midi": 58,
                    "time": 497.63953950000604,
                    "velocity": 0.1889763779527559,
                    "duration": 0.3293444999999906
                },
                {
                    "name": "G3",
                    "midi": 55,
                    "time": 497.63953950000604,
                    "velocity": 0.1889763779527559,
                    "duration": 0.3293444999999906
                },
                {
                    "name": "C#4",
                    "midi": 61,
                    "time": 497.63953950000604,
                    "velocity": 0.2283464566929134,
                    "duration": 0.3293444999999906
                },
                {
                    "name": "F2",
                    "midi": 41,
                    "time": 497.968884000006,
                    "velocity": 0.31496062992125984,
                    "duration": 0.16467225000002372
                },
                {
                    "name": "A#3",
                    "midi": 58,
                    "time": 498.2982285000061,
                    "velocity": 0.2440944881889764,
                    "duration": 0.3293444999999906
                },
                {
                    "name": "F3",
                    "midi": 53,
                    "time": 498.2982285000061,
                    "velocity": 0.2440944881889764,
                    "duration": 0.9880334999999718
                },
                {
                    "name": "C4",
                    "midi": 60,
                    "time": 498.2982285000061,
                    "velocity": 0.2440944881889764,
                    "duration": 0.6586889999999812
                },
                {
                    "name": "A3",
                    "midi": 57,
                    "time": 498.62757300000607,
                    "velocity": 0.2440944881889764,
                    "duration": 0.3293444999999906
                },
                {
                    "name": "C4",
                    "midi": 60,
                    "time": 498.95691750000606,
                    "velocity": 0.2440944881889764,
                    "duration": 0.3293444999999906
                },
                {
                    "name": "D#4",
                    "midi": 63,
                    "time": 498.95691750000606,
                    "velocity": 0.2440944881889764,
                    "duration": 0.3293444999999906
                },
                {
                    "name": "A#2",
                    "midi": 46,
                    "time": 499.28626200000605,
                    "velocity": 0.31496062992125984,
                    "duration": 0.16467225000002372
                },
                {
                    "name": "A#3",
                    "midi": 58,
                    "time": 499.6156065000061,
                    "velocity": 0.2440944881889764,
                    "duration": 0.9880334999999718
                },
                {
                    "name": "D4",
                    "midi": 62,
                    "time": 499.6156065000061,
                    "velocity": 0.2440944881889764,
                    "duration": 0.9880334999999718
                },
                {
                    "name": "D2",
                    "midi": 38,
                    "time": 500.60364000000607,
                    "velocity": 0.4015748031496063,
                    "duration": 0.10978149999999687
                },
                {
                    "name": "E2",
                    "midi": 40,
                    "time": 500.71342150000606,
                    "velocity": 0.3779527559055118,
                    "duration": 0.10978149999999687
                },
                {
                    "name": "F#2",
                    "midi": 42,
                    "time": 500.82320300000606,
                    "velocity": 0.36220472440944884,
                    "duration": 0.10978149999999687
                },
                {
                    "name": "G2",
                    "midi": 43,
                    "time": 500.93298450000606,
                    "velocity": 0.41732283464566927,
                    "duration": 0.10978149999999687
                },
                {
                    "name": "A2",
                    "midi": 45,
                    "time": 501.04276600000605,
                    "velocity": 0.4251968503937008,
                    "duration": 0.10978149999999687
                },
                {
                    "name": "A#2",
                    "midi": 46,
                    "time": 501.15254750000605,
                    "velocity": 0.3858267716535433,
                    "duration": 0.10978149999999687
                },
                {
                    "name": "C3",
                    "midi": 48,
                    "time": 501.26232900000605,
                    "velocity": 0.4330708661417323,
                    "duration": 0.10978149999999687
                },
                {
                    "name": "D3",
                    "midi": 50,
                    "time": 501.37211050000604,
                    "velocity": 0.4094488188976378,
                    "duration": 0.10978149999999687
                },
                {
                    "name": "E3",
                    "midi": 52,
                    "time": 501.48189200000604,
                    "velocity": 0.41732283464566927,
                    "duration": 0.10978149999999687
                },
                {
                    "name": "F#3",
                    "midi": 54,
                    "time": 501.59167350000604,
                    "velocity": 0.44881889763779526,
                    "duration": 0.10978149999999687
                },
                {
                    "name": "G3",
                    "midi": 55,
                    "time": 501.70145500000604,
                    "velocity": 0.4251968503937008,
                    "duration": 0.10978149999999687
                },
                {
                    "name": "A3",
                    "midi": 57,
                    "time": 501.81123650000603,
                    "velocity": 0.4251968503937008,
                    "duration": 0.10978149999999687
                },
                {
                    "name": "A#3",
                    "midi": 58,
                    "time": 501.92101800000603,
                    "velocity": 0.49606299212598426,
                    "duration": 0.10978149999999687
                },
                {
                    "name": "D4",
                    "midi": 62,
                    "time": 502.030799500006,
                    "velocity": 0.4251968503937008,
                    "duration": 0.10978149999999687
                },
                {
                    "name": "A#3",
                    "midi": 58,
                    "time": 502.140581000006,
                    "velocity": 0.4251968503937008,
                    "duration": 0.10978149999999687
                },
                {
                    "name": "G3",
                    "midi": 55,
                    "time": 502.250362500006,
                    "velocity": 0.4881889763779528,
                    "duration": 0.10978149999999687
                },
                {
                    "name": "A#3",
                    "midi": 58,
                    "time": 502.360144000006,
                    "velocity": 0.41732283464566927,
                    "duration": 0.10978149999999687
                },
                {
                    "name": "G3",
                    "midi": 55,
                    "time": 502.469925500006,
                    "velocity": 0.41732283464566927,
                    "duration": 0.10978149999999687
                },
                {
                    "name": "D3",
                    "midi": 50,
                    "time": 502.579707000006,
                    "velocity": 0.5118110236220472,
                    "duration": 0.10978149999999687
                },
                {
                    "name": "G3",
                    "midi": 55,
                    "time": 502.689488500006,
                    "velocity": 0.41732283464566927,
                    "duration": 0.10978149999999687
                },
                {
                    "name": "D3",
                    "midi": 50,
                    "time": 502.799270000006,
                    "velocity": 0.41732283464566927,
                    "duration": 0.10978149999999687
                },
                {
                    "name": "A#2",
                    "midi": 46,
                    "time": 502.909051500006,
                    "velocity": 0.5118110236220472,
                    "duration": 0.10978149999999687
                },
                {
                    "name": "D3",
                    "midi": 50,
                    "time": 503.018833000006,
                    "velocity": 0.4015748031496063,
                    "duration": 0.10978149999999687
                },
                {
                    "name": "A#2",
                    "midi": 46,
                    "time": 503.128614500006,
                    "velocity": 0.4015748031496063,
                    "duration": 0.10978149999999687
                },
                {
                    "name": "G2",
                    "midi": 43,
                    "time": 503.238396000006,
                    "velocity": 0.4015748031496063,
                    "duration": 0.10978149999999687
                },
                {
                    "name": "A2",
                    "midi": 45,
                    "time": 503.348177500006,
                    "velocity": 0.3779527559055118,
                    "duration": 0.10978149999999687
                },
                {
                    "name": "A#2",
                    "midi": 46,
                    "time": 503.457959000006,
                    "velocity": 0.36220472440944884,
                    "duration": 0.10978149999999687
                },
                {
                    "name": "C3",
                    "midi": 48,
                    "time": 503.567740500006,
                    "velocity": 0.41732283464566927,
                    "duration": 0.10978149999999687
                },
                {
                    "name": "D3",
                    "midi": 50,
                    "time": 503.677522000006,
                    "velocity": 0.4251968503937008,
                    "duration": 0.10978149999999687
                },
                {
                    "name": "E3",
                    "midi": 52,
                    "time": 503.787303500006,
                    "velocity": 0.3858267716535433,
                    "duration": 0.10978149999999687
                },
                {
                    "name": "F#3",
                    "midi": 54,
                    "time": 503.897085000006,
                    "velocity": 0.4330708661417323,
                    "duration": 0.10978149999999687
                },
                {
                    "name": "G3",
                    "midi": 55,
                    "time": 504.00686650000597,
                    "velocity": 0.4094488188976378,
                    "duration": 0.10978149999999687
                },
                {
                    "name": "G#3",
                    "midi": 56,
                    "time": 504.11664800000597,
                    "velocity": 0.41732283464566927,
                    "duration": 0.10978149999999687
                },
                {
                    "name": "A3",
                    "midi": 57,
                    "time": 504.22642950000596,
                    "velocity": 0.44881889763779526,
                    "duration": 0.10978149999999687
                },
                {
                    "name": "A#3",
                    "midi": 58,
                    "time": 504.33621100000596,
                    "velocity": 0.4251968503937008,
                    "duration": 0.10978149999999687
                },
                {
                    "name": "B3",
                    "midi": 59,
                    "time": 504.44599250000596,
                    "velocity": 0.4251968503937008,
                    "duration": 0.10978149999999687
                },
                {
                    "name": "C4",
                    "midi": 60,
                    "time": 504.55577400000595,
                    "velocity": 0.49606299212598426,
                    "duration": 0.10978149999999687
                },
                {
                    "name": "E4",
                    "midi": 64,
                    "time": 504.66555550000595,
                    "velocity": 0.4251968503937008,
                    "duration": 0.10978149999999687
                },
                {
                    "name": "C4",
                    "midi": 60,
                    "time": 504.77533700000595,
                    "velocity": 0.4251968503937008,
                    "duration": 0.10978149999999687
                },
                {
                    "name": "G3",
                    "midi": 55,
                    "time": 504.88511850000594,
                    "velocity": 0.4881889763779528,
                    "duration": 0.10978149999999687
                },
                {
                    "name": "C4",
                    "midi": 60,
                    "time": 504.99490000000594,
                    "velocity": 0.41732283464566927,
                    "duration": 0.10978149999999687
                },
                {
                    "name": "G3",
                    "midi": 55,
                    "time": 505.10468150000594,
                    "velocity": 0.41732283464566927,
                    "duration": 0.10978149999999687
                },
                {
                    "name": "E3",
                    "midi": 52,
                    "time": 505.21446300000594,
                    "velocity": 0.5118110236220472,
                    "duration": 0.10978149999999687
                },
                {
                    "name": "G3",
                    "midi": 55,
                    "time": 505.32424450000593,
                    "velocity": 0.41732283464566927,
                    "duration": 0.10978149999999687
                },
                {
                    "name": "E3",
                    "midi": 52,
                    "time": 505.43402600000593,
                    "velocity": 0.41732283464566927,
                    "duration": 0.10978149999999687
                },
                {
                    "name": "C3",
                    "midi": 48,
                    "time": 505.5438075000059,
                    "velocity": 0.5118110236220472,
                    "duration": 0.3293444999999906
                },
                {
                    "name": "A2",
                    "midi": 45,
                    "time": 505.8731520000059,
                    "velocity": 0.4015748031496063,
                    "duration": 0.10978149999999687
                },
                {
                    "name": "C3",
                    "midi": 48,
                    "time": 505.9829335000059,
                    "velocity": 0.3228346456692913,
                    "duration": 0.10978149999999687
                },
                {
                    "name": "F3",
                    "midi": 53,
                    "time": 506.0927150000059,
                    "velocity": 0.3464566929133858,
                    "duration": 0.10978149999999687
                },
                {
                    "name": "A3",
                    "midi": 57,
                    "time": 506.2024965000059,
                    "velocity": 0.3700787401574803,
                    "duration": 0.10978149999999687
                },
                {
                    "name": "C4",
                    "midi": 60,
                    "time": 506.3122780000059,
                    "velocity": 0.3937007874015748,
                    "duration": 0.10978149999999687
                },
                {
                    "name": "F4",
                    "midi": 65,
                    "time": 506.4220595000059,
                    "velocity": 0.41732283464566927,
                    "duration": 0.10978149999999687
                },
                {
                    "name": "A4",
                    "midi": 69,
                    "time": 506.5318410000059,
                    "velocity": 0.4409448818897638,
                    "duration": 0.3293444999999906
                },
                {
                    "name": "A#2",
                    "midi": 46,
                    "time": 507.1905300000059,
                    "velocity": 0.4015748031496063,
                    "duration": 0.10978149999999687
                },
                {
                    "name": "D3",
                    "midi": 50,
                    "time": 507.3003115000059,
                    "velocity": 0.3228346456692913,
                    "duration": 0.10978149999999687
                },
                {
                    "name": "G3",
                    "midi": 55,
                    "time": 507.4100930000059,
                    "velocity": 0.3464566929133858,
                    "duration": 0.10978149999999687
                },
                {
                    "name": "A#3",
                    "midi": 58,
                    "time": 507.51987450000587,
                    "velocity": 0.3700787401574803,
                    "duration": 0.10978149999999687
                },
                {
                    "name": "D4",
                    "midi": 62,
                    "time": 507.62965600000587,
                    "velocity": 0.3937007874015748,
                    "duration": 0.10978149999999687
                },
                {
                    "name": "G4",
                    "midi": 67,
                    "time": 507.73943750000586,
                    "velocity": 0.41732283464566927,
                    "duration": 0.10978149999999687
                },
                {
                    "name": "A#4",
                    "midi": 70,
                    "time": 507.84921900000586,
                    "velocity": 0.4409448818897638,
                    "duration": 0.3293444999999906
                },
                {
                    "name": "C3",
                    "midi": 48,
                    "time": 508.50790800000584,
                    "velocity": 0.4645669291338583,
                    "duration": 0.16467225000002372
                },
                {
                    "name": "F4",
                    "midi": 65,
                    "time": 508.8372525000059,
                    "velocity": 0.31496062992125984,
                    "duration": 0.16467225000002372
                },
                {
                    "name": "C4",
                    "midi": 60,
                    "time": 508.8372525000059,
                    "velocity": 0.2677165354330709,
                    "duration": 0.16467225000002372
                },
                {
                    "name": "A3",
                    "midi": 57,
                    "time": 508.8372525000059,
                    "velocity": 0.2677165354330709,
                    "duration": 0.16467225000002372
                },
                {
                    "name": "C3",
                    "midi": 48,
                    "time": 509.16659700000594,
                    "velocity": 0.36220472440944884,
                    "duration": 0.16467225000002372
                },
                {
                    "name": "E4",
                    "midi": 64,
                    "time": 509.495941500006,
                    "velocity": 0.33070866141732286,
                    "duration": 0.16467225000002372
                },
                {
                    "name": "C4",
                    "midi": 60,
                    "time": 509.495941500006,
                    "velocity": 0.2755905511811024,
                    "duration": 0.16467225000002372
                },
                {
                    "name": "A#3",
                    "midi": 58,
                    "time": 509.495941500006,
                    "velocity": 0.2755905511811024,
                    "duration": 0.16467225000002372
                },
                {
                    "name": "F2",
                    "midi": 41,
                    "time": 509.82528600000603,
                    "velocity": 0.31496062992125984,
                    "duration": 0.16467225000002372
                },
                {
                    "name": "F3",
                    "midi": 53,
                    "time": 510.1546305000061,
                    "velocity": 0.2440944881889764,
                    "duration": 0.9880334999999718
                },
                {
                    "name": "C4",
                    "midi": 60,
                    "time": 510.1546305000061,
                    "velocity": 0.2440944881889764,
                    "duration": 0.3293444999999906
                },
                {
                    "name": "A3",
                    "midi": 57,
                    "time": 510.1546305000061,
                    "velocity": 0.2440944881889764,
                    "duration": 0.3293444999999906
                },
                {
                    "name": "D4",
                    "midi": 62,
                    "time": 510.48397500000607,
                    "velocity": 0.2440944881889764,
                    "duration": 0.3293444999999906
                },
                {
                    "name": "A#3",
                    "midi": 58,
                    "time": 510.48397500000607,
                    "velocity": 0.2440944881889764,
                    "duration": 0.3293444999999906
                },
                {
                    "name": "A3",
                    "midi": 57,
                    "time": 510.81331950000606,
                    "velocity": 0.2440944881889764,
                    "duration": 0.3293444999999906
                },
                {
                    "name": "D#4",
                    "midi": 63,
                    "time": 510.81331950000606,
                    "velocity": 0.2440944881889764,
                    "duration": 0.3293444999999906
                },
                {
                    "name": "A#2",
                    "midi": 46,
                    "time": 511.14266400000605,
                    "velocity": 0.31496062992125984,
                    "duration": 0.16467225000002372
                },
                {
                    "name": "D4",
                    "midi": 62,
                    "time": 511.4720085000061,
                    "velocity": 0.2677165354330709,
                    "duration": 0.658689000000038
                },
                {
                    "name": "A#3",
                    "midi": 58,
                    "time": 511.4720085000061,
                    "velocity": 0.2204724409448819,
                    "duration": 0.658689000000038
                },
                {
                    "name": "F3",
                    "midi": 53,
                    "time": 511.4720085000061,
                    "velocity": 0.2204724409448819,
                    "duration": 0.658689000000038
                },
                {
                    "name": "F3",
                    "midi": 53,
                    "time": 512.1306975000061,
                    "velocity": 0.2204724409448819,
                    "duration": 0.32934450000004745
                },
                {
                    "name": "A#3",
                    "midi": 58,
                    "time": 512.1306975000061,
                    "velocity": 0.2204724409448819,
                    "duration": 0.32934450000004745
                },
                {
                    "name": "D4",
                    "midi": 62,
                    "time": 512.1306975000061,
                    "velocity": 0.2677165354330709,
                    "duration": 0.32934450000004745
                },
                {
                    "name": "D3",
                    "midi": 50,
                    "time": 512.4600420000062,
                    "velocity": 0.31496062992125984,
                    "duration": 0.16467224999996688
                },
                {
                    "name": "G#3",
                    "midi": 56,
                    "time": 512.7893865000061,
                    "velocity": 0.1889763779527559,
                    "duration": 0.6586889999999812
                },
                {
                    "name": "A#3",
                    "midi": 58,
                    "time": 512.7893865000061,
                    "velocity": 0.1889763779527559,
                    "duration": 0.6586889999999812
                },
                {
                    "name": "F4",
                    "midi": 65,
                    "time": 512.7893865000061,
                    "velocity": 0.2283464566929134,
                    "duration": 0.6586889999999812
                },
                {
                    "name": "G#3",
                    "midi": 56,
                    "time": 513.4480755000061,
                    "velocity": 0.1889763779527559,
                    "duration": 0.32934450000004745
                },
                {
                    "name": "A#3",
                    "midi": 58,
                    "time": 513.4480755000061,
                    "velocity": 0.1889763779527559,
                    "duration": 0.32934450000004745
                },
                {
                    "name": "F4",
                    "midi": 65,
                    "time": 513.4480755000061,
                    "velocity": 0.2283464566929134,
                    "duration": 0.32934450000004745
                },
                {
                    "name": "D#3",
                    "midi": 51,
                    "time": 513.7774200000061,
                    "velocity": 0.31496062992125984,
                    "duration": 0.16467224999996688
                },
                {
                    "name": "D#4",
                    "midi": 63,
                    "time": 514.1067645000061,
                    "velocity": 0.2677165354330709,
                    "duration": 0.6586889999999812
                },
                {
                    "name": "A#3",
                    "midi": 58,
                    "time": 514.1067645000061,
                    "velocity": 0.2204724409448819,
                    "duration": 0.6586889999999812
                },
                {
                    "name": "G3",
                    "midi": 55,
                    "time": 514.1067645000061,
                    "velocity": 0.2204724409448819,
                    "duration": 0.6586889999999812
                },
                {
                    "name": "G3",
                    "midi": 55,
                    "time": 514.7654535000061,
                    "velocity": 0.2204724409448819,
                    "duration": 0.32934450000004745
                },
                {
                    "name": "A#3",
                    "midi": 58,
                    "time": 514.7654535000061,
                    "velocity": 0.2204724409448819,
                    "duration": 0.32934450000004745
                },
                {
                    "name": "D#4",
                    "midi": 63,
                    "time": 514.7654535000061,
                    "velocity": 0.2677165354330709,
                    "duration": 0.32934450000004745
                },
                {
                    "name": "E3",
                    "midi": 52,
                    "time": 515.0947980000061,
                    "velocity": 0.31496062992125984,
                    "duration": 0.16467224999996688
                },
                {
                    "name": "A#3",
                    "midi": 58,
                    "time": 515.424142500006,
                    "velocity": 0.1889763779527559,
                    "duration": 0.6586889999999812
                },
                {
                    "name": "C#4",
                    "midi": 61,
                    "time": 515.424142500006,
                    "velocity": 0.1889763779527559,
                    "duration": 0.6586889999999812
                },
                {
                    "name": "G4",
                    "midi": 67,
                    "time": 515.424142500006,
                    "velocity": 0.2283464566929134,
                    "duration": 0.6586889999999812
                },
                {
                    "name": "A#3",
                    "midi": 58,
                    "time": 516.082831500006,
                    "velocity": 0.1889763779527559,
                    "duration": 0.32934450000004745
                },
                {
                    "name": "C#4",
                    "midi": 61,
                    "time": 516.082831500006,
                    "velocity": 0.1889763779527559,
                    "duration": 0.32934450000004745
                },
                {
                    "name": "G4",
                    "midi": 67,
                    "time": 516.082831500006,
                    "velocity": 0.2283464566929134,
                    "duration": 0.32934450000004745
                },
                {
                    "name": "G3",
                    "midi": 55,
                    "time": 516.4121760000061,
                    "velocity": 0.31496062992125984,
                    "duration": 0.16467224999996688
                },
                {
                    "name": "E4",
                    "midi": 64,
                    "time": 516.741520500006,
                    "velocity": 0.2677165354330709,
                    "duration": 0.6586889999999812
                },
                {
                    "name": "C4",
                    "midi": 60,
                    "time": 516.741520500006,
                    "velocity": 0.2204724409448819,
                    "duration": 0.6586889999999812
                },
                {
                    "name": "A#3",
                    "midi": 58,
                    "time": 516.741520500006,
                    "velocity": 0.2204724409448819,
                    "duration": 0.6586889999999812
                },
                {
                    "name": "E4",
                    "midi": 64,
                    "time": 517.400209500006,
                    "velocity": 0.2677165354330709,
                    "duration": 0.32934450000004745
                },
                {
                    "name": "A#3",
                    "midi": 58,
                    "time": 517.400209500006,
                    "velocity": 0.2204724409448819,
                    "duration": 0.32934450000004745
                },
                {
                    "name": "C4",
                    "midi": 60,
                    "time": 517.400209500006,
                    "velocity": 0.2204724409448819,
                    "duration": 0.32934450000004745
                },
                {
                    "name": "F3",
                    "midi": 53,
                    "time": 517.729554000006,
                    "velocity": 0.31496062992125984,
                    "duration": 0.16467224999996688
                },
                {
                    "name": "D4",
                    "midi": 62,
                    "time": 518.058898500006,
                    "velocity": 0.1889763779527559,
                    "duration": 0.6586889999999812
                },
                {
                    "name": "A#3",
                    "midi": 58,
                    "time": 518.058898500006,
                    "velocity": 0.1889763779527559,
                    "duration": 0.6586889999999812
                },
                {
                    "name": "F4",
                    "midi": 65,
                    "time": 518.058898500006,
                    "velocity": 0.2283464566929134,
                    "duration": 0.6586889999999812
                },
                {
                    "name": "D4",
                    "midi": 62,
                    "time": 518.717587500006,
                    "velocity": 0.1889763779527559,
                    "duration": 0.32934450000004745
                },
                {
                    "name": "A#3",
                    "midi": 58,
                    "time": 518.717587500006,
                    "velocity": 0.1889763779527559,
                    "duration": 0.32934450000004745
                },
                {
                    "name": "F4",
                    "midi": 65,
                    "time": 518.717587500006,
                    "velocity": 0.2283464566929134,
                    "duration": 0.32934450000004745
                },
                {
                    "name": "F2",
                    "midi": 41,
                    "time": 519.046932000006,
                    "velocity": 0.31496062992125984,
                    "duration": 0.16467224999996688
                },
                {
                    "name": "A3",
                    "midi": 57,
                    "time": 519.3762765000059,
                    "velocity": 0.2440944881889764,
                    "duration": 0.6586889999999812
                },
                {
                    "name": "F3",
                    "midi": 53,
                    "time": 519.3762765000059,
                    "velocity": 0.2440944881889764,
                    "duration": 0.6586889999999812
                },
                {
                    "name": "D#4",
                    "midi": 63,
                    "time": 519.3762765000059,
                    "velocity": 0.2440944881889764,
                    "duration": 0.6586889999999812
                },
                {
                    "name": "F3",
                    "midi": 53,
                    "time": 520.0349655000059,
                    "velocity": 0.2440944881889764,
                    "duration": 0.32934450000004745
                },
                {
                    "name": "A3",
                    "midi": 57,
                    "time": 520.0349655000059,
                    "velocity": 0.2440944881889764,
                    "duration": 0.32934450000004745
                },
                {
                    "name": "D#4",
                    "midi": 63,
                    "time": 520.0349655000059,
                    "velocity": 0.2440944881889764,
                    "duration": 0.32934450000004745
                },
                {
                    "name": "A#2",
                    "midi": 46,
                    "time": 520.364310000006,
                    "velocity": 0.31496062992125984,
                    "duration": 0.16467224999996688
                },
                {
                    "name": "A#3",
                    "midi": 58,
                    "time": 520.6936545000059,
                    "velocity": 0.2440944881889764,
                    "duration": 0.9880335000000287
                },
                {
                    "name": "D4",
                    "midi": 62,
                    "time": 520.6936545000059,
                    "velocity": 0.2440944881889764,
                    "duration": 0.9880335000000287
                },
                {
                    "name": "D2",
                    "midi": 38,
                    "time": 521.6816880000059,
                    "velocity": 0.4015748031496063,
                    "duration": 0.10978150000005371
                },
                {
                    "name": "E2",
                    "midi": 40,
                    "time": 521.791469500006,
                    "velocity": 0.3779527559055118,
                    "duration": 0.10978150000005371
                },
                {
                    "name": "F#2",
                    "midi": 42,
                    "time": 521.901251000006,
                    "velocity": 0.36220472440944884,
                    "duration": 0.10978150000005371
                },
                {
                    "name": "G2",
                    "midi": 43,
                    "time": 522.0110325000061,
                    "velocity": 0.41732283464566927,
                    "duration": 0.10978150000005371
                },
                {
                    "name": "A2",
                    "midi": 45,
                    "time": 522.1208140000061,
                    "velocity": 0.4251968503937008,
                    "duration": 0.10978150000005371
                },
                {
                    "name": "A#2",
                    "midi": 46,
                    "time": 522.2305955000062,
                    "velocity": 0.3858267716535433,
                    "duration": 0.10978150000005371
                },
                {
                    "name": "C3",
                    "midi": 48,
                    "time": 522.3403770000062,
                    "velocity": 0.4330708661417323,
                    "duration": 0.10978150000005371
                },
                {
                    "name": "D3",
                    "midi": 50,
                    "time": 522.4501585000063,
                    "velocity": 0.4094488188976378,
                    "duration": 0.10978150000005371
                },
                {
                    "name": "E3",
                    "midi": 52,
                    "time": 522.5599400000063,
                    "velocity": 0.41732283464566927,
                    "duration": 0.10978150000005371
                },
                {
                    "name": "F#3",
                    "midi": 54,
                    "time": 522.6697215000064,
                    "velocity": 0.44881889763779526,
                    "duration": 0.10978150000005371
                },
                {
                    "name": "G3",
                    "midi": 55,
                    "time": 522.7795030000065,
                    "velocity": 0.4251968503937008,
                    "duration": 0.10978150000005371
                },
                {
                    "name": "A3",
                    "midi": 57,
                    "time": 522.8892845000065,
                    "velocity": 0.4251968503937008,
                    "duration": 0.10978150000005371
                },
                {
                    "name": "A#3",
                    "midi": 58,
                    "time": 522.9990660000066,
                    "velocity": 0.49606299212598426,
                    "duration": 0.10978150000005371
                },
                {
                    "name": "D4",
                    "midi": 62,
                    "time": 523.1088475000066,
                    "velocity": 0.4251968503937008,
                    "duration": 0.10978150000005371
                },
                {
                    "name": "A#3",
                    "midi": 58,
                    "time": 523.2186290000067,
                    "velocity": 0.4251968503937008,
                    "duration": 0.10978150000005371
                },
                {
                    "name": "G3",
                    "midi": 55,
                    "time": 523.3284105000067,
                    "velocity": 0.4881889763779528,
                    "duration": 0.10978150000005371
                },
                {
                    "name": "A#3",
                    "midi": 58,
                    "time": 523.4381920000068,
                    "velocity": 0.41732283464566927,
                    "duration": 0.10978150000005371
                },
                {
                    "name": "G3",
                    "midi": 55,
                    "time": 523.5479735000068,
                    "velocity": 0.41732283464566927,
                    "duration": 0.10978150000005371
                },
                {
                    "name": "D3",
                    "midi": 50,
                    "time": 523.6577550000069,
                    "velocity": 0.5118110236220472,
                    "duration": 0.10978150000005371
                },
                {
                    "name": "G3",
                    "midi": 55,
                    "time": 523.7675365000069,
                    "velocity": 0.41732283464566927,
                    "duration": 0.10978150000005371
                },
                {
                    "name": "D3",
                    "midi": 50,
                    "time": 523.877318000007,
                    "velocity": 0.41732283464566927,
                    "duration": 0.10978150000005371
                },
                {
                    "name": "A#2",
                    "midi": 46,
                    "time": 523.987099500007,
                    "velocity": 0.5118110236220472,
                    "duration": 0.10978150000005371
                },
                {
                    "name": "D3",
                    "midi": 50,
                    "time": 524.0968810000071,
                    "velocity": 0.4015748031496063,
                    "duration": 0.10978150000005371
                },
                {
                    "name": "A#2",
                    "midi": 46,
                    "time": 524.2066625000072,
                    "velocity": 0.4015748031496063,
                    "duration": 0.10978150000005371
                },
                {
                    "name": "G2",
                    "midi": 43,
                    "time": 524.3164440000072,
                    "velocity": 0.4015748031496063,
                    "duration": 0.10978150000005371
                },
                {
                    "name": "A2",
                    "midi": 45,
                    "time": 524.4262255000073,
                    "velocity": 0.3779527559055118,
                    "duration": 0.10978150000005371
                },
                {
                    "name": "A#2",
                    "midi": 46,
                    "time": 524.5360070000073,
                    "velocity": 0.36220472440944884,
                    "duration": 0.10978150000005371
                },
                {
                    "name": "C3",
                    "midi": 48,
                    "time": 524.6457885000074,
                    "velocity": 0.41732283464566927,
                    "duration": 0.10978150000005371
                },
                {
                    "name": "D3",
                    "midi": 50,
                    "time": 524.7555700000074,
                    "velocity": 0.4251968503937008,
                    "duration": 0.10978150000005371
                },
                {
                    "name": "E3",
                    "midi": 52,
                    "time": 524.8653515000075,
                    "velocity": 0.3858267716535433,
                    "duration": 0.10978150000005371
                },
                {
                    "name": "F#3",
                    "midi": 54,
                    "time": 524.9751330000075,
                    "velocity": 0.4330708661417323,
                    "duration": 0.10978150000005371
                },
                {
                    "name": "G3",
                    "midi": 55,
                    "time": 525.0849145000076,
                    "velocity": 0.4094488188976378,
                    "duration": 0.10978150000005371
                },
                {
                    "name": "G#3",
                    "midi": 56,
                    "time": 525.1946960000076,
                    "velocity": 0.41732283464566927,
                    "duration": 0.10978150000005371
                },
                {
                    "name": "A3",
                    "midi": 57,
                    "time": 525.3044775000077,
                    "velocity": 0.44881889763779526,
                    "duration": 0.10978150000005371
                },
                {
                    "name": "A#3",
                    "midi": 58,
                    "time": 525.4142590000077,
                    "velocity": 0.4251968503937008,
                    "duration": 0.10978150000005371
                },
                {
                    "name": "B3",
                    "midi": 59,
                    "time": 525.5240405000078,
                    "velocity": 0.4251968503937008,
                    "duration": 0.10978150000005371
                },
                {
                    "name": "C4",
                    "midi": 60,
                    "time": 525.6338220000079,
                    "velocity": 0.49606299212598426,
                    "duration": 0.10978150000005371
                },
                {
                    "name": "E4",
                    "midi": 64,
                    "time": 525.7436035000079,
                    "velocity": 0.4251968503937008,
                    "duration": 0.10978150000005371
                },
                {
                    "name": "C4",
                    "midi": 60,
                    "time": 525.853385000008,
                    "velocity": 0.4251968503937008,
                    "duration": 0.10978150000005371
                },
                {
                    "name": "G3",
                    "midi": 55,
                    "time": 525.963166500008,
                    "velocity": 0.4881889763779528,
                    "duration": 0.10978150000005371
                },
                {
                    "name": "C4",
                    "midi": 60,
                    "time": 526.0729480000081,
                    "velocity": 0.41732283464566927,
                    "duration": 0.10978150000005371
                },
                {
                    "name": "G3",
                    "midi": 55,
                    "time": 526.1827295000081,
                    "velocity": 0.41732283464566927,
                    "duration": 0.10978150000005371
                },
                {
                    "name": "E3",
                    "midi": 52,
                    "time": 526.2925110000082,
                    "velocity": 0.5118110236220472,
                    "duration": 0.10978150000005371
                },
                {
                    "name": "G3",
                    "midi": 55,
                    "time": 526.4022925000082,
                    "velocity": 0.41732283464566927,
                    "duration": 0.10978150000005371
                },
                {
                    "name": "E3",
                    "midi": 52,
                    "time": 526.5120740000083,
                    "velocity": 0.41732283464566927,
                    "duration": 0.10978150000005371
                },
                {
                    "name": "C3",
                    "midi": 48,
                    "time": 526.6218555000083,
                    "velocity": 0.5118110236220472,
                    "duration": 0.32934450000004745
                },
                {
                    "name": "A2",
                    "midi": 45,
                    "time": 526.9512000000084,
                    "velocity": 0.4015748031496063,
                    "duration": 0.10978150000005371
                },
                {
                    "name": "C3",
                    "midi": 48,
                    "time": 527.0609815000084,
                    "velocity": 0.3228346456692913,
                    "duration": 0.10978150000005371
                },
                {
                    "name": "F3",
                    "midi": 53,
                    "time": 527.1707630000085,
                    "velocity": 0.3464566929133858,
                    "duration": 0.10978150000005371
                },
                {
                    "name": "A3",
                    "midi": 57,
                    "time": 527.2805445000085,
                    "velocity": 0.3700787401574803,
                    "duration": 0.10978150000005371
                },
                {
                    "name": "C4",
                    "midi": 60,
                    "time": 527.3903260000086,
                    "velocity": 0.3937007874015748,
                    "duration": 0.10978150000005371
                },
                {
                    "name": "F4",
                    "midi": 65,
                    "time": 527.5001075000087,
                    "velocity": 0.41732283464566927,
                    "duration": 0.10978150000005371
                },
                {
                    "name": "A4",
                    "midi": 69,
                    "time": 527.6098890000087,
                    "velocity": 0.4409448818897638,
                    "duration": 0.32934450000004745
                },
                {
                    "name": "A#2",
                    "midi": 46,
                    "time": 528.2685780000088,
                    "velocity": 0.4015748031496063,
                    "duration": 0.10978150000005371
                },
                {
                    "name": "D3",
                    "midi": 50,
                    "time": 528.3783595000089,
                    "velocity": 0.3228346456692913,
                    "duration": 0.10978150000005371
                },
                {
                    "name": "G3",
                    "midi": 55,
                    "time": 528.4881410000089,
                    "velocity": 0.3464566929133858,
                    "duration": 0.10978150000005371
                },
                {
                    "name": "A#3",
                    "midi": 58,
                    "time": 528.597922500009,
                    "velocity": 0.3700787401574803,
                    "duration": 0.10978150000005371
                },
                {
                    "name": "D4",
                    "midi": 62,
                    "time": 528.707704000009,
                    "velocity": 0.3937007874015748,
                    "duration": 0.10978150000005371
                },
                {
                    "name": "G4",
                    "midi": 67,
                    "time": 528.8174855000091,
                    "velocity": 0.41732283464566927,
                    "duration": 0.10978150000005371
                },
                {
                    "name": "A#4",
                    "midi": 70,
                    "time": 528.9272670000091,
                    "velocity": 0.4409448818897638,
                    "duration": 0.32934450000004745
                },
                {
                    "name": "C3",
                    "midi": 48,
                    "time": 529.5859560000092,
                    "velocity": 0.4645669291338583,
                    "duration": 0.16467224999996688
                },
                {
                    "name": "F4",
                    "midi": 65,
                    "time": 529.9153005000092,
                    "velocity": 0.31496062992125984,
                    "duration": 0.16467224999996688
                },
                {
                    "name": "C4",
                    "midi": 60,
                    "time": 529.9153005000092,
                    "velocity": 0.2677165354330709,
                    "duration": 0.16467224999996688
                },
                {
                    "name": "A3",
                    "midi": 57,
                    "time": 529.9153005000092,
                    "velocity": 0.2677165354330709,
                    "duration": 0.16467224999996688
                },
                {
                    "name": "C3",
                    "midi": 48,
                    "time": 530.2446450000091,
                    "velocity": 0.36220472440944884,
                    "duration": 0.16467224999996688
                },
                {
                    "name": "E4",
                    "midi": 64,
                    "time": 530.573989500009,
                    "velocity": 0.33070866141732286,
                    "duration": 0.16467224999996688
                },
                {
                    "name": "C4",
                    "midi": 60,
                    "time": 530.573989500009,
                    "velocity": 0.2755905511811024,
                    "duration": 0.16467224999996688
                },
                {
                    "name": "A#3",
                    "midi": 58,
                    "time": 530.573989500009,
                    "velocity": 0.2755905511811024,
                    "duration": 0.16467224999996688
                },
                {
                    "name": "F2",
                    "midi": 41,
                    "time": 530.903334000009,
                    "velocity": 0.31496062992125984,
                    "duration": 0.16467224999996688
                },
                {
                    "name": "F3",
                    "midi": 53,
                    "time": 531.2326785000089,
                    "velocity": 0.2440944881889764,
                    "duration": 0.9880335000001423
                },
                {
                    "name": "C4",
                    "midi": 60,
                    "time": 531.2326785000089,
                    "velocity": 0.2440944881889764,
                    "duration": 0.32934450000004745
                },
                {
                    "name": "A3",
                    "midi": 57,
                    "time": 531.2326785000089,
                    "velocity": 0.2440944881889764,
                    "duration": 0.32934450000004745
                },
                {
                    "name": "D4",
                    "midi": 62,
                    "time": 531.5620230000089,
                    "velocity": 0.2440944881889764,
                    "duration": 0.32934450000004745
                },
                {
                    "name": "A#3",
                    "midi": 58,
                    "time": 531.5620230000089,
                    "velocity": 0.2440944881889764,
                    "duration": 0.32934450000004745
                },
                {
                    "name": "A3",
                    "midi": 57,
                    "time": 531.891367500009,
                    "velocity": 0.2440944881889764,
                    "duration": 0.32934450000004745
                },
                {
                    "name": "D#4",
                    "midi": 63,
                    "time": 531.891367500009,
                    "velocity": 0.2440944881889764,
                    "duration": 0.32934450000004745
                },
                {
                    "name": "A#2",
                    "midi": 46,
                    "time": 532.220712000009,
                    "velocity": 0.31496062992125984,
                    "duration": 0.16467224999996688
                },
                {
                    "name": "F3",
                    "midi": 53,
                    "time": 532.550056500009,
                    "velocity": 0.2204724409448819,
                    "duration": 0.6586889999999812
                },
                {
                    "name": "D4",
                    "midi": 62,
                    "time": 532.550056500009,
                    "velocity": 0.2677165354330709,
                    "duration": 0.6586889999999812
                },
                {
                    "name": "A#3",
                    "midi": 58,
                    "time": 532.550056500009,
                    "velocity": 0.2204724409448819,
                    "duration": 0.6586889999999812
                },
                {
                    "name": "F3",
                    "midi": 53,
                    "time": 533.208745500009,
                    "velocity": 0.2204724409448819,
                    "duration": 0.32934450000004745
                },
                {
                    "name": "A#3",
                    "midi": 58,
                    "time": 533.208745500009,
                    "velocity": 0.2204724409448819,
                    "duration": 0.32934450000004745
                },
                {
                    "name": "D4",
                    "midi": 62,
                    "time": 533.208745500009,
                    "velocity": 0.2677165354330709,
                    "duration": 0.32934450000004745
                },
                {
                    "name": "D3",
                    "midi": 50,
                    "time": 533.538090000009,
                    "velocity": 0.31496062992125984,
                    "duration": 0.16467224999996688
                },
                {
                    "name": "G#3",
                    "midi": 56,
                    "time": 533.8674345000089,
                    "velocity": 0.1889763779527559,
                    "duration": 0.6586889999999812
                },
                {
                    "name": "A#3",
                    "midi": 58,
                    "time": 533.8674345000089,
                    "velocity": 0.1889763779527559,
                    "duration": 0.6586889999999812
                },
                {
                    "name": "F4",
                    "midi": 65,
                    "time": 533.8674345000089,
                    "velocity": 0.2283464566929134,
                    "duration": 0.6586889999999812
                },
                {
                    "name": "G#3",
                    "midi": 56,
                    "time": 534.5261235000089,
                    "velocity": 0.1889763779527559,
                    "duration": 0.32934450000004745
                },
                {
                    "name": "A#3",
                    "midi": 58,
                    "time": 534.5261235000089,
                    "velocity": 0.1889763779527559,
                    "duration": 0.32934450000004745
                },
                {
                    "name": "F4",
                    "midi": 65,
                    "time": 534.5261235000089,
                    "velocity": 0.2283464566929134,
                    "duration": 0.32934450000004745
                },
                {
                    "name": "D#3",
                    "midi": 51,
                    "time": 534.855468000009,
                    "velocity": 0.31496062992125984,
                    "duration": 0.16467224999996688
                },
                {
                    "name": "D#4",
                    "midi": 63,
                    "time": 535.1848125000089,
                    "velocity": 0.2677165354330709,
                    "duration": 0.6586889999999812
                },
                {
                    "name": "A#3",
                    "midi": 58,
                    "time": 535.1848125000089,
                    "velocity": 0.2204724409448819,
                    "duration": 0.6586889999999812
                },
                {
                    "name": "G3",
                    "midi": 55,
                    "time": 535.1848125000089,
                    "velocity": 0.2204724409448819,
                    "duration": 0.6586889999999812
                },
                {
                    "name": "G3",
                    "midi": 55,
                    "time": 535.8435015000089,
                    "velocity": 0.2204724409448819,
                    "duration": 0.32934450000004745
                },
                {
                    "name": "A#3",
                    "midi": 58,
                    "time": 535.8435015000089,
                    "velocity": 0.2204724409448819,
                    "duration": 0.32934450000004745
                },
                {
                    "name": "D#4",
                    "midi": 63,
                    "time": 535.8435015000089,
                    "velocity": 0.2677165354330709,
                    "duration": 0.32934450000004745
                },
                {
                    "name": "E3",
                    "midi": 52,
                    "time": 536.1728460000089,
                    "velocity": 0.31496062992125984,
                    "duration": 0.16467224999996688
                },
                {
                    "name": "A#3",
                    "midi": 58,
                    "time": 536.5021905000089,
                    "velocity": 0.1889763779527559,
                    "duration": 0.6586889999999812
                },
                {
                    "name": "C#4",
                    "midi": 61,
                    "time": 536.5021905000089,
                    "velocity": 0.1889763779527559,
                    "duration": 0.6586889999999812
                },
                {
                    "name": "G4",
                    "midi": 67,
                    "time": 536.5021905000089,
                    "velocity": 0.2283464566929134,
                    "duration": 0.6586889999999812
                },
                {
                    "name": "A#3",
                    "midi": 58,
                    "time": 537.1608795000088,
                    "velocity": 0.1889763779527559,
                    "duration": 0.32934450000004745
                },
                {
                    "name": "C#4",
                    "midi": 61,
                    "time": 537.1608795000088,
                    "velocity": 0.1889763779527559,
                    "duration": 0.32934450000004745
                },
                {
                    "name": "G4",
                    "midi": 67,
                    "time": 537.1608795000088,
                    "velocity": 0.2283464566929134,
                    "duration": 0.32934450000004745
                },
                {
                    "name": "G3",
                    "midi": 55,
                    "time": 537.4902240000089,
                    "velocity": 0.31496062992125984,
                    "duration": 0.16467224999996688
                },
                {
                    "name": "C4",
                    "midi": 60,
                    "time": 537.8195685000088,
                    "velocity": 0.2204724409448819,
                    "duration": 0.6586889999999812
                },
                {
                    "name": "E4",
                    "midi": 64,
                    "time": 537.8195685000088,
                    "velocity": 0.2677165354330709,
                    "duration": 0.6586889999999812
                },
                {
                    "name": "A#3",
                    "midi": 58,
                    "time": 537.8195685000088,
                    "velocity": 0.2204724409448819,
                    "duration": 0.6586889999999812
                },
                {
                    "name": "A#3",
                    "midi": 58,
                    "time": 538.4782575000088,
                    "velocity": 0.2204724409448819,
                    "duration": 0.32934450000004745
                },
                {
                    "name": "C4",
                    "midi": 60,
                    "time": 538.4782575000088,
                    "velocity": 0.2204724409448819,
                    "duration": 0.32934450000004745
                },
                {
                    "name": "E4",
                    "midi": 64,
                    "time": 538.4782575000088,
                    "velocity": 0.2677165354330709,
                    "duration": 0.32934450000004745
                },
                {
                    "name": "F3",
                    "midi": 53,
                    "time": 538.8076020000088,
                    "velocity": 0.31496062992125984,
                    "duration": 0.16467224999996688
                },
                {
                    "name": "D4",
                    "midi": 62,
                    "time": 539.1369465000088,
                    "velocity": 0.1889763779527559,
                    "duration": 0.6586889999999812
                },
                {
                    "name": "A#3",
                    "midi": 58,
                    "time": 539.1369465000088,
                    "velocity": 0.1889763779527559,
                    "duration": 0.6586889999999812
                },
                {
                    "name": "F4",
                    "midi": 65,
                    "time": 539.1369465000088,
                    "velocity": 0.2283464566929134,
                    "duration": 0.6586889999999812
                },
                {
                    "name": "D4",
                    "midi": 62,
                    "time": 539.7956355000088,
                    "velocity": 0.1889763779527559,
                    "duration": 0.32934450000004745
                },
                {
                    "name": "A#3",
                    "midi": 58,
                    "time": 539.7956355000088,
                    "velocity": 0.1889763779527559,
                    "duration": 0.32934450000004745
                },
                {
                    "name": "F4",
                    "midi": 65,
                    "time": 539.7956355000088,
                    "velocity": 0.2283464566929134,
                    "duration": 0.32934450000004745
                },
                {
                    "name": "F2",
                    "midi": 41,
                    "time": 540.1249800000088,
                    "velocity": 0.31496062992125984,
                    "duration": 0.16467224999996688
                },
                {
                    "name": "A3",
                    "midi": 57,
                    "time": 540.4543245000087,
                    "velocity": 0.2440944881889764,
                    "duration": 0.6586889999999812
                },
                {
                    "name": "F3",
                    "midi": 53,
                    "time": 540.4543245000087,
                    "velocity": 0.2440944881889764,
                    "duration": 0.6586889999999812
                },
                {
                    "name": "D#4",
                    "midi": 63,
                    "time": 540.4543245000087,
                    "velocity": 0.2440944881889764,
                    "duration": 0.6586889999999812
                },
                {
                    "name": "F3",
                    "midi": 53,
                    "time": 541.1130135000087,
                    "velocity": 0.2440944881889764,
                    "duration": 0.32934450000004745
                },
                {
                    "name": "A3",
                    "midi": 57,
                    "time": 541.1130135000087,
                    "velocity": 0.2440944881889764,
                    "duration": 0.32934450000004745
                },
                {
                    "name": "D#4",
                    "midi": 63,
                    "time": 541.1130135000087,
                    "velocity": 0.2440944881889764,
                    "duration": 0.32934450000004745
                },
                {
                    "name": "F2",
                    "midi": 41,
                    "time": 541.4423580000088,
                    "velocity": 0.31496062992125984,
                    "duration": 0.16467224999996688
                },
                {
                    "name": "D4",
                    "midi": 62,
                    "time": 541.7717025000087,
                    "velocity": 0.2440944881889764,
                    "duration": 0.6586889999999812
                },
                {
                    "name": "F3",
                    "midi": 53,
                    "time": 541.7717025000087,
                    "velocity": 0.2440944881889764,
                    "duration": 0.6586889999999812
                },
                {
                    "name": "A#3",
                    "midi": 58,
                    "time": 541.7717025000087,
                    "velocity": 0.2440944881889764,
                    "duration": 0.6586889999999812
                },
                {
                    "name": "F3",
                    "midi": 53,
                    "time": 542.4303915000087,
                    "velocity": 0.2440944881889764,
                    "duration": 0.32934450000004745
                },
                {
                    "name": "A#3",
                    "midi": 58,
                    "time": 542.4303915000087,
                    "velocity": 0.2440944881889764,
                    "duration": 0.32934450000004745
                },
                {
                    "name": "D4",
                    "midi": 62,
                    "time": 542.4303915000087,
                    "velocity": 0.2440944881889764,
                    "duration": 0.32934450000004745
                },
                {
                    "name": "F2",
                    "midi": 41,
                    "time": 542.7597360000087,
                    "velocity": 0.2677165354330709,
                    "duration": 0.16467224999996688
                },
                {
                    "name": "F3",
                    "midi": 53,
                    "time": 543.0890805000087,
                    "velocity": 0.2047244094488189,
                    "duration": 0.6586889999999812
                },
                {
                    "name": "D#3",
                    "midi": 51,
                    "time": 543.0890805000087,
                    "velocity": 0.2047244094488189,
                    "duration": 0.6586889999999812
                },
                {
                    "name": "A3",
                    "midi": 57,
                    "time": 543.0890805000087,
                    "velocity": 0.2047244094488189,
                    "duration": 0.6586889999999812
                },
                {
                    "name": "D#3",
                    "midi": 51,
                    "time": 543.7477695000086,
                    "velocity": 0.2047244094488189,
                    "duration": 0.32934450000004745
                },
                {
                    "name": "F3",
                    "midi": 53,
                    "time": 543.7477695000086,
                    "velocity": 0.2047244094488189,
                    "duration": 0.32934450000004745
                },
                {
                    "name": "A3",
                    "midi": 57,
                    "time": 543.7477695000086,
                    "velocity": 0.2047244094488189,
                    "duration": 0.32934450000004745
                },
                {
                    "name": "F2",
                    "midi": 41,
                    "time": 544.0771140000087,
                    "velocity": 0.2677165354330709,
                    "duration": 0.16467224999996688
                },
                {
                    "name": "D3",
                    "midi": 50,
                    "time": 544.4064585000086,
                    "velocity": 0.2047244094488189,
                    "duration": 0.6586889999999812
                },
                {
                    "name": "F3",
                    "midi": 53,
                    "time": 544.4064585000086,
                    "velocity": 0.2047244094488189,
                    "duration": 0.6586889999999812
                },
                {
                    "name": "A#3",
                    "midi": 58,
                    "time": 544.4064585000086,
                    "velocity": 0.2047244094488189,
                    "duration": 0.6586889999999812
                },
                {
                    "name": "D3",
                    "midi": 50,
                    "time": 545.0651475000086,
                    "velocity": 0.2047244094488189,
                    "duration": 0.32934450000004745
                },
                {
                    "name": "F3",
                    "midi": 53,
                    "time": 545.0651475000086,
                    "velocity": 0.2047244094488189,
                    "duration": 0.32934450000004745
                },
                {
                    "name": "A#3",
                    "midi": 58,
                    "time": 545.0651475000086,
                    "velocity": 0.2047244094488189,
                    "duration": 0.32934450000004745
                },
                {
                    "name": "F1",
                    "midi": 29,
                    "time": 545.3944920000087,
                    "velocity": 0.2204724409448819,
                    "duration": 0.16467224999996688
                },
                {
                    "name": "C3",
                    "midi": 48,
                    "time": 545.7238365000086,
                    "velocity": 0.1732283464566929,
                    "duration": 0.6586889999999812
                },
                {
                    "name": "F2",
                    "midi": 41,
                    "time": 545.7238365000086,
                    "velocity": 0.1732283464566929,
                    "duration": 0.6586889999999812
                },
                {
                    "name": "D#3",
                    "midi": 51,
                    "time": 545.7238365000086,
                    "velocity": 0.1732283464566929,
                    "duration": 0.6586889999999812
                },
                {
                    "name": "F2",
                    "midi": 41,
                    "time": 547.6999035000085,
                    "velocity": 0.23622047244094488,
                    "duration": 0.32934450000004745
                },
                {
                    "name": "A#1",
                    "midi": 34,
                    "time": 548.0292480000086,
                    "velocity": 0.2440944881889764,
                    "duration": 0.5928201000000399
                },
                {
                    "name": "F2",
                    "midi": 41,
                    "time": 548.0292480000086,
                    "velocity": 0.2440944881889764,
                    "duration": 0.5928201000000399
                },
                {
                    "name": "A#2",
                    "midi": 46,
                    "time": 548.0292480000086,
                    "velocity": 0.29133858267716534,
                    "duration": 0.5928201000000399
                },
                {
                    "name": "A#1",
                    "midi": 34,
                    "time": 548.6879370000087,
                    "velocity": 0.2283464566929134,
                    "duration": 0.2964100499999631
                },
                {
                    "name": "F2",
                    "midi": 41,
                    "time": 548.6879370000087,
                    "velocity": 0.2283464566929134,
                    "duration": 0.2964100499999631
                },
                {
                    "name": "A#2",
                    "midi": 46,
                    "time": 548.6879370000087,
                    "velocity": 0.2755905511811024,
                    "duration": 0.2964100499999631
                },
                {
                    "name": "A#1",
                    "midi": 34,
                    "time": 549.0172815000086,
                    "velocity": 0.2283464566929134,
                    "duration": 0.2964100499999631
                },
                {
                    "name": "F2",
                    "midi": 41,
                    "time": 549.0172815000086,
                    "velocity": 0.2283464566929134,
                    "duration": 0.2964100499999631
                },
                {
                    "name": "A#2",
                    "midi": 46,
                    "time": 549.0172815000086,
                    "velocity": 0.2755905511811024,
                    "duration": 0.2964100499999631
                },
                {
                    "name": "D2",
                    "midi": 38,
                    "time": 549.3466260000085,
                    "velocity": 0.2440944881889764,
                    "duration": 0.5928201000000399
                },
                {
                    "name": "F2",
                    "midi": 41,
                    "time": 549.3466260000085,
                    "velocity": 0.29133858267716534,
                    "duration": 0.5928201000000399
                },
                {
                    "name": "D2",
                    "midi": 38,
                    "time": 550.0053150000086,
                    "velocity": 0.2204724409448819,
                    "duration": 0.5928201000000399
                },
                {
                    "name": "F2",
                    "midi": 41,
                    "time": 550.0053150000086,
                    "velocity": 0.2677165354330709,
                    "duration": 0.5928201000000399
                },
                {
                    "name": "C2",
                    "midi": 36,
                    "time": 550.6640040000087,
                    "velocity": 0.23622047244094488,
                    "duration": 0.5928201000000399
                },
                {
                    "name": "F2",
                    "midi": 41,
                    "time": 550.6640040000087,
                    "velocity": 0.23622047244094488,
                    "duration": 0.5928201000000399
                },
                {
                    "name": "C3",
                    "midi": 48,
                    "time": 550.6640040000087,
                    "velocity": 0.28346456692913385,
                    "duration": 0.5928201000000399
                },
                {
                    "name": "C2",
                    "midi": 36,
                    "time": 551.3226930000088,
                    "velocity": 0.2125984251968504,
                    "duration": 0.2964100499999631
                },
                {
                    "name": "F2",
                    "midi": 41,
                    "time": 551.3226930000088,
                    "velocity": 0.2125984251968504,
                    "duration": 0.2964100499999631
                },
                {
                    "name": "C3",
                    "midi": 48,
                    "time": 551.3226930000088,
                    "velocity": 0.25196850393700787,
                    "duration": 0.2964100499999631
                },
                {
                    "name": "C2",
                    "midi": 36,
                    "time": 551.6520375000088,
                    "velocity": 0.2440944881889764,
                    "duration": 0.2964100499999631
                },
                {
                    "name": "F2",
                    "midi": 41,
                    "time": 551.6520375000088,
                    "velocity": 0.2440944881889764,
                    "duration": 0.2964100499999631
                },
                {
                    "name": "C3",
                    "midi": 48,
                    "time": 551.6520375000088,
                    "velocity": 0.29133858267716534,
                    "duration": 0.2964100499999631
                },
                {
                    "name": "F#3",
                    "midi": 54,
                    "time": 551.9813820000087,
                    "velocity": 0.3543307086614173,
                    "duration": 0.6586889999999812
                },
                {
                    "name": "F#2",
                    "midi": 42,
                    "time": 551.9813820000087,
                    "velocity": 0.29133858267716534,
                    "duration": 0.6586889999999812
                },
                {
                    "name": "A1",
                    "midi": 33,
                    "time": 551.9813820000087,
                    "velocity": 0.29133858267716534,
                    "duration": 1.3173779999999624
                },
                {
                    "name": "A2",
                    "midi": 45,
                    "time": 551.9813820000087,
                    "velocity": 0.3543307086614173,
                    "duration": 1.3173779999999624
                },
                {
                    "name": "F3",
                    "midi": 53,
                    "time": 552.6400710000087,
                    "velocity": 0.2992125984251969,
                    "duration": 0.6586889999999812
                },
                {
                    "name": "F2",
                    "midi": 41,
                    "time": 552.6400710000087,
                    "velocity": 0.25196850393700787,
                    "duration": 0.6586889999999812
                },
                {
                    "name": "A#1",
                    "midi": 34,
                    "time": 553.2987600000087,
                    "velocity": 0.23622047244094488,
                    "duration": 0.5928201000000399
                },
                {
                    "name": "F2",
                    "midi": 41,
                    "time": 553.2987600000087,
                    "velocity": 0.23622047244094488,
                    "duration": 0.5928201000000399
                },
                {
                    "name": "A#2",
                    "midi": 46,
                    "time": 553.2987600000087,
                    "velocity": 0.28346456692913385,
                    "duration": 0.5928201000000399
                },
                {
                    "name": "G1",
                    "midi": 31,
                    "time": 553.9574490000088,
                    "velocity": 0.2125984251968504,
                    "duration": 0.2964100499999631
                },
                {
                    "name": "G2",
                    "midi": 43,
                    "time": 553.9574490000088,
                    "velocity": 0.25196850393700787,
                    "duration": 0.2964100499999631
                },
                {
                    "name": "G1",
                    "midi": 31,
                    "time": 554.2867935000087,
                    "velocity": 0.2440944881889764,
                    "duration": 0.2964100499999631
                },
                {
                    "name": "G2",
                    "midi": 43,
                    "time": 554.2867935000087,
                    "velocity": 0.29133858267716534,
                    "duration": 0.2964100499999631
                },
                {
                    "name": "G2",
                    "midi": 43,
                    "time": 554.6161380000086,
                    "velocity": 0.29133858267716534,
                    "duration": 1.3173779999999624
                },
                {
                    "name": "C2",
                    "midi": 36,
                    "time": 554.6161380000086,
                    "velocity": 0.29133858267716534,
                    "duration": 1.3173779999999624
                },
                {
                    "name": "C3",
                    "midi": 48,
                    "time": 554.6161380000086,
                    "velocity": 0.3543307086614173,
                    "duration": 1.3173779999999624
                },
                {
                    "name": "F1",
                    "midi": 29,
                    "time": 555.9335160000086,
                    "velocity": 0.2755905511811024,
                    "duration": 1.3173779999999624
                },
                {
                    "name": "F2",
                    "midi": 41,
                    "time": 555.9335160000086,
                    "velocity": 0.33070866141732286,
                    "duration": 1.3173779999999624
                },
                {
                    "name": "A#1",
                    "midi": 34,
                    "time": 557.2508940000085,
                    "velocity": 0.2125984251968504,
                    "duration": 1.3173779999999624
                },
                {
                    "name": "F2",
                    "midi": 41,
                    "time": 557.2508940000085,
                    "velocity": 0.2125984251968504,
                    "duration": 1.3173779999999624
                },
                {
                    "name": "A#2",
                    "midi": 46,
                    "time": 557.2508940000085,
                    "velocity": 0.25196850393700787,
                    "duration": 1.3173779999999624
                },
                {
                    "name": "A#2",
                    "midi": 46,
                    "time": 558.5682720000085,
                    "velocity": 0.23622047244094488,
                    "duration": 0.5928201000000399
                },
                {
                    "name": "F3",
                    "midi": 53,
                    "time": 558.5682720000085,
                    "velocity": 0.23622047244094488,
                    "duration": 0.5928201000000399
                },
                {
                    "name": "A#3",
                    "midi": 58,
                    "time": 558.5682720000085,
                    "velocity": 0.28346456692913385,
                    "duration": 0.5928201000000399
                },
                {
                    "name": "G2",
                    "midi": 43,
                    "time": 559.2269610000086,
                    "velocity": 0.2125984251968504,
                    "duration": 0.2964100499999631
                },
                {
                    "name": "G3",
                    "midi": 55,
                    "time": 559.2269610000086,
                    "velocity": 0.25196850393700787,
                    "duration": 0.2964100499999631
                },
                {
                    "name": "G2",
                    "midi": 43,
                    "time": 559.5563055000085,
                    "velocity": 0.2440944881889764,
                    "duration": 0.2964100499999631
                },
                {
                    "name": "G3",
                    "midi": 55,
                    "time": 559.5563055000085,
                    "velocity": 0.29133858267716534,
                    "duration": 0.2964100499999631
                },
                {
                    "name": "G3",
                    "midi": 55,
                    "time": 559.8856500000085,
                    "velocity": 0.29133858267716534,
                    "duration": 1.3173779999999624
                },
                {
                    "name": "C3",
                    "midi": 48,
                    "time": 559.8856500000085,
                    "velocity": 0.29133858267716534,
                    "duration": 1.3173779999999624
                },
                {
                    "name": "C4",
                    "midi": 60,
                    "time": 559.8856500000085,
                    "velocity": 0.3543307086614173,
                    "duration": 1.3173779999999624
                },
                {
                    "name": "F2",
                    "midi": 41,
                    "time": 561.2030280000084,
                    "velocity": 0.2755905511811024,
                    "duration": 1.3173779999999624
                },
                {
                    "name": "F3",
                    "midi": 53,
                    "time": 561.2030280000084,
                    "velocity": 0.33070866141732286,
                    "duration": 1.3173779999999624
                },
                {
                    "name": "A#2",
                    "midi": 46,
                    "time": 562.5204060000084,
                    "velocity": 0.2125984251968504,
                    "duration": 1.3173779999999624
                },
                {
                    "name": "F3",
                    "midi": 53,
                    "time": 562.5204060000084,
                    "velocity": 0.2125984251968504,
                    "duration": 1.3173779999999624
                },
                {
                    "name": "A#3",
                    "midi": 58,
                    "time": 562.5204060000084,
                    "velocity": 0.25196850393700787,
                    "duration": 1.3173779999999624
                },
                {
                    "name": "F3",
                    "midi": 53,
                    "time": 563.8377840000084,
                    "velocity": 0.2755905511811024,
                    "duration": 2.6347560000000385
                },
                {
                    "name": "C4",
                    "midi": 60,
                    "time": 563.8377840000084,
                    "velocity": 0.2755905511811024,
                    "duration": 2.6347560000000385
                },
                {
                    "name": "D#4",
                    "midi": 63,
                    "time": 563.8377840000084,
                    "velocity": 0.2755905511811024,
                    "duration": 2.6347560000000385
                },
                {
                    "name": "F4",
                    "midi": 65,
                    "time": 563.8377840000084,
                    "velocity": 0.33070866141732286,
                    "duration": 3.2934450000000197
                },
                {
                    "name": "D4",
                    "midi": 62,
                    "time": 566.4725400000084,
                    "velocity": 0.1968503937007874,
                    "duration": 0.6586889999999812
                },
                {
                    "name": "A#3",
                    "midi": 58,
                    "time": 566.4725400000084,
                    "velocity": 0.1968503937007874,
                    "duration": 0.6586889999999812
                },
                {
                    "name": "A#2",
                    "midi": 46,
                    "time": 567.7899180000084,
                    "velocity": 0.1968503937007874,
                    "duration": 0.6586889999999812
                },
                {
                    "name": "F3",
                    "midi": 53,
                    "time": 567.7899180000084,
                    "velocity": 0.1968503937007874,
                    "duration": 0.6586889999999812
                },
                {
                    "name": "A#3",
                    "midi": 58,
                    "time": 567.7899180000084,
                    "velocity": 0.1968503937007874,
                    "duration": 0.6586889999999812
                },
                {
                    "name": "A#2",
                    "midi": 46,
                    "time": 569.1072960000083,
                    "velocity": 0.15748031496062992,
                    "duration": 2.6347560000000385
                },
                {
                    "name": "F3",
                    "midi": 53,
                    "time": 569.1072960000083,
                    "velocity": 0.15748031496062992,
                    "duration": 2.6347560000000385
                },
                {
                    "name": "A#3",
                    "midi": 58,
                    "time": 569.1072960000083,
                    "velocity": 0.1968503937007874,
                    "duration": 2.6347560000000385
                }
            ],
            "controlChanges": {},
            "id": 2,
            "name": "Piano left",
            "instrumentNumber": 0,
            "instrument": "acoustic grand piano",
            "instrumentFamily": "piano",
            "channelNumber": 0,
            "isPercussion": false
        },
        {
            "startTime": 0,
            "duration": 0,
            "length": 0,
            "notes": [],
            "controlChanges": {
                "64": [
                    {
                        "number": 64,
                        "time": 0,
                        "value": 1
                    },
                    {
                        "number": 64,
                        "time": 2.6539677624999998,
                        "value": 0
                    },
                    {
                        "number": 64,
                        "time": 2.7363038874999996,
                        "value": 1
                    },
                    {
                        "number": 64,
                        "time": 5.269511999999999,
                        "value": 0
                    },
                    {
                        "number": 64,
                        "time": 5.434184249999999,
                        "value": 1
                    },
                    {
                        "number": 64,
                        "time": 6.596495881249998,
                        "value": 0
                    },
                    {
                        "number": 64,
                        "time": 6.732350487499998,
                        "value": 1
                    },
                    {
                        "number": 64,
                        "time": 7.923479762499998,
                        "value": 0
                    },
                    {
                        "number": 64,
                        "time": 8.005815887499997,
                        "value": 1
                    },
                    {
                        "number": 64,
                        "time": 9.239485493749998,
                        "value": 0
                    },
                    {
                        "number": 64,
                        "time": 10.636455081249997,
                        "value": 0
                    },
                    {
                        "number": 64,
                        "time": 10.791521449999996,
                        "value": 1
                    },
                    {
                        "number": 64,
                        "time": 13.192991762499997,
                        "value": 0
                    },
                    {
                        "number": 64,
                        "time": 13.275327887499996,
                        "value": 1
                    },
                    {
                        "number": 64,
                        "time": 15.808535999999997,
                        "value": 0
                    },
                    {
                        "number": 64,
                        "time": 15.973208249999997,
                        "value": 1
                    },
                    {
                        "number": 64,
                        "time": 17.138264418749998,
                        "value": 0
                    },
                    {
                        "number": 64,
                        "time": 17.267257681249998,
                        "value": 1
                    },
                    {
                        "number": 64,
                        "time": 18.4625037625,
                        "value": 0
                    },
                    {
                        "number": 64,
                        "time": 19.101981,
                        "value": 1
                    },
                    {
                        "number": 64,
                        "time": 19.778509493749997,
                        "value": 0
                    },
                    {
                        "number": 64,
                        "time": 19.85810108125,
                        "value": 1
                    },
                    {
                        "number": 64,
                        "time": 21.08765388125,
                        "value": 0
                    },
                    {
                        "number": 64,
                        "time": 21.261932012499997,
                        "value": 1
                    },
                    {
                        "number": 64,
                        "time": 23.732015762499998,
                        "value": 0
                    },
                    {
                        "number": 64,
                        "time": 23.8143518875,
                        "value": 1
                    },
                    {
                        "number": 64,
                        "time": 26.347559999999998,
                        "value": 0
                    },
                    {
                        "number": 64,
                        "time": 26.512232249999997,
                        "value": 1
                    },
                    {
                        "number": 64,
                        "time": 27.686894299999995,
                        "value": 0
                    },
                    {
                        "number": 64,
                        "time": 27.898223687499996,
                        "value": 1
                    },
                    {
                        "number": 64,
                        "time": 29.001527762499997,
                        "value": 0
                    },
                    {
                        "number": 64,
                        "time": 29.083863887499998,
                        "value": 1
                    },
                    {
                        "number": 64,
                        "time": 30.31753349375,
                        "value": 0
                    },
                    {
                        "number": 64,
                        "time": 31.714503081249998,
                        "value": 0
                    },
                    {
                        "number": 64,
                        "time": 31.869569449999997,
                        "value": 1
                    },
                    {
                        "number": 64,
                        "time": 34.271039762499996,
                        "value": 0
                    },
                    {
                        "number": 64,
                        "time": 34.35337588749999,
                        "value": 1
                    },
                    {
                        "number": 64,
                        "time": 36.88658399999999,
                        "value": 0
                    },
                    {
                        "number": 64,
                        "time": 37.051256249999994,
                        "value": 1
                    },
                    {
                        "number": 64,
                        "time": 38.22180149374999,
                        "value": 0
                    },
                    {
                        "number": 64,
                        "time": 38.45508718124999,
                        "value": 1
                    },
                    {
                        "number": 64,
                        "time": 39.540551762499994,
                        "value": 0
                    },
                    {
                        "number": 64,
                        "time": 40.189634881249994,
                        "value": 1
                    },
                    {
                        "number": 64,
                        "time": 40.856557493749996,
                        "value": 0
                    },
                    {
                        "number": 64,
                        "time": 40.936149081249994,
                        "value": 1
                    },
                    {
                        "number": 64,
                        "time": 42.165701881249994,
                        "value": 0
                    },
                    {
                        "number": 64,
                        "time": 42.33998001249999,
                        "value": 1
                    },
                    {
                        "number": 64,
                        "time": 43.498174837499995,
                        "value": 0
                    },
                    {
                        "number": 64,
                        "time": 43.79321261875,
                        "value": 1
                    },
                    {
                        "number": 64,
                        "time": 44.8100637625,
                        "value": 0
                    },
                    {
                        "number": 64,
                        "time": 44.8923998875,
                        "value": 1
                    },
                    {
                        "number": 64,
                        "time": 45.468752762499996,
                        "value": 0
                    },
                    {
                        "number": 64,
                        "time": 46.228989649999995,
                        "value": 1
                    },
                    {
                        "number": 64,
                        "time": 47.425608,
                        "value": 0
                    },
                    {
                        "number": 64,
                        "time": 47.46265925625,
                        "value": 0
                    },
                    {
                        "number": 64,
                        "time": 47.59028025,
                        "value": 1
                    },
                    {
                        "number": 64,
                        "time": 48.76082549375,
                        "value": 0
                    },
                    {
                        "number": 64,
                        "time": 48.93647589375,
                        "value": 1
                    },
                    {
                        "number": 64,
                        "time": 50.0795757625,
                        "value": 0
                    },
                    {
                        "number": 64,
                        "time": 50.1619118875,
                        "value": 1
                    },
                    {
                        "number": 64,
                        "time": 50.73414795625,
                        "value": 0
                    },
                    {
                        "number": 64,
                        "time": 50.8288345,
                        "value": 1
                    },
                    {
                        "number": 64,
                        "time": 51.39558149375,
                        "value": 0
                    },
                    {
                        "number": 64,
                        "time": 52.792551081250004,
                        "value": 0
                    },
                    {
                        "number": 64,
                        "time": 52.94761745,
                        "value": 1
                    },
                    {
                        "number": 64,
                        "time": 55.349087762500005,
                        "value": 0
                    },
                    {
                        "number": 64,
                        "time": 55.4314238875,
                        "value": 1
                    },
                    {
                        "number": 64,
                        "time": 56.67332710625,
                        "value": 0
                    },
                    {
                        "number": 64,
                        "time": 56.7597800375,
                        "value": 1
                    },
                    {
                        "number": 64,
                        "time": 57.964632,
                        "value": 0
                    },
                    {
                        "number": 64,
                        "time": 58.001683256250004,
                        "value": 0
                    },
                    {
                        "number": 64,
                        "time": 58.129304250000004,
                        "value": 1
                    },
                    {
                        "number": 64,
                        "time": 59.29984949375,
                        "value": 0
                    },
                    {
                        "number": 64,
                        "time": 59.611354500000004,
                        "value": 1
                    },
                    {
                        "number": 64,
                        "time": 60.618599762500004,
                        "value": 0
                    },
                    {
                        "number": 64,
                        "time": 60.7009358875,
                        "value": 1
                    },
                    {
                        "number": 64,
                        "time": 61.93460549375,
                        "value": 0
                    },
                    {
                        "number": 64,
                        "time": 62.014197081249996,
                        "value": 1
                    },
                    {
                        "number": 64,
                        "time": 63.24374988125,
                        "value": 0
                    },
                    {
                        "number": 64,
                        "time": 63.418028012499995,
                        "value": 1
                    },
                    {
                        "number": 64,
                        "time": 64.5762228375,
                        "value": 0
                    },
                    {
                        "number": 64,
                        "time": 64.87126061875,
                        "value": 1
                    },
                    {
                        "number": 64,
                        "time": 65.8881117625,
                        "value": 0
                    },
                    {
                        "number": 64,
                        "time": 65.9704478875,
                        "value": 1
                    },
                    {
                        "number": 64,
                        "time": 66.533078075,
                        "value": 0
                    },
                    {
                        "number": 64,
                        "time": 67.30703765000001,
                        "value": 1
                    },
                    {
                        "number": 64,
                        "time": 68.503656,
                        "value": 0
                    },
                    {
                        "number": 64,
                        "time": 68.54070725625,
                        "value": 0
                    },
                    {
                        "number": 64,
                        "time": 68.66832825,
                        "value": 1
                    },
                    {
                        "number": 64,
                        "time": 69.83887349375,
                        "value": 0
                    },
                    {
                        "number": 64,
                        "time": 70.01452389375,
                        "value": 1
                    },
                    {
                        "number": 64,
                        "time": 71.1576237625,
                        "value": 0
                    },
                    {
                        "number": 64,
                        "time": 71.23995988749999,
                        "value": 1
                    },
                    {
                        "number": 64,
                        "time": 71.81219595625,
                        "value": 0
                    },
                    {
                        "number": 64,
                        "time": 71.9068825,
                        "value": 1
                    },
                    {
                        "number": 64,
                        "time": 72.47362949375,
                        "value": 0
                    },
                    {
                        "number": 64,
                        "time": 73.87059908124999,
                        "value": 0
                    },
                    {
                        "number": 64,
                        "time": 74.02566544999999,
                        "value": 1
                    },
                    {
                        "number": 64,
                        "time": 76.42713576249999,
                        "value": 0
                    },
                    {
                        "number": 64,
                        "time": 76.50947188749998,
                        "value": 1
                    },
                    {
                        "number": 64,
                        "time": 77.75137510624998,
                        "value": 0
                    },
                    {
                        "number": 64,
                        "time": 77.83782803749997,
                        "value": 1
                    },
                    {
                        "number": 64,
                        "time": 79.04267999999998,
                        "value": 0
                    },
                    {
                        "number": 64,
                        "time": 79.07973125624997,
                        "value": 0
                    },
                    {
                        "number": 64,
                        "time": 79.20735224999997,
                        "value": 1
                    },
                    {
                        "number": 64,
                        "time": 80.37789749374997,
                        "value": 0
                    },
                    {
                        "number": 64,
                        "time": 80.68940249999997,
                        "value": 1
                    },
                    {
                        "number": 64,
                        "time": 81.69664776249998,
                        "value": 0
                    },
                    {
                        "number": 64,
                        "time": 81.77898388749998,
                        "value": 1
                    },
                    {
                        "number": 64,
                        "time": 83.01265349374998,
                        "value": 0
                    },
                    {
                        "number": 64,
                        "time": 83.09224508124998,
                        "value": 1
                    },
                    {
                        "number": 64,
                        "time": 84.33140376249999,
                        "value": 0
                    },
                    {
                        "number": 64,
                        "time": 84.41373988749999,
                        "value": 1
                    },
                    {
                        "number": 64,
                        "time": 85.64740949374999,
                        "value": 0
                    },
                    {
                        "number": 64,
                        "time": 85.72700108125,
                        "value": 1
                    },
                    {
                        "number": 64,
                        "time": 86.9661597625,
                        "value": 0
                    },
                    {
                        "number": 64,
                        "time": 87.0484958875,
                        "value": 1
                    },
                    {
                        "number": 64,
                        "time": 88.28216549375,
                        "value": 0
                    },
                    {
                        "number": 64,
                        "time": 88.58406461875,
                        "value": 1
                    },
                    {
                        "number": 64,
                        "time": 89.29078302500001,
                        "value": 0
                    },
                    {
                        "number": 64,
                        "time": 89.7655880125,
                        "value": 1
                    },
                    {
                        "number": 64,
                        "time": 90.9182937625,
                        "value": 0
                    },
                    {
                        "number": 64,
                        "time": 91.0829660125,
                        "value": 1
                    },
                    {
                        "number": 64,
                        "time": 92.21646,
                        "value": 0
                    },
                    {
                        "number": 64,
                        "time": 92.36603729375,
                        "value": 1
                    },
                    {
                        "number": 64,
                        "time": 92.8888716875,
                        "value": 0
                    },
                    {
                        "number": 64,
                        "time": 92.9849305,
                        "value": 1
                    },
                    {
                        "number": 64,
                        "time": 93.55167749375,
                        "value": 0
                    },
                    {
                        "number": 64,
                        "time": 93.68341529375,
                        "value": 1
                    },
                    {
                        "number": 64,
                        "time": 94.2062496875,
                        "value": 0
                    },
                    {
                        "number": 64,
                        "time": 94.34210429375001,
                        "value": 1
                    },
                    {
                        "number": 64,
                        "time": 94.86631095625002,
                        "value": 0
                    },
                    {
                        "number": 64,
                        "time": 95.03510001250002,
                        "value": 1
                    },
                    {
                        "number": 64,
                        "time": 96.18780576250002,
                        "value": 0
                    },
                    {
                        "number": 64,
                        "time": 96.35247801250001,
                        "value": 1
                    },
                    {
                        "number": 64,
                        "time": 96.84100568750002,
                        "value": 0
                    },
                    {
                        "number": 64,
                        "time": 96.94529811250001,
                        "value": 1
                    },
                    {
                        "number": 64,
                        "time": 97.48597200000002,
                        "value": 0
                    },
                    {
                        "number": 64,
                        "time": 97.63554929375002,
                        "value": 1
                    },
                    {
                        "number": 64,
                        "time": 98.15838368750002,
                        "value": 0
                    },
                    {
                        "number": 64,
                        "time": 98.25444250000002,
                        "value": 1
                    },
                    {
                        "number": 64,
                        "time": 98.82118949375003,
                        "value": 0
                    },
                    {
                        "number": 64,
                        "time": 98.95292729375002,
                        "value": 1
                    },
                    {
                        "number": 64,
                        "time": 99.47576168750003,
                        "value": 0
                    },
                    {
                        "number": 64,
                        "time": 99.55672554375002,
                        "value": 1
                    },
                    {
                        "number": 64,
                        "time": 100.13719522500001,
                        "value": 0
                    },
                    {
                        "number": 64,
                        "time": 100.30461201250002,
                        "value": 1
                    },
                    {
                        "number": 64,
                        "time": 101.45731776250001,
                        "value": 0
                    },
                    {
                        "number": 64,
                        "time": 101.6219900125,
                        "value": 1
                    },
                    {
                        "number": 64,
                        "time": 102.75548400000001,
                        "value": 0
                    },
                    {
                        "number": 64,
                        "time": 102.90506129375001,
                        "value": 1
                    },
                    {
                        "number": 64,
                        "time": 103.42789568750001,
                        "value": 0
                    },
                    {
                        "number": 64,
                        "time": 103.52395450000002,
                        "value": 1
                    },
                    {
                        "number": 64,
                        "time": 104.09070149375002,
                        "value": 0
                    },
                    {
                        "number": 64,
                        "time": 104.22243929375001,
                        "value": 1
                    },
                    {
                        "number": 64,
                        "time": 104.74115688125002,
                        "value": 0
                    },
                    {
                        "number": 64,
                        "time": 104.84133250000002,
                        "value": 1
                    },
                    {
                        "number": 64,
                        "time": 105.41631310625002,
                        "value": 0
                    },
                    {
                        "number": 64,
                        "time": 105.57412401250002,
                        "value": 1
                    },
                    {
                        "number": 64,
                        "time": 106.72682976250002,
                        "value": 0
                    },
                    {
                        "number": 64,
                        "time": 106.89150201250001,
                        "value": 1
                    },
                    {
                        "number": 64,
                        "time": 108.02499600000002,
                        "value": 0
                    },
                    {
                        "number": 64,
                        "time": 108.17457329375002,
                        "value": 1
                    },
                    {
                        "number": 64,
                        "time": 108.69740768750002,
                        "value": 0
                    },
                    {
                        "number": 64,
                        "time": 108.79346650000002,
                        "value": 1
                    },
                    {
                        "number": 64,
                        "time": 109.36021349375002,
                        "value": 0
                    },
                    {
                        "number": 64,
                        "time": 109.49195129375002,
                        "value": 1
                    },
                    {
                        "number": 64,
                        "time": 110.68719737500003,
                        "value": 0
                    },
                    {
                        "number": 64,
                        "time": 110.84363601250003,
                        "value": 1
                    },
                    {
                        "number": 64,
                        "time": 111.99634176250002,
                        "value": 0
                    },
                    {
                        "number": 64,
                        "time": 112.16101401250002,
                        "value": 1
                    },
                    {
                        "number": 64,
                        "time": 113.29450800000002,
                        "value": 0
                    },
                    {
                        "number": 64,
                        "time": 113.44408529375002,
                        "value": 1
                    },
                    {
                        "number": 64,
                        "time": 113.96691968750002,
                        "value": 0
                    },
                    {
                        "number": 64,
                        "time": 114.06297850000003,
                        "value": 1
                    },
                    {
                        "number": 64,
                        "time": 114.62972549375003,
                        "value": 0
                    },
                    {
                        "number": 64,
                        "time": 114.76146329375003,
                        "value": 1
                    },
                    {
                        "number": 64,
                        "time": 115.28429768750003,
                        "value": 0
                    },
                    {
                        "number": 64,
                        "time": 115.37349515625003,
                        "value": 1
                    },
                    {
                        "number": 64,
                        "time": 115.94435895625003,
                        "value": 0
                    },
                    {
                        "number": 64,
                        "time": 116.11314801250003,
                        "value": 1
                    },
                    {
                        "number": 64,
                        "time": 117.26585376250003,
                        "value": 0
                    },
                    {
                        "number": 64,
                        "time": 117.43052601250002,
                        "value": 1
                    },
                    {
                        "number": 64,
                        "time": 117.92317049375002,
                        "value": 0
                    },
                    {
                        "number": 64,
                        "time": 118.05490829375002,
                        "value": 1
                    },
                    {
                        "number": 64,
                        "time": 118.56402000000001,
                        "value": 0
                    },
                    {
                        "number": 64,
                        "time": 118.71359729375001,
                        "value": 1
                    },
                    {
                        "number": 64,
                        "time": 119.23643168750002,
                        "value": 0
                    },
                    {
                        "number": 64,
                        "time": 119.33249050000002,
                        "value": 1
                    },
                    {
                        "number": 64,
                        "time": 119.89923749375002,
                        "value": 0
                    },
                    {
                        "number": 64,
                        "time": 120.03097529375002,
                        "value": 1
                    },
                    {
                        "number": 64,
                        "time": 120.55380968750002,
                        "value": 0
                    },
                    {
                        "number": 64,
                        "time": 120.64986850000003,
                        "value": 1
                    },
                    {
                        "number": 64,
                        "time": 121.21524322500002,
                        "value": 0
                    },
                    {
                        "number": 64,
                        "time": 121.38266001250003,
                        "value": 1
                    },
                    {
                        "number": 64,
                        "time": 122.53536576250002,
                        "value": 0
                    },
                    {
                        "number": 64,
                        "time": 122.70003801250002,
                        "value": 1
                    },
                    {
                        "number": 64,
                        "time": 123.83353200000002,
                        "value": 0
                    },
                    {
                        "number": 64,
                        "time": 123.98310929375002,
                        "value": 1
                    },
                    {
                        "number": 64,
                        "time": 124.50594368750002,
                        "value": 0
                    },
                    {
                        "number": 64,
                        "time": 124.60200250000003,
                        "value": 1
                    },
                    {
                        "number": 64,
                        "time": 125.16874949375003,
                        "value": 0
                    },
                    {
                        "number": 64,
                        "time": 125.30048729375002,
                        "value": 1
                    },
                    {
                        "number": 64,
                        "time": 125.81646034375002,
                        "value": 0
                    },
                    {
                        "number": 64,
                        "time": 125.92761411250002,
                        "value": 1
                    },
                    {
                        "number": 64,
                        "time": 126.48063841875002,
                        "value": 0
                    },
                    {
                        "number": 64,
                        "time": 126.65217201250002,
                        "value": 1
                    },
                    {
                        "number": 64,
                        "time": 127.80487776250001,
                        "value": 0
                    },
                    {
                        "number": 64,
                        "time": 127.96955001250001,
                        "value": 1
                    },
                    {
                        "number": 64,
                        "time": 128.46219449375002,
                        "value": 0
                    },
                    {
                        "number": 64,
                        "time": 128.57746506875003,
                        "value": 1
                    },
                    {
                        "number": 64,
                        "time": 129.10304400000004,
                        "value": 0
                    },
                    {
                        "number": 64,
                        "time": 129.25262129375005,
                        "value": 1
                    },
                    {
                        "number": 64,
                        "time": 129.77545568750006,
                        "value": 0
                    },
                    {
                        "number": 64,
                        "time": 129.87151450000005,
                        "value": 1
                    },
                    {
                        "number": 64,
                        "time": 130.43826149375005,
                        "value": 0
                    },
                    {
                        "number": 64,
                        "time": 130.56999929375004,
                        "value": 1
                    },
                    {
                        "number": 64,
                        "time": 131.75289495625003,
                        "value": 0
                    },
                    {
                        "number": 64,
                        "time": 131.92168401250004,
                        "value": 1
                    },
                    {
                        "number": 64,
                        "time": 133.07438976250003,
                        "value": 0
                    },
                    {
                        "number": 64,
                        "time": 133.23906201250003,
                        "value": 1
                    },
                    {
                        "number": 64,
                        "time": 133.73170649375004,
                        "value": 0
                    },
                    {
                        "number": 64,
                        "time": 134.37255600000003,
                        "value": 0
                    },
                    {
                        "number": 64,
                        "time": 134.52213329375004,
                        "value": 1
                    },
                    {
                        "number": 64,
                        "time": 135.04496768750005,
                        "value": 0
                    },
                    {
                        "number": 64,
                        "time": 135.14926011250006,
                        "value": 1
                    },
                    {
                        "number": 64,
                        "time": 135.70777349375007,
                        "value": 0
                    },
                    {
                        "number": 64,
                        "time": 135.83951129375006,
                        "value": 1
                    },
                    {
                        "number": 64,
                        "time": 136.36097341875006,
                        "value": 0
                    },
                    {
                        "number": 64,
                        "time": 136.51329525000006,
                        "value": 1
                    },
                    {
                        "number": 64,
                        "time": 137.02240695625005,
                        "value": 0
                    },
                    {
                        "number": 64,
                        "time": 137.19119601250006,
                        "value": 1
                    },
                    {
                        "number": 64,
                        "time": 138.34390176250005,
                        "value": 0
                    },
                    {
                        "number": 64,
                        "time": 138.50857401250005,
                        "value": 1
                    },
                    {
                        "number": 64,
                        "time": 139.00121849375006,
                        "value": 0
                    },
                    {
                        "number": 64,
                        "time": 139.10962772500005,
                        "value": 1
                    },
                    {
                        "number": 64,
                        "time": 139.64206800000005,
                        "value": 0
                    },
                    {
                        "number": 64,
                        "time": 139.79164529375007,
                        "value": 1
                    },
                    {
                        "number": 64,
                        "time": 140.31447968750007,
                        "value": 0
                    },
                    {
                        "number": 64,
                        "time": 140.41053850000006,
                        "value": 1
                    },
                    {
                        "number": 64,
                        "time": 140.97728549375006,
                        "value": 0
                    },
                    {
                        "number": 64,
                        "time": 141.10902329375006,
                        "value": 1
                    },
                    {
                        "number": 64,
                        "time": 142.29329122500005,
                        "value": 0
                    },
                    {
                        "number": 64,
                        "time": 142.46070801250005,
                        "value": 1
                    },
                    {
                        "number": 64,
                        "time": 143.61341376250004,
                        "value": 0
                    },
                    {
                        "number": 64,
                        "time": 143.77808601250004,
                        "value": 1
                    },
                    {
                        "number": 64,
                        "time": 144.91158000000004,
                        "value": 0
                    },
                    {
                        "number": 64,
                        "time": 145.06115729375006,
                        "value": 1
                    },
                    {
                        "number": 64,
                        "time": 145.58399168750006,
                        "value": 0
                    },
                    {
                        "number": 64,
                        "time": 145.68005050000005,
                        "value": 1
                    },
                    {
                        "number": 64,
                        "time": 146.24679749375005,
                        "value": 0
                    },
                    {
                        "number": 64,
                        "time": 146.37853529375005,
                        "value": 1
                    },
                    {
                        "number": 64,
                        "time": 146.90548649375006,
                        "value": 0
                    },
                    {
                        "number": 64,
                        "time": 147.02899068125006,
                        "value": 1
                    },
                    {
                        "number": 64,
                        "time": 147.55731415000005,
                        "value": 0
                    },
                    {
                        "number": 64,
                        "time": 147.73022001250004,
                        "value": 1
                    },
                    {
                        "number": 64,
                        "time": 148.88292576250004,
                        "value": 0
                    },
                    {
                        "number": 64,
                        "time": 149.04759801250003,
                        "value": 1
                    },
                    {
                        "number": 64,
                        "time": 149.57043240625003,
                        "value": 0
                    },
                    {
                        "number": 64,
                        "time": 150.33066929375005,
                        "value": 1
                    },
                    {
                        "number": 64,
                        "time": 150.85350368750005,
                        "value": 0
                    },
                    {
                        "number": 64,
                        "time": 150.94956250000004,
                        "value": 1
                    },
                    {
                        "number": 64,
                        "time": 151.51630949375004,
                        "value": 0
                    },
                    {
                        "number": 64,
                        "time": 151.64804729375004,
                        "value": 1
                    },
                    {
                        "number": 64,
                        "time": 152.83368749375003,
                        "value": 0
                    },
                    {
                        "number": 64,
                        "time": 152.99973201250003,
                        "value": 1
                    },
                    {
                        "number": 64,
                        "time": 154.15243776250003,
                        "value": 0
                    },
                    {
                        "number": 64,
                        "time": 154.31711001250002,
                        "value": 1
                    },
                    {
                        "number": 64,
                        "time": 154.79877634375003,
                        "value": 0
                    },
                    {
                        "number": 64,
                        "time": 154.94972590625002,
                        "value": 1
                    },
                    {
                        "number": 64,
                        "time": 155.45060400000003,
                        "value": 0
                    },
                    {
                        "number": 64,
                        "time": 155.60018129375004,
                        "value": 1
                    },
                    {
                        "number": 64,
                        "time": 156.12301568750004,
                        "value": 0
                    },
                    {
                        "number": 64,
                        "time": 156.21907450000003,
                        "value": 1
                    },
                    {
                        "number": 64,
                        "time": 156.78582149375003,
                        "value": 0
                    },
                    {
                        "number": 64,
                        "time": 156.91755929375003,
                        "value": 1
                    },
                    {
                        "number": 64,
                        "time": 157.43902141875003,
                        "value": 0
                    },
                    {
                        "number": 64,
                        "time": 157.59134325000002,
                        "value": 1
                    },
                    {
                        "number": 64,
                        "time": 158.10045495625002,
                        "value": 0
                    },
                    {
                        "number": 64,
                        "time": 158.26924401250002,
                        "value": 1
                    },
                    {
                        "number": 64,
                        "time": 159.42194976250002,
                        "value": 0
                    },
                    {
                        "number": 64,
                        "time": 159.58662201250002,
                        "value": 1
                    },
                    {
                        "number": 64,
                        "time": 160.07926649375003,
                        "value": 0
                    },
                    {
                        "number": 64,
                        "time": 160.18767572500002,
                        "value": 1
                    },
                    {
                        "number": 64,
                        "time": 160.72011600000002,
                        "value": 0
                    },
                    {
                        "number": 64,
                        "time": 160.86969329375003,
                        "value": 1
                    },
                    {
                        "number": 64,
                        "time": 161.39252768750003,
                        "value": 0
                    },
                    {
                        "number": 64,
                        "time": 161.48858650000003,
                        "value": 1
                    },
                    {
                        "number": 64,
                        "time": 162.05533349375003,
                        "value": 0
                    },
                    {
                        "number": 64,
                        "time": 162.18707129375002,
                        "value": 1
                    },
                    {
                        "number": 64,
                        "time": 162.71265022500003,
                        "value": 0
                    },
                    {
                        "number": 64,
                        "time": 163.53875601250004,
                        "value": 1
                    },
                    {
                        "number": 64,
                        "time": 164.69146176250004,
                        "value": 0
                    },
                    {
                        "number": 64,
                        "time": 164.85613401250004,
                        "value": 1
                    },
                    {
                        "number": 64,
                        "time": 165.98962800000004,
                        "value": 0
                    },
                    {
                        "number": 64,
                        "time": 166.13920529375005,
                        "value": 1
                    },
                    {
                        "number": 64,
                        "time": 166.66203968750006,
                        "value": 0
                    },
                    {
                        "number": 64,
                        "time": 166.75809850000005,
                        "value": 1
                    },
                    {
                        "number": 64,
                        "time": 167.32484549375005,
                        "value": 0
                    },
                    {
                        "number": 64,
                        "time": 167.45658329375004,
                        "value": 1
                    },
                    {
                        "number": 64,
                        "time": 167.98353449375006,
                        "value": 0
                    },
                    {
                        "number": 64,
                        "time": 168.09194372500005,
                        "value": 1
                    },
                    {
                        "number": 64,
                        "time": 168.63536215000005,
                        "value": 0
                    },
                    {
                        "number": 64,
                        "time": 168.80826801250004,
                        "value": 1
                    },
                    {
                        "number": 64,
                        "time": 169.96097376250003,
                        "value": 0
                    },
                    {
                        "number": 64,
                        "time": 170.12564601250003,
                        "value": 1
                    },
                    {
                        "number": 64,
                        "time": 170.61554595625003,
                        "value": 0
                    },
                    {
                        "number": 64,
                        "time": 170.72669972500003,
                        "value": 1
                    },
                    {
                        "number": 64,
                        "time": 171.25914000000003,
                        "value": 0
                    },
                    {
                        "number": 64,
                        "time": 171.40871729375004,
                        "value": 1
                    },
                    {
                        "number": 64,
                        "time": 171.93155168750005,
                        "value": 0
                    },
                    {
                        "number": 64,
                        "time": 172.02761050000004,
                        "value": 1
                    },
                    {
                        "number": 64,
                        "time": 172.59435749375004,
                        "value": 0
                    },
                    {
                        "number": 64,
                        "time": 172.72609529375003,
                        "value": 1
                    },
                    {
                        "number": 64,
                        "time": 173.24892968750004,
                        "value": 0
                    },
                    {
                        "number": 64,
                        "time": 173.38066748750003,
                        "value": 1
                    },
                    {
                        "number": 64,
                        "time": 173.89389600000004,
                        "value": 0
                    },
                    {
                        "number": 64,
                        "time": 174.04347329375005,
                        "value": 1
                    },
                    {
                        "number": 64,
                        "time": 174.56630768750006,
                        "value": 0
                    },
                    {
                        "number": 64,
                        "time": 174.66236650000005,
                        "value": 1
                    },
                    {
                        "number": 64,
                        "time": 175.22911349375005,
                        "value": 0
                    },
                    {
                        "number": 64,
                        "time": 175.36085129375004,
                        "value": 1
                    },
                    {
                        "number": 64,
                        "time": 175.88780249375006,
                        "value": 0
                    },
                    {
                        "number": 64,
                        "time": 176.05384701250006,
                        "value": 1
                    },
                    {
                        "number": 64,
                        "time": 176.52865200000005,
                        "value": 0
                    },
                    {
                        "number": 64,
                        "time": 176.67822929375006,
                        "value": 1
                    },
                    {
                        "number": 64,
                        "time": 177.20106368750007,
                        "value": 0
                    },
                    {
                        "number": 64,
                        "time": 177.29712250000006,
                        "value": 1
                    },
                    {
                        "number": 64,
                        "time": 177.86249722500006,
                        "value": 0
                    },
                    {
                        "number": 64,
                        "time": 178.06970980625005,
                        "value": 1
                    },
                    {
                        "number": 64,
                        "time": 178.52255849375004,
                        "value": 0
                    },
                    {
                        "number": 64,
                        "time": 178.67899713125004,
                        "value": 1
                    },
                    {
                        "number": 64,
                        "time": 180.55488851250004,
                        "value": 0
                    },
                    {
                        "number": 64,
                        "time": 183.13063695625004,
                        "value": 0
                    },
                    {
                        "number": 64,
                        "time": 183.27609744375005,
                        "value": 1
                    },
                    {
                        "number": 64,
                        "time": 184.45213176250004,
                        "value": 0
                    },
                    {
                        "number": 64,
                        "time": 185.76676522500006,
                        "value": 0
                    },
                    {
                        "number": 64,
                        "time": 185.88066353125006,
                        "value": 1
                    },
                    {
                        "number": 64,
                        "time": 187.07179280625007,
                        "value": 0
                    },
                    {
                        "number": 64,
                        "time": 188.40289349375007,
                        "value": 0
                    },
                    {
                        "number": 64,
                        "time": 191.07470075000006,
                        "value": 1
                    },
                    {
                        "number": 64,
                        "time": 191.35876038125005,
                        "value": 0
                    },
                    {
                        "number": 64,
                        "time": 191.46716961250004,
                        "value": 1
                    },
                    {
                        "number": 64,
                        "time": 191.70594437500003,
                        "value": 0
                    },
                    {
                        "number": 64,
                        "time": 191.80474772500003,
                        "value": 1
                    },
                    {
                        "number": 64,
                        "time": 192.03117206875004,
                        "value": 0
                    },
                    {
                        "number": 64,
                        "time": 192.14095356875004,
                        "value": 1
                    },
                    {
                        "number": 64,
                        "time": 192.34542161250005,
                        "value": 0
                    },
                    {
                        "number": 64,
                        "time": 193.66966095625006,
                        "value": 0
                    },
                    {
                        "number": 64,
                        "time": 193.80963236875004,
                        "value": 1
                    },
                    {
                        "number": 64,
                        "time": 194.99115576250006,
                        "value": 0
                    },
                    {
                        "number": 64,
                        "time": 196.30578922500007,
                        "value": 0
                    },
                    {
                        "number": 64,
                        "time": 196.41145391875006,
                        "value": 1
                    },
                    {
                        "number": 64,
                        "time": 197.61081680625006,
                        "value": 0
                    },
                    {
                        "number": 64,
                        "time": 197.74804368125007,
                        "value": 1
                    },
                    {
                        "number": 64,
                        "time": 198.94191749375005,
                        "value": 0
                    },
                    {
                        "number": 64,
                        "time": 199.10521747500005,
                        "value": 1
                    },
                    {
                        "number": 64,
                        "time": 200.25929549375005,
                        "value": 0
                    },
                    {
                        "number": 64,
                        "time": 201.57667349375004,
                        "value": 0
                    },
                    {
                        "number": 64,
                        "time": 201.75506843125004,
                        "value": 1
                    },
                    {
                        "number": 64,
                        "time": 202.23536249375005,
                        "value": 0
                    },
                    {
                        "number": 64,
                        "time": 202.87895653750004,
                        "value": 0
                    },
                    {
                        "number": 64,
                        "time": 204.20868495625004,
                        "value": 0
                    },
                    {
                        "number": 64,
                        "time": 204.32944460625004,
                        "value": 1
                    },
                    {
                        "number": 64,
                        "time": 205.53017976250004,
                        "value": 0
                    },
                    {
                        "number": 64,
                        "time": 206.84481322500005,
                        "value": 0
                    },
                    {
                        "number": 64,
                        "time": 206.95871153125006,
                        "value": 1
                    },
                    {
                        "number": 64,
                        "time": 208.14984080625007,
                        "value": 0
                    },
                    {
                        "number": 64,
                        "time": 212.11569749375008,
                        "value": 0
                    },
                    {
                        "number": 64,
                        "time": 212.29409243125008,
                        "value": 1
                    },
                    {
                        "number": 64,
                        "time": 212.42994703750009,
                        "value": 0
                    },
                    {
                        "number": 64,
                        "time": 212.5452176125001,
                        "value": 1
                    },
                    {
                        "number": 64,
                        "time": 212.7743864937501,
                        "value": 0
                    },
                    {
                        "number": 64,
                        "time": 212.9212192500001,
                        "value": 1
                    },
                    {
                        "number": 64,
                        "time": 213.1243150250001,
                        "value": 0
                    },
                    {
                        "number": 64,
                        "time": 213.2354687937501,
                        "value": 1
                    },
                    {
                        "number": 64,
                        "time": 213.4234696125001,
                        "value": 0
                    },
                    {
                        "number": 64,
                        "time": 214.7477089562501,
                        "value": 0
                    },
                    {
                        "number": 64,
                        "time": 214.8684686062501,
                        "value": 1
                    },
                    {
                        "number": 64,
                        "time": 216.0692037625001,
                        "value": 0
                    },
                    {
                        "number": 64,
                        "time": 217.38383722500012,
                        "value": 0
                    },
                    {
                        "number": 64,
                        "time": 217.4798960375001,
                        "value": 1
                    },
                    {
                        "number": 64,
                        "time": 218.6888648062501,
                        "value": 0
                    },
                    {
                        "number": 64,
                        "time": 218.82609168125012,
                        "value": 1
                    },
                    {
                        "number": 64,
                        "time": 220.0199654937501,
                        "value": 0
                    },
                    {
                        "number": 64,
                        "time": 220.1832654750001,
                        "value": 1
                    },
                    {
                        "number": 64,
                        "time": 221.3373434937501,
                        "value": 0
                    },
                    {
                        "number": 64,
                        "time": 222.6547214937501,
                        "value": 0
                    },
                    {
                        "number": 64,
                        "time": 222.8331164312501,
                        "value": 1
                    },
                    {
                        "number": 64,
                        "time": 223.3134104937501,
                        "value": 0
                    },
                    {
                        "number": 64,
                        "time": 223.9542600000001,
                        "value": 0
                    },
                    {
                        "number": 64,
                        "time": 224.0873700687501,
                        "value": 1
                    },
                    {
                        "number": 64,
                        "time": 225.2894774937501,
                        "value": 0
                    },
                    {
                        "number": 64,
                        "time": 225.3814195000001,
                        "value": 1
                    },
                    {
                        "number": 64,
                        "time": 226.5890160000001,
                        "value": 0
                    },
                    {
                        "number": 64,
                        "time": 226.7070311125001,
                        "value": 1
                    },
                    {
                        "number": 64,
                        "time": 227.2641722250001,
                        "value": 0
                    },
                    {
                        "number": 64,
                        "time": 227.3739537250001,
                        "value": 1
                    },
                    {
                        "number": 64,
                        "time": 227.94618979375008,
                        "value": 0
                    },
                    {
                        "number": 64,
                        "time": 228.0395040687501,
                        "value": 1
                    },
                    {
                        "number": 64,
                        "time": 229.22377200000008,
                        "value": 0
                    },
                    {
                        "number": 64,
                        "time": 229.38844425000008,
                        "value": 1
                    },
                    {
                        "number": 64,
                        "time": 230.55212815000007,
                        "value": 0
                    },
                    {
                        "number": 64,
                        "time": 230.71405586250006,
                        "value": 1
                    },
                    {
                        "number": 64,
                        "time": 231.86264480625007,
                        "value": 0
                    },
                    {
                        "number": 64,
                        "time": 232.0232002500001,
                        "value": 1
                    },
                    {
                        "number": 64,
                        "time": 233.1923732250001,
                        "value": 0
                    },
                    {
                        "number": 64,
                        "time": 233.4187975687501,
                        "value": 1
                    },
                    {
                        "number": 64,
                        "time": 234.5015176125001,
                        "value": 0
                    },
                    {
                        "number": 64,
                        "time": 235.8257569562501,
                        "value": 0
                    },
                    {
                        "number": 64,
                        "time": 235.97533425000012,
                        "value": 1
                    },
                    {
                        "number": 64,
                        "time": 237.1472517625001,
                        "value": 0
                    },
                    {
                        "number": 64,
                        "time": 238.46188522500012,
                        "value": 0
                    },
                    {
                        "number": 64,
                        "time": 238.5812726062501,
                        "value": 1
                    },
                    {
                        "number": 64,
                        "time": 239.7669128062501,
                        "value": 0
                    },
                    {
                        "number": 64,
                        "time": 241.0980134937501,
                        "value": 0
                    },
                    {
                        "number": 64,
                        "time": 242.4153914937501,
                        "value": 0
                    },
                    {
                        "number": 64,
                        "time": 243.0754527625001,
                        "value": 0
                    },
                    {
                        "number": 64,
                        "time": 243.1975846812501,
                        "value": 1
                    },
                    {
                        "number": 64,
                        "time": 243.7327694937501,
                        "value": 0
                    },
                    {
                        "number": 64,
                        "time": 243.9111644312501,
                        "value": 1
                    },
                    {
                        "number": 64,
                        "time": 244.39145849375012,
                        "value": 0
                    },
                    {
                        "number": 64,
                        "time": 244.53829125000013,
                        "value": 1
                    },
                    {
                        "number": 64,
                        "time": 245.0323080000001,
                        "value": 0
                    },
                    {
                        "number": 64,
                        "time": 245.1654180687501,
                        "value": 1
                    },
                    {
                        "number": 64,
                        "time": 246.36752549375012,
                        "value": 0
                    },
                    {
                        "number": 64,
                        "time": 246.45946750000013,
                        "value": 1
                    },
                    {
                        "number": 64,
                        "time": 247.66706400000012,
                        "value": 0
                    },
                    {
                        "number": 64,
                        "time": 247.7850791125001,
                        "value": 1
                    },
                    {
                        "number": 64,
                        "time": 248.34222022500012,
                        "value": 0
                    },
                    {
                        "number": 64,
                        "time": 248.45200172500012,
                        "value": 1
                    },
                    {
                        "number": 64,
                        "time": 249.0242377937501,
                        "value": 0
                    },
                    {
                        "number": 64,
                        "time": 249.11755206875011,
                        "value": 1
                    },
                    {
                        "number": 64,
                        "time": 250.3018200000001,
                        "value": 0
                    },
                    {
                        "number": 64,
                        "time": 250.4664922500001,
                        "value": 1
                    },
                    {
                        "number": 64,
                        "time": 251.6301761500001,
                        "value": 0
                    },
                    {
                        "number": 64,
                        "time": 251.79210386250008,
                        "value": 1
                    },
                    {
                        "number": 64,
                        "time": 252.9406928062501,
                        "value": 0
                    },
                    {
                        "number": 64,
                        "time": 253.1012482500001,
                        "value": 1
                    },
                    {
                        "number": 64,
                        "time": 254.27042122500012,
                        "value": 0
                    },
                    {
                        "number": 64,
                        "time": 254.49684556875013,
                        "value": 1
                    },
                    {
                        "number": 64,
                        "time": 255.57956561250012,
                        "value": 0
                    },
                    {
                        "number": 64,
                        "time": 256.9038049562501,
                        "value": 0
                    },
                    {
                        "number": 64,
                        "time": 257.0533822500001,
                        "value": 1
                    },
                    {
                        "number": 64,
                        "time": 258.2252997625001,
                        "value": 0
                    },
                    {
                        "number": 64,
                        "time": 259.5399332250001,
                        "value": 0
                    },
                    {
                        "number": 64,
                        "time": 259.6593206062501,
                        "value": 1
                    },
                    {
                        "number": 64,
                        "time": 260.8449608062501,
                        "value": 0
                    },
                    {
                        "number": 64,
                        "time": 262.1760614937501,
                        "value": 0
                    },
                    {
                        "number": 64,
                        "time": 263.49343949375015,
                        "value": 0
                    },
                    {
                        "number": 64,
                        "time": 264.15350076250013,
                        "value": 0
                    },
                    {
                        "number": 64,
                        "time": 264.8108174937501,
                        "value": 0
                    },
                    {
                        "number": 64,
                        "time": 265.4695064937501,
                        "value": 0
                    },
                    {
                        "number": 64,
                        "time": 265.61633925000007,
                        "value": 1
                    },
                    {
                        "number": 64,
                        "time": 266.12819549375007,
                        "value": 0
                    },
                    {
                        "number": 64,
                        "time": 266.78688449375005,
                        "value": 0
                    },
                    {
                        "number": 64,
                        "time": 267.44557349375003,
                        "value": 0
                    },
                    {
                        "number": 64,
                        "time": 268.10426249375,
                        "value": 0
                    },
                    {
                        "number": 64,
                        "time": 268.76295149375,
                        "value": 0
                    },
                    {
                        "number": 64,
                        "time": 269.42164049375,
                        "value": 0
                    },
                    {
                        "number": 64,
                        "time": 270.08032949374996,
                        "value": 0
                    },
                    {
                        "number": 64,
                        "time": 270.28616980625,
                        "value": 1
                    },
                    {
                        "number": 64,
                        "time": 270.847427725,
                        "value": 0
                    },
                    {
                        "number": 64,
                        "time": 271.012099975,
                        "value": 1
                    },
                    {
                        "number": 64,
                        "time": 272.04267380625004,
                        "value": 0
                    },
                    {
                        "number": 64,
                        "time": 272.1236376625,
                        "value": 1
                    },
                    {
                        "number": 64,
                        "time": 272.7054796125,
                        "value": 0
                    },
                    {
                        "number": 64,
                        "time": 272.82761153125,
                        "value": 1
                    },
                    {
                        "number": 64,
                        "time": 273.372402225,
                        "value": 0
                    },
                    {
                        "number": 64,
                        "time": 273.47532238124995,
                        "value": 1
                    },
                    {
                        "number": 64,
                        "time": 274.01462399999997,
                        "value": 0
                    },
                    {
                        "number": 64,
                        "time": 274.09558785624995,
                        "value": 1
                    },
                    {
                        "number": 64,
                        "time": 274.68291888125,
                        "value": 0
                    },
                    {
                        "number": 64,
                        "time": 274.7583936625,
                        "value": 1
                    },
                    {
                        "number": 64,
                        "time": 275.3402356125,
                        "value": 0
                    },
                    {
                        "number": 64,
                        "time": 276.007158225,
                        "value": 0
                    },
                    {
                        "number": 64,
                        "time": 276.08949435,
                        "value": 1
                    },
                    {
                        "number": 64,
                        "time": 276.64938,
                        "value": 0
                    },
                    {
                        "number": 64,
                        "time": 276.74681108125003,
                        "value": 1
                    },
                    {
                        "number": 64,
                        "time": 277.32865303125004,
                        "value": 0
                    },
                    {
                        "number": 64,
                        "time": 277.44529587500006,
                        "value": 1
                    },
                    {
                        "number": 64,
                        "time": 277.98322522500007,
                        "value": 0
                    },
                    {
                        "number": 64,
                        "time": 278.0751672312501,
                        "value": 1
                    },
                    {
                        "number": 64,
                        "time": 278.6405419562501,
                        "value": 0
                    },
                    {
                        "number": 64,
                        "time": 278.7283671562501,
                        "value": 1
                    },
                    {
                        "number": 64,
                        "time": 279.2896250750001,
                        "value": 0
                    },
                    {
                        "number": 64,
                        "time": 279.3939175000001,
                        "value": 1
                    },
                    {
                        "number": 64,
                        "time": 279.9620367625001,
                        "value": 0
                    },
                    {
                        "number": 64,
                        "time": 280.06907372500007,
                        "value": 1
                    },
                    {
                        "number": 64,
                        "time": 280.61935349375005,
                        "value": 0
                    },
                    {
                        "number": 64,
                        "time": 281.28078703125004,
                        "value": 0
                    },
                    {
                        "number": 64,
                        "time": 281.35626181250007,
                        "value": 1
                    },
                    {
                        "number": 64,
                        "time": 281.9188920000001,
                        "value": 0
                    },
                    {
                        "number": 64,
                        "time": 282.0396516500001,
                        "value": 1
                    },
                    {
                        "number": 64,
                        "time": 282.58169780625013,
                        "value": 0
                    },
                    {
                        "number": 64,
                        "time": 282.6626616625001,
                        "value": 1
                    },
                    {
                        "number": 64,
                        "time": 283.2445036125001,
                        "value": 0
                    },
                    {
                        "number": 64,
                        "time": 283.3666355312501,
                        "value": 1
                    },
                    {
                        "number": 64,
                        "time": 283.91142622500007,
                        "value": 0
                    },
                    {
                        "number": 64,
                        "time": 284.01434638125005,
                        "value": 1
                    },
                    {
                        "number": 64,
                        "time": 284.55364800000007,
                        "value": 0
                    },
                    {
                        "number": 64,
                        "time": 284.63461185625005,
                        "value": 1
                    },
                    {
                        "number": 64,
                        "time": 285.2219428812501,
                        "value": 0
                    },
                    {
                        "number": 64,
                        "time": 285.2974176625001,
                        "value": 1
                    },
                    {
                        "number": 64,
                        "time": 285.8792596125001,
                        "value": 0
                    },
                    {
                        "number": 64,
                        "time": 286.5461822250001,
                        "value": 0
                    },
                    {
                        "number": 64,
                        "time": 287.1884040000001,
                        "value": 0
                    },
                    {
                        "number": 64,
                        "time": 287.2858350812501,
                        "value": 1
                    },
                    {
                        "number": 64,
                        "time": 287.86767703125014,
                        "value": 0
                    },
                    {
                        "number": 64,
                        "time": 288.52224922500017,
                        "value": 0
                    },
                    {
                        "number": 64,
                        "time": 288.6141912312502,
                        "value": 1
                    },
                    {
                        "number": 64,
                        "time": 289.1795659562502,
                        "value": 0
                    },
                    {
                        "number": 64,
                        "time": 289.8286490750002,
                        "value": 0
                    },
                    {
                        "number": 64,
                        "time": 289.9329415000002,
                        "value": 1
                    },
                    {
                        "number": 64,
                        "time": 290.5010607625002,
                        "value": 0
                    },
                    {
                        "number": 64,
                        "time": 290.60809772500016,
                        "value": 1
                    },
                    {
                        "number": 64,
                        "time": 291.15837749375015,
                        "value": 0
                    },
                    {
                        "number": 64,
                        "time": 291.8115774187502,
                        "value": 0
                    },
                    {
                        "number": 64,
                        "time": 291.9323370687502,
                        "value": 1
                    },
                    {
                        "number": 64,
                        "time": 293.1207218062502,
                        "value": 0
                    },
                    {
                        "number": 64,
                        "time": 293.20168566250015,
                        "value": 1
                    },
                    {
                        "number": 64,
                        "time": 293.78352761250017,
                        "value": 0
                    },
                    {
                        "number": 64,
                        "time": 293.90565953125014,
                        "value": 1
                    },
                    {
                        "number": 64,
                        "time": 294.4504502250001,
                        "value": 0
                    },
                    {
                        "number": 64,
                        "time": 294.5533703812501,
                        "value": 1
                    },
                    {
                        "number": 64,
                        "time": 295.0926720000001,
                        "value": 0
                    },
                    {
                        "number": 64,
                        "time": 295.1736358562501,
                        "value": 1
                    },
                    {
                        "number": 64,
                        "time": 295.7609668812501,
                        "value": 0
                    },
                    {
                        "number": 64,
                        "time": 295.83644166250014,
                        "value": 1
                    },
                    {
                        "number": 64,
                        "time": 296.41828361250015,
                        "value": 0
                    },
                    {
                        "number": 64,
                        "time": 297.08520622500015,
                        "value": 0
                    },
                    {
                        "number": 64,
                        "time": 297.16754235000013,
                        "value": 1
                    },
                    {
                        "number": 64,
                        "time": 297.72742800000015,
                        "value": 0
                    },
                    {
                        "number": 64,
                        "time": 297.82485908125017,
                        "value": 1
                    },
                    {
                        "number": 64,
                        "time": 298.4067010312502,
                        "value": 0
                    },
                    {
                        "number": 64,
                        "time": 298.5233438750002,
                        "value": 1
                    },
                    {
                        "number": 64,
                        "time": 299.0612732250002,
                        "value": 0
                    },
                    {
                        "number": 64,
                        "time": 299.7185899562502,
                        "value": 0
                    },
                    {
                        "number": 64,
                        "time": 300.3676730750002,
                        "value": 0
                    },
                    {
                        "number": 64,
                        "time": 300.4719655000002,
                        "value": 1
                    },
                    {
                        "number": 64,
                        "time": 301.04008476250016,
                        "value": 0
                    },
                    {
                        "number": 64,
                        "time": 301.69740149375014,
                        "value": 0
                    },
                    {
                        "number": 64,
                        "time": 302.3588350312501,
                        "value": 0
                    },
                    {
                        "number": 64,
                        "time": 302.9969400000001,
                        "value": 0
                    },
                    {
                        "number": 64,
                        "time": 303.11769965000013,
                        "value": 1
                    },
                    {
                        "number": 64,
                        "time": 303.65974580625016,
                        "value": 0
                    },
                    {
                        "number": 64,
                        "time": 303.74070966250014,
                        "value": 1
                    },
                    {
                        "number": 64,
                        "time": 304.32255161250015,
                        "value": 0
                    },
                    {
                        "number": 64,
                        "time": 304.4446835312501,
                        "value": 1
                    },
                    {
                        "number": 64,
                        "time": 304.9894742250001,
                        "value": 0
                    },
                    {
                        "number": 64,
                        "time": 305.0923943812501,
                        "value": 1
                    },
                    {
                        "number": 64,
                        "time": 305.6316960000001,
                        "value": 0
                    },
                    {
                        "number": 64,
                        "time": 306.2999908812501,
                        "value": 0
                    },
                    {
                        "number": 64,
                        "time": 306.3754656625001,
                        "value": 1
                    },
                    {
                        "number": 64,
                        "time": 306.95730761250013,
                        "value": 0
                    },
                    {
                        "number": 64,
                        "time": 307.62423022500013,
                        "value": 0
                    },
                    {
                        "number": 64,
                        "time": 308.26645200000013,
                        "value": 0
                    },
                    {
                        "number": 64,
                        "time": 308.34055451250015,
                        "value": 1
                    },
                    {
                        "number": 64,
                        "time": 308.94572503125016,
                        "value": 0
                    },
                    {
                        "number": 64,
                        "time": 309.6002972250002,
                        "value": 0
                    },
                    {
                        "number": 64,
                        "time": 309.6922392312502,
                        "value": 1
                    },
                    {
                        "number": 64,
                        "time": 310.2576139562502,
                        "value": 0
                    },
                    {
                        "number": 64,
                        "time": 310.90669707500024,
                        "value": 0
                    },
                    {
                        "number": 64,
                        "time": 311.0109895000002,
                        "value": 1
                    },
                    {
                        "number": 64,
                        "time": 311.5791087625002,
                        "value": 0
                    },
                    {
                        "number": 64,
                        "time": 312.2364254937502,
                        "value": 0
                    },
                    {
                        "number": 64,
                        "time": 312.8896254187502,
                        "value": 0
                    },
                    {
                        "number": 64,
                        "time": 313.0103850687502,
                        "value": 1
                    },
                    {
                        "number": 64,
                        "time": 313.5359640000002,
                        "value": 0
                    },
                    {
                        "number": 64,
                        "time": 313.6183001250002,
                        "value": 1
                    },
                    {
                        "number": 64,
                        "time": 314.1987698062502,
                        "value": 0
                    },
                    {
                        "number": 64,
                        "time": 314.2797336625002,
                        "value": 1
                    },
                    {
                        "number": 64,
                        "time": 314.8615756125002,
                        "value": 0
                    },
                    {
                        "number": 64,
                        "time": 314.9356781250002,
                        "value": 1
                    },
                    {
                        "number": 64,
                        "time": 315.5284982250002,
                        "value": 0
                    },
                    {
                        "number": 64,
                        "time": 315.63141838125017,
                        "value": 1
                    },
                    {
                        "number": 64,
                        "time": 316.1707200000002,
                        "value": 0
                    },
                    {
                        "number": 64,
                        "time": 316.25168385625017,
                        "value": 1
                    },
                    {
                        "number": 64,
                        "time": 316.8390148812502,
                        "value": 0
                    },
                    {
                        "number": 64,
                        "time": 316.9144896625002,
                        "value": 1
                    },
                    {
                        "number": 64,
                        "time": 317.4963316125002,
                        "value": 0
                    },
                    {
                        "number": 64,
                        "time": 317.58690135000023,
                        "value": 1
                    },
                    {
                        "number": 64,
                        "time": 318.16325422500023,
                        "value": 0
                    },
                    {
                        "number": 64,
                        "time": 318.2455903500002,
                        "value": 1
                    },
                    {
                        "number": 64,
                        "time": 318.8205709562502,
                        "value": 0
                    },
                    {
                        "number": 64,
                        "time": 318.9234911125002,
                        "value": 1
                    },
                    {
                        "number": 64,
                        "time": 319.4820044937502,
                        "value": 0
                    },
                    {
                        "number": 64,
                        "time": 319.5972750687502,
                        "value": 1
                    },
                    {
                        "number": 64,
                        "time": 320.1379489562502,
                        "value": 0
                    },
                    {
                        "number": 64,
                        "time": 320.7966379562502,
                        "value": 0
                    },
                    {
                        "number": 64,
                        "time": 321.4525824187502,
                        "value": 0
                    },
                    {
                        "number": 64,
                        "time": 321.5500135000002,
                        "value": 1
                    },
                    {
                        "number": 64,
                        "time": 322.1098991500002,
                        "value": 0
                    },
                    {
                        "number": 64,
                        "time": 322.1963520812502,
                        "value": 1
                    },
                    {
                        "number": 64,
                        "time": 322.7713326875002,
                        "value": 0
                    },
                    {
                        "number": 64,
                        "time": 322.8879755312502,
                        "value": 1
                    },
                    {
                        "number": 64,
                        "time": 323.4396275687502,
                        "value": 0
                    },
                    {
                        "number": 64,
                        "time": 324.0749880000002,
                        "value": 0
                    },
                    {
                        "number": 64,
                        "time": 324.1724190812502,
                        "value": 1
                    },
                    {
                        "number": 64,
                        "time": 324.73779380625024,
                        "value": 0
                    },
                    {
                        "number": 64,
                        "time": 324.8187576625002,
                        "value": 1
                    },
                    {
                        "number": 64,
                        "time": 325.40059961250023,
                        "value": 0
                    },
                    {
                        "number": 64,
                        "time": 325.49391388750024,
                        "value": 1
                    },
                    {
                        "number": 64,
                        "time": 326.06752222500023,
                        "value": 0
                    },
                    {
                        "number": 64,
                        "time": 326.1704423812502,
                        "value": 1
                    },
                    {
                        "number": 64,
                        "time": 326.7097440000002,
                        "value": 0
                    },
                    {
                        "number": 64,
                        "time": 326.7907078562502,
                        "value": 1
                    },
                    {
                        "number": 64,
                        "time": 327.37803888125023,
                        "value": 0
                    },
                    {
                        "number": 64,
                        "time": 327.45351366250026,
                        "value": 1
                    },
                    {
                        "number": 64,
                        "time": 328.03535561250027,
                        "value": 0
                    },
                    {
                        "number": 64,
                        "time": 328.1259253500003,
                        "value": 1
                    },
                    {
                        "number": 64,
                        "time": 328.70227822500027,
                        "value": 0
                    },
                    {
                        "number": 64,
                        "time": 328.78461435000025,
                        "value": 1
                    },
                    {
                        "number": 64,
                        "time": 329.34450000000027,
                        "value": 0
                    },
                    {
                        "number": 64,
                        "time": 329.4419310812503,
                        "value": 1
                    },
                    {
                        "number": 64,
                        "time": 330.0237730312503,
                        "value": 0
                    },
                    {
                        "number": 64,
                        "time": 330.6783452250003,
                        "value": 0
                    },
                    {
                        "number": 64,
                        "time": 330.77028723125034,
                        "value": 1
                    },
                    {
                        "number": 64,
                        "time": 331.33566195625036,
                        "value": 0
                    },
                    {
                        "number": 64,
                        "time": 331.9847450750004,
                        "value": 0
                    },
                    {
                        "number": 64,
                        "time": 332.08903750000036,
                        "value": 1
                    },
                    {
                        "number": 64,
                        "time": 332.65715676250034,
                        "value": 0
                    },
                    {
                        "number": 64,
                        "time": 333.3144734937503,
                        "value": 0
                    },
                    {
                        "number": 64,
                        "time": 333.9759070312503,
                        "value": 0
                    },
                    {
                        "number": 64,
                        "time": 334.0513818125003,
                        "value": 1
                    },
                    {
                        "number": 64,
                        "time": 334.2970179187503,
                        "value": 0
                    },
                    {
                        "number": 64,
                        "time": 334.4260111812503,
                        "value": 1
                    },
                    {
                        "number": 64,
                        "time": 335.27681780625034,
                        "value": 0
                    },
                    {
                        "number": 64,
                        "time": 335.3577816625003,
                        "value": 1
                    },
                    {
                        "number": 64,
                        "time": 335.9396236125003,
                        "value": 0
                    },
                    {
                        "number": 64,
                        "time": 336.0247042750003,
                        "value": 1
                    },
                    {
                        "number": 64,
                        "time": 336.60654622500033,
                        "value": 0
                    },
                    {
                        "number": 64,
                        "time": 336.67927646875034,
                        "value": 1
                    },
                    {
                        "number": 64,
                        "time": 337.2487680000003,
                        "value": 0
                    },
                    {
                        "number": 64,
                        "time": 337.3297318562503,
                        "value": 1
                    },
                    {
                        "number": 64,
                        "time": 337.91706288125033,
                        "value": 0
                    },
                    {
                        "number": 64,
                        "time": 337.99253766250035,
                        "value": 1
                    },
                    {
                        "number": 64,
                        "time": 338.57437961250037,
                        "value": 0
                    },
                    {
                        "number": 64,
                        "time": 338.66494935000037,
                        "value": 1
                    },
                    {
                        "number": 64,
                        "time": 339.24130222500037,
                        "value": 0
                    },
                    {
                        "number": 64,
                        "time": 339.32363835000035,
                        "value": 1
                    },
                    {
                        "number": 64,
                        "time": 339.89861895625035,
                        "value": 0
                    },
                    {
                        "number": 64,
                        "time": 340.0015391125003,
                        "value": 1
                    },
                    {
                        "number": 64,
                        "time": 340.56005249375033,
                        "value": 0
                    },
                    {
                        "number": 64,
                        "time": 341.2159969562503,
                        "value": 0
                    },
                    {
                        "number": 64,
                        "time": 341.3655742500003,
                        "value": 1
                    },
                    {
                        "number": 64,
                        "time": 341.8746859562503,
                        "value": 0
                    },
                    {
                        "number": 64,
                        "time": 342.53063041875026,
                        "value": 0
                    },
                    {
                        "number": 64,
                        "time": 342.6280615000003,
                        "value": 1
                    },
                    {
                        "number": 64,
                        "time": 343.1879471500003,
                        "value": 0
                    },
                    {
                        "number": 64,
                        "time": 343.8493806875003,
                        "value": 0
                    },
                    {
                        "number": 64,
                        "time": 343.9660235312503,
                        "value": 1
                    },
                    {
                        "number": 64,
                        "time": 344.5176755687503,
                        "value": 0
                    },
                    {
                        "number": 64,
                        "time": 345.15303600000027,
                        "value": 0
                    },
                    {
                        "number": 64,
                        "time": 345.24086120000027,
                        "value": 1
                    },
                    {
                        "number": 64,
                        "time": 345.81584180625026,
                        "value": 0
                    },
                    {
                        "number": 64,
                        "time": 345.89680566250024,
                        "value": 1
                    },
                    {
                        "number": 64,
                        "time": 346.47864761250025,
                        "value": 0
                    },
                    {
                        "number": 64,
                        "time": 346.56784508125025,
                        "value": 1
                    },
                    {
                        "number": 64,
                        "time": 347.14557022500026,
                        "value": 0
                    },
                    {
                        "number": 64,
                        "time": 347.24849038125024,
                        "value": 1
                    },
                    {
                        "number": 64,
                        "time": 347.78779200000025,
                        "value": 0
                    },
                    {
                        "number": 64,
                        "time": 347.86875585625023,
                        "value": 1
                    },
                    {
                        "number": 64,
                        "time": 348.45608688125026,
                        "value": 0
                    },
                    {
                        "number": 64,
                        "time": 348.5315616625003,
                        "value": 1
                    },
                    {
                        "number": 64,
                        "time": 349.1134036125003,
                        "value": 0
                    },
                    {
                        "number": 64,
                        "time": 349.2039733500003,
                        "value": 1
                    },
                    {
                        "number": 64,
                        "time": 349.7803262250003,
                        "value": 0
                    },
                    {
                        "number": 64,
                        "time": 350.4225480000003,
                        "value": 0
                    },
                    {
                        "number": 64,
                        "time": 350.5199790812503,
                        "value": 1
                    },
                    {
                        "number": 64,
                        "time": 351.1018210312503,
                        "value": 0
                    },
                    {
                        "number": 64,
                        "time": 351.75639322500035,
                        "value": 0
                    },
                    {
                        "number": 64,
                        "time": 351.84833523125036,
                        "value": 1
                    },
                    {
                        "number": 64,
                        "time": 352.4137099562504,
                        "value": 0
                    },
                    {
                        "number": 64,
                        "time": 353.0627930750004,
                        "value": 0
                    },
                    {
                        "number": 64,
                        "time": 353.1670855000004,
                        "value": 1
                    },
                    {
                        "number": 64,
                        "time": 353.73520476250036,
                        "value": 0
                    },
                    {
                        "number": 64,
                        "time": 354.39252149375034,
                        "value": 0
                    },
                    {
                        "number": 64,
                        "time": 354.5160256812503,
                        "value": 1
                    },
                    {
                        "number": 64,
                        "time": 355.0498382250003,
                        "value": 0
                    },
                    {
                        "number": 64,
                        "time": 355.6920600000003,
                        "value": 0
                    },
                    {
                        "number": 64,
                        "time": 355.78949108125033,
                        "value": 1
                    },
                    {
                        "number": 64,
                        "time": 356.37133303125034,
                        "value": 0
                    },
                    {
                        "number": 64,
                        "time": 356.48797587500036,
                        "value": 1
                    },
                    {
                        "number": 64,
                        "time": 357.0259052250004,
                        "value": 0
                    },
                    {
                        "number": 64,
                        "time": 357.68322195625035,
                        "value": 0
                    },
                    {
                        "number": 64,
                        "time": 357.77104715625035,
                        "value": 1
                    },
                    {
                        "number": 64,
                        "time": 358.33230507500036,
                        "value": 0
                    },
                    {
                        "number": 64,
                        "time": 358.43659750000035,
                        "value": 1
                    },
                    {
                        "number": 64,
                        "time": 359.0047167625003,
                        "value": 0
                    },
                    {
                        "number": 64,
                        "time": 359.6620334937503,
                        "value": 0
                    },
                    {
                        "number": 64,
                        "time": 359.7855376812503,
                        "value": 1
                    },
                    {
                        "number": 64,
                        "time": 360.6322275000003,
                        "value": 0
                    },
                    {
                        "number": 64,
                        "time": 360.87100226250027,
                        "value": 1
                    },
                    {
                        "number": 64,
                        "time": 363.61279522500024,
                        "value": 0
                    },
                    {
                        "number": 64,
                        "time": 363.72806580000025,
                        "value": 1
                    },
                    {
                        "number": 64,
                        "time": 366.25990164375025,
                        "value": 0
                    },
                    {
                        "number": 64,
                        "time": 366.34223776875024,
                        "value": 1
                    },
                    {
                        "number": 64,
                        "time": 367.56630149375025,
                        "value": 0
                    },
                    {
                        "number": 64,
                        "time": 367.64040400625026,
                        "value": 1
                    },
                    {
                        "number": 64,
                        "time": 368.8658400000003,
                        "value": 0
                    },
                    {
                        "number": 64,
                        "time": 369.03874586250026,
                        "value": 1
                    },
                    {
                        "number": 64,
                        "time": 370.2230137937503,
                        "value": 0
                    },
                    {
                        "number": 64,
                        "time": 370.3561238625003,
                        "value": 1
                    },
                    {
                        "number": 64,
                        "time": 370.86111876250027,
                        "value": 0
                    },
                    {
                        "number": 64,
                        "time": 370.96815572500026,
                        "value": 1
                    },
                    {
                        "number": 64,
                        "time": 371.50059600000026,
                        "value": 0
                    },
                    {
                        "number": 64,
                        "time": 371.5733262437503,
                        "value": 1
                    },
                    {
                        "number": 64,
                        "time": 374.1353520000003,
                        "value": 0
                    },
                    {
                        "number": 64,
                        "time": 374.2080822437503,
                        "value": 1
                    },
                    {
                        "number": 64,
                        "time": 376.77010800000033,
                        "value": 0
                    },
                    {
                        "number": 64,
                        "time": 376.84283824375035,
                        "value": 1
                    },
                    {
                        "number": 64,
                        "time": 378.10120868750033,
                        "value": 0
                    },
                    {
                        "number": 64,
                        "time": 378.21373472500034,
                        "value": 1
                    },
                    {
                        "number": 64,
                        "time": 378.7640144937503,
                        "value": 0
                    },
                    {
                        "number": 64,
                        "time": 378.8477228875003,
                        "value": 1
                    },
                    {
                        "number": 64,
                        "time": 379.4048640000003,
                        "value": 0
                    },
                    {
                        "number": 64,
                        "time": 379.5983538937503,
                        "value": 1
                    },
                    {
                        "number": 64,
                        "time": 380.0772756875003,
                        "value": 0
                    },
                    {
                        "number": 64,
                        "time": 380.2570428937503,
                        "value": 1
                    },
                    {
                        "number": 64,
                        "time": 380.73596468750026,
                        "value": 0
                    },
                    {
                        "number": 64,
                        "time": 380.88691425000025,
                        "value": 1
                    },
                    {
                        "number": 64,
                        "time": 382.08902167500025,
                        "value": 0
                    },
                    {
                        "number": 64,
                        "time": 382.1658687250003,
                        "value": 1
                    },
                    {
                        "number": 64,
                        "time": 384.69084322500026,
                        "value": 0
                    },
                    {
                        "number": 64,
                        "time": 384.8061138000003,
                        "value": 1
                    },
                    {
                        "number": 64,
                        "time": 387.3379496437503,
                        "value": 0
                    },
                    {
                        "number": 64,
                        "time": 387.42028576875026,
                        "value": 1
                    },
                    {
                        "number": 64,
                        "time": 388.64434949375027,
                        "value": 0
                    },
                    {
                        "number": 64,
                        "time": 388.7184520062503,
                        "value": 1
                    },
                    {
                        "number": 64,
                        "time": 389.9438880000003,
                        "value": 0
                    },
                    {
                        "number": 64,
                        "time": 390.1167938625003,
                        "value": 1
                    },
                    {
                        "number": 64,
                        "time": 391.3010617937503,
                        "value": 0
                    },
                    {
                        "number": 64,
                        "time": 391.4341718625003,
                        "value": 1
                    },
                    {
                        "number": 64,
                        "time": 391.9377944937503,
                        "value": 0
                    },
                    {
                        "number": 64,
                        "time": 392.03797011250026,
                        "value": 1
                    },
                    {
                        "number": 64,
                        "time": 392.5786440000003,
                        "value": 0
                    },
                    {
                        "number": 64,
                        "time": 392.6513742437503,
                        "value": 1
                    },
                    {
                        "number": 64,
                        "time": 395.2134000000003,
                        "value": 0
                    },
                    {
                        "number": 64,
                        "time": 395.28613024375034,
                        "value": 1
                    },
                    {
                        "number": 64,
                        "time": 397.84815600000036,
                        "value": 0
                    },
                    {
                        "number": 64,
                        "time": 397.9208862437504,
                        "value": 1
                    },
                    {
                        "number": 64,
                        "time": 399.17925668750036,
                        "value": 0
                    },
                    {
                        "number": 64,
                        "time": 399.29178272500036,
                        "value": 1
                    },
                    {
                        "number": 64,
                        "time": 399.8310843437504,
                        "value": 0
                    },
                    {
                        "number": 64,
                        "time": 399.9024423187504,
                        "value": 1
                    },
                    {
                        "number": 64,
                        "time": 400.4829120000004,
                        "value": 0
                    },
                    {
                        "number": 64,
                        "time": 400.6764018937504,
                        "value": 1
                    },
                    {
                        "number": 64,
                        "time": 401.15532368750036,
                        "value": 0
                    },
                    {
                        "number": 64,
                        "time": 401.33509089375036,
                        "value": 1
                    },
                    {
                        "number": 64,
                        "time": 401.81401268750034,
                        "value": 0
                    },
                    {
                        "number": 64,
                        "time": 401.9649622500003,
                        "value": 1
                    },
                    {
                        "number": 64,
                        "time": 403.16706967500033,
                        "value": 0
                    },
                    {
                        "number": 64,
                        "time": 403.24391672500036,
                        "value": 1
                    },
                    {
                        "number": 64,
                        "time": 404.45563003125034,
                        "value": 0
                    },
                    {
                        "number": 64,
                        "time": 404.54208296250033,
                        "value": 1
                    },
                    {
                        "number": 64,
                        "time": 405.8018256750003,
                        "value": 0
                    },
                    {
                        "number": 64,
                        "time": 405.87867272500034,
                        "value": 1
                    },
                    {
                        "number": 64,
                        "time": 406.74731884375035,
                        "value": 0
                    },
                    {
                        "number": 64,
                        "time": 406.79397598125036,
                        "value": 1
                    },
                    {
                        "number": 64,
                        "time": 407.0903860312504,
                        "value": 0
                    },
                    {
                        "number": 64,
                        "time": 407.17683896250037,
                        "value": 1
                    },
                    {
                        "number": 64,
                        "time": 408.38718000000034,
                        "value": 0
                    },
                    {
                        "number": 64,
                        "time": 408.45991024375036,
                        "value": 1
                    },
                    {
                        "number": 64,
                        "time": 409.05273034375034,
                        "value": 0
                    },
                    {
                        "number": 64,
                        "time": 409.1089933625003,
                        "value": 1
                    },
                    {
                        "number": 64,
                        "time": 409.71828068750034,
                        "value": 0
                    },
                    {
                        "number": 64,
                        "time": 409.83080672500034,
                        "value": 1
                    },
                    {
                        "number": 64,
                        "time": 410.3755974187503,
                        "value": 0
                    },
                    {
                        "number": 64,
                        "time": 410.4318604375003,
                        "value": 1
                    },
                    {
                        "number": 64,
                        "time": 410.7049419187503,
                        "value": 0
                    },
                    {
                        "number": 64,
                        "time": 410.73650410000033,
                        "value": 1
                    },
                    {
                        "number": 64,
                        "time": 411.0219360000003,
                        "value": 0
                    },
                    {
                        "number": 64,
                        "time": 411.2154258937503,
                        "value": 1
                    },
                    {
                        "number": 64,
                        "time": 411.6943476875003,
                        "value": 0
                    },
                    {
                        "number": 64,
                        "time": 411.8741148937503,
                        "value": 1
                    },
                    {
                        "number": 64,
                        "time": 412.35303668750026,
                        "value": 0
                    },
                    {
                        "number": 64,
                        "time": 412.50398625000025,
                        "value": 1
                    },
                    {
                        "number": 64,
                        "time": 413.01584249375026,
                        "value": 0
                    },
                    {
                        "number": 64,
                        "time": 413.13111306875027,
                        "value": 1
                    },
                    {
                        "number": 64,
                        "time": 413.70609367500026,
                        "value": 0
                    },
                    {
                        "number": 64,
                        "time": 413.7829407250003,
                        "value": 1
                    },
                    {
                        "number": 64,
                        "time": 414.9795590750003,
                        "value": 0
                    },
                    {
                        "number": 64,
                        "time": 415.0522893187503,
                        "value": 1
                    },
                    {
                        "number": 64,
                        "time": 416.3079152250003,
                        "value": 0
                    },
                    {
                        "number": 64,
                        "time": 416.4231858000003,
                        "value": 1
                    },
                    {
                        "number": 64,
                        "time": 417.6472495250003,
                        "value": 0
                    },
                    {
                        "number": 64,
                        "time": 417.7638923687503,
                        "value": 1
                    },
                    {
                        "number": 64,
                        "time": 418.9262040000003,
                        "value": 0
                    },
                    {
                        "number": 64,
                        "time": 418.99893424375034,
                        "value": 1
                    },
                    {
                        "number": 64,
                        "time": 420.2573046875003,
                        "value": 0
                    },
                    {
                        "number": 64,
                        "time": 420.3698307250003,
                        "value": 1
                    },
                    {
                        "number": 64,
                        "time": 421.5609600000003,
                        "value": 0
                    },
                    {
                        "number": 64,
                        "time": 421.6679969625003,
                        "value": 1
                    },
                    {
                        "number": 64,
                        "time": 422.2333716875003,
                        "value": 0
                    },
                    {
                        "number": 64,
                        "time": 422.3555036062503,
                        "value": 1
                    },
                    {
                        "number": 64,
                        "time": 422.8920606875003,
                        "value": 0
                    },
                    {
                        "number": 64,
                        "time": 422.9949808437503,
                        "value": 1
                    },
                    {
                        "number": 64,
                        "time": 424.2451176750003,
                        "value": 0
                    },
                    {
                        "number": 64,
                        "time": 424.3219647250003,
                        "value": 1
                    },
                    {
                        "number": 64,
                        "time": 425.5336780312503,
                        "value": 0
                    },
                    {
                        "number": 64,
                        "time": 425.6201309625003,
                        "value": 1
                    },
                    {
                        "number": 64,
                        "time": 426.8798736750003,
                        "value": 0
                    },
                    {
                        "number": 64,
                        "time": 426.9567207250003,
                        "value": 1
                    },
                    {
                        "number": 64,
                        "time": 427.8253668437503,
                        "value": 0
                    },
                    {
                        "number": 64,
                        "time": 427.8720239812503,
                        "value": 1
                    },
                    {
                        "number": 64,
                        "time": 428.16843403125034,
                        "value": 0
                    },
                    {
                        "number": 64,
                        "time": 428.25488696250034,
                        "value": 1
                    },
                    {
                        "number": 64,
                        "time": 429.4652280000003,
                        "value": 0
                    },
                    {
                        "number": 64,
                        "time": 429.5379582437503,
                        "value": 1
                    },
                    {
                        "number": 64,
                        "time": 430.1307783437503,
                        "value": 0
                    },
                    {
                        "number": 64,
                        "time": 430.1870413625003,
                        "value": 1
                    },
                    {
                        "number": 64,
                        "time": 430.7963286875003,
                        "value": 0
                    },
                    {
                        "number": 64,
                        "time": 430.9088547250003,
                        "value": 1
                    },
                    {
                        "number": 64,
                        "time": 431.4536454187503,
                        "value": 0
                    },
                    {
                        "number": 64,
                        "time": 431.50990843750026,
                        "value": 1
                    },
                    {
                        "number": 64,
                        "time": 431.77338403750025,
                        "value": 0
                    },
                    {
                        "number": 64,
                        "time": 431.8721873875003,
                        "value": 1
                    },
                    {
                        "number": 64,
                        "time": 432.0999840000003,
                        "value": 0
                    },
                    {
                        "number": 64,
                        "time": 432.2934738937503,
                        "value": 1
                    },
                    {
                        "number": 64,
                        "time": 432.77239568750025,
                        "value": 0
                    },
                    {
                        "number": 64,
                        "time": 432.95216289375026,
                        "value": 1
                    },
                    {
                        "number": 64,
                        "time": 433.43108468750023,
                        "value": 0
                    },
                    {
                        "number": 64,
                        "time": 433.5820342500002,
                        "value": 1
                    },
                    {
                        "number": 64,
                        "time": 434.0938904937502,
                        "value": 0
                    },
                    {
                        "number": 64,
                        "time": 434.20916106875023,
                        "value": 1
                    },
                    {
                        "number": 64,
                        "time": 434.7841416750002,
                        "value": 0
                    },
                    {
                        "number": 64,
                        "time": 434.86098872500025,
                        "value": 1
                    },
                    {
                        "number": 64,
                        "time": 436.05760707500025,
                        "value": 0
                    },
                    {
                        "number": 64,
                        "time": 436.13033731875026,
                        "value": 1
                    },
                    {
                        "number": 64,
                        "time": 437.38596322500024,
                        "value": 0
                    },
                    {
                        "number": 64,
                        "time": 437.50123380000025,
                        "value": 1
                    },
                    {
                        "number": 64,
                        "time": 438.72529752500026,
                        "value": 0
                    },
                    {
                        "number": 64,
                        "time": 438.8419403687503,
                        "value": 1
                    },
                    {
                        "number": 64,
                        "time": 440.0042520000003,
                        "value": 0
                    },
                    {
                        "number": 64,
                        "time": 440.0769822437503,
                        "value": 1
                    },
                    {
                        "number": 64,
                        "time": 441.3353526875003,
                        "value": 0
                    },
                    {
                        "number": 64,
                        "time": 441.4478787250003,
                        "value": 1
                    },
                    {
                        "number": 64,
                        "time": 442.6390080000003,
                        "value": 0
                    },
                    {
                        "number": 64,
                        "time": 442.74604496250026,
                        "value": 1
                    },
                    {
                        "number": 64,
                        "time": 443.3114196875003,
                        "value": 0
                    },
                    {
                        "number": 64,
                        "time": 443.43355160625026,
                        "value": 1
                    },
                    {
                        "number": 64,
                        "time": 443.97010868750027,
                        "value": 0
                    },
                    {
                        "number": 64,
                        "time": 444.0634229625003,
                        "value": 1
                    },
                    {
                        "number": 64,
                        "time": 445.27376400000026,
                        "value": 0
                    },
                    {
                        "number": 64,
                        "time": 445.34237743750026,
                        "value": 1
                    },
                    {
                        "number": 64,
                        "time": 445.9461756875003,
                        "value": 0
                    },
                    {
                        "number": 64,
                        "time": 446.1259428937503,
                        "value": 1
                    },
                    {
                        "number": 64,
                        "time": 446.60486468750025,
                        "value": 0
                    },
                    {
                        "number": 64,
                        "time": 446.67210585625025,
                        "value": 1
                    },
                    {
                        "number": 64,
                        "time": 447.90852000000024,
                        "value": 0
                    },
                    {
                        "number": 64,
                        "time": 447.98536705000026,
                        "value": 1
                    },
                    {
                        "number": 64,
                        "time": 448.58093168750025,
                        "value": 0
                    },
                    {
                        "number": 64,
                        "time": 448.63993924375023,
                        "value": 1
                    },
                    {
                        "number": 64,
                        "time": 449.23962068750023,
                        "value": 0
                    },
                    {
                        "number": 64,
                        "time": 449.3027450500002,
                        "value": 1
                    },
                    {
                        "number": 64,
                        "time": 450.5432760000002,
                        "value": 0
                    },
                    {
                        "number": 64,
                        "time": 450.64070708125024,
                        "value": 1
                    },
                    {
                        "number": 64,
                        "time": 453.17803200000026,
                        "value": 0
                    },
                    {
                        "number": 64,
                        "time": 453.28095215625024,
                        "value": 1
                    },
                    {
                        "number": 64,
                        "time": 455.81278800000024,
                        "value": 0
                    },
                    {
                        "number": 64,
                        "time": 455.89924093125023,
                        "value": 1
                    },
                    {
                        "number": 64,
                        "time": 456.4893164937502,
                        "value": 0
                    },
                    {
                        "number": 64,
                        "time": 456.5977257250002,
                        "value": 1
                    },
                    {
                        "number": 64,
                        "time": 457.1480054937502,
                        "value": 0
                    },
                    {
                        "number": 64,
                        "time": 457.2399475000002,
                        "value": 1
                    },
                    {
                        "number": 64,
                        "time": 457.8066944937502,
                        "value": 0
                    },
                    {
                        "number": 64,
                        "time": 457.93019868125015,
                        "value": 1
                    },
                    {
                        "number": 64,
                        "time": 458.12368857500013,
                        "value": 0
                    },
                    {
                        "number": 64,
                        "time": 458.2279810000001,
                        "value": 1
                    },
                    {
                        "number": 64,
                        "time": 458.4475440000001,
                        "value": 0
                    },
                    {
                        "number": 64,
                        "time": 459.7759001500001,
                        "value": 0
                    },
                    {
                        "number": 64,
                        "time": 459.8431413187501,
                        "value": 1
                    },
                    {
                        "number": 64,
                        "time": 461.0823000000001,
                        "value": 0
                    },
                    {
                        "number": 64,
                        "time": 462.4106561500001,
                        "value": 0
                    },
                    {
                        "number": 64,
                        "time": 462.4778973187501,
                        "value": 1
                    },
                    {
                        "number": 64,
                        "time": 463.71705600000007,
                        "value": 0
                    },
                    {
                        "number": 64,
                        "time": 463.8350711125001,
                        "value": 1
                    },
                    {
                        "number": 64,
                        "time": 465.04541215000006,
                        "value": 0
                    },
                    {
                        "number": 64,
                        "time": 465.11265331875006,
                        "value": 1
                    },
                    {
                        "number": 64,
                        "time": 466.35181200000005,
                        "value": 0
                    },
                    {
                        "number": 64,
                        "time": 466.46982711250007,
                        "value": 1
                    },
                    {
                        "number": 64,
                        "time": 467.68016815000004,
                        "value": 0
                    },
                    {
                        "number": 64,
                        "time": 470.31492415,
                        "value": 0
                    },
                    {
                        "number": 64,
                        "time": 470.38216531875,
                        "value": 1
                    },
                    {
                        "number": 64,
                        "time": 471.621324,
                        "value": 0
                    },
                    {
                        "number": 64,
                        "time": 472.94968015,
                        "value": 0
                    },
                    {
                        "number": 64,
                        "time": 473.01692131875,
                        "value": 1
                    },
                    {
                        "number": 64,
                        "time": 474.25608,
                        "value": 0
                    },
                    {
                        "number": 64,
                        "time": 474.33155478125,
                        "value": 1
                    },
                    {
                        "number": 64,
                        "time": 475.58443615000004,
                        "value": 0
                    },
                    {
                        "number": 64,
                        "time": 475.65167731875005,
                        "value": 1
                    },
                    {
                        "number": 64,
                        "time": 476.89083600000004,
                        "value": 0
                    },
                    {
                        "number": 64,
                        "time": 478.21919215,
                        "value": 0
                    },
                    {
                        "number": 64,
                        "time": 478.28643331875,
                        "value": 1
                    },
                    {
                        "number": 64,
                        "time": 478.883370225,
                        "value": 0
                    },
                    {
                        "number": 64,
                        "time": 478.949239125,
                        "value": 1
                    },
                    {
                        "number": 64,
                        "time": 479.525592,
                        "value": 0
                    },
                    {
                        "number": 64,
                        "time": 480.85394815,
                        "value": 0
                    },
                    {
                        "number": 64,
                        "time": 480.92118931875,
                        "value": 1
                    },
                    {
                        "number": 64,
                        "time": 482.160348,
                        "value": 0
                    },
                    {
                        "number": 64,
                        "time": 483.48870415,
                        "value": 0
                    },
                    {
                        "number": 64,
                        "time": 483.55594531875,
                        "value": 1
                    },
                    {
                        "number": 64,
                        "time": 484.795104,
                        "value": 0
                    },
                    {
                        "number": 64,
                        "time": 484.9131191125,
                        "value": 1
                    },
                    {
                        "number": 64,
                        "time": 486.12346014999997,
                        "value": 0
                    },
                    {
                        "number": 64,
                        "time": 486.19070131875,
                        "value": 1
                    },
                    {
                        "number": 64,
                        "time": 487.42985999999996,
                        "value": 0
                    },
                    {
                        "number": 64,
                        "time": 487.5478751125,
                        "value": 1
                    },
                    {
                        "number": 64,
                        "time": 488.75821614999995,
                        "value": 0
                    },
                    {
                        "number": 64,
                        "time": 491.39297214999993,
                        "value": 0
                    },
                    {
                        "number": 64,
                        "time": 491.46021331874994,
                        "value": 1
                    },
                    {
                        "number": 64,
                        "time": 492.6993719999999,
                        "value": 0
                    },
                    {
                        "number": 64,
                        "time": 494.0277281499999,
                        "value": 0
                    },
                    {
                        "number": 64,
                        "time": 494.0949693187499,
                        "value": 1
                    },
                    {
                        "number": 64,
                        "time": 495.3341279999999,
                        "value": 0
                    },
                    {
                        "number": 64,
                        "time": 495.4521431124999,
                        "value": 1
                    },
                    {
                        "number": 64,
                        "time": 496.6624841499999,
                        "value": 0
                    },
                    {
                        "number": 64,
                        "time": 496.7297253187499,
                        "value": 1
                    },
                    {
                        "number": 64,
                        "time": 497.9688839999999,
                        "value": 0
                    },
                    {
                        "number": 64,
                        "time": 499.2972401499999,
                        "value": 0
                    },
                    {
                        "number": 64,
                        "time": 499.3644813187499,
                        "value": 1
                    },
                    {
                        "number": 64,
                        "time": 499.9614182249999,
                        "value": 0
                    },
                    {
                        "number": 64,
                        "time": 500.0272871249999,
                        "value": 1
                    },
                    {
                        "number": 64,
                        "time": 500.60363999999987,
                        "value": 0
                    },
                    {
                        "number": 64,
                        "time": 500.6585307499999,
                        "value": 1
                    },
                    {
                        "number": 64,
                        "time": 501.26919034374987,
                        "value": 0
                    },
                    {
                        "number": 64,
                        "time": 501.3213365562499,
                        "value": 1
                    },
                    {
                        "number": 64,
                        "time": 501.93474068749987,
                        "value": 0
                    },
                    {
                        "number": 64,
                        "time": 502.0074709312499,
                        "value": 1
                    },
                    {
                        "number": 64,
                        "time": 503.2383959999999,
                        "value": 0
                    },
                    {
                        "number": 64,
                        "time": 503.29328674999994,
                        "value": 1
                    },
                    {
                        "number": 64,
                        "time": 503.9039463437499,
                        "value": 0
                    },
                    {
                        "number": 64,
                        "time": 503.9560925562499,
                        "value": 1
                    },
                    {
                        "number": 64,
                        "time": 504.5694966874999,
                        "value": 0
                    },
                    {
                        "number": 64,
                        "time": 504.6422269312499,
                        "value": 1
                    },
                    {
                        "number": 64,
                        "time": 505.87315199999995,
                        "value": 0
                    },
                    {
                        "number": 64,
                        "time": 505.92804275,
                        "value": 1
                    },
                    {
                        "number": 64,
                        "time": 507.19052999999997,
                        "value": 0
                    },
                    {
                        "number": 64,
                        "time": 507.24542075,
                        "value": 1
                    },
                    {
                        "number": 64,
                        "time": 508.5161416125,
                        "value": 0
                    },
                    {
                        "number": 64,
                        "time": 508.60259454375,
                        "value": 1
                    },
                    {
                        "number": 64,
                        "time": 509.15973565625,
                        "value": 0
                    },
                    {
                        "number": 64,
                        "time": 510.50044222500003,
                        "value": 0
                    },
                    {
                        "number": 64,
                        "time": 511.142664,
                        "value": 0
                    },
                    {
                        "number": 64,
                        "time": 511.26067911250004,
                        "value": 1
                    },
                    {
                        "number": 64,
                        "time": 512.4710201500001,
                        "value": 0
                    },
                    {
                        "number": 64,
                        "time": 512.5382613187501,
                        "value": 1
                    },
                    {
                        "number": 64,
                        "time": 513.7774200000001,
                        "value": 0
                    },
                    {
                        "number": 64,
                        "time": 515.1057761500001,
                        "value": 0
                    },
                    {
                        "number": 64,
                        "time": 515.1730173187501,
                        "value": 1
                    },
                    {
                        "number": 64,
                        "time": 516.4121760000002,
                        "value": 0
                    },
                    {
                        "number": 64,
                        "time": 517.7405321500001,
                        "value": 0
                    },
                    {
                        "number": 64,
                        "time": 517.8077733187502,
                        "value": 1
                    },
                    {
                        "number": 64,
                        "time": 519.0469320000002,
                        "value": 0
                    },
                    {
                        "number": 64,
                        "time": 519.1649471125002,
                        "value": 1
                    },
                    {
                        "number": 64,
                        "time": 520.3752881500002,
                        "value": 0
                    },
                    {
                        "number": 64,
                        "time": 520.4425293187502,
                        "value": 1
                    },
                    {
                        "number": 64,
                        "time": 521.0394662250002,
                        "value": 0
                    },
                    {
                        "number": 64,
                        "time": 521.6816880000002,
                        "value": 0
                    },
                    {
                        "number": 64,
                        "time": 521.7365787500003,
                        "value": 1
                    },
                    {
                        "number": 64,
                        "time": 522.3472383437503,
                        "value": 0
                    },
                    {
                        "number": 64,
                        "time": 522.3993845562503,
                        "value": 1
                    },
                    {
                        "number": 64,
                        "time": 523.0127886875003,
                        "value": 0
                    },
                    {
                        "number": 64,
                        "time": 523.0855189312504,
                        "value": 1
                    },
                    {
                        "number": 64,
                        "time": 524.3164440000004,
                        "value": 0
                    },
                    {
                        "number": 64,
                        "time": 524.3713347500004,
                        "value": 1
                    },
                    {
                        "number": 64,
                        "time": 524.9819943437504,
                        "value": 0
                    },
                    {
                        "number": 64,
                        "time": 525.0341405562505,
                        "value": 1
                    },
                    {
                        "number": 64,
                        "time": 525.6475446875005,
                        "value": 0
                    },
                    {
                        "number": 64,
                        "time": 525.7202749312505,
                        "value": 1
                    },
                    {
                        "number": 64,
                        "time": 526.9512000000005,
                        "value": 0
                    },
                    {
                        "number": 64,
                        "time": 527.0060907500006,
                        "value": 1
                    },
                    {
                        "number": 64,
                        "time": 528.2685780000006,
                        "value": 0
                    },
                    {
                        "number": 64,
                        "time": 528.3234687500006,
                        "value": 1
                    },
                    {
                        "number": 64,
                        "time": 529.5941896125006,
                        "value": 0
                    },
                    {
                        "number": 64,
                        "time": 529.6806425437507,
                        "value": 1
                    },
                    {
                        "number": 64,
                        "time": 530.2515063437506,
                        "value": 0
                    },
                    {
                        "number": 64,
                        "time": 531.5784902250007,
                        "value": 0
                    },
                    {
                        "number": 64,
                        "time": 532.2207120000007,
                        "value": 0
                    },
                    {
                        "number": 64,
                        "time": 532.3387271125007,
                        "value": 1
                    },
                    {
                        "number": 64,
                        "time": 533.5490681500007,
                        "value": 0
                    },
                    {
                        "number": 64,
                        "time": 533.6163093187507,
                        "value": 1
                    },
                    {
                        "number": 64,
                        "time": 534.8554680000008,
                        "value": 0
                    },
                    {
                        "number": 64,
                        "time": 536.1838241500008,
                        "value": 0
                    },
                    {
                        "number": 64,
                        "time": 536.2510653187508,
                        "value": 1
                    },
                    {
                        "number": 64,
                        "time": 537.4902240000008,
                        "value": 0
                    },
                    {
                        "number": 64,
                        "time": 538.8185801500008,
                        "value": 0
                    },
                    {
                        "number": 64,
                        "time": 538.8858213187508,
                        "value": 1
                    },
                    {
                        "number": 64,
                        "time": 540.1249800000008,
                        "value": 0
                    },
                    {
                        "number": 64,
                        "time": 540.2429951125008,
                        "value": 1
                    },
                    {
                        "number": 64,
                        "time": 541.4533361500008,
                        "value": 0
                    },
                    {
                        "number": 64,
                        "time": 542.1175142250008,
                        "value": 0
                    },
                    {
                        "number": 64,
                        "time": 542.7597360000009,
                        "value": 0
                    },
                    {
                        "number": 64,
                        "time": 544.0880921500009,
                        "value": 0
                    },
                    {
                        "number": 64,
                        "time": 544.7522702250009,
                        "value": 0
                    },
                    {
                        "number": 64,
                        "time": 545.3944920000009,
                        "value": 0
                    },
                    {
                        "number": 64,
                        "time": 546.0710204937509,
                        "value": 0
                    },
                    {
                        "number": 64,
                        "time": 547.7149984562509,
                        "value": 1
                    },
                    {
                        "number": 64,
                        "time": 549.3658377625009,
                        "value": 0
                    },
                    {
                        "number": 64,
                        "time": 549.6183352125008,
                        "value": 1
                    },
                    {
                        "number": 64,
                        "time": 550.6832157625008,
                        "value": 0
                    },
                    {
                        "number": 64,
                        "time": 550.8725888500009,
                        "value": 1
                    },
                    {
                        "number": 64,
                        "time": 551.9978492250009,
                        "value": 0
                    },
                    {
                        "number": 64,
                        "time": 552.2585802875009,
                        "value": 1
                    },
                    {
                        "number": 64,
                        "time": 552.6579104937509,
                        "value": 0
                    },
                    {
                        "number": 64,
                        "time": 552.9008020625009,
                        "value": 1
                    },
                    {
                        "number": 64,
                        "time": 553.317971762501,
                        "value": 0
                    },
                    {
                        "number": 64,
                        "time": 553.507344850001,
                        "value": 1
                    },
                    {
                        "number": 64,
                        "time": 553.973916225001,
                        "value": 0
                    },
                    {
                        "number": 64,
                        "time": 554.1303548625009,
                        "value": 1
                    },
                    {
                        "number": 64,
                        "time": 554.6326052250009,
                        "value": 0
                    },
                    {
                        "number": 64,
                        "time": 554.8933362875009,
                        "value": 1
                    },
                    {
                        "number": 64,
                        "time": 555.933516000001,
                        "value": 0
                    },
                    {
                        "number": 64,
                        "time": 557.401843562501,
                        "value": 1
                    },
                    {
                        "number": 64,
                        "time": 558.5874837625009,
                        "value": 0
                    },
                    {
                        "number": 64,
                        "time": 558.776856850001,
                        "value": 1
                    },
                    {
                        "number": 64,
                        "time": 559.2434282250009,
                        "value": 0
                    },
                    {
                        "number": 64,
                        "time": 559.3998668625009,
                        "value": 1
                    },
                    {
                        "number": 64,
                        "time": 559.9021172250009,
                        "value": 0
                    },
                    {
                        "number": 64,
                        "time": 560.1628482875009,
                        "value": 1
                    },
                    {
                        "number": 64,
                        "time": 561.2030280000009,
                        "value": 0
                    },
                    {
                        "number": 64,
                        "time": 562.6713555625009,
                        "value": 1
                    },
                    {
                        "number": 64,
                        "time": 563.837784000001,
                        "value": 0
                    },
                    {
                        "number": 64,
                        "time": 564.0024562500009,
                        "value": 1
                    },
                    {
                        "number": 64,
                        "time": 565.499601456251,
                        "value": 0
                    },
                    {
                        "number": 64,
                        "time": 566.482145881251,
                        "value": 0
                    },
                    {
                        "number": 64,
                        "time": 566.9487172562509,
                        "value": 1
                    },
                    {
                        "number": 64,
                        "time": 573.6453887562509,
                        "value": 0
                    }
                ]
            },
            "id": 3,
            "name": "Pedale",
            "instrumentNumber": 0,
            "instrument": "acoustic grand piano",
            "instrumentFamily": "piano",
            "channelNumber": 0,
            "isPercussion": false
        },
        {
            "startTime": 0,
            "duration": 0,
            "length": 0,
            "notes": [],
            "controlChanges": {},
            "id": 4,
            "name": "Schubert: Impromptu  D 935 No..3"
        },
        {
            "startTime": 0,
            "duration": 0,
            "length": 0,
            "notes": [],
            "controlChanges": {},
            "id": 5,
            "name": "Copyright  2007 by Bernd Krueger"
        },
        {
            "startTime": 0,
            "duration": 0,
            "length": 0,
            "notes": [],
            "controlChanges": {},
            "id": 6,
            "name": "http://www.piano-midi.de/"
        },
        {
            "startTime": 0,
            "duration": 0,
            "length": 0,
            "notes": [],
            "controlChanges": {},
            "id": 7,
            "name": "Edition: 2014-03-14"
        },
        {
            "startTime": 0,
            "duration": 0,
            "length": 0,
            "notes": [],
            "controlChanges": {},
            "id": 8,
            "name": "Spur 8"
        },
        {
            "startTime": 0,
            "duration": 0,
            "length": 0,
            "notes": [],
            "controlChanges": {},
            "id": 9,
            "name": "Spur 9"
        },
        {
            "startTime": 0,
            "duration": 0,
            "length": 0,
            "notes": [],
            "controlChanges": {},
            "id": 10,
            "name": "Spur 10"
        },
        {
            "startTime": 0,
            "duration": 0,
            "length": 0,
            "notes": [],
            "controlChanges": {},
            "id": 11,
            "name": "Spur 11"
        },
        {
            "startTime": 0,
            "duration": 0,
            "length": 0,
            "notes": [],
            "controlChanges": {},
            "id": 12,
            "name": "Spur 12"
        },
        {
            "startTime": 0,
            "duration": 0,
            "length": 0,
            "notes": [],
            "controlChanges": {},
            "id": 13,
            "name": "Spur 13"
        },
        {
            "startTime": 0,
            "duration": 0,
            "length": 0,
            "notes": [],
            "controlChanges": {},
            "id": 14,
            "name": "Spur 14"
        },
        {
            "startTime": 0,
            "duration": 0,
            "length": 0,
            "notes": [],
            "controlChanges": {},
            "id": 15,
            "name": "Spur 15"
        },
        {
            "startTime": 0,
            "duration": 0,
            "length": 0,
            "notes": [],
            "controlChanges": {},
            "id": 16,
            "name": "Spur 16"
        }
    ]
}