{
    "header": {
        "PPQ": 480,
        "timeSignature": [
            4,
            4
        ],
        "bpm": 30,
        "name": "Kreisleriana No. 4"
    },
    "startTime": 0,
    "duration": 216,
    "tracks": [
        {
            "startTime": 0,
            "duration": 0,
            "length": 0,
            "notes": [],
            "controlChanges": {},
            "id": 0,
            "name": "Kreisleriana No. 4"
        },
        {
            "startTime": 1,
            "duration": 216,
            "length": 440,
            "notes": [
                {
                    "name": "D#4",
                    "midi": 63,
                    "time": 1,
                    "velocity": 0.2992125984251969,
                    "duration": 2
                },
                {
                    "name": "A3",
                    "midi": 57,
                    "time": 1,
                    "velocity": 0.2992125984251969,
                    "duration": 2
                },
                {
                    "name": "A4",
                    "midi": 69,
                    "time": 1,
                    "velocity": 0.41732283464566927,
                    "duration": 2
                },
                {
                    "name": "D#4",
                    "midi": 63,
                    "time": 3,
                    "velocity": 0.2992125984251969,
                    "duration": 1
                },
                {
                    "name": "A#3",
                    "midi": 58,
                    "time": 3,
                    "velocity": 0.2992125984251969,
                    "duration": 1
                },
                {
                    "name": "A#4",
                    "midi": 70,
                    "time": 3,
                    "velocity": 0.4251968503937008,
                    "duration": 1
                },
                {
                    "name": "D5",
                    "midi": 74,
                    "time": 4,
                    "velocity": 0.49606299212598426,
                    "duration": 0.75
                },
                {
                    "name": "C5",
                    "midi": 72,
                    "time": 4.75,
                    "velocity": 0.44881889763779526,
                    "duration": 0.25
                },
                {
                    "name": "C5",
                    "midi": 72,
                    "time": 5,
                    "velocity": 0.47244094488188976,
                    "duration": 2
                },
                {
                    "name": "D#4",
                    "midi": 63,
                    "time": 5,
                    "velocity": 0.33858267716535434,
                    "duration": 2
                },
                {
                    "name": "C4",
                    "midi": 60,
                    "time": 5,
                    "velocity": 0.33858267716535434,
                    "duration": 2
                },
                {
                    "name": "A#3",
                    "midi": 58,
                    "time": 7,
                    "velocity": 0.30708661417322836,
                    "duration": 1
                },
                {
                    "name": "D#4",
                    "midi": 63,
                    "time": 7,
                    "velocity": 0.3700787401574803,
                    "duration": 1
                },
                {
                    "name": "A#4",
                    "midi": 70,
                    "time": 7,
                    "velocity": 0.4409448818897638,
                    "duration": 1
                },
                {
                    "name": "D#4",
                    "midi": 63,
                    "time": 8,
                    "velocity": 0.31496062992125984,
                    "duration": 1
                },
                {
                    "name": "A4",
                    "midi": 69,
                    "time": 8,
                    "velocity": 0.44881889763779526,
                    "duration": 1
                },
                {
                    "name": "A3",
                    "midi": 57,
                    "time": 8,
                    "velocity": 0.31496062992125984,
                    "duration": 1
                },
                {
                    "name": "A#3",
                    "midi": 58,
                    "time": 9,
                    "velocity": 0.2992125984251969,
                    "duration": 1
                },
                {
                    "name": "D#4",
                    "midi": 63,
                    "time": 9,
                    "velocity": 0.3543307086614173,
                    "duration": 2
                },
                {
                    "name": "G4",
                    "midi": 67,
                    "time": 9,
                    "velocity": 0.4251968503937008,
                    "duration": 1
                },
                {
                    "name": "C4",
                    "midi": 60,
                    "time": 10,
                    "velocity": 0.4015748031496063,
                    "duration": 3
                },
                {
                    "name": "F4",
                    "midi": 65,
                    "time": 10,
                    "velocity": 0.47244094488188976,
                    "duration": 0.5
                },
                {
                    "name": "G4",
                    "midi": 67,
                    "time": 10.5,
                    "velocity": 0.3937007874015748,
                    "duration": 0.125
                },
                {
                    "name": "F4",
                    "midi": 65,
                    "time": 10.625,
                    "velocity": 0.3543307086614173,
                    "duration": 0.125
                },
                {
                    "name": "E4",
                    "midi": 64,
                    "time": 10.75,
                    "velocity": 0.3937007874015748,
                    "duration": 0.125
                },
                {
                    "name": "F4",
                    "midi": 65,
                    "time": 10.875,
                    "velocity": 0.4094488188976378,
                    "duration": 0.125
                },
                {
                    "name": "G4",
                    "midi": 67,
                    "time": 11,
                    "velocity": 0.4645669291338583,
                    "duration": 0.75
                },
                {
                    "name": "D#4",
                    "midi": 63,
                    "time": 11.75,
                    "velocity": 0.4094488188976378,
                    "duration": 0.25
                },
                {
                    "name": "D#4",
                    "midi": 63,
                    "time": 12,
                    "velocity": 0.4566929133858268,
                    "duration": 1
                },
                {
                    "name": "G#3",
                    "midi": 56,
                    "time": 13,
                    "velocity": 0.2755905511811024,
                    "duration": 2
                },
                {
                    "name": "D3",
                    "midi": 50,
                    "time": 13,
                    "velocity": 0.2755905511811024,
                    "duration": 2
                },
                {
                    "name": "D4",
                    "midi": 62,
                    "time": 13,
                    "velocity": 0.3937007874015748,
                    "duration": 2
                },
                {
                    "name": "G#3",
                    "midi": 56,
                    "time": 15,
                    "velocity": 0.18110236220472442,
                    "duration": 2
                },
                {
                    "name": "D#3",
                    "midi": 51,
                    "time": 15,
                    "velocity": 0.18110236220472442,
                    "duration": 0.875
                },
                {
                    "name": "C4",
                    "midi": 60,
                    "time": 15,
                    "velocity": 0.3228346456692913,
                    "duration": 2
                },
                {
                    "name": "G3",
                    "midi": 55,
                    "time": 16,
                    "velocity": 0.36220472440944884,
                    "duration": 0.75
                },
                {
                    "name": "F3",
                    "midi": 53,
                    "time": 16.75,
                    "velocity": 0.29133858267716534,
                    "duration": 0.25
                },
                {
                    "name": "F3",
                    "midi": 53,
                    "time": 17,
                    "velocity": 0.23622047244094488,
                    "duration": 2
                },
                {
                    "name": "G#3",
                    "midi": 56,
                    "time": 17,
                    "velocity": 0.28346456692913385,
                    "duration": 2
                },
                {
                    "name": "A#3",
                    "midi": 58,
                    "time": 17,
                    "velocity": 0.33858267716535434,
                    "duration": 2
                },
                {
                    "name": "G#3",
                    "midi": 56,
                    "time": 19,
                    "velocity": 0.2283464566929134,
                    "duration": 2
                },
                {
                    "name": "A#3",
                    "midi": 58,
                    "time": 19,
                    "velocity": 0.33070866141732286,
                    "duration": 2
                },
                {
                    "name": "D#3",
                    "midi": 51,
                    "time": 19,
                    "velocity": 0.2283464566929134,
                    "duration": 1
                },
                {
                    "name": "D3",
                    "midi": 50,
                    "time": 20,
                    "velocity": 0.2755905511811024,
                    "duration": 1
                },
                {
                    "name": "C3",
                    "midi": 48,
                    "time": 21,
                    "velocity": 0.33858267716535434,
                    "duration": 1
                },
                {
                    "name": "A#2",
                    "midi": 46,
                    "time": 22,
                    "velocity": 0.3700787401574803,
                    "duration": 0.5
                },
                {
                    "name": "C3",
                    "midi": 48,
                    "time": 22.5,
                    "velocity": 0.3228346456692913,
                    "duration": 0.16250000000000142
                },
                {
                    "name": "A#2",
                    "midi": 46,
                    "time": 22.625,
                    "velocity": 0.2677165354330709,
                    "duration": 0.16250000000000142
                },
                {
                    "name": "A2",
                    "midi": 45,
                    "time": 22.75,
                    "velocity": 0.33070866141732286,
                    "duration": 0.16250000000000142
                },
                {
                    "name": "A#2",
                    "midi": 46,
                    "time": 22.875,
                    "velocity": 0.36220472440944884,
                    "duration": 0.16250000000000142
                },
                {
                    "name": "C3",
                    "midi": 48,
                    "time": 23,
                    "velocity": 0.3937007874015748,
                    "duration": 0.75
                },
                {
                    "name": "G#2",
                    "midi": 44,
                    "time": 23.75,
                    "velocity": 0.3464566929133858,
                    "duration": 0.25
                },
                {
                    "name": "G#2",
                    "midi": 44,
                    "time": 24,
                    "velocity": 0.3464566929133858,
                    "duration": 0.875
                },
                {
                    "name": "B4",
                    "midi": 71,
                    "time": 25,
                    "velocity": 0.41732283464566927,
                    "duration": 2
                },
                {
                    "name": "G4",
                    "midi": 67,
                    "time": 25,
                    "velocity": 0.2992125984251969,
                    "duration": 2
                },
                {
                    "name": "D4",
                    "midi": 62,
                    "time": 25,
                    "velocity": 0.2992125984251969,
                    "duration": 2
                },
                {
                    "name": "F#4",
                    "midi": 66,
                    "time": 27,
                    "velocity": 0.3858267716535433,
                    "duration": 0.875
                },
                {
                    "name": "C4",
                    "midi": 60,
                    "time": 27,
                    "velocity": 0.3228346456692913,
                    "duration": 0.875
                },
                {
                    "name": "C5",
                    "midi": 72,
                    "time": 27,
                    "velocity": 0.4645669291338583,
                    "duration": 0.875
                },
                {
                    "name": "D#4",
                    "midi": 63,
                    "time": 27.875,
                    "velocity": 0.29133858267716534,
                    "duration": 1.125
                },
                {
                    "name": "F#4",
                    "midi": 66,
                    "time": 27.875,
                    "velocity": 0.29133858267716534,
                    "duration": 0.125
                },
                {
                    "name": "D#5",
                    "midi": 75,
                    "time": 28,
                    "velocity": 0.5826771653543307,
                    "duration": 0.75
                },
                {
                    "name": "D5",
                    "midi": 74,
                    "time": 28.75,
                    "velocity": 0.4645669291338583,
                    "duration": 0.25
                },
                {
                    "name": "F4",
                    "midi": 65,
                    "time": 29,
                    "velocity": 0.3543307086614173,
                    "duration": 2
                },
                {
                    "name": "D5",
                    "midi": 74,
                    "time": 29,
                    "velocity": 0.49606299212598426,
                    "duration": 2
                },
                {
                    "name": "D#4",
                    "midi": 63,
                    "time": 31,
                    "velocity": 0.3700787401574803,
                    "duration": 1
                },
                {
                    "name": "C5",
                    "midi": 72,
                    "time": 31,
                    "velocity": 0.4409448818897638,
                    "duration": 1
                },
                {
                    "name": "D4",
                    "midi": 62,
                    "time": 32,
                    "velocity": 0.3779527559055118,
                    "duration": 1
                },
                {
                    "name": "B4",
                    "midi": 71,
                    "time": 32,
                    "velocity": 0.44881889763779526,
                    "duration": 1
                },
                {
                    "name": "C4",
                    "midi": 60,
                    "time": 33,
                    "velocity": 0.3543307086614173,
                    "duration": 1
                },
                {
                    "name": "G#4",
                    "midi": 68,
                    "time": 33,
                    "velocity": 0.4251968503937008,
                    "duration": 1
                },
                {
                    "name": "G4",
                    "midi": 67,
                    "time": 34,
                    "velocity": 0.47244094488188976,
                    "duration": 0.5
                },
                {
                    "name": "B3",
                    "midi": 59,
                    "time": 34,
                    "velocity": 0.4015748031496063,
                    "duration": 1
                },
                {
                    "name": "G#4",
                    "midi": 68,
                    "time": 34.5,
                    "velocity": 0.3937007874015748,
                    "duration": 0.125
                },
                {
                    "name": "G4",
                    "midi": 67,
                    "time": 34.625,
                    "velocity": 0.3543307086614173,
                    "duration": 0.125
                },
                {
                    "name": "F4",
                    "midi": 65,
                    "time": 34.75,
                    "velocity": 0.3937007874015748,
                    "duration": 0.125
                },
                {
                    "name": "G4",
                    "midi": 67,
                    "time": 34.875,
                    "velocity": 0.4094488188976378,
                    "duration": 0.125
                },
                {
                    "name": "G#4",
                    "midi": 68,
                    "time": 35,
                    "velocity": 0.44881889763779526,
                    "duration": 0.75
                },
                {
                    "name": "D4",
                    "midi": 62,
                    "time": 35,
                    "velocity": 0.4015748031496063,
                    "duration": 2
                },
                {
                    "name": "F4",
                    "midi": 65,
                    "time": 35.75,
                    "velocity": 0.4094488188976378,
                    "duration": 0.25
                },
                {
                    "name": "F4",
                    "midi": 65,
                    "time": 36,
                    "velocity": 0.4566929133858268,
                    "duration": 1
                },
                {
                    "name": "A#3",
                    "midi": 58,
                    "time": 37,
                    "velocity": 0.33858267716535434,
                    "duration": 4
                },
                {
                    "name": "G3",
                    "midi": 55,
                    "time": 37,
                    "velocity": 0.30708661417322836,
                    "duration": 4
                },
                {
                    "name": "E4",
                    "midi": 64,
                    "time": 37,
                    "velocity": 0.5196850393700787,
                    "duration": 4
                },
                {
                    "name": "A#3",
                    "midi": 58,
                    "time": 41,
                    "velocity": 0.3228346456692913,
                    "duration": 1.5
                },
                {
                    "name": "G4",
                    "midi": 67,
                    "time": 41,
                    "velocity": 0.4251968503937008,
                    "duration": 1.5
                },
                {
                    "name": "C#4",
                    "midi": 61,
                    "time": 42.5,
                    "velocity": 0.2992125984251969,
                    "duration": 0.5
                },
                {
                    "name": "A#4",
                    "midi": 70,
                    "time": 42.5,
                    "velocity": 0.3543307086614173,
                    "duration": 0.5
                },
                {
                    "name": "C4",
                    "midi": 60,
                    "time": 43,
                    "velocity": 0.2992125984251969,
                    "duration": 0.5
                },
                {
                    "name": "G#4",
                    "midi": 68,
                    "time": 43,
                    "velocity": 0.3543307086614173,
                    "duration": 0.5
                },
                {
                    "name": "A#3",
                    "midi": 58,
                    "time": 43.75,
                    "velocity": 0.2992125984251969,
                    "duration": 0.25
                },
                {
                    "name": "G4",
                    "midi": 67,
                    "time": 43.75,
                    "velocity": 0.3543307086614173,
                    "duration": 0.25
                },
                {
                    "name": "C#4",
                    "midi": 61,
                    "time": 44,
                    "velocity": 0.2992125984251969,
                    "duration": 1
                },
                {
                    "name": "A#4",
                    "midi": 70,
                    "time": 44,
                    "velocity": 0.3543307086614173,
                    "duration": 1
                },
                {
                    "name": "C4",
                    "midi": 60,
                    "time": 45,
                    "velocity": 0.2992125984251969,
                    "duration": 4
                },
                {
                    "name": "A4",
                    "midi": 69,
                    "time": 45,
                    "velocity": 0.3543307086614173,
                    "duration": 4
                },
                {
                    "name": "D#4",
                    "midi": 63,
                    "time": 49,
                    "velocity": 0.2992125984251969,
                    "duration": 1.5
                },
                {
                    "name": "C5",
                    "midi": 72,
                    "time": 49,
                    "velocity": 0.44881889763779526,
                    "duration": 1.5
                },
                {
                    "name": "F#4",
                    "midi": 66,
                    "time": 50.5,
                    "velocity": 0.2992125984251969,
                    "duration": 0.5
                },
                {
                    "name": "D#5",
                    "midi": 75,
                    "time": 50.5,
                    "velocity": 0.3543307086614173,
                    "duration": 0.5
                },
                {
                    "name": "F4",
                    "midi": 65,
                    "time": 51,
                    "velocity": 0.2992125984251969,
                    "duration": 0.5
                },
                {
                    "name": "C#5",
                    "midi": 73,
                    "time": 51,
                    "velocity": 0.4251968503937008,
                    "duration": 0.5
                },
                {
                    "name": "D#4",
                    "midi": 63,
                    "time": 51.5,
                    "velocity": 0.2992125984251969,
                    "duration": 0.5
                },
                {
                    "name": "C5",
                    "midi": 72,
                    "time": 51.5,
                    "velocity": 0.4251968503937008,
                    "duration": 0.5
                },
                {
                    "name": "F#4",
                    "midi": 66,
                    "time": 52,
                    "velocity": 0.2992125984251969,
                    "duration": 0.5
                },
                {
                    "name": "D#5",
                    "midi": 75,
                    "time": 52,
                    "velocity": 0.4251968503937008,
                    "duration": 0.5
                },
                {
                    "name": "C#5",
                    "midi": 73,
                    "time": 52.5,
                    "velocity": 0.4251968503937008,
                    "duration": 0.5
                },
                {
                    "name": "F4",
                    "midi": 65,
                    "time": 52.5,
                    "velocity": 0.2992125984251969,
                    "duration": 0.5
                },
                {
                    "name": "A#4",
                    "midi": 70,
                    "time": 53,
                    "velocity": 0.4251968503937008,
                    "duration": 0.5
                },
                {
                    "name": "C#4",
                    "midi": 61,
                    "time": 53,
                    "velocity": 0.2992125984251969,
                    "duration": 0.5
                },
                {
                    "name": "F#4",
                    "midi": 66,
                    "time": 53.5,
                    "velocity": 0.4251968503937008,
                    "duration": 0.5
                },
                {
                    "name": "A#3",
                    "midi": 58,
                    "time": 53.5,
                    "velocity": 0.2992125984251969,
                    "duration": 0.5
                },
                {
                    "name": "C#5",
                    "midi": 73,
                    "time": 54,
                    "velocity": 0.4251968503937008,
                    "duration": 0.5
                },
                {
                    "name": "F4",
                    "midi": 65,
                    "time": 54,
                    "velocity": 0.2992125984251969,
                    "duration": 0.5
                },
                {
                    "name": "C5",
                    "midi": 72,
                    "time": 54.5,
                    "velocity": 0.4251968503937008,
                    "duration": 0.5
                },
                {
                    "name": "E4",
                    "midi": 64,
                    "time": 54.5,
                    "velocity": 0.2992125984251969,
                    "duration": 0.5
                },
                {
                    "name": "G#4",
                    "midi": 68,
                    "time": 55,
                    "velocity": 0.4251968503937008,
                    "duration": 0.5
                },
                {
                    "name": "C4",
                    "midi": 60,
                    "time": 55,
                    "velocity": 0.2992125984251969,
                    "duration": 0.5
                },
                {
                    "name": "E4",
                    "midi": 64,
                    "time": 55.5,
                    "velocity": 0.4251968503937008,
                    "duration": 0.5
                },
                {
                    "name": "G3",
                    "midi": 55,
                    "time": 55.5,
                    "velocity": 0.2992125984251969,
                    "duration": 0.5
                },
                {
                    "name": "A3",
                    "midi": 57,
                    "time": 56,
                    "velocity": 0.2992125984251969,
                    "duration": 0.875
                },
                {
                    "name": "F4",
                    "midi": 65,
                    "time": 56,
                    "velocity": 0.4251968503937008,
                    "duration": 0.875
                },
                {
                    "name": "A4",
                    "midi": 69,
                    "time": 56.875,
                    "velocity": 0.3700787401574803,
                    "duration": 2.125
                },
                {
                    "name": "D#4",
                    "midi": 63,
                    "time": 56.875,
                    "velocity": 0.2677165354330709,
                    "duration": 2.125
                },
                {
                    "name": "A3",
                    "midi": 57,
                    "time": 56.875,
                    "velocity": 0.25196850393700787,
                    "duration": 2.125
                },
                {
                    "name": "F5",
                    "midi": 77,
                    "time": 57,
                    "velocity": 0.4566929133858268,
                    "duration": 2.875
                },
                {
                    "name": "D#4",
                    "midi": 63,
                    "time": 59,
                    "velocity": 0.2992125984251969,
                    "duration": 0.875
                },
                {
                    "name": "A#4",
                    "midi": 70,
                    "time": 59,
                    "velocity": 0.4251968503937008,
                    "duration": 0.875
                },
                {
                    "name": "A#3",
                    "midi": 58,
                    "time": 59,
                    "velocity": 0.2992125984251969,
                    "duration": 0.875
                },
                {
                    "name": "D4",
                    "midi": 62,
                    "time": 59.875,
                    "velocity": 0.2677165354330709,
                    "duration": 1.125
                },
                {
                    "name": "D#4",
                    "midi": 63,
                    "time": 59.875,
                    "velocity": 0.28346456692913385,
                    "duration": 0.125
                },
                {
                    "name": "D5",
                    "midi": 74,
                    "time": 60,
                    "velocity": 0.5433070866141733,
                    "duration": 0.75
                },
                {
                    "name": "C5",
                    "midi": 72,
                    "time": 60.75,
                    "velocity": 0.48031496062992124,
                    "duration": 0.25
                },
                {
                    "name": "C5",
                    "midi": 72,
                    "time": 61,
                    "velocity": 0.47244094488188976,
                    "duration": 2
                },
                {
                    "name": "C4",
                    "midi": 60,
                    "time": 61,
                    "velocity": 0.33858267716535434,
                    "duration": 2
                },
                {
                    "name": "D#4",
                    "midi": 63,
                    "time": 61,
                    "velocity": 0.33858267716535434,
                    "duration": 2
                },
                {
                    "name": "A#3",
                    "midi": 58,
                    "time": 63,
                    "velocity": 0.30708661417322836,
                    "duration": 1
                },
                {
                    "name": "D#4",
                    "midi": 63,
                    "time": 63,
                    "velocity": 0.30708661417322836,
                    "duration": 2
                },
                {
                    "name": "A#4",
                    "midi": 70,
                    "time": 63,
                    "velocity": 0.4409448818897638,
                    "duration": 1
                },
                {
                    "name": "A4",
                    "midi": 69,
                    "time": 64,
                    "velocity": 0.44881889763779526,
                    "duration": 1
                },
                {
                    "name": "A3",
                    "midi": 57,
                    "time": 64,
                    "velocity": 0.31496062992125984,
                    "duration": 1
                },
                {
                    "name": "D#4",
                    "midi": 63,
                    "time": 65,
                    "velocity": 0.3543307086614173,
                    "duration": 2
                },
                {
                    "name": "A#3",
                    "midi": 58,
                    "time": 65,
                    "velocity": 0.2992125984251969,
                    "duration": 1
                },
                {
                    "name": "G4",
                    "midi": 67,
                    "time": 65,
                    "velocity": 0.4251968503937008,
                    "duration": 1
                },
                {
                    "name": "F4",
                    "midi": 65,
                    "time": 66,
                    "velocity": 0.47244094488188976,
                    "duration": 0.5
                },
                {
                    "name": "C4",
                    "midi": 60,
                    "time": 66,
                    "velocity": 0.4015748031496063,
                    "duration": 3
                },
                {
                    "name": "G4",
                    "midi": 67,
                    "time": 66.5,
                    "velocity": 0.3937007874015748,
                    "duration": 0.125
                },
                {
                    "name": "F4",
                    "midi": 65,
                    "time": 66.625,
                    "velocity": 0.3543307086614173,
                    "duration": 0.125
                },
                {
                    "name": "E4",
                    "midi": 64,
                    "time": 66.75,
                    "velocity": 0.3937007874015748,
                    "duration": 0.125
                },
                {
                    "name": "F4",
                    "midi": 65,
                    "time": 66.875,
                    "velocity": 0.4094488188976378,
                    "duration": 0.125
                },
                {
                    "name": "G4",
                    "midi": 67,
                    "time": 67,
                    "velocity": 0.4645669291338583,
                    "duration": 0.75
                },
                {
                    "name": "D#4",
                    "midi": 63,
                    "time": 67.75,
                    "velocity": 0.4094488188976378,
                    "duration": 0.25
                },
                {
                    "name": "D#4",
                    "midi": 63,
                    "time": 68,
                    "velocity": 0.4566929133858268,
                    "duration": 1
                },
                {
                    "name": "D4",
                    "midi": 62,
                    "time": 69,
                    "velocity": 0.3937007874015748,
                    "duration": 5
                },
                {
                    "name": "C4",
                    "midi": 60,
                    "time": 69,
                    "velocity": 0.33070866141732286,
                    "duration": 5
                },
                {
                    "name": "A3",
                    "midi": 57,
                    "time": 69,
                    "velocity": 0.2755905511811024,
                    "duration": 2
                },
                {
                    "name": "G3",
                    "midi": 55,
                    "time": 71,
                    "velocity": 0.4251968503937008,
                    "duration": 1
                },
                {
                    "name": "F#3",
                    "midi": 54,
                    "time": 72,
                    "velocity": 0.4566929133858268,
                    "duration": 2
                },
                {
                    "name": "D5",
                    "midi": 74,
                    "time": 86,
                    "velocity": 0.44881889763779526,
                    "duration": 2
                },
                {
                    "name": "D4",
                    "midi": 62,
                    "time": 86.5,
                    "velocity": 0.2677165354330709,
                    "duration": 0.5
                },
                {
                    "name": "C4",
                    "midi": 60,
                    "time": 87,
                    "velocity": 0.3228346456692913,
                    "duration": 0.5
                },
                {
                    "name": "A#3",
                    "midi": 58,
                    "time": 87.5,
                    "velocity": 0.2677165354330709,
                    "duration": 0.5
                },
                {
                    "name": "A3",
                    "midi": 57,
                    "time": 88,
                    "velocity": 0.30708661417322836,
                    "duration": 0.5
                },
                {
                    "name": "D#5",
                    "midi": 75,
                    "time": 88,
                    "velocity": 0.44881889763779526,
                    "duration": 2
                },
                {
                    "name": "D#4",
                    "midi": 63,
                    "time": 88.5,
                    "velocity": 0.2755905511811024,
                    "duration": 0.5
                },
                {
                    "name": "C4",
                    "midi": 60,
                    "time": 89,
                    "velocity": 0.33858267716535434,
                    "duration": 0.5
                },
                {
                    "name": "A3",
                    "midi": 57,
                    "time": 89.5,
                    "velocity": 0.28346456692913385,
                    "duration": 0.5
                },
                {
                    "name": "F#3",
                    "midi": 54,
                    "time": 90,
                    "velocity": 0.36220472440944884,
                    "duration": 0.5
                },
                {
                    "name": "F#4",
                    "midi": 66,
                    "time": 90,
                    "velocity": 0.44881889763779526,
                    "duration": 2
                },
                {
                    "name": "C4",
                    "midi": 60,
                    "time": 90.5,
                    "velocity": 0.29133858267716534,
                    "duration": 0.5
                },
                {
                    "name": "A#3",
                    "midi": 58,
                    "time": 91,
                    "velocity": 0.3228346456692913,
                    "duration": 0.5
                },
                {
                    "name": "A3",
                    "midi": 57,
                    "time": 91.5,
                    "velocity": 0.2677165354330709,
                    "duration": 0.5
                },
                {
                    "name": "G4",
                    "midi": 67,
                    "time": 92,
                    "velocity": 0.44881889763779526,
                    "duration": 2
                },
                {
                    "name": "G3",
                    "midi": 55,
                    "time": 92,
                    "velocity": 0.36220472440944884,
                    "duration": 0.5
                },
                {
                    "name": "A#3",
                    "midi": 58,
                    "time": 92.5,
                    "velocity": 0.2677165354330709,
                    "duration": 0.5
                },
                {
                    "name": "G3",
                    "midi": 55,
                    "time": 93,
                    "velocity": 0.30708661417322836,
                    "duration": 0.5
                },
                {
                    "name": "D#3",
                    "midi": 51,
                    "time": 93.5,
                    "velocity": 0.2677165354330709,
                    "duration": 0.5
                },
                {
                    "name": "A4",
                    "midi": 69,
                    "time": 94,
                    "velocity": 0.44881889763779526,
                    "duration": 2
                },
                {
                    "name": "D#4",
                    "midi": 63,
                    "time": 94.5,
                    "velocity": 0.28346456692913385,
                    "duration": 0.5
                },
                {
                    "name": "D4",
                    "midi": 62,
                    "time": 95,
                    "velocity": 0.33070866141732286,
                    "duration": 0.5
                },
                {
                    "name": "C4",
                    "midi": 60,
                    "time": 95.5,
                    "velocity": 0.30708661417322836,
                    "duration": 0.5
                },
                {
                    "name": "A#4",
                    "midi": 70,
                    "time": 96,
                    "velocity": 0.44881889763779526,
                    "duration": 2
                },
                {
                    "name": "A#3",
                    "midi": 58,
                    "time": 96,
                    "velocity": 0.30708661417322836,
                    "duration": 0.5
                },
                {
                    "name": "D4",
                    "midi": 62,
                    "time": 96.5,
                    "velocity": 0.25984251968503935,
                    "duration": 0.5
                },
                {
                    "name": "A#3",
                    "midi": 58,
                    "time": 97,
                    "velocity": 0.33858267716535434,
                    "duration": 0.5
                },
                {
                    "name": "G3",
                    "midi": 55,
                    "time": 97.5,
                    "velocity": 0.28346456692913385,
                    "duration": 0.5
                },
                {
                    "name": "C#4",
                    "midi": 61,
                    "time": 98,
                    "velocity": 0.44881889763779526,
                    "duration": 2
                },
                {
                    "name": "A#3",
                    "midi": 58,
                    "time": 98.5,
                    "velocity": 0.29133858267716534,
                    "duration": 0.5
                },
                {
                    "name": "A3",
                    "midi": 57,
                    "time": 99,
                    "velocity": 0.3464566929133858,
                    "duration": 0.5
                },
                {
                    "name": "G3",
                    "midi": 55,
                    "time": 99.5,
                    "velocity": 0.28346456692913385,
                    "duration": 0.5
                },
                {
                    "name": "F#3",
                    "midi": 54,
                    "time": 100,
                    "velocity": 0.33070866141732286,
                    "duration": 0.5
                },
                {
                    "name": "D4",
                    "midi": 62,
                    "time": 100,
                    "velocity": 0.4094488188976378,
                    "duration": 2
                },
                {
                    "name": "A3",
                    "midi": 57,
                    "time": 100.5,
                    "velocity": 0.2204724409448819,
                    "duration": 0.5
                },
                {
                    "name": "F#3",
                    "midi": 54,
                    "time": 101,
                    "velocity": 0.25196850393700787,
                    "duration": 0.5
                },
                {
                    "name": "D3",
                    "midi": 50,
                    "time": 101.5,
                    "velocity": 0.23622047244094488,
                    "duration": 0.5
                },
                {
                    "name": "D4",
                    "midi": 62,
                    "time": 102,
                    "velocity": 0.3937007874015748,
                    "duration": 2
                },
                {
                    "name": "D3",
                    "midi": 50,
                    "time": 102.5,
                    "velocity": 0.25196850393700787,
                    "duration": 0.5
                },
                {
                    "name": "C3",
                    "midi": 48,
                    "time": 103,
                    "velocity": 0.2677165354330709,
                    "duration": 0.5
                },
                {
                    "name": "A#2",
                    "midi": 46,
                    "time": 103.5,
                    "velocity": 0.23622047244094488,
                    "duration": 0.5
                },
                {
                    "name": "D#4",
                    "midi": 63,
                    "time": 104,
                    "velocity": 0.3937007874015748,
                    "duration": 2
                },
                {
                    "name": "D#3",
                    "midi": 51,
                    "time": 104.5,
                    "velocity": 0.2440944881889764,
                    "duration": 0.5
                },
                {
                    "name": "A3",
                    "midi": 57,
                    "time": 105,
                    "velocity": 0.28346456692913385,
                    "duration": 0.5
                },
                {
                    "name": "C4",
                    "midi": 60,
                    "time": 105.5,
                    "velocity": 0.31496062992125984,
                    "duration": 0.5
                },
                {
                    "name": "F4",
                    "midi": 65,
                    "time": 106,
                    "velocity": 0.4251968503937008,
                    "duration": 2
                },
                {
                    "name": "F3",
                    "midi": 53,
                    "time": 106.5,
                    "velocity": 0.28346456692913385,
                    "duration": 0.5
                },
                {
                    "name": "D#3",
                    "midi": 51,
                    "time": 107,
                    "velocity": 0.3543307086614173,
                    "duration": 0.5
                },
                {
                    "name": "D3",
                    "midi": 50,
                    "time": 107.5,
                    "velocity": 0.29133858267716534,
                    "duration": 0.5
                },
                {
                    "name": "G4",
                    "midi": 67,
                    "time": 108,
                    "velocity": 0.44881889763779526,
                    "duration": 2
                },
                {
                    "name": "G3",
                    "midi": 55,
                    "time": 108.5,
                    "velocity": 0.31496062992125984,
                    "duration": 0.5
                },
                {
                    "name": "C4",
                    "midi": 60,
                    "time": 109,
                    "velocity": 0.3700787401574803,
                    "duration": 0.5
                },
                {
                    "name": "D#4",
                    "midi": 63,
                    "time": 109.5,
                    "velocity": 0.31496062992125984,
                    "duration": 0.5
                },
                {
                    "name": "A4",
                    "midi": 69,
                    "time": 110,
                    "velocity": 0.47244094488188976,
                    "duration": 2
                },
                {
                    "name": "C4",
                    "midi": 60,
                    "time": 110.5,
                    "velocity": 0.3543307086614173,
                    "duration": 0.5
                },
                {
                    "name": "A#3",
                    "midi": 58,
                    "time": 111,
                    "velocity": 0.3937007874015748,
                    "duration": 0.5
                },
                {
                    "name": "A3",
                    "midi": 57,
                    "time": 111.5,
                    "velocity": 0.33858267716535434,
                    "duration": 1.5
                },
                {
                    "name": "A#4",
                    "midi": 70,
                    "time": 112,
                    "velocity": 0.5275590551181102,
                    "duration": 1.5
                },
                {
                    "name": "A#3",
                    "midi": 58,
                    "time": 112.5,
                    "velocity": 0.30708661417322836,
                    "duration": 0.5
                },
                {
                    "name": "D#4",
                    "midi": 63,
                    "time": 113,
                    "velocity": 0.3700787401574803,
                    "duration": 0.5
                },
                {
                    "name": "G4",
                    "midi": 67,
                    "time": 113.5,
                    "velocity": 0.33858267716535434,
                    "duration": 0.5
                },
                {
                    "name": "F4",
                    "midi": 65,
                    "time": 114,
                    "velocity": 0.3937007874015748,
                    "duration": 1.5
                },
                {
                    "name": "F3",
                    "midi": 53,
                    "time": 114.5,
                    "velocity": 0.2755905511811024,
                    "duration": 0.5
                },
                {
                    "name": "C4",
                    "midi": 60,
                    "time": 115,
                    "velocity": 0.31496062992125984,
                    "duration": 0.5
                },
                {
                    "name": "D#4",
                    "midi": 63,
                    "time": 115.5,
                    "velocity": 0.2677165354330709,
                    "duration": 0.5
                },
                {
                    "name": "D4",
                    "midi": 62,
                    "time": 116,
                    "velocity": 0.3937007874015748,
                    "duration": 2
                },
                {
                    "name": "F3",
                    "midi": 53,
                    "time": 116.5,
                    "velocity": 0.2677165354330709,
                    "duration": 0.5
                },
                {
                    "name": "A#3",
                    "midi": 58,
                    "time": 117,
                    "velocity": 0.30708661417322836,
                    "duration": 0.5
                },
                {
                    "name": "D4",
                    "midi": 62,
                    "time": 117.5,
                    "velocity": 0.2677165354330709,
                    "duration": 0.5
                },
                {
                    "name": "D5",
                    "midi": 74,
                    "time": 118,
                    "velocity": 0.4330708661417323,
                    "duration": 2
                },
                {
                    "name": "D4",
                    "midi": 62,
                    "time": 118.5,
                    "velocity": 0.25196850393700787,
                    "duration": 0.5
                },
                {
                    "name": "C4",
                    "midi": 60,
                    "time": 119,
                    "velocity": 0.2677165354330709,
                    "duration": 0.5
                },
                {
                    "name": "A#3",
                    "midi": 58,
                    "time": 119.5,
                    "velocity": 0.23622047244094488,
                    "duration": 0.5
                },
                {
                    "name": "D#5",
                    "midi": 75,
                    "time": 120,
                    "velocity": 0.4330708661417323,
                    "duration": 2
                },
                {
                    "name": "D#4",
                    "midi": 63,
                    "time": 120.5,
                    "velocity": 0.2440944881889764,
                    "duration": 0.5
                },
                {
                    "name": "A4",
                    "midi": 69,
                    "time": 121,
                    "velocity": 0.28346456692913385,
                    "duration": 0.5
                },
                {
                    "name": "C5",
                    "midi": 72,
                    "time": 121.5,
                    "velocity": 0.31496062992125984,
                    "duration": 0.5
                },
                {
                    "name": "F5",
                    "midi": 77,
                    "time": 122,
                    "velocity": 0.4645669291338583,
                    "duration": 2
                },
                {
                    "name": "F4",
                    "midi": 65,
                    "time": 122.5,
                    "velocity": 0.28346456692913385,
                    "duration": 0.5
                },
                {
                    "name": "D#4",
                    "midi": 63,
                    "time": 123,
                    "velocity": 0.3543307086614173,
                    "duration": 0.5
                },
                {
                    "name": "D4",
                    "midi": 62,
                    "time": 123.5,
                    "velocity": 0.29133858267716534,
                    "duration": 0.5
                },
                {
                    "name": "G5",
                    "midi": 79,
                    "time": 124,
                    "velocity": 0.4881889763779528,
                    "duration": 2
                },
                {
                    "name": "G4",
                    "midi": 67,
                    "time": 124.5,
                    "velocity": 0.3779527559055118,
                    "duration": 0.5
                },
                {
                    "name": "C5",
                    "midi": 72,
                    "time": 125,
                    "velocity": 0.41732283464566927,
                    "duration": 0.5
                },
                {
                    "name": "D#5",
                    "midi": 75,
                    "time": 125.5,
                    "velocity": 0.3700787401574803,
                    "duration": 0.5
                },
                {
                    "name": "A5",
                    "midi": 81,
                    "time": 126,
                    "velocity": 0.5354330708661418,
                    "duration": 2
                },
                {
                    "name": "C5",
                    "midi": 72,
                    "time": 126.5,
                    "velocity": 0.3700787401574803,
                    "duration": 0.5
                },
                {
                    "name": "A#4",
                    "midi": 70,
                    "time": 127,
                    "velocity": 0.4330708661417323,
                    "duration": 0.5
                },
                {
                    "name": "A4",
                    "midi": 69,
                    "time": 127.5,
                    "velocity": 0.3700787401574803,
                    "duration": 1.5
                },
                {
                    "name": "A#5",
                    "midi": 82,
                    "time": 128,
                    "velocity": 0.5511811023622047,
                    "duration": 1.5
                },
                {
                    "name": "A#4",
                    "midi": 70,
                    "time": 128.5,
                    "velocity": 0.3543307086614173,
                    "duration": 0.5
                },
                {
                    "name": "D#5",
                    "midi": 75,
                    "time": 129,
                    "velocity": 0.4330708661417323,
                    "duration": 0.5
                },
                {
                    "name": "G5",
                    "midi": 79,
                    "time": 129.5,
                    "velocity": 0.3543307086614173,
                    "duration": 0.5
                },
                {
                    "name": "F5",
                    "midi": 77,
                    "time": 130,
                    "velocity": 0.4330708661417323,
                    "duration": 1.5
                },
                {
                    "name": "F4",
                    "midi": 65,
                    "time": 130.5,
                    "velocity": 0.2755905511811024,
                    "duration": 0.5
                },
                {
                    "name": "C5",
                    "midi": 72,
                    "time": 131,
                    "velocity": 0.31496062992125984,
                    "duration": 0.5
                },
                {
                    "name": "D#5",
                    "midi": 75,
                    "time": 131.5,
                    "velocity": 0.29133858267716534,
                    "duration": 0.5
                },
                {
                    "name": "D5",
                    "midi": 74,
                    "time": 132,
                    "velocity": 0.4330708661417323,
                    "duration": 2
                },
                {
                    "name": "F#4",
                    "midi": 66,
                    "time": 132.5,
                    "velocity": 0.2677165354330709,
                    "duration": 0.5
                },
                {
                    "name": "C5",
                    "midi": 72,
                    "time": 133,
                    "velocity": 0.30708661417322836,
                    "duration": 0.5
                },
                {
                    "name": "D5",
                    "midi": 74,
                    "time": 133.5,
                    "velocity": 0.33070866141732286,
                    "duration": 2.5
                },
                {
                    "name": "D4",
                    "midi": 62,
                    "time": 134.5,
                    "velocity": 0.23622047244094488,
                    "duration": 0.5
                },
                {
                    "name": "C4",
                    "midi": 60,
                    "time": 135,
                    "velocity": 0.28346456692913385,
                    "duration": 0.5
                },
                {
                    "name": "A#3",
                    "midi": 58,
                    "time": 135.5,
                    "velocity": 0.23622047244094488,
                    "duration": 0.5
                },
                {
                    "name": "D#5",
                    "midi": 75,
                    "time": 136,
                    "velocity": 0.4330708661417323,
                    "duration": 2
                },
                {
                    "name": "D#4",
                    "midi": 63,
                    "time": 136.5,
                    "velocity": 0.2440944881889764,
                    "duration": 0.5
                },
                {
                    "name": "C4",
                    "midi": 60,
                    "time": 137,
                    "velocity": 0.2992125984251969,
                    "duration": 0.5
                },
                {
                    "name": "A3",
                    "midi": 57,
                    "time": 137.5,
                    "velocity": 0.25196850393700787,
                    "duration": 0.5
                },
                {
                    "name": "F#4",
                    "midi": 66,
                    "time": 138,
                    "velocity": 0.41732283464566927,
                    "duration": 2
                },
                {
                    "name": "C4",
                    "midi": 60,
                    "time": 138.5,
                    "velocity": 0.25984251968503935,
                    "duration": 0.5
                },
                {
                    "name": "A#3",
                    "midi": 58,
                    "time": 139,
                    "velocity": 0.28346456692913385,
                    "duration": 0.5
                },
                {
                    "name": "A3",
                    "midi": 57,
                    "time": 139.5,
                    "velocity": 0.23622047244094488,
                    "duration": 0.5
                },
                {
                    "name": "G3",
                    "midi": 55,
                    "time": 140,
                    "velocity": 0.3228346456692913,
                    "duration": 0.5
                },
                {
                    "name": "G4",
                    "midi": 67,
                    "time": 140,
                    "velocity": 0.41732283464566927,
                    "duration": 2
                },
                {
                    "name": "A#3",
                    "midi": 58,
                    "time": 140.5,
                    "velocity": 0.23622047244094488,
                    "duration": 0.5
                },
                {
                    "name": "G3",
                    "midi": 55,
                    "time": 141,
                    "velocity": 0.2755905511811024,
                    "duration": 0.5
                },
                {
                    "name": "D#3",
                    "midi": 51,
                    "time": 141.5,
                    "velocity": 0.23622047244094488,
                    "duration": 0.5
                },
                {
                    "name": "A4",
                    "midi": 69,
                    "time": 142,
                    "velocity": 0.41732283464566927,
                    "duration": 2
                },
                {
                    "name": "D#4",
                    "midi": 63,
                    "time": 142.5,
                    "velocity": 0.25196850393700787,
                    "duration": 0.5
                },
                {
                    "name": "D4",
                    "midi": 62,
                    "time": 143,
                    "velocity": 0.29133858267716534,
                    "duration": 0.5
                },
                {
                    "name": "C4",
                    "midi": 60,
                    "time": 143.5,
                    "velocity": 0.2755905511811024,
                    "duration": 0.5
                },
                {
                    "name": "A#3",
                    "midi": 58,
                    "time": 144,
                    "velocity": 0.2755905511811024,
                    "duration": 0.5
                },
                {
                    "name": "A#4",
                    "midi": 70,
                    "time": 144,
                    "velocity": 0.41732283464566927,
                    "duration": 2
                },
                {
                    "name": "D4",
                    "midi": 62,
                    "time": 144.5,
                    "velocity": 0.2283464566929134,
                    "duration": 0.5
                },
                {
                    "name": "A#3",
                    "midi": 58,
                    "time": 145,
                    "velocity": 0.2992125984251969,
                    "duration": 0.5
                },
                {
                    "name": "G3",
                    "midi": 55,
                    "time": 145.5,
                    "velocity": 0.25196850393700787,
                    "duration": 0.5
                },
                {
                    "name": "C#4",
                    "midi": 61,
                    "time": 146,
                    "velocity": 0.4015748031496063,
                    "duration": 2
                },
                {
                    "name": "A#3",
                    "midi": 58,
                    "time": 146.5,
                    "velocity": 0.25984251968503935,
                    "duration": 0.5
                },
                {
                    "name": "A3",
                    "midi": 57,
                    "time": 147,
                    "velocity": 0.30708661417322836,
                    "duration": 0.5
                },
                {
                    "name": "G3",
                    "midi": 55,
                    "time": 147.5,
                    "velocity": 0.25196850393700787,
                    "duration": 0.5
                },
                {
                    "name": "F#3",
                    "midi": 54,
                    "time": 148,
                    "velocity": 0.29133858267716534,
                    "duration": 0.5
                },
                {
                    "name": "D4",
                    "midi": 62,
                    "time": 148,
                    "velocity": 0.36220472440944884,
                    "duration": 2
                },
                {
                    "name": "A3",
                    "midi": 57,
                    "time": 148.5,
                    "velocity": 0.23622047244094488,
                    "duration": 0.5
                },
                {
                    "name": "F#3",
                    "midi": 54,
                    "time": 149,
                    "velocity": 0.2755905511811024,
                    "duration": 0.5
                },
                {
                    "name": "D3",
                    "midi": 50,
                    "time": 149.5,
                    "velocity": 0.23622047244094488,
                    "duration": 0.5
                },
                {
                    "name": "F4",
                    "midi": 65,
                    "time": 150,
                    "velocity": 0.4015748031496063,
                    "duration": 1
                },
                {
                    "name": "G#3",
                    "midi": 56,
                    "time": 150.5,
                    "velocity": 0.2677165354330709,
                    "duration": 0.5
                },
                {
                    "name": "G3",
                    "midi": 55,
                    "time": 151,
                    "velocity": 0.31496062992125984,
                    "duration": 0.5
                },
                {
                    "name": "D#4",
                    "midi": 63,
                    "time": 151,
                    "velocity": 0.3779527559055118,
                    "duration": 0.5
                },
                {
                    "name": "F3",
                    "midi": 53,
                    "time": 151.5,
                    "velocity": 0.2755905511811024,
                    "duration": 1.5
                },
                {
                    "name": "D4",
                    "midi": 62,
                    "time": 151.5,
                    "velocity": 0.33070866141732286,
                    "duration": 0.5
                },
                {
                    "name": "C4",
                    "midi": 60,
                    "time": 152,
                    "velocity": 0.36220472440944884,
                    "duration": 1
                },
                {
                    "name": "G3",
                    "midi": 55,
                    "time": 152.5,
                    "velocity": 0.23622047244094488,
                    "duration": 0.5
                },
                {
                    "name": "D#3",
                    "midi": 51,
                    "time": 153,
                    "velocity": 0.25196850393700787,
                    "duration": 0.5
                },
                {
                    "name": "D4",
                    "midi": 62,
                    "time": 153,
                    "velocity": 0.2992125984251969,
                    "duration": 0.5
                },
                {
                    "name": "C3",
                    "midi": 48,
                    "time": 153.5,
                    "velocity": 0.28346456692913385,
                    "duration": 0.5
                },
                {
                    "name": "D#4",
                    "midi": 63,
                    "time": 153.5,
                    "velocity": 0.33858267716535434,
                    "duration": 0.5
                },
                {
                    "name": "F4",
                    "midi": 65,
                    "time": 154,
                    "velocity": 0.36220472440944884,
                    "duration": 1
                },
                {
                    "name": "G#3",
                    "midi": 56,
                    "time": 154.5,
                    "velocity": 0.23622047244094488,
                    "duration": 0.5
                },
                {
                    "name": "D3",
                    "midi": 50,
                    "time": 155,
                    "velocity": 0.3464566929133858,
                    "duration": 0.5
                },
                {
                    "name": "F#4",
                    "midi": 66,
                    "time": 155,
                    "velocity": 0.4094488188976378,
                    "duration": 2
                },
                {
                    "name": "A#2",
                    "midi": 46,
                    "time": 155.5,
                    "velocity": 0.2440944881889764,
                    "duration": 0.5
                },
                {
                    "name": "G3",
                    "midi": 55,
                    "time": 156.5,
                    "velocity": 0.23622047244094488,
                    "duration": 0.5
                },
                {
                    "name": "D#3",
                    "midi": 51,
                    "time": 157,
                    "velocity": 0.33858267716535434,
                    "duration": 0.5
                },
                {
                    "name": "G4",
                    "midi": 67,
                    "time": 157,
                    "velocity": 0.4015748031496063,
                    "duration": 1
                },
                {
                    "name": "A#2",
                    "midi": 46,
                    "time": 157.5,
                    "velocity": 0.1968503937007874,
                    "duration": 0.5
                },
                {
                    "name": "G#4",
                    "midi": 68,
                    "time": 158,
                    "velocity": 0.4094488188976378,
                    "duration": 1
                },
                {
                    "name": "B3",
                    "midi": 59,
                    "time": 158.5,
                    "velocity": 0.18110236220472442,
                    "duration": 0.5
                },
                {
                    "name": "A#3",
                    "midi": 58,
                    "time": 159,
                    "velocity": 0.2677165354330709,
                    "duration": 0.5
                },
                {
                    "name": "G4",
                    "midi": 67,
                    "time": 159,
                    "velocity": 0.31496062992125984,
                    "duration": 0.5
                },
                {
                    "name": "G#3",
                    "midi": 56,
                    "time": 159.5,
                    "velocity": 0.2283464566929134,
                    "duration": 1.5
                },
                {
                    "name": "F4",
                    "midi": 65,
                    "time": 159.5,
                    "velocity": 0.2755905511811024,
                    "duration": 0.5
                },
                {
                    "name": "D#4",
                    "midi": 63,
                    "time": 160,
                    "velocity": 0.36220472440944884,
                    "duration": 1
                },
                {
                    "name": "A#3",
                    "midi": 58,
                    "time": 160.5,
                    "velocity": 0.2204724409448819,
                    "duration": 0.5
                },
                {
                    "name": "G3",
                    "midi": 55,
                    "time": 161,
                    "velocity": 0.2677165354330709,
                    "duration": 0.5
                },
                {
                    "name": "F4",
                    "midi": 65,
                    "time": 161,
                    "velocity": 0.3228346456692913,
                    "duration": 0.5
                },
                {
                    "name": "D#3",
                    "midi": 51,
                    "time": 161.5,
                    "velocity": 0.2677165354330709,
                    "duration": 0.5
                },
                {
                    "name": "G4",
                    "midi": 67,
                    "time": 161.5,
                    "velocity": 0.3228346456692913,
                    "duration": 0.5
                },
                {
                    "name": "A4",
                    "midi": 69,
                    "time": 162,
                    "velocity": 0.3937007874015748,
                    "duration": 1
                },
                {
                    "name": "C4",
                    "midi": 60,
                    "time": 162.5,
                    "velocity": 0.29133858267716534,
                    "duration": 0.5
                },
                {
                    "name": "F#3",
                    "midi": 54,
                    "time": 163,
                    "velocity": 0.3543307086614173,
                    "duration": 0.5
                },
                {
                    "name": "A#4",
                    "midi": 70,
                    "time": 163,
                    "velocity": 0.4094488188976378,
                    "duration": 2
                },
                {
                    "name": "D3",
                    "midi": 50,
                    "time": 163.5,
                    "velocity": 0.2677165354330709,
                    "duration": 0.5
                },
                {
                    "name": "B3",
                    "midi": 59,
                    "time": 164.5,
                    "velocity": 0.2755905511811024,
                    "duration": 0.5
                },
                {
                    "name": "G3",
                    "midi": 55,
                    "time": 165,
                    "velocity": 0.2992125984251969,
                    "duration": 0.5
                },
                {
                    "name": "B4",
                    "midi": 71,
                    "time": 165,
                    "velocity": 0.3937007874015748,
                    "duration": 1
                },
                {
                    "name": "D3",
                    "midi": 50,
                    "time": 165.5,
                    "velocity": 0.2125984251968504,
                    "duration": 2.5
                },
                {
                    "name": "D5",
                    "midi": 74,
                    "time": 166,
                    "velocity": 0.4409448818897638,
                    "duration": 2
                },
                {
                    "name": "F4",
                    "midi": 65,
                    "time": 166.5,
                    "velocity": 0.2125984251968504,
                    "duration": 0.5
                },
                {
                    "name": "B3",
                    "midi": 59,
                    "time": 167,
                    "velocity": 0.25196850393700787,
                    "duration": 0.5
                },
                {
                    "name": "G3",
                    "midi": 55,
                    "time": 167.5,
                    "velocity": 0.2125984251968504,
                    "duration": 0.5
                },
                {
                    "name": "D#5",
                    "midi": 75,
                    "time": 168,
                    "velocity": 0.4645669291338583,
                    "duration": 2
                },
                {
                    "name": "D#4",
                    "midi": 63,
                    "time": 168.5,
                    "velocity": 0.2125984251968504,
                    "duration": 0.5
                },
                {
                    "name": "C4",
                    "midi": 60,
                    "time": 169,
                    "velocity": 0.2677165354330709,
                    "duration": 0.5
                },
                {
                    "name": "G3",
                    "midi": 55,
                    "time": 169.5,
                    "velocity": 0.2204724409448819,
                    "duration": 0.5
                },
                {
                    "name": "F#4",
                    "midi": 66,
                    "time": 170,
                    "velocity": 0.3700787401574803,
                    "duration": 2
                },
                {
                    "name": "C4",
                    "midi": 60,
                    "time": 170.5,
                    "velocity": 0.2283464566929134,
                    "duration": 0.5
                },
                {
                    "name": "A#3",
                    "midi": 58,
                    "time": 171,
                    "velocity": 0.25196850393700787,
                    "duration": 0.5
                },
                {
                    "name": "A3",
                    "midi": 57,
                    "time": 171.5,
                    "velocity": 0.2125984251968504,
                    "duration": 0.5
                },
                {
                    "name": "G4",
                    "midi": 67,
                    "time": 172,
                    "velocity": 0.3700787401574803,
                    "duration": 2
                },
                {
                    "name": "A#3",
                    "midi": 58,
                    "time": 172.5,
                    "velocity": 0.2125984251968504,
                    "duration": 0.5
                },
                {
                    "name": "G3",
                    "midi": 55,
                    "time": 173,
                    "velocity": 0.2440944881889764,
                    "duration": 0.5
                },
                {
                    "name": "D#3",
                    "midi": 51,
                    "time": 173.5,
                    "velocity": 0.2125984251968504,
                    "duration": 0.5
                },
                {
                    "name": "D3",
                    "midi": 50,
                    "time": 174,
                    "velocity": 0.2440944881889764,
                    "duration": 0.5
                },
                {
                    "name": "A4",
                    "midi": 69,
                    "time": 174,
                    "velocity": 0.3700787401574803,
                    "duration": 2
                },
                {
                    "name": "C4",
                    "midi": 60,
                    "time": 174.5,
                    "velocity": 0.2204724409448819,
                    "duration": 0.5
                },
                {
                    "name": "A3",
                    "midi": 57,
                    "time": 175,
                    "velocity": 0.25984251968503935,
                    "duration": 0.5
                },
                {
                    "name": "D3",
                    "midi": 50,
                    "time": 175.5,
                    "velocity": 0.2440944881889764,
                    "duration": 0.5
                },
                {
                    "name": "A#4",
                    "midi": 70,
                    "time": 176,
                    "velocity": 0.3700787401574803,
                    "duration": 2
                },
                {
                    "name": "A#3",
                    "midi": 58,
                    "time": 176.5,
                    "velocity": 0.2047244094488189,
                    "duration": 0.5
                },
                {
                    "name": "A3",
                    "midi": 57,
                    "time": 177,
                    "velocity": 0.2677165354330709,
                    "duration": 0.5
                },
                {
                    "name": "G3",
                    "midi": 55,
                    "time": 177.5,
                    "velocity": 0.2204724409448819,
                    "duration": 0.5
                },
                {
                    "name": "F3",
                    "midi": 53,
                    "time": 178,
                    "velocity": 0.2677165354330709,
                    "duration": 0.5
                },
                {
                    "name": "C#4",
                    "midi": 61,
                    "time": 178,
                    "velocity": 0.3543307086614173,
                    "duration": 2
                },
                {
                    "name": "E3",
                    "midi": 52,
                    "time": 178.5,
                    "velocity": 0.2283464566929134,
                    "duration": 0.5
                },
                {
                    "name": "A3",
                    "midi": 57,
                    "time": 179,
                    "velocity": 0.2755905511811024,
                    "duration": 0.5
                },
                {
                    "name": "G3",
                    "midi": 55,
                    "time": 179.5,
                    "velocity": 0.2204724409448819,
                    "duration": 1.5
                },
                {
                    "name": "D4",
                    "midi": 62,
                    "time": 180,
                    "velocity": 0.3228346456692913,
                    "duration": 1.875
                },
                {
                    "name": "A3",
                    "midi": 57,
                    "time": 180.5,
                    "velocity": 0.25196850393700787,
                    "duration": 6.5
                },
                {
                    "name": "F#3",
                    "midi": 54,
                    "time": 181,
                    "velocity": 0.2440944881889764,
                    "duration": 0.5
                },
                {
                    "name": "D3",
                    "midi": 50,
                    "time": 181.5,
                    "velocity": 0.2125984251968504,
                    "duration": 0.375
                },
                {
                    "name": "D#4",
                    "midi": 63,
                    "time": 181.875,
                    "velocity": 0.2992125984251969,
                    "duration": 5.125
                },
                {
                    "name": "A4",
                    "midi": 69,
                    "time": 182,
                    "velocity": 0.4409448818897638,
                    "duration": 5
                },
                {
                    "name": "D#4",
                    "midi": 63,
                    "time": 187,
                    "velocity": 0.2992125984251969,
                    "duration": 1
                },
                {
                    "name": "A#3",
                    "midi": 58,
                    "time": 187,
                    "velocity": 0.2992125984251969,
                    "duration": 1
                },
                {
                    "name": "A#4",
                    "midi": 70,
                    "time": 187,
                    "velocity": 0.4251968503937008,
                    "duration": 1
                },
                {
                    "name": "A#4",
                    "midi": 70,
                    "time": 188,
                    "velocity": 0.3543307086614173,
                    "duration": 1
                },
                {
                    "name": "D5",
                    "midi": 74,
                    "time": 188,
                    "velocity": 0.49606299212598426,
                    "duration": 0.75
                },
                {
                    "name": "C5",
                    "midi": 72,
                    "time": 188.75,
                    "velocity": 0.44881889763779526,
                    "duration": 0.25
                },
                {
                    "name": "C5",
                    "midi": 72,
                    "time": 189,
                    "velocity": 0.47244094488188976,
                    "duration": 2
                },
                {
                    "name": "D#4",
                    "midi": 63,
                    "time": 189,
                    "velocity": 0.33858267716535434,
                    "duration": 2
                },
                {
                    "name": "C4",
                    "midi": 60,
                    "time": 189,
                    "velocity": 0.33858267716535434,
                    "duration": 2
                },
                {
                    "name": "A#3",
                    "midi": 58,
                    "time": 191,
                    "velocity": 0.30708661417322836,
                    "duration": 1
                },
                {
                    "name": "D#4",
                    "midi": 63,
                    "time": 191,
                    "velocity": 0.30708661417322836,
                    "duration": 1
                },
                {
                    "name": "A#4",
                    "midi": 70,
                    "time": 191,
                    "velocity": 0.4409448818897638,
                    "duration": 1
                },
                {
                    "name": "D#4",
                    "midi": 63,
                    "time": 192,
                    "velocity": 0.31496062992125984,
                    "duration": 1
                },
                {
                    "name": "A4",
                    "midi": 69,
                    "time": 192,
                    "velocity": 0.44881889763779526,
                    "duration": 1
                },
                {
                    "name": "A3",
                    "midi": 57,
                    "time": 192,
                    "velocity": 0.31496062992125984,
                    "duration": 1
                },
                {
                    "name": "A#3",
                    "midi": 58,
                    "time": 193,
                    "velocity": 0.2992125984251969,
                    "duration": 1
                },
                {
                    "name": "D#4",
                    "midi": 63,
                    "time": 193,
                    "velocity": 0.3543307086614173,
                    "duration": 2
                },
                {
                    "name": "G4",
                    "midi": 67,
                    "time": 193,
                    "velocity": 0.4251968503937008,
                    "duration": 1
                },
                {
                    "name": "C4",
                    "midi": 60,
                    "time": 194,
                    "velocity": 0.4015748031496063,
                    "duration": 3
                },
                {
                    "name": "F4",
                    "midi": 65,
                    "time": 194,
                    "velocity": 0.47244094488188976,
                    "duration": 0.5
                },
                {
                    "name": "G4",
                    "midi": 67,
                    "time": 194.5,
                    "velocity": 0.3937007874015748,
                    "duration": 0.125
                },
                {
                    "name": "F4",
                    "midi": 65,
                    "time": 194.625,
                    "velocity": 0.3543307086614173,
                    "duration": 0.125
                },
                {
                    "name": "E4",
                    "midi": 64,
                    "time": 194.75,
                    "velocity": 0.3937007874015748,
                    "duration": 0.125
                },
                {
                    "name": "F4",
                    "midi": 65,
                    "time": 194.875,
                    "velocity": 0.4094488188976378,
                    "duration": 0.125
                },
                {
                    "name": "G4",
                    "midi": 67,
                    "time": 195,
                    "velocity": 0.4645669291338583,
                    "duration": 0.75
                },
                {
                    "name": "D#4",
                    "midi": 63,
                    "time": 195.75,
                    "velocity": 0.4094488188976378,
                    "duration": 0.25
                },
                {
                    "name": "D#4",
                    "midi": 63,
                    "time": 196,
                    "velocity": 0.4566929133858268,
                    "duration": 1
                },
                {
                    "name": "G#3",
                    "midi": 56,
                    "time": 197,
                    "velocity": 0.33070866141732286,
                    "duration": 2
                },
                {
                    "name": "D3",
                    "midi": 50,
                    "time": 197,
                    "velocity": 0.33070866141732286,
                    "duration": 2
                },
                {
                    "name": "D4",
                    "midi": 62,
                    "time": 197,
                    "velocity": 0.3937007874015748,
                    "duration": 2
                },
                {
                    "name": "G#3",
                    "midi": 56,
                    "time": 199,
                    "velocity": 0.2204724409448819,
                    "duration": 2
                },
                {
                    "name": "D#3",
                    "midi": 51,
                    "time": 199,
                    "velocity": 0.2204724409448819,
                    "duration": 0.875
                },
                {
                    "name": "C4",
                    "midi": 60,
                    "time": 199,
                    "velocity": 0.3228346456692913,
                    "duration": 2
                },
                {
                    "name": "G3",
                    "midi": 55,
                    "time": 200,
                    "velocity": 0.36220472440944884,
                    "duration": 0.75
                },
                {
                    "name": "F3",
                    "midi": 53,
                    "time": 200.75,
                    "velocity": 0.29133858267716534,
                    "duration": 0.25
                },
                {
                    "name": "F3",
                    "midi": 53,
                    "time": 201,
                    "velocity": 0.23622047244094488,
                    "duration": 2
                },
                {
                    "name": "G#3",
                    "midi": 56,
                    "time": 201,
                    "velocity": 0.33858267716535434,
                    "duration": 2
                },
                {
                    "name": "A#3",
                    "midi": 58,
                    "time": 201,
                    "velocity": 0.33858267716535434,
                    "duration": 4
                },
                {
                    "name": "G#3",
                    "midi": 56,
                    "time": 203,
                    "velocity": 0.2755905511811024,
                    "duration": 1
                },
                {
                    "name": "D#3",
                    "midi": 51,
                    "time": 203,
                    "velocity": 0.2283464566929134,
                    "duration": 1
                },
                {
                    "name": "G3",
                    "midi": 55,
                    "time": 204,
                    "velocity": 0.2283464566929134,
                    "duration": 1
                },
                {
                    "name": "D3",
                    "midi": 50,
                    "time": 204,
                    "velocity": 0.25984251968503935,
                    "duration": 1
                },
                {
                    "name": "A#3",
                    "midi": 58,
                    "time": 205,
                    "velocity": 0.33858267716535434,
                    "duration": 2
                },
                {
                    "name": "F3",
                    "midi": 53,
                    "time": 205,
                    "velocity": 0.2047244094488189,
                    "duration": 1
                },
                {
                    "name": "C3",
                    "midi": 48,
                    "time": 205,
                    "velocity": 0.2047244094488189,
                    "duration": 1
                },
                {
                    "name": "D#3",
                    "midi": 51,
                    "time": 206,
                    "velocity": 0.30708661417322836,
                    "duration": 0.5
                },
                {
                    "name": "A#2",
                    "midi": 46,
                    "time": 206,
                    "velocity": 0.30708661417322836,
                    "duration": 0.5
                },
                {
                    "name": "F3",
                    "midi": 53,
                    "time": 206.5,
                    "velocity": 0.28346456692913385,
                    "duration": 0.16249999999999432
                },
                {
                    "name": "C3",
                    "midi": 48,
                    "time": 206.5,
                    "velocity": 0.23622047244094488,
                    "duration": 0.16249999999999432
                },
                {
                    "name": "A#2",
                    "midi": 46,
                    "time": 206.625,
                    "velocity": 0.1968503937007874,
                    "duration": 0.16249999999999432
                },
                {
                    "name": "D#3",
                    "midi": 51,
                    "time": 206.625,
                    "velocity": 0.23622047244094488,
                    "duration": 0.16249999999999432
                },
                {
                    "name": "G#2",
                    "midi": 44,
                    "time": 206.75,
                    "velocity": 0.2440944881889764,
                    "duration": 0.16249999999999432
                },
                {
                    "name": "D3",
                    "midi": 50,
                    "time": 206.75,
                    "velocity": 0.29133858267716534,
                    "duration": 0.16249999999999432
                },
                {
                    "name": "D#3",
                    "midi": 51,
                    "time": 206.875,
                    "velocity": 0.3228346456692913,
                    "duration": 0.16249999999999432
                },
                {
                    "name": "A#2",
                    "midi": 46,
                    "time": 206.875,
                    "velocity": 0.2755905511811024,
                    "duration": 0.16249999999999432
                },
                {
                    "name": "G3",
                    "midi": 55,
                    "time": 207,
                    "velocity": 0.3937007874015748,
                    "duration": 0.75
                },
                {
                    "name": "A#3",
                    "midi": 58,
                    "time": 207,
                    "velocity": 0.33070866141732286,
                    "duration": 1
                },
                {
                    "name": "D3",
                    "midi": 50,
                    "time": 207,
                    "velocity": 0.31496062992125984,
                    "duration": 0.75
                },
                {
                    "name": "D3",
                    "midi": 50,
                    "time": 207.75,
                    "velocity": 0.2677165354330709,
                    "duration": 0.25
                },
                {
                    "name": "G#2",
                    "midi": 44,
                    "time": 207.75,
                    "velocity": 0.2677165354330709,
                    "duration": 0.25
                },
                {
                    "name": "A#2",
                    "midi": 46,
                    "time": 208,
                    "velocity": 0.25196850393700787,
                    "duration": 2
                },
                {
                    "name": "D#3",
                    "midi": 51,
                    "time": 208,
                    "velocity": 0.28346456692913385,
                    "duration": 2
                },
                {
                    "name": "A#3",
                    "midi": 58,
                    "time": 208,
                    "velocity": 0.3228346456692913,
                    "duration": 2
                },
                {
                    "name": "C#3",
                    "midi": 49,
                    "time": 210,
                    "velocity": 0.2204724409448819,
                    "duration": 2
                },
                {
                    "name": "E3",
                    "midi": 52,
                    "time": 210,
                    "velocity": 0.2204724409448819,
                    "duration": 2
                },
                {
                    "name": "A3",
                    "midi": 57,
                    "time": 210,
                    "velocity": 0.2677165354330709,
                    "duration": 2
                },
                {
                    "name": "D3",
                    "midi": 50,
                    "time": 212,
                    "velocity": 0.1889763779527559,
                    "duration": 4
                },
                {
                    "name": "F#3",
                    "midi": 54,
                    "time": 212,
                    "velocity": 0.1889763779527559,
                    "duration": 4
                },
                {
                    "name": "A3",
                    "midi": 57,
                    "time": 212,
                    "velocity": 0.2283464566929134,
                    "duration": 4
                }
            ],
            "controlChanges": {
                "91": [
                    {
                        "number": 91,
                        "time": 0,
                        "value": 1
                    },
                    {
                        "number": 91,
                        "time": 184,
                        "value": 1
                    }
                ]
            },
            "id": 1,
            "name": "Piano right",
            "instrumentNumber": 0,
            "instrument": "acoustic grand piano",
            "instrumentFamily": "piano",
            "channelNumber": 0,
            "isPercussion": false
        },
        {
            "startTime": 1,
            "duration": 216,
            "length": 230,
            "notes": [
                {
                    "name": "F3",
                    "midi": 53,
                    "time": 1,
                    "velocity": 0.29133858267716534,
                    "duration": 2
                },
                {
                    "name": "C3",
                    "midi": 48,
                    "time": 1,
                    "velocity": 0.2440944881889764,
                    "duration": 2
                },
                {
                    "name": "A#2",
                    "midi": 46,
                    "time": 3,
                    "velocity": 0.2125984251968504,
                    "duration": 2
                },
                {
                    "name": "F3",
                    "midi": 53,
                    "time": 3,
                    "velocity": 0.25196850393700787,
                    "duration": 2
                },
                {
                    "name": "A2",
                    "midi": 45,
                    "time": 5,
                    "velocity": 0.25196850393700787,
                    "duration": 2
                },
                {
                    "name": "F3",
                    "midi": 53,
                    "time": 5,
                    "velocity": 0.2992125984251969,
                    "duration": 2
                },
                {
                    "name": "A#2",
                    "midi": 46,
                    "time": 7,
                    "velocity": 0.2204724409448819,
                    "duration": 1
                },
                {
                    "name": "F3",
                    "midi": 53,
                    "time": 7,
                    "velocity": 0.25984251968503935,
                    "duration": 2
                },
                {
                    "name": "C3",
                    "midi": 48,
                    "time": 8,
                    "velocity": 0.2992125984251969,
                    "duration": 1
                },
                {
                    "name": "A#2",
                    "midi": 46,
                    "time": 9,
                    "velocity": 0.25196850393700787,
                    "duration": 1
                },
                {
                    "name": "F3",
                    "midi": 53,
                    "time": 9,
                    "velocity": 0.2125984251968504,
                    "duration": 2
                },
                {
                    "name": "A2",
                    "midi": 45,
                    "time": 10,
                    "velocity": 0.2677165354330709,
                    "duration": 1
                },
                {
                    "name": "F2",
                    "midi": 41,
                    "time": 11,
                    "velocity": 0.2992125984251969,
                    "duration": 2
                },
                {
                    "name": "A3",
                    "midi": 57,
                    "time": 11,
                    "velocity": 0.3543307086614173,
                    "duration": 2
                },
                {
                    "name": "A#2",
                    "midi": 46,
                    "time": 13,
                    "velocity": 0.25196850393700787,
                    "duration": 2
                },
                {
                    "name": "A#1",
                    "midi": 34,
                    "time": 13,
                    "velocity": 0.2125984251968504,
                    "duration": 2
                },
                {
                    "name": "C2",
                    "midi": 36,
                    "time": 15,
                    "velocity": 0.14173228346456693,
                    "duration": 0.875
                },
                {
                    "name": "C3",
                    "midi": 48,
                    "time": 15,
                    "velocity": 0.1732283464566929,
                    "duration": 0.875
                },
                {
                    "name": "D#2",
                    "midi": 39,
                    "time": 15.875,
                    "velocity": 0.2677165354330709,
                    "duration": 0.875
                },
                {
                    "name": "D#3",
                    "midi": 51,
                    "time": 16,
                    "velocity": 0.31496062992125984,
                    "duration": 0.75
                },
                {
                    "name": "D2",
                    "midi": 38,
                    "time": 16.75,
                    "velocity": 0.2204724409448819,
                    "duration": 0.25
                },
                {
                    "name": "D3",
                    "midi": 50,
                    "time": 17,
                    "velocity": 0.25196850393700787,
                    "duration": 2
                },
                {
                    "name": "D2",
                    "midi": 38,
                    "time": 17,
                    "velocity": 0.2125984251968504,
                    "duration": 2
                },
                {
                    "name": "C2",
                    "midi": 36,
                    "time": 19,
                    "velocity": 0.18110236220472442,
                    "duration": 1
                },
                {
                    "name": "C3",
                    "midi": 48,
                    "time": 19,
                    "velocity": 0.2204724409448819,
                    "duration": 1
                },
                {
                    "name": "A#2",
                    "midi": 46,
                    "time": 20,
                    "velocity": 0.2204724409448819,
                    "duration": 1
                },
                {
                    "name": "A#1",
                    "midi": 34,
                    "time": 20,
                    "velocity": 0.18110236220472442,
                    "duration": 1
                },
                {
                    "name": "G#2",
                    "midi": 44,
                    "time": 21,
                    "velocity": 0.2283464566929134,
                    "duration": 1
                },
                {
                    "name": "G#1",
                    "midi": 32,
                    "time": 21,
                    "velocity": 0.1889763779527559,
                    "duration": 1
                },
                {
                    "name": "G2",
                    "midi": 43,
                    "time": 22,
                    "velocity": 0.2677165354330709,
                    "duration": 0.5
                },
                {
                    "name": "G1",
                    "midi": 31,
                    "time": 22,
                    "velocity": 0.2204724409448819,
                    "duration": 0.5
                },
                {
                    "name": "G#2",
                    "midi": 44,
                    "time": 22.5,
                    "velocity": 0.2047244094488189,
                    "duration": 0.16250000000000142
                },
                {
                    "name": "G#1",
                    "midi": 32,
                    "time": 22.5,
                    "velocity": 0.2047244094488189,
                    "duration": 0.16250000000000142
                },
                {
                    "name": "G2",
                    "midi": 43,
                    "time": 22.625,
                    "velocity": 0.18110236220472442,
                    "duration": 0.16250000000000142
                },
                {
                    "name": "G1",
                    "midi": 31,
                    "time": 22.625,
                    "velocity": 0.18110236220472442,
                    "duration": 0.16250000000000142
                },
                {
                    "name": "F#1",
                    "midi": 30,
                    "time": 22.75,
                    "velocity": 0.2204724409448819,
                    "duration": 0.16250000000000142
                },
                {
                    "name": "F#2",
                    "midi": 42,
                    "time": 22.75,
                    "velocity": 0.2204724409448819,
                    "duration": 0.16250000000000142
                },
                {
                    "name": "G1",
                    "midi": 31,
                    "time": 22.875,
                    "velocity": 0.2283464566929134,
                    "duration": 0.16250000000000142
                },
                {
                    "name": "G2",
                    "midi": 43,
                    "time": 22.875,
                    "velocity": 0.2283464566929134,
                    "duration": 0.16250000000000142
                },
                {
                    "name": "G#1",
                    "midi": 32,
                    "time": 23,
                    "velocity": 0.2204724409448819,
                    "duration": 0.75
                },
                {
                    "name": "G#2",
                    "midi": 44,
                    "time": 23,
                    "velocity": 0.2677165354330709,
                    "duration": 0.75
                },
                {
                    "name": "F2",
                    "midi": 41,
                    "time": 23.75,
                    "velocity": 0.23622047244094488,
                    "duration": 0.25
                },
                {
                    "name": "F1",
                    "midi": 29,
                    "time": 23.75,
                    "velocity": 0.1968503937007874,
                    "duration": 0.25
                },
                {
                    "name": "F1",
                    "midi": 29,
                    "time": 24,
                    "velocity": 0.23622047244094488,
                    "duration": 0.875
                },
                {
                    "name": "F2",
                    "midi": 41,
                    "time": 24,
                    "velocity": 0.28346456692913385,
                    "duration": 0.875
                },
                {
                    "name": "G1",
                    "midi": 31,
                    "time": 24.875,
                    "velocity": 0.29133858267716534,
                    "duration": 0.125
                },
                {
                    "name": "G2",
                    "midi": 43,
                    "time": 24.875,
                    "velocity": 0.29133858267716534,
                    "duration": 0.125
                },
                {
                    "name": "F3",
                    "midi": 53,
                    "time": 25,
                    "velocity": 0.2440944881889764,
                    "duration": 2
                },
                {
                    "name": "G3",
                    "midi": 55,
                    "time": 25,
                    "velocity": 0.29133858267716534,
                    "duration": 2
                },
                {
                    "name": "G3",
                    "midi": 55,
                    "time": 27,
                    "velocity": 0.2677165354330709,
                    "duration": 1
                },
                {
                    "name": "D#3",
                    "midi": 51,
                    "time": 27,
                    "velocity": 0.2283464566929134,
                    "duration": 1
                },
                {
                    "name": "A3",
                    "midi": 57,
                    "time": 28,
                    "velocity": 0.29133858267716534,
                    "duration": 1
                },
                {
                    "name": "C3",
                    "midi": 48,
                    "time": 28,
                    "velocity": 0.2125984251968504,
                    "duration": 1
                },
                {
                    "name": "B2",
                    "midi": 47,
                    "time": 29,
                    "velocity": 0.25984251968503935,
                    "duration": 2
                },
                {
                    "name": "G3",
                    "midi": 55,
                    "time": 29,
                    "velocity": 0.30708661417322836,
                    "duration": 2
                },
                {
                    "name": "G3",
                    "midi": 55,
                    "time": 31,
                    "velocity": 0.30708661417322836,
                    "duration": 2
                },
                {
                    "name": "C3",
                    "midi": 48,
                    "time": 31,
                    "velocity": 0.25984251968503935,
                    "duration": 1
                },
                {
                    "name": "F3",
                    "midi": 53,
                    "time": 32,
                    "velocity": 0.3543307086614173,
                    "duration": 1
                },
                {
                    "name": "G3",
                    "midi": 55,
                    "time": 33,
                    "velocity": 0.2047244094488189,
                    "duration": 2
                },
                {
                    "name": "D#3",
                    "midi": 51,
                    "time": 33,
                    "velocity": 0.2992125984251969,
                    "duration": 1
                },
                {
                    "name": "D3",
                    "midi": 50,
                    "time": 34,
                    "velocity": 0.3228346456692913,
                    "duration": 1
                },
                {
                    "name": "F3",
                    "midi": 53,
                    "time": 35,
                    "velocity": 0.3543307086614173,
                    "duration": 2
                },
                {
                    "name": "B2",
                    "midi": 47,
                    "time": 35,
                    "velocity": 0.2992125984251969,
                    "duration": 2
                },
                {
                    "name": "C#3",
                    "midi": 49,
                    "time": 37,
                    "velocity": 0.25196850393700787,
                    "duration": 1.5
                },
                {
                    "name": "C#3",
                    "midi": 49,
                    "time": 38.5,
                    "velocity": 0.2992125984251969,
                    "duration": 0.2749999999999986
                },
                {
                    "name": "C3",
                    "midi": 48,
                    "time": 38.75,
                    "velocity": 0.2992125984251969,
                    "duration": 0.2749999999999986
                },
                {
                    "name": "A#2",
                    "midi": 46,
                    "time": 39,
                    "velocity": 0.2992125984251969,
                    "duration": 0.2749999999999986
                },
                {
                    "name": "C3",
                    "midi": 48,
                    "time": 39.25,
                    "velocity": 0.2992125984251969,
                    "duration": 0.2749999999999986
                },
                {
                    "name": "A#2",
                    "midi": 46,
                    "time": 39.5,
                    "velocity": 0.2992125984251969,
                    "duration": 0.2749999999999986
                },
                {
                    "name": "G#2",
                    "midi": 44,
                    "time": 39.75,
                    "velocity": 0.2992125984251969,
                    "duration": 0.2749999999999986
                },
                {
                    "name": "G2",
                    "midi": 43,
                    "time": 40,
                    "velocity": 0.2992125984251969,
                    "duration": 0.2749999999999986
                },
                {
                    "name": "G#2",
                    "midi": 44,
                    "time": 40.25,
                    "velocity": 0.2992125984251969,
                    "duration": 0.2749999999999986
                },
                {
                    "name": "G2",
                    "midi": 43,
                    "time": 40.5,
                    "velocity": 0.2992125984251969,
                    "duration": 0.2749999999999986
                },
                {
                    "name": "F2",
                    "midi": 41,
                    "time": 40.75,
                    "velocity": 0.2992125984251969,
                    "duration": 0.2749999999999986
                },
                {
                    "name": "E2",
                    "midi": 40,
                    "time": 41,
                    "velocity": 0.2992125984251969,
                    "duration": 3
                },
                {
                    "name": "F#2",
                    "midi": 42,
                    "time": 45,
                    "velocity": 0.2992125984251969,
                    "duration": 1.5
                },
                {
                    "name": "F#2",
                    "midi": 42,
                    "time": 46.5,
                    "velocity": 0.2992125984251969,
                    "duration": 0.2749999999999986
                },
                {
                    "name": "F2",
                    "midi": 41,
                    "time": 46.75,
                    "velocity": 0.2992125984251969,
                    "duration": 0.2749999999999986
                },
                {
                    "name": "D#2",
                    "midi": 39,
                    "time": 47,
                    "velocity": 0.2992125984251969,
                    "duration": 0.2749999999999986
                },
                {
                    "name": "F2",
                    "midi": 41,
                    "time": 47.25,
                    "velocity": 0.2992125984251969,
                    "duration": 0.2749999999999986
                },
                {
                    "name": "D#2",
                    "midi": 39,
                    "time": 47.5,
                    "velocity": 0.2992125984251969,
                    "duration": 0.2749999999999986
                },
                {
                    "name": "C#2",
                    "midi": 37,
                    "time": 47.75,
                    "velocity": 0.2992125984251969,
                    "duration": 0.2749999999999986
                },
                {
                    "name": "C2",
                    "midi": 36,
                    "time": 48,
                    "velocity": 0.2992125984251969,
                    "duration": 0.2749999999999986
                },
                {
                    "name": "C#2",
                    "midi": 37,
                    "time": 48.25,
                    "velocity": 0.2992125984251969,
                    "duration": 0.2749999999999986
                },
                {
                    "name": "C2",
                    "midi": 36,
                    "time": 48.5,
                    "velocity": 0.2992125984251969,
                    "duration": 0.2749999999999986
                },
                {
                    "name": "A#1",
                    "midi": 34,
                    "time": 48.75,
                    "velocity": 0.2992125984251969,
                    "duration": 0.2749999999999986
                },
                {
                    "name": "A1",
                    "midi": 33,
                    "time": 49,
                    "velocity": 0.2992125984251969,
                    "duration": 3
                },
                {
                    "name": "A1",
                    "midi": 33,
                    "time": 52,
                    "velocity": 0.2992125984251969,
                    "duration": 1
                },
                {
                    "name": "A#1",
                    "midi": 34,
                    "time": 53,
                    "velocity": 0.2992125984251969,
                    "duration": 2
                },
                {
                    "name": "C2",
                    "midi": 36,
                    "time": 55,
                    "velocity": 0.2992125984251969,
                    "duration": 1
                },
                {
                    "name": "F2",
                    "midi": 41,
                    "time": 56,
                    "velocity": 0.2992125984251969,
                    "duration": 0.875
                },
                {
                    "name": "F3",
                    "midi": 53,
                    "time": 56.875,
                    "velocity": 0.2204724409448819,
                    "duration": 2.125
                },
                {
                    "name": "C3",
                    "midi": 48,
                    "time": 56.875,
                    "velocity": 0.18110236220472442,
                    "duration": 2.125
                },
                {
                    "name": "F3",
                    "midi": 53,
                    "time": 59,
                    "velocity": 0.25196850393700787,
                    "duration": 2
                },
                {
                    "name": "A#2",
                    "midi": 46,
                    "time": 59,
                    "velocity": 0.2125984251968504,
                    "duration": 2
                },
                {
                    "name": "F3",
                    "midi": 53,
                    "time": 61,
                    "velocity": 0.2992125984251969,
                    "duration": 2
                },
                {
                    "name": "A2",
                    "midi": 45,
                    "time": 61,
                    "velocity": 0.25196850393700787,
                    "duration": 2
                },
                {
                    "name": "A#2",
                    "midi": 46,
                    "time": 63,
                    "velocity": 0.2204724409448819,
                    "duration": 1
                },
                {
                    "name": "F3",
                    "midi": 53,
                    "time": 63,
                    "velocity": 0.25984251968503935,
                    "duration": 2
                },
                {
                    "name": "C3",
                    "midi": 48,
                    "time": 64,
                    "velocity": 0.2992125984251969,
                    "duration": 1
                },
                {
                    "name": "A#2",
                    "midi": 46,
                    "time": 65,
                    "velocity": 0.25196850393700787,
                    "duration": 1
                },
                {
                    "name": "F3",
                    "midi": 53,
                    "time": 65,
                    "velocity": 0.2125984251968504,
                    "duration": 2
                },
                {
                    "name": "A2",
                    "midi": 45,
                    "time": 66,
                    "velocity": 0.3228346456692913,
                    "duration": 1
                },
                {
                    "name": "A3",
                    "midi": 57,
                    "time": 67,
                    "velocity": 0.3543307086614173,
                    "duration": 2
                },
                {
                    "name": "F2",
                    "midi": 41,
                    "time": 67,
                    "velocity": 0.2992125984251969,
                    "duration": 2
                },
                {
                    "name": "F#2",
                    "midi": 42,
                    "time": 69,
                    "velocity": 0.2125984251968504,
                    "duration": 2
                },
                {
                    "name": "D3",
                    "midi": 50,
                    "time": 69,
                    "velocity": 0.25196850393700787,
                    "duration": 5
                },
                {
                    "name": "G2",
                    "midi": 43,
                    "time": 71,
                    "velocity": 0.29133858267716534,
                    "duration": 1
                },
                {
                    "name": "A#2",
                    "midi": 46,
                    "time": 72,
                    "velocity": 0.4251968503937008,
                    "duration": 0.75
                },
                {
                    "name": "A2",
                    "midi": 45,
                    "time": 72.75,
                    "velocity": 0.33070866141732286,
                    "duration": 0.25
                },
                {
                    "name": "A2",
                    "midi": 45,
                    "time": 73,
                    "velocity": 0.3858267716535433,
                    "duration": 2
                },
                {
                    "name": "G2",
                    "midi": 43,
                    "time": 75,
                    "velocity": 0.3543307086614173,
                    "duration": 1
                },
                {
                    "name": "F#2",
                    "midi": 42,
                    "time": 76,
                    "velocity": 0.4015748031496063,
                    "duration": 1
                },
                {
                    "name": "D#2",
                    "midi": 39,
                    "time": 77,
                    "velocity": 0.3464566929133858,
                    "duration": 1
                },
                {
                    "name": "D2",
                    "midi": 38,
                    "time": 78,
                    "velocity": 0.3464566929133858,
                    "duration": 0.20000000000000284
                },
                {
                    "name": "D#2",
                    "midi": 39,
                    "time": 78.2,
                    "velocity": 0.2992125984251969,
                    "duration": 0.20000000000000284
                },
                {
                    "name": "D2",
                    "midi": 38,
                    "time": 78.4,
                    "velocity": 0.33070866141732286,
                    "duration": 0.20000000000000284
                },
                {
                    "name": "C2",
                    "midi": 36,
                    "time": 78.60000000000001,
                    "velocity": 0.2992125984251969,
                    "duration": 0.20000000000000284
                },
                {
                    "name": "D2",
                    "midi": 38,
                    "time": 78.80000000000001,
                    "velocity": 0.2992125984251969,
                    "duration": 0.20000000000000284
                },
                {
                    "name": "D#2",
                    "midi": 39,
                    "time": 79.00000000000001,
                    "velocity": 0.33070866141732286,
                    "duration": 0.75
                },
                {
                    "name": "C2",
                    "midi": 36,
                    "time": 79.75000000000001,
                    "velocity": 0.2677165354330709,
                    "duration": 0.25
                },
                {
                    "name": "A#1",
                    "midi": 34,
                    "time": 80.00000000000001,
                    "velocity": 0.25984251968503935,
                    "duration": 2
                },
                {
                    "name": "A#2",
                    "midi": 46,
                    "time": 86.00000000000001,
                    "velocity": 0.36220472440944884,
                    "duration": 2
                },
                {
                    "name": "C3",
                    "midi": 48,
                    "time": 88.00000000000001,
                    "velocity": 0.36220472440944884,
                    "duration": 2
                },
                {
                    "name": "D3",
                    "midi": 50,
                    "time": 90.00000000000001,
                    "velocity": 0.33070866141732286,
                    "duration": 2
                },
                {
                    "name": "D#3",
                    "midi": 51,
                    "time": 92.00000000000001,
                    "velocity": 0.36220472440944884,
                    "duration": 2
                },
                {
                    "name": "F#3",
                    "midi": 54,
                    "time": 94.00000000000001,
                    "velocity": 0.31496062992125984,
                    "duration": 2
                },
                {
                    "name": "G3",
                    "midi": 55,
                    "time": 96.00000000000001,
                    "velocity": 0.36220472440944884,
                    "duration": 2
                },
                {
                    "name": "E3",
                    "midi": 52,
                    "time": 98.00000000000001,
                    "velocity": 0.33070866141732286,
                    "duration": 2
                },
                {
                    "name": "D3",
                    "midi": 50,
                    "time": 100.00000000000001,
                    "velocity": 0.30708661417322836,
                    "duration": 2
                },
                {
                    "name": "A#1",
                    "midi": 34,
                    "time": 102.00000000000001,
                    "velocity": 0.2755905511811024,
                    "duration": 2
                },
                {
                    "name": "A2",
                    "midi": 45,
                    "time": 104.00000000000001,
                    "velocity": 0.31496062992125984,
                    "duration": 2
                },
                {
                    "name": "C2",
                    "midi": 36,
                    "time": 104.00000000000001,
                    "velocity": 0.31496062992125984,
                    "duration": 2
                },
                {
                    "name": "D2",
                    "midi": 38,
                    "time": 106.00000000000001,
                    "velocity": 0.3464566929133858,
                    "duration": 2
                },
                {
                    "name": "D#2",
                    "midi": 39,
                    "time": 108.00000000000001,
                    "velocity": 0.3858267716535433,
                    "duration": 2
                },
                {
                    "name": "C3",
                    "midi": 48,
                    "time": 108.00000000000001,
                    "velocity": 0.3858267716535433,
                    "duration": 2
                },
                {
                    "name": "F#2",
                    "midi": 42,
                    "time": 110.00000000000001,
                    "velocity": 0.3228346456692913,
                    "duration": 2
                },
                {
                    "name": "G2",
                    "midi": 43,
                    "time": 112.00000000000001,
                    "velocity": 0.31496062992125984,
                    "duration": 2
                },
                {
                    "name": "G3",
                    "midi": 55,
                    "time": 113.00000000000001,
                    "velocity": 0.2755905511811024,
                    "duration": 1
                },
                {
                    "name": "A2",
                    "midi": 45,
                    "time": 114.00000000000001,
                    "velocity": 0.30708661417322836,
                    "duration": 2
                },
                {
                    "name": "A#2",
                    "midi": 46,
                    "time": 116.00000000000001,
                    "velocity": 0.31496062992125984,
                    "duration": 2
                },
                {
                    "name": "A#1",
                    "midi": 34,
                    "time": 118.00000000000001,
                    "velocity": 0.2755905511811024,
                    "duration": 2
                },
                {
                    "name": "A3",
                    "midi": 57,
                    "time": 120.00000000000001,
                    "velocity": 0.31496062992125984,
                    "duration": 2
                },
                {
                    "name": "C3",
                    "midi": 48,
                    "time": 120.00000000000001,
                    "velocity": 0.31496062992125984,
                    "duration": 2
                },
                {
                    "name": "D2",
                    "midi": 38,
                    "time": 122.00000000000001,
                    "velocity": 0.3464566929133858,
                    "duration": 2
                },
                {
                    "name": "D#3",
                    "midi": 51,
                    "time": 124.00000000000001,
                    "velocity": 0.3858267716535433,
                    "duration": 2
                },
                {
                    "name": "C4",
                    "midi": 60,
                    "time": 124.00000000000001,
                    "velocity": 0.3858267716535433,
                    "duration": 2
                },
                {
                    "name": "F#3",
                    "midi": 54,
                    "time": 126.00000000000001,
                    "velocity": 0.3228346456692913,
                    "duration": 1.9999999999999858
                },
                {
                    "name": "G3",
                    "midi": 55,
                    "time": 128,
                    "velocity": 0.31496062992125984,
                    "duration": 2
                },
                {
                    "name": "G4",
                    "midi": 67,
                    "time": 129,
                    "velocity": 0.2992125984251969,
                    "duration": 1
                },
                {
                    "name": "A3",
                    "midi": 57,
                    "time": 130,
                    "velocity": 0.30708661417322836,
                    "duration": 4
                },
                {
                    "name": "F4",
                    "midi": 65,
                    "time": 130.5,
                    "velocity": 0.2755905511811024,
                    "duration": 1
                },
                {
                    "name": "D#4",
                    "midi": 63,
                    "time": 131.5,
                    "velocity": 0.2755905511811024,
                    "duration": 0.5
                },
                {
                    "name": "D4",
                    "midi": 62,
                    "time": 132,
                    "velocity": 0.31496062992125984,
                    "duration": 2
                },
                {
                    "name": "A#2",
                    "midi": 46,
                    "time": 134,
                    "velocity": 0.3228346456692913,
                    "duration": 2
                },
                {
                    "name": "C3",
                    "midi": 48,
                    "time": 136,
                    "velocity": 0.3228346456692913,
                    "duration": 2
                },
                {
                    "name": "A3",
                    "midi": 57,
                    "time": 136,
                    "velocity": 0.3228346456692913,
                    "duration": 1.4916666666666742
                },
                {
                    "name": "D3",
                    "midi": 50,
                    "time": 138,
                    "velocity": 0.29133858267716534,
                    "duration": 2
                },
                {
                    "name": "D#3",
                    "midi": 51,
                    "time": 140,
                    "velocity": 0.3228346456692913,
                    "duration": 1.4916666666666742
                },
                {
                    "name": "F#3",
                    "midi": 54,
                    "time": 142,
                    "velocity": 0.28346456692913385,
                    "duration": 2
                },
                {
                    "name": "G3",
                    "midi": 55,
                    "time": 144,
                    "velocity": 0.3228346456692913,
                    "duration": 1.4916666666666742
                },
                {
                    "name": "E3",
                    "midi": 52,
                    "time": 146,
                    "velocity": 0.29133858267716534,
                    "duration": 2
                },
                {
                    "name": "D3",
                    "midi": 50,
                    "time": 148,
                    "velocity": 0.2755905511811024,
                    "duration": 1.4916666666666742
                },
                {
                    "name": "B2",
                    "midi": 47,
                    "time": 150,
                    "velocity": 0.2755905511811024,
                    "duration": 2
                },
                {
                    "name": "C3",
                    "midi": 48,
                    "time": 152,
                    "velocity": 0.2755905511811024,
                    "duration": 2
                },
                {
                    "name": "A#2",
                    "midi": 46,
                    "time": 154,
                    "velocity": 0.3543307086614173,
                    "duration": 2
                },
                {
                    "name": "D#2",
                    "midi": 39,
                    "time": 156,
                    "velocity": 0.3858267716535433,
                    "duration": 2
                },
                {
                    "name": "D#2",
                    "midi": 39,
                    "time": 158,
                    "velocity": 0.2755905511811024,
                    "duration": 2
                },
                {
                    "name": "D#3",
                    "midi": 51,
                    "time": 160,
                    "velocity": 0.2755905511811024,
                    "duration": 2
                },
                {
                    "name": "D3",
                    "midi": 50,
                    "time": 162,
                    "velocity": 0.31496062992125984,
                    "duration": 2
                },
                {
                    "name": "G2",
                    "midi": 43,
                    "time": 164,
                    "velocity": 0.3779527559055118,
                    "duration": 2
                },
                {
                    "name": "C2",
                    "midi": 36,
                    "time": 166,
                    "velocity": 0.28346456692913385,
                    "duration": 4
                },
                {
                    "name": "D3",
                    "midi": 50,
                    "time": 170,
                    "velocity": 0.25984251968503935,
                    "duration": 2
                },
                {
                    "name": "D#3",
                    "midi": 51,
                    "time": 172,
                    "velocity": 0.28346456692913385,
                    "duration": 2
                },
                {
                    "name": "F#2",
                    "midi": 42,
                    "time": 174,
                    "velocity": 0.25196850393700787,
                    "duration": 2
                },
                {
                    "name": "G2",
                    "midi": 43,
                    "time": 176,
                    "velocity": 0.28346456692913385,
                    "duration": 2
                },
                {
                    "name": "A2",
                    "midi": 45,
                    "time": 178,
                    "velocity": 0.25984251968503935,
                    "duration": 2
                },
                {
                    "name": "D3",
                    "midi": 50,
                    "time": 180,
                    "velocity": 0.2440944881889764,
                    "duration": 2
                },
                {
                    "name": "F#3",
                    "midi": 54,
                    "time": 182,
                    "velocity": 0.29133858267716534,
                    "duration": 1.875
                },
                {
                    "name": "C3",
                    "midi": 48,
                    "time": 182,
                    "velocity": 0.2440944881889764,
                    "duration": 5
                },
                {
                    "name": "F3",
                    "midi": 53,
                    "time": 183.875,
                    "velocity": 0.3464566929133858,
                    "duration": 3
                },
                {
                    "name": "F3",
                    "midi": 53,
                    "time": 187,
                    "velocity": 0.25196850393700787,
                    "duration": 2
                },
                {
                    "name": "A#2",
                    "midi": 46,
                    "time": 187,
                    "velocity": 0.2125984251968504,
                    "duration": 2
                },
                {
                    "name": "A2",
                    "midi": 45,
                    "time": 189,
                    "velocity": 0.25196850393700787,
                    "duration": 2
                },
                {
                    "name": "F3",
                    "midi": 53,
                    "time": 189,
                    "velocity": 0.2992125984251969,
                    "duration": 2
                },
                {
                    "name": "A#2",
                    "midi": 46,
                    "time": 191,
                    "velocity": 0.2204724409448819,
                    "duration": 1
                },
                {
                    "name": "F3",
                    "midi": 53,
                    "time": 191,
                    "velocity": 0.25984251968503935,
                    "duration": 2
                },
                {
                    "name": "C3",
                    "midi": 48,
                    "time": 192,
                    "velocity": 0.2992125984251969,
                    "duration": 1
                },
                {
                    "name": "A#2",
                    "midi": 46,
                    "time": 193,
                    "velocity": 0.25196850393700787,
                    "duration": 1
                },
                {
                    "name": "F3",
                    "midi": 53,
                    "time": 193,
                    "velocity": 0.2125984251968504,
                    "duration": 2
                },
                {
                    "name": "A2",
                    "midi": 45,
                    "time": 194,
                    "velocity": 0.3228346456692913,
                    "duration": 1
                },
                {
                    "name": "F2",
                    "midi": 41,
                    "time": 195,
                    "velocity": 0.2992125984251969,
                    "duration": 2
                },
                {
                    "name": "A3",
                    "midi": 57,
                    "time": 195,
                    "velocity": 0.3543307086614173,
                    "duration": 2
                },
                {
                    "name": "A#2",
                    "midi": 46,
                    "time": 197,
                    "velocity": 0.2992125984251969,
                    "duration": 2
                },
                {
                    "name": "A#1",
                    "midi": 34,
                    "time": 197,
                    "velocity": 0.25196850393700787,
                    "duration": 2
                },
                {
                    "name": "C2",
                    "midi": 36,
                    "time": 199,
                    "velocity": 0.1732283464566929,
                    "duration": 1
                },
                {
                    "name": "C3",
                    "midi": 48,
                    "time": 199,
                    "velocity": 0.2047244094488189,
                    "duration": 1
                },
                {
                    "name": "D#2",
                    "midi": 39,
                    "time": 200,
                    "velocity": 0.2677165354330709,
                    "duration": 0.75
                },
                {
                    "name": "D#3",
                    "midi": 51,
                    "time": 200,
                    "velocity": 0.31496062992125984,
                    "duration": 0.75
                },
                {
                    "name": "D3",
                    "midi": 50,
                    "time": 200.75,
                    "velocity": 0.2204724409448819,
                    "duration": 0.25
                },
                {
                    "name": "D2",
                    "midi": 38,
                    "time": 200.75,
                    "velocity": 0.15748031496062992,
                    "duration": 0.25
                },
                {
                    "name": "D3",
                    "midi": 50,
                    "time": 201,
                    "velocity": 0.25196850393700787,
                    "duration": 2
                },
                {
                    "name": "D2",
                    "midi": 38,
                    "time": 201,
                    "velocity": 0.2125984251968504,
                    "duration": 2
                },
                {
                    "name": "C2",
                    "midi": 36,
                    "time": 203,
                    "velocity": 0.18110236220472442,
                    "duration": 1
                },
                {
                    "name": "C3",
                    "midi": 48,
                    "time": 203,
                    "velocity": 0.2204724409448819,
                    "duration": 1
                },
                {
                    "name": "A#2",
                    "midi": 46,
                    "time": 204,
                    "velocity": 0.2204724409448819,
                    "duration": 1
                },
                {
                    "name": "A#1",
                    "midi": 34,
                    "time": 204,
                    "velocity": 0.18110236220472442,
                    "duration": 1
                },
                {
                    "name": "G#2",
                    "midi": 44,
                    "time": 205,
                    "velocity": 0.1889763779527559,
                    "duration": 1
                },
                {
                    "name": "G#1",
                    "midi": 32,
                    "time": 205,
                    "velocity": 0.15748031496062992,
                    "duration": 1
                },
                {
                    "name": "G2",
                    "midi": 43,
                    "time": 206,
                    "velocity": 0.2204724409448819,
                    "duration": 0.5
                },
                {
                    "name": "G1",
                    "midi": 31,
                    "time": 206,
                    "velocity": 0.18110236220472442,
                    "duration": 0.5
                },
                {
                    "name": "G#2",
                    "midi": 44,
                    "time": 206.5,
                    "velocity": 0.18110236220472442,
                    "duration": 0.16249999999999432
                },
                {
                    "name": "G#1",
                    "midi": 32,
                    "time": 206.5,
                    "velocity": 0.14960629921259844,
                    "duration": 0.16249999999999432
                },
                {
                    "name": "G2",
                    "midi": 43,
                    "time": 206.625,
                    "velocity": 0.1732283464566929,
                    "duration": 0.16249999999999432
                },
                {
                    "name": "G1",
                    "midi": 31,
                    "time": 206.625,
                    "velocity": 0.1732283464566929,
                    "duration": 0.16249999999999432
                },
                {
                    "name": "F1",
                    "midi": 29,
                    "time": 206.75,
                    "velocity": 0.16535433070866143,
                    "duration": 0.16249999999999432
                },
                {
                    "name": "F2",
                    "midi": 41,
                    "time": 206.75,
                    "velocity": 0.1968503937007874,
                    "duration": 0.16249999999999432
                },
                {
                    "name": "G1",
                    "midi": 31,
                    "time": 206.875,
                    "velocity": 0.1732283464566929,
                    "duration": 0.16249999999999432
                },
                {
                    "name": "G2",
                    "midi": 43,
                    "time": 206.875,
                    "velocity": 0.2047244094488189,
                    "duration": 0.16249999999999432
                },
                {
                    "name": "A#1",
                    "midi": 34,
                    "time": 207,
                    "velocity": 0.1968503937007874,
                    "duration": 0.75
                },
                {
                    "name": "A#2",
                    "midi": 46,
                    "time": 207,
                    "velocity": 0.23622047244094488,
                    "duration": 0.75
                },
                {
                    "name": "F2",
                    "midi": 41,
                    "time": 207.75,
                    "velocity": 0.1889763779527559,
                    "duration": 0.25
                },
                {
                    "name": "F1",
                    "midi": 29,
                    "time": 207.75,
                    "velocity": 0.16535433070866143,
                    "duration": 0.25
                },
                {
                    "name": "G1",
                    "midi": 31,
                    "time": 208,
                    "velocity": 0.18110236220472442,
                    "duration": 2
                },
                {
                    "name": "G2",
                    "midi": 43,
                    "time": 208,
                    "velocity": 0.2440944881889764,
                    "duration": 2
                },
                {
                    "name": "A1",
                    "midi": 33,
                    "time": 210,
                    "velocity": 0.16535433070866143,
                    "duration": 2
                },
                {
                    "name": "A2",
                    "midi": 45,
                    "time": 210,
                    "velocity": 0.1968503937007874,
                    "duration": 2
                },
                {
                    "name": "D1",
                    "midi": 26,
                    "time": 212,
                    "velocity": 0.13385826771653545,
                    "duration": 4
                },
                {
                    "name": "A1",
                    "midi": 33,
                    "time": 212,
                    "velocity": 0.13385826771653545,
                    "duration": 4
                },
                {
                    "name": "D2",
                    "midi": 38,
                    "time": 212,
                    "velocity": 0.15748031496062992,
                    "duration": 4
                }
            ],
            "controlChanges": {},
            "id": 2,
            "name": "Piano left",
            "instrumentNumber": 0,
            "instrument": "acoustic grand piano",
            "instrumentFamily": "piano",
            "channelNumber": 0,
            "isPercussion": false
        },
        {
            "startTime": 0,
            "duration": 0,
            "length": 0,
            "notes": [],
            "controlChanges": {
                "64": [
                    {
                        "number": 64,
                        "time": 1.075,
                        "value": 1
                    },
                    {
                        "number": 64,
                        "time": 3.0416666666666665,
                        "value": 0
                    },
                    {
                        "number": 64,
                        "time": 3.2958333333333334,
                        "value": 1
                    },
                    {
                        "number": 64,
                        "time": 5.041666666666667,
                        "value": 0
                    },
                    {
                        "number": 64,
                        "time": 5.429166666666667,
                        "value": 1
                    },
                    {
                        "number": 64,
                        "time": 7.045833333333334,
                        "value": 0
                    },
                    {
                        "number": 64,
                        "time": 7.2666666666666675,
                        "value": 1
                    },
                    {
                        "number": 64,
                        "time": 8.045833333333334,
                        "value": 0
                    },
                    {
                        "number": 64,
                        "time": 8.129166666666668,
                        "value": 1
                    },
                    {
                        "number": 64,
                        "time": 9.037500000000001,
                        "value": 0
                    },
                    {
                        "number": 64,
                        "time": 9.108333333333334,
                        "value": 1
                    },
                    {
                        "number": 64,
                        "time": 10.041666666666668,
                        "value": 0
                    },
                    {
                        "number": 64,
                        "time": 10.283333333333335,
                        "value": 1
                    },
                    {
                        "number": 64,
                        "time": 11.037500000000001,
                        "value": 0
                    },
                    {
                        "number": 64,
                        "time": 11.195833333333335,
                        "value": 1
                    },
                    {
                        "number": 64,
                        "time": 12.020833333333334,
                        "value": 0
                    },
                    {
                        "number": 64,
                        "time": 12.15,
                        "value": 1
                    },
                    {
                        "number": 64,
                        "time": 13.033333333333333,
                        "value": 0
                    },
                    {
                        "number": 64,
                        "time": 13.1375,
                        "value": 1
                    },
                    {
                        "number": 64,
                        "time": 15.045833333333333,
                        "value": 0
                    },
                    {
                        "number": 64,
                        "time": 15.1625,
                        "value": 1
                    },
                    {
                        "number": 64,
                        "time": 17.0375,
                        "value": 0
                    },
                    {
                        "number": 64,
                        "time": 17.345833333333335,
                        "value": 1
                    },
                    {
                        "number": 64,
                        "time": 19.05,
                        "value": 0
                    },
                    {
                        "number": 64,
                        "time": 19.170833333333334,
                        "value": 1
                    },
                    {
                        "number": 64,
                        "time": 20.025000000000002,
                        "value": 0
                    },
                    {
                        "number": 64,
                        "time": 20.212500000000002,
                        "value": 1
                    },
                    {
                        "number": 64,
                        "time": 21.0375,
                        "value": 0
                    },
                    {
                        "number": 64,
                        "time": 21.129166666666666,
                        "value": 1
                    },
                    {
                        "number": 64,
                        "time": 22.045833333333334,
                        "value": 0
                    },
                    {
                        "number": 64,
                        "time": 22.158333333333335,
                        "value": 1
                    },
                    {
                        "number": 64,
                        "time": 22.520833333333336,
                        "value": 0
                    },
                    {
                        "number": 64,
                        "time": 23.14166666666667,
                        "value": 1
                    },
                    {
                        "number": 64,
                        "time": 24.058333333333337,
                        "value": 0
                    },
                    {
                        "number": 64,
                        "time": 25.333333333333336,
                        "value": 1
                    },
                    {
                        "number": 64,
                        "time": 27.041666666666668,
                        "value": 0
                    },
                    {
                        "number": 64,
                        "time": 27.295833333333334,
                        "value": 1
                    },
                    {
                        "number": 64,
                        "time": 29.041666666666668,
                        "value": 0
                    },
                    {
                        "number": 64,
                        "time": 29.429166666666667,
                        "value": 1
                    },
                    {
                        "number": 64,
                        "time": 31.045833333333334,
                        "value": 0
                    },
                    {
                        "number": 64,
                        "time": 31.26666666666667,
                        "value": 1
                    },
                    {
                        "number": 64,
                        "time": 32.045833333333334,
                        "value": 0
                    },
                    {
                        "number": 64,
                        "time": 32.12916666666667,
                        "value": 1
                    },
                    {
                        "number": 64,
                        "time": 33.0375,
                        "value": 0
                    },
                    {
                        "number": 64,
                        "time": 33.25,
                        "value": 1
                    },
                    {
                        "number": 64,
                        "time": 34.041666666666664,
                        "value": 0
                    },
                    {
                        "number": 64,
                        "time": 34.28333333333333,
                        "value": 1
                    },
                    {
                        "number": 64,
                        "time": 35.0375,
                        "value": 0
                    },
                    {
                        "number": 64,
                        "time": 35.19583333333333,
                        "value": 1
                    },
                    {
                        "number": 64,
                        "time": 36.020833333333336,
                        "value": 0
                    },
                    {
                        "number": 64,
                        "time": 36.150000000000006,
                        "value": 1
                    },
                    {
                        "number": 64,
                        "time": 37.03333333333334,
                        "value": 0
                    },
                    {
                        "number": 64,
                        "time": 37.1375,
                        "value": 1
                    },
                    {
                        "number": 64,
                        "time": 38.50833333333333,
                        "value": 0
                    },
                    {
                        "number": 64,
                        "time": 57.35416666666667,
                        "value": 1
                    },
                    {
                        "number": 64,
                        "time": 59.04166666666667,
                        "value": 0
                    },
                    {
                        "number": 64,
                        "time": 59.29583333333334,
                        "value": 1
                    },
                    {
                        "number": 64,
                        "time": 61.04166666666667,
                        "value": 0
                    },
                    {
                        "number": 64,
                        "time": 61.429166666666674,
                        "value": 1
                    },
                    {
                        "number": 64,
                        "time": 63.04583333333334,
                        "value": 0
                    },
                    {
                        "number": 64,
                        "time": 63.26666666666667,
                        "value": 1
                    },
                    {
                        "number": 64,
                        "time": 64.04583333333333,
                        "value": 0
                    },
                    {
                        "number": 64,
                        "time": 64.12916666666666,
                        "value": 1
                    },
                    {
                        "number": 64,
                        "time": 65.0375,
                        "value": 0
                    },
                    {
                        "number": 64,
                        "time": 65.24583333333332,
                        "value": 1
                    },
                    {
                        "number": 64,
                        "time": 66.04166666666666,
                        "value": 0
                    },
                    {
                        "number": 64,
                        "time": 66.28333333333332,
                        "value": 1
                    },
                    {
                        "number": 64,
                        "time": 67.03749999999998,
                        "value": 0
                    },
                    {
                        "number": 64,
                        "time": 67.19583333333331,
                        "value": 1
                    },
                    {
                        "number": 64,
                        "time": 68.02083333333331,
                        "value": 0
                    },
                    {
                        "number": 64,
                        "time": 68.14999999999998,
                        "value": 1
                    },
                    {
                        "number": 64,
                        "time": 69.03333333333332,
                        "value": 0
                    },
                    {
                        "number": 64,
                        "time": 69.13749999999999,
                        "value": 1
                    },
                    {
                        "number": 64,
                        "time": 71.04583333333332,
                        "value": 0
                    },
                    {
                        "number": 64,
                        "time": 71.16249999999998,
                        "value": 1
                    },
                    {
                        "number": 64,
                        "time": 71.99999999999999,
                        "value": 0
                    },
                    {
                        "number": 64,
                        "time": 72.24999999999999,
                        "value": 1
                    },
                    {
                        "number": 64,
                        "time": 75.07916666666665,
                        "value": 0
                    },
                    {
                        "number": 64,
                        "time": 86.11666666666665,
                        "value": 0
                    },
                    {
                        "number": 64,
                        "time": 86.52916666666664,
                        "value": 1
                    },
                    {
                        "number": 64,
                        "time": 88.02916666666664,
                        "value": 0
                    },
                    {
                        "number": 64,
                        "time": 88.3333333333333,
                        "value": 1
                    },
                    {
                        "number": 64,
                        "time": 90.02499999999996,
                        "value": 0
                    },
                    {
                        "number": 64,
                        "time": 90.31249999999996,
                        "value": 1
                    },
                    {
                        "number": 64,
                        "time": 92.02916666666663,
                        "value": 0
                    },
                    {
                        "number": 64,
                        "time": 92.3833333333333,
                        "value": 1
                    },
                    {
                        "number": 64,
                        "time": 94.0583333333333,
                        "value": 0
                    },
                    {
                        "number": 64,
                        "time": 94.40416666666663,
                        "value": 1
                    },
                    {
                        "number": 64,
                        "time": 96.02916666666663,
                        "value": 0
                    },
                    {
                        "number": 64,
                        "time": 96.31249999999996,
                        "value": 1
                    },
                    {
                        "number": 64,
                        "time": 98.04583333333329,
                        "value": 0
                    },
                    {
                        "number": 64,
                        "time": 98.3833333333333,
                        "value": 1
                    },
                    {
                        "number": 64,
                        "time": 100.03749999999997,
                        "value": 0
                    },
                    {
                        "number": 64,
                        "time": 100.40416666666663,
                        "value": 1
                    },
                    {
                        "number": 64,
                        "time": 102.04166666666663,
                        "value": 0
                    },
                    {
                        "number": 64,
                        "time": 102.3833333333333,
                        "value": 1
                    },
                    {
                        "number": 64,
                        "time": 104.0583333333333,
                        "value": 0
                    },
                    {
                        "number": 64,
                        "time": 104.32499999999996,
                        "value": 1
                    },
                    {
                        "number": 64,
                        "time": 106.04583333333329,
                        "value": 0
                    },
                    {
                        "number": 64,
                        "time": 106.47083333333329,
                        "value": 1
                    },
                    {
                        "number": 64,
                        "time": 108.04999999999995,
                        "value": 0
                    },
                    {
                        "number": 64,
                        "time": 108.47083333333329,
                        "value": 1
                    },
                    {
                        "number": 64,
                        "time": 110.04583333333329,
                        "value": 0
                    },
                    {
                        "number": 64,
                        "time": 110.49999999999996,
                        "value": 1
                    },
                    {
                        "number": 64,
                        "time": 112.04583333333329,
                        "value": 0
                    },
                    {
                        "number": 64,
                        "time": 112.41249999999995,
                        "value": 1
                    },
                    {
                        "number": 64,
                        "time": 114.04999999999995,
                        "value": 0
                    },
                    {
                        "number": 64,
                        "time": 114.35416666666661,
                        "value": 1
                    },
                    {
                        "number": 64,
                        "time": 116.05833333333328,
                        "value": 0
                    },
                    {
                        "number": 64,
                        "time": 116.38333333333328,
                        "value": 1
                    },
                    {
                        "number": 64,
                        "time": 118.04166666666661,
                        "value": 0
                    },
                    {
                        "number": 64,
                        "time": 118.38333333333328,
                        "value": 1
                    },
                    {
                        "number": 64,
                        "time": 120.05833333333328,
                        "value": 0
                    },
                    {
                        "number": 64,
                        "time": 120.32499999999995,
                        "value": 1
                    },
                    {
                        "number": 64,
                        "time": 122.04583333333328,
                        "value": 0
                    },
                    {
                        "number": 64,
                        "time": 122.47083333333327,
                        "value": 1
                    },
                    {
                        "number": 64,
                        "time": 124.04999999999994,
                        "value": 0
                    },
                    {
                        "number": 64,
                        "time": 124.47083333333327,
                        "value": 1
                    },
                    {
                        "number": 64,
                        "time": 126.04583333333328,
                        "value": 0
                    },
                    {
                        "number": 64,
                        "time": 126.49999999999994,
                        "value": 1
                    },
                    {
                        "number": 64,
                        "time": 128.04583333333326,
                        "value": 0
                    },
                    {
                        "number": 64,
                        "time": 128.41249999999994,
                        "value": 1
                    },
                    {
                        "number": 64,
                        "time": 130.04999999999993,
                        "value": 0
                    },
                    {
                        "number": 64,
                        "time": 130.3541666666666,
                        "value": 1
                    },
                    {
                        "number": 64,
                        "time": 132.05833333333328,
                        "value": 0
                    },
                    {
                        "number": 64,
                        "time": 132.38333333333327,
                        "value": 1
                    },
                    {
                        "number": 64,
                        "time": 134.1166666666666,
                        "value": 0
                    },
                    {
                        "number": 64,
                        "time": 134.52916666666658,
                        "value": 1
                    },
                    {
                        "number": 64,
                        "time": 136.02916666666658,
                        "value": 0
                    },
                    {
                        "number": 64,
                        "time": 136.33333333333326,
                        "value": 1
                    },
                    {
                        "number": 64,
                        "time": 138.02499999999992,
                        "value": 0
                    },
                    {
                        "number": 64,
                        "time": 138.31249999999991,
                        "value": 1
                    },
                    {
                        "number": 64,
                        "time": 140.02916666666658,
                        "value": 0
                    },
                    {
                        "number": 64,
                        "time": 140.38333333333324,
                        "value": 1
                    },
                    {
                        "number": 64,
                        "time": 142.05833333333325,
                        "value": 0
                    },
                    {
                        "number": 64,
                        "time": 142.40416666666658,
                        "value": 1
                    },
                    {
                        "number": 64,
                        "time": 144.02916666666658,
                        "value": 0
                    },
                    {
                        "number": 64,
                        "time": 144.31249999999991,
                        "value": 1
                    },
                    {
                        "number": 64,
                        "time": 146.04583333333323,
                        "value": 0
                    },
                    {
                        "number": 64,
                        "time": 146.38333333333324,
                        "value": 1
                    },
                    {
                        "number": 64,
                        "time": 148.0374999999999,
                        "value": 0
                    },
                    {
                        "number": 64,
                        "time": 148.40416666666658,
                        "value": 1
                    },
                    {
                        "number": 64,
                        "time": 150.04166666666657,
                        "value": 0
                    },
                    {
                        "number": 64,
                        "time": 150.42916666666656,
                        "value": 1
                    },
                    {
                        "number": 64,
                        "time": 152.02916666666655,
                        "value": 0
                    },
                    {
                        "number": 64,
                        "time": 152.3833333333332,
                        "value": 1
                    },
                    {
                        "number": 64,
                        "time": 154.05416666666653,
                        "value": 0
                    },
                    {
                        "number": 64,
                        "time": 154.3333333333332,
                        "value": 1
                    },
                    {
                        "number": 64,
                        "time": 155.01249999999987,
                        "value": 0
                    },
                    {
                        "number": 64,
                        "time": 155.3583333333332,
                        "value": 1
                    },
                    {
                        "number": 64,
                        "time": 156.02499999999986,
                        "value": 0
                    },
                    {
                        "number": 64,
                        "time": 156.3333333333332,
                        "value": 1
                    },
                    {
                        "number": 64,
                        "time": 158.04999999999987,
                        "value": 0
                    },
                    {
                        "number": 64,
                        "time": 158.5958333333332,
                        "value": 1
                    },
                    {
                        "number": 64,
                        "time": 159.99999999999986,
                        "value": 0
                    },
                    {
                        "number": 64,
                        "time": 160.31249999999986,
                        "value": 1
                    },
                    {
                        "number": 64,
                        "time": 162.04166666666652,
                        "value": 0
                    },
                    {
                        "number": 64,
                        "time": 162.38333333333318,
                        "value": 1
                    },
                    {
                        "number": 64,
                        "time": 163.04166666666652,
                        "value": 0
                    },
                    {
                        "number": 64,
                        "time": 163.47916666666652,
                        "value": 1
                    },
                    {
                        "number": 64,
                        "time": 164.1208333333332,
                        "value": 0
                    },
                    {
                        "number": 64,
                        "time": 164.47916666666652,
                        "value": 1
                    },
                    {
                        "number": 64,
                        "time": 166.1166666666665,
                        "value": 0
                    },
                    {
                        "number": 64,
                        "time": 166.5291666666665,
                        "value": 1
                    },
                    {
                        "number": 64,
                        "time": 168.0291666666665,
                        "value": 0
                    },
                    {
                        "number": 64,
                        "time": 168.33333333333317,
                        "value": 1
                    },
                    {
                        "number": 64,
                        "time": 170.02499999999984,
                        "value": 0
                    },
                    {
                        "number": 64,
                        "time": 170.31249999999983,
                        "value": 1
                    },
                    {
                        "number": 64,
                        "time": 172.0291666666665,
                        "value": 0
                    },
                    {
                        "number": 64,
                        "time": 172.38333333333316,
                        "value": 1
                    },
                    {
                        "number": 64,
                        "time": 174.05833333333317,
                        "value": 0
                    },
                    {
                        "number": 64,
                        "time": 174.4041666666665,
                        "value": 1
                    },
                    {
                        "number": 64,
                        "time": 176.0291666666665,
                        "value": 0
                    },
                    {
                        "number": 64,
                        "time": 176.31249999999983,
                        "value": 1
                    },
                    {
                        "number": 64,
                        "time": 178.04583333333315,
                        "value": 0
                    },
                    {
                        "number": 64,
                        "time": 178.38333333333316,
                        "value": 1
                    },
                    {
                        "number": 64,
                        "time": 180.03749999999982,
                        "value": 0
                    },
                    {
                        "number": 64,
                        "time": 180.4041666666665,
                        "value": 1
                    },
                    {
                        "number": 64,
                        "time": 182.07083333333316,
                        "value": 0
                    },
                    {
                        "number": 64,
                        "time": 182.6916666666665,
                        "value": 1
                    },
                    {
                        "number": 64,
                        "time": 187.0416666666665,
                        "value": 0
                    },
                    {
                        "number": 64,
                        "time": 187.29583333333315,
                        "value": 1
                    },
                    {
                        "number": 64,
                        "time": 189.0416666666665,
                        "value": 0
                    },
                    {
                        "number": 64,
                        "time": 189.42916666666648,
                        "value": 1
                    },
                    {
                        "number": 64,
                        "time": 191.04583333333315,
                        "value": 0
                    },
                    {
                        "number": 64,
                        "time": 191.26666666666648,
                        "value": 1
                    },
                    {
                        "number": 64,
                        "time": 192.04583333333315,
                        "value": 0
                    },
                    {
                        "number": 64,
                        "time": 192.1291666666665,
                        "value": 1
                    },
                    {
                        "number": 64,
                        "time": 193.03749999999982,
                        "value": 0
                    },
                    {
                        "number": 64,
                        "time": 193.10833333333315,
                        "value": 1
                    },
                    {
                        "number": 64,
                        "time": 194.0416666666665,
                        "value": 0
                    },
                    {
                        "number": 64,
                        "time": 194.28333333333316,
                        "value": 1
                    },
                    {
                        "number": 64,
                        "time": 195.03749999999982,
                        "value": 0
                    },
                    {
                        "number": 64,
                        "time": 195.19583333333316,
                        "value": 1
                    },
                    {
                        "number": 64,
                        "time": 196.02083333333314,
                        "value": 0
                    },
                    {
                        "number": 64,
                        "time": 196.1499999999998,
                        "value": 1
                    },
                    {
                        "number": 64,
                        "time": 197.03333333333313,
                        "value": 0
                    },
                    {
                        "number": 64,
                        "time": 197.1374999999998,
                        "value": 1
                    },
                    {
                        "number": 64,
                        "time": 199.04583333333312,
                        "value": 0
                    },
                    {
                        "number": 64,
                        "time": 199.1624999999998,
                        "value": 1
                    },
                    {
                        "number": 64,
                        "time": 201.0374999999998,
                        "value": 0
                    },
                    {
                        "number": 64,
                        "time": 201.1374999999998,
                        "value": 1
                    },
                    {
                        "number": 64,
                        "time": 203.04999999999978,
                        "value": 0
                    },
                    {
                        "number": 64,
                        "time": 203.17083333333312,
                        "value": 1
                    },
                    {
                        "number": 64,
                        "time": 204.02499999999978,
                        "value": 0
                    },
                    {
                        "number": 64,
                        "time": 204.21249999999978,
                        "value": 1
                    },
                    {
                        "number": 64,
                        "time": 205.03749999999977,
                        "value": 0
                    },
                    {
                        "number": 64,
                        "time": 205.12916666666644,
                        "value": 1
                    },
                    {
                        "number": 64,
                        "time": 206.0458333333331,
                        "value": 0
                    },
                    {
                        "number": 64,
                        "time": 206.1583333333331,
                        "value": 1
                    },
                    {
                        "number": 64,
                        "time": 206.52083333333312,
                        "value": 0
                    },
                    {
                        "number": 64,
                        "time": 207.14166666666645,
                        "value": 1
                    },
                    {
                        "number": 64,
                        "time": 208.04166666666646,
                        "value": 0
                    },
                    {
                        "number": 64,
                        "time": 208.7624999999998,
                        "value": 1
                    },
                    {
                        "number": 64,
                        "time": 210.04999999999978,
                        "value": 0
                    },
                    {
                        "number": 64,
                        "time": 210.85833333333312,
                        "value": 1
                    },
                    {
                        "number": 64,
                        "time": 212.04583333333312,
                        "value": 0
                    },
                    {
                        "number": 64,
                        "time": 212.7624999999998,
                        "value": 1
                    },
                    {
                        "number": 64,
                        "time": 218.5583333333331,
                        "value": 0
                    }
                ]
            },
            "id": 3,
            "name": "Pedale",
            "instrumentNumber": 0,
            "instrument": "acoustic grand piano",
            "instrumentFamily": "piano",
            "channelNumber": 0,
            "isPercussion": false
        },
        {
            "startTime": 0,
            "duration": 0,
            "length": 0,
            "notes": [],
            "controlChanges": {},
            "id": 4,
            "name": "Schumann: Kreisleriana No. 4"
        },
        {
            "startTime": 0,
            "duration": 0,
            "length": 0,
            "notes": [],
            "controlChanges": {},
            "id": 5,
            "name": "Copyright  2007 by Bernd Krueger"
        },
        {
            "startTime": 0,
            "duration": 0,
            "length": 0,
            "notes": [],
            "controlChanges": {},
            "id": 6,
            "name": "http://www.piano-midi.de/"
        },
        {
            "startTime": 0,
            "duration": 0,
            "length": 0,
            "notes": [],
            "controlChanges": {},
            "id": 7,
            "name": "Edition: 27.3.2014"
        },
        {
            "startTime": 0,
            "duration": 0,
            "length": 0,
            "notes": [],
            "controlChanges": {},
            "id": 8,
            "name": "Spur 8"
        },
        {
            "startTime": 0,
            "duration": 0,
            "length": 0,
            "notes": [],
            "controlChanges": {},
            "id": 9,
            "name": "Spur 9"
        },
        {
            "startTime": 0,
            "duration": 0,
            "length": 0,
            "notes": [],
            "controlChanges": {},
            "id": 10,
            "name": "Spur 10"
        },
        {
            "startTime": 0,
            "duration": 0,
            "length": 0,
            "notes": [],
            "controlChanges": {},
            "id": 11,
            "name": "Spur 11"
        },
        {
            "startTime": 0,
            "duration": 0,
            "length": 0,
            "notes": [],
            "controlChanges": {},
            "id": 12,
            "name": "Spur 12"
        },
        {
            "startTime": 0,
            "duration": 0,
            "length": 0,
            "notes": [],
            "controlChanges": {},
            "id": 13,
            "name": "Spur 13"
        },
        {
            "startTime": 0,
            "duration": 0,
            "length": 0,
            "notes": [],
            "controlChanges": {},
            "id": 14,
            "name": "Spur 14"
        },
        {
            "startTime": 0,
            "duration": 0,
            "length": 0,
            "notes": [],
            "controlChanges": {},
            "id": 15,
            "name": "Spur 15"
        },
        {
            "startTime": 0,
            "duration": 0,
            "length": 0,
            "notes": [],
            "controlChanges": {},
            "id": 16,
            "name": "Spur 16"
        }
    ]
}