{
    "header": {
        "PPQ": 480,
        "timeSignature": [
            9,
            16
        ],
        "bpm": 80,
        "name": "untitled"
    },
    "startTime": 0,
    "duration": 64.125,
    "tracks": [
        {
            "startTime": 0,
            "duration": 0,
            "length": 0,
            "notes": [],
            "controlChanges": {},
            "id": 0,
            "name": "untitled"
        },
        {
            "startTime": 0,
            "duration": 64.125,
            "length": 293,
            "notes": [
                {
                    "name": "B4",
                    "midi": 71,
                    "time": 0,
                    "velocity": 0.7874015748031497,
                    "duration": 0.1875
                },
                {
                    "name": "F#4",
                    "midi": 66,
                    "time": 0.1875,
                    "velocity": 0.7874015748031497,
                    "duration": 0.1875
                },
                {
                    "name": "F#4",
                    "midi": 66,
                    "time": 0.375,
                    "velocity": 0.7874015748031497,
                    "duration": 0.1875
                },
                {
                    "name": "G4",
                    "midi": 67,
                    "time": 0.5625,
                    "velocity": 0.7874015748031497,
                    "duration": 0.1875
                },
                {
                    "name": "F#4",
                    "midi": 66,
                    "time": 0.75,
                    "velocity": 0.7874015748031497,
                    "duration": 0.1875
                },
                {
                    "name": "F#4",
                    "midi": 66,
                    "time": 0.9375,
                    "velocity": 0.7874015748031497,
                    "duration": 0.1875
                },
                {
                    "name": "B4",
                    "midi": 71,
                    "time": 1.125,
                    "velocity": 0.7874015748031497,
                    "duration": 0.1875
                },
                {
                    "name": "F#4",
                    "midi": 66,
                    "time": 1.3125,
                    "velocity": 0.7874015748031497,
                    "duration": 0.1875
                },
                {
                    "name": "F#4",
                    "midi": 66,
                    "time": 1.5,
                    "velocity": 0.7874015748031497,
                    "duration": 0.1875
                },
                {
                    "name": "C#5",
                    "midi": 73,
                    "time": 1.6875,
                    "velocity": 0.7874015748031497,
                    "duration": 0.1875
                },
                {
                    "name": "F#4",
                    "midi": 66,
                    "time": 1.875,
                    "velocity": 0.7874015748031497,
                    "duration": 0.1875
                },
                {
                    "name": "F#4",
                    "midi": 66,
                    "time": 2.0625,
                    "velocity": 0.7874015748031497,
                    "duration": 0.1875
                },
                {
                    "name": "G4",
                    "midi": 67,
                    "time": 2.25,
                    "velocity": 0.7874015748031497,
                    "duration": 0.1875
                },
                {
                    "name": "F#4",
                    "midi": 66,
                    "time": 2.4375,
                    "velocity": 0.7874015748031497,
                    "duration": 0.1875
                },
                {
                    "name": "F#4",
                    "midi": 66,
                    "time": 2.625,
                    "velocity": 0.7874015748031497,
                    "duration": 0.1875
                },
                {
                    "name": "C#5",
                    "midi": 73,
                    "time": 2.8125,
                    "velocity": 0.7874015748031497,
                    "duration": 0.1875
                },
                {
                    "name": "F#4",
                    "midi": 66,
                    "time": 3,
                    "velocity": 0.7874015748031497,
                    "duration": 0.1875
                },
                {
                    "name": "F#4",
                    "midi": 66,
                    "time": 3.1875,
                    "velocity": 0.7874015748031497,
                    "duration": 0.1875
                },
                {
                    "name": "D5",
                    "midi": 74,
                    "time": 3.375,
                    "velocity": 0.7874015748031497,
                    "duration": 0.09375
                },
                {
                    "name": "B4",
                    "midi": 71,
                    "time": 3.46875,
                    "velocity": 0.7874015748031497,
                    "duration": 0.09375
                },
                {
                    "name": "D5",
                    "midi": 74,
                    "time": 3.5625,
                    "velocity": 0.7874015748031497,
                    "duration": 0.09375
                },
                {
                    "name": "F#5",
                    "midi": 78,
                    "time": 3.65625,
                    "velocity": 0.7874015748031497,
                    "duration": 0.09375
                },
                {
                    "name": "B5",
                    "midi": 83,
                    "time": 3.75,
                    "velocity": 0.7874015748031497,
                    "duration": 0.09375
                },
                {
                    "name": "F#5",
                    "midi": 78,
                    "time": 3.84375,
                    "velocity": 0.7874015748031497,
                    "duration": 0.09375
                },
                {
                    "name": "D5",
                    "midi": 74,
                    "time": 3.9375,
                    "velocity": 0.7874015748031497,
                    "duration": 0.09375
                },
                {
                    "name": "F#5",
                    "midi": 78,
                    "time": 4.03125,
                    "velocity": 0.7874015748031497,
                    "duration": 0.09375
                },
                {
                    "name": "D5",
                    "midi": 74,
                    "time": 4.125,
                    "velocity": 0.7874015748031497,
                    "duration": 0.09375
                },
                {
                    "name": "B4",
                    "midi": 71,
                    "time": 4.21875,
                    "velocity": 0.7874015748031497,
                    "duration": 0.09375
                },
                {
                    "name": "D5",
                    "midi": 74,
                    "time": 4.3125,
                    "velocity": 0.7874015748031497,
                    "duration": 0.09375
                },
                {
                    "name": "B4",
                    "midi": 71,
                    "time": 4.40625,
                    "velocity": 0.7874015748031497,
                    "duration": 0.09375
                },
                {
                    "name": "F#4",
                    "midi": 66,
                    "time": 4.5,
                    "velocity": 0.7874015748031497,
                    "duration": 0.09375
                },
                {
                    "name": "B4",
                    "midi": 71,
                    "time": 4.59375,
                    "velocity": 0.7874015748031497,
                    "duration": 0.09375
                },
                {
                    "name": "F#4",
                    "midi": 66,
                    "time": 4.6875,
                    "velocity": 0.7874015748031497,
                    "duration": 0.09375
                },
                {
                    "name": "D4",
                    "midi": 62,
                    "time": 4.78125,
                    "velocity": 0.7874015748031497,
                    "duration": 0.09375
                },
                {
                    "name": "F#4",
                    "midi": 66,
                    "time": 4.875,
                    "velocity": 0.7874015748031497,
                    "duration": 0.09375
                },
                {
                    "name": "D4",
                    "midi": 62,
                    "time": 4.96875,
                    "velocity": 0.7874015748031497,
                    "duration": 0.09375
                },
                {
                    "name": "B3",
                    "midi": 59,
                    "time": 5.0625,
                    "velocity": 0.7874015748031497,
                    "duration": 0.1875
                },
                {
                    "name": "B4",
                    "midi": 71,
                    "time": 5.8125,
                    "velocity": 0.7874015748031497,
                    "duration": 0.1875
                },
                {
                    "name": "C#5",
                    "midi": 73,
                    "time": 6,
                    "velocity": 0.7874015748031497,
                    "duration": 0.1875
                },
                {
                    "name": "D5",
                    "midi": 74,
                    "time": 6.1875,
                    "velocity": 0.7874015748031497,
                    "duration": 0.1875
                },
                {
                    "name": "C#5",
                    "midi": 73,
                    "time": 6.375,
                    "velocity": 0.7874015748031497,
                    "duration": 0.1875
                },
                {
                    "name": "B4",
                    "midi": 71,
                    "time": 6.5625,
                    "velocity": 0.7874015748031497,
                    "duration": 0.1875
                },
                {
                    "name": "A#4",
                    "midi": 70,
                    "time": 6.75,
                    "velocity": 0.7874015748031497,
                    "duration": 0.75
                },
                {
                    "name": "B4",
                    "midi": 71,
                    "time": 7.5,
                    "velocity": 0.7874015748031497,
                    "duration": 0.1875
                },
                {
                    "name": "C#5",
                    "midi": 73,
                    "time": 7.6875,
                    "velocity": 0.7874015748031497,
                    "duration": 0.1875
                },
                {
                    "name": "B4",
                    "midi": 71,
                    "time": 7.875,
                    "velocity": 0.7874015748031497,
                    "duration": 0.1875
                },
                {
                    "name": "C#5",
                    "midi": 73,
                    "time": 8.0625,
                    "velocity": 0.7874015748031497,
                    "duration": 0.1875
                },
                {
                    "name": "A#4",
                    "midi": 70,
                    "time": 8.25,
                    "velocity": 0.7874015748031497,
                    "duration": 0.1875
                },
                {
                    "name": "B4",
                    "midi": 71,
                    "time": 8.4375,
                    "velocity": 0.7874015748031497,
                    "duration": 0.09375
                },
                {
                    "name": "F#4",
                    "midi": 66,
                    "time": 8.53125,
                    "velocity": 0.7874015748031497,
                    "duration": 0.09375
                },
                {
                    "name": "B4",
                    "midi": 71,
                    "time": 8.625,
                    "velocity": 0.7874015748031497,
                    "duration": 0.09375
                },
                {
                    "name": "D5",
                    "midi": 74,
                    "time": 8.71875,
                    "velocity": 0.7874015748031497,
                    "duration": 0.09375
                },
                {
                    "name": "F#5",
                    "midi": 78,
                    "time": 8.8125,
                    "velocity": 0.7874015748031497,
                    "duration": 0.09375
                },
                {
                    "name": "D5",
                    "midi": 74,
                    "time": 8.90625,
                    "velocity": 0.7874015748031497,
                    "duration": 0.09375
                },
                {
                    "name": "B4",
                    "midi": 71,
                    "time": 9,
                    "velocity": 0.7874015748031497,
                    "duration": 0.09375
                },
                {
                    "name": "D5",
                    "midi": 74,
                    "time": 9.09375,
                    "velocity": 0.7874015748031497,
                    "duration": 0.09375
                },
                {
                    "name": "B4",
                    "midi": 71,
                    "time": 9.1875,
                    "velocity": 0.7874015748031497,
                    "duration": 0.09375
                },
                {
                    "name": "F#4",
                    "midi": 66,
                    "time": 9.28125,
                    "velocity": 0.7874015748031497,
                    "duration": 0.09375
                },
                {
                    "name": "B4",
                    "midi": 71,
                    "time": 9.375,
                    "velocity": 0.7874015748031497,
                    "duration": 0.09375
                },
                {
                    "name": "F#4",
                    "midi": 66,
                    "time": 9.46875,
                    "velocity": 0.7874015748031497,
                    "duration": 0.09375
                },
                {
                    "name": "D4",
                    "midi": 62,
                    "time": 9.5625,
                    "velocity": 0.7874015748031497,
                    "duration": 0.09375
                },
                {
                    "name": "F#4",
                    "midi": 66,
                    "time": 9.65625,
                    "velocity": 0.7874015748031497,
                    "duration": 0.09375
                },
                {
                    "name": "D4",
                    "midi": 62,
                    "time": 9.75,
                    "velocity": 0.7874015748031497,
                    "duration": 0.09375
                },
                {
                    "name": "B3",
                    "midi": 59,
                    "time": 9.84375,
                    "velocity": 0.7874015748031497,
                    "duration": 0.09375
                },
                {
                    "name": "D4",
                    "midi": 62,
                    "time": 9.9375,
                    "velocity": 0.7874015748031497,
                    "duration": 0.09375
                },
                {
                    "name": "B3",
                    "midi": 59,
                    "time": 10.03125,
                    "velocity": 0.7874015748031497,
                    "duration": 0.09375
                },
                {
                    "name": "D5",
                    "midi": 74,
                    "time": 10.125,
                    "velocity": 0.7874015748031497,
                    "duration": 1.875
                },
                {
                    "name": "B4",
                    "midi": 71,
                    "time": 12,
                    "velocity": 0.7874015748031497,
                    "duration": 0.1875
                },
                {
                    "name": "B4",
                    "midi": 71,
                    "time": 12.1875,
                    "velocity": 0.7874015748031497,
                    "duration": 0.1875
                },
                {
                    "name": "C#5",
                    "midi": 73,
                    "time": 12.375,
                    "velocity": 0.7874015748031497,
                    "duration": 0.1875
                },
                {
                    "name": "B4",
                    "midi": 71,
                    "time": 12.5625,
                    "velocity": 0.7874015748031497,
                    "duration": 0.1875
                },
                {
                    "name": "B4",
                    "midi": 71,
                    "time": 12.75,
                    "velocity": 0.7874015748031497,
                    "duration": 0.1875
                },
                {
                    "name": "E5",
                    "midi": 76,
                    "time": 12.9375,
                    "velocity": 0.7874015748031497,
                    "duration": 0.1875
                },
                {
                    "name": "B4",
                    "midi": 71,
                    "time": 13.125,
                    "velocity": 0.7874015748031497,
                    "duration": 0.1875
                },
                {
                    "name": "B4",
                    "midi": 71,
                    "time": 13.3125,
                    "velocity": 0.7874015748031497,
                    "duration": 0.1875
                },
                {
                    "name": "C#5",
                    "midi": 73,
                    "time": 13.5,
                    "velocity": 0.7874015748031497,
                    "duration": 1.875
                },
                {
                    "name": "A4",
                    "midi": 69,
                    "time": 15.375,
                    "velocity": 0.7874015748031497,
                    "duration": 0.1875
                },
                {
                    "name": "A4",
                    "midi": 69,
                    "time": 15.5625,
                    "velocity": 0.7874015748031497,
                    "duration": 0.1875
                },
                {
                    "name": "B4",
                    "midi": 71,
                    "time": 15.75,
                    "velocity": 0.7874015748031497,
                    "duration": 0.1875
                },
                {
                    "name": "A4",
                    "midi": 69,
                    "time": 15.9375,
                    "velocity": 0.7874015748031497,
                    "duration": 0.1875
                },
                {
                    "name": "A4",
                    "midi": 69,
                    "time": 16.125,
                    "velocity": 0.7874015748031497,
                    "duration": 0.1875
                },
                {
                    "name": "D5",
                    "midi": 74,
                    "time": 16.3125,
                    "velocity": 0.7874015748031497,
                    "duration": 0.1875
                },
                {
                    "name": "A4",
                    "midi": 69,
                    "time": 16.5,
                    "velocity": 0.7874015748031497,
                    "duration": 0.1875
                },
                {
                    "name": "A4",
                    "midi": 69,
                    "time": 16.6875,
                    "velocity": 0.7874015748031497,
                    "duration": 0.1875
                },
                {
                    "name": "B4",
                    "midi": 71,
                    "time": 16.875,
                    "velocity": 0.7874015748031497,
                    "duration": 0.09375
                },
                {
                    "name": "D5",
                    "midi": 74,
                    "time": 16.96875,
                    "velocity": 0.7874015748031497,
                    "duration": 0.09375
                },
                {
                    "name": "B4",
                    "midi": 71,
                    "time": 17.0625,
                    "velocity": 0.7874015748031497,
                    "duration": 0.09375
                },
                {
                    "name": "G4",
                    "midi": 67,
                    "time": 17.15625,
                    "velocity": 0.7874015748031497,
                    "duration": 0.09375
                },
                {
                    "name": "B4",
                    "midi": 71,
                    "time": 17.25,
                    "velocity": 0.7874015748031497,
                    "duration": 0.09375
                },
                {
                    "name": "G4",
                    "midi": 67,
                    "time": 17.34375,
                    "velocity": 0.7874015748031497,
                    "duration": 0.09375
                },
                {
                    "name": "E4",
                    "midi": 64,
                    "time": 17.4375,
                    "velocity": 0.7874015748031497,
                    "duration": 0.5625
                },
                {
                    "name": "E5",
                    "midi": 76,
                    "time": 18,
                    "velocity": 0.7874015748031497,
                    "duration": 0.09375
                },
                {
                    "name": "G5",
                    "midi": 79,
                    "time": 18.09375,
                    "velocity": 0.7874015748031497,
                    "duration": 0.09375
                },
                {
                    "name": "E5",
                    "midi": 76,
                    "time": 18.1875,
                    "velocity": 0.7874015748031497,
                    "duration": 0.09375
                },
                {
                    "name": "C#5",
                    "midi": 73,
                    "time": 18.28125,
                    "velocity": 0.7874015748031497,
                    "duration": 0.09375
                },
                {
                    "name": "E5",
                    "midi": 76,
                    "time": 18.375,
                    "velocity": 0.7874015748031497,
                    "duration": 0.09375
                },
                {
                    "name": "C#5",
                    "midi": 73,
                    "time": 18.46875,
                    "velocity": 0.7874015748031497,
                    "duration": 0.09375
                },
                {
                    "name": "A4",
                    "midi": 69,
                    "time": 18.5625,
                    "velocity": 0.7874015748031497,
                    "duration": 0.09375
                },
                {
                    "name": "C#5",
                    "midi": 73,
                    "time": 18.65625,
                    "velocity": 0.7874015748031497,
                    "duration": 0.09375
                },
                {
                    "name": "A4",
                    "midi": 69,
                    "time": 18.75,
                    "velocity": 0.7874015748031497,
                    "duration": 0.09375
                },
                {
                    "name": "F#4",
                    "midi": 66,
                    "time": 18.84375,
                    "velocity": 0.7874015748031497,
                    "duration": 0.09375
                },
                {
                    "name": "A4",
                    "midi": 69,
                    "time": 18.9375,
                    "velocity": 0.7874015748031497,
                    "duration": 0.09375
                },
                {
                    "name": "F#4",
                    "midi": 66,
                    "time": 19.03125,
                    "velocity": 0.7874015748031497,
                    "duration": 0.09375
                },
                {
                    "name": "D4",
                    "midi": 62,
                    "time": 19.125,
                    "velocity": 0.7874015748031497,
                    "duration": 0.5625
                },
                {
                    "name": "D5",
                    "midi": 74,
                    "time": 19.6875,
                    "velocity": 0.7874015748031497,
                    "duration": 0.09375
                },
                {
                    "name": "F#5",
                    "midi": 78,
                    "time": 19.78125,
                    "velocity": 0.7874015748031497,
                    "duration": 0.09375
                },
                {
                    "name": "D5",
                    "midi": 74,
                    "time": 19.875,
                    "velocity": 0.7874015748031497,
                    "duration": 0.09375
                },
                {
                    "name": "B4",
                    "midi": 71,
                    "time": 19.96875,
                    "velocity": 0.7874015748031497,
                    "duration": 0.09375
                },
                {
                    "name": "D5",
                    "midi": 74,
                    "time": 20.0625,
                    "velocity": 0.7874015748031497,
                    "duration": 0.09375
                },
                {
                    "name": "B4",
                    "midi": 71,
                    "time": 20.15625,
                    "velocity": 0.7874015748031497,
                    "duration": 0.09375
                },
                {
                    "name": "G4",
                    "midi": 67,
                    "time": 20.25,
                    "velocity": 0.7874015748031497,
                    "duration": 0.09375
                },
                {
                    "name": "B4",
                    "midi": 71,
                    "time": 20.34375,
                    "velocity": 0.7874015748031497,
                    "duration": 0.09375
                },
                {
                    "name": "G4",
                    "midi": 67,
                    "time": 20.4375,
                    "velocity": 0.7874015748031497,
                    "duration": 0.09375
                },
                {
                    "name": "E4",
                    "midi": 64,
                    "time": 20.53125,
                    "velocity": 0.7874015748031497,
                    "duration": 0.09375
                },
                {
                    "name": "G4",
                    "midi": 67,
                    "time": 20.625,
                    "velocity": 0.7874015748031497,
                    "duration": 0.09375
                },
                {
                    "name": "E4",
                    "midi": 64,
                    "time": 20.71875,
                    "velocity": 0.7874015748031497,
                    "duration": 0.09375
                },
                {
                    "name": "C#4",
                    "midi": 61,
                    "time": 20.8125,
                    "velocity": 0.7874015748031497,
                    "duration": 0.09375
                },
                {
                    "name": "E4",
                    "midi": 64,
                    "time": 20.90625,
                    "velocity": 0.7874015748031497,
                    "duration": 0.09375
                },
                {
                    "name": "C#4",
                    "midi": 61,
                    "time": 21,
                    "velocity": 0.7874015748031497,
                    "duration": 0.09375
                },
                {
                    "name": "A3",
                    "midi": 57,
                    "time": 21.09375,
                    "velocity": 0.7874015748031497,
                    "duration": 0.09375
                },
                {
                    "name": "C#4",
                    "midi": 61,
                    "time": 21.1875,
                    "velocity": 0.7874015748031497,
                    "duration": 0.09375
                },
                {
                    "name": "A3",
                    "midi": 57,
                    "time": 21.28125,
                    "velocity": 0.7874015748031497,
                    "duration": 0.09375
                },
                {
                    "name": "A4",
                    "midi": 69,
                    "time": 21.375,
                    "velocity": 0.7874015748031497,
                    "duration": 0.1875
                },
                {
                    "name": "F#4",
                    "midi": 66,
                    "time": 21.5625,
                    "velocity": 0.7874015748031497,
                    "duration": 0.1875
                },
                {
                    "name": "G4",
                    "midi": 67,
                    "time": 21.75,
                    "velocity": 0.7874015748031497,
                    "duration": 0.1875
                },
                {
                    "name": "F#4",
                    "midi": 66,
                    "time": 21.9375,
                    "velocity": 0.7874015748031497,
                    "duration": 0.5625
                },
                {
                    "name": "A4",
                    "midi": 69,
                    "time": 27,
                    "velocity": 0.7874015748031497,
                    "duration": 0.1875
                },
                {
                    "name": "E4",
                    "midi": 64,
                    "time": 27.1875,
                    "velocity": 0.7874015748031497,
                    "duration": 0.1875
                },
                {
                    "name": "E4",
                    "midi": 64,
                    "time": 27.375,
                    "velocity": 0.7874015748031497,
                    "duration": 0.1875
                },
                {
                    "name": "F#4",
                    "midi": 66,
                    "time": 27.5625,
                    "velocity": 0.7874015748031497,
                    "duration": 0.1875
                },
                {
                    "name": "E4",
                    "midi": 64,
                    "time": 27.75,
                    "velocity": 0.7874015748031497,
                    "duration": 0.1875
                },
                {
                    "name": "E4",
                    "midi": 64,
                    "time": 27.9375,
                    "velocity": 0.7874015748031497,
                    "duration": 0.1875
                },
                {
                    "name": "A4",
                    "midi": 69,
                    "time": 28.125,
                    "velocity": 0.7874015748031497,
                    "duration": 0.1875
                },
                {
                    "name": "E4",
                    "midi": 64,
                    "time": 28.3125,
                    "velocity": 0.7874015748031497,
                    "duration": 0.1875
                },
                {
                    "name": "E4",
                    "midi": 64,
                    "time": 28.5,
                    "velocity": 0.7874015748031497,
                    "duration": 0.1875
                },
                {
                    "name": "B4",
                    "midi": 71,
                    "time": 28.6875,
                    "velocity": 0.7874015748031497,
                    "duration": 0.1875
                },
                {
                    "name": "E4",
                    "midi": 64,
                    "time": 28.875,
                    "velocity": 0.7874015748031497,
                    "duration": 0.1875
                },
                {
                    "name": "E4",
                    "midi": 64,
                    "time": 29.0625,
                    "velocity": 0.7874015748031497,
                    "duration": 0.1875
                },
                {
                    "name": "F#4",
                    "midi": 66,
                    "time": 29.25,
                    "velocity": 0.7874015748031497,
                    "duration": 0.1875
                },
                {
                    "name": "E4",
                    "midi": 64,
                    "time": 29.4375,
                    "velocity": 0.7874015748031497,
                    "duration": 0.1875
                },
                {
                    "name": "E4",
                    "midi": 64,
                    "time": 29.625,
                    "velocity": 0.7874015748031497,
                    "duration": 0.1875
                },
                {
                    "name": "B4",
                    "midi": 71,
                    "time": 29.8125,
                    "velocity": 0.7874015748031497,
                    "duration": 0.1875
                },
                {
                    "name": "E4",
                    "midi": 64,
                    "time": 30,
                    "velocity": 0.7874015748031497,
                    "duration": 0.1875
                },
                {
                    "name": "E4",
                    "midi": 64,
                    "time": 30.1875,
                    "velocity": 0.7874015748031497,
                    "duration": 0.1875
                },
                {
                    "name": "C#5",
                    "midi": 73,
                    "time": 30.375,
                    "velocity": 0.7874015748031497,
                    "duration": 0.09375
                },
                {
                    "name": "A4",
                    "midi": 69,
                    "time": 30.46875,
                    "velocity": 0.7874015748031497,
                    "duration": 0.09375
                },
                {
                    "name": "C#5",
                    "midi": 73,
                    "time": 30.5625,
                    "velocity": 0.7874015748031497,
                    "duration": 0.09375
                },
                {
                    "name": "E5",
                    "midi": 76,
                    "time": 30.65625,
                    "velocity": 0.7874015748031497,
                    "duration": 0.09375
                },
                {
                    "name": "A5",
                    "midi": 81,
                    "time": 30.75,
                    "velocity": 0.7874015748031497,
                    "duration": 0.09375
                },
                {
                    "name": "F#5",
                    "midi": 78,
                    "time": 30.84375,
                    "velocity": 0.7874015748031497,
                    "duration": 0.09375
                },
                {
                    "name": "D#5",
                    "midi": 75,
                    "time": 30.9375,
                    "velocity": 0.7874015748031497,
                    "duration": 0.09375
                },
                {
                    "name": "F#5",
                    "midi": 78,
                    "time": 31.03125,
                    "velocity": 0.7874015748031497,
                    "duration": 0.09375
                },
                {
                    "name": "D#5",
                    "midi": 75,
                    "time": 31.125,
                    "velocity": 0.7874015748031497,
                    "duration": 0.09375
                },
                {
                    "name": "B4",
                    "midi": 71,
                    "time": 31.21875,
                    "velocity": 0.7874015748031497,
                    "duration": 0.09375
                },
                {
                    "name": "D#5",
                    "midi": 75,
                    "time": 31.3125,
                    "velocity": 0.7874015748031497,
                    "duration": 0.09375
                },
                {
                    "name": "B4",
                    "midi": 71,
                    "time": 31.40625,
                    "velocity": 0.7874015748031497,
                    "duration": 0.09375
                },
                {
                    "name": "F#4",
                    "midi": 66,
                    "time": 31.5,
                    "velocity": 0.7874015748031497,
                    "duration": 0.09375
                },
                {
                    "name": "B4",
                    "midi": 71,
                    "time": 31.59375,
                    "velocity": 0.7874015748031497,
                    "duration": 0.09375
                },
                {
                    "name": "F#4",
                    "midi": 66,
                    "time": 31.6875,
                    "velocity": 0.7874015748031497,
                    "duration": 0.09375
                },
                {
                    "name": "D#4",
                    "midi": 63,
                    "time": 31.78125,
                    "velocity": 0.7874015748031497,
                    "duration": 0.09375
                },
                {
                    "name": "F#4",
                    "midi": 66,
                    "time": 31.875,
                    "velocity": 0.7874015748031497,
                    "duration": 0.09375
                },
                {
                    "name": "D#4",
                    "midi": 63,
                    "time": 31.96875,
                    "velocity": 0.7874015748031497,
                    "duration": 0.09375
                },
                {
                    "name": "E4",
                    "midi": 64,
                    "time": 32.0625,
                    "velocity": 0.7874015748031497,
                    "duration": 0.5625
                },
                {
                    "name": "G4",
                    "midi": 67,
                    "time": 33.1875,
                    "velocity": 0.7874015748031497,
                    "duration": 0.75
                },
                {
                    "name": "E4",
                    "midi": 64,
                    "time": 33.9375,
                    "velocity": 0.7874015748031497,
                    "duration": 0.1875
                },
                {
                    "name": "E4",
                    "midi": 64,
                    "time": 34.125,
                    "velocity": 0.7874015748031497,
                    "duration": 0.1875
                },
                {
                    "name": "F#4",
                    "midi": 66,
                    "time": 34.3125,
                    "velocity": 0.7874015748031497,
                    "duration": 0.1875
                },
                {
                    "name": "E4",
                    "midi": 64,
                    "time": 34.5,
                    "velocity": 0.7874015748031497,
                    "duration": 0.1875
                },
                {
                    "name": "E4",
                    "midi": 64,
                    "time": 34.6875,
                    "velocity": 0.7874015748031497,
                    "duration": 0.1875
                },
                {
                    "name": "A4",
                    "midi": 69,
                    "time": 34.875,
                    "velocity": 0.7874015748031497,
                    "duration": 0.1875
                },
                {
                    "name": "E4",
                    "midi": 64,
                    "time": 35.0625,
                    "velocity": 0.7874015748031497,
                    "duration": 0.1875
                },
                {
                    "name": "E4",
                    "midi": 64,
                    "time": 35.25,
                    "velocity": 0.7874015748031497,
                    "duration": 0.1875
                },
                {
                    "name": "F#4",
                    "midi": 66,
                    "time": 35.4375,
                    "velocity": 0.7874015748031497,
                    "duration": 1.875
                },
                {
                    "name": "D4",
                    "midi": 62,
                    "time": 37.3125,
                    "velocity": 0.7874015748031497,
                    "duration": 0.1875
                },
                {
                    "name": "D4",
                    "midi": 62,
                    "time": 37.5,
                    "velocity": 0.7874015748031497,
                    "duration": 0.1875
                },
                {
                    "name": "E4",
                    "midi": 64,
                    "time": 37.6875,
                    "velocity": 0.7874015748031497,
                    "duration": 0.1875
                },
                {
                    "name": "D4",
                    "midi": 62,
                    "time": 37.875,
                    "velocity": 0.7874015748031497,
                    "duration": 0.1875
                },
                {
                    "name": "D4",
                    "midi": 62,
                    "time": 38.0625,
                    "velocity": 0.7874015748031497,
                    "duration": 0.1875
                },
                {
                    "name": "G4",
                    "midi": 67,
                    "time": 38.25,
                    "velocity": 0.7874015748031497,
                    "duration": 0.1875
                },
                {
                    "name": "D4",
                    "midi": 62,
                    "time": 38.4375,
                    "velocity": 0.7874015748031497,
                    "duration": 0.1875
                },
                {
                    "name": "D4",
                    "midi": 62,
                    "time": 38.625,
                    "velocity": 0.7874015748031497,
                    "duration": 0.1875
                },
                {
                    "name": "E4",
                    "midi": 64,
                    "time": 38.8125,
                    "velocity": 0.7874015748031497,
                    "duration": 1.875
                },
                {
                    "name": "C#4",
                    "midi": 61,
                    "time": 40.6875,
                    "velocity": 0.7874015748031497,
                    "duration": 0.1875
                },
                {
                    "name": "C#4",
                    "midi": 61,
                    "time": 40.875,
                    "velocity": 0.7874015748031497,
                    "duration": 0.1875
                },
                {
                    "name": "D4",
                    "midi": 62,
                    "time": 41.0625,
                    "velocity": 0.7874015748031497,
                    "duration": 0.1875
                },
                {
                    "name": "C#4",
                    "midi": 61,
                    "time": 41.25,
                    "velocity": 0.7874015748031497,
                    "duration": 0.1875
                },
                {
                    "name": "C#4",
                    "midi": 61,
                    "time": 41.4375,
                    "velocity": 0.7874015748031497,
                    "duration": 0.1875
                },
                {
                    "name": "F#4",
                    "midi": 66,
                    "time": 41.625,
                    "velocity": 0.7874015748031497,
                    "duration": 0.1875
                },
                {
                    "name": "C#4",
                    "midi": 61,
                    "time": 41.8125,
                    "velocity": 0.7874015748031497,
                    "duration": 0.1875
                },
                {
                    "name": "C#4",
                    "midi": 61,
                    "time": 42,
                    "velocity": 0.7874015748031497,
                    "duration": 0.1875
                },
                {
                    "name": "D4",
                    "midi": 62,
                    "time": 42.1875,
                    "velocity": 0.7874015748031497,
                    "duration": 0.09375
                },
                {
                    "name": "B3",
                    "midi": 59,
                    "time": 42.28125,
                    "velocity": 0.7874015748031497,
                    "duration": 0.09375
                },
                {
                    "name": "D4",
                    "midi": 62,
                    "time": 42.375,
                    "velocity": 0.7874015748031497,
                    "duration": 0.09375
                },
                {
                    "name": "F#4",
                    "midi": 66,
                    "time": 42.46875,
                    "velocity": 0.7874015748031497,
                    "duration": 0.09375
                },
                {
                    "name": "D4",
                    "midi": 62,
                    "time": 42.5625,
                    "velocity": 0.7874015748031497,
                    "duration": 0.09375
                },
                {
                    "name": "F#4",
                    "midi": 66,
                    "time": 42.65625,
                    "velocity": 0.7874015748031497,
                    "duration": 0.09375
                },
                {
                    "name": "B4",
                    "midi": 71,
                    "time": 42.75,
                    "velocity": 0.7874015748031497,
                    "duration": 0.09375
                },
                {
                    "name": "F#4",
                    "midi": 66,
                    "time": 42.84375,
                    "velocity": 0.7874015748031497,
                    "duration": 0.09375
                },
                {
                    "name": "B4",
                    "midi": 71,
                    "time": 42.9375,
                    "velocity": 0.7874015748031497,
                    "duration": 0.09375
                },
                {
                    "name": "D5",
                    "midi": 74,
                    "time": 43.03125,
                    "velocity": 0.7874015748031497,
                    "duration": 0.09375
                },
                {
                    "name": "B4",
                    "midi": 71,
                    "time": 43.125,
                    "velocity": 0.7874015748031497,
                    "duration": 0.09375
                },
                {
                    "name": "D5",
                    "midi": 74,
                    "time": 43.21875,
                    "velocity": 0.7874015748031497,
                    "duration": 0.09375
                },
                {
                    "name": "G5",
                    "midi": 79,
                    "time": 43.3125,
                    "velocity": 0.7874015748031497,
                    "duration": 0.5625
                },
                {
                    "name": "C#4",
                    "midi": 61,
                    "time": 43.875,
                    "velocity": 0.7874015748031497,
                    "duration": 0.09375
                },
                {
                    "name": "A3",
                    "midi": 57,
                    "time": 43.96875,
                    "velocity": 0.7874015748031497,
                    "duration": 0.09375
                },
                {
                    "name": "C#4",
                    "midi": 61,
                    "time": 44.0625,
                    "velocity": 0.7874015748031497,
                    "duration": 0.09375
                },
                {
                    "name": "E4",
                    "midi": 64,
                    "time": 44.15625,
                    "velocity": 0.7874015748031497,
                    "duration": 0.09375
                },
                {
                    "name": "C#4",
                    "midi": 61,
                    "time": 44.25,
                    "velocity": 0.7874015748031497,
                    "duration": 0.09375
                },
                {
                    "name": "E4",
                    "midi": 64,
                    "time": 44.34375,
                    "velocity": 0.7874015748031497,
                    "duration": 0.09375
                },
                {
                    "name": "A4",
                    "midi": 69,
                    "time": 44.4375,
                    "velocity": 0.7874015748031497,
                    "duration": 0.09375
                },
                {
                    "name": "E4",
                    "midi": 64,
                    "time": 44.53125,
                    "velocity": 0.7874015748031497,
                    "duration": 0.09375
                },
                {
                    "name": "A4",
                    "midi": 69,
                    "time": 44.625,
                    "velocity": 0.7874015748031497,
                    "duration": 0.09375
                },
                {
                    "name": "C#5",
                    "midi": 73,
                    "time": 44.71875,
                    "velocity": 0.7874015748031497,
                    "duration": 0.09375
                },
                {
                    "name": "A4",
                    "midi": 69,
                    "time": 44.8125,
                    "velocity": 0.7874015748031497,
                    "duration": 0.09375
                },
                {
                    "name": "C#5",
                    "midi": 73,
                    "time": 44.90625,
                    "velocity": 0.7874015748031497,
                    "duration": 0.09375
                },
                {
                    "name": "F#5",
                    "midi": 78,
                    "time": 45,
                    "velocity": 0.7874015748031497,
                    "duration": 0.5625
                },
                {
                    "name": "B3",
                    "midi": 59,
                    "time": 45.5625,
                    "velocity": 0.7874015748031497,
                    "duration": 0.09375
                },
                {
                    "name": "G3",
                    "midi": 55,
                    "time": 45.65625,
                    "velocity": 0.7874015748031497,
                    "duration": 0.09375
                },
                {
                    "name": "B3",
                    "midi": 59,
                    "time": 45.75,
                    "velocity": 0.7874015748031497,
                    "duration": 0.09375
                },
                {
                    "name": "D4",
                    "midi": 62,
                    "time": 45.84375,
                    "velocity": 0.7874015748031497,
                    "duration": 0.09375
                },
                {
                    "name": "B3",
                    "midi": 59,
                    "time": 45.9375,
                    "velocity": 0.7874015748031497,
                    "duration": 0.09375
                },
                {
                    "name": "D4",
                    "midi": 62,
                    "time": 46.03125,
                    "velocity": 0.7874015748031497,
                    "duration": 0.09375
                },
                {
                    "name": "G4",
                    "midi": 67,
                    "time": 46.125,
                    "velocity": 0.7874015748031497,
                    "duration": 0.09375
                },
                {
                    "name": "D4",
                    "midi": 62,
                    "time": 46.21875,
                    "velocity": 0.7874015748031497,
                    "duration": 0.09375
                },
                {
                    "name": "G4",
                    "midi": 67,
                    "time": 46.3125,
                    "velocity": 0.7874015748031497,
                    "duration": 0.09375
                },
                {
                    "name": "B4",
                    "midi": 71,
                    "time": 46.40625,
                    "velocity": 0.7874015748031497,
                    "duration": 0.09375
                },
                {
                    "name": "G4",
                    "midi": 67,
                    "time": 46.5,
                    "velocity": 0.7874015748031497,
                    "duration": 0.09375
                },
                {
                    "name": "B4",
                    "midi": 71,
                    "time": 46.59375,
                    "velocity": 0.7874015748031497,
                    "duration": 0.09375
                },
                {
                    "name": "E5",
                    "midi": 76,
                    "time": 46.6875,
                    "velocity": 0.7874015748031497,
                    "duration": 0.75
                },
                {
                    "name": "F#4",
                    "midi": 66,
                    "time": 47.4375,
                    "velocity": 0.7874015748031497,
                    "duration": 0.1875
                },
                {
                    "name": "F#4",
                    "midi": 66,
                    "time": 47.625,
                    "velocity": 0.7874015748031497,
                    "duration": 0.1875
                },
                {
                    "name": "G4",
                    "midi": 67,
                    "time": 47.8125,
                    "velocity": 0.7874015748031497,
                    "duration": 0.1875
                },
                {
                    "name": "F#4",
                    "midi": 66,
                    "time": 48,
                    "velocity": 0.7874015748031497,
                    "duration": 0.1875
                },
                {
                    "name": "F#4",
                    "midi": 66,
                    "time": 48.1875,
                    "velocity": 0.7874015748031497,
                    "duration": 0.1875
                },
                {
                    "name": "E5",
                    "midi": 76,
                    "time": 48.375,
                    "velocity": 0.7874015748031497,
                    "duration": 0.1875
                },
                {
                    "name": "F#4",
                    "midi": 66,
                    "time": 48.5625,
                    "velocity": 0.7874015748031497,
                    "duration": 0.1875
                },
                {
                    "name": "F#4",
                    "midi": 66,
                    "time": 48.75,
                    "velocity": 0.7874015748031497,
                    "duration": 0.1875
                },
                {
                    "name": "D5",
                    "midi": 74,
                    "time": 48.9375,
                    "velocity": 0.7874015748031497,
                    "duration": 1.875
                },
                {
                    "name": "B4",
                    "midi": 71,
                    "time": 50.8125,
                    "velocity": 0.7874015748031497,
                    "duration": 0.1875
                },
                {
                    "name": "B4",
                    "midi": 71,
                    "time": 51,
                    "velocity": 0.7874015748031497,
                    "duration": 0.1875
                },
                {
                    "name": "C5",
                    "midi": 72,
                    "time": 51.1875,
                    "velocity": 0.7874015748031497,
                    "duration": 0.1875
                },
                {
                    "name": "B4",
                    "midi": 71,
                    "time": 51.375,
                    "velocity": 0.7874015748031497,
                    "duration": 0.1875
                },
                {
                    "name": "B4",
                    "midi": 71,
                    "time": 51.5625,
                    "velocity": 0.7874015748031497,
                    "duration": 0.1875
                },
                {
                    "name": "G5",
                    "midi": 79,
                    "time": 51.75,
                    "velocity": 0.7874015748031497,
                    "duration": 0.1875
                },
                {
                    "name": "B4",
                    "midi": 71,
                    "time": 51.9375,
                    "velocity": 0.7874015748031497,
                    "duration": 0.1875
                },
                {
                    "name": "B4",
                    "midi": 71,
                    "time": 52.125,
                    "velocity": 0.7874015748031497,
                    "duration": 0.1875
                },
                {
                    "name": "A#4",
                    "midi": 70,
                    "time": 52.3125,
                    "velocity": 0.7874015748031497,
                    "duration": 0.5625
                },
                {
                    "name": "F#5",
                    "midi": 78,
                    "time": 52.875,
                    "velocity": 0.7874015748031497,
                    "duration": 1.21875
                },
                {
                    "name": "B4",
                    "midi": 71,
                    "time": 54.09375,
                    "velocity": 0.7874015748031497,
                    "duration": 0.09375
                },
                {
                    "name": "D5",
                    "midi": 74,
                    "time": 54.1875,
                    "velocity": 0.7874015748031497,
                    "duration": 0.09375
                },
                {
                    "name": "F#5",
                    "midi": 78,
                    "time": 54.28125,
                    "velocity": 0.7874015748031497,
                    "duration": 0.09375
                },
                {
                    "name": "B5",
                    "midi": 83,
                    "time": 54.375,
                    "velocity": 0.7874015748031497,
                    "duration": 0.09375
                },
                {
                    "name": "F#5",
                    "midi": 78,
                    "time": 54.46875,
                    "velocity": 0.7874015748031497,
                    "duration": 0.09375
                },
                {
                    "name": "D5",
                    "midi": 74,
                    "time": 54.5625,
                    "velocity": 0.7874015748031497,
                    "duration": 0.09375
                },
                {
                    "name": "F#5",
                    "midi": 78,
                    "time": 54.65625,
                    "velocity": 0.7874015748031497,
                    "duration": 0.09375
                },
                {
                    "name": "D5",
                    "midi": 74,
                    "time": 54.75,
                    "velocity": 0.7874015748031497,
                    "duration": 0.09375
                },
                {
                    "name": "B4",
                    "midi": 71,
                    "time": 54.84375,
                    "velocity": 0.7874015748031497,
                    "duration": 0.09375
                },
                {
                    "name": "D5",
                    "midi": 74,
                    "time": 54.9375,
                    "velocity": 0.7874015748031497,
                    "duration": 0.09375
                },
                {
                    "name": "B4",
                    "midi": 71,
                    "time": 55.03125,
                    "velocity": 0.7874015748031497,
                    "duration": 0.09375
                },
                {
                    "name": "F#4",
                    "midi": 66,
                    "time": 55.125,
                    "velocity": 0.7874015748031497,
                    "duration": 0.09375
                },
                {
                    "name": "B4",
                    "midi": 71,
                    "time": 55.21875,
                    "velocity": 0.7874015748031497,
                    "duration": 0.09375
                },
                {
                    "name": "F#4",
                    "midi": 66,
                    "time": 55.3125,
                    "velocity": 0.7874015748031497,
                    "duration": 0.09375
                },
                {
                    "name": "D4",
                    "midi": 62,
                    "time": 55.40625,
                    "velocity": 0.7874015748031497,
                    "duration": 0.09375
                },
                {
                    "name": "F#4",
                    "midi": 66,
                    "time": 55.5,
                    "velocity": 0.7874015748031497,
                    "duration": 0.09375
                },
                {
                    "name": "D4",
                    "midi": 62,
                    "time": 55.59375,
                    "velocity": 0.7874015748031497,
                    "duration": 0.09375
                },
                {
                    "name": "D5",
                    "midi": 74,
                    "time": 55.6875,
                    "velocity": 0.7874015748031497,
                    "duration": 1.875
                },
                {
                    "name": "C#5",
                    "midi": 73,
                    "time": 57.5625,
                    "velocity": 0.7874015748031497,
                    "duration": 0.1875
                },
                {
                    "name": "C#5",
                    "midi": 73,
                    "time": 57.75,
                    "velocity": 0.7874015748031497,
                    "duration": 0.1875
                },
                {
                    "name": "G#5",
                    "midi": 80,
                    "time": 57.9375,
                    "velocity": 0.7874015748031497,
                    "duration": 0.1875
                },
                {
                    "name": "C#5",
                    "midi": 73,
                    "time": 58.125,
                    "velocity": 0.7874015748031497,
                    "duration": 0.1875
                },
                {
                    "name": "C#5",
                    "midi": 73,
                    "time": 58.3125,
                    "velocity": 0.7874015748031497,
                    "duration": 0.1875
                },
                {
                    "name": "D5",
                    "midi": 74,
                    "time": 58.5,
                    "velocity": 0.7874015748031497,
                    "duration": 0.1875
                },
                {
                    "name": "C#5",
                    "midi": 73,
                    "time": 58.6875,
                    "velocity": 0.7874015748031497,
                    "duration": 0.1875
                },
                {
                    "name": "C#5",
                    "midi": 73,
                    "time": 58.875,
                    "velocity": 0.7874015748031497,
                    "duration": 0.1875
                },
                {
                    "name": "E5",
                    "midi": 76,
                    "time": 59.0625,
                    "velocity": 0.7874015748031497,
                    "duration": 0.1875
                },
                {
                    "name": "C#5",
                    "midi": 73,
                    "time": 59.25,
                    "velocity": 0.7874015748031497,
                    "duration": 0.1875
                },
                {
                    "name": "C#5",
                    "midi": 73,
                    "time": 59.4375,
                    "velocity": 0.7874015748031497,
                    "duration": 0.1875
                },
                {
                    "name": "A#5",
                    "midi": 82,
                    "time": 59.625,
                    "velocity": 0.7874015748031497,
                    "duration": 0.1875
                },
                {
                    "name": "C#5",
                    "midi": 73,
                    "time": 59.8125,
                    "velocity": 0.7874015748031497,
                    "duration": 0.1875
                },
                {
                    "name": "D5",
                    "midi": 74,
                    "time": 60,
                    "velocity": 0.7874015748031497,
                    "duration": 0.1875
                },
                {
                    "name": "E5",
                    "midi": 76,
                    "time": 60.1875,
                    "velocity": 0.7874015748031497,
                    "duration": 0.1875
                },
                {
                    "name": "D5",
                    "midi": 74,
                    "time": 60.375,
                    "velocity": 0.7874015748031497,
                    "duration": 0.1875
                },
                {
                    "name": "C#5",
                    "midi": 73,
                    "time": 60.5625,
                    "velocity": 0.7874015748031497,
                    "duration": 0.1875
                },
                {
                    "name": "F#5",
                    "midi": 78,
                    "time": 60.75,
                    "velocity": 0.7874015748031497,
                    "duration": 0.1875
                },
                {
                    "name": "G5",
                    "midi": 79,
                    "time": 60.9375,
                    "velocity": 0.7874015748031497,
                    "duration": 0.1875
                },
                {
                    "name": "E5",
                    "midi": 76,
                    "time": 61.125,
                    "velocity": 0.7874015748031497,
                    "duration": 0.1875
                },
                {
                    "name": "D5",
                    "midi": 74,
                    "time": 61.3125,
                    "velocity": 0.7874015748031497,
                    "duration": 0.5625
                },
                {
                    "name": "D5",
                    "midi": 74,
                    "time": 61.875,
                    "velocity": 0.7874015748031497,
                    "duration": 0.0625
                },
                {
                    "name": "C#5",
                    "midi": 73,
                    "time": 61.9375,
                    "velocity": 0.7874015748031497,
                    "duration": 0.0625
                },
                {
                    "name": "D5",
                    "midi": 74,
                    "time": 62,
                    "velocity": 0.7874015748031497,
                    "duration": 0.0625
                },
                {
                    "name": "C#5",
                    "midi": 73,
                    "time": 62.0625,
                    "velocity": 0.7874015748031497,
                    "duration": 0.1875
                },
                {
                    "name": "B4",
                    "midi": 71,
                    "time": 62.25,
                    "velocity": 0.7874015748031497,
                    "duration": 0.1875
                },
                {
                    "name": "B4",
                    "midi": 71,
                    "time": 62.4375,
                    "velocity": 0.7874015748031497,
                    "duration": 1.6875
                }
            ],
            "controlChanges": {
                "7": [
                    {
                        "number": 7,
                        "time": 0,
                        "value": 0.7874015748031497
                    }
                ],
                "10": [
                    {
                        "number": 10,
                        "time": 0,
                        "value": 0.7559055118110236
                    }
                ]
            },
            "id": 1,
            "name": "Solo Keyboard",
            "instrumentNumber": 6,
            "instrument": "harpsichord",
            "instrumentFamily": "piano",
            "channelNumber": 0,
            "isPercussion": false
        },
        {
            "startTime": 10.125,
            "duration": 64.125,
            "length": 126,
            "notes": [
                {
                    "name": "B4",
                    "midi": 71,
                    "time": 10.125,
                    "velocity": 0.7874015748031497,
                    "duration": 0.1875
                },
                {
                    "name": "F#4",
                    "midi": 66,
                    "time": 10.3125,
                    "velocity": 0.7874015748031497,
                    "duration": 0.1875
                },
                {
                    "name": "F#4",
                    "midi": 66,
                    "time": 10.5,
                    "velocity": 0.7874015748031497,
                    "duration": 0.1875
                },
                {
                    "name": "G4",
                    "midi": 67,
                    "time": 10.6875,
                    "velocity": 0.7874015748031497,
                    "duration": 0.1875
                },
                {
                    "name": "F#4",
                    "midi": 66,
                    "time": 10.875,
                    "velocity": 0.7874015748031497,
                    "duration": 0.1875
                },
                {
                    "name": "F#4",
                    "midi": 66,
                    "time": 11.0625,
                    "velocity": 0.7874015748031497,
                    "duration": 0.1875
                },
                {
                    "name": "B4",
                    "midi": 71,
                    "time": 11.25,
                    "velocity": 0.7874015748031497,
                    "duration": 0.1875
                },
                {
                    "name": "F#4",
                    "midi": 66,
                    "time": 11.4375,
                    "velocity": 0.7874015748031497,
                    "duration": 0.1875
                },
                {
                    "name": "F#4",
                    "midi": 66,
                    "time": 11.625,
                    "velocity": 0.7874015748031497,
                    "duration": 0.1875
                },
                {
                    "name": "G#4",
                    "midi": 68,
                    "time": 11.8125,
                    "velocity": 0.7874015748031497,
                    "duration": 1.6875
                },
                {
                    "name": "A4",
                    "midi": 69,
                    "time": 13.5,
                    "velocity": 0.7874015748031497,
                    "duration": 0.1875
                },
                {
                    "name": "E4",
                    "midi": 64,
                    "time": 13.6875,
                    "velocity": 0.7874015748031497,
                    "duration": 0.1875
                },
                {
                    "name": "E4",
                    "midi": 64,
                    "time": 13.875,
                    "velocity": 0.7874015748031497,
                    "duration": 0.1875
                },
                {
                    "name": "F#4",
                    "midi": 66,
                    "time": 14.0625,
                    "velocity": 0.7874015748031497,
                    "duration": 0.1875
                },
                {
                    "name": "E4",
                    "midi": 64,
                    "time": 14.25,
                    "velocity": 0.7874015748031497,
                    "duration": 0.1875
                },
                {
                    "name": "E4",
                    "midi": 64,
                    "time": 14.4375,
                    "velocity": 0.7874015748031497,
                    "duration": 0.1875
                },
                {
                    "name": "A4",
                    "midi": 69,
                    "time": 14.625,
                    "velocity": 0.7874015748031497,
                    "duration": 0.1875
                },
                {
                    "name": "E4",
                    "midi": 64,
                    "time": 14.8125,
                    "velocity": 0.7874015748031497,
                    "duration": 0.1875
                },
                {
                    "name": "E4",
                    "midi": 64,
                    "time": 15,
                    "velocity": 0.7874015748031497,
                    "duration": 0.1875
                },
                {
                    "name": "F#4",
                    "midi": 66,
                    "time": 15.1875,
                    "velocity": 0.7874015748031497,
                    "duration": 1.6875
                },
                {
                    "name": "G4",
                    "midi": 67,
                    "time": 16.875,
                    "velocity": 0.7874015748031497,
                    "duration": 0.1875
                },
                {
                    "name": "D4",
                    "midi": 62,
                    "time": 21.9375,
                    "velocity": 0.7874015748031497,
                    "duration": 0.1875
                },
                {
                    "name": "A3",
                    "midi": 57,
                    "time": 22.125,
                    "velocity": 0.7874015748031497,
                    "duration": 0.1875
                },
                {
                    "name": "A3",
                    "midi": 57,
                    "time": 22.3125,
                    "velocity": 0.7874015748031497,
                    "duration": 0.1875
                },
                {
                    "name": "B3",
                    "midi": 59,
                    "time": 22.5,
                    "velocity": 0.7874015748031497,
                    "duration": 0.1875
                },
                {
                    "name": "A3",
                    "midi": 57,
                    "time": 22.6875,
                    "velocity": 0.7874015748031497,
                    "duration": 0.1875
                },
                {
                    "name": "A3",
                    "midi": 57,
                    "time": 22.875,
                    "velocity": 0.7874015748031497,
                    "duration": 0.1875
                },
                {
                    "name": "D4",
                    "midi": 62,
                    "time": 23.0625,
                    "velocity": 0.7874015748031497,
                    "duration": 0.1875
                },
                {
                    "name": "A3",
                    "midi": 57,
                    "time": 23.25,
                    "velocity": 0.7874015748031497,
                    "duration": 0.1875
                },
                {
                    "name": "A3",
                    "midi": 57,
                    "time": 23.4375,
                    "velocity": 0.7874015748031497,
                    "duration": 0.1875
                },
                {
                    "name": "E4",
                    "midi": 64,
                    "time": 23.625,
                    "velocity": 0.7874015748031497,
                    "duration": 0.1875
                },
                {
                    "name": "A3",
                    "midi": 57,
                    "time": 23.8125,
                    "velocity": 0.7874015748031497,
                    "duration": 0.1875
                },
                {
                    "name": "A3",
                    "midi": 57,
                    "time": 24,
                    "velocity": 0.7874015748031497,
                    "duration": 0.1875
                },
                {
                    "name": "B3",
                    "midi": 59,
                    "time": 24.1875,
                    "velocity": 0.7874015748031497,
                    "duration": 0.1875
                },
                {
                    "name": "A3",
                    "midi": 57,
                    "time": 24.375,
                    "velocity": 0.7874015748031497,
                    "duration": 0.1875
                },
                {
                    "name": "A3",
                    "midi": 57,
                    "time": 24.5625,
                    "velocity": 0.7874015748031497,
                    "duration": 0.1875
                },
                {
                    "name": "E4",
                    "midi": 64,
                    "time": 24.75,
                    "velocity": 0.7874015748031497,
                    "duration": 0.1875
                },
                {
                    "name": "A3",
                    "midi": 57,
                    "time": 24.9375,
                    "velocity": 0.7874015748031497,
                    "duration": 0.1875
                },
                {
                    "name": "A3",
                    "midi": 57,
                    "time": 25.125,
                    "velocity": 0.7874015748031497,
                    "duration": 0.1875
                },
                {
                    "name": "F#4",
                    "midi": 66,
                    "time": 25.3125,
                    "velocity": 0.7874015748031497,
                    "duration": 0.09375
                },
                {
                    "name": "D4",
                    "midi": 62,
                    "time": 25.40625,
                    "velocity": 0.7874015748031497,
                    "duration": 0.09375
                },
                {
                    "name": "F#4",
                    "midi": 66,
                    "time": 25.5,
                    "velocity": 0.7874015748031497,
                    "duration": 0.09375
                },
                {
                    "name": "A4",
                    "midi": 69,
                    "time": 25.59375,
                    "velocity": 0.7874015748031497,
                    "duration": 0.09375
                },
                {
                    "name": "D5",
                    "midi": 74,
                    "time": 25.6875,
                    "velocity": 0.7874015748031497,
                    "duration": 0.09375
                },
                {
                    "name": "A4",
                    "midi": 69,
                    "time": 25.78125,
                    "velocity": 0.7874015748031497,
                    "duration": 0.09375
                },
                {
                    "name": "G#4",
                    "midi": 68,
                    "time": 25.875,
                    "velocity": 0.7874015748031497,
                    "duration": 0.09375
                },
                {
                    "name": "B4",
                    "midi": 71,
                    "time": 25.96875,
                    "velocity": 0.7874015748031497,
                    "duration": 0.09375
                },
                {
                    "name": "G#4",
                    "midi": 68,
                    "time": 26.0625,
                    "velocity": 0.7874015748031497,
                    "duration": 0.09375
                },
                {
                    "name": "E4",
                    "midi": 64,
                    "time": 26.15625,
                    "velocity": 0.7874015748031497,
                    "duration": 0.09375
                },
                {
                    "name": "G#4",
                    "midi": 68,
                    "time": 26.25,
                    "velocity": 0.7874015748031497,
                    "duration": 0.09375
                },
                {
                    "name": "E4",
                    "midi": 64,
                    "time": 26.34375,
                    "velocity": 0.7874015748031497,
                    "duration": 0.09375
                },
                {
                    "name": "B3",
                    "midi": 59,
                    "time": 26.4375,
                    "velocity": 0.7874015748031497,
                    "duration": 0.09375
                },
                {
                    "name": "E4",
                    "midi": 64,
                    "time": 26.53125,
                    "velocity": 0.7874015748031497,
                    "duration": 0.09375
                },
                {
                    "name": "B3",
                    "midi": 59,
                    "time": 26.625,
                    "velocity": 0.7874015748031497,
                    "duration": 0.09375
                },
                {
                    "name": "G#3",
                    "midi": 56,
                    "time": 26.71875,
                    "velocity": 0.7874015748031497,
                    "duration": 0.09375
                },
                {
                    "name": "B3",
                    "midi": 59,
                    "time": 26.8125,
                    "velocity": 0.7874015748031497,
                    "duration": 0.09375
                },
                {
                    "name": "G#3",
                    "midi": 56,
                    "time": 26.90625,
                    "velocity": 0.7874015748031497,
                    "duration": 0.09375
                },
                {
                    "name": "E3",
                    "midi": 52,
                    "time": 27,
                    "velocity": 0.7874015748031497,
                    "duration": 0.5625
                },
                {
                    "name": "A3",
                    "midi": 57,
                    "time": 27.75,
                    "velocity": 0.7874015748031497,
                    "duration": 0.1875
                },
                {
                    "name": "B3",
                    "midi": 59,
                    "time": 27.9375,
                    "velocity": 0.7874015748031497,
                    "duration": 0.1875
                },
                {
                    "name": "C#4",
                    "midi": 61,
                    "time": 28.125,
                    "velocity": 0.7874015748031497,
                    "duration": 0.1875
                },
                {
                    "name": "B3",
                    "midi": 59,
                    "time": 28.3125,
                    "velocity": 0.7874015748031497,
                    "duration": 0.1875
                },
                {
                    "name": "A3",
                    "midi": 57,
                    "time": 28.5,
                    "velocity": 0.7874015748031497,
                    "duration": 0.1875
                },
                {
                    "name": "G#3",
                    "midi": 56,
                    "time": 28.6875,
                    "velocity": 0.7874015748031497,
                    "duration": 0.75
                },
                {
                    "name": "A3",
                    "midi": 57,
                    "time": 29.4375,
                    "velocity": 0.7874015748031497,
                    "duration": 0.1875
                },
                {
                    "name": "B3",
                    "midi": 59,
                    "time": 29.625,
                    "velocity": 0.7874015748031497,
                    "duration": 0.1875
                },
                {
                    "name": "A3",
                    "midi": 57,
                    "time": 29.8125,
                    "velocity": 0.7874015748031497,
                    "duration": 0.1875
                },
                {
                    "name": "B3",
                    "midi": 59,
                    "time": 30,
                    "velocity": 0.7874015748031497,
                    "duration": 0.1875
                },
                {
                    "name": "G#3",
                    "midi": 56,
                    "time": 30.1875,
                    "velocity": 0.7874015748031497,
                    "duration": 0.1875
                },
                {
                    "name": "A3",
                    "midi": 57,
                    "time": 30.375,
                    "velocity": 0.7874015748031497,
                    "duration": 0.75
                },
                {
                    "name": "B3",
                    "midi": 59,
                    "time": 31.125,
                    "velocity": 0.7874015748031497,
                    "duration": 0.1875
                },
                {
                    "name": "C4",
                    "midi": 60,
                    "time": 31.3125,
                    "velocity": 0.7874015748031497,
                    "duration": 0.1875
                },
                {
                    "name": "B3",
                    "midi": 59,
                    "time": 31.5,
                    "velocity": 0.7874015748031497,
                    "duration": 0.1875
                },
                {
                    "name": "C4",
                    "midi": 60,
                    "time": 31.6875,
                    "velocity": 0.7874015748031497,
                    "duration": 0.1875
                },
                {
                    "name": "A3",
                    "midi": 57,
                    "time": 31.875,
                    "velocity": 0.7874015748031497,
                    "duration": 0.1875
                },
                {
                    "name": "E4",
                    "midi": 64,
                    "time": 32.0625,
                    "velocity": 0.7874015748031497,
                    "duration": 0.1875
                },
                {
                    "name": "B3",
                    "midi": 59,
                    "time": 32.25,
                    "velocity": 0.7874015748031497,
                    "duration": 0.1875
                },
                {
                    "name": "B3",
                    "midi": 59,
                    "time": 32.4375,
                    "velocity": 0.7874015748031497,
                    "duration": 0.1875
                },
                {
                    "name": "C4",
                    "midi": 60,
                    "time": 32.625,
                    "velocity": 0.7874015748031497,
                    "duration": 0.1875
                },
                {
                    "name": "B3",
                    "midi": 59,
                    "time": 32.8125,
                    "velocity": 0.7874015748031497,
                    "duration": 0.1875
                },
                {
                    "name": "B3",
                    "midi": 59,
                    "time": 33,
                    "velocity": 0.7874015748031497,
                    "duration": 0.1875
                },
                {
                    "name": "E4",
                    "midi": 64,
                    "time": 33.1875,
                    "velocity": 0.7874015748031497,
                    "duration": 0.1875
                },
                {
                    "name": "B3",
                    "midi": 59,
                    "time": 33.375,
                    "velocity": 0.7874015748031497,
                    "duration": 0.1875
                },
                {
                    "name": "B3",
                    "midi": 59,
                    "time": 33.5625,
                    "velocity": 0.7874015748031497,
                    "duration": 0.1875
                },
                {
                    "name": "C#4",
                    "midi": 61,
                    "time": 33.75,
                    "velocity": 0.7874015748031497,
                    "duration": 1.875
                },
                {
                    "name": "A3",
                    "midi": 57,
                    "time": 35.625,
                    "velocity": 0.7874015748031497,
                    "duration": 0.1875
                },
                {
                    "name": "A3",
                    "midi": 57,
                    "time": 35.8125,
                    "velocity": 0.7874015748031497,
                    "duration": 0.1875
                },
                {
                    "name": "B3",
                    "midi": 59,
                    "time": 36,
                    "velocity": 0.7874015748031497,
                    "duration": 0.1875
                },
                {
                    "name": "A3",
                    "midi": 57,
                    "time": 36.1875,
                    "velocity": 0.7874015748031497,
                    "duration": 0.1875
                },
                {
                    "name": "A3",
                    "midi": 57,
                    "time": 36.375,
                    "velocity": 0.7874015748031497,
                    "duration": 0.1875
                },
                {
                    "name": "D4",
                    "midi": 62,
                    "time": 36.5625,
                    "velocity": 0.7874015748031497,
                    "duration": 0.1875
                },
                {
                    "name": "A3",
                    "midi": 57,
                    "time": 36.75,
                    "velocity": 0.7874015748031497,
                    "duration": 0.1875
                },
                {
                    "name": "A3",
                    "midi": 57,
                    "time": 36.9375,
                    "velocity": 0.7874015748031497,
                    "duration": 0.1875
                },
                {
                    "name": "B3",
                    "midi": 59,
                    "time": 37.125,
                    "velocity": 0.7874015748031497,
                    "duration": 1.875
                },
                {
                    "name": "G#3",
                    "midi": 56,
                    "time": 39,
                    "velocity": 0.7874015748031497,
                    "duration": 0.1875
                },
                {
                    "name": "G#3",
                    "midi": 56,
                    "time": 39.1875,
                    "velocity": 0.7874015748031497,
                    "duration": 0.1875
                },
                {
                    "name": "A3",
                    "midi": 57,
                    "time": 39.375,
                    "velocity": 0.7874015748031497,
                    "duration": 0.1875
                },
                {
                    "name": "G#3",
                    "midi": 56,
                    "time": 39.5625,
                    "velocity": 0.7874015748031497,
                    "duration": 0.1875
                },
                {
                    "name": "G#3",
                    "midi": 56,
                    "time": 39.75,
                    "velocity": 0.7874015748031497,
                    "duration": 0.1875
                },
                {
                    "name": "C#4",
                    "midi": 61,
                    "time": 39.9375,
                    "velocity": 0.7874015748031497,
                    "duration": 0.1875
                },
                {
                    "name": "G#3",
                    "midi": 56,
                    "time": 40.125,
                    "velocity": 0.7874015748031497,
                    "duration": 0.1875
                },
                {
                    "name": "G#3",
                    "midi": 56,
                    "time": 40.3125,
                    "velocity": 0.7874015748031497,
                    "duration": 0.1875
                },
                {
                    "name": "A#3",
                    "midi": 58,
                    "time": 40.5,
                    "velocity": 0.7874015748031497,
                    "duration": 1.6875
                },
                {
                    "name": "B3",
                    "midi": 59,
                    "time": 42.1875,
                    "velocity": 0.7874015748031497,
                    "duration": 0.1875
                },
                {
                    "name": "F#4",
                    "midi": 66,
                    "time": 48.9375,
                    "velocity": 0.7874015748031497,
                    "duration": 0.1875
                },
                {
                    "name": "B3",
                    "midi": 59,
                    "time": 49.125,
                    "velocity": 0.7874015748031497,
                    "duration": 0.1875
                },
                {
                    "name": "B3",
                    "midi": 59,
                    "time": 49.3125,
                    "velocity": 0.7874015748031497,
                    "duration": 0.1875
                },
                {
                    "name": "D4",
                    "midi": 62,
                    "time": 49.5,
                    "velocity": 0.7874015748031497,
                    "duration": 0.1875
                },
                {
                    "name": "B3",
                    "midi": 59,
                    "time": 49.6875,
                    "velocity": 0.7874015748031497,
                    "duration": 0.1875
                },
                {
                    "name": "B3",
                    "midi": 59,
                    "time": 49.875,
                    "velocity": 0.7874015748031497,
                    "duration": 0.1875
                },
                {
                    "name": "F#4",
                    "midi": 66,
                    "time": 50.0625,
                    "velocity": 0.7874015748031497,
                    "duration": 0.1875
                },
                {
                    "name": "B3",
                    "midi": 59,
                    "time": 50.25,
                    "velocity": 0.7874015748031497,
                    "duration": 0.1875
                },
                {
                    "name": "B3",
                    "midi": 59,
                    "time": 50.4375,
                    "velocity": 0.7874015748031497,
                    "duration": 0.1875
                },
                {
                    "name": "G4",
                    "midi": 67,
                    "time": 50.625,
                    "velocity": 0.7874015748031497,
                    "duration": 1.6875
                },
                {
                    "name": "F#4",
                    "midi": 66,
                    "time": 52.3125,
                    "velocity": 0.7874015748031497,
                    "duration": 0.5625
                },
                {
                    "name": "A#4",
                    "midi": 70,
                    "time": 52.875,
                    "velocity": 0.7874015748031497,
                    "duration": 1.125
                },
                {
                    "name": "B4",
                    "midi": 71,
                    "time": 55.6875,
                    "velocity": 0.7874015748031497,
                    "duration": 3.375
                },
                {
                    "name": "A#4",
                    "midi": 70,
                    "time": 59.0625,
                    "velocity": 0.7874015748031497,
                    "duration": 0.5625
                },
                {
                    "name": "A#4",
                    "midi": 70,
                    "time": 59.8125,
                    "velocity": 0.7874015748031497,
                    "duration": 0.1875
                },
                {
                    "name": "B4",
                    "midi": 71,
                    "time": 60,
                    "velocity": 0.7874015748031497,
                    "duration": 0.1875
                },
                {
                    "name": "C#5",
                    "midi": 73,
                    "time": 60.1875,
                    "velocity": 0.7874015748031497,
                    "duration": 0.1875
                },
                {
                    "name": "B4",
                    "midi": 71,
                    "time": 60.375,
                    "velocity": 0.7874015748031497,
                    "duration": 0.1875
                },
                {
                    "name": "A#4",
                    "midi": 70,
                    "time": 60.5625,
                    "velocity": 0.7874015748031497,
                    "duration": 0.1875
                },
                {
                    "name": "B4",
                    "midi": 71,
                    "time": 60.75,
                    "velocity": 0.7874015748031497,
                    "duration": 1.125
                },
                {
                    "name": "A#4",
                    "midi": 70,
                    "time": 61.875,
                    "velocity": 0.7874015748031497,
                    "duration": 0.5625
                },
                {
                    "name": "B4",
                    "midi": 71,
                    "time": 62.4375,
                    "velocity": 0.7874015748031497,
                    "duration": 1.6875
                }
            ],
            "controlChanges": {
                "7": [
                    {
                        "number": 7,
                        "time": 0,
                        "value": 0.7874015748031497
                    }
                ],
                "10": [
                    {
                        "number": 10,
                        "time": 0,
                        "value": 0.5039370078740157
                    }
                ]
            },
            "id": 2,
            "name": "--------------------------------------",
            "instrumentNumber": 6,
            "instrument": "harpsichord",
            "instrumentFamily": "piano",
            "channelNumber": 1,
            "isPercussion": false
        },
        {
            "startTime": 0,
            "duration": 64.125,
            "length": 256,
            "notes": [
                {
                    "name": "B2",
                    "midi": 47,
                    "time": 0,
                    "velocity": 0.7874015748031497,
                    "duration": 0.5625
                },
                {
                    "name": "B3",
                    "midi": 59,
                    "time": 0.75,
                    "velocity": 0.7874015748031497,
                    "duration": 0.1875
                },
                {
                    "name": "C#4",
                    "midi": 61,
                    "time": 0.9375,
                    "velocity": 0.7874015748031497,
                    "duration": 0.1875
                },
                {
                    "name": "D4",
                    "midi": 62,
                    "time": 1.125,
                    "velocity": 0.7874015748031497,
                    "duration": 0.1875
                },
                {
                    "name": "C#4",
                    "midi": 61,
                    "time": 1.3125,
                    "velocity": 0.7874015748031497,
                    "duration": 0.1875
                },
                {
                    "name": "B3",
                    "midi": 59,
                    "time": 1.5,
                    "velocity": 0.7874015748031497,
                    "duration": 0.1875
                },
                {
                    "name": "A#3",
                    "midi": 58,
                    "time": 1.6875,
                    "velocity": 0.7874015748031497,
                    "duration": 0.75
                },
                {
                    "name": "B3",
                    "midi": 59,
                    "time": 2.4375,
                    "velocity": 0.7874015748031497,
                    "duration": 0.1875
                },
                {
                    "name": "C#4",
                    "midi": 61,
                    "time": 2.625,
                    "velocity": 0.7874015748031497,
                    "duration": 0.1875
                },
                {
                    "name": "B3",
                    "midi": 59,
                    "time": 2.8125,
                    "velocity": 0.7874015748031497,
                    "duration": 0.1875
                },
                {
                    "name": "C#4",
                    "midi": 61,
                    "time": 3,
                    "velocity": 0.7874015748031497,
                    "duration": 0.1875
                },
                {
                    "name": "A#3",
                    "midi": 58,
                    "time": 3.1875,
                    "velocity": 0.7874015748031497,
                    "duration": 0.1875
                },
                {
                    "name": "B3",
                    "midi": 59,
                    "time": 3.375,
                    "velocity": 0.7874015748031497,
                    "duration": 0.5625
                },
                {
                    "name": "B3",
                    "midi": 59,
                    "time": 5.0625,
                    "velocity": 0.7874015748031497,
                    "duration": 0.1875
                },
                {
                    "name": "F#3",
                    "midi": 54,
                    "time": 5.25,
                    "velocity": 0.7874015748031497,
                    "duration": 0.1875
                },
                {
                    "name": "F#3",
                    "midi": 54,
                    "time": 5.4375,
                    "velocity": 0.7874015748031497,
                    "duration": 0.1875
                },
                {
                    "name": "G3",
                    "midi": 55,
                    "time": 5.625,
                    "velocity": 0.7874015748031497,
                    "duration": 0.1875
                },
                {
                    "name": "F#3",
                    "midi": 54,
                    "time": 5.8125,
                    "velocity": 0.7874015748031497,
                    "duration": 0.1875
                },
                {
                    "name": "F#3",
                    "midi": 54,
                    "time": 6,
                    "velocity": 0.7874015748031497,
                    "duration": 0.1875
                },
                {
                    "name": "B3",
                    "midi": 59,
                    "time": 6.1875,
                    "velocity": 0.7874015748031497,
                    "duration": 0.1875
                },
                {
                    "name": "F#3",
                    "midi": 54,
                    "time": 6.375,
                    "velocity": 0.7874015748031497,
                    "duration": 0.1875
                },
                {
                    "name": "F#3",
                    "midi": 54,
                    "time": 6.5625,
                    "velocity": 0.7874015748031497,
                    "duration": 0.1875
                },
                {
                    "name": "C#4",
                    "midi": 61,
                    "time": 6.75,
                    "velocity": 0.7874015748031497,
                    "duration": 0.1875
                },
                {
                    "name": "F#3",
                    "midi": 54,
                    "time": 6.9375,
                    "velocity": 0.7874015748031497,
                    "duration": 0.1875
                },
                {
                    "name": "F#3",
                    "midi": 54,
                    "time": 7.125,
                    "velocity": 0.7874015748031497,
                    "duration": 0.1875
                },
                {
                    "name": "G3",
                    "midi": 55,
                    "time": 7.3125,
                    "velocity": 0.7874015748031497,
                    "duration": 0.1875
                },
                {
                    "name": "F#3",
                    "midi": 54,
                    "time": 7.5,
                    "velocity": 0.7874015748031497,
                    "duration": 0.1875
                },
                {
                    "name": "F#3",
                    "midi": 54,
                    "time": 7.6875,
                    "velocity": 0.7874015748031497,
                    "duration": 0.1875
                },
                {
                    "name": "C#4",
                    "midi": 61,
                    "time": 7.875,
                    "velocity": 0.7874015748031497,
                    "duration": 0.1875
                },
                {
                    "name": "F#3",
                    "midi": 54,
                    "time": 8.0625,
                    "velocity": 0.7874015748031497,
                    "duration": 0.1875
                },
                {
                    "name": "F#3",
                    "midi": 54,
                    "time": 8.25,
                    "velocity": 0.7874015748031497,
                    "duration": 0.1875
                },
                {
                    "name": "D4",
                    "midi": 62,
                    "time": 8.4375,
                    "velocity": 0.7874015748031497,
                    "duration": 0.09375
                },
                {
                    "name": "B3",
                    "midi": 59,
                    "time": 8.53125,
                    "velocity": 0.7874015748031497,
                    "duration": 0.09375
                },
                {
                    "name": "D4",
                    "midi": 62,
                    "time": 8.625,
                    "velocity": 0.7874015748031497,
                    "duration": 0.09375
                },
                {
                    "name": "F#4",
                    "midi": 66,
                    "time": 8.71875,
                    "velocity": 0.7874015748031497,
                    "duration": 0.09375
                },
                {
                    "name": "B4",
                    "midi": 71,
                    "time": 8.8125,
                    "velocity": 0.7874015748031497,
                    "duration": 0.09375
                },
                {
                    "name": "F#4",
                    "midi": 66,
                    "time": 8.90625,
                    "velocity": 0.7874015748031497,
                    "duration": 0.09375
                },
                {
                    "name": "D4",
                    "midi": 62,
                    "time": 9,
                    "velocity": 0.7874015748031497,
                    "duration": 0.09375
                },
                {
                    "name": "F#4",
                    "midi": 66,
                    "time": 9.09375,
                    "velocity": 0.7874015748031497,
                    "duration": 0.09375
                },
                {
                    "name": "D4",
                    "midi": 62,
                    "time": 9.1875,
                    "velocity": 0.7874015748031497,
                    "duration": 0.09375
                },
                {
                    "name": "B3",
                    "midi": 59,
                    "time": 9.28125,
                    "velocity": 0.7874015748031497,
                    "duration": 0.09375
                },
                {
                    "name": "D4",
                    "midi": 62,
                    "time": 9.375,
                    "velocity": 0.7874015748031497,
                    "duration": 0.09375
                },
                {
                    "name": "B3",
                    "midi": 59,
                    "time": 9.46875,
                    "velocity": 0.7874015748031497,
                    "duration": 0.09375
                },
                {
                    "name": "F#3",
                    "midi": 54,
                    "time": 9.5625,
                    "velocity": 0.7874015748031497,
                    "duration": 0.09375
                },
                {
                    "name": "B3",
                    "midi": 59,
                    "time": 9.65625,
                    "velocity": 0.7874015748031497,
                    "duration": 0.09375
                },
                {
                    "name": "F#3",
                    "midi": 54,
                    "time": 9.75,
                    "velocity": 0.7874015748031497,
                    "duration": 0.09375
                },
                {
                    "name": "D3",
                    "midi": 50,
                    "time": 9.84375,
                    "velocity": 0.7874015748031497,
                    "duration": 0.09375
                },
                {
                    "name": "F#3",
                    "midi": 54,
                    "time": 9.9375,
                    "velocity": 0.7874015748031497,
                    "duration": 0.09375
                },
                {
                    "name": "D3",
                    "midi": 50,
                    "time": 10.03125,
                    "velocity": 0.7874015748031497,
                    "duration": 0.09375
                },
                {
                    "name": "B2",
                    "midi": 47,
                    "time": 10.125,
                    "velocity": 0.7874015748031497,
                    "duration": 0.5625
                },
                {
                    "name": "B3",
                    "midi": 59,
                    "time": 10.875,
                    "velocity": 0.7874015748031497,
                    "duration": 0.1875
                },
                {
                    "name": "C#4",
                    "midi": 61,
                    "time": 11.0625,
                    "velocity": 0.7874015748031497,
                    "duration": 0.1875
                },
                {
                    "name": "D4",
                    "midi": 62,
                    "time": 11.25,
                    "velocity": 0.7874015748031497,
                    "duration": 0.1875
                },
                {
                    "name": "C#4",
                    "midi": 61,
                    "time": 11.4375,
                    "velocity": 0.7874015748031497,
                    "duration": 0.1875
                },
                {
                    "name": "B3",
                    "midi": 59,
                    "time": 11.625,
                    "velocity": 0.7874015748031497,
                    "duration": 0.1875
                },
                {
                    "name": "E4",
                    "midi": 64,
                    "time": 11.8125,
                    "velocity": 0.7874015748031497,
                    "duration": 0.5625
                },
                {
                    "name": "E3",
                    "midi": 52,
                    "time": 12.5625,
                    "velocity": 0.7874015748031497,
                    "duration": 0.1875
                },
                {
                    "name": "F#3",
                    "midi": 54,
                    "time": 12.75,
                    "velocity": 0.7874015748031497,
                    "duration": 0.1875
                },
                {
                    "name": "G#3",
                    "midi": 56,
                    "time": 12.9375,
                    "velocity": 0.7874015748031497,
                    "duration": 0.1875
                },
                {
                    "name": "F#3",
                    "midi": 54,
                    "time": 13.125,
                    "velocity": 0.7874015748031497,
                    "duration": 0.1875
                },
                {
                    "name": "E3",
                    "midi": 52,
                    "time": 13.3125,
                    "velocity": 0.7874015748031497,
                    "duration": 0.1875
                },
                {
                    "name": "A3",
                    "midi": 57,
                    "time": 13.5,
                    "velocity": 0.7874015748031497,
                    "duration": 0.5625
                },
                {
                    "name": "A2",
                    "midi": 45,
                    "time": 14.25,
                    "velocity": 0.7874015748031497,
                    "duration": 0.1875
                },
                {
                    "name": "B2",
                    "midi": 47,
                    "time": 14.4375,
                    "velocity": 0.7874015748031497,
                    "duration": 0.1875
                },
                {
                    "name": "C#3",
                    "midi": 49,
                    "time": 14.625,
                    "velocity": 0.7874015748031497,
                    "duration": 0.1875
                },
                {
                    "name": "B2",
                    "midi": 47,
                    "time": 14.8125,
                    "velocity": 0.7874015748031497,
                    "duration": 0.1875
                },
                {
                    "name": "A2",
                    "midi": 45,
                    "time": 15,
                    "velocity": 0.7874015748031497,
                    "duration": 0.1875
                },
                {
                    "name": "D3",
                    "midi": 50,
                    "time": 15.1875,
                    "velocity": 0.7874015748031497,
                    "duration": 0.5625
                },
                {
                    "name": "D2",
                    "midi": 38,
                    "time": 15.9375,
                    "velocity": 0.7874015748031497,
                    "duration": 0.1875
                },
                {
                    "name": "E2",
                    "midi": 40,
                    "time": 16.125,
                    "velocity": 0.7874015748031497,
                    "duration": 0.1875
                },
                {
                    "name": "F#2",
                    "midi": 42,
                    "time": 16.3125,
                    "velocity": 0.7874015748031497,
                    "duration": 0.1875
                },
                {
                    "name": "E2",
                    "midi": 40,
                    "time": 16.5,
                    "velocity": 0.7874015748031497,
                    "duration": 0.1875
                },
                {
                    "name": "D2",
                    "midi": 38,
                    "time": 16.6875,
                    "velocity": 0.7874015748031497,
                    "duration": 0.1875
                },
                {
                    "name": "G2",
                    "midi": 43,
                    "time": 16.875,
                    "velocity": 0.7874015748031497,
                    "duration": 0.5625
                },
                {
                    "name": "G3",
                    "midi": 55,
                    "time": 17.4375,
                    "velocity": 0.7874015748031497,
                    "duration": 0.09375
                },
                {
                    "name": "B3",
                    "midi": 59,
                    "time": 17.53125,
                    "velocity": 0.7874015748031497,
                    "duration": 0.09375
                },
                {
                    "name": "G3",
                    "midi": 55,
                    "time": 17.625,
                    "velocity": 0.7874015748031497,
                    "duration": 0.09375
                },
                {
                    "name": "E3",
                    "midi": 52,
                    "time": 17.71875,
                    "velocity": 0.7874015748031497,
                    "duration": 0.09375
                },
                {
                    "name": "G3",
                    "midi": 55,
                    "time": 17.8125,
                    "velocity": 0.7874015748031497,
                    "duration": 0.09375
                },
                {
                    "name": "E3",
                    "midi": 52,
                    "time": 17.90625,
                    "velocity": 0.7874015748031497,
                    "duration": 0.09375
                },
                {
                    "name": "C#3",
                    "midi": 49,
                    "time": 18,
                    "velocity": 0.7874015748031497,
                    "duration": 0.09375
                },
                {
                    "name": "E3",
                    "midi": 52,
                    "time": 18.09375,
                    "velocity": 0.7874015748031497,
                    "duration": 0.09375
                },
                {
                    "name": "C#3",
                    "midi": 49,
                    "time": 18.1875,
                    "velocity": 0.7874015748031497,
                    "duration": 0.09375
                },
                {
                    "name": "A2",
                    "midi": 45,
                    "time": 18.28125,
                    "velocity": 0.7874015748031497,
                    "duration": 0.09375
                },
                {
                    "name": "C#3",
                    "midi": 49,
                    "time": 18.375,
                    "velocity": 0.7874015748031497,
                    "duration": 0.09375
                },
                {
                    "name": "A2",
                    "midi": 45,
                    "time": 18.46875,
                    "velocity": 0.7874015748031497,
                    "duration": 0.09375
                },
                {
                    "name": "F#2",
                    "midi": 42,
                    "time": 18.5625,
                    "velocity": 0.7874015748031497,
                    "duration": 0.5625
                },
                {
                    "name": "F#3",
                    "midi": 54,
                    "time": 19.125,
                    "velocity": 0.7874015748031497,
                    "duration": 0.09375
                },
                {
                    "name": "A3",
                    "midi": 57,
                    "time": 19.21875,
                    "velocity": 0.7874015748031497,
                    "duration": 0.09375
                },
                {
                    "name": "F#3",
                    "midi": 54,
                    "time": 19.3125,
                    "velocity": 0.7874015748031497,
                    "duration": 0.09375
                },
                {
                    "name": "D3",
                    "midi": 50,
                    "time": 19.40625,
                    "velocity": 0.7874015748031497,
                    "duration": 0.09375
                },
                {
                    "name": "F#3",
                    "midi": 54,
                    "time": 19.5,
                    "velocity": 0.7874015748031497,
                    "duration": 0.09375
                },
                {
                    "name": "D3",
                    "midi": 50,
                    "time": 19.59375,
                    "velocity": 0.7874015748031497,
                    "duration": 0.09375
                },
                {
                    "name": "B2",
                    "midi": 47,
                    "time": 19.6875,
                    "velocity": 0.7874015748031497,
                    "duration": 0.09375
                },
                {
                    "name": "D3",
                    "midi": 50,
                    "time": 19.78125,
                    "velocity": 0.7874015748031497,
                    "duration": 0.09375
                },
                {
                    "name": "B2",
                    "midi": 47,
                    "time": 19.875,
                    "velocity": 0.7874015748031497,
                    "duration": 0.09375
                },
                {
                    "name": "G2",
                    "midi": 43,
                    "time": 19.96875,
                    "velocity": 0.7874015748031497,
                    "duration": 0.09375
                },
                {
                    "name": "B2",
                    "midi": 47,
                    "time": 20.0625,
                    "velocity": 0.7874015748031497,
                    "duration": 0.09375
                },
                {
                    "name": "G2",
                    "midi": 43,
                    "time": 20.15625,
                    "velocity": 0.7874015748031497,
                    "duration": 0.09375
                },
                {
                    "name": "E2",
                    "midi": 40,
                    "time": 20.25,
                    "velocity": 0.7874015748031497,
                    "duration": 0.5625
                },
                {
                    "name": "E3",
                    "midi": 52,
                    "time": 20.8125,
                    "velocity": 0.7874015748031497,
                    "duration": 0.09375
                },
                {
                    "name": "G3",
                    "midi": 55,
                    "time": 20.90625,
                    "velocity": 0.7874015748031497,
                    "duration": 0.09375
                },
                {
                    "name": "E3",
                    "midi": 52,
                    "time": 21,
                    "velocity": 0.7874015748031497,
                    "duration": 0.09375
                },
                {
                    "name": "C#3",
                    "midi": 49,
                    "time": 21.09375,
                    "velocity": 0.7874015748031497,
                    "duration": 0.09375
                },
                {
                    "name": "E3",
                    "midi": 52,
                    "time": 21.1875,
                    "velocity": 0.7874015748031497,
                    "duration": 0.09375
                },
                {
                    "name": "C#3",
                    "midi": 49,
                    "time": 21.28125,
                    "velocity": 0.7874015748031497,
                    "duration": 0.09375
                },
                {
                    "name": "A2",
                    "midi": 45,
                    "time": 21.375,
                    "velocity": 0.7874015748031497,
                    "duration": 0.09375
                },
                {
                    "name": "C#3",
                    "midi": 49,
                    "time": 21.46875,
                    "velocity": 0.7874015748031497,
                    "duration": 0.09375
                },
                {
                    "name": "A2",
                    "midi": 45,
                    "time": 21.5625,
                    "velocity": 0.7874015748031497,
                    "duration": 0.09375
                },
                {
                    "name": "F#2",
                    "midi": 42,
                    "time": 21.65625,
                    "velocity": 0.7874015748031497,
                    "duration": 0.09375
                },
                {
                    "name": "A2",
                    "midi": 45,
                    "time": 21.75,
                    "velocity": 0.7874015748031497,
                    "duration": 0.09375
                },
                {
                    "name": "F#2",
                    "midi": 42,
                    "time": 21.84375,
                    "velocity": 0.7874015748031497,
                    "duration": 0.09375
                },
                {
                    "name": "D2",
                    "midi": 38,
                    "time": 21.9375,
                    "velocity": 0.7874015748031497,
                    "duration": 0.5625
                },
                {
                    "name": "D2",
                    "midi": 38,
                    "time": 22.6875,
                    "velocity": 0.7874015748031497,
                    "duration": 0.1875
                },
                {
                    "name": "E2",
                    "midi": 40,
                    "time": 22.875,
                    "velocity": 0.7874015748031497,
                    "duration": 0.1875
                },
                {
                    "name": "F#2",
                    "midi": 42,
                    "time": 23.0625,
                    "velocity": 0.7874015748031497,
                    "duration": 0.1875
                },
                {
                    "name": "E2",
                    "midi": 40,
                    "time": 23.25,
                    "velocity": 0.7874015748031497,
                    "duration": 0.1875
                },
                {
                    "name": "D2",
                    "midi": 38,
                    "time": 23.4375,
                    "velocity": 0.7874015748031497,
                    "duration": 0.1875
                },
                {
                    "name": "C#2",
                    "midi": 37,
                    "time": 23.625,
                    "velocity": 0.7874015748031497,
                    "duration": 0.5625
                },
                {
                    "name": "A2",
                    "midi": 45,
                    "time": 24.375,
                    "velocity": 0.7874015748031497,
                    "duration": 0.1875
                },
                {
                    "name": "B2",
                    "midi": 47,
                    "time": 24.5625,
                    "velocity": 0.7874015748031497,
                    "duration": 0.1875
                },
                {
                    "name": "C#3",
                    "midi": 49,
                    "time": 24.75,
                    "velocity": 0.7874015748031497,
                    "duration": 0.1875
                },
                {
                    "name": "B2",
                    "midi": 47,
                    "time": 24.9375,
                    "velocity": 0.7874015748031497,
                    "duration": 0.1875
                },
                {
                    "name": "A2",
                    "midi": 45,
                    "time": 25.125,
                    "velocity": 0.7874015748031497,
                    "duration": 0.1875
                },
                {
                    "name": "D3",
                    "midi": 50,
                    "time": 25.3125,
                    "velocity": 0.7874015748031497,
                    "duration": 0.75
                },
                {
                    "name": "E3",
                    "midi": 52,
                    "time": 26.0625,
                    "velocity": 0.7874015748031497,
                    "duration": 0.1875
                },
                {
                    "name": "F#3",
                    "midi": 54,
                    "time": 26.25,
                    "velocity": 0.7874015748031497,
                    "duration": 0.1875
                },
                {
                    "name": "E3",
                    "midi": 52,
                    "time": 26.4375,
                    "velocity": 0.7874015748031497,
                    "duration": 0.1875
                },
                {
                    "name": "F#3",
                    "midi": 54,
                    "time": 26.625,
                    "velocity": 0.7874015748031497,
                    "duration": 0.1875
                },
                {
                    "name": "D3",
                    "midi": 50,
                    "time": 26.8125,
                    "velocity": 0.7874015748031497,
                    "duration": 0.1875
                },
                {
                    "name": "C#3",
                    "midi": 49,
                    "time": 27,
                    "velocity": 0.7874015748031497,
                    "duration": 0.5625
                },
                {
                    "name": "E3",
                    "midi": 52,
                    "time": 28.6875,
                    "velocity": 0.7874015748031497,
                    "duration": 0.5625
                },
                {
                    "name": "A2",
                    "midi": 45,
                    "time": 30.375,
                    "velocity": 0.7874015748031497,
                    "duration": 0.5625
                },
                {
                    "name": "F#3",
                    "midi": 54,
                    "time": 30.9375,
                    "velocity": 0.7874015748031497,
                    "duration": 1.125
                },
                {
                    "name": "G3",
                    "midi": 55,
                    "time": 32.0625,
                    "velocity": 0.7874015748031497,
                    "duration": 0.5625
                },
                {
                    "name": "E3",
                    "midi": 52,
                    "time": 32.8125,
                    "velocity": 0.7874015748031497,
                    "duration": 0.1875
                },
                {
                    "name": "F#3",
                    "midi": 54,
                    "time": 33,
                    "velocity": 0.7874015748031497,
                    "duration": 0.1875
                },
                {
                    "name": "G3",
                    "midi": 55,
                    "time": 33.1875,
                    "velocity": 0.7874015748031497,
                    "duration": 0.1875
                },
                {
                    "name": "F#3",
                    "midi": 54,
                    "time": 33.375,
                    "velocity": 0.7874015748031497,
                    "duration": 0.1875
                },
                {
                    "name": "E3",
                    "midi": 52,
                    "time": 33.5625,
                    "velocity": 0.7874015748031497,
                    "duration": 0.1875
                },
                {
                    "name": "A3",
                    "midi": 57,
                    "time": 33.75,
                    "velocity": 0.7874015748031497,
                    "duration": 0.5625
                },
                {
                    "name": "A2",
                    "midi": 45,
                    "time": 34.5,
                    "velocity": 0.7874015748031497,
                    "duration": 0.1875
                },
                {
                    "name": "B2",
                    "midi": 47,
                    "time": 34.6875,
                    "velocity": 0.7874015748031497,
                    "duration": 0.1875
                },
                {
                    "name": "C#3",
                    "midi": 49,
                    "time": 34.875,
                    "velocity": 0.7874015748031497,
                    "duration": 0.1875
                },
                {
                    "name": "B2",
                    "midi": 47,
                    "time": 35.0625,
                    "velocity": 0.7874015748031497,
                    "duration": 0.1875
                },
                {
                    "name": "A2",
                    "midi": 45,
                    "time": 35.25,
                    "velocity": 0.7874015748031497,
                    "duration": 0.1875
                },
                {
                    "name": "D3",
                    "midi": 50,
                    "time": 35.4375,
                    "velocity": 0.7874015748031497,
                    "duration": 0.5625
                },
                {
                    "name": "D3",
                    "midi": 50,
                    "time": 36.1875,
                    "velocity": 0.7874015748031497,
                    "duration": 0.1875
                },
                {
                    "name": "E3",
                    "midi": 52,
                    "time": 36.375,
                    "velocity": 0.7874015748031497,
                    "duration": 0.1875
                },
                {
                    "name": "F#3",
                    "midi": 54,
                    "time": 36.5625,
                    "velocity": 0.7874015748031497,
                    "duration": 0.1875
                },
                {
                    "name": "E3",
                    "midi": 52,
                    "time": 36.75,
                    "velocity": 0.7874015748031497,
                    "duration": 0.1875
                },
                {
                    "name": "D3",
                    "midi": 50,
                    "time": 36.9375,
                    "velocity": 0.7874015748031497,
                    "duration": 0.1875
                },
                {
                    "name": "G3",
                    "midi": 55,
                    "time": 37.125,
                    "velocity": 0.7874015748031497,
                    "duration": 0.5625
                },
                {
                    "name": "G3",
                    "midi": 55,
                    "time": 37.875,
                    "velocity": 0.7874015748031497,
                    "duration": 0.1875
                },
                {
                    "name": "F#3",
                    "midi": 54,
                    "time": 38.0625,
                    "velocity": 0.7874015748031497,
                    "duration": 0.1875
                },
                {
                    "name": "E3",
                    "midi": 52,
                    "time": 38.25,
                    "velocity": 0.7874015748031497,
                    "duration": 0.1875
                },
                {
                    "name": "F#3",
                    "midi": 54,
                    "time": 38.4375,
                    "velocity": 0.7874015748031497,
                    "duration": 0.1875
                },
                {
                    "name": "G3",
                    "midi": 55,
                    "time": 38.625,
                    "velocity": 0.7874015748031497,
                    "duration": 0.1875
                },
                {
                    "name": "C#3",
                    "midi": 49,
                    "time": 38.8125,
                    "velocity": 0.7874015748031497,
                    "duration": 0.5625
                },
                {
                    "name": "C#3",
                    "midi": 49,
                    "time": 39.5625,
                    "velocity": 0.7874015748031497,
                    "duration": 0.1875
                },
                {
                    "name": "B2",
                    "midi": 47,
                    "time": 39.75,
                    "velocity": 0.7874015748031497,
                    "duration": 0.1875
                },
                {
                    "name": "A#2",
                    "midi": 46,
                    "time": 39.9375,
                    "velocity": 0.7874015748031497,
                    "duration": 0.1875
                },
                {
                    "name": "B2",
                    "midi": 47,
                    "time": 40.125,
                    "velocity": 0.7874015748031497,
                    "duration": 0.1875
                },
                {
                    "name": "C#3",
                    "midi": 49,
                    "time": 40.3125,
                    "velocity": 0.7874015748031497,
                    "duration": 0.1875
                },
                {
                    "name": "F#2",
                    "midi": 42,
                    "time": 40.5,
                    "velocity": 0.7874015748031497,
                    "duration": 0.5625
                },
                {
                    "name": "F#3",
                    "midi": 54,
                    "time": 41.25,
                    "velocity": 0.7874015748031497,
                    "duration": 0.1875
                },
                {
                    "name": "E3",
                    "midi": 52,
                    "time": 41.4375,
                    "velocity": 0.7874015748031497,
                    "duration": 0.1875
                },
                {
                    "name": "D3",
                    "midi": 50,
                    "time": 41.625,
                    "velocity": 0.7874015748031497,
                    "duration": 0.1875
                },
                {
                    "name": "E3",
                    "midi": 52,
                    "time": 41.8125,
                    "velocity": 0.7874015748031497,
                    "duration": 0.1875
                },
                {
                    "name": "F#3",
                    "midi": 54,
                    "time": 42,
                    "velocity": 0.7874015748031497,
                    "duration": 0.1875
                },
                {
                    "name": "B2",
                    "midi": 47,
                    "time": 42.1875,
                    "velocity": 0.7874015748031497,
                    "duration": 0.5625
                },
                {
                    "name": "D3",
                    "midi": 50,
                    "time": 42.75,
                    "velocity": 0.7874015748031497,
                    "duration": 0.09375
                },
                {
                    "name": "B2",
                    "midi": 47,
                    "time": 42.84375,
                    "velocity": 0.7874015748031497,
                    "duration": 0.09375
                },
                {
                    "name": "D3",
                    "midi": 50,
                    "time": 42.9375,
                    "velocity": 0.7874015748031497,
                    "duration": 0.09375
                },
                {
                    "name": "F#3",
                    "midi": 54,
                    "time": 43.03125,
                    "velocity": 0.7874015748031497,
                    "duration": 0.09375
                },
                {
                    "name": "D3",
                    "midi": 50,
                    "time": 43.125,
                    "velocity": 0.7874015748031497,
                    "duration": 0.09375
                },
                {
                    "name": "F#3",
                    "midi": 54,
                    "time": 43.21875,
                    "velocity": 0.7874015748031497,
                    "duration": 0.09375
                },
                {
                    "name": "B3",
                    "midi": 59,
                    "time": 43.3125,
                    "velocity": 0.7874015748031497,
                    "duration": 0.09375
                },
                {
                    "name": "G3",
                    "midi": 55,
                    "time": 43.40625,
                    "velocity": 0.7874015748031497,
                    "duration": 0.09375
                },
                {
                    "name": "B3",
                    "midi": 59,
                    "time": 43.5,
                    "velocity": 0.7874015748031497,
                    "duration": 0.09375
                },
                {
                    "name": "E4",
                    "midi": 64,
                    "time": 43.59375,
                    "velocity": 0.7874015748031497,
                    "duration": 0.09375
                },
                {
                    "name": "B3",
                    "midi": 59,
                    "time": 43.6875,
                    "velocity": 0.7874015748031497,
                    "duration": 0.09375
                },
                {
                    "name": "E4",
                    "midi": 64,
                    "time": 43.78125,
                    "velocity": 0.7874015748031497,
                    "duration": 0.09375
                },
                {
                    "name": "A4",
                    "midi": 69,
                    "time": 43.875,
                    "velocity": 0.7874015748031497,
                    "duration": 0.5625
                },
                {
                    "name": "C#3",
                    "midi": 49,
                    "time": 44.4375,
                    "velocity": 0.7874015748031497,
                    "duration": 0.09375
                },
                {
                    "name": "A2",
                    "midi": 45,
                    "time": 44.53125,
                    "velocity": 0.7874015748031497,
                    "duration": 0.09375
                },
                {
                    "name": "C#3",
                    "midi": 49,
                    "time": 44.625,
                    "velocity": 0.7874015748031497,
                    "duration": 0.09375
                },
                {
                    "name": "E3",
                    "midi": 52,
                    "time": 44.71875,
                    "velocity": 0.7874015748031497,
                    "duration": 0.09375
                },
                {
                    "name": "C#3",
                    "midi": 49,
                    "time": 44.8125,
                    "velocity": 0.7874015748031497,
                    "duration": 0.09375
                },
                {
                    "name": "E3",
                    "midi": 52,
                    "time": 44.90625,
                    "velocity": 0.7874015748031497,
                    "duration": 0.09375
                },
                {
                    "name": "A3",
                    "midi": 57,
                    "time": 45,
                    "velocity": 0.7874015748031497,
                    "duration": 0.09375
                },
                {
                    "name": "F#3",
                    "midi": 54,
                    "time": 45.09375,
                    "velocity": 0.7874015748031497,
                    "duration": 0.09375
                },
                {
                    "name": "A3",
                    "midi": 57,
                    "time": 45.1875,
                    "velocity": 0.7874015748031497,
                    "duration": 0.09375
                },
                {
                    "name": "D4",
                    "midi": 62,
                    "time": 45.28125,
                    "velocity": 0.7874015748031497,
                    "duration": 0.09375
                },
                {
                    "name": "A3",
                    "midi": 57,
                    "time": 45.375,
                    "velocity": 0.7874015748031497,
                    "duration": 0.09375
                },
                {
                    "name": "D4",
                    "midi": 62,
                    "time": 45.46875,
                    "velocity": 0.7874015748031497,
                    "duration": 0.09375
                },
                {
                    "name": "G4",
                    "midi": 67,
                    "time": 45.5625,
                    "velocity": 0.7874015748031497,
                    "duration": 0.09375
                },
                {
                    "name": "B4",
                    "midi": 71,
                    "time": 45.65625,
                    "velocity": 0.7874015748031497,
                    "duration": 0.09375
                },
                {
                    "name": "G4",
                    "midi": 67,
                    "time": 45.75,
                    "velocity": 0.7874015748031497,
                    "duration": 0.09375
                },
                {
                    "name": "D4",
                    "midi": 62,
                    "time": 45.84375,
                    "velocity": 0.7874015748031497,
                    "duration": 0.09375
                },
                {
                    "name": "G4",
                    "midi": 67,
                    "time": 45.9375,
                    "velocity": 0.7874015748031497,
                    "duration": 0.09375
                },
                {
                    "name": "D4",
                    "midi": 62,
                    "time": 46.03125,
                    "velocity": 0.7874015748031497,
                    "duration": 0.09375
                },
                {
                    "name": "B3",
                    "midi": 59,
                    "time": 46.125,
                    "velocity": 0.7874015748031497,
                    "duration": 0.09375
                },
                {
                    "name": "D4",
                    "midi": 62,
                    "time": 46.21875,
                    "velocity": 0.7874015748031497,
                    "duration": 0.09375
                },
                {
                    "name": "B3",
                    "midi": 59,
                    "time": 46.3125,
                    "velocity": 0.7874015748031497,
                    "duration": 0.09375
                },
                {
                    "name": "G3",
                    "midi": 55,
                    "time": 46.40625,
                    "velocity": 0.7874015748031497,
                    "duration": 0.09375
                },
                {
                    "name": "B3",
                    "midi": 59,
                    "time": 46.5,
                    "velocity": 0.7874015748031497,
                    "duration": 0.09375
                },
                {
                    "name": "G3",
                    "midi": 55,
                    "time": 46.59375,
                    "velocity": 0.7874015748031497,
                    "duration": 0.09375
                },
                {
                    "name": "E3",
                    "midi": 52,
                    "time": 46.6875,
                    "velocity": 0.7874015748031497,
                    "duration": 0.09375
                },
                {
                    "name": "G3",
                    "midi": 55,
                    "time": 46.78125,
                    "velocity": 0.7874015748031497,
                    "duration": 0.09375
                },
                {
                    "name": "E3",
                    "midi": 52,
                    "time": 46.875,
                    "velocity": 0.7874015748031497,
                    "duration": 0.09375
                },
                {
                    "name": "C#3",
                    "midi": 49,
                    "time": 46.96875,
                    "velocity": 0.7874015748031497,
                    "duration": 0.09375
                },
                {
                    "name": "E3",
                    "midi": 52,
                    "time": 47.0625,
                    "velocity": 0.7874015748031497,
                    "duration": 0.09375
                },
                {
                    "name": "C#3",
                    "midi": 49,
                    "time": 47.15625,
                    "velocity": 0.7874015748031497,
                    "duration": 0.09375
                },
                {
                    "name": "A#2",
                    "midi": 46,
                    "time": 47.25,
                    "velocity": 0.7874015748031497,
                    "duration": 0.75
                },
                {
                    "name": "B2",
                    "midi": 47,
                    "time": 48,
                    "velocity": 0.7874015748031497,
                    "duration": 0.1875
                },
                {
                    "name": "C#3",
                    "midi": 49,
                    "time": 48.1875,
                    "velocity": 0.7874015748031497,
                    "duration": 0.1875
                },
                {
                    "name": "F#2",
                    "midi": 42,
                    "time": 48.375,
                    "velocity": 0.7874015748031497,
                    "duration": 0.1875
                },
                {
                    "name": "B2",
                    "midi": 47,
                    "time": 48.5625,
                    "velocity": 0.7874015748031497,
                    "duration": 0.1875
                },
                {
                    "name": "A#2",
                    "midi": 46,
                    "time": 48.75,
                    "velocity": 0.7874015748031497,
                    "duration": 0.1875
                },
                {
                    "name": "B2",
                    "midi": 47,
                    "time": 48.9375,
                    "velocity": 0.7874015748031497,
                    "duration": 0.5625
                },
                {
                    "name": "B2",
                    "midi": 47,
                    "time": 50.0625,
                    "velocity": 0.7874015748031497,
                    "duration": 0.5625
                },
                {
                    "name": "E3",
                    "midi": 52,
                    "time": 50.625,
                    "velocity": 0.7874015748031497,
                    "duration": 3.375
                },
                {
                    "name": "D3",
                    "midi": 50,
                    "time": 54,
                    "velocity": 0.7874015748031497,
                    "duration": 0.375
                },
                {
                    "name": "B3",
                    "midi": 59,
                    "time": 55.6875,
                    "velocity": 0.7874015748031497,
                    "duration": 0.09375
                },
                {
                    "name": "G3",
                    "midi": 55,
                    "time": 55.78125,
                    "velocity": 0.7874015748031497,
                    "duration": 0.09375
                },
                {
                    "name": "B3",
                    "midi": 59,
                    "time": 55.875,
                    "velocity": 0.7874015748031497,
                    "duration": 0.09375
                },
                {
                    "name": "D4",
                    "midi": 62,
                    "time": 55.96875,
                    "velocity": 0.7874015748031497,
                    "duration": 0.09375
                },
                {
                    "name": "G4",
                    "midi": 67,
                    "time": 56.0625,
                    "velocity": 0.7874015748031497,
                    "duration": 0.09375
                },
                {
                    "name": "D4",
                    "midi": 62,
                    "time": 56.15625,
                    "velocity": 0.7874015748031497,
                    "duration": 0.09375
                },
                {
                    "name": "B3",
                    "midi": 59,
                    "time": 56.25,
                    "velocity": 0.7874015748031497,
                    "duration": 0.09375
                },
                {
                    "name": "D4",
                    "midi": 62,
                    "time": 56.34375,
                    "velocity": 0.7874015748031497,
                    "duration": 0.09375
                },
                {
                    "name": "B3",
                    "midi": 59,
                    "time": 56.4375,
                    "velocity": 0.7874015748031497,
                    "duration": 0.09375
                },
                {
                    "name": "G3",
                    "midi": 55,
                    "time": 56.53125,
                    "velocity": 0.7874015748031497,
                    "duration": 0.09375
                },
                {
                    "name": "B3",
                    "midi": 59,
                    "time": 56.625,
                    "velocity": 0.7874015748031497,
                    "duration": 0.09375
                },
                {
                    "name": "G3",
                    "midi": 55,
                    "time": 56.71875,
                    "velocity": 0.7874015748031497,
                    "duration": 0.09375
                },
                {
                    "name": "D3",
                    "midi": 50,
                    "time": 56.8125,
                    "velocity": 0.7874015748031497,
                    "duration": 0.09375
                },
                {
                    "name": "G3",
                    "midi": 55,
                    "time": 56.90625,
                    "velocity": 0.7874015748031497,
                    "duration": 0.09375
                },
                {
                    "name": "D3",
                    "midi": 50,
                    "time": 57,
                    "velocity": 0.7874015748031497,
                    "duration": 0.09375
                },
                {
                    "name": "B2",
                    "midi": 47,
                    "time": 57.09375,
                    "velocity": 0.7874015748031497,
                    "duration": 0.09375
                },
                {
                    "name": "D3",
                    "midi": 50,
                    "time": 57.1875,
                    "velocity": 0.7874015748031497,
                    "duration": 0.09375
                },
                {
                    "name": "B2",
                    "midi": 47,
                    "time": 57.28125,
                    "velocity": 0.7874015748031497,
                    "duration": 0.09375
                },
                {
                    "name": "F2",
                    "midi": 41,
                    "time": 57.375,
                    "velocity": 0.7874015748031497,
                    "duration": 0.5625
                },
                {
                    "name": "F#2",
                    "midi": 42,
                    "time": 59.0625,
                    "velocity": 0.7874015748031497,
                    "duration": 0.5625
                },
                {
                    "name": "E3",
                    "midi": 52,
                    "time": 59.8125,
                    "velocity": 0.7874015748031497,
                    "duration": 0.1875
                },
                {
                    "name": "F#3",
                    "midi": 54,
                    "time": 60,
                    "velocity": 0.7874015748031497,
                    "duration": 0.1875
                },
                {
                    "name": "G3",
                    "midi": 55,
                    "time": 60.1875,
                    "velocity": 0.7874015748031497,
                    "duration": 0.1875
                },
                {
                    "name": "F#3",
                    "midi": 54,
                    "time": 60.375,
                    "velocity": 0.7874015748031497,
                    "duration": 0.1875
                },
                {
                    "name": "E3",
                    "midi": 52,
                    "time": 60.5625,
                    "velocity": 0.7874015748031497,
                    "duration": 0.1875
                },
                {
                    "name": "D3",
                    "midi": 50,
                    "time": 60.75,
                    "velocity": 0.7874015748031497,
                    "duration": 0.375
                },
                {
                    "name": "E3",
                    "midi": 52,
                    "time": 61.125,
                    "velocity": 0.7874015748031497,
                    "duration": 0.1875
                },
                {
                    "name": "F#3",
                    "midi": 54,
                    "time": 61.3125,
                    "velocity": 0.7874015748031497,
                    "duration": 0.375
                },
                {
                    "name": "E3",
                    "midi": 52,
                    "time": 61.6875,
                    "velocity": 0.7874015748031497,
                    "duration": 0.1875
                },
                {
                    "name": "F#3",
                    "midi": 54,
                    "time": 61.875,
                    "velocity": 0.7874015748031497,
                    "duration": 0.375
                },
                {
                    "name": "F#2",
                    "midi": 42,
                    "time": 62.25,
                    "velocity": 0.7874015748031497,
                    "duration": 0.1875
                },
                {
                    "name": "B2",
                    "midi": 47,
                    "time": 62.4375,
                    "velocity": 0.7874015748031497,
                    "duration": 1.6875
                }
            ],
            "controlChanges": {
                "7": [
                    {
                        "number": 7,
                        "time": 0,
                        "value": 0.7874015748031497
                    }
                ],
                "10": [
                    {
                        "number": 10,
                        "time": 0,
                        "value": 0.25196850393700787
                    }
                ]
            },
            "id": 3,
            "name": "Johann Sebastian Bach  (1685-1750)",
            "instrumentNumber": 6,
            "instrument": "harpsichord",
            "instrumentFamily": "piano",
            "channelNumber": 2,
            "isPercussion": false
        },
        {
            "startTime": 0,
            "duration": 0,
            "length": 0,
            "notes": [],
            "controlChanges": {},
            "id": 4,
            "name": "Inventions and Sinfonias ( 2 and 3-Part Inventions )"
        },
        {
            "startTime": 0,
            "duration": 0,
            "length": 0,
            "notes": [],
            "controlChanges": {},
            "id": 5,
            "name": "--------------------------------------"
        },
        {
            "startTime": 0,
            "duration": 0,
            "length": 0,
            "notes": [],
            "controlChanges": {},
            "id": 6,
            "name": "Sinfonia No. 15 in B minor - BWV 801"
        },
        {
            "startTime": 0,
            "duration": 0,
            "length": 0,
            "notes": [],
            "controlChanges": {},
            "id": 7,
            "name": "--------------------------------------"
        },
        {
            "startTime": 0,
            "duration": 0,
            "length": 0,
            "notes": [],
            "controlChanges": {},
            "id": 8,
            "name": "Original sequence by an unknown author"
        },
        {
            "startTime": 0,
            "duration": 0,
            "length": 0,
            "notes": [],
            "controlChanges": {},
            "id": 9,
            "name": "Modified with Cakewalk Pro Audio by"
        },
        {
            "startTime": 0,
            "duration": 0,
            "length": 0,
            "notes": [],
            "controlChanges": {},
            "id": 10,
            "name": "David J. Grossman - dave@unpronounceable.com"
        },
        {
            "startTime": 0,
            "duration": 0,
            "length": 0,
            "notes": [],
            "controlChanges": {},
            "id": 11,
            "name": "This and other Bach MIDI files can be found at:"
        },
        {
            "startTime": 0,
            "duration": 0,
            "length": 0,
            "notes": [],
            "controlChanges": {},
            "id": 12,
            "name": "Dave's J.S. Bach Page"
        },
        {
            "startTime": 0,
            "duration": 0,
            "length": 0,
            "notes": [],
            "controlChanges": {},
            "id": 13,
            "name": "http://www.unpronounceable.com/bach"
        },
        {
            "startTime": 0,
            "duration": 0,
            "length": 0,
            "notes": [],
            "controlChanges": {},
            "id": 14,
            "name": "--------------------------------------"
        },
        {
            "startTime": 0,
            "duration": 0,
            "length": 0,
            "notes": [],
            "controlChanges": {},
            "id": 15,
            "name": "Original Filename: bwv801.mid"
        },
        {
            "startTime": 0,
            "duration": 0,
            "length": 0,
            "notes": [],
            "controlChanges": {},
            "id": 16,
            "name": "Last Modified: March 18, 1997"
        }
    ]
}