{
    "header": {
        "PPQ": 384,
        "timeSignature": [
            4,
            4
        ],
        "bpm": 64.99999458333379,
        "name": "untitled"
    },
    "startTime": 0,
    "duration": 296.29810161458437,
    "tracks": [
        {
            "startTime": 0,
            "duration": 0,
            "length": 0,
            "notes": [],
            "controlChanges": {},
            "id": 0,
            "name": "untitled"
        },
        {
            "startTime": 0,
            "duration": 296.2981016145833,
            "length": 1654,
            "notes": [
                {
                    "name": "C6",
                    "midi": 84,
                    "time": 0,
                    "velocity": 0.7874015748031497,
                    "duration": 0.2211538645833333
                },
                {
                    "name": "G5",
                    "midi": 79,
                    "time": 0.15384616666666664,
                    "velocity": 0.7874015748031497,
                    "duration": 0.22115386458333328
                },
                {
                    "name": "D#5",
                    "midi": 75,
                    "time": 0.3076923333333333,
                    "velocity": 0.7874015748031497,
                    "duration": 0.22115386458333325
                },
                {
                    "name": "C5",
                    "midi": 72,
                    "time": 0.4615384999999999,
                    "velocity": 0.7874015748031497,
                    "duration": 0.22115386458333325
                },
                {
                    "name": "G4",
                    "midi": 67,
                    "time": 0.6057692812499998,
                    "velocity": 0.7874015748031497,
                    "duration": 0.2211538645833333
                },
                {
                    "name": "D#4",
                    "midi": 63,
                    "time": 0.7596154479166665,
                    "velocity": 0.7874015748031497,
                    "duration": 0.2211538645833333
                },
                {
                    "name": "C4",
                    "midi": 60,
                    "time": 0.9230769999999998,
                    "velocity": 0.7874015748031497,
                    "duration": 0.3076923333333331
                },
                {
                    "name": "C6",
                    "midi": 84,
                    "time": 1.3846154999999996,
                    "velocity": 0.7874015748031497,
                    "duration": 0.45192311458333334
                },
                {
                    "name": "G5",
                    "midi": 79,
                    "time": 1.3846154999999996,
                    "velocity": 0.7874015748031497,
                    "duration": 0.45192311458333334
                },
                {
                    "name": "D#5",
                    "midi": 75,
                    "time": 1.3846154999999996,
                    "velocity": 0.7874015748031497,
                    "duration": 0.45192311458333334
                },
                {
                    "name": "D#5",
                    "midi": 75,
                    "time": 1.8461539999999996,
                    "velocity": 0.7874015748031497,
                    "duration": 0.4519231145833331
                },
                {
                    "name": "G5",
                    "midi": 79,
                    "time": 1.8461539999999996,
                    "velocity": 0.7874015748031497,
                    "duration": 0.8653846874999995
                },
                {
                    "name": "C6",
                    "midi": 84,
                    "time": 1.8461539999999996,
                    "velocity": 0.7874015748031497,
                    "duration": 0.4519231145833331
                },
                {
                    "name": "B5",
                    "midi": 83,
                    "time": 2.3076924999999995,
                    "velocity": 0.7874015748031497,
                    "duration": 0.30769233333333323
                },
                {
                    "name": "D5",
                    "midi": 74,
                    "time": 2.3076924999999995,
                    "velocity": 0.7874015748031497,
                    "duration": 0.30769233333333323
                },
                {
                    "name": "G5",
                    "midi": 79,
                    "time": 2.7307694583333326,
                    "velocity": 0.7874015748031497,
                    "duration": 0.17307693749999986
                },
                {
                    "name": "F5",
                    "midi": 77,
                    "time": 2.8557694687499993,
                    "velocity": 0.7874015748031497,
                    "duration": 0.08653846874999971
                },
                {
                    "name": "G5",
                    "midi": 79,
                    "time": 2.942307937499999,
                    "velocity": 0.7874015748031497,
                    "duration": 0.08653846875000015
                },
                {
                    "name": "F5",
                    "midi": 77,
                    "time": 3.0192310208333324,
                    "velocity": 0.7874015748031497,
                    "duration": 0.08653846875000015
                },
                {
                    "name": "G5",
                    "midi": 79,
                    "time": 3.096154104166666,
                    "velocity": 0.7874015748031497,
                    "duration": 0.08653846875000015
                },
                {
                    "name": "F5",
                    "midi": 77,
                    "time": 3.182692572916666,
                    "velocity": 0.7874015748031497,
                    "duration": 0.08653846875000015
                },
                {
                    "name": "G5",
                    "midi": 79,
                    "time": 3.2596156562499994,
                    "velocity": 0.7874015748031497,
                    "duration": 0.08653846875000015
                },
                {
                    "name": "F5",
                    "midi": 77,
                    "time": 3.336538739583333,
                    "velocity": 0.7874015748031497,
                    "duration": 0.08653846875000015
                },
                {
                    "name": "E5",
                    "midi": 76,
                    "time": 3.413461822916666,
                    "velocity": 0.7874015748031497,
                    "duration": 0.11538462499999991
                },
                {
                    "name": "F5",
                    "midi": 77,
                    "time": 3.528846447916666,
                    "velocity": 0.7874015748031497,
                    "duration": 0.11538462499999991
                },
                {
                    "name": "A#5",
                    "midi": 82,
                    "time": 3.6923079999999993,
                    "velocity": 0.7874015748031497,
                    "duration": 0.22115386458333353
                },
                {
                    "name": "G5",
                    "midi": 79,
                    "time": 3.846154166666666,
                    "velocity": 0.7874015748031497,
                    "duration": 0.22115386458333264
                },
                {
                    "name": "E5",
                    "midi": 76,
                    "time": 4.0000003333333325,
                    "velocity": 0.7874015748031497,
                    "duration": 0.2211538645833322
                },
                {
                    "name": "C5",
                    "midi": 72,
                    "time": 4.153846499999998,
                    "velocity": 0.7874015748031497,
                    "duration": 0.2211538645833322
                },
                {
                    "name": "G4",
                    "midi": 67,
                    "time": 4.298077281249998,
                    "velocity": 0.7874015748031497,
                    "duration": 0.2211538645833322
                },
                {
                    "name": "E4",
                    "midi": 64,
                    "time": 4.451923447916664,
                    "velocity": 0.7874015748031497,
                    "duration": 0.22115386458333308
                },
                {
                    "name": "C4",
                    "midi": 60,
                    "time": 4.615384999999996,
                    "velocity": 0.7874015748031497,
                    "duration": 0.3076923333333337
                },
                {
                    "name": "A#5",
                    "midi": 82,
                    "time": 5.076923499999997,
                    "velocity": 0.7874015748031497,
                    "duration": 0.4519231145833329
                },
                {
                    "name": "G5",
                    "midi": 79,
                    "time": 5.076923499999997,
                    "velocity": 0.7874015748031497,
                    "duration": 0.4519231145833329
                },
                {
                    "name": "C5",
                    "midi": 72,
                    "time": 5.076923499999997,
                    "velocity": 0.7874015748031497,
                    "duration": 0.4519231145833329
                },
                {
                    "name": "A#5",
                    "midi": 82,
                    "time": 5.538461999999996,
                    "velocity": 0.7874015748031497,
                    "duration": 0.4519231145833329
                },
                {
                    "name": "C5",
                    "midi": 72,
                    "time": 5.538461999999996,
                    "velocity": 0.7874015748031497,
                    "duration": 0.8653846874999997
                },
                {
                    "name": "G5",
                    "midi": 79,
                    "time": 5.538461999999996,
                    "velocity": 0.7874015748031497,
                    "duration": 0.4519231145833329
                },
                {
                    "name": "A5",
                    "midi": 81,
                    "time": 6.000000499999996,
                    "velocity": 0.7874015748031497,
                    "duration": 0.3076923333333337
                },
                {
                    "name": "F5",
                    "midi": 77,
                    "time": 6.000000499999996,
                    "velocity": 0.7874015748031497,
                    "duration": 0.3076923333333337
                },
                {
                    "name": "D5",
                    "midi": 74,
                    "time": 6.42307745833333,
                    "velocity": 0.7874015748031497,
                    "duration": 0.1730769375000003
                },
                {
                    "name": "C5",
                    "midi": 72,
                    "time": 6.548077468749996,
                    "velocity": 0.7874015748031497,
                    "duration": 0.0865384687500006
                },
                {
                    "name": "D5",
                    "midi": 74,
                    "time": 6.634615937499997,
                    "velocity": 0.7874015748031497,
                    "duration": 0.08653846874999971
                },
                {
                    "name": "C5",
                    "midi": 72,
                    "time": 6.71153902083333,
                    "velocity": 0.7874015748031497,
                    "duration": 0.08653846874999971
                },
                {
                    "name": "D5",
                    "midi": 74,
                    "time": 6.788462104166663,
                    "velocity": 0.7874015748031497,
                    "duration": 0.08653846874999971
                },
                {
                    "name": "C5",
                    "midi": 72,
                    "time": 6.8750005729166626,
                    "velocity": 0.7874015748031497,
                    "duration": 0.08653846874999971
                },
                {
                    "name": "D5",
                    "midi": 74,
                    "time": 6.9519236562499955,
                    "velocity": 0.7874015748031497,
                    "duration": 0.08653846874999971
                },
                {
                    "name": "C5",
                    "midi": 72,
                    "time": 7.0288467395833285,
                    "velocity": 0.7874015748031497,
                    "duration": 0.08653846874999971
                },
                {
                    "name": "B4",
                    "midi": 71,
                    "time": 7.1057698229166615,
                    "velocity": 0.7874015748031497,
                    "duration": 0.11538462499999991
                },
                {
                    "name": "C5",
                    "midi": 72,
                    "time": 7.221154447916661,
                    "velocity": 0.7874015748031497,
                    "duration": 0.11538462499999991
                },
                {
                    "name": "G#5",
                    "midi": 80,
                    "time": 7.384615999999995,
                    "velocity": 0.7874015748031497,
                    "duration": 0.19230770833333377
                },
                {
                    "name": "F5",
                    "midi": 77,
                    "time": 7.538462166666662,
                    "velocity": 0.7874015748031497,
                    "duration": 0.19230770833333377
                },
                {
                    "name": "D5",
                    "midi": 74,
                    "time": 7.692308333333329,
                    "velocity": 0.7874015748031497,
                    "duration": 0.19230770833333377
                },
                {
                    "name": "B4",
                    "midi": 71,
                    "time": 7.8461544999999955,
                    "velocity": 0.7874015748031497,
                    "duration": 0.19230770833333288
                },
                {
                    "name": "F4",
                    "midi": 65,
                    "time": 7.990385281249996,
                    "velocity": 0.7874015748031497,
                    "duration": 0.19230770833333288
                },
                {
                    "name": "D4",
                    "midi": 62,
                    "time": 8.144231447916662,
                    "velocity": 0.7874015748031497,
                    "duration": 0.19230770833333288
                },
                {
                    "name": "B3",
                    "midi": 59,
                    "time": 8.307692999999995,
                    "velocity": 0.7874015748031497,
                    "duration": 0.3076923333333319
                },
                {
                    "name": "G#5",
                    "midi": 80,
                    "time": 8.769231499999993,
                    "velocity": 0.7874015748031497,
                    "duration": 0.24038463541666744
                },
                {
                    "name": "F5",
                    "midi": 77,
                    "time": 8.769231499999993,
                    "velocity": 0.7874015748031497,
                    "duration": 0.24038463541666744
                },
                {
                    "name": "D5",
                    "midi": 74,
                    "time": 8.769231499999993,
                    "velocity": 0.7874015748031497,
                    "duration": 0.24038463541666744
                },
                {
                    "name": "B4",
                    "midi": 71,
                    "time": 8.769231499999993,
                    "velocity": 0.7874015748031497,
                    "duration": 0.24038463541666744
                },
                {
                    "name": "G#5",
                    "midi": 80,
                    "time": 9.230769999999994,
                    "velocity": 0.7874015748031497,
                    "duration": 0.4807692708333331
                },
                {
                    "name": "F5",
                    "midi": 77,
                    "time": 9.230769999999994,
                    "velocity": 0.7874015748031497,
                    "duration": 0.4807692708333331
                },
                {
                    "name": "D5",
                    "midi": 74,
                    "time": 9.230769999999994,
                    "velocity": 0.7874015748031497,
                    "duration": 0.4807692708333331
                },
                {
                    "name": "B4",
                    "midi": 71,
                    "time": 9.230769999999994,
                    "velocity": 0.7874015748031497,
                    "duration": 0.4807692708333331
                },
                {
                    "name": "G5",
                    "midi": 79,
                    "time": 9.692308499999994,
                    "velocity": 0.7874015748031497,
                    "duration": 0.3461538750000006
                },
                {
                    "name": "D#5",
                    "midi": 75,
                    "time": 9.692308499999994,
                    "velocity": 0.7874015748031497,
                    "duration": 0.3461538750000006
                },
                {
                    "name": "C5",
                    "midi": 72,
                    "time": 9.692308499999994,
                    "velocity": 0.7874015748031497,
                    "duration": 0.3461538750000006
                },
                {
                    "name": "C5",
                    "midi": 72,
                    "time": 11.23077016666666,
                    "velocity": 0.7874015748031497,
                    "duration": 0.19230770833333288
                },
                {
                    "name": "D5",
                    "midi": 74,
                    "time": 11.384616333333327,
                    "velocity": 0.7874015748031497,
                    "duration": 0.19230770833333466
                },
                {
                    "name": "D#5",
                    "midi": 75,
                    "time": 11.538462499999994,
                    "velocity": 0.7874015748031497,
                    "duration": 0.19230770833333288
                },
                {
                    "name": "F5",
                    "midi": 77,
                    "time": 11.682693281249994,
                    "velocity": 0.7874015748031497,
                    "duration": 0.19230770833333288
                },
                {
                    "name": "G5",
                    "midi": 79,
                    "time": 11.83653944791666,
                    "velocity": 0.7874015748031497,
                    "duration": 0.19230770833333288
                },
                {
                    "name": "G#5",
                    "midi": 80,
                    "time": 12.000000999999994,
                    "velocity": 0.8661417322834646,
                    "duration": 0.21153847916666635
                },
                {
                    "name": "G5",
                    "midi": 79,
                    "time": 12.15384716666666,
                    "velocity": 0.7874015748031497,
                    "duration": 0.19230770833333466
                },
                {
                    "name": "F5",
                    "midi": 77,
                    "time": 12.307693333333328,
                    "velocity": 0.7874015748031497,
                    "duration": 0.19230770833333466
                },
                {
                    "name": "D#5",
                    "midi": 75,
                    "time": 12.461539499999995,
                    "velocity": 0.7874015748031497,
                    "duration": 0.19230770833333288
                },
                {
                    "name": "D5",
                    "midi": 74,
                    "time": 12.605770281249995,
                    "velocity": 0.7874015748031497,
                    "duration": 0.19230770833333288
                },
                {
                    "name": "C5",
                    "midi": 72,
                    "time": 12.759616447916661,
                    "velocity": 0.7874015748031497,
                    "duration": 0.19230770833333288
                },
                {
                    "name": "B4",
                    "midi": 71,
                    "time": 12.923077999999995,
                    "velocity": 0.7874015748031497,
                    "duration": 0.19230770833333288
                },
                {
                    "name": "D5",
                    "midi": 74,
                    "time": 13.076924166666661,
                    "velocity": 0.7874015748031497,
                    "duration": 0.19230770833333466
                },
                {
                    "name": "C5",
                    "midi": 72,
                    "time": 13.230770333333329,
                    "velocity": 0.7874015748031497,
                    "duration": 0.19230770833333466
                },
                {
                    "name": "B4",
                    "midi": 71,
                    "time": 13.384616499999996,
                    "velocity": 0.7874015748031497,
                    "duration": 0.19230770833333288
                },
                {
                    "name": "A4",
                    "midi": 69,
                    "time": 13.528847281249996,
                    "velocity": 0.7874015748031497,
                    "duration": 0.19230770833333288
                },
                {
                    "name": "G4",
                    "midi": 67,
                    "time": 13.682693447916662,
                    "velocity": 0.7874015748031497,
                    "duration": 0.19230770833333288
                },
                {
                    "name": "F4",
                    "midi": 65,
                    "time": 13.846154999999996,
                    "velocity": 0.8661417322834646,
                    "duration": 0.21153847916666635
                },
                {
                    "name": "G#4",
                    "midi": 68,
                    "time": 14.000001166666662,
                    "velocity": 0.7874015748031497,
                    "duration": 0.19230770833333466
                },
                {
                    "name": "G4",
                    "midi": 67,
                    "time": 14.15384733333333,
                    "velocity": 0.7874015748031497,
                    "duration": 0.19230770833333466
                },
                {
                    "name": "F4",
                    "midi": 65,
                    "time": 14.307693499999997,
                    "velocity": 0.7874015748031497,
                    "duration": 0.19230770833333288
                },
                {
                    "name": "D#4",
                    "midi": 63,
                    "time": 14.451924281249998,
                    "velocity": 0.7874015748031497,
                    "duration": 0.19230770833333288
                },
                {
                    "name": "D4",
                    "midi": 62,
                    "time": 14.605770447916663,
                    "velocity": 0.7874015748031497,
                    "duration": 0.19230770833333288
                },
                {
                    "name": "D#4",
                    "midi": 63,
                    "time": 14.769231999999997,
                    "velocity": 0.7874015748031497,
                    "duration": 0.11538462499999902
                },
                {
                    "name": "D4",
                    "midi": 62,
                    "time": 14.855770468749997,
                    "velocity": 0.7874015748031497,
                    "duration": 0.11538462499999902
                },
                {
                    "name": "D#4",
                    "midi": 63,
                    "time": 14.951924322916662,
                    "velocity": 0.7874015748031497,
                    "duration": 0.38461541666666577
                },
                {
                    "name": "C4",
                    "midi": 60,
                    "time": 15.230770499999995,
                    "velocity": 0.7874015748031497,
                    "duration": 0.3076923333333337
                },
                {
                    "name": "D5",
                    "midi": 74,
                    "time": 15.846155166666662,
                    "velocity": 0.7874015748031497,
                    "duration": 0.19230770833333466
                },
                {
                    "name": "D#5",
                    "midi": 75,
                    "time": 16.00000133333333,
                    "velocity": 0.7874015748031497,
                    "duration": 0.19230770833333466
                },
                {
                    "name": "E5",
                    "midi": 76,
                    "time": 16.153847499999998,
                    "velocity": 0.7874015748031497,
                    "duration": 0.19230770833333466
                },
                {
                    "name": "F5",
                    "midi": 77,
                    "time": 16.29807828125,
                    "velocity": 0.7874015748031497,
                    "duration": 0.19230770833333466
                },
                {
                    "name": "F#5",
                    "midi": 78,
                    "time": 16.451924447916667,
                    "velocity": 0.7874015748031497,
                    "duration": 0.19230770833333466
                },
                {
                    "name": "G5",
                    "midi": 79,
                    "time": 16.615386,
                    "velocity": 0.7874015748031497,
                    "duration": 0.22115386458333575
                },
                {
                    "name": "F#5",
                    "midi": 78,
                    "time": 16.76923216666667,
                    "velocity": 0.7874015748031497,
                    "duration": 0.19230770833333466
                },
                {
                    "name": "A5",
                    "midi": 81,
                    "time": 16.923078333333336,
                    "velocity": 0.7874015748031497,
                    "duration": 0.12500001041666664
                },
                {
                    "name": "D#5",
                    "midi": 75,
                    "time": 17.076924500000004,
                    "velocity": 0.7874015748031497,
                    "duration": 0.2211538645833322
                },
                {
                    "name": "D5",
                    "midi": 74,
                    "time": 17.221155281250002,
                    "velocity": 0.7874015748031497,
                    "duration": 0.19230770833333466
                },
                {
                    "name": "G5",
                    "midi": 79,
                    "time": 17.37500144791667,
                    "velocity": 0.7874015748031497,
                    "duration": 0.12500001041666664
                },
                {
                    "name": "C5",
                    "midi": 72,
                    "time": 17.538463000000004,
                    "velocity": 0.7874015748031497,
                    "duration": 0.22115386458333575
                },
                {
                    "name": "B4",
                    "midi": 71,
                    "time": 17.69230916666667,
                    "velocity": 0.7874015748031497,
                    "duration": 0.19230770833333466
                },
                {
                    "name": "D5",
                    "midi": 74,
                    "time": 17.84615533333334,
                    "velocity": 0.7874015748031497,
                    "duration": 0.12500001041666664
                },
                {
                    "name": "G#4",
                    "midi": 68,
                    "time": 18.000001500000007,
                    "velocity": 0.7874015748031497,
                    "duration": 0.2211538645833322
                },
                {
                    "name": "G4",
                    "midi": 67,
                    "time": 18.144232281250005,
                    "velocity": 0.7874015748031497,
                    "duration": 0.19230770833333466
                },
                {
                    "name": "F5",
                    "midi": 77,
                    "time": 18.298078447916673,
                    "velocity": 0.7874015748031497,
                    "duration": 0.12500001041666664
                },
                {
                    "name": "E5",
                    "midi": 76,
                    "time": 18.461540000000007,
                    "velocity": 0.7874015748031497,
                    "duration": 0.18269232291666881
                },
                {
                    "name": "C#5",
                    "midi": 73,
                    "time": 18.615386166666674,
                    "velocity": 0.7874015748031497,
                    "duration": 0.18269232291666881
                },
                {
                    "name": "A#4",
                    "midi": 70,
                    "time": 18.769232333333342,
                    "velocity": 0.7874015748031497,
                    "duration": 0.18269232291666881
                },
                {
                    "name": "G4",
                    "midi": 67,
                    "time": 18.92307850000001,
                    "velocity": 0.7874015748031497,
                    "duration": 0.4230769583333327
                },
                {
                    "name": "C5",
                    "midi": 72,
                    "time": 19.538463166666677,
                    "velocity": 0.7874015748031497,
                    "duration": 0.19230770833333466
                },
                {
                    "name": "C#5",
                    "midi": 73,
                    "time": 19.692309333333345,
                    "velocity": 0.7874015748031497,
                    "duration": 0.19230770833333466
                },
                {
                    "name": "D5",
                    "midi": 74,
                    "time": 19.846155500000012,
                    "velocity": 0.7874015748031497,
                    "duration": 0.19230770833333466
                },
                {
                    "name": "D#5",
                    "midi": 75,
                    "time": 19.990386281250014,
                    "velocity": 0.7874015748031497,
                    "duration": 0.19230770833333466
                },
                {
                    "name": "E5",
                    "midi": 76,
                    "time": 20.144232447916682,
                    "velocity": 0.7874015748031497,
                    "duration": 0.19230770833333466
                },
                {
                    "name": "F5",
                    "midi": 77,
                    "time": 20.307694000000016,
                    "velocity": 0.7874015748031497,
                    "duration": 0.22115386458333575
                },
                {
                    "name": "E5",
                    "midi": 76,
                    "time": 20.461540166666683,
                    "velocity": 0.7874015748031497,
                    "duration": 0.19230770833333466
                },
                {
                    "name": "G5",
                    "midi": 79,
                    "time": 20.61538633333335,
                    "velocity": 0.7874015748031497,
                    "duration": 0.12500001041666664
                },
                {
                    "name": "C#5",
                    "midi": 73,
                    "time": 20.76923250000002,
                    "velocity": 0.7874015748031497,
                    "duration": 0.2211538645833322
                },
                {
                    "name": "C5",
                    "midi": 72,
                    "time": 20.913463281250017,
                    "velocity": 0.7874015748031497,
                    "duration": 0.19230770833333466
                },
                {
                    "name": "F5",
                    "midi": 77,
                    "time": 21.067309447916685,
                    "velocity": 0.7874015748031497,
                    "duration": 0.12500001041666664
                },
                {
                    "name": "A#4",
                    "midi": 70,
                    "time": 21.23077100000002,
                    "velocity": 0.7874015748031497,
                    "duration": 0.22115386458333575
                },
                {
                    "name": "A4",
                    "midi": 69,
                    "time": 21.384617166666686,
                    "velocity": 0.7874015748031497,
                    "duration": 0.19230770833333466
                },
                {
                    "name": "C5",
                    "midi": 72,
                    "time": 21.538463333333354,
                    "velocity": 0.7874015748031497,
                    "duration": 0.12500001041666664
                },
                {
                    "name": "F#4",
                    "midi": 66,
                    "time": 21.69230950000002,
                    "velocity": 0.7874015748031497,
                    "duration": 0.2211538645833322
                },
                {
                    "name": "F4",
                    "midi": 65,
                    "time": 21.83654028125002,
                    "velocity": 0.7874015748031497,
                    "duration": 0.19230770833333466
                },
                {
                    "name": "D#5",
                    "midi": 75,
                    "time": 21.990386447916688,
                    "velocity": 0.7874015748031497,
                    "duration": 0.12500001041666664
                },
                {
                    "name": "D5",
                    "midi": 74,
                    "time": 22.15384800000002,
                    "velocity": 0.7874015748031497,
                    "duration": 0.22115386458333575
                },
                {
                    "name": "B4",
                    "midi": 71,
                    "time": 22.30769416666669,
                    "velocity": 0.7874015748031497,
                    "duration": 0.22115386458333575
                },
                {
                    "name": "G#4",
                    "midi": 68,
                    "time": 22.461540333333357,
                    "velocity": 0.7874015748031497,
                    "duration": 0.22115386458333575
                },
                {
                    "name": "F4",
                    "midi": 65,
                    "time": 22.615386500000024,
                    "velocity": 0.7874015748031497,
                    "duration": 0.4519231145833338
                },
                {
                    "name": "F5",
                    "midi": 77,
                    "time": 23.230771166666692,
                    "velocity": 0.7874015748031497,
                    "duration": 0.22115386458333575
                },
                {
                    "name": "D#5",
                    "midi": 75,
                    "time": 23.38461733333336,
                    "velocity": 0.7874015748031497,
                    "duration": 0.22115386458333575
                },
                {
                    "name": "D5",
                    "midi": 74,
                    "time": 23.538463500000027,
                    "velocity": 0.7874015748031497,
                    "duration": 0.22115386458333575
                },
                {
                    "name": "C5",
                    "midi": 72,
                    "time": 23.68269428125003,
                    "velocity": 0.7874015748031497,
                    "duration": 0.22115386458333575
                },
                {
                    "name": "B4",
                    "midi": 71,
                    "time": 23.836540447916697,
                    "velocity": 0.7874015748031497,
                    "duration": 0.14423078125000188
                },
                {
                    "name": "B4",
                    "midi": 71,
                    "time": 24.00000200000003,
                    "velocity": 0.7874015748031497,
                    "duration": 0.22115386458333575
                },
                {
                    "name": "C5",
                    "midi": 72,
                    "time": 24.153848166666698,
                    "velocity": 0.7874015748031497,
                    "duration": 0.22115386458333575
                },
                {
                    "name": "G4",
                    "midi": 67,
                    "time": 24.307694333333366,
                    "velocity": 0.7874015748031497,
                    "duration": 0.22115386458333575
                },
                {
                    "name": "D#4",
                    "midi": 63,
                    "time": 24.461540500000034,
                    "velocity": 0.7874015748031497,
                    "duration": 0.4519231145833338
                },
                {
                    "name": "D#5",
                    "midi": 75,
                    "time": 25.0769251666667,
                    "velocity": 0.7874015748031497,
                    "duration": 0.22115386458333575
                },
                {
                    "name": "D5",
                    "midi": 74,
                    "time": 25.23077133333337,
                    "velocity": 0.7874015748031497,
                    "duration": 0.22115386458333575
                },
                {
                    "name": "C5",
                    "midi": 72,
                    "time": 25.384617500000036,
                    "velocity": 0.7874015748031497,
                    "duration": 0.22115386458333575
                },
                {
                    "name": "D5",
                    "midi": 74,
                    "time": 25.52884828125004,
                    "velocity": 0.7874015748031497,
                    "duration": 0.22115386458333575
                },
                {
                    "name": "D#5",
                    "midi": 75,
                    "time": 25.682694447916706,
                    "velocity": 0.7874015748031497,
                    "duration": 0.2211538645833322
                },
                {
                    "name": "F4",
                    "midi": 65,
                    "time": 25.84615600000004,
                    "velocity": 0.7874015748031497,
                    "duration": 0.15384616666666417
                },
                {
                    "name": "D#4",
                    "midi": 63,
                    "time": 25.980771395833372,
                    "velocity": 0.7874015748031497,
                    "duration": 0.08653846874999616
                },
                {
                    "name": "F4",
                    "midi": 65,
                    "time": 26.057694479166702,
                    "velocity": 0.7874015748031497,
                    "duration": 0.08653846874999971
                },
                {
                    "name": "D#4",
                    "midi": 63,
                    "time": 26.134617562500036,
                    "velocity": 0.7874015748031497,
                    "duration": 0.08653846874999971
                },
                {
                    "name": "F4",
                    "midi": 65,
                    "time": 26.21154064583337,
                    "velocity": 0.7874015748031497,
                    "duration": 0.08653846874999971
                },
                {
                    "name": "D#4",
                    "midi": 63,
                    "time": 26.259617572916703,
                    "velocity": 0.7874015748031497,
                    "duration": 0.08653846874999971
                },
                {
                    "name": "F4",
                    "midi": 65,
                    "time": 26.336540656250037,
                    "velocity": 0.7874015748031497,
                    "duration": 0.08653846874999971
                },
                {
                    "name": "D#4",
                    "midi": 63,
                    "time": 26.41346373958337,
                    "velocity": 0.7874015748031497,
                    "duration": 0.08653846874999971
                },
                {
                    "name": "F4",
                    "midi": 65,
                    "time": 26.490386822916705,
                    "velocity": 0.7874015748031497,
                    "duration": 0.08653846874999971
                },
                {
                    "name": "D#4",
                    "midi": 63,
                    "time": 26.56730990625004,
                    "velocity": 0.7874015748031497,
                    "duration": 0.08653846874999971
                },
                {
                    "name": "F4",
                    "midi": 65,
                    "time": 26.644232989583372,
                    "velocity": 0.7874015748031497,
                    "duration": 0.08653846874999971
                },
                {
                    "name": "D#4",
                    "midi": 63,
                    "time": 26.721156072916706,
                    "velocity": 0.7874015748031497,
                    "duration": 0.08653846874999971
                },
                {
                    "name": "F4",
                    "midi": 65,
                    "time": 26.79807915625004,
                    "velocity": 0.7874015748031497,
                    "duration": 0.08653846874999971
                },
                {
                    "name": "D#4",
                    "midi": 63,
                    "time": 26.875002239583374,
                    "velocity": 0.7874015748031497,
                    "duration": 0.08653846874999971
                },
                {
                    "name": "F4",
                    "midi": 65,
                    "time": 26.951925322916708,
                    "velocity": 0.7874015748031497,
                    "duration": 0.08653846874999971
                },
                {
                    "name": "D#4",
                    "midi": 63,
                    "time": 27.02884840625004,
                    "velocity": 0.7874015748031497,
                    "duration": 0.08653846874999971
                },
                {
                    "name": "F4",
                    "midi": 65,
                    "time": 27.105771489583375,
                    "velocity": 0.7874015748031497,
                    "duration": 0.08653846874999971
                },
                {
                    "name": "D#4",
                    "midi": 63,
                    "time": 27.18269457291671,
                    "velocity": 0.7874015748031497,
                    "duration": 0.08653846874999971
                },
                {
                    "name": "F4",
                    "midi": 65,
                    "time": 27.259617656250043,
                    "velocity": 0.7874015748031497,
                    "duration": 0.08653846874999971
                },
                {
                    "name": "D#4",
                    "midi": 63,
                    "time": 27.336540739583377,
                    "velocity": 0.7874015748031497,
                    "duration": 0.12500001041666664
                },
                {
                    "name": "D4",
                    "midi": 62,
                    "time": 27.461540750000044,
                    "velocity": 0.7874015748031497,
                    "duration": 0.08653846874999971
                },
                {
                    "name": "D#4",
                    "midi": 63,
                    "time": 27.576925375000044,
                    "velocity": 0.7874015748031497,
                    "duration": 0.08653846874999971
                },
                {
                    "name": "D#4",
                    "midi": 63,
                    "time": 27.692310000000045,
                    "velocity": 0.7874015748031497,
                    "duration": 0.4519231145833338
                },
                {
                    "name": "C4",
                    "midi": 60,
                    "time": 27.692310000000045,
                    "velocity": 0.7874015748031497,
                    "duration": 0.4519231145833338
                },
                {
                    "name": "B3",
                    "midi": 59,
                    "time": 28.153848500000045,
                    "velocity": 0.7874015748031497,
                    "duration": 0.4519231145833338
                },
                {
                    "name": "D4",
                    "midi": 62,
                    "time": 28.153848500000045,
                    "velocity": 0.7874015748031497,
                    "duration": 0.4519231145833338
                },
                {
                    "name": "A#4",
                    "midi": 70,
                    "time": 29.69231016666671,
                    "velocity": 0.7874015748031497,
                    "duration": 0.19230770833333466
                },
                {
                    "name": "G4",
                    "midi": 67,
                    "time": 29.84615633333338,
                    "velocity": 0.7874015748031497,
                    "duration": 0.19230770833333466
                },
                {
                    "name": "C#4",
                    "midi": 61,
                    "time": 30.000002500000047,
                    "velocity": 0.7874015748031497,
                    "duration": 0.19230770833333466
                },
                {
                    "name": "A#5",
                    "midi": 82,
                    "time": 30.000002500000047,
                    "velocity": 0.7874015748031497,
                    "duration": 0.45192311458333734
                },
                {
                    "name": "G5",
                    "midi": 79,
                    "time": 30.000002500000047,
                    "velocity": 0.7874015748031497,
                    "duration": 0.45192311458333734
                },
                {
                    "name": "E5",
                    "midi": 76,
                    "time": 30.000002500000047,
                    "velocity": 0.7874015748031497,
                    "duration": 0.45192311458333734
                },
                {
                    "name": "A#4",
                    "midi": 70,
                    "time": 30.14423328125005,
                    "velocity": 0.7874015748031497,
                    "duration": 0.19230770833333466
                },
                {
                    "name": "G4",
                    "midi": 67,
                    "time": 30.298079447916717,
                    "velocity": 0.7874015748031497,
                    "duration": 0.19230770833333466
                },
                {
                    "name": "C#4",
                    "midi": 61,
                    "time": 30.46154100000005,
                    "velocity": 0.7874015748031497,
                    "duration": 0.19230770833333466
                },
                {
                    "name": "A#5",
                    "midi": 82,
                    "time": 30.46154100000005,
                    "velocity": 0.7874015748031497,
                    "duration": 0.45192311458333734
                },
                {
                    "name": "G5",
                    "midi": 79,
                    "time": 30.46154100000005,
                    "velocity": 0.7874015748031497,
                    "duration": 0.45192311458333734
                },
                {
                    "name": "E5",
                    "midi": 76,
                    "time": 30.46154100000005,
                    "velocity": 0.7874015748031497,
                    "duration": 0.45192311458333734
                },
                {
                    "name": "A#4",
                    "midi": 70,
                    "time": 30.615387166666718,
                    "velocity": 0.7874015748031497,
                    "duration": 0.19230770833333466
                },
                {
                    "name": "G4",
                    "midi": 67,
                    "time": 30.769233333333386,
                    "velocity": 0.7874015748031497,
                    "duration": 0.19230770833333466
                },
                {
                    "name": "C#4",
                    "midi": 61,
                    "time": 30.923079500000053,
                    "velocity": 0.7874015748031497,
                    "duration": 0.19230770833333466
                },
                {
                    "name": "A#4",
                    "midi": 70,
                    "time": 31.067310281250055,
                    "velocity": 0.7874015748031497,
                    "duration": 0.19230770833333466
                },
                {
                    "name": "G4",
                    "midi": 67,
                    "time": 31.221156447916723,
                    "velocity": 0.7874015748031497,
                    "duration": 0.19230770833333466
                },
                {
                    "name": "C4",
                    "midi": 60,
                    "time": 31.384618000000057,
                    "velocity": 0.7874015748031497,
                    "duration": 0.19230770833333466
                },
                {
                    "name": "G#4",
                    "midi": 68,
                    "time": 31.538464166666724,
                    "velocity": 0.7874015748031497,
                    "duration": 0.19230770833333466
                },
                {
                    "name": "F4",
                    "midi": 65,
                    "time": 31.692310333333392,
                    "velocity": 0.7874015748031497,
                    "duration": 0.19230770833333466
                },
                {
                    "name": "C4",
                    "midi": 60,
                    "time": 31.84615650000006,
                    "velocity": 0.7874015748031497,
                    "duration": 0.19230770833333466
                },
                {
                    "name": "F5",
                    "midi": 77,
                    "time": 31.84615650000006,
                    "velocity": 0.7874015748031497,
                    "duration": 0.4519231145833267
                },
                {
                    "name": "G#5",
                    "midi": 80,
                    "time": 31.84615650000006,
                    "velocity": 0.7874015748031497,
                    "duration": 0.4519231145833267
                },
                {
                    "name": "G#4",
                    "midi": 68,
                    "time": 31.99038728125006,
                    "velocity": 0.7874015748031497,
                    "duration": 0.19230770833332755
                },
                {
                    "name": "F4",
                    "midi": 65,
                    "time": 32.144233447916726,
                    "velocity": 0.7874015748031497,
                    "duration": 0.192307708333324
                },
                {
                    "name": "C4",
                    "midi": 60,
                    "time": 32.30769500000005,
                    "velocity": 0.7874015748031497,
                    "duration": 0.1923077083333311
                },
                {
                    "name": "G#5",
                    "midi": 80,
                    "time": 32.30769500000005,
                    "velocity": 0.7874015748031497,
                    "duration": 0.4519231145833231
                },
                {
                    "name": "F5",
                    "midi": 77,
                    "time": 32.30769500000005,
                    "velocity": 0.7874015748031497,
                    "duration": 0.4519231145833231
                },
                {
                    "name": "G#4",
                    "midi": 68,
                    "time": 32.46154116666672,
                    "velocity": 0.7874015748031497,
                    "duration": 0.192307708333324
                },
                {
                    "name": "F4",
                    "midi": 65,
                    "time": 32.61538733333338,
                    "velocity": 0.7874015748031497,
                    "duration": 0.192307708333324
                },
                {
                    "name": "C4",
                    "midi": 60,
                    "time": 32.76923350000004,
                    "velocity": 0.7874015748031497,
                    "duration": 0.1923077083333311
                },
                {
                    "name": "G#4",
                    "midi": 68,
                    "time": 32.913464281250036,
                    "velocity": 0.7874015748031497,
                    "duration": 0.1923077083333311
                },
                {
                    "name": "F4",
                    "midi": 65,
                    "time": 33.067310447916704,
                    "velocity": 0.7874015748031497,
                    "duration": 0.192307708333324
                },
                {
                    "name": "B3",
                    "midi": 59,
                    "time": 33.23077200000003,
                    "velocity": 0.7874015748031497,
                    "duration": 0.1923077083333311
                },
                {
                    "name": "G#4",
                    "midi": 68,
                    "time": 33.3846181666667,
                    "velocity": 0.7874015748031497,
                    "duration": 0.192307708333324
                },
                {
                    "name": "F4",
                    "midi": 65,
                    "time": 33.53846433333336,
                    "velocity": 0.7874015748031497,
                    "duration": 0.192307708333324
                },
                {
                    "name": "B3",
                    "midi": 59,
                    "time": 33.69231050000002,
                    "velocity": 0.7874015748031497,
                    "duration": 0.1923077083333311
                },
                {
                    "name": "G#5",
                    "midi": 80,
                    "time": 33.69231050000002,
                    "velocity": 0.7874015748031497,
                    "duration": 0.4519231145833231
                },
                {
                    "name": "F5",
                    "midi": 77,
                    "time": 33.69231050000002,
                    "velocity": 0.7874015748031497,
                    "duration": 0.4519231145833231
                },
                {
                    "name": "D5",
                    "midi": 74,
                    "time": 33.69231050000002,
                    "velocity": 0.7874015748031497,
                    "duration": 0.4519231145833231
                },
                {
                    "name": "G#4",
                    "midi": 68,
                    "time": 33.836541281250014,
                    "velocity": 0.7874015748031497,
                    "duration": 0.1923077083333311
                },
                {
                    "name": "F4",
                    "midi": 65,
                    "time": 33.99038744791668,
                    "velocity": 0.7874015748031497,
                    "duration": 0.192307708333324
                },
                {
                    "name": "B3",
                    "midi": 59,
                    "time": 34.15384900000001,
                    "velocity": 0.7874015748031497,
                    "duration": 0.1923077083333311
                },
                {
                    "name": "G#5",
                    "midi": 80,
                    "time": 34.15384900000001,
                    "velocity": 0.7874015748031497,
                    "duration": 0.4519231145833231
                },
                {
                    "name": "F5",
                    "midi": 77,
                    "time": 34.15384900000001,
                    "velocity": 0.7874015748031497,
                    "duration": 0.4519231145833231
                },
                {
                    "name": "D5",
                    "midi": 74,
                    "time": 34.15384900000001,
                    "velocity": 0.7874015748031497,
                    "duration": 0.4519231145833231
                },
                {
                    "name": "G#4",
                    "midi": 68,
                    "time": 34.307695166666676,
                    "velocity": 0.7874015748031497,
                    "duration": 0.192307708333324
                },
                {
                    "name": "F4",
                    "midi": 65,
                    "time": 34.46154133333334,
                    "velocity": 0.7874015748031497,
                    "duration": 0.192307708333324
                },
                {
                    "name": "B3",
                    "midi": 59,
                    "time": 34.6153875,
                    "velocity": 0.7874015748031497,
                    "duration": 0.1923077083333311
                },
                {
                    "name": "G#4",
                    "midi": 68,
                    "time": 34.75961828124999,
                    "velocity": 0.7874015748031497,
                    "duration": 0.1923077083333311
                },
                {
                    "name": "F4",
                    "midi": 65,
                    "time": 34.91346444791666,
                    "velocity": 0.7874015748031497,
                    "duration": 0.192307708333324
                },
                {
                    "name": "A#3",
                    "midi": 58,
                    "time": 35.076925999999986,
                    "velocity": 0.7874015748031497,
                    "duration": 0.1923077083333311
                },
                {
                    "name": "G4",
                    "midi": 67,
                    "time": 35.230772166666654,
                    "velocity": 0.7874015748031497,
                    "duration": 0.192307708333324
                },
                {
                    "name": "D#4",
                    "midi": 63,
                    "time": 35.384618333333314,
                    "velocity": 0.7874015748031497,
                    "duration": 0.192307708333324
                },
                {
                    "name": "A#3",
                    "midi": 58,
                    "time": 35.538464499999975,
                    "velocity": 0.7874015748031497,
                    "duration": 0.1923077083333311
                },
                {
                    "name": "D#5",
                    "midi": 75,
                    "time": 35.538464499999975,
                    "velocity": 0.7874015748031497,
                    "duration": 0.4519231145833231
                },
                {
                    "name": "G5",
                    "midi": 79,
                    "time": 35.538464499999975,
                    "velocity": 0.7874015748031497,
                    "duration": 0.4519231145833231
                },
                {
                    "name": "G4",
                    "midi": 67,
                    "time": 35.68269528124997,
                    "velocity": 0.7874015748031497,
                    "duration": 0.1923077083333311
                },
                {
                    "name": "D#4",
                    "midi": 63,
                    "time": 35.83654144791664,
                    "velocity": 0.7874015748031497,
                    "duration": 0.192307708333324
                },
                {
                    "name": "A#3",
                    "midi": 58,
                    "time": 36.000002999999964,
                    "velocity": 0.7874015748031497,
                    "duration": 0.1923077083333311
                },
                {
                    "name": "D#5",
                    "midi": 75,
                    "time": 36.000002999999964,
                    "velocity": 0.7874015748031497,
                    "duration": 0.4519231145833231
                },
                {
                    "name": "G5",
                    "midi": 79,
                    "time": 36.000002999999964,
                    "velocity": 0.7874015748031497,
                    "duration": 0.4519231145833231
                },
                {
                    "name": "G4",
                    "midi": 67,
                    "time": 36.15384916666663,
                    "velocity": 0.7874015748031497,
                    "duration": 0.192307708333324
                },
                {
                    "name": "D#4",
                    "midi": 63,
                    "time": 36.30769533333329,
                    "velocity": 0.7874015748031497,
                    "duration": 0.192307708333324
                },
                {
                    "name": "A#3",
                    "midi": 58,
                    "time": 36.46154149999995,
                    "velocity": 0.7874015748031497,
                    "duration": 0.1923077083333311
                },
                {
                    "name": "G4",
                    "midi": 67,
                    "time": 36.60577228124995,
                    "velocity": 0.7874015748031497,
                    "duration": 0.1923077083333311
                },
                {
                    "name": "D#4",
                    "midi": 63,
                    "time": 36.759618447916615,
                    "velocity": 0.7874015748031497,
                    "duration": 0.192307708333324
                },
                {
                    "name": "C4",
                    "midi": 60,
                    "time": 36.92307999999994,
                    "velocity": 0.7874015748031497,
                    "duration": 0.1923077083333311
                },
                {
                    "name": "D4",
                    "midi": 62,
                    "time": 37.07692616666661,
                    "velocity": 0.7874015748031497,
                    "duration": 0.192307708333324
                },
                {
                    "name": "D#4",
                    "midi": 63,
                    "time": 37.23077233333327,
                    "velocity": 0.7874015748031497,
                    "duration": 0.192307708333324
                },
                {
                    "name": "F4",
                    "midi": 65,
                    "time": 37.38461849999993,
                    "velocity": 0.7874015748031497,
                    "duration": 0.4519231145833231
                },
                {
                    "name": "C5",
                    "midi": 72,
                    "time": 37.38461849999993,
                    "velocity": 0.7874015748031497,
                    "duration": 0.4519231145833231
                },
                {
                    "name": "G4",
                    "midi": 67,
                    "time": 37.528849281249926,
                    "velocity": 0.7874015748031497,
                    "duration": 0.1923077083333311
                },
                {
                    "name": "G#4",
                    "midi": 68,
                    "time": 37.68269544791659,
                    "velocity": 0.7874015748031497,
                    "duration": 0.192307708333324
                },
                {
                    "name": "A#3",
                    "midi": 58,
                    "time": 37.84615699999992,
                    "velocity": 0.7874015748031497,
                    "duration": 0.1923077083333311
                },
                {
                    "name": "D5",
                    "midi": 74,
                    "time": 37.84615699999992,
                    "velocity": 0.7874015748031497,
                    "duration": 0.4519231145833231
                },
                {
                    "name": "G#4",
                    "midi": 68,
                    "time": 38.00000316666659,
                    "velocity": 0.7874015748031497,
                    "duration": 0.192307708333324
                },
                {
                    "name": "G4",
                    "midi": 67,
                    "time": 38.15384933333325,
                    "velocity": 0.7874015748031497,
                    "duration": 0.192307708333324
                },
                {
                    "name": "F4",
                    "midi": 65,
                    "time": 38.30769549999991,
                    "velocity": 0.7874015748031497,
                    "duration": 0.1923077083333311
                },
                {
                    "name": "D#4",
                    "midi": 63,
                    "time": 38.451926281249904,
                    "velocity": 0.7874015748031497,
                    "duration": 0.1923077083333311
                },
                {
                    "name": "D4",
                    "midi": 62,
                    "time": 38.60577244791657,
                    "velocity": 0.7874015748031497,
                    "duration": 0.192307708333324
                },
                {
                    "name": "D#4",
                    "midi": 63,
                    "time": 38.7692339999999,
                    "velocity": 0.7874015748031497,
                    "duration": 0.1923077083333311
                },
                {
                    "name": "F4",
                    "midi": 65,
                    "time": 38.923080166666566,
                    "velocity": 0.7874015748031497,
                    "duration": 0.192307708333324
                },
                {
                    "name": "G4",
                    "midi": 67,
                    "time": 39.076926333333226,
                    "velocity": 0.7874015748031497,
                    "duration": 0.192307708333324
                },
                {
                    "name": "G#4",
                    "midi": 68,
                    "time": 39.23077249999989,
                    "velocity": 0.7874015748031497,
                    "duration": 0.1923077083333311
                },
                {
                    "name": "D#5",
                    "midi": 75,
                    "time": 39.23077249999989,
                    "velocity": 0.7874015748031497,
                    "duration": 0.4519231145833231
                },
                {
                    "name": "A#4",
                    "midi": 70,
                    "time": 39.37500328124988,
                    "velocity": 0.7874015748031497,
                    "duration": 0.1923077083333311
                },
                {
                    "name": "C5",
                    "midi": 72,
                    "time": 39.52884944791655,
                    "velocity": 0.7874015748031497,
                    "duration": 0.192307708333324
                },
                {
                    "name": "D4",
                    "midi": 62,
                    "time": 39.692310999999876,
                    "velocity": 0.7874015748031497,
                    "duration": 0.1923077083333311
                },
                {
                    "name": "F5",
                    "midi": 77,
                    "time": 39.692310999999876,
                    "velocity": 0.7874015748031497,
                    "duration": 0.4519231145833231
                },
                {
                    "name": "C5",
                    "midi": 72,
                    "time": 39.84615716666654,
                    "velocity": 0.7874015748031497,
                    "duration": 0.192307708333324
                },
                {
                    "name": "A#4",
                    "midi": 70,
                    "time": 40.000003333333204,
                    "velocity": 0.7874015748031497,
                    "duration": 0.192307708333324
                },
                {
                    "name": "G#4",
                    "midi": 68,
                    "time": 40.153849499999865,
                    "velocity": 0.7874015748031497,
                    "duration": 0.1923077083333311
                },
                {
                    "name": "G4",
                    "midi": 67,
                    "time": 40.29808028124986,
                    "velocity": 0.7874015748031497,
                    "duration": 0.1923077083333311
                },
                {
                    "name": "F4",
                    "midi": 65,
                    "time": 40.45192644791653,
                    "velocity": 0.7874015748031497,
                    "duration": 0.192307708333324
                },
                {
                    "name": "G4",
                    "midi": 67,
                    "time": 40.615387999999854,
                    "velocity": 0.7874015748031497,
                    "duration": 0.1923077083333311
                },
                {
                    "name": "D#5",
                    "midi": 75,
                    "time": 40.76923416666652,
                    "velocity": 0.7874015748031497,
                    "duration": 0.192307708333324
                },
                {
                    "name": "D5",
                    "midi": 74,
                    "time": 40.92308033333318,
                    "velocity": 0.7874015748031497,
                    "duration": 0.192307708333324
                },
                {
                    "name": "C5",
                    "midi": 72,
                    "time": 41.07692649999984,
                    "velocity": 0.7874015748031497,
                    "duration": 0.1923077083333311
                },
                {
                    "name": "A#4",
                    "midi": 70,
                    "time": 41.22115728124984,
                    "velocity": 0.7874015748031497,
                    "duration": 0.1923077083333311
                },
                {
                    "name": "G#4",
                    "midi": 68,
                    "time": 41.375003447916505,
                    "velocity": 0.7874015748031497,
                    "duration": 0.192307708333324
                },
                {
                    "name": "G4",
                    "midi": 67,
                    "time": 41.53846499999983,
                    "velocity": 0.7874015748031497,
                    "duration": 0.1923077083333311
                },
                {
                    "name": "A#4",
                    "midi": 70,
                    "time": 41.6923111666665,
                    "velocity": 0.7874015748031497,
                    "duration": 0.192307708333324
                },
                {
                    "name": "D#5",
                    "midi": 75,
                    "time": 41.84615733333316,
                    "velocity": 0.7874015748031497,
                    "duration": 0.192307708333324
                },
                {
                    "name": "F4",
                    "midi": 65,
                    "time": 42.00000349999982,
                    "velocity": 0.7874015748031497,
                    "duration": 0.1923077083333311
                },
                {
                    "name": "G#4",
                    "midi": 68,
                    "time": 42.144234281249815,
                    "velocity": 0.7874015748031497,
                    "duration": 0.1923077083333311
                },
                {
                    "name": "D5",
                    "midi": 74,
                    "time": 42.29808044791648,
                    "velocity": 0.7874015748031497,
                    "duration": 0.192307708333324
                },
                {
                    "name": "D#5",
                    "midi": 75,
                    "time": 42.46154199999981,
                    "velocity": 0.7874015748031497,
                    "duration": 0.1923077083333311
                },
                {
                    "name": "A#4",
                    "midi": 70,
                    "time": 42.61538816666648,
                    "velocity": 0.7874015748031497,
                    "duration": 0.192307708333324
                },
                {
                    "name": "G4",
                    "midi": 67,
                    "time": 42.76923433333314,
                    "velocity": 0.7874015748031497,
                    "duration": 0.192307708333324
                },
                {
                    "name": "C5",
                    "midi": 72,
                    "time": 42.9230804999998,
                    "velocity": 0.7874015748031497,
                    "duration": 0.1923077083333311
                },
                {
                    "name": "D#5",
                    "midi": 75,
                    "time": 42.9230804999998,
                    "velocity": 0.7874015748031497,
                    "duration": 0.30769233333332835
                },
                {
                    "name": "G#4",
                    "midi": 68,
                    "time": 43.06731128124979,
                    "velocity": 0.7874015748031497,
                    "duration": 0.1923077083333311
                },
                {
                    "name": "D#4",
                    "midi": 63,
                    "time": 43.22115744791646,
                    "velocity": 0.7874015748031497,
                    "duration": 0.192307708333324
                },
                {
                    "name": "A#4",
                    "midi": 70,
                    "time": 43.38461899999979,
                    "velocity": 0.7874015748031497,
                    "duration": 0.1923077083333311
                },
                {
                    "name": "D#5",
                    "midi": 75,
                    "time": 43.38461899999979,
                    "velocity": 0.7874015748031497,
                    "duration": 0.30769233333332835
                },
                {
                    "name": "G4",
                    "midi": 67,
                    "time": 43.538465166666455,
                    "velocity": 0.7874015748031497,
                    "duration": 0.192307708333324
                },
                {
                    "name": "D#4",
                    "midi": 63,
                    "time": 43.692311333333116,
                    "velocity": 0.7874015748031497,
                    "duration": 0.192307708333324
                },
                {
                    "name": "G#4",
                    "midi": 68,
                    "time": 43.84615749999978,
                    "velocity": 0.7874015748031497,
                    "duration": 0.1923077083333311
                },
                {
                    "name": "F4",
                    "midi": 65,
                    "time": 43.99038828124977,
                    "velocity": 0.7874015748031497,
                    "duration": 0.1923077083333311
                },
                {
                    "name": "D4",
                    "midi": 62,
                    "time": 44.14423444791644,
                    "velocity": 0.7874015748031497,
                    "duration": 0.192307708333324
                },
                {
                    "name": "G4",
                    "midi": 67,
                    "time": 44.307695999999765,
                    "velocity": 0.7874015748031497,
                    "duration": 0.1923077083333311
                },
                {
                    "name": "D#4",
                    "midi": 63,
                    "time": 44.46154216666643,
                    "velocity": 0.7874015748031497,
                    "duration": 0.192307708333324
                },
                {
                    "name": "A#3",
                    "midi": 58,
                    "time": 44.615388333333094,
                    "velocity": 0.7874015748031497,
                    "duration": 0.192307708333324
                },
                {
                    "name": "G#4",
                    "midi": 68,
                    "time": 44.769234499999754,
                    "velocity": 0.7874015748031497,
                    "duration": 0.1923077083333311
                },
                {
                    "name": "D#5",
                    "midi": 75,
                    "time": 44.769234499999754,
                    "velocity": 0.7874015748031497,
                    "duration": 0.30769233333332835
                },
                {
                    "name": "D#4",
                    "midi": 63,
                    "time": 44.91346528124975,
                    "velocity": 0.7874015748031497,
                    "duration": 0.1923077083333311
                },
                {
                    "name": "C4",
                    "midi": 60,
                    "time": 45.06731144791642,
                    "velocity": 0.7874015748031497,
                    "duration": 0.192307708333324
                },
                {
                    "name": "G4",
                    "midi": 67,
                    "time": 45.23077299999974,
                    "velocity": 0.7874015748031497,
                    "duration": 0.1923077083333311
                },
                {
                    "name": "D#5",
                    "midi": 75,
                    "time": 45.23077299999974,
                    "velocity": 0.7874015748031497,
                    "duration": 0.30769233333332835
                },
                {
                    "name": "D#4",
                    "midi": 63,
                    "time": 45.38461916666641,
                    "velocity": 0.7874015748031497,
                    "duration": 0.192307708333324
                },
                {
                    "name": "A#3",
                    "midi": 58,
                    "time": 45.53846533333307,
                    "velocity": 0.7874015748031497,
                    "duration": 0.192307708333324
                },
                {
                    "name": "F4",
                    "midi": 65,
                    "time": 45.69231149999973,
                    "velocity": 0.7874015748031497,
                    "duration": 0.1923077083333311
                },
                {
                    "name": "D4",
                    "midi": 62,
                    "time": 45.83654228124973,
                    "velocity": 0.7874015748031497,
                    "duration": 0.1923077083333311
                },
                {
                    "name": "G#3",
                    "midi": 56,
                    "time": 45.990388447916395,
                    "velocity": 0.7874015748031497,
                    "duration": 0.192307708333324
                },
                {
                    "name": "G3",
                    "midi": 55,
                    "time": 46.15384999999972,
                    "velocity": 0.7874015748031497,
                    "duration": 0.1923077083333311
                },
                {
                    "name": "A#3",
                    "midi": 58,
                    "time": 46.30769616666639,
                    "velocity": 0.7874015748031497,
                    "duration": 0.192307708333324
                },
                {
                    "name": "D#4",
                    "midi": 63,
                    "time": 46.46154233333305,
                    "velocity": 0.7874015748031497,
                    "duration": 0.192307708333324
                },
                {
                    "name": "C4",
                    "midi": 60,
                    "time": 46.61538849999971,
                    "velocity": 0.7874015748031497,
                    "duration": 0.1923077083333311
                },
                {
                    "name": "D#4",
                    "midi": 63,
                    "time": 46.759619281249705,
                    "velocity": 0.7874015748031497,
                    "duration": 0.1923077083333311
                },
                {
                    "name": "G#4",
                    "midi": 68,
                    "time": 46.91346544791637,
                    "velocity": 0.7874015748031497,
                    "duration": 0.192307708333324
                },
                {
                    "name": "D#4",
                    "midi": 63,
                    "time": 47.0769269999997,
                    "velocity": 0.7874015748031497,
                    "duration": 0.4423077291666644
                },
                {
                    "name": "D4",
                    "midi": 62,
                    "time": 47.538465499999695,
                    "velocity": 0.7874015748031497,
                    "duration": 0.09615385416667266
                },
                {
                    "name": "D#4",
                    "midi": 63,
                    "time": 47.58654242708303,
                    "velocity": 0.7874015748031497,
                    "duration": 0.09615385416667266
                },
                {
                    "name": "D4",
                    "midi": 62,
                    "time": 47.682696281249704,
                    "velocity": 0.7874015748031497,
                    "duration": 0.1923077083333311
                },
                {
                    "name": "D#4",
                    "midi": 63,
                    "time": 47.83654244791637,
                    "velocity": 0.7874015748031497,
                    "duration": 0.15384616666666062
                },
                {
                    "name": "D#4",
                    "midi": 63,
                    "time": 48.0000039999997,
                    "velocity": 0.7874015748031497,
                    "duration": 0.30769233333333545
                },
                {
                    "name": "D#5",
                    "midi": 75,
                    "time": 48.4615424999997,
                    "velocity": 0.7874015748031497,
                    "duration": 0.5096154270833324
                },
                {
                    "name": "A#4",
                    "midi": 70,
                    "time": 49.076927166666366,
                    "velocity": 0.7874015748031497,
                    "duration": 0.1923077083333311
                },
                {
                    "name": "A4",
                    "midi": 69,
                    "time": 49.23077333333303,
                    "velocity": 0.7874015748031497,
                    "duration": 0.192307708333324
                },
                {
                    "name": "G#4",
                    "midi": 68,
                    "time": 49.384619499999694,
                    "velocity": 0.7874015748031497,
                    "duration": 0.1923077083333311
                },
                {
                    "name": "G4",
                    "midi": 67,
                    "time": 49.52885028124969,
                    "velocity": 0.7874015748031497,
                    "duration": 0.1923077083333311
                },
                {
                    "name": "F#4",
                    "midi": 66,
                    "time": 49.682696447916356,
                    "velocity": 0.7874015748031497,
                    "duration": 0.1923077083333311
                },
                {
                    "name": "G4",
                    "midi": 67,
                    "time": 49.84615799999969,
                    "velocity": 0.7874015748031497,
                    "duration": 0.30769233333332835
                },
                {
                    "name": "D5",
                    "midi": 74,
                    "time": 50.307696499999686,
                    "velocity": 0.7874015748031497,
                    "duration": 0.48076927083333487
                },
                {
                    "name": "D#5",
                    "midi": 75,
                    "time": 50.92308116666636,
                    "velocity": 0.7874015748031497,
                    "duration": 0.1923077083333311
                },
                {
                    "name": "E5",
                    "midi": 76,
                    "time": 51.076927333333025,
                    "velocity": 0.7874015748031497,
                    "duration": 0.192307708333324
                },
                {
                    "name": "F5",
                    "midi": 77,
                    "time": 51.230773499999685,
                    "velocity": 0.7874015748031497,
                    "duration": 0.1923077083333311
                },
                {
                    "name": "F#5",
                    "midi": 78,
                    "time": 51.37500428124968,
                    "velocity": 0.7874015748031497,
                    "duration": 0.1923077083333311
                },
                {
                    "name": "G5",
                    "midi": 79,
                    "time": 51.52885044791635,
                    "velocity": 0.7874015748031497,
                    "duration": 0.192307708333324
                },
                {
                    "name": "C5",
                    "midi": 72,
                    "time": 51.692311999999674,
                    "velocity": 0.7874015748031497,
                    "duration": 0.15384616666666062
                },
                {
                    "name": "A#4",
                    "midi": 70,
                    "time": 51.826927395833,
                    "velocity": 0.7874015748031497,
                    "duration": 0.08653846874999971
                },
                {
                    "name": "C5",
                    "midi": 72,
                    "time": 51.90385047916634,
                    "velocity": 0.7874015748031497,
                    "duration": 0.08653846874999971
                },
                {
                    "name": "A#4",
                    "midi": 70,
                    "time": 51.98077356249967,
                    "velocity": 0.7874015748031497,
                    "duration": 0.08653846874999971
                },
                {
                    "name": "C5",
                    "midi": 72,
                    "time": 52.057696645833005,
                    "velocity": 0.7874015748031497,
                    "duration": 0.0865384687499926
                },
                {
                    "name": "A#4",
                    "midi": 70,
                    "time": 52.105773572916334,
                    "velocity": 0.7874015748031497,
                    "duration": 0.0865384687499926
                },
                {
                    "name": "C5",
                    "midi": 72,
                    "time": 52.18269665624966,
                    "velocity": 0.7874015748031497,
                    "duration": 0.08653846874999971
                },
                {
                    "name": "A#4",
                    "midi": 70,
                    "time": 52.259619739582995,
                    "velocity": 0.7874015748031497,
                    "duration": 0.08653846874999971
                },
                {
                    "name": "C5",
                    "midi": 72,
                    "time": 52.33654282291633,
                    "velocity": 0.7874015748031497,
                    "duration": 0.08653846874999971
                },
                {
                    "name": "A#4",
                    "midi": 70,
                    "time": 52.41346590624966,
                    "velocity": 0.7874015748031497,
                    "duration": 0.08653846874999971
                },
                {
                    "name": "C5",
                    "midi": 72,
                    "time": 52.490388989582996,
                    "velocity": 0.7874015748031497,
                    "duration": 0.08653846874999971
                },
                {
                    "name": "A#4",
                    "midi": 70,
                    "time": 52.56731207291633,
                    "velocity": 0.7874015748031497,
                    "duration": 0.16346155208333357
                },
                {
                    "name": "A4",
                    "midi": 69,
                    "time": 52.76923516666633,
                    "velocity": 0.7874015748031497,
                    "duration": 0.1923077083333311
                },
                {
                    "name": "G4",
                    "midi": 67,
                    "time": 52.923081333332995,
                    "velocity": 0.7874015748031497,
                    "duration": 0.192307708333324
                },
                {
                    "name": "F#4",
                    "midi": 66,
                    "time": 53.076927499999655,
                    "velocity": 0.7874015748031497,
                    "duration": 0.1923077083333311
                },
                {
                    "name": "G4",
                    "midi": 67,
                    "time": 53.22115828124965,
                    "velocity": 0.7874015748031497,
                    "duration": 0.1923077083333311
                },
                {
                    "name": "E4",
                    "midi": 64,
                    "time": 53.37500444791632,
                    "velocity": 0.7874015748031497,
                    "duration": 0.192307708333324
                },
                {
                    "name": "F#4",
                    "midi": 66,
                    "time": 53.538465999999644,
                    "velocity": 0.7874015748031497,
                    "duration": 0.1923077083333311
                },
                {
                    "name": "D4",
                    "midi": 62,
                    "time": 53.69231216666631,
                    "velocity": 0.7874015748031497,
                    "duration": 0.1923077083333311
                },
                {
                    "name": "F#4",
                    "midi": 66,
                    "time": 53.855773718749646,
                    "velocity": 0.7874015748031497,
                    "duration": 0.1923077083333311
                },
                {
                    "name": "A4",
                    "midi": 69,
                    "time": 54.00000449999964,
                    "velocity": 0.7874015748031497,
                    "duration": 0.1923077083333382
                },
                {
                    "name": "C5",
                    "midi": 72,
                    "time": 54.14423528124964,
                    "velocity": 0.7874015748031497,
                    "duration": 0.1923077083333311
                },
                {
                    "name": "D#5",
                    "midi": 75,
                    "time": 54.29808144791631,
                    "velocity": 0.7874015748031497,
                    "duration": 0.192307708333324
                },
                {
                    "name": "A5",
                    "midi": 81,
                    "time": 54.46154299999964,
                    "velocity": 0.7874015748031497,
                    "duration": 0.1923077083333311
                },
                {
                    "name": "D#5",
                    "midi": 75,
                    "time": 54.615389166666304,
                    "velocity": 0.7874015748031497,
                    "duration": 0.1923077083333311
                },
                {
                    "name": "D5",
                    "midi": 74,
                    "time": 54.77885071874964,
                    "velocity": 0.7874015748031497,
                    "duration": 0.1923077083333311
                },
                {
                    "name": "C5",
                    "midi": 72,
                    "time": 54.92308149999963,
                    "velocity": 0.7874015748031497,
                    "duration": 0.1923077083333382
                },
                {
                    "name": "A#4",
                    "midi": 70,
                    "time": 55.067312281249635,
                    "velocity": 0.7874015748031497,
                    "duration": 0.1923077083333311
                },
                {
                    "name": "A4",
                    "midi": 69,
                    "time": 55.2211584479163,
                    "velocity": 0.7874015748031497,
                    "duration": 0.192307708333324
                },
                {
                    "name": "A#4",
                    "midi": 70,
                    "time": 55.38461999999963,
                    "velocity": 0.7874015748031497,
                    "duration": 0.1923077083333311
                },
                {
                    "name": "D5",
                    "midi": 74,
                    "time": 55.538466166666296,
                    "velocity": 0.7874015748031497,
                    "duration": 0.1923077083333311
                },
                {
                    "name": "G5",
                    "midi": 79,
                    "time": 55.70192771874963,
                    "velocity": 0.7874015748031497,
                    "duration": 0.1923077083333311
                },
                {
                    "name": "D#5",
                    "midi": 75,
                    "time": 55.846158499999625,
                    "velocity": 0.7874015748031497,
                    "duration": 0.1923077083333382
                },
                {
                    "name": "D5",
                    "midi": 74,
                    "time": 55.99038928124963,
                    "velocity": 0.7874015748031497,
                    "duration": 0.1923077083333311
                },
                {
                    "name": "C5",
                    "midi": 72,
                    "time": 56.144235447916294,
                    "velocity": 0.7874015748031497,
                    "duration": 0.192307708333324
                },
                {
                    "name": "A#4",
                    "midi": 70,
                    "time": 56.30769699999962,
                    "velocity": 0.7874015748031497,
                    "duration": 0.1923077083333311
                },
                {
                    "name": "A4",
                    "midi": 69,
                    "time": 56.46154316666629,
                    "velocity": 0.7874015748031497,
                    "duration": 0.1923077083333311
                },
                {
                    "name": "G4",
                    "midi": 67,
                    "time": 56.62500471874962,
                    "velocity": 0.7874015748031497,
                    "duration": 0.1923077083333311
                },
                {
                    "name": "A4",
                    "midi": 69,
                    "time": 56.76923549999962,
                    "velocity": 0.7874015748031497,
                    "duration": 0.1923077083333382
                },
                {
                    "name": "G4",
                    "midi": 67,
                    "time": 56.91346628124962,
                    "velocity": 0.7874015748031497,
                    "duration": 0.1923077083333311
                },
                {
                    "name": "F#4",
                    "midi": 66,
                    "time": 57.06731244791629,
                    "velocity": 0.7874015748031497,
                    "duration": 0.192307708333324
                },
                {
                    "name": "G4",
                    "midi": 67,
                    "time": 57.23077399999961,
                    "velocity": 0.7874015748031497,
                    "duration": 0.1923077083333311
                },
                {
                    "name": "D4",
                    "midi": 62,
                    "time": 57.38462016666628,
                    "velocity": 0.7874015748031497,
                    "duration": 0.1923077083333311
                },
                {
                    "name": "B3",
                    "midi": 59,
                    "time": 57.548081718749614,
                    "velocity": 0.7874015748031497,
                    "duration": 0.1923077083333311
                },
                {
                    "name": "G3",
                    "midi": 55,
                    "time": 57.69231249999961,
                    "velocity": 0.7874015748031497,
                    "duration": 0.45192311458333734
                },
                {
                    "name": "C6",
                    "midi": 84,
                    "time": 59.07692799999961,
                    "velocity": 0.7874015748031497,
                    "duration": 0.22115386458333575
                },
                {
                    "name": "G5",
                    "midi": 79,
                    "time": 59.23077416666628,
                    "velocity": 0.7874015748031497,
                    "duration": 0.22115386458333575
                },
                {
                    "name": "D#5",
                    "midi": 75,
                    "time": 59.38462033333295,
                    "velocity": 0.7874015748031497,
                    "duration": 0.22115386458333575
                },
                {
                    "name": "C5",
                    "midi": 72,
                    "time": 59.538466499999615,
                    "velocity": 0.7874015748031497,
                    "duration": 0.22115386458333575
                },
                {
                    "name": "G4",
                    "midi": 67,
                    "time": 59.68269728124962,
                    "velocity": 0.7874015748031497,
                    "duration": 0.22115386458333575
                },
                {
                    "name": "D#4",
                    "midi": 63,
                    "time": 59.836543447916284,
                    "velocity": 0.7874015748031497,
                    "duration": 0.22115386458333575
                },
                {
                    "name": "C4",
                    "midi": 60,
                    "time": 60.00000499999962,
                    "velocity": 0.7874015748031497,
                    "duration": 0.30769233333333545
                },
                {
                    "name": "C6",
                    "midi": 84,
                    "time": 60.46154349999962,
                    "velocity": 0.7874015748031497,
                    "duration": 0.45192311458333023
                },
                {
                    "name": "G5",
                    "midi": 79,
                    "time": 60.46154349999962,
                    "velocity": 0.7874015748031497,
                    "duration": 0.45192311458333023
                },
                {
                    "name": "D#5",
                    "midi": 75,
                    "time": 60.46154349999962,
                    "velocity": 0.7874015748031497,
                    "duration": 0.45192311458333023
                },
                {
                    "name": "D#5",
                    "midi": 75,
                    "time": 60.92308199999962,
                    "velocity": 0.7874015748031497,
                    "duration": 0.45192311458333023
                },
                {
                    "name": "G5",
                    "midi": 79,
                    "time": 60.92308199999962,
                    "velocity": 0.7874015748031497,
                    "duration": 0.45192311458333023
                },
                {
                    "name": "C6",
                    "midi": 84,
                    "time": 60.92308199999962,
                    "velocity": 0.7874015748031497,
                    "duration": 0.45192311458333023
                },
                {
                    "name": "B5",
                    "midi": 83,
                    "time": 61.38462049999961,
                    "velocity": 0.7874015748031497,
                    "duration": 0.30769233333333545
                },
                {
                    "name": "D5",
                    "midi": 74,
                    "time": 61.38462049999961,
                    "velocity": 0.7874015748031497,
                    "duration": 0.30769233333333545
                },
                {
                    "name": "G5",
                    "midi": 79,
                    "time": 61.807697458332946,
                    "velocity": 0.7874015748031497,
                    "duration": 0.2980769479166625
                },
                {
                    "name": "F5",
                    "midi": 77,
                    "time": 61.93269746874961,
                    "velocity": 0.7874015748031497,
                    "duration": 0.08653846874999971
                },
                {
                    "name": "G5",
                    "midi": 79,
                    "time": 62.01923593749961,
                    "velocity": 0.7874015748031497,
                    "duration": 0.24038463541666744
                },
                {
                    "name": "F5",
                    "midi": 77,
                    "time": 62.09615902083294,
                    "velocity": 0.7874015748031497,
                    "duration": 0.08653846874999971
                },
                {
                    "name": "G5",
                    "midi": 79,
                    "time": 62.17308210416628,
                    "velocity": 0.7874015748031497,
                    "duration": 0.2500000208333333
                },
                {
                    "name": "F5",
                    "midi": 77,
                    "time": 62.259620572916276,
                    "velocity": 0.7874015748031497,
                    "duration": 0.08653846874999971
                },
                {
                    "name": "G5",
                    "midi": 79,
                    "time": 62.33654365624961,
                    "velocity": 0.7874015748031497,
                    "duration": 0.08653846874999971
                },
                {
                    "name": "F5",
                    "midi": 77,
                    "time": 62.413466739582944,
                    "velocity": 0.7874015748031497,
                    "duration": 0.08653846874999971
                },
                {
                    "name": "E5",
                    "midi": 76,
                    "time": 62.49038982291628,
                    "velocity": 0.7874015748031497,
                    "duration": 0.11538462499999724
                },
                {
                    "name": "F5",
                    "midi": 77,
                    "time": 62.605774447916275,
                    "velocity": 0.7874015748031497,
                    "duration": 0.11538462499999724
                },
                {
                    "name": "A#5",
                    "midi": 82,
                    "time": 62.76923599999961,
                    "velocity": 0.7874015748031497,
                    "duration": 0.22115386458333575
                },
                {
                    "name": "G5",
                    "midi": 79,
                    "time": 62.923082166666276,
                    "velocity": 0.7874015748031497,
                    "duration": 0.22115386458333575
                },
                {
                    "name": "E5",
                    "midi": 76,
                    "time": 63.076928333332944,
                    "velocity": 0.7874015748031497,
                    "duration": 0.22115386458333575
                },
                {
                    "name": "C5",
                    "midi": 72,
                    "time": 63.23077449999961,
                    "velocity": 0.7874015748031497,
                    "duration": 0.22115386458333575
                },
                {
                    "name": "G4",
                    "midi": 67,
                    "time": 63.375005281249614,
                    "velocity": 0.7874015748031497,
                    "duration": 0.22115386458333575
                },
                {
                    "name": "E4",
                    "midi": 64,
                    "time": 63.52885144791628,
                    "velocity": 0.7874015748031497,
                    "duration": 0.22115386458333575
                },
                {
                    "name": "C4",
                    "midi": 60,
                    "time": 63.692312999999615,
                    "velocity": 0.7874015748031497,
                    "duration": 0.30769233333333545
                },
                {
                    "name": "A#5",
                    "midi": 82,
                    "time": 64.15385149999962,
                    "velocity": 0.7874015748031497,
                    "duration": 0.45192311458333734
                },
                {
                    "name": "G5",
                    "midi": 79,
                    "time": 64.15385149999962,
                    "velocity": 0.7874015748031497,
                    "duration": 0.45192311458333734
                },
                {
                    "name": "C5",
                    "midi": 72,
                    "time": 64.15385149999962,
                    "velocity": 0.7874015748031497,
                    "duration": 0.45192311458333734
                },
                {
                    "name": "A#5",
                    "midi": 82,
                    "time": 64.61538999999962,
                    "velocity": 0.7874015748031497,
                    "duration": 0.45192311458333734
                },
                {
                    "name": "C5",
                    "midi": 72,
                    "time": 64.61538999999962,
                    "velocity": 0.7874015748031497,
                    "duration": 0.45192311458333734
                },
                {
                    "name": "G5",
                    "midi": 79,
                    "time": 64.61538999999962,
                    "velocity": 0.7874015748031497,
                    "duration": 0.45192311458333734
                },
                {
                    "name": "A5",
                    "midi": 81,
                    "time": 65.07692849999962,
                    "velocity": 0.7874015748031497,
                    "duration": 0.30769233333333545
                },
                {
                    "name": "F5",
                    "midi": 77,
                    "time": 65.07692849999962,
                    "velocity": 0.7874015748031497,
                    "duration": 0.30769233333333545
                },
                {
                    "name": "D5",
                    "midi": 74,
                    "time": 65.50000545833296,
                    "velocity": 0.7874015748031497,
                    "duration": 0.17307693749999942
                },
                {
                    "name": "C5",
                    "midi": 72,
                    "time": 65.62500546874963,
                    "velocity": 0.7874015748031497,
                    "duration": 0.0865384687499926
                },
                {
                    "name": "D5",
                    "midi": 74,
                    "time": 65.71154393749963,
                    "velocity": 0.7874015748031497,
                    "duration": 0.0865384687499926
                },
                {
                    "name": "C5",
                    "midi": 72,
                    "time": 65.78846702083295,
                    "velocity": 0.7874015748031497,
                    "duration": 0.0865384687499926
                },
                {
                    "name": "D5",
                    "midi": 74,
                    "time": 65.86539010416628,
                    "velocity": 0.7874015748031497,
                    "duration": 0.0865384687499926
                },
                {
                    "name": "C5",
                    "midi": 72,
                    "time": 65.95192857291627,
                    "velocity": 0.7874015748031497,
                    "duration": 0.0865384687499926
                },
                {
                    "name": "D5",
                    "midi": 74,
                    "time": 66.0288516562496,
                    "velocity": 0.7874015748031497,
                    "duration": 0.0865384687499926
                },
                {
                    "name": "C5",
                    "midi": 72,
                    "time": 66.10577473958293,
                    "velocity": 0.7874015748031497,
                    "duration": 0.0865384687499926
                },
                {
                    "name": "B4",
                    "midi": 71,
                    "time": 66.18269782291625,
                    "velocity": 0.7874015748031497,
                    "duration": 0.11538462500000435
                },
                {
                    "name": "C5",
                    "midi": 72,
                    "time": 66.29808244791626,
                    "velocity": 0.7874015748031497,
                    "duration": 0.11538462500000435
                },
                {
                    "name": "G#5",
                    "midi": 80,
                    "time": 66.46154399999959,
                    "velocity": 0.7874015748031497,
                    "duration": 0.1923077083333311
                },
                {
                    "name": "F5",
                    "midi": 77,
                    "time": 66.61539016666626,
                    "velocity": 0.7874015748031497,
                    "duration": 0.1923077083333311
                },
                {
                    "name": "D5",
                    "midi": 74,
                    "time": 66.76923633333293,
                    "velocity": 0.7874015748031497,
                    "duration": 0.1923077083333311
                },
                {
                    "name": "B4",
                    "midi": 71,
                    "time": 66.9230824999996,
                    "velocity": 0.7874015748031497,
                    "duration": 0.1923077083333311
                },
                {
                    "name": "F4",
                    "midi": 65,
                    "time": 67.0673132812496,
                    "velocity": 0.7874015748031497,
                    "duration": 0.1923077083333311
                },
                {
                    "name": "D4",
                    "midi": 62,
                    "time": 67.22115944791626,
                    "velocity": 0.7874015748031497,
                    "duration": 0.1923077083333311
                },
                {
                    "name": "B3",
                    "midi": 59,
                    "time": 67.3846209999996,
                    "velocity": 0.7874015748031497,
                    "duration": 0.30769233333333545
                },
                {
                    "name": "G#5",
                    "midi": 80,
                    "time": 67.8461594999996,
                    "velocity": 0.7874015748031497,
                    "duration": 0.24038463541666033
                },
                {
                    "name": "F5",
                    "midi": 77,
                    "time": 67.8461594999996,
                    "velocity": 0.7874015748031497,
                    "duration": 0.24038463541666033
                },
                {
                    "name": "D5",
                    "midi": 74,
                    "time": 67.8461594999996,
                    "velocity": 0.7874015748031497,
                    "duration": 0.24038463541666033
                },
                {
                    "name": "B4",
                    "midi": 71,
                    "time": 67.8461594999996,
                    "velocity": 0.7874015748031497,
                    "duration": 0.24038463541666033
                },
                {
                    "name": "G#5",
                    "midi": 80,
                    "time": 68.30769799999959,
                    "velocity": 0.7874015748031497,
                    "duration": 0.48076927083333487
                },
                {
                    "name": "F5",
                    "midi": 77,
                    "time": 68.30769799999959,
                    "velocity": 0.7874015748031497,
                    "duration": 0.48076927083333487
                },
                {
                    "name": "D5",
                    "midi": 74,
                    "time": 68.30769799999959,
                    "velocity": 0.7874015748031497,
                    "duration": 0.48076927083333487
                },
                {
                    "name": "B4",
                    "midi": 71,
                    "time": 68.30769799999959,
                    "velocity": 0.7874015748031497,
                    "duration": 0.48076927083333487
                },
                {
                    "name": "G5",
                    "midi": 79,
                    "time": 68.7692364999996,
                    "velocity": 0.7874015748031497,
                    "duration": 0.34615387499999883
                },
                {
                    "name": "D#5",
                    "midi": 75,
                    "time": 68.7692364999996,
                    "velocity": 0.7874015748031497,
                    "duration": 0.34615387499999883
                },
                {
                    "name": "C5",
                    "midi": 72,
                    "time": 68.7692364999996,
                    "velocity": 0.7874015748031497,
                    "duration": 0.34615387499999883
                },
                {
                    "name": "C5",
                    "midi": 72,
                    "time": 70.30769816666626,
                    "velocity": 0.7874015748031497,
                    "duration": 0.1923077083333311
                },
                {
                    "name": "D5",
                    "midi": 74,
                    "time": 70.46154433333292,
                    "velocity": 0.7874015748031497,
                    "duration": 0.1923077083333311
                },
                {
                    "name": "D#5",
                    "midi": 75,
                    "time": 70.61539049999959,
                    "velocity": 0.7874015748031497,
                    "duration": 0.1923077083333311
                },
                {
                    "name": "F5",
                    "midi": 77,
                    "time": 70.7596212812496,
                    "velocity": 0.7874015748031497,
                    "duration": 0.1923077083333311
                },
                {
                    "name": "G5",
                    "midi": 79,
                    "time": 70.91346744791626,
                    "velocity": 0.7874015748031497,
                    "duration": 0.1923077083333311
                },
                {
                    "name": "G#5",
                    "midi": 80,
                    "time": 71.0769289999996,
                    "velocity": 0.8661417322834646,
                    "duration": 0.2115384791666628
                },
                {
                    "name": "G5",
                    "midi": 79,
                    "time": 71.23077516666626,
                    "velocity": 0.7874015748031497,
                    "duration": 0.1923077083333311
                },
                {
                    "name": "F5",
                    "midi": 77,
                    "time": 71.38462133333293,
                    "velocity": 0.7874015748031497,
                    "duration": 0.1923077083333311
                },
                {
                    "name": "D#5",
                    "midi": 75,
                    "time": 71.5384674999996,
                    "velocity": 0.7874015748031497,
                    "duration": 0.1923077083333311
                },
                {
                    "name": "D5",
                    "midi": 74,
                    "time": 71.6826982812496,
                    "velocity": 0.7874015748031497,
                    "duration": 0.1923077083333311
                },
                {
                    "name": "C5",
                    "midi": 72,
                    "time": 71.83654444791627,
                    "velocity": 0.7874015748031497,
                    "duration": 0.1923077083333311
                },
                {
                    "name": "B4",
                    "midi": 71,
                    "time": 72.0000059999996,
                    "velocity": 0.7874015748031497,
                    "duration": 0.1923077083333311
                },
                {
                    "name": "D5",
                    "midi": 74,
                    "time": 72.15385216666627,
                    "velocity": 0.7874015748031497,
                    "duration": 0.1923077083333311
                },
                {
                    "name": "C5",
                    "midi": 72,
                    "time": 72.30769833333294,
                    "velocity": 0.7874015748031497,
                    "duration": 0.1923077083333311
                },
                {
                    "name": "B4",
                    "midi": 71,
                    "time": 72.4615444999996,
                    "velocity": 0.7874015748031497,
                    "duration": 0.1923077083333311
                },
                {
                    "name": "A4",
                    "midi": 69,
                    "time": 72.6057752812496,
                    "velocity": 0.7874015748031497,
                    "duration": 0.1923077083333311
                },
                {
                    "name": "G4",
                    "midi": 67,
                    "time": 72.75962144791627,
                    "velocity": 0.7874015748031497,
                    "duration": 0.1923077083333311
                },
                {
                    "name": "F4",
                    "midi": 65,
                    "time": 72.92308299999961,
                    "velocity": 0.8661417322834646,
                    "duration": 0.1923077083333311
                },
                {
                    "name": "G#4",
                    "midi": 68,
                    "time": 73.07692916666628,
                    "velocity": 0.7874015748031497,
                    "duration": 0.1923077083333311
                },
                {
                    "name": "G4",
                    "midi": 67,
                    "time": 73.23077533333294,
                    "velocity": 0.7874015748031497,
                    "duration": 0.1923077083333311
                },
                {
                    "name": "F4",
                    "midi": 65,
                    "time": 73.38462149999961,
                    "velocity": 0.7874015748031497,
                    "duration": 0.1923077083333311
                },
                {
                    "name": "D#4",
                    "midi": 63,
                    "time": 73.52885228124961,
                    "velocity": 0.7874015748031497,
                    "duration": 0.1923077083333311
                },
                {
                    "name": "D4",
                    "midi": 62,
                    "time": 73.68269844791628,
                    "velocity": 0.7874015748031497,
                    "duration": 0.1923077083333311
                },
                {
                    "name": "D#4",
                    "midi": 63,
                    "time": 73.84615999999961,
                    "velocity": 0.7874015748031497,
                    "duration": 0.11538462499999014
                },
                {
                    "name": "D4",
                    "midi": 62,
                    "time": 73.9326984687496,
                    "velocity": 0.7874015748031497,
                    "duration": 0.11538462499999014
                },
                {
                    "name": "D#4",
                    "midi": 63,
                    "time": 74.02885232291626,
                    "velocity": 0.7874015748031497,
                    "duration": 0.3846154166666764
                },
                {
                    "name": "C4",
                    "midi": 60,
                    "time": 74.3076984999996,
                    "velocity": 0.7874015748031497,
                    "duration": 0.30769233333333545
                },
                {
                    "name": "D5",
                    "midi": 74,
                    "time": 74.92308316666627,
                    "velocity": 0.7874015748031497,
                    "duration": 0.1923077083333311
                },
                {
                    "name": "D#5",
                    "midi": 75,
                    "time": 75.07692933333294,
                    "velocity": 0.7874015748031497,
                    "duration": 0.1923077083333311
                },
                {
                    "name": "E5",
                    "midi": 76,
                    "time": 75.23077549999961,
                    "velocity": 0.7874015748031497,
                    "duration": 0.1923077083333311
                },
                {
                    "name": "F5",
                    "midi": 77,
                    "time": 75.37500628124961,
                    "velocity": 0.7874015748031497,
                    "duration": 0.1923077083333311
                },
                {
                    "name": "F#5",
                    "midi": 78,
                    "time": 75.52885244791628,
                    "velocity": 0.7874015748031497,
                    "duration": 0.1923077083333311
                },
                {
                    "name": "G5",
                    "midi": 79,
                    "time": 75.69231399999961,
                    "velocity": 0.7874015748031497,
                    "duration": 0.1923077083333311
                },
                {
                    "name": "F#5",
                    "midi": 78,
                    "time": 75.84616016666628,
                    "velocity": 0.7874015748031497,
                    "duration": 0.1923077083333311
                },
                {
                    "name": "A5",
                    "midi": 81,
                    "time": 76.00000633333295,
                    "velocity": 0.7874015748031497,
                    "duration": 0.1250000104166702
                },
                {
                    "name": "D#5",
                    "midi": 75,
                    "time": 76.15385249999962,
                    "velocity": 0.7874015748031497,
                    "duration": 0.22115386458332864
                },
                {
                    "name": "D5",
                    "midi": 74,
                    "time": 76.29808328124962,
                    "velocity": 0.7874015748031497,
                    "duration": 0.1923077083333169
                },
                {
                    "name": "G5",
                    "midi": 79,
                    "time": 76.45192944791627,
                    "velocity": 0.7874015748031497,
                    "duration": 0.1250000104166702
                },
                {
                    "name": "C5",
                    "midi": 72,
                    "time": 76.6153909999996,
                    "velocity": 0.7874015748031497,
                    "duration": 0.22115386458332864
                },
                {
                    "name": "B4",
                    "midi": 71,
                    "time": 76.76923716666627,
                    "velocity": 0.7874015748031497,
                    "duration": 0.1923077083333311
                },
                {
                    "name": "D5",
                    "midi": 74,
                    "time": 76.92308333333294,
                    "velocity": 0.7874015748031497,
                    "duration": 0.1250000104166702
                },
                {
                    "name": "G#4",
                    "midi": 68,
                    "time": 77.07692949999961,
                    "velocity": 0.7874015748031497,
                    "duration": 0.22115386458332864
                },
                {
                    "name": "G4",
                    "midi": 67,
                    "time": 77.22116028124961,
                    "velocity": 0.7874015748031497,
                    "duration": 0.1923077083333169
                },
                {
                    "name": "F5",
                    "midi": 77,
                    "time": 77.37500644791626,
                    "velocity": 0.7874015748031497,
                    "duration": 0.1250000104166702
                },
                {
                    "name": "E5",
                    "midi": 76,
                    "time": 77.5384679999996,
                    "velocity": 0.7874015748031497,
                    "duration": 0.18269232291666526
                },
                {
                    "name": "C#5",
                    "midi": 73,
                    "time": 77.69231416666626,
                    "velocity": 0.7874015748031497,
                    "duration": 0.18269232291666526
                },
                {
                    "name": "A#4",
                    "midi": 70,
                    "time": 77.84616033333293,
                    "velocity": 0.7874015748031497,
                    "duration": 0.18269232291666526
                },
                {
                    "name": "G4",
                    "midi": 67,
                    "time": 78.0000064999996,
                    "velocity": 0.7874015748031497,
                    "duration": 0.4230769583333256
                },
                {
                    "name": "C5",
                    "midi": 72,
                    "time": 78.61539116666626,
                    "velocity": 0.7874015748031497,
                    "duration": 0.1923077083333311
                },
                {
                    "name": "C#5",
                    "midi": 73,
                    "time": 78.76923733333292,
                    "velocity": 0.7874015748031497,
                    "duration": 0.1923077083333311
                },
                {
                    "name": "D5",
                    "midi": 74,
                    "time": 78.92308349999959,
                    "velocity": 0.7874015748031497,
                    "duration": 0.1923077083333311
                },
                {
                    "name": "D#5",
                    "midi": 75,
                    "time": 79.0673142812496,
                    "velocity": 0.7874015748031497,
                    "duration": 0.1923077083333311
                },
                {
                    "name": "E5",
                    "midi": 76,
                    "time": 79.22116044791626,
                    "velocity": 0.7874015748031497,
                    "duration": 0.1923077083333311
                },
                {
                    "name": "F5",
                    "midi": 77,
                    "time": 79.3846219999996,
                    "velocity": 0.7874015748031497,
                    "duration": 0.22115386458332864
                },
                {
                    "name": "E5",
                    "midi": 76,
                    "time": 79.53846816666626,
                    "velocity": 0.7874015748031497,
                    "duration": 0.1923077083333311
                },
                {
                    "name": "G5",
                    "midi": 79,
                    "time": 79.69231433333293,
                    "velocity": 0.7874015748031497,
                    "duration": 0.1250000104166702
                },
                {
                    "name": "C#5",
                    "midi": 73,
                    "time": 79.8461604999996,
                    "velocity": 0.7874015748031497,
                    "duration": 0.22115386458332864
                },
                {
                    "name": "C5",
                    "midi": 72,
                    "time": 79.9903912812496,
                    "velocity": 0.7874015748031497,
                    "duration": 0.1923077083333169
                },
                {
                    "name": "F5",
                    "midi": 77,
                    "time": 80.14423744791625,
                    "velocity": 0.7874015748031497,
                    "duration": 0.1250000104166702
                },
                {
                    "name": "A#4",
                    "midi": 70,
                    "time": 80.30769899999959,
                    "velocity": 0.7874015748031497,
                    "duration": 0.22115386458332864
                },
                {
                    "name": "A4",
                    "midi": 69,
                    "time": 80.46154516666626,
                    "velocity": 0.7874015748031497,
                    "duration": 0.1923077083333311
                },
                {
                    "name": "C5",
                    "midi": 72,
                    "time": 80.61539133333292,
                    "velocity": 0.7874015748031497,
                    "duration": 0.1250000104166702
                },
                {
                    "name": "F#4",
                    "midi": 66,
                    "time": 80.76923749999959,
                    "velocity": 0.7874015748031497,
                    "duration": 0.22115386458332864
                },
                {
                    "name": "F4",
                    "midi": 65,
                    "time": 80.91346828124959,
                    "velocity": 0.7874015748031497,
                    "duration": 0.1923077083333169
                },
                {
                    "name": "D#5",
                    "midi": 75,
                    "time": 81.06731444791625,
                    "velocity": 0.7874015748031497,
                    "duration": 0.1250000104166702
                },
                {
                    "name": "D5",
                    "midi": 74,
                    "time": 81.23077599999958,
                    "velocity": 0.7874015748031497,
                    "duration": 0.22115386458332864
                },
                {
                    "name": "B4",
                    "midi": 71,
                    "time": 81.38462216666625,
                    "velocity": 0.7874015748031497,
                    "duration": 0.22115386458332864
                },
                {
                    "name": "G#4",
                    "midi": 68,
                    "time": 81.53846833333291,
                    "velocity": 0.7874015748031497,
                    "duration": 0.22115386458332864
                },
                {
                    "name": "F4",
                    "midi": 65,
                    "time": 81.69231449999958,
                    "velocity": 0.7874015748031497,
                    "duration": 0.22115386458332864
                },
                {
                    "name": "F5",
                    "midi": 77,
                    "time": 82.30769916666624,
                    "velocity": 0.7874015748031497,
                    "duration": 0.22115386458332864
                },
                {
                    "name": "D#5",
                    "midi": 75,
                    "time": 82.46154533333291,
                    "velocity": 0.7874015748031497,
                    "duration": 0.22115386458332864
                },
                {
                    "name": "D5",
                    "midi": 74,
                    "time": 82.61539149999957,
                    "velocity": 0.7874015748031497,
                    "duration": 0.22115386458331443
                },
                {
                    "name": "C5",
                    "midi": 72,
                    "time": 82.75962228124956,
                    "velocity": 0.7874015748031497,
                    "duration": 0.22115386458331443
                },
                {
                    "name": "B4",
                    "midi": 71,
                    "time": 82.91346844791622,
                    "velocity": 0.7874015748031497,
                    "duration": 0.14423078124998767
                },
                {
                    "name": "B4",
                    "midi": 71,
                    "time": 83.07692999999954,
                    "velocity": 0.7874015748031497,
                    "duration": 0.22115386458332864
                },
                {
                    "name": "C5",
                    "midi": 72,
                    "time": 83.2307761666662,
                    "velocity": 0.7874015748031497,
                    "duration": 0.22115386458332864
                },
                {
                    "name": "G4",
                    "midi": 67,
                    "time": 83.38462233333287,
                    "velocity": 0.7874015748031497,
                    "duration": 0.22115386458332864
                },
                {
                    "name": "D#4",
                    "midi": 63,
                    "time": 83.53846849999954,
                    "velocity": 0.7874015748031497,
                    "duration": 0.4519231145833231
                },
                {
                    "name": "D#5",
                    "midi": 75,
                    "time": 84.1538531666662,
                    "velocity": 0.7874015748031497,
                    "duration": 0.22115386458332864
                },
                {
                    "name": "D5",
                    "midi": 74,
                    "time": 84.30769933333286,
                    "velocity": 0.7874015748031497,
                    "duration": 0.22115386458332864
                },
                {
                    "name": "C5",
                    "midi": 72,
                    "time": 84.46154549999953,
                    "velocity": 0.7874015748031497,
                    "duration": 0.22115386458331443
                },
                {
                    "name": "D5",
                    "midi": 74,
                    "time": 84.60577628124952,
                    "velocity": 0.7874015748031497,
                    "duration": 0.22115386458331443
                },
                {
                    "name": "D#5",
                    "midi": 75,
                    "time": 84.75962244791617,
                    "velocity": 0.7874015748031497,
                    "duration": 0.22115386458332864
                },
                {
                    "name": "F4",
                    "midi": 65,
                    "time": 84.9230839999995,
                    "velocity": 0.7874015748031497,
                    "duration": 0.2980769479166412
                },
                {
                    "name": "D#4",
                    "midi": 63,
                    "time": 85.05769939583283,
                    "velocity": 0.7874015748031497,
                    "duration": 0.0865384687499926
                },
                {
                    "name": "F4",
                    "midi": 65,
                    "time": 85.13462247916615,
                    "velocity": 0.7874015748031497,
                    "duration": 0.24038463541664612
                },
                {
                    "name": "D#4",
                    "midi": 63,
                    "time": 85.21154556249948,
                    "velocity": 0.7874015748031497,
                    "duration": 0.0865384687499926
                },
                {
                    "name": "F4",
                    "midi": 65,
                    "time": 85.28846864583281,
                    "velocity": 0.7874015748031497,
                    "duration": 0.21153847916664859
                },
                {
                    "name": "D#4",
                    "midi": 63,
                    "time": 85.33654557291614,
                    "velocity": 0.7874015748031497,
                    "duration": 0.0865384687499926
                },
                {
                    "name": "F4",
                    "midi": 65,
                    "time": 85.41346865624946,
                    "velocity": 0.7874015748031497,
                    "duration": 0.24038463541664612
                },
                {
                    "name": "D#4",
                    "midi": 63,
                    "time": 85.49039173958279,
                    "velocity": 0.7874015748031497,
                    "duration": 0.0865384687499926
                },
                {
                    "name": "F4",
                    "midi": 65,
                    "time": 85.56731482291612,
                    "velocity": 0.7874015748031497,
                    "duration": 0.24038463541664612
                },
                {
                    "name": "D#4",
                    "midi": 63,
                    "time": 85.64423790624944,
                    "velocity": 0.7874015748031497,
                    "duration": 0.0865384687499926
                },
                {
                    "name": "F4",
                    "midi": 65,
                    "time": 85.72116098958277,
                    "velocity": 0.7874015748031497,
                    "duration": 0.24038463541664612
                },
                {
                    "name": "D#4",
                    "midi": 63,
                    "time": 85.7980840729161,
                    "velocity": 0.7874015748031497,
                    "duration": 0.0865384687499926
                },
                {
                    "name": "F4",
                    "midi": 65,
                    "time": 85.87500715624942,
                    "velocity": 0.7874015748031497,
                    "duration": 0.24038463541664612
                },
                {
                    "name": "D#4",
                    "midi": 63,
                    "time": 85.95193023958275,
                    "velocity": 0.7874015748031497,
                    "duration": 0.0865384687499926
                },
                {
                    "name": "F4",
                    "midi": 65,
                    "time": 86.02885332291608,
                    "velocity": 0.7874015748031497,
                    "duration": 0.24038463541664612
                },
                {
                    "name": "D#4",
                    "midi": 63,
                    "time": 86.1057764062494,
                    "velocity": 0.7874015748031497,
                    "duration": 0.0865384687499926
                },
                {
                    "name": "F4",
                    "midi": 65,
                    "time": 86.18269948958273,
                    "velocity": 0.7874015748031497,
                    "duration": 0.24038463541664612
                },
                {
                    "name": "D#4",
                    "midi": 63,
                    "time": 86.25962257291606,
                    "velocity": 0.7874015748031497,
                    "duration": 0.0865384687499926
                },
                {
                    "name": "F4",
                    "midi": 65,
                    "time": 86.33654565624938,
                    "velocity": 0.7874015748031497,
                    "duration": 0.0865384687499926
                },
                {
                    "name": "D#4",
                    "midi": 63,
                    "time": 86.41346873958271,
                    "velocity": 0.7874015748031497,
                    "duration": 0.1250000104166702
                },
                {
                    "name": "D4",
                    "midi": 62,
                    "time": 86.53846874999938,
                    "velocity": 0.7874015748031497,
                    "duration": 0.08653846875000681
                },
                {
                    "name": "D#4",
                    "midi": 63,
                    "time": 86.65385337499939,
                    "velocity": 0.7874015748031497,
                    "duration": 0.08653846875000681
                },
                {
                    "name": "D#4",
                    "midi": 63,
                    "time": 86.76923799999939,
                    "velocity": 0.7874015748031497,
                    "duration": 0.45192311458333734
                },
                {
                    "name": "C4",
                    "midi": 60,
                    "time": 86.76923799999939,
                    "velocity": 0.7874015748031497,
                    "duration": 0.45192311458333734
                },
                {
                    "name": "B3",
                    "midi": 59,
                    "time": 87.2307764999994,
                    "velocity": 0.7874015748031497,
                    "duration": 0.45192311458333734
                },
                {
                    "name": "D4",
                    "midi": 62,
                    "time": 87.2307764999994,
                    "velocity": 0.7874015748031497,
                    "duration": 0.45192311458333734
                },
                {
                    "name": "A#4",
                    "midi": 70,
                    "time": 88.76923816666607,
                    "velocity": 0.7874015748031497,
                    "duration": 0.1923077083333311
                },
                {
                    "name": "G4",
                    "midi": 67,
                    "time": 88.92308433333274,
                    "velocity": 0.7874015748031497,
                    "duration": 0.1923077083333311
                },
                {
                    "name": "C#4",
                    "midi": 61,
                    "time": 89.0769304999994,
                    "velocity": 0.7874015748031497,
                    "duration": 0.1923077083333311
                },
                {
                    "name": "A#5",
                    "midi": 82,
                    "time": 89.0769304999994,
                    "velocity": 0.7874015748031497,
                    "duration": 0.45192311458333734
                },
                {
                    "name": "G5",
                    "midi": 79,
                    "time": 89.0769304999994,
                    "velocity": 0.7874015748031497,
                    "duration": 0.45192311458333734
                },
                {
                    "name": "E5",
                    "midi": 76,
                    "time": 89.0769304999994,
                    "velocity": 0.7874015748031497,
                    "duration": 0.45192311458333734
                },
                {
                    "name": "A#4",
                    "midi": 70,
                    "time": 89.22116128124941,
                    "velocity": 0.7874015748031497,
                    "duration": 0.1923077083333311
                },
                {
                    "name": "G4",
                    "midi": 67,
                    "time": 89.37500744791608,
                    "velocity": 0.7874015748031497,
                    "duration": 0.1923077083333311
                },
                {
                    "name": "C#4",
                    "midi": 61,
                    "time": 89.53846899999941,
                    "velocity": 0.7874015748031497,
                    "duration": 0.1923077083333311
                },
                {
                    "name": "A#5",
                    "midi": 82,
                    "time": 89.53846899999941,
                    "velocity": 0.7874015748031497,
                    "duration": 0.45192311458333734
                },
                {
                    "name": "G5",
                    "midi": 79,
                    "time": 89.53846899999941,
                    "velocity": 0.7874015748031497,
                    "duration": 0.45192311458333734
                },
                {
                    "name": "E5",
                    "midi": 76,
                    "time": 89.53846899999941,
                    "velocity": 0.7874015748031497,
                    "duration": 0.45192311458333734
                },
                {
                    "name": "A#4",
                    "midi": 70,
                    "time": 89.69231516666608,
                    "velocity": 0.7874015748031497,
                    "duration": 0.1923077083333311
                },
                {
                    "name": "G4",
                    "midi": 67,
                    "time": 89.84616133333274,
                    "velocity": 0.7874015748031497,
                    "duration": 0.1923077083333311
                },
                {
                    "name": "C#4",
                    "midi": 61,
                    "time": 90.00000749999941,
                    "velocity": 0.7874015748031497,
                    "duration": 0.1923077083333311
                },
                {
                    "name": "A#4",
                    "midi": 70,
                    "time": 90.14423828124941,
                    "velocity": 0.7874015748031497,
                    "duration": 0.1923077083333311
                },
                {
                    "name": "G4",
                    "midi": 67,
                    "time": 90.29808444791608,
                    "velocity": 0.7874015748031497,
                    "duration": 0.1923077083333311
                },
                {
                    "name": "C4",
                    "midi": 60,
                    "time": 90.46154599999942,
                    "velocity": 0.7874015748031497,
                    "duration": 0.1923077083333311
                },
                {
                    "name": "G#4",
                    "midi": 68,
                    "time": 90.61539216666608,
                    "velocity": 0.7874015748031497,
                    "duration": 0.1923077083333311
                },
                {
                    "name": "F4",
                    "midi": 65,
                    "time": 90.76923833333275,
                    "velocity": 0.7874015748031497,
                    "duration": 0.6442308229166684
                },
                {
                    "name": "C4",
                    "midi": 60,
                    "time": 90.92308449999942,
                    "velocity": 0.7874015748031497,
                    "duration": 0.1923077083333311
                },
                {
                    "name": "F5",
                    "midi": 77,
                    "time": 90.92308449999942,
                    "velocity": 0.7874015748031497,
                    "duration": 0.45192311458333734
                },
                {
                    "name": "G#5",
                    "midi": 80,
                    "time": 90.92308449999942,
                    "velocity": 0.7874015748031497,
                    "duration": 0.45192311458333734
                },
                {
                    "name": "G#4",
                    "midi": 68,
                    "time": 91.06731528124942,
                    "velocity": 0.7874015748031497,
                    "duration": 0.1923077083333311
                },
                {
                    "name": "F4",
                    "midi": 65,
                    "time": 91.22116144791609,
                    "velocity": 0.7874015748031497,
                    "duration": 0.6634615937500001
                },
                {
                    "name": "C4",
                    "midi": 60,
                    "time": 91.38462299999942,
                    "velocity": 0.7874015748031497,
                    "duration": 0.1923077083333311
                },
                {
                    "name": "G#5",
                    "midi": 80,
                    "time": 91.38462299999942,
                    "velocity": 0.7874015748031497,
                    "duration": 0.45192311458333734
                },
                {
                    "name": "F5",
                    "midi": 77,
                    "time": 91.38462299999942,
                    "velocity": 0.7874015748031497,
                    "duration": 0.45192311458333734
                },
                {
                    "name": "G#4",
                    "midi": 68,
                    "time": 91.53846916666609,
                    "velocity": 0.7874015748031497,
                    "duration": 0.1923077083333311
                },
                {
                    "name": "F4",
                    "midi": 65,
                    "time": 91.69231533333276,
                    "velocity": 0.7874015748031497,
                    "duration": 0.6250000520833368
                },
                {
                    "name": "C4",
                    "midi": 60,
                    "time": 91.84616149999943,
                    "velocity": 0.7874015748031497,
                    "duration": 0.1923077083333311
                },
                {
                    "name": "G#4",
                    "midi": 68,
                    "time": 91.99039228124943,
                    "velocity": 0.7874015748031497,
                    "duration": 0.1923077083333311
                },
                {
                    "name": "F4",
                    "midi": 65,
                    "time": 92.1442384479161,
                    "velocity": 0.7874015748031497,
                    "duration": 0.6634615937500001
                },
                {
                    "name": "B3",
                    "midi": 59,
                    "time": 92.30769999999943,
                    "velocity": 0.7874015748031497,
                    "duration": 0.1923077083333311
                },
                {
                    "name": "G#4",
                    "midi": 68,
                    "time": 92.4615461666661,
                    "velocity": 0.7874015748031497,
                    "duration": 0.1923077083333311
                },
                {
                    "name": "F4",
                    "midi": 65,
                    "time": 92.61539233333276,
                    "velocity": 0.7874015748031497,
                    "duration": 0.6442308229166684
                },
                {
                    "name": "B3",
                    "midi": 59,
                    "time": 92.76923849999943,
                    "velocity": 0.7874015748031497,
                    "duration": 0.1923077083333311
                },
                {
                    "name": "G#5",
                    "midi": 80,
                    "time": 92.76923849999943,
                    "velocity": 0.7874015748031497,
                    "duration": 0.45192311458333734
                },
                {
                    "name": "F5",
                    "midi": 77,
                    "time": 92.76923849999943,
                    "velocity": 0.7874015748031497,
                    "duration": 0.45192311458333734
                },
                {
                    "name": "D5",
                    "midi": 74,
                    "time": 92.76923849999943,
                    "velocity": 0.7874015748031497,
                    "duration": 0.45192311458333734
                },
                {
                    "name": "G#4",
                    "midi": 68,
                    "time": 92.91346928124943,
                    "velocity": 0.7874015748031497,
                    "duration": 0.1923077083333311
                },
                {
                    "name": "F4",
                    "midi": 65,
                    "time": 93.0673154479161,
                    "velocity": 0.7874015748031497,
                    "duration": 0.6634615937500001
                },
                {
                    "name": "B3",
                    "midi": 59,
                    "time": 93.23077699999943,
                    "velocity": 0.7874015748031497,
                    "duration": 0.1923077083333311
                },
                {
                    "name": "G#5",
                    "midi": 80,
                    "time": 93.23077699999943,
                    "velocity": 0.7874015748031497,
                    "duration": 0.45192311458333734
                },
                {
                    "name": "F5",
                    "midi": 77,
                    "time": 93.23077699999943,
                    "velocity": 0.7874015748031497,
                    "duration": 0.45192311458333734
                },
                {
                    "name": "D5",
                    "midi": 74,
                    "time": 93.23077699999943,
                    "velocity": 0.7874015748031497,
                    "duration": 0.45192311458333734
                },
                {
                    "name": "G#4",
                    "midi": 68,
                    "time": 93.3846231666661,
                    "velocity": 0.7874015748031497,
                    "duration": 0.1923077083333311
                },
                {
                    "name": "F4",
                    "midi": 65,
                    "time": 93.53846933333277,
                    "velocity": 0.7874015748031497,
                    "duration": 0.6442308229166684
                },
                {
                    "name": "B3",
                    "midi": 59,
                    "time": 93.69231549999944,
                    "velocity": 0.7874015748031497,
                    "duration": 0.1923077083333311
                },
                {
                    "name": "G#4",
                    "midi": 68,
                    "time": 93.83654628124944,
                    "velocity": 0.7874015748031497,
                    "duration": 0.1923077083333311
                },
                {
                    "name": "F4",
                    "midi": 65,
                    "time": 93.99039244791611,
                    "velocity": 0.7874015748031497,
                    "duration": 0.1923077083333311
                },
                {
                    "name": "A#3",
                    "midi": 58,
                    "time": 94.15385399999944,
                    "velocity": 0.7874015748031497,
                    "duration": 0.1923077083333311
                },
                {
                    "name": "G4",
                    "midi": 67,
                    "time": 94.30770016666611,
                    "velocity": 0.7874015748031497,
                    "duration": 0.1923077083333311
                },
                {
                    "name": "D#4",
                    "midi": 63,
                    "time": 94.46154633333278,
                    "velocity": 0.7874015748031497,
                    "duration": 0.1923077083333311
                },
                {
                    "name": "A#3",
                    "midi": 58,
                    "time": 94.61539249999944,
                    "velocity": 0.7874015748031497,
                    "duration": 0.1923077083333311
                },
                {
                    "name": "D#5",
                    "midi": 75,
                    "time": 94.61539249999944,
                    "velocity": 0.7874015748031497,
                    "duration": 0.45192311458333734
                },
                {
                    "name": "G5",
                    "midi": 79,
                    "time": 94.61539249999944,
                    "velocity": 0.7874015748031497,
                    "duration": 0.9134616145833405
                },
                {
                    "name": "G4",
                    "midi": 67,
                    "time": 94.75962328124945,
                    "velocity": 0.7874015748031497,
                    "duration": 0.1923077083333311
                },
                {
                    "name": "D#4",
                    "midi": 63,
                    "time": 94.91346944791611,
                    "velocity": 0.7874015748031497,
                    "duration": 0.1923077083333311
                },
                {
                    "name": "A#3",
                    "midi": 58,
                    "time": 95.07693099999945,
                    "velocity": 0.7874015748031497,
                    "duration": 0.1923077083333311
                },
                {
                    "name": "D#5",
                    "midi": 75,
                    "time": 95.07693099999945,
                    "velocity": 0.7874015748031497,
                    "duration": 0.45192311458333734
                },
                {
                    "name": "G5",
                    "midi": 79,
                    "time": 95.07693099999945,
                    "velocity": 0.7874015748031497,
                    "duration": 0.45192311458333734
                },
                {
                    "name": "G4",
                    "midi": 67,
                    "time": 95.23077716666612,
                    "velocity": 0.7874015748031497,
                    "duration": 0.1923077083333311
                },
                {
                    "name": "D#4",
                    "midi": 63,
                    "time": 95.38462333333278,
                    "velocity": 0.7874015748031497,
                    "duration": 0.1923077083333311
                },
                {
                    "name": "A#3",
                    "midi": 58,
                    "time": 95.53846949999945,
                    "velocity": 0.7874015748031497,
                    "duration": 0.1923077083333311
                },
                {
                    "name": "G4",
                    "midi": 67,
                    "time": 95.68270028124945,
                    "velocity": 0.7874015748031497,
                    "duration": 0.1923077083333311
                },
                {
                    "name": "D#4",
                    "midi": 63,
                    "time": 95.83654644791612,
                    "velocity": 0.7874015748031497,
                    "duration": 0.1923077083333311
                },
                {
                    "name": "C4",
                    "midi": 60,
                    "time": 96.00000799999945,
                    "velocity": 0.7874015748031497,
                    "duration": 0.1923077083333311
                },
                {
                    "name": "D4",
                    "midi": 62,
                    "time": 96.15385416666612,
                    "velocity": 0.7874015748031497,
                    "duration": 0.1923077083333311
                },
                {
                    "name": "D#4",
                    "midi": 63,
                    "time": 96.30770033333279,
                    "velocity": 0.7874015748031497,
                    "duration": 0.1923077083333311
                },
                {
                    "name": "F4",
                    "midi": 65,
                    "time": 96.46154649999946,
                    "velocity": 0.7874015748031497,
                    "duration": 0.45192311458333734
                },
                {
                    "name": "C5",
                    "midi": 72,
                    "time": 96.46154649999946,
                    "velocity": 0.7874015748031497,
                    "duration": 0.45192311458333734
                },
                {
                    "name": "G4",
                    "midi": 67,
                    "time": 96.60577728124946,
                    "velocity": 0.7874015748031497,
                    "duration": 0.1923077083333311
                },
                {
                    "name": "G#4",
                    "midi": 68,
                    "time": 96.75962344791613,
                    "velocity": 0.7874015748031497,
                    "duration": 0.1923077083333311
                },
                {
                    "name": "A#3",
                    "midi": 58,
                    "time": 96.92308499999946,
                    "velocity": 0.7874015748031497,
                    "duration": 0.1923077083333311
                },
                {
                    "name": "D5",
                    "midi": 74,
                    "time": 96.92308499999946,
                    "velocity": 0.7874015748031497,
                    "duration": 0.45192311458333734
                },
                {
                    "name": "G#4",
                    "midi": 68,
                    "time": 97.07693116666613,
                    "velocity": 0.7874015748031497,
                    "duration": 0.1923077083333311
                },
                {
                    "name": "G4",
                    "midi": 67,
                    "time": 97.2307773333328,
                    "velocity": 0.7874015748031497,
                    "duration": 0.1923077083333311
                },
                {
                    "name": "F4",
                    "midi": 65,
                    "time": 97.38462349999946,
                    "velocity": 0.7874015748031497,
                    "duration": 0.807692375000002
                },
                {
                    "name": "D#4",
                    "midi": 63,
                    "time": 97.52885428124947,
                    "velocity": 0.7874015748031497,
                    "duration": 0.1923077083333311
                },
                {
                    "name": "D4",
                    "midi": 62,
                    "time": 97.68270044791613,
                    "velocity": 0.7874015748031497,
                    "duration": 0.1923077083333311
                },
                {
                    "name": "D#4",
                    "midi": 63,
                    "time": 97.84616199999947,
                    "velocity": 0.7874015748031497,
                    "duration": 0.1923077083333311
                },
                {
                    "name": "F4",
                    "midi": 65,
                    "time": 98.00000816666613,
                    "velocity": 0.7874015748031497,
                    "duration": 0.1923077083333311
                },
                {
                    "name": "G4",
                    "midi": 67,
                    "time": 98.1538543333328,
                    "velocity": 0.7874015748031497,
                    "duration": 0.1923077083333311
                },
                {
                    "name": "G#4",
                    "midi": 68,
                    "time": 98.30770049999947,
                    "velocity": 0.7874015748031497,
                    "duration": 0.1923077083333311
                },
                {
                    "name": "D#5",
                    "midi": 75,
                    "time": 98.30770049999947,
                    "velocity": 0.7874015748031497,
                    "duration": 0.45192311458333734
                },
                {
                    "name": "A#4",
                    "midi": 70,
                    "time": 98.45193128124947,
                    "velocity": 0.7874015748031497,
                    "duration": 0.1923077083333311
                },
                {
                    "name": "C5",
                    "midi": 72,
                    "time": 98.60577744791614,
                    "velocity": 0.7874015748031497,
                    "duration": 0.1923077083333311
                },
                {
                    "name": "D4",
                    "midi": 62,
                    "time": 98.76923899999947,
                    "velocity": 0.7874015748031497,
                    "duration": 0.1923077083333311
                },
                {
                    "name": "F5",
                    "midi": 77,
                    "time": 98.76923899999947,
                    "velocity": 0.7874015748031497,
                    "duration": 0.45192311458333734
                },
                {
                    "name": "C5",
                    "midi": 72,
                    "time": 98.92308516666614,
                    "velocity": 0.7874015748031497,
                    "duration": 0.1923077083333311
                },
                {
                    "name": "A#4",
                    "midi": 70,
                    "time": 99.07693133333281,
                    "velocity": 0.7874015748031497,
                    "duration": 0.1923077083333311
                },
                {
                    "name": "G#4",
                    "midi": 68,
                    "time": 99.23077749999948,
                    "velocity": 0.7874015748031497,
                    "duration": 0.1923077083333311
                },
                {
                    "name": "G4",
                    "midi": 67,
                    "time": 99.37500828124948,
                    "velocity": 0.7874015748031497,
                    "duration": 0.1923077083333311
                },
                {
                    "name": "F4",
                    "midi": 65,
                    "time": 99.52885444791615,
                    "velocity": 0.7874015748031497,
                    "duration": 0.1923077083333311
                },
                {
                    "name": "G4",
                    "midi": 67,
                    "time": 99.69231599999948,
                    "velocity": 0.7874015748031497,
                    "duration": 0.1923077083333311
                },
                {
                    "name": "D#5",
                    "midi": 75,
                    "time": 99.84616216666615,
                    "velocity": 0.7874015748031497,
                    "duration": 0.1923077083333311
                },
                {
                    "name": "D5",
                    "midi": 74,
                    "time": 100.00000833333281,
                    "velocity": 0.7874015748031497,
                    "duration": 0.1923077083333311
                },
                {
                    "name": "C5",
                    "midi": 72,
                    "time": 100.15385449999948,
                    "velocity": 0.7874015748031497,
                    "duration": 0.1923077083333311
                },
                {
                    "name": "A#4",
                    "midi": 70,
                    "time": 100.29808528124948,
                    "velocity": 0.7874015748031497,
                    "duration": 0.1923077083333311
                },
                {
                    "name": "G#4",
                    "midi": 68,
                    "time": 100.45193144791615,
                    "velocity": 0.7874015748031497,
                    "duration": 0.1923077083333311
                },
                {
                    "name": "G4",
                    "midi": 67,
                    "time": 100.61539299999949,
                    "velocity": 0.7874015748031497,
                    "duration": 0.1923077083333311
                },
                {
                    "name": "A#4",
                    "midi": 70,
                    "time": 100.76923916666615,
                    "velocity": 0.7874015748031497,
                    "duration": 0.1923077083333311
                },
                {
                    "name": "D#5",
                    "midi": 75,
                    "time": 100.92308533333282,
                    "velocity": 0.7874015748031497,
                    "duration": 0.1923077083333311
                },
                {
                    "name": "F4",
                    "midi": 65,
                    "time": 101.07693149999949,
                    "velocity": 0.7874015748031497,
                    "duration": 0.1923077083333311
                },
                {
                    "name": "G#4",
                    "midi": 68,
                    "time": 101.22116228124949,
                    "velocity": 0.7874015748031497,
                    "duration": 0.1923077083333311
                },
                {
                    "name": "D5",
                    "midi": 74,
                    "time": 101.37500844791616,
                    "velocity": 0.7874015748031497,
                    "duration": 0.1923077083333311
                },
                {
                    "name": "D#5",
                    "midi": 75,
                    "time": 101.53846999999949,
                    "velocity": 0.7874015748031497,
                    "duration": 0.1923077083333311
                },
                {
                    "name": "A#4",
                    "midi": 70,
                    "time": 101.69231616666616,
                    "velocity": 0.7874015748031497,
                    "duration": 0.1923077083333311
                },
                {
                    "name": "G4",
                    "midi": 67,
                    "time": 101.84616233333283,
                    "velocity": 0.7874015748031497,
                    "duration": 0.1923077083333311
                },
                {
                    "name": "C5",
                    "midi": 72,
                    "time": 102.0000084999995,
                    "velocity": 0.7874015748031497,
                    "duration": 0.1923077083333311
                },
                {
                    "name": "D#5",
                    "midi": 75,
                    "time": 102.0000084999995,
                    "velocity": 0.7874015748031497,
                    "duration": 0.30769233333333545
                },
                {
                    "name": "G#4",
                    "midi": 68,
                    "time": 102.1442392812495,
                    "velocity": 0.7874015748031497,
                    "duration": 0.1923077083333311
                },
                {
                    "name": "D#4",
                    "midi": 63,
                    "time": 102.29808544791616,
                    "velocity": 0.7874015748031497,
                    "duration": 0.1923077083333311
                },
                {
                    "name": "A#4",
                    "midi": 70,
                    "time": 102.4615469999995,
                    "velocity": 0.7874015748031497,
                    "duration": 0.1923077083333311
                },
                {
                    "name": "D#5",
                    "midi": 75,
                    "time": 102.4615469999995,
                    "velocity": 0.7874015748031497,
                    "duration": 0.30769233333333545
                },
                {
                    "name": "G4",
                    "midi": 67,
                    "time": 102.61539316666617,
                    "velocity": 0.7874015748031497,
                    "duration": 0.1923077083333311
                },
                {
                    "name": "D#4",
                    "midi": 63,
                    "time": 102.76923933333283,
                    "velocity": 0.7874015748031497,
                    "duration": 0.1923077083333311
                },
                {
                    "name": "G#4",
                    "midi": 68,
                    "time": 102.9230854999995,
                    "velocity": 0.7874015748031497,
                    "duration": 0.1923077083333311
                },
                {
                    "name": "F4",
                    "midi": 65,
                    "time": 103.0673162812495,
                    "velocity": 0.7874015748031497,
                    "duration": 0.1923077083333311
                },
                {
                    "name": "D4",
                    "midi": 62,
                    "time": 103.22116244791617,
                    "velocity": 0.7874015748031497,
                    "duration": 0.1923077083333311
                },
                {
                    "name": "G4",
                    "midi": 67,
                    "time": 103.3846239999995,
                    "velocity": 0.7874015748031497,
                    "duration": 0.1923077083333311
                },
                {
                    "name": "D#4",
                    "midi": 63,
                    "time": 103.53847016666617,
                    "velocity": 0.7874015748031497,
                    "duration": 0.1923077083333311
                },
                {
                    "name": "A#3",
                    "midi": 58,
                    "time": 103.69231633333284,
                    "velocity": 0.7874015748031497,
                    "duration": 0.1923077083333311
                },
                {
                    "name": "G#4",
                    "midi": 68,
                    "time": 103.84616249999951,
                    "velocity": 0.7874015748031497,
                    "duration": 0.1923077083333311
                },
                {
                    "name": "D#5",
                    "midi": 75,
                    "time": 103.84616249999951,
                    "velocity": 0.7874015748031497,
                    "duration": 0.30769233333333545
                },
                {
                    "name": "D#4",
                    "midi": 63,
                    "time": 103.99039328124951,
                    "velocity": 0.7874015748031497,
                    "duration": 0.1923077083333311
                },
                {
                    "name": "C4",
                    "midi": 60,
                    "time": 104.14423944791618,
                    "velocity": 0.7874015748031497,
                    "duration": 0.1923077083333311
                },
                {
                    "name": "G4",
                    "midi": 67,
                    "time": 104.30770099999951,
                    "velocity": 0.7874015748031497,
                    "duration": 0.1923077083333311
                },
                {
                    "name": "D#5",
                    "midi": 75,
                    "time": 104.30770099999951,
                    "velocity": 0.7874015748031497,
                    "duration": 0.30769233333333545
                },
                {
                    "name": "D#4",
                    "midi": 63,
                    "time": 104.46154716666618,
                    "velocity": 0.7874015748031497,
                    "duration": 0.1923077083333311
                },
                {
                    "name": "A#3",
                    "midi": 58,
                    "time": 104.61539333333285,
                    "velocity": 0.7874015748031497,
                    "duration": 0.1923077083333311
                },
                {
                    "name": "F4",
                    "midi": 65,
                    "time": 104.76923949999951,
                    "velocity": 0.7874015748031497,
                    "duration": 0.1923077083333311
                },
                {
                    "name": "D4",
                    "midi": 62,
                    "time": 104.91347028124952,
                    "velocity": 0.7874015748031497,
                    "duration": 0.1923077083333311
                },
                {
                    "name": "G#3",
                    "midi": 56,
                    "time": 105.06731644791618,
                    "velocity": 0.7874015748031497,
                    "duration": 0.1923077083333311
                },
                {
                    "name": "G3",
                    "midi": 55,
                    "time": 105.23077799999952,
                    "velocity": 0.7874015748031497,
                    "duration": 0.1923077083333311
                },
                {
                    "name": "A#3",
                    "midi": 58,
                    "time": 105.38462416666619,
                    "velocity": 0.7874015748031497,
                    "duration": 0.1923077083333311
                },
                {
                    "name": "D#4",
                    "midi": 63,
                    "time": 105.53847033333285,
                    "velocity": 0.7874015748031497,
                    "duration": 0.1923077083333311
                },
                {
                    "name": "C4",
                    "midi": 60,
                    "time": 105.69231649999952,
                    "velocity": 0.7874015748031497,
                    "duration": 0.1923077083333311
                },
                {
                    "name": "D#4",
                    "midi": 63,
                    "time": 105.83654728124952,
                    "velocity": 0.7874015748031497,
                    "duration": 0.1923077083333311
                },
                {
                    "name": "G#4",
                    "midi": 68,
                    "time": 105.99039344791619,
                    "velocity": 0.7874015748031497,
                    "duration": 0.1923077083333311
                },
                {
                    "name": "D#4",
                    "midi": 63,
                    "time": 106.15385499999952,
                    "velocity": 0.7874015748031497,
                    "duration": 0.4423077291666573
                },
                {
                    "name": "D4",
                    "midi": 62,
                    "time": 106.61539349999951,
                    "velocity": 0.7874015748031497,
                    "duration": 0.09615385416665845
                },
                {
                    "name": "D#4",
                    "midi": 63,
                    "time": 106.66347042708284,
                    "velocity": 0.7874015748031497,
                    "duration": 0.09615385416665845
                },
                {
                    "name": "D4",
                    "midi": 62,
                    "time": 106.7596242812495,
                    "velocity": 0.7874015748031497,
                    "duration": 0.1923077083333311
                },
                {
                    "name": "D#4",
                    "midi": 63,
                    "time": 106.91347044791617,
                    "velocity": 0.7874015748031497,
                    "duration": 0.15384616666666773
                },
                {
                    "name": "D#4",
                    "midi": 63,
                    "time": 107.0769319999995,
                    "velocity": 0.7874015748031497,
                    "duration": 0.30769233333333545
                },
                {
                    "name": "D#5",
                    "midi": 75,
                    "time": 107.5384704999995,
                    "velocity": 0.7874015748031497,
                    "duration": 0.5096154270833324
                },
                {
                    "name": "A#4",
                    "midi": 70,
                    "time": 108.15385516666618,
                    "velocity": 0.7874015748031497,
                    "duration": 0.1923077083333311
                },
                {
                    "name": "A4",
                    "midi": 69,
                    "time": 108.30770133333284,
                    "velocity": 0.7874015748031497,
                    "duration": 0.1923077083333311
                },
                {
                    "name": "G#4",
                    "midi": 68,
                    "time": 108.46154749999951,
                    "velocity": 0.7874015748031497,
                    "duration": 0.1923077083333311
                },
                {
                    "name": "G4",
                    "midi": 67,
                    "time": 108.60577828124951,
                    "velocity": 0.7874015748031497,
                    "duration": 0.1923077083333311
                },
                {
                    "name": "F#4",
                    "midi": 66,
                    "time": 108.75962444791618,
                    "velocity": 0.7874015748031497,
                    "duration": 0.1923077083333311
                },
                {
                    "name": "G4",
                    "midi": 67,
                    "time": 108.92308599999951,
                    "velocity": 0.7874015748031497,
                    "duration": 0.30769233333333545
                },
                {
                    "name": "D5",
                    "midi": 74,
                    "time": 109.38462449999952,
                    "velocity": 0.7874015748031497,
                    "duration": 0.48076927083333487
                },
                {
                    "name": "D#5",
                    "midi": 75,
                    "time": 110.00000916666619,
                    "velocity": 0.7874015748031497,
                    "duration": 0.1923077083333311
                },
                {
                    "name": "E5",
                    "midi": 76,
                    "time": 110.15385533333286,
                    "velocity": 0.7874015748031497,
                    "duration": 0.1923077083333311
                },
                {
                    "name": "F5",
                    "midi": 77,
                    "time": 110.30770149999952,
                    "velocity": 0.7874015748031497,
                    "duration": 0.1923077083333311
                },
                {
                    "name": "F#5",
                    "midi": 78,
                    "time": 110.45193228124953,
                    "velocity": 0.7874015748031497,
                    "duration": 0.1923077083333311
                },
                {
                    "name": "G5",
                    "midi": 79,
                    "time": 110.6057784479162,
                    "velocity": 0.7874015748031497,
                    "duration": 0.1923077083333311
                },
                {
                    "name": "C5",
                    "midi": 72,
                    "time": 110.76923999999953,
                    "velocity": 0.7874015748031497,
                    "duration": 0.15384616666666773
                },
                {
                    "name": "A#4",
                    "midi": 70,
                    "time": 110.90385539583286,
                    "velocity": 0.7874015748031497,
                    "duration": 0.0865384687499926
                },
                {
                    "name": "C5",
                    "midi": 72,
                    "time": 110.98077847916619,
                    "velocity": 0.7874015748031497,
                    "duration": 0.0865384687499926
                },
                {
                    "name": "A#4",
                    "midi": 70,
                    "time": 111.05770156249952,
                    "velocity": 0.7874015748031497,
                    "duration": 0.0865384687499926
                },
                {
                    "name": "C5",
                    "midi": 72,
                    "time": 111.13462464583284,
                    "velocity": 0.7874015748031497,
                    "duration": 0.0865384687499926
                },
                {
                    "name": "A#4",
                    "midi": 70,
                    "time": 111.18270157291617,
                    "velocity": 0.7874015748031497,
                    "duration": 0.0865384687499926
                },
                {
                    "name": "C5",
                    "midi": 72,
                    "time": 111.2596246562495,
                    "velocity": 0.7874015748031497,
                    "duration": 0.0865384687499926
                },
                {
                    "name": "A#4",
                    "midi": 70,
                    "time": 111.33654773958283,
                    "velocity": 0.7874015748031497,
                    "duration": 0.0865384687499926
                },
                {
                    "name": "C5",
                    "midi": 72,
                    "time": 111.41347082291615,
                    "velocity": 0.7874015748031497,
                    "duration": 0.0865384687499926
                },
                {
                    "name": "A#4",
                    "midi": 70,
                    "time": 111.49039390624948,
                    "velocity": 0.7874015748031497,
                    "duration": 0.0865384687499926
                },
                {
                    "name": "C5",
                    "midi": 72,
                    "time": 111.5673169895828,
                    "velocity": 0.7874015748031497,
                    "duration": 0.0865384687499926
                },
                {
                    "name": "A#4",
                    "midi": 70,
                    "time": 111.64424007291613,
                    "velocity": 0.7874015748031497,
                    "duration": 0.16346155208333357
                },
                {
                    "name": "A4",
                    "midi": 69,
                    "time": 111.84616316666613,
                    "velocity": 0.7874015748031497,
                    "duration": 0.1923077083333311
                },
                {
                    "name": "G4",
                    "midi": 67,
                    "time": 112.0000093333328,
                    "velocity": 0.7874015748031497,
                    "duration": 0.1923077083333311
                },
                {
                    "name": "F#4",
                    "midi": 66,
                    "time": 112.15385549999947,
                    "velocity": 0.7874015748031497,
                    "duration": 0.1923077083333311
                },
                {
                    "name": "G4",
                    "midi": 67,
                    "time": 112.29808628124947,
                    "velocity": 0.7874015748031497,
                    "duration": 0.1923077083333311
                },
                {
                    "name": "E4",
                    "midi": 64,
                    "time": 112.45193244791614,
                    "velocity": 0.7874015748031497,
                    "duration": 0.1923077083333311
                },
                {
                    "name": "F#4",
                    "midi": 66,
                    "time": 112.61539399999947,
                    "velocity": 0.7874015748031497,
                    "duration": 0.1923077083333311
                },
                {
                    "name": "D4",
                    "midi": 62,
                    "time": 112.76924016666614,
                    "velocity": 0.7874015748031497,
                    "duration": 0.1923077083333311
                },
                {
                    "name": "F#4",
                    "midi": 66,
                    "time": 112.93270171874947,
                    "velocity": 0.7874015748031497,
                    "duration": 0.1923077083333311
                },
                {
                    "name": "A4",
                    "midi": 69,
                    "time": 113.07693249999947,
                    "velocity": 0.7874015748031497,
                    "duration": 0.1923077083333311
                },
                {
                    "name": "C5",
                    "midi": 72,
                    "time": 113.22116328124947,
                    "velocity": 0.7874015748031497,
                    "duration": 0.1923077083333311
                },
                {
                    "name": "D#5",
                    "midi": 75,
                    "time": 113.37500944791614,
                    "velocity": 0.7874015748031497,
                    "duration": 0.1923077083333311
                },
                {
                    "name": "A5",
                    "midi": 81,
                    "time": 113.53847099999948,
                    "velocity": 0.7874015748031497,
                    "duration": 0.1923077083333311
                },
                {
                    "name": "D#5",
                    "midi": 75,
                    "time": 113.69231716666614,
                    "velocity": 0.7874015748031497,
                    "duration": 0.1923077083333311
                },
                {
                    "name": "D5",
                    "midi": 74,
                    "time": 113.85577871874948,
                    "velocity": 0.7874015748031497,
                    "duration": 0.1923077083333311
                },
                {
                    "name": "C5",
                    "midi": 72,
                    "time": 114.00000949999948,
                    "velocity": 0.7874015748031497,
                    "duration": 0.1923077083333311
                },
                {
                    "name": "A#4",
                    "midi": 70,
                    "time": 114.14424028124948,
                    "velocity": 0.7874015748031497,
                    "duration": 0.1923077083333311
                },
                {
                    "name": "A4",
                    "midi": 69,
                    "time": 114.29808644791615,
                    "velocity": 0.7874015748031497,
                    "duration": 0.1923077083333311
                },
                {
                    "name": "A#4",
                    "midi": 70,
                    "time": 114.46154799999948,
                    "velocity": 0.7874015748031497,
                    "duration": 0.1923077083333311
                },
                {
                    "name": "D5",
                    "midi": 74,
                    "time": 114.61539416666615,
                    "velocity": 0.7874015748031497,
                    "duration": 0.1923077083333311
                },
                {
                    "name": "G5",
                    "midi": 79,
                    "time": 114.77885571874948,
                    "velocity": 0.7874015748031497,
                    "duration": 0.1923077083333311
                },
                {
                    "name": "D#5",
                    "midi": 75,
                    "time": 114.92308649999948,
                    "velocity": 0.7874015748031497,
                    "duration": 0.1923077083333311
                },
                {
                    "name": "D5",
                    "midi": 74,
                    "time": 115.06731728124949,
                    "velocity": 0.7874015748031497,
                    "duration": 0.1923077083333311
                },
                {
                    "name": "C5",
                    "midi": 72,
                    "time": 115.22116344791615,
                    "velocity": 0.7874015748031497,
                    "duration": 0.1923077083333311
                },
                {
                    "name": "A#4",
                    "midi": 70,
                    "time": 115.38462499999949,
                    "velocity": 0.7874015748031497,
                    "duration": 0.1923077083333311
                },
                {
                    "name": "A4",
                    "midi": 69,
                    "time": 115.53847116666616,
                    "velocity": 0.7874015748031497,
                    "duration": 0.1923077083333311
                },
                {
                    "name": "G4",
                    "midi": 67,
                    "time": 115.70193271874949,
                    "velocity": 0.7874015748031497,
                    "duration": 0.1923077083333311
                },
                {
                    "name": "A4",
                    "midi": 69,
                    "time": 115.84616349999949,
                    "velocity": 0.7874015748031497,
                    "duration": 0.1923077083333311
                },
                {
                    "name": "G4",
                    "midi": 67,
                    "time": 115.9903942812495,
                    "velocity": 0.7874015748031497,
                    "duration": 0.1923077083333311
                },
                {
                    "name": "F#4",
                    "midi": 66,
                    "time": 116.14424044791616,
                    "velocity": 0.7874015748031497,
                    "duration": 0.1923077083333311
                },
                {
                    "name": "G4",
                    "midi": 67,
                    "time": 116.3077019999995,
                    "velocity": 0.7874015748031497,
                    "duration": 0.1923077083333311
                },
                {
                    "name": "D4",
                    "midi": 62,
                    "time": 116.46154816666616,
                    "velocity": 0.7874015748031497,
                    "duration": 0.1923077083333311
                },
                {
                    "name": "B3",
                    "midi": 59,
                    "time": 116.6250097187495,
                    "velocity": 0.7874015748031497,
                    "duration": 0.1923077083333311
                },
                {
                    "name": "G3",
                    "midi": 55,
                    "time": 116.7692404999995,
                    "velocity": 0.7874015748031497,
                    "duration": 0.4519231145833231
                },
                {
                    "name": "G5",
                    "midi": 79,
                    "time": 118.1538559999995,
                    "velocity": 0.7874015748031497,
                    "duration": 0.22115386458332864
                },
                {
                    "name": "D5",
                    "midi": 74,
                    "time": 118.30770216666616,
                    "velocity": 0.7874015748031497,
                    "duration": 0.22115386458332864
                },
                {
                    "name": "A#4",
                    "midi": 70,
                    "time": 118.46154833333283,
                    "velocity": 0.7874015748031497,
                    "duration": 0.22115386458332864
                },
                {
                    "name": "G4",
                    "midi": 67,
                    "time": 118.6153944999995,
                    "velocity": 0.7874015748031497,
                    "duration": 0.22115386458331443
                },
                {
                    "name": "D4",
                    "midi": 62,
                    "time": 118.75962528124948,
                    "velocity": 0.7874015748031497,
                    "duration": 0.22115386458331443
                },
                {
                    "name": "A#3",
                    "midi": 58,
                    "time": 118.91347144791614,
                    "velocity": 0.7874015748031497,
                    "duration": 0.22115386458332864
                },
                {
                    "name": "G3",
                    "midi": 55,
                    "time": 119.07693299999947,
                    "velocity": 0.7874015748031497,
                    "duration": 0.30769233333332124
                },
                {
                    "name": "G5",
                    "midi": 79,
                    "time": 119.53847149999946,
                    "velocity": 0.7874015748031497,
                    "duration": 0.45192311458333734
                },
                {
                    "name": "D5",
                    "midi": 74,
                    "time": 119.53847149999946,
                    "velocity": 0.7874015748031497,
                    "duration": 0.45192311458333734
                },
                {
                    "name": "A#5",
                    "midi": 82,
                    "time": 119.53847149999946,
                    "velocity": 0.7874015748031497,
                    "duration": 0.45192311458333734
                },
                {
                    "name": "D5",
                    "midi": 74,
                    "time": 120.00000999999946,
                    "velocity": 0.7874015748031497,
                    "duration": 0.45192311458333734
                },
                {
                    "name": "G5",
                    "midi": 79,
                    "time": 120.00000999999946,
                    "velocity": 0.7874015748031497,
                    "duration": 0.45192311458333734
                },
                {
                    "name": "A#5",
                    "midi": 82,
                    "time": 120.00000999999946,
                    "velocity": 0.7874015748031497,
                    "duration": 0.45192311458333734
                },
                {
                    "name": "F#5",
                    "midi": 78,
                    "time": 120.46154849999947,
                    "velocity": 0.7874015748031497,
                    "duration": 0.30769233333333545
                },
                {
                    "name": "A5",
                    "midi": 81,
                    "time": 120.46154849999947,
                    "velocity": 0.7874015748031497,
                    "duration": 0.30769233333333545
                },
                {
                    "name": "D#5",
                    "midi": 75,
                    "time": 120.8846254583328,
                    "velocity": 0.7874015748031497,
                    "duration": 0.17307693749999942
                },
                {
                    "name": "D5",
                    "midi": 74,
                    "time": 121.00962546874948,
                    "velocity": 0.7874015748031497,
                    "duration": 0.0865384687499926
                },
                {
                    "name": "D#5",
                    "midi": 75,
                    "time": 121.09616393749947,
                    "velocity": 0.7874015748031497,
                    "duration": 0.0865384687499926
                },
                {
                    "name": "D5",
                    "midi": 74,
                    "time": 121.1730870208328,
                    "velocity": 0.7874015748031497,
                    "duration": 0.0865384687499926
                },
                {
                    "name": "D#5",
                    "midi": 75,
                    "time": 121.25001010416612,
                    "velocity": 0.7874015748031497,
                    "duration": 0.0865384687499926
                },
                {
                    "name": "D5",
                    "midi": 74,
                    "time": 121.33654857291612,
                    "velocity": 0.7874015748031497,
                    "duration": 0.0865384687499926
                },
                {
                    "name": "D#5",
                    "midi": 75,
                    "time": 121.41347165624944,
                    "velocity": 0.7874015748031497,
                    "duration": 0.0865384687499926
                },
                {
                    "name": "D5",
                    "midi": 74,
                    "time": 121.49039473958277,
                    "velocity": 0.7874015748031497,
                    "duration": 0.0865384687499926
                },
                {
                    "name": "C#5",
                    "midi": 73,
                    "time": 121.5673178229161,
                    "velocity": 0.7874015748031497,
                    "duration": 0.11538462500000435
                },
                {
                    "name": "D5",
                    "midi": 74,
                    "time": 121.6827024479161,
                    "velocity": 0.7874015748031497,
                    "duration": 0.11538462500000435
                },
                {
                    "name": "C6",
                    "midi": 84,
                    "time": 121.84616399999943,
                    "velocity": 0.7874015748031497,
                    "duration": 0.22115386458332864
                },
                {
                    "name": "A5",
                    "midi": 81,
                    "time": 122.0000101666661,
                    "velocity": 0.7874015748031497,
                    "duration": 0.22115386458332864
                },
                {
                    "name": "F#5",
                    "midi": 78,
                    "time": 122.15385633333277,
                    "velocity": 0.7874015748031497,
                    "duration": 0.22115386458332864
                },
                {
                    "name": "D5",
                    "midi": 74,
                    "time": 122.30770249999944,
                    "velocity": 0.7874015748031497,
                    "duration": 0.22115386458331443
                },
                {
                    "name": "A4",
                    "midi": 69,
                    "time": 122.45193328124942,
                    "velocity": 0.7874015748031497,
                    "duration": 0.22115386458331443
                },
                {
                    "name": "F#4",
                    "midi": 66,
                    "time": 122.60577944791608,
                    "velocity": 0.7874015748031497,
                    "duration": 0.22115386458332864
                },
                {
                    "name": "D4",
                    "midi": 62,
                    "time": 122.76924099999941,
                    "velocity": 0.7874015748031497,
                    "duration": 0.30769233333332124
                },
                {
                    "name": "C6",
                    "midi": 84,
                    "time": 123.2307794999994,
                    "velocity": 0.7874015748031497,
                    "duration": 0.45192311458333734
                },
                {
                    "name": "A5",
                    "midi": 81,
                    "time": 123.2307794999994,
                    "velocity": 0.7874015748031497,
                    "duration": 0.45192311458333734
                },
                {
                    "name": "D5",
                    "midi": 74,
                    "time": 123.2307794999994,
                    "velocity": 0.7874015748031497,
                    "duration": 0.45192311458333734
                },
                {
                    "name": "F#5",
                    "midi": 78,
                    "time": 123.2307794999994,
                    "velocity": 0.7874015748031497,
                    "duration": 0.45192311458333734
                },
                {
                    "name": "C6",
                    "midi": 84,
                    "time": 123.6923179999994,
                    "velocity": 0.7874015748031497,
                    "duration": 0.45192311458333734
                },
                {
                    "name": "D5",
                    "midi": 74,
                    "time": 123.6923179999994,
                    "velocity": 0.7874015748031497,
                    "duration": 0.45192311458333734
                },
                {
                    "name": "A5",
                    "midi": 81,
                    "time": 123.6923179999994,
                    "velocity": 0.7874015748031497,
                    "duration": 0.45192311458333734
                },
                {
                    "name": "F#5",
                    "midi": 78,
                    "time": 123.6923179999994,
                    "velocity": 0.7874015748031497,
                    "duration": 0.45192311458333734
                },
                {
                    "name": "A#5",
                    "midi": 82,
                    "time": 124.1538564999994,
                    "velocity": 0.7874015748031497,
                    "duration": 0.30769233333333545
                },
                {
                    "name": "G5",
                    "midi": 79,
                    "time": 124.1538564999994,
                    "velocity": 0.7874015748031497,
                    "duration": 0.30769233333333545
                },
                {
                    "name": "D#5",
                    "midi": 75,
                    "time": 124.57693345833275,
                    "velocity": 0.7874015748031497,
                    "duration": 0.17307693749999942
                },
                {
                    "name": "D5",
                    "midi": 74,
                    "time": 124.70193346874942,
                    "velocity": 0.7874015748031497,
                    "duration": 0.0865384687499926
                },
                {
                    "name": "D#5",
                    "midi": 75,
                    "time": 124.78847193749941,
                    "velocity": 0.7874015748031497,
                    "duration": 0.0865384687499926
                },
                {
                    "name": "D5",
                    "midi": 74,
                    "time": 124.86539502083274,
                    "velocity": 0.7874015748031497,
                    "duration": 0.0865384687499926
                },
                {
                    "name": "D#5",
                    "midi": 75,
                    "time": 124.94231810416606,
                    "velocity": 0.7874015748031497,
                    "duration": 0.0865384687499926
                },
                {
                    "name": "D5",
                    "midi": 74,
                    "time": 125.02885657291606,
                    "velocity": 0.7874015748031497,
                    "duration": 0.0865384687499926
                },
                {
                    "name": "D#5",
                    "midi": 75,
                    "time": 125.10577965624938,
                    "velocity": 0.7874015748031497,
                    "duration": 0.0865384687499926
                },
                {
                    "name": "D5",
                    "midi": 74,
                    "time": 125.18270273958271,
                    "velocity": 0.7874015748031497,
                    "duration": 0.0865384687499926
                },
                {
                    "name": "C#5",
                    "midi": 73,
                    "time": 125.25962582291604,
                    "velocity": 0.7874015748031497,
                    "duration": 0.11538462500000435
                },
                {
                    "name": "D5",
                    "midi": 74,
                    "time": 125.37501044791604,
                    "velocity": 0.7874015748031497,
                    "duration": 0.11538462500000435
                },
                {
                    "name": "F5",
                    "midi": 77,
                    "time": 125.53847199999937,
                    "velocity": 0.7874015748031497,
                    "duration": 0.22115386458332864
                },
                {
                    "name": "D5",
                    "midi": 74,
                    "time": 125.69231816666604,
                    "velocity": 0.7874015748031497,
                    "duration": 0.22115386458332864
                },
                {
                    "name": "B4",
                    "midi": 71,
                    "time": 125.84616433333271,
                    "velocity": 0.7874015748031497,
                    "duration": 0.22115386458332864
                },
                {
                    "name": "G#4",
                    "midi": 68,
                    "time": 126.00001049999938,
                    "velocity": 0.7874015748031497,
                    "duration": 0.22115386458331443
                },
                {
                    "name": "F4",
                    "midi": 65,
                    "time": 126.14424128124936,
                    "velocity": 0.7874015748031497,
                    "duration": 0.22115386458331443
                },
                {
                    "name": "D4",
                    "midi": 62,
                    "time": 126.29808744791602,
                    "velocity": 0.7874015748031497,
                    "duration": 0.22115386458332864
                },
                {
                    "name": "G3",
                    "midi": 55,
                    "time": 126.46154899999935,
                    "velocity": 0.7874015748031497,
                    "duration": 0.22115386458332864
                },
                {
                    "name": "F5",
                    "midi": 77,
                    "time": 126.92308749999934,
                    "velocity": 0.7874015748031497,
                    "duration": 0.5480769687499958
                },
                {
                    "name": "G5",
                    "midi": 79,
                    "time": 127.538472166666,
                    "velocity": 0.7874015748031497,
                    "duration": 0.18269232291666526
                },
                {
                    "name": "D#5",
                    "midi": 75,
                    "time": 127.69231833333266,
                    "velocity": 0.7874015748031497,
                    "duration": 0.18269232291666526
                },
                {
                    "name": "C5",
                    "midi": 72,
                    "time": 127.84616449999933,
                    "velocity": 0.7874015748031497,
                    "duration": 0.18269232291666526
                },
                {
                    "name": "G4",
                    "midi": 67,
                    "time": 127.99039528124933,
                    "velocity": 0.7874015748031497,
                    "duration": 0.18269232291666526
                },
                {
                    "name": "D#4",
                    "midi": 63,
                    "time": 128.144241447916,
                    "velocity": 0.7874015748031497,
                    "duration": 0.18269232291666526
                },
                {
                    "name": "C4",
                    "midi": 60,
                    "time": 128.30770299999932,
                    "velocity": 0.7874015748031497,
                    "duration": 0.30769233333333545
                },
                {
                    "name": "D#5",
                    "midi": 75,
                    "time": 128.7692414999993,
                    "velocity": 0.7874015748031497,
                    "duration": 0.5769231250000075
                },
                {
                    "name": "C5",
                    "midi": 72,
                    "time": 129.38462616666598,
                    "velocity": 0.7874015748031497,
                    "duration": 0.22115386458332864
                },
                {
                    "name": "A4",
                    "midi": 69,
                    "time": 129.53847233333263,
                    "velocity": 0.7874015748031497,
                    "duration": 0.22115386458335706
                },
                {
                    "name": "F#4",
                    "midi": 66,
                    "time": 129.69231849999932,
                    "velocity": 0.7874015748031497,
                    "duration": 0.22115386458332864
                },
                {
                    "name": "D#4",
                    "midi": 63,
                    "time": 129.83654928124932,
                    "velocity": 0.7874015748031497,
                    "duration": 0.22115386458332864
                },
                {
                    "name": "C4",
                    "midi": 60,
                    "time": 129.99039544791597,
                    "velocity": 0.7874015748031497,
                    "duration": 0.22115386458332864
                },
                {
                    "name": "A3",
                    "midi": 57,
                    "time": 130.1538569999993,
                    "velocity": 0.7874015748031497,
                    "duration": 0.30769233333333545
                },
                {
                    "name": "D#5",
                    "midi": 75,
                    "time": 130.6153954999993,
                    "velocity": 0.7874015748031497,
                    "duration": 0.5480769687499958
                },
                {
                    "name": "F5",
                    "midi": 77,
                    "time": 131.23078016666597,
                    "velocity": 0.7874015748031497,
                    "duration": 0.18269232291666526
                },
                {
                    "name": "D5",
                    "midi": 74,
                    "time": 131.38462633333262,
                    "velocity": 0.7874015748031497,
                    "duration": 0.18269232291669368
                },
                {
                    "name": "A#4",
                    "midi": 70,
                    "time": 131.5384724999993,
                    "velocity": 0.7874015748031497,
                    "duration": 0.18269232291666526
                },
                {
                    "name": "F4",
                    "midi": 65,
                    "time": 131.6827032812493,
                    "velocity": 0.7874015748031497,
                    "duration": 0.18269232291666526
                },
                {
                    "name": "D4",
                    "midi": 62,
                    "time": 131.83654944791596,
                    "velocity": 0.7874015748031497,
                    "duration": 0.18269232291666526
                },
                {
                    "name": "A#3",
                    "midi": 58,
                    "time": 132.0000109999993,
                    "velocity": 0.7874015748031497,
                    "duration": 0.30769233333333545
                },
                {
                    "name": "D5",
                    "midi": 74,
                    "time": 132.46154949999928,
                    "velocity": 0.7874015748031497,
                    "duration": 0.6346154375000026
                },
                {
                    "name": "G4",
                    "midi": 67,
                    "time": 133.07693416666595,
                    "velocity": 0.7874015748031497,
                    "duration": 0.1730769374999852
                },
                {
                    "name": "G#4",
                    "midi": 68,
                    "time": 133.2307803333326,
                    "velocity": 0.7874015748031497,
                    "duration": 0.1730769374999852
                },
                {
                    "name": "A4",
                    "midi": 69,
                    "time": 133.38462649999926,
                    "velocity": 0.7874015748031497,
                    "duration": 0.17307693750001363
                },
                {
                    "name": "A#4",
                    "midi": 70,
                    "time": 133.52885728124926,
                    "velocity": 0.7874015748031497,
                    "duration": 0.17307693750001363
                },
                {
                    "name": "B4",
                    "midi": 71,
                    "time": 133.68270344791594,
                    "velocity": 0.7874015748031497,
                    "duration": 0.17307693750001363
                },
                {
                    "name": "C5",
                    "midi": 72,
                    "time": 133.84616499999927,
                    "velocity": 0.7874015748031497,
                    "duration": 0.08653846875000681
                },
                {
                    "name": "B4",
                    "midi": 71,
                    "time": 133.91347269791595,
                    "velocity": 0.7874015748031497,
                    "duration": 0.08653846875000681
                },
                {
                    "name": "C5",
                    "midi": 72,
                    "time": 133.99039578124928,
                    "velocity": 0.7874015748031497,
                    "duration": 0.5769231250000075
                },
                {
                    "name": "D5",
                    "midi": 74,
                    "time": 134.92308816666596,
                    "velocity": 0.7874015748031497,
                    "duration": 0.17307693750001363
                },
                {
                    "name": "C5",
                    "midi": 72,
                    "time": 135.0865497187493,
                    "velocity": 0.7874015748031497,
                    "duration": 0.17307693750001363
                },
                {
                    "name": "B4",
                    "midi": 71,
                    "time": 135.2307804999993,
                    "velocity": 0.7874015748031497,
                    "duration": 0.17307693750001363
                },
                {
                    "name": "A#4",
                    "midi": 70,
                    "time": 135.3750112812493,
                    "velocity": 0.7874015748031497,
                    "duration": 0.17307693750001363
                },
                {
                    "name": "A4",
                    "midi": 69,
                    "time": 135.52885744791598,
                    "velocity": 0.7874015748031497,
                    "duration": 0.17307693750001363
                },
                {
                    "name": "A#4",
                    "midi": 70,
                    "time": 135.69231899999932,
                    "velocity": 0.7874015748031497,
                    "duration": 0.30769233333333545
                },
                {
                    "name": "G5",
                    "midi": 79,
                    "time": 136.1538574999993,
                    "velocity": 0.7874015748031497,
                    "duration": 0.30769233333333545
                },
                {
                    "name": "C5",
                    "midi": 72,
                    "time": 136.76924216666598,
                    "velocity": 0.7874015748031497,
                    "duration": 0.17307693750001363
                },
                {
                    "name": "C#5",
                    "midi": 73,
                    "time": 136.9327037187493,
                    "velocity": 0.7874015748031497,
                    "duration": 0.17307693750001363
                },
                {
                    "name": "D5",
                    "midi": 74,
                    "time": 137.0769344999993,
                    "velocity": 0.7874015748031497,
                    "duration": 0.17307693750001363
                },
                {
                    "name": "D#5",
                    "midi": 75,
                    "time": 137.2211652812493,
                    "velocity": 0.7874015748031497,
                    "duration": 0.17307693750001363
                },
                {
                    "name": "E5",
                    "midi": 76,
                    "time": 137.375011447916,
                    "velocity": 0.7874015748031497,
                    "duration": 0.17307693750001363
                },
                {
                    "name": "F5",
                    "midi": 77,
                    "time": 137.53847299999933,
                    "velocity": 0.7874015748031497,
                    "duration": 0.08653846875003524
                },
                {
                    "name": "E5",
                    "midi": 76,
                    "time": 137.61539608333268,
                    "velocity": 0.7874015748031497,
                    "duration": 0.08653846875000681
                },
                {
                    "name": "F5",
                    "midi": 77,
                    "time": 137.7019345520827,
                    "velocity": 0.7874015748031497,
                    "duration": 0.7500000624999927
                },
                {
                    "name": "G5",
                    "midi": 79,
                    "time": 138.61539616666602,
                    "velocity": 0.7874015748031497,
                    "duration": 0.17307693750001363
                },
                {
                    "name": "F5",
                    "midi": 77,
                    "time": 138.77885771874935,
                    "velocity": 0.7874015748031497,
                    "duration": 0.17307693750001363
                },
                {
                    "name": "E5",
                    "midi": 76,
                    "time": 138.92308849999935,
                    "velocity": 0.7874015748031497,
                    "duration": 0.17307693750001363
                },
                {
                    "name": "D#5",
                    "midi": 75,
                    "time": 139.06731928124935,
                    "velocity": 0.7874015748031497,
                    "duration": 0.17307693750001363
                },
                {
                    "name": "D5",
                    "midi": 74,
                    "time": 139.22116544791604,
                    "velocity": 0.7874015748031497,
                    "duration": 0.17307693750001363
                },
                {
                    "name": "D#5",
                    "midi": 75,
                    "time": 139.38462699999937,
                    "velocity": 0.7874015748031497,
                    "duration": 0.30769233333333545
                },
                {
                    "name": "C6",
                    "midi": 84,
                    "time": 139.84616549999936,
                    "velocity": 0.7874015748031497,
                    "duration": 0.6346154375000026
                },
                {
                    "name": "F5",
                    "midi": 77,
                    "time": 140.46155016666603,
                    "velocity": 0.7874015748031497,
                    "duration": 0.17307693750001363
                },
                {
                    "name": "F#5",
                    "midi": 78,
                    "time": 140.62501171874936,
                    "velocity": 0.7874015748031497,
                    "duration": 0.17307693750001363
                },
                {
                    "name": "G5",
                    "midi": 79,
                    "time": 140.76924249999936,
                    "velocity": 0.7874015748031497,
                    "duration": 0.17307693750001363
                },
                {
                    "name": "G#5",
                    "midi": 80,
                    "time": 140.91347328124937,
                    "velocity": 0.7874015748031497,
                    "duration": 0.17307693750001363
                },
                {
                    "name": "A5",
                    "midi": 81,
                    "time": 141.06731944791605,
                    "velocity": 0.7874015748031497,
                    "duration": 0.17307693750001363
                },
                {
                    "name": "A#5",
                    "midi": 82,
                    "time": 141.23078099999938,
                    "velocity": 0.7874015748031497,
                    "duration": 0.08653846875003524
                },
                {
                    "name": "A5",
                    "midi": 81,
                    "time": 141.30770408333274,
                    "velocity": 0.7874015748031497,
                    "duration": 0.08653846875000681
                },
                {
                    "name": "A#5",
                    "midi": 82,
                    "time": 141.39424255208274,
                    "velocity": 0.7874015748031497,
                    "duration": 0.7500000624999927
                },
                {
                    "name": "C6",
                    "midi": 84,
                    "time": 142.30770416666607,
                    "velocity": 0.7874015748031497,
                    "duration": 0.17307693750001363
                },
                {
                    "name": "A#5",
                    "midi": 82,
                    "time": 142.4711657187494,
                    "velocity": 0.7874015748031497,
                    "duration": 0.17307693750001363
                },
                {
                    "name": "A5",
                    "midi": 81,
                    "time": 142.6153964999994,
                    "velocity": 0.7874015748031497,
                    "duration": 0.17307693750001363
                },
                {
                    "name": "G#5",
                    "midi": 80,
                    "time": 142.7596272812494,
                    "velocity": 0.7874015748031497,
                    "duration": 0.17307693750001363
                },
                {
                    "name": "G5",
                    "midi": 79,
                    "time": 142.9134734479161,
                    "velocity": 0.7874015748031497,
                    "duration": 0.17307693750001363
                },
                {
                    "name": "G#5",
                    "midi": 80,
                    "time": 143.07693499999942,
                    "velocity": 0.7874015748031497,
                    "duration": 1.1153847083333517
                },
                {
                    "name": "F5",
                    "midi": 77,
                    "time": 144.1538581666661,
                    "velocity": 0.7874015748031497,
                    "duration": 0.19230770833334532
                },
                {
                    "name": "E5",
                    "midi": 76,
                    "time": 144.31731971874945,
                    "velocity": 0.7874015748031497,
                    "duration": 0.19230770833334532
                },
                {
                    "name": "F5",
                    "midi": 77,
                    "time": 144.46155049999945,
                    "velocity": 0.7874015748031497,
                    "duration": 0.19230770833334532
                },
                {
                    "name": "G5",
                    "midi": 79,
                    "time": 144.60578128124945,
                    "velocity": 0.7874015748031497,
                    "duration": 0.19230770833334532
                },
                {
                    "name": "G#5",
                    "midi": 80,
                    "time": 144.75962744791613,
                    "velocity": 0.7874015748031497,
                    "duration": 0.19230770833334532
                },
                {
                    "name": "A#5",
                    "midi": 82,
                    "time": 144.92308899999946,
                    "velocity": 0.7874015748031497,
                    "duration": 0.19230770833334532
                },
                {
                    "name": "F#5",
                    "midi": 78,
                    "time": 145.07693516666615,
                    "velocity": 0.7874015748031497,
                    "duration": 0.19230770833334532
                },
                {
                    "name": "F5",
                    "midi": 77,
                    "time": 145.24039671874948,
                    "velocity": 0.7874015748031497,
                    "duration": 0.19230770833334532
                },
                {
                    "name": "F#5",
                    "midi": 78,
                    "time": 145.38462749999948,
                    "velocity": 0.7874015748031497,
                    "duration": 0.19230770833334532
                },
                {
                    "name": "G#5",
                    "midi": 80,
                    "time": 145.52885828124948,
                    "velocity": 0.7874015748031497,
                    "duration": 0.19230770833334532
                },
                {
                    "name": "A#5",
                    "midi": 82,
                    "time": 145.68270444791617,
                    "velocity": 0.7874015748031497,
                    "duration": 0.19230770833334532
                },
                {
                    "name": "E5",
                    "midi": 76,
                    "time": 145.8461659999995,
                    "velocity": 0.7874015748031497,
                    "duration": 0.19230770833334532
                },
                {
                    "name": "A#5",
                    "midi": 82,
                    "time": 146.00001216666618,
                    "velocity": 0.7874015748031497,
                    "duration": 0.19230770833334532
                },
                {
                    "name": "G5",
                    "midi": 79,
                    "time": 146.16347371874951,
                    "velocity": 0.7874015748031497,
                    "duration": 0.19230770833334532
                },
                {
                    "name": "E5",
                    "midi": 76,
                    "time": 146.30770449999952,
                    "velocity": 0.7874015748031497,
                    "duration": 0.19230770833334532
                },
                {
                    "name": "C5",
                    "midi": 72,
                    "time": 146.45193528124952,
                    "velocity": 0.7874015748031497,
                    "duration": 0.19230770833334532
                },
                {
                    "name": "B4",
                    "midi": 71,
                    "time": 146.6057814479162,
                    "velocity": 0.7874015748031497,
                    "duration": 0.19230770833334532
                },
                {
                    "name": "C5",
                    "midi": 72,
                    "time": 146.76924299999953,
                    "velocity": 0.7874015748031497,
                    "duration": 0.45192311458333734
                },
                {
                    "name": "D#5",
                    "midi": 75,
                    "time": 147.69231999999954,
                    "velocity": 0.7874015748031497,
                    "duration": 0.30769233333333545
                },
                {
                    "name": "C5",
                    "midi": 72,
                    "time": 147.69231999999954,
                    "velocity": 0.7874015748031497,
                    "duration": 0.30769233333333545
                },
                {
                    "name": "A4",
                    "midi": 69,
                    "time": 147.69231999999954,
                    "velocity": 0.7874015748031497,
                    "duration": 0.30769233333333545
                },
                {
                    "name": "D#5",
                    "midi": 75,
                    "time": 149.07693549999954,
                    "velocity": 0.7874015748031497,
                    "duration": 0.45192311458333734
                },
                {
                    "name": "C5",
                    "midi": 72,
                    "time": 149.07693549999954,
                    "velocity": 0.7874015748031497,
                    "duration": 0.45192311458333734
                },
                {
                    "name": "A4",
                    "midi": 69,
                    "time": 149.07693549999954,
                    "velocity": 0.7874015748031497,
                    "duration": 0.45192311458333734
                },
                {
                    "name": "C#5",
                    "midi": 73,
                    "time": 149.53847399999955,
                    "velocity": 0.7874015748031497,
                    "duration": 0.30769233333333545
                },
                {
                    "name": "A#4",
                    "midi": 70,
                    "time": 149.53847399999955,
                    "velocity": 0.7874015748031497,
                    "duration": 0.30769233333333545
                },
                {
                    "name": "C#5",
                    "midi": 73,
                    "time": 150.92308949999955,
                    "velocity": 0.7874015748031497,
                    "duration": 0.30769233333333545
                },
                {
                    "name": "A#4",
                    "midi": 70,
                    "time": 150.92308949999955,
                    "velocity": 0.7874015748031497,
                    "duration": 0.30769233333333545
                },
                {
                    "name": "G#4",
                    "midi": 68,
                    "time": 150.92308949999955,
                    "velocity": 0.7874015748031497,
                    "duration": 0.30769233333333545
                },
                {
                    "name": "G4",
                    "midi": 67,
                    "time": 151.38462799999954,
                    "velocity": 0.7874015748031497,
                    "duration": 0.30769233333333545
                },
                {
                    "name": "A#4",
                    "midi": 70,
                    "time": 151.38462799999954,
                    "velocity": 0.7874015748031497,
                    "duration": 0.30769233333333545
                },
                {
                    "name": "C#5",
                    "midi": 73,
                    "time": 151.38462799999954,
                    "velocity": 0.7874015748031497,
                    "duration": 0.30769233333333545
                },
                {
                    "name": "G4",
                    "midi": 67,
                    "time": 152.76924349999953,
                    "velocity": 0.7874015748031497,
                    "duration": 0.45192311458333734
                },
                {
                    "name": "A#4",
                    "midi": 70,
                    "time": 152.76924349999953,
                    "velocity": 0.7874015748031497,
                    "duration": 0.45192311458333734
                },
                {
                    "name": "C#5",
                    "midi": 73,
                    "time": 152.76924349999953,
                    "velocity": 0.7874015748031497,
                    "duration": 0.45192311458333734
                },
                {
                    "name": "G#4",
                    "midi": 68,
                    "time": 153.23078199999955,
                    "velocity": 0.7874015748031497,
                    "duration": 0.30769233333333545
                },
                {
                    "name": "C5",
                    "midi": 72,
                    "time": 153.23078199999955,
                    "velocity": 0.7874015748031497,
                    "duration": 0.30769233333333545
                },
                {
                    "name": "F4",
                    "midi": 65,
                    "time": 155.53847449999955,
                    "velocity": 0.7874015748031497,
                    "duration": 0.45192311458333734
                },
                {
                    "name": "G4",
                    "midi": 67,
                    "time": 156.00001299999957,
                    "velocity": 0.7874015748031497,
                    "duration": 0.45192311458333734
                },
                {
                    "name": "G#4",
                    "midi": 68,
                    "time": 157.38462849999956,
                    "velocity": 0.7874015748031497,
                    "duration": 0.45192311458333734
                },
                {
                    "name": "A#4",
                    "midi": 70,
                    "time": 157.84616699999958,
                    "velocity": 0.7874015748031497,
                    "duration": 0.45192311458333734
                },
                {
                    "name": "C4",
                    "midi": 60,
                    "time": 158.7692439999996,
                    "velocity": 0.7874015748031497,
                    "duration": 0.18269232291666526
                },
                {
                    "name": "G#4",
                    "midi": 68,
                    "time": 158.92309016666624,
                    "velocity": 0.7874015748031497,
                    "duration": 0.18269232291666526
                },
                {
                    "name": "G4",
                    "midi": 67,
                    "time": 159.08655171874958,
                    "velocity": 0.7874015748031497,
                    "duration": 0.18269232291666526
                },
                {
                    "name": "F4",
                    "midi": 65,
                    "time": 159.23078249999958,
                    "velocity": 0.7874015748031497,
                    "duration": 0.18269232291666526
                },
                {
                    "name": "C#5",
                    "midi": 73,
                    "time": 159.23078249999958,
                    "velocity": 0.7874015748031497,
                    "duration": 0.18269232291666526
                },
                {
                    "name": "D#4",
                    "midi": 63,
                    "time": 159.37501328124958,
                    "velocity": 0.7874015748031497,
                    "duration": 0.18269232291666526
                },
                {
                    "name": "C5",
                    "midi": 72,
                    "time": 159.37501328124958,
                    "velocity": 0.7874015748031497,
                    "duration": 0.18269232291666526
                },
                {
                    "name": "C#4",
                    "midi": 61,
                    "time": 159.52885944791623,
                    "velocity": 0.7874015748031497,
                    "duration": 0.18269232291666526
                },
                {
                    "name": "A#4",
                    "midi": 70,
                    "time": 159.52885944791623,
                    "velocity": 0.7874015748031497,
                    "duration": 0.18269232291666526
                },
                {
                    "name": "C4",
                    "midi": 60,
                    "time": 159.69232099999957,
                    "velocity": 0.7874015748031497,
                    "duration": 0.18269232291666526
                },
                {
                    "name": "D#5",
                    "midi": 75,
                    "time": 159.69232099999957,
                    "velocity": 0.7874015748031497,
                    "duration": 0.4519231145833089
                },
                {
                    "name": "D#4",
                    "midi": 63,
                    "time": 159.84616716666622,
                    "velocity": 0.7874015748031497,
                    "duration": 0.18269232291666526
                },
                {
                    "name": "G#4",
                    "midi": 68,
                    "time": 160.00962871874955,
                    "velocity": 0.7874015748031497,
                    "duration": 0.18269232291666526
                },
                {
                    "name": "A#3",
                    "midi": 58,
                    "time": 160.15385949999956,
                    "velocity": 0.7874015748031497,
                    "duration": 0.18269232291666526
                },
                {
                    "name": "C#4",
                    "midi": 61,
                    "time": 160.29809028124956,
                    "velocity": 0.7874015748031497,
                    "duration": 0.18269232291666526
                },
                {
                    "name": "G4",
                    "midi": 67,
                    "time": 160.4519364479162,
                    "velocity": 0.7874015748031497,
                    "duration": 0.18269232291666526
                },
                {
                    "name": "C4",
                    "midi": 60,
                    "time": 160.61539799999954,
                    "velocity": 0.7874015748031497,
                    "duration": 0.18269232291666526
                },
                {
                    "name": "D#4",
                    "midi": 63,
                    "time": 160.7692441666662,
                    "velocity": 0.7874015748031497,
                    "duration": 0.18269232291666526
                },
                {
                    "name": "G#4",
                    "midi": 68,
                    "time": 160.93270571874953,
                    "velocity": 0.7874015748031497,
                    "duration": 0.18269232291666526
                },
                {
                    "name": "C5",
                    "midi": 72,
                    "time": 161.07693649999953,
                    "velocity": 0.7874015748031497,
                    "duration": 0.45192311458333734
                },
                {
                    "name": "G4",
                    "midi": 67,
                    "time": 161.22116728124954,
                    "velocity": 0.7874015748031497,
                    "duration": 0.18269232291666526
                },
                {
                    "name": "G#4",
                    "midi": 68,
                    "time": 161.3750134479162,
                    "velocity": 0.7874015748031497,
                    "duration": 0.18269232291669368
                },
                {
                    "name": "D#5",
                    "midi": 75,
                    "time": 161.53847499999955,
                    "velocity": 0.7874015748031497,
                    "duration": 0.18269232291666526
                },
                {
                    "name": "G4",
                    "midi": 67,
                    "time": 161.6923211666662,
                    "velocity": 0.7874015748031497,
                    "duration": 0.18269232291666526
                },
                {
                    "name": "G#4",
                    "midi": 68,
                    "time": 161.85578271874954,
                    "velocity": 0.7874015748031497,
                    "duration": 0.18269232291666526
                },
                {
                    "name": "D#5",
                    "midi": 75,
                    "time": 162.00001349999954,
                    "velocity": 0.7874015748031497,
                    "duration": 0.18269232291666526
                },
                {
                    "name": "C5",
                    "midi": 72,
                    "time": 162.00001349999954,
                    "velocity": 0.7874015748031497,
                    "duration": 0.45192311458333734
                },
                {
                    "name": "G4",
                    "midi": 67,
                    "time": 162.14424428124954,
                    "velocity": 0.7874015748031497,
                    "duration": 0.18269232291666526
                },
                {
                    "name": "G#4",
                    "midi": 68,
                    "time": 162.2980904479162,
                    "velocity": 0.7874015748031497,
                    "duration": 0.18269232291669368
                },
                {
                    "name": "F5",
                    "midi": 77,
                    "time": 162.46155199999956,
                    "velocity": 0.7874015748031497,
                    "duration": 0.30769233333333545
                },
                {
                    "name": "G4",
                    "midi": 67,
                    "time": 163.06732128124955,
                    "velocity": 0.7874015748031497,
                    "duration": 0.18269232291666526
                },
                {
                    "name": "G#4",
                    "midi": 68,
                    "time": 163.2211674479162,
                    "velocity": 0.7874015748031497,
                    "duration": 0.18269232291666526
                },
                {
                    "name": "F5",
                    "midi": 77,
                    "time": 163.38462899999953,
                    "velocity": 0.7874015748031497,
                    "duration": 0.18269232291666526
                },
                {
                    "name": "G4",
                    "midi": 67,
                    "time": 163.5384751666662,
                    "velocity": 0.7874015748031497,
                    "duration": 0.18269232291666526
                },
                {
                    "name": "G#4",
                    "midi": 68,
                    "time": 163.70193671874952,
                    "velocity": 0.7874015748031497,
                    "duration": 0.18269232291666526
                },
                {
                    "name": "F5",
                    "midi": 77,
                    "time": 163.84616749999952,
                    "velocity": 0.7874015748031497,
                    "duration": 0.18269232291666526
                },
                {
                    "name": "G4",
                    "midi": 67,
                    "time": 163.99039828124953,
                    "velocity": 0.7874015748031497,
                    "duration": 0.18269232291666526
                },
                {
                    "name": "G#4",
                    "midi": 68,
                    "time": 164.14424444791618,
                    "velocity": 0.7874015748031497,
                    "duration": 0.18269232291666526
                },
                {
                    "name": "F5",
                    "midi": 77,
                    "time": 164.3077059999995,
                    "velocity": 0.7874015748031497,
                    "duration": 0.30769233333333545
                },
                {
                    "name": "G4",
                    "midi": 67,
                    "time": 164.9134752812495,
                    "velocity": 0.7874015748031497,
                    "duration": 0.18269232291666526
                },
                {
                    "name": "G#4",
                    "midi": 68,
                    "time": 165.06732144791616,
                    "velocity": 0.7874015748031497,
                    "duration": 0.18269232291666526
                },
                {
                    "name": "F5",
                    "midi": 77,
                    "time": 165.2307829999995,
                    "velocity": 0.7874015748031497,
                    "duration": 0.18269232291666526
                },
                {
                    "name": "G4",
                    "midi": 67,
                    "time": 165.38462916666614,
                    "velocity": 0.7874015748031497,
                    "duration": 0.18269232291666526
                },
                {
                    "name": "G#4",
                    "midi": 68,
                    "time": 165.54809071874948,
                    "velocity": 0.7874015748031497,
                    "duration": 0.18269232291666526
                },
                {
                    "name": "F5",
                    "midi": 77,
                    "time": 165.69232149999948,
                    "velocity": 0.7874015748031497,
                    "duration": 0.18269232291666526
                },
                {
                    "name": "G4",
                    "midi": 67,
                    "time": 165.83655228124948,
                    "velocity": 0.7874015748031497,
                    "duration": 0.18269232291666526
                },
                {
                    "name": "G#4",
                    "midi": 68,
                    "time": 165.99039844791614,
                    "velocity": 0.7874015748031497,
                    "duration": 0.18269232291666526
                },
                {
                    "name": "F5",
                    "midi": 77,
                    "time": 166.15385999999947,
                    "velocity": 0.7874015748031497,
                    "duration": 0.30769233333333545
                },
                {
                    "name": "G4",
                    "midi": 67,
                    "time": 166.75962928124946,
                    "velocity": 0.7874015748031497,
                    "duration": 0.18269232291666526
                },
                {
                    "name": "G#4",
                    "midi": 68,
                    "time": 166.9134754479161,
                    "velocity": 0.7874015748031497,
                    "duration": 0.18269232291666526
                },
                {
                    "name": "F5",
                    "midi": 77,
                    "time": 167.07693699999945,
                    "velocity": 0.7874015748031497,
                    "duration": 0.18269232291666526
                },
                {
                    "name": "G4",
                    "midi": 67,
                    "time": 167.2307831666661,
                    "velocity": 0.7874015748031497,
                    "duration": 0.18269232291666526
                },
                {
                    "name": "G#4",
                    "midi": 68,
                    "time": 167.39424471874943,
                    "velocity": 0.7874015748031497,
                    "duration": 0.18269232291666526
                },
                {
                    "name": "F5",
                    "midi": 77,
                    "time": 167.53847549999944,
                    "velocity": 0.7874015748031497,
                    "duration": 0.18269232291666526
                },
                {
                    "name": "G4",
                    "midi": 67,
                    "time": 167.68270628124944,
                    "velocity": 0.7874015748031497,
                    "duration": 0.18269232291666526
                },
                {
                    "name": "G#4",
                    "midi": 68,
                    "time": 167.8365524479161,
                    "velocity": 0.7874015748031497,
                    "duration": 0.18269232291666526
                },
                {
                    "name": "F5",
                    "midi": 77,
                    "time": 168.00001399999942,
                    "velocity": 0.7874015748031497,
                    "duration": 0.30769233333333545
                },
                {
                    "name": "G4",
                    "midi": 67,
                    "time": 168.60578328124942,
                    "velocity": 0.7874015748031497,
                    "duration": 0.18269232291666526
                },
                {
                    "name": "G#4",
                    "midi": 68,
                    "time": 168.75962944791607,
                    "velocity": 0.7874015748031497,
                    "duration": 0.18269232291666526
                },
                {
                    "name": "F5",
                    "midi": 77,
                    "time": 168.9230909999994,
                    "velocity": 0.7874015748031497,
                    "duration": 0.18269232291666526
                },
                {
                    "name": "G4",
                    "midi": 67,
                    "time": 169.07693716666606,
                    "velocity": 0.7874015748031497,
                    "duration": 0.18269232291666526
                },
                {
                    "name": "G#4",
                    "midi": 68,
                    "time": 169.2403987187494,
                    "velocity": 0.7874015748031497,
                    "duration": 0.18269232291666526
                },
                {
                    "name": "F5",
                    "midi": 77,
                    "time": 169.3846294999994,
                    "velocity": 0.7874015748031497,
                    "duration": 0.18269232291666526
                },
                {
                    "name": "G4",
                    "midi": 67,
                    "time": 169.5288602812494,
                    "velocity": 0.7874015748031497,
                    "duration": 0.18269232291666526
                },
                {
                    "name": "G#4",
                    "midi": 68,
                    "time": 169.68270644791605,
                    "velocity": 0.7874015748031497,
                    "duration": 0.18269232291666526
                },
                {
                    "name": "D#5",
                    "midi": 75,
                    "time": 169.84616799999938,
                    "velocity": 0.7874015748031497,
                    "duration": 0.45192311458333734
                },
                {
                    "name": "A#4",
                    "midi": 70,
                    "time": 170.3077064999994,
                    "velocity": 0.7874015748031497,
                    "duration": 0.18269232291666526
                },
                {
                    "name": "C5",
                    "midi": 72,
                    "time": 170.3077064999994,
                    "velocity": 0.7874015748031497,
                    "duration": 0.45192311458333734
                },
                {
                    "name": "G#4",
                    "midi": 68,
                    "time": 170.4519372812494,
                    "velocity": 0.7874015748031497,
                    "duration": 0.18269232291666526
                },
                {
                    "name": "G4",
                    "midi": 67,
                    "time": 170.60578344791605,
                    "velocity": 0.7874015748031497,
                    "duration": 0.18269232291669368
                },
                {
                    "name": "F4",
                    "midi": 65,
                    "time": 170.76924499999942,
                    "velocity": 0.7874015748031497,
                    "duration": 0.18269232291666526
                },
                {
                    "name": "G#5",
                    "midi": 80,
                    "time": 170.76924499999942,
                    "velocity": 0.7874015748031497,
                    "duration": 0.4519231145833089
                },
                {
                    "name": "G#4",
                    "midi": 68,
                    "time": 170.92309116666607,
                    "velocity": 0.7874015748031497,
                    "duration": 0.18269232291666526
                },
                {
                    "name": "C5",
                    "midi": 72,
                    "time": 171.0865527187494,
                    "velocity": 0.7874015748031497,
                    "duration": 0.18269232291666526
                },
                {
                    "name": "F5",
                    "midi": 77,
                    "time": 171.2307834999994,
                    "velocity": 0.7874015748031497,
                    "duration": 0.30769233333333545
                },
                {
                    "name": "D5",
                    "midi": 74,
                    "time": 171.6923219999994,
                    "velocity": 0.7874015748031497,
                    "duration": 0.45192311458333734
                },
                {
                    "name": "G#4",
                    "midi": 68,
                    "time": 172.1538604999994,
                    "velocity": 0.7874015748031497,
                    "duration": 0.18269232291666526
                },
                {
                    "name": "A#4",
                    "midi": 70,
                    "time": 172.1538604999994,
                    "velocity": 0.7874015748031497,
                    "duration": 0.45192311458333734
                },
                {
                    "name": "G4",
                    "midi": 67,
                    "time": 172.2980912812494,
                    "velocity": 0.7874015748031497,
                    "duration": 0.18269232291666526
                },
                {
                    "name": "F4",
                    "midi": 65,
                    "time": 172.45193744791607,
                    "velocity": 0.7874015748031497,
                    "duration": 0.18269232291669368
                },
                {
                    "name": "D#4",
                    "midi": 63,
                    "time": 172.61539899999943,
                    "velocity": 0.7874015748031497,
                    "duration": 0.18269232291666526
                },
                {
                    "name": "G5",
                    "midi": 79,
                    "time": 172.61539899999943,
                    "velocity": 0.7874015748031497,
                    "duration": 0.18269232291666526
                },
                {
                    "name": "G4",
                    "midi": 67,
                    "time": 172.76924516666608,
                    "velocity": 0.7874015748031497,
                    "duration": 0.18269232291666526
                },
                {
                    "name": "A#4",
                    "midi": 70,
                    "time": 172.93270671874942,
                    "velocity": 0.7874015748031497,
                    "duration": 0.18269232291666526
                },
                {
                    "name": "D#5",
                    "midi": 75,
                    "time": 173.07693749999942,
                    "velocity": 0.7874015748031497,
                    "duration": 0.30769233333333545
                },
                {
                    "name": "C5",
                    "midi": 72,
                    "time": 173.5384759999994,
                    "velocity": 0.7874015748031497,
                    "duration": 0.211538479166677
                },
                {
                    "name": "F4",
                    "midi": 65,
                    "time": 173.85578371874942,
                    "velocity": 0.7874015748031497,
                    "duration": 0.211538479166677
                },
                {
                    "name": "A#4",
                    "midi": 70,
                    "time": 174.00001449999942,
                    "velocity": 0.7874015748031497,
                    "duration": 0.211538479166677
                },
                {
                    "name": "E4",
                    "midi": 64,
                    "time": 174.2980914479161,
                    "velocity": 0.7874015748031497,
                    "duration": 0.211538479166677
                },
                {
                    "name": "G#4",
                    "midi": 68,
                    "time": 174.46155299999944,
                    "velocity": 0.7874015748031497,
                    "duration": 0.211538479166677
                },
                {
                    "name": "D4",
                    "midi": 62,
                    "time": 174.77886071874946,
                    "velocity": 0.7874015748031497,
                    "duration": 0.211538479166677
                },
                {
                    "name": "G4",
                    "midi": 67,
                    "time": 174.92309149999946,
                    "velocity": 0.7874015748031497,
                    "duration": 0.211538479166677
                },
                {
                    "name": "C4",
                    "midi": 60,
                    "time": 175.22116844791614,
                    "velocity": 0.7874015748031497,
                    "duration": 0.211538479166677
                },
                {
                    "name": "F#4",
                    "midi": 66,
                    "time": 175.38462999999948,
                    "velocity": 0.7874015748031497,
                    "duration": 0.211538479166677
                },
                {
                    "name": "C5",
                    "midi": 72,
                    "time": 175.7019377187495,
                    "velocity": 0.7874015748031497,
                    "duration": 0.211538479166677
                },
                {
                    "name": "F#4",
                    "midi": 66,
                    "time": 175.8461684999995,
                    "velocity": 0.7874015748031497,
                    "duration": 0.211538479166677
                },
                {
                    "name": "C4",
                    "midi": 60,
                    "time": 176.14424544791618,
                    "velocity": 0.7874015748031497,
                    "duration": 0.211538479166677
                },
                {
                    "name": "F#4",
                    "midi": 66,
                    "time": 176.3077069999995,
                    "velocity": 0.7874015748031497,
                    "duration": 0.211538479166677
                },
                {
                    "name": "C5",
                    "midi": 72,
                    "time": 176.62501471874953,
                    "velocity": 0.7874015748031497,
                    "duration": 0.211538479166677
                },
                {
                    "name": "F#4",
                    "midi": 66,
                    "time": 176.76924549999953,
                    "velocity": 0.7874015748031497,
                    "duration": 0.211538479166677
                },
                {
                    "name": "C4",
                    "midi": 60,
                    "time": 177.0673224479162,
                    "velocity": 0.7874015748031497,
                    "duration": 0.211538479166677
                },
                {
                    "name": "D#4",
                    "midi": 63,
                    "time": 177.23078399999955,
                    "velocity": 0.7874015748031497,
                    "duration": 0.18269232291669368
                },
                {
                    "name": "G4",
                    "midi": 67,
                    "time": 177.38463016666623,
                    "velocity": 0.7874015748031497,
                    "duration": 0.18269232291666526
                },
                {
                    "name": "G#4",
                    "midi": 68,
                    "time": 177.54809171874956,
                    "velocity": 0.7874015748031497,
                    "duration": 0.18269232291666526
                },
                {
                    "name": "A4",
                    "midi": 69,
                    "time": 177.69232249999956,
                    "velocity": 0.7874015748031497,
                    "duration": 0.18269232291666526
                },
                {
                    "name": "A#4",
                    "midi": 70,
                    "time": 177.83655328124956,
                    "velocity": 0.7874015748031497,
                    "duration": 0.18269232291666526
                },
                {
                    "name": "B4",
                    "midi": 71,
                    "time": 177.99039944791622,
                    "velocity": 0.7874015748031497,
                    "duration": 0.18269232291666526
                },
                {
                    "name": "C5",
                    "midi": 72,
                    "time": 178.15386099999955,
                    "velocity": 0.7874015748031497,
                    "duration": 0.18269232291666526
                },
                {
                    "name": "D5",
                    "midi": 74,
                    "time": 178.3077071666662,
                    "velocity": 0.7874015748031497,
                    "duration": 0.18269232291666526
                },
                {
                    "name": "D#5",
                    "midi": 75,
                    "time": 178.47116871874954,
                    "velocity": 0.7874015748031497,
                    "duration": 0.18269232291666526
                },
                {
                    "name": "E5",
                    "midi": 76,
                    "time": 178.61539949999954,
                    "velocity": 0.7874015748031497,
                    "duration": 0.18269232291666526
                },
                {
                    "name": "F5",
                    "midi": 77,
                    "time": 178.75963028124954,
                    "velocity": 0.7874015748031497,
                    "duration": 0.18269232291666526
                },
                {
                    "name": "F#5",
                    "midi": 78,
                    "time": 178.9134764479162,
                    "velocity": 0.7874015748031497,
                    "duration": 0.18269232291666526
                },
                {
                    "name": "G5",
                    "midi": 79,
                    "time": 179.07693799999953,
                    "velocity": 0.7874015748031497,
                    "duration": 0.18269232291666526
                },
                {
                    "name": "D5",
                    "midi": 74,
                    "time": 179.23078416666618,
                    "velocity": 0.7874015748031497,
                    "duration": 0.18269232291666526
                },
                {
                    "name": "B4",
                    "midi": 71,
                    "time": 179.39424571874952,
                    "velocity": 0.7874015748031497,
                    "duration": 0.18269232291666526
                },
                {
                    "name": "G4",
                    "midi": 67,
                    "time": 179.53847649999952,
                    "velocity": 0.7874015748031497,
                    "duration": 0.18269232291666526
                },
                {
                    "name": "D4",
                    "midi": 62,
                    "time": 179.68270728124952,
                    "velocity": 0.7874015748031497,
                    "duration": 0.18269232291666526
                },
                {
                    "name": "B3",
                    "midi": 59,
                    "time": 179.83655344791617,
                    "velocity": 0.7874015748031497,
                    "duration": 0.18269232291666526
                },
                {
                    "name": "G3",
                    "midi": 55,
                    "time": 180.0000149999995,
                    "velocity": 0.7874015748031497,
                    "duration": 0.45192311458333734
                },
                {
                    "name": "C6",
                    "midi": 84,
                    "time": 180.9230919999995,
                    "velocity": 0.7874015748031497,
                    "duration": 0.22115386458332864
                },
                {
                    "name": "G5",
                    "midi": 79,
                    "time": 181.07693816666617,
                    "velocity": 0.7874015748031497,
                    "duration": 0.22115386458335706
                },
                {
                    "name": "D#5",
                    "midi": 75,
                    "time": 181.23078433333285,
                    "velocity": 0.7874015748031497,
                    "duration": 0.22115386458335706
                },
                {
                    "name": "C5",
                    "midi": 72,
                    "time": 181.38463049999953,
                    "velocity": 0.7874015748031497,
                    "duration": 0.22115386458332864
                },
                {
                    "name": "G4",
                    "midi": 67,
                    "time": 181.52886128124953,
                    "velocity": 0.7874015748031497,
                    "duration": 0.22115386458332864
                },
                {
                    "name": "D#4",
                    "midi": 63,
                    "time": 181.6827074479162,
                    "velocity": 0.7874015748031497,
                    "duration": 0.22115386458332864
                },
                {
                    "name": "C4",
                    "midi": 60,
                    "time": 181.84616899999952,
                    "velocity": 0.7874015748031497,
                    "duration": 0.30769233333333545
                },
                {
                    "name": "C6",
                    "midi": 84,
                    "time": 182.3077074999995,
                    "velocity": 0.7874015748031497,
                    "duration": 0.45192311458333734
                },
                {
                    "name": "G5",
                    "midi": 79,
                    "time": 182.3077074999995,
                    "velocity": 0.7874015748031497,
                    "duration": 0.45192311458333734
                },
                {
                    "name": "D#5",
                    "midi": 75,
                    "time": 182.3077074999995,
                    "velocity": 0.7874015748031497,
                    "duration": 0.45192311458333734
                },
                {
                    "name": "D#5",
                    "midi": 75,
                    "time": 182.76924599999953,
                    "velocity": 0.7874015748031497,
                    "duration": 0.45192311458333734
                },
                {
                    "name": "G5",
                    "midi": 79,
                    "time": 182.76924599999953,
                    "velocity": 0.7874015748031497,
                    "duration": 0.45192311458333734
                },
                {
                    "name": "C6",
                    "midi": 84,
                    "time": 182.76924599999953,
                    "velocity": 0.7874015748031497,
                    "duration": 0.45192311458333734
                },
                {
                    "name": "B5",
                    "midi": 83,
                    "time": 183.23078449999954,
                    "velocity": 0.7874015748031497,
                    "duration": 0.30769233333333545
                },
                {
                    "name": "D5",
                    "midi": 74,
                    "time": 183.23078449999954,
                    "velocity": 0.7874015748031497,
                    "duration": 0.30769233333333545
                },
                {
                    "name": "G5",
                    "midi": 79,
                    "time": 183.65386145833287,
                    "velocity": 0.7874015748031497,
                    "duration": 0.2980769479166838
                },
                {
                    "name": "F5",
                    "midi": 77,
                    "time": 183.77886146874954,
                    "velocity": 0.7874015748031497,
                    "duration": 0.08653846875000681
                },
                {
                    "name": "G5",
                    "midi": 79,
                    "time": 183.86539993749955,
                    "velocity": 0.7874015748031497,
                    "duration": 0.24038463541668875
                },
                {
                    "name": "F5",
                    "midi": 77,
                    "time": 183.94232302083287,
                    "velocity": 0.7874015748031497,
                    "duration": 0.08653846875003524
                },
                {
                    "name": "G5",
                    "midi": 79,
                    "time": 184.01924610416623,
                    "velocity": 0.7874015748031497,
                    "duration": 0.2500000208333688
                },
                {
                    "name": "F5",
                    "midi": 77,
                    "time": 184.10578457291624,
                    "velocity": 0.7874015748031497,
                    "duration": 0.08653846875000681
                },
                {
                    "name": "G5",
                    "midi": 79,
                    "time": 184.18270765624956,
                    "velocity": 0.7874015748031497,
                    "duration": 0.08653846875003524
                },
                {
                    "name": "F5",
                    "midi": 77,
                    "time": 184.25963073958292,
                    "velocity": 0.7874015748031497,
                    "duration": 0.08653846875003524
                },
                {
                    "name": "E5",
                    "midi": 76,
                    "time": 184.33655382291627,
                    "velocity": 0.7874015748031497,
                    "duration": 0.11538462500001856
                },
                {
                    "name": "F5",
                    "midi": 77,
                    "time": 184.4519384479163,
                    "velocity": 0.7874015748031497,
                    "duration": 0.11538462499999014
                },
                {
                    "name": "A#5",
                    "midi": 82,
                    "time": 184.61539999999962,
                    "velocity": 0.7874015748031497,
                    "duration": 0.22115386458332864
                },
                {
                    "name": "G5",
                    "midi": 79,
                    "time": 184.76924616666628,
                    "velocity": 0.7874015748031497,
                    "duration": 0.22115386458335706
                },
                {
                    "name": "E5",
                    "midi": 76,
                    "time": 184.92309233333296,
                    "velocity": 0.7874015748031497,
                    "duration": 0.22115386458335706
                },
                {
                    "name": "C5",
                    "midi": 72,
                    "time": 185.07693849999964,
                    "velocity": 0.7874015748031497,
                    "duration": 0.22115386458332864
                },
                {
                    "name": "G4",
                    "midi": 67,
                    "time": 185.22116928124964,
                    "velocity": 0.7874015748031497,
                    "duration": 0.22115386458332864
                },
                {
                    "name": "E4",
                    "midi": 64,
                    "time": 185.3750154479163,
                    "velocity": 0.7874015748031497,
                    "duration": 0.22115386458332864
                },
                {
                    "name": "C4",
                    "midi": 60,
                    "time": 185.53847699999963,
                    "velocity": 0.7874015748031497,
                    "duration": 0.30769233333333545
                },
                {
                    "name": "A#5",
                    "midi": 82,
                    "time": 186.00001549999962,
                    "velocity": 0.7874015748031497,
                    "duration": 0.45192311458333734
                },
                {
                    "name": "G5",
                    "midi": 79,
                    "time": 186.00001549999962,
                    "velocity": 0.7874015748031497,
                    "duration": 0.45192311458333734
                },
                {
                    "name": "C5",
                    "midi": 72,
                    "time": 186.00001549999962,
                    "velocity": 0.7874015748031497,
                    "duration": 0.45192311458333734
                },
                {
                    "name": "A#5",
                    "midi": 82,
                    "time": 186.46155399999964,
                    "velocity": 0.7874015748031497,
                    "duration": 0.45192311458333734
                },
                {
                    "name": "C5",
                    "midi": 72,
                    "time": 186.46155399999964,
                    "velocity": 0.7874015748031497,
                    "duration": 0.45192311458333734
                },
                {
                    "name": "G5",
                    "midi": 79,
                    "time": 186.46155399999964,
                    "velocity": 0.7874015748031497,
                    "duration": 0.45192311458333734
                },
                {
                    "name": "A5",
                    "midi": 81,
                    "time": 186.92309249999965,
                    "velocity": 0.7874015748031497,
                    "duration": 0.30769233333333545
                },
                {
                    "name": "F5",
                    "midi": 77,
                    "time": 186.92309249999965,
                    "velocity": 0.7874015748031497,
                    "duration": 0.30769233333333545
                },
                {
                    "name": "D5",
                    "midi": 74,
                    "time": 187.34616945833298,
                    "velocity": 0.7874015748031497,
                    "duration": 0.17307693750001363
                },
                {
                    "name": "C5",
                    "midi": 72,
                    "time": 187.47116946874965,
                    "velocity": 0.7874015748031497,
                    "duration": 0.08653846875000681
                },
                {
                    "name": "D5",
                    "midi": 74,
                    "time": 187.55770793749966,
                    "velocity": 0.7874015748031497,
                    "duration": 0.08653846875000681
                },
                {
                    "name": "C5",
                    "midi": 72,
                    "time": 187.63463102083298,
                    "velocity": 0.7874015748031497,
                    "duration": 0.08653846875003524
                },
                {
                    "name": "D5",
                    "midi": 74,
                    "time": 187.71155410416634,
                    "velocity": 0.7874015748031497,
                    "duration": 0.08653846875000681
                },
                {
                    "name": "C5",
                    "midi": 72,
                    "time": 187.79809257291635,
                    "velocity": 0.7874015748031497,
                    "duration": 0.08653846875000681
                },
                {
                    "name": "D5",
                    "midi": 74,
                    "time": 187.87501565624967,
                    "velocity": 0.7874015748031497,
                    "duration": 0.08653846875003524
                },
                {
                    "name": "C5",
                    "midi": 72,
                    "time": 187.95193873958303,
                    "velocity": 0.7874015748031497,
                    "duration": 0.08653846875003524
                },
                {
                    "name": "B4",
                    "midi": 71,
                    "time": 188.02886182291638,
                    "velocity": 0.7874015748031497,
                    "duration": 0.11538462500001856
                },
                {
                    "name": "C5",
                    "midi": 72,
                    "time": 188.1442464479164,
                    "velocity": 0.7874015748031497,
                    "duration": 0.11538462499999014
                },
                {
                    "name": "G#5",
                    "midi": 80,
                    "time": 188.30770799999974,
                    "velocity": 0.7874015748031497,
                    "duration": 0.18269232291666526
                },
                {
                    "name": "F5",
                    "midi": 77,
                    "time": 188.4615541666664,
                    "velocity": 0.7874015748031497,
                    "duration": 0.18269232291666526
                },
                {
                    "name": "D5",
                    "midi": 74,
                    "time": 188.62501571874972,
                    "velocity": 0.7874015748031497,
                    "duration": 0.18269232291666526
                },
                {
                    "name": "B4",
                    "midi": 71,
                    "time": 188.76924649999972,
                    "velocity": 0.7874015748031497,
                    "duration": 0.18269232291666526
                },
                {
                    "name": "F4",
                    "midi": 65,
                    "time": 188.91347728124973,
                    "velocity": 0.7874015748031497,
                    "duration": 0.18269232291666526
                },
                {
                    "name": "D4",
                    "midi": 62,
                    "time": 189.06732344791638,
                    "velocity": 0.7874015748031497,
                    "duration": 0.18269232291666526
                },
                {
                    "name": "B3",
                    "midi": 59,
                    "time": 189.2307849999997,
                    "velocity": 0.7874015748031497,
                    "duration": 0.18269232291666526
                },
                {
                    "name": "D4",
                    "midi": 62,
                    "time": 189.38463116666637,
                    "velocity": 0.7874015748031497,
                    "duration": 0.18269232291666526
                },
                {
                    "name": "F4",
                    "midi": 65,
                    "time": 189.5480927187497,
                    "velocity": 0.7874015748031497,
                    "duration": 0.18269232291666526
                },
                {
                    "name": "G#4",
                    "midi": 68,
                    "time": 189.6923234999997,
                    "velocity": 0.7874015748031497,
                    "duration": 0.18269232291666526
                },
                {
                    "name": "B4",
                    "midi": 71,
                    "time": 189.8365542812497,
                    "velocity": 0.7874015748031497,
                    "duration": 0.18269232291666526
                },
                {
                    "name": "D5",
                    "midi": 74,
                    "time": 189.99040044791636,
                    "velocity": 0.7874015748031497,
                    "duration": 0.18269232291666526
                },
                {
                    "name": "F5",
                    "midi": 77,
                    "time": 190.1538619999997,
                    "velocity": 0.7874015748031497,
                    "duration": 0.18269232291666526
                },
                {
                    "name": "D5",
                    "midi": 74,
                    "time": 190.30770816666634,
                    "velocity": 0.7874015748031497,
                    "duration": 0.18269232291666526
                },
                {
                    "name": "B4",
                    "midi": 71,
                    "time": 190.47116971874968,
                    "velocity": 0.7874015748031497,
                    "duration": 0.18269232291666526
                },
                {
                    "name": "G4",
                    "midi": 67,
                    "time": 190.61540049999968,
                    "velocity": 0.7874015748031497,
                    "duration": 0.18269232291666526
                },
                {
                    "name": "D4",
                    "midi": 62,
                    "time": 190.75963128124968,
                    "velocity": 0.7874015748031497,
                    "duration": 0.18269232291666526
                },
                {
                    "name": "B3",
                    "midi": 59,
                    "time": 190.91347744791634,
                    "velocity": 0.7874015748031497,
                    "duration": 0.18269232291666526
                },
                {
                    "name": "G3",
                    "midi": 55,
                    "time": 191.07693899999967,
                    "velocity": 0.7874015748031497,
                    "duration": 0.30769233333333545
                },
                {
                    "name": "G5",
                    "midi": 79,
                    "time": 191.53847749999966,
                    "velocity": 0.7874015748031497,
                    "duration": 0.30769233333333545
                },
                {
                    "name": "C5",
                    "midi": 72,
                    "time": 192.00001599999965,
                    "velocity": 0.7874015748031497,
                    "duration": 0.07692308333332676
                },
                {
                    "name": "B4",
                    "midi": 71,
                    "time": 192.0384775416663,
                    "velocity": 0.7874015748031497,
                    "duration": 0.07692308333335518
                },
                {
                    "name": "C5",
                    "midi": 72,
                    "time": 192.08655446874965,
                    "velocity": 0.7874015748031497,
                    "duration": 0.211538479166677
                },
                {
                    "name": "D5",
                    "midi": 74,
                    "time": 192.29809294791633,
                    "velocity": 0.7874015748031497,
                    "duration": 0.08653846875000681
                },
                {
                    "name": "C5",
                    "midi": 72,
                    "time": 192.37501603124966,
                    "velocity": 0.7874015748031497,
                    "duration": 0.08653846875003524
                },
                {
                    "name": "B4",
                    "midi": 71,
                    "time": 192.451939114583,
                    "velocity": 0.7874015748031497,
                    "duration": 0.08653846875000681
                },
                {
                    "name": "C5",
                    "midi": 72,
                    "time": 192.50001604166636,
                    "velocity": 0.7874015748031497,
                    "duration": 0.3557692604166789
                },
                {
                    "name": "D5",
                    "midi": 74,
                    "time": 192.8077083749997,
                    "velocity": 0.7874015748031497,
                    "duration": 0.09615385416668687
                },
                {
                    "name": "D#5",
                    "midi": 75,
                    "time": 192.9230929999997,
                    "velocity": 0.8267716535433071,
                    "duration": 0.09615385416665845
                },
                {
                    "name": "B4",
                    "midi": 71,
                    "time": 192.9230929999997,
                    "velocity": 0.7874015748031497,
                    "duration": 0.9134616145833832
                },
                {
                    "name": "D5",
                    "midi": 74,
                    "time": 193.00001608333304,
                    "velocity": 0.7874015748031497,
                    "duration": 0.09615385416668687
                },
                {
                    "name": "D#5",
                    "midi": 75,
                    "time": 193.08655455208304,
                    "velocity": 0.7874015748031497,
                    "duration": 0.09615385416668687
                },
                {
                    "name": "D5",
                    "midi": 74,
                    "time": 193.17309302083305,
                    "velocity": 0.7874015748031497,
                    "duration": 0.09615385416668687
                },
                {
                    "name": "D#5",
                    "midi": 75,
                    "time": 193.25963148958306,
                    "velocity": 0.7874015748031497,
                    "duration": 0.09615385416668687
                },
                {
                    "name": "D5",
                    "midi": 74,
                    "time": 193.34616995833306,
                    "velocity": 0.7874015748031497,
                    "duration": 0.09615385416668687
                },
                {
                    "name": "D#5",
                    "midi": 75,
                    "time": 193.43270842708307,
                    "velocity": 0.7874015748031497,
                    "duration": 0.09615385416668687
                },
                {
                    "name": "D5",
                    "midi": 74,
                    "time": 193.51924689583308,
                    "velocity": 0.7874015748031497,
                    "duration": 0.211538479166677
                },
                {
                    "name": "C5",
                    "midi": 72,
                    "time": 193.71155460416642,
                    "velocity": 0.7874015748031497,
                    "duration": 0.09615385416665845
                },
                {
                    "name": "C5",
                    "midi": 72,
                    "time": 193.84616999999977,
                    "velocity": 0.7874015748031497,
                    "duration": 0.22115386458332864
                },
                {
                    "name": "B4",
                    "midi": 71,
                    "time": 194.00001616666643,
                    "velocity": 0.7874015748031497,
                    "duration": 0.17307693750001363
                },
                {
                    "name": "D5",
                    "midi": 74,
                    "time": 194.16347771874976,
                    "velocity": 0.7874015748031497,
                    "duration": 0.17307693750001363
                },
                {
                    "name": "G#4",
                    "midi": 68,
                    "time": 194.30770849999976,
                    "velocity": 0.7874015748031497,
                    "duration": 0.22115386458332864
                },
                {
                    "name": "G4",
                    "midi": 67,
                    "time": 194.45193928124976,
                    "velocity": 0.7874015748031497,
                    "duration": 0.1730769374999852
                },
                {
                    "name": "A#4",
                    "midi": 70,
                    "time": 194.60578544791642,
                    "velocity": 0.7874015748031497,
                    "duration": 0.17307693750001363
                },
                {
                    "name": "F4",
                    "midi": 65,
                    "time": 194.76924699999975,
                    "velocity": 0.7874015748031497,
                    "duration": 0.17307693750001363
                },
                {
                    "name": "E4",
                    "midi": 64,
                    "time": 194.92309316666643,
                    "velocity": 0.7874015748031497,
                    "duration": 0.17307693750001363
                },
                {
                    "name": "G4",
                    "midi": 67,
                    "time": 195.08655471874977,
                    "velocity": 0.7874015748031497,
                    "duration": 0.17307693750001363
                },
                {
                    "name": "C#4",
                    "midi": 61,
                    "time": 195.23078549999977,
                    "velocity": 0.7874015748031497,
                    "duration": 0.22115386458332864
                },
                {
                    "name": "C4",
                    "midi": 60,
                    "time": 195.37501628124977,
                    "velocity": 0.7874015748031497,
                    "duration": 0.1730769374999852
                },
                {
                    "name": "A#4",
                    "midi": 70,
                    "time": 195.52886244791642,
                    "velocity": 0.7874015748031497,
                    "duration": 0.13461539583332183
                },
                {
                    "name": "A#4",
                    "midi": 70,
                    "time": 195.69232399999976,
                    "velocity": 0.7874015748031497,
                    "duration": 0.22115386458332864
                },
                {
                    "name": "A4",
                    "midi": 69,
                    "time": 195.8461701666664,
                    "velocity": 0.7874015748031497,
                    "duration": 0.17307693750001363
                },
                {
                    "name": "C5",
                    "midi": 72,
                    "time": 196.00963171874974,
                    "velocity": 0.7874015748031497,
                    "duration": 0.17307693750001363
                },
                {
                    "name": "F#4",
                    "midi": 66,
                    "time": 196.15386249999975,
                    "velocity": 0.7874015748031497,
                    "duration": 0.22115386458332864
                },
                {
                    "name": "F4",
                    "midi": 65,
                    "time": 196.29809328124975,
                    "velocity": 0.7874015748031497,
                    "duration": 0.1730769374999852
                },
                {
                    "name": "G#4",
                    "midi": 68,
                    "time": 196.4519394479164,
                    "velocity": 0.7874015748031497,
                    "duration": 0.17307693750001363
                },
                {
                    "name": "D#4",
                    "midi": 63,
                    "time": 196.61540099999974,
                    "velocity": 0.7874015748031497,
                    "duration": 0.22115386458335706
                },
                {
                    "name": "D4",
                    "midi": 62,
                    "time": 196.76924716666642,
                    "velocity": 0.7874015748031497,
                    "duration": 0.17307693750001363
                },
                {
                    "name": "F4",
                    "midi": 65,
                    "time": 196.93270871874975,
                    "velocity": 0.7874015748031497,
                    "duration": 0.17307693750001363
                },
                {
                    "name": "B3",
                    "midi": 59,
                    "time": 197.07693949999975,
                    "velocity": 0.7874015748031497,
                    "duration": 0.22115386458332864
                },
                {
                    "name": "A#3",
                    "midi": 58,
                    "time": 197.22117028124975,
                    "velocity": 0.7874015748031497,
                    "duration": 0.1730769374999852
                },
                {
                    "name": "G#4",
                    "midi": 68,
                    "time": 197.3750164479164,
                    "velocity": 0.7874015748031497,
                    "duration": 0.14423078125000188
                },
                {
                    "name": "G#4",
                    "midi": 68,
                    "time": 197.53847799999974,
                    "velocity": 0.7874015748031497,
                    "duration": 0.22115386458332864
                },
                {
                    "name": "G4",
                    "midi": 67,
                    "time": 197.6923241666664,
                    "velocity": 0.7874015748031497,
                    "duration": 0.17307693750001363
                },
                {
                    "name": "A#4",
                    "midi": 70,
                    "time": 197.85578571874973,
                    "velocity": 0.7874015748031497,
                    "duration": 0.17307693750001363
                },
                {
                    "name": "E4",
                    "midi": 64,
                    "time": 198.00001649999973,
                    "velocity": 0.7874015748031497,
                    "duration": 0.22115386458332864
                },
                {
                    "name": "D#4",
                    "midi": 63,
                    "time": 198.14424728124973,
                    "velocity": 0.7874015748031497,
                    "duration": 0.1730769374999852
                },
                {
                    "name": "G4",
                    "midi": 67,
                    "time": 198.2980934479164,
                    "velocity": 0.7874015748031497,
                    "duration": 0.17307693750001363
                },
                {
                    "name": "C#4",
                    "midi": 61,
                    "time": 198.46155499999972,
                    "velocity": 0.7874015748031497,
                    "duration": 0.22115386458335706
                },
                {
                    "name": "C4",
                    "midi": 60,
                    "time": 198.6154011666664,
                    "velocity": 0.7874015748031497,
                    "duration": 0.17307693750001363
                },
                {
                    "name": "D#4",
                    "midi": 63,
                    "time": 198.77886271874974,
                    "velocity": 0.7874015748031497,
                    "duration": 0.17307693750001363
                },
                {
                    "name": "A#3",
                    "midi": 58,
                    "time": 198.92309349999974,
                    "velocity": 0.7874015748031497,
                    "duration": 0.22115386458332864
                },
                {
                    "name": "A3",
                    "midi": 57,
                    "time": 199.06732428124974,
                    "velocity": 0.7874015748031497,
                    "duration": 0.1730769374999852
                },
                {
                    "name": "F#4",
                    "midi": 66,
                    "time": 199.2211704479164,
                    "velocity": 0.7874015748031497,
                    "duration": 0.14423078125000188
                },
                {
                    "name": "F#4",
                    "midi": 66,
                    "time": 199.38463199999973,
                    "velocity": 0.7874015748031497,
                    "duration": 0.45192311458333734
                },
                {
                    "name": "G4",
                    "midi": 67,
                    "time": 199.84617049999974,
                    "velocity": 0.7874015748031497,
                    "duration": 0.625000052083351
                },
                {
                    "name": "A4",
                    "midi": 69,
                    "time": 200.46155516666641,
                    "velocity": 0.7874015748031497,
                    "duration": 0.18269232291666526
                },
                {
                    "name": "B4",
                    "midi": 71,
                    "time": 200.62501671874975,
                    "velocity": 0.7874015748031497,
                    "duration": 0.18269232291666526
                },
                {
                    "name": "C5",
                    "midi": 72,
                    "time": 200.76924749999975,
                    "velocity": 0.7874015748031497,
                    "duration": 0.18269232291666526
                },
                {
                    "name": "D5",
                    "midi": 74,
                    "time": 200.91347828124975,
                    "velocity": 0.7874015748031497,
                    "duration": 0.18269232291666526
                },
                {
                    "name": "D#5",
                    "midi": 75,
                    "time": 201.0673244479164,
                    "velocity": 0.7874015748031497,
                    "duration": 0.18269232291666526
                },
                {
                    "name": "F4",
                    "midi": 65,
                    "time": 201.23078599999974,
                    "velocity": 0.7874015748031497,
                    "duration": 0.18269232291666526
                },
                {
                    "name": "D#5",
                    "midi": 75,
                    "time": 201.3846321666664,
                    "velocity": 0.7874015748031497,
                    "duration": 0.18269232291666526
                },
                {
                    "name": "D5",
                    "midi": 74,
                    "time": 201.54809371874973,
                    "velocity": 0.7874015748031497,
                    "duration": 0.18269232291666526
                },
                {
                    "name": "F5",
                    "midi": 77,
                    "time": 201.69232449999973,
                    "velocity": 0.7874015748031497,
                    "duration": 0.18269232291666526
                },
                {
                    "name": "D#5",
                    "midi": 75,
                    "time": 201.83655528124973,
                    "velocity": 0.7874015748031497,
                    "duration": 0.18269232291666526
                },
                {
                    "name": "D5",
                    "midi": 74,
                    "time": 201.99040144791638,
                    "velocity": 0.7874015748031497,
                    "duration": 0.18269232291666526
                },
                {
                    "name": "D#5",
                    "midi": 75,
                    "time": 202.15386299999972,
                    "velocity": 0.7874015748031497,
                    "duration": 0.18269232291666526
                },
                {
                    "name": "D5",
                    "midi": 74,
                    "time": 202.30770916666637,
                    "velocity": 0.7874015748031497,
                    "duration": 0.18269232291666526
                },
                {
                    "name": "C5",
                    "midi": 72,
                    "time": 202.4711707187497,
                    "velocity": 0.7874015748031497,
                    "duration": 0.18269232291666526
                },
                {
                    "name": "D5",
                    "midi": 74,
                    "time": 202.6154014999997,
                    "velocity": 0.7874015748031497,
                    "duration": 0.18269232291666526
                },
                {
                    "name": "C5",
                    "midi": 72,
                    "time": 202.7596322812497,
                    "velocity": 0.7874015748031497,
                    "duration": 0.18269232291666526
                },
                {
                    "name": "B4",
                    "midi": 71,
                    "time": 202.91347844791636,
                    "velocity": 0.7874015748031497,
                    "duration": 0.18269232291666526
                },
                {
                    "name": "C5",
                    "midi": 72,
                    "time": 203.0769399999997,
                    "velocity": 0.7874015748031497,
                    "duration": 0.18269232291666526
                },
                {
                    "name": "D5",
                    "midi": 74,
                    "time": 203.23078616666635,
                    "velocity": 0.7874015748031497,
                    "duration": 0.18269232291666526
                },
                {
                    "name": "D#5",
                    "midi": 75,
                    "time": 203.39424771874968,
                    "velocity": 0.7874015748031497,
                    "duration": 0.18269232291666526
                },
                {
                    "name": "F4",
                    "midi": 65,
                    "time": 203.53847849999968,
                    "velocity": 0.7874015748031497,
                    "duration": 0.18269232291666526
                },
                {
                    "name": "D#5",
                    "midi": 75,
                    "time": 203.68270928124969,
                    "velocity": 0.7874015748031497,
                    "duration": 0.18269232291666526
                },
                {
                    "name": "D5",
                    "midi": 74,
                    "time": 203.83655544791634,
                    "velocity": 0.7874015748031497,
                    "duration": 0.18269232291666526
                },
                {
                    "name": "D#4",
                    "midi": 63,
                    "time": 204.00001699999967,
                    "velocity": 0.7874015748031497,
                    "duration": 0.18269232291666526
                },
                {
                    "name": "D5",
                    "midi": 74,
                    "time": 204.15386316666633,
                    "velocity": 0.7874015748031497,
                    "duration": 0.18269232291666526
                },
                {
                    "name": "C5",
                    "midi": 72,
                    "time": 204.31732471874966,
                    "velocity": 0.7874015748031497,
                    "duration": 0.18269232291666526
                },
                {
                    "name": "D4",
                    "midi": 62,
                    "time": 204.46155549999966,
                    "velocity": 0.7874015748031497,
                    "duration": 0.18269232291666526
                },
                {
                    "name": "C5",
                    "midi": 72,
                    "time": 204.60578628124966,
                    "velocity": 0.7874015748031497,
                    "duration": 0.18269232291666526
                },
                {
                    "name": "B4",
                    "midi": 71,
                    "time": 204.75963244791632,
                    "velocity": 0.7874015748031497,
                    "duration": 0.18269232291666526
                },
                {
                    "name": "C5",
                    "midi": 72,
                    "time": 204.92309399999965,
                    "velocity": 0.7874015748031497,
                    "duration": 0.18269232291666526
                },
                {
                    "name": "G4",
                    "midi": 67,
                    "time": 205.0769401666663,
                    "velocity": 0.7874015748031497,
                    "duration": 0.18269232291666526
                },
                {
                    "name": "D#4",
                    "midi": 63,
                    "time": 205.24040171874964,
                    "velocity": 0.7874015748031497,
                    "duration": 0.18269232291666526
                },
                {
                    "name": "C4",
                    "midi": 60,
                    "time": 205.38463249999964,
                    "velocity": 0.7874015748031497,
                    "duration": 0.45192311458333734
                },
                {
                    "name": "G5",
                    "midi": 79,
                    "time": 206.76924799999964,
                    "velocity": 0.7874015748031497,
                    "duration": 0.22115386458332864
                },
                {
                    "name": "D5",
                    "midi": 74,
                    "time": 206.9230941666663,
                    "velocity": 0.7874015748031497,
                    "duration": 0.22115386458335706
                },
                {
                    "name": "A#4",
                    "midi": 70,
                    "time": 207.07694033333297,
                    "velocity": 0.7874015748031497,
                    "duration": 0.22115386458335706
                },
                {
                    "name": "G4",
                    "midi": 67,
                    "time": 207.23078649999965,
                    "velocity": 0.7874015748031497,
                    "duration": 0.22115386458332864
                },
                {
                    "name": "D4",
                    "midi": 62,
                    "time": 207.37501728124965,
                    "velocity": 0.7874015748031497,
                    "duration": 0.22115386458332864
                },
                {
                    "name": "A#3",
                    "midi": 58,
                    "time": 207.5288634479163,
                    "velocity": 0.7874015748031497,
                    "duration": 0.22115386458332864
                },
                {
                    "name": "G3",
                    "midi": 55,
                    "time": 207.69232499999964,
                    "velocity": 0.7874015748031497,
                    "duration": 0.30769233333333545
                },
                {
                    "name": "G5",
                    "midi": 79,
                    "time": 208.15386349999963,
                    "velocity": 0.7874015748031497,
                    "duration": 0.45192311458333734
                },
                {
                    "name": "D5",
                    "midi": 74,
                    "time": 208.15386349999963,
                    "velocity": 0.7874015748031497,
                    "duration": 0.45192311458333734
                },
                {
                    "name": "A#5",
                    "midi": 82,
                    "time": 208.15386349999963,
                    "velocity": 0.7874015748031497,
                    "duration": 0.45192311458333734
                },
                {
                    "name": "D5",
                    "midi": 74,
                    "time": 208.61540199999965,
                    "velocity": 0.7874015748031497,
                    "duration": 0.45192311458333734
                },
                {
                    "name": "G5",
                    "midi": 79,
                    "time": 208.61540199999965,
                    "velocity": 0.7874015748031497,
                    "duration": 0.45192311458333734
                },
                {
                    "name": "A#5",
                    "midi": 82,
                    "time": 208.61540199999965,
                    "velocity": 0.7874015748031497,
                    "duration": 0.45192311458333734
                },
                {
                    "name": "F#5",
                    "midi": 78,
                    "time": 209.07694049999967,
                    "velocity": 0.7874015748031497,
                    "duration": 0.30769233333333545
                },
                {
                    "name": "A5",
                    "midi": 81,
                    "time": 209.07694049999967,
                    "velocity": 0.7874015748031497,
                    "duration": 0.30769233333333545
                },
                {
                    "name": "D#5",
                    "midi": 75,
                    "time": 209.500017458333,
                    "velocity": 0.7874015748031497,
                    "duration": 0.17307693750001363
                },
                {
                    "name": "D5",
                    "midi": 74,
                    "time": 209.62501746874966,
                    "velocity": 0.7874015748031497,
                    "duration": 0.08653846875000681
                },
                {
                    "name": "D#5",
                    "midi": 75,
                    "time": 209.71155593749967,
                    "velocity": 0.7874015748031497,
                    "duration": 0.08653846875000681
                },
                {
                    "name": "D5",
                    "midi": 74,
                    "time": 209.788479020833,
                    "velocity": 0.7874015748031497,
                    "duration": 0.08653846875003524
                },
                {
                    "name": "D#5",
                    "midi": 75,
                    "time": 209.86540210416635,
                    "velocity": 0.7874015748031497,
                    "duration": 0.08653846875000681
                },
                {
                    "name": "D5",
                    "midi": 74,
                    "time": 209.95194057291636,
                    "velocity": 0.7874015748031497,
                    "duration": 0.08653846875000681
                },
                {
                    "name": "D#5",
                    "midi": 75,
                    "time": 210.02886365624968,
                    "velocity": 0.7874015748031497,
                    "duration": 0.08653846875003524
                },
                {
                    "name": "D5",
                    "midi": 74,
                    "time": 210.10578673958304,
                    "velocity": 0.7874015748031497,
                    "duration": 0.08653846875003524
                },
                {
                    "name": "C#5",
                    "midi": 73,
                    "time": 210.1827098229164,
                    "velocity": 0.7874015748031497,
                    "duration": 0.11538462500001856
                },
                {
                    "name": "D5",
                    "midi": 74,
                    "time": 210.2980944479164,
                    "velocity": 0.7874015748031497,
                    "duration": 0.11538462499999014
                },
                {
                    "name": "C6",
                    "midi": 84,
                    "time": 210.46155599999975,
                    "velocity": 0.7874015748031497,
                    "duration": 0.22115386458332864
                },
                {
                    "name": "A5",
                    "midi": 81,
                    "time": 210.6154021666664,
                    "velocity": 0.7874015748031497,
                    "duration": 0.22115386458335706
                },
                {
                    "name": "F#5",
                    "midi": 78,
                    "time": 210.76924833333308,
                    "velocity": 0.7874015748031497,
                    "duration": 0.22115386458335706
                },
                {
                    "name": "D5",
                    "midi": 74,
                    "time": 210.92309449999976,
                    "velocity": 0.7874015748031497,
                    "duration": 0.22115386458332864
                },
                {
                    "name": "A4",
                    "midi": 69,
                    "time": 211.06732528124977,
                    "velocity": 0.7874015748031497,
                    "duration": 0.22115386458332864
                },
                {
                    "name": "F#4",
                    "midi": 66,
                    "time": 211.22117144791642,
                    "velocity": 0.7874015748031497,
                    "duration": 0.22115386458332864
                },
                {
                    "name": "D4",
                    "midi": 62,
                    "time": 211.38463299999975,
                    "velocity": 0.7874015748031497,
                    "duration": 0.30769233333333545
                },
                {
                    "name": "C6",
                    "midi": 84,
                    "time": 211.84617149999974,
                    "velocity": 0.7874015748031497,
                    "duration": 0.45192311458333734
                },
                {
                    "name": "A5",
                    "midi": 81,
                    "time": 211.84617149999974,
                    "velocity": 0.7874015748031497,
                    "duration": 0.45192311458333734
                },
                {
                    "name": "D5",
                    "midi": 74,
                    "time": 211.84617149999974,
                    "velocity": 0.7874015748031497,
                    "duration": 0.45192311458333734
                },
                {
                    "name": "F#5",
                    "midi": 78,
                    "time": 211.84617149999974,
                    "velocity": 0.7874015748031497,
                    "duration": 0.45192311458333734
                },
                {
                    "name": "C6",
                    "midi": 84,
                    "time": 212.30770999999976,
                    "velocity": 0.7874015748031497,
                    "duration": 0.45192311458333734
                },
                {
                    "name": "D5",
                    "midi": 74,
                    "time": 212.30770999999976,
                    "velocity": 0.7874015748031497,
                    "duration": 0.45192311458333734
                },
                {
                    "name": "A5",
                    "midi": 81,
                    "time": 212.30770999999976,
                    "velocity": 0.7874015748031497,
                    "duration": 0.45192311458333734
                },
                {
                    "name": "F#5",
                    "midi": 78,
                    "time": 212.30770999999976,
                    "velocity": 0.7874015748031497,
                    "duration": 0.45192311458333734
                },
                {
                    "name": "A#5",
                    "midi": 82,
                    "time": 212.76924849999978,
                    "velocity": 0.7874015748031497,
                    "duration": 0.30769233333333545
                },
                {
                    "name": "G5",
                    "midi": 79,
                    "time": 212.76924849999978,
                    "velocity": 0.7874015748031497,
                    "duration": 0.30769233333333545
                },
                {
                    "name": "D#5",
                    "midi": 75,
                    "time": 213.1923254583331,
                    "velocity": 0.7874015748031497,
                    "duration": 0.17307693750001363
                },
                {
                    "name": "D5",
                    "midi": 74,
                    "time": 213.31732546874977,
                    "velocity": 0.7874015748031497,
                    "duration": 0.08653846875000681
                },
                {
                    "name": "D#5",
                    "midi": 75,
                    "time": 213.40386393749978,
                    "velocity": 0.7874015748031497,
                    "duration": 0.08653846875000681
                },
                {
                    "name": "D5",
                    "midi": 74,
                    "time": 213.4807870208331,
                    "velocity": 0.7874015748031497,
                    "duration": 0.08653846875003524
                },
                {
                    "name": "D#5",
                    "midi": 75,
                    "time": 213.55771010416646,
                    "velocity": 0.7874015748031497,
                    "duration": 0.08653846875000681
                },
                {
                    "name": "D5",
                    "midi": 74,
                    "time": 213.64424857291647,
                    "velocity": 0.7874015748031497,
                    "duration": 0.08653846875000681
                },
                {
                    "name": "D#5",
                    "midi": 75,
                    "time": 213.7211716562498,
                    "velocity": 0.7874015748031497,
                    "duration": 0.08653846875003524
                },
                {
                    "name": "D5",
                    "midi": 74,
                    "time": 213.79809473958315,
                    "velocity": 0.7874015748031497,
                    "duration": 0.08653846875003524
                },
                {
                    "name": "C#5",
                    "midi": 73,
                    "time": 213.8750178229165,
                    "velocity": 0.7874015748031497,
                    "duration": 0.11538462500001856
                },
                {
                    "name": "D5",
                    "midi": 74,
                    "time": 213.99040244791652,
                    "velocity": 0.7874015748031497,
                    "duration": 0.11538462499999014
                },
                {
                    "name": "F5",
                    "midi": 77,
                    "time": 214.15386399999986,
                    "velocity": 0.7874015748031497,
                    "duration": 0.22115386458332864
                },
                {
                    "name": "D5",
                    "midi": 74,
                    "time": 214.3077101666665,
                    "velocity": 0.7874015748031497,
                    "duration": 0.22115386458335706
                },
                {
                    "name": "B4",
                    "midi": 71,
                    "time": 214.4615563333332,
                    "velocity": 0.7874015748031497,
                    "duration": 0.22115386458335706
                },
                {
                    "name": "G#4",
                    "midi": 68,
                    "time": 214.61540249999987,
                    "velocity": 0.7874015748031497,
                    "duration": 0.22115386458332864
                },
                {
                    "name": "F4",
                    "midi": 65,
                    "time": 214.75963328124988,
                    "velocity": 0.7874015748031497,
                    "duration": 0.22115386458332864
                },
                {
                    "name": "D4",
                    "midi": 62,
                    "time": 214.91347944791653,
                    "velocity": 0.7874015748031497,
                    "duration": 0.22115386458332864
                },
                {
                    "name": "G3",
                    "midi": 55,
                    "time": 215.07694099999986,
                    "velocity": 0.7874015748031497,
                    "duration": 0.30769233333333545
                },
                {
                    "name": "F5",
                    "midi": 77,
                    "time": 215.53847949999985,
                    "velocity": 0.7874015748031497,
                    "duration": 0.5480769687499958
                },
                {
                    "name": "G5",
                    "midi": 79,
                    "time": 216.15386416666652,
                    "velocity": 0.7874015748031497,
                    "duration": 0.18269232291666526
                },
                {
                    "name": "D#5",
                    "midi": 75,
                    "time": 216.30771033333318,
                    "velocity": 0.7874015748031497,
                    "duration": 0.18269232291669368
                },
                {
                    "name": "C5",
                    "midi": 72,
                    "time": 216.46155649999986,
                    "velocity": 0.7874015748031497,
                    "duration": 0.18269232291666526
                },
                {
                    "name": "G4",
                    "midi": 67,
                    "time": 216.60578728124986,
                    "velocity": 0.7874015748031497,
                    "duration": 0.18269232291666526
                },
                {
                    "name": "D#4",
                    "midi": 63,
                    "time": 216.7596334479165,
                    "velocity": 0.7874015748031497,
                    "duration": 0.18269232291666526
                },
                {
                    "name": "C4",
                    "midi": 60,
                    "time": 216.92309499999985,
                    "velocity": 0.7874015748031497,
                    "duration": 0.30769233333333545
                },
                {
                    "name": "D#5",
                    "midi": 75,
                    "time": 217.38463349999984,
                    "velocity": 0.7874015748031497,
                    "duration": 0.5769231250000075
                },
                {
                    "name": "C5",
                    "midi": 72,
                    "time": 218.0000181666665,
                    "velocity": 0.7874015748031497,
                    "duration": 0.22115386458332864
                },
                {
                    "name": "A4",
                    "midi": 69,
                    "time": 218.15386433333316,
                    "velocity": 0.7874015748031497,
                    "duration": 0.22115386458335706
                },
                {
                    "name": "F#4",
                    "midi": 66,
                    "time": 218.30771049999984,
                    "velocity": 0.7874015748031497,
                    "duration": 0.22115386458332864
                },
                {
                    "name": "D#4",
                    "midi": 63,
                    "time": 218.45194128124984,
                    "velocity": 0.7874015748031497,
                    "duration": 0.22115386458332864
                },
                {
                    "name": "C4",
                    "midi": 60,
                    "time": 218.6057874479165,
                    "velocity": 0.7874015748031497,
                    "duration": 0.22115386458332864
                },
                {
                    "name": "A3",
                    "midi": 57,
                    "time": 218.76924899999983,
                    "velocity": 0.7874015748031497,
                    "duration": 0.30769233333333545
                },
                {
                    "name": "D#5",
                    "midi": 75,
                    "time": 219.23078749999982,
                    "velocity": 0.7874015748031497,
                    "duration": 0.5480769687499958
                },
                {
                    "name": "F5",
                    "midi": 77,
                    "time": 219.8461721666665,
                    "velocity": 0.7874015748031497,
                    "duration": 0.18269232291666526
                },
                {
                    "name": "D5",
                    "midi": 74,
                    "time": 220.00001833333314,
                    "velocity": 0.7874015748031497,
                    "duration": 0.18269232291669368
                },
                {
                    "name": "A#4",
                    "midi": 70,
                    "time": 220.15386449999983,
                    "velocity": 0.7874015748031497,
                    "duration": 0.18269232291666526
                },
                {
                    "name": "F4",
                    "midi": 65,
                    "time": 220.29809528124983,
                    "velocity": 0.7874015748031497,
                    "duration": 0.18269232291666526
                },
                {
                    "name": "D4",
                    "midi": 62,
                    "time": 220.45194144791648,
                    "velocity": 0.7874015748031497,
                    "duration": 0.18269232291666526
                },
                {
                    "name": "A#3",
                    "midi": 58,
                    "time": 220.61540299999982,
                    "velocity": 0.7874015748031497,
                    "duration": 0.30769233333333545
                },
                {
                    "name": "D5",
                    "midi": 74,
                    "time": 221.0769414999998,
                    "velocity": 0.7874015748031497,
                    "duration": 0.6346154375000026
                },
                {
                    "name": "G4",
                    "midi": 67,
                    "time": 221.69232616666648,
                    "velocity": 0.7874015748031497,
                    "duration": 0.1730769374999852
                },
                {
                    "name": "G#4",
                    "midi": 68,
                    "time": 221.84617233333313,
                    "velocity": 0.7874015748031497,
                    "duration": 0.1730769374999852
                },
                {
                    "name": "A4",
                    "midi": 69,
                    "time": 222.00001849999978,
                    "velocity": 0.7874015748031497,
                    "duration": 0.17307693750001363
                },
                {
                    "name": "A#4",
                    "midi": 70,
                    "time": 222.14424928124978,
                    "velocity": 0.7874015748031497,
                    "duration": 0.17307693750001363
                },
                {
                    "name": "B4",
                    "midi": 71,
                    "time": 222.29809544791647,
                    "velocity": 0.7874015748031497,
                    "duration": 0.17307693750001363
                },
                {
                    "name": "C5",
                    "midi": 72,
                    "time": 222.4615569999998,
                    "velocity": 0.7874015748031497,
                    "duration": 0.08653846875000681
                },
                {
                    "name": "B4",
                    "midi": 71,
                    "time": 222.52886469791648,
                    "velocity": 0.7874015748031497,
                    "duration": 0.08653846875000681
                },
                {
                    "name": "C5",
                    "midi": 72,
                    "time": 222.6057877812498,
                    "velocity": 0.7874015748031497,
                    "duration": 0.5769231250000075
                },
                {
                    "name": "D5",
                    "midi": 74,
                    "time": 223.5384801666665,
                    "velocity": 0.7874015748031497,
                    "duration": 0.17307693750001363
                },
                {
                    "name": "C5",
                    "midi": 72,
                    "time": 223.70194171874982,
                    "velocity": 0.7874015748031497,
                    "duration": 0.17307693750001363
                },
                {
                    "name": "B4",
                    "midi": 71,
                    "time": 223.84617249999982,
                    "velocity": 0.7874015748031497,
                    "duration": 0.17307693750001363
                },
                {
                    "name": "A#4",
                    "midi": 70,
                    "time": 223.99040328124983,
                    "velocity": 0.7874015748031497,
                    "duration": 0.17307693750001363
                },
                {
                    "name": "A4",
                    "midi": 69,
                    "time": 224.1442494479165,
                    "velocity": 0.7874015748031497,
                    "duration": 0.17307693750001363
                },
                {
                    "name": "A#4",
                    "midi": 70,
                    "time": 224.30771099999984,
                    "velocity": 0.7874015748031497,
                    "duration": 0.30769233333333545
                },
                {
                    "name": "G5",
                    "midi": 79,
                    "time": 224.76924949999983,
                    "velocity": 0.7874015748031497,
                    "duration": 0.30769233333333545
                },
                {
                    "name": "C5",
                    "midi": 72,
                    "time": 225.3846341666665,
                    "velocity": 0.7874015748031497,
                    "duration": 0.17307693750001363
                },
                {
                    "name": "C#5",
                    "midi": 73,
                    "time": 225.54809571874983,
                    "velocity": 0.7874015748031497,
                    "duration": 0.17307693750001363
                },
                {
                    "name": "D5",
                    "midi": 74,
                    "time": 225.69232649999984,
                    "velocity": 0.7874015748031497,
                    "duration": 0.17307693750001363
                },
                {
                    "name": "D#5",
                    "midi": 75,
                    "time": 225.83655728124984,
                    "velocity": 0.7874015748031497,
                    "duration": 0.17307693750001363
                },
                {
                    "name": "E5",
                    "midi": 76,
                    "time": 225.99040344791652,
                    "velocity": 0.7874015748031497,
                    "duration": 0.17307693750001363
                },
                {
                    "name": "F5",
                    "midi": 77,
                    "time": 226.15386499999985,
                    "velocity": 0.7874015748031497,
                    "duration": 0.08653846875003524
                },
                {
                    "name": "E5",
                    "midi": 76,
                    "time": 226.2307880833332,
                    "velocity": 0.7874015748031497,
                    "duration": 0.08653846875000681
                },
                {
                    "name": "F5",
                    "midi": 77,
                    "time": 226.31732655208322,
                    "velocity": 0.7874015748031497,
                    "duration": 0.7500000624999927
                },
                {
                    "name": "G5",
                    "midi": 79,
                    "time": 227.23078816666654,
                    "velocity": 0.7874015748031497,
                    "duration": 0.17307693750001363
                },
                {
                    "name": "F5",
                    "midi": 77,
                    "time": 227.39424971874988,
                    "velocity": 0.7874015748031497,
                    "duration": 0.17307693750001363
                },
                {
                    "name": "E5",
                    "midi": 76,
                    "time": 227.53848049999988,
                    "velocity": 0.7874015748031497,
                    "duration": 0.17307693750001363
                },
                {
                    "name": "D#5",
                    "midi": 75,
                    "time": 227.68271128124988,
                    "velocity": 0.7874015748031497,
                    "duration": 0.17307693750001363
                },
                {
                    "name": "D5",
                    "midi": 74,
                    "time": 227.83655744791656,
                    "velocity": 0.7874015748031497,
                    "duration": 0.17307693750001363
                },
                {
                    "name": "D#5",
                    "midi": 75,
                    "time": 228.0000189999999,
                    "velocity": 0.7874015748031497,
                    "duration": 0.30769233333333545
                },
                {
                    "name": "C6",
                    "midi": 84,
                    "time": 228.46155749999988,
                    "velocity": 0.7874015748031497,
                    "duration": 0.6346154375000026
                },
                {
                    "name": "F5",
                    "midi": 77,
                    "time": 229.07694216666656,
                    "velocity": 0.7874015748031497,
                    "duration": 0.17307693750001363
                },
                {
                    "name": "F#5",
                    "midi": 78,
                    "time": 229.2404037187499,
                    "velocity": 0.7874015748031497,
                    "duration": 0.17307693750001363
                },
                {
                    "name": "G5",
                    "midi": 79,
                    "time": 229.3846344999999,
                    "velocity": 0.7874015748031497,
                    "duration": 0.17307693750001363
                },
                {
                    "name": "G#5",
                    "midi": 80,
                    "time": 229.5288652812499,
                    "velocity": 0.7874015748031497,
                    "duration": 0.17307693750001363
                },
                {
                    "name": "A5",
                    "midi": 81,
                    "time": 229.68271144791657,
                    "velocity": 0.7874015748031497,
                    "duration": 0.17307693750001363
                },
                {
                    "name": "A#5",
                    "midi": 82,
                    "time": 229.8461729999999,
                    "velocity": 0.7874015748031497,
                    "duration": 0.08653846875003524
                },
                {
                    "name": "A5",
                    "midi": 81,
                    "time": 229.92309608333326,
                    "velocity": 0.7874015748031497,
                    "duration": 0.08653846875000681
                },
                {
                    "name": "A#5",
                    "midi": 82,
                    "time": 230.00963455208327,
                    "velocity": 0.7874015748031497,
                    "duration": 0.7500000624999927
                },
                {
                    "name": "C6",
                    "midi": 84,
                    "time": 230.9230961666666,
                    "velocity": 0.7874015748031497,
                    "duration": 0.17307693750001363
                },
                {
                    "name": "A#5",
                    "midi": 82,
                    "time": 231.08655771874993,
                    "velocity": 0.7874015748031497,
                    "duration": 0.17307693750001363
                },
                {
                    "name": "A5",
                    "midi": 81,
                    "time": 231.23078849999993,
                    "velocity": 0.7874015748031497,
                    "duration": 0.17307693750001363
                },
                {
                    "name": "G#5",
                    "midi": 80,
                    "time": 231.37501928124993,
                    "velocity": 0.7874015748031497,
                    "duration": 0.17307693750001363
                },
                {
                    "name": "G5",
                    "midi": 79,
                    "time": 231.52886544791662,
                    "velocity": 0.7874015748031497,
                    "duration": 0.17307693750001363
                },
                {
                    "name": "G#5",
                    "midi": 80,
                    "time": 231.69232699999995,
                    "velocity": 0.7874015748031497,
                    "duration": 1.1153847083333517
                },
                {
                    "name": "F5",
                    "midi": 77,
                    "time": 232.76925016666664,
                    "velocity": 0.7874015748031497,
                    "duration": 0.19230770833334532
                },
                {
                    "name": "E5",
                    "midi": 76,
                    "time": 232.93271171874997,
                    "velocity": 0.7874015748031497,
                    "duration": 0.19230770833334532
                },
                {
                    "name": "F5",
                    "midi": 77,
                    "time": 233.07694249999997,
                    "velocity": 0.7874015748031497,
                    "duration": 0.19230770833334532
                },
                {
                    "name": "G5",
                    "midi": 79,
                    "time": 233.22117328124997,
                    "velocity": 0.7874015748031497,
                    "duration": 0.19230770833334532
                },
                {
                    "name": "G#5",
                    "midi": 80,
                    "time": 233.37501944791666,
                    "velocity": 0.7874015748031497,
                    "duration": 0.19230770833334532
                },
                {
                    "name": "A#5",
                    "midi": 82,
                    "time": 233.538481,
                    "velocity": 0.7874015748031497,
                    "duration": 0.19230770833334532
                },
                {
                    "name": "F#5",
                    "midi": 78,
                    "time": 233.69232716666667,
                    "velocity": 0.7874015748031497,
                    "duration": 0.19230770833334532
                },
                {
                    "name": "F5",
                    "midi": 77,
                    "time": 233.85578871875,
                    "velocity": 0.7874015748031497,
                    "duration": 0.19230770833334532
                },
                {
                    "name": "F#5",
                    "midi": 78,
                    "time": 234.0000195,
                    "velocity": 0.7874015748031497,
                    "duration": 0.19230770833334532
                },
                {
                    "name": "G#5",
                    "midi": 80,
                    "time": 234.14425028125,
                    "velocity": 0.7874015748031497,
                    "duration": 0.19230770833334532
                },
                {
                    "name": "A#5",
                    "midi": 82,
                    "time": 234.2980964479167,
                    "velocity": 0.7874015748031497,
                    "duration": 0.19230770833334532
                },
                {
                    "name": "E5",
                    "midi": 76,
                    "time": 234.46155800000003,
                    "velocity": 0.7874015748031497,
                    "duration": 0.19230770833334532
                },
                {
                    "name": "A#5",
                    "midi": 82,
                    "time": 234.6154041666667,
                    "velocity": 0.7874015748031497,
                    "duration": 0.19230770833334532
                },
                {
                    "name": "G5",
                    "midi": 79,
                    "time": 234.77886571875004,
                    "velocity": 0.7874015748031497,
                    "duration": 0.19230770833334532
                },
                {
                    "name": "E5",
                    "midi": 76,
                    "time": 234.92309650000004,
                    "velocity": 0.7874015748031497,
                    "duration": 0.19230770833334532
                },
                {
                    "name": "C5",
                    "midi": 72,
                    "time": 235.06732728125004,
                    "velocity": 0.7874015748031497,
                    "duration": 0.19230770833334532
                },
                {
                    "name": "B4",
                    "midi": 71,
                    "time": 235.22117344791673,
                    "velocity": 0.7874015748031497,
                    "duration": 0.19230770833334532
                },
                {
                    "name": "C5",
                    "midi": 72,
                    "time": 235.38463500000006,
                    "velocity": 0.7874015748031497,
                    "duration": 0.45192311458333734
                },
                {
                    "name": "D#5",
                    "midi": 75,
                    "time": 236.30771200000007,
                    "velocity": 0.7874015748031497,
                    "duration": 0.30769233333333545
                },
                {
                    "name": "C5",
                    "midi": 72,
                    "time": 236.30771200000007,
                    "velocity": 0.7874015748031497,
                    "duration": 0.30769233333333545
                },
                {
                    "name": "A4",
                    "midi": 69,
                    "time": 236.30771200000007,
                    "velocity": 0.7874015748031497,
                    "duration": 0.30769233333333545
                },
                {
                    "name": "D#5",
                    "midi": 75,
                    "time": 237.69232750000006,
                    "velocity": 0.7874015748031497,
                    "duration": 0.45192311458333734
                },
                {
                    "name": "C5",
                    "midi": 72,
                    "time": 237.69232750000006,
                    "velocity": 0.7874015748031497,
                    "duration": 0.45192311458333734
                },
                {
                    "name": "A4",
                    "midi": 69,
                    "time": 237.69232750000006,
                    "velocity": 0.7874015748031497,
                    "duration": 0.45192311458333734
                },
                {
                    "name": "C#5",
                    "midi": 73,
                    "time": 238.15386600000008,
                    "velocity": 0.7874015748031497,
                    "duration": 0.30769233333333545
                },
                {
                    "name": "A#4",
                    "midi": 70,
                    "time": 238.15386600000008,
                    "velocity": 0.7874015748031497,
                    "duration": 0.30769233333333545
                },
                {
                    "name": "C#5",
                    "midi": 73,
                    "time": 239.53848150000007,
                    "velocity": 0.7874015748031497,
                    "duration": 0.30769233333333545
                },
                {
                    "name": "A#4",
                    "midi": 70,
                    "time": 239.53848150000007,
                    "velocity": 0.7874015748031497,
                    "duration": 0.30769233333333545
                },
                {
                    "name": "G#4",
                    "midi": 68,
                    "time": 239.53848150000007,
                    "velocity": 0.7874015748031497,
                    "duration": 0.30769233333333545
                },
                {
                    "name": "G4",
                    "midi": 67,
                    "time": 240.00002000000006,
                    "velocity": 0.7874015748031497,
                    "duration": 0.30769233333333545
                },
                {
                    "name": "A#4",
                    "midi": 70,
                    "time": 240.00002000000006,
                    "velocity": 0.7874015748031497,
                    "duration": 0.30769233333333545
                },
                {
                    "name": "C#5",
                    "midi": 73,
                    "time": 240.00002000000006,
                    "velocity": 0.7874015748031497,
                    "duration": 0.30769233333333545
                },
                {
                    "name": "G4",
                    "midi": 67,
                    "time": 241.38463550000006,
                    "velocity": 0.7874015748031497,
                    "duration": 0.45192311458333734
                },
                {
                    "name": "A#4",
                    "midi": 70,
                    "time": 241.38463550000006,
                    "velocity": 0.7874015748031497,
                    "duration": 0.45192311458333734
                },
                {
                    "name": "C#5",
                    "midi": 73,
                    "time": 241.38463550000006,
                    "velocity": 0.7874015748031497,
                    "duration": 0.45192311458333734
                },
                {
                    "name": "G#4",
                    "midi": 68,
                    "time": 241.84617400000008,
                    "velocity": 0.7874015748031497,
                    "duration": 0.30769233333333545
                },
                {
                    "name": "C5",
                    "midi": 72,
                    "time": 241.84617400000008,
                    "velocity": 0.7874015748031497,
                    "duration": 0.30769233333333545
                },
                {
                    "name": "F4",
                    "midi": 65,
                    "time": 244.15386650000008,
                    "velocity": 0.7874015748031497,
                    "duration": 0.45192311458333734
                },
                {
                    "name": "G4",
                    "midi": 67,
                    "time": 244.6154050000001,
                    "velocity": 0.7874015748031497,
                    "duration": 0.45192311458333734
                },
                {
                    "name": "G#4",
                    "midi": 68,
                    "time": 246.0000205000001,
                    "velocity": 0.7874015748031497,
                    "duration": 0.45192311458333734
                },
                {
                    "name": "A#4",
                    "midi": 70,
                    "time": 246.4615590000001,
                    "velocity": 0.7874015748031497,
                    "duration": 0.45192311458333734
                },
                {
                    "name": "C4",
                    "midi": 60,
                    "time": 247.3846360000001,
                    "velocity": 0.7874015748031497,
                    "duration": 0.18269232291666526
                },
                {
                    "name": "G#4",
                    "midi": 68,
                    "time": 247.53848216666677,
                    "velocity": 0.7874015748031497,
                    "duration": 0.18269232291666526
                },
                {
                    "name": "G4",
                    "midi": 67,
                    "time": 247.7019437187501,
                    "velocity": 0.7874015748031497,
                    "duration": 0.18269232291666526
                },
                {
                    "name": "F4",
                    "midi": 65,
                    "time": 247.8461745000001,
                    "velocity": 0.7874015748031497,
                    "duration": 0.18269232291666526
                },
                {
                    "name": "C#5",
                    "midi": 73,
                    "time": 247.8461745000001,
                    "velocity": 0.7874015748031497,
                    "duration": 0.18269232291666526
                },
                {
                    "name": "D#4",
                    "midi": 63,
                    "time": 247.9904052812501,
                    "velocity": 0.7874015748031497,
                    "duration": 0.18269232291666526
                },
                {
                    "name": "C5",
                    "midi": 72,
                    "time": 247.9904052812501,
                    "velocity": 0.7874015748031497,
                    "duration": 0.18269232291666526
                },
                {
                    "name": "C#4",
                    "midi": 61,
                    "time": 248.14425144791676,
                    "velocity": 0.7874015748031497,
                    "duration": 0.18269232291666526
                },
                {
                    "name": "A#4",
                    "midi": 70,
                    "time": 248.14425144791676,
                    "velocity": 0.7874015748031497,
                    "duration": 0.18269232291666526
                },
                {
                    "name": "C4",
                    "midi": 60,
                    "time": 248.3077130000001,
                    "velocity": 0.7874015748031497,
                    "duration": 0.18269232291666526
                },
                {
                    "name": "D#5",
                    "midi": 75,
                    "time": 248.3077130000001,
                    "velocity": 0.7874015748031497,
                    "duration": 0.4519231145833089
                },
                {
                    "name": "D#4",
                    "midi": 63,
                    "time": 248.46155916666675,
                    "velocity": 0.7874015748031497,
                    "duration": 0.18269232291666526
                },
                {
                    "name": "G#4",
                    "midi": 68,
                    "time": 248.62502071875008,
                    "velocity": 0.7874015748031497,
                    "duration": 0.18269232291666526
                },
                {
                    "name": "A#3",
                    "midi": 58,
                    "time": 248.76925150000008,
                    "velocity": 0.7874015748031497,
                    "duration": 0.18269232291666526
                },
                {
                    "name": "C#4",
                    "midi": 61,
                    "time": 248.91348228125008,
                    "velocity": 0.7874015748031497,
                    "duration": 0.18269232291666526
                },
                {
                    "name": "G4",
                    "midi": 67,
                    "time": 249.06732844791674,
                    "velocity": 0.7874015748031497,
                    "duration": 0.18269232291666526
                },
                {
                    "name": "C4",
                    "midi": 60,
                    "time": 249.23079000000007,
                    "velocity": 0.7874015748031497,
                    "duration": 0.18269232291666526
                },
                {
                    "name": "D#4",
                    "midi": 63,
                    "time": 249.38463616666672,
                    "velocity": 0.7874015748031497,
                    "duration": 0.18269232291666526
                },
                {
                    "name": "G#4",
                    "midi": 68,
                    "time": 249.54809771875006,
                    "velocity": 0.7874015748031497,
                    "duration": 0.18269232291666526
                },
                {
                    "name": "C5",
                    "midi": 72,
                    "time": 249.69232850000006,
                    "velocity": 0.7874015748031497,
                    "duration": 0.18269232291666526
                },
                {
                    "name": "G4",
                    "midi": 67,
                    "time": 249.83655928125006,
                    "velocity": 0.7874015748031497,
                    "duration": 0.18269232291666526
                },
                {
                    "name": "G#4",
                    "midi": 68,
                    "time": 249.99040544791671,
                    "velocity": 0.7874015748031497,
                    "duration": 0.18269232291666526
                },
                {
                    "name": "D#5",
                    "midi": 75,
                    "time": 250.15386700000005,
                    "velocity": 0.7874015748031497,
                    "duration": 0.18269232291666526
                },
                {
                    "name": "G4",
                    "midi": 67,
                    "time": 250.3077131666667,
                    "velocity": 0.7874015748031497,
                    "duration": 0.18269232291666526
                },
                {
                    "name": "G#4",
                    "midi": 68,
                    "time": 250.47117471875004,
                    "velocity": 0.7874015748031497,
                    "duration": 0.18269232291666526
                },
                {
                    "name": "D#5",
                    "midi": 75,
                    "time": 250.61540550000004,
                    "velocity": 0.7874015748031497,
                    "duration": 0.18269232291666526
                },
                {
                    "name": "C5",
                    "midi": 72,
                    "time": 250.61540550000004,
                    "velocity": 0.7874015748031497,
                    "duration": 0.45192311458333734
                },
                {
                    "name": "G4",
                    "midi": 67,
                    "time": 250.75963628125004,
                    "velocity": 0.7874015748031497,
                    "duration": 0.18269232291666526
                },
                {
                    "name": "G#4",
                    "midi": 68,
                    "time": 250.9134824479167,
                    "velocity": 0.7874015748031497,
                    "duration": 0.18269232291669368
                },
                {
                    "name": "F5",
                    "midi": 77,
                    "time": 251.07694400000005,
                    "velocity": 0.7874015748031497,
                    "duration": 0.30769233333333545
                },
                {
                    "name": "G4",
                    "midi": 67,
                    "time": 251.68271328125005,
                    "velocity": 0.7874015748031497,
                    "duration": 0.18269232291666526
                },
                {
                    "name": "G#4",
                    "midi": 68,
                    "time": 251.8365594479167,
                    "velocity": 0.7874015748031497,
                    "duration": 0.18269232291666526
                },
                {
                    "name": "F5",
                    "midi": 77,
                    "time": 252.00002100000003,
                    "velocity": 0.7874015748031497,
                    "duration": 0.18269232291666526
                },
                {
                    "name": "G4",
                    "midi": 67,
                    "time": 252.15386716666669,
                    "velocity": 0.7874015748031497,
                    "duration": 0.18269232291666526
                },
                {
                    "name": "G#4",
                    "midi": 68,
                    "time": 252.31732871875002,
                    "velocity": 0.7874015748031497,
                    "duration": 0.18269232291666526
                },
                {
                    "name": "F5",
                    "midi": 77,
                    "time": 252.46155950000002,
                    "velocity": 0.7874015748031497,
                    "duration": 0.18269232291666526
                },
                {
                    "name": "G4",
                    "midi": 67,
                    "time": 252.60579028125002,
                    "velocity": 0.7874015748031497,
                    "duration": 0.18269232291666526
                },
                {
                    "name": "G#4",
                    "midi": 68,
                    "time": 252.75963644791668,
                    "velocity": 0.7874015748031497,
                    "duration": 0.18269232291666526
                },
                {
                    "name": "F5",
                    "midi": 77,
                    "time": 252.923098,
                    "velocity": 0.7874015748031497,
                    "duration": 0.30769233333333545
                },
                {
                    "name": "G4",
                    "midi": 67,
                    "time": 253.52886728125,
                    "velocity": 0.7874015748031497,
                    "duration": 0.18269232291666526
                },
                {
                    "name": "G#4",
                    "midi": 68,
                    "time": 253.68271344791665,
                    "velocity": 0.7874015748031497,
                    "duration": 0.18269232291666526
                },
                {
                    "name": "F5",
                    "midi": 77,
                    "time": 253.846175,
                    "velocity": 0.7874015748031497,
                    "duration": 0.18269232291666526
                },
                {
                    "name": "G4",
                    "midi": 67,
                    "time": 254.00002116666664,
                    "velocity": 0.7874015748031497,
                    "duration": 0.18269232291666526
                },
                {
                    "name": "G#4",
                    "midi": 68,
                    "time": 254.16348271874998,
                    "velocity": 0.7874015748031497,
                    "duration": 0.18269232291666526
                },
                {
                    "name": "F5",
                    "midi": 77,
                    "time": 254.30771349999998,
                    "velocity": 0.7874015748031497,
                    "duration": 0.18269232291666526
                },
                {
                    "name": "G4",
                    "midi": 67,
                    "time": 254.45194428124998,
                    "velocity": 0.7874015748031497,
                    "duration": 0.18269232291666526
                },
                {
                    "name": "G#4",
                    "midi": 68,
                    "time": 254.60579044791663,
                    "velocity": 0.7874015748031497,
                    "duration": 0.18269232291666526
                },
                {
                    "name": "F5",
                    "midi": 77,
                    "time": 254.76925199999997,
                    "velocity": 0.7874015748031497,
                    "duration": 0.30769233333333545
                },
                {
                    "name": "G4",
                    "midi": 67,
                    "time": 255.37502128124996,
                    "velocity": 0.7874015748031497,
                    "duration": 0.18269232291666526
                },
                {
                    "name": "G#4",
                    "midi": 68,
                    "time": 255.5288674479166,
                    "velocity": 0.7874015748031497,
                    "duration": 0.18269232291666526
                },
                {
                    "name": "F5",
                    "midi": 77,
                    "time": 255.69232899999994,
                    "velocity": 0.7874015748031497,
                    "duration": 0.18269232291666526
                },
                {
                    "name": "G4",
                    "midi": 67,
                    "time": 255.8461751666666,
                    "velocity": 0.7874015748031497,
                    "duration": 0.1826923229167221
                },
                {
                    "name": "G#4",
                    "midi": 68,
                    "time": 256.00963671874996,
                    "velocity": 0.7874015748031497,
                    "duration": 0.18269232291669368
                },
                {
                    "name": "F5",
                    "midi": 77,
                    "time": 256.1538675,
                    "velocity": 0.7874015748031497,
                    "duration": 0.18269232291663684
                },
                {
                    "name": "G4",
                    "midi": 67,
                    "time": 256.29809828124996,
                    "velocity": 0.7874015748031497,
                    "duration": 0.18269232291663684
                },
                {
                    "name": "G#4",
                    "midi": 68,
                    "time": 256.4519444479166,
                    "velocity": 0.7874015748031497,
                    "duration": 0.18269232291669368
                },
                {
                    "name": "F5",
                    "midi": 77,
                    "time": 256.61540599999995,
                    "velocity": 0.7874015748031497,
                    "duration": 0.3076923333333639
                },
                {
                    "name": "G4",
                    "midi": 67,
                    "time": 257.22117528125,
                    "velocity": 0.7874015748031497,
                    "duration": 0.18269232291663684
                },
                {
                    "name": "G#4",
                    "midi": 68,
                    "time": 257.37502144791665,
                    "velocity": 0.7874015748031497,
                    "duration": 0.18269232291669368
                },
                {
                    "name": "F5",
                    "midi": 77,
                    "time": 257.538483,
                    "velocity": 0.7874015748031497,
                    "duration": 0.18269232291669368
                },
                {
                    "name": "G4",
                    "midi": 67,
                    "time": 257.6923291666667,
                    "velocity": 0.7874015748031497,
                    "duration": 0.18269232291669368
                },
                {
                    "name": "G#4",
                    "midi": 68,
                    "time": 257.85579071875003,
                    "velocity": 0.7874015748031497,
                    "duration": 0.18269232291669368
                },
                {
                    "name": "F5",
                    "midi": 77,
                    "time": 258.00002150000006,
                    "velocity": 0.7874015748031497,
                    "duration": 0.18269232291663684
                },
                {
                    "name": "G4",
                    "midi": 67,
                    "time": 258.14425228125003,
                    "velocity": 0.7874015748031497,
                    "duration": 0.18269232291663684
                },
                {
                    "name": "G#4",
                    "midi": 68,
                    "time": 258.2980984479167,
                    "velocity": 0.7874015748031497,
                    "duration": 0.18269232291669368
                },
                {
                    "name": "D#5",
                    "midi": 75,
                    "time": 258.46156,
                    "velocity": 0.7874015748031497,
                    "duration": 0.45192311458333734
                },
                {
                    "name": "A#4",
                    "midi": 70,
                    "time": 258.92309850000004,
                    "velocity": 0.7874015748031497,
                    "duration": 0.18269232291663684
                },
                {
                    "name": "C5",
                    "midi": 72,
                    "time": 258.92309850000004,
                    "velocity": 0.7874015748031497,
                    "duration": 0.4519231145832805
                },
                {
                    "name": "G#4",
                    "midi": 68,
                    "time": 259.06732928125,
                    "velocity": 0.7874015748031497,
                    "duration": 0.18269232291663684
                },
                {
                    "name": "G4",
                    "midi": 67,
                    "time": 259.22117544791666,
                    "velocity": 0.7874015748031497,
                    "duration": 0.18269232291669368
                },
                {
                    "name": "F4",
                    "midi": 65,
                    "time": 259.384637,
                    "velocity": 0.7874015748031497,
                    "duration": 0.18269232291669368
                },
                {
                    "name": "G#5",
                    "midi": 80,
                    "time": 259.384637,
                    "velocity": 0.7874015748031497,
                    "duration": 0.4519231145833942
                },
                {
                    "name": "G#4",
                    "midi": 68,
                    "time": 259.5384831666667,
                    "velocity": 0.7874015748031497,
                    "duration": 0.18269232291669368
                },
                {
                    "name": "C5",
                    "midi": 72,
                    "time": 259.70194471875004,
                    "velocity": 0.7874015748031497,
                    "duration": 0.18269232291669368
                },
                {
                    "name": "F5",
                    "midi": 77,
                    "time": 259.8461755000001,
                    "velocity": 0.7874015748031497,
                    "duration": 0.30769233333330703
                },
                {
                    "name": "D5",
                    "midi": 74,
                    "time": 260.30771400000003,
                    "velocity": 0.7874015748031497,
                    "duration": 0.45192311458333734
                },
                {
                    "name": "G#4",
                    "midi": 68,
                    "time": 260.76925250000005,
                    "velocity": 0.7874015748031497,
                    "duration": 0.18269232291663684
                },
                {
                    "name": "A#4",
                    "midi": 70,
                    "time": 260.76925250000005,
                    "velocity": 0.7874015748031497,
                    "duration": 0.4519231145832805
                },
                {
                    "name": "G4",
                    "midi": 67,
                    "time": 260.91348328125,
                    "velocity": 0.7874015748031497,
                    "duration": 0.18269232291663684
                },
                {
                    "name": "F4",
                    "midi": 65,
                    "time": 261.0673294479167,
                    "velocity": 0.7874015748031497,
                    "duration": 0.18269232291669368
                },
                {
                    "name": "D#4",
                    "midi": 63,
                    "time": 261.230791,
                    "velocity": 0.7874015748031497,
                    "duration": 0.18269232291669368
                },
                {
                    "name": "G5",
                    "midi": 79,
                    "time": 261.230791,
                    "velocity": 0.7874015748031497,
                    "duration": 0.4519231145833942
                },
                {
                    "name": "G4",
                    "midi": 67,
                    "time": 261.3846371666667,
                    "velocity": 0.7874015748031497,
                    "duration": 0.18269232291669368
                },
                {
                    "name": "A#4",
                    "midi": 70,
                    "time": 261.54809871875005,
                    "velocity": 0.7874015748031497,
                    "duration": 0.18269232291669368
                },
                {
                    "name": "D#5",
                    "midi": 75,
                    "time": 261.6923295000001,
                    "velocity": 0.7874015748031497,
                    "duration": 0.30769233333330703
                },
                {
                    "name": "C5",
                    "midi": 72,
                    "time": 262.15386800000005,
                    "velocity": 0.7874015748031497,
                    "duration": 0.211538479166677
                },
                {
                    "name": "F4",
                    "midi": 65,
                    "time": 262.47117571875003,
                    "velocity": 0.7874015748031497,
                    "duration": 0.21153847916662016
                },
                {
                    "name": "A#4",
                    "midi": 70,
                    "time": 262.6154065,
                    "velocity": 0.7874015748031497,
                    "duration": 0.21153847916662016
                },
                {
                    "name": "E4",
                    "midi": 64,
                    "time": 262.91348344791663,
                    "velocity": 0.7874015748031497,
                    "duration": 0.211538479166677
                },
                {
                    "name": "G#4",
                    "midi": 68,
                    "time": 263.07694499999997,
                    "velocity": 0.7874015748031497,
                    "duration": 0.211538479166677
                },
                {
                    "name": "D4",
                    "midi": 62,
                    "time": 263.39425271874995,
                    "velocity": 0.7874015748031497,
                    "duration": 0.21153847916662016
                },
                {
                    "name": "G4",
                    "midi": 67,
                    "time": 263.5384834999999,
                    "velocity": 0.7874015748031497,
                    "duration": 0.21153847916662016
                },
                {
                    "name": "C4",
                    "midi": 60,
                    "time": 263.83656044791655,
                    "velocity": 0.7874015748031497,
                    "duration": 0.211538479166677
                },
                {
                    "name": "F#4",
                    "midi": 66,
                    "time": 264.0000219999999,
                    "velocity": 0.7874015748031497,
                    "duration": 0.211538479166677
                },
                {
                    "name": "C5",
                    "midi": 72,
                    "time": 264.3173297187499,
                    "velocity": 0.7874015748031497,
                    "duration": 0.21153847916662016
                },
                {
                    "name": "F#4",
                    "midi": 66,
                    "time": 264.46156049999985,
                    "velocity": 0.7874015748031497,
                    "duration": 0.21153847916662016
                },
                {
                    "name": "C4",
                    "midi": 60,
                    "time": 264.7596374479165,
                    "velocity": 0.7874015748031497,
                    "duration": 0.211538479166677
                },
                {
                    "name": "F#4",
                    "midi": 66,
                    "time": 264.9230989999998,
                    "velocity": 0.7874015748031497,
                    "duration": 0.211538479166677
                },
                {
                    "name": "C5",
                    "midi": 72,
                    "time": 265.2404067187498,
                    "velocity": 0.7874015748031497,
                    "duration": 0.21153847916662016
                },
                {
                    "name": "F#4",
                    "midi": 66,
                    "time": 265.38463749999977,
                    "velocity": 0.7874015748031497,
                    "duration": 0.21153847916662016
                },
                {
                    "name": "C4",
                    "midi": 60,
                    "time": 265.6827144479164,
                    "velocity": 0.7874015748031497,
                    "duration": 0.211538479166677
                },
                {
                    "name": "D#4",
                    "midi": 63,
                    "time": 265.84617599999973,
                    "velocity": 0.7874015748031497,
                    "duration": 0.18269232291663684
                },
                {
                    "name": "G4",
                    "midi": 67,
                    "time": 266.0000221666664,
                    "velocity": 0.7874015748031497,
                    "duration": 0.18269232291669368
                },
                {
                    "name": "G#4",
                    "midi": 68,
                    "time": 266.1634837187497,
                    "velocity": 0.7874015748031497,
                    "duration": 0.18269232291669368
                },
                {
                    "name": "A4",
                    "midi": 69,
                    "time": 266.30771449999975,
                    "velocity": 0.7874015748031497,
                    "duration": 0.18269232291663684
                },
                {
                    "name": "A#4",
                    "midi": 70,
                    "time": 266.4519452812497,
                    "velocity": 0.7874015748031497,
                    "duration": 0.18269232291663684
                },
                {
                    "name": "B4",
                    "midi": 71,
                    "time": 266.6057914479164,
                    "velocity": 0.7874015748031497,
                    "duration": 0.18269232291669368
                },
                {
                    "name": "C5",
                    "midi": 72,
                    "time": 266.7692529999997,
                    "velocity": 0.7874015748031497,
                    "duration": 0.18269232291669368
                },
                {
                    "name": "D5",
                    "midi": 74,
                    "time": 266.9230991666664,
                    "velocity": 0.7874015748031497,
                    "duration": 0.18269232291669368
                },
                {
                    "name": "D#5",
                    "midi": 75,
                    "time": 267.08656071874975,
                    "velocity": 0.7874015748031497,
                    "duration": 0.18269232291669368
                },
                {
                    "name": "E5",
                    "midi": 76,
                    "time": 267.2307914999998,
                    "velocity": 0.7874015748031497,
                    "duration": 0.18269232291663684
                },
                {
                    "name": "F5",
                    "midi": 77,
                    "time": 267.37502228124976,
                    "velocity": 0.7874015748031497,
                    "duration": 0.18269232291663684
                },
                {
                    "name": "F#5",
                    "midi": 78,
                    "time": 267.5288684479164,
                    "velocity": 0.7874015748031497,
                    "duration": 0.18269232291669368
                },
                {
                    "name": "G5",
                    "midi": 79,
                    "time": 267.69232999999974,
                    "velocity": 0.7874015748031497,
                    "duration": 0.18269232291669368
                },
                {
                    "name": "D5",
                    "midi": 74,
                    "time": 267.84617616666645,
                    "velocity": 0.7874015748031497,
                    "duration": 0.18269232291669368
                },
                {
                    "name": "B4",
                    "midi": 71,
                    "time": 268.0096377187498,
                    "velocity": 0.7874015748031497,
                    "duration": 0.18269232291669368
                },
                {
                    "name": "G4",
                    "midi": 67,
                    "time": 268.1538684999998,
                    "velocity": 0.7874015748031497,
                    "duration": 0.18269232291663684
                },
                {
                    "name": "D4",
                    "midi": 62,
                    "time": 268.2980992812498,
                    "velocity": 0.7874015748031497,
                    "duration": 0.18269232291663684
                },
                {
                    "name": "B3",
                    "midi": 59,
                    "time": 268.45194544791644,
                    "velocity": 0.7874015748031497,
                    "duration": 0.18269232291669368
                },
                {
                    "name": "G3",
                    "midi": 55,
                    "time": 268.6154069999998,
                    "velocity": 0.7874015748031497,
                    "duration": 0.45192311458333734
                },
                {
                    "name": "C6",
                    "midi": 84,
                    "time": 269.53848399999976,
                    "velocity": 0.7874015748031497,
                    "duration": 0.22115386458330022
                },
                {
                    "name": "G5",
                    "midi": 79,
                    "time": 269.6923301666664,
                    "velocity": 0.7874015748031497,
                    "duration": 0.22115386458330022
                },
                {
                    "name": "D#5",
                    "midi": 75,
                    "time": 269.84617633333306,
                    "velocity": 0.7874015748031497,
                    "duration": 0.22115386458330022
                },
                {
                    "name": "C5",
                    "midi": 72,
                    "time": 270.0000224999997,
                    "velocity": 0.7874015748031497,
                    "duration": 0.22115386458330022
                },
                {
                    "name": "G4",
                    "midi": 67,
                    "time": 270.1442532812497,
                    "velocity": 0.7874015748031497,
                    "duration": 0.22115386458330022
                },
                {
                    "name": "D#4",
                    "midi": 63,
                    "time": 270.29809944791634,
                    "velocity": 0.7874015748031497,
                    "duration": 0.22115386458335706
                },
                {
                    "name": "C4",
                    "midi": 60,
                    "time": 270.4615609999997,
                    "velocity": 0.7874015748031497,
                    "duration": 0.3076923333333639
                },
                {
                    "name": "C6",
                    "midi": 84,
                    "time": 270.9230994999997,
                    "velocity": 0.7874015748031497,
                    "duration": 0.45192311458333734
                },
                {
                    "name": "G5",
                    "midi": 79,
                    "time": 270.9230994999997,
                    "velocity": 0.7874015748031497,
                    "duration": 0.45192311458333734
                },
                {
                    "name": "D#5",
                    "midi": 75,
                    "time": 270.9230994999997,
                    "velocity": 0.7874015748031497,
                    "duration": 0.45192311458333734
                },
                {
                    "name": "D#5",
                    "midi": 75,
                    "time": 271.3846379999997,
                    "velocity": 0.7874015748031497,
                    "duration": 0.45192311458333734
                },
                {
                    "name": "G5",
                    "midi": 79,
                    "time": 271.3846379999997,
                    "velocity": 0.7874015748031497,
                    "duration": 0.45192311458333734
                },
                {
                    "name": "C6",
                    "midi": 84,
                    "time": 271.3846379999997,
                    "velocity": 0.7874015748031497,
                    "duration": 0.45192311458333734
                },
                {
                    "name": "B5",
                    "midi": 83,
                    "time": 271.84617649999973,
                    "velocity": 0.7874015748031497,
                    "duration": 0.30769233333330703
                },
                {
                    "name": "D5",
                    "midi": 74,
                    "time": 271.84617649999973,
                    "velocity": 0.7874015748031497,
                    "duration": 0.30769233333330703
                },
                {
                    "name": "G5",
                    "midi": 79,
                    "time": 272.269253458333,
                    "velocity": 0.7874015748031497,
                    "duration": 0.2980769479166838
                },
                {
                    "name": "F5",
                    "midi": 77,
                    "time": 272.3942534687497,
                    "velocity": 0.7874015748031497,
                    "duration": 0.08653846875000681
                },
                {
                    "name": "G5",
                    "midi": 79,
                    "time": 272.4807919374997,
                    "velocity": 0.7874015748031497,
                    "duration": 0.24038463541666033
                },
                {
                    "name": "F5",
                    "midi": 77,
                    "time": 272.55771502083303,
                    "velocity": 0.7874015748031497,
                    "duration": 0.08653846875000681
                },
                {
                    "name": "G5",
                    "midi": 79,
                    "time": 272.63463810416636,
                    "velocity": 0.7874015748031497,
                    "duration": 0.2500000208333404
                },
                {
                    "name": "F5",
                    "midi": 77,
                    "time": 272.72117657291636,
                    "velocity": 0.7874015748031497,
                    "duration": 0.08653846875000681
                },
                {
                    "name": "G5",
                    "midi": 79,
                    "time": 272.7980996562497,
                    "velocity": 0.7874015748031497,
                    "duration": 0.08653846875000681
                },
                {
                    "name": "F5",
                    "midi": 77,
                    "time": 272.875022739583,
                    "velocity": 0.7874015748031497,
                    "duration": 0.08653846875000681
                },
                {
                    "name": "E5",
                    "midi": 76,
                    "time": 272.95194582291634,
                    "velocity": 0.7874015748031497,
                    "duration": 0.11538462499999014
                },
                {
                    "name": "F5",
                    "midi": 77,
                    "time": 273.06733044791633,
                    "velocity": 0.7874015748031497,
                    "duration": 0.11538462499999014
                },
                {
                    "name": "A#5",
                    "midi": 82,
                    "time": 273.23079199999967,
                    "velocity": 0.7874015748031497,
                    "duration": 0.22115386458330022
                },
                {
                    "name": "G5",
                    "midi": 79,
                    "time": 273.3846381666663,
                    "velocity": 0.7874015748031497,
                    "duration": 0.22115386458330022
                },
                {
                    "name": "E5",
                    "midi": 76,
                    "time": 273.538484333333,
                    "velocity": 0.7874015748031497,
                    "duration": 0.22115386458330022
                },
                {
                    "name": "C5",
                    "midi": 72,
                    "time": 273.6923304999996,
                    "velocity": 0.7874015748031497,
                    "duration": 0.22115386458330022
                },
                {
                    "name": "G4",
                    "midi": 67,
                    "time": 273.8365612812496,
                    "velocity": 0.7874015748031497,
                    "duration": 0.22115386458330022
                },
                {
                    "name": "E4",
                    "midi": 64,
                    "time": 273.99040744791625,
                    "velocity": 0.7874015748031497,
                    "duration": 0.22115386458335706
                },
                {
                    "name": "C4",
                    "midi": 60,
                    "time": 274.1538689999996,
                    "velocity": 0.7874015748031497,
                    "duration": 0.3076923333333639
                },
                {
                    "name": "A#5",
                    "midi": 82,
                    "time": 274.6154074999996,
                    "velocity": 0.7874015748031497,
                    "duration": 0.45192311458333734
                },
                {
                    "name": "G5",
                    "midi": 79,
                    "time": 274.6154074999996,
                    "velocity": 0.7874015748031497,
                    "duration": 0.45192311458333734
                },
                {
                    "name": "C5",
                    "midi": 72,
                    "time": 274.6154074999996,
                    "velocity": 0.7874015748031497,
                    "duration": 0.45192311458333734
                },
                {
                    "name": "A#5",
                    "midi": 82,
                    "time": 275.0769459999996,
                    "velocity": 0.7874015748031497,
                    "duration": 0.45192311458333734
                },
                {
                    "name": "C5",
                    "midi": 72,
                    "time": 275.0769459999996,
                    "velocity": 0.7874015748031497,
                    "duration": 0.45192311458333734
                },
                {
                    "name": "G5",
                    "midi": 79,
                    "time": 275.0769459999996,
                    "velocity": 0.7874015748031497,
                    "duration": 0.45192311458333734
                },
                {
                    "name": "A5",
                    "midi": 81,
                    "time": 275.53848449999964,
                    "velocity": 0.7874015748031497,
                    "duration": 0.30769233333330703
                },
                {
                    "name": "F5",
                    "midi": 77,
                    "time": 275.53848449999964,
                    "velocity": 0.7874015748031497,
                    "duration": 0.30769233333330703
                },
                {
                    "name": "D5",
                    "midi": 74,
                    "time": 275.96156145833294,
                    "velocity": 0.7874015748031497,
                    "duration": 0.17307693750001363
                },
                {
                    "name": "C5",
                    "midi": 72,
                    "time": 276.0865614687496,
                    "velocity": 0.7874015748031497,
                    "duration": 0.08653846875000681
                },
                {
                    "name": "D5",
                    "midi": 74,
                    "time": 276.1730999374996,
                    "velocity": 0.7874015748031497,
                    "duration": 0.08653846875000681
                },
                {
                    "name": "C5",
                    "midi": 72,
                    "time": 276.25002302083294,
                    "velocity": 0.7874015748031497,
                    "duration": 0.08653846875000681
                },
                {
                    "name": "D5",
                    "midi": 74,
                    "time": 276.32694610416627,
                    "velocity": 0.7874015748031497,
                    "duration": 0.08653846875000681
                },
                {
                    "name": "C5",
                    "midi": 72,
                    "time": 276.4134845729163,
                    "velocity": 0.7874015748031497,
                    "duration": 0.08653846875000681
                },
                {
                    "name": "D5",
                    "midi": 74,
                    "time": 276.4904076562496,
                    "velocity": 0.7874015748031497,
                    "duration": 0.08653846875000681
                },
                {
                    "name": "C5",
                    "midi": 72,
                    "time": 276.5673307395829,
                    "velocity": 0.7874015748031497,
                    "duration": 0.08653846875000681
                },
                {
                    "name": "B4",
                    "midi": 71,
                    "time": 276.64425382291626,
                    "velocity": 0.7874015748031497,
                    "duration": 0.11538462499999014
                },
                {
                    "name": "C5",
                    "midi": 72,
                    "time": 276.75963844791625,
                    "velocity": 0.7874015748031497,
                    "duration": 0.11538462499999014
                },
                {
                    "name": "G#5",
                    "midi": 80,
                    "time": 276.9230999999996,
                    "velocity": 0.7874015748031497,
                    "duration": 0.18269232291663684
                },
                {
                    "name": "F5",
                    "midi": 77,
                    "time": 277.07694616666623,
                    "velocity": 0.7874015748031497,
                    "duration": 0.18269232291669368
                },
                {
                    "name": "D5",
                    "midi": 74,
                    "time": 277.24040771874957,
                    "velocity": 0.7874015748031497,
                    "duration": 0.18269232291669368
                },
                {
                    "name": "B4",
                    "midi": 71,
                    "time": 277.3846384999996,
                    "velocity": 0.7874015748031497,
                    "duration": 0.18269232291663684
                },
                {
                    "name": "F4",
                    "midi": 65,
                    "time": 277.52886928124957,
                    "velocity": 0.7874015748031497,
                    "duration": 0.18269232291663684
                },
                {
                    "name": "D4",
                    "midi": 62,
                    "time": 277.6827154479162,
                    "velocity": 0.7874015748031497,
                    "duration": 0.18269232291669368
                },
                {
                    "name": "B3",
                    "midi": 59,
                    "time": 277.84617699999956,
                    "velocity": 0.7874015748031497,
                    "duration": 0.18269232291669368
                },
                {
                    "name": "D4",
                    "midi": 62,
                    "time": 278.00002316666627,
                    "velocity": 0.7874015748031497,
                    "duration": 0.18269232291669368
                },
                {
                    "name": "F4",
                    "midi": 65,
                    "time": 278.1634847187496,
                    "velocity": 0.7874015748031497,
                    "duration": 0.18269232291669368
                },
                {
                    "name": "G#4",
                    "midi": 68,
                    "time": 278.30771549999963,
                    "velocity": 0.7874015748031497,
                    "duration": 0.18269232291663684
                },
                {
                    "name": "B4",
                    "midi": 71,
                    "time": 278.4519462812496,
                    "velocity": 0.7874015748031497,
                    "duration": 0.18269232291663684
                },
                {
                    "name": "D5",
                    "midi": 74,
                    "time": 278.60579244791626,
                    "velocity": 0.7874015748031497,
                    "duration": 0.18269232291669368
                },
                {
                    "name": "F5",
                    "midi": 77,
                    "time": 278.7692539999996,
                    "velocity": 0.7874015748031497,
                    "duration": 0.18269232291669368
                },
                {
                    "name": "D5",
                    "midi": 74,
                    "time": 278.9231001666663,
                    "velocity": 0.7874015748031497,
                    "duration": 0.18269232291669368
                },
                {
                    "name": "B4",
                    "midi": 71,
                    "time": 279.08656171874964,
                    "velocity": 0.7874015748031497,
                    "duration": 0.18269232291669368
                },
                {
                    "name": "G4",
                    "midi": 67,
                    "time": 279.23079249999967,
                    "velocity": 0.7874015748031497,
                    "duration": 0.18269232291663684
                },
                {
                    "name": "D4",
                    "midi": 62,
                    "time": 279.37502328124964,
                    "velocity": 0.7874015748031497,
                    "duration": 0.18269232291663684
                },
                {
                    "name": "B3",
                    "midi": 59,
                    "time": 279.5288694479163,
                    "velocity": 0.7874015748031497,
                    "duration": 0.18269232291669368
                },
                {
                    "name": "G3",
                    "midi": 55,
                    "time": 279.6923309999996,
                    "velocity": 0.7874015748031497,
                    "duration": 0.3076923333333639
                },
                {
                    "name": "G5",
                    "midi": 79,
                    "time": 280.15386949999964,
                    "velocity": 0.7874015748031497,
                    "duration": 0.4615385000000174
                },
                {
                    "name": "C5",
                    "midi": 72,
                    "time": 280.61540799999966,
                    "velocity": 0.7874015748031497,
                    "duration": 0.07692308333332676
                },
                {
                    "name": "B4",
                    "midi": 71,
                    "time": 280.6538695416663,
                    "velocity": 0.7874015748031497,
                    "duration": 0.07692308333332676
                },
                {
                    "name": "C5",
                    "midi": 72,
                    "time": 280.70194646874967,
                    "velocity": 0.7874015748031497,
                    "duration": 0.211538479166677
                },
                {
                    "name": "D5",
                    "midi": 74,
                    "time": 280.91348494791634,
                    "velocity": 0.7874015748031497,
                    "duration": 0.08653846875000681
                },
                {
                    "name": "C5",
                    "midi": 72,
                    "time": 280.9904080312497,
                    "velocity": 0.7874015748031497,
                    "duration": 0.08653846875000681
                },
                {
                    "name": "B4",
                    "midi": 71,
                    "time": 281.067331114583,
                    "velocity": 0.7874015748031497,
                    "duration": 0.08653846875000681
                },
                {
                    "name": "C5",
                    "midi": 72,
                    "time": 281.11540804166634,
                    "velocity": 0.7874015748031497,
                    "duration": 0.35576926041665047
                },
                {
                    "name": "D5",
                    "midi": 74,
                    "time": 281.42310037499965,
                    "velocity": 0.7874015748031497,
                    "duration": 0.09615385416668687
                },
                {
                    "name": "D#5",
                    "midi": 75,
                    "time": 281.5384849999997,
                    "velocity": 0.8267716535433071,
                    "duration": 0.09615385416668687
                },
                {
                    "name": "B4",
                    "midi": 71,
                    "time": 281.5384849999997,
                    "velocity": 0.7874015748031497,
                    "duration": 0.9134616145834116
                },
                {
                    "name": "D5",
                    "midi": 74,
                    "time": 281.615408083333,
                    "velocity": 0.7874015748031497,
                    "duration": 0.09615385416668687
                },
                {
                    "name": "D#5",
                    "midi": 75,
                    "time": 281.70194655208303,
                    "velocity": 0.7874015748031497,
                    "duration": 0.09615385416668687
                },
                {
                    "name": "D5",
                    "midi": 74,
                    "time": 281.78848502083304,
                    "velocity": 0.7874015748031497,
                    "duration": 0.09615385416668687
                },
                {
                    "name": "D#5",
                    "midi": 75,
                    "time": 281.87502348958304,
                    "velocity": 0.7874015748031497,
                    "duration": 0.09615385416668687
                },
                {
                    "name": "D5",
                    "midi": 74,
                    "time": 281.96156195833305,
                    "velocity": 0.7874015748031497,
                    "duration": 0.09615385416668687
                },
                {
                    "name": "D#5",
                    "midi": 75,
                    "time": 282.04810042708306,
                    "velocity": 0.7874015748031497,
                    "duration": 0.09615385416668687
                },
                {
                    "name": "D5",
                    "midi": 74,
                    "time": 282.13463889583306,
                    "velocity": 0.7874015748031497,
                    "duration": 0.21153847916673385
                },
                {
                    "name": "C5",
                    "midi": 72,
                    "time": 282.32694660416644,
                    "velocity": 0.7874015748031497,
                    "duration": 0.09615385416668687
                },
                {
                    "name": "C5",
                    "midi": 72,
                    "time": 282.4615619999998,
                    "velocity": 0.7874015748031497,
                    "duration": 0.22115386458330022
                },
                {
                    "name": "B4",
                    "midi": 71,
                    "time": 282.61540816666644,
                    "velocity": 0.7874015748031497,
                    "duration": 0.17307693750001363
                },
                {
                    "name": "D5",
                    "midi": 74,
                    "time": 282.7788697187498,
                    "velocity": 0.7874015748031497,
                    "duration": 0.17307693750001363
                },
                {
                    "name": "G#4",
                    "midi": 68,
                    "time": 282.9231004999998,
                    "velocity": 0.7874015748031497,
                    "duration": 0.22115386458330022
                },
                {
                    "name": "G4",
                    "midi": 67,
                    "time": 283.0673312812498,
                    "velocity": 0.7874015748031497,
                    "duration": 0.17307693750001363
                },
                {
                    "name": "A#4",
                    "midi": 70,
                    "time": 283.22117744791643,
                    "velocity": 0.7874015748031497,
                    "duration": 0.17307693750001363
                },
                {
                    "name": "F4",
                    "midi": 65,
                    "time": 283.38463899999977,
                    "velocity": 0.7874015748031497,
                    "duration": 0.17307693750001363
                },
                {
                    "name": "E4",
                    "midi": 64,
                    "time": 283.5384851666664,
                    "velocity": 0.7874015748031497,
                    "duration": 0.17307693750001363
                },
                {
                    "name": "G4",
                    "midi": 67,
                    "time": 283.70194671874975,
                    "velocity": 0.7874015748031497,
                    "duration": 0.17307693750001363
                },
                {
                    "name": "C#4",
                    "midi": 61,
                    "time": 283.8461774999998,
                    "velocity": 0.7874015748031497,
                    "duration": 0.22115386458330022
                },
                {
                    "name": "C4",
                    "midi": 60,
                    "time": 283.99040828124976,
                    "velocity": 0.7874015748031497,
                    "duration": 0.17307693750001363
                },
                {
                    "name": "A#4",
                    "midi": 70,
                    "time": 284.1442544479164,
                    "velocity": 0.7874015748031497,
                    "duration": 0.13461539583335025
                },
                {
                    "name": "A#4",
                    "midi": 70,
                    "time": 284.30771599999974,
                    "velocity": 0.7874015748031497,
                    "duration": 0.22115386458330022
                },
                {
                    "name": "A4",
                    "midi": 69,
                    "time": 284.4615621666664,
                    "velocity": 0.7874015748031497,
                    "duration": 0.17307693750001363
                },
                {
                    "name": "C5",
                    "midi": 72,
                    "time": 284.62502371874973,
                    "velocity": 0.7874015748031497,
                    "duration": 0.17307693750001363
                },
                {
                    "name": "F#4",
                    "midi": 66,
                    "time": 284.76925449999976,
                    "velocity": 0.7874015748031497,
                    "duration": 0.22115386458330022
                },
                {
                    "name": "F4",
                    "midi": 65,
                    "time": 284.91348528124973,
                    "velocity": 0.7874015748031497,
                    "duration": 0.17307693750001363
                },
                {
                    "name": "G#4",
                    "midi": 68,
                    "time": 285.0673314479164,
                    "velocity": 0.7874015748031497,
                    "duration": 0.17307693750001363
                },
                {
                    "name": "D#4",
                    "midi": 63,
                    "time": 285.2307929999997,
                    "velocity": 0.7874015748031497,
                    "duration": 0.22115386458330022
                },
                {
                    "name": "D4",
                    "midi": 62,
                    "time": 285.3846391666664,
                    "velocity": 0.7874015748031497,
                    "duration": 0.17307693750001363
                },
                {
                    "name": "F4",
                    "midi": 65,
                    "time": 285.5481007187497,
                    "velocity": 0.7874015748031497,
                    "duration": 0.17307693750001363
                },
                {
                    "name": "B3",
                    "midi": 59,
                    "time": 285.69233149999974,
                    "velocity": 0.7874015748031497,
                    "duration": 0.22115386458330022
                },
                {
                    "name": "A#3",
                    "midi": 58,
                    "time": 285.8365622812497,
                    "velocity": 0.7874015748031497,
                    "duration": 0.17307693750001363
                },
                {
                    "name": "G#4",
                    "midi": 68,
                    "time": 285.99040844791637,
                    "velocity": 0.7874015748031497,
                    "duration": 0.1442307812500303
                },
                {
                    "name": "G#4",
                    "midi": 68,
                    "time": 286.15386999999976,
                    "velocity": 0.7874015748031497,
                    "duration": 0.22115386458330022
                },
                {
                    "name": "G4",
                    "midi": 67,
                    "time": 286.3077161666664,
                    "velocity": 0.7874015748031497,
                    "duration": 0.17307693750001363
                },
                {
                    "name": "A#4",
                    "midi": 70,
                    "time": 286.47117771874974,
                    "velocity": 0.7874015748031497,
                    "duration": 0.17307693750001363
                },
                {
                    "name": "E4",
                    "midi": 64,
                    "time": 286.6154084999998,
                    "velocity": 0.7874015748031497,
                    "duration": 0.22115386458330022
                },
                {
                    "name": "D#4",
                    "midi": 63,
                    "time": 286.75963928124975,
                    "velocity": 0.7874015748031497,
                    "duration": 0.17307693750001363
                },
                {
                    "name": "G4",
                    "midi": 67,
                    "time": 286.9134854479164,
                    "velocity": 0.7874015748031497,
                    "duration": 0.17307693750001363
                },
                {
                    "name": "C#4",
                    "midi": 61,
                    "time": 287.07694699999973,
                    "velocity": 0.7874015748031497,
                    "duration": 0.22115386458330022
                },
                {
                    "name": "C4",
                    "midi": 60,
                    "time": 287.2307931666664,
                    "velocity": 0.7874015748031497,
                    "duration": 0.17307693750001363
                },
                {
                    "name": "D#4",
                    "midi": 63,
                    "time": 287.3942547187497,
                    "velocity": 0.7874015748031497,
                    "duration": 0.17307693750001363
                },
                {
                    "name": "A#3",
                    "midi": 58,
                    "time": 287.53848549999975,
                    "velocity": 0.7874015748031497,
                    "duration": 0.22115386458330022
                },
                {
                    "name": "A3",
                    "midi": 57,
                    "time": 287.6827162812497,
                    "velocity": 0.7874015748031497,
                    "duration": 0.17307693750001363
                },
                {
                    "name": "F#4",
                    "midi": 66,
                    "time": 287.8365624479164,
                    "velocity": 0.7874015748031497,
                    "duration": 0.1442307812500303
                },
                {
                    "name": "F#4",
                    "midi": 66,
                    "time": 288.00002399999977,
                    "velocity": 0.7874015748031497,
                    "duration": 0.45192311458333734
                },
                {
                    "name": "G4",
                    "midi": 67,
                    "time": 288.4615624999998,
                    "velocity": 0.7874015748031497,
                    "duration": 0.625000052083351
                },
                {
                    "name": "A4",
                    "midi": 69,
                    "time": 289.07694716666646,
                    "velocity": 0.7874015748031497,
                    "duration": 0.18269232291669368
                },
                {
                    "name": "B4",
                    "midi": 71,
                    "time": 289.2404087187498,
                    "velocity": 0.7874015748031497,
                    "duration": 0.18269232291669368
                },
                {
                    "name": "C5",
                    "midi": 72,
                    "time": 289.3846394999998,
                    "velocity": 0.7874015748031497,
                    "duration": 0.18269232291663684
                },
                {
                    "name": "D5",
                    "midi": 74,
                    "time": 289.5288702812498,
                    "velocity": 0.7874015748031497,
                    "duration": 0.18269232291663684
                },
                {
                    "name": "D#5",
                    "midi": 75,
                    "time": 289.68271644791645,
                    "velocity": 0.7874015748031497,
                    "duration": 0.18269232291669368
                },
                {
                    "name": "F4",
                    "midi": 65,
                    "time": 289.8461779999998,
                    "velocity": 0.7874015748031497,
                    "duration": 0.18269232291669368
                },
                {
                    "name": "D#5",
                    "midi": 75,
                    "time": 290.0000241666665,
                    "velocity": 0.7874015748031497,
                    "duration": 0.18269232291669368
                },
                {
                    "name": "D5",
                    "midi": 74,
                    "time": 290.1634857187498,
                    "velocity": 0.7874015748031497,
                    "duration": 0.18269232291669368
                },
                {
                    "name": "F5",
                    "midi": 77,
                    "time": 290.30771649999986,
                    "velocity": 0.7874015748031497,
                    "duration": 0.18269232291663684
                },
                {
                    "name": "D#5",
                    "midi": 75,
                    "time": 290.45194728124983,
                    "velocity": 0.7874015748031497,
                    "duration": 0.18269232291663684
                },
                {
                    "name": "D5",
                    "midi": 74,
                    "time": 290.6057934479165,
                    "velocity": 0.7874015748031497,
                    "duration": 0.18269232291669368
                },
                {
                    "name": "D#5",
                    "midi": 75,
                    "time": 290.7692549999998,
                    "velocity": 0.7874015748031497,
                    "duration": 0.18269232291669368
                },
                {
                    "name": "D5",
                    "midi": 74,
                    "time": 290.9231011666665,
                    "velocity": 0.7874015748031497,
                    "duration": 0.18269232291669368
                },
                {
                    "name": "C5",
                    "midi": 72,
                    "time": 291.08656271874986,
                    "velocity": 0.7874015748031497,
                    "duration": 0.18269232291669368
                },
                {
                    "name": "D5",
                    "midi": 74,
                    "time": 291.2307934999999,
                    "velocity": 0.7874015748031497,
                    "duration": 0.18269232291663684
                },
                {
                    "name": "C5",
                    "midi": 72,
                    "time": 291.37502428124986,
                    "velocity": 0.7874015748031497,
                    "duration": 0.18269232291663684
                },
                {
                    "name": "B4",
                    "midi": 71,
                    "time": 291.5288704479165,
                    "velocity": 0.7874015748031497,
                    "duration": 0.18269232291669368
                },
                {
                    "name": "C5",
                    "midi": 72,
                    "time": 291.69233199999985,
                    "velocity": 0.7874015748031497,
                    "duration": 0.18269232291669368
                },
                {
                    "name": "D5",
                    "midi": 74,
                    "time": 291.84617816666656,
                    "velocity": 0.7874015748031497,
                    "duration": 0.18269232291669368
                },
                {
                    "name": "D#5",
                    "midi": 75,
                    "time": 292.0096397187499,
                    "velocity": 0.7874015748031497,
                    "duration": 0.18269232291669368
                },
                {
                    "name": "F4",
                    "midi": 65,
                    "time": 292.1538704999999,
                    "velocity": 0.7874015748031497,
                    "duration": 0.18269232291663684
                },
                {
                    "name": "D#5",
                    "midi": 75,
                    "time": 292.2981012812499,
                    "velocity": 0.7874015748031497,
                    "duration": 0.18269232291663684
                },
                {
                    "name": "D5",
                    "midi": 74,
                    "time": 292.45194744791655,
                    "velocity": 0.7874015748031497,
                    "duration": 0.18269232291669368
                },
                {
                    "name": "D#4",
                    "midi": 63,
                    "time": 292.6154089999999,
                    "velocity": 0.7874015748031497,
                    "duration": 0.18269232291669368
                },
                {
                    "name": "D5",
                    "midi": 74,
                    "time": 292.7692551666666,
                    "velocity": 0.7874015748031497,
                    "duration": 0.18269232291669368
                },
                {
                    "name": "C5",
                    "midi": 72,
                    "time": 292.93271671874993,
                    "velocity": 0.7874015748031497,
                    "duration": 0.18269232291669368
                },
                {
                    "name": "D4",
                    "midi": 62,
                    "time": 293.07694749999996,
                    "velocity": 0.7874015748031497,
                    "duration": 0.18269232291663684
                },
                {
                    "name": "C5",
                    "midi": 72,
                    "time": 293.22117828124993,
                    "velocity": 0.7874015748031497,
                    "duration": 0.18269232291663684
                },
                {
                    "name": "B4",
                    "midi": 71,
                    "time": 293.3750244479166,
                    "velocity": 0.7874015748031497,
                    "duration": 0.18269232291669368
                },
                {
                    "name": "C5",
                    "midi": 72,
                    "time": 293.5384859999999,
                    "velocity": 0.7874015748031497,
                    "duration": 2.7596156145833675
                },
                {
                    "name": "G4",
                    "midi": 67,
                    "time": 293.69233216666663,
                    "velocity": 0.7874015748031497,
                    "duration": 2.605769447916657
                },
                {
                    "name": "D#4",
                    "midi": 63,
                    "time": 293.85579371874996,
                    "velocity": 0.7874015748031497,
                    "duration": 2.4423078958333235
                },
                {
                    "name": "C4",
                    "midi": 60,
                    "time": 294.00002449999994,
                    "velocity": 0.7874015748031497,
                    "duration": 2.29807711458335
                }
            ],
            "controlChanges": {
                "7": [
                    {
                        "number": 7,
                        "time": 0,
                        "value": 0.7874015748031497
                    }
                ],
                "10": [
                    {
                        "number": 10,
                        "time": 0,
                        "value": 0.4251968503937008
                    }
                ],
                "32": [
                    {
                        "number": 32,
                        "time": 0,
                        "value": 0
                    }
                ]
            },
            "id": 1,
            "name": "J.S. Bach: Fantasia, BWV 906 (part 1)",
            "instrumentNumber": 6,
            "instrument": "harpsichord",
            "instrumentFamily": "piano",
            "channelNumber": 0,
            "isPercussion": false
        },
        {
            "startTime": 0,
            "duration": 296.29810161458437,
            "length": 1086,
            "notes": [
                {
                    "name": "C2",
                    "midi": 36,
                    "time": 0,
                    "velocity": 0.7874015748031497,
                    "duration": 0.4519231145833333
                },
                {
                    "name": "C3",
                    "midi": 48,
                    "time": 0.46153849999999996,
                    "velocity": 0.7874015748031497,
                    "duration": 0.45192311458333323
                },
                {
                    "name": "G3",
                    "midi": 55,
                    "time": 1.0769231666666665,
                    "velocity": 0.7874015748031497,
                    "duration": 0.15384616666666662
                },
                {
                    "name": "F3",
                    "midi": 53,
                    "time": 1.2307693333333332,
                    "velocity": 0.7874015748031497,
                    "duration": 0.15384616666666662
                },
                {
                    "name": "D#3",
                    "midi": 51,
                    "time": 1.3846154999999998,
                    "velocity": 0.7874015748031497,
                    "duration": 0.15384616666666684
                },
                {
                    "name": "D3",
                    "midi": 50,
                    "time": 1.5288462812499999,
                    "velocity": 0.7874015748031497,
                    "duration": 0.15384616666666684
                },
                {
                    "name": "C3",
                    "midi": 48,
                    "time": 1.6826924479166667,
                    "velocity": 0.7874015748031497,
                    "duration": 0.15384616666666662
                },
                {
                    "name": "G3",
                    "midi": 55,
                    "time": 1.846154,
                    "velocity": 0.7874015748031497,
                    "duration": 0.11538462499999991
                },
                {
                    "name": "F#3",
                    "midi": 54,
                    "time": 1.93269246875,
                    "velocity": 0.7874015748031497,
                    "duration": 0.11538462499999991
                },
                {
                    "name": "G3",
                    "midi": 55,
                    "time": 2.0288463229166664,
                    "velocity": 0.7874015748031497,
                    "duration": 0.38461541666666665
                },
                {
                    "name": "G2",
                    "midi": 43,
                    "time": 2.3076925,
                    "velocity": 0.7874015748031497,
                    "duration": 0.30769233333333323
                },
                {
                    "name": "E2",
                    "midi": 40,
                    "time": 3.6923079999999997,
                    "velocity": 0.7874015748031497,
                    "duration": 0.4519231145833329
                },
                {
                    "name": "E3",
                    "midi": 52,
                    "time": 4.153846499999999,
                    "velocity": 0.7874015748031497,
                    "duration": 0.4519231145833329
                },
                {
                    "name": "G3",
                    "midi": 55,
                    "time": 4.769231166666666,
                    "velocity": 0.7874015748031497,
                    "duration": 0.15384616666666684
                },
                {
                    "name": "F3",
                    "midi": 53,
                    "time": 4.923077333333333,
                    "velocity": 0.7874015748031497,
                    "duration": 0.15384616666666684
                },
                {
                    "name": "E3",
                    "midi": 52,
                    "time": 5.0769234999999995,
                    "velocity": 0.7874015748031497,
                    "duration": 0.15384616666666684
                },
                {
                    "name": "D3",
                    "midi": 50,
                    "time": 5.22115428125,
                    "velocity": 0.7874015748031497,
                    "duration": 0.15384616666666684
                },
                {
                    "name": "C3",
                    "midi": 48,
                    "time": 5.375000447916666,
                    "velocity": 0.7874015748031497,
                    "duration": 0.15384616666666684
                },
                {
                    "name": "F3",
                    "midi": 53,
                    "time": 5.538462,
                    "velocity": 0.7874015748031497,
                    "duration": 0.11538462499999991
                },
                {
                    "name": "E3",
                    "midi": 52,
                    "time": 5.62500046875,
                    "velocity": 0.7874015748031497,
                    "duration": 0.11538462499999991
                },
                {
                    "name": "F3",
                    "midi": 53,
                    "time": 5.721154322916666,
                    "velocity": 0.7874015748031497,
                    "duration": 0.38461541666666665
                },
                {
                    "name": "F2",
                    "midi": 41,
                    "time": 6.0000005,
                    "velocity": 0.7874015748031497,
                    "duration": 0.3076923333333328
                },
                {
                    "name": "D2",
                    "midi": 38,
                    "time": 7.384615999999999,
                    "velocity": 0.7874015748031497,
                    "duration": 0.4519231145833329
                },
                {
                    "name": "D3",
                    "midi": 50,
                    "time": 7.846154499999999,
                    "velocity": 0.7874015748031497,
                    "duration": 0.4519231145833338
                },
                {
                    "name": "F3",
                    "midi": 53,
                    "time": 8.461539166666666,
                    "velocity": 0.7874015748031497,
                    "duration": 0.19230770833333288
                },
                {
                    "name": "D#3",
                    "midi": 51,
                    "time": 8.615385333333332,
                    "velocity": 0.7874015748031497,
                    "duration": 0.19230770833333466
                },
                {
                    "name": "D3",
                    "midi": 50,
                    "time": 8.7692315,
                    "velocity": 0.7874015748031497,
                    "duration": 0.19230770833333288
                },
                {
                    "name": "C3",
                    "midi": 48,
                    "time": 8.91346228125,
                    "velocity": 0.7874015748031497,
                    "duration": 0.19230770833333288
                },
                {
                    "name": "B2",
                    "midi": 47,
                    "time": 9.067308447916666,
                    "velocity": 0.7874015748031497,
                    "duration": 0.19230770833333288
                },
                {
                    "name": "D#3",
                    "midi": 51,
                    "time": 9.23077,
                    "velocity": 0.7874015748031497,
                    "duration": 0.19230770833333288
                },
                {
                    "name": "G2",
                    "midi": 43,
                    "time": 9.384616166666666,
                    "velocity": 0.7874015748031497,
                    "duration": 0.19230770833333466
                },
                {
                    "name": "A2",
                    "midi": 45,
                    "time": 9.538462333333333,
                    "velocity": 0.7874015748031497,
                    "duration": 0.19230770833333466
                },
                {
                    "name": "B2",
                    "midi": 47,
                    "time": 9.692308500000001,
                    "velocity": 0.7874015748031497,
                    "duration": 0.19230770833333288
                },
                {
                    "name": "C3",
                    "midi": 48,
                    "time": 9.836539281250001,
                    "velocity": 0.7874015748031497,
                    "duration": 0.19230770833333288
                },
                {
                    "name": "D3",
                    "midi": 50,
                    "time": 9.990385447916667,
                    "velocity": 0.7874015748031497,
                    "duration": 0.19230770833333288
                },
                {
                    "name": "D#3",
                    "midi": 51,
                    "time": 10.153847,
                    "velocity": 0.8661417322834646,
                    "duration": 0.21153847916666635
                },
                {
                    "name": "C3",
                    "midi": 48,
                    "time": 10.307693166666667,
                    "velocity": 0.7874015748031497,
                    "duration": 0.19230770833333466
                },
                {
                    "name": "D3",
                    "midi": 50,
                    "time": 10.461539333333334,
                    "velocity": 0.7874015748031497,
                    "duration": 0.19230770833333466
                },
                {
                    "name": "D#3",
                    "midi": 51,
                    "time": 10.615385500000002,
                    "velocity": 0.7874015748031497,
                    "duration": 0.19230770833333288
                },
                {
                    "name": "F3",
                    "midi": 53,
                    "time": 10.759616281250002,
                    "velocity": 0.7874015748031497,
                    "duration": 0.19230770833333288
                },
                {
                    "name": "G3",
                    "midi": 55,
                    "time": 10.913462447916668,
                    "velocity": 0.7874015748031497,
                    "duration": 0.19230770833333288
                },
                {
                    "name": "G#3",
                    "midi": 56,
                    "time": 11.076924000000002,
                    "velocity": 0.7874015748031497,
                    "duration": 0.451923114583332
                },
                {
                    "name": "G3",
                    "midi": 55,
                    "time": 11.5384625,
                    "velocity": 0.7874015748031497,
                    "duration": 0.4519231145833338
                },
                {
                    "name": "F3",
                    "midi": 53,
                    "time": 12.000001,
                    "velocity": 0.7874015748031497,
                    "duration": 0.4519231145833338
                },
                {
                    "name": "F#3",
                    "midi": 54,
                    "time": 12.461539499999999,
                    "velocity": 0.7874015748031497,
                    "duration": 0.4519231145833338
                },
                {
                    "name": "G3",
                    "midi": 55,
                    "time": 12.923077999999999,
                    "velocity": 0.7874015748031497,
                    "duration": 0.11538462499999902
                },
                {
                    "name": "F#3",
                    "midi": 54,
                    "time": 13.009616468749998,
                    "velocity": 0.7874015748031497,
                    "duration": 0.11538462499999902
                },
                {
                    "name": "G3",
                    "midi": 55,
                    "time": 13.105770322916664,
                    "velocity": 0.7874015748031497,
                    "duration": 0.38461541666666577
                },
                {
                    "name": "G2",
                    "midi": 43,
                    "time": 13.384616499999996,
                    "velocity": 0.7874015748031497,
                    "duration": 0.3076923333333337
                },
                {
                    "name": "C2",
                    "midi": 36,
                    "time": 14.769231999999997,
                    "velocity": 0.7874015748031497,
                    "duration": 0.19230770833333288
                },
                {
                    "name": "D#2",
                    "midi": 39,
                    "time": 14.923078166666663,
                    "velocity": 0.7874015748031497,
                    "duration": 0.19230770833333466
                },
                {
                    "name": "G2",
                    "midi": 43,
                    "time": 15.07692433333333,
                    "velocity": 0.7874015748031497,
                    "duration": 0.19230770833333466
                },
                {
                    "name": "C3",
                    "midi": 48,
                    "time": 15.230770499999998,
                    "velocity": 0.7874015748031497,
                    "duration": 0.19230770833333288
                },
                {
                    "name": "D#3",
                    "midi": 51,
                    "time": 15.375001281249999,
                    "velocity": 0.7874015748031497,
                    "duration": 0.19230770833333288
                },
                {
                    "name": "G3",
                    "midi": 55,
                    "time": 15.528847447916664,
                    "velocity": 0.7874015748031497,
                    "duration": 0.19230770833333288
                },
                {
                    "name": "C4",
                    "midi": 60,
                    "time": 15.692308999999998,
                    "velocity": 0.7874015748031497,
                    "duration": 0.4519231145833338
                },
                {
                    "name": "C3",
                    "midi": 48,
                    "time": 16.153847499999998,
                    "velocity": 0.7874015748031497,
                    "duration": 0.3076923333333319
                },
                {
                    "name": "D3",
                    "midi": 50,
                    "time": 16.615385999999997,
                    "velocity": 0.7874015748031497,
                    "duration": 0.0961538541666691
                },
                {
                    "name": "C3",
                    "midi": 48,
                    "time": 16.682693697916665,
                    "velocity": 0.7874015748031497,
                    "duration": 0.0961538541666691
                },
                {
                    "name": "D3",
                    "midi": 50,
                    "time": 16.750001395833333,
                    "velocity": 0.7874015748031497,
                    "duration": 0.09615385416666555
                },
                {
                    "name": "C3",
                    "midi": 48,
                    "time": 16.826924479166667,
                    "velocity": 0.7874015748031497,
                    "duration": 0.3076923333333319
                },
                {
                    "name": "B2",
                    "midi": 47,
                    "time": 17.0769245,
                    "velocity": 0.7874015748031497,
                    "duration": 0.3076923333333319
                },
                {
                    "name": "C2",
                    "midi": 36,
                    "time": 18.46154,
                    "velocity": 0.7874015748031497,
                    "duration": 0.19230770833333466
                },
                {
                    "name": "E2",
                    "midi": 40,
                    "time": 18.615386166666667,
                    "velocity": 0.7874015748031497,
                    "duration": 0.19230770833333466
                },
                {
                    "name": "G2",
                    "midi": 43,
                    "time": 18.769232333333335,
                    "velocity": 0.7874015748031497,
                    "duration": 0.19230770833333466
                },
                {
                    "name": "C3",
                    "midi": 48,
                    "time": 18.923078500000003,
                    "velocity": 0.7874015748031497,
                    "duration": 0.19230770833333466
                },
                {
                    "name": "E3",
                    "midi": 52,
                    "time": 19.067309281250004,
                    "velocity": 0.7874015748031497,
                    "duration": 0.19230770833333466
                },
                {
                    "name": "G3",
                    "midi": 55,
                    "time": 19.221155447916672,
                    "velocity": 0.7874015748031497,
                    "duration": 0.19230770833333466
                },
                {
                    "name": "A#3",
                    "midi": 58,
                    "time": 19.384617000000006,
                    "velocity": 0.7874015748031497,
                    "duration": 0.4519231145833338
                },
                {
                    "name": "A#2",
                    "midi": 46,
                    "time": 19.846155500000005,
                    "velocity": 0.7874015748031497,
                    "duration": 0.3076923333333319
                },
                {
                    "name": "C3",
                    "midi": 48,
                    "time": 20.307694000000005,
                    "velocity": 0.7874015748031497,
                    "duration": 0.0961538541666691
                },
                {
                    "name": "A#2",
                    "midi": 46,
                    "time": 20.375001697916673,
                    "velocity": 0.7874015748031497,
                    "duration": 0.0961538541666691
                },
                {
                    "name": "C3",
                    "midi": 48,
                    "time": 20.44230939583334,
                    "velocity": 0.7874015748031497,
                    "duration": 0.09615385416666555
                },
                {
                    "name": "A#2",
                    "midi": 46,
                    "time": 20.519232479166675,
                    "velocity": 0.7874015748031497,
                    "duration": 0.3076923333333319
                },
                {
                    "name": "A2",
                    "midi": 45,
                    "time": 20.769232500000008,
                    "velocity": 0.7874015748031497,
                    "duration": 0.3076923333333319
                },
                {
                    "name": "G#2",
                    "midi": 44,
                    "time": 22.153848000000007,
                    "velocity": 0.7874015748031497,
                    "duration": 0.22115386458333575
                },
                {
                    "name": "B2",
                    "midi": 47,
                    "time": 22.307694166666675,
                    "velocity": 0.7874015748031497,
                    "duration": 0.22115386458333575
                },
                {
                    "name": "D3",
                    "midi": 50,
                    "time": 22.461540333333343,
                    "velocity": 0.7874015748031497,
                    "duration": 0.22115386458333575
                },
                {
                    "name": "F3",
                    "midi": 53,
                    "time": 22.61538650000001,
                    "velocity": 0.7874015748031497,
                    "duration": 0.22115386458333575
                },
                {
                    "name": "G#3",
                    "midi": 56,
                    "time": 22.759617281250012,
                    "velocity": 0.7874015748031497,
                    "duration": 0.22115386458333575
                },
                {
                    "name": "B3",
                    "midi": 59,
                    "time": 22.91346344791668,
                    "velocity": 0.7874015748031497,
                    "duration": 0.2211538645833322
                },
                {
                    "name": "D4",
                    "midi": 62,
                    "time": 23.076925000000013,
                    "velocity": 0.7874015748031497,
                    "duration": 0.3076923333333319
                },
                {
                    "name": "G#2",
                    "midi": 44,
                    "time": 23.538463500000013,
                    "velocity": 0.7874015748031497,
                    "duration": 0.4519231145833338
                },
                {
                    "name": "G2",
                    "midi": 43,
                    "time": 24.000002000000013,
                    "velocity": 0.7874015748031497,
                    "duration": 0.22115386458333575
                },
                {
                    "name": "C3",
                    "midi": 48,
                    "time": 24.15384816666668,
                    "velocity": 0.7874015748031497,
                    "duration": 0.22115386458333575
                },
                {
                    "name": "D#3",
                    "midi": 51,
                    "time": 24.307694333333348,
                    "velocity": 0.7874015748031497,
                    "duration": 0.22115386458333575
                },
                {
                    "name": "G3",
                    "midi": 55,
                    "time": 24.461540500000016,
                    "velocity": 0.7874015748031497,
                    "duration": 0.22115386458333575
                },
                {
                    "name": "B3",
                    "midi": 59,
                    "time": 24.605771281250018,
                    "velocity": 0.7874015748031497,
                    "duration": 0.22115386458333575
                },
                {
                    "name": "C4",
                    "midi": 60,
                    "time": 24.759617447916686,
                    "velocity": 0.7874015748031497,
                    "duration": 0.2211538645833322
                },
                {
                    "name": "D#4",
                    "midi": 63,
                    "time": 24.92307900000002,
                    "velocity": 0.7874015748031497,
                    "duration": 0.3076923333333319
                },
                {
                    "name": "G2",
                    "midi": 43,
                    "time": 25.38461750000002,
                    "velocity": 0.7874015748031497,
                    "duration": 0.4519231145833338
                },
                {
                    "name": "F#2",
                    "midi": 42,
                    "time": 25.84615600000002,
                    "velocity": 0.7874015748031497,
                    "duration": 0.2211538645833322
                },
                {
                    "name": "F#3",
                    "midi": 54,
                    "time": 26.076925250000016,
                    "velocity": 0.7874015748031497,
                    "duration": 0.2211538645833322
                },
                {
                    "name": "C4",
                    "midi": 60,
                    "time": 26.076925250000016,
                    "velocity": 0.7874015748031497,
                    "duration": 0.2211538645833322
                },
                {
                    "name": "F#3",
                    "midi": 54,
                    "time": 26.307694500000014,
                    "velocity": 0.7874015748031497,
                    "duration": 0.2211538645833322
                },
                {
                    "name": "C4",
                    "midi": 60,
                    "time": 26.307694500000014,
                    "velocity": 0.7874015748031497,
                    "duration": 0.2211538645833322
                },
                {
                    "name": "F#3",
                    "midi": 54,
                    "time": 26.538463750000012,
                    "velocity": 0.7874015748031497,
                    "duration": 0.2211538645833322
                },
                {
                    "name": "C4",
                    "midi": 60,
                    "time": 26.538463750000012,
                    "velocity": 0.7874015748031497,
                    "duration": 0.2211538645833322
                },
                {
                    "name": "C4",
                    "midi": 60,
                    "time": 26.76923300000001,
                    "velocity": 0.7874015748031497,
                    "duration": 0.15384616666666773
                },
                {
                    "name": "F#3",
                    "midi": 54,
                    "time": 26.76923300000001,
                    "velocity": 0.7874015748031497,
                    "duration": 0.15384616666666773
                },
                {
                    "name": "C4",
                    "midi": 60,
                    "time": 27.000002250000012,
                    "velocity": 0.7874015748031497,
                    "duration": 0.15384616666666773
                },
                {
                    "name": "F#3",
                    "midi": 54,
                    "time": 27.000002250000012,
                    "velocity": 0.7874015748031497,
                    "duration": 0.15384616666666773
                },
                {
                    "name": "C4",
                    "midi": 60,
                    "time": 27.230771500000014,
                    "velocity": 0.7874015748031497,
                    "duration": 0.15384616666666773
                },
                {
                    "name": "F#3",
                    "midi": 54,
                    "time": 27.230771500000014,
                    "velocity": 0.7874015748031497,
                    "duration": 0.15384616666666773
                },
                {
                    "name": "C4",
                    "midi": 60,
                    "time": 27.461540750000015,
                    "velocity": 0.7874015748031497,
                    "duration": 0.15384616666666773
                },
                {
                    "name": "F#3",
                    "midi": 54,
                    "time": 27.461540750000015,
                    "velocity": 0.7874015748031497,
                    "duration": 0.15384616666666773
                },
                {
                    "name": "G3",
                    "midi": 55,
                    "time": 27.692310000000017,
                    "velocity": 0.7874015748031497,
                    "duration": 0.5576923541666652
                },
                {
                    "name": "G3",
                    "midi": 55,
                    "time": 28.298079281250015,
                    "velocity": 0.7874015748031497,
                    "duration": 0.17307693749999942
                },
                {
                    "name": "F#3",
                    "midi": 54,
                    "time": 28.451925447916683,
                    "velocity": 0.7874015748031497,
                    "duration": 0.17307693749999586
                },
                {
                    "name": "G3",
                    "midi": 55,
                    "time": 28.615387000000013,
                    "velocity": 0.7874015748031497,
                    "duration": 0.17307693749999586
                },
                {
                    "name": "D3",
                    "midi": 50,
                    "time": 28.769233166666677,
                    "velocity": 0.7874015748031497,
                    "duration": 0.17307693749999586
                },
                {
                    "name": "B2",
                    "midi": 47,
                    "time": 28.92307933333334,
                    "velocity": 0.7874015748031497,
                    "duration": 0.17307693749999586
                },
                {
                    "name": "G2",
                    "midi": 43,
                    "time": 29.076925500000005,
                    "velocity": 0.7874015748031497,
                    "duration": 0.17307693749999942
                },
                {
                    "name": "D3",
                    "midi": 50,
                    "time": 29.221156281250003,
                    "velocity": 0.7874015748031497,
                    "duration": 0.17307693749999942
                },
                {
                    "name": "F3",
                    "midi": 53,
                    "time": 29.37500244791667,
                    "velocity": 0.7874015748031497,
                    "duration": 0.17307693749999586
                },
                {
                    "name": "E3",
                    "midi": 52,
                    "time": 29.538464,
                    "velocity": 0.7874015748031497,
                    "duration": 0.3076923333333319
                },
                {
                    "name": "E3",
                    "midi": 52,
                    "time": 30.9230795,
                    "velocity": 0.7874015748031497,
                    "duration": 0.3076923333333319
                },
                {
                    "name": "F3",
                    "midi": 53,
                    "time": 31.384618,
                    "velocity": 0.7874015748031497,
                    "duration": 0.3076923333333319
                },
                {
                    "name": "F3",
                    "midi": 53,
                    "time": 32.7692335,
                    "velocity": 0.7874015748031497,
                    "duration": 0.30769233333333545
                },
                {
                    "name": "D3",
                    "midi": 50,
                    "time": 33.230772,
                    "velocity": 0.7874015748031497,
                    "duration": 0.30769233333333545
                },
                {
                    "name": "D3",
                    "midi": 50,
                    "time": 34.615387500000004,
                    "velocity": 0.7874015748031497,
                    "duration": 0.30769233333333545
                },
                {
                    "name": "D#3",
                    "midi": 51,
                    "time": 35.07692600000001,
                    "velocity": 0.7874015748031497,
                    "duration": 0.30769233333333545
                },
                {
                    "name": "D#3",
                    "midi": 51,
                    "time": 36.46154150000001,
                    "velocity": 0.7874015748031497,
                    "duration": 0.30769233333333545
                },
                {
                    "name": "G#2",
                    "midi": 44,
                    "time": 36.92308000000001,
                    "velocity": 0.7874015748031497,
                    "duration": 0.45192311458333023
                },
                {
                    "name": "A#2",
                    "midi": 46,
                    "time": 38.30769550000001,
                    "velocity": 0.7874015748031497,
                    "duration": 0.45192311458333023
                },
                {
                    "name": "C3",
                    "midi": 48,
                    "time": 38.769234000000004,
                    "velocity": 0.7874015748031497,
                    "duration": 0.45192311458333023
                },
                {
                    "name": "D3",
                    "midi": 50,
                    "time": 40.1538495,
                    "velocity": 0.7874015748031497,
                    "duration": 0.45192311458333023
                },
                {
                    "name": "D#3",
                    "midi": 51,
                    "time": 40.615387999999996,
                    "velocity": 0.7874015748031497,
                    "duration": 0.30769233333333545
                },
                {
                    "name": "G#3",
                    "midi": 56,
                    "time": 41.0769265,
                    "velocity": 0.7874015748031497,
                    "duration": 0.30769233333333545
                },
                {
                    "name": "A#3",
                    "midi": 58,
                    "time": 41.538465,
                    "velocity": 0.7874015748031497,
                    "duration": 0.30769233333333545
                },
                {
                    "name": "A#2",
                    "midi": 46,
                    "time": 42.000003500000005,
                    "velocity": 0.7874015748031497,
                    "duration": 0.30769233333333545
                },
                {
                    "name": "D#3",
                    "midi": 51,
                    "time": 42.46154200000001,
                    "velocity": 0.7874015748031497,
                    "duration": 0.30769233333333545
                },
                {
                    "name": "D#3",
                    "midi": 51,
                    "time": 43.84615750000001,
                    "velocity": 0.7874015748031497,
                    "duration": 0.30769233333333545
                },
                {
                    "name": "D#3",
                    "midi": 51,
                    "time": 44.307696000000014,
                    "velocity": 0.7874015748031497,
                    "duration": 0.30769233333333545
                },
                {
                    "name": "D#3",
                    "midi": 51,
                    "time": 45.69231150000002,
                    "velocity": 0.7874015748031497,
                    "duration": 0.30769233333333545
                },
                {
                    "name": "D#3",
                    "midi": 51,
                    "time": 46.15385000000002,
                    "velocity": 0.7874015748031497,
                    "duration": 0.30769233333333545
                },
                {
                    "name": "G#3",
                    "midi": 56,
                    "time": 46.61538850000002,
                    "velocity": 0.7874015748031497,
                    "duration": 0.30769233333333545
                },
                {
                    "name": "A#3",
                    "midi": 58,
                    "time": 47.076927000000026,
                    "velocity": 0.7874015748031497,
                    "duration": 0.30769233333333545
                },
                {
                    "name": "A#2",
                    "midi": 46,
                    "time": 47.53846550000003,
                    "velocity": 0.7874015748031497,
                    "duration": 0.30769233333333545
                },
                {
                    "name": "D#3",
                    "midi": 51,
                    "time": 48.00000400000003,
                    "velocity": 0.7874015748031497,
                    "duration": 0.1923077083333311
                },
                {
                    "name": "F3",
                    "midi": 53,
                    "time": 48.1538501666667,
                    "velocity": 0.7874015748031497,
                    "duration": 0.192307708333324
                },
                {
                    "name": "G3",
                    "midi": 55,
                    "time": 48.30769633333336,
                    "velocity": 0.7874015748031497,
                    "duration": 0.192307708333324
                },
                {
                    "name": "A3",
                    "midi": 57,
                    "time": 48.46154250000002,
                    "velocity": 0.7874015748031497,
                    "duration": 0.1923077083333311
                },
                {
                    "name": "A#3",
                    "midi": 58,
                    "time": 48.605773281250016,
                    "velocity": 0.7874015748031497,
                    "duration": 0.1923077083333311
                },
                {
                    "name": "B3",
                    "midi": 59,
                    "time": 48.759619447916684,
                    "velocity": 0.7874015748031497,
                    "duration": 0.192307708333324
                },
                {
                    "name": "C4",
                    "midi": 60,
                    "time": 48.92308100000001,
                    "velocity": 0.7874015748031497,
                    "duration": 0.30769233333332835
                },
                {
                    "name": "C3",
                    "midi": 48,
                    "time": 49.38461950000001,
                    "velocity": 0.7874015748031497,
                    "duration": 0.30769233333333545
                },
                {
                    "name": "D3",
                    "midi": 50,
                    "time": 49.84615800000001,
                    "velocity": 0.7874015748031497,
                    "duration": 0.1923077083333311
                },
                {
                    "name": "E3",
                    "midi": 52,
                    "time": 50.00000416666668,
                    "velocity": 0.7874015748031497,
                    "duration": 0.192307708333324
                },
                {
                    "name": "F#3",
                    "midi": 54,
                    "time": 50.15385033333334,
                    "velocity": 0.7874015748031497,
                    "duration": 0.192307708333324
                },
                {
                    "name": "G3",
                    "midi": 55,
                    "time": 50.3076965,
                    "velocity": 0.7874015748031497,
                    "duration": 0.1923077083333311
                },
                {
                    "name": "G#3",
                    "midi": 56,
                    "time": 50.45192728124999,
                    "velocity": 0.7874015748031497,
                    "duration": 0.1923077083333311
                },
                {
                    "name": "A3",
                    "midi": 57,
                    "time": 50.60577344791666,
                    "velocity": 0.7874015748031497,
                    "duration": 0.1923077083333311
                },
                {
                    "name": "A#3",
                    "midi": 58,
                    "time": 50.769234999999995,
                    "velocity": 0.7874015748031497,
                    "duration": 0.30769233333332835
                },
                {
                    "name": "A#2",
                    "midi": 46,
                    "time": 51.23077349999999,
                    "velocity": 0.7874015748031497,
                    "duration": 0.30769233333333545
                },
                {
                    "name": "C#3",
                    "midi": 49,
                    "time": 51.692311999999994,
                    "velocity": 0.7874015748031497,
                    "duration": 0.1923077083333311
                },
                {
                    "name": "D3",
                    "midi": 50,
                    "time": 51.84615816666666,
                    "velocity": 0.7874015748031497,
                    "duration": 0.192307708333324
                },
                {
                    "name": "E3",
                    "midi": 52,
                    "time": 52.00961971874999,
                    "velocity": 0.7874015748031497,
                    "duration": 0.1923077083333311
                },
                {
                    "name": "F#3",
                    "midi": 54,
                    "time": 52.15385049999998,
                    "velocity": 0.7874015748031497,
                    "duration": 0.1923077083333382
                },
                {
                    "name": "G3",
                    "midi": 55,
                    "time": 52.298081281249985,
                    "velocity": 0.7874015748031497,
                    "duration": 0.1923077083333311
                },
                {
                    "name": "G#3",
                    "midi": 56,
                    "time": 52.45192744791665,
                    "velocity": 0.7874015748031497,
                    "duration": 0.192307708333324
                },
                {
                    "name": "A3",
                    "midi": 57,
                    "time": 52.61538899999998,
                    "velocity": 0.7874015748031497,
                    "duration": 0.30769233333332835
                },
                {
                    "name": "C3",
                    "midi": 48,
                    "time": 53.076927499999975,
                    "velocity": 0.7874015748031497,
                    "duration": 0.30769233333333545
                },
                {
                    "name": "C3",
                    "midi": 48,
                    "time": 53.53846599999998,
                    "velocity": 0.7874015748031497,
                    "duration": 0.1923077083333311
                },
                {
                    "name": "C4",
                    "midi": 60,
                    "time": 53.692312166666646,
                    "velocity": 0.7874015748031497,
                    "duration": 0.192307708333324
                },
                {
                    "name": "A3",
                    "midi": 57,
                    "time": 53.85577371874997,
                    "velocity": 0.7874015748031497,
                    "duration": 0.1923077083333311
                },
                {
                    "name": "F#3",
                    "midi": 54,
                    "time": 54.00000449999997,
                    "velocity": 0.7874015748031497,
                    "duration": 0.1923077083333382
                },
                {
                    "name": "D3",
                    "midi": 50,
                    "time": 54.14423528124997,
                    "velocity": 0.7874015748031497,
                    "duration": 0.1923077083333311
                },
                {
                    "name": "A2",
                    "midi": 45,
                    "time": 54.29808144791664,
                    "velocity": 0.7874015748031497,
                    "duration": 0.192307708333324
                },
                {
                    "name": "F#2",
                    "midi": 42,
                    "time": 54.46154299999996,
                    "velocity": 0.7874015748031497,
                    "duration": 0.30769233333332835
                },
                {
                    "name": "D2",
                    "midi": 38,
                    "time": 54.92308149999996,
                    "velocity": 0.7874015748031497,
                    "duration": 0.30769233333333545
                },
                {
                    "name": "G2",
                    "midi": 43,
                    "time": 55.38461999999996,
                    "velocity": 0.7874015748031497,
                    "duration": 0.30769233333333545
                },
                {
                    "name": "C3",
                    "midi": 48,
                    "time": 55.846158499999966,
                    "velocity": 0.7874015748031497,
                    "duration": 0.30769233333333545
                },
                {
                    "name": "D3",
                    "midi": 50,
                    "time": 56.30769699999997,
                    "velocity": 0.7874015748031497,
                    "duration": 0.30769233333333545
                },
                {
                    "name": "D2",
                    "midi": 38,
                    "time": 56.76923549999997,
                    "velocity": 0.7874015748031497,
                    "duration": 0.30769233333333545
                },
                {
                    "name": "G2",
                    "midi": 43,
                    "time": 57.230773999999975,
                    "velocity": 0.7874015748031497,
                    "duration": 0.6153846666666638
                },
                {
                    "name": "B2",
                    "midi": 47,
                    "time": 57.83654328124997,
                    "velocity": 0.7874015748031497,
                    "duration": 0.2500000208333333
                },
                {
                    "name": "D3",
                    "midi": 50,
                    "time": 57.99038944791664,
                    "velocity": 0.7874015748031497,
                    "duration": 0.2500000208333333
                },
                {
                    "name": "G3",
                    "midi": 55,
                    "time": 58.153850999999975,
                    "velocity": 0.7874015748031497,
                    "duration": 0.45192311458333023
                },
                {
                    "name": "C2",
                    "midi": 36,
                    "time": 59.076927999999974,
                    "velocity": 0.7874015748031497,
                    "duration": 0.45192311458333023
                },
                {
                    "name": "C3",
                    "midi": 48,
                    "time": 59.53846649999997,
                    "velocity": 0.7874015748031497,
                    "duration": 0.45192311458333023
                },
                {
                    "name": "G3",
                    "midi": 55,
                    "time": 60.153851166666634,
                    "velocity": 0.7874015748031497,
                    "duration": 0.15384616666666773
                },
                {
                    "name": "F3",
                    "midi": 53,
                    "time": 60.3076973333333,
                    "velocity": 0.7874015748031497,
                    "duration": 0.15384616666666773
                },
                {
                    "name": "D#3",
                    "midi": 51,
                    "time": 60.46154349999997,
                    "velocity": 0.7874015748031497,
                    "duration": 0.15384616666666773
                },
                {
                    "name": "D3",
                    "midi": 50,
                    "time": 60.60577428124997,
                    "velocity": 0.7874015748031497,
                    "duration": 0.15384616666666773
                },
                {
                    "name": "C3",
                    "midi": 48,
                    "time": 60.75962044791664,
                    "velocity": 0.7874015748031497,
                    "duration": 0.15384616666666773
                },
                {
                    "name": "G3",
                    "midi": 55,
                    "time": 60.92308199999997,
                    "velocity": 0.7874015748031497,
                    "duration": 0.11538462499999724
                },
                {
                    "name": "F#3",
                    "midi": 54,
                    "time": 61.00962046874997,
                    "velocity": 0.7874015748031497,
                    "duration": 0.11538462499999724
                },
                {
                    "name": "G3",
                    "midi": 55,
                    "time": 61.10577432291664,
                    "velocity": 0.7874015748031497,
                    "duration": 0.3846154166666622
                },
                {
                    "name": "G2",
                    "midi": 43,
                    "time": 61.38462049999997,
                    "velocity": 0.7874015748031497,
                    "duration": 0.30769233333332835
                },
                {
                    "name": "E2",
                    "midi": 40,
                    "time": 62.769235999999964,
                    "velocity": 0.7874015748031497,
                    "duration": 0.45192311458333023
                },
                {
                    "name": "E3",
                    "midi": 52,
                    "time": 63.23077449999996,
                    "velocity": 0.7874015748031497,
                    "duration": 0.45192311458333023
                },
                {
                    "name": "G3",
                    "midi": 55,
                    "time": 63.846159166666624,
                    "velocity": 0.7874015748031497,
                    "duration": 0.15384616666666773
                },
                {
                    "name": "F3",
                    "midi": 53,
                    "time": 64.00000533333329,
                    "velocity": 0.7874015748031497,
                    "duration": 0.15384616666666773
                },
                {
                    "name": "E3",
                    "midi": 52,
                    "time": 64.15385149999996,
                    "velocity": 0.7874015748031497,
                    "duration": 0.15384616666666773
                },
                {
                    "name": "D3",
                    "midi": 50,
                    "time": 64.29808228124996,
                    "velocity": 0.7874015748031497,
                    "duration": 0.15384616666666773
                },
                {
                    "name": "C3",
                    "midi": 48,
                    "time": 64.45192844791663,
                    "velocity": 0.7874015748031497,
                    "duration": 0.15384616666666773
                },
                {
                    "name": "F3",
                    "midi": 53,
                    "time": 64.61538999999996,
                    "velocity": 0.7874015748031497,
                    "duration": 0.11538462500000435
                },
                {
                    "name": "E3",
                    "midi": 52,
                    "time": 64.70192846874997,
                    "velocity": 0.7874015748031497,
                    "duration": 0.11538462499999014
                },
                {
                    "name": "F3",
                    "midi": 53,
                    "time": 64.79808232291663,
                    "velocity": 0.7874015748031497,
                    "duration": 0.3846154166666764
                },
                {
                    "name": "F2",
                    "midi": 41,
                    "time": 65.07692849999997,
                    "velocity": 0.7874015748031497,
                    "duration": 0.30769233333333545
                },
                {
                    "name": "D2",
                    "midi": 38,
                    "time": 66.46154399999996,
                    "velocity": 0.7874015748031497,
                    "duration": 0.45192311458333734
                },
                {
                    "name": "D3",
                    "midi": 50,
                    "time": 66.92308249999996,
                    "velocity": 0.7874015748031497,
                    "duration": 0.45192311458333734
                },
                {
                    "name": "F3",
                    "midi": 53,
                    "time": 67.53846716666663,
                    "velocity": 0.7874015748031497,
                    "duration": 0.1923077083333311
                },
                {
                    "name": "D#3",
                    "midi": 51,
                    "time": 67.6923133333333,
                    "velocity": 0.7874015748031497,
                    "duration": 0.1923077083333311
                },
                {
                    "name": "D3",
                    "midi": 50,
                    "time": 67.84615949999997,
                    "velocity": 0.7874015748031497,
                    "duration": 0.1923077083333311
                },
                {
                    "name": "C3",
                    "midi": 48,
                    "time": 67.99039028124997,
                    "velocity": 0.7874015748031497,
                    "duration": 0.1923077083333311
                },
                {
                    "name": "B2",
                    "midi": 47,
                    "time": 68.14423644791664,
                    "velocity": 0.7874015748031497,
                    "duration": 0.1923077083333311
                },
                {
                    "name": "D#3",
                    "midi": 51,
                    "time": 68.30769799999997,
                    "velocity": 0.7874015748031497,
                    "duration": 0.1923077083333311
                },
                {
                    "name": "G2",
                    "midi": 43,
                    "time": 68.46154416666664,
                    "velocity": 0.7874015748031497,
                    "duration": 0.1923077083333311
                },
                {
                    "name": "A2",
                    "midi": 45,
                    "time": 68.61539033333331,
                    "velocity": 0.7874015748031497,
                    "duration": 0.1923077083333311
                },
                {
                    "name": "B2",
                    "midi": 47,
                    "time": 68.76923649999998,
                    "velocity": 0.7874015748031497,
                    "duration": 0.1923077083333311
                },
                {
                    "name": "C3",
                    "midi": 48,
                    "time": 68.91346728124998,
                    "velocity": 0.7874015748031497,
                    "duration": 0.1923077083333311
                },
                {
                    "name": "D3",
                    "midi": 50,
                    "time": 69.06731344791665,
                    "velocity": 0.7874015748031497,
                    "duration": 0.1923077083333311
                },
                {
                    "name": "D#3",
                    "midi": 51,
                    "time": 69.23077499999998,
                    "velocity": 0.8661417322834646,
                    "duration": 0.2115384791666628
                },
                {
                    "name": "C3",
                    "midi": 48,
                    "time": 69.38462116666665,
                    "velocity": 0.7874015748031497,
                    "duration": 0.1923077083333311
                },
                {
                    "name": "D3",
                    "midi": 50,
                    "time": 69.53846733333332,
                    "velocity": 0.7874015748031497,
                    "duration": 0.1923077083333311
                },
                {
                    "name": "D#3",
                    "midi": 51,
                    "time": 69.69231349999998,
                    "velocity": 0.7874015748031497,
                    "duration": 0.1923077083333311
                },
                {
                    "name": "F3",
                    "midi": 53,
                    "time": 69.83654428124999,
                    "velocity": 0.7874015748031497,
                    "duration": 0.1923077083333311
                },
                {
                    "name": "G3",
                    "midi": 55,
                    "time": 69.99039044791665,
                    "velocity": 0.7874015748031497,
                    "duration": 0.1923077083333311
                },
                {
                    "name": "G#3",
                    "midi": 56,
                    "time": 70.15385199999999,
                    "velocity": 0.7874015748031497,
                    "duration": 0.45192311458333734
                },
                {
                    "name": "G3",
                    "midi": 55,
                    "time": 70.61539049999999,
                    "velocity": 0.7874015748031497,
                    "duration": 0.45192311458333734
                },
                {
                    "name": "F3",
                    "midi": 53,
                    "time": 71.07692899999999,
                    "velocity": 0.7874015748031497,
                    "duration": 0.45192311458333734
                },
                {
                    "name": "F#3",
                    "midi": 54,
                    "time": 71.5384675,
                    "velocity": 0.7874015748031497,
                    "duration": 0.45192311458333734
                },
                {
                    "name": "G3",
                    "midi": 55,
                    "time": 72.000006,
                    "velocity": 0.7874015748031497,
                    "duration": 0.11538462500000435
                },
                {
                    "name": "F#3",
                    "midi": 54,
                    "time": 72.08654446875,
                    "velocity": 0.7874015748031497,
                    "duration": 0.11538462499999014
                },
                {
                    "name": "G3",
                    "midi": 55,
                    "time": 72.18269832291666,
                    "velocity": 0.7874015748031497,
                    "duration": 0.3846154166666764
                },
                {
                    "name": "G2",
                    "midi": 43,
                    "time": 72.4615445,
                    "velocity": 0.7874015748031497,
                    "duration": 0.30769233333333545
                },
                {
                    "name": "C2",
                    "midi": 36,
                    "time": 73.84616,
                    "velocity": 0.7874015748031497,
                    "duration": 0.1923077083333311
                },
                {
                    "name": "D#2",
                    "midi": 39,
                    "time": 74.00000616666667,
                    "velocity": 0.7874015748031497,
                    "duration": 0.1923077083333311
                },
                {
                    "name": "G2",
                    "midi": 43,
                    "time": 74.15385233333333,
                    "velocity": 0.7874015748031497,
                    "duration": 0.1923077083333311
                },
                {
                    "name": "C3",
                    "midi": 48,
                    "time": 74.3076985,
                    "velocity": 0.7874015748031497,
                    "duration": 0.1923077083333311
                },
                {
                    "name": "D#3",
                    "midi": 51,
                    "time": 74.45192928125,
                    "velocity": 0.7874015748031497,
                    "duration": 0.1923077083333311
                },
                {
                    "name": "G3",
                    "midi": 55,
                    "time": 74.60577544791667,
                    "velocity": 0.7874015748031497,
                    "duration": 0.1923077083333311
                },
                {
                    "name": "C4",
                    "midi": 60,
                    "time": 74.769237,
                    "velocity": 0.7874015748031497,
                    "duration": 0.45192311458333734
                },
                {
                    "name": "C3",
                    "midi": 48,
                    "time": 75.23077550000001,
                    "velocity": 0.7874015748031497,
                    "duration": 0.30769233333333545
                },
                {
                    "name": "D3",
                    "midi": 50,
                    "time": 75.69231400000001,
                    "velocity": 0.7874015748031497,
                    "duration": 0.09615385416665845
                },
                {
                    "name": "C3",
                    "midi": 48,
                    "time": 75.75962169791667,
                    "velocity": 0.7874015748031497,
                    "duration": 0.09615385416665845
                },
                {
                    "name": "D3",
                    "midi": 50,
                    "time": 75.82692939583333,
                    "velocity": 0.7874015748031497,
                    "duration": 0.09615385416665845
                },
                {
                    "name": "C3",
                    "midi": 48,
                    "time": 75.90385247916666,
                    "velocity": 0.7874015748031497,
                    "duration": 0.30769233333332124
                },
                {
                    "name": "B2",
                    "midi": 47,
                    "time": 76.15385249999999,
                    "velocity": 0.7874015748031497,
                    "duration": 0.30769233333332124
                },
                {
                    "name": "C2",
                    "midi": 36,
                    "time": 77.53846799999997,
                    "velocity": 0.7874015748031497,
                    "duration": 0.1923077083333311
                },
                {
                    "name": "E2",
                    "midi": 40,
                    "time": 77.69231416666663,
                    "velocity": 0.7874015748031497,
                    "duration": 0.1923077083333311
                },
                {
                    "name": "G2",
                    "midi": 43,
                    "time": 77.8461603333333,
                    "velocity": 0.7874015748031497,
                    "duration": 0.1923077083333311
                },
                {
                    "name": "C3",
                    "midi": 48,
                    "time": 78.00000649999997,
                    "velocity": 0.7874015748031497,
                    "duration": 0.1923077083333311
                },
                {
                    "name": "E3",
                    "midi": 52,
                    "time": 78.14423728124997,
                    "velocity": 0.7874015748031497,
                    "duration": 0.1923077083333311
                },
                {
                    "name": "G3",
                    "midi": 55,
                    "time": 78.29808344791664,
                    "velocity": 0.7874015748031497,
                    "duration": 0.1923077083333311
                },
                {
                    "name": "A#3",
                    "midi": 58,
                    "time": 78.46154499999997,
                    "velocity": 0.7874015748031497,
                    "duration": 0.45192311458333734
                },
                {
                    "name": "A#2",
                    "midi": 46,
                    "time": 78.92308349999998,
                    "velocity": 0.7874015748031497,
                    "duration": 0.30769233333333545
                },
                {
                    "name": "C3",
                    "midi": 48,
                    "time": 79.38462199999998,
                    "velocity": 0.7874015748031497,
                    "duration": 0.09615385416665845
                },
                {
                    "name": "A#2",
                    "midi": 46,
                    "time": 79.45192969791664,
                    "velocity": 0.7874015748031497,
                    "duration": 0.09615385416665845
                },
                {
                    "name": "C3",
                    "midi": 48,
                    "time": 79.5192373958333,
                    "velocity": 0.7874015748031497,
                    "duration": 0.09615385416665845
                },
                {
                    "name": "A#2",
                    "midi": 46,
                    "time": 79.59616047916663,
                    "velocity": 0.7874015748031497,
                    "duration": 0.30769233333332124
                },
                {
                    "name": "A2",
                    "midi": 45,
                    "time": 79.84616049999995,
                    "velocity": 0.7874015748031497,
                    "duration": 0.30769233333332124
                },
                {
                    "name": "G#2",
                    "midi": 44,
                    "time": 81.23077599999993,
                    "velocity": 0.7874015748031497,
                    "duration": 0.22115386458332864
                },
                {
                    "name": "B2",
                    "midi": 47,
                    "time": 81.3846221666666,
                    "velocity": 0.7874015748031497,
                    "duration": 0.22115386458332864
                },
                {
                    "name": "D3",
                    "midi": 50,
                    "time": 81.53846833333327,
                    "velocity": 0.7874015748031497,
                    "duration": 0.22115386458332864
                },
                {
                    "name": "F3",
                    "midi": 53,
                    "time": 81.69231449999994,
                    "velocity": 0.7874015748031497,
                    "duration": 0.22115386458331443
                },
                {
                    "name": "G#3",
                    "midi": 56,
                    "time": 81.83654528124993,
                    "velocity": 0.7874015748031497,
                    "duration": 0.22115386458331443
                },
                {
                    "name": "B3",
                    "midi": 59,
                    "time": 81.99039144791658,
                    "velocity": 0.7874015748031497,
                    "duration": 0.22115386458332864
                },
                {
                    "name": "D4",
                    "midi": 62,
                    "time": 82.15385299999991,
                    "velocity": 0.7874015748031497,
                    "duration": 0.30769233333333545
                },
                {
                    "name": "G#2",
                    "midi": 44,
                    "time": 82.61539149999992,
                    "velocity": 0.7874015748031497,
                    "duration": 0.45192311458333734
                },
                {
                    "name": "G2",
                    "midi": 43,
                    "time": 83.07692999999992,
                    "velocity": 0.7874015748031497,
                    "duration": 0.22115386458332864
                },
                {
                    "name": "C3",
                    "midi": 48,
                    "time": 83.23077616666659,
                    "velocity": 0.7874015748031497,
                    "duration": 0.22115386458332864
                },
                {
                    "name": "D#3",
                    "midi": 51,
                    "time": 83.38462233333325,
                    "velocity": 0.7874015748031497,
                    "duration": 0.22115386458332864
                },
                {
                    "name": "G3",
                    "midi": 55,
                    "time": 83.53846849999992,
                    "velocity": 0.7874015748031497,
                    "duration": 0.22115386458331443
                },
                {
                    "name": "B3",
                    "midi": 59,
                    "time": 83.68269928124991,
                    "velocity": 0.7874015748031497,
                    "duration": 0.22115386458331443
                },
                {
                    "name": "C4",
                    "midi": 60,
                    "time": 83.83654544791656,
                    "velocity": 0.7874015748031497,
                    "duration": 0.22115386458332864
                },
                {
                    "name": "D#4",
                    "midi": 63,
                    "time": 84.0000069999999,
                    "velocity": 0.7874015748031497,
                    "duration": 0.30769233333333545
                },
                {
                    "name": "G2",
                    "midi": 43,
                    "time": 84.4615454999999,
                    "velocity": 0.7874015748031497,
                    "duration": 0.45192311458333734
                },
                {
                    "name": "F#2",
                    "midi": 42,
                    "time": 84.9230839999999,
                    "velocity": 0.7874015748031497,
                    "duration": 0.22115386458332864
                },
                {
                    "name": "F#3",
                    "midi": 54,
                    "time": 85.1538532499999,
                    "velocity": 0.7874015748031497,
                    "duration": 0.22115386458332864
                },
                {
                    "name": "C4",
                    "midi": 60,
                    "time": 85.1538532499999,
                    "velocity": 0.7874015748031497,
                    "duration": 0.22115386458332864
                },
                {
                    "name": "F#3",
                    "midi": 54,
                    "time": 85.38462249999989,
                    "velocity": 0.7874015748031497,
                    "duration": 0.22115386458332864
                },
                {
                    "name": "C4",
                    "midi": 60,
                    "time": 85.38462249999989,
                    "velocity": 0.7874015748031497,
                    "duration": 0.22115386458332864
                },
                {
                    "name": "F#3",
                    "midi": 54,
                    "time": 85.61539174999989,
                    "velocity": 0.7874015748031497,
                    "duration": 0.22115386458332864
                },
                {
                    "name": "C4",
                    "midi": 60,
                    "time": 85.61539174999989,
                    "velocity": 0.7874015748031497,
                    "duration": 0.22115386458332864
                },
                {
                    "name": "C4",
                    "midi": 60,
                    "time": 85.84616099999988,
                    "velocity": 0.7874015748031497,
                    "duration": 0.15384616666666773
                },
                {
                    "name": "F#3",
                    "midi": 54,
                    "time": 85.84616099999988,
                    "velocity": 0.7874015748031497,
                    "duration": 0.15384616666666773
                },
                {
                    "name": "C4",
                    "midi": 60,
                    "time": 86.07693024999988,
                    "velocity": 0.7874015748031497,
                    "duration": 0.15384616666666773
                },
                {
                    "name": "F#3",
                    "midi": 54,
                    "time": 86.07693024999988,
                    "velocity": 0.7874015748031497,
                    "duration": 0.15384616666666773
                },
                {
                    "name": "C4",
                    "midi": 60,
                    "time": 86.30769949999987,
                    "velocity": 0.7874015748031497,
                    "duration": 0.15384616666666773
                },
                {
                    "name": "F#3",
                    "midi": 54,
                    "time": 86.30769949999987,
                    "velocity": 0.7874015748031497,
                    "duration": 0.15384616666666773
                },
                {
                    "name": "C4",
                    "midi": 60,
                    "time": 86.53846874999986,
                    "velocity": 0.7874015748031497,
                    "duration": 0.15384616666666773
                },
                {
                    "name": "F#3",
                    "midi": 54,
                    "time": 86.53846874999986,
                    "velocity": 0.7874015748031497,
                    "duration": 0.15384616666666773
                },
                {
                    "name": "G3",
                    "midi": 55,
                    "time": 86.76923799999986,
                    "velocity": 0.7874015748031497,
                    "duration": 0.5576923541666616
                },
                {
                    "name": "G3",
                    "midi": 55,
                    "time": 87.37500728124985,
                    "velocity": 0.7874015748031497,
                    "duration": 0.17307693749999942
                },
                {
                    "name": "F#3",
                    "midi": 54,
                    "time": 87.52885344791652,
                    "velocity": 0.7874015748031497,
                    "duration": 0.17307693749999942
                },
                {
                    "name": "G3",
                    "midi": 55,
                    "time": 87.69231499999985,
                    "velocity": 0.7874015748031497,
                    "duration": 0.17307693749999942
                },
                {
                    "name": "D3",
                    "midi": 50,
                    "time": 87.84616116666652,
                    "velocity": 0.7874015748031497,
                    "duration": 0.17307693749999942
                },
                {
                    "name": "B2",
                    "midi": 47,
                    "time": 88.00000733333319,
                    "velocity": 0.7874015748031497,
                    "duration": 0.17307693749999942
                },
                {
                    "name": "G2",
                    "midi": 43,
                    "time": 88.15385349999985,
                    "velocity": 0.7874015748031497,
                    "duration": 0.17307693749999942
                },
                {
                    "name": "D3",
                    "midi": 50,
                    "time": 88.29808428124986,
                    "velocity": 0.7874015748031497,
                    "duration": 0.17307693749999942
                },
                {
                    "name": "F3",
                    "midi": 53,
                    "time": 88.45193044791652,
                    "velocity": 0.7874015748031497,
                    "duration": 0.17307693749999942
                },
                {
                    "name": "E3",
                    "midi": 52,
                    "time": 88.61539199999986,
                    "velocity": 0.7874015748031497,
                    "duration": 0.30769233333333545
                },
                {
                    "name": "E3",
                    "midi": 52,
                    "time": 90.00000749999985,
                    "velocity": 0.7874015748031497,
                    "duration": 0.30769233333333545
                },
                {
                    "name": "F3",
                    "midi": 53,
                    "time": 90.46154599999986,
                    "velocity": 0.7874015748031497,
                    "duration": 0.30769233333333545
                },
                {
                    "name": "F3",
                    "midi": 53,
                    "time": 91.84616149999985,
                    "velocity": 0.7874015748031497,
                    "duration": 0.30769233333333545
                },
                {
                    "name": "D3",
                    "midi": 50,
                    "time": 92.30769999999985,
                    "velocity": 0.7874015748031497,
                    "duration": 0.30769233333333545
                },
                {
                    "name": "D3",
                    "midi": 50,
                    "time": 93.69231549999985,
                    "velocity": 0.7874015748031497,
                    "duration": 0.30769233333333545
                },
                {
                    "name": "D#3",
                    "midi": 51,
                    "time": 94.15385399999985,
                    "velocity": 0.7874015748031497,
                    "duration": 0.30769233333333545
                },
                {
                    "name": "D#3",
                    "midi": 51,
                    "time": 95.53846949999985,
                    "velocity": 0.7874015748031497,
                    "duration": 0.30769233333333545
                },
                {
                    "name": "G#2",
                    "midi": 44,
                    "time": 96.00000799999985,
                    "velocity": 0.7874015748031497,
                    "duration": 0.45192311458333734
                },
                {
                    "name": "A#2",
                    "midi": 46,
                    "time": 97.38462349999986,
                    "velocity": 0.7874015748031497,
                    "duration": 0.45192311458333734
                },
                {
                    "name": "C3",
                    "midi": 48,
                    "time": 97.84616199999986,
                    "velocity": 0.7874015748031497,
                    "duration": 0.45192311458333734
                },
                {
                    "name": "D3",
                    "midi": 50,
                    "time": 99.23077749999987,
                    "velocity": 0.7874015748031497,
                    "duration": 0.45192311458333734
                },
                {
                    "name": "D#3",
                    "midi": 51,
                    "time": 99.69231599999988,
                    "velocity": 0.7874015748031497,
                    "duration": 0.30769233333333545
                },
                {
                    "name": "G#3",
                    "midi": 56,
                    "time": 100.15385449999988,
                    "velocity": 0.7874015748031497,
                    "duration": 0.30769233333333545
                },
                {
                    "name": "A#3",
                    "midi": 58,
                    "time": 100.61539299999988,
                    "velocity": 0.7874015748031497,
                    "duration": 0.30769233333333545
                },
                {
                    "name": "A#2",
                    "midi": 46,
                    "time": 101.07693149999989,
                    "velocity": 0.7874015748031497,
                    "duration": 0.30769233333333545
                },
                {
                    "name": "D#3",
                    "midi": 51,
                    "time": 101.53846999999989,
                    "velocity": 0.7874015748031497,
                    "duration": 0.30769233333333545
                },
                {
                    "name": "D#3",
                    "midi": 51,
                    "time": 102.92308549999989,
                    "velocity": 0.7874015748031497,
                    "duration": 0.30769233333333545
                },
                {
                    "name": "D#3",
                    "midi": 51,
                    "time": 103.38462399999989,
                    "velocity": 0.7874015748031497,
                    "duration": 0.30769233333333545
                },
                {
                    "name": "D#3",
                    "midi": 51,
                    "time": 104.76923949999988,
                    "velocity": 0.7874015748031497,
                    "duration": 0.30769233333333545
                },
                {
                    "name": "D#3",
                    "midi": 51,
                    "time": 105.23077799999989,
                    "velocity": 0.7874015748031497,
                    "duration": 0.30769233333333545
                },
                {
                    "name": "G#3",
                    "midi": 56,
                    "time": 105.69231649999989,
                    "velocity": 0.7874015748031497,
                    "duration": 0.30769233333333545
                },
                {
                    "name": "A#3",
                    "midi": 58,
                    "time": 106.1538549999999,
                    "velocity": 0.7874015748031497,
                    "duration": 0.30769233333333545
                },
                {
                    "name": "A#2",
                    "midi": 46,
                    "time": 106.6153934999999,
                    "velocity": 0.7874015748031497,
                    "duration": 0.30769233333333545
                },
                {
                    "name": "D#3",
                    "midi": 51,
                    "time": 107.0769319999999,
                    "velocity": 0.7874015748031497,
                    "duration": 0.1923077083333311
                },
                {
                    "name": "F3",
                    "midi": 53,
                    "time": 107.23077816666657,
                    "velocity": 0.7874015748031497,
                    "duration": 0.1923077083333311
                },
                {
                    "name": "G3",
                    "midi": 55,
                    "time": 107.38462433333324,
                    "velocity": 0.7874015748031497,
                    "duration": 0.1923077083333311
                },
                {
                    "name": "A3",
                    "midi": 57,
                    "time": 107.5384704999999,
                    "velocity": 0.7874015748031497,
                    "duration": 0.1923077083333311
                },
                {
                    "name": "A#3",
                    "midi": 58,
                    "time": 107.6827012812499,
                    "velocity": 0.7874015748031497,
                    "duration": 0.1923077083333311
                },
                {
                    "name": "B3",
                    "midi": 59,
                    "time": 107.83654744791657,
                    "velocity": 0.7874015748031497,
                    "duration": 0.1923077083333311
                },
                {
                    "name": "C4",
                    "midi": 60,
                    "time": 108.0000089999999,
                    "velocity": 0.7874015748031497,
                    "duration": 0.30769233333333545
                },
                {
                    "name": "C3",
                    "midi": 48,
                    "time": 108.46154749999991,
                    "velocity": 0.7874015748031497,
                    "duration": 0.30769233333333545
                },
                {
                    "name": "D3",
                    "midi": 50,
                    "time": 108.92308599999991,
                    "velocity": 0.7874015748031497,
                    "duration": 0.1923077083333311
                },
                {
                    "name": "E3",
                    "midi": 52,
                    "time": 109.07693216666658,
                    "velocity": 0.7874015748031497,
                    "duration": 0.1923077083333311
                },
                {
                    "name": "F#3",
                    "midi": 54,
                    "time": 109.23077833333325,
                    "velocity": 0.7874015748031497,
                    "duration": 0.1923077083333311
                },
                {
                    "name": "G3",
                    "midi": 55,
                    "time": 109.38462449999992,
                    "velocity": 0.7874015748031497,
                    "duration": 0.1923077083333311
                },
                {
                    "name": "G#3",
                    "midi": 56,
                    "time": 109.52885528124992,
                    "velocity": 0.7874015748031497,
                    "duration": 0.1923077083333311
                },
                {
                    "name": "A3",
                    "midi": 57,
                    "time": 109.68270144791659,
                    "velocity": 0.7874015748031497,
                    "duration": 0.1923077083333311
                },
                {
                    "name": "A#3",
                    "midi": 58,
                    "time": 109.84616299999992,
                    "velocity": 0.7874015748031497,
                    "duration": 0.30769233333333545
                },
                {
                    "name": "A#2",
                    "midi": 46,
                    "time": 110.30770149999992,
                    "velocity": 0.7874015748031497,
                    "duration": 0.30769233333333545
                },
                {
                    "name": "C#3",
                    "midi": 49,
                    "time": 110.76923999999993,
                    "velocity": 0.7874015748031497,
                    "duration": 0.1923077083333311
                },
                {
                    "name": "D3",
                    "midi": 50,
                    "time": 110.9230861666666,
                    "velocity": 0.7874015748031497,
                    "duration": 0.1923077083333311
                },
                {
                    "name": "E3",
                    "midi": 52,
                    "time": 111.08654771874993,
                    "velocity": 0.7874015748031497,
                    "duration": 0.1923077083333311
                },
                {
                    "name": "F#3",
                    "midi": 54,
                    "time": 111.23077849999993,
                    "velocity": 0.7874015748031497,
                    "duration": 0.1923077083333311
                },
                {
                    "name": "G3",
                    "midi": 55,
                    "time": 111.37500928124993,
                    "velocity": 0.7874015748031497,
                    "duration": 0.1923077083333311
                },
                {
                    "name": "G#3",
                    "midi": 56,
                    "time": 111.5288554479166,
                    "velocity": 0.7874015748031497,
                    "duration": 0.1923077083333311
                },
                {
                    "name": "A3",
                    "midi": 57,
                    "time": 111.69231699999993,
                    "velocity": 0.7874015748031497,
                    "duration": 0.30769233333333545
                },
                {
                    "name": "C3",
                    "midi": 48,
                    "time": 112.15385549999993,
                    "velocity": 0.7874015748031497,
                    "duration": 0.30769233333333545
                },
                {
                    "name": "C3",
                    "midi": 48,
                    "time": 112.61539399999994,
                    "velocity": 0.7874015748031497,
                    "duration": 0.1923077083333311
                },
                {
                    "name": "C4",
                    "midi": 60,
                    "time": 112.7692401666666,
                    "velocity": 0.7874015748031497,
                    "duration": 0.1923077083333311
                },
                {
                    "name": "A3",
                    "midi": 57,
                    "time": 112.93270171874994,
                    "velocity": 0.7874015748031497,
                    "duration": 0.1923077083333311
                },
                {
                    "name": "F#3",
                    "midi": 54,
                    "time": 113.07693249999994,
                    "velocity": 0.7874015748031497,
                    "duration": 0.1923077083333311
                },
                {
                    "name": "D3",
                    "midi": 50,
                    "time": 113.22116328124994,
                    "velocity": 0.7874015748031497,
                    "duration": 0.1923077083333311
                },
                {
                    "name": "A2",
                    "midi": 45,
                    "time": 113.37500944791661,
                    "velocity": 0.7874015748031497,
                    "duration": 0.1923077083333311
                },
                {
                    "name": "F#2",
                    "midi": 42,
                    "time": 113.53847099999994,
                    "velocity": 0.7874015748031497,
                    "duration": 0.30769233333333545
                },
                {
                    "name": "D2",
                    "midi": 38,
                    "time": 114.00000949999995,
                    "velocity": 0.7874015748031497,
                    "duration": 0.30769233333333545
                },
                {
                    "name": "G2",
                    "midi": 43,
                    "time": 114.46154799999995,
                    "velocity": 0.7874015748031497,
                    "duration": 0.30769233333333545
                },
                {
                    "name": "C3",
                    "midi": 48,
                    "time": 114.92308649999995,
                    "velocity": 0.7874015748031497,
                    "duration": 0.30769233333333545
                },
                {
                    "name": "D3",
                    "midi": 50,
                    "time": 115.38462499999996,
                    "velocity": 0.7874015748031497,
                    "duration": 0.30769233333333545
                },
                {
                    "name": "D2",
                    "midi": 38,
                    "time": 115.84616349999996,
                    "velocity": 0.7874015748031497,
                    "duration": 0.30769233333333545
                },
                {
                    "name": "G2",
                    "midi": 43,
                    "time": 116.30770199999996,
                    "velocity": 0.7874015748031497,
                    "duration": 0.6153846666666709
                },
                {
                    "name": "B2",
                    "midi": 47,
                    "time": 116.91347128124997,
                    "velocity": 0.7874015748031497,
                    "duration": 0.2500000208333404
                },
                {
                    "name": "D3",
                    "midi": 50,
                    "time": 117.06731744791664,
                    "velocity": 0.7874015748031497,
                    "duration": 0.2500000208333404
                },
                {
                    "name": "G3",
                    "midi": 55,
                    "time": 117.23077899999997,
                    "velocity": 0.7874015748031497,
                    "duration": 0.45192311458333734
                },
                {
                    "name": "G2",
                    "midi": 43,
                    "time": 118.15385599999998,
                    "velocity": 0.7874015748031497,
                    "duration": 0.45192311458333734
                },
                {
                    "name": "G3",
                    "midi": 55,
                    "time": 118.61539449999998,
                    "velocity": 0.7874015748031497,
                    "duration": 0.45192311458333734
                },
                {
                    "name": "D3",
                    "midi": 50,
                    "time": 119.23077916666665,
                    "velocity": 0.7874015748031497,
                    "duration": 0.15384616666666773
                },
                {
                    "name": "C3",
                    "midi": 48,
                    "time": 119.38462533333332,
                    "velocity": 0.7874015748031497,
                    "duration": 0.15384616666666773
                },
                {
                    "name": "A#2",
                    "midi": 46,
                    "time": 119.53847149999999,
                    "velocity": 0.7874015748031497,
                    "duration": 0.15384616666666773
                },
                {
                    "name": "A2",
                    "midi": 45,
                    "time": 119.68270228124999,
                    "velocity": 0.7874015748031497,
                    "duration": 0.15384616666666773
                },
                {
                    "name": "G2",
                    "midi": 43,
                    "time": 119.83654844791666,
                    "velocity": 0.7874015748031497,
                    "duration": 0.15384616666666773
                },
                {
                    "name": "D3",
                    "midi": 50,
                    "time": 120.00000999999999,
                    "velocity": 0.7874015748031497,
                    "duration": 0.45192311458333734
                },
                {
                    "name": "D2",
                    "midi": 38,
                    "time": 120.46154849999999,
                    "velocity": 0.7874015748031497,
                    "duration": 0.30769233333333545
                },
                {
                    "name": "F#2",
                    "midi": 42,
                    "time": 121.84616399999999,
                    "velocity": 0.7874015748031497,
                    "duration": 0.45192311458333734
                },
                {
                    "name": "F#3",
                    "midi": 54,
                    "time": 122.30770249999999,
                    "velocity": 0.7874015748031497,
                    "duration": 0.45192311458333734
                },
                {
                    "name": "A3",
                    "midi": 57,
                    "time": 122.92308716666666,
                    "velocity": 0.7874015748031497,
                    "duration": 0.15384616666666773
                },
                {
                    "name": "G3",
                    "midi": 55,
                    "time": 123.07693333333333,
                    "velocity": 0.7874015748031497,
                    "duration": 0.15384616666666773
                },
                {
                    "name": "F#3",
                    "midi": 54,
                    "time": 123.2307795,
                    "velocity": 0.7874015748031497,
                    "duration": 0.15384616666666773
                },
                {
                    "name": "E3",
                    "midi": 52,
                    "time": 123.37501028125,
                    "velocity": 0.7874015748031497,
                    "duration": 0.15384616666666773
                },
                {
                    "name": "D3",
                    "midi": 50,
                    "time": 123.52885644791667,
                    "velocity": 0.7874015748031497,
                    "duration": 0.15384616666666773
                },
                {
                    "name": "G3",
                    "midi": 55,
                    "time": 123.692318,
                    "velocity": 0.7874015748031497,
                    "duration": 0.45192311458333734
                },
                {
                    "name": "G2",
                    "midi": 43,
                    "time": 124.1538565,
                    "velocity": 0.7874015748031497,
                    "duration": 0.30769233333333545
                },
                {
                    "name": "B3",
                    "midi": 59,
                    "time": 125.538472,
                    "velocity": 0.7874015748031497,
                    "duration": 0.45192311458333734
                },
                {
                    "name": "G2",
                    "midi": 43,
                    "time": 126.461549,
                    "velocity": 0.7874015748031497,
                    "duration": 0.22115386458332864
                },
                {
                    "name": "B2",
                    "midi": 47,
                    "time": 126.61539516666667,
                    "velocity": 0.7874015748031497,
                    "duration": 0.22115386458332864
                },
                {
                    "name": "D3",
                    "midi": 50,
                    "time": 126.76924133333334,
                    "velocity": 0.7874015748031497,
                    "duration": 0.22115386458332864
                },
                {
                    "name": "G3",
                    "midi": 55,
                    "time": 126.92308750000001,
                    "velocity": 0.7874015748031497,
                    "duration": 0.22115386458331443
                },
                {
                    "name": "B3",
                    "midi": 59,
                    "time": 127.06731828125,
                    "velocity": 0.7874015748031497,
                    "duration": 0.22115386458331443
                },
                {
                    "name": "D4",
                    "midi": 62,
                    "time": 127.22116444791665,
                    "velocity": 0.7874015748031497,
                    "duration": 0.22115386458332864
                },
                {
                    "name": "C4",
                    "midi": 60,
                    "time": 127.38462599999998,
                    "velocity": 0.7874015748031497,
                    "duration": 0.30769233333332124
                },
                {
                    "name": "C3",
                    "midi": 48,
                    "time": 127.84616449999997,
                    "velocity": 0.7874015748031497,
                    "duration": 0.5769231249999933
                },
                {
                    "name": "D#3",
                    "midi": 51,
                    "time": 128.46154916666663,
                    "velocity": 0.7874015748031497,
                    "duration": 0.22115386458332864
                },
                {
                    "name": "G3",
                    "midi": 55,
                    "time": 128.61539533333328,
                    "velocity": 0.7874015748031497,
                    "duration": 0.22115386458335706
                },
                {
                    "name": "C4",
                    "midi": 60,
                    "time": 128.76924149999996,
                    "velocity": 0.7874015748031497,
                    "duration": 0.22115386458332864
                },
                {
                    "name": "D#4",
                    "midi": 63,
                    "time": 128.91347228124997,
                    "velocity": 0.7874015748031497,
                    "duration": 0.22115386458332864
                },
                {
                    "name": "G4",
                    "midi": 67,
                    "time": 129.06731844791662,
                    "velocity": 0.7874015748031497,
                    "duration": 0.22115386458332864
                },
                {
                    "name": "A3",
                    "midi": 57,
                    "time": 129.23077999999995,
                    "velocity": 0.7874015748031497,
                    "duration": 0.45192311458333734
                },
                {
                    "name": "F2",
                    "midi": 41,
                    "time": 130.15385699999996,
                    "velocity": 0.7874015748031497,
                    "duration": 0.22115386458332864
                },
                {
                    "name": "A2",
                    "midi": 45,
                    "time": 130.3077031666666,
                    "velocity": 0.7874015748031497,
                    "duration": 0.22115386458335706
                },
                {
                    "name": "C3",
                    "midi": 48,
                    "time": 130.4615493333333,
                    "velocity": 0.7874015748031497,
                    "duration": 0.22115386458335706
                },
                {
                    "name": "F3",
                    "midi": 53,
                    "time": 130.61539549999998,
                    "velocity": 0.7874015748031497,
                    "duration": 0.22115386458332864
                },
                {
                    "name": "A3",
                    "midi": 57,
                    "time": 130.75962628124998,
                    "velocity": 0.7874015748031497,
                    "duration": 0.22115386458332864
                },
                {
                    "name": "C4",
                    "midi": 60,
                    "time": 130.91347244791663,
                    "velocity": 0.7874015748031497,
                    "duration": 0.22115386458332864
                },
                {
                    "name": "A#3",
                    "midi": 58,
                    "time": 131.07693399999997,
                    "velocity": 0.7874015748031497,
                    "duration": 0.30769233333333545
                },
                {
                    "name": "A#2",
                    "midi": 46,
                    "time": 131.53847249999995,
                    "velocity": 0.7874015748031497,
                    "duration": 0.5769231250000075
                },
                {
                    "name": "D3",
                    "midi": 50,
                    "time": 132.15385716666663,
                    "velocity": 0.7874015748031497,
                    "duration": 0.22115386458332864
                },
                {
                    "name": "F3",
                    "midi": 53,
                    "time": 132.30770333333328,
                    "velocity": 0.7874015748031497,
                    "duration": 0.22115386458335706
                },
                {
                    "name": "A#3",
                    "midi": 58,
                    "time": 132.46154949999996,
                    "velocity": 0.7874015748031497,
                    "duration": 0.22115386458332864
                },
                {
                    "name": "D4",
                    "midi": 62,
                    "time": 132.60578028124996,
                    "velocity": 0.7874015748031497,
                    "duration": 0.22115386458332864
                },
                {
                    "name": "F4",
                    "midi": 65,
                    "time": 132.75962644791662,
                    "velocity": 0.7874015748031497,
                    "duration": 0.22115386458332864
                },
                {
                    "name": "D#4",
                    "midi": 63,
                    "time": 132.92308799999995,
                    "velocity": 0.7874015748031497,
                    "duration": 0.45192311458333734
                },
                {
                    "name": "D#3",
                    "midi": 51,
                    "time": 133.38462649999997,
                    "velocity": 0.7874015748031497,
                    "duration": 0.45192311458333734
                },
                {
                    "name": "D3",
                    "midi": 50,
                    "time": 134.00001116666664,
                    "velocity": 0.7874015748031497,
                    "duration": 0.17307693750001363
                },
                {
                    "name": "D#3",
                    "midi": 51,
                    "time": 134.16347271874997,
                    "velocity": 0.7874015748031497,
                    "duration": 0.17307693750001363
                },
                {
                    "name": "E3",
                    "midi": 52,
                    "time": 134.30770349999997,
                    "velocity": 0.7874015748031497,
                    "duration": 0.17307693750001363
                },
                {
                    "name": "F3",
                    "midi": 53,
                    "time": 134.45193428124998,
                    "velocity": 0.7874015748031497,
                    "duration": 0.17307693750001363
                },
                {
                    "name": "F#3",
                    "midi": 54,
                    "time": 134.60578044791666,
                    "velocity": 0.7874015748031497,
                    "duration": 0.17307693750001363
                },
                {
                    "name": "G3",
                    "midi": 55,
                    "time": 134.769242,
                    "velocity": 0.7874015748031497,
                    "duration": 0.07692308333335518
                },
                {
                    "name": "F#3",
                    "midi": 54,
                    "time": 134.83654969791667,
                    "velocity": 0.7874015748031497,
                    "duration": 0.07692308333335518
                },
                {
                    "name": "G3",
                    "midi": 55,
                    "time": 134.90385739583334,
                    "velocity": 0.7874015748031497,
                    "duration": 0.5769231250000075
                },
                {
                    "name": "G#3",
                    "midi": 56,
                    "time": 135.84616516666668,
                    "velocity": 0.7874015748031497,
                    "duration": 0.17307693750001363
                },
                {
                    "name": "G3",
                    "midi": 55,
                    "time": 136.00962671875,
                    "velocity": 0.7874015748031497,
                    "duration": 0.17307693750001363
                },
                {
                    "name": "F#3",
                    "midi": 54,
                    "time": 136.15385750000002,
                    "velocity": 0.7874015748031497,
                    "duration": 0.17307693750001363
                },
                {
                    "name": "F3",
                    "midi": 53,
                    "time": 136.29808828125002,
                    "velocity": 0.7874015748031497,
                    "duration": 0.17307693750001363
                },
                {
                    "name": "E3",
                    "midi": 52,
                    "time": 136.4519344479167,
                    "velocity": 0.7874015748031497,
                    "duration": 0.17307693750001363
                },
                {
                    "name": "G#3",
                    "midi": 56,
                    "time": 136.61539600000003,
                    "velocity": 0.7874015748031497,
                    "duration": 0.45192311458333734
                },
                {
                    "name": "G#2",
                    "midi": 44,
                    "time": 137.07693450000005,
                    "velocity": 0.7874015748031497,
                    "duration": 0.7115385208333294
                },
                {
                    "name": "G2",
                    "midi": 43,
                    "time": 137.69231916666672,
                    "velocity": 0.7874015748031497,
                    "duration": 0.17307693750001363
                },
                {
                    "name": "G#2",
                    "midi": 44,
                    "time": 137.85578071875005,
                    "velocity": 0.7874015748031497,
                    "duration": 0.17307693750001363
                },
                {
                    "name": "A2",
                    "midi": 45,
                    "time": 138.00001150000006,
                    "velocity": 0.7874015748031497,
                    "duration": 0.17307693750001363
                },
                {
                    "name": "A#2",
                    "midi": 46,
                    "time": 138.14424228125006,
                    "velocity": 0.7874015748031497,
                    "duration": 0.17307693750001363
                },
                {
                    "name": "B2",
                    "midi": 47,
                    "time": 138.29808844791674,
                    "velocity": 0.7874015748031497,
                    "duration": 0.17307693750001363
                },
                {
                    "name": "C3",
                    "midi": 48,
                    "time": 138.46155000000007,
                    "velocity": 0.7874015748031497,
                    "duration": 0.08653846875003524
                },
                {
                    "name": "B2",
                    "midi": 47,
                    "time": 138.53847308333343,
                    "velocity": 0.7874015748031497,
                    "duration": 0.08653846875000681
                },
                {
                    "name": "C3",
                    "midi": 48,
                    "time": 138.62501155208344,
                    "velocity": 0.7874015748031497,
                    "duration": 0.5769231250000075
                },
                {
                    "name": "C#3",
                    "midi": 49,
                    "time": 139.5384731666668,
                    "velocity": 0.7874015748031497,
                    "duration": 0.17307693750001363
                },
                {
                    "name": "C3",
                    "midi": 48,
                    "time": 139.70193471875012,
                    "velocity": 0.7874015748031497,
                    "duration": 0.17307693750001363
                },
                {
                    "name": "B2",
                    "midi": 47,
                    "time": 139.84616550000013,
                    "velocity": 0.7874015748031497,
                    "duration": 0.17307693750001363
                },
                {
                    "name": "A#2",
                    "midi": 46,
                    "time": 139.99039628125013,
                    "velocity": 0.7874015748031497,
                    "duration": 0.17307693750001363
                },
                {
                    "name": "A2",
                    "midi": 45,
                    "time": 140.1442424479168,
                    "velocity": 0.7874015748031497,
                    "duration": 0.17307693750001363
                },
                {
                    "name": "C#3",
                    "midi": 49,
                    "time": 140.30770400000014,
                    "velocity": 0.7874015748031497,
                    "duration": 0.45192311458333734
                },
                {
                    "name": "C#4",
                    "midi": 61,
                    "time": 140.76924250000016,
                    "velocity": 0.7874015748031497,
                    "duration": 0.7115385208333294
                },
                {
                    "name": "C4",
                    "midi": 60,
                    "time": 141.38462716666683,
                    "velocity": 0.7874015748031497,
                    "duration": 0.17307693750001363
                },
                {
                    "name": "C#4",
                    "midi": 61,
                    "time": 141.54808871875017,
                    "velocity": 0.7874015748031497,
                    "duration": 0.17307693750001363
                },
                {
                    "name": "D4",
                    "midi": 62,
                    "time": 141.69231950000017,
                    "velocity": 0.7874015748031497,
                    "duration": 0.17307693750001363
                },
                {
                    "name": "D#4",
                    "midi": 63,
                    "time": 141.83655028125017,
                    "velocity": 0.7874015748031497,
                    "duration": 0.17307693750001363
                },
                {
                    "name": "E4",
                    "midi": 64,
                    "time": 141.99039644791685,
                    "velocity": 0.7874015748031497,
                    "duration": 0.17307693750001363
                },
                {
                    "name": "F4",
                    "midi": 65,
                    "time": 142.15385800000018,
                    "velocity": 0.7874015748031497,
                    "duration": 0.08653846875003524
                },
                {
                    "name": "E4",
                    "midi": 64,
                    "time": 142.23078108333354,
                    "velocity": 0.7874015748031497,
                    "duration": 0.08653846875000681
                },
                {
                    "name": "F4",
                    "midi": 65,
                    "time": 142.31731955208355,
                    "velocity": 0.7874015748031497,
                    "duration": 0.5769231250000075
                },
                {
                    "name": "F3",
                    "midi": 53,
                    "time": 143.2307811666669,
                    "velocity": 0.7874015748031497,
                    "duration": 0.17307693750001363
                },
                {
                    "name": "E3",
                    "midi": 52,
                    "time": 143.39424271875023,
                    "velocity": 0.7874015748031497,
                    "duration": 0.17307693750001363
                },
                {
                    "name": "F3",
                    "midi": 53,
                    "time": 143.53847350000024,
                    "velocity": 0.7874015748031497,
                    "duration": 0.17307693750001363
                },
                {
                    "name": "G3",
                    "midi": 55,
                    "time": 143.68270428125024,
                    "velocity": 0.7874015748031497,
                    "duration": 0.17307693750001363
                },
                {
                    "name": "G#3",
                    "midi": 56,
                    "time": 143.83655044791692,
                    "velocity": 0.7874015748031497,
                    "duration": 0.17307693750001363
                },
                {
                    "name": "A#3",
                    "midi": 58,
                    "time": 144.00001200000025,
                    "velocity": 0.7874015748031497,
                    "duration": 0.19230770833334532
                },
                {
                    "name": "G#3",
                    "midi": 56,
                    "time": 144.15385816666694,
                    "velocity": 0.7874015748031497,
                    "duration": 0.19230770833334532
                },
                {
                    "name": "G3",
                    "midi": 55,
                    "time": 144.31731971875027,
                    "velocity": 0.7874015748031497,
                    "duration": 0.19230770833334532
                },
                {
                    "name": "G#3",
                    "midi": 56,
                    "time": 144.46155050000027,
                    "velocity": 0.7874015748031497,
                    "duration": 0.19230770833334532
                },
                {
                    "name": "A#3",
                    "midi": 58,
                    "time": 144.60578128125027,
                    "velocity": 0.7874015748031497,
                    "duration": 0.19230770833334532
                },
                {
                    "name": "C4",
                    "midi": 60,
                    "time": 144.75962744791696,
                    "velocity": 0.7874015748031497,
                    "duration": 0.19230770833334532
                },
                {
                    "name": "C#4",
                    "midi": 61,
                    "time": 144.9230890000003,
                    "velocity": 0.7874015748031497,
                    "duration": 0.30769233333333545
                },
                {
                    "name": "A#3",
                    "midi": 58,
                    "time": 145.38462750000028,
                    "velocity": 0.7874015748031497,
                    "duration": 0.30769233333333545
                },
                {
                    "name": "C4",
                    "midi": 60,
                    "time": 145.84616600000027,
                    "velocity": 0.7874015748031497,
                    "duration": 0.30769233333333545
                },
                {
                    "name": "C3",
                    "midi": 48,
                    "time": 146.30770450000026,
                    "velocity": 0.7874015748031497,
                    "duration": 0.6346154375000026
                },
                {
                    "name": "E3",
                    "midi": 52,
                    "time": 146.92308916666693,
                    "velocity": 0.7874015748031497,
                    "duration": 0.19230770833334532
                },
                {
                    "name": "G3",
                    "midi": 55,
                    "time": 147.08655071875026,
                    "velocity": 0.7874015748031497,
                    "duration": 0.19230770833334532
                },
                {
                    "name": "A#3",
                    "midi": 58,
                    "time": 147.23078150000026,
                    "velocity": 0.7874015748031497,
                    "duration": 0.19230770833334532
                },
                {
                    "name": "A3",
                    "midi": 57,
                    "time": 147.37501228125026,
                    "velocity": 0.7874015748031497,
                    "duration": 0.19230770833334532
                },
                {
                    "name": "G3",
                    "midi": 55,
                    "time": 147.52885844791695,
                    "velocity": 0.7874015748031497,
                    "duration": 0.19230770833334532
                },
                {
                    "name": "F#3",
                    "midi": 54,
                    "time": 147.69232000000028,
                    "velocity": 0.7874015748031497,
                    "duration": 0.211538479166677
                },
                {
                    "name": "D#4",
                    "midi": 63,
                    "time": 147.84616616666696,
                    "velocity": 0.7874015748031497,
                    "duration": 0.211538479166677
                },
                {
                    "name": "C4",
                    "midi": 60,
                    "time": 148.0096277187503,
                    "velocity": 0.7874015748031497,
                    "duration": 0.211538479166677
                },
                {
                    "name": "F#3",
                    "midi": 54,
                    "time": 148.1538585000003,
                    "velocity": 0.7874015748031497,
                    "duration": 0.211538479166677
                },
                {
                    "name": "A2",
                    "midi": 45,
                    "time": 148.1538585000003,
                    "velocity": 0.7874015748031497,
                    "duration": 0.45192311458333734
                },
                {
                    "name": "D#4",
                    "midi": 63,
                    "time": 148.2980892812503,
                    "velocity": 0.7874015748031497,
                    "duration": 0.211538479166677
                },
                {
                    "name": "C4",
                    "midi": 60,
                    "time": 148.45193544791698,
                    "velocity": 0.7874015748031497,
                    "duration": 0.211538479166677
                },
                {
                    "name": "F#3",
                    "midi": 54,
                    "time": 148.6153970000003,
                    "velocity": 0.7874015748031497,
                    "duration": 0.211538479166677
                },
                {
                    "name": "A2",
                    "midi": 45,
                    "time": 148.6153970000003,
                    "velocity": 0.7874015748031497,
                    "duration": 0.45192311458336576
                },
                {
                    "name": "D#4",
                    "midi": 63,
                    "time": 148.769243166667,
                    "velocity": 0.7874015748031497,
                    "duration": 0.211538479166677
                },
                {
                    "name": "C4",
                    "midi": 60,
                    "time": 148.93270471875033,
                    "velocity": 0.7874015748031497,
                    "duration": 0.21153847916670543
                },
                {
                    "name": "F#3",
                    "midi": 54,
                    "time": 149.07693550000036,
                    "velocity": 0.7874015748031497,
                    "duration": 0.211538479166677
                },
                {
                    "name": "D#4",
                    "midi": 63,
                    "time": 149.22116628125036,
                    "velocity": 0.7874015748031497,
                    "duration": 0.211538479166677
                },
                {
                    "name": "C4",
                    "midi": 60,
                    "time": 149.37501244791704,
                    "velocity": 0.7874015748031497,
                    "duration": 0.211538479166677
                },
                {
                    "name": "F3",
                    "midi": 53,
                    "time": 149.53847400000038,
                    "velocity": 0.7874015748031497,
                    "duration": 0.211538479166677
                },
                {
                    "name": "C#4",
                    "midi": 61,
                    "time": 149.69232016666706,
                    "velocity": 0.7874015748031497,
                    "duration": 0.211538479166677
                },
                {
                    "name": "A#3",
                    "midi": 58,
                    "time": 149.8557817187504,
                    "velocity": 0.7874015748031497,
                    "duration": 0.211538479166677
                },
                {
                    "name": "F3",
                    "midi": 53,
                    "time": 150.0000125000004,
                    "velocity": 0.7874015748031497,
                    "duration": 0.211538479166677
                },
                {
                    "name": "A#2",
                    "midi": 46,
                    "time": 150.0000125000004,
                    "velocity": 0.7874015748031497,
                    "duration": 0.45192311458333734
                },
                {
                    "name": "C#4",
                    "midi": 61,
                    "time": 150.1442432812504,
                    "velocity": 0.7874015748031497,
                    "duration": 0.211538479166677
                },
                {
                    "name": "A#3",
                    "midi": 58,
                    "time": 150.29808944791708,
                    "velocity": 0.7874015748031497,
                    "duration": 0.211538479166677
                },
                {
                    "name": "F3",
                    "midi": 53,
                    "time": 150.4615510000004,
                    "velocity": 0.7874015748031497,
                    "duration": 0.211538479166677
                },
                {
                    "name": "A#2",
                    "midi": 46,
                    "time": 150.4615510000004,
                    "velocity": 0.7874015748031497,
                    "duration": 0.45192311458336576
                },
                {
                    "name": "C#4",
                    "midi": 61,
                    "time": 150.6153971666671,
                    "velocity": 0.7874015748031497,
                    "duration": 0.211538479166677
                },
                {
                    "name": "A#3",
                    "midi": 58,
                    "time": 150.77885871875043,
                    "velocity": 0.7874015748031497,
                    "duration": 0.21153847916670543
                },
                {
                    "name": "F3",
                    "midi": 53,
                    "time": 150.92308950000046,
                    "velocity": 0.7874015748031497,
                    "duration": 0.211538479166677
                },
                {
                    "name": "C#4",
                    "midi": 61,
                    "time": 151.06732028125046,
                    "velocity": 0.7874015748031497,
                    "duration": 0.211538479166677
                },
                {
                    "name": "A#3",
                    "midi": 58,
                    "time": 151.22116644791714,
                    "velocity": 0.7874015748031497,
                    "duration": 0.211538479166677
                },
                {
                    "name": "E3",
                    "midi": 52,
                    "time": 151.38462800000048,
                    "velocity": 0.7874015748031497,
                    "duration": 0.211538479166677
                },
                {
                    "name": "C#4",
                    "midi": 61,
                    "time": 151.53847416666716,
                    "velocity": 0.7874015748031497,
                    "duration": 0.211538479166677
                },
                {
                    "name": "A#3",
                    "midi": 58,
                    "time": 151.7019357187505,
                    "velocity": 0.7874015748031497,
                    "duration": 0.211538479166677
                },
                {
                    "name": "E3",
                    "midi": 52,
                    "time": 151.8461665000005,
                    "velocity": 0.7874015748031497,
                    "duration": 0.211538479166677
                },
                {
                    "name": "G2",
                    "midi": 43,
                    "time": 151.8461665000005,
                    "velocity": 0.7874015748031497,
                    "duration": 0.45192311458333734
                },
                {
                    "name": "C#4",
                    "midi": 61,
                    "time": 151.9903972812505,
                    "velocity": 0.7874015748031497,
                    "duration": 0.211538479166677
                },
                {
                    "name": "A#3",
                    "midi": 58,
                    "time": 152.14424344791718,
                    "velocity": 0.7874015748031497,
                    "duration": 0.211538479166677
                },
                {
                    "name": "E3",
                    "midi": 52,
                    "time": 152.3077050000005,
                    "velocity": 0.7874015748031497,
                    "duration": 0.211538479166677
                },
                {
                    "name": "G2",
                    "midi": 43,
                    "time": 152.3077050000005,
                    "velocity": 0.7874015748031497,
                    "duration": 0.45192311458336576
                },
                {
                    "name": "C#4",
                    "midi": 61,
                    "time": 152.4615511666672,
                    "velocity": 0.7874015748031497,
                    "duration": 0.211538479166677
                },
                {
                    "name": "A#3",
                    "midi": 58,
                    "time": 152.62501271875053,
                    "velocity": 0.7874015748031497,
                    "duration": 0.21153847916670543
                },
                {
                    "name": "E3",
                    "midi": 52,
                    "time": 152.76924350000056,
                    "velocity": 0.7874015748031497,
                    "duration": 0.211538479166677
                },
                {
                    "name": "C#4",
                    "midi": 61,
                    "time": 152.91347428125056,
                    "velocity": 0.7874015748031497,
                    "duration": 0.211538479166677
                },
                {
                    "name": "A#3",
                    "midi": 58,
                    "time": 153.06732044791724,
                    "velocity": 0.7874015748031497,
                    "duration": 0.211538479166677
                },
                {
                    "name": "D#3",
                    "midi": 51,
                    "time": 153.23078200000057,
                    "velocity": 0.7874015748031497,
                    "duration": 0.211538479166677
                },
                {
                    "name": "C4",
                    "midi": 60,
                    "time": 153.38462816666726,
                    "velocity": 0.7874015748031497,
                    "duration": 0.211538479166677
                },
                {
                    "name": "G#3",
                    "midi": 56,
                    "time": 153.5480897187506,
                    "velocity": 0.7874015748031497,
                    "duration": 0.211538479166677
                },
                {
                    "name": "D#3",
                    "midi": 51,
                    "time": 153.6923205000006,
                    "velocity": 0.7874015748031497,
                    "duration": 0.211538479166677
                },
                {
                    "name": "G#2",
                    "midi": 44,
                    "time": 153.6923205000006,
                    "velocity": 0.7874015748031497,
                    "duration": 0.45192311458333734
                },
                {
                    "name": "C4",
                    "midi": 60,
                    "time": 153.8365512812506,
                    "velocity": 0.7874015748031497,
                    "duration": 0.211538479166677
                },
                {
                    "name": "G#3",
                    "midi": 56,
                    "time": 153.99039744791727,
                    "velocity": 0.7874015748031497,
                    "duration": 0.211538479166677
                },
                {
                    "name": "D#3",
                    "midi": 51,
                    "time": 154.1538590000006,
                    "velocity": 0.7874015748031497,
                    "duration": 0.211538479166677
                },
                {
                    "name": "G#2",
                    "midi": 44,
                    "time": 154.1538590000006,
                    "velocity": 0.7874015748031497,
                    "duration": 0.45192311458336576
                },
                {
                    "name": "C4",
                    "midi": 60,
                    "time": 154.3077051666673,
                    "velocity": 0.7874015748031497,
                    "duration": 0.211538479166677
                },
                {
                    "name": "G#3",
                    "midi": 56,
                    "time": 154.47116671875062,
                    "velocity": 0.7874015748031497,
                    "duration": 0.21153847916670543
                },
                {
                    "name": "D#3",
                    "midi": 51,
                    "time": 154.61539750000065,
                    "velocity": 0.7874015748031497,
                    "duration": 0.211538479166677
                },
                {
                    "name": "C3",
                    "midi": 48,
                    "time": 154.61539750000065,
                    "velocity": 0.7874015748031497,
                    "duration": 0.3076923333333639
                },
                {
                    "name": "C4",
                    "midi": 60,
                    "time": 154.75962828125066,
                    "velocity": 0.7874015748031497,
                    "duration": 0.21153847916670543
                },
                {
                    "name": "G#3",
                    "midi": 56,
                    "time": 154.91347444791734,
                    "velocity": 0.7874015748031497,
                    "duration": 0.21153847916670543
                },
                {
                    "name": "F3",
                    "midi": 53,
                    "time": 155.0769360000007,
                    "velocity": 0.7874015748031497,
                    "duration": 0.18269232291669368
                },
                {
                    "name": "C#3",
                    "midi": 49,
                    "time": 155.0769360000007,
                    "velocity": 0.7874015748031497,
                    "duration": 0.45192311458333734
                },
                {
                    "name": "G3",
                    "midi": 55,
                    "time": 155.23078216666738,
                    "velocity": 0.7874015748031497,
                    "duration": 0.18269232291666526
                },
                {
                    "name": "G#3",
                    "midi": 56,
                    "time": 155.39424371875072,
                    "velocity": 0.7874015748031497,
                    "duration": 0.18269232291666526
                },
                {
                    "name": "A#3",
                    "midi": 58,
                    "time": 155.53847450000072,
                    "velocity": 0.7874015748031497,
                    "duration": 0.18269232291666526
                },
                {
                    "name": "C4",
                    "midi": 60,
                    "time": 155.68270528125072,
                    "velocity": 0.7874015748031497,
                    "duration": 0.18269232291666526
                },
                {
                    "name": "C#4",
                    "midi": 61,
                    "time": 155.83655144791737,
                    "velocity": 0.7874015748031497,
                    "duration": 0.18269232291666526
                },
                {
                    "name": "D#3",
                    "midi": 51,
                    "time": 156.0000130000007,
                    "velocity": 0.7874015748031497,
                    "duration": 0.18269232291666526
                },
                {
                    "name": "C#4",
                    "midi": 61,
                    "time": 156.15385916666736,
                    "velocity": 0.7874015748031497,
                    "duration": 0.18269232291666526
                },
                {
                    "name": "C4",
                    "midi": 60,
                    "time": 156.3173207187507,
                    "velocity": 0.7874015748031497,
                    "duration": 0.18269232291666526
                },
                {
                    "name": "A#3",
                    "midi": 58,
                    "time": 156.4615515000007,
                    "velocity": 0.7874015748031497,
                    "duration": 0.18269232291666526
                },
                {
                    "name": "D#3",
                    "midi": 51,
                    "time": 156.4615515000007,
                    "velocity": 0.7874015748031497,
                    "duration": 0.45192311458333734
                },
                {
                    "name": "G#3",
                    "midi": 56,
                    "time": 156.6057822812507,
                    "velocity": 0.7874015748031497,
                    "duration": 0.18269232291666526
                },
                {
                    "name": "G3",
                    "midi": 55,
                    "time": 156.75962844791735,
                    "velocity": 0.7874015748031497,
                    "duration": 0.18269232291669368
                },
                {
                    "name": "G#3",
                    "midi": 56,
                    "time": 156.9230900000007,
                    "velocity": 0.7874015748031497,
                    "duration": 0.18269232291666526
                },
                {
                    "name": "F3",
                    "midi": 53,
                    "time": 156.9230900000007,
                    "velocity": 0.7874015748031497,
                    "duration": 0.4519231145833089
                },
                {
                    "name": "A#3",
                    "midi": 58,
                    "time": 157.07693616666737,
                    "velocity": 0.7874015748031497,
                    "duration": 0.18269232291666526
                },
                {
                    "name": "C4",
                    "midi": 60,
                    "time": 157.2403977187507,
                    "velocity": 0.7874015748031497,
                    "duration": 0.18269232291666526
                },
                {
                    "name": "C#4",
                    "midi": 61,
                    "time": 157.3846285000007,
                    "velocity": 0.7874015748031497,
                    "duration": 0.18269232291666526
                },
                {
                    "name": "D#4",
                    "midi": 63,
                    "time": 157.5288592812507,
                    "velocity": 0.7874015748031497,
                    "duration": 0.18269232291666526
                },
                {
                    "name": "F4",
                    "midi": 65,
                    "time": 157.68270544791736,
                    "velocity": 0.7874015748031497,
                    "duration": 0.18269232291666526
                },
                {
                    "name": "G3",
                    "midi": 55,
                    "time": 157.8461670000007,
                    "velocity": 0.7874015748031497,
                    "duration": 0.18269232291666526
                },
                {
                    "name": "F4",
                    "midi": 65,
                    "time": 158.00001316666734,
                    "velocity": 0.7874015748031497,
                    "duration": 0.18269232291666526
                },
                {
                    "name": "D#4",
                    "midi": 63,
                    "time": 158.16347471875068,
                    "velocity": 0.7874015748031497,
                    "duration": 0.18269232291666526
                },
                {
                    "name": "C#4",
                    "midi": 61,
                    "time": 158.30770550000068,
                    "velocity": 0.7874015748031497,
                    "duration": 0.18269232291666526
                },
                {
                    "name": "G3",
                    "midi": 55,
                    "time": 158.30770550000068,
                    "velocity": 0.7874015748031497,
                    "duration": 0.45192311458333734
                },
                {
                    "name": "C4",
                    "midi": 60,
                    "time": 158.45193628125068,
                    "velocity": 0.7874015748031497,
                    "duration": 0.18269232291666526
                },
                {
                    "name": "A#3",
                    "midi": 58,
                    "time": 158.60578244791733,
                    "velocity": 0.7874015748031497,
                    "duration": 0.18269232291669368
                },
                {
                    "name": "G#3",
                    "midi": 56,
                    "time": 158.7692440000007,
                    "velocity": 0.7874015748031497,
                    "duration": 0.45192311458333734
                },
                {
                    "name": "D#3",
                    "midi": 51,
                    "time": 160.1538595000007,
                    "velocity": 0.7874015748031497,
                    "duration": 0.45192311458333734
                },
                {
                    "name": "G#2",
                    "midi": 44,
                    "time": 160.6153980000007,
                    "velocity": 0.7874015748031497,
                    "duration": 0.45192311458333734
                },
                {
                    "name": "C4",
                    "midi": 60,
                    "time": 161.53847500000072,
                    "velocity": 0.7874015748031497,
                    "duration": 0.45192311458333734
                },
                {
                    "name": "C#4",
                    "midi": 61,
                    "time": 162.46155200000072,
                    "velocity": 0.7874015748031497,
                    "duration": 0.18269232291666526
                },
                {
                    "name": "F4",
                    "midi": 65,
                    "time": 162.61539816666738,
                    "velocity": 0.7874015748031497,
                    "duration": 0.18269232291666526
                },
                {
                    "name": "G#4",
                    "midi": 68,
                    "time": 162.7788597187507,
                    "velocity": 0.7874015748031497,
                    "duration": 0.18269232291666526
                },
                {
                    "name": "C5",
                    "midi": 72,
                    "time": 162.9230905000007,
                    "velocity": 0.7874015748031497,
                    "duration": 0.30769233333333545
                },
                {
                    "name": "C#4",
                    "midi": 61,
                    "time": 163.3846290000007,
                    "velocity": 0.7874015748031497,
                    "duration": 0.30769233333333545
                },
                {
                    "name": "C5",
                    "midi": 72,
                    "time": 163.8461675000007,
                    "velocity": 0.7874015748031497,
                    "duration": 0.30769233333333545
                },
                {
                    "name": "D4",
                    "midi": 62,
                    "time": 164.30770600000068,
                    "velocity": 0.7874015748031497,
                    "duration": 0.18269232291666526
                },
                {
                    "name": "F4",
                    "midi": 65,
                    "time": 164.46155216666733,
                    "velocity": 0.7874015748031497,
                    "duration": 0.18269232291666526
                },
                {
                    "name": "G#4",
                    "midi": 68,
                    "time": 164.62501371875067,
                    "velocity": 0.7874015748031497,
                    "duration": 0.18269232291666526
                },
                {
                    "name": "B4",
                    "midi": 71,
                    "time": 164.76924450000067,
                    "velocity": 0.7874015748031497,
                    "duration": 0.30769233333333545
                },
                {
                    "name": "D4",
                    "midi": 62,
                    "time": 165.23078300000066,
                    "velocity": 0.7874015748031497,
                    "duration": 0.30769233333333545
                },
                {
                    "name": "B4",
                    "midi": 71,
                    "time": 165.69232150000065,
                    "velocity": 0.7874015748031497,
                    "duration": 0.30769233333333545
                },
                {
                    "name": "C4",
                    "midi": 60,
                    "time": 166.15386000000063,
                    "velocity": 0.7874015748031497,
                    "duration": 0.18269232291666526
                },
                {
                    "name": "F4",
                    "midi": 65,
                    "time": 166.3077061666673,
                    "velocity": 0.7874015748031497,
                    "duration": 0.18269232291666526
                },
                {
                    "name": "G#4",
                    "midi": 68,
                    "time": 166.47116771875062,
                    "velocity": 0.7874015748031497,
                    "duration": 0.18269232291666526
                },
                {
                    "name": "C5",
                    "midi": 72,
                    "time": 166.61539850000062,
                    "velocity": 0.7874015748031497,
                    "duration": 0.30769233333333545
                },
                {
                    "name": "C4",
                    "midi": 60,
                    "time": 167.0769370000006,
                    "velocity": 0.7874015748031497,
                    "duration": 0.30769233333333545
                },
                {
                    "name": "C5",
                    "midi": 72,
                    "time": 167.5384755000006,
                    "velocity": 0.7874015748031497,
                    "duration": 0.30769233333333545
                },
                {
                    "name": "B3",
                    "midi": 59,
                    "time": 168.0000140000006,
                    "velocity": 0.7874015748031497,
                    "duration": 0.18269232291666526
                },
                {
                    "name": "F4",
                    "midi": 65,
                    "time": 168.15386016666724,
                    "velocity": 0.7874015748031497,
                    "duration": 0.18269232291666526
                },
                {
                    "name": "G#4",
                    "midi": 68,
                    "time": 168.31732171875058,
                    "velocity": 0.7874015748031497,
                    "duration": 0.18269232291666526
                },
                {
                    "name": "D5",
                    "midi": 74,
                    "time": 168.46155250000058,
                    "velocity": 0.7874015748031497,
                    "duration": 0.30769233333333545
                },
                {
                    "name": "B3",
                    "midi": 59,
                    "time": 168.92309100000057,
                    "velocity": 0.7874015748031497,
                    "duration": 0.30769233333333545
                },
                {
                    "name": "D5",
                    "midi": 74,
                    "time": 169.38462950000056,
                    "velocity": 0.7874015748031497,
                    "duration": 0.30769233333333545
                },
                {
                    "name": "C4",
                    "midi": 60,
                    "time": 169.84616800000055,
                    "velocity": 0.7874015748031497,
                    "duration": 0.18269232291666526
                },
                {
                    "name": "D#4",
                    "midi": 63,
                    "time": 170.0000141666672,
                    "velocity": 0.7874015748031497,
                    "duration": 0.18269232291666526
                },
                {
                    "name": "G4",
                    "midi": 67,
                    "time": 170.16347571875053,
                    "velocity": 0.7874015748031497,
                    "duration": 0.18269232291666526
                },
                {
                    "name": "D#4",
                    "midi": 63,
                    "time": 171.23078350000054,
                    "velocity": 0.7874015748031497,
                    "duration": 0.18269232291666526
                },
                {
                    "name": "D4",
                    "midi": 62,
                    "time": 171.37501428125054,
                    "velocity": 0.7874015748031497,
                    "duration": 0.18269232291666526
                },
                {
                    "name": "C4",
                    "midi": 60,
                    "time": 171.5288604479172,
                    "velocity": 0.7874015748031497,
                    "duration": 0.18269232291666526
                },
                {
                    "name": "A#3",
                    "midi": 58,
                    "time": 171.69232200000053,
                    "velocity": 0.7874015748031497,
                    "duration": 0.18269232291666526
                },
                {
                    "name": "D4",
                    "midi": 62,
                    "time": 171.84616816666718,
                    "velocity": 0.7874015748031497,
                    "duration": 0.18269232291666526
                },
                {
                    "name": "F4",
                    "midi": 65,
                    "time": 172.00962971875052,
                    "velocity": 0.7874015748031497,
                    "duration": 0.18269232291666526
                },
                {
                    "name": "C#4",
                    "midi": 61,
                    "time": 173.07693750000053,
                    "velocity": 0.7874015748031497,
                    "duration": 0.18269232291666526
                },
                {
                    "name": "C4",
                    "midi": 60,
                    "time": 173.22116828125053,
                    "velocity": 0.7874015748031497,
                    "duration": 0.18269232291666526
                },
                {
                    "name": "A#3",
                    "midi": 58,
                    "time": 173.37501444791718,
                    "velocity": 0.7874015748031497,
                    "duration": 0.18269232291666526
                },
                {
                    "name": "G#3",
                    "midi": 56,
                    "time": 173.53847600000051,
                    "velocity": 0.7874015748031497,
                    "duration": 0.21153847916664859
                },
                {
                    "name": "G#4",
                    "midi": 68,
                    "time": 173.69232216666717,
                    "velocity": 0.7874015748031497,
                    "duration": 0.21153847916664859
                },
                {
                    "name": "G#3",
                    "midi": 56,
                    "time": 174.00001450000047,
                    "velocity": 0.7874015748031497,
                    "duration": 0.211538479166677
                },
                {
                    "name": "G4",
                    "midi": 67,
                    "time": 174.14424528125048,
                    "velocity": 0.7874015748031497,
                    "duration": 0.211538479166677
                },
                {
                    "name": "G#3",
                    "midi": 56,
                    "time": 174.4615530000005,
                    "velocity": 0.7874015748031497,
                    "duration": 0.21153847916664859
                },
                {
                    "name": "F4",
                    "midi": 65,
                    "time": 174.61539916666715,
                    "velocity": 0.7874015748031497,
                    "duration": 0.21153847916664859
                },
                {
                    "name": "G#3",
                    "midi": 56,
                    "time": 174.92309150000045,
                    "velocity": 0.7874015748031497,
                    "duration": 0.211538479166677
                },
                {
                    "name": "D#4",
                    "midi": 63,
                    "time": 175.06732228125045,
                    "velocity": 0.7874015748031497,
                    "duration": 0.211538479166677
                },
                {
                    "name": "A3",
                    "midi": 57,
                    "time": 175.38463000000047,
                    "velocity": 0.7874015748031497,
                    "duration": 0.21153847916664859
                },
                {
                    "name": "D#4",
                    "midi": 63,
                    "time": 175.53847616666712,
                    "velocity": 0.7874015748031497,
                    "duration": 0.21153847916664859
                },
                {
                    "name": "A3",
                    "midi": 57,
                    "time": 175.84616850000043,
                    "velocity": 0.7874015748031497,
                    "duration": 0.211538479166677
                },
                {
                    "name": "D#4",
                    "midi": 63,
                    "time": 175.99039928125043,
                    "velocity": 0.7874015748031497,
                    "duration": 0.211538479166677
                },
                {
                    "name": "A3",
                    "midi": 57,
                    "time": 176.30770700000045,
                    "velocity": 0.7874015748031497,
                    "duration": 0.21153847916664859
                },
                {
                    "name": "D4",
                    "midi": 62,
                    "time": 176.4615531666671,
                    "velocity": 0.7874015748031497,
                    "duration": 0.21153847916664859
                },
                {
                    "name": "A3",
                    "midi": 57,
                    "time": 176.7692455000004,
                    "velocity": 0.7874015748031497,
                    "duration": 0.211538479166677
                },
                {
                    "name": "C4",
                    "midi": 60,
                    "time": 176.9134762812504,
                    "velocity": 0.7874015748031497,
                    "duration": 0.211538479166677
                },
                {
                    "name": "G3",
                    "midi": 55,
                    "time": 177.23078400000043,
                    "velocity": 0.7874015748031497,
                    "duration": 0.18269232291666526
                },
                {
                    "name": "C4",
                    "midi": 60,
                    "time": 177.38463016666708,
                    "velocity": 0.7874015748031497,
                    "duration": 0.18269232291666526
                },
                {
                    "name": "B3",
                    "midi": 59,
                    "time": 177.5480917187504,
                    "velocity": 0.7874015748031497,
                    "duration": 0.18269232291666526
                },
                {
                    "name": "C4",
                    "midi": 60,
                    "time": 177.69232250000042,
                    "velocity": 0.7874015748031497,
                    "duration": 0.18269232291666526
                },
                {
                    "name": "C#4",
                    "midi": 61,
                    "time": 177.83655328125042,
                    "velocity": 0.7874015748031497,
                    "duration": 0.18269232291666526
                },
                {
                    "name": "D4",
                    "midi": 62,
                    "time": 177.99039944791707,
                    "velocity": 0.7874015748031497,
                    "duration": 0.18269232291666526
                },
                {
                    "name": "D#4",
                    "midi": 63,
                    "time": 178.1538610000004,
                    "velocity": 0.7874015748031497,
                    "duration": 0.18269232291666526
                },
                {
                    "name": "C4",
                    "midi": 60,
                    "time": 178.30770716666706,
                    "velocity": 0.7874015748031497,
                    "duration": 0.18269232291666526
                },
                {
                    "name": "B3",
                    "midi": 59,
                    "time": 178.4711687187504,
                    "velocity": 0.7874015748031497,
                    "duration": 0.18269232291666526
                },
                {
                    "name": "A#3",
                    "midi": 58,
                    "time": 178.6153995000004,
                    "velocity": 0.7874015748031497,
                    "duration": 0.18269232291666526
                },
                {
                    "name": "A3",
                    "midi": 57,
                    "time": 178.7596302812504,
                    "velocity": 0.7874015748031497,
                    "duration": 0.18269232291666526
                },
                {
                    "name": "G#3",
                    "midi": 56,
                    "time": 178.91347644791705,
                    "velocity": 0.7874015748031497,
                    "duration": 0.18269232291666526
                },
                {
                    "name": "G3",
                    "midi": 55,
                    "time": 179.07693800000038,
                    "velocity": 0.7874015748031497,
                    "duration": 0.45192311458333734
                },
                {
                    "name": "G#2",
                    "midi": 44,
                    "time": 180.15386116666704,
                    "velocity": 0.7874015748031497,
                    "duration": 0.18269232291666526
                },
                {
                    "name": "G2",
                    "midi": 43,
                    "time": 180.31732271875038,
                    "velocity": 0.7874015748031497,
                    "duration": 0.18269232291666526
                },
                {
                    "name": "F2",
                    "midi": 41,
                    "time": 180.46155350000038,
                    "velocity": 0.7874015748031497,
                    "duration": 0.18269232291666526
                },
                {
                    "name": "D#2",
                    "midi": 39,
                    "time": 180.60578428125038,
                    "velocity": 0.7874015748031497,
                    "duration": 0.18269232291666526
                },
                {
                    "name": "D2",
                    "midi": 38,
                    "time": 180.75963044791703,
                    "velocity": 0.7874015748031497,
                    "duration": 0.18269232291666526
                },
                {
                    "name": "C2",
                    "midi": 36,
                    "time": 180.92309200000037,
                    "velocity": 0.7874015748031497,
                    "duration": 0.45192311458333734
                },
                {
                    "name": "C3",
                    "midi": 48,
                    "time": 181.38463050000038,
                    "velocity": 0.7874015748031497,
                    "duration": 0.45192311458333734
                },
                {
                    "name": "G3",
                    "midi": 55,
                    "time": 182.00001516666705,
                    "velocity": 0.7874015748031497,
                    "duration": 0.15384616666665352
                },
                {
                    "name": "F3",
                    "midi": 53,
                    "time": 182.1538613333337,
                    "velocity": 0.7874015748031497,
                    "duration": 0.15384616666665352
                },
                {
                    "name": "D#3",
                    "midi": 51,
                    "time": 182.30770750000036,
                    "velocity": 0.7874015748031497,
                    "duration": 0.15384616666668194
                },
                {
                    "name": "D3",
                    "midi": 50,
                    "time": 182.45193828125036,
                    "velocity": 0.7874015748031497,
                    "duration": 0.15384616666668194
                },
                {
                    "name": "C3",
                    "midi": 48,
                    "time": 182.60578444791705,
                    "velocity": 0.7874015748031497,
                    "duration": 0.15384616666665352
                },
                {
                    "name": "G3",
                    "midi": 55,
                    "time": 182.76924600000038,
                    "velocity": 0.7874015748031497,
                    "duration": 0.11538462500001856
                },
                {
                    "name": "F#3",
                    "midi": 54,
                    "time": 182.8557844687504,
                    "velocity": 0.7874015748031497,
                    "duration": 0.11538462500001856
                },
                {
                    "name": "G3",
                    "midi": 55,
                    "time": 182.95193832291707,
                    "velocity": 0.7874015748031497,
                    "duration": 0.3846154166666622
                },
                {
                    "name": "G2",
                    "midi": 43,
                    "time": 183.2307845000004,
                    "velocity": 0.7874015748031497,
                    "duration": 0.30769233333333545
                },
                {
                    "name": "E2",
                    "midi": 40,
                    "time": 184.6154000000004,
                    "velocity": 0.7874015748031497,
                    "duration": 0.45192311458333734
                },
                {
                    "name": "E3",
                    "midi": 52,
                    "time": 185.0769385000004,
                    "velocity": 0.7874015748031497,
                    "duration": 0.45192311458333734
                },
                {
                    "name": "G3",
                    "midi": 55,
                    "time": 185.69232316666708,
                    "velocity": 0.7874015748031497,
                    "duration": 0.15384616666665352
                },
                {
                    "name": "F3",
                    "midi": 53,
                    "time": 185.84616933333373,
                    "velocity": 0.7874015748031497,
                    "duration": 0.15384616666665352
                },
                {
                    "name": "E3",
                    "midi": 52,
                    "time": 186.0000155000004,
                    "velocity": 0.7874015748031497,
                    "duration": 0.15384616666668194
                },
                {
                    "name": "D3",
                    "midi": 50,
                    "time": 186.1442462812504,
                    "velocity": 0.7874015748031497,
                    "duration": 0.15384616666668194
                },
                {
                    "name": "C3",
                    "midi": 48,
                    "time": 186.29809244791707,
                    "velocity": 0.7874015748031497,
                    "duration": 0.15384616666665352
                },
                {
                    "name": "F3",
                    "midi": 53,
                    "time": 186.4615540000004,
                    "velocity": 0.7874015748031497,
                    "duration": 0.11538462500001856
                },
                {
                    "name": "E3",
                    "midi": 52,
                    "time": 186.5480924687504,
                    "velocity": 0.7874015748031497,
                    "duration": 0.11538462500001856
                },
                {
                    "name": "F3",
                    "midi": 53,
                    "time": 186.6442463229171,
                    "velocity": 0.7874015748031497,
                    "duration": 0.3846154166666622
                },
                {
                    "name": "F2",
                    "midi": 41,
                    "time": 186.92309250000042,
                    "velocity": 0.7874015748031497,
                    "duration": 0.30769233333333545
                },
                {
                    "name": "D2",
                    "midi": 38,
                    "time": 188.30770800000042,
                    "velocity": 0.7874015748031497,
                    "duration": 0.45192311458333734
                },
                {
                    "name": "D3",
                    "midi": 50,
                    "time": 188.76924650000043,
                    "velocity": 0.7874015748031497,
                    "duration": 0.3557692604166789
                },
                {
                    "name": "C3",
                    "midi": 48,
                    "time": 189.69232350000044,
                    "velocity": 0.7874015748031497,
                    "duration": 0.45192311458333734
                },
                {
                    "name": "B2",
                    "midi": 47,
                    "time": 190.15386200000046,
                    "velocity": 0.7874015748031497,
                    "duration": 0.45192311458333734
                },
                {
                    "name": "D3",
                    "midi": 50,
                    "time": 190.61540050000048,
                    "velocity": 0.7874015748031497,
                    "duration": 0.3557692604166789
                },
                {
                    "name": "F3",
                    "midi": 53,
                    "time": 191.0769390000005,
                    "velocity": 0.8267716535433071,
                    "duration": 0.16346155208333357
                },
                {
                    "name": "G2",
                    "midi": 43,
                    "time": 191.23078516666715,
                    "velocity": 0.7874015748031497,
                    "duration": 0.18269232291666526
                },
                {
                    "name": "A2",
                    "midi": 45,
                    "time": 191.39424671875048,
                    "velocity": 0.7874015748031497,
                    "duration": 0.18269232291666526
                },
                {
                    "name": "B2",
                    "midi": 47,
                    "time": 191.53847750000048,
                    "velocity": 0.7874015748031497,
                    "duration": 0.18269232291666526
                },
                {
                    "name": "C3",
                    "midi": 48,
                    "time": 191.68270828125048,
                    "velocity": 0.7874015748031497,
                    "duration": 0.18269232291666526
                },
                {
                    "name": "D3",
                    "midi": 50,
                    "time": 191.83655444791714,
                    "velocity": 0.7874015748031497,
                    "duration": 0.18269232291666526
                },
                {
                    "name": "D#3",
                    "midi": 51,
                    "time": 192.00001600000047,
                    "velocity": 0.7874015748031497,
                    "duration": 0.18269232291666526
                },
                {
                    "name": "C3",
                    "midi": 48,
                    "time": 192.15386216666712,
                    "velocity": 0.7874015748031497,
                    "duration": 0.18269232291666526
                },
                {
                    "name": "A#2",
                    "midi": 46,
                    "time": 192.31732371875046,
                    "velocity": 0.7874015748031497,
                    "duration": 0.18269232291666526
                },
                {
                    "name": "G#2",
                    "midi": 44,
                    "time": 192.46155450000046,
                    "velocity": 0.7874015748031497,
                    "duration": 0.18269232291666526
                },
                {
                    "name": "G2",
                    "midi": 43,
                    "time": 192.60578528125046,
                    "velocity": 0.7874015748031497,
                    "duration": 0.18269232291666526
                },
                {
                    "name": "F2",
                    "midi": 41,
                    "time": 192.75963144791712,
                    "velocity": 0.7874015748031497,
                    "duration": 0.18269232291666526
                },
                {
                    "name": "G2",
                    "midi": 43,
                    "time": 192.92309300000045,
                    "velocity": 0.7874015748031497,
                    "duration": 0.30769233333333545
                },
                {
                    "name": "G3",
                    "midi": 55,
                    "time": 193.38463150000044,
                    "velocity": 0.7874015748031497,
                    "duration": 0.8173077604166679
                },
                {
                    "name": "G#3",
                    "midi": 56,
                    "time": 193.84617000000043,
                    "velocity": 0.7874015748031497,
                    "duration": 0.38461541666669063
                },
                {
                    "name": "D4",
                    "midi": 62,
                    "time": 194.30770850000044,
                    "velocity": 0.7874015748031497,
                    "duration": 0.3846154166666622
                },
                {
                    "name": "F3",
                    "midi": 53,
                    "time": 194.30770850000044,
                    "velocity": 0.7874015748031497,
                    "duration": 0.3846154166666622
                },
                {
                    "name": "A#3",
                    "midi": 58,
                    "time": 194.76924700000043,
                    "velocity": 0.7874015748031497,
                    "duration": 0.3846154166666622
                },
                {
                    "name": "G3",
                    "midi": 55,
                    "time": 194.76924700000043,
                    "velocity": 0.7874015748031497,
                    "duration": 0.3846154166666622
                },
                {
                    "name": "G3",
                    "midi": 55,
                    "time": 195.23078550000042,
                    "velocity": 0.7874015748031497,
                    "duration": 0.3846154166666622
                },
                {
                    "name": "E3",
                    "midi": 52,
                    "time": 195.23078550000042,
                    "velocity": 0.7874015748031497,
                    "duration": 0.3846154166666622
                },
                {
                    "name": "F3",
                    "midi": 53,
                    "time": 195.6923240000004,
                    "velocity": 0.7874015748031497,
                    "duration": 0.45192311458333734
                },
                {
                    "name": "C4",
                    "midi": 60,
                    "time": 196.15386250000043,
                    "velocity": 0.7874015748031497,
                    "duration": 0.45192311458333734
                },
                {
                    "name": "D#3",
                    "midi": 51,
                    "time": 196.15386250000043,
                    "velocity": 0.7874015748031497,
                    "duration": 0.45192311458333734
                },
                {
                    "name": "G#3",
                    "midi": 56,
                    "time": 196.61540100000045,
                    "velocity": 0.7874015748031497,
                    "duration": 0.45192311458333734
                },
                {
                    "name": "F3",
                    "midi": 53,
                    "time": 196.61540100000045,
                    "velocity": 0.7874015748031497,
                    "duration": 0.45192311458333734
                },
                {
                    "name": "F3",
                    "midi": 53,
                    "time": 197.07693950000046,
                    "velocity": 0.7874015748031497,
                    "duration": 0.45192311458333734
                },
                {
                    "name": "D3",
                    "midi": 50,
                    "time": 197.07693950000046,
                    "velocity": 0.7874015748031497,
                    "duration": 0.45192311458333734
                },
                {
                    "name": "D#3",
                    "midi": 51,
                    "time": 197.53847800000048,
                    "velocity": 0.7874015748031497,
                    "duration": 0.45192311458333734
                },
                {
                    "name": "C#3",
                    "midi": 49,
                    "time": 198.0000165000005,
                    "velocity": 0.7874015748031497,
                    "duration": 0.45192311458333734
                },
                {
                    "name": "A#3",
                    "midi": 58,
                    "time": 198.0000165000005,
                    "velocity": 0.7874015748031497,
                    "duration": 0.45192311458333734
                },
                {
                    "name": "G3",
                    "midi": 55,
                    "time": 198.46155500000052,
                    "velocity": 0.7874015748031497,
                    "duration": 0.45192311458333734
                },
                {
                    "name": "D#3",
                    "midi": 51,
                    "time": 198.46155500000052,
                    "velocity": 0.7874015748031497,
                    "duration": 0.45192311458333734
                },
                {
                    "name": "D#3",
                    "midi": 51,
                    "time": 198.92309350000053,
                    "velocity": 0.7874015748031497,
                    "duration": 0.45192311458333734
                },
                {
                    "name": "C3",
                    "midi": 48,
                    "time": 198.92309350000053,
                    "velocity": 0.7874015748031497,
                    "duration": 0.45192311458333734
                },
                {
                    "name": "C3",
                    "midi": 48,
                    "time": 199.38463200000055,
                    "velocity": 0.7874015748031497,
                    "duration": 0.18269232291666526
                },
                {
                    "name": "D3",
                    "midi": 50,
                    "time": 199.38463200000055,
                    "velocity": 0.7874015748031497,
                    "duration": 0.9134616145833263
                },
                {
                    "name": "B2",
                    "midi": 47,
                    "time": 199.5384781666672,
                    "velocity": 0.7874015748031497,
                    "duration": 0.18269232291666526
                },
                {
                    "name": "A2",
                    "midi": 45,
                    "time": 199.70193971875054,
                    "velocity": 0.7874015748031497,
                    "duration": 0.18269232291666526
                },
                {
                    "name": "B2",
                    "midi": 47,
                    "time": 199.84617050000054,
                    "velocity": 0.7874015748031497,
                    "duration": 0.18269232291666526
                },
                {
                    "name": "C3",
                    "midi": 48,
                    "time": 199.99040128125054,
                    "velocity": 0.7874015748031497,
                    "duration": 0.18269232291666526
                },
                {
                    "name": "D3",
                    "midi": 50,
                    "time": 200.1442474479172,
                    "velocity": 0.7874015748031497,
                    "duration": 0.18269232291669368
                },
                {
                    "name": "D#3",
                    "midi": 51,
                    "time": 200.30770900000056,
                    "velocity": 0.7874015748031497,
                    "duration": 0.18269232291666526
                },
                {
                    "name": "C3",
                    "midi": 48,
                    "time": 200.4615551666672,
                    "velocity": 0.7874015748031497,
                    "duration": 0.18269232291666526
                },
                {
                    "name": "D3",
                    "midi": 50,
                    "time": 200.62501671875054,
                    "velocity": 0.7874015748031497,
                    "duration": 0.18269232291666526
                },
                {
                    "name": "D#3",
                    "midi": 51,
                    "time": 200.76924750000055,
                    "velocity": 0.7874015748031497,
                    "duration": 0.18269232291666526
                },
                {
                    "name": "F3",
                    "midi": 53,
                    "time": 200.91347828125055,
                    "velocity": 0.7874015748031497,
                    "duration": 0.18269232291666526
                },
                {
                    "name": "G3",
                    "midi": 55,
                    "time": 201.0673244479172,
                    "velocity": 0.7874015748031497,
                    "duration": 0.18269232291666526
                },
                {
                    "name": "G#3",
                    "midi": 56,
                    "time": 201.23078600000053,
                    "velocity": 0.7874015748031497,
                    "duration": 0.18269232291666526
                },
                {
                    "name": "C4",
                    "midi": 60,
                    "time": 201.3846321666672,
                    "velocity": 0.7874015748031497,
                    "duration": 0.18269232291666526
                },
                {
                    "name": "A#3",
                    "midi": 58,
                    "time": 201.54809371875052,
                    "velocity": 0.7874015748031497,
                    "duration": 0.18269232291666526
                },
                {
                    "name": "G#3",
                    "midi": 56,
                    "time": 201.69232450000052,
                    "velocity": 0.7874015748031497,
                    "duration": 0.18269232291666526
                },
                {
                    "name": "G3",
                    "midi": 55,
                    "time": 201.83655528125053,
                    "velocity": 0.7874015748031497,
                    "duration": 0.18269232291666526
                },
                {
                    "name": "F3",
                    "midi": 53,
                    "time": 201.99040144791718,
                    "velocity": 0.7874015748031497,
                    "duration": 0.18269232291666526
                },
                {
                    "name": "G3",
                    "midi": 55,
                    "time": 202.1538630000005,
                    "velocity": 0.7874015748031497,
                    "duration": 0.18269232291666526
                },
                {
                    "name": "F3",
                    "midi": 53,
                    "time": 202.30770916666717,
                    "velocity": 0.7874015748031497,
                    "duration": 0.18269232291666526
                },
                {
                    "name": "D#3",
                    "midi": 51,
                    "time": 202.4711707187505,
                    "velocity": 0.7874015748031497,
                    "duration": 0.18269232291666526
                },
                {
                    "name": "F3",
                    "midi": 53,
                    "time": 202.6154015000005,
                    "velocity": 0.7874015748031497,
                    "duration": 0.18269232291666526
                },
                {
                    "name": "D#3",
                    "midi": 51,
                    "time": 202.7596322812505,
                    "velocity": 0.7874015748031497,
                    "duration": 0.18269232291666526
                },
                {
                    "name": "D3",
                    "midi": 50,
                    "time": 202.91347844791716,
                    "velocity": 0.7874015748031497,
                    "duration": 0.18269232291666526
                },
                {
                    "name": "D#3",
                    "midi": 51,
                    "time": 203.0769400000005,
                    "velocity": 0.7874015748031497,
                    "duration": 0.18269232291666526
                },
                {
                    "name": "D3",
                    "midi": 50,
                    "time": 203.23078616666714,
                    "velocity": 0.7874015748031497,
                    "duration": 0.18269232291666526
                },
                {
                    "name": "C3",
                    "midi": 48,
                    "time": 203.39424771875048,
                    "velocity": 0.7874015748031497,
                    "duration": 0.18269232291666526
                },
                {
                    "name": "G#3",
                    "midi": 56,
                    "time": 203.53847850000048,
                    "velocity": 0.7874015748031497,
                    "duration": 0.18269232291666526
                },
                {
                    "name": "G3",
                    "midi": 55,
                    "time": 203.68270928125048,
                    "velocity": 0.7874015748031497,
                    "duration": 0.18269232291666526
                },
                {
                    "name": "F3",
                    "midi": 53,
                    "time": 203.83655544791714,
                    "velocity": 0.7874015748031497,
                    "duration": 0.18269232291666526
                },
                {
                    "name": "G3",
                    "midi": 55,
                    "time": 204.00001700000047,
                    "velocity": 0.7874015748031497,
                    "duration": 0.45192311458333734
                },
                {
                    "name": "G2",
                    "midi": 43,
                    "time": 204.4615555000005,
                    "velocity": 0.7874015748031497,
                    "duration": 0.45192311458333734
                },
                {
                    "name": "C2",
                    "midi": 36,
                    "time": 204.9230940000005,
                    "velocity": 0.7874015748031497,
                    "duration": 0.6250000520833225
                },
                {
                    "name": "D#2",
                    "midi": 39,
                    "time": 205.5288632812505,
                    "velocity": 0.7874015748031497,
                    "duration": 0.22115386458332864
                },
                {
                    "name": "G2",
                    "midi": 43,
                    "time": 205.68270944791715,
                    "velocity": 0.7874015748031497,
                    "duration": 0.22115386458332864
                },
                {
                    "name": "C3",
                    "midi": 48,
                    "time": 205.84617100000048,
                    "velocity": 0.7874015748031497,
                    "duration": 0.45192311458333734
                },
                {
                    "name": "G2",
                    "midi": 43,
                    "time": 206.7692480000005,
                    "velocity": 0.7874015748031497,
                    "duration": 0.45192311458333734
                },
                {
                    "name": "G3",
                    "midi": 55,
                    "time": 207.2307865000005,
                    "velocity": 0.7874015748031497,
                    "duration": 0.45192311458333734
                },
                {
                    "name": "D3",
                    "midi": 50,
                    "time": 207.84617116666718,
                    "velocity": 0.7874015748031497,
                    "duration": 0.15384616666665352
                },
                {
                    "name": "C3",
                    "midi": 48,
                    "time": 208.00001733333383,
                    "velocity": 0.7874015748031497,
                    "duration": 0.15384616666665352
                },
                {
                    "name": "A#2",
                    "midi": 46,
                    "time": 208.15386350000048,
                    "velocity": 0.7874015748031497,
                    "duration": 0.15384616666668194
                },
                {
                    "name": "A2",
                    "midi": 45,
                    "time": 208.29809428125048,
                    "velocity": 0.7874015748031497,
                    "duration": 0.15384616666668194
                },
                {
                    "name": "G2",
                    "midi": 43,
                    "time": 208.45194044791717,
                    "velocity": 0.7874015748031497,
                    "duration": 0.15384616666665352
                },
                {
                    "name": "D3",
                    "midi": 50,
                    "time": 208.6154020000005,
                    "velocity": 0.7874015748031497,
                    "duration": 0.45192311458333734
                },
                {
                    "name": "D2",
                    "midi": 38,
                    "time": 209.07694050000052,
                    "velocity": 0.7874015748031497,
                    "duration": 0.30769233333333545
                },
                {
                    "name": "F#2",
                    "midi": 42,
                    "time": 210.4615560000005,
                    "velocity": 0.7874015748031497,
                    "duration": 0.45192311458333734
                },
                {
                    "name": "F#3",
                    "midi": 54,
                    "time": 210.92309450000053,
                    "velocity": 0.7874015748031497,
                    "duration": 0.45192311458333734
                },
                {
                    "name": "A3",
                    "midi": 57,
                    "time": 211.5384791666672,
                    "velocity": 0.7874015748031497,
                    "duration": 0.15384616666665352
                },
                {
                    "name": "G3",
                    "midi": 55,
                    "time": 211.69232533333386,
                    "velocity": 0.7874015748031497,
                    "duration": 0.15384616666665352
                },
                {
                    "name": "F#3",
                    "midi": 54,
                    "time": 211.8461715000005,
                    "velocity": 0.7874015748031497,
                    "duration": 0.15384616666668194
                },
                {
                    "name": "E3",
                    "midi": 52,
                    "time": 211.9904022812505,
                    "velocity": 0.7874015748031497,
                    "duration": 0.15384616666668194
                },
                {
                    "name": "D3",
                    "midi": 50,
                    "time": 212.1442484479172,
                    "velocity": 0.7874015748031497,
                    "duration": 0.15384616666665352
                },
                {
                    "name": "G3",
                    "midi": 55,
                    "time": 212.30771000000053,
                    "velocity": 0.7874015748031497,
                    "duration": 0.45192311458333734
                },
                {
                    "name": "G2",
                    "midi": 43,
                    "time": 212.76924850000054,
                    "velocity": 0.7874015748031497,
                    "duration": 0.30769233333333545
                },
                {
                    "name": "B3",
                    "midi": 59,
                    "time": 214.15386400000054,
                    "velocity": 0.7874015748031497,
                    "duration": 0.45192311458333734
                },
                {
                    "name": "G2",
                    "midi": 43,
                    "time": 215.07694100000055,
                    "velocity": 0.7874015748031497,
                    "duration": 0.22115386458332864
                },
                {
                    "name": "B2",
                    "midi": 47,
                    "time": 215.2307871666672,
                    "velocity": 0.7874015748031497,
                    "duration": 0.22115386458335706
                },
                {
                    "name": "D3",
                    "midi": 50,
                    "time": 215.38463333333388,
                    "velocity": 0.7874015748031497,
                    "duration": 0.22115386458335706
                },
                {
                    "name": "G3",
                    "midi": 55,
                    "time": 215.53847950000056,
                    "velocity": 0.7874015748031497,
                    "duration": 0.22115386458332864
                },
                {
                    "name": "B3",
                    "midi": 59,
                    "time": 215.68271028125056,
                    "velocity": 0.7874015748031497,
                    "duration": 0.22115386458332864
                },
                {
                    "name": "D4",
                    "midi": 62,
                    "time": 215.83655644791722,
                    "velocity": 0.7874015748031497,
                    "duration": 0.22115386458332864
                },
                {
                    "name": "C4",
                    "midi": 60,
                    "time": 216.00001800000055,
                    "velocity": 0.7874015748031497,
                    "duration": 0.30769233333333545
                },
                {
                    "name": "C3",
                    "midi": 48,
                    "time": 216.46155650000054,
                    "velocity": 0.7874015748031497,
                    "duration": 0.5769231250000075
                },
                {
                    "name": "D#3",
                    "midi": 51,
                    "time": 217.0769411666672,
                    "velocity": 0.7874015748031497,
                    "duration": 0.22115386458332864
                },
                {
                    "name": "G3",
                    "midi": 55,
                    "time": 217.23078733333386,
                    "velocity": 0.7874015748031497,
                    "duration": 0.22115386458335706
                },
                {
                    "name": "C4",
                    "midi": 60,
                    "time": 217.38463350000055,
                    "velocity": 0.7874015748031497,
                    "duration": 0.22115386458332864
                },
                {
                    "name": "D#4",
                    "midi": 63,
                    "time": 217.52886428125055,
                    "velocity": 0.7874015748031497,
                    "duration": 0.22115386458332864
                },
                {
                    "name": "G4",
                    "midi": 67,
                    "time": 217.6827104479172,
                    "velocity": 0.7874015748031497,
                    "duration": 0.22115386458332864
                },
                {
                    "name": "A3",
                    "midi": 57,
                    "time": 217.84617200000054,
                    "velocity": 0.7874015748031497,
                    "duration": 0.45192311458333734
                },
                {
                    "name": "F2",
                    "midi": 41,
                    "time": 218.76924900000054,
                    "velocity": 0.7874015748031497,
                    "duration": 0.22115386458332864
                },
                {
                    "name": "A2",
                    "midi": 45,
                    "time": 218.9230951666672,
                    "velocity": 0.7874015748031497,
                    "duration": 0.22115386458335706
                },
                {
                    "name": "C3",
                    "midi": 48,
                    "time": 219.07694133333388,
                    "velocity": 0.7874015748031497,
                    "duration": 0.22115386458335706
                },
                {
                    "name": "F3",
                    "midi": 53,
                    "time": 219.23078750000056,
                    "velocity": 0.7874015748031497,
                    "duration": 0.22115386458332864
                },
                {
                    "name": "A3",
                    "midi": 57,
                    "time": 219.37501828125056,
                    "velocity": 0.7874015748031497,
                    "duration": 0.22115386458332864
                },
                {
                    "name": "C4",
                    "midi": 60,
                    "time": 219.52886444791721,
                    "velocity": 0.7874015748031497,
                    "duration": 0.22115386458332864
                },
                {
                    "name": "A#3",
                    "midi": 58,
                    "time": 219.69232600000055,
                    "velocity": 0.7874015748031497,
                    "duration": 0.30769233333333545
                },
                {
                    "name": "A#2",
                    "midi": 46,
                    "time": 220.15386450000054,
                    "velocity": 0.7874015748031497,
                    "duration": 0.5769231250000075
                },
                {
                    "name": "D3",
                    "midi": 50,
                    "time": 220.7692491666672,
                    "velocity": 0.7874015748031497,
                    "duration": 0.22115386458332864
                },
                {
                    "name": "F3",
                    "midi": 53,
                    "time": 220.92309533333386,
                    "velocity": 0.7874015748031497,
                    "duration": 0.22115386458335706
                },
                {
                    "name": "A#3",
                    "midi": 58,
                    "time": 221.07694150000054,
                    "velocity": 0.7874015748031497,
                    "duration": 0.22115386458332864
                },
                {
                    "name": "D4",
                    "midi": 62,
                    "time": 221.22117228125055,
                    "velocity": 0.7874015748031497,
                    "duration": 0.22115386458332864
                },
                {
                    "name": "F4",
                    "midi": 65,
                    "time": 221.3750184479172,
                    "velocity": 0.7874015748031497,
                    "duration": 0.22115386458332864
                },
                {
                    "name": "D#4",
                    "midi": 63,
                    "time": 221.53848000000053,
                    "velocity": 0.7874015748031497,
                    "duration": 0.45192311458333734
                },
                {
                    "name": "D#3",
                    "midi": 51,
                    "time": 222.00001850000055,
                    "velocity": 0.7874015748031497,
                    "duration": 0.45192311458333734
                },
                {
                    "name": "D3",
                    "midi": 50,
                    "time": 222.61540316666722,
                    "velocity": 0.7874015748031497,
                    "duration": 0.17307693750001363
                },
                {
                    "name": "D#3",
                    "midi": 51,
                    "time": 222.77886471875055,
                    "velocity": 0.7874015748031497,
                    "duration": 0.17307693750001363
                },
                {
                    "name": "E3",
                    "midi": 52,
                    "time": 222.92309550000056,
                    "velocity": 0.7874015748031497,
                    "duration": 0.17307693750001363
                },
                {
                    "name": "F3",
                    "midi": 53,
                    "time": 223.06732628125056,
                    "velocity": 0.7874015748031497,
                    "duration": 0.17307693750001363
                },
                {
                    "name": "F#3",
                    "midi": 54,
                    "time": 223.22117244791724,
                    "velocity": 0.7874015748031497,
                    "duration": 0.17307693750001363
                },
                {
                    "name": "G3",
                    "midi": 55,
                    "time": 223.38463400000057,
                    "velocity": 0.7874015748031497,
                    "duration": 0.07692308333335518
                },
                {
                    "name": "F#3",
                    "midi": 54,
                    "time": 223.45194169791725,
                    "velocity": 0.7874015748031497,
                    "duration": 0.07692308333335518
                },
                {
                    "name": "G3",
                    "midi": 55,
                    "time": 223.51924939583392,
                    "velocity": 0.7874015748031497,
                    "duration": 0.5769231250000075
                },
                {
                    "name": "G#3",
                    "midi": 56,
                    "time": 224.46155716666726,
                    "velocity": 0.7874015748031497,
                    "duration": 0.17307693750001363
                },
                {
                    "name": "G3",
                    "midi": 55,
                    "time": 224.6250187187506,
                    "velocity": 0.7874015748031497,
                    "duration": 0.17307693750001363
                },
                {
                    "name": "F#3",
                    "midi": 54,
                    "time": 224.7692495000006,
                    "velocity": 0.7874015748031497,
                    "duration": 0.17307693750001363
                },
                {
                    "name": "F3",
                    "midi": 53,
                    "time": 224.9134802812506,
                    "velocity": 0.7874015748031497,
                    "duration": 0.17307693750001363
                },
                {
                    "name": "E3",
                    "midi": 52,
                    "time": 225.06732644791728,
                    "velocity": 0.7874015748031497,
                    "duration": 0.17307693750001363
                },
                {
                    "name": "G#3",
                    "midi": 56,
                    "time": 225.23078800000062,
                    "velocity": 0.7874015748031497,
                    "duration": 0.45192311458333734
                },
                {
                    "name": "G#2",
                    "midi": 44,
                    "time": 225.69232650000063,
                    "velocity": 0.7874015748031497,
                    "duration": 0.7115385208333294
                },
                {
                    "name": "G2",
                    "midi": 43,
                    "time": 226.3077111666673,
                    "velocity": 0.7874015748031497,
                    "duration": 0.17307693750001363
                },
                {
                    "name": "G#2",
                    "midi": 44,
                    "time": 226.47117271875064,
                    "velocity": 0.7874015748031497,
                    "duration": 0.17307693750001363
                },
                {
                    "name": "A2",
                    "midi": 45,
                    "time": 226.61540350000064,
                    "velocity": 0.7874015748031497,
                    "duration": 0.17307693750001363
                },
                {
                    "name": "A#2",
                    "midi": 46,
                    "time": 226.75963428125064,
                    "velocity": 0.7874015748031497,
                    "duration": 0.17307693750001363
                },
                {
                    "name": "B2",
                    "midi": 47,
                    "time": 226.91348044791732,
                    "velocity": 0.7874015748031497,
                    "duration": 0.17307693750001363
                },
                {
                    "name": "C3",
                    "midi": 48,
                    "time": 227.07694200000066,
                    "velocity": 0.7874015748031497,
                    "duration": 0.08653846875003524
                },
                {
                    "name": "B2",
                    "midi": 47,
                    "time": 227.153865083334,
                    "velocity": 0.7874015748031497,
                    "duration": 0.08653846875000681
                },
                {
                    "name": "C3",
                    "midi": 48,
                    "time": 227.24040355208402,
                    "velocity": 0.7874015748031497,
                    "duration": 0.5769231250000075
                },
                {
                    "name": "C#3",
                    "midi": 49,
                    "time": 228.15386516666737,
                    "velocity": 0.7874015748031497,
                    "duration": 0.17307693750001363
                },
                {
                    "name": "C3",
                    "midi": 48,
                    "time": 228.3173267187507,
                    "velocity": 0.7874015748031497,
                    "duration": 0.17307693750001363
                },
                {
                    "name": "B2",
                    "midi": 47,
                    "time": 228.4615575000007,
                    "velocity": 0.7874015748031497,
                    "duration": 0.17307693750001363
                },
                {
                    "name": "A#2",
                    "midi": 46,
                    "time": 228.6057882812507,
                    "velocity": 0.7874015748031497,
                    "duration": 0.17307693750001363
                },
                {
                    "name": "A2",
                    "midi": 45,
                    "time": 228.7596344479174,
                    "velocity": 0.7874015748031497,
                    "duration": 0.17307693750001363
                },
                {
                    "name": "C#3",
                    "midi": 49,
                    "time": 228.92309600000073,
                    "velocity": 0.7874015748031497,
                    "duration": 0.45192311458333734
                },
                {
                    "name": "C#4",
                    "midi": 61,
                    "time": 229.38463450000074,
                    "velocity": 0.7874015748031497,
                    "duration": 0.7115385208333294
                },
                {
                    "name": "C4",
                    "midi": 60,
                    "time": 230.0000191666674,
                    "velocity": 0.7874015748031497,
                    "duration": 0.17307693750001363
                },
                {
                    "name": "C#4",
                    "midi": 61,
                    "time": 230.16348071875075,
                    "velocity": 0.7874015748031497,
                    "duration": 0.17307693750001363
                },
                {
                    "name": "D4",
                    "midi": 62,
                    "time": 230.30771150000075,
                    "velocity": 0.7874015748031497,
                    "duration": 0.17307693750001363
                },
                {
                    "name": "D#4",
                    "midi": 63,
                    "time": 230.45194228125075,
                    "velocity": 0.7874015748031497,
                    "duration": 0.17307693750001363
                },
                {
                    "name": "E4",
                    "midi": 64,
                    "time": 230.60578844791743,
                    "velocity": 0.7874015748031497,
                    "duration": 0.17307693750001363
                },
                {
                    "name": "F4",
                    "midi": 65,
                    "time": 230.76925000000077,
                    "velocity": 0.7874015748031497,
                    "duration": 0.08653846875003524
                },
                {
                    "name": "E4",
                    "midi": 64,
                    "time": 230.84617308333412,
                    "velocity": 0.7874015748031497,
                    "duration": 0.08653846875000681
                },
                {
                    "name": "F4",
                    "midi": 65,
                    "time": 230.93271155208413,
                    "velocity": 0.7874015748031497,
                    "duration": 0.5769231250000075
                },
                {
                    "name": "F3",
                    "midi": 53,
                    "time": 231.84617316666748,
                    "velocity": 0.7874015748031497,
                    "duration": 0.17307693750001363
                },
                {
                    "name": "E3",
                    "midi": 52,
                    "time": 232.00963471875082,
                    "velocity": 0.7874015748031497,
                    "duration": 0.17307693750001363
                },
                {
                    "name": "F3",
                    "midi": 53,
                    "time": 232.15386550000082,
                    "velocity": 0.7874015748031497,
                    "duration": 0.17307693750001363
                },
                {
                    "name": "G3",
                    "midi": 55,
                    "time": 232.29809628125082,
                    "velocity": 0.7874015748031497,
                    "duration": 0.17307693750001363
                },
                {
                    "name": "G#3",
                    "midi": 56,
                    "time": 232.4519424479175,
                    "velocity": 0.7874015748031497,
                    "duration": 0.17307693750001363
                },
                {
                    "name": "A#3",
                    "midi": 58,
                    "time": 232.61540400000084,
                    "velocity": 0.7874015748031497,
                    "duration": 0.19230770833334532
                },
                {
                    "name": "G#3",
                    "midi": 56,
                    "time": 232.76925016666752,
                    "velocity": 0.7874015748031497,
                    "duration": 0.19230770833334532
                },
                {
                    "name": "G3",
                    "midi": 55,
                    "time": 232.93271171875085,
                    "velocity": 0.7874015748031497,
                    "duration": 0.19230770833334532
                },
                {
                    "name": "G#3",
                    "midi": 56,
                    "time": 233.07694250000085,
                    "velocity": 0.7874015748031497,
                    "duration": 0.19230770833334532
                },
                {
                    "name": "A#3",
                    "midi": 58,
                    "time": 233.22117328125086,
                    "velocity": 0.7874015748031497,
                    "duration": 0.19230770833334532
                },
                {
                    "name": "C4",
                    "midi": 60,
                    "time": 233.37501944791754,
                    "velocity": 0.7874015748031497,
                    "duration": 0.19230770833334532
                },
                {
                    "name": "C#4",
                    "midi": 61,
                    "time": 233.53848100000087,
                    "velocity": 0.7874015748031497,
                    "duration": 0.30769233333333545
                },
                {
                    "name": "A#3",
                    "midi": 58,
                    "time": 234.00001950000086,
                    "velocity": 0.7874015748031497,
                    "duration": 0.30769233333333545
                },
                {
                    "name": "C4",
                    "midi": 60,
                    "time": 234.46155800000085,
                    "velocity": 0.7874015748031497,
                    "duration": 0.30769233333333545
                },
                {
                    "name": "C3",
                    "midi": 48,
                    "time": 234.92309650000084,
                    "velocity": 0.7874015748031497,
                    "duration": 0.6346154375000026
                },
                {
                    "name": "E3",
                    "midi": 52,
                    "time": 235.5384811666675,
                    "velocity": 0.7874015748031497,
                    "duration": 0.19230770833334532
                },
                {
                    "name": "G3",
                    "midi": 55,
                    "time": 235.70194271875084,
                    "velocity": 0.7874015748031497,
                    "duration": 0.19230770833334532
                },
                {
                    "name": "A#3",
                    "midi": 58,
                    "time": 235.84617350000084,
                    "velocity": 0.7874015748031497,
                    "duration": 0.19230770833334532
                },
                {
                    "name": "A3",
                    "midi": 57,
                    "time": 235.99040428125085,
                    "velocity": 0.7874015748031497,
                    "duration": 0.19230770833334532
                },
                {
                    "name": "G3",
                    "midi": 55,
                    "time": 236.14425044791753,
                    "velocity": 0.7874015748031497,
                    "duration": 0.19230770833334532
                },
                {
                    "name": "F#3",
                    "midi": 54,
                    "time": 236.30771200000086,
                    "velocity": 0.7874015748031497,
                    "duration": 0.211538479166677
                },
                {
                    "name": "D#4",
                    "midi": 63,
                    "time": 236.46155816666754,
                    "velocity": 0.7874015748031497,
                    "duration": 0.211538479166677
                },
                {
                    "name": "C4",
                    "midi": 60,
                    "time": 236.62501971875088,
                    "velocity": 0.7874015748031497,
                    "duration": 0.211538479166677
                },
                {
                    "name": "F#3",
                    "midi": 54,
                    "time": 236.76925050000088,
                    "velocity": 0.7874015748031497,
                    "duration": 0.211538479166677
                },
                {
                    "name": "A2",
                    "midi": 45,
                    "time": 236.76925050000088,
                    "velocity": 0.7874015748031497,
                    "duration": 0.45192311458333734
                },
                {
                    "name": "D#4",
                    "midi": 63,
                    "time": 236.91348128125088,
                    "velocity": 0.7874015748031497,
                    "duration": 0.211538479166677
                },
                {
                    "name": "C4",
                    "midi": 60,
                    "time": 237.06732744791756,
                    "velocity": 0.7874015748031497,
                    "duration": 0.211538479166677
                },
                {
                    "name": "F#3",
                    "midi": 54,
                    "time": 237.2307890000009,
                    "velocity": 0.7874015748031497,
                    "duration": 0.211538479166677
                },
                {
                    "name": "A2",
                    "midi": 45,
                    "time": 237.2307890000009,
                    "velocity": 0.7874015748031497,
                    "duration": 0.45192311458336576
                },
                {
                    "name": "D#4",
                    "midi": 63,
                    "time": 237.38463516666758,
                    "velocity": 0.7874015748031497,
                    "duration": 0.211538479166677
                },
                {
                    "name": "C4",
                    "midi": 60,
                    "time": 237.5480967187509,
                    "velocity": 0.7874015748031497,
                    "duration": 0.21153847916670543
                },
                {
                    "name": "F#3",
                    "midi": 54,
                    "time": 237.69232750000094,
                    "velocity": 0.7874015748031497,
                    "duration": 0.211538479166677
                },
                {
                    "name": "D#4",
                    "midi": 63,
                    "time": 237.83655828125094,
                    "velocity": 0.7874015748031497,
                    "duration": 0.211538479166677
                },
                {
                    "name": "C4",
                    "midi": 60,
                    "time": 237.99040444791763,
                    "velocity": 0.7874015748031497,
                    "duration": 0.211538479166677
                },
                {
                    "name": "F3",
                    "midi": 53,
                    "time": 238.15386600000096,
                    "velocity": 0.7874015748031497,
                    "duration": 0.211538479166677
                },
                {
                    "name": "C#4",
                    "midi": 61,
                    "time": 238.30771216666764,
                    "velocity": 0.7874015748031497,
                    "duration": 0.211538479166677
                },
                {
                    "name": "A#3",
                    "midi": 58,
                    "time": 238.47117371875098,
                    "velocity": 0.7874015748031497,
                    "duration": 0.211538479166677
                },
                {
                    "name": "F3",
                    "midi": 53,
                    "time": 238.61540450000098,
                    "velocity": 0.7874015748031497,
                    "duration": 0.211538479166677
                },
                {
                    "name": "A#2",
                    "midi": 46,
                    "time": 238.61540450000098,
                    "velocity": 0.7874015748031497,
                    "duration": 0.45192311458333734
                },
                {
                    "name": "C#4",
                    "midi": 61,
                    "time": 238.75963528125098,
                    "velocity": 0.7874015748031497,
                    "duration": 0.211538479166677
                },
                {
                    "name": "A#3",
                    "midi": 58,
                    "time": 238.91348144791766,
                    "velocity": 0.7874015748031497,
                    "duration": 0.211538479166677
                },
                {
                    "name": "F3",
                    "midi": 53,
                    "time": 239.076943000001,
                    "velocity": 0.7874015748031497,
                    "duration": 0.211538479166677
                },
                {
                    "name": "A#2",
                    "midi": 46,
                    "time": 239.076943000001,
                    "velocity": 0.7874015748031497,
                    "duration": 0.45192311458336576
                },
                {
                    "name": "C#4",
                    "midi": 61,
                    "time": 239.23078916666768,
                    "velocity": 0.7874015748031497,
                    "duration": 0.211538479166677
                },
                {
                    "name": "A#3",
                    "midi": 58,
                    "time": 239.394250718751,
                    "velocity": 0.7874015748031497,
                    "duration": 0.21153847916670543
                },
                {
                    "name": "F3",
                    "midi": 53,
                    "time": 239.53848150000104,
                    "velocity": 0.7874015748031497,
                    "duration": 0.211538479166677
                },
                {
                    "name": "C#4",
                    "midi": 61,
                    "time": 239.68271228125104,
                    "velocity": 0.7874015748031497,
                    "duration": 0.211538479166677
                },
                {
                    "name": "A#3",
                    "midi": 58,
                    "time": 239.83655844791772,
                    "velocity": 0.7874015748031497,
                    "duration": 0.211538479166677
                },
                {
                    "name": "E3",
                    "midi": 52,
                    "time": 240.00002000000106,
                    "velocity": 0.7874015748031497,
                    "duration": 0.211538479166677
                },
                {
                    "name": "C#4",
                    "midi": 61,
                    "time": 240.15386616666774,
                    "velocity": 0.7874015748031497,
                    "duration": 0.211538479166677
                },
                {
                    "name": "A#3",
                    "midi": 58,
                    "time": 240.31732771875107,
                    "velocity": 0.7874015748031497,
                    "duration": 0.211538479166677
                },
                {
                    "name": "E3",
                    "midi": 52,
                    "time": 240.46155850000108,
                    "velocity": 0.7874015748031497,
                    "duration": 0.211538479166677
                },
                {
                    "name": "G2",
                    "midi": 43,
                    "time": 240.46155850000108,
                    "velocity": 0.7874015748031497,
                    "duration": 0.45192311458333734
                },
                {
                    "name": "C#4",
                    "midi": 61,
                    "time": 240.60578928125108,
                    "velocity": 0.7874015748031497,
                    "duration": 0.211538479166677
                },
                {
                    "name": "A#3",
                    "midi": 58,
                    "time": 240.75963544791776,
                    "velocity": 0.7874015748031497,
                    "duration": 0.211538479166677
                },
                {
                    "name": "E3",
                    "midi": 52,
                    "time": 240.9230970000011,
                    "velocity": 0.7874015748031497,
                    "duration": 0.211538479166677
                },
                {
                    "name": "G2",
                    "midi": 43,
                    "time": 240.9230970000011,
                    "velocity": 0.7874015748031497,
                    "duration": 0.45192311458336576
                },
                {
                    "name": "C#4",
                    "midi": 61,
                    "time": 241.07694316666777,
                    "velocity": 0.7874015748031497,
                    "duration": 0.211538479166677
                },
                {
                    "name": "A#3",
                    "midi": 58,
                    "time": 241.2404047187511,
                    "velocity": 0.7874015748031497,
                    "duration": 0.21153847916670543
                },
                {
                    "name": "E3",
                    "midi": 52,
                    "time": 241.38463550000114,
                    "velocity": 0.7874015748031497,
                    "duration": 0.211538479166677
                },
                {
                    "name": "C#4",
                    "midi": 61,
                    "time": 241.52886628125114,
                    "velocity": 0.7874015748031497,
                    "duration": 0.211538479166677
                },
                {
                    "name": "A#3",
                    "midi": 58,
                    "time": 241.68271244791782,
                    "velocity": 0.7874015748031497,
                    "duration": 0.211538479166677
                },
                {
                    "name": "D#3",
                    "midi": 51,
                    "time": 241.84617400000116,
                    "velocity": 0.7874015748031497,
                    "duration": 0.211538479166677
                },
                {
                    "name": "C4",
                    "midi": 60,
                    "time": 242.00002016666784,
                    "velocity": 0.7874015748031497,
                    "duration": 0.211538479166677
                },
                {
                    "name": "G#3",
                    "midi": 56,
                    "time": 242.16348171875117,
                    "velocity": 0.7874015748031497,
                    "duration": 0.211538479166677
                },
                {
                    "name": "D#3",
                    "midi": 51,
                    "time": 242.30771250000117,
                    "velocity": 0.7874015748031497,
                    "duration": 0.211538479166677
                },
                {
                    "name": "G#2",
                    "midi": 44,
                    "time": 242.30771250000117,
                    "velocity": 0.7874015748031497,
                    "duration": 0.45192311458333734
                },
                {
                    "name": "C4",
                    "midi": 60,
                    "time": 242.45194328125118,
                    "velocity": 0.7874015748031497,
                    "duration": 0.211538479166677
                },
                {
                    "name": "G#3",
                    "midi": 56,
                    "time": 242.60578944791786,
                    "velocity": 0.7874015748031497,
                    "duration": 0.211538479166677
                },
                {
                    "name": "D#3",
                    "midi": 51,
                    "time": 242.7692510000012,
                    "velocity": 0.7874015748031497,
                    "duration": 0.211538479166677
                },
                {
                    "name": "G#2",
                    "midi": 44,
                    "time": 242.7692510000012,
                    "velocity": 0.7874015748031497,
                    "duration": 0.45192311458336576
                },
                {
                    "name": "C4",
                    "midi": 60,
                    "time": 242.92309716666787,
                    "velocity": 0.7874015748031497,
                    "duration": 0.211538479166677
                },
                {
                    "name": "G#3",
                    "midi": 56,
                    "time": 243.0865587187512,
                    "velocity": 0.7874015748031497,
                    "duration": 0.21153847916670543
                },
                {
                    "name": "D#3",
                    "midi": 51,
                    "time": 243.23078950000124,
                    "velocity": 0.7874015748031497,
                    "duration": 0.211538479166677
                },
                {
                    "name": "C3",
                    "midi": 48,
                    "time": 243.23078950000124,
                    "velocity": 0.7874015748031497,
                    "duration": 0.3076923333333639
                },
                {
                    "name": "C4",
                    "midi": 60,
                    "time": 243.37502028125124,
                    "velocity": 0.7874015748031497,
                    "duration": 0.21153847916670543
                },
                {
                    "name": "G#3",
                    "midi": 56,
                    "time": 243.52886644791792,
                    "velocity": 0.7874015748031497,
                    "duration": 0.21153847916670543
                },
                {
                    "name": "F3",
                    "midi": 53,
                    "time": 243.69232800000128,
                    "velocity": 0.7874015748031497,
                    "duration": 0.18269232291669368
                },
                {
                    "name": "C#3",
                    "midi": 49,
                    "time": 243.69232800000128,
                    "velocity": 0.7874015748031497,
                    "duration": 0.45192311458333734
                },
                {
                    "name": "G3",
                    "midi": 55,
                    "time": 243.84617416666796,
                    "velocity": 0.7874015748031497,
                    "duration": 0.18269232291666526
                },
                {
                    "name": "G#3",
                    "midi": 56,
                    "time": 244.0096357187513,
                    "velocity": 0.7874015748031497,
                    "duration": 0.18269232291666526
                },
                {
                    "name": "A#3",
                    "midi": 58,
                    "time": 244.1538665000013,
                    "velocity": 0.7874015748031497,
                    "duration": 0.18269232291666526
                },
                {
                    "name": "C4",
                    "midi": 60,
                    "time": 244.2980972812513,
                    "velocity": 0.7874015748031497,
                    "duration": 0.18269232291666526
                },
                {
                    "name": "C#4",
                    "midi": 61,
                    "time": 244.45194344791796,
                    "velocity": 0.7874015748031497,
                    "duration": 0.18269232291666526
                },
                {
                    "name": "D#3",
                    "midi": 51,
                    "time": 244.6154050000013,
                    "velocity": 0.7874015748031497,
                    "duration": 0.18269232291666526
                },
                {
                    "name": "C#4",
                    "midi": 61,
                    "time": 244.76925116666794,
                    "velocity": 0.7874015748031497,
                    "duration": 0.18269232291666526
                },
                {
                    "name": "C4",
                    "midi": 60,
                    "time": 244.93271271875128,
                    "velocity": 0.7874015748031497,
                    "duration": 0.18269232291666526
                },
                {
                    "name": "A#3",
                    "midi": 58,
                    "time": 245.07694350000128,
                    "velocity": 0.7874015748031497,
                    "duration": 0.18269232291666526
                },
                {
                    "name": "D#3",
                    "midi": 51,
                    "time": 245.07694350000128,
                    "velocity": 0.7874015748031497,
                    "duration": 0.45192311458333734
                },
                {
                    "name": "G#3",
                    "midi": 56,
                    "time": 245.22117428125128,
                    "velocity": 0.7874015748031497,
                    "duration": 0.18269232291666526
                },
                {
                    "name": "G3",
                    "midi": 55,
                    "time": 245.37502044791793,
                    "velocity": 0.7874015748031497,
                    "duration": 0.18269232291669368
                },
                {
                    "name": "G#3",
                    "midi": 56,
                    "time": 245.5384820000013,
                    "velocity": 0.7874015748031497,
                    "duration": 0.18269232291666526
                },
                {
                    "name": "F3",
                    "midi": 53,
                    "time": 245.5384820000013,
                    "velocity": 0.7874015748031497,
                    "duration": 0.4519231145833089
                },
                {
                    "name": "A#3",
                    "midi": 58,
                    "time": 245.69232816666795,
                    "velocity": 0.7874015748031497,
                    "duration": 0.18269232291666526
                },
                {
                    "name": "C4",
                    "midi": 60,
                    "time": 245.85578971875128,
                    "velocity": 0.7874015748031497,
                    "duration": 0.18269232291666526
                },
                {
                    "name": "C#4",
                    "midi": 61,
                    "time": 246.00002050000128,
                    "velocity": 0.7874015748031497,
                    "duration": 0.18269232291666526
                },
                {
                    "name": "D#4",
                    "midi": 63,
                    "time": 246.1442512812513,
                    "velocity": 0.7874015748031497,
                    "duration": 0.18269232291666526
                },
                {
                    "name": "F4",
                    "midi": 65,
                    "time": 246.29809744791794,
                    "velocity": 0.7874015748031497,
                    "duration": 0.18269232291666526
                },
                {
                    "name": "G3",
                    "midi": 55,
                    "time": 246.46155900000127,
                    "velocity": 0.7874015748031497,
                    "duration": 0.18269232291666526
                },
                {
                    "name": "F4",
                    "midi": 65,
                    "time": 246.61540516666793,
                    "velocity": 0.7874015748031497,
                    "duration": 0.18269232291666526
                },
                {
                    "name": "D#4",
                    "midi": 63,
                    "time": 246.77886671875126,
                    "velocity": 0.7874015748031497,
                    "duration": 0.18269232291666526
                },
                {
                    "name": "C#4",
                    "midi": 61,
                    "time": 246.92309750000126,
                    "velocity": 0.7874015748031497,
                    "duration": 0.18269232291666526
                },
                {
                    "name": "G3",
                    "midi": 55,
                    "time": 246.92309750000126,
                    "velocity": 0.7874015748031497,
                    "duration": 0.45192311458333734
                },
                {
                    "name": "C4",
                    "midi": 60,
                    "time": 247.06732828125126,
                    "velocity": 0.7874015748031497,
                    "duration": 0.18269232291666526
                },
                {
                    "name": "A#3",
                    "midi": 58,
                    "time": 247.22117444791792,
                    "velocity": 0.7874015748031497,
                    "duration": 0.18269232291669368
                },
                {
                    "name": "G#3",
                    "midi": 56,
                    "time": 247.38463600000128,
                    "velocity": 0.7874015748031497,
                    "duration": 0.45192311458333734
                },
                {
                    "name": "D#3",
                    "midi": 51,
                    "time": 248.76925150000127,
                    "velocity": 0.7874015748031497,
                    "duration": 0.45192311458333734
                },
                {
                    "name": "G#2",
                    "midi": 44,
                    "time": 249.2307900000013,
                    "velocity": 0.7874015748031497,
                    "duration": 0.45192311458333734
                },
                {
                    "name": "C4",
                    "midi": 60,
                    "time": 250.1538670000013,
                    "velocity": 0.7874015748031497,
                    "duration": 0.45192311458333734
                },
                {
                    "name": "C#4",
                    "midi": 61,
                    "time": 251.0769440000013,
                    "velocity": 0.7874015748031497,
                    "duration": 0.18269232291666526
                },
                {
                    "name": "F4",
                    "midi": 65,
                    "time": 251.23079016666796,
                    "velocity": 0.7874015748031497,
                    "duration": 0.18269232291666526
                },
                {
                    "name": "G#4",
                    "midi": 68,
                    "time": 251.3942517187513,
                    "velocity": 0.7874015748031497,
                    "duration": 0.18269232291666526
                },
                {
                    "name": "C5",
                    "midi": 72,
                    "time": 251.5384825000013,
                    "velocity": 0.7874015748031497,
                    "duration": 0.30769233333333545
                },
                {
                    "name": "C#4",
                    "midi": 61,
                    "time": 252.00002100000128,
                    "velocity": 0.7874015748031497,
                    "duration": 0.30769233333333545
                },
                {
                    "name": "C5",
                    "midi": 72,
                    "time": 252.46155950000127,
                    "velocity": 0.7874015748031497,
                    "duration": 0.30769233333333545
                },
                {
                    "name": "D4",
                    "midi": 62,
                    "time": 252.92309800000126,
                    "velocity": 0.7874015748031497,
                    "duration": 0.18269232291666526
                },
                {
                    "name": "F4",
                    "midi": 65,
                    "time": 253.07694416666791,
                    "velocity": 0.7874015748031497,
                    "duration": 0.18269232291666526
                },
                {
                    "name": "G#4",
                    "midi": 68,
                    "time": 253.24040571875125,
                    "velocity": 0.7874015748031497,
                    "duration": 0.18269232291666526
                },
                {
                    "name": "B4",
                    "midi": 71,
                    "time": 253.38463650000125,
                    "velocity": 0.7874015748031497,
                    "duration": 0.30769233333333545
                },
                {
                    "name": "D4",
                    "midi": 62,
                    "time": 253.84617500000124,
                    "velocity": 0.7874015748031497,
                    "duration": 0.30769233333333545
                },
                {
                    "name": "B4",
                    "midi": 71,
                    "time": 254.30771350000123,
                    "velocity": 0.7874015748031497,
                    "duration": 0.30769233333333545
                },
                {
                    "name": "C4",
                    "midi": 60,
                    "time": 254.76925200000122,
                    "velocity": 0.7874015748031497,
                    "duration": 0.18269232291666526
                },
                {
                    "name": "F4",
                    "midi": 65,
                    "time": 254.92309816666787,
                    "velocity": 0.7874015748031497,
                    "duration": 0.18269232291666526
                },
                {
                    "name": "G#4",
                    "midi": 68,
                    "time": 255.0865597187512,
                    "velocity": 0.7874015748031497,
                    "duration": 0.18269232291666526
                },
                {
                    "name": "C5",
                    "midi": 72,
                    "time": 255.2307905000012,
                    "velocity": 0.7874015748031497,
                    "duration": 0.30769233333333545
                },
                {
                    "name": "C4",
                    "midi": 60,
                    "time": 255.6923290000012,
                    "velocity": 0.7874015748031497,
                    "duration": 0.30769233333333545
                },
                {
                    "name": "C5",
                    "midi": 72,
                    "time": 256.1538675000012,
                    "velocity": 0.7874015748031497,
                    "duration": 0.30769233333330703
                },
                {
                    "name": "B3",
                    "midi": 59,
                    "time": 256.61540600000114,
                    "velocity": 0.7874015748031497,
                    "duration": 0.18269232291663684
                },
                {
                    "name": "F4",
                    "midi": 65,
                    "time": 256.7692521666678,
                    "velocity": 0.7874015748031497,
                    "duration": 0.18269232291669368
                },
                {
                    "name": "G#4",
                    "midi": 68,
                    "time": 256.93271371875113,
                    "velocity": 0.7874015748031497,
                    "duration": 0.18269232291669368
                },
                {
                    "name": "D5",
                    "midi": 74,
                    "time": 257.07694450000116,
                    "velocity": 0.7874015748031497,
                    "duration": 0.30769233333330703
                },
                {
                    "name": "B3",
                    "midi": 59,
                    "time": 257.5384830000011,
                    "velocity": 0.7874015748031497,
                    "duration": 0.30769233333330703
                },
                {
                    "name": "D5",
                    "midi": 74,
                    "time": 258.0000215000011,
                    "velocity": 0.7874015748031497,
                    "duration": 0.30769233333330703
                },
                {
                    "name": "C4",
                    "midi": 60,
                    "time": 258.46156000000104,
                    "velocity": 0.7874015748031497,
                    "duration": 0.18269232291663684
                },
                {
                    "name": "D#4",
                    "midi": 63,
                    "time": 258.6154061666677,
                    "velocity": 0.7874015748031497,
                    "duration": 0.18269232291669368
                },
                {
                    "name": "G4",
                    "midi": 67,
                    "time": 258.77886771875103,
                    "velocity": 0.7874015748031497,
                    "duration": 0.18269232291669368
                },
                {
                    "name": "D#4",
                    "midi": 63,
                    "time": 259.84617550000104,
                    "velocity": 0.7874015748031497,
                    "duration": 0.18269232291663684
                },
                {
                    "name": "D4",
                    "midi": 62,
                    "time": 259.990406281251,
                    "velocity": 0.7874015748031497,
                    "duration": 0.18269232291663684
                },
                {
                    "name": "C4",
                    "midi": 60,
                    "time": 260.14425244791767,
                    "velocity": 0.7874015748031497,
                    "duration": 0.18269232291669368
                },
                {
                    "name": "A#3",
                    "midi": 58,
                    "time": 260.307714000001,
                    "velocity": 0.7874015748031497,
                    "duration": 0.18269232291669368
                },
                {
                    "name": "D4",
                    "midi": 62,
                    "time": 260.4615601666677,
                    "velocity": 0.7874015748031497,
                    "duration": 0.18269232291669368
                },
                {
                    "name": "F4",
                    "midi": 65,
                    "time": 260.62502171875104,
                    "velocity": 0.7874015748031497,
                    "duration": 0.18269232291669368
                },
                {
                    "name": "C#4",
                    "midi": 61,
                    "time": 261.69232950000105,
                    "velocity": 0.7874015748031497,
                    "duration": 0.18269232291663684
                },
                {
                    "name": "C4",
                    "midi": 60,
                    "time": 261.836560281251,
                    "velocity": 0.7874015748031497,
                    "duration": 0.18269232291663684
                },
                {
                    "name": "A#3",
                    "midi": 58,
                    "time": 261.9904064479177,
                    "velocity": 0.7874015748031497,
                    "duration": 0.18269232291669368
                },
                {
                    "name": "G#3",
                    "midi": 56,
                    "time": 262.153868000001,
                    "velocity": 0.7874015748031497,
                    "duration": 0.21153847916673385
                },
                {
                    "name": "G#4",
                    "midi": 68,
                    "time": 262.3077141666677,
                    "velocity": 0.7874015748031497,
                    "duration": 0.211538479166677
                },
                {
                    "name": "G#3",
                    "midi": 56,
                    "time": 262.6154065000011,
                    "velocity": 0.7874015748031497,
                    "duration": 0.21153847916662016
                },
                {
                    "name": "G4",
                    "midi": 67,
                    "time": 262.75963728125106,
                    "velocity": 0.7874015748031497,
                    "duration": 0.21153847916662016
                },
                {
                    "name": "G#3",
                    "midi": 56,
                    "time": 263.076945000001,
                    "velocity": 0.7874015748031497,
                    "duration": 0.211538479166677
                },
                {
                    "name": "F4",
                    "midi": 65,
                    "time": 263.23079116666764,
                    "velocity": 0.7874015748031497,
                    "duration": 0.211538479166677
                },
                {
                    "name": "G#3",
                    "midi": 56,
                    "time": 263.538483500001,
                    "velocity": 0.7874015748031497,
                    "duration": 0.21153847916662016
                },
                {
                    "name": "D#4",
                    "midi": 63,
                    "time": 263.682714281251,
                    "velocity": 0.7874015748031497,
                    "duration": 0.21153847916662016
                },
                {
                    "name": "A3",
                    "midi": 57,
                    "time": 264.0000220000009,
                    "velocity": 0.7874015748031497,
                    "duration": 0.211538479166677
                },
                {
                    "name": "D#4",
                    "midi": 63,
                    "time": 264.15386816666756,
                    "velocity": 0.7874015748031497,
                    "duration": 0.211538479166677
                },
                {
                    "name": "A3",
                    "midi": 57,
                    "time": 264.4615605000009,
                    "velocity": 0.7874015748031497,
                    "duration": 0.21153847916662016
                },
                {
                    "name": "D#4",
                    "midi": 63,
                    "time": 264.6057912812509,
                    "velocity": 0.7874015748031497,
                    "duration": 0.21153847916662016
                },
                {
                    "name": "A3",
                    "midi": 57,
                    "time": 264.92309900000083,
                    "velocity": 0.7874015748031497,
                    "duration": 0.211538479166677
                },
                {
                    "name": "D4",
                    "midi": 62,
                    "time": 265.0769451666675,
                    "velocity": 0.7874015748031497,
                    "duration": 0.211538479166677
                },
                {
                    "name": "A3",
                    "midi": 57,
                    "time": 265.38463750000085,
                    "velocity": 0.7874015748031497,
                    "duration": 0.21153847916662016
                },
                {
                    "name": "C4",
                    "midi": 60,
                    "time": 265.5288682812508,
                    "velocity": 0.7874015748031497,
                    "duration": 0.21153847916662016
                },
                {
                    "name": "G3",
                    "midi": 55,
                    "time": 265.84617600000075,
                    "velocity": 0.7874015748031497,
                    "duration": 0.18269232291663684
                },
                {
                    "name": "C4",
                    "midi": 60,
                    "time": 266.0000221666674,
                    "velocity": 0.7874015748031497,
                    "duration": 0.18269232291669368
                },
                {
                    "name": "B3",
                    "midi": 59,
                    "time": 266.16348371875074,
                    "velocity": 0.7874015748031497,
                    "duration": 0.18269232291669368
                },
                {
                    "name": "C4",
                    "midi": 60,
                    "time": 266.30771450000077,
                    "velocity": 0.7874015748031497,
                    "duration": 0.18269232291663684
                },
                {
                    "name": "C#4",
                    "midi": 61,
                    "time": 266.45194528125074,
                    "velocity": 0.7874015748031497,
                    "duration": 0.18269232291663684
                },
                {
                    "name": "D4",
                    "midi": 62,
                    "time": 266.6057914479174,
                    "velocity": 0.7874015748031497,
                    "duration": 0.18269232291669368
                },
                {
                    "name": "D#4",
                    "midi": 63,
                    "time": 266.76925300000073,
                    "velocity": 0.7874015748031497,
                    "duration": 0.18269232291669368
                },
                {
                    "name": "C4",
                    "midi": 60,
                    "time": 266.92309916666744,
                    "velocity": 0.7874015748031497,
                    "duration": 0.18269232291669368
                },
                {
                    "name": "B3",
                    "midi": 59,
                    "time": 267.0865607187508,
                    "velocity": 0.7874015748031497,
                    "duration": 0.18269232291669368
                },
                {
                    "name": "A#3",
                    "midi": 58,
                    "time": 267.2307915000008,
                    "velocity": 0.7874015748031497,
                    "duration": 0.18269232291663684
                },
                {
                    "name": "A3",
                    "midi": 57,
                    "time": 267.3750222812508,
                    "velocity": 0.7874015748031497,
                    "duration": 0.18269232291663684
                },
                {
                    "name": "G#3",
                    "midi": 56,
                    "time": 267.52886844791743,
                    "velocity": 0.7874015748031497,
                    "duration": 0.18269232291669368
                },
                {
                    "name": "G3",
                    "midi": 55,
                    "time": 267.69233000000077,
                    "velocity": 0.7874015748031497,
                    "duration": 0.45192311458333734
                },
                {
                    "name": "G#2",
                    "midi": 44,
                    "time": 268.76925316666745,
                    "velocity": 0.7874015748031497,
                    "duration": 0.18269232291669368
                },
                {
                    "name": "G2",
                    "midi": 43,
                    "time": 268.9327147187508,
                    "velocity": 0.7874015748031497,
                    "duration": 0.18269232291669368
                },
                {
                    "name": "F2",
                    "midi": 41,
                    "time": 269.0769455000008,
                    "velocity": 0.7874015748031497,
                    "duration": 0.18269232291663684
                },
                {
                    "name": "D#2",
                    "midi": 39,
                    "time": 269.2211762812508,
                    "velocity": 0.7874015748031497,
                    "duration": 0.18269232291663684
                },
                {
                    "name": "D2",
                    "midi": 38,
                    "time": 269.37502244791744,
                    "velocity": 0.7874015748031497,
                    "duration": 0.18269232291669368
                },
                {
                    "name": "C2",
                    "midi": 36,
                    "time": 269.5384840000008,
                    "velocity": 0.7874015748031497,
                    "duration": 0.45192311458333734
                },
                {
                    "name": "C3",
                    "midi": 48,
                    "time": 270.0000225000008,
                    "velocity": 0.7874015748031497,
                    "duration": 0.45192311458333734
                },
                {
                    "name": "G3",
                    "midi": 55,
                    "time": 270.61540716666747,
                    "velocity": 0.7874015748031497,
                    "duration": 0.15384616666665352
                },
                {
                    "name": "F3",
                    "midi": 53,
                    "time": 270.7692533333341,
                    "velocity": 0.7874015748031497,
                    "duration": 0.15384616666665352
                },
                {
                    "name": "D#3",
                    "midi": 51,
                    "time": 270.9230995000008,
                    "velocity": 0.7874015748031497,
                    "duration": 0.15384616666665352
                },
                {
                    "name": "D3",
                    "midi": 50,
                    "time": 271.06733028125075,
                    "velocity": 0.7874015748031497,
                    "duration": 0.15384616666665352
                },
                {
                    "name": "C3",
                    "midi": 48,
                    "time": 271.2211764479174,
                    "velocity": 0.7874015748031497,
                    "duration": 0.15384616666665352
                },
                {
                    "name": "G3",
                    "midi": 55,
                    "time": 271.38463800000073,
                    "velocity": 0.7874015748031497,
                    "duration": 0.11538462499999014
                },
                {
                    "name": "F#3",
                    "midi": 54,
                    "time": 271.47117646875074,
                    "velocity": 0.7874015748031497,
                    "duration": 0.11538462499999014
                },
                {
                    "name": "G3",
                    "midi": 55,
                    "time": 271.56733032291737,
                    "velocity": 0.7874015748031497,
                    "duration": 0.38461541666669063
                },
                {
                    "name": "G2",
                    "midi": 43,
                    "time": 271.84617650000075,
                    "velocity": 0.7874015748031497,
                    "duration": 0.30769233333330703
                },
                {
                    "name": "E2",
                    "midi": 40,
                    "time": 273.23079200000075,
                    "velocity": 0.7874015748031497,
                    "duration": 0.45192311458333734
                },
                {
                    "name": "E3",
                    "midi": 52,
                    "time": 273.69233050000076,
                    "velocity": 0.7874015748031497,
                    "duration": 0.45192311458333734
                },
                {
                    "name": "G3",
                    "midi": 55,
                    "time": 274.30771516666744,
                    "velocity": 0.7874015748031497,
                    "duration": 0.15384616666665352
                },
                {
                    "name": "F3",
                    "midi": 53,
                    "time": 274.4615613333341,
                    "velocity": 0.7874015748031497,
                    "duration": 0.15384616666665352
                },
                {
                    "name": "E3",
                    "midi": 52,
                    "time": 274.61540750000074,
                    "velocity": 0.7874015748031497,
                    "duration": 0.15384616666665352
                },
                {
                    "name": "D3",
                    "midi": 50,
                    "time": 274.7596382812507,
                    "velocity": 0.7874015748031497,
                    "duration": 0.15384616666665352
                },
                {
                    "name": "C3",
                    "midi": 48,
                    "time": 274.91348444791737,
                    "velocity": 0.7874015748031497,
                    "duration": 0.15384616666665352
                },
                {
                    "name": "F3",
                    "midi": 53,
                    "time": 275.0769460000007,
                    "velocity": 0.7874015748031497,
                    "duration": 0.11538462499999014
                },
                {
                    "name": "E3",
                    "midi": 52,
                    "time": 275.1634844687507,
                    "velocity": 0.7874015748031497,
                    "duration": 0.11538462499999014
                },
                {
                    "name": "F3",
                    "midi": 53,
                    "time": 275.25963832291734,
                    "velocity": 0.7874015748031497,
                    "duration": 0.38461541666669063
                },
                {
                    "name": "F2",
                    "midi": 41,
                    "time": 275.5384845000007,
                    "velocity": 0.7874015748031497,
                    "duration": 0.30769233333330703
                },
                {
                    "name": "D2",
                    "midi": 38,
                    "time": 276.9231000000007,
                    "velocity": 0.7874015748031497,
                    "duration": 0.45192311458333734
                },
                {
                    "name": "D3",
                    "midi": 50,
                    "time": 277.38463850000073,
                    "velocity": 0.7874015748031497,
                    "duration": 0.35576926041665047
                },
                {
                    "name": "C3",
                    "midi": 48,
                    "time": 278.3077155000007,
                    "velocity": 0.7874015748031497,
                    "duration": 0.45192311458333734
                },
                {
                    "name": "B2",
                    "midi": 47,
                    "time": 278.7692540000007,
                    "velocity": 0.7874015748031497,
                    "duration": 0.45192311458333734
                },
                {
                    "name": "D3",
                    "midi": 50,
                    "time": 279.23079250000075,
                    "velocity": 0.7874015748031497,
                    "duration": 0.35576926041665047
                },
                {
                    "name": "F3",
                    "midi": 53,
                    "time": 279.6923310000007,
                    "velocity": 0.8267716535433071,
                    "duration": 0.16346155208333357
                },
                {
                    "name": "G2",
                    "midi": 43,
                    "time": 279.84617716666736,
                    "velocity": 0.7874015748031497,
                    "duration": 0.18269232291669368
                },
                {
                    "name": "A2",
                    "midi": 45,
                    "time": 280.0096387187507,
                    "velocity": 0.7874015748031497,
                    "duration": 0.18269232291669368
                },
                {
                    "name": "B2",
                    "midi": 47,
                    "time": 280.1538695000007,
                    "velocity": 0.7874015748031497,
                    "duration": 0.18269232291663684
                },
                {
                    "name": "C3",
                    "midi": 48,
                    "time": 280.2981002812507,
                    "velocity": 0.7874015748031497,
                    "duration": 0.18269232291663684
                },
                {
                    "name": "D3",
                    "midi": 50,
                    "time": 280.45194644791735,
                    "velocity": 0.7874015748031497,
                    "duration": 0.18269232291669368
                },
                {
                    "name": "D#3",
                    "midi": 51,
                    "time": 280.6154080000007,
                    "velocity": 0.7874015748031497,
                    "duration": 0.18269232291669368
                },
                {
                    "name": "C3",
                    "midi": 48,
                    "time": 280.7692541666674,
                    "velocity": 0.7874015748031497,
                    "duration": 0.18269232291669368
                },
                {
                    "name": "A#2",
                    "midi": 46,
                    "time": 280.9327157187507,
                    "velocity": 0.7874015748031497,
                    "duration": 0.18269232291669368
                },
                {
                    "name": "G#2",
                    "midi": 44,
                    "time": 281.07694650000076,
                    "velocity": 0.7874015748031497,
                    "duration": 0.18269232291663684
                },
                {
                    "name": "G2",
                    "midi": 43,
                    "time": 281.22117728125073,
                    "velocity": 0.7874015748031497,
                    "duration": 0.18269232291663684
                },
                {
                    "name": "F2",
                    "midi": 41,
                    "time": 281.3750234479174,
                    "velocity": 0.7874015748031497,
                    "duration": 0.18269232291669368
                },
                {
                    "name": "G2",
                    "midi": 43,
                    "time": 281.5384850000007,
                    "velocity": 0.7874015748031497,
                    "duration": 0.3076923333333639
                },
                {
                    "name": "G3",
                    "midi": 55,
                    "time": 282.00002350000074,
                    "velocity": 0.7874015748031497,
                    "duration": 0.8173077604166679
                },
                {
                    "name": "G#3",
                    "midi": 56,
                    "time": 282.46156200000075,
                    "velocity": 0.7874015748031497,
                    "duration": 0.3846154166666338
                },
                {
                    "name": "D4",
                    "midi": 62,
                    "time": 282.9231005000007,
                    "velocity": 0.7874015748031497,
                    "duration": 0.38461541666669063
                },
                {
                    "name": "F3",
                    "midi": 53,
                    "time": 282.9231005000007,
                    "velocity": 0.7874015748031497,
                    "duration": 0.38461541666669063
                },
                {
                    "name": "A#3",
                    "midi": 58,
                    "time": 283.38463900000073,
                    "velocity": 0.7874015748031497,
                    "duration": 0.38461541666669063
                },
                {
                    "name": "G3",
                    "midi": 55,
                    "time": 283.38463900000073,
                    "velocity": 0.7874015748031497,
                    "duration": 0.38461541666669063
                },
                {
                    "name": "G3",
                    "midi": 55,
                    "time": 283.84617750000075,
                    "velocity": 0.7874015748031497,
                    "duration": 0.38461541666669063
                },
                {
                    "name": "E3",
                    "midi": 52,
                    "time": 283.84617750000075,
                    "velocity": 0.7874015748031497,
                    "duration": 0.38461541666669063
                },
                {
                    "name": "F3",
                    "midi": 53,
                    "time": 284.30771600000077,
                    "velocity": 0.7874015748031497,
                    "duration": 0.45192311458333734
                },
                {
                    "name": "C4",
                    "midi": 60,
                    "time": 284.7692545000008,
                    "velocity": 0.7874015748031497,
                    "duration": 0.45192311458333734
                },
                {
                    "name": "D#3",
                    "midi": 51,
                    "time": 284.7692545000008,
                    "velocity": 0.7874015748031497,
                    "duration": 0.45192311458333734
                },
                {
                    "name": "G#3",
                    "midi": 56,
                    "time": 285.2307930000008,
                    "velocity": 0.7874015748031497,
                    "duration": 0.45192311458333734
                },
                {
                    "name": "F3",
                    "midi": 53,
                    "time": 285.2307930000008,
                    "velocity": 0.7874015748031497,
                    "duration": 0.45192311458333734
                },
                {
                    "name": "F3",
                    "midi": 53,
                    "time": 285.6923315000008,
                    "velocity": 0.7874015748031497,
                    "duration": 0.45192311458333734
                },
                {
                    "name": "D3",
                    "midi": 50,
                    "time": 285.6923315000008,
                    "velocity": 0.7874015748031497,
                    "duration": 0.45192311458333734
                },
                {
                    "name": "D#3",
                    "midi": 51,
                    "time": 286.15387000000084,
                    "velocity": 0.7874015748031497,
                    "duration": 0.45192311458333734
                },
                {
                    "name": "C#3",
                    "midi": 49,
                    "time": 286.61540850000085,
                    "velocity": 0.7874015748031497,
                    "duration": 0.45192311458333734
                },
                {
                    "name": "A#3",
                    "midi": 58,
                    "time": 286.61540850000085,
                    "velocity": 0.7874015748031497,
                    "duration": 0.45192311458333734
                },
                {
                    "name": "G3",
                    "midi": 55,
                    "time": 287.07694700000087,
                    "velocity": 0.7874015748031497,
                    "duration": 0.45192311458333734
                },
                {
                    "name": "D#3",
                    "midi": 51,
                    "time": 287.07694700000087,
                    "velocity": 0.7874015748031497,
                    "duration": 0.45192311458333734
                },
                {
                    "name": "D#3",
                    "midi": 51,
                    "time": 287.5384855000009,
                    "velocity": 0.7874015748031497,
                    "duration": 0.45192311458333734
                },
                {
                    "name": "C3",
                    "midi": 48,
                    "time": 287.5384855000009,
                    "velocity": 0.7874015748031497,
                    "duration": 0.45192311458333734
                },
                {
                    "name": "C3",
                    "midi": 48,
                    "time": 288.0000240000009,
                    "velocity": 0.7874015748031497,
                    "duration": 0.18269232291663684
                },
                {
                    "name": "D3",
                    "midi": 50,
                    "time": 288.0000240000009,
                    "velocity": 0.7874015748031497,
                    "duration": 0.9134616145832979
                },
                {
                    "name": "B2",
                    "midi": 47,
                    "time": 288.15387016666756,
                    "velocity": 0.7874015748031497,
                    "duration": 0.18269232291669368
                },
                {
                    "name": "A2",
                    "midi": 45,
                    "time": 288.3173317187509,
                    "velocity": 0.7874015748031497,
                    "duration": 0.18269232291669368
                },
                {
                    "name": "B2",
                    "midi": 47,
                    "time": 288.4615625000009,
                    "velocity": 0.7874015748031497,
                    "duration": 0.18269232291663684
                },
                {
                    "name": "C3",
                    "midi": 48,
                    "time": 288.6057932812509,
                    "velocity": 0.7874015748031497,
                    "duration": 0.18269232291663684
                },
                {
                    "name": "D3",
                    "midi": 50,
                    "time": 288.75963944791755,
                    "velocity": 0.7874015748031497,
                    "duration": 0.18269232291669368
                },
                {
                    "name": "D#3",
                    "midi": 51,
                    "time": 288.9231010000009,
                    "velocity": 0.7874015748031497,
                    "duration": 0.18269232291669368
                },
                {
                    "name": "C3",
                    "midi": 48,
                    "time": 289.0769471666676,
                    "velocity": 0.7874015748031497,
                    "duration": 0.18269232291669368
                },
                {
                    "name": "D3",
                    "midi": 50,
                    "time": 289.2404087187509,
                    "velocity": 0.7874015748031497,
                    "duration": 0.18269232291669368
                },
                {
                    "name": "D#3",
                    "midi": 51,
                    "time": 289.38463950000096,
                    "velocity": 0.7874015748031497,
                    "duration": 0.18269232291663684
                },
                {
                    "name": "F3",
                    "midi": 53,
                    "time": 289.52887028125093,
                    "velocity": 0.7874015748031497,
                    "duration": 0.18269232291663684
                },
                {
                    "name": "G3",
                    "midi": 55,
                    "time": 289.6827164479176,
                    "velocity": 0.7874015748031497,
                    "duration": 0.18269232291669368
                },
                {
                    "name": "G#3",
                    "midi": 56,
                    "time": 289.8461780000009,
                    "velocity": 0.7874015748031497,
                    "duration": 0.18269232291669368
                },
                {
                    "name": "C4",
                    "midi": 60,
                    "time": 290.00002416666763,
                    "velocity": 0.7874015748031497,
                    "duration": 0.18269232291669368
                },
                {
                    "name": "A#3",
                    "midi": 58,
                    "time": 290.16348571875096,
                    "velocity": 0.7874015748031497,
                    "duration": 0.18269232291669368
                },
                {
                    "name": "G#3",
                    "midi": 56,
                    "time": 290.307716500001,
                    "velocity": 0.7874015748031497,
                    "duration": 0.18269232291663684
                },
                {
                    "name": "G3",
                    "midi": 55,
                    "time": 290.45194728125097,
                    "velocity": 0.7874015748031497,
                    "duration": 0.18269232291663684
                },
                {
                    "name": "F3",
                    "midi": 53,
                    "time": 290.6057934479176,
                    "velocity": 0.7874015748031497,
                    "duration": 0.18269232291669368
                },
                {
                    "name": "G3",
                    "midi": 55,
                    "time": 290.76925500000095,
                    "velocity": 0.7874015748031497,
                    "duration": 0.18269232291669368
                },
                {
                    "name": "F3",
                    "midi": 53,
                    "time": 290.92310116666766,
                    "velocity": 0.7874015748031497,
                    "duration": 0.18269232291669368
                },
                {
                    "name": "D#3",
                    "midi": 51,
                    "time": 291.086562718751,
                    "velocity": 0.7874015748031497,
                    "duration": 0.18269232291669368
                },
                {
                    "name": "F3",
                    "midi": 53,
                    "time": 291.230793500001,
                    "velocity": 0.7874015748031497,
                    "duration": 0.18269232291663684
                },
                {
                    "name": "D#3",
                    "midi": 51,
                    "time": 291.375024281251,
                    "velocity": 0.7874015748031497,
                    "duration": 0.18269232291663684
                },
                {
                    "name": "D3",
                    "midi": 50,
                    "time": 291.52887044791765,
                    "velocity": 0.7874015748031497,
                    "duration": 0.18269232291669368
                },
                {
                    "name": "D#3",
                    "midi": 51,
                    "time": 291.692332000001,
                    "velocity": 0.7874015748031497,
                    "duration": 0.18269232291669368
                },
                {
                    "name": "D3",
                    "midi": 50,
                    "time": 291.8461781666677,
                    "velocity": 0.7874015748031497,
                    "duration": 0.18269232291669368
                },
                {
                    "name": "C3",
                    "midi": 48,
                    "time": 292.00963971875103,
                    "velocity": 0.7874015748031497,
                    "duration": 0.18269232291669368
                },
                {
                    "name": "G#3",
                    "midi": 56,
                    "time": 292.15387050000106,
                    "velocity": 0.7874015748031497,
                    "duration": 0.18269232291663684
                },
                {
                    "name": "G3",
                    "midi": 55,
                    "time": 292.29810128125104,
                    "velocity": 0.7874015748031497,
                    "duration": 0.18269232291663684
                },
                {
                    "name": "F3",
                    "midi": 53,
                    "time": 292.4519474479177,
                    "velocity": 0.7874015748031497,
                    "duration": 0.18269232291669368
                },
                {
                    "name": "G3",
                    "midi": 55,
                    "time": 292.615409000001,
                    "velocity": 0.7874015748031497,
                    "duration": 0.45192311458333734
                },
                {
                    "name": "G2",
                    "midi": 43,
                    "time": 293.07694750000104,
                    "velocity": 0.7874015748031497,
                    "duration": 0.45192311458333734
                },
                {
                    "name": "C2",
                    "midi": 36,
                    "time": 293.53848600000106,
                    "velocity": 0.7874015748031497,
                    "duration": 2.7596156145833106
                },
                {
                    "name": "D#2",
                    "midi": 39,
                    "time": 294.14425528125105,
                    "velocity": 0.7874015748031497,
                    "duration": 2.1538463333333198
                },
                {
                    "name": "G2",
                    "midi": 43,
                    "time": 294.2981014479177,
                    "velocity": 0.7874015748031497,
                    "duration": 2.0000001666666662
                },
                {
                    "name": "C3",
                    "midi": 48,
                    "time": 294.46156300000104,
                    "velocity": 0.7874015748031497,
                    "duration": 1.8365386145833327
                }
            ],
            "controlChanges": {
                "7": [
                    {
                        "number": 7,
                        "time": 0,
                        "value": 0.7874015748031497
                    }
                ],
                "10": [
                    {
                        "number": 10,
                        "time": 0,
                        "value": 0.5826771653543307
                    }
                ],
                "32": [
                    {
                        "number": 32,
                        "time": 0,
                        "value": 0
                    }
                ]
            },
            "id": 2,
            "name": "Sequenced by T.L. Hubeart Jr.",
            "instrumentNumber": 6,
            "instrument": "harpsichord",
            "instrumentFamily": "piano",
            "channelNumber": 1,
            "isPercussion": false
        },
        {
            "startTime": 0,
            "duration": 0,
            "length": 0,
            "notes": [],
            "controlChanges": {
                "7": [
                    {
                        "number": 7,
                        "time": 0,
                        "value": 0.7874015748031497
                    }
                ]
            },
            "id": 3,
            "name": "(c) 1996 by T.L. Hubeart Jr."
        },
        {
            "startTime": 0,
            "duration": 0,
            "length": 0,
            "notes": [],
            "controlChanges": {
                "7": [
                    {
                        "number": 7,
                        "time": 0,
                        "value": 0.7874015748031497
                    }
                ]
            },
            "id": 4,
            "name": "Web site: http://members.aol.com/basfawlty"
        }
    ]
}