{
    "header": {
        "PPQ": 384,
        "timeSignature": [
            4,
            4
        ],
        "bpm": 100,
        "name": "untitled"
    },
    "startTime": 0,
    "duration": 149.99999999999812,
    "tracks": [
        {
            "startTime": 0,
            "duration": 0,
            "length": 0,
            "notes": [],
            "controlChanges": {},
            "id": 0,
            "name": "untitled"
        },
        {
            "startTime": 0.3,
            "duration": 149.99374999999816,
            "length": 617,
            "notes": [
                {
                    "name": "G4",
                    "midi": 67,
                    "time": 0.3,
                    "velocity": 0.7874015748031497,
                    "duration": 0.29375
                },
                {
                    "name": "F4",
                    "midi": 65,
                    "time": 0.6,
                    "velocity": 0.7874015748031497,
                    "duration": 0.29374999999999996
                },
                {
                    "name": "G4",
                    "midi": 67,
                    "time": 0.8999999999999999,
                    "velocity": 0.7874015748031497,
                    "duration": 0.29374999999999996
                },
                {
                    "name": "G#4",
                    "midi": 68,
                    "time": 1.2,
                    "velocity": 0.7874015748031497,
                    "duration": 0.19999999999999996
                },
                {
                    "name": "A4",
                    "midi": 69,
                    "time": 1.5,
                    "velocity": 0.7874015748031497,
                    "duration": 0.29374999999999996
                },
                {
                    "name": "G4",
                    "midi": 67,
                    "time": 1.8,
                    "velocity": 0.7874015748031497,
                    "duration": 0.29374999999999996
                },
                {
                    "name": "A4",
                    "midi": 69,
                    "time": 2.1,
                    "velocity": 0.7874015748031497,
                    "duration": 0.29374999999999973
                },
                {
                    "name": "A#4",
                    "midi": 70,
                    "time": 2.4,
                    "velocity": 0.7874015748031497,
                    "duration": 0.20000000000000018
                },
                {
                    "name": "B4",
                    "midi": 71,
                    "time": 2.7,
                    "velocity": 0.7874015748031497,
                    "duration": 0.2937500000000002
                },
                {
                    "name": "A4",
                    "midi": 69,
                    "time": 3.0000000000000004,
                    "velocity": 0.7874015748031497,
                    "duration": 0.29374999999999973
                },
                {
                    "name": "B4",
                    "midi": 71,
                    "time": 3.3000000000000003,
                    "velocity": 0.7874015748031497,
                    "duration": 0.29374999999999973
                },
                {
                    "name": "C5",
                    "midi": 72,
                    "time": 3.6,
                    "velocity": 0.7874015748031497,
                    "duration": 0.20000000000000018
                },
                {
                    "name": "G4",
                    "midi": 67,
                    "time": 3.9000000000000004,
                    "velocity": 0.7874015748031497,
                    "duration": 0.20000000000000018
                },
                {
                    "name": "D5",
                    "midi": 74,
                    "time": 4.2,
                    "velocity": 0.7874015748031497,
                    "duration": 0.20000000000000018
                },
                {
                    "name": "F4",
                    "midi": 65,
                    "time": 4.5,
                    "velocity": 0.7874015748031497,
                    "duration": 0.20000000000000018
                },
                {
                    "name": "D#4",
                    "midi": 63,
                    "time": 4.8,
                    "velocity": 0.7874015748031497,
                    "duration": 0.40000000000000036
                },
                {
                    "name": "G#4",
                    "midi": 68,
                    "time": 5.4,
                    "velocity": 0.7874015748031497,
                    "duration": 0.8937499999999998
                },
                {
                    "name": "G4",
                    "midi": 67,
                    "time": 6.3,
                    "velocity": 0.7874015748031497,
                    "duration": 0.2937500000000002
                },
                {
                    "name": "A#4",
                    "midi": 70,
                    "time": 6.6,
                    "velocity": 0.7874015748031497,
                    "duration": 0.8937499999999998
                },
                {
                    "name": "A4",
                    "midi": 69,
                    "time": 7.499999999999999,
                    "velocity": 0.7874015748031497,
                    "duration": 0.20000000000000018
                },
                {
                    "name": "C5",
                    "midi": 72,
                    "time": 7.799999999999999,
                    "velocity": 0.7874015748031497,
                    "duration": 0.59375
                },
                {
                    "name": "A#4",
                    "midi": 70,
                    "time": 8.399999999999999,
                    "velocity": 0.7874015748031497,
                    "duration": 0.59375
                },
                {
                    "name": "G4",
                    "midi": 67,
                    "time": 8.399999999999999,
                    "velocity": 0.7874015748031497,
                    "duration": 0.1999999999999993
                },
                {
                    "name": "F4",
                    "midi": 65,
                    "time": 8.999999999999998,
                    "velocity": 0.7874015748031497,
                    "duration": 0.59375
                },
                {
                    "name": "A4",
                    "midi": 69,
                    "time": 8.999999999999998,
                    "velocity": 0.7874015748031497,
                    "duration": 0.1999999999999993
                },
                {
                    "name": "G4",
                    "midi": 67,
                    "time": 9.599999999999998,
                    "velocity": 0.7874015748031497,
                    "duration": 0.59375
                },
                {
                    "name": "A#3",
                    "midi": 58,
                    "time": 9.599999999999998,
                    "velocity": 0.7874015748031497,
                    "duration": 0.59375
                },
                {
                    "name": "A#4",
                    "midi": 70,
                    "time": 10.199999999999998,
                    "velocity": 0.7874015748031497,
                    "duration": 0.59375
                },
                {
                    "name": "C#4",
                    "midi": 61,
                    "time": 10.199999999999998,
                    "velocity": 0.7874015748031497,
                    "duration": 0.8937499999999989
                },
                {
                    "name": "D#4",
                    "midi": 63,
                    "time": 10.799999999999997,
                    "velocity": 0.7874015748031497,
                    "duration": 0.5937499999999982
                },
                {
                    "name": "C4",
                    "midi": 60,
                    "time": 11.099999999999996,
                    "velocity": 0.7874015748031497,
                    "duration": 0.2937499999999993
                },
                {
                    "name": "C5",
                    "midi": 72,
                    "time": 11.399999999999995,
                    "velocity": 0.7874015748031497,
                    "duration": 0.59375
                },
                {
                    "name": "D#4",
                    "midi": 63,
                    "time": 11.399999999999995,
                    "velocity": 0.7874015748031497,
                    "duration": 0.8937499999999989
                },
                {
                    "name": "F4",
                    "midi": 65,
                    "time": 11.999999999999995,
                    "velocity": 0.7874015748031497,
                    "duration": 0.5937499999999982
                },
                {
                    "name": "D4",
                    "midi": 62,
                    "time": 12.299999999999994,
                    "velocity": 0.7874015748031497,
                    "duration": 0.2937499999999993
                },
                {
                    "name": "D5",
                    "midi": 74,
                    "time": 12.599999999999993,
                    "velocity": 0.7874015748031497,
                    "duration": 0.8937499999999989
                },
                {
                    "name": "F4",
                    "midi": 65,
                    "time": 12.599999999999993,
                    "velocity": 0.7874015748031497,
                    "duration": 0.59375
                },
                {
                    "name": "D#4",
                    "midi": 63,
                    "time": 13.199999999999992,
                    "velocity": 0.7874015748031497,
                    "duration": 0.5937499999999982
                },
                {
                    "name": "C5",
                    "midi": 72,
                    "time": 13.499999999999991,
                    "velocity": 0.7874015748031497,
                    "duration": 0.5937499999999982
                },
                {
                    "name": "F4",
                    "midi": 65,
                    "time": 13.79999999999999,
                    "velocity": 0.7874015748031497,
                    "duration": 0.2937499999999993
                },
                {
                    "name": "B4",
                    "midi": 71,
                    "time": 14.099999999999989,
                    "velocity": 0.7874015748031497,
                    "duration": 0.2937499999999993
                },
                {
                    "name": "G#4",
                    "midi": 68,
                    "time": 14.099999999999989,
                    "velocity": 0.7874015748031497,
                    "duration": 0.2937499999999993
                },
                {
                    "name": "C5",
                    "midi": 72,
                    "time": 14.399999999999988,
                    "velocity": 0.7874015748031497,
                    "duration": 0.59375
                },
                {
                    "name": "G4",
                    "midi": 67,
                    "time": 14.399999999999988,
                    "velocity": 0.7874015748031497,
                    "duration": 0.59375
                },
                {
                    "name": "C#5",
                    "midi": 73,
                    "time": 14.999999999999988,
                    "velocity": 0.7874015748031497,
                    "duration": 0.59375
                },
                {
                    "name": "E4",
                    "midi": 64,
                    "time": 14.999999999999988,
                    "velocity": 0.7874015748031497,
                    "duration": 0.59375
                },
                {
                    "name": "B4",
                    "midi": 71,
                    "time": 15.599999999999987,
                    "velocity": 0.7874015748031497,
                    "duration": 0.59375
                },
                {
                    "name": "F4",
                    "midi": 65,
                    "time": 15.599999999999987,
                    "velocity": 0.7874015748031497,
                    "duration": 0.59375
                },
                {
                    "name": "A#4",
                    "midi": 70,
                    "time": 16.19999999999999,
                    "velocity": 0.7874015748031497,
                    "duration": 0.59375
                },
                {
                    "name": "G4",
                    "midi": 67,
                    "time": 16.19999999999999,
                    "velocity": 0.7874015748031497,
                    "duration": 0.59375
                },
                {
                    "name": "G#4",
                    "midi": 68,
                    "time": 16.79999999999999,
                    "velocity": 0.7874015748031497,
                    "duration": 0.3999999999999986
                },
                {
                    "name": "D#5",
                    "midi": 75,
                    "time": 17.399999999999988,
                    "velocity": 0.7874015748031497,
                    "duration": 0.59375
                },
                {
                    "name": "F#4",
                    "midi": 66,
                    "time": 17.399999999999988,
                    "velocity": 0.7874015748031497,
                    "duration": 0.59375
                },
                {
                    "name": "C#5",
                    "midi": 73,
                    "time": 17.99999999999999,
                    "velocity": 0.7874015748031497,
                    "duration": 0.59375
                },
                {
                    "name": "G4",
                    "midi": 67,
                    "time": 17.99999999999999,
                    "velocity": 0.7874015748031497,
                    "duration": 0.59375
                },
                {
                    "name": "C5",
                    "midi": 72,
                    "time": 18.59999999999999,
                    "velocity": 0.7874015748031497,
                    "duration": 0.59375
                },
                {
                    "name": "A4",
                    "midi": 69,
                    "time": 18.59999999999999,
                    "velocity": 0.7874015748031497,
                    "duration": 0.59375
                },
                {
                    "name": "A#4",
                    "midi": 70,
                    "time": 19.199999999999992,
                    "velocity": 0.7874015748031497,
                    "duration": 0.59375
                },
                {
                    "name": "D5",
                    "midi": 74,
                    "time": 19.499999999999993,
                    "velocity": 0.7874015748031497,
                    "duration": 0.2937499999999993
                },
                {
                    "name": "C5",
                    "midi": 72,
                    "time": 19.799999999999994,
                    "velocity": 0.7874015748031497,
                    "duration": 0.2937499999999993
                },
                {
                    "name": "G#4",
                    "midi": 68,
                    "time": 19.799999999999994,
                    "velocity": 0.7874015748031497,
                    "duration": 0.8937500000000007
                },
                {
                    "name": "D5",
                    "midi": 74,
                    "time": 20.099999999999994,
                    "velocity": 0.7874015748031497,
                    "duration": 0.2937499999999993
                },
                {
                    "name": "D#5",
                    "midi": 75,
                    "time": 20.399999999999995,
                    "velocity": 0.7874015748031497,
                    "duration": 0.1999999999999993
                },
                {
                    "name": "E5",
                    "midi": 76,
                    "time": 20.699999999999996,
                    "velocity": 0.7874015748031497,
                    "duration": 0.2937499999999993
                },
                {
                    "name": "G4",
                    "midi": 67,
                    "time": 20.699999999999996,
                    "velocity": 0.7874015748031497,
                    "duration": 0.2937499999999993
                },
                {
                    "name": "D5",
                    "midi": 74,
                    "time": 20.999999999999996,
                    "velocity": 0.7874015748031497,
                    "duration": 0.2937499999999993
                },
                {
                    "name": "A#4",
                    "midi": 70,
                    "time": 20.999999999999996,
                    "velocity": 0.7874015748031497,
                    "duration": 0.8937500000000007
                },
                {
                    "name": "E5",
                    "midi": 76,
                    "time": 21.299999999999997,
                    "velocity": 0.7874015748031497,
                    "duration": 0.2937499999999993
                },
                {
                    "name": "F5",
                    "midi": 77,
                    "time": 21.599999999999998,
                    "velocity": 0.7874015748031497,
                    "duration": 0.1999999999999993
                },
                {
                    "name": "F#5",
                    "midi": 78,
                    "time": 21.9,
                    "velocity": 0.7874015748031497,
                    "duration": 0.2937499999999993
                },
                {
                    "name": "A4",
                    "midi": 69,
                    "time": 21.9,
                    "velocity": 0.7874015748031497,
                    "duration": 0.1999999999999993
                },
                {
                    "name": "E5",
                    "midi": 76,
                    "time": 22.2,
                    "velocity": 0.7874015748031497,
                    "duration": 0.2937499999999993
                },
                {
                    "name": "C5",
                    "midi": 72,
                    "time": 22.2,
                    "velocity": 0.7874015748031497,
                    "duration": 0.40000000000000213
                },
                {
                    "name": "F#5",
                    "midi": 78,
                    "time": 22.5,
                    "velocity": 0.7874015748031497,
                    "duration": 0.29375000000000284
                },
                {
                    "name": "G5",
                    "midi": 79,
                    "time": 22.800000000000004,
                    "velocity": 0.7874015748031497,
                    "duration": 0.1999999999999993
                },
                {
                    "name": "A#4",
                    "midi": 70,
                    "time": 22.800000000000004,
                    "velocity": 0.7874015748031497,
                    "duration": 0.40000000000000213
                },
                {
                    "name": "D5",
                    "midi": 74,
                    "time": 23.100000000000005,
                    "velocity": 0.7874015748031497,
                    "duration": 0.20000000000000284
                },
                {
                    "name": "A5",
                    "midi": 81,
                    "time": 23.40000000000001,
                    "velocity": 0.7874015748031497,
                    "duration": 0.1999999999999993
                },
                {
                    "name": "A4",
                    "midi": 69,
                    "time": 23.40000000000001,
                    "velocity": 0.7874015748031497,
                    "duration": 0.40000000000000213
                },
                {
                    "name": "C5",
                    "midi": 72,
                    "time": 23.70000000000001,
                    "velocity": 0.7874015748031497,
                    "duration": 0.20000000000000284
                },
                {
                    "name": "A#4",
                    "midi": 70,
                    "time": 24.000000000000014,
                    "velocity": 0.7874015748031497,
                    "duration": 0.59375
                },
                {
                    "name": "G4",
                    "midi": 67,
                    "time": 24.000000000000014,
                    "velocity": 0.7874015748031497,
                    "duration": 0.59375
                },
                {
                    "name": "G5",
                    "midi": 79,
                    "time": 24.300000000000015,
                    "velocity": 0.7874015748031497,
                    "duration": 0.2937499999999993
                },
                {
                    "name": "F5",
                    "midi": 77,
                    "time": 24.600000000000016,
                    "velocity": 0.7874015748031497,
                    "duration": 0.2937499999999993
                },
                {
                    "name": "G#4",
                    "midi": 68,
                    "time": 24.600000000000016,
                    "velocity": 0.7874015748031497,
                    "duration": 0.59375
                },
                {
                    "name": "G5",
                    "midi": 79,
                    "time": 24.900000000000016,
                    "velocity": 0.7874015748031497,
                    "duration": 0.2937499999999993
                },
                {
                    "name": "A5",
                    "midi": 81,
                    "time": 25.200000000000017,
                    "velocity": 0.7874015748031497,
                    "duration": 0.2937499999999993
                },
                {
                    "name": "F#4",
                    "midi": 66,
                    "time": 25.200000000000017,
                    "velocity": 0.7874015748031497,
                    "duration": 0.59375
                },
                {
                    "name": "D#5",
                    "midi": 75,
                    "time": 25.500000000000018,
                    "velocity": 0.7874015748031497,
                    "duration": 0.1999999999999993
                },
                {
                    "name": "B5",
                    "midi": 83,
                    "time": 25.80000000000002,
                    "velocity": 0.7874015748031497,
                    "duration": 0.1999999999999993
                },
                {
                    "name": "F4",
                    "midi": 65,
                    "time": 25.80000000000002,
                    "velocity": 0.7874015748031497,
                    "duration": 0.59375
                },
                {
                    "name": "D5",
                    "midi": 74,
                    "time": 26.10000000000002,
                    "velocity": 0.7874015748031497,
                    "duration": 0.1999999999999993
                },
                {
                    "name": "C5",
                    "midi": 72,
                    "time": 26.40000000000002,
                    "velocity": 0.7874015748031497,
                    "duration": 0.3999999999999986
                },
                {
                    "name": "D#4",
                    "midi": 63,
                    "time": 26.40000000000002,
                    "velocity": 0.7874015748031497,
                    "duration": 0.2937499999999993
                },
                {
                    "name": "E5",
                    "midi": 76,
                    "time": 27.000000000000018,
                    "velocity": 0.7874015748031497,
                    "duration": 0.59375
                },
                {
                    "name": "A#4",
                    "midi": 70,
                    "time": 27.000000000000018,
                    "velocity": 0.7874015748031497,
                    "duration": 0.2937499999999993
                },
                {
                    "name": "C5",
                    "midi": 72,
                    "time": 27.30000000000002,
                    "velocity": 0.7874015748031497,
                    "duration": 0.2937499999999993
                },
                {
                    "name": "F5",
                    "midi": 77,
                    "time": 27.60000000000002,
                    "velocity": 0.7874015748031497,
                    "duration": 0.59375
                },
                {
                    "name": "D5",
                    "midi": 74,
                    "time": 27.60000000000002,
                    "velocity": 0.7874015748031497,
                    "duration": 0.1999999999999993
                },
                {
                    "name": "G#4",
                    "midi": 68,
                    "time": 27.90000000000002,
                    "velocity": 0.7874015748031497,
                    "duration": 0.1999999999999993
                },
                {
                    "name": "G5",
                    "midi": 79,
                    "time": 28.20000000000002,
                    "velocity": 0.7874015748031497,
                    "duration": 0.59375
                },
                {
                    "name": "E5",
                    "midi": 76,
                    "time": 28.20000000000002,
                    "velocity": 0.7874015748031497,
                    "duration": 0.1999999999999993
                },
                {
                    "name": "G4",
                    "midi": 67,
                    "time": 28.50000000000002,
                    "velocity": 0.7874015748031497,
                    "duration": 0.1999999999999993
                },
                {
                    "name": "G#5",
                    "midi": 80,
                    "time": 28.800000000000022,
                    "velocity": 0.7874015748031497,
                    "duration": 0.3999999999999986
                },
                {
                    "name": "F4",
                    "midi": 65,
                    "time": 28.800000000000022,
                    "velocity": 0.7874015748031497,
                    "duration": 0.3999999999999986
                },
                {
                    "name": "F#5",
                    "midi": 78,
                    "time": 29.40000000000002,
                    "velocity": 0.7874015748031497,
                    "duration": 0.59375
                },
                {
                    "name": "A4",
                    "midi": 69,
                    "time": 29.40000000000002,
                    "velocity": 0.7874015748031497,
                    "duration": 0.59375
                },
                {
                    "name": "E5",
                    "midi": 76,
                    "time": 30.00000000000002,
                    "velocity": 0.7874015748031497,
                    "duration": 0.59375
                },
                {
                    "name": "A#4",
                    "midi": 70,
                    "time": 30.00000000000002,
                    "velocity": 0.7874015748031497,
                    "duration": 0.59375
                },
                {
                    "name": "G4",
                    "midi": 67,
                    "time": 30.00000000000002,
                    "velocity": 0.7874015748031497,
                    "duration": 0.1999999999999993
                },
                {
                    "name": "D#5",
                    "midi": 75,
                    "time": 30.600000000000023,
                    "velocity": 0.7874015748031497,
                    "duration": 0.59375
                },
                {
                    "name": "C5",
                    "midi": 72,
                    "time": 30.600000000000023,
                    "velocity": 0.7874015748031497,
                    "duration": 0.59375
                },
                {
                    "name": "A4",
                    "midi": 69,
                    "time": 30.600000000000023,
                    "velocity": 0.7874015748031497,
                    "duration": 0.1999999999999993
                },
                {
                    "name": "D5",
                    "midi": 74,
                    "time": 31.200000000000024,
                    "velocity": 0.7874015748031497,
                    "duration": 0.3999999999999986
                },
                {
                    "name": "F#5",
                    "midi": 78,
                    "time": 31.800000000000022,
                    "velocity": 0.7874015748031497,
                    "duration": 0.5937500000000036
                },
                {
                    "name": "D#5",
                    "midi": 75,
                    "time": 31.800000000000022,
                    "velocity": 0.7874015748031497,
                    "duration": 0.5937500000000036
                },
                {
                    "name": "G5",
                    "midi": 79,
                    "time": 32.40000000000003,
                    "velocity": 0.7874015748031497,
                    "duration": 0.59375
                },
                {
                    "name": "C#5",
                    "midi": 73,
                    "time": 32.40000000000003,
                    "velocity": 0.7874015748031497,
                    "duration": 0.59375
                },
                {
                    "name": "A5",
                    "midi": 81,
                    "time": 33.00000000000003,
                    "velocity": 0.7874015748031497,
                    "duration": 0.59375
                },
                {
                    "name": "C5",
                    "midi": 72,
                    "time": 33.00000000000003,
                    "velocity": 0.7874015748031497,
                    "duration": 0.59375
                },
                {
                    "name": "D5",
                    "midi": 74,
                    "time": 33.60000000000003,
                    "velocity": 0.7874015748031497,
                    "duration": 0.4000000000000057
                },
                {
                    "name": "A#4",
                    "midi": 70,
                    "time": 33.60000000000003,
                    "velocity": 0.7874015748031497,
                    "duration": 0.29375000000000284
                },
                {
                    "name": "G4",
                    "midi": 67,
                    "time": 33.900000000000034,
                    "velocity": 0.7874015748031497,
                    "duration": 0.29375000000000284
                },
                {
                    "name": "F4",
                    "midi": 65,
                    "time": 34.20000000000004,
                    "velocity": 0.7874015748031497,
                    "duration": 0.29375000000000284
                },
                {
                    "name": "G#5",
                    "midi": 80,
                    "time": 34.20000000000004,
                    "velocity": 0.7874015748031497,
                    "duration": 0.5937500000000071
                },
                {
                    "name": "G4",
                    "midi": 67,
                    "time": 34.50000000000004,
                    "velocity": 0.7874015748031497,
                    "duration": 0.29375000000000284
                },
                {
                    "name": "A4",
                    "midi": 69,
                    "time": 34.80000000000005,
                    "velocity": 0.7874015748031497,
                    "duration": 0.20000000000000284
                },
                {
                    "name": "F#5",
                    "midi": 78,
                    "time": 34.80000000000005,
                    "velocity": 0.7874015748031497,
                    "duration": 0.5937500000000071
                },
                {
                    "name": "D#4",
                    "midi": 63,
                    "time": 35.10000000000005,
                    "velocity": 0.7874015748031497,
                    "duration": 0.20000000000000284
                },
                {
                    "name": "B4",
                    "midi": 71,
                    "time": 35.400000000000055,
                    "velocity": 0.7874015748031497,
                    "duration": 0.20000000000000284
                },
                {
                    "name": "F5",
                    "midi": 77,
                    "time": 35.400000000000055,
                    "velocity": 0.7874015748031497,
                    "duration": 0.5937500000000071
                },
                {
                    "name": "D4",
                    "midi": 62,
                    "time": 35.70000000000006,
                    "velocity": 0.7874015748031497,
                    "duration": 0.20000000000000284
                },
                {
                    "name": "D#5",
                    "midi": 75,
                    "time": 36.000000000000064,
                    "velocity": 0.7874015748031497,
                    "duration": 0.20000000000000284
                },
                {
                    "name": "C4",
                    "midi": 60,
                    "time": 36.000000000000064,
                    "velocity": 0.7874015748031497,
                    "duration": 0.4000000000000057
                },
                {
                    "name": "C5",
                    "midi": 72,
                    "time": 36.30000000000007,
                    "velocity": 0.7874015748031497,
                    "duration": 0.29375000000000284
                },
                {
                    "name": "A#4",
                    "midi": 70,
                    "time": 36.60000000000007,
                    "velocity": 0.7874015748031497,
                    "duration": 0.29375000000000284
                },
                {
                    "name": "C5",
                    "midi": 72,
                    "time": 36.90000000000008,
                    "velocity": 0.7874015748031497,
                    "duration": 0.29375000000000284
                },
                {
                    "name": "D5",
                    "midi": 74,
                    "time": 37.20000000000008,
                    "velocity": 0.7874015748031497,
                    "duration": 0.20000000000000284
                },
                {
                    "name": "G#4",
                    "midi": 68,
                    "time": 37.500000000000085,
                    "velocity": 0.7874015748031497,
                    "duration": 0.20000000000000284
                },
                {
                    "name": "E5",
                    "midi": 76,
                    "time": 37.80000000000009,
                    "velocity": 0.7874015748031497,
                    "duration": 0.20000000000000284
                },
                {
                    "name": "G4",
                    "midi": 67,
                    "time": 38.100000000000094,
                    "velocity": 0.7874015748031497,
                    "duration": 0.20000000000000284
                },
                {
                    "name": "F4",
                    "midi": 65,
                    "time": 38.4000000000001,
                    "velocity": 0.7874015748031497,
                    "duration": 0.3999999999999986
                },
                {
                    "name": "C4",
                    "midi": 60,
                    "time": 38.4000000000001,
                    "velocity": 0.7874015748031497,
                    "duration": 0.3999999999999986
                },
                {
                    "name": "C#5",
                    "midi": 73,
                    "time": 39.0000000000001,
                    "velocity": 0.7874015748031497,
                    "duration": 0.8937499999999972
                },
                {
                    "name": "C5",
                    "midi": 72,
                    "time": 39.9000000000001,
                    "velocity": 0.7874015748031497,
                    "duration": 0.29375000000000284
                },
                {
                    "name": "D#5",
                    "midi": 75,
                    "time": 40.2000000000001,
                    "velocity": 0.7874015748031497,
                    "duration": 0.8937499999999972
                },
                {
                    "name": "D5",
                    "midi": 74,
                    "time": 41.1000000000001,
                    "velocity": 0.7874015748031497,
                    "duration": 0.29375000000000284
                },
                {
                    "name": "F5",
                    "midi": 77,
                    "time": 41.400000000000105,
                    "velocity": 0.7874015748031497,
                    "duration": 0.8937499999999972
                },
                {
                    "name": "D#5",
                    "midi": 75,
                    "time": 42.300000000000104,
                    "velocity": 0.7874015748031497,
                    "duration": 0.14374999999999716
                },
                {
                    "name": "D5",
                    "midi": 74,
                    "time": 42.4500000000001,
                    "velocity": 0.7874015748031497,
                    "duration": 0.14374999999999716
                },
                {
                    "name": "C5",
                    "midi": 72,
                    "time": 42.6000000000001,
                    "velocity": 0.7874015748031497,
                    "duration": 0.29375000000000284
                },
                {
                    "name": "B4",
                    "midi": 71,
                    "time": 42.900000000000105,
                    "velocity": 0.7874015748031497,
                    "duration": 0.29375000000000284
                },
                {
                    "name": "C5",
                    "midi": 72,
                    "time": 43.20000000000011,
                    "velocity": 0.7874015748031497,
                    "duration": 0.3999999999999986
                },
                {
                    "name": "D4",
                    "midi": 62,
                    "time": 43.50000000000011,
                    "velocity": 0.7874015748031497,
                    "duration": 0.29375000000000284
                },
                {
                    "name": "C4",
                    "midi": 60,
                    "time": 43.80000000000011,
                    "velocity": 0.7874015748031497,
                    "duration": 0.29375000000000284
                },
                {
                    "name": "F4",
                    "midi": 65,
                    "time": 43.80000000000011,
                    "velocity": 0.7874015748031497,
                    "duration": 0.5937500000000071
                },
                {
                    "name": "D4",
                    "midi": 62,
                    "time": 44.100000000000115,
                    "velocity": 0.7874015748031497,
                    "duration": 0.29375000000000284
                },
                {
                    "name": "D#4",
                    "midi": 63,
                    "time": 44.40000000000012,
                    "velocity": 0.7874015748031497,
                    "duration": 0.29375000000000284
                },
                {
                    "name": "A#4",
                    "midi": 70,
                    "time": 44.40000000000012,
                    "velocity": 0.7874015748031497,
                    "duration": 0.5937500000000071
                },
                {
                    "name": "E4",
                    "midi": 64,
                    "time": 44.700000000000124,
                    "velocity": 0.7874015748031497,
                    "duration": 0.29375000000000284
                },
                {
                    "name": "D4",
                    "midi": 62,
                    "time": 45.00000000000013,
                    "velocity": 0.7874015748031497,
                    "duration": 0.29375000000000284
                },
                {
                    "name": "G4",
                    "midi": 67,
                    "time": 45.00000000000013,
                    "velocity": 0.7874015748031497,
                    "duration": 0.5937500000000071
                },
                {
                    "name": "E4",
                    "midi": 64,
                    "time": 45.30000000000013,
                    "velocity": 0.7874015748031497,
                    "duration": 0.29375000000000284
                },
                {
                    "name": "C5",
                    "midi": 72,
                    "time": 45.600000000000136,
                    "velocity": 0.7874015748031497,
                    "duration": 0.5937500000000071
                },
                {
                    "name": "F4",
                    "midi": 65,
                    "time": 45.600000000000136,
                    "velocity": 0.7874015748031497,
                    "duration": 0.29375000000000284
                },
                {
                    "name": "F#4",
                    "midi": 66,
                    "time": 45.90000000000014,
                    "velocity": 0.7874015748031497,
                    "duration": 0.29375000000000284
                },
                {
                    "name": "A4",
                    "midi": 69,
                    "time": 46.200000000000145,
                    "velocity": 0.7874015748031497,
                    "duration": 0.5937500000000071
                },
                {
                    "name": "E4",
                    "midi": 64,
                    "time": 46.200000000000145,
                    "velocity": 0.7874015748031497,
                    "duration": 0.29375000000000284
                },
                {
                    "name": "F#4",
                    "midi": 66,
                    "time": 46.50000000000015,
                    "velocity": 0.7874015748031497,
                    "duration": 0.29375000000000284
                },
                {
                    "name": "D5",
                    "midi": 74,
                    "time": 46.80000000000015,
                    "velocity": 0.7874015748031497,
                    "duration": 1.1937500000000156
                },
                {
                    "name": "G4",
                    "midi": 67,
                    "time": 46.80000000000015,
                    "velocity": 0.7874015748031497,
                    "duration": 0.20000000000000284
                },
                {
                    "name": "D4",
                    "midi": 62,
                    "time": 47.10000000000016,
                    "velocity": 0.7874015748031497,
                    "duration": 0.20000000000000284
                },
                {
                    "name": "A4",
                    "midi": 69,
                    "time": 47.40000000000016,
                    "velocity": 0.7874015748031497,
                    "duration": 0.20000000000000284
                },
                {
                    "name": "C4",
                    "midi": 60,
                    "time": 47.700000000000166,
                    "velocity": 0.7874015748031497,
                    "duration": 0.20000000000000284
                },
                {
                    "name": "A#3",
                    "midi": 58,
                    "time": 48.00000000000017,
                    "velocity": 0.7874015748031497,
                    "duration": 0.29375000000000284
                },
                {
                    "name": "B3",
                    "midi": 59,
                    "time": 48.300000000000175,
                    "velocity": 0.7874015748031497,
                    "duration": 0.29375000000000284
                },
                {
                    "name": "G4",
                    "midi": 67,
                    "time": 48.300000000000175,
                    "velocity": 0.7874015748031497,
                    "duration": 0.29375000000000284
                },
                {
                    "name": "A3",
                    "midi": 57,
                    "time": 48.60000000000018,
                    "velocity": 0.7874015748031497,
                    "duration": 0.29375000000000284
                },
                {
                    "name": "F4",
                    "midi": 65,
                    "time": 48.60000000000018,
                    "velocity": 0.7874015748031497,
                    "duration": 0.29375000000000284
                },
                {
                    "name": "B3",
                    "midi": 59,
                    "time": 48.90000000000018,
                    "velocity": 0.7874015748031497,
                    "duration": 0.29375000000000284
                },
                {
                    "name": "G4",
                    "midi": 67,
                    "time": 48.90000000000018,
                    "velocity": 0.7874015748031497,
                    "duration": 0.29375000000000284
                },
                {
                    "name": "C4",
                    "midi": 60,
                    "time": 49.20000000000019,
                    "velocity": 0.7874015748031497,
                    "duration": 1.1937500000000156
                },
                {
                    "name": "G#4",
                    "midi": 68,
                    "time": 49.20000000000019,
                    "velocity": 0.7874015748031497,
                    "duration": 0.29375000000000284
                },
                {
                    "name": "A4",
                    "midi": 69,
                    "time": 49.50000000000019,
                    "velocity": 0.7874015748031497,
                    "duration": 0.29375000000000284
                },
                {
                    "name": "G4",
                    "midi": 67,
                    "time": 49.800000000000196,
                    "velocity": 0.7874015748031497,
                    "duration": 0.29375000000000284
                },
                {
                    "name": "A4",
                    "midi": 69,
                    "time": 50.1000000000002,
                    "velocity": 0.7874015748031497,
                    "duration": 0.29375000000000284
                },
                {
                    "name": "A#4",
                    "midi": 70,
                    "time": 50.400000000000205,
                    "velocity": 0.7874015748031497,
                    "duration": 0.29375000000000284
                },
                {
                    "name": "B4",
                    "midi": 71,
                    "time": 50.70000000000021,
                    "velocity": 0.7874015748031497,
                    "duration": 0.29375000000000284
                },
                {
                    "name": "D4",
                    "midi": 62,
                    "time": 50.70000000000021,
                    "velocity": 0.7874015748031497,
                    "duration": 0.29375000000000284
                },
                {
                    "name": "A4",
                    "midi": 69,
                    "time": 51.00000000000021,
                    "velocity": 0.7874015748031497,
                    "duration": 0.29375000000000284
                },
                {
                    "name": "C4",
                    "midi": 60,
                    "time": 51.00000000000021,
                    "velocity": 0.7874015748031497,
                    "duration": 0.29375000000000284
                },
                {
                    "name": "B4",
                    "midi": 71,
                    "time": 51.30000000000022,
                    "velocity": 0.7874015748031497,
                    "duration": 0.29375000000000284
                },
                {
                    "name": "D4",
                    "midi": 62,
                    "time": 51.30000000000022,
                    "velocity": 0.7874015748031497,
                    "duration": 0.29375000000000284
                },
                {
                    "name": "C5",
                    "midi": 72,
                    "time": 51.60000000000022,
                    "velocity": 0.7874015748031497,
                    "duration": 0.29375000000000284
                },
                {
                    "name": "D#4",
                    "midi": 63,
                    "time": 51.60000000000022,
                    "velocity": 0.7874015748031497,
                    "duration": 0.5937500000000071
                },
                {
                    "name": "G4",
                    "midi": 67,
                    "time": 51.900000000000226,
                    "velocity": 0.7874015748031497,
                    "duration": 0.29375000000000284
                },
                {
                    "name": "D5",
                    "midi": 74,
                    "time": 52.20000000000023,
                    "velocity": 0.7874015748031497,
                    "duration": 0.29375000000000284
                },
                {
                    "name": "D4",
                    "midi": 62,
                    "time": 52.20000000000023,
                    "velocity": 0.7874015748031497,
                    "duration": 0.5937500000000071
                },
                {
                    "name": "F4",
                    "midi": 65,
                    "time": 52.500000000000234,
                    "velocity": 0.7874015748031497,
                    "duration": 0.29375000000000284
                },
                {
                    "name": "D#4",
                    "midi": 63,
                    "time": 52.80000000000024,
                    "velocity": 0.7874015748031497,
                    "duration": 0.20000000000000284
                },
                {
                    "name": "G4",
                    "midi": 67,
                    "time": 53.10000000000024,
                    "velocity": 0.7874015748031497,
                    "duration": 0.29375000000000284
                },
                {
                    "name": "F4",
                    "midi": 65,
                    "time": 53.40000000000025,
                    "velocity": 0.7874015748031497,
                    "duration": 0.29375000000000284
                },
                {
                    "name": "G4",
                    "midi": 67,
                    "time": 53.70000000000025,
                    "velocity": 0.7874015748031497,
                    "duration": 0.29375000000000284
                },
                {
                    "name": "G#4",
                    "midi": 68,
                    "time": 54.000000000000256,
                    "velocity": 0.7874015748031497,
                    "duration": 0.29375000000000284
                },
                {
                    "name": "D#4",
                    "midi": 63,
                    "time": 54.30000000000026,
                    "velocity": 0.7874015748031497,
                    "duration": 0.29375000000000284
                },
                {
                    "name": "A#4",
                    "midi": 70,
                    "time": 54.600000000000264,
                    "velocity": 0.7874015748031497,
                    "duration": 0.29375000000000284
                },
                {
                    "name": "C#4",
                    "midi": 61,
                    "time": 54.90000000000027,
                    "velocity": 0.7874015748031497,
                    "duration": 0.29375000000000284
                },
                {
                    "name": "C4",
                    "midi": 60,
                    "time": 55.20000000000027,
                    "velocity": 0.7874015748031497,
                    "duration": 0.29375000000000284
                },
                {
                    "name": "D#4",
                    "midi": 63,
                    "time": 55.50000000000028,
                    "velocity": 0.7874015748031497,
                    "duration": 0.29375000000000284
                },
                {
                    "name": "D4",
                    "midi": 62,
                    "time": 55.80000000000028,
                    "velocity": 0.7874015748031497,
                    "duration": 0.20000000000000284
                },
                {
                    "name": "E4",
                    "midi": 64,
                    "time": 56.100000000000286,
                    "velocity": 0.7874015748031497,
                    "duration": 0.29375000000000284
                },
                {
                    "name": "F4",
                    "midi": 65,
                    "time": 56.40000000000029,
                    "velocity": 0.7874015748031497,
                    "duration": 0.29375000000000284
                },
                {
                    "name": "C4",
                    "midi": 60,
                    "time": 56.700000000000294,
                    "velocity": 0.7874015748031497,
                    "duration": 0.29375000000000284
                },
                {
                    "name": "G4",
                    "midi": 67,
                    "time": 57.0000000000003,
                    "velocity": 0.7874015748031497,
                    "duration": 0.29375000000000284
                },
                {
                    "name": "A#3",
                    "midi": 58,
                    "time": 57.3000000000003,
                    "velocity": 0.7874015748031497,
                    "duration": 0.29375000000000284
                },
                {
                    "name": "G#3",
                    "midi": 56,
                    "time": 57.60000000000031,
                    "velocity": 0.7874015748031497,
                    "duration": 0.14374999999999716
                },
                {
                    "name": "C4",
                    "midi": 60,
                    "time": 57.750000000000306,
                    "velocity": 0.7874015748031497,
                    "duration": 0.14374999999999716
                },
                {
                    "name": "D4",
                    "midi": 62,
                    "time": 57.900000000000304,
                    "velocity": 0.7874015748031497,
                    "duration": 0.14374999999999716
                },
                {
                    "name": "E4",
                    "midi": 64,
                    "time": 58.0500000000003,
                    "velocity": 0.7874015748031497,
                    "duration": 0.14374999999999716
                },
                {
                    "name": "F4",
                    "midi": 65,
                    "time": 58.2000000000003,
                    "velocity": 0.7874015748031497,
                    "duration": 0.14374999999999716
                },
                {
                    "name": "G4",
                    "midi": 67,
                    "time": 58.3500000000003,
                    "velocity": 0.7874015748031497,
                    "duration": 0.14374999999999716
                },
                {
                    "name": "G#4",
                    "midi": 68,
                    "time": 58.5000000000003,
                    "velocity": 0.7874015748031497,
                    "duration": 0.14374999999999716
                },
                {
                    "name": "A#4",
                    "midi": 70,
                    "time": 58.6500000000003,
                    "velocity": 0.7874015748031497,
                    "duration": 0.14374999999999716
                },
                {
                    "name": "C5",
                    "midi": 72,
                    "time": 58.800000000000296,
                    "velocity": 0.7874015748031497,
                    "duration": 1.1937499999999872
                },
                {
                    "name": "A#4",
                    "midi": 70,
                    "time": 58.950000000000294,
                    "velocity": 0.7874015748031497,
                    "duration": 0.14374999999999716
                },
                {
                    "name": "G#4",
                    "midi": 68,
                    "time": 59.10000000000029,
                    "velocity": 0.7874015748031497,
                    "duration": 0.14374999999999716
                },
                {
                    "name": "G4",
                    "midi": 67,
                    "time": 59.25000000000029,
                    "velocity": 0.7874015748031497,
                    "duration": 0.14374999999999716
                },
                {
                    "name": "F4",
                    "midi": 65,
                    "time": 59.40000000000029,
                    "velocity": 0.7874015748031497,
                    "duration": 0.14374999999999716
                },
                {
                    "name": "D#4",
                    "midi": 63,
                    "time": 59.55000000000029,
                    "velocity": 0.7874015748031497,
                    "duration": 0.14374999999999716
                },
                {
                    "name": "D4",
                    "midi": 62,
                    "time": 59.70000000000029,
                    "velocity": 0.7874015748031497,
                    "duration": 0.14374999999999716
                },
                {
                    "name": "C4",
                    "midi": 60,
                    "time": 59.850000000000286,
                    "velocity": 0.7874015748031497,
                    "duration": 0.14374999999999716
                },
                {
                    "name": "D5",
                    "midi": 74,
                    "time": 60.000000000000284,
                    "velocity": 0.7874015748031497,
                    "duration": 0.14374999999999716
                },
                {
                    "name": "B3",
                    "midi": 59,
                    "time": 60.000000000000284,
                    "velocity": 0.7874015748031497,
                    "duration": 0.14374999999999716
                },
                {
                    "name": "D4",
                    "midi": 62,
                    "time": 60.15000000000028,
                    "velocity": 0.7874015748031497,
                    "duration": 0.14374999999999716
                },
                {
                    "name": "D#4",
                    "midi": 63,
                    "time": 60.30000000000028,
                    "velocity": 0.7874015748031497,
                    "duration": 0.14374999999999716
                },
                {
                    "name": "F4",
                    "midi": 65,
                    "time": 60.45000000000028,
                    "velocity": 0.7874015748031497,
                    "duration": 0.14374999999999716
                },
                {
                    "name": "G4",
                    "midi": 67,
                    "time": 60.60000000000028,
                    "velocity": 0.7874015748031497,
                    "duration": 0.14374999999999716
                },
                {
                    "name": "A4",
                    "midi": 69,
                    "time": 60.75000000000028,
                    "velocity": 0.7874015748031497,
                    "duration": 0.14374999999999716
                },
                {
                    "name": "B4",
                    "midi": 71,
                    "time": 60.900000000000276,
                    "velocity": 0.7874015748031497,
                    "duration": 0.14374999999999716
                },
                {
                    "name": "C5",
                    "midi": 72,
                    "time": 61.050000000000274,
                    "velocity": 0.7874015748031497,
                    "duration": 0.14374999999999716
                },
                {
                    "name": "D5",
                    "midi": 74,
                    "time": 61.20000000000027,
                    "velocity": 0.7874015748031497,
                    "duration": 1.3437499999999858
                },
                {
                    "name": "C5",
                    "midi": 72,
                    "time": 61.35000000000027,
                    "velocity": 0.7874015748031497,
                    "duration": 0.14374999999999716
                },
                {
                    "name": "B4",
                    "midi": 71,
                    "time": 61.50000000000027,
                    "velocity": 0.7874015748031497,
                    "duration": 0.14374999999999716
                },
                {
                    "name": "A4",
                    "midi": 69,
                    "time": 61.65000000000027,
                    "velocity": 0.7874015748031497,
                    "duration": 0.14374999999999716
                },
                {
                    "name": "G4",
                    "midi": 67,
                    "time": 61.80000000000027,
                    "velocity": 0.7874015748031497,
                    "duration": 0.14374999999999716
                },
                {
                    "name": "F4",
                    "midi": 65,
                    "time": 61.950000000000266,
                    "velocity": 0.7874015748031497,
                    "duration": 0.14374999999999716
                },
                {
                    "name": "D#4",
                    "midi": 63,
                    "time": 62.100000000000264,
                    "velocity": 0.7874015748031497,
                    "duration": 0.14374999999999716
                },
                {
                    "name": "D4",
                    "midi": 62,
                    "time": 62.25000000000026,
                    "velocity": 0.7874015748031497,
                    "duration": 0.14374999999999716
                },
                {
                    "name": "D#4",
                    "midi": 63,
                    "time": 62.40000000000026,
                    "velocity": 0.7874015748031497,
                    "duration": 0.5937499999999929
                },
                {
                    "name": "G4",
                    "midi": 67,
                    "time": 62.55000000000026,
                    "velocity": 0.7874015748031497,
                    "duration": 0.14374999999999716
                },
                {
                    "name": "A4",
                    "midi": 69,
                    "time": 62.70000000000026,
                    "velocity": 0.7874015748031497,
                    "duration": 0.14374999999999716
                },
                {
                    "name": "B4",
                    "midi": 71,
                    "time": 62.85000000000026,
                    "velocity": 0.7874015748031497,
                    "duration": 0.14374999999999716
                },
                {
                    "name": "C5",
                    "midi": 72,
                    "time": 63.000000000000256,
                    "velocity": 0.7874015748031497,
                    "duration": 0.14374999999999716
                },
                {
                    "name": "D5",
                    "midi": 74,
                    "time": 63.150000000000254,
                    "velocity": 0.7874015748031497,
                    "duration": 0.14374999999999716
                },
                {
                    "name": "D#5",
                    "midi": 75,
                    "time": 63.30000000000025,
                    "velocity": 0.7874015748031497,
                    "duration": 0.14374999999999716
                },
                {
                    "name": "F5",
                    "midi": 77,
                    "time": 63.45000000000025,
                    "velocity": 0.7874015748031497,
                    "duration": 0.14374999999999716
                },
                {
                    "name": "G5",
                    "midi": 79,
                    "time": 63.60000000000025,
                    "velocity": 0.7874015748031497,
                    "duration": 1.793749999999946
                },
                {
                    "name": "F5",
                    "midi": 77,
                    "time": 63.75000000000025,
                    "velocity": 0.7874015748031497,
                    "duration": 0.14374999999999716
                },
                {
                    "name": "D#5",
                    "midi": 75,
                    "time": 63.90000000000025,
                    "velocity": 0.7874015748031497,
                    "duration": 0.14374999999999716
                },
                {
                    "name": "D5",
                    "midi": 74,
                    "time": 64.05000000000024,
                    "velocity": 0.7874015748031497,
                    "duration": 0.14374999999999716
                },
                {
                    "name": "C5",
                    "midi": 72,
                    "time": 64.20000000000023,
                    "velocity": 0.7874015748031497,
                    "duration": 0.14374999999999716
                },
                {
                    "name": "A#4",
                    "midi": 70,
                    "time": 64.35000000000022,
                    "velocity": 0.7874015748031497,
                    "duration": 0.14374999999999716
                },
                {
                    "name": "G#4",
                    "midi": 68,
                    "time": 64.50000000000021,
                    "velocity": 0.7874015748031497,
                    "duration": 0.14374999999999716
                },
                {
                    "name": "G4",
                    "midi": 67,
                    "time": 64.6500000000002,
                    "velocity": 0.7874015748031497,
                    "duration": 0.14374999999999716
                },
                {
                    "name": "G#4",
                    "midi": 68,
                    "time": 64.8000000000002,
                    "velocity": 0.7874015748031497,
                    "duration": 1.1937499999999943
                },
                {
                    "name": "F5",
                    "midi": 77,
                    "time": 65.40000000000019,
                    "velocity": 0.7874015748031497,
                    "duration": 1.1937499999999943
                },
                {
                    "name": "G4",
                    "midi": 67,
                    "time": 66.00000000000018,
                    "velocity": 0.7874015748031497,
                    "duration": 1.1937499999999943
                },
                {
                    "name": "D#5",
                    "midi": 75,
                    "time": 66.60000000000018,
                    "velocity": 0.7874015748031497,
                    "duration": 1.1937499999999943
                },
                {
                    "name": "F4",
                    "midi": 65,
                    "time": 67.20000000000017,
                    "velocity": 0.7874015748031497,
                    "duration": 1.7937499999999886
                },
                {
                    "name": "D5",
                    "midi": 74,
                    "time": 67.80000000000017,
                    "velocity": 0.7874015748031497,
                    "duration": 0.29375000000000284
                },
                {
                    "name": "C5",
                    "midi": 72,
                    "time": 68.10000000000016,
                    "velocity": 0.7874015748031497,
                    "duration": 0.29375000000000284
                },
                {
                    "name": "D5",
                    "midi": 74,
                    "time": 68.40000000000016,
                    "velocity": 0.7874015748031497,
                    "duration": 0.29375000000000284
                },
                {
                    "name": "B4",
                    "midi": 71,
                    "time": 68.70000000000016,
                    "velocity": 0.7874015748031497,
                    "duration": 0.29375000000000284
                },
                {
                    "name": "G4",
                    "midi": 67,
                    "time": 69.00000000000016,
                    "velocity": 0.7874015748031497,
                    "duration": 0.29375000000000284
                },
                {
                    "name": "D#4",
                    "midi": 63,
                    "time": 69.00000000000016,
                    "velocity": 0.7874015748031497,
                    "duration": 0.59375
                },
                {
                    "name": "C5",
                    "midi": 72,
                    "time": 69.30000000000015,
                    "velocity": 0.7874015748031497,
                    "duration": 0.29375000000000284
                },
                {
                    "name": "D#4",
                    "midi": 63,
                    "time": 70.20000000000016,
                    "velocity": 0.7874015748031497,
                    "duration": 0.59375
                },
                {
                    "name": "D#4",
                    "midi": 63,
                    "time": 71.10000000000016,
                    "velocity": 0.7874015748031497,
                    "duration": 0.29375000000000284
                },
                {
                    "name": "D4",
                    "midi": 62,
                    "time": 71.40000000000016,
                    "velocity": 0.7874015748031497,
                    "duration": 0.29375000000000284
                },
                {
                    "name": "B3",
                    "midi": 59,
                    "time": 71.70000000000016,
                    "velocity": 0.7874015748031497,
                    "duration": 0.29375000000000284
                },
                {
                    "name": "B3",
                    "midi": 59,
                    "time": 72.30000000000017,
                    "velocity": 0.7874015748031497,
                    "duration": 0.20000000000000284
                },
                {
                    "name": "B3",
                    "midi": 59,
                    "time": 72.60000000000016,
                    "velocity": 0.7874015748031497,
                    "duration": 0.29375000000000284
                },
                {
                    "name": "C4",
                    "midi": 60,
                    "time": 72.90000000000016,
                    "velocity": 0.7874015748031497,
                    "duration": 0.29375000000000284
                },
                {
                    "name": "C4",
                    "midi": 60,
                    "time": 73.35000000000016,
                    "velocity": 0.7874015748031497,
                    "duration": 0.14374999999999716
                },
                {
                    "name": "B3",
                    "midi": 59,
                    "time": 73.50000000000016,
                    "velocity": 0.7874015748031497,
                    "duration": 0.14374999999999716
                },
                {
                    "name": "C4",
                    "midi": 60,
                    "time": 73.65000000000015,
                    "velocity": 0.7874015748031497,
                    "duration": 0.14374999999999716
                },
                {
                    "name": "D4",
                    "midi": 62,
                    "time": 73.80000000000014,
                    "velocity": 0.7874015748031497,
                    "duration": 0.14374999999999716
                },
                {
                    "name": "B3",
                    "midi": 59,
                    "time": 73.95000000000013,
                    "velocity": 0.7874015748031497,
                    "duration": 0.14374999999999716
                },
                {
                    "name": "C4",
                    "midi": 60,
                    "time": 74.10000000000012,
                    "velocity": 0.7874015748031497,
                    "duration": 0.29375000000000284
                },
                {
                    "name": "C4",
                    "midi": 60,
                    "time": 74.55000000000013,
                    "velocity": 0.7874015748031497,
                    "duration": 0.14374999999999716
                },
                {
                    "name": "D#4",
                    "midi": 63,
                    "time": 74.70000000000012,
                    "velocity": 0.7874015748031497,
                    "duration": 0.14374999999999716
                },
                {
                    "name": "A4",
                    "midi": 69,
                    "time": 74.85000000000011,
                    "velocity": 0.7874015748031497,
                    "duration": 0.14374999999999716
                },
                {
                    "name": "C5",
                    "midi": 72,
                    "time": 75.0000000000001,
                    "velocity": 0.7874015748031497,
                    "duration": 0.8937499999999972
                },
                {
                    "name": "A#4",
                    "midi": 70,
                    "time": 75.90000000000009,
                    "velocity": 0.7874015748031497,
                    "duration": 0.14374999999999716
                },
                {
                    "name": "G#4",
                    "midi": 68,
                    "time": 76.05000000000008,
                    "velocity": 0.7874015748031497,
                    "duration": 0.14374999999999716
                },
                {
                    "name": "G4",
                    "midi": 67,
                    "time": 76.20000000000007,
                    "velocity": 0.7874015748031497,
                    "duration": 0.14374999999999716
                },
                {
                    "name": "F4",
                    "midi": 65,
                    "time": 76.35000000000007,
                    "velocity": 0.7874015748031497,
                    "duration": 0.14374999999999716
                },
                {
                    "name": "D#4",
                    "midi": 63,
                    "time": 76.50000000000006,
                    "velocity": 0.7874015748031497,
                    "duration": 0.14374999999999716
                },
                {
                    "name": "D4",
                    "midi": 62,
                    "time": 76.65000000000005,
                    "velocity": 0.7874015748031497,
                    "duration": 0.29375000000000284
                },
                {
                    "name": "F4",
                    "midi": 65,
                    "time": 76.95000000000005,
                    "velocity": 0.7874015748031497,
                    "duration": 0.14374999999999716
                },
                {
                    "name": "D#4",
                    "midi": 63,
                    "time": 77.10000000000004,
                    "velocity": 0.7874015748031497,
                    "duration": 0.14374999999999716
                },
                {
                    "name": "D4",
                    "midi": 62,
                    "time": 77.25000000000003,
                    "velocity": 0.7874015748031497,
                    "duration": 0.14374999999999716
                },
                {
                    "name": "D#4",
                    "midi": 63,
                    "time": 77.40000000000002,
                    "velocity": 0.7874015748031497,
                    "duration": 0.14374999999999716
                },
                {
                    "name": "D4",
                    "midi": 62,
                    "time": 77.55000000000001,
                    "velocity": 0.7874015748031497,
                    "duration": 0.14374999999999716
                },
                {
                    "name": "C4",
                    "midi": 60,
                    "time": 77.7,
                    "velocity": 0.7874015748031497,
                    "duration": 0.14374999999999716
                },
                {
                    "name": "B3",
                    "midi": 59,
                    "time": 77.85,
                    "velocity": 0.7874015748031497,
                    "duration": 0.14374999999999716
                },
                {
                    "name": "C4",
                    "midi": 60,
                    "time": 77.99999999999999,
                    "velocity": 0.7874015748031497,
                    "duration": 0.59375
                },
                {
                    "name": "G4",
                    "midi": 67,
                    "time": 79.49999999999999,
                    "velocity": 0.7874015748031497,
                    "duration": 0.29375000000000284
                },
                {
                    "name": "C5",
                    "midi": 72,
                    "time": 79.79999999999998,
                    "velocity": 0.7874015748031497,
                    "duration": 0.29375000000000284
                },
                {
                    "name": "D#5",
                    "midi": 75,
                    "time": 80.09999999999998,
                    "velocity": 0.7874015748031497,
                    "duration": 0.4437499999999943
                },
                {
                    "name": "D5",
                    "midi": 74,
                    "time": 80.54999999999997,
                    "velocity": 0.7874015748031497,
                    "duration": 0.14374999999999716
                },
                {
                    "name": "C5",
                    "midi": 72,
                    "time": 80.69999999999996,
                    "velocity": 0.7874015748031497,
                    "duration": 0.14374999999999716
                },
                {
                    "name": "D#5",
                    "midi": 75,
                    "time": 80.84999999999995,
                    "velocity": 0.7874015748031497,
                    "duration": 0.14374999999999716
                },
                {
                    "name": "D5",
                    "midi": 74,
                    "time": 80.99999999999994,
                    "velocity": 0.7874015748031497,
                    "duration": 0.14374999999999716
                },
                {
                    "name": "C5",
                    "midi": 72,
                    "time": 81.14999999999993,
                    "velocity": 0.7874015748031497,
                    "duration": 0.14374999999999716
                },
                {
                    "name": "B4",
                    "midi": 71,
                    "time": 81.29999999999993,
                    "velocity": 0.7874015748031497,
                    "duration": 0.14374999999999716
                },
                {
                    "name": "A4",
                    "midi": 69,
                    "time": 81.44999999999992,
                    "velocity": 0.7874015748031497,
                    "duration": 0.14374999999999716
                },
                {
                    "name": "G4",
                    "midi": 67,
                    "time": 81.59999999999991,
                    "velocity": 0.7874015748031497,
                    "duration": 0.29375000000000284
                },
                {
                    "name": "C5",
                    "midi": 72,
                    "time": 81.8999999999999,
                    "velocity": 0.7874015748031497,
                    "duration": 0.29375000000000284
                },
                {
                    "name": "D#5",
                    "midi": 75,
                    "time": 82.1999999999999,
                    "velocity": 0.7874015748031497,
                    "duration": 0.29375000000000284
                },
                {
                    "name": "G5",
                    "midi": 79,
                    "time": 82.4999999999999,
                    "velocity": 0.7874015748031497,
                    "duration": 0.4437499999999943
                },
                {
                    "name": "F5",
                    "midi": 77,
                    "time": 82.94999999999989,
                    "velocity": 0.7874015748031497,
                    "duration": 0.14374999999999716
                },
                {
                    "name": "D#5",
                    "midi": 75,
                    "time": 83.09999999999988,
                    "velocity": 0.7874015748031497,
                    "duration": 0.14374999999999716
                },
                {
                    "name": "G5",
                    "midi": 79,
                    "time": 83.24999999999987,
                    "velocity": 0.7874015748031497,
                    "duration": 0.14374999999999716
                },
                {
                    "name": "F5",
                    "midi": 77,
                    "time": 83.39999999999986,
                    "velocity": 0.7874015748031497,
                    "duration": 0.14374999999999716
                },
                {
                    "name": "D#5",
                    "midi": 75,
                    "time": 83.54999999999986,
                    "velocity": 0.7874015748031497,
                    "duration": 0.14374999999999716
                },
                {
                    "name": "D5",
                    "midi": 74,
                    "time": 83.69999999999985,
                    "velocity": 0.7874015748031497,
                    "duration": 0.14374999999999716
                },
                {
                    "name": "C5",
                    "midi": 72,
                    "time": 83.84999999999984,
                    "velocity": 0.7874015748031497,
                    "duration": 0.14374999999999716
                },
                {
                    "name": "B4",
                    "midi": 71,
                    "time": 83.99999999999983,
                    "velocity": 0.7874015748031497,
                    "duration": 0.14374999999999716
                },
                {
                    "name": "D5",
                    "midi": 74,
                    "time": 84.14999999999982,
                    "velocity": 0.7874015748031497,
                    "duration": 0.14374999999999716
                },
                {
                    "name": "C5",
                    "midi": 72,
                    "time": 84.29999999999981,
                    "velocity": 0.7874015748031497,
                    "duration": 0.14374999999999716
                },
                {
                    "name": "D5",
                    "midi": 74,
                    "time": 84.4499999999998,
                    "velocity": 0.7874015748031497,
                    "duration": 0.14374999999999716
                },
                {
                    "name": "D#5",
                    "midi": 75,
                    "time": 84.5999999999998,
                    "velocity": 0.7874015748031497,
                    "duration": 0.14374999999999716
                },
                {
                    "name": "G4",
                    "midi": 67,
                    "time": 84.74999999999979,
                    "velocity": 0.7874015748031497,
                    "duration": 0.14374999999999716
                },
                {
                    "name": "F4",
                    "midi": 65,
                    "time": 84.89999999999978,
                    "velocity": 0.7874015748031497,
                    "duration": 0.14374999999999716
                },
                {
                    "name": "G4",
                    "midi": 67,
                    "time": 85.04999999999977,
                    "velocity": 0.7874015748031497,
                    "duration": 0.14374999999999716
                },
                {
                    "name": "G#4",
                    "midi": 68,
                    "time": 85.19999999999976,
                    "velocity": 0.7874015748031497,
                    "duration": 0.14374999999999716
                },
                {
                    "name": "E5",
                    "midi": 76,
                    "time": 85.34999999999975,
                    "velocity": 0.7874015748031497,
                    "duration": 0.14374999999999716
                },
                {
                    "name": "D5",
                    "midi": 74,
                    "time": 85.49999999999974,
                    "velocity": 0.7874015748031497,
                    "duration": 0.14374999999999716
                },
                {
                    "name": "E5",
                    "midi": 76,
                    "time": 85.64999999999974,
                    "velocity": 0.7874015748031497,
                    "duration": 0.14374999999999716
                },
                {
                    "name": "F5",
                    "midi": 77,
                    "time": 85.79999999999973,
                    "velocity": 0.7874015748031497,
                    "duration": 0.14374999999999716
                },
                {
                    "name": "A4",
                    "midi": 69,
                    "time": 85.94999999999972,
                    "velocity": 0.7874015748031497,
                    "duration": 0.14374999999999716
                },
                {
                    "name": "G4",
                    "midi": 67,
                    "time": 86.09999999999971,
                    "velocity": 0.7874015748031497,
                    "duration": 0.14374999999999716
                },
                {
                    "name": "A4",
                    "midi": 69,
                    "time": 86.2499999999997,
                    "velocity": 0.7874015748031497,
                    "duration": 0.14374999999999716
                },
                {
                    "name": "A#4",
                    "midi": 70,
                    "time": 86.3999999999997,
                    "velocity": 0.7874015748031497,
                    "duration": 0.14374999999999716
                },
                {
                    "name": "F#5",
                    "midi": 78,
                    "time": 86.54999999999968,
                    "velocity": 0.7874015748031497,
                    "duration": 0.14374999999999716
                },
                {
                    "name": "E5",
                    "midi": 76,
                    "time": 86.69999999999968,
                    "velocity": 0.7874015748031497,
                    "duration": 0.14374999999999716
                },
                {
                    "name": "F#5",
                    "midi": 78,
                    "time": 86.84999999999967,
                    "velocity": 0.7874015748031497,
                    "duration": 0.14374999999999716
                },
                {
                    "name": "G5",
                    "midi": 79,
                    "time": 86.99999999999966,
                    "velocity": 0.7874015748031497,
                    "duration": 0.14374999999999716
                },
                {
                    "name": "B4",
                    "midi": 71,
                    "time": 87.14999999999965,
                    "velocity": 0.7874015748031497,
                    "duration": 0.14374999999999716
                },
                {
                    "name": "A4",
                    "midi": 69,
                    "time": 87.29999999999964,
                    "velocity": 0.7874015748031497,
                    "duration": 0.14374999999999716
                },
                {
                    "name": "B4",
                    "midi": 71,
                    "time": 87.44999999999963,
                    "velocity": 0.7874015748031497,
                    "duration": 0.14374999999999716
                },
                {
                    "name": "C5",
                    "midi": 72,
                    "time": 87.59999999999962,
                    "velocity": 0.7874015748031497,
                    "duration": 0.14374999999999716
                },
                {
                    "name": "D#5",
                    "midi": 75,
                    "time": 87.74999999999962,
                    "velocity": 0.7874015748031497,
                    "duration": 0.14374999999999716
                },
                {
                    "name": "D5",
                    "midi": 74,
                    "time": 87.89999999999961,
                    "velocity": 0.7874015748031497,
                    "duration": 0.14374999999999716
                },
                {
                    "name": "C5",
                    "midi": 72,
                    "time": 88.0499999999996,
                    "velocity": 0.7874015748031497,
                    "duration": 0.14374999999999716
                },
                {
                    "name": "B4",
                    "midi": 71,
                    "time": 88.19999999999959,
                    "velocity": 0.7874015748031497,
                    "duration": 0.14374999999999716
                },
                {
                    "name": "A4",
                    "midi": 69,
                    "time": 88.34999999999958,
                    "velocity": 0.7874015748031497,
                    "duration": 0.14374999999999716
                },
                {
                    "name": "G4",
                    "midi": 67,
                    "time": 88.49999999999957,
                    "velocity": 0.7874015748031497,
                    "duration": 0.14374999999999716
                },
                {
                    "name": "F4",
                    "midi": 65,
                    "time": 88.64999999999957,
                    "velocity": 0.7874015748031497,
                    "duration": 0.14374999999999716
                },
                {
                    "name": "D#4",
                    "midi": 63,
                    "time": 88.79999999999956,
                    "velocity": 0.7874015748031497,
                    "duration": 0.09999999999999432
                },
                {
                    "name": "G4",
                    "midi": 67,
                    "time": 88.94999999999955,
                    "velocity": 0.7874015748031497,
                    "duration": 0.14374999999999716
                },
                {
                    "name": "F4",
                    "midi": 65,
                    "time": 89.09999999999954,
                    "velocity": 0.7874015748031497,
                    "duration": 0.14374999999999716
                },
                {
                    "name": "D#5",
                    "midi": 75,
                    "time": 89.09999999999954,
                    "velocity": 0.7874015748031497,
                    "duration": 0.19999999999998863
                },
                {
                    "name": "G4",
                    "midi": 67,
                    "time": 89.24999999999953,
                    "velocity": 0.7874015748031497,
                    "duration": 0.14374999999999716
                },
                {
                    "name": "G#4",
                    "midi": 68,
                    "time": 89.39999999999952,
                    "velocity": 0.7874015748031497,
                    "duration": 0.14374999999999716
                },
                {
                    "name": "D#5",
                    "midi": 75,
                    "time": 89.39999999999952,
                    "velocity": 0.7874015748031497,
                    "duration": 0.19999999999998863
                },
                {
                    "name": "G4",
                    "midi": 67,
                    "time": 89.54999999999951,
                    "velocity": 0.7874015748031497,
                    "duration": 0.14374999999999716
                },
                {
                    "name": "F4",
                    "midi": 65,
                    "time": 89.6999999999995,
                    "velocity": 0.7874015748031497,
                    "duration": 0.14374999999999716
                },
                {
                    "name": "D#4",
                    "midi": 63,
                    "time": 89.8499999999995,
                    "velocity": 0.7874015748031497,
                    "duration": 0.14374999999999716
                },
                {
                    "name": "D4",
                    "midi": 62,
                    "time": 89.99999999999949,
                    "velocity": 0.7874015748031497,
                    "duration": 0.14374999999999716
                },
                {
                    "name": "F4",
                    "midi": 65,
                    "time": 90.14999999999948,
                    "velocity": 0.7874015748031497,
                    "duration": 0.14374999999999716
                },
                {
                    "name": "D#4",
                    "midi": 63,
                    "time": 90.29999999999947,
                    "velocity": 0.7874015748031497,
                    "duration": 0.14374999999999716
                },
                {
                    "name": "D5",
                    "midi": 74,
                    "time": 90.29999999999947,
                    "velocity": 0.7874015748031497,
                    "duration": 0.19999999999998863
                },
                {
                    "name": "F4",
                    "midi": 65,
                    "time": 90.44999999999946,
                    "velocity": 0.7874015748031497,
                    "duration": 0.14374999999999716
                },
                {
                    "name": "G4",
                    "midi": 67,
                    "time": 90.59999999999945,
                    "velocity": 0.7874015748031497,
                    "duration": 0.14374999999999716
                },
                {
                    "name": "D5",
                    "midi": 74,
                    "time": 90.59999999999945,
                    "velocity": 0.7874015748031497,
                    "duration": 0.19999999999998863
                },
                {
                    "name": "F4",
                    "midi": 65,
                    "time": 90.74999999999945,
                    "velocity": 0.7874015748031497,
                    "duration": 0.14374999999999716
                },
                {
                    "name": "D#4",
                    "midi": 63,
                    "time": 90.89999999999944,
                    "velocity": 0.7874015748031497,
                    "duration": 0.14374999999999716
                },
                {
                    "name": "D4",
                    "midi": 62,
                    "time": 91.04999999999943,
                    "velocity": 0.7874015748031497,
                    "duration": 0.14374999999999716
                },
                {
                    "name": "C4",
                    "midi": 60,
                    "time": 91.19999999999942,
                    "velocity": 0.7874015748031497,
                    "duration": 0.14374999999999716
                },
                {
                    "name": "D#4",
                    "midi": 63,
                    "time": 91.34999999999941,
                    "velocity": 0.7874015748031497,
                    "duration": 0.14374999999999716
                },
                {
                    "name": "D4",
                    "midi": 62,
                    "time": 91.4999999999994,
                    "velocity": 0.7874015748031497,
                    "duration": 0.14374999999999716
                },
                {
                    "name": "C5",
                    "midi": 72,
                    "time": 91.4999999999994,
                    "velocity": 0.7874015748031497,
                    "duration": 0.19999999999998863
                },
                {
                    "name": "D#4",
                    "midi": 63,
                    "time": 91.6499999999994,
                    "velocity": 0.7874015748031497,
                    "duration": 0.14374999999999716
                },
                {
                    "name": "F#4",
                    "midi": 66,
                    "time": 91.79999999999939,
                    "velocity": 0.7874015748031497,
                    "duration": 0.14374999999999716
                },
                {
                    "name": "C5",
                    "midi": 72,
                    "time": 91.79999999999939,
                    "velocity": 0.7874015748031497,
                    "duration": 0.19999999999998863
                },
                {
                    "name": "D#4",
                    "midi": 63,
                    "time": 91.94999999999938,
                    "velocity": 0.7874015748031497,
                    "duration": 0.14374999999999716
                },
                {
                    "name": "D4",
                    "midi": 62,
                    "time": 92.09999999999937,
                    "velocity": 0.7874015748031497,
                    "duration": 0.14374999999999716
                },
                {
                    "name": "D#4",
                    "midi": 63,
                    "time": 92.24999999999936,
                    "velocity": 0.7874015748031497,
                    "duration": 0.14374999999999716
                },
                {
                    "name": "A4",
                    "midi": 69,
                    "time": 92.39999999999935,
                    "velocity": 0.7874015748031497,
                    "duration": 0.14374999999999716
                },
                {
                    "name": "D#4",
                    "midi": 63,
                    "time": 92.54999999999934,
                    "velocity": 0.7874015748031497,
                    "duration": 0.14374999999999716
                },
                {
                    "name": "D4",
                    "midi": 62,
                    "time": 92.69999999999933,
                    "velocity": 0.7874015748031497,
                    "duration": 0.14374999999999716
                },
                {
                    "name": "C5",
                    "midi": 72,
                    "time": 92.69999999999933,
                    "velocity": 0.7874015748031497,
                    "duration": 0.19999999999998863
                },
                {
                    "name": "D#4",
                    "midi": 63,
                    "time": 92.84999999999933,
                    "velocity": 0.7874015748031497,
                    "duration": 0.14374999999999716
                },
                {
                    "name": "A4",
                    "midi": 69,
                    "time": 92.99999999999932,
                    "velocity": 0.7874015748031497,
                    "duration": 0.14374999999999716
                },
                {
                    "name": "C5",
                    "midi": 72,
                    "time": 92.99999999999932,
                    "velocity": 0.7874015748031497,
                    "duration": 0.19999999999998863
                },
                {
                    "name": "D#4",
                    "midi": 63,
                    "time": 93.14999999999931,
                    "velocity": 0.7874015748031497,
                    "duration": 0.14374999999999716
                },
                {
                    "name": "D4",
                    "midi": 62,
                    "time": 93.2999999999993,
                    "velocity": 0.7874015748031497,
                    "duration": 0.14374999999999716
                },
                {
                    "name": "C4",
                    "midi": 60,
                    "time": 93.44999999999929,
                    "velocity": 0.7874015748031497,
                    "duration": 0.14374999999999716
                },
                {
                    "name": "A#3",
                    "midi": 58,
                    "time": 93.59999999999928,
                    "velocity": 0.7874015748031497,
                    "duration": 0.14374999999999716
                },
                {
                    "name": "D4",
                    "midi": 62,
                    "time": 93.74999999999928,
                    "velocity": 0.7874015748031497,
                    "duration": 0.14374999999999716
                },
                {
                    "name": "G4",
                    "midi": 67,
                    "time": 93.89999999999927,
                    "velocity": 0.7874015748031497,
                    "duration": 0.14374999999999716
                },
                {
                    "name": "A#4",
                    "midi": 70,
                    "time": 94.04999999999926,
                    "velocity": 0.7874015748031497,
                    "duration": 0.14374999999999716
                },
                {
                    "name": "D5",
                    "midi": 74,
                    "time": 94.19999999999925,
                    "velocity": 0.7874015748031497,
                    "duration": 0.14374999999999716
                },
                {
                    "name": "C5",
                    "midi": 72,
                    "time": 94.34999999999924,
                    "velocity": 0.7874015748031497,
                    "duration": 0.14374999999999716
                },
                {
                    "name": "A#4",
                    "midi": 70,
                    "time": 94.49999999999923,
                    "velocity": 0.7874015748031497,
                    "duration": 0.29375000000000284
                },
                {
                    "name": "C4",
                    "midi": 60,
                    "time": 94.79999999999923,
                    "velocity": 0.7874015748031497,
                    "duration": 0.59375
                },
                {
                    "name": "C5",
                    "midi": 72,
                    "time": 95.39999999999922,
                    "velocity": 0.7874015748031497,
                    "duration": 0.14374999999999716
                },
                {
                    "name": "A#4",
                    "midi": 70,
                    "time": 95.54999999999922,
                    "velocity": 0.7874015748031497,
                    "duration": 0.14374999999999716
                },
                {
                    "name": "A4",
                    "midi": 69,
                    "time": 95.6999999999992,
                    "velocity": 0.7874015748031497,
                    "duration": 0.29375000000000284
                },
                {
                    "name": "A#3",
                    "midi": 58,
                    "time": 95.9999999999992,
                    "velocity": 0.7874015748031497,
                    "duration": 0.59375
                },
                {
                    "name": "A#4",
                    "midi": 70,
                    "time": 96.5999999999992,
                    "velocity": 0.7874015748031497,
                    "duration": 0.14374999999999716
                },
                {
                    "name": "A4",
                    "midi": 69,
                    "time": 96.74999999999919,
                    "velocity": 0.7874015748031497,
                    "duration": 0.14374999999999716
                },
                {
                    "name": "G4",
                    "midi": 67,
                    "time": 96.89999999999918,
                    "velocity": 0.7874015748031497,
                    "duration": 0.29375000000000284
                },
                {
                    "name": "A3",
                    "midi": 57,
                    "time": 97.19999999999918,
                    "velocity": 0.7874015748031497,
                    "duration": 0.59375
                },
                {
                    "name": "A4",
                    "midi": 69,
                    "time": 97.79999999999917,
                    "velocity": 0.7874015748031497,
                    "duration": 0.14374999999999716
                },
                {
                    "name": "G4",
                    "midi": 67,
                    "time": 97.94999999999916,
                    "velocity": 0.7874015748031497,
                    "duration": 0.14374999999999716
                },
                {
                    "name": "F#4",
                    "midi": 66,
                    "time": 98.09999999999916,
                    "velocity": 0.7874015748031497,
                    "duration": 0.29375000000000284
                },
                {
                    "name": "D5",
                    "midi": 74,
                    "time": 98.69999999999916,
                    "velocity": 0.7874015748031497,
                    "duration": 0.29375000000000284
                },
                {
                    "name": "G4",
                    "midi": 67,
                    "time": 98.99999999999916,
                    "velocity": 0.7874015748031497,
                    "duration": 0.29375000000000284
                },
                {
                    "name": "A#4",
                    "midi": 70,
                    "time": 99.29999999999916,
                    "velocity": 0.7874015748031497,
                    "duration": 0.29375000000000284
                },
                {
                    "name": "C5",
                    "midi": 72,
                    "time": 99.59999999999916,
                    "velocity": 0.7874015748031497,
                    "duration": 0.20000000000000284
                },
                {
                    "name": "D#5",
                    "midi": 75,
                    "time": 99.89999999999915,
                    "velocity": 0.7874015748031497,
                    "duration": 0.29375000000000284
                },
                {
                    "name": "A4",
                    "midi": 69,
                    "time": 100.19999999999915,
                    "velocity": 0.7874015748031497,
                    "duration": 0.29375000000000284
                },
                {
                    "name": "C5",
                    "midi": 72,
                    "time": 100.49999999999915,
                    "velocity": 0.7874015748031497,
                    "duration": 0.29375000000000284
                },
                {
                    "name": "D5",
                    "midi": 74,
                    "time": 100.79999999999914,
                    "velocity": 0.7874015748031497,
                    "duration": 0.20000000000000284
                },
                {
                    "name": "F5",
                    "midi": 77,
                    "time": 101.09999999999914,
                    "velocity": 0.7874015748031497,
                    "duration": 0.29375000000000284
                },
                {
                    "name": "A#4",
                    "midi": 70,
                    "time": 101.39999999999914,
                    "velocity": 0.7874015748031497,
                    "duration": 0.29375000000000284
                },
                {
                    "name": "D5",
                    "midi": 74,
                    "time": 101.69999999999914,
                    "velocity": 0.7874015748031497,
                    "duration": 0.29375000000000284
                },
                {
                    "name": "D#5",
                    "midi": 75,
                    "time": 101.99999999999913,
                    "velocity": 0.7874015748031497,
                    "duration": 0.20000000000000284
                },
                {
                    "name": "C5",
                    "midi": 72,
                    "time": 102.29999999999913,
                    "velocity": 0.7874015748031497,
                    "duration": 0.29375000000000284
                },
                {
                    "name": "A4",
                    "midi": 69,
                    "time": 102.59999999999913,
                    "velocity": 0.7874015748031497,
                    "duration": 0.29375000000000284
                },
                {
                    "name": "F#5",
                    "midi": 78,
                    "time": 102.89999999999912,
                    "velocity": 0.7874015748031497,
                    "duration": 0.29375000000000284
                },
                {
                    "name": "G5",
                    "midi": 79,
                    "time": 103.19999999999912,
                    "velocity": 0.7874015748031497,
                    "duration": 0.29375000000000284
                },
                {
                    "name": "A#3",
                    "midi": 58,
                    "time": 103.49999999999912,
                    "velocity": 0.7874015748031497,
                    "duration": 0.20000000000000284
                },
                {
                    "name": "A#3",
                    "midi": 58,
                    "time": 103.79999999999912,
                    "velocity": 0.7874015748031497,
                    "duration": 0.20000000000000284
                },
                {
                    "name": "G5",
                    "midi": 79,
                    "time": 104.09999999999911,
                    "velocity": 0.7874015748031497,
                    "duration": 0.29375000000000284
                },
                {
                    "name": "F#5",
                    "midi": 78,
                    "time": 104.39999999999911,
                    "velocity": 0.7874015748031497,
                    "duration": 0.29375000000000284
                },
                {
                    "name": "A3",
                    "midi": 57,
                    "time": 104.69999999999911,
                    "velocity": 0.7874015748031497,
                    "duration": 0.20000000000000284
                },
                {
                    "name": "A3",
                    "midi": 57,
                    "time": 104.9999999999991,
                    "velocity": 0.7874015748031497,
                    "duration": 0.20000000000000284
                },
                {
                    "name": "F5",
                    "midi": 77,
                    "time": 105.2999999999991,
                    "velocity": 0.7874015748031497,
                    "duration": 0.29375000000000284
                },
                {
                    "name": "F5",
                    "midi": 77,
                    "time": 105.5999999999991,
                    "velocity": 0.7874015748031497,
                    "duration": 0.20000000000000284
                },
                {
                    "name": "B3",
                    "midi": 59,
                    "time": 105.8999999999991,
                    "velocity": 0.7874015748031497,
                    "duration": 0.20000000000000284
                },
                {
                    "name": "B3",
                    "midi": 59,
                    "time": 106.1999999999991,
                    "velocity": 0.7874015748031497,
                    "duration": 0.20000000000000284
                },
                {
                    "name": "D5",
                    "midi": 74,
                    "time": 106.49999999999909,
                    "velocity": 0.7874015748031497,
                    "duration": 0.29375000000000284
                },
                {
                    "name": "G4",
                    "midi": 67,
                    "time": 106.79999999999909,
                    "velocity": 0.7874015748031497,
                    "duration": 0.29375000000000284
                },
                {
                    "name": "D#5",
                    "midi": 75,
                    "time": 107.09999999999908,
                    "velocity": 0.7874015748031497,
                    "duration": 0.4437499999999943
                },
                {
                    "name": "D5",
                    "midi": 74,
                    "time": 107.54999999999907,
                    "velocity": 0.7874015748031497,
                    "duration": 0.14374999999999716
                },
                {
                    "name": "C5",
                    "midi": 72,
                    "time": 107.69999999999906,
                    "velocity": 0.7874015748031497,
                    "duration": 0.14374999999999716
                },
                {
                    "name": "B4",
                    "midi": 71,
                    "time": 107.84999999999906,
                    "velocity": 0.7874015748031497,
                    "duration": 0.14374999999999716
                },
                {
                    "name": "C5",
                    "midi": 72,
                    "time": 107.99999999999905,
                    "velocity": 0.7874015748031497,
                    "duration": 1.4937499999999915
                },
                {
                    "name": "G4",
                    "midi": 67,
                    "time": 108.29999999999905,
                    "velocity": 0.7874015748031497,
                    "duration": 0.29375000000000284
                },
                {
                    "name": "F4",
                    "midi": 65,
                    "time": 108.59999999999904,
                    "velocity": 0.7874015748031497,
                    "duration": 0.29375000000000284
                },
                {
                    "name": "G4",
                    "midi": 67,
                    "time": 108.89999999999904,
                    "velocity": 0.7874015748031497,
                    "duration": 0.29375000000000284
                },
                {
                    "name": "G#4",
                    "midi": 68,
                    "time": 109.19999999999904,
                    "velocity": 0.7874015748031497,
                    "duration": 0.20000000000000284
                },
                {
                    "name": "C5",
                    "midi": 72,
                    "time": 109.49999999999903,
                    "velocity": 0.7874015748031497,
                    "duration": 0.29375000000000284
                },
                {
                    "name": "A4",
                    "midi": 69,
                    "time": 109.49999999999903,
                    "velocity": 0.7874015748031497,
                    "duration": 0.29375000000000284
                },
                {
                    "name": "A#4",
                    "midi": 70,
                    "time": 109.79999999999903,
                    "velocity": 0.7874015748031497,
                    "duration": 0.29375000000000284
                },
                {
                    "name": "G4",
                    "midi": 67,
                    "time": 109.79999999999903,
                    "velocity": 0.7874015748031497,
                    "duration": 0.29375000000000284
                },
                {
                    "name": "C5",
                    "midi": 72,
                    "time": 110.09999999999903,
                    "velocity": 0.7874015748031497,
                    "duration": 0.29375000000000284
                },
                {
                    "name": "A4",
                    "midi": 69,
                    "time": 110.09999999999903,
                    "velocity": 0.7874015748031497,
                    "duration": 0.29375000000000284
                },
                {
                    "name": "C#5",
                    "midi": 73,
                    "time": 110.39999999999903,
                    "velocity": 0.7874015748031497,
                    "duration": 0.29375000000000284
                },
                {
                    "name": "A#4",
                    "midi": 70,
                    "time": 110.39999999999903,
                    "velocity": 0.7874015748031497,
                    "duration": 0.29375000000000284
                },
                {
                    "name": "D5",
                    "midi": 74,
                    "time": 110.69999999999902,
                    "velocity": 0.7874015748031497,
                    "duration": 0.29375000000000284
                },
                {
                    "name": "B4",
                    "midi": 71,
                    "time": 110.69999999999902,
                    "velocity": 0.7874015748031497,
                    "duration": 0.29375000000000284
                },
                {
                    "name": "C5",
                    "midi": 72,
                    "time": 110.99999999999902,
                    "velocity": 0.7874015748031497,
                    "duration": 0.29375000000000284
                },
                {
                    "name": "G#4",
                    "midi": 68,
                    "time": 110.99999999999902,
                    "velocity": 0.7874015748031497,
                    "duration": 0.29375000000000284
                },
                {
                    "name": "D5",
                    "midi": 74,
                    "time": 111.29999999999902,
                    "velocity": 0.7874015748031497,
                    "duration": 0.29375000000000284
                },
                {
                    "name": "B4",
                    "midi": 71,
                    "time": 111.29999999999902,
                    "velocity": 0.7874015748031497,
                    "duration": 0.29375000000000284
                },
                {
                    "name": "D#5",
                    "midi": 75,
                    "time": 111.59999999999901,
                    "velocity": 0.7874015748031497,
                    "duration": 0.59375
                },
                {
                    "name": "C5",
                    "midi": 72,
                    "time": 111.59999999999901,
                    "velocity": 0.7874015748031497,
                    "duration": 0.59375
                },
                {
                    "name": "G4",
                    "midi": 67,
                    "time": 111.89999999999901,
                    "velocity": 0.7874015748031497,
                    "duration": 0.29375000000000284
                },
                {
                    "name": "D5",
                    "midi": 74,
                    "time": 112.19999999999901,
                    "velocity": 0.7874015748031497,
                    "duration": 0.59375
                },
                {
                    "name": "B4",
                    "midi": 71,
                    "time": 112.19999999999901,
                    "velocity": 0.7874015748031497,
                    "duration": 0.59375
                },
                {
                    "name": "F4",
                    "midi": 65,
                    "time": 112.499999999999,
                    "velocity": 0.7874015748031497,
                    "duration": 0.29375000000000284
                },
                {
                    "name": "D#4",
                    "midi": 63,
                    "time": 112.799999999999,
                    "velocity": 0.7874015748031497,
                    "duration": 0.5937499999999716
                },
                {
                    "name": "C5",
                    "midi": 72,
                    "time": 112.799999999999,
                    "velocity": 0.7874015748031497,
                    "duration": 0.14374999999999716
                },
                {
                    "name": "D#5",
                    "midi": 75,
                    "time": 112.949999999999,
                    "velocity": 0.7874015748031497,
                    "duration": 0.14374999999999716
                },
                {
                    "name": "F5",
                    "midi": 77,
                    "time": 113.09999999999899,
                    "velocity": 0.7874015748031497,
                    "duration": 0.14374999999999716
                },
                {
                    "name": "G5",
                    "midi": 79,
                    "time": 113.24999999999898,
                    "velocity": 0.7874015748031497,
                    "duration": 0.14374999999999716
                },
                {
                    "name": "G#5",
                    "midi": 80,
                    "time": 113.39999999999897,
                    "velocity": 0.7874015748031497,
                    "duration": 0.14374999999999716
                },
                {
                    "name": "C5",
                    "midi": 72,
                    "time": 113.39999999999897,
                    "velocity": 0.7874015748031497,
                    "duration": 0.8937499999999545
                },
                {
                    "name": "G5",
                    "midi": 79,
                    "time": 113.54999999999896,
                    "velocity": 0.7874015748031497,
                    "duration": 0.14374999999999716
                },
                {
                    "name": "F5",
                    "midi": 77,
                    "time": 113.69999999999895,
                    "velocity": 0.7874015748031497,
                    "duration": 0.14374999999999716
                },
                {
                    "name": "D#5",
                    "midi": 75,
                    "time": 113.84999999999894,
                    "velocity": 0.7874015748031497,
                    "duration": 0.14374999999999716
                },
                {
                    "name": "D5",
                    "midi": 74,
                    "time": 113.99999999999893,
                    "velocity": 0.7874015748031497,
                    "duration": 0.14374999999999716
                },
                {
                    "name": "D#5",
                    "midi": 75,
                    "time": 114.14999999999893,
                    "velocity": 0.7874015748031497,
                    "duration": 0.14374999999999716
                },
                {
                    "name": "F5",
                    "midi": 77,
                    "time": 114.29999999999892,
                    "velocity": 0.7874015748031497,
                    "duration": 0.14374999999999716
                },
                {
                    "name": "A#4",
                    "midi": 70,
                    "time": 114.29999999999892,
                    "velocity": 0.7874015748031497,
                    "duration": 0.29374999999998863
                },
                {
                    "name": "D#5",
                    "midi": 75,
                    "time": 114.44999999999891,
                    "velocity": 0.7874015748031497,
                    "duration": 0.14374999999999716
                },
                {
                    "name": "D5",
                    "midi": 74,
                    "time": 114.5999999999989,
                    "velocity": 0.7874015748031497,
                    "duration": 0.14374999999999716
                },
                {
                    "name": "F4",
                    "midi": 65,
                    "time": 114.5999999999989,
                    "velocity": 0.7874015748031497,
                    "duration": 0.29374999999998863
                },
                {
                    "name": "C5",
                    "midi": 72,
                    "time": 114.74999999999889,
                    "velocity": 0.7874015748031497,
                    "duration": 0.14374999999999716
                },
                {
                    "name": "A#4",
                    "midi": 70,
                    "time": 114.89999999999888,
                    "velocity": 0.7874015748031497,
                    "duration": 0.14374999999999716
                },
                {
                    "name": "D4",
                    "midi": 62,
                    "time": 114.89999999999888,
                    "velocity": 0.7874015748031497,
                    "duration": 0.29374999999998863
                },
                {
                    "name": "G#4",
                    "midi": 68,
                    "time": 115.04999999999887,
                    "velocity": 0.7874015748031497,
                    "duration": 0.14374999999999716
                },
                {
                    "name": "G4",
                    "midi": 67,
                    "time": 115.19999999999887,
                    "velocity": 0.7874015748031497,
                    "duration": 0.14374999999999716
                },
                {
                    "name": "D5",
                    "midi": 74,
                    "time": 115.34999999999886,
                    "velocity": 0.7874015748031497,
                    "duration": 0.14374999999999716
                },
                {
                    "name": "D#5",
                    "midi": 75,
                    "time": 115.49999999999885,
                    "velocity": 0.7874015748031497,
                    "duration": 0.14374999999999716
                },
                {
                    "name": "F5",
                    "midi": 77,
                    "time": 115.64999999999884,
                    "velocity": 0.7874015748031497,
                    "duration": 0.14374999999999716
                },
                {
                    "name": "G5",
                    "midi": 79,
                    "time": 115.79999999999883,
                    "velocity": 0.7874015748031497,
                    "duration": 0.14374999999999716
                },
                {
                    "name": "G4",
                    "midi": 67,
                    "time": 115.79999999999883,
                    "velocity": 0.7874015748031497,
                    "duration": 0.5937499999999716
                },
                {
                    "name": "F5",
                    "midi": 77,
                    "time": 115.94999999999882,
                    "velocity": 0.7874015748031497,
                    "duration": 0.14374999999999716
                },
                {
                    "name": "D#5",
                    "midi": 75,
                    "time": 116.09999999999881,
                    "velocity": 0.7874015748031497,
                    "duration": 0.14374999999999716
                },
                {
                    "name": "D5",
                    "midi": 74,
                    "time": 116.2499999999988,
                    "velocity": 0.7874015748031497,
                    "duration": 0.14374999999999716
                },
                {
                    "name": "G#4",
                    "midi": 68,
                    "time": 116.3999999999988,
                    "velocity": 0.7874015748031497,
                    "duration": 0.29374999999998863
                },
                {
                    "name": "B4",
                    "midi": 71,
                    "time": 116.3999999999988,
                    "velocity": 0.7874015748031497,
                    "duration": 0.14374999999999716
                },
                {
                    "name": "C5",
                    "midi": 72,
                    "time": 116.54999999999879,
                    "velocity": 0.7874015748031497,
                    "duration": 0.14374999999999716
                },
                {
                    "name": "D5",
                    "midi": 74,
                    "time": 116.69999999999878,
                    "velocity": 0.7874015748031497,
                    "duration": 0.14374999999999716
                },
                {
                    "name": "D#5",
                    "midi": 75,
                    "time": 116.84999999999877,
                    "velocity": 0.7874015748031497,
                    "duration": 0.14374999999999716
                },
                {
                    "name": "C5",
                    "midi": 72,
                    "time": 116.99999999999876,
                    "velocity": 0.7874015748031497,
                    "duration": 0.29374999999998863
                },
                {
                    "name": "F5",
                    "midi": 77,
                    "time": 116.99999999999876,
                    "velocity": 0.7874015748031497,
                    "duration": 0.14374999999999716
                },
                {
                    "name": "D#5",
                    "midi": 75,
                    "time": 117.14999999999876,
                    "velocity": 0.7874015748031497,
                    "duration": 0.14374999999999716
                },
                {
                    "name": "D5",
                    "midi": 74,
                    "time": 117.29999999999875,
                    "velocity": 0.7874015748031497,
                    "duration": 0.14374999999999716
                },
                {
                    "name": "C5",
                    "midi": 72,
                    "time": 117.44999999999874,
                    "velocity": 0.7874015748031497,
                    "duration": 0.14374999999999716
                },
                {
                    "name": "B4",
                    "midi": 71,
                    "time": 117.59999999999873,
                    "velocity": 0.7874015748031497,
                    "duration": 0.59375
                },
                {
                    "name": "G5",
                    "midi": 79,
                    "time": 117.59999999999873,
                    "velocity": 0.7874015748031497,
                    "duration": 0.20000000000000284
                },
                {
                    "name": "G4",
                    "midi": 67,
                    "time": 117.89999999999873,
                    "velocity": 0.7874015748031497,
                    "duration": 0.29375000000000284
                },
                {
                    "name": "F4",
                    "midi": 65,
                    "time": 118.19999999999872,
                    "velocity": 0.7874015748031497,
                    "duration": 0.29375000000000284
                },
                {
                    "name": "G4",
                    "midi": 67,
                    "time": 118.49999999999872,
                    "velocity": 0.7874015748031497,
                    "duration": 0.29375000000000284
                },
                {
                    "name": "G#4",
                    "midi": 68,
                    "time": 118.79999999999872,
                    "velocity": 0.7874015748031497,
                    "duration": 0.20000000000000284
                },
                {
                    "name": "A4",
                    "midi": 69,
                    "time": 119.09999999999872,
                    "velocity": 0.7874015748031497,
                    "duration": 0.29375000000000284
                },
                {
                    "name": "G4",
                    "midi": 67,
                    "time": 119.39999999999871,
                    "velocity": 0.7874015748031497,
                    "duration": 0.29375000000000284
                },
                {
                    "name": "A4",
                    "midi": 69,
                    "time": 119.69999999999871,
                    "velocity": 0.7874015748031497,
                    "duration": 0.29375000000000284
                },
                {
                    "name": "A#4",
                    "midi": 70,
                    "time": 119.9999999999987,
                    "velocity": 0.7874015748031497,
                    "duration": 0.20000000000000284
                },
                {
                    "name": "B4",
                    "midi": 71,
                    "time": 120.2999999999987,
                    "velocity": 0.7874015748031497,
                    "duration": 0.29375000000000284
                },
                {
                    "name": "A4",
                    "midi": 69,
                    "time": 120.5999999999987,
                    "velocity": 0.7874015748031497,
                    "duration": 0.29375000000000284
                },
                {
                    "name": "B4",
                    "midi": 71,
                    "time": 120.8999999999987,
                    "velocity": 0.7874015748031497,
                    "duration": 0.29375000000000284
                },
                {
                    "name": "C5",
                    "midi": 72,
                    "time": 121.1999999999987,
                    "velocity": 0.7874015748031497,
                    "duration": 0.20000000000000284
                },
                {
                    "name": "G4",
                    "midi": 67,
                    "time": 121.49999999999869,
                    "velocity": 0.7874015748031497,
                    "duration": 0.20000000000000284
                },
                {
                    "name": "D5",
                    "midi": 74,
                    "time": 121.79999999999869,
                    "velocity": 0.7874015748031497,
                    "duration": 0.20000000000000284
                },
                {
                    "name": "F4",
                    "midi": 65,
                    "time": 122.09999999999869,
                    "velocity": 0.7874015748031497,
                    "duration": 0.20000000000000284
                },
                {
                    "name": "D#4",
                    "midi": 63,
                    "time": 122.39999999999868,
                    "velocity": 0.7874015748031497,
                    "duration": 0.4000000000000057
                },
                {
                    "name": "G#4",
                    "midi": 68,
                    "time": 122.99999999999869,
                    "velocity": 0.7874015748031497,
                    "duration": 0.8937499999999972
                },
                {
                    "name": "G4",
                    "midi": 67,
                    "time": 123.89999999999868,
                    "velocity": 0.7874015748031497,
                    "duration": 0.29375000000000284
                },
                {
                    "name": "A#4",
                    "midi": 70,
                    "time": 124.19999999999868,
                    "velocity": 0.7874015748031497,
                    "duration": 0.8937499999999972
                },
                {
                    "name": "A4",
                    "midi": 69,
                    "time": 125.09999999999867,
                    "velocity": 0.7874015748031497,
                    "duration": 0.20000000000000284
                },
                {
                    "name": "C5",
                    "midi": 72,
                    "time": 125.39999999999867,
                    "velocity": 0.7874015748031497,
                    "duration": 0.59375
                },
                {
                    "name": "A#4",
                    "midi": 70,
                    "time": 125.99999999999866,
                    "velocity": 0.7874015748031497,
                    "duration": 0.59375
                },
                {
                    "name": "G4",
                    "midi": 67,
                    "time": 125.99999999999866,
                    "velocity": 0.7874015748031497,
                    "duration": 0.20000000000000284
                },
                {
                    "name": "F4",
                    "midi": 65,
                    "time": 126.59999999999866,
                    "velocity": 0.7874015748031497,
                    "duration": 0.59375
                },
                {
                    "name": "A4",
                    "midi": 69,
                    "time": 126.59999999999866,
                    "velocity": 0.7874015748031497,
                    "duration": 0.20000000000000284
                },
                {
                    "name": "G4",
                    "midi": 67,
                    "time": 127.19999999999865,
                    "velocity": 0.7874015748031497,
                    "duration": 0.59375
                },
                {
                    "name": "A#3",
                    "midi": 58,
                    "time": 127.19999999999865,
                    "velocity": 0.7874015748031497,
                    "duration": 0.59375
                },
                {
                    "name": "A#4",
                    "midi": 70,
                    "time": 127.79999999999865,
                    "velocity": 0.7874015748031497,
                    "duration": 0.59375
                },
                {
                    "name": "C#4",
                    "midi": 61,
                    "time": 127.79999999999865,
                    "velocity": 0.7874015748031497,
                    "duration": 0.893749999999983
                },
                {
                    "name": "D#4",
                    "midi": 63,
                    "time": 128.39999999999864,
                    "velocity": 0.7874015748031497,
                    "duration": 0.5937499999999716
                },
                {
                    "name": "C4",
                    "midi": 60,
                    "time": 128.69999999999862,
                    "velocity": 0.7874015748031497,
                    "duration": 0.29374999999998863
                },
                {
                    "name": "C5",
                    "midi": 72,
                    "time": 128.9999999999986,
                    "velocity": 0.7874015748031497,
                    "duration": 0.59375
                },
                {
                    "name": "D#4",
                    "midi": 63,
                    "time": 128.9999999999986,
                    "velocity": 0.7874015748031497,
                    "duration": 0.893749999999983
                },
                {
                    "name": "F4",
                    "midi": 65,
                    "time": 129.5999999999986,
                    "velocity": 0.7874015748031497,
                    "duration": 0.5937499999999716
                },
                {
                    "name": "D4",
                    "midi": 62,
                    "time": 129.89999999999858,
                    "velocity": 0.7874015748031497,
                    "duration": 0.29374999999998863
                },
                {
                    "name": "D5",
                    "midi": 74,
                    "time": 130.19999999999857,
                    "velocity": 0.7874015748031497,
                    "duration": 0.893749999999983
                },
                {
                    "name": "F4",
                    "midi": 65,
                    "time": 130.19999999999857,
                    "velocity": 0.7874015748031497,
                    "duration": 0.59375
                },
                {
                    "name": "D#4",
                    "midi": 63,
                    "time": 130.79999999999856,
                    "velocity": 0.7874015748031497,
                    "duration": 0.5937499999999716
                },
                {
                    "name": "C5",
                    "midi": 72,
                    "time": 131.09999999999854,
                    "velocity": 0.7874015748031497,
                    "duration": 0.5937499999999716
                },
                {
                    "name": "F4",
                    "midi": 65,
                    "time": 131.39999999999853,
                    "velocity": 0.7874015748031497,
                    "duration": 0.29374999999998863
                },
                {
                    "name": "B4",
                    "midi": 71,
                    "time": 131.6999999999985,
                    "velocity": 0.7874015748031497,
                    "duration": 0.29374999999998863
                },
                {
                    "name": "G#4",
                    "midi": 68,
                    "time": 131.6999999999985,
                    "velocity": 0.7874015748031497,
                    "duration": 0.29374999999998863
                },
                {
                    "name": "C5",
                    "midi": 72,
                    "time": 131.9999999999985,
                    "velocity": 0.7874015748031497,
                    "duration": 0.59375
                },
                {
                    "name": "G4",
                    "midi": 67,
                    "time": 131.9999999999985,
                    "velocity": 0.7874015748031497,
                    "duration": 0.59375
                },
                {
                    "name": "C#5",
                    "midi": 73,
                    "time": 132.5999999999985,
                    "velocity": 0.7874015748031497,
                    "duration": 0.59375
                },
                {
                    "name": "E4",
                    "midi": 64,
                    "time": 132.5999999999985,
                    "velocity": 0.7874015748031497,
                    "duration": 0.59375
                },
                {
                    "name": "B4",
                    "midi": 71,
                    "time": 133.19999999999848,
                    "velocity": 0.7874015748031497,
                    "duration": 0.59375
                },
                {
                    "name": "F4",
                    "midi": 65,
                    "time": 133.19999999999848,
                    "velocity": 0.7874015748031497,
                    "duration": 0.59375
                },
                {
                    "name": "A#4",
                    "midi": 70,
                    "time": 133.79999999999848,
                    "velocity": 0.7874015748031497,
                    "duration": 0.59375
                },
                {
                    "name": "G4",
                    "midi": 67,
                    "time": 133.79999999999848,
                    "velocity": 0.7874015748031497,
                    "duration": 0.59375
                },
                {
                    "name": "G#4",
                    "midi": 68,
                    "time": 134.39999999999847,
                    "velocity": 0.7874015748031497,
                    "duration": 0.4000000000000057
                },
                {
                    "name": "D#5",
                    "midi": 75,
                    "time": 134.99999999999847,
                    "velocity": 0.7874015748031497,
                    "duration": 0.59375
                },
                {
                    "name": "F#4",
                    "midi": 66,
                    "time": 134.99999999999847,
                    "velocity": 0.7874015748031497,
                    "duration": 0.59375
                },
                {
                    "name": "C#5",
                    "midi": 73,
                    "time": 135.59999999999846,
                    "velocity": 0.7874015748031497,
                    "duration": 0.59375
                },
                {
                    "name": "G4",
                    "midi": 67,
                    "time": 135.59999999999846,
                    "velocity": 0.7874015748031497,
                    "duration": 0.59375
                },
                {
                    "name": "C5",
                    "midi": 72,
                    "time": 136.19999999999845,
                    "velocity": 0.7874015748031497,
                    "duration": 0.59375
                },
                {
                    "name": "A4",
                    "midi": 69,
                    "time": 136.19999999999845,
                    "velocity": 0.7874015748031497,
                    "duration": 0.59375
                },
                {
                    "name": "B4",
                    "midi": 71,
                    "time": 136.79999999999845,
                    "velocity": 0.7874015748031497,
                    "duration": 0.19999999999998863
                },
                {
                    "name": "G5",
                    "midi": 79,
                    "time": 137.09999999999843,
                    "velocity": 0.7874015748031497,
                    "duration": 0.29374999999998863
                },
                {
                    "name": "F5",
                    "midi": 77,
                    "time": 137.3999999999984,
                    "velocity": 0.7874015748031497,
                    "duration": 0.29374999999998863
                },
                {
                    "name": "D5",
                    "midi": 74,
                    "time": 137.3999999999984,
                    "velocity": 0.7874015748031497,
                    "duration": 0.5937499999999716
                },
                {
                    "name": "G5",
                    "midi": 79,
                    "time": 137.6999999999984,
                    "velocity": 0.7874015748031497,
                    "duration": 0.29374999999998863
                },
                {
                    "name": "G#5",
                    "midi": 80,
                    "time": 137.99999999999838,
                    "velocity": 0.7874015748031497,
                    "duration": 0.19999999999998863
                },
                {
                    "name": "D#5",
                    "midi": 75,
                    "time": 137.99999999999838,
                    "velocity": 0.7874015748031497,
                    "duration": 0.5937499999999716
                },
                {
                    "name": "A5",
                    "midi": 81,
                    "time": 138.29999999999836,
                    "velocity": 0.7874015748031497,
                    "duration": 0.29374999999998863
                },
                {
                    "name": "F4",
                    "midi": 65,
                    "time": 138.59999999999835,
                    "velocity": 0.7874015748031497,
                    "duration": 0.5937499999999716
                },
                {
                    "name": "G5",
                    "midi": 79,
                    "time": 138.59999999999835,
                    "velocity": 0.7874015748031497,
                    "duration": 0.29374999999998863
                },
                {
                    "name": "A5",
                    "midi": 81,
                    "time": 138.89999999999833,
                    "velocity": 0.7874015748031497,
                    "duration": 0.29374999999998863
                },
                {
                    "name": "A#5",
                    "midi": 82,
                    "time": 139.1999999999983,
                    "velocity": 0.7874015748031497,
                    "duration": 0.19999999999998863
                },
                {
                    "name": "G4",
                    "midi": 67,
                    "time": 139.1999999999983,
                    "velocity": 0.7874015748031497,
                    "duration": 0.5937499999999716
                },
                {
                    "name": "B5",
                    "midi": 83,
                    "time": 139.4999999999983,
                    "velocity": 0.7874015748031497,
                    "duration": 0.29374999999998863
                },
                {
                    "name": "A5",
                    "midi": 81,
                    "time": 139.79999999999828,
                    "velocity": 0.7874015748031497,
                    "duration": 0.29374999999998863
                },
                {
                    "name": "D5",
                    "midi": 74,
                    "time": 139.79999999999828,
                    "velocity": 0.7874015748031497,
                    "duration": 0.5937499999999716
                },
                {
                    "name": "B5",
                    "midi": 83,
                    "time": 140.09999999999826,
                    "velocity": 0.7874015748031497,
                    "duration": 0.29374999999998863
                },
                {
                    "name": "C6",
                    "midi": 84,
                    "time": 140.39999999999824,
                    "velocity": 0.7874015748031497,
                    "duration": 0.29374999999998863
                },
                {
                    "name": "C5",
                    "midi": 72,
                    "time": 140.39999999999824,
                    "velocity": 0.7874015748031497,
                    "duration": 0.8937499999999545
                },
                {
                    "name": "G5",
                    "midi": 79,
                    "time": 140.69999999999823,
                    "velocity": 0.7874015748031497,
                    "duration": 0.29374999999998863
                },
                {
                    "name": "D6",
                    "midi": 86,
                    "time": 140.9999999999982,
                    "velocity": 0.7874015748031497,
                    "duration": 0.29374999999998863
                },
                {
                    "name": "F5",
                    "midi": 77,
                    "time": 141.2999999999982,
                    "velocity": 0.7874015748031497,
                    "duration": 0.29374999999998863
                },
                {
                    "name": "B4",
                    "midi": 71,
                    "time": 141.2999999999982,
                    "velocity": 0.7874015748031497,
                    "duration": 0.29374999999998863
                },
                {
                    "name": "D#5",
                    "midi": 75,
                    "time": 141.59999999999818,
                    "velocity": 0.7874015748031497,
                    "duration": 0.59375
                },
                {
                    "name": "C5",
                    "midi": 72,
                    "time": 141.59999999999818,
                    "velocity": 0.7874015748031497,
                    "duration": 0.59375
                },
                {
                    "name": "C6",
                    "midi": 84,
                    "time": 142.6499999999982,
                    "velocity": 0.7874015748031497,
                    "duration": 0.14375000000001137
                },
                {
                    "name": "D#5",
                    "midi": 75,
                    "time": 142.6499999999982,
                    "velocity": 0.7874015748031497,
                    "duration": 0.14375000000001137
                },
                {
                    "name": "C6",
                    "midi": 84,
                    "time": 142.7999999999982,
                    "velocity": 0.7874015748031497,
                    "duration": 0.8937500000000114
                },
                {
                    "name": "D#5",
                    "midi": 75,
                    "time": 142.7999999999982,
                    "velocity": 0.7874015748031497,
                    "duration": 0.8937500000000114
                },
                {
                    "name": "D#5",
                    "midi": 75,
                    "time": 143.8499999999982,
                    "velocity": 0.7874015748031497,
                    "duration": 0.14375000000001137
                },
                {
                    "name": "C5",
                    "midi": 72,
                    "time": 143.8499999999982,
                    "velocity": 0.7874015748031497,
                    "duration": 0.14375000000001137
                },
                {
                    "name": "D#5",
                    "midi": 75,
                    "time": 143.9999999999982,
                    "velocity": 0.7874015748031497,
                    "duration": 1.1937499999999943
                },
                {
                    "name": "G#4",
                    "midi": 68,
                    "time": 143.9999999999982,
                    "velocity": 0.7874015748031497,
                    "duration": 0.59375
                },
                {
                    "name": "C5",
                    "midi": 72,
                    "time": 144.5999999999982,
                    "velocity": 0.7874015748031497,
                    "duration": 0.59375
                },
                {
                    "name": "D5",
                    "midi": 74,
                    "time": 145.1999999999982,
                    "velocity": 0.7874015748031497,
                    "duration": 1.1937499999999943
                },
                {
                    "name": "B4",
                    "midi": 71,
                    "time": 145.1999999999982,
                    "velocity": 0.7874015748031497,
                    "duration": 0.59375
                },
                {
                    "name": "F4",
                    "midi": 65,
                    "time": 145.7999999999982,
                    "velocity": 0.7874015748031497,
                    "duration": 0.59375
                },
                {
                    "name": "F4",
                    "midi": 65,
                    "time": 146.3999999999982,
                    "velocity": 0.7874015748031497,
                    "duration": 0.59375
                },
                {
                    "name": "C5",
                    "midi": 72,
                    "time": 146.3999999999982,
                    "velocity": 0.7874015748031497,
                    "duration": 3.5937499999999716
                },
                {
                    "name": "E4",
                    "midi": 64,
                    "time": 146.99999999999818,
                    "velocity": 0.7874015748031497,
                    "duration": 0.29374999999998863
                },
                {
                    "name": "D4",
                    "midi": 62,
                    "time": 147.29999999999816,
                    "velocity": 0.7874015748031497,
                    "duration": 0.29374999999998863
                },
                {
                    "name": "E4",
                    "midi": 64,
                    "time": 147.59999999999815,
                    "velocity": 0.7874015748031497,
                    "duration": 2.3937500000000114
                }
            ],
            "controlChanges": {
                "7": [
                    {
                        "number": 7,
                        "time": 0,
                        "value": 0.7874015748031497
                    }
                ],
                "10": [
                    {
                        "number": 10,
                        "time": 0,
                        "value": 0.4251968503937008
                    }
                ],
                "32": [
                    {
                        "number": 32,
                        "time": 0,
                        "value": 0
                    }
                ]
            },
            "id": 1,
            "name": "J.S. Bach: Fugue, BWV 906 (part 2)",
            "instrumentNumber": 6,
            "instrument": "harpsichord",
            "instrumentFamily": "piano",
            "channelNumber": 0,
            "isPercussion": false
        },
        {
            "startTime": 5.1,
            "duration": 149.99999999999812,
            "length": 473,
            "notes": [
                {
                    "name": "D4",
                    "midi": 62,
                    "time": 5.1,
                    "velocity": 0.7874015748031497,
                    "duration": 0.2937500000000002
                },
                {
                    "name": "C4",
                    "midi": 60,
                    "time": 5.3999999999999995,
                    "velocity": 0.7874015748031497,
                    "duration": 0.2937500000000002
                },
                {
                    "name": "D4",
                    "midi": 62,
                    "time": 5.699999999999999,
                    "velocity": 0.7874015748031497,
                    "duration": 0.2937500000000002
                },
                {
                    "name": "D#4",
                    "midi": 63,
                    "time": 5.999999999999999,
                    "velocity": 0.7874015748031497,
                    "duration": 0.20000000000000018
                },
                {
                    "name": "E4",
                    "midi": 64,
                    "time": 6.299999999999999,
                    "velocity": 0.7874015748031497,
                    "duration": 0.2937500000000002
                },
                {
                    "name": "D4",
                    "midi": 62,
                    "time": 6.599999999999999,
                    "velocity": 0.7874015748031497,
                    "duration": 0.2937500000000002
                },
                {
                    "name": "E4",
                    "midi": 64,
                    "time": 6.899999999999999,
                    "velocity": 0.7874015748031497,
                    "duration": 0.2937500000000002
                },
                {
                    "name": "F4",
                    "midi": 65,
                    "time": 7.199999999999998,
                    "velocity": 0.7874015748031497,
                    "duration": 0.20000000000000018
                },
                {
                    "name": "F#4",
                    "midi": 66,
                    "time": 7.499999999999998,
                    "velocity": 0.7874015748031497,
                    "duration": 0.2937500000000002
                },
                {
                    "name": "E4",
                    "midi": 64,
                    "time": 7.799999999999998,
                    "velocity": 0.7874015748031497,
                    "duration": 0.2937500000000002
                },
                {
                    "name": "F#4",
                    "midi": 66,
                    "time": 8.099999999999998,
                    "velocity": 0.7874015748031497,
                    "duration": 0.2937499999999993
                },
                {
                    "name": "D4",
                    "midi": 62,
                    "time": 8.699999999999998,
                    "velocity": 0.7874015748031497,
                    "duration": 0.1999999999999993
                },
                {
                    "name": "C4",
                    "midi": 60,
                    "time": 9.299999999999997,
                    "velocity": 0.7874015748031497,
                    "duration": 0.1999999999999993
                },
                {
                    "name": "G3",
                    "midi": 55,
                    "time": 9.899999999999997,
                    "velocity": 0.7874015748031497,
                    "duration": 0.2937499999999993
                },
                {
                    "name": "F3",
                    "midi": 53,
                    "time": 10.199999999999996,
                    "velocity": 0.7874015748031497,
                    "duration": 0.2937499999999993
                },
                {
                    "name": "G3",
                    "midi": 55,
                    "time": 10.499999999999995,
                    "velocity": 0.7874015748031497,
                    "duration": 0.2937499999999993
                },
                {
                    "name": "G#3",
                    "midi": 56,
                    "time": 10.799999999999994,
                    "velocity": 0.7874015748031497,
                    "duration": 0.1999999999999993
                },
                {
                    "name": "A3",
                    "midi": 57,
                    "time": 11.099999999999993,
                    "velocity": 0.7874015748031497,
                    "duration": 0.2937499999999993
                },
                {
                    "name": "G3",
                    "midi": 55,
                    "time": 11.399999999999991,
                    "velocity": 0.7874015748031497,
                    "duration": 0.2937499999999993
                },
                {
                    "name": "A3",
                    "midi": 57,
                    "time": 11.69999999999999,
                    "velocity": 0.7874015748031497,
                    "duration": 0.2937499999999993
                },
                {
                    "name": "A#3",
                    "midi": 58,
                    "time": 11.99999999999999,
                    "velocity": 0.7874015748031497,
                    "duration": 0.1999999999999993
                },
                {
                    "name": "B3",
                    "midi": 59,
                    "time": 12.299999999999988,
                    "velocity": 0.7874015748031497,
                    "duration": 0.2937499999999993
                },
                {
                    "name": "A3",
                    "midi": 57,
                    "time": 12.599999999999987,
                    "velocity": 0.7874015748031497,
                    "duration": 0.2937499999999993
                },
                {
                    "name": "B3",
                    "midi": 59,
                    "time": 12.899999999999986,
                    "velocity": 0.7874015748031497,
                    "duration": 0.2937499999999993
                },
                {
                    "name": "C4",
                    "midi": 60,
                    "time": 13.199999999999985,
                    "velocity": 0.7874015748031497,
                    "duration": 0.1999999999999993
                },
                {
                    "name": "G3",
                    "midi": 55,
                    "time": 13.499999999999984,
                    "velocity": 0.7874015748031497,
                    "duration": 0.1999999999999993
                },
                {
                    "name": "D4",
                    "midi": 62,
                    "time": 13.799999999999983,
                    "velocity": 0.7874015748031497,
                    "duration": 0.1999999999999993
                },
                {
                    "name": "F3",
                    "midi": 53,
                    "time": 14.099999999999982,
                    "velocity": 0.7874015748031497,
                    "duration": 0.1999999999999993
                },
                {
                    "name": "D#3",
                    "midi": 51,
                    "time": 14.39999999999998,
                    "velocity": 0.7874015748031497,
                    "duration": 0.1999999999999993
                },
                {
                    "name": "C4",
                    "midi": 60,
                    "time": 14.69999999999998,
                    "velocity": 0.7874015748031497,
                    "duration": 0.2937499999999993
                },
                {
                    "name": "A#3",
                    "midi": 58,
                    "time": 14.999999999999979,
                    "velocity": 0.7874015748031497,
                    "duration": 0.2937499999999993
                },
                {
                    "name": "C4",
                    "midi": 60,
                    "time": 15.299999999999978,
                    "velocity": 0.7874015748031497,
                    "duration": 0.2937499999999993
                },
                {
                    "name": "D4",
                    "midi": 62,
                    "time": 15.599999999999977,
                    "velocity": 0.7874015748031497,
                    "duration": 0.1999999999999993
                },
                {
                    "name": "G#3",
                    "midi": 56,
                    "time": 15.899999999999975,
                    "velocity": 0.7874015748031497,
                    "duration": 0.20000000000000107
                },
                {
                    "name": "E4",
                    "midi": 64,
                    "time": 16.199999999999978,
                    "velocity": 0.7874015748031497,
                    "duration": 0.1999999999999993
                },
                {
                    "name": "G3",
                    "midi": 55,
                    "time": 16.49999999999998,
                    "velocity": 0.7874015748031497,
                    "duration": 0.1999999999999993
                },
                {
                    "name": "F3",
                    "midi": 53,
                    "time": 16.79999999999998,
                    "velocity": 0.7874015748031497,
                    "duration": 0.1999999999999993
                },
                {
                    "name": "D4",
                    "midi": 62,
                    "time": 17.09999999999998,
                    "velocity": 0.7874015748031497,
                    "duration": 0.2937499999999993
                },
                {
                    "name": "C4",
                    "midi": 60,
                    "time": 17.39999999999998,
                    "velocity": 0.7874015748031497,
                    "duration": 0.2937499999999993
                },
                {
                    "name": "D4",
                    "midi": 62,
                    "time": 17.69999999999998,
                    "velocity": 0.7874015748031497,
                    "duration": 0.2937499999999993
                },
                {
                    "name": "E4",
                    "midi": 64,
                    "time": 17.999999999999982,
                    "velocity": 0.7874015748031497,
                    "duration": 0.1999999999999993
                },
                {
                    "name": "A#3",
                    "midi": 58,
                    "time": 18.299999999999983,
                    "velocity": 0.7874015748031497,
                    "duration": 0.1999999999999993
                },
                {
                    "name": "F#4",
                    "midi": 66,
                    "time": 18.599999999999984,
                    "velocity": 0.7874015748031497,
                    "duration": 0.1999999999999993
                },
                {
                    "name": "A3",
                    "midi": 57,
                    "time": 18.899999999999984,
                    "velocity": 0.7874015748031497,
                    "duration": 0.1999999999999993
                },
                {
                    "name": "G3",
                    "midi": 55,
                    "time": 19.199999999999985,
                    "velocity": 0.7874015748031497,
                    "duration": 0.59375
                },
                {
                    "name": "B3",
                    "midi": 59,
                    "time": 19.799999999999986,
                    "velocity": 0.7874015748031497,
                    "duration": 0.59375
                },
                {
                    "name": "C4",
                    "midi": 60,
                    "time": 20.399999999999988,
                    "velocity": 0.7874015748031497,
                    "duration": 0.59375
                },
                {
                    "name": "C#4",
                    "midi": 61,
                    "time": 20.99999999999999,
                    "velocity": 0.7874015748031497,
                    "duration": 0.59375
                },
                {
                    "name": "D4",
                    "midi": 62,
                    "time": 21.59999999999999,
                    "velocity": 0.7874015748031497,
                    "duration": 0.3999999999999986
                },
                {
                    "name": "D4",
                    "midi": 62,
                    "time": 22.19999999999999,
                    "velocity": 0.7874015748031497,
                    "duration": 0.59375
                },
                {
                    "name": "D#4",
                    "midi": 63,
                    "time": 22.79999999999999,
                    "velocity": 0.7874015748031497,
                    "duration": 0.59375
                },
                {
                    "name": "F#4",
                    "midi": 66,
                    "time": 23.39999999999999,
                    "velocity": 0.7874015748031497,
                    "duration": 0.59375
                },
                {
                    "name": "B3",
                    "midi": 59,
                    "time": 24.59999999999999,
                    "velocity": 0.7874015748031497,
                    "duration": 0.59375
                },
                {
                    "name": "C4",
                    "midi": 60,
                    "time": 25.199999999999992,
                    "velocity": 0.7874015748031497,
                    "duration": 0.59375
                },
                {
                    "name": "D4",
                    "midi": 62,
                    "time": 25.799999999999994,
                    "velocity": 0.7874015748031497,
                    "duration": 0.59375
                },
                {
                    "name": "D#4",
                    "midi": 63,
                    "time": 26.399999999999995,
                    "velocity": 0.7874015748031497,
                    "duration": 0.59375
                },
                {
                    "name": "C5",
                    "midi": 72,
                    "time": 26.699999999999996,
                    "velocity": 0.7874015748031497,
                    "duration": 0.2937499999999993
                },
                {
                    "name": "C#4",
                    "midi": 61,
                    "time": 26.999999999999996,
                    "velocity": 0.7874015748031497,
                    "duration": 0.59375
                },
                {
                    "name": "B3",
                    "midi": 59,
                    "time": 27.599999999999998,
                    "velocity": 0.7874015748031497,
                    "duration": 0.59375
                },
                {
                    "name": "A#3",
                    "midi": 58,
                    "time": 28.2,
                    "velocity": 0.7874015748031497,
                    "duration": 0.59375
                },
                {
                    "name": "G#3",
                    "midi": 56,
                    "time": 28.8,
                    "velocity": 0.7874015748031497,
                    "duration": 0.2937499999999993
                },
                {
                    "name": "F4",
                    "midi": 65,
                    "time": 29.1,
                    "velocity": 0.7874015748031497,
                    "duration": 0.2937499999999993
                },
                {
                    "name": "D#4",
                    "midi": 63,
                    "time": 29.400000000000002,
                    "velocity": 0.7874015748031497,
                    "duration": 0.2937499999999993
                },
                {
                    "name": "F4",
                    "midi": 65,
                    "time": 29.700000000000003,
                    "velocity": 0.7874015748031497,
                    "duration": 0.2937499999999993
                },
                {
                    "name": "C#4",
                    "midi": 61,
                    "time": 30.3,
                    "velocity": 0.7874015748031497,
                    "duration": 0.1999999999999993
                },
                {
                    "name": "C4",
                    "midi": 60,
                    "time": 30.9,
                    "velocity": 0.7874015748031497,
                    "duration": 0.1999999999999993
                },
                {
                    "name": "A#3",
                    "midi": 58,
                    "time": 31.2,
                    "velocity": 0.7874015748031497,
                    "duration": 0.2937499999999993
                },
                {
                    "name": "D4",
                    "midi": 62,
                    "time": 31.5,
                    "velocity": 0.7874015748031497,
                    "duration": 0.2937499999999993
                },
                {
                    "name": "C4",
                    "midi": 60,
                    "time": 31.8,
                    "velocity": 0.7874015748031497,
                    "duration": 0.2937499999999993
                },
                {
                    "name": "D4",
                    "midi": 62,
                    "time": 32.1,
                    "velocity": 0.7874015748031497,
                    "duration": 0.29375000000000284
                },
                {
                    "name": "E4",
                    "midi": 64,
                    "time": 32.400000000000006,
                    "velocity": 0.7874015748031497,
                    "duration": 0.20000000000000284
                },
                {
                    "name": "A#3",
                    "midi": 58,
                    "time": 32.70000000000001,
                    "velocity": 0.7874015748031497,
                    "duration": 0.20000000000000284
                },
                {
                    "name": "F#4",
                    "midi": 66,
                    "time": 33.000000000000014,
                    "velocity": 0.7874015748031497,
                    "duration": 0.20000000000000284
                },
                {
                    "name": "A3",
                    "midi": 57,
                    "time": 33.30000000000002,
                    "velocity": 0.7874015748031497,
                    "duration": 0.20000000000000284
                },
                {
                    "name": "G3",
                    "midi": 55,
                    "time": 33.60000000000002,
                    "velocity": 0.7874015748031497,
                    "duration": 0.59375
                },
                {
                    "name": "C#4",
                    "midi": 61,
                    "time": 36.60000000000002,
                    "velocity": 0.7874015748031497,
                    "duration": 0.3999999999999986
                },
                {
                    "name": "E4",
                    "midi": 64,
                    "time": 36.60000000000002,
                    "velocity": 0.7874015748031497,
                    "duration": 0.3999999999999986
                },
                {
                    "name": "B3",
                    "midi": 59,
                    "time": 37.200000000000024,
                    "velocity": 0.7874015748031497,
                    "duration": 0.3999999999999986
                },
                {
                    "name": "F4",
                    "midi": 65,
                    "time": 37.200000000000024,
                    "velocity": 0.7874015748031497,
                    "duration": 0.3999999999999986
                },
                {
                    "name": "A#3",
                    "midi": 58,
                    "time": 37.800000000000026,
                    "velocity": 0.7874015748031497,
                    "duration": 0.3999999999999986
                },
                {
                    "name": "G4",
                    "midi": 67,
                    "time": 37.800000000000026,
                    "velocity": 0.7874015748031497,
                    "duration": 0.3999999999999986
                },
                {
                    "name": "G#3",
                    "midi": 56,
                    "time": 38.40000000000003,
                    "velocity": 0.7874015748031497,
                    "duration": 0.29375000000000284
                },
                {
                    "name": "G3",
                    "midi": 55,
                    "time": 38.70000000000003,
                    "velocity": 0.7874015748031497,
                    "duration": 0.29375000000000284
                },
                {
                    "name": "F3",
                    "midi": 53,
                    "time": 39.000000000000036,
                    "velocity": 0.7874015748031497,
                    "duration": 0.29375000000000284
                },
                {
                    "name": "G3",
                    "midi": 55,
                    "time": 39.30000000000004,
                    "velocity": 0.7874015748031497,
                    "duration": 0.29375000000000284
                },
                {
                    "name": "G#3",
                    "midi": 56,
                    "time": 39.600000000000044,
                    "velocity": 0.7874015748031497,
                    "duration": 0.20000000000000284
                },
                {
                    "name": "A3",
                    "midi": 57,
                    "time": 39.90000000000005,
                    "velocity": 0.7874015748031497,
                    "duration": 0.29375000000000284
                },
                {
                    "name": "G3",
                    "midi": 55,
                    "time": 40.20000000000005,
                    "velocity": 0.7874015748031497,
                    "duration": 0.29375000000000284
                },
                {
                    "name": "A3",
                    "midi": 57,
                    "time": 40.50000000000006,
                    "velocity": 0.7874015748031497,
                    "duration": 0.29375000000000284
                },
                {
                    "name": "A#3",
                    "midi": 58,
                    "time": 40.80000000000006,
                    "velocity": 0.7874015748031497,
                    "duration": 0.20000000000000284
                },
                {
                    "name": "B3",
                    "midi": 59,
                    "time": 41.100000000000065,
                    "velocity": 0.7874015748031497,
                    "duration": 0.29375000000000284
                },
                {
                    "name": "A3",
                    "midi": 57,
                    "time": 41.40000000000007,
                    "velocity": 0.7874015748031497,
                    "duration": 0.29375000000000284
                },
                {
                    "name": "B3",
                    "midi": 59,
                    "time": 41.700000000000074,
                    "velocity": 0.7874015748031497,
                    "duration": 0.29375000000000284
                },
                {
                    "name": "C4",
                    "midi": 60,
                    "time": 42.00000000000008,
                    "velocity": 0.7874015748031497,
                    "duration": 0.29375000000000284
                },
                {
                    "name": "G3",
                    "midi": 55,
                    "time": 42.30000000000008,
                    "velocity": 0.7874015748031497,
                    "duration": 0.20000000000000284
                },
                {
                    "name": "D4",
                    "midi": 62,
                    "time": 42.60000000000009,
                    "velocity": 0.7874015748031497,
                    "duration": 0.29375000000000284
                },
                {
                    "name": "F3",
                    "midi": 53,
                    "time": 42.90000000000009,
                    "velocity": 0.7874015748031497,
                    "duration": 0.20000000000000284
                },
                {
                    "name": "D#3",
                    "midi": 51,
                    "time": 43.200000000000095,
                    "velocity": 0.7874015748031497,
                    "duration": 0.3999999999999986
                },
                {
                    "name": "G#3",
                    "midi": 56,
                    "time": 43.8000000000001,
                    "velocity": 0.7874015748031497,
                    "duration": 0.8937499999999972
                },
                {
                    "name": "G3",
                    "midi": 55,
                    "time": 44.700000000000095,
                    "velocity": 0.7874015748031497,
                    "duration": 0.29375000000000284
                },
                {
                    "name": "A#3",
                    "midi": 58,
                    "time": 45.0000000000001,
                    "velocity": 0.7874015748031497,
                    "duration": 0.7999999999999972
                },
                {
                    "name": "A3",
                    "midi": 57,
                    "time": 45.9000000000001,
                    "velocity": 0.7874015748031497,
                    "duration": 0.20000000000000284
                },
                {
                    "name": "C4",
                    "midi": 60,
                    "time": 46.2000000000001,
                    "velocity": 0.7874015748031497,
                    "duration": 0.8937499999999972
                },
                {
                    "name": "A#3",
                    "midi": 58,
                    "time": 47.1000000000001,
                    "velocity": 0.7874015748031497,
                    "duration": 0.14374999999999716
                },
                {
                    "name": "A3",
                    "midi": 57,
                    "time": 47.2500000000001,
                    "velocity": 0.7874015748031497,
                    "duration": 0.14374999999999716
                },
                {
                    "name": "G3",
                    "midi": 55,
                    "time": 47.4000000000001,
                    "velocity": 0.7874015748031497,
                    "duration": 0.29375000000000284
                },
                {
                    "name": "F#3",
                    "midi": 54,
                    "time": 47.7000000000001,
                    "velocity": 0.7874015748031497,
                    "duration": 0.29375000000000284
                },
                {
                    "name": "G3",
                    "midi": 55,
                    "time": 48.00000000000011,
                    "velocity": 0.7874015748031497,
                    "duration": 1.4937499999999986
                },
                {
                    "name": "F3",
                    "midi": 53,
                    "time": 49.50000000000011,
                    "velocity": 0.7874015748031497,
                    "duration": 0.29375000000000284
                },
                {
                    "name": "D#3",
                    "midi": 51,
                    "time": 49.80000000000011,
                    "velocity": 0.7874015748031497,
                    "duration": 0.29375000000000284
                },
                {
                    "name": "F3",
                    "midi": 53,
                    "time": 50.100000000000115,
                    "velocity": 0.7874015748031497,
                    "duration": 0.29375000000000284
                },
                {
                    "name": "D3",
                    "midi": 50,
                    "time": 50.40000000000012,
                    "velocity": 0.7874015748031497,
                    "duration": 1.4937499999999986
                },
                {
                    "name": "C3",
                    "midi": 48,
                    "time": 51.90000000000012,
                    "velocity": 0.7874015748031497,
                    "duration": 0.59375
                },
                {
                    "name": "B2",
                    "midi": 47,
                    "time": 52.50000000000012,
                    "velocity": 0.7874015748031497,
                    "duration": 0.29375000000000284
                },
                {
                    "name": "C4",
                    "midi": 60,
                    "time": 52.800000000000125,
                    "velocity": 0.7874015748031497,
                    "duration": 0.20000000000000284
                },
                {
                    "name": "C3",
                    "midi": 48,
                    "time": 52.800000000000125,
                    "velocity": 0.7874015748031497,
                    "duration": 1.793750000000017
                },
                {
                    "name": "D#3",
                    "midi": 51,
                    "time": 53.10000000000013,
                    "velocity": 0.7874015748031497,
                    "duration": 0.29375000000000284
                },
                {
                    "name": "D3",
                    "midi": 50,
                    "time": 53.400000000000134,
                    "velocity": 0.7874015748031497,
                    "duration": 0.29375000000000284
                },
                {
                    "name": "D#3",
                    "midi": 51,
                    "time": 53.70000000000014,
                    "velocity": 0.7874015748031497,
                    "duration": 0.29375000000000284
                },
                {
                    "name": "F3",
                    "midi": 53,
                    "time": 54.00000000000014,
                    "velocity": 0.7874015748031497,
                    "duration": 0.59375
                },
                {
                    "name": "A#2",
                    "midi": 46,
                    "time": 54.60000000000014,
                    "velocity": 0.7874015748031497,
                    "duration": 0.59375
                },
                {
                    "name": "G3",
                    "midi": 55,
                    "time": 54.60000000000014,
                    "velocity": 0.7874015748031497,
                    "duration": 0.8937500000000043
                },
                {
                    "name": "G#2",
                    "midi": 44,
                    "time": 55.200000000000145,
                    "velocity": 0.7874015748031497,
                    "duration": 1.793750000000017
                },
                {
                    "name": "C3",
                    "midi": 48,
                    "time": 55.50000000000015,
                    "velocity": 0.7874015748031497,
                    "duration": 0.29375000000000284
                },
                {
                    "name": "B2",
                    "midi": 47,
                    "time": 55.80000000000015,
                    "velocity": 0.7874015748031497,
                    "duration": 0.29375000000000284
                },
                {
                    "name": "C3",
                    "midi": 48,
                    "time": 56.10000000000016,
                    "velocity": 0.7874015748031497,
                    "duration": 0.29375000000000284
                },
                {
                    "name": "D3",
                    "midi": 50,
                    "time": 56.40000000000016,
                    "velocity": 0.7874015748031497,
                    "duration": 0.59375
                },
                {
                    "name": "G2",
                    "midi": 43,
                    "time": 57.00000000000016,
                    "velocity": 0.7874015748031497,
                    "duration": 0.59375
                },
                {
                    "name": "E3",
                    "midi": 52,
                    "time": 57.00000000000016,
                    "velocity": 0.7874015748031497,
                    "duration": 0.59375
                },
                {
                    "name": "F3",
                    "midi": 53,
                    "time": 57.600000000000165,
                    "velocity": 0.7874015748031497,
                    "duration": 0.59375
                },
                {
                    "name": "F2",
                    "midi": 41,
                    "time": 57.600000000000165,
                    "velocity": 0.7874015748031497,
                    "duration": 0.59375
                },
                {
                    "name": "G#3",
                    "midi": 56,
                    "time": 59.40000000000016,
                    "velocity": 0.7874015748031497,
                    "duration": 0.7437499999999986
                },
                {
                    "name": "A#3",
                    "midi": 58,
                    "time": 60.15000000000016,
                    "velocity": 0.7874015748031497,
                    "duration": 0.14374999999999716
                },
                {
                    "name": "G#3",
                    "midi": 56,
                    "time": 60.30000000000016,
                    "velocity": 0.7874015748031497,
                    "duration": 0.14374999999999716
                },
                {
                    "name": "G3",
                    "midi": 55,
                    "time": 60.45000000000016,
                    "velocity": 0.7874015748031497,
                    "duration": 0.14374999999999716
                },
                {
                    "name": "F3",
                    "midi": 53,
                    "time": 60.60000000000016,
                    "velocity": 0.7874015748031497,
                    "duration": 0.14374999999999716
                },
                {
                    "name": "D#3",
                    "midi": 51,
                    "time": 60.750000000000156,
                    "velocity": 0.7874015748031497,
                    "duration": 0.14374999999999716
                },
                {
                    "name": "D3",
                    "midi": 50,
                    "time": 60.900000000000155,
                    "velocity": 0.7874015748031497,
                    "duration": 0.14374999999999716
                },
                {
                    "name": "C3",
                    "midi": 48,
                    "time": 61.05000000000015,
                    "velocity": 0.7874015748031497,
                    "duration": 0.14374999999999716
                },
                {
                    "name": "B2",
                    "midi": 47,
                    "time": 61.20000000000015,
                    "velocity": 0.7874015748031497,
                    "duration": 0.59375
                },
                {
                    "name": "B3",
                    "midi": 59,
                    "time": 61.80000000000015,
                    "velocity": 0.7874015748031497,
                    "duration": 0.59375
                },
                {
                    "name": "C4",
                    "midi": 60,
                    "time": 62.400000000000155,
                    "velocity": 0.7874015748031497,
                    "duration": 0.59375
                },
                {
                    "name": "B3",
                    "midi": 59,
                    "time": 63.150000000000155,
                    "velocity": 0.7874015748031497,
                    "duration": 0.14374999999999716
                },
                {
                    "name": "C4",
                    "midi": 60,
                    "time": 63.30000000000015,
                    "velocity": 0.7874015748031497,
                    "duration": 0.14374999999999716
                },
                {
                    "name": "D4",
                    "midi": 62,
                    "time": 63.45000000000015,
                    "velocity": 0.7874015748031497,
                    "duration": 0.14374999999999716
                },
                {
                    "name": "D#4",
                    "midi": 63,
                    "time": 63.60000000000015,
                    "velocity": 0.7874015748031497,
                    "duration": 0.14374999999999716
                },
                {
                    "name": "D4",
                    "midi": 62,
                    "time": 63.75000000000015,
                    "velocity": 0.7874015748031497,
                    "duration": 0.14374999999999716
                },
                {
                    "name": "C4",
                    "midi": 60,
                    "time": 63.90000000000015,
                    "velocity": 0.7874015748031497,
                    "duration": 0.14374999999999716
                },
                {
                    "name": "D4",
                    "midi": 62,
                    "time": 64.05000000000014,
                    "velocity": 0.7874015748031497,
                    "duration": 0.14374999999999716
                },
                {
                    "name": "D#4",
                    "midi": 63,
                    "time": 64.20000000000013,
                    "velocity": 0.7874015748031497,
                    "duration": 0.14374999999999716
                },
                {
                    "name": "C4",
                    "midi": 60,
                    "time": 64.35000000000012,
                    "velocity": 0.7874015748031497,
                    "duration": 0.14374999999999716
                },
                {
                    "name": "D4",
                    "midi": 62,
                    "time": 64.50000000000011,
                    "velocity": 0.7874015748031497,
                    "duration": 0.14374999999999716
                },
                {
                    "name": "D#4",
                    "midi": 63,
                    "time": 64.6500000000001,
                    "velocity": 0.7874015748031497,
                    "duration": 0.14374999999999716
                },
                {
                    "name": "F4",
                    "midi": 65,
                    "time": 64.8000000000001,
                    "velocity": 0.7874015748031497,
                    "duration": 0.14374999999999716
                },
                {
                    "name": "G4",
                    "midi": 67,
                    "time": 64.95000000000009,
                    "velocity": 0.7874015748031497,
                    "duration": 0.14374999999999716
                },
                {
                    "name": "F4",
                    "midi": 65,
                    "time": 65.10000000000008,
                    "velocity": 0.7874015748031497,
                    "duration": 0.14374999999999716
                },
                {
                    "name": "D#4",
                    "midi": 63,
                    "time": 65.25000000000007,
                    "velocity": 0.7874015748031497,
                    "duration": 0.14374999999999716
                },
                {
                    "name": "D4",
                    "midi": 62,
                    "time": 65.40000000000006,
                    "velocity": 0.7874015748031497,
                    "duration": 0.14374999999999716
                },
                {
                    "name": "C4",
                    "midi": 60,
                    "time": 65.55000000000005,
                    "velocity": 0.7874015748031497,
                    "duration": 0.14374999999999716
                },
                {
                    "name": "B3",
                    "midi": 59,
                    "time": 65.70000000000005,
                    "velocity": 0.7874015748031497,
                    "duration": 0.14374999999999716
                },
                {
                    "name": "A3",
                    "midi": 57,
                    "time": 65.85000000000004,
                    "velocity": 0.7874015748031497,
                    "duration": 0.14374999999999716
                },
                {
                    "name": "B3",
                    "midi": 59,
                    "time": 66.00000000000003,
                    "velocity": 0.7874015748031497,
                    "duration": 0.14374999999999716
                },
                {
                    "name": "G3",
                    "midi": 55,
                    "time": 66.15000000000002,
                    "velocity": 0.7874015748031497,
                    "duration": 0.14374999999999716
                },
                {
                    "name": "A3",
                    "midi": 57,
                    "time": 66.30000000000001,
                    "velocity": 0.7874015748031497,
                    "duration": 0.14374999999999716
                },
                {
                    "name": "B3",
                    "midi": 59,
                    "time": 66.45,
                    "velocity": 0.7874015748031497,
                    "duration": 0.14374999999999716
                },
                {
                    "name": "C4",
                    "midi": 60,
                    "time": 66.6,
                    "velocity": 0.7874015748031497,
                    "duration": 0.14374999999999716
                },
                {
                    "name": "A#3",
                    "midi": 58,
                    "time": 66.74999999999999,
                    "velocity": 0.7874015748031497,
                    "duration": 0.14374999999999716
                },
                {
                    "name": "G#3",
                    "midi": 56,
                    "time": 66.89999999999998,
                    "velocity": 0.7874015748031497,
                    "duration": 0.14374999999999716
                },
                {
                    "name": "G3",
                    "midi": 55,
                    "time": 67.04999999999997,
                    "velocity": 0.7874015748031497,
                    "duration": 0.14374999999999716
                },
                {
                    "name": "G#3",
                    "midi": 56,
                    "time": 67.19999999999996,
                    "velocity": 0.7874015748031497,
                    "duration": 0.14374999999999716
                },
                {
                    "name": "A#3",
                    "midi": 58,
                    "time": 67.34999999999995,
                    "velocity": 0.7874015748031497,
                    "duration": 0.14374999999999716
                },
                {
                    "name": "G#3",
                    "midi": 56,
                    "time": 67.49999999999994,
                    "velocity": 0.7874015748031497,
                    "duration": 0.14374999999999716
                },
                {
                    "name": "G3",
                    "midi": 55,
                    "time": 67.64999999999993,
                    "velocity": 0.7874015748031497,
                    "duration": 0.14374999999999716
                },
                {
                    "name": "F3",
                    "midi": 53,
                    "time": 67.79999999999993,
                    "velocity": 0.7874015748031497,
                    "duration": 0.14374999999999716
                },
                {
                    "name": "D#3",
                    "midi": 51,
                    "time": 67.94999999999992,
                    "velocity": 0.7874015748031497,
                    "duration": 0.14374999999999716
                },
                {
                    "name": "D3",
                    "midi": 50,
                    "time": 68.09999999999991,
                    "velocity": 0.7874015748031497,
                    "duration": 0.14374999999999716
                },
                {
                    "name": "C3",
                    "midi": 48,
                    "time": 68.2499999999999,
                    "velocity": 0.7874015748031497,
                    "duration": 0.14374999999999716
                },
                {
                    "name": "B2",
                    "midi": 47,
                    "time": 68.39999999999989,
                    "velocity": 0.7874015748031497,
                    "duration": 0.14374999999999716
                },
                {
                    "name": "G2",
                    "midi": 43,
                    "time": 68.54999999999988,
                    "velocity": 0.7874015748031497,
                    "duration": 0.14374999999999716
                },
                {
                    "name": "A2",
                    "midi": 45,
                    "time": 68.69999999999987,
                    "velocity": 0.7874015748031497,
                    "duration": 0.14374999999999716
                },
                {
                    "name": "B2",
                    "midi": 47,
                    "time": 68.84999999999987,
                    "velocity": 0.7874015748031497,
                    "duration": 0.14374999999999716
                },
                {
                    "name": "C3",
                    "midi": 48,
                    "time": 68.99999999999986,
                    "velocity": 0.7874015748031497,
                    "duration": 0.14374999999999716
                },
                {
                    "name": "A#2",
                    "midi": 46,
                    "time": 69.14999999999985,
                    "velocity": 0.7874015748031497,
                    "duration": 0.14374999999999716
                },
                {
                    "name": "G#2",
                    "midi": 44,
                    "time": 69.29999999999984,
                    "velocity": 0.7874015748031497,
                    "duration": 0.14374999999999716
                },
                {
                    "name": "G2",
                    "midi": 43,
                    "time": 69.44999999999983,
                    "velocity": 0.7874015748031497,
                    "duration": 0.14374999999999716
                },
                {
                    "name": "F#2",
                    "midi": 42,
                    "time": 69.59999999999982,
                    "velocity": 0.7874015748031497,
                    "duration": 0.4000000000000057
                },
                {
                    "name": "C4",
                    "midi": 60,
                    "time": 70.19999999999983,
                    "velocity": 0.7874015748031497,
                    "duration": 0.59375
                },
                {
                    "name": "G2",
                    "midi": 43,
                    "time": 70.79999999999983,
                    "velocity": 0.7874015748031497,
                    "duration": 0.59375
                },
                {
                    "name": "G3",
                    "midi": 55,
                    "time": 71.09999999999982,
                    "velocity": 0.7874015748031497,
                    "duration": 0.29375000000000284
                },
                {
                    "name": "F3",
                    "midi": 53,
                    "time": 71.39999999999982,
                    "velocity": 0.7874015748031497,
                    "duration": 0.29375000000000284
                },
                {
                    "name": "D3",
                    "midi": 50,
                    "time": 71.69999999999982,
                    "velocity": 0.7874015748031497,
                    "duration": 0.29375000000000284
                },
                {
                    "name": "G#2",
                    "midi": 44,
                    "time": 71.99999999999982,
                    "velocity": 0.7874015748031497,
                    "duration": 0.59375
                },
                {
                    "name": "D3",
                    "midi": 50,
                    "time": 72.29999999999981,
                    "velocity": 0.7874015748031497,
                    "duration": 0.20000000000000284
                },
                {
                    "name": "D3",
                    "midi": 50,
                    "time": 72.59999999999981,
                    "velocity": 0.7874015748031497,
                    "duration": 0.29375000000000284
                },
                {
                    "name": "D#3",
                    "midi": 51,
                    "time": 72.8999999999998,
                    "velocity": 0.7874015748031497,
                    "duration": 0.29375000000000284
                },
                {
                    "name": "G2",
                    "midi": 43,
                    "time": 73.1999999999998,
                    "velocity": 0.7874015748031497,
                    "duration": 0.5937499999999858
                },
                {
                    "name": "D#3",
                    "midi": 51,
                    "time": 73.34999999999981,
                    "velocity": 0.7874015748031497,
                    "duration": 0.14374999999999716
                },
                {
                    "name": "D3",
                    "midi": 50,
                    "time": 73.4999999999998,
                    "velocity": 0.7874015748031497,
                    "duration": 0.14374999999999716
                },
                {
                    "name": "D#3",
                    "midi": 51,
                    "time": 73.64999999999979,
                    "velocity": 0.7874015748031497,
                    "duration": 0.14374999999999716
                },
                {
                    "name": "F3",
                    "midi": 53,
                    "time": 73.79999999999978,
                    "velocity": 0.7874015748031497,
                    "duration": 0.14374999999999716
                },
                {
                    "name": "D3",
                    "midi": 50,
                    "time": 73.94999999999978,
                    "velocity": 0.7874015748031497,
                    "duration": 0.14374999999999716
                },
                {
                    "name": "D#3",
                    "midi": 51,
                    "time": 74.09999999999977,
                    "velocity": 0.7874015748031497,
                    "duration": 0.29375000000000284
                },
                {
                    "name": "F#2",
                    "midi": 42,
                    "time": 74.39999999999976,
                    "velocity": 0.7874015748031497,
                    "duration": 0.59375
                },
                {
                    "name": "F#3",
                    "midi": 54,
                    "time": 75.29999999999977,
                    "velocity": 0.7874015748031497,
                    "duration": 0.29375000000000284
                },
                {
                    "name": "D4",
                    "midi": 62,
                    "time": 75.29999999999977,
                    "velocity": 0.7874015748031497,
                    "duration": 0.29375000000000284
                },
                {
                    "name": "G3",
                    "midi": 55,
                    "time": 75.59999999999977,
                    "velocity": 0.7874015748031497,
                    "duration": 1.1937499999999943
                },
                {
                    "name": "D#4",
                    "midi": 63,
                    "time": 75.59999999999977,
                    "velocity": 0.7874015748031497,
                    "duration": 0.59375
                },
                {
                    "name": "B3",
                    "midi": 59,
                    "time": 76.19999999999976,
                    "velocity": 0.7874015748031497,
                    "duration": 0.59375
                },
                {
                    "name": "C3",
                    "midi": 48,
                    "time": 76.79999999999976,
                    "velocity": 0.7874015748031497,
                    "duration": 1.1937499999999375
                },
                {
                    "name": "C4",
                    "midi": 60,
                    "time": 76.79999999999976,
                    "velocity": 0.7874015748031497,
                    "duration": 0.14374999999999716
                },
                {
                    "name": "G#3",
                    "midi": 56,
                    "time": 76.94999999999975,
                    "velocity": 0.7874015748031497,
                    "duration": 0.14374999999999716
                },
                {
                    "name": "G3",
                    "midi": 55,
                    "time": 77.09999999999974,
                    "velocity": 0.7874015748031497,
                    "duration": 0.14374999999999716
                },
                {
                    "name": "F3",
                    "midi": 53,
                    "time": 77.24999999999973,
                    "velocity": 0.7874015748031497,
                    "duration": 0.14374999999999716
                },
                {
                    "name": "G3",
                    "midi": 55,
                    "time": 77.39999999999972,
                    "velocity": 0.7874015748031497,
                    "duration": 0.14374999999999716
                },
                {
                    "name": "F3",
                    "midi": 53,
                    "time": 77.54999999999971,
                    "velocity": 0.7874015748031497,
                    "duration": 0.14374999999999716
                },
                {
                    "name": "D#3",
                    "midi": 51,
                    "time": 77.6999999999997,
                    "velocity": 0.7874015748031497,
                    "duration": 0.14374999999999716
                },
                {
                    "name": "D3",
                    "midi": 50,
                    "time": 77.8499999999997,
                    "velocity": 0.7874015748031497,
                    "duration": 0.14374999999999716
                },
                {
                    "name": "D#3",
                    "midi": 51,
                    "time": 77.99999999999969,
                    "velocity": 0.7874015748031497,
                    "duration": 0.5937499999999716
                },
                {
                    "name": "C3",
                    "midi": 48,
                    "time": 77.99999999999969,
                    "velocity": 0.7874015748031497,
                    "duration": 0.14374999999999716
                },
                {
                    "name": "G#2",
                    "midi": 44,
                    "time": 78.14999999999968,
                    "velocity": 0.7874015748031497,
                    "duration": 0.14374999999999716
                },
                {
                    "name": "G2",
                    "midi": 43,
                    "time": 78.29999999999967,
                    "velocity": 0.7874015748031497,
                    "duration": 0.14374999999999716
                },
                {
                    "name": "F2",
                    "midi": 41,
                    "time": 78.44999999999966,
                    "velocity": 0.7874015748031497,
                    "duration": 0.14374999999999716
                },
                {
                    "name": "G2",
                    "midi": 43,
                    "time": 78.59999999999965,
                    "velocity": 0.7874015748031497,
                    "duration": 0.14374999999999716
                },
                {
                    "name": "F2",
                    "midi": 41,
                    "time": 78.74999999999964,
                    "velocity": 0.7874015748031497,
                    "duration": 0.14374999999999716
                },
                {
                    "name": "D#2",
                    "midi": 39,
                    "time": 78.89999999999964,
                    "velocity": 0.7874015748031497,
                    "duration": 0.14374999999999716
                },
                {
                    "name": "D2",
                    "midi": 38,
                    "time": 79.04999999999963,
                    "velocity": 0.7874015748031497,
                    "duration": 0.14374999999999716
                },
                {
                    "name": "C2",
                    "midi": 36,
                    "time": 79.19999999999962,
                    "velocity": 0.7874015748031497,
                    "duration": 0.59375
                },
                {
                    "name": "D#3",
                    "midi": 51,
                    "time": 79.79999999999961,
                    "velocity": 0.7874015748031497,
                    "duration": 0.14374999999999716
                },
                {
                    "name": "D3",
                    "midi": 50,
                    "time": 79.9499999999996,
                    "velocity": 0.7874015748031497,
                    "duration": 0.14374999999999716
                },
                {
                    "name": "C3",
                    "midi": 48,
                    "time": 80.0999999999996,
                    "velocity": 0.7874015748031497,
                    "duration": 0.29375000000000284
                },
                {
                    "name": "D2",
                    "midi": 38,
                    "time": 80.3999999999996,
                    "velocity": 0.7874015748031497,
                    "duration": 0.59375
                },
                {
                    "name": "F3",
                    "midi": 53,
                    "time": 80.99999999999959,
                    "velocity": 0.7874015748031497,
                    "duration": 0.14374999999999716
                },
                {
                    "name": "D#3",
                    "midi": 51,
                    "time": 81.14999999999958,
                    "velocity": 0.7874015748031497,
                    "duration": 0.14374999999999716
                },
                {
                    "name": "D3",
                    "midi": 50,
                    "time": 81.29999999999957,
                    "velocity": 0.7874015748031497,
                    "duration": 0.29375000000000284
                },
                {
                    "name": "D#2",
                    "midi": 39,
                    "time": 81.59999999999957,
                    "velocity": 0.7874015748031497,
                    "duration": 0.59375
                },
                {
                    "name": "G3",
                    "midi": 55,
                    "time": 82.19999999999956,
                    "velocity": 0.7874015748031497,
                    "duration": 0.14374999999999716
                },
                {
                    "name": "F3",
                    "midi": 53,
                    "time": 82.34999999999955,
                    "velocity": 0.7874015748031497,
                    "duration": 0.14374999999999716
                },
                {
                    "name": "D#3",
                    "midi": 51,
                    "time": 82.49999999999955,
                    "velocity": 0.7874015748031497,
                    "duration": 0.29375000000000284
                },
                {
                    "name": "F2",
                    "midi": 41,
                    "time": 82.79999999999954,
                    "velocity": 0.7874015748031497,
                    "duration": 0.59375
                },
                {
                    "name": "G#3",
                    "midi": 56,
                    "time": 83.39999999999954,
                    "velocity": 0.7874015748031497,
                    "duration": 0.14374999999999716
                },
                {
                    "name": "G3",
                    "midi": 55,
                    "time": 83.54999999999953,
                    "velocity": 0.7874015748031497,
                    "duration": 0.14374999999999716
                },
                {
                    "name": "F3",
                    "midi": 53,
                    "time": 83.69999999999952,
                    "velocity": 0.7874015748031497,
                    "duration": 0.29375000000000284
                },
                {
                    "name": "G2",
                    "midi": 43,
                    "time": 83.99999999999952,
                    "velocity": 0.7874015748031497,
                    "duration": 0.29375000000000284
                },
                {
                    "name": "G3",
                    "midi": 55,
                    "time": 84.29999999999951,
                    "velocity": 0.7874015748031497,
                    "duration": 0.29375000000000284
                },
                {
                    "name": "C3",
                    "midi": 48,
                    "time": 84.59999999999951,
                    "velocity": 0.7874015748031497,
                    "duration": 0.29375000000000284
                },
                {
                    "name": "D#3",
                    "midi": 51,
                    "time": 84.89999999999951,
                    "velocity": 0.7874015748031497,
                    "duration": 0.29375000000000284
                },
                {
                    "name": "F3",
                    "midi": 53,
                    "time": 85.1999999999995,
                    "velocity": 0.7874015748031497,
                    "duration": 0.29375000000000284
                },
                {
                    "name": "G#3",
                    "midi": 56,
                    "time": 85.4999999999995,
                    "velocity": 0.7874015748031497,
                    "duration": 0.29375000000000284
                },
                {
                    "name": "D3",
                    "midi": 50,
                    "time": 85.7999999999995,
                    "velocity": 0.7874015748031497,
                    "duration": 0.29375000000000284
                },
                {
                    "name": "F3",
                    "midi": 53,
                    "time": 86.0999999999995,
                    "velocity": 0.7874015748031497,
                    "duration": 0.29375000000000284
                },
                {
                    "name": "G3",
                    "midi": 55,
                    "time": 86.3999999999995,
                    "velocity": 0.7874015748031497,
                    "duration": 0.29375000000000284
                },
                {
                    "name": "A#3",
                    "midi": 58,
                    "time": 86.69999999999949,
                    "velocity": 0.7874015748031497,
                    "duration": 0.29375000000000284
                },
                {
                    "name": "D#3",
                    "midi": 51,
                    "time": 86.99999999999949,
                    "velocity": 0.7874015748031497,
                    "duration": 0.29375000000000284
                },
                {
                    "name": "G3",
                    "midi": 55,
                    "time": 87.29999999999949,
                    "velocity": 0.7874015748031497,
                    "duration": 0.29375000000000284
                },
                {
                    "name": "G#3",
                    "midi": 56,
                    "time": 87.59999999999948,
                    "velocity": 0.7874015748031497,
                    "duration": 0.29375000000000284
                },
                {
                    "name": "F3",
                    "midi": 53,
                    "time": 87.89999999999948,
                    "velocity": 0.7874015748031497,
                    "duration": 0.29375000000000284
                },
                {
                    "name": "D3",
                    "midi": 50,
                    "time": 88.19999999999948,
                    "velocity": 0.7874015748031497,
                    "duration": 0.29375000000000284
                },
                {
                    "name": "B3",
                    "midi": 59,
                    "time": 88.49999999999947,
                    "velocity": 0.7874015748031497,
                    "duration": 0.29375000000000284
                },
                {
                    "name": "C4",
                    "midi": 60,
                    "time": 88.79999999999947,
                    "velocity": 0.7874015748031497,
                    "duration": 0.29375000000000284
                },
                {
                    "name": "C4",
                    "midi": 60,
                    "time": 89.69999999999948,
                    "velocity": 0.7874015748031497,
                    "duration": 0.29375000000000284
                },
                {
                    "name": "B3",
                    "midi": 59,
                    "time": 89.99999999999947,
                    "velocity": 0.7874015748031497,
                    "duration": 0.29375000000000284
                },
                {
                    "name": "A#3",
                    "midi": 58,
                    "time": 90.89999999999948,
                    "velocity": 0.7874015748031497,
                    "duration": 0.29375000000000284
                },
                {
                    "name": "A3",
                    "midi": 57,
                    "time": 91.19999999999948,
                    "velocity": 0.7874015748031497,
                    "duration": 0.29375000000000284
                },
                {
                    "name": "G3",
                    "midi": 55,
                    "time": 92.09999999999948,
                    "velocity": 0.7874015748031497,
                    "duration": 0.29375000000000284
                },
                {
                    "name": "F#3",
                    "midi": 54,
                    "time": 92.39999999999948,
                    "velocity": 0.7874015748031497,
                    "duration": 0.29375000000000284
                },
                {
                    "name": "F#3",
                    "midi": 54,
                    "time": 93.29999999999949,
                    "velocity": 0.7874015748031497,
                    "duration": 0.29375000000000284
                },
                {
                    "name": "G3",
                    "midi": 55,
                    "time": 93.59999999999948,
                    "velocity": 0.7874015748031497,
                    "duration": 0.20000000000000284
                },
                {
                    "name": "D3",
                    "midi": 50,
                    "time": 93.89999999999948,
                    "velocity": 0.7874015748031497,
                    "duration": 0.29375000000000284
                },
                {
                    "name": "G3",
                    "midi": 55,
                    "time": 94.19999999999948,
                    "velocity": 0.7874015748031497,
                    "duration": 0.29375000000000284
                },
                {
                    "name": "A#3",
                    "midi": 58,
                    "time": 94.49999999999947,
                    "velocity": 0.7874015748031497,
                    "duration": 0.4437499999999943
                },
                {
                    "name": "A3",
                    "midi": 57,
                    "time": 94.94999999999946,
                    "velocity": 0.7874015748031497,
                    "duration": 0.14374999999999716
                },
                {
                    "name": "G3",
                    "midi": 55,
                    "time": 95.09999999999945,
                    "velocity": 0.7874015748031497,
                    "duration": 0.14374999999999716
                },
                {
                    "name": "A#3",
                    "midi": 58,
                    "time": 95.24999999999945,
                    "velocity": 0.7874015748031497,
                    "duration": 0.14374999999999716
                },
                {
                    "name": "A3",
                    "midi": 57,
                    "time": 95.39999999999944,
                    "velocity": 0.7874015748031497,
                    "duration": 0.14374999999999716
                },
                {
                    "name": "G3",
                    "midi": 55,
                    "time": 95.54999999999943,
                    "velocity": 0.7874015748031497,
                    "duration": 0.14374999999999716
                },
                {
                    "name": "F#3",
                    "midi": 54,
                    "time": 95.69999999999942,
                    "velocity": 0.7874015748031497,
                    "duration": 0.14374999999999716
                },
                {
                    "name": "E3",
                    "midi": 52,
                    "time": 95.84999999999941,
                    "velocity": 0.7874015748031497,
                    "duration": 0.14374999999999716
                },
                {
                    "name": "D3",
                    "midi": 50,
                    "time": 95.9999999999994,
                    "velocity": 0.7874015748031497,
                    "duration": 0.29375000000000284
                },
                {
                    "name": "G3",
                    "midi": 55,
                    "time": 96.2999999999994,
                    "velocity": 0.7874015748031497,
                    "duration": 0.29375000000000284
                },
                {
                    "name": "A#3",
                    "midi": 58,
                    "time": 96.5999999999994,
                    "velocity": 0.7874015748031497,
                    "duration": 0.29375000000000284
                },
                {
                    "name": "D4",
                    "midi": 62,
                    "time": 96.8999999999994,
                    "velocity": 0.7874015748031497,
                    "duration": 0.4437499999999943
                },
                {
                    "name": "C4",
                    "midi": 60,
                    "time": 97.34999999999938,
                    "velocity": 0.7874015748031497,
                    "duration": 0.14374999999999716
                },
                {
                    "name": "A#3",
                    "midi": 58,
                    "time": 97.49999999999937,
                    "velocity": 0.7874015748031497,
                    "duration": 0.14374999999999716
                },
                {
                    "name": "D4",
                    "midi": 62,
                    "time": 97.64999999999937,
                    "velocity": 0.7874015748031497,
                    "duration": 0.14374999999999716
                },
                {
                    "name": "C4",
                    "midi": 60,
                    "time": 97.79999999999936,
                    "velocity": 0.7874015748031497,
                    "duration": 0.14374999999999716
                },
                {
                    "name": "A#3",
                    "midi": 58,
                    "time": 97.94999999999935,
                    "velocity": 0.7874015748031497,
                    "duration": 0.14374999999999716
                },
                {
                    "name": "A3",
                    "midi": 57,
                    "time": 98.09999999999934,
                    "velocity": 0.7874015748031497,
                    "duration": 0.14374999999999716
                },
                {
                    "name": "G3",
                    "midi": 55,
                    "time": 98.24999999999933,
                    "velocity": 0.7874015748031497,
                    "duration": 0.14374999999999716
                },
                {
                    "name": "F#3",
                    "midi": 54,
                    "time": 98.39999999999932,
                    "velocity": 0.7874015748031497,
                    "duration": 0.14374999999999716
                },
                {
                    "name": "D3",
                    "midi": 50,
                    "time": 98.39999999999932,
                    "velocity": 0.7874015748031497,
                    "duration": 0.29374999999998863
                },
                {
                    "name": "A3",
                    "midi": 57,
                    "time": 98.54999999999932,
                    "velocity": 0.7874015748031497,
                    "duration": 0.14374999999999716
                },
                {
                    "name": "G3",
                    "midi": 55,
                    "time": 98.6999999999993,
                    "velocity": 0.7874015748031497,
                    "duration": 0.14374999999999716
                },
                {
                    "name": "A3",
                    "midi": 57,
                    "time": 98.8499999999993,
                    "velocity": 0.7874015748031497,
                    "duration": 0.14374999999999716
                },
                {
                    "name": "A#3",
                    "midi": 58,
                    "time": 98.99999999999929,
                    "velocity": 0.7874015748031497,
                    "duration": 0.14374999999999716
                },
                {
                    "name": "D3",
                    "midi": 50,
                    "time": 99.14999999999928,
                    "velocity": 0.7874015748031497,
                    "duration": 0.14374999999999716
                },
                {
                    "name": "C3",
                    "midi": 48,
                    "time": 99.29999999999927,
                    "velocity": 0.7874015748031497,
                    "duration": 0.14374999999999716
                },
                {
                    "name": "D3",
                    "midi": 50,
                    "time": 99.44999999999926,
                    "velocity": 0.7874015748031497,
                    "duration": 0.14374999999999716
                },
                {
                    "name": "D#3",
                    "midi": 51,
                    "time": 99.59999999999926,
                    "velocity": 0.7874015748031497,
                    "duration": 0.14374999999999716
                },
                {
                    "name": "B3",
                    "midi": 59,
                    "time": 99.74999999999925,
                    "velocity": 0.7874015748031497,
                    "duration": 0.14374999999999716
                },
                {
                    "name": "A3",
                    "midi": 57,
                    "time": 99.89999999999924,
                    "velocity": 0.7874015748031497,
                    "duration": 0.14374999999999716
                },
                {
                    "name": "B3",
                    "midi": 59,
                    "time": 100.04999999999923,
                    "velocity": 0.7874015748031497,
                    "duration": 0.14374999999999716
                },
                {
                    "name": "C4",
                    "midi": 60,
                    "time": 100.19999999999922,
                    "velocity": 0.7874015748031497,
                    "duration": 0.14374999999999716
                },
                {
                    "name": "D#3",
                    "midi": 51,
                    "time": 100.34999999999921,
                    "velocity": 0.7874015748031497,
                    "duration": 0.14374999999999716
                },
                {
                    "name": "D3",
                    "midi": 50,
                    "time": 100.4999999999992,
                    "velocity": 0.7874015748031497,
                    "duration": 0.14374999999999716
                },
                {
                    "name": "D#3",
                    "midi": 51,
                    "time": 100.6499999999992,
                    "velocity": 0.7874015748031497,
                    "duration": 0.14374999999999716
                },
                {
                    "name": "F3",
                    "midi": 53,
                    "time": 100.79999999999919,
                    "velocity": 0.7874015748031497,
                    "duration": 0.14374999999999716
                },
                {
                    "name": "C#4",
                    "midi": 61,
                    "time": 100.94999999999918,
                    "velocity": 0.7874015748031497,
                    "duration": 0.14374999999999716
                },
                {
                    "name": "B3",
                    "midi": 59,
                    "time": 101.09999999999917,
                    "velocity": 0.7874015748031497,
                    "duration": 0.14374999999999716
                },
                {
                    "name": "C#4",
                    "midi": 61,
                    "time": 101.24999999999916,
                    "velocity": 0.7874015748031497,
                    "duration": 0.14374999999999716
                },
                {
                    "name": "D4",
                    "midi": 62,
                    "time": 101.39999999999915,
                    "velocity": 0.7874015748031497,
                    "duration": 0.14374999999999716
                },
                {
                    "name": "F#3",
                    "midi": 54,
                    "time": 101.54999999999914,
                    "velocity": 0.7874015748031497,
                    "duration": 0.14374999999999716
                },
                {
                    "name": "E3",
                    "midi": 52,
                    "time": 101.69999999999914,
                    "velocity": 0.7874015748031497,
                    "duration": 0.14374999999999716
                },
                {
                    "name": "F#3",
                    "midi": 54,
                    "time": 101.84999999999913,
                    "velocity": 0.7874015748031497,
                    "duration": 0.14374999999999716
                },
                {
                    "name": "G3",
                    "midi": 55,
                    "time": 101.99999999999912,
                    "velocity": 0.7874015748031497,
                    "duration": 0.14374999999999716
                },
                {
                    "name": "A#3",
                    "midi": 58,
                    "time": 102.14999999999911,
                    "velocity": 0.7874015748031497,
                    "duration": 0.14374999999999716
                },
                {
                    "name": "A3",
                    "midi": 57,
                    "time": 102.2999999999991,
                    "velocity": 0.7874015748031497,
                    "duration": 0.14374999999999716
                },
                {
                    "name": "G3",
                    "midi": 55,
                    "time": 102.4499999999991,
                    "velocity": 0.7874015748031497,
                    "duration": 0.14374999999999716
                },
                {
                    "name": "F#3",
                    "midi": 54,
                    "time": 102.59999999999908,
                    "velocity": 0.7874015748031497,
                    "duration": 0.14374999999999716
                },
                {
                    "name": "E3",
                    "midi": 52,
                    "time": 102.74999999999908,
                    "velocity": 0.7874015748031497,
                    "duration": 0.14374999999999716
                },
                {
                    "name": "D3",
                    "midi": 50,
                    "time": 102.89999999999907,
                    "velocity": 0.7874015748031497,
                    "duration": 0.14374999999999716
                },
                {
                    "name": "C3",
                    "midi": 48,
                    "time": 103.04999999999906,
                    "velocity": 0.7874015748031497,
                    "duration": 0.14374999999999716
                },
                {
                    "name": "A#2",
                    "midi": 46,
                    "time": 103.19999999999905,
                    "velocity": 0.7874015748031497,
                    "duration": 0.14374999999999716
                },
                {
                    "name": "D3",
                    "midi": 50,
                    "time": 103.34999999999904,
                    "velocity": 0.7874015748031497,
                    "duration": 0.14374999999999716
                },
                {
                    "name": "C3",
                    "midi": 48,
                    "time": 103.49999999999903,
                    "velocity": 0.7874015748031497,
                    "duration": 0.14374999999999716
                },
                {
                    "name": "D3",
                    "midi": 50,
                    "time": 103.64999999999903,
                    "velocity": 0.7874015748031497,
                    "duration": 0.14374999999999716
                },
                {
                    "name": "D#3",
                    "midi": 51,
                    "time": 103.79999999999902,
                    "velocity": 0.7874015748031497,
                    "duration": 0.14374999999999716
                },
                {
                    "name": "D3",
                    "midi": 50,
                    "time": 103.94999999999901,
                    "velocity": 0.7874015748031497,
                    "duration": 0.14374999999999716
                },
                {
                    "name": "C3",
                    "midi": 48,
                    "time": 104.099999999999,
                    "velocity": 0.7874015748031497,
                    "duration": 0.14374999999999716
                },
                {
                    "name": "B2",
                    "midi": 47,
                    "time": 104.24999999999899,
                    "velocity": 0.7874015748031497,
                    "duration": 0.14374999999999716
                },
                {
                    "name": "C3",
                    "midi": 48,
                    "time": 104.39999999999898,
                    "velocity": 0.7874015748031497,
                    "duration": 0.14374999999999716
                },
                {
                    "name": "D#3",
                    "midi": 51,
                    "time": 104.54999999999897,
                    "velocity": 0.7874015748031497,
                    "duration": 0.14374999999999716
                },
                {
                    "name": "D3",
                    "midi": 50,
                    "time": 104.69999999999897,
                    "velocity": 0.7874015748031497,
                    "duration": 0.14374999999999716
                },
                {
                    "name": "D#3",
                    "midi": 51,
                    "time": 104.84999999999896,
                    "velocity": 0.7874015748031497,
                    "duration": 0.14374999999999716
                },
                {
                    "name": "F3",
                    "midi": 53,
                    "time": 104.99999999999895,
                    "velocity": 0.7874015748031497,
                    "duration": 0.14374999999999716
                },
                {
                    "name": "D#3",
                    "midi": 51,
                    "time": 105.14999999999894,
                    "velocity": 0.7874015748031497,
                    "duration": 0.14374999999999716
                },
                {
                    "name": "D3",
                    "midi": 50,
                    "time": 105.29999999999893,
                    "velocity": 0.7874015748031497,
                    "duration": 0.14374999999999716
                },
                {
                    "name": "C3",
                    "midi": 48,
                    "time": 105.44999999999892,
                    "velocity": 0.7874015748031497,
                    "duration": 0.14374999999999716
                },
                {
                    "name": "D3",
                    "midi": 50,
                    "time": 105.59999999999891,
                    "velocity": 0.7874015748031497,
                    "duration": 0.14374999999999716
                },
                {
                    "name": "F3",
                    "midi": 53,
                    "time": 105.7499999999989,
                    "velocity": 0.7874015748031497,
                    "duration": 0.14374999999999716
                },
                {
                    "name": "D#3",
                    "midi": 51,
                    "time": 105.8999999999989,
                    "velocity": 0.7874015748031497,
                    "duration": 0.14374999999999716
                },
                {
                    "name": "F3",
                    "midi": 53,
                    "time": 106.04999999999889,
                    "velocity": 0.7874015748031497,
                    "duration": 0.14374999999999716
                },
                {
                    "name": "G3",
                    "midi": 55,
                    "time": 106.19999999999888,
                    "velocity": 0.7874015748031497,
                    "duration": 0.14374999999999716
                },
                {
                    "name": "F3",
                    "midi": 53,
                    "time": 106.34999999999887,
                    "velocity": 0.7874015748031497,
                    "duration": 0.14374999999999716
                },
                {
                    "name": "D#3",
                    "midi": 51,
                    "time": 106.49999999999886,
                    "velocity": 0.7874015748031497,
                    "duration": 0.14374999999999716
                },
                {
                    "name": "D3",
                    "midi": 50,
                    "time": 106.64999999999885,
                    "velocity": 0.7874015748031497,
                    "duration": 0.14374999999999716
                },
                {
                    "name": "D#3",
                    "midi": 51,
                    "time": 106.79999999999885,
                    "velocity": 0.7874015748031497,
                    "duration": 0.14374999999999716
                },
                {
                    "name": "C4",
                    "midi": 60,
                    "time": 106.94999999999884,
                    "velocity": 0.7874015748031497,
                    "duration": 0.14374999999999716
                },
                {
                    "name": "A#3",
                    "midi": 58,
                    "time": 107.09999999999883,
                    "velocity": 0.7874015748031497,
                    "duration": 0.14374999999999716
                },
                {
                    "name": "G#3",
                    "midi": 56,
                    "time": 107.24999999999882,
                    "velocity": 0.7874015748031497,
                    "duration": 0.14374999999999716
                },
                {
                    "name": "G3",
                    "midi": 55,
                    "time": 107.39999999999881,
                    "velocity": 0.7874015748031497,
                    "duration": 0.14374999999999716
                },
                {
                    "name": "F3",
                    "midi": 53,
                    "time": 107.5499999999988,
                    "velocity": 0.7874015748031497,
                    "duration": 0.14374999999999716
                },
                {
                    "name": "D#3",
                    "midi": 51,
                    "time": 107.6999999999988,
                    "velocity": 0.7874015748031497,
                    "duration": 0.14374999999999716
                },
                {
                    "name": "D3",
                    "midi": 50,
                    "time": 107.84999999999879,
                    "velocity": 0.7874015748031497,
                    "duration": 0.14374999999999716
                },
                {
                    "name": "D#3",
                    "midi": 51,
                    "time": 107.99999999999878,
                    "velocity": 0.7874015748031497,
                    "duration": 0.14374999999999716
                },
                {
                    "name": "F3",
                    "midi": 53,
                    "time": 108.14999999999877,
                    "velocity": 0.7874015748031497,
                    "duration": 0.14374999999999716
                },
                {
                    "name": "D#3",
                    "midi": 51,
                    "time": 108.29999999999876,
                    "velocity": 0.7874015748031497,
                    "duration": 0.14374999999999716
                },
                {
                    "name": "D3",
                    "midi": 50,
                    "time": 108.44999999999875,
                    "velocity": 0.7874015748031497,
                    "duration": 0.14374999999999716
                },
                {
                    "name": "C3",
                    "midi": 48,
                    "time": 108.59999999999874,
                    "velocity": 0.7874015748031497,
                    "duration": 0.14374999999999716
                },
                {
                    "name": "A#2",
                    "midi": 46,
                    "time": 108.74999999999874,
                    "velocity": 0.7874015748031497,
                    "duration": 0.14374999999999716
                },
                {
                    "name": "G#2",
                    "midi": 44,
                    "time": 108.89999999999873,
                    "velocity": 0.7874015748031497,
                    "duration": 0.14374999999999716
                },
                {
                    "name": "G2",
                    "midi": 43,
                    "time": 109.04999999999872,
                    "velocity": 0.7874015748031497,
                    "duration": 0.14374999999999716
                },
                {
                    "name": "F2",
                    "midi": 41,
                    "time": 109.19999999999871,
                    "velocity": 0.7874015748031497,
                    "duration": 1.34375
                },
                {
                    "name": "F3",
                    "midi": 53,
                    "time": 110.5499999999987,
                    "velocity": 0.7874015748031497,
                    "duration": 0.14374999999999716
                },
                {
                    "name": "D#3",
                    "midi": 51,
                    "time": 110.6999999999987,
                    "velocity": 0.7874015748031497,
                    "duration": 0.14374999999999716
                },
                {
                    "name": "F3",
                    "midi": 53,
                    "time": 110.84999999999869,
                    "velocity": 0.7874015748031497,
                    "duration": 0.14374999999999716
                },
                {
                    "name": "G3",
                    "midi": 55,
                    "time": 110.99999999999868,
                    "velocity": 0.7874015748031497,
                    "duration": 0.14374999999999716
                },
                {
                    "name": "F3",
                    "midi": 53,
                    "time": 111.14999999999867,
                    "velocity": 0.7874015748031497,
                    "duration": 0.14374999999999716
                },
                {
                    "name": "D#3",
                    "midi": 51,
                    "time": 111.29999999999866,
                    "velocity": 0.7874015748031497,
                    "duration": 0.14374999999999716
                },
                {
                    "name": "F3",
                    "midi": 53,
                    "time": 111.44999999999865,
                    "velocity": 0.7874015748031497,
                    "duration": 0.14374999999999716
                },
                {
                    "name": "D#2",
                    "midi": 39,
                    "time": 111.59999999999864,
                    "velocity": 0.7874015748031497,
                    "duration": 0.14374999999999716
                },
                {
                    "name": "D#3",
                    "midi": 51,
                    "time": 111.74999999999864,
                    "velocity": 0.7874015748031497,
                    "duration": 0.14374999999999716
                },
                {
                    "name": "D3",
                    "midi": 50,
                    "time": 111.89999999999863,
                    "velocity": 0.7874015748031497,
                    "duration": 0.14374999999999716
                },
                {
                    "name": "D#3",
                    "midi": 51,
                    "time": 112.04999999999862,
                    "velocity": 0.7874015748031497,
                    "duration": 0.14374999999999716
                },
                {
                    "name": "F3",
                    "midi": 53,
                    "time": 112.19999999999861,
                    "velocity": 0.7874015748031497,
                    "duration": 0.14374999999999716
                },
                {
                    "name": "D#3",
                    "midi": 51,
                    "time": 112.3499999999986,
                    "velocity": 0.7874015748031497,
                    "duration": 0.14374999999999716
                },
                {
                    "name": "D3",
                    "midi": 50,
                    "time": 112.4999999999986,
                    "velocity": 0.7874015748031497,
                    "duration": 0.14374999999999716
                },
                {
                    "name": "D#3",
                    "midi": 51,
                    "time": 112.64999999999858,
                    "velocity": 0.7874015748031497,
                    "duration": 0.14374999999999716
                },
                {
                    "name": "G#2",
                    "midi": 44,
                    "time": 112.79999999999858,
                    "velocity": 0.7874015748031497,
                    "duration": 0.59375
                },
                {
                    "name": "F3",
                    "midi": 53,
                    "time": 113.39999999999857,
                    "velocity": 0.7874015748031497,
                    "duration": 1.1937499999999943
                },
                {
                    "name": "A#3",
                    "midi": 58,
                    "time": 114.59999999999856,
                    "velocity": 0.7874015748031497,
                    "duration": 0.59375
                },
                {
                    "name": "D#4",
                    "midi": 63,
                    "time": 115.19999999999855,
                    "velocity": 0.7874015748031497,
                    "duration": 0.59375
                },
                {
                    "name": "D#3",
                    "midi": 51,
                    "time": 115.79999999999855,
                    "velocity": 0.7874015748031497,
                    "duration": 1.1937499999999943
                },
                {
                    "name": "G#3",
                    "midi": 56,
                    "time": 116.99999999999854,
                    "velocity": 0.7874015748031497,
                    "duration": 0.59375
                },
                {
                    "name": "G3",
                    "midi": 55,
                    "time": 117.59999999999853,
                    "velocity": 0.7874015748031497,
                    "duration": 0.59375
                },
                {
                    "name": "D4",
                    "midi": 62,
                    "time": 122.69999999999852,
                    "velocity": 0.7874015748031497,
                    "duration": 0.29375000000000284
                },
                {
                    "name": "C4",
                    "midi": 60,
                    "time": 122.99999999999852,
                    "velocity": 0.7874015748031497,
                    "duration": 0.29375000000000284
                },
                {
                    "name": "D4",
                    "midi": 62,
                    "time": 123.29999999999852,
                    "velocity": 0.7874015748031497,
                    "duration": 0.29375000000000284
                },
                {
                    "name": "D#4",
                    "midi": 63,
                    "time": 123.59999999999852,
                    "velocity": 0.7874015748031497,
                    "duration": 0.20000000000000284
                },
                {
                    "name": "E4",
                    "midi": 64,
                    "time": 123.89999999999851,
                    "velocity": 0.7874015748031497,
                    "duration": 0.29375000000000284
                },
                {
                    "name": "D4",
                    "midi": 62,
                    "time": 124.19999999999851,
                    "velocity": 0.7874015748031497,
                    "duration": 0.29375000000000284
                },
                {
                    "name": "E4",
                    "midi": 64,
                    "time": 124.49999999999851,
                    "velocity": 0.7874015748031497,
                    "duration": 0.29375000000000284
                },
                {
                    "name": "F4",
                    "midi": 65,
                    "time": 124.7999999999985,
                    "velocity": 0.7874015748031497,
                    "duration": 0.20000000000000284
                },
                {
                    "name": "F#4",
                    "midi": 66,
                    "time": 125.0999999999985,
                    "velocity": 0.7874015748031497,
                    "duration": 0.29375000000000284
                },
                {
                    "name": "E4",
                    "midi": 64,
                    "time": 125.3999999999985,
                    "velocity": 0.7874015748031497,
                    "duration": 0.29375000000000284
                },
                {
                    "name": "F#4",
                    "midi": 66,
                    "time": 125.6999999999985,
                    "velocity": 0.7874015748031497,
                    "duration": 0.29375000000000284
                },
                {
                    "name": "D4",
                    "midi": 62,
                    "time": 126.2999999999985,
                    "velocity": 0.7874015748031497,
                    "duration": 0.20000000000000284
                },
                {
                    "name": "C4",
                    "midi": 60,
                    "time": 126.89999999999851,
                    "velocity": 0.7874015748031497,
                    "duration": 0.20000000000000284
                },
                {
                    "name": "G3",
                    "midi": 55,
                    "time": 127.49999999999852,
                    "velocity": 0.7874015748031497,
                    "duration": 0.29375000000000284
                },
                {
                    "name": "F3",
                    "midi": 53,
                    "time": 127.79999999999852,
                    "velocity": 0.7874015748031497,
                    "duration": 0.29375000000000284
                },
                {
                    "name": "G3",
                    "midi": 55,
                    "time": 128.09999999999852,
                    "velocity": 0.7874015748031497,
                    "duration": 0.29374999999998863
                },
                {
                    "name": "G#3",
                    "midi": 56,
                    "time": 128.3999999999985,
                    "velocity": 0.7874015748031497,
                    "duration": 0.19999999999998863
                },
                {
                    "name": "A3",
                    "midi": 57,
                    "time": 128.69999999999848,
                    "velocity": 0.7874015748031497,
                    "duration": 0.29374999999998863
                },
                {
                    "name": "G3",
                    "midi": 55,
                    "time": 128.99999999999847,
                    "velocity": 0.7874015748031497,
                    "duration": 0.29374999999998863
                },
                {
                    "name": "A3",
                    "midi": 57,
                    "time": 129.29999999999845,
                    "velocity": 0.7874015748031497,
                    "duration": 0.29374999999998863
                },
                {
                    "name": "A#3",
                    "midi": 58,
                    "time": 129.59999999999843,
                    "velocity": 0.7874015748031497,
                    "duration": 0.19999999999998863
                },
                {
                    "name": "B3",
                    "midi": 59,
                    "time": 129.8999999999984,
                    "velocity": 0.7874015748031497,
                    "duration": 0.29374999999998863
                },
                {
                    "name": "A3",
                    "midi": 57,
                    "time": 130.1999999999984,
                    "velocity": 0.7874015748031497,
                    "duration": 0.29374999999998863
                },
                {
                    "name": "B3",
                    "midi": 59,
                    "time": 130.49999999999838,
                    "velocity": 0.7874015748031497,
                    "duration": 0.29374999999998863
                },
                {
                    "name": "C4",
                    "midi": 60,
                    "time": 130.79999999999836,
                    "velocity": 0.7874015748031497,
                    "duration": 0.19999999999998863
                },
                {
                    "name": "G3",
                    "midi": 55,
                    "time": 131.09999999999835,
                    "velocity": 0.7874015748031497,
                    "duration": 0.19999999999998863
                },
                {
                    "name": "D4",
                    "midi": 62,
                    "time": 131.39999999999833,
                    "velocity": 0.7874015748031497,
                    "duration": 0.19999999999998863
                },
                {
                    "name": "F3",
                    "midi": 53,
                    "time": 131.6999999999983,
                    "velocity": 0.7874015748031497,
                    "duration": 0.19999999999998863
                },
                {
                    "name": "D#3",
                    "midi": 51,
                    "time": 131.9999999999983,
                    "velocity": 0.7874015748031497,
                    "duration": 0.19999999999998863
                },
                {
                    "name": "C4",
                    "midi": 60,
                    "time": 132.29999999999828,
                    "velocity": 0.7874015748031497,
                    "duration": 0.29374999999998863
                },
                {
                    "name": "A#3",
                    "midi": 58,
                    "time": 132.59999999999826,
                    "velocity": 0.7874015748031497,
                    "duration": 0.29374999999998863
                },
                {
                    "name": "C4",
                    "midi": 60,
                    "time": 132.89999999999824,
                    "velocity": 0.7874015748031497,
                    "duration": 0.29374999999998863
                },
                {
                    "name": "D4",
                    "midi": 62,
                    "time": 133.19999999999823,
                    "velocity": 0.7874015748031497,
                    "duration": 0.19999999999998863
                },
                {
                    "name": "G#3",
                    "midi": 56,
                    "time": 133.4999999999982,
                    "velocity": 0.7874015748031497,
                    "duration": 0.19999999999998863
                },
                {
                    "name": "E4",
                    "midi": 64,
                    "time": 133.7999999999982,
                    "velocity": 0.7874015748031497,
                    "duration": 0.19999999999998863
                },
                {
                    "name": "G3",
                    "midi": 55,
                    "time": 134.09999999999818,
                    "velocity": 0.7874015748031497,
                    "duration": 0.19999999999998863
                },
                {
                    "name": "F3",
                    "midi": 53,
                    "time": 134.39999999999816,
                    "velocity": 0.7874015748031497,
                    "duration": 0.19999999999998863
                },
                {
                    "name": "D4",
                    "midi": 62,
                    "time": 134.69999999999814,
                    "velocity": 0.7874015748031497,
                    "duration": 0.29374999999998863
                },
                {
                    "name": "C4",
                    "midi": 60,
                    "time": 134.99999999999812,
                    "velocity": 0.7874015748031497,
                    "duration": 0.29374999999998863
                },
                {
                    "name": "D4",
                    "midi": 62,
                    "time": 135.2999999999981,
                    "velocity": 0.7874015748031497,
                    "duration": 0.29374999999998863
                },
                {
                    "name": "E4",
                    "midi": 64,
                    "time": 135.5999999999981,
                    "velocity": 0.7874015748031497,
                    "duration": 0.19999999999998863
                },
                {
                    "name": "A#3",
                    "midi": 58,
                    "time": 135.89999999999807,
                    "velocity": 0.7874015748031497,
                    "duration": 0.19999999999998863
                },
                {
                    "name": "F#4",
                    "midi": 66,
                    "time": 136.19999999999806,
                    "velocity": 0.7874015748031497,
                    "duration": 0.19999999999998863
                },
                {
                    "name": "A3",
                    "midi": 57,
                    "time": 136.49999999999804,
                    "velocity": 0.7874015748031497,
                    "duration": 0.19999999999998863
                },
                {
                    "name": "G4",
                    "midi": 67,
                    "time": 136.79999999999802,
                    "velocity": 0.7874015748031497,
                    "duration": 0.29374999999998863
                },
                {
                    "name": "G3",
                    "midi": 55,
                    "time": 137.099999999998,
                    "velocity": 0.7874015748031497,
                    "duration": 0.14375000000001137
                },
                {
                    "name": "A3",
                    "midi": 57,
                    "time": 137.249999999998,
                    "velocity": 0.7874015748031497,
                    "duration": 0.14375000000001137
                },
                {
                    "name": "B3",
                    "midi": 59,
                    "time": 137.39999999999802,
                    "velocity": 0.7874015748031497,
                    "duration": 0.14375000000001137
                },
                {
                    "name": "C4",
                    "midi": 60,
                    "time": 137.54999999999802,
                    "velocity": 0.7874015748031497,
                    "duration": 0.14375000000001137
                },
                {
                    "name": "D4",
                    "midi": 62,
                    "time": 137.69999999999803,
                    "velocity": 0.7874015748031497,
                    "duration": 0.14375000000001137
                },
                {
                    "name": "B3",
                    "midi": 59,
                    "time": 137.84999999999803,
                    "velocity": 0.7874015748031497,
                    "duration": 0.14375000000001137
                },
                {
                    "name": "C4",
                    "midi": 60,
                    "time": 137.99999999999804,
                    "velocity": 0.7874015748031497,
                    "duration": 0.29374999999998863
                },
                {
                    "name": "A3",
                    "midi": 57,
                    "time": 138.29999999999802,
                    "velocity": 0.7874015748031497,
                    "duration": 0.14375000000001137
                },
                {
                    "name": "B3",
                    "midi": 59,
                    "time": 138.44999999999803,
                    "velocity": 0.7874015748031497,
                    "duration": 0.14375000000001137
                },
                {
                    "name": "C4",
                    "midi": 60,
                    "time": 138.59999999999803,
                    "velocity": 0.7874015748031497,
                    "duration": 0.14375000000001137
                },
                {
                    "name": "D4",
                    "midi": 62,
                    "time": 138.74999999999804,
                    "velocity": 0.7874015748031497,
                    "duration": 0.14375000000001137
                },
                {
                    "name": "D#4",
                    "midi": 63,
                    "time": 138.89999999999804,
                    "velocity": 0.7874015748031497,
                    "duration": 0.14375000000001137
                },
                {
                    "name": "C4",
                    "midi": 60,
                    "time": 139.04999999999805,
                    "velocity": 0.7874015748031497,
                    "duration": 0.14375000000001137
                },
                {
                    "name": "D4",
                    "midi": 62,
                    "time": 139.19999999999806,
                    "velocity": 0.7874015748031497,
                    "duration": 0.14375000000001137
                },
                {
                    "name": "C4",
                    "midi": 60,
                    "time": 139.34999999999806,
                    "velocity": 0.7874015748031497,
                    "duration": 0.14375000000001137
                },
                {
                    "name": "B3",
                    "midi": 59,
                    "time": 139.49999999999807,
                    "velocity": 0.7874015748031497,
                    "duration": 0.14375000000001137
                },
                {
                    "name": "A3",
                    "midi": 57,
                    "time": 139.64999999999807,
                    "velocity": 0.7874015748031497,
                    "duration": 0.14375000000001137
                },
                {
                    "name": "G3",
                    "midi": 55,
                    "time": 139.79999999999808,
                    "velocity": 0.7874015748031497,
                    "duration": 0.14375000000001137
                },
                {
                    "name": "F3",
                    "midi": 53,
                    "time": 139.94999999999808,
                    "velocity": 0.7874015748031497,
                    "duration": 0.14375000000001137
                },
                {
                    "name": "D#3",
                    "midi": 51,
                    "time": 140.0999999999981,
                    "velocity": 0.7874015748031497,
                    "duration": 0.14375000000001137
                },
                {
                    "name": "D3",
                    "midi": 50,
                    "time": 140.2499999999981,
                    "velocity": 0.7874015748031497,
                    "duration": 0.14375000000001137
                },
                {
                    "name": "D#3",
                    "midi": 51,
                    "time": 140.3999999999981,
                    "velocity": 0.7874015748031497,
                    "duration": 0.14375000000001137
                },
                {
                    "name": "D3",
                    "midi": 50,
                    "time": 140.5499999999981,
                    "velocity": 0.7874015748031497,
                    "duration": 0.14375000000001137
                },
                {
                    "name": "C3",
                    "midi": 48,
                    "time": 140.6999999999981,
                    "velocity": 0.7874015748031497,
                    "duration": 0.14375000000001137
                },
                {
                    "name": "B2",
                    "midi": 47,
                    "time": 140.84999999999812,
                    "velocity": 0.7874015748031497,
                    "duration": 0.14375000000001137
                },
                {
                    "name": "A2",
                    "midi": 45,
                    "time": 140.99999999999812,
                    "velocity": 0.7874015748031497,
                    "duration": 0.14375000000001137
                },
                {
                    "name": "G2",
                    "midi": 43,
                    "time": 141.14999999999813,
                    "velocity": 0.7874015748031497,
                    "duration": 0.14375000000001137
                },
                {
                    "name": "F2",
                    "midi": 41,
                    "time": 141.29999999999814,
                    "velocity": 0.7874015748031497,
                    "duration": 0.14375000000001137
                },
                {
                    "name": "G2",
                    "midi": 43,
                    "time": 141.44999999999814,
                    "velocity": 0.7874015748031497,
                    "duration": 0.14375000000001137
                },
                {
                    "name": "C2",
                    "midi": 36,
                    "time": 141.59999999999815,
                    "velocity": 0.7874015748031497,
                    "duration": 0.59375
                },
                {
                    "name": "G#3",
                    "midi": 56,
                    "time": 142.64999999999816,
                    "velocity": 0.7874015748031497,
                    "duration": 0.14375000000001137
                },
                {
                    "name": "G#2",
                    "midi": 44,
                    "time": 142.64999999999816,
                    "velocity": 0.7874015748031497,
                    "duration": 0.14375000000001137
                },
                {
                    "name": "G#2",
                    "midi": 44,
                    "time": 142.79999999999816,
                    "velocity": 0.7874015748031497,
                    "duration": 0.8937500000000114
                },
                {
                    "name": "G#3",
                    "midi": 56,
                    "time": 142.79999999999816,
                    "velocity": 0.7874015748031497,
                    "duration": 0.8937500000000114
                },
                {
                    "name": "G#3",
                    "midi": 56,
                    "time": 143.84999999999818,
                    "velocity": 0.7874015748031497,
                    "duration": 0.14374999999998295
                },
                {
                    "name": "G#2",
                    "midi": 44,
                    "time": 143.84999999999818,
                    "velocity": 0.7874015748031497,
                    "duration": 0.09999999999999432
                },
                {
                    "name": "F3",
                    "midi": 53,
                    "time": 143.99999999999815,
                    "velocity": 0.7874015748031497,
                    "duration": 1.1937499999999943
                },
                {
                    "name": "F2",
                    "midi": 41,
                    "time": 143.99999999999815,
                    "velocity": 0.7874015748031497,
                    "duration": 1.1937499999999943
                },
                {
                    "name": "G3",
                    "midi": 55,
                    "time": 145.19999999999814,
                    "velocity": 0.7874015748031497,
                    "duration": 0.59375
                },
                {
                    "name": "G2",
                    "midi": 43,
                    "time": 145.19999999999814,
                    "velocity": 0.7874015748031497,
                    "duration": 0.59375
                },
                {
                    "name": "G2",
                    "midi": 43,
                    "time": 145.79999999999814,
                    "velocity": 0.7874015748031497,
                    "duration": 0.59375
                },
                {
                    "name": "G1",
                    "midi": 31,
                    "time": 145.79999999999814,
                    "velocity": 0.7874015748031497,
                    "duration": 0.59375
                },
                {
                    "name": "C2",
                    "midi": 36,
                    "time": 146.39999999999813,
                    "velocity": 0.7874015748031497,
                    "duration": 3.59375
                },
                {
                    "name": "C3",
                    "midi": 48,
                    "time": 146.39999999999813,
                    "velocity": 0.7874015748031497,
                    "duration": 3.5999999999999943
                }
            ],
            "controlChanges": {
                "7": [
                    {
                        "number": 7,
                        "time": 0,
                        "value": 0.7874015748031497
                    }
                ],
                "10": [
                    {
                        "number": 10,
                        "time": 0,
                        "value": 0.5826771653543307
                    }
                ],
                "32": [
                    {
                        "number": 32,
                        "time": 0,
                        "value": 0
                    }
                ]
            },
            "id": 2,
            "name": "Completed & sequenced by T.L. Hubeart Jr.",
            "instrumentNumber": 6,
            "instrument": "harpsichord",
            "instrumentFamily": "piano",
            "channelNumber": 1,
            "isPercussion": false
        },
        {
            "startTime": 0,
            "duration": 0,
            "length": 0,
            "notes": [],
            "controlChanges": {},
            "id": 3,
            "name": "(c) 1996 by T.L. Hubeart Jr."
        },
        {
            "startTime": 0,
            "duration": 0,
            "length": 0,
            "notes": [],
            "controlChanges": {},
            "id": 4,
            "name": "http://members.aol.com/basfawlty"
        }
    ]
}