{
    "header": {
        "PPQ": 480,
        "timeSignature": [
            3,
            4
        ],
        "bpm": 45.000011250002814,
        "name": "untitled"
    },
    "startTime": 0,
    "duration": 251.99993700000198,
    "tracks": [
        {
            "startTime": 0,
            "duration": 0,
            "length": 0,
            "notes": [],
            "controlChanges": {},
            "id": 0,
            "name": "untitled"
        },
        {
            "startTime": 0,
            "duration": 251.99993700000198,
            "length": 634,
            "notes": [
                {
                    "name": "D3",
                    "midi": 50,
                    "time": 0,
                    "velocity": 0.7874015748031497,
                    "duration": 0.6666664999999999
                },
                {
                    "name": "F3",
                    "midi": 53,
                    "time": 0.6666664999999999,
                    "velocity": 0.7874015748031497,
                    "duration": 0.6666664999999999
                },
                {
                    "name": "A3",
                    "midi": 57,
                    "time": 1.3333329999999999,
                    "velocity": 0.7874015748031497,
                    "duration": 1.6666662499999998
                },
                {
                    "name": "F3",
                    "midi": 53,
                    "time": 2.9999992499999997,
                    "velocity": 0.7874015748031497,
                    "duration": 0.3333332499999999
                },
                {
                    "name": "E3",
                    "midi": 52,
                    "time": 3.3333324999999996,
                    "velocity": 0.7874015748031497,
                    "duration": 0.3333332499999999
                },
                {
                    "name": "D3",
                    "midi": 50,
                    "time": 3.6666657499999995,
                    "velocity": 0.7874015748031497,
                    "duration": 0.3333332499999999
                },
                {
                    "name": "C#3",
                    "midi": 49,
                    "time": 3.9999989999999994,
                    "velocity": 0.7874015748031497,
                    "duration": 0.33333325000000036
                },
                {
                    "name": "E3",
                    "midi": 52,
                    "time": 4.33333225,
                    "velocity": 0.7874015748031497,
                    "duration": 0.3333332499999999
                },
                {
                    "name": "G3",
                    "midi": 55,
                    "time": 4.6666655,
                    "velocity": 0.7874015748031497,
                    "duration": 0.3333332499999999
                },
                {
                    "name": "A3",
                    "midi": 57,
                    "time": 4.99999875,
                    "velocity": 0.7874015748031497,
                    "duration": 0.3333332499999999
                },
                {
                    "name": "A#3",
                    "midi": 58,
                    "time": 5.3333319999999995,
                    "velocity": 0.7874015748031497,
                    "duration": 1.6666662499999996
                },
                {
                    "name": "A3",
                    "midi": 57,
                    "time": 6.999998249999999,
                    "velocity": 0.7874015748031497,
                    "duration": 0.3333332499999999
                },
                {
                    "name": "G3",
                    "midi": 55,
                    "time": 7.333331499999999,
                    "velocity": 0.7874015748031497,
                    "duration": 0.3333332499999999
                },
                {
                    "name": "F3",
                    "midi": 53,
                    "time": 7.666664749999999,
                    "velocity": 0.7874015748031497,
                    "duration": 0.3333332499999999
                },
                {
                    "name": "E3",
                    "midi": 52,
                    "time": 7.999997999999999,
                    "velocity": 0.7874015748031497,
                    "duration": 0.3333332499999999
                },
                {
                    "name": "G3",
                    "midi": 55,
                    "time": 8.333331249999999,
                    "velocity": 0.7874015748031497,
                    "duration": 0.3333332500000008
                },
                {
                    "name": "A#3",
                    "midi": 58,
                    "time": 8.6666645,
                    "velocity": 0.7874015748031497,
                    "duration": 0.3333332500000008
                },
                {
                    "name": "C#4",
                    "midi": 61,
                    "time": 8.99999775,
                    "velocity": 0.7874015748031497,
                    "duration": 0.3333332500000008
                },
                {
                    "name": "E4",
                    "midi": 64,
                    "time": 9.333331000000001,
                    "velocity": 0.7874015748031497,
                    "duration": 0.9999997500000006
                },
                {
                    "name": "A#3",
                    "midi": 58,
                    "time": 10.333330750000002,
                    "velocity": 0.7874015748031497,
                    "duration": 0.3333332500000008
                },
                {
                    "name": "A3",
                    "midi": 57,
                    "time": 10.666664000000003,
                    "velocity": 0.7874015748031497,
                    "duration": 0.3333332500000008
                },
                {
                    "name": "G3",
                    "midi": 55,
                    "time": 10.999997250000003,
                    "velocity": 0.7874015748031497,
                    "duration": 0.3333332500000008
                },
                {
                    "name": "F3",
                    "midi": 53,
                    "time": 11.333330500000004,
                    "velocity": 0.7874015748031497,
                    "duration": 0.3333332500000008
                },
                {
                    "name": "E3",
                    "midi": 52,
                    "time": 11.666663750000005,
                    "velocity": 0.7874015748031497,
                    "duration": 0.3333332500000008
                },
                {
                    "name": "F3",
                    "midi": 53,
                    "time": 11.999997000000006,
                    "velocity": 0.7874015748031497,
                    "duration": 0.3333332500000008
                },
                {
                    "name": "G3",
                    "midi": 55,
                    "time": 12.333330250000007,
                    "velocity": 0.7874015748031497,
                    "duration": 0.3333332500000008
                },
                {
                    "name": "A3",
                    "midi": 57,
                    "time": 12.666663500000007,
                    "velocity": 0.7874015748031497,
                    "duration": 0.3333332500000008
                },
                {
                    "name": "F3",
                    "midi": 53,
                    "time": 12.999996750000008,
                    "velocity": 0.7874015748031497,
                    "duration": 0.3333332500000008
                },
                {
                    "name": "D3",
                    "midi": 50,
                    "time": 13.333330000000009,
                    "velocity": 0.7874015748031497,
                    "duration": 0.6666664999999998
                },
                {
                    "name": "C3",
                    "midi": 48,
                    "time": 13.999996500000009,
                    "velocity": 0.7874015748031497,
                    "duration": 0.6666664999999998
                },
                {
                    "name": "A#2",
                    "midi": 46,
                    "time": 14.666663000000009,
                    "velocity": 0.7874015748031497,
                    "duration": 0.6666664999999998
                },
                {
                    "name": "A2",
                    "midi": 45,
                    "time": 15.333329500000008,
                    "velocity": 0.7874015748031497,
                    "duration": 0.6666664999999998
                },
                {
                    "name": "A#2",
                    "midi": 46,
                    "time": 15.999996000000008,
                    "velocity": 0.7874015748031497,
                    "duration": 0.3333332500000008
                },
                {
                    "name": "D3",
                    "midi": 50,
                    "time": 16.33332925000001,
                    "velocity": 0.7874015748031497,
                    "duration": 0.333333249999999
                },
                {
                    "name": "F3",
                    "midi": 53,
                    "time": 16.666662500000008,
                    "velocity": 0.7874015748031497,
                    "duration": 0.333333249999999
                },
                {
                    "name": "A3",
                    "midi": 57,
                    "time": 16.999995750000007,
                    "velocity": 0.7874015748031497,
                    "duration": 0.333333249999999
                },
                {
                    "name": "D4",
                    "midi": 62,
                    "time": 17.333329000000006,
                    "velocity": 0.7874015748031497,
                    "duration": 0.9999997500000006
                },
                {
                    "name": "C4",
                    "midi": 60,
                    "time": 18.333328750000007,
                    "velocity": 0.7874015748031497,
                    "duration": 0.333333249999999
                },
                {
                    "name": "A#3",
                    "midi": 58,
                    "time": 18.666662000000006,
                    "velocity": 0.7874015748031497,
                    "duration": 0.333333249999999
                },
                {
                    "name": "A3",
                    "midi": 57,
                    "time": 18.999995250000005,
                    "velocity": 0.7874015748031497,
                    "duration": 0.333333249999999
                },
                {
                    "name": "G3",
                    "midi": 55,
                    "time": 19.333328500000004,
                    "velocity": 0.7874015748031497,
                    "duration": 0.333333249999999
                },
                {
                    "name": "F3",
                    "midi": 53,
                    "time": 19.666661750000003,
                    "velocity": 0.7874015748031497,
                    "duration": 0.333333249999999
                },
                {
                    "name": "E3",
                    "midi": 52,
                    "time": 19.999995000000002,
                    "velocity": 0.7874015748031497,
                    "duration": 0.333333249999999
                },
                {
                    "name": "G3",
                    "midi": 55,
                    "time": 20.33332825,
                    "velocity": 0.7874015748031497,
                    "duration": 0.333333249999999
                },
                {
                    "name": "A#3",
                    "midi": 58,
                    "time": 20.6666615,
                    "velocity": 0.7874015748031497,
                    "duration": 0.333333249999999
                },
                {
                    "name": "D4",
                    "midi": 62,
                    "time": 20.99999475,
                    "velocity": 0.7874015748031497,
                    "duration": 0.333333249999999
                },
                {
                    "name": "C4",
                    "midi": 60,
                    "time": 21.333327999999998,
                    "velocity": 0.7874015748031497,
                    "duration": 0.333333249999999
                },
                {
                    "name": "A3",
                    "midi": 57,
                    "time": 21.666661249999997,
                    "velocity": 0.7874015748031497,
                    "duration": 0.333333249999999
                },
                {
                    "name": "A#3",
                    "midi": 58,
                    "time": 21.999994499999996,
                    "velocity": 0.7874015748031497,
                    "duration": 0.333333249999999
                },
                {
                    "name": "G3",
                    "midi": 55,
                    "time": 22.333327749999995,
                    "velocity": 0.7874015748031497,
                    "duration": 0.333333249999999
                },
                {
                    "name": "F3",
                    "midi": 53,
                    "time": 22.666660999999994,
                    "velocity": 0.7874015748031497,
                    "duration": 0.333333249999999
                },
                {
                    "name": "E3",
                    "midi": 52,
                    "time": 22.999994249999993,
                    "velocity": 0.7874015748031497,
                    "duration": 0.333333249999999
                },
                {
                    "name": "G3",
                    "midi": 55,
                    "time": 23.333327499999992,
                    "velocity": 0.7874015748031497,
                    "duration": 0.333333249999999
                },
                {
                    "name": "A#2",
                    "midi": 46,
                    "time": 23.66666074999999,
                    "velocity": 0.7874015748031497,
                    "duration": 0.333333249999999
                },
                {
                    "name": "A2",
                    "midi": 45,
                    "time": 23.99999399999999,
                    "velocity": 0.7874015748031497,
                    "duration": 0.333333249999999
                },
                {
                    "name": "C3",
                    "midi": 48,
                    "time": 24.33332724999999,
                    "velocity": 0.7874015748031497,
                    "duration": 0.333333249999999
                },
                {
                    "name": "E3",
                    "midi": 52,
                    "time": 24.66666049999999,
                    "velocity": 0.7874015748031497,
                    "duration": 0.333333249999999
                },
                {
                    "name": "G3",
                    "midi": 55,
                    "time": 24.999993749999987,
                    "velocity": 0.7874015748031497,
                    "duration": 0.333333249999999
                },
                {
                    "name": "C4",
                    "midi": 60,
                    "time": 25.333326999999986,
                    "velocity": 0.7874015748031497,
                    "duration": 0.9999997500000006
                },
                {
                    "name": "A#3",
                    "midi": 58,
                    "time": 26.333326749999987,
                    "velocity": 0.7874015748031497,
                    "duration": 0.333333249999999
                },
                {
                    "name": "A3",
                    "midi": 57,
                    "time": 26.666659999999986,
                    "velocity": 0.7874015748031497,
                    "duration": 0.333333249999999
                },
                {
                    "name": "G3",
                    "midi": 55,
                    "time": 26.999993249999985,
                    "velocity": 0.7874015748031497,
                    "duration": 0.333333249999999
                },
                {
                    "name": "F3",
                    "midi": 53,
                    "time": 27.333326499999984,
                    "velocity": 0.7874015748031497,
                    "duration": 0.333333249999999
                },
                {
                    "name": "E3",
                    "midi": 52,
                    "time": 27.666659749999983,
                    "velocity": 0.7874015748031497,
                    "duration": 0.333333249999999
                },
                {
                    "name": "D3",
                    "midi": 50,
                    "time": 27.999992999999982,
                    "velocity": 0.7874015748031497,
                    "duration": 0.333333249999999
                },
                {
                    "name": "F3",
                    "midi": 53,
                    "time": 28.33332624999998,
                    "velocity": 0.7874015748031497,
                    "duration": 0.333333249999999
                },
                {
                    "name": "A3",
                    "midi": 57,
                    "time": 28.66665949999998,
                    "velocity": 0.7874015748031497,
                    "duration": 0.333333249999999
                },
                {
                    "name": "C4",
                    "midi": 60,
                    "time": 28.99999274999998,
                    "velocity": 0.7874015748031497,
                    "duration": 0.333333249999999
                },
                {
                    "name": "A#3",
                    "midi": 58,
                    "time": 29.33332599999998,
                    "velocity": 0.7874015748031497,
                    "duration": 0.333333249999999
                },
                {
                    "name": "G3",
                    "midi": 55,
                    "time": 29.666659249999977,
                    "velocity": 0.7874015748031497,
                    "duration": 0.333333249999999
                },
                {
                    "name": "A3",
                    "midi": 57,
                    "time": 29.999992499999976,
                    "velocity": 0.7874015748031497,
                    "duration": 0.333333249999999
                },
                {
                    "name": "F3",
                    "midi": 53,
                    "time": 30.333325749999975,
                    "velocity": 0.7874015748031497,
                    "duration": 0.333333249999999
                },
                {
                    "name": "E3",
                    "midi": 52,
                    "time": 30.666658999999974,
                    "velocity": 0.7874015748031497,
                    "duration": 0.333333249999999
                },
                {
                    "name": "F3",
                    "midi": 53,
                    "time": 30.999992249999973,
                    "velocity": 0.7874015748031497,
                    "duration": 0.333333249999999
                },
                {
                    "name": "A3",
                    "midi": 57,
                    "time": 31.333325499999972,
                    "velocity": 0.7874015748031497,
                    "duration": 0.333333249999999
                },
                {
                    "name": "F3",
                    "midi": 53,
                    "time": 31.66665874999997,
                    "velocity": 0.7874015748031497,
                    "duration": 0.333333249999999
                },
                {
                    "name": "G2",
                    "midi": 43,
                    "time": 31.99999199999997,
                    "velocity": 0.7874015748031497,
                    "duration": 0.3333332500000026
                },
                {
                    "name": "A#2",
                    "midi": 46,
                    "time": 32.33332524999997,
                    "velocity": 0.7874015748031497,
                    "duration": 0.3333332500000026
                },
                {
                    "name": "D3",
                    "midi": 50,
                    "time": 32.666658499999976,
                    "velocity": 0.7874015748031497,
                    "duration": 0.3333332500000026
                },
                {
                    "name": "F3",
                    "midi": 53,
                    "time": 32.99999174999998,
                    "velocity": 0.7874015748031497,
                    "duration": 0.3333332500000026
                },
                {
                    "name": "A#3",
                    "midi": 58,
                    "time": 33.33332499999998,
                    "velocity": 0.7874015748031497,
                    "duration": 0.9999997500000006
                },
                {
                    "name": "A3",
                    "midi": 57,
                    "time": 34.33332474999998,
                    "velocity": 0.7874015748031497,
                    "duration": 0.3333332500000026
                },
                {
                    "name": "G3",
                    "midi": 55,
                    "time": 34.666657999999984,
                    "velocity": 0.7874015748031497,
                    "duration": 0.3333332500000026
                },
                {
                    "name": "F3",
                    "midi": 53,
                    "time": 34.99999124999999,
                    "velocity": 0.7874015748031497,
                    "duration": 0.3333332500000026
                },
                {
                    "name": "E3",
                    "midi": 52,
                    "time": 35.33332449999999,
                    "velocity": 0.7874015748031497,
                    "duration": 0.3333332500000026
                },
                {
                    "name": "G3",
                    "midi": 55,
                    "time": 35.66665774999999,
                    "velocity": 0.7874015748031497,
                    "duration": 0.3333332500000026
                },
                {
                    "name": "A2",
                    "midi": 45,
                    "time": 35.999990999999994,
                    "velocity": 0.7874015748031497,
                    "duration": 0.3333332500000026
                },
                {
                    "name": "C3",
                    "midi": 48,
                    "time": 36.33332425,
                    "velocity": 0.7874015748031497,
                    "duration": 0.3333332500000026
                },
                {
                    "name": "E3",
                    "midi": 52,
                    "time": 36.6666575,
                    "velocity": 0.7874015748031497,
                    "duration": 0.3333332500000026
                },
                {
                    "name": "G3",
                    "midi": 55,
                    "time": 36.99999075,
                    "velocity": 0.7874015748031497,
                    "duration": 0.3333332500000026
                },
                {
                    "name": "C4",
                    "midi": 60,
                    "time": 37.333324000000005,
                    "velocity": 0.7874015748031497,
                    "duration": 0.3333332500000026
                },
                {
                    "name": "A3",
                    "midi": 57,
                    "time": 37.66665725000001,
                    "velocity": 0.7874015748031497,
                    "duration": 0.3333332500000026
                },
                {
                    "name": "E3",
                    "midi": 52,
                    "time": 37.99999050000001,
                    "velocity": 0.7874015748031497,
                    "duration": 0.3333332500000026
                },
                {
                    "name": "G3",
                    "midi": 55,
                    "time": 38.33332375000001,
                    "velocity": 0.7874015748031497,
                    "duration": 0.3333332500000026
                },
                {
                    "name": "F3",
                    "midi": 53,
                    "time": 38.666657000000015,
                    "velocity": 0.7874015748031497,
                    "duration": 0.3333332500000026
                },
                {
                    "name": "A3",
                    "midi": 57,
                    "time": 38.99999025000002,
                    "velocity": 0.7874015748031497,
                    "duration": 0.3333332500000026
                },
                {
                    "name": "D3",
                    "midi": 50,
                    "time": 39.33332350000002,
                    "velocity": 0.7874015748031497,
                    "duration": 0.3333332500000026
                },
                {
                    "name": "D#3",
                    "midi": 51,
                    "time": 39.66665675000002,
                    "velocity": 0.7874015748031497,
                    "duration": 0.3333332500000026
                },
                {
                    "name": "D3",
                    "midi": 50,
                    "time": 39.999990000000025,
                    "velocity": 0.7874015748031497,
                    "duration": 0.3333332500000026
                },
                {
                    "name": "A2",
                    "midi": 45,
                    "time": 40.33332325000003,
                    "velocity": 0.7874015748031497,
                    "duration": 0.3333332500000026
                },
                {
                    "name": "A#2",
                    "midi": 46,
                    "time": 40.66665650000003,
                    "velocity": 0.7874015748031497,
                    "duration": 0.3333332500000026
                },
                {
                    "name": "D3",
                    "midi": 50,
                    "time": 40.99998975000003,
                    "velocity": 0.7874015748031497,
                    "duration": 0.3333332500000026
                },
                {
                    "name": "G3",
                    "midi": 55,
                    "time": 41.333323000000036,
                    "velocity": 0.7874015748031497,
                    "duration": 0.3333332500000026
                },
                {
                    "name": "A#3",
                    "midi": 58,
                    "time": 41.66665625000004,
                    "velocity": 0.7874015748031497,
                    "duration": 0.3333332500000026
                },
                {
                    "name": "A3",
                    "midi": 57,
                    "time": 41.99998950000004,
                    "velocity": 0.7874015748031497,
                    "duration": 0.3333332500000026
                },
                {
                    "name": "C4",
                    "midi": 60,
                    "time": 42.33332275000004,
                    "velocity": 0.7874015748031497,
                    "duration": 0.3333332500000026
                },
                {
                    "name": "A#3",
                    "midi": 58,
                    "time": 42.666656000000046,
                    "velocity": 0.7874015748031497,
                    "duration": 0.3333332500000026
                },
                {
                    "name": "G3",
                    "midi": 55,
                    "time": 42.99998925000005,
                    "velocity": 0.7874015748031497,
                    "duration": 0.3333332500000026
                },
                {
                    "name": "D4",
                    "midi": 62,
                    "time": 43.33332250000005,
                    "velocity": 0.7874015748031497,
                    "duration": 0.3333332500000026
                },
                {
                    "name": "F3",
                    "midi": 53,
                    "time": 43.666655750000054,
                    "velocity": 0.7874015748031497,
                    "duration": 0.3333332500000026
                },
                {
                    "name": "E3",
                    "midi": 52,
                    "time": 43.999989000000056,
                    "velocity": 0.7874015748031497,
                    "duration": 0.3333332500000026
                },
                {
                    "name": "B2",
                    "midi": 47,
                    "time": 44.33332225000006,
                    "velocity": 0.7874015748031497,
                    "duration": 0.3333332500000026
                },
                {
                    "name": "C3",
                    "midi": 48,
                    "time": 44.66665550000006,
                    "velocity": 0.7874015748031497,
                    "duration": 0.3333332500000026
                },
                {
                    "name": "E3",
                    "midi": 52,
                    "time": 44.999988750000064,
                    "velocity": 0.7874015748031497,
                    "duration": 0.3333332500000026
                },
                {
                    "name": "G3",
                    "midi": 55,
                    "time": 45.33332200000007,
                    "velocity": 0.7874015748031497,
                    "duration": 0.3333332500000026
                },
                {
                    "name": "D3",
                    "midi": 50,
                    "time": 45.66665525000007,
                    "velocity": 0.7874015748031497,
                    "duration": 0.3333332500000026
                },
                {
                    "name": "E3",
                    "midi": 52,
                    "time": 45.99998850000007,
                    "velocity": 0.7874015748031497,
                    "duration": 0.3333332500000026
                },
                {
                    "name": "C3",
                    "midi": 48,
                    "time": 46.333321750000074,
                    "velocity": 0.7874015748031497,
                    "duration": 0.3333332500000026
                },
                {
                    "name": "A#2",
                    "midi": 46,
                    "time": 46.66665500000008,
                    "velocity": 0.7874015748031497,
                    "duration": 0.3333332500000026
                },
                {
                    "name": "G2",
                    "midi": 43,
                    "time": 46.99998825000008,
                    "velocity": 0.7874015748031497,
                    "duration": 0.3333332500000026
                },
                {
                    "name": "E3",
                    "midi": 52,
                    "time": 47.33332150000008,
                    "velocity": 0.7874015748031497,
                    "duration": 0.3333332500000026
                },
                {
                    "name": "A#2",
                    "midi": 46,
                    "time": 47.666654750000085,
                    "velocity": 0.7874015748031497,
                    "duration": 0.3333332500000026
                },
                {
                    "name": "F2",
                    "midi": 41,
                    "time": 47.99998800000009,
                    "velocity": 0.7874015748031497,
                    "duration": 0.666666499999998
                },
                {
                    "name": "A2",
                    "midi": 45,
                    "time": 48.666654500000085,
                    "velocity": 0.7874015748031497,
                    "duration": 0.666666499999998
                },
                {
                    "name": "C3",
                    "midi": 48,
                    "time": 49.33332100000008,
                    "velocity": 0.7874015748031497,
                    "duration": 1.6666662499999987
                },
                {
                    "name": "A#2",
                    "midi": 46,
                    "time": 50.99998725000008,
                    "velocity": 0.7874015748031497,
                    "duration": 0.3333332500000026
                },
                {
                    "name": "A2",
                    "midi": 45,
                    "time": 51.333320500000085,
                    "velocity": 0.7874015748031497,
                    "duration": 0.3333332500000026
                },
                {
                    "name": "G2",
                    "midi": 43,
                    "time": 51.66665375000009,
                    "velocity": 0.7874015748031497,
                    "duration": 0.3333332500000026
                },
                {
                    "name": "F#2",
                    "midi": 42,
                    "time": 51.99998700000009,
                    "velocity": 0.7874015748031497,
                    "duration": 0.3333332500000026
                },
                {
                    "name": "A2",
                    "midi": 45,
                    "time": 52.33332025000009,
                    "velocity": 0.7874015748031497,
                    "duration": 0.3333332500000026
                },
                {
                    "name": "A#2",
                    "midi": 46,
                    "time": 52.666653500000095,
                    "velocity": 0.7874015748031497,
                    "duration": 0.3333332500000026
                },
                {
                    "name": "C3",
                    "midi": 48,
                    "time": 52.9999867500001,
                    "velocity": 0.7874015748031497,
                    "duration": 0.3333332500000026
                },
                {
                    "name": "D2",
                    "midi": 38,
                    "time": 53.3333200000001,
                    "velocity": 0.7874015748031497,
                    "duration": 0.3333332500000026
                },
                {
                    "name": "C3",
                    "midi": 48,
                    "time": 53.6666532500001,
                    "velocity": 0.7874015748031497,
                    "duration": 0.3333332500000026
                },
                {
                    "name": "A#2",
                    "midi": 46,
                    "time": 53.999986500000105,
                    "velocity": 0.7874015748031497,
                    "duration": 0.3333332500000026
                },
                {
                    "name": "A2",
                    "midi": 45,
                    "time": 54.33331975000011,
                    "velocity": 0.7874015748031497,
                    "duration": 0.3333332500000026
                },
                {
                    "name": "F#3",
                    "midi": 54,
                    "time": 54.66665300000011,
                    "velocity": 0.7874015748031497,
                    "duration": 0.3333332500000026
                },
                {
                    "name": "D#3",
                    "midi": 51,
                    "time": 54.99998625000011,
                    "velocity": 0.7874015748031497,
                    "duration": 0.3333332500000026
                },
                {
                    "name": "D3",
                    "midi": 50,
                    "time": 55.333319500000115,
                    "velocity": 0.7874015748031497,
                    "duration": 0.3333332500000026
                },
                {
                    "name": "C3",
                    "midi": 48,
                    "time": 55.66665275000012,
                    "velocity": 0.7874015748031497,
                    "duration": 0.3333332500000026
                },
                {
                    "name": "A#2",
                    "midi": 46,
                    "time": 55.99998600000012,
                    "velocity": 0.7874015748031497,
                    "duration": 0.3333332500000026
                },
                {
                    "name": "A2",
                    "midi": 45,
                    "time": 56.33331925000012,
                    "velocity": 0.7874015748031497,
                    "duration": 0.3333332500000026
                },
                {
                    "name": "G2",
                    "midi": 43,
                    "time": 56.666652500000126,
                    "velocity": 0.7874015748031497,
                    "duration": 0.3333332500000026
                },
                {
                    "name": "A#2",
                    "midi": 46,
                    "time": 56.99998575000013,
                    "velocity": 0.7874015748031497,
                    "duration": 0.3333332500000026
                },
                {
                    "name": "D3",
                    "midi": 50,
                    "time": 57.33331900000013,
                    "velocity": 0.7874015748031497,
                    "duration": 1.6666662499999987
                },
                {
                    "name": "C3",
                    "midi": 48,
                    "time": 58.99998525000013,
                    "velocity": 0.7874015748031497,
                    "duration": 0.3333332500000026
                },
                {
                    "name": "A#2",
                    "midi": 46,
                    "time": 59.33331850000013,
                    "velocity": 0.7874015748031497,
                    "duration": 0.3333332500000026
                },
                {
                    "name": "A2",
                    "midi": 45,
                    "time": 59.666651750000135,
                    "velocity": 0.7874015748031497,
                    "duration": 0.3333332500000026
                },
                {
                    "name": "G#2",
                    "midi": 44,
                    "time": 59.99998500000014,
                    "velocity": 0.7874015748031497,
                    "duration": 0.3333332500000026
                },
                {
                    "name": "B2",
                    "midi": 47,
                    "time": 60.33331825000014,
                    "velocity": 0.7874015748031497,
                    "duration": 0.3333332500000026
                },
                {
                    "name": "C3",
                    "midi": 48,
                    "time": 60.66665150000014,
                    "velocity": 0.7874015748031497,
                    "duration": 0.3333332500000026
                },
                {
                    "name": "D3",
                    "midi": 50,
                    "time": 60.999984750000145,
                    "velocity": 0.7874015748031497,
                    "duration": 0.3333332500000026
                },
                {
                    "name": "E2",
                    "midi": 40,
                    "time": 61.33331800000015,
                    "velocity": 0.7874015748031497,
                    "duration": 0.3333332500000026
                },
                {
                    "name": "D3",
                    "midi": 50,
                    "time": 61.66665125000015,
                    "velocity": 0.7874015748031497,
                    "duration": 0.3333332500000026
                },
                {
                    "name": "C3",
                    "midi": 48,
                    "time": 61.99998450000015,
                    "velocity": 0.7874015748031497,
                    "duration": 0.3333332500000026
                },
                {
                    "name": "B2",
                    "midi": 47,
                    "time": 62.333317750000155,
                    "velocity": 0.7874015748031497,
                    "duration": 0.3333332500000026
                },
                {
                    "name": "G#3",
                    "midi": 56,
                    "time": 62.66665100000016,
                    "velocity": 0.7874015748031497,
                    "duration": 0.3333332500000026
                },
                {
                    "name": "F3",
                    "midi": 53,
                    "time": 62.99998425000016,
                    "velocity": 0.7874015748031497,
                    "duration": 0.3333332500000026
                },
                {
                    "name": "E3",
                    "midi": 52,
                    "time": 63.33331750000016,
                    "velocity": 0.7874015748031497,
                    "duration": 0.3333332500000026
                },
                {
                    "name": "D3",
                    "midi": 50,
                    "time": 63.666650750000166,
                    "velocity": 0.7874015748031497,
                    "duration": 0.3333332500000026
                },
                {
                    "name": "C3",
                    "midi": 48,
                    "time": 63.99998400000017,
                    "velocity": 0.7874015748031497,
                    "duration": 0.3333332499999955
                },
                {
                    "name": "B2",
                    "midi": 47,
                    "time": 64.33331725000016,
                    "velocity": 0.7874015748031497,
                    "duration": 0.3333332499999955
                },
                {
                    "name": "A2",
                    "midi": 45,
                    "time": 64.66665050000016,
                    "velocity": 0.7874015748031497,
                    "duration": 0.3333332499999955
                },
                {
                    "name": "C3",
                    "midi": 48,
                    "time": 64.99998375000015,
                    "velocity": 0.7874015748031497,
                    "duration": 0.3333332499999955
                },
                {
                    "name": "F3",
                    "midi": 53,
                    "time": 65.33331700000015,
                    "velocity": 0.7874015748031497,
                    "duration": 0.3333332499999955
                },
                {
                    "name": "E3",
                    "midi": 52,
                    "time": 65.66665025000015,
                    "velocity": 0.7874015748031497,
                    "duration": 0.3333332499999955
                },
                {
                    "name": "F3",
                    "midi": 53,
                    "time": 65.99998350000014,
                    "velocity": 0.7874015748031497,
                    "duration": 0.3333332499999955
                },
                {
                    "name": "G#3",
                    "midi": 56,
                    "time": 66.33331675000014,
                    "velocity": 0.7874015748031497,
                    "duration": 0.3333332499999955
                },
                {
                    "name": "A3",
                    "midi": 57,
                    "time": 66.66665000000013,
                    "velocity": 0.7874015748031497,
                    "duration": 0.3333332499999955
                },
                {
                    "name": "F3",
                    "midi": 53,
                    "time": 66.99998325000013,
                    "velocity": 0.7874015748031497,
                    "duration": 0.3333332499999955
                },
                {
                    "name": "D3",
                    "midi": 50,
                    "time": 67.33331650000012,
                    "velocity": 0.7874015748031497,
                    "duration": 0.3333332499999955
                },
                {
                    "name": "C3",
                    "midi": 48,
                    "time": 67.66664975000012,
                    "velocity": 0.7874015748031497,
                    "duration": 0.3333332499999955
                },
                {
                    "name": "B2",
                    "midi": 47,
                    "time": 67.99998300000011,
                    "velocity": 0.7874015748031497,
                    "duration": 0.3333332499999955
                },
                {
                    "name": "D3",
                    "midi": 50,
                    "time": 68.33331625000011,
                    "velocity": 0.7874015748031497,
                    "duration": 0.3333332499999955
                },
                {
                    "name": "G#3",
                    "midi": 56,
                    "time": 68.6666495000001,
                    "velocity": 0.7874015748031497,
                    "duration": 0.3333332499999955
                },
                {
                    "name": "B3",
                    "midi": 59,
                    "time": 68.9999827500001,
                    "velocity": 0.7874015748031497,
                    "duration": 0.3333332499999955
                },
                {
                    "name": "D4",
                    "midi": 62,
                    "time": 69.3333160000001,
                    "velocity": 0.7874015748031497,
                    "duration": 0.9999997500000006
                },
                {
                    "name": "C4",
                    "midi": 60,
                    "time": 70.3333157500001,
                    "velocity": 0.7874015748031497,
                    "duration": 0.3333332499999955
                },
                {
                    "name": "B3",
                    "midi": 59,
                    "time": 70.66664900000009,
                    "velocity": 0.7874015748031497,
                    "duration": 0.3333332499999955
                },
                {
                    "name": "A3",
                    "midi": 57,
                    "time": 70.99998225000009,
                    "velocity": 0.7874015748031497,
                    "duration": 0.3333332499999955
                },
                {
                    "name": "G#3",
                    "midi": 56,
                    "time": 71.33331550000008,
                    "velocity": 0.7874015748031497,
                    "duration": 0.3333332499999955
                },
                {
                    "name": "A3",
                    "midi": 57,
                    "time": 71.66664875000008,
                    "velocity": 0.7874015748031497,
                    "duration": 0.3333332499999955
                },
                {
                    "name": "C3",
                    "midi": 48,
                    "time": 71.99998200000007,
                    "velocity": 0.7874015748031497,
                    "duration": 0.3333332499999955
                },
                {
                    "name": "E3",
                    "midi": 52,
                    "time": 72.33331525000007,
                    "velocity": 0.7874015748031497,
                    "duration": 0.3333332499999955
                },
                {
                    "name": "A3",
                    "midi": 57,
                    "time": 72.66664850000006,
                    "velocity": 0.7874015748031497,
                    "duration": 0.3333332499999955
                },
                {
                    "name": "C4",
                    "midi": 60,
                    "time": 72.99998175000006,
                    "velocity": 0.7874015748031497,
                    "duration": 0.3333332499999955
                },
                {
                    "name": "E4",
                    "midi": 64,
                    "time": 73.33331500000006,
                    "velocity": 0.7874015748031497,
                    "duration": 0.9999997500000006
                },
                {
                    "name": "C4",
                    "midi": 60,
                    "time": 74.33331475000006,
                    "velocity": 0.7874015748031497,
                    "duration": 0.3333332499999955
                },
                {
                    "name": "B3",
                    "midi": 59,
                    "time": 74.66664800000005,
                    "velocity": 0.7874015748031497,
                    "duration": 0.3333332499999955
                },
                {
                    "name": "A3",
                    "midi": 57,
                    "time": 74.99998125000005,
                    "velocity": 0.7874015748031497,
                    "duration": 0.3333332499999955
                },
                {
                    "name": "G#3",
                    "midi": 56,
                    "time": 75.33331450000004,
                    "velocity": 0.7874015748031497,
                    "duration": 0.3333332499999955
                },
                {
                    "name": "A3",
                    "midi": 57,
                    "time": 75.66664775000004,
                    "velocity": 0.7874015748031497,
                    "duration": 0.3333332499999955
                },
                {
                    "name": "D3",
                    "midi": 50,
                    "time": 75.99998100000003,
                    "velocity": 0.7874015748031497,
                    "duration": 0.3333332499999955
                },
                {
                    "name": "F3",
                    "midi": 53,
                    "time": 76.33331425000003,
                    "velocity": 0.7874015748031497,
                    "duration": 0.3333332499999955
                },
                {
                    "name": "A3",
                    "midi": 57,
                    "time": 76.66664750000002,
                    "velocity": 0.7874015748031497,
                    "duration": 0.3333332499999955
                },
                {
                    "name": "D4",
                    "midi": 62,
                    "time": 76.99998075000002,
                    "velocity": 0.7874015748031497,
                    "duration": 0.3333332499999955
                },
                {
                    "name": "F4",
                    "midi": 65,
                    "time": 77.33331400000002,
                    "velocity": 0.7874015748031497,
                    "duration": 0.9999997500000006
                },
                {
                    "name": "E4",
                    "midi": 64,
                    "time": 78.33331375000002,
                    "velocity": 0.7874015748031497,
                    "duration": 0.3333332499999955
                },
                {
                    "name": "D4",
                    "midi": 62,
                    "time": 78.66664700000001,
                    "velocity": 0.7874015748031497,
                    "duration": 0.3333332499999955
                },
                {
                    "name": "C4",
                    "midi": 60,
                    "time": 78.99998025000001,
                    "velocity": 0.7874015748031497,
                    "duration": 0.3333332499999955
                },
                {
                    "name": "B3",
                    "midi": 59,
                    "time": 79.3333135,
                    "velocity": 0.7874015748031497,
                    "duration": 0.3333332499999955
                },
                {
                    "name": "D4",
                    "midi": 62,
                    "time": 79.66664675,
                    "velocity": 0.7874015748031497,
                    "duration": 0.3333332499999955
                },
                {
                    "name": "E3",
                    "midi": 52,
                    "time": 79.99998,
                    "velocity": 0.7874015748031497,
                    "duration": 0.3333332499999955
                },
                {
                    "name": "D4",
                    "midi": 62,
                    "time": 80.33331324999999,
                    "velocity": 0.7874015748031497,
                    "duration": 0.3333332499999955
                },
                {
                    "name": "C4",
                    "midi": 60,
                    "time": 80.66664649999998,
                    "velocity": 0.7874015748031497,
                    "duration": 0.3333332499999955
                },
                {
                    "name": "B3",
                    "midi": 59,
                    "time": 80.99997974999998,
                    "velocity": 0.7874015748031497,
                    "duration": 0.3333332499999955
                },
                {
                    "name": "A3",
                    "midi": 57,
                    "time": 81.33331299999998,
                    "velocity": 0.7874015748031497,
                    "duration": 0.3333332499999955
                },
                {
                    "name": "C4",
                    "midi": 60,
                    "time": 81.66664624999997,
                    "velocity": 0.7874015748031497,
                    "duration": 0.3333332499999955
                },
                {
                    "name": "B3",
                    "midi": 59,
                    "time": 81.99997949999997,
                    "velocity": 0.7874015748031497,
                    "duration": 0.3333332499999955
                },
                {
                    "name": "A3",
                    "midi": 57,
                    "time": 82.33331274999996,
                    "velocity": 0.7874015748031497,
                    "duration": 0.3333332499999955
                },
                {
                    "name": "D3",
                    "midi": 50,
                    "time": 82.66664599999996,
                    "velocity": 0.7874015748031497,
                    "duration": 0.3333332499999955
                },
                {
                    "name": "B3",
                    "midi": 59,
                    "time": 82.99997924999995,
                    "velocity": 0.7874015748031497,
                    "duration": 0.3333332499999955
                },
                {
                    "name": "A3",
                    "midi": 57,
                    "time": 83.33331249999995,
                    "velocity": 0.7874015748031497,
                    "duration": 0.3333332499999955
                },
                {
                    "name": "G#3",
                    "midi": 56,
                    "time": 83.66664574999994,
                    "velocity": 0.7874015748031497,
                    "duration": 0.3333332499999955
                },
                {
                    "name": "C3",
                    "midi": 48,
                    "time": 83.99997899999994,
                    "velocity": 0.7874015748031497,
                    "duration": 0.3333332499999955
                },
                {
                    "name": "A3",
                    "midi": 57,
                    "time": 84.33331224999993,
                    "velocity": 0.7874015748031497,
                    "duration": 0.3333332499999955
                },
                {
                    "name": "G3",
                    "midi": 55,
                    "time": 84.66664549999993,
                    "velocity": 0.7874015748031497,
                    "duration": 0.3333332499999955
                },
                {
                    "name": "F3",
                    "midi": 53,
                    "time": 84.99997874999993,
                    "velocity": 0.7874015748031497,
                    "duration": 0.3333332499999955
                },
                {
                    "name": "C#3",
                    "midi": 49,
                    "time": 85.33331199999992,
                    "velocity": 0.7874015748031497,
                    "duration": 0.3333332499999955
                },
                {
                    "name": "G3",
                    "midi": 55,
                    "time": 85.66664524999992,
                    "velocity": 0.7874015748031497,
                    "duration": 0.3333332499999955
                },
                {
                    "name": "F3",
                    "midi": 53,
                    "time": 85.99997849999991,
                    "velocity": 0.7874015748031497,
                    "duration": 0.3333332499999955
                },
                {
                    "name": "E3",
                    "midi": 52,
                    "time": 86.33331174999991,
                    "velocity": 0.7874015748031497,
                    "duration": 0.3333332499999955
                },
                {
                    "name": "D3",
                    "midi": 50,
                    "time": 86.6666449999999,
                    "velocity": 0.7874015748031497,
                    "duration": 0.3333332499999955
                },
                {
                    "name": "F3",
                    "midi": 53,
                    "time": 86.9999782499999,
                    "velocity": 0.7874015748031497,
                    "duration": 0.3333332499999955
                },
                {
                    "name": "E3",
                    "midi": 52,
                    "time": 87.3333114999999,
                    "velocity": 0.7874015748031497,
                    "duration": 0.3333332499999955
                },
                {
                    "name": "D3",
                    "midi": 50,
                    "time": 87.66664474999989,
                    "velocity": 0.7874015748031497,
                    "duration": 0.3333332499999955
                },
                {
                    "name": "G#2",
                    "midi": 44,
                    "time": 87.99997799999989,
                    "velocity": 0.7874015748031497,
                    "duration": 0.3333332499999955
                },
                {
                    "name": "D3",
                    "midi": 50,
                    "time": 88.33331124999988,
                    "velocity": 0.7874015748031497,
                    "duration": 0.3333332499999955
                },
                {
                    "name": "E3",
                    "midi": 52,
                    "time": 88.66664449999988,
                    "velocity": 0.7874015748031497,
                    "duration": 0.3333332499999955
                },
                {
                    "name": "F3",
                    "midi": 53,
                    "time": 88.99997774999987,
                    "velocity": 0.7874015748031497,
                    "duration": 0.3333332499999955
                },
                {
                    "name": "B3",
                    "midi": 59,
                    "time": 89.33331099999987,
                    "velocity": 0.7874015748031497,
                    "duration": 0.3333332499999955
                },
                {
                    "name": "F3",
                    "midi": 53,
                    "time": 89.66664424999986,
                    "velocity": 0.7874015748031497,
                    "duration": 0.3333332499999955
                },
                {
                    "name": "E3",
                    "midi": 52,
                    "time": 89.99997749999986,
                    "velocity": 0.7874015748031497,
                    "duration": 0.3333332499999955
                },
                {
                    "name": "D3",
                    "midi": 50,
                    "time": 90.33331074999985,
                    "velocity": 0.7874015748031497,
                    "duration": 0.3333332499999955
                },
                {
                    "name": "G#2",
                    "midi": 44,
                    "time": 90.66664399999985,
                    "velocity": 0.7874015748031497,
                    "duration": 0.3333332499999955
                },
                {
                    "name": "D3",
                    "midi": 50,
                    "time": 90.99997724999984,
                    "velocity": 0.7874015748031497,
                    "duration": 0.3333332499999955
                },
                {
                    "name": "C3",
                    "midi": 48,
                    "time": 91.33331049999984,
                    "velocity": 0.7874015748031497,
                    "duration": 0.3333332499999955
                },
                {
                    "name": "B2",
                    "midi": 47,
                    "time": 91.66664374999984,
                    "velocity": 0.7874015748031497,
                    "duration": 0.3333332499999955
                },
                {
                    "name": "A2",
                    "midi": 45,
                    "time": 91.99997699999983,
                    "velocity": 0.7874015748031497,
                    "duration": 0.3333332499999955
                },
                {
                    "name": "B2",
                    "midi": 47,
                    "time": 92.33331024999983,
                    "velocity": 0.7874015748031497,
                    "duration": 0.3333332499999955
                },
                {
                    "name": "C3",
                    "midi": 48,
                    "time": 92.66664349999982,
                    "velocity": 0.7874015748031497,
                    "duration": 0.3333332499999955
                },
                {
                    "name": "E3",
                    "midi": 52,
                    "time": 92.99997674999982,
                    "velocity": 0.7874015748031497,
                    "duration": 0.3333332499999955
                },
                {
                    "name": "A3",
                    "midi": 57,
                    "time": 93.33330999999981,
                    "velocity": 0.7874015748031497,
                    "duration": 0.3333332499999955
                },
                {
                    "name": "B3",
                    "midi": 59,
                    "time": 93.66664324999981,
                    "velocity": 0.7874015748031497,
                    "duration": 0.3333332499999955
                },
                {
                    "name": "C4",
                    "midi": 60,
                    "time": 93.9999764999998,
                    "velocity": 0.7874015748031497,
                    "duration": 0.3333332499999955
                },
                {
                    "name": "A3",
                    "midi": 57,
                    "time": 94.3333097499998,
                    "velocity": 0.7874015748031497,
                    "duration": 0.3333332499999955
                },
                {
                    "name": "E3",
                    "midi": 52,
                    "time": 94.6666429999998,
                    "velocity": 0.7874015748031497,
                    "duration": 0.3333332499999955
                },
                {
                    "name": "C3",
                    "midi": 48,
                    "time": 94.99997624999979,
                    "velocity": 0.7874015748031497,
                    "duration": 0.3333332499999955
                },
                {
                    "name": "A2",
                    "midi": 45,
                    "time": 95.33330949999979,
                    "velocity": 0.7874015748031497,
                    "duration": 0.3333332499999955
                },
                {
                    "name": "G2",
                    "midi": 43,
                    "time": 95.66664274999978,
                    "velocity": 0.7874015748031497,
                    "duration": 0.3333332499999955
                },
                {
                    "name": "F#2",
                    "midi": 42,
                    "time": 95.99997599999978,
                    "velocity": 0.7874015748031497,
                    "duration": 0.3333332499999955
                },
                {
                    "name": "A2",
                    "midi": 45,
                    "time": 96.33330924999977,
                    "velocity": 0.7874015748031497,
                    "duration": 0.3333332499999955
                },
                {
                    "name": "C3",
                    "midi": 48,
                    "time": 96.66664249999977,
                    "velocity": 0.7874015748031497,
                    "duration": 0.3333332499999955
                },
                {
                    "name": "D3",
                    "midi": 50,
                    "time": 96.99997574999976,
                    "velocity": 0.7874015748031497,
                    "duration": 0.3333332499999955
                },
                {
                    "name": "D#3",
                    "midi": 51,
                    "time": 97.33330899999976,
                    "velocity": 0.7874015748031497,
                    "duration": 0.9999997500000006
                },
                {
                    "name": "D3",
                    "midi": 50,
                    "time": 98.33330874999976,
                    "velocity": 0.7874015748031497,
                    "duration": 0.3333332499999955
                },
                {
                    "name": "C3",
                    "midi": 48,
                    "time": 98.66664199999975,
                    "velocity": 0.7874015748031497,
                    "duration": 0.3333332499999955
                },
                {
                    "name": "A#2",
                    "midi": 46,
                    "time": 98.99997524999975,
                    "velocity": 0.7874015748031497,
                    "duration": 0.3333332499999955
                },
                {
                    "name": "C3",
                    "midi": 48,
                    "time": 99.33330849999975,
                    "velocity": 0.7874015748031497,
                    "duration": 0.3333332499999955
                },
                {
                    "name": "A3",
                    "midi": 57,
                    "time": 99.66664174999974,
                    "velocity": 0.7874015748031497,
                    "duration": 0.3333332499999955
                },
                {
                    "name": "A#2",
                    "midi": 46,
                    "time": 99.99997499999974,
                    "velocity": 0.7874015748031497,
                    "duration": 0.3333332499999955
                },
                {
                    "name": "A2",
                    "midi": 45,
                    "time": 100.33330824999973,
                    "velocity": 0.7874015748031497,
                    "duration": 0.3333332499999955
                },
                {
                    "name": "A#2",
                    "midi": 46,
                    "time": 100.66664149999973,
                    "velocity": 0.7874015748031497,
                    "duration": 0.3333332499999955
                },
                {
                    "name": "D3",
                    "midi": 50,
                    "time": 100.99997474999972,
                    "velocity": 0.7874015748031497,
                    "duration": 0.3333332499999955
                },
                {
                    "name": "G2",
                    "midi": 43,
                    "time": 101.33330799999972,
                    "velocity": 0.7874015748031497,
                    "duration": 0.3333332499999955
                },
                {
                    "name": "D#3",
                    "midi": 51,
                    "time": 101.66664124999971,
                    "velocity": 0.7874015748031497,
                    "duration": 0.3333332499999955
                },
                {
                    "name": "F3",
                    "midi": 53,
                    "time": 101.99997449999971,
                    "velocity": 0.7874015748031497,
                    "duration": 0.3333332499999955
                },
                {
                    "name": "G3",
                    "midi": 55,
                    "time": 102.3333077499997,
                    "velocity": 0.7874015748031497,
                    "duration": 0.3333332499999955
                },
                {
                    "name": "A2",
                    "midi": 45,
                    "time": 102.6666409999997,
                    "velocity": 0.7874015748031497,
                    "duration": 0.3333332499999955
                },
                {
                    "name": "G3",
                    "midi": 55,
                    "time": 102.9999742499997,
                    "velocity": 0.7874015748031497,
                    "duration": 0.3333332499999955
                },
                {
                    "name": "F3",
                    "midi": 53,
                    "time": 103.33330749999969,
                    "velocity": 0.7874015748031497,
                    "duration": 0.3333332499999955
                },
                {
                    "name": "D#3",
                    "midi": 51,
                    "time": 103.66664074999969,
                    "velocity": 0.7874015748031497,
                    "duration": 0.3333332499999955
                },
                {
                    "name": "D3",
                    "midi": 50,
                    "time": 103.99997399999968,
                    "velocity": 0.7874015748031497,
                    "duration": 0.3333332499999955
                },
                {
                    "name": "C3",
                    "midi": 48,
                    "time": 104.33330724999968,
                    "velocity": 0.7874015748031497,
                    "duration": 0.3333332499999955
                },
                {
                    "name": "D3",
                    "midi": 50,
                    "time": 104.66664049999967,
                    "velocity": 0.7874015748031497,
                    "duration": 0.3333332499999955
                },
                {
                    "name": "F3",
                    "midi": 53,
                    "time": 104.99997374999967,
                    "velocity": 0.7874015748031497,
                    "duration": 0.3333332499999955
                },
                {
                    "name": "A#2",
                    "midi": 46,
                    "time": 105.33330699999966,
                    "velocity": 0.7874015748031497,
                    "duration": 0.3333332499999955
                },
                {
                    "name": "G3",
                    "midi": 55,
                    "time": 105.66664024999966,
                    "velocity": 0.7874015748031497,
                    "duration": 0.3333332499999955
                },
                {
                    "name": "A3",
                    "midi": 57,
                    "time": 105.99997349999965,
                    "velocity": 0.7874015748031497,
                    "duration": 0.3333332499999955
                },
                {
                    "name": "A#3",
                    "midi": 58,
                    "time": 106.33330674999965,
                    "velocity": 0.7874015748031497,
                    "duration": 0.3333332499999955
                },
                {
                    "name": "C#3",
                    "midi": 49,
                    "time": 106.66663999999965,
                    "velocity": 0.7874015748031497,
                    "duration": 0.3333332499999955
                },
                {
                    "name": "A#3",
                    "midi": 58,
                    "time": 106.99997324999964,
                    "velocity": 0.7874015748031497,
                    "duration": 0.3333332499999955
                },
                {
                    "name": "A3",
                    "midi": 57,
                    "time": 107.33330649999964,
                    "velocity": 0.7874015748031497,
                    "duration": 0.3333332499999955
                },
                {
                    "name": "G3",
                    "midi": 55,
                    "time": 107.66663974999963,
                    "velocity": 0.7874015748031497,
                    "duration": 0.3333332499999955
                },
                {
                    "name": "F3",
                    "midi": 53,
                    "time": 107.99997299999963,
                    "velocity": 0.7874015748031497,
                    "duration": 0.3333332499999955
                },
                {
                    "name": "E3",
                    "midi": 52,
                    "time": 108.33330624999962,
                    "velocity": 0.7874015748031497,
                    "duration": 0.3333332499999955
                },
                {
                    "name": "F3",
                    "midi": 53,
                    "time": 108.66663949999962,
                    "velocity": 0.7874015748031497,
                    "duration": 0.3333332499999955
                },
                {
                    "name": "A3",
                    "midi": 57,
                    "time": 108.99997274999961,
                    "velocity": 0.7874015748031497,
                    "duration": 0.3333332499999955
                },
                {
                    "name": "D3",
                    "midi": 50,
                    "time": 109.33330599999961,
                    "velocity": 0.7874015748031497,
                    "duration": 0.3333332499999955
                },
                {
                    "name": "A#3",
                    "midi": 58,
                    "time": 109.6666392499996,
                    "velocity": 0.7874015748031497,
                    "duration": 0.3333332499999955
                },
                {
                    "name": "C4",
                    "midi": 60,
                    "time": 109.9999724999996,
                    "velocity": 0.7874015748031497,
                    "duration": 0.3333332499999955
                },
                {
                    "name": "D4",
                    "midi": 62,
                    "time": 110.3333057499996,
                    "velocity": 0.7874015748031497,
                    "duration": 0.3333332499999955
                },
                {
                    "name": "E3",
                    "midi": 52,
                    "time": 110.66663899999959,
                    "velocity": 0.7874015748031497,
                    "duration": 0.3333332499999955
                },
                {
                    "name": "D4",
                    "midi": 62,
                    "time": 110.99997224999959,
                    "velocity": 0.7874015748031497,
                    "duration": 0.3333332499999955
                },
                {
                    "name": "C4",
                    "midi": 60,
                    "time": 111.33330549999958,
                    "velocity": 0.7874015748031497,
                    "duration": 0.3333332499999955
                },
                {
                    "name": "A#3",
                    "midi": 58,
                    "time": 111.66663874999958,
                    "velocity": 0.7874015748031497,
                    "duration": 0.3333332499999955
                },
                {
                    "name": "A3",
                    "midi": 57,
                    "time": 111.99997199999957,
                    "velocity": 0.7874015748031497,
                    "duration": 0.3333332499999955
                },
                {
                    "name": "G3",
                    "midi": 55,
                    "time": 112.33330524999957,
                    "velocity": 0.7874015748031497,
                    "duration": 0.3333332499999955
                },
                {
                    "name": "A3",
                    "midi": 57,
                    "time": 112.66663849999956,
                    "velocity": 0.7874015748031497,
                    "duration": 0.3333332499999955
                },
                {
                    "name": "C4",
                    "midi": 60,
                    "time": 112.99997174999956,
                    "velocity": 0.7874015748031497,
                    "duration": 0.3333332499999955
                },
                {
                    "name": "F3",
                    "midi": 53,
                    "time": 113.33330499999956,
                    "velocity": 0.7874015748031497,
                    "duration": 0.3333332499999955
                },
                {
                    "name": "D4",
                    "midi": 62,
                    "time": 113.66663824999955,
                    "velocity": 0.7874015748031497,
                    "duration": 0.3333332499999955
                },
                {
                    "name": "E4",
                    "midi": 64,
                    "time": 113.99997149999955,
                    "velocity": 0.7874015748031497,
                    "duration": 0.3333332499999955
                },
                {
                    "name": "F4",
                    "midi": 65,
                    "time": 114.33330474999954,
                    "velocity": 0.7874015748031497,
                    "duration": 0.3333332499999955
                },
                {
                    "name": "G3",
                    "midi": 55,
                    "time": 114.66663799999954,
                    "velocity": 0.7874015748031497,
                    "duration": 0.3333332499999955
                },
                {
                    "name": "F4",
                    "midi": 65,
                    "time": 114.99997124999953,
                    "velocity": 0.7874015748031497,
                    "duration": 0.3333332499999955
                },
                {
                    "name": "E4",
                    "midi": 64,
                    "time": 115.33330449999953,
                    "velocity": 0.7874015748031497,
                    "duration": 0.3333332499999955
                },
                {
                    "name": "D4",
                    "midi": 62,
                    "time": 115.66663774999952,
                    "velocity": 0.7874015748031497,
                    "duration": 0.3333332499999955
                },
                {
                    "name": "C#4",
                    "midi": 61,
                    "time": 115.99997099999952,
                    "velocity": 0.7874015748031497,
                    "duration": 0.3333332499999955
                },
                {
                    "name": "G3",
                    "midi": 55,
                    "time": 116.33330424999951,
                    "velocity": 0.7874015748031497,
                    "duration": 0.3333332499999955
                },
                {
                    "name": "F3",
                    "midi": 53,
                    "time": 116.66663749999951,
                    "velocity": 0.7874015748031497,
                    "duration": 0.3333332499999955
                },
                {
                    "name": "E3",
                    "midi": 52,
                    "time": 116.9999707499995,
                    "velocity": 0.7874015748031497,
                    "duration": 0.3333332499999955
                },
                {
                    "name": "A2",
                    "midi": 45,
                    "time": 117.3333039999995,
                    "velocity": 0.7874015748031497,
                    "duration": 0.3333332499999955
                },
                {
                    "name": "E3",
                    "midi": 52,
                    "time": 117.6666372499995,
                    "velocity": 0.7874015748031497,
                    "duration": 0.3333332499999955
                },
                {
                    "name": "F3",
                    "midi": 53,
                    "time": 117.99997049999949,
                    "velocity": 0.7874015748031497,
                    "duration": 0.3333332499999955
                },
                {
                    "name": "G3",
                    "midi": 55,
                    "time": 118.33330374999949,
                    "velocity": 0.7874015748031497,
                    "duration": 0.3333332499999955
                },
                {
                    "name": "C#4",
                    "midi": 61,
                    "time": 118.66663699999948,
                    "velocity": 0.7874015748031497,
                    "duration": 0.3333332499999955
                },
                {
                    "name": "A#3",
                    "midi": 58,
                    "time": 118.99997024999948,
                    "velocity": 0.7874015748031497,
                    "duration": 0.3333332499999955
                },
                {
                    "name": "A3",
                    "midi": 57,
                    "time": 119.33330349999947,
                    "velocity": 0.7874015748031497,
                    "duration": 0.3333332499999955
                },
                {
                    "name": "G3",
                    "midi": 55,
                    "time": 119.66663674999947,
                    "velocity": 0.7874015748031497,
                    "duration": 0.3333332499999955
                },
                {
                    "name": "F3",
                    "midi": 53,
                    "time": 119.99996999999946,
                    "velocity": 0.7874015748031497,
                    "duration": 0.3333332499999955
                },
                {
                    "name": "G3",
                    "midi": 55,
                    "time": 120.33330324999946,
                    "velocity": 0.7874015748031497,
                    "duration": 0.3333332499999955
                },
                {
                    "name": "A3",
                    "midi": 57,
                    "time": 120.66663649999946,
                    "velocity": 0.7874015748031497,
                    "duration": 0.3333332499999955
                },
                {
                    "name": "C#4",
                    "midi": 61,
                    "time": 120.99996974999945,
                    "velocity": 0.7874015748031497,
                    "duration": 0.3333332499999955
                },
                {
                    "name": "D4",
                    "midi": 62,
                    "time": 121.33330299999945,
                    "velocity": 0.7874015748031497,
                    "duration": 0.3333332499999955
                },
                {
                    "name": "A3",
                    "midi": 57,
                    "time": 121.66663624999944,
                    "velocity": 0.7874015748031497,
                    "duration": 0.3333332499999955
                },
                {
                    "name": "G3",
                    "midi": 55,
                    "time": 121.99996949999944,
                    "velocity": 0.7874015748031497,
                    "duration": 0.3333332499999955
                },
                {
                    "name": "F3",
                    "midi": 53,
                    "time": 122.33330274999943,
                    "velocity": 0.7874015748031497,
                    "duration": 0.3333332499999955
                },
                {
                    "name": "A3",
                    "midi": 57,
                    "time": 122.66663599999943,
                    "velocity": 0.7874015748031497,
                    "duration": 0.3333332499999955
                },
                {
                    "name": "F3",
                    "midi": 53,
                    "time": 122.99996924999942,
                    "velocity": 0.7874015748031497,
                    "duration": 0.3333332499999955
                },
                {
                    "name": "E3",
                    "midi": 52,
                    "time": 123.33330249999942,
                    "velocity": 0.7874015748031497,
                    "duration": 0.3333332499999955
                },
                {
                    "name": "D3",
                    "midi": 50,
                    "time": 123.66663574999941,
                    "velocity": 0.7874015748031497,
                    "duration": 0.3333332499999955
                },
                {
                    "name": "G#3",
                    "midi": 56,
                    "time": 123.99996899999941,
                    "velocity": 0.7874015748031497,
                    "duration": 0.3333332499999955
                },
                {
                    "name": "D3",
                    "midi": 50,
                    "time": 124.3333022499994,
                    "velocity": 0.7874015748031497,
                    "duration": 0.3333332499999955
                },
                {
                    "name": "E3",
                    "midi": 52,
                    "time": 124.6666354999994,
                    "velocity": 0.7874015748031497,
                    "duration": 0.3333332499999955
                },
                {
                    "name": "F3",
                    "midi": 53,
                    "time": 124.9999687499994,
                    "velocity": 0.7874015748031497,
                    "duration": 0.3333332499999955
                },
                {
                    "name": "A2",
                    "midi": 45,
                    "time": 125.33330199999939,
                    "velocity": 0.7874015748031497,
                    "duration": 0.3333332499999955
                },
                {
                    "name": "F3",
                    "midi": 53,
                    "time": 125.66663524999939,
                    "velocity": 0.7874015748031497,
                    "duration": 0.3333332499999955
                },
                {
                    "name": "E3",
                    "midi": 52,
                    "time": 125.99996849999938,
                    "velocity": 0.7874015748031497,
                    "duration": 0.3333332499999955
                },
                {
                    "name": "D3",
                    "midi": 50,
                    "time": 126.33330174999938,
                    "velocity": 0.7874015748031497,
                    "duration": 0.3333332499999955
                },
                {
                    "name": "G#3",
                    "midi": 56,
                    "time": 126.66663499999937,
                    "velocity": 0.7874015748031497,
                    "duration": 0.3333332499999955
                },
                {
                    "name": "F3",
                    "midi": 53,
                    "time": 126.99996824999937,
                    "velocity": 0.7874015748031497,
                    "duration": 0.3333332499999955
                },
                {
                    "name": "E3",
                    "midi": 52,
                    "time": 127.33330149999937,
                    "velocity": 0.7874015748031497,
                    "duration": 0.3333332499999955
                },
                {
                    "name": "D3",
                    "midi": 50,
                    "time": 127.66663474999936,
                    "velocity": 0.7874015748031497,
                    "duration": 0.3333332499999955
                },
                {
                    "name": "C#3",
                    "midi": 49,
                    "time": 127.99996799999936,
                    "velocity": 0.7874015748031497,
                    "duration": 0.3333332499999955
                },
                {
                    "name": "B2",
                    "midi": 47,
                    "time": 128.33330124999935,
                    "velocity": 0.7874015748031497,
                    "duration": 0.3333332500000097
                },
                {
                    "name": "C#3",
                    "midi": 49,
                    "time": 128.66663449999936,
                    "velocity": 0.7874015748031497,
                    "duration": 0.3333332500000097
                },
                {
                    "name": "E3",
                    "midi": 52,
                    "time": 128.99996774999937,
                    "velocity": 0.7874015748031497,
                    "duration": 0.3333332500000097
                },
                {
                    "name": "A3",
                    "midi": 57,
                    "time": 129.33330099999938,
                    "velocity": 0.7874015748031497,
                    "duration": 0.3333332500000097
                },
                {
                    "name": "E3",
                    "midi": 52,
                    "time": 129.6666342499994,
                    "velocity": 0.7874015748031497,
                    "duration": 0.3333332500000097
                },
                {
                    "name": "C#3",
                    "midi": 49,
                    "time": 129.9999674999994,
                    "velocity": 0.7874015748031497,
                    "duration": 0.3333332500000097
                },
                {
                    "name": "E3",
                    "midi": 52,
                    "time": 130.3333007499994,
                    "velocity": 0.7874015748031497,
                    "duration": 0.3333332500000097
                },
                {
                    "name": "A2",
                    "midi": 45,
                    "time": 130.66663399999942,
                    "velocity": 0.7874015748031497,
                    "duration": 0.3333332500000097
                },
                {
                    "name": "G3",
                    "midi": 55,
                    "time": 130.99996724999943,
                    "velocity": 0.7874015748031497,
                    "duration": 0.3333332500000097
                },
                {
                    "name": "F3",
                    "midi": 53,
                    "time": 131.33330049999944,
                    "velocity": 0.7874015748031497,
                    "duration": 0.3333332500000097
                },
                {
                    "name": "E3",
                    "midi": 52,
                    "time": 131.66663374999945,
                    "velocity": 0.7874015748031497,
                    "duration": 0.3333332500000097
                },
                {
                    "name": "F3",
                    "midi": 53,
                    "time": 131.99996699999946,
                    "velocity": 0.7874015748031497,
                    "duration": 0.3333332500000097
                },
                {
                    "name": "E3",
                    "midi": 52,
                    "time": 132.33330024999947,
                    "velocity": 0.7874015748031497,
                    "duration": 0.3333332500000097
                },
                {
                    "name": "F3",
                    "midi": 53,
                    "time": 132.66663349999948,
                    "velocity": 0.7874015748031497,
                    "duration": 0.3333332500000097
                },
                {
                    "name": "A3",
                    "midi": 57,
                    "time": 132.9999667499995,
                    "velocity": 0.7874015748031497,
                    "duration": 0.3333332500000097
                },
                {
                    "name": "D4",
                    "midi": 62,
                    "time": 133.3332999999995,
                    "velocity": 0.7874015748031497,
                    "duration": 0.3333332500000097
                },
                {
                    "name": "A3",
                    "midi": 57,
                    "time": 133.6666332499995,
                    "velocity": 0.7874015748031497,
                    "duration": 0.3333332500000097
                },
                {
                    "name": "F3",
                    "midi": 53,
                    "time": 133.99996649999952,
                    "velocity": 0.7874015748031497,
                    "duration": 0.3333332500000097
                },
                {
                    "name": "A3",
                    "midi": 57,
                    "time": 134.33329974999953,
                    "velocity": 0.7874015748031497,
                    "duration": 0.3333332500000097
                },
                {
                    "name": "D3",
                    "midi": 50,
                    "time": 134.66663299999954,
                    "velocity": 0.7874015748031497,
                    "duration": 0.3333332500000097
                },
                {
                    "name": "C4",
                    "midi": 60,
                    "time": 134.99996624999955,
                    "velocity": 0.7874015748031497,
                    "duration": 0.3333332500000097
                },
                {
                    "name": "A#3",
                    "midi": 58,
                    "time": 135.33329949999955,
                    "velocity": 0.7874015748031497,
                    "duration": 0.3333332500000097
                },
                {
                    "name": "A3",
                    "midi": 57,
                    "time": 135.66663274999956,
                    "velocity": 0.7874015748031497,
                    "duration": 0.3333332500000097
                },
                {
                    "name": "G3",
                    "midi": 55,
                    "time": 135.99996599999957,
                    "velocity": 0.7874015748031497,
                    "duration": 0.3333332500000097
                },
                {
                    "name": "F3",
                    "midi": 53,
                    "time": 136.33329924999958,
                    "velocity": 0.7874015748031497,
                    "duration": 0.3333332500000097
                },
                {
                    "name": "G3",
                    "midi": 55,
                    "time": 136.6666324999996,
                    "velocity": 0.7874015748031497,
                    "duration": 0.3333332500000097
                },
                {
                    "name": "C#4",
                    "midi": 61,
                    "time": 136.9999657499996,
                    "velocity": 0.7874015748031497,
                    "duration": 0.3333332500000097
                },
                {
                    "name": "E4",
                    "midi": 64,
                    "time": 137.3332989999996,
                    "velocity": 0.7874015748031497,
                    "duration": 0.3333332500000097
                },
                {
                    "name": "C#4",
                    "midi": 61,
                    "time": 137.66663224999962,
                    "velocity": 0.7874015748031497,
                    "duration": 0.3333332500000097
                },
                {
                    "name": "G3",
                    "midi": 55,
                    "time": 137.99996549999963,
                    "velocity": 0.7874015748031497,
                    "duration": 0.3333332500000097
                },
                {
                    "name": "C#4",
                    "midi": 61,
                    "time": 138.33329874999964,
                    "velocity": 0.7874015748031497,
                    "duration": 0.3333332500000097
                },
                {
                    "name": "A2",
                    "midi": 45,
                    "time": 138.66663199999965,
                    "velocity": 0.7874015748031497,
                    "duration": 0.3333332500000097
                },
                {
                    "name": "G3",
                    "midi": 55,
                    "time": 138.99996524999966,
                    "velocity": 0.7874015748031497,
                    "duration": 0.3333332500000097
                },
                {
                    "name": "F3",
                    "midi": 53,
                    "time": 139.33329849999967,
                    "velocity": 0.7874015748031497,
                    "duration": 0.3333332500000097
                },
                {
                    "name": "E3",
                    "midi": 52,
                    "time": 139.66663174999968,
                    "velocity": 0.7874015748031497,
                    "duration": 0.3333332500000097
                },
                {
                    "name": "D3",
                    "midi": 50,
                    "time": 139.9999649999997,
                    "velocity": 0.7874015748031497,
                    "duration": 0.3333332500000097
                },
                {
                    "name": "A3",
                    "midi": 57,
                    "time": 140.3332982499997,
                    "velocity": 0.7874015748031497,
                    "duration": 0.3333332500000097
                },
                {
                    "name": "D4",
                    "midi": 62,
                    "time": 140.6666314999997,
                    "velocity": 0.7874015748031497,
                    "duration": 0.3333332500000097
                },
                {
                    "name": "E4",
                    "midi": 64,
                    "time": 140.99996474999972,
                    "velocity": 0.7874015748031497,
                    "duration": 0.3333332500000097
                },
                {
                    "name": "F4",
                    "midi": 65,
                    "time": 141.33329799999973,
                    "velocity": 0.7874015748031497,
                    "duration": 0.3333332500000097
                },
                {
                    "name": "D4",
                    "midi": 62,
                    "time": 141.66663124999974,
                    "velocity": 0.7874015748031497,
                    "duration": 0.3333332500000097
                },
                {
                    "name": "A3",
                    "midi": 57,
                    "time": 141.99996449999975,
                    "velocity": 0.7874015748031497,
                    "duration": 0.3333332500000097
                },
                {
                    "name": "F3",
                    "midi": 53,
                    "time": 142.33329774999976,
                    "velocity": 0.7874015748031497,
                    "duration": 0.3333332500000097
                },
                {
                    "name": "D3",
                    "midi": 50,
                    "time": 142.66663099999977,
                    "velocity": 0.7874015748031497,
                    "duration": 0.3333332500000097
                },
                {
                    "name": "C4",
                    "midi": 60,
                    "time": 142.99996424999978,
                    "velocity": 0.7874015748031497,
                    "duration": 0.3333332500000097
                },
                {
                    "name": "A#3",
                    "midi": 58,
                    "time": 143.3332974999998,
                    "velocity": 0.7874015748031497,
                    "duration": 0.3333332500000097
                },
                {
                    "name": "A3",
                    "midi": 57,
                    "time": 143.6666307499998,
                    "velocity": 0.7874015748031497,
                    "duration": 0.3333332500000097
                },
                {
                    "name": "G3",
                    "midi": 55,
                    "time": 143.9999639999998,
                    "velocity": 0.7874015748031497,
                    "duration": 0.3333332500000097
                },
                {
                    "name": "A3",
                    "midi": 57,
                    "time": 144.33329724999982,
                    "velocity": 0.7874015748031497,
                    "duration": 0.3333332500000097
                },
                {
                    "name": "A#3",
                    "midi": 58,
                    "time": 144.66663049999983,
                    "velocity": 0.7874015748031497,
                    "duration": 0.3333332500000097
                },
                {
                    "name": "D3",
                    "midi": 50,
                    "time": 144.99996374999984,
                    "velocity": 0.7874015748031497,
                    "duration": 0.3333332500000097
                },
                {
                    "name": "D#3",
                    "midi": 51,
                    "time": 145.33329699999985,
                    "velocity": 0.7874015748031497,
                    "duration": 0.3333332500000097
                },
                {
                    "name": "F3",
                    "midi": 53,
                    "time": 145.66663024999986,
                    "velocity": 0.7874015748031497,
                    "duration": 0.3333332500000097
                },
                {
                    "name": "G3",
                    "midi": 55,
                    "time": 145.99996349999986,
                    "velocity": 0.7874015748031497,
                    "duration": 0.3333332500000097
                },
                {
                    "name": "A3",
                    "midi": 57,
                    "time": 146.33329674999987,
                    "velocity": 0.7874015748031497,
                    "duration": 0.3333332500000097
                },
                {
                    "name": "A#3",
                    "midi": 58,
                    "time": 146.66662999999988,
                    "velocity": 0.7874015748031497,
                    "duration": 0.3333332500000097
                },
                {
                    "name": "G3",
                    "midi": 55,
                    "time": 146.9999632499999,
                    "velocity": 0.7874015748031497,
                    "duration": 0.3333332500000097
                },
                {
                    "name": "D#4",
                    "midi": 63,
                    "time": 147.3332964999999,
                    "velocity": 0.7874015748031497,
                    "duration": 0.3333332500000097
                },
                {
                    "name": "G3",
                    "midi": 55,
                    "time": 147.6666297499999,
                    "velocity": 0.7874015748031497,
                    "duration": 0.3333332500000097
                },
                {
                    "name": "F3",
                    "midi": 53,
                    "time": 147.99996299999992,
                    "velocity": 0.7874015748031497,
                    "duration": 0.3333332500000097
                },
                {
                    "name": "G3",
                    "midi": 55,
                    "time": 148.33329624999993,
                    "velocity": 0.7874015748031497,
                    "duration": 0.3333332500000097
                },
                {
                    "name": "A3",
                    "midi": 57,
                    "time": 148.66662949999994,
                    "velocity": 0.7874015748031497,
                    "duration": 0.3333332500000097
                },
                {
                    "name": "C#3",
                    "midi": 49,
                    "time": 148.99996274999995,
                    "velocity": 0.7874015748031497,
                    "duration": 0.3333332500000097
                },
                {
                    "name": "D3",
                    "midi": 50,
                    "time": 149.33329599999996,
                    "velocity": 0.7874015748031497,
                    "duration": 0.3333332500000097
                },
                {
                    "name": "E3",
                    "midi": 52,
                    "time": 149.66662924999997,
                    "velocity": 0.7874015748031497,
                    "duration": 0.3333332500000097
                },
                {
                    "name": "F3",
                    "midi": 53,
                    "time": 149.99996249999998,
                    "velocity": 0.7874015748031497,
                    "duration": 0.3333332500000097
                },
                {
                    "name": "G3",
                    "midi": 55,
                    "time": 150.33329575,
                    "velocity": 0.7874015748031497,
                    "duration": 0.3333332500000097
                },
                {
                    "name": "A3",
                    "midi": 57,
                    "time": 150.666629,
                    "velocity": 0.7874015748031497,
                    "duration": 0.3333332500000097
                },
                {
                    "name": "F3",
                    "midi": 53,
                    "time": 150.99996225,
                    "velocity": 0.7874015748031497,
                    "duration": 0.3333332500000097
                },
                {
                    "name": "D4",
                    "midi": 62,
                    "time": 151.33329550000002,
                    "velocity": 0.7874015748031497,
                    "duration": 0.3333332500000097
                },
                {
                    "name": "F3",
                    "midi": 53,
                    "time": 151.66662875000003,
                    "velocity": 0.7874015748031497,
                    "duration": 0.3333332500000097
                },
                {
                    "name": "E3",
                    "midi": 52,
                    "time": 151.99996200000004,
                    "velocity": 0.7874015748031497,
                    "duration": 0.3333332500000097
                },
                {
                    "name": "F3",
                    "midi": 53,
                    "time": 152.33329525000005,
                    "velocity": 0.7874015748031497,
                    "duration": 0.3333332500000097
                },
                {
                    "name": "G3",
                    "midi": 55,
                    "time": 152.66662850000006,
                    "velocity": 0.7874015748031497,
                    "duration": 0.3333332500000097
                },
                {
                    "name": "A#2",
                    "midi": 46,
                    "time": 152.99996175000007,
                    "velocity": 0.7874015748031497,
                    "duration": 0.3333332500000097
                },
                {
                    "name": "A2",
                    "midi": 45,
                    "time": 153.33329500000008,
                    "velocity": 0.7874015748031497,
                    "duration": 0.3333332500000097
                },
                {
                    "name": "B2",
                    "midi": 47,
                    "time": 153.6666282500001,
                    "velocity": 0.7874015748031497,
                    "duration": 0.3333332500000097
                },
                {
                    "name": "C#3",
                    "midi": 49,
                    "time": 153.9999615000001,
                    "velocity": 0.7874015748031497,
                    "duration": 0.3333332500000097
                },
                {
                    "name": "D3",
                    "midi": 50,
                    "time": 154.3332947500001,
                    "velocity": 0.7874015748031497,
                    "duration": 0.3333332500000097
                },
                {
                    "name": "E3",
                    "midi": 52,
                    "time": 154.66662800000012,
                    "velocity": 0.7874015748031497,
                    "duration": 0.3333332500000097
                },
                {
                    "name": "A#2",
                    "midi": 46,
                    "time": 154.99996125000013,
                    "velocity": 0.7874015748031497,
                    "duration": 0.3333332500000097
                },
                {
                    "name": "G3",
                    "midi": 55,
                    "time": 155.33329450000014,
                    "velocity": 0.7874015748031497,
                    "duration": 0.3333332500000097
                },
                {
                    "name": "A#2",
                    "midi": 46,
                    "time": 155.66662775000015,
                    "velocity": 0.7874015748031497,
                    "duration": 0.3333332500000097
                },
                {
                    "name": "C#2",
                    "midi": 37,
                    "time": 155.99996100000016,
                    "velocity": 0.7874015748031497,
                    "duration": 0.666666499999991
                },
                {
                    "name": "A2",
                    "midi": 45,
                    "time": 156.66662750000015,
                    "velocity": 0.7874015748031497,
                    "duration": 0.666666499999991
                },
                {
                    "name": "G3",
                    "midi": 55,
                    "time": 157.33329400000014,
                    "velocity": 0.7874015748031497,
                    "duration": 1.6666662499999916
                },
                {
                    "name": "A#3",
                    "midi": 58,
                    "time": 158.99996025000013,
                    "velocity": 0.7874015748031497,
                    "duration": 0.3333332500000097
                },
                {
                    "name": "A3",
                    "midi": 57,
                    "time": 159.33329350000014,
                    "velocity": 0.7874015748031497,
                    "duration": 0.3333332500000097
                },
                {
                    "name": "G3",
                    "midi": 55,
                    "time": 159.66662675000015,
                    "velocity": 0.7874015748031497,
                    "duration": 0.3333332500000097
                },
                {
                    "name": "F3",
                    "midi": 53,
                    "time": 159.99996000000016,
                    "velocity": 0.7874015748031497,
                    "duration": 0.3333332500000097
                },
                {
                    "name": "E3",
                    "midi": 52,
                    "time": 160.33329325000017,
                    "velocity": 0.7874015748031497,
                    "duration": 0.3333332500000097
                },
                {
                    "name": "D3",
                    "midi": 50,
                    "time": 160.66662650000018,
                    "velocity": 0.7874015748031497,
                    "duration": 0.3333332500000097
                },
                {
                    "name": "E3",
                    "midi": 52,
                    "time": 160.9999597500002,
                    "velocity": 0.7874015748031497,
                    "duration": 0.3333332500000097
                },
                {
                    "name": "F3",
                    "midi": 53,
                    "time": 161.3332930000002,
                    "velocity": 0.7874015748031497,
                    "duration": 0.3333332500000097
                },
                {
                    "name": "D3",
                    "midi": 50,
                    "time": 161.6666262500002,
                    "velocity": 0.7874015748031497,
                    "duration": 0.3333332500000097
                },
                {
                    "name": "A3",
                    "midi": 57,
                    "time": 161.99995950000022,
                    "velocity": 0.7874015748031497,
                    "duration": 0.3333332500000097
                },
                {
                    "name": "F3",
                    "midi": 53,
                    "time": 162.33329275000023,
                    "velocity": 0.7874015748031497,
                    "duration": 0.3333332500000097
                },
                {
                    "name": "D4",
                    "midi": 62,
                    "time": 162.66662600000024,
                    "velocity": 0.7874015748031497,
                    "duration": 0.3333332500000097
                },
                {
                    "name": "A3",
                    "midi": 57,
                    "time": 162.99995925000024,
                    "velocity": 0.7874015748031497,
                    "duration": 0.3333332500000097
                },
                {
                    "name": "F3",
                    "midi": 53,
                    "time": 163.33329250000025,
                    "velocity": 0.7874015748031497,
                    "duration": 0.3333332500000097
                },
                {
                    "name": "D3",
                    "midi": 50,
                    "time": 163.66662575000026,
                    "velocity": 0.7874015748031497,
                    "duration": 0.3333332500000097
                },
                {
                    "name": "G#2",
                    "midi": 44,
                    "time": 163.99995900000027,
                    "velocity": 0.7874015748031497,
                    "duration": 0.666666499999991
                },
                {
                    "name": "F3",
                    "midi": 53,
                    "time": 164.66662550000026,
                    "velocity": 0.7874015748031497,
                    "duration": 0.666666499999991
                },
                {
                    "name": "D4",
                    "midi": 62,
                    "time": 165.33329200000026,
                    "velocity": 0.7874015748031497,
                    "duration": 1.6666662499999916
                },
                {
                    "name": "F4",
                    "midi": 65,
                    "time": 166.99995825000025,
                    "velocity": 0.7874015748031497,
                    "duration": 0.3333332500000097
                },
                {
                    "name": "E4",
                    "midi": 64,
                    "time": 167.33329150000026,
                    "velocity": 0.7874015748031497,
                    "duration": 0.3333332500000097
                },
                {
                    "name": "D4",
                    "midi": 62,
                    "time": 167.66662475000027,
                    "velocity": 0.7874015748031497,
                    "duration": 0.3333332500000097
                },
                {
                    "name": "C#4",
                    "midi": 61,
                    "time": 167.99995800000028,
                    "velocity": 0.7874015748031497,
                    "duration": 0.3333332500000097
                },
                {
                    "name": "B3",
                    "midi": 59,
                    "time": 168.3332912500003,
                    "velocity": 0.7874015748031497,
                    "duration": 0.3333332500000097
                },
                {
                    "name": "A3",
                    "midi": 57,
                    "time": 168.6666245000003,
                    "velocity": 0.7874015748031497,
                    "duration": 0.3333332500000097
                },
                {
                    "name": "B3",
                    "midi": 59,
                    "time": 168.9999577500003,
                    "velocity": 0.7874015748031497,
                    "duration": 0.3333332500000097
                },
                {
                    "name": "C#4",
                    "midi": 61,
                    "time": 169.33329100000032,
                    "velocity": 0.7874015748031497,
                    "duration": 0.3333332500000097
                },
                {
                    "name": "A3",
                    "midi": 57,
                    "time": 169.66662425000032,
                    "velocity": 0.7874015748031497,
                    "duration": 0.3333332500000097
                },
                {
                    "name": "D4",
                    "midi": 62,
                    "time": 169.99995750000033,
                    "velocity": 0.7874015748031497,
                    "duration": 0.3333332500000097
                },
                {
                    "name": "A3",
                    "midi": 57,
                    "time": 170.33329075000034,
                    "velocity": 0.7874015748031497,
                    "duration": 0.3333332500000097
                },
                {
                    "name": "E4",
                    "midi": 64,
                    "time": 170.66662400000035,
                    "velocity": 0.7874015748031497,
                    "duration": 0.3333332500000097
                },
                {
                    "name": "A3",
                    "midi": 57,
                    "time": 170.99995725000036,
                    "velocity": 0.7874015748031497,
                    "duration": 0.3333332500000097
                },
                {
                    "name": "F4",
                    "midi": 65,
                    "time": 171.33329050000037,
                    "velocity": 0.7874015748031497,
                    "duration": 0.3333332500000097
                },
                {
                    "name": "A3",
                    "midi": 57,
                    "time": 171.66662375000038,
                    "velocity": 0.7874015748031497,
                    "duration": 0.3333332500000097
                },
                {
                    "name": "G4",
                    "midi": 67,
                    "time": 171.9999570000004,
                    "velocity": 0.7874015748031497,
                    "duration": 0.3333332500000097
                },
                {
                    "name": "E4",
                    "midi": 64,
                    "time": 172.3332902500004,
                    "velocity": 0.7874015748031497,
                    "duration": 0.3333332500000097
                },
                {
                    "name": "C#4",
                    "midi": 61,
                    "time": 172.6666235000004,
                    "velocity": 0.7874015748031497,
                    "duration": 0.3333332500000097
                },
                {
                    "name": "E4",
                    "midi": 64,
                    "time": 172.99995675000042,
                    "velocity": 0.7874015748031497,
                    "duration": 0.3333332500000097
                },
                {
                    "name": "A3",
                    "midi": 57,
                    "time": 173.33329000000043,
                    "velocity": 0.7874015748031497,
                    "duration": 0.3333332500000097
                },
                {
                    "name": "C#4",
                    "midi": 61,
                    "time": 173.66662325000044,
                    "velocity": 0.7874015748031497,
                    "duration": 0.3333332500000097
                },
                {
                    "name": "E4",
                    "midi": 64,
                    "time": 173.99995650000045,
                    "velocity": 0.7874015748031497,
                    "duration": 0.3333332500000097
                },
                {
                    "name": "F4",
                    "midi": 65,
                    "time": 174.33328975000046,
                    "velocity": 0.7874015748031497,
                    "duration": 0.3333332500000097
                },
                {
                    "name": "G4",
                    "midi": 67,
                    "time": 174.66662300000047,
                    "velocity": 0.7874015748031497,
                    "duration": 0.3333332500000097
                },
                {
                    "name": "F4",
                    "midi": 65,
                    "time": 174.99995625000048,
                    "velocity": 0.7874015748031497,
                    "duration": 0.3333332500000097
                },
                {
                    "name": "G4",
                    "midi": 67,
                    "time": 175.3332895000005,
                    "velocity": 0.7874015748031497,
                    "duration": 0.3333332500000097
                },
                {
                    "name": "E4",
                    "midi": 64,
                    "time": 175.6666227500005,
                    "velocity": 0.7874015748031497,
                    "duration": 0.3333332500000097
                },
                {
                    "name": "F4",
                    "midi": 65,
                    "time": 175.9999560000005,
                    "velocity": 0.7874015748031497,
                    "duration": 0.3333332500000097
                },
                {
                    "name": "D4",
                    "midi": 62,
                    "time": 176.33328925000052,
                    "velocity": 0.7874015748031497,
                    "duration": 0.3333332500000097
                },
                {
                    "name": "C#4",
                    "midi": 61,
                    "time": 176.66662250000053,
                    "velocity": 0.7874015748031497,
                    "duration": 0.3333332500000097
                },
                {
                    "name": "D4",
                    "midi": 62,
                    "time": 176.99995575000054,
                    "velocity": 0.7874015748031497,
                    "duration": 0.3333332500000097
                },
                {
                    "name": "A3",
                    "midi": 57,
                    "time": 177.33328900000055,
                    "velocity": 0.7874015748031497,
                    "duration": 0.3333332500000097
                },
                {
                    "name": "C#4",
                    "midi": 61,
                    "time": 177.66662225000056,
                    "velocity": 0.7874015748031497,
                    "duration": 0.3333332500000097
                },
                {
                    "name": "D4",
                    "midi": 62,
                    "time": 177.99995550000057,
                    "velocity": 0.7874015748031497,
                    "duration": 0.3333332500000097
                },
                {
                    "name": "E4",
                    "midi": 64,
                    "time": 178.33328875000058,
                    "velocity": 0.7874015748031497,
                    "duration": 0.3333332500000097
                },
                {
                    "name": "F4",
                    "midi": 65,
                    "time": 178.6666220000006,
                    "velocity": 0.7874015748031497,
                    "duration": 0.3333332500000097
                },
                {
                    "name": "E4",
                    "midi": 64,
                    "time": 178.9999552500006,
                    "velocity": 0.7874015748031497,
                    "duration": 0.3333332500000097
                },
                {
                    "name": "F4",
                    "midi": 65,
                    "time": 179.3332885000006,
                    "velocity": 0.7874015748031497,
                    "duration": 0.3333332500000097
                },
                {
                    "name": "D4",
                    "midi": 62,
                    "time": 179.66662175000062,
                    "velocity": 0.7874015748031497,
                    "duration": 0.3333332500000097
                },
                {
                    "name": "E4",
                    "midi": 64,
                    "time": 179.99995500000063,
                    "velocity": 0.7874015748031497,
                    "duration": 0.3333332500000097
                },
                {
                    "name": "C#4",
                    "midi": 61,
                    "time": 180.33328825000063,
                    "velocity": 0.7874015748031497,
                    "duration": 0.3333332500000097
                },
                {
                    "name": "B3",
                    "midi": 59,
                    "time": 180.66662150000064,
                    "velocity": 0.7874015748031497,
                    "duration": 0.3333332500000097
                },
                {
                    "name": "C#4",
                    "midi": 61,
                    "time": 180.99995475000065,
                    "velocity": 0.7874015748031497,
                    "duration": 0.3333332500000097
                },
                {
                    "name": "A3",
                    "midi": 57,
                    "time": 181.33328800000066,
                    "velocity": 0.7874015748031497,
                    "duration": 0.3333332500000097
                },
                {
                    "name": "B3",
                    "midi": 59,
                    "time": 181.66662125000067,
                    "velocity": 0.7874015748031497,
                    "duration": 0.3333332500000097
                },
                {
                    "name": "C#4",
                    "midi": 61,
                    "time": 181.99995450000068,
                    "velocity": 0.7874015748031497,
                    "duration": 0.3333332500000097
                },
                {
                    "name": "D4",
                    "midi": 62,
                    "time": 182.3332877500007,
                    "velocity": 0.7874015748031497,
                    "duration": 0.3333332500000097
                },
                {
                    "name": "E4",
                    "midi": 64,
                    "time": 182.6666210000007,
                    "velocity": 0.7874015748031497,
                    "duration": 0.3333332500000097
                },
                {
                    "name": "D4",
                    "midi": 62,
                    "time": 182.9999542500007,
                    "velocity": 0.7874015748031497,
                    "duration": 0.3333332500000097
                },
                {
                    "name": "E4",
                    "midi": 64,
                    "time": 183.33328750000072,
                    "velocity": 0.7874015748031497,
                    "duration": 0.3333332500000097
                },
                {
                    "name": "C#4",
                    "midi": 61,
                    "time": 183.66662075000073,
                    "velocity": 0.7874015748031497,
                    "duration": 0.3333332500000097
                },
                {
                    "name": "D4",
                    "midi": 62,
                    "time": 183.99995400000074,
                    "velocity": 0.7874015748031497,
                    "duration": 0.3333332500000097
                },
                {
                    "name": "B3",
                    "midi": 59,
                    "time": 184.33328725000075,
                    "velocity": 0.7874015748031497,
                    "duration": 0.3333332500000097
                },
                {
                    "name": "A3",
                    "midi": 57,
                    "time": 184.66662050000076,
                    "velocity": 0.7874015748031497,
                    "duration": 0.3333332500000097
                },
                {
                    "name": "B3",
                    "midi": 59,
                    "time": 184.99995375000077,
                    "velocity": 0.7874015748031497,
                    "duration": 0.3333332500000097
                },
                {
                    "name": "F3",
                    "midi": 53,
                    "time": 185.33328700000078,
                    "velocity": 0.7874015748031497,
                    "duration": 0.3333332500000097
                },
                {
                    "name": "G#3",
                    "midi": 56,
                    "time": 185.6666202500008,
                    "velocity": 0.7874015748031497,
                    "duration": 0.3333332500000097
                },
                {
                    "name": "B3",
                    "midi": 59,
                    "time": 185.9999535000008,
                    "velocity": 0.7874015748031497,
                    "duration": 0.3333332500000097
                },
                {
                    "name": "C#4",
                    "midi": 61,
                    "time": 186.3332867500008,
                    "velocity": 0.7874015748031497,
                    "duration": 0.3333332500000097
                },
                {
                    "name": "D4",
                    "midi": 62,
                    "time": 186.66662000000082,
                    "velocity": 0.7874015748031497,
                    "duration": 0.3333332500000097
                },
                {
                    "name": "C#4",
                    "midi": 61,
                    "time": 186.99995325000083,
                    "velocity": 0.7874015748031497,
                    "duration": 0.3333332500000097
                },
                {
                    "name": "D4",
                    "midi": 62,
                    "time": 187.33328650000084,
                    "velocity": 0.7874015748031497,
                    "duration": 0.3333332500000097
                },
                {
                    "name": "B3",
                    "midi": 59,
                    "time": 187.66661975000085,
                    "velocity": 0.7874015748031497,
                    "duration": 0.3333332500000097
                },
                {
                    "name": "C#4",
                    "midi": 61,
                    "time": 187.99995300000086,
                    "velocity": 0.7874015748031497,
                    "duration": 1.3333330000000103
                },
                {
                    "name": "A#3",
                    "midi": 58,
                    "time": 191.99995200000086,
                    "velocity": 0.7874015748031497,
                    "duration": 0.3333332500000097
                },
                {
                    "name": "G3",
                    "midi": 55,
                    "time": 192.33328525000087,
                    "velocity": 0.7874015748031497,
                    "duration": 0.3333332500000097
                },
                {
                    "name": "F#3",
                    "midi": 54,
                    "time": 192.66661850000088,
                    "velocity": 0.7874015748031497,
                    "duration": 0.3333332500000097
                },
                {
                    "name": "G3",
                    "midi": 55,
                    "time": 192.9999517500009,
                    "velocity": 0.7874015748031497,
                    "duration": 0.3333332500000097
                },
                {
                    "name": "D#3",
                    "midi": 51,
                    "time": 193.3332850000009,
                    "velocity": 0.7874015748031497,
                    "duration": 0.3333332500000097
                },
                {
                    "name": "G3",
                    "midi": 55,
                    "time": 193.6666182500009,
                    "velocity": 0.7874015748031497,
                    "duration": 0.3333332500000097
                },
                {
                    "name": "D3",
                    "midi": 50,
                    "time": 193.99995150000092,
                    "velocity": 0.7874015748031497,
                    "duration": 0.3333332500000097
                },
                {
                    "name": "G3",
                    "midi": 55,
                    "time": 194.33328475000093,
                    "velocity": 0.7874015748031497,
                    "duration": 0.3333332500000097
                },
                {
                    "name": "D#3",
                    "midi": 51,
                    "time": 194.66661800000094,
                    "velocity": 0.7874015748031497,
                    "duration": 0.3333332500000097
                },
                {
                    "name": "G3",
                    "midi": 55,
                    "time": 194.99995125000095,
                    "velocity": 0.7874015748031497,
                    "duration": 0.3333332500000097
                },
                {
                    "name": "A#3",
                    "midi": 58,
                    "time": 195.33328450000096,
                    "velocity": 0.7874015748031497,
                    "duration": 0.3333332500000097
                },
                {
                    "name": "D3",
                    "midi": 50,
                    "time": 195.66661775000097,
                    "velocity": 0.7874015748031497,
                    "duration": 0.3333332500000097
                },
                {
                    "name": "C#3",
                    "midi": 49,
                    "time": 195.99995100000098,
                    "velocity": 0.7874015748031497,
                    "duration": 0.3333332500000097
                },
                {
                    "name": "E3",
                    "midi": 52,
                    "time": 196.333284250001,
                    "velocity": 0.7874015748031497,
                    "duration": 0.3333332500000097
                },
                {
                    "name": "G3",
                    "midi": 55,
                    "time": 196.666617500001,
                    "velocity": 0.7874015748031497,
                    "duration": 0.3333332500000097
                },
                {
                    "name": "A3",
                    "midi": 57,
                    "time": 196.999950750001,
                    "velocity": 0.7874015748031497,
                    "duration": 0.3333332500000097
                },
                {
                    "name": "A#3",
                    "midi": 58,
                    "time": 197.33328400000102,
                    "velocity": 0.7874015748031497,
                    "duration": 0.9999997500000006
                },
                {
                    "name": "A3",
                    "midi": 57,
                    "time": 198.33328375000102,
                    "velocity": 0.7874015748031497,
                    "duration": 0.3333332500000097
                },
                {
                    "name": "G3",
                    "midi": 55,
                    "time": 198.66661700000103,
                    "velocity": 0.7874015748031497,
                    "duration": 0.3333332500000097
                },
                {
                    "name": "F#3",
                    "midi": 54,
                    "time": 198.99995025000104,
                    "velocity": 0.7874015748031497,
                    "duration": 0.3333332500000097
                },
                {
                    "name": "G3",
                    "midi": 55,
                    "time": 199.33328350000104,
                    "velocity": 0.7874015748031497,
                    "duration": 0.3333332500000097
                },
                {
                    "name": "E4",
                    "midi": 64,
                    "time": 199.66661675000105,
                    "velocity": 0.7874015748031497,
                    "duration": 0.3333332500000097
                },
                {
                    "name": "F3",
                    "midi": 53,
                    "time": 199.99995000000106,
                    "velocity": 0.7874015748031497,
                    "duration": 0.3333332500000097
                },
                {
                    "name": "D4",
                    "midi": 62,
                    "time": 200.33328325000107,
                    "velocity": 0.7874015748031497,
                    "duration": 0.3333332500000097
                },
                {
                    "name": "A#3",
                    "midi": 58,
                    "time": 200.66661650000108,
                    "velocity": 0.7874015748031497,
                    "duration": 0.3333332500000097
                },
                {
                    "name": "G3",
                    "midi": 55,
                    "time": 200.9999497500011,
                    "velocity": 0.7874015748031497,
                    "duration": 0.3333332500000097
                },
                {
                    "name": "A3",
                    "midi": 57,
                    "time": 201.3332830000011,
                    "velocity": 0.7874015748031497,
                    "duration": 0.3333332500000097
                },
                {
                    "name": "F3",
                    "midi": 53,
                    "time": 201.6666162500011,
                    "velocity": 0.7874015748031497,
                    "duration": 0.3333332500000097
                },
                {
                    "name": "E3",
                    "midi": 52,
                    "time": 201.99994950000112,
                    "velocity": 0.7874015748031497,
                    "duration": 0.3333332500000097
                },
                {
                    "name": "G3",
                    "midi": 55,
                    "time": 202.33328275000113,
                    "velocity": 0.7874015748031497,
                    "duration": 0.3333332500000097
                },
                {
                    "name": "F3",
                    "midi": 53,
                    "time": 202.66661600000114,
                    "velocity": 0.7874015748031497,
                    "duration": 0.3333332500000097
                },
                {
                    "name": "D3",
                    "midi": 50,
                    "time": 202.99994925000115,
                    "velocity": 0.7874015748031497,
                    "duration": 0.3333332500000097
                },
                {
                    "name": "C#3",
                    "midi": 49,
                    "time": 203.33328250000116,
                    "velocity": 0.7874015748031497,
                    "duration": 0.3333332500000097
                },
                {
                    "name": "E3",
                    "midi": 52,
                    "time": 203.66661575000117,
                    "velocity": 0.7874015748031497,
                    "duration": 0.3333332500000097
                },
                {
                    "name": "D3",
                    "midi": 50,
                    "time": 203.99994900000118,
                    "velocity": 0.7874015748031497,
                    "duration": 0.3333332500000097
                },
                {
                    "name": "A#2",
                    "midi": 46,
                    "time": 204.3332822500012,
                    "velocity": 0.7874015748031497,
                    "duration": 0.3333332500000097
                },
                {
                    "name": "A2",
                    "midi": 45,
                    "time": 204.6666155000012,
                    "velocity": 0.7874015748031497,
                    "duration": 0.3333332500000097
                },
                {
                    "name": "G2",
                    "midi": 43,
                    "time": 204.9999487500012,
                    "velocity": 0.7874015748031497,
                    "duration": 0.3333332500000097
                },
                {
                    "name": "F#2",
                    "midi": 42,
                    "time": 205.33328200000122,
                    "velocity": 0.7874015748031497,
                    "duration": 0.3333332500000097
                },
                {
                    "name": "A2",
                    "midi": 45,
                    "time": 205.66661525000123,
                    "velocity": 0.7874015748031497,
                    "duration": 0.3333332500000097
                },
                {
                    "name": "C3",
                    "midi": 48,
                    "time": 205.99994850000124,
                    "velocity": 0.7874015748031497,
                    "duration": 0.3333332500000097
                },
                {
                    "name": "D#3",
                    "midi": 51,
                    "time": 206.33328175000125,
                    "velocity": 0.7874015748031497,
                    "duration": 0.3333332500000097
                },
                {
                    "name": "D3",
                    "midi": 50,
                    "time": 206.66661500000126,
                    "velocity": 0.7874015748031497,
                    "duration": 0.3333332500000097
                },
                {
                    "name": "C3",
                    "midi": 48,
                    "time": 206.99994825000127,
                    "velocity": 0.7874015748031497,
                    "duration": 0.3333332500000097
                },
                {
                    "name": "A#2",
                    "midi": 46,
                    "time": 207.33328150000128,
                    "velocity": 0.7874015748031497,
                    "duration": 0.3333332500000097
                },
                {
                    "name": "A2",
                    "midi": 45,
                    "time": 207.6666147500013,
                    "velocity": 0.7874015748031497,
                    "duration": 0.3333332500000097
                },
                {
                    "name": "A#2",
                    "midi": 46,
                    "time": 207.9999480000013,
                    "velocity": 0.7874015748031497,
                    "duration": 0.3333332500000097
                },
                {
                    "name": "G2",
                    "midi": 43,
                    "time": 208.3332812500013,
                    "velocity": 0.7874015748031497,
                    "duration": 0.3333332500000097
                },
                {
                    "name": "F#2",
                    "midi": 42,
                    "time": 208.66661450000132,
                    "velocity": 0.7874015748031497,
                    "duration": 0.3333332500000097
                },
                {
                    "name": "G2",
                    "midi": 43,
                    "time": 208.99994775000133,
                    "velocity": 0.7874015748031497,
                    "duration": 0.3333332500000097
                },
                {
                    "name": "D#2",
                    "midi": 39,
                    "time": 209.33328100000134,
                    "velocity": 0.7874015748031497,
                    "duration": 0.3333332500000097
                },
                {
                    "name": "G2",
                    "midi": 43,
                    "time": 209.66661425000134,
                    "velocity": 0.7874015748031497,
                    "duration": 0.3333332500000097
                },
                {
                    "name": "D2",
                    "midi": 38,
                    "time": 209.99994750000135,
                    "velocity": 0.7874015748031497,
                    "duration": 0.3333332500000097
                },
                {
                    "name": "G2",
                    "midi": 43,
                    "time": 210.33328075000136,
                    "velocity": 0.7874015748031497,
                    "duration": 0.3333332500000097
                },
                {
                    "name": "D#2",
                    "midi": 39,
                    "time": 210.66661400000137,
                    "velocity": 0.7874015748031497,
                    "duration": 0.3333332500000097
                },
                {
                    "name": "G2",
                    "midi": 43,
                    "time": 210.99994725000138,
                    "velocity": 0.7874015748031497,
                    "duration": 0.3333332500000097
                },
                {
                    "name": "A#2",
                    "midi": 46,
                    "time": 211.3332805000014,
                    "velocity": 0.7874015748031497,
                    "duration": 0.3333332500000097
                },
                {
                    "name": "D2",
                    "midi": 38,
                    "time": 211.6666137500014,
                    "velocity": 0.7874015748031497,
                    "duration": 0.3333332500000097
                },
                {
                    "name": "G3",
                    "midi": 55,
                    "time": 211.9999470000014,
                    "velocity": 0.7874015748031497,
                    "duration": 0.9999997500000006
                },
                {
                    "name": "F3",
                    "midi": 53,
                    "time": 212.9999467500014,
                    "velocity": 0.7874015748031497,
                    "duration": 0.3333332500000097
                },
                {
                    "name": "E3",
                    "midi": 52,
                    "time": 213.33328000000142,
                    "velocity": 0.7874015748031497,
                    "duration": 0.3333332500000097
                },
                {
                    "name": "D3",
                    "midi": 50,
                    "time": 213.66661325000143,
                    "velocity": 0.7874015748031497,
                    "duration": 0.3333332500000097
                },
                {
                    "name": "C#3",
                    "midi": 49,
                    "time": 213.99994650000144,
                    "velocity": 0.7874015748031497,
                    "duration": 0.3333332500000097
                },
                {
                    "name": "B2",
                    "midi": 47,
                    "time": 214.33327975000145,
                    "velocity": 0.7874015748031497,
                    "duration": 0.3333332500000097
                },
                {
                    "name": "A2",
                    "midi": 45,
                    "time": 214.66661300000146,
                    "velocity": 0.7874015748031497,
                    "duration": 0.3333332500000097
                },
                {
                    "name": "G2",
                    "midi": 43,
                    "time": 214.99994625000147,
                    "velocity": 0.7874015748031497,
                    "duration": 0.3333332500000097
                },
                {
                    "name": "F2",
                    "midi": 41,
                    "time": 215.33327950000148,
                    "velocity": 0.7874015748031497,
                    "duration": 0.3333332500000097
                },
                {
                    "name": "E2",
                    "midi": 40,
                    "time": 215.6666127500015,
                    "velocity": 0.7874015748031497,
                    "duration": 0.3333332500000097
                },
                {
                    "name": "D2",
                    "midi": 38,
                    "time": 215.9999460000015,
                    "velocity": 0.7874015748031497,
                    "duration": 0.3333332500000097
                },
                {
                    "name": "A2",
                    "midi": 45,
                    "time": 216.3332792500015,
                    "velocity": 0.7874015748031497,
                    "duration": 0.3333332500000097
                },
                {
                    "name": "D3",
                    "midi": 50,
                    "time": 216.66661250000152,
                    "velocity": 0.7874015748031497,
                    "duration": 0.3333332500000097
                },
                {
                    "name": "E3",
                    "midi": 52,
                    "time": 216.99994575000153,
                    "velocity": 0.7874015748031497,
                    "duration": 0.3333332500000097
                },
                {
                    "name": "F3",
                    "midi": 53,
                    "time": 217.33327900000154,
                    "velocity": 0.7874015748031497,
                    "duration": 0.3333332500000097
                },
                {
                    "name": "E3",
                    "midi": 52,
                    "time": 217.66661225000155,
                    "velocity": 0.7874015748031497,
                    "duration": 0.3333332500000097
                },
                {
                    "name": "D3",
                    "midi": 50,
                    "time": 217.99994550000156,
                    "velocity": 0.7874015748031497,
                    "duration": 0.3333332500000097
                },
                {
                    "name": "C3",
                    "midi": 48,
                    "time": 218.33327875000157,
                    "velocity": 0.7874015748031497,
                    "duration": 0.3333332500000097
                },
                {
                    "name": "A#2",
                    "midi": 46,
                    "time": 218.66661200000158,
                    "velocity": 0.7874015748031497,
                    "duration": 0.3333332500000097
                },
                {
                    "name": "A2",
                    "midi": 45,
                    "time": 218.9999452500016,
                    "velocity": 0.7874015748031497,
                    "duration": 0.3333332500000097
                },
                {
                    "name": "G2",
                    "midi": 43,
                    "time": 219.3332785000016,
                    "velocity": 0.7874015748031497,
                    "duration": 0.3333332500000097
                },
                {
                    "name": "F2",
                    "midi": 41,
                    "time": 219.6666117500016,
                    "velocity": 0.7874015748031497,
                    "duration": 0.3333332500000097
                },
                {
                    "name": "E2",
                    "midi": 40,
                    "time": 219.99994500000162,
                    "velocity": 0.7874015748031497,
                    "duration": 0.3333332500000097
                },
                {
                    "name": "A2",
                    "midi": 45,
                    "time": 220.33327825000163,
                    "velocity": 0.7874015748031497,
                    "duration": 0.3333332500000097
                },
                {
                    "name": "C#3",
                    "midi": 49,
                    "time": 220.66661150000164,
                    "velocity": 0.7874015748031497,
                    "duration": 0.3333332500000097
                },
                {
                    "name": "E3",
                    "midi": 52,
                    "time": 220.99994475000165,
                    "velocity": 0.7874015748031497,
                    "duration": 0.3333332500000097
                },
                {
                    "name": "G3",
                    "midi": 55,
                    "time": 221.33327800000166,
                    "velocity": 0.7874015748031497,
                    "duration": 0.3333332500000097
                },
                {
                    "name": "F3",
                    "midi": 53,
                    "time": 221.66661125000167,
                    "velocity": 0.7874015748031497,
                    "duration": 0.3333332500000097
                },
                {
                    "name": "E3",
                    "midi": 52,
                    "time": 221.99994450000167,
                    "velocity": 0.7874015748031497,
                    "duration": 0.3333332500000097
                },
                {
                    "name": "D3",
                    "midi": 50,
                    "time": 222.33327775000168,
                    "velocity": 0.7874015748031497,
                    "duration": 0.3333332500000097
                },
                {
                    "name": "C#3",
                    "midi": 49,
                    "time": 222.6666110000017,
                    "velocity": 0.7874015748031497,
                    "duration": 0.3333332500000097
                },
                {
                    "name": "B2",
                    "midi": 47,
                    "time": 222.9999442500017,
                    "velocity": 0.7874015748031497,
                    "duration": 0.3333332500000097
                },
                {
                    "name": "A2",
                    "midi": 45,
                    "time": 223.3332775000017,
                    "velocity": 0.7874015748031497,
                    "duration": 0.3333332500000097
                },
                {
                    "name": "G2",
                    "midi": 43,
                    "time": 223.66661075000172,
                    "velocity": 0.7874015748031497,
                    "duration": 0.3333332500000097
                },
                {
                    "name": "F2",
                    "midi": 41,
                    "time": 223.99994400000173,
                    "velocity": 0.7874015748031497,
                    "duration": 0.3333332500000097
                },
                {
                    "name": "A2",
                    "midi": 45,
                    "time": 224.33327725000174,
                    "velocity": 0.7874015748031497,
                    "duration": 0.3333332500000097
                },
                {
                    "name": "D3",
                    "midi": 50,
                    "time": 224.66661050000175,
                    "velocity": 0.7874015748031497,
                    "duration": 0.3333332500000097
                },
                {
                    "name": "F3",
                    "midi": 53,
                    "time": 224.99994375000176,
                    "velocity": 0.7874015748031497,
                    "duration": 0.3333332500000097
                },
                {
                    "name": "A3",
                    "midi": 57,
                    "time": 225.33327700000177,
                    "velocity": 0.7874015748031497,
                    "duration": 0.3333332500000097
                },
                {
                    "name": "D3",
                    "midi": 50,
                    "time": 225.66661025000178,
                    "velocity": 0.7874015748031497,
                    "duration": 0.3333332500000097
                },
                {
                    "name": "F3",
                    "midi": 53,
                    "time": 225.9999435000018,
                    "velocity": 0.7874015748031497,
                    "duration": 0.3333332500000097
                },
                {
                    "name": "A3",
                    "midi": 57,
                    "time": 226.3332767500018,
                    "velocity": 0.7874015748031497,
                    "duration": 0.3333332500000097
                },
                {
                    "name": "D4",
                    "midi": 62,
                    "time": 226.6666100000018,
                    "velocity": 0.7874015748031497,
                    "duration": 0.3333332500000097
                },
                {
                    "name": "A#3",
                    "midi": 58,
                    "time": 226.99994325000182,
                    "velocity": 0.7874015748031497,
                    "duration": 0.3333332500000097
                },
                {
                    "name": "C4",
                    "midi": 60,
                    "time": 227.33327650000183,
                    "velocity": 0.7874015748031497,
                    "duration": 0.3333332500000097
                },
                {
                    "name": "A3",
                    "midi": 57,
                    "time": 227.66660975000184,
                    "velocity": 0.7874015748031497,
                    "duration": 0.3333332500000097
                },
                {
                    "name": "G2",
                    "midi": 43,
                    "time": 227.99994300000185,
                    "velocity": 0.7874015748031497,
                    "duration": 0.3333332500000097
                },
                {
                    "name": "D3",
                    "midi": 50,
                    "time": 228.33327625000186,
                    "velocity": 0.7874015748031497,
                    "duration": 0.3333332500000097
                },
                {
                    "name": "G3",
                    "midi": 55,
                    "time": 228.66660950000187,
                    "velocity": 0.7874015748031497,
                    "duration": 0.3333332500000097
                },
                {
                    "name": "A3",
                    "midi": 57,
                    "time": 228.99994275000188,
                    "velocity": 0.7874015748031497,
                    "duration": 0.3333332500000097
                },
                {
                    "name": "A#3",
                    "midi": 58,
                    "time": 229.3332760000019,
                    "velocity": 0.7874015748031497,
                    "duration": 0.3333332500000097
                },
                {
                    "name": "G3",
                    "midi": 55,
                    "time": 229.6666092500019,
                    "velocity": 0.7874015748031497,
                    "duration": 0.3333332500000097
                },
                {
                    "name": "F#3",
                    "midi": 54,
                    "time": 229.9999425000019,
                    "velocity": 0.7874015748031497,
                    "duration": 0.3333332500000097
                },
                {
                    "name": "G3",
                    "midi": 55,
                    "time": 230.33327575000192,
                    "velocity": 0.7874015748031497,
                    "duration": 0.3333332500000097
                },
                {
                    "name": "D#4",
                    "midi": 63,
                    "time": 230.66660900000193,
                    "velocity": 0.7874015748031497,
                    "duration": 0.3333332500000097
                },
                {
                    "name": "G3",
                    "midi": 55,
                    "time": 230.99994225000194,
                    "velocity": 0.7874015748031497,
                    "duration": 0.3333332500000097
                },
                {
                    "name": "D4",
                    "midi": 62,
                    "time": 231.33327550000195,
                    "velocity": 0.7874015748031497,
                    "duration": 0.3333332500000097
                },
                {
                    "name": "G3",
                    "midi": 55,
                    "time": 231.66660875000196,
                    "velocity": 0.7874015748031497,
                    "duration": 0.3333332500000097
                },
                {
                    "name": "C#4",
                    "midi": 61,
                    "time": 231.99994200000197,
                    "velocity": 0.7874015748031497,
                    "duration": 3.9999990000000025
                },
                {
                    "name": "D4",
                    "midi": 62,
                    "time": 235.99994100000197,
                    "velocity": 0.7874015748031497,
                    "duration": 3.9999990000000025
                },
                {
                    "name": "D4",
                    "midi": 62,
                    "time": 239.99994000000197,
                    "velocity": 0.7874015748031497,
                    "duration": 3.9999990000000025
                },
                {
                    "name": "C#4",
                    "midi": 61,
                    "time": 243.99993900000197,
                    "velocity": 0.7874015748031497,
                    "duration": 3.9999990000000025
                },
                {
                    "name": "D4",
                    "midi": 62,
                    "time": 247.99993800000198,
                    "velocity": 0.7874015748031497,
                    "duration": 3.9999990000000025
                }
            ],
            "controlChanges": {
                "7": [
                    {
                        "number": 7,
                        "time": 0,
                        "value": 0.7874015748031497
                    }
                ],
                "10": [
                    {
                        "number": 10,
                        "time": 0,
                        "value": 0.5039370078740157
                    }
                ]
            },
            "id": 1,
            "name": "Solo Cello",
            "instrumentNumber": 42,
            "instrument": "cello",
            "instrumentFamily": "strings",
            "channelNumber": 0,
            "isPercussion": false
        },
        {
            "startTime": 187.99995299999998,
            "duration": 251.99993700000002,
            "length": 7,
            "notes": [
                {
                    "name": "E3",
                    "midi": 52,
                    "time": 187.99995299999998,
                    "velocity": 0.7874015748031497,
                    "duration": 1.3333330000000103
                },
                {
                    "name": "A#2",
                    "midi": 46,
                    "time": 211.999947,
                    "velocity": 0.7874015748031497,
                    "duration": 1.3333330000000103
                },
                {
                    "name": "G3",
                    "midi": 55,
                    "time": 231.999942,
                    "velocity": 0.7874015748031497,
                    "duration": 3.9999990000000025
                },
                {
                    "name": "F3",
                    "midi": 53,
                    "time": 235.999941,
                    "velocity": 0.7874015748031497,
                    "duration": 3.9999990000000025
                },
                {
                    "name": "E3",
                    "midi": 52,
                    "time": 239.99994,
                    "velocity": 0.7874015748031497,
                    "duration": 3.9999990000000025
                },
                {
                    "name": "E3",
                    "midi": 52,
                    "time": 243.999939,
                    "velocity": 0.7874015748031497,
                    "duration": 3.9999990000000025
                },
                {
                    "name": "F3",
                    "midi": 53,
                    "time": 247.99993800000001,
                    "velocity": 0.7874015748031497,
                    "duration": 3.9999990000000025
                }
            ],
            "controlChanges": {
                "7": [
                    {
                        "number": 7,
                        "time": 0,
                        "value": 0.7874015748031497
                    }
                ],
                "10": [
                    {
                        "number": 10,
                        "time": 0,
                        "value": 0.5826771653543307
                    }
                ]
            },
            "id": 2,
            "name": "--------------------------------------",
            "instrumentNumber": 42,
            "instrument": "cello",
            "instrumentFamily": "strings",
            "channelNumber": 1,
            "isPercussion": false
        },
        {
            "startTime": 187.99995299999998,
            "duration": 251.99993700000002,
            "length": 7,
            "notes": [
                {
                    "name": "G2",
                    "midi": 43,
                    "time": 187.99995299999998,
                    "velocity": 0.7874015748031497,
                    "duration": 1.3333330000000103
                },
                {
                    "name": "C#2",
                    "midi": 37,
                    "time": 211.999947,
                    "velocity": 0.7874015748031497,
                    "duration": 1.3333330000000103
                },
                {
                    "name": "A2",
                    "midi": 45,
                    "time": 231.999942,
                    "velocity": 0.7874015748031497,
                    "duration": 3.9999990000000025
                },
                {
                    "name": "A2",
                    "midi": 45,
                    "time": 235.999941,
                    "velocity": 0.7874015748031497,
                    "duration": 3.9999990000000025
                },
                {
                    "name": "A2",
                    "midi": 45,
                    "time": 239.99994,
                    "velocity": 0.7874015748031497,
                    "duration": 3.9999990000000025
                },
                {
                    "name": "A2",
                    "midi": 45,
                    "time": 243.999939,
                    "velocity": 0.7874015748031497,
                    "duration": 3.9999990000000025
                },
                {
                    "name": "A2",
                    "midi": 45,
                    "time": 247.99993800000001,
                    "velocity": 0.7874015748031497,
                    "duration": 3.9999990000000025
                }
            ],
            "controlChanges": {
                "7": [
                    {
                        "number": 7,
                        "time": 0,
                        "value": 0.7874015748031497
                    }
                ],
                "10": [
                    {
                        "number": 10,
                        "time": 0,
                        "value": 0.4251968503937008
                    }
                ]
            },
            "id": 3,
            "name": "Johann Sebastian Bach  (1685-1750)",
            "instrumentNumber": 42,
            "instrument": "cello",
            "instrumentFamily": "strings",
            "channelNumber": 2,
            "isPercussion": false
        },
        {
            "startTime": 247.999938,
            "duration": 251.999937,
            "length": 1,
            "notes": [
                {
                    "name": "D2",
                    "midi": 38,
                    "time": 247.999938,
                    "velocity": 0.7874015748031497,
                    "duration": 3.9999990000000025
                }
            ],
            "controlChanges": {
                "7": [
                    {
                        "number": 7,
                        "time": 0,
                        "value": 0.7874015748031497
                    }
                ],
                "10": [
                    {
                        "number": 10,
                        "time": 0,
                        "value": 0.3464566929133858
                    }
                ]
            },
            "id": 4,
            "name": "Six Suites for Solo Cello",
            "instrumentNumber": 42,
            "instrument": "cello",
            "instrumentFamily": "strings",
            "channelNumber": 3,
            "isPercussion": false
        },
        {
            "startTime": 0,
            "duration": 0,
            "length": 0,
            "notes": [],
            "controlChanges": {},
            "id": 5,
            "name": "--------------------------------------"
        },
        {
            "startTime": 0,
            "duration": 0,
            "length": 0,
            "notes": [],
            "controlChanges": {},
            "id": 6,
            "name": "Suite No. 2 in D minor - BWV 1008"
        },
        {
            "startTime": 0,
            "duration": 0,
            "length": 0,
            "notes": [],
            "controlChanges": {},
            "id": 7,
            "name": "1st Movement: Prelude"
        },
        {
            "startTime": 0,
            "duration": 0,
            "length": 0,
            "notes": [],
            "controlChanges": {},
            "id": 8,
            "name": "--------------------------------------"
        },
        {
            "startTime": 0,
            "duration": 0,
            "length": 0,
            "notes": [],
            "controlChanges": {},
            "id": 9,
            "name": "Sequenced with Cakewalk Pro Audio by"
        },
        {
            "startTime": 0,
            "duration": 0,
            "length": 0,
            "notes": [],
            "controlChanges": {},
            "id": 10,
            "name": "David J. Grossman - dave@unpronounceable.com"
        },
        {
            "startTime": 0,
            "duration": 0,
            "length": 0,
            "notes": [],
            "controlChanges": {},
            "id": 11,
            "name": "This and other Bach MIDI files can be found at:"
        },
        {
            "startTime": 0,
            "duration": 0,
            "length": 0,
            "notes": [],
            "controlChanges": {},
            "id": 12,
            "name": "Dave's J.S. Bach Page"
        },
        {
            "startTime": 0,
            "duration": 0,
            "length": 0,
            "notes": [],
            "controlChanges": {},
            "id": 13,
            "name": "http://www.unpronounceable.com/bach"
        },
        {
            "startTime": 0,
            "duration": 0,
            "length": 0,
            "notes": [],
            "controlChanges": {},
            "id": 14,
            "name": "--------------------------------------"
        },
        {
            "startTime": 0,
            "duration": 0,
            "length": 0,
            "notes": [],
            "controlChanges": {},
            "id": 15,
            "name": "Original Filename: cs2-1pre.mid"
        },
        {
            "startTime": 0,
            "duration": 0,
            "length": 0,
            "notes": [],
            "controlChanges": {},
            "id": 16,
            "name": "Last Modified: February 22, 1997"
        }
    ]
}