{
    "header": {
        "PPQ": 192,
        "bpm": 53.000022083342536,
        "timeSignature": [
            4,
            4
        ],
        "name": "text      "
    },
    "startTime": 0,
    "duration": 99.62260000000019,
    "tracks": [
        {
            "startTime": 0,
            "duration": 0,
            "length": 0,
            "notes": [],
            "controlChanges": {},
            "id": 0
        },
        {
            "startTime": 0,
            "duration": 99.62260000000018,
            "length": 211,
            "notes": [
                {
                    "name": "G4",
                    "midi": 67,
                    "time": 0,
                    "velocity": 0.5039370078740157,
                    "duration": 2.1698104166666665
                },
                {
                    "name": "E4",
                    "midi": 64,
                    "time": 0,
                    "velocity": 0.5039370078740157,
                    "duration": 1.0731127604166666
                },
                {
                    "name": "D4",
                    "midi": 62,
                    "time": 1.132075,
                    "velocity": 0.5039370078740157,
                    "duration": 1.02594296875
                },
                {
                    "name": "A4",
                    "midi": 69,
                    "time": 2.26415,
                    "velocity": 0.5039370078740157,
                    "duration": 2.1698104166666665
                },
                {
                    "name": "G4",
                    "midi": 67,
                    "time": 2.26415,
                    "velocity": 0.5039370078740157,
                    "duration": 1.0731127604166666
                },
                {
                    "name": "F4",
                    "midi": 65,
                    "time": 3.396225,
                    "velocity": 0.5039370078740157,
                    "duration": 2.2051877604166665
                },
                {
                    "name": "G4",
                    "midi": 67,
                    "time": 4.5283,
                    "velocity": 0.5039370078740157,
                    "duration": 3.2547156249999993
                },
                {
                    "name": "E4",
                    "midi": 64,
                    "time": 5.660374999999999,
                    "velocity": 0.5039370078740157,
                    "duration": 1.02594296875
                },
                {
                    "name": "A#3",
                    "midi": 58,
                    "time": 6.792449999999999,
                    "velocity": 0.5039370078740157,
                    "duration": 1.0731127604166666
                },
                {
                    "name": "A3",
                    "midi": 57,
                    "time": 7.924524999999998,
                    "velocity": 0.5039370078740157,
                    "duration": 3.189857161458332
                },
                {
                    "name": "G4",
                    "midi": 67,
                    "time": 7.924524999999998,
                    "velocity": 0.5039370078740157,
                    "duration": 0.14150937499999916
                },
                {
                    "name": "F#4",
                    "midi": 66,
                    "time": 8.066034374999997,
                    "velocity": 0.5039370078740157,
                    "duration": 0.14150937500000005
                },
                {
                    "name": "G4",
                    "midi": 67,
                    "time": 8.207543749999997,
                    "velocity": 0.5039370078740157,
                    "duration": 0.14150937500000005
                },
                {
                    "name": "F#4",
                    "midi": 66,
                    "time": 8.349053124999998,
                    "velocity": 0.5039370078740157,
                    "duration": 0.12971692708333293
                },
                {
                    "name": "D4",
                    "midi": 62,
                    "time": 8.490562499999998,
                    "velocity": 0.5039370078740157,
                    "duration": 0.5129714843749991
                },
                {
                    "name": "A4",
                    "midi": 69,
                    "time": 9.056599999999996,
                    "velocity": 0.5039370078740157,
                    "duration": 1.6096691406249999
                },
                {
                    "name": "G4",
                    "midi": 67,
                    "time": 10.754712499999997,
                    "velocity": 0.5039370078740157,
                    "duration": 0.5129714843750008
                },
                {
                    "name": "A3",
                    "midi": 57,
                    "time": 11.320749999999997,
                    "velocity": 0.5039370078740157,
                    "duration": 1.02594296875
                },
                {
                    "name": "F#4",
                    "midi": 66,
                    "time": 11.320749999999997,
                    "velocity": 0.5039370078740157,
                    "duration": 0.5365563802083333
                },
                {
                    "name": "D4",
                    "midi": 62,
                    "time": 11.886787499999997,
                    "velocity": 0.5039370078740157,
                    "duration": 0.5129714843749991
                },
                {
                    "name": "G4",
                    "midi": 67,
                    "time": 12.452824999999995,
                    "velocity": 0.5039370078740157,
                    "duration": 0.5365563802083333
                },
                {
                    "name": "G3",
                    "midi": 55,
                    "time": 12.452824999999995,
                    "velocity": 0.5039370078740157,
                    "duration": 2.1580179687499985
                },
                {
                    "name": "B3",
                    "midi": 59,
                    "time": 13.018862499999996,
                    "velocity": 0.5039370078740157,
                    "duration": 0.5129714843749991
                },
                {
                    "name": "A3",
                    "midi": 57,
                    "time": 13.584899999999994,
                    "velocity": 0.5039370078740157,
                    "duration": 0.5365563802083333
                },
                {
                    "name": "E4",
                    "midi": 64,
                    "time": 14.150937499999994,
                    "velocity": 0.5039370078740157,
                    "duration": 0.5129714843749991
                },
                {
                    "name": "F4",
                    "midi": 65,
                    "time": 14.716974999999993,
                    "velocity": 0.5039370078740157,
                    "duration": 0.5365563802083333
                },
                {
                    "name": "C4",
                    "midi": 60,
                    "time": 15.283012499999993,
                    "velocity": 0.5039370078740157,
                    "duration": 0.5129714843749991
                },
                {
                    "name": "C4",
                    "midi": 60,
                    "time": 15.849049999999991,
                    "velocity": 0.5039370078740157,
                    "duration": 0.14150937500000005
                },
                {
                    "name": "B3",
                    "midi": 59,
                    "time": 15.990559374999991,
                    "velocity": 0.5039370078740157,
                    "duration": 0.14150937500000005
                },
                {
                    "name": "C4",
                    "midi": 60,
                    "time": 16.13206874999999,
                    "velocity": 0.5039370078740157,
                    "duration": 0.14150937499999827
                },
                {
                    "name": "B3",
                    "midi": 59,
                    "time": 16.27357812499999,
                    "velocity": 0.5039370078740157,
                    "duration": 0.12971692708333293
                },
                {
                    "name": "G3",
                    "midi": 55,
                    "time": 16.415087499999988,
                    "velocity": 0.5039370078740157,
                    "duration": 0.5129714843750008
                },
                {
                    "name": "E4",
                    "midi": 64,
                    "time": 16.981124999999988,
                    "velocity": 0.5039370078740157,
                    "duration": 1.0259429687499981
                },
                {
                    "name": "G4",
                    "midi": 67,
                    "time": 16.981124999999988,
                    "velocity": 0.5039370078740157,
                    "duration": 3.189857161458331
                },
                {
                    "name": "C4",
                    "midi": 60,
                    "time": 16.981124999999988,
                    "velocity": 0.5039370078740157,
                    "duration": 1.0259429687499981
                },
                {
                    "name": "D4",
                    "midi": 62,
                    "time": 18.113199999999985,
                    "velocity": 0.5039370078740157,
                    "duration": 2.158017968750002
                },
                {
                    "name": "C4",
                    "midi": 60,
                    "time": 18.113199999999985,
                    "velocity": 0.5039370078740157,
                    "duration": 1.0259429687500017
                },
                {
                    "name": "B3",
                    "midi": 59,
                    "time": 19.245274999999985,
                    "velocity": 0.5039370078740157,
                    "duration": 1.0259429687500017
                },
                {
                    "name": "C5",
                    "midi": 72,
                    "time": 20.377349999999986,
                    "velocity": 0.5039370078740157,
                    "duration": 3.3372627604166674
                },
                {
                    "name": "E4",
                    "midi": 64,
                    "time": 20.377349999999986,
                    "velocity": 0.5039370078740157,
                    "duration": 1.0731127604166666
                },
                {
                    "name": "G4",
                    "midi": 67,
                    "time": 20.377349999999986,
                    "velocity": 0.5039370078740157,
                    "duration": 1.0731127604166666
                },
                {
                    "name": "F4",
                    "midi": 65,
                    "time": 21.509424999999986,
                    "velocity": 0.5039370078740157,
                    "duration": 1.0259429687500017
                },
                {
                    "name": "A4",
                    "midi": 69,
                    "time": 21.509424999999986,
                    "velocity": 0.5039370078740157,
                    "duration": 1.0259429687500017
                },
                {
                    "name": "E4",
                    "midi": 64,
                    "time": 22.641499999999986,
                    "velocity": 0.5039370078740157,
                    "duration": 1.0731127604166666
                },
                {
                    "name": "D4",
                    "midi": 62,
                    "time": 23.773574999999987,
                    "velocity": 0.5039370078740157,
                    "duration": 4.469337760416657
                },
                {
                    "name": "C5",
                    "midi": 72,
                    "time": 23.773574999999987,
                    "velocity": 0.5039370078740157,
                    "duration": 0.14150937499999827
                },
                {
                    "name": "B4",
                    "midi": 71,
                    "time": 23.915084374999985,
                    "velocity": 0.5039370078740157,
                    "duration": 0.14150937499999827
                },
                {
                    "name": "C5",
                    "midi": 72,
                    "time": 24.056593749999983,
                    "velocity": 0.5039370078740157,
                    "duration": 0.14150937499999827
                },
                {
                    "name": "B4",
                    "midi": 71,
                    "time": 24.19810312499998,
                    "velocity": 0.5039370078740157,
                    "duration": 0.12971692708333293
                },
                {
                    "name": "G4",
                    "midi": 67,
                    "time": 24.33961249999998,
                    "velocity": 0.5039370078740157,
                    "duration": 0.5129714843750008
                },
                {
                    "name": "D5",
                    "midi": 74,
                    "time": 24.90564999999998,
                    "velocity": 0.5039370078740157,
                    "duration": 1.6096691406250017
                },
                {
                    "name": "C5",
                    "midi": 72,
                    "time": 26.60376249999998,
                    "velocity": 0.5039370078740157,
                    "duration": 0.5129714843750008
                },
                {
                    "name": "B4",
                    "midi": 71,
                    "time": 27.16979999999998,
                    "velocity": 0.5039370078740157,
                    "duration": 0.5365563802083315
                },
                {
                    "name": "G4",
                    "midi": 67,
                    "time": 27.735837499999977,
                    "velocity": 0.5039370078740157,
                    "duration": 0.5129714843750008
                },
                {
                    "name": "C4",
                    "midi": 60,
                    "time": 28.301874999999978,
                    "velocity": 0.5039370078740157,
                    "duration": 1.0259429687500017
                },
                {
                    "name": "C5",
                    "midi": 72,
                    "time": 28.301874999999978,
                    "velocity": 0.5039370078740157,
                    "duration": 0.5365563802083351
                },
                {
                    "name": "E4",
                    "midi": 64,
                    "time": 28.867912499999978,
                    "velocity": 0.5039370078740157,
                    "duration": 0.5129714843750008
                },
                {
                    "name": "D4",
                    "midi": 62,
                    "time": 29.433949999999978,
                    "velocity": 0.5039370078740157,
                    "duration": 1.6096691406250017
                },
                {
                    "name": "A4",
                    "midi": 69,
                    "time": 29.99998749999998,
                    "velocity": 0.5039370078740157,
                    "duration": 0.5365563802083351
                },
                {
                    "name": "A#4",
                    "midi": 70,
                    "time": 30.56602499999998,
                    "velocity": 0.5039370078740157,
                    "duration": 1.6686313802083355
                },
                {
                    "name": "E4",
                    "midi": 64,
                    "time": 31.13206249999998,
                    "velocity": 0.5039370078740157,
                    "duration": 0.5129714843750008
                },
                {
                    "name": "A4",
                    "midi": 69,
                    "time": 32.26413749999998,
                    "velocity": 0.5039370078740157,
                    "duration": 0.5365563802083315
                },
                {
                    "name": "G5",
                    "midi": 79,
                    "time": 32.83017499999998,
                    "velocity": 0.5039370078740157,
                    "duration": 2.1403292968750023
                },
                {
                    "name": "G5",
                    "midi": 79,
                    "time": 35.094324999999984,
                    "velocity": 0.5039370078740157,
                    "duration": 0.14150937499999827
                },
                {
                    "name": "F#5",
                    "midi": 78,
                    "time": 35.23583437499998,
                    "velocity": 0.5039370078740157,
                    "duration": 0.14150937499999827
                },
                {
                    "name": "G5",
                    "midi": 79,
                    "time": 35.37734374999998,
                    "velocity": 0.5039370078740157,
                    "duration": 0.14150937499999827
                },
                {
                    "name": "F#5",
                    "midi": 78,
                    "time": 35.51885312499998,
                    "velocity": 0.5039370078740157,
                    "duration": 0.1297169270833365
                },
                {
                    "name": "D5",
                    "midi": 74,
                    "time": 35.660362499999984,
                    "velocity": 0.5039370078740157,
                    "duration": 0.5129714843750008
                },
                {
                    "name": "A5",
                    "midi": 81,
                    "time": 36.226399999999984,
                    "velocity": 0.5039370078740157,
                    "duration": 1.6096691406250017
                },
                {
                    "name": "G5",
                    "midi": 79,
                    "time": 37.924512499999985,
                    "velocity": 0.5039370078740157,
                    "duration": 0.5129714843750008
                },
                {
                    "name": "F#5",
                    "midi": 78,
                    "time": 38.490549999999985,
                    "velocity": 0.5039370078740157,
                    "duration": 0.5542450520833313
                },
                {
                    "name": "D5",
                    "midi": 74,
                    "time": 39.056587499999985,
                    "velocity": 0.5039370078740157,
                    "duration": 0.5129714843750008
                },
                {
                    "name": "G5",
                    "midi": 79,
                    "time": 39.622624999999985,
                    "velocity": 0.5039370078740157,
                    "duration": 0.5542450520833313
                },
                {
                    "name": "B4",
                    "midi": 71,
                    "time": 40.188662499999985,
                    "velocity": 0.5039370078740157,
                    "duration": 0.50707526041667
                },
                {
                    "name": "D4",
                    "midi": 62,
                    "time": 40.754699999999985,
                    "velocity": 0.5039370078740157,
                    "duration": 1.6096691406250017
                },
                {
                    "name": "A4",
                    "midi": 69,
                    "time": 40.754699999999985,
                    "velocity": 0.5039370078740157,
                    "duration": 0.5542450520833313
                },
                {
                    "name": "D5",
                    "midi": 74,
                    "time": 41.320737499999986,
                    "velocity": 0.5039370078740157,
                    "duration": 0.5129714843750008
                },
                {
                    "name": "B4",
                    "midi": 71,
                    "time": 41.886774999999986,
                    "velocity": 0.5039370078740157,
                    "duration": 0.5542450520833313
                },
                {
                    "name": "E5",
                    "midi": 76,
                    "time": 42.452812499999986,
                    "velocity": 0.5039370078740157,
                    "duration": 0.5129714843750008
                },
                {
                    "name": "B3",
                    "midi": 59,
                    "time": 42.452812499999986,
                    "velocity": 0.5039370078740157,
                    "duration": 0.5129714843750008
                },
                {
                    "name": "E4",
                    "midi": 64,
                    "time": 43.018849999999986,
                    "velocity": 0.5039370078740157,
                    "duration": 1.073112760416663
                },
                {
                    "name": "C#4",
                    "midi": 61,
                    "time": 43.018849999999986,
                    "velocity": 0.5039370078740157,
                    "duration": 1.073112760416663
                },
                {
                    "name": "A4",
                    "midi": 69,
                    "time": 43.018849999999986,
                    "velocity": 0.5039370078740157,
                    "duration": 1.073112760416663
                },
                {
                    "name": "A4",
                    "midi": 69,
                    "time": 44.15092499999998,
                    "velocity": 0.5039370078740157,
                    "duration": 4.422167968750003
                },
                {
                    "name": "D5",
                    "midi": 74,
                    "time": 44.15092499999998,
                    "velocity": 0.5039370078740157,
                    "duration": 2.2051877604166705
                },
                {
                    "name": "F4",
                    "midi": 65,
                    "time": 44.15092499999998,
                    "velocity": 0.5039370078740157,
                    "duration": 1.0259429687500017
                },
                {
                    "name": "E4",
                    "midi": 64,
                    "time": 45.28299999999998,
                    "velocity": 0.5039370078740157,
                    "duration": 2.1933953125000016
                },
                {
                    "name": "C5",
                    "midi": 72,
                    "time": 46.41507499999998,
                    "velocity": 0.5039370078740157,
                    "duration": 2.0577821614583343
                },
                {
                    "name": "D4",
                    "midi": 62,
                    "time": 47.54714999999998,
                    "velocity": 0.5039370078740157,
                    "duration": 2.1933953125000016
                },
                {
                    "name": "B4",
                    "midi": 71,
                    "time": 48.67922499999998,
                    "velocity": 0.5039370078740157,
                    "duration": 0.8018864583333354
                },
                {
                    "name": "A4",
                    "midi": 69,
                    "time": 49.528281249999985,
                    "velocity": 0.5039370078740157,
                    "duration": 0.25943385416666587
                },
                {
                    "name": "G#4",
                    "midi": 68,
                    "time": 49.81129999999998,
                    "velocity": 0.5039370078740157,
                    "duration": 0.8018864583333354
                },
                {
                    "name": "B3",
                    "midi": 59,
                    "time": 49.81129999999998,
                    "velocity": 0.5039370078740157,
                    "duration": 1.0731127604166701
                },
                {
                    "name": "D4",
                    "midi": 62,
                    "time": 49.81129999999998,
                    "velocity": 0.5039370078740157,
                    "duration": 1.0731127604166701
                },
                {
                    "name": "F#4",
                    "midi": 66,
                    "time": 50.660356249999985,
                    "velocity": 0.5039370078740157,
                    "duration": 0.26533007812499676
                },
                {
                    "name": "E4",
                    "midi": 64,
                    "time": 50.94337499999998,
                    "velocity": 0.5039370078740157,
                    "duration": 0.5129714843750008
                },
                {
                    "name": "C4",
                    "midi": 60,
                    "time": 51.50941249999998,
                    "velocity": 0.5039370078740157,
                    "duration": 0.5129714843750008
                },
                {
                    "name": "A4",
                    "midi": 69,
                    "time": 51.50941249999998,
                    "velocity": 0.5039370078740157,
                    "duration": 0.5129714843750008
                },
                {
                    "name": "E4",
                    "midi": 64,
                    "time": 51.50941249999998,
                    "velocity": 0.5039370078740157,
                    "duration": 0.5129714843750008
                },
                {
                    "name": "E4",
                    "midi": 64,
                    "time": 52.07544999999998,
                    "velocity": 0.5039370078740157,
                    "duration": 1.0731127604166701
                },
                {
                    "name": "B4",
                    "midi": 71,
                    "time": 52.07544999999998,
                    "velocity": 0.5039370078740157,
                    "duration": 2.0577821614583343
                },
                {
                    "name": "A4",
                    "midi": 69,
                    "time": 52.07544999999998,
                    "velocity": 0.5039370078740157,
                    "duration": 1.0731127604166701
                },
                {
                    "name": "G#4",
                    "midi": 68,
                    "time": 53.20752499999998,
                    "velocity": 0.5039370078740157,
                    "duration": 1.0259429687500017
                },
                {
                    "name": "A4",
                    "midi": 69,
                    "time": 54.90563749999998,
                    "velocity": 0.5039370078740157,
                    "duration": 0.27122630208333476
                },
                {
                    "name": "B4",
                    "midi": 71,
                    "time": 55.18865624999999,
                    "velocity": 0.5039370078740157,
                    "duration": 0.25943385416666587
                },
                {
                    "name": "C5",
                    "midi": 72,
                    "time": 55.47167499999998,
                    "velocity": 0.5039370078740157,
                    "duration": 0.27122630208333476
                },
                {
                    "name": "B4",
                    "midi": 71,
                    "time": 55.75469374999999,
                    "velocity": 0.5039370078740157,
                    "duration": 0.25943385416666587
                },
                {
                    "name": "A4",
                    "midi": 69,
                    "time": 56.037712499999984,
                    "velocity": 0.5039370078740157,
                    "duration": 0.27122630208333476
                },
                {
                    "name": "G4",
                    "midi": 67,
                    "time": 56.32073124999999,
                    "velocity": 0.5039370078740157,
                    "duration": 0.25943385416666587
                },
                {
                    "name": "F4",
                    "midi": 65,
                    "time": 56.603749999999984,
                    "velocity": 0.5039370078740157,
                    "duration": 0.5424526041666695
                },
                {
                    "name": "E4",
                    "midi": 64,
                    "time": 57.169787499999984,
                    "velocity": 0.5039370078740157,
                    "duration": 0.27122630208333476
                },
                {
                    "name": "F4",
                    "midi": 65,
                    "time": 57.45280624999999,
                    "velocity": 0.5039370078740157,
                    "duration": 0.25943385416666587
                },
                {
                    "name": "D4",
                    "midi": 62,
                    "time": 57.735824999999984,
                    "velocity": 0.5039370078740157,
                    "duration": 0.27122630208333476
                },
                {
                    "name": "G4",
                    "midi": 67,
                    "time": 58.01884374999999,
                    "velocity": 0.5039370078740157,
                    "duration": 0.25943385416666587
                },
                {
                    "name": "F4",
                    "midi": 65,
                    "time": 58.301862499999984,
                    "velocity": 0.5039370078740157,
                    "duration": 0.27122630208333476
                },
                {
                    "name": "G4",
                    "midi": 67,
                    "time": 58.58488124999999,
                    "velocity": 0.5039370078740157,
                    "duration": 0.25943385416666587
                },
                {
                    "name": "E4",
                    "midi": 64,
                    "time": 58.867899999999985,
                    "velocity": 0.5039370078740157,
                    "duration": 2.2169802083333323
                },
                {
                    "name": "C5",
                    "midi": 72,
                    "time": 59.999974999999985,
                    "velocity": 0.5039370078740157,
                    "duration": 2.2169802083333323
                },
                {
                    "name": "D4",
                    "midi": 62,
                    "time": 61.132049999999985,
                    "velocity": 0.5039370078740157,
                    "duration": 2.2169802083333323
                },
                {
                    "name": "B4",
                    "midi": 71,
                    "time": 62.264124999999986,
                    "velocity": 0.5039370078740157,
                    "duration": 1.1084901041666626
                },
                {
                    "name": "C5",
                    "midi": 72,
                    "time": 63.39619999999998,
                    "velocity": 0.5039370078740157,
                    "duration": 0.5424526041666695
                },
                {
                    "name": "E5",
                    "midi": 76,
                    "time": 63.96223749999998,
                    "velocity": 0.5039370078740157,
                    "duration": 0.27122630208332765
                },
                {
                    "name": "F5",
                    "midi": 77,
                    "time": 64.24525624999997,
                    "velocity": 0.5039370078740157,
                    "duration": 0.259433854166673
                },
                {
                    "name": "G5",
                    "midi": 79,
                    "time": 64.52827499999998,
                    "velocity": 0.5039370078740157,
                    "duration": 0.27122630208333476
                },
                {
                    "name": "F5",
                    "midi": 77,
                    "time": 64.81129374999998,
                    "velocity": 0.5039370078740157,
                    "duration": 0.259433854166673
                },
                {
                    "name": "E5",
                    "midi": 76,
                    "time": 65.09431249999999,
                    "velocity": 0.5039370078740157,
                    "duration": 0.27122630208333476
                },
                {
                    "name": "D5",
                    "midi": 74,
                    "time": 65.37733124999998,
                    "velocity": 0.5039370078740157,
                    "duration": 0.259433854166673
                },
                {
                    "name": "C5",
                    "midi": 72,
                    "time": 65.66035,
                    "velocity": 0.5039370078740157,
                    "duration": 0.5424526041666695
                },
                {
                    "name": "B4",
                    "midi": 71,
                    "time": 66.2263875,
                    "velocity": 0.5039370078740157,
                    "duration": 0.27122630208333476
                },
                {
                    "name": "C5",
                    "midi": 72,
                    "time": 66.50940625,
                    "velocity": 0.5039370078740157,
                    "duration": 0.259433854166673
                },
                {
                    "name": "A4",
                    "midi": 69,
                    "time": 66.79242500000001,
                    "velocity": 0.5039370078740157,
                    "duration": 0.27122630208333476
                },
                {
                    "name": "D5",
                    "midi": 74,
                    "time": 67.07544375,
                    "velocity": 0.5039370078740157,
                    "duration": 0.259433854166673
                },
                {
                    "name": "C5",
                    "midi": 72,
                    "time": 67.35846250000002,
                    "velocity": 0.5039370078740157,
                    "duration": 0.27122630208333476
                },
                {
                    "name": "D5",
                    "midi": 74,
                    "time": 67.64148125000001,
                    "velocity": 0.5039370078740157,
                    "duration": 0.259433854166673
                },
                {
                    "name": "B4",
                    "midi": 71,
                    "time": 67.92450000000002,
                    "velocity": 0.5039370078740157,
                    "duration": 0.5424526041666695
                },
                {
                    "name": "E5",
                    "midi": 76,
                    "time": 68.49053750000003,
                    "velocity": 0.5039370078740157,
                    "duration": 0.27122630208333476
                },
                {
                    "name": "C5",
                    "midi": 72,
                    "time": 68.49053750000003,
                    "velocity": 0.5039370078740157,
                    "duration": 0.27122630208333476
                },
                {
                    "name": "D5",
                    "midi": 74,
                    "time": 68.77355625000003,
                    "velocity": 0.5039370078740157,
                    "duration": 0.259433854166673
                },
                {
                    "name": "F5",
                    "midi": 77,
                    "time": 68.77355625000003,
                    "velocity": 0.5039370078740157,
                    "duration": 0.259433854166673
                },
                {
                    "name": "G5",
                    "midi": 79,
                    "time": 69.05657500000004,
                    "velocity": 0.5039370078740157,
                    "duration": 0.27122630208333476
                },
                {
                    "name": "E5",
                    "midi": 76,
                    "time": 69.05657500000004,
                    "velocity": 0.5039370078740157,
                    "duration": 0.27122630208333476
                },
                {
                    "name": "D5",
                    "midi": 74,
                    "time": 69.33959375000003,
                    "velocity": 0.5039370078740157,
                    "duration": 0.259433854166673
                },
                {
                    "name": "F5",
                    "midi": 77,
                    "time": 69.33959375000003,
                    "velocity": 0.5039370078740157,
                    "duration": 0.259433854166673
                },
                {
                    "name": "C5",
                    "midi": 72,
                    "time": 69.62261250000005,
                    "velocity": 0.5039370078740157,
                    "duration": 0.27122630208333476
                },
                {
                    "name": "E5",
                    "midi": 76,
                    "time": 69.62261250000005,
                    "velocity": 0.5039370078740157,
                    "duration": 0.27122630208333476
                },
                {
                    "name": "D5",
                    "midi": 74,
                    "time": 69.90563125000004,
                    "velocity": 0.5039370078740157,
                    "duration": 0.259433854166673
                },
                {
                    "name": "B4",
                    "midi": 71,
                    "time": 69.90563125000004,
                    "velocity": 0.5039370078740157,
                    "duration": 0.259433854166673
                },
                {
                    "name": "A4",
                    "midi": 69,
                    "time": 70.18865000000005,
                    "velocity": 0.5039370078740157,
                    "duration": 0.5424526041666695
                },
                {
                    "name": "C5",
                    "midi": 72,
                    "time": 70.18865000000005,
                    "velocity": 0.5039370078740157,
                    "duration": 0.5424526041666695
                },
                {
                    "name": "D5",
                    "midi": 74,
                    "time": 70.75468750000006,
                    "velocity": 0.5039370078740157,
                    "duration": 0.27122630208333476
                },
                {
                    "name": "B4",
                    "midi": 71,
                    "time": 70.75468750000006,
                    "velocity": 0.5039370078740157,
                    "duration": 0.27122630208333476
                },
                {
                    "name": "E5",
                    "midi": 76,
                    "time": 71.03770625000006,
                    "velocity": 0.5039370078740157,
                    "duration": 0.259433854166673
                },
                {
                    "name": "C5",
                    "midi": 72,
                    "time": 71.03770625000006,
                    "velocity": 0.5039370078740157,
                    "duration": 0.259433854166673
                },
                {
                    "name": "D5",
                    "midi": 74,
                    "time": 71.32072500000007,
                    "velocity": 0.5039370078740157,
                    "duration": 0.27122630208333476
                },
                {
                    "name": "F5",
                    "midi": 77,
                    "time": 71.32072500000007,
                    "velocity": 0.5039370078740157,
                    "duration": 0.27122630208333476
                },
                {
                    "name": "C5",
                    "midi": 72,
                    "time": 71.60374375000006,
                    "velocity": 0.5039370078740157,
                    "duration": 0.259433854166673
                },
                {
                    "name": "E5",
                    "midi": 76,
                    "time": 71.60374375000006,
                    "velocity": 0.5039370078740157,
                    "duration": 0.259433854166673
                },
                {
                    "name": "D5",
                    "midi": 74,
                    "time": 71.88676250000007,
                    "velocity": 0.5039370078740157,
                    "duration": 0.27122630208333476
                },
                {
                    "name": "B4",
                    "midi": 71,
                    "time": 71.88676250000007,
                    "velocity": 0.5039370078740157,
                    "duration": 0.27122630208333476
                },
                {
                    "name": "C5",
                    "midi": 72,
                    "time": 72.16978125000007,
                    "velocity": 0.5039370078740157,
                    "duration": 0.259433854166673
                },
                {
                    "name": "A4",
                    "midi": 69,
                    "time": 72.16978125000007,
                    "velocity": 0.5039370078740157,
                    "duration": 0.259433854166673
                },
                {
                    "name": "B4",
                    "midi": 71,
                    "time": 72.45280000000008,
                    "velocity": 0.5039370078740157,
                    "duration": 2.169810416666664
                },
                {
                    "name": "A4",
                    "midi": 69,
                    "time": 72.45280000000008,
                    "velocity": 0.5039370078740157,
                    "duration": 1.084905208333339
                },
                {
                    "name": "G4",
                    "midi": 67,
                    "time": 73.58487500000008,
                    "velocity": 0.5039370078740157,
                    "duration": 2.169810416666664
                },
                {
                    "name": "A4",
                    "midi": 69,
                    "time": 74.71695000000008,
                    "velocity": 0.5039370078740157,
                    "duration": 2.169810416666664
                },
                {
                    "name": "F4",
                    "midi": 65,
                    "time": 75.84902500000008,
                    "velocity": 0.5039370078740157,
                    "duration": 1.0849052083333248
                },
                {
                    "name": "G4",
                    "midi": 67,
                    "time": 76.98110000000007,
                    "velocity": 0.5039370078740157,
                    "duration": 2.169810416666664
                },
                {
                    "name": "F4",
                    "midi": 65,
                    "time": 76.98110000000007,
                    "velocity": 0.5039370078740157,
                    "duration": 1.084905208333339
                },
                {
                    "name": "E4",
                    "midi": 64,
                    "time": 78.11317500000007,
                    "velocity": 0.5039370078740157,
                    "duration": 2.169810416666664
                },
                {
                    "name": "A4",
                    "midi": 69,
                    "time": 79.24525000000007,
                    "velocity": 0.5039370078740157,
                    "duration": 2.169810416666664
                },
                {
                    "name": "D4",
                    "midi": 62,
                    "time": 80.37732500000007,
                    "velocity": 0.5039370078740157,
                    "duration": 2.216980208333325
                },
                {
                    "name": "F4",
                    "midi": 65,
                    "time": 80.37732500000007,
                    "velocity": 0.5039370078740157,
                    "duration": 1.0849052083333248
                },
                {
                    "name": "B4",
                    "midi": 71,
                    "time": 81.50940000000006,
                    "velocity": 0.5039370078740157,
                    "duration": 1.084905208333339
                },
                {
                    "name": "G4",
                    "midi": 67,
                    "time": 81.50940000000006,
                    "velocity": 0.5039370078740157,
                    "duration": 1.084905208333339
                },
                {
                    "name": "C5",
                    "midi": 72,
                    "time": 82.64147500000006,
                    "velocity": 0.5039370078740157,
                    "duration": 2.169810416666664
                },
                {
                    "name": "G4",
                    "midi": 67,
                    "time": 82.64147500000006,
                    "velocity": 0.5039370078740157,
                    "duration": 3.3018854166666642
                },
                {
                    "name": "E4",
                    "midi": 64,
                    "time": 82.64147500000006,
                    "velocity": 0.5039370078740157,
                    "duration": 1.084905208333339
                },
                {
                    "name": "D4",
                    "midi": 62,
                    "time": 83.77355000000006,
                    "velocity": 0.5039370078740157,
                    "duration": 2.169810416666664
                },
                {
                    "name": "A#4",
                    "midi": 70,
                    "time": 84.90562500000006,
                    "velocity": 0.5039370078740157,
                    "duration": 1.0849052083333248
                },
                {
                    "name": "A#4",
                    "midi": 70,
                    "time": 86.03770000000004,
                    "velocity": 0.5039370078740157,
                    "duration": 0.5365563802083386
                },
                {
                    "name": "A4",
                    "midi": 69,
                    "time": 86.60373750000005,
                    "velocity": 0.5039370078740157,
                    "duration": 0.26533007812500387
                },
                {
                    "name": "A#4",
                    "midi": 70,
                    "time": 86.88675625000006,
                    "velocity": 0.5039370078740157,
                    "duration": 0.259433854166673
                },
                {
                    "name": "C5",
                    "midi": 72,
                    "time": 87.16977500000007,
                    "velocity": 0.5039370078740157,
                    "duration": 0.26533007812500387
                },
                {
                    "name": "A#4",
                    "midi": 70,
                    "time": 87.45279375000008,
                    "velocity": 0.5039370078740157,
                    "duration": 0.259433854166673
                },
                {
                    "name": "A4",
                    "midi": 69,
                    "time": 87.7358125000001,
                    "velocity": 0.5039370078740157,
                    "duration": 0.26533007812500387
                },
                {
                    "name": "G4",
                    "midi": 67,
                    "time": 88.0188312500001,
                    "velocity": 0.5039370078740157,
                    "duration": 0.259433854166673
                },
                {
                    "name": "A4",
                    "midi": 69,
                    "time": 88.30185000000012,
                    "velocity": 0.5039370078740157,
                    "duration": 0.13561315104166738
                },
                {
                    "name": "G4",
                    "midi": 67,
                    "time": 88.44335937500011,
                    "velocity": 0.5039370078740157,
                    "duration": 0.13561315104166738
                },
                {
                    "name": "F4",
                    "midi": 65,
                    "time": 88.58486875000011,
                    "velocity": 0.5039370078740157,
                    "duration": 0.13561315104166738
                },
                {
                    "name": "E4",
                    "midi": 64,
                    "time": 88.72637812500011,
                    "velocity": 0.5039370078740157,
                    "duration": 0.1238207031250056
                },
                {
                    "name": "F4",
                    "midi": 65,
                    "time": 88.86788750000012,
                    "velocity": 0.5039370078740157,
                    "duration": 0.13561315104166738
                },
                {
                    "name": "E4",
                    "midi": 64,
                    "time": 89.00939687500012,
                    "velocity": 0.5039370078740157,
                    "duration": 0.13561315104166738
                },
                {
                    "name": "D4",
                    "midi": 62,
                    "time": 89.15090625000012,
                    "velocity": 0.5039370078740157,
                    "duration": 0.13561315104166738
                },
                {
                    "name": "C4",
                    "midi": 60,
                    "time": 89.29241562500012,
                    "velocity": 0.5039370078740157,
                    "duration": 0.1238207031250056
                },
                {
                    "name": "A#3",
                    "midi": 58,
                    "time": 89.43392500000013,
                    "velocity": 0.5039370078740157,
                    "duration": 0.26533007812500387
                },
                {
                    "name": "A3",
                    "midi": 57,
                    "time": 89.71694375000014,
                    "velocity": 0.5039370078740157,
                    "duration": 0.259433854166673
                },
                {
                    "name": "A#3",
                    "midi": 58,
                    "time": 89.99996250000015,
                    "velocity": 0.5039370078740157,
                    "duration": 0.5129714843750008
                },
                {
                    "name": "A3",
                    "midi": 57,
                    "time": 90.56600000000016,
                    "velocity": 0.5039370078740157,
                    "duration": 3.225234505208334
                },
                {
                    "name": "F4",
                    "midi": 65,
                    "time": 90.56600000000016,
                    "velocity": 0.5039370078740157,
                    "duration": 3.225234505208334
                },
                {
                    "name": "C4",
                    "midi": 60,
                    "time": 90.56600000000016,
                    "velocity": 0.5039370078740157,
                    "duration": 3.225234505208334
                },
                {
                    "name": "A4",
                    "midi": 69,
                    "time": 93.96222500000016,
                    "velocity": 0.5039370078740157,
                    "duration": 0.8136789062500043
                },
                {
                    "name": "A#4",
                    "midi": 70,
                    "time": 94.81128125000016,
                    "velocity": 0.5039370078740157,
                    "duration": 0.259433854166673
                },
                {
                    "name": "A4",
                    "midi": 69,
                    "time": 95.09430000000017,
                    "velocity": 0.5039370078740157,
                    "duration": 0.27122630208333476
                },
                {
                    "name": "G4",
                    "midi": 67,
                    "time": 95.37731875000017,
                    "velocity": 0.5039370078740157,
                    "duration": 0.7724053385416596
                },
                {
                    "name": "A4",
                    "midi": 69,
                    "time": 96.22637500000016,
                    "velocity": 0.5039370078740157,
                    "duration": 0.27122630208333476
                },
                {
                    "name": "F4",
                    "midi": 65,
                    "time": 96.50939375000016,
                    "velocity": 0.5039370078740157,
                    "duration": 0.259433854166673
                },
                {
                    "name": "E4",
                    "midi": 64,
                    "time": 96.79241250000017,
                    "velocity": 0.5039370078740157,
                    "duration": 0.27122630208333476
                },
                {
                    "name": "F4",
                    "midi": 65,
                    "time": 97.07543125000016,
                    "velocity": 0.5039370078740157,
                    "duration": 0.259433854166673
                },
                {
                    "name": "C4",
                    "midi": 60,
                    "time": 97.35845000000018,
                    "velocity": 0.5039370078740157,
                    "duration": 2.2641500000000008
                },
                {
                    "name": "E4",
                    "midi": 64,
                    "time": 97.35845000000018,
                    "velocity": 0.5039370078740157,
                    "duration": 2.2641500000000008
                },
                {
                    "name": "G4",
                    "midi": 67,
                    "time": 97.35845000000018,
                    "velocity": 0.5039370078740157,
                    "duration": 2.2641500000000008
                }
            ],
            "controlChanges": {
                "7": [
                    {
                        "number": 7,
                        "time": 0,
                        "value": 1
                    },
                    {
                        "number": 7,
                        "time": 54.33959999999998,
                        "value": 1
                    }
                ],
                "10": [
                    {
                        "number": 10,
                        "time": 0,
                        "value": 0.31496062992125984
                    }
                ],
                "91": [
                    {
                        "number": 91,
                        "time": 0,
                        "value": 0.15748031496062992
                    }
                ],
                "121": [
                    {
                        "number": 121,
                        "time": 0,
                        "value": 0
                    },
                    {
                        "number": 121,
                        "time": 98.49052500000018,
                        "value": 0
                    }
                ]
            },
            "id": 1,
            "name": "organ RH  ",
            "instrumentNumber": 19,
            "instrument": "church organ",
            "instrumentFamily": "organ",
            "channelNumber": 0,
            "isPercussion": false
        },
        {
            "startTime": 0,
            "duration": 99.62260000000016,
            "length": 156,
            "notes": [
                {
                    "name": "C4",
                    "midi": 60,
                    "time": 0,
                    "velocity": 0.5039370078740157,
                    "duration": 1.09669765625
                },
                {
                    "name": "C4",
                    "midi": 60,
                    "time": 1.132075,
                    "velocity": 0.5039370078740157,
                    "duration": 0.1356131510416667
                },
                {
                    "name": "B3",
                    "midi": 59,
                    "time": 1.273584375,
                    "velocity": 0.5039370078740157,
                    "duration": 0.12382070312500004
                },
                {
                    "name": "C4",
                    "midi": 60,
                    "time": 1.41509375,
                    "velocity": 0.5039370078740157,
                    "duration": 0.1356131510416667
                },
                {
                    "name": "B3",
                    "midi": 59,
                    "time": 1.556603125,
                    "velocity": 0.5039370078740157,
                    "duration": 0.12382070312500004
                },
                {
                    "name": "G3",
                    "midi": 55,
                    "time": 1.6981125000000001,
                    "velocity": 0.5039370078740157,
                    "duration": 0.512971484375
                },
                {
                    "name": "D4",
                    "midi": 62,
                    "time": 2.26415,
                    "velocity": 0.5039370078740157,
                    "duration": 1.645046484375
                },
                {
                    "name": "B3",
                    "midi": 59,
                    "time": 3.9622624999999996,
                    "velocity": 0.5039370078740157,
                    "duration": 0.512971484375
                },
                {
                    "name": "B3",
                    "midi": 59,
                    "time": 4.5283,
                    "velocity": 0.5039370078740157,
                    "duration": 0.5424526041666669
                },
                {
                    "name": "G3",
                    "midi": 55,
                    "time": 5.0943375,
                    "velocity": 0.5039370078740157,
                    "duration": 0.512971484375
                },
                {
                    "name": "C4",
                    "midi": 60,
                    "time": 5.660375,
                    "velocity": 0.5039370078740157,
                    "duration": 0.5424526041666669
                },
                {
                    "name": "E3",
                    "midi": 52,
                    "time": 6.2264125,
                    "velocity": 0.5039370078740157,
                    "duration": 0.512971484375
                },
                {
                    "name": "D3",
                    "midi": 50,
                    "time": 6.7924500000000005,
                    "velocity": 0.5039370078740157,
                    "duration": 3.36084765625
                },
                {
                    "name": "E3",
                    "midi": 52,
                    "time": 9.0566,
                    "velocity": 0.5039370078740157,
                    "duration": 2.1698104166666674
                },
                {
                    "name": "C3",
                    "midi": 48,
                    "time": 10.188675,
                    "velocity": 0.5039370078740157,
                    "duration": 2.1933953125
                },
                {
                    "name": "D3",
                    "midi": 50,
                    "time": 11.32075,
                    "velocity": 0.5039370078740157,
                    "duration": 2.1698104166666656
                },
                {
                    "name": "B2",
                    "midi": 47,
                    "time": 12.452824999999999,
                    "velocity": 0.5039370078740157,
                    "duration": 1.02594296875
                },
                {
                    "name": "C3",
                    "midi": 48,
                    "time": 13.5849,
                    "velocity": 0.5039370078740157,
                    "duration": 1.096697656249999
                },
                {
                    "name": "F3",
                    "midi": 53,
                    "time": 14.716974999999998,
                    "velocity": 0.5039370078740157,
                    "duration": 2.1698104166666674
                },
                {
                    "name": "A2",
                    "midi": 45,
                    "time": 14.716974999999998,
                    "velocity": 0.5039370078740157,
                    "duration": 1.02594296875
                },
                {
                    "name": "G2",
                    "midi": 43,
                    "time": 15.849049999999998,
                    "velocity": 0.5039370078740157,
                    "duration": 2.193395312500005
                },
                {
                    "name": "F3",
                    "midi": 53,
                    "time": 16.981125,
                    "velocity": 0.5039370078740157,
                    "duration": 0.13561315104166738
                },
                {
                    "name": "E3",
                    "midi": 52,
                    "time": 17.122634375,
                    "velocity": 0.5039370078740157,
                    "duration": 0.13561315104166738
                },
                {
                    "name": "F3",
                    "midi": 53,
                    "time": 17.264143750000002,
                    "velocity": 0.5039370078740157,
                    "duration": 0.13561315104166738
                },
                {
                    "name": "E3",
                    "midi": 52,
                    "time": 17.405653125000004,
                    "velocity": 0.5039370078740157,
                    "duration": 0.12382070312499849
                },
                {
                    "name": "C3",
                    "midi": 48,
                    "time": 17.547162500000002,
                    "velocity": 0.5039370078740157,
                    "duration": 0.5129714843750008
                },
                {
                    "name": "G3",
                    "midi": 55,
                    "time": 18.113200000000003,
                    "velocity": 0.5039370078740157,
                    "duration": 1.609669140624998
                },
                {
                    "name": "F3",
                    "midi": 53,
                    "time": 19.8113125,
                    "velocity": 0.5039370078740157,
                    "duration": 0.5129714843750008
                },
                {
                    "name": "E3",
                    "midi": 52,
                    "time": 20.37735,
                    "velocity": 0.5039370078740157,
                    "duration": 0.5365563802083315
                },
                {
                    "name": "C3",
                    "midi": 48,
                    "time": 20.943387499999996,
                    "velocity": 0.5039370078740157,
                    "duration": 0.5129714843750008
                },
                {
                    "name": "F3",
                    "midi": 53,
                    "time": 21.509424999999997,
                    "velocity": 0.5039370078740157,
                    "duration": 0.5365563802083351
                },
                {
                    "name": "A2",
                    "midi": 45,
                    "time": 22.075462499999997,
                    "velocity": 0.5039370078740157,
                    "duration": 0.5129714843750008
                },
                {
                    "name": "G2",
                    "midi": 43,
                    "time": 22.641499999999997,
                    "velocity": 0.5039370078740157,
                    "duration": 1.0731127604166666
                },
                {
                    "name": "G3",
                    "midi": 55,
                    "time": 23.773574999999997,
                    "velocity": 0.5039370078740157,
                    "duration": 1.0259429687499981
                },
                {
                    "name": "G3",
                    "midi": 55,
                    "time": 24.905649999999994,
                    "velocity": 0.5039370078740157,
                    "duration": 1.0731127604166666
                },
                {
                    "name": "F#3",
                    "midi": 54,
                    "time": 26.037724999999995,
                    "velocity": 0.5039370078740157,
                    "duration": 1.0259429687500017
                },
                {
                    "name": "G3",
                    "midi": 55,
                    "time": 27.169799999999995,
                    "velocity": 0.5039370078740157,
                    "duration": 1.0731127604166666
                },
                {
                    "name": "E3",
                    "midi": 52,
                    "time": 28.301874999999995,
                    "velocity": 0.5039370078740157,
                    "duration": 1.0259429687500017
                },
                {
                    "name": "C4",
                    "midi": 60,
                    "time": 29.433949999999996,
                    "velocity": 0.5039370078740157,
                    "duration": 1.0731127604166666
                },
                {
                    "name": "F3",
                    "midi": 53,
                    "time": 29.433949999999996,
                    "velocity": 0.5039370078740157,
                    "duration": 1.0731127604166666
                },
                {
                    "name": "G3",
                    "midi": 55,
                    "time": 30.566024999999996,
                    "velocity": 0.5039370078740157,
                    "duration": 1.0259429687500017
                },
                {
                    "name": "A#3",
                    "midi": 58,
                    "time": 30.566024999999996,
                    "velocity": 0.5039370078740157,
                    "duration": 1.0259429687500017
                },
                {
                    "name": "C#4",
                    "midi": 61,
                    "time": 31.698099999999997,
                    "velocity": 0.5039370078740157,
                    "duration": 1.073112760416663
                },
                {
                    "name": "A3",
                    "midi": 57,
                    "time": 31.698099999999997,
                    "velocity": 0.5039370078740157,
                    "duration": 1.073112760416663
                },
                {
                    "name": "D4",
                    "midi": 62,
                    "time": 32.83017499999999,
                    "velocity": 0.5039370078740157,
                    "duration": 1.0259429687500017
                },
                {
                    "name": "A#3",
                    "midi": 58,
                    "time": 32.83017499999999,
                    "velocity": 0.5039370078740157,
                    "duration": 1.0259429687500017
                },
                {
                    "name": "A3",
                    "midi": 57,
                    "time": 33.96224999999999,
                    "velocity": 0.5039370078740157,
                    "duration": 1.0731127604166701
                },
                {
                    "name": "C#4",
                    "midi": 61,
                    "time": 33.96224999999999,
                    "velocity": 0.5039370078740157,
                    "duration": 1.0731127604166701
                },
                {
                    "name": "E4",
                    "midi": 64,
                    "time": 33.96224999999999,
                    "velocity": 0.5039370078740157,
                    "duration": 1.0731127604166701
                },
                {
                    "name": "D4",
                    "midi": 62,
                    "time": 35.09432499999999,
                    "velocity": 0.5039370078740157,
                    "duration": 1.0259429687500017
                },
                {
                    "name": "D3",
                    "midi": 50,
                    "time": 35.09432499999999,
                    "velocity": 0.5039370078740157,
                    "duration": 2.2051877604166705
                },
                {
                    "name": "A3",
                    "midi": 57,
                    "time": 35.09432499999999,
                    "velocity": 0.5039370078740157,
                    "duration": 4.469337760416671
                },
                {
                    "name": "E3",
                    "midi": 52,
                    "time": 36.22639999999999,
                    "velocity": 0.5039370078740157,
                    "duration": 2.0577821614583343
                },
                {
                    "name": "C#3",
                    "midi": 49,
                    "time": 37.35847499999999,
                    "velocity": 0.5039370078740157,
                    "duration": 1.0259429687500017
                },
                {
                    "name": "D3",
                    "midi": 50,
                    "time": 38.49054999999999,
                    "velocity": 0.5039370078740157,
                    "duration": 1.0731127604166701
                },
                {
                    "name": "G3",
                    "midi": 55,
                    "time": 39.62262499999999,
                    "velocity": 0.5039370078740157,
                    "duration": 1.0259429687500017
                },
                {
                    "name": "E3",
                    "midi": 52,
                    "time": 39.62262499999999,
                    "velocity": 0.5039370078740157,
                    "duration": 1.0259429687500017
                },
                {
                    "name": "F#3",
                    "midi": 54,
                    "time": 40.75469999999999,
                    "velocity": 0.5039370078740157,
                    "duration": 1.0259429687500017
                },
                {
                    "name": "G3",
                    "midi": 55,
                    "time": 41.88677499999999,
                    "velocity": 0.5039370078740157,
                    "duration": 2.0577821614583343
                },
                {
                    "name": "F#3",
                    "midi": 54,
                    "time": 44.150924999999994,
                    "velocity": 0.5039370078740157,
                    "duration": 0.13561315104166738
                },
                {
                    "name": "F3",
                    "midi": 53,
                    "time": 44.29243437499999,
                    "velocity": 0.5039370078740157,
                    "duration": 0.13561315104166738
                },
                {
                    "name": "F#3",
                    "midi": 54,
                    "time": 44.43394374999999,
                    "velocity": 0.5039370078740157,
                    "duration": 0.13561315104166738
                },
                {
                    "name": "F3",
                    "midi": 53,
                    "time": 44.57545312499999,
                    "velocity": 0.5039370078740157,
                    "duration": 0.12382070312499849
                },
                {
                    "name": "D3",
                    "midi": 50,
                    "time": 44.71696249999999,
                    "velocity": 0.5039370078740157,
                    "duration": 0.5129714843750008
                },
                {
                    "name": "A3",
                    "midi": 57,
                    "time": 45.28299999999999,
                    "velocity": 0.5039370078740157,
                    "duration": 1.6096691406250017
                },
                {
                    "name": "G3",
                    "midi": 55,
                    "time": 46.98111249999999,
                    "velocity": 0.5039370078740157,
                    "duration": 0.5129714843750008
                },
                {
                    "name": "F#3",
                    "midi": 54,
                    "time": 47.54714999999999,
                    "velocity": 0.5039370078740157,
                    "duration": 0.5365563802083315
                },
                {
                    "name": "D3",
                    "midi": 50,
                    "time": 48.11318749999999,
                    "velocity": 0.5039370078740157,
                    "duration": 0.5129714843750008
                },
                {
                    "name": "G3",
                    "midi": 55,
                    "time": 48.67922499999999,
                    "velocity": 0.5039370078740157,
                    "duration": 0.5365563802083315
                },
                {
                    "name": "F2",
                    "midi": 41,
                    "time": 49.24526249999999,
                    "velocity": 0.5039370078740157,
                    "duration": 0.5129714843750008
                },
                {
                    "name": "E2",
                    "midi": 40,
                    "time": 49.81129999999999,
                    "velocity": 0.5039370078740157,
                    "duration": 0.5365563802083315
                },
                {
                    "name": "E3",
                    "midi": 52,
                    "time": 50.37733749999999,
                    "velocity": 0.5039370078740157,
                    "duration": 0.5129714843750008
                },
                {
                    "name": "C3",
                    "midi": 48,
                    "time": 50.94337499999999,
                    "velocity": 0.5039370078740157,
                    "duration": 0.5365563802083315
                },
                {
                    "name": "A2",
                    "midi": 45,
                    "time": 51.50941249999999,
                    "velocity": 0.5039370078740157,
                    "duration": 0.5129714843750008
                },
                {
                    "name": "E3",
                    "midi": 52,
                    "time": 52.07544999999999,
                    "velocity": 0.5039370078740157,
                    "duration": 1.0731127604166701
                },
                {
                    "name": "B3",
                    "midi": 59,
                    "time": 52.64148749999999,
                    "velocity": 0.5039370078740157,
                    "duration": 0.5129714843750008
                },
                {
                    "name": "E4",
                    "midi": 64,
                    "time": 53.20752499999999,
                    "velocity": 0.5039370078740157,
                    "duration": 0.5365563802083315
                },
                {
                    "name": "D4",
                    "midi": 62,
                    "time": 53.77356249999999,
                    "velocity": 0.5039370078740157,
                    "duration": 0.5129714843750008
                },
                {
                    "name": "C4",
                    "midi": 60,
                    "time": 54.33959999999999,
                    "velocity": 0.5039370078740157,
                    "duration": 1.073112760416663
                },
                {
                    "name": "A3",
                    "midi": 57,
                    "time": 55.47167499999998,
                    "velocity": 0.5039370078740157,
                    "duration": 1.0259429687500017
                },
                {
                    "name": "D4",
                    "midi": 62,
                    "time": 56.603749999999984,
                    "velocity": 0.5039370078740157,
                    "duration": 0.5365563802083315
                },
                {
                    "name": "C4",
                    "midi": 60,
                    "time": 57.169787499999984,
                    "velocity": 0.5039370078740157,
                    "duration": 0.5129714843750008
                },
                {
                    "name": "B3",
                    "midi": 59,
                    "time": 57.735824999999984,
                    "velocity": 0.5039370078740157,
                    "duration": 0.5365563802083315
                },
                {
                    "name": "G3",
                    "midi": 55,
                    "time": 58.301862499999984,
                    "velocity": 0.5039370078740157,
                    "duration": 0.5129714843750008
                },
                {
                    "name": "A3",
                    "midi": 57,
                    "time": 59.433937499999985,
                    "velocity": 0.5039370078740157,
                    "duration": 0.27122630208333476
                },
                {
                    "name": "B3",
                    "midi": 59,
                    "time": 59.71695624999999,
                    "velocity": 0.5039370078740157,
                    "duration": 0.25943385416666587
                },
                {
                    "name": "C4",
                    "midi": 60,
                    "time": 59.999974999999985,
                    "velocity": 0.5039370078740157,
                    "duration": 0.27122630208333476
                },
                {
                    "name": "B3",
                    "midi": 59,
                    "time": 60.28299374999999,
                    "velocity": 0.5039370078740157,
                    "duration": 0.25943385416666587
                },
                {
                    "name": "A3",
                    "midi": 57,
                    "time": 60.566012499999985,
                    "velocity": 0.5039370078740157,
                    "duration": 0.27122630208333476
                },
                {
                    "name": "G3",
                    "midi": 55,
                    "time": 60.84903124999999,
                    "velocity": 0.5039370078740157,
                    "duration": 0.25943385416666587
                },
                {
                    "name": "F3",
                    "midi": 53,
                    "time": 61.132049999999985,
                    "velocity": 0.5039370078740157,
                    "duration": 0.5424526041666695
                },
                {
                    "name": "E3",
                    "midi": 52,
                    "time": 61.698087499999986,
                    "velocity": 0.5039370078740157,
                    "duration": 0.27122630208333476
                },
                {
                    "name": "F3",
                    "midi": 53,
                    "time": 61.98110624999999,
                    "velocity": 0.5039370078740157,
                    "duration": 0.25943385416666587
                },
                {
                    "name": "D3",
                    "midi": 50,
                    "time": 62.264124999999986,
                    "velocity": 0.5039370078740157,
                    "duration": 0.27122630208333476
                },
                {
                    "name": "G3",
                    "midi": 55,
                    "time": 62.54714374999999,
                    "velocity": 0.5039370078740157,
                    "duration": 0.25943385416666587
                },
                {
                    "name": "F3",
                    "midi": 53,
                    "time": 62.830162499999986,
                    "velocity": 0.5039370078740157,
                    "duration": 0.27122630208333476
                },
                {
                    "name": "G3",
                    "midi": 55,
                    "time": 63.11318124999999,
                    "velocity": 0.5039370078740157,
                    "duration": 0.25943385416666587
                },
                {
                    "name": "E3",
                    "midi": 52,
                    "time": 63.396199999999986,
                    "velocity": 0.5039370078740157,
                    "duration": 1.084905208333332
                },
                {
                    "name": "G3",
                    "midi": 55,
                    "time": 63.396199999999986,
                    "velocity": 0.5039370078740157,
                    "duration": 2.1698104166666567
                },
                {
                    "name": "C3",
                    "midi": 48,
                    "time": 64.52827499999998,
                    "velocity": 0.5039370078740157,
                    "duration": 1.0259429687500017
                },
                {
                    "name": "F3",
                    "midi": 53,
                    "time": 65.66034999999998,
                    "velocity": 0.5039370078740157,
                    "duration": 1.084905208333339
                },
                {
                    "name": "A3",
                    "midi": 57,
                    "time": 65.66034999999998,
                    "velocity": 0.5039370078740157,
                    "duration": 1.084905208333339
                },
                {
                    "name": "F#3",
                    "midi": 54,
                    "time": 66.79242499999998,
                    "velocity": 0.5039370078740157,
                    "duration": 1.0259429687500017
                },
                {
                    "name": "D4",
                    "midi": 62,
                    "time": 66.79242499999998,
                    "velocity": 0.5039370078740157,
                    "duration": 1.0259429687500017
                },
                {
                    "name": "G3",
                    "midi": 55,
                    "time": 67.92449999999998,
                    "velocity": 0.5039370078740157,
                    "duration": 1.084905208333339
                },
                {
                    "name": "E3",
                    "midi": 52,
                    "time": 69.05657499999998,
                    "velocity": 0.5039370078740157,
                    "duration": 1.0259429687500017
                },
                {
                    "name": "F3",
                    "midi": 53,
                    "time": 70.18864999999998,
                    "velocity": 0.5039370078740157,
                    "duration": 1.084905208333339
                },
                {
                    "name": "D3",
                    "midi": 50,
                    "time": 71.32072499999998,
                    "velocity": 0.5039370078740157,
                    "duration": 1.0259429687500017
                },
                {
                    "name": "E4",
                    "midi": 64,
                    "time": 72.45279999999998,
                    "velocity": 0.5039370078740157,
                    "duration": 0.5424526041666695
                },
                {
                    "name": "E4",
                    "midi": 64,
                    "time": 73.01883749999999,
                    "velocity": 0.5039370078740157,
                    "duration": 0.27122630208333476
                },
                {
                    "name": "F4",
                    "midi": 65,
                    "time": 73.30185624999999,
                    "velocity": 0.5039370078740157,
                    "duration": 0.259433854166673
                },
                {
                    "name": "G4",
                    "midi": 67,
                    "time": 73.584875,
                    "velocity": 0.5039370078740157,
                    "duration": 0.27122630208333476
                },
                {
                    "name": "F4",
                    "midi": 65,
                    "time": 73.86789375,
                    "velocity": 0.5039370078740157,
                    "duration": 0.259433854166673
                },
                {
                    "name": "E4",
                    "midi": 64,
                    "time": 74.1509125,
                    "velocity": 0.5039370078740157,
                    "duration": 0.27122630208333476
                },
                {
                    "name": "D4",
                    "midi": 62,
                    "time": 74.43393125,
                    "velocity": 0.5039370078740157,
                    "duration": 0.259433854166673
                },
                {
                    "name": "C#4",
                    "midi": 61,
                    "time": 74.71695000000001,
                    "velocity": 0.5039370078740157,
                    "duration": 0.5424526041666695
                },
                {
                    "name": "B3",
                    "midi": 59,
                    "time": 75.28298750000002,
                    "velocity": 0.5039370078740157,
                    "duration": 0.27122630208333476
                },
                {
                    "name": "C#4",
                    "midi": 61,
                    "time": 75.56600625000002,
                    "velocity": 0.5039370078740157,
                    "duration": 0.259433854166673
                },
                {
                    "name": "A3",
                    "midi": 57,
                    "time": 75.84902500000003,
                    "velocity": 0.5039370078740157,
                    "duration": 0.27122630208333476
                },
                {
                    "name": "D4",
                    "midi": 62,
                    "time": 76.13204375000002,
                    "velocity": 0.5039370078740157,
                    "duration": 0.259433854166673
                },
                {
                    "name": "C4",
                    "midi": 60,
                    "time": 76.41506250000003,
                    "velocity": 0.5039370078740157,
                    "duration": 0.27122630208333476
                },
                {
                    "name": "D4",
                    "midi": 62,
                    "time": 76.69808125000003,
                    "velocity": 0.5039370078740157,
                    "duration": 0.259433854166673
                },
                {
                    "name": "B3",
                    "midi": 59,
                    "time": 76.98110000000004,
                    "velocity": 0.5039370078740157,
                    "duration": 0.5424526041666695
                },
                {
                    "name": "A3",
                    "midi": 57,
                    "time": 77.54713750000005,
                    "velocity": 0.5039370078740157,
                    "duration": 0.27122630208333476
                },
                {
                    "name": "B3",
                    "midi": 59,
                    "time": 77.83015625000004,
                    "velocity": 0.5039370078740157,
                    "duration": 0.259433854166673
                },
                {
                    "name": "C4",
                    "midi": 60,
                    "time": 78.11317500000006,
                    "velocity": 0.5039370078740157,
                    "duration": 0.27122630208333476
                },
                {
                    "name": "B3",
                    "midi": 59,
                    "time": 78.39619375000005,
                    "velocity": 0.5039370078740157,
                    "duration": 0.259433854166673
                },
                {
                    "name": "A3",
                    "midi": 57,
                    "time": 78.67921250000006,
                    "velocity": 0.5039370078740157,
                    "duration": 0.27122630208333476
                },
                {
                    "name": "G3",
                    "midi": 55,
                    "time": 78.96223125000006,
                    "velocity": 0.5039370078740157,
                    "duration": 0.259433854166673
                },
                {
                    "name": "F3",
                    "midi": 53,
                    "time": 79.24525000000007,
                    "velocity": 0.5039370078740157,
                    "duration": 0.5424526041666695
                },
                {
                    "name": "E3",
                    "midi": 52,
                    "time": 79.81128750000008,
                    "velocity": 0.5039370078740157,
                    "duration": 0.27122630208333476
                },
                {
                    "name": "F3",
                    "midi": 53,
                    "time": 80.09430625000007,
                    "velocity": 0.5039370078740157,
                    "duration": 0.259433854166673
                },
                {
                    "name": "D3",
                    "midi": 50,
                    "time": 80.37732500000008,
                    "velocity": 0.5039370078740157,
                    "duration": 0.27122630208333476
                },
                {
                    "name": "E3",
                    "midi": 52,
                    "time": 80.66034375000008,
                    "velocity": 0.5039370078740157,
                    "duration": 0.259433854166673
                },
                {
                    "name": "D3",
                    "midi": 50,
                    "time": 80.94336250000009,
                    "velocity": 0.5039370078740157,
                    "duration": 0.27122630208333476
                },
                {
                    "name": "C3",
                    "midi": 48,
                    "time": 81.22638125000009,
                    "velocity": 0.5039370078740157,
                    "duration": 0.259433854166673
                },
                {
                    "name": "B2",
                    "midi": 47,
                    "time": 81.5094000000001,
                    "velocity": 0.5039370078740157,
                    "duration": 0.5365563802083386
                },
                {
                    "name": "G2",
                    "midi": 43,
                    "time": 82.0754375000001,
                    "velocity": 0.5039370078740157,
                    "duration": 0.5365563802083386
                },
                {
                    "name": "F2",
                    "midi": 41,
                    "time": 82.64147500000011,
                    "velocity": 0.5039370078740157,
                    "duration": 0.14150937499999827
                },
                {
                    "name": "E2",
                    "midi": 40,
                    "time": 82.78298437500011,
                    "velocity": 0.5039370078740157,
                    "duration": 0.14150937499999827
                },
                {
                    "name": "F2",
                    "midi": 41,
                    "time": 82.92449375000011,
                    "velocity": 0.5039370078740157,
                    "duration": 0.14150937499999827
                },
                {
                    "name": "E2",
                    "midi": 40,
                    "time": 83.06600312500011,
                    "velocity": 0.5039370078740157,
                    "duration": 0.13561315104166738
                },
                {
                    "name": "B1",
                    "midi": 35,
                    "time": 83.2075125000001,
                    "velocity": 0.5039370078740157,
                    "duration": 0.5129714843750008
                },
                {
                    "name": "G2",
                    "midi": 43,
                    "time": 83.77355000000011,
                    "velocity": 0.5039370078740157,
                    "duration": 1.6096691406250017
                },
                {
                    "name": "F2",
                    "midi": 41,
                    "time": 85.47166250000012,
                    "velocity": 0.5039370078740157,
                    "duration": 0.5129714843750008
                },
                {
                    "name": "C3",
                    "midi": 48,
                    "time": 86.03770000000013,
                    "velocity": 0.5039370078740157,
                    "duration": 4.48113020833334
                },
                {
                    "name": "E2",
                    "midi": 40,
                    "time": 86.03770000000013,
                    "velocity": 0.5039370078740157,
                    "duration": 4.48113020833334
                },
                {
                    "name": "F2",
                    "midi": 41,
                    "time": 90.56600000000013,
                    "velocity": 0.5039370078740157,
                    "duration": 0.5424526041666695
                },
                {
                    "name": "E2",
                    "midi": 40,
                    "time": 91.13203750000014,
                    "velocity": 0.5039370078740157,
                    "duration": 0.27122630208333476
                },
                {
                    "name": "F2",
                    "midi": 41,
                    "time": 91.41505625000013,
                    "velocity": 0.5039370078740157,
                    "duration": 0.259433854166673
                },
                {
                    "name": "G2",
                    "midi": 43,
                    "time": 91.69807500000014,
                    "velocity": 0.5039370078740157,
                    "duration": 0.27122630208333476
                },
                {
                    "name": "F2",
                    "midi": 41,
                    "time": 91.98109375000014,
                    "velocity": 0.5039370078740157,
                    "duration": 0.259433854166673
                },
                {
                    "name": "E2",
                    "midi": 40,
                    "time": 92.26411250000015,
                    "velocity": 0.5039370078740157,
                    "duration": 0.27122630208333476
                },
                {
                    "name": "D2",
                    "midi": 38,
                    "time": 92.54713125000015,
                    "velocity": 0.5039370078740157,
                    "duration": 0.259433854166673
                },
                {
                    "name": "C2",
                    "midi": 36,
                    "time": 92.83015000000016,
                    "velocity": 0.5039370078740157,
                    "duration": 6.792450000000002
                },
                {
                    "name": "C3",
                    "midi": 48,
                    "time": 97.35845000000016,
                    "velocity": 0.5039370078740157,
                    "duration": 2.2641500000000008
                }
            ],
            "controlChanges": {
                "7": [
                    {
                        "number": 7,
                        "time": 0,
                        "value": 1
                    },
                    {
                        "number": 7,
                        "time": 54.33959999999999,
                        "value": 1
                    }
                ],
                "10": [
                    {
                        "number": 10,
                        "time": 0,
                        "value": 0.6771653543307087
                    }
                ],
                "91": [
                    {
                        "number": 91,
                        "time": 0,
                        "value": 0.14960629921259844
                    }
                ],
                "121": [
                    {
                        "number": 121,
                        "time": 0,
                        "value": 0
                    },
                    {
                        "number": 121,
                        "time": 98.49052500000016,
                        "value": 0
                    }
                ]
            },
            "id": 2,
            "name": "organ LH  ",
            "instrumentNumber": 19,
            "instrument": "church organ",
            "instrumentFamily": "organ",
            "channelNumber": 1,
            "isPercussion": false
        },
        {
            "startTime": 0,
            "duration": 99.62260000000019,
            "length": 211,
            "notes": [
                {
                    "name": "E4",
                    "midi": 64,
                    "time": 0,
                    "velocity": 0.5039370078740157,
                    "duration": 1.0731127604166666
                },
                {
                    "name": "G4",
                    "midi": 67,
                    "time": 0,
                    "velocity": 0.5039370078740157,
                    "duration": 2.1698104166666665
                },
                {
                    "name": "D4",
                    "midi": 62,
                    "time": 1.132075,
                    "velocity": 0.5039370078740157,
                    "duration": 1.02594296875
                },
                {
                    "name": "A4",
                    "midi": 69,
                    "time": 2.26415,
                    "velocity": 0.5039370078740157,
                    "duration": 2.1698104166666665
                },
                {
                    "name": "G4",
                    "midi": 67,
                    "time": 2.26415,
                    "velocity": 0.5039370078740157,
                    "duration": 1.0731127604166666
                },
                {
                    "name": "F4",
                    "midi": 65,
                    "time": 3.396225,
                    "velocity": 0.5039370078740157,
                    "duration": 2.2051877604166665
                },
                {
                    "name": "G4",
                    "midi": 67,
                    "time": 4.5283,
                    "velocity": 0.5039370078740157,
                    "duration": 3.2547156249999993
                },
                {
                    "name": "E4",
                    "midi": 64,
                    "time": 5.660374999999999,
                    "velocity": 0.5039370078740157,
                    "duration": 1.02594296875
                },
                {
                    "name": "A#3",
                    "midi": 58,
                    "time": 6.792449999999999,
                    "velocity": 0.5039370078740157,
                    "duration": 1.0731127604166666
                },
                {
                    "name": "A3",
                    "midi": 57,
                    "time": 7.924524999999998,
                    "velocity": 0.5039370078740157,
                    "duration": 3.189857161458332
                },
                {
                    "name": "G4",
                    "midi": 67,
                    "time": 7.924524999999998,
                    "velocity": 0.5039370078740157,
                    "duration": 0.1356131510416665
                },
                {
                    "name": "F#4",
                    "midi": 66,
                    "time": 8.066034374999997,
                    "velocity": 0.5039370078740157,
                    "duration": 0.13561315104166738
                },
                {
                    "name": "G4",
                    "midi": 67,
                    "time": 8.207543749999997,
                    "velocity": 0.5039370078740157,
                    "duration": 0.13561315104166738
                },
                {
                    "name": "F#4",
                    "midi": 66,
                    "time": 8.349053124999998,
                    "velocity": 0.5039370078740157,
                    "duration": 0.12382070312500026
                },
                {
                    "name": "D4",
                    "midi": 62,
                    "time": 8.490562499999998,
                    "velocity": 0.5039370078740157,
                    "duration": 0.5129714843749991
                },
                {
                    "name": "A4",
                    "midi": 69,
                    "time": 9.056599999999996,
                    "velocity": 0.5039370078740157,
                    "duration": 1.6096691406249999
                },
                {
                    "name": "G4",
                    "midi": 67,
                    "time": 10.754712499999997,
                    "velocity": 0.5039370078740157,
                    "duration": 0.5129714843750008
                },
                {
                    "name": "A3",
                    "midi": 57,
                    "time": 11.320749999999997,
                    "velocity": 0.5039370078740157,
                    "duration": 1.02594296875
                },
                {
                    "name": "F#4",
                    "midi": 66,
                    "time": 11.320749999999997,
                    "velocity": 0.5039370078740157,
                    "duration": 0.5365563802083333
                },
                {
                    "name": "D4",
                    "midi": 62,
                    "time": 11.886787499999997,
                    "velocity": 0.5039370078740157,
                    "duration": 0.5129714843749991
                },
                {
                    "name": "G4",
                    "midi": 67,
                    "time": 12.452824999999995,
                    "velocity": 0.5039370078740157,
                    "duration": 0.5365563802083333
                },
                {
                    "name": "G3",
                    "midi": 55,
                    "time": 12.452824999999995,
                    "velocity": 0.5039370078740157,
                    "duration": 2.1580179687499985
                },
                {
                    "name": "B3",
                    "midi": 59,
                    "time": 13.018862499999996,
                    "velocity": 0.5039370078740157,
                    "duration": 0.5129714843749991
                },
                {
                    "name": "A3",
                    "midi": 57,
                    "time": 13.584899999999994,
                    "velocity": 0.5039370078740157,
                    "duration": 0.5365563802083333
                },
                {
                    "name": "E4",
                    "midi": 64,
                    "time": 14.150937499999994,
                    "velocity": 0.5039370078740157,
                    "duration": 0.5129714843749991
                },
                {
                    "name": "F4",
                    "midi": 65,
                    "time": 14.716974999999993,
                    "velocity": 0.5039370078740157,
                    "duration": 0.5365563802083333
                },
                {
                    "name": "C4",
                    "midi": 60,
                    "time": 15.283012499999993,
                    "velocity": 0.5039370078740157,
                    "duration": 0.5129714843749991
                },
                {
                    "name": "C4",
                    "midi": 60,
                    "time": 15.849049999999991,
                    "velocity": 0.5039370078740157,
                    "duration": 0.13561315104166738
                },
                {
                    "name": "B3",
                    "midi": 59,
                    "time": 15.990559374999991,
                    "velocity": 0.5039370078740157,
                    "duration": 0.1356131510416656
                },
                {
                    "name": "C4",
                    "midi": 60,
                    "time": 16.13206874999999,
                    "velocity": 0.5039370078740157,
                    "duration": 0.13561315104166738
                },
                {
                    "name": "B3",
                    "midi": 59,
                    "time": 16.273578124999993,
                    "velocity": 0.5039370078740157,
                    "duration": 0.12382070312499849
                },
                {
                    "name": "G3",
                    "midi": 55,
                    "time": 16.41508749999999,
                    "velocity": 0.5039370078740157,
                    "duration": 0.5129714843750008
                },
                {
                    "name": "E4",
                    "midi": 64,
                    "time": 16.98112499999999,
                    "velocity": 0.5039370078740157,
                    "duration": 1.0259429687500017
                },
                {
                    "name": "G4",
                    "midi": 67,
                    "time": 16.98112499999999,
                    "velocity": 0.5039370078740157,
                    "duration": 3.1898571614583346
                },
                {
                    "name": "C4",
                    "midi": 60,
                    "time": 16.98112499999999,
                    "velocity": 0.5039370078740157,
                    "duration": 1.0259429687500017
                },
                {
                    "name": "D4",
                    "midi": 62,
                    "time": 18.113199999999992,
                    "velocity": 0.5039370078740157,
                    "duration": 2.158017968750002
                },
                {
                    "name": "C4",
                    "midi": 60,
                    "time": 18.113199999999992,
                    "velocity": 0.5039370078740157,
                    "duration": 1.0259429687500017
                },
                {
                    "name": "B3",
                    "midi": 59,
                    "time": 19.245274999999992,
                    "velocity": 0.5039370078740157,
                    "duration": 1.0259429687500017
                },
                {
                    "name": "G4",
                    "midi": 67,
                    "time": 20.377349999999993,
                    "velocity": 0.5039370078740157,
                    "duration": 1.0731127604166666
                },
                {
                    "name": "C5",
                    "midi": 72,
                    "time": 20.377349999999993,
                    "velocity": 0.5039370078740157,
                    "duration": 3.3372627604166674
                },
                {
                    "name": "E4",
                    "midi": 64,
                    "time": 20.377349999999993,
                    "velocity": 0.5039370078740157,
                    "duration": 1.0731127604166666
                },
                {
                    "name": "F4",
                    "midi": 65,
                    "time": 21.509424999999993,
                    "velocity": 0.5039370078740157,
                    "duration": 1.0259429687500017
                },
                {
                    "name": "A4",
                    "midi": 69,
                    "time": 21.509424999999993,
                    "velocity": 0.5039370078740157,
                    "duration": 1.0259429687500017
                },
                {
                    "name": "E4",
                    "midi": 64,
                    "time": 22.641499999999994,
                    "velocity": 0.5039370078740157,
                    "duration": 1.0731127604166666
                },
                {
                    "name": "C5",
                    "midi": 72,
                    "time": 23.773574999999994,
                    "velocity": 0.5039370078740157,
                    "duration": 0.13561315104166738
                },
                {
                    "name": "D4",
                    "midi": 62,
                    "time": 23.773574999999994,
                    "velocity": 0.5039370078740157,
                    "duration": 4.469337760416664
                },
                {
                    "name": "B4",
                    "midi": 71,
                    "time": 23.915084374999996,
                    "velocity": 0.5039370078740157,
                    "duration": 0.13561315104166738
                },
                {
                    "name": "C5",
                    "midi": 72,
                    "time": 24.056593749999998,
                    "velocity": 0.5039370078740157,
                    "duration": 0.13561315104166738
                },
                {
                    "name": "B4",
                    "midi": 71,
                    "time": 24.198103125,
                    "velocity": 0.5039370078740157,
                    "duration": 0.12382070312499849
                },
                {
                    "name": "G4",
                    "midi": 67,
                    "time": 24.339612499999998,
                    "velocity": 0.5039370078740157,
                    "duration": 0.5129714843750008
                },
                {
                    "name": "D5",
                    "midi": 74,
                    "time": 24.905649999999998,
                    "velocity": 0.5039370078740157,
                    "duration": 1.609669140624998
                },
                {
                    "name": "C5",
                    "midi": 72,
                    "time": 26.603762499999995,
                    "velocity": 0.5039370078740157,
                    "duration": 0.5129714843750008
                },
                {
                    "name": "B4",
                    "midi": 71,
                    "time": 27.169799999999995,
                    "velocity": 0.5039370078740157,
                    "duration": 0.5365563802083315
                },
                {
                    "name": "G4",
                    "midi": 67,
                    "time": 27.73583749999999,
                    "velocity": 0.5039370078740157,
                    "duration": 0.5129714843750008
                },
                {
                    "name": "C4",
                    "midi": 60,
                    "time": 28.301874999999992,
                    "velocity": 0.5039370078740157,
                    "duration": 1.0259429687500017
                },
                {
                    "name": "C5",
                    "midi": 72,
                    "time": 28.301874999999992,
                    "velocity": 0.5039370078740157,
                    "duration": 0.5365563802083351
                },
                {
                    "name": "E4",
                    "midi": 64,
                    "time": 28.867912499999992,
                    "velocity": 0.5039370078740157,
                    "duration": 0.5129714843750008
                },
                {
                    "name": "D4",
                    "midi": 62,
                    "time": 29.433949999999992,
                    "velocity": 0.5039370078740157,
                    "duration": 1.6096691406250017
                },
                {
                    "name": "A4",
                    "midi": 69,
                    "time": 29.999987499999992,
                    "velocity": 0.5039370078740157,
                    "duration": 0.5365563802083351
                },
                {
                    "name": "A#4",
                    "midi": 70,
                    "time": 30.566024999999993,
                    "velocity": 0.5039370078740157,
                    "duration": 1.6686313802083355
                },
                {
                    "name": "E4",
                    "midi": 64,
                    "time": 31.132062499999993,
                    "velocity": 0.5039370078740157,
                    "duration": 0.5129714843750008
                },
                {
                    "name": "A4",
                    "midi": 69,
                    "time": 32.2641375,
                    "velocity": 0.5039370078740157,
                    "duration": 0.5365563802083315
                },
                {
                    "name": "G5",
                    "midi": 79,
                    "time": 32.830175,
                    "velocity": 0.5039370078740157,
                    "duration": 2.146225520833333
                },
                {
                    "name": "G5",
                    "midi": 79,
                    "time": 35.094325,
                    "velocity": 0.5039370078740157,
                    "duration": 0.13561315104166738
                },
                {
                    "name": "F#5",
                    "midi": 78,
                    "time": 35.235834374999996,
                    "velocity": 0.5039370078740157,
                    "duration": 0.13561315104166738
                },
                {
                    "name": "G5",
                    "midi": 79,
                    "time": 35.377343749999994,
                    "velocity": 0.5039370078740157,
                    "duration": 0.13561315104166738
                },
                {
                    "name": "F#5",
                    "midi": 78,
                    "time": 35.51885312499999,
                    "velocity": 0.5039370078740157,
                    "duration": 0.12382070312499849
                },
                {
                    "name": "D5",
                    "midi": 74,
                    "time": 35.66036249999999,
                    "velocity": 0.5039370078740157,
                    "duration": 0.5129714843750008
                },
                {
                    "name": "A5",
                    "midi": 81,
                    "time": 36.22639999999999,
                    "velocity": 0.5039370078740157,
                    "duration": 1.6096691406250017
                },
                {
                    "name": "G5",
                    "midi": 79,
                    "time": 37.92451249999999,
                    "velocity": 0.5039370078740157,
                    "duration": 0.5129714843750008
                },
                {
                    "name": "F#5",
                    "midi": 78,
                    "time": 38.49054999999999,
                    "velocity": 0.5039370078740157,
                    "duration": 0.5365563802083315
                },
                {
                    "name": "D5",
                    "midi": 74,
                    "time": 39.05658749999999,
                    "velocity": 0.5039370078740157,
                    "duration": 0.5129714843750008
                },
                {
                    "name": "G5",
                    "midi": 79,
                    "time": 39.62262499999999,
                    "velocity": 0.5039370078740157,
                    "duration": 0.5365563802083315
                },
                {
                    "name": "B4",
                    "midi": 71,
                    "time": 40.18866249999999,
                    "velocity": 0.5039370078740157,
                    "duration": 0.5129714843750008
                },
                {
                    "name": "D4",
                    "midi": 62,
                    "time": 40.75469999999999,
                    "velocity": 0.5039370078740157,
                    "duration": 1.6096691406250017
                },
                {
                    "name": "A4",
                    "midi": 69,
                    "time": 40.75469999999999,
                    "velocity": 0.5039370078740157,
                    "duration": 0.5365563802083315
                },
                {
                    "name": "D5",
                    "midi": 74,
                    "time": 41.32073749999999,
                    "velocity": 0.5039370078740157,
                    "duration": 0.5129714843750008
                },
                {
                    "name": "B4",
                    "midi": 71,
                    "time": 41.88677499999999,
                    "velocity": 0.5039370078740157,
                    "duration": 0.5365563802083315
                },
                {
                    "name": "E5",
                    "midi": 76,
                    "time": 42.45281249999999,
                    "velocity": 0.5039370078740157,
                    "duration": 0.5129714843750008
                },
                {
                    "name": "B3",
                    "midi": 59,
                    "time": 42.45281249999999,
                    "velocity": 0.5039370078740157,
                    "duration": 0.5129714843750008
                },
                {
                    "name": "C#4",
                    "midi": 61,
                    "time": 43.01884999999999,
                    "velocity": 0.5039370078740157,
                    "duration": 1.0731127604166701
                },
                {
                    "name": "E4",
                    "midi": 64,
                    "time": 43.01884999999999,
                    "velocity": 0.5039370078740157,
                    "duration": 1.0731127604166701
                },
                {
                    "name": "A4",
                    "midi": 69,
                    "time": 43.01884999999999,
                    "velocity": 0.5039370078740157,
                    "duration": 1.0731127604166701
                },
                {
                    "name": "A4",
                    "midi": 69,
                    "time": 44.150924999999994,
                    "velocity": 0.5039370078740157,
                    "duration": 4.422167968750003
                },
                {
                    "name": "D5",
                    "midi": 74,
                    "time": 44.150924999999994,
                    "velocity": 0.5039370078740157,
                    "duration": 2.2051877604166705
                },
                {
                    "name": "F4",
                    "midi": 65,
                    "time": 44.150924999999994,
                    "velocity": 0.5039370078740157,
                    "duration": 1.0259429687500017
                },
                {
                    "name": "E4",
                    "midi": 64,
                    "time": 45.282999999999994,
                    "velocity": 0.5039370078740157,
                    "duration": 2.1933953125000016
                },
                {
                    "name": "C5",
                    "midi": 72,
                    "time": 46.415074999999995,
                    "velocity": 0.5039370078740157,
                    "duration": 2.0577821614583343
                },
                {
                    "name": "D4",
                    "midi": 62,
                    "time": 47.547149999999995,
                    "velocity": 0.5039370078740157,
                    "duration": 2.1933953125000016
                },
                {
                    "name": "B4",
                    "midi": 71,
                    "time": 48.679224999999995,
                    "velocity": 0.5039370078740157,
                    "duration": 0.8018864583333354
                },
                {
                    "name": "A4",
                    "midi": 69,
                    "time": 49.52828125,
                    "velocity": 0.5039370078740157,
                    "duration": 0.25943385416666587
                },
                {
                    "name": "B3",
                    "midi": 59,
                    "time": 49.811299999999996,
                    "velocity": 0.5039370078740157,
                    "duration": 1.0731127604166701
                },
                {
                    "name": "D4",
                    "midi": 62,
                    "time": 49.811299999999996,
                    "velocity": 0.5039370078740157,
                    "duration": 1.0731127604166701
                },
                {
                    "name": "G#4",
                    "midi": 68,
                    "time": 49.811299999999996,
                    "velocity": 0.5039370078740157,
                    "duration": 0.8018864583333354
                },
                {
                    "name": "F#4",
                    "midi": 66,
                    "time": 50.66035625,
                    "velocity": 0.5039370078740157,
                    "duration": 0.26533007812499676
                },
                {
                    "name": "E4",
                    "midi": 64,
                    "time": 50.943374999999996,
                    "velocity": 0.5511811023622047,
                    "duration": 0.5129714843750008
                },
                {
                    "name": "E4",
                    "midi": 64,
                    "time": 51.509412499999996,
                    "velocity": 0.5039370078740157,
                    "duration": 0.5129714843750008
                },
                {
                    "name": "A4",
                    "midi": 69,
                    "time": 51.509412499999996,
                    "velocity": 0.5039370078740157,
                    "duration": 0.5129714843750008
                },
                {
                    "name": "C4",
                    "midi": 60,
                    "time": 51.509412499999996,
                    "velocity": 0.5039370078740157,
                    "duration": 0.5129714843750008
                },
                {
                    "name": "E4",
                    "midi": 64,
                    "time": 52.07545,
                    "velocity": 0.5039370078740157,
                    "duration": 1.0731127604166701
                },
                {
                    "name": "A4",
                    "midi": 69,
                    "time": 52.07545,
                    "velocity": 0.5039370078740157,
                    "duration": 1.0731127604166701
                },
                {
                    "name": "B4",
                    "midi": 71,
                    "time": 52.07545,
                    "velocity": 0.5039370078740157,
                    "duration": 2.0577821614583343
                },
                {
                    "name": "G#4",
                    "midi": 68,
                    "time": 53.207525,
                    "velocity": 0.5039370078740157,
                    "duration": 1.0259429687500017
                },
                {
                    "name": "A4",
                    "midi": 69,
                    "time": 54.9056375,
                    "velocity": 0.5039370078740157,
                    "duration": 0.27122630208333476
                },
                {
                    "name": "B4",
                    "midi": 71,
                    "time": 55.18865625,
                    "velocity": 0.5039370078740157,
                    "duration": 0.25943385416666587
                },
                {
                    "name": "C5",
                    "midi": 72,
                    "time": 55.471675,
                    "velocity": 0.5039370078740157,
                    "duration": 0.27122630208333476
                },
                {
                    "name": "B4",
                    "midi": 71,
                    "time": 55.75469375,
                    "velocity": 0.5039370078740157,
                    "duration": 0.25943385416666587
                },
                {
                    "name": "A4",
                    "midi": 69,
                    "time": 56.0377125,
                    "velocity": 0.5039370078740157,
                    "duration": 0.27122630208333476
                },
                {
                    "name": "G4",
                    "midi": 67,
                    "time": 56.32073125,
                    "velocity": 0.5039370078740157,
                    "duration": 0.25943385416666587
                },
                {
                    "name": "F4",
                    "midi": 65,
                    "time": 56.60375,
                    "velocity": 0.5039370078740157,
                    "duration": 0.5424526041666695
                },
                {
                    "name": "E4",
                    "midi": 64,
                    "time": 57.1697875,
                    "velocity": 0.5039370078740157,
                    "duration": 0.27122630208333476
                },
                {
                    "name": "F4",
                    "midi": 65,
                    "time": 57.45280625,
                    "velocity": 0.5039370078740157,
                    "duration": 0.25943385416666587
                },
                {
                    "name": "D4",
                    "midi": 62,
                    "time": 57.735825,
                    "velocity": 0.5039370078740157,
                    "duration": 0.27122630208333476
                },
                {
                    "name": "G4",
                    "midi": 67,
                    "time": 58.01884375,
                    "velocity": 0.5039370078740157,
                    "duration": 0.25943385416666587
                },
                {
                    "name": "F4",
                    "midi": 65,
                    "time": 58.3018625,
                    "velocity": 0.5039370078740157,
                    "duration": 0.27122630208333476
                },
                {
                    "name": "G4",
                    "midi": 67,
                    "time": 58.58488125,
                    "velocity": 0.5039370078740157,
                    "duration": 0.25943385416666587
                },
                {
                    "name": "E4",
                    "midi": 64,
                    "time": 58.8679,
                    "velocity": 0.5039370078740157,
                    "duration": 2.2169802083333323
                },
                {
                    "name": "C5",
                    "midi": 72,
                    "time": 59.999975,
                    "velocity": 0.5039370078740157,
                    "duration": 2.2169802083333323
                },
                {
                    "name": "D4",
                    "midi": 62,
                    "time": 61.13205,
                    "velocity": 0.5039370078740157,
                    "duration": 2.2169802083333323
                },
                {
                    "name": "B4",
                    "midi": 71,
                    "time": 62.264125,
                    "velocity": 0.5039370078740157,
                    "duration": 1.1084901041666626
                },
                {
                    "name": "C5",
                    "midi": 72,
                    "time": 63.39619999999999,
                    "velocity": 0.5039370078740157,
                    "duration": 0.5424526041666695
                },
                {
                    "name": "E5",
                    "midi": 76,
                    "time": 63.96223749999999,
                    "velocity": 0.5039370078740157,
                    "duration": 0.27122630208332765
                },
                {
                    "name": "F5",
                    "midi": 77,
                    "time": 64.24525624999998,
                    "velocity": 0.5039370078740157,
                    "duration": 0.259433854166673
                },
                {
                    "name": "G5",
                    "midi": 79,
                    "time": 64.528275,
                    "velocity": 0.5039370078740157,
                    "duration": 0.27122630208333476
                },
                {
                    "name": "F5",
                    "midi": 77,
                    "time": 64.81129374999999,
                    "velocity": 0.5039370078740157,
                    "duration": 0.259433854166673
                },
                {
                    "name": "E5",
                    "midi": 76,
                    "time": 65.0943125,
                    "velocity": 0.5039370078740157,
                    "duration": 0.27122630208333476
                },
                {
                    "name": "D5",
                    "midi": 74,
                    "time": 65.37733125,
                    "velocity": 0.5039370078740157,
                    "duration": 0.259433854166673
                },
                {
                    "name": "C5",
                    "midi": 72,
                    "time": 65.66035000000001,
                    "velocity": 0.5039370078740157,
                    "duration": 0.5424526041666695
                },
                {
                    "name": "B4",
                    "midi": 71,
                    "time": 66.22638750000002,
                    "velocity": 0.5039370078740157,
                    "duration": 0.27122630208333476
                },
                {
                    "name": "C5",
                    "midi": 72,
                    "time": 66.50940625000001,
                    "velocity": 0.5039370078740157,
                    "duration": 0.259433854166673
                },
                {
                    "name": "A4",
                    "midi": 69,
                    "time": 66.79242500000002,
                    "velocity": 0.5039370078740157,
                    "duration": 0.27122630208333476
                },
                {
                    "name": "D5",
                    "midi": 74,
                    "time": 67.07544375000002,
                    "velocity": 0.5039370078740157,
                    "duration": 0.259433854166673
                },
                {
                    "name": "C5",
                    "midi": 72,
                    "time": 67.35846250000003,
                    "velocity": 0.5039370078740157,
                    "duration": 0.27122630208333476
                },
                {
                    "name": "D5",
                    "midi": 74,
                    "time": 67.64148125000003,
                    "velocity": 0.5039370078740157,
                    "duration": 0.259433854166673
                },
                {
                    "name": "B4",
                    "midi": 71,
                    "time": 67.92450000000004,
                    "velocity": 0.5039370078740157,
                    "duration": 0.5424526041666695
                },
                {
                    "name": "E5",
                    "midi": 76,
                    "time": 68.49053750000004,
                    "velocity": 0.5039370078740157,
                    "duration": 0.27122630208333476
                },
                {
                    "name": "C5",
                    "midi": 72,
                    "time": 68.49053750000004,
                    "velocity": 0.5039370078740157,
                    "duration": 0.27122630208333476
                },
                {
                    "name": "D5",
                    "midi": 74,
                    "time": 68.77355625000004,
                    "velocity": 0.5039370078740157,
                    "duration": 0.259433854166673
                },
                {
                    "name": "F5",
                    "midi": 77,
                    "time": 68.77355625000004,
                    "velocity": 0.5039370078740157,
                    "duration": 0.259433854166673
                },
                {
                    "name": "G5",
                    "midi": 79,
                    "time": 69.05657500000005,
                    "velocity": 0.5039370078740157,
                    "duration": 0.27122630208333476
                },
                {
                    "name": "E5",
                    "midi": 76,
                    "time": 69.05657500000005,
                    "velocity": 0.5039370078740157,
                    "duration": 0.27122630208333476
                },
                {
                    "name": "F5",
                    "midi": 77,
                    "time": 69.33959375000005,
                    "velocity": 0.5039370078740157,
                    "duration": 0.259433854166673
                },
                {
                    "name": "D5",
                    "midi": 74,
                    "time": 69.33959375000005,
                    "velocity": 0.5039370078740157,
                    "duration": 0.259433854166673
                },
                {
                    "name": "E5",
                    "midi": 76,
                    "time": 69.62261250000006,
                    "velocity": 0.5039370078740157,
                    "duration": 0.27122630208333476
                },
                {
                    "name": "C5",
                    "midi": 72,
                    "time": 69.62261250000006,
                    "velocity": 0.5039370078740157,
                    "duration": 0.27122630208333476
                },
                {
                    "name": "B4",
                    "midi": 71,
                    "time": 69.90563125000006,
                    "velocity": 0.5039370078740157,
                    "duration": 0.259433854166673
                },
                {
                    "name": "D5",
                    "midi": 74,
                    "time": 69.90563125000006,
                    "velocity": 0.5039370078740157,
                    "duration": 0.259433854166673
                },
                {
                    "name": "A4",
                    "midi": 69,
                    "time": 70.18865000000007,
                    "velocity": 0.5039370078740157,
                    "duration": 0.5424526041666695
                },
                {
                    "name": "C5",
                    "midi": 72,
                    "time": 70.18865000000007,
                    "velocity": 0.5039370078740157,
                    "duration": 0.5424526041666695
                },
                {
                    "name": "B4",
                    "midi": 71,
                    "time": 70.75468750000007,
                    "velocity": 0.5039370078740157,
                    "duration": 0.27122630208333476
                },
                {
                    "name": "D5",
                    "midi": 74,
                    "time": 70.75468750000007,
                    "velocity": 0.5039370078740157,
                    "duration": 0.27122630208333476
                },
                {
                    "name": "C5",
                    "midi": 72,
                    "time": 71.03770625000007,
                    "velocity": 0.5039370078740157,
                    "duration": 0.259433854166673
                },
                {
                    "name": "E5",
                    "midi": 76,
                    "time": 71.03770625000007,
                    "velocity": 0.5039370078740157,
                    "duration": 0.259433854166673
                },
                {
                    "name": "D5",
                    "midi": 74,
                    "time": 71.32072500000008,
                    "velocity": 0.5039370078740157,
                    "duration": 0.27122630208333476
                },
                {
                    "name": "F5",
                    "midi": 77,
                    "time": 71.32072500000008,
                    "velocity": 0.5039370078740157,
                    "duration": 0.27122630208333476
                },
                {
                    "name": "E5",
                    "midi": 76,
                    "time": 71.60374375000008,
                    "velocity": 0.5039370078740157,
                    "duration": 0.259433854166673
                },
                {
                    "name": "C5",
                    "midi": 72,
                    "time": 71.60374375000008,
                    "velocity": 0.5039370078740157,
                    "duration": 0.259433854166673
                },
                {
                    "name": "B4",
                    "midi": 71,
                    "time": 71.88676250000009,
                    "velocity": 0.5039370078740157,
                    "duration": 0.27122630208333476
                },
                {
                    "name": "D5",
                    "midi": 74,
                    "time": 71.88676250000009,
                    "velocity": 0.5039370078740157,
                    "duration": 0.27122630208333476
                },
                {
                    "name": "C5",
                    "midi": 72,
                    "time": 72.16978125000009,
                    "velocity": 0.5039370078740157,
                    "duration": 0.259433854166673
                },
                {
                    "name": "A4",
                    "midi": 69,
                    "time": 72.16978125000009,
                    "velocity": 0.5039370078740157,
                    "duration": 0.259433854166673
                },
                {
                    "name": "A4",
                    "midi": 69,
                    "time": 72.4528000000001,
                    "velocity": 0.5039370078740157,
                    "duration": 1.084905208333339
                },
                {
                    "name": "B4",
                    "midi": 71,
                    "time": 72.4528000000001,
                    "velocity": 0.5039370078740157,
                    "duration": 2.169810416666664
                },
                {
                    "name": "G4",
                    "midi": 67,
                    "time": 73.5848750000001,
                    "velocity": 0.5039370078740157,
                    "duration": 2.169810416666664
                },
                {
                    "name": "A4",
                    "midi": 69,
                    "time": 74.7169500000001,
                    "velocity": 0.5039370078740157,
                    "duration": 2.169810416666664
                },
                {
                    "name": "F4",
                    "midi": 65,
                    "time": 75.8490250000001,
                    "velocity": 0.5039370078740157,
                    "duration": 1.0849052083333248
                },
                {
                    "name": "F4",
                    "midi": 65,
                    "time": 76.98110000000008,
                    "velocity": 0.5039370078740157,
                    "duration": 1.084905208333339
                },
                {
                    "name": "G4",
                    "midi": 67,
                    "time": 76.98110000000008,
                    "velocity": 0.5039370078740157,
                    "duration": 2.169810416666664
                },
                {
                    "name": "E4",
                    "midi": 64,
                    "time": 78.11317500000008,
                    "velocity": 0.5039370078740157,
                    "duration": 2.169810416666664
                },
                {
                    "name": "A4",
                    "midi": 69,
                    "time": 79.24525000000008,
                    "velocity": 0.5039370078740157,
                    "duration": 2.169810416666664
                },
                {
                    "name": "F4",
                    "midi": 65,
                    "time": 80.37732500000008,
                    "velocity": 0.5039370078740157,
                    "duration": 1.0849052083333248
                },
                {
                    "name": "D4",
                    "midi": 62,
                    "time": 80.37732500000008,
                    "velocity": 0.5039370078740157,
                    "duration": 2.216980208333325
                },
                {
                    "name": "B4",
                    "midi": 71,
                    "time": 81.50940000000007,
                    "velocity": 0.5039370078740157,
                    "duration": 1.084905208333339
                },
                {
                    "name": "G4",
                    "midi": 67,
                    "time": 81.50940000000007,
                    "velocity": 0.5039370078740157,
                    "duration": 1.084905208333339
                },
                {
                    "name": "G4",
                    "midi": 67,
                    "time": 82.64147500000007,
                    "velocity": 0.5039370078740157,
                    "duration": 3.3018854166666642
                },
                {
                    "name": "C5",
                    "midi": 72,
                    "time": 82.64147500000007,
                    "velocity": 0.5039370078740157,
                    "duration": 2.169810416666664
                },
                {
                    "name": "E4",
                    "midi": 64,
                    "time": 82.64147500000007,
                    "velocity": 0.5039370078740157,
                    "duration": 1.084905208333339
                },
                {
                    "name": "D4",
                    "midi": 62,
                    "time": 83.77355000000007,
                    "velocity": 0.5039370078740157,
                    "duration": 2.169810416666664
                },
                {
                    "name": "A#4",
                    "midi": 70,
                    "time": 84.90562500000007,
                    "velocity": 0.5039370078740157,
                    "duration": 1.0849052083333248
                },
                {
                    "name": "A#4",
                    "midi": 70,
                    "time": 86.03770000000006,
                    "velocity": 0.5039370078740157,
                    "duration": 0.5365563802083386
                },
                {
                    "name": "A4",
                    "midi": 69,
                    "time": 86.60373750000007,
                    "velocity": 0.5039370078740157,
                    "duration": 0.26533007812500387
                },
                {
                    "name": "A#4",
                    "midi": 70,
                    "time": 86.88675625000008,
                    "velocity": 0.5039370078740157,
                    "duration": 0.259433854166673
                },
                {
                    "name": "C5",
                    "midi": 72,
                    "time": 87.16977500000009,
                    "velocity": 0.5039370078740157,
                    "duration": 0.26533007812500387
                },
                {
                    "name": "A#4",
                    "midi": 70,
                    "time": 87.4527937500001,
                    "velocity": 0.5039370078740157,
                    "duration": 0.259433854166673
                },
                {
                    "name": "A4",
                    "midi": 69,
                    "time": 87.73581250000011,
                    "velocity": 0.5039370078740157,
                    "duration": 0.26533007812500387
                },
                {
                    "name": "G4",
                    "midi": 67,
                    "time": 88.01883125000012,
                    "velocity": 0.5039370078740157,
                    "duration": 0.259433854166673
                },
                {
                    "name": "A4",
                    "midi": 69,
                    "time": 88.30185000000013,
                    "velocity": 0.5039370078740157,
                    "duration": 0.13561315104166738
                },
                {
                    "name": "G4",
                    "midi": 67,
                    "time": 88.44335937500013,
                    "velocity": 0.5039370078740157,
                    "duration": 0.13561315104166738
                },
                {
                    "name": "F4",
                    "midi": 65,
                    "time": 88.58486875000013,
                    "velocity": 0.5039370078740157,
                    "duration": 0.13561315104166738
                },
                {
                    "name": "E4",
                    "midi": 64,
                    "time": 88.72637812500012,
                    "velocity": 0.5039370078740157,
                    "duration": 0.1238207031250056
                },
                {
                    "name": "F4",
                    "midi": 65,
                    "time": 88.86788750000014,
                    "velocity": 0.5039370078740157,
                    "duration": 0.13561315104166738
                },
                {
                    "name": "E4",
                    "midi": 64,
                    "time": 89.00939687500014,
                    "velocity": 0.5039370078740157,
                    "duration": 0.13561315104166738
                },
                {
                    "name": "D4",
                    "midi": 62,
                    "time": 89.15090625000013,
                    "velocity": 0.5039370078740157,
                    "duration": 0.13561315104166738
                },
                {
                    "name": "C4",
                    "midi": 60,
                    "time": 89.29241562500013,
                    "velocity": 0.5039370078740157,
                    "duration": 0.1238207031250056
                },
                {
                    "name": "A#3",
                    "midi": 58,
                    "time": 89.43392500000014,
                    "velocity": 0.5039370078740157,
                    "duration": 0.26533007812500387
                },
                {
                    "name": "A3",
                    "midi": 57,
                    "time": 89.71694375000015,
                    "velocity": 0.5039370078740157,
                    "duration": 0.259433854166673
                },
                {
                    "name": "A#3",
                    "midi": 58,
                    "time": 89.99996250000017,
                    "velocity": 0.5039370078740157,
                    "duration": 0.5129714843750008
                },
                {
                    "name": "F4",
                    "midi": 65,
                    "time": 90.56600000000017,
                    "velocity": 0.5039370078740157,
                    "duration": 3.225234505208334
                },
                {
                    "name": "A3",
                    "midi": 57,
                    "time": 90.56600000000017,
                    "velocity": 0.5039370078740157,
                    "duration": 3.225234505208334
                },
                {
                    "name": "C4",
                    "midi": 60,
                    "time": 90.56600000000017,
                    "velocity": 0.5039370078740157,
                    "duration": 3.225234505208334
                },
                {
                    "name": "A4",
                    "midi": 69,
                    "time": 93.96222500000017,
                    "velocity": 0.5039370078740157,
                    "duration": 0.8136789062500043
                },
                {
                    "name": "A#4",
                    "midi": 70,
                    "time": 94.81128125000018,
                    "velocity": 0.5039370078740157,
                    "duration": 0.259433854166673
                },
                {
                    "name": "A4",
                    "midi": 69,
                    "time": 95.09430000000019,
                    "velocity": 0.5039370078740157,
                    "duration": 0.27122630208333476
                },
                {
                    "name": "G4",
                    "midi": 67,
                    "time": 95.37731875000019,
                    "velocity": 0.5039370078740157,
                    "duration": 0.7724053385416596
                },
                {
                    "name": "A4",
                    "midi": 69,
                    "time": 96.22637500000017,
                    "velocity": 0.5039370078740157,
                    "duration": 0.27122630208333476
                },
                {
                    "name": "F4",
                    "midi": 65,
                    "time": 96.50939375000017,
                    "velocity": 0.5039370078740157,
                    "duration": 0.259433854166673
                },
                {
                    "name": "E4",
                    "midi": 64,
                    "time": 96.79241250000018,
                    "velocity": 0.5039370078740157,
                    "duration": 0.27122630208333476
                },
                {
                    "name": "F4",
                    "midi": 65,
                    "time": 97.07543125000018,
                    "velocity": 0.5039370078740157,
                    "duration": 0.259433854166673
                },
                {
                    "name": "E4",
                    "midi": 64,
                    "time": 97.35845000000019,
                    "velocity": 0.5039370078740157,
                    "duration": 2.2641500000000008
                },
                {
                    "name": "C4",
                    "midi": 60,
                    "time": 97.35845000000019,
                    "velocity": 0.5039370078740157,
                    "duration": 2.2641500000000008
                },
                {
                    "name": "G4",
                    "midi": 67,
                    "time": 97.35845000000019,
                    "velocity": 0.5039370078740157,
                    "duration": 2.2641500000000008
                }
            ],
            "controlChanges": {
                "7": [
                    {
                        "number": 7,
                        "time": 0,
                        "value": 1
                    }
                ],
                "10": [
                    {
                        "number": 10,
                        "time": 0,
                        "value": 0.7716535433070866
                    }
                ],
                "91": [
                    {
                        "number": 91,
                        "time": 0,
                        "value": 0.14960629921259844
                    }
                ],
                "121": [
                    {
                        "number": 121,
                        "time": 0,
                        "value": 0
                    },
                    {
                        "number": 121,
                        "time": 98.49052500000019,
                        "value": 0
                    }
                ]
            },
            "id": 3,
            "name": "-         ",
            "instrumentNumber": 73,
            "instrument": "flute",
            "instrumentFamily": "pipe",
            "channelNumber": 2,
            "isPercussion": false
        },
        {
            "startTime": 0,
            "duration": 99.62260000000016,
            "length": 156,
            "notes": [
                {
                    "name": "C4",
                    "midi": 60,
                    "time": 0,
                    "velocity": 0.5039370078740157,
                    "duration": 1.09669765625
                },
                {
                    "name": "C4",
                    "midi": 60,
                    "time": 1.132075,
                    "velocity": 0.5039370078740157,
                    "duration": 0.1356131510416667
                },
                {
                    "name": "B3",
                    "midi": 59,
                    "time": 1.273584375,
                    "velocity": 0.5039370078740157,
                    "duration": 0.12382070312500004
                },
                {
                    "name": "C4",
                    "midi": 60,
                    "time": 1.41509375,
                    "velocity": 0.5039370078740157,
                    "duration": 0.1356131510416667
                },
                {
                    "name": "B3",
                    "midi": 59,
                    "time": 1.556603125,
                    "velocity": 0.5039370078740157,
                    "duration": 0.12382070312500004
                },
                {
                    "name": "G3",
                    "midi": 55,
                    "time": 1.6981125000000001,
                    "velocity": 0.5039370078740157,
                    "duration": 0.512971484375
                },
                {
                    "name": "D4",
                    "midi": 62,
                    "time": 2.26415,
                    "velocity": 0.5039370078740157,
                    "duration": 1.645046484375
                },
                {
                    "name": "B3",
                    "midi": 59,
                    "time": 3.9622624999999996,
                    "velocity": 0.5039370078740157,
                    "duration": 0.512971484375
                },
                {
                    "name": "B3",
                    "midi": 59,
                    "time": 4.5283,
                    "velocity": 0.5039370078740157,
                    "duration": 0.5424526041666669
                },
                {
                    "name": "G3",
                    "midi": 55,
                    "time": 5.0943375,
                    "velocity": 0.5039370078740157,
                    "duration": 0.512971484375
                },
                {
                    "name": "C4",
                    "midi": 60,
                    "time": 5.660375,
                    "velocity": 0.5039370078740157,
                    "duration": 0.5424526041666669
                },
                {
                    "name": "E3",
                    "midi": 52,
                    "time": 6.2264125,
                    "velocity": 0.5039370078740157,
                    "duration": 0.512971484375
                },
                {
                    "name": "D3",
                    "midi": 50,
                    "time": 6.7924500000000005,
                    "velocity": 0.5039370078740157,
                    "duration": 3.36084765625
                },
                {
                    "name": "E3",
                    "midi": 52,
                    "time": 9.0566,
                    "velocity": 0.5039370078740157,
                    "duration": 2.1698104166666674
                },
                {
                    "name": "C3",
                    "midi": 48,
                    "time": 10.188675,
                    "velocity": 0.5039370078740157,
                    "duration": 2.1933953125
                },
                {
                    "name": "D3",
                    "midi": 50,
                    "time": 11.32075,
                    "velocity": 0.5039370078740157,
                    "duration": 2.1698104166666656
                },
                {
                    "name": "B2",
                    "midi": 47,
                    "time": 12.452824999999999,
                    "velocity": 0.5039370078740157,
                    "duration": 1.02594296875
                },
                {
                    "name": "C3",
                    "midi": 48,
                    "time": 13.5849,
                    "velocity": 0.5039370078740157,
                    "duration": 1.096697656249999
                },
                {
                    "name": "A2",
                    "midi": 45,
                    "time": 14.716974999999998,
                    "velocity": 0.5039370078740157,
                    "duration": 1.02594296875
                },
                {
                    "name": "F3",
                    "midi": 53,
                    "time": 14.716974999999998,
                    "velocity": 0.5039370078740157,
                    "duration": 2.1698104166666674
                },
                {
                    "name": "G2",
                    "midi": 43,
                    "time": 15.849049999999998,
                    "velocity": 0.5039370078740157,
                    "duration": 2.193395312500005
                },
                {
                    "name": "F3",
                    "midi": 53,
                    "time": 16.981125,
                    "velocity": 0.5039370078740157,
                    "duration": 0.13561315104166738
                },
                {
                    "name": "E3",
                    "midi": 52,
                    "time": 17.122634375,
                    "velocity": 0.5039370078740157,
                    "duration": 0.13561315104166738
                },
                {
                    "name": "F3",
                    "midi": 53,
                    "time": 17.264143750000002,
                    "velocity": 0.5039370078740157,
                    "duration": 0.13561315104166738
                },
                {
                    "name": "E3",
                    "midi": 52,
                    "time": 17.405653125000004,
                    "velocity": 0.5039370078740157,
                    "duration": 0.12382070312499849
                },
                {
                    "name": "C3",
                    "midi": 48,
                    "time": 17.547162500000002,
                    "velocity": 0.5039370078740157,
                    "duration": 0.5129714843750008
                },
                {
                    "name": "G3",
                    "midi": 55,
                    "time": 18.113200000000003,
                    "velocity": 0.5039370078740157,
                    "duration": 1.609669140624998
                },
                {
                    "name": "F3",
                    "midi": 53,
                    "time": 19.8113125,
                    "velocity": 0.5039370078740157,
                    "duration": 0.5129714843750008
                },
                {
                    "name": "E3",
                    "midi": 52,
                    "time": 20.37735,
                    "velocity": 0.5039370078740157,
                    "duration": 0.5365563802083315
                },
                {
                    "name": "C3",
                    "midi": 48,
                    "time": 20.943387499999996,
                    "velocity": 0.5039370078740157,
                    "duration": 0.5129714843750008
                },
                {
                    "name": "F3",
                    "midi": 53,
                    "time": 21.509424999999997,
                    "velocity": 0.5039370078740157,
                    "duration": 0.5365563802083351
                },
                {
                    "name": "A2",
                    "midi": 45,
                    "time": 22.075462499999997,
                    "velocity": 0.5039370078740157,
                    "duration": 0.5129714843750008
                },
                {
                    "name": "G2",
                    "midi": 43,
                    "time": 22.641499999999997,
                    "velocity": 0.5039370078740157,
                    "duration": 1.0731127604166666
                },
                {
                    "name": "G3",
                    "midi": 55,
                    "time": 23.773574999999997,
                    "velocity": 0.5039370078740157,
                    "duration": 1.0259429687499981
                },
                {
                    "name": "G3",
                    "midi": 55,
                    "time": 24.905649999999994,
                    "velocity": 0.5039370078740157,
                    "duration": 1.0731127604166666
                },
                {
                    "name": "F#3",
                    "midi": 54,
                    "time": 26.037724999999995,
                    "velocity": 0.5039370078740157,
                    "duration": 1.0259429687500017
                },
                {
                    "name": "G3",
                    "midi": 55,
                    "time": 27.169799999999995,
                    "velocity": 0.5039370078740157,
                    "duration": 1.0731127604166666
                },
                {
                    "name": "E3",
                    "midi": 52,
                    "time": 28.301874999999995,
                    "velocity": 0.5039370078740157,
                    "duration": 1.0259429687500017
                },
                {
                    "name": "C4",
                    "midi": 60,
                    "time": 29.433949999999996,
                    "velocity": 0.5039370078740157,
                    "duration": 1.0731127604166666
                },
                {
                    "name": "F3",
                    "midi": 53,
                    "time": 29.433949999999996,
                    "velocity": 0.5039370078740157,
                    "duration": 1.0731127604166666
                },
                {
                    "name": "G3",
                    "midi": 55,
                    "time": 30.566024999999996,
                    "velocity": 0.5039370078740157,
                    "duration": 1.0259429687500017
                },
                {
                    "name": "A#3",
                    "midi": 58,
                    "time": 30.566024999999996,
                    "velocity": 0.5039370078740157,
                    "duration": 1.0259429687500017
                },
                {
                    "name": "C#4",
                    "midi": 61,
                    "time": 31.698099999999997,
                    "velocity": 0.5039370078740157,
                    "duration": 1.073112760416663
                },
                {
                    "name": "A3",
                    "midi": 57,
                    "time": 31.698099999999997,
                    "velocity": 0.5039370078740157,
                    "duration": 1.073112760416663
                },
                {
                    "name": "A#3",
                    "midi": 58,
                    "time": 32.83017499999999,
                    "velocity": 0.5039370078740157,
                    "duration": 1.0259429687500017
                },
                {
                    "name": "D4",
                    "midi": 62,
                    "time": 32.83017499999999,
                    "velocity": 0.5039370078740157,
                    "duration": 1.0259429687500017
                },
                {
                    "name": "E4",
                    "midi": 64,
                    "time": 33.96224999999999,
                    "velocity": 0.5039370078740157,
                    "duration": 1.0731127604166701
                },
                {
                    "name": "C#4",
                    "midi": 61,
                    "time": 33.96224999999999,
                    "velocity": 0.5039370078740157,
                    "duration": 1.0731127604166701
                },
                {
                    "name": "A3",
                    "midi": 57,
                    "time": 33.96224999999999,
                    "velocity": 0.5039370078740157,
                    "duration": 1.0731127604166701
                },
                {
                    "name": "D3",
                    "midi": 50,
                    "time": 35.09432499999999,
                    "velocity": 0.5039370078740157,
                    "duration": 2.2051877604166705
                },
                {
                    "name": "D4",
                    "midi": 62,
                    "time": 35.09432499999999,
                    "velocity": 0.5039370078740157,
                    "duration": 1.0259429687500017
                },
                {
                    "name": "A3",
                    "midi": 57,
                    "time": 35.09432499999999,
                    "velocity": 0.5039370078740157,
                    "duration": 4.469337760416671
                },
                {
                    "name": "E3",
                    "midi": 52,
                    "time": 36.22639999999999,
                    "velocity": 0.5039370078740157,
                    "duration": 2.0577821614583343
                },
                {
                    "name": "C#3",
                    "midi": 49,
                    "time": 37.35847499999999,
                    "velocity": 0.5039370078740157,
                    "duration": 1.0259429687500017
                },
                {
                    "name": "D3",
                    "midi": 50,
                    "time": 38.49054999999999,
                    "velocity": 0.5039370078740157,
                    "duration": 1.0731127604166701
                },
                {
                    "name": "G3",
                    "midi": 55,
                    "time": 39.62262499999999,
                    "velocity": 0.5039370078740157,
                    "duration": 1.0259429687500017
                },
                {
                    "name": "E3",
                    "midi": 52,
                    "time": 39.62262499999999,
                    "velocity": 0.5039370078740157,
                    "duration": 1.0259429687500017
                },
                {
                    "name": "F#3",
                    "midi": 54,
                    "time": 40.75469999999999,
                    "velocity": 0.5039370078740157,
                    "duration": 1.0259429687500017
                },
                {
                    "name": "G3",
                    "midi": 55,
                    "time": 41.88677499999999,
                    "velocity": 0.5039370078740157,
                    "duration": 2.0577821614583343
                },
                {
                    "name": "F#3",
                    "midi": 54,
                    "time": 44.150924999999994,
                    "velocity": 0.5039370078740157,
                    "duration": 0.13561315104166738
                },
                {
                    "name": "F3",
                    "midi": 53,
                    "time": 44.29243437499999,
                    "velocity": 0.5039370078740157,
                    "duration": 0.13561315104166738
                },
                {
                    "name": "F#3",
                    "midi": 54,
                    "time": 44.43394374999999,
                    "velocity": 0.5039370078740157,
                    "duration": 0.13561315104166738
                },
                {
                    "name": "F3",
                    "midi": 53,
                    "time": 44.57545312499999,
                    "velocity": 0.5039370078740157,
                    "duration": 0.12382070312499849
                },
                {
                    "name": "D3",
                    "midi": 50,
                    "time": 44.71696249999999,
                    "velocity": 0.5039370078740157,
                    "duration": 0.5129714843750008
                },
                {
                    "name": "A3",
                    "midi": 57,
                    "time": 45.28299999999999,
                    "velocity": 0.5039370078740157,
                    "duration": 1.6096691406250017
                },
                {
                    "name": "G3",
                    "midi": 55,
                    "time": 46.98111249999999,
                    "velocity": 0.5039370078740157,
                    "duration": 0.5129714843750008
                },
                {
                    "name": "F#3",
                    "midi": 54,
                    "time": 47.54714999999999,
                    "velocity": 0.5039370078740157,
                    "duration": 0.5365563802083315
                },
                {
                    "name": "D3",
                    "midi": 50,
                    "time": 48.11318749999999,
                    "velocity": 0.5039370078740157,
                    "duration": 0.5129714843750008
                },
                {
                    "name": "G3",
                    "midi": 55,
                    "time": 48.67922499999999,
                    "velocity": 0.5039370078740157,
                    "duration": 0.5365563802083315
                },
                {
                    "name": "F2",
                    "midi": 41,
                    "time": 49.24526249999999,
                    "velocity": 0.5039370078740157,
                    "duration": 0.5129714843750008
                },
                {
                    "name": "E2",
                    "midi": 40,
                    "time": 49.81129999999999,
                    "velocity": 0.5039370078740157,
                    "duration": 0.5365563802083315
                },
                {
                    "name": "E3",
                    "midi": 52,
                    "time": 50.37733749999999,
                    "velocity": 0.5039370078740157,
                    "duration": 0.5129714843750008
                },
                {
                    "name": "C3",
                    "midi": 48,
                    "time": 50.94337499999999,
                    "velocity": 0.5039370078740157,
                    "duration": 0.5365563802083315
                },
                {
                    "name": "A2",
                    "midi": 45,
                    "time": 51.50941249999999,
                    "velocity": 0.5039370078740157,
                    "duration": 0.5129714843750008
                },
                {
                    "name": "E3",
                    "midi": 52,
                    "time": 52.07544999999999,
                    "velocity": 0.5039370078740157,
                    "duration": 1.0731127604166701
                },
                {
                    "name": "B3",
                    "midi": 59,
                    "time": 52.64148749999999,
                    "velocity": 0.5039370078740157,
                    "duration": 0.5129714843750008
                },
                {
                    "name": "E4",
                    "midi": 64,
                    "time": 53.20752499999999,
                    "velocity": 0.5039370078740157,
                    "duration": 0.5365563802083315
                },
                {
                    "name": "D4",
                    "midi": 62,
                    "time": 53.77356249999999,
                    "velocity": 0.5039370078740157,
                    "duration": 0.5129714843750008
                },
                {
                    "name": "C4",
                    "midi": 60,
                    "time": 54.33959999999999,
                    "velocity": 0.5039370078740157,
                    "duration": 1.073112760416663
                },
                {
                    "name": "A3",
                    "midi": 57,
                    "time": 55.47167499999998,
                    "velocity": 0.5039370078740157,
                    "duration": 1.0259429687500017
                },
                {
                    "name": "D4",
                    "midi": 62,
                    "time": 56.603749999999984,
                    "velocity": 0.5039370078740157,
                    "duration": 0.5365563802083315
                },
                {
                    "name": "C4",
                    "midi": 60,
                    "time": 57.169787499999984,
                    "velocity": 0.5039370078740157,
                    "duration": 0.5129714843750008
                },
                {
                    "name": "B3",
                    "midi": 59,
                    "time": 57.735824999999984,
                    "velocity": 0.5039370078740157,
                    "duration": 0.5365563802083315
                },
                {
                    "name": "G3",
                    "midi": 55,
                    "time": 58.301862499999984,
                    "velocity": 0.5039370078740157,
                    "duration": 0.5129714843750008
                },
                {
                    "name": "A3",
                    "midi": 57,
                    "time": 59.433937499999985,
                    "velocity": 0.5039370078740157,
                    "duration": 0.27122630208333476
                },
                {
                    "name": "B3",
                    "midi": 59,
                    "time": 59.71695624999999,
                    "velocity": 0.5039370078740157,
                    "duration": 0.25943385416666587
                },
                {
                    "name": "C4",
                    "midi": 60,
                    "time": 59.999974999999985,
                    "velocity": 0.5039370078740157,
                    "duration": 0.27122630208333476
                },
                {
                    "name": "B3",
                    "midi": 59,
                    "time": 60.28299374999999,
                    "velocity": 0.5039370078740157,
                    "duration": 0.25943385416666587
                },
                {
                    "name": "A3",
                    "midi": 57,
                    "time": 60.566012499999985,
                    "velocity": 0.5039370078740157,
                    "duration": 0.27122630208333476
                },
                {
                    "name": "G3",
                    "midi": 55,
                    "time": 60.84903124999999,
                    "velocity": 0.5039370078740157,
                    "duration": 0.25943385416666587
                },
                {
                    "name": "F3",
                    "midi": 53,
                    "time": 61.132049999999985,
                    "velocity": 0.5039370078740157,
                    "duration": 0.5424526041666695
                },
                {
                    "name": "E3",
                    "midi": 52,
                    "time": 61.698087499999986,
                    "velocity": 0.5039370078740157,
                    "duration": 0.27122630208333476
                },
                {
                    "name": "F3",
                    "midi": 53,
                    "time": 61.98110624999999,
                    "velocity": 0.5039370078740157,
                    "duration": 0.25943385416666587
                },
                {
                    "name": "D3",
                    "midi": 50,
                    "time": 62.264124999999986,
                    "velocity": 0.5039370078740157,
                    "duration": 0.27122630208333476
                },
                {
                    "name": "G3",
                    "midi": 55,
                    "time": 62.54714374999999,
                    "velocity": 0.5039370078740157,
                    "duration": 0.25943385416666587
                },
                {
                    "name": "F3",
                    "midi": 53,
                    "time": 62.830162499999986,
                    "velocity": 0.5039370078740157,
                    "duration": 0.27122630208333476
                },
                {
                    "name": "G3",
                    "midi": 55,
                    "time": 63.11318124999999,
                    "velocity": 0.5039370078740157,
                    "duration": 0.25943385416666587
                },
                {
                    "name": "G3",
                    "midi": 55,
                    "time": 63.396199999999986,
                    "velocity": 0.5039370078740157,
                    "duration": 2.1698104166666567
                },
                {
                    "name": "E3",
                    "midi": 52,
                    "time": 63.396199999999986,
                    "velocity": 0.5039370078740157,
                    "duration": 1.084905208333332
                },
                {
                    "name": "C3",
                    "midi": 48,
                    "time": 64.52827499999998,
                    "velocity": 0.5039370078740157,
                    "duration": 1.0259429687500017
                },
                {
                    "name": "A3",
                    "midi": 57,
                    "time": 65.66034999999998,
                    "velocity": 0.5039370078740157,
                    "duration": 1.084905208333339
                },
                {
                    "name": "F3",
                    "midi": 53,
                    "time": 65.66034999999998,
                    "velocity": 0.5039370078740157,
                    "duration": 1.084905208333339
                },
                {
                    "name": "D4",
                    "midi": 62,
                    "time": 66.79242499999998,
                    "velocity": 0.5039370078740157,
                    "duration": 1.0259429687500017
                },
                {
                    "name": "F#3",
                    "midi": 54,
                    "time": 66.79242499999998,
                    "velocity": 0.5039370078740157,
                    "duration": 1.0259429687500017
                },
                {
                    "name": "G3",
                    "midi": 55,
                    "time": 67.92449999999998,
                    "velocity": 0.5039370078740157,
                    "duration": 1.084905208333339
                },
                {
                    "name": "E3",
                    "midi": 52,
                    "time": 69.05657499999998,
                    "velocity": 0.5039370078740157,
                    "duration": 1.0259429687500017
                },
                {
                    "name": "F3",
                    "midi": 53,
                    "time": 70.18864999999998,
                    "velocity": 0.5039370078740157,
                    "duration": 1.084905208333339
                },
                {
                    "name": "D3",
                    "midi": 50,
                    "time": 71.32072499999998,
                    "velocity": 0.5039370078740157,
                    "duration": 1.0259429687500017
                },
                {
                    "name": "E4",
                    "midi": 64,
                    "time": 72.45279999999998,
                    "velocity": 0.5039370078740157,
                    "duration": 0.5424526041666695
                },
                {
                    "name": "E4",
                    "midi": 64,
                    "time": 73.01883749999999,
                    "velocity": 0.5039370078740157,
                    "duration": 0.27122630208333476
                },
                {
                    "name": "F4",
                    "midi": 65,
                    "time": 73.30185624999999,
                    "velocity": 0.5039370078740157,
                    "duration": 0.259433854166673
                },
                {
                    "name": "G4",
                    "midi": 67,
                    "time": 73.584875,
                    "velocity": 0.5039370078740157,
                    "duration": 0.27122630208333476
                },
                {
                    "name": "F4",
                    "midi": 65,
                    "time": 73.86789375,
                    "velocity": 0.5039370078740157,
                    "duration": 0.259433854166673
                },
                {
                    "name": "E4",
                    "midi": 64,
                    "time": 74.1509125,
                    "velocity": 0.5039370078740157,
                    "duration": 0.27122630208333476
                },
                {
                    "name": "D4",
                    "midi": 62,
                    "time": 74.43393125,
                    "velocity": 0.5039370078740157,
                    "duration": 0.259433854166673
                },
                {
                    "name": "C#4",
                    "midi": 61,
                    "time": 74.71695000000001,
                    "velocity": 0.5039370078740157,
                    "duration": 0.5424526041666695
                },
                {
                    "name": "B3",
                    "midi": 59,
                    "time": 75.28298750000002,
                    "velocity": 0.5039370078740157,
                    "duration": 0.27122630208333476
                },
                {
                    "name": "C#4",
                    "midi": 61,
                    "time": 75.56600625000002,
                    "velocity": 0.5039370078740157,
                    "duration": 0.259433854166673
                },
                {
                    "name": "A3",
                    "midi": 57,
                    "time": 75.84902500000003,
                    "velocity": 0.5039370078740157,
                    "duration": 0.27122630208333476
                },
                {
                    "name": "D4",
                    "midi": 62,
                    "time": 76.13204375000002,
                    "velocity": 0.5039370078740157,
                    "duration": 0.259433854166673
                },
                {
                    "name": "C4",
                    "midi": 60,
                    "time": 76.41506250000003,
                    "velocity": 0.5039370078740157,
                    "duration": 0.27122630208333476
                },
                {
                    "name": "D4",
                    "midi": 62,
                    "time": 76.69808125000003,
                    "velocity": 0.5039370078740157,
                    "duration": 0.259433854166673
                },
                {
                    "name": "B3",
                    "midi": 59,
                    "time": 76.98110000000004,
                    "velocity": 0.5039370078740157,
                    "duration": 0.5424526041666695
                },
                {
                    "name": "A3",
                    "midi": 57,
                    "time": 77.54713750000005,
                    "velocity": 0.5039370078740157,
                    "duration": 0.27122630208333476
                },
                {
                    "name": "B3",
                    "midi": 59,
                    "time": 77.83015625000004,
                    "velocity": 0.5039370078740157,
                    "duration": 0.259433854166673
                },
                {
                    "name": "C4",
                    "midi": 60,
                    "time": 78.11317500000006,
                    "velocity": 0.5039370078740157,
                    "duration": 0.27122630208333476
                },
                {
                    "name": "B3",
                    "midi": 59,
                    "time": 78.39619375000005,
                    "velocity": 0.5039370078740157,
                    "duration": 0.259433854166673
                },
                {
                    "name": "A3",
                    "midi": 57,
                    "time": 78.67921250000006,
                    "velocity": 0.5039370078740157,
                    "duration": 0.27122630208333476
                },
                {
                    "name": "G3",
                    "midi": 55,
                    "time": 78.96223125000006,
                    "velocity": 0.5039370078740157,
                    "duration": 0.259433854166673
                },
                {
                    "name": "F3",
                    "midi": 53,
                    "time": 79.24525000000007,
                    "velocity": 0.5039370078740157,
                    "duration": 0.5424526041666695
                },
                {
                    "name": "E3",
                    "midi": 52,
                    "time": 79.81128750000008,
                    "velocity": 0.5039370078740157,
                    "duration": 0.27122630208333476
                },
                {
                    "name": "F3",
                    "midi": 53,
                    "time": 80.09430625000007,
                    "velocity": 0.5039370078740157,
                    "duration": 0.259433854166673
                },
                {
                    "name": "D3",
                    "midi": 50,
                    "time": 80.37732500000008,
                    "velocity": 0.5039370078740157,
                    "duration": 0.27122630208333476
                },
                {
                    "name": "E3",
                    "midi": 52,
                    "time": 80.66034375000008,
                    "velocity": 0.5039370078740157,
                    "duration": 0.259433854166673
                },
                {
                    "name": "D3",
                    "midi": 50,
                    "time": 80.94336250000009,
                    "velocity": 0.5039370078740157,
                    "duration": 0.27122630208333476
                },
                {
                    "name": "C3",
                    "midi": 48,
                    "time": 81.22638125000009,
                    "velocity": 0.5039370078740157,
                    "duration": 0.259433854166673
                },
                {
                    "name": "B2",
                    "midi": 47,
                    "time": 81.5094000000001,
                    "velocity": 0.5039370078740157,
                    "duration": 0.5365563802083386
                },
                {
                    "name": "G2",
                    "midi": 43,
                    "time": 82.0754375000001,
                    "velocity": 0.5039370078740157,
                    "duration": 0.5365563802083386
                },
                {
                    "name": "F2",
                    "midi": 41,
                    "time": 82.64147500000011,
                    "velocity": 0.5039370078740157,
                    "duration": 0.14150937499999827
                },
                {
                    "name": "E2",
                    "midi": 40,
                    "time": 82.78298437500011,
                    "velocity": 0.5039370078740157,
                    "duration": 0.14150937499999827
                },
                {
                    "name": "F2",
                    "midi": 41,
                    "time": 82.92449375000011,
                    "velocity": 0.5039370078740157,
                    "duration": 0.14150937499999827
                },
                {
                    "name": "E2",
                    "midi": 40,
                    "time": 83.06600312500011,
                    "velocity": 0.5039370078740157,
                    "duration": 0.13561315104166738
                },
                {
                    "name": "B1",
                    "midi": 35,
                    "time": 83.2075125000001,
                    "velocity": 0.5039370078740157,
                    "duration": 0.5129714843750008
                },
                {
                    "name": "G2",
                    "midi": 43,
                    "time": 83.77355000000011,
                    "velocity": 0.5039370078740157,
                    "duration": 1.6096691406250017
                },
                {
                    "name": "F2",
                    "midi": 41,
                    "time": 85.47166250000012,
                    "velocity": 0.5039370078740157,
                    "duration": 0.5129714843750008
                },
                {
                    "name": "C3",
                    "midi": 48,
                    "time": 86.03770000000013,
                    "velocity": 0.5039370078740157,
                    "duration": 4.48113020833334
                },
                {
                    "name": "E2",
                    "midi": 40,
                    "time": 86.03770000000013,
                    "velocity": 0.5039370078740157,
                    "duration": 4.48113020833334
                },
                {
                    "name": "F2",
                    "midi": 41,
                    "time": 90.56600000000013,
                    "velocity": 0.5039370078740157,
                    "duration": 0.5424526041666695
                },
                {
                    "name": "E2",
                    "midi": 40,
                    "time": 91.13203750000014,
                    "velocity": 0.5039370078740157,
                    "duration": 0.27122630208333476
                },
                {
                    "name": "F2",
                    "midi": 41,
                    "time": 91.41505625000013,
                    "velocity": 0.5039370078740157,
                    "duration": 0.259433854166673
                },
                {
                    "name": "G2",
                    "midi": 43,
                    "time": 91.69807500000014,
                    "velocity": 0.5039370078740157,
                    "duration": 0.27122630208333476
                },
                {
                    "name": "F2",
                    "midi": 41,
                    "time": 91.98109375000014,
                    "velocity": 0.5039370078740157,
                    "duration": 0.259433854166673
                },
                {
                    "name": "E2",
                    "midi": 40,
                    "time": 92.26411250000015,
                    "velocity": 0.5039370078740157,
                    "duration": 0.27122630208333476
                },
                {
                    "name": "D2",
                    "midi": 38,
                    "time": 92.54713125000015,
                    "velocity": 0.5039370078740157,
                    "duration": 0.259433854166673
                },
                {
                    "name": "C2",
                    "midi": 36,
                    "time": 92.83015000000016,
                    "velocity": 0.5039370078740157,
                    "duration": 6.792450000000002
                },
                {
                    "name": "C3",
                    "midi": 48,
                    "time": 97.35845000000016,
                    "velocity": 0.5039370078740157,
                    "duration": 2.2641500000000008
                }
            ],
            "controlChanges": {
                "7": [
                    {
                        "number": 7,
                        "time": 0,
                        "value": 1
                    }
                ],
                "10": [
                    {
                        "number": 10,
                        "time": 0,
                        "value": 0.1889763779527559
                    }
                ],
                "91": [
                    {
                        "number": 91,
                        "time": 0,
                        "value": 0.15748031496062992
                    }
                ],
                "121": [
                    {
                        "number": 121,
                        "time": 0,
                        "value": 0
                    },
                    {
                        "number": 121,
                        "time": 98.49052500000016,
                        "value": 0
                    }
                ]
            },
            "id": 4,
            "name": "-         ",
            "instrumentNumber": 73,
            "instrument": "flute",
            "instrumentFamily": "pipe",
            "channelNumber": 3,
            "isPercussion": false
        },
        {
            "startTime": 0,
            "duration": 0,
            "length": 0,
            "notes": [],
            "controlChanges": {},
            "id": 5,
            "name": "text      "
        }
    ]
}