{
    "header": {
        "PPQ": 192,
        "bpm": 83.0000650167176,
        "timeSignature": [
            4,
            4
        ],
        "name": "text      "
    },
    "startTime": 0,
    "duration": 90.31619431250013,
    "tracks": [
        {
            "startTime": 0,
            "duration": 0,
            "length": 0,
            "notes": [],
            "controlChanges": {},
            "id": 0
        },
        {
            "startTime": 0.18072275,
            "duration": 90.31619431250013,
            "length": 402,
            "notes": [
                {
                    "name": "E4",
                    "midi": 64,
                    "time": 0.18072275,
                    "velocity": 0.6299212598425197,
                    "duration": 1.2349387916666665
                },
                {
                    "name": "G4",
                    "midi": 67,
                    "time": 0.54216825,
                    "velocity": 0.6299212598425197,
                    "duration": 0.6287645677083333
                },
                {
                    "name": "B4",
                    "midi": 71,
                    "time": 0.90361375,
                    "velocity": 0.6299212598425197,
                    "duration": 0.5045176770833332
                },
                {
                    "name": "G4",
                    "midi": 67,
                    "time": 1.26505925,
                    "velocity": 0.6299212598425197,
                    "duration": 0.16942757812499987
                },
                {
                    "name": "B4",
                    "midi": 71,
                    "time": 1.445782,
                    "velocity": 0.6299212598425197,
                    "duration": 0.5271080208333332
                },
                {
                    "name": "F#4",
                    "midi": 66,
                    "time": 1.6265047499999998,
                    "velocity": 0.6299212598425197,
                    "duration": 0.5421682499999998
                },
                {
                    "name": "A4",
                    "midi": 69,
                    "time": 1.9879502499999997,
                    "velocity": 0.6299212598425197,
                    "duration": 0.33132504166666643
                },
                {
                    "name": "G4",
                    "midi": 67,
                    "time": 2.3493957499999993,
                    "velocity": 0.6299212598425197,
                    "duration": 0.3200298697916666
                },
                {
                    "name": "F#4",
                    "midi": 66,
                    "time": 2.710841249999999,
                    "velocity": 0.6299212598425197,
                    "duration": 0.1506022916666665
                },
                {
                    "name": "E4",
                    "midi": 64,
                    "time": 3.072286749999999,
                    "velocity": 0.6299212598425197,
                    "duration": 0.33132504166666665
                },
                {
                    "name": "G4",
                    "midi": 67,
                    "time": 3.433732249999999,
                    "velocity": 0.6299212598425197,
                    "duration": 0.29743952604166646
                },
                {
                    "name": "F#4",
                    "midi": 66,
                    "time": 3.795177749999999,
                    "velocity": 0.6299212598425197,
                    "duration": 0.32002986979166703
                },
                {
                    "name": "E4",
                    "midi": 64,
                    "time": 4.156623249999999,
                    "velocity": 0.6299212598425197,
                    "duration": 0.2936744687499999
                },
                {
                    "name": "D#4",
                    "midi": 63,
                    "time": 4.518068749999999,
                    "velocity": 0.6299212598425197,
                    "duration": 0.3313250416666662
                },
                {
                    "name": "C#4",
                    "midi": 61,
                    "time": 4.879514249999999,
                    "velocity": 0.6299212598425197,
                    "duration": 0.2936744687499999
                },
                {
                    "name": "D#4",
                    "midi": 63,
                    "time": 5.240959749999999,
                    "velocity": 0.6299212598425197,
                    "duration": 0.5120477916666673
                },
                {
                    "name": "B3",
                    "midi": 59,
                    "time": 5.6024052499999994,
                    "velocity": 0.6299212598425197,
                    "duration": 0.15060229166666694
                },
                {
                    "name": "E4",
                    "midi": 64,
                    "time": 5.96385075,
                    "velocity": 0.6299212598425197,
                    "duration": 0.5308730781250004
                },
                {
                    "name": "B3",
                    "midi": 59,
                    "time": 6.32529625,
                    "velocity": 0.6299212598425197,
                    "duration": 0.17319263541666707
                },
                {
                    "name": "F#4",
                    "midi": 66,
                    "time": 6.68674175,
                    "velocity": 0.6299212598425197,
                    "duration": 0.5120477916666673
                },
                {
                    "name": "A3",
                    "midi": 57,
                    "time": 7.048187250000001,
                    "velocity": 0.6299212598425197,
                    "duration": 0.17319263541666707
                },
                {
                    "name": "B3",
                    "midi": 59,
                    "time": 7.402102635416668,
                    "velocity": 0.6299212598425197,
                    "duration": 0.5496983645833327
                },
                {
                    "name": "E4",
                    "midi": 64,
                    "time": 7.409632750000001,
                    "velocity": 0.6299212598425197,
                    "duration": 0.5346381354166665
                },
                {
                    "name": "G4",
                    "midi": 67,
                    "time": 7.420927921875001,
                    "velocity": 0.6299212598425197,
                    "duration": 0.5120477916666664
                },
                {
                    "name": "B5",
                    "midi": 83,
                    "time": 7.9555660572916675,
                    "velocity": 0.6299212598425197,
                    "duration": 0.4743972187499992
                },
                {
                    "name": "B5",
                    "midi": 83,
                    "time": 8.49396925,
                    "velocity": 0.6299212598425197,
                    "duration": 0.14307217708333297
                },
                {
                    "name": "A5",
                    "midi": 81,
                    "time": 8.674691999999999,
                    "velocity": 0.6299212598425197,
                    "duration": 0.22590343749999953
                },
                {
                    "name": "G5",
                    "midi": 79,
                    "time": 8.900595437499998,
                    "velocity": 0.6299212598425197,
                    "duration": 0.04518068750000026
                },
                {
                    "name": "A5",
                    "midi": 81,
                    "time": 8.945776124999998,
                    "velocity": 0.6299212598425197,
                    "duration": 0.04518068750000026
                },
                {
                    "name": "G5",
                    "midi": 79,
                    "time": 8.990956812499999,
                    "velocity": 0.6299212598425197,
                    "duration": 0.04518068750000026
                },
                {
                    "name": "A5",
                    "midi": 81,
                    "time": 9.036137499999999,
                    "velocity": 0.6299212598425197,
                    "duration": 0.04518068750000026
                },
                {
                    "name": "G5",
                    "midi": 79,
                    "time": 9.081318187499999,
                    "velocity": 0.6299212598425197,
                    "duration": 0.04518068750000026
                },
                {
                    "name": "A5",
                    "midi": 81,
                    "time": 9.126498875,
                    "velocity": 0.6299212598425197,
                    "duration": 0.08659631770833442
                },
                {
                    "name": "G5",
                    "midi": 79,
                    "time": 9.167914505208334,
                    "velocity": 0.6299212598425197,
                    "duration": 0.0037650572916660963
                },
                {
                    "name": "G5",
                    "midi": 79,
                    "time": 9.224390364583334,
                    "velocity": 0.6299212598425197,
                    "duration": 0.14307217708333297
                },
                {
                    "name": "A5",
                    "midi": 81,
                    "time": 9.397583000000001,
                    "velocity": 0.6299212598425197,
                    "duration": 0.18072274999999927
                },
                {
                    "name": "G5",
                    "midi": 79,
                    "time": 9.57830575,
                    "velocity": 0.6299212598425197,
                    "duration": 0.15060229166666694
                },
                {
                    "name": "F#5",
                    "midi": 78,
                    "time": 9.759028500000001,
                    "velocity": 0.6299212598425197,
                    "duration": 0.18072274999999927
                },
                {
                    "name": "E5",
                    "midi": 76,
                    "time": 9.93975125,
                    "velocity": 0.6299212598425197,
                    "duration": 0.14307217708333297
                },
                {
                    "name": "B5",
                    "midi": 83,
                    "time": 10.120474,
                    "velocity": 0.6299212598425197,
                    "duration": 0.6814753697916665
                },
                {
                    "name": "G5",
                    "midi": 79,
                    "time": 10.843365,
                    "velocity": 0.6299212598425197,
                    "duration": 0.09036137500000052
                },
                {
                    "name": "F#5",
                    "midi": 78,
                    "time": 10.933726375,
                    "velocity": 0.6299212598425197,
                    "duration": 0.09036137500000052
                },
                {
                    "name": "G5",
                    "midi": 79,
                    "time": 11.024087750000001,
                    "velocity": 0.6299212598425197,
                    "duration": 0.09036137500000052
                },
                {
                    "name": "F#5",
                    "midi": 78,
                    "time": 11.114449125000002,
                    "velocity": 0.6299212598425197,
                    "duration": 0.09036137500000052
                },
                {
                    "name": "G5",
                    "midi": 79,
                    "time": 11.204810500000002,
                    "velocity": 0.6299212598425197,
                    "duration": 0.09036137500000052
                },
                {
                    "name": "F#5",
                    "midi": 78,
                    "time": 11.295171875000003,
                    "velocity": 0.6299212598425197,
                    "duration": 0.2560238958333336
                },
                {
                    "name": "A5",
                    "midi": 81,
                    "time": 12.289147000000003,
                    "velocity": 0.6299212598425197,
                    "duration": 0.4743972187499992
                },
                {
                    "name": "A5",
                    "midi": 81,
                    "time": 12.831315250000003,
                    "velocity": 0.6299212598425197,
                    "duration": 0.14307217708333297
                },
                {
                    "name": "E5",
                    "midi": 76,
                    "time": 13.012038000000002,
                    "velocity": 0.6299212598425197,
                    "duration": 0.22590343749999953
                },
                {
                    "name": "D#5",
                    "midi": 75,
                    "time": 13.237941437500002,
                    "velocity": 0.6299212598425197,
                    "duration": 0.04518068750000026
                },
                {
                    "name": "E5",
                    "midi": 76,
                    "time": 13.283122125000002,
                    "velocity": 0.6299212598425197,
                    "duration": 0.04518068750000026
                },
                {
                    "name": "D#5",
                    "midi": 75,
                    "time": 13.328302812500002,
                    "velocity": 0.6299212598425197,
                    "duration": 0.18825286458333323
                },
                {
                    "name": "D#5",
                    "midi": 75,
                    "time": 13.554206250000002,
                    "velocity": 0.6299212598425197,
                    "duration": 0.14307217708333297
                },
                {
                    "name": "E5",
                    "midi": 76,
                    "time": 13.734929000000001,
                    "velocity": 0.6299212598425197,
                    "duration": 0.18072274999999927
                },
                {
                    "name": "D#5",
                    "midi": 75,
                    "time": 13.91565175,
                    "velocity": 0.6299212598425197,
                    "duration": 0.15436734895833304
                },
                {
                    "name": "C#5",
                    "midi": 73,
                    "time": 14.0963745,
                    "velocity": 0.6299212598425197,
                    "duration": 0.18072274999999927
                },
                {
                    "name": "B4",
                    "midi": 71,
                    "time": 14.277097249999999,
                    "velocity": 0.6299212598425197,
                    "duration": 0.14307217708333297
                },
                {
                    "name": "E5",
                    "midi": 76,
                    "time": 14.457819999999998,
                    "velocity": 0.6299212598425197,
                    "duration": 0.09036137500000052
                },
                {
                    "name": "D#5",
                    "midi": 75,
                    "time": 14.548181374999999,
                    "velocity": 0.6299212598425197,
                    "duration": 0.09036137500000052
                },
                {
                    "name": "E5",
                    "midi": 76,
                    "time": 14.63854275,
                    "velocity": 0.6299212598425197,
                    "duration": 0.3426202135416663
                },
                {
                    "name": "F#5",
                    "midi": 78,
                    "time": 15.007518364583332,
                    "velocity": 0.6299212598425197,
                    "duration": 0.13554206250000078
                },
                {
                    "name": "G5",
                    "midi": 79,
                    "time": 15.180710999999999,
                    "velocity": 0.6299212598425197,
                    "duration": 0.09036137500000052
                },
                {
                    "name": "F#5",
                    "midi": 78,
                    "time": 15.271072375,
                    "velocity": 0.6299212598425197,
                    "duration": 0.09036137500000052
                },
                {
                    "name": "G5",
                    "midi": 79,
                    "time": 15.36143375,
                    "velocity": 0.6299212598425197,
                    "duration": 0.09036137500000052
                },
                {
                    "name": "F#5",
                    "midi": 78,
                    "time": 15.451795125,
                    "velocity": 0.6299212598425197,
                    "duration": 0.07153608854166649
                },
                {
                    "name": "E5",
                    "midi": 76,
                    "time": 15.5421565,
                    "velocity": 0.6299212598425197,
                    "duration": 0.18072274999999927
                },
                {
                    "name": "F#5",
                    "midi": 78,
                    "time": 15.72287925,
                    "velocity": 0.6299212598425197,
                    "duration": 0.14307217708333297
                },
                {
                    "name": "G5",
                    "midi": 79,
                    "time": 15.903602,
                    "velocity": 0.6299212598425197,
                    "duration": 1.6001493489583325
                },
                {
                    "name": "A5",
                    "midi": 81,
                    "time": 17.530106749999998,
                    "velocity": 0.6299212598425197,
                    "duration": 0.14307217708333297
                },
                {
                    "name": "F#5",
                    "midi": 78,
                    "time": 17.7108295,
                    "velocity": 0.6299212598425197,
                    "duration": 0.15436734895833482
                },
                {
                    "name": "G5",
                    "midi": 79,
                    "time": 17.89155225,
                    "velocity": 0.6299212598425197,
                    "duration": 0.14307217708333297
                },
                {
                    "name": "A5",
                    "midi": 81,
                    "time": 18.072275,
                    "velocity": 0.6299212598425197,
                    "duration": 0.09036137500000052
                },
                {
                    "name": "G5",
                    "midi": 79,
                    "time": 18.162636375,
                    "velocity": 0.6299212598425197,
                    "duration": 0.09036137500000052
                },
                {
                    "name": "A5",
                    "midi": 81,
                    "time": 18.252997750000002,
                    "velocity": 0.6299212598425197,
                    "duration": 0.09036137500000052
                },
                {
                    "name": "G5",
                    "midi": 79,
                    "time": 18.343359125000003,
                    "velocity": 0.6299212598425197,
                    "duration": 0.09036137500000052
                },
                {
                    "name": "A5",
                    "midi": 81,
                    "time": 18.433720500000003,
                    "velocity": 0.6299212598425197,
                    "duration": 0.09036137500000052
                },
                {
                    "name": "G5",
                    "midi": 79,
                    "time": 18.524081875000004,
                    "velocity": 0.6299212598425197,
                    "duration": 0.07153608854166649
                },
                {
                    "name": "F#5",
                    "midi": 78,
                    "time": 18.614443250000004,
                    "velocity": 0.6299212598425197,
                    "duration": 0.14307217708333297
                },
                {
                    "name": "F#5",
                    "midi": 78,
                    "time": 18.795166000000005,
                    "velocity": 0.6299212598425197,
                    "duration": 1.4307217708333333
                },
                {
                    "name": "F#4",
                    "midi": 66,
                    "time": 20.060225250000006,
                    "velocity": 0.6299212598425197,
                    "duration": 0.1581324062500009
                },
                {
                    "name": "E4",
                    "midi": 64,
                    "time": 20.421670750000004,
                    "velocity": 0.6299212598425197,
                    "duration": 0.6513549114583341
                },
                {
                    "name": "G4",
                    "midi": 67,
                    "time": 20.79064636458334,
                    "velocity": 0.6299212598425197,
                    "duration": 0.28614435416666595
                },
                {
                    "name": "F#4",
                    "midi": 66,
                    "time": 21.144561750000005,
                    "velocity": 0.6299212598425197,
                    "duration": 0.3200298697916679
                },
                {
                    "name": "E4",
                    "midi": 64,
                    "time": 21.51353736458334,
                    "velocity": 0.6299212598425197,
                    "duration": 0.28614435416666595
                },
                {
                    "name": "D#4",
                    "midi": 63,
                    "time": 21.867452750000005,
                    "velocity": 0.6299212598425197,
                    "duration": 0.3350900989583323
                },
                {
                    "name": "C#4",
                    "midi": 61,
                    "time": 22.236428364583336,
                    "velocity": 0.6299212598425197,
                    "duration": 0.28614435416666595
                },
                {
                    "name": "D#4",
                    "midi": 63,
                    "time": 22.590343750000002,
                    "velocity": 0.6299212598425197,
                    "duration": 0.5007526197916654
                },
                {
                    "name": "B3",
                    "midi": 59,
                    "time": 22.95178925,
                    "velocity": 0.6299212598425197,
                    "duration": 0.14307217708333297
                },
                {
                    "name": "E4",
                    "midi": 64,
                    "time": 23.31323475,
                    "velocity": 0.6299212598425197,
                    "duration": 0.5271080208333316
                },
                {
                    "name": "B3",
                    "midi": 59,
                    "time": 23.674680249999998,
                    "velocity": 0.6299212598425197,
                    "duration": 0.1656625208333331
                },
                {
                    "name": "F#4",
                    "midi": 66,
                    "time": 24.036125749999997,
                    "velocity": 0.6299212598425197,
                    "duration": 0.4932225052083332
                },
                {
                    "name": "A3",
                    "midi": 57,
                    "time": 24.397571249999995,
                    "velocity": 0.6299212598425197,
                    "duration": 0.14307217708333297
                },
                {
                    "name": "B3",
                    "midi": 59,
                    "time": 24.75148663541666,
                    "velocity": 0.6299212598425197,
                    "duration": 0.5346381354166638
                },
                {
                    "name": "E4",
                    "midi": 64,
                    "time": 24.759016749999994,
                    "velocity": 0.6299212598425197,
                    "duration": 0.5233429635416655
                },
                {
                    "name": "G4",
                    "midi": 67,
                    "time": 24.766546864583326,
                    "velocity": 0.6299212598425197,
                    "duration": 0.5082827343750012
                },
                {
                    "name": "B5",
                    "midi": 83,
                    "time": 25.301184999999993,
                    "velocity": 0.6299212598425197,
                    "duration": 0.5007526197916654
                },
                {
                    "name": "B5",
                    "midi": 83,
                    "time": 25.85464842187499,
                    "velocity": 0.6299212598425197,
                    "duration": 0.14307217708333297
                },
                {
                    "name": "A5",
                    "midi": 81,
                    "time": 26.02407599999999,
                    "velocity": 0.6299212598425197,
                    "duration": 0.2259034375000013
                },
                {
                    "name": "G5",
                    "midi": 79,
                    "time": 26.24997943749999,
                    "velocity": 0.6299212598425197,
                    "duration": 0.04518068750000026
                },
                {
                    "name": "A5",
                    "midi": 81,
                    "time": 26.295160124999992,
                    "velocity": 0.6299212598425197,
                    "duration": 0.04518068750000026
                },
                {
                    "name": "G5",
                    "midi": 79,
                    "time": 26.340340812499992,
                    "velocity": 0.6299212598425197,
                    "duration": 0.041415630208334164
                },
                {
                    "name": "A5",
                    "midi": 81,
                    "time": 26.38928655729166,
                    "velocity": 0.6299212598425197,
                    "duration": 0.04518068750000026
                },
                {
                    "name": "G5",
                    "midi": 79,
                    "time": 26.430702187499993,
                    "velocity": 0.6299212598425197,
                    "duration": 0.271084124999998
                },
                {
                    "name": "A5",
                    "midi": 81,
                    "time": 26.74696699999999,
                    "velocity": 0.6299212598425197,
                    "duration": 0.19578297916666543
                },
                {
                    "name": "G5",
                    "midi": 79,
                    "time": 26.942749979166656,
                    "velocity": 0.6299212598425197,
                    "duration": 0.14307217708333297
                },
                {
                    "name": "F#5",
                    "midi": 78,
                    "time": 27.10841249999999,
                    "velocity": 0.6299212598425197,
                    "duration": 0.19954803645833508
                },
                {
                    "name": "E5",
                    "midi": 76,
                    "time": 27.307960536458324,
                    "velocity": 0.6299212598425197,
                    "duration": 0.14683723437499907
                },
                {
                    "name": "B5",
                    "midi": 83,
                    "time": 27.46985799999999,
                    "velocity": 0.6299212598425197,
                    "duration": 0.6249995104166679
                },
                {
                    "name": "G5",
                    "midi": 79,
                    "time": 28.192748999999992,
                    "velocity": 0.6299212598425197,
                    "duration": 0.09036137500000052
                },
                {
                    "name": "F#5",
                    "midi": 78,
                    "time": 28.283110374999993,
                    "velocity": 0.6299212598425197,
                    "duration": 0.09036137500000052
                },
                {
                    "name": "G5",
                    "midi": 79,
                    "time": 28.373471749999993,
                    "velocity": 0.6299212598425197,
                    "duration": 0.09036137500000052
                },
                {
                    "name": "F#5",
                    "midi": 78,
                    "time": 28.463833124999994,
                    "velocity": 0.6299212598425197,
                    "duration": 0.09036137500000052
                },
                {
                    "name": "G5",
                    "midi": 79,
                    "time": 28.554194499999994,
                    "velocity": 0.6299212598425197,
                    "duration": 0.09036137500000052
                },
                {
                    "name": "F#5",
                    "midi": 78,
                    "time": 28.644555874999995,
                    "velocity": 0.6299212598425197,
                    "duration": 0.09036137500000052
                },
                {
                    "name": "G5",
                    "midi": 79,
                    "time": 28.734917249999995,
                    "velocity": 0.6299212598425197,
                    "duration": 0.09036137500000052
                },
                {
                    "name": "F#5",
                    "midi": 78,
                    "time": 28.825278624999996,
                    "velocity": 0.6220472440944882,
                    "duration": 0.08659631770833442
                },
                {
                    "name": "A5",
                    "midi": 81,
                    "time": 29.638530999999997,
                    "velocity": 0.6299212598425197,
                    "duration": 0.4894574479166671
                },
                {
                    "name": "A5",
                    "midi": 81,
                    "time": 30.191994421875,
                    "velocity": 0.6299212598425197,
                    "duration": 0.15436734895833482
                },
                {
                    "name": "E5",
                    "midi": 76,
                    "time": 30.361422,
                    "velocity": 0.6299212598425197,
                    "duration": 0.2259034375000013
                },
                {
                    "name": "D#5",
                    "midi": 75,
                    "time": 30.587325437500002,
                    "velocity": 0.6299212598425197,
                    "duration": 0.04518068750000026
                },
                {
                    "name": "E5",
                    "midi": 76,
                    "time": 30.632506125000003,
                    "velocity": 0.6299212598425197,
                    "duration": 0.04518068750000026
                },
                {
                    "name": "D#5",
                    "midi": 75,
                    "time": 30.677686812500003,
                    "velocity": 0.6299212598425197,
                    "duration": 0.04518068750000026
                },
                {
                    "name": "E5",
                    "midi": 76,
                    "time": 30.72663255729167,
                    "velocity": 0.6220472440944882,
                    "duration": 0.04518068750000026
                },
                {
                    "name": "D#5",
                    "midi": 75,
                    "time": 30.775578302083336,
                    "velocity": 0.6220472440944882,
                    "duration": 0.04518068750000026
                },
                {
                    "name": "E5",
                    "midi": 76,
                    "time": 30.824524046875002,
                    "velocity": 0.6220472440944882,
                    "duration": 0.04518068750000026
                },
                {
                    "name": "D#5",
                    "midi": 75,
                    "time": 30.877234848958334,
                    "velocity": 0.6299212598425197,
                    "duration": 0.15060229166666517
                },
                {
                    "name": "E5",
                    "midi": 76,
                    "time": 31.084312999999998,
                    "velocity": 0.6299212598425197,
                    "duration": 0.19954803645833508
                },
                {
                    "name": "D#5",
                    "midi": 75,
                    "time": 31.283861036458333,
                    "velocity": 0.6299212598425197,
                    "duration": 0.14307217708333297
                },
                {
                    "name": "C#5",
                    "midi": 73,
                    "time": 31.4457585,
                    "velocity": 0.6299212598425197,
                    "duration": 0.19954803645833508
                },
                {
                    "name": "B4",
                    "midi": 71,
                    "time": 31.645306536458335,
                    "velocity": 0.6299212598425197,
                    "duration": 0.13177700520833469
                },
                {
                    "name": "E5",
                    "midi": 76,
                    "time": 31.807204000000002,
                    "velocity": 0.6299212598425197,
                    "duration": 0.09036137500000052
                },
                {
                    "name": "D#5",
                    "midi": 75,
                    "time": 31.897565375000003,
                    "velocity": 0.6299212598425197,
                    "duration": 0.09036137500000052
                },
                {
                    "name": "E5",
                    "midi": 76,
                    "time": 31.987926750000003,
                    "velocity": 0.6299212598425197,
                    "duration": 0.33885515625000195
                },
                {
                    "name": "F#5",
                    "midi": 78,
                    "time": 32.34937225,
                    "velocity": 0.6299212598425197,
                    "duration": 0.14307217708333297
                },
                {
                    "name": "G5",
                    "midi": 79,
                    "time": 32.530095,
                    "velocity": 0.6299212598425197,
                    "duration": 0.09036137500000052
                },
                {
                    "name": "F#5",
                    "midi": 78,
                    "time": 32.620456375,
                    "velocity": 0.6299212598425197,
                    "duration": 0.09036137500000052
                },
                {
                    "name": "G5",
                    "midi": 79,
                    "time": 32.710817750000004,
                    "velocity": 0.6299212598425197,
                    "duration": 0.09036137500000052
                },
                {
                    "name": "F#5",
                    "midi": 78,
                    "time": 32.801179125000004,
                    "velocity": 0.6299212598425197,
                    "duration": 0.07153608854167004
                },
                {
                    "name": "E5",
                    "midi": 76,
                    "time": 32.891540500000005,
                    "velocity": 0.6299212598425197,
                    "duration": 0.19201792187499933
                },
                {
                    "name": "F#5",
                    "midi": 78,
                    "time": 33.083558421875004,
                    "velocity": 0.6299212598425197,
                    "duration": 0.13177700520833469
                },
                {
                    "name": "G5",
                    "midi": 79,
                    "time": 33.25298600000001,
                    "velocity": 0.6299212598425197,
                    "duration": 1.6152095781249969
                },
                {
                    "name": "A5",
                    "midi": 81,
                    "time": 34.890785921875,
                    "velocity": 0.6299212598425197,
                    "duration": 0.14307217708333297
                },
                {
                    "name": "F#5",
                    "midi": 78,
                    "time": 35.0602135,
                    "velocity": 0.6299212598425197,
                    "duration": 0.16942757812500275
                },
                {
                    "name": "G5",
                    "midi": 79,
                    "time": 35.255996479166676,
                    "velocity": 0.6299212598425197,
                    "duration": 0.14307217708333297
                },
                {
                    "name": "A5",
                    "midi": 81,
                    "time": 35.421659000000005,
                    "velocity": 0.6299212598425197,
                    "duration": 0.09036137500000052
                },
                {
                    "name": "G5",
                    "midi": 79,
                    "time": 35.512020375000006,
                    "velocity": 0.6299212598425197,
                    "duration": 0.09036137500000052
                },
                {
                    "name": "A5",
                    "midi": 81,
                    "time": 35.602381750000006,
                    "velocity": 0.6299212598425197,
                    "duration": 0.09036137500000052
                },
                {
                    "name": "G5",
                    "midi": 79,
                    "time": 35.69274312500001,
                    "velocity": 0.6299212598425197,
                    "duration": 0.09036137500000052
                },
                {
                    "name": "A5",
                    "midi": 81,
                    "time": 35.78310450000001,
                    "velocity": 0.6299212598425197,
                    "duration": 0.09036137500000052
                },
                {
                    "name": "G5",
                    "midi": 79,
                    "time": 35.87346587500001,
                    "velocity": 0.6299212598425197,
                    "duration": 0.07530114583333614
                },
                {
                    "name": "F#5",
                    "midi": 78,
                    "time": 35.967592307291675,
                    "velocity": 0.6299212598425197,
                    "duration": 0.14307217708333297
                },
                {
                    "name": "F#5",
                    "midi": 78,
                    "time": 36.14455000000001,
                    "velocity": 0.6299212598425197,
                    "duration": 1.046685927083331
                },
                {
                    "name": "F#4",
                    "midi": 66,
                    "time": 37.40960925000001,
                    "velocity": 0.6299212598425197,
                    "duration": 0.17695769270833495
                },
                {
                    "name": "E4",
                    "midi": 64,
                    "time": 37.77105475000001,
                    "velocity": 0.6299212598425197,
                    "duration": 0.5384031927083299
                },
                {
                    "name": "E5",
                    "midi": 76,
                    "time": 38.31322300000001,
                    "velocity": 0.6299212598425197,
                    "duration": 0.09036137500000052
                },
                {
                    "name": "D#5",
                    "midi": 75,
                    "time": 38.40358437500001,
                    "velocity": 0.6299212598425197,
                    "duration": 0.09036137500000052
                },
                {
                    "name": "E5",
                    "midi": 76,
                    "time": 38.49394575000001,
                    "velocity": 0.6299212598425197,
                    "duration": 0.3350900989583323
                },
                {
                    "name": "E5",
                    "midi": 76,
                    "time": 38.86292136458334,
                    "velocity": 0.6299212598425197,
                    "duration": 0.13930711979166688
                },
                {
                    "name": "E5",
                    "midi": 76,
                    "time": 39.03611400000001,
                    "velocity": 0.6299212598425197,
                    "duration": 0.09036137500000052
                },
                {
                    "name": "D5",
                    "midi": 74,
                    "time": 39.12647537500001,
                    "velocity": 0.6299212598425197,
                    "duration": 0.09036137500000052
                },
                {
                    "name": "E5",
                    "midi": 76,
                    "time": 39.21683675000001,
                    "velocity": 0.6299212598425197,
                    "duration": 0.09036137500000052
                },
                {
                    "name": "D5",
                    "midi": 74,
                    "time": 39.30719812500001,
                    "velocity": 0.6299212598425197,
                    "duration": 0.08659631770833442
                },
                {
                    "name": "B4",
                    "midi": 71,
                    "time": 39.397559500000014,
                    "velocity": 0.6299212598425197,
                    "duration": 0.3275599843750001
                },
                {
                    "name": "C5",
                    "midi": 72,
                    "time": 39.759005000000016,
                    "velocity": 0.6299212598425197,
                    "duration": 0.5271080208333316
                },
                {
                    "name": "D5",
                    "midi": 74,
                    "time": 40.30493830729168,
                    "velocity": 0.6299212598425197,
                    "duration": 0.14307217708333297
                },
                {
                    "name": "C5",
                    "midi": 72,
                    "time": 40.48189600000001,
                    "velocity": 0.6299212598425197,
                    "duration": 0.09036137500000052
                },
                {
                    "name": "B4",
                    "midi": 71,
                    "time": 40.572257375000014,
                    "velocity": 0.6299212598425197,
                    "duration": 0.09036137500000052
                },
                {
                    "name": "C5",
                    "midi": 72,
                    "time": 40.662618750000014,
                    "velocity": 0.6299212598425197,
                    "duration": 0.09036137500000052
                },
                {
                    "name": "B4",
                    "midi": 71,
                    "time": 40.752980125000015,
                    "velocity": 0.6299212598425197,
                    "duration": 0.07530114583333614
                },
                {
                    "name": "A4",
                    "midi": 69,
                    "time": 40.843341500000015,
                    "velocity": 0.6299212598425197,
                    "duration": 0.18072275000000104
                },
                {
                    "name": "G4",
                    "midi": 67,
                    "time": 41.03159436458335,
                    "velocity": 0.6299212598425197,
                    "duration": 0.14307217708333297
                },
                {
                    "name": "A5",
                    "midi": 81,
                    "time": 41.20478700000002,
                    "velocity": 0.6299212598425197,
                    "duration": 0.09036137500000052
                },
                {
                    "name": "G5",
                    "midi": 79,
                    "time": 41.29514837500002,
                    "velocity": 0.6299212598425197,
                    "duration": 0.08659631770833442
                },
                {
                    "name": "A5",
                    "midi": 81,
                    "time": 41.38550975000002,
                    "velocity": 0.6299212598425197,
                    "duration": 0.3539153854166699
                },
                {
                    "name": "B5",
                    "midi": 83,
                    "time": 41.75825042187502,
                    "velocity": 0.6299212598425197,
                    "duration": 0.13930711979166688
                },
                {
                    "name": "A5",
                    "midi": 81,
                    "time": 41.92767800000002,
                    "velocity": 0.6299212598425197,
                    "duration": 0.19201792187499933
                },
                {
                    "name": "G5",
                    "midi": 79,
                    "time": 42.11969592187502,
                    "velocity": 0.6299212598425197,
                    "duration": 0.13554206250000078
                },
                {
                    "name": "F#5",
                    "midi": 78,
                    "time": 42.289123500000024,
                    "velocity": 0.6299212598425197,
                    "duration": 0.19201792187499933
                },
                {
                    "name": "E5",
                    "midi": 76,
                    "time": 42.48114142187502,
                    "velocity": 0.6299212598425197,
                    "duration": 0.13554206250000078
                },
                {
                    "name": "G5",
                    "midi": 79,
                    "time": 42.650569000000026,
                    "velocity": 0.6299212598425197,
                    "duration": 0.18825286458333323
                },
                {
                    "name": "F#5",
                    "midi": 78,
                    "time": 42.83882186458336,
                    "velocity": 0.6299212598425197,
                    "duration": 0.14307217708333297
                },
                {
                    "name": "E5",
                    "midi": 76,
                    "time": 43.01201450000003,
                    "velocity": 0.6299212598425197,
                    "duration": 0.19201792187499933
                },
                {
                    "name": "D#5",
                    "midi": 75,
                    "time": 43.20403242187503,
                    "velocity": 0.6299212598425197,
                    "duration": 0.13930711979166688
                },
                {
                    "name": "E5",
                    "midi": 76,
                    "time": 43.37346000000003,
                    "velocity": 0.6299212598425197,
                    "duration": 0.09036137500000052
                },
                {
                    "name": "D5",
                    "midi": 74,
                    "time": 43.46382137500003,
                    "velocity": 0.6299212598425197,
                    "duration": 0.08659631770833442
                },
                {
                    "name": "E5",
                    "midi": 76,
                    "time": 43.55418275000003,
                    "velocity": 0.6299212598425197,
                    "duration": 0.17319263541666885
                },
                {
                    "name": "C5",
                    "midi": 72,
                    "time": 43.73490550000003,
                    "velocity": 0.6299212598425197,
                    "duration": 0.28614435416666595
                },
                {
                    "name": "B5",
                    "midi": 83,
                    "time": 44.096351000000034,
                    "velocity": 0.6299212598425197,
                    "duration": 0.41792135937500063
                },
                {
                    "name": "F#5",
                    "midi": 78,
                    "time": 44.457796500000036,
                    "velocity": 0.6299212598425197,
                    "duration": 0.15060229166666517
                },
                {
                    "name": "F#5",
                    "midi": 78,
                    "time": 44.64604936458337,
                    "velocity": 0.6299212598425197,
                    "duration": 0.13554206250000078
                },
                {
                    "name": "G5",
                    "midi": 79,
                    "time": 44.81924200000004,
                    "velocity": 0.6299212598425197,
                    "duration": 0.09036137500000052
                },
                {
                    "name": "F#5",
                    "midi": 78,
                    "time": 44.90960337500004,
                    "velocity": 0.6299212598425197,
                    "duration": 0.09036137500000052
                },
                {
                    "name": "G5",
                    "midi": 79,
                    "time": 44.99996475000004,
                    "velocity": 0.6299212598425197,
                    "duration": 0.09036137500000052
                },
                {
                    "name": "F#5",
                    "midi": 78,
                    "time": 45.09032612500004,
                    "velocity": 0.6299212598425197,
                    "duration": 0.09036137500000052
                },
                {
                    "name": "G5",
                    "midi": 79,
                    "time": 45.18068750000004,
                    "velocity": 0.6299212598425197,
                    "duration": 0.09036137500000052
                },
                {
                    "name": "F#5",
                    "midi": 78,
                    "time": 45.27104887500004,
                    "velocity": 0.6299212598425197,
                    "duration": 0.09036137500000052
                },
                {
                    "name": "G5",
                    "midi": 79,
                    "time": 45.36141025000004,
                    "velocity": 0.6299212598425197,
                    "duration": 0.09036137500000052
                },
                {
                    "name": "F#5",
                    "midi": 78,
                    "time": 45.45177162500004,
                    "velocity": 0.6299212598425197,
                    "duration": 0.09036137500000052
                },
                {
                    "name": "G5",
                    "midi": 79,
                    "time": 45.54213300000004,
                    "velocity": 0.6299212598425197,
                    "duration": 0.09036137500000052
                },
                {
                    "name": "F#5",
                    "midi": 78,
                    "time": 45.63249437500004,
                    "velocity": 0.6299212598425197,
                    "duration": 0.09036137500000052
                },
                {
                    "name": "G5",
                    "midi": 79,
                    "time": 45.72285575000004,
                    "velocity": 0.6299212598425197,
                    "duration": 0.09036137500000052
                },
                {
                    "name": "F#5",
                    "midi": 78,
                    "time": 45.813217125000044,
                    "velocity": 0.6299212598425197,
                    "duration": 0.07530114583333614
                },
                {
                    "name": "B5",
                    "midi": 83,
                    "time": 45.91110861458338,
                    "velocity": 0.6299212598425197,
                    "duration": 0.28990941145833204
                },
                {
                    "name": "B5",
                    "midi": 83,
                    "time": 46.26502400000004,
                    "velocity": 0.6299212598425197,
                    "duration": 0.3313250416666662
                },
                {
                    "name": "A5",
                    "midi": 81,
                    "time": 46.62646950000004,
                    "velocity": 0.6299212598425197,
                    "duration": 0.16942757812500275
                },
                {
                    "name": "G5",
                    "midi": 79,
                    "time": 46.81848742187504,
                    "velocity": 0.6299212598425197,
                    "duration": 0.13554206250000078
                },
                {
                    "name": "F#5",
                    "midi": 78,
                    "time": 46.987915000000044,
                    "velocity": 0.6299212598425197,
                    "duration": 0.18448780729166714
                },
                {
                    "name": "G5",
                    "midi": 79,
                    "time": 47.17240280729171,
                    "velocity": 0.6299212598425197,
                    "duration": 0.14307217708333297
                },
                {
                    "name": "F#5",
                    "midi": 78,
                    "time": 47.349360500000046,
                    "velocity": 0.6299212598425197,
                    "duration": 0.18448780729166714
                },
                {
                    "name": "E5",
                    "midi": 76,
                    "time": 47.53384830729171,
                    "velocity": 0.6299212598425197,
                    "duration": 0.13930711979166688
                },
                {
                    "name": "E5",
                    "midi": 76,
                    "time": 47.71080600000005,
                    "velocity": 0.6299212598425197,
                    "duration": 0.09036137500000052
                },
                {
                    "name": "D5",
                    "midi": 74,
                    "time": 47.80116737500005,
                    "velocity": 0.6299212598425197,
                    "duration": 0.09036137500000052
                },
                {
                    "name": "E5",
                    "midi": 76,
                    "time": 47.89152875000005,
                    "velocity": 0.6299212598425197,
                    "duration": 0.09036137500000052
                },
                {
                    "name": "D5",
                    "midi": 74,
                    "time": 47.98189012500005,
                    "velocity": 0.6299212598425197,
                    "duration": 0.09036137500000052
                },
                {
                    "name": "E5",
                    "midi": 76,
                    "time": 48.07225150000005,
                    "velocity": 0.6299212598425197,
                    "duration": 0.09036137500000052
                },
                {
                    "name": "D5",
                    "midi": 74,
                    "time": 48.16261287500005,
                    "velocity": 0.6299212598425197,
                    "duration": 0.09036137500000052
                },
                {
                    "name": "E5",
                    "midi": 76,
                    "time": 48.25297425000005,
                    "velocity": 0.6299212598425197,
                    "duration": 0.09036137500000052
                },
                {
                    "name": "D5",
                    "midi": 74,
                    "time": 48.34333562500005,
                    "velocity": 0.6299212598425197,
                    "duration": 0.07153608854167004
                },
                {
                    "name": "E5",
                    "midi": 76,
                    "time": 48.43369700000005,
                    "velocity": 0.6299212598425197,
                    "duration": 0.18448780729166714
                },
                {
                    "name": "D5",
                    "midi": 74,
                    "time": 48.61818480729172,
                    "velocity": 0.6299212598425197,
                    "duration": 0.15060229166666517
                },
                {
                    "name": "C#5",
                    "midi": 73,
                    "time": 48.795142500000054,
                    "velocity": 0.6299212598425197,
                    "duration": 0.18448780729166714
                },
                {
                    "name": "B4",
                    "midi": 71,
                    "time": 48.97963030729172,
                    "velocity": 0.6299212598425197,
                    "duration": 0.14307217708333297
                },
                {
                    "name": "E5",
                    "midi": 76,
                    "time": 49.156588000000056,
                    "velocity": 0.6299212598425197,
                    "duration": 0.09036137500000052
                },
                {
                    "name": "D#5",
                    "midi": 75,
                    "time": 49.24694937500006,
                    "velocity": 0.6299212598425197,
                    "duration": 0.09036137500000052
                },
                {
                    "name": "E5",
                    "midi": 76,
                    "time": 49.33731075000006,
                    "velocity": 0.6299212598425197,
                    "duration": 0.432981588541665
                },
                {
                    "name": "G5",
                    "midi": 79,
                    "time": 49.87947900000005,
                    "velocity": 0.6299212598425197,
                    "duration": 0.16189746354166346
                },
                {
                    "name": "F#5",
                    "midi": 78,
                    "time": 50.067731864583386,
                    "velocity": 0.6299212598425197,
                    "duration": 0.13930711979166688
                },
                {
                    "name": "B4",
                    "midi": 71,
                    "time": 50.252219671875054,
                    "velocity": 0.6299212598425197,
                    "duration": 0.3388551562499984
                },
                {
                    "name": "G5",
                    "midi": 79,
                    "time": 50.60237000000005,
                    "velocity": 0.6299212598425197,
                    "duration": 0.357680442708336
                },
                {
                    "name": "F#5",
                    "midi": 78,
                    "time": 50.97511067187505,
                    "velocity": 0.6299212598425197,
                    "duration": 0.16566252083333666
                },
                {
                    "name": "E5",
                    "midi": 76,
                    "time": 51.15583342187505,
                    "velocity": 0.6299212598425197,
                    "duration": 0.13177700520833469
                },
                {
                    "name": "D#5",
                    "midi": 75,
                    "time": 51.325261000000054,
                    "velocity": 0.6299212598425197,
                    "duration": 0.18448780729166714
                },
                {
                    "name": "C#5",
                    "midi": 73,
                    "time": 51.50974880729172,
                    "velocity": 0.6299212598425197,
                    "duration": 0.14307217708333297
                },
                {
                    "name": "B4",
                    "midi": 71,
                    "time": 51.68670650000006,
                    "velocity": 0.6299212598425197,
                    "duration": 0.18448780729166714
                },
                {
                    "name": "A4",
                    "midi": 69,
                    "time": 51.871194307291724,
                    "velocity": 0.6299212598425197,
                    "duration": 0.13930711979166688
                },
                {
                    "name": "A4",
                    "midi": 69,
                    "time": 52.04815200000006,
                    "velocity": 0.6299212598425197,
                    "duration": 0.09036137500000052
                },
                {
                    "name": "G4",
                    "midi": 67,
                    "time": 52.13851337500006,
                    "velocity": 0.6299212598425197,
                    "duration": 0.09036137500000052
                },
                {
                    "name": "A4",
                    "midi": 69,
                    "time": 52.22887475000006,
                    "velocity": 0.6299212598425197,
                    "duration": 0.09036137500000052
                },
                {
                    "name": "G4",
                    "midi": 67,
                    "time": 52.31923612500006,
                    "velocity": 0.6299212598425197,
                    "duration": 0.08283126041666833
                },
                {
                    "name": "F#4",
                    "midi": 66,
                    "time": 52.42089267187506,
                    "velocity": 0.6299212598425197,
                    "duration": 0.14307217708333297
                },
                {
                    "name": "E4",
                    "midi": 64,
                    "time": 52.605380479166726,
                    "velocity": 0.6299212598425197,
                    "duration": 0.1280119479166686
                },
                {
                    "name": "G5",
                    "midi": 79,
                    "time": 52.77104300000006,
                    "velocity": 0.6299212598425197,
                    "duration": 0.09036137500000052
                },
                {
                    "name": "F#5",
                    "midi": 78,
                    "time": 52.86140437500006,
                    "velocity": 0.6299212598425197,
                    "duration": 0.09036137500000052
                },
                {
                    "name": "G5",
                    "midi": 79,
                    "time": 52.951765750000064,
                    "velocity": 0.6299212598425197,
                    "duration": 0.28990941145833204
                },
                {
                    "name": "G5",
                    "midi": 79,
                    "time": 53.3207413645834,
                    "velocity": 0.6299212598425197,
                    "duration": 0.13554206250000078
                },
                {
                    "name": "G5",
                    "midi": 79,
                    "time": 53.49393400000007,
                    "velocity": 0.6299212598425197,
                    "duration": 0.3275599843750001
                },
                {
                    "name": "F#5",
                    "midi": 78,
                    "time": 53.8742047864584,
                    "velocity": 0.6299212598425197,
                    "duration": 0.6061742239583339
                },
                {
                    "name": "G#5",
                    "midi": 80,
                    "time": 54.5970957864584,
                    "velocity": 0.6299212598425197,
                    "duration": 0.27108412500000156
                },
                {
                    "name": "A5",
                    "midi": 81,
                    "time": 54.93971600000007,
                    "velocity": 0.6299212598425197,
                    "duration": 0.5233429635416655
                },
                {
                    "name": "G5",
                    "midi": 79,
                    "time": 55.5007095364584,
                    "velocity": 0.6299212598425197,
                    "duration": 0.12424689062500249
                },
                {
                    "name": "F#5",
                    "midi": 78,
                    "time": 55.66260700000007,
                    "velocity": 0.6299212598425197,
                    "duration": 0.18448780729166714
                },
                {
                    "name": "G5",
                    "midi": 79,
                    "time": 55.84709480729174,
                    "velocity": 0.6299212598425197,
                    "duration": 0.14307217708333297
                },
                {
                    "name": "F#5",
                    "midi": 78,
                    "time": 56.024052500000074,
                    "velocity": 0.6299212598425197,
                    "duration": 0.18448780729166714
                },
                {
                    "name": "E5",
                    "midi": 76,
                    "time": 56.20854030729174,
                    "velocity": 0.6299212598425197,
                    "duration": 0.13930711979166688
                },
                {
                    "name": "B5",
                    "midi": 83,
                    "time": 56.38549800000008,
                    "velocity": 0.6299212598425197,
                    "duration": 0.7153608854166649
                },
                {
                    "name": "E5",
                    "midi": 76,
                    "time": 57.108389000000074,
                    "velocity": 0.6299212598425197,
                    "duration": 0.09036137500000052
                },
                {
                    "name": "D#5",
                    "midi": 75,
                    "time": 57.198750375000074,
                    "velocity": 0.6299212598425197,
                    "duration": 0.09036137500000052
                },
                {
                    "name": "E5",
                    "midi": 76,
                    "time": 57.289111750000075,
                    "velocity": 0.6299212598425197,
                    "duration": 0.09036137500000052
                },
                {
                    "name": "D#5",
                    "midi": 75,
                    "time": 57.379473125000075,
                    "velocity": 0.6299212598425197,
                    "duration": 0.08659631770833442
                },
                {
                    "name": "C#5",
                    "midi": 73,
                    "time": 57.488659786458406,
                    "velocity": 0.6299212598425197,
                    "duration": 0.15060229166666517
                },
                {
                    "name": "B4",
                    "midi": 71,
                    "time": 57.67691265104174,
                    "velocity": 0.6299212598425197,
                    "duration": 0.1167167760416632
                },
                {
                    "name": "E5",
                    "midi": 76,
                    "time": 57.83128000000007,
                    "velocity": 0.6299212598425197,
                    "duration": 0.3539153854166699
                },
                {
                    "name": "F#5",
                    "midi": 78,
                    "time": 58.21155078645841,
                    "velocity": 0.6299212598425197,
                    "duration": 0.14683723437499907
                },
                {
                    "name": "G5",
                    "midi": 79,
                    "time": 58.39980365104174,
                    "velocity": 0.6299212598425197,
                    "duration": 0.1167167760416632
                },
                {
                    "name": "A5",
                    "midi": 81,
                    "time": 58.554171000000075,
                    "velocity": 0.6299212598425197,
                    "duration": 0.18448780729166714
                },
                {
                    "name": "G5",
                    "midi": 79,
                    "time": 58.73865880729174,
                    "velocity": 0.6299212598425197,
                    "duration": 0.14307217708333297
                },
                {
                    "name": "A5",
                    "midi": 81,
                    "time": 58.91561650000008,
                    "velocity": 0.6299212598425197,
                    "duration": 0.18448780729166714
                },
                {
                    "name": "F#5",
                    "midi": 78,
                    "time": 59.100104307291744,
                    "velocity": 0.6299212598425197,
                    "duration": 0.13554206250000078
                },
                {
                    "name": "G5",
                    "midi": 79,
                    "time": 59.27706200000008,
                    "velocity": 0.6299212598425197,
                    "duration": 0.18825286458333323
                },
                {
                    "name": "A5",
                    "midi": 81,
                    "time": 59.46531486458341,
                    "velocity": 0.6299212598425197,
                    "duration": 0.14307217708333297
                },
                {
                    "name": "B5",
                    "midi": 83,
                    "time": 59.65733278645841,
                    "velocity": 0.6299212598425197,
                    "duration": 0.28237929687499985
                },
                {
                    "name": "A5",
                    "midi": 81,
                    "time": 59.999953000000076,
                    "velocity": 0.6299212598425197,
                    "duration": 0.09036137500000052
                },
                {
                    "name": "G5",
                    "midi": 79,
                    "time": 60.09031437500008,
                    "velocity": 0.6299212598425197,
                    "duration": 0.09036137500000052
                },
                {
                    "name": "A5",
                    "midi": 81,
                    "time": 60.18067575000008,
                    "velocity": 0.6299212598425197,
                    "duration": 0.09036137500000052
                },
                {
                    "name": "G5",
                    "midi": 79,
                    "time": 60.27103712500008,
                    "velocity": 0.6299212598425197,
                    "duration": 0.08659631770833442
                },
                {
                    "name": "F#5",
                    "midi": 78,
                    "time": 60.37645872916674,
                    "velocity": 0.6299212598425197,
                    "duration": 0.14307217708333297
                },
                {
                    "name": "E5",
                    "midi": 76,
                    "time": 60.56094653645841,
                    "velocity": 0.6299212598425197,
                    "duration": 0.1167167760416632
                },
                {
                    "name": "E5",
                    "midi": 76,
                    "time": 60.72660905729174,
                    "velocity": 0.6299212598425197,
                    "duration": 0.7831319166666688
                },
                {
                    "name": "G4",
                    "midi": 67,
                    "time": 61.630222807291744,
                    "velocity": 0.6299212598425197,
                    "duration": 0.5421682500000031
                },
                {
                    "name": "F#4",
                    "midi": 66,
                    "time": 62.34934875000008,
                    "velocity": 0.6299212598425197,
                    "duration": 0.3388551562499984
                },
                {
                    "name": "A4",
                    "midi": 69,
                    "time": 62.72585447916675,
                    "velocity": 0.6299212598425197,
                    "duration": 0.28990941145833204
                },
                {
                    "name": "G4",
                    "midi": 67,
                    "time": 63.07223975000008,
                    "velocity": 0.6299212598425197,
                    "duration": 0.3275599843750001
                },
                {
                    "name": "F#4",
                    "midi": 66,
                    "time": 63.45251053645841,
                    "velocity": 0.6299212598425197,
                    "duration": 0.13177700520833469
                },
                {
                    "name": "E4",
                    "midi": 64,
                    "time": 63.79513075000008,
                    "velocity": 0.6299212598425197,
                    "duration": 0.4743972187500063
                },
                {
                    "name": "E5",
                    "midi": 76,
                    "time": 64.33729900000009,
                    "velocity": 0.6299212598425197,
                    "duration": 0.09036137500000052
                },
                {
                    "name": "D#5",
                    "midi": 75,
                    "time": 64.42766037500009,
                    "velocity": 0.6299212598425197,
                    "duration": 0.09036137500000052
                },
                {
                    "name": "E5",
                    "midi": 76,
                    "time": 64.51802175000009,
                    "velocity": 0.6299212598425197,
                    "duration": 0.3200298697916679
                },
                {
                    "name": "E5",
                    "midi": 76,
                    "time": 64.90205759375009,
                    "velocity": 0.6299212598425197,
                    "duration": 0.1167167760416703
                },
                {
                    "name": "E5",
                    "midi": 76,
                    "time": 65.06019000000009,
                    "velocity": 0.6299212598425197,
                    "duration": 0.09036137500000052
                },
                {
                    "name": "D5",
                    "midi": 74,
                    "time": 65.15055137500009,
                    "velocity": 0.6299212598425197,
                    "duration": 0.09036137500000052
                },
                {
                    "name": "E5",
                    "midi": 76,
                    "time": 65.24091275000009,
                    "velocity": 0.6299212598425197,
                    "duration": 0.09036137500000052
                },
                {
                    "name": "D5",
                    "midi": 74,
                    "time": 65.33127412500009,
                    "velocity": 0.6299212598425197,
                    "duration": 0.09036137500000052
                },
                {
                    "name": "B4",
                    "midi": 71,
                    "time": 65.44046078645843,
                    "velocity": 0.6299212598425197,
                    "duration": 0.28614435416666595
                },
                {
                    "name": "C5",
                    "midi": 72,
                    "time": 65.7830810000001,
                    "velocity": 0.6299212598425197,
                    "duration": 0.3275599843750001
                },
                {
                    "name": "D5",
                    "midi": 74,
                    "time": 66.1671168437501,
                    "velocity": 0.6299212598425197,
                    "duration": 0.27484918229166055
                },
                {
                    "name": "C5",
                    "midi": 72,
                    "time": 66.50597200000009,
                    "velocity": 0.6299212598425197,
                    "duration": 0.09036137500000052
                },
                {
                    "name": "B4",
                    "midi": 71,
                    "time": 66.59633337500009,
                    "velocity": 0.6299212598425197,
                    "duration": 0.09036137500000052
                },
                {
                    "name": "C5",
                    "midi": 72,
                    "time": 66.68669475000009,
                    "velocity": 0.6299212598425197,
                    "duration": 0.09036137500000052
                },
                {
                    "name": "B4",
                    "midi": 71,
                    "time": 66.77705612500009,
                    "velocity": 0.6299212598425197,
                    "duration": 0.08659631770832732
                },
                {
                    "name": "A4",
                    "midi": 69,
                    "time": 66.88624278645841,
                    "velocity": 0.6299212598425197,
                    "duration": 0.15060229166667227
                },
                {
                    "name": "G4",
                    "midi": 67,
                    "time": 67.07449565104174,
                    "velocity": 0.6299212598425197,
                    "duration": 0.1167167760416703
                },
                {
                    "name": "A5",
                    "midi": 81,
                    "time": 67.22886300000008,
                    "velocity": 0.6299212598425197,
                    "duration": 0.09036137500000052
                },
                {
                    "name": "G5",
                    "midi": 79,
                    "time": 67.31922437500008,
                    "velocity": 0.6299212598425197,
                    "duration": 0.09036137500000052
                },
                {
                    "name": "A5",
                    "midi": 81,
                    "time": 67.40958575000008,
                    "velocity": 0.6299212598425197,
                    "duration": 0.3275599843750001
                },
                {
                    "name": "B5",
                    "midi": 83,
                    "time": 67.79362159375007,
                    "velocity": 0.6299212598425197,
                    "duration": 0.13554206249999368
                },
                {
                    "name": "A5",
                    "midi": 81,
                    "time": 67.95175400000007,
                    "velocity": 0.6299212598425197,
                    "duration": 0.18825286458333323
                },
                {
                    "name": "G5",
                    "midi": 79,
                    "time": 68.1400068645834,
                    "velocity": 0.6299212598425197,
                    "duration": 0.14683723437499907
                },
                {
                    "name": "F#5",
                    "midi": 78,
                    "time": 68.3207296145834,
                    "velocity": 0.6299212598425197,
                    "duration": 0.18825286458333323
                },
                {
                    "name": "E5",
                    "midi": 76,
                    "time": 68.50898247916673,
                    "velocity": 0.6299212598425197,
                    "duration": 0.12048183333332929
                },
                {
                    "name": "G5",
                    "midi": 79,
                    "time": 68.67464500000006,
                    "velocity": 0.6299212598425197,
                    "duration": 0.18825286458333323
                },
                {
                    "name": "F#5",
                    "midi": 78,
                    "time": 68.86289786458339,
                    "velocity": 0.6299212598425197,
                    "duration": 0.14307217708334008
                },
                {
                    "name": "E5",
                    "midi": 76,
                    "time": 69.0549157864584,
                    "velocity": 0.6299212598425197,
                    "duration": 0.18825286458333323
                },
                {
                    "name": "D#5",
                    "midi": 75,
                    "time": 69.24316865104173,
                    "velocity": 0.6299212598425197,
                    "duration": 0.14307217708334008
                },
                {
                    "name": "E5",
                    "midi": 76,
                    "time": 69.39753600000007,
                    "velocity": 0.6299212598425197,
                    "duration": 0.09036137500000052
                },
                {
                    "name": "D5",
                    "midi": 74,
                    "time": 69.48789737500007,
                    "velocity": 0.6299212598425197,
                    "duration": 0.09036137500000052
                },
                {
                    "name": "E5",
                    "midi": 76,
                    "time": 69.57825875000007,
                    "velocity": 0.6299212598425197,
                    "duration": 0.18072275000000104
                },
                {
                    "name": "C5",
                    "midi": 72,
                    "time": 69.77780678645841,
                    "velocity": 0.6299212598425197,
                    "duration": 0.28614435416666595
                },
                {
                    "name": "B5",
                    "midi": 83,
                    "time": 70.12042700000008,
                    "velocity": 0.6299212598425197,
                    "duration": 0.6588850260416876
                },
                {
                    "name": "F#5",
                    "midi": 78,
                    "time": 70.50069778645842,
                    "velocity": 0.6299212598425197,
                    "duration": 0.14307217708334008
                },
                {
                    "name": "F#5",
                    "midi": 78,
                    "time": 70.68518559375009,
                    "velocity": 0.6299212598425197,
                    "duration": 0.1167167760416703
                },
                {
                    "name": "G5",
                    "midi": 79,
                    "time": 70.8433180000001,
                    "velocity": 0.6299212598425197,
                    "duration": 0.09036137500000052
                },
                {
                    "name": "F#5",
                    "midi": 78,
                    "time": 70.9336793750001,
                    "velocity": 0.6299212598425197,
                    "duration": 0.09036137500000052
                },
                {
                    "name": "G5",
                    "midi": 79,
                    "time": 71.0240407500001,
                    "velocity": 0.6299212598425197,
                    "duration": 0.09036137500000052
                },
                {
                    "name": "F#5",
                    "midi": 78,
                    "time": 71.1144021250001,
                    "velocity": 0.6299212598425197,
                    "duration": 0.09412643229167372
                },
                {
                    "name": "G5",
                    "midi": 79,
                    "time": 71.20852855729177,
                    "velocity": 0.6299212598425197,
                    "duration": 0.09036137500000052
                },
                {
                    "name": "F#5",
                    "midi": 78,
                    "time": 71.29888993229177,
                    "velocity": 0.6299212598425197,
                    "duration": 0.09036137500000052
                },
                {
                    "name": "G5",
                    "midi": 79,
                    "time": 71.38925130729177,
                    "velocity": 0.6299212598425197,
                    "duration": 0.08659631770832732
                },
                {
                    "name": "F#5",
                    "midi": 78,
                    "time": 71.4871427968751,
                    "velocity": 0.6299212598425197,
                    "duration": 0.39909607291666305
                },
                {
                    "name": "B5",
                    "midi": 83,
                    "time": 71.94647978645844,
                    "velocity": 0.6299212598425197,
                    "duration": 0.26731906770832836
                },
                {
                    "name": "B5",
                    "midi": 83,
                    "time": 72.2891000000001,
                    "velocity": 0.6299212598425197,
                    "duration": 0.3614455000000021
                },
                {
                    "name": "A5",
                    "midi": 81,
                    "time": 72.66560572916677,
                    "velocity": 0.6299212598425197,
                    "duration": 0.15060229166667227
                },
                {
                    "name": "G5",
                    "midi": 79,
                    "time": 72.85762365104178,
                    "velocity": 0.6299212598425197,
                    "duration": 0.1167167760416703
                },
                {
                    "name": "F#5",
                    "midi": 78,
                    "time": 73.01199100000011,
                    "velocity": 0.6299212598425197,
                    "duration": 0.18825286458333323
                },
                {
                    "name": "G5",
                    "midi": 79,
                    "time": 73.20024386458344,
                    "velocity": 0.6299212598425197,
                    "duration": 0.15436734895833126
                },
                {
                    "name": "F#5",
                    "midi": 78,
                    "time": 73.39226178645843,
                    "velocity": 0.6299212598425197,
                    "duration": 0.18825286458333323
                },
                {
                    "name": "E5",
                    "midi": 76,
                    "time": 73.58427970833344,
                    "velocity": 0.6299212598425197,
                    "duration": 0.1167167760416703
                },
                {
                    "name": "E5",
                    "midi": 76,
                    "time": 73.73488200000011,
                    "velocity": 0.6299212598425197,
                    "duration": 0.09036137500000052
                },
                {
                    "name": "D#5",
                    "midi": 75,
                    "time": 73.82524337500011,
                    "velocity": 0.6299212598425197,
                    "duration": 0.09036137500000052
                },
                {
                    "name": "E5",
                    "midi": 76,
                    "time": 73.91560475000011,
                    "velocity": 0.6299212598425197,
                    "duration": 0.09036137500000052
                },
                {
                    "name": "D#5",
                    "midi": 75,
                    "time": 74.00596612500011,
                    "velocity": 0.6299212598425197,
                    "duration": 0.09412643229167372
                },
                {
                    "name": "E5",
                    "midi": 76,
                    "time": 74.10009255729179,
                    "velocity": 0.6299212598425197,
                    "duration": 0.09036137500000052
                },
                {
                    "name": "D#5",
                    "midi": 75,
                    "time": 74.19045393229179,
                    "velocity": 0.6299212598425197,
                    "duration": 0.09036137500000052
                },
                {
                    "name": "E5",
                    "midi": 76,
                    "time": 74.28081530729179,
                    "velocity": 0.6299212598425197,
                    "duration": 0.09036137500000052
                },
                {
                    "name": "D#5",
                    "midi": 75,
                    "time": 74.37117668229179,
                    "velocity": 0.6299212598425197,
                    "duration": 0.06777103125000394
                },
                {
                    "name": "E5",
                    "midi": 76,
                    "time": 74.45777300000013,
                    "velocity": 0.6299212598425197,
                    "duration": 0.18825286458333323
                },
                {
                    "name": "D#5",
                    "midi": 75,
                    "time": 74.64602586458346,
                    "velocity": 0.6299212598425197,
                    "duration": 0.14307217708334008
                },
                {
                    "name": "C#5",
                    "midi": 73,
                    "time": 74.8342787291668,
                    "velocity": 0.6299212598425197,
                    "duration": 0.18825286458333323
                },
                {
                    "name": "B4",
                    "midi": 71,
                    "time": 75.02253159375013,
                    "velocity": 0.6299212598425197,
                    "duration": 0.1167167760416703
                },
                {
                    "name": "E5",
                    "midi": 76,
                    "time": 75.18066400000014,
                    "velocity": 0.6299212598425197,
                    "duration": 0.09036137500000052
                },
                {
                    "name": "D#5",
                    "midi": 75,
                    "time": 75.27102537500014,
                    "velocity": 0.6299212598425197,
                    "duration": 0.09036137500000052
                },
                {
                    "name": "E5",
                    "midi": 76,
                    "time": 75.36138675000014,
                    "velocity": 0.6299212598425197,
                    "duration": 0.4518068750000026
                },
                {
                    "name": "G5",
                    "midi": 79,
                    "time": 75.90355500000014,
                    "velocity": 0.6299212598425197,
                    "duration": 0.17695769270832784
                },
                {
                    "name": "F#5",
                    "midi": 78,
                    "time": 76.09557292187513,
                    "velocity": 0.6299212598425197,
                    "duration": 0.14307217708334008
                },
                {
                    "name": "B4",
                    "midi": 71,
                    "time": 76.28382578645846,
                    "velocity": 0.6299212598425197,
                    "duration": 0.28614435416666595
                },
                {
                    "name": "G5",
                    "midi": 79,
                    "time": 76.62644600000013,
                    "velocity": 0.6299212598425197,
                    "duration": 0.3426202135416645
                },
                {
                    "name": "F#5",
                    "midi": 78,
                    "time": 77.00671678645845,
                    "velocity": 0.6299212598425197,
                    "duration": 0.15060229166667227
                },
                {
                    "name": "E5",
                    "midi": 76,
                    "time": 77.19120459375013,
                    "velocity": 0.6299212598425197,
                    "duration": 0.1167167760416703
                },
                {
                    "name": "D#5",
                    "midi": 75,
                    "time": 77.34933700000013,
                    "velocity": 0.6299212598425197,
                    "duration": 0.18825286458333323
                },
                {
                    "name": "C#5",
                    "midi": 73,
                    "time": 77.53758986458347,
                    "velocity": 0.6299212598425197,
                    "duration": 0.14307217708334008
                },
                {
                    "name": "B4",
                    "midi": 71,
                    "time": 77.72960778645847,
                    "velocity": 0.6299212598425197,
                    "duration": 0.18825286458333323
                },
                {
                    "name": "A4",
                    "midi": 69,
                    "time": 77.9178606510418,
                    "velocity": 0.6299212598425197,
                    "duration": 0.1167167760416703
                },
                {
                    "name": "A4",
                    "midi": 69,
                    "time": 78.07222800000014,
                    "velocity": 0.6299212598425197,
                    "duration": 0.09036137500000052
                },
                {
                    "name": "G4",
                    "midi": 67,
                    "time": 78.16258937500014,
                    "velocity": 0.6299212598425197,
                    "duration": 0.09036137500000052
                },
                {
                    "name": "A4",
                    "midi": 69,
                    "time": 78.25295075000014,
                    "velocity": 0.6299212598425197,
                    "duration": 0.09036137500000052
                },
                {
                    "name": "G4",
                    "midi": 67,
                    "time": 78.34331212500014,
                    "velocity": 0.6299212598425197,
                    "duration": 0.09036137500000052
                },
                {
                    "name": "F#4",
                    "midi": 66,
                    "time": 78.45249878645848,
                    "velocity": 0.6299212598425197,
                    "duration": 0.14683723437499907
                },
                {
                    "name": "E4",
                    "midi": 64,
                    "time": 78.64075165104181,
                    "velocity": 0.6299212598425197,
                    "duration": 0.1167167760416703
                },
                {
                    "name": "G5",
                    "midi": 79,
                    "time": 78.79511900000014,
                    "velocity": 0.6299212598425197,
                    "duration": 0.5271080208333387
                },
                {
                    "name": "G5",
                    "midi": 79,
                    "time": 79.35611253645848,
                    "velocity": 0.6299212598425197,
                    "duration": 0.12048183333332929
                },
                {
                    "name": "G5",
                    "midi": 79,
                    "time": 79.51801000000015,
                    "velocity": 0.6299212598425197,
                    "duration": 0.3124997552083357
                },
                {
                    "name": "F#5",
                    "midi": 78,
                    "time": 79.89828078645849,
                    "velocity": 0.6299212598425197,
                    "duration": 0.6174693958333393
                },
                {
                    "name": "G#5",
                    "midi": 80,
                    "time": 80.62117178645849,
                    "velocity": 0.6299212598425197,
                    "duration": 0.28614435416666595
                },
                {
                    "name": "A5",
                    "midi": 81,
                    "time": 80.96379200000015,
                    "velocity": 0.6299212598425197,
                    "duration": 0.5308730781249977
                },
                {
                    "name": "G5",
                    "midi": 79,
                    "time": 81.52478553645848,
                    "velocity": 0.6299212598425197,
                    "duration": 0.14307217708334008
                },
                {
                    "name": "F#5",
                    "midi": 78,
                    "time": 81.68668300000016,
                    "velocity": 0.6299212598425197,
                    "duration": 0.18825286458333323
                },
                {
                    "name": "G5",
                    "midi": 79,
                    "time": 81.87493586458349,
                    "velocity": 0.6299212598425197,
                    "duration": 0.14307217708334008
                },
                {
                    "name": "F#5",
                    "midi": 78,
                    "time": 82.0669537864585,
                    "velocity": 0.6299212598425197,
                    "duration": 0.18825286458333323
                },
                {
                    "name": "E5",
                    "midi": 76,
                    "time": 82.25520665104183,
                    "velocity": 0.6299212598425197,
                    "duration": 0.12048183333332929
                },
                {
                    "name": "B5",
                    "midi": 83,
                    "time": 82.41333905729182,
                    "velocity": 0.6299212598425197,
                    "duration": 0.647589854166668
                },
                {
                    "name": "E5",
                    "midi": 76,
                    "time": 83.13246500000015,
                    "velocity": 0.6299212598425197,
                    "duration": 0.09036137500000052
                },
                {
                    "name": "D#5",
                    "midi": 75,
                    "time": 83.22282637500015,
                    "velocity": 0.6299212598425197,
                    "duration": 0.09036137500000052
                },
                {
                    "name": "E5",
                    "midi": 76,
                    "time": 83.31318775000015,
                    "velocity": 0.6299212598425197,
                    "duration": 0.09036137500000052
                },
                {
                    "name": "D#5",
                    "midi": 75,
                    "time": 83.40354912500015,
                    "velocity": 0.6299212598425197,
                    "duration": 0.09036137500000052
                },
                {
                    "name": "C#5",
                    "midi": 73,
                    "time": 83.51273578645849,
                    "velocity": 0.6299212598425197,
                    "duration": 0.15060229166667227
                },
                {
                    "name": "B4",
                    "midi": 71,
                    "time": 83.70098865104183,
                    "velocity": 0.6299212598425197,
                    "duration": 0.1167167760416703
                },
                {
                    "name": "E5",
                    "midi": 76,
                    "time": 83.85535600000016,
                    "velocity": 0.6299212598425197,
                    "duration": 0.3614455000000021
                },
                {
                    "name": "F#5",
                    "midi": 78,
                    "time": 84.23186172916682,
                    "velocity": 0.6299212598425197,
                    "duration": 0.14307217708334008
                },
                {
                    "name": "G5",
                    "midi": 79,
                    "time": 84.4163495364585,
                    "velocity": 0.6299212598425197,
                    "duration": 0.12048183333332929
                },
                {
                    "name": "A5",
                    "midi": 81,
                    "time": 84.57824700000016,
                    "velocity": 0.6299212598425197,
                    "duration": 0.18448780729166003
                },
                {
                    "name": "G5",
                    "midi": 79,
                    "time": 84.76273480729182,
                    "velocity": 0.6299212598425197,
                    "duration": 0.14307217708334008
                },
                {
                    "name": "A5",
                    "midi": 81,
                    "time": 84.95098767187515,
                    "velocity": 0.6299212598425197,
                    "duration": 0.18448780729166003
                },
                {
                    "name": "F#5",
                    "midi": 78,
                    "time": 85.13547547916681,
                    "velocity": 0.6299212598425197,
                    "duration": 0.12424689062500249
                },
                {
                    "name": "G5",
                    "midi": 79,
                    "time": 85.30113800000015,
                    "velocity": 0.6299212598425197,
                    "duration": 0.3200298697916679
                },
                {
                    "name": "A5",
                    "midi": 81,
                    "time": 85.67011361458349,
                    "velocity": 0.6299212598425197,
                    "duration": 0.14683723437499907
                },
                {
                    "name": "B5",
                    "midi": 83,
                    "time": 85.85460142187515,
                    "velocity": 0.6299212598425197,
                    "duration": 0.13554206249999368
                },
                {
                    "name": "A5",
                    "midi": 81,
                    "time": 86.02402900000014,
                    "velocity": 0.6299212598425197,
                    "duration": 0.09036137500000052
                },
                {
                    "name": "G5",
                    "midi": 79,
                    "time": 86.11439037500014,
                    "velocity": 0.6299212598425197,
                    "duration": 0.09036137500000052
                },
                {
                    "name": "A5",
                    "midi": 81,
                    "time": 86.20475175000014,
                    "velocity": 0.6299212598425197,
                    "duration": 0.09036137500000052
                },
                {
                    "name": "G5",
                    "midi": 79,
                    "time": 86.29511312500014,
                    "velocity": 0.6299212598425197,
                    "duration": 0.08283126041666833
                },
                {
                    "name": "F#5",
                    "midi": 78,
                    "time": 86.39300461458348,
                    "velocity": 0.6299212598425197,
                    "duration": 0.14683723437499907
                },
                {
                    "name": "E5",
                    "midi": 76,
                    "time": 86.57372736458348,
                    "velocity": 0.6299212598425197,
                    "duration": 0.12801194791666148
                },
                {
                    "name": "E5",
                    "midi": 76,
                    "time": 86.74692000000013,
                    "velocity": 0.6299212598425197,
                    "duration": 3.5692743124999993
                }
            ],
            "controlChanges": {
                "7": [
                    {
                        "number": 7,
                        "time": 0.003765057291666666,
                        "value": 1
                    }
                ],
                "10": [
                    {
                        "number": 10,
                        "time": 0.003765057291666666,
                        "value": 0.47244094488188976
                    }
                ],
                "91": [
                    {
                        "number": 91,
                        "time": 0.003765057291666666,
                        "value": 0.3937007874015748
                    }
                ],
                "121": [
                    {
                        "number": 121,
                        "time": 0,
                        "value": 0
                    },
                    {
                        "number": 121,
                        "time": 90.35760994270846,
                        "value": 0
                    }
                ]
            },
            "id": 1,
            "name": "hpschd RH ",
            "instrumentNumber": 6,
            "instrument": "harpsichord",
            "instrumentFamily": "piano",
            "channelNumber": 0,
            "isPercussion": false
        },
        {
            "startTime": 0.003765057291666666,
            "duration": 90.31619431249999,
            "length": 241,
            "notes": [
                {
                    "name": "E2",
                    "midi": 40,
                    "time": 0.003765057291666666,
                    "velocity": 0.6141732283464567,
                    "duration": 1.2650592499999997
                },
                {
                    "name": "E3",
                    "midi": 52,
                    "time": 0.3614455,
                    "velocity": 0.6299212598425197,
                    "duration": 0.33132504166666665
                },
                {
                    "name": "G3",
                    "midi": 55,
                    "time": 0.722891,
                    "velocity": 0.6299212598425197,
                    "duration": 0.34638527083333326
                },
                {
                    "name": "B3",
                    "midi": 59,
                    "time": 1.0843364999999998,
                    "velocity": 0.6299212598425197,
                    "duration": 0.2974395260416667
                },
                {
                    "name": "D#3",
                    "midi": 51,
                    "time": 1.445782,
                    "velocity": 0.6299212598425197,
                    "duration": 0.8998486927083329
                },
                {
                    "name": "F#3",
                    "midi": 54,
                    "time": 1.8072274999999998,
                    "velocity": 0.6299212598425197,
                    "duration": 0.31626481250000005
                },
                {
                    "name": "B3",
                    "midi": 59,
                    "time": 2.1686729999999996,
                    "velocity": 0.6299212598425197,
                    "duration": 0.32379492708333313
                },
                {
                    "name": "D3",
                    "midi": 50,
                    "time": 2.5301184999999995,
                    "velocity": 0.6299212598425197,
                    "duration": 0.2899094114583334
                },
                {
                    "name": "C#3",
                    "midi": 49,
                    "time": 2.8915639999999994,
                    "velocity": 0.6220472440944882,
                    "duration": 0.9036137500000003
                },
                {
                    "name": "B3",
                    "midi": 59,
                    "time": 3.253009499999999,
                    "velocity": 0.6299212598425197,
                    "duration": 0.3275599843750001
                },
                {
                    "name": "A3",
                    "midi": 57,
                    "time": 3.6144549999999995,
                    "velocity": 0.6299212598425197,
                    "duration": 0.3426202135416667
                },
                {
                    "name": "C3",
                    "midi": 48,
                    "time": 3.9759004999999994,
                    "velocity": 0.6220472440944882,
                    "duration": 0.2899094114583334
                },
                {
                    "name": "B2",
                    "midi": 47,
                    "time": 4.337345999999999,
                    "velocity": 0.6220472440944882,
                    "duration": 0.7153608854166666
                },
                {
                    "name": "G3",
                    "midi": 55,
                    "time": 4.6987915,
                    "velocity": 0.6299212598425197,
                    "duration": 0.32379492708333313
                },
                {
                    "name": "A2",
                    "midi": 45,
                    "time": 5.060236999999999,
                    "velocity": 0.6220472440944882,
                    "duration": 0.3426202135416663
                },
                {
                    "name": "F#3",
                    "midi": 54,
                    "time": 5.421682499999998,
                    "velocity": 0.6299212598425197,
                    "duration": 0.2936744687499999
                },
                {
                    "name": "G2",
                    "midi": 43,
                    "time": 5.783127999999999,
                    "velocity": 0.6220472440944882,
                    "duration": 0.6475898541666671
                },
                {
                    "name": "E3",
                    "midi": 52,
                    "time": 6.144573499999999,
                    "velocity": 0.6299212598425197,
                    "duration": 0.32002986979166703
                },
                {
                    "name": "F#2",
                    "midi": 42,
                    "time": 6.506018999999999,
                    "velocity": 0.6220472440944882,
                    "duration": 0.6475898541666671
                },
                {
                    "name": "D#3",
                    "midi": 51,
                    "time": 6.8674645,
                    "velocity": 0.6299212598425197,
                    "duration": 0.31249975520833306
                },
                {
                    "name": "E3",
                    "midi": 52,
                    "time": 7.228909999999999,
                    "velocity": 0.6299212598425197,
                    "duration": 1.378010968749999
                },
                {
                    "name": "G2",
                    "midi": 43,
                    "time": 7.590355499999999,
                    "velocity": 0.6220472440944882,
                    "duration": 0.28614435416666684
                },
                {
                    "name": "A2",
                    "midi": 45,
                    "time": 7.955566057291666,
                    "velocity": 0.6220472440944882,
                    "duration": 0.3087346979166661
                },
                {
                    "name": "B2",
                    "midi": 47,
                    "time": 8.313246499999998,
                    "velocity": 0.6220472440944882,
                    "duration": 0.28614435416666595
                },
                {
                    "name": "E2",
                    "midi": 40,
                    "time": 8.678457057291665,
                    "velocity": 0.6141732283464567,
                    "duration": 0.7191259427083345
                },
                {
                    "name": "E3",
                    "midi": 52,
                    "time": 9.036137499999999,
                    "velocity": 0.6299212598425197,
                    "duration": 1.0090353541666666
                },
                {
                    "name": "G3",
                    "midi": 55,
                    "time": 9.397583,
                    "velocity": 0.6299212598425197,
                    "duration": 0.323794927083334
                },
                {
                    "name": "B3",
                    "midi": 59,
                    "time": 9.7590285,
                    "velocity": 0.6299212598425197,
                    "duration": 0.28614435416666595
                },
                {
                    "name": "D#3",
                    "midi": 51,
                    "time": 10.120473999999998,
                    "velocity": 0.6299212598425197,
                    "duration": 1.031625697916665
                },
                {
                    "name": "F#3",
                    "midi": 54,
                    "time": 10.481919499999998,
                    "velocity": 0.6299212598425197,
                    "duration": 0.28614435416666595
                },
                {
                    "name": "B3",
                    "midi": 59,
                    "time": 10.843364999999997,
                    "velocity": 0.6299212598425197,
                    "duration": 1.0353907552083328
                },
                {
                    "name": "D3",
                    "midi": 50,
                    "time": 11.216105671874995,
                    "velocity": 0.6299212598425197,
                    "duration": 0.2899094114583338
                },
                {
                    "name": "C#3",
                    "midi": 49,
                    "time": 11.566255999999996,
                    "velocity": 0.6299212598425197,
                    "duration": 1.0466859270833346
                },
                {
                    "name": "B3",
                    "midi": 59,
                    "time": 11.95782195833333,
                    "velocity": 0.6299212598425197,
                    "duration": 0.2748491822916659
                },
                {
                    "name": "A3",
                    "midi": 57,
                    "time": 12.289146999999996,
                    "velocity": 0.6299212598425197,
                    "duration": 1.0466859270833329
                },
                {
                    "name": "C3",
                    "midi": 48,
                    "time": 12.650592499999997,
                    "velocity": 0.6299212598425197,
                    "duration": 0.28614435416666595
                },
                {
                    "name": "B2",
                    "midi": 47,
                    "time": 13.012037999999995,
                    "velocity": 0.6299212598425197,
                    "duration": 0.6777103125000004
                },
                {
                    "name": "G3",
                    "midi": 55,
                    "time": 13.373483499999995,
                    "velocity": 0.6299212598425197,
                    "duration": 0.6551199687500002
                },
                {
                    "name": "A2",
                    "midi": 45,
                    "time": 13.734928999999996,
                    "velocity": 0.6299212598425197,
                    "duration": 0.6249995104166661
                },
                {
                    "name": "F#3",
                    "midi": 54,
                    "time": 14.096374499999996,
                    "velocity": 0.6299212598425197,
                    "duration": 0.6739452552083325
                },
                {
                    "name": "G2",
                    "midi": 43,
                    "time": 14.457819999999995,
                    "velocity": 0.6299212598425197,
                    "duration": 0.6664151406250003
                },
                {
                    "name": "E3",
                    "midi": 52,
                    "time": 14.819265499999995,
                    "velocity": 0.6299212598425197,
                    "duration": 0.6626500833333342
                },
                {
                    "name": "F#2",
                    "midi": 42,
                    "time": 15.180710999999995,
                    "velocity": 0.6299212598425197,
                    "duration": 0.6325296250000001
                },
                {
                    "name": "D#3",
                    "midi": 51,
                    "time": 15.542156499999995,
                    "velocity": 0.6299212598425197,
                    "duration": 0.28614435416666595
                },
                {
                    "name": "E3",
                    "midi": 52,
                    "time": 15.903601999999994,
                    "velocity": 0.6299212598425197,
                    "duration": 1.355420624999999
                },
                {
                    "name": "G2",
                    "midi": 43,
                    "time": 16.276342671874993,
                    "velocity": 0.6299212598425197,
                    "duration": 0.28237929687499985
                },
                {
                    "name": "A2",
                    "midi": 45,
                    "time": 16.626492999999993,
                    "velocity": 0.6299212598425197,
                    "duration": 0.3727406718750004
                },
                {
                    "name": "B2",
                    "midi": 47,
                    "time": 16.999233671874993,
                    "velocity": 0.6299212598425197,
                    "duration": 0.28614435416666595
                },
                {
                    "name": "E2",
                    "midi": 40,
                    "time": 17.349383999999993,
                    "velocity": 0.6141732283464567,
                    "duration": 1.438251885416662
                },
                {
                    "name": "E3",
                    "midi": 52,
                    "time": 17.710829499999992,
                    "velocity": 0.6299212598425197,
                    "duration": 1.009035354166663
                },
                {
                    "name": "G3",
                    "midi": 55,
                    "time": 18.07227499999999,
                    "velocity": 0.6299212598425197,
                    "duration": 0.7003006562499969
                },
                {
                    "name": "B3",
                    "midi": 59,
                    "time": 18.43372049999999,
                    "velocity": 0.6299212598425197,
                    "duration": 0.28614435416666595
                },
                {
                    "name": "D#3",
                    "midi": 51,
                    "time": 18.795165999999988,
                    "velocity": 0.6299212598425197,
                    "duration": 1.0090353541666666
                },
                {
                    "name": "F#3",
                    "midi": 54,
                    "time": 19.164141614583322,
                    "velocity": 0.6299212598425197,
                    "duration": 0.28614435416666595
                },
                {
                    "name": "B3",
                    "midi": 59,
                    "time": 19.518056999999988,
                    "velocity": 0.6299212598425197,
                    "duration": 0.3727406718750004
                },
                {
                    "name": "D3",
                    "midi": 50,
                    "time": 19.887032614583322,
                    "velocity": 0.6299212598425197,
                    "duration": 0.28614435416666595
                },
                {
                    "name": "C#3",
                    "midi": 49,
                    "time": 20.24094799999999,
                    "velocity": 0.6299212598425197,
                    "duration": 1.0504509843750007
                },
                {
                    "name": "B3",
                    "midi": 59,
                    "time": 20.617453729166655,
                    "velocity": 0.6299212598425197,
                    "duration": 0.28614435416666595
                },
                {
                    "name": "A3",
                    "midi": 57,
                    "time": 20.96383899999999,
                    "velocity": 0.6299212598425197,
                    "duration": 0.34262021354166805
                },
                {
                    "name": "C3",
                    "midi": 48,
                    "time": 21.340344729166656,
                    "velocity": 0.6220472440944882,
                    "duration": 0.28614435416666595
                },
                {
                    "name": "B2",
                    "midi": 47,
                    "time": 21.68672999999999,
                    "velocity": 0.6299212598425197,
                    "duration": 0.60993928125
                },
                {
                    "name": "G3",
                    "midi": 55,
                    "time": 22.063235729166657,
                    "velocity": 0.6299212598425197,
                    "duration": 0.28614435416666595
                },
                {
                    "name": "A2",
                    "midi": 45,
                    "time": 22.40962099999999,
                    "velocity": 0.6220472440944882,
                    "duration": 0.36144549999999853
                },
                {
                    "name": "F#3",
                    "midi": 54,
                    "time": 22.786126729166657,
                    "velocity": 0.6299212598425197,
                    "duration": 0.28614435416666595
                },
                {
                    "name": "G2",
                    "midi": 43,
                    "time": 23.13251199999999,
                    "velocity": 0.6299212598425197,
                    "duration": 0.6814753697916665
                },
                {
                    "name": "E3",
                    "midi": 52,
                    "time": 23.49395749999999,
                    "velocity": 0.6299212598425197,
                    "duration": 0.3275599843750001
                },
                {
                    "name": "F#2",
                    "midi": 42,
                    "time": 23.85540299999999,
                    "velocity": 0.6299212598425197,
                    "duration": 0.6475898541666645
                },
                {
                    "name": "D#3",
                    "midi": 51,
                    "time": 24.216848499999987,
                    "velocity": 0.6299212598425197,
                    "duration": 0.28614435416666595
                },
                {
                    "name": "E3",
                    "midi": 52,
                    "time": 24.578293999999985,
                    "velocity": 0.6299212598425197,
                    "duration": 1.3704808541666615
                },
                {
                    "name": "G2",
                    "midi": 43,
                    "time": 24.939739499999984,
                    "velocity": 0.6299212598425197,
                    "duration": 0.28614435416666595
                },
                {
                    "name": "A2",
                    "midi": 45,
                    "time": 25.301184999999982,
                    "velocity": 0.6299212598425197,
                    "duration": 0.28614435416666595
                },
                {
                    "name": "B2",
                    "midi": 47,
                    "time": 25.66263049999998,
                    "velocity": 0.6299212598425197,
                    "duration": 0.28614435416666595
                },
                {
                    "name": "E2",
                    "midi": 40,
                    "time": 26.02407599999998,
                    "velocity": 0.6141732283464567,
                    "duration": 0.7003006562499969
                },
                {
                    "name": "E3",
                    "midi": 52,
                    "time": 26.385521499999978,
                    "velocity": 0.6299212598425197,
                    "duration": 0.9939751249999986
                },
                {
                    "name": "G3",
                    "midi": 55,
                    "time": 26.746966999999977,
                    "velocity": 0.6299212598425197,
                    "duration": 0.6513549114583341
                },
                {
                    "name": "B3",
                    "midi": 59,
                    "time": 27.108412499999975,
                    "velocity": 0.6299212598425197,
                    "duration": 0.3124997552083357
                },
                {
                    "name": "D#3",
                    "midi": 51,
                    "time": 27.469857999999977,
                    "velocity": 0.6299212598425197,
                    "duration": 1.0128004114583327
                },
                {
                    "name": "F#3",
                    "midi": 54,
                    "time": 27.846363729166644,
                    "velocity": 0.6299212598425197,
                    "duration": 0.2974395260416678
                },
                {
                    "name": "B3",
                    "midi": 59,
                    "time": 28.192748999999978,
                    "velocity": 0.6299212598425197,
                    "duration": 1.0692762708333312
                },
                {
                    "name": "D3",
                    "midi": 50,
                    "time": 28.554194499999976,
                    "velocity": 0.6299212598425197,
                    "duration": 0.28614435416666595
                },
                {
                    "name": "C#3",
                    "midi": 49,
                    "time": 28.915639999999975,
                    "velocity": 0.6299212598425197,
                    "duration": 1.0542160416666668
                },
                {
                    "name": "B3",
                    "midi": 59,
                    "time": 29.303440901041643,
                    "velocity": 0.6299212598425197,
                    "duration": 0.2673190677083319
                },
                {
                    "name": "A3",
                    "midi": 57,
                    "time": 29.638530999999976,
                    "velocity": 0.6299212598425197,
                    "duration": 1.0466859270833346
                },
                {
                    "name": "C3",
                    "midi": 48,
                    "time": 30.015036729166642,
                    "velocity": 0.6299212598425197,
                    "duration": 0.27861423958333376
                },
                {
                    "name": "B2",
                    "midi": 47,
                    "time": 30.361421999999976,
                    "velocity": 0.6299212598425197,
                    "duration": 0.6777103125000004
                },
                {
                    "name": "G3",
                    "midi": 55,
                    "time": 30.72286749999998,
                    "velocity": 0.6299212598425197,
                    "duration": 0.6701801979166646
                },
                {
                    "name": "A2",
                    "midi": 45,
                    "time": 31.084312999999977,
                    "velocity": 0.6299212598425197,
                    "duration": 0.6174693958333322
                },
                {
                    "name": "F#3",
                    "midi": 54,
                    "time": 31.445758499999975,
                    "velocity": 0.6299212598425197,
                    "duration": 0.6890054843749951
                },
                {
                    "name": "G2",
                    "midi": 43,
                    "time": 31.807203999999974,
                    "velocity": 0.6299212598425197,
                    "duration": 0.6814753697916665
                },
                {
                    "name": "E3",
                    "midi": 52,
                    "time": 32.16864949999997,
                    "velocity": 0.6299212598425197,
                    "duration": 0.6927705416666683
                },
                {
                    "name": "F#2",
                    "midi": 42,
                    "time": 32.530094999999974,
                    "velocity": 0.6299212598425197,
                    "duration": 0.6513549114583341
                },
                {
                    "name": "D#3",
                    "midi": 51,
                    "time": 32.89154049999998,
                    "velocity": 0.6299212598425197,
                    "duration": 0.28614435416666595
                },
                {
                    "name": "E3",
                    "midi": 52,
                    "time": 33.25298599999998,
                    "velocity": 0.6299212598425197,
                    "duration": 1.4231916562500047
                },
                {
                    "name": "G2",
                    "midi": 43,
                    "time": 33.61443149999998,
                    "velocity": 0.6299212598425197,
                    "duration": 0.28614435416666595
                },
                {
                    "name": "A2",
                    "midi": 45,
                    "time": 33.97587699999998,
                    "velocity": 0.6299212598425197,
                    "duration": 0.357680442708336
                },
                {
                    "name": "B2",
                    "midi": 47,
                    "time": 34.35238272916665,
                    "velocity": 0.6299212598425197,
                    "duration": 0.28614435416666595
                },
                {
                    "name": "E2",
                    "midi": 40,
                    "time": 34.69876799999998,
                    "velocity": 0.6141732283464567,
                    "duration": 1.189758104166664
                },
                {
                    "name": "E3",
                    "midi": 52,
                    "time": 35.06021349999998,
                    "velocity": 0.6299212598425197,
                    "duration": 0.466867104166667
                },
                {
                    "name": "G3",
                    "midi": 55,
                    "time": 35.421658999999984,
                    "velocity": 0.6299212598425197,
                    "duration": 0.4668671041666599
                },
                {
                    "name": "B3",
                    "midi": 59,
                    "time": 35.78310449999998,
                    "velocity": 0.6299212598425197,
                    "duration": 0.28614435416666595
                },
                {
                    "name": "D#3",
                    "midi": 51,
                    "time": 36.14454999999998,
                    "velocity": 0.6299212598425197,
                    "duration": 0.466867104166667
                },
                {
                    "name": "F#3",
                    "midi": 54,
                    "time": 36.50599549999998,
                    "velocity": 0.6299212598425197,
                    "duration": 0.4668671041666599
                },
                {
                    "name": "B3",
                    "midi": 59,
                    "time": 36.86744099999998,
                    "velocity": 0.6299212598425197,
                    "duration": 0.3501503281249967
                },
                {
                    "name": "D3",
                    "midi": 50,
                    "time": 37.22888649999997,
                    "velocity": 0.6299212598425197,
                    "duration": 0.28614435416666595
                },
                {
                    "name": "C#3",
                    "midi": 49,
                    "time": 37.590331999999975,
                    "velocity": 0.6299212598425197,
                    "duration": 1.046685927083331
                },
                {
                    "name": "B3",
                    "midi": 59,
                    "time": 37.963072671874976,
                    "velocity": 0.6299212598425197,
                    "duration": 0.28614435416666595
                },
                {
                    "name": "A3",
                    "midi": 57,
                    "time": 38.31322299999997,
                    "velocity": 0.6299212598425197,
                    "duration": 1.046685927083331
                },
                {
                    "name": "C3",
                    "midi": 48,
                    "time": 38.68596367187497,
                    "velocity": 0.6299212598425197,
                    "duration": 0.28614435416666595
                },
                {
                    "name": "B2",
                    "midi": 47,
                    "time": 39.03611399999997,
                    "velocity": 0.6299212598425197,
                    "duration": 0.6362946822916697
                },
                {
                    "name": "G3",
                    "midi": 55,
                    "time": 39.40885467187497,
                    "velocity": 0.6299212598425197,
                    "duration": 0.5760537656250051
                },
                {
                    "name": "A2",
                    "midi": 45,
                    "time": 39.75900499999997,
                    "velocity": 0.6299212598425197,
                    "duration": 0.60993928125
                },
                {
                    "name": "F#3",
                    "midi": 54,
                    "time": 40.120450499999976,
                    "velocity": 0.6299212598425197,
                    "duration": 0.6664151406249914
                },
                {
                    "name": "G2",
                    "midi": 43,
                    "time": 40.48189599999997,
                    "velocity": 0.6299212598425197,
                    "duration": 0.6965355989583273
                },
                {
                    "name": "E3",
                    "midi": 52,
                    "time": 40.843341499999966,
                    "velocity": 0.6299212598425197,
                    "duration": 0.68147536979167
                },
                {
                    "name": "F#2",
                    "midi": 42,
                    "time": 41.20478699999997,
                    "velocity": 0.6299212598425197,
                    "duration": 0.6137043385416661
                },
                {
                    "name": "D#3",
                    "midi": 51,
                    "time": 41.57752767187497,
                    "velocity": 0.6299212598425197,
                    "duration": 0.28614435416666595
                },
                {
                    "name": "E3",
                    "midi": 52,
                    "time": 41.927677999999965,
                    "velocity": 0.6299212598425197,
                    "duration": 0.6777103124999968
                },
                {
                    "name": "G2",
                    "midi": 43,
                    "time": 42.300418671874965,
                    "velocity": 0.6299212598425197,
                    "duration": 0.28614435416666595
                },
                {
                    "name": "A2",
                    "midi": 45,
                    "time": 42.65056899999996,
                    "velocity": 0.6299212598425197,
                    "duration": 0.3727406718750004
                },
                {
                    "name": "B2",
                    "midi": 47,
                    "time": 43.02330967187496,
                    "velocity": 0.6299212598425197,
                    "duration": 0.28614435416666595
                },
                {
                    "name": "E2",
                    "midi": 40,
                    "time": 43.37345999999996,
                    "velocity": 0.6141732283464567,
                    "duration": 0.7567765156250061
                },
                {
                    "name": "E3",
                    "midi": 52,
                    "time": 43.73490549999996,
                    "velocity": 0.6299212598425197,
                    "duration": 1.046685927083331
                },
                {
                    "name": "G3",
                    "midi": 55,
                    "time": 44.09635099999996,
                    "velocity": 0.6299212598425197,
                    "duration": 0.3689756145833343
                },
                {
                    "name": "B3",
                    "midi": 59,
                    "time": 44.47285672916663,
                    "velocity": 0.6299212598425197,
                    "duration": 0.28614435416666595
                },
                {
                    "name": "D#3",
                    "midi": 51,
                    "time": 44.81924199999996,
                    "velocity": 0.6299212598425197,
                    "duration": 1.046685927083331
                },
                {
                    "name": "F#3",
                    "midi": 54,
                    "time": 45.19574772916663,
                    "velocity": 0.6299212598425197,
                    "duration": 0.28614435416666595
                },
                {
                    "name": "B3",
                    "midi": 59,
                    "time": 45.54213299999996,
                    "velocity": 0.6299212598425197,
                    "duration": 1.0278606406250006
                },
                {
                    "name": "D3",
                    "midi": 50,
                    "time": 45.90357849999996,
                    "velocity": 0.6299212598425197,
                    "duration": 0.28614435416666595
                },
                {
                    "name": "C#3",
                    "midi": 49,
                    "time": 46.26502399999996,
                    "velocity": 0.6299212598425197,
                    "duration": 1.046685927083331
                },
                {
                    "name": "B3",
                    "midi": 59,
                    "time": 46.645294786458294,
                    "velocity": 0.6299212598425197,
                    "duration": 0.28614435416666595
                },
                {
                    "name": "A3",
                    "midi": 57,
                    "time": 46.98791499999996,
                    "velocity": 0.6299212598425197,
                    "duration": 1.046685927083331
                },
                {
                    "name": "C3",
                    "midi": 48,
                    "time": 47.36818578645829,
                    "velocity": 0.6299212598425197,
                    "duration": 0.28614435416666595
                },
                {
                    "name": "B2",
                    "midi": 47,
                    "time": 47.710805999999955,
                    "velocity": 0.6299212598425197,
                    "duration": 0.6325296250000036
                },
                {
                    "name": "G3",
                    "midi": 55,
                    "time": 48.07225149999996,
                    "velocity": 0.6299212598425197,
                    "duration": 0.5760537656250051
                },
                {
                    "name": "A2",
                    "midi": 45,
                    "time": 48.43369699999996,
                    "velocity": 0.6299212598425197,
                    "duration": 0.5760537656250051
                },
                {
                    "name": "F#3",
                    "midi": 54,
                    "time": 48.79514249999996,
                    "velocity": 0.6299212598425197,
                    "duration": 0.68147536979167
                },
                {
                    "name": "G2",
                    "midi": 43,
                    "time": 49.156587999999964,
                    "velocity": 0.6299212598425197,
                    "duration": 0.6325296250000036
                },
                {
                    "name": "E3",
                    "midi": 52,
                    "time": 49.518033499999966,
                    "velocity": 0.6299212598425197,
                    "duration": 0.6852404270833361
                },
                {
                    "name": "F#2",
                    "midi": 42,
                    "time": 49.87947899999997,
                    "velocity": 0.6299212598425197,
                    "duration": 0.576053765624998
                },
                {
                    "name": "D#3",
                    "midi": 51,
                    "time": 50.2597497864583,
                    "velocity": 0.6299212598425197,
                    "duration": 0.27108412500000156
                },
                {
                    "name": "E3",
                    "midi": 52,
                    "time": 50.60236999999997,
                    "velocity": 0.6299212598425197,
                    "duration": 0.6777103124999968
                },
                {
                    "name": "G2",
                    "midi": 43,
                    "time": 50.982640786458305,
                    "velocity": 0.6299212598425197,
                    "duration": 0.30120458333333033
                },
                {
                    "name": "A2",
                    "midi": 45,
                    "time": 51.32526099999997,
                    "velocity": 0.6299212598425197,
                    "duration": 0.3539153854166699
                },
                {
                    "name": "B2",
                    "midi": 47,
                    "time": 51.70553178645831,
                    "velocity": 0.6299212598425197,
                    "duration": 0.28614435416666595
                },
                {
                    "name": "E2",
                    "midi": 40,
                    "time": 52.04815199999997,
                    "velocity": 0.6299212598425197,
                    "duration": 0.9374992656250072
                },
                {
                    "name": "E3",
                    "midi": 52,
                    "time": 52.409597499999975,
                    "velocity": 0.6299212598425197,
                    "duration": 1.046685927083331
                },
                {
                    "name": "G3",
                    "midi": 55,
                    "time": 52.77104299999998,
                    "velocity": 0.6299212598425197,
                    "duration": 0.3614455000000021
                },
                {
                    "name": "B3",
                    "midi": 59,
                    "time": 53.15131378645831,
                    "velocity": 0.6299212598425197,
                    "duration": 0.28614435416666595
                },
                {
                    "name": "D#3",
                    "midi": 51,
                    "time": 53.493933999999975,
                    "velocity": 0.6299212598425197,
                    "duration": 1.046685927083331
                },
                {
                    "name": "F#3",
                    "midi": 54,
                    "time": 53.87420478645831,
                    "velocity": 0.6299212598425197,
                    "duration": 0.28614435416666595
                },
                {
                    "name": "B3",
                    "midi": 59,
                    "time": 54.21682499999997,
                    "velocity": 0.6299212598425197,
                    "duration": 1.009035354166663
                },
                {
                    "name": "D3",
                    "midi": 50,
                    "time": 54.597095786458304,
                    "velocity": 0.6299212598425197,
                    "duration": 0.28614435416666595
                },
                {
                    "name": "C#3",
                    "midi": 49,
                    "time": 54.93971599999997,
                    "velocity": 0.6299212598425197,
                    "duration": 1.046685927083331
                },
                {
                    "name": "B3",
                    "midi": 59,
                    "time": 55.3199867864583,
                    "velocity": 0.6299212598425197,
                    "duration": 0.28614435416666595
                },
                {
                    "name": "A3",
                    "midi": 57,
                    "time": 55.662606999999966,
                    "velocity": 0.6299212598425197,
                    "duration": 1.046685927083331
                },
                {
                    "name": "C3",
                    "midi": 48,
                    "time": 56.0428777864583,
                    "velocity": 0.6299212598425197,
                    "duration": 0.28614435416666595
                },
                {
                    "name": "B2",
                    "midi": 47,
                    "time": 56.38549799999996,
                    "velocity": 0.6299212598425197,
                    "duration": 0.6325296249999965
                },
                {
                    "name": "G3",
                    "midi": 55,
                    "time": 56.765768786458295,
                    "velocity": 0.6299212598425197,
                    "duration": 0.5911139947916624
                },
                {
                    "name": "A2",
                    "midi": 45,
                    "time": 57.10838899999996,
                    "velocity": 0.6299212598425197,
                    "duration": 0.576053765624998
                },
                {
                    "name": "F#3",
                    "midi": 54,
                    "time": 57.48865978645829,
                    "velocity": 0.6299212598425197,
                    "duration": 0.6475898541666609
                },
                {
                    "name": "G2",
                    "midi": 43,
                    "time": 57.83127999999996,
                    "velocity": 0.6299212598425197,
                    "duration": 0.6249995104166644
                },
                {
                    "name": "E3",
                    "midi": 52,
                    "time": 58.21155078645829,
                    "velocity": 0.6299212598425197,
                    "duration": 0.6438247968749948
                },
                {
                    "name": "F#2",
                    "midi": 42,
                    "time": 58.554170999999954,
                    "velocity": 0.6299212598425197,
                    "duration": 0.6024091666666678
                },
                {
                    "name": "D#3",
                    "midi": 51,
                    "time": 58.93444178645829,
                    "velocity": 0.6299212598425197,
                    "duration": 0.26731906770833547
                },
                {
                    "name": "E3",
                    "midi": 52,
                    "time": 59.27706199999996,
                    "velocity": 0.6299212598425197,
                    "duration": 0.7153608854166649
                },
                {
                    "name": "G2",
                    "midi": 43,
                    "time": 59.65733278645829,
                    "velocity": 0.6299212598425197,
                    "duration": 0.28614435416666595
                },
                {
                    "name": "A2",
                    "midi": 45,
                    "time": 59.999952999999955,
                    "velocity": 0.6299212598425197,
                    "duration": 0.3313250416666662
                },
                {
                    "name": "B2",
                    "midi": 47,
                    "time": 60.38022378645829,
                    "velocity": 0.6299212598425197,
                    "duration": 0.28614435416666595
                },
                {
                    "name": "E2",
                    "midi": 40,
                    "time": 60.72284399999995,
                    "velocity": 0.6299212598425197,
                    "duration": 0.9073788072916713
                },
                {
                    "name": "E3",
                    "midi": 52,
                    "time": 61.084289499999954,
                    "velocity": 0.6299212598425197,
                    "duration": 1.0504509843749972
                },
                {
                    "name": "G3",
                    "midi": 55,
                    "time": 61.44573499999996,
                    "velocity": 0.6299212598425197,
                    "duration": 0.3614455000000021
                },
                {
                    "name": "B3",
                    "midi": 59,
                    "time": 61.829770843749955,
                    "velocity": 0.6299212598425197,
                    "duration": 0.28614435416666595
                },
                {
                    "name": "D#3",
                    "midi": 51,
                    "time": 62.16862599999995,
                    "velocity": 0.6299212598425197,
                    "duration": 1.0655112135416687
                },
                {
                    "name": "F#3",
                    "midi": 54,
                    "time": 62.548896786458286,
                    "velocity": 0.6299212598425197,
                    "duration": 0.30496964062500354
                },
                {
                    "name": "B3",
                    "midi": 59,
                    "time": 62.89151699999996,
                    "velocity": 0.6299212598425197,
                    "duration": 1.001505239583338
                },
                {
                    "name": "D3",
                    "midi": 50,
                    "time": 63.275552843749956,
                    "velocity": 0.6299212598425197,
                    "duration": 0.26731906770833547
                },
                {
                    "name": "C#3",
                    "midi": 49,
                    "time": 63.61440799999996,
                    "velocity": 0.6299212598425197,
                    "duration": 1.046685927083324
                },
                {
                    "name": "B3",
                    "midi": 59,
                    "time": 63.99844384374996,
                    "velocity": 0.6299212598425197,
                    "duration": 0.28990941145833204
                },
                {
                    "name": "A3",
                    "midi": 57,
                    "time": 64.33729899999996,
                    "velocity": 0.6299212598425197,
                    "duration": 1.0466859270833169
                },
                {
                    "name": "C3",
                    "midi": 48,
                    "time": 64.71756978645828,
                    "velocity": 0.6299212598425197,
                    "duration": 0.28614435416666595
                },
                {
                    "name": "B2",
                    "midi": 47,
                    "time": 65.06018999999995,
                    "velocity": 0.6299212598425197,
                    "duration": 0.6400597395833216
                },
                {
                    "name": "G3",
                    "midi": 55,
                    "time": 65.44046078645827,
                    "velocity": 0.6299212598425197,
                    "duration": 0.5835838802083373
                },
                {
                    "name": "A2",
                    "midi": 45,
                    "time": 65.78308099999994,
                    "velocity": 0.6299212598425197,
                    "duration": 0.5986441093750017
                },
                {
                    "name": "F#3",
                    "midi": 54,
                    "time": 66.16335178645828,
                    "velocity": 0.6299212598425197,
                    "duration": 0.647589854166668
                },
                {
                    "name": "G2",
                    "midi": 43,
                    "time": 66.50597199999994,
                    "velocity": 0.6299212598425197,
                    "duration": 0.6626500833333324
                },
                {
                    "name": "E3",
                    "midi": 52,
                    "time": 66.86741749999995,
                    "velocity": 0.6299212598425197,
                    "duration": 0.6287645677083304
                },
                {
                    "name": "F#2",
                    "midi": 42,
                    "time": 67.22886299999995,
                    "velocity": 0.6299212598425197,
                    "duration": 0.5986441093749875
                },
                {
                    "name": "D#3",
                    "midi": 51,
                    "time": 67.60913378645827,
                    "velocity": 0.6299212598425197,
                    "duration": 0.28614435416666595
                },
                {
                    "name": "E3",
                    "midi": 52,
                    "time": 67.95175399999994,
                    "velocity": 0.6299212598425197,
                    "duration": 0.7078307708333398
                },
                {
                    "name": "G2",
                    "midi": 43,
                    "time": 68.33202478645828,
                    "velocity": 0.6299212598425197,
                    "duration": 0.28614435416666595
                },
                {
                    "name": "A2",
                    "midi": 45,
                    "time": 68.67464499999994,
                    "velocity": 0.6299212598425197,
                    "duration": 0.3614455000000021
                },
                {
                    "name": "B2",
                    "midi": 47,
                    "time": 69.05491578645828,
                    "velocity": 0.6299212598425197,
                    "duration": 0.28614435416666595
                },
                {
                    "name": "E2",
                    "midi": 40,
                    "time": 69.39753599999995,
                    "velocity": 0.6141732283464567,
                    "duration": 0.5609935364583407
                },
                {
                    "name": "E3",
                    "midi": 52,
                    "time": 69.75898149999995,
                    "velocity": 0.6299212598425197,
                    "duration": 1.0466859270833453
                },
                {
                    "name": "G3",
                    "midi": 55,
                    "time": 70.12042699999995,
                    "velocity": 0.6299212598425197,
                    "duration": 0.5158128489583333
                },
                {
                    "name": "B3",
                    "midi": 59,
                    "time": 70.50069778645829,
                    "velocity": 0.6299212598425197,
                    "duration": 0.28614435416666595
                },
                {
                    "name": "D#3",
                    "midi": 51,
                    "time": 70.84331799999995,
                    "velocity": 0.6299212598425197,
                    "duration": 1.0165654687500023
                },
                {
                    "name": "F#3",
                    "midi": 54,
                    "time": 71.2235887864583,
                    "velocity": 0.6299212598425197,
                    "duration": 0.28614435416666595
                },
                {
                    "name": "B3",
                    "midi": 59,
                    "time": 71.56620899999996,
                    "velocity": 0.6299212598425197,
                    "duration": 0.903613749999991
                },
                {
                    "name": "D3",
                    "midi": 50,
                    "time": 71.94647978645828,
                    "velocity": 0.6299212598425197,
                    "duration": 0.28614435416666595
                },
                {
                    "name": "C#3",
                    "midi": 49,
                    "time": 72.28909999999995,
                    "velocity": 0.6299212598425197,
                    "duration": 1.046685927083331
                },
                {
                    "name": "B3",
                    "midi": 59,
                    "time": 72.66937078645829,
                    "velocity": 0.6299212598425197,
                    "duration": 0.28614435416666595
                },
                {
                    "name": "A3",
                    "midi": 57,
                    "time": 73.01199099999995,
                    "velocity": 0.6299212598425197,
                    "duration": 1.0466859270833169
                },
                {
                    "name": "C3",
                    "midi": 48,
                    "time": 73.39226178645828,
                    "velocity": 0.6299212598425197,
                    "duration": 0.28614435416666595
                },
                {
                    "name": "B2",
                    "midi": 47,
                    "time": 73.73488199999994,
                    "velocity": 0.6299212598425197,
                    "duration": 0.6325296250000036
                },
                {
                    "name": "G3",
                    "midi": 55,
                    "time": 74.11138772916661,
                    "velocity": 0.6299212598425197,
                    "duration": 0.5986441093750017
                },
                {
                    "name": "A2",
                    "midi": 45,
                    "time": 74.45777299999995,
                    "velocity": 0.6299212598425197,
                    "duration": 0.5760537656250051
                },
                {
                    "name": "F#3",
                    "midi": 54,
                    "time": 74.83427872916661,
                    "velocity": 0.6299212598425197,
                    "duration": 0.647589854166668
                },
                {
                    "name": "G2",
                    "midi": 43,
                    "time": 75.18066399999995,
                    "velocity": 0.6299212598425197,
                    "duration": 0.6137043385416519
                },
                {
                    "name": "E3",
                    "midi": 52,
                    "time": 75.56093478645828,
                    "velocity": 0.6299212598425197,
                    "duration": 0.5760537656249909
                },
                {
                    "name": "F#2",
                    "midi": 42,
                    "time": 75.90355499999994,
                    "velocity": 0.6299212598425197,
                    "duration": 0.6137043385416519
                },
                {
                    "name": "D#3",
                    "midi": 51,
                    "time": 76.28382578645827,
                    "velocity": 0.6299212598425197,
                    "duration": 0.28614435416666595
                },
                {
                    "name": "E3",
                    "midi": 52,
                    "time": 76.62644599999993,
                    "velocity": 0.6299212598425197,
                    "duration": 0.677710312500011
                },
                {
                    "name": "G2",
                    "midi": 43,
                    "time": 77.00671678645827,
                    "velocity": 0.6299212598425197,
                    "duration": 0.28614435416666595
                },
                {
                    "name": "A2",
                    "midi": 45,
                    "time": 77.34933699999993,
                    "velocity": 0.6299212598425197,
                    "duration": 0.3124997552083357
                },
                {
                    "name": "B2",
                    "midi": 47,
                    "time": 77.72960778645827,
                    "velocity": 0.6299212598425197,
                    "duration": 0.28237929687500696
                },
                {
                    "name": "E2",
                    "midi": 40,
                    "time": 78.07222799999995,
                    "velocity": 0.6220472440944882,
                    "duration": 1.2989447656250093
                },
                {
                    "name": "E3",
                    "midi": 52,
                    "time": 78.45249878645829,
                    "velocity": 0.6299212598425197,
                    "duration": 1.0090353541666701
                },
                {
                    "name": "G3",
                    "midi": 55,
                    "time": 78.79511899999996,
                    "velocity": 0.6299212598425197,
                    "duration": 0.647589854166668
                },
                {
                    "name": "B3",
                    "midi": 59,
                    "time": 79.1753897864583,
                    "velocity": 0.6299212598425197,
                    "duration": 0.28614435416666595
                },
                {
                    "name": "D#3",
                    "midi": 51,
                    "time": 79.51800999999996,
                    "velocity": 0.6299212598425197,
                    "duration": 1.046685927083331
                },
                {
                    "name": "F#3",
                    "midi": 54,
                    "time": 79.8982807864583,
                    "velocity": 0.6299212598425197,
                    "duration": 0.3200298697916679
                },
                {
                    "name": "B3",
                    "midi": 59,
                    "time": 80.24090099999997,
                    "velocity": 0.6299212598425197,
                    "duration": 1.009035354166656
                },
                {
                    "name": "D3",
                    "midi": 50,
                    "time": 80.62117178645829,
                    "velocity": 0.6299212598425197,
                    "duration": 0.28614435416666595
                },
                {
                    "name": "C#3",
                    "midi": 49,
                    "time": 80.96379199999996,
                    "velocity": 0.6299212598425197,
                    "duration": 1.046685927083331
                },
                {
                    "name": "B3",
                    "midi": 59,
                    "time": 81.3440627864583,
                    "velocity": 0.6299212598425197,
                    "duration": 0.28614435416666595
                },
                {
                    "name": "A3",
                    "midi": 57,
                    "time": 81.68668299999996,
                    "velocity": 0.6299212598425197,
                    "duration": 1.0466859270833169
                },
                {
                    "name": "C3",
                    "midi": 48,
                    "time": 82.06695378645828,
                    "velocity": 0.6299212598425197,
                    "duration": 0.28614435416666595
                },
                {
                    "name": "B2",
                    "midi": 47,
                    "time": 82.40957399999995,
                    "velocity": 0.6299212598425197,
                    "duration": 0.6626500833333324
                },
                {
                    "name": "G3",
                    "midi": 55,
                    "time": 82.78607972916662,
                    "velocity": 0.6299212598425197,
                    "duration": 0.5760537656250051
                },
                {
                    "name": "A2",
                    "midi": 45,
                    "time": 83.13246499999995,
                    "velocity": 0.6299212598425197,
                    "duration": 0.6212344531249983
                },
                {
                    "name": "F#3",
                    "midi": 54,
                    "time": 83.50897072916662,
                    "velocity": 0.6299212598425197,
                    "duration": 0.647589854166668
                },
                {
                    "name": "G2",
                    "midi": 43,
                    "time": 83.85535599999996,
                    "velocity": 0.6299212598425197,
                    "duration": 0.7003006562500076
                },
                {
                    "name": "E3",
                    "midi": 52,
                    "time": 84.21680149999996,
                    "velocity": 0.6299212598425197,
                    "duration": 0.6626500833333324
                },
                {
                    "name": "F#2",
                    "midi": 42,
                    "time": 84.57824699999996,
                    "velocity": 0.6299212598425197,
                    "duration": 0.6701801979166646
                },
                {
                    "name": "D#3",
                    "midi": 51,
                    "time": 84.95851778645829,
                    "velocity": 0.6299212598425197,
                    "duration": 0.28614435416666595
                },
                {
                    "name": "E3",
                    "midi": 52,
                    "time": 85.30113799999997,
                    "velocity": 0.6299212598425197,
                    "duration": 1.3855410833333508
                },
                {
                    "name": "G2",
                    "midi": 43,
                    "time": 85.6814087864583,
                    "velocity": 0.6299212598425197,
                    "duration": 0.3275599843750001
                },
                {
                    "name": "A2",
                    "midi": 45,
                    "time": 86.02402899999997,
                    "velocity": 0.6299212598425197,
                    "duration": 0.37650572916666647
                },
                {
                    "name": "B2",
                    "midi": 47,
                    "time": 86.40053472916664,
                    "velocity": 0.6299212598425197,
                    "duration": 0.28237929687500696
                },
                {
                    "name": "E2",
                    "midi": 40,
                    "time": 86.74691999999999,
                    "velocity": 0.6299212598425197,
                    "duration": 3.5692743124999993
                }
            ],
            "controlChanges": {
                "7": [
                    {
                        "number": 7,
                        "time": 0,
                        "value": 0.984251968503937
                    }
                ],
                "10": [
                    {
                        "number": 10,
                        "time": 0,
                        "value": 0.5433070866141733
                    }
                ],
                "91": [
                    {
                        "number": 91,
                        "time": 0,
                        "value": 0.3937007874015748
                    }
                ],
                "121": [
                    {
                        "number": 121,
                        "time": 0,
                        "value": 0
                    },
                    {
                        "number": 121,
                        "time": 90.35007982812499,
                        "value": 0
                    }
                ]
            },
            "id": 2,
            "name": "hpschd LH ",
            "instrumentNumber": 6,
            "instrument": "harpsichord",
            "instrumentFamily": "piano",
            "channelNumber": 1,
            "isPercussion": false
        },
        {
            "startTime": 0,
            "duration": 0,
            "length": 0,
            "notes": [],
            "controlChanges": {},
            "id": 3,
            "name": "text      "
        }
    ]
}