{
    "header": {
        "PPQ": 240,
        "timeSignature": [
            3,
            4
        ],
        "bpm": 100,
        "name": "\"Strike The Viol\" by H. Purcell"
    },
    "startTime": 0,
    "duration": 139.5600000000002,
    "tracks": [
        {
            "startTime": 0,
            "duration": 0,
            "length": 0,
            "notes": [],
            "controlChanges": {},
            "id": 0
        },
        {
            "startTime": 0.6,
            "duration": 139.56000000000014,
            "length": 155,
            "notes": [
                {
                    "name": "A5",
                    "midi": 81,
                    "time": 0.6,
                    "velocity": 0.6299212598425197,
                    "duration": 0.4800000000000001
                },
                {
                    "name": "G5",
                    "midi": 79,
                    "time": 1.2000000000000002,
                    "velocity": 0.6299212598425197,
                    "duration": 0.48
                },
                {
                    "name": "F5",
                    "midi": 77,
                    "time": 2.4000000000000004,
                    "velocity": 0.6299212598425197,
                    "duration": 0.48
                },
                {
                    "name": "E5",
                    "midi": 76,
                    "time": 3.0000000000000004,
                    "velocity": 0.6299212598425197,
                    "duration": 0.48
                },
                {
                    "name": "A5",
                    "midi": 81,
                    "time": 4.2,
                    "velocity": 0.6299212598425197,
                    "duration": 0.47999999999999954
                },
                {
                    "name": "G5",
                    "midi": 79,
                    "time": 4.8,
                    "velocity": 0.6299212598425197,
                    "duration": 0.47999999999999954
                },
                {
                    "name": "F5",
                    "midi": 77,
                    "time": 5.999999999999999,
                    "velocity": 0.6299212598425197,
                    "duration": 0.47999999999999954
                },
                {
                    "name": "E5",
                    "midi": 76,
                    "time": 6.599999999999999,
                    "velocity": 0.6299212598425197,
                    "duration": 0.47999999999999954
                },
                {
                    "name": "A5",
                    "midi": 81,
                    "time": 7.799999999999998,
                    "velocity": 0.6299212598425197,
                    "duration": 0.47999999999999954
                },
                {
                    "name": "G5",
                    "midi": 79,
                    "time": 8.399999999999997,
                    "velocity": 0.6299212598425197,
                    "duration": 0.4800000000000004
                },
                {
                    "name": "F5",
                    "midi": 77,
                    "time": 9.599999999999998,
                    "velocity": 0.6299212598425197,
                    "duration": 0.4800000000000004
                },
                {
                    "name": "E5",
                    "midi": 76,
                    "time": 10.199999999999998,
                    "velocity": 0.6299212598425197,
                    "duration": 0.4800000000000004
                },
                {
                    "name": "A5",
                    "midi": 81,
                    "time": 11.399999999999999,
                    "velocity": 0.6299212598425197,
                    "duration": 0.4800000000000004
                },
                {
                    "name": "A#5",
                    "midi": 82,
                    "time": 11.999999999999998,
                    "velocity": 0.6299212598425197,
                    "duration": 0.4800000000000004
                },
                {
                    "name": "G5",
                    "midi": 79,
                    "time": 13.2,
                    "velocity": 0.6299212598425197,
                    "duration": 0.4800000000000004
                },
                {
                    "name": "A5",
                    "midi": 81,
                    "time": 13.799999999999999,
                    "velocity": 0.6299212598425197,
                    "duration": 0.4800000000000004
                },
                {
                    "name": "G5",
                    "midi": 79,
                    "time": 15,
                    "velocity": 0.6299212598425197,
                    "duration": 0.4800000000000004
                },
                {
                    "name": "G5",
                    "midi": 79,
                    "time": 15.6,
                    "velocity": 0.6299212598425197,
                    "duration": 0.47999999999999865
                },
                {
                    "name": "F5",
                    "midi": 77,
                    "time": 16.799999999999997,
                    "velocity": 0.6299212598425197,
                    "duration": 0.4800000000000004
                },
                {
                    "name": "E5",
                    "midi": 76,
                    "time": 17.4,
                    "velocity": 0.6299212598425197,
                    "duration": 0.4800000000000004
                },
                {
                    "name": "A5",
                    "midi": 81,
                    "time": 18.599999999999998,
                    "velocity": 0.6299212598425197,
                    "duration": 0.4800000000000004
                },
                {
                    "name": "A5",
                    "midi": 81,
                    "time": 19.2,
                    "velocity": 0.6299212598425197,
                    "duration": 0.4800000000000004
                },
                {
                    "name": "A5",
                    "midi": 81,
                    "time": 20.4,
                    "velocity": 0.6299212598425197,
                    "duration": 0.4800000000000004
                },
                {
                    "name": "E5",
                    "midi": 76,
                    "time": 21,
                    "velocity": 0.6299212598425197,
                    "duration": 0.4800000000000004
                },
                {
                    "name": "A5",
                    "midi": 81,
                    "time": 22.2,
                    "velocity": 0.6299212598425197,
                    "duration": 0.4800000000000004
                },
                {
                    "name": "A5",
                    "midi": 81,
                    "time": 22.8,
                    "velocity": 0.6299212598425197,
                    "duration": 0.4800000000000004
                },
                {
                    "name": "A5",
                    "midi": 81,
                    "time": 24,
                    "velocity": 0.6299212598425197,
                    "duration": 0.4800000000000004
                },
                {
                    "name": "E5",
                    "midi": 76,
                    "time": 24.6,
                    "velocity": 0.6299212598425197,
                    "duration": 0.4800000000000004
                },
                {
                    "name": "A5",
                    "midi": 81,
                    "time": 25.8,
                    "velocity": 0.6299212598425197,
                    "duration": 0.4800000000000004
                },
                {
                    "name": "C6",
                    "midi": 84,
                    "time": 26.400000000000002,
                    "velocity": 0.6299212598425197,
                    "duration": 0.4800000000000004
                },
                {
                    "name": "C6",
                    "midi": 84,
                    "time": 27.6,
                    "velocity": 0.6299212598425197,
                    "duration": 0.4800000000000004
                },
                {
                    "name": "C6",
                    "midi": 84,
                    "time": 28.200000000000003,
                    "velocity": 0.6299212598425197,
                    "duration": 0.4800000000000004
                },
                {
                    "name": "A#5",
                    "midi": 82,
                    "time": 29.400000000000002,
                    "velocity": 0.6299212598425197,
                    "duration": 0.4800000000000004
                },
                {
                    "name": "A#5",
                    "midi": 82,
                    "time": 30.000000000000004,
                    "velocity": 0.6299212598425197,
                    "duration": 0.4800000000000004
                },
                {
                    "name": "A5",
                    "midi": 81,
                    "time": 31.200000000000003,
                    "velocity": 0.6299212598425197,
                    "duration": 0.4800000000000004
                },
                {
                    "name": "G5",
                    "midi": 79,
                    "time": 31.800000000000004,
                    "velocity": 0.6299212598425197,
                    "duration": 0.4799999999999969
                },
                {
                    "name": "A5",
                    "midi": 81,
                    "time": 33,
                    "velocity": 0.6299212598425197,
                    "duration": 0.4799999999999969
                },
                {
                    "name": "C6",
                    "midi": 84,
                    "time": 33.599999999999994,
                    "velocity": 0.6299212598425197,
                    "duration": 0.4799999999999969
                },
                {
                    "name": "C6",
                    "midi": 84,
                    "time": 34.79999999999999,
                    "velocity": 0.6299212598425197,
                    "duration": 0.4799999999999969
                },
                {
                    "name": "C6",
                    "midi": 84,
                    "time": 35.399999999999984,
                    "velocity": 0.6299212598425197,
                    "duration": 0.4799999999999969
                },
                {
                    "name": "A#5",
                    "midi": 82,
                    "time": 36.59999999999998,
                    "velocity": 0.6299212598425197,
                    "duration": 0.4799999999999969
                },
                {
                    "name": "A#5",
                    "midi": 82,
                    "time": 37.199999999999974,
                    "velocity": 0.6299212598425197,
                    "duration": 0.4799999999999969
                },
                {
                    "name": "A5",
                    "midi": 81,
                    "time": 38.39999999999997,
                    "velocity": 0.6299212598425197,
                    "duration": 0.4799999999999969
                },
                {
                    "name": "A5",
                    "midi": 81,
                    "time": 38.999999999999964,
                    "velocity": 0.6299212598425197,
                    "duration": 0.4799999999999969
                },
                {
                    "name": "A5",
                    "midi": 81,
                    "time": 40.19999999999996,
                    "velocity": 0.6299212598425197,
                    "duration": 0.4799999999999969
                },
                {
                    "name": "G5",
                    "midi": 79,
                    "time": 40.799999999999955,
                    "velocity": 0.6299212598425197,
                    "duration": 0.4799999999999969
                },
                {
                    "name": "F5",
                    "midi": 77,
                    "time": 41.99999999999995,
                    "velocity": 0.6299212598425197,
                    "duration": 0.4799999999999969
                },
                {
                    "name": "E5",
                    "midi": 76,
                    "time": 42.599999999999945,
                    "velocity": 0.6299212598425197,
                    "duration": 0.4799999999999969
                },
                {
                    "name": "A5",
                    "midi": 81,
                    "time": 43.79999999999994,
                    "velocity": 0.6299212598425197,
                    "duration": 0.4799999999999969
                },
                {
                    "name": "G5",
                    "midi": 79,
                    "time": 44.399999999999935,
                    "velocity": 0.6299212598425197,
                    "duration": 0.4799999999999969
                },
                {
                    "name": "F5",
                    "midi": 77,
                    "time": 45.59999999999993,
                    "velocity": 0.6299212598425197,
                    "duration": 0.4799999999999969
                },
                {
                    "name": "E5",
                    "midi": 76,
                    "time": 46.199999999999925,
                    "velocity": 0.6299212598425197,
                    "duration": 0.4799999999999969
                },
                {
                    "name": "A5",
                    "midi": 81,
                    "time": 47.39999999999992,
                    "velocity": 0.6299212598425197,
                    "duration": 0.4799999999999969
                },
                {
                    "name": "A#5",
                    "midi": 82,
                    "time": 47.999999999999915,
                    "velocity": 0.6299212598425197,
                    "duration": 0.4799999999999969
                },
                {
                    "name": "G5",
                    "midi": 79,
                    "time": 49.19999999999991,
                    "velocity": 0.6299212598425197,
                    "duration": 0.4799999999999969
                },
                {
                    "name": "A5",
                    "midi": 81,
                    "time": 49.799999999999905,
                    "velocity": 0.6299212598425197,
                    "duration": 0.4799999999999969
                },
                {
                    "name": "G5",
                    "midi": 79,
                    "time": 50.9999999999999,
                    "velocity": 0.6299212598425197,
                    "duration": 0.4799999999999969
                },
                {
                    "name": "G5",
                    "midi": 79,
                    "time": 51.599999999999895,
                    "velocity": 0.6299212598425197,
                    "duration": 0.4799999999999969
                },
                {
                    "name": "F5",
                    "midi": 77,
                    "time": 52.79999999999989,
                    "velocity": 0.6299212598425197,
                    "duration": 0.4799999999999969
                },
                {
                    "name": "E5",
                    "midi": 76,
                    "time": 53.399999999999885,
                    "velocity": 0.6299212598425197,
                    "duration": 0.4799999999999969
                },
                {
                    "name": "A5",
                    "midi": 81,
                    "time": 54.59999999999988,
                    "velocity": 0.6299212598425197,
                    "duration": 0.4799999999999969
                },
                {
                    "name": "A5",
                    "midi": 81,
                    "time": 55.199999999999875,
                    "velocity": 0.6299212598425197,
                    "duration": 0.4799999999999969
                },
                {
                    "name": "A5",
                    "midi": 81,
                    "time": 56.39999999999987,
                    "velocity": 0.6299212598425197,
                    "duration": 0.4799999999999969
                },
                {
                    "name": "E5",
                    "midi": 76,
                    "time": 56.999999999999865,
                    "velocity": 0.6299212598425197,
                    "duration": 0.4799999999999969
                },
                {
                    "name": "A5",
                    "midi": 81,
                    "time": 58.19999999999986,
                    "velocity": 0.6299212598425197,
                    "duration": 0.4799999999999969
                },
                {
                    "name": "A5",
                    "midi": 81,
                    "time": 58.799999999999855,
                    "velocity": 0.6299212598425197,
                    "duration": 0.4799999999999969
                },
                {
                    "name": "A5",
                    "midi": 81,
                    "time": 59.99999999999985,
                    "velocity": 0.6299212598425197,
                    "duration": 0.4799999999999969
                },
                {
                    "name": "E5",
                    "midi": 76,
                    "time": 60.599999999999845,
                    "velocity": 0.6299212598425197,
                    "duration": 0.4799999999999969
                },
                {
                    "name": "A5",
                    "midi": 81,
                    "time": 61.79999999999984,
                    "velocity": 0.6299212598425197,
                    "duration": 0.4799999999999969
                },
                {
                    "name": "C6",
                    "midi": 84,
                    "time": 62.399999999999835,
                    "velocity": 0.6299212598425197,
                    "duration": 0.4799999999999969
                },
                {
                    "name": "C6",
                    "midi": 84,
                    "time": 63.59999999999983,
                    "velocity": 0.6299212598425197,
                    "duration": 0.4799999999999969
                },
                {
                    "name": "C6",
                    "midi": 84,
                    "time": 64.19999999999983,
                    "velocity": 0.6299212598425197,
                    "duration": 0.480000000000004
                },
                {
                    "name": "A#5",
                    "midi": 82,
                    "time": 65.39999999999984,
                    "velocity": 0.6299212598425197,
                    "duration": 0.480000000000004
                },
                {
                    "name": "A#5",
                    "midi": 82,
                    "time": 65.99999999999984,
                    "velocity": 0.6299212598425197,
                    "duration": 0.480000000000004
                },
                {
                    "name": "A5",
                    "midi": 81,
                    "time": 67.19999999999985,
                    "velocity": 0.6299212598425197,
                    "duration": 0.480000000000004
                },
                {
                    "name": "G5",
                    "midi": 79,
                    "time": 67.79999999999986,
                    "velocity": 0.6299212598425197,
                    "duration": 0.480000000000004
                },
                {
                    "name": "A5",
                    "midi": 81,
                    "time": 68.99999999999986,
                    "velocity": 0.6299212598425197,
                    "duration": 0.480000000000004
                },
                {
                    "name": "C6",
                    "midi": 84,
                    "time": 69.59999999999987,
                    "velocity": 0.6299212598425197,
                    "duration": 0.480000000000004
                },
                {
                    "name": "C6",
                    "midi": 84,
                    "time": 70.79999999999987,
                    "velocity": 0.6299212598425197,
                    "duration": 0.480000000000004
                },
                {
                    "name": "C6",
                    "midi": 84,
                    "time": 71.39999999999988,
                    "velocity": 0.6299212598425197,
                    "duration": 0.480000000000004
                },
                {
                    "name": "A#5",
                    "midi": 82,
                    "time": 72.59999999999988,
                    "velocity": 0.6299212598425197,
                    "duration": 0.480000000000004
                },
                {
                    "name": "A#5",
                    "midi": 82,
                    "time": 73.19999999999989,
                    "velocity": 0.6299212598425197,
                    "duration": 0.480000000000004
                },
                {
                    "name": "A5",
                    "midi": 81,
                    "time": 74.39999999999989,
                    "velocity": 0.6299212598425197,
                    "duration": 0.480000000000004
                },
                {
                    "name": "G5",
                    "midi": 79,
                    "time": 74.9999999999999,
                    "velocity": 0.6299212598425197,
                    "duration": 0.480000000000004
                },
                {
                    "name": "A5",
                    "midi": 81,
                    "time": 76.1999999999999,
                    "velocity": 0.6299212598425197,
                    "duration": 0.480000000000004
                },
                {
                    "name": "G5",
                    "midi": 79,
                    "time": 76.79999999999991,
                    "velocity": 0.6299212598425197,
                    "duration": 0.480000000000004
                },
                {
                    "name": "A5",
                    "midi": 81,
                    "time": 77.99999999999991,
                    "velocity": 0.6299212598425197,
                    "duration": 0.480000000000004
                },
                {
                    "name": "C6",
                    "midi": 84,
                    "time": 78.59999999999992,
                    "velocity": 0.6299212598425197,
                    "duration": 0.480000000000004
                },
                {
                    "name": "C6",
                    "midi": 84,
                    "time": 79.79999999999993,
                    "velocity": 0.6299212598425197,
                    "duration": 0.480000000000004
                },
                {
                    "name": "B5",
                    "midi": 83,
                    "time": 80.39999999999993,
                    "velocity": 0.6299212598425197,
                    "duration": 0.480000000000004
                },
                {
                    "name": "C6",
                    "midi": 84,
                    "time": 81.59999999999994,
                    "velocity": 0.6299212598425197,
                    "duration": 0.480000000000004
                },
                {
                    "name": "D6",
                    "midi": 86,
                    "time": 82.19999999999995,
                    "velocity": 0.6299212598425197,
                    "duration": 0.480000000000004
                },
                {
                    "name": "C6",
                    "midi": 84,
                    "time": 83.39999999999995,
                    "velocity": 0.6299212598425197,
                    "duration": 0.480000000000004
                },
                {
                    "name": "B5",
                    "midi": 83,
                    "time": 83.99999999999996,
                    "velocity": 0.6299212598425197,
                    "duration": 0.480000000000004
                },
                {
                    "name": "C6",
                    "midi": 84,
                    "time": 85.19999999999996,
                    "velocity": 0.6299212598425197,
                    "duration": 0.480000000000004
                },
                {
                    "name": "D6",
                    "midi": 86,
                    "time": 85.79999999999997,
                    "velocity": 0.6299212598425197,
                    "duration": 0.480000000000004
                },
                {
                    "name": "C6",
                    "midi": 84,
                    "time": 86.99999999999997,
                    "velocity": 0.6299212598425197,
                    "duration": 0.480000000000004
                },
                {
                    "name": "D6",
                    "midi": 86,
                    "time": 87.59999999999998,
                    "velocity": 0.6299212598425197,
                    "duration": 0.480000000000004
                },
                {
                    "name": "A#5",
                    "midi": 82,
                    "time": 88.79999999999998,
                    "velocity": 0.6299212598425197,
                    "duration": 0.480000000000004
                },
                {
                    "name": "A#5",
                    "midi": 82,
                    "time": 89.39999999999999,
                    "velocity": 0.6299212598425197,
                    "duration": 0.480000000000004
                },
                {
                    "name": "G5",
                    "midi": 79,
                    "time": 90.6,
                    "velocity": 0.6299212598425197,
                    "duration": 0.480000000000004
                },
                {
                    "name": "C6",
                    "midi": 84,
                    "time": 91.2,
                    "velocity": 0.6299212598425197,
                    "duration": 0.480000000000004
                },
                {
                    "name": "A#5",
                    "midi": 82,
                    "time": 92.4,
                    "velocity": 0.6299212598425197,
                    "duration": 0.480000000000004
                },
                {
                    "name": "A#5",
                    "midi": 82,
                    "time": 93.00000000000001,
                    "velocity": 0.6299212598425197,
                    "duration": 0.480000000000004
                },
                {
                    "name": "A5",
                    "midi": 81,
                    "time": 94.20000000000002,
                    "velocity": 0.6299212598425197,
                    "duration": 0.480000000000004
                },
                {
                    "name": "A5",
                    "midi": 81,
                    "time": 94.80000000000003,
                    "velocity": 0.6299212598425197,
                    "duration": 0.480000000000004
                },
                {
                    "name": "A5",
                    "midi": 81,
                    "time": 96.00000000000003,
                    "velocity": 0.6299212598425197,
                    "duration": 0.480000000000004
                },
                {
                    "name": "A5",
                    "midi": 81,
                    "time": 96.60000000000004,
                    "velocity": 0.6299212598425197,
                    "duration": 0.480000000000004
                },
                {
                    "name": "D6",
                    "midi": 86,
                    "time": 97.80000000000004,
                    "velocity": 0.6299212598425197,
                    "duration": 0.480000000000004
                },
                {
                    "name": "C6",
                    "midi": 84,
                    "time": 98.40000000000005,
                    "velocity": 0.6299212598425197,
                    "duration": 0.480000000000004
                },
                {
                    "name": "C6",
                    "midi": 84,
                    "time": 99.60000000000005,
                    "velocity": 0.6299212598425197,
                    "duration": 0.480000000000004
                },
                {
                    "name": "C6",
                    "midi": 84,
                    "time": 100.20000000000006,
                    "velocity": 0.6299212598425197,
                    "duration": 0.480000000000004
                },
                {
                    "name": "A#5",
                    "midi": 82,
                    "time": 101.40000000000006,
                    "velocity": 0.6299212598425197,
                    "duration": 0.480000000000004
                },
                {
                    "name": "A#5",
                    "midi": 82,
                    "time": 102.00000000000007,
                    "velocity": 0.6299212598425197,
                    "duration": 0.480000000000004
                },
                {
                    "name": "A5",
                    "midi": 81,
                    "time": 103.20000000000007,
                    "velocity": 0.6299212598425197,
                    "duration": 0.480000000000004
                },
                {
                    "name": "A5",
                    "midi": 81,
                    "time": 103.80000000000008,
                    "velocity": 0.6299212598425197,
                    "duration": 0.480000000000004
                },
                {
                    "name": "A5",
                    "midi": 81,
                    "time": 105.00000000000009,
                    "velocity": 0.6299212598425197,
                    "duration": 0.480000000000004
                },
                {
                    "name": "A#5",
                    "midi": 82,
                    "time": 105.6000000000001,
                    "velocity": 0.6299212598425197,
                    "duration": 0.480000000000004
                },
                {
                    "name": "A5",
                    "midi": 81,
                    "time": 106.8000000000001,
                    "velocity": 0.6299212598425197,
                    "duration": 0.480000000000004
                },
                {
                    "name": "G5",
                    "midi": 79,
                    "time": 107.4000000000001,
                    "velocity": 0.6299212598425197,
                    "duration": 0.480000000000004
                },
                {
                    "name": "A5",
                    "midi": 81,
                    "time": 108.60000000000011,
                    "velocity": 0.6299212598425197,
                    "duration": 0.480000000000004
                },
                {
                    "name": "C6",
                    "midi": 84,
                    "time": 109.20000000000012,
                    "velocity": 0.6299212598425197,
                    "duration": 0.480000000000004
                },
                {
                    "name": "C6",
                    "midi": 84,
                    "time": 110.40000000000012,
                    "velocity": 0.6299212598425197,
                    "duration": 0.480000000000004
                },
                {
                    "name": "B5",
                    "midi": 83,
                    "time": 111.00000000000013,
                    "velocity": 0.6299212598425197,
                    "duration": 0.480000000000004
                },
                {
                    "name": "C6",
                    "midi": 84,
                    "time": 112.20000000000013,
                    "velocity": 0.6299212598425197,
                    "duration": 0.480000000000004
                },
                {
                    "name": "D6",
                    "midi": 86,
                    "time": 112.80000000000014,
                    "velocity": 0.6299212598425197,
                    "duration": 0.480000000000004
                },
                {
                    "name": "C6",
                    "midi": 84,
                    "time": 114.00000000000014,
                    "velocity": 0.6299212598425197,
                    "duration": 0.480000000000004
                },
                {
                    "name": "B5",
                    "midi": 83,
                    "time": 114.60000000000015,
                    "velocity": 0.6299212598425197,
                    "duration": 0.480000000000004
                },
                {
                    "name": "C6",
                    "midi": 84,
                    "time": 115.80000000000015,
                    "velocity": 0.6299212598425197,
                    "duration": 0.480000000000004
                },
                {
                    "name": "D6",
                    "midi": 86,
                    "time": 116.40000000000016,
                    "velocity": 0.6299212598425197,
                    "duration": 0.480000000000004
                },
                {
                    "name": "C6",
                    "midi": 84,
                    "time": 117.60000000000016,
                    "velocity": 0.6299212598425197,
                    "duration": 0.480000000000004
                },
                {
                    "name": "D6",
                    "midi": 86,
                    "time": 118.20000000000017,
                    "velocity": 0.6299212598425197,
                    "duration": 0.480000000000004
                },
                {
                    "name": "A#5",
                    "midi": 82,
                    "time": 119.40000000000018,
                    "velocity": 0.6299212598425197,
                    "duration": 0.480000000000004
                },
                {
                    "name": "A#5",
                    "midi": 82,
                    "time": 120.00000000000018,
                    "velocity": 0.6299212598425197,
                    "duration": 0.480000000000004
                },
                {
                    "name": "G5",
                    "midi": 79,
                    "time": 121.20000000000019,
                    "velocity": 0.6299212598425197,
                    "duration": 0.480000000000004
                },
                {
                    "name": "C6",
                    "midi": 84,
                    "time": 121.8000000000002,
                    "velocity": 0.6299212598425197,
                    "duration": 0.480000000000004
                },
                {
                    "name": "A#5",
                    "midi": 82,
                    "time": 123.0000000000002,
                    "velocity": 0.6299212598425197,
                    "duration": 0.480000000000004
                },
                {
                    "name": "A#5",
                    "midi": 82,
                    "time": 123.60000000000021,
                    "velocity": 0.6299212598425197,
                    "duration": 0.480000000000004
                },
                {
                    "name": "A5",
                    "midi": 81,
                    "time": 124.80000000000021,
                    "velocity": 0.6299212598425197,
                    "duration": 0.480000000000004
                },
                {
                    "name": "A5",
                    "midi": 81,
                    "time": 125.40000000000022,
                    "velocity": 0.6299212598425197,
                    "duration": 0.480000000000004
                },
                {
                    "name": "A5",
                    "midi": 81,
                    "time": 126.60000000000022,
                    "velocity": 0.6299212598425197,
                    "duration": 0.480000000000004
                },
                {
                    "name": "A5",
                    "midi": 81,
                    "time": 127.20000000000023,
                    "velocity": 0.6299212598425197,
                    "duration": 0.480000000000004
                },
                {
                    "name": "D6",
                    "midi": 86,
                    "time": 128.40000000000023,
                    "velocity": 0.6299212598425197,
                    "duration": 0.47999999999998977
                },
                {
                    "name": "C6",
                    "midi": 84,
                    "time": 129.00000000000023,
                    "velocity": 0.6299212598425197,
                    "duration": 0.47999999999998977
                },
                {
                    "name": "C6",
                    "midi": 84,
                    "time": 130.20000000000022,
                    "velocity": 0.6299212598425197,
                    "duration": 0.47999999999998977
                },
                {
                    "name": "C6",
                    "midi": 84,
                    "time": 130.8000000000002,
                    "velocity": 0.6299212598425197,
                    "duration": 0.47999999999998977
                },
                {
                    "name": "A#5",
                    "midi": 82,
                    "time": 132.0000000000002,
                    "velocity": 0.6299212598425197,
                    "duration": 0.47999999999998977
                },
                {
                    "name": "A#5",
                    "midi": 82,
                    "time": 132.6000000000002,
                    "velocity": 0.6299212598425197,
                    "duration": 0.47999999999998977
                },
                {
                    "name": "A5",
                    "midi": 81,
                    "time": 133.80000000000018,
                    "velocity": 0.6299212598425197,
                    "duration": 0.47999999999998977
                },
                {
                    "name": "A5",
                    "midi": 81,
                    "time": 134.40000000000018,
                    "velocity": 0.6299212598425197,
                    "duration": 0.47999999999998977
                },
                {
                    "name": "A5",
                    "midi": 81,
                    "time": 135.60000000000016,
                    "velocity": 0.6299212598425197,
                    "duration": 0.47999999999998977
                },
                {
                    "name": "G5",
                    "midi": 79,
                    "time": 136.20000000000016,
                    "velocity": 0.6299212598425197,
                    "duration": 0.47999999999998977
                },
                {
                    "name": "F5",
                    "midi": 77,
                    "time": 137.40000000000015,
                    "velocity": 0.6299212598425197,
                    "duration": 0.47999999999998977
                },
                {
                    "name": "E5",
                    "midi": 76,
                    "time": 138.00000000000014,
                    "velocity": 0.6299212598425197,
                    "duration": 0.47999999999998977
                },
                {
                    "name": "D5",
                    "midi": 74,
                    "time": 138.60000000000014,
                    "velocity": 0.6299212598425197,
                    "duration": 0.960000000000008
                }
            ],
            "controlChanges": {
                "7": [
                    {
                        "number": 7,
                        "time": 0,
                        "value": 0.952755905511811
                    }
                ],
                "10": [
                    {
                        "number": 10,
                        "time": 0,
                        "value": 0.33070866141732286
                    }
                ],
                "91": [
                    {
                        "number": 91,
                        "time": 0,
                        "value": 0.5511811023622047
                    }
                ],
                "121": [
                    {
                        "number": 121,
                        "time": 0,
                        "value": 0
                    }
                ]
            },
            "id": 1,
            "name": "Recorder 1",
            "instrumentNumber": 74,
            "instrument": "recorder",
            "instrumentFamily": "pipe",
            "channelNumber": 0,
            "isPercussion": false
        },
        {
            "startTime": 0.6,
            "duration": 139.56000000000014,
            "length": 155,
            "notes": [
                {
                    "name": "F5",
                    "midi": 77,
                    "time": 0.6,
                    "velocity": 0.6299212598425197,
                    "duration": 0.4800000000000001
                },
                {
                    "name": "E5",
                    "midi": 76,
                    "time": 1.2000000000000002,
                    "velocity": 0.6299212598425197,
                    "duration": 0.48
                },
                {
                    "name": "D5",
                    "midi": 74,
                    "time": 2.4000000000000004,
                    "velocity": 0.6299212598425197,
                    "duration": 0.48
                },
                {
                    "name": "C#5",
                    "midi": 73,
                    "time": 3.0000000000000004,
                    "velocity": 0.6299212598425197,
                    "duration": 0.48
                },
                {
                    "name": "D5",
                    "midi": 74,
                    "time": 4.2,
                    "velocity": 0.6299212598425197,
                    "duration": 0.47999999999999954
                },
                {
                    "name": "E5",
                    "midi": 76,
                    "time": 4.8,
                    "velocity": 0.6299212598425197,
                    "duration": 0.47999999999999954
                },
                {
                    "name": "D5",
                    "midi": 74,
                    "time": 5.999999999999999,
                    "velocity": 0.6299212598425197,
                    "duration": 0.47999999999999954
                },
                {
                    "name": "C#5",
                    "midi": 73,
                    "time": 6.599999999999999,
                    "velocity": 0.6299212598425197,
                    "duration": 0.47999999999999954
                },
                {
                    "name": "D5",
                    "midi": 74,
                    "time": 7.799999999999998,
                    "velocity": 0.6299212598425197,
                    "duration": 0.47999999999999954
                },
                {
                    "name": "E5",
                    "midi": 76,
                    "time": 8.399999999999997,
                    "velocity": 0.6299212598425197,
                    "duration": 0.4800000000000004
                },
                {
                    "name": "D5",
                    "midi": 74,
                    "time": 9.599999999999998,
                    "velocity": 0.6299212598425197,
                    "duration": 0.4800000000000004
                },
                {
                    "name": "C#5",
                    "midi": 73,
                    "time": 10.199999999999998,
                    "velocity": 0.6299212598425197,
                    "duration": 0.4800000000000004
                },
                {
                    "name": "D5",
                    "midi": 74,
                    "time": 11.399999999999999,
                    "velocity": 0.6299212598425197,
                    "duration": 0.4800000000000004
                },
                {
                    "name": "D5",
                    "midi": 74,
                    "time": 11.999999999999998,
                    "velocity": 0.6299212598425197,
                    "duration": 0.4800000000000004
                },
                {
                    "name": "E5",
                    "midi": 76,
                    "time": 13.2,
                    "velocity": 0.6299212598425197,
                    "duration": 0.4800000000000004
                },
                {
                    "name": "C5",
                    "midi": 72,
                    "time": 13.799999999999999,
                    "velocity": 0.6299212598425197,
                    "duration": 0.4800000000000004
                },
                {
                    "name": "D5",
                    "midi": 74,
                    "time": 15,
                    "velocity": 0.6299212598425197,
                    "duration": 0.4800000000000004
                },
                {
                    "name": "E5",
                    "midi": 76,
                    "time": 15.6,
                    "velocity": 0.6299212598425197,
                    "duration": 0.47999999999999865
                },
                {
                    "name": "D5",
                    "midi": 74,
                    "time": 16.799999999999997,
                    "velocity": 0.6299212598425197,
                    "duration": 0.4800000000000004
                },
                {
                    "name": "C#5",
                    "midi": 73,
                    "time": 17.4,
                    "velocity": 0.6299212598425197,
                    "duration": 0.4800000000000004
                },
                {
                    "name": "F5",
                    "midi": 77,
                    "time": 18.599999999999998,
                    "velocity": 0.6299212598425197,
                    "duration": 0.4800000000000004
                },
                {
                    "name": "G5",
                    "midi": 79,
                    "time": 19.2,
                    "velocity": 0.6299212598425197,
                    "duration": 0.4800000000000004
                },
                {
                    "name": "F5",
                    "midi": 77,
                    "time": 20.4,
                    "velocity": 0.6299212598425197,
                    "duration": 0.4800000000000004
                },
                {
                    "name": "C#5",
                    "midi": 73,
                    "time": 21,
                    "velocity": 0.6299212598425197,
                    "duration": 0.4800000000000004
                },
                {
                    "name": "F5",
                    "midi": 77,
                    "time": 22.2,
                    "velocity": 0.6299212598425197,
                    "duration": 0.4800000000000004
                },
                {
                    "name": "G5",
                    "midi": 79,
                    "time": 22.8,
                    "velocity": 0.6299212598425197,
                    "duration": 0.4800000000000004
                },
                {
                    "name": "F5",
                    "midi": 77,
                    "time": 24,
                    "velocity": 0.6299212598425197,
                    "duration": 0.4800000000000004
                },
                {
                    "name": "C#5",
                    "midi": 73,
                    "time": 24.6,
                    "velocity": 0.6299212598425197,
                    "duration": 0.4800000000000004
                },
                {
                    "name": "D5",
                    "midi": 74,
                    "time": 25.8,
                    "velocity": 0.6299212598425197,
                    "duration": 0.4800000000000004
                },
                {
                    "name": "E5",
                    "midi": 76,
                    "time": 26.400000000000002,
                    "velocity": 0.6299212598425197,
                    "duration": 0.4800000000000004
                },
                {
                    "name": "C5",
                    "midi": 72,
                    "time": 27.6,
                    "velocity": 0.6299212598425197,
                    "duration": 0.4800000000000004
                },
                {
                    "name": "A5",
                    "midi": 81,
                    "time": 28.200000000000003,
                    "velocity": 0.6299212598425197,
                    "duration": 0.4800000000000004
                },
                {
                    "name": "G5",
                    "midi": 79,
                    "time": 29.400000000000002,
                    "velocity": 0.6299212598425197,
                    "duration": 0.4800000000000004
                },
                {
                    "name": "G5",
                    "midi": 79,
                    "time": 30.000000000000004,
                    "velocity": 0.6299212598425197,
                    "duration": 0.4800000000000004
                },
                {
                    "name": "F5",
                    "midi": 77,
                    "time": 31.200000000000003,
                    "velocity": 0.6299212598425197,
                    "duration": 0.4800000000000004
                },
                {
                    "name": "E5",
                    "midi": 76,
                    "time": 31.800000000000004,
                    "velocity": 0.6299212598425197,
                    "duration": 0.4799999999999969
                },
                {
                    "name": "C5",
                    "midi": 72,
                    "time": 33,
                    "velocity": 0.6299212598425197,
                    "duration": 0.4799999999999969
                },
                {
                    "name": "E5",
                    "midi": 76,
                    "time": 33.599999999999994,
                    "velocity": 0.6299212598425197,
                    "duration": 0.4799999999999969
                },
                {
                    "name": "C5",
                    "midi": 72,
                    "time": 34.79999999999999,
                    "velocity": 0.6299212598425197,
                    "duration": 0.4799999999999969
                },
                {
                    "name": "A5",
                    "midi": 81,
                    "time": 35.399999999999984,
                    "velocity": 0.6299212598425197,
                    "duration": 0.4799999999999969
                },
                {
                    "name": "G5",
                    "midi": 79,
                    "time": 36.59999999999998,
                    "velocity": 0.6299212598425197,
                    "duration": 0.4799999999999969
                },
                {
                    "name": "G5",
                    "midi": 79,
                    "time": 37.199999999999974,
                    "velocity": 0.6299212598425197,
                    "duration": 0.4799999999999969
                },
                {
                    "name": "F5",
                    "midi": 77,
                    "time": 38.39999999999997,
                    "velocity": 0.6299212598425197,
                    "duration": 0.4799999999999969
                },
                {
                    "name": "C#5",
                    "midi": 73,
                    "time": 38.999999999999964,
                    "velocity": 0.6299212598425197,
                    "duration": 0.4799999999999969
                },
                {
                    "name": "D5",
                    "midi": 74,
                    "time": 40.19999999999996,
                    "velocity": 0.6299212598425197,
                    "duration": 0.4799999999999969
                },
                {
                    "name": "E5",
                    "midi": 76,
                    "time": 40.799999999999955,
                    "velocity": 0.6299212598425197,
                    "duration": 0.4799999999999969
                },
                {
                    "name": "D5",
                    "midi": 74,
                    "time": 41.99999999999995,
                    "velocity": 0.6299212598425197,
                    "duration": 0.4799999999999969
                },
                {
                    "name": "C#5",
                    "midi": 73,
                    "time": 42.599999999999945,
                    "velocity": 0.6299212598425197,
                    "duration": 0.4799999999999969
                },
                {
                    "name": "D5",
                    "midi": 74,
                    "time": 43.79999999999994,
                    "velocity": 0.6299212598425197,
                    "duration": 0.4799999999999969
                },
                {
                    "name": "E5",
                    "midi": 76,
                    "time": 44.399999999999935,
                    "velocity": 0.6299212598425197,
                    "duration": 0.4799999999999969
                },
                {
                    "name": "D5",
                    "midi": 74,
                    "time": 45.59999999999993,
                    "velocity": 0.6299212598425197,
                    "duration": 0.4799999999999969
                },
                {
                    "name": "C#5",
                    "midi": 73,
                    "time": 46.199999999999925,
                    "velocity": 0.6299212598425197,
                    "duration": 0.4799999999999969
                },
                {
                    "name": "D5",
                    "midi": 74,
                    "time": 47.39999999999992,
                    "velocity": 0.6299212598425197,
                    "duration": 0.4799999999999969
                },
                {
                    "name": "D5",
                    "midi": 74,
                    "time": 47.999999999999915,
                    "velocity": 0.6299212598425197,
                    "duration": 0.4799999999999969
                },
                {
                    "name": "E5",
                    "midi": 76,
                    "time": 49.19999999999991,
                    "velocity": 0.6299212598425197,
                    "duration": 0.4799999999999969
                },
                {
                    "name": "C5",
                    "midi": 72,
                    "time": 49.799999999999905,
                    "velocity": 0.6299212598425197,
                    "duration": 0.4799999999999969
                },
                {
                    "name": "D5",
                    "midi": 74,
                    "time": 50.9999999999999,
                    "velocity": 0.6299212598425197,
                    "duration": 0.4799999999999969
                },
                {
                    "name": "E5",
                    "midi": 76,
                    "time": 51.599999999999895,
                    "velocity": 0.6299212598425197,
                    "duration": 0.4799999999999969
                },
                {
                    "name": "D5",
                    "midi": 74,
                    "time": 52.79999999999989,
                    "velocity": 0.6299212598425197,
                    "duration": 0.4799999999999969
                },
                {
                    "name": "C#5",
                    "midi": 73,
                    "time": 53.399999999999885,
                    "velocity": 0.6299212598425197,
                    "duration": 0.4799999999999969
                },
                {
                    "name": "F5",
                    "midi": 77,
                    "time": 54.59999999999988,
                    "velocity": 0.6299212598425197,
                    "duration": 0.4799999999999969
                },
                {
                    "name": "G5",
                    "midi": 79,
                    "time": 55.199999999999875,
                    "velocity": 0.6299212598425197,
                    "duration": 0.4799999999999969
                },
                {
                    "name": "F5",
                    "midi": 77,
                    "time": 56.39999999999987,
                    "velocity": 0.6299212598425197,
                    "duration": 0.4799999999999969
                },
                {
                    "name": "C#5",
                    "midi": 73,
                    "time": 56.999999999999865,
                    "velocity": 0.6299212598425197,
                    "duration": 0.4799999999999969
                },
                {
                    "name": "F5",
                    "midi": 77,
                    "time": 58.19999999999986,
                    "velocity": 0.6299212598425197,
                    "duration": 0.4799999999999969
                },
                {
                    "name": "G5",
                    "midi": 79,
                    "time": 58.799999999999855,
                    "velocity": 0.6299212598425197,
                    "duration": 0.4799999999999969
                },
                {
                    "name": "F5",
                    "midi": 77,
                    "time": 59.99999999999985,
                    "velocity": 0.6299212598425197,
                    "duration": 0.4799999999999969
                },
                {
                    "name": "C#5",
                    "midi": 73,
                    "time": 60.599999999999845,
                    "velocity": 0.6299212598425197,
                    "duration": 0.4799999999999969
                },
                {
                    "name": "D5",
                    "midi": 74,
                    "time": 61.79999999999984,
                    "velocity": 0.6299212598425197,
                    "duration": 0.4799999999999969
                },
                {
                    "name": "E5",
                    "midi": 76,
                    "time": 62.399999999999835,
                    "velocity": 0.6299212598425197,
                    "duration": 0.4799999999999969
                },
                {
                    "name": "C5",
                    "midi": 72,
                    "time": 63.59999999999983,
                    "velocity": 0.6299212598425197,
                    "duration": 0.4799999999999969
                },
                {
                    "name": "A5",
                    "midi": 81,
                    "time": 64.19999999999983,
                    "velocity": 0.6299212598425197,
                    "duration": 0.480000000000004
                },
                {
                    "name": "G5",
                    "midi": 79,
                    "time": 65.39999999999984,
                    "velocity": 0.6299212598425197,
                    "duration": 0.480000000000004
                },
                {
                    "name": "G5",
                    "midi": 79,
                    "time": 65.99999999999984,
                    "velocity": 0.6299212598425197,
                    "duration": 0.480000000000004
                },
                {
                    "name": "F5",
                    "midi": 77,
                    "time": 67.19999999999985,
                    "velocity": 0.6299212598425197,
                    "duration": 0.480000000000004
                },
                {
                    "name": "E5",
                    "midi": 76,
                    "time": 67.79999999999986,
                    "velocity": 0.6299212598425197,
                    "duration": 0.480000000000004
                },
                {
                    "name": "C5",
                    "midi": 72,
                    "time": 68.99999999999986,
                    "velocity": 0.6299212598425197,
                    "duration": 0.480000000000004
                },
                {
                    "name": "E5",
                    "midi": 76,
                    "time": 69.59999999999987,
                    "velocity": 0.6299212598425197,
                    "duration": 0.480000000000004
                },
                {
                    "name": "C5",
                    "midi": 72,
                    "time": 70.79999999999987,
                    "velocity": 0.6299212598425197,
                    "duration": 0.480000000000004
                },
                {
                    "name": "A5",
                    "midi": 81,
                    "time": 71.39999999999988,
                    "velocity": 0.6299212598425197,
                    "duration": 0.480000000000004
                },
                {
                    "name": "G5",
                    "midi": 79,
                    "time": 72.59999999999988,
                    "velocity": 0.6299212598425197,
                    "duration": 0.480000000000004
                },
                {
                    "name": "G5",
                    "midi": 79,
                    "time": 73.19999999999989,
                    "velocity": 0.6299212598425197,
                    "duration": 0.480000000000004
                },
                {
                    "name": "C5",
                    "midi": 72,
                    "time": 74.39999999999989,
                    "velocity": 0.6299212598425197,
                    "duration": 0.480000000000004
                },
                {
                    "name": "A#4",
                    "midi": 70,
                    "time": 74.9999999999999,
                    "velocity": 0.6299212598425197,
                    "duration": 0.480000000000004
                },
                {
                    "name": "F5",
                    "midi": 77,
                    "time": 76.1999999999999,
                    "velocity": 0.6299212598425197,
                    "duration": 0.480000000000004
                },
                {
                    "name": "E5",
                    "midi": 76,
                    "time": 76.79999999999991,
                    "velocity": 0.6299212598425197,
                    "duration": 0.480000000000004
                },
                {
                    "name": "F5",
                    "midi": 77,
                    "time": 77.99999999999991,
                    "velocity": 0.6299212598425197,
                    "duration": 0.480000000000004
                },
                {
                    "name": "G5",
                    "midi": 79,
                    "time": 78.59999999999992,
                    "velocity": 0.6299212598425197,
                    "duration": 0.480000000000004
                },
                {
                    "name": "F5",
                    "midi": 77,
                    "time": 79.79999999999993,
                    "velocity": 0.6299212598425197,
                    "duration": 0.480000000000004
                },
                {
                    "name": "D5",
                    "midi": 74,
                    "time": 80.39999999999993,
                    "velocity": 0.6299212598425197,
                    "duration": 0.480000000000004
                },
                {
                    "name": "G5",
                    "midi": 79,
                    "time": 81.59999999999994,
                    "velocity": 0.6299212598425197,
                    "duration": 0.480000000000004
                },
                {
                    "name": "F5",
                    "midi": 77,
                    "time": 82.19999999999995,
                    "velocity": 0.6299212598425197,
                    "duration": 0.480000000000004
                },
                {
                    "name": "E5",
                    "midi": 76,
                    "time": 83.39999999999995,
                    "velocity": 0.6299212598425197,
                    "duration": 0.480000000000004
                },
                {
                    "name": "D5",
                    "midi": 74,
                    "time": 83.99999999999996,
                    "velocity": 0.6299212598425197,
                    "duration": 0.480000000000004
                },
                {
                    "name": "E5",
                    "midi": 76,
                    "time": 85.19999999999996,
                    "velocity": 0.6299212598425197,
                    "duration": 0.480000000000004
                },
                {
                    "name": "F5",
                    "midi": 77,
                    "time": 85.79999999999997,
                    "velocity": 0.6299212598425197,
                    "duration": 0.480000000000004
                },
                {
                    "name": "E5",
                    "midi": 76,
                    "time": 86.99999999999997,
                    "velocity": 0.6299212598425197,
                    "duration": 0.480000000000004
                },
                {
                    "name": "F#5",
                    "midi": 78,
                    "time": 87.59999999999998,
                    "velocity": 0.6299212598425197,
                    "duration": 0.480000000000004
                },
                {
                    "name": "G5",
                    "midi": 79,
                    "time": 88.79999999999998,
                    "velocity": 0.6299212598425197,
                    "duration": 0.480000000000004
                },
                {
                    "name": "D5",
                    "midi": 74,
                    "time": 89.39999999999999,
                    "velocity": 0.6299212598425197,
                    "duration": 0.480000000000004
                },
                {
                    "name": "E5",
                    "midi": 76,
                    "time": 90.6,
                    "velocity": 0.6299212598425197,
                    "duration": 0.480000000000004
                },
                {
                    "name": "F5",
                    "midi": 77,
                    "time": 91.2,
                    "velocity": 0.6299212598425197,
                    "duration": 0.480000000000004
                },
                {
                    "name": "F5",
                    "midi": 77,
                    "time": 92.4,
                    "velocity": 0.6299212598425197,
                    "duration": 0.480000000000004
                },
                {
                    "name": "G5",
                    "midi": 79,
                    "time": 93.00000000000001,
                    "velocity": 0.6299212598425197,
                    "duration": 0.480000000000004
                },
                {
                    "name": "E5",
                    "midi": 76,
                    "time": 94.20000000000002,
                    "velocity": 0.6299212598425197,
                    "duration": 0.480000000000004
                },
                {
                    "name": "E5",
                    "midi": 76,
                    "time": 94.80000000000003,
                    "velocity": 0.6299212598425197,
                    "duration": 0.480000000000004
                },
                {
                    "name": "D5",
                    "midi": 74,
                    "time": 96.00000000000003,
                    "velocity": 0.6299212598425197,
                    "duration": 0.480000000000004
                },
                {
                    "name": "D5",
                    "midi": 74,
                    "time": 96.60000000000004,
                    "velocity": 0.6299212598425197,
                    "duration": 0.480000000000004
                },
                {
                    "name": "A#5",
                    "midi": 82,
                    "time": 97.80000000000004,
                    "velocity": 0.6299212598425197,
                    "duration": 0.480000000000004
                },
                {
                    "name": "G5",
                    "midi": 79,
                    "time": 98.40000000000005,
                    "velocity": 0.6299212598425197,
                    "duration": 0.480000000000004
                },
                {
                    "name": "F5",
                    "midi": 77,
                    "time": 99.60000000000005,
                    "velocity": 0.6299212598425197,
                    "duration": 0.480000000000004
                },
                {
                    "name": "F5",
                    "midi": 77,
                    "time": 100.20000000000006,
                    "velocity": 0.6299212598425197,
                    "duration": 0.480000000000004
                },
                {
                    "name": "E5",
                    "midi": 76,
                    "time": 101.40000000000006,
                    "velocity": 0.6299212598425197,
                    "duration": 0.480000000000004
                },
                {
                    "name": "D5",
                    "midi": 74,
                    "time": 102.00000000000007,
                    "velocity": 0.6299212598425197,
                    "duration": 0.480000000000004
                },
                {
                    "name": "D5",
                    "midi": 74,
                    "time": 103.20000000000007,
                    "velocity": 0.6299212598425197,
                    "duration": 0.480000000000004
                },
                {
                    "name": "C#5",
                    "midi": 73,
                    "time": 103.80000000000008,
                    "velocity": 0.6299212598425197,
                    "duration": 0.480000000000004
                },
                {
                    "name": "F5",
                    "midi": 77,
                    "time": 105.00000000000009,
                    "velocity": 0.6299212598425197,
                    "duration": 0.480000000000004
                },
                {
                    "name": "G5",
                    "midi": 79,
                    "time": 105.6000000000001,
                    "velocity": 0.6299212598425197,
                    "duration": 0.480000000000004
                },
                {
                    "name": "F5",
                    "midi": 77,
                    "time": 106.8000000000001,
                    "velocity": 0.6299212598425197,
                    "duration": 0.480000000000004
                },
                {
                    "name": "E5",
                    "midi": 76,
                    "time": 107.4000000000001,
                    "velocity": 0.6299212598425197,
                    "duration": 0.480000000000004
                },
                {
                    "name": "F5",
                    "midi": 77,
                    "time": 108.60000000000011,
                    "velocity": 0.6299212598425197,
                    "duration": 0.480000000000004
                },
                {
                    "name": "G5",
                    "midi": 79,
                    "time": 109.20000000000012,
                    "velocity": 0.6299212598425197,
                    "duration": 0.480000000000004
                },
                {
                    "name": "F5",
                    "midi": 77,
                    "time": 110.40000000000012,
                    "velocity": 0.6299212598425197,
                    "duration": 0.480000000000004
                },
                {
                    "name": "D5",
                    "midi": 74,
                    "time": 111.00000000000013,
                    "velocity": 0.6299212598425197,
                    "duration": 0.480000000000004
                },
                {
                    "name": "G5",
                    "midi": 79,
                    "time": 112.20000000000013,
                    "velocity": 0.6299212598425197,
                    "duration": 0.480000000000004
                },
                {
                    "name": "F5",
                    "midi": 77,
                    "time": 112.80000000000014,
                    "velocity": 0.6299212598425197,
                    "duration": 0.480000000000004
                },
                {
                    "name": "E5",
                    "midi": 76,
                    "time": 114.00000000000014,
                    "velocity": 0.6299212598425197,
                    "duration": 0.480000000000004
                },
                {
                    "name": "D5",
                    "midi": 74,
                    "time": 114.60000000000015,
                    "velocity": 0.6299212598425197,
                    "duration": 0.480000000000004
                },
                {
                    "name": "E5",
                    "midi": 76,
                    "time": 115.80000000000015,
                    "velocity": 0.6299212598425197,
                    "duration": 0.480000000000004
                },
                {
                    "name": "F5",
                    "midi": 77,
                    "time": 116.40000000000016,
                    "velocity": 0.6299212598425197,
                    "duration": 0.480000000000004
                },
                {
                    "name": "E5",
                    "midi": 76,
                    "time": 117.60000000000016,
                    "velocity": 0.6299212598425197,
                    "duration": 0.480000000000004
                },
                {
                    "name": "F#5",
                    "midi": 78,
                    "time": 118.20000000000017,
                    "velocity": 0.6299212598425197,
                    "duration": 0.480000000000004
                },
                {
                    "name": "G5",
                    "midi": 79,
                    "time": 119.40000000000018,
                    "velocity": 0.6299212598425197,
                    "duration": 0.480000000000004
                },
                {
                    "name": "D5",
                    "midi": 74,
                    "time": 120.00000000000018,
                    "velocity": 0.6299212598425197,
                    "duration": 0.480000000000004
                },
                {
                    "name": "E5",
                    "midi": 76,
                    "time": 121.20000000000019,
                    "velocity": 0.6299212598425197,
                    "duration": 0.480000000000004
                },
                {
                    "name": "F5",
                    "midi": 77,
                    "time": 121.8000000000002,
                    "velocity": 0.6299212598425197,
                    "duration": 0.480000000000004
                },
                {
                    "name": "F5",
                    "midi": 77,
                    "time": 123.0000000000002,
                    "velocity": 0.6299212598425197,
                    "duration": 0.480000000000004
                },
                {
                    "name": "G5",
                    "midi": 79,
                    "time": 123.60000000000021,
                    "velocity": 0.6299212598425197,
                    "duration": 0.480000000000004
                },
                {
                    "name": "E5",
                    "midi": 76,
                    "time": 124.80000000000021,
                    "velocity": 0.6299212598425197,
                    "duration": 0.480000000000004
                },
                {
                    "name": "E5",
                    "midi": 76,
                    "time": 125.40000000000022,
                    "velocity": 0.6299212598425197,
                    "duration": 0.480000000000004
                },
                {
                    "name": "D5",
                    "midi": 74,
                    "time": 126.60000000000022,
                    "velocity": 0.6299212598425197,
                    "duration": 0.480000000000004
                },
                {
                    "name": "D5",
                    "midi": 74,
                    "time": 127.20000000000023,
                    "velocity": 0.6299212598425197,
                    "duration": 0.480000000000004
                },
                {
                    "name": "A#5",
                    "midi": 82,
                    "time": 128.40000000000023,
                    "velocity": 0.6299212598425197,
                    "duration": 0.47999999999998977
                },
                {
                    "name": "G5",
                    "midi": 79,
                    "time": 129.00000000000023,
                    "velocity": 0.6299212598425197,
                    "duration": 0.47999999999998977
                },
                {
                    "name": "F5",
                    "midi": 77,
                    "time": 130.20000000000022,
                    "velocity": 0.6299212598425197,
                    "duration": 0.47999999999998977
                },
                {
                    "name": "F5",
                    "midi": 77,
                    "time": 130.8000000000002,
                    "velocity": 0.6299212598425197,
                    "duration": 0.47999999999998977
                },
                {
                    "name": "E5",
                    "midi": 76,
                    "time": 132.0000000000002,
                    "velocity": 0.6299212598425197,
                    "duration": 0.47999999999998977
                },
                {
                    "name": "D5",
                    "midi": 74,
                    "time": 132.6000000000002,
                    "velocity": 0.6299212598425197,
                    "duration": 0.47999999999998977
                },
                {
                    "name": "D5",
                    "midi": 74,
                    "time": 133.80000000000018,
                    "velocity": 0.6299212598425197,
                    "duration": 0.47999999999998977
                },
                {
                    "name": "C#5",
                    "midi": 73,
                    "time": 134.40000000000018,
                    "velocity": 0.6299212598425197,
                    "duration": 0.47999999999998977
                },
                {
                    "name": "D5",
                    "midi": 74,
                    "time": 135.60000000000016,
                    "velocity": 0.6299212598425197,
                    "duration": 0.47999999999998977
                },
                {
                    "name": "E5",
                    "midi": 76,
                    "time": 136.20000000000016,
                    "velocity": 0.6299212598425197,
                    "duration": 0.47999999999998977
                },
                {
                    "name": "D5",
                    "midi": 74,
                    "time": 137.40000000000015,
                    "velocity": 0.6299212598425197,
                    "duration": 0.47999999999998977
                },
                {
                    "name": "C#5",
                    "midi": 73,
                    "time": 138.00000000000014,
                    "velocity": 0.6299212598425197,
                    "duration": 0.47999999999998977
                },
                {
                    "name": "D5",
                    "midi": 74,
                    "time": 138.60000000000014,
                    "velocity": 0.6299212598425197,
                    "duration": 0.960000000000008
                }
            ],
            "controlChanges": {
                "7": [
                    {
                        "number": 7,
                        "time": 0,
                        "value": 0.952755905511811
                    }
                ],
                "10": [
                    {
                        "number": 10,
                        "time": 0,
                        "value": 0.41732283464566927
                    }
                ],
                "91": [
                    {
                        "number": 91,
                        "time": 0,
                        "value": 0.5511811023622047
                    }
                ],
                "121": [
                    {
                        "number": 121,
                        "time": 0,
                        "value": 0
                    }
                ]
            },
            "id": 2,
            "name": "Recorder 2",
            "instrumentNumber": 74,
            "instrument": "recorder",
            "instrumentFamily": "pipe",
            "channelNumber": 1,
            "isPercussion": false
        },
        {
            "startTime": 3.5999999999999996,
            "duration": 135.96000000000032,
            "length": 298,
            "notes": [
                {
                    "name": "A4",
                    "midi": 69,
                    "time": 3.5999999999999996,
                    "velocity": 0.6299212598425197,
                    "duration": 0.3599999999999999
                },
                {
                    "name": "G4",
                    "midi": 67,
                    "time": 4.05,
                    "velocity": 0.6299212598425197,
                    "duration": 0.1200000000000001
                },
                {
                    "name": "F4",
                    "midi": 65,
                    "time": 4.2,
                    "velocity": 0.6299212598425197,
                    "duration": 0.47999999999999954
                },
                {
                    "name": "G4",
                    "midi": 67,
                    "time": 4.8,
                    "velocity": 0.6299212598425197,
                    "duration": 0.2400000000000002
                },
                {
                    "name": "E4",
                    "midi": 64,
                    "time": 5.1,
                    "velocity": 0.6299212598425197,
                    "duration": 0.2400000000000002
                },
                {
                    "name": "F4",
                    "midi": 65,
                    "time": 5.3999999999999995,
                    "velocity": 0.6299212598425197,
                    "duration": 0.47999999999999954
                },
                {
                    "name": "D4",
                    "midi": 62,
                    "time": 5.999999999999999,
                    "velocity": 0.6299212598425197,
                    "duration": 0.47999999999999954
                },
                {
                    "name": "A4",
                    "midi": 69,
                    "time": 7.199999999999998,
                    "velocity": 0.4251968503937008,
                    "duration": 0.3600000000000003
                },
                {
                    "name": "G4",
                    "midi": 67,
                    "time": 7.649999999999999,
                    "velocity": 0.4251968503937008,
                    "duration": 0.1200000000000001
                },
                {
                    "name": "F4",
                    "midi": 65,
                    "time": 7.799999999999999,
                    "velocity": 0.4251968503937008,
                    "duration": 0.4800000000000004
                },
                {
                    "name": "G4",
                    "midi": 67,
                    "time": 8.399999999999999,
                    "velocity": 0.4251968503937008,
                    "duration": 0.2400000000000002
                },
                {
                    "name": "E4",
                    "midi": 64,
                    "time": 8.7,
                    "velocity": 0.4251968503937008,
                    "duration": 0.2400000000000002
                },
                {
                    "name": "F4",
                    "midi": 65,
                    "time": 9,
                    "velocity": 0.4251968503937008,
                    "duration": 0.4800000000000004
                },
                {
                    "name": "D4",
                    "midi": 62,
                    "time": 9.6,
                    "velocity": 0.4251968503937008,
                    "duration": 0.4800000000000004
                },
                {
                    "name": "F4",
                    "midi": 65,
                    "time": 10.8,
                    "velocity": 0.6299212598425197,
                    "duration": 0.4800000000000004
                },
                {
                    "name": "E4",
                    "midi": 64,
                    "time": 12.000000000000002,
                    "velocity": 0.6299212598425197,
                    "duration": 0.11999999999999922
                },
                {
                    "name": "F4",
                    "midi": 65,
                    "time": 12.15,
                    "velocity": 0.6299212598425197,
                    "duration": 0.11999999999999922
                },
                {
                    "name": "G4",
                    "midi": 67,
                    "time": 12.299999999999999,
                    "velocity": 0.6299212598425197,
                    "duration": 0.2400000000000002
                },
                {
                    "name": "E4",
                    "midi": 64,
                    "time": 12.6,
                    "velocity": 0.6299212598425197,
                    "duration": 0.4800000000000004
                },
                {
                    "name": "F4",
                    "midi": 65,
                    "time": 13.8,
                    "velocity": 0.6299212598425197,
                    "duration": 0.2400000000000002
                },
                {
                    "name": "C4",
                    "midi": 60,
                    "time": 14.100000000000001,
                    "velocity": 0.6299212598425197,
                    "duration": 0.2400000000000002
                },
                {
                    "name": "D4",
                    "midi": 62,
                    "time": 14.400000000000002,
                    "velocity": 0.6299212598425197,
                    "duration": 0.11999999999999922
                },
                {
                    "name": "E4",
                    "midi": 64,
                    "time": 14.55,
                    "velocity": 0.6299212598425197,
                    "duration": 0.11999999999999922
                },
                {
                    "name": "F4",
                    "midi": 65,
                    "time": 14.7,
                    "velocity": 0.6299212598425197,
                    "duration": 0.2400000000000002
                },
                {
                    "name": "E4",
                    "midi": 64,
                    "time": 15,
                    "velocity": 0.6299212598425197,
                    "duration": 0.11999999999999922
                },
                {
                    "name": "D4",
                    "midi": 62,
                    "time": 15.149999999999999,
                    "velocity": 0.6299212598425197,
                    "duration": 0.35999999999999943
                },
                {
                    "name": "C4",
                    "midi": 60,
                    "time": 15.599999999999998,
                    "velocity": 0.6299212598425197,
                    "duration": 0.35999999999999943
                },
                {
                    "name": "A#3",
                    "midi": 58,
                    "time": 16.049999999999997,
                    "velocity": 0.6299212598425197,
                    "duration": 0.120000000000001
                },
                {
                    "name": "A3",
                    "midi": 57,
                    "time": 16.2,
                    "velocity": 0.6299212598425197,
                    "duration": 0.9600000000000009
                },
                {
                    "name": "D4",
                    "midi": 62,
                    "time": 18,
                    "velocity": 0.6299212598425197,
                    "duration": 0.28500000000000014
                },
                {
                    "name": "C#4",
                    "midi": 61,
                    "time": 18.3,
                    "velocity": 0.6299212598425197,
                    "duration": 0.28500000000000014
                },
                {
                    "name": "D4",
                    "midi": 62,
                    "time": 18.6,
                    "velocity": 0.6299212598425197,
                    "duration": 0.28500000000000014
                },
                {
                    "name": "F4",
                    "midi": 65,
                    "time": 18.900000000000002,
                    "velocity": 0.6299212598425197,
                    "duration": 0.28500000000000014
                },
                {
                    "name": "E4",
                    "midi": 64,
                    "time": 19.200000000000003,
                    "velocity": 0.6299212598425197,
                    "duration": 0.4800000000000004
                },
                {
                    "name": "F4",
                    "midi": 65,
                    "time": 19.800000000000004,
                    "velocity": 0.6299212598425197,
                    "duration": 0.9600000000000009
                },
                {
                    "name": "D4",
                    "midi": 62,
                    "time": 21.600000000000005,
                    "velocity": 0.5039370078740157,
                    "duration": 0.28500000000000014
                },
                {
                    "name": "C#4",
                    "midi": 61,
                    "time": 21.900000000000006,
                    "velocity": 0.5039370078740157,
                    "duration": 0.28500000000000014
                },
                {
                    "name": "D4",
                    "midi": 62,
                    "time": 22.200000000000006,
                    "velocity": 0.5039370078740157,
                    "duration": 0.28500000000000014
                },
                {
                    "name": "F4",
                    "midi": 65,
                    "time": 22.500000000000007,
                    "velocity": 0.5039370078740157,
                    "duration": 0.28500000000000014
                },
                {
                    "name": "E4",
                    "midi": 64,
                    "time": 22.800000000000008,
                    "velocity": 0.6299212598425197,
                    "duration": 0.4800000000000004
                },
                {
                    "name": "F4",
                    "midi": 65,
                    "time": 23.40000000000001,
                    "velocity": 0.6299212598425197,
                    "duration": 0.9600000000000009
                },
                {
                    "name": "F4",
                    "midi": 65,
                    "time": 25.20000000000001,
                    "velocity": 0.5905511811023622,
                    "duration": 0.28500000000000014
                },
                {
                    "name": "E4",
                    "midi": 64,
                    "time": 25.50000000000001,
                    "velocity": 0.5905511811023622,
                    "duration": 0.28500000000000014
                },
                {
                    "name": "F4",
                    "midi": 65,
                    "time": 25.80000000000001,
                    "velocity": 0.5905511811023622,
                    "duration": 0.28500000000000014
                },
                {
                    "name": "A4",
                    "midi": 69,
                    "time": 26.100000000000012,
                    "velocity": 0.5905511811023622,
                    "duration": 0.28500000000000014
                },
                {
                    "name": "G4",
                    "midi": 67,
                    "time": 26.400000000000013,
                    "velocity": 0.6299212598425197,
                    "duration": 0.4800000000000004
                },
                {
                    "name": "A4",
                    "midi": 69,
                    "time": 27.000000000000014,
                    "velocity": 0.5905511811023622,
                    "duration": 0.9600000000000009
                },
                {
                    "name": "G4",
                    "midi": 67,
                    "time": 28.200000000000014,
                    "velocity": 0.5905511811023622,
                    "duration": 0.23999999999999844
                },
                {
                    "name": "F4",
                    "midi": 65,
                    "time": 28.50000000000001,
                    "velocity": 0.5905511811023622,
                    "duration": 0.23999999999999844
                },
                {
                    "name": "E4",
                    "midi": 64,
                    "time": 28.800000000000008,
                    "velocity": 0.5905511811023622,
                    "duration": 0.23999999999999844
                },
                {
                    "name": "F4",
                    "midi": 65,
                    "time": 29.100000000000005,
                    "velocity": 0.5905511811023622,
                    "duration": 0.120000000000001
                },
                {
                    "name": "D4",
                    "midi": 62,
                    "time": 29.250000000000007,
                    "velocity": 0.5905511811023622,
                    "duration": 0.120000000000001
                },
                {
                    "name": "E4",
                    "midi": 64,
                    "time": 29.40000000000001,
                    "velocity": 0.5905511811023622,
                    "duration": 0.120000000000001
                },
                {
                    "name": "F4",
                    "midi": 65,
                    "time": 29.55000000000001,
                    "velocity": 0.5905511811023622,
                    "duration": 0.120000000000001
                },
                {
                    "name": "G4",
                    "midi": 67,
                    "time": 29.700000000000014,
                    "velocity": 0.5905511811023622,
                    "duration": 0.23999999999999844
                },
                {
                    "name": "F4",
                    "midi": 65,
                    "time": 30.00000000000001,
                    "velocity": 0.5905511811023622,
                    "duration": 0.35999999999999943
                },
                {
                    "name": "E4",
                    "midi": 64,
                    "time": 30.45000000000001,
                    "velocity": 0.5905511811023622,
                    "duration": 0.120000000000001
                },
                {
                    "name": "F4",
                    "midi": 65,
                    "time": 30.600000000000012,
                    "velocity": 0.5905511811023622,
                    "duration": 0.9600000000000009
                },
                {
                    "name": "F4",
                    "midi": 65,
                    "time": 32.40000000000001,
                    "velocity": 0.6299212598425197,
                    "duration": 0.240000000000002
                },
                {
                    "name": "E4",
                    "midi": 64,
                    "time": 32.70000000000002,
                    "velocity": 0.6299212598425197,
                    "duration": 0.240000000000002
                },
                {
                    "name": "F4",
                    "midi": 65,
                    "time": 33.00000000000002,
                    "velocity": 0.6299212598425197,
                    "duration": 0.240000000000002
                },
                {
                    "name": "A4",
                    "midi": 69,
                    "time": 33.300000000000026,
                    "velocity": 0.6299212598425197,
                    "duration": 0.240000000000002
                },
                {
                    "name": "G4",
                    "midi": 67,
                    "time": 33.60000000000003,
                    "velocity": 0.6299212598425197,
                    "duration": 0.4799999999999969
                },
                {
                    "name": "A4",
                    "midi": 69,
                    "time": 34.200000000000024,
                    "velocity": 0.6299212598425197,
                    "duration": 0.9600000000000009
                },
                {
                    "name": "G4",
                    "midi": 67,
                    "time": 35.40000000000003,
                    "velocity": 0.6299212598425197,
                    "duration": 0.240000000000002
                },
                {
                    "name": "F4",
                    "midi": 65,
                    "time": 35.70000000000003,
                    "velocity": 0.6299212598425197,
                    "duration": 0.240000000000002
                },
                {
                    "name": "E4",
                    "midi": 64,
                    "time": 36.000000000000036,
                    "velocity": 0.6299212598425197,
                    "duration": 0.240000000000002
                },
                {
                    "name": "F4",
                    "midi": 65,
                    "time": 36.30000000000004,
                    "velocity": 0.6299212598425197,
                    "duration": 0.11999999999999744
                },
                {
                    "name": "D4",
                    "midi": 62,
                    "time": 36.45000000000004,
                    "velocity": 0.6299212598425197,
                    "duration": 0.11999999999999744
                },
                {
                    "name": "E4",
                    "midi": 64,
                    "time": 36.60000000000004,
                    "velocity": 0.6299212598425197,
                    "duration": 0.11999999999999744
                },
                {
                    "name": "F4",
                    "midi": 65,
                    "time": 36.750000000000036,
                    "velocity": 0.6299212598425197,
                    "duration": 0.11999999999999744
                },
                {
                    "name": "G4",
                    "midi": 67,
                    "time": 36.900000000000034,
                    "velocity": 0.6299212598425197,
                    "duration": 0.240000000000002
                },
                {
                    "name": "F4",
                    "midi": 65,
                    "time": 37.20000000000004,
                    "velocity": 0.6299212598425197,
                    "duration": 0.35999999999999943
                },
                {
                    "name": "E4",
                    "midi": 64,
                    "time": 37.65000000000004,
                    "velocity": 0.6299212598425197,
                    "duration": 0.11999999999999744
                },
                {
                    "name": "F4",
                    "midi": 65,
                    "time": 37.80000000000004,
                    "velocity": 0.6299212598425197,
                    "duration": 0.9600000000000009
                },
                {
                    "name": "A4",
                    "midi": 69,
                    "time": 39.600000000000044,
                    "velocity": 0.6299212598425197,
                    "duration": 0.35999999999999943
                },
                {
                    "name": "G4",
                    "midi": 67,
                    "time": 40.05000000000005,
                    "velocity": 0.6299212598425197,
                    "duration": 0.11999999999999744
                },
                {
                    "name": "F4",
                    "midi": 65,
                    "time": 40.200000000000045,
                    "velocity": 0.6299212598425197,
                    "duration": 0.4799999999999969
                },
                {
                    "name": "G4",
                    "midi": 67,
                    "time": 40.80000000000004,
                    "velocity": 0.6299212598425197,
                    "duration": 0.240000000000002
                },
                {
                    "name": "E4",
                    "midi": 64,
                    "time": 41.100000000000044,
                    "velocity": 0.6299212598425197,
                    "duration": 0.240000000000002
                },
                {
                    "name": "F4",
                    "midi": 65,
                    "time": 41.40000000000005,
                    "velocity": 0.6299212598425197,
                    "duration": 0.4799999999999969
                },
                {
                    "name": "D4",
                    "midi": 62,
                    "time": 42.00000000000004,
                    "velocity": 0.6299212598425197,
                    "duration": 0.4799999999999969
                },
                {
                    "name": "A4",
                    "midi": 69,
                    "time": 43.20000000000004,
                    "velocity": 0.4251968503937008,
                    "duration": 0.35999999999999943
                },
                {
                    "name": "G4",
                    "midi": 67,
                    "time": 43.65000000000004,
                    "velocity": 0.4251968503937008,
                    "duration": 0.11999999999999744
                },
                {
                    "name": "F4",
                    "midi": 65,
                    "time": 43.80000000000004,
                    "velocity": 0.4251968503937008,
                    "duration": 0.4799999999999969
                },
                {
                    "name": "G4",
                    "midi": 67,
                    "time": 44.400000000000034,
                    "velocity": 0.4251968503937008,
                    "duration": 0.240000000000002
                },
                {
                    "name": "E4",
                    "midi": 64,
                    "time": 44.70000000000004,
                    "velocity": 0.4251968503937008,
                    "duration": 0.240000000000002
                },
                {
                    "name": "F4",
                    "midi": 65,
                    "time": 45.00000000000004,
                    "velocity": 0.4251968503937008,
                    "duration": 0.4799999999999969
                },
                {
                    "name": "D4",
                    "midi": 62,
                    "time": 45.60000000000004,
                    "velocity": 0.4251968503937008,
                    "duration": 0.4799999999999969
                },
                {
                    "name": "F4",
                    "midi": 65,
                    "time": 46.80000000000003,
                    "velocity": 0.6299212598425197,
                    "duration": 0.4799999999999969
                },
                {
                    "name": "E4",
                    "midi": 64,
                    "time": 48.00000000000003,
                    "velocity": 0.6299212598425197,
                    "duration": 0.11999999999999744
                },
                {
                    "name": "F4",
                    "midi": 65,
                    "time": 48.15000000000003,
                    "velocity": 0.6299212598425197,
                    "duration": 0.11999999999999744
                },
                {
                    "name": "G4",
                    "midi": 67,
                    "time": 48.300000000000026,
                    "velocity": 0.6299212598425197,
                    "duration": 0.240000000000002
                },
                {
                    "name": "E4",
                    "midi": 64,
                    "time": 48.60000000000003,
                    "velocity": 0.6299212598425197,
                    "duration": 0.4799999999999969
                },
                {
                    "name": "F4",
                    "midi": 65,
                    "time": 49.800000000000026,
                    "velocity": 0.6299212598425197,
                    "duration": 0.240000000000002
                },
                {
                    "name": "C4",
                    "midi": 60,
                    "time": 50.10000000000003,
                    "velocity": 0.6299212598425197,
                    "duration": 0.240000000000002
                },
                {
                    "name": "D4",
                    "midi": 62,
                    "time": 50.400000000000034,
                    "velocity": 0.6299212598425197,
                    "duration": 0.11999999999999744
                },
                {
                    "name": "E4",
                    "midi": 64,
                    "time": 50.55000000000003,
                    "velocity": 0.6299212598425197,
                    "duration": 0.11999999999999744
                },
                {
                    "name": "F4",
                    "midi": 65,
                    "time": 50.70000000000003,
                    "velocity": 0.6299212598425197,
                    "duration": 0.240000000000002
                },
                {
                    "name": "E4",
                    "midi": 64,
                    "time": 51.000000000000036,
                    "velocity": 0.6299212598425197,
                    "duration": 0.11999999999999744
                },
                {
                    "name": "D4",
                    "midi": 62,
                    "time": 51.150000000000034,
                    "velocity": 0.6299212598425197,
                    "duration": 0.35999999999999943
                },
                {
                    "name": "C4",
                    "midi": 60,
                    "time": 51.60000000000004,
                    "velocity": 0.6299212598425197,
                    "duration": 0.35999999999999943
                },
                {
                    "name": "A#3",
                    "midi": 58,
                    "time": 52.05000000000004,
                    "velocity": 0.6299212598425197,
                    "duration": 0.11999999999999744
                },
                {
                    "name": "A3",
                    "midi": 57,
                    "time": 52.20000000000004,
                    "velocity": 0.6299212598425197,
                    "duration": 0.9600000000000009
                },
                {
                    "name": "D4",
                    "midi": 62,
                    "time": 54.00000000000004,
                    "velocity": 0.6299212598425197,
                    "duration": 0.2849999999999966
                },
                {
                    "name": "C#4",
                    "midi": 61,
                    "time": 54.30000000000004,
                    "velocity": 0.6299212598425197,
                    "duration": 0.2849999999999966
                },
                {
                    "name": "D4",
                    "midi": 62,
                    "time": 54.60000000000004,
                    "velocity": 0.6299212598425197,
                    "duration": 0.2849999999999966
                },
                {
                    "name": "F4",
                    "midi": 65,
                    "time": 54.900000000000034,
                    "velocity": 0.6299212598425197,
                    "duration": 0.2849999999999966
                },
                {
                    "name": "E4",
                    "midi": 64,
                    "time": 55.20000000000003,
                    "velocity": 0.6299212598425197,
                    "duration": 0.4799999999999969
                },
                {
                    "name": "F4",
                    "midi": 65,
                    "time": 55.800000000000026,
                    "velocity": 0.6299212598425197,
                    "duration": 0.9600000000000009
                },
                {
                    "name": "D4",
                    "midi": 62,
                    "time": 57.60000000000003,
                    "velocity": 0.5039370078740157,
                    "duration": 0.2849999999999966
                },
                {
                    "name": "C#4",
                    "midi": 61,
                    "time": 57.90000000000003,
                    "velocity": 0.5039370078740157,
                    "duration": 0.2849999999999966
                },
                {
                    "name": "D4",
                    "midi": 62,
                    "time": 58.200000000000024,
                    "velocity": 0.5039370078740157,
                    "duration": 0.2849999999999966
                },
                {
                    "name": "F4",
                    "midi": 65,
                    "time": 58.50000000000002,
                    "velocity": 0.5039370078740157,
                    "duration": 0.2849999999999966
                },
                {
                    "name": "E4",
                    "midi": 64,
                    "time": 58.80000000000002,
                    "velocity": 0.6299212598425197,
                    "duration": 0.4799999999999969
                },
                {
                    "name": "F4",
                    "midi": 65,
                    "time": 59.40000000000001,
                    "velocity": 0.6299212598425197,
                    "duration": 0.9600000000000009
                },
                {
                    "name": "F4",
                    "midi": 65,
                    "time": 61.20000000000002,
                    "velocity": 0.5905511811023622,
                    "duration": 0.2849999999999966
                },
                {
                    "name": "E4",
                    "midi": 64,
                    "time": 61.500000000000014,
                    "velocity": 0.5905511811023622,
                    "duration": 0.2849999999999966
                },
                {
                    "name": "F4",
                    "midi": 65,
                    "time": 61.80000000000001,
                    "velocity": 0.5905511811023622,
                    "duration": 0.2849999999999966
                },
                {
                    "name": "A4",
                    "midi": 69,
                    "time": 62.10000000000001,
                    "velocity": 0.5905511811023622,
                    "duration": 0.2849999999999966
                },
                {
                    "name": "G4",
                    "midi": 67,
                    "time": 62.400000000000006,
                    "velocity": 0.6299212598425197,
                    "duration": 0.4799999999999969
                },
                {
                    "name": "A4",
                    "midi": 69,
                    "time": 63,
                    "velocity": 0.5905511811023622,
                    "duration": 0.9600000000000009
                },
                {
                    "name": "G4",
                    "midi": 67,
                    "time": 64.2,
                    "velocity": 0.5905511811023622,
                    "duration": 0.23999999999999488
                },
                {
                    "name": "F4",
                    "midi": 65,
                    "time": 64.5,
                    "velocity": 0.5905511811023622,
                    "duration": 0.23999999999999488
                },
                {
                    "name": "E4",
                    "midi": 64,
                    "time": 64.8,
                    "velocity": 0.5905511811023622,
                    "duration": 0.23999999999999488
                },
                {
                    "name": "F4",
                    "midi": 65,
                    "time": 65.1,
                    "velocity": 0.5905511811023622,
                    "duration": 0.12000000000000455
                },
                {
                    "name": "D4",
                    "midi": 62,
                    "time": 65.25,
                    "velocity": 0.5905511811023622,
                    "duration": 0.12000000000000455
                },
                {
                    "name": "E4",
                    "midi": 64,
                    "time": 65.4,
                    "velocity": 0.5905511811023622,
                    "duration": 0.12000000000000455
                },
                {
                    "name": "F4",
                    "midi": 65,
                    "time": 65.55000000000001,
                    "velocity": 0.5905511811023622,
                    "duration": 0.12000000000000455
                },
                {
                    "name": "G4",
                    "midi": 67,
                    "time": 65.70000000000002,
                    "velocity": 0.5905511811023622,
                    "duration": 0.23999999999999488
                },
                {
                    "name": "F4",
                    "midi": 65,
                    "time": 66.00000000000001,
                    "velocity": 0.5905511811023622,
                    "duration": 0.35999999999999943
                },
                {
                    "name": "E4",
                    "midi": 64,
                    "time": 66.45000000000002,
                    "velocity": 0.5905511811023622,
                    "duration": 0.12000000000000455
                },
                {
                    "name": "F4",
                    "midi": 65,
                    "time": 66.60000000000002,
                    "velocity": 0.5905511811023622,
                    "duration": 0.9599999999999937
                },
                {
                    "name": "F4",
                    "midi": 65,
                    "time": 68.40000000000002,
                    "velocity": 0.6299212598425197,
                    "duration": 0.23999999999999488
                },
                {
                    "name": "E4",
                    "midi": 64,
                    "time": 68.70000000000002,
                    "velocity": 0.6299212598425197,
                    "duration": 0.23999999999999488
                },
                {
                    "name": "F4",
                    "midi": 65,
                    "time": 69.00000000000001,
                    "velocity": 0.6299212598425197,
                    "duration": 0.23999999999999488
                },
                {
                    "name": "A4",
                    "midi": 69,
                    "time": 69.30000000000001,
                    "velocity": 0.6299212598425197,
                    "duration": 0.23999999999999488
                },
                {
                    "name": "G4",
                    "midi": 67,
                    "time": 69.60000000000001,
                    "velocity": 0.6299212598425197,
                    "duration": 0.480000000000004
                },
                {
                    "name": "A4",
                    "midi": 69,
                    "time": 70.20000000000002,
                    "velocity": 0.6299212598425197,
                    "duration": 0.9599999999999937
                },
                {
                    "name": "G4",
                    "midi": 67,
                    "time": 71.4,
                    "velocity": 0.6299212598425197,
                    "duration": 0.23999999999999488
                },
                {
                    "name": "F4",
                    "midi": 65,
                    "time": 71.7,
                    "velocity": 0.6299212598425197,
                    "duration": 0.23999999999999488
                },
                {
                    "name": "E4",
                    "midi": 64,
                    "time": 72,
                    "velocity": 0.6299212598425197,
                    "duration": 0.23999999999999488
                },
                {
                    "name": "F4",
                    "midi": 65,
                    "time": 72.3,
                    "velocity": 0.6299212598425197,
                    "duration": 0.12000000000000455
                },
                {
                    "name": "D4",
                    "midi": 62,
                    "time": 72.45,
                    "velocity": 0.6299212598425197,
                    "duration": 0.12000000000000455
                },
                {
                    "name": "E4",
                    "midi": 64,
                    "time": 72.60000000000001,
                    "velocity": 0.6299212598425197,
                    "duration": 0.12000000000000455
                },
                {
                    "name": "F4",
                    "midi": 65,
                    "time": 72.75000000000001,
                    "velocity": 0.6299212598425197,
                    "duration": 0.12000000000000455
                },
                {
                    "name": "G4",
                    "midi": 67,
                    "time": 72.90000000000002,
                    "velocity": 0.6299212598425197,
                    "duration": 0.23999999999999488
                },
                {
                    "name": "F4",
                    "midi": 65,
                    "time": 73.20000000000002,
                    "velocity": 0.6299212598425197,
                    "duration": 0.35999999999999943
                },
                {
                    "name": "E4",
                    "midi": 64,
                    "time": 73.65000000000002,
                    "velocity": 0.6299212598425197,
                    "duration": 0.12000000000000455
                },
                {
                    "name": "F4",
                    "midi": 65,
                    "time": 73.80000000000003,
                    "velocity": 0.6299212598425197,
                    "duration": 0.9599999999999937
                },
                {
                    "name": "C4",
                    "midi": 60,
                    "time": 76.20000000000002,
                    "velocity": 0.6299212598425197,
                    "duration": 0.5699999999999932
                },
                {
                    "name": "C4",
                    "midi": 60,
                    "time": 76.80000000000001,
                    "velocity": 0.6299212598425197,
                    "duration": 0.5699999999999932
                },
                {
                    "name": "C4",
                    "midi": 60,
                    "time": 77.4,
                    "velocity": 0.6299212598425197,
                    "duration": 0.855000000000004
                },
                {
                    "name": "D4",
                    "midi": 62,
                    "time": 78.30000000000001,
                    "velocity": 0.6299212598425197,
                    "duration": 0.2849999999999966
                },
                {
                    "name": "C4",
                    "midi": 60,
                    "time": 78.60000000000001,
                    "velocity": 0.6299212598425197,
                    "duration": 0.480000000000004
                },
                {
                    "name": "D4",
                    "midi": 62,
                    "time": 79.20000000000002,
                    "velocity": 0.6299212598425197,
                    "duration": 0.23999999999999488
                },
                {
                    "name": "E4",
                    "midi": 64,
                    "time": 79.50000000000001,
                    "velocity": 0.6299212598425197,
                    "duration": 0.23999999999999488
                },
                {
                    "name": "D4",
                    "midi": 62,
                    "time": 79.80000000000001,
                    "velocity": 0.6299212598425197,
                    "duration": 0.23999999999999488
                },
                {
                    "name": "E4",
                    "midi": 64,
                    "time": 80.10000000000001,
                    "velocity": 0.6299212598425197,
                    "duration": 0.23999999999999488
                },
                {
                    "name": "F4",
                    "midi": 65,
                    "time": 80.4,
                    "velocity": 0.6299212598425197,
                    "duration": 0.480000000000004
                },
                {
                    "name": "E4",
                    "midi": 64,
                    "time": 81.00000000000001,
                    "velocity": 0.6299212598425197,
                    "duration": 0.9599999999999937
                },
                {
                    "name": "G4",
                    "midi": 67,
                    "time": 83.4,
                    "velocity": 0.6299212598425197,
                    "duration": 0.5699999999999932
                },
                {
                    "name": "G4",
                    "midi": 67,
                    "time": 84,
                    "velocity": 0.6299212598425197,
                    "duration": 0.5699999999999932
                },
                {
                    "name": "G4",
                    "midi": 67,
                    "time": 84.6,
                    "velocity": 0.6299212598425197,
                    "duration": 0.855000000000004
                },
                {
                    "name": "A4",
                    "midi": 69,
                    "time": 85.5,
                    "velocity": 0.6299212598425197,
                    "duration": 0.2849999999999966
                },
                {
                    "name": "G4",
                    "midi": 67,
                    "time": 85.8,
                    "velocity": 0.6299212598425197,
                    "duration": 0.480000000000004
                },
                {
                    "name": "A4",
                    "midi": 69,
                    "time": 86.4,
                    "velocity": 0.6299212598425197,
                    "duration": 0.23999999999999488
                },
                {
                    "name": "A#4",
                    "midi": 70,
                    "time": 86.7,
                    "velocity": 0.6299212598425197,
                    "duration": 0.23999999999999488
                },
                {
                    "name": "A4",
                    "midi": 69,
                    "time": 87,
                    "velocity": 0.6299212598425197,
                    "duration": 0.23999999999999488
                },
                {
                    "name": "A#4",
                    "midi": 70,
                    "time": 87.3,
                    "velocity": 0.6299212598425197,
                    "duration": 0.23999999999999488
                },
                {
                    "name": "A4",
                    "midi": 69,
                    "time": 87.6,
                    "velocity": 0.6299212598425197,
                    "duration": 0.480000000000004
                },
                {
                    "name": "A#4",
                    "midi": 70,
                    "time": 88.2,
                    "velocity": 0.6299212598425197,
                    "duration": 0.9599999999999937
                },
                {
                    "name": "G4",
                    "midi": 67,
                    "time": 89.39999999999999,
                    "velocity": 0.6299212598425197,
                    "duration": 0.480000000000004
                },
                {
                    "name": "E4",
                    "midi": 64,
                    "time": 90.6,
                    "velocity": 0.6299212598425197,
                    "duration": 0.480000000000004
                },
                {
                    "name": "A4",
                    "midi": 69,
                    "time": 91.2,
                    "velocity": 0.6299212598425197,
                    "duration": 0.480000000000004
                },
                {
                    "name": "D4",
                    "midi": 62,
                    "time": 92.4,
                    "velocity": 0.6299212598425197,
                    "duration": 0.480000000000004
                },
                {
                    "name": "F4",
                    "midi": 65,
                    "time": 93.00000000000001,
                    "velocity": 0.6299212598425197,
                    "duration": 0.23999999999999488
                },
                {
                    "name": "E4",
                    "midi": 64,
                    "time": 93.30000000000001,
                    "velocity": 0.6299212598425197,
                    "duration": 0.23999999999999488
                },
                {
                    "name": "C#4",
                    "midi": 61,
                    "time": 93.60000000000001,
                    "velocity": 0.6299212598425197,
                    "duration": 0.23999999999999488
                },
                {
                    "name": "A3",
                    "midi": 57,
                    "time": 93.9,
                    "velocity": 0.6299212598425197,
                    "duration": 0.12000000000000455
                },
                {
                    "name": "B3",
                    "midi": 59,
                    "time": 94.05000000000001,
                    "velocity": 0.6299212598425197,
                    "duration": 0.12000000000000455
                },
                {
                    "name": "C#4",
                    "midi": 61,
                    "time": 94.20000000000002,
                    "velocity": 0.6299212598425197,
                    "duration": 0.23999999999999488
                },
                {
                    "name": "B3",
                    "midi": 59,
                    "time": 94.50000000000001,
                    "velocity": 0.6299212598425197,
                    "duration": 0.23999999999999488
                },
                {
                    "name": "C#4",
                    "midi": 61,
                    "time": 94.80000000000001,
                    "velocity": 0.6299212598425197,
                    "duration": 0.12000000000000455
                },
                {
                    "name": "B3",
                    "midi": 59,
                    "time": 94.95000000000002,
                    "velocity": 0.6299212598425197,
                    "duration": 0.12000000000000455
                },
                {
                    "name": "A3",
                    "midi": 57,
                    "time": 95.10000000000002,
                    "velocity": 0.6299212598425197,
                    "duration": 0.23999999999999488
                },
                {
                    "name": "D4",
                    "midi": 62,
                    "time": 95.40000000000002,
                    "velocity": 0.6299212598425197,
                    "duration": 0.23999999999999488
                },
                {
                    "name": "D4",
                    "midi": 62,
                    "time": 95.70000000000002,
                    "velocity": 0.6299212598425197,
                    "duration": 0.12000000000000455
                },
                {
                    "name": "E4",
                    "midi": 64,
                    "time": 95.85000000000002,
                    "velocity": 0.6299212598425197,
                    "duration": 0.12000000000000455
                },
                {
                    "name": "F4",
                    "midi": 65,
                    "time": 96.00000000000003,
                    "velocity": 0.6299212598425197,
                    "duration": 0.23999999999999488
                },
                {
                    "name": "E4",
                    "midi": 64,
                    "time": 96.30000000000003,
                    "velocity": 0.6299212598425197,
                    "duration": 0.23999999999999488
                },
                {
                    "name": "F4",
                    "midi": 65,
                    "time": 96.60000000000002,
                    "velocity": 0.6299212598425197,
                    "duration": 0.12000000000000455
                },
                {
                    "name": "E4",
                    "midi": 64,
                    "time": 96.75000000000003,
                    "velocity": 0.6299212598425197,
                    "duration": 0.12000000000000455
                },
                {
                    "name": "D4",
                    "midi": 62,
                    "time": 96.90000000000003,
                    "velocity": 0.6299212598425197,
                    "duration": 0.23999999999999488
                },
                {
                    "name": "G4",
                    "midi": 67,
                    "time": 97.20000000000003,
                    "velocity": 0.6299212598425197,
                    "duration": 0.23999999999999488
                },
                {
                    "name": "E4",
                    "midi": 64,
                    "time": 97.50000000000003,
                    "velocity": 0.6299212598425197,
                    "duration": 0.12000000000000455
                },
                {
                    "name": "F4",
                    "midi": 65,
                    "time": 97.65000000000003,
                    "velocity": 0.6299212598425197,
                    "duration": 0.12000000000000455
                },
                {
                    "name": "G4",
                    "midi": 67,
                    "time": 97.80000000000004,
                    "velocity": 0.6299212598425197,
                    "duration": 0.23999999999999488
                },
                {
                    "name": "F4",
                    "midi": 65,
                    "time": 98.10000000000004,
                    "velocity": 0.6299212598425197,
                    "duration": 0.23999999999999488
                },
                {
                    "name": "G4",
                    "midi": 67,
                    "time": 98.40000000000003,
                    "velocity": 0.6299212598425197,
                    "duration": 0.12000000000000455
                },
                {
                    "name": "F4",
                    "midi": 65,
                    "time": 98.55000000000004,
                    "velocity": 0.6299212598425197,
                    "duration": 0.12000000000000455
                },
                {
                    "name": "E4",
                    "midi": 64,
                    "time": 98.70000000000005,
                    "velocity": 0.6299212598425197,
                    "duration": 0.23999999999999488
                },
                {
                    "name": "F4",
                    "midi": 65,
                    "time": 99.00000000000004,
                    "velocity": 0.6299212598425197,
                    "duration": 0.23999999999999488
                },
                {
                    "name": "F4",
                    "midi": 65,
                    "time": 99.30000000000004,
                    "velocity": 0.6299212598425197,
                    "duration": 0.12000000000000455
                },
                {
                    "name": "G4",
                    "midi": 67,
                    "time": 99.45000000000005,
                    "velocity": 0.6299212598425197,
                    "duration": 0.12000000000000455
                },
                {
                    "name": "A4",
                    "midi": 69,
                    "time": 99.60000000000005,
                    "velocity": 0.6299212598425197,
                    "duration": 0.23999999999999488
                },
                {
                    "name": "G4",
                    "midi": 67,
                    "time": 99.90000000000005,
                    "velocity": 0.6299212598425197,
                    "duration": 0.23999999999999488
                },
                {
                    "name": "A4",
                    "midi": 69,
                    "time": 100.20000000000005,
                    "velocity": 0.6299212598425197,
                    "duration": 0.12000000000000455
                },
                {
                    "name": "G4",
                    "midi": 67,
                    "time": 100.35000000000005,
                    "velocity": 0.6299212598425197,
                    "duration": 0.12000000000000455
                },
                {
                    "name": "F4",
                    "midi": 65,
                    "time": 100.50000000000006,
                    "velocity": 0.6299212598425197,
                    "duration": 0.23999999999999488
                },
                {
                    "name": "A#4",
                    "midi": 70,
                    "time": 100.80000000000005,
                    "velocity": 0.6299212598425197,
                    "duration": 0.29999999999999716
                },
                {
                    "name": "A4",
                    "midi": 69,
                    "time": 101.10000000000005,
                    "velocity": 0.6299212598425197,
                    "duration": 0.29999999999999716
                },
                {
                    "name": "G4",
                    "midi": 67,
                    "time": 101.40000000000005,
                    "velocity": 0.6299212598425197,
                    "duration": 0.29999999999999716
                },
                {
                    "name": "F4",
                    "midi": 65,
                    "time": 101.70000000000005,
                    "velocity": 0.6299212598425197,
                    "duration": 0.29999999999999716
                },
                {
                    "name": "E4",
                    "midi": 64,
                    "time": 102.00000000000004,
                    "velocity": 0.6299212598425197,
                    "duration": 0.29999999999999716
                },
                {
                    "name": "D4",
                    "midi": 62,
                    "time": 102.30000000000004,
                    "velocity": 0.6299212598425197,
                    "duration": 0.29999999999999716
                },
                {
                    "name": "D4",
                    "midi": 62,
                    "time": 102.60000000000004,
                    "velocity": 0.6299212598425197,
                    "duration": 0.35999999999999943
                },
                {
                    "name": "E4",
                    "midi": 64,
                    "time": 103.05000000000004,
                    "velocity": 0.6299212598425197,
                    "duration": 0.12000000000000455
                },
                {
                    "name": "D4",
                    "midi": 62,
                    "time": 103.20000000000005,
                    "velocity": 0.6299212598425197,
                    "duration": 0.12000000000000455
                },
                {
                    "name": "E4",
                    "midi": 64,
                    "time": 103.35000000000005,
                    "velocity": 0.6299212598425197,
                    "duration": 0.12000000000000455
                },
                {
                    "name": "F4",
                    "midi": 65,
                    "time": 103.50000000000006,
                    "velocity": 0.6299212598425197,
                    "duration": 0.23999999999999488
                },
                {
                    "name": "E4",
                    "midi": 64,
                    "time": 103.80000000000005,
                    "velocity": 0.6299212598425197,
                    "duration": 0.23999999999999488
                },
                {
                    "name": "D4",
                    "midi": 62,
                    "time": 104.10000000000005,
                    "velocity": 0.6299212598425197,
                    "duration": 0.23999999999999488
                },
                {
                    "name": "D4",
                    "midi": 62,
                    "time": 104.40000000000005,
                    "velocity": 0.6299212598425197,
                    "duration": 0.9599999999999937
                },
                {
                    "name": "C4",
                    "midi": 60,
                    "time": 106.80000000000004,
                    "velocity": 0.6299212598425197,
                    "duration": 0.5699999999999932
                },
                {
                    "name": "C4",
                    "midi": 60,
                    "time": 107.40000000000003,
                    "velocity": 0.6299212598425197,
                    "duration": 0.5699999999999932
                },
                {
                    "name": "C4",
                    "midi": 60,
                    "time": 108.00000000000003,
                    "velocity": 0.6299212598425197,
                    "duration": 0.855000000000004
                },
                {
                    "name": "D4",
                    "midi": 62,
                    "time": 108.90000000000003,
                    "velocity": 0.6299212598425197,
                    "duration": 0.2849999999999966
                },
                {
                    "name": "C4",
                    "midi": 60,
                    "time": 109.20000000000003,
                    "velocity": 0.6299212598425197,
                    "duration": 0.480000000000004
                },
                {
                    "name": "D4",
                    "midi": 62,
                    "time": 109.80000000000004,
                    "velocity": 0.6299212598425197,
                    "duration": 0.23999999999999488
                },
                {
                    "name": "E4",
                    "midi": 64,
                    "time": 110.10000000000004,
                    "velocity": 0.6299212598425197,
                    "duration": 0.23999999999999488
                },
                {
                    "name": "D4",
                    "midi": 62,
                    "time": 110.40000000000003,
                    "velocity": 0.6299212598425197,
                    "duration": 0.23999999999999488
                },
                {
                    "name": "E4",
                    "midi": 64,
                    "time": 110.70000000000003,
                    "velocity": 0.6299212598425197,
                    "duration": 0.23999999999999488
                },
                {
                    "name": "F4",
                    "midi": 65,
                    "time": 111.00000000000003,
                    "velocity": 0.6299212598425197,
                    "duration": 0.480000000000004
                },
                {
                    "name": "E4",
                    "midi": 64,
                    "time": 111.60000000000004,
                    "velocity": 0.6299212598425197,
                    "duration": 0.9599999999999937
                },
                {
                    "name": "G4",
                    "midi": 67,
                    "time": 114.00000000000003,
                    "velocity": 0.6299212598425197,
                    "duration": 0.5699999999999932
                },
                {
                    "name": "G4",
                    "midi": 67,
                    "time": 114.60000000000002,
                    "velocity": 0.6299212598425197,
                    "duration": 0.5699999999999932
                },
                {
                    "name": "G4",
                    "midi": 67,
                    "time": 115.20000000000002,
                    "velocity": 0.6299212598425197,
                    "duration": 0.855000000000004
                },
                {
                    "name": "A4",
                    "midi": 69,
                    "time": 116.10000000000002,
                    "velocity": 0.6299212598425197,
                    "duration": 0.2849999999999966
                },
                {
                    "name": "G4",
                    "midi": 67,
                    "time": 116.40000000000002,
                    "velocity": 0.6299212598425197,
                    "duration": 0.480000000000004
                },
                {
                    "name": "A4",
                    "midi": 69,
                    "time": 117.00000000000003,
                    "velocity": 0.6299212598425197,
                    "duration": 0.23999999999999488
                },
                {
                    "name": "A#4",
                    "midi": 70,
                    "time": 117.30000000000003,
                    "velocity": 0.6299212598425197,
                    "duration": 0.23999999999999488
                },
                {
                    "name": "A4",
                    "midi": 69,
                    "time": 117.60000000000002,
                    "velocity": 0.6299212598425197,
                    "duration": 0.23999999999999488
                },
                {
                    "name": "A#4",
                    "midi": 70,
                    "time": 117.90000000000002,
                    "velocity": 0.6299212598425197,
                    "duration": 0.23999999999999488
                },
                {
                    "name": "A4",
                    "midi": 69,
                    "time": 118.20000000000002,
                    "velocity": 0.6299212598425197,
                    "duration": 0.480000000000004
                },
                {
                    "name": "A#4",
                    "midi": 70,
                    "time": 118.80000000000003,
                    "velocity": 0.6299212598425197,
                    "duration": 0.9599999999999937
                },
                {
                    "name": "G4",
                    "midi": 67,
                    "time": 120.00000000000001,
                    "velocity": 0.6299212598425197,
                    "duration": 0.480000000000004
                },
                {
                    "name": "E4",
                    "midi": 64,
                    "time": 121.20000000000002,
                    "velocity": 0.6299212598425197,
                    "duration": 0.480000000000004
                },
                {
                    "name": "A4",
                    "midi": 69,
                    "time": 121.80000000000003,
                    "velocity": 0.6299212598425197,
                    "duration": 0.480000000000004
                },
                {
                    "name": "D4",
                    "midi": 62,
                    "time": 123.00000000000003,
                    "velocity": 0.6299212598425197,
                    "duration": 0.480000000000004
                },
                {
                    "name": "F4",
                    "midi": 65,
                    "time": 123.60000000000004,
                    "velocity": 0.6299212598425197,
                    "duration": 0.23999999999999488
                },
                {
                    "name": "E4",
                    "midi": 64,
                    "time": 123.90000000000003,
                    "velocity": 0.6299212598425197,
                    "duration": 0.23999999999999488
                },
                {
                    "name": "C#4",
                    "midi": 61,
                    "time": 124.20000000000003,
                    "velocity": 0.6299212598425197,
                    "duration": 0.23999999999999488
                },
                {
                    "name": "A3",
                    "midi": 57,
                    "time": 124.50000000000003,
                    "velocity": 0.6299212598425197,
                    "duration": 0.12000000000000455
                },
                {
                    "name": "B3",
                    "midi": 59,
                    "time": 124.65000000000003,
                    "velocity": 0.6299212598425197,
                    "duration": 0.12000000000000455
                },
                {
                    "name": "C#4",
                    "midi": 61,
                    "time": 124.80000000000004,
                    "velocity": 0.6299212598425197,
                    "duration": 0.23999999999999488
                },
                {
                    "name": "B3",
                    "midi": 59,
                    "time": 125.10000000000004,
                    "velocity": 0.6299212598425197,
                    "duration": 0.23999999999999488
                },
                {
                    "name": "C#4",
                    "midi": 61,
                    "time": 125.40000000000003,
                    "velocity": 0.6299212598425197,
                    "duration": 0.12000000000000455
                },
                {
                    "name": "B3",
                    "midi": 59,
                    "time": 125.55000000000004,
                    "velocity": 0.6299212598425197,
                    "duration": 0.12000000000000455
                },
                {
                    "name": "A3",
                    "midi": 57,
                    "time": 125.70000000000005,
                    "velocity": 0.6299212598425197,
                    "duration": 0.23999999999999488
                },
                {
                    "name": "D4",
                    "midi": 62,
                    "time": 126.00000000000004,
                    "velocity": 0.6299212598425197,
                    "duration": 0.23999999999999488
                },
                {
                    "name": "D4",
                    "midi": 62,
                    "time": 126.30000000000004,
                    "velocity": 0.6299212598425197,
                    "duration": 0.12000000000000455
                },
                {
                    "name": "E4",
                    "midi": 64,
                    "time": 126.45000000000005,
                    "velocity": 0.6299212598425197,
                    "duration": 0.12000000000000455
                },
                {
                    "name": "F4",
                    "midi": 65,
                    "time": 126.60000000000005,
                    "velocity": 0.6299212598425197,
                    "duration": 0.23999999999999488
                },
                {
                    "name": "E4",
                    "midi": 64,
                    "time": 126.90000000000005,
                    "velocity": 0.6299212598425197,
                    "duration": 0.23999999999999488
                },
                {
                    "name": "F4",
                    "midi": 65,
                    "time": 127.20000000000005,
                    "velocity": 0.6299212598425197,
                    "duration": 0.12000000000000455
                },
                {
                    "name": "E4",
                    "midi": 64,
                    "time": 127.35000000000005,
                    "velocity": 0.6299212598425197,
                    "duration": 0.12000000000000455
                },
                {
                    "name": "D4",
                    "midi": 62,
                    "time": 127.50000000000006,
                    "velocity": 0.6299212598425197,
                    "duration": 0.23999999999999488
                },
                {
                    "name": "G4",
                    "midi": 67,
                    "time": 127.80000000000005,
                    "velocity": 0.6299212598425197,
                    "duration": 0.23999999999999488
                },
                {
                    "name": "E4",
                    "midi": 64,
                    "time": 128.10000000000005,
                    "velocity": 0.6299212598425197,
                    "duration": 0.12000000000000455
                },
                {
                    "name": "F4",
                    "midi": 65,
                    "time": 128.25000000000006,
                    "velocity": 0.6299212598425197,
                    "duration": 0.12000000000000455
                },
                {
                    "name": "G4",
                    "midi": 67,
                    "time": 128.40000000000006,
                    "velocity": 0.6299212598425197,
                    "duration": 0.2400000000000091
                },
                {
                    "name": "F4",
                    "midi": 65,
                    "time": 128.70000000000007,
                    "velocity": 0.6299212598425197,
                    "duration": 0.2400000000000091
                },
                {
                    "name": "G4",
                    "midi": 67,
                    "time": 129.00000000000009,
                    "velocity": 0.6299212598425197,
                    "duration": 0.12000000000000455
                },
                {
                    "name": "F4",
                    "midi": 65,
                    "time": 129.1500000000001,
                    "velocity": 0.6299212598425197,
                    "duration": 0.12000000000000455
                },
                {
                    "name": "E4",
                    "midi": 64,
                    "time": 129.3000000000001,
                    "velocity": 0.6299212598425197,
                    "duration": 0.2400000000000091
                },
                {
                    "name": "F4",
                    "midi": 65,
                    "time": 129.6000000000001,
                    "velocity": 0.6299212598425197,
                    "duration": 0.2400000000000091
                },
                {
                    "name": "F4",
                    "midi": 65,
                    "time": 129.90000000000012,
                    "velocity": 0.6299212598425197,
                    "duration": 0.12000000000000455
                },
                {
                    "name": "G4",
                    "midi": 67,
                    "time": 130.05000000000013,
                    "velocity": 0.6299212598425197,
                    "duration": 0.12000000000000455
                },
                {
                    "name": "A4",
                    "midi": 69,
                    "time": 130.20000000000013,
                    "velocity": 0.6299212598425197,
                    "duration": 0.2400000000000091
                },
                {
                    "name": "G4",
                    "midi": 67,
                    "time": 130.50000000000014,
                    "velocity": 0.6299212598425197,
                    "duration": 0.2400000000000091
                },
                {
                    "name": "A4",
                    "midi": 69,
                    "time": 130.80000000000015,
                    "velocity": 0.6299212598425197,
                    "duration": 0.12000000000000455
                },
                {
                    "name": "G4",
                    "midi": 67,
                    "time": 130.95000000000016,
                    "velocity": 0.6299212598425197,
                    "duration": 0.12000000000000455
                },
                {
                    "name": "F4",
                    "midi": 65,
                    "time": 131.10000000000016,
                    "velocity": 0.6299212598425197,
                    "duration": 0.2400000000000091
                },
                {
                    "name": "A#4",
                    "midi": 70,
                    "time": 131.40000000000018,
                    "velocity": 0.6299212598425197,
                    "duration": 0.30000000000001137
                },
                {
                    "name": "A4",
                    "midi": 69,
                    "time": 131.7000000000002,
                    "velocity": 0.6299212598425197,
                    "duration": 0.30000000000001137
                },
                {
                    "name": "G4",
                    "midi": 67,
                    "time": 132.0000000000002,
                    "velocity": 0.6299212598425197,
                    "duration": 0.30000000000001137
                },
                {
                    "name": "F4",
                    "midi": 65,
                    "time": 132.3000000000002,
                    "velocity": 0.6299212598425197,
                    "duration": 0.30000000000001137
                },
                {
                    "name": "E4",
                    "midi": 64,
                    "time": 132.60000000000022,
                    "velocity": 0.6299212598425197,
                    "duration": 0.30000000000001137
                },
                {
                    "name": "D4",
                    "midi": 62,
                    "time": 132.90000000000023,
                    "velocity": 0.6299212598425197,
                    "duration": 0.30000000000001137
                },
                {
                    "name": "D4",
                    "midi": 62,
                    "time": 133.20000000000024,
                    "velocity": 0.6299212598425197,
                    "duration": 0.36000000000001364
                },
                {
                    "name": "E4",
                    "midi": 64,
                    "time": 133.65000000000026,
                    "velocity": 0.6299212598425197,
                    "duration": 0.12000000000000455
                },
                {
                    "name": "D4",
                    "midi": 62,
                    "time": 133.80000000000027,
                    "velocity": 0.6299212598425197,
                    "duration": 0.12000000000000455
                },
                {
                    "name": "E4",
                    "midi": 64,
                    "time": 133.95000000000027,
                    "velocity": 0.6299212598425197,
                    "duration": 0.12000000000000455
                },
                {
                    "name": "F4",
                    "midi": 65,
                    "time": 134.10000000000028,
                    "velocity": 0.6299212598425197,
                    "duration": 0.2400000000000091
                },
                {
                    "name": "E4",
                    "midi": 64,
                    "time": 134.4000000000003,
                    "velocity": 0.6299212598425197,
                    "duration": 0.2400000000000091
                },
                {
                    "name": "D4",
                    "midi": 62,
                    "time": 134.7000000000003,
                    "velocity": 0.6299212598425197,
                    "duration": 0.2400000000000091
                },
                {
                    "name": "D4",
                    "midi": 62,
                    "time": 135.0000000000003,
                    "velocity": 0.6299212598425197,
                    "duration": 0.960000000000008
                }
            ],
            "controlChanges": {
                "7": [
                    {
                        "number": 7,
                        "time": 0,
                        "value": 0.952755905511811
                    }
                ],
                "10": [
                    {
                        "number": 10,
                        "time": 0,
                        "value": 0.5039370078740157
                    }
                ],
                "91": [
                    {
                        "number": 91,
                        "time": 0,
                        "value": 0.5511811023622047
                    }
                ],
                "121": [
                    {
                        "number": 121,
                        "time": 0,
                        "value": 0
                    }
                ]
            },
            "id": 3,
            "name": "Voice",
            "instrumentNumber": 94,
            "instrument": "pad 7 (halo)",
            "instrumentFamily": "synth pad",
            "channelNumber": 2,
            "isPercussion": false
        },
        {
            "startTime": 0,
            "duration": 139.5600000000002,
            "length": 373,
            "notes": [
                {
                    "name": "F4",
                    "midi": 65,
                    "time": 0,
                    "velocity": 0.6299212598425197,
                    "duration": 0.48
                },
                {
                    "name": "A4",
                    "midi": 69,
                    "time": 0,
                    "velocity": 0.6299212598425197,
                    "duration": 0.48
                },
                {
                    "name": "F4",
                    "midi": 65,
                    "time": 0.8999999999999999,
                    "velocity": 0.6299212598425197,
                    "duration": 0.24
                },
                {
                    "name": "E4",
                    "midi": 64,
                    "time": 1.2,
                    "velocity": 0.6299212598425197,
                    "duration": 0.48
                },
                {
                    "name": "A4",
                    "midi": 69,
                    "time": 1.2,
                    "velocity": 0.6299212598425197,
                    "duration": 0.48
                },
                {
                    "name": "F4",
                    "midi": 65,
                    "time": 1.7999999999999998,
                    "velocity": 0.6299212598425197,
                    "duration": 0.48
                },
                {
                    "name": "A4",
                    "midi": 69,
                    "time": 1.7999999999999998,
                    "velocity": 0.6299212598425197,
                    "duration": 0.48
                },
                {
                    "name": "F4",
                    "midi": 65,
                    "time": 2.6999999999999997,
                    "velocity": 0.6299212598425197,
                    "duration": 0.23999999999999977
                },
                {
                    "name": "D4",
                    "midi": 62,
                    "time": 2.6999999999999997,
                    "velocity": 0.6299212598425197,
                    "duration": 0.23999999999999977
                },
                {
                    "name": "E4",
                    "midi": 64,
                    "time": 2.9999999999999996,
                    "velocity": 0.6299212598425197,
                    "duration": 0.48
                },
                {
                    "name": "C#4",
                    "midi": 61,
                    "time": 2.9999999999999996,
                    "velocity": 0.6299212598425197,
                    "duration": 0.48
                },
                {
                    "name": "F4",
                    "midi": 65,
                    "time": 3.5999999999999996,
                    "velocity": 0.6299212598425197,
                    "duration": 0.4800000000000004
                },
                {
                    "name": "A4",
                    "midi": 69,
                    "time": 3.5999999999999996,
                    "velocity": 0.6299212598425197,
                    "duration": 0.4800000000000004
                },
                {
                    "name": "F4",
                    "midi": 65,
                    "time": 4.5,
                    "velocity": 0.6299212598425197,
                    "duration": 0.2400000000000002
                },
                {
                    "name": "A4",
                    "midi": 69,
                    "time": 4.8,
                    "velocity": 0.6299212598425197,
                    "duration": 0.47999999999999954
                },
                {
                    "name": "E4",
                    "midi": 64,
                    "time": 4.8,
                    "velocity": 0.6299212598425197,
                    "duration": 0.47999999999999954
                },
                {
                    "name": "A4",
                    "midi": 69,
                    "time": 5.3999999999999995,
                    "velocity": 0.6299212598425197,
                    "duration": 0.47999999999999954
                },
                {
                    "name": "F4",
                    "midi": 65,
                    "time": 5.3999999999999995,
                    "velocity": 0.6299212598425197,
                    "duration": 0.47999999999999954
                },
                {
                    "name": "F4",
                    "midi": 65,
                    "time": 6.299999999999999,
                    "velocity": 0.6299212598425197,
                    "duration": 0.2400000000000002
                },
                {
                    "name": "D4",
                    "midi": 62,
                    "time": 6.299999999999999,
                    "velocity": 0.6299212598425197,
                    "duration": 0.2400000000000002
                },
                {
                    "name": "C#4",
                    "midi": 61,
                    "time": 6.599999999999999,
                    "velocity": 0.6299212598425197,
                    "duration": 0.47999999999999954
                },
                {
                    "name": "E4",
                    "midi": 64,
                    "time": 6.599999999999999,
                    "velocity": 0.6299212598425197,
                    "duration": 0.47999999999999954
                },
                {
                    "name": "F4",
                    "midi": 65,
                    "time": 7.199999999999998,
                    "velocity": 0.6299212598425197,
                    "duration": 0.47999999999999954
                },
                {
                    "name": "D4",
                    "midi": 62,
                    "time": 7.199999999999998,
                    "velocity": 0.6299212598425197,
                    "duration": 0.47999999999999954
                },
                {
                    "name": "F4",
                    "midi": 65,
                    "time": 8.099999999999998,
                    "velocity": 0.6299212598425197,
                    "duration": 0.2400000000000002
                },
                {
                    "name": "A4",
                    "midi": 69,
                    "time": 8.399999999999999,
                    "velocity": 0.6299212598425197,
                    "duration": 0.4800000000000004
                },
                {
                    "name": "E4",
                    "midi": 64,
                    "time": 8.399999999999999,
                    "velocity": 0.6299212598425197,
                    "duration": 0.4800000000000004
                },
                {
                    "name": "F4",
                    "midi": 65,
                    "time": 8.999999999999998,
                    "velocity": 0.6299212598425197,
                    "duration": 0.4800000000000004
                },
                {
                    "name": "A4",
                    "midi": 69,
                    "time": 8.999999999999998,
                    "velocity": 0.6299212598425197,
                    "duration": 0.4800000000000004
                },
                {
                    "name": "A4",
                    "midi": 69,
                    "time": 9.899999999999999,
                    "velocity": 0.6299212598425197,
                    "duration": 0.2400000000000002
                },
                {
                    "name": "F4",
                    "midi": 65,
                    "time": 9.899999999999999,
                    "velocity": 0.6299212598425197,
                    "duration": 0.2400000000000002
                },
                {
                    "name": "E4",
                    "midi": 64,
                    "time": 10.2,
                    "velocity": 0.6299212598425197,
                    "duration": 0.4800000000000004
                },
                {
                    "name": "C#4",
                    "midi": 61,
                    "time": 10.2,
                    "velocity": 0.6299212598425197,
                    "duration": 0.4800000000000004
                },
                {
                    "name": "F4",
                    "midi": 65,
                    "time": 10.799999999999999,
                    "velocity": 0.6299212598425197,
                    "duration": 0.4800000000000004
                },
                {
                    "name": "D4",
                    "midi": 62,
                    "time": 10.799999999999999,
                    "velocity": 0.6299212598425197,
                    "duration": 0.4800000000000004
                },
                {
                    "name": "F4",
                    "midi": 65,
                    "time": 11.7,
                    "velocity": 0.6299212598425197,
                    "duration": 0.2400000000000002
                },
                {
                    "name": "G4",
                    "midi": 67,
                    "time": 12,
                    "velocity": 0.6299212598425197,
                    "duration": 0.4800000000000004
                },
                {
                    "name": "D4",
                    "midi": 62,
                    "time": 12,
                    "velocity": 0.6299212598425197,
                    "duration": 0.4800000000000004
                },
                {
                    "name": "E4",
                    "midi": 64,
                    "time": 12.6,
                    "velocity": 0.6299212598425197,
                    "duration": 0.4800000000000004
                },
                {
                    "name": "E4",
                    "midi": 64,
                    "time": 13.5,
                    "velocity": 0.6299212598425197,
                    "duration": 0.2400000000000002
                },
                {
                    "name": "F4",
                    "midi": 65,
                    "time": 13.8,
                    "velocity": 0.6299212598425197,
                    "duration": 0.4800000000000004
                },
                {
                    "name": "C4",
                    "midi": 60,
                    "time": 13.8,
                    "velocity": 0.6299212598425197,
                    "duration": 0.4800000000000004
                },
                {
                    "name": "D4",
                    "midi": 62,
                    "time": 14.4,
                    "velocity": 0.6299212598425197,
                    "duration": 0.4800000000000004
                },
                {
                    "name": "D4",
                    "midi": 62,
                    "time": 15.3,
                    "velocity": 0.6299212598425197,
                    "duration": 0.2400000000000002
                },
                {
                    "name": "A#4",
                    "midi": 70,
                    "time": 15.3,
                    "velocity": 0.6299212598425197,
                    "duration": 0.2400000000000002
                },
                {
                    "name": "G4",
                    "midi": 67,
                    "time": 15.600000000000001,
                    "velocity": 0.6299212598425197,
                    "duration": 0.4800000000000004
                },
                {
                    "name": "E4",
                    "midi": 64,
                    "time": 15.600000000000001,
                    "velocity": 0.6299212598425197,
                    "duration": 0.4800000000000004
                },
                {
                    "name": "A4",
                    "midi": 69,
                    "time": 16.200000000000003,
                    "velocity": 0.6299212598425197,
                    "duration": 0.4800000000000004
                },
                {
                    "name": "C4",
                    "midi": 60,
                    "time": 16.200000000000003,
                    "velocity": 0.6299212598425197,
                    "duration": 0.4800000000000004
                },
                {
                    "name": "B4",
                    "midi": 71,
                    "time": 17.100000000000005,
                    "velocity": 0.6299212598425197,
                    "duration": 0.23999999999999844
                },
                {
                    "name": "G4",
                    "midi": 67,
                    "time": 17.100000000000005,
                    "velocity": 0.6299212598425197,
                    "duration": 0.23999999999999844
                },
                {
                    "name": "E4",
                    "midi": 64,
                    "time": 17.400000000000002,
                    "velocity": 0.6299212598425197,
                    "duration": 0.4800000000000004
                },
                {
                    "name": "C#5",
                    "midi": 73,
                    "time": 17.400000000000002,
                    "velocity": 0.6299212598425197,
                    "duration": 0.4800000000000004
                },
                {
                    "name": "F4",
                    "midi": 65,
                    "time": 18.000000000000004,
                    "velocity": 0.6299212598425197,
                    "duration": 0.4800000000000004
                },
                {
                    "name": "D5",
                    "midi": 74,
                    "time": 18.000000000000004,
                    "velocity": 0.6299212598425197,
                    "duration": 0.4800000000000004
                },
                {
                    "name": "F4",
                    "midi": 65,
                    "time": 18.900000000000006,
                    "velocity": 0.6299212598425197,
                    "duration": 0.23999999999999844
                },
                {
                    "name": "A4",
                    "midi": 69,
                    "time": 19.200000000000003,
                    "velocity": 0.6299212598425197,
                    "duration": 0.4800000000000004
                },
                {
                    "name": "E4",
                    "midi": 64,
                    "time": 19.200000000000003,
                    "velocity": 0.6299212598425197,
                    "duration": 0.4800000000000004
                },
                {
                    "name": "F4",
                    "midi": 65,
                    "time": 19.800000000000004,
                    "velocity": 0.6299212598425197,
                    "duration": 0.4800000000000004
                },
                {
                    "name": "A4",
                    "midi": 69,
                    "time": 19.800000000000004,
                    "velocity": 0.6299212598425197,
                    "duration": 0.4800000000000004
                },
                {
                    "name": "A#4",
                    "midi": 70,
                    "time": 20.700000000000006,
                    "velocity": 0.6299212598425197,
                    "duration": 0.23999999999999844
                },
                {
                    "name": "A4",
                    "midi": 69,
                    "time": 21.000000000000004,
                    "velocity": 0.6299212598425197,
                    "duration": 0.4800000000000004
                },
                {
                    "name": "E4",
                    "midi": 64,
                    "time": 21.000000000000004,
                    "velocity": 0.6299212598425197,
                    "duration": 0.4800000000000004
                },
                {
                    "name": "F4",
                    "midi": 65,
                    "time": 21.600000000000005,
                    "velocity": 0.6299212598425197,
                    "duration": 0.4800000000000004
                },
                {
                    "name": "D5",
                    "midi": 74,
                    "time": 21.600000000000005,
                    "velocity": 0.6299212598425197,
                    "duration": 0.4800000000000004
                },
                {
                    "name": "F4",
                    "midi": 65,
                    "time": 22.500000000000007,
                    "velocity": 0.6299212598425197,
                    "duration": 0.23999999999999844
                },
                {
                    "name": "A4",
                    "midi": 69,
                    "time": 22.800000000000004,
                    "velocity": 0.6299212598425197,
                    "duration": 0.4800000000000004
                },
                {
                    "name": "E4",
                    "midi": 64,
                    "time": 22.800000000000004,
                    "velocity": 0.6299212598425197,
                    "duration": 0.4800000000000004
                },
                {
                    "name": "F4",
                    "midi": 65,
                    "time": 23.400000000000006,
                    "velocity": 0.6299212598425197,
                    "duration": 0.4800000000000004
                },
                {
                    "name": "A4",
                    "midi": 69,
                    "time": 23.400000000000006,
                    "velocity": 0.6299212598425197,
                    "duration": 0.4800000000000004
                },
                {
                    "name": "A#4",
                    "midi": 70,
                    "time": 24.300000000000008,
                    "velocity": 0.6299212598425197,
                    "duration": 0.23999999999999844
                },
                {
                    "name": "E4",
                    "midi": 64,
                    "time": 24.600000000000005,
                    "velocity": 0.6299212598425197,
                    "duration": 0.4800000000000004
                },
                {
                    "name": "A4",
                    "midi": 69,
                    "time": 24.600000000000005,
                    "velocity": 0.6299212598425197,
                    "duration": 0.4800000000000004
                },
                {
                    "name": "F4",
                    "midi": 65,
                    "time": 25.200000000000006,
                    "velocity": 0.6299212598425197,
                    "duration": 0.4800000000000004
                },
                {
                    "name": "A4",
                    "midi": 69,
                    "time": 25.200000000000006,
                    "velocity": 0.6299212598425197,
                    "duration": 0.4800000000000004
                },
                {
                    "name": "A4",
                    "midi": 69,
                    "time": 26.10000000000001,
                    "velocity": 0.6299212598425197,
                    "duration": 0.23999999999999844
                },
                {
                    "name": "C5",
                    "midi": 72,
                    "time": 26.400000000000006,
                    "velocity": 0.6299212598425197,
                    "duration": 0.4800000000000004
                },
                {
                    "name": "G4",
                    "midi": 67,
                    "time": 26.400000000000006,
                    "velocity": 0.6299212598425197,
                    "duration": 0.4800000000000004
                },
                {
                    "name": "C5",
                    "midi": 72,
                    "time": 27.000000000000007,
                    "velocity": 0.6299212598425197,
                    "duration": 0.4800000000000004
                },
                {
                    "name": "A4",
                    "midi": 69,
                    "time": 27.000000000000007,
                    "velocity": 0.6299212598425197,
                    "duration": 0.4800000000000004
                },
                {
                    "name": "E4",
                    "midi": 64,
                    "time": 27.90000000000001,
                    "velocity": 0.6299212598425197,
                    "duration": 0.23999999999999844
                },
                {
                    "name": "F4",
                    "midi": 65,
                    "time": 28.200000000000006,
                    "velocity": 0.6299212598425197,
                    "duration": 0.4800000000000004
                },
                {
                    "name": "G4",
                    "midi": 67,
                    "time": 28.800000000000008,
                    "velocity": 0.6299212598425197,
                    "duration": 0.4800000000000004
                },
                {
                    "name": "D4",
                    "midi": 62,
                    "time": 28.800000000000008,
                    "velocity": 0.6299212598425197,
                    "duration": 0.4800000000000004
                },
                {
                    "name": "A#4",
                    "midi": 70,
                    "time": 29.70000000000001,
                    "velocity": 0.6299212598425197,
                    "duration": 0.23999999999999844
                },
                {
                    "name": "G4",
                    "midi": 67,
                    "time": 30.000000000000007,
                    "velocity": 0.6299212598425197,
                    "duration": 0.5399999999999956
                },
                {
                    "name": "F4",
                    "midi": 65,
                    "time": 30.000000000000007,
                    "velocity": 0.6299212598425197,
                    "duration": 0.23999999999999844
                },
                {
                    "name": "E4",
                    "midi": 64,
                    "time": 30.300000000000004,
                    "velocity": 0.6299212598425197,
                    "duration": 0.23999999999999844
                },
                {
                    "name": "A4",
                    "midi": 69,
                    "time": 30.6,
                    "velocity": 0.6299212598425197,
                    "duration": 0.4800000000000004
                },
                {
                    "name": "F4",
                    "midi": 65,
                    "time": 30.6,
                    "velocity": 0.6299212598425197,
                    "duration": 0.4800000000000004
                },
                {
                    "name": "D4",
                    "midi": 62,
                    "time": 31.500000000000004,
                    "velocity": 0.6299212598425197,
                    "duration": 0.23999999999999844
                },
                {
                    "name": "F4",
                    "midi": 65,
                    "time": 31.500000000000004,
                    "velocity": 0.6299212598425197,
                    "duration": 0.23999999999999844
                },
                {
                    "name": "E4",
                    "midi": 64,
                    "time": 31.8,
                    "velocity": 0.6299212598425197,
                    "duration": 0.4800000000000004
                },
                {
                    "name": "A4",
                    "midi": 69,
                    "time": 32.4,
                    "velocity": 0.6299212598425197,
                    "duration": 0.240000000000002
                },
                {
                    "name": "C4",
                    "midi": 60,
                    "time": 32.4,
                    "velocity": 0.6299212598425197,
                    "duration": 1.1400000000000148
                },
                {
                    "name": "G4",
                    "midi": 67,
                    "time": 32.7,
                    "velocity": 0.6299212598425197,
                    "duration": 0.240000000000002
                },
                {
                    "name": "A4",
                    "midi": 69,
                    "time": 33.00000000000001,
                    "velocity": 0.6299212598425197,
                    "duration": 0.240000000000002
                },
                {
                    "name": "C5",
                    "midi": 72,
                    "time": 33.30000000000001,
                    "velocity": 0.6299212598425197,
                    "duration": 0.240000000000002
                },
                {
                    "name": "C5",
                    "midi": 72,
                    "time": 33.600000000000016,
                    "velocity": 0.6299212598425197,
                    "duration": 0.4799999999999969
                },
                {
                    "name": "G4",
                    "midi": 67,
                    "time": 33.600000000000016,
                    "velocity": 0.6299212598425197,
                    "duration": 0.4799999999999969
                },
                {
                    "name": "C5",
                    "midi": 72,
                    "time": 34.20000000000001,
                    "velocity": 0.6299212598425197,
                    "duration": 0.4799999999999969
                },
                {
                    "name": "A4",
                    "midi": 69,
                    "time": 34.20000000000001,
                    "velocity": 0.6299212598425197,
                    "duration": 0.4799999999999969
                },
                {
                    "name": "E4",
                    "midi": 64,
                    "time": 35.10000000000001,
                    "velocity": 0.6299212598425197,
                    "duration": 0.240000000000002
                },
                {
                    "name": "F4",
                    "midi": 65,
                    "time": 35.40000000000001,
                    "velocity": 0.6299212598425197,
                    "duration": 0.4799999999999969
                },
                {
                    "name": "G4",
                    "midi": 67,
                    "time": 36.00000000000001,
                    "velocity": 0.6299212598425197,
                    "duration": 0.4799999999999969
                },
                {
                    "name": "D4",
                    "midi": 62,
                    "time": 36.00000000000001,
                    "velocity": 0.6299212598425197,
                    "duration": 0.4799999999999969
                },
                {
                    "name": "A#4",
                    "midi": 70,
                    "time": 36.900000000000006,
                    "velocity": 0.6299212598425197,
                    "duration": 0.240000000000002
                },
                {
                    "name": "G4",
                    "midi": 67,
                    "time": 37.20000000000001,
                    "velocity": 0.6299212598425197,
                    "duration": 0.5400000000000063
                },
                {
                    "name": "F4",
                    "midi": 65,
                    "time": 37.20000000000001,
                    "velocity": 0.6299212598425197,
                    "duration": 0.240000000000002
                },
                {
                    "name": "E4",
                    "midi": 64,
                    "time": 37.500000000000014,
                    "velocity": 0.6299212598425197,
                    "duration": 0.240000000000002
                },
                {
                    "name": "A3",
                    "midi": 57,
                    "time": 37.80000000000002,
                    "velocity": 0.6299212598425197,
                    "duration": 0.4799999999999969
                },
                {
                    "name": "F4",
                    "midi": 65,
                    "time": 37.80000000000002,
                    "velocity": 0.6299212598425197,
                    "duration": 0.4799999999999969
                },
                {
                    "name": "A#4",
                    "midi": 70,
                    "time": 38.70000000000002,
                    "velocity": 0.6299212598425197,
                    "duration": 0.240000000000002
                },
                {
                    "name": "A4",
                    "midi": 69,
                    "time": 39.00000000000002,
                    "velocity": 0.6299212598425197,
                    "duration": 0.060000000000002274
                },
                {
                    "name": "A#4",
                    "midi": 70,
                    "time": 39.075000000000024,
                    "velocity": 0.6299212598425197,
                    "duration": 0.060000000000002274
                },
                {
                    "name": "G4",
                    "midi": 67,
                    "time": 39.15000000000003,
                    "velocity": 0.6299212598425197,
                    "duration": 0.35999999999999943
                },
                {
                    "name": "F4",
                    "midi": 65,
                    "time": 39.60000000000003,
                    "velocity": 0.6299212598425197,
                    "duration": 0.4799999999999969
                },
                {
                    "name": "A4",
                    "midi": 69,
                    "time": 39.60000000000003,
                    "velocity": 0.6299212598425197,
                    "duration": 0.4799999999999969
                },
                {
                    "name": "F4",
                    "midi": 65,
                    "time": 40.50000000000003,
                    "velocity": 0.6299212598425197,
                    "duration": 0.240000000000002
                },
                {
                    "name": "A4",
                    "midi": 69,
                    "time": 40.80000000000003,
                    "velocity": 0.6299212598425197,
                    "duration": 0.4799999999999969
                },
                {
                    "name": "E4",
                    "midi": 64,
                    "time": 40.80000000000003,
                    "velocity": 0.6299212598425197,
                    "duration": 0.4799999999999969
                },
                {
                    "name": "A4",
                    "midi": 69,
                    "time": 41.40000000000003,
                    "velocity": 0.6299212598425197,
                    "duration": 0.4799999999999969
                },
                {
                    "name": "F4",
                    "midi": 65,
                    "time": 41.40000000000003,
                    "velocity": 0.6299212598425197,
                    "duration": 0.4799999999999969
                },
                {
                    "name": "F4",
                    "midi": 65,
                    "time": 42.300000000000026,
                    "velocity": 0.6299212598425197,
                    "duration": 0.240000000000002
                },
                {
                    "name": "D4",
                    "midi": 62,
                    "time": 42.300000000000026,
                    "velocity": 0.6299212598425197,
                    "duration": 0.240000000000002
                },
                {
                    "name": "C#4",
                    "midi": 61,
                    "time": 42.60000000000003,
                    "velocity": 0.6299212598425197,
                    "duration": 0.4799999999999969
                },
                {
                    "name": "E4",
                    "midi": 64,
                    "time": 42.60000000000003,
                    "velocity": 0.6299212598425197,
                    "duration": 0.4799999999999969
                },
                {
                    "name": "F4",
                    "midi": 65,
                    "time": 43.200000000000024,
                    "velocity": 0.6299212598425197,
                    "duration": 0.4799999999999969
                },
                {
                    "name": "D4",
                    "midi": 62,
                    "time": 43.200000000000024,
                    "velocity": 0.6299212598425197,
                    "duration": 0.4799999999999969
                },
                {
                    "name": "F4",
                    "midi": 65,
                    "time": 44.10000000000002,
                    "velocity": 0.6299212598425197,
                    "duration": 0.240000000000002
                },
                {
                    "name": "A4",
                    "midi": 69,
                    "time": 44.40000000000003,
                    "velocity": 0.6299212598425197,
                    "duration": 0.4799999999999969
                },
                {
                    "name": "E4",
                    "midi": 64,
                    "time": 44.40000000000003,
                    "velocity": 0.6299212598425197,
                    "duration": 0.4799999999999969
                },
                {
                    "name": "F4",
                    "midi": 65,
                    "time": 45.00000000000002,
                    "velocity": 0.6299212598425197,
                    "duration": 0.4799999999999969
                },
                {
                    "name": "A4",
                    "midi": 69,
                    "time": 45.00000000000002,
                    "velocity": 0.6299212598425197,
                    "duration": 0.4799999999999969
                },
                {
                    "name": "A4",
                    "midi": 69,
                    "time": 45.90000000000002,
                    "velocity": 0.6299212598425197,
                    "duration": 0.240000000000002
                },
                {
                    "name": "F4",
                    "midi": 65,
                    "time": 45.90000000000002,
                    "velocity": 0.6299212598425197,
                    "duration": 0.240000000000002
                },
                {
                    "name": "E4",
                    "midi": 64,
                    "time": 46.200000000000024,
                    "velocity": 0.6299212598425197,
                    "duration": 0.4799999999999969
                },
                {
                    "name": "C#4",
                    "midi": 61,
                    "time": 46.200000000000024,
                    "velocity": 0.6299212598425197,
                    "duration": 0.4799999999999969
                },
                {
                    "name": "F4",
                    "midi": 65,
                    "time": 46.80000000000002,
                    "velocity": 0.6299212598425197,
                    "duration": 0.4799999999999969
                },
                {
                    "name": "D4",
                    "midi": 62,
                    "time": 46.80000000000002,
                    "velocity": 0.6299212598425197,
                    "duration": 0.4799999999999969
                },
                {
                    "name": "F4",
                    "midi": 65,
                    "time": 47.70000000000002,
                    "velocity": 0.6299212598425197,
                    "duration": 0.240000000000002
                },
                {
                    "name": "G4",
                    "midi": 67,
                    "time": 48.00000000000002,
                    "velocity": 0.6299212598425197,
                    "duration": 0.4799999999999969
                },
                {
                    "name": "D4",
                    "midi": 62,
                    "time": 48.00000000000002,
                    "velocity": 0.6299212598425197,
                    "duration": 0.4799999999999969
                },
                {
                    "name": "E4",
                    "midi": 64,
                    "time": 48.600000000000016,
                    "velocity": 0.6299212598425197,
                    "duration": 0.4799999999999969
                },
                {
                    "name": "E4",
                    "midi": 64,
                    "time": 49.500000000000014,
                    "velocity": 0.6299212598425197,
                    "duration": 0.240000000000002
                },
                {
                    "name": "F4",
                    "midi": 65,
                    "time": 49.80000000000002,
                    "velocity": 0.6299212598425197,
                    "duration": 0.4799999999999969
                },
                {
                    "name": "C4",
                    "midi": 60,
                    "time": 49.80000000000002,
                    "velocity": 0.6299212598425197,
                    "duration": 0.4799999999999969
                },
                {
                    "name": "D4",
                    "midi": 62,
                    "time": 50.40000000000001,
                    "velocity": 0.6299212598425197,
                    "duration": 0.4799999999999969
                },
                {
                    "name": "D4",
                    "midi": 62,
                    "time": 51.30000000000001,
                    "velocity": 0.6299212598425197,
                    "duration": 0.240000000000002
                },
                {
                    "name": "A#4",
                    "midi": 70,
                    "time": 51.30000000000001,
                    "velocity": 0.6299212598425197,
                    "duration": 0.240000000000002
                },
                {
                    "name": "G4",
                    "midi": 67,
                    "time": 51.600000000000016,
                    "velocity": 0.6299212598425197,
                    "duration": 0.4799999999999969
                },
                {
                    "name": "E4",
                    "midi": 64,
                    "time": 51.600000000000016,
                    "velocity": 0.6299212598425197,
                    "duration": 0.4799999999999969
                },
                {
                    "name": "A4",
                    "midi": 69,
                    "time": 52.20000000000001,
                    "velocity": 0.6299212598425197,
                    "duration": 0.4799999999999969
                },
                {
                    "name": "C4",
                    "midi": 60,
                    "time": 52.20000000000001,
                    "velocity": 0.6299212598425197,
                    "duration": 0.4799999999999969
                },
                {
                    "name": "B4",
                    "midi": 71,
                    "time": 53.10000000000001,
                    "velocity": 0.6299212598425197,
                    "duration": 0.240000000000002
                },
                {
                    "name": "G4",
                    "midi": 67,
                    "time": 53.10000000000001,
                    "velocity": 0.6299212598425197,
                    "duration": 0.240000000000002
                },
                {
                    "name": "E4",
                    "midi": 64,
                    "time": 53.40000000000001,
                    "velocity": 0.6299212598425197,
                    "duration": 0.4799999999999969
                },
                {
                    "name": "C#5",
                    "midi": 73,
                    "time": 53.40000000000001,
                    "velocity": 0.6299212598425197,
                    "duration": 0.4799999999999969
                },
                {
                    "name": "F4",
                    "midi": 65,
                    "time": 54.00000000000001,
                    "velocity": 0.6299212598425197,
                    "duration": 0.4799999999999969
                },
                {
                    "name": "D5",
                    "midi": 74,
                    "time": 54.00000000000001,
                    "velocity": 0.6299212598425197,
                    "duration": 0.4799999999999969
                },
                {
                    "name": "F4",
                    "midi": 65,
                    "time": 54.900000000000006,
                    "velocity": 0.6299212598425197,
                    "duration": 0.240000000000002
                },
                {
                    "name": "A4",
                    "midi": 69,
                    "time": 55.20000000000001,
                    "velocity": 0.6299212598425197,
                    "duration": 0.4799999999999969
                },
                {
                    "name": "E4",
                    "midi": 64,
                    "time": 55.20000000000001,
                    "velocity": 0.6299212598425197,
                    "duration": 0.4799999999999969
                },
                {
                    "name": "F4",
                    "midi": 65,
                    "time": 55.800000000000004,
                    "velocity": 0.6299212598425197,
                    "duration": 0.4799999999999969
                },
                {
                    "name": "A4",
                    "midi": 69,
                    "time": 55.800000000000004,
                    "velocity": 0.6299212598425197,
                    "duration": 0.4799999999999969
                },
                {
                    "name": "A#4",
                    "midi": 70,
                    "time": 56.7,
                    "velocity": 0.6299212598425197,
                    "duration": 0.240000000000002
                },
                {
                    "name": "A4",
                    "midi": 69,
                    "time": 57.00000000000001,
                    "velocity": 0.6299212598425197,
                    "duration": 0.4799999999999969
                },
                {
                    "name": "E4",
                    "midi": 64,
                    "time": 57.00000000000001,
                    "velocity": 0.6299212598425197,
                    "duration": 0.4799999999999969
                },
                {
                    "name": "F4",
                    "midi": 65,
                    "time": 57.6,
                    "velocity": 0.6299212598425197,
                    "duration": 0.4799999999999969
                },
                {
                    "name": "D5",
                    "midi": 74,
                    "time": 57.6,
                    "velocity": 0.6299212598425197,
                    "duration": 0.4799999999999969
                },
                {
                    "name": "F4",
                    "midi": 65,
                    "time": 58.5,
                    "velocity": 0.6299212598425197,
                    "duration": 0.240000000000002
                },
                {
                    "name": "A4",
                    "midi": 69,
                    "time": 58.800000000000004,
                    "velocity": 0.6299212598425197,
                    "duration": 0.4799999999999969
                },
                {
                    "name": "E4",
                    "midi": 64,
                    "time": 58.800000000000004,
                    "velocity": 0.6299212598425197,
                    "duration": 0.4799999999999969
                },
                {
                    "name": "F4",
                    "midi": 65,
                    "time": 59.4,
                    "velocity": 0.6299212598425197,
                    "duration": 0.4799999999999969
                },
                {
                    "name": "A4",
                    "midi": 69,
                    "time": 59.4,
                    "velocity": 0.6299212598425197,
                    "duration": 0.4799999999999969
                },
                {
                    "name": "A#4",
                    "midi": 70,
                    "time": 60.3,
                    "velocity": 0.6299212598425197,
                    "duration": 0.240000000000002
                },
                {
                    "name": "E4",
                    "midi": 64,
                    "time": 60.6,
                    "velocity": 0.6299212598425197,
                    "duration": 0.4799999999999969
                },
                {
                    "name": "A4",
                    "midi": 69,
                    "time": 60.6,
                    "velocity": 0.6299212598425197,
                    "duration": 0.4799999999999969
                },
                {
                    "name": "F4",
                    "midi": 65,
                    "time": 61.199999999999996,
                    "velocity": 0.6299212598425197,
                    "duration": 0.4799999999999969
                },
                {
                    "name": "A4",
                    "midi": 69,
                    "time": 61.199999999999996,
                    "velocity": 0.6299212598425197,
                    "duration": 0.4799999999999969
                },
                {
                    "name": "A4",
                    "midi": 69,
                    "time": 62.099999999999994,
                    "velocity": 0.6299212598425197,
                    "duration": 0.240000000000002
                },
                {
                    "name": "C5",
                    "midi": 72,
                    "time": 62.4,
                    "velocity": 0.6299212598425197,
                    "duration": 0.4799999999999969
                },
                {
                    "name": "G4",
                    "midi": 67,
                    "time": 62.4,
                    "velocity": 0.6299212598425197,
                    "duration": 0.4799999999999969
                },
                {
                    "name": "C5",
                    "midi": 72,
                    "time": 62.99999999999999,
                    "velocity": 0.6299212598425197,
                    "duration": 0.4799999999999969
                },
                {
                    "name": "A4",
                    "midi": 69,
                    "time": 62.99999999999999,
                    "velocity": 0.6299212598425197,
                    "duration": 0.4799999999999969
                },
                {
                    "name": "E4",
                    "midi": 64,
                    "time": 63.89999999999999,
                    "velocity": 0.6299212598425197,
                    "duration": 0.23999999999999488
                },
                {
                    "name": "F4",
                    "midi": 65,
                    "time": 64.19999999999999,
                    "velocity": 0.6299212598425197,
                    "duration": 0.480000000000004
                },
                {
                    "name": "G4",
                    "midi": 67,
                    "time": 64.8,
                    "velocity": 0.6299212598425197,
                    "duration": 0.480000000000004
                },
                {
                    "name": "D4",
                    "midi": 62,
                    "time": 64.8,
                    "velocity": 0.6299212598425197,
                    "duration": 0.480000000000004
                },
                {
                    "name": "A#4",
                    "midi": 70,
                    "time": 65.7,
                    "velocity": 0.6299212598425197,
                    "duration": 0.23999999999999488
                },
                {
                    "name": "G4",
                    "midi": 67,
                    "time": 66,
                    "velocity": 0.6299212598425197,
                    "duration": 0.539999999999992
                },
                {
                    "name": "F4",
                    "midi": 65,
                    "time": 66,
                    "velocity": 0.6299212598425197,
                    "duration": 0.23999999999999488
                },
                {
                    "name": "E4",
                    "midi": 64,
                    "time": 66.3,
                    "velocity": 0.6299212598425197,
                    "duration": 0.23999999999999488
                },
                {
                    "name": "A4",
                    "midi": 69,
                    "time": 66.6,
                    "velocity": 0.6299212598425197,
                    "duration": 0.480000000000004
                },
                {
                    "name": "F4",
                    "midi": 65,
                    "time": 66.6,
                    "velocity": 0.6299212598425197,
                    "duration": 0.480000000000004
                },
                {
                    "name": "D4",
                    "midi": 62,
                    "time": 67.5,
                    "velocity": 0.6299212598425197,
                    "duration": 0.23999999999999488
                },
                {
                    "name": "F4",
                    "midi": 65,
                    "time": 67.5,
                    "velocity": 0.6299212598425197,
                    "duration": 0.23999999999999488
                },
                {
                    "name": "E4",
                    "midi": 64,
                    "time": 67.8,
                    "velocity": 0.6299212598425197,
                    "duration": 0.480000000000004
                },
                {
                    "name": "A4",
                    "midi": 69,
                    "time": 68.4,
                    "velocity": 0.6299212598425197,
                    "duration": 0.23999999999999488
                },
                {
                    "name": "C4",
                    "midi": 60,
                    "time": 68.4,
                    "velocity": 0.6299212598425197,
                    "duration": 1.1399999999999864
                },
                {
                    "name": "G4",
                    "midi": 67,
                    "time": 68.7,
                    "velocity": 0.6299212598425197,
                    "duration": 0.23999999999999488
                },
                {
                    "name": "A4",
                    "midi": 69,
                    "time": 69,
                    "velocity": 0.6299212598425197,
                    "duration": 0.23999999999999488
                },
                {
                    "name": "C5",
                    "midi": 72,
                    "time": 69.3,
                    "velocity": 0.6299212598425197,
                    "duration": 0.23999999999999488
                },
                {
                    "name": "C5",
                    "midi": 72,
                    "time": 69.6,
                    "velocity": 0.6299212598425197,
                    "duration": 0.480000000000004
                },
                {
                    "name": "G4",
                    "midi": 67,
                    "time": 69.6,
                    "velocity": 0.6299212598425197,
                    "duration": 0.480000000000004
                },
                {
                    "name": "C5",
                    "midi": 72,
                    "time": 70.2,
                    "velocity": 0.6299212598425197,
                    "duration": 0.480000000000004
                },
                {
                    "name": "A4",
                    "midi": 69,
                    "time": 70.2,
                    "velocity": 0.6299212598425197,
                    "duration": 0.480000000000004
                },
                {
                    "name": "E4",
                    "midi": 64,
                    "time": 71.10000000000001,
                    "velocity": 0.6299212598425197,
                    "duration": 0.23999999999999488
                },
                {
                    "name": "F4",
                    "midi": 65,
                    "time": 71.4,
                    "velocity": 0.6299212598425197,
                    "duration": 0.480000000000004
                },
                {
                    "name": "G4",
                    "midi": 67,
                    "time": 72.00000000000001,
                    "velocity": 0.6299212598425197,
                    "duration": 0.480000000000004
                },
                {
                    "name": "D4",
                    "midi": 62,
                    "time": 72.00000000000001,
                    "velocity": 0.6299212598425197,
                    "duration": 0.480000000000004
                },
                {
                    "name": "A#4",
                    "midi": 70,
                    "time": 72.90000000000002,
                    "velocity": 0.6299212598425197,
                    "duration": 0.23999999999999488
                },
                {
                    "name": "G4",
                    "midi": 67,
                    "time": 73.20000000000002,
                    "velocity": 0.6299212598425197,
                    "duration": 0.539999999999992
                },
                {
                    "name": "F4",
                    "midi": 65,
                    "time": 73.20000000000002,
                    "velocity": 0.6299212598425197,
                    "duration": 0.23999999999999488
                },
                {
                    "name": "E4",
                    "midi": 64,
                    "time": 73.50000000000001,
                    "velocity": 0.6299212598425197,
                    "duration": 0.23999999999999488
                },
                {
                    "name": "A3",
                    "midi": 57,
                    "time": 73.80000000000001,
                    "velocity": 0.6299212598425197,
                    "duration": 0.480000000000004
                },
                {
                    "name": "F4",
                    "midi": 65,
                    "time": 73.80000000000001,
                    "velocity": 0.6299212598425197,
                    "duration": 0.480000000000004
                },
                {
                    "name": "A4",
                    "midi": 69,
                    "time": 74.70000000000002,
                    "velocity": 0.6299212598425197,
                    "duration": 0.23999999999999488
                },
                {
                    "name": "G4",
                    "midi": 67,
                    "time": 75.00000000000001,
                    "velocity": 0.6299212598425197,
                    "duration": 0.23999999999999488
                },
                {
                    "name": "C5",
                    "midi": 72,
                    "time": 75.00000000000001,
                    "velocity": 0.6299212598425197,
                    "duration": 0.539999999999992
                },
                {
                    "name": "E4",
                    "midi": 64,
                    "time": 75.30000000000001,
                    "velocity": 0.6299212598425197,
                    "duration": 0.23999999999999488
                },
                {
                    "name": "A4",
                    "midi": 69,
                    "time": 75.60000000000001,
                    "velocity": 0.6299212598425197,
                    "duration": 0.480000000000004
                },
                {
                    "name": "C5",
                    "midi": 72,
                    "time": 75.60000000000001,
                    "velocity": 0.6299212598425197,
                    "duration": 0.480000000000004
                },
                {
                    "name": "D4",
                    "midi": 62,
                    "time": 76.50000000000001,
                    "velocity": 0.6299212598425197,
                    "duration": 0.23999999999999488
                },
                {
                    "name": "E4",
                    "midi": 64,
                    "time": 76.80000000000001,
                    "velocity": 0.6299212598425197,
                    "duration": 0.23999999999999488
                },
                {
                    "name": "G4",
                    "midi": 67,
                    "time": 77.10000000000001,
                    "velocity": 0.6299212598425197,
                    "duration": 0.23999999999999488
                },
                {
                    "name": "A4",
                    "midi": 69,
                    "time": 77.4,
                    "velocity": 0.6299212598425197,
                    "duration": 0.480000000000004
                },
                {
                    "name": "C4",
                    "midi": 60,
                    "time": 77.4,
                    "velocity": 0.6299212598425197,
                    "duration": 0.480000000000004
                },
                {
                    "name": "D4",
                    "midi": 62,
                    "time": 78.30000000000001,
                    "velocity": 0.6299212598425197,
                    "duration": 0.23999999999999488
                },
                {
                    "name": "C4",
                    "midi": 60,
                    "time": 78.60000000000001,
                    "velocity": 0.6299212598425197,
                    "duration": 0.23999999999999488
                },
                {
                    "name": "E4",
                    "midi": 64,
                    "time": 78.9,
                    "velocity": 0.6299212598425197,
                    "duration": 0.23999999999999488
                },
                {
                    "name": "D4",
                    "midi": 62,
                    "time": 79.2,
                    "velocity": 0.6299212598425197,
                    "duration": 0.480000000000004
                },
                {
                    "name": "C4",
                    "midi": 60,
                    "time": 80.10000000000001,
                    "velocity": 0.6299212598425197,
                    "duration": 0.23999999999999488
                },
                {
                    "name": "B3",
                    "midi": 59,
                    "time": 80.4,
                    "velocity": 0.6299212598425197,
                    "duration": 0.480000000000004
                },
                {
                    "name": "C4",
                    "midi": 60,
                    "time": 81.00000000000001,
                    "velocity": 0.6299212598425197,
                    "duration": 0.480000000000004
                },
                {
                    "name": "E4",
                    "midi": 64,
                    "time": 81.90000000000002,
                    "velocity": 0.6299212598425197,
                    "duration": 0.23999999999999488
                },
                {
                    "name": "G4",
                    "midi": 67,
                    "time": 82.20000000000002,
                    "velocity": 0.6299212598425197,
                    "duration": 0.480000000000004
                },
                {
                    "name": "D4",
                    "midi": 62,
                    "time": 82.20000000000002,
                    "velocity": 0.6299212598425197,
                    "duration": 0.480000000000004
                },
                {
                    "name": "G4",
                    "midi": 67,
                    "time": 82.80000000000003,
                    "velocity": 0.6299212598425197,
                    "duration": 0.480000000000004
                },
                {
                    "name": "E4",
                    "midi": 64,
                    "time": 82.80000000000003,
                    "velocity": 0.6299212598425197,
                    "duration": 0.480000000000004
                },
                {
                    "name": "C4",
                    "midi": 60,
                    "time": 83.70000000000003,
                    "velocity": 0.6299212598425197,
                    "duration": 0.23999999999999488
                },
                {
                    "name": "B3",
                    "midi": 59,
                    "time": 84.00000000000003,
                    "velocity": 0.6299212598425197,
                    "duration": 0.12000000000000455
                },
                {
                    "name": "D4",
                    "midi": 62,
                    "time": 84.15000000000003,
                    "velocity": 0.6299212598425197,
                    "duration": 0.35999999999999943
                },
                {
                    "name": "C4",
                    "midi": 60,
                    "time": 84.60000000000004,
                    "velocity": 0.6299212598425197,
                    "duration": 0.480000000000004
                },
                {
                    "name": "E4",
                    "midi": 64,
                    "time": 84.60000000000004,
                    "velocity": 0.6299212598425197,
                    "duration": 0.480000000000004
                },
                {
                    "name": "E4",
                    "midi": 64,
                    "time": 85.50000000000004,
                    "velocity": 0.6299212598425197,
                    "duration": 0.23999999999999488
                },
                {
                    "name": "G4",
                    "midi": 67,
                    "time": 85.80000000000004,
                    "velocity": 0.6299212598425197,
                    "duration": 0.480000000000004
                },
                {
                    "name": "D4",
                    "midi": 62,
                    "time": 85.80000000000004,
                    "velocity": 0.6299212598425197,
                    "duration": 0.480000000000004
                },
                {
                    "name": "E4",
                    "midi": 64,
                    "time": 86.40000000000005,
                    "velocity": 0.6299212598425197,
                    "duration": 0.480000000000004
                },
                {
                    "name": "A4",
                    "midi": 69,
                    "time": 86.40000000000005,
                    "velocity": 0.6299212598425197,
                    "duration": 0.480000000000004
                },
                {
                    "name": "G4",
                    "midi": 67,
                    "time": 87.30000000000005,
                    "velocity": 0.6299212598425197,
                    "duration": 0.23999999999999488
                },
                {
                    "name": "F#4",
                    "midi": 66,
                    "time": 87.60000000000005,
                    "velocity": 0.6299212598425197,
                    "duration": 0.12000000000000455
                },
                {
                    "name": "A4",
                    "midi": 69,
                    "time": 87.75000000000006,
                    "velocity": 0.6299212598425197,
                    "duration": 0.35999999999999943
                },
                {
                    "name": "A#4",
                    "midi": 70,
                    "time": 88.20000000000006,
                    "velocity": 0.6299212598425197,
                    "duration": 0.480000000000004
                },
                {
                    "name": "G4",
                    "midi": 67,
                    "time": 88.20000000000006,
                    "velocity": 0.6299212598425197,
                    "duration": 0.480000000000004
                },
                {
                    "name": "D4",
                    "midi": 62,
                    "time": 88.20000000000006,
                    "velocity": 0.6299212598425197,
                    "duration": 0.480000000000004
                },
                {
                    "name": "F#4",
                    "midi": 66,
                    "time": 89.10000000000007,
                    "velocity": 0.6299212598425197,
                    "duration": 0.23999999999999488
                },
                {
                    "name": "D4",
                    "midi": 62,
                    "time": 89.40000000000006,
                    "velocity": 0.6299212598425197,
                    "duration": 0.480000000000004
                },
                {
                    "name": "G4",
                    "midi": 67,
                    "time": 89.40000000000006,
                    "velocity": 0.6299212598425197,
                    "duration": 0.480000000000004
                },
                {
                    "name": "E4",
                    "midi": 64,
                    "time": 90.00000000000007,
                    "velocity": 0.6299212598425197,
                    "duration": 0.480000000000004
                },
                {
                    "name": "E4",
                    "midi": 64,
                    "time": 90.90000000000008,
                    "velocity": 0.6299212598425197,
                    "duration": 0.23999999999999488
                },
                {
                    "name": "F4",
                    "midi": 65,
                    "time": 91.20000000000007,
                    "velocity": 0.6299212598425197,
                    "duration": 0.12000000000000455
                },
                {
                    "name": "A4",
                    "midi": 69,
                    "time": 91.35000000000008,
                    "velocity": 0.6299212598425197,
                    "duration": 0.35999999999999943
                },
                {
                    "name": "D4",
                    "midi": 62,
                    "time": 91.80000000000008,
                    "velocity": 0.6299212598425197,
                    "duration": 0.480000000000004
                },
                {
                    "name": "D4",
                    "midi": 62,
                    "time": 92.70000000000009,
                    "velocity": 0.6299212598425197,
                    "duration": 0.23999999999999488
                },
                {
                    "name": "E4",
                    "midi": 64,
                    "time": 93.00000000000009,
                    "velocity": 0.6299212598425197,
                    "duration": 0.12000000000000455
                },
                {
                    "name": "G4",
                    "midi": 67,
                    "time": 93.15000000000009,
                    "velocity": 0.6299212598425197,
                    "duration": 0.35999999999999943
                },
                {
                    "name": "E4",
                    "midi": 64,
                    "time": 93.6000000000001,
                    "velocity": 0.6299212598425197,
                    "duration": 0.480000000000004
                },
                {
                    "name": "C#4",
                    "midi": 61,
                    "time": 93.6000000000001,
                    "velocity": 0.6299212598425197,
                    "duration": 0.480000000000004
                },
                {
                    "name": "C#4",
                    "midi": 61,
                    "time": 94.5000000000001,
                    "velocity": 0.6299212598425197,
                    "duration": 0.480000000000004
                },
                {
                    "name": "A3",
                    "midi": 57,
                    "time": 95.4000000000001,
                    "velocity": 0.6299212598425197,
                    "duration": 0.480000000000004
                },
                {
                    "name": "D4",
                    "midi": 62,
                    "time": 95.4000000000001,
                    "velocity": 0.6299212598425197,
                    "duration": 0.480000000000004
                },
                {
                    "name": "F4",
                    "midi": 65,
                    "time": 96.60000000000011,
                    "velocity": 0.6299212598425197,
                    "duration": 0.480000000000004
                },
                {
                    "name": "G4",
                    "midi": 67,
                    "time": 97.20000000000012,
                    "velocity": 0.6299212598425197,
                    "duration": 0.480000000000004
                },
                {
                    "name": "D4",
                    "midi": 62,
                    "time": 97.20000000000012,
                    "velocity": 0.6299212598425197,
                    "duration": 0.480000000000004
                },
                {
                    "name": "E4",
                    "midi": 64,
                    "time": 98.40000000000012,
                    "velocity": 0.6299212598425197,
                    "duration": 0.480000000000004
                },
                {
                    "name": "F4",
                    "midi": 65,
                    "time": 99.00000000000013,
                    "velocity": 0.6299212598425197,
                    "duration": 0.480000000000004
                },
                {
                    "name": "C4",
                    "midi": 60,
                    "time": 99.00000000000013,
                    "velocity": 0.6299212598425197,
                    "duration": 0.480000000000004
                },
                {
                    "name": "G4",
                    "midi": 67,
                    "time": 99.90000000000013,
                    "velocity": 0.6299212598425197,
                    "duration": 0.23999999999999488
                },
                {
                    "name": "A4",
                    "midi": 69,
                    "time": 100.20000000000013,
                    "velocity": 0.6299212598425197,
                    "duration": 0.23999999999999488
                },
                {
                    "name": "F4",
                    "midi": 65,
                    "time": 100.50000000000013,
                    "velocity": 0.6299212598425197,
                    "duration": 0.23999999999999488
                },
                {
                    "name": "A#4",
                    "midi": 70,
                    "time": 100.80000000000013,
                    "velocity": 0.6299212598425197,
                    "duration": 0.480000000000004
                },
                {
                    "name": "A4",
                    "midi": 69,
                    "time": 101.70000000000013,
                    "velocity": 0.6299212598425197,
                    "duration": 0.23999999999999488
                },
                {
                    "name": "G4",
                    "midi": 67,
                    "time": 102.00000000000013,
                    "velocity": 0.6299212598425197,
                    "duration": 0.23999999999999488
                },
                {
                    "name": "F4",
                    "midi": 65,
                    "time": 102.30000000000013,
                    "velocity": 0.6299212598425197,
                    "duration": 0.23999999999999488
                },
                {
                    "name": "E4",
                    "midi": 64,
                    "time": 102.60000000000012,
                    "velocity": 0.6299212598425197,
                    "duration": 0.480000000000004
                },
                {
                    "name": "D4",
                    "midi": 62,
                    "time": 102.60000000000012,
                    "velocity": 0.6299212598425197,
                    "duration": 0.480000000000004
                },
                {
                    "name": "F4",
                    "midi": 65,
                    "time": 103.50000000000013,
                    "velocity": 0.6299212598425197,
                    "duration": 0.23999999999999488
                },
                {
                    "name": "D4",
                    "midi": 62,
                    "time": 103.50000000000013,
                    "velocity": 0.6299212598425197,
                    "duration": 0.23999999999999488
                },
                {
                    "name": "F4",
                    "midi": 65,
                    "time": 104.40000000000012,
                    "velocity": 0.6299212598425197,
                    "duration": 0.480000000000004
                },
                {
                    "name": "A3",
                    "midi": 57,
                    "time": 104.40000000000012,
                    "velocity": 0.6299212598425197,
                    "duration": 0.480000000000004
                },
                {
                    "name": "A4",
                    "midi": 69,
                    "time": 105.30000000000013,
                    "velocity": 0.6299212598425197,
                    "duration": 0.23999999999999488
                },
                {
                    "name": "G4",
                    "midi": 67,
                    "time": 105.60000000000012,
                    "velocity": 0.6299212598425197,
                    "duration": 0.12000000000000455
                },
                {
                    "name": "F4",
                    "midi": 65,
                    "time": 105.75000000000013,
                    "velocity": 0.6299212598425197,
                    "duration": 0.12000000000000455
                },
                {
                    "name": "E4",
                    "midi": 64,
                    "time": 105.90000000000013,
                    "velocity": 0.6299212598425197,
                    "duration": 0.23999999999999488
                },
                {
                    "name": "A4",
                    "midi": 69,
                    "time": 106.20000000000013,
                    "velocity": 0.6299212598425197,
                    "duration": 0.480000000000004
                },
                {
                    "name": "C5",
                    "midi": 72,
                    "time": 106.20000000000013,
                    "velocity": 0.6299212598425197,
                    "duration": 0.480000000000004
                },
                {
                    "name": "D4",
                    "midi": 62,
                    "time": 107.10000000000014,
                    "velocity": 0.6299212598425197,
                    "duration": 0.23999999999999488
                },
                {
                    "name": "E4",
                    "midi": 64,
                    "time": 107.40000000000013,
                    "velocity": 0.6299212598425197,
                    "duration": 0.23999999999999488
                },
                {
                    "name": "G4",
                    "midi": 67,
                    "time": 107.70000000000013,
                    "velocity": 0.6299212598425197,
                    "duration": 0.23999999999999488
                },
                {
                    "name": "A4",
                    "midi": 69,
                    "time": 108.00000000000013,
                    "velocity": 0.6299212598425197,
                    "duration": 0.480000000000004
                },
                {
                    "name": "C4",
                    "midi": 60,
                    "time": 108.00000000000013,
                    "velocity": 0.6299212598425197,
                    "duration": 0.480000000000004
                },
                {
                    "name": "D4",
                    "midi": 62,
                    "time": 108.90000000000013,
                    "velocity": 0.6299212598425197,
                    "duration": 0.23999999999999488
                },
                {
                    "name": "C4",
                    "midi": 60,
                    "time": 109.20000000000013,
                    "velocity": 0.6299212598425197,
                    "duration": 0.23999999999999488
                },
                {
                    "name": "E4",
                    "midi": 64,
                    "time": 109.50000000000013,
                    "velocity": 0.6299212598425197,
                    "duration": 0.23999999999999488
                },
                {
                    "name": "D4",
                    "midi": 62,
                    "time": 109.80000000000013,
                    "velocity": 0.6299212598425197,
                    "duration": 0.480000000000004
                },
                {
                    "name": "C4",
                    "midi": 60,
                    "time": 110.70000000000013,
                    "velocity": 0.6299212598425197,
                    "duration": 0.23999999999999488
                },
                {
                    "name": "B3",
                    "midi": 59,
                    "time": 111.00000000000013,
                    "velocity": 0.6299212598425197,
                    "duration": 0.480000000000004
                },
                {
                    "name": "C4",
                    "midi": 60,
                    "time": 111.60000000000014,
                    "velocity": 0.6299212598425197,
                    "duration": 0.480000000000004
                },
                {
                    "name": "E4",
                    "midi": 64,
                    "time": 112.50000000000014,
                    "velocity": 0.6299212598425197,
                    "duration": 0.23999999999999488
                },
                {
                    "name": "G4",
                    "midi": 67,
                    "time": 112.80000000000014,
                    "velocity": 0.6299212598425197,
                    "duration": 0.480000000000004
                },
                {
                    "name": "D4",
                    "midi": 62,
                    "time": 112.80000000000014,
                    "velocity": 0.6299212598425197,
                    "duration": 0.480000000000004
                },
                {
                    "name": "G4",
                    "midi": 67,
                    "time": 113.40000000000015,
                    "velocity": 0.6299212598425197,
                    "duration": 0.480000000000004
                },
                {
                    "name": "E4",
                    "midi": 64,
                    "time": 113.40000000000015,
                    "velocity": 0.6299212598425197,
                    "duration": 0.480000000000004
                },
                {
                    "name": "C4",
                    "midi": 60,
                    "time": 114.30000000000015,
                    "velocity": 0.6299212598425197,
                    "duration": 0.23999999999999488
                },
                {
                    "name": "B3",
                    "midi": 59,
                    "time": 114.60000000000015,
                    "velocity": 0.6299212598425197,
                    "duration": 0.12000000000000455
                },
                {
                    "name": "D4",
                    "midi": 62,
                    "time": 114.75000000000016,
                    "velocity": 0.6299212598425197,
                    "duration": 0.35999999999999943
                },
                {
                    "name": "C4",
                    "midi": 60,
                    "time": 115.20000000000016,
                    "velocity": 0.6299212598425197,
                    "duration": 0.480000000000004
                },
                {
                    "name": "E4",
                    "midi": 64,
                    "time": 115.20000000000016,
                    "velocity": 0.6299212598425197,
                    "duration": 0.480000000000004
                },
                {
                    "name": "E4",
                    "midi": 64,
                    "time": 116.10000000000016,
                    "velocity": 0.6299212598425197,
                    "duration": 0.23999999999999488
                },
                {
                    "name": "G4",
                    "midi": 67,
                    "time": 116.40000000000016,
                    "velocity": 0.6299212598425197,
                    "duration": 0.480000000000004
                },
                {
                    "name": "D4",
                    "midi": 62,
                    "time": 116.40000000000016,
                    "velocity": 0.6299212598425197,
                    "duration": 0.480000000000004
                },
                {
                    "name": "E4",
                    "midi": 64,
                    "time": 117.00000000000017,
                    "velocity": 0.6299212598425197,
                    "duration": 0.480000000000004
                },
                {
                    "name": "A4",
                    "midi": 69,
                    "time": 117.00000000000017,
                    "velocity": 0.6299212598425197,
                    "duration": 0.480000000000004
                },
                {
                    "name": "G4",
                    "midi": 67,
                    "time": 117.90000000000018,
                    "velocity": 0.6299212598425197,
                    "duration": 0.23999999999999488
                },
                {
                    "name": "F#4",
                    "midi": 66,
                    "time": 118.20000000000017,
                    "velocity": 0.6299212598425197,
                    "duration": 0.12000000000000455
                },
                {
                    "name": "A4",
                    "midi": 69,
                    "time": 118.35000000000018,
                    "velocity": 0.6299212598425197,
                    "duration": 0.35999999999999943
                },
                {
                    "name": "A#4",
                    "midi": 70,
                    "time": 118.80000000000018,
                    "velocity": 0.6299212598425197,
                    "duration": 0.480000000000004
                },
                {
                    "name": "G4",
                    "midi": 67,
                    "time": 118.80000000000018,
                    "velocity": 0.6299212598425197,
                    "duration": 0.480000000000004
                },
                {
                    "name": "D4",
                    "midi": 62,
                    "time": 118.80000000000018,
                    "velocity": 0.6299212598425197,
                    "duration": 0.480000000000004
                },
                {
                    "name": "F#4",
                    "midi": 66,
                    "time": 119.70000000000019,
                    "velocity": 0.6299212598425197,
                    "duration": 0.23999999999999488
                },
                {
                    "name": "D4",
                    "midi": 62,
                    "time": 120.00000000000018,
                    "velocity": 0.6299212598425197,
                    "duration": 0.480000000000004
                },
                {
                    "name": "G4",
                    "midi": 67,
                    "time": 120.00000000000018,
                    "velocity": 0.6299212598425197,
                    "duration": 0.480000000000004
                },
                {
                    "name": "E4",
                    "midi": 64,
                    "time": 120.6000000000002,
                    "velocity": 0.6299212598425197,
                    "duration": 0.480000000000004
                },
                {
                    "name": "E4",
                    "midi": 64,
                    "time": 121.5000000000002,
                    "velocity": 0.6299212598425197,
                    "duration": 0.23999999999999488
                },
                {
                    "name": "F4",
                    "midi": 65,
                    "time": 121.8000000000002,
                    "velocity": 0.6299212598425197,
                    "duration": 0.12000000000000455
                },
                {
                    "name": "A4",
                    "midi": 69,
                    "time": 121.9500000000002,
                    "velocity": 0.6299212598425197,
                    "duration": 0.35999999999999943
                },
                {
                    "name": "D4",
                    "midi": 62,
                    "time": 122.4000000000002,
                    "velocity": 0.6299212598425197,
                    "duration": 0.480000000000004
                },
                {
                    "name": "D4",
                    "midi": 62,
                    "time": 123.30000000000021,
                    "velocity": 0.6299212598425197,
                    "duration": 0.23999999999999488
                },
                {
                    "name": "E4",
                    "midi": 64,
                    "time": 123.60000000000021,
                    "velocity": 0.6299212598425197,
                    "duration": 0.12000000000000455
                },
                {
                    "name": "G4",
                    "midi": 67,
                    "time": 123.75000000000021,
                    "velocity": 0.6299212598425197,
                    "duration": 0.35999999999999943
                },
                {
                    "name": "E4",
                    "midi": 64,
                    "time": 124.20000000000022,
                    "velocity": 0.6299212598425197,
                    "duration": 0.480000000000004
                },
                {
                    "name": "C#4",
                    "midi": 61,
                    "time": 124.20000000000022,
                    "velocity": 0.6299212598425197,
                    "duration": 0.480000000000004
                },
                {
                    "name": "C#4",
                    "midi": 61,
                    "time": 125.10000000000022,
                    "velocity": 0.6299212598425197,
                    "duration": 0.480000000000004
                },
                {
                    "name": "A3",
                    "midi": 57,
                    "time": 126.00000000000023,
                    "velocity": 0.6299212598425197,
                    "duration": 0.480000000000004
                },
                {
                    "name": "D4",
                    "midi": 62,
                    "time": 126.00000000000023,
                    "velocity": 0.6299212598425197,
                    "duration": 0.480000000000004
                },
                {
                    "name": "F4",
                    "midi": 65,
                    "time": 127.20000000000023,
                    "velocity": 0.6299212598425197,
                    "duration": 0.480000000000004
                },
                {
                    "name": "G4",
                    "midi": 67,
                    "time": 127.80000000000024,
                    "velocity": 0.6299212598425197,
                    "duration": 0.47999999999998977
                },
                {
                    "name": "D4",
                    "midi": 62,
                    "time": 127.80000000000024,
                    "velocity": 0.6299212598425197,
                    "duration": 0.47999999999998977
                },
                {
                    "name": "E4",
                    "midi": 64,
                    "time": 129.00000000000023,
                    "velocity": 0.6299212598425197,
                    "duration": 0.47999999999998977
                },
                {
                    "name": "F4",
                    "midi": 65,
                    "time": 129.60000000000022,
                    "velocity": 0.6299212598425197,
                    "duration": 0.47999999999998977
                },
                {
                    "name": "C4",
                    "midi": 60,
                    "time": 129.60000000000022,
                    "velocity": 0.6299212598425197,
                    "duration": 0.47999999999998977
                },
                {
                    "name": "G4",
                    "midi": 67,
                    "time": 130.5000000000002,
                    "velocity": 0.6299212598425197,
                    "duration": 0.2400000000000091
                },
                {
                    "name": "A4",
                    "midi": 69,
                    "time": 130.8000000000002,
                    "velocity": 0.6299212598425197,
                    "duration": 0.2400000000000091
                },
                {
                    "name": "F4",
                    "midi": 65,
                    "time": 131.10000000000022,
                    "velocity": 0.6299212598425197,
                    "duration": 0.2400000000000091
                },
                {
                    "name": "A#4",
                    "midi": 70,
                    "time": 131.40000000000023,
                    "velocity": 0.6299212598425197,
                    "duration": 0.47999999999998977
                },
                {
                    "name": "A4",
                    "midi": 69,
                    "time": 132.3000000000002,
                    "velocity": 0.6299212598425197,
                    "duration": 0.2400000000000091
                },
                {
                    "name": "G4",
                    "midi": 67,
                    "time": 132.60000000000022,
                    "velocity": 0.6299212598425197,
                    "duration": 0.2400000000000091
                },
                {
                    "name": "F4",
                    "midi": 65,
                    "time": 132.90000000000023,
                    "velocity": 0.6299212598425197,
                    "duration": 0.2400000000000091
                },
                {
                    "name": "E4",
                    "midi": 64,
                    "time": 133.20000000000024,
                    "velocity": 0.6299212598425197,
                    "duration": 0.47999999999998977
                },
                {
                    "name": "D4",
                    "midi": 62,
                    "time": 133.20000000000024,
                    "velocity": 0.6299212598425197,
                    "duration": 0.47999999999998977
                },
                {
                    "name": "F4",
                    "midi": 65,
                    "time": 134.10000000000022,
                    "velocity": 0.6299212598425197,
                    "duration": 0.2400000000000091
                },
                {
                    "name": "D4",
                    "midi": 62,
                    "time": 134.10000000000022,
                    "velocity": 0.6299212598425197,
                    "duration": 0.2400000000000091
                },
                {
                    "name": "F4",
                    "midi": 65,
                    "time": 135.00000000000023,
                    "velocity": 0.6299212598425197,
                    "duration": 0.47999999999998977
                },
                {
                    "name": "A3",
                    "midi": 57,
                    "time": 135.00000000000023,
                    "velocity": 0.6299212598425197,
                    "duration": 0.47999999999998977
                },
                {
                    "name": "F4",
                    "midi": 65,
                    "time": 135.9000000000002,
                    "velocity": 0.6299212598425197,
                    "duration": 0.2400000000000091
                },
                {
                    "name": "E4",
                    "midi": 64,
                    "time": 136.20000000000022,
                    "velocity": 0.6299212598425197,
                    "duration": 0.47999999999998977
                },
                {
                    "name": "A4",
                    "midi": 69,
                    "time": 136.20000000000022,
                    "velocity": 0.6299212598425197,
                    "duration": 0.47999999999998977
                },
                {
                    "name": "A4",
                    "midi": 69,
                    "time": 136.8000000000002,
                    "velocity": 0.6299212598425197,
                    "duration": 0.47999999999998977
                },
                {
                    "name": "F4",
                    "midi": 65,
                    "time": 136.8000000000002,
                    "velocity": 0.6299212598425197,
                    "duration": 0.47999999999998977
                },
                {
                    "name": "E4",
                    "midi": 64,
                    "time": 138.0000000000002,
                    "velocity": 0.6299212598425197,
                    "duration": 0.47999999999998977
                },
                {
                    "name": "C#4",
                    "midi": 61,
                    "time": 138.0000000000002,
                    "velocity": 0.6299212598425197,
                    "duration": 0.47999999999998977
                },
                {
                    "name": "D4",
                    "midi": 62,
                    "time": 138.6000000000002,
                    "velocity": 0.6299212598425197,
                    "duration": 0.960000000000008
                }
            ],
            "controlChanges": {
                "7": [
                    {
                        "number": 7,
                        "time": 0,
                        "value": 0.7165354330708661
                    }
                ],
                "10": [
                    {
                        "number": 10,
                        "time": 0,
                        "value": 0.5433070866141733
                    }
                ],
                "91": [
                    {
                        "number": 91,
                        "time": 0,
                        "value": 0.5511811023622047
                    }
                ],
                "121": [
                    {
                        "number": 121,
                        "time": 0,
                        "value": 0
                    }
                ]
            },
            "id": 4,
            "name": "Harpsichord RT.",
            "instrumentNumber": 6,
            "instrument": "harpsichord",
            "instrumentFamily": "piano",
            "channelNumber": 3,
            "isPercussion": false
        },
        {
            "startTime": 0,
            "duration": 139.56000000000014,
            "length": 309,
            "notes": [
                {
                    "name": "D3",
                    "midi": 50,
                    "time": 0,
                    "velocity": 0.6299212598425197,
                    "duration": 0.48
                },
                {
                    "name": "D4",
                    "midi": 62,
                    "time": 0.8999999999999999,
                    "velocity": 0.6299212598425197,
                    "duration": 0.24
                },
                {
                    "name": "C#4",
                    "midi": 61,
                    "time": 1.2,
                    "velocity": 0.6299212598425197,
                    "duration": 0.24
                },
                {
                    "name": "A3",
                    "midi": 57,
                    "time": 1.5,
                    "velocity": 0.6299212598425197,
                    "duration": 0.24
                },
                {
                    "name": "D4",
                    "midi": 62,
                    "time": 1.8,
                    "velocity": 0.6299212598425197,
                    "duration": 0.4800000000000002
                },
                {
                    "name": "G3",
                    "midi": 55,
                    "time": 2.7,
                    "velocity": 0.6299212598425197,
                    "duration": 0.2400000000000002
                },
                {
                    "name": "A3",
                    "midi": 57,
                    "time": 3.0000000000000004,
                    "velocity": 0.6299212598425197,
                    "duration": 0.23999999999999977
                },
                {
                    "name": "A2",
                    "midi": 45,
                    "time": 3.3000000000000003,
                    "velocity": 0.6299212598425197,
                    "duration": 0.23999999999999977
                },
                {
                    "name": "D3",
                    "midi": 50,
                    "time": 3.6,
                    "velocity": 0.6299212598425197,
                    "duration": 0.48
                },
                {
                    "name": "D4",
                    "midi": 62,
                    "time": 4.5,
                    "velocity": 0.6299212598425197,
                    "duration": 0.2400000000000002
                },
                {
                    "name": "C#4",
                    "midi": 61,
                    "time": 4.8,
                    "velocity": 0.6299212598425197,
                    "duration": 0.2400000000000002
                },
                {
                    "name": "A3",
                    "midi": 57,
                    "time": 5.1,
                    "velocity": 0.6299212598425197,
                    "duration": 0.2400000000000002
                },
                {
                    "name": "D4",
                    "midi": 62,
                    "time": 5.3999999999999995,
                    "velocity": 0.6299212598425197,
                    "duration": 0.47999999999999954
                },
                {
                    "name": "G3",
                    "midi": 55,
                    "time": 6.299999999999999,
                    "velocity": 0.6299212598425197,
                    "duration": 0.2400000000000002
                },
                {
                    "name": "A3",
                    "midi": 57,
                    "time": 6.599999999999999,
                    "velocity": 0.6299212598425197,
                    "duration": 0.2400000000000002
                },
                {
                    "name": "A2",
                    "midi": 45,
                    "time": 6.899999999999999,
                    "velocity": 0.6299212598425197,
                    "duration": 0.2400000000000002
                },
                {
                    "name": "D3",
                    "midi": 50,
                    "time": 7.199999999999998,
                    "velocity": 0.6299212598425197,
                    "duration": 0.47999999999999954
                },
                {
                    "name": "D4",
                    "midi": 62,
                    "time": 8.099999999999998,
                    "velocity": 0.6299212598425197,
                    "duration": 0.2400000000000002
                },
                {
                    "name": "C#4",
                    "midi": 61,
                    "time": 8.399999999999999,
                    "velocity": 0.6299212598425197,
                    "duration": 0.2400000000000002
                },
                {
                    "name": "A3",
                    "midi": 57,
                    "time": 8.7,
                    "velocity": 0.6299212598425197,
                    "duration": 0.2400000000000002
                },
                {
                    "name": "D4",
                    "midi": 62,
                    "time": 9,
                    "velocity": 0.6299212598425197,
                    "duration": 0.4800000000000004
                },
                {
                    "name": "G3",
                    "midi": 55,
                    "time": 9.9,
                    "velocity": 0.6299212598425197,
                    "duration": 0.2400000000000002
                },
                {
                    "name": "A3",
                    "midi": 57,
                    "time": 10.200000000000001,
                    "velocity": 0.6299212598425197,
                    "duration": 0.2400000000000002
                },
                {
                    "name": "A2",
                    "midi": 45,
                    "time": 10.500000000000002,
                    "velocity": 0.6299212598425197,
                    "duration": 0.2400000000000002
                },
                {
                    "name": "D3",
                    "midi": 50,
                    "time": 10.800000000000002,
                    "velocity": 0.6299212598425197,
                    "duration": 0.4800000000000004
                },
                {
                    "name": "D4",
                    "midi": 62,
                    "time": 11.700000000000003,
                    "velocity": 0.6299212598425197,
                    "duration": 0.2400000000000002
                },
                {
                    "name": "A#3",
                    "midi": 58,
                    "time": 12.000000000000004,
                    "velocity": 0.6299212598425197,
                    "duration": 0.2400000000000002
                },
                {
                    "name": "G3",
                    "midi": 55,
                    "time": 12.300000000000004,
                    "velocity": 0.6299212598425197,
                    "duration": 0.2400000000000002
                },
                {
                    "name": "C4",
                    "midi": 60,
                    "time": 12.600000000000005,
                    "velocity": 0.6299212598425197,
                    "duration": 0.4800000000000004
                },
                {
                    "name": "C4",
                    "midi": 60,
                    "time": 13.500000000000005,
                    "velocity": 0.6299212598425197,
                    "duration": 0.2400000000000002
                },
                {
                    "name": "A3",
                    "midi": 57,
                    "time": 13.800000000000006,
                    "velocity": 0.6299212598425197,
                    "duration": 0.2400000000000002
                },
                {
                    "name": "F3",
                    "midi": 53,
                    "time": 14.100000000000007,
                    "velocity": 0.6299212598425197,
                    "duration": 0.2400000000000002
                },
                {
                    "name": "A#3",
                    "midi": 58,
                    "time": 14.400000000000007,
                    "velocity": 0.6299212598425197,
                    "duration": 0.4800000000000004
                },
                {
                    "name": "G3",
                    "midi": 55,
                    "time": 15.300000000000008,
                    "velocity": 0.6299212598425197,
                    "duration": 0.2400000000000002
                },
                {
                    "name": "C4",
                    "midi": 60,
                    "time": 15.600000000000009,
                    "velocity": 0.6299212598425197,
                    "duration": 0.2400000000000002
                },
                {
                    "name": "C3",
                    "midi": 48,
                    "time": 15.90000000000001,
                    "velocity": 0.6299212598425197,
                    "duration": 0.23999999999999844
                },
                {
                    "name": "F3",
                    "midi": 53,
                    "time": 16.200000000000006,
                    "velocity": 0.6299212598425197,
                    "duration": 0.4800000000000004
                },
                {
                    "name": "G3",
                    "midi": 55,
                    "time": 17.10000000000001,
                    "velocity": 0.6299212598425197,
                    "duration": 0.23999999999999844
                },
                {
                    "name": "A3",
                    "midi": 57,
                    "time": 17.400000000000006,
                    "velocity": 0.6299212598425197,
                    "duration": 0.23999999999999844
                },
                {
                    "name": "A2",
                    "midi": 45,
                    "time": 17.700000000000003,
                    "velocity": 0.6299212598425197,
                    "duration": 0.23999999999999844
                },
                {
                    "name": "D3",
                    "midi": 50,
                    "time": 18,
                    "velocity": 0.6299212598425197,
                    "duration": 0.4800000000000004
                },
                {
                    "name": "D4",
                    "midi": 62,
                    "time": 18.900000000000002,
                    "velocity": 0.6299212598425197,
                    "duration": 0.23999999999999844
                },
                {
                    "name": "C#4",
                    "midi": 61,
                    "time": 19.2,
                    "velocity": 0.6299212598425197,
                    "duration": 0.23999999999999844
                },
                {
                    "name": "A3",
                    "midi": 57,
                    "time": 19.499999999999996,
                    "velocity": 0.6299212598425197,
                    "duration": 0.23999999999999844
                },
                {
                    "name": "D4",
                    "midi": 62,
                    "time": 19.799999999999994,
                    "velocity": 0.6299212598425197,
                    "duration": 0.4800000000000004
                },
                {
                    "name": "G3",
                    "midi": 55,
                    "time": 20.699999999999996,
                    "velocity": 0.6299212598425197,
                    "duration": 0.23999999999999844
                },
                {
                    "name": "A3",
                    "midi": 57,
                    "time": 20.999999999999993,
                    "velocity": 0.6299212598425197,
                    "duration": 0.23999999999999844
                },
                {
                    "name": "A2",
                    "midi": 45,
                    "time": 21.29999999999999,
                    "velocity": 0.6299212598425197,
                    "duration": 0.23999999999999844
                },
                {
                    "name": "D3",
                    "midi": 50,
                    "time": 21.599999999999987,
                    "velocity": 0.6299212598425197,
                    "duration": 0.4800000000000004
                },
                {
                    "name": "D4",
                    "midi": 62,
                    "time": 22.49999999999999,
                    "velocity": 0.6299212598425197,
                    "duration": 0.23999999999999844
                },
                {
                    "name": "C#4",
                    "midi": 61,
                    "time": 22.799999999999986,
                    "velocity": 0.6299212598425197,
                    "duration": 0.23999999999999844
                },
                {
                    "name": "A3",
                    "midi": 57,
                    "time": 23.099999999999984,
                    "velocity": 0.6299212598425197,
                    "duration": 0.23999999999999844
                },
                {
                    "name": "D4",
                    "midi": 62,
                    "time": 23.39999999999998,
                    "velocity": 0.6299212598425197,
                    "duration": 0.4800000000000004
                },
                {
                    "name": "G3",
                    "midi": 55,
                    "time": 24.299999999999983,
                    "velocity": 0.6299212598425197,
                    "duration": 0.23999999999999844
                },
                {
                    "name": "A3",
                    "midi": 57,
                    "time": 24.59999999999998,
                    "velocity": 0.6299212598425197,
                    "duration": 0.23999999999999844
                },
                {
                    "name": "A2",
                    "midi": 45,
                    "time": 24.899999999999977,
                    "velocity": 0.6299212598425197,
                    "duration": 0.23999999999999844
                },
                {
                    "name": "D3",
                    "midi": 50,
                    "time": 25.199999999999974,
                    "velocity": 0.6299212598425197,
                    "duration": 0.4800000000000004
                },
                {
                    "name": "F3",
                    "midi": 53,
                    "time": 26.099999999999977,
                    "velocity": 0.6299212598425197,
                    "duration": 0.23999999999999844
                },
                {
                    "name": "E3",
                    "midi": 52,
                    "time": 26.399999999999974,
                    "velocity": 0.6299212598425197,
                    "duration": 0.23999999999999844
                },
                {
                    "name": "C3",
                    "midi": 48,
                    "time": 26.69999999999997,
                    "velocity": 0.6299212598425197,
                    "duration": 0.23999999999999844
                },
                {
                    "name": "F3",
                    "midi": 53,
                    "time": 26.999999999999968,
                    "velocity": 0.6299212598425197,
                    "duration": 0.4800000000000004
                },
                {
                    "name": "G3",
                    "midi": 55,
                    "time": 27.89999999999997,
                    "velocity": 0.6299212598425197,
                    "duration": 0.23999999999999844
                },
                {
                    "name": "A3",
                    "midi": 57,
                    "time": 28.199999999999967,
                    "velocity": 0.6299212598425197,
                    "duration": 0.23999999999999844
                },
                {
                    "name": "F3",
                    "midi": 53,
                    "time": 28.499999999999964,
                    "velocity": 0.6299212598425197,
                    "duration": 0.23999999999999844
                },
                {
                    "name": "A#3",
                    "midi": 58,
                    "time": 28.79999999999996,
                    "velocity": 0.6299212598425197,
                    "duration": 0.4800000000000004
                },
                {
                    "name": "G3",
                    "midi": 55,
                    "time": 29.699999999999964,
                    "velocity": 0.6299212598425197,
                    "duration": 0.23999999999999844
                },
                {
                    "name": "C4",
                    "midi": 60,
                    "time": 29.99999999999996,
                    "velocity": 0.6299212598425197,
                    "duration": 0.23999999999999844
                },
                {
                    "name": "C3",
                    "midi": 48,
                    "time": 30.299999999999958,
                    "velocity": 0.6299212598425197,
                    "duration": 0.23999999999999844
                },
                {
                    "name": "F3",
                    "midi": 53,
                    "time": 30.599999999999955,
                    "velocity": 0.6299212598425197,
                    "duration": 0.4800000000000004
                },
                {
                    "name": "A#2",
                    "midi": 46,
                    "time": 31.499999999999957,
                    "velocity": 0.6299212598425197,
                    "duration": 0.23999999999999844
                },
                {
                    "name": "C3",
                    "midi": 48,
                    "time": 31.799999999999955,
                    "velocity": 0.6299212598425197,
                    "duration": 0.240000000000002
                },
                {
                    "name": "C2",
                    "midi": 36,
                    "time": 32.09999999999996,
                    "velocity": 0.6299212598425197,
                    "duration": 0.240000000000002
                },
                {
                    "name": "F2",
                    "midi": 41,
                    "time": 32.39999999999996,
                    "velocity": 0.6299212598425197,
                    "duration": 0.4799999999999969
                },
                {
                    "name": "F3",
                    "midi": 53,
                    "time": 33.29999999999996,
                    "velocity": 0.6299212598425197,
                    "duration": 0.240000000000002
                },
                {
                    "name": "E3",
                    "midi": 52,
                    "time": 33.599999999999966,
                    "velocity": 0.6299212598425197,
                    "duration": 0.240000000000002
                },
                {
                    "name": "C3",
                    "midi": 48,
                    "time": 33.89999999999997,
                    "velocity": 0.6299212598425197,
                    "duration": 0.240000000000002
                },
                {
                    "name": "F3",
                    "midi": 53,
                    "time": 34.199999999999974,
                    "velocity": 0.6299212598425197,
                    "duration": 0.4799999999999969
                },
                {
                    "name": "G3",
                    "midi": 55,
                    "time": 35.09999999999997,
                    "velocity": 0.6299212598425197,
                    "duration": 0.240000000000002
                },
                {
                    "name": "A3",
                    "midi": 57,
                    "time": 35.39999999999998,
                    "velocity": 0.6299212598425197,
                    "duration": 0.240000000000002
                },
                {
                    "name": "F3",
                    "midi": 53,
                    "time": 35.69999999999998,
                    "velocity": 0.6299212598425197,
                    "duration": 0.240000000000002
                },
                {
                    "name": "A#3",
                    "midi": 58,
                    "time": 35.999999999999986,
                    "velocity": 0.6299212598425197,
                    "duration": 0.4799999999999969
                },
                {
                    "name": "G3",
                    "midi": 55,
                    "time": 36.899999999999984,
                    "velocity": 0.6299212598425197,
                    "duration": 0.240000000000002
                },
                {
                    "name": "C4",
                    "midi": 60,
                    "time": 37.19999999999999,
                    "velocity": 0.6299212598425197,
                    "duration": 0.240000000000002
                },
                {
                    "name": "C3",
                    "midi": 48,
                    "time": 37.49999999999999,
                    "velocity": 0.6299212598425197,
                    "duration": 0.240000000000002
                },
                {
                    "name": "F3",
                    "midi": 53,
                    "time": 37.8,
                    "velocity": 0.6299212598425197,
                    "duration": 0.4799999999999969
                },
                {
                    "name": "G3",
                    "midi": 55,
                    "time": 38.699999999999996,
                    "velocity": 0.6299212598425197,
                    "duration": 0.240000000000002
                },
                {
                    "name": "F3",
                    "midi": 53,
                    "time": 39,
                    "velocity": 0.6299212598425197,
                    "duration": 0.240000000000002
                },
                {
                    "name": "E3",
                    "midi": 52,
                    "time": 39.300000000000004,
                    "velocity": 0.6299212598425197,
                    "duration": 0.240000000000002
                },
                {
                    "name": "D3",
                    "midi": 50,
                    "time": 39.60000000000001,
                    "velocity": 0.6299212598425197,
                    "duration": 0.4799999999999969
                },
                {
                    "name": "D4",
                    "midi": 62,
                    "time": 40.50000000000001,
                    "velocity": 0.6299212598425197,
                    "duration": 0.240000000000002
                },
                {
                    "name": "C#4",
                    "midi": 61,
                    "time": 40.80000000000001,
                    "velocity": 0.6299212598425197,
                    "duration": 0.240000000000002
                },
                {
                    "name": "A3",
                    "midi": 57,
                    "time": 41.100000000000016,
                    "velocity": 0.6299212598425197,
                    "duration": 0.240000000000002
                },
                {
                    "name": "D4",
                    "midi": 62,
                    "time": 41.40000000000002,
                    "velocity": 0.6299212598425197,
                    "duration": 0.4799999999999969
                },
                {
                    "name": "G3",
                    "midi": 55,
                    "time": 42.30000000000002,
                    "velocity": 0.6299212598425197,
                    "duration": 0.240000000000002
                },
                {
                    "name": "A3",
                    "midi": 57,
                    "time": 42.60000000000002,
                    "velocity": 0.6299212598425197,
                    "duration": 0.240000000000002
                },
                {
                    "name": "A2",
                    "midi": 45,
                    "time": 42.90000000000003,
                    "velocity": 0.6299212598425197,
                    "duration": 0.240000000000002
                },
                {
                    "name": "D3",
                    "midi": 50,
                    "time": 43.20000000000003,
                    "velocity": 0.6299212598425197,
                    "duration": 0.4799999999999969
                },
                {
                    "name": "D4",
                    "midi": 62,
                    "time": 44.10000000000003,
                    "velocity": 0.6299212598425197,
                    "duration": 0.240000000000002
                },
                {
                    "name": "C#4",
                    "midi": 61,
                    "time": 44.400000000000034,
                    "velocity": 0.6299212598425197,
                    "duration": 0.240000000000002
                },
                {
                    "name": "A3",
                    "midi": 57,
                    "time": 44.70000000000004,
                    "velocity": 0.6299212598425197,
                    "duration": 0.240000000000002
                },
                {
                    "name": "D4",
                    "midi": 62,
                    "time": 45.00000000000004,
                    "velocity": 0.6299212598425197,
                    "duration": 0.4799999999999969
                },
                {
                    "name": "G3",
                    "midi": 55,
                    "time": 45.90000000000004,
                    "velocity": 0.6299212598425197,
                    "duration": 0.240000000000002
                },
                {
                    "name": "A3",
                    "midi": 57,
                    "time": 46.200000000000045,
                    "velocity": 0.6299212598425197,
                    "duration": 0.240000000000002
                },
                {
                    "name": "A2",
                    "midi": 45,
                    "time": 46.50000000000005,
                    "velocity": 0.6299212598425197,
                    "duration": 0.240000000000002
                },
                {
                    "name": "D3",
                    "midi": 50,
                    "time": 46.800000000000054,
                    "velocity": 0.6299212598425197,
                    "duration": 0.4799999999999969
                },
                {
                    "name": "D4",
                    "midi": 62,
                    "time": 47.70000000000005,
                    "velocity": 0.6299212598425197,
                    "duration": 0.240000000000002
                },
                {
                    "name": "A#3",
                    "midi": 58,
                    "time": 48.00000000000006,
                    "velocity": 0.6299212598425197,
                    "duration": 0.240000000000002
                },
                {
                    "name": "G3",
                    "midi": 55,
                    "time": 48.30000000000006,
                    "velocity": 0.6299212598425197,
                    "duration": 0.240000000000002
                },
                {
                    "name": "C4",
                    "midi": 60,
                    "time": 48.600000000000065,
                    "velocity": 0.6299212598425197,
                    "duration": 0.4799999999999969
                },
                {
                    "name": "C4",
                    "midi": 60,
                    "time": 49.500000000000064,
                    "velocity": 0.6299212598425197,
                    "duration": 0.240000000000002
                },
                {
                    "name": "A3",
                    "midi": 57,
                    "time": 49.80000000000007,
                    "velocity": 0.6299212598425197,
                    "duration": 0.240000000000002
                },
                {
                    "name": "F3",
                    "midi": 53,
                    "time": 50.10000000000007,
                    "velocity": 0.6299212598425197,
                    "duration": 0.240000000000002
                },
                {
                    "name": "A#3",
                    "midi": 58,
                    "time": 50.40000000000008,
                    "velocity": 0.6299212598425197,
                    "duration": 0.4799999999999969
                },
                {
                    "name": "G3",
                    "midi": 55,
                    "time": 51.300000000000075,
                    "velocity": 0.6299212598425197,
                    "duration": 0.240000000000002
                },
                {
                    "name": "C4",
                    "midi": 60,
                    "time": 51.60000000000008,
                    "velocity": 0.6299212598425197,
                    "duration": 0.240000000000002
                },
                {
                    "name": "C3",
                    "midi": 48,
                    "time": 51.900000000000084,
                    "velocity": 0.6299212598425197,
                    "duration": 0.240000000000002
                },
                {
                    "name": "F3",
                    "midi": 53,
                    "time": 52.20000000000009,
                    "velocity": 0.6299212598425197,
                    "duration": 0.4799999999999969
                },
                {
                    "name": "G3",
                    "midi": 55,
                    "time": 53.10000000000009,
                    "velocity": 0.6299212598425197,
                    "duration": 0.240000000000002
                },
                {
                    "name": "A3",
                    "midi": 57,
                    "time": 53.40000000000009,
                    "velocity": 0.6299212598425197,
                    "duration": 0.240000000000002
                },
                {
                    "name": "A2",
                    "midi": 45,
                    "time": 53.700000000000095,
                    "velocity": 0.6299212598425197,
                    "duration": 0.240000000000002
                },
                {
                    "name": "D3",
                    "midi": 50,
                    "time": 54.0000000000001,
                    "velocity": 0.6299212598425197,
                    "duration": 0.4799999999999969
                },
                {
                    "name": "D4",
                    "midi": 62,
                    "time": 54.9000000000001,
                    "velocity": 0.6299212598425197,
                    "duration": 0.240000000000002
                },
                {
                    "name": "C#4",
                    "midi": 61,
                    "time": 55.2000000000001,
                    "velocity": 0.6299212598425197,
                    "duration": 0.240000000000002
                },
                {
                    "name": "A3",
                    "midi": 57,
                    "time": 55.50000000000011,
                    "velocity": 0.6299212598425197,
                    "duration": 0.240000000000002
                },
                {
                    "name": "D4",
                    "midi": 62,
                    "time": 55.80000000000011,
                    "velocity": 0.6299212598425197,
                    "duration": 0.4799999999999969
                },
                {
                    "name": "G3",
                    "midi": 55,
                    "time": 56.70000000000011,
                    "velocity": 0.6299212598425197,
                    "duration": 0.240000000000002
                },
                {
                    "name": "A3",
                    "midi": 57,
                    "time": 57.000000000000114,
                    "velocity": 0.6299212598425197,
                    "duration": 0.240000000000002
                },
                {
                    "name": "A2",
                    "midi": 45,
                    "time": 57.30000000000012,
                    "velocity": 0.6299212598425197,
                    "duration": 0.240000000000002
                },
                {
                    "name": "D3",
                    "midi": 50,
                    "time": 57.60000000000012,
                    "velocity": 0.6299212598425197,
                    "duration": 0.4799999999999969
                },
                {
                    "name": "D4",
                    "midi": 62,
                    "time": 58.50000000000012,
                    "velocity": 0.6299212598425197,
                    "duration": 0.240000000000002
                },
                {
                    "name": "C#4",
                    "midi": 61,
                    "time": 58.800000000000125,
                    "velocity": 0.6299212598425197,
                    "duration": 0.240000000000002
                },
                {
                    "name": "A3",
                    "midi": 57,
                    "time": 59.10000000000013,
                    "velocity": 0.6299212598425197,
                    "duration": 0.240000000000002
                },
                {
                    "name": "D4",
                    "midi": 62,
                    "time": 59.400000000000134,
                    "velocity": 0.6299212598425197,
                    "duration": 0.4799999999999969
                },
                {
                    "name": "G3",
                    "midi": 55,
                    "time": 60.30000000000013,
                    "velocity": 0.6299212598425197,
                    "duration": 0.240000000000002
                },
                {
                    "name": "A3",
                    "midi": 57,
                    "time": 60.600000000000136,
                    "velocity": 0.6299212598425197,
                    "duration": 0.240000000000002
                },
                {
                    "name": "A2",
                    "midi": 45,
                    "time": 60.90000000000014,
                    "velocity": 0.6299212598425197,
                    "duration": 0.240000000000002
                },
                {
                    "name": "D3",
                    "midi": 50,
                    "time": 61.200000000000145,
                    "velocity": 0.6299212598425197,
                    "duration": 0.4799999999999969
                },
                {
                    "name": "F3",
                    "midi": 53,
                    "time": 62.10000000000014,
                    "velocity": 0.6299212598425197,
                    "duration": 0.240000000000002
                },
                {
                    "name": "E3",
                    "midi": 52,
                    "time": 62.40000000000015,
                    "velocity": 0.6299212598425197,
                    "duration": 0.240000000000002
                },
                {
                    "name": "C3",
                    "midi": 48,
                    "time": 62.70000000000015,
                    "velocity": 0.6299212598425197,
                    "duration": 0.240000000000002
                },
                {
                    "name": "F3",
                    "midi": 53,
                    "time": 63.000000000000156,
                    "velocity": 0.6299212598425197,
                    "duration": 0.4799999999999969
                },
                {
                    "name": "G3",
                    "midi": 55,
                    "time": 63.900000000000155,
                    "velocity": 0.6299212598425197,
                    "duration": 0.240000000000002
                },
                {
                    "name": "A3",
                    "midi": 57,
                    "time": 64.20000000000016,
                    "velocity": 0.6299212598425197,
                    "duration": 0.23999999999999488
                },
                {
                    "name": "F3",
                    "midi": 53,
                    "time": 64.50000000000016,
                    "velocity": 0.6299212598425197,
                    "duration": 0.23999999999999488
                },
                {
                    "name": "A#3",
                    "midi": 58,
                    "time": 64.80000000000015,
                    "velocity": 0.6299212598425197,
                    "duration": 0.480000000000004
                },
                {
                    "name": "G3",
                    "midi": 55,
                    "time": 65.70000000000016,
                    "velocity": 0.6299212598425197,
                    "duration": 0.23999999999999488
                },
                {
                    "name": "C4",
                    "midi": 60,
                    "time": 66.00000000000016,
                    "velocity": 0.6299212598425197,
                    "duration": 0.23999999999999488
                },
                {
                    "name": "C3",
                    "midi": 48,
                    "time": 66.30000000000015,
                    "velocity": 0.6299212598425197,
                    "duration": 0.23999999999999488
                },
                {
                    "name": "F3",
                    "midi": 53,
                    "time": 66.60000000000015,
                    "velocity": 0.6299212598425197,
                    "duration": 0.480000000000004
                },
                {
                    "name": "A#2",
                    "midi": 46,
                    "time": 67.50000000000016,
                    "velocity": 0.6299212598425197,
                    "duration": 0.23999999999999488
                },
                {
                    "name": "C3",
                    "midi": 48,
                    "time": 67.80000000000015,
                    "velocity": 0.6299212598425197,
                    "duration": 0.23999999999999488
                },
                {
                    "name": "C2",
                    "midi": 36,
                    "time": 68.10000000000015,
                    "velocity": 0.6299212598425197,
                    "duration": 0.23999999999999488
                },
                {
                    "name": "F2",
                    "midi": 41,
                    "time": 68.40000000000015,
                    "velocity": 0.6299212598425197,
                    "duration": 0.480000000000004
                },
                {
                    "name": "F3",
                    "midi": 53,
                    "time": 69.30000000000015,
                    "velocity": 0.6299212598425197,
                    "duration": 0.23999999999999488
                },
                {
                    "name": "E3",
                    "midi": 52,
                    "time": 69.60000000000015,
                    "velocity": 0.6299212598425197,
                    "duration": 0.23999999999999488
                },
                {
                    "name": "C3",
                    "midi": 48,
                    "time": 69.90000000000015,
                    "velocity": 0.6299212598425197,
                    "duration": 0.23999999999999488
                },
                {
                    "name": "F3",
                    "midi": 53,
                    "time": 70.20000000000014,
                    "velocity": 0.6299212598425197,
                    "duration": 0.480000000000004
                },
                {
                    "name": "G3",
                    "midi": 55,
                    "time": 71.10000000000015,
                    "velocity": 0.6299212598425197,
                    "duration": 0.23999999999999488
                },
                {
                    "name": "A3",
                    "midi": 57,
                    "time": 71.40000000000015,
                    "velocity": 0.6299212598425197,
                    "duration": 0.23999999999999488
                },
                {
                    "name": "F3",
                    "midi": 53,
                    "time": 71.70000000000014,
                    "velocity": 0.6299212598425197,
                    "duration": 0.23999999999999488
                },
                {
                    "name": "A#3",
                    "midi": 58,
                    "time": 72.00000000000014,
                    "velocity": 0.6299212598425197,
                    "duration": 0.480000000000004
                },
                {
                    "name": "G3",
                    "midi": 55,
                    "time": 72.90000000000015,
                    "velocity": 0.6299212598425197,
                    "duration": 0.23999999999999488
                },
                {
                    "name": "C4",
                    "midi": 60,
                    "time": 73.20000000000014,
                    "velocity": 0.6299212598425197,
                    "duration": 0.23999999999999488
                },
                {
                    "name": "C3",
                    "midi": 48,
                    "time": 73.50000000000014,
                    "velocity": 0.6299212598425197,
                    "duration": 0.23999999999999488
                },
                {
                    "name": "F3",
                    "midi": 53,
                    "time": 73.80000000000014,
                    "velocity": 0.6299212598425197,
                    "duration": 0.480000000000004
                },
                {
                    "name": "F3",
                    "midi": 53,
                    "time": 74.70000000000014,
                    "velocity": 0.6299212598425197,
                    "duration": 0.23999999999999488
                },
                {
                    "name": "E3",
                    "midi": 52,
                    "time": 75.00000000000014,
                    "velocity": 0.6299212598425197,
                    "duration": 0.23999999999999488
                },
                {
                    "name": "C3",
                    "midi": 48,
                    "time": 75.30000000000014,
                    "velocity": 0.6299212598425197,
                    "duration": 0.23999999999999488
                },
                {
                    "name": "F3",
                    "midi": 53,
                    "time": 75.60000000000014,
                    "velocity": 0.6299212598425197,
                    "duration": 0.480000000000004
                },
                {
                    "name": "A#2",
                    "midi": 46,
                    "time": 76.50000000000014,
                    "velocity": 0.6299212598425197,
                    "duration": 0.23999999999999488
                },
                {
                    "name": "C3",
                    "midi": 48,
                    "time": 76.80000000000014,
                    "velocity": 0.6299212598425197,
                    "duration": 0.23999999999999488
                },
                {
                    "name": "C2",
                    "midi": 36,
                    "time": 77.10000000000014,
                    "velocity": 0.6299212598425197,
                    "duration": 0.23999999999999488
                },
                {
                    "name": "F2",
                    "midi": 41,
                    "time": 77.40000000000013,
                    "velocity": 0.6299212598425197,
                    "duration": 0.480000000000004
                },
                {
                    "name": "F3",
                    "midi": 53,
                    "time": 78.30000000000014,
                    "velocity": 0.6299212598425197,
                    "duration": 0.23999999999999488
                },
                {
                    "name": "E3",
                    "midi": 52,
                    "time": 78.60000000000014,
                    "velocity": 0.6299212598425197,
                    "duration": 0.23999999999999488
                },
                {
                    "name": "C3",
                    "midi": 48,
                    "time": 78.90000000000013,
                    "velocity": 0.6299212598425197,
                    "duration": 0.23999999999999488
                },
                {
                    "name": "F3",
                    "midi": 53,
                    "time": 79.20000000000013,
                    "velocity": 0.6299212598425197,
                    "duration": 0.480000000000004
                },
                {
                    "name": "D3",
                    "midi": 50,
                    "time": 80.10000000000014,
                    "velocity": 0.6299212598425197,
                    "duration": 0.23999999999999488
                },
                {
                    "name": "G3",
                    "midi": 55,
                    "time": 80.40000000000013,
                    "velocity": 0.6299212598425197,
                    "duration": 0.23999999999999488
                },
                {
                    "name": "G2",
                    "midi": 43,
                    "time": 80.70000000000013,
                    "velocity": 0.6299212598425197,
                    "duration": 0.23999999999999488
                },
                {
                    "name": "C3",
                    "midi": 48,
                    "time": 81.00000000000013,
                    "velocity": 0.6299212598425197,
                    "duration": 0.480000000000004
                },
                {
                    "name": "C4",
                    "midi": 60,
                    "time": 81.90000000000013,
                    "velocity": 0.6299212598425197,
                    "duration": 0.23999999999999488
                },
                {
                    "name": "B3",
                    "midi": 59,
                    "time": 82.20000000000013,
                    "velocity": 0.6299212598425197,
                    "duration": 0.23999999999999488
                },
                {
                    "name": "G3",
                    "midi": 55,
                    "time": 82.50000000000013,
                    "velocity": 0.6299212598425197,
                    "duration": 0.23999999999999488
                },
                {
                    "name": "C4",
                    "midi": 60,
                    "time": 82.80000000000013,
                    "velocity": 0.6299212598425197,
                    "duration": 0.480000000000004
                },
                {
                    "name": "F3",
                    "midi": 53,
                    "time": 83.70000000000013,
                    "velocity": 0.6299212598425197,
                    "duration": 0.23999999999999488
                },
                {
                    "name": "G3",
                    "midi": 55,
                    "time": 84.00000000000013,
                    "velocity": 0.6299212598425197,
                    "duration": 0.23999999999999488
                },
                {
                    "name": "G2",
                    "midi": 43,
                    "time": 84.30000000000013,
                    "velocity": 0.6299212598425197,
                    "duration": 0.23999999999999488
                },
                {
                    "name": "C3",
                    "midi": 48,
                    "time": 84.60000000000012,
                    "velocity": 0.6299212598425197,
                    "duration": 0.480000000000004
                },
                {
                    "name": "C4",
                    "midi": 60,
                    "time": 85.50000000000013,
                    "velocity": 0.6299212598425197,
                    "duration": 0.23999999999999488
                },
                {
                    "name": "B3",
                    "midi": 59,
                    "time": 85.80000000000013,
                    "velocity": 0.6299212598425197,
                    "duration": 0.23999999999999488
                },
                {
                    "name": "G3",
                    "midi": 55,
                    "time": 86.10000000000012,
                    "velocity": 0.6299212598425197,
                    "duration": 0.23999999999999488
                },
                {
                    "name": "C4",
                    "midi": 60,
                    "time": 86.40000000000012,
                    "velocity": 0.6299212598425197,
                    "duration": 0.480000000000004
                },
                {
                    "name": "A3",
                    "midi": 57,
                    "time": 87.30000000000013,
                    "velocity": 0.6299212598425197,
                    "duration": 0.23999999999999488
                },
                {
                    "name": "D4",
                    "midi": 62,
                    "time": 87.60000000000012,
                    "velocity": 0.6299212598425197,
                    "duration": 0.23999999999999488
                },
                {
                    "name": "D3",
                    "midi": 50,
                    "time": 87.90000000000012,
                    "velocity": 0.6299212598425197,
                    "duration": 0.23999999999999488
                },
                {
                    "name": "G3",
                    "midi": 55,
                    "time": 88.20000000000012,
                    "velocity": 0.6299212598425197,
                    "duration": 0.480000000000004
                },
                {
                    "name": "A3",
                    "midi": 57,
                    "time": 89.10000000000012,
                    "velocity": 0.6299212598425197,
                    "duration": 0.23999999999999488
                },
                {
                    "name": "A#3",
                    "midi": 58,
                    "time": 89.40000000000012,
                    "velocity": 0.6299212598425197,
                    "duration": 0.23999999999999488
                },
                {
                    "name": "G3",
                    "midi": 55,
                    "time": 89.70000000000012,
                    "velocity": 0.6299212598425197,
                    "duration": 0.23999999999999488
                },
                {
                    "name": "C4",
                    "midi": 60,
                    "time": 90.00000000000011,
                    "velocity": 0.6299212598425197,
                    "duration": 0.480000000000004
                },
                {
                    "name": "C4",
                    "midi": 60,
                    "time": 90.90000000000012,
                    "velocity": 0.6299212598425197,
                    "duration": 0.23999999999999488
                },
                {
                    "name": "A3",
                    "midi": 57,
                    "time": 91.20000000000012,
                    "velocity": 0.6299212598425197,
                    "duration": 0.23999999999999488
                },
                {
                    "name": "F3",
                    "midi": 53,
                    "time": 91.50000000000011,
                    "velocity": 0.6299212598425197,
                    "duration": 0.23999999999999488
                },
                {
                    "name": "A#3",
                    "midi": 58,
                    "time": 91.80000000000011,
                    "velocity": 0.6299212598425197,
                    "duration": 0.480000000000004
                },
                {
                    "name": "A#3",
                    "midi": 58,
                    "time": 92.70000000000012,
                    "velocity": 0.6299212598425197,
                    "duration": 0.23999999999999488
                },
                {
                    "name": "G3",
                    "midi": 55,
                    "time": 93.00000000000011,
                    "velocity": 0.6299212598425197,
                    "duration": 0.23999999999999488
                },
                {
                    "name": "E3",
                    "midi": 52,
                    "time": 93.30000000000011,
                    "velocity": 0.6299212598425197,
                    "duration": 0.23999999999999488
                },
                {
                    "name": "A3",
                    "midi": 57,
                    "time": 93.60000000000011,
                    "velocity": 0.6299212598425197,
                    "duration": 0.480000000000004
                },
                {
                    "name": "E3",
                    "midi": 52,
                    "time": 94.50000000000011,
                    "velocity": 0.6299212598425197,
                    "duration": 0.23999999999999488
                },
                {
                    "name": "A3",
                    "midi": 57,
                    "time": 94.80000000000011,
                    "velocity": 0.6299212598425197,
                    "duration": 0.23999999999999488
                },
                {
                    "name": "E3",
                    "midi": 52,
                    "time": 95.10000000000011,
                    "velocity": 0.6299212598425197,
                    "duration": 0.23999999999999488
                },
                {
                    "name": "F3",
                    "midi": 53,
                    "time": 95.4000000000001,
                    "velocity": 0.6299212598425197,
                    "duration": 0.480000000000004
                },
                {
                    "name": "A3",
                    "midi": 57,
                    "time": 96.30000000000011,
                    "velocity": 0.6299212598425197,
                    "duration": 0.23999999999999488
                },
                {
                    "name": "D4",
                    "midi": 62,
                    "time": 96.60000000000011,
                    "velocity": 0.6299212598425197,
                    "duration": 0.23999999999999488
                },
                {
                    "name": "A3",
                    "midi": 57,
                    "time": 96.9000000000001,
                    "velocity": 0.6299212598425197,
                    "duration": 0.23999999999999488
                },
                {
                    "name": "A#3",
                    "midi": 58,
                    "time": 97.2000000000001,
                    "velocity": 0.6299212598425197,
                    "duration": 0.480000000000004
                },
                {
                    "name": "G3",
                    "midi": 55,
                    "time": 98.10000000000011,
                    "velocity": 0.6299212598425197,
                    "duration": 0.23999999999999488
                },
                {
                    "name": "C4",
                    "midi": 60,
                    "time": 98.4000000000001,
                    "velocity": 0.6299212598425197,
                    "duration": 0.23999999999999488
                },
                {
                    "name": "G3",
                    "midi": 55,
                    "time": 98.7000000000001,
                    "velocity": 0.6299212598425197,
                    "duration": 0.23999999999999488
                },
                {
                    "name": "A3",
                    "midi": 57,
                    "time": 99.0000000000001,
                    "velocity": 0.6299212598425197,
                    "duration": 0.480000000000004
                },
                {
                    "name": "E3",
                    "midi": 52,
                    "time": 99.9000000000001,
                    "velocity": 0.6299212598425197,
                    "duration": 0.23999999999999488
                },
                {
                    "name": "F3",
                    "midi": 53,
                    "time": 100.2000000000001,
                    "velocity": 0.6299212598425197,
                    "duration": 0.23999999999999488
                },
                {
                    "name": "D3",
                    "midi": 50,
                    "time": 100.5000000000001,
                    "velocity": 0.6299212598425197,
                    "duration": 0.23999999999999488
                },
                {
                    "name": "G3",
                    "midi": 55,
                    "time": 100.8000000000001,
                    "velocity": 0.6299212598425197,
                    "duration": 0.480000000000004
                },
                {
                    "name": "A3",
                    "midi": 57,
                    "time": 101.7000000000001,
                    "velocity": 0.6299212598425197,
                    "duration": 0.23999999999999488
                },
                {
                    "name": "A#3",
                    "midi": 58,
                    "time": 102.0000000000001,
                    "velocity": 0.6299212598425197,
                    "duration": 0.23999999999999488
                },
                {
                    "name": "G3",
                    "midi": 55,
                    "time": 102.3000000000001,
                    "velocity": 0.6299212598425197,
                    "duration": 0.23999999999999488
                },
                {
                    "name": "A3",
                    "midi": 57,
                    "time": 102.6000000000001,
                    "velocity": 0.6299212598425197,
                    "duration": 0.480000000000004
                },
                {
                    "name": "G3",
                    "midi": 55,
                    "time": 103.5000000000001,
                    "velocity": 0.6299212598425197,
                    "duration": 0.23999999999999488
                },
                {
                    "name": "A3",
                    "midi": 57,
                    "time": 103.8000000000001,
                    "velocity": 0.6299212598425197,
                    "duration": 0.23999999999999488
                },
                {
                    "name": "A2",
                    "midi": 45,
                    "time": 104.1000000000001,
                    "velocity": 0.6299212598425197,
                    "duration": 0.23999999999999488
                },
                {
                    "name": "D3",
                    "midi": 50,
                    "time": 104.40000000000009,
                    "velocity": 0.6299212598425197,
                    "duration": 0.480000000000004
                },
                {
                    "name": "F3",
                    "midi": 53,
                    "time": 105.3000000000001,
                    "velocity": 0.6299212598425197,
                    "duration": 0.23999999999999488
                },
                {
                    "name": "E3",
                    "midi": 52,
                    "time": 105.6000000000001,
                    "velocity": 0.6299212598425197,
                    "duration": 0.23999999999999488
                },
                {
                    "name": "C3",
                    "midi": 48,
                    "time": 105.90000000000009,
                    "velocity": 0.6299212598425197,
                    "duration": 0.23999999999999488
                },
                {
                    "name": "F3",
                    "midi": 53,
                    "time": 106.20000000000009,
                    "velocity": 0.6299212598425197,
                    "duration": 0.480000000000004
                },
                {
                    "name": "A#2",
                    "midi": 46,
                    "time": 107.1000000000001,
                    "velocity": 0.6299212598425197,
                    "duration": 0.23999999999999488
                },
                {
                    "name": "C3",
                    "midi": 48,
                    "time": 107.40000000000009,
                    "velocity": 0.6299212598425197,
                    "duration": 0.23999999999999488
                },
                {
                    "name": "C2",
                    "midi": 36,
                    "time": 107.70000000000009,
                    "velocity": 0.6299212598425197,
                    "duration": 0.23999999999999488
                },
                {
                    "name": "F2",
                    "midi": 41,
                    "time": 108.00000000000009,
                    "velocity": 0.6299212598425197,
                    "duration": 0.480000000000004
                },
                {
                    "name": "F3",
                    "midi": 53,
                    "time": 108.90000000000009,
                    "velocity": 0.6299212598425197,
                    "duration": 0.23999999999999488
                },
                {
                    "name": "E3",
                    "midi": 52,
                    "time": 109.20000000000009,
                    "velocity": 0.6299212598425197,
                    "duration": 0.23999999999999488
                },
                {
                    "name": "C3",
                    "midi": 48,
                    "time": 109.50000000000009,
                    "velocity": 0.6299212598425197,
                    "duration": 0.23999999999999488
                },
                {
                    "name": "F3",
                    "midi": 53,
                    "time": 109.80000000000008,
                    "velocity": 0.6299212598425197,
                    "duration": 0.480000000000004
                },
                {
                    "name": "D3",
                    "midi": 50,
                    "time": 110.70000000000009,
                    "velocity": 0.6299212598425197,
                    "duration": 0.23999999999999488
                },
                {
                    "name": "G3",
                    "midi": 55,
                    "time": 111.00000000000009,
                    "velocity": 0.6299212598425197,
                    "duration": 0.23999999999999488
                },
                {
                    "name": "G2",
                    "midi": 43,
                    "time": 111.30000000000008,
                    "velocity": 0.6299212598425197,
                    "duration": 0.23999999999999488
                },
                {
                    "name": "C3",
                    "midi": 48,
                    "time": 111.60000000000008,
                    "velocity": 0.6299212598425197,
                    "duration": 0.480000000000004
                },
                {
                    "name": "C4",
                    "midi": 60,
                    "time": 112.50000000000009,
                    "velocity": 0.6299212598425197,
                    "duration": 0.23999999999999488
                },
                {
                    "name": "B3",
                    "midi": 59,
                    "time": 112.80000000000008,
                    "velocity": 0.6299212598425197,
                    "duration": 0.23999999999999488
                },
                {
                    "name": "G3",
                    "midi": 55,
                    "time": 113.10000000000008,
                    "velocity": 0.6299212598425197,
                    "duration": 0.23999999999999488
                },
                {
                    "name": "C4",
                    "midi": 60,
                    "time": 113.40000000000008,
                    "velocity": 0.6299212598425197,
                    "duration": 0.480000000000004
                },
                {
                    "name": "F3",
                    "midi": 53,
                    "time": 114.30000000000008,
                    "velocity": 0.6299212598425197,
                    "duration": 0.23999999999999488
                },
                {
                    "name": "G3",
                    "midi": 55,
                    "time": 114.60000000000008,
                    "velocity": 0.6299212598425197,
                    "duration": 0.23999999999999488
                },
                {
                    "name": "G2",
                    "midi": 43,
                    "time": 114.90000000000008,
                    "velocity": 0.6299212598425197,
                    "duration": 0.23999999999999488
                },
                {
                    "name": "C3",
                    "midi": 48,
                    "time": 115.20000000000007,
                    "velocity": 0.6299212598425197,
                    "duration": 0.480000000000004
                },
                {
                    "name": "C4",
                    "midi": 60,
                    "time": 116.10000000000008,
                    "velocity": 0.6299212598425197,
                    "duration": 0.23999999999999488
                },
                {
                    "name": "B3",
                    "midi": 59,
                    "time": 116.40000000000008,
                    "velocity": 0.6299212598425197,
                    "duration": 0.23999999999999488
                },
                {
                    "name": "G3",
                    "midi": 55,
                    "time": 116.70000000000007,
                    "velocity": 0.6299212598425197,
                    "duration": 0.23999999999999488
                },
                {
                    "name": "C4",
                    "midi": 60,
                    "time": 117.00000000000007,
                    "velocity": 0.6299212598425197,
                    "duration": 0.480000000000004
                },
                {
                    "name": "A3",
                    "midi": 57,
                    "time": 117.90000000000008,
                    "velocity": 0.6299212598425197,
                    "duration": 0.23999999999999488
                },
                {
                    "name": "D4",
                    "midi": 62,
                    "time": 118.20000000000007,
                    "velocity": 0.6299212598425197,
                    "duration": 0.23999999999999488
                },
                {
                    "name": "D3",
                    "midi": 50,
                    "time": 118.50000000000007,
                    "velocity": 0.6299212598425197,
                    "duration": 0.23999999999999488
                },
                {
                    "name": "G3",
                    "midi": 55,
                    "time": 118.80000000000007,
                    "velocity": 0.6299212598425197,
                    "duration": 0.480000000000004
                },
                {
                    "name": "A3",
                    "midi": 57,
                    "time": 119.70000000000007,
                    "velocity": 0.6299212598425197,
                    "duration": 0.23999999999999488
                },
                {
                    "name": "A#3",
                    "midi": 58,
                    "time": 120.00000000000007,
                    "velocity": 0.6299212598425197,
                    "duration": 0.23999999999999488
                },
                {
                    "name": "G3",
                    "midi": 55,
                    "time": 120.30000000000007,
                    "velocity": 0.6299212598425197,
                    "duration": 0.23999999999999488
                },
                {
                    "name": "C4",
                    "midi": 60,
                    "time": 120.60000000000007,
                    "velocity": 0.6299212598425197,
                    "duration": 0.480000000000004
                },
                {
                    "name": "C4",
                    "midi": 60,
                    "time": 121.50000000000007,
                    "velocity": 0.6299212598425197,
                    "duration": 0.23999999999999488
                },
                {
                    "name": "A3",
                    "midi": 57,
                    "time": 121.80000000000007,
                    "velocity": 0.6299212598425197,
                    "duration": 0.23999999999999488
                },
                {
                    "name": "F3",
                    "midi": 53,
                    "time": 122.10000000000007,
                    "velocity": 0.6299212598425197,
                    "duration": 0.23999999999999488
                },
                {
                    "name": "A#3",
                    "midi": 58,
                    "time": 122.40000000000006,
                    "velocity": 0.6299212598425197,
                    "duration": 0.480000000000004
                },
                {
                    "name": "A#3",
                    "midi": 58,
                    "time": 123.30000000000007,
                    "velocity": 0.6299212598425197,
                    "duration": 0.23999999999999488
                },
                {
                    "name": "G3",
                    "midi": 55,
                    "time": 123.60000000000007,
                    "velocity": 0.6299212598425197,
                    "duration": 0.23999999999999488
                },
                {
                    "name": "E3",
                    "midi": 52,
                    "time": 123.90000000000006,
                    "velocity": 0.6299212598425197,
                    "duration": 0.23999999999999488
                },
                {
                    "name": "A3",
                    "midi": 57,
                    "time": 124.20000000000006,
                    "velocity": 0.6299212598425197,
                    "duration": 0.480000000000004
                },
                {
                    "name": "E3",
                    "midi": 52,
                    "time": 125.10000000000007,
                    "velocity": 0.6299212598425197,
                    "duration": 0.23999999999999488
                },
                {
                    "name": "A3",
                    "midi": 57,
                    "time": 125.40000000000006,
                    "velocity": 0.6299212598425197,
                    "duration": 0.23999999999999488
                },
                {
                    "name": "E3",
                    "midi": 52,
                    "time": 125.70000000000006,
                    "velocity": 0.6299212598425197,
                    "duration": 0.23999999999999488
                },
                {
                    "name": "F3",
                    "midi": 53,
                    "time": 126.00000000000006,
                    "velocity": 0.6299212598425197,
                    "duration": 0.480000000000004
                },
                {
                    "name": "A3",
                    "midi": 57,
                    "time": 126.90000000000006,
                    "velocity": 0.6299212598425197,
                    "duration": 0.23999999999999488
                },
                {
                    "name": "D4",
                    "midi": 62,
                    "time": 127.20000000000006,
                    "velocity": 0.6299212598425197,
                    "duration": 0.23999999999999488
                },
                {
                    "name": "A3",
                    "midi": 57,
                    "time": 127.50000000000006,
                    "velocity": 0.6299212598425197,
                    "duration": 0.23999999999999488
                },
                {
                    "name": "A#3",
                    "midi": 58,
                    "time": 127.80000000000005,
                    "velocity": 0.6299212598425197,
                    "duration": 0.480000000000004
                },
                {
                    "name": "G3",
                    "midi": 55,
                    "time": 128.70000000000005,
                    "velocity": 0.6299212598425197,
                    "duration": 0.2400000000000091
                },
                {
                    "name": "C4",
                    "midi": 60,
                    "time": 129.00000000000006,
                    "velocity": 0.6299212598425197,
                    "duration": 0.2400000000000091
                },
                {
                    "name": "G3",
                    "midi": 55,
                    "time": 129.30000000000007,
                    "velocity": 0.6299212598425197,
                    "duration": 0.2400000000000091
                },
                {
                    "name": "A3",
                    "midi": 57,
                    "time": 129.60000000000008,
                    "velocity": 0.6299212598425197,
                    "duration": 0.47999999999998977
                },
                {
                    "name": "E3",
                    "midi": 52,
                    "time": 130.50000000000006,
                    "velocity": 0.6299212598425197,
                    "duration": 0.2400000000000091
                },
                {
                    "name": "F3",
                    "midi": 53,
                    "time": 130.80000000000007,
                    "velocity": 0.6299212598425197,
                    "duration": 0.2400000000000091
                },
                {
                    "name": "D3",
                    "midi": 50,
                    "time": 131.10000000000008,
                    "velocity": 0.6299212598425197,
                    "duration": 0.2400000000000091
                },
                {
                    "name": "G3",
                    "midi": 55,
                    "time": 131.4000000000001,
                    "velocity": 0.6299212598425197,
                    "duration": 0.47999999999998977
                },
                {
                    "name": "A3",
                    "midi": 57,
                    "time": 132.30000000000007,
                    "velocity": 0.6299212598425197,
                    "duration": 0.2400000000000091
                },
                {
                    "name": "A#3",
                    "midi": 58,
                    "time": 132.60000000000008,
                    "velocity": 0.6299212598425197,
                    "duration": 0.2400000000000091
                },
                {
                    "name": "G3",
                    "midi": 55,
                    "time": 132.9000000000001,
                    "velocity": 0.6299212598425197,
                    "duration": 0.2400000000000091
                },
                {
                    "name": "A3",
                    "midi": 57,
                    "time": 133.2000000000001,
                    "velocity": 0.6299212598425197,
                    "duration": 0.47999999999998977
                },
                {
                    "name": "G3",
                    "midi": 55,
                    "time": 134.10000000000008,
                    "velocity": 0.6299212598425197,
                    "duration": 0.2400000000000091
                },
                {
                    "name": "A3",
                    "midi": 57,
                    "time": 134.4000000000001,
                    "velocity": 0.6299212598425197,
                    "duration": 0.2400000000000091
                },
                {
                    "name": "A2",
                    "midi": 45,
                    "time": 134.7000000000001,
                    "velocity": 0.6299212598425197,
                    "duration": 0.2400000000000091
                },
                {
                    "name": "D3",
                    "midi": 50,
                    "time": 135.0000000000001,
                    "velocity": 0.6299212598425197,
                    "duration": 0.47999999999998977
                },
                {
                    "name": "D4",
                    "midi": 62,
                    "time": 135.9000000000001,
                    "velocity": 0.6299212598425197,
                    "duration": 0.2400000000000091
                },
                {
                    "name": "C#4",
                    "midi": 61,
                    "time": 136.2000000000001,
                    "velocity": 0.6299212598425197,
                    "duration": 0.2400000000000091
                },
                {
                    "name": "A3",
                    "midi": 57,
                    "time": 136.5000000000001,
                    "velocity": 0.6299212598425197,
                    "duration": 0.2400000000000091
                },
                {
                    "name": "D4",
                    "midi": 62,
                    "time": 136.80000000000013,
                    "velocity": 0.6299212598425197,
                    "duration": 0.47999999999998977
                },
                {
                    "name": "G3",
                    "midi": 55,
                    "time": 137.7000000000001,
                    "velocity": 0.6299212598425197,
                    "duration": 0.2400000000000091
                },
                {
                    "name": "A3",
                    "midi": 57,
                    "time": 138.0000000000001,
                    "velocity": 0.6299212598425197,
                    "duration": 0.2400000000000091
                },
                {
                    "name": "A2",
                    "midi": 45,
                    "time": 138.30000000000013,
                    "velocity": 0.6299212598425197,
                    "duration": 0.2400000000000091
                },
                {
                    "name": "D3",
                    "midi": 50,
                    "time": 138.60000000000014,
                    "velocity": 0.6299212598425197,
                    "duration": 0.960000000000008
                }
            ],
            "controlChanges": {
                "7": [
                    {
                        "number": 7,
                        "time": 0,
                        "value": 0.7322834645669292
                    }
                ],
                "10": [
                    {
                        "number": 10,
                        "time": 0,
                        "value": 0.5905511811023622
                    }
                ],
                "91": [
                    {
                        "number": 91,
                        "time": 0,
                        "value": 0.5511811023622047
                    }
                ],
                "121": [
                    {
                        "number": 121,
                        "time": 0,
                        "value": 0
                    }
                ]
            },
            "id": 5,
            "name": "Harpsichord LT",
            "instrumentNumber": 6,
            "instrument": "harpsichord",
            "instrumentFamily": "piano",
            "channelNumber": 4,
            "isPercussion": false
        },
        {
            "startTime": 0,
            "duration": 139.56000000000014,
            "length": 309,
            "notes": [
                {
                    "name": "D3",
                    "midi": 50,
                    "time": 0,
                    "velocity": 0.6299212598425197,
                    "duration": 0.48
                },
                {
                    "name": "D4",
                    "midi": 62,
                    "time": 0.8999999999999999,
                    "velocity": 0.6299212598425197,
                    "duration": 0.24
                },
                {
                    "name": "C#4",
                    "midi": 61,
                    "time": 1.2,
                    "velocity": 0.6299212598425197,
                    "duration": 0.24
                },
                {
                    "name": "A3",
                    "midi": 57,
                    "time": 1.5,
                    "velocity": 0.6299212598425197,
                    "duration": 0.24
                },
                {
                    "name": "D4",
                    "midi": 62,
                    "time": 1.8,
                    "velocity": 0.6299212598425197,
                    "duration": 0.4800000000000002
                },
                {
                    "name": "G3",
                    "midi": 55,
                    "time": 2.7,
                    "velocity": 0.6299212598425197,
                    "duration": 0.2400000000000002
                },
                {
                    "name": "A3",
                    "midi": 57,
                    "time": 3.0000000000000004,
                    "velocity": 0.6299212598425197,
                    "duration": 0.23999999999999977
                },
                {
                    "name": "A2",
                    "midi": 45,
                    "time": 3.3000000000000003,
                    "velocity": 0.6299212598425197,
                    "duration": 0.23999999999999977
                },
                {
                    "name": "D3",
                    "midi": 50,
                    "time": 3.6,
                    "velocity": 0.6299212598425197,
                    "duration": 0.48
                },
                {
                    "name": "D4",
                    "midi": 62,
                    "time": 4.5,
                    "velocity": 0.6299212598425197,
                    "duration": 0.2400000000000002
                },
                {
                    "name": "C#4",
                    "midi": 61,
                    "time": 4.8,
                    "velocity": 0.6299212598425197,
                    "duration": 0.2400000000000002
                },
                {
                    "name": "A3",
                    "midi": 57,
                    "time": 5.1,
                    "velocity": 0.6299212598425197,
                    "duration": 0.2400000000000002
                },
                {
                    "name": "D4",
                    "midi": 62,
                    "time": 5.3999999999999995,
                    "velocity": 0.6299212598425197,
                    "duration": 0.47999999999999954
                },
                {
                    "name": "G3",
                    "midi": 55,
                    "time": 6.299999999999999,
                    "velocity": 0.6299212598425197,
                    "duration": 0.2400000000000002
                },
                {
                    "name": "A3",
                    "midi": 57,
                    "time": 6.599999999999999,
                    "velocity": 0.6299212598425197,
                    "duration": 0.2400000000000002
                },
                {
                    "name": "A2",
                    "midi": 45,
                    "time": 6.899999999999999,
                    "velocity": 0.6299212598425197,
                    "duration": 0.2400000000000002
                },
                {
                    "name": "D3",
                    "midi": 50,
                    "time": 7.199999999999998,
                    "velocity": 0.6299212598425197,
                    "duration": 0.47999999999999954
                },
                {
                    "name": "D4",
                    "midi": 62,
                    "time": 8.099999999999998,
                    "velocity": 0.6299212598425197,
                    "duration": 0.2400000000000002
                },
                {
                    "name": "C#4",
                    "midi": 61,
                    "time": 8.399999999999999,
                    "velocity": 0.6299212598425197,
                    "duration": 0.2400000000000002
                },
                {
                    "name": "A3",
                    "midi": 57,
                    "time": 8.7,
                    "velocity": 0.6299212598425197,
                    "duration": 0.2400000000000002
                },
                {
                    "name": "D4",
                    "midi": 62,
                    "time": 9,
                    "velocity": 0.6299212598425197,
                    "duration": 0.4800000000000004
                },
                {
                    "name": "G3",
                    "midi": 55,
                    "time": 9.9,
                    "velocity": 0.6299212598425197,
                    "duration": 0.2400000000000002
                },
                {
                    "name": "A3",
                    "midi": 57,
                    "time": 10.200000000000001,
                    "velocity": 0.6299212598425197,
                    "duration": 0.2400000000000002
                },
                {
                    "name": "A2",
                    "midi": 45,
                    "time": 10.500000000000002,
                    "velocity": 0.6299212598425197,
                    "duration": 0.2400000000000002
                },
                {
                    "name": "D3",
                    "midi": 50,
                    "time": 10.800000000000002,
                    "velocity": 0.6299212598425197,
                    "duration": 0.4800000000000004
                },
                {
                    "name": "D4",
                    "midi": 62,
                    "time": 11.700000000000003,
                    "velocity": 0.6299212598425197,
                    "duration": 0.2400000000000002
                },
                {
                    "name": "A#3",
                    "midi": 58,
                    "time": 12.000000000000004,
                    "velocity": 0.6299212598425197,
                    "duration": 0.2400000000000002
                },
                {
                    "name": "G3",
                    "midi": 55,
                    "time": 12.300000000000004,
                    "velocity": 0.6299212598425197,
                    "duration": 0.2400000000000002
                },
                {
                    "name": "C4",
                    "midi": 60,
                    "time": 12.600000000000005,
                    "velocity": 0.6299212598425197,
                    "duration": 0.4800000000000004
                },
                {
                    "name": "C4",
                    "midi": 60,
                    "time": 13.500000000000005,
                    "velocity": 0.6299212598425197,
                    "duration": 0.2400000000000002
                },
                {
                    "name": "A3",
                    "midi": 57,
                    "time": 13.800000000000006,
                    "velocity": 0.6299212598425197,
                    "duration": 0.2400000000000002
                },
                {
                    "name": "F3",
                    "midi": 53,
                    "time": 14.100000000000007,
                    "velocity": 0.6299212598425197,
                    "duration": 0.2400000000000002
                },
                {
                    "name": "A#3",
                    "midi": 58,
                    "time": 14.400000000000007,
                    "velocity": 0.6299212598425197,
                    "duration": 0.4800000000000004
                },
                {
                    "name": "G3",
                    "midi": 55,
                    "time": 15.300000000000008,
                    "velocity": 0.6299212598425197,
                    "duration": 0.2400000000000002
                },
                {
                    "name": "C4",
                    "midi": 60,
                    "time": 15.600000000000009,
                    "velocity": 0.6299212598425197,
                    "duration": 0.2400000000000002
                },
                {
                    "name": "C3",
                    "midi": 48,
                    "time": 15.90000000000001,
                    "velocity": 0.6299212598425197,
                    "duration": 0.23999999999999844
                },
                {
                    "name": "F3",
                    "midi": 53,
                    "time": 16.200000000000006,
                    "velocity": 0.6299212598425197,
                    "duration": 0.4800000000000004
                },
                {
                    "name": "G3",
                    "midi": 55,
                    "time": 17.10000000000001,
                    "velocity": 0.6299212598425197,
                    "duration": 0.23999999999999844
                },
                {
                    "name": "A3",
                    "midi": 57,
                    "time": 17.400000000000006,
                    "velocity": 0.6299212598425197,
                    "duration": 0.23999999999999844
                },
                {
                    "name": "A2",
                    "midi": 45,
                    "time": 17.700000000000003,
                    "velocity": 0.6299212598425197,
                    "duration": 0.23999999999999844
                },
                {
                    "name": "D3",
                    "midi": 50,
                    "time": 18,
                    "velocity": 0.6299212598425197,
                    "duration": 0.4800000000000004
                },
                {
                    "name": "D4",
                    "midi": 62,
                    "time": 18.900000000000002,
                    "velocity": 0.6299212598425197,
                    "duration": 0.23999999999999844
                },
                {
                    "name": "C#4",
                    "midi": 61,
                    "time": 19.2,
                    "velocity": 0.6299212598425197,
                    "duration": 0.23999999999999844
                },
                {
                    "name": "A3",
                    "midi": 57,
                    "time": 19.499999999999996,
                    "velocity": 0.6299212598425197,
                    "duration": 0.23999999999999844
                },
                {
                    "name": "D4",
                    "midi": 62,
                    "time": 19.799999999999994,
                    "velocity": 0.6299212598425197,
                    "duration": 0.4800000000000004
                },
                {
                    "name": "G3",
                    "midi": 55,
                    "time": 20.699999999999996,
                    "velocity": 0.6299212598425197,
                    "duration": 0.23999999999999844
                },
                {
                    "name": "A3",
                    "midi": 57,
                    "time": 20.999999999999993,
                    "velocity": 0.6299212598425197,
                    "duration": 0.23999999999999844
                },
                {
                    "name": "A2",
                    "midi": 45,
                    "time": 21.29999999999999,
                    "velocity": 0.6299212598425197,
                    "duration": 0.23999999999999844
                },
                {
                    "name": "D3",
                    "midi": 50,
                    "time": 21.599999999999987,
                    "velocity": 0.6299212598425197,
                    "duration": 0.4800000000000004
                },
                {
                    "name": "D4",
                    "midi": 62,
                    "time": 22.49999999999999,
                    "velocity": 0.6299212598425197,
                    "duration": 0.23999999999999844
                },
                {
                    "name": "C#4",
                    "midi": 61,
                    "time": 22.799999999999986,
                    "velocity": 0.6299212598425197,
                    "duration": 0.23999999999999844
                },
                {
                    "name": "A3",
                    "midi": 57,
                    "time": 23.099999999999984,
                    "velocity": 0.6299212598425197,
                    "duration": 0.23999999999999844
                },
                {
                    "name": "D4",
                    "midi": 62,
                    "time": 23.39999999999998,
                    "velocity": 0.6299212598425197,
                    "duration": 0.4800000000000004
                },
                {
                    "name": "G3",
                    "midi": 55,
                    "time": 24.299999999999983,
                    "velocity": 0.6299212598425197,
                    "duration": 0.23999999999999844
                },
                {
                    "name": "A3",
                    "midi": 57,
                    "time": 24.59999999999998,
                    "velocity": 0.6299212598425197,
                    "duration": 0.23999999999999844
                },
                {
                    "name": "A2",
                    "midi": 45,
                    "time": 24.899999999999977,
                    "velocity": 0.6299212598425197,
                    "duration": 0.23999999999999844
                },
                {
                    "name": "D3",
                    "midi": 50,
                    "time": 25.199999999999974,
                    "velocity": 0.6299212598425197,
                    "duration": 0.4800000000000004
                },
                {
                    "name": "F3",
                    "midi": 53,
                    "time": 26.099999999999977,
                    "velocity": 0.6299212598425197,
                    "duration": 0.23999999999999844
                },
                {
                    "name": "E3",
                    "midi": 52,
                    "time": 26.399999999999974,
                    "velocity": 0.6299212598425197,
                    "duration": 0.23999999999999844
                },
                {
                    "name": "C3",
                    "midi": 48,
                    "time": 26.69999999999997,
                    "velocity": 0.6299212598425197,
                    "duration": 0.23999999999999844
                },
                {
                    "name": "F3",
                    "midi": 53,
                    "time": 26.999999999999968,
                    "velocity": 0.6299212598425197,
                    "duration": 0.4800000000000004
                },
                {
                    "name": "G3",
                    "midi": 55,
                    "time": 27.89999999999997,
                    "velocity": 0.6299212598425197,
                    "duration": 0.23999999999999844
                },
                {
                    "name": "A3",
                    "midi": 57,
                    "time": 28.199999999999967,
                    "velocity": 0.6299212598425197,
                    "duration": 0.23999999999999844
                },
                {
                    "name": "F3",
                    "midi": 53,
                    "time": 28.499999999999964,
                    "velocity": 0.6299212598425197,
                    "duration": 0.23999999999999844
                },
                {
                    "name": "A#3",
                    "midi": 58,
                    "time": 28.79999999999996,
                    "velocity": 0.6299212598425197,
                    "duration": 0.4800000000000004
                },
                {
                    "name": "G3",
                    "midi": 55,
                    "time": 29.699999999999964,
                    "velocity": 0.6299212598425197,
                    "duration": 0.23999999999999844
                },
                {
                    "name": "C4",
                    "midi": 60,
                    "time": 29.99999999999996,
                    "velocity": 0.6299212598425197,
                    "duration": 0.23999999999999844
                },
                {
                    "name": "C3",
                    "midi": 48,
                    "time": 30.299999999999958,
                    "velocity": 0.6299212598425197,
                    "duration": 0.23999999999999844
                },
                {
                    "name": "F3",
                    "midi": 53,
                    "time": 30.599999999999955,
                    "velocity": 0.6299212598425197,
                    "duration": 0.4800000000000004
                },
                {
                    "name": "A#2",
                    "midi": 46,
                    "time": 31.499999999999957,
                    "velocity": 0.6299212598425197,
                    "duration": 0.23999999999999844
                },
                {
                    "name": "C3",
                    "midi": 48,
                    "time": 31.799999999999955,
                    "velocity": 0.6299212598425197,
                    "duration": 0.240000000000002
                },
                {
                    "name": "C2",
                    "midi": 36,
                    "time": 32.09999999999996,
                    "velocity": 0.6299212598425197,
                    "duration": 0.240000000000002
                },
                {
                    "name": "F2",
                    "midi": 41,
                    "time": 32.39999999999996,
                    "velocity": 0.6299212598425197,
                    "duration": 0.4799999999999969
                },
                {
                    "name": "F3",
                    "midi": 53,
                    "time": 33.29999999999996,
                    "velocity": 0.6299212598425197,
                    "duration": 0.240000000000002
                },
                {
                    "name": "E3",
                    "midi": 52,
                    "time": 33.599999999999966,
                    "velocity": 0.6299212598425197,
                    "duration": 0.240000000000002
                },
                {
                    "name": "C3",
                    "midi": 48,
                    "time": 33.89999999999997,
                    "velocity": 0.6299212598425197,
                    "duration": 0.240000000000002
                },
                {
                    "name": "F3",
                    "midi": 53,
                    "time": 34.199999999999974,
                    "velocity": 0.6299212598425197,
                    "duration": 0.4799999999999969
                },
                {
                    "name": "G3",
                    "midi": 55,
                    "time": 35.09999999999997,
                    "velocity": 0.6299212598425197,
                    "duration": 0.240000000000002
                },
                {
                    "name": "A3",
                    "midi": 57,
                    "time": 35.39999999999998,
                    "velocity": 0.6299212598425197,
                    "duration": 0.240000000000002
                },
                {
                    "name": "F3",
                    "midi": 53,
                    "time": 35.69999999999998,
                    "velocity": 0.6299212598425197,
                    "duration": 0.240000000000002
                },
                {
                    "name": "A#3",
                    "midi": 58,
                    "time": 35.999999999999986,
                    "velocity": 0.6299212598425197,
                    "duration": 0.4799999999999969
                },
                {
                    "name": "G3",
                    "midi": 55,
                    "time": 36.899999999999984,
                    "velocity": 0.6299212598425197,
                    "duration": 0.240000000000002
                },
                {
                    "name": "C4",
                    "midi": 60,
                    "time": 37.19999999999999,
                    "velocity": 0.6299212598425197,
                    "duration": 0.240000000000002
                },
                {
                    "name": "C3",
                    "midi": 48,
                    "time": 37.49999999999999,
                    "velocity": 0.6299212598425197,
                    "duration": 0.240000000000002
                },
                {
                    "name": "F3",
                    "midi": 53,
                    "time": 37.8,
                    "velocity": 0.6299212598425197,
                    "duration": 0.4799999999999969
                },
                {
                    "name": "G3",
                    "midi": 55,
                    "time": 38.699999999999996,
                    "velocity": 0.6299212598425197,
                    "duration": 0.240000000000002
                },
                {
                    "name": "F3",
                    "midi": 53,
                    "time": 39,
                    "velocity": 0.6299212598425197,
                    "duration": 0.240000000000002
                },
                {
                    "name": "E3",
                    "midi": 52,
                    "time": 39.300000000000004,
                    "velocity": 0.6299212598425197,
                    "duration": 0.240000000000002
                },
                {
                    "name": "D3",
                    "midi": 50,
                    "time": 39.60000000000001,
                    "velocity": 0.6299212598425197,
                    "duration": 0.4799999999999969
                },
                {
                    "name": "D4",
                    "midi": 62,
                    "time": 40.50000000000001,
                    "velocity": 0.6299212598425197,
                    "duration": 0.240000000000002
                },
                {
                    "name": "C#4",
                    "midi": 61,
                    "time": 40.80000000000001,
                    "velocity": 0.6299212598425197,
                    "duration": 0.240000000000002
                },
                {
                    "name": "A3",
                    "midi": 57,
                    "time": 41.100000000000016,
                    "velocity": 0.6299212598425197,
                    "duration": 0.240000000000002
                },
                {
                    "name": "D4",
                    "midi": 62,
                    "time": 41.40000000000002,
                    "velocity": 0.6299212598425197,
                    "duration": 0.4799999999999969
                },
                {
                    "name": "G3",
                    "midi": 55,
                    "time": 42.30000000000002,
                    "velocity": 0.6299212598425197,
                    "duration": 0.240000000000002
                },
                {
                    "name": "A3",
                    "midi": 57,
                    "time": 42.60000000000002,
                    "velocity": 0.6299212598425197,
                    "duration": 0.240000000000002
                },
                {
                    "name": "A2",
                    "midi": 45,
                    "time": 42.90000000000003,
                    "velocity": 0.6299212598425197,
                    "duration": 0.240000000000002
                },
                {
                    "name": "D3",
                    "midi": 50,
                    "time": 43.20000000000003,
                    "velocity": 0.6299212598425197,
                    "duration": 0.4799999999999969
                },
                {
                    "name": "D4",
                    "midi": 62,
                    "time": 44.10000000000003,
                    "velocity": 0.6299212598425197,
                    "duration": 0.240000000000002
                },
                {
                    "name": "C#4",
                    "midi": 61,
                    "time": 44.400000000000034,
                    "velocity": 0.6299212598425197,
                    "duration": 0.240000000000002
                },
                {
                    "name": "A3",
                    "midi": 57,
                    "time": 44.70000000000004,
                    "velocity": 0.6299212598425197,
                    "duration": 0.240000000000002
                },
                {
                    "name": "D4",
                    "midi": 62,
                    "time": 45.00000000000004,
                    "velocity": 0.6299212598425197,
                    "duration": 0.4799999999999969
                },
                {
                    "name": "G3",
                    "midi": 55,
                    "time": 45.90000000000004,
                    "velocity": 0.6299212598425197,
                    "duration": 0.240000000000002
                },
                {
                    "name": "A3",
                    "midi": 57,
                    "time": 46.200000000000045,
                    "velocity": 0.6299212598425197,
                    "duration": 0.240000000000002
                },
                {
                    "name": "A2",
                    "midi": 45,
                    "time": 46.50000000000005,
                    "velocity": 0.6299212598425197,
                    "duration": 0.240000000000002
                },
                {
                    "name": "D3",
                    "midi": 50,
                    "time": 46.800000000000054,
                    "velocity": 0.6299212598425197,
                    "duration": 0.4799999999999969
                },
                {
                    "name": "D4",
                    "midi": 62,
                    "time": 47.70000000000005,
                    "velocity": 0.6299212598425197,
                    "duration": 0.240000000000002
                },
                {
                    "name": "A#3",
                    "midi": 58,
                    "time": 48.00000000000006,
                    "velocity": 0.6299212598425197,
                    "duration": 0.240000000000002
                },
                {
                    "name": "G3",
                    "midi": 55,
                    "time": 48.30000000000006,
                    "velocity": 0.6299212598425197,
                    "duration": 0.240000000000002
                },
                {
                    "name": "C4",
                    "midi": 60,
                    "time": 48.600000000000065,
                    "velocity": 0.6299212598425197,
                    "duration": 0.4799999999999969
                },
                {
                    "name": "C4",
                    "midi": 60,
                    "time": 49.500000000000064,
                    "velocity": 0.6299212598425197,
                    "duration": 0.240000000000002
                },
                {
                    "name": "A3",
                    "midi": 57,
                    "time": 49.80000000000007,
                    "velocity": 0.6299212598425197,
                    "duration": 0.240000000000002
                },
                {
                    "name": "F3",
                    "midi": 53,
                    "time": 50.10000000000007,
                    "velocity": 0.6299212598425197,
                    "duration": 0.240000000000002
                },
                {
                    "name": "A#3",
                    "midi": 58,
                    "time": 50.40000000000008,
                    "velocity": 0.6299212598425197,
                    "duration": 0.4799999999999969
                },
                {
                    "name": "G3",
                    "midi": 55,
                    "time": 51.300000000000075,
                    "velocity": 0.6299212598425197,
                    "duration": 0.240000000000002
                },
                {
                    "name": "C4",
                    "midi": 60,
                    "time": 51.60000000000008,
                    "velocity": 0.6299212598425197,
                    "duration": 0.240000000000002
                },
                {
                    "name": "C3",
                    "midi": 48,
                    "time": 51.900000000000084,
                    "velocity": 0.6299212598425197,
                    "duration": 0.240000000000002
                },
                {
                    "name": "F3",
                    "midi": 53,
                    "time": 52.20000000000009,
                    "velocity": 0.6299212598425197,
                    "duration": 0.4799999999999969
                },
                {
                    "name": "G3",
                    "midi": 55,
                    "time": 53.10000000000009,
                    "velocity": 0.6299212598425197,
                    "duration": 0.240000000000002
                },
                {
                    "name": "A3",
                    "midi": 57,
                    "time": 53.40000000000009,
                    "velocity": 0.6299212598425197,
                    "duration": 0.240000000000002
                },
                {
                    "name": "A2",
                    "midi": 45,
                    "time": 53.700000000000095,
                    "velocity": 0.6299212598425197,
                    "duration": 0.240000000000002
                },
                {
                    "name": "D3",
                    "midi": 50,
                    "time": 54.0000000000001,
                    "velocity": 0.6299212598425197,
                    "duration": 0.4799999999999969
                },
                {
                    "name": "D4",
                    "midi": 62,
                    "time": 54.9000000000001,
                    "velocity": 0.6299212598425197,
                    "duration": 0.240000000000002
                },
                {
                    "name": "C#4",
                    "midi": 61,
                    "time": 55.2000000000001,
                    "velocity": 0.6299212598425197,
                    "duration": 0.240000000000002
                },
                {
                    "name": "A3",
                    "midi": 57,
                    "time": 55.50000000000011,
                    "velocity": 0.6299212598425197,
                    "duration": 0.240000000000002
                },
                {
                    "name": "D4",
                    "midi": 62,
                    "time": 55.80000000000011,
                    "velocity": 0.6299212598425197,
                    "duration": 0.4799999999999969
                },
                {
                    "name": "G3",
                    "midi": 55,
                    "time": 56.70000000000011,
                    "velocity": 0.6299212598425197,
                    "duration": 0.240000000000002
                },
                {
                    "name": "A3",
                    "midi": 57,
                    "time": 57.000000000000114,
                    "velocity": 0.6299212598425197,
                    "duration": 0.240000000000002
                },
                {
                    "name": "A2",
                    "midi": 45,
                    "time": 57.30000000000012,
                    "velocity": 0.6299212598425197,
                    "duration": 0.240000000000002
                },
                {
                    "name": "D3",
                    "midi": 50,
                    "time": 57.60000000000012,
                    "velocity": 0.6299212598425197,
                    "duration": 0.4799999999999969
                },
                {
                    "name": "D4",
                    "midi": 62,
                    "time": 58.50000000000012,
                    "velocity": 0.6299212598425197,
                    "duration": 0.240000000000002
                },
                {
                    "name": "C#4",
                    "midi": 61,
                    "time": 58.800000000000125,
                    "velocity": 0.6299212598425197,
                    "duration": 0.240000000000002
                },
                {
                    "name": "A3",
                    "midi": 57,
                    "time": 59.10000000000013,
                    "velocity": 0.6299212598425197,
                    "duration": 0.240000000000002
                },
                {
                    "name": "D4",
                    "midi": 62,
                    "time": 59.400000000000134,
                    "velocity": 0.6299212598425197,
                    "duration": 0.4799999999999969
                },
                {
                    "name": "G3",
                    "midi": 55,
                    "time": 60.30000000000013,
                    "velocity": 0.6299212598425197,
                    "duration": 0.240000000000002
                },
                {
                    "name": "A3",
                    "midi": 57,
                    "time": 60.600000000000136,
                    "velocity": 0.6299212598425197,
                    "duration": 0.240000000000002
                },
                {
                    "name": "A2",
                    "midi": 45,
                    "time": 60.90000000000014,
                    "velocity": 0.6299212598425197,
                    "duration": 0.240000000000002
                },
                {
                    "name": "D3",
                    "midi": 50,
                    "time": 61.200000000000145,
                    "velocity": 0.6299212598425197,
                    "duration": 0.4799999999999969
                },
                {
                    "name": "F3",
                    "midi": 53,
                    "time": 62.10000000000014,
                    "velocity": 0.6299212598425197,
                    "duration": 0.240000000000002
                },
                {
                    "name": "E3",
                    "midi": 52,
                    "time": 62.40000000000015,
                    "velocity": 0.6299212598425197,
                    "duration": 0.240000000000002
                },
                {
                    "name": "C3",
                    "midi": 48,
                    "time": 62.70000000000015,
                    "velocity": 0.6299212598425197,
                    "duration": 0.240000000000002
                },
                {
                    "name": "F3",
                    "midi": 53,
                    "time": 63.000000000000156,
                    "velocity": 0.6299212598425197,
                    "duration": 0.4799999999999969
                },
                {
                    "name": "G3",
                    "midi": 55,
                    "time": 63.900000000000155,
                    "velocity": 0.6299212598425197,
                    "duration": 0.240000000000002
                },
                {
                    "name": "A3",
                    "midi": 57,
                    "time": 64.20000000000016,
                    "velocity": 0.6299212598425197,
                    "duration": 0.23999999999999488
                },
                {
                    "name": "F3",
                    "midi": 53,
                    "time": 64.50000000000016,
                    "velocity": 0.6299212598425197,
                    "duration": 0.23999999999999488
                },
                {
                    "name": "A#3",
                    "midi": 58,
                    "time": 64.80000000000015,
                    "velocity": 0.6299212598425197,
                    "duration": 0.480000000000004
                },
                {
                    "name": "G3",
                    "midi": 55,
                    "time": 65.70000000000016,
                    "velocity": 0.6299212598425197,
                    "duration": 0.23999999999999488
                },
                {
                    "name": "C4",
                    "midi": 60,
                    "time": 66.00000000000016,
                    "velocity": 0.6299212598425197,
                    "duration": 0.23999999999999488
                },
                {
                    "name": "C3",
                    "midi": 48,
                    "time": 66.30000000000015,
                    "velocity": 0.6299212598425197,
                    "duration": 0.23999999999999488
                },
                {
                    "name": "F3",
                    "midi": 53,
                    "time": 66.60000000000015,
                    "velocity": 0.6299212598425197,
                    "duration": 0.480000000000004
                },
                {
                    "name": "A#2",
                    "midi": 46,
                    "time": 67.50000000000016,
                    "velocity": 0.6299212598425197,
                    "duration": 0.23999999999999488
                },
                {
                    "name": "C3",
                    "midi": 48,
                    "time": 67.80000000000015,
                    "velocity": 0.6299212598425197,
                    "duration": 0.23999999999999488
                },
                {
                    "name": "C2",
                    "midi": 36,
                    "time": 68.10000000000015,
                    "velocity": 0.6299212598425197,
                    "duration": 0.23999999999999488
                },
                {
                    "name": "F2",
                    "midi": 41,
                    "time": 68.40000000000015,
                    "velocity": 0.6299212598425197,
                    "duration": 0.480000000000004
                },
                {
                    "name": "F3",
                    "midi": 53,
                    "time": 69.30000000000015,
                    "velocity": 0.6299212598425197,
                    "duration": 0.23999999999999488
                },
                {
                    "name": "E3",
                    "midi": 52,
                    "time": 69.60000000000015,
                    "velocity": 0.6299212598425197,
                    "duration": 0.23999999999999488
                },
                {
                    "name": "C3",
                    "midi": 48,
                    "time": 69.90000000000015,
                    "velocity": 0.6299212598425197,
                    "duration": 0.23999999999999488
                },
                {
                    "name": "F3",
                    "midi": 53,
                    "time": 70.20000000000014,
                    "velocity": 0.6299212598425197,
                    "duration": 0.480000000000004
                },
                {
                    "name": "G3",
                    "midi": 55,
                    "time": 71.10000000000015,
                    "velocity": 0.6299212598425197,
                    "duration": 0.23999999999999488
                },
                {
                    "name": "A3",
                    "midi": 57,
                    "time": 71.40000000000015,
                    "velocity": 0.6299212598425197,
                    "duration": 0.23999999999999488
                },
                {
                    "name": "F3",
                    "midi": 53,
                    "time": 71.70000000000014,
                    "velocity": 0.6299212598425197,
                    "duration": 0.23999999999999488
                },
                {
                    "name": "A#3",
                    "midi": 58,
                    "time": 72.00000000000014,
                    "velocity": 0.6299212598425197,
                    "duration": 0.480000000000004
                },
                {
                    "name": "G3",
                    "midi": 55,
                    "time": 72.90000000000015,
                    "velocity": 0.6299212598425197,
                    "duration": 0.23999999999999488
                },
                {
                    "name": "C4",
                    "midi": 60,
                    "time": 73.20000000000014,
                    "velocity": 0.6299212598425197,
                    "duration": 0.23999999999999488
                },
                {
                    "name": "C3",
                    "midi": 48,
                    "time": 73.50000000000014,
                    "velocity": 0.6299212598425197,
                    "duration": 0.23999999999999488
                },
                {
                    "name": "F3",
                    "midi": 53,
                    "time": 73.80000000000014,
                    "velocity": 0.6299212598425197,
                    "duration": 0.480000000000004
                },
                {
                    "name": "F3",
                    "midi": 53,
                    "time": 74.70000000000014,
                    "velocity": 0.6299212598425197,
                    "duration": 0.23999999999999488
                },
                {
                    "name": "E3",
                    "midi": 52,
                    "time": 75.00000000000014,
                    "velocity": 0.6299212598425197,
                    "duration": 0.23999999999999488
                },
                {
                    "name": "C3",
                    "midi": 48,
                    "time": 75.30000000000014,
                    "velocity": 0.6299212598425197,
                    "duration": 0.23999999999999488
                },
                {
                    "name": "F3",
                    "midi": 53,
                    "time": 75.60000000000014,
                    "velocity": 0.6299212598425197,
                    "duration": 0.480000000000004
                },
                {
                    "name": "A#2",
                    "midi": 46,
                    "time": 76.50000000000014,
                    "velocity": 0.6299212598425197,
                    "duration": 0.23999999999999488
                },
                {
                    "name": "C3",
                    "midi": 48,
                    "time": 76.80000000000014,
                    "velocity": 0.6299212598425197,
                    "duration": 0.23999999999999488
                },
                {
                    "name": "C2",
                    "midi": 36,
                    "time": 77.10000000000014,
                    "velocity": 0.6299212598425197,
                    "duration": 0.23999999999999488
                },
                {
                    "name": "F2",
                    "midi": 41,
                    "time": 77.40000000000013,
                    "velocity": 0.6299212598425197,
                    "duration": 0.480000000000004
                },
                {
                    "name": "F3",
                    "midi": 53,
                    "time": 78.30000000000014,
                    "velocity": 0.6299212598425197,
                    "duration": 0.23999999999999488
                },
                {
                    "name": "E3",
                    "midi": 52,
                    "time": 78.60000000000014,
                    "velocity": 0.6299212598425197,
                    "duration": 0.23999999999999488
                },
                {
                    "name": "C3",
                    "midi": 48,
                    "time": 78.90000000000013,
                    "velocity": 0.6299212598425197,
                    "duration": 0.23999999999999488
                },
                {
                    "name": "F3",
                    "midi": 53,
                    "time": 79.20000000000013,
                    "velocity": 0.6299212598425197,
                    "duration": 0.480000000000004
                },
                {
                    "name": "D3",
                    "midi": 50,
                    "time": 80.10000000000014,
                    "velocity": 0.6299212598425197,
                    "duration": 0.23999999999999488
                },
                {
                    "name": "G3",
                    "midi": 55,
                    "time": 80.40000000000013,
                    "velocity": 0.6299212598425197,
                    "duration": 0.23999999999999488
                },
                {
                    "name": "G2",
                    "midi": 43,
                    "time": 80.70000000000013,
                    "velocity": 0.6299212598425197,
                    "duration": 0.23999999999999488
                },
                {
                    "name": "C3",
                    "midi": 48,
                    "time": 81.00000000000013,
                    "velocity": 0.6299212598425197,
                    "duration": 0.480000000000004
                },
                {
                    "name": "C4",
                    "midi": 60,
                    "time": 81.90000000000013,
                    "velocity": 0.6299212598425197,
                    "duration": 0.23999999999999488
                },
                {
                    "name": "B3",
                    "midi": 59,
                    "time": 82.20000000000013,
                    "velocity": 0.6299212598425197,
                    "duration": 0.23999999999999488
                },
                {
                    "name": "G3",
                    "midi": 55,
                    "time": 82.50000000000013,
                    "velocity": 0.6299212598425197,
                    "duration": 0.23999999999999488
                },
                {
                    "name": "C4",
                    "midi": 60,
                    "time": 82.80000000000013,
                    "velocity": 0.6299212598425197,
                    "duration": 0.480000000000004
                },
                {
                    "name": "F3",
                    "midi": 53,
                    "time": 83.70000000000013,
                    "velocity": 0.6299212598425197,
                    "duration": 0.23999999999999488
                },
                {
                    "name": "G3",
                    "midi": 55,
                    "time": 84.00000000000013,
                    "velocity": 0.6299212598425197,
                    "duration": 0.23999999999999488
                },
                {
                    "name": "G2",
                    "midi": 43,
                    "time": 84.30000000000013,
                    "velocity": 0.6299212598425197,
                    "duration": 0.23999999999999488
                },
                {
                    "name": "C3",
                    "midi": 48,
                    "time": 84.60000000000012,
                    "velocity": 0.6299212598425197,
                    "duration": 0.480000000000004
                },
                {
                    "name": "C4",
                    "midi": 60,
                    "time": 85.50000000000013,
                    "velocity": 0.6299212598425197,
                    "duration": 0.23999999999999488
                },
                {
                    "name": "B3",
                    "midi": 59,
                    "time": 85.80000000000013,
                    "velocity": 0.6299212598425197,
                    "duration": 0.23999999999999488
                },
                {
                    "name": "G3",
                    "midi": 55,
                    "time": 86.10000000000012,
                    "velocity": 0.6299212598425197,
                    "duration": 0.23999999999999488
                },
                {
                    "name": "C4",
                    "midi": 60,
                    "time": 86.40000000000012,
                    "velocity": 0.6299212598425197,
                    "duration": 0.480000000000004
                },
                {
                    "name": "A3",
                    "midi": 57,
                    "time": 87.30000000000013,
                    "velocity": 0.6299212598425197,
                    "duration": 0.23999999999999488
                },
                {
                    "name": "D4",
                    "midi": 62,
                    "time": 87.60000000000012,
                    "velocity": 0.6299212598425197,
                    "duration": 0.23999999999999488
                },
                {
                    "name": "D3",
                    "midi": 50,
                    "time": 87.90000000000012,
                    "velocity": 0.6299212598425197,
                    "duration": 0.23999999999999488
                },
                {
                    "name": "G3",
                    "midi": 55,
                    "time": 88.20000000000012,
                    "velocity": 0.6299212598425197,
                    "duration": 0.480000000000004
                },
                {
                    "name": "A3",
                    "midi": 57,
                    "time": 89.10000000000012,
                    "velocity": 0.6299212598425197,
                    "duration": 0.23999999999999488
                },
                {
                    "name": "A#3",
                    "midi": 58,
                    "time": 89.40000000000012,
                    "velocity": 0.6299212598425197,
                    "duration": 0.23999999999999488
                },
                {
                    "name": "G3",
                    "midi": 55,
                    "time": 89.70000000000012,
                    "velocity": 0.6299212598425197,
                    "duration": 0.23999999999999488
                },
                {
                    "name": "C4",
                    "midi": 60,
                    "time": 90.00000000000011,
                    "velocity": 0.6299212598425197,
                    "duration": 0.480000000000004
                },
                {
                    "name": "C4",
                    "midi": 60,
                    "time": 90.90000000000012,
                    "velocity": 0.6299212598425197,
                    "duration": 0.23999999999999488
                },
                {
                    "name": "A3",
                    "midi": 57,
                    "time": 91.20000000000012,
                    "velocity": 0.6299212598425197,
                    "duration": 0.23999999999999488
                },
                {
                    "name": "F3",
                    "midi": 53,
                    "time": 91.50000000000011,
                    "velocity": 0.6299212598425197,
                    "duration": 0.23999999999999488
                },
                {
                    "name": "A#3",
                    "midi": 58,
                    "time": 91.80000000000011,
                    "velocity": 0.6299212598425197,
                    "duration": 0.480000000000004
                },
                {
                    "name": "A#3",
                    "midi": 58,
                    "time": 92.70000000000012,
                    "velocity": 0.6299212598425197,
                    "duration": 0.23999999999999488
                },
                {
                    "name": "G3",
                    "midi": 55,
                    "time": 93.00000000000011,
                    "velocity": 0.6299212598425197,
                    "duration": 0.23999999999999488
                },
                {
                    "name": "E3",
                    "midi": 52,
                    "time": 93.30000000000011,
                    "velocity": 0.6299212598425197,
                    "duration": 0.23999999999999488
                },
                {
                    "name": "A3",
                    "midi": 57,
                    "time": 93.60000000000011,
                    "velocity": 0.6299212598425197,
                    "duration": 0.480000000000004
                },
                {
                    "name": "E3",
                    "midi": 52,
                    "time": 94.50000000000011,
                    "velocity": 0.6299212598425197,
                    "duration": 0.23999999999999488
                },
                {
                    "name": "A3",
                    "midi": 57,
                    "time": 94.80000000000011,
                    "velocity": 0.6299212598425197,
                    "duration": 0.23999999999999488
                },
                {
                    "name": "E3",
                    "midi": 52,
                    "time": 95.10000000000011,
                    "velocity": 0.6299212598425197,
                    "duration": 0.23999999999999488
                },
                {
                    "name": "F3",
                    "midi": 53,
                    "time": 95.4000000000001,
                    "velocity": 0.6299212598425197,
                    "duration": 0.480000000000004
                },
                {
                    "name": "A3",
                    "midi": 57,
                    "time": 96.30000000000011,
                    "velocity": 0.6299212598425197,
                    "duration": 0.23999999999999488
                },
                {
                    "name": "D4",
                    "midi": 62,
                    "time": 96.60000000000011,
                    "velocity": 0.6299212598425197,
                    "duration": 0.23999999999999488
                },
                {
                    "name": "A3",
                    "midi": 57,
                    "time": 96.9000000000001,
                    "velocity": 0.6299212598425197,
                    "duration": 0.23999999999999488
                },
                {
                    "name": "A#3",
                    "midi": 58,
                    "time": 97.2000000000001,
                    "velocity": 0.6299212598425197,
                    "duration": 0.480000000000004
                },
                {
                    "name": "G3",
                    "midi": 55,
                    "time": 98.10000000000011,
                    "velocity": 0.6299212598425197,
                    "duration": 0.23999999999999488
                },
                {
                    "name": "C4",
                    "midi": 60,
                    "time": 98.4000000000001,
                    "velocity": 0.6299212598425197,
                    "duration": 0.23999999999999488
                },
                {
                    "name": "G3",
                    "midi": 55,
                    "time": 98.7000000000001,
                    "velocity": 0.6299212598425197,
                    "duration": 0.23999999999999488
                },
                {
                    "name": "A3",
                    "midi": 57,
                    "time": 99.0000000000001,
                    "velocity": 0.6299212598425197,
                    "duration": 0.480000000000004
                },
                {
                    "name": "E3",
                    "midi": 52,
                    "time": 99.9000000000001,
                    "velocity": 0.6299212598425197,
                    "duration": 0.23999999999999488
                },
                {
                    "name": "F3",
                    "midi": 53,
                    "time": 100.2000000000001,
                    "velocity": 0.6299212598425197,
                    "duration": 0.23999999999999488
                },
                {
                    "name": "D3",
                    "midi": 50,
                    "time": 100.5000000000001,
                    "velocity": 0.6299212598425197,
                    "duration": 0.23999999999999488
                },
                {
                    "name": "G3",
                    "midi": 55,
                    "time": 100.8000000000001,
                    "velocity": 0.6299212598425197,
                    "duration": 0.480000000000004
                },
                {
                    "name": "A3",
                    "midi": 57,
                    "time": 101.7000000000001,
                    "velocity": 0.6299212598425197,
                    "duration": 0.23999999999999488
                },
                {
                    "name": "A#3",
                    "midi": 58,
                    "time": 102.0000000000001,
                    "velocity": 0.6299212598425197,
                    "duration": 0.23999999999999488
                },
                {
                    "name": "G3",
                    "midi": 55,
                    "time": 102.3000000000001,
                    "velocity": 0.6299212598425197,
                    "duration": 0.23999999999999488
                },
                {
                    "name": "A3",
                    "midi": 57,
                    "time": 102.6000000000001,
                    "velocity": 0.6299212598425197,
                    "duration": 0.480000000000004
                },
                {
                    "name": "G3",
                    "midi": 55,
                    "time": 103.5000000000001,
                    "velocity": 0.6299212598425197,
                    "duration": 0.23999999999999488
                },
                {
                    "name": "A3",
                    "midi": 57,
                    "time": 103.8000000000001,
                    "velocity": 0.6299212598425197,
                    "duration": 0.23999999999999488
                },
                {
                    "name": "A2",
                    "midi": 45,
                    "time": 104.1000000000001,
                    "velocity": 0.6299212598425197,
                    "duration": 0.23999999999999488
                },
                {
                    "name": "D3",
                    "midi": 50,
                    "time": 104.40000000000009,
                    "velocity": 0.6299212598425197,
                    "duration": 0.480000000000004
                },
                {
                    "name": "F3",
                    "midi": 53,
                    "time": 105.3000000000001,
                    "velocity": 0.6299212598425197,
                    "duration": 0.23999999999999488
                },
                {
                    "name": "E3",
                    "midi": 52,
                    "time": 105.6000000000001,
                    "velocity": 0.6299212598425197,
                    "duration": 0.23999999999999488
                },
                {
                    "name": "C3",
                    "midi": 48,
                    "time": 105.90000000000009,
                    "velocity": 0.6299212598425197,
                    "duration": 0.23999999999999488
                },
                {
                    "name": "F3",
                    "midi": 53,
                    "time": 106.20000000000009,
                    "velocity": 0.6299212598425197,
                    "duration": 0.480000000000004
                },
                {
                    "name": "A#2",
                    "midi": 46,
                    "time": 107.1000000000001,
                    "velocity": 0.6299212598425197,
                    "duration": 0.23999999999999488
                },
                {
                    "name": "C3",
                    "midi": 48,
                    "time": 107.40000000000009,
                    "velocity": 0.6299212598425197,
                    "duration": 0.23999999999999488
                },
                {
                    "name": "C2",
                    "midi": 36,
                    "time": 107.70000000000009,
                    "velocity": 0.6299212598425197,
                    "duration": 0.23999999999999488
                },
                {
                    "name": "F2",
                    "midi": 41,
                    "time": 108.00000000000009,
                    "velocity": 0.6299212598425197,
                    "duration": 0.480000000000004
                },
                {
                    "name": "F3",
                    "midi": 53,
                    "time": 108.90000000000009,
                    "velocity": 0.6299212598425197,
                    "duration": 0.23999999999999488
                },
                {
                    "name": "E3",
                    "midi": 52,
                    "time": 109.20000000000009,
                    "velocity": 0.6299212598425197,
                    "duration": 0.23999999999999488
                },
                {
                    "name": "C3",
                    "midi": 48,
                    "time": 109.50000000000009,
                    "velocity": 0.6299212598425197,
                    "duration": 0.23999999999999488
                },
                {
                    "name": "F3",
                    "midi": 53,
                    "time": 109.80000000000008,
                    "velocity": 0.6299212598425197,
                    "duration": 0.480000000000004
                },
                {
                    "name": "D3",
                    "midi": 50,
                    "time": 110.70000000000009,
                    "velocity": 0.6299212598425197,
                    "duration": 0.23999999999999488
                },
                {
                    "name": "G3",
                    "midi": 55,
                    "time": 111.00000000000009,
                    "velocity": 0.6299212598425197,
                    "duration": 0.23999999999999488
                },
                {
                    "name": "G2",
                    "midi": 43,
                    "time": 111.30000000000008,
                    "velocity": 0.6299212598425197,
                    "duration": 0.23999999999999488
                },
                {
                    "name": "C3",
                    "midi": 48,
                    "time": 111.60000000000008,
                    "velocity": 0.6299212598425197,
                    "duration": 0.480000000000004
                },
                {
                    "name": "C4",
                    "midi": 60,
                    "time": 112.50000000000009,
                    "velocity": 0.6299212598425197,
                    "duration": 0.23999999999999488
                },
                {
                    "name": "B3",
                    "midi": 59,
                    "time": 112.80000000000008,
                    "velocity": 0.6299212598425197,
                    "duration": 0.23999999999999488
                },
                {
                    "name": "G3",
                    "midi": 55,
                    "time": 113.10000000000008,
                    "velocity": 0.6299212598425197,
                    "duration": 0.23999999999999488
                },
                {
                    "name": "C4",
                    "midi": 60,
                    "time": 113.40000000000008,
                    "velocity": 0.6299212598425197,
                    "duration": 0.480000000000004
                },
                {
                    "name": "F3",
                    "midi": 53,
                    "time": 114.30000000000008,
                    "velocity": 0.6299212598425197,
                    "duration": 0.23999999999999488
                },
                {
                    "name": "G3",
                    "midi": 55,
                    "time": 114.60000000000008,
                    "velocity": 0.6299212598425197,
                    "duration": 0.23999999999999488
                },
                {
                    "name": "G2",
                    "midi": 43,
                    "time": 114.90000000000008,
                    "velocity": 0.6299212598425197,
                    "duration": 0.23999999999999488
                },
                {
                    "name": "C3",
                    "midi": 48,
                    "time": 115.20000000000007,
                    "velocity": 0.6299212598425197,
                    "duration": 0.480000000000004
                },
                {
                    "name": "C4",
                    "midi": 60,
                    "time": 116.10000000000008,
                    "velocity": 0.6299212598425197,
                    "duration": 0.23999999999999488
                },
                {
                    "name": "B3",
                    "midi": 59,
                    "time": 116.40000000000008,
                    "velocity": 0.6299212598425197,
                    "duration": 0.23999999999999488
                },
                {
                    "name": "G3",
                    "midi": 55,
                    "time": 116.70000000000007,
                    "velocity": 0.6299212598425197,
                    "duration": 0.23999999999999488
                },
                {
                    "name": "C4",
                    "midi": 60,
                    "time": 117.00000000000007,
                    "velocity": 0.6299212598425197,
                    "duration": 0.480000000000004
                },
                {
                    "name": "A3",
                    "midi": 57,
                    "time": 117.90000000000008,
                    "velocity": 0.6299212598425197,
                    "duration": 0.23999999999999488
                },
                {
                    "name": "D4",
                    "midi": 62,
                    "time": 118.20000000000007,
                    "velocity": 0.6299212598425197,
                    "duration": 0.23999999999999488
                },
                {
                    "name": "D3",
                    "midi": 50,
                    "time": 118.50000000000007,
                    "velocity": 0.6299212598425197,
                    "duration": 0.23999999999999488
                },
                {
                    "name": "G3",
                    "midi": 55,
                    "time": 118.80000000000007,
                    "velocity": 0.6299212598425197,
                    "duration": 0.480000000000004
                },
                {
                    "name": "A3",
                    "midi": 57,
                    "time": 119.70000000000007,
                    "velocity": 0.6299212598425197,
                    "duration": 0.23999999999999488
                },
                {
                    "name": "A#3",
                    "midi": 58,
                    "time": 120.00000000000007,
                    "velocity": 0.6299212598425197,
                    "duration": 0.23999999999999488
                },
                {
                    "name": "G3",
                    "midi": 55,
                    "time": 120.30000000000007,
                    "velocity": 0.6299212598425197,
                    "duration": 0.23999999999999488
                },
                {
                    "name": "C4",
                    "midi": 60,
                    "time": 120.60000000000007,
                    "velocity": 0.6299212598425197,
                    "duration": 0.480000000000004
                },
                {
                    "name": "C4",
                    "midi": 60,
                    "time": 121.50000000000007,
                    "velocity": 0.6299212598425197,
                    "duration": 0.23999999999999488
                },
                {
                    "name": "A3",
                    "midi": 57,
                    "time": 121.80000000000007,
                    "velocity": 0.6299212598425197,
                    "duration": 0.23999999999999488
                },
                {
                    "name": "F3",
                    "midi": 53,
                    "time": 122.10000000000007,
                    "velocity": 0.6299212598425197,
                    "duration": 0.23999999999999488
                },
                {
                    "name": "A#3",
                    "midi": 58,
                    "time": 122.40000000000006,
                    "velocity": 0.6299212598425197,
                    "duration": 0.480000000000004
                },
                {
                    "name": "A#3",
                    "midi": 58,
                    "time": 123.30000000000007,
                    "velocity": 0.6299212598425197,
                    "duration": 0.23999999999999488
                },
                {
                    "name": "G3",
                    "midi": 55,
                    "time": 123.60000000000007,
                    "velocity": 0.6299212598425197,
                    "duration": 0.23999999999999488
                },
                {
                    "name": "E3",
                    "midi": 52,
                    "time": 123.90000000000006,
                    "velocity": 0.6299212598425197,
                    "duration": 0.23999999999999488
                },
                {
                    "name": "A3",
                    "midi": 57,
                    "time": 124.20000000000006,
                    "velocity": 0.6299212598425197,
                    "duration": 0.480000000000004
                },
                {
                    "name": "E3",
                    "midi": 52,
                    "time": 125.10000000000007,
                    "velocity": 0.6299212598425197,
                    "duration": 0.23999999999999488
                },
                {
                    "name": "A3",
                    "midi": 57,
                    "time": 125.40000000000006,
                    "velocity": 0.6299212598425197,
                    "duration": 0.23999999999999488
                },
                {
                    "name": "E3",
                    "midi": 52,
                    "time": 125.70000000000006,
                    "velocity": 0.6299212598425197,
                    "duration": 0.23999999999999488
                },
                {
                    "name": "F3",
                    "midi": 53,
                    "time": 126.00000000000006,
                    "velocity": 0.6299212598425197,
                    "duration": 0.480000000000004
                },
                {
                    "name": "A3",
                    "midi": 57,
                    "time": 126.90000000000006,
                    "velocity": 0.6299212598425197,
                    "duration": 0.23999999999999488
                },
                {
                    "name": "D4",
                    "midi": 62,
                    "time": 127.20000000000006,
                    "velocity": 0.6299212598425197,
                    "duration": 0.23999999999999488
                },
                {
                    "name": "A3",
                    "midi": 57,
                    "time": 127.50000000000006,
                    "velocity": 0.6299212598425197,
                    "duration": 0.23999999999999488
                },
                {
                    "name": "A#3",
                    "midi": 58,
                    "time": 127.80000000000005,
                    "velocity": 0.6299212598425197,
                    "duration": 0.480000000000004
                },
                {
                    "name": "G3",
                    "midi": 55,
                    "time": 128.70000000000005,
                    "velocity": 0.6299212598425197,
                    "duration": 0.2400000000000091
                },
                {
                    "name": "C4",
                    "midi": 60,
                    "time": 129.00000000000006,
                    "velocity": 0.6299212598425197,
                    "duration": 0.2400000000000091
                },
                {
                    "name": "G3",
                    "midi": 55,
                    "time": 129.30000000000007,
                    "velocity": 0.6299212598425197,
                    "duration": 0.2400000000000091
                },
                {
                    "name": "A3",
                    "midi": 57,
                    "time": 129.60000000000008,
                    "velocity": 0.6299212598425197,
                    "duration": 0.47999999999998977
                },
                {
                    "name": "E3",
                    "midi": 52,
                    "time": 130.50000000000006,
                    "velocity": 0.6299212598425197,
                    "duration": 0.2400000000000091
                },
                {
                    "name": "F3",
                    "midi": 53,
                    "time": 130.80000000000007,
                    "velocity": 0.6299212598425197,
                    "duration": 0.2400000000000091
                },
                {
                    "name": "D3",
                    "midi": 50,
                    "time": 131.10000000000008,
                    "velocity": 0.6299212598425197,
                    "duration": 0.2400000000000091
                },
                {
                    "name": "G3",
                    "midi": 55,
                    "time": 131.4000000000001,
                    "velocity": 0.6299212598425197,
                    "duration": 0.47999999999998977
                },
                {
                    "name": "A3",
                    "midi": 57,
                    "time": 132.30000000000007,
                    "velocity": 0.6299212598425197,
                    "duration": 0.2400000000000091
                },
                {
                    "name": "A#3",
                    "midi": 58,
                    "time": 132.60000000000008,
                    "velocity": 0.6299212598425197,
                    "duration": 0.2400000000000091
                },
                {
                    "name": "G3",
                    "midi": 55,
                    "time": 132.9000000000001,
                    "velocity": 0.6299212598425197,
                    "duration": 0.2400000000000091
                },
                {
                    "name": "A3",
                    "midi": 57,
                    "time": 133.2000000000001,
                    "velocity": 0.6299212598425197,
                    "duration": 0.47999999999998977
                },
                {
                    "name": "G3",
                    "midi": 55,
                    "time": 134.10000000000008,
                    "velocity": 0.6299212598425197,
                    "duration": 0.2400000000000091
                },
                {
                    "name": "A3",
                    "midi": 57,
                    "time": 134.4000000000001,
                    "velocity": 0.6299212598425197,
                    "duration": 0.2400000000000091
                },
                {
                    "name": "A2",
                    "midi": 45,
                    "time": 134.7000000000001,
                    "velocity": 0.6299212598425197,
                    "duration": 0.2400000000000091
                },
                {
                    "name": "D3",
                    "midi": 50,
                    "time": 135.0000000000001,
                    "velocity": 0.6299212598425197,
                    "duration": 0.47999999999998977
                },
                {
                    "name": "D4",
                    "midi": 62,
                    "time": 135.9000000000001,
                    "velocity": 0.6299212598425197,
                    "duration": 0.2400000000000091
                },
                {
                    "name": "C#4",
                    "midi": 61,
                    "time": 136.2000000000001,
                    "velocity": 0.6299212598425197,
                    "duration": 0.2400000000000091
                },
                {
                    "name": "A3",
                    "midi": 57,
                    "time": 136.5000000000001,
                    "velocity": 0.6299212598425197,
                    "duration": 0.2400000000000091
                },
                {
                    "name": "D4",
                    "midi": 62,
                    "time": 136.80000000000013,
                    "velocity": 0.6299212598425197,
                    "duration": 0.47999999999998977
                },
                {
                    "name": "G3",
                    "midi": 55,
                    "time": 137.7000000000001,
                    "velocity": 0.6299212598425197,
                    "duration": 0.2400000000000091
                },
                {
                    "name": "A3",
                    "midi": 57,
                    "time": 138.0000000000001,
                    "velocity": 0.6299212598425197,
                    "duration": 0.2400000000000091
                },
                {
                    "name": "A2",
                    "midi": 45,
                    "time": 138.30000000000013,
                    "velocity": 0.6299212598425197,
                    "duration": 0.2400000000000091
                },
                {
                    "name": "D3",
                    "midi": 50,
                    "time": 138.60000000000014,
                    "velocity": 0.6299212598425197,
                    "duration": 0.960000000000008
                }
            ],
            "controlChanges": {
                "7": [
                    {
                        "number": 7,
                        "time": 0,
                        "value": 0.48031496062992124
                    }
                ],
                "10": [
                    {
                        "number": 10,
                        "time": 0,
                        "value": 0.9133858267716536
                    }
                ],
                "91": [
                    {
                        "number": 91,
                        "time": 0,
                        "value": 0.5511811023622047
                    }
                ],
                "120": [
                    {
                        "number": 120,
                        "time": 0,
                        "value": 0
                    }
                ]
            },
            "id": 6,
            "name": "Cello",
            "instrumentNumber": 42,
            "instrument": "cello",
            "instrumentFamily": "strings",
            "channelNumber": 5,
            "isPercussion": false
        },
        {
            "startTime": 0,
            "duration": 0,
            "length": 0,
            "notes": [],
            "controlChanges": {},
            "id": 7,
            "name": "\"Strike The Viol\" by H. Purcell"
        },
        {
            "startTime": 0,
            "duration": 0,
            "length": 0,
            "notes": [],
            "controlChanges": {},
            "id": 8,
            "name": "Seq. by MJ Starke 1996mjstarke"
        }
    ]
}