{
    "header": {
        "PPQ": 120,
        "timeSignature": [
            3,
            4
        ],
        "bpm": 116.00008506672904,
        "name": "The Hen"
    },
    "startTime": 0,
    "duration": 170.6895300000017,
    "tracks": [
        {
            "startTime": 0,
            "duration": 0,
            "length": 0,
            "notes": [],
            "controlChanges": {},
            "id": 0,
            "name": "The Hen"
        },
        {
            "startTime": 0.25862050000000003,
            "duration": 170.68521965833563,
            "length": 1124,
            "notes": [
                {
                    "name": "G4",
                    "midi": 67,
                    "time": 0.25862050000000003,
                    "velocity": 0.7874015748031497,
                    "duration": 0.10775854166666665
                },
                {
                    "name": "G4",
                    "midi": 67,
                    "time": 0.5172410000000001,
                    "velocity": 0.7874015748031497,
                    "duration": 0.10775854166666665
                },
                {
                    "name": "G4",
                    "midi": 67,
                    "time": 0.7758615000000001,
                    "velocity": 0.7874015748031497,
                    "duration": 0.10775854166666665
                },
                {
                    "name": "G4",
                    "midi": 67,
                    "time": 1.0344820000000001,
                    "velocity": 0.7874015748031497,
                    "duration": 0.10775854166666665
                },
                {
                    "name": "G4",
                    "midi": 67,
                    "time": 1.2931025,
                    "velocity": 0.7874015748031497,
                    "duration": 0.10775854166666665
                },
                {
                    "name": "G4",
                    "midi": 67,
                    "time": 1.551723,
                    "velocity": 0.7874015748031497,
                    "duration": 0.06465512500000004
                },
                {
                    "name": "A4",
                    "midi": 69,
                    "time": 1.616378125,
                    "velocity": 0.7874015748031497,
                    "duration": 0.06465512500000004
                },
                {
                    "name": "A#4",
                    "midi": 70,
                    "time": 1.68103325,
                    "velocity": 0.7874015748031497,
                    "duration": 0.06465512500000004
                },
                {
                    "name": "G4",
                    "midi": 67,
                    "time": 1.8103435,
                    "velocity": 0.7874015748031497,
                    "duration": 0.10775854166666665
                },
                {
                    "name": "G4",
                    "midi": 67,
                    "time": 2.0689640000000002,
                    "velocity": 0.7874015748031497,
                    "duration": 0.10775854166666665
                },
                {
                    "name": "G4",
                    "midi": 67,
                    "time": 2.3275845000000004,
                    "velocity": 0.7874015748031497,
                    "duration": 0.10775854166666665
                },
                {
                    "name": "G4",
                    "midi": 67,
                    "time": 2.5862050000000005,
                    "velocity": 0.7874015748031497,
                    "duration": 0.10775854166666665
                },
                {
                    "name": "G4",
                    "midi": 67,
                    "time": 2.8448255000000007,
                    "velocity": 0.7874015748031497,
                    "duration": 0.10775854166666665
                },
                {
                    "name": "G4",
                    "midi": 67,
                    "time": 3.103446000000001,
                    "velocity": 0.7874015748031497,
                    "duration": 0.06465512499999981
                },
                {
                    "name": "A#4",
                    "midi": 70,
                    "time": 3.1681011250000006,
                    "velocity": 0.7874015748031497,
                    "duration": 0.06465512499999981
                },
                {
                    "name": "D5",
                    "midi": 74,
                    "time": 3.2327562500000004,
                    "velocity": 0.7874015748031497,
                    "duration": 0.06465512499999981
                },
                {
                    "name": "G5",
                    "midi": 79,
                    "time": 3.2974113750000003,
                    "velocity": 0.7874015748031497,
                    "duration": 0.06465512499999981
                },
                {
                    "name": "D5",
                    "midi": 74,
                    "time": 4.3965485,
                    "velocity": 0.7874015748031497,
                    "duration": 0.10775854166666665
                },
                {
                    "name": "D5",
                    "midi": 74,
                    "time": 4.655169,
                    "velocity": 0.7874015748031497,
                    "duration": 0.06465512499999981
                },
                {
                    "name": "D#5",
                    "midi": 75,
                    "time": 4.719824125,
                    "velocity": 0.7874015748031497,
                    "duration": 0.03448273333333329
                },
                {
                    "name": "D5",
                    "midi": 74,
                    "time": 4.754306858333333,
                    "velocity": 0.7874015748031497,
                    "duration": 0.03017239166666652
                },
                {
                    "name": "D#5",
                    "midi": 75,
                    "time": 4.7844792499999995,
                    "velocity": 0.7874015748031497,
                    "duration": 0.06465512499999981
                },
                {
                    "name": "D#5",
                    "midi": 75,
                    "time": 4.913789499999999,
                    "velocity": 0.7874015748031497,
                    "duration": 0.10775854166666665
                },
                {
                    "name": "D#5",
                    "midi": 75,
                    "time": 5.172409999999999,
                    "velocity": 0.7874015748031497,
                    "duration": 0.10775854166666665
                },
                {
                    "name": "D#5",
                    "midi": 75,
                    "time": 5.431030499999999,
                    "velocity": 0.7874015748031497,
                    "duration": 0.10775854166666665
                },
                {
                    "name": "D#5",
                    "midi": 75,
                    "time": 5.689651,
                    "velocity": 0.7874015748031497,
                    "duration": 0.383620408333333
                },
                {
                    "name": "G5",
                    "midi": 79,
                    "time": 6.077581749999999,
                    "velocity": 0.7874015748031497,
                    "duration": 0.04310341666666684
                },
                {
                    "name": "A5",
                    "midi": 81,
                    "time": 6.120685166666666,
                    "velocity": 0.7874015748031497,
                    "duration": 0.04310341666666684
                },
                {
                    "name": "C6",
                    "midi": 84,
                    "time": 6.163788583333333,
                    "velocity": 0.7874015748031497,
                    "duration": 0.04310341666666684
                },
                {
                    "name": "C5",
                    "midi": 72,
                    "time": 6.206892,
                    "velocity": 0.7874015748031497,
                    "duration": 0.10775854166666665
                },
                {
                    "name": "C5",
                    "midi": 72,
                    "time": 6.4655125,
                    "velocity": 0.7874015748031497,
                    "duration": 0.10775854166666665
                },
                {
                    "name": "C5",
                    "midi": 72,
                    "time": 6.724133,
                    "velocity": 0.7874015748031497,
                    "duration": 0.10775854166666665
                },
                {
                    "name": "C5",
                    "midi": 72,
                    "time": 6.9827535,
                    "velocity": 0.7874015748031497,
                    "duration": 0.10775854166666665
                },
                {
                    "name": "C5",
                    "midi": 72,
                    "time": 7.241374,
                    "velocity": 0.7874015748031497,
                    "duration": 0.383620408333333
                },
                {
                    "name": "E5",
                    "midi": 76,
                    "time": 7.62930475,
                    "velocity": 0.7874015748031497,
                    "duration": 0.04310341666666684
                },
                {
                    "name": "F#5",
                    "midi": 78,
                    "time": 7.672408166666667,
                    "velocity": 0.7874015748031497,
                    "duration": 0.04310341666666684
                },
                {
                    "name": "A5",
                    "midi": 81,
                    "time": 7.715511583333334,
                    "velocity": 0.7874015748031497,
                    "duration": 0.04310341666666684
                },
                {
                    "name": "A4",
                    "midi": 69,
                    "time": 7.758615000000001,
                    "velocity": 0.7874015748031497,
                    "duration": 0.25431015833333426
                },
                {
                    "name": "D#5",
                    "midi": 75,
                    "time": 8.017235500000002,
                    "velocity": 0.7874015748031497,
                    "duration": 0.2543101583333325
                },
                {
                    "name": "D5",
                    "midi": 74,
                    "time": 8.275856000000001,
                    "velocity": 0.7874015748031497,
                    "duration": 0.2543101583333325
                },
                {
                    "name": "C5",
                    "midi": 72,
                    "time": 8.5344765,
                    "velocity": 0.7874015748031497,
                    "duration": 0.2543101583333325
                },
                {
                    "name": "C5",
                    "midi": 72,
                    "time": 8.793097,
                    "velocity": 0.7874015748031497,
                    "duration": 0.06465512499999981
                },
                {
                    "name": "A#4",
                    "midi": 70,
                    "time": 8.857752125,
                    "velocity": 0.7874015748031497,
                    "duration": 0.06465512499999981
                },
                {
                    "name": "C5",
                    "midi": 72,
                    "time": 8.92240725,
                    "velocity": 0.7874015748031497,
                    "duration": 0.06465512499999981
                },
                {
                    "name": "A#4",
                    "midi": 70,
                    "time": 8.987062374999999,
                    "velocity": 0.7874015748031497,
                    "duration": 0.06465512499999981
                },
                {
                    "name": "A4",
                    "midi": 69,
                    "time": 9.051717499999999,
                    "velocity": 0.7874015748031497,
                    "duration": 0.2543101583333325
                },
                {
                    "name": "A4",
                    "midi": 69,
                    "time": 9.310337999999998,
                    "velocity": 0.7874015748031497,
                    "duration": 0.06465512499999981
                },
                {
                    "name": "A#4",
                    "midi": 70,
                    "time": 9.374993124999998,
                    "velocity": 0.7874015748031497,
                    "duration": 0.03448273333333418
                },
                {
                    "name": "A4",
                    "midi": 69,
                    "time": 9.409475858333332,
                    "velocity": 0.7874015748031497,
                    "duration": 0.03017239166666741
                },
                {
                    "name": "A#4",
                    "midi": 70,
                    "time": 9.43964825,
                    "velocity": 0.7874015748031497,
                    "duration": 0.6422409083333331
                },
                {
                    "name": "A4",
                    "midi": 69,
                    "time": 10.0861995,
                    "velocity": 0.7874015748031497,
                    "duration": 0.2543101583333325
                },
                {
                    "name": "G4",
                    "midi": 67,
                    "time": 10.344819999999999,
                    "velocity": 0.7874015748031497,
                    "duration": 0.5129306583333335
                },
                {
                    "name": "D#5",
                    "midi": 75,
                    "time": 10.862060999999999,
                    "velocity": 0.7086614173228346,
                    "duration": 0.06465512499999981
                },
                {
                    "name": "D5",
                    "midi": 74,
                    "time": 10.926716124999999,
                    "velocity": 0.7086614173228346,
                    "duration": 0.06465512499999981
                },
                {
                    "name": "D#5",
                    "midi": 75,
                    "time": 10.991371249999998,
                    "velocity": 0.7086614173228346,
                    "duration": 0.3836204083333339
                },
                {
                    "name": "D#5",
                    "midi": 75,
                    "time": 11.379302,
                    "velocity": 0.7086614173228346,
                    "duration": 0.06465512499999981
                },
                {
                    "name": "D5",
                    "midi": 74,
                    "time": 11.443957124999999,
                    "velocity": 0.7086614173228346,
                    "duration": 0.06465512499999981
                },
                {
                    "name": "D#5",
                    "midi": 75,
                    "time": 11.508612249999999,
                    "velocity": 0.7086614173228346,
                    "duration": 0.6422409083333331
                },
                {
                    "name": "G5",
                    "midi": 79,
                    "time": 12.155163499999999,
                    "velocity": 0.7086614173228346,
                    "duration": 0.12499990833333285
                },
                {
                    "name": "C#5",
                    "midi": 73,
                    "time": 12.284473749999998,
                    "velocity": 0.7086614173228346,
                    "duration": 0.12499990833333285
                },
                {
                    "name": "C#5",
                    "midi": 73,
                    "time": 12.413783999999998,
                    "velocity": 0.7086614173228346,
                    "duration": 0.5129306583333335
                },
                {
                    "name": "D5",
                    "midi": 74,
                    "time": 12.931024999999998,
                    "velocity": 0.7086614173228346,
                    "duration": 0.06465512499999981
                },
                {
                    "name": "C#5",
                    "midi": 73,
                    "time": 12.995680124999998,
                    "velocity": 0.7086614173228346,
                    "duration": 0.06465512499999981
                },
                {
                    "name": "D5",
                    "midi": 74,
                    "time": 13.060335249999998,
                    "velocity": 0.7086614173228346,
                    "duration": 0.3836204083333339
                },
                {
                    "name": "D5",
                    "midi": 74,
                    "time": 13.965506999999999,
                    "velocity": 0.7086614173228346,
                    "duration": 0.06465512499999981
                },
                {
                    "name": "C#5",
                    "midi": 73,
                    "time": 14.030162124999999,
                    "velocity": 0.7086614173228346,
                    "duration": 0.06465512499999981
                },
                {
                    "name": "D5",
                    "midi": 74,
                    "time": 14.094817249999998,
                    "velocity": 0.7086614173228346,
                    "duration": 0.3836204083333339
                },
                {
                    "name": "D5",
                    "midi": 74,
                    "time": 14.482747999999999,
                    "velocity": 0.7086614173228346,
                    "duration": 0.06465512499999981
                },
                {
                    "name": "C#5",
                    "midi": 73,
                    "time": 14.547403124999999,
                    "velocity": 0.7086614173228346,
                    "duration": 0.06465512499999981
                },
                {
                    "name": "D5",
                    "midi": 74,
                    "time": 14.612058249999999,
                    "velocity": 0.7086614173228346,
                    "duration": 0.6422409083333331
                },
                {
                    "name": "F5",
                    "midi": 77,
                    "time": 15.258609499999999,
                    "velocity": 0.7086614173228346,
                    "duration": 0.12499990833333285
                },
                {
                    "name": "B4",
                    "midi": 71,
                    "time": 15.387919749999998,
                    "velocity": 0.7086614173228346,
                    "duration": 0.12499990833333285
                },
                {
                    "name": "B4",
                    "midi": 71,
                    "time": 15.517229999999998,
                    "velocity": 0.7086614173228346,
                    "duration": 0.5129306583333317
                },
                {
                    "name": "C5",
                    "midi": 72,
                    "time": 16.034470999999996,
                    "velocity": 0.7086614173228346,
                    "duration": 0.06465512500000159
                },
                {
                    "name": "B4",
                    "midi": 71,
                    "time": 16.099126124999998,
                    "velocity": 0.7086614173228346,
                    "duration": 0.06465512500000159
                },
                {
                    "name": "C5",
                    "midi": 72,
                    "time": 16.16378125,
                    "velocity": 0.7086614173228346,
                    "duration": 0.3836204083333321
                },
                {
                    "name": "C5",
                    "midi": 72,
                    "time": 17.068952999999997,
                    "velocity": 0.7874015748031497,
                    "duration": 0.2543101583333325
                },
                {
                    "name": "D#5",
                    "midi": 75,
                    "time": 17.586193999999995,
                    "velocity": 0.7874015748031497,
                    "duration": 0.2543101583333325
                },
                {
                    "name": "D5",
                    "midi": 74,
                    "time": 17.758607666666663,
                    "velocity": 0.7874015748031497,
                    "duration": 0.2543101583333325
                },
                {
                    "name": "C5",
                    "midi": 72,
                    "time": 17.844814499999995,
                    "velocity": 0.7874015748031497,
                    "duration": 0.2543101583333325
                },
                {
                    "name": "C5",
                    "midi": 72,
                    "time": 18.103434999999994,
                    "velocity": 0.7874015748031497,
                    "duration": 0.06465512500000159
                },
                {
                    "name": "A#4",
                    "midi": 70,
                    "time": 18.168090124999996,
                    "velocity": 0.7874015748031497,
                    "duration": 0.06465512500000159
                },
                {
                    "name": "C5",
                    "midi": 72,
                    "time": 18.232745249999997,
                    "velocity": 0.7874015748031497,
                    "duration": 0.06465512500000159
                },
                {
                    "name": "A#4",
                    "midi": 70,
                    "time": 18.297400375,
                    "velocity": 0.7874015748031497,
                    "duration": 0.06465512500000159
                },
                {
                    "name": "A4",
                    "midi": 69,
                    "time": 18.3620555,
                    "velocity": 0.7874015748031497,
                    "duration": 0.2543101583333325
                },
                {
                    "name": "A#4",
                    "midi": 70,
                    "time": 18.620676,
                    "velocity": 0.7874015748031497,
                    "duration": 0.12499990833333285
                },
                {
                    "name": "A4",
                    "midi": 69,
                    "time": 18.74998625,
                    "velocity": 0.7874015748031497,
                    "duration": 0.12499990833333285
                },
                {
                    "name": "A#4",
                    "midi": 70,
                    "time": 18.8792965,
                    "velocity": 0.7874015748031497,
                    "duration": 0.04310341666666773
                },
                {
                    "name": "A4",
                    "midi": 69,
                    "time": 18.922399916666667,
                    "velocity": 0.7874015748031497,
                    "duration": 0.04310341666666773
                },
                {
                    "name": "A#4",
                    "midi": 70,
                    "time": 18.965503333333334,
                    "velocity": 0.7874015748031497,
                    "duration": 0.04310341666666773
                },
                {
                    "name": "D5",
                    "midi": 74,
                    "time": 19.008606750000002,
                    "velocity": 0.7874015748031497,
                    "duration": 0.12499990833333285
                },
                {
                    "name": "A#4",
                    "midi": 70,
                    "time": 19.137917,
                    "velocity": 0.7874015748031497,
                    "duration": 0.12499990833333285
                },
                {
                    "name": "A4",
                    "midi": 69,
                    "time": 19.26722725,
                    "velocity": 0.7874015748031497,
                    "duration": 0.12499990833333285
                },
                {
                    "name": "A#4",
                    "midi": 70,
                    "time": 19.3965375,
                    "velocity": 0.7874015748031497,
                    "duration": 0.04310341666666773
                },
                {
                    "name": "A4",
                    "midi": 69,
                    "time": 19.43964091666667,
                    "velocity": 0.7874015748031497,
                    "duration": 0.04310341666666773
                },
                {
                    "name": "A#4",
                    "midi": 70,
                    "time": 19.482744333333336,
                    "velocity": 0.7874015748031497,
                    "duration": 0.04310341666666773
                },
                {
                    "name": "D5",
                    "midi": 74,
                    "time": 19.525847750000004,
                    "velocity": 0.7874015748031497,
                    "duration": 0.12499990833333285
                },
                {
                    "name": "A4",
                    "midi": 69,
                    "time": 19.655158000000004,
                    "velocity": 0.7874015748031497,
                    "duration": 0.12499990833333285
                },
                {
                    "name": "G4",
                    "midi": 67,
                    "time": 19.784468250000003,
                    "velocity": 0.7874015748031497,
                    "duration": 0.12499990833333285
                },
                {
                    "name": "A4",
                    "midi": 69,
                    "time": 19.913778500000003,
                    "velocity": 0.7874015748031497,
                    "duration": 0.04310341666666773
                },
                {
                    "name": "G4",
                    "midi": 67,
                    "time": 19.95688191666667,
                    "velocity": 0.7874015748031497,
                    "duration": 0.04310341666666773
                },
                {
                    "name": "A4",
                    "midi": 69,
                    "time": 19.99998533333334,
                    "velocity": 0.7874015748031497,
                    "duration": 0.04310341666666773
                },
                {
                    "name": "C5",
                    "midi": 72,
                    "time": 20.043088750000006,
                    "velocity": 0.7874015748031497,
                    "duration": 0.12499990833333285
                },
                {
                    "name": "A#4",
                    "midi": 70,
                    "time": 20.172399000000006,
                    "velocity": 0.7874015748031497,
                    "duration": 0.12499990833333285
                },
                {
                    "name": "A4",
                    "midi": 69,
                    "time": 20.301709250000005,
                    "velocity": 0.7874015748031497,
                    "duration": 0.12499990833333285
                },
                {
                    "name": "A#4",
                    "midi": 70,
                    "time": 20.431019500000005,
                    "velocity": 0.7874015748031497,
                    "duration": 0.04310341666666773
                },
                {
                    "name": "A4",
                    "midi": 69,
                    "time": 20.474122916666673,
                    "velocity": 0.7874015748031497,
                    "duration": 0.04310341666666773
                },
                {
                    "name": "A#4",
                    "midi": 70,
                    "time": 20.51722633333334,
                    "velocity": 0.7874015748031497,
                    "duration": 0.04310341666666773
                },
                {
                    "name": "D5",
                    "midi": 74,
                    "time": 20.560329750000008,
                    "velocity": 0.7874015748031497,
                    "duration": 0.12499990833333285
                },
                {
                    "name": "A#4",
                    "midi": 70,
                    "time": 20.689640000000008,
                    "velocity": 0.7874015748031497,
                    "duration": 0.12499990833333285
                },
                {
                    "name": "A4",
                    "midi": 69,
                    "time": 20.818950250000007,
                    "velocity": 0.7874015748031497,
                    "duration": 0.12499990833333285
                },
                {
                    "name": "A#4",
                    "midi": 70,
                    "time": 20.948260500000007,
                    "velocity": 0.7874015748031497,
                    "duration": 0.04310341666666773
                },
                {
                    "name": "A4",
                    "midi": 69,
                    "time": 20.991363916666675,
                    "velocity": 0.7874015748031497,
                    "duration": 0.04310341666666773
                },
                {
                    "name": "A#4",
                    "midi": 70,
                    "time": 21.034467333333343,
                    "velocity": 0.7874015748031497,
                    "duration": 0.04310341666666773
                },
                {
                    "name": "D5",
                    "midi": 74,
                    "time": 21.07757075000001,
                    "velocity": 0.7874015748031497,
                    "duration": 0.12499990833333285
                },
                {
                    "name": "A4",
                    "midi": 69,
                    "time": 21.20688100000001,
                    "velocity": 0.7874015748031497,
                    "duration": 0.12499990833333285
                },
                {
                    "name": "G4",
                    "midi": 67,
                    "time": 21.33619125000001,
                    "velocity": 0.7874015748031497,
                    "duration": 0.12499990833333285
                },
                {
                    "name": "A4",
                    "midi": 69,
                    "time": 21.46550150000001,
                    "velocity": 0.7874015748031497,
                    "duration": 0.04310341666666773
                },
                {
                    "name": "G4",
                    "midi": 67,
                    "time": 21.508604916666677,
                    "velocity": 0.7874015748031497,
                    "duration": 0.04310341666666773
                },
                {
                    "name": "A4",
                    "midi": 69,
                    "time": 21.551708333333345,
                    "velocity": 0.7874015748031497,
                    "duration": 0.04310341666666773
                },
                {
                    "name": "C5",
                    "midi": 72,
                    "time": 21.594811750000012,
                    "velocity": 0.7874015748031497,
                    "duration": 0.12499990833333285
                },
                {
                    "name": "A#4",
                    "midi": 70,
                    "time": 21.724122000000012,
                    "velocity": 0.7874015748031497,
                    "duration": 0.12499990833333285
                },
                {
                    "name": "A4",
                    "midi": 69,
                    "time": 21.85343225000001,
                    "velocity": 0.7874015748031497,
                    "duration": 0.12499990833333285
                },
                {
                    "name": "A#4",
                    "midi": 70,
                    "time": 21.98274250000001,
                    "velocity": 0.7874015748031497,
                    "duration": 0.04310341666666773
                },
                {
                    "name": "A4",
                    "midi": 69,
                    "time": 22.02584591666668,
                    "velocity": 0.7874015748031497,
                    "duration": 0.04310341666666773
                },
                {
                    "name": "A#4",
                    "midi": 70,
                    "time": 22.068949333333347,
                    "velocity": 0.7874015748031497,
                    "duration": 0.04310341666666773
                },
                {
                    "name": "C5",
                    "midi": 72,
                    "time": 22.112052750000014,
                    "velocity": 0.7874015748031497,
                    "duration": 0.12499990833333285
                },
                {
                    "name": "A#4",
                    "midi": 70,
                    "time": 22.241363000000014,
                    "velocity": 0.7874015748031497,
                    "duration": 0.2543101583333325
                },
                {
                    "name": "D5",
                    "midi": 74,
                    "time": 22.499983500000013,
                    "velocity": 0.7874015748031497,
                    "duration": 0.2543101583333325
                },
                {
                    "name": "C5",
                    "midi": 72,
                    "time": 22.758604000000012,
                    "velocity": 0.7874015748031497,
                    "duration": 0.0862068333333319
                },
                {
                    "name": "D5",
                    "midi": 74,
                    "time": 22.844810833333344,
                    "velocity": 0.7874015748031497,
                    "duration": 0.0862068333333319
                },
                {
                    "name": "C5",
                    "midi": 72,
                    "time": 22.931017666666676,
                    "velocity": 0.7874015748031497,
                    "duration": 0.0862068333333319
                },
                {
                    "name": "A#4",
                    "midi": 70,
                    "time": 23.017224500000008,
                    "velocity": 0.7874015748031497,
                    "duration": 0.2543101583333325
                },
                {
                    "name": "A#4",
                    "midi": 70,
                    "time": 23.275845000000007,
                    "velocity": 0.7874015748031497,
                    "duration": 0.06465512500000159
                },
                {
                    "name": "A4",
                    "midi": 69,
                    "time": 23.34050012500001,
                    "velocity": 0.7874015748031497,
                    "duration": 0.06465512500000159
                },
                {
                    "name": "A#4",
                    "midi": 70,
                    "time": 23.40515525000001,
                    "velocity": 0.7874015748031497,
                    "duration": 0.06465512500000159
                },
                {
                    "name": "A4",
                    "midi": 69,
                    "time": 23.469810375000012,
                    "velocity": 0.7874015748031497,
                    "duration": 0.8405166249999994
                },
                {
                    "name": "F4",
                    "midi": 65,
                    "time": 25.086188500000013,
                    "velocity": 0.7874015748031497,
                    "duration": 0.10775854166666576
                },
                {
                    "name": "F4",
                    "midi": 65,
                    "time": 25.344809000000012,
                    "velocity": 0.7874015748031497,
                    "duration": 0.10775854166666576
                },
                {
                    "name": "F4",
                    "midi": 65,
                    "time": 25.60342950000001,
                    "velocity": 0.7874015748031497,
                    "duration": 0.10775854166666576
                },
                {
                    "name": "F4",
                    "midi": 65,
                    "time": 25.86205000000001,
                    "velocity": 0.7874015748031497,
                    "duration": 0.10775854166666576
                },
                {
                    "name": "F4",
                    "midi": 65,
                    "time": 26.12067050000001,
                    "velocity": 0.7874015748031497,
                    "duration": 0.10775854166666576
                },
                {
                    "name": "F4",
                    "midi": 65,
                    "time": 26.37929100000001,
                    "velocity": 0.7874015748031497,
                    "duration": 0.06465512500000159
                },
                {
                    "name": "A#4",
                    "midi": 70,
                    "time": 26.44394612500001,
                    "velocity": 0.7874015748031497,
                    "duration": 0.06465512500000159
                },
                {
                    "name": "D5",
                    "midi": 74,
                    "time": 26.508601250000012,
                    "velocity": 0.7874015748031497,
                    "duration": 0.06465512500000159
                },
                {
                    "name": "F4",
                    "midi": 65,
                    "time": 26.637911500000016,
                    "velocity": 0.7874015748031497,
                    "duration": 0.10775854166666576
                },
                {
                    "name": "F4",
                    "midi": 65,
                    "time": 26.896532000000015,
                    "velocity": 0.7874015748031497,
                    "duration": 0.10775854166666576
                },
                {
                    "name": "F4",
                    "midi": 65,
                    "time": 27.155152500000014,
                    "velocity": 0.7874015748031497,
                    "duration": 0.10775854166666576
                },
                {
                    "name": "F4",
                    "midi": 65,
                    "time": 27.413773000000013,
                    "velocity": 0.7874015748031497,
                    "duration": 0.10775854166666576
                },
                {
                    "name": "F4",
                    "midi": 65,
                    "time": 27.672393500000013,
                    "velocity": 0.7874015748031497,
                    "duration": 0.10775854166666576
                },
                {
                    "name": "F4",
                    "midi": 65,
                    "time": 27.672393500000013,
                    "velocity": 0.7874015748031497,
                    "duration": 0.10775854166666576
                },
                {
                    "name": "F4",
                    "midi": 65,
                    "time": 27.931014000000012,
                    "velocity": 0.7874015748031497,
                    "duration": 0.06465512500000159
                },
                {
                    "name": "A#4",
                    "midi": 70,
                    "time": 27.995669125000013,
                    "velocity": 0.7874015748031497,
                    "duration": 0.06465512500000159
                },
                {
                    "name": "D5",
                    "midi": 74,
                    "time": 28.060324250000015,
                    "velocity": 0.7874015748031497,
                    "duration": 0.06465512500000159
                },
                {
                    "name": "F5",
                    "midi": 77,
                    "time": 28.124979375000017,
                    "velocity": 0.7874015748031497,
                    "duration": 0.06465512500000159
                },
                {
                    "name": "G4",
                    "midi": 67,
                    "time": 29.482737000000018,
                    "velocity": 0.7874015748031497,
                    "duration": 0.10775854166666576
                },
                {
                    "name": "G4",
                    "midi": 67,
                    "time": 29.741357500000017,
                    "velocity": 0.7874015748031497,
                    "duration": 0.10775854166666576
                },
                {
                    "name": "G4",
                    "midi": 67,
                    "time": 29.999978000000016,
                    "velocity": 0.7874015748031497,
                    "duration": 0.10775854166666576
                },
                {
                    "name": "G4",
                    "midi": 67,
                    "time": 30.258598500000016,
                    "velocity": 0.7874015748031497,
                    "duration": 0.10775854166666576
                },
                {
                    "name": "G4",
                    "midi": 67,
                    "time": 30.517219000000015,
                    "velocity": 0.7874015748031497,
                    "duration": 0.3836204083333321
                },
                {
                    "name": "A#4",
                    "midi": 70,
                    "time": 30.905149750000014,
                    "velocity": 0.7874015748031497,
                    "duration": 0.04310341666666773
                },
                {
                    "name": "D#5",
                    "midi": 75,
                    "time": 30.94825316666668,
                    "velocity": 0.7874015748031497,
                    "duration": 0.04310341666666773
                },
                {
                    "name": "G5",
                    "midi": 79,
                    "time": 30.99135658333335,
                    "velocity": 0.7874015748031497,
                    "duration": 0.04310341666666773
                },
                {
                    "name": "F4",
                    "midi": 65,
                    "time": 31.034460000000017,
                    "velocity": 0.7874015748031497,
                    "duration": 0.10775854166666576
                },
                {
                    "name": "F4",
                    "midi": 65,
                    "time": 31.293080500000016,
                    "velocity": 0.7874015748031497,
                    "duration": 0.10775854166666576
                },
                {
                    "name": "F4",
                    "midi": 65,
                    "time": 31.551701000000016,
                    "velocity": 0.7874015748031497,
                    "duration": 0.10775854166666576
                },
                {
                    "name": "F4",
                    "midi": 65,
                    "time": 31.810321500000015,
                    "velocity": 0.7874015748031497,
                    "duration": 0.10775854166666576
                },
                {
                    "name": "F4",
                    "midi": 65,
                    "time": 32.068942000000014,
                    "velocity": 0.7874015748031497,
                    "duration": 0.38362040833333566
                },
                {
                    "name": "A#4",
                    "midi": 70,
                    "time": 32.45687275000002,
                    "velocity": 0.7874015748031497,
                    "duration": 0.04310341666666773
                },
                {
                    "name": "D5",
                    "midi": 74,
                    "time": 32.499976166666684,
                    "velocity": 0.7874015748031497,
                    "duration": 0.04310341666666773
                },
                {
                    "name": "F5",
                    "midi": 77,
                    "time": 32.54307958333335,
                    "velocity": 0.7874015748031497,
                    "duration": 0.04310341666666773
                },
                {
                    "name": "G4",
                    "midi": 67,
                    "time": 32.58618300000002,
                    "velocity": 0.7874015748031497,
                    "duration": 0.10775854166666932
                },
                {
                    "name": "G4",
                    "midi": 67,
                    "time": 32.84480350000002,
                    "velocity": 0.7874015748031497,
                    "duration": 0.10775854166666932
                },
                {
                    "name": "G4",
                    "midi": 67,
                    "time": 33.10342400000002,
                    "velocity": 0.7874015748031497,
                    "duration": 0.10775854166666932
                },
                {
                    "name": "G4",
                    "midi": 67,
                    "time": 33.36204450000002,
                    "velocity": 0.7874015748031497,
                    "duration": 0.10775854166666932
                },
                {
                    "name": "G4",
                    "midi": 67,
                    "time": 33.62066500000002,
                    "velocity": 0.7874015748031497,
                    "duration": 0.38362040833333566
                },
                {
                    "name": "A#4",
                    "midi": 70,
                    "time": 34.00859575000002,
                    "velocity": 0.7874015748031497,
                    "duration": 0.04310341666666773
                },
                {
                    "name": "D#5",
                    "midi": 75,
                    "time": 34.05169916666669,
                    "velocity": 0.7874015748031497,
                    "duration": 0.04310341666666773
                },
                {
                    "name": "G5",
                    "midi": 79,
                    "time": 34.094802583333355,
                    "velocity": 0.7874015748031497,
                    "duration": 0.04310341666666773
                },
                {
                    "name": "F4",
                    "midi": 65,
                    "time": 34.13790600000002,
                    "velocity": 0.7874015748031497,
                    "duration": 0.10775854166666932
                },
                {
                    "name": "F4",
                    "midi": 65,
                    "time": 34.39652650000002,
                    "velocity": 0.7874015748031497,
                    "duration": 0.10775854166666932
                },
                {
                    "name": "F4",
                    "midi": 65,
                    "time": 34.65514700000002,
                    "velocity": 0.7874015748031497,
                    "duration": 0.10775854166666932
                },
                {
                    "name": "F4",
                    "midi": 65,
                    "time": 34.91376750000002,
                    "velocity": 0.7874015748031497,
                    "duration": 0.10775854166666932
                },
                {
                    "name": "F4",
                    "midi": 65,
                    "time": 35.17238800000002,
                    "velocity": 0.7874015748031497,
                    "duration": 0.38362040833333566
                },
                {
                    "name": "A#4",
                    "midi": 70,
                    "time": 35.56031875000002,
                    "velocity": 0.7874015748031497,
                    "duration": 0.04310341666666773
                },
                {
                    "name": "D5",
                    "midi": 74,
                    "time": 35.60342216666669,
                    "velocity": 0.7874015748031497,
                    "duration": 0.04310341666666773
                },
                {
                    "name": "F5",
                    "midi": 77,
                    "time": 35.64652558333336,
                    "velocity": 0.7874015748031497,
                    "duration": 0.04310341666666773
                },
                {
                    "name": "D#4",
                    "midi": 63,
                    "time": 35.689629000000025,
                    "velocity": 0.7874015748031497,
                    "duration": 0.10775854166666932
                },
                {
                    "name": "C5",
                    "midi": 72,
                    "time": 35.948249500000024,
                    "velocity": 0.7874015748031497,
                    "duration": 0.12499990833333641
                },
                {
                    "name": "A#4",
                    "midi": 70,
                    "time": 36.07755975000003,
                    "velocity": 0.7874015748031497,
                    "duration": 0.12499990833333641
                },
                {
                    "name": "A4",
                    "midi": 69,
                    "time": 36.20687000000003,
                    "velocity": 0.7874015748031497,
                    "duration": 0.2543101583333325
                },
                {
                    "name": "G4",
                    "midi": 67,
                    "time": 36.46549050000003,
                    "velocity": 0.7874015748031497,
                    "duration": 0.2543101583333325
                },
                {
                    "name": "F4",
                    "midi": 65,
                    "time": 36.72411100000003,
                    "velocity": 0.7874015748031497,
                    "duration": 0.2543101583333325
                },
                {
                    "name": "D#4",
                    "midi": 63,
                    "time": 36.98273150000003,
                    "velocity": 0.7874015748031497,
                    "duration": 0.2543101583333325
                },
                {
                    "name": "F4",
                    "midi": 65,
                    "time": 37.24135200000003,
                    "velocity": 0.7874015748031497,
                    "duration": 0.08620683333333545
                },
                {
                    "name": "D#4",
                    "midi": 63,
                    "time": 37.32755883333336,
                    "velocity": 0.7874015748031497,
                    "duration": 0.08620683333333545
                },
                {
                    "name": "F4",
                    "midi": 65,
                    "time": 37.4137656666667,
                    "velocity": 0.7874015748031497,
                    "duration": 0.08620683333333545
                },
                {
                    "name": "D#4",
                    "midi": 63,
                    "time": 37.499972500000034,
                    "velocity": 0.7874015748031497,
                    "duration": 0.08620683333333545
                },
                {
                    "name": "F4",
                    "midi": 65,
                    "time": 37.58617933333337,
                    "velocity": 0.7874015748031497,
                    "duration": 0.08620683333333545
                },
                {
                    "name": "D#4",
                    "midi": 63,
                    "time": 37.672386166666705,
                    "velocity": 0.7874015748031497,
                    "duration": 0.08620683333333545
                },
                {
                    "name": "D4",
                    "midi": 62,
                    "time": 37.75859300000004,
                    "velocity": 0.7874015748031497,
                    "duration": 0.5129306583333317
                },
                {
                    "name": "G4",
                    "midi": 67,
                    "time": 38.79307500000004,
                    "velocity": 0.7874015748031497,
                    "duration": 0.06465512500000159
                },
                {
                    "name": "F4",
                    "midi": 65,
                    "time": 38.85773012500004,
                    "velocity": 0.7874015748031497,
                    "duration": 0.06465512500000159
                },
                {
                    "name": "G4",
                    "midi": 67,
                    "time": 38.92238525000004,
                    "velocity": 0.7874015748031497,
                    "duration": 0.12499990833333641
                },
                {
                    "name": "G4",
                    "midi": 67,
                    "time": 39.051695500000044,
                    "velocity": 0.7874015748031497,
                    "duration": 0.10775854166666932
                },
                {
                    "name": "G4",
                    "midi": 67,
                    "time": 39.31031600000004,
                    "velocity": 0.7874015748031497,
                    "duration": 0.06465512500000159
                },
                {
                    "name": "F4",
                    "midi": 65,
                    "time": 39.374971125000044,
                    "velocity": 0.7874015748031497,
                    "duration": 0.06465512500000159
                },
                {
                    "name": "G4",
                    "midi": 67,
                    "time": 39.439626250000046,
                    "velocity": 0.7874015748031497,
                    "duration": 0.12499990833333641
                },
                {
                    "name": "G4",
                    "midi": 67,
                    "time": 39.56893650000005,
                    "velocity": 0.7874015748031497,
                    "duration": 0.10775854166666932
                },
                {
                    "name": "G4",
                    "midi": 67,
                    "time": 39.82755700000005,
                    "velocity": 0.7874015748031497,
                    "duration": 0.10775854166666932
                },
                {
                    "name": "A#4",
                    "midi": 70,
                    "time": 40.08617750000005,
                    "velocity": 0.7874015748031497,
                    "duration": 0.06465512500000159
                },
                {
                    "name": "A4",
                    "midi": 69,
                    "time": 40.15083262500005,
                    "velocity": 0.7874015748031497,
                    "duration": 0.06465512500000159
                },
                {
                    "name": "A#4",
                    "midi": 70,
                    "time": 40.21548775000005,
                    "velocity": 0.7874015748031497,
                    "duration": 0.06465512500000159
                },
                {
                    "name": "A4",
                    "midi": 69,
                    "time": 40.28014287500005,
                    "velocity": 0.7874015748031497,
                    "duration": 0.06465512500000159
                },
                {
                    "name": "G4",
                    "midi": 67,
                    "time": 40.344798000000054,
                    "velocity": 0.7874015748031497,
                    "duration": 0.04310341666666773
                },
                {
                    "name": "A4",
                    "midi": 69,
                    "time": 40.38790141666672,
                    "velocity": 0.7874015748031497,
                    "duration": 0.04310341666666773
                },
                {
                    "name": "A#4",
                    "midi": 70,
                    "time": 40.43100483333339,
                    "velocity": 0.7874015748031497,
                    "duration": 0.04310341666666773
                },
                {
                    "name": "F4",
                    "midi": 65,
                    "time": 40.47410825000006,
                    "velocity": 0.7874015748031497,
                    "duration": 0.12499990833333641
                },
                {
                    "name": "D#4",
                    "midi": 63,
                    "time": 40.60341850000006,
                    "velocity": 0.7874015748031497,
                    "duration": 0.12499990833333641
                },
                {
                    "name": "D4",
                    "midi": 62,
                    "time": 40.732728750000064,
                    "velocity": 0.7874015748031497,
                    "duration": 0.12499990833333641
                },
                {
                    "name": "D4",
                    "midi": 62,
                    "time": 40.99134925000007,
                    "velocity": 0.7874015748031497,
                    "duration": 0.12499990833333641
                },
                {
                    "name": "C4",
                    "midi": 60,
                    "time": 41.12065950000007,
                    "velocity": 0.7874015748031497,
                    "duration": 0.12499990833333641
                },
                {
                    "name": "A#3",
                    "midi": 58,
                    "time": 41.249969750000076,
                    "velocity": 0.7874015748031497,
                    "duration": 0.12499990833333641
                },
                {
                    "name": "D4",
                    "midi": 62,
                    "time": 41.50859025000008,
                    "velocity": 0.7874015748031497,
                    "duration": 0.12499990833333641
                },
                {
                    "name": "C4",
                    "midi": 60,
                    "time": 41.637900500000086,
                    "velocity": 0.7874015748031497,
                    "duration": 0.12499990833333641
                },
                {
                    "name": "A#3",
                    "midi": 58,
                    "time": 41.76721075000009,
                    "velocity": 0.7874015748031497,
                    "duration": 0.12499990833333641
                },
                {
                    "name": "G4",
                    "midi": 67,
                    "time": 41.89652100000009,
                    "velocity": 0.7086614173228346,
                    "duration": 0.06465512500000159
                },
                {
                    "name": "F4",
                    "midi": 65,
                    "time": 41.961176125000094,
                    "velocity": 0.7086614173228346,
                    "duration": 0.06465512500000159
                },
                {
                    "name": "G4",
                    "midi": 67,
                    "time": 42.025831250000095,
                    "velocity": 0.7086614173228346,
                    "duration": 0.12499990833333641
                },
                {
                    "name": "G4",
                    "midi": 67,
                    "time": 42.1551415000001,
                    "velocity": 0.7086614173228346,
                    "duration": 0.10775854166666932
                },
                {
                    "name": "G4",
                    "midi": 67,
                    "time": 42.4137620000001,
                    "velocity": 0.7086614173228346,
                    "duration": 0.06465512500000159
                },
                {
                    "name": "F4",
                    "midi": 65,
                    "time": 42.4784171250001,
                    "velocity": 0.7086614173228346,
                    "duration": 0.06465512500000159
                },
                {
                    "name": "G4",
                    "midi": 67,
                    "time": 42.5430722500001,
                    "velocity": 0.7086614173228346,
                    "duration": 0.12499990833333641
                },
                {
                    "name": "G4",
                    "midi": 67,
                    "time": 42.672382500000104,
                    "velocity": 0.7086614173228346,
                    "duration": 0.10775854166666932
                },
                {
                    "name": "G4",
                    "midi": 67,
                    "time": 42.9310030000001,
                    "velocity": 0.7086614173228346,
                    "duration": 0.10775854166666932
                },
                {
                    "name": "A#4",
                    "midi": 70,
                    "time": 43.1896235000001,
                    "velocity": 0.7086614173228346,
                    "duration": 0.06465512500000159
                },
                {
                    "name": "A4",
                    "midi": 69,
                    "time": 43.254278625000104,
                    "velocity": 0.7086614173228346,
                    "duration": 0.06465512500000159
                },
                {
                    "name": "A#4",
                    "midi": 70,
                    "time": 43.318933750000106,
                    "velocity": 0.7086614173228346,
                    "duration": 0.06465512500000159
                },
                {
                    "name": "A4",
                    "midi": 69,
                    "time": 43.38358887500011,
                    "velocity": 0.7086614173228346,
                    "duration": 0.06465512500000159
                },
                {
                    "name": "G4",
                    "midi": 67,
                    "time": 43.44824400000011,
                    "velocity": 0.7086614173228346,
                    "duration": 0.04310341666666773
                },
                {
                    "name": "A4",
                    "midi": 69,
                    "time": 43.49134741666678,
                    "velocity": 0.7086614173228346,
                    "duration": 0.04310341666666773
                },
                {
                    "name": "A#4",
                    "midi": 70,
                    "time": 43.534450833333445,
                    "velocity": 0.7086614173228346,
                    "duration": 0.04310341666666773
                },
                {
                    "name": "F4",
                    "midi": 65,
                    "time": 43.57755425000011,
                    "velocity": 0.7086614173228346,
                    "duration": 0.12499990833333641
                },
                {
                    "name": "D#4",
                    "midi": 63,
                    "time": 43.706864500000115,
                    "velocity": 0.7086614173228346,
                    "duration": 0.12499990833333641
                },
                {
                    "name": "D4",
                    "midi": 62,
                    "time": 43.83617475000012,
                    "velocity": 0.7086614173228346,
                    "duration": 0.12499990833333641
                },
                {
                    "name": "D4",
                    "midi": 62,
                    "time": 44.094795250000125,
                    "velocity": 0.7086614173228346,
                    "duration": 0.12499990833333641
                },
                {
                    "name": "C4",
                    "midi": 60,
                    "time": 44.22410550000013,
                    "velocity": 0.7086614173228346,
                    "duration": 0.12499990833333641
                },
                {
                    "name": "A#3",
                    "midi": 58,
                    "time": 44.35341575000013,
                    "velocity": 0.7086614173228346,
                    "duration": 0.12499990833333641
                },
                {
                    "name": "D4",
                    "midi": 62,
                    "time": 44.61203625000014,
                    "velocity": 0.7086614173228346,
                    "duration": 0.12499990833333641
                },
                {
                    "name": "C4",
                    "midi": 60,
                    "time": 44.74134650000014,
                    "velocity": 0.7086614173228346,
                    "duration": 0.12499990833333641
                },
                {
                    "name": "A#3",
                    "midi": 58,
                    "time": 44.870656750000144,
                    "velocity": 0.7086614173228346,
                    "duration": 0.12499990833333641
                },
                {
                    "name": "G4",
                    "midi": 67,
                    "time": 44.99996700000015,
                    "velocity": 0.7874015748031497,
                    "duration": 0.06465512500000159
                },
                {
                    "name": "F4",
                    "midi": 65,
                    "time": 45.06462212500015,
                    "velocity": 0.7874015748031497,
                    "duration": 0.06465512500000159
                },
                {
                    "name": "G4",
                    "midi": 67,
                    "time": 45.12927725000015,
                    "velocity": 0.7874015748031497,
                    "duration": 0.12499990833333641
                },
                {
                    "name": "G4",
                    "midi": 67,
                    "time": 45.258587500000154,
                    "velocity": 0.7874015748031497,
                    "duration": 0.10775854166666932
                },
                {
                    "name": "G4",
                    "midi": 67,
                    "time": 45.51720800000015,
                    "velocity": 0.7874015748031497,
                    "duration": 0.06465512500000159
                },
                {
                    "name": "F4",
                    "midi": 65,
                    "time": 45.581863125000154,
                    "velocity": 0.7874015748031497,
                    "duration": 0.06465512500000159
                },
                {
                    "name": "G4",
                    "midi": 67,
                    "time": 45.646518250000156,
                    "velocity": 0.7874015748031497,
                    "duration": 0.12499990833333641
                },
                {
                    "name": "G4",
                    "midi": 67,
                    "time": 45.77582850000016,
                    "velocity": 0.7874015748031497,
                    "duration": 0.10775854166666932
                },
                {
                    "name": "G4",
                    "midi": 67,
                    "time": 46.03444900000016,
                    "velocity": 0.7874015748031497,
                    "duration": 0.10775854166666932
                },
                {
                    "name": "A#4",
                    "midi": 70,
                    "time": 46.29306950000016,
                    "velocity": 0.7874015748031497,
                    "duration": 0.06465512500000159
                },
                {
                    "name": "A4",
                    "midi": 69,
                    "time": 46.35772462500016,
                    "velocity": 0.7874015748031497,
                    "duration": 0.06465512500000159
                },
                {
                    "name": "A#4",
                    "midi": 70,
                    "time": 46.42237975000016,
                    "velocity": 0.7874015748031497,
                    "duration": 0.06465512500000159
                },
                {
                    "name": "A4",
                    "midi": 69,
                    "time": 46.48703487500016,
                    "velocity": 0.7874015748031497,
                    "duration": 0.06465512500000159
                },
                {
                    "name": "G4",
                    "midi": 67,
                    "time": 46.551690000000164,
                    "velocity": 0.7874015748031497,
                    "duration": 0.06465512500000159
                },
                {
                    "name": "A4",
                    "midi": 69,
                    "time": 46.616345125000166,
                    "velocity": 0.7874015748031497,
                    "duration": 0.06465512500000159
                },
                {
                    "name": "A#4",
                    "midi": 70,
                    "time": 46.68100025000017,
                    "velocity": 0.7874015748031497,
                    "duration": 0.10775854166666932
                },
                {
                    "name": "F4",
                    "midi": 65,
                    "time": 46.81031050000017,
                    "velocity": 0.7874015748031497,
                    "duration": 0.10775854166666932
                },
                {
                    "name": "D5",
                    "midi": 74,
                    "time": 47.06893100000017,
                    "velocity": 0.7874015748031497,
                    "duration": 1.0301716583333302
                },
                {
                    "name": "F4",
                    "midi": 65,
                    "time": 47.06893100000017,
                    "velocity": 0.7874015748031497,
                    "duration": 1.0301716583333302
                },
                {
                    "name": "D4",
                    "midi": 62,
                    "time": 47.06893100000017,
                    "velocity": 0.7874015748031497,
                    "duration": 1.0301716583333302
                },
                {
                    "name": "A#4",
                    "midi": 70,
                    "time": 48.10341300000017,
                    "velocity": 0.7874015748031497,
                    "duration": 0.38362040833333566
                },
                {
                    "name": "G4",
                    "midi": 67,
                    "time": 48.10341300000017,
                    "velocity": 0.7874015748031497,
                    "duration": 0.38362040833333566
                },
                {
                    "name": "C4",
                    "midi": 60,
                    "time": 48.10341300000017,
                    "velocity": 0.7874015748031497,
                    "duration": 0.5129306583333388
                },
                {
                    "name": "C5",
                    "midi": 72,
                    "time": 48.49134375000017,
                    "velocity": 0.7874015748031497,
                    "duration": 0.12499990833333641
                },
                {
                    "name": "A#4",
                    "midi": 70,
                    "time": 48.62065400000017,
                    "velocity": 0.7874015748031497,
                    "duration": 0.08620683333333545
                },
                {
                    "name": "A4",
                    "midi": 69,
                    "time": 48.70686083333351,
                    "velocity": 0.7874015748031497,
                    "duration": 0.08620683333333545
                },
                {
                    "name": "A#4",
                    "midi": 70,
                    "time": 48.79306766666684,
                    "velocity": 0.7874015748031497,
                    "duration": 0.08620683333333545
                },
                {
                    "name": "A4",
                    "midi": 69,
                    "time": 48.87927450000018,
                    "velocity": 0.7874015748031497,
                    "duration": 0.08620683333333545
                },
                {
                    "name": "A#4",
                    "midi": 70,
                    "time": 48.965481333333514,
                    "velocity": 0.7874015748031497,
                    "duration": 0.08620683333333545
                },
                {
                    "name": "A4",
                    "midi": 69,
                    "time": 49.05168816666685,
                    "velocity": 0.7874015748031497,
                    "duration": 0.08620683333333545
                },
                {
                    "name": "A#4",
                    "midi": 70,
                    "time": 49.137895000000185,
                    "velocity": 0.7874015748031497,
                    "duration": 0.08620683333333545
                },
                {
                    "name": "A4",
                    "midi": 69,
                    "time": 49.22410183333352,
                    "velocity": 0.7874015748031497,
                    "duration": 0.16810332499999703
                },
                {
                    "name": "A#4",
                    "midi": 70,
                    "time": 49.396515500000184,
                    "velocity": 0.7874015748031497,
                    "duration": 0.2543101583333325
                },
                {
                    "name": "D#4",
                    "midi": 63,
                    "time": 49.396515500000184,
                    "velocity": 0.7874015748031497,
                    "duration": 0.2543101583333325
                },
                {
                    "name": "A#4",
                    "midi": 70,
                    "time": 49.655136000000184,
                    "velocity": 0.7874015748031497,
                    "duration": 0.10775854166666932
                },
                {
                    "name": "A#4",
                    "midi": 70,
                    "time": 49.91375650000018,
                    "velocity": 0.7874015748031497,
                    "duration": 0.10775854166666932
                },
                {
                    "name": "A#4",
                    "midi": 70,
                    "time": 50.17237700000018,
                    "velocity": 0.7874015748031497,
                    "duration": 0.06465512500000159
                },
                {
                    "name": "A4",
                    "midi": 69,
                    "time": 50.237032125000184,
                    "velocity": 0.7874015748031497,
                    "duration": 0.06465512500000159
                },
                {
                    "name": "A#4",
                    "midi": 70,
                    "time": 50.301687250000185,
                    "velocity": 0.7874015748031497,
                    "duration": 0.06465512500000159
                },
                {
                    "name": "A#4",
                    "midi": 70,
                    "time": 50.43099750000019,
                    "velocity": 0.7874015748031497,
                    "duration": 0.10775854166666932
                },
                {
                    "name": "A#4",
                    "midi": 70,
                    "time": 50.68961800000019,
                    "velocity": 0.7874015748031497,
                    "duration": 0.10775854166666932
                },
                {
                    "name": "A#4",
                    "midi": 70,
                    "time": 50.94823850000019,
                    "velocity": 0.7874015748031497,
                    "duration": 0.10775854166666932
                },
                {
                    "name": "A#4",
                    "midi": 70,
                    "time": 51.206859000000186,
                    "velocity": 0.7874015748031497,
                    "duration": 0.06465512500000159
                },
                {
                    "name": "D5",
                    "midi": 74,
                    "time": 51.27151412500019,
                    "velocity": 0.7874015748031497,
                    "duration": 0.06465512500000159
                },
                {
                    "name": "F5",
                    "midi": 77,
                    "time": 51.33616925000019,
                    "velocity": 0.7874015748031497,
                    "duration": 0.06465512500000159
                },
                {
                    "name": "A#4",
                    "midi": 70,
                    "time": 51.46547950000019,
                    "velocity": 0.7874015748031497,
                    "duration": 0.10775854166666932
                },
                {
                    "name": "A#4",
                    "midi": 70,
                    "time": 51.72410000000019,
                    "velocity": 0.7874015748031497,
                    "duration": 0.10775854166666932
                },
                {
                    "name": "A#4",
                    "midi": 70,
                    "time": 51.98272050000019,
                    "velocity": 0.7874015748031497,
                    "duration": 0.10775854166666932
                },
                {
                    "name": "A#4",
                    "midi": 70,
                    "time": 52.24134100000019,
                    "velocity": 0.7874015748031497,
                    "duration": 0.10775854166666932
                },
                {
                    "name": "A#4",
                    "midi": 70,
                    "time": 52.49996150000019,
                    "velocity": 0.7874015748031497,
                    "duration": 0.10775854166666932
                },
                {
                    "name": "A#4",
                    "midi": 70,
                    "time": 52.75858200000019,
                    "velocity": 0.7874015748031497,
                    "duration": 0.06465512500000159
                },
                {
                    "name": "D5",
                    "midi": 74,
                    "time": 52.82323712500019,
                    "velocity": 0.7874015748031497,
                    "duration": 0.06465512500000159
                },
                {
                    "name": "F5",
                    "midi": 77,
                    "time": 52.88789225000019,
                    "velocity": 0.7874015748031497,
                    "duration": 0.06465512500000159
                },
                {
                    "name": "A#5",
                    "midi": 82,
                    "time": 52.952547375000194,
                    "velocity": 0.7874015748031497,
                    "duration": 0.8405166249999994
                },
                {
                    "name": "G#5",
                    "midi": 80,
                    "time": 53.79306400000019,
                    "velocity": 0.7874015748031497,
                    "duration": 0.5129306583333317
                },
                {
                    "name": "G#5",
                    "midi": 80,
                    "time": 54.31030500000019,
                    "velocity": 0.7874015748031497,
                    "duration": 0.2543101583333325
                },
                {
                    "name": "G5",
                    "midi": 79,
                    "time": 54.56892550000019,
                    "velocity": 0.7874015748031497,
                    "duration": 0.08620683333333545
                },
                {
                    "name": "G#5",
                    "midi": 80,
                    "time": 54.655132333333526,
                    "velocity": 0.7874015748031497,
                    "duration": 0.08620683333333545
                },
                {
                    "name": "G5",
                    "midi": 79,
                    "time": 54.74133916666686,
                    "velocity": 0.7874015748031497,
                    "duration": 0.08620683333333545
                },
                {
                    "name": "G#5",
                    "midi": 80,
                    "time": 54.8275460000002,
                    "velocity": 0.7874015748031497,
                    "duration": 0.08620683333333545
                },
                {
                    "name": "G5",
                    "midi": 79,
                    "time": 54.91375283333353,
                    "velocity": 0.7874015748031497,
                    "duration": 0.08620683333333545
                },
                {
                    "name": "G#5",
                    "midi": 80,
                    "time": 54.99995966666687,
                    "velocity": 0.7874015748031497,
                    "duration": 0.08620683333333545
                },
                {
                    "name": "G5",
                    "midi": 79,
                    "time": 55.0861665000002,
                    "velocity": 0.7874015748031497,
                    "duration": 0.08620683333333545
                },
                {
                    "name": "G#5",
                    "midi": 80,
                    "time": 55.17237333333354,
                    "velocity": 0.7874015748031497,
                    "duration": 0.08620683333333545
                },
                {
                    "name": "G5",
                    "midi": 79,
                    "time": 55.258580166666874,
                    "velocity": 0.7874015748031497,
                    "duration": 0.08620683333333545
                },
                {
                    "name": "F5",
                    "midi": 77,
                    "time": 55.34478700000021,
                    "velocity": 0.7874015748031497,
                    "duration": 0.5129306583333317
                },
                {
                    "name": "F5",
                    "midi": 77,
                    "time": 55.86202800000021,
                    "velocity": 0.7874015748031497,
                    "duration": 0.12499990833333641
                },
                {
                    "name": "D#5",
                    "midi": 75,
                    "time": 55.99133825000021,
                    "velocity": 0.7874015748031497,
                    "duration": 0.12499990833333641
                },
                {
                    "name": "F5",
                    "midi": 77,
                    "time": 56.120648500000215,
                    "velocity": 0.7874015748031497,
                    "duration": 0.08620683333333545
                },
                {
                    "name": "D#5",
                    "midi": 75,
                    "time": 56.20685533333355,
                    "velocity": 0.7874015748031497,
                    "duration": 0.08620683333333545
                },
                {
                    "name": "F5",
                    "midi": 77,
                    "time": 56.293062166666886,
                    "velocity": 0.7874015748031497,
                    "duration": 0.08620683333333545
                },
                {
                    "name": "D#5",
                    "midi": 75,
                    "time": 56.37926900000022,
                    "velocity": 0.7874015748031497,
                    "duration": 0.08620683333333545
                },
                {
                    "name": "F5",
                    "midi": 77,
                    "time": 56.46547583333356,
                    "velocity": 0.7874015748031497,
                    "duration": 0.08620683333333545
                },
                {
                    "name": "D#5",
                    "midi": 75,
                    "time": 56.55168266666689,
                    "velocity": 0.7874015748031497,
                    "duration": 0.08620683333333545
                },
                {
                    "name": "D5",
                    "midi": 74,
                    "time": 56.63788950000023,
                    "velocity": 0.7874015748031497,
                    "duration": 0.2543101583333325
                },
                {
                    "name": "C5",
                    "midi": 72,
                    "time": 56.89651000000023,
                    "velocity": 0.7874015748031497,
                    "duration": 0.5129306583333317
                },
                {
                    "name": "C5",
                    "midi": 72,
                    "time": 57.672371500000224,
                    "velocity": 0.7086614173228346,
                    "duration": 0.10775854166666932
                },
                {
                    "name": "C5",
                    "midi": 72,
                    "time": 57.930992000000224,
                    "velocity": 0.7086614173228346,
                    "duration": 0.10775854166666932
                },
                {
                    "name": "C5",
                    "midi": 72,
                    "time": 58.18961250000022,
                    "velocity": 0.7086614173228346,
                    "duration": 0.10775854166666932
                },
                {
                    "name": "C5",
                    "midi": 72,
                    "time": 58.44823300000022,
                    "velocity": 0.7086614173228346,
                    "duration": 0.10775854166666932
                },
                {
                    "name": "C5",
                    "midi": 72,
                    "time": 58.70685350000022,
                    "velocity": 0.7086614173228346,
                    "duration": 0.10775854166666932
                },
                {
                    "name": "C5",
                    "midi": 72,
                    "time": 58.96547400000022,
                    "velocity": 0.7086614173228346,
                    "duration": 0.06465512500000159
                },
                {
                    "name": "D#5",
                    "midi": 75,
                    "time": 59.03012912500022,
                    "velocity": 0.7086614173228346,
                    "duration": 0.06465512500000159
                },
                {
                    "name": "G5",
                    "midi": 79,
                    "time": 59.094784250000224,
                    "velocity": 0.7086614173228346,
                    "duration": 0.06465512500000159
                },
                {
                    "name": "C5",
                    "midi": 72,
                    "time": 59.22409450000023,
                    "velocity": 0.7086614173228346,
                    "duration": 0.10775854166666932
                },
                {
                    "name": "C5",
                    "midi": 72,
                    "time": 59.482715000000226,
                    "velocity": 0.7086614173228346,
                    "duration": 0.10775854166666932
                },
                {
                    "name": "C5",
                    "midi": 72,
                    "time": 59.741335500000226,
                    "velocity": 0.7086614173228346,
                    "duration": 0.10775854166666932
                },
                {
                    "name": "C5",
                    "midi": 72,
                    "time": 59.999956000000225,
                    "velocity": 0.7086614173228346,
                    "duration": 0.10775854166666932
                },
                {
                    "name": "C5",
                    "midi": 72,
                    "time": 60.258576500000224,
                    "velocity": 0.7086614173228346,
                    "duration": 0.10775854166666932
                },
                {
                    "name": "C5",
                    "midi": 72,
                    "time": 60.51719700000022,
                    "velocity": 0.7086614173228346,
                    "duration": 0.06465512500000159
                },
                {
                    "name": "D#5",
                    "midi": 75,
                    "time": 60.581852125000225,
                    "velocity": 0.7086614173228346,
                    "duration": 0.06465512500000159
                },
                {
                    "name": "G5",
                    "midi": 79,
                    "time": 60.64650725000023,
                    "velocity": 0.7086614173228346,
                    "duration": 0.06465512500000159
                },
                {
                    "name": "C6",
                    "midi": 84,
                    "time": 60.71116237500023,
                    "velocity": 0.7086614173228346,
                    "duration": 0.8405166249999994
                },
                {
                    "name": "A#5",
                    "midi": 82,
                    "time": 61.55167900000023,
                    "velocity": 0.7086614173228346,
                    "duration": 0.5129306583333317
                },
                {
                    "name": "A#5",
                    "midi": 82,
                    "time": 62.068920000000226,
                    "velocity": 0.7086614173228346,
                    "duration": 0.2543101583333325
                },
                {
                    "name": "A5",
                    "midi": 81,
                    "time": 62.327540500000225,
                    "velocity": 0.7086614173228346,
                    "duration": 0.08620683333333545
                },
                {
                    "name": "A#5",
                    "midi": 82,
                    "time": 62.41374733333356,
                    "velocity": 0.7086614173228346,
                    "duration": 0.08620683333333545
                },
                {
                    "name": "A5",
                    "midi": 81,
                    "time": 62.499954166666896,
                    "velocity": 0.7086614173228346,
                    "duration": 0.08620683333333545
                },
                {
                    "name": "A#5",
                    "midi": 82,
                    "time": 62.58616100000023,
                    "velocity": 0.7086614173228346,
                    "duration": 0.08620683333333545
                },
                {
                    "name": "A5",
                    "midi": 81,
                    "time": 62.67236783333357,
                    "velocity": 0.7086614173228346,
                    "duration": 0.08620683333333545
                },
                {
                    "name": "A#5",
                    "midi": 82,
                    "time": 62.7585746666669,
                    "velocity": 0.7086614173228346,
                    "duration": 0.08620683333333545
                },
                {
                    "name": "A5",
                    "midi": 81,
                    "time": 62.84478150000024,
                    "velocity": 0.7086614173228346,
                    "duration": 0.08620683333333545
                },
                {
                    "name": "A#5",
                    "midi": 82,
                    "time": 62.93098833333357,
                    "velocity": 0.7086614173228346,
                    "duration": 0.08620683333333545
                },
                {
                    "name": "A5",
                    "midi": 81,
                    "time": 63.01719516666691,
                    "velocity": 0.7086614173228346,
                    "duration": 0.08620683333333545
                },
                {
                    "name": "G5",
                    "midi": 79,
                    "time": 63.103402000000244,
                    "velocity": 0.7086614173228346,
                    "duration": 0.5129306583333317
                },
                {
                    "name": "G5",
                    "midi": 79,
                    "time": 63.62064300000024,
                    "velocity": 0.7086614173228346,
                    "duration": 0.12499990833333641
                },
                {
                    "name": "F#5",
                    "midi": 78,
                    "time": 63.749953250000246,
                    "velocity": 0.7086614173228346,
                    "duration": 0.04310341666666773
                },
                {
                    "name": "G5",
                    "midi": 79,
                    "time": 63.793056666666914,
                    "velocity": 0.7086614173228346,
                    "duration": 0.04310341666666773
                },
                {
                    "name": "F#5",
                    "midi": 78,
                    "time": 63.83616008333358,
                    "velocity": 0.7086614173228346,
                    "duration": 0.04310341666666773
                },
                {
                    "name": "G5",
                    "midi": 79,
                    "time": 63.87926350000025,
                    "velocity": 0.7086614173228346,
                    "duration": 0.04310341666666773
                },
                {
                    "name": "F#5",
                    "midi": 78,
                    "time": 63.92236691666692,
                    "velocity": 0.7086614173228346,
                    "duration": 0.469827241666664
                },
                {
                    "name": "E5",
                    "midi": 76,
                    "time": 64.39650450000025,
                    "velocity": 0.7086614173228346,
                    "duration": 0.2543101583333396
                },
                {
                    "name": "D5",
                    "midi": 74,
                    "time": 64.65512500000025,
                    "velocity": 0.7086614173228346,
                    "duration": 0.5129306583333317
                },
                {
                    "name": "A4",
                    "midi": 69,
                    "time": 65.43098650000026,
                    "velocity": 0.7874015748031497,
                    "duration": 0.10775854166666932
                },
                {
                    "name": "A4",
                    "midi": 69,
                    "time": 65.68960700000027,
                    "velocity": 0.7874015748031497,
                    "duration": 0.10775854166666932
                },
                {
                    "name": "A4",
                    "midi": 69,
                    "time": 65.94822750000027,
                    "velocity": 0.7874015748031497,
                    "duration": 0.10775854166666932
                },
                {
                    "name": "A4",
                    "midi": 69,
                    "time": 66.20684800000028,
                    "velocity": 0.7874015748031497,
                    "duration": 0.10775854166666932
                },
                {
                    "name": "A4",
                    "midi": 69,
                    "time": 66.46546850000028,
                    "velocity": 0.7874015748031497,
                    "duration": 0.10775854166666932
                },
                {
                    "name": "A#4",
                    "midi": 70,
                    "time": 66.72408900000029,
                    "velocity": 0.7874015748031497,
                    "duration": 0.12499990833333641
                },
                {
                    "name": "A4",
                    "midi": 69,
                    "time": 66.8533992500003,
                    "velocity": 0.7874015748031497,
                    "duration": 0.12499990833333641
                },
                {
                    "name": "A#4",
                    "midi": 70,
                    "time": 66.9827095000003,
                    "velocity": 0.7874015748031497,
                    "duration": 0.04310341666666773
                },
                {
                    "name": "A4",
                    "midi": 69,
                    "time": 67.02581291666696,
                    "velocity": 0.7874015748031497,
                    "duration": 0.04310341666666773
                },
                {
                    "name": "A#4",
                    "midi": 70,
                    "time": 67.06891633333363,
                    "velocity": 0.7874015748031497,
                    "duration": 0.04310341666666773
                },
                {
                    "name": "C5",
                    "midi": 72,
                    "time": 67.1120197500003,
                    "velocity": 0.7874015748031497,
                    "duration": 0.12499990833333641
                },
                {
                    "name": "D5",
                    "midi": 74,
                    "time": 67.2413300000003,
                    "velocity": 0.7874015748031497,
                    "duration": 0.10775854166666932
                },
                {
                    "name": "D5",
                    "midi": 74,
                    "time": 67.49995050000031,
                    "velocity": 0.7874015748031497,
                    "duration": 0.5129306583333317
                },
                {
                    "name": "C5",
                    "midi": 72,
                    "time": 68.01719150000031,
                    "velocity": 0.7874015748031497,
                    "duration": 0.04310341666666773
                },
                {
                    "name": "D5",
                    "midi": 74,
                    "time": 68.06029491666698,
                    "velocity": 0.7874015748031497,
                    "duration": 0.04310341666666773
                },
                {
                    "name": "C5",
                    "midi": 72,
                    "time": 68.10339833333364,
                    "velocity": 0.7874015748031497,
                    "duration": 0.04310341666666773
                },
                {
                    "name": "A#4",
                    "midi": 70,
                    "time": 68.14650175000031,
                    "velocity": 0.7874015748031497,
                    "duration": 0.12499990833333641
                },
                {
                    "name": "A4",
                    "midi": 69,
                    "time": 68.27581200000031,
                    "velocity": 0.7874015748031497,
                    "duration": 0.12499990833333641
                },
                {
                    "name": "G4",
                    "midi": 67,
                    "time": 68.40512225000032,
                    "velocity": 0.7874015748031497,
                    "duration": 0.12499990833333641
                },
                {
                    "name": "A4",
                    "midi": 69,
                    "time": 68.53443250000032,
                    "velocity": 0.7874015748031497,
                    "duration": 0.04310341666666773
                },
                {
                    "name": "G4",
                    "midi": 67,
                    "time": 68.57753591666699,
                    "velocity": 0.7874015748031497,
                    "duration": 0.04310341666666773
                },
                {
                    "name": "A4",
                    "midi": 69,
                    "time": 68.62063933333366,
                    "velocity": 0.7874015748031497,
                    "duration": 0.04310341666666773
                },
                {
                    "name": "A#4",
                    "midi": 70,
                    "time": 68.66374275000032,
                    "velocity": 0.7874015748031497,
                    "duration": 0.12499990833333641
                },
                {
                    "name": "C5",
                    "midi": 72,
                    "time": 68.79305300000033,
                    "velocity": 0.7874015748031497,
                    "duration": 0.10775854166666932
                },
                {
                    "name": "C5",
                    "midi": 72,
                    "time": 69.05167350000033,
                    "velocity": 0.7874015748031497,
                    "duration": 0.5129306583333317
                },
                {
                    "name": "A#4",
                    "midi": 70,
                    "time": 69.56891450000033,
                    "velocity": 0.7874015748031497,
                    "duration": 0.04310341666666773
                },
                {
                    "name": "C5",
                    "midi": 72,
                    "time": 69.612017916667,
                    "velocity": 0.7874015748031497,
                    "duration": 0.04310341666666773
                },
                {
                    "name": "A#4",
                    "midi": 70,
                    "time": 69.65512133333367,
                    "velocity": 0.7874015748031497,
                    "duration": 0.04310341666666773
                },
                {
                    "name": "A4",
                    "midi": 69,
                    "time": 69.69822475000034,
                    "velocity": 0.7874015748031497,
                    "duration": 0.12499990833333641
                },
                {
                    "name": "A#4",
                    "midi": 70,
                    "time": 69.82753500000034,
                    "velocity": 0.7874015748031497,
                    "duration": 0.12499990833333641
                },
                {
                    "name": "A4",
                    "midi": 69,
                    "time": 69.95684525000034,
                    "velocity": 0.7874015748031497,
                    "duration": 0.12499990833333641
                },
                {
                    "name": "A#4",
                    "midi": 70,
                    "time": 70.08615550000034,
                    "velocity": 0.7874015748031497,
                    "duration": 0.04310341666666773
                },
                {
                    "name": "A4",
                    "midi": 69,
                    "time": 70.12925891666701,
                    "velocity": 0.7874015748031497,
                    "duration": 0.04310341666666773
                },
                {
                    "name": "A#4",
                    "midi": 70,
                    "time": 70.17236233333368,
                    "velocity": 0.7874015748031497,
                    "duration": 0.04310341666666773
                },
                {
                    "name": "C5",
                    "midi": 72,
                    "time": 70.21546575000035,
                    "velocity": 0.7874015748031497,
                    "duration": 0.12499990833333641
                },
                {
                    "name": "D5",
                    "midi": 74,
                    "time": 70.34477600000035,
                    "velocity": 0.7874015748031497,
                    "duration": 0.10775854166666932
                },
                {
                    "name": "D5",
                    "midi": 74,
                    "time": 70.60339650000036,
                    "velocity": 0.7874015748031497,
                    "duration": 0.5129306583333317
                },
                {
                    "name": "C5",
                    "midi": 72,
                    "time": 71.12063750000036,
                    "velocity": 0.7874015748031497,
                    "duration": 0.04310341666666773
                },
                {
                    "name": "D5",
                    "midi": 74,
                    "time": 71.16374091666702,
                    "velocity": 0.7874015748031497,
                    "duration": 0.04310341666666773
                },
                {
                    "name": "C5",
                    "midi": 72,
                    "time": 71.20684433333369,
                    "velocity": 0.7874015748031497,
                    "duration": 0.04310341666666773
                },
                {
                    "name": "A#4",
                    "midi": 70,
                    "time": 71.24994775000036,
                    "velocity": 0.7874015748031497,
                    "duration": 0.12499990833333641
                },
                {
                    "name": "A4",
                    "midi": 69,
                    "time": 71.37925800000036,
                    "velocity": 0.7874015748031497,
                    "duration": 0.08620683333333545
                },
                {
                    "name": "A#4",
                    "midi": 70,
                    "time": 71.4654648333337,
                    "velocity": 0.7874015748031497,
                    "duration": 0.08620683333333545
                },
                {
                    "name": "A4",
                    "midi": 69,
                    "time": 71.55167166666703,
                    "velocity": 0.7874015748031497,
                    "duration": 0.08620683333333545
                },
                {
                    "name": "A#4",
                    "midi": 70,
                    "time": 71.63787850000037,
                    "velocity": 0.7874015748031497,
                    "duration": 0.08620683333333545
                },
                {
                    "name": "A4",
                    "midi": 69,
                    "time": 71.7240853333337,
                    "velocity": 0.7874015748031497,
                    "duration": 0.08620683333333545
                },
                {
                    "name": "A#4",
                    "midi": 70,
                    "time": 71.81029216666704,
                    "velocity": 0.7874015748031497,
                    "duration": 0.08620683333333545
                },
                {
                    "name": "A4",
                    "midi": 69,
                    "time": 71.89649900000038,
                    "velocity": 0.7874015748031497,
                    "duration": 0.08620683333333545
                },
                {
                    "name": "A#4",
                    "midi": 70,
                    "time": 71.98270583333371,
                    "velocity": 0.7874015748031497,
                    "duration": 0.08620683333333545
                },
                {
                    "name": "A4",
                    "midi": 69,
                    "time": 72.06891266666705,
                    "velocity": 0.7874015748031497,
                    "duration": 0.08620683333333545
                },
                {
                    "name": "A#4",
                    "midi": 70,
                    "time": 72.15511950000038,
                    "velocity": 0.7874015748031497,
                    "duration": 0.08620683333333545
                },
                {
                    "name": "A4",
                    "midi": 69,
                    "time": 72.24132633333372,
                    "velocity": 0.7874015748031497,
                    "duration": 0.08620683333333545
                },
                {
                    "name": "A#4",
                    "midi": 70,
                    "time": 72.32753316666705,
                    "velocity": 0.7874015748031497,
                    "duration": 0.08620683333333545
                },
                {
                    "name": "A4",
                    "midi": 69,
                    "time": 72.41374000000039,
                    "velocity": 0.7874015748031497,
                    "duration": 0.12499990833333641
                },
                {
                    "name": "A#4",
                    "midi": 70,
                    "time": 72.93098100000039,
                    "velocity": 0.7086614173228346,
                    "duration": 0.12499990833333641
                },
                {
                    "name": "A4",
                    "midi": 69,
                    "time": 73.06029125000039,
                    "velocity": 0.7086614173228346,
                    "duration": 0.12499990833333641
                },
                {
                    "name": "A#4",
                    "midi": 70,
                    "time": 73.18960150000039,
                    "velocity": 0.7086614173228346,
                    "duration": 0.04310341666666773
                },
                {
                    "name": "A4",
                    "midi": 69,
                    "time": 73.23270491666706,
                    "velocity": 0.7086614173228346,
                    "duration": 0.04310341666666773
                },
                {
                    "name": "A#4",
                    "midi": 70,
                    "time": 73.27580833333373,
                    "velocity": 0.7086614173228346,
                    "duration": 0.04310341666666773
                },
                {
                    "name": "D5",
                    "midi": 74,
                    "time": 73.3189117500004,
                    "velocity": 0.7086614173228346,
                    "duration": 0.12499990833333641
                },
                {
                    "name": "A#4",
                    "midi": 70,
                    "time": 73.4482220000004,
                    "velocity": 0.7086614173228346,
                    "duration": 0.12499990833333641
                },
                {
                    "name": "A4",
                    "midi": 69,
                    "time": 73.5775322500004,
                    "velocity": 0.7086614173228346,
                    "duration": 0.12499990833333641
                },
                {
                    "name": "A#4",
                    "midi": 70,
                    "time": 73.7068425000004,
                    "velocity": 0.7086614173228346,
                    "duration": 0.04310341666666773
                },
                {
                    "name": "A4",
                    "midi": 69,
                    "time": 73.74994591666707,
                    "velocity": 0.7086614173228346,
                    "duration": 0.04310341666666773
                },
                {
                    "name": "A#4",
                    "midi": 70,
                    "time": 73.79304933333374,
                    "velocity": 0.7086614173228346,
                    "duration": 0.04310341666666773
                },
                {
                    "name": "D5",
                    "midi": 74,
                    "time": 73.83615275000041,
                    "velocity": 0.7086614173228346,
                    "duration": 0.12499990833333641
                },
                {
                    "name": "B4",
                    "midi": 71,
                    "time": 73.96546300000041,
                    "velocity": 0.7086614173228346,
                    "duration": 0.12499990833333641
                },
                {
                    "name": "A4",
                    "midi": 69,
                    "time": 74.09477325000042,
                    "velocity": 0.7086614173228346,
                    "duration": 0.12499990833333641
                },
                {
                    "name": "B4",
                    "midi": 71,
                    "time": 74.22408350000042,
                    "velocity": 0.7086614173228346,
                    "duration": 0.04310341666666773
                },
                {
                    "name": "A4",
                    "midi": 69,
                    "time": 74.26718691666709,
                    "velocity": 0.7086614173228346,
                    "duration": 0.04310341666666773
                },
                {
                    "name": "B4",
                    "midi": 71,
                    "time": 74.31029033333375,
                    "velocity": 0.7086614173228346,
                    "duration": 0.04310341666666773
                },
                {
                    "name": "D5",
                    "midi": 74,
                    "time": 74.35339375000042,
                    "velocity": 0.7086614173228346,
                    "duration": 0.12499990833333641
                },
                {
                    "name": "C5",
                    "midi": 72,
                    "time": 74.48270400000042,
                    "velocity": 0.7086614173228346,
                    "duration": 0.12499990833333641
                },
                {
                    "name": "B4",
                    "midi": 71,
                    "time": 74.61201425000043,
                    "velocity": 0.7086614173228346,
                    "duration": 0.12499990833333641
                },
                {
                    "name": "C5",
                    "midi": 72,
                    "time": 74.74132450000043,
                    "velocity": 0.7086614173228346,
                    "duration": 0.04310341666666773
                },
                {
                    "name": "B4",
                    "midi": 71,
                    "time": 74.7844279166671,
                    "velocity": 0.7086614173228346,
                    "duration": 0.04310341666666773
                },
                {
                    "name": "C5",
                    "midi": 72,
                    "time": 74.82753133333377,
                    "velocity": 0.7086614173228346,
                    "duration": 0.04310341666666773
                },
                {
                    "name": "D#5",
                    "midi": 75,
                    "time": 74.87063475000043,
                    "velocity": 0.7086614173228346,
                    "duration": 0.12499990833333641
                },
                {
                    "name": "C5",
                    "midi": 72,
                    "time": 74.99994500000044,
                    "velocity": 0.7086614173228346,
                    "duration": 0.12499990833333641
                },
                {
                    "name": "B4",
                    "midi": 71,
                    "time": 75.12925525000044,
                    "velocity": 0.7086614173228346,
                    "duration": 0.12499990833333641
                },
                {
                    "name": "C5",
                    "midi": 72,
                    "time": 75.25856550000044,
                    "velocity": 0.7086614173228346,
                    "duration": 0.04310341666666773
                },
                {
                    "name": "B4",
                    "midi": 71,
                    "time": 75.30166891666711,
                    "velocity": 0.7086614173228346,
                    "duration": 0.04310341666666773
                },
                {
                    "name": "C5",
                    "midi": 72,
                    "time": 75.34477233333378,
                    "velocity": 0.7086614173228346,
                    "duration": 0.04310341666666773
                },
                {
                    "name": "D#5",
                    "midi": 75,
                    "time": 75.38787575000045,
                    "velocity": 0.7086614173228346,
                    "duration": 0.12499990833333641
                },
                {
                    "name": "C#5",
                    "midi": 73,
                    "time": 75.51718600000045,
                    "velocity": 0.7086614173228346,
                    "duration": 0.12499990833333641
                },
                {
                    "name": "B4",
                    "midi": 71,
                    "time": 75.64649625000045,
                    "velocity": 0.7086614173228346,
                    "duration": 0.12499990833333641
                },
                {
                    "name": "C#5",
                    "midi": 73,
                    "time": 75.77580650000046,
                    "velocity": 0.7086614173228346,
                    "duration": 0.04310341666666773
                },
                {
                    "name": "B4",
                    "midi": 71,
                    "time": 75.81890991666712,
                    "velocity": 0.7086614173228346,
                    "duration": 0.04310341666666773
                },
                {
                    "name": "C#5",
                    "midi": 73,
                    "time": 75.86201333333379,
                    "velocity": 0.7086614173228346,
                    "duration": 0.04310341666666773
                },
                {
                    "name": "E5",
                    "midi": 76,
                    "time": 75.90511675000046,
                    "velocity": 0.7086614173228346,
                    "duration": 0.12499990833333641
                },
                {
                    "name": "D5",
                    "midi": 74,
                    "time": 76.03442700000046,
                    "velocity": 0.7086614173228346,
                    "duration": 0.12499990833333641
                },
                {
                    "name": "C#5",
                    "midi": 73,
                    "time": 76.16373725000047,
                    "velocity": 0.7086614173228346,
                    "duration": 0.12499990833333641
                },
                {
                    "name": "D5",
                    "midi": 74,
                    "time": 76.29304750000047,
                    "velocity": 0.7086614173228346,
                    "duration": 0.04310341666666773
                },
                {
                    "name": "C#5",
                    "midi": 73,
                    "time": 76.33615091666714,
                    "velocity": 0.7086614173228346,
                    "duration": 0.04310341666666773
                },
                {
                    "name": "D5",
                    "midi": 74,
                    "time": 76.3792543333338,
                    "velocity": 0.7086614173228346,
                    "duration": 0.04310341666666773
                },
                {
                    "name": "F5",
                    "midi": 77,
                    "time": 76.42235775000047,
                    "velocity": 0.7086614173228346,
                    "duration": 0.12499990833333641
                },
                {
                    "name": "D5",
                    "midi": 74,
                    "time": 76.55166800000048,
                    "velocity": 0.7086614173228346,
                    "duration": 0.12499990833333641
                },
                {
                    "name": "C#5",
                    "midi": 73,
                    "time": 76.68097825000048,
                    "velocity": 0.7086614173228346,
                    "duration": 0.12499990833333641
                },
                {
                    "name": "D5",
                    "midi": 74,
                    "time": 76.81028850000048,
                    "velocity": 0.7086614173228346,
                    "duration": 0.04310341666666773
                },
                {
                    "name": "C#5",
                    "midi": 73,
                    "time": 76.85339191666715,
                    "velocity": 0.7086614173228346,
                    "duration": 0.04310341666666773
                },
                {
                    "name": "D5",
                    "midi": 74,
                    "time": 76.89649533333382,
                    "velocity": 0.7086614173228346,
                    "duration": 0.04310341666666773
                },
                {
                    "name": "F5",
                    "midi": 77,
                    "time": 76.93959875000048,
                    "velocity": 0.7086614173228346,
                    "duration": 0.12499990833333641
                },
                {
                    "name": "E5",
                    "midi": 76,
                    "time": 77.06890900000049,
                    "velocity": 0.7086614173228346,
                    "duration": 0.12499990833333641
                },
                {
                    "name": "D5",
                    "midi": 74,
                    "time": 77.19821925000049,
                    "velocity": 0.7086614173228346,
                    "duration": 0.12499990833333641
                },
                {
                    "name": "E5",
                    "midi": 76,
                    "time": 77.3275295000005,
                    "velocity": 0.7086614173228346,
                    "duration": 0.04310341666666773
                },
                {
                    "name": "D5",
                    "midi": 74,
                    "time": 77.37063291666716,
                    "velocity": 0.7086614173228346,
                    "duration": 0.04310341666666773
                },
                {
                    "name": "E5",
                    "midi": 76,
                    "time": 77.41373633333383,
                    "velocity": 0.7086614173228346,
                    "duration": 0.04310341666666773
                },
                {
                    "name": "G5",
                    "midi": 79,
                    "time": 77.4568397500005,
                    "velocity": 0.7086614173228346,
                    "duration": 0.12499990833333641
                },
                {
                    "name": "F5",
                    "midi": 77,
                    "time": 77.5861500000005,
                    "velocity": 0.7086614173228346,
                    "duration": 0.06465512500000159
                },
                {
                    "name": "E5",
                    "midi": 76,
                    "time": 77.6508051250005,
                    "velocity": 0.7086614173228346,
                    "duration": 0.06465512500000159
                },
                {
                    "name": "F5",
                    "midi": 77,
                    "time": 77.7154602500005,
                    "velocity": 0.7086614173228346,
                    "duration": 0.12499990833333641
                },
                {
                    "name": "G5",
                    "midi": 79,
                    "time": 77.84477050000051,
                    "velocity": 0.7086614173228346,
                    "duration": 0.06465512500000159
                },
                {
                    "name": "F5",
                    "midi": 77,
                    "time": 77.90942562500051,
                    "velocity": 0.7086614173228346,
                    "duration": 0.06465512500000159
                },
                {
                    "name": "E5",
                    "midi": 76,
                    "time": 77.97408075000051,
                    "velocity": 0.7086614173228346,
                    "duration": 0.06465512500000159
                },
                {
                    "name": "F5",
                    "midi": 77,
                    "time": 78.03873587500051,
                    "velocity": 0.7086614173228346,
                    "duration": 0.06465512500000159
                },
                {
                    "name": "G5",
                    "midi": 79,
                    "time": 78.10339100000051,
                    "velocity": 0.7086614173228346,
                    "duration": 0.2543101583333396
                },
                {
                    "name": "F5",
                    "midi": 77,
                    "time": 78.36201150000052,
                    "velocity": 0.7086614173228346,
                    "duration": 0.2543101583333396
                },
                {
                    "name": "E5",
                    "midi": 76,
                    "time": 78.62063200000053,
                    "velocity": 0.7086614173228346,
                    "duration": 0.06465512500000159
                },
                {
                    "name": "F5",
                    "midi": 77,
                    "time": 78.68528712500053,
                    "velocity": 0.7086614173228346,
                    "duration": 0.06465512500000159
                },
                {
                    "name": "E5",
                    "midi": 76,
                    "time": 78.74994225000053,
                    "velocity": 0.7086614173228346,
                    "duration": 0.12499990833333641
                },
                {
                    "name": "D5",
                    "midi": 74,
                    "time": 78.87925250000053,
                    "velocity": 0.7086614173228346,
                    "duration": 0.2543101583333396
                },
                {
                    "name": "C#5",
                    "midi": 73,
                    "time": 79.13787300000054,
                    "velocity": 0.7086614173228346,
                    "duration": 0.08620683333333545
                },
                {
                    "name": "D5",
                    "midi": 74,
                    "time": 79.22407983333387,
                    "velocity": 0.7086614173228346,
                    "duration": 0.08620683333333545
                },
                {
                    "name": "C#5",
                    "midi": 73,
                    "time": 79.31028666666721,
                    "velocity": 0.7086614173228346,
                    "duration": 0.08620683333333545
                },
                {
                    "name": "D5",
                    "midi": 74,
                    "time": 79.39649350000055,
                    "velocity": 0.7086614173228346,
                    "duration": 0.08620683333333545
                },
                {
                    "name": "C#5",
                    "midi": 73,
                    "time": 79.48270033333388,
                    "velocity": 0.7086614173228346,
                    "duration": 0.08620683333333545
                },
                {
                    "name": "D5",
                    "midi": 74,
                    "time": 79.56890716666722,
                    "velocity": 0.7086614173228346,
                    "duration": 0.08620683333333545
                },
                {
                    "name": "C#5",
                    "midi": 73,
                    "time": 79.65511400000055,
                    "velocity": 0.7086614173228346,
                    "duration": 0.08620683333333545
                },
                {
                    "name": "D5",
                    "midi": 74,
                    "time": 79.74132083333389,
                    "velocity": 0.7086614173228346,
                    "duration": 0.08620683333333545
                },
                {
                    "name": "C#5",
                    "midi": 73,
                    "time": 79.82752766666722,
                    "velocity": 0.7086614173228346,
                    "duration": 0.08620683333333545
                },
                {
                    "name": "B4",
                    "midi": 71,
                    "time": 79.91373450000056,
                    "velocity": 0.7086614173228346,
                    "duration": 0.2543101583333396
                },
                {
                    "name": "A4",
                    "midi": 69,
                    "time": 80.17235500000056,
                    "velocity": 0.7086614173228346,
                    "duration": 0.5129306583333317
                },
                {
                    "name": "E4",
                    "midi": 64,
                    "time": 80.94821650000057,
                    "velocity": 0.7874015748031497,
                    "duration": 0.10775854166666932
                },
                {
                    "name": "E4",
                    "midi": 64,
                    "time": 81.20683700000058,
                    "velocity": 0.7874015748031497,
                    "duration": 0.10775854166666932
                },
                {
                    "name": "E4",
                    "midi": 64,
                    "time": 81.46545750000058,
                    "velocity": 0.7874015748031497,
                    "duration": 0.10775854166666932
                },
                {
                    "name": "E4",
                    "midi": 64,
                    "time": 81.72407800000059,
                    "velocity": 0.7874015748031497,
                    "duration": 0.10775854166666932
                },
                {
                    "name": "E4",
                    "midi": 64,
                    "time": 81.9826985000006,
                    "velocity": 0.7874015748031497,
                    "duration": 0.10775854166666932
                },
                {
                    "name": "E4",
                    "midi": 64,
                    "time": 82.2413190000006,
                    "velocity": 0.7874015748031497,
                    "duration": 0.06465512500000159
                },
                {
                    "name": "G4",
                    "midi": 67,
                    "time": 82.3059741250006,
                    "velocity": 0.7874015748031497,
                    "duration": 0.06465512500000159
                },
                {
                    "name": "A4",
                    "midi": 69,
                    "time": 82.3706292500006,
                    "velocity": 0.7874015748031497,
                    "duration": 0.06465512500000159
                },
                {
                    "name": "C#5",
                    "midi": 73,
                    "time": 82.4352843750006,
                    "velocity": 0.7874015748031497,
                    "duration": 0.06465512500000159
                },
                {
                    "name": "G4",
                    "midi": 67,
                    "time": 84.0516625000006,
                    "velocity": 0.7874015748031497,
                    "duration": 0.10775854166666932
                },
                {
                    "name": "G4",
                    "midi": 67,
                    "time": 84.31028300000061,
                    "velocity": 0.7874015748031497,
                    "duration": 0.10775854166666932
                },
                {
                    "name": "G4",
                    "midi": 67,
                    "time": 84.56890350000062,
                    "velocity": 0.7874015748031497,
                    "duration": 0.10775854166666932
                },
                {
                    "name": "G4",
                    "midi": 67,
                    "time": 84.82752400000062,
                    "velocity": 0.7874015748031497,
                    "duration": 0.10775854166666932
                },
                {
                    "name": "G4",
                    "midi": 67,
                    "time": 85.08614450000063,
                    "velocity": 0.7874015748031497,
                    "duration": 0.10775854166666932
                },
                {
                    "name": "G4",
                    "midi": 67,
                    "time": 85.34476500000063,
                    "velocity": 0.7874015748031497,
                    "duration": 0.08620683333333545
                },
                {
                    "name": "A4",
                    "midi": 69,
                    "time": 85.43097183333397,
                    "velocity": 0.7874015748031497,
                    "duration": 0.08620683333333545
                },
                {
                    "name": "C#5",
                    "midi": 73,
                    "time": 85.5171786666673,
                    "velocity": 0.7874015748031497,
                    "duration": 0.08620683333333545
                },
                {
                    "name": "E5",
                    "midi": 76,
                    "time": 85.60338550000064,
                    "velocity": 0.7874015748031497,
                    "duration": 2.392239625000002
                },
                {
                    "name": "D5",
                    "midi": 74,
                    "time": 87.99562512500064,
                    "velocity": 0.7874015748031497,
                    "duration": 0.06465512500000159
                },
                {
                    "name": "C#5",
                    "midi": 73,
                    "time": 88.06028025000064,
                    "velocity": 0.7874015748031497,
                    "duration": 0.06465512500000159
                },
                {
                    "name": "B4",
                    "midi": 71,
                    "time": 88.12493537500065,
                    "velocity": 0.7874015748031497,
                    "duration": 0.06465512500000159
                },
                {
                    "name": "A4",
                    "midi": 69,
                    "time": 88.18959050000065,
                    "velocity": 0.7874015748031497,
                    "duration": 0.06465512500000159
                },
                {
                    "name": "G4",
                    "midi": 67,
                    "time": 88.25424562500065,
                    "velocity": 0.7874015748031497,
                    "duration": 0.06465512500000159
                },
                {
                    "name": "F4",
                    "midi": 65,
                    "time": 88.31890075000065,
                    "velocity": 0.7874015748031497,
                    "duration": 0.06465512500000159
                },
                {
                    "name": "E4",
                    "midi": 64,
                    "time": 88.38355587500065,
                    "velocity": 0.7874015748031497,
                    "duration": 0.06465512500000159
                },
                {
                    "name": "F4",
                    "midi": 65,
                    "time": 88.44821100000065,
                    "velocity": 0.7874015748031497,
                    "duration": 0.7715511583333523
                },
                {
                    "name": "A4",
                    "midi": 69,
                    "time": 88.70683150000066,
                    "velocity": 0.7874015748031497,
                    "duration": 0.2543101583333396
                },
                {
                    "name": "D5",
                    "midi": 74,
                    "time": 88.96545200000067,
                    "velocity": 0.7874015748031497,
                    "duration": 0.7715511583333523
                },
                {
                    "name": "F4",
                    "midi": 65,
                    "time": 89.22407250000067,
                    "velocity": 0.7874015748031497,
                    "duration": 0.2543101583333396
                },
                {
                    "name": "E4",
                    "midi": 64,
                    "time": 89.48269300000068,
                    "velocity": 0.7874015748031497,
                    "duration": 0.2543101583333396
                },
                {
                    "name": "C#5",
                    "midi": 73,
                    "time": 89.74131350000069,
                    "velocity": 0.7874015748031497,
                    "duration": 0.06465512500000159
                },
                {
                    "name": "G4",
                    "midi": 67,
                    "time": 89.74131350000069,
                    "velocity": 0.7874015748031497,
                    "duration": 0.7715511583333381
                },
                {
                    "name": "D5",
                    "midi": 74,
                    "time": 89.80596862500069,
                    "velocity": 0.7874015748031497,
                    "duration": 0.06465512500000159
                },
                {
                    "name": "C#5",
                    "midi": 73,
                    "time": 89.87062375000069,
                    "velocity": 0.7874015748031497,
                    "duration": 0.06465512500000159
                },
                {
                    "name": "D5",
                    "midi": 74,
                    "time": 89.93527887500069,
                    "velocity": 0.7874015748031497,
                    "duration": 0.06465512500000159
                },
                {
                    "name": "C#5",
                    "midi": 73,
                    "time": 89.99993400000069,
                    "velocity": 0.7874015748031497,
                    "duration": 0.5129306583333317
                },
                {
                    "name": "D5",
                    "midi": 74,
                    "time": 90.51717500000069,
                    "velocity": 0.7874015748031497,
                    "duration": 1.0301716583333445
                },
                {
                    "name": "A4",
                    "midi": 69,
                    "time": 90.6464852500007,
                    "velocity": 0.7874015748031497,
                    "duration": 0.9008614083333413
                },
                {
                    "name": "F#4",
                    "midi": 66,
                    "time": 90.7757955000007,
                    "velocity": 0.7874015748031497,
                    "duration": 0.7715511583333381
                },
                {
                    "name": "D4",
                    "midi": 62,
                    "time": 90.9051057500007,
                    "velocity": 0.7874015748031497,
                    "duration": 0.6422409083333349
                },
                {
                    "name": "D4",
                    "midi": 62,
                    "time": 91.81027750000071,
                    "velocity": 0.7874015748031497,
                    "duration": 0.10775854166666932
                },
                {
                    "name": "D4",
                    "midi": 62,
                    "time": 92.06889800000071,
                    "velocity": 0.7874015748031497,
                    "duration": 0.10775854166666932
                },
                {
                    "name": "D4",
                    "midi": 62,
                    "time": 92.32751850000072,
                    "velocity": 0.7874015748031497,
                    "duration": 0.10775854166666932
                },
                {
                    "name": "D4",
                    "midi": 62,
                    "time": 92.58613900000073,
                    "velocity": 0.7874015748031497,
                    "duration": 0.10775854166666932
                },
                {
                    "name": "D4",
                    "midi": 62,
                    "time": 92.84475950000073,
                    "velocity": 0.7874015748031497,
                    "duration": 0.10775854166666932
                },
                {
                    "name": "D4",
                    "midi": 62,
                    "time": 93.10338000000074,
                    "velocity": 0.7874015748031497,
                    "duration": 0.06465512500000159
                },
                {
                    "name": "F4",
                    "midi": 65,
                    "time": 93.16803512500074,
                    "velocity": 0.7874015748031497,
                    "duration": 0.06465512500000159
                },
                {
                    "name": "A4",
                    "midi": 69,
                    "time": 93.23269025000074,
                    "velocity": 0.7874015748031497,
                    "duration": 0.06465512500000159
                },
                {
                    "name": "D4",
                    "midi": 62,
                    "time": 93.36200050000075,
                    "velocity": 0.7874015748031497,
                    "duration": 0.10775854166666932
                },
                {
                    "name": "D4",
                    "midi": 62,
                    "time": 93.62062100000075,
                    "velocity": 0.7874015748031497,
                    "duration": 0.10775854166666932
                },
                {
                    "name": "D4",
                    "midi": 62,
                    "time": 93.87924150000076,
                    "velocity": 0.7874015748031497,
                    "duration": 0.10775854166666932
                },
                {
                    "name": "D4",
                    "midi": 62,
                    "time": 94.13786200000077,
                    "velocity": 0.7874015748031497,
                    "duration": 0.10775854166666932
                },
                {
                    "name": "D4",
                    "midi": 62,
                    "time": 94.39648250000077,
                    "velocity": 0.7874015748031497,
                    "duration": 0.10775854166666932
                },
                {
                    "name": "D4",
                    "midi": 62,
                    "time": 94.65510300000078,
                    "velocity": 0.7874015748031497,
                    "duration": 0.06465512500000159
                },
                {
                    "name": "F4",
                    "midi": 65,
                    "time": 94.71975812500078,
                    "velocity": 0.7874015748031497,
                    "duration": 0.06465512500000159
                },
                {
                    "name": "A4",
                    "midi": 69,
                    "time": 94.78441325000078,
                    "velocity": 0.7874015748031497,
                    "duration": 0.06465512500000159
                },
                {
                    "name": "D5",
                    "midi": 74,
                    "time": 94.84906837500078,
                    "velocity": 0.7874015748031497,
                    "duration": 0.06465512500000159
                },
                {
                    "name": "F4",
                    "midi": 65,
                    "time": 94.91372350000078,
                    "velocity": 0.7874015748031497,
                    "duration": 0.10775854166666932
                },
                {
                    "name": "F4",
                    "midi": 65,
                    "time": 95.17234400000079,
                    "velocity": 0.7874015748031497,
                    "duration": 0.10775854166666932
                },
                {
                    "name": "F4",
                    "midi": 65,
                    "time": 95.4309645000008,
                    "velocity": 0.7874015748031497,
                    "duration": 0.10775854166666932
                },
                {
                    "name": "F4",
                    "midi": 65,
                    "time": 95.6895850000008,
                    "velocity": 0.7874015748031497,
                    "duration": 0.10775854166666932
                },
                {
                    "name": "F4",
                    "midi": 65,
                    "time": 95.94820550000081,
                    "velocity": 0.7874015748031497,
                    "duration": 0.10775854166666932
                },
                {
                    "name": "A4",
                    "midi": 69,
                    "time": 96.20682600000082,
                    "velocity": 0.7874015748031497,
                    "duration": 0.06465512500000159
                },
                {
                    "name": "D5",
                    "midi": 74,
                    "time": 96.27148112500082,
                    "velocity": 0.7874015748031497,
                    "duration": 0.06465512500000159
                },
                {
                    "name": "F5",
                    "midi": 77,
                    "time": 96.33613625000082,
                    "velocity": 0.7874015748031497,
                    "duration": 0.06465512500000159
                },
                {
                    "name": "A5",
                    "midi": 81,
                    "time": 96.40079137500082,
                    "velocity": 0.7874015748031497,
                    "duration": 0.06465512500000159
                },
                {
                    "name": "A4",
                    "midi": 69,
                    "time": 96.46544650000082,
                    "velocity": 0.7874015748031497,
                    "duration": 0.10775854166666932
                },
                {
                    "name": "A4",
                    "midi": 69,
                    "time": 96.72406700000083,
                    "velocity": 0.7874015748031497,
                    "duration": 0.10775854166666932
                },
                {
                    "name": "A4",
                    "midi": 69,
                    "time": 96.98268750000084,
                    "velocity": 0.7874015748031497,
                    "duration": 0.10775854166666932
                },
                {
                    "name": "A4",
                    "midi": 69,
                    "time": 97.24130800000084,
                    "velocity": 0.7874015748031497,
                    "duration": 0.10775854166666932
                },
                {
                    "name": "A4",
                    "midi": 69,
                    "time": 97.49992850000085,
                    "velocity": 0.7874015748031497,
                    "duration": 0.10775854166666932
                },
                {
                    "name": "D5",
                    "midi": 74,
                    "time": 97.75854900000085,
                    "velocity": 0.7874015748031497,
                    "duration": 0.08620683333333545
                },
                {
                    "name": "F5",
                    "midi": 77,
                    "time": 97.84475583333419,
                    "velocity": 0.7874015748031497,
                    "duration": 0.08620683333333545
                },
                {
                    "name": "A5",
                    "midi": 81,
                    "time": 97.93096266666753,
                    "velocity": 0.7874015748031497,
                    "duration": 0.08620683333333545
                },
                {
                    "name": "D6",
                    "midi": 86,
                    "time": 98.01716950000086,
                    "velocity": 0.7874015748031497,
                    "duration": 0.9008614083333271
                },
                {
                    "name": "C6",
                    "midi": 84,
                    "time": 98.92234125000085,
                    "velocity": 0.7874015748031497,
                    "duration": 0.12499990833333641
                },
                {
                    "name": "A#5",
                    "midi": 82,
                    "time": 99.05165150000086,
                    "velocity": 0.7874015748031497,
                    "duration": 0.12499990833333641
                },
                {
                    "name": "A5",
                    "midi": 81,
                    "time": 99.18096175000086,
                    "velocity": 0.7874015748031497,
                    "duration": 0.12499990833333641
                },
                {
                    "name": "A#5",
                    "midi": 82,
                    "time": 99.31027200000086,
                    "velocity": 0.7874015748031497,
                    "duration": 0.12499990833333641
                },
                {
                    "name": "C6",
                    "midi": 84,
                    "time": 99.43958225000087,
                    "velocity": 0.7874015748031497,
                    "duration": 0.12499990833333641
                },
                {
                    "name": "A5",
                    "midi": 81,
                    "time": 99.56889250000087,
                    "velocity": 0.7874015748031497,
                    "duration": 0.12499990833333641
                },
                {
                    "name": "A#5",
                    "midi": 82,
                    "time": 99.69820275000087,
                    "velocity": 0.7874015748031497,
                    "duration": 0.12499990833333641
                },
                {
                    "name": "G5",
                    "midi": 79,
                    "time": 99.82751300000088,
                    "velocity": 0.7874015748031497,
                    "duration": 0.12499990833333641
                },
                {
                    "name": "A5",
                    "midi": 81,
                    "time": 99.95682325000088,
                    "velocity": 0.7874015748031497,
                    "duration": 0.12499990833333641
                },
                {
                    "name": "F5",
                    "midi": 77,
                    "time": 100.08613350000088,
                    "velocity": 0.7874015748031497,
                    "duration": 0.12499990833333641
                },
                {
                    "name": "G5",
                    "midi": 79,
                    "time": 100.21544375000089,
                    "velocity": 0.7874015748031497,
                    "duration": 0.12499990833333641
                },
                {
                    "name": "E5",
                    "midi": 76,
                    "time": 100.34475400000089,
                    "velocity": 0.7874015748031497,
                    "duration": 0.12499990833333641
                },
                {
                    "name": "F5",
                    "midi": 77,
                    "time": 100.4740642500009,
                    "velocity": 0.7874015748031497,
                    "duration": 0.12499990833333641
                },
                {
                    "name": "D5",
                    "midi": 74,
                    "time": 100.6033745000009,
                    "velocity": 0.7874015748031497,
                    "duration": 0.12499990833333641
                },
                {
                    "name": "E5",
                    "midi": 76,
                    "time": 100.7326847500009,
                    "velocity": 0.7874015748031497,
                    "duration": 0.12499990833333641
                },
                {
                    "name": "C#5",
                    "midi": 73,
                    "time": 100.8619950000009,
                    "velocity": 0.7874015748031497,
                    "duration": 0.12499990833333641
                },
                {
                    "name": "D5",
                    "midi": 74,
                    "time": 100.9913052500009,
                    "velocity": 0.7874015748031497,
                    "duration": 0.12499990833333641
                },
                {
                    "name": "B4",
                    "midi": 71,
                    "time": 101.12061550000091,
                    "velocity": 0.7874015748031497,
                    "duration": 0.12499990833333641
                },
                {
                    "name": "C#5",
                    "midi": 73,
                    "time": 101.24992575000091,
                    "velocity": 0.7874015748031497,
                    "duration": 0.12499990833333641
                },
                {
                    "name": "A4",
                    "midi": 69,
                    "time": 101.37923600000092,
                    "velocity": 0.7874015748031497,
                    "duration": 0.12499990833333641
                },
                {
                    "name": "A#4",
                    "midi": 70,
                    "time": 101.50854625000092,
                    "velocity": 0.7874015748031497,
                    "duration": 0.12499990833333641
                },
                {
                    "name": "G4",
                    "midi": 67,
                    "time": 101.63785650000092,
                    "velocity": 0.7874015748031497,
                    "duration": 0.12499990833333641
                },
                {
                    "name": "A4",
                    "midi": 69,
                    "time": 101.76716675000092,
                    "velocity": 0.7874015748031497,
                    "duration": 0.12499990833333641
                },
                {
                    "name": "F4",
                    "midi": 65,
                    "time": 101.89647700000093,
                    "velocity": 0.7874015748031497,
                    "duration": 0.12499990833333641
                },
                {
                    "name": "G4",
                    "midi": 67,
                    "time": 102.02578725000093,
                    "velocity": 0.7874015748031497,
                    "duration": 0.12499990833333641
                },
                {
                    "name": "D#4",
                    "midi": 63,
                    "time": 102.15509750000093,
                    "velocity": 0.7874015748031497,
                    "duration": 0.12499990833333641
                },
                {
                    "name": "G4",
                    "midi": 67,
                    "time": 102.28440775000094,
                    "velocity": 0.7874015748031497,
                    "duration": 0.12499990833333641
                },
                {
                    "name": "F4",
                    "midi": 65,
                    "time": 102.41371800000094,
                    "velocity": 0.7874015748031497,
                    "duration": 0.06465512500000159
                },
                {
                    "name": "G4",
                    "midi": 67,
                    "time": 102.47837312500094,
                    "velocity": 0.7874015748031497,
                    "duration": 0.06465512500000159
                },
                {
                    "name": "F4",
                    "midi": 65,
                    "time": 102.54302825000094,
                    "velocity": 0.7874015748031497,
                    "duration": 0.12499990833333641
                },
                {
                    "name": "E4",
                    "midi": 64,
                    "time": 102.67233850000095,
                    "velocity": 0.7874015748031497,
                    "duration": 0.2543101583333396
                },
                {
                    "name": "F4",
                    "midi": 65,
                    "time": 102.93095900000095,
                    "velocity": 0.7874015748031497,
                    "duration": 0.06465512500000159
                },
                {
                    "name": "E4",
                    "midi": 64,
                    "time": 102.99561412500096,
                    "velocity": 0.7874015748031497,
                    "duration": 0.06465512500000159
                },
                {
                    "name": "F4",
                    "midi": 65,
                    "time": 103.06026925000096,
                    "velocity": 0.7874015748031497,
                    "duration": 0.12499990833333641
                },
                {
                    "name": "E4",
                    "midi": 64,
                    "time": 103.18957950000096,
                    "velocity": 0.7874015748031497,
                    "duration": 0.2543101583333396
                },
                {
                    "name": "F4",
                    "midi": 65,
                    "time": 103.44820000000097,
                    "velocity": 0.7874015748031497,
                    "duration": 0.06465512500000159
                },
                {
                    "name": "E4",
                    "midi": 64,
                    "time": 103.51285512500097,
                    "velocity": 0.7874015748031497,
                    "duration": 0.06465512500000159
                },
                {
                    "name": "F4",
                    "midi": 65,
                    "time": 103.57751025000097,
                    "velocity": 0.7874015748031497,
                    "duration": 0.12499990833333641
                },
                {
                    "name": "A4",
                    "midi": 69,
                    "time": 103.70682050000097,
                    "velocity": 0.7874015748031497,
                    "duration": 0.06465512500000159
                },
                {
                    "name": "G4",
                    "midi": 67,
                    "time": 103.77147562500097,
                    "velocity": 0.7874015748031497,
                    "duration": 0.06465512500000159
                },
                {
                    "name": "A4",
                    "midi": 69,
                    "time": 103.83613075000098,
                    "velocity": 0.7874015748031497,
                    "duration": 0.06465512500000159
                },
                {
                    "name": "G4",
                    "midi": 67,
                    "time": 103.90078587500098,
                    "velocity": 0.7874015748031497,
                    "duration": 0.06465512500000159
                },
                {
                    "name": "F4",
                    "midi": 65,
                    "time": 103.96544100000098,
                    "velocity": 0.7874015748031497,
                    "duration": 0.06465512500000159
                },
                {
                    "name": "G4",
                    "midi": 67,
                    "time": 104.03009612500098,
                    "velocity": 0.7874015748031497,
                    "duration": 0.06465512500000159
                },
                {
                    "name": "A4",
                    "midi": 69,
                    "time": 104.09475125000098,
                    "velocity": 0.7874015748031497,
                    "duration": 1.4181024083333398
                },
                {
                    "name": "E4",
                    "midi": 64,
                    "time": 104.09475125000098,
                    "velocity": 0.7874015748031497,
                    "duration": 1.547412658333343
                },
                {
                    "name": "C#4",
                    "midi": 61,
                    "time": 104.09475125000098,
                    "velocity": 0.7874015748031497,
                    "duration": 1.547412658333343
                },
                {
                    "name": "F5",
                    "midi": 77,
                    "time": 105.51716400000099,
                    "velocity": 0.7086614173228346,
                    "duration": 0.06465512500000159
                },
                {
                    "name": "E5",
                    "midi": 76,
                    "time": 105.58181912500099,
                    "velocity": 0.7086614173228346,
                    "duration": 0.06465512500000159
                },
                {
                    "name": "F5",
                    "midi": 77,
                    "time": 105.64647425000099,
                    "velocity": 0.7086614173228346,
                    "duration": 0.12499990833333641
                },
                {
                    "name": "F5",
                    "midi": 77,
                    "time": 105.775784500001,
                    "velocity": 0.7086614173228346,
                    "duration": 0.10775854166666932
                },
                {
                    "name": "F5",
                    "midi": 77,
                    "time": 106.034405000001,
                    "velocity": 0.7086614173228346,
                    "duration": 0.06465512500000159
                },
                {
                    "name": "E5",
                    "midi": 76,
                    "time": 106.099060125001,
                    "velocity": 0.7086614173228346,
                    "duration": 0.06465512500000159
                },
                {
                    "name": "F5",
                    "midi": 77,
                    "time": 106.163715250001,
                    "velocity": 0.7086614173228346,
                    "duration": 0.12499990833333641
                },
                {
                    "name": "F5",
                    "midi": 77,
                    "time": 106.29302550000101,
                    "velocity": 0.7086614173228346,
                    "duration": 0.10775854166666932
                },
                {
                    "name": "F5",
                    "midi": 77,
                    "time": 106.55164600000101,
                    "velocity": 0.7086614173228346,
                    "duration": 0.10775854166666932
                },
                {
                    "name": "G5",
                    "midi": 79,
                    "time": 106.81026650000102,
                    "velocity": 0.7086614173228346,
                    "duration": 0.04310341666666773
                },
                {
                    "name": "F5",
                    "midi": 77,
                    "time": 106.85336991666769,
                    "velocity": 0.7086614173228346,
                    "duration": 0.04310341666666773
                },
                {
                    "name": "G5",
                    "midi": 79,
                    "time": 106.89647333333436,
                    "velocity": 0.7086614173228346,
                    "duration": 0.04310341666666773
                },
                {
                    "name": "A5",
                    "midi": 81,
                    "time": 106.93957675000102,
                    "velocity": 0.7086614173228346,
                    "duration": 0.12499990833333641
                },
                {
                    "name": "G5",
                    "midi": 79,
                    "time": 107.06888700000103,
                    "velocity": 0.7086614173228346,
                    "duration": 0.06465512500000159
                },
                {
                    "name": "F5",
                    "midi": 77,
                    "time": 107.13354212500103,
                    "velocity": 0.7086614173228346,
                    "duration": 0.06465512500000159
                },
                {
                    "name": "G5",
                    "midi": 79,
                    "time": 107.19819725000103,
                    "velocity": 0.7086614173228346,
                    "duration": 0.06465512500000159
                },
                {
                    "name": "F5",
                    "midi": 77,
                    "time": 107.26285237500103,
                    "velocity": 0.7086614173228346,
                    "duration": 0.5818961250000001
                },
                {
                    "name": "E5",
                    "midi": 76,
                    "time": 107.84474850000103,
                    "velocity": 0.7086614173228346,
                    "duration": 0.2543101583333396
                },
                {
                    "name": "E5",
                    "midi": 76,
                    "time": 108.10336900000104,
                    "velocity": 0.7086614173228346,
                    "duration": 0.06465512500000159
                },
                {
                    "name": "F5",
                    "midi": 77,
                    "time": 108.16802412500104,
                    "velocity": 0.7086614173228346,
                    "duration": 0.03448273333333418
                },
                {
                    "name": "E5",
                    "midi": 76,
                    "time": 108.20250685833437,
                    "velocity": 0.7086614173228346,
                    "duration": 0.03017239166666741
                },
                {
                    "name": "F5",
                    "midi": 77,
                    "time": 108.23267925000104,
                    "velocity": 0.7086614173228346,
                    "duration": 0.12499990833333641
                },
                {
                    "name": "G5",
                    "midi": 79,
                    "time": 108.62061000000105,
                    "velocity": 0.7086614173228346,
                    "duration": 0.06465512500000159
                },
                {
                    "name": "F5",
                    "midi": 77,
                    "time": 108.68526512500105,
                    "velocity": 0.7086614173228346,
                    "duration": 0.06465512500000159
                },
                {
                    "name": "G5",
                    "midi": 79,
                    "time": 108.74992025000105,
                    "velocity": 0.7086614173228346,
                    "duration": 0.12499990833333641
                },
                {
                    "name": "G5",
                    "midi": 79,
                    "time": 108.87923050000106,
                    "velocity": 0.7086614173228346,
                    "duration": 0.10775854166666932
                },
                {
                    "name": "G5",
                    "midi": 79,
                    "time": 109.13785100000106,
                    "velocity": 0.7086614173228346,
                    "duration": 0.06465512500000159
                },
                {
                    "name": "F5",
                    "midi": 77,
                    "time": 109.20250612500107,
                    "velocity": 0.7086614173228346,
                    "duration": 0.06465512500000159
                },
                {
                    "name": "G5",
                    "midi": 79,
                    "time": 109.26716125000107,
                    "velocity": 0.7086614173228346,
                    "duration": 0.12499990833333641
                },
                {
                    "name": "G5",
                    "midi": 79,
                    "time": 109.39647150000107,
                    "velocity": 0.7086614173228346,
                    "duration": 0.10775854166666932
                },
                {
                    "name": "G5",
                    "midi": 79,
                    "time": 109.65509200000108,
                    "velocity": 0.7086614173228346,
                    "duration": 0.10775854166666932
                },
                {
                    "name": "A5",
                    "midi": 81,
                    "time": 109.91371250000108,
                    "velocity": 0.7086614173228346,
                    "duration": 0.04310341666666773
                },
                {
                    "name": "G5",
                    "midi": 79,
                    "time": 109.95681591666775,
                    "velocity": 0.7086614173228346,
                    "duration": 0.04310341666666773
                },
                {
                    "name": "A5",
                    "midi": 81,
                    "time": 109.99991933333442,
                    "velocity": 0.7086614173228346,
                    "duration": 0.04310341666666773
                },
                {
                    "name": "A#5",
                    "midi": 82,
                    "time": 110.04302275000109,
                    "velocity": 0.7086614173228346,
                    "duration": 0.12499990833333641
                },
                {
                    "name": "A5",
                    "midi": 81,
                    "time": 110.17233300000109,
                    "velocity": 0.7086614173228346,
                    "duration": 0.06465512500000159
                },
                {
                    "name": "G5",
                    "midi": 79,
                    "time": 110.23698812500109,
                    "velocity": 0.7086614173228346,
                    "duration": 0.06465512500000159
                },
                {
                    "name": "A5",
                    "midi": 81,
                    "time": 110.30164325000109,
                    "velocity": 0.7086614173228346,
                    "duration": 0.06465512500000159
                },
                {
                    "name": "G5",
                    "midi": 79,
                    "time": 110.3662983750011,
                    "velocity": 0.7086614173228346,
                    "duration": 0.5818961250000001
                },
                {
                    "name": "F5",
                    "midi": 77,
                    "time": 110.9481945000011,
                    "velocity": 0.7086614173228346,
                    "duration": 0.2543101583333396
                },
                {
                    "name": "G5",
                    "midi": 79,
                    "time": 111.2068150000011,
                    "velocity": 0.7086614173228346,
                    "duration": 0.06465512500000159
                },
                {
                    "name": "F5",
                    "midi": 77,
                    "time": 111.2714701250011,
                    "velocity": 0.7086614173228346,
                    "duration": 0.06465512500000159
                },
                {
                    "name": "G5",
                    "midi": 79,
                    "time": 111.3361252500011,
                    "velocity": 0.7086614173228346,
                    "duration": 0.12499990833333641
                },
                {
                    "name": "A5",
                    "midi": 81,
                    "time": 111.4654355000011,
                    "velocity": 0.7086614173228346,
                    "duration": 0.2543101583333396
                },
                {
                    "name": "A5",
                    "midi": 81,
                    "time": 111.72405600000111,
                    "velocity": 0.7086614173228346,
                    "duration": 0.06465512500000159
                },
                {
                    "name": "A#5",
                    "midi": 82,
                    "time": 111.78871112500111,
                    "velocity": 0.7086614173228346,
                    "duration": 0.03448273333333418
                },
                {
                    "name": "A5",
                    "midi": 81,
                    "time": 111.82319385833445,
                    "velocity": 0.7086614173228346,
                    "duration": 0.03017239166666741
                },
                {
                    "name": "A#5",
                    "midi": 82,
                    "time": 111.85336625000112,
                    "velocity": 0.7086614173228346,
                    "duration": 0.6422409083333349
                },
                {
                    "name": "C6",
                    "midi": 84,
                    "time": 112.49991750000112,
                    "velocity": 0.7086614173228346,
                    "duration": 0.06465512500000159
                },
                {
                    "name": "A#5",
                    "midi": 82,
                    "time": 112.56457262500112,
                    "velocity": 0.7086614173228346,
                    "duration": 0.06465512500000159
                },
                {
                    "name": "C6",
                    "midi": 84,
                    "time": 112.62922775000112,
                    "velocity": 0.7086614173228346,
                    "duration": 0.06465512500000159
                },
                {
                    "name": "A#5",
                    "midi": 82,
                    "time": 112.69388287500112,
                    "velocity": 0.7086614173228346,
                    "duration": 0.06465512500000159
                },
                {
                    "name": "A5",
                    "midi": 81,
                    "time": 112.75853800000112,
                    "velocity": 0.7086614173228346,
                    "duration": 0.04310341666666773
                },
                {
                    "name": "A#5",
                    "midi": 82,
                    "time": 112.80164141666779,
                    "velocity": 0.7086614173228346,
                    "duration": 0.04310341666666773
                },
                {
                    "name": "C6",
                    "midi": 84,
                    "time": 112.84474483333446,
                    "velocity": 0.7086614173228346,
                    "duration": 0.04310341666666773
                },
                {
                    "name": "A#5",
                    "midi": 82,
                    "time": 112.88784825000113,
                    "velocity": 0.7086614173228346,
                    "duration": 0.06465512500000159
                },
                {
                    "name": "C6",
                    "midi": 84,
                    "time": 112.95250337500113,
                    "velocity": 0.7086614173228346,
                    "duration": 0.06465512500000159
                },
                {
                    "name": "A#5",
                    "midi": 82,
                    "time": 113.01715850000113,
                    "velocity": 0.7086614173228346,
                    "duration": 0.2543101583333396
                },
                {
                    "name": "A5",
                    "midi": 81,
                    "time": 113.27577900000114,
                    "velocity": 0.7086614173228346,
                    "duration": 0.08620683333333545
                },
                {
                    "name": "A#5",
                    "midi": 82,
                    "time": 113.36198583333447,
                    "velocity": 0.7086614173228346,
                    "duration": 0.08620683333333545
                },
                {
                    "name": "A5",
                    "midi": 81,
                    "time": 113.44819266666781,
                    "velocity": 0.7086614173228346,
                    "duration": 0.08620683333333545
                },
                {
                    "name": "A#5",
                    "midi": 82,
                    "time": 113.53439950000114,
                    "velocity": 0.7086614173228346,
                    "duration": 0.08620683333333545
                },
                {
                    "name": "A5",
                    "midi": 81,
                    "time": 113.62060633333448,
                    "velocity": 0.7086614173228346,
                    "duration": 0.08620683333333545
                },
                {
                    "name": "A#5",
                    "midi": 82,
                    "time": 113.70681316666781,
                    "velocity": 0.7086614173228346,
                    "duration": 0.08620683333333545
                },
                {
                    "name": "A5",
                    "midi": 81,
                    "time": 113.79302000000115,
                    "velocity": 0.7086614173228346,
                    "duration": 0.08620683333333545
                },
                {
                    "name": "A#5",
                    "midi": 82,
                    "time": 113.87922683333449,
                    "velocity": 0.7086614173228346,
                    "duration": 0.08620683333333545
                },
                {
                    "name": "A5",
                    "midi": 81,
                    "time": 113.96543366666782,
                    "velocity": 0.7086614173228346,
                    "duration": 0.08620683333333545
                },
                {
                    "name": "G5",
                    "midi": 79,
                    "time": 114.05164050000116,
                    "velocity": 0.7086614173228346,
                    "duration": 0.12499990833333641
                },
                {
                    "name": "A5",
                    "midi": 81,
                    "time": 114.18095075000116,
                    "velocity": 0.7086614173228346,
                    "duration": 0.12499990833333641
                },
                {
                    "name": "A#5",
                    "midi": 82,
                    "time": 114.31026100000116,
                    "velocity": 0.7086614173228346,
                    "duration": 0.12499990833333641
                },
                {
                    "name": "C6",
                    "midi": 84,
                    "time": 114.43957125000117,
                    "velocity": 0.7086614173228346,
                    "duration": 0.12499990833333641
                },
                {
                    "name": "A5",
                    "midi": 81,
                    "time": 114.56888150000117,
                    "velocity": 0.7086614173228346,
                    "duration": 0.12499990833333641
                },
                {
                    "name": "A#5",
                    "midi": 82,
                    "time": 114.69819175000117,
                    "velocity": 0.7086614173228346,
                    "duration": 0.12499990833333641
                },
                {
                    "name": "G5",
                    "midi": 79,
                    "time": 114.82750200000118,
                    "velocity": 0.7086614173228346,
                    "duration": 0.08620683333333545
                },
                {
                    "name": "A5",
                    "midi": 81,
                    "time": 114.91370883333451,
                    "velocity": 0.7086614173228346,
                    "duration": 0.08620683333333545
                },
                {
                    "name": "G5",
                    "midi": 79,
                    "time": 114.99991566666785,
                    "velocity": 0.7086614173228346,
                    "duration": 0.08620683333333545
                },
                {
                    "name": "A5",
                    "midi": 81,
                    "time": 115.08612250000118,
                    "velocity": 0.7086614173228346,
                    "duration": 0.08620683333333545
                },
                {
                    "name": "G5",
                    "midi": 79,
                    "time": 115.17232933333452,
                    "velocity": 0.7086614173228346,
                    "duration": 0.08620683333333545
                },
                {
                    "name": "A5",
                    "midi": 81,
                    "time": 115.25853616666785,
                    "velocity": 0.7086614173228346,
                    "duration": 0.08620683333333545
                },
                {
                    "name": "G5",
                    "midi": 79,
                    "time": 115.34474300000119,
                    "velocity": 0.7086614173228346,
                    "duration": 0.08620683333333545
                },
                {
                    "name": "A5",
                    "midi": 81,
                    "time": 115.43094983333452,
                    "velocity": 0.7086614173228346,
                    "duration": 0.08620683333333545
                },
                {
                    "name": "G5",
                    "midi": 79,
                    "time": 115.51715666666786,
                    "velocity": 0.7086614173228346,
                    "duration": 0.08620683333333545
                },
                {
                    "name": "A5",
                    "midi": 81,
                    "time": 115.6033635000012,
                    "velocity": 0.7086614173228346,
                    "duration": 0.08620683333333545
                },
                {
                    "name": "A#5",
                    "midi": 82,
                    "time": 115.68957033333453,
                    "velocity": 0.7086614173228346,
                    "duration": 0.08620683333333545
                },
                {
                    "name": "C6",
                    "midi": 84,
                    "time": 115.77577716666787,
                    "velocity": 0.7086614173228346,
                    "duration": 0.08620683333333545
                },
                {
                    "name": "F5",
                    "midi": 77,
                    "time": 115.8619840000012,
                    "velocity": 0.7086614173228346,
                    "duration": 0.04310341666666773
                },
                {
                    "name": "E5",
                    "midi": 76,
                    "time": 115.90508741666787,
                    "velocity": 0.7086614173228346,
                    "duration": 0.04310341666666773
                },
                {
                    "name": "F5",
                    "midi": 77,
                    "time": 115.94819083333454,
                    "velocity": 0.7086614173228346,
                    "duration": 0.04310341666666773
                },
                {
                    "name": "E5",
                    "midi": 76,
                    "time": 115.9912942500012,
                    "velocity": 0.7086614173228346,
                    "duration": 0.12499990833333641
                },
                {
                    "name": "F5",
                    "midi": 77,
                    "time": 116.1206045000012,
                    "velocity": 0.7086614173228346,
                    "duration": 0.10775854166666932
                },
                {
                    "name": "A5",
                    "midi": 81,
                    "time": 116.37922500000121,
                    "velocity": 0.7086614173228346,
                    "duration": 0.08620683333333545
                },
                {
                    "name": "G5",
                    "midi": 79,
                    "time": 116.46543183333455,
                    "velocity": 0.7086614173228346,
                    "duration": 0.08620683333333545
                },
                {
                    "name": "A5",
                    "midi": 81,
                    "time": 116.55163866666788,
                    "velocity": 0.7086614173228346,
                    "duration": 0.08620683333333545
                },
                {
                    "name": "G5",
                    "midi": 79,
                    "time": 116.63784550000122,
                    "velocity": 0.7086614173228346,
                    "duration": 0.08620683333333545
                },
                {
                    "name": "A5",
                    "midi": 81,
                    "time": 116.72405233333455,
                    "velocity": 0.7086614173228346,
                    "duration": 0.08620683333333545
                },
                {
                    "name": "G5",
                    "midi": 79,
                    "time": 116.81025916666789,
                    "velocity": 0.7086614173228346,
                    "duration": 0.08620683333333545
                },
                {
                    "name": "A5",
                    "midi": 81,
                    "time": 116.89646600000123,
                    "velocity": 0.7086614173228346,
                    "duration": 0.08620683333333545
                },
                {
                    "name": "G5",
                    "midi": 79,
                    "time": 116.98267283333456,
                    "velocity": 0.7086614173228346,
                    "duration": 0.08620683333333545
                },
                {
                    "name": "A5",
                    "midi": 81,
                    "time": 117.0688796666679,
                    "velocity": 0.7086614173228346,
                    "duration": 0.08620683333333545
                },
                {
                    "name": "G5",
                    "midi": 79,
                    "time": 117.15508650000123,
                    "velocity": 0.7086614173228346,
                    "duration": 0.08620683333333545
                },
                {
                    "name": "A5",
                    "midi": 81,
                    "time": 117.24129333333457,
                    "velocity": 0.7086614173228346,
                    "duration": 0.08620683333333545
                },
                {
                    "name": "G5",
                    "midi": 79,
                    "time": 117.3275001666679,
                    "velocity": 0.7086614173228346,
                    "duration": 0.21120674166667186
                },
                {
                    "name": "D5",
                    "midi": 74,
                    "time": 117.93094800000124,
                    "velocity": 0.7874015748031497,
                    "duration": 0.06465512500000159
                },
                {
                    "name": "C5",
                    "midi": 72,
                    "time": 117.99560312500124,
                    "velocity": 0.7874015748031497,
                    "duration": 0.06465512500000159
                },
                {
                    "name": "D5",
                    "midi": 74,
                    "time": 118.06025825000124,
                    "velocity": 0.7874015748031497,
                    "duration": 0.12499990833333641
                },
                {
                    "name": "D5",
                    "midi": 74,
                    "time": 118.18956850000124,
                    "velocity": 0.7874015748031497,
                    "duration": 0.10775854166666932
                },
                {
                    "name": "D5",
                    "midi": 74,
                    "time": 118.44818900000125,
                    "velocity": 0.7874015748031497,
                    "duration": 0.06465512500000159
                },
                {
                    "name": "C5",
                    "midi": 72,
                    "time": 118.44818900000125,
                    "velocity": 0.7874015748031497,
                    "duration": 0.06465512500000159
                },
                {
                    "name": "D5",
                    "midi": 74,
                    "time": 118.57749925000125,
                    "velocity": 0.7874015748031497,
                    "duration": 0.12499990833333641
                },
                {
                    "name": "D5",
                    "midi": 74,
                    "time": 118.70680950000126,
                    "velocity": 0.7874015748031497,
                    "duration": 0.10775854166666932
                },
                {
                    "name": "D5",
                    "midi": 74,
                    "time": 118.96543000000126,
                    "velocity": 0.7874015748031497,
                    "duration": 0.10775854166666932
                },
                {
                    "name": "F5",
                    "midi": 77,
                    "time": 119.22405050000127,
                    "velocity": 0.7874015748031497,
                    "duration": 0.06465512500000159
                },
                {
                    "name": "E5",
                    "midi": 76,
                    "time": 119.28870562500127,
                    "velocity": 0.7874015748031497,
                    "duration": 0.06465512500000159
                },
                {
                    "name": "F5",
                    "midi": 77,
                    "time": 119.35336075000127,
                    "velocity": 0.7874015748031497,
                    "duration": 0.06465512500000159
                },
                {
                    "name": "E5",
                    "midi": 76,
                    "time": 119.41801587500127,
                    "velocity": 0.7874015748031497,
                    "duration": 0.06465512500000159
                },
                {
                    "name": "D5",
                    "midi": 74,
                    "time": 119.48267100000128,
                    "velocity": 0.7874015748031497,
                    "duration": 0.04310341666666773
                },
                {
                    "name": "E5",
                    "midi": 76,
                    "time": 119.52577441666794,
                    "velocity": 0.7874015748031497,
                    "duration": 0.04310341666666773
                },
                {
                    "name": "F5",
                    "midi": 77,
                    "time": 119.56887783333461,
                    "velocity": 0.7874015748031497,
                    "duration": 0.04310341666666773
                },
                {
                    "name": "C5",
                    "midi": 72,
                    "time": 119.61198125000128,
                    "velocity": 0.7874015748031497,
                    "duration": 0.12499990833333641
                },
                {
                    "name": "A#4",
                    "midi": 70,
                    "time": 119.74129150000128,
                    "velocity": 0.7874015748031497,
                    "duration": 0.12499990833333641
                },
                {
                    "name": "A4",
                    "midi": 69,
                    "time": 119.87060175000128,
                    "velocity": 0.7874015748031497,
                    "duration": 0.12499990833333641
                },
                {
                    "name": "A4",
                    "midi": 69,
                    "time": 120.12922225000129,
                    "velocity": 0.7874015748031497,
                    "duration": 0.12499990833333641
                },
                {
                    "name": "G4",
                    "midi": 67,
                    "time": 120.2585325000013,
                    "velocity": 0.7874015748031497,
                    "duration": 0.12499990833333641
                },
                {
                    "name": "F4",
                    "midi": 65,
                    "time": 120.3878427500013,
                    "velocity": 0.7874015748031497,
                    "duration": 0.12499990833333641
                },
                {
                    "name": "A4",
                    "midi": 69,
                    "time": 120.6464632500013,
                    "velocity": 0.7874015748031497,
                    "duration": 0.12499990833333641
                },
                {
                    "name": "G4",
                    "midi": 67,
                    "time": 120.7757735000013,
                    "velocity": 0.7874015748031497,
                    "duration": 0.12499990833333641
                },
                {
                    "name": "F4",
                    "midi": 65,
                    "time": 120.90508375000131,
                    "velocity": 0.7874015748031497,
                    "duration": 0.12499990833333641
                },
                {
                    "name": "D5",
                    "midi": 74,
                    "time": 121.03439400000131,
                    "velocity": 0.7086614173228346,
                    "duration": 0.06465512500000159
                },
                {
                    "name": "C5",
                    "midi": 72,
                    "time": 121.09904912500132,
                    "velocity": 0.7086614173228346,
                    "duration": 0.06465512500000159
                },
                {
                    "name": "D5",
                    "midi": 74,
                    "time": 121.16370425000132,
                    "velocity": 0.7086614173228346,
                    "duration": 0.12499990833333641
                },
                {
                    "name": "D5",
                    "midi": 74,
                    "time": 121.29301450000132,
                    "velocity": 0.7086614173228346,
                    "duration": 0.10775854166666932
                },
                {
                    "name": "D5",
                    "midi": 74,
                    "time": 121.55163500000133,
                    "velocity": 0.7086614173228346,
                    "duration": 0.06465512500000159
                },
                {
                    "name": "C5",
                    "midi": 72,
                    "time": 121.55163500000133,
                    "velocity": 0.7086614173228346,
                    "duration": 0.06465512500000159
                },
                {
                    "name": "D5",
                    "midi": 74,
                    "time": 121.68094525000133,
                    "velocity": 0.7086614173228346,
                    "duration": 0.12499990833333641
                },
                {
                    "name": "D5",
                    "midi": 74,
                    "time": 121.81025550000133,
                    "velocity": 0.7086614173228346,
                    "duration": 0.10775854166666932
                },
                {
                    "name": "D5",
                    "midi": 74,
                    "time": 122.06887600000134,
                    "velocity": 0.7086614173228346,
                    "duration": 0.10775854166666932
                },
                {
                    "name": "F5",
                    "midi": 77,
                    "time": 122.32749650000135,
                    "velocity": 0.7086614173228346,
                    "duration": 0.06465512500000159
                },
                {
                    "name": "E5",
                    "midi": 76,
                    "time": 122.39215162500135,
                    "velocity": 0.7086614173228346,
                    "duration": 0.06465512500000159
                },
                {
                    "name": "F5",
                    "midi": 77,
                    "time": 122.45680675000135,
                    "velocity": 0.7086614173228346,
                    "duration": 0.06465512500000159
                },
                {
                    "name": "E5",
                    "midi": 76,
                    "time": 122.52146187500135,
                    "velocity": 0.7086614173228346,
                    "duration": 0.06465512500000159
                },
                {
                    "name": "D5",
                    "midi": 74,
                    "time": 122.58611700000135,
                    "velocity": 0.7086614173228346,
                    "duration": 0.04310341666666773
                },
                {
                    "name": "E5",
                    "midi": 76,
                    "time": 122.62922041666802,
                    "velocity": 0.7086614173228346,
                    "duration": 0.04310341666666773
                },
                {
                    "name": "F5",
                    "midi": 77,
                    "time": 122.67232383333469,
                    "velocity": 0.7086614173228346,
                    "duration": 0.04310341666666773
                },
                {
                    "name": "C5",
                    "midi": 72,
                    "time": 122.71542725000135,
                    "velocity": 0.7086614173228346,
                    "duration": 0.12499990833333641
                },
                {
                    "name": "A#4",
                    "midi": 70,
                    "time": 122.84473750000136,
                    "velocity": 0.7086614173228346,
                    "duration": 0.12499990833333641
                },
                {
                    "name": "A4",
                    "midi": 69,
                    "time": 122.97404775000136,
                    "velocity": 0.7086614173228346,
                    "duration": 0.12499990833333641
                },
                {
                    "name": "A4",
                    "midi": 69,
                    "time": 123.23266825000137,
                    "velocity": 0.7086614173228346,
                    "duration": 0.12499990833333641
                },
                {
                    "name": "G4",
                    "midi": 67,
                    "time": 123.36197850000137,
                    "velocity": 0.7086614173228346,
                    "duration": 0.12499990833333641
                },
                {
                    "name": "F4",
                    "midi": 65,
                    "time": 123.49128875000137,
                    "velocity": 0.7086614173228346,
                    "duration": 0.12499990833333641
                },
                {
                    "name": "A4",
                    "midi": 69,
                    "time": 123.74990925000138,
                    "velocity": 0.7086614173228346,
                    "duration": 0.12499990833333641
                },
                {
                    "name": "G4",
                    "midi": 67,
                    "time": 123.87921950000138,
                    "velocity": 0.7086614173228346,
                    "duration": 0.12499990833333641
                },
                {
                    "name": "F4",
                    "midi": 65,
                    "time": 124.00852975000139,
                    "velocity": 0.7086614173228346,
                    "duration": 0.12499990833333641
                },
                {
                    "name": "D5",
                    "midi": 74,
                    "time": 124.13784000000139,
                    "velocity": 0.7874015748031497,
                    "duration": 0.06465512500000159
                },
                {
                    "name": "C5",
                    "midi": 72,
                    "time": 124.20249512500139,
                    "velocity": 0.7874015748031497,
                    "duration": 0.06465512500000159
                },
                {
                    "name": "D5",
                    "midi": 74,
                    "time": 124.2671502500014,
                    "velocity": 0.7874015748031497,
                    "duration": 0.12499990833333641
                },
                {
                    "name": "D5",
                    "midi": 74,
                    "time": 124.3964605000014,
                    "velocity": 0.7874015748031497,
                    "duration": 0.10775854166666932
                },
                {
                    "name": "D5",
                    "midi": 74,
                    "time": 124.6550810000014,
                    "velocity": 0.7874015748031497,
                    "duration": 0.06465512500000159
                },
                {
                    "name": "C5",
                    "midi": 72,
                    "time": 124.6550810000014,
                    "velocity": 0.7874015748031497,
                    "duration": 0.06465512500000159
                },
                {
                    "name": "D5",
                    "midi": 74,
                    "time": 124.7843912500014,
                    "velocity": 0.7874015748031497,
                    "duration": 0.12499990833333641
                },
                {
                    "name": "D5",
                    "midi": 74,
                    "time": 124.91370150000141,
                    "velocity": 0.7874015748031497,
                    "duration": 0.10775854166666932
                },
                {
                    "name": "D5",
                    "midi": 74,
                    "time": 125.17232200000142,
                    "velocity": 0.7874015748031497,
                    "duration": 0.2543101583333396
                },
                {
                    "name": "D#5",
                    "midi": 75,
                    "time": 125.43094250000142,
                    "velocity": 0.7874015748031497,
                    "duration": 0.04310341666666773
                },
                {
                    "name": "D5",
                    "midi": 74,
                    "time": 125.47404591666809,
                    "velocity": 0.7874015748031497,
                    "duration": 0.04310341666666773
                },
                {
                    "name": "D#5",
                    "midi": 75,
                    "time": 125.51714933333476,
                    "velocity": 0.7874015748031497,
                    "duration": 0.04310341666666773
                },
                {
                    "name": "F5",
                    "midi": 77,
                    "time": 125.56025275000142,
                    "velocity": 0.7874015748031497,
                    "duration": 0.12499990833333641
                },
                {
                    "name": "C5",
                    "midi": 72,
                    "time": 125.68956300000143,
                    "velocity": 0.7874015748031497,
                    "duration": 0.08620683333333545
                },
                {
                    "name": "B4",
                    "midi": 71,
                    "time": 125.77576983333476,
                    "velocity": 0.7874015748031497,
                    "duration": 0.08620683333333545
                },
                {
                    "name": "C5",
                    "midi": 72,
                    "time": 125.8619766666681,
                    "velocity": 0.7874015748031497,
                    "duration": 0.08620683333333545
                },
                {
                    "name": "B4",
                    "midi": 71,
                    "time": 125.94818350000143,
                    "velocity": 0.7874015748031497,
                    "duration": 0.08620683333333545
                },
                {
                    "name": "C5",
                    "midi": 72,
                    "time": 126.03439033333477,
                    "velocity": 0.7874015748031497,
                    "duration": 0.08620683333333545
                },
                {
                    "name": "B4",
                    "midi": 71,
                    "time": 126.1205971666681,
                    "velocity": 0.7874015748031497,
                    "duration": 0.08620683333333545
                },
                {
                    "name": "C5",
                    "midi": 72,
                    "time": 126.20680400000144,
                    "velocity": 0.7874015748031497,
                    "duration": 0.08620683333333545
                },
                {
                    "name": "B4",
                    "midi": 71,
                    "time": 126.29301083333478,
                    "velocity": 0.7874015748031497,
                    "duration": 0.08620683333333545
                },
                {
                    "name": "C5",
                    "midi": 72,
                    "time": 126.37921766666811,
                    "velocity": 0.7874015748031497,
                    "duration": 0.08620683333333545
                },
                {
                    "name": "B4",
                    "midi": 71,
                    "time": 126.46542450000145,
                    "velocity": 0.7874015748031497,
                    "duration": 0.08620683333333545
                },
                {
                    "name": "C5",
                    "midi": 72,
                    "time": 126.55163133333478,
                    "velocity": 0.7874015748031497,
                    "duration": 0.08620683333333545
                },
                {
                    "name": "B4",
                    "midi": 71,
                    "time": 126.63783816666812,
                    "velocity": 0.7874015748031497,
                    "duration": 0.08620683333333545
                },
                {
                    "name": "B4",
                    "midi": 71,
                    "time": 126.72404500000145,
                    "velocity": 0.7874015748031497,
                    "duration": 0.5129306583333317
                },
                {
                    "name": "C5",
                    "midi": 72,
                    "time": 127.24128600000145,
                    "velocity": 0.7086614173228346,
                    "duration": 0.12499990833333641
                },
                {
                    "name": "B4",
                    "midi": 71,
                    "time": 127.37059625000146,
                    "velocity": 0.7086614173228346,
                    "duration": 0.12499990833333641
                },
                {
                    "name": "C5",
                    "midi": 72,
                    "time": 127.49990650000146,
                    "velocity": 0.7086614173228346,
                    "duration": 0.04310341666666773
                },
                {
                    "name": "B4",
                    "midi": 71,
                    "time": 127.54300991666813,
                    "velocity": 0.7086614173228346,
                    "duration": 0.04310341666666773
                },
                {
                    "name": "C5",
                    "midi": 72,
                    "time": 127.5861133333348,
                    "velocity": 0.7086614173228346,
                    "duration": 0.04310341666666773
                },
                {
                    "name": "D#5",
                    "midi": 75,
                    "time": 127.62921675000146,
                    "velocity": 0.7086614173228346,
                    "duration": 0.12499990833333641
                },
                {
                    "name": "C5",
                    "midi": 72,
                    "time": 127.75852700000146,
                    "velocity": 0.7086614173228346,
                    "duration": 0.12499990833333641
                },
                {
                    "name": "B4",
                    "midi": 71,
                    "time": 127.88783725000147,
                    "velocity": 0.7086614173228346,
                    "duration": 0.12499990833333641
                },
                {
                    "name": "C5",
                    "midi": 72,
                    "time": 128.01714750000147,
                    "velocity": 0.7086614173228346,
                    "duration": 0.04310341666666773
                },
                {
                    "name": "B5",
                    "midi": 83,
                    "time": 128.06025091666814,
                    "velocity": 0.7086614173228346,
                    "duration": 0.04310341666666773
                },
                {
                    "name": "C5",
                    "midi": 72,
                    "time": 128.1033543333348,
                    "velocity": 0.7086614173228346,
                    "duration": 0.04310341666666773
                },
                {
                    "name": "D#5",
                    "midi": 75,
                    "time": 128.14645775000147,
                    "velocity": 0.7086614173228346,
                    "duration": 0.12499990833333641
                },
                {
                    "name": "C5",
                    "midi": 72,
                    "time": 128.27576800000148,
                    "velocity": 0.7086614173228346,
                    "duration": 0.12499990833333641
                },
                {
                    "name": "B4",
                    "midi": 71,
                    "time": 128.40507825000148,
                    "velocity": 0.7086614173228346,
                    "duration": 0.12499990833333641
                },
                {
                    "name": "C5",
                    "midi": 72,
                    "time": 128.53438850000148,
                    "velocity": 0.7086614173228346,
                    "duration": 0.04310341666666773
                },
                {
                    "name": "B4",
                    "midi": 71,
                    "time": 128.57749191666815,
                    "velocity": 0.7086614173228346,
                    "duration": 0.04310341666666773
                },
                {
                    "name": "C5",
                    "midi": 72,
                    "time": 128.62059533333482,
                    "velocity": 0.7086614173228346,
                    "duration": 0.04310341666666773
                },
                {
                    "name": "D#5",
                    "midi": 75,
                    "time": 128.6636987500015,
                    "velocity": 0.7086614173228346,
                    "duration": 0.12499990833333641
                },
                {
                    "name": "A4",
                    "midi": 69,
                    "time": 128.7930090000015,
                    "velocity": 0.7086614173228346,
                    "duration": 0.12499990833333641
                },
                {
                    "name": "G4",
                    "midi": 67,
                    "time": 128.9223192500015,
                    "velocity": 0.7086614173228346,
                    "duration": 0.12499990833333641
                },
                {
                    "name": "A4",
                    "midi": 69,
                    "time": 129.0516295000015,
                    "velocity": 0.7086614173228346,
                    "duration": 0.04310341666666773
                },
                {
                    "name": "G4",
                    "midi": 67,
                    "time": 129.09473291666816,
                    "velocity": 0.7086614173228346,
                    "duration": 0.04310341666666773
                },
                {
                    "name": "A4",
                    "midi": 69,
                    "time": 129.13783633333483,
                    "velocity": 0.7086614173228346,
                    "duration": 0.04310341666666773
                },
                {
                    "name": "C5",
                    "midi": 72,
                    "time": 129.1809397500015,
                    "velocity": 0.7086614173228346,
                    "duration": 0.12499990833333641
                },
                {
                    "name": "A4",
                    "midi": 69,
                    "time": 129.3102500000015,
                    "velocity": 0.7086614173228346,
                    "duration": 0.12499990833333641
                },
                {
                    "name": "G4",
                    "midi": 67,
                    "time": 129.4395602500015,
                    "velocity": 0.7086614173228346,
                    "duration": 0.12499990833333641
                },
                {
                    "name": "A4",
                    "midi": 69,
                    "time": 129.5688705000015,
                    "velocity": 0.7086614173228346,
                    "duration": 0.04310341666666773
                },
                {
                    "name": "G4",
                    "midi": 67,
                    "time": 129.61197391666818,
                    "velocity": 0.7086614173228346,
                    "duration": 0.04310341666666773
                },
                {
                    "name": "A4",
                    "midi": 69,
                    "time": 129.65507733333484,
                    "velocity": 0.7086614173228346,
                    "duration": 0.04310341666666773
                },
                {
                    "name": "C5",
                    "midi": 72,
                    "time": 129.6981807500015,
                    "velocity": 0.7086614173228346,
                    "duration": 0.12499990833333641
                },
                {
                    "name": "A4",
                    "midi": 69,
                    "time": 129.82749100000152,
                    "velocity": 0.7086614173228346,
                    "duration": 0.12499990833333641
                },
                {
                    "name": "G4",
                    "midi": 67,
                    "time": 129.95680125000152,
                    "velocity": 0.7086614173228346,
                    "duration": 0.12499990833333641
                },
                {
                    "name": "A4",
                    "midi": 69,
                    "time": 130.08611150000152,
                    "velocity": 0.7086614173228346,
                    "duration": 0.04310341666666773
                },
                {
                    "name": "G4",
                    "midi": 67,
                    "time": 130.1292149166682,
                    "velocity": 0.7086614173228346,
                    "duration": 0.04310341666666773
                },
                {
                    "name": "A4",
                    "midi": 69,
                    "time": 130.17231833333486,
                    "velocity": 0.7086614173228346,
                    "duration": 0.04310341666666773
                },
                {
                    "name": "C5",
                    "midi": 72,
                    "time": 130.21542175000152,
                    "velocity": 0.7086614173228346,
                    "duration": 0.12499990833333641
                },
                {
                    "name": "A#4",
                    "midi": 70,
                    "time": 130.34473200000153,
                    "velocity": 0.7086614173228346,
                    "duration": 0.12499990833333641
                },
                {
                    "name": "A4",
                    "midi": 69,
                    "time": 130.47404225000153,
                    "velocity": 0.7086614173228346,
                    "duration": 0.12499990833333641
                },
                {
                    "name": "A#4",
                    "midi": 70,
                    "time": 130.60335250000153,
                    "velocity": 0.7086614173228346,
                    "duration": 0.04310341666666773
                },
                {
                    "name": "A4",
                    "midi": 69,
                    "time": 130.6464559166682,
                    "velocity": 0.7086614173228346,
                    "duration": 0.04310341666666773
                },
                {
                    "name": "A#4",
                    "midi": 70,
                    "time": 130.68955933333487,
                    "velocity": 0.7086614173228346,
                    "duration": 0.04310341666666773
                },
                {
                    "name": "D5",
                    "midi": 74,
                    "time": 130.73266275000154,
                    "velocity": 0.7086614173228346,
                    "duration": 0.12499990833333641
                },
                {
                    "name": "A#4",
                    "midi": 70,
                    "time": 130.86197300000154,
                    "velocity": 0.7086614173228346,
                    "duration": 0.12499990833333641
                },
                {
                    "name": "A4",
                    "midi": 69,
                    "time": 130.99128325000154,
                    "velocity": 0.7086614173228346,
                    "duration": 0.12499990833333641
                },
                {
                    "name": "A#4",
                    "midi": 70,
                    "time": 131.12059350000155,
                    "velocity": 0.7086614173228346,
                    "duration": 0.04310341666666773
                },
                {
                    "name": "A4",
                    "midi": 69,
                    "time": 131.16369691666821,
                    "velocity": 0.7086614173228346,
                    "duration": 0.04310341666666773
                },
                {
                    "name": "A#4",
                    "midi": 70,
                    "time": 131.20680033333488,
                    "velocity": 0.7086614173228346,
                    "duration": 0.04310341666666773
                },
                {
                    "name": "D5",
                    "midi": 74,
                    "time": 131.24990375000155,
                    "velocity": 0.7086614173228346,
                    "duration": 0.12499990833333641
                },
                {
                    "name": "A#4",
                    "midi": 70,
                    "time": 131.37921400000155,
                    "velocity": 0.7086614173228346,
                    "duration": 0.12499990833333641
                },
                {
                    "name": "A4",
                    "midi": 69,
                    "time": 131.50852425000156,
                    "velocity": 0.7086614173228346,
                    "duration": 0.12499990833333641
                },
                {
                    "name": "A#4",
                    "midi": 70,
                    "time": 131.63783450000156,
                    "velocity": 0.7086614173228346,
                    "duration": 0.04310341666666773
                },
                {
                    "name": "A4",
                    "midi": 69,
                    "time": 131.68093791666823,
                    "velocity": 0.7086614173228346,
                    "duration": 0.04310341666666773
                },
                {
                    "name": "A#4",
                    "midi": 70,
                    "time": 131.7240413333349,
                    "velocity": 0.7086614173228346,
                    "duration": 0.04310341666666773
                },
                {
                    "name": "D5",
                    "midi": 74,
                    "time": 131.76714475000156,
                    "velocity": 0.7086614173228346,
                    "duration": 0.12499990833333641
                },
                {
                    "name": "G4",
                    "midi": 67,
                    "time": 131.89645500000157,
                    "velocity": 0.7086614173228346,
                    "duration": 0.12499990833333641
                },
                {
                    "name": "F#4",
                    "midi": 66,
                    "time": 132.02576525000157,
                    "velocity": 0.7086614173228346,
                    "duration": 0.12499990833333641
                },
                {
                    "name": "G4",
                    "midi": 67,
                    "time": 132.15507550000157,
                    "velocity": 0.7086614173228346,
                    "duration": 0.04310341666666773
                },
                {
                    "name": "F#4",
                    "midi": 66,
                    "time": 132.19817891666824,
                    "velocity": 0.7086614173228346,
                    "duration": 0.04310341666666773
                },
                {
                    "name": "G4",
                    "midi": 67,
                    "time": 132.2412823333349,
                    "velocity": 0.7086614173228346,
                    "duration": 0.04310341666666773
                },
                {
                    "name": "A#4",
                    "midi": 70,
                    "time": 132.28438575000158,
                    "velocity": 0.7086614173228346,
                    "duration": 0.12499990833333641
                },
                {
                    "name": "G4",
                    "midi": 67,
                    "time": 132.41369600000158,
                    "velocity": 0.7086614173228346,
                    "duration": 0.12499990833333641
                },
                {
                    "name": "F#4",
                    "midi": 66,
                    "time": 132.54300625000158,
                    "velocity": 0.7086614173228346,
                    "duration": 0.12499990833333641
                },
                {
                    "name": "G4",
                    "midi": 67,
                    "time": 132.67231650000159,
                    "velocity": 0.7086614173228346,
                    "duration": 0.04310341666666773
                },
                {
                    "name": "F#4",
                    "midi": 66,
                    "time": 132.71541991666825,
                    "velocity": 0.7086614173228346,
                    "duration": 0.04310341666666773
                },
                {
                    "name": "G4",
                    "midi": 67,
                    "time": 132.75852333333492,
                    "velocity": 0.7086614173228346,
                    "duration": 0.04310341666666773
                },
                {
                    "name": "A#4",
                    "midi": 70,
                    "time": 132.8016267500016,
                    "velocity": 0.7086614173228346,
                    "duration": 0.12499990833333641
                },
                {
                    "name": "G4",
                    "midi": 67,
                    "time": 132.9309370000016,
                    "velocity": 0.7086614173228346,
                    "duration": 0.12499990833333641
                },
                {
                    "name": "F#4",
                    "midi": 66,
                    "time": 133.0602472500016,
                    "velocity": 0.7086614173228346,
                    "duration": 0.12499990833333641
                },
                {
                    "name": "G4",
                    "midi": 67,
                    "time": 133.1895575000016,
                    "velocity": 0.7086614173228346,
                    "duration": 0.04310341666666773
                },
                {
                    "name": "F#4",
                    "midi": 66,
                    "time": 133.23266091666827,
                    "velocity": 0.7086614173228346,
                    "duration": 0.04310341666666773
                },
                {
                    "name": "G4",
                    "midi": 67,
                    "time": 133.27576433333493,
                    "velocity": 0.7086614173228346,
                    "duration": 0.04310341666666773
                },
                {
                    "name": "A#4",
                    "midi": 70,
                    "time": 133.3188677500016,
                    "velocity": 0.7086614173228346,
                    "duration": 0.12499990833333641
                },
                {
                    "name": "A4",
                    "midi": 69,
                    "time": 133.4481780000016,
                    "velocity": 0.7086614173228346,
                    "duration": 0.12499990833333641
                },
                {
                    "name": "G4",
                    "midi": 67,
                    "time": 133.5774882500016,
                    "velocity": 0.7086614173228346,
                    "duration": 0.12499990833333641
                },
                {
                    "name": "A4",
                    "midi": 69,
                    "time": 133.7067985000016,
                    "velocity": 0.7086614173228346,
                    "duration": 0.04310341666666773
                },
                {
                    "name": "G4",
                    "midi": 67,
                    "time": 133.74990191666828,
                    "velocity": 0.7086614173228346,
                    "duration": 0.04310341666666773
                },
                {
                    "name": "A4",
                    "midi": 69,
                    "time": 133.79300533333495,
                    "velocity": 0.7086614173228346,
                    "duration": 0.04310341666666773
                },
                {
                    "name": "C5",
                    "midi": 72,
                    "time": 133.8361087500016,
                    "velocity": 0.7086614173228346,
                    "duration": 0.12499990833333641
                },
                {
                    "name": "A4",
                    "midi": 69,
                    "time": 133.96541900000162,
                    "velocity": 0.7086614173228346,
                    "duration": 0.12499990833333641
                },
                {
                    "name": "G4",
                    "midi": 67,
                    "time": 134.09472925000162,
                    "velocity": 0.7086614173228346,
                    "duration": 0.12499990833333641
                },
                {
                    "name": "A4",
                    "midi": 69,
                    "time": 134.22403950000162,
                    "velocity": 0.7086614173228346,
                    "duration": 0.04310341666666773
                },
                {
                    "name": "G4",
                    "midi": 67,
                    "time": 134.2671429166683,
                    "velocity": 0.7086614173228346,
                    "duration": 0.04310341666666773
                },
                {
                    "name": "A4",
                    "midi": 69,
                    "time": 134.31024633333496,
                    "velocity": 0.7086614173228346,
                    "duration": 0.04310341666666773
                },
                {
                    "name": "C5",
                    "midi": 72,
                    "time": 134.35334975000163,
                    "velocity": 0.7086614173228346,
                    "duration": 0.12499990833333641
                },
                {
                    "name": "A4",
                    "midi": 69,
                    "time": 134.48266000000163,
                    "velocity": 0.7086614173228346,
                    "duration": 0.12499990833333641
                },
                {
                    "name": "G4",
                    "midi": 67,
                    "time": 134.61197025000163,
                    "velocity": 0.7086614173228346,
                    "duration": 0.12499990833333641
                },
                {
                    "name": "A4",
                    "midi": 69,
                    "time": 134.74128050000164,
                    "velocity": 0.7086614173228346,
                    "duration": 0.04310341666666773
                },
                {
                    "name": "G4",
                    "midi": 67,
                    "time": 134.7843839166683,
                    "velocity": 0.7086614173228346,
                    "duration": 0.04310341666666773
                },
                {
                    "name": "A4",
                    "midi": 69,
                    "time": 134.82748733333497,
                    "velocity": 0.7086614173228346,
                    "duration": 0.04310341666666773
                },
                {
                    "name": "C5",
                    "midi": 72,
                    "time": 134.87059075000164,
                    "velocity": 0.7086614173228346,
                    "duration": 0.12499990833333641
                },
                {
                    "name": "G4",
                    "midi": 67,
                    "time": 134.99990100000164,
                    "velocity": 0.7086614173228346,
                    "duration": 0.08620683333333545
                },
                {
                    "name": "F#4",
                    "midi": 66,
                    "time": 135.08610783333498,
                    "velocity": 0.7086614173228346,
                    "duration": 0.08620683333333545
                },
                {
                    "name": "G4",
                    "midi": 67,
                    "time": 135.1723146666683,
                    "velocity": 0.7086614173228346,
                    "duration": 0.08620683333333545
                },
                {
                    "name": "F#4",
                    "midi": 66,
                    "time": 135.25852150000165,
                    "velocity": 0.7086614173228346,
                    "duration": 0.08620683333333545
                },
                {
                    "name": "G4",
                    "midi": 67,
                    "time": 135.34472833333498,
                    "velocity": 0.7086614173228346,
                    "duration": 0.08620683333333545
                },
                {
                    "name": "F#4",
                    "midi": 66,
                    "time": 135.43093516666832,
                    "velocity": 0.7086614173228346,
                    "duration": 0.08620683333333545
                },
                {
                    "name": "G4",
                    "midi": 67,
                    "time": 135.51714200000166,
                    "velocity": 0.7086614173228346,
                    "duration": 0.08620683333333545
                },
                {
                    "name": "F#4",
                    "midi": 66,
                    "time": 135.603348833335,
                    "velocity": 0.7086614173228346,
                    "duration": 0.08620683333333545
                },
                {
                    "name": "G4",
                    "midi": 67,
                    "time": 135.68955566666833,
                    "velocity": 0.7086614173228346,
                    "duration": 0.08620683333333545
                },
                {
                    "name": "F#4",
                    "midi": 66,
                    "time": 135.77576250000166,
                    "velocity": 0.7086614173228346,
                    "duration": 0.08620683333333545
                },
                {
                    "name": "G4",
                    "midi": 67,
                    "time": 135.861969333335,
                    "velocity": 0.7086614173228346,
                    "duration": 0.08620683333333545
                },
                {
                    "name": "F#4",
                    "midi": 66,
                    "time": 135.94817616666833,
                    "velocity": 0.7086614173228346,
                    "duration": 0.21120674166667186
                },
                {
                    "name": "D#5",
                    "midi": 75,
                    "time": 136.55162400000168,
                    "velocity": 0.7874015748031497,
                    "duration": 0.06465512500000159
                },
                {
                    "name": "D5",
                    "midi": 74,
                    "time": 136.61627912500168,
                    "velocity": 0.7874015748031497,
                    "duration": 0.06465512500000159
                },
                {
                    "name": "D#5",
                    "midi": 75,
                    "time": 136.68093425000168,
                    "velocity": 0.7874015748031497,
                    "duration": 0.12499990833333641
                },
                {
                    "name": "D#5",
                    "midi": 75,
                    "time": 136.8102445000017,
                    "velocity": 0.7874015748031497,
                    "duration": 0.10775854166666932
                },
                {
                    "name": "D#5",
                    "midi": 75,
                    "time": 137.0688650000017,
                    "velocity": 0.7874015748031497,
                    "duration": 0.06465512500000159
                },
                {
                    "name": "D5",
                    "midi": 74,
                    "time": 137.0688650000017,
                    "velocity": 0.7874015748031497,
                    "duration": 0.06465512500000159
                },
                {
                    "name": "D#5",
                    "midi": 75,
                    "time": 137.1981752500017,
                    "velocity": 0.7874015748031497,
                    "duration": 0.12499990833333641
                },
                {
                    "name": "D#5",
                    "midi": 75,
                    "time": 137.3274855000017,
                    "velocity": 0.7874015748031497,
                    "duration": 0.10775854166666932
                },
                {
                    "name": "D5",
                    "midi": 74,
                    "time": 137.5861060000017,
                    "velocity": 0.7874015748031497,
                    "duration": 0.10775854166666932
                },
                {
                    "name": "G5",
                    "midi": 79,
                    "time": 137.8447265000017,
                    "velocity": 0.7874015748031497,
                    "duration": 0.06465512500000159
                },
                {
                    "name": "F#5",
                    "midi": 78,
                    "time": 137.9093816250017,
                    "velocity": 0.7874015748031497,
                    "duration": 0.06465512500000159
                },
                {
                    "name": "G5",
                    "midi": 79,
                    "time": 137.97403675000172,
                    "velocity": 0.7874015748031497,
                    "duration": 0.06465512500000159
                },
                {
                    "name": "F#5",
                    "midi": 78,
                    "time": 138.03869187500172,
                    "velocity": 0.7874015748031497,
                    "duration": 0.06465512500000159
                },
                {
                    "name": "G5",
                    "midi": 79,
                    "time": 138.10334700000172,
                    "velocity": 0.7874015748031497,
                    "duration": 0.04310341666666773
                },
                {
                    "name": "F#5",
                    "midi": 78,
                    "time": 138.1464504166684,
                    "velocity": 0.7874015748031497,
                    "duration": 0.04310341666666773
                },
                {
                    "name": "G5",
                    "midi": 79,
                    "time": 138.18955383333505,
                    "velocity": 0.7874015748031497,
                    "duration": 0.04310341666666773
                },
                {
                    "name": "D5",
                    "midi": 74,
                    "time": 138.23265725000172,
                    "velocity": 0.7874015748031497,
                    "duration": 0.12499990833333641
                },
                {
                    "name": "C5",
                    "midi": 72,
                    "time": 138.36196750000173,
                    "velocity": 0.7874015748031497,
                    "duration": 0.12499990833333641
                },
                {
                    "name": "A#4",
                    "midi": 70,
                    "time": 138.49127775000173,
                    "velocity": 0.7874015748031497,
                    "duration": 0.12499990833333641
                },
                {
                    "name": "A#4",
                    "midi": 70,
                    "time": 138.74989825000173,
                    "velocity": 0.7874015748031497,
                    "duration": 0.12499990833333641
                },
                {
                    "name": "A4",
                    "midi": 69,
                    "time": 138.87920850000174,
                    "velocity": 0.7874015748031497,
                    "duration": 0.12499990833333641
                },
                {
                    "name": "G4",
                    "midi": 67,
                    "time": 139.00851875000174,
                    "velocity": 0.7874015748031497,
                    "duration": 0.12499990833333641
                },
                {
                    "name": "A#4",
                    "midi": 70,
                    "time": 139.26713925000175,
                    "velocity": 0.7874015748031497,
                    "duration": 0.12499990833333641
                },
                {
                    "name": "A4",
                    "midi": 69,
                    "time": 139.39644950000175,
                    "velocity": 0.7874015748031497,
                    "duration": 0.12499990833333641
                },
                {
                    "name": "G4",
                    "midi": 67,
                    "time": 139.52575975000175,
                    "velocity": 0.7874015748031497,
                    "duration": 0.12499990833333641
                },
                {
                    "name": "D#5",
                    "midi": 75,
                    "time": 139.65507000000176,
                    "velocity": 0.7086614173228346,
                    "duration": 0.06465512500000159
                },
                {
                    "name": "D5",
                    "midi": 74,
                    "time": 139.71972512500176,
                    "velocity": 0.7086614173228346,
                    "duration": 0.06465512500000159
                },
                {
                    "name": "D#5",
                    "midi": 75,
                    "time": 139.78438025000176,
                    "velocity": 0.7086614173228346,
                    "duration": 0.12499990833333641
                },
                {
                    "name": "D#5",
                    "midi": 75,
                    "time": 139.91369050000176,
                    "velocity": 0.7086614173228346,
                    "duration": 0.10775854166666932
                },
                {
                    "name": "D#5",
                    "midi": 75,
                    "time": 140.17231100000177,
                    "velocity": 0.7086614173228346,
                    "duration": 0.06465512500000159
                },
                {
                    "name": "D5",
                    "midi": 74,
                    "time": 140.17231100000177,
                    "velocity": 0.7086614173228346,
                    "duration": 0.06465512500000159
                },
                {
                    "name": "D#5",
                    "midi": 75,
                    "time": 140.30162125000177,
                    "velocity": 0.7086614173228346,
                    "duration": 0.12499990833333641
                },
                {
                    "name": "D#5",
                    "midi": 75,
                    "time": 140.43093150000178,
                    "velocity": 0.7086614173228346,
                    "duration": 0.10775854166666932
                },
                {
                    "name": "D5",
                    "midi": 74,
                    "time": 140.68955200000178,
                    "velocity": 0.7086614173228346,
                    "duration": 0.10775854166666932
                },
                {
                    "name": "G5",
                    "midi": 79,
                    "time": 140.9481725000018,
                    "velocity": 0.7086614173228346,
                    "duration": 0.06465512500000159
                },
                {
                    "name": "F#5",
                    "midi": 78,
                    "time": 141.0128276250018,
                    "velocity": 0.7086614173228346,
                    "duration": 0.06465512500000159
                },
                {
                    "name": "G5",
                    "midi": 79,
                    "time": 141.0774827500018,
                    "velocity": 0.7086614173228346,
                    "duration": 0.06465512500000159
                },
                {
                    "name": "F#5",
                    "midi": 78,
                    "time": 141.1421378750018,
                    "velocity": 0.7086614173228346,
                    "duration": 0.06465512500000159
                },
                {
                    "name": "G5",
                    "midi": 79,
                    "time": 141.2067930000018,
                    "velocity": 0.7086614173228346,
                    "duration": 0.04310341666666773
                },
                {
                    "name": "F#5",
                    "midi": 78,
                    "time": 141.24989641666846,
                    "velocity": 0.7086614173228346,
                    "duration": 0.04310341666666773
                },
                {
                    "name": "G5",
                    "midi": 79,
                    "time": 141.29299983333513,
                    "velocity": 0.7086614173228346,
                    "duration": 0.04310341666666773
                },
                {
                    "name": "D5",
                    "midi": 74,
                    "time": 141.3361032500018,
                    "velocity": 0.7086614173228346,
                    "duration": 0.12499990833333641
                },
                {
                    "name": "C5",
                    "midi": 72,
                    "time": 141.4654135000018,
                    "velocity": 0.7086614173228346,
                    "duration": 0.12499990833333641
                },
                {
                    "name": "A#4",
                    "midi": 70,
                    "time": 141.5947237500018,
                    "velocity": 0.7086614173228346,
                    "duration": 0.12499990833333641
                },
                {
                    "name": "A#4",
                    "midi": 70,
                    "time": 141.8533442500018,
                    "velocity": 0.7086614173228346,
                    "duration": 0.12499990833333641
                },
                {
                    "name": "A4",
                    "midi": 69,
                    "time": 141.98265450000181,
                    "velocity": 0.7086614173228346,
                    "duration": 0.12499990833333641
                },
                {
                    "name": "G4",
                    "midi": 67,
                    "time": 142.11196475000182,
                    "velocity": 0.7086614173228346,
                    "duration": 0.12499990833333641
                },
                {
                    "name": "A#4",
                    "midi": 70,
                    "time": 142.37058525000182,
                    "velocity": 0.7086614173228346,
                    "duration": 0.12499990833333641
                },
                {
                    "name": "A4",
                    "midi": 69,
                    "time": 142.49989550000183,
                    "velocity": 0.7086614173228346,
                    "duration": 0.12499990833333641
                },
                {
                    "name": "G4",
                    "midi": 67,
                    "time": 142.62920575000183,
                    "velocity": 0.7086614173228346,
                    "duration": 0.12499990833333641
                },
                {
                    "name": "C5",
                    "midi": 72,
                    "time": 142.75851600000183,
                    "velocity": 0.7874015748031497,
                    "duration": 0.06465512500000159
                },
                {
                    "name": "B4",
                    "midi": 71,
                    "time": 142.82317112500183,
                    "velocity": 0.7874015748031497,
                    "duration": 0.06465512500000159
                },
                {
                    "name": "C5",
                    "midi": 72,
                    "time": 142.88782625000184,
                    "velocity": 0.7874015748031497,
                    "duration": 0.12499990833333641
                },
                {
                    "name": "C5",
                    "midi": 72,
                    "time": 143.01713650000184,
                    "velocity": 0.7874015748031497,
                    "duration": 0.10775854166666932
                },
                {
                    "name": "C5",
                    "midi": 72,
                    "time": 143.27575700000185,
                    "velocity": 0.7874015748031497,
                    "duration": 0.06465512500000159
                },
                {
                    "name": "B4",
                    "midi": 71,
                    "time": 143.27575700000185,
                    "velocity": 0.7874015748031497,
                    "duration": 0.06465512500000159
                },
                {
                    "name": "C5",
                    "midi": 72,
                    "time": 143.40506725000185,
                    "velocity": 0.7874015748031497,
                    "duration": 0.12499990833333641
                },
                {
                    "name": "C5",
                    "midi": 72,
                    "time": 143.53437750000185,
                    "velocity": 0.7874015748031497,
                    "duration": 0.10775854166666932
                },
                {
                    "name": "C5",
                    "midi": 72,
                    "time": 143.79299800000186,
                    "velocity": 0.7874015748031497,
                    "duration": 0.06465512500000159
                },
                {
                    "name": "B4",
                    "midi": 71,
                    "time": 143.85765312500186,
                    "velocity": 0.7874015748031497,
                    "duration": 0.06465512500000159
                },
                {
                    "name": "C5",
                    "midi": 72,
                    "time": 143.92230825000186,
                    "velocity": 0.7874015748031497,
                    "duration": 0.12499990833333641
                },
                {
                    "name": "C5",
                    "midi": 72,
                    "time": 144.05161850000187,
                    "velocity": 0.7874015748031497,
                    "duration": 0.10775854166666932
                },
                {
                    "name": "C5",
                    "midi": 72,
                    "time": 144.31023900000187,
                    "velocity": 0.7874015748031497,
                    "duration": 0.06465512500000159
                },
                {
                    "name": "D#5",
                    "midi": 75,
                    "time": 144.43954925000187,
                    "velocity": 0.7874015748031497,
                    "duration": 0.12499990833333641
                },
                {
                    "name": "D5",
                    "midi": 74,
                    "time": 144.56885950000188,
                    "velocity": 0.7874015748031497,
                    "duration": 0.12499990833333641
                },
                {
                    "name": "C5",
                    "midi": 72,
                    "time": 144.69816975000188,
                    "velocity": 0.7874015748031497,
                    "duration": 0.12499990833333641
                },
                {
                    "name": "C5",
                    "midi": 72,
                    "time": 144.9567902500019,
                    "velocity": 0.7874015748031497,
                    "duration": 0.12499990833333641
                },
                {
                    "name": "A#4",
                    "midi": 70,
                    "time": 145.0861005000019,
                    "velocity": 0.7874015748031497,
                    "duration": 0.12499990833333641
                },
                {
                    "name": "A4",
                    "midi": 69,
                    "time": 145.2154107500019,
                    "velocity": 0.7874015748031497,
                    "duration": 0.12499990833333641
                },
                {
                    "name": "C5",
                    "midi": 72,
                    "time": 145.4740312500019,
                    "velocity": 0.7874015748031497,
                    "duration": 0.12499990833333641
                },
                {
                    "name": "A#4",
                    "midi": 70,
                    "time": 145.6033415000019,
                    "velocity": 0.7874015748031497,
                    "duration": 0.12499990833333641
                },
                {
                    "name": "A4",
                    "midi": 69,
                    "time": 145.7326517500019,
                    "velocity": 0.7874015748031497,
                    "duration": 0.12499990833333641
                },
                {
                    "name": "A#4",
                    "midi": 70,
                    "time": 145.8619620000019,
                    "velocity": 0.7086614173228346,
                    "duration": 0.10775854166666932
                },
                {
                    "name": "D5",
                    "midi": 74,
                    "time": 146.12058250000192,
                    "velocity": 0.7086614173228346,
                    "duration": 0.10775854166666932
                },
                {
                    "name": "C5",
                    "midi": 72,
                    "time": 146.37920300000192,
                    "velocity": 0.7086614173228346,
                    "duration": 0.12499990833333641
                },
                {
                    "name": "A#4",
                    "midi": 70,
                    "time": 146.50851325000193,
                    "velocity": 0.7086614173228346,
                    "duration": 0.12499990833333641
                },
                {
                    "name": "A4",
                    "midi": 69,
                    "time": 146.63782350000193,
                    "velocity": 0.7086614173228346,
                    "duration": 0.12499990833333641
                },
                {
                    "name": "G4",
                    "midi": 67,
                    "time": 146.76713375000193,
                    "velocity": 0.7086614173228346,
                    "duration": 0.12499990833333641
                },
                {
                    "name": "A#4",
                    "midi": 70,
                    "time": 146.89644400000194,
                    "velocity": 0.7086614173228346,
                    "duration": 0.12499990833333641
                },
                {
                    "name": "A4",
                    "midi": 69,
                    "time": 147.02575425000194,
                    "velocity": 0.7086614173228346,
                    "duration": 0.12499990833333641
                },
                {
                    "name": "G4",
                    "midi": 67,
                    "time": 147.15506450000194,
                    "velocity": 0.7086614173228346,
                    "duration": 0.12499990833333641
                },
                {
                    "name": "F#4",
                    "midi": 66,
                    "time": 147.28437475000194,
                    "velocity": 0.7086614173228346,
                    "duration": 0.12499990833333641
                },
                {
                    "name": "G4",
                    "midi": 67,
                    "time": 147.41368500000195,
                    "velocity": 0.7086614173228346,
                    "duration": 0.512930658333346
                },
                {
                    "name": "G4",
                    "midi": 67,
                    "time": 149.22402850000196,
                    "velocity": 0.7086614173228346,
                    "duration": 0.10775854166666932
                },
                {
                    "name": "G4",
                    "midi": 67,
                    "time": 149.48264900000197,
                    "velocity": 0.7086614173228346,
                    "duration": 0.10775854166666932
                },
                {
                    "name": "G4",
                    "midi": 67,
                    "time": 149.74126950000198,
                    "velocity": 0.7086614173228346,
                    "duration": 0.10775854166666932
                },
                {
                    "name": "G4",
                    "midi": 67,
                    "time": 149.99989000000198,
                    "velocity": 0.7086614173228346,
                    "duration": 0.10775854166666932
                },
                {
                    "name": "G4",
                    "midi": 67,
                    "time": 150.258510500002,
                    "velocity": 0.7086614173228346,
                    "duration": 0.10775854166666932
                },
                {
                    "name": "G4",
                    "midi": 67,
                    "time": 150.517131000002,
                    "velocity": 0.7086614173228346,
                    "duration": 0.06465512500000159
                },
                {
                    "name": "A#4",
                    "midi": 70,
                    "time": 150.581786125002,
                    "velocity": 0.7086614173228346,
                    "duration": 0.06465512500000159
                },
                {
                    "name": "D5",
                    "midi": 74,
                    "time": 150.646441250002,
                    "velocity": 0.7086614173228346,
                    "duration": 0.06465512500000159
                },
                {
                    "name": "G5",
                    "midi": 79,
                    "time": 150.711096375002,
                    "velocity": 0.7086614173228346,
                    "duration": 0.06465512500000159
                },
                {
                    "name": "G5",
                    "midi": 79,
                    "time": 152.068854000002,
                    "velocity": 0.7874015748031497,
                    "duration": 0.10775854166666932
                },
                {
                    "name": "D#5",
                    "midi": 75,
                    "time": 152.068854000002,
                    "velocity": 0.7874015748031497,
                    "duration": 0.10775854166666932
                },
                {
                    "name": "A#4",
                    "midi": 70,
                    "time": 152.068854000002,
                    "velocity": 0.7874015748031497,
                    "duration": 0.10775854166666932
                },
                {
                    "name": "G4",
                    "midi": 67,
                    "time": 152.068854000002,
                    "velocity": 0.7874015748031497,
                    "duration": 0.10775854166666932
                },
                {
                    "name": "G5",
                    "midi": 79,
                    "time": 152.327474500002,
                    "velocity": 0.7874015748031497,
                    "duration": 0.10775854166666932
                },
                {
                    "name": "D#5",
                    "midi": 75,
                    "time": 152.327474500002,
                    "velocity": 0.7874015748031497,
                    "duration": 0.10775854166666932
                },
                {
                    "name": "A#4",
                    "midi": 70,
                    "time": 152.327474500002,
                    "velocity": 0.7874015748031497,
                    "duration": 0.10775854166666932
                },
                {
                    "name": "G4",
                    "midi": 67,
                    "time": 152.327474500002,
                    "velocity": 0.7874015748031497,
                    "duration": 0.10775854166666932
                },
                {
                    "name": "G5",
                    "midi": 79,
                    "time": 152.58609500000202,
                    "velocity": 0.7874015748031497,
                    "duration": 0.10775854166666932
                },
                {
                    "name": "D#5",
                    "midi": 75,
                    "time": 152.58609500000202,
                    "velocity": 0.7874015748031497,
                    "duration": 0.10775854166666932
                },
                {
                    "name": "A#4",
                    "midi": 70,
                    "time": 152.58609500000202,
                    "velocity": 0.7874015748031497,
                    "duration": 0.10775854166666932
                },
                {
                    "name": "G4",
                    "midi": 67,
                    "time": 152.58609500000202,
                    "velocity": 0.7874015748031497,
                    "duration": 0.10775854166666932
                },
                {
                    "name": "G5",
                    "midi": 79,
                    "time": 152.84471550000202,
                    "velocity": 0.7874015748031497,
                    "duration": 0.10775854166666932
                },
                {
                    "name": "D#5",
                    "midi": 75,
                    "time": 152.84471550000202,
                    "velocity": 0.7874015748031497,
                    "duration": 0.10775854166666932
                },
                {
                    "name": "A#4",
                    "midi": 70,
                    "time": 152.84471550000202,
                    "velocity": 0.7874015748031497,
                    "duration": 0.10775854166666932
                },
                {
                    "name": "G4",
                    "midi": 67,
                    "time": 152.84471550000202,
                    "velocity": 0.7874015748031497,
                    "duration": 0.10775854166666932
                },
                {
                    "name": "F5",
                    "midi": 77,
                    "time": 153.10333600000203,
                    "velocity": 0.7874015748031497,
                    "duration": 0.10775854166666932
                },
                {
                    "name": "D5",
                    "midi": 74,
                    "time": 153.10333600000203,
                    "velocity": 0.7874015748031497,
                    "duration": 0.10775854166666932
                },
                {
                    "name": "B4",
                    "midi": 71,
                    "time": 153.10333600000203,
                    "velocity": 0.7874015748031497,
                    "duration": 0.10775854166666932
                },
                {
                    "name": "G4",
                    "midi": 67,
                    "time": 153.10333600000203,
                    "velocity": 0.7874015748031497,
                    "duration": 0.10775854166666932
                },
                {
                    "name": "F5",
                    "midi": 77,
                    "time": 153.36195650000204,
                    "velocity": 0.7874015748031497,
                    "duration": 0.10775854166666932
                },
                {
                    "name": "D5",
                    "midi": 74,
                    "time": 153.36195650000204,
                    "velocity": 0.7874015748031497,
                    "duration": 0.10775854166666932
                },
                {
                    "name": "B4",
                    "midi": 71,
                    "time": 153.36195650000204,
                    "velocity": 0.7874015748031497,
                    "duration": 0.10775854166666932
                },
                {
                    "name": "G4",
                    "midi": 67,
                    "time": 153.36195650000204,
                    "velocity": 0.7874015748031497,
                    "duration": 0.10775854166666932
                },
                {
                    "name": "D#5",
                    "midi": 75,
                    "time": 153.62057700000204,
                    "velocity": 0.7874015748031497,
                    "duration": 0.10775854166666932
                },
                {
                    "name": "C5",
                    "midi": 72,
                    "time": 153.62057700000204,
                    "velocity": 0.7874015748031497,
                    "duration": 0.10775854166666932
                },
                {
                    "name": "G4",
                    "midi": 67,
                    "time": 153.62057700000204,
                    "velocity": 0.7874015748031497,
                    "duration": 0.10775854166666932
                },
                {
                    "name": "D#5",
                    "midi": 75,
                    "time": 153.87919750000205,
                    "velocity": 0.7874015748031497,
                    "duration": 0.10775854166666932
                },
                {
                    "name": "C5",
                    "midi": 72,
                    "time": 153.87919750000205,
                    "velocity": 0.7874015748031497,
                    "duration": 0.10775854166666932
                },
                {
                    "name": "G4",
                    "midi": 67,
                    "time": 153.87919750000205,
                    "velocity": 0.7874015748031497,
                    "duration": 0.10775854166666932
                },
                {
                    "name": "D#5",
                    "midi": 75,
                    "time": 154.13781800000206,
                    "velocity": 0.7874015748031497,
                    "duration": 0.10775854166666932
                },
                {
                    "name": "C5",
                    "midi": 72,
                    "time": 154.13781800000206,
                    "velocity": 0.7874015748031497,
                    "duration": 0.10775854166666932
                },
                {
                    "name": "G4",
                    "midi": 67,
                    "time": 154.13781800000206,
                    "velocity": 0.7874015748031497,
                    "duration": 0.10775854166666932
                },
                {
                    "name": "D#5",
                    "midi": 75,
                    "time": 154.39643850000206,
                    "velocity": 0.7874015748031497,
                    "duration": 0.10775854166666932
                },
                {
                    "name": "C5",
                    "midi": 72,
                    "time": 154.39643850000206,
                    "velocity": 0.7874015748031497,
                    "duration": 0.10775854166666932
                },
                {
                    "name": "G4",
                    "midi": 67,
                    "time": 154.39643850000206,
                    "velocity": 0.7874015748031497,
                    "duration": 0.10775854166666932
                },
                {
                    "name": "D5",
                    "midi": 74,
                    "time": 154.65505900000207,
                    "velocity": 0.7874015748031497,
                    "duration": 0.10775854166666932
                },
                {
                    "name": "A#4",
                    "midi": 70,
                    "time": 154.65505900000207,
                    "velocity": 0.7874015748031497,
                    "duration": 0.10775854166666932
                },
                {
                    "name": "G4",
                    "midi": 67,
                    "time": 154.65505900000207,
                    "velocity": 0.7874015748031497,
                    "duration": 0.10775854166666932
                },
                {
                    "name": "D4",
                    "midi": 62,
                    "time": 154.65505900000207,
                    "velocity": 0.7874015748031497,
                    "duration": 0.10775854166666932
                },
                {
                    "name": "D5",
                    "midi": 74,
                    "time": 154.91367950000208,
                    "velocity": 0.7874015748031497,
                    "duration": 0.10775854166666932
                },
                {
                    "name": "A#4",
                    "midi": 70,
                    "time": 154.91367950000208,
                    "velocity": 0.7874015748031497,
                    "duration": 0.10775854166666932
                },
                {
                    "name": "G4",
                    "midi": 67,
                    "time": 154.91367950000208,
                    "velocity": 0.7874015748031497,
                    "duration": 0.10775854166666932
                },
                {
                    "name": "D4",
                    "midi": 62,
                    "time": 154.91367950000208,
                    "velocity": 0.7874015748031497,
                    "duration": 0.10775854166666932
                },
                {
                    "name": "C5",
                    "midi": 72,
                    "time": 155.17230000000208,
                    "velocity": 0.7874015748031497,
                    "duration": 0.10775854166666932
                },
                {
                    "name": "A4",
                    "midi": 69,
                    "time": 155.17230000000208,
                    "velocity": 0.7874015748031497,
                    "duration": 0.10775854166666932
                },
                {
                    "name": "F#4",
                    "midi": 66,
                    "time": 155.17230000000208,
                    "velocity": 0.7874015748031497,
                    "duration": 0.10775854166666932
                },
                {
                    "name": "D4",
                    "midi": 62,
                    "time": 155.17230000000208,
                    "velocity": 0.7874015748031497,
                    "duration": 0.10775854166666932
                },
                {
                    "name": "C5",
                    "midi": 72,
                    "time": 155.4309205000021,
                    "velocity": 0.7874015748031497,
                    "duration": 0.10775854166666932
                },
                {
                    "name": "A4",
                    "midi": 69,
                    "time": 155.4309205000021,
                    "velocity": 0.7874015748031497,
                    "duration": 0.10775854166666932
                },
                {
                    "name": "F#4",
                    "midi": 66,
                    "time": 155.4309205000021,
                    "velocity": 0.7874015748031497,
                    "duration": 0.10775854166666932
                },
                {
                    "name": "D4",
                    "midi": 62,
                    "time": 155.4309205000021,
                    "velocity": 0.7874015748031497,
                    "duration": 0.10775854166666932
                },
                {
                    "name": "C5",
                    "midi": 72,
                    "time": 155.6895410000021,
                    "velocity": 0.7874015748031497,
                    "duration": 0.10775854166666932
                },
                {
                    "name": "A4",
                    "midi": 69,
                    "time": 155.6895410000021,
                    "velocity": 0.7874015748031497,
                    "duration": 0.10775854166666932
                },
                {
                    "name": "F#4",
                    "midi": 66,
                    "time": 155.6895410000021,
                    "velocity": 0.7874015748031497,
                    "duration": 0.10775854166666932
                },
                {
                    "name": "D4",
                    "midi": 62,
                    "time": 155.6895410000021,
                    "velocity": 0.7874015748031497,
                    "duration": 0.10775854166666932
                },
                {
                    "name": "C5",
                    "midi": 72,
                    "time": 155.9481615000021,
                    "velocity": 0.7874015748031497,
                    "duration": 0.10775854166666932
                },
                {
                    "name": "A4",
                    "midi": 69,
                    "time": 155.9481615000021,
                    "velocity": 0.7874015748031497,
                    "duration": 0.10775854166666932
                },
                {
                    "name": "F#4",
                    "midi": 66,
                    "time": 155.9481615000021,
                    "velocity": 0.7874015748031497,
                    "duration": 0.10775854166666932
                },
                {
                    "name": "D4",
                    "midi": 62,
                    "time": 155.9481615000021,
                    "velocity": 0.7874015748031497,
                    "duration": 0.10775854166666932
                },
                {
                    "name": "A#4",
                    "midi": 70,
                    "time": 156.2067820000021,
                    "velocity": 0.7874015748031497,
                    "duration": 0.10775854166666932
                },
                {
                    "name": "G4",
                    "midi": 67,
                    "time": 156.2067820000021,
                    "velocity": 0.7874015748031497,
                    "duration": 0.10775854166666932
                },
                {
                    "name": "D4",
                    "midi": 62,
                    "time": 156.2067820000021,
                    "velocity": 0.7874015748031497,
                    "duration": 0.10775854166666932
                },
                {
                    "name": "A#4",
                    "midi": 70,
                    "time": 156.4654025000021,
                    "velocity": 0.7874015748031497,
                    "duration": 0.10775854166666932
                },
                {
                    "name": "G4",
                    "midi": 67,
                    "time": 156.4654025000021,
                    "velocity": 0.7874015748031497,
                    "duration": 0.10775854166666932
                },
                {
                    "name": "D4",
                    "midi": 62,
                    "time": 156.4654025000021,
                    "velocity": 0.7874015748031497,
                    "duration": 0.10775854166666932
                },
                {
                    "name": "A4",
                    "midi": 69,
                    "time": 156.72402300000212,
                    "velocity": 0.7874015748031497,
                    "duration": 0.10775854166666932
                },
                {
                    "name": "F#4",
                    "midi": 66,
                    "time": 156.72402300000212,
                    "velocity": 0.7874015748031497,
                    "duration": 0.10775854166666932
                },
                {
                    "name": "D4",
                    "midi": 62,
                    "time": 156.72402300000212,
                    "velocity": 0.7874015748031497,
                    "duration": 0.10775854166666932
                },
                {
                    "name": "C4",
                    "midi": 60,
                    "time": 156.72402300000212,
                    "velocity": 0.7874015748031497,
                    "duration": 0.10775854166666932
                },
                {
                    "name": "A4",
                    "midi": 69,
                    "time": 156.98264350000213,
                    "velocity": 0.7874015748031497,
                    "duration": 0.10775854166666932
                },
                {
                    "name": "F#4",
                    "midi": 66,
                    "time": 156.98264350000213,
                    "velocity": 0.7874015748031497,
                    "duration": 0.10775854166666932
                },
                {
                    "name": "D4",
                    "midi": 62,
                    "time": 156.98264350000213,
                    "velocity": 0.7874015748031497,
                    "duration": 0.10775854166666932
                },
                {
                    "name": "C4",
                    "midi": 60,
                    "time": 156.98264350000213,
                    "velocity": 0.7874015748031497,
                    "duration": 0.10775854166666932
                },
                {
                    "name": "A4",
                    "midi": 69,
                    "time": 157.24126400000213,
                    "velocity": 0.7874015748031497,
                    "duration": 0.10775854166666932
                },
                {
                    "name": "F#4",
                    "midi": 66,
                    "time": 157.24126400000213,
                    "velocity": 0.7874015748031497,
                    "duration": 0.10775854166666932
                },
                {
                    "name": "D4",
                    "midi": 62,
                    "time": 157.24126400000213,
                    "velocity": 0.7874015748031497,
                    "duration": 0.10775854166666932
                },
                {
                    "name": "C4",
                    "midi": 60,
                    "time": 157.24126400000213,
                    "velocity": 0.7874015748031497,
                    "duration": 0.10775854166666932
                },
                {
                    "name": "A4",
                    "midi": 69,
                    "time": 157.49988450000214,
                    "velocity": 0.7874015748031497,
                    "duration": 0.10775854166666932
                },
                {
                    "name": "F#4",
                    "midi": 66,
                    "time": 157.49988450000214,
                    "velocity": 0.7874015748031497,
                    "duration": 0.10775854166666932
                },
                {
                    "name": "D4",
                    "midi": 62,
                    "time": 157.49988450000214,
                    "velocity": 0.7874015748031497,
                    "duration": 0.10775854166666932
                },
                {
                    "name": "C4",
                    "midi": 60,
                    "time": 157.49988450000214,
                    "velocity": 0.7874015748031497,
                    "duration": 0.10775854166666932
                },
                {
                    "name": "G4",
                    "midi": 67,
                    "time": 157.75850500000215,
                    "velocity": 0.7874015748031497,
                    "duration": 0.10775854166666932
                },
                {
                    "name": "D4",
                    "midi": 62,
                    "time": 157.75850500000215,
                    "velocity": 0.7874015748031497,
                    "duration": 0.10775854166666932
                },
                {
                    "name": "A#3",
                    "midi": 58,
                    "time": 157.75850500000215,
                    "velocity": 0.7874015748031497,
                    "duration": 0.10775854166666932
                },
                {
                    "name": "G4",
                    "midi": 67,
                    "time": 158.01712550000215,
                    "velocity": 0.7874015748031497,
                    "duration": 0.10775854166666932
                },
                {
                    "name": "D4",
                    "midi": 62,
                    "time": 158.01712550000215,
                    "velocity": 0.7874015748031497,
                    "duration": 0.10775854166666932
                },
                {
                    "name": "A#3",
                    "midi": 58,
                    "time": 158.01712550000215,
                    "velocity": 0.7874015748031497,
                    "duration": 0.10775854166666932
                },
                {
                    "name": "F#4",
                    "midi": 66,
                    "time": 158.27574600000216,
                    "velocity": 0.7874015748031497,
                    "duration": 0.06465512500000159
                },
                {
                    "name": "D4",
                    "midi": 62,
                    "time": 158.27574600000216,
                    "velocity": 0.7874015748031497,
                    "duration": 1.0301716583333302
                },
                {
                    "name": "A3",
                    "midi": 57,
                    "time": 158.27574600000216,
                    "velocity": 0.7874015748031497,
                    "duration": 1.0301716583333302
                },
                {
                    "name": "G4",
                    "midi": 67,
                    "time": 158.34040112500216,
                    "velocity": 0.7874015748031497,
                    "duration": 0.06465512500000159
                },
                {
                    "name": "F#4",
                    "midi": 66,
                    "time": 158.40505625000216,
                    "velocity": 0.7874015748031497,
                    "duration": 0.9008614083333271
                },
                {
                    "name": "A4",
                    "midi": 69,
                    "time": 160.08608950000215,
                    "velocity": 0.7874015748031497,
                    "duration": 0.10775854166666932
                },
                {
                    "name": "A4",
                    "midi": 69,
                    "time": 160.34471000000215,
                    "velocity": 0.7874015748031497,
                    "duration": 0.10775854166666932
                },
                {
                    "name": "A4",
                    "midi": 69,
                    "time": 160.60333050000216,
                    "velocity": 0.7874015748031497,
                    "duration": 0.10775854166666932
                },
                {
                    "name": "A4",
                    "midi": 69,
                    "time": 160.86195100000216,
                    "velocity": 0.7874015748031497,
                    "duration": 0.10775854166666932
                },
                {
                    "name": "A4",
                    "midi": 69,
                    "time": 161.12057150000217,
                    "velocity": 0.7874015748031497,
                    "duration": 0.10775854166666932
                },
                {
                    "name": "A4",
                    "midi": 69,
                    "time": 161.37919200000218,
                    "velocity": 0.7874015748031497,
                    "duration": 0.06465512500000159
                },
                {
                    "name": "C5",
                    "midi": 72,
                    "time": 161.44384712500218,
                    "velocity": 0.7874015748031497,
                    "duration": 0.06465512500000159
                },
                {
                    "name": "D5",
                    "midi": 74,
                    "time": 161.50850225000218,
                    "velocity": 0.7874015748031497,
                    "duration": 0.06465512500000159
                },
                {
                    "name": "F#5",
                    "midi": 78,
                    "time": 161.57315737500218,
                    "velocity": 0.7874015748031497,
                    "duration": 0.06465512500000159
                },
                {
                    "name": "C5",
                    "midi": 72,
                    "time": 163.1895355000022,
                    "velocity": 0.7874015748031497,
                    "duration": 0.10775854166666932
                },
                {
                    "name": "C5",
                    "midi": 72,
                    "time": 163.4481560000022,
                    "velocity": 0.7874015748031497,
                    "duration": 0.10775854166666932
                },
                {
                    "name": "C5",
                    "midi": 72,
                    "time": 163.7067765000022,
                    "velocity": 0.7874015748031497,
                    "duration": 0.10775854166666932
                },
                {
                    "name": "C5",
                    "midi": 72,
                    "time": 163.9653970000022,
                    "velocity": 0.7874015748031497,
                    "duration": 0.10775854166666932
                },
                {
                    "name": "C5",
                    "midi": 72,
                    "time": 164.22401750000222,
                    "velocity": 0.7874015748031497,
                    "duration": 0.10775854166666932
                },
                {
                    "name": "C5",
                    "midi": 72,
                    "time": 164.48263800000223,
                    "velocity": 0.7874015748031497,
                    "duration": 0.08620683333333545
                },
                {
                    "name": "D5",
                    "midi": 74,
                    "time": 164.56884483333556,
                    "velocity": 0.7874015748031497,
                    "duration": 0.08620683333333545
                },
                {
                    "name": "F#5",
                    "midi": 78,
                    "time": 164.6550516666689,
                    "velocity": 0.7874015748031497,
                    "duration": 0.08620683333333545
                },
                {
                    "name": "A5",
                    "midi": 81,
                    "time": 164.74125850000223,
                    "velocity": 0.7874015748031497,
                    "duration": 2.392239625000002
                },
                {
                    "name": "G5",
                    "midi": 79,
                    "time": 167.13349812500223,
                    "velocity": 0.7874015748031497,
                    "duration": 0.06465512500000159
                },
                {
                    "name": "F#5",
                    "midi": 78,
                    "time": 167.19815325000224,
                    "velocity": 0.7874015748031497,
                    "duration": 0.06465512500000159
                },
                {
                    "name": "E5",
                    "midi": 76,
                    "time": 167.26280837500224,
                    "velocity": 0.7874015748031497,
                    "duration": 0.06465512500000159
                },
                {
                    "name": "D5",
                    "midi": 74,
                    "time": 167.32746350000224,
                    "velocity": 0.7874015748031497,
                    "duration": 0.06465512500000159
                },
                {
                    "name": "C5",
                    "midi": 72,
                    "time": 167.39211862500224,
                    "velocity": 0.7874015748031497,
                    "duration": 0.06465512500000159
                },
                {
                    "name": "A#4",
                    "midi": 70,
                    "time": 167.45677375000224,
                    "velocity": 0.7874015748031497,
                    "duration": 0.06465512500000159
                },
                {
                    "name": "A4",
                    "midi": 69,
                    "time": 167.52142887500224,
                    "velocity": 0.7874015748031497,
                    "duration": 0.06465512500000159
                },
                {
                    "name": "A#4",
                    "midi": 70,
                    "time": 167.58608400000224,
                    "velocity": 0.7874015748031497,
                    "duration": 0.7715511583333523
                },
                {
                    "name": "D5",
                    "midi": 74,
                    "time": 167.84470450000225,
                    "velocity": 0.7874015748031497,
                    "duration": 0.2543101583333396
                },
                {
                    "name": "G5",
                    "midi": 79,
                    "time": 168.10332500000226,
                    "velocity": 0.7874015748031497,
                    "duration": 0.7715511583333523
                },
                {
                    "name": "A#4",
                    "midi": 70,
                    "time": 168.36194550000226,
                    "velocity": 0.7874015748031497,
                    "duration": 0.2543101583333396
                },
                {
                    "name": "A4",
                    "midi": 69,
                    "time": 168.62056600000227,
                    "velocity": 0.7874015748031497,
                    "duration": 0.2543101583333396
                },
                {
                    "name": "F#5",
                    "midi": 78,
                    "time": 168.87918650000228,
                    "velocity": 0.7874015748031497,
                    "duration": 0.06465512500000159
                },
                {
                    "name": "C5",
                    "midi": 72,
                    "time": 168.87918650000228,
                    "velocity": 0.7874015748031497,
                    "duration": 0.2543101583333396
                },
                {
                    "name": "G5",
                    "midi": 79,
                    "time": 168.94384162500228,
                    "velocity": 0.7874015748031497,
                    "duration": 0.06465512500000159
                },
                {
                    "name": "F#5",
                    "midi": 78,
                    "time": 169.00849675000228,
                    "velocity": 0.7874015748031497,
                    "duration": 0.06465512500000159
                },
                {
                    "name": "G5",
                    "midi": 79,
                    "time": 169.07315187500228,
                    "velocity": 0.7874015748031497,
                    "duration": 0.06465512500000159
                },
                {
                    "name": "F#5",
                    "midi": 78,
                    "time": 169.13780700000228,
                    "velocity": 0.7874015748031497,
                    "duration": 0.512930658333346
                },
                {
                    "name": "C5",
                    "midi": 72,
                    "time": 169.13780700000228,
                    "velocity": 0.7874015748031497,
                    "duration": 0.512930658333346
                },
                {
                    "name": "G5",
                    "midi": 79,
                    "time": 169.6550480000023,
                    "velocity": 0.7874015748031497,
                    "duration": 1.0301716583333302
                },
                {
                    "name": "D5",
                    "midi": 74,
                    "time": 169.7843582500023,
                    "velocity": 0.7874015748031497,
                    "duration": 0.9008614083333271
                },
                {
                    "name": "A#4",
                    "midi": 70,
                    "time": 169.9136685000023,
                    "velocity": 0.7874015748031497,
                    "duration": 0.7715511583333239
                },
                {
                    "name": "G4",
                    "midi": 67,
                    "time": 170.0429787500023,
                    "velocity": 0.7874015748031497,
                    "duration": 0.6422409083333207
                }
            ],
            "controlChanges": {
                "7": [
                    {
                        "number": 7,
                        "time": 0,
                        "value": 0.8267716535433071
                    }
                ],
                "10": [
                    {
                        "number": 10,
                        "time": 0,
                        "value": 0.25196850393700787
                    }
                ]
            },
            "id": 1,
            "instrumentNumber": 6,
            "instrument": "harpsichord",
            "instrumentFamily": "piano",
            "channelNumber": 0,
            "isPercussion": false
        },
        {
            "startTime": 3.3620665000000005,
            "duration": 170.6895300000017,
            "length": 894,
            "notes": [
                {
                    "name": "A#3",
                    "midi": 58,
                    "time": 3.3620665000000005,
                    "velocity": 0.7874015748031497,
                    "duration": 0.10775854166666665
                },
                {
                    "name": "G3",
                    "midi": 55,
                    "time": 3.3620665000000005,
                    "velocity": 0.7874015748031497,
                    "duration": 0.10775854166666665
                },
                {
                    "name": "A#3",
                    "midi": 58,
                    "time": 3.6206870000000007,
                    "velocity": 0.7874015748031497,
                    "duration": 0.10775854166666665
                },
                {
                    "name": "G3",
                    "midi": 55,
                    "time": 3.6206870000000007,
                    "velocity": 0.7874015748031497,
                    "duration": 0.10775854166666665
                },
                {
                    "name": "A#3",
                    "midi": 58,
                    "time": 3.879307500000001,
                    "velocity": 0.7874015748031497,
                    "duration": 0.10775854166666665
                },
                {
                    "name": "G3",
                    "midi": 55,
                    "time": 3.879307500000001,
                    "velocity": 0.7874015748031497,
                    "duration": 0.10775854166666665
                },
                {
                    "name": "A#3",
                    "midi": 58,
                    "time": 4.1379280000000005,
                    "velocity": 0.7874015748031497,
                    "duration": 0.10775854166666665
                },
                {
                    "name": "G3",
                    "midi": 55,
                    "time": 4.1379280000000005,
                    "velocity": 0.7874015748031497,
                    "duration": 0.10775854166666665
                },
                {
                    "name": "A#3",
                    "midi": 58,
                    "time": 4.396548500000001,
                    "velocity": 0.7874015748031497,
                    "duration": 0.10775854166666665
                },
                {
                    "name": "G3",
                    "midi": 55,
                    "time": 4.396548500000001,
                    "velocity": 0.7874015748031497,
                    "duration": 0.10775854166666665
                },
                {
                    "name": "C4",
                    "midi": 60,
                    "time": 4.655169000000001,
                    "velocity": 0.7874015748031497,
                    "duration": 0.10775854166666665
                },
                {
                    "name": "G3",
                    "midi": 55,
                    "time": 4.655169000000001,
                    "velocity": 0.7874015748031497,
                    "duration": 0.10775854166666665
                },
                {
                    "name": "C4",
                    "midi": 60,
                    "time": 4.913789500000001,
                    "velocity": 0.7874015748031497,
                    "duration": 0.10775854166666665
                },
                {
                    "name": "G3",
                    "midi": 55,
                    "time": 4.913789500000001,
                    "velocity": 0.7874015748031497,
                    "duration": 0.10775854166666665
                },
                {
                    "name": "C4",
                    "midi": 60,
                    "time": 5.172410000000001,
                    "velocity": 0.7874015748031497,
                    "duration": 0.10775854166666665
                },
                {
                    "name": "G3",
                    "midi": 55,
                    "time": 5.172410000000001,
                    "velocity": 0.7874015748031497,
                    "duration": 0.10775854166666665
                },
                {
                    "name": "C4",
                    "midi": 60,
                    "time": 5.431030500000001,
                    "velocity": 0.7874015748031497,
                    "duration": 0.10775854166666665
                },
                {
                    "name": "G3",
                    "midi": 55,
                    "time": 5.431030500000001,
                    "velocity": 0.7874015748031497,
                    "duration": 0.10775854166666665
                },
                {
                    "name": "C4",
                    "midi": 60,
                    "time": 5.689651000000001,
                    "velocity": 0.7874015748031497,
                    "duration": 0.10775854166666665
                },
                {
                    "name": "G3",
                    "midi": 55,
                    "time": 5.689651000000001,
                    "velocity": 0.7874015748031497,
                    "duration": 0.10775854166666665
                },
                {
                    "name": "C4",
                    "midi": 60,
                    "time": 5.9482715000000015,
                    "velocity": 0.7874015748031497,
                    "duration": 0.10775854166666665
                },
                {
                    "name": "G3",
                    "midi": 55,
                    "time": 5.9482715000000015,
                    "velocity": 0.7874015748031497,
                    "duration": 0.10775854166666665
                },
                {
                    "name": "A3",
                    "midi": 57,
                    "time": 6.206892000000002,
                    "velocity": 0.7874015748031497,
                    "duration": 0.10775854166666665
                },
                {
                    "name": "G3",
                    "midi": 55,
                    "time": 6.206892000000002,
                    "velocity": 0.7874015748031497,
                    "duration": 0.10775854166666665
                },
                {
                    "name": "A3",
                    "midi": 57,
                    "time": 6.465512500000002,
                    "velocity": 0.7874015748031497,
                    "duration": 0.10775854166666665
                },
                {
                    "name": "G3",
                    "midi": 55,
                    "time": 6.465512500000002,
                    "velocity": 0.7874015748031497,
                    "duration": 0.10775854166666665
                },
                {
                    "name": "A3",
                    "midi": 57,
                    "time": 6.724133000000002,
                    "velocity": 0.7874015748031497,
                    "duration": 0.10775854166666665
                },
                {
                    "name": "G3",
                    "midi": 55,
                    "time": 6.724133000000002,
                    "velocity": 0.7874015748031497,
                    "duration": 0.10775854166666665
                },
                {
                    "name": "A3",
                    "midi": 57,
                    "time": 6.982753500000002,
                    "velocity": 0.7874015748031497,
                    "duration": 0.10775854166666665
                },
                {
                    "name": "G3",
                    "midi": 55,
                    "time": 6.982753500000002,
                    "velocity": 0.7874015748031497,
                    "duration": 0.10775854166666665
                },
                {
                    "name": "A3",
                    "midi": 57,
                    "time": 7.241374000000002,
                    "velocity": 0.7874015748031497,
                    "duration": 0.10775854166666665
                },
                {
                    "name": "G3",
                    "midi": 55,
                    "time": 7.241374000000002,
                    "velocity": 0.7874015748031497,
                    "duration": 0.10775854166666665
                },
                {
                    "name": "A3",
                    "midi": 57,
                    "time": 7.499994500000002,
                    "velocity": 0.7874015748031497,
                    "duration": 0.10775854166666665
                },
                {
                    "name": "G3",
                    "midi": 55,
                    "time": 7.499994500000002,
                    "velocity": 0.7874015748031497,
                    "duration": 0.10775854166666665
                },
                {
                    "name": "C4",
                    "midi": 60,
                    "time": 7.7586150000000025,
                    "velocity": 0.7874015748031497,
                    "duration": 0.10775854166666665
                },
                {
                    "name": "A3",
                    "midi": 57,
                    "time": 7.7586150000000025,
                    "velocity": 0.7874015748031497,
                    "duration": 0.10775854166666665
                },
                {
                    "name": "F#3",
                    "midi": 54,
                    "time": 7.7586150000000025,
                    "velocity": 0.7874015748031497,
                    "duration": 0.10775854166666665
                },
                {
                    "name": "C4",
                    "midi": 60,
                    "time": 8.017235500000002,
                    "velocity": 0.7874015748031497,
                    "duration": 0.10775854166666754
                },
                {
                    "name": "A3",
                    "midi": 57,
                    "time": 8.017235500000002,
                    "velocity": 0.7874015748031497,
                    "duration": 0.10775854166666754
                },
                {
                    "name": "F#3",
                    "midi": 54,
                    "time": 8.017235500000002,
                    "velocity": 0.7874015748031497,
                    "duration": 0.10775854166666754
                },
                {
                    "name": "D4",
                    "midi": 62,
                    "time": 8.275856000000003,
                    "velocity": 0.7874015748031497,
                    "duration": 0.10775854166666754
                },
                {
                    "name": "A3",
                    "midi": 57,
                    "time": 8.275856000000003,
                    "velocity": 0.7874015748031497,
                    "duration": 0.10775854166666754
                },
                {
                    "name": "F#3",
                    "midi": 54,
                    "time": 8.275856000000003,
                    "velocity": 0.7874015748031497,
                    "duration": 0.10775854166666754
                },
                {
                    "name": "D4",
                    "midi": 62,
                    "time": 8.534476500000004,
                    "velocity": 0.7874015748031497,
                    "duration": 0.10775854166666754
                },
                {
                    "name": "A3",
                    "midi": 57,
                    "time": 8.534476500000004,
                    "velocity": 0.7874015748031497,
                    "duration": 0.10775854166666754
                },
                {
                    "name": "F#3",
                    "midi": 54,
                    "time": 8.534476500000004,
                    "velocity": 0.7874015748031497,
                    "duration": 0.10775854166666754
                },
                {
                    "name": "D4",
                    "midi": 62,
                    "time": 8.793097000000005,
                    "velocity": 0.7874015748031497,
                    "duration": 0.10775854166666754
                },
                {
                    "name": "A3",
                    "midi": 57,
                    "time": 8.793097000000005,
                    "velocity": 0.7874015748031497,
                    "duration": 0.10775854166666754
                },
                {
                    "name": "F#3",
                    "midi": 54,
                    "time": 8.793097000000005,
                    "velocity": 0.7874015748031497,
                    "duration": 0.10775854166666754
                },
                {
                    "name": "D4",
                    "midi": 62,
                    "time": 9.051717500000006,
                    "velocity": 0.7874015748031497,
                    "duration": 0.10775854166666754
                },
                {
                    "name": "A3",
                    "midi": 57,
                    "time": 9.051717500000006,
                    "velocity": 0.7874015748031497,
                    "duration": 0.10775854166666754
                },
                {
                    "name": "F#3",
                    "midi": 54,
                    "time": 9.051717500000006,
                    "velocity": 0.7874015748031497,
                    "duration": 0.10775854166666754
                },
                {
                    "name": "D4",
                    "midi": 62,
                    "time": 9.310338000000007,
                    "velocity": 0.7874015748031497,
                    "duration": 1.0301716583333338
                },
                {
                    "name": "G3",
                    "midi": 55,
                    "time": 9.310338000000007,
                    "velocity": 0.7874015748031497,
                    "duration": 1.547412658333334
                },
                {
                    "name": "G2",
                    "midi": 43,
                    "time": 10.344820000000007,
                    "velocity": 0.7874015748031497,
                    "duration": 0.5129306583333335
                },
                {
                    "name": "A#4",
                    "midi": 70,
                    "time": 10.862061000000008,
                    "velocity": 0.7086614173228346,
                    "duration": 0.2543101583333325
                },
                {
                    "name": "G4",
                    "midi": 67,
                    "time": 10.862061000000008,
                    "velocity": 0.7086614173228346,
                    "duration": 0.2543101583333325
                },
                {
                    "name": "A#4",
                    "midi": 70,
                    "time": 11.120681500000007,
                    "velocity": 0.7086614173228346,
                    "duration": 0.2543101583333325
                },
                {
                    "name": "G4",
                    "midi": 67,
                    "time": 11.120681500000007,
                    "velocity": 0.7086614173228346,
                    "duration": 0.2543101583333325
                },
                {
                    "name": "A#4",
                    "midi": 70,
                    "time": 11.379302000000006,
                    "velocity": 0.7086614173228346,
                    "duration": 0.2543101583333325
                },
                {
                    "name": "G4",
                    "midi": 67,
                    "time": 11.637922500000005,
                    "velocity": 0.7086614173228346,
                    "duration": 0.2543101583333325
                },
                {
                    "name": "A#4",
                    "midi": 70,
                    "time": 11.896543000000005,
                    "velocity": 0.7086614173228346,
                    "duration": 0.2543101583333325
                },
                {
                    "name": "G4",
                    "midi": 67,
                    "time": 11.896543000000005,
                    "velocity": 0.7086614173228346,
                    "duration": 0.2543101583333325
                },
                {
                    "name": "A#4",
                    "midi": 70,
                    "time": 12.155163500000004,
                    "velocity": 0.7086614173228346,
                    "duration": 0.2543101583333325
                },
                {
                    "name": "G4",
                    "midi": 67,
                    "time": 12.155163500000004,
                    "velocity": 0.7086614173228346,
                    "duration": 0.2543101583333325
                },
                {
                    "name": "A4",
                    "midi": 69,
                    "time": 12.413784000000003,
                    "velocity": 0.7086614173228346,
                    "duration": 0.2543101583333325
                },
                {
                    "name": "F#4",
                    "midi": 66,
                    "time": 12.413784000000003,
                    "velocity": 0.7086614173228346,
                    "duration": 0.2543101583333325
                },
                {
                    "name": "A4",
                    "midi": 69,
                    "time": 12.672404500000003,
                    "velocity": 0.7086614173228346,
                    "duration": 0.2543101583333325
                },
                {
                    "name": "F#4",
                    "midi": 66,
                    "time": 12.672404500000003,
                    "velocity": 0.7086614173228346,
                    "duration": 0.2543101583333325
                },
                {
                    "name": "A4",
                    "midi": 69,
                    "time": 12.931025000000002,
                    "velocity": 0.7086614173228346,
                    "duration": 0.2543101583333325
                },
                {
                    "name": "F#4",
                    "midi": 66,
                    "time": 13.189645500000001,
                    "velocity": 0.7086614173228346,
                    "duration": 0.2543101583333325
                },
                {
                    "name": "A4",
                    "midi": 69,
                    "time": 13.448266,
                    "velocity": 0.7086614173228346,
                    "duration": 0.2543101583333325
                },
                {
                    "name": "F#4",
                    "midi": 66,
                    "time": 13.448266,
                    "velocity": 0.7086614173228346,
                    "duration": 0.2543101583333325
                },
                {
                    "name": "A4",
                    "midi": 69,
                    "time": 13.7068865,
                    "velocity": 0.7086614173228346,
                    "duration": 0.2543101583333325
                },
                {
                    "name": "F#4",
                    "midi": 66,
                    "time": 13.7068865,
                    "velocity": 0.7086614173228346,
                    "duration": 0.2543101583333325
                },
                {
                    "name": "G#4",
                    "midi": 68,
                    "time": 13.965506999999999,
                    "velocity": 0.7086614173228346,
                    "duration": 0.2543101583333325
                },
                {
                    "name": "F4",
                    "midi": 65,
                    "time": 13.965506999999999,
                    "velocity": 0.7086614173228346,
                    "duration": 0.2543101583333325
                },
                {
                    "name": "G#4",
                    "midi": 68,
                    "time": 14.224127499999998,
                    "velocity": 0.7086614173228346,
                    "duration": 0.2543101583333325
                },
                {
                    "name": "F4",
                    "midi": 65,
                    "time": 14.224127499999998,
                    "velocity": 0.7086614173228346,
                    "duration": 0.2543101583333325
                },
                {
                    "name": "G#4",
                    "midi": 68,
                    "time": 14.482747999999997,
                    "velocity": 0.7086614173228346,
                    "duration": 0.2543101583333325
                },
                {
                    "name": "F4",
                    "midi": 65,
                    "time": 14.741368499999997,
                    "velocity": 0.7086614173228346,
                    "duration": 0.2543101583333325
                },
                {
                    "name": "G#4",
                    "midi": 68,
                    "time": 14.999988999999996,
                    "velocity": 0.7086614173228346,
                    "duration": 0.2543101583333325
                },
                {
                    "name": "F4",
                    "midi": 65,
                    "time": 14.999988999999996,
                    "velocity": 0.7086614173228346,
                    "duration": 0.2543101583333325
                },
                {
                    "name": "G#4",
                    "midi": 68,
                    "time": 15.258609499999995,
                    "velocity": 0.7086614173228346,
                    "duration": 0.2543101583333325
                },
                {
                    "name": "F4",
                    "midi": 65,
                    "time": 15.258609499999995,
                    "velocity": 0.7086614173228346,
                    "duration": 0.2543101583333325
                },
                {
                    "name": "G4",
                    "midi": 67,
                    "time": 15.517229999999994,
                    "velocity": 0.7086614173228346,
                    "duration": 0.2543101583333325
                },
                {
                    "name": "E4",
                    "midi": 64,
                    "time": 15.517229999999994,
                    "velocity": 0.7086614173228346,
                    "duration": 0.2543101583333325
                },
                {
                    "name": "G4",
                    "midi": 67,
                    "time": 15.775850499999994,
                    "velocity": 0.7086614173228346,
                    "duration": 0.2543101583333325
                },
                {
                    "name": "E4",
                    "midi": 64,
                    "time": 15.775850499999994,
                    "velocity": 0.7086614173228346,
                    "duration": 0.2543101583333325
                },
                {
                    "name": "G4",
                    "midi": 67,
                    "time": 16.034470999999993,
                    "velocity": 0.7086614173228346,
                    "duration": 0.2543101583333325
                },
                {
                    "name": "E4",
                    "midi": 64,
                    "time": 16.293091499999992,
                    "velocity": 0.7086614173228346,
                    "duration": 0.2543101583333325
                },
                {
                    "name": "G4",
                    "midi": 67,
                    "time": 16.55171199999999,
                    "velocity": 0.7086614173228346,
                    "duration": 0.2543101583333325
                },
                {
                    "name": "E4",
                    "midi": 64,
                    "time": 16.55171199999999,
                    "velocity": 0.7086614173228346,
                    "duration": 0.2543101583333325
                },
                {
                    "name": "G4",
                    "midi": 67,
                    "time": 16.81033249999999,
                    "velocity": 0.7086614173228346,
                    "duration": 0.2543101583333325
                },
                {
                    "name": "E4",
                    "midi": 64,
                    "time": 16.81033249999999,
                    "velocity": 0.7086614173228346,
                    "duration": 0.2543101583333325
                },
                {
                    "name": "A4",
                    "midi": 69,
                    "time": 17.06895299999999,
                    "velocity": 0.7874015748031497,
                    "duration": 0.2543101583333325
                },
                {
                    "name": "F#4",
                    "midi": 66,
                    "time": 17.06895299999999,
                    "velocity": 0.7874015748031497,
                    "duration": 0.2543101583333325
                },
                {
                    "name": "A4",
                    "midi": 69,
                    "time": 17.32757349999999,
                    "velocity": 0.7874015748031497,
                    "duration": 0.2543101583333325
                },
                {
                    "name": "F#4",
                    "midi": 66,
                    "time": 17.32757349999999,
                    "velocity": 0.7874015748031497,
                    "duration": 0.2543101583333325
                },
                {
                    "name": "A4",
                    "midi": 69,
                    "time": 17.58619399999999,
                    "velocity": 0.7874015748031497,
                    "duration": 0.2543101583333325
                },
                {
                    "name": "F#4",
                    "midi": 66,
                    "time": 17.844814499999988,
                    "velocity": 0.7874015748031497,
                    "duration": 0.2543101583333325
                },
                {
                    "name": "F#4",
                    "midi": 66,
                    "time": 18.103434999999987,
                    "velocity": 0.7874015748031497,
                    "duration": 0.2543101583333325
                },
                {
                    "name": "F#4",
                    "midi": 66,
                    "time": 18.362055499999986,
                    "velocity": 0.7874015748031497,
                    "duration": 0.2543101583333325
                },
                {
                    "name": "G4",
                    "midi": 67,
                    "time": 18.620675999999985,
                    "velocity": 0.7874015748031497,
                    "duration": 0.5129306583333317
                },
                {
                    "name": "G3",
                    "midi": 55,
                    "time": 19.137916999999984,
                    "velocity": 0.7874015748031497,
                    "duration": 0.2543101583333325
                },
                {
                    "name": "G4",
                    "midi": 67,
                    "time": 19.396537499999983,
                    "velocity": 0.7874015748031497,
                    "duration": 0.2543101583333325
                },
                {
                    "name": "F#4",
                    "midi": 66,
                    "time": 19.655157999999982,
                    "velocity": 0.7874015748031497,
                    "duration": 0.2543101583333325
                },
                {
                    "name": "D4",
                    "midi": 62,
                    "time": 19.91377849999998,
                    "velocity": 0.7874015748031497,
                    "duration": 0.2543101583333325
                },
                {
                    "name": "G4",
                    "midi": 67,
                    "time": 20.17239899999998,
                    "velocity": 0.7874015748031497,
                    "duration": 0.5129306583333317
                },
                {
                    "name": "G3",
                    "midi": 55,
                    "time": 20.68963999999998,
                    "velocity": 0.7874015748031497,
                    "duration": 0.2543101583333325
                },
                {
                    "name": "G4",
                    "midi": 67,
                    "time": 20.94826049999998,
                    "velocity": 0.7874015748031497,
                    "duration": 0.2543101583333325
                },
                {
                    "name": "F#4",
                    "midi": 66,
                    "time": 21.206880999999978,
                    "velocity": 0.7874015748031497,
                    "duration": 0.2543101583333325
                },
                {
                    "name": "D4",
                    "midi": 62,
                    "time": 21.465501499999977,
                    "velocity": 0.7874015748031497,
                    "duration": 0.2543101583333325
                },
                {
                    "name": "G4",
                    "midi": 67,
                    "time": 21.724121999999976,
                    "velocity": 0.7874015748031497,
                    "duration": 0.5129306583333317
                },
                {
                    "name": "G3",
                    "midi": 55,
                    "time": 22.241362999999975,
                    "velocity": 0.7874015748031497,
                    "duration": 0.2543101583333325
                },
                {
                    "name": "A#4",
                    "midi": 70,
                    "time": 22.499983499999974,
                    "velocity": 0.7874015748031497,
                    "duration": 0.2543101583333325
                },
                {
                    "name": "A4",
                    "midi": 69,
                    "time": 22.758603999999973,
                    "velocity": 0.7874015748031497,
                    "duration": 0.2543101583333325
                },
                {
                    "name": "G4",
                    "midi": 67,
                    "time": 23.017224499999973,
                    "velocity": 0.7874015748031497,
                    "duration": 0.2543101583333325
                },
                {
                    "name": "D4",
                    "midi": 62,
                    "time": 23.275844999999972,
                    "velocity": 0.7874015748031497,
                    "duration": 0.3836204083333321
                },
                {
                    "name": "A3",
                    "midi": 57,
                    "time": 23.66377574999997,
                    "velocity": 0.7874015748031497,
                    "duration": 0.12499990833333285
                },
                {
                    "name": "F#3",
                    "midi": 54,
                    "time": 23.79308599999997,
                    "velocity": 0.7874015748031497,
                    "duration": 0.12499990833333285
                },
                {
                    "name": "D3",
                    "midi": 50,
                    "time": 23.92239624999997,
                    "velocity": 0.7874015748031497,
                    "duration": 0.12499990833333285
                },
                {
                    "name": "A2",
                    "midi": 45,
                    "time": 24.05170649999997,
                    "velocity": 0.7874015748031497,
                    "duration": 0.12499990833333285
                },
                {
                    "name": "D2",
                    "midi": 38,
                    "time": 24.18101674999997,
                    "velocity": 0.7874015748031497,
                    "duration": 0.12499990833333285
                },
                {
                    "name": "D4",
                    "midi": 62,
                    "time": 28.18963449999997,
                    "velocity": 0.7874015748031497,
                    "duration": 0.10775854166666576
                },
                {
                    "name": "A#3",
                    "midi": 58,
                    "time": 28.18963449999997,
                    "velocity": 0.7874015748031497,
                    "duration": 0.10775854166666576
                },
                {
                    "name": "D4",
                    "midi": 62,
                    "time": 28.448254999999968,
                    "velocity": 0.7874015748031497,
                    "duration": 0.10775854166666576
                },
                {
                    "name": "A#3",
                    "midi": 58,
                    "time": 28.448254999999968,
                    "velocity": 0.7874015748031497,
                    "duration": 0.10775854166666576
                },
                {
                    "name": "D4",
                    "midi": 62,
                    "time": 28.706875499999967,
                    "velocity": 0.7874015748031497,
                    "duration": 0.10775854166666576
                },
                {
                    "name": "A#3",
                    "midi": 58,
                    "time": 28.706875499999967,
                    "velocity": 0.7874015748031497,
                    "duration": 0.10775854166666576
                },
                {
                    "name": "D4",
                    "midi": 62,
                    "time": 28.965495999999966,
                    "velocity": 0.7874015748031497,
                    "duration": 0.10775854166666576
                },
                {
                    "name": "A#3",
                    "midi": 58,
                    "time": 28.965495999999966,
                    "velocity": 0.7874015748031497,
                    "duration": 0.10775854166666576
                },
                {
                    "name": "D4",
                    "midi": 62,
                    "time": 29.224116499999965,
                    "velocity": 0.7874015748031497,
                    "duration": 0.10775854166666576
                },
                {
                    "name": "A#3",
                    "midi": 58,
                    "time": 29.224116499999965,
                    "velocity": 0.7874015748031497,
                    "duration": 0.10775854166666576
                },
                {
                    "name": "D#4",
                    "midi": 63,
                    "time": 29.482736999999965,
                    "velocity": 0.7874015748031497,
                    "duration": 0.10775854166666576
                },
                {
                    "name": "A#3",
                    "midi": 58,
                    "time": 29.482736999999965,
                    "velocity": 0.7874015748031497,
                    "duration": 0.10775854166666576
                },
                {
                    "name": "D#4",
                    "midi": 63,
                    "time": 29.741357499999964,
                    "velocity": 0.7874015748031497,
                    "duration": 0.10775854166666576
                },
                {
                    "name": "A#3",
                    "midi": 58,
                    "time": 29.741357499999964,
                    "velocity": 0.7874015748031497,
                    "duration": 0.10775854166666576
                },
                {
                    "name": "D#4",
                    "midi": 63,
                    "time": 29.999977999999963,
                    "velocity": 0.7874015748031497,
                    "duration": 0.10775854166666576
                },
                {
                    "name": "A#3",
                    "midi": 58,
                    "time": 29.999977999999963,
                    "velocity": 0.7874015748031497,
                    "duration": 0.10775854166666576
                },
                {
                    "name": "D#4",
                    "midi": 63,
                    "time": 30.258598499999962,
                    "velocity": 0.7874015748031497,
                    "duration": 0.10775854166666576
                },
                {
                    "name": "A#3",
                    "midi": 58,
                    "time": 30.258598499999962,
                    "velocity": 0.7874015748031497,
                    "duration": 0.10775854166666576
                },
                {
                    "name": "D#4",
                    "midi": 63,
                    "time": 30.51721899999996,
                    "velocity": 0.7874015748031497,
                    "duration": 0.10775854166666576
                },
                {
                    "name": "A#3",
                    "midi": 58,
                    "time": 30.51721899999996,
                    "velocity": 0.7874015748031497,
                    "duration": 0.10775854166666576
                },
                {
                    "name": "D#4",
                    "midi": 63,
                    "time": 30.77583949999996,
                    "velocity": 0.7874015748031497,
                    "duration": 0.10775854166666576
                },
                {
                    "name": "A#3",
                    "midi": 58,
                    "time": 30.77583949999996,
                    "velocity": 0.7874015748031497,
                    "duration": 0.10775854166666576
                },
                {
                    "name": "D4",
                    "midi": 62,
                    "time": 31.03445999999996,
                    "velocity": 0.7874015748031497,
                    "duration": 0.10775854166666576
                },
                {
                    "name": "A#3",
                    "midi": 58,
                    "time": 31.03445999999996,
                    "velocity": 0.7874015748031497,
                    "duration": 0.10775854166666576
                },
                {
                    "name": "D4",
                    "midi": 62,
                    "time": 31.29308049999996,
                    "velocity": 0.7874015748031497,
                    "duration": 0.10775854166666576
                },
                {
                    "name": "A#3",
                    "midi": 58,
                    "time": 31.29308049999996,
                    "velocity": 0.7874015748031497,
                    "duration": 0.10775854166666576
                },
                {
                    "name": "D4",
                    "midi": 62,
                    "time": 31.55170099999996,
                    "velocity": 0.7874015748031497,
                    "duration": 0.10775854166666576
                },
                {
                    "name": "A#3",
                    "midi": 58,
                    "time": 31.55170099999996,
                    "velocity": 0.7874015748031497,
                    "duration": 0.10775854166666576
                },
                {
                    "name": "D4",
                    "midi": 62,
                    "time": 31.810321499999958,
                    "velocity": 0.7874015748031497,
                    "duration": 0.10775854166666576
                },
                {
                    "name": "A#3",
                    "midi": 58,
                    "time": 31.810321499999958,
                    "velocity": 0.7874015748031497,
                    "duration": 0.10775854166666576
                },
                {
                    "name": "D4",
                    "midi": 62,
                    "time": 32.06894199999996,
                    "velocity": 0.7874015748031497,
                    "duration": 0.10775854166666932
                },
                {
                    "name": "A#3",
                    "midi": 58,
                    "time": 32.06894199999996,
                    "velocity": 0.7874015748031497,
                    "duration": 0.10775854166666932
                },
                {
                    "name": "D4",
                    "midi": 62,
                    "time": 32.32756249999996,
                    "velocity": 0.7874015748031497,
                    "duration": 0.10775854166666932
                },
                {
                    "name": "A#3",
                    "midi": 58,
                    "time": 32.32756249999996,
                    "velocity": 0.7874015748031497,
                    "duration": 0.10775854166666932
                },
                {
                    "name": "D#4",
                    "midi": 63,
                    "time": 32.586182999999956,
                    "velocity": 0.7874015748031497,
                    "duration": 0.10775854166666932
                },
                {
                    "name": "A#3",
                    "midi": 58,
                    "time": 32.586182999999956,
                    "velocity": 0.7874015748031497,
                    "duration": 0.10775854166666932
                },
                {
                    "name": "D#4",
                    "midi": 63,
                    "time": 32.844803499999955,
                    "velocity": 0.7874015748031497,
                    "duration": 0.10775854166666932
                },
                {
                    "name": "A#3",
                    "midi": 58,
                    "time": 32.844803499999955,
                    "velocity": 0.7874015748031497,
                    "duration": 0.10775854166666932
                },
                {
                    "name": "D#4",
                    "midi": 63,
                    "time": 33.103423999999954,
                    "velocity": 0.7874015748031497,
                    "duration": 0.10775854166666932
                },
                {
                    "name": "A#3",
                    "midi": 58,
                    "time": 33.103423999999954,
                    "velocity": 0.7874015748031497,
                    "duration": 0.10775854166666932
                },
                {
                    "name": "D#4",
                    "midi": 63,
                    "time": 33.36204449999995,
                    "velocity": 0.7874015748031497,
                    "duration": 0.10775854166666932
                },
                {
                    "name": "A#3",
                    "midi": 58,
                    "time": 33.36204449999995,
                    "velocity": 0.7874015748031497,
                    "duration": 0.10775854166666932
                },
                {
                    "name": "D#4",
                    "midi": 63,
                    "time": 33.62066499999995,
                    "velocity": 0.7874015748031497,
                    "duration": 0.10775854166666932
                },
                {
                    "name": "A#3",
                    "midi": 58,
                    "time": 33.62066499999995,
                    "velocity": 0.7874015748031497,
                    "duration": 0.10775854166666932
                },
                {
                    "name": "D#4",
                    "midi": 63,
                    "time": 33.87928549999995,
                    "velocity": 0.7874015748031497,
                    "duration": 0.10775854166666932
                },
                {
                    "name": "A#3",
                    "midi": 58,
                    "time": 33.87928549999995,
                    "velocity": 0.7874015748031497,
                    "duration": 0.10775854166666932
                },
                {
                    "name": "D4",
                    "midi": 62,
                    "time": 34.13790599999995,
                    "velocity": 0.7874015748031497,
                    "duration": 0.10775854166666932
                },
                {
                    "name": "A#3",
                    "midi": 58,
                    "time": 34.13790599999995,
                    "velocity": 0.7874015748031497,
                    "duration": 0.10775854166666932
                },
                {
                    "name": "D4",
                    "midi": 62,
                    "time": 34.39652649999995,
                    "velocity": 0.7874015748031497,
                    "duration": 0.10775854166666932
                },
                {
                    "name": "A#3",
                    "midi": 58,
                    "time": 34.39652649999995,
                    "velocity": 0.7874015748031497,
                    "duration": 0.10775854166666932
                },
                {
                    "name": "D4",
                    "midi": 62,
                    "time": 34.65514699999995,
                    "velocity": 0.7874015748031497,
                    "duration": 0.10775854166666932
                },
                {
                    "name": "A#3",
                    "midi": 58,
                    "time": 34.65514699999995,
                    "velocity": 0.7874015748031497,
                    "duration": 0.10775854166666932
                },
                {
                    "name": "D4",
                    "midi": 62,
                    "time": 34.91376749999995,
                    "velocity": 0.7874015748031497,
                    "duration": 0.10775854166666932
                },
                {
                    "name": "A#3",
                    "midi": 58,
                    "time": 34.91376749999995,
                    "velocity": 0.7874015748031497,
                    "duration": 0.10775854166666932
                },
                {
                    "name": "D4",
                    "midi": 62,
                    "time": 35.17238799999995,
                    "velocity": 0.7874015748031497,
                    "duration": 0.10775854166666932
                },
                {
                    "name": "A#3",
                    "midi": 58,
                    "time": 35.17238799999995,
                    "velocity": 0.7874015748031497,
                    "duration": 0.10775854166666932
                },
                {
                    "name": "D4",
                    "midi": 62,
                    "time": 35.43100849999995,
                    "velocity": 0.7874015748031497,
                    "duration": 0.10775854166666932
                },
                {
                    "name": "A#3",
                    "midi": 58,
                    "time": 35.43100849999995,
                    "velocity": 0.7874015748031497,
                    "duration": 0.10775854166666932
                },
                {
                    "name": "C4",
                    "midi": 60,
                    "time": 35.68962899999995,
                    "velocity": 0.7874015748031497,
                    "duration": 0.10775854166666932
                },
                {
                    "name": "A#3",
                    "midi": 58,
                    "time": 35.68962899999995,
                    "velocity": 0.7874015748031497,
                    "duration": 0.10775854166666932
                },
                {
                    "name": "C4",
                    "midi": 60,
                    "time": 35.948249499999946,
                    "velocity": 0.7874015748031497,
                    "duration": 0.10775854166666932
                },
                {
                    "name": "A#3",
                    "midi": 58,
                    "time": 35.948249499999946,
                    "velocity": 0.7874015748031497,
                    "duration": 0.10775854166666932
                },
                {
                    "name": "C4",
                    "midi": 60,
                    "time": 36.206869999999945,
                    "velocity": 0.7874015748031497,
                    "duration": 0.10775854166666932
                },
                {
                    "name": "A3",
                    "midi": 57,
                    "time": 36.206869999999945,
                    "velocity": 0.7874015748031497,
                    "duration": 0.10775854166666932
                },
                {
                    "name": "C4",
                    "midi": 60,
                    "time": 36.465490499999945,
                    "velocity": 0.7874015748031497,
                    "duration": 0.10775854166666932
                },
                {
                    "name": "A3",
                    "midi": 57,
                    "time": 36.465490499999945,
                    "velocity": 0.7874015748031497,
                    "duration": 0.10775854166666932
                },
                {
                    "name": "C4",
                    "midi": 60,
                    "time": 36.724110999999944,
                    "velocity": 0.7874015748031497,
                    "duration": 0.10775854166666932
                },
                {
                    "name": "A3",
                    "midi": 57,
                    "time": 36.724110999999944,
                    "velocity": 0.7874015748031497,
                    "duration": 0.10775854166666932
                },
                {
                    "name": "C4",
                    "midi": 60,
                    "time": 36.98273149999994,
                    "velocity": 0.7874015748031497,
                    "duration": 0.10775854166666932
                },
                {
                    "name": "A3",
                    "midi": 57,
                    "time": 36.98273149999994,
                    "velocity": 0.7874015748031497,
                    "duration": 0.10775854166666932
                },
                {
                    "name": "A#3",
                    "midi": 58,
                    "time": 37.24135199999994,
                    "velocity": 0.7874015748031497,
                    "duration": 1.0301716583333302
                },
                {
                    "name": "A#2",
                    "midi": 46,
                    "time": 37.75859299999994,
                    "velocity": 0.7874015748031497,
                    "duration": 0.5129306583333317
                },
                {
                    "name": "A#3",
                    "midi": 58,
                    "time": 38.79307499999994,
                    "velocity": 0.7874015748031497,
                    "duration": 0.10775854166666932
                },
                {
                    "name": "D#3",
                    "midi": 51,
                    "time": 38.79307499999994,
                    "velocity": 0.7874015748031497,
                    "duration": 0.10775854166666932
                },
                {
                    "name": "A#3",
                    "midi": 58,
                    "time": 39.05169549999994,
                    "velocity": 0.7874015748031497,
                    "duration": 0.10775854166666932
                },
                {
                    "name": "D#3",
                    "midi": 51,
                    "time": 39.05169549999994,
                    "velocity": 0.7874015748031497,
                    "duration": 0.10775854166666932
                },
                {
                    "name": "A#3",
                    "midi": 58,
                    "time": 39.310315999999936,
                    "velocity": 0.7874015748031497,
                    "duration": 0.10775854166666932
                },
                {
                    "name": "D#3",
                    "midi": 51,
                    "time": 39.310315999999936,
                    "velocity": 0.7874015748031497,
                    "duration": 0.10775854166666932
                },
                {
                    "name": "A#3",
                    "midi": 58,
                    "time": 39.568936499999936,
                    "velocity": 0.7874015748031497,
                    "duration": 0.10775854166666932
                },
                {
                    "name": "D#3",
                    "midi": 51,
                    "time": 39.568936499999936,
                    "velocity": 0.7874015748031497,
                    "duration": 0.10775854166666932
                },
                {
                    "name": "A#3",
                    "midi": 58,
                    "time": 39.827556999999935,
                    "velocity": 0.7874015748031497,
                    "duration": 0.10775854166666932
                },
                {
                    "name": "D#3",
                    "midi": 51,
                    "time": 39.827556999999935,
                    "velocity": 0.7874015748031497,
                    "duration": 0.10775854166666932
                },
                {
                    "name": "C4",
                    "midi": 60,
                    "time": 40.086177499999934,
                    "velocity": 0.7874015748031497,
                    "duration": 0.10775854166666932
                },
                {
                    "name": "D#3",
                    "midi": 51,
                    "time": 40.086177499999934,
                    "velocity": 0.7874015748031497,
                    "duration": 0.10775854166666932
                },
                {
                    "name": "D4",
                    "midi": 62,
                    "time": 40.34479799999993,
                    "velocity": 0.7874015748031497,
                    "duration": 0.06465512500000159
                },
                {
                    "name": "D3",
                    "midi": 50,
                    "time": 40.34479799999993,
                    "velocity": 0.7874015748031497,
                    "duration": 0.06465512500000159
                },
                {
                    "name": "F4",
                    "midi": 65,
                    "time": 40.86203899999993,
                    "velocity": 0.7874015748031497,
                    "duration": 0.06465512500000159
                },
                {
                    "name": "D4",
                    "midi": 62,
                    "time": 40.86203899999993,
                    "velocity": 0.7874015748031497,
                    "duration": 0.06465512500000159
                },
                {
                    "name": "D4",
                    "midi": 62,
                    "time": 41.37927999999993,
                    "velocity": 0.7874015748031497,
                    "duration": 0.06465512500000159
                },
                {
                    "name": "A#3",
                    "midi": 58,
                    "time": 41.37927999999993,
                    "velocity": 0.7874015748031497,
                    "duration": 0.06465512500000159
                },
                {
                    "name": "A#3",
                    "midi": 58,
                    "time": 41.89652099999993,
                    "velocity": 0.7086614173228346,
                    "duration": 0.10775854166666932
                },
                {
                    "name": "D#3",
                    "midi": 51,
                    "time": 41.89652099999993,
                    "velocity": 0.7086614173228346,
                    "duration": 0.10775854166666932
                },
                {
                    "name": "A#3",
                    "midi": 58,
                    "time": 42.15514149999993,
                    "velocity": 0.7086614173228346,
                    "duration": 0.10775854166666932
                },
                {
                    "name": "D#3",
                    "midi": 51,
                    "time": 42.15514149999993,
                    "velocity": 0.7086614173228346,
                    "duration": 0.10775854166666932
                },
                {
                    "name": "A#3",
                    "midi": 58,
                    "time": 42.41376199999993,
                    "velocity": 0.7086614173228346,
                    "duration": 0.10775854166666932
                },
                {
                    "name": "D#3",
                    "midi": 51,
                    "time": 42.41376199999993,
                    "velocity": 0.7086614173228346,
                    "duration": 0.10775854166666932
                },
                {
                    "name": "A#3",
                    "midi": 58,
                    "time": 42.67238249999993,
                    "velocity": 0.7086614173228346,
                    "duration": 0.10775854166666932
                },
                {
                    "name": "D#3",
                    "midi": 51,
                    "time": 42.67238249999993,
                    "velocity": 0.7086614173228346,
                    "duration": 0.10775854166666932
                },
                {
                    "name": "A#3",
                    "midi": 58,
                    "time": 42.931002999999926,
                    "velocity": 0.7086614173228346,
                    "duration": 0.10775854166666932
                },
                {
                    "name": "D#3",
                    "midi": 51,
                    "time": 42.931002999999926,
                    "velocity": 0.7086614173228346,
                    "duration": 0.10775854166666932
                },
                {
                    "name": "C4",
                    "midi": 60,
                    "time": 43.189623499999925,
                    "velocity": 0.7086614173228346,
                    "duration": 0.10775854166666932
                },
                {
                    "name": "D#3",
                    "midi": 51,
                    "time": 43.189623499999925,
                    "velocity": 0.7086614173228346,
                    "duration": 0.10775854166666932
                },
                {
                    "name": "D4",
                    "midi": 62,
                    "time": 43.448243999999924,
                    "velocity": 0.7086614173228346,
                    "duration": 0.06465512500000159
                },
                {
                    "name": "D3",
                    "midi": 50,
                    "time": 43.448243999999924,
                    "velocity": 0.7086614173228346,
                    "duration": 0.06465512500000159
                },
                {
                    "name": "F4",
                    "midi": 65,
                    "time": 43.96548499999992,
                    "velocity": 0.7086614173228346,
                    "duration": 0.06465512500000159
                },
                {
                    "name": "D4",
                    "midi": 62,
                    "time": 43.96548499999992,
                    "velocity": 0.7086614173228346,
                    "duration": 0.06465512500000159
                },
                {
                    "name": "D4",
                    "midi": 62,
                    "time": 44.48272599999992,
                    "velocity": 0.7086614173228346,
                    "duration": 0.06465512500000159
                },
                {
                    "name": "A#3",
                    "midi": 58,
                    "time": 44.48272599999992,
                    "velocity": 0.7086614173228346,
                    "duration": 0.06465512500000159
                },
                {
                    "name": "A#3",
                    "midi": 58,
                    "time": 44.99996699999992,
                    "velocity": 0.7874015748031497,
                    "duration": 0.10775854166666932
                },
                {
                    "name": "D#3",
                    "midi": 51,
                    "time": 44.99996699999992,
                    "velocity": 0.7874015748031497,
                    "duration": 0.10775854166666932
                },
                {
                    "name": "D#3",
                    "midi": 51,
                    "time": 45.25858749999992,
                    "velocity": 0.7874015748031497,
                    "duration": 0.10775854166666932
                },
                {
                    "name": "A#3",
                    "midi": 58,
                    "time": 45.51720799999992,
                    "velocity": 0.7874015748031497,
                    "duration": 0.10775854166666932
                },
                {
                    "name": "D#3",
                    "midi": 51,
                    "time": 45.51720799999992,
                    "velocity": 0.7874015748031497,
                    "duration": 0.10775854166666932
                },
                {
                    "name": "A#3",
                    "midi": 58,
                    "time": 45.77582849999992,
                    "velocity": 0.7874015748031497,
                    "duration": 0.10775854166666932
                },
                {
                    "name": "D#3",
                    "midi": 51,
                    "time": 45.77582849999992,
                    "velocity": 0.7874015748031497,
                    "duration": 0.10775854166666932
                },
                {
                    "name": "A#3",
                    "midi": 58,
                    "time": 46.03444899999992,
                    "velocity": 0.7874015748031497,
                    "duration": 0.10775854166666932
                },
                {
                    "name": "D#3",
                    "midi": 51,
                    "time": 46.03444899999992,
                    "velocity": 0.7874015748031497,
                    "duration": 0.10775854166666932
                },
                {
                    "name": "C4",
                    "midi": 60,
                    "time": 46.293069499999916,
                    "velocity": 0.7874015748031497,
                    "duration": 0.10775854166666932
                },
                {
                    "name": "A#3",
                    "midi": 58,
                    "time": 46.293069499999916,
                    "velocity": 0.7874015748031497,
                    "duration": 0.10775854166666932
                },
                {
                    "name": "D4",
                    "midi": 62,
                    "time": 46.551689999999915,
                    "velocity": 0.7874015748031497,
                    "duration": 0.5129306583333317
                },
                {
                    "name": "D3",
                    "midi": 50,
                    "time": 46.551689999999915,
                    "velocity": 0.7874015748031497,
                    "duration": 0.771551158333331
                },
                {
                    "name": "C3",
                    "midi": 48,
                    "time": 47.32755149999991,
                    "velocity": 0.7874015748031497,
                    "duration": 0.10775854166666932
                },
                {
                    "name": "D3",
                    "midi": 50,
                    "time": 47.58617199999991,
                    "velocity": 0.7874015748031497,
                    "duration": 0.10775854166666932
                },
                {
                    "name": "A#2",
                    "midi": 46,
                    "time": 47.84479249999991,
                    "velocity": 0.7874015748031497,
                    "duration": 0.10775854166666932
                },
                {
                    "name": "D#3",
                    "midi": 51,
                    "time": 48.10341299999991,
                    "velocity": 0.7874015748031497,
                    "duration": 0.10775854166666932
                },
                {
                    "name": "C3",
                    "midi": 48,
                    "time": 48.36203349999991,
                    "velocity": 0.7874015748031497,
                    "duration": 0.10775854166666932
                },
                {
                    "name": "F3",
                    "midi": 53,
                    "time": 48.62065399999991,
                    "velocity": 0.7874015748031497,
                    "duration": 1.0301716583333302
                },
                {
                    "name": "F2",
                    "midi": 41,
                    "time": 49.13789499999991,
                    "velocity": 0.7874015748031497,
                    "duration": 0.5129306583333317
                },
                {
                    "name": "A#2",
                    "midi": 46,
                    "time": 49.65513599999991,
                    "velocity": 0.7874015748031497,
                    "duration": 1.0301716583333302
                },
                {
                    "name": "A#1",
                    "midi": 34,
                    "time": 49.65513599999991,
                    "velocity": 0.7874015748031497,
                    "duration": 1.0301716583333302
                },
                {
                    "name": "F3",
                    "midi": 53,
                    "time": 53.017202499999904,
                    "velocity": 0.7874015748031497,
                    "duration": 0.10775854166666932
                },
                {
                    "name": "D3",
                    "midi": 50,
                    "time": 53.017202499999904,
                    "velocity": 0.7874015748031497,
                    "duration": 0.10775854166666932
                },
                {
                    "name": "A#2",
                    "midi": 46,
                    "time": 53.017202499999904,
                    "velocity": 0.7874015748031497,
                    "duration": 0.10775854166666932
                },
                {
                    "name": "F3",
                    "midi": 53,
                    "time": 53.2758229999999,
                    "velocity": 0.7874015748031497,
                    "duration": 0.10775854166666932
                },
                {
                    "name": "D3",
                    "midi": 50,
                    "time": 53.2758229999999,
                    "velocity": 0.7874015748031497,
                    "duration": 0.10775854166666932
                },
                {
                    "name": "A#2",
                    "midi": 46,
                    "time": 53.2758229999999,
                    "velocity": 0.7874015748031497,
                    "duration": 0.10775854166666932
                },
                {
                    "name": "F3",
                    "midi": 53,
                    "time": 53.5344434999999,
                    "velocity": 0.7874015748031497,
                    "duration": 0.10775854166666932
                },
                {
                    "name": "D3",
                    "midi": 50,
                    "time": 53.5344434999999,
                    "velocity": 0.7874015748031497,
                    "duration": 0.10775854166666932
                },
                {
                    "name": "A#2",
                    "midi": 46,
                    "time": 53.5344434999999,
                    "velocity": 0.7874015748031497,
                    "duration": 0.10775854166666932
                },
                {
                    "name": "F3",
                    "midi": 53,
                    "time": 53.7930639999999,
                    "velocity": 0.7874015748031497,
                    "duration": 0.10775854166666932
                },
                {
                    "name": "D3",
                    "midi": 50,
                    "time": 53.7930639999999,
                    "velocity": 0.7874015748031497,
                    "duration": 0.10775854166666932
                },
                {
                    "name": "A#2",
                    "midi": 46,
                    "time": 53.7930639999999,
                    "velocity": 0.7874015748031497,
                    "duration": 0.10775854166666932
                },
                {
                    "name": "F3",
                    "midi": 53,
                    "time": 54.0516844999999,
                    "velocity": 0.7874015748031497,
                    "duration": 0.10775854166666932
                },
                {
                    "name": "D3",
                    "midi": 50,
                    "time": 54.0516844999999,
                    "velocity": 0.7874015748031497,
                    "duration": 0.10775854166666932
                },
                {
                    "name": "A#2",
                    "midi": 46,
                    "time": 54.0516844999999,
                    "velocity": 0.7874015748031497,
                    "duration": 0.10775854166666932
                },
                {
                    "name": "G3",
                    "midi": 55,
                    "time": 54.3103049999999,
                    "velocity": 0.7874015748031497,
                    "duration": 0.10775854166666932
                },
                {
                    "name": "D3",
                    "midi": 50,
                    "time": 54.3103049999999,
                    "velocity": 0.7874015748031497,
                    "duration": 0.10775854166666932
                },
                {
                    "name": "B2",
                    "midi": 47,
                    "time": 54.3103049999999,
                    "velocity": 0.7874015748031497,
                    "duration": 0.10775854166666932
                },
                {
                    "name": "G3",
                    "midi": 55,
                    "time": 54.5689254999999,
                    "velocity": 0.7874015748031497,
                    "duration": 0.10775854166666932
                },
                {
                    "name": "D3",
                    "midi": 50,
                    "time": 54.5689254999999,
                    "velocity": 0.7874015748031497,
                    "duration": 0.10775854166666932
                },
                {
                    "name": "B2",
                    "midi": 47,
                    "time": 54.5689254999999,
                    "velocity": 0.7874015748031497,
                    "duration": 0.10775854166666932
                },
                {
                    "name": "G3",
                    "midi": 55,
                    "time": 54.8275459999999,
                    "velocity": 0.7874015748031497,
                    "duration": 0.10775854166666932
                },
                {
                    "name": "D3",
                    "midi": 50,
                    "time": 54.8275459999999,
                    "velocity": 0.7874015748031497,
                    "duration": 0.10775854166666932
                },
                {
                    "name": "B2",
                    "midi": 47,
                    "time": 54.8275459999999,
                    "velocity": 0.7874015748031497,
                    "duration": 0.10775854166666932
                },
                {
                    "name": "G3",
                    "midi": 55,
                    "time": 55.0861664999999,
                    "velocity": 0.7874015748031497,
                    "duration": 0.10775854166666932
                },
                {
                    "name": "D3",
                    "midi": 50,
                    "time": 55.0861664999999,
                    "velocity": 0.7874015748031497,
                    "duration": 0.10775854166666932
                },
                {
                    "name": "B2",
                    "midi": 47,
                    "time": 55.0861664999999,
                    "velocity": 0.7874015748031497,
                    "duration": 0.10775854166666932
                },
                {
                    "name": "G3",
                    "midi": 55,
                    "time": 55.3447869999999,
                    "velocity": 0.7874015748031497,
                    "duration": 0.10775854166666932
                },
                {
                    "name": "D3",
                    "midi": 50,
                    "time": 55.3447869999999,
                    "velocity": 0.7874015748031497,
                    "duration": 0.10775854166666932
                },
                {
                    "name": "G2",
                    "midi": 43,
                    "time": 55.3447869999999,
                    "velocity": 0.7874015748031497,
                    "duration": 0.10775854166666932
                },
                {
                    "name": "G3",
                    "midi": 55,
                    "time": 55.603407499999896,
                    "velocity": 0.7874015748031497,
                    "duration": 0.10775854166666932
                },
                {
                    "name": "D3",
                    "midi": 50,
                    "time": 55.603407499999896,
                    "velocity": 0.7874015748031497,
                    "duration": 0.10775854166666932
                },
                {
                    "name": "G2",
                    "midi": 43,
                    "time": 55.603407499999896,
                    "velocity": 0.7874015748031497,
                    "duration": 0.10775854166666932
                },
                {
                    "name": "G3",
                    "midi": 55,
                    "time": 55.862027999999896,
                    "velocity": 0.7874015748031497,
                    "duration": 0.10775854166666932
                },
                {
                    "name": "D#3",
                    "midi": 51,
                    "time": 55.862027999999896,
                    "velocity": 0.7874015748031497,
                    "duration": 0.10775854166666932
                },
                {
                    "name": "C3",
                    "midi": 48,
                    "time": 55.862027999999896,
                    "velocity": 0.7874015748031497,
                    "duration": 0.10775854166666932
                },
                {
                    "name": "C3",
                    "midi": 48,
                    "time": 56.120648499999895,
                    "velocity": 0.7874015748031497,
                    "duration": 0.10775854166666932
                },
                {
                    "name": "C3",
                    "midi": 48,
                    "time": 56.379268999999894,
                    "velocity": 0.7874015748031497,
                    "duration": 0.10775854166666932
                },
                {
                    "name": "C3",
                    "midi": 48,
                    "time": 56.63788949999989,
                    "velocity": 0.7874015748031497,
                    "duration": 0.10775854166666932
                },
                {
                    "name": "C3",
                    "midi": 48,
                    "time": 56.89650999999989,
                    "velocity": 0.7874015748031497,
                    "duration": 0.10775854166666932
                },
                {
                    "name": "C3",
                    "midi": 48,
                    "time": 57.15513049999989,
                    "velocity": 0.7874015748031497,
                    "duration": 0.10775854166666932
                },
                {
                    "name": "C3",
                    "midi": 48,
                    "time": 57.41375099999989,
                    "velocity": 0.7874015748031497,
                    "duration": 0.06465512500000159
                },
                {
                    "name": "D#3",
                    "midi": 51,
                    "time": 57.47840612499989,
                    "velocity": 0.7874015748031497,
                    "duration": 0.06465512500000159
                },
                {
                    "name": "G3",
                    "midi": 55,
                    "time": 57.543061249999894,
                    "velocity": 0.7874015748031497,
                    "duration": 0.06465512500000159
                },
                {
                    "name": "C4",
                    "midi": 60,
                    "time": 57.607716374999896,
                    "velocity": 0.7874015748031497,
                    "duration": 0.06465512500000159
                },
                {
                    "name": "G3",
                    "midi": 55,
                    "time": 60.775817499999896,
                    "velocity": 0.7086614173228346,
                    "duration": 0.10775854166666932
                },
                {
                    "name": "D#3",
                    "midi": 51,
                    "time": 60.775817499999896,
                    "velocity": 0.7086614173228346,
                    "duration": 0.10775854166666932
                },
                {
                    "name": "C3",
                    "midi": 48,
                    "time": 60.775817499999896,
                    "velocity": 0.7086614173228346,
                    "duration": 0.10775854166666932
                },
                {
                    "name": "G3",
                    "midi": 55,
                    "time": 61.034437999999895,
                    "velocity": 0.7086614173228346,
                    "duration": 0.10775854166666932
                },
                {
                    "name": "D#3",
                    "midi": 51,
                    "time": 61.034437999999895,
                    "velocity": 0.7086614173228346,
                    "duration": 0.10775854166666932
                },
                {
                    "name": "C3",
                    "midi": 48,
                    "time": 61.034437999999895,
                    "velocity": 0.7086614173228346,
                    "duration": 0.10775854166666932
                },
                {
                    "name": "G3",
                    "midi": 55,
                    "time": 61.293058499999894,
                    "velocity": 0.7086614173228346,
                    "duration": 0.10775854166666932
                },
                {
                    "name": "D#3",
                    "midi": 51,
                    "time": 61.293058499999894,
                    "velocity": 0.7086614173228346,
                    "duration": 0.10775854166666932
                },
                {
                    "name": "C3",
                    "midi": 48,
                    "time": 61.293058499999894,
                    "velocity": 0.7086614173228346,
                    "duration": 0.10775854166666932
                },
                {
                    "name": "G3",
                    "midi": 55,
                    "time": 61.55167899999989,
                    "velocity": 0.7086614173228346,
                    "duration": 0.10775854166666932
                },
                {
                    "name": "D#3",
                    "midi": 51,
                    "time": 61.55167899999989,
                    "velocity": 0.7086614173228346,
                    "duration": 0.10775854166666932
                },
                {
                    "name": "C3",
                    "midi": 48,
                    "time": 61.55167899999989,
                    "velocity": 0.7086614173228346,
                    "duration": 0.10775854166666932
                },
                {
                    "name": "G3",
                    "midi": 55,
                    "time": 61.81029949999989,
                    "velocity": 0.7086614173228346,
                    "duration": 0.10775854166666932
                },
                {
                    "name": "D#3",
                    "midi": 51,
                    "time": 61.81029949999989,
                    "velocity": 0.7086614173228346,
                    "duration": 0.10775854166666932
                },
                {
                    "name": "C3",
                    "midi": 48,
                    "time": 61.81029949999989,
                    "velocity": 0.7086614173228346,
                    "duration": 0.10775854166666932
                },
                {
                    "name": "A3",
                    "midi": 57,
                    "time": 62.06891999999989,
                    "velocity": 0.7086614173228346,
                    "duration": 0.10775854166666932
                },
                {
                    "name": "E3",
                    "midi": 52,
                    "time": 62.06891999999989,
                    "velocity": 0.7086614173228346,
                    "duration": 0.10775854166666932
                },
                {
                    "name": "C#3",
                    "midi": 49,
                    "time": 62.06891999999989,
                    "velocity": 0.7086614173228346,
                    "duration": 0.10775854166666932
                },
                {
                    "name": "A3",
                    "midi": 57,
                    "time": 62.32754049999989,
                    "velocity": 0.7086614173228346,
                    "duration": 0.10775854166666932
                },
                {
                    "name": "E3",
                    "midi": 52,
                    "time": 62.32754049999989,
                    "velocity": 0.7086614173228346,
                    "duration": 0.10775854166666932
                },
                {
                    "name": "C#3",
                    "midi": 49,
                    "time": 62.32754049999989,
                    "velocity": 0.7086614173228346,
                    "duration": 0.10775854166666932
                },
                {
                    "name": "A3",
                    "midi": 57,
                    "time": 62.58616099999989,
                    "velocity": 0.7086614173228346,
                    "duration": 0.10775854166666932
                },
                {
                    "name": "E3",
                    "midi": 52,
                    "time": 62.58616099999989,
                    "velocity": 0.7086614173228346,
                    "duration": 0.10775854166666932
                },
                {
                    "name": "C#3",
                    "midi": 49,
                    "time": 62.58616099999989,
                    "velocity": 0.7086614173228346,
                    "duration": 0.10775854166666932
                },
                {
                    "name": "A3",
                    "midi": 57,
                    "time": 62.84478149999989,
                    "velocity": 0.7086614173228346,
                    "duration": 0.10775854166666932
                },
                {
                    "name": "E3",
                    "midi": 52,
                    "time": 62.84478149999989,
                    "velocity": 0.7086614173228346,
                    "duration": 0.10775854166666932
                },
                {
                    "name": "C#3",
                    "midi": 49,
                    "time": 62.84478149999989,
                    "velocity": 0.7086614173228346,
                    "duration": 0.10775854166666932
                },
                {
                    "name": "A3",
                    "midi": 57,
                    "time": 63.10340199999989,
                    "velocity": 0.7086614173228346,
                    "duration": 0.10775854166666932
                },
                {
                    "name": "E3",
                    "midi": 52,
                    "time": 63.10340199999989,
                    "velocity": 0.7086614173228346,
                    "duration": 0.10775854166666932
                },
                {
                    "name": "C#3",
                    "midi": 49,
                    "time": 63.10340199999989,
                    "velocity": 0.7086614173228346,
                    "duration": 0.10775854166666932
                },
                {
                    "name": "A3",
                    "midi": 57,
                    "time": 63.36202249999989,
                    "velocity": 0.7086614173228346,
                    "duration": 0.10775854166666932
                },
                {
                    "name": "E3",
                    "midi": 52,
                    "time": 63.36202249999989,
                    "velocity": 0.7086614173228346,
                    "duration": 0.10775854166666932
                },
                {
                    "name": "C#3",
                    "midi": 49,
                    "time": 63.36202249999989,
                    "velocity": 0.7086614173228346,
                    "duration": 0.10775854166666932
                },
                {
                    "name": "A3",
                    "midi": 57,
                    "time": 63.62064299999989,
                    "velocity": 0.7086614173228346,
                    "duration": 0.10775854166666932
                },
                {
                    "name": "F#3",
                    "midi": 54,
                    "time": 63.62064299999989,
                    "velocity": 0.7086614173228346,
                    "duration": 0.10775854166666932
                },
                {
                    "name": "D3",
                    "midi": 50,
                    "time": 63.62064299999989,
                    "velocity": 0.7086614173228346,
                    "duration": 0.10775854166666932
                },
                {
                    "name": "D3",
                    "midi": 50,
                    "time": 63.87926349999989,
                    "velocity": 0.7086614173228346,
                    "duration": 0.10775854166666932
                },
                {
                    "name": "D3",
                    "midi": 50,
                    "time": 64.13788399999989,
                    "velocity": 0.7086614173228346,
                    "duration": 0.10775854166666932
                },
                {
                    "name": "D3",
                    "midi": 50,
                    "time": 64.39650449999989,
                    "velocity": 0.7086614173228346,
                    "duration": 0.10775854166666932
                },
                {
                    "name": "D3",
                    "midi": 50,
                    "time": 64.6551249999999,
                    "velocity": 0.7086614173228346,
                    "duration": 0.10775854166666932
                },
                {
                    "name": "D3",
                    "midi": 50,
                    "time": 64.9137454999999,
                    "velocity": 0.7086614173228346,
                    "duration": 0.10775854166666932
                },
                {
                    "name": "D3",
                    "midi": 50,
                    "time": 65.17236599999991,
                    "velocity": 0.7086614173228346,
                    "duration": 0.06465512500000159
                },
                {
                    "name": "F#3",
                    "midi": 54,
                    "time": 65.23702112499991,
                    "velocity": 0.7086614173228346,
                    "duration": 0.06465512500000159
                },
                {
                    "name": "A3",
                    "midi": 57,
                    "time": 65.30167624999991,
                    "velocity": 0.7086614173228346,
                    "duration": 0.06465512500000159
                },
                {
                    "name": "D4",
                    "midi": 62,
                    "time": 65.36633137499992,
                    "velocity": 0.7086614173228346,
                    "duration": 0.06465512500000159
                },
                {
                    "name": "D4",
                    "midi": 62,
                    "time": 66.46546849999991,
                    "velocity": 0.7874015748031497,
                    "duration": 0.10775854166666932
                },
                {
                    "name": "G4",
                    "midi": 67,
                    "time": 66.72408899999992,
                    "velocity": 0.7874015748031497,
                    "duration": 0.12499990833333641
                },
                {
                    "name": "F#4",
                    "midi": 66,
                    "time": 66.85339924999992,
                    "velocity": 0.7874015748031497,
                    "duration": 0.12499990833333641
                },
                {
                    "name": "G4",
                    "midi": 67,
                    "time": 66.98270949999993,
                    "velocity": 0.7874015748031497,
                    "duration": 0.04310341666666773
                },
                {
                    "name": "F#4",
                    "midi": 66,
                    "time": 67.0258129166666,
                    "velocity": 0.7874015748031497,
                    "duration": 0.04310341666666773
                },
                {
                    "name": "G4",
                    "midi": 67,
                    "time": 67.06891633333326,
                    "velocity": 0.7874015748031497,
                    "duration": 0.04310341666666773
                },
                {
                    "name": "A4",
                    "midi": 69,
                    "time": 67.11201974999993,
                    "velocity": 0.7874015748031497,
                    "duration": 0.12499990833333641
                },
                {
                    "name": "A#4",
                    "midi": 70,
                    "time": 67.24132999999993,
                    "velocity": 0.7874015748031497,
                    "duration": 0.10775854166666932
                },
                {
                    "name": "A#4",
                    "midi": 70,
                    "time": 67.49995049999994,
                    "velocity": 0.7874015748031497,
                    "duration": 0.10775854166666932
                },
                {
                    "name": "A#4",
                    "midi": 70,
                    "time": 67.75857099999995,
                    "velocity": 0.7874015748031497,
                    "duration": 0.10775854166666932
                },
                {
                    "name": "A4",
                    "midi": 69,
                    "time": 68.01719149999995,
                    "velocity": 0.7874015748031497,
                    "duration": 0.12499990833333641
                },
                {
                    "name": "G4",
                    "midi": 67,
                    "time": 68.14650174999996,
                    "velocity": 0.7874015748031497,
                    "duration": 0.12499990833333641
                },
                {
                    "name": "F#4",
                    "midi": 66,
                    "time": 68.27581199999996,
                    "velocity": 0.7874015748031497,
                    "duration": 0.12499990833333641
                },
                {
                    "name": "D4",
                    "midi": 62,
                    "time": 68.40512224999996,
                    "velocity": 0.7874015748031497,
                    "duration": 0.12499990833333641
                },
                {
                    "name": "F#4",
                    "midi": 66,
                    "time": 68.53443249999997,
                    "velocity": 0.7874015748031497,
                    "duration": 0.12499990833333641
                },
                {
                    "name": "G4",
                    "midi": 67,
                    "time": 68.66374274999997,
                    "velocity": 0.7874015748031497,
                    "duration": 0.12499990833333641
                },
                {
                    "name": "A4",
                    "midi": 69,
                    "time": 68.79305299999997,
                    "velocity": 0.7874015748031497,
                    "duration": 0.10775854166666932
                },
                {
                    "name": "A4",
                    "midi": 69,
                    "time": 69.05167349999998,
                    "velocity": 0.7874015748031497,
                    "duration": 0.10775854166666932
                },
                {
                    "name": "A4",
                    "midi": 69,
                    "time": 69.31029399999998,
                    "velocity": 0.7874015748031497,
                    "duration": 0.10775854166666932
                },
                {
                    "name": "G4",
                    "midi": 67,
                    "time": 69.56891449999999,
                    "velocity": 0.7874015748031497,
                    "duration": 0.04310341666666773
                },
                {
                    "name": "A4",
                    "midi": 69,
                    "time": 69.61201791666666,
                    "velocity": 0.7874015748031497,
                    "duration": 0.04310341666666773
                },
                {
                    "name": "G4",
                    "midi": 67,
                    "time": 69.65512133333333,
                    "velocity": 0.7874015748031497,
                    "duration": 0.04310341666666773
                },
                {
                    "name": "F#4",
                    "midi": 66,
                    "time": 69.69822475,
                    "velocity": 0.7874015748031497,
                    "duration": 0.12499990833333641
                },
                {
                    "name": "G4",
                    "midi": 67,
                    "time": 69.827535,
                    "velocity": 0.7874015748031497,
                    "duration": 0.12499990833333641
                },
                {
                    "name": "F#4",
                    "midi": 66,
                    "time": 69.95684525,
                    "velocity": 0.7874015748031497,
                    "duration": 0.12499990833333641
                },
                {
                    "name": "G4",
                    "midi": 67,
                    "time": 70.0861555,
                    "velocity": 0.7874015748031497,
                    "duration": 0.04310341666666773
                },
                {
                    "name": "F#4",
                    "midi": 66,
                    "time": 70.12925891666667,
                    "velocity": 0.7874015748031497,
                    "duration": 0.04310341666666773
                },
                {
                    "name": "G4",
                    "midi": 67,
                    "time": 70.17236233333334,
                    "velocity": 0.7874015748031497,
                    "duration": 0.04310341666666773
                },
                {
                    "name": "A4",
                    "midi": 69,
                    "time": 70.21546575,
                    "velocity": 0.7874015748031497,
                    "duration": 0.12499990833333641
                },
                {
                    "name": "A#4",
                    "midi": 70,
                    "time": 70.34477600000001,
                    "velocity": 0.7874015748031497,
                    "duration": 0.10775854166666932
                },
                {
                    "name": "A#4",
                    "midi": 70,
                    "time": 70.60339650000002,
                    "velocity": 0.7874015748031497,
                    "duration": 0.10775854166666932
                },
                {
                    "name": "A#4",
                    "midi": 70,
                    "time": 70.86201700000002,
                    "velocity": 0.7874015748031497,
                    "duration": 0.10775854166666932
                },
                {
                    "name": "A4",
                    "midi": 69,
                    "time": 71.12063750000003,
                    "velocity": 0.7874015748031497,
                    "duration": 0.04310341666666773
                },
                {
                    "name": "A#4",
                    "midi": 70,
                    "time": 71.1637409166667,
                    "velocity": 0.7874015748031497,
                    "duration": 0.04310341666666773
                },
                {
                    "name": "A4",
                    "midi": 69,
                    "time": 71.20684433333336,
                    "velocity": 0.7874015748031497,
                    "duration": 0.04310341666666773
                },
                {
                    "name": "G4",
                    "midi": 67,
                    "time": 71.24994775000003,
                    "velocity": 0.7874015748031497,
                    "duration": 0.12499990833333641
                },
                {
                    "name": "F#4",
                    "midi": 66,
                    "time": 71.37925800000004,
                    "velocity": 0.7874015748031497,
                    "duration": 1.1594819083333334
                },
                {
                    "name": "D4",
                    "midi": 62,
                    "time": 71.37925800000004,
                    "velocity": 0.7874015748031497,
                    "duration": 1.1594819083333334
                },
                {
                    "name": "G4",
                    "midi": 67,
                    "time": 72.93098100000003,
                    "velocity": 0.7086614173228346,
                    "duration": 0.10775854166666932
                },
                {
                    "name": "G4",
                    "midi": 67,
                    "time": 73.18960150000004,
                    "velocity": 0.7086614173228346,
                    "duration": 0.10775854166666932
                },
                {
                    "name": "G4",
                    "midi": 67,
                    "time": 73.44822200000004,
                    "velocity": 0.7086614173228346,
                    "duration": 0.10775854166666932
                },
                {
                    "name": "G4",
                    "midi": 67,
                    "time": 73.70684250000005,
                    "velocity": 0.7086614173228346,
                    "duration": 0.10775854166666932
                },
                {
                    "name": "D4",
                    "midi": 62,
                    "time": 73.96546300000006,
                    "velocity": 0.7086614173228346,
                    "duration": 0.2543101583333396
                },
                {
                    "name": "F4",
                    "midi": 65,
                    "time": 74.22408350000006,
                    "velocity": 0.7086614173228346,
                    "duration": 0.2543101583333396
                },
                {
                    "name": "D#4",
                    "midi": 63,
                    "time": 74.48270400000007,
                    "velocity": 0.7086614173228346,
                    "duration": 0.2543101583333396
                },
                {
                    "name": "G4",
                    "midi": 67,
                    "time": 74.74132450000008,
                    "velocity": 0.7086614173228346,
                    "duration": 0.2543101583333396
                },
                {
                    "name": "D#4",
                    "midi": 63,
                    "time": 74.99994500000008,
                    "velocity": 0.7086614173228346,
                    "duration": 0.2543101583333396
                },
                {
                    "name": "G4",
                    "midi": 67,
                    "time": 75.25856550000009,
                    "velocity": 0.7086614173228346,
                    "duration": 0.2543101583333396
                },
                {
                    "name": "E4",
                    "midi": 64,
                    "time": 75.5171860000001,
                    "velocity": 0.7086614173228346,
                    "duration": 0.2543101583333396
                },
                {
                    "name": "G4",
                    "midi": 67,
                    "time": 75.7758065000001,
                    "velocity": 0.7086614173228346,
                    "duration": 0.2543101583333396
                },
                {
                    "name": "F4",
                    "midi": 65,
                    "time": 76.03442700000011,
                    "velocity": 0.7086614173228346,
                    "duration": 0.2543101583333396
                },
                {
                    "name": "A4",
                    "midi": 69,
                    "time": 76.29304750000011,
                    "velocity": 0.7086614173228346,
                    "duration": 0.2543101583333396
                },
                {
                    "name": "F4",
                    "midi": 65,
                    "time": 76.55166800000012,
                    "velocity": 0.7086614173228346,
                    "duration": 0.2543101583333396
                },
                {
                    "name": "D4",
                    "midi": 62,
                    "time": 76.81028850000013,
                    "velocity": 0.7086614173228346,
                    "duration": 0.2543101583333396
                },
                {
                    "name": "C#4",
                    "midi": 61,
                    "time": 77.06890900000013,
                    "velocity": 0.7086614173228346,
                    "duration": 0.2543101583333396
                },
                {
                    "name": "A3",
                    "midi": 57,
                    "time": 77.32752950000014,
                    "velocity": 0.7086614173228346,
                    "duration": 0.2543101583333396
                },
                {
                    "name": "D4",
                    "midi": 62,
                    "time": 77.58615000000015,
                    "velocity": 0.7086614173228346,
                    "duration": 0.2543101583333396
                },
                {
                    "name": "D5",
                    "midi": 74,
                    "time": 77.84477050000015,
                    "velocity": 0.7086614173228346,
                    "duration": 0.2543101583333396
                },
                {
                    "name": "G4",
                    "midi": 67,
                    "time": 78.10339100000016,
                    "velocity": 0.7086614173228346,
                    "duration": 0.2543101583333396
                },
                {
                    "name": "A4",
                    "midi": 69,
                    "time": 78.36201150000016,
                    "velocity": 0.7086614173228346,
                    "duration": 0.2543101583333396
                },
                {
                    "name": "A#4",
                    "midi": 70,
                    "time": 78.62063200000017,
                    "velocity": 0.7086614173228346,
                    "duration": 0.2543101583333396
                },
                {
                    "name": "G4",
                    "midi": 67,
                    "time": 78.87925250000018,
                    "velocity": 0.7086614173228346,
                    "duration": 0.2543101583333396
                },
                {
                    "name": "A4",
                    "midi": 69,
                    "time": 79.13787300000018,
                    "velocity": 0.7086614173228346,
                    "duration": 0.2543101583333396
                },
                {
                    "name": "A3",
                    "midi": 57,
                    "time": 79.39649350000019,
                    "velocity": 0.7086614173228346,
                    "duration": 0.10775854166666932
                },
                {
                    "name": "A3",
                    "midi": 57,
                    "time": 79.6551140000002,
                    "velocity": 0.7086614173228346,
                    "duration": 0.10775854166666932
                },
                {
                    "name": "A3",
                    "midi": 57,
                    "time": 79.9137345000002,
                    "velocity": 0.7086614173228346,
                    "duration": 0.10775854166666932
                },
                {
                    "name": "A3",
                    "midi": 57,
                    "time": 80.17235500000021,
                    "velocity": 0.7086614173228346,
                    "duration": 0.10775854166666932
                },
                {
                    "name": "A3",
                    "midi": 57,
                    "time": 80.43097550000022,
                    "velocity": 0.7086614173228346,
                    "duration": 0.10775854166666932
                },
                {
                    "name": "A3",
                    "midi": 57,
                    "time": 80.68959600000022,
                    "velocity": 0.7086614173228346,
                    "duration": 0.06465512500000159
                },
                {
                    "name": "C#3",
                    "midi": 49,
                    "time": 80.75425112500022,
                    "velocity": 0.7086614173228346,
                    "duration": 0.06465512500000159
                },
                {
                    "name": "E3",
                    "midi": 52,
                    "time": 80.81890625000023,
                    "velocity": 0.7086614173228346,
                    "duration": 0.06465512500000159
                },
                {
                    "name": "A3",
                    "midi": 57,
                    "time": 80.88356137500023,
                    "velocity": 0.7086614173228346,
                    "duration": 0.06465512500000159
                },
                {
                    "name": "A2",
                    "midi": 45,
                    "time": 82.49993950000024,
                    "velocity": 0.7874015748031497,
                    "duration": 0.10775854166666932
                },
                {
                    "name": "A2",
                    "midi": 45,
                    "time": 82.75856000000024,
                    "velocity": 0.7874015748031497,
                    "duration": 0.10775854166666932
                },
                {
                    "name": "A2",
                    "midi": 45,
                    "time": 83.01718050000025,
                    "velocity": 0.7874015748031497,
                    "duration": 0.10775854166666932
                },
                {
                    "name": "A2",
                    "midi": 45,
                    "time": 83.27580100000026,
                    "velocity": 0.7874015748031497,
                    "duration": 0.10775854166666932
                },
                {
                    "name": "A2",
                    "midi": 45,
                    "time": 83.53442150000026,
                    "velocity": 0.7874015748031497,
                    "duration": 0.10775854166666932
                },
                {
                    "name": "A2",
                    "midi": 45,
                    "time": 83.79304200000027,
                    "velocity": 0.7874015748031497,
                    "duration": 0.05172410000000127
                },
                {
                    "name": "C#3",
                    "midi": 49,
                    "time": 83.84476610000027,
                    "velocity": 0.7874015748031497,
                    "duration": 0.05172410000000127
                },
                {
                    "name": "E3",
                    "midi": 52,
                    "time": 83.89649020000027,
                    "velocity": 0.7874015748031497,
                    "duration": 0.05172410000000127
                },
                {
                    "name": "A3",
                    "midi": 57,
                    "time": 83.94821430000027,
                    "velocity": 0.7874015748031497,
                    "duration": 0.05172410000000127
                },
                {
                    "name": "C#4",
                    "midi": 61,
                    "time": 83.99993840000027,
                    "velocity": 0.7874015748031497,
                    "duration": 0.05172410000000127
                },
                {
                    "name": "A2",
                    "midi": 45,
                    "time": 85.60338550000027,
                    "velocity": 0.7874015748031497,
                    "duration": 0.10775854166666932
                },
                {
                    "name": "A2",
                    "midi": 45,
                    "time": 85.86200600000028,
                    "velocity": 0.7874015748031497,
                    "duration": 0.10775854166666932
                },
                {
                    "name": "A2",
                    "midi": 45,
                    "time": 86.12062650000028,
                    "velocity": 0.7874015748031497,
                    "duration": 0.10775854166666932
                },
                {
                    "name": "A2",
                    "midi": 45,
                    "time": 86.37924700000029,
                    "velocity": 0.7874015748031497,
                    "duration": 0.10775854166666932
                },
                {
                    "name": "A2",
                    "midi": 45,
                    "time": 86.6378675000003,
                    "velocity": 0.7874015748031497,
                    "duration": 0.10775854166666932
                },
                {
                    "name": "A2",
                    "midi": 45,
                    "time": 86.8964880000003,
                    "velocity": 0.7874015748031497,
                    "duration": 0.07327580833333514
                },
                {
                    "name": "C#3",
                    "midi": 49,
                    "time": 86.96976380833364,
                    "velocity": 0.7874015748031497,
                    "duration": 0.07327580833333514
                },
                {
                    "name": "E3",
                    "midi": 52,
                    "time": 87.04303961666697,
                    "velocity": 0.7874015748031497,
                    "duration": 0.07327580833333514
                },
                {
                    "name": "A3",
                    "midi": 57,
                    "time": 87.11631542500031,
                    "velocity": 0.7874015748031497,
                    "duration": 0.07327580833333514
                },
                {
                    "name": "C#4",
                    "midi": 61,
                    "time": 87.18959123333364,
                    "velocity": 0.7874015748031497,
                    "duration": 0.07327580833333514
                },
                {
                    "name": "E4",
                    "midi": 64,
                    "time": 87.26286704166698,
                    "velocity": 0.7874015748031497,
                    "duration": 0.07327580833333514
                },
                {
                    "name": "G4",
                    "midi": 67,
                    "time": 87.33614285000031,
                    "velocity": 0.7874015748031497,
                    "duration": 0.84913730833334
                },
                {
                    "name": "C4",
                    "midi": 60,
                    "time": 88.18959050000032,
                    "velocity": 0.7874015748031497,
                    "duration": 0.2543101583333396
                },
                {
                    "name": "D4",
                    "midi": 62,
                    "time": 88.44821100000033,
                    "velocity": 0.7874015748031497,
                    "duration": 0.2543101583333396
                },
                {
                    "name": "C4",
                    "midi": 60,
                    "time": 88.70683150000033,
                    "velocity": 0.7874015748031497,
                    "duration": 0.2543101583333396
                },
                {
                    "name": "A#3",
                    "midi": 58,
                    "time": 88.96545200000034,
                    "velocity": 0.7874015748031497,
                    "duration": 0.2543101583333396
                },
                {
                    "name": "A3",
                    "midi": 57,
                    "time": 89.22407250000035,
                    "velocity": 0.7874015748031497,
                    "duration": 0.2543101583333396
                },
                {
                    "name": "G3",
                    "midi": 55,
                    "time": 89.48269300000035,
                    "velocity": 0.7874015748031497,
                    "duration": 0.2543101583333396
                },
                {
                    "name": "A3",
                    "midi": 57,
                    "time": 89.74131350000036,
                    "velocity": 0.7874015748031497,
                    "duration": 0.2543101583333396
                },
                {
                    "name": "D3",
                    "midi": 50,
                    "time": 89.99993400000037,
                    "velocity": 0.7874015748031497,
                    "duration": 1.1594819083333334
                },
                {
                    "name": "A2",
                    "midi": 45,
                    "time": 91.16372625000037,
                    "velocity": 0.7874015748031497,
                    "duration": 0.12499990833333641
                },
                {
                    "name": "F#2",
                    "midi": 42,
                    "time": 91.29303650000037,
                    "velocity": 0.7874015748031497,
                    "duration": 0.12499990833333641
                },
                {
                    "name": "D2",
                    "midi": 38,
                    "time": 91.42234675000037,
                    "velocity": 0.7874015748031497,
                    "duration": 0.12499990833333641
                },
                {
                    "name": "A3",
                    "midi": 57,
                    "time": 94.91372350000037,
                    "velocity": 0.7874015748031497,
                    "duration": 0.10775854166666932
                },
                {
                    "name": "F3",
                    "midi": 53,
                    "time": 94.91372350000037,
                    "velocity": 0.7874015748031497,
                    "duration": 0.10775854166666932
                },
                {
                    "name": "D3",
                    "midi": 50,
                    "time": 94.91372350000037,
                    "velocity": 0.7874015748031497,
                    "duration": 0.10775854166666932
                },
                {
                    "name": "A3",
                    "midi": 57,
                    "time": 95.17234400000038,
                    "velocity": 0.7874015748031497,
                    "duration": 0.10775854166666932
                },
                {
                    "name": "F3",
                    "midi": 53,
                    "time": 95.17234400000038,
                    "velocity": 0.7874015748031497,
                    "duration": 0.10775854166666932
                },
                {
                    "name": "D3",
                    "midi": 50,
                    "time": 95.17234400000038,
                    "velocity": 0.7874015748031497,
                    "duration": 0.10775854166666932
                },
                {
                    "name": "A3",
                    "midi": 57,
                    "time": 95.43096450000039,
                    "velocity": 0.7874015748031497,
                    "duration": 0.10775854166666932
                },
                {
                    "name": "F3",
                    "midi": 53,
                    "time": 95.43096450000039,
                    "velocity": 0.7874015748031497,
                    "duration": 0.10775854166666932
                },
                {
                    "name": "D3",
                    "midi": 50,
                    "time": 95.43096450000039,
                    "velocity": 0.7874015748031497,
                    "duration": 0.10775854166666932
                },
                {
                    "name": "A3",
                    "midi": 57,
                    "time": 95.68958500000039,
                    "velocity": 0.7874015748031497,
                    "duration": 0.10775854166666932
                },
                {
                    "name": "F3",
                    "midi": 53,
                    "time": 95.68958500000039,
                    "velocity": 0.7874015748031497,
                    "duration": 0.10775854166666932
                },
                {
                    "name": "D3",
                    "midi": 50,
                    "time": 95.68958500000039,
                    "velocity": 0.7874015748031497,
                    "duration": 0.10775854166666932
                },
                {
                    "name": "A3",
                    "midi": 57,
                    "time": 95.9482055000004,
                    "velocity": 0.7874015748031497,
                    "duration": 0.10775854166666932
                },
                {
                    "name": "F3",
                    "midi": 53,
                    "time": 95.9482055000004,
                    "velocity": 0.7874015748031497,
                    "duration": 0.10775854166666932
                },
                {
                    "name": "D3",
                    "midi": 50,
                    "time": 95.9482055000004,
                    "velocity": 0.7874015748031497,
                    "duration": 0.10775854166666932
                },
                {
                    "name": "A3",
                    "midi": 57,
                    "time": 96.2068260000004,
                    "velocity": 0.7874015748031497,
                    "duration": 0.10775854166666932
                },
                {
                    "name": "F3",
                    "midi": 53,
                    "time": 96.2068260000004,
                    "velocity": 0.7874015748031497,
                    "duration": 0.10775854166666932
                },
                {
                    "name": "D3",
                    "midi": 50,
                    "time": 96.2068260000004,
                    "velocity": 0.7874015748031497,
                    "duration": 0.10775854166666932
                },
                {
                    "name": "A3",
                    "midi": 57,
                    "time": 96.46544650000041,
                    "velocity": 0.7874015748031497,
                    "duration": 0.10775854166666932
                },
                {
                    "name": "F3",
                    "midi": 53,
                    "time": 96.46544650000041,
                    "velocity": 0.7874015748031497,
                    "duration": 0.10775854166666932
                },
                {
                    "name": "A3",
                    "midi": 57,
                    "time": 96.46544650000041,
                    "velocity": 0.7874015748031497,
                    "duration": 0.10775854166666932
                },
                {
                    "name": "F3",
                    "midi": 53,
                    "time": 96.46544650000041,
                    "velocity": 0.7874015748031497,
                    "duration": 0.10775854166666932
                },
                {
                    "name": "D3",
                    "midi": 50,
                    "time": 96.46544650000041,
                    "velocity": 0.7874015748031497,
                    "duration": 0.10775854166666932
                },
                {
                    "name": "A3",
                    "midi": 57,
                    "time": 96.72406700000042,
                    "velocity": 0.7874015748031497,
                    "duration": 0.10775854166666932
                },
                {
                    "name": "F3",
                    "midi": 53,
                    "time": 96.72406700000042,
                    "velocity": 0.7874015748031497,
                    "duration": 0.10775854166666932
                },
                {
                    "name": "D3",
                    "midi": 50,
                    "time": 96.72406700000042,
                    "velocity": 0.7874015748031497,
                    "duration": 0.10775854166666932
                },
                {
                    "name": "A3",
                    "midi": 57,
                    "time": 96.98268750000042,
                    "velocity": 0.7874015748031497,
                    "duration": 0.10775854166666932
                },
                {
                    "name": "F3",
                    "midi": 53,
                    "time": 96.98268750000042,
                    "velocity": 0.7874015748031497,
                    "duration": 0.10775854166666932
                },
                {
                    "name": "D3",
                    "midi": 50,
                    "time": 96.98268750000042,
                    "velocity": 0.7874015748031497,
                    "duration": 0.10775854166666932
                },
                {
                    "name": "A3",
                    "midi": 57,
                    "time": 97.24130800000043,
                    "velocity": 0.7874015748031497,
                    "duration": 0.10775854166666932
                },
                {
                    "name": "F3",
                    "midi": 53,
                    "time": 97.24130800000043,
                    "velocity": 0.7874015748031497,
                    "duration": 0.10775854166666932
                },
                {
                    "name": "D3",
                    "midi": 50,
                    "time": 97.24130800000043,
                    "velocity": 0.7874015748031497,
                    "duration": 0.10775854166666932
                },
                {
                    "name": "A3",
                    "midi": 57,
                    "time": 97.49992850000044,
                    "velocity": 0.7874015748031497,
                    "duration": 0.10775854166666932
                },
                {
                    "name": "F3",
                    "midi": 53,
                    "time": 97.49992850000044,
                    "velocity": 0.7874015748031497,
                    "duration": 0.10775854166666932
                },
                {
                    "name": "D3",
                    "midi": 50,
                    "time": 97.49992850000044,
                    "velocity": 0.7874015748031497,
                    "duration": 0.10775854166666932
                },
                {
                    "name": "D3",
                    "midi": 50,
                    "time": 97.75854900000044,
                    "velocity": 0.7874015748031497,
                    "duration": 0.08620683333333545
                },
                {
                    "name": "D3",
                    "midi": 50,
                    "time": 97.84475583333378,
                    "velocity": 0.7874015748031497,
                    "duration": 0.08620683333333545
                },
                {
                    "name": "D3",
                    "midi": 50,
                    "time": 97.93096266666711,
                    "velocity": 0.7874015748031497,
                    "duration": 0.08620683333333545
                },
                {
                    "name": "D3",
                    "midi": 50,
                    "time": 98.01716950000045,
                    "velocity": 0.7874015748031497,
                    "duration": 1.0301716583333302
                },
                {
                    "name": "D4",
                    "midi": 62,
                    "time": 99.05165150000045,
                    "velocity": 0.7874015748031497,
                    "duration": 0.10775854166666932
                },
                {
                    "name": "G4",
                    "midi": 67,
                    "time": 99.31027200000045,
                    "velocity": 0.7874015748031497,
                    "duration": 0.2543101583333396
                },
                {
                    "name": "A4",
                    "midi": 69,
                    "time": 99.56889250000046,
                    "velocity": 0.7874015748031497,
                    "duration": 0.2543101583333396
                },
                {
                    "name": "A#4",
                    "midi": 70,
                    "time": 99.82751300000047,
                    "velocity": 0.7874015748031497,
                    "duration": 0.7715511583333381
                },
                {
                    "name": "G4",
                    "midi": 67,
                    "time": 100.60337450000047,
                    "velocity": 0.7874015748031497,
                    "duration": 0.10775854166666932
                },
                {
                    "name": "A4",
                    "midi": 69,
                    "time": 100.86199500000048,
                    "velocity": 0.7874015748031497,
                    "duration": 0.10775854166666932
                },
                {
                    "name": "E4",
                    "midi": 64,
                    "time": 101.12061550000048,
                    "velocity": 0.7874015748031497,
                    "duration": 0.10775854166666932
                },
                {
                    "name": "C#4",
                    "midi": 61,
                    "time": 101.37923600000049,
                    "velocity": 0.7874015748031497,
                    "duration": 0.7715511583333381
                },
                {
                    "name": "A3",
                    "midi": 57,
                    "time": 102.1550975000005,
                    "velocity": 0.7874015748031497,
                    "duration": 0.2543101583333396
                },
                {
                    "name": "D4",
                    "midi": 62,
                    "time": 102.4137180000005,
                    "velocity": 0.7874015748031497,
                    "duration": 0.2543101583333396
                },
                {
                    "name": "C#4",
                    "midi": 61,
                    "time": 102.6723385000005,
                    "velocity": 0.7874015748031497,
                    "duration": 0.2543101583333396
                },
                {
                    "name": "D4",
                    "midi": 62,
                    "time": 102.93095900000051,
                    "velocity": 0.7874015748031497,
                    "duration": 0.2543101583333396
                },
                {
                    "name": "C#4",
                    "midi": 61,
                    "time": 103.18957950000052,
                    "velocity": 0.7874015748031497,
                    "duration": 0.2543101583333396
                },
                {
                    "name": "D4",
                    "midi": 62,
                    "time": 103.44820000000053,
                    "velocity": 0.7874015748031497,
                    "duration": 0.2543101583333396
                },
                {
                    "name": "A#3",
                    "midi": 58,
                    "time": 103.70682050000053,
                    "velocity": 0.7874015748031497,
                    "duration": 0.2543101583333396
                },
                {
                    "name": "A3",
                    "midi": 57,
                    "time": 103.96544100000054,
                    "velocity": 0.7874015748031497,
                    "duration": 0.10775854166666932
                },
                {
                    "name": "E3",
                    "midi": 52,
                    "time": 104.22406150000054,
                    "velocity": 0.7874015748031497,
                    "duration": 0.10775854166666932
                },
                {
                    "name": "C#3",
                    "midi": 49,
                    "time": 104.48268200000055,
                    "velocity": 0.7874015748031497,
                    "duration": 0.10775854166666932
                },
                {
                    "name": "A2",
                    "midi": 45,
                    "time": 104.74130250000056,
                    "velocity": 0.7874015748031497,
                    "duration": 0.10775854166666932
                },
                {
                    "name": "A1",
                    "midi": 33,
                    "time": 104.99992300000056,
                    "velocity": 0.7874015748031497,
                    "duration": 0.10775854166666932
                },
                {
                    "name": "C5",
                    "midi": 72,
                    "time": 105.51716400000056,
                    "velocity": 0.7086614173228346,
                    "duration": 0.2543101583333396
                },
                {
                    "name": "A4",
                    "midi": 69,
                    "time": 105.51716400000056,
                    "velocity": 0.7086614173228346,
                    "duration": 0.2543101583333396
                },
                {
                    "name": "C5",
                    "midi": 72,
                    "time": 105.77578450000057,
                    "velocity": 0.7086614173228346,
                    "duration": 0.2543101583333396
                },
                {
                    "name": "A4",
                    "midi": 69,
                    "time": 105.77578450000057,
                    "velocity": 0.7086614173228346,
                    "duration": 0.2543101583333396
                },
                {
                    "name": "C5",
                    "midi": 72,
                    "time": 106.03440500000058,
                    "velocity": 0.7086614173228346,
                    "duration": 0.2543101583333396
                },
                {
                    "name": "A4",
                    "midi": 69,
                    "time": 106.03440500000058,
                    "velocity": 0.7086614173228346,
                    "duration": 0.2543101583333396
                },
                {
                    "name": "C5",
                    "midi": 72,
                    "time": 106.29302550000058,
                    "velocity": 0.7086614173228346,
                    "duration": 0.2543101583333396
                },
                {
                    "name": "A4",
                    "midi": 69,
                    "time": 106.29302550000058,
                    "velocity": 0.7086614173228346,
                    "duration": 0.2543101583333396
                },
                {
                    "name": "C5",
                    "midi": 72,
                    "time": 106.55164600000059,
                    "velocity": 0.7086614173228346,
                    "duration": 0.2543101583333396
                },
                {
                    "name": "A4",
                    "midi": 69,
                    "time": 106.55164600000059,
                    "velocity": 0.7086614173228346,
                    "duration": 0.2543101583333396
                },
                {
                    "name": "C5",
                    "midi": 72,
                    "time": 106.8102665000006,
                    "velocity": 0.7086614173228346,
                    "duration": 0.2543101583333396
                },
                {
                    "name": "A4",
                    "midi": 69,
                    "time": 106.8102665000006,
                    "velocity": 0.7086614173228346,
                    "duration": 0.2543101583333396
                },
                {
                    "name": "D5",
                    "midi": 74,
                    "time": 107.0688870000006,
                    "velocity": 0.7086614173228346,
                    "duration": 0.2543101583333396
                },
                {
                    "name": "A#4",
                    "midi": 70,
                    "time": 107.0688870000006,
                    "velocity": 0.7086614173228346,
                    "duration": 0.2543101583333396
                },
                {
                    "name": "D5",
                    "midi": 74,
                    "time": 107.3275075000006,
                    "velocity": 0.7086614173228346,
                    "duration": 0.2543101583333396
                },
                {
                    "name": "A#4",
                    "midi": 70,
                    "time": 107.3275075000006,
                    "velocity": 0.7086614173228346,
                    "duration": 0.2543101583333396
                },
                {
                    "name": "D5",
                    "midi": 74,
                    "time": 107.58612800000061,
                    "velocity": 0.7086614173228346,
                    "duration": 0.2543101583333396
                },
                {
                    "name": "A#4",
                    "midi": 70,
                    "time": 107.58612800000061,
                    "velocity": 0.7086614173228346,
                    "duration": 0.2543101583333396
                },
                {
                    "name": "D5",
                    "midi": 74,
                    "time": 107.84474850000062,
                    "velocity": 0.7086614173228346,
                    "duration": 0.2543101583333396
                },
                {
                    "name": "A#4",
                    "midi": 70,
                    "time": 107.84474850000062,
                    "velocity": 0.7086614173228346,
                    "duration": 0.2543101583333396
                },
                {
                    "name": "D5",
                    "midi": 74,
                    "time": 108.10336900000063,
                    "velocity": 0.7086614173228346,
                    "duration": 0.2543101583333396
                },
                {
                    "name": "A#4",
                    "midi": 70,
                    "time": 108.10336900000063,
                    "velocity": 0.7086614173228346,
                    "duration": 0.2543101583333396
                },
                {
                    "name": "D5",
                    "midi": 74,
                    "time": 108.36198950000063,
                    "velocity": 0.7086614173228346,
                    "duration": 0.2543101583333396
                },
                {
                    "name": "A#4",
                    "midi": 70,
                    "time": 108.36198950000063,
                    "velocity": 0.7086614173228346,
                    "duration": 0.2543101583333396
                },
                {
                    "name": "D5",
                    "midi": 74,
                    "time": 108.62061000000064,
                    "velocity": 0.7086614173228346,
                    "duration": 0.2543101583333396
                },
                {
                    "name": "B4",
                    "midi": 71,
                    "time": 108.62061000000064,
                    "velocity": 0.7086614173228346,
                    "duration": 0.2543101583333396
                },
                {
                    "name": "D5",
                    "midi": 74,
                    "time": 108.87923050000065,
                    "velocity": 0.7086614173228346,
                    "duration": 0.2543101583333396
                },
                {
                    "name": "B4",
                    "midi": 71,
                    "time": 108.87923050000065,
                    "velocity": 0.7086614173228346,
                    "duration": 0.2543101583333396
                },
                {
                    "name": "D5",
                    "midi": 74,
                    "time": 109.13785100000065,
                    "velocity": 0.7086614173228346,
                    "duration": 0.2543101583333396
                },
                {
                    "name": "B4",
                    "midi": 71,
                    "time": 109.13785100000065,
                    "velocity": 0.7086614173228346,
                    "duration": 0.2543101583333396
                },
                {
                    "name": "D5",
                    "midi": 74,
                    "time": 109.39647150000066,
                    "velocity": 0.7086614173228346,
                    "duration": 0.2543101583333396
                },
                {
                    "name": "B4",
                    "midi": 71,
                    "time": 109.39647150000066,
                    "velocity": 0.7086614173228346,
                    "duration": 0.2543101583333396
                },
                {
                    "name": "D5",
                    "midi": 74,
                    "time": 109.65509200000066,
                    "velocity": 0.7086614173228346,
                    "duration": 0.2543101583333396
                },
                {
                    "name": "B4",
                    "midi": 71,
                    "time": 109.65509200000066,
                    "velocity": 0.7086614173228346,
                    "duration": 0.2543101583333396
                },
                {
                    "name": "D5",
                    "midi": 74,
                    "time": 109.91371250000067,
                    "velocity": 0.7086614173228346,
                    "duration": 0.2543101583333396
                },
                {
                    "name": "B4",
                    "midi": 71,
                    "time": 109.91371250000067,
                    "velocity": 0.7086614173228346,
                    "duration": 0.2543101583333396
                },
                {
                    "name": "E5",
                    "midi": 76,
                    "time": 110.17233300000068,
                    "velocity": 0.7086614173228346,
                    "duration": 0.2543101583333396
                },
                {
                    "name": "C5",
                    "midi": 72,
                    "time": 110.17233300000068,
                    "velocity": 0.7086614173228346,
                    "duration": 0.2543101583333396
                },
                {
                    "name": "E5",
                    "midi": 76,
                    "time": 110.43095350000068,
                    "velocity": 0.7086614173228346,
                    "duration": 0.2543101583333396
                },
                {
                    "name": "C5",
                    "midi": 72,
                    "time": 110.43095350000068,
                    "velocity": 0.7086614173228346,
                    "duration": 0.2543101583333396
                },
                {
                    "name": "E5",
                    "midi": 76,
                    "time": 110.68957400000069,
                    "velocity": 0.7086614173228346,
                    "duration": 0.2543101583333396
                },
                {
                    "name": "C5",
                    "midi": 72,
                    "time": 110.68957400000069,
                    "velocity": 0.7086614173228346,
                    "duration": 0.2543101583333396
                },
                {
                    "name": "E5",
                    "midi": 76,
                    "time": 110.9481945000007,
                    "velocity": 0.7086614173228346,
                    "duration": 0.2543101583333396
                },
                {
                    "name": "C5",
                    "midi": 72,
                    "time": 110.9481945000007,
                    "velocity": 0.7086614173228346,
                    "duration": 0.2543101583333396
                },
                {
                    "name": "E5",
                    "midi": 76,
                    "time": 111.2068150000007,
                    "velocity": 0.7086614173228346,
                    "duration": 0.2543101583333396
                },
                {
                    "name": "C5",
                    "midi": 72,
                    "time": 111.2068150000007,
                    "velocity": 0.7086614173228346,
                    "duration": 0.2543101583333396
                },
                {
                    "name": "E5",
                    "midi": 76,
                    "time": 111.46543550000071,
                    "velocity": 0.7086614173228346,
                    "duration": 0.2543101583333396
                },
                {
                    "name": "C5",
                    "midi": 72,
                    "time": 111.46543550000071,
                    "velocity": 0.7086614173228346,
                    "duration": 0.2543101583333396
                },
                {
                    "name": "F5",
                    "midi": 77,
                    "time": 111.72405600000072,
                    "velocity": 0.7086614173228346,
                    "duration": 0.2543101583333396
                },
                {
                    "name": "D5",
                    "midi": 74,
                    "time": 111.72405600000072,
                    "velocity": 0.7086614173228346,
                    "duration": 0.2543101583333396
                },
                {
                    "name": "F5",
                    "midi": 77,
                    "time": 111.98267650000072,
                    "velocity": 0.7086614173228346,
                    "duration": 0.2543101583333396
                },
                {
                    "name": "D5",
                    "midi": 74,
                    "time": 111.98267650000072,
                    "velocity": 0.7086614173228346,
                    "duration": 0.2543101583333396
                },
                {
                    "name": "F5",
                    "midi": 77,
                    "time": 112.24129700000073,
                    "velocity": 0.7086614173228346,
                    "duration": 0.2543101583333396
                },
                {
                    "name": "D5",
                    "midi": 74,
                    "time": 112.24129700000073,
                    "velocity": 0.7086614173228346,
                    "duration": 0.2543101583333396
                },
                {
                    "name": "F5",
                    "midi": 77,
                    "time": 112.49991750000073,
                    "velocity": 0.7086614173228346,
                    "duration": 0.2543101583333396
                },
                {
                    "name": "D5",
                    "midi": 74,
                    "time": 112.49991750000073,
                    "velocity": 0.7086614173228346,
                    "duration": 0.2543101583333396
                },
                {
                    "name": "G5",
                    "midi": 79,
                    "time": 112.75853800000074,
                    "velocity": 0.7086614173228346,
                    "duration": 0.2543101583333396
                },
                {
                    "name": "E5",
                    "midi": 76,
                    "time": 112.75853800000074,
                    "velocity": 0.7086614173228346,
                    "duration": 0.2543101583333396
                },
                {
                    "name": "G5",
                    "midi": 79,
                    "time": 113.01715850000075,
                    "velocity": 0.7086614173228346,
                    "duration": 0.2543101583333396
                },
                {
                    "name": "E5",
                    "midi": 76,
                    "time": 113.01715850000075,
                    "velocity": 0.7086614173228346,
                    "duration": 0.2543101583333396
                },
                {
                    "name": "F5",
                    "midi": 77,
                    "time": 113.27577900000075,
                    "velocity": 0.7086614173228346,
                    "duration": 0.7715511583333381
                },
                {
                    "name": "E5",
                    "midi": 76,
                    "time": 114.05164050000076,
                    "velocity": 0.7086614173228346,
                    "duration": 0.2543101583333396
                },
                {
                    "name": "F5",
                    "midi": 77,
                    "time": 114.31026100000076,
                    "velocity": 0.7086614173228346,
                    "duration": 0.2543101583333396
                },
                {
                    "name": "D5",
                    "midi": 74,
                    "time": 114.31026100000076,
                    "velocity": 0.7086614173228346,
                    "duration": 0.2543101583333396
                },
                {
                    "name": "E5",
                    "midi": 76,
                    "time": 114.56888150000077,
                    "velocity": 0.7086614173228346,
                    "duration": 0.2543101583333396
                },
                {
                    "name": "C5",
                    "midi": 72,
                    "time": 114.56888150000077,
                    "velocity": 0.7086614173228346,
                    "duration": 0.2543101583333396
                },
                {
                    "name": "D5",
                    "midi": 74,
                    "time": 114.82750200000078,
                    "velocity": 0.7086614173228346,
                    "duration": 0.7715511583333381
                },
                {
                    "name": "A#4",
                    "midi": 70,
                    "time": 114.82750200000078,
                    "velocity": 0.7086614173228346,
                    "duration": 0.7715511583333381
                },
                {
                    "name": "C5",
                    "midi": 72,
                    "time": 115.60336350000078,
                    "velocity": 0.7086614173228346,
                    "duration": 0.2543101583333396
                },
                {
                    "name": "A4",
                    "midi": 69,
                    "time": 115.60336350000078,
                    "velocity": 0.7086614173228346,
                    "duration": 0.2543101583333396
                },
                {
                    "name": "A#4",
                    "midi": 70,
                    "time": 115.86198400000079,
                    "velocity": 0.7086614173228346,
                    "duration": 0.2543101583333396
                },
                {
                    "name": "G4",
                    "midi": 67,
                    "time": 115.86198400000079,
                    "velocity": 0.7086614173228346,
                    "duration": 0.2543101583333396
                },
                {
                    "name": "A4",
                    "midi": 69,
                    "time": 116.1206045000008,
                    "velocity": 0.7086614173228346,
                    "duration": 0.2543101583333396
                },
                {
                    "name": "F4",
                    "midi": 65,
                    "time": 116.1206045000008,
                    "velocity": 0.7086614173228346,
                    "duration": 0.2543101583333396
                },
                {
                    "name": "F4",
                    "midi": 65,
                    "time": 116.3792250000008,
                    "velocity": 0.7086614173228346,
                    "duration": 0.08620683333333545
                },
                {
                    "name": "C4",
                    "midi": 60,
                    "time": 116.3792250000008,
                    "velocity": 0.7086614173228346,
                    "duration": 1.1594819083333618
                },
                {
                    "name": "E4",
                    "midi": 64,
                    "time": 116.46543183333414,
                    "velocity": 0.7086614173228346,
                    "duration": 0.08620683333333545
                },
                {
                    "name": "F4",
                    "midi": 65,
                    "time": 116.55163866666747,
                    "velocity": 0.7086614173228346,
                    "duration": 0.08620683333333545
                },
                {
                    "name": "E4",
                    "midi": 64,
                    "time": 116.63784550000081,
                    "velocity": 0.7086614173228346,
                    "duration": 0.08620683333333545
                },
                {
                    "name": "F4",
                    "midi": 65,
                    "time": 116.72405233333414,
                    "velocity": 0.7086614173228346,
                    "duration": 0.08620683333333545
                },
                {
                    "name": "E4",
                    "midi": 64,
                    "time": 116.81025916666748,
                    "velocity": 0.7086614173228346,
                    "duration": 0.08620683333333545
                },
                {
                    "name": "F4",
                    "midi": 65,
                    "time": 116.89646600000081,
                    "velocity": 0.7086614173228346,
                    "duration": 0.08620683333333545
                },
                {
                    "name": "E4",
                    "midi": 64,
                    "time": 116.98267283333415,
                    "velocity": 0.7086614173228346,
                    "duration": 0.08620683333333545
                },
                {
                    "name": "F4",
                    "midi": 65,
                    "time": 117.06887966666748,
                    "velocity": 0.7086614173228346,
                    "duration": 0.08620683333333545
                },
                {
                    "name": "E4",
                    "midi": 64,
                    "time": 117.15508650000082,
                    "velocity": 0.7086614173228346,
                    "duration": 0.08620683333333545
                },
                {
                    "name": "F4",
                    "midi": 65,
                    "time": 117.24129333333416,
                    "velocity": 0.7086614173228346,
                    "duration": 0.08620683333333545
                },
                {
                    "name": "E4",
                    "midi": 64,
                    "time": 117.32750016666749,
                    "velocity": 0.7086614173228346,
                    "duration": 0.21120674166667186
                },
                {
                    "name": "F4",
                    "midi": 65,
                    "time": 117.93094800000083,
                    "velocity": 0.7874015748031497,
                    "duration": 0.10775854166666932
                },
                {
                    "name": "A#3",
                    "midi": 58,
                    "time": 117.93094800000083,
                    "velocity": 0.7874015748031497,
                    "duration": 0.10775854166666932
                },
                {
                    "name": "F4",
                    "midi": 65,
                    "time": 118.18956850000083,
                    "velocity": 0.7874015748031497,
                    "duration": 0.10775854166666932
                },
                {
                    "name": "A#3",
                    "midi": 58,
                    "time": 118.18956850000083,
                    "velocity": 0.7874015748031497,
                    "duration": 0.10775854166666932
                },
                {
                    "name": "F4",
                    "midi": 65,
                    "time": 118.44818900000084,
                    "velocity": 0.7874015748031497,
                    "duration": 0.10775854166666932
                },
                {
                    "name": "A#3",
                    "midi": 58,
                    "time": 118.44818900000084,
                    "velocity": 0.7874015748031497,
                    "duration": 0.10775854166666932
                },
                {
                    "name": "F4",
                    "midi": 65,
                    "time": 118.70680950000084,
                    "velocity": 0.7874015748031497,
                    "duration": 0.10775854166666932
                },
                {
                    "name": "A#3",
                    "midi": 58,
                    "time": 118.70680950000084,
                    "velocity": 0.7874015748031497,
                    "duration": 0.10775854166666932
                },
                {
                    "name": "F4",
                    "midi": 65,
                    "time": 118.96543000000085,
                    "velocity": 0.7874015748031497,
                    "duration": 0.10775854166666932
                },
                {
                    "name": "A#3",
                    "midi": 58,
                    "time": 118.96543000000085,
                    "velocity": 0.7874015748031497,
                    "duration": 0.10775854166666932
                },
                {
                    "name": "F4",
                    "midi": 65,
                    "time": 119.22405050000086,
                    "velocity": 0.7874015748031497,
                    "duration": 0.10775854166666932
                },
                {
                    "name": "A#3",
                    "midi": 58,
                    "time": 119.22405050000086,
                    "velocity": 0.7874015748031497,
                    "duration": 0.10775854166666932
                },
                {
                    "name": "A4",
                    "midi": 69,
                    "time": 119.48267100000086,
                    "velocity": 0.7874015748031497,
                    "duration": 0.10775854166666932
                },
                {
                    "name": "A3",
                    "midi": 57,
                    "time": 119.48267100000086,
                    "velocity": 0.7874015748031497,
                    "duration": 0.10775854166666932
                },
                {
                    "name": "C5",
                    "midi": 72,
                    "time": 119.99991200000086,
                    "velocity": 0.7874015748031497,
                    "duration": 0.06465512500000159
                },
                {
                    "name": "A4",
                    "midi": 69,
                    "time": 119.99991200000086,
                    "velocity": 0.7874015748031497,
                    "duration": 0.06465512500000159
                },
                {
                    "name": "A4",
                    "midi": 69,
                    "time": 120.51715300000086,
                    "velocity": 0.7874015748031497,
                    "duration": 0.06465512500000159
                },
                {
                    "name": "F4",
                    "midi": 65,
                    "time": 120.51715300000086,
                    "velocity": 0.7874015748031497,
                    "duration": 0.06465512500000159
                },
                {
                    "name": "F4",
                    "midi": 65,
                    "time": 121.03439400000086,
                    "velocity": 0.7086614173228346,
                    "duration": 0.10775854166666932
                },
                {
                    "name": "A#3",
                    "midi": 58,
                    "time": 121.03439400000086,
                    "velocity": 0.7086614173228346,
                    "duration": 0.10775854166666932
                },
                {
                    "name": "F4",
                    "midi": 65,
                    "time": 121.29301450000087,
                    "velocity": 0.7086614173228346,
                    "duration": 0.10775854166666932
                },
                {
                    "name": "A#3",
                    "midi": 58,
                    "time": 121.29301450000087,
                    "velocity": 0.7086614173228346,
                    "duration": 0.10775854166666932
                },
                {
                    "name": "F4",
                    "midi": 65,
                    "time": 121.55163500000087,
                    "velocity": 0.7086614173228346,
                    "duration": 0.10775854166666932
                },
                {
                    "name": "A#3",
                    "midi": 58,
                    "time": 121.55163500000087,
                    "velocity": 0.7086614173228346,
                    "duration": 0.10775854166666932
                },
                {
                    "name": "F4",
                    "midi": 65,
                    "time": 121.81025550000088,
                    "velocity": 0.7086614173228346,
                    "duration": 0.10775854166666932
                },
                {
                    "name": "A#3",
                    "midi": 58,
                    "time": 121.81025550000088,
                    "velocity": 0.7086614173228346,
                    "duration": 0.10775854166666932
                },
                {
                    "name": "F4",
                    "midi": 65,
                    "time": 122.06887600000088,
                    "velocity": 0.7086614173228346,
                    "duration": 0.10775854166666932
                },
                {
                    "name": "A#3",
                    "midi": 58,
                    "time": 122.06887600000088,
                    "velocity": 0.7086614173228346,
                    "duration": 0.10775854166666932
                },
                {
                    "name": "G4",
                    "midi": 67,
                    "time": 122.32749650000089,
                    "velocity": 0.7086614173228346,
                    "duration": 0.10775854166666932
                },
                {
                    "name": "A#3",
                    "midi": 58,
                    "time": 122.32749650000089,
                    "velocity": 0.7086614173228346,
                    "duration": 0.10775854166666932
                },
                {
                    "name": "A4",
                    "midi": 69,
                    "time": 122.5861170000009,
                    "velocity": 0.7086614173228346,
                    "duration": 0.10775854166666932
                },
                {
                    "name": "A3",
                    "midi": 57,
                    "time": 122.5861170000009,
                    "velocity": 0.7086614173228346,
                    "duration": 0.10775854166666932
                },
                {
                    "name": "C5",
                    "midi": 72,
                    "time": 123.1033580000009,
                    "velocity": 0.7086614173228346,
                    "duration": 0.06465512500000159
                },
                {
                    "name": "A4",
                    "midi": 69,
                    "time": 123.1033580000009,
                    "velocity": 0.7086614173228346,
                    "duration": 0.06465512500000159
                },
                {
                    "name": "A4",
                    "midi": 69,
                    "time": 123.6205990000009,
                    "velocity": 0.7086614173228346,
                    "duration": 0.06465512500000159
                },
                {
                    "name": "F4",
                    "midi": 65,
                    "time": 123.6205990000009,
                    "velocity": 0.7086614173228346,
                    "duration": 0.06465512500000159
                },
                {
                    "name": "F4",
                    "midi": 65,
                    "time": 124.13784000000089,
                    "velocity": 0.7874015748031497,
                    "duration": 0.10775854166666932
                },
                {
                    "name": "A#3",
                    "midi": 58,
                    "time": 124.13784000000089,
                    "velocity": 0.7874015748031497,
                    "duration": 0.10775854166666932
                },
                {
                    "name": "F4",
                    "midi": 65,
                    "time": 124.3964605000009,
                    "velocity": 0.7874015748031497,
                    "duration": 0.10775854166666932
                },
                {
                    "name": "A#3",
                    "midi": 58,
                    "time": 124.3964605000009,
                    "velocity": 0.7874015748031497,
                    "duration": 0.10775854166666932
                },
                {
                    "name": "F4",
                    "midi": 65,
                    "time": 124.6550810000009,
                    "velocity": 0.7874015748031497,
                    "duration": 0.10775854166666932
                },
                {
                    "name": "A#3",
                    "midi": 58,
                    "time": 124.6550810000009,
                    "velocity": 0.7874015748031497,
                    "duration": 0.10775854166666932
                },
                {
                    "name": "F4",
                    "midi": 65,
                    "time": 124.91370150000091,
                    "velocity": 0.7874015748031497,
                    "duration": 0.10775854166666932
                },
                {
                    "name": "A#3",
                    "midi": 58,
                    "time": 124.91370150000091,
                    "velocity": 0.7874015748031497,
                    "duration": 0.10775854166666932
                },
                {
                    "name": "F4",
                    "midi": 65,
                    "time": 125.17232200000092,
                    "velocity": 0.7874015748031497,
                    "duration": 0.10775854166666932
                },
                {
                    "name": "G#3",
                    "midi": 56,
                    "time": 125.17232200000092,
                    "velocity": 0.7874015748031497,
                    "duration": 0.10775854166666932
                },
                {
                    "name": "F4",
                    "midi": 65,
                    "time": 125.43094250000092,
                    "velocity": 0.7874015748031497,
                    "duration": 0.10775854166666932
                },
                {
                    "name": "G#3",
                    "midi": 56,
                    "time": 125.43094250000092,
                    "velocity": 0.7874015748031497,
                    "duration": 0.10775854166666932
                },
                {
                    "name": "F4",
                    "midi": 65,
                    "time": 125.68956300000093,
                    "velocity": 0.7874015748031497,
                    "duration": 1.5474126583333287
                },
                {
                    "name": "D4",
                    "midi": 62,
                    "time": 125.68956300000093,
                    "velocity": 0.7874015748031497,
                    "duration": 1.5474126583333287
                },
                {
                    "name": "G3",
                    "midi": 55,
                    "time": 125.68956300000093,
                    "velocity": 0.7874015748031497,
                    "duration": 1.5474126583333287
                },
                {
                    "name": "D#4",
                    "midi": 63,
                    "time": 127.24128600000093,
                    "velocity": 0.7086614173228346,
                    "duration": 0.10775854166666932
                },
                {
                    "name": "C4",
                    "midi": 60,
                    "time": 127.24128600000093,
                    "velocity": 0.7086614173228346,
                    "duration": 0.10775854166666932
                },
                {
                    "name": "G3",
                    "midi": 55,
                    "time": 127.24128600000093,
                    "velocity": 0.7086614173228346,
                    "duration": 0.10775854166666932
                },
                {
                    "name": "D#4",
                    "midi": 63,
                    "time": 127.49990650000093,
                    "velocity": 0.7086614173228346,
                    "duration": 0.10775854166666932
                },
                {
                    "name": "C4",
                    "midi": 60,
                    "time": 127.49990650000093,
                    "velocity": 0.7086614173228346,
                    "duration": 0.10775854166666932
                },
                {
                    "name": "G3",
                    "midi": 55,
                    "time": 127.49990650000093,
                    "velocity": 0.7086614173228346,
                    "duration": 0.10775854166666932
                },
                {
                    "name": "D#4",
                    "midi": 63,
                    "time": 127.75852700000094,
                    "velocity": 0.7086614173228346,
                    "duration": 0.10775854166666932
                },
                {
                    "name": "C4",
                    "midi": 60,
                    "time": 127.75852700000094,
                    "velocity": 0.7086614173228346,
                    "duration": 0.10775854166666932
                },
                {
                    "name": "G3",
                    "midi": 55,
                    "time": 127.75852700000094,
                    "velocity": 0.7086614173228346,
                    "duration": 0.10775854166666932
                },
                {
                    "name": "D#4",
                    "midi": 63,
                    "time": 128.01714750000093,
                    "velocity": 0.7086614173228346,
                    "duration": 0.10775854166666932
                },
                {
                    "name": "C4",
                    "midi": 60,
                    "time": 128.01714750000093,
                    "velocity": 0.7086614173228346,
                    "duration": 0.10775854166666932
                },
                {
                    "name": "G3",
                    "midi": 55,
                    "time": 128.01714750000093,
                    "velocity": 0.7086614173228346,
                    "duration": 0.10775854166666932
                },
                {
                    "name": "D#4",
                    "midi": 63,
                    "time": 128.27576800000094,
                    "velocity": 0.7086614173228346,
                    "duration": 0.10775854166666932
                },
                {
                    "name": "C4",
                    "midi": 60,
                    "time": 128.27576800000094,
                    "velocity": 0.7086614173228346,
                    "duration": 0.10775854166666932
                },
                {
                    "name": "G3",
                    "midi": 55,
                    "time": 128.27576800000094,
                    "velocity": 0.7086614173228346,
                    "duration": 0.10775854166666932
                },
                {
                    "name": "D#4",
                    "midi": 63,
                    "time": 128.53438850000094,
                    "velocity": 0.7086614173228346,
                    "duration": 0.10775854166666932
                },
                {
                    "name": "C4",
                    "midi": 60,
                    "time": 128.53438850000094,
                    "velocity": 0.7086614173228346,
                    "duration": 0.10775854166666932
                },
                {
                    "name": "G3",
                    "midi": 55,
                    "time": 128.53438850000094,
                    "velocity": 0.7086614173228346,
                    "duration": 0.10775854166666932
                },
                {
                    "name": "D#4",
                    "midi": 63,
                    "time": 128.79300900000095,
                    "velocity": 0.7086614173228346,
                    "duration": 0.10775854166666932
                },
                {
                    "name": "C4",
                    "midi": 60,
                    "time": 128.79300900000095,
                    "velocity": 0.7086614173228346,
                    "duration": 0.10775854166666932
                },
                {
                    "name": "F#3",
                    "midi": 54,
                    "time": 128.79300900000095,
                    "velocity": 0.7086614173228346,
                    "duration": 0.10775854166666932
                },
                {
                    "name": "D#4",
                    "midi": 63,
                    "time": 129.05162950000096,
                    "velocity": 0.7086614173228346,
                    "duration": 0.10775854166666932
                },
                {
                    "name": "C4",
                    "midi": 60,
                    "time": 129.05162950000096,
                    "velocity": 0.7086614173228346,
                    "duration": 0.10775854166666932
                },
                {
                    "name": "F#3",
                    "midi": 54,
                    "time": 129.05162950000096,
                    "velocity": 0.7086614173228346,
                    "duration": 0.10775854166666932
                },
                {
                    "name": "D#4",
                    "midi": 63,
                    "time": 129.31025000000096,
                    "velocity": 0.7086614173228346,
                    "duration": 0.10775854166666932
                },
                {
                    "name": "C4",
                    "midi": 60,
                    "time": 129.31025000000096,
                    "velocity": 0.7086614173228346,
                    "duration": 0.10775854166666932
                },
                {
                    "name": "F#3",
                    "midi": 54,
                    "time": 129.31025000000096,
                    "velocity": 0.7086614173228346,
                    "duration": 0.10775854166666932
                },
                {
                    "name": "D#4",
                    "midi": 63,
                    "time": 129.56887050000097,
                    "velocity": 0.7086614173228346,
                    "duration": 0.10775854166666932
                },
                {
                    "name": "C4",
                    "midi": 60,
                    "time": 129.56887050000097,
                    "velocity": 0.7086614173228346,
                    "duration": 0.10775854166666932
                },
                {
                    "name": "F#3",
                    "midi": 54,
                    "time": 129.56887050000097,
                    "velocity": 0.7086614173228346,
                    "duration": 0.10775854166666932
                },
                {
                    "name": "D#4",
                    "midi": 63,
                    "time": 129.82749100000098,
                    "velocity": 0.7086614173228346,
                    "duration": 0.10775854166666932
                },
                {
                    "name": "C4",
                    "midi": 60,
                    "time": 129.82749100000098,
                    "velocity": 0.7086614173228346,
                    "duration": 0.10775854166666932
                },
                {
                    "name": "F#3",
                    "midi": 54,
                    "time": 129.82749100000098,
                    "velocity": 0.7086614173228346,
                    "duration": 0.10775854166666932
                },
                {
                    "name": "D#4",
                    "midi": 63,
                    "time": 130.08611150000098,
                    "velocity": 0.7086614173228346,
                    "duration": 0.10775854166666932
                },
                {
                    "name": "C4",
                    "midi": 60,
                    "time": 130.08611150000098,
                    "velocity": 0.7086614173228346,
                    "duration": 0.10775854166666932
                },
                {
                    "name": "F#3",
                    "midi": 54,
                    "time": 130.08611150000098,
                    "velocity": 0.7086614173228346,
                    "duration": 0.10775854166666932
                },
                {
                    "name": "D4",
                    "midi": 62,
                    "time": 130.344732000001,
                    "velocity": 0.7086614173228346,
                    "duration": 0.10775854166666932
                },
                {
                    "name": "A#3",
                    "midi": 58,
                    "time": 130.344732000001,
                    "velocity": 0.7086614173228346,
                    "duration": 0.10775854166666932
                },
                {
                    "name": "F3",
                    "midi": 53,
                    "time": 130.344732000001,
                    "velocity": 0.7086614173228346,
                    "duration": 0.10775854166666932
                },
                {
                    "name": "D4",
                    "midi": 62,
                    "time": 130.603352500001,
                    "velocity": 0.7086614173228346,
                    "duration": 0.10775854166666932
                },
                {
                    "name": "A#3",
                    "midi": 58,
                    "time": 130.603352500001,
                    "velocity": 0.7086614173228346,
                    "duration": 0.10775854166666932
                },
                {
                    "name": "F3",
                    "midi": 53,
                    "time": 130.603352500001,
                    "velocity": 0.7086614173228346,
                    "duration": 0.10775854166666932
                },
                {
                    "name": "D4",
                    "midi": 62,
                    "time": 130.861973000001,
                    "velocity": 0.7086614173228346,
                    "duration": 0.10775854166666932
                },
                {
                    "name": "A#3",
                    "midi": 58,
                    "time": 130.861973000001,
                    "velocity": 0.7086614173228346,
                    "duration": 0.10775854166666932
                },
                {
                    "name": "F3",
                    "midi": 53,
                    "time": 130.861973000001,
                    "velocity": 0.7086614173228346,
                    "duration": 0.10775854166666932
                },
                {
                    "name": "D4",
                    "midi": 62,
                    "time": 131.120593500001,
                    "velocity": 0.7086614173228346,
                    "duration": 0.10775854166666932
                },
                {
                    "name": "A#3",
                    "midi": 58,
                    "time": 131.120593500001,
                    "velocity": 0.7086614173228346,
                    "duration": 0.10775854166666932
                },
                {
                    "name": "F3",
                    "midi": 53,
                    "time": 131.120593500001,
                    "velocity": 0.7086614173228346,
                    "duration": 0.10775854166666932
                },
                {
                    "name": "D4",
                    "midi": 62,
                    "time": 131.379214000001,
                    "velocity": 0.7086614173228346,
                    "duration": 0.10775854166666932
                },
                {
                    "name": "A#3",
                    "midi": 58,
                    "time": 131.379214000001,
                    "velocity": 0.7086614173228346,
                    "duration": 0.10775854166666932
                },
                {
                    "name": "F3",
                    "midi": 53,
                    "time": 131.379214000001,
                    "velocity": 0.7086614173228346,
                    "duration": 0.10775854166666932
                },
                {
                    "name": "D4",
                    "midi": 62,
                    "time": 131.63783450000102,
                    "velocity": 0.7086614173228346,
                    "duration": 0.10775854166666932
                },
                {
                    "name": "A#3",
                    "midi": 58,
                    "time": 131.63783450000102,
                    "velocity": 0.7086614173228346,
                    "duration": 0.10775854166666932
                },
                {
                    "name": "F3",
                    "midi": 53,
                    "time": 131.63783450000102,
                    "velocity": 0.7086614173228346,
                    "duration": 0.10775854166666932
                },
                {
                    "name": "D4",
                    "midi": 62,
                    "time": 131.89645500000103,
                    "velocity": 0.7086614173228346,
                    "duration": 0.10775854166666932
                },
                {
                    "name": "A#3",
                    "midi": 58,
                    "time": 131.89645500000103,
                    "velocity": 0.7086614173228346,
                    "duration": 0.10775854166666932
                },
                {
                    "name": "E3",
                    "midi": 52,
                    "time": 131.89645500000103,
                    "velocity": 0.7086614173228346,
                    "duration": 0.10775854166666932
                },
                {
                    "name": "D4",
                    "midi": 62,
                    "time": 132.15507550000103,
                    "velocity": 0.7086614173228346,
                    "duration": 0.10775854166666932
                },
                {
                    "name": "A#3",
                    "midi": 58,
                    "time": 132.15507550000103,
                    "velocity": 0.7086614173228346,
                    "duration": 0.10775854166666932
                },
                {
                    "name": "E3",
                    "midi": 52,
                    "time": 132.15507550000103,
                    "velocity": 0.7086614173228346,
                    "duration": 0.10775854166666932
                },
                {
                    "name": "D4",
                    "midi": 62,
                    "time": 132.41369600000104,
                    "velocity": 0.7086614173228346,
                    "duration": 0.10775854166666932
                },
                {
                    "name": "A#3",
                    "midi": 58,
                    "time": 132.41369600000104,
                    "velocity": 0.7086614173228346,
                    "duration": 0.10775854166666932
                },
                {
                    "name": "E3",
                    "midi": 52,
                    "time": 132.41369600000104,
                    "velocity": 0.7086614173228346,
                    "duration": 0.10775854166666932
                },
                {
                    "name": "D4",
                    "midi": 62,
                    "time": 132.67231650000105,
                    "velocity": 0.7086614173228346,
                    "duration": 0.10775854166666932
                },
                {
                    "name": "A#3",
                    "midi": 58,
                    "time": 132.67231650000105,
                    "velocity": 0.7086614173228346,
                    "duration": 0.10775854166666932
                },
                {
                    "name": "E3",
                    "midi": 52,
                    "time": 132.67231650000105,
                    "velocity": 0.7086614173228346,
                    "duration": 0.10775854166666932
                },
                {
                    "name": "D4",
                    "midi": 62,
                    "time": 132.93093700000105,
                    "velocity": 0.7086614173228346,
                    "duration": 0.10775854166666932
                },
                {
                    "name": "A#3",
                    "midi": 58,
                    "time": 132.93093700000105,
                    "velocity": 0.7086614173228346,
                    "duration": 0.10775854166666932
                },
                {
                    "name": "E3",
                    "midi": 52,
                    "time": 132.93093700000105,
                    "velocity": 0.7086614173228346,
                    "duration": 0.10775854166666932
                },
                {
                    "name": "D4",
                    "midi": 62,
                    "time": 133.18955750000106,
                    "velocity": 0.7086614173228346,
                    "duration": 0.10775854166666932
                },
                {
                    "name": "A#3",
                    "midi": 58,
                    "time": 133.18955750000106,
                    "velocity": 0.7086614173228346,
                    "duration": 0.10775854166666932
                },
                {
                    "name": "E3",
                    "midi": 52,
                    "time": 133.18955750000106,
                    "velocity": 0.7086614173228346,
                    "duration": 0.10775854166666932
                },
                {
                    "name": "C4",
                    "midi": 60,
                    "time": 133.44817800000106,
                    "velocity": 0.7086614173228346,
                    "duration": 0.10775854166666932
                },
                {
                    "name": "A3",
                    "midi": 57,
                    "time": 133.44817800000106,
                    "velocity": 0.7086614173228346,
                    "duration": 0.10775854166666932
                },
                {
                    "name": "D#3",
                    "midi": 51,
                    "time": 133.44817800000106,
                    "velocity": 0.7086614173228346,
                    "duration": 0.10775854166666932
                },
                {
                    "name": "C4",
                    "midi": 60,
                    "time": 133.70679850000107,
                    "velocity": 0.7086614173228346,
                    "duration": 0.10775854166666932
                },
                {
                    "name": "A3",
                    "midi": 57,
                    "time": 133.70679850000107,
                    "velocity": 0.7086614173228346,
                    "duration": 0.10775854166666932
                },
                {
                    "name": "D#3",
                    "midi": 51,
                    "time": 133.70679850000107,
                    "velocity": 0.7086614173228346,
                    "duration": 0.10775854166666932
                },
                {
                    "name": "C4",
                    "midi": 60,
                    "time": 133.96541900000108,
                    "velocity": 0.7086614173228346,
                    "duration": 0.10775854166666932
                },
                {
                    "name": "A3",
                    "midi": 57,
                    "time": 133.96541900000108,
                    "velocity": 0.7086614173228346,
                    "duration": 0.10775854166666932
                },
                {
                    "name": "D#3",
                    "midi": 51,
                    "time": 133.96541900000108,
                    "velocity": 0.7086614173228346,
                    "duration": 0.10775854166666932
                },
                {
                    "name": "C4",
                    "midi": 60,
                    "time": 134.22403950000108,
                    "velocity": 0.7086614173228346,
                    "duration": 0.10775854166666932
                },
                {
                    "name": "A3",
                    "midi": 57,
                    "time": 134.22403950000108,
                    "velocity": 0.7086614173228346,
                    "duration": 0.10775854166666932
                },
                {
                    "name": "D#3",
                    "midi": 51,
                    "time": 134.22403950000108,
                    "velocity": 0.7086614173228346,
                    "duration": 0.10775854166666932
                },
                {
                    "name": "C4",
                    "midi": 60,
                    "time": 134.4826600000011,
                    "velocity": 0.7086614173228346,
                    "duration": 0.10775854166666932
                },
                {
                    "name": "A3",
                    "midi": 57,
                    "time": 134.4826600000011,
                    "velocity": 0.7086614173228346,
                    "duration": 0.10775854166666932
                },
                {
                    "name": "D#3",
                    "midi": 51,
                    "time": 134.4826600000011,
                    "velocity": 0.7086614173228346,
                    "duration": 0.10775854166666932
                },
                {
                    "name": "C4",
                    "midi": 60,
                    "time": 134.7412805000011,
                    "velocity": 0.7086614173228346,
                    "duration": 0.10775854166666932
                },
                {
                    "name": "A3",
                    "midi": 57,
                    "time": 134.7412805000011,
                    "velocity": 0.7086614173228346,
                    "duration": 0.10775854166666932
                },
                {
                    "name": "D#3",
                    "midi": 51,
                    "time": 134.7412805000011,
                    "velocity": 0.7086614173228346,
                    "duration": 0.10775854166666932
                },
                {
                    "name": "D4",
                    "midi": 62,
                    "time": 134.9999010000011,
                    "velocity": 0.7086614173228346,
                    "duration": 1.1594819083333334
                },
                {
                    "name": "A3",
                    "midi": 57,
                    "time": 134.9999010000011,
                    "velocity": 0.7086614173228346,
                    "duration": 1.1594819083333334
                },
                {
                    "name": "D3",
                    "midi": 50,
                    "time": 134.9999010000011,
                    "velocity": 0.7086614173228346,
                    "duration": 1.1594819083333334
                },
                {
                    "name": "G4",
                    "midi": 67,
                    "time": 136.5516240000011,
                    "velocity": 0.7874015748031497,
                    "duration": 0.10775854166666932
                },
                {
                    "name": "C4",
                    "midi": 60,
                    "time": 136.5516240000011,
                    "velocity": 0.7874015748031497,
                    "duration": 0.10775854166666932
                },
                {
                    "name": "G4",
                    "midi": 67,
                    "time": 136.81024450000112,
                    "velocity": 0.7874015748031497,
                    "duration": 0.10775854166666932
                },
                {
                    "name": "C4",
                    "midi": 60,
                    "time": 136.81024450000112,
                    "velocity": 0.7874015748031497,
                    "duration": 0.10775854166666932
                },
                {
                    "name": "G4",
                    "midi": 67,
                    "time": 137.06886500000113,
                    "velocity": 0.7874015748031497,
                    "duration": 0.10775854166666932
                },
                {
                    "name": "C4",
                    "midi": 60,
                    "time": 137.06886500000113,
                    "velocity": 0.7874015748031497,
                    "duration": 0.10775854166666932
                },
                {
                    "name": "G4",
                    "midi": 67,
                    "time": 137.32748550000113,
                    "velocity": 0.7874015748031497,
                    "duration": 0.10775854166666932
                },
                {
                    "name": "C4",
                    "midi": 60,
                    "time": 137.32748550000113,
                    "velocity": 0.7874015748031497,
                    "duration": 0.10775854166666932
                },
                {
                    "name": "A4",
                    "midi": 69,
                    "time": 137.58610600000114,
                    "velocity": 0.7874015748031497,
                    "duration": 0.10775854166666932
                },
                {
                    "name": "C4",
                    "midi": 60,
                    "time": 137.58610600000114,
                    "velocity": 0.7874015748031497,
                    "duration": 0.10775854166666932
                },
                {
                    "name": "A4",
                    "midi": 69,
                    "time": 137.84472650000114,
                    "velocity": 0.7874015748031497,
                    "duration": 0.10775854166666932
                },
                {
                    "name": "C4",
                    "midi": 60,
                    "time": 137.84472650000114,
                    "velocity": 0.7874015748031497,
                    "duration": 0.10775854166666932
                },
                {
                    "name": "A#4",
                    "midi": 70,
                    "time": 138.10334700000115,
                    "velocity": 0.7874015748031497,
                    "duration": 0.10775854166666932
                },
                {
                    "name": "A#3",
                    "midi": 58,
                    "time": 138.10334700000115,
                    "velocity": 0.7874015748031497,
                    "duration": 0.10775854166666932
                },
                {
                    "name": "D5",
                    "midi": 74,
                    "time": 138.62058800000116,
                    "velocity": 0.7874015748031497,
                    "duration": 0.06465512500000159
                },
                {
                    "name": "A#4",
                    "midi": 70,
                    "time": 138.62058800000116,
                    "velocity": 0.7874015748031497,
                    "duration": 0.06465512500000159
                },
                {
                    "name": "A#4",
                    "midi": 70,
                    "time": 139.13782900000118,
                    "velocity": 0.7874015748031497,
                    "duration": 0.06465512500000159
                },
                {
                    "name": "G4",
                    "midi": 67,
                    "time": 139.13782900000118,
                    "velocity": 0.7874015748031497,
                    "duration": 0.06465512500000159
                },
                {
                    "name": "G4",
                    "midi": 67,
                    "time": 139.6550700000012,
                    "velocity": 0.7086614173228346,
                    "duration": 0.10775854166666932
                },
                {
                    "name": "C4",
                    "midi": 60,
                    "time": 139.6550700000012,
                    "velocity": 0.7086614173228346,
                    "duration": 0.10775854166666932
                },
                {
                    "name": "G4",
                    "midi": 67,
                    "time": 139.9136905000012,
                    "velocity": 0.7086614173228346,
                    "duration": 0.10775854166666932
                },
                {
                    "name": "C4",
                    "midi": 60,
                    "time": 139.9136905000012,
                    "velocity": 0.7086614173228346,
                    "duration": 0.10775854166666932
                },
                {
                    "name": "G4",
                    "midi": 67,
                    "time": 140.1723110000012,
                    "velocity": 0.7086614173228346,
                    "duration": 0.10775854166666932
                },
                {
                    "name": "C4",
                    "midi": 60,
                    "time": 140.1723110000012,
                    "velocity": 0.7086614173228346,
                    "duration": 0.10775854166666932
                },
                {
                    "name": "G4",
                    "midi": 67,
                    "time": 140.4309315000012,
                    "velocity": 0.7086614173228346,
                    "duration": 0.10775854166666932
                },
                {
                    "name": "C4",
                    "midi": 60,
                    "time": 140.4309315000012,
                    "velocity": 0.7086614173228346,
                    "duration": 0.10775854166666932
                },
                {
                    "name": "A4",
                    "midi": 69,
                    "time": 140.6895520000012,
                    "velocity": 0.7086614173228346,
                    "duration": 0.10775854166666932
                },
                {
                    "name": "C4",
                    "midi": 60,
                    "time": 140.6895520000012,
                    "velocity": 0.7086614173228346,
                    "duration": 0.10775854166666932
                },
                {
                    "name": "A4",
                    "midi": 69,
                    "time": 140.94817250000122,
                    "velocity": 0.7086614173228346,
                    "duration": 0.10775854166666932
                },
                {
                    "name": "C4",
                    "midi": 60,
                    "time": 140.94817250000122,
                    "velocity": 0.7086614173228346,
                    "duration": 0.10775854166666932
                },
                {
                    "name": "A#4",
                    "midi": 70,
                    "time": 141.20679300000123,
                    "velocity": 0.7086614173228346,
                    "duration": 0.10775854166666932
                },
                {
                    "name": "A#3",
                    "midi": 58,
                    "time": 141.20679300000123,
                    "velocity": 0.7086614173228346,
                    "duration": 0.10775854166666932
                },
                {
                    "name": "D5",
                    "midi": 74,
                    "time": 141.72403400000124,
                    "velocity": 0.7086614173228346,
                    "duration": 0.06465512500000159
                },
                {
                    "name": "A#4",
                    "midi": 70,
                    "time": 141.72403400000124,
                    "velocity": 0.7086614173228346,
                    "duration": 0.06465512500000159
                },
                {
                    "name": "A#4",
                    "midi": 70,
                    "time": 142.24127500000125,
                    "velocity": 0.7086614173228346,
                    "duration": 0.06465512500000159
                },
                {
                    "name": "G4",
                    "midi": 67,
                    "time": 142.24127500000125,
                    "velocity": 0.7086614173228346,
                    "duration": 0.06465512500000159
                },
                {
                    "name": "G4",
                    "midi": 67,
                    "time": 142.75851600000126,
                    "velocity": 0.7874015748031497,
                    "duration": 0.10775854166666932
                },
                {
                    "name": "D#4",
                    "midi": 63,
                    "time": 142.75851600000126,
                    "velocity": 0.7874015748031497,
                    "duration": 0.10775854166666932
                },
                {
                    "name": "G4",
                    "midi": 67,
                    "time": 143.01713650000127,
                    "velocity": 0.7874015748031497,
                    "duration": 0.10775854166666932
                },
                {
                    "name": "D#4",
                    "midi": 63,
                    "time": 143.01713650000127,
                    "velocity": 0.7874015748031497,
                    "duration": 0.10775854166666932
                },
                {
                    "name": "G4",
                    "midi": 67,
                    "time": 143.27575700000128,
                    "velocity": 0.7874015748031497,
                    "duration": 0.10775854166666932
                },
                {
                    "name": "D#4",
                    "midi": 63,
                    "time": 143.27575700000128,
                    "velocity": 0.7874015748031497,
                    "duration": 0.10775854166666932
                },
                {
                    "name": "G4",
                    "midi": 67,
                    "time": 143.53437750000128,
                    "velocity": 0.7874015748031497,
                    "duration": 0.10775854166666932
                },
                {
                    "name": "D#4",
                    "midi": 63,
                    "time": 143.53437750000128,
                    "velocity": 0.7874015748031497,
                    "duration": 0.10775854166666932
                },
                {
                    "name": "G4",
                    "midi": 67,
                    "time": 143.7929980000013,
                    "velocity": 0.7874015748031497,
                    "duration": 0.10775854166666932
                },
                {
                    "name": "D#4",
                    "midi": 63,
                    "time": 143.7929980000013,
                    "velocity": 0.7874015748031497,
                    "duration": 0.10775854166666932
                },
                {
                    "name": "G4",
                    "midi": 67,
                    "time": 144.0516185000013,
                    "velocity": 0.7874015748031497,
                    "duration": 0.10775854166666932
                },
                {
                    "name": "D#4",
                    "midi": 63,
                    "time": 144.0516185000013,
                    "velocity": 0.7874015748031497,
                    "duration": 0.10775854166666932
                },
                {
                    "name": "F#4",
                    "midi": 66,
                    "time": 144.3102390000013,
                    "velocity": 0.7874015748031497,
                    "duration": 0.10775854166666932
                },
                {
                    "name": "D4",
                    "midi": 62,
                    "time": 144.3102390000013,
                    "velocity": 0.7874015748031497,
                    "duration": 0.10775854166666932
                },
                {
                    "name": "C5",
                    "midi": 72,
                    "time": 144.82748000000132,
                    "velocity": 0.7874015748031497,
                    "duration": 0.06465512500000159
                },
                {
                    "name": "A4",
                    "midi": 69,
                    "time": 144.82748000000132,
                    "velocity": 0.7874015748031497,
                    "duration": 0.06465512500000159
                },
                {
                    "name": "A4",
                    "midi": 69,
                    "time": 145.34472100000133,
                    "velocity": 0.7874015748031497,
                    "duration": 0.06465512500000159
                },
                {
                    "name": "F#4",
                    "midi": 66,
                    "time": 145.34472100000133,
                    "velocity": 0.7874015748031497,
                    "duration": 0.06465512500000159
                },
                {
                    "name": "D4",
                    "midi": 62,
                    "time": 145.34472100000133,
                    "velocity": 0.7874015748031497,
                    "duration": 0.06465512500000159
                },
                {
                    "name": "G4",
                    "midi": 67,
                    "time": 145.86196200000134,
                    "velocity": 0.7086614173228346,
                    "duration": 0.2543101583333396
                },
                {
                    "name": "A#4",
                    "midi": 70,
                    "time": 146.12058250000135,
                    "velocity": 0.7086614173228346,
                    "duration": 0.2543101583333396
                },
                {
                    "name": "G4",
                    "midi": 67,
                    "time": 146.37920300000135,
                    "velocity": 0.7086614173228346,
                    "duration": 0.2543101583333396
                },
                {
                    "name": "D#4",
                    "midi": 63,
                    "time": 146.63782350000136,
                    "velocity": 0.7086614173228346,
                    "duration": 0.2543101583333396
                },
                {
                    "name": "C4",
                    "midi": 60,
                    "time": 146.89644400000137,
                    "velocity": 0.7086614173228346,
                    "duration": 0.2543101583333396
                },
                {
                    "name": "D4",
                    "midi": 62,
                    "time": 147.15506450000137,
                    "velocity": 0.7086614173228346,
                    "duration": 0.2543101583333396
                },
                {
                    "name": "G3",
                    "midi": 55,
                    "time": 147.41368500000138,
                    "velocity": 0.7086614173228346,
                    "duration": 0.2543101583333396
                },
                {
                    "name": "G2",
                    "midi": 43,
                    "time": 147.67230550000139,
                    "velocity": 0.7086614173228346,
                    "duration": 0.10775854166666932
                },
                {
                    "name": "G2",
                    "midi": 43,
                    "time": 147.9309260000014,
                    "velocity": 0.7086614173228346,
                    "duration": 0.10775854166666932
                },
                {
                    "name": "G2",
                    "midi": 43,
                    "time": 148.1895465000014,
                    "velocity": 0.7086614173228346,
                    "duration": 0.10775854166666932
                },
                {
                    "name": "G2",
                    "midi": 43,
                    "time": 148.4481670000014,
                    "velocity": 0.7086614173228346,
                    "duration": 0.10775854166666932
                },
                {
                    "name": "G2",
                    "midi": 43,
                    "time": 148.7067875000014,
                    "velocity": 0.7086614173228346,
                    "duration": 0.10775854166666932
                },
                {
                    "name": "G2",
                    "midi": 43,
                    "time": 148.96540800000142,
                    "velocity": 0.7086614173228346,
                    "duration": 0.06465512500000159
                },
                {
                    "name": "A#2",
                    "midi": 46,
                    "time": 149.03006312500142,
                    "velocity": 0.7086614173228346,
                    "duration": 0.06465512500000159
                },
                {
                    "name": "D3",
                    "midi": 50,
                    "time": 149.09471825000142,
                    "velocity": 0.7086614173228346,
                    "duration": 0.06465512500000159
                },
                {
                    "name": "G3",
                    "midi": 55,
                    "time": 149.15937337500142,
                    "velocity": 0.7086614173228346,
                    "duration": 0.06465512500000159
                },
                {
                    "name": "G3",
                    "midi": 55,
                    "time": 150.77575150000143,
                    "velocity": 0.7086614173228346,
                    "duration": 0.10775854166666932
                },
                {
                    "name": "G3",
                    "midi": 55,
                    "time": 151.03437200000144,
                    "velocity": 0.7086614173228346,
                    "duration": 0.10775854166666932
                },
                {
                    "name": "G3",
                    "midi": 55,
                    "time": 151.29299250000145,
                    "velocity": 0.7086614173228346,
                    "duration": 0.10775854166666932
                },
                {
                    "name": "G3",
                    "midi": 55,
                    "time": 151.55161300000145,
                    "velocity": 0.7086614173228346,
                    "duration": 0.38362040833334277
                },
                {
                    "name": "A3",
                    "midi": 57,
                    "time": 151.93954375000146,
                    "velocity": 0.7086614173228346,
                    "duration": 0.04310341666666773
                },
                {
                    "name": "A#3",
                    "midi": 58,
                    "time": 151.98264716666813,
                    "velocity": 0.7086614173228346,
                    "duration": 0.04310341666666773
                },
                {
                    "name": "D4",
                    "midi": 62,
                    "time": 152.0257505833348,
                    "velocity": 0.7086614173228346,
                    "duration": 0.04310341666666773
                },
                {
                    "name": "D#3",
                    "midi": 51,
                    "time": 152.06885400000147,
                    "velocity": 0.7874015748031497,
                    "duration": 0.7715511583333239
                },
                {
                    "name": "F3",
                    "midi": 53,
                    "time": 152.84471550000146,
                    "velocity": 0.7874015748031497,
                    "duration": 0.08620683333333545
                },
                {
                    "name": "G3",
                    "midi": 55,
                    "time": 152.9309223333348,
                    "velocity": 0.7874015748031497,
                    "duration": 0.08620683333333545
                },
                {
                    "name": "A#3",
                    "midi": 58,
                    "time": 153.01712916666813,
                    "velocity": 0.7874015748031497,
                    "duration": 0.08620683333333545
                },
                {
                    "name": "D3",
                    "midi": 50,
                    "time": 153.10333600000146,
                    "velocity": 0.7874015748031497,
                    "duration": 0.38362040833334277
                },
                {
                    "name": "F3",
                    "midi": 53,
                    "time": 153.49126675000147,
                    "velocity": 0.7874015748031497,
                    "duration": 0.04310341666666773
                },
                {
                    "name": "G3",
                    "midi": 55,
                    "time": 153.53437016666814,
                    "velocity": 0.7874015748031497,
                    "duration": 0.04310341666666773
                },
                {
                    "name": "B3",
                    "midi": 59,
                    "time": 153.5774735833348,
                    "velocity": 0.7874015748031497,
                    "duration": 0.04310341666666773
                },
                {
                    "name": "C3",
                    "midi": 48,
                    "time": 153.62057700000148,
                    "velocity": 0.7874015748031497,
                    "duration": 0.7715511583333239
                },
                {
                    "name": "D#3",
                    "midi": 51,
                    "time": 154.39643850000147,
                    "velocity": 0.7874015748031497,
                    "duration": 0.08620683333333545
                },
                {
                    "name": "G3",
                    "midi": 55,
                    "time": 154.4826453333348,
                    "velocity": 0.7874015748031497,
                    "duration": 0.08620683333333545
                },
                {
                    "name": "C4",
                    "midi": 60,
                    "time": 154.56885216666814,
                    "velocity": 0.7874015748031497,
                    "duration": 0.08620683333333545
                },
                {
                    "name": "A#2",
                    "midi": 46,
                    "time": 154.65505900000147,
                    "velocity": 0.7874015748031497,
                    "duration": 0.38362040833334277
                },
                {
                    "name": "C3",
                    "midi": 48,
                    "time": 155.04298975000148,
                    "velocity": 0.7874015748031497,
                    "duration": 0.04310341666666773
                },
                {
                    "name": "D3",
                    "midi": 50,
                    "time": 155.08609316666815,
                    "velocity": 0.7874015748031497,
                    "duration": 0.04310341666666773
                },
                {
                    "name": "G3",
                    "midi": 55,
                    "time": 155.12919658333482,
                    "velocity": 0.7874015748031497,
                    "duration": 0.04310341666666773
                },
                {
                    "name": "A2",
                    "midi": 45,
                    "time": 155.17230000000148,
                    "velocity": 0.7874015748031497,
                    "duration": 0.7715511583333239
                },
                {
                    "name": "C3",
                    "midi": 48,
                    "time": 155.94816150000148,
                    "velocity": 0.7874015748031497,
                    "duration": 0.08620683333333545
                },
                {
                    "name": "D3",
                    "midi": 50,
                    "time": 156.0343683333348,
                    "velocity": 0.7874015748031497,
                    "duration": 0.08620683333333545
                },
                {
                    "name": "F#3",
                    "midi": 54,
                    "time": 156.12057516666815,
                    "velocity": 0.7874015748031497,
                    "duration": 0.08620683333333545
                },
                {
                    "name": "G2",
                    "midi": 43,
                    "time": 156.20678200000148,
                    "velocity": 0.7874015748031497,
                    "duration": 0.38362040833334277
                },
                {
                    "name": "A#2",
                    "midi": 46,
                    "time": 156.5947127500015,
                    "velocity": 0.7874015748031497,
                    "duration": 0.04310341666666773
                },
                {
                    "name": "D3",
                    "midi": 50,
                    "time": 156.63781616666816,
                    "velocity": 0.7874015748031497,
                    "duration": 0.04310341666666773
                },
                {
                    "name": "G3",
                    "midi": 55,
                    "time": 156.68091958333483,
                    "velocity": 0.7874015748031497,
                    "duration": 0.04310341666666773
                },
                {
                    "name": "F#2",
                    "midi": 42,
                    "time": 156.7240230000015,
                    "velocity": 0.7874015748031497,
                    "duration": 0.7715511583333239
                },
                {
                    "name": "G2",
                    "midi": 43,
                    "time": 157.49988450000149,
                    "velocity": 0.7874015748031497,
                    "duration": 0.08620683333333545
                },
                {
                    "name": "A2",
                    "midi": 45,
                    "time": 157.58609133333482,
                    "velocity": 0.7874015748031497,
                    "duration": 0.08620683333333545
                },
                {
                    "name": "D3",
                    "midi": 50,
                    "time": 157.67229816666816,
                    "velocity": 0.7874015748031497,
                    "duration": 0.08620683333333545
                },
                {
                    "name": "G2",
                    "midi": 43,
                    "time": 157.7585050000015,
                    "velocity": 0.7874015748031497,
                    "duration": 0.38362040833334277
                },
                {
                    "name": "A2",
                    "midi": 45,
                    "time": 158.1464357500015,
                    "velocity": 0.7874015748031497,
                    "duration": 0.04310341666666773
                },
                {
                    "name": "A#2",
                    "midi": 46,
                    "time": 158.18953916666817,
                    "velocity": 0.7874015748031497,
                    "duration": 0.04310341666666773
                },
                {
                    "name": "D3",
                    "midi": 50,
                    "time": 158.23264258333484,
                    "velocity": 0.7874015748031497,
                    "duration": 0.04310341666666773
                },
                {
                    "name": "D2",
                    "midi": 38,
                    "time": 158.2757460000015,
                    "velocity": 0.7874015748031497,
                    "duration": 0.10775854166666932
                },
                {
                    "name": "D3",
                    "midi": 50,
                    "time": 158.5343665000015,
                    "velocity": 0.7874015748031497,
                    "duration": 0.10775854166666932
                },
                {
                    "name": "D3",
                    "midi": 50,
                    "time": 158.79298700000152,
                    "velocity": 0.7874015748031497,
                    "duration": 0.10775854166666932
                },
                {
                    "name": "D3",
                    "midi": 50,
                    "time": 159.05160750000152,
                    "velocity": 0.7874015748031497,
                    "duration": 0.10775854166666932
                },
                {
                    "name": "D3",
                    "midi": 50,
                    "time": 159.31022800000153,
                    "velocity": 0.7874015748031497,
                    "duration": 0.10775854166666932
                },
                {
                    "name": "D3",
                    "midi": 50,
                    "time": 159.56884850000154,
                    "velocity": 0.7874015748031497,
                    "duration": 0.10775854166666932
                },
                {
                    "name": "D3",
                    "midi": 50,
                    "time": 159.82746900000154,
                    "velocity": 0.7874015748031497,
                    "duration": 0.06465512500000159
                },
                {
                    "name": "F#3",
                    "midi": 54,
                    "time": 159.89212412500154,
                    "velocity": 0.7874015748031497,
                    "duration": 0.06465512500000159
                },
                {
                    "name": "A3",
                    "midi": 57,
                    "time": 159.95677925000155,
                    "velocity": 0.7874015748031497,
                    "duration": 0.06465512500000159
                },
                {
                    "name": "D4",
                    "midi": 62,
                    "time": 160.02143437500155,
                    "velocity": 0.7874015748031497,
                    "duration": 0.06465512500000159
                },
                {
                    "name": "D3",
                    "midi": 50,
                    "time": 161.63781250000156,
                    "velocity": 0.7874015748031497,
                    "duration": 0.10775854166666932
                },
                {
                    "name": "D3",
                    "midi": 50,
                    "time": 161.89643300000157,
                    "velocity": 0.7874015748031497,
                    "duration": 0.10775854166666932
                },
                {
                    "name": "D3",
                    "midi": 50,
                    "time": 162.15505350000157,
                    "velocity": 0.7874015748031497,
                    "duration": 0.10775854166666932
                },
                {
                    "name": "D3",
                    "midi": 50,
                    "time": 162.41367400000158,
                    "velocity": 0.7874015748031497,
                    "duration": 0.10775854166666932
                },
                {
                    "name": "D3",
                    "midi": 50,
                    "time": 162.67229450000158,
                    "velocity": 0.7874015748031497,
                    "duration": 0.10775854166666932
                },
                {
                    "name": "D3",
                    "midi": 50,
                    "time": 162.9309150000016,
                    "velocity": 0.7874015748031497,
                    "duration": 0.05172410000000127
                },
                {
                    "name": "F#3",
                    "midi": 54,
                    "time": 162.9826391000016,
                    "velocity": 0.7874015748031497,
                    "duration": 0.05172410000000127
                },
                {
                    "name": "A3",
                    "midi": 57,
                    "time": 163.0343632000016,
                    "velocity": 0.7874015748031497,
                    "duration": 0.05172410000000127
                },
                {
                    "name": "D4",
                    "midi": 62,
                    "time": 163.0860873000016,
                    "velocity": 0.7874015748031497,
                    "duration": 0.05172410000000127
                },
                {
                    "name": "F#4",
                    "midi": 66,
                    "time": 163.1378114000016,
                    "velocity": 0.7874015748031497,
                    "duration": 0.05172410000000127
                },
                {
                    "name": "D3",
                    "midi": 50,
                    "time": 164.7412585000016,
                    "velocity": 0.7874015748031497,
                    "duration": 0.10775854166666932
                },
                {
                    "name": "D3",
                    "midi": 50,
                    "time": 164.9998790000016,
                    "velocity": 0.7874015748031497,
                    "duration": 0.10775854166666932
                },
                {
                    "name": "D3",
                    "midi": 50,
                    "time": 165.25849950000162,
                    "velocity": 0.7874015748031497,
                    "duration": 0.10775854166666932
                },
                {
                    "name": "D3",
                    "midi": 50,
                    "time": 165.51712000000163,
                    "velocity": 0.7874015748031497,
                    "duration": 0.10775854166666932
                },
                {
                    "name": "D3",
                    "midi": 50,
                    "time": 165.77574050000163,
                    "velocity": 0.7874015748031497,
                    "duration": 0.10775854166666932
                },
                {
                    "name": "D3",
                    "midi": 50,
                    "time": 166.03436100000164,
                    "velocity": 0.7874015748031497,
                    "duration": 0.07327580833333514
                },
                {
                    "name": "F#3",
                    "midi": 54,
                    "time": 166.10763680833497,
                    "velocity": 0.7874015748031497,
                    "duration": 0.07327580833333514
                },
                {
                    "name": "A3",
                    "midi": 57,
                    "time": 166.1809126166683,
                    "velocity": 0.7874015748031497,
                    "duration": 0.07327580833333514
                },
                {
                    "name": "D4",
                    "midi": 62,
                    "time": 166.25418842500164,
                    "velocity": 0.7874015748031497,
                    "duration": 0.07327580833333514
                },
                {
                    "name": "F#4",
                    "midi": 66,
                    "time": 166.32746423333498,
                    "velocity": 0.7874015748031497,
                    "duration": 0.07327580833333514
                },
                {
                    "name": "A4",
                    "midi": 69,
                    "time": 166.4007400416683,
                    "velocity": 0.7874015748031497,
                    "duration": 0.07327580833333514
                },
                {
                    "name": "C5",
                    "midi": 72,
                    "time": 166.47401585000165,
                    "velocity": 0.7874015748031497,
                    "duration": 0.8491373083333258
                },
                {
                    "name": "F#4",
                    "midi": 66,
                    "time": 167.32746350000164,
                    "velocity": 0.7874015748031497,
                    "duration": 0.2543101583333396
                },
                {
                    "name": "G4",
                    "midi": 67,
                    "time": 167.58608400000165,
                    "velocity": 0.7874015748031497,
                    "duration": 0.2543101583333396
                },
                {
                    "name": "F4",
                    "midi": 65,
                    "time": 167.84470450000165,
                    "velocity": 0.7874015748031497,
                    "duration": 0.2543101583333396
                },
                {
                    "name": "D#4",
                    "midi": 63,
                    "time": 168.10332500000166,
                    "velocity": 0.7874015748031497,
                    "duration": 0.2543101583333396
                },
                {
                    "name": "D4",
                    "midi": 62,
                    "time": 168.36194550000167,
                    "velocity": 0.7874015748031497,
                    "duration": 0.2543101583333396
                },
                {
                    "name": "C4",
                    "midi": 60,
                    "time": 168.62056600000167,
                    "velocity": 0.7874015748031497,
                    "duration": 0.2543101583333396
                },
                {
                    "name": "D4",
                    "midi": 62,
                    "time": 168.87918650000168,
                    "velocity": 0.7874015748031497,
                    "duration": 0.2543101583333396
                },
                {
                    "name": "G3",
                    "midi": 55,
                    "time": 169.1378070000017,
                    "velocity": 0.7874015748031497,
                    "duration": 1.1163784916666657
                },
                {
                    "name": "D3",
                    "midi": 50,
                    "time": 170.25849583333502,
                    "velocity": 0.7874015748031497,
                    "duration": 0.08620683333333545
                },
                {
                    "name": "A#2",
                    "midi": 46,
                    "time": 170.34470266666835,
                    "velocity": 0.7874015748031497,
                    "duration": 0.08620683333333545
                },
                {
                    "name": "G2",
                    "midi": 43,
                    "time": 170.4309095000017,
                    "velocity": 0.7874015748031497,
                    "duration": 0.08620683333333545
                },
                {
                    "name": "D2",
                    "midi": 38,
                    "time": 170.51711633333503,
                    "velocity": 0.7874015748031497,
                    "duration": 0.08620683333333545
                },
                {
                    "name": "G1",
                    "midi": 31,
                    "time": 170.60332316666836,
                    "velocity": 0.7874015748031497,
                    "duration": 0.08620683333333545
                }
            ],
            "controlChanges": {
                "7": [
                    {
                        "number": 7,
                        "time": 0,
                        "value": 0.7480314960629921
                    }
                ],
                "10": [
                    {
                        "number": 10,
                        "time": 0,
                        "value": 0.7480314960629921
                    }
                ]
            },
            "id": 2,
            "instrumentNumber": 6,
            "instrument": "harpsichord",
            "instrumentFamily": "piano",
            "channelNumber": 1,
            "isPercussion": false
        },
        {
            "startTime": 0,
            "duration": 0,
            "length": 0,
            "notes": [],
            "controlChanges": {},
            "id": 3
        },
        {
            "startTime": 0,
            "duration": 0,
            "length": 0,
            "notes": [],
            "controlChanges": {},
            "id": 4
        }
    ]
}