{
    "header": {
        "PPQ": 1024,
        "timeSignature": [
            2,
            4
        ],
        "bpm": 128,
        "name": ""
    },
    "startTime": 0,
    "duration": 300.9700012207031,
    "tracks": [
        {
            "startTime": 0,
            "duration": 0,
            "length": 0,
            "notes": [],
            "controlChanges": {},
            "id": 0
        },
        {
            "startTime": 0.00457763671875,
            "duration": 300.9700012207031,
            "length": 3421,
            "notes": [
                {
                    "name": "F#5",
                    "midi": 78,
                    "time": 0.00457763671875,
                    "velocity": 1,
                    "duration": 0.47149658203125
                },
                {
                    "name": "D4",
                    "midi": 62,
                    "time": 0.00457763671875,
                    "velocity": 1,
                    "duration": 0.227508544921875
                },
                {
                    "name": "E4",
                    "midi": 64,
                    "time": 0.2508544921875,
                    "velocity": 0.9763779527559056,
                    "duration": 0.2069091796875
                },
                {
                    "name": "A4",
                    "midi": 69,
                    "time": 0.476531982421875,
                    "velocity": 0.8818897637795275,
                    "duration": 0.207366943359375
                },
                {
                    "name": "F#4",
                    "midi": 66,
                    "time": 0.476531982421875,
                    "velocity": 0.9763779527559056,
                    "duration": 0.207366943359375
                },
                {
                    "name": "A4",
                    "midi": 69,
                    "time": 0.702667236328125,
                    "velocity": 0.8818897637795275,
                    "duration": 0.216064453125
                },
                {
                    "name": "D4",
                    "midi": 62,
                    "time": 0.702667236328125,
                    "velocity": 0.9763779527559056,
                    "duration": 0.216064453125
                },
                {
                    "name": "B4",
                    "midi": 71,
                    "time": 0.9375,
                    "velocity": 1,
                    "duration": 0.0860595703125
                },
                {
                    "name": "E4",
                    "midi": 64,
                    "time": 0.9375,
                    "velocity": 1,
                    "duration": 0.233917236328125
                },
                {
                    "name": "A4",
                    "midi": 69,
                    "time": 1.014404296875,
                    "velocity": 0.9763779527559056,
                    "duration": 0.0860595703125
                },
                {
                    "name": "B4",
                    "midi": 71,
                    "time": 1.09130859375,
                    "velocity": 0.9763779527559056,
                    "duration": 0.0860595703125
                },
                {
                    "name": "A4",
                    "midi": 69,
                    "time": 1.168212890625,
                    "velocity": 0.937007874015748,
                    "duration": 0.219268798828125
                },
                {
                    "name": "F#4",
                    "midi": 66,
                    "time": 1.190185546875,
                    "velocity": 1,
                    "duration": 0.211944580078125
                },
                {
                    "name": "G4",
                    "midi": 67,
                    "time": 1.4208984375,
                    "velocity": 0.9763779527559056,
                    "duration": 0.466461181640625
                },
                {
                    "name": "E4",
                    "midi": 64,
                    "time": 1.4208984375,
                    "velocity": 0.9763779527559056,
                    "duration": 0.211944580078125
                },
                {
                    "name": "D4",
                    "midi": 62,
                    "time": 1.651611328125,
                    "velocity": 0.9763779527559056,
                    "duration": 0.217437744140625
                },
                {
                    "name": "D4",
                    "midi": 62,
                    "time": 1.875,
                    "velocity": 0.9763779527559056,
                    "duration": 0.061798095703125
                },
                {
                    "name": "E5",
                    "midi": 76,
                    "time": 1.8878173828125,
                    "velocity": 0.9763779527559056,
                    "duration": 0.46142578125
                },
                {
                    "name": "C#4",
                    "midi": 61,
                    "time": 1.930389404296875,
                    "velocity": 0.9763779527559056,
                    "duration": 0.061798095703125
                },
                {
                    "name": "D4",
                    "midi": 62,
                    "time": 1.98577880859375,
                    "velocity": 0.9763779527559056,
                    "duration": 0.061798095703125
                },
                {
                    "name": "C#4",
                    "midi": 61,
                    "time": 2.041168212890625,
                    "velocity": 0.937007874015748,
                    "duration": 0.06317138671875
                },
                {
                    "name": "B3",
                    "midi": 59,
                    "time": 2.122650146484375,
                    "velocity": 0.9763779527559056,
                    "duration": 0.208282470703125
                },
                {
                    "name": "G4",
                    "midi": 67,
                    "time": 2.349700927734375,
                    "velocity": 0.8818897637795275,
                    "duration": 0.208740234375
                },
                {
                    "name": "C#4",
                    "midi": 61,
                    "time": 2.349700927734375,
                    "velocity": 0.9763779527559056,
                    "duration": 0.208740234375
                },
                {
                    "name": "G4",
                    "midi": 67,
                    "time": 2.57720947265625,
                    "velocity": 0.8818897637795275,
                    "duration": 0.216522216796875
                },
                {
                    "name": "A3",
                    "midi": 57,
                    "time": 2.57720947265625,
                    "velocity": 0.9763779527559056,
                    "duration": 0.216522216796875
                },
                {
                    "name": "A4",
                    "midi": 69,
                    "time": 2.8125,
                    "velocity": 1,
                    "duration": 0.0860595703125
                },
                {
                    "name": "D4",
                    "midi": 62,
                    "time": 2.8125,
                    "velocity": 1,
                    "duration": 0.233917236328125
                },
                {
                    "name": "G4",
                    "midi": 67,
                    "time": 2.889404296875,
                    "velocity": 0.9763779527559056,
                    "duration": 0.0860595703125
                },
                {
                    "name": "A4",
                    "midi": 69,
                    "time": 2.96630859375,
                    "velocity": 0.9763779527559056,
                    "duration": 0.0860595703125
                },
                {
                    "name": "G4",
                    "midi": 67,
                    "time": 3.043212890625,
                    "velocity": 0.937007874015748,
                    "duration": 0.219268798828125
                },
                {
                    "name": "A3",
                    "midi": 57,
                    "time": 3.065185546875,
                    "velocity": 1,
                    "duration": 0.211944580078125
                },
                {
                    "name": "F#4",
                    "midi": 66,
                    "time": 3.2958984375,
                    "velocity": 0.9763779527559056,
                    "duration": 0.466461181640625
                },
                {
                    "name": "D3",
                    "midi": 50,
                    "time": 3.2958984375,
                    "velocity": 0.9763779527559056,
                    "duration": 0.211944580078125
                },
                {
                    "name": "E3",
                    "midi": 52,
                    "time": 3.526611328125,
                    "velocity": 0.9763779527559056,
                    "duration": 0.217437744140625
                },
                {
                    "name": "D5",
                    "midi": 74,
                    "time": 3.7628173828125,
                    "velocity": 0.9763779527559056,
                    "duration": 0.46142578125
                },
                {
                    "name": "F#3",
                    "midi": 54,
                    "time": 3.7628173828125,
                    "velocity": 0.9763779527559056,
                    "duration": 0.216064453125
                },
                {
                    "name": "G3",
                    "midi": 55,
                    "time": 3.997650146484375,
                    "velocity": 0.9763779527559056,
                    "duration": 0.208282470703125
                },
                {
                    "name": "D4",
                    "midi": 62,
                    "time": 4.224700927734375,
                    "velocity": 0.9763779527559056,
                    "duration": 0.208740234375
                },
                {
                    "name": "A3",
                    "midi": 57,
                    "time": 4.224700927734375,
                    "velocity": 0.9763779527559056,
                    "duration": 0.208740234375
                },
                {
                    "name": "D4",
                    "midi": 62,
                    "time": 4.45220947265625,
                    "velocity": 0.9763779527559056,
                    "duration": 0.216522216796875
                },
                {
                    "name": "A3",
                    "midi": 57,
                    "time": 4.453125,
                    "velocity": 0.9763779527559056,
                    "duration": 0.061798095703125
                },
                {
                    "name": "G3",
                    "midi": 55,
                    "time": 4.508514404296875,
                    "velocity": 0.9763779527559056,
                    "duration": 0.061798095703125
                },
                {
                    "name": "A3",
                    "midi": 57,
                    "time": 4.56390380859375,
                    "velocity": 0.9763779527559056,
                    "duration": 0.061798095703125
                },
                {
                    "name": "G3",
                    "midi": 55,
                    "time": 4.619293212890625,
                    "velocity": 0.937007874015748,
                    "duration": 0.06317138671875
                },
                {
                    "name": "D4",
                    "midi": 62,
                    "time": 4.6875,
                    "velocity": 1,
                    "duration": 0.233917236328125
                },
                {
                    "name": "F#3",
                    "midi": 54,
                    "time": 4.6875,
                    "velocity": 1,
                    "duration": 0.233917236328125
                },
                {
                    "name": "D5",
                    "midi": 74,
                    "time": 4.940185546875,
                    "velocity": 1,
                    "duration": 0.211944580078125
                },
                {
                    "name": "G3",
                    "midi": 55,
                    "time": 4.940185546875,
                    "velocity": 1,
                    "duration": 0.211944580078125
                },
                {
                    "name": "G3",
                    "midi": 55,
                    "time": 5.15625,
                    "velocity": 0.9763779527559056,
                    "duration": 0.061798095703125
                },
                {
                    "name": "D4",
                    "midi": 62,
                    "time": 5.1708984375,
                    "velocity": 0.9763779527559056,
                    "duration": 0.211944580078125
                },
                {
                    "name": "F#3",
                    "midi": 54,
                    "time": 5.211639404296875,
                    "velocity": 0.9763779527559056,
                    "duration": 0.061798095703125
                },
                {
                    "name": "G3",
                    "midi": 55,
                    "time": 5.26702880859375,
                    "velocity": 0.9763779527559056,
                    "duration": 0.061798095703125
                },
                {
                    "name": "F#3",
                    "midi": 54,
                    "time": 5.322418212890625,
                    "velocity": 0.937007874015748,
                    "duration": 0.06317138671875
                },
                {
                    "name": "E4",
                    "midi": 64,
                    "time": 5.401611328125,
                    "velocity": 0.9763779527559056,
                    "duration": 0.217437744140625
                },
                {
                    "name": "E3",
                    "midi": 52,
                    "time": 5.401611328125,
                    "velocity": 0.9763779527559056,
                    "duration": 0.217437744140625
                },
                {
                    "name": "F#4",
                    "midi": 66,
                    "time": 5.6378173828125,
                    "velocity": 0.9763779527559056,
                    "duration": 0.216064453125
                },
                {
                    "name": "D3",
                    "midi": 50,
                    "time": 5.6378173828125,
                    "velocity": 0.9763779527559056,
                    "duration": 0.216064453125
                },
                {
                    "name": "E4",
                    "midi": 64,
                    "time": 5.872650146484375,
                    "velocity": 0.9763779527559056,
                    "duration": 0.208282470703125
                },
                {
                    "name": "C#3",
                    "midi": 49,
                    "time": 5.872650146484375,
                    "velocity": 0.9763779527559056,
                    "duration": 0.208282470703125
                },
                {
                    "name": "D3",
                    "midi": 50,
                    "time": 6.09375,
                    "velocity": 0.9763779527559056,
                    "duration": 0.084228515625
                },
                {
                    "name": "F#4",
                    "midi": 66,
                    "time": 6.099700927734375,
                    "velocity": 0.9763779527559056,
                    "duration": 0.208740234375
                },
                {
                    "name": "C#3",
                    "midi": 49,
                    "time": 6.169281005859375,
                    "velocity": 0.9763779527559056,
                    "duration": 0.084228515625
                },
                {
                    "name": "D3",
                    "midi": 50,
                    "time": 6.24481201171875,
                    "velocity": 0.937007874015748,
                    "duration": 0.076904296875
                },
                {
                    "name": "G4",
                    "midi": 67,
                    "time": 6.32720947265625,
                    "velocity": 0.9763779527559056,
                    "duration": 0.216522216796875
                },
                {
                    "name": "G2",
                    "midi": 43,
                    "time": 6.32720947265625,
                    "velocity": 0.9763779527559056,
                    "duration": 0.216522216796875
                },
                {
                    "name": "F#4",
                    "midi": 66,
                    "time": 6.5625,
                    "velocity": 1,
                    "duration": 0.085601806640625
                },
                {
                    "name": "A2",
                    "midi": 45,
                    "time": 6.5625,
                    "velocity": 1,
                    "duration": 0.233917236328125
                },
                {
                    "name": "E4",
                    "midi": 64,
                    "time": 6.638946533203125,
                    "velocity": 0.9763779527559056,
                    "duration": 0.085601806640625
                },
                {
                    "name": "F#4",
                    "midi": 66,
                    "time": 6.71539306640625,
                    "velocity": 0.9763779527559056,
                    "duration": 0.085601806640625
                },
                {
                    "name": "E4",
                    "midi": 64,
                    "time": 6.791839599609375,
                    "velocity": 0.937007874015748,
                    "duration": 0.708160400390625
                },
                {
                    "name": "E3",
                    "midi": 52,
                    "time": 6.815185546875,
                    "velocity": 1,
                    "duration": 0.211944580078125
                },
                {
                    "name": "A3",
                    "midi": 57,
                    "time": 7.0458984375,
                    "velocity": 0.9763779527559056,
                    "duration": 0.211944580078125
                },
                {
                    "name": "G3",
                    "midi": 55,
                    "time": 7.276611328125,
                    "velocity": 0.9763779527559056,
                    "duration": 0.217437744140625
                },
                {
                    "name": "G3",
                    "midi": 55,
                    "time": 7.5,
                    "velocity": 0.9763779527559056,
                    "duration": 0.061798095703125
                },
                {
                    "name": "F#5",
                    "midi": 78,
                    "time": 7.5128173828125,
                    "velocity": 0.9763779527559056,
                    "duration": 0.46142578125
                },
                {
                    "name": "F#3",
                    "midi": 54,
                    "time": 7.555389404296875,
                    "velocity": 0.9763779527559056,
                    "duration": 0.061798095703125
                },
                {
                    "name": "G3",
                    "midi": 55,
                    "time": 7.61077880859375,
                    "velocity": 0.9763779527559056,
                    "duration": 0.061798095703125
                },
                {
                    "name": "F#3",
                    "midi": 54,
                    "time": 7.666168212890625,
                    "velocity": 0.937007874015748,
                    "duration": 0.06317138671875
                },
                {
                    "name": "E3",
                    "midi": 52,
                    "time": 7.747650146484375,
                    "velocity": 0.9763779527559056,
                    "duration": 0.208282470703125
                },
                {
                    "name": "A4",
                    "midi": 69,
                    "time": 7.974700927734375,
                    "velocity": 0.8818897637795275,
                    "duration": 0.208740234375
                },
                {
                    "name": "F#3",
                    "midi": 54,
                    "time": 7.974700927734375,
                    "velocity": 0.9763779527559056,
                    "duration": 0.208740234375
                },
                {
                    "name": "A4",
                    "midi": 69,
                    "time": 8.20220947265625,
                    "velocity": 0.8818897637795275,
                    "duration": 0.216522216796875
                },
                {
                    "name": "D3",
                    "midi": 50,
                    "time": 8.20220947265625,
                    "velocity": 0.9763779527559056,
                    "duration": 0.216522216796875
                },
                {
                    "name": "B4",
                    "midi": 71,
                    "time": 8.4375,
                    "velocity": 1,
                    "duration": 0.086517333984375
                },
                {
                    "name": "E3",
                    "midi": 52,
                    "time": 8.4375,
                    "velocity": 1,
                    "duration": 0.233917236328125
                },
                {
                    "name": "A4",
                    "midi": 69,
                    "time": 8.514862060546875,
                    "velocity": 0.9763779527559056,
                    "duration": 0.086517333984375
                },
                {
                    "name": "B4",
                    "midi": 71,
                    "time": 8.59222412109375,
                    "velocity": 0.9763779527559056,
                    "duration": 0.086517333984375
                },
                {
                    "name": "A4",
                    "midi": 69,
                    "time": 8.669586181640625,
                    "velocity": 0.937007874015748,
                    "duration": 0.2178955078125
                },
                {
                    "name": "F#3",
                    "midi": 54,
                    "time": 8.690185546875,
                    "velocity": 1,
                    "duration": 0.211944580078125
                },
                {
                    "name": "G4",
                    "midi": 67,
                    "time": 8.9208984375,
                    "velocity": 0.9763779527559056,
                    "duration": 0.466461181640625
                },
                {
                    "name": "E3",
                    "midi": 52,
                    "time": 8.9208984375,
                    "velocity": 0.9763779527559056,
                    "duration": 0.211944580078125
                },
                {
                    "name": "D3",
                    "midi": 50,
                    "time": 9.151611328125,
                    "velocity": 0.9763779527559056,
                    "duration": 0.217437744140625
                },
                {
                    "name": "D3",
                    "midi": 50,
                    "time": 9.375,
                    "velocity": 0.9763779527559056,
                    "duration": 0.061798095703125
                },
                {
                    "name": "E5",
                    "midi": 76,
                    "time": 9.3878173828125,
                    "velocity": 0.9763779527559056,
                    "duration": 0.46142578125
                },
                {
                    "name": "C#3",
                    "midi": 49,
                    "time": 9.430389404296875,
                    "velocity": 0.9763779527559056,
                    "duration": 0.061798095703125
                },
                {
                    "name": "D3",
                    "midi": 50,
                    "time": 9.48577880859375,
                    "velocity": 0.9763779527559056,
                    "duration": 0.061798095703125
                },
                {
                    "name": "C#3",
                    "midi": 49,
                    "time": 9.541168212890625,
                    "velocity": 0.937007874015748,
                    "duration": 0.06317138671875
                },
                {
                    "name": "B2",
                    "midi": 47,
                    "time": 9.622650146484375,
                    "velocity": 0.9763779527559056,
                    "duration": 0.208282470703125
                },
                {
                    "name": "G4",
                    "midi": 67,
                    "time": 9.849700927734375,
                    "velocity": 0.8818897637795275,
                    "duration": 0.208740234375
                },
                {
                    "name": "C#3",
                    "midi": 49,
                    "time": 9.849700927734375,
                    "velocity": 0.9763779527559056,
                    "duration": 0.208740234375
                },
                {
                    "name": "G4",
                    "midi": 67,
                    "time": 10.07720947265625,
                    "velocity": 0.8818897637795275,
                    "duration": 0.216522216796875
                },
                {
                    "name": "A2",
                    "midi": 45,
                    "time": 10.07720947265625,
                    "velocity": 0.9763779527559056,
                    "duration": 0.216522216796875
                },
                {
                    "name": "A4",
                    "midi": 69,
                    "time": 10.3125,
                    "velocity": 1,
                    "duration": 0.086517333984375
                },
                {
                    "name": "D3",
                    "midi": 50,
                    "time": 10.3125,
                    "velocity": 1,
                    "duration": 0.233917236328125
                },
                {
                    "name": "G4",
                    "midi": 67,
                    "time": 10.389862060546875,
                    "velocity": 0.9763779527559056,
                    "duration": 0.086517333984375
                },
                {
                    "name": "A4",
                    "midi": 69,
                    "time": 10.46722412109375,
                    "velocity": 0.9763779527559056,
                    "duration": 0.086517333984375
                },
                {
                    "name": "G4",
                    "midi": 67,
                    "time": 10.544586181640625,
                    "velocity": 0.937007874015748,
                    "duration": 0.2178955078125
                },
                {
                    "name": "C#3",
                    "midi": 49,
                    "time": 10.565185546875,
                    "velocity": 1,
                    "duration": 0.211944580078125
                },
                {
                    "name": "F#4",
                    "midi": 66,
                    "time": 10.7958984375,
                    "velocity": 0.9763779527559056,
                    "duration": 0.466461181640625
                },
                {
                    "name": "D3",
                    "midi": 50,
                    "time": 10.7958984375,
                    "velocity": 0.9763779527559056,
                    "duration": 0.211944580078125
                },
                {
                    "name": "E3",
                    "midi": 52,
                    "time": 11.026611328125,
                    "velocity": 0.9763779527559056,
                    "duration": 0.217437744140625
                },
                {
                    "name": "D5",
                    "midi": 74,
                    "time": 11.2628173828125,
                    "velocity": 0.9763779527559056,
                    "duration": 0.46142578125
                },
                {
                    "name": "F#3",
                    "midi": 54,
                    "time": 11.2628173828125,
                    "velocity": 0.9763779527559056,
                    "duration": 0.216064453125
                },
                {
                    "name": "G3",
                    "midi": 55,
                    "time": 11.497650146484375,
                    "velocity": 0.9763779527559056,
                    "duration": 0.208282470703125
                },
                {
                    "name": "D4",
                    "midi": 62,
                    "time": 11.724700927734375,
                    "velocity": 0.9763779527559056,
                    "duration": 0.208740234375
                },
                {
                    "name": "A3",
                    "midi": 57,
                    "time": 11.724700927734375,
                    "velocity": 0.9763779527559056,
                    "duration": 0.208740234375
                },
                {
                    "name": "D4",
                    "midi": 62,
                    "time": 11.95220947265625,
                    "velocity": 0.9763779527559056,
                    "duration": 0.216522216796875
                },
                {
                    "name": "A3",
                    "midi": 57,
                    "time": 11.953125,
                    "velocity": 0.9763779527559056,
                    "duration": 0.061798095703125
                },
                {
                    "name": "G3",
                    "midi": 55,
                    "time": 12.008514404296875,
                    "velocity": 0.9763779527559056,
                    "duration": 0.061798095703125
                },
                {
                    "name": "A3",
                    "midi": 57,
                    "time": 12.06390380859375,
                    "velocity": 0.9763779527559056,
                    "duration": 0.061798095703125
                },
                {
                    "name": "G3",
                    "midi": 55,
                    "time": 12.119293212890625,
                    "velocity": 0.937007874015748,
                    "duration": 0.06317138671875
                },
                {
                    "name": "D4",
                    "midi": 62,
                    "time": 12.1875,
                    "velocity": 1,
                    "duration": 0.233917236328125
                },
                {
                    "name": "F#3",
                    "midi": 54,
                    "time": 12.1875,
                    "velocity": 1,
                    "duration": 0.233917236328125
                },
                {
                    "name": "D5",
                    "midi": 74,
                    "time": 12.440185546875,
                    "velocity": 1,
                    "duration": 0.211944580078125
                },
                {
                    "name": "G3",
                    "midi": 55,
                    "time": 12.440185546875,
                    "velocity": 1,
                    "duration": 0.211944580078125
                },
                {
                    "name": "G3",
                    "midi": 55,
                    "time": 12.65625,
                    "velocity": 0.9763779527559056,
                    "duration": 0.061798095703125
                },
                {
                    "name": "D4",
                    "midi": 62,
                    "time": 12.6708984375,
                    "velocity": 0.9763779527559056,
                    "duration": 0.211944580078125
                },
                {
                    "name": "F#3",
                    "midi": 54,
                    "time": 12.711639404296875,
                    "velocity": 0.9763779527559056,
                    "duration": 0.061798095703125
                },
                {
                    "name": "G3",
                    "midi": 55,
                    "time": 12.76702880859375,
                    "velocity": 0.9763779527559056,
                    "duration": 0.061798095703125
                },
                {
                    "name": "F#3",
                    "midi": 54,
                    "time": 12.822418212890625,
                    "velocity": 0.937007874015748,
                    "duration": 0.06317138671875
                },
                {
                    "name": "E4",
                    "midi": 64,
                    "time": 12.901611328125,
                    "velocity": 0.9763779527559056,
                    "duration": 0.217437744140625
                },
                {
                    "name": "E3",
                    "midi": 52,
                    "time": 12.901611328125,
                    "velocity": 0.9763779527559056,
                    "duration": 0.217437744140625
                },
                {
                    "name": "F#4",
                    "midi": 66,
                    "time": 13.125,
                    "velocity": 0.9763779527559056,
                    "duration": 0.084228515625
                },
                {
                    "name": "D3",
                    "midi": 50,
                    "time": 13.1378173828125,
                    "velocity": 0.9763779527559056,
                    "duration": 0.216064453125
                },
                {
                    "name": "E4",
                    "midi": 64,
                    "time": 13.200531005859375,
                    "velocity": 0.9763779527559056,
                    "duration": 0.084228515625
                },
                {
                    "name": "F#4",
                    "midi": 66,
                    "time": 13.27606201171875,
                    "velocity": 0.937007874015748,
                    "duration": 0.076904296875
                },
                {
                    "name": "G4",
                    "midi": 67,
                    "time": 13.372650146484375,
                    "velocity": 0.9763779527559056,
                    "duration": 0.208282470703125
                },
                {
                    "name": "G2",
                    "midi": 43,
                    "time": 13.372650146484375,
                    "velocity": 0.9763779527559056,
                    "duration": 0.208282470703125
                },
                {
                    "name": "E4",
                    "midi": 64,
                    "time": 13.599700927734375,
                    "velocity": 0.9763779527559056,
                    "duration": 0.208740234375
                },
                {
                    "name": "A2",
                    "midi": 45,
                    "time": 13.599700927734375,
                    "velocity": 0.9763779527559056,
                    "duration": 0.208740234375
                },
                {
                    "name": "F#4",
                    "midi": 66,
                    "time": 13.82720947265625,
                    "velocity": 0.9763779527559056,
                    "duration": 0.216522216796875
                },
                {
                    "name": "A1",
                    "midi": 33,
                    "time": 13.82720947265625,
                    "velocity": 0.937007874015748,
                    "duration": 0.216522216796875
                },
                {
                    "name": "E4",
                    "midi": 64,
                    "time": 14.0625,
                    "velocity": 1,
                    "duration": 0.08697509765625
                },
                {
                    "name": "D2",
                    "midi": 38,
                    "time": 14.0625,
                    "velocity": 0.984251968503937,
                    "duration": 0.232086181640625
                },
                {
                    "name": "D4",
                    "midi": 62,
                    "time": 14.14031982421875,
                    "velocity": 0.9763779527559056,
                    "duration": 0.08697509765625
                },
                {
                    "name": "E4",
                    "midi": 64,
                    "time": 14.2181396484375,
                    "velocity": 0.9763779527559056,
                    "duration": 0.08697509765625
                },
                {
                    "name": "D4",
                    "midi": 62,
                    "time": 14.29595947265625,
                    "velocity": 0.937007874015748,
                    "duration": 0.70404052734375
                },
                {
                    "name": "A2",
                    "midi": 45,
                    "time": 14.3133544921875,
                    "velocity": 0.9763779527559056,
                    "duration": 0.2069091796875
                },
                {
                    "name": "D3",
                    "midi": 50,
                    "time": 14.539031982421875,
                    "velocity": 0.9763779527559056,
                    "duration": 0.207366943359375
                },
                {
                    "name": "D2",
                    "midi": 38,
                    "time": 14.765167236328125,
                    "velocity": 0.9606299212598425,
                    "duration": 0.216064453125
                },
                {
                    "name": "F#5",
                    "midi": 78,
                    "time": 15.00457763671875,
                    "velocity": 1,
                    "duration": 0.47149658203125
                },
                {
                    "name": "D4",
                    "midi": 62,
                    "time": 15.00457763671875,
                    "velocity": 1,
                    "duration": 0.227508544921875
                },
                {
                    "name": "E4",
                    "midi": 64,
                    "time": 15.2508544921875,
                    "velocity": 0.9763779527559056,
                    "duration": 0.2069091796875
                },
                {
                    "name": "A4",
                    "midi": 69,
                    "time": 15.476531982421875,
                    "velocity": 0.8818897637795275,
                    "duration": 0.207366943359375
                },
                {
                    "name": "F#4",
                    "midi": 66,
                    "time": 15.476531982421875,
                    "velocity": 0.9763779527559056,
                    "duration": 0.207366943359375
                },
                {
                    "name": "A4",
                    "midi": 69,
                    "time": 15.702667236328125,
                    "velocity": 0.8818897637795275,
                    "duration": 0.216064453125
                },
                {
                    "name": "D4",
                    "midi": 62,
                    "time": 15.702667236328125,
                    "velocity": 0.9763779527559056,
                    "duration": 0.216064453125
                },
                {
                    "name": "B4",
                    "midi": 71,
                    "time": 15.9375,
                    "velocity": 1,
                    "duration": 0.0860595703125
                },
                {
                    "name": "E4",
                    "midi": 64,
                    "time": 15.9375,
                    "velocity": 1,
                    "duration": 0.233917236328125
                },
                {
                    "name": "A4",
                    "midi": 69,
                    "time": 16.014404296875,
                    "velocity": 0.9763779527559056,
                    "duration": 0.0860595703125
                },
                {
                    "name": "B4",
                    "midi": 71,
                    "time": 16.09130859375,
                    "velocity": 0.9763779527559056,
                    "duration": 0.0860595703125
                },
                {
                    "name": "A4",
                    "midi": 69,
                    "time": 16.168212890625,
                    "velocity": 0.937007874015748,
                    "duration": 0.219268798828125
                },
                {
                    "name": "F#4",
                    "midi": 66,
                    "time": 16.190185546875,
                    "velocity": 1,
                    "duration": 0.211944580078125
                },
                {
                    "name": "G4",
                    "midi": 67,
                    "time": 16.4208984375,
                    "velocity": 0.9763779527559056,
                    "duration": 0.466461181640625
                },
                {
                    "name": "E4",
                    "midi": 64,
                    "time": 16.4208984375,
                    "velocity": 0.9763779527559056,
                    "duration": 0.211944580078125
                },
                {
                    "name": "D4",
                    "midi": 62,
                    "time": 16.651611328125,
                    "velocity": 0.9763779527559056,
                    "duration": 0.217437744140625
                },
                {
                    "name": "D4",
                    "midi": 62,
                    "time": 16.875,
                    "velocity": 0.9763779527559056,
                    "duration": 0.061798095703125
                },
                {
                    "name": "E5",
                    "midi": 76,
                    "time": 16.8878173828125,
                    "velocity": 0.9763779527559056,
                    "duration": 0.46142578125
                },
                {
                    "name": "C#4",
                    "midi": 61,
                    "time": 16.930389404296875,
                    "velocity": 0.9763779527559056,
                    "duration": 0.061798095703125
                },
                {
                    "name": "D4",
                    "midi": 62,
                    "time": 16.98577880859375,
                    "velocity": 0.9763779527559056,
                    "duration": 0.061798095703125
                },
                {
                    "name": "C#4",
                    "midi": 61,
                    "time": 17.041168212890625,
                    "velocity": 0.937007874015748,
                    "duration": 0.06317138671875
                },
                {
                    "name": "B3",
                    "midi": 59,
                    "time": 17.122650146484375,
                    "velocity": 0.9763779527559056,
                    "duration": 0.208282470703125
                },
                {
                    "name": "G4",
                    "midi": 67,
                    "time": 17.349700927734375,
                    "velocity": 0.8818897637795275,
                    "duration": 0.208740234375
                },
                {
                    "name": "C#4",
                    "midi": 61,
                    "time": 17.349700927734375,
                    "velocity": 0.9763779527559056,
                    "duration": 0.208740234375
                },
                {
                    "name": "G4",
                    "midi": 67,
                    "time": 17.57720947265625,
                    "velocity": 0.8818897637795275,
                    "duration": 0.216522216796875
                },
                {
                    "name": "A3",
                    "midi": 57,
                    "time": 17.57720947265625,
                    "velocity": 0.9763779527559056,
                    "duration": 0.216522216796875
                },
                {
                    "name": "A4",
                    "midi": 69,
                    "time": 17.8125,
                    "velocity": 1,
                    "duration": 0.0860595703125
                },
                {
                    "name": "D4",
                    "midi": 62,
                    "time": 17.8125,
                    "velocity": 1,
                    "duration": 0.233917236328125
                },
                {
                    "name": "G4",
                    "midi": 67,
                    "time": 17.889404296875,
                    "velocity": 0.9763779527559056,
                    "duration": 0.0860595703125
                },
                {
                    "name": "A4",
                    "midi": 69,
                    "time": 17.96630859375,
                    "velocity": 0.9763779527559056,
                    "duration": 0.0860595703125
                },
                {
                    "name": "G4",
                    "midi": 67,
                    "time": 18.043212890625,
                    "velocity": 0.937007874015748,
                    "duration": 0.219268798828125
                },
                {
                    "name": "A3",
                    "midi": 57,
                    "time": 18.065185546875,
                    "velocity": 1,
                    "duration": 0.211944580078125
                },
                {
                    "name": "F#4",
                    "midi": 66,
                    "time": 18.2958984375,
                    "velocity": 0.9763779527559056,
                    "duration": 0.466461181640625
                },
                {
                    "name": "D3",
                    "midi": 50,
                    "time": 18.2958984375,
                    "velocity": 0.9763779527559056,
                    "duration": 0.211944580078125
                },
                {
                    "name": "E3",
                    "midi": 52,
                    "time": 18.526611328125,
                    "velocity": 0.9763779527559056,
                    "duration": 0.217437744140625
                },
                {
                    "name": "D5",
                    "midi": 74,
                    "time": 18.7628173828125,
                    "velocity": 0.9763779527559056,
                    "duration": 0.46142578125
                },
                {
                    "name": "F#3",
                    "midi": 54,
                    "time": 18.7628173828125,
                    "velocity": 0.9763779527559056,
                    "duration": 0.216064453125
                },
                {
                    "name": "G3",
                    "midi": 55,
                    "time": 18.997650146484375,
                    "velocity": 0.9763779527559056,
                    "duration": 0.208282470703125
                },
                {
                    "name": "D4",
                    "midi": 62,
                    "time": 19.224700927734375,
                    "velocity": 0.9763779527559056,
                    "duration": 0.208740234375
                },
                {
                    "name": "A3",
                    "midi": 57,
                    "time": 19.224700927734375,
                    "velocity": 0.9763779527559056,
                    "duration": 0.208740234375
                },
                {
                    "name": "D4",
                    "midi": 62,
                    "time": 19.45220947265625,
                    "velocity": 0.9763779527559056,
                    "duration": 0.216522216796875
                },
                {
                    "name": "A3",
                    "midi": 57,
                    "time": 19.453125,
                    "velocity": 0.9763779527559056,
                    "duration": 0.061798095703125
                },
                {
                    "name": "G3",
                    "midi": 55,
                    "time": 19.508514404296875,
                    "velocity": 0.9763779527559056,
                    "duration": 0.061798095703125
                },
                {
                    "name": "A3",
                    "midi": 57,
                    "time": 19.56390380859375,
                    "velocity": 0.9763779527559056,
                    "duration": 0.061798095703125
                },
                {
                    "name": "G3",
                    "midi": 55,
                    "time": 19.619293212890625,
                    "velocity": 0.937007874015748,
                    "duration": 0.06317138671875
                },
                {
                    "name": "D4",
                    "midi": 62,
                    "time": 19.6875,
                    "velocity": 1,
                    "duration": 0.233917236328125
                },
                {
                    "name": "F#3",
                    "midi": 54,
                    "time": 19.6875,
                    "velocity": 1,
                    "duration": 0.233917236328125
                },
                {
                    "name": "D5",
                    "midi": 74,
                    "time": 19.940185546875,
                    "velocity": 1,
                    "duration": 0.211944580078125
                },
                {
                    "name": "G3",
                    "midi": 55,
                    "time": 19.940185546875,
                    "velocity": 1,
                    "duration": 0.211944580078125
                },
                {
                    "name": "G3",
                    "midi": 55,
                    "time": 20.15625,
                    "velocity": 0.9763779527559056,
                    "duration": 0.061798095703125
                },
                {
                    "name": "D4",
                    "midi": 62,
                    "time": 20.1708984375,
                    "velocity": 0.9763779527559056,
                    "duration": 0.211944580078125
                },
                {
                    "name": "F#3",
                    "midi": 54,
                    "time": 20.211639404296875,
                    "velocity": 0.9763779527559056,
                    "duration": 0.061798095703125
                },
                {
                    "name": "G3",
                    "midi": 55,
                    "time": 20.26702880859375,
                    "velocity": 0.9763779527559056,
                    "duration": 0.061798095703125
                },
                {
                    "name": "F#3",
                    "midi": 54,
                    "time": 20.322418212890625,
                    "velocity": 0.937007874015748,
                    "duration": 0.06317138671875
                },
                {
                    "name": "E4",
                    "midi": 64,
                    "time": 20.401611328125,
                    "velocity": 0.9763779527559056,
                    "duration": 0.217437744140625
                },
                {
                    "name": "E3",
                    "midi": 52,
                    "time": 20.401611328125,
                    "velocity": 0.9763779527559056,
                    "duration": 0.217437744140625
                },
                {
                    "name": "F#4",
                    "midi": 66,
                    "time": 20.6378173828125,
                    "velocity": 0.9763779527559056,
                    "duration": 0.216064453125
                },
                {
                    "name": "D3",
                    "midi": 50,
                    "time": 20.6378173828125,
                    "velocity": 0.9763779527559056,
                    "duration": 0.216064453125
                },
                {
                    "name": "E4",
                    "midi": 64,
                    "time": 20.872650146484375,
                    "velocity": 0.9763779527559056,
                    "duration": 0.208282470703125
                },
                {
                    "name": "C#3",
                    "midi": 49,
                    "time": 20.872650146484375,
                    "velocity": 0.9763779527559056,
                    "duration": 0.208282470703125
                },
                {
                    "name": "D3",
                    "midi": 50,
                    "time": 21.09375,
                    "velocity": 0.9763779527559056,
                    "duration": 0.084228515625
                },
                {
                    "name": "F#4",
                    "midi": 66,
                    "time": 21.099700927734375,
                    "velocity": 0.9763779527559056,
                    "duration": 0.208740234375
                },
                {
                    "name": "C#3",
                    "midi": 49,
                    "time": 21.169281005859375,
                    "velocity": 0.9763779527559056,
                    "duration": 0.084228515625
                },
                {
                    "name": "D3",
                    "midi": 50,
                    "time": 21.24481201171875,
                    "velocity": 0.937007874015748,
                    "duration": 0.076904296875
                },
                {
                    "name": "G4",
                    "midi": 67,
                    "time": 21.32720947265625,
                    "velocity": 0.9763779527559056,
                    "duration": 0.216522216796875
                },
                {
                    "name": "G2",
                    "midi": 43,
                    "time": 21.32720947265625,
                    "velocity": 0.9763779527559056,
                    "duration": 0.216522216796875
                },
                {
                    "name": "F#4",
                    "midi": 66,
                    "time": 21.5625,
                    "velocity": 1,
                    "duration": 0.085601806640625
                },
                {
                    "name": "A2",
                    "midi": 45,
                    "time": 21.5625,
                    "velocity": 1,
                    "duration": 0.233917236328125
                },
                {
                    "name": "E4",
                    "midi": 64,
                    "time": 21.638946533203125,
                    "velocity": 0.9763779527559056,
                    "duration": 0.085601806640625
                },
                {
                    "name": "F#4",
                    "midi": 66,
                    "time": 21.71539306640625,
                    "velocity": 0.9763779527559056,
                    "duration": 0.085601806640625
                },
                {
                    "name": "E4",
                    "midi": 64,
                    "time": 21.791839599609375,
                    "velocity": 0.937007874015748,
                    "duration": 0.708160400390625
                },
                {
                    "name": "E3",
                    "midi": 52,
                    "time": 21.815185546875,
                    "velocity": 1,
                    "duration": 0.211944580078125
                },
                {
                    "name": "A3",
                    "midi": 57,
                    "time": 22.0458984375,
                    "velocity": 0.9763779527559056,
                    "duration": 0.211944580078125
                },
                {
                    "name": "G3",
                    "midi": 55,
                    "time": 22.276611328125,
                    "velocity": 0.9763779527559056,
                    "duration": 0.217437744140625
                },
                {
                    "name": "G3",
                    "midi": 55,
                    "time": 22.5,
                    "velocity": 0.9763779527559056,
                    "duration": 0.061798095703125
                },
                {
                    "name": "F#5",
                    "midi": 78,
                    "time": 22.5128173828125,
                    "velocity": 0.9763779527559056,
                    "duration": 0.46142578125
                },
                {
                    "name": "F#3",
                    "midi": 54,
                    "time": 22.555389404296875,
                    "velocity": 0.9763779527559056,
                    "duration": 0.061798095703125
                },
                {
                    "name": "G3",
                    "midi": 55,
                    "time": 22.61077880859375,
                    "velocity": 0.9763779527559056,
                    "duration": 0.061798095703125
                },
                {
                    "name": "F#3",
                    "midi": 54,
                    "time": 22.666168212890625,
                    "velocity": 0.937007874015748,
                    "duration": 0.06317138671875
                },
                {
                    "name": "E3",
                    "midi": 52,
                    "time": 22.747650146484375,
                    "velocity": 0.9763779527559056,
                    "duration": 0.208282470703125
                },
                {
                    "name": "A4",
                    "midi": 69,
                    "time": 22.974700927734375,
                    "velocity": 0.8818897637795275,
                    "duration": 0.208740234375
                },
                {
                    "name": "F#3",
                    "midi": 54,
                    "time": 22.974700927734375,
                    "velocity": 0.9763779527559056,
                    "duration": 0.208740234375
                },
                {
                    "name": "A4",
                    "midi": 69,
                    "time": 23.20220947265625,
                    "velocity": 0.8818897637795275,
                    "duration": 0.216522216796875
                },
                {
                    "name": "D3",
                    "midi": 50,
                    "time": 23.20220947265625,
                    "velocity": 0.9763779527559056,
                    "duration": 0.216522216796875
                },
                {
                    "name": "B4",
                    "midi": 71,
                    "time": 23.4375,
                    "velocity": 1,
                    "duration": 0.086517333984375
                },
                {
                    "name": "E3",
                    "midi": 52,
                    "time": 23.4375,
                    "velocity": 1,
                    "duration": 0.233917236328125
                },
                {
                    "name": "A4",
                    "midi": 69,
                    "time": 23.514862060546875,
                    "velocity": 0.9763779527559056,
                    "duration": 0.086517333984375
                },
                {
                    "name": "B4",
                    "midi": 71,
                    "time": 23.59222412109375,
                    "velocity": 0.9763779527559056,
                    "duration": 0.086517333984375
                },
                {
                    "name": "A4",
                    "midi": 69,
                    "time": 23.669586181640625,
                    "velocity": 0.937007874015748,
                    "duration": 0.2178955078125
                },
                {
                    "name": "F#3",
                    "midi": 54,
                    "time": 23.690185546875,
                    "velocity": 1,
                    "duration": 0.211944580078125
                },
                {
                    "name": "G4",
                    "midi": 67,
                    "time": 23.9208984375,
                    "velocity": 0.9763779527559056,
                    "duration": 0.466461181640625
                },
                {
                    "name": "E3",
                    "midi": 52,
                    "time": 23.9208984375,
                    "velocity": 0.9763779527559056,
                    "duration": 0.211944580078125
                },
                {
                    "name": "D3",
                    "midi": 50,
                    "time": 24.151611328125,
                    "velocity": 0.9763779527559056,
                    "duration": 0.217437744140625
                },
                {
                    "name": "D3",
                    "midi": 50,
                    "time": 24.375,
                    "velocity": 0.9763779527559056,
                    "duration": 0.061798095703125
                },
                {
                    "name": "E5",
                    "midi": 76,
                    "time": 24.3878173828125,
                    "velocity": 0.9763779527559056,
                    "duration": 0.46142578125
                },
                {
                    "name": "C#3",
                    "midi": 49,
                    "time": 24.430389404296875,
                    "velocity": 0.9763779527559056,
                    "duration": 0.061798095703125
                },
                {
                    "name": "D3",
                    "midi": 50,
                    "time": 24.48577880859375,
                    "velocity": 0.9763779527559056,
                    "duration": 0.061798095703125
                },
                {
                    "name": "C#3",
                    "midi": 49,
                    "time": 24.541168212890625,
                    "velocity": 0.937007874015748,
                    "duration": 0.06317138671875
                },
                {
                    "name": "B2",
                    "midi": 47,
                    "time": 24.622650146484375,
                    "velocity": 0.9763779527559056,
                    "duration": 0.208282470703125
                },
                {
                    "name": "G4",
                    "midi": 67,
                    "time": 24.849700927734375,
                    "velocity": 0.8818897637795275,
                    "duration": 0.208740234375
                },
                {
                    "name": "C#3",
                    "midi": 49,
                    "time": 24.849700927734375,
                    "velocity": 0.9763779527559056,
                    "duration": 0.208740234375
                },
                {
                    "name": "G4",
                    "midi": 67,
                    "time": 25.07720947265625,
                    "velocity": 0.8818897637795275,
                    "duration": 0.216522216796875
                },
                {
                    "name": "A2",
                    "midi": 45,
                    "time": 25.07720947265625,
                    "velocity": 0.9763779527559056,
                    "duration": 0.216522216796875
                },
                {
                    "name": "A4",
                    "midi": 69,
                    "time": 25.3125,
                    "velocity": 1,
                    "duration": 0.086517333984375
                },
                {
                    "name": "D3",
                    "midi": 50,
                    "time": 25.3125,
                    "velocity": 1,
                    "duration": 0.233917236328125
                },
                {
                    "name": "G4",
                    "midi": 67,
                    "time": 25.389862060546875,
                    "velocity": 0.9763779527559056,
                    "duration": 0.086517333984375
                },
                {
                    "name": "A4",
                    "midi": 69,
                    "time": 25.46722412109375,
                    "velocity": 0.9763779527559056,
                    "duration": 0.086517333984375
                },
                {
                    "name": "G4",
                    "midi": 67,
                    "time": 25.544586181640625,
                    "velocity": 0.937007874015748,
                    "duration": 0.2178955078125
                },
                {
                    "name": "C#3",
                    "midi": 49,
                    "time": 25.565185546875,
                    "velocity": 1,
                    "duration": 0.211944580078125
                },
                {
                    "name": "F#4",
                    "midi": 66,
                    "time": 25.7958984375,
                    "velocity": 0.9763779527559056,
                    "duration": 0.466461181640625
                },
                {
                    "name": "D3",
                    "midi": 50,
                    "time": 25.7958984375,
                    "velocity": 0.9763779527559056,
                    "duration": 0.211944580078125
                },
                {
                    "name": "E3",
                    "midi": 52,
                    "time": 26.026611328125,
                    "velocity": 0.9763779527559056,
                    "duration": 0.217437744140625
                },
                {
                    "name": "D5",
                    "midi": 74,
                    "time": 26.2628173828125,
                    "velocity": 0.9763779527559056,
                    "duration": 0.46142578125
                },
                {
                    "name": "F#3",
                    "midi": 54,
                    "time": 26.2628173828125,
                    "velocity": 0.9763779527559056,
                    "duration": 0.216064453125
                },
                {
                    "name": "G3",
                    "midi": 55,
                    "time": 26.497650146484375,
                    "velocity": 0.9763779527559056,
                    "duration": 0.208282470703125
                },
                {
                    "name": "D4",
                    "midi": 62,
                    "time": 26.724700927734375,
                    "velocity": 0.9763779527559056,
                    "duration": 0.208740234375
                },
                {
                    "name": "A3",
                    "midi": 57,
                    "time": 26.724700927734375,
                    "velocity": 0.9763779527559056,
                    "duration": 0.208740234375
                },
                {
                    "name": "D4",
                    "midi": 62,
                    "time": 26.95220947265625,
                    "velocity": 0.9763779527559056,
                    "duration": 0.216522216796875
                },
                {
                    "name": "A3",
                    "midi": 57,
                    "time": 26.953125,
                    "velocity": 0.9763779527559056,
                    "duration": 0.061798095703125
                },
                {
                    "name": "G3",
                    "midi": 55,
                    "time": 27.008514404296875,
                    "velocity": 0.9763779527559056,
                    "duration": 0.061798095703125
                },
                {
                    "name": "A3",
                    "midi": 57,
                    "time": 27.06390380859375,
                    "velocity": 0.9763779527559056,
                    "duration": 0.061798095703125
                },
                {
                    "name": "G3",
                    "midi": 55,
                    "time": 27.119293212890625,
                    "velocity": 0.937007874015748,
                    "duration": 0.06317138671875
                },
                {
                    "name": "D4",
                    "midi": 62,
                    "time": 27.1875,
                    "velocity": 1,
                    "duration": 0.233917236328125
                },
                {
                    "name": "F#3",
                    "midi": 54,
                    "time": 27.1875,
                    "velocity": 1,
                    "duration": 0.233917236328125
                },
                {
                    "name": "D5",
                    "midi": 74,
                    "time": 27.440185546875,
                    "velocity": 1,
                    "duration": 0.211944580078125
                },
                {
                    "name": "G3",
                    "midi": 55,
                    "time": 27.440185546875,
                    "velocity": 1,
                    "duration": 0.211944580078125
                },
                {
                    "name": "G3",
                    "midi": 55,
                    "time": 27.65625,
                    "velocity": 0.9763779527559056,
                    "duration": 0.061798095703125
                },
                {
                    "name": "D4",
                    "midi": 62,
                    "time": 27.6708984375,
                    "velocity": 0.9763779527559056,
                    "duration": 0.211944580078125
                },
                {
                    "name": "F#3",
                    "midi": 54,
                    "time": 27.711639404296875,
                    "velocity": 0.9763779527559056,
                    "duration": 0.061798095703125
                },
                {
                    "name": "G3",
                    "midi": 55,
                    "time": 27.76702880859375,
                    "velocity": 0.9763779527559056,
                    "duration": 0.061798095703125
                },
                {
                    "name": "F#3",
                    "midi": 54,
                    "time": 27.822418212890625,
                    "velocity": 0.937007874015748,
                    "duration": 0.06317138671875
                },
                {
                    "name": "E4",
                    "midi": 64,
                    "time": 27.901611328125,
                    "velocity": 0.9763779527559056,
                    "duration": 0.217437744140625
                },
                {
                    "name": "E3",
                    "midi": 52,
                    "time": 27.901611328125,
                    "velocity": 0.9763779527559056,
                    "duration": 0.217437744140625
                },
                {
                    "name": "F#4",
                    "midi": 66,
                    "time": 28.125,
                    "velocity": 0.9763779527559056,
                    "duration": 0.084228515625
                },
                {
                    "name": "D3",
                    "midi": 50,
                    "time": 28.1378173828125,
                    "velocity": 0.9763779527559056,
                    "duration": 0.216064453125
                },
                {
                    "name": "E4",
                    "midi": 64,
                    "time": 28.200531005859375,
                    "velocity": 0.9763779527559056,
                    "duration": 0.084228515625
                },
                {
                    "name": "F#4",
                    "midi": 66,
                    "time": 28.27606201171875,
                    "velocity": 0.937007874015748,
                    "duration": 0.076904296875
                },
                {
                    "name": "G4",
                    "midi": 67,
                    "time": 28.372650146484375,
                    "velocity": 0.9763779527559056,
                    "duration": 0.208282470703125
                },
                {
                    "name": "G2",
                    "midi": 43,
                    "time": 28.372650146484375,
                    "velocity": 0.9763779527559056,
                    "duration": 0.208282470703125
                },
                {
                    "name": "E4",
                    "midi": 64,
                    "time": 28.599700927734375,
                    "velocity": 0.9763779527559056,
                    "duration": 0.208740234375
                },
                {
                    "name": "A2",
                    "midi": 45,
                    "time": 28.599700927734375,
                    "velocity": 0.9763779527559056,
                    "duration": 0.208740234375
                },
                {
                    "name": "F#4",
                    "midi": 66,
                    "time": 28.82720947265625,
                    "velocity": 0.9763779527559056,
                    "duration": 0.216522216796875
                },
                {
                    "name": "A1",
                    "midi": 33,
                    "time": 28.82720947265625,
                    "velocity": 0.937007874015748,
                    "duration": 0.216522216796875
                },
                {
                    "name": "E4",
                    "midi": 64,
                    "time": 29.0625,
                    "velocity": 1,
                    "duration": 0.086517333984375
                },
                {
                    "name": "D2",
                    "midi": 38,
                    "time": 29.0625,
                    "velocity": 1,
                    "duration": 0.233917236328125
                },
                {
                    "name": "D4",
                    "midi": 62,
                    "time": 29.139862060546875,
                    "velocity": 0.9763779527559056,
                    "duration": 0.086517333984375
                },
                {
                    "name": "E4",
                    "midi": 64,
                    "time": 29.21722412109375,
                    "velocity": 0.9763779527559056,
                    "duration": 0.086517333984375
                },
                {
                    "name": "D4",
                    "midi": 62,
                    "time": 29.294586181640625,
                    "velocity": 0.937007874015748,
                    "duration": 0.705413818359375
                },
                {
                    "name": "A2",
                    "midi": 45,
                    "time": 29.315185546875,
                    "velocity": 1,
                    "duration": 0.211944580078125
                },
                {
                    "name": "D3",
                    "midi": 50,
                    "time": 29.5458984375,
                    "velocity": 0.9763779527559056,
                    "duration": 0.211944580078125
                },
                {
                    "name": "E3",
                    "midi": 52,
                    "time": 29.776611328125,
                    "velocity": 0.9763779527559056,
                    "duration": 0.217437744140625
                },
                {
                    "name": "D5",
                    "midi": 74,
                    "time": 30.0128173828125,
                    "velocity": 0.9763779527559056,
                    "duration": 0.46142578125
                },
                {
                    "name": "F#3",
                    "midi": 54,
                    "time": 30.0128173828125,
                    "velocity": 0.9763779527559056,
                    "duration": 0.216064453125
                },
                {
                    "name": "E3",
                    "midi": 52,
                    "time": 30.247650146484375,
                    "velocity": 0.9763779527559056,
                    "duration": 0.208282470703125
                },
                {
                    "name": "F#4",
                    "midi": 66,
                    "time": 30.474700927734375,
                    "velocity": 0.8818897637795275,
                    "duration": 0.208740234375
                },
                {
                    "name": "F#3",
                    "midi": 54,
                    "time": 30.474700927734375,
                    "velocity": 0.9763779527559056,
                    "duration": 0.208740234375
                },
                {
                    "name": "F#4",
                    "midi": 66,
                    "time": 30.70220947265625,
                    "velocity": 0.8818897637795275,
                    "duration": 0.216522216796875
                },
                {
                    "name": "G3",
                    "midi": 55,
                    "time": 30.70220947265625,
                    "velocity": 0.9763779527559056,
                    "duration": 0.216522216796875
                },
                {
                    "name": "G4",
                    "midi": 67,
                    "time": 30.9375,
                    "velocity": 1,
                    "duration": 0.087432861328125
                },
                {
                    "name": "A3",
                    "midi": 57,
                    "time": 30.9375,
                    "velocity": 1,
                    "duration": 0.233917236328125
                },
                {
                    "name": "F#4",
                    "midi": 66,
                    "time": 31.015777587890625,
                    "velocity": 0.9763779527559056,
                    "duration": 0.087432861328125
                },
                {
                    "name": "G4",
                    "midi": 67,
                    "time": 31.09405517578125,
                    "velocity": 0.9763779527559056,
                    "duration": 0.087432861328125
                },
                {
                    "name": "F#4",
                    "midi": 66,
                    "time": 31.172332763671875,
                    "velocity": 0.937007874015748,
                    "duration": 0.215606689453125
                },
                {
                    "name": "B3",
                    "midi": 59,
                    "time": 31.190185546875,
                    "velocity": 1,
                    "duration": 0.211944580078125
                },
                {
                    "name": "E4",
                    "midi": 64,
                    "time": 31.4208984375,
                    "velocity": 0.9763779527559056,
                    "duration": 0.466461181640625
                },
                {
                    "name": "C#4",
                    "midi": 61,
                    "time": 31.4208984375,
                    "velocity": 0.9763779527559056,
                    "duration": 0.211944580078125
                },
                {
                    "name": "B3",
                    "midi": 59,
                    "time": 31.651611328125,
                    "velocity": 0.9763779527559056,
                    "duration": 0.217437744140625
                },
                {
                    "name": "B3",
                    "midi": 59,
                    "time": 31.875,
                    "velocity": 0.9763779527559056,
                    "duration": 0.061798095703125
                },
                {
                    "name": "C#5",
                    "midi": 73,
                    "time": 31.8878173828125,
                    "velocity": 0.9763779527559056,
                    "duration": 0.46142578125
                },
                {
                    "name": "A#3",
                    "midi": 58,
                    "time": 31.930389404296875,
                    "velocity": 0.9763779527559056,
                    "duration": 0.061798095703125
                },
                {
                    "name": "B3",
                    "midi": 59,
                    "time": 31.98577880859375,
                    "velocity": 0.9763779527559056,
                    "duration": 0.061798095703125
                },
                {
                    "name": "A#3",
                    "midi": 58,
                    "time": 32.041168212890625,
                    "velocity": 0.937007874015748,
                    "duration": 0.06317138671875
                },
                {
                    "name": "G#3",
                    "midi": 56,
                    "time": 32.122650146484375,
                    "velocity": 0.9763779527559056,
                    "duration": 0.208282470703125
                },
                {
                    "name": "E4",
                    "midi": 64,
                    "time": 32.349700927734375,
                    "velocity": 0.8818897637795275,
                    "duration": 0.208740234375
                },
                {
                    "name": "A#3",
                    "midi": 58,
                    "time": 32.349700927734375,
                    "velocity": 0.9763779527559056,
                    "duration": 0.208740234375
                },
                {
                    "name": "E4",
                    "midi": 64,
                    "time": 32.57720947265625,
                    "velocity": 0.8818897637795275,
                    "duration": 0.216522216796875
                },
                {
                    "name": "F#3",
                    "midi": 54,
                    "time": 32.57720947265625,
                    "velocity": 0.9763779527559056,
                    "duration": 0.216522216796875
                },
                {
                    "name": "F#4",
                    "midi": 66,
                    "time": 32.8125,
                    "velocity": 1,
                    "duration": 0.08697509765625
                },
                {
                    "name": "B3",
                    "midi": 59,
                    "time": 32.8125,
                    "velocity": 1,
                    "duration": 0.233917236328125
                },
                {
                    "name": "E4",
                    "midi": 64,
                    "time": 32.89031982421875,
                    "velocity": 0.9763779527559056,
                    "duration": 0.08697509765625
                },
                {
                    "name": "F#4",
                    "midi": 66,
                    "time": 32.9681396484375,
                    "velocity": 0.9763779527559056,
                    "duration": 0.08697509765625
                },
                {
                    "name": "E4",
                    "midi": 64,
                    "time": 33.04595947265625,
                    "velocity": 0.937007874015748,
                    "duration": 0.216522216796875
                },
                {
                    "name": "A#3",
                    "midi": 58,
                    "time": 33.065185546875,
                    "velocity": 1,
                    "duration": 0.211944580078125
                },
                {
                    "name": "B3",
                    "midi": 59,
                    "time": 33.28125,
                    "velocity": 0.9763779527559056,
                    "duration": 0.084228515625
                },
                {
                    "name": "D4",
                    "midi": 62,
                    "time": 33.2958984375,
                    "velocity": 0.9763779527559056,
                    "duration": 0.466461181640625
                },
                {
                    "name": "A#3",
                    "midi": 58,
                    "time": 33.356781005859375,
                    "velocity": 0.9763779527559056,
                    "duration": 0.084228515625
                },
                {
                    "name": "B3",
                    "midi": 59,
                    "time": 33.43231201171875,
                    "velocity": 0.937007874015748,
                    "duration": 0.076904296875
                },
                {
                    "name": "C#4",
                    "midi": 61,
                    "time": 33.526611328125,
                    "velocity": 0.9763779527559056,
                    "duration": 0.217437744140625
                },
                {
                    "name": "D4",
                    "midi": 62,
                    "time": 33.75,
                    "velocity": 0.9763779527559056,
                    "duration": 0.084228515625
                },
                {
                    "name": "B4",
                    "midi": 71,
                    "time": 33.7628173828125,
                    "velocity": 0.9763779527559056,
                    "duration": 0.46142578125
                },
                {
                    "name": "C#4",
                    "midi": 61,
                    "time": 33.825531005859375,
                    "velocity": 0.9763779527559056,
                    "duration": 0.084228515625
                },
                {
                    "name": "D4",
                    "midi": 62,
                    "time": 33.90106201171875,
                    "velocity": 0.937007874015748,
                    "duration": 0.076904296875
                },
                {
                    "name": "B3",
                    "midi": 59,
                    "time": 33.997650146484375,
                    "velocity": 0.9763779527559056,
                    "duration": 0.208282470703125
                },
                {
                    "name": "B3",
                    "midi": 59,
                    "time": 34.224700927734375,
                    "velocity": 0.9763779527559056,
                    "duration": 0.208740234375
                },
                {
                    "name": "F#3",
                    "midi": 54,
                    "time": 34.224700927734375,
                    "velocity": 0.9763779527559056,
                    "duration": 0.208740234375
                },
                {
                    "name": "B3",
                    "midi": 59,
                    "time": 34.45220947265625,
                    "velocity": 0.9763779527559056,
                    "duration": 0.216522216796875
                },
                {
                    "name": "G3",
                    "midi": 55,
                    "time": 34.45220947265625,
                    "velocity": 0.9763779527559056,
                    "duration": 0.216522216796875
                },
                {
                    "name": "B3",
                    "midi": 59,
                    "time": 34.6875,
                    "velocity": 1,
                    "duration": 0.233917236328125
                },
                {
                    "name": "D3",
                    "midi": 50,
                    "time": 34.6875,
                    "velocity": 0.9763779527559056,
                    "duration": 0.748443603515625
                },
                {
                    "name": "B4",
                    "midi": 71,
                    "time": 34.940185546875,
                    "velocity": 1,
                    "duration": 0.211944580078125
                },
                {
                    "name": "B3",
                    "midi": 59,
                    "time": 35.1708984375,
                    "velocity": 0.9763779527559056,
                    "duration": 0.211944580078125
                },
                {
                    "name": "D3",
                    "midi": 50,
                    "time": 35.390625,
                    "velocity": 0.9763779527559056,
                    "duration": 0.061798095703125
                },
                {
                    "name": "C#4",
                    "midi": 61,
                    "time": 35.401611328125,
                    "velocity": 0.9763779527559056,
                    "duration": 0.217437744140625
                },
                {
                    "name": "C#3",
                    "midi": 49,
                    "time": 35.446014404296875,
                    "velocity": 0.9763779527559056,
                    "duration": 0.061798095703125
                },
                {
                    "name": "D3",
                    "midi": 50,
                    "time": 35.50140380859375,
                    "velocity": 0.9763779527559056,
                    "duration": 0.061798095703125
                },
                {
                    "name": "C#3",
                    "midi": 49,
                    "time": 35.556793212890625,
                    "velocity": 0.937007874015748,
                    "duration": 0.06317138671875
                },
                {
                    "name": "D4",
                    "midi": 62,
                    "time": 35.6378173828125,
                    "velocity": 0.9763779527559056,
                    "duration": 0.216064453125
                },
                {
                    "name": "B2",
                    "midi": 47,
                    "time": 35.6378173828125,
                    "velocity": 0.9763779527559056,
                    "duration": 0.484771728515625
                },
                {
                    "name": "C#4",
                    "midi": 61,
                    "time": 35.872650146484375,
                    "velocity": 0.9763779527559056,
                    "duration": 0.208282470703125
                },
                {
                    "name": "B2",
                    "midi": 47,
                    "time": 36.09375,
                    "velocity": 0.9763779527559056,
                    "duration": 0.061798095703125
                },
                {
                    "name": "D4",
                    "midi": 62,
                    "time": 36.099700927734375,
                    "velocity": 0.9763779527559056,
                    "duration": 0.208740234375
                },
                {
                    "name": "A2",
                    "midi": 45,
                    "time": 36.149139404296875,
                    "velocity": 0.9763779527559056,
                    "duration": 0.061798095703125
                },
                {
                    "name": "B2",
                    "midi": 47,
                    "time": 36.20452880859375,
                    "velocity": 0.9763779527559056,
                    "duration": 0.061798095703125
                },
                {
                    "name": "A2",
                    "midi": 45,
                    "time": 36.259918212890625,
                    "velocity": 0.937007874015748,
                    "duration": 0.06317138671875
                },
                {
                    "name": "G2",
                    "midi": 43,
                    "time": 36.32720947265625,
                    "velocity": 0.9763779527559056,
                    "duration": 0.216522216796875
                },
                {
                    "name": "F#4",
                    "midi": 66,
                    "time": 36.328125,
                    "velocity": 0.9763779527559056,
                    "duration": 0.065460205078125
                },
                {
                    "name": "E4",
                    "midi": 64,
                    "time": 36.38671875,
                    "velocity": 0.9763779527559056,
                    "duration": 0.065460205078125
                },
                {
                    "name": "D#4",
                    "midi": 63,
                    "time": 36.4453125,
                    "velocity": 0.9763779527559056,
                    "duration": 0.065460205078125
                },
                {
                    "name": "E4",
                    "midi": 64,
                    "time": 36.50390625,
                    "velocity": 0.937007874015748,
                    "duration": 0.05401611328125
                },
                {
                    "name": "F#4",
                    "midi": 66,
                    "time": 36.5625,
                    "velocity": 1,
                    "duration": 0.949859619140625
                },
                {
                    "name": "F#2",
                    "midi": 42,
                    "time": 36.5625,
                    "velocity": 1,
                    "duration": 0.233917236328125
                },
                {
                    "name": "C#3",
                    "midi": 49,
                    "time": 36.815185546875,
                    "velocity": 1,
                    "duration": 0.211944580078125
                },
                {
                    "name": "F#3",
                    "midi": 54,
                    "time": 37.0458984375,
                    "velocity": 0.9763779527559056,
                    "duration": 0.211944580078125
                },
                {
                    "name": "F#3",
                    "midi": 54,
                    "time": 37.265625,
                    "velocity": 0.9763779527559056,
                    "duration": 0.061798095703125
                },
                {
                    "name": "E3",
                    "midi": 52,
                    "time": 37.321014404296875,
                    "velocity": 0.9763779527559056,
                    "duration": 0.061798095703125
                },
                {
                    "name": "F#3",
                    "midi": 54,
                    "time": 37.37640380859375,
                    "velocity": 0.9763779527559056,
                    "duration": 0.061798095703125
                },
                {
                    "name": "E3",
                    "midi": 52,
                    "time": 37.431793212890625,
                    "velocity": 0.937007874015748,
                    "duration": 0.06317138671875
                },
                {
                    "name": "F#5",
                    "midi": 78,
                    "time": 37.5128173828125,
                    "velocity": 0.9763779527559056,
                    "duration": 0.46142578125
                },
                {
                    "name": "D3",
                    "midi": 50,
                    "time": 37.5128173828125,
                    "velocity": 0.9763779527559056,
                    "duration": 0.216064453125
                },
                {
                    "name": "E3",
                    "midi": 52,
                    "time": 37.747650146484375,
                    "velocity": 0.9763779527559056,
                    "duration": 0.208282470703125
                },
                {
                    "name": "F#4",
                    "midi": 66,
                    "time": 37.974700927734375,
                    "velocity": 0.9763779527559056,
                    "duration": 0.208740234375
                },
                {
                    "name": "F#3",
                    "midi": 54,
                    "time": 37.974700927734375,
                    "velocity": 0.9763779527559056,
                    "duration": 0.208740234375
                },
                {
                    "name": "F#4",
                    "midi": 66,
                    "time": 38.20220947265625,
                    "velocity": 0.9763779527559056,
                    "duration": 0.216522216796875
                },
                {
                    "name": "D3",
                    "midi": 50,
                    "time": 38.20220947265625,
                    "velocity": 0.9763779527559056,
                    "duration": 0.216522216796875
                },
                {
                    "name": "C#5",
                    "midi": 73,
                    "time": 38.4375,
                    "velocity": 1,
                    "duration": 0.233917236328125
                },
                {
                    "name": "E3",
                    "midi": 52,
                    "time": 38.4375,
                    "velocity": 1,
                    "duration": 0.233917236328125
                },
                {
                    "name": "B4",
                    "midi": 71,
                    "time": 38.690185546875,
                    "velocity": 1,
                    "duration": 0.211944580078125
                },
                {
                    "name": "D3",
                    "midi": 50,
                    "time": 38.690185546875,
                    "velocity": 1,
                    "duration": 0.211944580078125
                },
                {
                    "name": "C#5",
                    "midi": 73,
                    "time": 38.90625,
                    "velocity": 0.9763779527559056,
                    "duration": 0.084228515625
                },
                {
                    "name": "E3",
                    "midi": 52,
                    "time": 38.9208984375,
                    "velocity": 0.9763779527559056,
                    "duration": 0.211944580078125
                },
                {
                    "name": "B4",
                    "midi": 71,
                    "time": 38.981781005859375,
                    "velocity": 0.9763779527559056,
                    "duration": 0.084228515625
                },
                {
                    "name": "C#5",
                    "midi": 73,
                    "time": 39.05731201171875,
                    "velocity": 0.937007874015748,
                    "duration": 0.076904296875
                },
                {
                    "name": "D5",
                    "midi": 74,
                    "time": 39.151611328125,
                    "velocity": 0.9763779527559056,
                    "duration": 0.217437744140625
                },
                {
                    "name": "F#3",
                    "midi": 54,
                    "time": 39.151611328125,
                    "velocity": 0.9763779527559056,
                    "duration": 0.217437744140625
                },
                {
                    "name": "C#5",
                    "midi": 73,
                    "time": 39.3878173828125,
                    "velocity": 0.9763779527559056,
                    "duration": 0.348358154296875
                },
                {
                    "name": "E3",
                    "midi": 52,
                    "time": 39.3878173828125,
                    "velocity": 0.9763779527559056,
                    "duration": 0.348358154296875
                },
                {
                    "name": "D5",
                    "midi": 74,
                    "time": 39.73663330078125,
                    "velocity": 0.9763779527559056,
                    "duration": 0.10345458984375
                },
                {
                    "name": "F#3",
                    "midi": 54,
                    "time": 39.73663330078125,
                    "velocity": 0.9763779527559056,
                    "duration": 0.10345458984375
                },
                {
                    "name": "E5",
                    "midi": 76,
                    "time": 39.849700927734375,
                    "velocity": 0.9763779527559056,
                    "duration": 0.051727294921875
                },
                {
                    "name": "G3",
                    "midi": 55,
                    "time": 39.849700927734375,
                    "velocity": 0.9763779527559056,
                    "duration": 0.051727294921875
                },
                {
                    "name": "D#5",
                    "midi": 75,
                    "time": 39.906463623046875,
                    "velocity": 0.9763779527559056,
                    "duration": 0.05126953125
                },
                {
                    "name": "F#3",
                    "midi": 54,
                    "time": 39.906463623046875,
                    "velocity": 0.9763779527559056,
                    "duration": 0.05126953125
                },
                {
                    "name": "E5",
                    "midi": 76,
                    "time": 39.9627685546875,
                    "velocity": 0.9763779527559056,
                    "duration": 0.051727294921875
                },
                {
                    "name": "G3",
                    "midi": 55,
                    "time": 39.9627685546875,
                    "velocity": 0.9763779527559056,
                    "duration": 0.051727294921875
                },
                {
                    "name": "D#5",
                    "midi": 75,
                    "time": 40.01953125,
                    "velocity": 0.9763779527559056,
                    "duration": 0.052642822265625
                },
                {
                    "name": "F#3",
                    "midi": 54,
                    "time": 40.01953125,
                    "velocity": 0.9763779527559056,
                    "duration": 0.052642822265625
                },
                {
                    "name": "E5",
                    "midi": 76,
                    "time": 40.07720947265625,
                    "velocity": 0.9763779527559056,
                    "duration": 0.05218505859375
                },
                {
                    "name": "G3",
                    "midi": 55,
                    "time": 40.07720947265625,
                    "velocity": 0.9763779527559056,
                    "duration": 0.05218505859375
                },
                {
                    "name": "D#5",
                    "midi": 75,
                    "time": 40.134429931640625,
                    "velocity": 0.9763779527559056,
                    "duration": 0.0531005859375
                },
                {
                    "name": "F#3",
                    "midi": 54,
                    "time": 40.134429931640625,
                    "velocity": 0.9763779527559056,
                    "duration": 0.0531005859375
                },
                {
                    "name": "C#5",
                    "midi": 73,
                    "time": 40.19256591796875,
                    "velocity": 0.9763779527559056,
                    "duration": 0.0531005859375
                },
                {
                    "name": "E3",
                    "midi": 52,
                    "time": 40.19256591796875,
                    "velocity": 0.9763779527559056,
                    "duration": 0.0531005859375
                },
                {
                    "name": "D#5",
                    "midi": 75,
                    "time": 40.250701904296875,
                    "velocity": 0.9763779527559056,
                    "duration": 0.0567626953125
                },
                {
                    "name": "F#3",
                    "midi": 54,
                    "time": 40.250701904296875,
                    "velocity": 0.9763779527559056,
                    "duration": 0.0567626953125
                },
                {
                    "name": "E5",
                    "midi": 76,
                    "time": 40.3125,
                    "velocity": 1,
                    "duration": 0.482940673828125
                },
                {
                    "name": "G3",
                    "midi": 55,
                    "time": 40.3125,
                    "velocity": 1,
                    "duration": 0.233917236328125
                },
                {
                    "name": "A3",
                    "midi": 57,
                    "time": 40.565185546875,
                    "velocity": 1,
                    "duration": 0.10528564453125
                },
                {
                    "name": "G3",
                    "midi": 55,
                    "time": 40.6805419921875,
                    "velocity": 0.9763779527559056,
                    "duration": 0.10528564453125
                },
                {
                    "name": "G5",
                    "midi": 79,
                    "time": 40.7958984375,
                    "velocity": 0.9763779527559056,
                    "duration": 0.05218505859375
                },
                {
                    "name": "F#3",
                    "midi": 54,
                    "time": 40.7958984375,
                    "velocity": 0.9763779527559056,
                    "duration": 0.211944580078125
                },
                {
                    "name": "F#5",
                    "midi": 78,
                    "time": 40.85357666015625,
                    "velocity": 0.9763779527559056,
                    "duration": 0.05218505859375
                },
                {
                    "name": "G5",
                    "midi": 79,
                    "time": 40.9112548828125,
                    "velocity": 0.9763779527559056,
                    "duration": 0.05218505859375
                },
                {
                    "name": "F#5",
                    "midi": 78,
                    "time": 40.96893310546875,
                    "velocity": 0.9763779527559056,
                    "duration": 0.05218505859375
                },
                {
                    "name": "G5",
                    "midi": 79,
                    "time": 41.026611328125,
                    "velocity": 0.9763779527559056,
                    "duration": 0.052642822265625
                },
                {
                    "name": "B3",
                    "midi": 59,
                    "time": 41.026611328125,
                    "velocity": 0.9763779527559056,
                    "duration": 0.217437744140625
                },
                {
                    "name": "F#5",
                    "midi": 78,
                    "time": 41.084747314453125,
                    "velocity": 0.9763779527559056,
                    "duration": 0.052642822265625
                },
                {
                    "name": "E5",
                    "midi": 76,
                    "time": 41.14288330078125,
                    "velocity": 0.9763779527559056,
                    "duration": 0.0531005859375
                },
                {
                    "name": "F#5",
                    "midi": 78,
                    "time": 41.20147705078125,
                    "velocity": 0.9763779527559056,
                    "duration": 0.05584716796875
                },
                {
                    "name": "G5",
                    "midi": 79,
                    "time": 41.2628173828125,
                    "velocity": 0.9763779527559056,
                    "duration": 0.216064453125
                },
                {
                    "name": "E3",
                    "midi": 52,
                    "time": 41.2628173828125,
                    "velocity": 0.9763779527559056,
                    "duration": 0.688934326171875
                },
                {
                    "name": "B5",
                    "midi": 83,
                    "time": 41.497650146484375,
                    "velocity": 0.9763779527559056,
                    "duration": 0.208282470703125
                },
                {
                    "name": "B4",
                    "midi": 71,
                    "time": 41.724700927734375,
                    "velocity": 0.9763779527559056,
                    "duration": 0.208740234375
                },
                {
                    "name": "B4",
                    "midi": 71,
                    "time": 41.95220947265625,
                    "velocity": 0.9763779527559056,
                    "duration": 0.216522216796875
                },
                {
                    "name": "F#3",
                    "midi": 54,
                    "time": 41.95220947265625,
                    "velocity": 0.9763779527559056,
                    "duration": 0.216522216796875
                },
                {
                    "name": "B4",
                    "midi": 71,
                    "time": 42.1875,
                    "velocity": 1,
                    "duration": 0.233917236328125
                },
                {
                    "name": "G3",
                    "midi": 55,
                    "time": 42.1875,
                    "velocity": 1,
                    "duration": 0.233917236328125
                },
                {
                    "name": "B5",
                    "midi": 83,
                    "time": 42.440185546875,
                    "velocity": 1,
                    "duration": 0.211944580078125
                },
                {
                    "name": "F#3",
                    "midi": 54,
                    "time": 42.440185546875,
                    "velocity": 1,
                    "duration": 0.211944580078125
                },
                {
                    "name": "G3",
                    "midi": 55,
                    "time": 42.65625,
                    "velocity": 0.9763779527559056,
                    "duration": 0.084228515625
                },
                {
                    "name": "B4",
                    "midi": 71,
                    "time": 42.6708984375,
                    "velocity": 0.9763779527559056,
                    "duration": 0.211944580078125
                },
                {
                    "name": "F#3",
                    "midi": 54,
                    "time": 42.731781005859375,
                    "velocity": 0.9763779527559056,
                    "duration": 0.084228515625
                },
                {
                    "name": "G3",
                    "midi": 55,
                    "time": 42.80731201171875,
                    "velocity": 0.937007874015748,
                    "duration": 0.076904296875
                },
                {
                    "name": "C#5",
                    "midi": 73,
                    "time": 42.901611328125,
                    "velocity": 0.9763779527559056,
                    "duration": 0.217437744140625
                },
                {
                    "name": "E3",
                    "midi": 52,
                    "time": 42.901611328125,
                    "velocity": 0.9763779527559056,
                    "duration": 0.217437744140625
                },
                {
                    "name": "D5",
                    "midi": 74,
                    "time": 43.125,
                    "velocity": 0.9763779527559056,
                    "duration": 0.084228515625
                },
                {
                    "name": "B3",
                    "midi": 59,
                    "time": 43.1378173828125,
                    "velocity": 0.9763779527559056,
                    "duration": 0.216064453125
                },
                {
                    "name": "C#5",
                    "midi": 73,
                    "time": 43.200531005859375,
                    "velocity": 0.9763779527559056,
                    "duration": 0.084228515625
                },
                {
                    "name": "D5",
                    "midi": 74,
                    "time": 43.27606201171875,
                    "velocity": 0.937007874015748,
                    "duration": 0.076904296875
                },
                {
                    "name": "E5",
                    "midi": 76,
                    "time": 43.372650146484375,
                    "velocity": 0.9763779527559056,
                    "duration": 0.208282470703125
                },
                {
                    "name": "E3",
                    "midi": 52,
                    "time": 43.372650146484375,
                    "velocity": 0.9763779527559056,
                    "duration": 0.208282470703125
                },
                {
                    "name": "C#5",
                    "midi": 73,
                    "time": 43.599700927734375,
                    "velocity": 0.9763779527559056,
                    "duration": 0.208740234375
                },
                {
                    "name": "F#3",
                    "midi": 54,
                    "time": 43.599700927734375,
                    "velocity": 0.9763779527559056,
                    "duration": 0.208740234375
                },
                {
                    "name": "D5",
                    "midi": 74,
                    "time": 43.82720947265625,
                    "velocity": 0.9763779527559056,
                    "duration": 0.216522216796875
                },
                {
                    "name": "F#2",
                    "midi": 42,
                    "time": 43.82720947265625,
                    "velocity": 0.968503937007874,
                    "duration": 0.216522216796875
                },
                {
                    "name": "C#5",
                    "midi": 73,
                    "time": 44.0625,
                    "velocity": 1,
                    "duration": 0.0860595703125
                },
                {
                    "name": "B2",
                    "midi": 47,
                    "time": 44.0625,
                    "velocity": 1,
                    "duration": 0.233917236328125
                },
                {
                    "name": "B4",
                    "midi": 71,
                    "time": 44.139404296875,
                    "velocity": 0.9763779527559056,
                    "duration": 0.0860595703125
                },
                {
                    "name": "C#5",
                    "midi": 73,
                    "time": 44.21630859375,
                    "velocity": 0.9763779527559056,
                    "duration": 0.0860595703125
                },
                {
                    "name": "B4",
                    "midi": 71,
                    "time": 44.293212890625,
                    "velocity": 0.937007874015748,
                    "duration": 0.706787109375
                },
                {
                    "name": "F#3",
                    "midi": 54,
                    "time": 44.315185546875,
                    "velocity": 1,
                    "duration": 0.211944580078125
                },
                {
                    "name": "B3",
                    "midi": 59,
                    "time": 44.5458984375,
                    "velocity": 0.9763779527559056,
                    "duration": 0.211944580078125
                },
                {
                    "name": "A3",
                    "midi": 57,
                    "time": 44.776611328125,
                    "velocity": 0.9763779527559056,
                    "duration": 0.217437744140625
                },
                {
                    "name": "A3",
                    "midi": 57,
                    "time": 45,
                    "velocity": 0.9763779527559056,
                    "duration": 0.061798095703125
                },
                {
                    "name": "E5",
                    "midi": 76,
                    "time": 45.0128173828125,
                    "velocity": 0.9763779527559056,
                    "duration": 0.46142578125
                },
                {
                    "name": "G#3",
                    "midi": 56,
                    "time": 45.055389404296875,
                    "velocity": 0.9763779527559056,
                    "duration": 0.061798095703125
                },
                {
                    "name": "A3",
                    "midi": 57,
                    "time": 45.11077880859375,
                    "velocity": 0.9763779527559056,
                    "duration": 0.061798095703125
                },
                {
                    "name": "G#3",
                    "midi": 56,
                    "time": 45.166168212890625,
                    "velocity": 0.937007874015748,
                    "duration": 0.06317138671875
                },
                {
                    "name": "F#3",
                    "midi": 54,
                    "time": 45.247650146484375,
                    "velocity": 0.9763779527559056,
                    "duration": 0.208282470703125
                },
                {
                    "name": "E4",
                    "midi": 64,
                    "time": 45.474700927734375,
                    "velocity": 0.9763779527559056,
                    "duration": 0.208740234375
                },
                {
                    "name": "G#3",
                    "midi": 56,
                    "time": 45.474700927734375,
                    "velocity": 0.9763779527559056,
                    "duration": 0.208740234375
                },
                {
                    "name": "D5",
                    "midi": 74,
                    "time": 45.70220947265625,
                    "velocity": 0.9763779527559056,
                    "duration": 0.216522216796875
                },
                {
                    "name": "E3",
                    "midi": 52,
                    "time": 45.70220947265625,
                    "velocity": 0.9763779527559056,
                    "duration": 0.216522216796875
                },
                {
                    "name": "C#5",
                    "midi": 73,
                    "time": 45.9375,
                    "velocity": 1,
                    "duration": 0.233917236328125
                },
                {
                    "name": "A3",
                    "midi": 57,
                    "time": 45.9375,
                    "velocity": 1,
                    "duration": 0.233917236328125
                },
                {
                    "name": "E5",
                    "midi": 76,
                    "time": 46.190185546875,
                    "velocity": 1,
                    "duration": 0.211944580078125
                },
                {
                    "name": "G#3",
                    "midi": 56,
                    "time": 46.190185546875,
                    "velocity": 1,
                    "duration": 0.211944580078125
                },
                {
                    "name": "A3",
                    "midi": 57,
                    "time": 46.40625,
                    "velocity": 0.9763779527559056,
                    "duration": 0.084228515625
                },
                {
                    "name": "A4",
                    "midi": 69,
                    "time": 46.4208984375,
                    "velocity": 0.9763779527559056,
                    "duration": 0.211944580078125
                },
                {
                    "name": "G#3",
                    "midi": 56,
                    "time": 46.481781005859375,
                    "velocity": 0.9763779527559056,
                    "duration": 0.084228515625
                },
                {
                    "name": "A3",
                    "midi": 57,
                    "time": 46.55731201171875,
                    "velocity": 0.937007874015748,
                    "duration": 0.076904296875
                },
                {
                    "name": "A4",
                    "midi": 69,
                    "time": 46.651611328125,
                    "velocity": 0.9763779527559056,
                    "duration": 0.217437744140625
                },
                {
                    "name": "B3",
                    "midi": 59,
                    "time": 46.651611328125,
                    "velocity": 0.9763779527559056,
                    "duration": 0.217437744140625
                },
                {
                    "name": "A4",
                    "midi": 69,
                    "time": 46.8878173828125,
                    "velocity": 0.9763779527559056,
                    "duration": 0.216064453125
                },
                {
                    "name": "C#4",
                    "midi": 61,
                    "time": 46.8878173828125,
                    "velocity": 0.9763779527559056,
                    "duration": 0.216064453125
                },
                {
                    "name": "E5",
                    "midi": 76,
                    "time": 47.122650146484375,
                    "velocity": 0.9763779527559056,
                    "duration": 0.208282470703125
                },
                {
                    "name": "D4",
                    "midi": 62,
                    "time": 47.122650146484375,
                    "velocity": 0.9763779527559056,
                    "duration": 0.208282470703125
                },
                {
                    "name": "E4",
                    "midi": 64,
                    "time": 47.34375,
                    "velocity": 0.9763779527559056,
                    "duration": 0.084228515625
                },
                {
                    "name": "G4",
                    "midi": 67,
                    "time": 47.349700927734375,
                    "velocity": 0.9763779527559056,
                    "duration": 0.208740234375
                },
                {
                    "name": "D4",
                    "midi": 62,
                    "time": 47.419281005859375,
                    "velocity": 0.9763779527559056,
                    "duration": 0.084228515625
                },
                {
                    "name": "E4",
                    "midi": 64,
                    "time": 47.49481201171875,
                    "velocity": 0.937007874015748,
                    "duration": 0.076904296875
                },
                {
                    "name": "G4",
                    "midi": 67,
                    "time": 47.57720947265625,
                    "velocity": 0.9763779527559056,
                    "duration": 0.216522216796875
                },
                {
                    "name": "C#4",
                    "midi": 61,
                    "time": 47.57720947265625,
                    "velocity": 0.9763779527559056,
                    "duration": 0.216522216796875
                },
                {
                    "name": "A4",
                    "midi": 69,
                    "time": 47.8125,
                    "velocity": 1,
                    "duration": 0.0860595703125
                },
                {
                    "name": "D4",
                    "midi": 62,
                    "time": 47.8125,
                    "velocity": 1,
                    "duration": 0.233917236328125
                },
                {
                    "name": "G4",
                    "midi": 67,
                    "time": 47.889404296875,
                    "velocity": 0.9763779527559056,
                    "duration": 0.0860595703125
                },
                {
                    "name": "A4",
                    "midi": 69,
                    "time": 47.96630859375,
                    "velocity": 0.9763779527559056,
                    "duration": 0.0860595703125
                },
                {
                    "name": "G4",
                    "midi": 67,
                    "time": 48.043212890625,
                    "velocity": 0.937007874015748,
                    "duration": 0.219268798828125
                },
                {
                    "name": "A3",
                    "midi": 57,
                    "time": 48.065185546875,
                    "velocity": 1,
                    "duration": 0.211944580078125
                },
                {
                    "name": "F#4",
                    "midi": 66,
                    "time": 48.2958984375,
                    "velocity": 0.9763779527559056,
                    "duration": 0.466461181640625
                },
                {
                    "name": "D3",
                    "midi": 50,
                    "time": 48.2958984375,
                    "velocity": 0.9763779527559056,
                    "duration": 0.211944580078125
                },
                {
                    "name": "F#3",
                    "midi": 54,
                    "time": 48.526611328125,
                    "velocity": 0.9763779527559056,
                    "duration": 0.217437744140625
                },
                {
                    "name": "B4",
                    "midi": 71,
                    "time": 48.7628173828125,
                    "velocity": 0.9763779527559056,
                    "duration": 0.46142578125
                },
                {
                    "name": "G2",
                    "midi": 43,
                    "time": 48.7628173828125,
                    "velocity": 0.9763779527559056,
                    "duration": 0.216064453125
                },
                {
                    "name": "G3",
                    "midi": 55,
                    "time": 48.997650146484375,
                    "velocity": 0.9763779527559056,
                    "duration": 0.208282470703125
                },
                {
                    "name": "D4",
                    "midi": 62,
                    "time": 49.224700927734375,
                    "velocity": 0.8818897637795275,
                    "duration": 0.208740234375
                },
                {
                    "name": "B3",
                    "midi": 59,
                    "time": 49.224700927734375,
                    "velocity": 0.9763779527559056,
                    "duration": 0.208740234375
                },
                {
                    "name": "D4",
                    "midi": 62,
                    "time": 49.45220947265625,
                    "velocity": 0.8818897637795275,
                    "duration": 0.243988037109375
                },
                {
                    "name": "G2",
                    "midi": 43,
                    "time": 49.45220947265625,
                    "velocity": 0.9763779527559056,
                    "duration": 0.216522216796875
                },
                {
                    "name": "A4",
                    "midi": 69,
                    "time": 49.6875,
                    "velocity": 1,
                    "duration": 0.482940673828125
                },
                {
                    "name": "F#2",
                    "midi": 42,
                    "time": 49.6875,
                    "velocity": 1,
                    "duration": 0.233917236328125
                },
                {
                    "name": "D3",
                    "midi": 50,
                    "time": 49.940185546875,
                    "velocity": 1,
                    "duration": 0.211944580078125
                },
                {
                    "name": "D4",
                    "midi": 62,
                    "time": 50.1708984375,
                    "velocity": 0.8818897637795275,
                    "duration": 0.211944580078125
                },
                {
                    "name": "F#3",
                    "midi": 54,
                    "time": 50.1708984375,
                    "velocity": 0.9763779527559056,
                    "duration": 0.211944580078125
                },
                {
                    "name": "D4",
                    "midi": 62,
                    "time": 50.401611328125,
                    "velocity": 0.8818897637795275,
                    "duration": 0.244903564453125
                },
                {
                    "name": "D2",
                    "midi": 38,
                    "time": 50.401611328125,
                    "velocity": 0.9606299212598425,
                    "duration": 0.217437744140625
                },
                {
                    "name": "B4",
                    "midi": 71,
                    "time": 50.6378173828125,
                    "velocity": 0.9763779527559056,
                    "duration": 0.46142578125
                },
                {
                    "name": "G2",
                    "midi": 43,
                    "time": 50.6378173828125,
                    "velocity": 0.9763779527559056,
                    "duration": 0.216064453125
                },
                {
                    "name": "G3",
                    "midi": 55,
                    "time": 50.872650146484375,
                    "velocity": 0.9763779527559056,
                    "duration": 0.208282470703125
                },
                {
                    "name": "D4",
                    "midi": 62,
                    "time": 51.099700927734375,
                    "velocity": 0.8818897637795275,
                    "duration": 0.208740234375
                },
                {
                    "name": "B3",
                    "midi": 59,
                    "time": 51.099700927734375,
                    "velocity": 0.9763779527559056,
                    "duration": 0.208740234375
                },
                {
                    "name": "D4",
                    "midi": 62,
                    "time": 51.32720947265625,
                    "velocity": 0.8818897637795275,
                    "duration": 0.243988037109375
                },
                {
                    "name": "G2",
                    "midi": 43,
                    "time": 51.32720947265625,
                    "velocity": 0.9763779527559056,
                    "duration": 0.216522216796875
                },
                {
                    "name": "A4",
                    "midi": 69,
                    "time": 51.5625,
                    "velocity": 1,
                    "duration": 0.482940673828125
                },
                {
                    "name": "F#2",
                    "midi": 42,
                    "time": 51.5625,
                    "velocity": 1,
                    "duration": 0.233917236328125
                },
                {
                    "name": "D3",
                    "midi": 50,
                    "time": 51.815185546875,
                    "velocity": 1,
                    "duration": 0.211944580078125
                },
                {
                    "name": "D4",
                    "midi": 62,
                    "time": 52.0458984375,
                    "velocity": 0.8818897637795275,
                    "duration": 0.211944580078125
                },
                {
                    "name": "F#3",
                    "midi": 54,
                    "time": 52.0458984375,
                    "velocity": 0.9763779527559056,
                    "duration": 0.211944580078125
                },
                {
                    "name": "D4",
                    "midi": 62,
                    "time": 52.276611328125,
                    "velocity": 0.8818897637795275,
                    "duration": 0.244903564453125
                },
                {
                    "name": "D2",
                    "midi": 38,
                    "time": 52.276611328125,
                    "velocity": 0.9606299212598425,
                    "duration": 0.217437744140625
                },
                {
                    "name": "B4",
                    "midi": 71,
                    "time": 52.5128173828125,
                    "velocity": 0.9763779527559056,
                    "duration": 0.46142578125
                },
                {
                    "name": "G2",
                    "midi": 43,
                    "time": 52.5128173828125,
                    "velocity": 0.9763779527559056,
                    "duration": 0.216064453125
                },
                {
                    "name": "G3",
                    "midi": 55,
                    "time": 52.747650146484375,
                    "velocity": 0.9763779527559056,
                    "duration": 0.208282470703125
                },
                {
                    "name": "D4",
                    "midi": 62,
                    "time": 52.974700927734375,
                    "velocity": 0.8818897637795275,
                    "duration": 0.208740234375
                },
                {
                    "name": "B3",
                    "midi": 59,
                    "time": 52.974700927734375,
                    "velocity": 0.9763779527559056,
                    "duration": 0.208740234375
                },
                {
                    "name": "D4",
                    "midi": 62,
                    "time": 53.20220947265625,
                    "velocity": 0.8818897637795275,
                    "duration": 0.243988037109375
                },
                {
                    "name": "G2",
                    "midi": 43,
                    "time": 53.20220947265625,
                    "velocity": 0.9763779527559056,
                    "duration": 0.216522216796875
                },
                {
                    "name": "A4",
                    "midi": 69,
                    "time": 53.4375,
                    "velocity": 1,
                    "duration": 0.482940673828125
                },
                {
                    "name": "F#2",
                    "midi": 42,
                    "time": 53.4375,
                    "velocity": 1,
                    "duration": 0.233917236328125
                },
                {
                    "name": "D3",
                    "midi": 50,
                    "time": 53.690185546875,
                    "velocity": 1,
                    "duration": 0.211944580078125
                },
                {
                    "name": "D4",
                    "midi": 62,
                    "time": 53.9208984375,
                    "velocity": 0.9763779527559056,
                    "duration": 0.211944580078125
                },
                {
                    "name": "F#3",
                    "midi": 54,
                    "time": 53.9208984375,
                    "velocity": 0.9763779527559056,
                    "duration": 0.211944580078125
                },
                {
                    "name": "D4",
                    "midi": 62,
                    "time": 54.151611328125,
                    "velocity": 0.9763779527559056,
                    "duration": 0.217437744140625
                },
                {
                    "name": "D2",
                    "midi": 38,
                    "time": 54.151611328125,
                    "velocity": 0.9606299212598425,
                    "duration": 0.217437744140625
                },
                {
                    "name": "B4",
                    "midi": 71,
                    "time": 54.3878173828125,
                    "velocity": 0.9763779527559056,
                    "duration": 0.216064453125
                },
                {
                    "name": "G2",
                    "midi": 43,
                    "time": 54.3878173828125,
                    "velocity": 0.9763779527559056,
                    "duration": 0.216064453125
                },
                {
                    "name": "C#5",
                    "midi": 73,
                    "time": 54.622650146484375,
                    "velocity": 0.9763779527559056,
                    "duration": 0.208282470703125
                },
                {
                    "name": "G3",
                    "midi": 55,
                    "time": 54.622650146484375,
                    "velocity": 0.9763779527559056,
                    "duration": 0.208282470703125
                },
                {
                    "name": "D5",
                    "midi": 74,
                    "time": 54.849700927734375,
                    "velocity": 0.9763779527559056,
                    "duration": 0.208740234375
                },
                {
                    "name": "B3",
                    "midi": 59,
                    "time": 54.849700927734375,
                    "velocity": 0.9763779527559056,
                    "duration": 0.208740234375
                },
                {
                    "name": "E5",
                    "midi": 76,
                    "time": 55.07720947265625,
                    "velocity": 0.9763779527559056,
                    "duration": 0.216522216796875
                },
                {
                    "name": "G3",
                    "midi": 55,
                    "time": 55.07720947265625,
                    "velocity": 0.9763779527559056,
                    "duration": 0.216522216796875
                },
                {
                    "name": "D5",
                    "midi": 74,
                    "time": 55.3125,
                    "velocity": 1,
                    "duration": 0.086517333984375
                },
                {
                    "name": "A2",
                    "midi": 45,
                    "time": 55.3125,
                    "velocity": 1,
                    "duration": 0.232086181640625
                },
                {
                    "name": "C#5",
                    "midi": 73,
                    "time": 55.389862060546875,
                    "velocity": 0.9763779527559056,
                    "duration": 0.086517333984375
                },
                {
                    "name": "D5",
                    "midi": 74,
                    "time": 55.46722412109375,
                    "velocity": 0.9763779527559056,
                    "duration": 0.086517333984375
                },
                {
                    "name": "C#5",
                    "midi": 73,
                    "time": 55.544586181640625,
                    "velocity": 0.937007874015748,
                    "duration": 0.705413818359375
                },
                {
                    "name": "A3",
                    "midi": 57,
                    "time": 55.5633544921875,
                    "velocity": 0.9763779527559056,
                    "duration": 0.2069091796875
                },
                {
                    "name": "C#4",
                    "midi": 61,
                    "time": 55.789031982421875,
                    "velocity": 0.9763779527559056,
                    "duration": 0.207366943359375
                },
                {
                    "name": "A3",
                    "midi": 57,
                    "time": 56.015167236328125,
                    "velocity": 0.9763779527559056,
                    "duration": 0.216064453125
                },
                {
                    "name": "F#5",
                    "midi": 78,
                    "time": 56.25,
                    "velocity": 1,
                    "duration": 0.47607421875
                },
                {
                    "name": "D4",
                    "midi": 62,
                    "time": 56.25,
                    "velocity": 1,
                    "duration": 0.232086181640625
                },
                {
                    "name": "E4",
                    "midi": 64,
                    "time": 56.5008544921875,
                    "velocity": 0.9763779527559056,
                    "duration": 0.2069091796875
                },
                {
                    "name": "A4",
                    "midi": 69,
                    "time": 56.726531982421875,
                    "velocity": 0.8818897637795275,
                    "duration": 0.207366943359375
                },
                {
                    "name": "F#4",
                    "midi": 66,
                    "time": 56.726531982421875,
                    "velocity": 0.9763779527559056,
                    "duration": 0.207366943359375
                },
                {
                    "name": "A4",
                    "midi": 69,
                    "time": 56.952667236328125,
                    "velocity": 0.8818897637795275,
                    "duration": 0.216064453125
                },
                {
                    "name": "D4",
                    "midi": 62,
                    "time": 56.952667236328125,
                    "velocity": 0.9763779527559056,
                    "duration": 0.216064453125
                },
                {
                    "name": "B4",
                    "midi": 71,
                    "time": 57.1875,
                    "velocity": 1,
                    "duration": 0.086517333984375
                },
                {
                    "name": "E4",
                    "midi": 64,
                    "time": 57.1875,
                    "velocity": 1,
                    "duration": 0.233917236328125
                },
                {
                    "name": "A4",
                    "midi": 69,
                    "time": 57.264862060546875,
                    "velocity": 0.9763779527559056,
                    "duration": 0.086517333984375
                },
                {
                    "name": "B4",
                    "midi": 71,
                    "time": 57.34222412109375,
                    "velocity": 0.9763779527559056,
                    "duration": 0.086517333984375
                },
                {
                    "name": "A4",
                    "midi": 69,
                    "time": 57.419586181640625,
                    "velocity": 0.937007874015748,
                    "duration": 0.2178955078125
                },
                {
                    "name": "F#4",
                    "midi": 66,
                    "time": 57.440185546875,
                    "velocity": 1,
                    "duration": 0.211944580078125
                },
                {
                    "name": "G4",
                    "midi": 67,
                    "time": 57.6708984375,
                    "velocity": 0.9763779527559056,
                    "duration": 0.466461181640625
                },
                {
                    "name": "E4",
                    "midi": 64,
                    "time": 57.6708984375,
                    "velocity": 0.9763779527559056,
                    "duration": 0.211944580078125
                },
                {
                    "name": "D4",
                    "midi": 62,
                    "time": 57.901611328125,
                    "velocity": 0.9763779527559056,
                    "duration": 0.217437744140625
                },
                {
                    "name": "D4",
                    "midi": 62,
                    "time": 58.125,
                    "velocity": 0.9763779527559056,
                    "duration": 0.061798095703125
                },
                {
                    "name": "E5",
                    "midi": 76,
                    "time": 58.1378173828125,
                    "velocity": 0.9763779527559056,
                    "duration": 0.46142578125
                },
                {
                    "name": "C#4",
                    "midi": 61,
                    "time": 58.180389404296875,
                    "velocity": 0.9763779527559056,
                    "duration": 0.061798095703125
                },
                {
                    "name": "D4",
                    "midi": 62,
                    "time": 58.23577880859375,
                    "velocity": 0.9763779527559056,
                    "duration": 0.061798095703125
                },
                {
                    "name": "C#4",
                    "midi": 61,
                    "time": 58.291168212890625,
                    "velocity": 0.937007874015748,
                    "duration": 0.06317138671875
                },
                {
                    "name": "B3",
                    "midi": 59,
                    "time": 58.372650146484375,
                    "velocity": 0.9763779527559056,
                    "duration": 0.208282470703125
                },
                {
                    "name": "G4",
                    "midi": 67,
                    "time": 58.599700927734375,
                    "velocity": 0.8818897637795275,
                    "duration": 0.208740234375
                },
                {
                    "name": "C#4",
                    "midi": 61,
                    "time": 58.599700927734375,
                    "velocity": 0.9763779527559056,
                    "duration": 0.208740234375
                },
                {
                    "name": "G4",
                    "midi": 67,
                    "time": 58.82720947265625,
                    "velocity": 0.8818897637795275,
                    "duration": 0.216522216796875
                },
                {
                    "name": "A3",
                    "midi": 57,
                    "time": 58.82720947265625,
                    "velocity": 0.9763779527559056,
                    "duration": 0.216522216796875
                },
                {
                    "name": "A4",
                    "midi": 69,
                    "time": 59.0625,
                    "velocity": 1,
                    "duration": 0.0860595703125
                },
                {
                    "name": "D4",
                    "midi": 62,
                    "time": 59.0625,
                    "velocity": 1,
                    "duration": 0.233917236328125
                },
                {
                    "name": "G4",
                    "midi": 67,
                    "time": 59.139404296875,
                    "velocity": 0.9763779527559056,
                    "duration": 0.0860595703125
                },
                {
                    "name": "A4",
                    "midi": 69,
                    "time": 59.21630859375,
                    "velocity": 0.9763779527559056,
                    "duration": 0.0860595703125
                },
                {
                    "name": "G4",
                    "midi": 67,
                    "time": 59.293212890625,
                    "velocity": 0.937007874015748,
                    "duration": 0.219268798828125
                },
                {
                    "name": "A3",
                    "midi": 57,
                    "time": 59.315185546875,
                    "velocity": 1,
                    "duration": 0.211944580078125
                },
                {
                    "name": "F#4",
                    "midi": 66,
                    "time": 59.5458984375,
                    "velocity": 0.9763779527559056,
                    "duration": 0.466461181640625
                },
                {
                    "name": "D3",
                    "midi": 50,
                    "time": 59.5458984375,
                    "velocity": 0.9763779527559056,
                    "duration": 0.211944580078125
                },
                {
                    "name": "E3",
                    "midi": 52,
                    "time": 59.776611328125,
                    "velocity": 0.9763779527559056,
                    "duration": 0.217437744140625
                },
                {
                    "name": "D5",
                    "midi": 74,
                    "time": 60.0128173828125,
                    "velocity": 0.9763779527559056,
                    "duration": 0.46142578125
                },
                {
                    "name": "F#3",
                    "midi": 54,
                    "time": 60.0128173828125,
                    "velocity": 0.9763779527559056,
                    "duration": 0.216064453125
                },
                {
                    "name": "G3",
                    "midi": 55,
                    "time": 60.247650146484375,
                    "velocity": 0.9763779527559056,
                    "duration": 0.208282470703125
                },
                {
                    "name": "D4",
                    "midi": 62,
                    "time": 60.474700927734375,
                    "velocity": 0.9763779527559056,
                    "duration": 0.208740234375
                },
                {
                    "name": "A3",
                    "midi": 57,
                    "time": 60.474700927734375,
                    "velocity": 0.9763779527559056,
                    "duration": 0.208740234375
                },
                {
                    "name": "D4",
                    "midi": 62,
                    "time": 60.70220947265625,
                    "velocity": 0.9763779527559056,
                    "duration": 0.216522216796875
                },
                {
                    "name": "A3",
                    "midi": 57,
                    "time": 60.703125,
                    "velocity": 0.9763779527559056,
                    "duration": 0.061798095703125
                },
                {
                    "name": "G3",
                    "midi": 55,
                    "time": 60.758514404296875,
                    "velocity": 0.9763779527559056,
                    "duration": 0.061798095703125
                },
                {
                    "name": "A3",
                    "midi": 57,
                    "time": 60.81390380859375,
                    "velocity": 0.9763779527559056,
                    "duration": 0.061798095703125
                },
                {
                    "name": "G3",
                    "midi": 55,
                    "time": 60.869293212890625,
                    "velocity": 0.937007874015748,
                    "duration": 0.06317138671875
                },
                {
                    "name": "D4",
                    "midi": 62,
                    "time": 60.9375,
                    "velocity": 1,
                    "duration": 0.233917236328125
                },
                {
                    "name": "F#3",
                    "midi": 54,
                    "time": 60.9375,
                    "velocity": 1,
                    "duration": 0.233917236328125
                },
                {
                    "name": "D5",
                    "midi": 74,
                    "time": 61.190185546875,
                    "velocity": 1,
                    "duration": 0.211944580078125
                },
                {
                    "name": "G3",
                    "midi": 55,
                    "time": 61.190185546875,
                    "velocity": 1,
                    "duration": 0.211944580078125
                },
                {
                    "name": "G3",
                    "midi": 55,
                    "time": 61.40625,
                    "velocity": 0.9763779527559056,
                    "duration": 0.061798095703125
                },
                {
                    "name": "D4",
                    "midi": 62,
                    "time": 61.4208984375,
                    "velocity": 0.9763779527559056,
                    "duration": 0.211944580078125
                },
                {
                    "name": "F#3",
                    "midi": 54,
                    "time": 61.461639404296875,
                    "velocity": 0.9763779527559056,
                    "duration": 0.061798095703125
                },
                {
                    "name": "G3",
                    "midi": 55,
                    "time": 61.51702880859375,
                    "velocity": 0.9763779527559056,
                    "duration": 0.061798095703125
                },
                {
                    "name": "F#3",
                    "midi": 54,
                    "time": 61.572418212890625,
                    "velocity": 0.937007874015748,
                    "duration": 0.06317138671875
                },
                {
                    "name": "E4",
                    "midi": 64,
                    "time": 61.651611328125,
                    "velocity": 0.9763779527559056,
                    "duration": 0.217437744140625
                },
                {
                    "name": "E3",
                    "midi": 52,
                    "time": 61.651611328125,
                    "velocity": 0.9763779527559056,
                    "duration": 0.217437744140625
                },
                {
                    "name": "F#4",
                    "midi": 66,
                    "time": 61.8878173828125,
                    "velocity": 0.9763779527559056,
                    "duration": 0.216064453125
                },
                {
                    "name": "D3",
                    "midi": 50,
                    "time": 61.8878173828125,
                    "velocity": 0.9763779527559056,
                    "duration": 0.216064453125
                },
                {
                    "name": "E4",
                    "midi": 64,
                    "time": 62.122650146484375,
                    "velocity": 0.9763779527559056,
                    "duration": 0.208282470703125
                },
                {
                    "name": "C#3",
                    "midi": 49,
                    "time": 62.122650146484375,
                    "velocity": 0.9763779527559056,
                    "duration": 0.208282470703125
                },
                {
                    "name": "D3",
                    "midi": 50,
                    "time": 62.34375,
                    "velocity": 0.9763779527559056,
                    "duration": 0.084228515625
                },
                {
                    "name": "F#4",
                    "midi": 66,
                    "time": 62.349700927734375,
                    "velocity": 0.9763779527559056,
                    "duration": 0.208740234375
                },
                {
                    "name": "C#3",
                    "midi": 49,
                    "time": 62.419281005859375,
                    "velocity": 0.9763779527559056,
                    "duration": 0.084228515625
                },
                {
                    "name": "D3",
                    "midi": 50,
                    "time": 62.49481201171875,
                    "velocity": 0.937007874015748,
                    "duration": 0.076904296875
                },
                {
                    "name": "G4",
                    "midi": 67,
                    "time": 62.57720947265625,
                    "velocity": 0.9763779527559056,
                    "duration": 0.216522216796875
                },
                {
                    "name": "G2",
                    "midi": 43,
                    "time": 62.57720947265625,
                    "velocity": 0.9763779527559056,
                    "duration": 0.216522216796875
                },
                {
                    "name": "F#4",
                    "midi": 66,
                    "time": 62.8125,
                    "velocity": 1,
                    "duration": 0.0860595703125
                },
                {
                    "name": "A2",
                    "midi": 45,
                    "time": 62.8125,
                    "velocity": 1,
                    "duration": 0.233917236328125
                },
                {
                    "name": "E4",
                    "midi": 64,
                    "time": 62.889404296875,
                    "velocity": 0.9763779527559056,
                    "duration": 0.0860595703125
                },
                {
                    "name": "F#4",
                    "midi": 66,
                    "time": 62.96630859375,
                    "velocity": 0.9763779527559056,
                    "duration": 0.0860595703125
                },
                {
                    "name": "E4",
                    "midi": 64,
                    "time": 63.043212890625,
                    "velocity": 0.937007874015748,
                    "duration": 0.706787109375
                },
                {
                    "name": "E3",
                    "midi": 52,
                    "time": 63.065185546875,
                    "velocity": 1,
                    "duration": 0.211944580078125
                },
                {
                    "name": "A3",
                    "midi": 57,
                    "time": 63.2958984375,
                    "velocity": 0.9763779527559056,
                    "duration": 0.211944580078125
                },
                {
                    "name": "G3",
                    "midi": 55,
                    "time": 63.526611328125,
                    "velocity": 0.9763779527559056,
                    "duration": 0.217437744140625
                },
                {
                    "name": "G3",
                    "midi": 55,
                    "time": 63.75,
                    "velocity": 0.9763779527559056,
                    "duration": 0.061798095703125
                },
                {
                    "name": "F#5",
                    "midi": 78,
                    "time": 63.7628173828125,
                    "velocity": 0.9763779527559056,
                    "duration": 0.46142578125
                },
                {
                    "name": "F#3",
                    "midi": 54,
                    "time": 63.805389404296875,
                    "velocity": 0.9763779527559056,
                    "duration": 0.061798095703125
                },
                {
                    "name": "G3",
                    "midi": 55,
                    "time": 63.86077880859375,
                    "velocity": 0.9763779527559056,
                    "duration": 0.061798095703125
                },
                {
                    "name": "F#3",
                    "midi": 54,
                    "time": 63.916168212890625,
                    "velocity": 0.937007874015748,
                    "duration": 0.06317138671875
                },
                {
                    "name": "E3",
                    "midi": 52,
                    "time": 63.997650146484375,
                    "velocity": 0.9763779527559056,
                    "duration": 0.208282470703125
                },
                {
                    "name": "A4",
                    "midi": 69,
                    "time": 64.22470092773438,
                    "velocity": 0.8818897637795275,
                    "duration": 0.208740234375
                },
                {
                    "name": "F#3",
                    "midi": 54,
                    "time": 64.22470092773438,
                    "velocity": 0.9763779527559056,
                    "duration": 0.208740234375
                },
                {
                    "name": "A4",
                    "midi": 69,
                    "time": 64.45220947265625,
                    "velocity": 0.8818897637795275,
                    "duration": 0.216522216796875
                },
                {
                    "name": "D3",
                    "midi": 50,
                    "time": 64.45220947265625,
                    "velocity": 0.9763779527559056,
                    "duration": 0.216522216796875
                },
                {
                    "name": "B4",
                    "midi": 71,
                    "time": 64.6875,
                    "velocity": 1,
                    "duration": 0.087432861328125
                },
                {
                    "name": "E3",
                    "midi": 52,
                    "time": 64.6875,
                    "velocity": 1,
                    "duration": 0.233917236328125
                },
                {
                    "name": "A4",
                    "midi": 69,
                    "time": 64.76577758789062,
                    "velocity": 0.9763779527559056,
                    "duration": 0.087432861328125
                },
                {
                    "name": "B4",
                    "midi": 71,
                    "time": 64.84405517578125,
                    "velocity": 0.9763779527559056,
                    "duration": 0.087432861328125
                },
                {
                    "name": "A4",
                    "midi": 69,
                    "time": 64.92233276367188,
                    "velocity": 0.937007874015748,
                    "duration": 0.215606689453125
                },
                {
                    "name": "F#3",
                    "midi": 54,
                    "time": 64.940185546875,
                    "velocity": 1,
                    "duration": 0.211944580078125
                },
                {
                    "name": "G4",
                    "midi": 67,
                    "time": 65.1708984375,
                    "velocity": 0.9763779527559056,
                    "duration": 0.466461181640625
                },
                {
                    "name": "E3",
                    "midi": 52,
                    "time": 65.1708984375,
                    "velocity": 0.9763779527559056,
                    "duration": 0.211944580078125
                },
                {
                    "name": "D3",
                    "midi": 50,
                    "time": 65.401611328125,
                    "velocity": 0.9763779527559056,
                    "duration": 0.217437744140625
                },
                {
                    "name": "D3",
                    "midi": 50,
                    "time": 65.625,
                    "velocity": 0.9763779527559056,
                    "duration": 0.061798095703125
                },
                {
                    "name": "E5",
                    "midi": 76,
                    "time": 65.6378173828125,
                    "velocity": 0.9763779527559056,
                    "duration": 0.46142578125
                },
                {
                    "name": "C#3",
                    "midi": 49,
                    "time": 65.68038940429688,
                    "velocity": 0.9763779527559056,
                    "duration": 0.061798095703125
                },
                {
                    "name": "D3",
                    "midi": 50,
                    "time": 65.73577880859375,
                    "velocity": 0.9763779527559056,
                    "duration": 0.061798095703125
                },
                {
                    "name": "C#3",
                    "midi": 49,
                    "time": 65.79116821289062,
                    "velocity": 0.937007874015748,
                    "duration": 0.06317138671875
                },
                {
                    "name": "B2",
                    "midi": 47,
                    "time": 65.87265014648438,
                    "velocity": 0.9763779527559056,
                    "duration": 0.208282470703125
                },
                {
                    "name": "G4",
                    "midi": 67,
                    "time": 66.09970092773438,
                    "velocity": 0.8818897637795275,
                    "duration": 0.208740234375
                },
                {
                    "name": "C#3",
                    "midi": 49,
                    "time": 66.09970092773438,
                    "velocity": 0.9763779527559056,
                    "duration": 0.208740234375
                },
                {
                    "name": "G4",
                    "midi": 67,
                    "time": 66.32720947265625,
                    "velocity": 0.8818897637795275,
                    "duration": 0.216522216796875
                },
                {
                    "name": "A2",
                    "midi": 45,
                    "time": 66.32720947265625,
                    "velocity": 0.9763779527559056,
                    "duration": 0.216522216796875
                },
                {
                    "name": "A4",
                    "midi": 69,
                    "time": 66.5625,
                    "velocity": 1,
                    "duration": 0.0860595703125
                },
                {
                    "name": "D3",
                    "midi": 50,
                    "time": 66.5625,
                    "velocity": 1,
                    "duration": 0.233917236328125
                },
                {
                    "name": "G4",
                    "midi": 67,
                    "time": 66.639404296875,
                    "velocity": 0.9763779527559056,
                    "duration": 0.0860595703125
                },
                {
                    "name": "A4",
                    "midi": 69,
                    "time": 66.71630859375,
                    "velocity": 0.9763779527559056,
                    "duration": 0.0860595703125
                },
                {
                    "name": "G4",
                    "midi": 67,
                    "time": 66.793212890625,
                    "velocity": 0.937007874015748,
                    "duration": 0.219268798828125
                },
                {
                    "name": "C#3",
                    "midi": 49,
                    "time": 66.815185546875,
                    "velocity": 1,
                    "duration": 0.211944580078125
                },
                {
                    "name": "F#4",
                    "midi": 66,
                    "time": 67.0458984375,
                    "velocity": 0.9763779527559056,
                    "duration": 0.466461181640625
                },
                {
                    "name": "D3",
                    "midi": 50,
                    "time": 67.0458984375,
                    "velocity": 0.9763779527559056,
                    "duration": 0.211944580078125
                },
                {
                    "name": "E3",
                    "midi": 52,
                    "time": 67.276611328125,
                    "velocity": 0.9763779527559056,
                    "duration": 0.217437744140625
                },
                {
                    "name": "D5",
                    "midi": 74,
                    "time": 67.5128173828125,
                    "velocity": 0.9763779527559056,
                    "duration": 0.46142578125
                },
                {
                    "name": "F#3",
                    "midi": 54,
                    "time": 67.5128173828125,
                    "velocity": 0.9763779527559056,
                    "duration": 0.216064453125
                },
                {
                    "name": "G3",
                    "midi": 55,
                    "time": 67.74765014648438,
                    "velocity": 0.9763779527559056,
                    "duration": 0.208282470703125
                },
                {
                    "name": "D4",
                    "midi": 62,
                    "time": 67.97470092773438,
                    "velocity": 0.9763779527559056,
                    "duration": 0.208740234375
                },
                {
                    "name": "A3",
                    "midi": 57,
                    "time": 67.97470092773438,
                    "velocity": 0.9763779527559056,
                    "duration": 0.208740234375
                },
                {
                    "name": "D4",
                    "midi": 62,
                    "time": 68.20220947265625,
                    "velocity": 0.9763779527559056,
                    "duration": 0.216522216796875
                },
                {
                    "name": "A3",
                    "midi": 57,
                    "time": 68.203125,
                    "velocity": 0.9763779527559056,
                    "duration": 0.061798095703125
                },
                {
                    "name": "G3",
                    "midi": 55,
                    "time": 68.25851440429688,
                    "velocity": 0.9763779527559056,
                    "duration": 0.061798095703125
                },
                {
                    "name": "A3",
                    "midi": 57,
                    "time": 68.31390380859375,
                    "velocity": 0.9763779527559056,
                    "duration": 0.061798095703125
                },
                {
                    "name": "G3",
                    "midi": 55,
                    "time": 68.36929321289062,
                    "velocity": 0.937007874015748,
                    "duration": 0.06317138671875
                },
                {
                    "name": "D4",
                    "midi": 62,
                    "time": 68.4375,
                    "velocity": 1,
                    "duration": 0.233917236328125
                },
                {
                    "name": "F#3",
                    "midi": 54,
                    "time": 68.4375,
                    "velocity": 1,
                    "duration": 0.233917236328125
                },
                {
                    "name": "D5",
                    "midi": 74,
                    "time": 68.690185546875,
                    "velocity": 1,
                    "duration": 0.211944580078125
                },
                {
                    "name": "G3",
                    "midi": 55,
                    "time": 68.690185546875,
                    "velocity": 1,
                    "duration": 0.211944580078125
                },
                {
                    "name": "G3",
                    "midi": 55,
                    "time": 68.90625,
                    "velocity": 0.9763779527559056,
                    "duration": 0.061798095703125
                },
                {
                    "name": "D4",
                    "midi": 62,
                    "time": 68.9208984375,
                    "velocity": 0.9763779527559056,
                    "duration": 0.211944580078125
                },
                {
                    "name": "F#3",
                    "midi": 54,
                    "time": 68.96163940429688,
                    "velocity": 0.9763779527559056,
                    "duration": 0.061798095703125
                },
                {
                    "name": "G3",
                    "midi": 55,
                    "time": 69.01702880859375,
                    "velocity": 0.9763779527559056,
                    "duration": 0.061798095703125
                },
                {
                    "name": "F#3",
                    "midi": 54,
                    "time": 69.07241821289062,
                    "velocity": 0.937007874015748,
                    "duration": 0.06317138671875
                },
                {
                    "name": "E4",
                    "midi": 64,
                    "time": 69.151611328125,
                    "velocity": 0.9763779527559056,
                    "duration": 0.217437744140625
                },
                {
                    "name": "E3",
                    "midi": 52,
                    "time": 69.151611328125,
                    "velocity": 0.9763779527559056,
                    "duration": 0.217437744140625
                },
                {
                    "name": "F#4",
                    "midi": 66,
                    "time": 69.375,
                    "velocity": 0.9763779527559056,
                    "duration": 0.084228515625
                },
                {
                    "name": "D3",
                    "midi": 50,
                    "time": 69.3878173828125,
                    "velocity": 0.9763779527559056,
                    "duration": 0.216064453125
                },
                {
                    "name": "E4",
                    "midi": 64,
                    "time": 69.45053100585938,
                    "velocity": 0.9763779527559056,
                    "duration": 0.084228515625
                },
                {
                    "name": "F#4",
                    "midi": 66,
                    "time": 69.52606201171875,
                    "velocity": 0.937007874015748,
                    "duration": 0.076904296875
                },
                {
                    "name": "G4",
                    "midi": 67,
                    "time": 69.62265014648438,
                    "velocity": 0.9763779527559056,
                    "duration": 0.208282470703125
                },
                {
                    "name": "G2",
                    "midi": 43,
                    "time": 69.62265014648438,
                    "velocity": 0.9763779527559056,
                    "duration": 0.208282470703125
                },
                {
                    "name": "E4",
                    "midi": 64,
                    "time": 69.84970092773438,
                    "velocity": 0.9763779527559056,
                    "duration": 0.208740234375
                },
                {
                    "name": "A2",
                    "midi": 45,
                    "time": 69.84970092773438,
                    "velocity": 0.9763779527559056,
                    "duration": 0.208740234375
                },
                {
                    "name": "F#4",
                    "midi": 66,
                    "time": 70.07720947265625,
                    "velocity": 0.9763779527559056,
                    "duration": 0.216522216796875
                },
                {
                    "name": "A1",
                    "midi": 33,
                    "time": 70.07720947265625,
                    "velocity": 0.937007874015748,
                    "duration": 0.216522216796875
                },
                {
                    "name": "E4",
                    "midi": 64,
                    "time": 70.3125,
                    "velocity": 1,
                    "duration": 0.084228515625
                },
                {
                    "name": "D2",
                    "midi": 38,
                    "time": 70.3125,
                    "velocity": 1,
                    "duration": 0.233917236328125
                },
                {
                    "name": "D4",
                    "midi": 62,
                    "time": 70.38803100585938,
                    "velocity": 0.9763779527559056,
                    "duration": 0.084228515625
                },
                {
                    "name": "E4",
                    "midi": 64,
                    "time": 70.46356201171875,
                    "velocity": 0.9763779527559056,
                    "duration": 0.084228515625
                },
                {
                    "name": "D4",
                    "midi": 62,
                    "time": 70.53909301757812,
                    "velocity": 0.937007874015748,
                    "duration": 0.710906982421875
                },
                {
                    "name": "D3",
                    "midi": 50,
                    "time": 70.565185546875,
                    "velocity": 1,
                    "duration": 0.211944580078125
                },
                {
                    "name": "F#3",
                    "midi": 54,
                    "time": 70.7958984375,
                    "velocity": 0.9763779527559056,
                    "duration": 0.211944580078125
                },
                {
                    "name": "A3",
                    "midi": 57,
                    "time": 71.026611328125,
                    "velocity": 0.9763779527559056,
                    "duration": 0.217437744140625
                },
                {
                    "name": "A5",
                    "midi": 81,
                    "time": 71.2628173828125,
                    "velocity": 0.9763779527559056,
                    "duration": 0.46142578125
                },
                {
                    "name": "D4",
                    "midi": 62,
                    "time": 71.2628173828125,
                    "velocity": 0.9763779527559056,
                    "duration": 0.216064453125
                },
                {
                    "name": "A3",
                    "midi": 57,
                    "time": 71.49765014648438,
                    "velocity": 0.9763779527559056,
                    "duration": 0.208282470703125
                },
                {
                    "name": "D5",
                    "midi": 74,
                    "time": 71.72470092773438,
                    "velocity": 0.8818897637795275,
                    "duration": 0.208740234375
                },
                {
                    "name": "D4",
                    "midi": 62,
                    "time": 71.72470092773438,
                    "velocity": 0.9763779527559056,
                    "duration": 0.208740234375
                },
                {
                    "name": "D5",
                    "midi": 74,
                    "time": 71.95220947265625,
                    "velocity": 0.8818897637795275,
                    "duration": 0.216522216796875
                },
                {
                    "name": "F#4",
                    "midi": 66,
                    "time": 71.95220947265625,
                    "velocity": 0.9763779527559056,
                    "duration": 0.216522216796875
                },
                {
                    "name": "E5",
                    "midi": 76,
                    "time": 72.1875,
                    "velocity": 1,
                    "duration": 0.085601806640625
                },
                {
                    "name": "A4",
                    "midi": 69,
                    "time": 72.1875,
                    "velocity": 1,
                    "duration": 0.233917236328125
                },
                {
                    "name": "D5",
                    "midi": 74,
                    "time": 72.26394653320312,
                    "velocity": 0.9763779527559056,
                    "duration": 0.085601806640625
                },
                {
                    "name": "E5",
                    "midi": 76,
                    "time": 72.34039306640625,
                    "velocity": 0.9763779527559056,
                    "duration": 0.085601806640625
                },
                {
                    "name": "D5",
                    "midi": 74,
                    "time": 72.41683959960938,
                    "velocity": 0.937007874015748,
                    "duration": 0.22064208984375
                },
                {
                    "name": "E4",
                    "midi": 64,
                    "time": 72.440185546875,
                    "velocity": 1,
                    "duration": 0.211944580078125
                },
                {
                    "name": "C#5",
                    "midi": 73,
                    "time": 72.6708984375,
                    "velocity": 0.9763779527559056,
                    "duration": 0.466461181640625
                },
                {
                    "name": "A4",
                    "midi": 69,
                    "time": 72.6708984375,
                    "velocity": 0.9763779527559056,
                    "duration": 0.211944580078125
                },
                {
                    "name": "E4",
                    "midi": 64,
                    "time": 72.901611328125,
                    "velocity": 0.9763779527559056,
                    "duration": 0.217437744140625
                },
                {
                    "name": "A5",
                    "midi": 81,
                    "time": 73.1378173828125,
                    "velocity": 0.9763779527559056,
                    "duration": 0.46142578125
                },
                {
                    "name": "C#4",
                    "midi": 61,
                    "time": 73.1378173828125,
                    "velocity": 0.9763779527559056,
                    "duration": 0.216064453125
                },
                {
                    "name": "A3",
                    "midi": 57,
                    "time": 73.37265014648438,
                    "velocity": 0.9763779527559056,
                    "duration": 0.208282470703125
                },
                {
                    "name": "E5",
                    "midi": 76,
                    "time": 73.59970092773438,
                    "velocity": 0.8818897637795275,
                    "duration": 0.208740234375
                },
                {
                    "name": "A2",
                    "midi": 45,
                    "time": 73.59970092773438,
                    "velocity": 0.9763779527559056,
                    "duration": 0.208740234375
                },
                {
                    "name": "E5",
                    "midi": 76,
                    "time": 73.82720947265625,
                    "velocity": 0.8818897637795275,
                    "duration": 0.243988037109375
                },
                {
                    "name": "A1",
                    "midi": 33,
                    "time": 73.82720947265625,
                    "velocity": 0.937007874015748,
                    "duration": 0.216522216796875
                },
                {
                    "name": "G5",
                    "midi": 79,
                    "time": 74.0625,
                    "velocity": 1,
                    "duration": 0.084228515625
                },
                {
                    "name": "D2",
                    "midi": 38,
                    "time": 74.0625,
                    "velocity": 1,
                    "duration": 0.233917236328125
                },
                {
                    "name": "F#5",
                    "midi": 78,
                    "time": 74.13803100585938,
                    "velocity": 0.9763779527559056,
                    "duration": 0.084228515625
                },
                {
                    "name": "G5",
                    "midi": 79,
                    "time": 74.21356201171875,
                    "velocity": 0.9763779527559056,
                    "duration": 0.084228515625
                },
                {
                    "name": "F#5",
                    "midi": 78,
                    "time": 74.28909301757812,
                    "velocity": 0.937007874015748,
                    "duration": 0.222930908203125
                },
                {
                    "name": "D3",
                    "midi": 50,
                    "time": 74.315185546875,
                    "velocity": 1,
                    "duration": 0.211944580078125
                },
                {
                    "name": "E5",
                    "midi": 76,
                    "time": 74.5458984375,
                    "velocity": 0.9763779527559056,
                    "duration": 0.128631591796875
                },
                {
                    "name": "F#3",
                    "midi": 54,
                    "time": 74.5458984375,
                    "velocity": 0.9763779527559056,
                    "duration": 0.211944580078125
                },
                {
                    "name": "D5",
                    "midi": 74,
                    "time": 74.6612548828125,
                    "velocity": 0.937007874015748,
                    "duration": 0.351104736328125
                },
                {
                    "name": "A3",
                    "midi": 57,
                    "time": 74.776611328125,
                    "velocity": 0.9763779527559056,
                    "duration": 0.217437744140625
                },
                {
                    "name": "A5",
                    "midi": 81,
                    "time": 75.0128173828125,
                    "velocity": 0.9763779527559056,
                    "duration": 0.46142578125
                },
                {
                    "name": "D4",
                    "midi": 62,
                    "time": 75.0128173828125,
                    "velocity": 0.9763779527559056,
                    "duration": 0.216064453125
                },
                {
                    "name": "A3",
                    "midi": 57,
                    "time": 75.24765014648438,
                    "velocity": 0.9763779527559056,
                    "duration": 0.208282470703125
                },
                {
                    "name": "D5",
                    "midi": 74,
                    "time": 75.47470092773438,
                    "velocity": 0.8818897637795275,
                    "duration": 0.208740234375
                },
                {
                    "name": "D4",
                    "midi": 62,
                    "time": 75.47470092773438,
                    "velocity": 0.9763779527559056,
                    "duration": 0.208740234375
                },
                {
                    "name": "D5",
                    "midi": 74,
                    "time": 75.70220947265625,
                    "velocity": 0.8818897637795275,
                    "duration": 0.216522216796875
                },
                {
                    "name": "F#4",
                    "midi": 66,
                    "time": 75.70220947265625,
                    "velocity": 0.9763779527559056,
                    "duration": 0.216522216796875
                },
                {
                    "name": "E5",
                    "midi": 76,
                    "time": 75.9375,
                    "velocity": 1,
                    "duration": 0.084228515625
                },
                {
                    "name": "A4",
                    "midi": 69,
                    "time": 75.9375,
                    "velocity": 1,
                    "duration": 0.233917236328125
                },
                {
                    "name": "D5",
                    "midi": 74,
                    "time": 76.01303100585938,
                    "velocity": 0.9763779527559056,
                    "duration": 0.084228515625
                },
                {
                    "name": "E5",
                    "midi": 76,
                    "time": 76.08856201171875,
                    "velocity": 0.9763779527559056,
                    "duration": 0.084228515625
                },
                {
                    "name": "D5",
                    "midi": 74,
                    "time": 76.16409301757812,
                    "velocity": 0.937007874015748,
                    "duration": 0.222930908203125
                },
                {
                    "name": "E4",
                    "midi": 64,
                    "time": 76.190185546875,
                    "velocity": 1,
                    "duration": 0.211944580078125
                },
                {
                    "name": "C#5",
                    "midi": 73,
                    "time": 76.4208984375,
                    "velocity": 0.9763779527559056,
                    "duration": 0.466461181640625
                },
                {
                    "name": "A4",
                    "midi": 69,
                    "time": 76.4208984375,
                    "velocity": 0.9763779527559056,
                    "duration": 0.211944580078125
                },
                {
                    "name": "E4",
                    "midi": 64,
                    "time": 76.651611328125,
                    "velocity": 0.9763779527559056,
                    "duration": 0.217437744140625
                },
                {
                    "name": "A5",
                    "midi": 81,
                    "time": 76.8878173828125,
                    "velocity": 0.9763779527559056,
                    "duration": 0.46142578125
                },
                {
                    "name": "C#4",
                    "midi": 61,
                    "time": 76.8878173828125,
                    "velocity": 0.9763779527559056,
                    "duration": 0.216064453125
                },
                {
                    "name": "A3",
                    "midi": 57,
                    "time": 77.12265014648438,
                    "velocity": 0.9763779527559056,
                    "duration": 0.208282470703125
                },
                {
                    "name": "E5",
                    "midi": 76,
                    "time": 77.34970092773438,
                    "velocity": 0.8818897637795275,
                    "duration": 0.208740234375
                },
                {
                    "name": "A2",
                    "midi": 45,
                    "time": 77.34970092773438,
                    "velocity": 0.9763779527559056,
                    "duration": 0.208740234375
                },
                {
                    "name": "E5",
                    "midi": 76,
                    "time": 77.57720947265625,
                    "velocity": 0.8818897637795275,
                    "duration": 0.243988037109375
                },
                {
                    "name": "A1",
                    "midi": 33,
                    "time": 77.57720947265625,
                    "velocity": 0.937007874015748,
                    "duration": 0.216522216796875
                },
                {
                    "name": "G5",
                    "midi": 79,
                    "time": 77.8125,
                    "velocity": 1,
                    "duration": 0.0860595703125
                },
                {
                    "name": "D2",
                    "midi": 38,
                    "time": 77.8125,
                    "velocity": 1,
                    "duration": 0.233917236328125
                },
                {
                    "name": "F#5",
                    "midi": 78,
                    "time": 77.889404296875,
                    "velocity": 0.9763779527559056,
                    "duration": 0.0860595703125
                },
                {
                    "name": "G5",
                    "midi": 79,
                    "time": 77.96630859375,
                    "velocity": 0.9763779527559056,
                    "duration": 0.0860595703125
                },
                {
                    "name": "F#5",
                    "midi": 78,
                    "time": 78.043212890625,
                    "velocity": 0.937007874015748,
                    "duration": 0.219268798828125
                },
                {
                    "name": "D3",
                    "midi": 50,
                    "time": 78.065185546875,
                    "velocity": 1,
                    "duration": 0.211944580078125
                },
                {
                    "name": "E5",
                    "midi": 76,
                    "time": 78.2958984375,
                    "velocity": 0.9763779527559056,
                    "duration": 0.128631591796875
                },
                {
                    "name": "F#3",
                    "midi": 54,
                    "time": 78.2958984375,
                    "velocity": 0.9763779527559056,
                    "duration": 0.211944580078125
                },
                {
                    "name": "D5",
                    "midi": 74,
                    "time": 78.4112548828125,
                    "velocity": 0.937007874015748,
                    "duration": 0.351104736328125
                },
                {
                    "name": "A3",
                    "midi": 57,
                    "time": 78.526611328125,
                    "velocity": 0.9763779527559056,
                    "duration": 0.217437744140625
                },
                {
                    "name": "A5",
                    "midi": 81,
                    "time": 78.7628173828125,
                    "velocity": 0.9763779527559056,
                    "duration": 0.46142578125
                },
                {
                    "name": "D4",
                    "midi": 62,
                    "time": 78.7628173828125,
                    "velocity": 0.9763779527559056,
                    "duration": 0.216064453125
                },
                {
                    "name": "F#4",
                    "midi": 66,
                    "time": 78.99765014648438,
                    "velocity": 0.9763779527559056,
                    "duration": 0.208282470703125
                },
                {
                    "name": "D5",
                    "midi": 74,
                    "time": 79.22470092773438,
                    "velocity": 0.9763779527559056,
                    "duration": 0.208740234375
                },
                {
                    "name": "A4",
                    "midi": 69,
                    "time": 79.22470092773438,
                    "velocity": 0.9763779527559056,
                    "duration": 0.208740234375
                },
                {
                    "name": "D5",
                    "midi": 74,
                    "time": 79.45220947265625,
                    "velocity": 0.9763779527559056,
                    "duration": 0.216522216796875
                },
                {
                    "name": "D4",
                    "midi": 62,
                    "time": 79.45220947265625,
                    "velocity": 0.9763779527559056,
                    "duration": 0.216522216796875
                },
                {
                    "name": "E5",
                    "midi": 76,
                    "time": 79.6875,
                    "velocity": 1,
                    "duration": 0.233917236328125
                },
                {
                    "name": "C#4",
                    "midi": 61,
                    "time": 79.6875,
                    "velocity": 1,
                    "duration": 0.233917236328125
                },
                {
                    "name": "E5",
                    "midi": 76,
                    "time": 79.940185546875,
                    "velocity": 1,
                    "duration": 0.211944580078125
                },
                {
                    "name": "E4",
                    "midi": 64,
                    "time": 79.940185546875,
                    "velocity": 1,
                    "duration": 0.211944580078125
                },
                {
                    "name": "C#5",
                    "midi": 73,
                    "time": 80.1708984375,
                    "velocity": 0.9763779527559056,
                    "duration": 0.211944580078125
                },
                {
                    "name": "A4",
                    "midi": 69,
                    "time": 80.1708984375,
                    "velocity": 0.9763779527559056,
                    "duration": 0.211944580078125
                },
                {
                    "name": "C#5",
                    "midi": 73,
                    "time": 80.401611328125,
                    "velocity": 0.9763779527559056,
                    "duration": 0.217437744140625
                },
                {
                    "name": "C#4",
                    "midi": 61,
                    "time": 80.401611328125,
                    "velocity": 0.9763779527559056,
                    "duration": 0.217437744140625
                },
                {
                    "name": "D5",
                    "midi": 74,
                    "time": 80.6378173828125,
                    "velocity": 0.9763779527559056,
                    "duration": 0.216064453125
                },
                {
                    "name": "B3",
                    "midi": 59,
                    "time": 80.6378173828125,
                    "velocity": 0.9763779527559056,
                    "duration": 0.216064453125
                },
                {
                    "name": "D5",
                    "midi": 74,
                    "time": 80.87265014648438,
                    "velocity": 0.9763779527559056,
                    "duration": 0.208282470703125
                },
                {
                    "name": "A4",
                    "midi": 69,
                    "time": 80.87265014648438,
                    "velocity": 0.9763779527559056,
                    "duration": 0.208282470703125
                },
                {
                    "name": "B4",
                    "midi": 71,
                    "time": 81.09970092773438,
                    "velocity": 0.9763779527559056,
                    "duration": 0.208740234375
                },
                {
                    "name": "E4",
                    "midi": 64,
                    "time": 81.09970092773438,
                    "velocity": 0.9763779527559056,
                    "duration": 0.208740234375
                },
                {
                    "name": "E5",
                    "midi": 76,
                    "time": 81.32720947265625,
                    "velocity": 0.9763779527559056,
                    "duration": 0.216522216796875
                },
                {
                    "name": "G#4",
                    "midi": 68,
                    "time": 81.32720947265625,
                    "velocity": 0.9763779527559056,
                    "duration": 0.216522216796875
                },
                {
                    "name": "D5",
                    "midi": 74,
                    "time": 81.5625,
                    "velocity": 1,
                    "duration": 0.084686279296875
                },
                {
                    "name": "A3",
                    "midi": 57,
                    "time": 81.5625,
                    "velocity": 1,
                    "duration": 0.233917236328125
                },
                {
                    "name": "C#5",
                    "midi": 73,
                    "time": 81.63848876953125,
                    "velocity": 0.9763779527559056,
                    "duration": 0.084686279296875
                },
                {
                    "name": "D5",
                    "midi": 74,
                    "time": 81.7144775390625,
                    "velocity": 0.9763779527559056,
                    "duration": 0.084686279296875
                },
                {
                    "name": "C#5",
                    "midi": 73,
                    "time": 81.79046630859375,
                    "velocity": 0.937007874015748,
                    "duration": 0.113983154296875
                },
                {
                    "name": "A4",
                    "midi": 69,
                    "time": 81.815185546875,
                    "velocity": 1,
                    "duration": 0.211944580078125
                },
                {
                    "name": "D5",
                    "midi": 74,
                    "time": 81.9305419921875,
                    "velocity": 0.9763779527559056,
                    "duration": 0.10528564453125
                },
                {
                    "name": "E5",
                    "midi": 76,
                    "time": 82.0458984375,
                    "velocity": 0.9763779527559056,
                    "duration": 0.05218505859375
                },
                {
                    "name": "B3",
                    "midi": 59,
                    "time": 82.0458984375,
                    "velocity": 0.9763779527559056,
                    "duration": 0.211944580078125
                },
                {
                    "name": "D5",
                    "midi": 74,
                    "time": 82.10357666015625,
                    "velocity": 0.9763779527559056,
                    "duration": 0.05218505859375
                },
                {
                    "name": "E5",
                    "midi": 76,
                    "time": 82.1612548828125,
                    "velocity": 0.9763779527559056,
                    "duration": 0.05218505859375
                },
                {
                    "name": "D5",
                    "midi": 74,
                    "time": 82.21893310546875,
                    "velocity": 0.9763779527559056,
                    "duration": 0.05218505859375
                },
                {
                    "name": "E5",
                    "midi": 76,
                    "time": 82.276611328125,
                    "velocity": 0.9763779527559056,
                    "duration": 0.052642822265625
                },
                {
                    "name": "G#4",
                    "midi": 68,
                    "time": 82.276611328125,
                    "velocity": 0.9763779527559056,
                    "duration": 0.217437744140625
                },
                {
                    "name": "D5",
                    "midi": 74,
                    "time": 82.33474731445312,
                    "velocity": 0.9763779527559056,
                    "duration": 0.052642822265625
                },
                {
                    "name": "C#5",
                    "midi": 73,
                    "time": 82.39288330078125,
                    "velocity": 0.9763779527559056,
                    "duration": 0.0531005859375
                },
                {
                    "name": "D5",
                    "midi": 74,
                    "time": 82.45147705078125,
                    "velocity": 0.9763779527559056,
                    "duration": 0.05584716796875
                },
                {
                    "name": "E5",
                    "midi": 76,
                    "time": 82.5128173828125,
                    "velocity": 0.9763779527559056,
                    "duration": 0.216064453125
                },
                {
                    "name": "C#4",
                    "midi": 61,
                    "time": 82.5128173828125,
                    "velocity": 0.9763779527559056,
                    "duration": 0.216064453125
                },
                {
                    "name": "A5",
                    "midi": 81,
                    "time": 82.74765014648438,
                    "velocity": 0.9763779527559056,
                    "duration": 0.208282470703125
                },
                {
                    "name": "D4",
                    "midi": 62,
                    "time": 82.74765014648438,
                    "velocity": 0.9763779527559056,
                    "duration": 0.208282470703125
                },
                {
                    "name": "D4",
                    "midi": 62,
                    "time": 82.96875,
                    "velocity": 0.9763779527559056,
                    "duration": 0.061798095703125
                },
                {
                    "name": "A4",
                    "midi": 69,
                    "time": 82.97470092773438,
                    "velocity": 0.9763779527559056,
                    "duration": 0.208740234375
                },
                {
                    "name": "C#4",
                    "midi": 61,
                    "time": 83.02413940429688,
                    "velocity": 0.9763779527559056,
                    "duration": 0.061798095703125
                },
                {
                    "name": "D4",
                    "midi": 62,
                    "time": 83.07952880859375,
                    "velocity": 0.9763779527559056,
                    "duration": 0.061798095703125
                },
                {
                    "name": "C#4",
                    "midi": 61,
                    "time": 83.13491821289062,
                    "velocity": 0.937007874015748,
                    "duration": 0.06317138671875
                },
                {
                    "name": "A4",
                    "midi": 69,
                    "time": 83.20220947265625,
                    "velocity": 0.9763779527559056,
                    "duration": 0.216522216796875
                },
                {
                    "name": "B3",
                    "midi": 59,
                    "time": 83.20220947265625,
                    "velocity": 0.9763779527559056,
                    "duration": 0.216522216796875
                },
                {
                    "name": "A4",
                    "midi": 69,
                    "time": 83.4375,
                    "velocity": 1,
                    "duration": 0.233917236328125
                },
                {
                    "name": "C#4",
                    "midi": 61,
                    "time": 83.4375,
                    "velocity": 1,
                    "duration": 0.233917236328125
                },
                {
                    "name": "A5",
                    "midi": 81,
                    "time": 83.690185546875,
                    "velocity": 1,
                    "duration": 0.211944580078125
                },
                {
                    "name": "D4",
                    "midi": 62,
                    "time": 83.690185546875,
                    "velocity": 1,
                    "duration": 0.211944580078125
                },
                {
                    "name": "D4",
                    "midi": 62,
                    "time": 83.90625,
                    "velocity": 0.9763779527559056,
                    "duration": 0.061798095703125
                },
                {
                    "name": "A4",
                    "midi": 69,
                    "time": 83.9208984375,
                    "velocity": 0.9763779527559056,
                    "duration": 0.211944580078125
                },
                {
                    "name": "C#4",
                    "midi": 61,
                    "time": 83.96163940429688,
                    "velocity": 0.9763779527559056,
                    "duration": 0.061798095703125
                },
                {
                    "name": "D4",
                    "midi": 62,
                    "time": 84.01702880859375,
                    "velocity": 0.9763779527559056,
                    "duration": 0.061798095703125
                },
                {
                    "name": "C#4",
                    "midi": 61,
                    "time": 84.07241821289062,
                    "velocity": 0.937007874015748,
                    "duration": 0.06317138671875
                },
                {
                    "name": "B4",
                    "midi": 71,
                    "time": 84.151611328125,
                    "velocity": 0.9763779527559056,
                    "duration": 0.217437744140625
                },
                {
                    "name": "B3",
                    "midi": 59,
                    "time": 84.151611328125,
                    "velocity": 0.9763779527559056,
                    "duration": 0.217437744140625
                },
                {
                    "name": "C#5",
                    "midi": 73,
                    "time": 84.3878173828125,
                    "velocity": 0.9763779527559056,
                    "duration": 0.216064453125
                },
                {
                    "name": "A3",
                    "midi": 57,
                    "time": 84.3878173828125,
                    "velocity": 0.9763779527559056,
                    "duration": 0.216064453125
                },
                {
                    "name": "B4",
                    "midi": 71,
                    "time": 84.62265014648438,
                    "velocity": 0.9763779527559056,
                    "duration": 0.208282470703125
                },
                {
                    "name": "G#3",
                    "midi": 56,
                    "time": 84.62265014648438,
                    "velocity": 0.9763779527559056,
                    "duration": 0.208282470703125
                },
                {
                    "name": "C#5",
                    "midi": 73,
                    "time": 84.84375,
                    "velocity": 0.9763779527559056,
                    "duration": 0.084228515625
                },
                {
                    "name": "A3",
                    "midi": 57,
                    "time": 84.84970092773438,
                    "velocity": 0.9763779527559056,
                    "duration": 0.208740234375
                },
                {
                    "name": "B4",
                    "midi": 71,
                    "time": 84.91928100585938,
                    "velocity": 0.9763779527559056,
                    "duration": 0.084228515625
                },
                {
                    "name": "C#5",
                    "midi": 73,
                    "time": 84.99481201171875,
                    "velocity": 0.937007874015748,
                    "duration": 0.076904296875
                },
                {
                    "name": "D5",
                    "midi": 74,
                    "time": 85.07720947265625,
                    "velocity": 0.9763779527559056,
                    "duration": 0.216522216796875
                },
                {
                    "name": "D3",
                    "midi": 50,
                    "time": 85.07720947265625,
                    "velocity": 0.9763779527559056,
                    "duration": 0.216522216796875
                },
                {
                    "name": "C#5",
                    "midi": 73,
                    "time": 85.3125,
                    "velocity": 1,
                    "duration": 0.084686279296875
                },
                {
                    "name": "E3",
                    "midi": 52,
                    "time": 85.3125,
                    "velocity": 1,
                    "duration": 0.233917236328125
                },
                {
                    "name": "B4",
                    "midi": 71,
                    "time": 85.38848876953125,
                    "velocity": 0.9763779527559056,
                    "duration": 0.084686279296875
                },
                {
                    "name": "C#5",
                    "midi": 73,
                    "time": 85.4644775390625,
                    "velocity": 0.9763779527559056,
                    "duration": 0.084686279296875
                },
                {
                    "name": "B4",
                    "midi": 71,
                    "time": 85.54046630859375,
                    "velocity": 0.937007874015748,
                    "duration": 0.70953369140625
                },
                {
                    "name": "F#3",
                    "midi": 54,
                    "time": 85.565185546875,
                    "velocity": 1,
                    "duration": 0.211944580078125
                },
                {
                    "name": "F#3",
                    "midi": 54,
                    "time": 85.78125,
                    "velocity": 0.9763779527559056,
                    "duration": 0.061798095703125
                },
                {
                    "name": "E3",
                    "midi": 52,
                    "time": 85.83663940429688,
                    "velocity": 0.9763779527559056,
                    "duration": 0.061798095703125
                },
                {
                    "name": "F#3",
                    "midi": 54,
                    "time": 85.89202880859375,
                    "velocity": 0.9763779527559056,
                    "duration": 0.061798095703125
                },
                {
                    "name": "E3",
                    "midi": 52,
                    "time": 85.94741821289062,
                    "velocity": 0.937007874015748,
                    "duration": 0.06317138671875
                },
                {
                    "name": "D3",
                    "midi": 50,
                    "time": 86.026611328125,
                    "velocity": 0.9763779527559056,
                    "duration": 0.217437744140625
                },
                {
                    "name": "D3",
                    "midi": 50,
                    "time": 86.25,
                    "velocity": 0.9763779527559056,
                    "duration": 0.061798095703125
                },
                {
                    "name": "E5",
                    "midi": 76,
                    "time": 86.2628173828125,
                    "velocity": 0.9763779527559056,
                    "duration": 0.46142578125
                },
                {
                    "name": "C#3",
                    "midi": 49,
                    "time": 86.30538940429688,
                    "velocity": 0.9763779527559056,
                    "duration": 0.061798095703125
                },
                {
                    "name": "D3",
                    "midi": 50,
                    "time": 86.36077880859375,
                    "velocity": 0.9763779527559056,
                    "duration": 0.061798095703125
                },
                {
                    "name": "C#3",
                    "midi": 49,
                    "time": 86.41616821289062,
                    "velocity": 0.937007874015748,
                    "duration": 0.06317138671875
                },
                {
                    "name": "B2",
                    "midi": 47,
                    "time": 86.49765014648438,
                    "velocity": 0.9763779527559056,
                    "duration": 0.208282470703125
                },
                {
                    "name": "E4",
                    "midi": 64,
                    "time": 86.72470092773438,
                    "velocity": 0.9763779527559056,
                    "duration": 0.208740234375
                },
                {
                    "name": "C#3",
                    "midi": 49,
                    "time": 86.72470092773438,
                    "velocity": 0.9763779527559056,
                    "duration": 0.208740234375
                },
                {
                    "name": "E4",
                    "midi": 64,
                    "time": 86.95220947265625,
                    "velocity": 0.9763779527559056,
                    "duration": 0.216522216796875
                },
                {
                    "name": "C#2",
                    "midi": 37,
                    "time": 86.95220947265625,
                    "velocity": 0.952755905511811,
                    "duration": 0.216522216796875
                },
                {
                    "name": "F#4",
                    "midi": 66,
                    "time": 87.1875,
                    "velocity": 1,
                    "duration": 0.233917236328125
                },
                {
                    "name": "D2",
                    "midi": 38,
                    "time": 87.1875,
                    "velocity": 1,
                    "duration": 0.233917236328125
                },
                {
                    "name": "F#4",
                    "midi": 66,
                    "time": 87.440185546875,
                    "velocity": 1,
                    "duration": 0.211944580078125
                },
                {
                    "name": "D3",
                    "midi": 50,
                    "time": 87.440185546875,
                    "velocity": 1,
                    "duration": 0.211944580078125
                },
                {
                    "name": "G#4",
                    "midi": 68,
                    "time": 87.6708984375,
                    "velocity": 0.9763779527559056,
                    "duration": 0.211944580078125
                },
                {
                    "name": "E3",
                    "midi": 52,
                    "time": 87.6708984375,
                    "velocity": 0.9763779527559056,
                    "duration": 0.211944580078125
                },
                {
                    "name": "G#4",
                    "midi": 68,
                    "time": 87.901611328125,
                    "velocity": 0.9763779527559056,
                    "duration": 0.217437744140625
                },
                {
                    "name": "E2",
                    "midi": 40,
                    "time": 87.901611328125,
                    "velocity": 0.968503937007874,
                    "duration": 0.217437744140625
                },
                {
                    "name": "A4",
                    "midi": 69,
                    "time": 88.1378173828125,
                    "velocity": 0.9763779527559056,
                    "duration": 0.216064453125
                },
                {
                    "name": "F#2",
                    "midi": 42,
                    "time": 88.1378173828125,
                    "velocity": 0.968503937007874,
                    "duration": 0.216064453125
                },
                {
                    "name": "A4",
                    "midi": 69,
                    "time": 88.37265014648438,
                    "velocity": 0.9763779527559056,
                    "duration": 0.208282470703125
                },
                {
                    "name": "F#3",
                    "midi": 54,
                    "time": 88.37265014648438,
                    "velocity": 0.9763779527559056,
                    "duration": 0.208282470703125
                },
                {
                    "name": "B4",
                    "midi": 71,
                    "time": 88.59970092773438,
                    "velocity": 0.9763779527559056,
                    "duration": 0.208740234375
                },
                {
                    "name": "G#3",
                    "midi": 56,
                    "time": 88.59970092773438,
                    "velocity": 0.9763779527559056,
                    "duration": 0.208740234375
                },
                {
                    "name": "B4",
                    "midi": 71,
                    "time": 88.82720947265625,
                    "velocity": 0.9763779527559056,
                    "duration": 0.216522216796875
                },
                {
                    "name": "G#2",
                    "midi": 44,
                    "time": 88.82720947265625,
                    "velocity": 0.9763779527559056,
                    "duration": 0.216522216796875
                },
                {
                    "name": "D5",
                    "midi": 74,
                    "time": 89.0625,
                    "velocity": 1,
                    "duration": 0.0860595703125
                },
                {
                    "name": "A2",
                    "midi": 45,
                    "time": 89.0625,
                    "velocity": 1,
                    "duration": 0.233917236328125
                },
                {
                    "name": "C#5",
                    "midi": 73,
                    "time": 89.139404296875,
                    "velocity": 0.9763779527559056,
                    "duration": 0.0860595703125
                },
                {
                    "name": "D5",
                    "midi": 74,
                    "time": 89.21630859375,
                    "velocity": 0.9763779527559056,
                    "duration": 0.0860595703125
                },
                {
                    "name": "C#5",
                    "midi": 73,
                    "time": 89.293212890625,
                    "velocity": 0.937007874015748,
                    "duration": 0.111236572265625
                },
                {
                    "name": "A3",
                    "midi": 57,
                    "time": 89.315185546875,
                    "velocity": 1,
                    "duration": 0.211944580078125
                },
                {
                    "name": "D5",
                    "midi": 74,
                    "time": 89.4305419921875,
                    "velocity": 0.9763779527559056,
                    "duration": 0.10528564453125
                },
                {
                    "name": "E5",
                    "midi": 76,
                    "time": 89.5458984375,
                    "velocity": 0.9763779527559056,
                    "duration": 0.05218505859375
                },
                {
                    "name": "B3",
                    "midi": 59,
                    "time": 89.5458984375,
                    "velocity": 0.9763779527559056,
                    "duration": 0.211944580078125
                },
                {
                    "name": "D5",
                    "midi": 74,
                    "time": 89.60357666015625,
                    "velocity": 0.9763779527559056,
                    "duration": 0.05218505859375
                },
                {
                    "name": "E5",
                    "midi": 76,
                    "time": 89.6612548828125,
                    "velocity": 0.9763779527559056,
                    "duration": 0.05218505859375
                },
                {
                    "name": "D5",
                    "midi": 74,
                    "time": 89.71893310546875,
                    "velocity": 0.9763779527559056,
                    "duration": 0.05218505859375
                },
                {
                    "name": "E5",
                    "midi": 76,
                    "time": 89.776611328125,
                    "velocity": 0.9763779527559056,
                    "duration": 0.052642822265625
                },
                {
                    "name": "B2",
                    "midi": 47,
                    "time": 89.776611328125,
                    "velocity": 0.9763779527559056,
                    "duration": 0.217437744140625
                },
                {
                    "name": "D5",
                    "midi": 74,
                    "time": 89.83474731445312,
                    "velocity": 0.9763779527559056,
                    "duration": 0.052642822265625
                },
                {
                    "name": "C#5",
                    "midi": 73,
                    "time": 89.89288330078125,
                    "velocity": 0.9763779527559056,
                    "duration": 0.0531005859375
                },
                {
                    "name": "D5",
                    "midi": 74,
                    "time": 89.95147705078125,
                    "velocity": 0.9763779527559056,
                    "duration": 0.05584716796875
                },
                {
                    "name": "E5",
                    "midi": 76,
                    "time": 90.0128173828125,
                    "velocity": 0.9763779527559056,
                    "duration": 0.216064453125
                },
                {
                    "name": "C#3",
                    "midi": 49,
                    "time": 90.0128173828125,
                    "velocity": 0.9763779527559056,
                    "duration": 0.216064453125
                },
                {
                    "name": "A5",
                    "midi": 81,
                    "time": 90.24765014648438,
                    "velocity": 0.9763779527559056,
                    "duration": 0.208282470703125
                },
                {
                    "name": "C#4",
                    "midi": 61,
                    "time": 90.24765014648438,
                    "velocity": 0.9763779527559056,
                    "duration": 0.208282470703125
                },
                {
                    "name": "A4",
                    "midi": 69,
                    "time": 90.47470092773438,
                    "velocity": 0.9763779527559056,
                    "duration": 0.208740234375
                },
                {
                    "name": "E4",
                    "midi": 64,
                    "time": 90.47470092773438,
                    "velocity": 0.9763779527559056,
                    "duration": 0.208740234375
                },
                {
                    "name": "A4",
                    "midi": 69,
                    "time": 90.70220947265625,
                    "velocity": 0.9763779527559056,
                    "duration": 0.216522216796875
                },
                {
                    "name": "C#4",
                    "midi": 61,
                    "time": 90.70220947265625,
                    "velocity": 0.9763779527559056,
                    "duration": 0.216522216796875
                },
                {
                    "name": "A4",
                    "midi": 69,
                    "time": 90.9375,
                    "velocity": 1,
                    "duration": 0.233917236328125
                },
                {
                    "name": "A3",
                    "midi": 57,
                    "time": 90.9375,
                    "velocity": 1,
                    "duration": 0.233917236328125
                },
                {
                    "name": "A5",
                    "midi": 81,
                    "time": 91.190185546875,
                    "velocity": 1,
                    "duration": 0.211944580078125
                },
                {
                    "name": "E3",
                    "midi": 52,
                    "time": 91.190185546875,
                    "velocity": 1,
                    "duration": 0.211944580078125
                },
                {
                    "name": "A4",
                    "midi": 69,
                    "time": 91.4208984375,
                    "velocity": 0.9763779527559056,
                    "duration": 0.211944580078125
                },
                {
                    "name": "C#3",
                    "midi": 49,
                    "time": 91.4208984375,
                    "velocity": 0.9763779527559056,
                    "duration": 0.211944580078125
                },
                {
                    "name": "B4",
                    "midi": 71,
                    "time": 91.651611328125,
                    "velocity": 0.9763779527559056,
                    "duration": 0.217437744140625
                },
                {
                    "name": "A2",
                    "midi": 45,
                    "time": 91.651611328125,
                    "velocity": 0.9763779527559056,
                    "duration": 0.217437744140625
                },
                {
                    "name": "C#5",
                    "midi": 73,
                    "time": 91.8878173828125,
                    "velocity": 0.9763779527559056,
                    "duration": 0.216064453125
                },
                {
                    "name": "E2",
                    "midi": 40,
                    "time": 91.8878173828125,
                    "velocity": 0.968503937007874,
                    "duration": 0.46142578125
                },
                {
                    "name": "D5",
                    "midi": 74,
                    "time": 92.12265014648438,
                    "velocity": 0.9763779527559056,
                    "duration": 0.208282470703125
                },
                {
                    "name": "B4",
                    "midi": 71,
                    "time": 92.34970092773438,
                    "velocity": 0.9763779527559056,
                    "duration": 0.208740234375
                },
                {
                    "name": "E3",
                    "midi": 52,
                    "time": 92.34970092773438,
                    "velocity": 0.9763779527559056,
                    "duration": 0.46234130859375
                },
                {
                    "name": "C#5",
                    "midi": 73,
                    "time": 92.57720947265625,
                    "velocity": 0.9763779527559056,
                    "duration": 0.216522216796875
                },
                {
                    "name": "B4",
                    "midi": 71,
                    "time": 92.8125,
                    "velocity": 1,
                    "duration": 0.0860595703125
                },
                {
                    "name": "A2",
                    "midi": 45,
                    "time": 92.8125,
                    "velocity": 1,
                    "duration": 0.232086181640625
                },
                {
                    "name": "A4",
                    "midi": 69,
                    "time": 92.889404296875,
                    "velocity": 0.9763779527559056,
                    "duration": 0.0860595703125
                },
                {
                    "name": "B4",
                    "midi": 71,
                    "time": 92.96630859375,
                    "velocity": 0.9763779527559056,
                    "duration": 0.0860595703125
                },
                {
                    "name": "A4",
                    "midi": 69,
                    "time": 93.043212890625,
                    "velocity": 0.937007874015748,
                    "duration": 0.706787109375
                },
                {
                    "name": "A3",
                    "midi": 57,
                    "time": 93.0633544921875,
                    "velocity": 0.9763779527559056,
                    "duration": 0.2069091796875
                },
                {
                    "name": "C#4",
                    "midi": 61,
                    "time": 93.28903198242188,
                    "velocity": 0.9763779527559056,
                    "duration": 0.207366943359375
                },
                {
                    "name": "A3",
                    "midi": 57,
                    "time": 93.51516723632812,
                    "velocity": 0.9763779527559056,
                    "duration": 0.216064453125
                },
                {
                    "name": "F#5",
                    "midi": 78,
                    "time": 93.75,
                    "velocity": 1,
                    "duration": 0.47607421875
                },
                {
                    "name": "D4",
                    "midi": 62,
                    "time": 93.75,
                    "velocity": 1,
                    "duration": 0.232086181640625
                },
                {
                    "name": "E4",
                    "midi": 64,
                    "time": 94.0008544921875,
                    "velocity": 0.9763779527559056,
                    "duration": 0.2069091796875
                },
                {
                    "name": "A4",
                    "midi": 69,
                    "time": 94.22653198242188,
                    "velocity": 0.8818897637795275,
                    "duration": 0.207366943359375
                },
                {
                    "name": "F#4",
                    "midi": 66,
                    "time": 94.22653198242188,
                    "velocity": 0.9763779527559056,
                    "duration": 0.207366943359375
                },
                {
                    "name": "A4",
                    "midi": 69,
                    "time": 94.45266723632812,
                    "velocity": 0.8818897637795275,
                    "duration": 0.216064453125
                },
                {
                    "name": "D4",
                    "midi": 62,
                    "time": 94.45266723632812,
                    "velocity": 0.9763779527559056,
                    "duration": 0.216064453125
                },
                {
                    "name": "B4",
                    "midi": 71,
                    "time": 94.6875,
                    "velocity": 1,
                    "duration": 0.0860595703125
                },
                {
                    "name": "E4",
                    "midi": 64,
                    "time": 94.6875,
                    "velocity": 1,
                    "duration": 0.233917236328125
                },
                {
                    "name": "A4",
                    "midi": 69,
                    "time": 94.764404296875,
                    "velocity": 0.9763779527559056,
                    "duration": 0.0860595703125
                },
                {
                    "name": "B4",
                    "midi": 71,
                    "time": 94.84130859375,
                    "velocity": 0.9763779527559056,
                    "duration": 0.0860595703125
                },
                {
                    "name": "A4",
                    "midi": 69,
                    "time": 94.918212890625,
                    "velocity": 0.937007874015748,
                    "duration": 0.219268798828125
                },
                {
                    "name": "F#4",
                    "midi": 66,
                    "time": 94.940185546875,
                    "velocity": 1,
                    "duration": 0.211944580078125
                },
                {
                    "name": "G4",
                    "midi": 67,
                    "time": 95.1708984375,
                    "velocity": 0.9763779527559056,
                    "duration": 0.466461181640625
                },
                {
                    "name": "E4",
                    "midi": 64,
                    "time": 95.1708984375,
                    "velocity": 0.9763779527559056,
                    "duration": 0.211944580078125
                },
                {
                    "name": "D4",
                    "midi": 62,
                    "time": 95.401611328125,
                    "velocity": 0.9763779527559056,
                    "duration": 0.217437744140625
                },
                {
                    "name": "D4",
                    "midi": 62,
                    "time": 95.625,
                    "velocity": 0.9763779527559056,
                    "duration": 0.061798095703125
                },
                {
                    "name": "E5",
                    "midi": 76,
                    "time": 95.6378173828125,
                    "velocity": 0.9763779527559056,
                    "duration": 0.46142578125
                },
                {
                    "name": "C#4",
                    "midi": 61,
                    "time": 95.68038940429688,
                    "velocity": 0.9763779527559056,
                    "duration": 0.061798095703125
                },
                {
                    "name": "D4",
                    "midi": 62,
                    "time": 95.73577880859375,
                    "velocity": 0.9763779527559056,
                    "duration": 0.061798095703125
                },
                {
                    "name": "C#4",
                    "midi": 61,
                    "time": 95.79116821289062,
                    "velocity": 0.937007874015748,
                    "duration": 0.06317138671875
                },
                {
                    "name": "B3",
                    "midi": 59,
                    "time": 95.87265014648438,
                    "velocity": 0.9763779527559056,
                    "duration": 0.208282470703125
                },
                {
                    "name": "G4",
                    "midi": 67,
                    "time": 96.09970092773438,
                    "velocity": 0.8818897637795275,
                    "duration": 0.208740234375
                },
                {
                    "name": "C#4",
                    "midi": 61,
                    "time": 96.09970092773438,
                    "velocity": 0.9763779527559056,
                    "duration": 0.208740234375
                },
                {
                    "name": "G4",
                    "midi": 67,
                    "time": 96.32720947265625,
                    "velocity": 0.8818897637795275,
                    "duration": 0.216522216796875
                },
                {
                    "name": "A3",
                    "midi": 57,
                    "time": 96.32720947265625,
                    "velocity": 0.9763779527559056,
                    "duration": 0.216522216796875
                },
                {
                    "name": "A4",
                    "midi": 69,
                    "time": 96.5625,
                    "velocity": 1,
                    "duration": 0.0860595703125
                },
                {
                    "name": "D4",
                    "midi": 62,
                    "time": 96.5625,
                    "velocity": 1,
                    "duration": 0.233917236328125
                },
                {
                    "name": "G4",
                    "midi": 67,
                    "time": 96.639404296875,
                    "velocity": 0.9763779527559056,
                    "duration": 0.0860595703125
                },
                {
                    "name": "A4",
                    "midi": 69,
                    "time": 96.71630859375,
                    "velocity": 0.9763779527559056,
                    "duration": 0.0860595703125
                },
                {
                    "name": "G4",
                    "midi": 67,
                    "time": 96.793212890625,
                    "velocity": 0.937007874015748,
                    "duration": 0.219268798828125
                },
                {
                    "name": "A3",
                    "midi": 57,
                    "time": 96.815185546875,
                    "velocity": 1,
                    "duration": 0.211944580078125
                },
                {
                    "name": "F#4",
                    "midi": 66,
                    "time": 97.0458984375,
                    "velocity": 0.9763779527559056,
                    "duration": 0.466461181640625
                },
                {
                    "name": "D3",
                    "midi": 50,
                    "time": 97.0458984375,
                    "velocity": 0.9763779527559056,
                    "duration": 0.211944580078125
                },
                {
                    "name": "E3",
                    "midi": 52,
                    "time": 97.276611328125,
                    "velocity": 0.9763779527559056,
                    "duration": 0.217437744140625
                },
                {
                    "name": "D5",
                    "midi": 74,
                    "time": 97.5128173828125,
                    "velocity": 0.9763779527559056,
                    "duration": 0.46142578125
                },
                {
                    "name": "F#3",
                    "midi": 54,
                    "time": 97.5128173828125,
                    "velocity": 0.9763779527559056,
                    "duration": 0.216064453125
                },
                {
                    "name": "G3",
                    "midi": 55,
                    "time": 97.74765014648438,
                    "velocity": 0.9763779527559056,
                    "duration": 0.208282470703125
                },
                {
                    "name": "D4",
                    "midi": 62,
                    "time": 97.97470092773438,
                    "velocity": 0.9763779527559056,
                    "duration": 0.208740234375
                },
                {
                    "name": "A3",
                    "midi": 57,
                    "time": 97.97470092773438,
                    "velocity": 0.9763779527559056,
                    "duration": 0.208740234375
                },
                {
                    "name": "D4",
                    "midi": 62,
                    "time": 98.20220947265625,
                    "velocity": 0.9763779527559056,
                    "duration": 0.216522216796875
                },
                {
                    "name": "A3",
                    "midi": 57,
                    "time": 98.203125,
                    "velocity": 0.9763779527559056,
                    "duration": 0.061798095703125
                },
                {
                    "name": "G3",
                    "midi": 55,
                    "time": 98.25851440429688,
                    "velocity": 0.9763779527559056,
                    "duration": 0.061798095703125
                },
                {
                    "name": "A3",
                    "midi": 57,
                    "time": 98.31390380859375,
                    "velocity": 0.9763779527559056,
                    "duration": 0.061798095703125
                },
                {
                    "name": "G3",
                    "midi": 55,
                    "time": 98.36929321289062,
                    "velocity": 0.937007874015748,
                    "duration": 0.06317138671875
                },
                {
                    "name": "D4",
                    "midi": 62,
                    "time": 98.4375,
                    "velocity": 1,
                    "duration": 0.233917236328125
                },
                {
                    "name": "F#3",
                    "midi": 54,
                    "time": 98.4375,
                    "velocity": 1,
                    "duration": 0.233917236328125
                },
                {
                    "name": "D5",
                    "midi": 74,
                    "time": 98.690185546875,
                    "velocity": 1,
                    "duration": 0.211944580078125
                },
                {
                    "name": "G3",
                    "midi": 55,
                    "time": 98.690185546875,
                    "velocity": 1,
                    "duration": 0.211944580078125
                },
                {
                    "name": "G3",
                    "midi": 55,
                    "time": 98.90625,
                    "velocity": 0.9763779527559056,
                    "duration": 0.061798095703125
                },
                {
                    "name": "D4",
                    "midi": 62,
                    "time": 98.9208984375,
                    "velocity": 0.9763779527559056,
                    "duration": 0.211944580078125
                },
                {
                    "name": "F#3",
                    "midi": 54,
                    "time": 98.96163940429688,
                    "velocity": 0.9763779527559056,
                    "duration": 0.061798095703125
                },
                {
                    "name": "G3",
                    "midi": 55,
                    "time": 99.01702880859375,
                    "velocity": 0.9763779527559056,
                    "duration": 0.061798095703125
                },
                {
                    "name": "F#3",
                    "midi": 54,
                    "time": 99.07241821289062,
                    "velocity": 0.937007874015748,
                    "duration": 0.06317138671875
                },
                {
                    "name": "E4",
                    "midi": 64,
                    "time": 99.151611328125,
                    "velocity": 0.9763779527559056,
                    "duration": 0.217437744140625
                },
                {
                    "name": "E3",
                    "midi": 52,
                    "time": 99.151611328125,
                    "velocity": 0.9763779527559056,
                    "duration": 0.217437744140625
                },
                {
                    "name": "F#4",
                    "midi": 66,
                    "time": 99.3878173828125,
                    "velocity": 0.9763779527559056,
                    "duration": 0.216064453125
                },
                {
                    "name": "D3",
                    "midi": 50,
                    "time": 99.3878173828125,
                    "velocity": 0.9763779527559056,
                    "duration": 0.216064453125
                },
                {
                    "name": "E4",
                    "midi": 64,
                    "time": 99.62265014648438,
                    "velocity": 0.9763779527559056,
                    "duration": 0.208282470703125
                },
                {
                    "name": "C#3",
                    "midi": 49,
                    "time": 99.62265014648438,
                    "velocity": 0.9763779527559056,
                    "duration": 0.208282470703125
                },
                {
                    "name": "D3",
                    "midi": 50,
                    "time": 99.84375,
                    "velocity": 0.9763779527559056,
                    "duration": 0.084228515625
                },
                {
                    "name": "F#4",
                    "midi": 66,
                    "time": 99.84970092773438,
                    "velocity": 0.9763779527559056,
                    "duration": 0.208740234375
                },
                {
                    "name": "C#3",
                    "midi": 49,
                    "time": 99.91928100585938,
                    "velocity": 0.9763779527559056,
                    "duration": 0.084228515625
                },
                {
                    "name": "D3",
                    "midi": 50,
                    "time": 99.99481201171875,
                    "velocity": 0.937007874015748,
                    "duration": 0.076904296875
                },
                {
                    "name": "G4",
                    "midi": 67,
                    "time": 100.07720947265625,
                    "velocity": 0.9763779527559056,
                    "duration": 0.216522216796875
                },
                {
                    "name": "G2",
                    "midi": 43,
                    "time": 100.07720947265625,
                    "velocity": 0.9763779527559056,
                    "duration": 0.216522216796875
                },
                {
                    "name": "F#4",
                    "midi": 66,
                    "time": 100.3125,
                    "velocity": 1,
                    "duration": 0.0860595703125
                },
                {
                    "name": "A2",
                    "midi": 45,
                    "time": 100.3125,
                    "velocity": 1,
                    "duration": 0.233917236328125
                },
                {
                    "name": "E4",
                    "midi": 64,
                    "time": 100.389404296875,
                    "velocity": 0.9763779527559056,
                    "duration": 0.0860595703125
                },
                {
                    "name": "F#4",
                    "midi": 66,
                    "time": 100.46630859375,
                    "velocity": 0.9763779527559056,
                    "duration": 0.0860595703125
                },
                {
                    "name": "E4",
                    "midi": 64,
                    "time": 100.543212890625,
                    "velocity": 0.937007874015748,
                    "duration": 0.706787109375
                },
                {
                    "name": "E3",
                    "midi": 52,
                    "time": 100.565185546875,
                    "velocity": 1,
                    "duration": 0.211944580078125
                },
                {
                    "name": "A3",
                    "midi": 57,
                    "time": 100.7958984375,
                    "velocity": 0.9763779527559056,
                    "duration": 0.211944580078125
                },
                {
                    "name": "G3",
                    "midi": 55,
                    "time": 101.026611328125,
                    "velocity": 0.9763779527559056,
                    "duration": 0.217437744140625
                },
                {
                    "name": "G3",
                    "midi": 55,
                    "time": 101.25,
                    "velocity": 0.9763779527559056,
                    "duration": 0.061798095703125
                },
                {
                    "name": "F#5",
                    "midi": 78,
                    "time": 101.2628173828125,
                    "velocity": 0.9763779527559056,
                    "duration": 0.46142578125
                },
                {
                    "name": "F#3",
                    "midi": 54,
                    "time": 101.30538940429688,
                    "velocity": 0.9763779527559056,
                    "duration": 0.061798095703125
                },
                {
                    "name": "G3",
                    "midi": 55,
                    "time": 101.36077880859375,
                    "velocity": 0.9763779527559056,
                    "duration": 0.061798095703125
                },
                {
                    "name": "F#3",
                    "midi": 54,
                    "time": 101.41616821289062,
                    "velocity": 0.937007874015748,
                    "duration": 0.06317138671875
                },
                {
                    "name": "E3",
                    "midi": 52,
                    "time": 101.49765014648438,
                    "velocity": 0.9763779527559056,
                    "duration": 0.208282470703125
                },
                {
                    "name": "A4",
                    "midi": 69,
                    "time": 101.72470092773438,
                    "velocity": 0.8818897637795275,
                    "duration": 0.208740234375
                },
                {
                    "name": "F#3",
                    "midi": 54,
                    "time": 101.72470092773438,
                    "velocity": 0.9763779527559056,
                    "duration": 0.208740234375
                },
                {
                    "name": "A4",
                    "midi": 69,
                    "time": 101.95220947265625,
                    "velocity": 0.8818897637795275,
                    "duration": 0.216522216796875
                },
                {
                    "name": "D3",
                    "midi": 50,
                    "time": 101.95220947265625,
                    "velocity": 0.9763779527559056,
                    "duration": 0.216522216796875
                },
                {
                    "name": "B4",
                    "midi": 71,
                    "time": 102.1875,
                    "velocity": 1,
                    "duration": 0.08697509765625
                },
                {
                    "name": "E3",
                    "midi": 52,
                    "time": 102.1875,
                    "velocity": 1,
                    "duration": 0.233917236328125
                },
                {
                    "name": "A4",
                    "midi": 69,
                    "time": 102.26531982421875,
                    "velocity": 0.9763779527559056,
                    "duration": 0.08697509765625
                },
                {
                    "name": "B4",
                    "midi": 71,
                    "time": 102.3431396484375,
                    "velocity": 0.9763779527559056,
                    "duration": 0.08697509765625
                },
                {
                    "name": "A4",
                    "midi": 69,
                    "time": 102.42095947265625,
                    "velocity": 0.937007874015748,
                    "duration": 0.216522216796875
                },
                {
                    "name": "F#3",
                    "midi": 54,
                    "time": 102.440185546875,
                    "velocity": 1,
                    "duration": 0.211944580078125
                },
                {
                    "name": "G4",
                    "midi": 67,
                    "time": 102.6708984375,
                    "velocity": 0.9763779527559056,
                    "duration": 0.466461181640625
                },
                {
                    "name": "E3",
                    "midi": 52,
                    "time": 102.6708984375,
                    "velocity": 0.9763779527559056,
                    "duration": 0.211944580078125
                },
                {
                    "name": "D3",
                    "midi": 50,
                    "time": 102.901611328125,
                    "velocity": 0.9763779527559056,
                    "duration": 0.217437744140625
                },
                {
                    "name": "D3",
                    "midi": 50,
                    "time": 103.125,
                    "velocity": 0.9763779527559056,
                    "duration": 0.061798095703125
                },
                {
                    "name": "E5",
                    "midi": 76,
                    "time": 103.1378173828125,
                    "velocity": 0.9763779527559056,
                    "duration": 0.46142578125
                },
                {
                    "name": "C#3",
                    "midi": 49,
                    "time": 103.18038940429688,
                    "velocity": 0.9763779527559056,
                    "duration": 0.061798095703125
                },
                {
                    "name": "D3",
                    "midi": 50,
                    "time": 103.23577880859375,
                    "velocity": 0.9763779527559056,
                    "duration": 0.061798095703125
                },
                {
                    "name": "C#3",
                    "midi": 49,
                    "time": 103.29116821289062,
                    "velocity": 0.937007874015748,
                    "duration": 0.06317138671875
                },
                {
                    "name": "B2",
                    "midi": 47,
                    "time": 103.37265014648438,
                    "velocity": 0.9763779527559056,
                    "duration": 0.208282470703125
                },
                {
                    "name": "G4",
                    "midi": 67,
                    "time": 103.59970092773438,
                    "velocity": 0.8818897637795275,
                    "duration": 0.208740234375
                },
                {
                    "name": "C#3",
                    "midi": 49,
                    "time": 103.59970092773438,
                    "velocity": 0.9763779527559056,
                    "duration": 0.208740234375
                },
                {
                    "name": "G4",
                    "midi": 67,
                    "time": 103.82720947265625,
                    "velocity": 0.8818897637795275,
                    "duration": 0.216522216796875
                },
                {
                    "name": "A2",
                    "midi": 45,
                    "time": 103.82720947265625,
                    "velocity": 0.9763779527559056,
                    "duration": 0.216522216796875
                },
                {
                    "name": "A4",
                    "midi": 69,
                    "time": 104.0625,
                    "velocity": 1,
                    "duration": 0.084686279296875
                },
                {
                    "name": "D3",
                    "midi": 50,
                    "time": 104.0625,
                    "velocity": 1,
                    "duration": 0.233917236328125
                },
                {
                    "name": "G4",
                    "midi": 67,
                    "time": 104.13848876953125,
                    "velocity": 0.9763779527559056,
                    "duration": 0.084686279296875
                },
                {
                    "name": "A4",
                    "midi": 69,
                    "time": 104.2144775390625,
                    "velocity": 0.9763779527559056,
                    "duration": 0.084686279296875
                },
                {
                    "name": "G4",
                    "midi": 67,
                    "time": 104.29046630859375,
                    "velocity": 0.937007874015748,
                    "duration": 0.2215576171875
                },
                {
                    "name": "C#3",
                    "midi": 49,
                    "time": 104.315185546875,
                    "velocity": 1,
                    "duration": 0.211944580078125
                },
                {
                    "name": "F#4",
                    "midi": 66,
                    "time": 104.5458984375,
                    "velocity": 0.9763779527559056,
                    "duration": 0.466461181640625
                },
                {
                    "name": "D3",
                    "midi": 50,
                    "time": 104.5458984375,
                    "velocity": 0.9763779527559056,
                    "duration": 0.211944580078125
                },
                {
                    "name": "E3",
                    "midi": 52,
                    "time": 104.776611328125,
                    "velocity": 0.9763779527559056,
                    "duration": 0.217437744140625
                },
                {
                    "name": "D5",
                    "midi": 74,
                    "time": 105.0128173828125,
                    "velocity": 0.9763779527559056,
                    "duration": 0.46142578125
                },
                {
                    "name": "F#3",
                    "midi": 54,
                    "time": 105.0128173828125,
                    "velocity": 0.9763779527559056,
                    "duration": 0.216064453125
                },
                {
                    "name": "G3",
                    "midi": 55,
                    "time": 105.24765014648438,
                    "velocity": 0.9763779527559056,
                    "duration": 0.208282470703125
                },
                {
                    "name": "D4",
                    "midi": 62,
                    "time": 105.47470092773438,
                    "velocity": 0.9763779527559056,
                    "duration": 0.208740234375
                },
                {
                    "name": "A3",
                    "midi": 57,
                    "time": 105.47470092773438,
                    "velocity": 0.9763779527559056,
                    "duration": 0.208740234375
                },
                {
                    "name": "D4",
                    "midi": 62,
                    "time": 105.70220947265625,
                    "velocity": 0.9763779527559056,
                    "duration": 0.216522216796875
                },
                {
                    "name": "A3",
                    "midi": 57,
                    "time": 105.703125,
                    "velocity": 0.9763779527559056,
                    "duration": 0.061798095703125
                },
                {
                    "name": "G3",
                    "midi": 55,
                    "time": 105.75851440429688,
                    "velocity": 0.9763779527559056,
                    "duration": 0.061798095703125
                },
                {
                    "name": "A3",
                    "midi": 57,
                    "time": 105.81390380859375,
                    "velocity": 0.9763779527559056,
                    "duration": 0.061798095703125
                },
                {
                    "name": "G3",
                    "midi": 55,
                    "time": 105.86929321289062,
                    "velocity": 0.937007874015748,
                    "duration": 0.06317138671875
                },
                {
                    "name": "D4",
                    "midi": 62,
                    "time": 105.9375,
                    "velocity": 1,
                    "duration": 0.233917236328125
                },
                {
                    "name": "F#3",
                    "midi": 54,
                    "time": 105.9375,
                    "velocity": 1,
                    "duration": 0.233917236328125
                },
                {
                    "name": "D5",
                    "midi": 74,
                    "time": 106.190185546875,
                    "velocity": 1,
                    "duration": 0.211944580078125
                },
                {
                    "name": "G3",
                    "midi": 55,
                    "time": 106.190185546875,
                    "velocity": 1,
                    "duration": 0.211944580078125
                },
                {
                    "name": "G3",
                    "midi": 55,
                    "time": 106.40625,
                    "velocity": 0.9763779527559056,
                    "duration": 0.061798095703125
                },
                {
                    "name": "D4",
                    "midi": 62,
                    "time": 106.4208984375,
                    "velocity": 0.9763779527559056,
                    "duration": 0.211944580078125
                },
                {
                    "name": "F#3",
                    "midi": 54,
                    "time": 106.46163940429688,
                    "velocity": 0.9763779527559056,
                    "duration": 0.061798095703125
                },
                {
                    "name": "G3",
                    "midi": 55,
                    "time": 106.51702880859375,
                    "velocity": 0.9763779527559056,
                    "duration": 0.061798095703125
                },
                {
                    "name": "F#3",
                    "midi": 54,
                    "time": 106.57241821289062,
                    "velocity": 0.937007874015748,
                    "duration": 0.06317138671875
                },
                {
                    "name": "E4",
                    "midi": 64,
                    "time": 106.651611328125,
                    "velocity": 0.9763779527559056,
                    "duration": 0.217437744140625
                },
                {
                    "name": "E3",
                    "midi": 52,
                    "time": 106.651611328125,
                    "velocity": 0.9763779527559056,
                    "duration": 0.217437744140625
                },
                {
                    "name": "F#4",
                    "midi": 66,
                    "time": 106.875,
                    "velocity": 0.9763779527559056,
                    "duration": 0.084228515625
                },
                {
                    "name": "D3",
                    "midi": 50,
                    "time": 106.8878173828125,
                    "velocity": 0.9763779527559056,
                    "duration": 0.216064453125
                },
                {
                    "name": "E4",
                    "midi": 64,
                    "time": 106.95053100585938,
                    "velocity": 0.9763779527559056,
                    "duration": 0.084228515625
                },
                {
                    "name": "F#4",
                    "midi": 66,
                    "time": 107.02606201171875,
                    "velocity": 0.937007874015748,
                    "duration": 0.076904296875
                },
                {
                    "name": "G4",
                    "midi": 67,
                    "time": 107.12265014648438,
                    "velocity": 0.9763779527559056,
                    "duration": 0.208282470703125
                },
                {
                    "name": "G2",
                    "midi": 43,
                    "time": 107.12265014648438,
                    "velocity": 0.9763779527559056,
                    "duration": 0.208282470703125
                },
                {
                    "name": "E4",
                    "midi": 64,
                    "time": 107.34970092773438,
                    "velocity": 0.9763779527559056,
                    "duration": 0.208740234375
                },
                {
                    "name": "A2",
                    "midi": 45,
                    "time": 107.34970092773438,
                    "velocity": 0.9763779527559056,
                    "duration": 0.208740234375
                },
                {
                    "name": "F#4",
                    "midi": 66,
                    "time": 107.57720947265625,
                    "velocity": 0.9763779527559056,
                    "duration": 0.216522216796875
                },
                {
                    "name": "A1",
                    "midi": 33,
                    "time": 107.57720947265625,
                    "velocity": 0.937007874015748,
                    "duration": 0.216522216796875
                },
                {
                    "name": "E4",
                    "midi": 64,
                    "time": 107.8125,
                    "velocity": 1,
                    "duration": 0.075531005859375
                },
                {
                    "name": "D2",
                    "midi": 38,
                    "time": 107.8125,
                    "velocity": 1,
                    "duration": 0.233917236328125
                },
                {
                    "name": "D4",
                    "midi": 62,
                    "time": 107.8802490234375,
                    "velocity": 0.9763779527559056,
                    "duration": 0.075531005859375
                },
                {
                    "name": "E4",
                    "midi": 64,
                    "time": 107.947998046875,
                    "velocity": 0.9763779527559056,
                    "duration": 0.075531005859375
                },
                {
                    "name": "D4",
                    "midi": 62,
                    "time": 108.0157470703125,
                    "velocity": 0.937007874015748,
                    "duration": 0.6756591796875
                },
                {
                    "name": "A2",
                    "midi": 45,
                    "time": 108.065185546875,
                    "velocity": 1,
                    "duration": 0.211944580078125
                },
                {
                    "name": "D3",
                    "midi": 50,
                    "time": 108.2958984375,
                    "velocity": 0.9763779527559056,
                    "duration": 0.211944580078125
                },
                {
                    "name": "D2",
                    "midi": 38,
                    "time": 108.526611328125,
                    "velocity": 0.9606299212598425,
                    "duration": 0.250396728515625
                },
                {
                    "name": "A4",
                    "midi": 69,
                    "time": 109.6875,
                    "velocity": 1,
                    "duration": 0.1611328125
                },
                {
                    "name": "F#3",
                    "midi": 54,
                    "time": 109.6875,
                    "velocity": 1,
                    "duration": 0.232086181640625
                },
                {
                    "name": "F#5",
                    "midi": 78,
                    "time": 109.86190795898438,
                    "velocity": 0.9763779527559056,
                    "duration": 0.13916015625
                },
                {
                    "name": "A3",
                    "midi": 57,
                    "time": 109.9383544921875,
                    "velocity": 0.9763779527559056,
                    "duration": 0.2069091796875
                },
                {
                    "name": "A4",
                    "midi": 69,
                    "time": 110.01434326171875,
                    "velocity": 0.9763779527559056,
                    "duration": 0.136871337890625
                },
                {
                    "name": "A4",
                    "midi": 69,
                    "time": 110.16403198242188,
                    "velocity": 0.9763779527559056,
                    "duration": 0.136871337890625
                },
                {
                    "name": "D3",
                    "midi": 50,
                    "time": 110.16403198242188,
                    "velocity": 0.9763779527559056,
                    "duration": 0.207366943359375
                },
                {
                    "name": "F#5",
                    "midi": 78,
                    "time": 110.313720703125,
                    "velocity": 0.9763779527559056,
                    "duration": 0.14007568359375
                },
                {
                    "name": "F#3",
                    "midi": 54,
                    "time": 110.39016723632812,
                    "velocity": 0.9763779527559056,
                    "duration": 0.216064453125
                },
                {
                    "name": "A4",
                    "midi": 69,
                    "time": 110.46661376953125,
                    "velocity": 0.9763779527559056,
                    "duration": 0.14556884765625
                },
                {
                    "name": "A4",
                    "midi": 69,
                    "time": 110.625,
                    "velocity": 1,
                    "duration": 0.161590576171875
                },
                {
                    "name": "B2",
                    "midi": 47,
                    "time": 110.625,
                    "velocity": 1,
                    "duration": 0.233917236328125
                },
                {
                    "name": "B4",
                    "midi": 71,
                    "time": 110.79986572265625,
                    "velocity": 0.9763779527559056,
                    "duration": 0.141448974609375
                },
                {
                    "name": "B3",
                    "midi": 59,
                    "time": 110.877685546875,
                    "velocity": 1,
                    "duration": 0.211944580078125
                },
                {
                    "name": "A4",
                    "midi": 69,
                    "time": 110.95458984375,
                    "velocity": 0.9763779527559056,
                    "duration": 0.140533447265625
                },
                {
                    "name": "G4",
                    "midi": 67,
                    "time": 111.1083984375,
                    "velocity": 0.9763779527559056,
                    "duration": 0.1409912109375
                },
                {
                    "name": "D4",
                    "midi": 62,
                    "time": 111.1083984375,
                    "velocity": 0.9763779527559056,
                    "duration": 0.211944580078125
                },
                {
                    "name": "A4",
                    "midi": 69,
                    "time": 111.26220703125,
                    "velocity": 0.9763779527559056,
                    "duration": 0.14190673828125
                },
                {
                    "name": "B3",
                    "midi": 59,
                    "time": 111.339111328125,
                    "velocity": 0.9763779527559056,
                    "duration": 0.217437744140625
                },
                {
                    "name": "F#4",
                    "midi": 66,
                    "time": 111.41693115234375,
                    "velocity": 0.9763779527559056,
                    "duration": 0.14556884765625
                },
                {
                    "name": "G4",
                    "midi": 67,
                    "time": 111.5753173828125,
                    "velocity": 0.9763779527559056,
                    "duration": 0.145111083984375
                },
                {
                    "name": "C#4",
                    "midi": 61,
                    "time": 111.5753173828125,
                    "velocity": 0.9763779527559056,
                    "duration": 0.216064453125
                },
                {
                    "name": "E5",
                    "midi": 76,
                    "time": 111.73370361328125,
                    "velocity": 0.9763779527559056,
                    "duration": 0.14007568359375
                },
                {
                    "name": "E4",
                    "midi": 64,
                    "time": 111.81015014648438,
                    "velocity": 0.9763779527559056,
                    "duration": 0.208282470703125
                },
                {
                    "name": "G4",
                    "midi": 67,
                    "time": 111.8865966796875,
                    "velocity": 0.9763779527559056,
                    "duration": 0.137786865234375
                },
                {
                    "name": "G4",
                    "midi": 67,
                    "time": 112.03720092773438,
                    "velocity": 0.9763779527559056,
                    "duration": 0.13824462890625
                },
                {
                    "name": "A3",
                    "midi": 57,
                    "time": 112.03720092773438,
                    "velocity": 0.9763779527559056,
                    "duration": 0.208740234375
                },
                {
                    "name": "E5",
                    "midi": 76,
                    "time": 112.18826293945312,
                    "velocity": 0.9763779527559056,
                    "duration": 0.140533447265625
                },
                {
                    "name": "C#4",
                    "midi": 61,
                    "time": 112.26470947265625,
                    "velocity": 0.9763779527559056,
                    "duration": 0.216522216796875
                },
                {
                    "name": "G4",
                    "midi": 67,
                    "time": 112.34161376953125,
                    "velocity": 0.9763779527559056,
                    "duration": 0.14556884765625
                },
                {
                    "name": "G4",
                    "midi": 67,
                    "time": 112.5,
                    "velocity": 1,
                    "duration": 0.161590576171875
                },
                {
                    "name": "D3",
                    "midi": 50,
                    "time": 112.5,
                    "velocity": 1,
                    "duration": 0.233917236328125
                },
                {
                    "name": "A4",
                    "midi": 69,
                    "time": 112.67486572265625,
                    "velocity": 0.9763779527559056,
                    "duration": 0.141448974609375
                },
                {
                    "name": "A3",
                    "midi": 57,
                    "time": 112.752685546875,
                    "velocity": 1,
                    "duration": 0.211944580078125
                },
                {
                    "name": "G4",
                    "midi": 67,
                    "time": 112.82958984375,
                    "velocity": 0.9763779527559056,
                    "duration": 0.140533447265625
                },
                {
                    "name": "F#4",
                    "midi": 66,
                    "time": 112.9833984375,
                    "velocity": 0.9763779527559056,
                    "duration": 0.1409912109375
                },
                {
                    "name": "B3",
                    "midi": 59,
                    "time": 112.9833984375,
                    "velocity": 0.9763779527559056,
                    "duration": 0.211944580078125
                },
                {
                    "name": "G4",
                    "midi": 67,
                    "time": 113.13720703125,
                    "velocity": 0.9763779527559056,
                    "duration": 0.14190673828125
                },
                {
                    "name": "C#4",
                    "midi": 61,
                    "time": 113.214111328125,
                    "velocity": 0.9763779527559056,
                    "duration": 0.217437744140625
                },
                {
                    "name": "E4",
                    "midi": 64,
                    "time": 113.29193115234375,
                    "velocity": 0.9763779527559056,
                    "duration": 0.14556884765625
                },
                {
                    "name": "F#4",
                    "midi": 66,
                    "time": 113.4503173828125,
                    "velocity": 0.9763779527559056,
                    "duration": 0.145111083984375
                },
                {
                    "name": "D4",
                    "midi": 62,
                    "time": 113.4503173828125,
                    "velocity": 0.9763779527559056,
                    "duration": 0.216064453125
                },
                {
                    "name": "D5",
                    "midi": 74,
                    "time": 113.60870361328125,
                    "velocity": 0.9763779527559056,
                    "duration": 0.14007568359375
                },
                {
                    "name": "A3",
                    "midi": 57,
                    "time": 113.68515014648438,
                    "velocity": 0.9763779527559056,
                    "duration": 0.208282470703125
                },
                {
                    "name": "F#4",
                    "midi": 66,
                    "time": 113.7615966796875,
                    "velocity": 0.9763779527559056,
                    "duration": 0.137786865234375
                },
                {
                    "name": "E4",
                    "midi": 64,
                    "time": 113.91220092773438,
                    "velocity": 0.9763779527559056,
                    "duration": 0.13824462890625
                },
                {
                    "name": "G3",
                    "midi": 55,
                    "time": 113.91220092773438,
                    "velocity": 0.9763779527559056,
                    "duration": 0.208740234375
                },
                {
                    "name": "D5",
                    "midi": 74,
                    "time": 114.06326293945312,
                    "velocity": 0.9763779527559056,
                    "duration": 0.140533447265625
                },
                {
                    "name": "A3",
                    "midi": 57,
                    "time": 114.13970947265625,
                    "velocity": 0.9763779527559056,
                    "duration": 0.216522216796875
                },
                {
                    "name": "E4",
                    "midi": 64,
                    "time": 114.21661376953125,
                    "velocity": 0.9763779527559056,
                    "duration": 0.14556884765625
                },
                {
                    "name": "D4",
                    "midi": 62,
                    "time": 114.375,
                    "velocity": 1,
                    "duration": 0.161590576171875
                },
                {
                    "name": "F#3",
                    "midi": 54,
                    "time": 114.375,
                    "velocity": 1,
                    "duration": 0.233917236328125
                },
                {
                    "name": "D5",
                    "midi": 74,
                    "time": 114.54986572265625,
                    "velocity": 0.9763779527559056,
                    "duration": 0.141448974609375
                },
                {
                    "name": "A3",
                    "midi": 57,
                    "time": 114.627685546875,
                    "velocity": 1,
                    "duration": 0.211944580078125
                },
                {
                    "name": "D4",
                    "midi": 62,
                    "time": 114.70458984375,
                    "velocity": 0.9763779527559056,
                    "duration": 0.140533447265625
                },
                {
                    "name": "E4",
                    "midi": 64,
                    "time": 114.8583984375,
                    "velocity": 0.9763779527559056,
                    "duration": 0.1409912109375
                },
                {
                    "name": "E3",
                    "midi": 52,
                    "time": 114.8583984375,
                    "velocity": 0.9763779527559056,
                    "duration": 0.211944580078125
                },
                {
                    "name": "C#5",
                    "midi": 73,
                    "time": 115.01220703125,
                    "velocity": 0.9763779527559056,
                    "duration": 0.14190673828125
                },
                {
                    "name": "A3",
                    "midi": 57,
                    "time": 115.089111328125,
                    "velocity": 0.9763779527559056,
                    "duration": 0.217437744140625
                },
                {
                    "name": "E4",
                    "midi": 64,
                    "time": 115.16693115234375,
                    "velocity": 0.9763779527559056,
                    "duration": 0.14556884765625
                },
                {
                    "name": "F#4",
                    "midi": 66,
                    "time": 115.3253173828125,
                    "velocity": 0.9763779527559056,
                    "duration": 0.145111083984375
                },
                {
                    "name": "D3",
                    "midi": 50,
                    "time": 115.3253173828125,
                    "velocity": 0.9763779527559056,
                    "duration": 0.216064453125
                },
                {
                    "name": "D5",
                    "midi": 74,
                    "time": 115.48370361328125,
                    "velocity": 0.9763779527559056,
                    "duration": 0.14007568359375
                },
                {
                    "name": "A3",
                    "midi": 57,
                    "time": 115.56015014648438,
                    "velocity": 0.9763779527559056,
                    "duration": 0.208282470703125
                },
                {
                    "name": "F#4",
                    "midi": 66,
                    "time": 115.6365966796875,
                    "velocity": 0.9763779527559056,
                    "duration": 0.137786865234375
                },
                {
                    "name": "G4",
                    "midi": 67,
                    "time": 115.78720092773438,
                    "velocity": 0.9763779527559056,
                    "duration": 0.13824462890625
                },
                {
                    "name": "C#3",
                    "midi": 49,
                    "time": 115.78720092773438,
                    "velocity": 0.9763779527559056,
                    "duration": 0.208740234375
                },
                {
                    "name": "A4",
                    "midi": 69,
                    "time": 115.93826293945312,
                    "velocity": 0.9763779527559056,
                    "duration": 0.140533447265625
                },
                {
                    "name": "D3",
                    "midi": 50,
                    "time": 116.01470947265625,
                    "velocity": 0.9763779527559056,
                    "duration": 0.216522216796875
                },
                {
                    "name": "F#4",
                    "midi": 66,
                    "time": 116.09161376953125,
                    "velocity": 0.9763779527559056,
                    "duration": 0.14556884765625
                },
                {
                    "name": "F#4",
                    "midi": 66,
                    "time": 116.25,
                    "velocity": 1,
                    "duration": 0.085601806640625
                },
                {
                    "name": "A2",
                    "midi": 45,
                    "time": 116.25,
                    "velocity": 1,
                    "duration": 0.233917236328125
                },
                {
                    "name": "E4",
                    "midi": 64,
                    "time": 116.32644653320312,
                    "velocity": 0.9763779527559056,
                    "duration": 0.085601806640625
                },
                {
                    "name": "F#4",
                    "midi": 66,
                    "time": 116.40289306640625,
                    "velocity": 0.9763779527559056,
                    "duration": 0.085601806640625
                },
                {
                    "name": "E4",
                    "midi": 64,
                    "time": 116.47933959960938,
                    "velocity": 0.937007874015748,
                    "duration": 0.708160400390625
                },
                {
                    "name": "A3",
                    "midi": 57,
                    "time": 116.502685546875,
                    "velocity": 1,
                    "duration": 0.211944580078125
                },
                {
                    "name": "C#4",
                    "midi": 61,
                    "time": 116.7333984375,
                    "velocity": 0.9763779527559056,
                    "duration": 0.211944580078125
                },
                {
                    "name": "A3",
                    "midi": 57,
                    "time": 116.964111328125,
                    "velocity": 0.9763779527559056,
                    "duration": 0.217437744140625
                },
                {
                    "name": "A4",
                    "midi": 69,
                    "time": 117.2003173828125,
                    "velocity": 0.9763779527559056,
                    "duration": 0.145111083984375
                },
                {
                    "name": "F#3",
                    "midi": 54,
                    "time": 117.2003173828125,
                    "velocity": 0.9763779527559056,
                    "duration": 0.216064453125
                },
                {
                    "name": "F#5",
                    "midi": 78,
                    "time": 117.35870361328125,
                    "velocity": 0.9763779527559056,
                    "duration": 0.14007568359375
                },
                {
                    "name": "A3",
                    "midi": 57,
                    "time": 117.43515014648438,
                    "velocity": 0.9763779527559056,
                    "duration": 0.208282470703125
                },
                {
                    "name": "A4",
                    "midi": 69,
                    "time": 117.5115966796875,
                    "velocity": 0.9763779527559056,
                    "duration": 0.137786865234375
                },
                {
                    "name": "A4",
                    "midi": 69,
                    "time": 117.66220092773438,
                    "velocity": 0.9763779527559056,
                    "duration": 0.13824462890625
                },
                {
                    "name": "D3",
                    "midi": 50,
                    "time": 117.66220092773438,
                    "velocity": 0.9763779527559056,
                    "duration": 0.208740234375
                },
                {
                    "name": "F#5",
                    "midi": 78,
                    "time": 117.81326293945312,
                    "velocity": 0.9763779527559056,
                    "duration": 0.140533447265625
                },
                {
                    "name": "F#3",
                    "midi": 54,
                    "time": 117.88970947265625,
                    "velocity": 0.9763779527559056,
                    "duration": 0.216522216796875
                },
                {
                    "name": "A4",
                    "midi": 69,
                    "time": 117.96661376953125,
                    "velocity": 0.9763779527559056,
                    "duration": 0.14556884765625
                },
                {
                    "name": "A4",
                    "midi": 69,
                    "time": 118.125,
                    "velocity": 1,
                    "duration": 0.161590576171875
                },
                {
                    "name": "B2",
                    "midi": 47,
                    "time": 118.125,
                    "velocity": 1,
                    "duration": 0.233917236328125
                },
                {
                    "name": "B4",
                    "midi": 71,
                    "time": 118.29986572265625,
                    "velocity": 0.9763779527559056,
                    "duration": 0.141448974609375
                },
                {
                    "name": "D3",
                    "midi": 50,
                    "time": 118.377685546875,
                    "velocity": 1,
                    "duration": 0.211944580078125
                },
                {
                    "name": "A4",
                    "midi": 69,
                    "time": 118.45458984375,
                    "velocity": 0.9763779527559056,
                    "duration": 0.140533447265625
                },
                {
                    "name": "G4",
                    "midi": 67,
                    "time": 118.6083984375,
                    "velocity": 0.9763779527559056,
                    "duration": 0.1409912109375
                },
                {
                    "name": "B2",
                    "midi": 47,
                    "time": 118.6083984375,
                    "velocity": 0.9763779527559056,
                    "duration": 0.211944580078125
                },
                {
                    "name": "A4",
                    "midi": 69,
                    "time": 118.76220703125,
                    "velocity": 0.9763779527559056,
                    "duration": 0.14190673828125
                },
                {
                    "name": "D3",
                    "midi": 50,
                    "time": 118.839111328125,
                    "velocity": 0.9763779527559056,
                    "duration": 0.217437744140625
                },
                {
                    "name": "F#4",
                    "midi": 66,
                    "time": 118.91693115234375,
                    "velocity": 0.9763779527559056,
                    "duration": 0.14556884765625
                },
                {
                    "name": "G4",
                    "midi": 67,
                    "time": 119.0753173828125,
                    "velocity": 0.9763779527559056,
                    "duration": 0.145111083984375
                },
                {
                    "name": "C#3",
                    "midi": 49,
                    "time": 119.0753173828125,
                    "velocity": 0.9763779527559056,
                    "duration": 0.216064453125
                },
                {
                    "name": "E5",
                    "midi": 76,
                    "time": 119.23370361328125,
                    "velocity": 0.9763779527559056,
                    "duration": 0.14007568359375
                },
                {
                    "name": "E3",
                    "midi": 52,
                    "time": 119.31015014648438,
                    "velocity": 0.9763779527559056,
                    "duration": 0.208282470703125
                },
                {
                    "name": "G4",
                    "midi": 67,
                    "time": 119.3865966796875,
                    "velocity": 0.9763779527559056,
                    "duration": 0.137786865234375
                },
                {
                    "name": "G4",
                    "midi": 67,
                    "time": 119.53720092773438,
                    "velocity": 0.9763779527559056,
                    "duration": 0.13824462890625
                },
                {
                    "name": "C#3",
                    "midi": 49,
                    "time": 119.53720092773438,
                    "velocity": 0.9763779527559056,
                    "duration": 0.208740234375
                },
                {
                    "name": "E5",
                    "midi": 76,
                    "time": 119.68826293945312,
                    "velocity": 0.9763779527559056,
                    "duration": 0.140533447265625
                },
                {
                    "name": "E3",
                    "midi": 52,
                    "time": 119.76470947265625,
                    "velocity": 0.9763779527559056,
                    "duration": 0.216522216796875
                },
                {
                    "name": "G4",
                    "midi": 67,
                    "time": 119.84161376953125,
                    "velocity": 0.9763779527559056,
                    "duration": 0.14556884765625
                },
                {
                    "name": "G4",
                    "midi": 67,
                    "time": 120,
                    "velocity": 1,
                    "duration": 0.161590576171875
                },
                {
                    "name": "A2",
                    "midi": 45,
                    "time": 120,
                    "velocity": 1,
                    "duration": 0.233917236328125
                },
                {
                    "name": "A4",
                    "midi": 69,
                    "time": 120.17486572265625,
                    "velocity": 0.9763779527559056,
                    "duration": 0.141448974609375
                },
                {
                    "name": "C#3",
                    "midi": 49,
                    "time": 120.252685546875,
                    "velocity": 1,
                    "duration": 0.211944580078125
                },
                {
                    "name": "G4",
                    "midi": 67,
                    "time": 120.32958984375,
                    "velocity": 0.9763779527559056,
                    "duration": 0.140533447265625
                },
                {
                    "name": "F#4",
                    "midi": 66,
                    "time": 120.4833984375,
                    "velocity": 0.9763779527559056,
                    "duration": 0.1409912109375
                },
                {
                    "name": "A2",
                    "midi": 45,
                    "time": 120.4833984375,
                    "velocity": 0.9763779527559056,
                    "duration": 0.211944580078125
                },
                {
                    "name": "G4",
                    "midi": 67,
                    "time": 120.63720703125,
                    "velocity": 0.9763779527559056,
                    "duration": 0.14190673828125
                },
                {
                    "name": "C#3",
                    "midi": 49,
                    "time": 120.714111328125,
                    "velocity": 0.9763779527559056,
                    "duration": 0.217437744140625
                },
                {
                    "name": "E4",
                    "midi": 64,
                    "time": 120.79193115234375,
                    "velocity": 0.9763779527559056,
                    "duration": 0.14556884765625
                },
                {
                    "name": "F#4",
                    "midi": 66,
                    "time": 120.9503173828125,
                    "velocity": 0.9763779527559056,
                    "duration": 0.145111083984375
                },
                {
                    "name": "D2",
                    "midi": 38,
                    "time": 120.9503173828125,
                    "velocity": 0.9606299212598425,
                    "duration": 0.216064453125
                },
                {
                    "name": "D5",
                    "midi": 74,
                    "time": 121.10870361328125,
                    "velocity": 0.9763779527559056,
                    "duration": 0.14007568359375
                },
                {
                    "name": "D3",
                    "midi": 50,
                    "time": 121.18515014648438,
                    "velocity": 0.9763779527559056,
                    "duration": 0.208282470703125
                },
                {
                    "name": "F#4",
                    "midi": 66,
                    "time": 121.2615966796875,
                    "velocity": 0.9763779527559056,
                    "duration": 0.137786865234375
                },
                {
                    "name": "E4",
                    "midi": 64,
                    "time": 121.41220092773438,
                    "velocity": 0.9763779527559056,
                    "duration": 0.13824462890625
                },
                {
                    "name": "G2",
                    "midi": 43,
                    "time": 121.41220092773438,
                    "velocity": 0.9763779527559056,
                    "duration": 0.208740234375
                },
                {
                    "name": "D5",
                    "midi": 74,
                    "time": 121.56326293945312,
                    "velocity": 0.9763779527559056,
                    "duration": 0.140533447265625
                },
                {
                    "name": "A2",
                    "midi": 45,
                    "time": 121.63970947265625,
                    "velocity": 0.9763779527559056,
                    "duration": 0.216522216796875
                },
                {
                    "name": "E4",
                    "midi": 64,
                    "time": 121.71661376953125,
                    "velocity": 0.9763779527559056,
                    "duration": 0.14556884765625
                },
                {
                    "name": "D4",
                    "midi": 62,
                    "time": 121.875,
                    "velocity": 1,
                    "duration": 0.161590576171875
                },
                {
                    "name": "F#2",
                    "midi": 42,
                    "time": 121.875,
                    "velocity": 1,
                    "duration": 0.233917236328125
                },
                {
                    "name": "D5",
                    "midi": 74,
                    "time": 122.04986572265625,
                    "velocity": 0.9763779527559056,
                    "duration": 0.141448974609375
                },
                {
                    "name": "A2",
                    "midi": 45,
                    "time": 122.127685546875,
                    "velocity": 1,
                    "duration": 0.211944580078125
                },
                {
                    "name": "D4",
                    "midi": 62,
                    "time": 122.20458984375,
                    "velocity": 0.9763779527559056,
                    "duration": 0.140533447265625
                },
                {
                    "name": "E4",
                    "midi": 64,
                    "time": 122.3583984375,
                    "velocity": 0.9763779527559056,
                    "duration": 0.1409912109375
                },
                {
                    "name": "E2",
                    "midi": 40,
                    "time": 122.3583984375,
                    "velocity": 0.968503937007874,
                    "duration": 0.211944580078125
                },
                {
                    "name": "C#5",
                    "midi": 73,
                    "time": 122.51220703125,
                    "velocity": 0.9763779527559056,
                    "duration": 0.14190673828125
                },
                {
                    "name": "A2",
                    "midi": 45,
                    "time": 122.589111328125,
                    "velocity": 0.9763779527559056,
                    "duration": 0.217437744140625
                },
                {
                    "name": "E4",
                    "midi": 64,
                    "time": 122.66693115234375,
                    "velocity": 0.9763779527559056,
                    "duration": 0.14556884765625
                },
                {
                    "name": "F#4",
                    "midi": 66,
                    "time": 122.8253173828125,
                    "velocity": 0.9763779527559056,
                    "duration": 0.145111083984375
                },
                {
                    "name": "D2",
                    "midi": 38,
                    "time": 122.8253173828125,
                    "velocity": 0.9606299212598425,
                    "duration": 0.216064453125
                },
                {
                    "name": "D5",
                    "midi": 74,
                    "time": 122.98370361328125,
                    "velocity": 0.9763779527559056,
                    "duration": 0.14007568359375
                },
                {
                    "name": "A2",
                    "midi": 45,
                    "time": 123.06015014648438,
                    "velocity": 0.9763779527559056,
                    "duration": 0.208282470703125
                },
                {
                    "name": "F#4",
                    "midi": 66,
                    "time": 123.1365966796875,
                    "velocity": 0.9763779527559056,
                    "duration": 0.137786865234375
                },
                {
                    "name": "E4",
                    "midi": 64,
                    "time": 123.28720092773438,
                    "velocity": 0.9763779527559056,
                    "duration": 0.13824462890625
                },
                {
                    "name": "A1",
                    "midi": 33,
                    "time": 123.28720092773438,
                    "velocity": 0.937007874015748,
                    "duration": 0.208740234375
                },
                {
                    "name": "C#5",
                    "midi": 73,
                    "time": 123.43826293945312,
                    "velocity": 0.9763779527559056,
                    "duration": 0.140533447265625
                },
                {
                    "name": "A2",
                    "midi": 45,
                    "time": 123.51470947265625,
                    "velocity": 0.9763779527559056,
                    "duration": 0.216522216796875
                },
                {
                    "name": "E4",
                    "midi": 64,
                    "time": 123.59161376953125,
                    "velocity": 0.9763779527559056,
                    "duration": 0.14556884765625
                },
                {
                    "name": "E4",
                    "midi": 64,
                    "time": 123.75,
                    "velocity": 1,
                    "duration": 0.0860595703125
                },
                {
                    "name": "D2",
                    "midi": 38,
                    "time": 123.75,
                    "velocity": 0.984251968503937,
                    "duration": 0.232086181640625
                },
                {
                    "name": "D4",
                    "midi": 62,
                    "time": 123.826904296875,
                    "velocity": 0.9763779527559056,
                    "duration": 0.0860595703125
                },
                {
                    "name": "E4",
                    "midi": 64,
                    "time": 123.90380859375,
                    "velocity": 0.9763779527559056,
                    "duration": 0.0860595703125
                },
                {
                    "name": "D4",
                    "midi": 62,
                    "time": 123.980712890625,
                    "velocity": 0.937007874015748,
                    "duration": 0.706787109375
                },
                {
                    "name": "A2",
                    "midi": 45,
                    "time": 124.0008544921875,
                    "velocity": 0.9763779527559056,
                    "duration": 0.2069091796875
                },
                {
                    "name": "D3",
                    "midi": 50,
                    "time": 124.22653198242188,
                    "velocity": 0.9763779527559056,
                    "duration": 0.207366943359375
                },
                {
                    "name": "E3",
                    "midi": 52,
                    "time": 124.45266723632812,
                    "velocity": 0.9763779527559056,
                    "duration": 0.216064453125
                },
                {
                    "name": "F#4",
                    "midi": 66,
                    "time": 124.6875,
                    "velocity": 1,
                    "duration": 0.1611328125
                },
                {
                    "name": "D3",
                    "midi": 50,
                    "time": 124.6875,
                    "velocity": 1,
                    "duration": 0.232086181640625
                },
                {
                    "name": "D5",
                    "midi": 74,
                    "time": 124.86190795898438,
                    "velocity": 0.9763779527559056,
                    "duration": 0.13916015625
                },
                {
                    "name": "E3",
                    "midi": 52,
                    "time": 124.9383544921875,
                    "velocity": 0.9763779527559056,
                    "duration": 0.2069091796875
                },
                {
                    "name": "F#4",
                    "midi": 66,
                    "time": 125.01434326171875,
                    "velocity": 0.9763779527559056,
                    "duration": 0.136871337890625
                },
                {
                    "name": "F#4",
                    "midi": 66,
                    "time": 125.16403198242188,
                    "velocity": 0.9763779527559056,
                    "duration": 0.136871337890625
                },
                {
                    "name": "F#3",
                    "midi": 54,
                    "time": 125.16403198242188,
                    "velocity": 0.9763779527559056,
                    "duration": 0.207366943359375
                },
                {
                    "name": "D5",
                    "midi": 74,
                    "time": 125.313720703125,
                    "velocity": 0.9763779527559056,
                    "duration": 0.14007568359375
                },
                {
                    "name": "G3",
                    "midi": 55,
                    "time": 125.39016723632812,
                    "velocity": 0.9763779527559056,
                    "duration": 0.216064453125
                },
                {
                    "name": "F#4",
                    "midi": 66,
                    "time": 125.46661376953125,
                    "velocity": 0.9763779527559056,
                    "duration": 0.14556884765625
                },
                {
                    "name": "F#4",
                    "midi": 66,
                    "time": 125.625,
                    "velocity": 1,
                    "duration": 0.161590576171875
                },
                {
                    "name": "A3",
                    "midi": 57,
                    "time": 125.625,
                    "velocity": 1,
                    "duration": 0.233917236328125
                },
                {
                    "name": "G4",
                    "midi": 67,
                    "time": 125.79986572265625,
                    "velocity": 0.9763779527559056,
                    "duration": 0.141448974609375
                },
                {
                    "name": "B3",
                    "midi": 59,
                    "time": 125.877685546875,
                    "velocity": 1,
                    "duration": 0.211944580078125
                },
                {
                    "name": "F#4",
                    "midi": 66,
                    "time": 125.95458984375,
                    "velocity": 0.9763779527559056,
                    "duration": 0.140533447265625
                },
                {
                    "name": "E4",
                    "midi": 64,
                    "time": 126.1083984375,
                    "velocity": 0.9763779527559056,
                    "duration": 0.1409912109375
                },
                {
                    "name": "C#4",
                    "midi": 61,
                    "time": 126.1083984375,
                    "velocity": 0.9763779527559056,
                    "duration": 0.211944580078125
                },
                {
                    "name": "F#4",
                    "midi": 66,
                    "time": 126.26220703125,
                    "velocity": 0.9763779527559056,
                    "duration": 0.14190673828125
                },
                {
                    "name": "B3",
                    "midi": 59,
                    "time": 126.339111328125,
                    "velocity": 0.9763779527559056,
                    "duration": 0.217437744140625
                },
                {
                    "name": "D4",
                    "midi": 62,
                    "time": 126.41693115234375,
                    "velocity": 0.9763779527559056,
                    "duration": 0.14556884765625
                },
                {
                    "name": "B3",
                    "midi": 59,
                    "time": 126.5625,
                    "velocity": 0.9763779527559056,
                    "duration": 0.061798095703125
                },
                {
                    "name": "E4",
                    "midi": 64,
                    "time": 126.5753173828125,
                    "velocity": 0.9763779527559056,
                    "duration": 0.145111083984375
                },
                {
                    "name": "A#3",
                    "midi": 58,
                    "time": 126.61788940429688,
                    "velocity": 0.9763779527559056,
                    "duration": 0.061798095703125
                },
                {
                    "name": "B3",
                    "midi": 59,
                    "time": 126.67327880859375,
                    "velocity": 0.9763779527559056,
                    "duration": 0.061798095703125
                },
                {
                    "name": "A#3",
                    "midi": 58,
                    "time": 126.72866821289062,
                    "velocity": 0.937007874015748,
                    "duration": 0.06317138671875
                },
                {
                    "name": "C#5",
                    "midi": 73,
                    "time": 126.73370361328125,
                    "velocity": 0.9763779527559056,
                    "duration": 0.14007568359375
                },
                {
                    "name": "G#3",
                    "midi": 56,
                    "time": 126.81015014648438,
                    "velocity": 0.9763779527559056,
                    "duration": 0.208282470703125
                },
                {
                    "name": "E4",
                    "midi": 64,
                    "time": 126.8865966796875,
                    "velocity": 0.9763779527559056,
                    "duration": 0.137786865234375
                },
                {
                    "name": "E4",
                    "midi": 64,
                    "time": 127.03720092773438,
                    "velocity": 0.9763779527559056,
                    "duration": 0.13824462890625
                },
                {
                    "name": "A#3",
                    "midi": 58,
                    "time": 127.03720092773438,
                    "velocity": 0.9763779527559056,
                    "duration": 0.208740234375
                },
                {
                    "name": "C#5",
                    "midi": 73,
                    "time": 127.18826293945312,
                    "velocity": 0.9763779527559056,
                    "duration": 0.140533447265625
                },
                {
                    "name": "F#3",
                    "midi": 54,
                    "time": 127.26470947265625,
                    "velocity": 0.9763779527559056,
                    "duration": 0.216522216796875
                },
                {
                    "name": "E4",
                    "midi": 64,
                    "time": 127.34161376953125,
                    "velocity": 0.9763779527559056,
                    "duration": 0.14556884765625
                },
                {
                    "name": "E4",
                    "midi": 64,
                    "time": 127.5,
                    "velocity": 1,
                    "duration": 0.161590576171875
                },
                {
                    "name": "B3",
                    "midi": 59,
                    "time": 127.5,
                    "velocity": 1,
                    "duration": 0.233917236328125
                },
                {
                    "name": "F#4",
                    "midi": 66,
                    "time": 127.67486572265625,
                    "velocity": 0.9763779527559056,
                    "duration": 0.141448974609375
                },
                {
                    "name": "F#3",
                    "midi": 54,
                    "time": 127.752685546875,
                    "velocity": 1,
                    "duration": 0.211944580078125
                },
                {
                    "name": "E4",
                    "midi": 64,
                    "time": 127.82958984375,
                    "velocity": 0.9763779527559056,
                    "duration": 0.140533447265625
                },
                {
                    "name": "D4",
                    "midi": 62,
                    "time": 127.9833984375,
                    "velocity": 0.9763779527559056,
                    "duration": 0.1409912109375
                },
                {
                    "name": "D3",
                    "midi": 50,
                    "time": 127.9833984375,
                    "velocity": 0.9763779527559056,
                    "duration": 0.211944580078125
                },
                {
                    "name": "E4",
                    "midi": 64,
                    "time": 128.13720703125,
                    "velocity": 0.9763779527559056,
                    "duration": 0.14190673828125
                },
                {
                    "name": "F#3",
                    "midi": 54,
                    "time": 128.214111328125,
                    "velocity": 0.9763779527559056,
                    "duration": 0.217437744140625
                },
                {
                    "name": "C#4",
                    "midi": 61,
                    "time": 128.29193115234375,
                    "velocity": 0.9763779527559056,
                    "duration": 0.14556884765625
                },
                {
                    "name": "D4",
                    "midi": 62,
                    "time": 128.4503173828125,
                    "velocity": 0.9763779527559056,
                    "duration": 0.145111083984375
                },
                {
                    "name": "B2",
                    "midi": 47,
                    "time": 128.4503173828125,
                    "velocity": 0.9763779527559056,
                    "duration": 0.216064453125
                },
                {
                    "name": "B4",
                    "midi": 71,
                    "time": 128.60870361328125,
                    "velocity": 0.9763779527559056,
                    "duration": 0.14007568359375
                },
                {
                    "name": "F#3",
                    "midi": 54,
                    "time": 128.68515014648438,
                    "velocity": 0.9763779527559056,
                    "duration": 0.208282470703125
                },
                {
                    "name": "D4",
                    "midi": 62,
                    "time": 128.7615966796875,
                    "velocity": 0.9763779527559056,
                    "duration": 0.137786865234375
                },
                {
                    "name": "C#4",
                    "midi": 61,
                    "time": 128.91220092773438,
                    "velocity": 0.9763779527559056,
                    "duration": 0.13824462890625
                },
                {
                    "name": "E3",
                    "midi": 52,
                    "time": 128.91220092773438,
                    "velocity": 0.9763779527559056,
                    "duration": 0.208740234375
                },
                {
                    "name": "B4",
                    "midi": 71,
                    "time": 129.06326293945312,
                    "velocity": 0.9763779527559056,
                    "duration": 0.140533447265625
                },
                {
                    "name": "F#3",
                    "midi": 54,
                    "time": 129.13970947265625,
                    "velocity": 0.9763779527559056,
                    "duration": 0.216522216796875
                },
                {
                    "name": "C#4",
                    "midi": 61,
                    "time": 129.21661376953125,
                    "velocity": 0.9763779527559056,
                    "duration": 0.14556884765625
                },
                {
                    "name": "B3",
                    "midi": 59,
                    "time": 129.375,
                    "velocity": 1,
                    "duration": 0.161590576171875
                },
                {
                    "name": "D3",
                    "midi": 50,
                    "time": 129.375,
                    "velocity": 1,
                    "duration": 0.233917236328125
                },
                {
                    "name": "B4",
                    "midi": 71,
                    "time": 129.54986572265625,
                    "velocity": 0.9763779527559056,
                    "duration": 0.141448974609375
                },
                {
                    "name": "F#3",
                    "midi": 54,
                    "time": 129.627685546875,
                    "velocity": 1,
                    "duration": 0.211944580078125
                },
                {
                    "name": "B3",
                    "midi": 59,
                    "time": 129.70458984375,
                    "velocity": 0.9763779527559056,
                    "duration": 0.140533447265625
                },
                {
                    "name": "B3",
                    "midi": 59,
                    "time": 129.8583984375,
                    "velocity": 0.9763779527559056,
                    "duration": 0.1409912109375
                },
                {
                    "name": "D3",
                    "midi": 50,
                    "time": 129.8583984375,
                    "velocity": 0.9763779527559056,
                    "duration": 0.211944580078125
                },
                {
                    "name": "B4",
                    "midi": 71,
                    "time": 130.01220703125,
                    "velocity": 0.9763779527559056,
                    "duration": 0.14190673828125
                },
                {
                    "name": "C#3",
                    "midi": 49,
                    "time": 130.089111328125,
                    "velocity": 0.9763779527559056,
                    "duration": 0.217437744140625
                },
                {
                    "name": "C#4",
                    "midi": 61,
                    "time": 130.16693115234375,
                    "velocity": 0.9763779527559056,
                    "duration": 0.14556884765625
                },
                {
                    "name": "D4",
                    "midi": 62,
                    "time": 130.3253173828125,
                    "velocity": 0.9763779527559056,
                    "duration": 0.145111083984375
                },
                {
                    "name": "B2",
                    "midi": 47,
                    "time": 130.3253173828125,
                    "velocity": 0.9763779527559056,
                    "duration": 0.484771728515625
                },
                {
                    "name": "B4",
                    "midi": 71,
                    "time": 130.48370361328125,
                    "velocity": 0.9763779527559056,
                    "duration": 0.14007568359375
                },
                {
                    "name": "D4",
                    "midi": 62,
                    "time": 130.6365966796875,
                    "velocity": 0.9763779527559056,
                    "duration": 0.137786865234375
                },
                {
                    "name": "B2",
                    "midi": 47,
                    "time": 130.78125,
                    "velocity": 0.9763779527559056,
                    "duration": 0.061798095703125
                },
                {
                    "name": "D4",
                    "midi": 62,
                    "time": 130.78720092773438,
                    "velocity": 0.9763779527559056,
                    "duration": 0.208740234375
                },
                {
                    "name": "A2",
                    "midi": 45,
                    "time": 130.83663940429688,
                    "velocity": 0.9763779527559056,
                    "duration": 0.061798095703125
                },
                {
                    "name": "B2",
                    "midi": 47,
                    "time": 130.89202880859375,
                    "velocity": 0.9763779527559056,
                    "duration": 0.061798095703125
                },
                {
                    "name": "A2",
                    "midi": 45,
                    "time": 130.94741821289062,
                    "velocity": 0.937007874015748,
                    "duration": 0.06317138671875
                },
                {
                    "name": "G2",
                    "midi": 43,
                    "time": 131.01470947265625,
                    "velocity": 0.9763779527559056,
                    "duration": 0.216522216796875
                },
                {
                    "name": "F#4",
                    "midi": 66,
                    "time": 131.015625,
                    "velocity": 0.9763779527559056,
                    "duration": 0.065460205078125
                },
                {
                    "name": "E4",
                    "midi": 64,
                    "time": 131.07421875,
                    "velocity": 0.9763779527559056,
                    "duration": 0.065460205078125
                },
                {
                    "name": "D#4",
                    "midi": 63,
                    "time": 131.1328125,
                    "velocity": 0.9763779527559056,
                    "duration": 0.065460205078125
                },
                {
                    "name": "E4",
                    "midi": 64,
                    "time": 131.19140625,
                    "velocity": 0.937007874015748,
                    "duration": 0.05401611328125
                },
                {
                    "name": "F#4",
                    "midi": 66,
                    "time": 131.25,
                    "velocity": 1,
                    "duration": 0.949859619140625
                },
                {
                    "name": "F#2",
                    "midi": 42,
                    "time": 131.25,
                    "velocity": 1,
                    "duration": 0.161590576171875
                },
                {
                    "name": "F#3",
                    "midi": 54,
                    "time": 131.42486572265625,
                    "velocity": 0.9763779527559056,
                    "duration": 0.141448974609375
                },
                {
                    "name": "F#2",
                    "midi": 42,
                    "time": 131.57958984375,
                    "velocity": 0.968503937007874,
                    "duration": 0.140533447265625
                },
                {
                    "name": "F#2",
                    "midi": 42,
                    "time": 131.7333984375,
                    "velocity": 0.968503937007874,
                    "duration": 0.1409912109375
                },
                {
                    "name": "F#3",
                    "midi": 54,
                    "time": 131.88720703125,
                    "velocity": 0.9763779527559056,
                    "duration": 0.14190673828125
                },
                {
                    "name": "F#2",
                    "midi": 42,
                    "time": 132.04193115234375,
                    "velocity": 0.968503937007874,
                    "duration": 0.14556884765625
                },
                {
                    "name": "F#4",
                    "midi": 66,
                    "time": 132.2003173828125,
                    "velocity": 0.9763779527559056,
                    "duration": 0.145111083984375
                },
                {
                    "name": "D2",
                    "midi": 38,
                    "time": 132.2003173828125,
                    "velocity": 0.9606299212598425,
                    "duration": 0.216064453125
                },
                {
                    "name": "F#5",
                    "midi": 78,
                    "time": 132.35870361328125,
                    "velocity": 0.9763779527559056,
                    "duration": 0.14007568359375
                },
                {
                    "name": "D3",
                    "midi": 50,
                    "time": 132.43515014648438,
                    "velocity": 0.9763779527559056,
                    "duration": 0.208282470703125
                },
                {
                    "name": "F#4",
                    "midi": 66,
                    "time": 132.5115966796875,
                    "velocity": 0.9763779527559056,
                    "duration": 0.137786865234375
                },
                {
                    "name": "F#4",
                    "midi": 66,
                    "time": 132.66220092773438,
                    "velocity": 0.9763779527559056,
                    "duration": 0.13824462890625
                },
                {
                    "name": "F#3",
                    "midi": 54,
                    "time": 132.66220092773438,
                    "velocity": 0.9763779527559056,
                    "duration": 0.208740234375
                },
                {
                    "name": "F#5",
                    "midi": 78,
                    "time": 132.81326293945312,
                    "velocity": 0.9763779527559056,
                    "duration": 0.140533447265625
                },
                {
                    "name": "D3",
                    "midi": 50,
                    "time": 132.88970947265625,
                    "velocity": 0.9763779527559056,
                    "duration": 0.216522216796875
                },
                {
                    "name": "F#4",
                    "midi": 66,
                    "time": 132.96661376953125,
                    "velocity": 0.9763779527559056,
                    "duration": 0.14556884765625
                },
                {
                    "name": "C#5",
                    "midi": 73,
                    "time": 133.125,
                    "velocity": 1,
                    "duration": 0.161590576171875
                },
                {
                    "name": "E3",
                    "midi": 52,
                    "time": 133.125,
                    "velocity": 1,
                    "duration": 0.233917236328125
                },
                {
                    "name": "D5",
                    "midi": 74,
                    "time": 133.29986572265625,
                    "velocity": 0.9763779527559056,
                    "duration": 0.141448974609375
                },
                {
                    "name": "D3",
                    "midi": 50,
                    "time": 133.377685546875,
                    "velocity": 1,
                    "duration": 0.211944580078125
                },
                {
                    "name": "B4",
                    "midi": 71,
                    "time": 133.45458984375,
                    "velocity": 0.9763779527559056,
                    "duration": 0.140533447265625
                },
                {
                    "name": "C#5",
                    "midi": 73,
                    "time": 133.6083984375,
                    "velocity": 0.9763779527559056,
                    "duration": 0.1409912109375
                },
                {
                    "name": "E3",
                    "midi": 52,
                    "time": 133.6083984375,
                    "velocity": 0.9763779527559056,
                    "duration": 0.211944580078125
                },
                {
                    "name": "D5",
                    "midi": 74,
                    "time": 133.76220703125,
                    "velocity": 0.9763779527559056,
                    "duration": 0.14190673828125
                },
                {
                    "name": "F#3",
                    "midi": 54,
                    "time": 133.839111328125,
                    "velocity": 0.9763779527559056,
                    "duration": 0.217437744140625
                },
                {
                    "name": "B4",
                    "midi": 71,
                    "time": 133.91693115234375,
                    "velocity": 0.9763779527559056,
                    "duration": 0.14556884765625
                },
                {
                    "name": "C#5",
                    "midi": 73,
                    "time": 134.0753173828125,
                    "velocity": 0.9763779527559056,
                    "duration": 0.145111083984375
                },
                {
                    "name": "E3",
                    "midi": 52,
                    "time": 134.0753173828125,
                    "velocity": 0.9763779527559056,
                    "duration": 0.216064453125
                },
                {
                    "name": "D5",
                    "midi": 74,
                    "time": 134.23370361328125,
                    "velocity": 0.9763779527559056,
                    "duration": 0.14007568359375
                },
                {
                    "name": "D3",
                    "midi": 50,
                    "time": 134.31015014648438,
                    "velocity": 0.9763779527559056,
                    "duration": 0.208282470703125
                },
                {
                    "name": "B4",
                    "midi": 71,
                    "time": 134.3865966796875,
                    "velocity": 0.9763779527559056,
                    "duration": 0.137786865234375
                },
                {
                    "name": "C#5",
                    "midi": 73,
                    "time": 134.53720092773438,
                    "velocity": 0.9763779527559056,
                    "duration": 0.208740234375
                },
                {
                    "name": "E3",
                    "midi": 52,
                    "time": 134.53720092773438,
                    "velocity": 0.9763779527559056,
                    "duration": 0.208740234375
                },
                {
                    "name": "F#3",
                    "midi": 54,
                    "time": 134.76470947265625,
                    "velocity": 0.9763779527559056,
                    "duration": 0.216522216796875
                },
                {
                    "name": "E5",
                    "midi": 76,
                    "time": 134.765625,
                    "velocity": 0.9763779527559056,
                    "duration": 0.065460205078125
                },
                {
                    "name": "D5",
                    "midi": 74,
                    "time": 134.82421875,
                    "velocity": 0.9763779527559056,
                    "duration": 0.065460205078125
                },
                {
                    "name": "C#5",
                    "midi": 73,
                    "time": 134.8828125,
                    "velocity": 0.9763779527559056,
                    "duration": 0.065460205078125
                },
                {
                    "name": "D5",
                    "midi": 74,
                    "time": 134.94140625,
                    "velocity": 0.937007874015748,
                    "duration": 0.05401611328125
                },
                {
                    "name": "E5",
                    "midi": 76,
                    "time": 135,
                    "velocity": 1,
                    "duration": 0.482940673828125
                },
                {
                    "name": "G3",
                    "midi": 55,
                    "time": 135,
                    "velocity": 1,
                    "duration": 0.233917236328125
                },
                {
                    "name": "A3",
                    "midi": 57,
                    "time": 135.252685546875,
                    "velocity": 1,
                    "duration": 0.211944580078125
                },
                {
                    "name": "G5",
                    "midi": 79,
                    "time": 135.4833984375,
                    "velocity": 0.9763779527559056,
                    "duration": 0.05218505859375
                },
                {
                    "name": "G3",
                    "midi": 55,
                    "time": 135.4833984375,
                    "velocity": 0.9763779527559056,
                    "duration": 0.211944580078125
                },
                {
                    "name": "F#5",
                    "midi": 78,
                    "time": 135.54107666015625,
                    "velocity": 0.9763779527559056,
                    "duration": 0.05218505859375
                },
                {
                    "name": "G5",
                    "midi": 79,
                    "time": 135.5987548828125,
                    "velocity": 0.9763779527559056,
                    "duration": 0.05218505859375
                },
                {
                    "name": "F#5",
                    "midi": 78,
                    "time": 135.65643310546875,
                    "velocity": 0.9763779527559056,
                    "duration": 0.05218505859375
                },
                {
                    "name": "G5",
                    "midi": 79,
                    "time": 135.714111328125,
                    "velocity": 0.9763779527559056,
                    "duration": 0.052642822265625
                },
                {
                    "name": "F#3",
                    "midi": 54,
                    "time": 135.714111328125,
                    "velocity": 0.9763779527559056,
                    "duration": 0.217437744140625
                },
                {
                    "name": "F#5",
                    "midi": 78,
                    "time": 135.77224731445312,
                    "velocity": 0.9763779527559056,
                    "duration": 0.052642822265625
                },
                {
                    "name": "E5",
                    "midi": 76,
                    "time": 135.83038330078125,
                    "velocity": 0.9763779527559056,
                    "duration": 0.0531005859375
                },
                {
                    "name": "F#5",
                    "midi": 78,
                    "time": 135.88897705078125,
                    "velocity": 0.9763779527559056,
                    "duration": 0.05584716796875
                },
                {
                    "name": "G5",
                    "midi": 79,
                    "time": 135.9503173828125,
                    "velocity": 0.9763779527559056,
                    "duration": 0.145111083984375
                },
                {
                    "name": "E3",
                    "midi": 52,
                    "time": 135.9503173828125,
                    "velocity": 0.9763779527559056,
                    "duration": 0.216064453125
                },
                {
                    "name": "B5",
                    "midi": 83,
                    "time": 136.10870361328125,
                    "velocity": 0.9763779527559056,
                    "duration": 0.14007568359375
                },
                {
                    "name": "F#3",
                    "midi": 54,
                    "time": 136.18515014648438,
                    "velocity": 0.9763779527559056,
                    "duration": 0.208282470703125
                },
                {
                    "name": "B4",
                    "midi": 71,
                    "time": 136.2615966796875,
                    "velocity": 0.9763779527559056,
                    "duration": 0.137786865234375
                },
                {
                    "name": "B4",
                    "midi": 71,
                    "time": 136.41220092773438,
                    "velocity": 0.9763779527559056,
                    "duration": 0.13824462890625
                },
                {
                    "name": "G3",
                    "midi": 55,
                    "time": 136.41220092773438,
                    "velocity": 0.9763779527559056,
                    "duration": 0.208740234375
                },
                {
                    "name": "B5",
                    "midi": 83,
                    "time": 136.56326293945312,
                    "velocity": 0.9763779527559056,
                    "duration": 0.140533447265625
                },
                {
                    "name": "F#3",
                    "midi": 54,
                    "time": 136.63970947265625,
                    "velocity": 0.9763779527559056,
                    "duration": 0.216522216796875
                },
                {
                    "name": "B4",
                    "midi": 71,
                    "time": 136.71661376953125,
                    "velocity": 0.9763779527559056,
                    "duration": 0.14556884765625
                },
                {
                    "name": "B4",
                    "midi": 71,
                    "time": 136.875,
                    "velocity": 1,
                    "duration": 0.161590576171875
                },
                {
                    "name": "G3",
                    "midi": 55,
                    "time": 136.875,
                    "velocity": 1,
                    "duration": 0.233917236328125
                },
                {
                    "name": "B5",
                    "midi": 83,
                    "time": 137.04986572265625,
                    "velocity": 0.9763779527559056,
                    "duration": 0.141448974609375
                },
                {
                    "name": "F#3",
                    "midi": 54,
                    "time": 137.127685546875,
                    "velocity": 1,
                    "duration": 0.211944580078125
                },
                {
                    "name": "B4",
                    "midi": 71,
                    "time": 137.20458984375,
                    "velocity": 0.9763779527559056,
                    "duration": 0.140533447265625
                },
                {
                    "name": "B4",
                    "midi": 71,
                    "time": 137.3583984375,
                    "velocity": 0.9763779527559056,
                    "duration": 0.1409912109375
                },
                {
                    "name": "G3",
                    "midi": 55,
                    "time": 137.3583984375,
                    "velocity": 0.9763779527559056,
                    "duration": 0.211944580078125
                },
                {
                    "name": "B5",
                    "midi": 83,
                    "time": 137.51220703125,
                    "velocity": 0.9763779527559056,
                    "duration": 0.14190673828125
                },
                {
                    "name": "E3",
                    "midi": 52,
                    "time": 137.589111328125,
                    "velocity": 0.9763779527559056,
                    "duration": 0.217437744140625
                },
                {
                    "name": "C#5",
                    "midi": 73,
                    "time": 137.66693115234375,
                    "velocity": 0.9763779527559056,
                    "duration": 0.14556884765625
                },
                {
                    "name": "D5",
                    "midi": 74,
                    "time": 137.8253173828125,
                    "velocity": 0.9763779527559056,
                    "duration": 0.145111083984375
                },
                {
                    "name": "B3",
                    "midi": 59,
                    "time": 137.8253173828125,
                    "velocity": 0.9763779527559056,
                    "duration": 0.216064453125
                },
                {
                    "name": "E5",
                    "midi": 76,
                    "time": 137.98370361328125,
                    "velocity": 0.9763779527559056,
                    "duration": 0.14007568359375
                },
                {
                    "name": "E3",
                    "midi": 52,
                    "time": 138.06015014648438,
                    "velocity": 0.9763779527559056,
                    "duration": 0.208282470703125
                },
                {
                    "name": "D5",
                    "midi": 74,
                    "time": 138.1365966796875,
                    "velocity": 0.9763779527559056,
                    "duration": 0.137786865234375
                },
                {
                    "name": "C#5",
                    "midi": 73,
                    "time": 138.28720092773438,
                    "velocity": 0.9763779527559056,
                    "duration": 0.13824462890625
                },
                {
                    "name": "F#3",
                    "midi": 54,
                    "time": 138.28720092773438,
                    "velocity": 0.9763779527559056,
                    "duration": 0.208740234375
                },
                {
                    "name": "D5",
                    "midi": 74,
                    "time": 138.43826293945312,
                    "velocity": 0.9763779527559056,
                    "duration": 0.140533447265625
                },
                {
                    "name": "F#2",
                    "midi": 42,
                    "time": 138.51470947265625,
                    "velocity": 0.968503937007874,
                    "duration": 0.216522216796875
                },
                {
                    "name": "C#5",
                    "midi": 73,
                    "time": 138.59161376953125,
                    "velocity": 0.9763779527559056,
                    "duration": 0.14556884765625
                },
                {
                    "name": "C#5",
                    "midi": 73,
                    "time": 138.75,
                    "velocity": 1,
                    "duration": 0.086517333984375
                },
                {
                    "name": "B2",
                    "midi": 47,
                    "time": 138.75,
                    "velocity": 1,
                    "duration": 0.233917236328125
                },
                {
                    "name": "B4",
                    "midi": 71,
                    "time": 138.82736206054688,
                    "velocity": 0.9763779527559056,
                    "duration": 0.086517333984375
                },
                {
                    "name": "C#5",
                    "midi": 73,
                    "time": 138.90472412109375,
                    "velocity": 0.9763779527559056,
                    "duration": 0.086517333984375
                },
                {
                    "name": "B4",
                    "midi": 71,
                    "time": 138.98208618164062,
                    "velocity": 0.937007874015748,
                    "duration": 0.705413818359375
                },
                {
                    "name": "F#3",
                    "midi": 54,
                    "time": 139.002685546875,
                    "velocity": 1,
                    "duration": 0.211944580078125
                },
                {
                    "name": "B3",
                    "midi": 59,
                    "time": 139.2333984375,
                    "velocity": 0.9763779527559056,
                    "duration": 0.211944580078125
                },
                {
                    "name": "A3",
                    "midi": 57,
                    "time": 139.464111328125,
                    "velocity": 0.9763779527559056,
                    "duration": 0.217437744140625
                },
                {
                    "name": "A3",
                    "midi": 57,
                    "time": 139.6875,
                    "velocity": 0.9763779527559056,
                    "duration": 0.061798095703125
                },
                {
                    "name": "E5",
                    "midi": 76,
                    "time": 139.7003173828125,
                    "velocity": 0.9763779527559056,
                    "duration": 0.145111083984375
                },
                {
                    "name": "G#3",
                    "midi": 56,
                    "time": 139.74288940429688,
                    "velocity": 0.9763779527559056,
                    "duration": 0.061798095703125
                },
                {
                    "name": "A3",
                    "midi": 57,
                    "time": 139.79827880859375,
                    "velocity": 0.9763779527559056,
                    "duration": 0.061798095703125
                },
                {
                    "name": "G#3",
                    "midi": 56,
                    "time": 139.85366821289062,
                    "velocity": 0.937007874015748,
                    "duration": 0.06317138671875
                },
                {
                    "name": "F#5",
                    "midi": 78,
                    "time": 139.85870361328125,
                    "velocity": 0.9763779527559056,
                    "duration": 0.14007568359375
                },
                {
                    "name": "F#3",
                    "midi": 54,
                    "time": 139.93515014648438,
                    "velocity": 0.9763779527559056,
                    "duration": 0.208282470703125
                },
                {
                    "name": "E5",
                    "midi": 76,
                    "time": 140.0115966796875,
                    "velocity": 0.9763779527559056,
                    "duration": 0.137786865234375
                },
                {
                    "name": "E4",
                    "midi": 64,
                    "time": 140.16220092773438,
                    "velocity": 0.9763779527559056,
                    "duration": 0.13824462890625
                },
                {
                    "name": "G#3",
                    "midi": 56,
                    "time": 140.16220092773438,
                    "velocity": 0.9763779527559056,
                    "duration": 0.208740234375
                },
                {
                    "name": "E5",
                    "midi": 76,
                    "time": 140.31326293945312,
                    "velocity": 0.9763779527559056,
                    "duration": 0.140533447265625
                },
                {
                    "name": "E3",
                    "midi": 52,
                    "time": 140.38970947265625,
                    "velocity": 0.9763779527559056,
                    "duration": 0.216522216796875
                },
                {
                    "name": "D5",
                    "midi": 74,
                    "time": 140.46661376953125,
                    "velocity": 0.9763779527559056,
                    "duration": 0.14556884765625
                },
                {
                    "name": "C#5",
                    "midi": 73,
                    "time": 140.625,
                    "velocity": 1,
                    "duration": 0.161590576171875
                },
                {
                    "name": "A3",
                    "midi": 57,
                    "time": 140.625,
                    "velocity": 1,
                    "duration": 0.233917236328125
                },
                {
                    "name": "D5",
                    "midi": 74,
                    "time": 140.79986572265625,
                    "velocity": 0.9763779527559056,
                    "duration": 0.141448974609375
                },
                {
                    "name": "G#3",
                    "midi": 56,
                    "time": 140.877685546875,
                    "velocity": 1,
                    "duration": 0.211944580078125
                },
                {
                    "name": "E5",
                    "midi": 76,
                    "time": 140.95458984375,
                    "velocity": 0.9763779527559056,
                    "duration": 0.140533447265625
                },
                {
                    "name": "A4",
                    "midi": 69,
                    "time": 141.1083984375,
                    "velocity": 0.9763779527559056,
                    "duration": 0.1409912109375
                },
                {
                    "name": "A3",
                    "midi": 57,
                    "time": 141.1083984375,
                    "velocity": 0.9763779527559056,
                    "duration": 0.211944580078125
                },
                {
                    "name": "E5",
                    "midi": 76,
                    "time": 141.26220703125,
                    "velocity": 0.9763779527559056,
                    "duration": 0.14190673828125
                },
                {
                    "name": "B3",
                    "midi": 59,
                    "time": 141.339111328125,
                    "velocity": 0.9763779527559056,
                    "duration": 0.217437744140625
                },
                {
                    "name": "A4",
                    "midi": 69,
                    "time": 141.41693115234375,
                    "velocity": 0.9763779527559056,
                    "duration": 0.14556884765625
                },
                {
                    "name": "A4",
                    "midi": 69,
                    "time": 141.5753173828125,
                    "velocity": 0.9763779527559056,
                    "duration": 0.145111083984375
                },
                {
                    "name": "C#4",
                    "midi": 61,
                    "time": 141.5753173828125,
                    "velocity": 0.9763779527559056,
                    "duration": 0.216064453125
                },
                {
                    "name": "E5",
                    "midi": 76,
                    "time": 141.73370361328125,
                    "velocity": 0.9763779527559056,
                    "duration": 0.14007568359375
                },
                {
                    "name": "D4",
                    "midi": 62,
                    "time": 141.81015014648438,
                    "velocity": 0.9763779527559056,
                    "duration": 0.208282470703125
                },
                {
                    "name": "G4",
                    "midi": 67,
                    "time": 141.8865966796875,
                    "velocity": 0.9763779527559056,
                    "duration": 0.137786865234375
                },
                {
                    "name": "G4",
                    "midi": 67,
                    "time": 142.03720092773438,
                    "velocity": 0.9763779527559056,
                    "duration": 0.13824462890625
                },
                {
                    "name": "E4",
                    "midi": 64,
                    "time": 142.03720092773438,
                    "velocity": 0.9763779527559056,
                    "duration": 0.208740234375
                },
                {
                    "name": "E5",
                    "midi": 76,
                    "time": 142.18826293945312,
                    "velocity": 0.9763779527559056,
                    "duration": 0.140533447265625
                },
                {
                    "name": "C#4",
                    "midi": 61,
                    "time": 142.26470947265625,
                    "velocity": 0.9763779527559056,
                    "duration": 0.216522216796875
                },
                {
                    "name": "G4",
                    "midi": 67,
                    "time": 142.34161376953125,
                    "velocity": 0.9763779527559056,
                    "duration": 0.14556884765625
                },
                {
                    "name": "A4",
                    "midi": 69,
                    "time": 142.5,
                    "velocity": 1,
                    "duration": 0.084686279296875
                },
                {
                    "name": "D4",
                    "midi": 62,
                    "time": 142.5,
                    "velocity": 1,
                    "duration": 0.233917236328125
                },
                {
                    "name": "G4",
                    "midi": 67,
                    "time": 142.57598876953125,
                    "velocity": 0.9763779527559056,
                    "duration": 0.084686279296875
                },
                {
                    "name": "A4",
                    "midi": 69,
                    "time": 142.6519775390625,
                    "velocity": 0.9763779527559056,
                    "duration": 0.084686279296875
                },
                {
                    "name": "G4",
                    "midi": 67,
                    "time": 142.72796630859375,
                    "velocity": 0.937007874015748,
                    "duration": 0.2215576171875
                },
                {
                    "name": "A3",
                    "midi": 57,
                    "time": 142.752685546875,
                    "velocity": 1,
                    "duration": 0.211944580078125
                },
                {
                    "name": "F#4",
                    "midi": 66,
                    "time": 142.9833984375,
                    "velocity": 0.9763779527559056,
                    "duration": 0.466461181640625
                },
                {
                    "name": "D3",
                    "midi": 50,
                    "time": 142.9833984375,
                    "velocity": 0.9763779527559056,
                    "duration": 0.211944580078125
                },
                {
                    "name": "F#3",
                    "midi": 54,
                    "time": 143.214111328125,
                    "velocity": 0.9763779527559056,
                    "duration": 0.217437744140625
                },
                {
                    "name": "B4",
                    "midi": 71,
                    "time": 143.4503173828125,
                    "velocity": 0.8818897637795275,
                    "duration": 0.163421630859375
                },
                {
                    "name": "G2",
                    "midi": 43,
                    "time": 143.4503173828125,
                    "velocity": 0.9763779527559056,
                    "duration": 0.216064453125
                },
                {
                    "name": "D5",
                    "midi": 74,
                    "time": 143.60870361328125,
                    "velocity": 0.8818897637795275,
                    "duration": 0.15838623046875
                },
                {
                    "name": "G3",
                    "midi": 55,
                    "time": 143.68515014648438,
                    "velocity": 0.9763779527559056,
                    "duration": 0.208282470703125
                },
                {
                    "name": "D4",
                    "midi": 62,
                    "time": 143.7615966796875,
                    "velocity": 0.8818897637795275,
                    "duration": 0.1556396484375
                },
                {
                    "name": "B4",
                    "midi": 71,
                    "time": 143.91220092773438,
                    "velocity": 0.8818897637795275,
                    "duration": 0.156097412109375
                },
                {
                    "name": "B3",
                    "midi": 59,
                    "time": 143.91220092773438,
                    "velocity": 0.9763779527559056,
                    "duration": 0.208740234375
                },
                {
                    "name": "D5",
                    "midi": 74,
                    "time": 144.06326293945312,
                    "velocity": 0.8818897637795275,
                    "duration": 0.158843994140625
                },
                {
                    "name": "G2",
                    "midi": 43,
                    "time": 144.13970947265625,
                    "velocity": 0.9763779527559056,
                    "duration": 0.216522216796875
                },
                {
                    "name": "D4",
                    "midi": 62,
                    "time": 144.21661376953125,
                    "velocity": 0.8818897637795275,
                    "duration": 0.163421630859375
                },
                {
                    "name": "A4",
                    "midi": 69,
                    "time": 144.375,
                    "velocity": 0.9291338582677166,
                    "duration": 0.179901123046875
                },
                {
                    "name": "F#2",
                    "midi": 42,
                    "time": 144.375,
                    "velocity": 1,
                    "duration": 0.233917236328125
                },
                {
                    "name": "D5",
                    "midi": 74,
                    "time": 144.54986572265625,
                    "velocity": 0.8818897637795275,
                    "duration": 0.16021728515625
                },
                {
                    "name": "D3",
                    "midi": 50,
                    "time": 144.627685546875,
                    "velocity": 1,
                    "duration": 0.211944580078125
                },
                {
                    "name": "D4",
                    "midi": 62,
                    "time": 144.70458984375,
                    "velocity": 0.8818897637795275,
                    "duration": 0.158843994140625
                },
                {
                    "name": "A4",
                    "midi": 69,
                    "time": 144.8583984375,
                    "velocity": 0.8818897637795275,
                    "duration": 0.158843994140625
                },
                {
                    "name": "F#3",
                    "midi": 54,
                    "time": 144.8583984375,
                    "velocity": 0.9763779527559056,
                    "duration": 0.211944580078125
                },
                {
                    "name": "D5",
                    "midi": 74,
                    "time": 145.01220703125,
                    "velocity": 0.8818897637795275,
                    "duration": 0.16021728515625
                },
                {
                    "name": "D2",
                    "midi": 38,
                    "time": 145.089111328125,
                    "velocity": 0.9606299212598425,
                    "duration": 0.217437744140625
                },
                {
                    "name": "D4",
                    "midi": 62,
                    "time": 145.16693115234375,
                    "velocity": 0.8818897637795275,
                    "duration": 0.163421630859375
                },
                {
                    "name": "B4",
                    "midi": 71,
                    "time": 145.3253173828125,
                    "velocity": 0.8818897637795275,
                    "duration": 0.163421630859375
                },
                {
                    "name": "G2",
                    "midi": 43,
                    "time": 145.3253173828125,
                    "velocity": 0.9763779527559056,
                    "duration": 0.216064453125
                },
                {
                    "name": "D5",
                    "midi": 74,
                    "time": 145.48370361328125,
                    "velocity": 0.8818897637795275,
                    "duration": 0.15838623046875
                },
                {
                    "name": "G3",
                    "midi": 55,
                    "time": 145.56015014648438,
                    "velocity": 0.9763779527559056,
                    "duration": 0.208282470703125
                },
                {
                    "name": "D4",
                    "midi": 62,
                    "time": 145.6365966796875,
                    "velocity": 0.8818897637795275,
                    "duration": 0.1556396484375
                },
                {
                    "name": "B4",
                    "midi": 71,
                    "time": 145.78720092773438,
                    "velocity": 0.8818897637795275,
                    "duration": 0.156097412109375
                },
                {
                    "name": "B3",
                    "midi": 59,
                    "time": 145.78720092773438,
                    "velocity": 0.9763779527559056,
                    "duration": 0.208740234375
                },
                {
                    "name": "D5",
                    "midi": 74,
                    "time": 145.93826293945312,
                    "velocity": 0.8818897637795275,
                    "duration": 0.158843994140625
                },
                {
                    "name": "G2",
                    "midi": 43,
                    "time": 146.01470947265625,
                    "velocity": 0.9763779527559056,
                    "duration": 0.216522216796875
                },
                {
                    "name": "D4",
                    "midi": 62,
                    "time": 146.09161376953125,
                    "velocity": 0.8818897637795275,
                    "duration": 0.163421630859375
                },
                {
                    "name": "A4",
                    "midi": 69,
                    "time": 146.25,
                    "velocity": 0.9291338582677166,
                    "duration": 0.179901123046875
                },
                {
                    "name": "F#2",
                    "midi": 42,
                    "time": 146.25,
                    "velocity": 1,
                    "duration": 0.233917236328125
                },
                {
                    "name": "D5",
                    "midi": 74,
                    "time": 146.42486572265625,
                    "velocity": 0.8818897637795275,
                    "duration": 0.16021728515625
                },
                {
                    "name": "D3",
                    "midi": 50,
                    "time": 146.502685546875,
                    "velocity": 1,
                    "duration": 0.211944580078125
                },
                {
                    "name": "D4",
                    "midi": 62,
                    "time": 146.57958984375,
                    "velocity": 0.8818897637795275,
                    "duration": 0.158843994140625
                },
                {
                    "name": "A4",
                    "midi": 69,
                    "time": 146.7333984375,
                    "velocity": 0.8818897637795275,
                    "duration": 0.158843994140625
                },
                {
                    "name": "F#3",
                    "midi": 54,
                    "time": 146.7333984375,
                    "velocity": 0.9763779527559056,
                    "duration": 0.211944580078125
                },
                {
                    "name": "D5",
                    "midi": 74,
                    "time": 146.88720703125,
                    "velocity": 0.8818897637795275,
                    "duration": 0.16021728515625
                },
                {
                    "name": "D2",
                    "midi": 38,
                    "time": 146.964111328125,
                    "velocity": 0.9606299212598425,
                    "duration": 0.217437744140625
                },
                {
                    "name": "D4",
                    "midi": 62,
                    "time": 147.04193115234375,
                    "velocity": 0.8818897637795275,
                    "duration": 0.163421630859375
                },
                {
                    "name": "B4",
                    "midi": 71,
                    "time": 147.2003173828125,
                    "velocity": 0.8818897637795275,
                    "duration": 0.163421630859375
                },
                {
                    "name": "G2",
                    "midi": 43,
                    "time": 147.2003173828125,
                    "velocity": 0.9763779527559056,
                    "duration": 0.216064453125
                },
                {
                    "name": "D5",
                    "midi": 74,
                    "time": 147.35870361328125,
                    "velocity": 0.8818897637795275,
                    "duration": 0.15838623046875
                },
                {
                    "name": "G3",
                    "midi": 55,
                    "time": 147.43515014648438,
                    "velocity": 0.9763779527559056,
                    "duration": 0.208282470703125
                },
                {
                    "name": "D4",
                    "midi": 62,
                    "time": 147.5115966796875,
                    "velocity": 0.8818897637795275,
                    "duration": 0.1556396484375
                },
                {
                    "name": "B4",
                    "midi": 71,
                    "time": 147.66220092773438,
                    "velocity": 0.8818897637795275,
                    "duration": 0.156097412109375
                },
                {
                    "name": "B3",
                    "midi": 59,
                    "time": 147.66220092773438,
                    "velocity": 0.9763779527559056,
                    "duration": 0.208740234375
                },
                {
                    "name": "D5",
                    "midi": 74,
                    "time": 147.81326293945312,
                    "velocity": 0.8818897637795275,
                    "duration": 0.158843994140625
                },
                {
                    "name": "G2",
                    "midi": 43,
                    "time": 147.88970947265625,
                    "velocity": 0.9763779527559056,
                    "duration": 0.216522216796875
                },
                {
                    "name": "D4",
                    "midi": 62,
                    "time": 147.96661376953125,
                    "velocity": 0.8818897637795275,
                    "duration": 0.163421630859375
                },
                {
                    "name": "A4",
                    "midi": 69,
                    "time": 148.125,
                    "velocity": 0.9291338582677166,
                    "duration": 0.179901123046875
                },
                {
                    "name": "F#2",
                    "midi": 42,
                    "time": 148.125,
                    "velocity": 1,
                    "duration": 0.233917236328125
                },
                {
                    "name": "D5",
                    "midi": 74,
                    "time": 148.29986572265625,
                    "velocity": 0.8818897637795275,
                    "duration": 0.16021728515625
                },
                {
                    "name": "D3",
                    "midi": 50,
                    "time": 148.377685546875,
                    "velocity": 1,
                    "duration": 0.211944580078125
                },
                {
                    "name": "D4",
                    "midi": 62,
                    "time": 148.45458984375,
                    "velocity": 0.8818897637795275,
                    "duration": 0.158843994140625
                },
                {
                    "name": "A4",
                    "midi": 69,
                    "time": 148.6083984375,
                    "velocity": 0.8818897637795275,
                    "duration": 0.158843994140625
                },
                {
                    "name": "F#3",
                    "midi": 54,
                    "time": 148.6083984375,
                    "velocity": 0.9763779527559056,
                    "duration": 0.211944580078125
                },
                {
                    "name": "D5",
                    "midi": 74,
                    "time": 148.76220703125,
                    "velocity": 0.8818897637795275,
                    "duration": 0.16021728515625
                },
                {
                    "name": "D2",
                    "midi": 38,
                    "time": 148.839111328125,
                    "velocity": 0.9606299212598425,
                    "duration": 0.217437744140625
                },
                {
                    "name": "D4",
                    "midi": 62,
                    "time": 148.91693115234375,
                    "velocity": 0.8818897637795275,
                    "duration": 0.163421630859375
                },
                {
                    "name": "B4",
                    "midi": 71,
                    "time": 149.0753173828125,
                    "velocity": 0.8818897637795275,
                    "duration": 0.163421630859375
                },
                {
                    "name": "G2",
                    "midi": 43,
                    "time": 149.0753173828125,
                    "velocity": 0.9763779527559056,
                    "duration": 0.216064453125
                },
                {
                    "name": "D5",
                    "midi": 74,
                    "time": 149.23370361328125,
                    "velocity": 0.8818897637795275,
                    "duration": 0.15838623046875
                },
                {
                    "name": "G3",
                    "midi": 55,
                    "time": 149.31015014648438,
                    "velocity": 0.9763779527559056,
                    "duration": 0.208282470703125
                },
                {
                    "name": "C#5",
                    "midi": 73,
                    "time": 149.3865966796875,
                    "velocity": 0.8818897637795275,
                    "duration": 0.1556396484375
                },
                {
                    "name": "D5",
                    "midi": 74,
                    "time": 149.53720092773438,
                    "velocity": 0.8818897637795275,
                    "duration": 0.156097412109375
                },
                {
                    "name": "B3",
                    "midi": 59,
                    "time": 149.53720092773438,
                    "velocity": 0.9763779527559056,
                    "duration": 0.208740234375
                },
                {
                    "name": "B4",
                    "midi": 71,
                    "time": 149.68826293945312,
                    "velocity": 0.8818897637795275,
                    "duration": 0.158843994140625
                },
                {
                    "name": "G3",
                    "midi": 55,
                    "time": 149.76470947265625,
                    "velocity": 0.9763779527559056,
                    "duration": 0.216522216796875
                },
                {
                    "name": "E5",
                    "midi": 76,
                    "time": 149.84161376953125,
                    "velocity": 0.8818897637795275,
                    "duration": 0.163421630859375
                },
                {
                    "name": "D5",
                    "midi": 74,
                    "time": 150,
                    "velocity": 1,
                    "duration": 0.084686279296875
                },
                {
                    "name": "A2",
                    "midi": 45,
                    "time": 150,
                    "velocity": 1,
                    "duration": 0.232086181640625
                },
                {
                    "name": "C#5",
                    "midi": 73,
                    "time": 150.07598876953125,
                    "velocity": 0.9763779527559056,
                    "duration": 0.084686279296875
                },
                {
                    "name": "D5",
                    "midi": 74,
                    "time": 150.1519775390625,
                    "velocity": 0.9763779527559056,
                    "duration": 0.084686279296875
                },
                {
                    "name": "C#5",
                    "midi": 73,
                    "time": 150.22796630859375,
                    "velocity": 0.937007874015748,
                    "duration": 0.70953369140625
                },
                {
                    "name": "A3",
                    "midi": 57,
                    "time": 150.2508544921875,
                    "velocity": 0.9763779527559056,
                    "duration": 0.2069091796875
                },
                {
                    "name": "C#4",
                    "midi": 61,
                    "time": 150.47653198242188,
                    "velocity": 0.9763779527559056,
                    "duration": 0.207366943359375
                },
                {
                    "name": "A3",
                    "midi": 57,
                    "time": 150.70266723632812,
                    "velocity": 0.9763779527559056,
                    "duration": 0.216064453125
                },
                {
                    "name": "A4",
                    "midi": 69,
                    "time": 150.9375,
                    "velocity": 1,
                    "duration": 0.1611328125
                },
                {
                    "name": "F#3",
                    "midi": 54,
                    "time": 150.9375,
                    "velocity": 1,
                    "duration": 0.232086181640625
                },
                {
                    "name": "F#5",
                    "midi": 78,
                    "time": 151.11190795898438,
                    "velocity": 0.9763779527559056,
                    "duration": 0.13916015625
                },
                {
                    "name": "A3",
                    "midi": 57,
                    "time": 151.1883544921875,
                    "velocity": 0.9763779527559056,
                    "duration": 0.2069091796875
                },
                {
                    "name": "A4",
                    "midi": 69,
                    "time": 151.26434326171875,
                    "velocity": 0.9763779527559056,
                    "duration": 0.136871337890625
                },
                {
                    "name": "A4",
                    "midi": 69,
                    "time": 151.41403198242188,
                    "velocity": 0.9763779527559056,
                    "duration": 0.136871337890625
                },
                {
                    "name": "D3",
                    "midi": 50,
                    "time": 151.41403198242188,
                    "velocity": 0.9763779527559056,
                    "duration": 0.207366943359375
                },
                {
                    "name": "F#5",
                    "midi": 78,
                    "time": 151.563720703125,
                    "velocity": 0.9763779527559056,
                    "duration": 0.14007568359375
                },
                {
                    "name": "F#3",
                    "midi": 54,
                    "time": 151.64016723632812,
                    "velocity": 0.9763779527559056,
                    "duration": 0.216064453125
                },
                {
                    "name": "A4",
                    "midi": 69,
                    "time": 151.71661376953125,
                    "velocity": 0.9763779527559056,
                    "duration": 0.14556884765625
                },
                {
                    "name": "A4",
                    "midi": 69,
                    "time": 151.875,
                    "velocity": 1,
                    "duration": 0.161590576171875
                },
                {
                    "name": "B2",
                    "midi": 47,
                    "time": 151.875,
                    "velocity": 1,
                    "duration": 0.233917236328125
                },
                {
                    "name": "B4",
                    "midi": 71,
                    "time": 152.04986572265625,
                    "velocity": 0.9763779527559056,
                    "duration": 0.141448974609375
                },
                {
                    "name": "B3",
                    "midi": 59,
                    "time": 152.127685546875,
                    "velocity": 1,
                    "duration": 0.211944580078125
                },
                {
                    "name": "A4",
                    "midi": 69,
                    "time": 152.20458984375,
                    "velocity": 0.9763779527559056,
                    "duration": 0.140533447265625
                },
                {
                    "name": "G4",
                    "midi": 67,
                    "time": 152.3583984375,
                    "velocity": 0.9763779527559056,
                    "duration": 0.1409912109375
                },
                {
                    "name": "D4",
                    "midi": 62,
                    "time": 152.3583984375,
                    "velocity": 0.9763779527559056,
                    "duration": 0.211944580078125
                },
                {
                    "name": "A4",
                    "midi": 69,
                    "time": 152.51220703125,
                    "velocity": 0.9763779527559056,
                    "duration": 0.14190673828125
                },
                {
                    "name": "B3",
                    "midi": 59,
                    "time": 152.589111328125,
                    "velocity": 0.9763779527559056,
                    "duration": 0.217437744140625
                },
                {
                    "name": "F#4",
                    "midi": 66,
                    "time": 152.66693115234375,
                    "velocity": 0.9763779527559056,
                    "duration": 0.14556884765625
                },
                {
                    "name": "G4",
                    "midi": 67,
                    "time": 152.8253173828125,
                    "velocity": 0.9763779527559056,
                    "duration": 0.145111083984375
                },
                {
                    "name": "C#4",
                    "midi": 61,
                    "time": 152.8253173828125,
                    "velocity": 0.9763779527559056,
                    "duration": 0.216064453125
                },
                {
                    "name": "E5",
                    "midi": 76,
                    "time": 152.98370361328125,
                    "velocity": 0.9763779527559056,
                    "duration": 0.14007568359375
                },
                {
                    "name": "E4",
                    "midi": 64,
                    "time": 153.06015014648438,
                    "velocity": 0.9763779527559056,
                    "duration": 0.208282470703125
                },
                {
                    "name": "G4",
                    "midi": 67,
                    "time": 153.1365966796875,
                    "velocity": 0.9763779527559056,
                    "duration": 0.137786865234375
                },
                {
                    "name": "G4",
                    "midi": 67,
                    "time": 153.28720092773438,
                    "velocity": 0.9763779527559056,
                    "duration": 0.13824462890625
                },
                {
                    "name": "A3",
                    "midi": 57,
                    "time": 153.28720092773438,
                    "velocity": 0.9763779527559056,
                    "duration": 0.208740234375
                },
                {
                    "name": "E5",
                    "midi": 76,
                    "time": 153.43826293945312,
                    "velocity": 0.9763779527559056,
                    "duration": 0.140533447265625
                },
                {
                    "name": "C#4",
                    "midi": 61,
                    "time": 153.51470947265625,
                    "velocity": 0.9763779527559056,
                    "duration": 0.216522216796875
                },
                {
                    "name": "G4",
                    "midi": 67,
                    "time": 153.59161376953125,
                    "velocity": 0.9763779527559056,
                    "duration": 0.14556884765625
                },
                {
                    "name": "G4",
                    "midi": 67,
                    "time": 153.75,
                    "velocity": 1,
                    "duration": 0.161590576171875
                },
                {
                    "name": "D3",
                    "midi": 50,
                    "time": 153.75,
                    "velocity": 1,
                    "duration": 0.233917236328125
                },
                {
                    "name": "A4",
                    "midi": 69,
                    "time": 153.92486572265625,
                    "velocity": 0.9763779527559056,
                    "duration": 0.141448974609375
                },
                {
                    "name": "A3",
                    "midi": 57,
                    "time": 154.002685546875,
                    "velocity": 1,
                    "duration": 0.211944580078125
                },
                {
                    "name": "G4",
                    "midi": 67,
                    "time": 154.07958984375,
                    "velocity": 0.9763779527559056,
                    "duration": 0.140533447265625
                },
                {
                    "name": "F#4",
                    "midi": 66,
                    "time": 154.2333984375,
                    "velocity": 0.9763779527559056,
                    "duration": 0.1409912109375
                },
                {
                    "name": "B3",
                    "midi": 59,
                    "time": 154.2333984375,
                    "velocity": 0.9763779527559056,
                    "duration": 0.211944580078125
                },
                {
                    "name": "G4",
                    "midi": 67,
                    "time": 154.38720703125,
                    "velocity": 0.9763779527559056,
                    "duration": 0.14190673828125
                },
                {
                    "name": "C#4",
                    "midi": 61,
                    "time": 154.464111328125,
                    "velocity": 0.9763779527559056,
                    "duration": 0.217437744140625
                },
                {
                    "name": "E4",
                    "midi": 64,
                    "time": 154.54193115234375,
                    "velocity": 0.9763779527559056,
                    "duration": 0.14556884765625
                },
                {
                    "name": "F#4",
                    "midi": 66,
                    "time": 154.7003173828125,
                    "velocity": 0.9763779527559056,
                    "duration": 0.145111083984375
                },
                {
                    "name": "D4",
                    "midi": 62,
                    "time": 154.7003173828125,
                    "velocity": 0.9763779527559056,
                    "duration": 0.216064453125
                },
                {
                    "name": "D5",
                    "midi": 74,
                    "time": 154.85870361328125,
                    "velocity": 0.9763779527559056,
                    "duration": 0.14007568359375
                },
                {
                    "name": "A3",
                    "midi": 57,
                    "time": 154.93515014648438,
                    "velocity": 0.9763779527559056,
                    "duration": 0.208282470703125
                },
                {
                    "name": "F#4",
                    "midi": 66,
                    "time": 155.0115966796875,
                    "velocity": 0.9763779527559056,
                    "duration": 0.137786865234375
                },
                {
                    "name": "E4",
                    "midi": 64,
                    "time": 155.16220092773438,
                    "velocity": 0.9763779527559056,
                    "duration": 0.13824462890625
                },
                {
                    "name": "G3",
                    "midi": 55,
                    "time": 155.16220092773438,
                    "velocity": 0.9763779527559056,
                    "duration": 0.208740234375
                },
                {
                    "name": "D5",
                    "midi": 74,
                    "time": 155.31326293945312,
                    "velocity": 0.9763779527559056,
                    "duration": 0.140533447265625
                },
                {
                    "name": "A3",
                    "midi": 57,
                    "time": 155.38970947265625,
                    "velocity": 0.9763779527559056,
                    "duration": 0.216522216796875
                },
                {
                    "name": "E4",
                    "midi": 64,
                    "time": 155.46661376953125,
                    "velocity": 0.9763779527559056,
                    "duration": 0.14556884765625
                },
                {
                    "name": "D4",
                    "midi": 62,
                    "time": 155.625,
                    "velocity": 1,
                    "duration": 0.161590576171875
                },
                {
                    "name": "F#3",
                    "midi": 54,
                    "time": 155.625,
                    "velocity": 1,
                    "duration": 0.233917236328125
                },
                {
                    "name": "D5",
                    "midi": 74,
                    "time": 155.79986572265625,
                    "velocity": 0.9763779527559056,
                    "duration": 0.141448974609375
                },
                {
                    "name": "A3",
                    "midi": 57,
                    "time": 155.877685546875,
                    "velocity": 1,
                    "duration": 0.211944580078125
                },
                {
                    "name": "D4",
                    "midi": 62,
                    "time": 155.95458984375,
                    "velocity": 0.9763779527559056,
                    "duration": 0.140533447265625
                },
                {
                    "name": "E4",
                    "midi": 64,
                    "time": 156.1083984375,
                    "velocity": 0.9763779527559056,
                    "duration": 0.1409912109375
                },
                {
                    "name": "E3",
                    "midi": 52,
                    "time": 156.1083984375,
                    "velocity": 0.9763779527559056,
                    "duration": 0.211944580078125
                },
                {
                    "name": "C#5",
                    "midi": 73,
                    "time": 156.26220703125,
                    "velocity": 0.9763779527559056,
                    "duration": 0.14190673828125
                },
                {
                    "name": "A3",
                    "midi": 57,
                    "time": 156.339111328125,
                    "velocity": 0.9763779527559056,
                    "duration": 0.217437744140625
                },
                {
                    "name": "E4",
                    "midi": 64,
                    "time": 156.41693115234375,
                    "velocity": 0.9763779527559056,
                    "duration": 0.14556884765625
                },
                {
                    "name": "F#4",
                    "midi": 66,
                    "time": 156.5753173828125,
                    "velocity": 0.9763779527559056,
                    "duration": 0.145111083984375
                },
                {
                    "name": "D3",
                    "midi": 50,
                    "time": 156.5753173828125,
                    "velocity": 0.9763779527559056,
                    "duration": 0.216064453125
                },
                {
                    "name": "D5",
                    "midi": 74,
                    "time": 156.73370361328125,
                    "velocity": 0.9763779527559056,
                    "duration": 0.14007568359375
                },
                {
                    "name": "A3",
                    "midi": 57,
                    "time": 156.81015014648438,
                    "velocity": 0.9763779527559056,
                    "duration": 0.208282470703125
                },
                {
                    "name": "F#4",
                    "midi": 66,
                    "time": 156.8865966796875,
                    "velocity": 0.9763779527559056,
                    "duration": 0.137786865234375
                },
                {
                    "name": "G4",
                    "midi": 67,
                    "time": 157.03720092773438,
                    "velocity": 0.9763779527559056,
                    "duration": 0.13824462890625
                },
                {
                    "name": "C#3",
                    "midi": 49,
                    "time": 157.03720092773438,
                    "velocity": 0.9763779527559056,
                    "duration": 0.208740234375
                },
                {
                    "name": "A4",
                    "midi": 69,
                    "time": 157.18826293945312,
                    "velocity": 0.9763779527559056,
                    "duration": 0.140533447265625
                },
                {
                    "name": "D3",
                    "midi": 50,
                    "time": 157.26470947265625,
                    "velocity": 0.9763779527559056,
                    "duration": 0.216522216796875
                },
                {
                    "name": "F#4",
                    "midi": 66,
                    "time": 157.34161376953125,
                    "velocity": 0.9763779527559056,
                    "duration": 0.14556884765625
                },
                {
                    "name": "F#4",
                    "midi": 66,
                    "time": 157.5,
                    "velocity": 1,
                    "duration": 0.085601806640625
                },
                {
                    "name": "A2",
                    "midi": 45,
                    "time": 157.5,
                    "velocity": 1,
                    "duration": 0.233917236328125
                },
                {
                    "name": "E4",
                    "midi": 64,
                    "time": 157.57644653320312,
                    "velocity": 0.9763779527559056,
                    "duration": 0.085601806640625
                },
                {
                    "name": "F#4",
                    "midi": 66,
                    "time": 157.65289306640625,
                    "velocity": 0.9763779527559056,
                    "duration": 0.085601806640625
                },
                {
                    "name": "E4",
                    "midi": 64,
                    "time": 157.72933959960938,
                    "velocity": 0.937007874015748,
                    "duration": 0.708160400390625
                },
                {
                    "name": "A3",
                    "midi": 57,
                    "time": 157.752685546875,
                    "velocity": 1,
                    "duration": 0.211944580078125
                },
                {
                    "name": "C#4",
                    "midi": 61,
                    "time": 157.9833984375,
                    "velocity": 0.9763779527559056,
                    "duration": 0.211944580078125
                },
                {
                    "name": "A3",
                    "midi": 57,
                    "time": 158.214111328125,
                    "velocity": 0.9763779527559056,
                    "duration": 0.217437744140625
                },
                {
                    "name": "A4",
                    "midi": 69,
                    "time": 158.4503173828125,
                    "velocity": 0.9763779527559056,
                    "duration": 0.145111083984375
                },
                {
                    "name": "F#3",
                    "midi": 54,
                    "time": 158.4503173828125,
                    "velocity": 0.9763779527559056,
                    "duration": 0.216064453125
                },
                {
                    "name": "F#5",
                    "midi": 78,
                    "time": 158.60870361328125,
                    "velocity": 0.9763779527559056,
                    "duration": 0.14007568359375
                },
                {
                    "name": "A3",
                    "midi": 57,
                    "time": 158.68515014648438,
                    "velocity": 0.9763779527559056,
                    "duration": 0.208282470703125
                },
                {
                    "name": "A4",
                    "midi": 69,
                    "time": 158.7615966796875,
                    "velocity": 0.9763779527559056,
                    "duration": 0.137786865234375
                },
                {
                    "name": "A4",
                    "midi": 69,
                    "time": 158.91220092773438,
                    "velocity": 0.9763779527559056,
                    "duration": 0.13824462890625
                },
                {
                    "name": "D3",
                    "midi": 50,
                    "time": 158.91220092773438,
                    "velocity": 0.9763779527559056,
                    "duration": 0.208740234375
                },
                {
                    "name": "F#5",
                    "midi": 78,
                    "time": 159.06326293945312,
                    "velocity": 0.9763779527559056,
                    "duration": 0.140533447265625
                },
                {
                    "name": "F#3",
                    "midi": 54,
                    "time": 159.13970947265625,
                    "velocity": 0.9763779527559056,
                    "duration": 0.216522216796875
                },
                {
                    "name": "A4",
                    "midi": 69,
                    "time": 159.21661376953125,
                    "velocity": 0.9763779527559056,
                    "duration": 0.14556884765625
                },
                {
                    "name": "A4",
                    "midi": 69,
                    "time": 159.375,
                    "velocity": 1,
                    "duration": 0.161590576171875
                },
                {
                    "name": "B2",
                    "midi": 47,
                    "time": 159.375,
                    "velocity": 1,
                    "duration": 0.233917236328125
                },
                {
                    "name": "B4",
                    "midi": 71,
                    "time": 159.54986572265625,
                    "velocity": 0.9763779527559056,
                    "duration": 0.141448974609375
                },
                {
                    "name": "D3",
                    "midi": 50,
                    "time": 159.627685546875,
                    "velocity": 1,
                    "duration": 0.211944580078125
                },
                {
                    "name": "A4",
                    "midi": 69,
                    "time": 159.70458984375,
                    "velocity": 0.9763779527559056,
                    "duration": 0.140533447265625
                },
                {
                    "name": "G4",
                    "midi": 67,
                    "time": 159.8583984375,
                    "velocity": 0.9763779527559056,
                    "duration": 0.1409912109375
                },
                {
                    "name": "B2",
                    "midi": 47,
                    "time": 159.8583984375,
                    "velocity": 0.9763779527559056,
                    "duration": 0.211944580078125
                },
                {
                    "name": "A4",
                    "midi": 69,
                    "time": 160.01220703125,
                    "velocity": 0.9763779527559056,
                    "duration": 0.14190673828125
                },
                {
                    "name": "D3",
                    "midi": 50,
                    "time": 160.089111328125,
                    "velocity": 0.9763779527559056,
                    "duration": 0.217437744140625
                },
                {
                    "name": "F#4",
                    "midi": 66,
                    "time": 160.16693115234375,
                    "velocity": 0.9763779527559056,
                    "duration": 0.14556884765625
                },
                {
                    "name": "G4",
                    "midi": 67,
                    "time": 160.3253173828125,
                    "velocity": 0.9763779527559056,
                    "duration": 0.145111083984375
                },
                {
                    "name": "C#3",
                    "midi": 49,
                    "time": 160.3253173828125,
                    "velocity": 0.9763779527559056,
                    "duration": 0.216064453125
                },
                {
                    "name": "E5",
                    "midi": 76,
                    "time": 160.48370361328125,
                    "velocity": 0.9763779527559056,
                    "duration": 0.14007568359375
                },
                {
                    "name": "E3",
                    "midi": 52,
                    "time": 160.56015014648438,
                    "velocity": 0.9763779527559056,
                    "duration": 0.208282470703125
                },
                {
                    "name": "G4",
                    "midi": 67,
                    "time": 160.6365966796875,
                    "velocity": 0.9763779527559056,
                    "duration": 0.137786865234375
                },
                {
                    "name": "G4",
                    "midi": 67,
                    "time": 160.78720092773438,
                    "velocity": 0.9763779527559056,
                    "duration": 0.13824462890625
                },
                {
                    "name": "C#3",
                    "midi": 49,
                    "time": 160.78720092773438,
                    "velocity": 0.9763779527559056,
                    "duration": 0.208740234375
                },
                {
                    "name": "E5",
                    "midi": 76,
                    "time": 160.93826293945312,
                    "velocity": 0.9763779527559056,
                    "duration": 0.140533447265625
                },
                {
                    "name": "E3",
                    "midi": 52,
                    "time": 161.01470947265625,
                    "velocity": 0.9763779527559056,
                    "duration": 0.216522216796875
                },
                {
                    "name": "G4",
                    "midi": 67,
                    "time": 161.09161376953125,
                    "velocity": 0.9763779527559056,
                    "duration": 0.14556884765625
                },
                {
                    "name": "G4",
                    "midi": 67,
                    "time": 161.25,
                    "velocity": 1,
                    "duration": 0.161590576171875
                },
                {
                    "name": "A2",
                    "midi": 45,
                    "time": 161.25,
                    "velocity": 1,
                    "duration": 0.233917236328125
                },
                {
                    "name": "A4",
                    "midi": 69,
                    "time": 161.42486572265625,
                    "velocity": 0.9763779527559056,
                    "duration": 0.141448974609375
                },
                {
                    "name": "C#3",
                    "midi": 49,
                    "time": 161.502685546875,
                    "velocity": 1,
                    "duration": 0.211944580078125
                },
                {
                    "name": "G4",
                    "midi": 67,
                    "time": 161.57958984375,
                    "velocity": 0.9763779527559056,
                    "duration": 0.140533447265625
                },
                {
                    "name": "F#4",
                    "midi": 66,
                    "time": 161.7333984375,
                    "velocity": 0.9763779527559056,
                    "duration": 0.1409912109375
                },
                {
                    "name": "A2",
                    "midi": 45,
                    "time": 161.7333984375,
                    "velocity": 0.9763779527559056,
                    "duration": 0.211944580078125
                },
                {
                    "name": "G4",
                    "midi": 67,
                    "time": 161.88720703125,
                    "velocity": 0.9763779527559056,
                    "duration": 0.14190673828125
                },
                {
                    "name": "C#3",
                    "midi": 49,
                    "time": 161.964111328125,
                    "velocity": 0.9763779527559056,
                    "duration": 0.217437744140625
                },
                {
                    "name": "E4",
                    "midi": 64,
                    "time": 162.04193115234375,
                    "velocity": 0.9763779527559056,
                    "duration": 0.14556884765625
                },
                {
                    "name": "F#4",
                    "midi": 66,
                    "time": 162.2003173828125,
                    "velocity": 0.9763779527559056,
                    "duration": 0.145111083984375
                },
                {
                    "name": "D2",
                    "midi": 38,
                    "time": 162.2003173828125,
                    "velocity": 0.9606299212598425,
                    "duration": 0.216064453125
                },
                {
                    "name": "D5",
                    "midi": 74,
                    "time": 162.35870361328125,
                    "velocity": 0.9763779527559056,
                    "duration": 0.14007568359375
                },
                {
                    "name": "D3",
                    "midi": 50,
                    "time": 162.43515014648438,
                    "velocity": 0.9763779527559056,
                    "duration": 0.208282470703125
                },
                {
                    "name": "F#4",
                    "midi": 66,
                    "time": 162.5115966796875,
                    "velocity": 0.9763779527559056,
                    "duration": 0.137786865234375
                },
                {
                    "name": "E4",
                    "midi": 64,
                    "time": 162.66220092773438,
                    "velocity": 0.9763779527559056,
                    "duration": 0.13824462890625
                },
                {
                    "name": "G2",
                    "midi": 43,
                    "time": 162.66220092773438,
                    "velocity": 0.9763779527559056,
                    "duration": 0.208740234375
                },
                {
                    "name": "D5",
                    "midi": 74,
                    "time": 162.81326293945312,
                    "velocity": 0.9763779527559056,
                    "duration": 0.140533447265625
                },
                {
                    "name": "A2",
                    "midi": 45,
                    "time": 162.88970947265625,
                    "velocity": 0.9763779527559056,
                    "duration": 0.216522216796875
                },
                {
                    "name": "E4",
                    "midi": 64,
                    "time": 162.96661376953125,
                    "velocity": 0.9763779527559056,
                    "duration": 0.14556884765625
                },
                {
                    "name": "D4",
                    "midi": 62,
                    "time": 163.125,
                    "velocity": 1,
                    "duration": 0.161590576171875
                },
                {
                    "name": "F#2",
                    "midi": 42,
                    "time": 163.125,
                    "velocity": 1,
                    "duration": 0.233917236328125
                },
                {
                    "name": "D5",
                    "midi": 74,
                    "time": 163.29986572265625,
                    "velocity": 0.9763779527559056,
                    "duration": 0.141448974609375
                },
                {
                    "name": "A2",
                    "midi": 45,
                    "time": 163.377685546875,
                    "velocity": 1,
                    "duration": 0.211944580078125
                },
                {
                    "name": "D4",
                    "midi": 62,
                    "time": 163.45458984375,
                    "velocity": 0.9763779527559056,
                    "duration": 0.140533447265625
                },
                {
                    "name": "E4",
                    "midi": 64,
                    "time": 163.6083984375,
                    "velocity": 0.9763779527559056,
                    "duration": 0.1409912109375
                },
                {
                    "name": "E2",
                    "midi": 40,
                    "time": 163.6083984375,
                    "velocity": 0.968503937007874,
                    "duration": 0.211944580078125
                },
                {
                    "name": "C#5",
                    "midi": 73,
                    "time": 163.76220703125,
                    "velocity": 0.9763779527559056,
                    "duration": 0.14190673828125
                },
                {
                    "name": "A2",
                    "midi": 45,
                    "time": 163.839111328125,
                    "velocity": 0.9763779527559056,
                    "duration": 0.217437744140625
                },
                {
                    "name": "E4",
                    "midi": 64,
                    "time": 163.91693115234375,
                    "velocity": 0.9763779527559056,
                    "duration": 0.14556884765625
                },
                {
                    "name": "F#4",
                    "midi": 66,
                    "time": 164.0753173828125,
                    "velocity": 0.9763779527559056,
                    "duration": 0.145111083984375
                },
                {
                    "name": "D2",
                    "midi": 38,
                    "time": 164.0753173828125,
                    "velocity": 0.9606299212598425,
                    "duration": 0.216064453125
                },
                {
                    "name": "D5",
                    "midi": 74,
                    "time": 164.23370361328125,
                    "velocity": 0.9763779527559056,
                    "duration": 0.14007568359375
                },
                {
                    "name": "A2",
                    "midi": 45,
                    "time": 164.31015014648438,
                    "velocity": 0.9763779527559056,
                    "duration": 0.208282470703125
                },
                {
                    "name": "F#4",
                    "midi": 66,
                    "time": 164.3865966796875,
                    "velocity": 0.9763779527559056,
                    "duration": 0.137786865234375
                },
                {
                    "name": "E4",
                    "midi": 64,
                    "time": 164.53720092773438,
                    "velocity": 0.9763779527559056,
                    "duration": 0.13824462890625
                },
                {
                    "name": "A1",
                    "midi": 33,
                    "time": 164.53720092773438,
                    "velocity": 0.937007874015748,
                    "duration": 0.208740234375
                },
                {
                    "name": "C#5",
                    "midi": 73,
                    "time": 164.68826293945312,
                    "velocity": 0.9763779527559056,
                    "duration": 0.140533447265625
                },
                {
                    "name": "A2",
                    "midi": 45,
                    "time": 164.76470947265625,
                    "velocity": 0.9763779527559056,
                    "duration": 0.216522216796875
                },
                {
                    "name": "E4",
                    "midi": 64,
                    "time": 164.84161376953125,
                    "velocity": 0.9763779527559056,
                    "duration": 0.14556884765625
                },
                {
                    "name": "E4",
                    "midi": 64,
                    "time": 165,
                    "velocity": 1,
                    "duration": 0.086517333984375
                },
                {
                    "name": "D2",
                    "midi": 38,
                    "time": 165,
                    "velocity": 0.984251968503937,
                    "duration": 0.232086181640625
                },
                {
                    "name": "D4",
                    "midi": 62,
                    "time": 165.07736206054688,
                    "velocity": 0.9763779527559056,
                    "duration": 0.086517333984375
                },
                {
                    "name": "E4",
                    "midi": 64,
                    "time": 165.15472412109375,
                    "velocity": 0.9763779527559056,
                    "duration": 0.086517333984375
                },
                {
                    "name": "D4",
                    "midi": 62,
                    "time": 165.23208618164062,
                    "velocity": 0.937007874015748,
                    "duration": 0.705413818359375
                },
                {
                    "name": "A2",
                    "midi": 45,
                    "time": 165.2508544921875,
                    "velocity": 0.9763779527559056,
                    "duration": 0.2069091796875
                },
                {
                    "name": "D3",
                    "midi": 50,
                    "time": 165.47653198242188,
                    "velocity": 0.9763779527559056,
                    "duration": 0.207366943359375
                },
                {
                    "name": "E3",
                    "midi": 52,
                    "time": 165.70266723632812,
                    "velocity": 0.9763779527559056,
                    "duration": 0.216064453125
                },
                {
                    "name": "F#5",
                    "midi": 78,
                    "time": 165.9375,
                    "velocity": 1,
                    "duration": 0.1611328125
                },
                {
                    "name": "D3",
                    "midi": 50,
                    "time": 165.9375,
                    "velocity": 1,
                    "duration": 0.232086181640625
                },
                {
                    "name": "A5",
                    "midi": 81,
                    "time": 166.11190795898438,
                    "velocity": 0.9763779527559056,
                    "duration": 0.13916015625
                },
                {
                    "name": "F#3",
                    "midi": 54,
                    "time": 166.1883544921875,
                    "velocity": 0.9763779527559056,
                    "duration": 0.2069091796875
                },
                {
                    "name": "D5",
                    "midi": 74,
                    "time": 166.26434326171875,
                    "velocity": 0.9763779527559056,
                    "duration": 0.136871337890625
                },
                {
                    "name": "F#5",
                    "midi": 78,
                    "time": 166.41403198242188,
                    "velocity": 0.9763779527559056,
                    "duration": 0.136871337890625
                },
                {
                    "name": "A3",
                    "midi": 57,
                    "time": 166.41403198242188,
                    "velocity": 0.9763779527559056,
                    "duration": 0.207366943359375
                },
                {
                    "name": "A5",
                    "midi": 81,
                    "time": 166.563720703125,
                    "velocity": 0.9763779527559056,
                    "duration": 0.14007568359375
                },
                {
                    "name": "D4",
                    "midi": 62,
                    "time": 166.64016723632812,
                    "velocity": 0.9763779527559056,
                    "duration": 0.216064453125
                },
                {
                    "name": "D5",
                    "midi": 74,
                    "time": 166.71661376953125,
                    "velocity": 0.9763779527559056,
                    "duration": 0.14556884765625
                },
                {
                    "name": "D5",
                    "midi": 74,
                    "time": 166.875,
                    "velocity": 1,
                    "duration": 0.161590576171875
                },
                {
                    "name": "A4",
                    "midi": 69,
                    "time": 166.875,
                    "velocity": 1,
                    "duration": 0.949859619140625
                },
                {
                    "name": "E5",
                    "midi": 76,
                    "time": 167.04986572265625,
                    "velocity": 0.9763779527559056,
                    "duration": 0.141448974609375
                },
                {
                    "name": "D5",
                    "midi": 74,
                    "time": 167.20458984375,
                    "velocity": 0.9763779527559056,
                    "duration": 0.140533447265625
                },
                {
                    "name": "C#5",
                    "midi": 73,
                    "time": 167.3583984375,
                    "velocity": 0.9763779527559056,
                    "duration": 0.1409912109375
                },
                {
                    "name": "D5",
                    "midi": 74,
                    "time": 167.51220703125,
                    "velocity": 0.9763779527559056,
                    "duration": 0.14190673828125
                },
                {
                    "name": "B4",
                    "midi": 71,
                    "time": 167.66693115234375,
                    "velocity": 0.9763779527559056,
                    "duration": 0.14556884765625
                },
                {
                    "name": "C#5",
                    "midi": 73,
                    "time": 167.8253173828125,
                    "velocity": 0.9763779527559056,
                    "duration": 0.145111083984375
                },
                {
                    "name": "A4",
                    "midi": 69,
                    "time": 167.8253173828125,
                    "velocity": 0.9763779527559056,
                    "duration": 0.216064453125
                },
                {
                    "name": "A5",
                    "midi": 81,
                    "time": 167.98370361328125,
                    "velocity": 0.9763779527559056,
                    "duration": 0.14007568359375
                },
                {
                    "name": "E4",
                    "midi": 64,
                    "time": 168.06015014648438,
                    "velocity": 0.9763779527559056,
                    "duration": 0.208282470703125
                },
                {
                    "name": "C#5",
                    "midi": 73,
                    "time": 168.1365966796875,
                    "velocity": 0.9763779527559056,
                    "duration": 0.137786865234375
                },
                {
                    "name": "E5",
                    "midi": 76,
                    "time": 168.28720092773438,
                    "velocity": 0.9763779527559056,
                    "duration": 0.13824462890625
                },
                {
                    "name": "C#4",
                    "midi": 61,
                    "time": 168.28720092773438,
                    "velocity": 0.9763779527559056,
                    "duration": 0.208740234375
                },
                {
                    "name": "A5",
                    "midi": 81,
                    "time": 168.43826293945312,
                    "velocity": 0.9763779527559056,
                    "duration": 0.140533447265625
                },
                {
                    "name": "A3",
                    "midi": 57,
                    "time": 168.51470947265625,
                    "velocity": 0.9763779527559056,
                    "duration": 0.216522216796875
                },
                {
                    "name": "E5",
                    "midi": 76,
                    "time": 168.59161376953125,
                    "velocity": 0.9763779527559056,
                    "duration": 0.14556884765625
                },
                {
                    "name": "F#5",
                    "midi": 78,
                    "time": 168.75,
                    "velocity": 1,
                    "duration": 0.161590576171875
                },
                {
                    "name": "D4",
                    "midi": 62,
                    "time": 168.75,
                    "velocity": 1,
                    "duration": 0.949859619140625
                },
                {
                    "name": "G5",
                    "midi": 79,
                    "time": 168.92486572265625,
                    "velocity": 0.9763779527559056,
                    "duration": 0.141448974609375
                },
                {
                    "name": "E5",
                    "midi": 76,
                    "time": 169.07958984375,
                    "velocity": 0.9763779527559056,
                    "duration": 0.140533447265625
                },
                {
                    "name": "F#5",
                    "midi": 78,
                    "time": 169.2333984375,
                    "velocity": 0.9763779527559056,
                    "duration": 0.1409912109375
                },
                {
                    "name": "G5",
                    "midi": 79,
                    "time": 169.38720703125,
                    "velocity": 0.9763779527559056,
                    "duration": 0.14190673828125
                },
                {
                    "name": "E5",
                    "midi": 76,
                    "time": 169.54193115234375,
                    "velocity": 0.9763779527559056,
                    "duration": 0.14556884765625
                },
                {
                    "name": "F#5",
                    "midi": 78,
                    "time": 169.7003173828125,
                    "velocity": 0.9763779527559056,
                    "duration": 0.145111083984375
                },
                {
                    "name": "D3",
                    "midi": 50,
                    "time": 169.7003173828125,
                    "velocity": 0.9763779527559056,
                    "duration": 0.216064453125
                },
                {
                    "name": "A5",
                    "midi": 81,
                    "time": 169.85870361328125,
                    "velocity": 0.9763779527559056,
                    "duration": 0.14007568359375
                },
                {
                    "name": "F#3",
                    "midi": 54,
                    "time": 169.93515014648438,
                    "velocity": 0.9763779527559056,
                    "duration": 0.208282470703125
                },
                {
                    "name": "D5",
                    "midi": 74,
                    "time": 170.0115966796875,
                    "velocity": 0.9763779527559056,
                    "duration": 0.137786865234375
                },
                {
                    "name": "F#5",
                    "midi": 78,
                    "time": 170.16220092773438,
                    "velocity": 0.9763779527559056,
                    "duration": 0.13824462890625
                },
                {
                    "name": "A3",
                    "midi": 57,
                    "time": 170.16220092773438,
                    "velocity": 0.9763779527559056,
                    "duration": 0.208740234375
                },
                {
                    "name": "A5",
                    "midi": 81,
                    "time": 170.31326293945312,
                    "velocity": 0.9763779527559056,
                    "duration": 0.140533447265625
                },
                {
                    "name": "D4",
                    "midi": 62,
                    "time": 170.38970947265625,
                    "velocity": 0.9763779527559056,
                    "duration": 0.216522216796875
                },
                {
                    "name": "D5",
                    "midi": 74,
                    "time": 170.46661376953125,
                    "velocity": 0.9763779527559056,
                    "duration": 0.14556884765625
                },
                {
                    "name": "D5",
                    "midi": 74,
                    "time": 170.625,
                    "velocity": 1,
                    "duration": 0.161590576171875
                },
                {
                    "name": "A4",
                    "midi": 69,
                    "time": 170.625,
                    "velocity": 1,
                    "duration": 0.949859619140625
                },
                {
                    "name": "E5",
                    "midi": 76,
                    "time": 170.79986572265625,
                    "velocity": 0.9763779527559056,
                    "duration": 0.141448974609375
                },
                {
                    "name": "D5",
                    "midi": 74,
                    "time": 170.95458984375,
                    "velocity": 0.9763779527559056,
                    "duration": 0.140533447265625
                },
                {
                    "name": "C#5",
                    "midi": 73,
                    "time": 171.1083984375,
                    "velocity": 0.9763779527559056,
                    "duration": 0.1409912109375
                },
                {
                    "name": "D5",
                    "midi": 74,
                    "time": 171.26220703125,
                    "velocity": 0.9763779527559056,
                    "duration": 0.14190673828125
                },
                {
                    "name": "B4",
                    "midi": 71,
                    "time": 171.41693115234375,
                    "velocity": 0.9763779527559056,
                    "duration": 0.14556884765625
                },
                {
                    "name": "C#5",
                    "midi": 73,
                    "time": 171.5753173828125,
                    "velocity": 0.9763779527559056,
                    "duration": 0.145111083984375
                },
                {
                    "name": "A4",
                    "midi": 69,
                    "time": 171.5753173828125,
                    "velocity": 0.9763779527559056,
                    "duration": 0.216064453125
                },
                {
                    "name": "A5",
                    "midi": 81,
                    "time": 171.73370361328125,
                    "velocity": 0.9763779527559056,
                    "duration": 0.14007568359375
                },
                {
                    "name": "E4",
                    "midi": 64,
                    "time": 171.81015014648438,
                    "velocity": 0.9763779527559056,
                    "duration": 0.208282470703125
                },
                {
                    "name": "C#5",
                    "midi": 73,
                    "time": 171.8865966796875,
                    "velocity": 0.9763779527559056,
                    "duration": 0.137786865234375
                },
                {
                    "name": "E5",
                    "midi": 76,
                    "time": 172.03720092773438,
                    "velocity": 0.9763779527559056,
                    "duration": 0.13824462890625
                },
                {
                    "name": "C#4",
                    "midi": 61,
                    "time": 172.03720092773438,
                    "velocity": 0.9763779527559056,
                    "duration": 0.208740234375
                },
                {
                    "name": "A5",
                    "midi": 81,
                    "time": 172.18826293945312,
                    "velocity": 0.9763779527559056,
                    "duration": 0.140533447265625
                },
                {
                    "name": "A3",
                    "midi": 57,
                    "time": 172.26470947265625,
                    "velocity": 0.9763779527559056,
                    "duration": 0.216522216796875
                },
                {
                    "name": "E5",
                    "midi": 76,
                    "time": 172.34161376953125,
                    "velocity": 0.9763779527559056,
                    "duration": 0.14556884765625
                },
                {
                    "name": "F#5",
                    "midi": 78,
                    "time": 172.5,
                    "velocity": 1,
                    "duration": 0.161590576171875
                },
                {
                    "name": "D4",
                    "midi": 62,
                    "time": 172.5,
                    "velocity": 1,
                    "duration": 0.949859619140625
                },
                {
                    "name": "G5",
                    "midi": 79,
                    "time": 172.67486572265625,
                    "velocity": 0.9763779527559056,
                    "duration": 0.141448974609375
                },
                {
                    "name": "E5",
                    "midi": 76,
                    "time": 172.82958984375,
                    "velocity": 0.9763779527559056,
                    "duration": 0.140533447265625
                },
                {
                    "name": "F#5",
                    "midi": 78,
                    "time": 172.9833984375,
                    "velocity": 0.9763779527559056,
                    "duration": 0.1409912109375
                },
                {
                    "name": "G5",
                    "midi": 79,
                    "time": 173.13720703125,
                    "velocity": 0.9763779527559056,
                    "duration": 0.14190673828125
                },
                {
                    "name": "E5",
                    "midi": 76,
                    "time": 173.29193115234375,
                    "velocity": 0.9763779527559056,
                    "duration": 0.14556884765625
                },
                {
                    "name": "F#5",
                    "midi": 78,
                    "time": 173.4503173828125,
                    "velocity": 0.9763779527559056,
                    "duration": 0.145111083984375
                },
                {
                    "name": "D3",
                    "midi": 50,
                    "time": 173.4503173828125,
                    "velocity": 0.8818897637795275,
                    "duration": 0.2435302734375
                },
                {
                    "name": "A5",
                    "midi": 81,
                    "time": 173.60870361328125,
                    "velocity": 0.9763779527559056,
                    "duration": 0.14007568359375
                },
                {
                    "name": "F#3",
                    "midi": 54,
                    "time": 173.68515014648438,
                    "velocity": 0.8818897637795275,
                    "duration": 0.235748291015625
                },
                {
                    "name": "D5",
                    "midi": 74,
                    "time": 173.7615966796875,
                    "velocity": 0.9763779527559056,
                    "duration": 0.137786865234375
                },
                {
                    "name": "F#5",
                    "midi": 78,
                    "time": 173.91220092773438,
                    "velocity": 0.9763779527559056,
                    "duration": 0.13824462890625
                },
                {
                    "name": "A3",
                    "midi": 57,
                    "time": 173.91220092773438,
                    "velocity": 0.8818897637795275,
                    "duration": 0.2362060546875
                },
                {
                    "name": "A5",
                    "midi": 81,
                    "time": 174.06326293945312,
                    "velocity": 0.9763779527559056,
                    "duration": 0.140533447265625
                },
                {
                    "name": "D4",
                    "midi": 62,
                    "time": 174.13970947265625,
                    "velocity": 0.8818897637795275,
                    "duration": 0.243988037109375
                },
                {
                    "name": "D5",
                    "midi": 74,
                    "time": 174.21661376953125,
                    "velocity": 0.9763779527559056,
                    "duration": 0.14556884765625
                },
                {
                    "name": "E5",
                    "midi": 76,
                    "time": 174.375,
                    "velocity": 1,
                    "duration": 0.161590576171875
                },
                {
                    "name": "C#4",
                    "midi": 61,
                    "time": 174.375,
                    "velocity": 0.9291338582677166,
                    "duration": 0.261383056640625
                },
                {
                    "name": "A5",
                    "midi": 81,
                    "time": 174.54986572265625,
                    "velocity": 0.9763779527559056,
                    "duration": 0.141448974609375
                },
                {
                    "name": "E4",
                    "midi": 64,
                    "time": 174.627685546875,
                    "velocity": 0.9133858267716536,
                    "duration": 0.239410400390625
                },
                {
                    "name": "C#5",
                    "midi": 73,
                    "time": 174.70458984375,
                    "velocity": 0.9763779527559056,
                    "duration": 0.140533447265625
                },
                {
                    "name": "E5",
                    "midi": 76,
                    "time": 174.8583984375,
                    "velocity": 0.9763779527559056,
                    "duration": 0.1409912109375
                },
                {
                    "name": "C#4",
                    "midi": 61,
                    "time": 174.8583984375,
                    "velocity": 0.8818897637795275,
                    "duration": 0.239410400390625
                },
                {
                    "name": "A5",
                    "midi": 81,
                    "time": 175.01220703125,
                    "velocity": 0.9763779527559056,
                    "duration": 0.14190673828125
                },
                {
                    "name": "A3",
                    "midi": 57,
                    "time": 175.089111328125,
                    "velocity": 0.8818897637795275,
                    "duration": 0.244903564453125
                },
                {
                    "name": "C#5",
                    "midi": 73,
                    "time": 175.16693115234375,
                    "velocity": 0.9763779527559056,
                    "duration": 0.14556884765625
                },
                {
                    "name": "D5",
                    "midi": 74,
                    "time": 175.3253173828125,
                    "velocity": 0.9763779527559056,
                    "duration": 0.145111083984375
                },
                {
                    "name": "B3",
                    "midi": 59,
                    "time": 175.3253173828125,
                    "velocity": 0.8818897637795275,
                    "duration": 0.2435302734375
                },
                {
                    "name": "A5",
                    "midi": 81,
                    "time": 175.48370361328125,
                    "velocity": 0.9763779527559056,
                    "duration": 0.14007568359375
                },
                {
                    "name": "D4",
                    "midi": 62,
                    "time": 175.56015014648438,
                    "velocity": 0.8818897637795275,
                    "duration": 0.235748291015625
                },
                {
                    "name": "B4",
                    "midi": 71,
                    "time": 175.6365966796875,
                    "velocity": 0.9763779527559056,
                    "duration": 0.137786865234375
                },
                {
                    "name": "D5",
                    "midi": 74,
                    "time": 175.78720092773438,
                    "velocity": 0.9763779527559056,
                    "duration": 0.13824462890625
                },
                {
                    "name": "B3",
                    "midi": 59,
                    "time": 175.78720092773438,
                    "velocity": 0.8818897637795275,
                    "duration": 0.2362060546875
                },
                {
                    "name": "G#5",
                    "midi": 80,
                    "time": 175.93826293945312,
                    "velocity": 0.9763779527559056,
                    "duration": 0.140533447265625
                },
                {
                    "name": "E3",
                    "midi": 52,
                    "time": 176.01470947265625,
                    "velocity": 0.8818897637795275,
                    "duration": 0.243988037109375
                },
                {
                    "name": "B4",
                    "midi": 71,
                    "time": 176.09161376953125,
                    "velocity": 0.9763779527559056,
                    "duration": 0.14556884765625
                },
                {
                    "name": "A5",
                    "midi": 81,
                    "time": 176.25,
                    "velocity": 1,
                    "duration": 0.233917236328125
                },
                {
                    "name": "C#5",
                    "midi": 73,
                    "time": 176.25,
                    "velocity": 1,
                    "duration": 0.367584228515625
                },
                {
                    "name": "A3",
                    "midi": 57,
                    "time": 176.25,
                    "velocity": 1,
                    "duration": 0.161590576171875
                },
                {
                    "name": "A2",
                    "midi": 45,
                    "time": 176.42486572265625,
                    "velocity": 0.9763779527559056,
                    "duration": 0.141448974609375
                },
                {
                    "name": "D5",
                    "midi": 74,
                    "time": 176.57913208007812,
                    "velocity": 0.9763779527559056,
                    "duration": 0.144195556640625
                },
                {
                    "name": "A3",
                    "midi": 57,
                    "time": 176.57958984375,
                    "velocity": 0.9763779527559056,
                    "duration": 0.140533447265625
                },
                {
                    "name": "E5",
                    "midi": 76,
                    "time": 176.7333984375,
                    "velocity": 0.9763779527559056,
                    "duration": 0.05218505859375
                },
                {
                    "name": "B3",
                    "midi": 59,
                    "time": 176.7333984375,
                    "velocity": 0.9763779527559056,
                    "duration": 0.1409912109375
                },
                {
                    "name": "D5",
                    "midi": 74,
                    "time": 176.79107666015625,
                    "velocity": 0.9763779527559056,
                    "duration": 0.05218505859375
                },
                {
                    "name": "E5",
                    "midi": 76,
                    "time": 176.8487548828125,
                    "velocity": 0.9763779527559056,
                    "duration": 0.05218505859375
                },
                {
                    "name": "B2",
                    "midi": 47,
                    "time": 176.88720703125,
                    "velocity": 0.9763779527559056,
                    "duration": 0.14190673828125
                },
                {
                    "name": "D5",
                    "midi": 74,
                    "time": 176.90643310546875,
                    "velocity": 0.9763779527559056,
                    "duration": 0.05218505859375
                },
                {
                    "name": "E5",
                    "midi": 76,
                    "time": 176.964111328125,
                    "velocity": 0.9763779527559056,
                    "duration": 0.052642822265625
                },
                {
                    "name": "D5",
                    "midi": 74,
                    "time": 177.02224731445312,
                    "velocity": 0.9763779527559056,
                    "duration": 0.052642822265625
                },
                {
                    "name": "B3",
                    "midi": 59,
                    "time": 177.04193115234375,
                    "velocity": 0.9763779527559056,
                    "duration": 0.14556884765625
                },
                {
                    "name": "C#5",
                    "midi": 73,
                    "time": 177.08038330078125,
                    "velocity": 0.9763779527559056,
                    "duration": 0.0531005859375
                },
                {
                    "name": "D5",
                    "midi": 74,
                    "time": 177.13897705078125,
                    "velocity": 0.9763779527559056,
                    "duration": 0.05584716796875
                },
                {
                    "name": "E5",
                    "midi": 76,
                    "time": 177.2003173828125,
                    "velocity": 0.9763779527559056,
                    "duration": 0.145111083984375
                },
                {
                    "name": "C#4",
                    "midi": 61,
                    "time": 177.2003173828125,
                    "velocity": 0.8818897637795275,
                    "duration": 0.2435302734375
                },
                {
                    "name": "A5",
                    "midi": 81,
                    "time": 177.35870361328125,
                    "velocity": 0.9763779527559056,
                    "duration": 0.14007568359375
                },
                {
                    "name": "E4",
                    "midi": 64,
                    "time": 177.43515014648438,
                    "velocity": 0.8818897637795275,
                    "duration": 0.235748291015625
                },
                {
                    "name": "A4",
                    "midi": 69,
                    "time": 177.5115966796875,
                    "velocity": 0.9763779527559056,
                    "duration": 0.137786865234375
                },
                {
                    "name": "A4",
                    "midi": 69,
                    "time": 177.66220092773438,
                    "velocity": 0.9763779527559056,
                    "duration": 0.13824462890625
                },
                {
                    "name": "C#4",
                    "midi": 61,
                    "time": 177.66220092773438,
                    "velocity": 0.8818897637795275,
                    "duration": 0.2362060546875
                },
                {
                    "name": "A5",
                    "midi": 81,
                    "time": 177.81326293945312,
                    "velocity": 0.9763779527559056,
                    "duration": 0.140533447265625
                },
                {
                    "name": "A3",
                    "midi": 57,
                    "time": 177.88970947265625,
                    "velocity": 0.8818897637795275,
                    "duration": 0.243988037109375
                },
                {
                    "name": "A4",
                    "midi": 69,
                    "time": 177.96661376953125,
                    "velocity": 0.9763779527559056,
                    "duration": 0.14556884765625
                },
                {
                    "name": "A4",
                    "midi": 69,
                    "time": 178.125,
                    "velocity": 1,
                    "duration": 0.161590576171875
                },
                {
                    "name": "C#3",
                    "midi": 49,
                    "time": 178.125,
                    "velocity": 0.9291338582677166,
                    "duration": 0.261383056640625
                },
                {
                    "name": "A5",
                    "midi": 81,
                    "time": 178.29986572265625,
                    "velocity": 0.9763779527559056,
                    "duration": 0.141448974609375
                },
                {
                    "name": "A2",
                    "midi": 45,
                    "time": 178.377685546875,
                    "velocity": 0.9133858267716536,
                    "duration": 0.239410400390625
                },
                {
                    "name": "A4",
                    "midi": 69,
                    "time": 178.45458984375,
                    "velocity": 0.9763779527559056,
                    "duration": 0.140533447265625
                },
                {
                    "name": "B4",
                    "midi": 71,
                    "time": 178.6083984375,
                    "velocity": 0.9763779527559056,
                    "duration": 0.1409912109375
                },
                {
                    "name": "E3",
                    "midi": 52,
                    "time": 178.6083984375,
                    "velocity": 0.8818897637795275,
                    "duration": 0.239410400390625
                },
                {
                    "name": "G#5",
                    "midi": 80,
                    "time": 178.76220703125,
                    "velocity": 0.9763779527559056,
                    "duration": 0.14190673828125
                },
                {
                    "name": "E2",
                    "midi": 40,
                    "time": 178.839111328125,
                    "velocity": 0.8740157480314961,
                    "duration": 0.244903564453125
                },
                {
                    "name": "B4",
                    "midi": 71,
                    "time": 178.91693115234375,
                    "velocity": 0.9763779527559056,
                    "duration": 0.14556884765625
                },
                {
                    "name": "C#5",
                    "midi": 73,
                    "time": 179.0753173828125,
                    "velocity": 0.9763779527559056,
                    "duration": 0.145111083984375
                },
                {
                    "name": "A2",
                    "midi": 45,
                    "time": 179.0753173828125,
                    "velocity": 0.8818897637795275,
                    "duration": 0.2435302734375
                },
                {
                    "name": "A5",
                    "midi": 81,
                    "time": 179.23370361328125,
                    "velocity": 0.9763779527559056,
                    "duration": 0.14007568359375
                },
                {
                    "name": "A3",
                    "midi": 57,
                    "time": 179.31015014648438,
                    "velocity": 0.8818897637795275,
                    "duration": 0.235748291015625
                },
                {
                    "name": "C#5",
                    "midi": 73,
                    "time": 179.3865966796875,
                    "velocity": 0.9763779527559056,
                    "duration": 0.137786865234375
                },
                {
                    "name": "A3",
                    "midi": 57,
                    "time": 179.53125,
                    "velocity": 0.9763779527559056,
                    "duration": 0.061798095703125
                },
                {
                    "name": "D5",
                    "midi": 74,
                    "time": 179.53720092773438,
                    "velocity": 0.9763779527559056,
                    "duration": 0.13824462890625
                },
                {
                    "name": "G#3",
                    "midi": 56,
                    "time": 179.58663940429688,
                    "velocity": 0.9763779527559056,
                    "duration": 0.061798095703125
                },
                {
                    "name": "A3",
                    "midi": 57,
                    "time": 179.64202880859375,
                    "velocity": 0.9763779527559056,
                    "duration": 0.061798095703125
                },
                {
                    "name": "E5",
                    "midi": 76,
                    "time": 179.68826293945312,
                    "velocity": 0.9763779527559056,
                    "duration": 0.140533447265625
                },
                {
                    "name": "G#3",
                    "midi": 56,
                    "time": 179.69741821289062,
                    "velocity": 0.937007874015748,
                    "duration": 0.06317138671875
                },
                {
                    "name": "A3",
                    "midi": 57,
                    "time": 179.76470947265625,
                    "velocity": 0.8818897637795275,
                    "duration": 0.243988037109375
                },
                {
                    "name": "C#5",
                    "midi": 73,
                    "time": 179.84161376953125,
                    "velocity": 0.9763779527559056,
                    "duration": 0.14556884765625
                },
                {
                    "name": "C#5",
                    "midi": 73,
                    "time": 180,
                    "velocity": 1,
                    "duration": 0.0860595703125
                },
                {
                    "name": "E3",
                    "midi": 52,
                    "time": 180,
                    "velocity": 1,
                    "duration": 0.161590576171875
                },
                {
                    "name": "B4",
                    "midi": 71,
                    "time": 180.076904296875,
                    "velocity": 0.9763779527559056,
                    "duration": 0.0860595703125
                },
                {
                    "name": "C#5",
                    "midi": 73,
                    "time": 180.15380859375,
                    "velocity": 0.9763779527559056,
                    "duration": 0.0860595703125
                },
                {
                    "name": "E2",
                    "midi": 40,
                    "time": 180.17486572265625,
                    "velocity": 0.968503937007874,
                    "duration": 0.141448974609375
                },
                {
                    "name": "B4",
                    "midi": 71,
                    "time": 180.230712890625,
                    "velocity": 0.937007874015748,
                    "duration": 0.706787109375
                },
                {
                    "name": "E3",
                    "midi": 52,
                    "time": 180.32958984375,
                    "velocity": 0.9763779527559056,
                    "duration": 0.140533447265625
                },
                {
                    "name": "F#3",
                    "midi": 54,
                    "time": 180.4833984375,
                    "velocity": 0.9763779527559056,
                    "duration": 0.1409912109375
                },
                {
                    "name": "F#2",
                    "midi": 42,
                    "time": 180.63720703125,
                    "velocity": 0.968503937007874,
                    "duration": 0.14190673828125
                },
                {
                    "name": "F#3",
                    "midi": 54,
                    "time": 180.79193115234375,
                    "velocity": 0.9763779527559056,
                    "duration": 0.14556884765625
                },
                {
                    "name": "E4",
                    "midi": 64,
                    "time": 180.9503173828125,
                    "velocity": 0.9763779527559056,
                    "duration": 0.145111083984375
                },
                {
                    "name": "G#3",
                    "midi": 56,
                    "time": 180.9503173828125,
                    "velocity": 0.9763779527559056,
                    "duration": 0.46142578125
                },
                {
                    "name": "E5",
                    "midi": 76,
                    "time": 181.10870361328125,
                    "velocity": 0.9763779527559056,
                    "duration": 0.14007568359375
                },
                {
                    "name": "E4",
                    "midi": 64,
                    "time": 181.2615966796875,
                    "velocity": 0.9763779527559056,
                    "duration": 0.137786865234375
                },
                {
                    "name": "E4",
                    "midi": 64,
                    "time": 181.41220092773438,
                    "velocity": 0.9763779527559056,
                    "duration": 0.13824462890625
                },
                {
                    "name": "G#2",
                    "midi": 44,
                    "time": 181.41220092773438,
                    "velocity": 0.9763779527559056,
                    "duration": 0.46234130859375
                },
                {
                    "name": "E5",
                    "midi": 76,
                    "time": 181.56326293945312,
                    "velocity": 0.9763779527559056,
                    "duration": 0.140533447265625
                },
                {
                    "name": "E4",
                    "midi": 64,
                    "time": 181.71661376953125,
                    "velocity": 0.9763779527559056,
                    "duration": 0.14556884765625
                },
                {
                    "name": "F#4",
                    "midi": 66,
                    "time": 181.875,
                    "velocity": 1,
                    "duration": 0.161590576171875
                },
                {
                    "name": "A2",
                    "midi": 45,
                    "time": 181.875,
                    "velocity": 1,
                    "duration": 0.482940673828125
                },
                {
                    "name": "E5",
                    "midi": 76,
                    "time": 182.04986572265625,
                    "velocity": 0.9763779527559056,
                    "duration": 0.141448974609375
                },
                {
                    "name": "F#4",
                    "midi": 66,
                    "time": 182.20458984375,
                    "velocity": 0.9763779527559056,
                    "duration": 0.140533447265625
                },
                {
                    "name": "G#4",
                    "midi": 68,
                    "time": 182.3583984375,
                    "velocity": 0.9763779527559056,
                    "duration": 0.1409912109375
                },
                {
                    "name": "B2",
                    "midi": 47,
                    "time": 182.3583984375,
                    "velocity": 0.9763779527559056,
                    "duration": 0.466461181640625
                },
                {
                    "name": "E5",
                    "midi": 76,
                    "time": 182.51220703125,
                    "velocity": 0.9763779527559056,
                    "duration": 0.14190673828125
                },
                {
                    "name": "G#4",
                    "midi": 68,
                    "time": 182.66693115234375,
                    "velocity": 0.9763779527559056,
                    "duration": 0.14556884765625
                },
                {
                    "name": "A4",
                    "midi": 69,
                    "time": 182.8253173828125,
                    "velocity": 0.9763779527559056,
                    "duration": 0.145111083984375
                },
                {
                    "name": "C#3",
                    "midi": 49,
                    "time": 182.8253173828125,
                    "velocity": 0.9763779527559056,
                    "duration": 0.46142578125
                },
                {
                    "name": "E5",
                    "midi": 76,
                    "time": 182.98370361328125,
                    "velocity": 0.9763779527559056,
                    "duration": 0.14007568359375
                },
                {
                    "name": "A4",
                    "midi": 69,
                    "time": 183.1365966796875,
                    "velocity": 0.9763779527559056,
                    "duration": 0.137786865234375
                },
                {
                    "name": "B4",
                    "midi": 71,
                    "time": 183.28720092773438,
                    "velocity": 0.9763779527559056,
                    "duration": 0.13824462890625
                },
                {
                    "name": "A2",
                    "midi": 45,
                    "time": 183.28720092773438,
                    "velocity": 0.9763779527559056,
                    "duration": 0.051727294921875
                },
                {
                    "name": "G#2",
                    "midi": 44,
                    "time": 183.34396362304688,
                    "velocity": 0.9763779527559056,
                    "duration": 0.05126953125
                },
                {
                    "name": "A2",
                    "midi": 45,
                    "time": 183.4002685546875,
                    "velocity": 0.9763779527559056,
                    "duration": 0.051727294921875
                },
                {
                    "name": "E5",
                    "midi": 76,
                    "time": 183.43826293945312,
                    "velocity": 0.9763779527559056,
                    "duration": 0.140533447265625
                },
                {
                    "name": "G#2",
                    "midi": 44,
                    "time": 183.45703125,
                    "velocity": 0.9763779527559056,
                    "duration": 0.052642822265625
                },
                {
                    "name": "A2",
                    "midi": 45,
                    "time": 183.51470947265625,
                    "velocity": 0.9763779527559056,
                    "duration": 0.05218505859375
                },
                {
                    "name": "G#2",
                    "midi": 44,
                    "time": 183.57192993164062,
                    "velocity": 0.9763779527559056,
                    "duration": 0.0531005859375
                },
                {
                    "name": "B4",
                    "midi": 71,
                    "time": 183.59161376953125,
                    "velocity": 0.9763779527559056,
                    "duration": 0.14556884765625
                },
                {
                    "name": "F#2",
                    "midi": 42,
                    "time": 183.63006591796875,
                    "velocity": 0.968503937007874,
                    "duration": 0.0531005859375
                },
                {
                    "name": "G#2",
                    "midi": 44,
                    "time": 183.68820190429688,
                    "velocity": 0.9763779527559056,
                    "duration": 0.0567626953125
                },
                {
                    "name": "D5",
                    "midi": 74,
                    "time": 183.75,
                    "velocity": 1,
                    "duration": 0.0860595703125
                },
                {
                    "name": "A2",
                    "midi": 45,
                    "time": 183.75,
                    "velocity": 1,
                    "duration": 0.482940673828125
                },
                {
                    "name": "C#5",
                    "midi": 73,
                    "time": 183.826904296875,
                    "velocity": 0.9763779527559056,
                    "duration": 0.0860595703125
                },
                {
                    "name": "D5",
                    "midi": 74,
                    "time": 183.90380859375,
                    "velocity": 0.9763779527559056,
                    "duration": 0.0860595703125
                },
                {
                    "name": "C#5",
                    "midi": 73,
                    "time": 183.980712890625,
                    "velocity": 0.937007874015748,
                    "duration": 0.111236572265625
                },
                {
                    "name": "D5",
                    "midi": 74,
                    "time": 184.1180419921875,
                    "velocity": 0.9763779527559056,
                    "duration": 0.10528564453125
                },
                {
                    "name": "E5",
                    "midi": 76,
                    "time": 184.2333984375,
                    "velocity": 0.9763779527559056,
                    "duration": 0.05218505859375
                },
                {
                    "name": "F#2",
                    "midi": 42,
                    "time": 184.2333984375,
                    "velocity": 0.968503937007874,
                    "duration": 0.466461181640625
                },
                {
                    "name": "D5",
                    "midi": 74,
                    "time": 184.29107666015625,
                    "velocity": 0.9763779527559056,
                    "duration": 0.05218505859375
                },
                {
                    "name": "E5",
                    "midi": 76,
                    "time": 184.3487548828125,
                    "velocity": 0.9763779527559056,
                    "duration": 0.05218505859375
                },
                {
                    "name": "D5",
                    "midi": 74,
                    "time": 184.40643310546875,
                    "velocity": 0.9763779527559056,
                    "duration": 0.05218505859375
                },
                {
                    "name": "E5",
                    "midi": 76,
                    "time": 184.464111328125,
                    "velocity": 0.9763779527559056,
                    "duration": 0.052642822265625
                },
                {
                    "name": "D5",
                    "midi": 74,
                    "time": 184.52224731445312,
                    "velocity": 0.9763779527559056,
                    "duration": 0.052642822265625
                },
                {
                    "name": "C#5",
                    "midi": 73,
                    "time": 184.58038330078125,
                    "velocity": 0.9763779527559056,
                    "duration": 0.0531005859375
                },
                {
                    "name": "D5",
                    "midi": 74,
                    "time": 184.63897705078125,
                    "velocity": 0.9763779527559056,
                    "duration": 0.05584716796875
                },
                {
                    "name": "E5",
                    "midi": 76,
                    "time": 184.7003173828125,
                    "velocity": 0.9763779527559056,
                    "duration": 0.145111083984375
                },
                {
                    "name": "C#2",
                    "midi": 37,
                    "time": 184.7003173828125,
                    "velocity": 0.952755905511811,
                    "duration": 0.924224853515625
                },
                {
                    "name": "A5",
                    "midi": 81,
                    "time": 184.85870361328125,
                    "velocity": 0.9763779527559056,
                    "duration": 0.14007568359375
                },
                {
                    "name": "A4",
                    "midi": 69,
                    "time": 185.0115966796875,
                    "velocity": 0.9763779527559056,
                    "duration": 0.137786865234375
                },
                {
                    "name": "A4",
                    "midi": 69,
                    "time": 185.16220092773438,
                    "velocity": 0.9763779527559056,
                    "duration": 0.13824462890625
                },
                {
                    "name": "A5",
                    "midi": 81,
                    "time": 185.31326293945312,
                    "velocity": 0.9763779527559056,
                    "duration": 0.140533447265625
                },
                {
                    "name": "A4",
                    "midi": 69,
                    "time": 185.46661376953125,
                    "velocity": 0.9763779527559056,
                    "duration": 0.14556884765625
                },
                {
                    "name": "A4",
                    "midi": 69,
                    "time": 185.625,
                    "velocity": 1,
                    "duration": 0.161590576171875
                },
                {
                    "name": "C#4",
                    "midi": 61,
                    "time": 185.625,
                    "velocity": 1,
                    "duration": 0.161590576171875
                },
                {
                    "name": "A5",
                    "midi": 81,
                    "time": 185.79986572265625,
                    "velocity": 0.9763779527559056,
                    "duration": 0.141448974609375
                },
                {
                    "name": "E4",
                    "midi": 64,
                    "time": 185.79986572265625,
                    "velocity": 0.9763779527559056,
                    "duration": 0.141448974609375
                },
                {
                    "name": "A4",
                    "midi": 69,
                    "time": 185.95458984375,
                    "velocity": 0.9763779527559056,
                    "duration": 0.140533447265625
                },
                {
                    "name": "C#4",
                    "midi": 61,
                    "time": 185.95458984375,
                    "velocity": 0.9763779527559056,
                    "duration": 0.140533447265625
                },
                {
                    "name": "B4",
                    "midi": 71,
                    "time": 186.1083984375,
                    "velocity": 0.9763779527559056,
                    "duration": 0.1409912109375
                },
                {
                    "name": "D4",
                    "midi": 62,
                    "time": 186.1083984375,
                    "velocity": 0.9763779527559056,
                    "duration": 0.1409912109375
                },
                {
                    "name": "A5",
                    "midi": 81,
                    "time": 186.26220703125,
                    "velocity": 0.9763779527559056,
                    "duration": 0.14190673828125
                },
                {
                    "name": "F#4",
                    "midi": 66,
                    "time": 186.26220703125,
                    "velocity": 0.9763779527559056,
                    "duration": 0.14190673828125
                },
                {
                    "name": "B4",
                    "midi": 71,
                    "time": 186.41693115234375,
                    "velocity": 0.9763779527559056,
                    "duration": 0.14556884765625
                },
                {
                    "name": "D4",
                    "midi": 62,
                    "time": 186.41693115234375,
                    "velocity": 0.9763779527559056,
                    "duration": 0.14556884765625
                },
                {
                    "name": "C#5",
                    "midi": 73,
                    "time": 186.5753173828125,
                    "velocity": 0.9763779527559056,
                    "duration": 0.145111083984375
                },
                {
                    "name": "E4",
                    "midi": 64,
                    "time": 186.5753173828125,
                    "velocity": 0.9763779527559056,
                    "duration": 0.145111083984375
                },
                {
                    "name": "A5",
                    "midi": 81,
                    "time": 186.73370361328125,
                    "velocity": 0.9763779527559056,
                    "duration": 0.14007568359375
                },
                {
                    "name": "C#4",
                    "midi": 61,
                    "time": 186.73370361328125,
                    "velocity": 0.9763779527559056,
                    "duration": 0.14007568359375
                },
                {
                    "name": "C#5",
                    "midi": 73,
                    "time": 186.8865966796875,
                    "velocity": 0.9763779527559056,
                    "duration": 0.137786865234375
                },
                {
                    "name": "D4",
                    "midi": 62,
                    "time": 186.8865966796875,
                    "velocity": 0.9763779527559056,
                    "duration": 0.137786865234375
                },
                {
                    "name": "B4",
                    "midi": 71,
                    "time": 187.03720092773438,
                    "velocity": 0.9763779527559056,
                    "duration": 0.13824462890625
                },
                {
                    "name": "E4",
                    "midi": 64,
                    "time": 187.03720092773438,
                    "velocity": 0.9763779527559056,
                    "duration": 0.13824462890625
                },
                {
                    "name": "G#5",
                    "midi": 80,
                    "time": 187.18826293945312,
                    "velocity": 0.9763779527559056,
                    "duration": 0.140533447265625
                },
                {
                    "name": "E3",
                    "midi": 52,
                    "time": 187.18826293945312,
                    "velocity": 0.9763779527559056,
                    "duration": 0.140533447265625
                },
                {
                    "name": "B4",
                    "midi": 71,
                    "time": 187.34161376953125,
                    "velocity": 0.9763779527559056,
                    "duration": 0.14556884765625
                },
                {
                    "name": "E4",
                    "midi": 64,
                    "time": 187.34161376953125,
                    "velocity": 0.9763779527559056,
                    "duration": 0.14556884765625
                },
                {
                    "name": "B4",
                    "midi": 71,
                    "time": 187.5,
                    "velocity": 1,
                    "duration": 0.084686279296875
                },
                {
                    "name": "A3",
                    "midi": 57,
                    "time": 187.5,
                    "velocity": 1,
                    "duration": 0.161590576171875
                },
                {
                    "name": "A4",
                    "midi": 69,
                    "time": 187.57598876953125,
                    "velocity": 0.9763779527559056,
                    "duration": 0.084686279296875
                },
                {
                    "name": "B4",
                    "midi": 71,
                    "time": 187.6519775390625,
                    "velocity": 0.9763779527559056,
                    "duration": 0.084686279296875
                },
                {
                    "name": "E4",
                    "midi": 64,
                    "time": 187.67486572265625,
                    "velocity": 0.9763779527559056,
                    "duration": 0.141448974609375
                },
                {
                    "name": "A4",
                    "midi": 69,
                    "time": 187.72796630859375,
                    "velocity": 0.937007874015748,
                    "duration": 0.70953369140625
                },
                {
                    "name": "C#4",
                    "midi": 61,
                    "time": 187.82958984375,
                    "velocity": 0.9763779527559056,
                    "duration": 0.140533447265625
                },
                {
                    "name": "E4",
                    "midi": 64,
                    "time": 187.9833984375,
                    "velocity": 0.9763779527559056,
                    "duration": 0.1409912109375
                },
                {
                    "name": "C#4",
                    "midi": 61,
                    "time": 188.13720703125,
                    "velocity": 0.9763779527559056,
                    "duration": 0.14190673828125
                },
                {
                    "name": "A3",
                    "midi": 57,
                    "time": 188.29193115234375,
                    "velocity": 0.9763779527559056,
                    "duration": 0.14556884765625
                },
                {
                    "name": "A4",
                    "midi": 69,
                    "time": 188.4503173828125,
                    "velocity": 0.9763779527559056,
                    "duration": 0.145111083984375
                },
                {
                    "name": "D4",
                    "midi": 62,
                    "time": 188.4503173828125,
                    "velocity": 0.9763779527559056,
                    "duration": 0.145111083984375
                },
                {
                    "name": "F#5",
                    "midi": 78,
                    "time": 188.60870361328125,
                    "velocity": 0.9763779527559056,
                    "duration": 0.14007568359375
                },
                {
                    "name": "A3",
                    "midi": 57,
                    "time": 188.60870361328125,
                    "velocity": 0.9763779527559056,
                    "duration": 0.14007568359375
                },
                {
                    "name": "A4",
                    "midi": 69,
                    "time": 188.7615966796875,
                    "velocity": 0.9763779527559056,
                    "duration": 0.137786865234375
                },
                {
                    "name": "F#3",
                    "midi": 54,
                    "time": 188.7615966796875,
                    "velocity": 0.9763779527559056,
                    "duration": 0.137786865234375
                },
                {
                    "name": "A4",
                    "midi": 69,
                    "time": 188.91220092773438,
                    "velocity": 0.9763779527559056,
                    "duration": 0.13824462890625
                },
                {
                    "name": "D3",
                    "midi": 50,
                    "time": 188.91220092773438,
                    "velocity": 0.9763779527559056,
                    "duration": 0.13824462890625
                },
                {
                    "name": "F#5",
                    "midi": 78,
                    "time": 189.06326293945312,
                    "velocity": 0.9763779527559056,
                    "duration": 0.140533447265625
                },
                {
                    "name": "A2",
                    "midi": 45,
                    "time": 189.06326293945312,
                    "velocity": 0.9763779527559056,
                    "duration": 0.140533447265625
                },
                {
                    "name": "A4",
                    "midi": 69,
                    "time": 189.21661376953125,
                    "velocity": 0.9763779527559056,
                    "duration": 0.14556884765625
                },
                {
                    "name": "D2",
                    "midi": 38,
                    "time": 189.21661376953125,
                    "velocity": 0.9606299212598425,
                    "duration": 0.14556884765625
                },
                {
                    "name": "A4",
                    "midi": 69,
                    "time": 189.375,
                    "velocity": 1,
                    "duration": 0.161590576171875
                },
                {
                    "name": "F#4",
                    "midi": 66,
                    "time": 189.375,
                    "velocity": 1,
                    "duration": 0.161590576171875
                },
                {
                    "name": "B3",
                    "midi": 59,
                    "time": 189.375,
                    "velocity": 1,
                    "duration": 0.482940673828125
                },
                {
                    "name": "B4",
                    "midi": 71,
                    "time": 189.54986572265625,
                    "velocity": 0.9763779527559056,
                    "duration": 0.141448974609375
                },
                {
                    "name": "G4",
                    "midi": 67,
                    "time": 189.54986572265625,
                    "velocity": 0.9763779527559056,
                    "duration": 0.141448974609375
                },
                {
                    "name": "A4",
                    "midi": 69,
                    "time": 189.70458984375,
                    "velocity": 0.9763779527559056,
                    "duration": 0.140533447265625
                },
                {
                    "name": "F#4",
                    "midi": 66,
                    "time": 189.70458984375,
                    "velocity": 0.9763779527559056,
                    "duration": 0.140533447265625
                },
                {
                    "name": "G4",
                    "midi": 67,
                    "time": 189.8583984375,
                    "velocity": 0.9763779527559056,
                    "duration": 0.1409912109375
                },
                {
                    "name": "E4",
                    "midi": 64,
                    "time": 189.8583984375,
                    "velocity": 0.9763779527559056,
                    "duration": 0.1409912109375
                },
                {
                    "name": "A4",
                    "midi": 69,
                    "time": 190.01220703125,
                    "velocity": 0.9763779527559056,
                    "duration": 0.14190673828125
                },
                {
                    "name": "F#4",
                    "midi": 66,
                    "time": 190.01220703125,
                    "velocity": 0.9763779527559056,
                    "duration": 0.14190673828125
                },
                {
                    "name": "F#4",
                    "midi": 66,
                    "time": 190.16693115234375,
                    "velocity": 0.9763779527559056,
                    "duration": 0.14556884765625
                },
                {
                    "name": "D4",
                    "midi": 62,
                    "time": 190.16693115234375,
                    "velocity": 0.9763779527559056,
                    "duration": 0.14556884765625
                },
                {
                    "name": "G4",
                    "midi": 67,
                    "time": 190.3253173828125,
                    "velocity": 0.9763779527559056,
                    "duration": 0.145111083984375
                },
                {
                    "name": "E4",
                    "midi": 64,
                    "time": 190.3253173828125,
                    "velocity": 0.9763779527559056,
                    "duration": 0.145111083984375
                },
                {
                    "name": "E5",
                    "midi": 76,
                    "time": 190.48370361328125,
                    "velocity": 0.9763779527559056,
                    "duration": 0.14007568359375
                },
                {
                    "name": "B3",
                    "midi": 59,
                    "time": 190.48370361328125,
                    "velocity": 0.9763779527559056,
                    "duration": 0.14007568359375
                },
                {
                    "name": "G4",
                    "midi": 67,
                    "time": 190.6365966796875,
                    "velocity": 0.9763779527559056,
                    "duration": 0.137786865234375
                },
                {
                    "name": "G3",
                    "midi": 55,
                    "time": 190.6365966796875,
                    "velocity": 0.9763779527559056,
                    "duration": 0.137786865234375
                },
                {
                    "name": "G4",
                    "midi": 67,
                    "time": 190.78720092773438,
                    "velocity": 0.9763779527559056,
                    "duration": 0.13824462890625
                },
                {
                    "name": "E3",
                    "midi": 52,
                    "time": 190.78720092773438,
                    "velocity": 0.9763779527559056,
                    "duration": 0.13824462890625
                },
                {
                    "name": "E5",
                    "midi": 76,
                    "time": 190.93826293945312,
                    "velocity": 0.9763779527559056,
                    "duration": 0.140533447265625
                },
                {
                    "name": "B2",
                    "midi": 47,
                    "time": 190.93826293945312,
                    "velocity": 0.9763779527559056,
                    "duration": 0.140533447265625
                },
                {
                    "name": "G4",
                    "midi": 67,
                    "time": 191.09161376953125,
                    "velocity": 0.9763779527559056,
                    "duration": 0.14556884765625
                },
                {
                    "name": "E2",
                    "midi": 40,
                    "time": 191.09161376953125,
                    "velocity": 0.968503937007874,
                    "duration": 0.14556884765625
                },
                {
                    "name": "G4",
                    "midi": 67,
                    "time": 191.25,
                    "velocity": 1,
                    "duration": 0.161590576171875
                },
                {
                    "name": "E4",
                    "midi": 64,
                    "time": 191.25,
                    "velocity": 1,
                    "duration": 0.161590576171875
                },
                {
                    "name": "A3",
                    "midi": 57,
                    "time": 191.25,
                    "velocity": 1,
                    "duration": 0.482940673828125
                },
                {
                    "name": "A4",
                    "midi": 69,
                    "time": 191.42486572265625,
                    "velocity": 0.9763779527559056,
                    "duration": 0.141448974609375
                },
                {
                    "name": "F#4",
                    "midi": 66,
                    "time": 191.42486572265625,
                    "velocity": 0.9763779527559056,
                    "duration": 0.141448974609375
                },
                {
                    "name": "G4",
                    "midi": 67,
                    "time": 191.57958984375,
                    "velocity": 0.9763779527559056,
                    "duration": 0.140533447265625
                },
                {
                    "name": "E4",
                    "midi": 64,
                    "time": 191.57958984375,
                    "velocity": 0.9763779527559056,
                    "duration": 0.140533447265625
                },
                {
                    "name": "F#4",
                    "midi": 66,
                    "time": 191.7333984375,
                    "velocity": 0.9763779527559056,
                    "duration": 0.1409912109375
                },
                {
                    "name": "D4",
                    "midi": 62,
                    "time": 191.7333984375,
                    "velocity": 0.9763779527559056,
                    "duration": 0.1409912109375
                },
                {
                    "name": "G4",
                    "midi": 67,
                    "time": 191.88720703125,
                    "velocity": 0.9763779527559056,
                    "duration": 0.14190673828125
                },
                {
                    "name": "E4",
                    "midi": 64,
                    "time": 191.88720703125,
                    "velocity": 0.9763779527559056,
                    "duration": 0.14190673828125
                },
                {
                    "name": "E4",
                    "midi": 64,
                    "time": 192.04193115234375,
                    "velocity": 0.9763779527559056,
                    "duration": 0.14556884765625
                },
                {
                    "name": "C#4",
                    "midi": 61,
                    "time": 192.04193115234375,
                    "velocity": 0.9763779527559056,
                    "duration": 0.14556884765625
                },
                {
                    "name": "F#4",
                    "midi": 66,
                    "time": 192.2003173828125,
                    "velocity": 0.9763779527559056,
                    "duration": 0.145111083984375
                },
                {
                    "name": "D4",
                    "midi": 62,
                    "time": 192.2003173828125,
                    "velocity": 0.9763779527559056,
                    "duration": 0.145111083984375
                },
                {
                    "name": "D5",
                    "midi": 74,
                    "time": 192.35870361328125,
                    "velocity": 0.9763779527559056,
                    "duration": 0.14007568359375
                },
                {
                    "name": "A3",
                    "midi": 57,
                    "time": 192.35870361328125,
                    "velocity": 0.9763779527559056,
                    "duration": 0.14007568359375
                },
                {
                    "name": "F#4",
                    "midi": 66,
                    "time": 192.5115966796875,
                    "velocity": 0.9763779527559056,
                    "duration": 0.137786865234375
                },
                {
                    "name": "D3",
                    "midi": 50,
                    "time": 192.5115966796875,
                    "velocity": 0.9763779527559056,
                    "duration": 0.137786865234375
                },
                {
                    "name": "E4",
                    "midi": 64,
                    "time": 192.66220092773438,
                    "velocity": 0.9763779527559056,
                    "duration": 0.13824462890625
                },
                {
                    "name": "G3",
                    "midi": 55,
                    "time": 192.66220092773438,
                    "velocity": 0.9763779527559056,
                    "duration": 0.13824462890625
                },
                {
                    "name": "D5",
                    "midi": 74,
                    "time": 192.81326293945312,
                    "velocity": 0.9763779527559056,
                    "duration": 0.140533447265625
                },
                {
                    "name": "B3",
                    "midi": 59,
                    "time": 192.81326293945312,
                    "velocity": 0.9763779527559056,
                    "duration": 0.140533447265625
                },
                {
                    "name": "E4",
                    "midi": 64,
                    "time": 192.96661376953125,
                    "velocity": 0.9763779527559056,
                    "duration": 0.14556884765625
                },
                {
                    "name": "G3",
                    "midi": 55,
                    "time": 192.96661376953125,
                    "velocity": 0.9763779527559056,
                    "duration": 0.14556884765625
                },
                {
                    "name": "D4",
                    "midi": 62,
                    "time": 193.125,
                    "velocity": 1,
                    "duration": 0.161590576171875
                },
                {
                    "name": "F#3",
                    "midi": 54,
                    "time": 193.125,
                    "velocity": 1,
                    "duration": 0.161590576171875
                },
                {
                    "name": "D5",
                    "midi": 74,
                    "time": 193.29986572265625,
                    "velocity": 0.9763779527559056,
                    "duration": 0.141448974609375
                },
                {
                    "name": "A3",
                    "midi": 57,
                    "time": 193.29986572265625,
                    "velocity": 0.9763779527559056,
                    "duration": 0.141448974609375
                },
                {
                    "name": "D4",
                    "midi": 62,
                    "time": 193.45458984375,
                    "velocity": 0.9763779527559056,
                    "duration": 0.140533447265625
                },
                {
                    "name": "F#3",
                    "midi": 54,
                    "time": 193.45458984375,
                    "velocity": 0.9763779527559056,
                    "duration": 0.140533447265625
                },
                {
                    "name": "E4",
                    "midi": 64,
                    "time": 193.6083984375,
                    "velocity": 0.9763779527559056,
                    "duration": 0.1409912109375
                },
                {
                    "name": "E3",
                    "midi": 52,
                    "time": 193.6083984375,
                    "velocity": 0.9763779527559056,
                    "duration": 0.1409912109375
                },
                {
                    "name": "C#5",
                    "midi": 73,
                    "time": 193.76220703125,
                    "velocity": 0.9763779527559056,
                    "duration": 0.14190673828125
                },
                {
                    "name": "A3",
                    "midi": 57,
                    "time": 193.76220703125,
                    "velocity": 0.9763779527559056,
                    "duration": 0.14190673828125
                },
                {
                    "name": "E4",
                    "midi": 64,
                    "time": 193.91693115234375,
                    "velocity": 0.9763779527559056,
                    "duration": 0.14556884765625
                },
                {
                    "name": "E3",
                    "midi": 52,
                    "time": 193.91693115234375,
                    "velocity": 0.9763779527559056,
                    "duration": 0.14556884765625
                },
                {
                    "name": "F#4",
                    "midi": 66,
                    "time": 194.0753173828125,
                    "velocity": 0.9763779527559056,
                    "duration": 0.145111083984375
                },
                {
                    "name": "D3",
                    "midi": 50,
                    "time": 194.0753173828125,
                    "velocity": 0.9763779527559056,
                    "duration": 0.145111083984375
                },
                {
                    "name": "D5",
                    "midi": 74,
                    "time": 194.23370361328125,
                    "velocity": 0.9763779527559056,
                    "duration": 0.14007568359375
                },
                {
                    "name": "A3",
                    "midi": 57,
                    "time": 194.23370361328125,
                    "velocity": 0.9763779527559056,
                    "duration": 0.14007568359375
                },
                {
                    "name": "F#4",
                    "midi": 66,
                    "time": 194.3865966796875,
                    "velocity": 0.9763779527559056,
                    "duration": 0.137786865234375
                },
                {
                    "name": "D3",
                    "midi": 50,
                    "time": 194.3865966796875,
                    "velocity": 0.9763779527559056,
                    "duration": 0.137786865234375
                },
                {
                    "name": "G4",
                    "midi": 67,
                    "time": 194.53720092773438,
                    "velocity": 0.9763779527559056,
                    "duration": 0.13824462890625
                },
                {
                    "name": "C#3",
                    "midi": 49,
                    "time": 194.53720092773438,
                    "velocity": 0.9763779527559056,
                    "duration": 0.13824462890625
                },
                {
                    "name": "A4",
                    "midi": 69,
                    "time": 194.68826293945312,
                    "velocity": 0.9763779527559056,
                    "duration": 0.140533447265625
                },
                {
                    "name": "A3",
                    "midi": 57,
                    "time": 194.68826293945312,
                    "velocity": 0.9763779527559056,
                    "duration": 0.140533447265625
                },
                {
                    "name": "F#4",
                    "midi": 66,
                    "time": 194.84161376953125,
                    "velocity": 0.9763779527559056,
                    "duration": 0.14556884765625
                },
                {
                    "name": "D3",
                    "midi": 50,
                    "time": 194.84161376953125,
                    "velocity": 0.9763779527559056,
                    "duration": 0.14556884765625
                },
                {
                    "name": "F#4",
                    "midi": 66,
                    "time": 195,
                    "velocity": 1,
                    "duration": 0.084686279296875
                },
                {
                    "name": "A2",
                    "midi": 45,
                    "time": 195,
                    "velocity": 1,
                    "duration": 0.161590576171875
                },
                {
                    "name": "E4",
                    "midi": 64,
                    "time": 195.07598876953125,
                    "velocity": 0.9763779527559056,
                    "duration": 0.084686279296875
                },
                {
                    "name": "F#4",
                    "midi": 66,
                    "time": 195.1519775390625,
                    "velocity": 0.9763779527559056,
                    "duration": 0.084686279296875
                },
                {
                    "name": "A3",
                    "midi": 57,
                    "time": 195.17486572265625,
                    "velocity": 0.9763779527559056,
                    "duration": 0.141448974609375
                },
                {
                    "name": "E4",
                    "midi": 64,
                    "time": 195.22796630859375,
                    "velocity": 0.937007874015748,
                    "duration": 0.70953369140625
                },
                {
                    "name": "E3",
                    "midi": 52,
                    "time": 195.32958984375,
                    "velocity": 0.9763779527559056,
                    "duration": 0.140533447265625
                },
                {
                    "name": "C#3",
                    "midi": 49,
                    "time": 195.4833984375,
                    "velocity": 0.9763779527559056,
                    "duration": 0.1409912109375
                },
                {
                    "name": "A2",
                    "midi": 45,
                    "time": 195.63720703125,
                    "velocity": 0.9763779527559056,
                    "duration": 0.14190673828125
                },
                {
                    "name": "A1",
                    "midi": 33,
                    "time": 195.79193115234375,
                    "velocity": 0.937007874015748,
                    "duration": 0.14556884765625
                },
                {
                    "name": "A4",
                    "midi": 69,
                    "time": 195.9503173828125,
                    "velocity": 0.9763779527559056,
                    "duration": 0.145111083984375
                },
                {
                    "name": "D2",
                    "midi": 38,
                    "time": 195.9503173828125,
                    "velocity": 0.9606299212598425,
                    "duration": 0.145111083984375
                },
                {
                    "name": "F#5",
                    "midi": 78,
                    "time": 196.10870361328125,
                    "velocity": 0.9763779527559056,
                    "duration": 0.14007568359375
                },
                {
                    "name": "A2",
                    "midi": 45,
                    "time": 196.10870361328125,
                    "velocity": 0.9763779527559056,
                    "duration": 0.14007568359375
                },
                {
                    "name": "A4",
                    "midi": 69,
                    "time": 196.2615966796875,
                    "velocity": 0.9763779527559056,
                    "duration": 0.137786865234375
                },
                {
                    "name": "D3",
                    "midi": 50,
                    "time": 196.2615966796875,
                    "velocity": 0.9763779527559056,
                    "duration": 0.137786865234375
                },
                {
                    "name": "A4",
                    "midi": 69,
                    "time": 196.41220092773438,
                    "velocity": 0.9763779527559056,
                    "duration": 0.13824462890625
                },
                {
                    "name": "F#3",
                    "midi": 54,
                    "time": 196.41220092773438,
                    "velocity": 0.9763779527559056,
                    "duration": 0.13824462890625
                },
                {
                    "name": "F#5",
                    "midi": 78,
                    "time": 196.56326293945312,
                    "velocity": 0.9763779527559056,
                    "duration": 0.140533447265625
                },
                {
                    "name": "A3",
                    "midi": 57,
                    "time": 196.56326293945312,
                    "velocity": 0.9763779527559056,
                    "duration": 0.140533447265625
                },
                {
                    "name": "A4",
                    "midi": 69,
                    "time": 196.71661376953125,
                    "velocity": 0.9763779527559056,
                    "duration": 0.14556884765625
                },
                {
                    "name": "D4",
                    "midi": 62,
                    "time": 196.71661376953125,
                    "velocity": 0.9763779527559056,
                    "duration": 0.14556884765625
                },
                {
                    "name": "A4",
                    "midi": 69,
                    "time": 196.875,
                    "velocity": 1,
                    "duration": 0.161590576171875
                },
                {
                    "name": "F#4",
                    "midi": 66,
                    "time": 196.875,
                    "velocity": 1,
                    "duration": 0.161590576171875
                },
                {
                    "name": "B3",
                    "midi": 59,
                    "time": 196.875,
                    "velocity": 1,
                    "duration": 0.482940673828125
                },
                {
                    "name": "B4",
                    "midi": 71,
                    "time": 197.04986572265625,
                    "velocity": 0.9763779527559056,
                    "duration": 0.141448974609375
                },
                {
                    "name": "G4",
                    "midi": 67,
                    "time": 197.04986572265625,
                    "velocity": 0.9763779527559056,
                    "duration": 0.141448974609375
                },
                {
                    "name": "A4",
                    "midi": 69,
                    "time": 197.20458984375,
                    "velocity": 0.9763779527559056,
                    "duration": 0.140533447265625
                },
                {
                    "name": "F#4",
                    "midi": 66,
                    "time": 197.20458984375,
                    "velocity": 0.9763779527559056,
                    "duration": 0.140533447265625
                },
                {
                    "name": "G4",
                    "midi": 67,
                    "time": 197.3583984375,
                    "velocity": 0.9763779527559056,
                    "duration": 0.1409912109375
                },
                {
                    "name": "E4",
                    "midi": 64,
                    "time": 197.3583984375,
                    "velocity": 0.9763779527559056,
                    "duration": 0.1409912109375
                },
                {
                    "name": "A4",
                    "midi": 69,
                    "time": 197.51220703125,
                    "velocity": 0.9763779527559056,
                    "duration": 0.14190673828125
                },
                {
                    "name": "F#4",
                    "midi": 66,
                    "time": 197.51220703125,
                    "velocity": 0.9763779527559056,
                    "duration": 0.14190673828125
                },
                {
                    "name": "F#4",
                    "midi": 66,
                    "time": 197.66693115234375,
                    "velocity": 0.9763779527559056,
                    "duration": 0.14556884765625
                },
                {
                    "name": "D4",
                    "midi": 62,
                    "time": 197.66693115234375,
                    "velocity": 0.9763779527559056,
                    "duration": 0.14556884765625
                },
                {
                    "name": "G4",
                    "midi": 67,
                    "time": 197.8253173828125,
                    "velocity": 0.9763779527559056,
                    "duration": 0.145111083984375
                },
                {
                    "name": "E4",
                    "midi": 64,
                    "time": 197.8253173828125,
                    "velocity": 0.9763779527559056,
                    "duration": 0.145111083984375
                },
                {
                    "name": "E5",
                    "midi": 76,
                    "time": 197.98370361328125,
                    "velocity": 0.9763779527559056,
                    "duration": 0.14007568359375
                },
                {
                    "name": "B3",
                    "midi": 59,
                    "time": 197.98370361328125,
                    "velocity": 0.9763779527559056,
                    "duration": 0.14007568359375
                },
                {
                    "name": "G4",
                    "midi": 67,
                    "time": 198.1365966796875,
                    "velocity": 0.9763779527559056,
                    "duration": 0.137786865234375
                },
                {
                    "name": "G3",
                    "midi": 55,
                    "time": 198.1365966796875,
                    "velocity": 0.9763779527559056,
                    "duration": 0.137786865234375
                },
                {
                    "name": "G4",
                    "midi": 67,
                    "time": 198.28720092773438,
                    "velocity": 0.9763779527559056,
                    "duration": 0.13824462890625
                },
                {
                    "name": "E3",
                    "midi": 52,
                    "time": 198.28720092773438,
                    "velocity": 0.9763779527559056,
                    "duration": 0.13824462890625
                },
                {
                    "name": "E5",
                    "midi": 76,
                    "time": 198.43826293945312,
                    "velocity": 0.9763779527559056,
                    "duration": 0.140533447265625
                },
                {
                    "name": "B2",
                    "midi": 47,
                    "time": 198.43826293945312,
                    "velocity": 0.9763779527559056,
                    "duration": 0.140533447265625
                },
                {
                    "name": "G4",
                    "midi": 67,
                    "time": 198.59161376953125,
                    "velocity": 0.9763779527559056,
                    "duration": 0.14556884765625
                },
                {
                    "name": "E2",
                    "midi": 40,
                    "time": 198.59161376953125,
                    "velocity": 0.968503937007874,
                    "duration": 0.14556884765625
                },
                {
                    "name": "G4",
                    "midi": 67,
                    "time": 198.75,
                    "velocity": 1,
                    "duration": 0.161590576171875
                },
                {
                    "name": "E4",
                    "midi": 64,
                    "time": 198.75,
                    "velocity": 1,
                    "duration": 0.161590576171875
                },
                {
                    "name": "A3",
                    "midi": 57,
                    "time": 198.75,
                    "velocity": 1,
                    "duration": 0.482940673828125
                },
                {
                    "name": "A4",
                    "midi": 69,
                    "time": 198.92486572265625,
                    "velocity": 0.9763779527559056,
                    "duration": 0.141448974609375
                },
                {
                    "name": "F#4",
                    "midi": 66,
                    "time": 198.92486572265625,
                    "velocity": 0.9763779527559056,
                    "duration": 0.141448974609375
                },
                {
                    "name": "G4",
                    "midi": 67,
                    "time": 199.07958984375,
                    "velocity": 0.9763779527559056,
                    "duration": 0.140533447265625
                },
                {
                    "name": "E4",
                    "midi": 64,
                    "time": 199.07958984375,
                    "velocity": 0.9763779527559056,
                    "duration": 0.140533447265625
                },
                {
                    "name": "F#4",
                    "midi": 66,
                    "time": 199.2333984375,
                    "velocity": 0.9763779527559056,
                    "duration": 0.1409912109375
                },
                {
                    "name": "D4",
                    "midi": 62,
                    "time": 199.2333984375,
                    "velocity": 0.9763779527559056,
                    "duration": 0.1409912109375
                },
                {
                    "name": "G4",
                    "midi": 67,
                    "time": 199.38720703125,
                    "velocity": 0.9763779527559056,
                    "duration": 0.14190673828125
                },
                {
                    "name": "E4",
                    "midi": 64,
                    "time": 199.38720703125,
                    "velocity": 0.9763779527559056,
                    "duration": 0.14190673828125
                },
                {
                    "name": "E4",
                    "midi": 64,
                    "time": 199.54193115234375,
                    "velocity": 0.9763779527559056,
                    "duration": 0.14556884765625
                },
                {
                    "name": "C#4",
                    "midi": 61,
                    "time": 199.54193115234375,
                    "velocity": 0.9763779527559056,
                    "duration": 0.14556884765625
                },
                {
                    "name": "F#4",
                    "midi": 66,
                    "time": 199.7003173828125,
                    "velocity": 0.9763779527559056,
                    "duration": 0.145111083984375
                },
                {
                    "name": "D4",
                    "midi": 62,
                    "time": 199.7003173828125,
                    "velocity": 0.9763779527559056,
                    "duration": 0.145111083984375
                },
                {
                    "name": "D5",
                    "midi": 74,
                    "time": 199.85870361328125,
                    "velocity": 0.9763779527559056,
                    "duration": 0.14007568359375
                },
                {
                    "name": "A3",
                    "midi": 57,
                    "time": 199.85870361328125,
                    "velocity": 0.9763779527559056,
                    "duration": 0.14007568359375
                },
                {
                    "name": "F#4",
                    "midi": 66,
                    "time": 200.0115966796875,
                    "velocity": 0.9763779527559056,
                    "duration": 0.137786865234375
                },
                {
                    "name": "D3",
                    "midi": 50,
                    "time": 200.0115966796875,
                    "velocity": 0.9763779527559056,
                    "duration": 0.137786865234375
                },
                {
                    "name": "E4",
                    "midi": 64,
                    "time": 200.16220092773438,
                    "velocity": 0.9763779527559056,
                    "duration": 0.13824462890625
                },
                {
                    "name": "G3",
                    "midi": 55,
                    "time": 200.16220092773438,
                    "velocity": 0.9763779527559056,
                    "duration": 0.13824462890625
                },
                {
                    "name": "D5",
                    "midi": 74,
                    "time": 200.31326293945312,
                    "velocity": 0.9763779527559056,
                    "duration": 0.140533447265625
                },
                {
                    "name": "B3",
                    "midi": 59,
                    "time": 200.31326293945312,
                    "velocity": 0.9763779527559056,
                    "duration": 0.140533447265625
                },
                {
                    "name": "E4",
                    "midi": 64,
                    "time": 200.46661376953125,
                    "velocity": 0.9763779527559056,
                    "duration": 0.14556884765625
                },
                {
                    "name": "G3",
                    "midi": 55,
                    "time": 200.46661376953125,
                    "velocity": 0.9763779527559056,
                    "duration": 0.14556884765625
                },
                {
                    "name": "D4",
                    "midi": 62,
                    "time": 200.625,
                    "velocity": 1,
                    "duration": 0.161590576171875
                },
                {
                    "name": "F#3",
                    "midi": 54,
                    "time": 200.625,
                    "velocity": 1,
                    "duration": 0.161590576171875
                },
                {
                    "name": "D5",
                    "midi": 74,
                    "time": 200.79986572265625,
                    "velocity": 0.9763779527559056,
                    "duration": 0.141448974609375
                },
                {
                    "name": "A3",
                    "midi": 57,
                    "time": 200.79986572265625,
                    "velocity": 0.9763779527559056,
                    "duration": 0.141448974609375
                },
                {
                    "name": "D4",
                    "midi": 62,
                    "time": 200.95458984375,
                    "velocity": 0.9763779527559056,
                    "duration": 0.140533447265625
                },
                {
                    "name": "F#3",
                    "midi": 54,
                    "time": 200.95458984375,
                    "velocity": 0.9763779527559056,
                    "duration": 0.140533447265625
                },
                {
                    "name": "E4",
                    "midi": 64,
                    "time": 201.1083984375,
                    "velocity": 0.9763779527559056,
                    "duration": 0.1409912109375
                },
                {
                    "name": "E3",
                    "midi": 52,
                    "time": 201.1083984375,
                    "velocity": 0.9763779527559056,
                    "duration": 0.1409912109375
                },
                {
                    "name": "C#5",
                    "midi": 73,
                    "time": 201.26220703125,
                    "velocity": 0.9763779527559056,
                    "duration": 0.14190673828125
                },
                {
                    "name": "A3",
                    "midi": 57,
                    "time": 201.26220703125,
                    "velocity": 0.9763779527559056,
                    "duration": 0.14190673828125
                },
                {
                    "name": "E4",
                    "midi": 64,
                    "time": 201.41693115234375,
                    "velocity": 0.9763779527559056,
                    "duration": 0.14556884765625
                },
                {
                    "name": "E3",
                    "midi": 52,
                    "time": 201.41693115234375,
                    "velocity": 0.9763779527559056,
                    "duration": 0.14556884765625
                },
                {
                    "name": "F#4",
                    "midi": 66,
                    "time": 201.5753173828125,
                    "velocity": 0.9763779527559056,
                    "duration": 0.145111083984375
                },
                {
                    "name": "D3",
                    "midi": 50,
                    "time": 201.5753173828125,
                    "velocity": 0.9763779527559056,
                    "duration": 0.145111083984375
                },
                {
                    "name": "D5",
                    "midi": 74,
                    "time": 201.73370361328125,
                    "velocity": 0.9763779527559056,
                    "duration": 0.14007568359375
                },
                {
                    "name": "A3",
                    "midi": 57,
                    "time": 201.73370361328125,
                    "velocity": 0.9763779527559056,
                    "duration": 0.14007568359375
                },
                {
                    "name": "F#4",
                    "midi": 66,
                    "time": 201.8865966796875,
                    "velocity": 0.9763779527559056,
                    "duration": 0.137786865234375
                },
                {
                    "name": "D3",
                    "midi": 50,
                    "time": 201.8865966796875,
                    "velocity": 0.9763779527559056,
                    "duration": 0.137786865234375
                },
                {
                    "name": "E4",
                    "midi": 64,
                    "time": 202.03720092773438,
                    "velocity": 0.9763779527559056,
                    "duration": 0.13824462890625
                },
                {
                    "name": "A2",
                    "midi": 45,
                    "time": 202.03720092773438,
                    "velocity": 0.9763779527559056,
                    "duration": 0.13824462890625
                },
                {
                    "name": "C#5",
                    "midi": 73,
                    "time": 202.18826293945312,
                    "velocity": 0.9763779527559056,
                    "duration": 0.140533447265625
                },
                {
                    "name": "A3",
                    "midi": 57,
                    "time": 202.18826293945312,
                    "velocity": 0.9763779527559056,
                    "duration": 0.140533447265625
                },
                {
                    "name": "E4",
                    "midi": 64,
                    "time": 202.34161376953125,
                    "velocity": 0.9763779527559056,
                    "duration": 0.14556884765625
                },
                {
                    "name": "A2",
                    "midi": 45,
                    "time": 202.34161376953125,
                    "velocity": 0.9763779527559056,
                    "duration": 0.14556884765625
                },
                {
                    "name": "E4",
                    "midi": 64,
                    "time": 202.5,
                    "velocity": 1,
                    "duration": 0.084228515625
                },
                {
                    "name": "D3",
                    "midi": 50,
                    "time": 202.5,
                    "velocity": 1,
                    "duration": 0.106201171875
                },
                {
                    "name": "D4",
                    "midi": 62,
                    "time": 202.57553100585938,
                    "velocity": 0.9763779527559056,
                    "duration": 0.084228515625
                },
                {
                    "name": "C#3",
                    "midi": 49,
                    "time": 202.59521484375,
                    "velocity": 0.9763779527559056,
                    "duration": 0.106201171875
                },
                {
                    "name": "E4",
                    "midi": 64,
                    "time": 202.65106201171875,
                    "velocity": 0.9763779527559056,
                    "duration": 0.084228515625
                },
                {
                    "name": "D3",
                    "midi": 50,
                    "time": 202.6904296875,
                    "velocity": 0.937007874015748,
                    "duration": 0.7470703125
                },
                {
                    "name": "D4",
                    "midi": 62,
                    "time": 202.72659301757812,
                    "velocity": 0.937007874015748,
                    "duration": 0.652313232421875
                },
                {
                    "name": "D2",
                    "midi": 38,
                    "time": 202.97653198242188,
                    "velocity": 0.8661417322834646,
                    "duration": 0.51727294921875
                },
                {
                    "name": "F#5",
                    "midi": 78,
                    "time": 203.4375,
                    "velocity": 1,
                    "duration": 0.481109619140625
                },
                {
                    "name": "D2",
                    "midi": 38,
                    "time": 203.4375,
                    "velocity": 1,
                    "duration": 0.12542724609375
                },
                {
                    "name": "D3",
                    "midi": 50,
                    "time": 203.572998046875,
                    "velocity": 0.9763779527559056,
                    "duration": 0.10345458984375
                },
                {
                    "name": "F#3",
                    "midi": 54,
                    "time": 203.6865234375,
                    "velocity": 0.9763779527559056,
                    "duration": 0.10345458984375
                },
                {
                    "name": "A3",
                    "midi": 57,
                    "time": 203.800048828125,
                    "velocity": 0.9763779527559056,
                    "duration": 0.10894775390625
                },
                {
                    "name": "A4",
                    "midi": 69,
                    "time": 203.9190673828125,
                    "velocity": 0.9133858267716536,
                    "duration": 0.208740234375
                },
                {
                    "name": "F#3",
                    "midi": 54,
                    "time": 203.9190673828125,
                    "velocity": 1,
                    "duration": 0.107574462890625
                },
                {
                    "name": "D3",
                    "midi": 50,
                    "time": 204.03671264648438,
                    "velocity": 0.9763779527559056,
                    "duration": 0.100250244140625
                },
                {
                    "name": "A4",
                    "midi": 69,
                    "time": 204.14657592773438,
                    "velocity": 0.8818897637795275,
                    "duration": 0.20965576171875
                },
                {
                    "name": "F#3",
                    "midi": 54,
                    "time": 204.14657592773438,
                    "velocity": 0.9763779527559056,
                    "duration": 0.1007080078125
                },
                {
                    "name": "D3",
                    "midi": 50,
                    "time": 204.25689697265625,
                    "velocity": 0.9763779527559056,
                    "duration": 0.108489990234375
                },
                {
                    "name": "B4",
                    "midi": 71,
                    "time": 204.375,
                    "velocity": 1,
                    "duration": 0.0860595703125
                },
                {
                    "name": "B2",
                    "midi": 47,
                    "time": 204.37728881835938,
                    "velocity": 1,
                    "duration": 0.12725830078125
                },
                {
                    "name": "A4",
                    "midi": 69,
                    "time": 204.451904296875,
                    "velocity": 0.9763779527559056,
                    "duration": 0.0860595703125
                },
                {
                    "name": "B3",
                    "midi": 59,
                    "time": 204.51461791992188,
                    "velocity": 0.9763779527559056,
                    "duration": 0.10345458984375
                },
                {
                    "name": "B4",
                    "midi": 71,
                    "time": 204.52880859375,
                    "velocity": 0.9763779527559056,
                    "duration": 0.0860595703125
                },
                {
                    "name": "A4",
                    "midi": 69,
                    "time": 204.605712890625,
                    "velocity": 0.937007874015748,
                    "duration": 0.219268798828125
                },
                {
                    "name": "D4",
                    "midi": 62,
                    "time": 204.62814331054688,
                    "velocity": 0.9763779527559056,
                    "duration": 0.102996826171875
                },
                {
                    "name": "F#4",
                    "midi": 66,
                    "time": 204.7412109375,
                    "velocity": 0.9763779527559056,
                    "duration": 0.10894775390625
                },
                {
                    "name": "G4",
                    "midi": 67,
                    "time": 204.8602294921875,
                    "velocity": 0.9921259842519685,
                    "duration": 0.463714599609375
                },
                {
                    "name": "D4",
                    "midi": 62,
                    "time": 204.8602294921875,
                    "velocity": 0.9921259842519685,
                    "duration": 0.108489990234375
                },
                {
                    "name": "B3",
                    "midi": 59,
                    "time": 204.97879028320312,
                    "velocity": 0.9763779527559056,
                    "duration": 0.102081298828125
                },
                {
                    "name": "D4",
                    "midi": 62,
                    "time": 205.0909423828125,
                    "velocity": 0.9763779527559056,
                    "duration": 0.102996826171875
                },
                {
                    "name": "B3",
                    "midi": 59,
                    "time": 205.20355224609375,
                    "velocity": 0.9763779527559056,
                    "duration": 0.11077880859375
                },
                {
                    "name": "E5",
                    "midi": 76,
                    "time": 205.32440185546875,
                    "velocity": 1,
                    "duration": 0.4632568359375
                },
                {
                    "name": "G3",
                    "midi": 55,
                    "time": 205.32440185546875,
                    "velocity": 1,
                    "duration": 0.11077880859375
                },
                {
                    "name": "B3",
                    "midi": 59,
                    "time": 205.44525146484375,
                    "velocity": 0.9763779527559056,
                    "duration": 0.102081298828125
                },
                {
                    "name": "E3",
                    "midi": 52,
                    "time": 205.55740356445312,
                    "velocity": 0.9763779527559056,
                    "duration": 0.102996826171875
                },
                {
                    "name": "G3",
                    "midi": 55,
                    "time": 205.67001342773438,
                    "velocity": 0.9763779527559056,
                    "duration": 0.108489990234375
                },
                {
                    "name": "G4",
                    "midi": 67,
                    "time": 205.78811645507812,
                    "velocity": 0.8976377952755905,
                    "duration": 0.21148681640625
                },
                {
                    "name": "C#3",
                    "midi": 49,
                    "time": 205.78811645507812,
                    "velocity": 0.9921259842519685,
                    "duration": 0.1080322265625
                },
                {
                    "name": "E3",
                    "midi": 52,
                    "time": 205.90576171875,
                    "velocity": 0.9763779527559056,
                    "duration": 0.102996826171875
                },
                {
                    "name": "G4",
                    "midi": 67,
                    "time": 206.01837158203125,
                    "velocity": 0.8818897637795275,
                    "duration": 0.212860107421875
                },
                {
                    "name": "A2",
                    "midi": 45,
                    "time": 206.01837158203125,
                    "velocity": 0.9763779527559056,
                    "duration": 0.102996826171875
                },
                {
                    "name": "C#3",
                    "midi": 49,
                    "time": 206.1309814453125,
                    "velocity": 0.9763779527559056,
                    "duration": 0.109405517578125
                },
                {
                    "name": "A4",
                    "midi": 69,
                    "time": 206.25,
                    "velocity": 1,
                    "duration": 0.084686279296875
                },
                {
                    "name": "D2",
                    "midi": 38,
                    "time": 206.25228881835938,
                    "velocity": 1,
                    "duration": 0.12725830078125
                },
                {
                    "name": "G4",
                    "midi": 67,
                    "time": 206.32598876953125,
                    "velocity": 0.9763779527559056,
                    "duration": 0.084686279296875
                },
                {
                    "name": "A2",
                    "midi": 45,
                    "time": 206.38961791992188,
                    "velocity": 0.9763779527559056,
                    "duration": 0.10345458984375
                },
                {
                    "name": "A4",
                    "midi": 69,
                    "time": 206.4019775390625,
                    "velocity": 0.9763779527559056,
                    "duration": 0.084686279296875
                },
                {
                    "name": "G4",
                    "midi": 67,
                    "time": 206.47796630859375,
                    "velocity": 0.937007874015748,
                    "duration": 0.2215576171875
                },
                {
                    "name": "B2",
                    "midi": 47,
                    "time": 206.50314331054688,
                    "velocity": 0.9763779527559056,
                    "duration": 0.102996826171875
                },
                {
                    "name": "C#3",
                    "midi": 49,
                    "time": 206.6162109375,
                    "velocity": 0.9763779527559056,
                    "duration": 0.10894775390625
                },
                {
                    "name": "F#4",
                    "midi": 66,
                    "time": 206.7352294921875,
                    "velocity": 0.9921259842519685,
                    "duration": 0.463714599609375
                },
                {
                    "name": "D3",
                    "midi": 50,
                    "time": 206.7352294921875,
                    "velocity": 0.9921259842519685,
                    "duration": 0.108489990234375
                },
                {
                    "name": "E3",
                    "midi": 52,
                    "time": 206.85379028320312,
                    "velocity": 0.9763779527559056,
                    "duration": 0.102081298828125
                },
                {
                    "name": "F#3",
                    "midi": 54,
                    "time": 206.9659423828125,
                    "velocity": 0.9763779527559056,
                    "duration": 0.102996826171875
                },
                {
                    "name": "G3",
                    "midi": 55,
                    "time": 207.07855224609375,
                    "velocity": 0.9763779527559056,
                    "duration": 0.11077880859375
                },
                {
                    "name": "D5",
                    "midi": 74,
                    "time": 207.19940185546875,
                    "velocity": 1,
                    "duration": 0.4632568359375
                },
                {
                    "name": "F#3",
                    "midi": 54,
                    "time": 207.19940185546875,
                    "velocity": 1,
                    "duration": 0.11077880859375
                },
                {
                    "name": "G3",
                    "midi": 55,
                    "time": 207.32025146484375,
                    "velocity": 0.9763779527559056,
                    "duration": 0.102081298828125
                },
                {
                    "name": "A3",
                    "midi": 57,
                    "time": 207.43240356445312,
                    "velocity": 0.9763779527559056,
                    "duration": 0.102996826171875
                },
                {
                    "name": "G3",
                    "midi": 55,
                    "time": 207.54501342773438,
                    "velocity": 0.9763779527559056,
                    "duration": 0.108489990234375
                },
                {
                    "name": "D4",
                    "midi": 62,
                    "time": 207.66311645507812,
                    "velocity": 0.9921259842519685,
                    "duration": 0.21148681640625
                },
                {
                    "name": "F#3",
                    "midi": 54,
                    "time": 207.66311645507812,
                    "velocity": 0.9921259842519685,
                    "duration": 0.1080322265625
                },
                {
                    "name": "G3",
                    "midi": 55,
                    "time": 207.78076171875,
                    "velocity": 0.9763779527559056,
                    "duration": 0.102996826171875
                },
                {
                    "name": "D4",
                    "midi": 62,
                    "time": 207.89337158203125,
                    "velocity": 0.9763779527559056,
                    "duration": 0.212860107421875
                },
                {
                    "name": "F#3",
                    "midi": 54,
                    "time": 207.89337158203125,
                    "velocity": 0.9763779527559056,
                    "duration": 0.102996826171875
                },
                {
                    "name": "E3",
                    "midi": 52,
                    "time": 208.0059814453125,
                    "velocity": 0.9763779527559056,
                    "duration": 0.109405517578125
                },
                {
                    "name": "D4",
                    "midi": 62,
                    "time": 208.12728881835938,
                    "velocity": 1,
                    "duration": 0.232086181640625
                },
                {
                    "name": "F#3",
                    "midi": 54,
                    "time": 208.12728881835938,
                    "velocity": 1,
                    "duration": 0.12725830078125
                },
                {
                    "name": "G3",
                    "midi": 55,
                    "time": 208.26461791992188,
                    "velocity": 0.9763779527559056,
                    "duration": 0.10345458984375
                },
                {
                    "name": "D5",
                    "midi": 74,
                    "time": 208.37814331054688,
                    "velocity": 0.9763779527559056,
                    "duration": 0.21331787109375
                },
                {
                    "name": "A3",
                    "midi": 57,
                    "time": 208.37814331054688,
                    "velocity": 0.9763779527559056,
                    "duration": 0.102996826171875
                },
                {
                    "name": "G3",
                    "midi": 55,
                    "time": 208.4912109375,
                    "velocity": 0.9763779527559056,
                    "duration": 0.10894775390625
                },
                {
                    "name": "D4",
                    "midi": 62,
                    "time": 208.6102294921875,
                    "velocity": 0.9921259842519685,
                    "duration": 0.211944580078125
                },
                {
                    "name": "F#3",
                    "midi": 54,
                    "time": 208.6102294921875,
                    "velocity": 0.9921259842519685,
                    "duration": 0.108489990234375
                },
                {
                    "name": "G3",
                    "midi": 55,
                    "time": 208.72879028320312,
                    "velocity": 0.9763779527559056,
                    "duration": 0.102081298828125
                },
                {
                    "name": "E4",
                    "midi": 64,
                    "time": 208.8409423828125,
                    "velocity": 0.9763779527559056,
                    "duration": 0.214691162109375
                },
                {
                    "name": "F#3",
                    "midi": 54,
                    "time": 208.8409423828125,
                    "velocity": 0.9763779527559056,
                    "duration": 0.102996826171875
                },
                {
                    "name": "E3",
                    "midi": 52,
                    "time": 208.95355224609375,
                    "velocity": 0.9763779527559056,
                    "duration": 0.11077880859375
                },
                {
                    "name": "F#4",
                    "midi": 66,
                    "time": 209.07440185546875,
                    "velocity": 1,
                    "duration": 0.2142333984375
                },
                {
                    "name": "D3",
                    "midi": 50,
                    "time": 209.07440185546875,
                    "velocity": 1,
                    "duration": 0.11077880859375
                },
                {
                    "name": "A3",
                    "midi": 57,
                    "time": 209.19525146484375,
                    "velocity": 0.9763779527559056,
                    "duration": 0.102081298828125
                },
                {
                    "name": "E4",
                    "midi": 64,
                    "time": 209.30740356445312,
                    "velocity": 0.9763779527559056,
                    "duration": 0.211944580078125
                },
                {
                    "name": "B3",
                    "midi": 59,
                    "time": 209.30740356445312,
                    "velocity": 0.9763779527559056,
                    "duration": 0.102996826171875
                },
                {
                    "name": "C#4",
                    "midi": 61,
                    "time": 209.42001342773438,
                    "velocity": 0.9763779527559056,
                    "duration": 0.108489990234375
                },
                {
                    "name": "F#4",
                    "midi": 66,
                    "time": 209.53811645507812,
                    "velocity": 0.9921259842519685,
                    "duration": 0.21148681640625
                },
                {
                    "name": "D4",
                    "midi": 62,
                    "time": 209.53811645507812,
                    "velocity": 0.9921259842519685,
                    "duration": 0.1080322265625
                },
                {
                    "name": "A3",
                    "midi": 57,
                    "time": 209.65576171875,
                    "velocity": 0.9763779527559056,
                    "duration": 0.102996826171875
                },
                {
                    "name": "G4",
                    "midi": 67,
                    "time": 209.76837158203125,
                    "velocity": 0.9763779527559056,
                    "duration": 0.212860107421875
                },
                {
                    "name": "B3",
                    "midi": 59,
                    "time": 209.76837158203125,
                    "velocity": 0.9763779527559056,
                    "duration": 0.102996826171875
                },
                {
                    "name": "G3",
                    "midi": 55,
                    "time": 209.8809814453125,
                    "velocity": 0.9763779527559056,
                    "duration": 0.109405517578125
                },
                {
                    "name": "F#4",
                    "midi": 66,
                    "time": 210,
                    "velocity": 1,
                    "duration": 0.085601806640625
                },
                {
                    "name": "A3",
                    "midi": 57,
                    "time": 210.00228881835938,
                    "velocity": 1,
                    "duration": 0.12725830078125
                },
                {
                    "name": "E4",
                    "midi": 64,
                    "time": 210.07644653320312,
                    "velocity": 0.9763779527559056,
                    "duration": 0.085601806640625
                },
                {
                    "name": "E3",
                    "midi": 52,
                    "time": 210.13961791992188,
                    "velocity": 0.9763779527559056,
                    "duration": 0.10345458984375
                },
                {
                    "name": "F#4",
                    "midi": 66,
                    "time": 210.15289306640625,
                    "velocity": 0.9763779527559056,
                    "duration": 0.085601806640625
                },
                {
                    "name": "E4",
                    "midi": 64,
                    "time": 210.22933959960938,
                    "velocity": 0.937007874015748,
                    "duration": 0.708160400390625
                },
                {
                    "name": "A3",
                    "midi": 57,
                    "time": 210.25314331054688,
                    "velocity": 0.9763779527559056,
                    "duration": 0.102996826171875
                },
                {
                    "name": "E3",
                    "midi": 52,
                    "time": 210.3662109375,
                    "velocity": 0.9763779527559056,
                    "duration": 0.10894775390625
                },
                {
                    "name": "C#3",
                    "midi": 49,
                    "time": 210.4852294921875,
                    "velocity": 0.9921259842519685,
                    "duration": 0.108489990234375
                },
                {
                    "name": "A2",
                    "midi": 45,
                    "time": 210.60379028320312,
                    "velocity": 0.9763779527559056,
                    "duration": 0.102081298828125
                },
                {
                    "name": "A1",
                    "midi": 33,
                    "time": 210.7159423828125,
                    "velocity": 0.937007874015748,
                    "duration": 0.102996826171875
                },
                {
                    "name": "A2",
                    "midi": 45,
                    "time": 210.82855224609375,
                    "velocity": 0.9763779527559056,
                    "duration": 0.11077880859375
                },
                {
                    "name": "F#5",
                    "midi": 78,
                    "time": 210.94940185546875,
                    "velocity": 1,
                    "duration": 0.4632568359375
                },
                {
                    "name": "D2",
                    "midi": 38,
                    "time": 210.94940185546875,
                    "velocity": 0.984251968503937,
                    "duration": 0.11077880859375
                },
                {
                    "name": "D3",
                    "midi": 50,
                    "time": 211.07025146484375,
                    "velocity": 0.9763779527559056,
                    "duration": 0.102081298828125
                },
                {
                    "name": "F#3",
                    "midi": 54,
                    "time": 211.18240356445312,
                    "velocity": 0.9763779527559056,
                    "duration": 0.102996826171875
                },
                {
                    "name": "A3",
                    "midi": 57,
                    "time": 211.29501342773438,
                    "velocity": 0.9763779527559056,
                    "duration": 0.108489990234375
                },
                {
                    "name": "A4",
                    "midi": 69,
                    "time": 211.41311645507812,
                    "velocity": 0.8976377952755905,
                    "duration": 0.21148681640625
                },
                {
                    "name": "F#3",
                    "midi": 54,
                    "time": 211.41311645507812,
                    "velocity": 0.9921259842519685,
                    "duration": 0.1080322265625
                },
                {
                    "name": "D3",
                    "midi": 50,
                    "time": 211.53076171875,
                    "velocity": 0.9763779527559056,
                    "duration": 0.102996826171875
                },
                {
                    "name": "A4",
                    "midi": 69,
                    "time": 211.64337158203125,
                    "velocity": 0.8818897637795275,
                    "duration": 0.212860107421875
                },
                {
                    "name": "F#3",
                    "midi": 54,
                    "time": 211.64337158203125,
                    "velocity": 0.9763779527559056,
                    "duration": 0.102996826171875
                },
                {
                    "name": "D3",
                    "midi": 50,
                    "time": 211.7559814453125,
                    "velocity": 0.9763779527559056,
                    "duration": 0.109405517578125
                },
                {
                    "name": "B4",
                    "midi": 71,
                    "time": 211.875,
                    "velocity": 1,
                    "duration": 0.086517333984375
                },
                {
                    "name": "B2",
                    "midi": 47,
                    "time": 211.87728881835938,
                    "velocity": 1,
                    "duration": 0.12725830078125
                },
                {
                    "name": "A4",
                    "midi": 69,
                    "time": 211.95236206054688,
                    "velocity": 0.9763779527559056,
                    "duration": 0.086517333984375
                },
                {
                    "name": "B3",
                    "midi": 59,
                    "time": 212.01461791992188,
                    "velocity": 0.9763779527559056,
                    "duration": 0.10345458984375
                },
                {
                    "name": "B4",
                    "midi": 71,
                    "time": 212.02972412109375,
                    "velocity": 0.9763779527559056,
                    "duration": 0.086517333984375
                },
                {
                    "name": "A4",
                    "midi": 69,
                    "time": 212.10708618164062,
                    "velocity": 0.937007874015748,
                    "duration": 0.2178955078125
                },
                {
                    "name": "D4",
                    "midi": 62,
                    "time": 212.12814331054688,
                    "velocity": 0.9763779527559056,
                    "duration": 0.102996826171875
                },
                {
                    "name": "F#4",
                    "midi": 66,
                    "time": 212.2412109375,
                    "velocity": 0.9763779527559056,
                    "duration": 0.10894775390625
                },
                {
                    "name": "G4",
                    "midi": 67,
                    "time": 212.3602294921875,
                    "velocity": 0.9921259842519685,
                    "duration": 0.463714599609375
                },
                {
                    "name": "D4",
                    "midi": 62,
                    "time": 212.3602294921875,
                    "velocity": 0.9921259842519685,
                    "duration": 0.108489990234375
                },
                {
                    "name": "B3",
                    "midi": 59,
                    "time": 212.47879028320312,
                    "velocity": 0.9763779527559056,
                    "duration": 0.102081298828125
                },
                {
                    "name": "D4",
                    "midi": 62,
                    "time": 212.5909423828125,
                    "velocity": 0.9763779527559056,
                    "duration": 0.102996826171875
                },
                {
                    "name": "B3",
                    "midi": 59,
                    "time": 212.70355224609375,
                    "velocity": 0.9763779527559056,
                    "duration": 0.11077880859375
                },
                {
                    "name": "E5",
                    "midi": 76,
                    "time": 212.82440185546875,
                    "velocity": 1,
                    "duration": 0.4632568359375
                },
                {
                    "name": "G3",
                    "midi": 55,
                    "time": 212.82440185546875,
                    "velocity": 1,
                    "duration": 0.11077880859375
                },
                {
                    "name": "B3",
                    "midi": 59,
                    "time": 212.94525146484375,
                    "velocity": 0.9763779527559056,
                    "duration": 0.102081298828125
                },
                {
                    "name": "E3",
                    "midi": 52,
                    "time": 213.05740356445312,
                    "velocity": 0.9763779527559056,
                    "duration": 0.102996826171875
                },
                {
                    "name": "G3",
                    "midi": 55,
                    "time": 213.17001342773438,
                    "velocity": 0.9763779527559056,
                    "duration": 0.108489990234375
                },
                {
                    "name": "G4",
                    "midi": 67,
                    "time": 213.28811645507812,
                    "velocity": 0.8976377952755905,
                    "duration": 0.21148681640625
                },
                {
                    "name": "C#3",
                    "midi": 49,
                    "time": 213.28811645507812,
                    "velocity": 0.9921259842519685,
                    "duration": 0.1080322265625
                },
                {
                    "name": "E3",
                    "midi": 52,
                    "time": 213.40576171875,
                    "velocity": 0.9763779527559056,
                    "duration": 0.102996826171875
                },
                {
                    "name": "G4",
                    "midi": 67,
                    "time": 213.51837158203125,
                    "velocity": 0.8818897637795275,
                    "duration": 0.212860107421875
                },
                {
                    "name": "A2",
                    "midi": 45,
                    "time": 213.51837158203125,
                    "velocity": 0.9763779527559056,
                    "duration": 0.102996826171875
                },
                {
                    "name": "C#3",
                    "midi": 49,
                    "time": 213.6309814453125,
                    "velocity": 0.9763779527559056,
                    "duration": 0.109405517578125
                },
                {
                    "name": "A4",
                    "midi": 69,
                    "time": 213.75,
                    "velocity": 1,
                    "duration": 0.08697509765625
                },
                {
                    "name": "D2",
                    "midi": 38,
                    "time": 213.75228881835938,
                    "velocity": 1,
                    "duration": 0.12725830078125
                },
                {
                    "name": "G4",
                    "midi": 67,
                    "time": 213.82781982421875,
                    "velocity": 0.9763779527559056,
                    "duration": 0.08697509765625
                },
                {
                    "name": "A2",
                    "midi": 45,
                    "time": 213.88961791992188,
                    "velocity": 0.9763779527559056,
                    "duration": 0.10345458984375
                },
                {
                    "name": "A4",
                    "midi": 69,
                    "time": 213.9056396484375,
                    "velocity": 0.9763779527559056,
                    "duration": 0.08697509765625
                },
                {
                    "name": "G4",
                    "midi": 67,
                    "time": 213.98345947265625,
                    "velocity": 0.937007874015748,
                    "duration": 0.216522216796875
                },
                {
                    "name": "B2",
                    "midi": 47,
                    "time": 214.00314331054688,
                    "velocity": 0.9763779527559056,
                    "duration": 0.102996826171875
                },
                {
                    "name": "C#3",
                    "midi": 49,
                    "time": 214.1162109375,
                    "velocity": 0.9763779527559056,
                    "duration": 0.10894775390625
                },
                {
                    "name": "F#4",
                    "midi": 66,
                    "time": 214.2352294921875,
                    "velocity": 0.9921259842519685,
                    "duration": 0.463714599609375
                },
                {
                    "name": "D3",
                    "midi": 50,
                    "time": 214.2352294921875,
                    "velocity": 0.9921259842519685,
                    "duration": 0.108489990234375
                },
                {
                    "name": "E3",
                    "midi": 52,
                    "time": 214.35379028320312,
                    "velocity": 0.9763779527559056,
                    "duration": 0.102081298828125
                },
                {
                    "name": "F#3",
                    "midi": 54,
                    "time": 214.4659423828125,
                    "velocity": 0.9763779527559056,
                    "duration": 0.102996826171875
                },
                {
                    "name": "G3",
                    "midi": 55,
                    "time": 214.57855224609375,
                    "velocity": 0.9763779527559056,
                    "duration": 0.11077880859375
                },
                {
                    "name": "D5",
                    "midi": 74,
                    "time": 214.69940185546875,
                    "velocity": 1,
                    "duration": 0.4632568359375
                },
                {
                    "name": "F#3",
                    "midi": 54,
                    "time": 214.69940185546875,
                    "velocity": 1,
                    "duration": 0.11077880859375
                },
                {
                    "name": "G3",
                    "midi": 55,
                    "time": 214.82025146484375,
                    "velocity": 0.9763779527559056,
                    "duration": 0.102081298828125
                },
                {
                    "name": "A3",
                    "midi": 57,
                    "time": 214.93240356445312,
                    "velocity": 0.9763779527559056,
                    "duration": 0.102996826171875
                },
                {
                    "name": "G3",
                    "midi": 55,
                    "time": 215.04501342773438,
                    "velocity": 0.9763779527559056,
                    "duration": 0.108489990234375
                },
                {
                    "name": "D4",
                    "midi": 62,
                    "time": 215.16311645507812,
                    "velocity": 0.9921259842519685,
                    "duration": 0.21148681640625
                },
                {
                    "name": "F#3",
                    "midi": 54,
                    "time": 215.16311645507812,
                    "velocity": 0.9921259842519685,
                    "duration": 0.1080322265625
                },
                {
                    "name": "G3",
                    "midi": 55,
                    "time": 215.28076171875,
                    "velocity": 0.9763779527559056,
                    "duration": 0.102996826171875
                },
                {
                    "name": "D4",
                    "midi": 62,
                    "time": 215.39337158203125,
                    "velocity": 0.9763779527559056,
                    "duration": 0.212860107421875
                },
                {
                    "name": "F#3",
                    "midi": 54,
                    "time": 215.39337158203125,
                    "velocity": 0.9763779527559056,
                    "duration": 0.102996826171875
                },
                {
                    "name": "E3",
                    "midi": 52,
                    "time": 215.5059814453125,
                    "velocity": 0.9763779527559056,
                    "duration": 0.109405517578125
                },
                {
                    "name": "D4",
                    "midi": 62,
                    "time": 215.62728881835938,
                    "velocity": 1,
                    "duration": 0.232086181640625
                },
                {
                    "name": "F#3",
                    "midi": 54,
                    "time": 215.62728881835938,
                    "velocity": 1,
                    "duration": 0.12725830078125
                },
                {
                    "name": "G3",
                    "midi": 55,
                    "time": 215.76461791992188,
                    "velocity": 0.9763779527559056,
                    "duration": 0.10345458984375
                },
                {
                    "name": "D5",
                    "midi": 74,
                    "time": 215.87814331054688,
                    "velocity": 0.9763779527559056,
                    "duration": 0.21331787109375
                },
                {
                    "name": "A3",
                    "midi": 57,
                    "time": 215.87814331054688,
                    "velocity": 0.9763779527559056,
                    "duration": 0.102996826171875
                },
                {
                    "name": "G3",
                    "midi": 55,
                    "time": 215.9912109375,
                    "velocity": 0.9763779527559056,
                    "duration": 0.10894775390625
                },
                {
                    "name": "D4",
                    "midi": 62,
                    "time": 216.1102294921875,
                    "velocity": 0.9921259842519685,
                    "duration": 0.211944580078125
                },
                {
                    "name": "F#3",
                    "midi": 54,
                    "time": 216.1102294921875,
                    "velocity": 0.9921259842519685,
                    "duration": 0.108489990234375
                },
                {
                    "name": "G3",
                    "midi": 55,
                    "time": 216.22879028320312,
                    "velocity": 0.9763779527559056,
                    "duration": 0.102081298828125
                },
                {
                    "name": "E4",
                    "midi": 64,
                    "time": 216.3409423828125,
                    "velocity": 0.9763779527559056,
                    "duration": 0.214691162109375
                },
                {
                    "name": "F#3",
                    "midi": 54,
                    "time": 216.3409423828125,
                    "velocity": 0.9763779527559056,
                    "duration": 0.102996826171875
                },
                {
                    "name": "E3",
                    "midi": 52,
                    "time": 216.45355224609375,
                    "velocity": 0.9763779527559056,
                    "duration": 0.11077880859375
                },
                {
                    "name": "F#4",
                    "midi": 66,
                    "time": 216.5625,
                    "velocity": 1,
                    "duration": 0.084228515625
                },
                {
                    "name": "D3",
                    "midi": 50,
                    "time": 216.57440185546875,
                    "velocity": 1,
                    "duration": 0.11077880859375
                },
                {
                    "name": "E4",
                    "midi": 64,
                    "time": 216.63803100585938,
                    "velocity": 0.9763779527559056,
                    "duration": 0.084228515625
                },
                {
                    "name": "C#3",
                    "midi": 49,
                    "time": 216.69525146484375,
                    "velocity": 0.9763779527559056,
                    "duration": 0.102081298828125
                },
                {
                    "name": "F#4",
                    "midi": 66,
                    "time": 216.71356201171875,
                    "velocity": 0.937007874015748,
                    "duration": 0.076904296875
                },
                {
                    "name": "G4",
                    "midi": 67,
                    "time": 216.80740356445312,
                    "velocity": 0.9763779527559056,
                    "duration": 0.211944580078125
                },
                {
                    "name": "B2",
                    "midi": 47,
                    "time": 216.80740356445312,
                    "velocity": 0.9763779527559056,
                    "duration": 0.102996826171875
                },
                {
                    "name": "G2",
                    "midi": 43,
                    "time": 216.92001342773438,
                    "velocity": 0.9763779527559056,
                    "duration": 0.108489990234375
                },
                {
                    "name": "E4",
                    "midi": 64,
                    "time": 217.03811645507812,
                    "velocity": 0.9921259842519685,
                    "duration": 0.21148681640625
                },
                {
                    "name": "A2",
                    "midi": 45,
                    "time": 217.03811645507812,
                    "velocity": 0.984251968503937,
                    "duration": 0.1080322265625
                },
                {
                    "name": "G2",
                    "midi": 43,
                    "time": 217.15576171875,
                    "velocity": 0.9763779527559056,
                    "duration": 0.102996826171875
                },
                {
                    "name": "F#4",
                    "midi": 66,
                    "time": 217.26837158203125,
                    "velocity": 0.9763779527559056,
                    "duration": 0.212860107421875
                },
                {
                    "name": "A2",
                    "midi": 45,
                    "time": 217.26837158203125,
                    "velocity": 0.9763779527559056,
                    "duration": 0.102996826171875
                },
                {
                    "name": "A1",
                    "midi": 33,
                    "time": 217.3809814453125,
                    "velocity": 0.937007874015748,
                    "duration": 0.109405517578125
                },
                {
                    "name": "E4",
                    "midi": 64,
                    "time": 217.5,
                    "velocity": 1,
                    "duration": 0.084686279296875
                },
                {
                    "name": "D2",
                    "midi": 38,
                    "time": 217.5,
                    "velocity": 1,
                    "duration": 0.12542724609375
                },
                {
                    "name": "D4",
                    "midi": 62,
                    "time": 217.57598876953125,
                    "velocity": 0.9763779527559056,
                    "duration": 0.084686279296875
                },
                {
                    "name": "A2",
                    "midi": 45,
                    "time": 217.635498046875,
                    "velocity": 0.9763779527559056,
                    "duration": 0.10345458984375
                },
                {
                    "name": "E4",
                    "midi": 64,
                    "time": 217.6519775390625,
                    "velocity": 0.9763779527559056,
                    "duration": 0.084686279296875
                },
                {
                    "name": "D4",
                    "midi": 62,
                    "time": 217.72796630859375,
                    "velocity": 0.937007874015748,
                    "duration": 0.70953369140625
                },
                {
                    "name": "D3",
                    "midi": 50,
                    "time": 217.7490234375,
                    "velocity": 0.9763779527559056,
                    "duration": 0.10345458984375
                },
                {
                    "name": "F#3",
                    "midi": 54,
                    "time": 217.862548828125,
                    "velocity": 0.9763779527559056,
                    "duration": 0.10894775390625
                },
                {
                    "name": "A3",
                    "midi": 57,
                    "time": 217.9815673828125,
                    "velocity": 1,
                    "duration": 0.107574462890625
                },
                {
                    "name": "F#3",
                    "midi": 54,
                    "time": 218.09921264648438,
                    "velocity": 0.9763779527559056,
                    "duration": 0.100250244140625
                },
                {
                    "name": "D3",
                    "midi": 50,
                    "time": 218.20907592773438,
                    "velocity": 0.9763779527559056,
                    "duration": 0.1007080078125
                },
                {
                    "name": "A2",
                    "midi": 45,
                    "time": 218.31939697265625,
                    "velocity": 0.9763779527559056,
                    "duration": 0.108489990234375
                },
                {
                    "name": "D5",
                    "midi": 74,
                    "time": 218.4375,
                    "velocity": 1,
                    "duration": 0.481109619140625
                },
                {
                    "name": "D2",
                    "midi": 38,
                    "time": 218.4375,
                    "velocity": 1,
                    "duration": 0.12542724609375
                },
                {
                    "name": "A2",
                    "midi": 45,
                    "time": 218.572998046875,
                    "velocity": 0.9763779527559056,
                    "duration": 0.10345458984375
                },
                {
                    "name": "B2",
                    "midi": 47,
                    "time": 218.6865234375,
                    "velocity": 0.9763779527559056,
                    "duration": 0.10345458984375
                },
                {
                    "name": "C#3",
                    "midi": 49,
                    "time": 218.800048828125,
                    "velocity": 0.9763779527559056,
                    "duration": 0.10894775390625
                },
                {
                    "name": "F#4",
                    "midi": 66,
                    "time": 218.9190673828125,
                    "velocity": 0.9133858267716536,
                    "duration": 0.208740234375
                },
                {
                    "name": "D3",
                    "midi": 50,
                    "time": 218.9190673828125,
                    "velocity": 1,
                    "duration": 0.107574462890625
                },
                {
                    "name": "E3",
                    "midi": 52,
                    "time": 219.03671264648438,
                    "velocity": 0.9763779527559056,
                    "duration": 0.100250244140625
                },
                {
                    "name": "F#4",
                    "midi": 66,
                    "time": 219.14657592773438,
                    "velocity": 0.8818897637795275,
                    "duration": 0.20965576171875
                },
                {
                    "name": "F#3",
                    "midi": 54,
                    "time": 219.14657592773438,
                    "velocity": 0.9763779527559056,
                    "duration": 0.1007080078125
                },
                {
                    "name": "G3",
                    "midi": 55,
                    "time": 219.25689697265625,
                    "velocity": 0.9763779527559056,
                    "duration": 0.108489990234375
                },
                {
                    "name": "G4",
                    "midi": 67,
                    "time": 219.375,
                    "velocity": 1,
                    "duration": 0.086517333984375
                },
                {
                    "name": "A3",
                    "midi": 57,
                    "time": 219.37728881835938,
                    "velocity": 1,
                    "duration": 0.12725830078125
                },
                {
                    "name": "F#4",
                    "midi": 66,
                    "time": 219.45236206054688,
                    "velocity": 0.9763779527559056,
                    "duration": 0.086517333984375
                },
                {
                    "name": "E3",
                    "midi": 52,
                    "time": 219.51461791992188,
                    "velocity": 0.9763779527559056,
                    "duration": 0.10345458984375
                },
                {
                    "name": "G4",
                    "midi": 67,
                    "time": 219.52972412109375,
                    "velocity": 0.9763779527559056,
                    "duration": 0.086517333984375
                },
                {
                    "name": "F#4",
                    "midi": 66,
                    "time": 219.60708618164062,
                    "velocity": 0.937007874015748,
                    "duration": 0.2178955078125
                },
                {
                    "name": "F#3",
                    "midi": 54,
                    "time": 219.62814331054688,
                    "velocity": 0.9763779527559056,
                    "duration": 0.102996826171875
                },
                {
                    "name": "G3",
                    "midi": 55,
                    "time": 219.7412109375,
                    "velocity": 0.9763779527559056,
                    "duration": 0.10894775390625
                },
                {
                    "name": "E4",
                    "midi": 64,
                    "time": 219.8602294921875,
                    "velocity": 0.9921259842519685,
                    "duration": 0.463714599609375
                },
                {
                    "name": "A3",
                    "midi": 57,
                    "time": 219.8602294921875,
                    "velocity": 0.9921259842519685,
                    "duration": 0.108489990234375
                },
                {
                    "name": "B3",
                    "midi": 59,
                    "time": 219.97879028320312,
                    "velocity": 0.9763779527559056,
                    "duration": 0.102081298828125
                },
                {
                    "name": "C#4",
                    "midi": 61,
                    "time": 220.0909423828125,
                    "velocity": 0.9763779527559056,
                    "duration": 0.102996826171875
                },
                {
                    "name": "B3",
                    "midi": 59,
                    "time": 220.20355224609375,
                    "velocity": 0.9763779527559056,
                    "duration": 0.11077880859375
                },
                {
                    "name": "C#5",
                    "midi": 73,
                    "time": 220.32440185546875,
                    "velocity": 1,
                    "duration": 0.4632568359375
                },
                {
                    "name": "A#3",
                    "midi": 58,
                    "time": 220.32440185546875,
                    "velocity": 1,
                    "duration": 0.11077880859375
                },
                {
                    "name": "C#4",
                    "midi": 61,
                    "time": 220.44525146484375,
                    "velocity": 0.9763779527559056,
                    "duration": 0.102081298828125
                },
                {
                    "name": "F#4",
                    "midi": 66,
                    "time": 220.55740356445312,
                    "velocity": 0.9763779527559056,
                    "duration": 0.102996826171875
                },
                {
                    "name": "C#4",
                    "midi": 61,
                    "time": 220.67001342773438,
                    "velocity": 0.9763779527559056,
                    "duration": 0.108489990234375
                },
                {
                    "name": "E4",
                    "midi": 64,
                    "time": 220.78811645507812,
                    "velocity": 0.8976377952755905,
                    "duration": 0.21148681640625
                },
                {
                    "name": "A#3",
                    "midi": 58,
                    "time": 220.78811645507812,
                    "velocity": 0.9921259842519685,
                    "duration": 0.1080322265625
                },
                {
                    "name": "C#4",
                    "midi": 61,
                    "time": 220.90576171875,
                    "velocity": 0.9763779527559056,
                    "duration": 0.102996826171875
                },
                {
                    "name": "E4",
                    "midi": 64,
                    "time": 221.01837158203125,
                    "velocity": 0.8818897637795275,
                    "duration": 0.212860107421875
                },
                {
                    "name": "F#3",
                    "midi": 54,
                    "time": 221.01837158203125,
                    "velocity": 0.9763779527559056,
                    "duration": 0.102996826171875
                },
                {
                    "name": "A#3",
                    "midi": 58,
                    "time": 221.1309814453125,
                    "velocity": 0.9763779527559056,
                    "duration": 0.109405517578125
                },
                {
                    "name": "F#4",
                    "midi": 66,
                    "time": 221.25,
                    "velocity": 1,
                    "duration": 0.085601806640625
                },
                {
                    "name": "B2",
                    "midi": 47,
                    "time": 221.25228881835938,
                    "velocity": 1,
                    "duration": 0.12725830078125
                },
                {
                    "name": "E4",
                    "midi": 64,
                    "time": 221.32644653320312,
                    "velocity": 0.9763779527559056,
                    "duration": 0.085601806640625
                },
                {
                    "name": "F#3",
                    "midi": 54,
                    "time": 221.38961791992188,
                    "velocity": 0.9763779527559056,
                    "duration": 0.10345458984375
                },
                {
                    "name": "F#4",
                    "midi": 66,
                    "time": 221.40289306640625,
                    "velocity": 0.9763779527559056,
                    "duration": 0.085601806640625
                },
                {
                    "name": "E4",
                    "midi": 64,
                    "time": 221.47933959960938,
                    "velocity": 0.937007874015748,
                    "duration": 0.22064208984375
                },
                {
                    "name": "G3",
                    "midi": 55,
                    "time": 221.50314331054688,
                    "velocity": 0.9763779527559056,
                    "duration": 0.102996826171875
                },
                {
                    "name": "A3",
                    "midi": 57,
                    "time": 221.6162109375,
                    "velocity": 0.9763779527559056,
                    "duration": 0.10894775390625
                },
                {
                    "name": "D4",
                    "midi": 62,
                    "time": 221.7352294921875,
                    "velocity": 0.9921259842519685,
                    "duration": 0.463714599609375
                },
                {
                    "name": "B3",
                    "midi": 59,
                    "time": 221.7352294921875,
                    "velocity": 0.9921259842519685,
                    "duration": 0.108489990234375
                },
                {
                    "name": "F#3",
                    "midi": 54,
                    "time": 221.85379028320312,
                    "velocity": 0.9763779527559056,
                    "duration": 0.102081298828125
                },
                {
                    "name": "D3",
                    "midi": 50,
                    "time": 221.9659423828125,
                    "velocity": 0.9763779527559056,
                    "duration": 0.102996826171875
                },
                {
                    "name": "F#3",
                    "midi": 54,
                    "time": 222.07855224609375,
                    "velocity": 0.9763779527559056,
                    "duration": 0.11077880859375
                },
                {
                    "name": "B4",
                    "midi": 71,
                    "time": 222.19940185546875,
                    "velocity": 1,
                    "duration": 0.4632568359375
                },
                {
                    "name": "G2",
                    "midi": 43,
                    "time": 222.19940185546875,
                    "velocity": 1,
                    "duration": 0.11077880859375
                },
                {
                    "name": "D3",
                    "midi": 50,
                    "time": 222.32025146484375,
                    "velocity": 0.9763779527559056,
                    "duration": 0.102081298828125
                },
                {
                    "name": "E3",
                    "midi": 52,
                    "time": 222.43240356445312,
                    "velocity": 0.9763779527559056,
                    "duration": 0.102996826171875
                },
                {
                    "name": "F#3",
                    "midi": 54,
                    "time": 222.54501342773438,
                    "velocity": 0.9763779527559056,
                    "duration": 0.108489990234375
                },
                {
                    "name": "B3",
                    "midi": 59,
                    "time": 222.66311645507812,
                    "velocity": 0.9921259842519685,
                    "duration": 0.21148681640625
                },
                {
                    "name": "G3",
                    "midi": 55,
                    "time": 222.66311645507812,
                    "velocity": 0.9921259842519685,
                    "duration": 0.1080322265625
                },
                {
                    "name": "D3",
                    "midi": 50,
                    "time": 222.78076171875,
                    "velocity": 0.9763779527559056,
                    "duration": 0.102996826171875
                },
                {
                    "name": "B3",
                    "midi": 59,
                    "time": 222.89337158203125,
                    "velocity": 0.9763779527559056,
                    "duration": 0.212860107421875
                },
                {
                    "name": "B2",
                    "midi": 47,
                    "time": 222.89337158203125,
                    "velocity": 0.9763779527559056,
                    "duration": 0.102996826171875
                },
                {
                    "name": "D3",
                    "midi": 50,
                    "time": 223.0059814453125,
                    "velocity": 0.9763779527559056,
                    "duration": 0.109405517578125
                },
                {
                    "name": "B3",
                    "midi": 59,
                    "time": 223.12728881835938,
                    "velocity": 1,
                    "duration": 0.232086181640625
                },
                {
                    "name": "D2",
                    "midi": 38,
                    "time": 223.12728881835938,
                    "velocity": 1,
                    "duration": 0.12725830078125
                },
                {
                    "name": "D3",
                    "midi": 50,
                    "time": 223.26461791992188,
                    "velocity": 0.9763779527559056,
                    "duration": 0.10345458984375
                },
                {
                    "name": "B4",
                    "midi": 71,
                    "time": 223.37814331054688,
                    "velocity": 0.9763779527559056,
                    "duration": 0.21331787109375
                },
                {
                    "name": "F#3",
                    "midi": 54,
                    "time": 223.37814331054688,
                    "velocity": 0.9763779527559056,
                    "duration": 0.102996826171875
                },
                {
                    "name": "D3",
                    "midi": 50,
                    "time": 223.4912109375,
                    "velocity": 0.9763779527559056,
                    "duration": 0.10894775390625
                },
                {
                    "name": "B3",
                    "midi": 59,
                    "time": 223.6102294921875,
                    "velocity": 0.9921259842519685,
                    "duration": 0.211944580078125
                },
                {
                    "name": "D2",
                    "midi": 38,
                    "time": 223.6102294921875,
                    "velocity": 0.9763779527559056,
                    "duration": 0.108489990234375
                },
                {
                    "name": "D3",
                    "midi": 50,
                    "time": 223.72879028320312,
                    "velocity": 0.9763779527559056,
                    "duration": 0.102081298828125
                },
                {
                    "name": "C#4",
                    "midi": 61,
                    "time": 223.8409423828125,
                    "velocity": 0.9763779527559056,
                    "duration": 0.214691162109375
                },
                {
                    "name": "F#3",
                    "midi": 54,
                    "time": 223.8409423828125,
                    "velocity": 0.9763779527559056,
                    "duration": 0.102996826171875
                },
                {
                    "name": "D3",
                    "midi": 50,
                    "time": 223.95355224609375,
                    "velocity": 0.9763779527559056,
                    "duration": 0.11077880859375
                },
                {
                    "name": "D4",
                    "midi": 62,
                    "time": 224.07440185546875,
                    "velocity": 1,
                    "duration": 0.2142333984375
                },
                {
                    "name": "B1",
                    "midi": 35,
                    "time": 224.07440185546875,
                    "velocity": 0.9763779527559056,
                    "duration": 0.11077880859375
                },
                {
                    "name": "B2",
                    "midi": 47,
                    "time": 224.19525146484375,
                    "velocity": 0.9763779527559056,
                    "duration": 0.102081298828125
                },
                {
                    "name": "C#4",
                    "midi": 61,
                    "time": 224.30740356445312,
                    "velocity": 0.9763779527559056,
                    "duration": 0.211944580078125
                },
                {
                    "name": "D3",
                    "midi": 50,
                    "time": 224.30740356445312,
                    "velocity": 0.9763779527559056,
                    "duration": 0.102996826171875
                },
                {
                    "name": "B2",
                    "midi": 47,
                    "time": 224.42001342773438,
                    "velocity": 0.9763779527559056,
                    "duration": 0.108489990234375
                },
                {
                    "name": "D4",
                    "midi": 62,
                    "time": 224.53811645507812,
                    "velocity": 0.9921259842519685,
                    "duration": 0.21148681640625
                },
                {
                    "name": "G2",
                    "midi": 43,
                    "time": 224.53811645507812,
                    "velocity": 0.984251968503937,
                    "duration": 0.1080322265625
                },
                {
                    "name": "B2",
                    "midi": 47,
                    "time": 224.65576171875,
                    "velocity": 0.9763779527559056,
                    "duration": 0.102996826171875
                },
                {
                    "name": "F#4",
                    "midi": 66,
                    "time": 224.765625,
                    "velocity": 0.9763779527559056,
                    "duration": 0.065460205078125
                },
                {
                    "name": "C#3",
                    "midi": 49,
                    "time": 224.76837158203125,
                    "velocity": 0.9763779527559056,
                    "duration": 0.102996826171875
                },
                {
                    "name": "E4",
                    "midi": 64,
                    "time": 224.82421875,
                    "velocity": 0.9763779527559056,
                    "duration": 0.065460205078125
                },
                {
                    "name": "B2",
                    "midi": 47,
                    "time": 224.8809814453125,
                    "velocity": 0.9763779527559056,
                    "duration": 0.109405517578125
                },
                {
                    "name": "D#4",
                    "midi": 63,
                    "time": 224.8828125,
                    "velocity": 0.9763779527559056,
                    "duration": 0.065460205078125
                },
                {
                    "name": "E4",
                    "midi": 64,
                    "time": 224.94140625,
                    "velocity": 0.937007874015748,
                    "duration": 0.05401611328125
                },
                {
                    "name": "F#4",
                    "midi": 66,
                    "time": 225.00228881835938,
                    "velocity": 1,
                    "duration": 0.9466552734375
                },
                {
                    "name": "F#2",
                    "midi": 42,
                    "time": 225.00228881835938,
                    "velocity": 1,
                    "duration": 0.12725830078125
                },
                {
                    "name": "B2",
                    "midi": 47,
                    "time": 225.13961791992188,
                    "velocity": 0.9763779527559056,
                    "duration": 0.10345458984375
                },
                {
                    "name": "A#2",
                    "midi": 46,
                    "time": 225.25314331054688,
                    "velocity": 0.9763779527559056,
                    "duration": 0.102996826171875
                },
                {
                    "name": "D3",
                    "midi": 50,
                    "time": 225.3662109375,
                    "velocity": 0.9763779527559056,
                    "duration": 0.10894775390625
                },
                {
                    "name": "C#3",
                    "midi": 49,
                    "time": 225.4852294921875,
                    "velocity": 0.9921259842519685,
                    "duration": 0.108489990234375
                },
                {
                    "name": "G3",
                    "midi": 55,
                    "time": 225.60379028320312,
                    "velocity": 0.9763779527559056,
                    "duration": 0.102081298828125
                },
                {
                    "name": "F#3",
                    "midi": 54,
                    "time": 225.7159423828125,
                    "velocity": 0.9763779527559056,
                    "duration": 0.102996826171875
                },
                {
                    "name": "B3",
                    "midi": 59,
                    "time": 225.82855224609375,
                    "velocity": 0.9763779527559056,
                    "duration": 0.11077880859375
                },
                {
                    "name": "F#5",
                    "midi": 78,
                    "time": 225.94940185546875,
                    "velocity": 1,
                    "duration": 0.4632568359375
                },
                {
                    "name": "A#3",
                    "midi": 58,
                    "time": 225.94940185546875,
                    "velocity": 1,
                    "duration": 0.11077880859375
                },
                {
                    "name": "B3",
                    "midi": 59,
                    "time": 226.07025146484375,
                    "velocity": 0.9763779527559056,
                    "duration": 0.102081298828125
                },
                {
                    "name": "C#4",
                    "midi": 61,
                    "time": 226.18240356445312,
                    "velocity": 0.9763779527559056,
                    "duration": 0.102996826171875
                },
                {
                    "name": "B3",
                    "midi": 59,
                    "time": 226.29501342773438,
                    "velocity": 0.9763779527559056,
                    "duration": 0.108489990234375
                },
                {
                    "name": "F#4",
                    "midi": 66,
                    "time": 226.41311645507812,
                    "velocity": 0.9921259842519685,
                    "duration": 0.21148681640625
                },
                {
                    "name": "A#3",
                    "midi": 58,
                    "time": 226.41311645507812,
                    "velocity": 0.9921259842519685,
                    "duration": 0.1080322265625
                },
                {
                    "name": "G#3",
                    "midi": 56,
                    "time": 226.53076171875,
                    "velocity": 0.9763779527559056,
                    "duration": 0.102996826171875
                },
                {
                    "name": "F#4",
                    "midi": 66,
                    "time": 226.64337158203125,
                    "velocity": 0.9763779527559056,
                    "duration": 0.212860107421875
                },
                {
                    "name": "F#3",
                    "midi": 54,
                    "time": 226.64337158203125,
                    "velocity": 0.9763779527559056,
                    "duration": 0.102996826171875
                },
                {
                    "name": "C#4",
                    "midi": 61,
                    "time": 226.7559814453125,
                    "velocity": 0.9763779527559056,
                    "duration": 0.109405517578125
                },
                {
                    "name": "C#5",
                    "midi": 73,
                    "time": 226.87728881835938,
                    "velocity": 1,
                    "duration": 0.232086181640625
                },
                {
                    "name": "E3",
                    "midi": 52,
                    "time": 226.87728881835938,
                    "velocity": 1,
                    "duration": 0.12725830078125
                },
                {
                    "name": "G3",
                    "midi": 55,
                    "time": 227.01461791992188,
                    "velocity": 0.9763779527559056,
                    "duration": 0.10345458984375
                },
                {
                    "name": "B4",
                    "midi": 71,
                    "time": 227.12814331054688,
                    "velocity": 0.9763779527559056,
                    "duration": 0.21331787109375
                },
                {
                    "name": "F#3",
                    "midi": 54,
                    "time": 227.12814331054688,
                    "velocity": 0.9763779527559056,
                    "duration": 0.102996826171875
                },
                {
                    "name": "G3",
                    "midi": 55,
                    "time": 227.2412109375,
                    "velocity": 0.9763779527559056,
                    "duration": 0.10894775390625
                },
                {
                    "name": "C#5",
                    "midi": 73,
                    "time": 227.3602294921875,
                    "velocity": 0.9921259842519685,
                    "duration": 0.211944580078125
                },
                {
                    "name": "E4",
                    "midi": 64,
                    "time": 227.3602294921875,
                    "velocity": 0.9921259842519685,
                    "duration": 0.108489990234375
                },
                {
                    "name": "G3",
                    "midi": 55,
                    "time": 227.47879028320312,
                    "velocity": 0.9763779527559056,
                    "duration": 0.102081298828125
                },
                {
                    "name": "D5",
                    "midi": 74,
                    "time": 227.5909423828125,
                    "velocity": 0.9763779527559056,
                    "duration": 0.214691162109375
                },
                {
                    "name": "F#3",
                    "midi": 54,
                    "time": 227.5909423828125,
                    "velocity": 0.9763779527559056,
                    "duration": 0.102996826171875
                },
                {
                    "name": "G3",
                    "midi": 55,
                    "time": 227.70355224609375,
                    "velocity": 0.9763779527559056,
                    "duration": 0.11077880859375
                },
                {
                    "name": "C#5",
                    "midi": 73,
                    "time": 227.82440185546875,
                    "velocity": 1,
                    "duration": 0.34515380859375
                },
                {
                    "name": "E3",
                    "midi": 52,
                    "time": 227.82440185546875,
                    "velocity": 1,
                    "duration": 0.11077880859375
                },
                {
                    "name": "B3",
                    "midi": 59,
                    "time": 227.94525146484375,
                    "velocity": 0.9763779527559056,
                    "duration": 0.102081298828125
                },
                {
                    "name": "A#3",
                    "midi": 58,
                    "time": 228.05740356445312,
                    "velocity": 0.9763779527559056,
                    "duration": 0.102996826171875
                },
                {
                    "name": "D5",
                    "midi": 74,
                    "time": 228.17001342773438,
                    "velocity": 0.9763779527559056,
                    "duration": 0.108489990234375
                },
                {
                    "name": "B3",
                    "midi": 59,
                    "time": 228.17001342773438,
                    "velocity": 0.9763779527559056,
                    "duration": 0.108489990234375
                },
                {
                    "name": "E5",
                    "midi": 76,
                    "time": 228.28811645507812,
                    "velocity": 0.9921259842519685,
                    "duration": 0.054931640625
                },
                {
                    "name": "F#3",
                    "midi": 54,
                    "time": 228.28811645507812,
                    "velocity": 0.9921259842519685,
                    "duration": 0.1080322265625
                },
                {
                    "name": "D#5",
                    "midi": 75,
                    "time": 228.34854125976562,
                    "velocity": 0.9763779527559056,
                    "duration": 0.051727294921875
                },
                {
                    "name": "E5",
                    "midi": 76,
                    "time": 228.40576171875,
                    "velocity": 0.9763779527559056,
                    "duration": 0.05126953125
                },
                {
                    "name": "B3",
                    "midi": 59,
                    "time": 228.40576171875,
                    "velocity": 0.9763779527559056,
                    "duration": 0.102996826171875
                },
                {
                    "name": "D#5",
                    "midi": 75,
                    "time": 228.46206665039062,
                    "velocity": 0.9763779527559056,
                    "duration": 0.05126953125
                },
                {
                    "name": "E5",
                    "midi": 76,
                    "time": 228.51837158203125,
                    "velocity": 0.9763779527559056,
                    "duration": 0.050811767578125
                },
                {
                    "name": "A#3",
                    "midi": 58,
                    "time": 228.51837158203125,
                    "velocity": 0.9763779527559056,
                    "duration": 0.102996826171875
                },
                {
                    "name": "D#5",
                    "midi": 75,
                    "time": 228.57421875,
                    "velocity": 0.9763779527559056,
                    "duration": 0.051727294921875
                },
                {
                    "name": "C#5",
                    "midi": 73,
                    "time": 228.6309814453125,
                    "velocity": 0.9763779527559056,
                    "duration": 0.05218505859375
                },
                {
                    "name": "B3",
                    "midi": 59,
                    "time": 228.6309814453125,
                    "velocity": 0.9763779527559056,
                    "duration": 0.109405517578125
                },
                {
                    "name": "D#5",
                    "midi": 75,
                    "time": 228.68820190429688,
                    "velocity": 0.9763779527559056,
                    "duration": 0.0567626953125
                },
                {
                    "name": "E5",
                    "midi": 76,
                    "time": 228.75228881835938,
                    "velocity": 1,
                    "duration": 0.48248291015625
                },
                {
                    "name": "G3",
                    "midi": 55,
                    "time": 228.75228881835938,
                    "velocity": 1,
                    "duration": 0.12725830078125
                },
                {
                    "name": "B3",
                    "midi": 59,
                    "time": 228.88961791992188,
                    "velocity": 0.9763779527559056,
                    "duration": 0.10345458984375
                },
                {
                    "name": "A#3",
                    "midi": 58,
                    "time": 229.00314331054688,
                    "velocity": 0.9763779527559056,
                    "duration": 0.102996826171875
                },
                {
                    "name": "B3",
                    "midi": 59,
                    "time": 229.1162109375,
                    "velocity": 0.9763779527559056,
                    "duration": 0.10894775390625
                },
                {
                    "name": "G5",
                    "midi": 79,
                    "time": 229.2352294921875,
                    "velocity": 0.9921259842519685,
                    "duration": 0.05584716796875
                },
                {
                    "name": "F#3",
                    "midi": 54,
                    "time": 229.2352294921875,
                    "velocity": 0.9921259842519685,
                    "duration": 0.108489990234375
                },
                {
                    "name": "F#5",
                    "midi": 78,
                    "time": 229.29656982421875,
                    "velocity": 0.9763779527559056,
                    "duration": 0.051727294921875
                },
                {
                    "name": "G5",
                    "midi": 79,
                    "time": 229.35379028320312,
                    "velocity": 0.9763779527559056,
                    "duration": 0.050811767578125
                },
                {
                    "name": "B3",
                    "midi": 59,
                    "time": 229.35379028320312,
                    "velocity": 0.9763779527559056,
                    "duration": 0.102081298828125
                },
                {
                    "name": "F#5",
                    "midi": 78,
                    "time": 229.41009521484375,
                    "velocity": 0.9763779527559056,
                    "duration": 0.05035400390625
                },
                {
                    "name": "G5",
                    "midi": 79,
                    "time": 229.4659423828125,
                    "velocity": 0.9763779527559056,
                    "duration": 0.050811767578125
                },
                {
                    "name": "A#3",
                    "midi": 58,
                    "time": 229.4659423828125,
                    "velocity": 0.9763779527559056,
                    "duration": 0.102996826171875
                },
                {
                    "name": "F#5",
                    "midi": 78,
                    "time": 229.52224731445312,
                    "velocity": 0.9763779527559056,
                    "duration": 0.050811767578125
                },
                {
                    "name": "E5",
                    "midi": 76,
                    "time": 229.57855224609375,
                    "velocity": 0.9763779527559056,
                    "duration": 0.051727294921875
                },
                {
                    "name": "B3",
                    "midi": 59,
                    "time": 229.57855224609375,
                    "velocity": 0.9763779527559056,
                    "duration": 0.11077880859375
                },
                {
                    "name": "F#5",
                    "midi": 78,
                    "time": 229.63577270507812,
                    "velocity": 0.9763779527559056,
                    "duration": 0.058135986328125
                },
                {
                    "name": "G5",
                    "midi": 79,
                    "time": 229.69940185546875,
                    "velocity": 1,
                    "duration": 0.2142333984375
                },
                {
                    "name": "E3",
                    "midi": 52,
                    "time": 229.69940185546875,
                    "velocity": 1,
                    "duration": 0.11077880859375
                },
                {
                    "name": "E4",
                    "midi": 64,
                    "time": 229.82025146484375,
                    "velocity": 0.9763779527559056,
                    "duration": 0.102081298828125
                },
                {
                    "name": "B5",
                    "midi": 83,
                    "time": 229.93240356445312,
                    "velocity": 0.9763779527559056,
                    "duration": 0.211944580078125
                },
                {
                    "name": "G4",
                    "midi": 67,
                    "time": 229.93240356445312,
                    "velocity": 0.9763779527559056,
                    "duration": 0.102996826171875
                },
                {
                    "name": "E4",
                    "midi": 64,
                    "time": 230.04501342773438,
                    "velocity": 0.9763779527559056,
                    "duration": 0.108489990234375
                },
                {
                    "name": "B4",
                    "midi": 71,
                    "time": 230.16311645507812,
                    "velocity": 0.9921259842519685,
                    "duration": 0.21148681640625
                },
                {
                    "name": "G3",
                    "midi": 55,
                    "time": 230.16311645507812,
                    "velocity": 0.9921259842519685,
                    "duration": 0.1080322265625
                },
                {
                    "name": "E4",
                    "midi": 64,
                    "time": 230.28076171875,
                    "velocity": 0.9763779527559056,
                    "duration": 0.102996826171875
                },
                {
                    "name": "B4",
                    "midi": 71,
                    "time": 230.39337158203125,
                    "velocity": 0.9763779527559056,
                    "duration": 0.212860107421875
                },
                {
                    "name": "G4",
                    "midi": 67,
                    "time": 230.39337158203125,
                    "velocity": 0.9763779527559056,
                    "duration": 0.102996826171875
                },
                {
                    "name": "E4",
                    "midi": 64,
                    "time": 230.5059814453125,
                    "velocity": 0.9763779527559056,
                    "duration": 0.109405517578125
                },
                {
                    "name": "B4",
                    "midi": 71,
                    "time": 230.62728881835938,
                    "velocity": 1,
                    "duration": 0.232086181640625
                },
                {
                    "name": "E3",
                    "midi": 52,
                    "time": 230.62728881835938,
                    "velocity": 1,
                    "duration": 0.12725830078125
                },
                {
                    "name": "E4",
                    "midi": 64,
                    "time": 230.76461791992188,
                    "velocity": 0.9763779527559056,
                    "duration": 0.10345458984375
                },
                {
                    "name": "B5",
                    "midi": 83,
                    "time": 230.87814331054688,
                    "velocity": 0.9763779527559056,
                    "duration": 0.21331787109375
                },
                {
                    "name": "G4",
                    "midi": 67,
                    "time": 230.87814331054688,
                    "velocity": 0.9763779527559056,
                    "duration": 0.102996826171875
                },
                {
                    "name": "E4",
                    "midi": 64,
                    "time": 230.9912109375,
                    "velocity": 0.9763779527559056,
                    "duration": 0.10894775390625
                },
                {
                    "name": "B4",
                    "midi": 71,
                    "time": 231.1102294921875,
                    "velocity": 0.9921259842519685,
                    "duration": 0.211944580078125
                },
                {
                    "name": "G3",
                    "midi": 55,
                    "time": 231.1102294921875,
                    "velocity": 0.9921259842519685,
                    "duration": 0.108489990234375
                },
                {
                    "name": "E4",
                    "midi": 64,
                    "time": 231.22879028320312,
                    "velocity": 0.9763779527559056,
                    "duration": 0.102081298828125
                },
                {
                    "name": "C#5",
                    "midi": 73,
                    "time": 231.3409423828125,
                    "velocity": 0.9763779527559056,
                    "duration": 0.214691162109375
                },
                {
                    "name": "E3",
                    "midi": 52,
                    "time": 231.3409423828125,
                    "velocity": 0.9763779527559056,
                    "duration": 0.102996826171875
                },
                {
                    "name": "E4",
                    "midi": 64,
                    "time": 231.45355224609375,
                    "velocity": 0.9763779527559056,
                    "duration": 0.11077880859375
                },
                {
                    "name": "D5",
                    "midi": 74,
                    "time": 231.5625,
                    "velocity": 1,
                    "duration": 0.084228515625
                },
                {
                    "name": "B3",
                    "midi": 59,
                    "time": 231.57440185546875,
                    "velocity": 1,
                    "duration": 0.11077880859375
                },
                {
                    "name": "C#5",
                    "midi": 73,
                    "time": 231.63803100585938,
                    "velocity": 0.9763779527559056,
                    "duration": 0.084228515625
                },
                {
                    "name": "F#4",
                    "midi": 66,
                    "time": 231.69525146484375,
                    "velocity": 0.9763779527559056,
                    "duration": 0.102081298828125
                },
                {
                    "name": "D5",
                    "midi": 74,
                    "time": 231.71356201171875,
                    "velocity": 0.937007874015748,
                    "duration": 0.076904296875
                },
                {
                    "name": "E5",
                    "midi": 76,
                    "time": 231.80740356445312,
                    "velocity": 0.9763779527559056,
                    "duration": 0.211944580078125
                },
                {
                    "name": "G4",
                    "midi": 67,
                    "time": 231.80740356445312,
                    "velocity": 0.9763779527559056,
                    "duration": 0.102996826171875
                },
                {
                    "name": "F#4",
                    "midi": 66,
                    "time": 231.92001342773438,
                    "velocity": 0.9763779527559056,
                    "duration": 0.108489990234375
                },
                {
                    "name": "C#5",
                    "midi": 73,
                    "time": 232.03811645507812,
                    "velocity": 0.9921259842519685,
                    "duration": 0.21148681640625
                },
                {
                    "name": "F#3",
                    "midi": 54,
                    "time": 232.03811645507812,
                    "velocity": 0.9921259842519685,
                    "duration": 0.1080322265625
                },
                {
                    "name": "F#4",
                    "midi": 66,
                    "time": 232.15576171875,
                    "velocity": 0.9763779527559056,
                    "duration": 0.102996826171875
                },
                {
                    "name": "D5",
                    "midi": 74,
                    "time": 232.26837158203125,
                    "velocity": 0.9763779527559056,
                    "duration": 0.212860107421875
                },
                {
                    "name": "G4",
                    "midi": 67,
                    "time": 232.26837158203125,
                    "velocity": 0.9763779527559056,
                    "duration": 0.102996826171875
                },
                {
                    "name": "F#4",
                    "midi": 66,
                    "time": 232.3809814453125,
                    "velocity": 0.9763779527559056,
                    "duration": 0.109405517578125
                },
                {
                    "name": "C#5",
                    "midi": 73,
                    "time": 232.5,
                    "velocity": 1,
                    "duration": 0.0860595703125
                },
                {
                    "name": "B2",
                    "midi": 47,
                    "time": 232.50228881835938,
                    "velocity": 1,
                    "duration": 0.12725830078125
                },
                {
                    "name": "B4",
                    "midi": 71,
                    "time": 232.576904296875,
                    "velocity": 0.9763779527559056,
                    "duration": 0.0860595703125
                },
                {
                    "name": "D4",
                    "midi": 62,
                    "time": 232.63961791992188,
                    "velocity": 0.9763779527559056,
                    "duration": 0.10345458984375
                },
                {
                    "name": "C#5",
                    "midi": 73,
                    "time": 232.65380859375,
                    "velocity": 0.9763779527559056,
                    "duration": 0.0860595703125
                },
                {
                    "name": "B4",
                    "midi": 71,
                    "time": 232.730712890625,
                    "velocity": 0.937007874015748,
                    "duration": 0.706787109375
                },
                {
                    "name": "F#4",
                    "midi": 66,
                    "time": 232.75314331054688,
                    "velocity": 0.9763779527559056,
                    "duration": 0.102996826171875
                },
                {
                    "name": "D4",
                    "midi": 62,
                    "time": 232.8662109375,
                    "velocity": 0.9763779527559056,
                    "duration": 0.10894775390625
                },
                {
                    "name": "B3",
                    "midi": 59,
                    "time": 232.9852294921875,
                    "velocity": 0.9921259842519685,
                    "duration": 0.108489990234375
                },
                {
                    "name": "D4",
                    "midi": 62,
                    "time": 233.10379028320312,
                    "velocity": 0.9763779527559056,
                    "duration": 0.102081298828125
                },
                {
                    "name": "F#3",
                    "midi": 54,
                    "time": 233.2159423828125,
                    "velocity": 0.9763779527559056,
                    "duration": 0.102996826171875
                },
                {
                    "name": "A3",
                    "midi": 57,
                    "time": 233.32855224609375,
                    "velocity": 0.9763779527559056,
                    "duration": 0.11077880859375
                },
                {
                    "name": "E5",
                    "midi": 76,
                    "time": 233.44940185546875,
                    "velocity": 1,
                    "duration": 0.4632568359375
                },
                {
                    "name": "G#3",
                    "midi": 56,
                    "time": 233.44940185546875,
                    "velocity": 1,
                    "duration": 0.11077880859375
                },
                {
                    "name": "E4",
                    "midi": 64,
                    "time": 233.57025146484375,
                    "velocity": 0.9763779527559056,
                    "duration": 0.102081298828125
                },
                {
                    "name": "B3",
                    "midi": 59,
                    "time": 233.68240356445312,
                    "velocity": 0.9763779527559056,
                    "duration": 0.102996826171875
                },
                {
                    "name": "G#3",
                    "midi": 56,
                    "time": 233.79501342773438,
                    "velocity": 0.9763779527559056,
                    "duration": 0.108489990234375
                },
                {
                    "name": "E4",
                    "midi": 64,
                    "time": 233.91311645507812,
                    "velocity": 0.9921259842519685,
                    "duration": 0.21148681640625
                },
                {
                    "name": "E3",
                    "midi": 52,
                    "time": 233.91311645507812,
                    "velocity": 0.9921259842519685,
                    "duration": 0.1080322265625
                },
                {
                    "name": "B2",
                    "midi": 47,
                    "time": 234.03076171875,
                    "velocity": 0.9763779527559056,
                    "duration": 0.102996826171875
                },
                {
                    "name": "D5",
                    "midi": 74,
                    "time": 234.14337158203125,
                    "velocity": 0.9763779527559056,
                    "duration": 0.212860107421875
                },
                {
                    "name": "G#2",
                    "midi": 44,
                    "time": 234.14337158203125,
                    "velocity": 0.9763779527559056,
                    "duration": 0.102996826171875
                },
                {
                    "name": "E2",
                    "midi": 40,
                    "time": 234.2559814453125,
                    "velocity": 0.968503937007874,
                    "duration": 0.109405517578125
                },
                {
                    "name": "C#5",
                    "midi": 73,
                    "time": 234.37728881835938,
                    "velocity": 1,
                    "duration": 0.232086181640625
                },
                {
                    "name": "A1",
                    "midi": 33,
                    "time": 234.37728881835938,
                    "velocity": 0.9763779527559056,
                    "duration": 0.12725830078125
                },
                {
                    "name": "E2",
                    "midi": 40,
                    "time": 234.51461791992188,
                    "velocity": 0.968503937007874,
                    "duration": 0.10345458984375
                },
                {
                    "name": "E5",
                    "midi": 76,
                    "time": 234.62814331054688,
                    "velocity": 0.9763779527559056,
                    "duration": 0.21331787109375
                },
                {
                    "name": "A2",
                    "midi": 45,
                    "time": 234.62814331054688,
                    "velocity": 0.9763779527559056,
                    "duration": 0.102996826171875
                },
                {
                    "name": "C#3",
                    "midi": 49,
                    "time": 234.7412109375,
                    "velocity": 0.9763779527559056,
                    "duration": 0.10894775390625
                },
                {
                    "name": "A4",
                    "midi": 69,
                    "time": 234.8602294921875,
                    "velocity": 0.9921259842519685,
                    "duration": 0.211944580078125
                },
                {
                    "name": "E3",
                    "midi": 52,
                    "time": 234.8602294921875,
                    "velocity": 0.9921259842519685,
                    "duration": 0.108489990234375
                },
                {
                    "name": "A3",
                    "midi": 57,
                    "time": 234.97879028320312,
                    "velocity": 0.9763779527559056,
                    "duration": 0.102081298828125
                },
                {
                    "name": "A4",
                    "midi": 69,
                    "time": 235.0909423828125,
                    "velocity": 0.9763779527559056,
                    "duration": 0.214691162109375
                },
                {
                    "name": "C#4",
                    "midi": 61,
                    "time": 235.0909423828125,
                    "velocity": 0.9763779527559056,
                    "duration": 0.102996826171875
                },
                {
                    "name": "E4",
                    "midi": 64,
                    "time": 235.20355224609375,
                    "velocity": 0.9763779527559056,
                    "duration": 0.11077880859375
                },
                {
                    "name": "A4",
                    "midi": 69,
                    "time": 235.32440185546875,
                    "velocity": 1,
                    "duration": 0.2142333984375
                },
                {
                    "name": "C#4",
                    "midi": 61,
                    "time": 235.32440185546875,
                    "velocity": 1,
                    "duration": 0.11077880859375
                },
                {
                    "name": "A3",
                    "midi": 57,
                    "time": 235.44525146484375,
                    "velocity": 0.9763779527559056,
                    "duration": 0.102081298828125
                },
                {
                    "name": "E5",
                    "midi": 76,
                    "time": 235.55740356445312,
                    "velocity": 0.9763779527559056,
                    "duration": 0.211944580078125
                },
                {
                    "name": "E3",
                    "midi": 52,
                    "time": 235.55740356445312,
                    "velocity": 0.9763779527559056,
                    "duration": 0.102996826171875
                },
                {
                    "name": "C#3",
                    "midi": 49,
                    "time": 235.67001342773438,
                    "velocity": 0.9763779527559056,
                    "duration": 0.108489990234375
                },
                {
                    "name": "G4",
                    "midi": 67,
                    "time": 235.78811645507812,
                    "velocity": 0.9921259842519685,
                    "duration": 0.21148681640625
                },
                {
                    "name": "A2",
                    "midi": 45,
                    "time": 235.78811645507812,
                    "velocity": 0.984251968503937,
                    "duration": 0.1080322265625
                },
                {
                    "name": "E2",
                    "midi": 40,
                    "time": 235.90576171875,
                    "velocity": 0.968503937007874,
                    "duration": 0.102996826171875
                },
                {
                    "name": "G4",
                    "midi": 67,
                    "time": 236.01837158203125,
                    "velocity": 0.9763779527559056,
                    "duration": 0.212860107421875
                },
                {
                    "name": "A1",
                    "midi": 33,
                    "time": 236.01837158203125,
                    "velocity": 0.937007874015748,
                    "duration": 0.102996826171875
                },
                {
                    "name": "A2",
                    "midi": 45,
                    "time": 236.1309814453125,
                    "velocity": 0.9763779527559056,
                    "duration": 0.109405517578125
                },
                {
                    "name": "A4",
                    "midi": 69,
                    "time": 236.25,
                    "velocity": 1,
                    "duration": 0.0860595703125
                },
                {
                    "name": "D2",
                    "midi": 38,
                    "time": 236.25228881835938,
                    "velocity": 1,
                    "duration": 0.12725830078125
                },
                {
                    "name": "G4",
                    "midi": 67,
                    "time": 236.326904296875,
                    "velocity": 0.9763779527559056,
                    "duration": 0.0860595703125
                },
                {
                    "name": "D3",
                    "midi": 50,
                    "time": 236.38961791992188,
                    "velocity": 0.9763779527559056,
                    "duration": 0.10345458984375
                },
                {
                    "name": "A4",
                    "midi": 69,
                    "time": 236.40380859375,
                    "velocity": 0.9763779527559056,
                    "duration": 0.0860595703125
                },
                {
                    "name": "G4",
                    "midi": 67,
                    "time": 236.480712890625,
                    "velocity": 0.937007874015748,
                    "duration": 0.219268798828125
                },
                {
                    "name": "F#3",
                    "midi": 54,
                    "time": 236.50314331054688,
                    "velocity": 0.9763779527559056,
                    "duration": 0.102996826171875
                },
                {
                    "name": "A3",
                    "midi": 57,
                    "time": 236.6162109375,
                    "velocity": 0.9763779527559056,
                    "duration": 0.10894775390625
                },
                {
                    "name": "F#4",
                    "midi": 66,
                    "time": 236.7352294921875,
                    "velocity": 0.9921259842519685,
                    "duration": 0.463714599609375
                },
                {
                    "name": "D4",
                    "midi": 62,
                    "time": 236.7352294921875,
                    "velocity": 0.9921259842519685,
                    "duration": 0.108489990234375
                },
                {
                    "name": "A3",
                    "midi": 57,
                    "time": 236.85379028320312,
                    "velocity": 0.9763779527559056,
                    "duration": 0.102081298828125
                },
                {
                    "name": "F#3",
                    "midi": 54,
                    "time": 236.9659423828125,
                    "velocity": 0.9763779527559056,
                    "duration": 0.102996826171875
                },
                {
                    "name": "D3",
                    "midi": 50,
                    "time": 237.07855224609375,
                    "velocity": 0.9763779527559056,
                    "duration": 0.11077880859375
                },
                {
                    "name": "B4",
                    "midi": 71,
                    "time": 237.19940185546875,
                    "velocity": 1,
                    "duration": 0.4632568359375
                },
                {
                    "name": "G2",
                    "midi": 43,
                    "time": 237.19940185546875,
                    "velocity": 1,
                    "duration": 0.11077880859375
                },
                {
                    "name": "G3",
                    "midi": 55,
                    "time": 237.32025146484375,
                    "velocity": 0.9763779527559056,
                    "duration": 0.102081298828125
                },
                {
                    "name": "B3",
                    "midi": 59,
                    "time": 237.43240356445312,
                    "velocity": 0.9763779527559056,
                    "duration": 0.102996826171875
                },
                {
                    "name": "G3",
                    "midi": 55,
                    "time": 237.54501342773438,
                    "velocity": 0.9763779527559056,
                    "duration": 0.108489990234375
                },
                {
                    "name": "D4",
                    "midi": 62,
                    "time": 237.66311645507812,
                    "velocity": 0.8976377952755905,
                    "duration": 0.21148681640625
                },
                {
                    "name": "B2",
                    "midi": 47,
                    "time": 237.66311645507812,
                    "velocity": 0.984251968503937,
                    "duration": 0.1080322265625
                },
                {
                    "name": "G3",
                    "midi": 55,
                    "time": 237.78076171875,
                    "velocity": 0.9763779527559056,
                    "duration": 0.102996826171875
                },
                {
                    "name": "D4",
                    "midi": 62,
                    "time": 237.89337158203125,
                    "velocity": 0.8818897637795275,
                    "duration": 0.240325927734375
                },
                {
                    "name": "G2",
                    "midi": 43,
                    "time": 237.89337158203125,
                    "velocity": 0.9763779527559056,
                    "duration": 0.102996826171875
                },
                {
                    "name": "G3",
                    "midi": 55,
                    "time": 238.0059814453125,
                    "velocity": 0.9763779527559056,
                    "duration": 0.109405517578125
                },
                {
                    "name": "A4",
                    "midi": 69,
                    "time": 238.12728881835938,
                    "velocity": 1,
                    "duration": 0.48248291015625
                },
                {
                    "name": "F#2",
                    "midi": 42,
                    "time": 238.12728881835938,
                    "velocity": 1,
                    "duration": 0.12725830078125
                },
                {
                    "name": "D3",
                    "midi": 50,
                    "time": 238.26461791992188,
                    "velocity": 0.9763779527559056,
                    "duration": 0.10345458984375
                },
                {
                    "name": "F#3",
                    "midi": 54,
                    "time": 238.37814331054688,
                    "velocity": 0.9763779527559056,
                    "duration": 0.102996826171875
                },
                {
                    "name": "D3",
                    "midi": 50,
                    "time": 238.4912109375,
                    "velocity": 0.9763779527559056,
                    "duration": 0.10894775390625
                },
                {
                    "name": "D4",
                    "midi": 62,
                    "time": 238.6102294921875,
                    "velocity": 0.8976377952755905,
                    "duration": 0.211944580078125
                },
                {
                    "name": "F#2",
                    "midi": 42,
                    "time": 238.6102294921875,
                    "velocity": 0.9763779527559056,
                    "duration": 0.108489990234375
                },
                {
                    "name": "D3",
                    "midi": 50,
                    "time": 238.72879028320312,
                    "velocity": 0.9763779527559056,
                    "duration": 0.102081298828125
                },
                {
                    "name": "D4",
                    "midi": 62,
                    "time": 238.8409423828125,
                    "velocity": 0.8818897637795275,
                    "duration": 0.242156982421875
                },
                {
                    "name": "D2",
                    "midi": 38,
                    "time": 238.8409423828125,
                    "velocity": 0.9606299212598425,
                    "duration": 0.102996826171875
                },
                {
                    "name": "D3",
                    "midi": 50,
                    "time": 238.95355224609375,
                    "velocity": 0.9763779527559056,
                    "duration": 0.11077880859375
                },
                {
                    "name": "B4",
                    "midi": 71,
                    "time": 239.07440185546875,
                    "velocity": 1,
                    "duration": 0.4632568359375
                },
                {
                    "name": "G2",
                    "midi": 43,
                    "time": 239.07440185546875,
                    "velocity": 1,
                    "duration": 0.11077880859375
                },
                {
                    "name": "G3",
                    "midi": 55,
                    "time": 239.19525146484375,
                    "velocity": 0.9763779527559056,
                    "duration": 0.102081298828125
                },
                {
                    "name": "B3",
                    "midi": 59,
                    "time": 239.30740356445312,
                    "velocity": 0.9763779527559056,
                    "duration": 0.102996826171875
                },
                {
                    "name": "G3",
                    "midi": 55,
                    "time": 239.42001342773438,
                    "velocity": 0.9763779527559056,
                    "duration": 0.108489990234375
                },
                {
                    "name": "D4",
                    "midi": 62,
                    "time": 239.53811645507812,
                    "velocity": 0.8976377952755905,
                    "duration": 0.21148681640625
                },
                {
                    "name": "B2",
                    "midi": 47,
                    "time": 239.53811645507812,
                    "velocity": 0.984251968503937,
                    "duration": 0.1080322265625
                },
                {
                    "name": "G3",
                    "midi": 55,
                    "time": 239.65576171875,
                    "velocity": 0.9763779527559056,
                    "duration": 0.102996826171875
                },
                {
                    "name": "D4",
                    "midi": 62,
                    "time": 239.76837158203125,
                    "velocity": 0.8818897637795275,
                    "duration": 0.240325927734375
                },
                {
                    "name": "G2",
                    "midi": 43,
                    "time": 239.76837158203125,
                    "velocity": 0.9763779527559056,
                    "duration": 0.102996826171875
                },
                {
                    "name": "G3",
                    "midi": 55,
                    "time": 239.8809814453125,
                    "velocity": 0.9763779527559056,
                    "duration": 0.109405517578125
                },
                {
                    "name": "A4",
                    "midi": 69,
                    "time": 240.00228881835938,
                    "velocity": 1,
                    "duration": 0.48248291015625
                },
                {
                    "name": "F#2",
                    "midi": 42,
                    "time": 240.00228881835938,
                    "velocity": 1,
                    "duration": 0.12725830078125
                },
                {
                    "name": "D3",
                    "midi": 50,
                    "time": 240.13961791992188,
                    "velocity": 0.9763779527559056,
                    "duration": 0.10345458984375
                },
                {
                    "name": "F#3",
                    "midi": 54,
                    "time": 240.25314331054688,
                    "velocity": 0.9763779527559056,
                    "duration": 0.102996826171875
                },
                {
                    "name": "D3",
                    "midi": 50,
                    "time": 240.3662109375,
                    "velocity": 0.9763779527559056,
                    "duration": 0.10894775390625
                },
                {
                    "name": "D4",
                    "midi": 62,
                    "time": 240.4852294921875,
                    "velocity": 0.8976377952755905,
                    "duration": 0.211944580078125
                },
                {
                    "name": "F#2",
                    "midi": 42,
                    "time": 240.4852294921875,
                    "velocity": 0.9763779527559056,
                    "duration": 0.108489990234375
                },
                {
                    "name": "D3",
                    "midi": 50,
                    "time": 240.60379028320312,
                    "velocity": 0.9763779527559056,
                    "duration": 0.102081298828125
                },
                {
                    "name": "D4",
                    "midi": 62,
                    "time": 240.7159423828125,
                    "velocity": 0.8818897637795275,
                    "duration": 0.242156982421875
                },
                {
                    "name": "D2",
                    "midi": 38,
                    "time": 240.7159423828125,
                    "velocity": 0.9606299212598425,
                    "duration": 0.102996826171875
                },
                {
                    "name": "D3",
                    "midi": 50,
                    "time": 240.82855224609375,
                    "velocity": 0.9763779527559056,
                    "duration": 0.11077880859375
                },
                {
                    "name": "B4",
                    "midi": 71,
                    "time": 240.94940185546875,
                    "velocity": 1,
                    "duration": 0.4632568359375
                },
                {
                    "name": "G2",
                    "midi": 43,
                    "time": 240.94940185546875,
                    "velocity": 1,
                    "duration": 0.11077880859375
                },
                {
                    "name": "G3",
                    "midi": 55,
                    "time": 241.07025146484375,
                    "velocity": 0.9763779527559056,
                    "duration": 0.102081298828125
                },
                {
                    "name": "B3",
                    "midi": 59,
                    "time": 241.18240356445312,
                    "velocity": 0.9763779527559056,
                    "duration": 0.102996826171875
                },
                {
                    "name": "G3",
                    "midi": 55,
                    "time": 241.29501342773438,
                    "velocity": 0.9763779527559056,
                    "duration": 0.108489990234375
                },
                {
                    "name": "D4",
                    "midi": 62,
                    "time": 241.41311645507812,
                    "velocity": 0.8976377952755905,
                    "duration": 0.21148681640625
                },
                {
                    "name": "B2",
                    "midi": 47,
                    "time": 241.41311645507812,
                    "velocity": 0.984251968503937,
                    "duration": 0.1080322265625
                },
                {
                    "name": "G3",
                    "midi": 55,
                    "time": 241.53076171875,
                    "velocity": 0.9763779527559056,
                    "duration": 0.102996826171875
                },
                {
                    "name": "D4",
                    "midi": 62,
                    "time": 241.64337158203125,
                    "velocity": 0.8818897637795275,
                    "duration": 0.240325927734375
                },
                {
                    "name": "G2",
                    "midi": 43,
                    "time": 241.64337158203125,
                    "velocity": 0.9763779527559056,
                    "duration": 0.102996826171875
                },
                {
                    "name": "G3",
                    "midi": 55,
                    "time": 241.7559814453125,
                    "velocity": 0.9763779527559056,
                    "duration": 0.109405517578125
                },
                {
                    "name": "A4",
                    "midi": 69,
                    "time": 241.87728881835938,
                    "velocity": 1,
                    "duration": 0.48248291015625
                },
                {
                    "name": "F#2",
                    "midi": 42,
                    "time": 241.87728881835938,
                    "velocity": 1,
                    "duration": 0.12725830078125
                },
                {
                    "name": "D3",
                    "midi": 50,
                    "time": 242.01461791992188,
                    "velocity": 0.9763779527559056,
                    "duration": 0.10345458984375
                },
                {
                    "name": "F#3",
                    "midi": 54,
                    "time": 242.12814331054688,
                    "velocity": 0.9763779527559056,
                    "duration": 0.102996826171875
                },
                {
                    "name": "D3",
                    "midi": 50,
                    "time": 242.2412109375,
                    "velocity": 0.9763779527559056,
                    "duration": 0.10894775390625
                },
                {
                    "name": "D4",
                    "midi": 62,
                    "time": 242.3602294921875,
                    "velocity": 0.9921259842519685,
                    "duration": 0.211944580078125
                },
                {
                    "name": "F#2",
                    "midi": 42,
                    "time": 242.3602294921875,
                    "velocity": 0.9763779527559056,
                    "duration": 0.108489990234375
                },
                {
                    "name": "D3",
                    "midi": 50,
                    "time": 242.47879028320312,
                    "velocity": 0.9763779527559056,
                    "duration": 0.102081298828125
                },
                {
                    "name": "D4",
                    "midi": 62,
                    "time": 242.5909423828125,
                    "velocity": 0.9763779527559056,
                    "duration": 0.214691162109375
                },
                {
                    "name": "D2",
                    "midi": 38,
                    "time": 242.5909423828125,
                    "velocity": 0.9606299212598425,
                    "duration": 0.102996826171875
                },
                {
                    "name": "D3",
                    "midi": 50,
                    "time": 242.70355224609375,
                    "velocity": 0.9763779527559056,
                    "duration": 0.11077880859375
                },
                {
                    "name": "B4",
                    "midi": 71,
                    "time": 242.82440185546875,
                    "velocity": 1,
                    "duration": 0.2142333984375
                },
                {
                    "name": "G2",
                    "midi": 43,
                    "time": 242.82440185546875,
                    "velocity": 1,
                    "duration": 0.11077880859375
                },
                {
                    "name": "G3",
                    "midi": 55,
                    "time": 242.94525146484375,
                    "velocity": 0.9763779527559056,
                    "duration": 0.102081298828125
                },
                {
                    "name": "C#5",
                    "midi": 73,
                    "time": 243.05740356445312,
                    "velocity": 0.9763779527559056,
                    "duration": 0.211944580078125
                },
                {
                    "name": "B3",
                    "midi": 59,
                    "time": 243.05740356445312,
                    "velocity": 0.9763779527559056,
                    "duration": 0.102996826171875
                },
                {
                    "name": "G3",
                    "midi": 55,
                    "time": 243.17001342773438,
                    "velocity": 0.9763779527559056,
                    "duration": 0.108489990234375
                },
                {
                    "name": "D5",
                    "midi": 74,
                    "time": 243.28811645507812,
                    "velocity": 0.9921259842519685,
                    "duration": 0.21148681640625
                },
                {
                    "name": "B2",
                    "midi": 47,
                    "time": 243.28811645507812,
                    "velocity": 0.984251968503937,
                    "duration": 0.1080322265625
                },
                {
                    "name": "G3",
                    "midi": 55,
                    "time": 243.40576171875,
                    "velocity": 0.9763779527559056,
                    "duration": 0.102996826171875
                },
                {
                    "name": "E5",
                    "midi": 76,
                    "time": 243.51837158203125,
                    "velocity": 0.9763779527559056,
                    "duration": 0.212860107421875
                },
                {
                    "name": "E2",
                    "midi": 40,
                    "time": 243.51837158203125,
                    "velocity": 0.968503937007874,
                    "duration": 0.102996826171875
                },
                {
                    "name": "G3",
                    "midi": 55,
                    "time": 243.6309814453125,
                    "velocity": 0.9763779527559056,
                    "duration": 0.109405517578125
                },
                {
                    "name": "D5",
                    "midi": 74,
                    "time": 243.75,
                    "velocity": 1,
                    "duration": 0.084686279296875
                },
                {
                    "name": "A2",
                    "midi": 45,
                    "time": 243.75,
                    "velocity": 1,
                    "duration": 0.12542724609375
                },
                {
                    "name": "C#5",
                    "midi": 73,
                    "time": 243.82598876953125,
                    "velocity": 0.9763779527559056,
                    "duration": 0.084686279296875
                },
                {
                    "name": "G3",
                    "midi": 55,
                    "time": 243.885498046875,
                    "velocity": 0.9763779527559056,
                    "duration": 0.10345458984375
                },
                {
                    "name": "D5",
                    "midi": 74,
                    "time": 243.9019775390625,
                    "velocity": 0.9763779527559056,
                    "duration": 0.084686279296875
                },
                {
                    "name": "C#5",
                    "midi": 73,
                    "time": 243.97796630859375,
                    "velocity": 0.937007874015748,
                    "duration": 0.70953369140625
                },
                {
                    "name": "E3",
                    "midi": 52,
                    "time": 243.9990234375,
                    "velocity": 0.9763779527559056,
                    "duration": 0.10345458984375
                },
                {
                    "name": "C#3",
                    "midi": 49,
                    "time": 244.112548828125,
                    "velocity": 0.9763779527559056,
                    "duration": 0.10894775390625
                },
                {
                    "name": "A2",
                    "midi": 45,
                    "time": 244.2315673828125,
                    "velocity": 1,
                    "duration": 0.107574462890625
                },
                {
                    "name": "E2",
                    "midi": 40,
                    "time": 244.34921264648438,
                    "velocity": 0.968503937007874,
                    "duration": 0.100250244140625
                },
                {
                    "name": "A1",
                    "midi": 33,
                    "time": 244.45907592773438,
                    "velocity": 0.937007874015748,
                    "duration": 0.1007080078125
                },
                {
                    "name": "A2",
                    "midi": 45,
                    "time": 244.56939697265625,
                    "velocity": 0.9763779527559056,
                    "duration": 0.108489990234375
                },
                {
                    "name": "F#5",
                    "midi": 78,
                    "time": 244.6875,
                    "velocity": 1,
                    "duration": 0.481109619140625
                },
                {
                    "name": "D2",
                    "midi": 38,
                    "time": 244.6875,
                    "velocity": 1,
                    "duration": 0.12542724609375
                },
                {
                    "name": "D3",
                    "midi": 50,
                    "time": 244.822998046875,
                    "velocity": 0.9763779527559056,
                    "duration": 0.10345458984375
                },
                {
                    "name": "F#3",
                    "midi": 54,
                    "time": 244.9365234375,
                    "velocity": 0.9763779527559056,
                    "duration": 0.10345458984375
                },
                {
                    "name": "A3",
                    "midi": 57,
                    "time": 245.050048828125,
                    "velocity": 0.9763779527559056,
                    "duration": 0.10894775390625
                },
                {
                    "name": "A4",
                    "midi": 69,
                    "time": 245.1690673828125,
                    "velocity": 0.9133858267716536,
                    "duration": 0.208740234375
                },
                {
                    "name": "F#3",
                    "midi": 54,
                    "time": 245.1690673828125,
                    "velocity": 1,
                    "duration": 0.107574462890625
                },
                {
                    "name": "D3",
                    "midi": 50,
                    "time": 245.28671264648438,
                    "velocity": 0.9763779527559056,
                    "duration": 0.100250244140625
                },
                {
                    "name": "A4",
                    "midi": 69,
                    "time": 245.39657592773438,
                    "velocity": 0.8818897637795275,
                    "duration": 0.20965576171875
                },
                {
                    "name": "F#3",
                    "midi": 54,
                    "time": 245.39657592773438,
                    "velocity": 0.9763779527559056,
                    "duration": 0.1007080078125
                },
                {
                    "name": "D3",
                    "midi": 50,
                    "time": 245.50689697265625,
                    "velocity": 0.9763779527559056,
                    "duration": 0.108489990234375
                },
                {
                    "name": "B4",
                    "midi": 71,
                    "time": 245.625,
                    "velocity": 1,
                    "duration": 0.08697509765625
                },
                {
                    "name": "B2",
                    "midi": 47,
                    "time": 245.62728881835938,
                    "velocity": 1,
                    "duration": 0.12725830078125
                },
                {
                    "name": "A4",
                    "midi": 69,
                    "time": 245.70281982421875,
                    "velocity": 0.9763779527559056,
                    "duration": 0.08697509765625
                },
                {
                    "name": "B3",
                    "midi": 59,
                    "time": 245.76461791992188,
                    "velocity": 0.9763779527559056,
                    "duration": 0.10345458984375
                },
                {
                    "name": "B4",
                    "midi": 71,
                    "time": 245.7806396484375,
                    "velocity": 0.9763779527559056,
                    "duration": 0.08697509765625
                },
                {
                    "name": "A4",
                    "midi": 69,
                    "time": 245.85845947265625,
                    "velocity": 0.937007874015748,
                    "duration": 0.216522216796875
                },
                {
                    "name": "D4",
                    "midi": 62,
                    "time": 245.87814331054688,
                    "velocity": 0.9763779527559056,
                    "duration": 0.102996826171875
                },
                {
                    "name": "F#4",
                    "midi": 66,
                    "time": 245.9912109375,
                    "velocity": 0.9763779527559056,
                    "duration": 0.10894775390625
                },
                {
                    "name": "G4",
                    "midi": 67,
                    "time": 246.1102294921875,
                    "velocity": 0.9921259842519685,
                    "duration": 0.463714599609375
                },
                {
                    "name": "D4",
                    "midi": 62,
                    "time": 246.1102294921875,
                    "velocity": 0.9921259842519685,
                    "duration": 0.108489990234375
                },
                {
                    "name": "B3",
                    "midi": 59,
                    "time": 246.22879028320312,
                    "velocity": 0.9763779527559056,
                    "duration": 0.102081298828125
                },
                {
                    "name": "D4",
                    "midi": 62,
                    "time": 246.3409423828125,
                    "velocity": 0.9763779527559056,
                    "duration": 0.102996826171875
                },
                {
                    "name": "B3",
                    "midi": 59,
                    "time": 246.45355224609375,
                    "velocity": 0.9763779527559056,
                    "duration": 0.11077880859375
                },
                {
                    "name": "E5",
                    "midi": 76,
                    "time": 246.57440185546875,
                    "velocity": 1,
                    "duration": 0.4632568359375
                },
                {
                    "name": "G3",
                    "midi": 55,
                    "time": 246.57440185546875,
                    "velocity": 1,
                    "duration": 0.11077880859375
                },
                {
                    "name": "B3",
                    "midi": 59,
                    "time": 246.69525146484375,
                    "velocity": 0.9763779527559056,
                    "duration": 0.102081298828125
                },
                {
                    "name": "E3",
                    "midi": 52,
                    "time": 246.80740356445312,
                    "velocity": 0.9763779527559056,
                    "duration": 0.102996826171875
                },
                {
                    "name": "G3",
                    "midi": 55,
                    "time": 246.92001342773438,
                    "velocity": 0.9763779527559056,
                    "duration": 0.108489990234375
                },
                {
                    "name": "G4",
                    "midi": 67,
                    "time": 247.03811645507812,
                    "velocity": 0.8976377952755905,
                    "duration": 0.21148681640625
                },
                {
                    "name": "C#3",
                    "midi": 49,
                    "time": 247.03811645507812,
                    "velocity": 0.9921259842519685,
                    "duration": 0.1080322265625
                },
                {
                    "name": "E3",
                    "midi": 52,
                    "time": 247.15576171875,
                    "velocity": 0.9763779527559056,
                    "duration": 0.102996826171875
                },
                {
                    "name": "G4",
                    "midi": 67,
                    "time": 247.26837158203125,
                    "velocity": 0.8818897637795275,
                    "duration": 0.212860107421875
                },
                {
                    "name": "A2",
                    "midi": 45,
                    "time": 247.26837158203125,
                    "velocity": 0.9763779527559056,
                    "duration": 0.102996826171875
                },
                {
                    "name": "C#3",
                    "midi": 49,
                    "time": 247.3809814453125,
                    "velocity": 0.9763779527559056,
                    "duration": 0.109405517578125
                },
                {
                    "name": "A4",
                    "midi": 69,
                    "time": 247.5,
                    "velocity": 1,
                    "duration": 0.0860595703125
                },
                {
                    "name": "D2",
                    "midi": 38,
                    "time": 247.50228881835938,
                    "velocity": 1,
                    "duration": 0.12725830078125
                },
                {
                    "name": "G4",
                    "midi": 67,
                    "time": 247.576904296875,
                    "velocity": 0.9763779527559056,
                    "duration": 0.0860595703125
                },
                {
                    "name": "A2",
                    "midi": 45,
                    "time": 247.63961791992188,
                    "velocity": 0.9763779527559056,
                    "duration": 0.10345458984375
                },
                {
                    "name": "A4",
                    "midi": 69,
                    "time": 247.65380859375,
                    "velocity": 0.9763779527559056,
                    "duration": 0.0860595703125
                },
                {
                    "name": "G4",
                    "midi": 67,
                    "time": 247.730712890625,
                    "velocity": 0.937007874015748,
                    "duration": 0.219268798828125
                },
                {
                    "name": "B2",
                    "midi": 47,
                    "time": 247.75314331054688,
                    "velocity": 0.9763779527559056,
                    "duration": 0.102996826171875
                },
                {
                    "name": "C#3",
                    "midi": 49,
                    "time": 247.8662109375,
                    "velocity": 0.9763779527559056,
                    "duration": 0.10894775390625
                },
                {
                    "name": "F#4",
                    "midi": 66,
                    "time": 247.9852294921875,
                    "velocity": 0.9921259842519685,
                    "duration": 0.463714599609375
                },
                {
                    "name": "D3",
                    "midi": 50,
                    "time": 247.9852294921875,
                    "velocity": 0.9921259842519685,
                    "duration": 0.108489990234375
                },
                {
                    "name": "E3",
                    "midi": 52,
                    "time": 248.10379028320312,
                    "velocity": 0.9763779527559056,
                    "duration": 0.102081298828125
                },
                {
                    "name": "F#3",
                    "midi": 54,
                    "time": 248.2159423828125,
                    "velocity": 0.9763779527559056,
                    "duration": 0.102996826171875
                },
                {
                    "name": "G3",
                    "midi": 55,
                    "time": 248.32855224609375,
                    "velocity": 0.9763779527559056,
                    "duration": 0.11077880859375
                },
                {
                    "name": "D5",
                    "midi": 74,
                    "time": 248.44940185546875,
                    "velocity": 1,
                    "duration": 0.4632568359375
                },
                {
                    "name": "F#3",
                    "midi": 54,
                    "time": 248.44940185546875,
                    "velocity": 1,
                    "duration": 0.11077880859375
                },
                {
                    "name": "G3",
                    "midi": 55,
                    "time": 248.57025146484375,
                    "velocity": 0.9763779527559056,
                    "duration": 0.102081298828125
                },
                {
                    "name": "A3",
                    "midi": 57,
                    "time": 248.68240356445312,
                    "velocity": 0.9763779527559056,
                    "duration": 0.102996826171875
                },
                {
                    "name": "G3",
                    "midi": 55,
                    "time": 248.79501342773438,
                    "velocity": 0.9763779527559056,
                    "duration": 0.108489990234375
                },
                {
                    "name": "D4",
                    "midi": 62,
                    "time": 248.91311645507812,
                    "velocity": 0.9921259842519685,
                    "duration": 0.21148681640625
                },
                {
                    "name": "F#3",
                    "midi": 54,
                    "time": 248.91311645507812,
                    "velocity": 0.9921259842519685,
                    "duration": 0.1080322265625
                },
                {
                    "name": "G3",
                    "midi": 55,
                    "time": 249.03076171875,
                    "velocity": 0.9763779527559056,
                    "duration": 0.102996826171875
                },
                {
                    "name": "D4",
                    "midi": 62,
                    "time": 249.14337158203125,
                    "velocity": 0.9763779527559056,
                    "duration": 0.212860107421875
                },
                {
                    "name": "F#3",
                    "midi": 54,
                    "time": 249.14337158203125,
                    "velocity": 0.9763779527559056,
                    "duration": 0.102996826171875
                },
                {
                    "name": "E3",
                    "midi": 52,
                    "time": 249.2559814453125,
                    "velocity": 0.9763779527559056,
                    "duration": 0.109405517578125
                },
                {
                    "name": "D4",
                    "midi": 62,
                    "time": 249.37728881835938,
                    "velocity": 1,
                    "duration": 0.232086181640625
                },
                {
                    "name": "F#3",
                    "midi": 54,
                    "time": 249.37728881835938,
                    "velocity": 1,
                    "duration": 0.12725830078125
                },
                {
                    "name": "G3",
                    "midi": 55,
                    "time": 249.51461791992188,
                    "velocity": 0.9763779527559056,
                    "duration": 0.10345458984375
                },
                {
                    "name": "D5",
                    "midi": 74,
                    "time": 249.62814331054688,
                    "velocity": 0.9763779527559056,
                    "duration": 0.21331787109375
                },
                {
                    "name": "A3",
                    "midi": 57,
                    "time": 249.62814331054688,
                    "velocity": 0.9763779527559056,
                    "duration": 0.102996826171875
                },
                {
                    "name": "G3",
                    "midi": 55,
                    "time": 249.7412109375,
                    "velocity": 0.9763779527559056,
                    "duration": 0.10894775390625
                },
                {
                    "name": "D4",
                    "midi": 62,
                    "time": 249.8602294921875,
                    "velocity": 0.9921259842519685,
                    "duration": 0.211944580078125
                },
                {
                    "name": "F#3",
                    "midi": 54,
                    "time": 249.8602294921875,
                    "velocity": 0.9921259842519685,
                    "duration": 0.108489990234375
                },
                {
                    "name": "G3",
                    "midi": 55,
                    "time": 249.97879028320312,
                    "velocity": 0.9763779527559056,
                    "duration": 0.102081298828125
                },
                {
                    "name": "E4",
                    "midi": 64,
                    "time": 250.0909423828125,
                    "velocity": 0.9763779527559056,
                    "duration": 0.214691162109375
                },
                {
                    "name": "F#3",
                    "midi": 54,
                    "time": 250.0909423828125,
                    "velocity": 0.9763779527559056,
                    "duration": 0.102996826171875
                },
                {
                    "name": "E3",
                    "midi": 52,
                    "time": 250.20355224609375,
                    "velocity": 0.9763779527559056,
                    "duration": 0.11077880859375
                },
                {
                    "name": "F#4",
                    "midi": 66,
                    "time": 250.32440185546875,
                    "velocity": 1,
                    "duration": 0.2142333984375
                },
                {
                    "name": "D3",
                    "midi": 50,
                    "time": 250.32440185546875,
                    "velocity": 1,
                    "duration": 0.11077880859375
                },
                {
                    "name": "A3",
                    "midi": 57,
                    "time": 250.44525146484375,
                    "velocity": 0.9763779527559056,
                    "duration": 0.102081298828125
                },
                {
                    "name": "E4",
                    "midi": 64,
                    "time": 250.55740356445312,
                    "velocity": 0.9763779527559056,
                    "duration": 0.211944580078125
                },
                {
                    "name": "B3",
                    "midi": 59,
                    "time": 250.55740356445312,
                    "velocity": 0.9763779527559056,
                    "duration": 0.102996826171875
                },
                {
                    "name": "C#4",
                    "midi": 61,
                    "time": 250.67001342773438,
                    "velocity": 0.9763779527559056,
                    "duration": 0.108489990234375
                },
                {
                    "name": "F#4",
                    "midi": 66,
                    "time": 250.78811645507812,
                    "velocity": 0.9921259842519685,
                    "duration": 0.21148681640625
                },
                {
                    "name": "D4",
                    "midi": 62,
                    "time": 250.78811645507812,
                    "velocity": 0.9921259842519685,
                    "duration": 0.1080322265625
                },
                {
                    "name": "A3",
                    "midi": 57,
                    "time": 250.90576171875,
                    "velocity": 0.9763779527559056,
                    "duration": 0.102996826171875
                },
                {
                    "name": "G4",
                    "midi": 67,
                    "time": 251.01837158203125,
                    "velocity": 0.9763779527559056,
                    "duration": 0.212860107421875
                },
                {
                    "name": "B3",
                    "midi": 59,
                    "time": 251.01837158203125,
                    "velocity": 0.9763779527559056,
                    "duration": 0.102996826171875
                },
                {
                    "name": "G3",
                    "midi": 55,
                    "time": 251.1309814453125,
                    "velocity": 0.9763779527559056,
                    "duration": 0.109405517578125
                },
                {
                    "name": "F#4",
                    "midi": 66,
                    "time": 251.25,
                    "velocity": 1,
                    "duration": 0.086517333984375
                },
                {
                    "name": "A3",
                    "midi": 57,
                    "time": 251.25228881835938,
                    "velocity": 1,
                    "duration": 0.12725830078125
                },
                {
                    "name": "E4",
                    "midi": 64,
                    "time": 251.32736206054688,
                    "velocity": 0.9763779527559056,
                    "duration": 0.086517333984375
                },
                {
                    "name": "E3",
                    "midi": 52,
                    "time": 251.38961791992188,
                    "velocity": 0.9763779527559056,
                    "duration": 0.10345458984375
                },
                {
                    "name": "F#4",
                    "midi": 66,
                    "time": 251.40472412109375,
                    "velocity": 0.9763779527559056,
                    "duration": 0.086517333984375
                },
                {
                    "name": "E4",
                    "midi": 64,
                    "time": 251.48208618164062,
                    "velocity": 0.937007874015748,
                    "duration": 0.705413818359375
                },
                {
                    "name": "A3",
                    "midi": 57,
                    "time": 251.50314331054688,
                    "velocity": 0.9763779527559056,
                    "duration": 0.102996826171875
                },
                {
                    "name": "E3",
                    "midi": 52,
                    "time": 251.6162109375,
                    "velocity": 0.9763779527559056,
                    "duration": 0.10894775390625
                },
                {
                    "name": "C#3",
                    "midi": 49,
                    "time": 251.7352294921875,
                    "velocity": 0.9921259842519685,
                    "duration": 0.108489990234375
                },
                {
                    "name": "A2",
                    "midi": 45,
                    "time": 251.85379028320312,
                    "velocity": 0.9763779527559056,
                    "duration": 0.102081298828125
                },
                {
                    "name": "A1",
                    "midi": 33,
                    "time": 251.9659423828125,
                    "velocity": 0.937007874015748,
                    "duration": 0.102996826171875
                },
                {
                    "name": "A2",
                    "midi": 45,
                    "time": 252.07855224609375,
                    "velocity": 0.9763779527559056,
                    "duration": 0.11077880859375
                },
                {
                    "name": "F#5",
                    "midi": 78,
                    "time": 252.19940185546875,
                    "velocity": 1,
                    "duration": 0.4632568359375
                },
                {
                    "name": "D2",
                    "midi": 38,
                    "time": 252.19940185546875,
                    "velocity": 0.984251968503937,
                    "duration": 0.11077880859375
                },
                {
                    "name": "D3",
                    "midi": 50,
                    "time": 252.32025146484375,
                    "velocity": 0.9763779527559056,
                    "duration": 0.102081298828125
                },
                {
                    "name": "F#3",
                    "midi": 54,
                    "time": 252.43240356445312,
                    "velocity": 0.9763779527559056,
                    "duration": 0.102996826171875
                },
                {
                    "name": "A3",
                    "midi": 57,
                    "time": 252.54501342773438,
                    "velocity": 0.9763779527559056,
                    "duration": 0.108489990234375
                },
                {
                    "name": "A4",
                    "midi": 69,
                    "time": 252.66311645507812,
                    "velocity": 0.8976377952755905,
                    "duration": 0.21148681640625
                },
                {
                    "name": "F#3",
                    "midi": 54,
                    "time": 252.66311645507812,
                    "velocity": 0.9921259842519685,
                    "duration": 0.1080322265625
                },
                {
                    "name": "D3",
                    "midi": 50,
                    "time": 252.78076171875,
                    "velocity": 0.9763779527559056,
                    "duration": 0.102996826171875
                },
                {
                    "name": "A4",
                    "midi": 69,
                    "time": 252.89337158203125,
                    "velocity": 0.8818897637795275,
                    "duration": 0.212860107421875
                },
                {
                    "name": "F#3",
                    "midi": 54,
                    "time": 252.89337158203125,
                    "velocity": 0.9763779527559056,
                    "duration": 0.102996826171875
                },
                {
                    "name": "D3",
                    "midi": 50,
                    "time": 253.0059814453125,
                    "velocity": 0.9763779527559056,
                    "duration": 0.109405517578125
                },
                {
                    "name": "B4",
                    "midi": 71,
                    "time": 253.125,
                    "velocity": 1,
                    "duration": 0.087432861328125
                },
                {
                    "name": "B2",
                    "midi": 47,
                    "time": 253.12728881835938,
                    "velocity": 1,
                    "duration": 0.12725830078125
                },
                {
                    "name": "A4",
                    "midi": 69,
                    "time": 253.20327758789062,
                    "velocity": 0.9763779527559056,
                    "duration": 0.087432861328125
                },
                {
                    "name": "B3",
                    "midi": 59,
                    "time": 253.26461791992188,
                    "velocity": 0.9763779527559056,
                    "duration": 0.10345458984375
                },
                {
                    "name": "B4",
                    "midi": 71,
                    "time": 253.28155517578125,
                    "velocity": 0.9763779527559056,
                    "duration": 0.087432861328125
                },
                {
                    "name": "A4",
                    "midi": 69,
                    "time": 253.35983276367188,
                    "velocity": 0.937007874015748,
                    "duration": 0.215606689453125
                },
                {
                    "name": "D4",
                    "midi": 62,
                    "time": 253.37814331054688,
                    "velocity": 0.9763779527559056,
                    "duration": 0.102996826171875
                },
                {
                    "name": "F#4",
                    "midi": 66,
                    "time": 253.4912109375,
                    "velocity": 0.9763779527559056,
                    "duration": 0.10894775390625
                },
                {
                    "name": "G4",
                    "midi": 67,
                    "time": 253.6102294921875,
                    "velocity": 0.9921259842519685,
                    "duration": 0.463714599609375
                },
                {
                    "name": "D4",
                    "midi": 62,
                    "time": 253.6102294921875,
                    "velocity": 0.9921259842519685,
                    "duration": 0.108489990234375
                },
                {
                    "name": "B3",
                    "midi": 59,
                    "time": 253.72879028320312,
                    "velocity": 0.9763779527559056,
                    "duration": 0.102081298828125
                },
                {
                    "name": "D4",
                    "midi": 62,
                    "time": 253.8409423828125,
                    "velocity": 0.9763779527559056,
                    "duration": 0.102996826171875
                },
                {
                    "name": "B3",
                    "midi": 59,
                    "time": 253.95355224609375,
                    "velocity": 0.9763779527559056,
                    "duration": 0.11077880859375
                },
                {
                    "name": "E5",
                    "midi": 76,
                    "time": 254.07440185546875,
                    "velocity": 1,
                    "duration": 0.4632568359375
                },
                {
                    "name": "G3",
                    "midi": 55,
                    "time": 254.07440185546875,
                    "velocity": 1,
                    "duration": 0.11077880859375
                },
                {
                    "name": "B3",
                    "midi": 59,
                    "time": 254.19525146484375,
                    "velocity": 0.9763779527559056,
                    "duration": 0.102081298828125
                },
                {
                    "name": "E3",
                    "midi": 52,
                    "time": 254.30740356445312,
                    "velocity": 0.9763779527559056,
                    "duration": 0.102996826171875
                },
                {
                    "name": "G3",
                    "midi": 55,
                    "time": 254.42001342773438,
                    "velocity": 0.9763779527559056,
                    "duration": 0.108489990234375
                },
                {
                    "name": "G4",
                    "midi": 67,
                    "time": 254.53811645507812,
                    "velocity": 0.8976377952755905,
                    "duration": 0.21148681640625
                },
                {
                    "name": "C#3",
                    "midi": 49,
                    "time": 254.53811645507812,
                    "velocity": 0.9921259842519685,
                    "duration": 0.1080322265625
                },
                {
                    "name": "E3",
                    "midi": 52,
                    "time": 254.65576171875,
                    "velocity": 0.9763779527559056,
                    "duration": 0.102996826171875
                },
                {
                    "name": "G4",
                    "midi": 67,
                    "time": 254.76837158203125,
                    "velocity": 0.8818897637795275,
                    "duration": 0.212860107421875
                },
                {
                    "name": "A2",
                    "midi": 45,
                    "time": 254.76837158203125,
                    "velocity": 0.9763779527559056,
                    "duration": 0.102996826171875
                },
                {
                    "name": "C#3",
                    "midi": 49,
                    "time": 254.8809814453125,
                    "velocity": 0.9763779527559056,
                    "duration": 0.109405517578125
                },
                {
                    "name": "A4",
                    "midi": 69,
                    "time": 255,
                    "velocity": 1,
                    "duration": 0.08697509765625
                },
                {
                    "name": "D2",
                    "midi": 38,
                    "time": 255.00228881835938,
                    "velocity": 1,
                    "duration": 0.12725830078125
                },
                {
                    "name": "G4",
                    "midi": 67,
                    "time": 255.07781982421875,
                    "velocity": 0.9763779527559056,
                    "duration": 0.08697509765625
                },
                {
                    "name": "A2",
                    "midi": 45,
                    "time": 255.13961791992188,
                    "velocity": 0.9763779527559056,
                    "duration": 0.10345458984375
                },
                {
                    "name": "A4",
                    "midi": 69,
                    "time": 255.1556396484375,
                    "velocity": 0.9763779527559056,
                    "duration": 0.08697509765625
                },
                {
                    "name": "G4",
                    "midi": 67,
                    "time": 255.23345947265625,
                    "velocity": 0.937007874015748,
                    "duration": 0.216522216796875
                },
                {
                    "name": "B2",
                    "midi": 47,
                    "time": 255.25314331054688,
                    "velocity": 0.9763779527559056,
                    "duration": 0.102996826171875
                },
                {
                    "name": "C#3",
                    "midi": 49,
                    "time": 255.3662109375,
                    "velocity": 0.9763779527559056,
                    "duration": 0.10894775390625
                },
                {
                    "name": "F#4",
                    "midi": 66,
                    "time": 255.4852294921875,
                    "velocity": 0.9921259842519685,
                    "duration": 0.463714599609375
                },
                {
                    "name": "D3",
                    "midi": 50,
                    "time": 255.4852294921875,
                    "velocity": 0.9921259842519685,
                    "duration": 0.108489990234375
                },
                {
                    "name": "E3",
                    "midi": 52,
                    "time": 255.60379028320312,
                    "velocity": 0.9763779527559056,
                    "duration": 0.102081298828125
                },
                {
                    "name": "F#3",
                    "midi": 54,
                    "time": 255.7159423828125,
                    "velocity": 0.9763779527559056,
                    "duration": 0.102996826171875
                },
                {
                    "name": "G3",
                    "midi": 55,
                    "time": 255.82855224609375,
                    "velocity": 0.9763779527559056,
                    "duration": 0.11077880859375
                },
                {
                    "name": "D5",
                    "midi": 74,
                    "time": 255.94940185546875,
                    "velocity": 1,
                    "duration": 0.4632568359375
                },
                {
                    "name": "F#3",
                    "midi": 54,
                    "time": 255.94940185546875,
                    "velocity": 1,
                    "duration": 0.11077880859375
                },
                {
                    "name": "G3",
                    "midi": 55,
                    "time": 256.07025146484375,
                    "velocity": 0.9763779527559056,
                    "duration": 0.102081298828125
                },
                {
                    "name": "A3",
                    "midi": 57,
                    "time": 256.1824035644531,
                    "velocity": 0.9763779527559056,
                    "duration": 0.102996826171875
                },
                {
                    "name": "G3",
                    "midi": 55,
                    "time": 256.2950134277344,
                    "velocity": 0.9763779527559056,
                    "duration": 0.108489990234375
                },
                {
                    "name": "D4",
                    "midi": 62,
                    "time": 256.4131164550781,
                    "velocity": 0.9921259842519685,
                    "duration": 0.21148681640625
                },
                {
                    "name": "F#3",
                    "midi": 54,
                    "time": 256.4131164550781,
                    "velocity": 0.9921259842519685,
                    "duration": 0.1080322265625
                },
                {
                    "name": "G3",
                    "midi": 55,
                    "time": 256.53076171875,
                    "velocity": 0.9763779527559056,
                    "duration": 0.102996826171875
                },
                {
                    "name": "D4",
                    "midi": 62,
                    "time": 256.64337158203125,
                    "velocity": 0.9763779527559056,
                    "duration": 0.212860107421875
                },
                {
                    "name": "F#3",
                    "midi": 54,
                    "time": 256.64337158203125,
                    "velocity": 0.9763779527559056,
                    "duration": 0.102996826171875
                },
                {
                    "name": "E3",
                    "midi": 52,
                    "time": 256.7559814453125,
                    "velocity": 0.9763779527559056,
                    "duration": 0.109405517578125
                },
                {
                    "name": "D4",
                    "midi": 62,
                    "time": 256.8772888183594,
                    "velocity": 1,
                    "duration": 0.232086181640625
                },
                {
                    "name": "F#3",
                    "midi": 54,
                    "time": 256.8772888183594,
                    "velocity": 1,
                    "duration": 0.12725830078125
                },
                {
                    "name": "G3",
                    "midi": 55,
                    "time": 257.0146179199219,
                    "velocity": 0.9763779527559056,
                    "duration": 0.10345458984375
                },
                {
                    "name": "D5",
                    "midi": 74,
                    "time": 257.1281433105469,
                    "velocity": 0.9763779527559056,
                    "duration": 0.21331787109375
                },
                {
                    "name": "A3",
                    "midi": 57,
                    "time": 257.1281433105469,
                    "velocity": 0.9763779527559056,
                    "duration": 0.102996826171875
                },
                {
                    "name": "G3",
                    "midi": 55,
                    "time": 257.2412109375,
                    "velocity": 0.9763779527559056,
                    "duration": 0.10894775390625
                },
                {
                    "name": "D4",
                    "midi": 62,
                    "time": 257.3602294921875,
                    "velocity": 0.9921259842519685,
                    "duration": 0.211944580078125
                },
                {
                    "name": "F#3",
                    "midi": 54,
                    "time": 257.3602294921875,
                    "velocity": 0.9921259842519685,
                    "duration": 0.108489990234375
                },
                {
                    "name": "G3",
                    "midi": 55,
                    "time": 257.4787902832031,
                    "velocity": 0.9763779527559056,
                    "duration": 0.102081298828125
                },
                {
                    "name": "E4",
                    "midi": 64,
                    "time": 257.5909423828125,
                    "velocity": 0.9763779527559056,
                    "duration": 0.214691162109375
                },
                {
                    "name": "F#3",
                    "midi": 54,
                    "time": 257.5909423828125,
                    "velocity": 0.9763779527559056,
                    "duration": 0.102996826171875
                },
                {
                    "name": "E3",
                    "midi": 52,
                    "time": 257.70355224609375,
                    "velocity": 0.9763779527559056,
                    "duration": 0.11077880859375
                },
                {
                    "name": "F#4",
                    "midi": 66,
                    "time": 257.8125,
                    "velocity": 1,
                    "duration": 0.084228515625
                },
                {
                    "name": "D3",
                    "midi": 50,
                    "time": 257.82440185546875,
                    "velocity": 1,
                    "duration": 0.11077880859375
                },
                {
                    "name": "E4",
                    "midi": 64,
                    "time": 257.8880310058594,
                    "velocity": 0.9763779527559056,
                    "duration": 0.084228515625
                },
                {
                    "name": "C#3",
                    "midi": 49,
                    "time": 257.94525146484375,
                    "velocity": 0.9763779527559056,
                    "duration": 0.102081298828125
                },
                {
                    "name": "F#4",
                    "midi": 66,
                    "time": 257.96356201171875,
                    "velocity": 0.937007874015748,
                    "duration": 0.076904296875
                },
                {
                    "name": "G4",
                    "midi": 67,
                    "time": 258.0574035644531,
                    "velocity": 0.9763779527559056,
                    "duration": 0.211944580078125
                },
                {
                    "name": "B2",
                    "midi": 47,
                    "time": 258.0574035644531,
                    "velocity": 0.9763779527559056,
                    "duration": 0.102996826171875
                },
                {
                    "name": "G2",
                    "midi": 43,
                    "time": 258.1700134277344,
                    "velocity": 0.9763779527559056,
                    "duration": 0.108489990234375
                },
                {
                    "name": "E4",
                    "midi": 64,
                    "time": 258.2881164550781,
                    "velocity": 0.9921259842519685,
                    "duration": 0.21148681640625
                },
                {
                    "name": "A2",
                    "midi": 45,
                    "time": 258.2881164550781,
                    "velocity": 0.984251968503937,
                    "duration": 0.1080322265625
                },
                {
                    "name": "G2",
                    "midi": 43,
                    "time": 258.40576171875,
                    "velocity": 0.9763779527559056,
                    "duration": 0.102996826171875
                },
                {
                    "name": "F#4",
                    "midi": 66,
                    "time": 258.51837158203125,
                    "velocity": 0.9763779527559056,
                    "duration": 0.212860107421875
                },
                {
                    "name": "A2",
                    "midi": 45,
                    "time": 258.51837158203125,
                    "velocity": 0.9763779527559056,
                    "duration": 0.102996826171875
                },
                {
                    "name": "A1",
                    "midi": 33,
                    "time": 258.6309814453125,
                    "velocity": 0.937007874015748,
                    "duration": 0.109405517578125
                },
                {
                    "name": "E4",
                    "midi": 64,
                    "time": 258.75,
                    "velocity": 1,
                    "duration": 0.084686279296875
                },
                {
                    "name": "D2",
                    "midi": 38,
                    "time": 258.75,
                    "velocity": 1,
                    "duration": 0.12542724609375
                },
                {
                    "name": "D4",
                    "midi": 62,
                    "time": 258.82598876953125,
                    "velocity": 0.9763779527559056,
                    "duration": 0.084686279296875
                },
                {
                    "name": "A2",
                    "midi": 45,
                    "time": 258.885498046875,
                    "velocity": 0.9763779527559056,
                    "duration": 0.10345458984375
                },
                {
                    "name": "E4",
                    "midi": 64,
                    "time": 258.9019775390625,
                    "velocity": 0.9763779527559056,
                    "duration": 0.084686279296875
                },
                {
                    "name": "D4",
                    "midi": 62,
                    "time": 258.97796630859375,
                    "velocity": 0.937007874015748,
                    "duration": 0.70953369140625
                },
                {
                    "name": "D3",
                    "midi": 50,
                    "time": 258.9990234375,
                    "velocity": 0.9763779527559056,
                    "duration": 0.10345458984375
                },
                {
                    "name": "F#3",
                    "midi": 54,
                    "time": 259.112548828125,
                    "velocity": 0.9763779527559056,
                    "duration": 0.10894775390625
                },
                {
                    "name": "A3",
                    "midi": 57,
                    "time": 259.2315673828125,
                    "velocity": 1,
                    "duration": 0.107574462890625
                },
                {
                    "name": "F#3",
                    "midi": 54,
                    "time": 259.3492126464844,
                    "velocity": 0.9763779527559056,
                    "duration": 0.100250244140625
                },
                {
                    "name": "D3",
                    "midi": 50,
                    "time": 259.4590759277344,
                    "velocity": 0.9763779527559056,
                    "duration": 0.1007080078125
                },
                {
                    "name": "A2",
                    "midi": 45,
                    "time": 259.56939697265625,
                    "velocity": 0.9763779527559056,
                    "duration": 0.108489990234375
                },
                {
                    "name": "A5",
                    "midi": 81,
                    "time": 259.6875,
                    "velocity": 1,
                    "duration": 0.481109619140625
                },
                {
                    "name": "D2",
                    "midi": 38,
                    "time": 259.6875,
                    "velocity": 1,
                    "duration": 0.12542724609375
                },
                {
                    "name": "F#2",
                    "midi": 42,
                    "time": 259.822998046875,
                    "velocity": 0.968503937007874,
                    "duration": 0.10345458984375
                },
                {
                    "name": "A2",
                    "midi": 45,
                    "time": 259.9365234375,
                    "velocity": 0.9763779527559056,
                    "duration": 0.10345458984375
                },
                {
                    "name": "D3",
                    "midi": 50,
                    "time": 260.050048828125,
                    "velocity": 0.9763779527559056,
                    "duration": 0.10894775390625
                },
                {
                    "name": "D5",
                    "midi": 74,
                    "time": 260.1690673828125,
                    "velocity": 0.9133858267716536,
                    "duration": 0.208740234375
                },
                {
                    "name": "F#3",
                    "midi": 54,
                    "time": 260.1690673828125,
                    "velocity": 1,
                    "duration": 0.107574462890625
                },
                {
                    "name": "A3",
                    "midi": 57,
                    "time": 260.2867126464844,
                    "velocity": 0.9763779527559056,
                    "duration": 0.100250244140625
                },
                {
                    "name": "D5",
                    "midi": 74,
                    "time": 260.3965759277344,
                    "velocity": 0.8818897637795275,
                    "duration": 0.20965576171875
                },
                {
                    "name": "D4",
                    "midi": 62,
                    "time": 260.3965759277344,
                    "velocity": 0.9763779527559056,
                    "duration": 0.1007080078125
                },
                {
                    "name": "F#4",
                    "midi": 66,
                    "time": 260.50689697265625,
                    "velocity": 0.9763779527559056,
                    "duration": 0.108489990234375
                },
                {
                    "name": "E5",
                    "midi": 76,
                    "time": 260.625,
                    "velocity": 1,
                    "duration": 0.084228515625
                },
                {
                    "name": "A4",
                    "midi": 69,
                    "time": 260.6272888183594,
                    "velocity": 1,
                    "duration": 0.12725830078125
                },
                {
                    "name": "D5",
                    "midi": 74,
                    "time": 260.7005310058594,
                    "velocity": 0.9763779527559056,
                    "duration": 0.084228515625
                },
                {
                    "name": "E4",
                    "midi": 64,
                    "time": 260.7646179199219,
                    "velocity": 0.9763779527559056,
                    "duration": 0.10345458984375
                },
                {
                    "name": "E5",
                    "midi": 76,
                    "time": 260.77606201171875,
                    "velocity": 0.9763779527559056,
                    "duration": 0.084228515625
                },
                {
                    "name": "D5",
                    "midi": 74,
                    "time": 260.8515930175781,
                    "velocity": 0.937007874015748,
                    "duration": 0.222930908203125
                },
                {
                    "name": "A4",
                    "midi": 69,
                    "time": 260.8781433105469,
                    "velocity": 0.9763779527559056,
                    "duration": 0.102996826171875
                },
                {
                    "name": "E4",
                    "midi": 64,
                    "time": 260.9912109375,
                    "velocity": 0.9763779527559056,
                    "duration": 0.10894775390625
                },
                {
                    "name": "C#5",
                    "midi": 73,
                    "time": 261.1102294921875,
                    "velocity": 0.9921259842519685,
                    "duration": 0.463714599609375
                },
                {
                    "name": "A4",
                    "midi": 69,
                    "time": 261.1102294921875,
                    "velocity": 0.9921259842519685,
                    "duration": 0.108489990234375
                },
                {
                    "name": "E4",
                    "midi": 64,
                    "time": 261.2287902832031,
                    "velocity": 0.9763779527559056,
                    "duration": 0.102081298828125
                },
                {
                    "name": "C#4",
                    "midi": 61,
                    "time": 261.3409423828125,
                    "velocity": 0.9763779527559056,
                    "duration": 0.102996826171875
                },
                {
                    "name": "A3",
                    "midi": 57,
                    "time": 261.45355224609375,
                    "velocity": 0.9763779527559056,
                    "duration": 0.11077880859375
                },
                {
                    "name": "A5",
                    "midi": 81,
                    "time": 261.57440185546875,
                    "velocity": 1,
                    "duration": 0.4632568359375
                },
                {
                    "name": "A2",
                    "midi": 45,
                    "time": 261.57440185546875,
                    "velocity": 1,
                    "duration": 0.11077880859375
                },
                {
                    "name": "C#3",
                    "midi": 49,
                    "time": 261.69525146484375,
                    "velocity": 0.9763779527559056,
                    "duration": 0.102081298828125
                },
                {
                    "name": "E3",
                    "midi": 52,
                    "time": 261.8074035644531,
                    "velocity": 0.9763779527559056,
                    "duration": 0.102996826171875
                },
                {
                    "name": "A3",
                    "midi": 57,
                    "time": 261.9200134277344,
                    "velocity": 0.9763779527559056,
                    "duration": 0.108489990234375
                },
                {
                    "name": "E5",
                    "midi": 76,
                    "time": 262.0381164550781,
                    "velocity": 0.8976377952755905,
                    "duration": 0.21148681640625
                },
                {
                    "name": "C#4",
                    "midi": 61,
                    "time": 262.0381164550781,
                    "velocity": 0.9921259842519685,
                    "duration": 0.1080322265625
                },
                {
                    "name": "E4",
                    "midi": 64,
                    "time": 262.15576171875,
                    "velocity": 0.9763779527559056,
                    "duration": 0.102996826171875
                },
                {
                    "name": "E5",
                    "midi": 76,
                    "time": 262.26837158203125,
                    "velocity": 0.8818897637795275,
                    "duration": 0.240325927734375
                },
                {
                    "name": "A4",
                    "midi": 69,
                    "time": 262.26837158203125,
                    "velocity": 0.9763779527559056,
                    "duration": 0.102996826171875
                },
                {
                    "name": "A3",
                    "midi": 57,
                    "time": 262.3809814453125,
                    "velocity": 0.9763779527559056,
                    "duration": 0.109405517578125
                },
                {
                    "name": "G5",
                    "midi": 79,
                    "time": 262.5,
                    "velocity": 1,
                    "duration": 0.08697509765625
                },
                {
                    "name": "D4",
                    "midi": 62,
                    "time": 262.5022888183594,
                    "velocity": 1,
                    "duration": 0.12725830078125
                },
                {
                    "name": "F#5",
                    "midi": 78,
                    "time": 262.57781982421875,
                    "velocity": 0.9763779527559056,
                    "duration": 0.08697509765625
                },
                {
                    "name": "A3",
                    "midi": 57,
                    "time": 262.6396179199219,
                    "velocity": 0.9763779527559056,
                    "duration": 0.10345458984375
                },
                {
                    "name": "G5",
                    "midi": 79,
                    "time": 262.6556396484375,
                    "velocity": 0.9763779527559056,
                    "duration": 0.08697509765625
                },
                {
                    "name": "F#5",
                    "midi": 78,
                    "time": 262.73345947265625,
                    "velocity": 0.937007874015748,
                    "duration": 0.216522216796875
                },
                {
                    "name": "D4",
                    "midi": 62,
                    "time": 262.7531433105469,
                    "velocity": 0.9763779527559056,
                    "duration": 0.102996826171875
                },
                {
                    "name": "A3",
                    "midi": 57,
                    "time": 262.8662109375,
                    "velocity": 0.9763779527559056,
                    "duration": 0.10894775390625
                },
                {
                    "name": "E5",
                    "midi": 76,
                    "time": 262.9852294921875,
                    "velocity": 0.9763779527559056,
                    "duration": 0.1318359375
                },
                {
                    "name": "D4",
                    "midi": 62,
                    "time": 262.9852294921875,
                    "velocity": 0.9921259842519685,
                    "duration": 0.108489990234375
                },
                {
                    "name": "D5",
                    "midi": 74,
                    "time": 263.1037902832031,
                    "velocity": 0.937007874015748,
                    "duration": 0.34515380859375
                },
                {
                    "name": "A3",
                    "midi": 57,
                    "time": 263.1037902832031,
                    "velocity": 0.9763779527559056,
                    "duration": 0.102081298828125
                },
                {
                    "name": "F#3",
                    "midi": 54,
                    "time": 263.2159423828125,
                    "velocity": 0.9763779527559056,
                    "duration": 0.102996826171875
                },
                {
                    "name": "D3",
                    "midi": 50,
                    "time": 263.32855224609375,
                    "velocity": 0.9763779527559056,
                    "duration": 0.11077880859375
                },
                {
                    "name": "A5",
                    "midi": 81,
                    "time": 263.44940185546875,
                    "velocity": 1,
                    "duration": 0.4632568359375
                },
                {
                    "name": "D2",
                    "midi": 38,
                    "time": 263.44940185546875,
                    "velocity": 0.984251968503937,
                    "duration": 0.11077880859375
                },
                {
                    "name": "F#2",
                    "midi": 42,
                    "time": 263.57025146484375,
                    "velocity": 0.968503937007874,
                    "duration": 0.102081298828125
                },
                {
                    "name": "A2",
                    "midi": 45,
                    "time": 263.6824035644531,
                    "velocity": 0.9763779527559056,
                    "duration": 0.102996826171875
                },
                {
                    "name": "D3",
                    "midi": 50,
                    "time": 263.7950134277344,
                    "velocity": 0.9763779527559056,
                    "duration": 0.108489990234375
                },
                {
                    "name": "D5",
                    "midi": 74,
                    "time": 263.9131164550781,
                    "velocity": 0.8976377952755905,
                    "duration": 0.21148681640625
                },
                {
                    "name": "F#3",
                    "midi": 54,
                    "time": 263.9131164550781,
                    "velocity": 0.9921259842519685,
                    "duration": 0.1080322265625
                },
                {
                    "name": "A3",
                    "midi": 57,
                    "time": 264.03076171875,
                    "velocity": 0.9763779527559056,
                    "duration": 0.102996826171875
                },
                {
                    "name": "D5",
                    "midi": 74,
                    "time": 264.14337158203125,
                    "velocity": 0.8818897637795275,
                    "duration": 0.212860107421875
                },
                {
                    "name": "D4",
                    "midi": 62,
                    "time": 264.14337158203125,
                    "velocity": 0.9763779527559056,
                    "duration": 0.102996826171875
                },
                {
                    "name": "F#4",
                    "midi": 66,
                    "time": 264.2559814453125,
                    "velocity": 0.9763779527559056,
                    "duration": 0.109405517578125
                },
                {
                    "name": "E5",
                    "midi": 76,
                    "time": 264.375,
                    "velocity": 1,
                    "duration": 0.08697509765625
                },
                {
                    "name": "A4",
                    "midi": 69,
                    "time": 264.3772888183594,
                    "velocity": 1,
                    "duration": 0.12725830078125
                },
                {
                    "name": "D5",
                    "midi": 74,
                    "time": 264.45281982421875,
                    "velocity": 0.9763779527559056,
                    "duration": 0.08697509765625
                },
                {
                    "name": "E4",
                    "midi": 64,
                    "time": 264.5146179199219,
                    "velocity": 0.9763779527559056,
                    "duration": 0.10345458984375
                },
                {
                    "name": "E5",
                    "midi": 76,
                    "time": 264.5306396484375,
                    "velocity": 0.9763779527559056,
                    "duration": 0.08697509765625
                },
                {
                    "name": "D5",
                    "midi": 74,
                    "time": 264.60845947265625,
                    "velocity": 0.937007874015748,
                    "duration": 0.216522216796875
                },
                {
                    "name": "A4",
                    "midi": 69,
                    "time": 264.6281433105469,
                    "velocity": 0.9763779527559056,
                    "duration": 0.102996826171875
                },
                {
                    "name": "E4",
                    "midi": 64,
                    "time": 264.7412109375,
                    "velocity": 0.9763779527559056,
                    "duration": 0.10894775390625
                },
                {
                    "name": "C#5",
                    "midi": 73,
                    "time": 264.8602294921875,
                    "velocity": 0.9921259842519685,
                    "duration": 0.463714599609375
                },
                {
                    "name": "A4",
                    "midi": 69,
                    "time": 264.8602294921875,
                    "velocity": 0.9921259842519685,
                    "duration": 0.108489990234375
                },
                {
                    "name": "E4",
                    "midi": 64,
                    "time": 264.9787902832031,
                    "velocity": 0.9763779527559056,
                    "duration": 0.102081298828125
                },
                {
                    "name": "C#4",
                    "midi": 61,
                    "time": 265.0909423828125,
                    "velocity": 0.9763779527559056,
                    "duration": 0.102996826171875
                },
                {
                    "name": "A3",
                    "midi": 57,
                    "time": 265.20355224609375,
                    "velocity": 0.9763779527559056,
                    "duration": 0.11077880859375
                },
                {
                    "name": "A5",
                    "midi": 81,
                    "time": 265.32440185546875,
                    "velocity": 1,
                    "duration": 0.4632568359375
                },
                {
                    "name": "A2",
                    "midi": 45,
                    "time": 265.32440185546875,
                    "velocity": 1,
                    "duration": 0.11077880859375
                },
                {
                    "name": "C#3",
                    "midi": 49,
                    "time": 265.44525146484375,
                    "velocity": 0.9763779527559056,
                    "duration": 0.102081298828125
                },
                {
                    "name": "E3",
                    "midi": 52,
                    "time": 265.5574035644531,
                    "velocity": 0.9763779527559056,
                    "duration": 0.102996826171875
                },
                {
                    "name": "A3",
                    "midi": 57,
                    "time": 265.6700134277344,
                    "velocity": 0.9763779527559056,
                    "duration": 0.108489990234375
                },
                {
                    "name": "E5",
                    "midi": 76,
                    "time": 265.7881164550781,
                    "velocity": 0.8976377952755905,
                    "duration": 0.21148681640625
                },
                {
                    "name": "C#4",
                    "midi": 61,
                    "time": 265.7881164550781,
                    "velocity": 0.9921259842519685,
                    "duration": 0.1080322265625
                },
                {
                    "name": "E4",
                    "midi": 64,
                    "time": 265.90576171875,
                    "velocity": 0.9763779527559056,
                    "duration": 0.102996826171875
                },
                {
                    "name": "E5",
                    "midi": 76,
                    "time": 266.01837158203125,
                    "velocity": 0.8818897637795275,
                    "duration": 0.240325927734375
                },
                {
                    "name": "A4",
                    "midi": 69,
                    "time": 266.01837158203125,
                    "velocity": 0.9763779527559056,
                    "duration": 0.102996826171875
                },
                {
                    "name": "A3",
                    "midi": 57,
                    "time": 266.1309814453125,
                    "velocity": 0.9763779527559056,
                    "duration": 0.109405517578125
                },
                {
                    "name": "G5",
                    "midi": 79,
                    "time": 266.25,
                    "velocity": 1,
                    "duration": 0.08697509765625
                },
                {
                    "name": "D4",
                    "midi": 62,
                    "time": 266.2522888183594,
                    "velocity": 1,
                    "duration": 0.12725830078125
                },
                {
                    "name": "F#5",
                    "midi": 78,
                    "time": 266.32781982421875,
                    "velocity": 0.9763779527559056,
                    "duration": 0.08697509765625
                },
                {
                    "name": "A3",
                    "midi": 57,
                    "time": 266.3896179199219,
                    "velocity": 0.9763779527559056,
                    "duration": 0.10345458984375
                },
                {
                    "name": "G5",
                    "midi": 79,
                    "time": 266.4056396484375,
                    "velocity": 0.9763779527559056,
                    "duration": 0.08697509765625
                },
                {
                    "name": "F#5",
                    "midi": 78,
                    "time": 266.48345947265625,
                    "velocity": 0.937007874015748,
                    "duration": 0.216522216796875
                },
                {
                    "name": "D4",
                    "midi": 62,
                    "time": 266.5031433105469,
                    "velocity": 0.9763779527559056,
                    "duration": 0.102996826171875
                },
                {
                    "name": "A3",
                    "midi": 57,
                    "time": 266.6162109375,
                    "velocity": 0.9763779527559056,
                    "duration": 0.10894775390625
                },
                {
                    "name": "E5",
                    "midi": 76,
                    "time": 266.7352294921875,
                    "velocity": 0.9763779527559056,
                    "duration": 0.1318359375
                },
                {
                    "name": "D4",
                    "midi": 62,
                    "time": 266.7352294921875,
                    "velocity": 0.9921259842519685,
                    "duration": 0.108489990234375
                },
                {
                    "name": "D5",
                    "midi": 74,
                    "time": 266.8537902832031,
                    "velocity": 0.937007874015748,
                    "duration": 0.34515380859375
                },
                {
                    "name": "A3",
                    "midi": 57,
                    "time": 266.8537902832031,
                    "velocity": 0.9763779527559056,
                    "duration": 0.102081298828125
                },
                {
                    "name": "F#3",
                    "midi": 54,
                    "time": 266.9659423828125,
                    "velocity": 0.9763779527559056,
                    "duration": 0.102996826171875
                },
                {
                    "name": "D3",
                    "midi": 50,
                    "time": 267.07855224609375,
                    "velocity": 0.9763779527559056,
                    "duration": 0.11077880859375
                },
                {
                    "name": "A5",
                    "midi": 81,
                    "time": 267.19940185546875,
                    "velocity": 1,
                    "duration": 0.4632568359375
                },
                {
                    "name": "D2",
                    "midi": 38,
                    "time": 267.19940185546875,
                    "velocity": 0.984251968503937,
                    "duration": 0.11077880859375
                },
                {
                    "name": "F#2",
                    "midi": 42,
                    "time": 267.32025146484375,
                    "velocity": 0.968503937007874,
                    "duration": 0.102081298828125
                },
                {
                    "name": "A2",
                    "midi": 45,
                    "time": 267.4324035644531,
                    "velocity": 0.9763779527559056,
                    "duration": 0.102996826171875
                },
                {
                    "name": "D3",
                    "midi": 50,
                    "time": 267.5450134277344,
                    "velocity": 0.9763779527559056,
                    "duration": 0.108489990234375
                },
                {
                    "name": "D5",
                    "midi": 74,
                    "time": 267.6631164550781,
                    "velocity": 0.9921259842519685,
                    "duration": 0.21148681640625
                },
                {
                    "name": "F#3",
                    "midi": 54,
                    "time": 267.6631164550781,
                    "velocity": 0.9921259842519685,
                    "duration": 0.1080322265625
                },
                {
                    "name": "A3",
                    "midi": 57,
                    "time": 267.78076171875,
                    "velocity": 0.9763779527559056,
                    "duration": 0.102996826171875
                },
                {
                    "name": "D5",
                    "midi": 74,
                    "time": 267.89337158203125,
                    "velocity": 0.9763779527559056,
                    "duration": 0.212860107421875
                },
                {
                    "name": "D4",
                    "midi": 62,
                    "time": 267.89337158203125,
                    "velocity": 0.9763779527559056,
                    "duration": 0.102996826171875
                },
                {
                    "name": "F#4",
                    "midi": 66,
                    "time": 268.0059814453125,
                    "velocity": 0.9763779527559056,
                    "duration": 0.109405517578125
                },
                {
                    "name": "E5",
                    "midi": 76,
                    "time": 268.1272888183594,
                    "velocity": 1,
                    "duration": 0.232086181640625
                },
                {
                    "name": "C#4",
                    "midi": 61,
                    "time": 268.1272888183594,
                    "velocity": 1,
                    "duration": 0.12725830078125
                },
                {
                    "name": "A4",
                    "midi": 69,
                    "time": 268.2646179199219,
                    "velocity": 0.9763779527559056,
                    "duration": 0.10345458984375
                },
                {
                    "name": "E5",
                    "midi": 76,
                    "time": 268.3781433105469,
                    "velocity": 0.9763779527559056,
                    "duration": 0.21331787109375
                },
                {
                    "name": "G#4",
                    "midi": 68,
                    "time": 268.3781433105469,
                    "velocity": 0.9763779527559056,
                    "duration": 0.102996826171875
                },
                {
                    "name": "A4",
                    "midi": 69,
                    "time": 268.4912109375,
                    "velocity": 0.9763779527559056,
                    "duration": 0.10894775390625
                },
                {
                    "name": "C#5",
                    "midi": 73,
                    "time": 268.6102294921875,
                    "velocity": 0.9921259842519685,
                    "duration": 0.211944580078125
                },
                {
                    "name": "A3",
                    "midi": 57,
                    "time": 268.6102294921875,
                    "velocity": 0.9921259842519685,
                    "duration": 0.108489990234375
                },
                {
                    "name": "A4",
                    "midi": 69,
                    "time": 268.7287902832031,
                    "velocity": 0.9763779527559056,
                    "duration": 0.102081298828125
                },
                {
                    "name": "C#5",
                    "midi": 73,
                    "time": 268.8409423828125,
                    "velocity": 0.9763779527559056,
                    "duration": 0.214691162109375
                },
                {
                    "name": "G#4",
                    "midi": 68,
                    "time": 268.8409423828125,
                    "velocity": 0.9763779527559056,
                    "duration": 0.102996826171875
                },
                {
                    "name": "A4",
                    "midi": 69,
                    "time": 268.95355224609375,
                    "velocity": 0.9763779527559056,
                    "duration": 0.11077880859375
                },
                {
                    "name": "D5",
                    "midi": 74,
                    "time": 269.07440185546875,
                    "velocity": 1,
                    "duration": 0.2142333984375
                },
                {
                    "name": "B3",
                    "midi": 59,
                    "time": 269.07440185546875,
                    "velocity": 1,
                    "duration": 0.11077880859375
                },
                {
                    "name": "A4",
                    "midi": 69,
                    "time": 269.19525146484375,
                    "velocity": 0.9763779527559056,
                    "duration": 0.102081298828125
                },
                {
                    "name": "D5",
                    "midi": 74,
                    "time": 269.3074035644531,
                    "velocity": 0.9763779527559056,
                    "duration": 0.211944580078125
                },
                {
                    "name": "G#4",
                    "midi": 68,
                    "time": 269.3074035644531,
                    "velocity": 0.9763779527559056,
                    "duration": 0.102996826171875
                },
                {
                    "name": "A4",
                    "midi": 69,
                    "time": 269.4200134277344,
                    "velocity": 0.9763779527559056,
                    "duration": 0.108489990234375
                },
                {
                    "name": "B4",
                    "midi": 71,
                    "time": 269.5381164550781,
                    "velocity": 0.9921259842519685,
                    "duration": 0.21148681640625
                },
                {
                    "name": "E4",
                    "midi": 64,
                    "time": 269.5381164550781,
                    "velocity": 0.9921259842519685,
                    "duration": 0.1080322265625
                },
                {
                    "name": "G#4",
                    "midi": 68,
                    "time": 269.65576171875,
                    "velocity": 0.9763779527559056,
                    "duration": 0.102996826171875
                },
                {
                    "name": "E5",
                    "midi": 76,
                    "time": 269.76837158203125,
                    "velocity": 0.9763779527559056,
                    "duration": 0.212860107421875
                },
                {
                    "name": "F#4",
                    "midi": 66,
                    "time": 269.76837158203125,
                    "velocity": 0.9763779527559056,
                    "duration": 0.102996826171875
                },
                {
                    "name": "G#4",
                    "midi": 68,
                    "time": 269.8809814453125,
                    "velocity": 0.9763779527559056,
                    "duration": 0.109405517578125
                },
                {
                    "name": "D5",
                    "midi": 74,
                    "time": 270,
                    "velocity": 1,
                    "duration": 0.085601806640625
                },
                {
                    "name": "A3",
                    "midi": 57,
                    "time": 270.0022888183594,
                    "velocity": 1,
                    "duration": 0.12725830078125
                },
                {
                    "name": "C#5",
                    "midi": 73,
                    "time": 270.0764465332031,
                    "velocity": 0.9763779527559056,
                    "duration": 0.085601806640625
                },
                {
                    "name": "A4",
                    "midi": 69,
                    "time": 270.1396179199219,
                    "velocity": 0.9763779527559056,
                    "duration": 0.10345458984375
                },
                {
                    "name": "D5",
                    "midi": 74,
                    "time": 270.15289306640625,
                    "velocity": 0.9763779527559056,
                    "duration": 0.085601806640625
                },
                {
                    "name": "C#5",
                    "midi": 73,
                    "time": 270.2293395996094,
                    "velocity": 0.937007874015748,
                    "duration": 0.11260986328125
                },
                {
                    "name": "G#4",
                    "midi": 68,
                    "time": 270.2531433105469,
                    "velocity": 0.9763779527559056,
                    "duration": 0.102996826171875
                },
                {
                    "name": "D5",
                    "midi": 74,
                    "time": 270.3662109375,
                    "velocity": 0.9763779527559056,
                    "duration": 0.10894775390625
                },
                {
                    "name": "A4",
                    "midi": 69,
                    "time": 270.3662109375,
                    "velocity": 0.9763779527559056,
                    "duration": 0.10894775390625
                },
                {
                    "name": "E5",
                    "midi": 76,
                    "time": 270.4852294921875,
                    "velocity": 0.9921259842519685,
                    "duration": 0.05584716796875
                },
                {
                    "name": "B3",
                    "midi": 59,
                    "time": 270.4852294921875,
                    "velocity": 0.9921259842519685,
                    "duration": 0.108489990234375
                },
                {
                    "name": "D5",
                    "midi": 74,
                    "time": 270.54656982421875,
                    "velocity": 0.9763779527559056,
                    "duration": 0.051727294921875
                },
                {
                    "name": "E5",
                    "midi": 76,
                    "time": 270.6037902832031,
                    "velocity": 0.9763779527559056,
                    "duration": 0.050811767578125
                },
                {
                    "name": "G#4",
                    "midi": 68,
                    "time": 270.6037902832031,
                    "velocity": 0.9763779527559056,
                    "duration": 0.102081298828125
                },
                {
                    "name": "D5",
                    "midi": 74,
                    "time": 270.66009521484375,
                    "velocity": 0.9763779527559056,
                    "duration": 0.05035400390625
                },
                {
                    "name": "E5",
                    "midi": 76,
                    "time": 270.7159423828125,
                    "velocity": 0.9763779527559056,
                    "duration": 0.050811767578125
                },
                {
                    "name": "F#4",
                    "midi": 66,
                    "time": 270.7159423828125,
                    "velocity": 0.9763779527559056,
                    "duration": 0.102996826171875
                },
                {
                    "name": "D5",
                    "midi": 74,
                    "time": 270.7722473144531,
                    "velocity": 0.9763779527559056,
                    "duration": 0.050811767578125
                },
                {
                    "name": "C#5",
                    "midi": 73,
                    "time": 270.82855224609375,
                    "velocity": 0.9763779527559056,
                    "duration": 0.051727294921875
                },
                {
                    "name": "G#4",
                    "midi": 68,
                    "time": 270.82855224609375,
                    "velocity": 0.9763779527559056,
                    "duration": 0.11077880859375
                },
                {
                    "name": "D5",
                    "midi": 74,
                    "time": 270.8857727050781,
                    "velocity": 0.9763779527559056,
                    "duration": 0.058135986328125
                },
                {
                    "name": "E5",
                    "midi": 76,
                    "time": 270.94940185546875,
                    "velocity": 1,
                    "duration": 0.2142333984375
                },
                {
                    "name": "C#4",
                    "midi": 61,
                    "time": 270.94940185546875,
                    "velocity": 1,
                    "duration": 0.11077880859375
                },
                {
                    "name": "A4",
                    "midi": 69,
                    "time": 271.07025146484375,
                    "velocity": 0.9763779527559056,
                    "duration": 0.102081298828125
                },
                {
                    "name": "A5",
                    "midi": 81,
                    "time": 271.1824035644531,
                    "velocity": 0.9763779527559056,
                    "duration": 0.211944580078125
                },
                {
                    "name": "G#4",
                    "midi": 68,
                    "time": 271.1824035644531,
                    "velocity": 0.9763779527559056,
                    "duration": 0.102996826171875
                },
                {
                    "name": "F#4",
                    "midi": 66,
                    "time": 271.2950134277344,
                    "velocity": 0.9763779527559056,
                    "duration": 0.108489990234375
                },
                {
                    "name": "A4",
                    "midi": 69,
                    "time": 271.4131164550781,
                    "velocity": 0.9921259842519685,
                    "duration": 0.21148681640625
                },
                {
                    "name": "E4",
                    "midi": 64,
                    "time": 271.4131164550781,
                    "velocity": 0.9921259842519685,
                    "duration": 0.1080322265625
                },
                {
                    "name": "D4",
                    "midi": 62,
                    "time": 271.53076171875,
                    "velocity": 0.9763779527559056,
                    "duration": 0.102996826171875
                },
                {
                    "name": "A4",
                    "midi": 69,
                    "time": 271.64337158203125,
                    "velocity": 0.9763779527559056,
                    "duration": 0.212860107421875
                },
                {
                    "name": "C#4",
                    "midi": 61,
                    "time": 271.64337158203125,
                    "velocity": 0.9763779527559056,
                    "duration": 0.102996826171875
                },
                {
                    "name": "B3",
                    "midi": 59,
                    "time": 271.7559814453125,
                    "velocity": 0.9763779527559056,
                    "duration": 0.109405517578125
                },
                {
                    "name": "A4",
                    "midi": 69,
                    "time": 271.8772888183594,
                    "velocity": 1,
                    "duration": 0.232086181640625
                },
                {
                    "name": "C#4",
                    "midi": 61,
                    "time": 271.8772888183594,
                    "velocity": 1,
                    "duration": 0.12725830078125
                },
                {
                    "name": "A4",
                    "midi": 69,
                    "time": 272.0146179199219,
                    "velocity": 0.9763779527559056,
                    "duration": 0.10345458984375
                },
                {
                    "name": "A5",
                    "midi": 81,
                    "time": 272.1281433105469,
                    "velocity": 0.9763779527559056,
                    "duration": 0.21331787109375
                },
                {
                    "name": "G#4",
                    "midi": 68,
                    "time": 272.1281433105469,
                    "velocity": 0.9763779527559056,
                    "duration": 0.102996826171875
                },
                {
                    "name": "F#4",
                    "midi": 66,
                    "time": 272.2412109375,
                    "velocity": 0.9763779527559056,
                    "duration": 0.10894775390625
                },
                {
                    "name": "A4",
                    "midi": 69,
                    "time": 272.3602294921875,
                    "velocity": 0.9921259842519685,
                    "duration": 0.211944580078125
                },
                {
                    "name": "E4",
                    "midi": 64,
                    "time": 272.3602294921875,
                    "velocity": 0.9921259842519685,
                    "duration": 0.108489990234375
                },
                {
                    "name": "D4",
                    "midi": 62,
                    "time": 272.4787902832031,
                    "velocity": 0.9763779527559056,
                    "duration": 0.102081298828125
                },
                {
                    "name": "B4",
                    "midi": 71,
                    "time": 272.5909423828125,
                    "velocity": 0.9763779527559056,
                    "duration": 0.214691162109375
                },
                {
                    "name": "C#4",
                    "midi": 61,
                    "time": 272.5909423828125,
                    "velocity": 0.9763779527559056,
                    "duration": 0.102996826171875
                },
                {
                    "name": "B3",
                    "midi": 59,
                    "time": 272.70355224609375,
                    "velocity": 0.9763779527559056,
                    "duration": 0.11077880859375
                },
                {
                    "name": "C#5",
                    "midi": 73,
                    "time": 272.82440185546875,
                    "velocity": 1,
                    "duration": 0.2142333984375
                },
                {
                    "name": "A3",
                    "midi": 57,
                    "time": 272.82440185546875,
                    "velocity": 1,
                    "duration": 0.11077880859375
                },
                {
                    "name": "E3",
                    "midi": 52,
                    "time": 272.94525146484375,
                    "velocity": 0.9763779527559056,
                    "duration": 0.102081298828125
                },
                {
                    "name": "B4",
                    "midi": 71,
                    "time": 273.0574035644531,
                    "velocity": 0.9763779527559056,
                    "duration": 0.211944580078125
                },
                {
                    "name": "F#3",
                    "midi": 54,
                    "time": 273.0574035644531,
                    "velocity": 0.9763779527559056,
                    "duration": 0.102996826171875
                },
                {
                    "name": "G#3",
                    "midi": 56,
                    "time": 273.1700134277344,
                    "velocity": 0.9763779527559056,
                    "duration": 0.108489990234375
                },
                {
                    "name": "C#5",
                    "midi": 73,
                    "time": 273.28125,
                    "velocity": 0.9921259842519685,
                    "duration": 0.084228515625
                },
                {
                    "name": "A3",
                    "midi": 57,
                    "time": 273.2881164550781,
                    "velocity": 0.9921259842519685,
                    "duration": 0.1080322265625
                },
                {
                    "name": "B4",
                    "midi": 71,
                    "time": 273.3567810058594,
                    "velocity": 0.9763779527559056,
                    "duration": 0.084228515625
                },
                {
                    "name": "B3",
                    "midi": 59,
                    "time": 273.40576171875,
                    "velocity": 0.9763779527559056,
                    "duration": 0.102996826171875
                },
                {
                    "name": "C#5",
                    "midi": 73,
                    "time": 273.43231201171875,
                    "velocity": 0.937007874015748,
                    "duration": 0.076904296875
                },
                {
                    "name": "D5",
                    "midi": 74,
                    "time": 273.51837158203125,
                    "velocity": 0.9763779527559056,
                    "duration": 0.212860107421875
                },
                {
                    "name": "C#4",
                    "midi": 61,
                    "time": 273.51837158203125,
                    "velocity": 0.9763779527559056,
                    "duration": 0.102996826171875
                },
                {
                    "name": "D4",
                    "midi": 62,
                    "time": 273.6309814453125,
                    "velocity": 0.9763779527559056,
                    "duration": 0.109405517578125
                },
                {
                    "name": "C#5",
                    "midi": 73,
                    "time": 273.75,
                    "velocity": 1,
                    "duration": 0.086517333984375
                },
                {
                    "name": "E4",
                    "midi": 64,
                    "time": 273.7522888183594,
                    "velocity": 1,
                    "duration": 0.12725830078125
                },
                {
                    "name": "B4",
                    "midi": 71,
                    "time": 273.8273620605469,
                    "velocity": 0.9763779527559056,
                    "duration": 0.086517333984375
                },
                {
                    "name": "B3",
                    "midi": 59,
                    "time": 273.8896179199219,
                    "velocity": 0.9763779527559056,
                    "duration": 0.10345458984375
                },
                {
                    "name": "C#5",
                    "midi": 73,
                    "time": 273.90472412109375,
                    "velocity": 0.9763779527559056,
                    "duration": 0.086517333984375
                },
                {
                    "name": "B4",
                    "midi": 71,
                    "time": 273.9820861816406,
                    "velocity": 0.937007874015748,
                    "duration": 0.705413818359375
                },
                {
                    "name": "D4",
                    "midi": 62,
                    "time": 274.0031433105469,
                    "velocity": 0.9763779527559056,
                    "duration": 0.102996826171875
                },
                {
                    "name": "G#3",
                    "midi": 56,
                    "time": 274.1162109375,
                    "velocity": 0.9763779527559056,
                    "duration": 0.10894775390625
                },
                {
                    "name": "B3",
                    "midi": 59,
                    "time": 274.2352294921875,
                    "velocity": 0.9921259842519685,
                    "duration": 0.108489990234375
                },
                {
                    "name": "E3",
                    "midi": 52,
                    "time": 274.3537902832031,
                    "velocity": 0.9763779527559056,
                    "duration": 0.102081298828125
                },
                {
                    "name": "G#3",
                    "midi": 56,
                    "time": 274.4659423828125,
                    "velocity": 0.9763779527559056,
                    "duration": 0.102996826171875
                },
                {
                    "name": "B2",
                    "midi": 47,
                    "time": 274.57855224609375,
                    "velocity": 0.9763779527559056,
                    "duration": 0.11077880859375
                },
                {
                    "name": "E5",
                    "midi": 76,
                    "time": 274.69940185546875,
                    "velocity": 1,
                    "duration": 0.4632568359375
                },
                {
                    "name": "C#3",
                    "midi": 49,
                    "time": 274.69940185546875,
                    "velocity": 1,
                    "duration": 0.11077880859375
                },
                {
                    "name": "D3",
                    "midi": 50,
                    "time": 274.82025146484375,
                    "velocity": 0.9763779527559056,
                    "duration": 0.102081298828125
                },
                {
                    "name": "C#3",
                    "midi": 49,
                    "time": 274.9324035644531,
                    "velocity": 0.9763779527559056,
                    "duration": 0.102996826171875
                },
                {
                    "name": "B2",
                    "midi": 47,
                    "time": 275.0450134277344,
                    "velocity": 0.9763779527559056,
                    "duration": 0.108489990234375
                },
                {
                    "name": "E4",
                    "midi": 64,
                    "time": 275.1631164550781,
                    "velocity": 0.9921259842519685,
                    "duration": 0.21148681640625
                },
                {
                    "name": "A2",
                    "midi": 45,
                    "time": 275.1631164550781,
                    "velocity": 0.984251968503937,
                    "duration": 0.1080322265625
                },
                {
                    "name": "G#2",
                    "midi": 44,
                    "time": 275.28076171875,
                    "velocity": 0.9763779527559056,
                    "duration": 0.102996826171875
                },
                {
                    "name": "E4",
                    "midi": 64,
                    "time": 275.39337158203125,
                    "velocity": 0.9763779527559056,
                    "duration": 0.212860107421875
                },
                {
                    "name": "F#2",
                    "midi": 42,
                    "time": 275.39337158203125,
                    "velocity": 0.968503937007874,
                    "duration": 0.102996826171875
                },
                {
                    "name": "E2",
                    "midi": 40,
                    "time": 275.5059814453125,
                    "velocity": 0.968503937007874,
                    "duration": 0.109405517578125
                },
                {
                    "name": "F#4",
                    "midi": 66,
                    "time": 275.6272888183594,
                    "velocity": 1,
                    "duration": 0.232086181640625
                },
                {
                    "name": "D2",
                    "midi": 38,
                    "time": 275.6272888183594,
                    "velocity": 1,
                    "duration": 0.12725830078125
                },
                {
                    "name": "D3",
                    "midi": 50,
                    "time": 275.7646179199219,
                    "velocity": 0.9763779527559056,
                    "duration": 0.10345458984375
                },
                {
                    "name": "F#4",
                    "midi": 66,
                    "time": 275.8781433105469,
                    "velocity": 0.9763779527559056,
                    "duration": 0.21331787109375
                },
                {
                    "name": "C#3",
                    "midi": 49,
                    "time": 275.8781433105469,
                    "velocity": 0.9763779527559056,
                    "duration": 0.102996826171875
                },
                {
                    "name": "D3",
                    "midi": 50,
                    "time": 275.9912109375,
                    "velocity": 0.9763779527559056,
                    "duration": 0.10894775390625
                },
                {
                    "name": "G#4",
                    "midi": 68,
                    "time": 276.1102294921875,
                    "velocity": 0.9921259842519685,
                    "duration": 0.211944580078125
                },
                {
                    "name": "E2",
                    "midi": 40,
                    "time": 276.1102294921875,
                    "velocity": 0.9763779527559056,
                    "duration": 0.108489990234375
                },
                {
                    "name": "E3",
                    "midi": 52,
                    "time": 276.2287902832031,
                    "velocity": 0.9763779527559056,
                    "duration": 0.102081298828125
                },
                {
                    "name": "G#4",
                    "midi": 68,
                    "time": 276.3409423828125,
                    "velocity": 0.9763779527559056,
                    "duration": 0.214691162109375
                },
                {
                    "name": "D3",
                    "midi": 50,
                    "time": 276.3409423828125,
                    "velocity": 0.9763779527559056,
                    "duration": 0.102996826171875
                },
                {
                    "name": "E3",
                    "midi": 52,
                    "time": 276.45355224609375,
                    "velocity": 0.9763779527559056,
                    "duration": 0.11077880859375
                },
                {
                    "name": "A4",
                    "midi": 69,
                    "time": 276.57440185546875,
                    "velocity": 1,
                    "duration": 0.2142333984375
                },
                {
                    "name": "F#2",
                    "midi": 42,
                    "time": 276.57440185546875,
                    "velocity": 0.9921259842519685,
                    "duration": 0.11077880859375
                },
                {
                    "name": "F#3",
                    "midi": 54,
                    "time": 276.69525146484375,
                    "velocity": 0.9763779527559056,
                    "duration": 0.102081298828125
                },
                {
                    "name": "A4",
                    "midi": 69,
                    "time": 276.8074035644531,
                    "velocity": 0.9763779527559056,
                    "duration": 0.211944580078125
                },
                {
                    "name": "E3",
                    "midi": 52,
                    "time": 276.8074035644531,
                    "velocity": 0.9763779527559056,
                    "duration": 0.102996826171875
                },
                {
                    "name": "F#3",
                    "midi": 54,
                    "time": 276.9200134277344,
                    "velocity": 0.9763779527559056,
                    "duration": 0.108489990234375
                },
                {
                    "name": "B4",
                    "midi": 71,
                    "time": 277.0381164550781,
                    "velocity": 0.9921259842519685,
                    "duration": 0.21148681640625
                },
                {
                    "name": "G#2",
                    "midi": 44,
                    "time": 277.0381164550781,
                    "velocity": 0.984251968503937,
                    "duration": 0.1080322265625
                },
                {
                    "name": "G#3",
                    "midi": 56,
                    "time": 277.15576171875,
                    "velocity": 0.9763779527559056,
                    "duration": 0.102996826171875
                },
                {
                    "name": "B4",
                    "midi": 71,
                    "time": 277.26837158203125,
                    "velocity": 0.9763779527559056,
                    "duration": 0.212860107421875
                },
                {
                    "name": "F#3",
                    "midi": 54,
                    "time": 277.26837158203125,
                    "velocity": 0.9763779527559056,
                    "duration": 0.102996826171875
                },
                {
                    "name": "G#3",
                    "midi": 56,
                    "time": 277.3809814453125,
                    "velocity": 0.9763779527559056,
                    "duration": 0.109405517578125
                },
                {
                    "name": "D5",
                    "midi": 74,
                    "time": 277.5,
                    "velocity": 1,
                    "duration": 0.0860595703125
                },
                {
                    "name": "A2",
                    "midi": 45,
                    "time": 277.5022888183594,
                    "velocity": 1,
                    "duration": 0.12725830078125
                },
                {
                    "name": "C#5",
                    "midi": 73,
                    "time": 277.576904296875,
                    "velocity": 0.9763779527559056,
                    "duration": 0.0860595703125
                },
                {
                    "name": "A3",
                    "midi": 57,
                    "time": 277.6396179199219,
                    "velocity": 0.9763779527559056,
                    "duration": 0.10345458984375
                },
                {
                    "name": "D5",
                    "midi": 74,
                    "time": 277.65380859375,
                    "velocity": 0.9763779527559056,
                    "duration": 0.0860595703125
                },
                {
                    "name": "C#5",
                    "midi": 73,
                    "time": 277.730712890625,
                    "velocity": 0.937007874015748,
                    "duration": 0.111236572265625
                },
                {
                    "name": "G#3",
                    "midi": 56,
                    "time": 277.7531433105469,
                    "velocity": 0.9763779527559056,
                    "duration": 0.102996826171875
                },
                {
                    "name": "D5",
                    "midi": 74,
                    "time": 277.8662109375,
                    "velocity": 0.9763779527559056,
                    "duration": 0.10894775390625
                },
                {
                    "name": "A3",
                    "midi": 57,
                    "time": 277.8662109375,
                    "velocity": 0.9763779527559056,
                    "duration": 0.10894775390625
                },
                {
                    "name": "E5",
                    "midi": 76,
                    "time": 277.9852294921875,
                    "velocity": 0.9921259842519685,
                    "duration": 0.05584716796875
                },
                {
                    "name": "B2",
                    "midi": 47,
                    "time": 277.9852294921875,
                    "velocity": 0.984251968503937,
                    "duration": 0.108489990234375
                },
                {
                    "name": "D5",
                    "midi": 74,
                    "time": 278.04656982421875,
                    "velocity": 0.9763779527559056,
                    "duration": 0.051727294921875
                },
                {
                    "name": "E5",
                    "midi": 76,
                    "time": 278.1037902832031,
                    "velocity": 0.9763779527559056,
                    "duration": 0.050811767578125
                },
                {
                    "name": "G#3",
                    "midi": 56,
                    "time": 278.1037902832031,
                    "velocity": 0.9763779527559056,
                    "duration": 0.102081298828125
                },
                {
                    "name": "D5",
                    "midi": 74,
                    "time": 278.16009521484375,
                    "velocity": 0.9763779527559056,
                    "duration": 0.05035400390625
                },
                {
                    "name": "E5",
                    "midi": 76,
                    "time": 278.2159423828125,
                    "velocity": 0.9763779527559056,
                    "duration": 0.050811767578125
                },
                {
                    "name": "F#3",
                    "midi": 54,
                    "time": 278.2159423828125,
                    "velocity": 0.9763779527559056,
                    "duration": 0.102996826171875
                },
                {
                    "name": "D5",
                    "midi": 74,
                    "time": 278.2722473144531,
                    "velocity": 0.9763779527559056,
                    "duration": 0.050811767578125
                },
                {
                    "name": "C#5",
                    "midi": 73,
                    "time": 278.32855224609375,
                    "velocity": 0.9763779527559056,
                    "duration": 0.051727294921875
                },
                {
                    "name": "G#3",
                    "midi": 56,
                    "time": 278.32855224609375,
                    "velocity": 0.9763779527559056,
                    "duration": 0.11077880859375
                },
                {
                    "name": "D5",
                    "midi": 74,
                    "time": 278.3857727050781,
                    "velocity": 0.9763779527559056,
                    "duration": 0.058135986328125
                },
                {
                    "name": "E5",
                    "midi": 76,
                    "time": 278.44940185546875,
                    "velocity": 1,
                    "duration": 0.2142333984375
                },
                {
                    "name": "C#3",
                    "midi": 49,
                    "time": 278.44940185546875,
                    "velocity": 1,
                    "duration": 0.11077880859375
                },
                {
                    "name": "A3",
                    "midi": 57,
                    "time": 278.57025146484375,
                    "velocity": 0.9763779527559056,
                    "duration": 0.102081298828125
                },
                {
                    "name": "A5",
                    "midi": 81,
                    "time": 278.6824035644531,
                    "velocity": 0.9763779527559056,
                    "duration": 0.211944580078125
                },
                {
                    "name": "G#3",
                    "midi": 56,
                    "time": 278.6824035644531,
                    "velocity": 0.9763779527559056,
                    "duration": 0.102996826171875
                },
                {
                    "name": "F#3",
                    "midi": 54,
                    "time": 278.7950134277344,
                    "velocity": 0.9763779527559056,
                    "duration": 0.108489990234375
                },
                {
                    "name": "A4",
                    "midi": 69,
                    "time": 278.9131164550781,
                    "velocity": 0.9921259842519685,
                    "duration": 0.21148681640625
                },
                {
                    "name": "E3",
                    "midi": 52,
                    "time": 278.9131164550781,
                    "velocity": 0.9921259842519685,
                    "duration": 0.1080322265625
                },
                {
                    "name": "D3",
                    "midi": 50,
                    "time": 279.03076171875,
                    "velocity": 0.9763779527559056,
                    "duration": 0.102996826171875
                },
                {
                    "name": "A4",
                    "midi": 69,
                    "time": 279.14337158203125,
                    "velocity": 0.9763779527559056,
                    "duration": 0.212860107421875
                },
                {
                    "name": "C#3",
                    "midi": 49,
                    "time": 279.14337158203125,
                    "velocity": 0.9763779527559056,
                    "duration": 0.102996826171875
                },
                {
                    "name": "B2",
                    "midi": 47,
                    "time": 279.2559814453125,
                    "velocity": 0.9763779527559056,
                    "duration": 0.109405517578125
                },
                {
                    "name": "A4",
                    "midi": 69,
                    "time": 279.3772888183594,
                    "velocity": 1,
                    "duration": 0.232086181640625
                },
                {
                    "name": "C#3",
                    "midi": 49,
                    "time": 279.3772888183594,
                    "velocity": 1,
                    "duration": 0.12725830078125
                },
                {
                    "name": "A3",
                    "midi": 57,
                    "time": 279.5146179199219,
                    "velocity": 0.9763779527559056,
                    "duration": 0.10345458984375
                },
                {
                    "name": "A5",
                    "midi": 81,
                    "time": 279.6281433105469,
                    "velocity": 0.9763779527559056,
                    "duration": 0.21331787109375
                },
                {
                    "name": "G#3",
                    "midi": 56,
                    "time": 279.6281433105469,
                    "velocity": 0.9763779527559056,
                    "duration": 0.102996826171875
                },
                {
                    "name": "F#3",
                    "midi": 54,
                    "time": 279.7412109375,
                    "velocity": 0.9763779527559056,
                    "duration": 0.10894775390625
                },
                {
                    "name": "A4",
                    "midi": 69,
                    "time": 279.8602294921875,
                    "velocity": 0.9921259842519685,
                    "duration": 0.211944580078125
                },
                {
                    "name": "E3",
                    "midi": 52,
                    "time": 279.8602294921875,
                    "velocity": 0.9921259842519685,
                    "duration": 0.108489990234375
                },
                {
                    "name": "D3",
                    "midi": 50,
                    "time": 279.9787902832031,
                    "velocity": 0.9763779527559056,
                    "duration": 0.102081298828125
                },
                {
                    "name": "B4",
                    "midi": 71,
                    "time": 280.0909423828125,
                    "velocity": 0.9763779527559056,
                    "duration": 0.214691162109375
                },
                {
                    "name": "C#3",
                    "midi": 49,
                    "time": 280.0909423828125,
                    "velocity": 0.9763779527559056,
                    "duration": 0.102996826171875
                },
                {
                    "name": "B2",
                    "midi": 47,
                    "time": 280.20355224609375,
                    "velocity": 0.9763779527559056,
                    "duration": 0.11077880859375
                },
                {
                    "name": "C#5",
                    "midi": 73,
                    "time": 280.32440185546875,
                    "velocity": 1,
                    "duration": 0.2142333984375
                },
                {
                    "name": "A2",
                    "midi": 45,
                    "time": 280.32440185546875,
                    "velocity": 1,
                    "duration": 0.11077880859375
                },
                {
                    "name": "B2",
                    "midi": 47,
                    "time": 280.44525146484375,
                    "velocity": 0.9763779527559056,
                    "duration": 0.102081298828125
                },
                {
                    "name": "D5",
                    "midi": 74,
                    "time": 280.5574035644531,
                    "velocity": 0.9763779527559056,
                    "duration": 0.211944580078125
                },
                {
                    "name": "C#3",
                    "midi": 49,
                    "time": 280.5574035644531,
                    "velocity": 0.9763779527559056,
                    "duration": 0.102996826171875
                },
                {
                    "name": "D3",
                    "midi": 50,
                    "time": 280.6700134277344,
                    "velocity": 0.9763779527559056,
                    "duration": 0.108489990234375
                },
                {
                    "name": "B4",
                    "midi": 71,
                    "time": 280.7881164550781,
                    "velocity": 0.9921259842519685,
                    "duration": 0.21148681640625
                },
                {
                    "name": "E3",
                    "midi": 52,
                    "time": 280.7881164550781,
                    "velocity": 0.9921259842519685,
                    "duration": 0.1080322265625
                },
                {
                    "name": "D3",
                    "midi": 50,
                    "time": 280.90576171875,
                    "velocity": 0.9763779527559056,
                    "duration": 0.102996826171875
                },
                {
                    "name": "C#5",
                    "midi": 73,
                    "time": 281.01837158203125,
                    "velocity": 0.9763779527559056,
                    "duration": 0.212860107421875
                },
                {
                    "name": "E3",
                    "midi": 52,
                    "time": 281.01837158203125,
                    "velocity": 0.9763779527559056,
                    "duration": 0.102996826171875
                },
                {
                    "name": "E2",
                    "midi": 40,
                    "time": 281.1309814453125,
                    "velocity": 0.968503937007874,
                    "duration": 0.109405517578125
                },
                {
                    "name": "B4",
                    "midi": 71,
                    "time": 281.25,
                    "velocity": 1,
                    "duration": 0.0860595703125
                },
                {
                    "name": "A2",
                    "midi": 45,
                    "time": 281.25,
                    "velocity": 1,
                    "duration": 0.12542724609375
                },
                {
                    "name": "A4",
                    "midi": 69,
                    "time": 281.326904296875,
                    "velocity": 0.9763779527559056,
                    "duration": 0.0860595703125
                },
                {
                    "name": "A1",
                    "midi": 33,
                    "time": 281.385498046875,
                    "velocity": 0.937007874015748,
                    "duration": 0.10345458984375
                },
                {
                    "name": "B4",
                    "midi": 71,
                    "time": 281.40380859375,
                    "velocity": 0.9763779527559056,
                    "duration": 0.0860595703125
                },
                {
                    "name": "A4",
                    "midi": 69,
                    "time": 281.480712890625,
                    "velocity": 0.937007874015748,
                    "duration": 0.706787109375
                },
                {
                    "name": "C#2",
                    "midi": 37,
                    "time": 281.4990234375,
                    "velocity": 0.952755905511811,
                    "duration": 0.10345458984375
                },
                {
                    "name": "E2",
                    "midi": 40,
                    "time": 281.612548828125,
                    "velocity": 0.968503937007874,
                    "duration": 0.10894775390625
                },
                {
                    "name": "A2",
                    "midi": 45,
                    "time": 281.7315673828125,
                    "velocity": 1,
                    "duration": 0.107574462890625
                },
                {
                    "name": "C#3",
                    "midi": 49,
                    "time": 281.8492126464844,
                    "velocity": 0.9763779527559056,
                    "duration": 0.100250244140625
                },
                {
                    "name": "E3",
                    "midi": 52,
                    "time": 281.9590759277344,
                    "velocity": 0.9763779527559056,
                    "duration": 0.1007080078125
                },
                {
                    "name": "A3",
                    "midi": 57,
                    "time": 282.06939697265625,
                    "velocity": 0.9763779527559056,
                    "duration": 0.108489990234375
                },
                {
                    "name": "F#5",
                    "midi": 78,
                    "time": 282.1875,
                    "velocity": 0.9291338582677166,
                    "duration": 0.13916015625
                },
                {
                    "name": "D3",
                    "midi": 50,
                    "time": 282.1875,
                    "velocity": 1,
                    "duration": 0.481109619140625
                },
                {
                    "name": "A5",
                    "midi": 81,
                    "time": 282.322998046875,
                    "velocity": 0.8818897637795275,
                    "duration": 0.1171875
                },
                {
                    "name": "D5",
                    "midi": 74,
                    "time": 282.4365234375,
                    "velocity": 0.8818897637795275,
                    "duration": 0.1171875
                },
                {
                    "name": "F#5",
                    "midi": 78,
                    "time": 282.550048828125,
                    "velocity": 0.8818897637795275,
                    "duration": 0.1226806640625
                },
                {
                    "name": "A4",
                    "midi": 69,
                    "time": 282.6690673828125,
                    "velocity": 0.9133858267716536,
                    "duration": 0.121307373046875
                },
                {
                    "name": "D4",
                    "midi": 62,
                    "time": 282.6690673828125,
                    "velocity": 1,
                    "duration": 0.208740234375
                },
                {
                    "name": "D5",
                    "midi": 74,
                    "time": 282.7867126464844,
                    "velocity": 0.8818897637795275,
                    "duration": 0.113525390625
                },
                {
                    "name": "F#4",
                    "midi": 66,
                    "time": 282.8965759277344,
                    "velocity": 0.8818897637795275,
                    "duration": 0.113983154296875
                },
                {
                    "name": "D3",
                    "midi": 50,
                    "time": 282.8965759277344,
                    "velocity": 0.9763779527559056,
                    "duration": 0.20965576171875
                },
                {
                    "name": "A4",
                    "midi": 69,
                    "time": 283.00689697265625,
                    "velocity": 0.8818897637795275,
                    "duration": 0.108489990234375
                },
                {
                    "name": "B4",
                    "midi": 71,
                    "time": 283.125,
                    "velocity": 1,
                    "duration": 0.084686279296875
                },
                {
                    "name": "E3",
                    "midi": 52,
                    "time": 283.1272888183594,
                    "velocity": 1,
                    "duration": 0.12725830078125
                },
                {
                    "name": "A4",
                    "midi": 69,
                    "time": 283.20098876953125,
                    "velocity": 0.9763779527559056,
                    "duration": 0.084686279296875
                },
                {
                    "name": "B3",
                    "midi": 59,
                    "time": 283.2646179199219,
                    "velocity": 0.9763779527559056,
                    "duration": 0.10345458984375
                },
                {
                    "name": "B4",
                    "midi": 71,
                    "time": 283.2769775390625,
                    "velocity": 0.9763779527559056,
                    "duration": 0.084686279296875
                },
                {
                    "name": "A4",
                    "midi": 69,
                    "time": 283.35296630859375,
                    "velocity": 0.937007874015748,
                    "duration": 0.2215576171875
                },
                {
                    "name": "E4",
                    "midi": 64,
                    "time": 283.3781433105469,
                    "velocity": 0.9763779527559056,
                    "duration": 0.102996826171875
                },
                {
                    "name": "B3",
                    "midi": 59,
                    "time": 283.4912109375,
                    "velocity": 0.9763779527559056,
                    "duration": 0.10894775390625
                },
                {
                    "name": "G4",
                    "midi": 67,
                    "time": 283.6102294921875,
                    "velocity": 0.9921259842519685,
                    "duration": 0.463714599609375
                },
                {
                    "name": "E3",
                    "midi": 52,
                    "time": 283.6102294921875,
                    "velocity": 0.9921259842519685,
                    "duration": 0.108489990234375
                },
                {
                    "name": "G3",
                    "midi": 55,
                    "time": 283.7287902832031,
                    "velocity": 0.9763779527559056,
                    "duration": 0.102081298828125
                },
                {
                    "name": "B2",
                    "midi": 47,
                    "time": 283.8409423828125,
                    "velocity": 0.9763779527559056,
                    "duration": 0.102996826171875
                },
                {
                    "name": "D3",
                    "midi": 50,
                    "time": 283.95355224609375,
                    "velocity": 0.9763779527559056,
                    "duration": 0.11077880859375
                },
                {
                    "name": "E5",
                    "midi": 76,
                    "time": 284.07440185546875,
                    "velocity": 1,
                    "duration": 0.11077880859375
                },
                {
                    "name": "C#3",
                    "midi": 49,
                    "time": 284.07440185546875,
                    "velocity": 1,
                    "duration": 0.4632568359375
                },
                {
                    "name": "G5",
                    "midi": 79,
                    "time": 284.19525146484375,
                    "velocity": 0.9763779527559056,
                    "duration": 0.102081298828125
                },
                {
                    "name": "C#5",
                    "midi": 73,
                    "time": 284.3074035644531,
                    "velocity": 0.9763779527559056,
                    "duration": 0.102996826171875
                },
                {
                    "name": "E5",
                    "midi": 76,
                    "time": 284.4200134277344,
                    "velocity": 0.9763779527559056,
                    "duration": 0.108489990234375
                },
                {
                    "name": "A4",
                    "midi": 69,
                    "time": 284.5381164550781,
                    "velocity": 0.9921259842519685,
                    "duration": 0.1080322265625
                },
                {
                    "name": "A3",
                    "midi": 57,
                    "time": 284.5381164550781,
                    "velocity": 0.9921259842519685,
                    "duration": 0.21148681640625
                },
                {
                    "name": "C#5",
                    "midi": 73,
                    "time": 284.65576171875,
                    "velocity": 0.9763779527559056,
                    "duration": 0.102996826171875
                },
                {
                    "name": "E4",
                    "midi": 64,
                    "time": 284.76837158203125,
                    "velocity": 0.9763779527559056,
                    "duration": 0.102996826171875
                },
                {
                    "name": "A2",
                    "midi": 45,
                    "time": 284.76837158203125,
                    "velocity": 0.9763779527559056,
                    "duration": 0.212860107421875
                },
                {
                    "name": "G4",
                    "midi": 67,
                    "time": 284.8809814453125,
                    "velocity": 0.9763779527559056,
                    "duration": 0.109405517578125
                },
                {
                    "name": "A4",
                    "midi": 69,
                    "time": 285,
                    "velocity": 1,
                    "duration": 0.084686279296875
                },
                {
                    "name": "D3",
                    "midi": 50,
                    "time": 285.0022888183594,
                    "velocity": 1,
                    "duration": 0.12725830078125
                },
                {
                    "name": "G4",
                    "midi": 67,
                    "time": 285.07598876953125,
                    "velocity": 0.9763779527559056,
                    "duration": 0.084686279296875
                },
                {
                    "name": "A3",
                    "midi": 57,
                    "time": 285.1396179199219,
                    "velocity": 0.9763779527559056,
                    "duration": 0.10345458984375
                },
                {
                    "name": "A4",
                    "midi": 69,
                    "time": 285.1519775390625,
                    "velocity": 0.9763779527559056,
                    "duration": 0.084686279296875
                },
                {
                    "name": "G4",
                    "midi": 67,
                    "time": 285.22796630859375,
                    "velocity": 0.937007874015748,
                    "duration": 0.2215576171875
                },
                {
                    "name": "D4",
                    "midi": 62,
                    "time": 285.2531433105469,
                    "velocity": 0.9763779527559056,
                    "duration": 0.102996826171875
                },
                {
                    "name": "A3",
                    "midi": 57,
                    "time": 285.3662109375,
                    "velocity": 0.9763779527559056,
                    "duration": 0.10894775390625
                },
                {
                    "name": "F#4",
                    "midi": 66,
                    "time": 285.4852294921875,
                    "velocity": 0.9921259842519685,
                    "duration": 0.463714599609375
                },
                {
                    "name": "D3",
                    "midi": 50,
                    "time": 285.4852294921875,
                    "velocity": 0.9921259842519685,
                    "duration": 0.108489990234375
                },
                {
                    "name": "F#3",
                    "midi": 54,
                    "time": 285.6037902832031,
                    "velocity": 0.9763779527559056,
                    "duration": 0.102081298828125
                },
                {
                    "name": "A2",
                    "midi": 45,
                    "time": 285.7159423828125,
                    "velocity": 0.9763779527559056,
                    "duration": 0.102996826171875
                },
                {
                    "name": "D3",
                    "midi": 50,
                    "time": 285.82855224609375,
                    "velocity": 0.9763779527559056,
                    "duration": 0.11077880859375
                },
                {
                    "name": "D5",
                    "midi": 74,
                    "time": 285.94940185546875,
                    "velocity": 1,
                    "duration": 0.11077880859375
                },
                {
                    "name": "F#2",
                    "midi": 42,
                    "time": 285.94940185546875,
                    "velocity": 0.9921259842519685,
                    "duration": 0.693511962890625
                },
                {
                    "name": "F#5",
                    "midi": 78,
                    "time": 286.07025146484375,
                    "velocity": 0.9763779527559056,
                    "duration": 0.102081298828125
                },
                {
                    "name": "A4",
                    "midi": 69,
                    "time": 286.1824035644531,
                    "velocity": 0.9763779527559056,
                    "duration": 0.102996826171875
                },
                {
                    "name": "D5",
                    "midi": 74,
                    "time": 286.2950134277344,
                    "velocity": 0.9763779527559056,
                    "duration": 0.108489990234375
                },
                {
                    "name": "F#4",
                    "midi": 66,
                    "time": 286.4131164550781,
                    "velocity": 0.9921259842519685,
                    "duration": 0.1080322265625
                },
                {
                    "name": "A4",
                    "midi": 69,
                    "time": 286.53076171875,
                    "velocity": 0.9763779527559056,
                    "duration": 0.102996826171875
                },
                {
                    "name": "D4",
                    "midi": 62,
                    "time": 286.64337158203125,
                    "velocity": 0.9763779527559056,
                    "duration": 0.102996826171875
                },
                {
                    "name": "D3",
                    "midi": 50,
                    "time": 286.64337158203125,
                    "velocity": 0.9763779527559056,
                    "duration": 0.212860107421875
                },
                {
                    "name": "A4",
                    "midi": 69,
                    "time": 286.7559814453125,
                    "velocity": 0.9763779527559056,
                    "duration": 0.109405517578125
                },
                {
                    "name": "G4",
                    "midi": 67,
                    "time": 286.8772888183594,
                    "velocity": 0.9606299212598425,
                    "duration": 0.12725830078125
                },
                {
                    "name": "B4",
                    "midi": 71,
                    "time": 286.8772888183594,
                    "velocity": 1,
                    "duration": 0.12725830078125
                },
                {
                    "name": "G2",
                    "midi": 43,
                    "time": 286.8772888183594,
                    "velocity": 1,
                    "duration": 0.12725830078125
                },
                {
                    "name": "D5",
                    "midi": 74,
                    "time": 287.0146179199219,
                    "velocity": 0.9763779527559056,
                    "duration": 0.10345458984375
                },
                {
                    "name": "D3",
                    "midi": 50,
                    "time": 287.0146179199219,
                    "velocity": 0.9763779527559056,
                    "duration": 0.10345458984375
                },
                {
                    "name": "F#4",
                    "midi": 66,
                    "time": 287.1281433105469,
                    "velocity": 0.9133858267716536,
                    "duration": 0.102996826171875
                },
                {
                    "name": "A4",
                    "midi": 69,
                    "time": 287.1281433105469,
                    "velocity": 1,
                    "duration": 0.102996826171875
                },
                {
                    "name": "D2",
                    "midi": 38,
                    "time": 287.1281433105469,
                    "velocity": 0.9606299212598425,
                    "duration": 0.102996826171875
                },
                {
                    "name": "D5",
                    "midi": 74,
                    "time": 287.2412109375,
                    "velocity": 0.9763779527559056,
                    "duration": 0.10894775390625
                },
                {
                    "name": "D3",
                    "midi": 50,
                    "time": 287.2412109375,
                    "velocity": 0.9763779527559056,
                    "duration": 0.10894775390625
                },
                {
                    "name": "G4",
                    "midi": 67,
                    "time": 287.3602294921875,
                    "velocity": 0.9291338582677166,
                    "duration": 0.108489990234375
                },
                {
                    "name": "B4",
                    "midi": 71,
                    "time": 287.3602294921875,
                    "velocity": 1,
                    "duration": 0.108489990234375
                },
                {
                    "name": "G2",
                    "midi": 43,
                    "time": 287.3602294921875,
                    "velocity": 0.984251968503937,
                    "duration": 0.108489990234375
                },
                {
                    "name": "D5",
                    "midi": 74,
                    "time": 287.4787902832031,
                    "velocity": 0.9763779527559056,
                    "duration": 0.102081298828125
                },
                {
                    "name": "D3",
                    "midi": 50,
                    "time": 287.4787902832031,
                    "velocity": 0.9763779527559056,
                    "duration": 0.102081298828125
                },
                {
                    "name": "F#4",
                    "midi": 66,
                    "time": 287.5909423828125,
                    "velocity": 0.9133858267716536,
                    "duration": 0.102996826171875
                },
                {
                    "name": "A4",
                    "midi": 69,
                    "time": 287.5909423828125,
                    "velocity": 1,
                    "duration": 0.102996826171875
                },
                {
                    "name": "D2",
                    "midi": 38,
                    "time": 287.5909423828125,
                    "velocity": 0.9606299212598425,
                    "duration": 0.102996826171875
                },
                {
                    "name": "D5",
                    "midi": 74,
                    "time": 287.70355224609375,
                    "velocity": 0.9763779527559056,
                    "duration": 0.11077880859375
                },
                {
                    "name": "D3",
                    "midi": 50,
                    "time": 287.70355224609375,
                    "velocity": 0.9763779527559056,
                    "duration": 0.11077880859375
                },
                {
                    "name": "G4",
                    "midi": 67,
                    "time": 287.82440185546875,
                    "velocity": 0.9448818897637795,
                    "duration": 0.11077880859375
                },
                {
                    "name": "B4",
                    "midi": 71,
                    "time": 287.82440185546875,
                    "velocity": 1,
                    "duration": 0.11077880859375
                },
                {
                    "name": "G2",
                    "midi": 43,
                    "time": 287.82440185546875,
                    "velocity": 1,
                    "duration": 0.11077880859375
                },
                {
                    "name": "D5",
                    "midi": 74,
                    "time": 287.94525146484375,
                    "velocity": 0.9763779527559056,
                    "duration": 0.102081298828125
                },
                {
                    "name": "D3",
                    "midi": 50,
                    "time": 287.94525146484375,
                    "velocity": 0.9763779527559056,
                    "duration": 0.102081298828125
                },
                {
                    "name": "F#4",
                    "midi": 66,
                    "time": 288.0574035644531,
                    "velocity": 0.9133858267716536,
                    "duration": 0.102996826171875
                },
                {
                    "name": "A4",
                    "midi": 69,
                    "time": 288.0574035644531,
                    "velocity": 1,
                    "duration": 0.102996826171875
                },
                {
                    "name": "D2",
                    "midi": 38,
                    "time": 288.0574035644531,
                    "velocity": 0.9606299212598425,
                    "duration": 0.102996826171875
                },
                {
                    "name": "D5",
                    "midi": 74,
                    "time": 288.1700134277344,
                    "velocity": 0.9763779527559056,
                    "duration": 0.108489990234375
                },
                {
                    "name": "D3",
                    "midi": 50,
                    "time": 288.1700134277344,
                    "velocity": 0.9763779527559056,
                    "duration": 0.108489990234375
                },
                {
                    "name": "E4",
                    "midi": 64,
                    "time": 288.2881164550781,
                    "velocity": 0.9291338582677166,
                    "duration": 0.1080322265625
                },
                {
                    "name": "G4",
                    "midi": 67,
                    "time": 288.2881164550781,
                    "velocity": 1,
                    "duration": 0.1080322265625
                },
                {
                    "name": "G2",
                    "midi": 43,
                    "time": 288.2881164550781,
                    "velocity": 0.984251968503937,
                    "duration": 0.1080322265625
                },
                {
                    "name": "D5",
                    "midi": 74,
                    "time": 288.40576171875,
                    "velocity": 0.9763779527559056,
                    "duration": 0.102996826171875
                },
                {
                    "name": "D3",
                    "midi": 50,
                    "time": 288.40576171875,
                    "velocity": 0.9763779527559056,
                    "duration": 0.102996826171875
                },
                {
                    "name": "D4",
                    "midi": 62,
                    "time": 288.51837158203125,
                    "velocity": 0.9133858267716536,
                    "duration": 0.102996826171875
                },
                {
                    "name": "F#4",
                    "midi": 66,
                    "time": 288.51837158203125,
                    "velocity": 1,
                    "duration": 0.102996826171875
                },
                {
                    "name": "D2",
                    "midi": 38,
                    "time": 288.51837158203125,
                    "velocity": 0.9606299212598425,
                    "duration": 0.212860107421875
                },
                {
                    "name": "D5",
                    "midi": 74,
                    "time": 288.6309814453125,
                    "velocity": 0.9763779527559056,
                    "duration": 0.109405517578125
                },
                {
                    "name": "C#4",
                    "midi": 61,
                    "time": 288.75,
                    "velocity": 0.9763779527559056,
                    "duration": 0.9375
                },
                {
                    "name": "F#4",
                    "midi": 66,
                    "time": 288.75,
                    "velocity": 0.9606299212598425,
                    "duration": 0.0860595703125
                },
                {
                    "name": "A2",
                    "midi": 45,
                    "time": 288.7522888183594,
                    "velocity": 1,
                    "duration": 0.12725830078125
                },
                {
                    "name": "E4",
                    "midi": 64,
                    "time": 288.826904296875,
                    "velocity": 1,
                    "duration": 0.0860595703125
                },
                {
                    "name": "A1",
                    "midi": 33,
                    "time": 288.8896179199219,
                    "velocity": 0.937007874015748,
                    "duration": 0.10345458984375
                },
                {
                    "name": "F#4",
                    "midi": 66,
                    "time": 288.90380859375,
                    "velocity": 0.9133858267716536,
                    "duration": 0.0860595703125
                },
                {
                    "name": "E4",
                    "midi": 64,
                    "time": 288.980712890625,
                    "velocity": 0.952755905511811,
                    "duration": 0.706787109375
                },
                {
                    "name": "C#2",
                    "midi": 37,
                    "time": 289.0031433105469,
                    "velocity": 0.952755905511811,
                    "duration": 0.102996826171875
                },
                {
                    "name": "E2",
                    "midi": 40,
                    "time": 289.1162109375,
                    "velocity": 0.968503937007874,
                    "duration": 0.10894775390625
                },
                {
                    "name": "A2",
                    "midi": 45,
                    "time": 289.2352294921875,
                    "velocity": 0.984251968503937,
                    "duration": 0.108489990234375
                },
                {
                    "name": "C#3",
                    "midi": 49,
                    "time": 289.3537902832031,
                    "velocity": 0.9763779527559056,
                    "duration": 0.102081298828125
                },
                {
                    "name": "E3",
                    "midi": 52,
                    "time": 289.4659423828125,
                    "velocity": 0.9763779527559056,
                    "duration": 0.102996826171875
                },
                {
                    "name": "A3",
                    "midi": 57,
                    "time": 289.57855224609375,
                    "velocity": 0.9763779527559056,
                    "duration": 0.11077880859375
                },
                {
                    "name": "F#5",
                    "midi": 78,
                    "time": 289.69940185546875,
                    "velocity": 1,
                    "duration": 0.11077880859375
                },
                {
                    "name": "D3",
                    "midi": 50,
                    "time": 289.69940185546875,
                    "velocity": 1,
                    "duration": 0.4632568359375
                },
                {
                    "name": "A5",
                    "midi": 81,
                    "time": 289.82025146484375,
                    "velocity": 0.9763779527559056,
                    "duration": 0.102081298828125
                },
                {
                    "name": "D5",
                    "midi": 74,
                    "time": 289.9324035644531,
                    "velocity": 0.9763779527559056,
                    "duration": 0.102996826171875
                },
                {
                    "name": "F#5",
                    "midi": 78,
                    "time": 290.0450134277344,
                    "velocity": 0.9763779527559056,
                    "duration": 0.108489990234375
                },
                {
                    "name": "A4",
                    "midi": 69,
                    "time": 290.1631164550781,
                    "velocity": 0.9921259842519685,
                    "duration": 0.1080322265625
                },
                {
                    "name": "D4",
                    "midi": 62,
                    "time": 290.1631164550781,
                    "velocity": 0.9921259842519685,
                    "duration": 0.21148681640625
                },
                {
                    "name": "D5",
                    "midi": 74,
                    "time": 290.28076171875,
                    "velocity": 0.9763779527559056,
                    "duration": 0.102996826171875
                },
                {
                    "name": "F#4",
                    "midi": 66,
                    "time": 290.39337158203125,
                    "velocity": 0.9763779527559056,
                    "duration": 0.102996826171875
                },
                {
                    "name": "D3",
                    "midi": 50,
                    "time": 290.39337158203125,
                    "velocity": 0.9763779527559056,
                    "duration": 0.212860107421875
                },
                {
                    "name": "A4",
                    "midi": 69,
                    "time": 290.5059814453125,
                    "velocity": 0.9763779527559056,
                    "duration": 0.109405517578125
                },
                {
                    "name": "B4",
                    "midi": 71,
                    "time": 290.625,
                    "velocity": 1,
                    "duration": 0.0860595703125
                },
                {
                    "name": "E3",
                    "midi": 52,
                    "time": 290.6272888183594,
                    "velocity": 1,
                    "duration": 0.12725830078125
                },
                {
                    "name": "A4",
                    "midi": 69,
                    "time": 290.701904296875,
                    "velocity": 0.9763779527559056,
                    "duration": 0.0860595703125
                },
                {
                    "name": "B3",
                    "midi": 59,
                    "time": 290.7646179199219,
                    "velocity": 0.9763779527559056,
                    "duration": 0.10345458984375
                },
                {
                    "name": "B4",
                    "midi": 71,
                    "time": 290.77880859375,
                    "velocity": 0.9763779527559056,
                    "duration": 0.0860595703125
                },
                {
                    "name": "A4",
                    "midi": 69,
                    "time": 290.855712890625,
                    "velocity": 0.937007874015748,
                    "duration": 0.219268798828125
                },
                {
                    "name": "E4",
                    "midi": 64,
                    "time": 290.8781433105469,
                    "velocity": 0.9763779527559056,
                    "duration": 0.102996826171875
                },
                {
                    "name": "B3",
                    "midi": 59,
                    "time": 290.9912109375,
                    "velocity": 0.9763779527559056,
                    "duration": 0.10894775390625
                },
                {
                    "name": "G4",
                    "midi": 67,
                    "time": 291.1102294921875,
                    "velocity": 0.9921259842519685,
                    "duration": 0.463714599609375
                },
                {
                    "name": "E3",
                    "midi": 52,
                    "time": 291.1102294921875,
                    "velocity": 0.9921259842519685,
                    "duration": 0.108489990234375
                },
                {
                    "name": "G3",
                    "midi": 55,
                    "time": 291.2287902832031,
                    "velocity": 0.9763779527559056,
                    "duration": 0.102081298828125
                },
                {
                    "name": "B2",
                    "midi": 47,
                    "time": 291.3409423828125,
                    "velocity": 0.9763779527559056,
                    "duration": 0.102996826171875
                },
                {
                    "name": "D3",
                    "midi": 50,
                    "time": 291.45355224609375,
                    "velocity": 0.9763779527559056,
                    "duration": 0.11077880859375
                },
                {
                    "name": "E5",
                    "midi": 76,
                    "time": 291.57440185546875,
                    "velocity": 1,
                    "duration": 0.11077880859375
                },
                {
                    "name": "C#3",
                    "midi": 49,
                    "time": 291.57440185546875,
                    "velocity": 1,
                    "duration": 0.4632568359375
                },
                {
                    "name": "G5",
                    "midi": 79,
                    "time": 291.69525146484375,
                    "velocity": 0.9763779527559056,
                    "duration": 0.102081298828125
                },
                {
                    "name": "C#5",
                    "midi": 73,
                    "time": 291.8074035644531,
                    "velocity": 0.9763779527559056,
                    "duration": 0.102996826171875
                },
                {
                    "name": "E5",
                    "midi": 76,
                    "time": 291.9200134277344,
                    "velocity": 0.9763779527559056,
                    "duration": 0.108489990234375
                },
                {
                    "name": "A4",
                    "midi": 69,
                    "time": 292.0381164550781,
                    "velocity": 0.9921259842519685,
                    "duration": 0.1080322265625
                },
                {
                    "name": "A3",
                    "midi": 57,
                    "time": 292.0381164550781,
                    "velocity": 0.9921259842519685,
                    "duration": 0.21148681640625
                },
                {
                    "name": "C#5",
                    "midi": 73,
                    "time": 292.15576171875,
                    "velocity": 0.9763779527559056,
                    "duration": 0.102996826171875
                },
                {
                    "name": "E4",
                    "midi": 64,
                    "time": 292.26837158203125,
                    "velocity": 0.9763779527559056,
                    "duration": 0.102996826171875
                },
                {
                    "name": "A2",
                    "midi": 45,
                    "time": 292.26837158203125,
                    "velocity": 0.9763779527559056,
                    "duration": 0.212860107421875
                },
                {
                    "name": "G4",
                    "midi": 67,
                    "time": 292.3809814453125,
                    "velocity": 0.9763779527559056,
                    "duration": 0.109405517578125
                },
                {
                    "name": "A4",
                    "midi": 69,
                    "time": 292.5,
                    "velocity": 1,
                    "duration": 0.086517333984375
                },
                {
                    "name": "D3",
                    "midi": 50,
                    "time": 292.5022888183594,
                    "velocity": 1,
                    "duration": 0.12725830078125
                },
                {
                    "name": "G4",
                    "midi": 67,
                    "time": 292.5773620605469,
                    "velocity": 0.9763779527559056,
                    "duration": 0.086517333984375
                },
                {
                    "name": "A3",
                    "midi": 57,
                    "time": 292.6396179199219,
                    "velocity": 0.9763779527559056,
                    "duration": 0.10345458984375
                },
                {
                    "name": "A4",
                    "midi": 69,
                    "time": 292.65472412109375,
                    "velocity": 0.9763779527559056,
                    "duration": 0.086517333984375
                },
                {
                    "name": "G4",
                    "midi": 67,
                    "time": 292.7320861816406,
                    "velocity": 0.937007874015748,
                    "duration": 0.2178955078125
                },
                {
                    "name": "D4",
                    "midi": 62,
                    "time": 292.7531433105469,
                    "velocity": 0.9763779527559056,
                    "duration": 0.102996826171875
                },
                {
                    "name": "A3",
                    "midi": 57,
                    "time": 292.8662109375,
                    "velocity": 0.9763779527559056,
                    "duration": 0.10894775390625
                },
                {
                    "name": "F#4",
                    "midi": 66,
                    "time": 292.9852294921875,
                    "velocity": 0.9921259842519685,
                    "duration": 0.463714599609375
                },
                {
                    "name": "D3",
                    "midi": 50,
                    "time": 292.9852294921875,
                    "velocity": 0.9921259842519685,
                    "duration": 0.108489990234375
                },
                {
                    "name": "F#3",
                    "midi": 54,
                    "time": 293.1037902832031,
                    "velocity": 0.9763779527559056,
                    "duration": 0.102081298828125
                },
                {
                    "name": "A2",
                    "midi": 45,
                    "time": 293.2159423828125,
                    "velocity": 0.9763779527559056,
                    "duration": 0.102996826171875
                },
                {
                    "name": "D3",
                    "midi": 50,
                    "time": 293.32855224609375,
                    "velocity": 0.9763779527559056,
                    "duration": 0.11077880859375
                },
                {
                    "name": "D5",
                    "midi": 74,
                    "time": 293.44940185546875,
                    "velocity": 1,
                    "duration": 0.11077880859375
                },
                {
                    "name": "F#2",
                    "midi": 42,
                    "time": 293.44940185546875,
                    "velocity": 0.9921259842519685,
                    "duration": 0.693511962890625
                },
                {
                    "name": "F#5",
                    "midi": 78,
                    "time": 293.57025146484375,
                    "velocity": 0.9763779527559056,
                    "duration": 0.102081298828125
                },
                {
                    "name": "A4",
                    "midi": 69,
                    "time": 293.6824035644531,
                    "velocity": 0.9763779527559056,
                    "duration": 0.102996826171875
                },
                {
                    "name": "D5",
                    "midi": 74,
                    "time": 293.7950134277344,
                    "velocity": 0.9763779527559056,
                    "duration": 0.108489990234375
                },
                {
                    "name": "F#4",
                    "midi": 66,
                    "time": 293.9131164550781,
                    "velocity": 0.9921259842519685,
                    "duration": 0.1080322265625
                },
                {
                    "name": "A4",
                    "midi": 69,
                    "time": 294.03076171875,
                    "velocity": 0.9763779527559056,
                    "duration": 0.102996826171875
                },
                {
                    "name": "D4",
                    "midi": 62,
                    "time": 294.14337158203125,
                    "velocity": 0.9763779527559056,
                    "duration": 0.102996826171875
                },
                {
                    "name": "D3",
                    "midi": 50,
                    "time": 294.14337158203125,
                    "velocity": 0.9763779527559056,
                    "duration": 0.212860107421875
                },
                {
                    "name": "A4",
                    "midi": 69,
                    "time": 294.2559814453125,
                    "velocity": 0.9763779527559056,
                    "duration": 0.109405517578125
                },
                {
                    "name": "G4",
                    "midi": 67,
                    "time": 294.3772888183594,
                    "velocity": 0.9606299212598425,
                    "duration": 0.12725830078125
                },
                {
                    "name": "B4",
                    "midi": 71,
                    "time": 294.3772888183594,
                    "velocity": 1,
                    "duration": 0.12725830078125
                },
                {
                    "name": "G2",
                    "midi": 43,
                    "time": 294.3772888183594,
                    "velocity": 1,
                    "duration": 0.12725830078125
                },
                {
                    "name": "D5",
                    "midi": 74,
                    "time": 294.5146179199219,
                    "velocity": 0.9763779527559056,
                    "duration": 0.10345458984375
                },
                {
                    "name": "D3",
                    "midi": 50,
                    "time": 294.5146179199219,
                    "velocity": 0.9763779527559056,
                    "duration": 0.10345458984375
                },
                {
                    "name": "F#4",
                    "midi": 66,
                    "time": 294.6281433105469,
                    "velocity": 0.9133858267716536,
                    "duration": 0.102996826171875
                },
                {
                    "name": "A4",
                    "midi": 69,
                    "time": 294.6281433105469,
                    "velocity": 1,
                    "duration": 0.102996826171875
                },
                {
                    "name": "D2",
                    "midi": 38,
                    "time": 294.6281433105469,
                    "velocity": 0.9606299212598425,
                    "duration": 0.102996826171875
                },
                {
                    "name": "D5",
                    "midi": 74,
                    "time": 294.7412109375,
                    "velocity": 0.9763779527559056,
                    "duration": 0.10894775390625
                },
                {
                    "name": "D3",
                    "midi": 50,
                    "time": 294.7412109375,
                    "velocity": 0.9763779527559056,
                    "duration": 0.10894775390625
                },
                {
                    "name": "G4",
                    "midi": 67,
                    "time": 294.8602294921875,
                    "velocity": 0.9291338582677166,
                    "duration": 0.108489990234375
                },
                {
                    "name": "B4",
                    "midi": 71,
                    "time": 294.8602294921875,
                    "velocity": 1,
                    "duration": 0.108489990234375
                },
                {
                    "name": "G2",
                    "midi": 43,
                    "time": 294.8602294921875,
                    "velocity": 0.984251968503937,
                    "duration": 0.108489990234375
                },
                {
                    "name": "D5",
                    "midi": 74,
                    "time": 294.9787902832031,
                    "velocity": 0.9763779527559056,
                    "duration": 0.102081298828125
                },
                {
                    "name": "D3",
                    "midi": 50,
                    "time": 294.9787902832031,
                    "velocity": 0.9763779527559056,
                    "duration": 0.102081298828125
                },
                {
                    "name": "F#4",
                    "midi": 66,
                    "time": 295.0909423828125,
                    "velocity": 0.9133858267716536,
                    "duration": 0.102996826171875
                },
                {
                    "name": "A4",
                    "midi": 69,
                    "time": 295.0909423828125,
                    "velocity": 1,
                    "duration": 0.102996826171875
                },
                {
                    "name": "D2",
                    "midi": 38,
                    "time": 295.0909423828125,
                    "velocity": 0.9606299212598425,
                    "duration": 0.102996826171875
                },
                {
                    "name": "D5",
                    "midi": 74,
                    "time": 295.20355224609375,
                    "velocity": 0.9763779527559056,
                    "duration": 0.11077880859375
                },
                {
                    "name": "D3",
                    "midi": 50,
                    "time": 295.20355224609375,
                    "velocity": 0.9763779527559056,
                    "duration": 0.11077880859375
                },
                {
                    "name": "G4",
                    "midi": 67,
                    "time": 295.32440185546875,
                    "velocity": 0.9448818897637795,
                    "duration": 0.11077880859375
                },
                {
                    "name": "B4",
                    "midi": 71,
                    "time": 295.32440185546875,
                    "velocity": 1,
                    "duration": 0.11077880859375
                },
                {
                    "name": "G2",
                    "midi": 43,
                    "time": 295.32440185546875,
                    "velocity": 1,
                    "duration": 0.11077880859375
                },
                {
                    "name": "D5",
                    "midi": 74,
                    "time": 295.44525146484375,
                    "velocity": 0.9763779527559056,
                    "duration": 0.102081298828125
                },
                {
                    "name": "D3",
                    "midi": 50,
                    "time": 295.44525146484375,
                    "velocity": 0.9763779527559056,
                    "duration": 0.102081298828125
                },
                {
                    "name": "F#4",
                    "midi": 66,
                    "time": 295.5574035644531,
                    "velocity": 0.9133858267716536,
                    "duration": 0.102996826171875
                },
                {
                    "name": "A4",
                    "midi": 69,
                    "time": 295.5574035644531,
                    "velocity": 1,
                    "duration": 0.102996826171875
                },
                {
                    "name": "D2",
                    "midi": 38,
                    "time": 295.5574035644531,
                    "velocity": 0.9606299212598425,
                    "duration": 0.211944580078125
                },
                {
                    "name": "D5",
                    "midi": 74,
                    "time": 295.6700134277344,
                    "velocity": 0.9763779527559056,
                    "duration": 0.108489990234375
                },
                {
                    "name": "E4",
                    "midi": 64,
                    "time": 295.7881164550781,
                    "velocity": 0.9291338582677166,
                    "duration": 0.1080322265625
                },
                {
                    "name": "G4",
                    "midi": 67,
                    "time": 295.7881164550781,
                    "velocity": 1,
                    "duration": 0.1080322265625
                },
                {
                    "name": "A2",
                    "midi": 45,
                    "time": 295.7881164550781,
                    "velocity": 0.984251968503937,
                    "duration": 0.21148681640625
                },
                {
                    "name": "D5",
                    "midi": 74,
                    "time": 295.90576171875,
                    "velocity": 0.9763779527559056,
                    "duration": 0.102996826171875
                },
                {
                    "name": "E4",
                    "midi": 64,
                    "time": 296.01837158203125,
                    "velocity": 0.9133858267716536,
                    "duration": 0.102996826171875
                },
                {
                    "name": "G4",
                    "midi": 67,
                    "time": 296.01837158203125,
                    "velocity": 1,
                    "duration": 0.102996826171875
                },
                {
                    "name": "A1",
                    "midi": 33,
                    "time": 296.01837158203125,
                    "velocity": 0.937007874015748,
                    "duration": 0.212860107421875
                },
                {
                    "name": "C#5",
                    "midi": 73,
                    "time": 296.1309814453125,
                    "velocity": 0.9763779527559056,
                    "duration": 0.109405517578125
                },
                {
                    "name": "D4",
                    "midi": 62,
                    "time": 296.2522888183594,
                    "velocity": 0.9606299212598425,
                    "duration": 0.937042236328125
                },
                {
                    "name": "F#4",
                    "midi": 66,
                    "time": 296.2522888183594,
                    "velocity": 0.9606299212598425,
                    "duration": 0.9466552734375
                },
                {
                    "name": "A4",
                    "midi": 69,
                    "time": 296.2522888183594,
                    "velocity": 0.9606299212598425,
                    "duration": 0.9466552734375
                },
                {
                    "name": "D5",
                    "midi": 74,
                    "time": 296.2522888183594,
                    "velocity": 1,
                    "duration": 0.9466552734375
                },
                {
                    "name": "D3",
                    "midi": 50,
                    "time": 296.2522888183594,
                    "velocity": 1,
                    "duration": 0.12725830078125
                },
                {
                    "name": "D2",
                    "midi": 38,
                    "time": 296.3896179199219,
                    "velocity": 0.9606299212598425,
                    "duration": 0.10345458984375
                },
                {
                    "name": "F#2",
                    "midi": 42,
                    "time": 296.5031433105469,
                    "velocity": 0.968503937007874,
                    "duration": 0.102996826171875
                },
                {
                    "name": "A2",
                    "midi": 45,
                    "time": 296.6162109375,
                    "velocity": 0.9763779527559056,
                    "duration": 0.10894775390625
                },
                {
                    "name": "D3",
                    "midi": 50,
                    "time": 296.7352294921875,
                    "velocity": 0.9921259842519685,
                    "duration": 0.108489990234375
                },
                {
                    "name": "F#3",
                    "midi": 54,
                    "time": 296.8537902832031,
                    "velocity": 0.9763779527559056,
                    "duration": 0.102081298828125
                },
                {
                    "name": "A3",
                    "midi": 57,
                    "time": 296.9659423828125,
                    "velocity": 0.9763779527559056,
                    "duration": 0.102996826171875
                },
                {
                    "name": "D4",
                    "midi": 62,
                    "time": 297.07855224609375,
                    "velocity": 0.9763779527559056,
                    "duration": 0.120391845703125
                },
                {
                    "name": "D5",
                    "midi": 74,
                    "time": 297.19940185546875,
                    "velocity": 1,
                    "duration": 0.11077880859375
                },
                {
                    "name": "F#2",
                    "midi": 42,
                    "time": 297.19940185546875,
                    "velocity": 0.9921259842519685,
                    "duration": 0.693511962890625
                },
                {
                    "name": "F#5",
                    "midi": 78,
                    "time": 297.32025146484375,
                    "velocity": 0.9763779527559056,
                    "duration": 0.102081298828125
                },
                {
                    "name": "A4",
                    "midi": 69,
                    "time": 297.4324035644531,
                    "velocity": 0.9763779527559056,
                    "duration": 0.102996826171875
                },
                {
                    "name": "D5",
                    "midi": 74,
                    "time": 297.5450134277344,
                    "velocity": 0.9763779527559056,
                    "duration": 0.108489990234375
                },
                {
                    "name": "F#4",
                    "midi": 66,
                    "time": 297.6631164550781,
                    "velocity": 0.9921259842519685,
                    "duration": 0.1080322265625
                },
                {
                    "name": "A4",
                    "midi": 69,
                    "time": 297.78076171875,
                    "velocity": 0.9763779527559056,
                    "duration": 0.102996826171875
                },
                {
                    "name": "D4",
                    "midi": 62,
                    "time": 297.89337158203125,
                    "velocity": 0.9763779527559056,
                    "duration": 0.102996826171875
                },
                {
                    "name": "D3",
                    "midi": 50,
                    "time": 297.89337158203125,
                    "velocity": 0.9763779527559056,
                    "duration": 0.212860107421875
                },
                {
                    "name": "A4",
                    "midi": 69,
                    "time": 298.0059814453125,
                    "velocity": 0.9763779527559056,
                    "duration": 0.109405517578125
                },
                {
                    "name": "G4",
                    "midi": 67,
                    "time": 298.1272888183594,
                    "velocity": 0.9606299212598425,
                    "duration": 0.12725830078125
                },
                {
                    "name": "B4",
                    "midi": 71,
                    "time": 298.1272888183594,
                    "velocity": 1,
                    "duration": 0.12725830078125
                },
                {
                    "name": "G2",
                    "midi": 43,
                    "time": 298.1272888183594,
                    "velocity": 1,
                    "duration": 0.12725830078125
                },
                {
                    "name": "D5",
                    "midi": 74,
                    "time": 298.2646179199219,
                    "velocity": 0.9763779527559056,
                    "duration": 0.10345458984375
                },
                {
                    "name": "D3",
                    "midi": 50,
                    "time": 298.2646179199219,
                    "velocity": 0.9763779527559056,
                    "duration": 0.10345458984375
                },
                {
                    "name": "F#4",
                    "midi": 66,
                    "time": 298.3781433105469,
                    "velocity": 0.9133858267716536,
                    "duration": 0.102996826171875
                },
                {
                    "name": "A4",
                    "midi": 69,
                    "time": 298.3781433105469,
                    "velocity": 1,
                    "duration": 0.102996826171875
                },
                {
                    "name": "D2",
                    "midi": 38,
                    "time": 298.3781433105469,
                    "velocity": 0.9606299212598425,
                    "duration": 0.102996826171875
                },
                {
                    "name": "D5",
                    "midi": 74,
                    "time": 298.4912109375,
                    "velocity": 0.9763779527559056,
                    "duration": 0.10894775390625
                },
                {
                    "name": "D3",
                    "midi": 50,
                    "time": 298.4912109375,
                    "velocity": 0.9763779527559056,
                    "duration": 0.10894775390625
                },
                {
                    "name": "G4",
                    "midi": 67,
                    "time": 298.6102294921875,
                    "velocity": 0.9291338582677166,
                    "duration": 0.108489990234375
                },
                {
                    "name": "B4",
                    "midi": 71,
                    "time": 298.6102294921875,
                    "velocity": 1,
                    "duration": 0.108489990234375
                },
                {
                    "name": "G2",
                    "midi": 43,
                    "time": 298.6102294921875,
                    "velocity": 0.984251968503937,
                    "duration": 0.108489990234375
                },
                {
                    "name": "D5",
                    "midi": 74,
                    "time": 298.7287902832031,
                    "velocity": 0.9763779527559056,
                    "duration": 0.102081298828125
                },
                {
                    "name": "D3",
                    "midi": 50,
                    "time": 298.7287902832031,
                    "velocity": 0.9763779527559056,
                    "duration": 0.102081298828125
                },
                {
                    "name": "F#4",
                    "midi": 66,
                    "time": 298.8409423828125,
                    "velocity": 0.9133858267716536,
                    "duration": 0.102996826171875
                },
                {
                    "name": "A4",
                    "midi": 69,
                    "time": 298.8409423828125,
                    "velocity": 1,
                    "duration": 0.102996826171875
                },
                {
                    "name": "D2",
                    "midi": 38,
                    "time": 298.8409423828125,
                    "velocity": 0.9606299212598425,
                    "duration": 0.102996826171875
                },
                {
                    "name": "D5",
                    "midi": 74,
                    "time": 298.95355224609375,
                    "velocity": 0.9763779527559056,
                    "duration": 0.11077880859375
                },
                {
                    "name": "D3",
                    "midi": 50,
                    "time": 298.95355224609375,
                    "velocity": 0.9763779527559056,
                    "duration": 0.11077880859375
                },
                {
                    "name": "G4",
                    "midi": 67,
                    "time": 299.07440185546875,
                    "velocity": 0.9448818897637795,
                    "duration": 0.11077880859375
                },
                {
                    "name": "B4",
                    "midi": 71,
                    "time": 299.07440185546875,
                    "velocity": 1,
                    "duration": 0.11077880859375
                },
                {
                    "name": "G2",
                    "midi": 43,
                    "time": 299.07440185546875,
                    "velocity": 1,
                    "duration": 0.11077880859375
                },
                {
                    "name": "D5",
                    "midi": 74,
                    "time": 299.19525146484375,
                    "velocity": 0.9763779527559056,
                    "duration": 0.102081298828125
                },
                {
                    "name": "D3",
                    "midi": 50,
                    "time": 299.19525146484375,
                    "velocity": 0.9763779527559056,
                    "duration": 0.102081298828125
                },
                {
                    "name": "F#4",
                    "midi": 66,
                    "time": 299.3074035644531,
                    "velocity": 0.9133858267716536,
                    "duration": 0.102996826171875
                },
                {
                    "name": "A4",
                    "midi": 69,
                    "time": 299.3074035644531,
                    "velocity": 1,
                    "duration": 0.102996826171875
                },
                {
                    "name": "D2",
                    "midi": 38,
                    "time": 299.3074035644531,
                    "velocity": 0.9606299212598425,
                    "duration": 0.211944580078125
                },
                {
                    "name": "D5",
                    "midi": 74,
                    "time": 299.4200134277344,
                    "velocity": 0.9763779527559056,
                    "duration": 0.108489990234375
                },
                {
                    "name": "E4",
                    "midi": 64,
                    "time": 299.5381164550781,
                    "velocity": 0.9291338582677166,
                    "duration": 0.1080322265625
                },
                {
                    "name": "G4",
                    "midi": 67,
                    "time": 299.5381164550781,
                    "velocity": 1,
                    "duration": 0.1080322265625
                },
                {
                    "name": "A2",
                    "midi": 45,
                    "time": 299.5381164550781,
                    "velocity": 0.984251968503937,
                    "duration": 0.21148681640625
                },
                {
                    "name": "D5",
                    "midi": 74,
                    "time": 299.65576171875,
                    "velocity": 0.9763779527559056,
                    "duration": 0.102996826171875
                },
                {
                    "name": "E4",
                    "midi": 64,
                    "time": 299.76837158203125,
                    "velocity": 0.9133858267716536,
                    "duration": 0.102996826171875
                },
                {
                    "name": "G4",
                    "midi": 67,
                    "time": 299.76837158203125,
                    "velocity": 1,
                    "duration": 0.102996826171875
                },
                {
                    "name": "A1",
                    "midi": 33,
                    "time": 299.76837158203125,
                    "velocity": 0.937007874015748,
                    "duration": 0.212860107421875
                },
                {
                    "name": "C#5",
                    "midi": 73,
                    "time": 299.8809814453125,
                    "velocity": 0.9763779527559056,
                    "duration": 0.109405517578125
                },
                {
                    "name": "D4",
                    "midi": 62,
                    "time": 300,
                    "velocity": 0.9133858267716536,
                    "duration": 0.970001220703125
                },
                {
                    "name": "F#4",
                    "midi": 66,
                    "time": 300,
                    "velocity": 0.9133858267716536,
                    "duration": 0.970001220703125
                },
                {
                    "name": "A4",
                    "midi": 69,
                    "time": 300,
                    "velocity": 0.9133858267716536,
                    "duration": 0.970001220703125
                },
                {
                    "name": "D5",
                    "midi": 74,
                    "time": 300,
                    "velocity": 1,
                    "duration": 0.970001220703125
                },
                {
                    "name": "D2",
                    "midi": 38,
                    "time": 300,
                    "velocity": 0.8976377952755905,
                    "duration": 0.970001220703125
                },
                {
                    "name": "D3",
                    "midi": 50,
                    "time": 300,
                    "velocity": 1,
                    "duration": 0.970001220703125
                }
            ],
            "controlChanges": {
                "6": [
                    {
                        "number": 6,
                        "time": 0.0018310546875,
                        "value": 0.09448818897637795
                    },
                    {
                        "number": 6,
                        "time": 0.0018310546875,
                        "value": 0.09448818897637795
                    },
                    {
                        "number": 6,
                        "time": 15.0018310546875,
                        "value": 0.09448818897637795
                    },
                    {
                        "number": 6,
                        "time": 15.0018310546875,
                        "value": 0.09448818897637795
                    }
                ],
                "7": [
                    {
                        "number": 7,
                        "time": 0,
                        "value": 1
                    },
                    {
                        "number": 7,
                        "time": 0,
                        "value": 1
                    },
                    {
                        "number": 7,
                        "time": 15,
                        "value": 1
                    },
                    {
                        "number": 7,
                        "time": 15,
                        "value": 1
                    }
                ],
                "10": [
                    {
                        "number": 10,
                        "time": 0.000457763671875,
                        "value": 0.5039370078740157
                    },
                    {
                        "number": 10,
                        "time": 0.000457763671875,
                        "value": 0.5039370078740157
                    },
                    {
                        "number": 10,
                        "time": 15.000457763671875,
                        "value": 0.5039370078740157
                    },
                    {
                        "number": 10,
                        "time": 15.000457763671875,
                        "value": 0.5039370078740157
                    }
                ],
                "12": [
                    {
                        "number": 12,
                        "time": 0.00091552734375,
                        "value": 0.023622047244094488
                    },
                    {
                        "number": 12,
                        "time": 0.00091552734375,
                        "value": 0.023622047244094488
                    },
                    {
                        "number": 12,
                        "time": 15.00091552734375,
                        "value": 0.023622047244094488
                    },
                    {
                        "number": 12,
                        "time": 15.00091552734375,
                        "value": 0.023622047244094488
                    }
                ],
                "38": [
                    {
                        "number": 38,
                        "time": 0.002288818359375,
                        "value": 0
                    },
                    {
                        "number": 38,
                        "time": 0.002288818359375,
                        "value": 0
                    },
                    {
                        "number": 38,
                        "time": 15.002288818359375,
                        "value": 0
                    },
                    {
                        "number": 38,
                        "time": 15.002288818359375,
                        "value": 0
                    }
                ],
                "91": [
                    {
                        "number": 91,
                        "time": 0.00091552734375,
                        "value": 0.5984251968503937
                    },
                    {
                        "number": 91,
                        "time": 0.00091552734375,
                        "value": 0.5984251968503937
                    },
                    {
                        "number": 91,
                        "time": 15.00091552734375,
                        "value": 0.5984251968503937
                    },
                    {
                        "number": 91,
                        "time": 15.00091552734375,
                        "value": 0.5984251968503937
                    }
                ],
                "100": [
                    {
                        "number": 100,
                        "time": 0.001373291015625,
                        "value": 0
                    },
                    {
                        "number": 100,
                        "time": 0.001373291015625,
                        "value": 0
                    },
                    {
                        "number": 100,
                        "time": 15.001373291015625,
                        "value": 0
                    },
                    {
                        "number": 100,
                        "time": 15.001373291015625,
                        "value": 0
                    }
                ],
                "101": [
                    {
                        "number": 101,
                        "time": 0.001373291015625,
                        "value": 0
                    },
                    {
                        "number": 101,
                        "time": 0.001373291015625,
                        "value": 0
                    },
                    {
                        "number": 101,
                        "time": 15.001373291015625,
                        "value": 0
                    },
                    {
                        "number": 101,
                        "time": 15.001373291015625,
                        "value": 0
                    }
                ]
            },
            "id": 1,
            "name": "Instrument 1",
            "instrumentNumber": 6,
            "instrument": "harpsichord",
            "instrumentFamily": "piano",
            "channelNumber": 0,
            "isPercussion": false
        },
        {
            "startTime": 0,
            "duration": 0,
            "length": 0,
            "notes": [],
            "controlChanges": {},
            "id": 2
        }
    ]
}