{
    "header": {
        "PPQ": 240,
        "timeSignature": [
            4,
            4
        ],
        "bpm": 130.00013000013,
        "name": "title: Rigaudon 1 e 2"
    },
    "startTime": 0,
    "duration": 91.75375439999965,
    "tracks": [
        {
            "startTime": 0,
            "duration": 0,
            "length": 0,
            "notes": [],
            "controlChanges": {},
            "id": 0
        },
        {
            "startTime": 1.3846139999999998,
            "duration": 91.56913919999982,
            "length": 281,
            "notes": [
                {
                    "name": "D5",
                    "midi": 74,
                    "time": 1.3846139999999998,
                    "velocity": 1,
                    "duration": 0.18461519999999987
                },
                {
                    "name": "E5",
                    "midi": 76,
                    "time": 1.6153829999999996,
                    "velocity": 1,
                    "duration": 0.1846152000000001
                },
                {
                    "name": "F5",
                    "midi": 77,
                    "time": 1.8461519999999996,
                    "velocity": 1,
                    "duration": 0.1846152000000001
                },
                {
                    "name": "E5",
                    "midi": 76,
                    "time": 2.0769209999999996,
                    "velocity": 1,
                    "duration": 0.1846152000000001
                },
                {
                    "name": "D5",
                    "midi": 74,
                    "time": 2.3076899999999996,
                    "velocity": 1,
                    "duration": 0.1846152000000001
                },
                {
                    "name": "E5",
                    "midi": 76,
                    "time": 2.5384589999999996,
                    "velocity": 1,
                    "duration": 0.1846152000000001
                },
                {
                    "name": "F5",
                    "midi": 77,
                    "time": 2.7692279999999996,
                    "velocity": 1,
                    "duration": 0.1846152000000001
                },
                {
                    "name": "G5",
                    "midi": 79,
                    "time": 2.9999969999999996,
                    "velocity": 1,
                    "duration": 0.1846152000000001
                },
                {
                    "name": "A5",
                    "midi": 81,
                    "time": 3.2307659999999996,
                    "velocity": 1,
                    "duration": 0.1846152000000001
                },
                {
                    "name": "A#5",
                    "midi": 82,
                    "time": 3.4615349999999996,
                    "velocity": 1,
                    "duration": 0.1846152000000001
                },
                {
                    "name": "A5",
                    "midi": 81,
                    "time": 3.6923039999999996,
                    "velocity": 1,
                    "duration": 0.36923039999999974
                },
                {
                    "name": "D5",
                    "midi": 74,
                    "time": 4.153841999999999,
                    "velocity": 1,
                    "duration": 0.3692304000000002
                },
                {
                    "name": "D5",
                    "midi": 74,
                    "time": 4.615379999999999,
                    "velocity": 1,
                    "duration": 0.3692304000000002
                },
                {
                    "name": "D6",
                    "midi": 86,
                    "time": 5.076917999999999,
                    "velocity": 1,
                    "duration": 0.3692304000000002
                },
                {
                    "name": "C#6",
                    "midi": 85,
                    "time": 5.538455999999999,
                    "velocity": 1,
                    "duration": 0.04615379999999991
                },
                {
                    "name": "D6",
                    "midi": 86,
                    "time": 5.596148249999999,
                    "velocity": 1,
                    "duration": 0.04615379999999991
                },
                {
                    "name": "C#6",
                    "midi": 85,
                    "time": 5.6538404999999985,
                    "velocity": 1,
                    "duration": 0.27692280000000036
                },
                {
                    "name": "D6",
                    "midi": 86,
                    "time": 5.999993999999999,
                    "velocity": 1,
                    "duration": 0.3692304000000002
                },
                {
                    "name": "E6",
                    "midi": 88,
                    "time": 6.461531999999999,
                    "velocity": 1,
                    "duration": 0.3692304000000002
                },
                {
                    "name": "F6",
                    "midi": 89,
                    "time": 6.923069999999999,
                    "velocity": 1,
                    "duration": 0.3692304000000002
                },
                {
                    "name": "E6",
                    "midi": 88,
                    "time": 7.384607999999999,
                    "velocity": 1,
                    "duration": 0.18461519999999965
                },
                {
                    "name": "D6",
                    "midi": 86,
                    "time": 7.615376999999999,
                    "velocity": 1,
                    "duration": 0.18461519999999965
                },
                {
                    "name": "C#6",
                    "midi": 85,
                    "time": 7.846145999999998,
                    "velocity": 1,
                    "duration": 0.18461520000000053
                },
                {
                    "name": "B5",
                    "midi": 83,
                    "time": 8.076915,
                    "velocity": 1,
                    "duration": 0.18461519999999965
                },
                {
                    "name": "A5",
                    "midi": 81,
                    "time": 8.307684,
                    "velocity": 1,
                    "duration": 0.3692303999999993
                },
                {
                    "name": "D5",
                    "midi": 74,
                    "time": 8.769222,
                    "velocity": 1,
                    "duration": 0.18461519999999965
                },
                {
                    "name": "E5",
                    "midi": 76,
                    "time": 8.999991,
                    "velocity": 1,
                    "duration": 0.18461519999999965
                },
                {
                    "name": "F5",
                    "midi": 77,
                    "time": 9.23076,
                    "velocity": 1,
                    "duration": 0.18461519999999965
                },
                {
                    "name": "E5",
                    "midi": 76,
                    "time": 9.461529,
                    "velocity": 1,
                    "duration": 0.18461519999999965
                },
                {
                    "name": "D5",
                    "midi": 74,
                    "time": 9.692298000000001,
                    "velocity": 1,
                    "duration": 0.18461519999999965
                },
                {
                    "name": "E5",
                    "midi": 76,
                    "time": 9.923067000000001,
                    "velocity": 1,
                    "duration": 0.18461519999999965
                },
                {
                    "name": "F5",
                    "midi": 77,
                    "time": 10.153836000000002,
                    "velocity": 1,
                    "duration": 0.18461519999999965
                },
                {
                    "name": "G5",
                    "midi": 79,
                    "time": 10.384605000000002,
                    "velocity": 1,
                    "duration": 0.18461519999999965
                },
                {
                    "name": "A5",
                    "midi": 81,
                    "time": 10.615374000000003,
                    "velocity": 1,
                    "duration": 0.18461519999999965
                },
                {
                    "name": "A#5",
                    "midi": 82,
                    "time": 10.846143000000003,
                    "velocity": 1,
                    "duration": 0.18461519999999965
                },
                {
                    "name": "A5",
                    "midi": 81,
                    "time": 11.076912000000004,
                    "velocity": 1,
                    "duration": 0.3692303999999993
                },
                {
                    "name": "D5",
                    "midi": 74,
                    "time": 11.538450000000003,
                    "velocity": 1,
                    "duration": 0.3692303999999993
                },
                {
                    "name": "D5",
                    "midi": 74,
                    "time": 11.999988000000002,
                    "velocity": 1,
                    "duration": 0.3692303999999993
                },
                {
                    "name": "D6",
                    "midi": 86,
                    "time": 12.461526000000001,
                    "velocity": 1,
                    "duration": 0.3692303999999993
                },
                {
                    "name": "C#6",
                    "midi": 85,
                    "time": 12.923064,
                    "velocity": 1,
                    "duration": 0.0461538000000008
                },
                {
                    "name": "D6",
                    "midi": 86,
                    "time": 12.98075625,
                    "velocity": 1,
                    "duration": 0.0461538000000008
                },
                {
                    "name": "C#6",
                    "midi": 85,
                    "time": 13.038448500000001,
                    "velocity": 1,
                    "duration": 0.27692279999999947
                },
                {
                    "name": "D6",
                    "midi": 86,
                    "time": 13.384602000000001,
                    "velocity": 1,
                    "duration": 0.3692303999999993
                },
                {
                    "name": "E6",
                    "midi": 88,
                    "time": 13.84614,
                    "velocity": 1,
                    "duration": 0.3692303999999993
                },
                {
                    "name": "F6",
                    "midi": 89,
                    "time": 14.307678,
                    "velocity": 1,
                    "duration": 0.3692303999999993
                },
                {
                    "name": "E6",
                    "midi": 88,
                    "time": 14.769215999999998,
                    "velocity": 1,
                    "duration": 0.0461538000000008
                },
                {
                    "name": "D6",
                    "midi": 86,
                    "time": 14.826908249999999,
                    "velocity": 1,
                    "duration": 0.0461538000000008
                },
                {
                    "name": "E6",
                    "midi": 88,
                    "time": 14.8846005,
                    "velocity": 1,
                    "duration": 1.0846143000000001
                },
                {
                    "name": "E6",
                    "midi": 88,
                    "time": 16.15383,
                    "velocity": 1,
                    "duration": 0.18461519999999965
                },
                {
                    "name": "F6",
                    "midi": 89,
                    "time": 16.384598999999998,
                    "velocity": 1,
                    "duration": 0.18461519999999965
                },
                {
                    "name": "G6",
                    "midi": 91,
                    "time": 16.615367999999997,
                    "velocity": 1,
                    "duration": 0.18461519999999965
                },
                {
                    "name": "F6",
                    "midi": 89,
                    "time": 16.846136999999995,
                    "velocity": 1,
                    "duration": 0.18461519999999965
                },
                {
                    "name": "E6",
                    "midi": 88,
                    "time": 17.076905999999994,
                    "velocity": 1,
                    "duration": 0.18461519999999965
                },
                {
                    "name": "F6",
                    "midi": 89,
                    "time": 17.307674999999993,
                    "velocity": 1,
                    "duration": 0.18461519999999965
                },
                {
                    "name": "G6",
                    "midi": 91,
                    "time": 17.53844399999999,
                    "velocity": 1,
                    "duration": 0.18461519999999965
                },
                {
                    "name": "F6",
                    "midi": 89,
                    "time": 17.76921299999999,
                    "velocity": 1,
                    "duration": 0.18461519999999965
                },
                {
                    "name": "E6",
                    "midi": 88,
                    "time": 17.99998199999999,
                    "velocity": 1,
                    "duration": 0.18461519999999965
                },
                {
                    "name": "F6",
                    "midi": 89,
                    "time": 18.230750999999987,
                    "velocity": 1,
                    "duration": 0.18461519999999965
                },
                {
                    "name": "G6",
                    "midi": 91,
                    "time": 18.461519999999986,
                    "velocity": 1,
                    "duration": 1.1076912000000014
                },
                {
                    "name": "F6",
                    "midi": 89,
                    "time": 19.84613399999999,
                    "velocity": 1,
                    "duration": 0.18461519999999965
                },
                {
                    "name": "E6",
                    "midi": 88,
                    "time": 20.076902999999987,
                    "velocity": 1,
                    "duration": 0.18461519999999965
                },
                {
                    "name": "G6",
                    "midi": 91,
                    "time": 20.307671999999986,
                    "velocity": 1,
                    "duration": 0.18461519999999965
                },
                {
                    "name": "F6",
                    "midi": 89,
                    "time": 20.538440999999985,
                    "velocity": 1,
                    "duration": 0.18461519999999965
                },
                {
                    "name": "E6",
                    "midi": 88,
                    "time": 20.769209999999983,
                    "velocity": 1,
                    "duration": 0.18461519999999965
                },
                {
                    "name": "D6",
                    "midi": 86,
                    "time": 20.999978999999982,
                    "velocity": 1,
                    "duration": 0.18461519999999965
                },
                {
                    "name": "C#6",
                    "midi": 85,
                    "time": 21.23074799999998,
                    "velocity": 1,
                    "duration": 0.04615379999999902
                },
                {
                    "name": "D6",
                    "midi": 86,
                    "time": 21.28844024999998,
                    "velocity": 1,
                    "duration": 0.04615379999999902
                },
                {
                    "name": "C#6",
                    "midi": 85,
                    "time": 21.346132499999978,
                    "velocity": 1,
                    "duration": 0.27692280000000125
                },
                {
                    "name": "D6",
                    "midi": 86,
                    "time": 21.692285999999978,
                    "velocity": 1,
                    "duration": 0.3692303999999993
                },
                {
                    "name": "E6",
                    "midi": 88,
                    "time": 22.15382399999998,
                    "velocity": 1,
                    "duration": 0.18461519999999965
                },
                {
                    "name": "D6",
                    "midi": 86,
                    "time": 22.384592999999978,
                    "velocity": 1,
                    "duration": 0.18461519999999965
                },
                {
                    "name": "C#6",
                    "midi": 85,
                    "time": 22.615361999999976,
                    "velocity": 1,
                    "duration": 0.18461519999999965
                },
                {
                    "name": "B5",
                    "midi": 83,
                    "time": 22.846130999999975,
                    "velocity": 1,
                    "duration": 0.18461519999999965
                },
                {
                    "name": "A5",
                    "midi": 81,
                    "time": 23.076899999999974,
                    "velocity": 1,
                    "duration": 0.3692303999999993
                },
                {
                    "name": "G6",
                    "midi": 91,
                    "time": 23.538437999999974,
                    "velocity": 1,
                    "duration": 0.18461519999999965
                },
                {
                    "name": "A6",
                    "midi": 93,
                    "time": 23.769206999999973,
                    "velocity": 1,
                    "duration": 0.18461519999999965
                },
                {
                    "name": "A#6",
                    "midi": 94,
                    "time": 23.99997599999997,
                    "velocity": 1,
                    "duration": 0.18461519999999965
                },
                {
                    "name": "A6",
                    "midi": 93,
                    "time": 24.23074499999997,
                    "velocity": 1,
                    "duration": 0.18461519999999965
                },
                {
                    "name": "G6",
                    "midi": 91,
                    "time": 24.46151399999997,
                    "velocity": 1,
                    "duration": 0.18461519999999965
                },
                {
                    "name": "A6",
                    "midi": 93,
                    "time": 24.692282999999968,
                    "velocity": 1,
                    "duration": 0.18461519999999965
                },
                {
                    "name": "A#6",
                    "midi": 94,
                    "time": 24.923051999999966,
                    "velocity": 1,
                    "duration": 0.18461519999999965
                },
                {
                    "name": "A6",
                    "midi": 93,
                    "time": 25.153820999999965,
                    "velocity": 1,
                    "duration": 0.18461519999999965
                },
                {
                    "name": "G6",
                    "midi": 91,
                    "time": 25.384589999999964,
                    "velocity": 1,
                    "duration": 0.18461519999999965
                },
                {
                    "name": "A6",
                    "midi": 93,
                    "time": 25.615358999999962,
                    "velocity": 1,
                    "duration": 0.18461519999999965
                },
                {
                    "name": "A#6",
                    "midi": 94,
                    "time": 25.84612799999996,
                    "velocity": 1,
                    "duration": 1.1076912000000014
                },
                {
                    "name": "A6",
                    "midi": 93,
                    "time": 26.99997299999996,
                    "velocity": 1,
                    "duration": 0.18461519999999965
                },
                {
                    "name": "G6",
                    "midi": 91,
                    "time": 27.23074199999996,
                    "velocity": 1,
                    "duration": 0.18461519999999965
                },
                {
                    "name": "A#6",
                    "midi": 94,
                    "time": 27.46151099999996,
                    "velocity": 1,
                    "duration": 0.18461519999999965
                },
                {
                    "name": "A6",
                    "midi": 93,
                    "time": 27.692279999999958,
                    "velocity": 1,
                    "duration": 0.3692303999999993
                },
                {
                    "name": "G6",
                    "midi": 91,
                    "time": 28.15381799999996,
                    "velocity": 1,
                    "duration": 0.18461519999999965
                },
                {
                    "name": "F6",
                    "midi": 89,
                    "time": 28.384586999999957,
                    "velocity": 1,
                    "duration": 0.18461519999999965
                },
                {
                    "name": "G6",
                    "midi": 91,
                    "time": 28.615355999999956,
                    "velocity": 1,
                    "duration": 0.18461519999999965
                },
                {
                    "name": "F6",
                    "midi": 89,
                    "time": 28.846124999999954,
                    "velocity": 1,
                    "duration": 0.18461519999999965
                },
                {
                    "name": "E6",
                    "midi": 88,
                    "time": 29.076893999999953,
                    "velocity": 1,
                    "duration": 0.18461519999999965
                },
                {
                    "name": "F6",
                    "midi": 89,
                    "time": 29.307662999999952,
                    "velocity": 1,
                    "duration": 0.18461519999999965
                },
                {
                    "name": "D6",
                    "midi": 86,
                    "time": 29.53843199999995,
                    "velocity": 1,
                    "duration": 1.1076912000000014
                },
                {
                    "name": "A5",
                    "midi": 81,
                    "time": 32.76919799999995,
                    "velocity": 1,
                    "duration": 0.1846152000000032
                },
                {
                    "name": "G5",
                    "midi": 79,
                    "time": 32.999966999999955,
                    "velocity": 1,
                    "duration": 0.1846152000000032
                },
                {
                    "name": "F#5",
                    "midi": 78,
                    "time": 33.23073599999996,
                    "velocity": 1,
                    "duration": 0.3692303999999993
                },
                {
                    "name": "D5",
                    "midi": 74,
                    "time": 33.692273999999955,
                    "velocity": 1,
                    "duration": 0.3692303999999993
                },
                {
                    "name": "D5",
                    "midi": 74,
                    "time": 34.15381199999995,
                    "velocity": 1,
                    "duration": 0.3692303999999993
                },
                {
                    "name": "E5",
                    "midi": 76,
                    "time": 34.61534999999995,
                    "velocity": 1,
                    "duration": 0.3692303999999993
                },
                {
                    "name": "F#5",
                    "midi": 78,
                    "time": 35.07688799999995,
                    "velocity": 1,
                    "duration": 0.04615379999999902
                },
                {
                    "name": "G5",
                    "midi": 79,
                    "time": 35.13458024999995,
                    "velocity": 1,
                    "duration": 0.04615379999999902
                },
                {
                    "name": "F#5",
                    "midi": 78,
                    "time": 35.19227249999995,
                    "velocity": 1,
                    "duration": 0.27692280000000125
                },
                {
                    "name": "E5",
                    "midi": 76,
                    "time": 35.53842599999995,
                    "velocity": 1,
                    "duration": 0.1846152000000032
                },
                {
                    "name": "F#5",
                    "midi": 78,
                    "time": 35.769194999999954,
                    "velocity": 1,
                    "duration": 0.1846152000000032
                },
                {
                    "name": "D5",
                    "midi": 74,
                    "time": 35.999963999999956,
                    "velocity": 1,
                    "duration": 0.3692303999999993
                },
                {
                    "name": "A5",
                    "midi": 81,
                    "time": 36.46150199999995,
                    "velocity": 1,
                    "duration": 0.3692303999999993
                },
                {
                    "name": "B5",
                    "midi": 83,
                    "time": 36.92303999999995,
                    "velocity": 1,
                    "duration": 0.3692303999999993
                },
                {
                    "name": "A5",
                    "midi": 81,
                    "time": 37.38457799999995,
                    "velocity": 1,
                    "duration": 0.3692303999999993
                },
                {
                    "name": "G5",
                    "midi": 79,
                    "time": 37.846115999999945,
                    "velocity": 1,
                    "duration": 0.04615379999999902
                },
                {
                    "name": "A5",
                    "midi": 81,
                    "time": 37.90380824999995,
                    "velocity": 1,
                    "duration": 0.04615379999999902
                },
                {
                    "name": "G5",
                    "midi": 79,
                    "time": 37.96150049999995,
                    "velocity": 1,
                    "duration": 0.04615379999999902
                },
                {
                    "name": "G5",
                    "midi": 79,
                    "time": 38.01919274999995,
                    "velocity": 1,
                    "duration": 0.6115378499999977
                },
                {
                    "name": "F#5",
                    "midi": 78,
                    "time": 38.76919199999995,
                    "velocity": 1,
                    "duration": 0.04615379999999902
                },
                {
                    "name": "G5",
                    "midi": 79,
                    "time": 38.82688424999995,
                    "velocity": 1,
                    "duration": 0.04615379999999902
                },
                {
                    "name": "F#5",
                    "midi": 78,
                    "time": 38.88457649999995,
                    "velocity": 1,
                    "duration": 1.0846142999999984
                },
                {
                    "name": "F#5",
                    "midi": 78,
                    "time": 40.15380599999995,
                    "velocity": 1,
                    "duration": 0.1846152000000032
                },
                {
                    "name": "G5",
                    "midi": 79,
                    "time": 40.384574999999955,
                    "velocity": 1,
                    "duration": 0.1846152000000032
                },
                {
                    "name": "A5",
                    "midi": 81,
                    "time": 40.61534399999996,
                    "velocity": 1,
                    "duration": 0.3692303999999993
                },
                {
                    "name": "D5",
                    "midi": 74,
                    "time": 41.076881999999955,
                    "velocity": 1,
                    "duration": 0.3692303999999993
                },
                {
                    "name": "D5",
                    "midi": 74,
                    "time": 41.53841999999995,
                    "velocity": 1,
                    "duration": 0.3692303999999993
                },
                {
                    "name": "D6",
                    "midi": 86,
                    "time": 41.99995799999995,
                    "velocity": 1,
                    "duration": 0.3692303999999993
                },
                {
                    "name": "D6",
                    "midi": 86,
                    "time": 42.46149599999995,
                    "velocity": 1,
                    "duration": 0.3692303999999993
                },
                {
                    "name": "G5",
                    "midi": 79,
                    "time": 42.923033999999944,
                    "velocity": 1,
                    "duration": 0.3692303999999993
                },
                {
                    "name": "G5",
                    "midi": 79,
                    "time": 43.38457199999994,
                    "velocity": 1,
                    "duration": 0.3692303999999993
                },
                {
                    "name": "E6",
                    "midi": 88,
                    "time": 43.84610999999994,
                    "velocity": 1,
                    "duration": 0.3692303999999993
                },
                {
                    "name": "C#6",
                    "midi": 85,
                    "time": 44.307647999999936,
                    "velocity": 1,
                    "duration": 0.04615379999999902
                },
                {
                    "name": "D6",
                    "midi": 86,
                    "time": 44.36534024999994,
                    "velocity": 1,
                    "duration": 0.04615379999999902
                },
                {
                    "name": "C#6",
                    "midi": 85,
                    "time": 44.42303249999994,
                    "velocity": 1,
                    "duration": 0.27692280000000125
                },
                {
                    "name": "D6",
                    "midi": 86,
                    "time": 44.76918599999994,
                    "velocity": 1,
                    "duration": 0.3692303999999993
                },
                {
                    "name": "E6",
                    "midi": 88,
                    "time": 45.23072399999994,
                    "velocity": 1,
                    "duration": 0.3692303999999993
                },
                {
                    "name": "F#6",
                    "midi": 90,
                    "time": 45.692261999999936,
                    "velocity": 1,
                    "duration": 0.3692303999999993
                },
                {
                    "name": "E6",
                    "midi": 88,
                    "time": 46.15379999999993,
                    "velocity": 1,
                    "duration": 0.1846152000000032
                },
                {
                    "name": "D6",
                    "midi": 86,
                    "time": 46.384568999999935,
                    "velocity": 1,
                    "duration": 0.1846152000000032
                },
                {
                    "name": "C#6",
                    "midi": 85,
                    "time": 46.61533799999994,
                    "velocity": 1,
                    "duration": 0.1846152000000032
                },
                {
                    "name": "B5",
                    "midi": 83,
                    "time": 46.84610699999994,
                    "velocity": 1,
                    "duration": 0.1846152000000032
                },
                {
                    "name": "A5",
                    "midi": 81,
                    "time": 47.07687599999994,
                    "velocity": 1,
                    "duration": 0.3692303999999993
                },
                {
                    "name": "E6",
                    "midi": 88,
                    "time": 47.53841399999994,
                    "velocity": 1,
                    "duration": 0.1846152000000032
                },
                {
                    "name": "F#6",
                    "midi": 90,
                    "time": 47.76918299999994,
                    "velocity": 1,
                    "duration": 0.1846152000000032
                },
                {
                    "name": "G6",
                    "midi": 91,
                    "time": 47.99995199999994,
                    "velocity": 1,
                    "duration": 0.3692303999999993
                },
                {
                    "name": "B5",
                    "midi": 83,
                    "time": 48.46148999999994,
                    "velocity": 1,
                    "duration": 0.3692303999999993
                },
                {
                    "name": "B5",
                    "midi": 83,
                    "time": 48.92302799999994,
                    "velocity": 1,
                    "duration": 0.3692303999999993
                },
                {
                    "name": "C#6",
                    "midi": 85,
                    "time": 49.384565999999936,
                    "velocity": 1,
                    "duration": 0.1846152000000032
                },
                {
                    "name": "D6",
                    "midi": 86,
                    "time": 49.61533499999994,
                    "velocity": 1,
                    "duration": 0.1846152000000032
                },
                {
                    "name": "E6",
                    "midi": 88,
                    "time": 49.84610399999994,
                    "velocity": 1,
                    "duration": 0.3692303999999993
                },
                {
                    "name": "A5",
                    "midi": 81,
                    "time": 50.30764199999994,
                    "velocity": 1,
                    "duration": 0.3692303999999993
                },
                {
                    "name": "A5",
                    "midi": 81,
                    "time": 50.769179999999935,
                    "velocity": 1,
                    "duration": 0.3692303999999993
                },
                {
                    "name": "D6",
                    "midi": 86,
                    "time": 51.23071799999993,
                    "velocity": 1,
                    "duration": 0.1846152000000032
                },
                {
                    "name": "C#6",
                    "midi": 85,
                    "time": 51.461486999999934,
                    "velocity": 1,
                    "duration": 0.1846152000000032
                },
                {
                    "name": "B5",
                    "midi": 83,
                    "time": 51.69225599999994,
                    "velocity": 1,
                    "duration": 0.1846152000000032
                },
                {
                    "name": "C#6",
                    "midi": 85,
                    "time": 51.92302499999994,
                    "velocity": 1,
                    "duration": 0.1846152000000032
                },
                {
                    "name": "D6",
                    "midi": 86,
                    "time": 52.15379399999994,
                    "velocity": 1,
                    "duration": 0.1846152000000032
                },
                {
                    "name": "E6",
                    "midi": 88,
                    "time": 52.38456299999994,
                    "velocity": 1,
                    "duration": 0.1846152000000032
                },
                {
                    "name": "C#6",
                    "midi": 85,
                    "time": 52.615331999999945,
                    "velocity": 1,
                    "duration": 0.04615379999999902
                },
                {
                    "name": "D6",
                    "midi": 86,
                    "time": 52.67302424999995,
                    "velocity": 1,
                    "duration": 0.04615379999999902
                },
                {
                    "name": "C#6",
                    "midi": 85,
                    "time": 52.73071649999995,
                    "velocity": 1,
                    "duration": 0.48461489999999685
                },
                {
                    "name": "D6",
                    "midi": 86,
                    "time": 53.307638999999945,
                    "velocity": 1,
                    "duration": 0.1846152000000032
                },
                {
                    "name": "D6",
                    "midi": 86,
                    "time": 53.53840799999995,
                    "velocity": 1,
                    "duration": 1.1076911999999979
                },
                {
                    "name": "E6",
                    "midi": 88,
                    "time": 54.923021999999946,
                    "velocity": 1,
                    "duration": 0.1846152000000032
                },
                {
                    "name": "F#6",
                    "midi": 90,
                    "time": 55.15379099999995,
                    "velocity": 1,
                    "duration": 0.1846152000000032
                },
                {
                    "name": "G6",
                    "midi": 91,
                    "time": 55.38455999999995,
                    "velocity": 1,
                    "duration": 0.3692303999999993
                },
                {
                    "name": "D6",
                    "midi": 86,
                    "time": 55.84609799999995,
                    "velocity": 1,
                    "duration": 0.1846152000000032
                },
                {
                    "name": "C#6",
                    "midi": 85,
                    "time": 56.07686699999995,
                    "velocity": 1,
                    "duration": 0.1846152000000032
                },
                {
                    "name": "B5",
                    "midi": 83,
                    "time": 56.30763599999995,
                    "velocity": 1,
                    "duration": 0.3692303999999993
                },
                {
                    "name": "C#6",
                    "midi": 85,
                    "time": 56.76917399999995,
                    "velocity": 1,
                    "duration": 0.1846152000000032
                },
                {
                    "name": "D6",
                    "midi": 86,
                    "time": 56.99994299999995,
                    "velocity": 1,
                    "duration": 0.1846152000000032
                },
                {
                    "name": "E6",
                    "midi": 88,
                    "time": 57.230711999999954,
                    "velocity": 1,
                    "duration": 0.3692303999999993
                },
                {
                    "name": "C#6",
                    "midi": 85,
                    "time": 57.69224999999995,
                    "velocity": 1,
                    "duration": 0.1846152000000032
                },
                {
                    "name": "B5",
                    "midi": 83,
                    "time": 57.923018999999954,
                    "velocity": 1,
                    "duration": 0.1846152000000032
                },
                {
                    "name": "A5",
                    "midi": 81,
                    "time": 58.153787999999956,
                    "velocity": 1,
                    "duration": 0.3692303999999993
                },
                {
                    "name": "D6",
                    "midi": 86,
                    "time": 58.61532599999995,
                    "velocity": 1,
                    "duration": 0.1846152000000032
                },
                {
                    "name": "C#6",
                    "midi": 85,
                    "time": 58.846094999999956,
                    "velocity": 1,
                    "duration": 0.1846152000000032
                },
                {
                    "name": "B5",
                    "midi": 83,
                    "time": 59.07686399999996,
                    "velocity": 1,
                    "duration": 0.1846152000000032
                },
                {
                    "name": "A5",
                    "midi": 81,
                    "time": 59.30763299999996,
                    "velocity": 1,
                    "duration": 0.1846152000000032
                },
                {
                    "name": "G5",
                    "midi": 79,
                    "time": 59.53840199999996,
                    "velocity": 1,
                    "duration": 0.1846152000000032
                },
                {
                    "name": "F#5",
                    "midi": 78,
                    "time": 59.769170999999965,
                    "velocity": 1,
                    "duration": 0.1846152000000032
                },
                {
                    "name": "E5",
                    "midi": 76,
                    "time": 59.99993999999997,
                    "velocity": 1,
                    "duration": 0.04615379999999902
                },
                {
                    "name": "F#5",
                    "midi": 78,
                    "time": 60.05763224999997,
                    "velocity": 1,
                    "duration": 0.04615379999999902
                },
                {
                    "name": "E5",
                    "midi": 76,
                    "time": 60.11532449999997,
                    "velocity": 1,
                    "duration": 0.04615379999999902
                },
                {
                    "name": "E5",
                    "midi": 76,
                    "time": 60.11532449999997,
                    "velocity": 1,
                    "duration": 0.04615379999999902
                },
                {
                    "name": "E5",
                    "midi": 76,
                    "time": 60.173016749999974,
                    "velocity": 1,
                    "duration": 0.4269226500000016
                },
                {
                    "name": "D5",
                    "midi": 74,
                    "time": 60.69224699999997,
                    "velocity": 1,
                    "duration": 0.1846152000000032
                },
                {
                    "name": "D5",
                    "midi": 74,
                    "time": 60.923015999999976,
                    "velocity": 1,
                    "duration": 1.1076911999999979
                },
                {
                    "name": "D5",
                    "midi": 74,
                    "time": 62.307629999999975,
                    "velocity": 1,
                    "duration": 0.1846152000000032
                },
                {
                    "name": "E5",
                    "midi": 76,
                    "time": 62.53839899999998,
                    "velocity": 1,
                    "duration": 0.1846152000000032
                },
                {
                    "name": "F5",
                    "midi": 77,
                    "time": 62.76916799999998,
                    "velocity": 1,
                    "duration": 0.1846152000000032
                },
                {
                    "name": "E5",
                    "midi": 76,
                    "time": 62.99993699999998,
                    "velocity": 1,
                    "duration": 0.1846152000000032
                },
                {
                    "name": "D5",
                    "midi": 74,
                    "time": 63.230705999999984,
                    "velocity": 1,
                    "duration": 0.1846152000000032
                },
                {
                    "name": "E5",
                    "midi": 76,
                    "time": 63.461474999999986,
                    "velocity": 1,
                    "duration": 0.1846152000000032
                },
                {
                    "name": "F5",
                    "midi": 77,
                    "time": 63.69224399999999,
                    "velocity": 1,
                    "duration": 0.1846152000000032
                },
                {
                    "name": "G5",
                    "midi": 79,
                    "time": 63.92301299999999,
                    "velocity": 1,
                    "duration": 0.1846152000000032
                },
                {
                    "name": "A5",
                    "midi": 81,
                    "time": 64.15378199999999,
                    "velocity": 1,
                    "duration": 0.1846151999999961
                },
                {
                    "name": "A#5",
                    "midi": 82,
                    "time": 64.38455099999999,
                    "velocity": 1,
                    "duration": 0.1846151999999961
                },
                {
                    "name": "A5",
                    "midi": 81,
                    "time": 64.61531999999998,
                    "velocity": 1,
                    "duration": 0.3692304000000064
                },
                {
                    "name": "D5",
                    "midi": 74,
                    "time": 65.07685799999999,
                    "velocity": 1,
                    "duration": 0.3692304000000064
                },
                {
                    "name": "D5",
                    "midi": 74,
                    "time": 65.53839599999999,
                    "velocity": 1,
                    "duration": 0.3692304000000064
                },
                {
                    "name": "D6",
                    "midi": 86,
                    "time": 65.999934,
                    "velocity": 1,
                    "duration": 0.3692304000000064
                },
                {
                    "name": "C#6",
                    "midi": 85,
                    "time": 66.461472,
                    "velocity": 1,
                    "duration": 0.04615379999999902
                },
                {
                    "name": "D6",
                    "midi": 86,
                    "time": 66.51916425,
                    "velocity": 1,
                    "duration": 0.04615379999999902
                },
                {
                    "name": "C#6",
                    "midi": 85,
                    "time": 66.5768565,
                    "velocity": 1,
                    "duration": 0.27692279999999414
                },
                {
                    "name": "D6",
                    "midi": 86,
                    "time": 66.92301,
                    "velocity": 1,
                    "duration": 0.3692304000000064
                },
                {
                    "name": "E6",
                    "midi": 88,
                    "time": 67.38454800000001,
                    "velocity": 1,
                    "duration": 0.3692304000000064
                },
                {
                    "name": "F6",
                    "midi": 89,
                    "time": 67.84608600000001,
                    "velocity": 1,
                    "duration": 0.3692304000000064
                },
                {
                    "name": "E6",
                    "midi": 88,
                    "time": 68.30762400000002,
                    "velocity": 1,
                    "duration": 0.1846151999999961
                },
                {
                    "name": "D6",
                    "midi": 86,
                    "time": 68.53839300000001,
                    "velocity": 1,
                    "duration": 0.1846151999999961
                },
                {
                    "name": "C#6",
                    "midi": 85,
                    "time": 68.76916200000001,
                    "velocity": 1,
                    "duration": 0.1846151999999961
                },
                {
                    "name": "B5",
                    "midi": 83,
                    "time": 68.999931,
                    "velocity": 1,
                    "duration": 0.1846151999999961
                },
                {
                    "name": "A5",
                    "midi": 81,
                    "time": 69.2307,
                    "velocity": 1,
                    "duration": 0.3692304000000064
                },
                {
                    "name": "D5",
                    "midi": 74,
                    "time": 69.692238,
                    "velocity": 1,
                    "duration": 0.1846151999999961
                },
                {
                    "name": "E5",
                    "midi": 76,
                    "time": 69.923007,
                    "velocity": 1,
                    "duration": 0.1846151999999961
                },
                {
                    "name": "F5",
                    "midi": 77,
                    "time": 70.153776,
                    "velocity": 1,
                    "duration": 0.1846151999999961
                },
                {
                    "name": "E5",
                    "midi": 76,
                    "time": 70.38454499999999,
                    "velocity": 1,
                    "duration": 0.1846151999999961
                },
                {
                    "name": "D5",
                    "midi": 74,
                    "time": 70.61531399999998,
                    "velocity": 1,
                    "duration": 0.1846151999999961
                },
                {
                    "name": "E5",
                    "midi": 76,
                    "time": 70.84608299999998,
                    "velocity": 1,
                    "duration": 0.1846151999999961
                },
                {
                    "name": "F5",
                    "midi": 77,
                    "time": 71.07685199999997,
                    "velocity": 1,
                    "duration": 0.1846151999999961
                },
                {
                    "name": "G5",
                    "midi": 79,
                    "time": 71.30762099999997,
                    "velocity": 1,
                    "duration": 0.1846151999999961
                },
                {
                    "name": "A5",
                    "midi": 81,
                    "time": 71.53838999999996,
                    "velocity": 1,
                    "duration": 0.1846151999999961
                },
                {
                    "name": "A#5",
                    "midi": 82,
                    "time": 71.76915899999996,
                    "velocity": 1,
                    "duration": 0.1846151999999961
                },
                {
                    "name": "A5",
                    "midi": 81,
                    "time": 71.99992799999995,
                    "velocity": 1,
                    "duration": 0.3692304000000064
                },
                {
                    "name": "D5",
                    "midi": 74,
                    "time": 72.46146599999996,
                    "velocity": 1,
                    "duration": 0.3692304000000064
                },
                {
                    "name": "D5",
                    "midi": 74,
                    "time": 72.92300399999996,
                    "velocity": 1,
                    "duration": 0.3692304000000064
                },
                {
                    "name": "D6",
                    "midi": 86,
                    "time": 73.38454199999997,
                    "velocity": 1,
                    "duration": 0.3692304000000064
                },
                {
                    "name": "C#6",
                    "midi": 85,
                    "time": 73.84607999999997,
                    "velocity": 1,
                    "duration": 0.04615379999999902
                },
                {
                    "name": "D6",
                    "midi": 86,
                    "time": 73.90377224999997,
                    "velocity": 1,
                    "duration": 0.04615379999999902
                },
                {
                    "name": "C#6",
                    "midi": 85,
                    "time": 73.96146449999998,
                    "velocity": 1,
                    "duration": 0.27692279999999414
                },
                {
                    "name": "D6",
                    "midi": 86,
                    "time": 74.30761799999998,
                    "velocity": 1,
                    "duration": 0.3692304000000064
                },
                {
                    "name": "E6",
                    "midi": 88,
                    "time": 74.76915599999998,
                    "velocity": 1,
                    "duration": 0.3692304000000064
                },
                {
                    "name": "F6",
                    "midi": 89,
                    "time": 75.23069399999999,
                    "velocity": 1,
                    "duration": 0.3692304000000064
                },
                {
                    "name": "E6",
                    "midi": 88,
                    "time": 75.69223199999999,
                    "velocity": 1,
                    "duration": 0.04615379999999902
                },
                {
                    "name": "D6",
                    "midi": 86,
                    "time": 75.74992424999999,
                    "velocity": 1,
                    "duration": 0.04615379999999902
                },
                {
                    "name": "E6",
                    "midi": 88,
                    "time": 75.8076165,
                    "velocity": 1,
                    "duration": 1.0846142999999984
                },
                {
                    "name": "E6",
                    "midi": 88,
                    "time": 77.07684599999999,
                    "velocity": 1,
                    "duration": 0.1846151999999961
                },
                {
                    "name": "F6",
                    "midi": 89,
                    "time": 77.30761499999998,
                    "velocity": 1,
                    "duration": 0.1846151999999961
                },
                {
                    "name": "G6",
                    "midi": 91,
                    "time": 77.53838399999998,
                    "velocity": 1,
                    "duration": 0.1846151999999961
                },
                {
                    "name": "F6",
                    "midi": 89,
                    "time": 77.76915299999997,
                    "velocity": 1,
                    "duration": 0.1846151999999961
                },
                {
                    "name": "E6",
                    "midi": 88,
                    "time": 77.99992199999997,
                    "velocity": 1,
                    "duration": 0.1846151999999961
                },
                {
                    "name": "F6",
                    "midi": 89,
                    "time": 78.23069099999996,
                    "velocity": 1,
                    "duration": 0.1846151999999961
                },
                {
                    "name": "G6",
                    "midi": 91,
                    "time": 78.46145999999996,
                    "velocity": 1,
                    "duration": 0.1846151999999961
                },
                {
                    "name": "F6",
                    "midi": 89,
                    "time": 78.69222899999995,
                    "velocity": 1,
                    "duration": 0.1846151999999961
                },
                {
                    "name": "E6",
                    "midi": 88,
                    "time": 78.92299799999995,
                    "velocity": 1,
                    "duration": 0.1846151999999961
                },
                {
                    "name": "F6",
                    "midi": 89,
                    "time": 79.15376699999995,
                    "velocity": 1,
                    "duration": 0.1846151999999961
                },
                {
                    "name": "G6",
                    "midi": 91,
                    "time": 79.38453599999994,
                    "velocity": 1,
                    "duration": 1.107691200000005
                },
                {
                    "name": "F6",
                    "midi": 89,
                    "time": 80.76914999999994,
                    "velocity": 1,
                    "duration": 0.1846151999999961
                },
                {
                    "name": "E6",
                    "midi": 88,
                    "time": 80.99991899999993,
                    "velocity": 1,
                    "duration": 0.1846151999999961
                },
                {
                    "name": "G6",
                    "midi": 91,
                    "time": 81.23068799999993,
                    "velocity": 1,
                    "duration": 0.1846151999999961
                },
                {
                    "name": "F6",
                    "midi": 89,
                    "time": 81.46145699999992,
                    "velocity": 1,
                    "duration": 0.1846151999999961
                },
                {
                    "name": "E6",
                    "midi": 88,
                    "time": 81.69222599999992,
                    "velocity": 1,
                    "duration": 0.1846151999999961
                },
                {
                    "name": "D6",
                    "midi": 86,
                    "time": 81.92299499999991,
                    "velocity": 1,
                    "duration": 0.1846151999999961
                },
                {
                    "name": "C#6",
                    "midi": 85,
                    "time": 82.15376399999991,
                    "velocity": 1,
                    "duration": 0.04615379999999902
                },
                {
                    "name": "D6",
                    "midi": 86,
                    "time": 82.21145624999991,
                    "velocity": 1,
                    "duration": 0.04615379999999902
                },
                {
                    "name": "C#6",
                    "midi": 85,
                    "time": 82.26914849999991,
                    "velocity": 1,
                    "duration": 0.27692279999999414
                },
                {
                    "name": "D6",
                    "midi": 86,
                    "time": 82.61530199999991,
                    "velocity": 1,
                    "duration": 0.3692304000000064
                },
                {
                    "name": "E6",
                    "midi": 88,
                    "time": 83.07683999999992,
                    "velocity": 1,
                    "duration": 0.1846151999999961
                },
                {
                    "name": "D6",
                    "midi": 86,
                    "time": 83.30760899999991,
                    "velocity": 1,
                    "duration": 0.1846151999999961
                },
                {
                    "name": "C#6",
                    "midi": 85,
                    "time": 83.53837799999991,
                    "velocity": 1,
                    "duration": 0.1846151999999961
                },
                {
                    "name": "B5",
                    "midi": 83,
                    "time": 83.7691469999999,
                    "velocity": 1,
                    "duration": 0.1846151999999961
                },
                {
                    "name": "A5",
                    "midi": 81,
                    "time": 83.9999159999999,
                    "velocity": 1,
                    "duration": 0.3692304000000064
                },
                {
                    "name": "G6",
                    "midi": 91,
                    "time": 84.4614539999999,
                    "velocity": 1,
                    "duration": 0.1846151999999961
                },
                {
                    "name": "A6",
                    "midi": 93,
                    "time": 84.6922229999999,
                    "velocity": 1,
                    "duration": 0.1846151999999961
                },
                {
                    "name": "A#6",
                    "midi": 94,
                    "time": 84.9229919999999,
                    "velocity": 1,
                    "duration": 0.1846151999999961
                },
                {
                    "name": "A6",
                    "midi": 93,
                    "time": 85.15376099999989,
                    "velocity": 1,
                    "duration": 0.1846151999999961
                },
                {
                    "name": "G6",
                    "midi": 91,
                    "time": 85.38452999999988,
                    "velocity": 1,
                    "duration": 0.1846151999999961
                },
                {
                    "name": "A6",
                    "midi": 93,
                    "time": 85.61529899999988,
                    "velocity": 1,
                    "duration": 0.1846151999999961
                },
                {
                    "name": "A#6",
                    "midi": 94,
                    "time": 85.84606799999987,
                    "velocity": 1,
                    "duration": 0.1846151999999961
                },
                {
                    "name": "A6",
                    "midi": 93,
                    "time": 86.07683699999987,
                    "velocity": 1,
                    "duration": 0.1846151999999961
                },
                {
                    "name": "G6",
                    "midi": 91,
                    "time": 86.30760599999986,
                    "velocity": 1,
                    "duration": 0.1846151999999961
                },
                {
                    "name": "A6",
                    "midi": 93,
                    "time": 86.53837499999986,
                    "velocity": 1,
                    "duration": 0.1846151999999961
                },
                {
                    "name": "A#6",
                    "midi": 94,
                    "time": 86.76914399999986,
                    "velocity": 1,
                    "duration": 1.107691200000005
                },
                {
                    "name": "A6",
                    "midi": 93,
                    "time": 87.92298899999986,
                    "velocity": 1,
                    "duration": 0.1846151999999961
                },
                {
                    "name": "G6",
                    "midi": 91,
                    "time": 88.15375799999985,
                    "velocity": 1,
                    "duration": 0.1846151999999961
                },
                {
                    "name": "A#6",
                    "midi": 94,
                    "time": 88.38452699999985,
                    "velocity": 1,
                    "duration": 0.1846151999999961
                },
                {
                    "name": "A6",
                    "midi": 93,
                    "time": 88.61529599999984,
                    "velocity": 1,
                    "duration": 0.3692304000000064
                },
                {
                    "name": "G6",
                    "midi": 91,
                    "time": 89.07683399999985,
                    "velocity": 1,
                    "duration": 0.1846151999999961
                },
                {
                    "name": "F6",
                    "midi": 89,
                    "time": 89.30760299999984,
                    "velocity": 1,
                    "duration": 0.1846151999999961
                },
                {
                    "name": "G6",
                    "midi": 91,
                    "time": 89.53837199999984,
                    "velocity": 1,
                    "duration": 0.1846151999999961
                },
                {
                    "name": "F6",
                    "midi": 89,
                    "time": 89.76914099999983,
                    "velocity": 1,
                    "duration": 0.1846151999999961
                },
                {
                    "name": "E6",
                    "midi": 88,
                    "time": 89.99990999999983,
                    "velocity": 1,
                    "duration": 0.1846151999999961
                },
                {
                    "name": "F6",
                    "midi": 89,
                    "time": 90.23067899999982,
                    "velocity": 1,
                    "duration": 0.1846151999999961
                },
                {
                    "name": "D6",
                    "midi": 86,
                    "time": 90.46144799999982,
                    "velocity": 1,
                    "duration": 1.107691200000005
                }
            ],
            "controlChanges": {
                "7": [
                    {
                        "number": 7,
                        "time": 0,
                        "value": 1
                    }
                ],
                "10": [
                    {
                        "number": 10,
                        "time": 0,
                        "value": 0.2755905511811024
                    }
                ],
                "91": [
                    {
                        "number": 91,
                        "time": 0.023076899999999997,
                        "value": 0.9133858267716536
                    }
                ]
            },
            "id": 1,
            "instrumentNumber": 74,
            "instrument": "recorder",
            "instrumentFamily": "pipe",
            "channelNumber": 0,
            "isPercussion": false
        },
        {
            "startTime": 3.2307659999999996,
            "duration": 91.75375439999965,
            "length": 402,
            "notes": [
                {
                    "name": "D3",
                    "midi": 50,
                    "time": 3.2307659999999996,
                    "velocity": 1,
                    "duration": 0.1846152000000001
                },
                {
                    "name": "D4",
                    "midi": 62,
                    "time": 3.2307659999999996,
                    "velocity": 1,
                    "duration": 0.1846152000000001
                },
                {
                    "name": "E3",
                    "midi": 52,
                    "time": 3.4615349999999996,
                    "velocity": 1,
                    "duration": 0.1846152000000001
                },
                {
                    "name": "E4",
                    "midi": 64,
                    "time": 3.4615349999999996,
                    "velocity": 1,
                    "duration": 0.1846152000000001
                },
                {
                    "name": "F3",
                    "midi": 53,
                    "time": 3.6923039999999996,
                    "velocity": 1,
                    "duration": 0.1846152000000001
                },
                {
                    "name": "F4",
                    "midi": 65,
                    "time": 3.6923039999999996,
                    "velocity": 1,
                    "duration": 0.1846152000000001
                },
                {
                    "name": "E3",
                    "midi": 52,
                    "time": 3.9230729999999996,
                    "velocity": 1,
                    "duration": 0.18461519999999965
                },
                {
                    "name": "E4",
                    "midi": 64,
                    "time": 3.9230729999999996,
                    "velocity": 1,
                    "duration": 0.18461519999999965
                },
                {
                    "name": "D3",
                    "midi": 50,
                    "time": 4.153841999999999,
                    "velocity": 1,
                    "duration": 0.18461519999999965
                },
                {
                    "name": "D4",
                    "midi": 62,
                    "time": 4.153841999999999,
                    "velocity": 1,
                    "duration": 0.18461519999999965
                },
                {
                    "name": "E4",
                    "midi": 64,
                    "time": 4.384610999999999,
                    "velocity": 1,
                    "duration": 0.18461519999999965
                },
                {
                    "name": "E3",
                    "midi": 52,
                    "time": 4.384610999999999,
                    "velocity": 1,
                    "duration": 0.18461519999999965
                },
                {
                    "name": "F3",
                    "midi": 53,
                    "time": 4.615379999999998,
                    "velocity": 1,
                    "duration": 0.18461519999999965
                },
                {
                    "name": "F4",
                    "midi": 65,
                    "time": 4.615379999999998,
                    "velocity": 1,
                    "duration": 0.18461519999999965
                },
                {
                    "name": "G4",
                    "midi": 67,
                    "time": 4.846148999999998,
                    "velocity": 1,
                    "duration": 0.18461519999999965
                },
                {
                    "name": "G3",
                    "midi": 55,
                    "time": 4.846148999999998,
                    "velocity": 1,
                    "duration": 0.18461519999999965
                },
                {
                    "name": "A3",
                    "midi": 57,
                    "time": 5.076917999999997,
                    "velocity": 1,
                    "duration": 0.18461519999999965
                },
                {
                    "name": "A4",
                    "midi": 69,
                    "time": 5.076917999999997,
                    "velocity": 1,
                    "duration": 0.18461519999999965
                },
                {
                    "name": "A#3",
                    "midi": 58,
                    "time": 5.307686999999997,
                    "velocity": 1,
                    "duration": 0.18461519999999965
                },
                {
                    "name": "A#4",
                    "midi": 70,
                    "time": 5.307686999999997,
                    "velocity": 1,
                    "duration": 0.18461519999999965
                },
                {
                    "name": "A3",
                    "midi": 57,
                    "time": 5.5384559999999965,
                    "velocity": 1,
                    "duration": 0.3692304000000002
                },
                {
                    "name": "A4",
                    "midi": 69,
                    "time": 5.5384559999999965,
                    "velocity": 1,
                    "duration": 0.7384608000000004
                },
                {
                    "name": "D3",
                    "midi": 50,
                    "time": 5.9999939999999965,
                    "velocity": 1,
                    "duration": 0.3692304000000002
                },
                {
                    "name": "G4",
                    "midi": 67,
                    "time": 6.4615319999999965,
                    "velocity": 1,
                    "duration": 0.3692304000000002
                },
                {
                    "name": "C#3",
                    "midi": 49,
                    "time": 6.4615319999999965,
                    "velocity": 1,
                    "duration": 0.3692304000000002
                },
                {
                    "name": "A4",
                    "midi": 69,
                    "time": 6.4615319999999965,
                    "velocity": 1,
                    "duration": 0.3692304000000002
                },
                {
                    "name": "F4",
                    "midi": 65,
                    "time": 6.9230699999999965,
                    "velocity": 1,
                    "duration": 0.3692304000000002
                },
                {
                    "name": "D3",
                    "midi": 50,
                    "time": 6.9230699999999965,
                    "velocity": 1,
                    "duration": 0.3692304000000002
                },
                {
                    "name": "A4",
                    "midi": 69,
                    "time": 6.9230699999999965,
                    "velocity": 1,
                    "duration": 0.3692304000000002
                },
                {
                    "name": "A3",
                    "midi": 57,
                    "time": 7.3846079999999965,
                    "velocity": 1,
                    "duration": 0.3692304000000002
                },
                {
                    "name": "A4",
                    "midi": 69,
                    "time": 7.3846079999999965,
                    "velocity": 1,
                    "duration": 1.1076911999999997
                },
                {
                    "name": "C4",
                    "midi": 60,
                    "time": 7.3846079999999965,
                    "velocity": 1,
                    "duration": 1.1076911999999997
                },
                {
                    "name": "A2",
                    "midi": 45,
                    "time": 7.8461459999999965,
                    "velocity": 1,
                    "duration": 0.3692304000000002
                },
                {
                    "name": "A2",
                    "midi": 45,
                    "time": 8.307683999999997,
                    "velocity": 1,
                    "duration": 0.3692303999999993
                },
                {
                    "name": "D3",
                    "midi": 50,
                    "time": 10.615373999999996,
                    "velocity": 1,
                    "duration": 0.18461519999999965
                },
                {
                    "name": "D4",
                    "midi": 62,
                    "time": 10.615373999999996,
                    "velocity": 1,
                    "duration": 0.18461519999999965
                },
                {
                    "name": "E3",
                    "midi": 52,
                    "time": 10.846142999999996,
                    "velocity": 1,
                    "duration": 0.18461519999999965
                },
                {
                    "name": "E4",
                    "midi": 64,
                    "time": 10.846142999999996,
                    "velocity": 1,
                    "duration": 0.18461519999999965
                },
                {
                    "name": "F3",
                    "midi": 53,
                    "time": 11.076911999999997,
                    "velocity": 1,
                    "duration": 0.18461519999999965
                },
                {
                    "name": "F4",
                    "midi": 65,
                    "time": 11.076911999999997,
                    "velocity": 1,
                    "duration": 0.18461519999999965
                },
                {
                    "name": "E3",
                    "midi": 52,
                    "time": 11.307680999999997,
                    "velocity": 1,
                    "duration": 0.18461519999999965
                },
                {
                    "name": "E4",
                    "midi": 64,
                    "time": 11.307680999999997,
                    "velocity": 1,
                    "duration": 0.18461519999999965
                },
                {
                    "name": "D3",
                    "midi": 50,
                    "time": 11.538449999999997,
                    "velocity": 1,
                    "duration": 0.18461519999999965
                },
                {
                    "name": "D4",
                    "midi": 62,
                    "time": 11.538449999999997,
                    "velocity": 1,
                    "duration": 0.18461519999999965
                },
                {
                    "name": "E4",
                    "midi": 64,
                    "time": 11.769218999999998,
                    "velocity": 1,
                    "duration": 0.18461519999999965
                },
                {
                    "name": "E3",
                    "midi": 52,
                    "time": 11.769218999999998,
                    "velocity": 1,
                    "duration": 0.18461519999999965
                },
                {
                    "name": "F3",
                    "midi": 53,
                    "time": 11.999987999999998,
                    "velocity": 1,
                    "duration": 0.18461519999999965
                },
                {
                    "name": "F4",
                    "midi": 65,
                    "time": 11.999987999999998,
                    "velocity": 1,
                    "duration": 0.18461519999999965
                },
                {
                    "name": "G4",
                    "midi": 67,
                    "time": 12.230756999999999,
                    "velocity": 1,
                    "duration": 0.18461519999999965
                },
                {
                    "name": "G3",
                    "midi": 55,
                    "time": 12.230756999999999,
                    "velocity": 1,
                    "duration": 0.18461519999999965
                },
                {
                    "name": "A3",
                    "midi": 57,
                    "time": 12.461526,
                    "velocity": 1,
                    "duration": 0.18461519999999965
                },
                {
                    "name": "A4",
                    "midi": 69,
                    "time": 12.461526,
                    "velocity": 1,
                    "duration": 0.18461519999999965
                },
                {
                    "name": "A#3",
                    "midi": 58,
                    "time": 12.692295,
                    "velocity": 1,
                    "duration": 0.18461519999999965
                },
                {
                    "name": "A#4",
                    "midi": 70,
                    "time": 12.692295,
                    "velocity": 1,
                    "duration": 0.18461519999999965
                },
                {
                    "name": "A3",
                    "midi": 57,
                    "time": 12.923064,
                    "velocity": 1,
                    "duration": 0.3692303999999993
                },
                {
                    "name": "A4",
                    "midi": 69,
                    "time": 12.923064,
                    "velocity": 1,
                    "duration": 0.7384607999999986
                },
                {
                    "name": "D3",
                    "midi": 50,
                    "time": 13.384602,
                    "velocity": 1,
                    "duration": 0.3692303999999993
                },
                {
                    "name": "G4",
                    "midi": 67,
                    "time": 13.846139999999998,
                    "velocity": 1,
                    "duration": 0.3692303999999993
                },
                {
                    "name": "C#3",
                    "midi": 49,
                    "time": 13.846139999999998,
                    "velocity": 1,
                    "duration": 0.3692303999999993
                },
                {
                    "name": "A4",
                    "midi": 69,
                    "time": 13.846139999999998,
                    "velocity": 1,
                    "duration": 0.3692303999999993
                },
                {
                    "name": "F4",
                    "midi": 65,
                    "time": 14.307677999999997,
                    "velocity": 1,
                    "duration": 0.3692303999999993
                },
                {
                    "name": "D3",
                    "midi": 50,
                    "time": 14.307677999999997,
                    "velocity": 1,
                    "duration": 0.3692303999999993
                },
                {
                    "name": "A4",
                    "midi": 69,
                    "time": 14.307677999999997,
                    "velocity": 1,
                    "duration": 0.3692303999999993
                },
                {
                    "name": "A3",
                    "midi": 57,
                    "time": 14.769215999999997,
                    "velocity": 1,
                    "duration": 0.3692303999999993
                },
                {
                    "name": "A4",
                    "midi": 69,
                    "time": 14.769215999999997,
                    "velocity": 1,
                    "duration": 1.1076911999999979
                },
                {
                    "name": "C#4",
                    "midi": 61,
                    "time": 14.769215999999997,
                    "velocity": 1,
                    "duration": 1.1076911999999979
                },
                {
                    "name": "A2",
                    "midi": 45,
                    "time": 15.230753999999996,
                    "velocity": 1,
                    "duration": 0.3692303999999993
                },
                {
                    "name": "A2",
                    "midi": 45,
                    "time": 15.692291999999995,
                    "velocity": 1,
                    "duration": 0.3692303999999993
                },
                {
                    "name": "C#5",
                    "midi": 73,
                    "time": 16.153829999999996,
                    "velocity": 1,
                    "duration": 0.18461519999999965
                },
                {
                    "name": "A3",
                    "midi": 57,
                    "time": 16.153829999999996,
                    "velocity": 1,
                    "duration": 1.938459599999991
                },
                {
                    "name": "D5",
                    "midi": 74,
                    "time": 16.384598999999994,
                    "velocity": 1,
                    "duration": 0.18461519999999965
                },
                {
                    "name": "A4",
                    "midi": 69,
                    "time": 16.615367999999993,
                    "velocity": 1,
                    "duration": 3.32307359999999
                },
                {
                    "name": "E5",
                    "midi": 76,
                    "time": 16.615367999999993,
                    "velocity": 1,
                    "duration": 0.18461519999999965
                },
                {
                    "name": "D5",
                    "midi": 74,
                    "time": 16.84613699999999,
                    "velocity": 1,
                    "duration": 0.18461519999999965
                },
                {
                    "name": "C#5",
                    "midi": 73,
                    "time": 17.07690599999999,
                    "velocity": 1,
                    "duration": 0.18461519999999965
                },
                {
                    "name": "D5",
                    "midi": 74,
                    "time": 17.30767499999999,
                    "velocity": 1,
                    "duration": 0.18461519999999965
                },
                {
                    "name": "E5",
                    "midi": 76,
                    "time": 17.538443999999988,
                    "velocity": 1,
                    "duration": 0.18461519999999965
                },
                {
                    "name": "D5",
                    "midi": 74,
                    "time": 17.769212999999986,
                    "velocity": 1,
                    "duration": 0.18461519999999965
                },
                {
                    "name": "C#5",
                    "midi": 73,
                    "time": 17.999981999999985,
                    "velocity": 1,
                    "duration": 0.1846152000000032
                },
                {
                    "name": "D5",
                    "midi": 74,
                    "time": 18.230750999999987,
                    "velocity": 1,
                    "duration": 0.18461519999999965
                },
                {
                    "name": "A3",
                    "midi": 57,
                    "time": 18.461519999999986,
                    "velocity": 1,
                    "duration": 3.3230735999999936
                },
                {
                    "name": "E5",
                    "midi": 76,
                    "time": 18.461519999999986,
                    "velocity": 1,
                    "duration": 0.18461519999999965
                },
                {
                    "name": "D5",
                    "midi": 74,
                    "time": 18.692288999999985,
                    "velocity": 1,
                    "duration": 0.18461519999999965
                },
                {
                    "name": "C#5",
                    "midi": 73,
                    "time": 18.923057999999983,
                    "velocity": 1,
                    "duration": 0.18461519999999965
                },
                {
                    "name": "D5",
                    "midi": 74,
                    "time": 19.153826999999982,
                    "velocity": 1,
                    "duration": 0.18461519999999965
                },
                {
                    "name": "E5",
                    "midi": 76,
                    "time": 19.38459599999998,
                    "velocity": 1,
                    "duration": 0.3692303999999993
                },
                {
                    "name": "D5",
                    "midi": 74,
                    "time": 19.84613399999998,
                    "velocity": 1,
                    "duration": 0.1846152000000032
                },
                {
                    "name": "C#5",
                    "midi": 73,
                    "time": 20.076902999999984,
                    "velocity": 1,
                    "duration": 0.18461519999999965
                },
                {
                    "name": "D5",
                    "midi": 74,
                    "time": 20.307671999999982,
                    "velocity": 1,
                    "duration": 0.3692303999999993
                },
                {
                    "name": "A4",
                    "midi": 69,
                    "time": 20.307671999999982,
                    "velocity": 1,
                    "duration": 1.4769215999999972
                },
                {
                    "name": "E5",
                    "midi": 76,
                    "time": 20.769209999999983,
                    "velocity": 1,
                    "duration": 0.18461519999999965
                },
                {
                    "name": "F5",
                    "midi": 77,
                    "time": 20.999978999999982,
                    "velocity": 1,
                    "duration": 0.18461519999999965
                },
                {
                    "name": "E5",
                    "midi": 76,
                    "time": 21.23074799999998,
                    "velocity": 1,
                    "duration": 0.04615379999999902
                },
                {
                    "name": "F5",
                    "midi": 77,
                    "time": 21.28844024999998,
                    "velocity": 1,
                    "duration": 0.04615379999999902
                },
                {
                    "name": "E5",
                    "midi": 76,
                    "time": 21.346132499999978,
                    "velocity": 1,
                    "duration": 0.27692280000000125
                },
                {
                    "name": "D5",
                    "midi": 74,
                    "time": 21.692285999999978,
                    "velocity": 1,
                    "duration": 0.36923040000000285
                },
                {
                    "name": "A3",
                    "midi": 57,
                    "time": 22.153823999999982,
                    "velocity": 1,
                    "duration": 0.3692303999999993
                },
                {
                    "name": "C#5",
                    "midi": 73,
                    "time": 22.153823999999982,
                    "velocity": 1,
                    "duration": 0.18461519999999965
                },
                {
                    "name": "B4",
                    "midi": 71,
                    "time": 22.38459299999998,
                    "velocity": 1,
                    "duration": 0.18461519999999965
                },
                {
                    "name": "E5",
                    "midi": 76,
                    "time": 22.61536199999998,
                    "velocity": 1,
                    "duration": 0.18461519999999965
                },
                {
                    "name": "A2",
                    "midi": 45,
                    "time": 22.61536199999998,
                    "velocity": 1,
                    "duration": 0.3692303999999993
                },
                {
                    "name": "D5",
                    "midi": 74,
                    "time": 22.84613099999998,
                    "velocity": 1,
                    "duration": 0.18461519999999965
                },
                {
                    "name": "A2",
                    "midi": 45,
                    "time": 23.076899999999977,
                    "velocity": 1,
                    "duration": 0.3692303999999993
                },
                {
                    "name": "C#5",
                    "midi": 73,
                    "time": 23.076899999999977,
                    "velocity": 1,
                    "duration": 0.3692303999999993
                },
                {
                    "name": "C#4",
                    "midi": 61,
                    "time": 23.538437999999978,
                    "velocity": 1,
                    "duration": 1.938459599999991
                },
                {
                    "name": "E5",
                    "midi": 76,
                    "time": 23.538437999999978,
                    "velocity": 1,
                    "duration": 0.18461519999999965
                },
                {
                    "name": "F5",
                    "midi": 77,
                    "time": 23.769206999999977,
                    "velocity": 1,
                    "duration": 0.18461519999999965
                },
                {
                    "name": "G5",
                    "midi": 79,
                    "time": 23.999975999999975,
                    "velocity": 1,
                    "duration": 0.18461519999999965
                },
                {
                    "name": "C#5",
                    "midi": 73,
                    "time": 23.999975999999975,
                    "velocity": 1,
                    "duration": 3.3230735999999865
                },
                {
                    "name": "F5",
                    "midi": 77,
                    "time": 24.230744999999974,
                    "velocity": 1,
                    "duration": 0.18461519999999965
                },
                {
                    "name": "E5",
                    "midi": 76,
                    "time": 24.461513999999973,
                    "velocity": 1,
                    "duration": 0.18461519999999965
                },
                {
                    "name": "F5",
                    "midi": 77,
                    "time": 24.69228299999997,
                    "velocity": 1,
                    "duration": 0.18461519999999965
                },
                {
                    "name": "G5",
                    "midi": 79,
                    "time": 24.92305199999997,
                    "velocity": 1,
                    "duration": 0.18461519999999965
                },
                {
                    "name": "F5",
                    "midi": 77,
                    "time": 25.15382099999997,
                    "velocity": 1,
                    "duration": 0.18461519999999965
                },
                {
                    "name": "E5",
                    "midi": 76,
                    "time": 25.384589999999967,
                    "velocity": 1,
                    "duration": 0.1846152000000032
                },
                {
                    "name": "F5",
                    "midi": 77,
                    "time": 25.61535899999997,
                    "velocity": 1,
                    "duration": 0.18461519999999965
                },
                {
                    "name": "G5",
                    "midi": 79,
                    "time": 25.84612799999997,
                    "velocity": 1,
                    "duration": 0.18461519999999965
                },
                {
                    "name": "C#4",
                    "midi": 61,
                    "time": 25.84612799999997,
                    "velocity": 1,
                    "duration": 1.4769215999999936
                },
                {
                    "name": "F5",
                    "midi": 77,
                    "time": 26.076896999999967,
                    "velocity": 1,
                    "duration": 0.18461519999999965
                },
                {
                    "name": "E5",
                    "midi": 76,
                    "time": 26.307665999999966,
                    "velocity": 1,
                    "duration": 0.18461519999999965
                },
                {
                    "name": "F5",
                    "midi": 77,
                    "time": 26.538434999999964,
                    "velocity": 1,
                    "duration": 0.18461519999999965
                },
                {
                    "name": "G5",
                    "midi": 79,
                    "time": 26.769203999999963,
                    "velocity": 1,
                    "duration": 0.18461519999999965
                },
                {
                    "name": "F5",
                    "midi": 77,
                    "time": 26.99997299999996,
                    "velocity": 1,
                    "duration": 0.18461519999999965
                },
                {
                    "name": "E5",
                    "midi": 76,
                    "time": 27.23074199999996,
                    "velocity": 1,
                    "duration": 0.1846152000000032
                },
                {
                    "name": "G5",
                    "midi": 79,
                    "time": 27.461510999999962,
                    "velocity": 1,
                    "duration": 0.18461519999999965
                },
                {
                    "name": "F5",
                    "midi": 77,
                    "time": 27.69227999999996,
                    "velocity": 1,
                    "duration": 0.3692303999999993
                },
                {
                    "name": "D5",
                    "midi": 74,
                    "time": 28.153817999999962,
                    "velocity": 1,
                    "duration": 0.3692303999999993
                },
                {
                    "name": "D4",
                    "midi": 62,
                    "time": 28.153817999999962,
                    "velocity": 1,
                    "duration": 0.3692303999999993
                },
                {
                    "name": "A4",
                    "midi": 69,
                    "time": 28.615355999999963,
                    "velocity": 1,
                    "duration": 0.3692303999999993
                },
                {
                    "name": "C#5",
                    "midi": 73,
                    "time": 28.615355999999963,
                    "velocity": 1,
                    "duration": 0.18461519999999965
                },
                {
                    "name": "D5",
                    "midi": 74,
                    "time": 28.84612499999996,
                    "velocity": 1,
                    "duration": 0.18461519999999965
                },
                {
                    "name": "G4",
                    "midi": 67,
                    "time": 29.07689399999996,
                    "velocity": 1,
                    "duration": 0.18461519999999965
                },
                {
                    "name": "A3",
                    "midi": 57,
                    "time": 29.07689399999996,
                    "velocity": 1,
                    "duration": 0.3692303999999993
                },
                {
                    "name": "A4",
                    "midi": 69,
                    "time": 29.30766299999996,
                    "velocity": 1,
                    "duration": 0.18461519999999965
                },
                {
                    "name": "D4",
                    "midi": 62,
                    "time": 29.538431999999958,
                    "velocity": 1,
                    "duration": 0.3692303999999993
                },
                {
                    "name": "F4",
                    "midi": 65,
                    "time": 29.538431999999958,
                    "velocity": 1,
                    "duration": 1.1076912000000014
                },
                {
                    "name": "D3",
                    "midi": 50,
                    "time": 29.99996999999996,
                    "velocity": 1,
                    "duration": 0.3692303999999993
                },
                {
                    "name": "D2",
                    "midi": 38,
                    "time": 30.46150799999996,
                    "velocity": 1,
                    "duration": 0.3692303999999993
                },
                {
                    "name": "D4",
                    "midi": 62,
                    "time": 32.76919799999996,
                    "velocity": 1,
                    "duration": 0.3692303999999993
                },
                {
                    "name": "D3",
                    "midi": 50,
                    "time": 32.76919799999996,
                    "velocity": 1,
                    "duration": 0.3692303999999993
                },
                {
                    "name": "F#4",
                    "midi": 66,
                    "time": 32.76919799999996,
                    "velocity": 1,
                    "duration": 0.3692303999999993
                },
                {
                    "name": "A4",
                    "midi": 69,
                    "time": 32.76919799999996,
                    "velocity": 1,
                    "duration": 0.3692303999999993
                },
                {
                    "name": "F#4",
                    "midi": 66,
                    "time": 33.23073599999996,
                    "velocity": 1,
                    "duration": 1.1076911999999979
                },
                {
                    "name": "D3",
                    "midi": 50,
                    "time": 33.23073599999996,
                    "velocity": 1,
                    "duration": 1.1076911999999979
                },
                {
                    "name": "D4",
                    "midi": 62,
                    "time": 33.23073599999996,
                    "velocity": 1,
                    "duration": 1.1076911999999979
                },
                {
                    "name": "A4",
                    "midi": 69,
                    "time": 33.23073599999996,
                    "velocity": 1,
                    "duration": 1.1076911999999979
                },
                {
                    "name": "A2",
                    "midi": 45,
                    "time": 34.61534999999996,
                    "velocity": 1,
                    "duration": 0.3692303999999993
                },
                {
                    "name": "A4",
                    "midi": 69,
                    "time": 34.61534999999996,
                    "velocity": 1,
                    "duration": 0.3692303999999993
                },
                {
                    "name": "E4",
                    "midi": 64,
                    "time": 34.61534999999996,
                    "velocity": 1,
                    "duration": 0.3692303999999993
                },
                {
                    "name": "C#4",
                    "midi": 61,
                    "time": 34.61534999999996,
                    "velocity": 1,
                    "duration": 0.3692303999999993
                },
                {
                    "name": "D3",
                    "midi": 50,
                    "time": 35.076887999999954,
                    "velocity": 1,
                    "duration": 1.1076911999999979
                },
                {
                    "name": "F#4",
                    "midi": 66,
                    "time": 35.076887999999954,
                    "velocity": 1,
                    "duration": 1.1076911999999979
                },
                {
                    "name": "D4",
                    "midi": 62,
                    "time": 35.076887999999954,
                    "velocity": 1,
                    "duration": 1.1076911999999979
                },
                {
                    "name": "A4",
                    "midi": 69,
                    "time": 35.076887999999954,
                    "velocity": 1,
                    "duration": 1.1076911999999979
                },
                {
                    "name": "D4",
                    "midi": 62,
                    "time": 36.46150199999995,
                    "velocity": 1,
                    "duration": 0.3692303999999993
                },
                {
                    "name": "G4",
                    "midi": 67,
                    "time": 36.92303999999995,
                    "velocity": 1,
                    "duration": 0.3692303999999993
                },
                {
                    "name": "F#4",
                    "midi": 66,
                    "time": 37.38457799999995,
                    "velocity": 1,
                    "duration": 0.3692303999999993
                },
                {
                    "name": "E4",
                    "midi": 64,
                    "time": 37.846115999999945,
                    "velocity": 1,
                    "duration": 0.04615379999999902
                },
                {
                    "name": "F#4",
                    "midi": 66,
                    "time": 37.90380824999995,
                    "velocity": 1,
                    "duration": 0.04615379999999902
                },
                {
                    "name": "E4",
                    "midi": 64,
                    "time": 37.96150049999995,
                    "velocity": 1,
                    "duration": 0.04615379999999902
                },
                {
                    "name": "E4",
                    "midi": 64,
                    "time": 38.01919274999995,
                    "velocity": 1,
                    "duration": 0.6115378499999977
                },
                {
                    "name": "A3",
                    "midi": 57,
                    "time": 38.30765399999995,
                    "velocity": 1,
                    "duration": 0.3692303999999993
                },
                {
                    "name": "D4",
                    "midi": 62,
                    "time": 38.76919199999995,
                    "velocity": 1,
                    "duration": 0.3692303999999993
                },
                {
                    "name": "D4",
                    "midi": 62,
                    "time": 38.76919199999995,
                    "velocity": 1,
                    "duration": 1.1076911999999979
                },
                {
                    "name": "D3",
                    "midi": 50,
                    "time": 39.230729999999944,
                    "velocity": 1,
                    "duration": 0.7384607999999986
                },
                {
                    "name": "D3",
                    "midi": 50,
                    "time": 40.153805999999946,
                    "velocity": 1,
                    "duration": 0.1846152000000032
                },
                {
                    "name": "E3",
                    "midi": 52,
                    "time": 40.38457499999995,
                    "velocity": 1,
                    "duration": 0.1846152000000032
                },
                {
                    "name": "F#3",
                    "midi": 54,
                    "time": 40.61534399999995,
                    "velocity": 1,
                    "duration": 0.3692303999999993
                },
                {
                    "name": "D4",
                    "midi": 62,
                    "time": 40.61534399999995,
                    "velocity": 1,
                    "duration": 0.7384607999999986
                },
                {
                    "name": "A4",
                    "midi": 69,
                    "time": 40.61534399999995,
                    "velocity": 1,
                    "duration": 0.7384607999999986
                },
                {
                    "name": "A3",
                    "midi": 57,
                    "time": 41.07688199999995,
                    "velocity": 1,
                    "duration": 0.3692303999999993
                },
                {
                    "name": "F#4",
                    "midi": 66,
                    "time": 41.538419999999945,
                    "velocity": 1,
                    "duration": 0.7384607999999986
                },
                {
                    "name": "A4",
                    "midi": 69,
                    "time": 41.538419999999945,
                    "velocity": 1,
                    "duration": 0.7384607999999986
                },
                {
                    "name": "D3",
                    "midi": 50,
                    "time": 41.538419999999945,
                    "velocity": 1,
                    "duration": 0.3692303999999993
                },
                {
                    "name": "F#3",
                    "midi": 54,
                    "time": 41.99995799999994,
                    "velocity": 1,
                    "duration": 0.3692303999999993
                },
                {
                    "name": "G3",
                    "midi": 55,
                    "time": 42.46149599999994,
                    "velocity": 1,
                    "duration": 0.3692303999999993
                },
                {
                    "name": "D4",
                    "midi": 62,
                    "time": 42.46149599999994,
                    "velocity": 1,
                    "duration": 0.7384607999999986
                },
                {
                    "name": "B4",
                    "midi": 71,
                    "time": 42.46149599999994,
                    "velocity": 1,
                    "duration": 0.7384607999999986
                },
                {
                    "name": "B3",
                    "midi": 59,
                    "time": 42.92303399999994,
                    "velocity": 1,
                    "duration": 0.3692303999999993
                },
                {
                    "name": "G4",
                    "midi": 67,
                    "time": 43.384571999999935,
                    "velocity": 1,
                    "duration": 0.7384607999999986
                },
                {
                    "name": "B4",
                    "midi": 71,
                    "time": 43.384571999999935,
                    "velocity": 1,
                    "duration": 0.7384607999999986
                },
                {
                    "name": "E3",
                    "midi": 52,
                    "time": 43.384571999999935,
                    "velocity": 1,
                    "duration": 0.3692303999999993
                },
                {
                    "name": "G3",
                    "midi": 55,
                    "time": 43.84610999999993,
                    "velocity": 1,
                    "duration": 0.3692303999999993
                },
                {
                    "name": "A3",
                    "midi": 57,
                    "time": 44.30764799999993,
                    "velocity": 1,
                    "duration": 0.3692303999999993
                },
                {
                    "name": "A4",
                    "midi": 69,
                    "time": 44.30764799999993,
                    "velocity": 1,
                    "duration": 0.3692303999999993
                },
                {
                    "name": "G4",
                    "midi": 67,
                    "time": 44.30764799999993,
                    "velocity": 1,
                    "duration": 0.3692303999999993
                },
                {
                    "name": "D3",
                    "midi": 50,
                    "time": 44.76918599999993,
                    "velocity": 1,
                    "duration": 0.3692303999999993
                },
                {
                    "name": "A4",
                    "midi": 69,
                    "time": 44.76918599999993,
                    "velocity": 1,
                    "duration": 0.3692303999999993
                },
                {
                    "name": "F#4",
                    "midi": 66,
                    "time": 44.76918599999993,
                    "velocity": 1,
                    "duration": 0.3692303999999993
                },
                {
                    "name": "G4",
                    "midi": 67,
                    "time": 45.230723999999924,
                    "velocity": 1,
                    "duration": 0.3692303999999993
                },
                {
                    "name": "C#3",
                    "midi": 49,
                    "time": 45.230723999999924,
                    "velocity": 1,
                    "duration": 0.3692303999999993
                },
                {
                    "name": "A4",
                    "midi": 69,
                    "time": 45.230723999999924,
                    "velocity": 1,
                    "duration": 0.3692303999999993
                },
                {
                    "name": "F#4",
                    "midi": 66,
                    "time": 45.69226199999992,
                    "velocity": 1,
                    "duration": 0.3692303999999993
                },
                {
                    "name": "A4",
                    "midi": 69,
                    "time": 45.69226199999992,
                    "velocity": 1,
                    "duration": 0.3692303999999993
                },
                {
                    "name": "D3",
                    "midi": 50,
                    "time": 45.69226199999992,
                    "velocity": 1,
                    "duration": 0.3692303999999993
                },
                {
                    "name": "A3",
                    "midi": 57,
                    "time": 46.15379999999992,
                    "velocity": 1,
                    "duration": 0.3692303999999993
                },
                {
                    "name": "A4",
                    "midi": 69,
                    "time": 46.15379999999992,
                    "velocity": 1,
                    "duration": 1.1076911999999979
                },
                {
                    "name": "C#4",
                    "midi": 61,
                    "time": 46.15379999999992,
                    "velocity": 1,
                    "duration": 1.1076911999999979
                },
                {
                    "name": "A2",
                    "midi": 45,
                    "time": 46.615337999999916,
                    "velocity": 1,
                    "duration": 0.3692303999999993
                },
                {
                    "name": "A2",
                    "midi": 45,
                    "time": 47.07687599999991,
                    "velocity": 1,
                    "duration": 0.3692304000000064
                },
                {
                    "name": "B3",
                    "midi": 59,
                    "time": 47.99995199999992,
                    "velocity": 1,
                    "duration": 1.6615368000000004
                },
                {
                    "name": "G4",
                    "midi": 67,
                    "time": 47.99995199999992,
                    "velocity": 1,
                    "duration": 0.7384607999999986
                },
                {
                    "name": "D4",
                    "midi": 62,
                    "time": 47.99995199999992,
                    "velocity": 1,
                    "duration": 0.7384607999999986
                },
                {
                    "name": "G3",
                    "midi": 55,
                    "time": 47.99995199999992,
                    "velocity": 1,
                    "duration": 2.584612800000002
                },
                {
                    "name": "E4",
                    "midi": 64,
                    "time": 48.923027999999924,
                    "velocity": 1,
                    "duration": 1.6615368000000004
                },
                {
                    "name": "A3",
                    "midi": 57,
                    "time": 49.846103999999926,
                    "velocity": 1,
                    "duration": 0.7384607999999986
                },
                {
                    "name": "C#4",
                    "midi": 61,
                    "time": 49.846103999999926,
                    "velocity": 1,
                    "duration": 0.7384607999999986
                },
                {
                    "name": "D4",
                    "midi": 62,
                    "time": 50.76917999999993,
                    "velocity": 1,
                    "duration": 0.7384607999999986
                },
                {
                    "name": "F#3",
                    "midi": 54,
                    "time": 50.76917999999993,
                    "velocity": 1,
                    "duration": 0.3692303999999993
                },
                {
                    "name": "A3",
                    "midi": 57,
                    "time": 50.76917999999993,
                    "velocity": 1,
                    "duration": 0.7384607999999986
                },
                {
                    "name": "D3",
                    "midi": 50,
                    "time": 51.230717999999925,
                    "velocity": 1,
                    "duration": 0.3692303999999993
                },
                {
                    "name": "G3",
                    "midi": 55,
                    "time": 51.69225599999992,
                    "velocity": 1,
                    "duration": 0.3692303999999993
                },
                {
                    "name": "B3",
                    "midi": 59,
                    "time": 51.69225599999992,
                    "velocity": 1,
                    "duration": 0.7384607999999986
                },
                {
                    "name": "D4",
                    "midi": 62,
                    "time": 51.69225599999992,
                    "velocity": 1,
                    "duration": 0.7384607999999986
                },
                {
                    "name": "E3",
                    "midi": 52,
                    "time": 52.15379399999992,
                    "velocity": 1,
                    "duration": 0.3692303999999993
                },
                {
                    "name": "E4",
                    "midi": 64,
                    "time": 52.61533199999992,
                    "velocity": 1,
                    "duration": 0.7384607999999986
                },
                {
                    "name": "A4",
                    "midi": 69,
                    "time": 52.61533199999992,
                    "velocity": 1,
                    "duration": 0.7384607999999986
                },
                {
                    "name": "C#4",
                    "midi": 61,
                    "time": 52.61533199999992,
                    "velocity": 1,
                    "duration": 0.7384607999999986
                },
                {
                    "name": "A2",
                    "midi": 45,
                    "time": 53.076869999999914,
                    "velocity": 1,
                    "duration": 0.3692303999999993
                },
                {
                    "name": "F#4",
                    "midi": 66,
                    "time": 53.53840799999991,
                    "velocity": 1,
                    "duration": 1.199998799999996
                },
                {
                    "name": "A4",
                    "midi": 69,
                    "time": 53.53840799999991,
                    "velocity": 1,
                    "duration": 1.199998799999996
                },
                {
                    "name": "D3",
                    "midi": 50,
                    "time": 53.53840799999991,
                    "velocity": 1,
                    "duration": 1.1076911999999979
                },
                {
                    "name": "D4",
                    "midi": 62,
                    "time": 53.99994599999991,
                    "velocity": 1,
                    "duration": 0.7384607999999986
                },
                {
                    "name": "G3",
                    "midi": 55,
                    "time": 54.92302199999991,
                    "velocity": 1,
                    "duration": 0.1846152000000032
                },
                {
                    "name": "B4",
                    "midi": 71,
                    "time": 54.92302199999991,
                    "velocity": 1,
                    "duration": 0.1846152000000032
                },
                {
                    "name": "A3",
                    "midi": 57,
                    "time": 55.15379099999991,
                    "velocity": 1,
                    "duration": 0.1846152000000032
                },
                {
                    "name": "C#5",
                    "midi": 73,
                    "time": 55.15379099999991,
                    "velocity": 1,
                    "duration": 0.1846152000000032
                },
                {
                    "name": "B3",
                    "midi": 59,
                    "time": 55.384559999999915,
                    "velocity": 1,
                    "duration": 0.3692303999999993
                },
                {
                    "name": "D5",
                    "midi": 74,
                    "time": 55.384559999999915,
                    "velocity": 1,
                    "duration": 0.3692303999999993
                },
                {
                    "name": "B3",
                    "midi": 59,
                    "time": 55.84609799999991,
                    "velocity": 1,
                    "duration": 0.1846152000000032
                },
                {
                    "name": "D4",
                    "midi": 62,
                    "time": 55.84609799999991,
                    "velocity": 1,
                    "duration": 0.1846152000000032
                },
                {
                    "name": "C#4",
                    "midi": 61,
                    "time": 56.076866999999915,
                    "velocity": 1,
                    "duration": 0.1846152000000032
                },
                {
                    "name": "E4",
                    "midi": 64,
                    "time": 56.076866999999915,
                    "velocity": 1,
                    "duration": 0.1846152000000032
                },
                {
                    "name": "F#4",
                    "midi": 66,
                    "time": 56.30763599999992,
                    "velocity": 1,
                    "duration": 0.3692303999999993
                },
                {
                    "name": "D4",
                    "midi": 62,
                    "time": 56.30763599999992,
                    "velocity": 1,
                    "duration": 0.3692303999999993
                },
                {
                    "name": "E4",
                    "midi": 64,
                    "time": 56.769173999999914,
                    "velocity": 1,
                    "duration": 0.1846152000000032
                },
                {
                    "name": "G4",
                    "midi": 67,
                    "time": 56.769173999999914,
                    "velocity": 1,
                    "duration": 0.1846152000000032
                },
                {
                    "name": "F#4",
                    "midi": 66,
                    "time": 56.99994299999992,
                    "velocity": 1,
                    "duration": 0.1846152000000032
                },
                {
                    "name": "A4",
                    "midi": 69,
                    "time": 56.99994299999992,
                    "velocity": 1,
                    "duration": 0.1846152000000032
                },
                {
                    "name": "B4",
                    "midi": 71,
                    "time": 57.23071199999992,
                    "velocity": 1,
                    "duration": 0.3692303999999993
                },
                {
                    "name": "G4",
                    "midi": 67,
                    "time": 57.23071199999992,
                    "velocity": 1,
                    "duration": 1.107691200000005
                },
                {
                    "name": "E5",
                    "midi": 76,
                    "time": 57.692249999999916,
                    "velocity": 1,
                    "duration": 0.1846152000000032
                },
                {
                    "name": "D5",
                    "midi": 74,
                    "time": 57.92301899999992,
                    "velocity": 1,
                    "duration": 0.1846152000000032
                },
                {
                    "name": "C#5",
                    "midi": 73,
                    "time": 58.15378799999992,
                    "velocity": 1,
                    "duration": 0.3692304000000064
                },
                {
                    "name": "A4",
                    "midi": 69,
                    "time": 58.615325999999925,
                    "velocity": 1,
                    "duration": 0.1846152000000032
                },
                {
                    "name": "F#4",
                    "midi": 66,
                    "time": 58.615325999999925,
                    "velocity": 1,
                    "duration": 0.1846152000000032
                },
                {
                    "name": "G4",
                    "midi": 67,
                    "time": 58.84609499999993,
                    "velocity": 1,
                    "duration": 0.1846152000000032
                },
                {
                    "name": "E4",
                    "midi": 64,
                    "time": 58.84609499999993,
                    "velocity": 1,
                    "duration": 0.1846152000000032
                },
                {
                    "name": "D4",
                    "midi": 62,
                    "time": 59.07686399999993,
                    "velocity": 1,
                    "duration": 0.1846152000000032
                },
                {
                    "name": "F#4",
                    "midi": 66,
                    "time": 59.07686399999993,
                    "velocity": 1,
                    "duration": 0.1846152000000032
                },
                {
                    "name": "C#4",
                    "midi": 61,
                    "time": 59.30763299999993,
                    "velocity": 1,
                    "duration": 0.1846152000000032
                },
                {
                    "name": "E4",
                    "midi": 64,
                    "time": 59.30763299999993,
                    "velocity": 1,
                    "duration": 0.1846152000000032
                },
                {
                    "name": "B3",
                    "midi": 59,
                    "time": 59.538401999999934,
                    "velocity": 1,
                    "duration": 0.1846152000000032
                },
                {
                    "name": "D4",
                    "midi": 62,
                    "time": 59.538401999999934,
                    "velocity": 1,
                    "duration": 0.3692303999999993
                },
                {
                    "name": "G3",
                    "midi": 55,
                    "time": 59.769170999999936,
                    "velocity": 1,
                    "duration": 0.1846151999999961
                },
                {
                    "name": "D4",
                    "midi": 62,
                    "time": 59.99993999999993,
                    "velocity": 1,
                    "duration": 0.3692303999999993
                },
                {
                    "name": "C#4",
                    "midi": 61,
                    "time": 60.46147799999993,
                    "velocity": 1,
                    "duration": 0.3692303999999993
                },
                {
                    "name": "A2",
                    "midi": 45,
                    "time": 60.46147799999993,
                    "velocity": 1,
                    "duration": 0.3692303999999993
                },
                {
                    "name": "D3",
                    "midi": 50,
                    "time": 60.923015999999926,
                    "velocity": 1,
                    "duration": 0.4326918750000033
                },
                {
                    "name": "D4",
                    "midi": 62,
                    "time": 60.923015999999926,
                    "velocity": 1,
                    "duration": 0.4326918750000033
                },
                {
                    "name": "A2",
                    "midi": 45,
                    "time": 61.38455399999993,
                    "velocity": 1,
                    "duration": 0.7384607999999986
                },
                {
                    "name": "D2",
                    "midi": 38,
                    "time": 61.38455399999993,
                    "velocity": 1,
                    "duration": 0.7384607999999986
                },
                {
                    "name": "F#3",
                    "midi": 54,
                    "time": 61.38455399999993,
                    "velocity": 1,
                    "duration": 0.7384607999999986
                },
                {
                    "name": "A3",
                    "midi": 57,
                    "time": 61.38455399999993,
                    "velocity": 1,
                    "duration": 0.7384607999999986
                },
                {
                    "name": "D3",
                    "midi": 50,
                    "time": 64.15378199999994,
                    "velocity": 1,
                    "duration": 0.1846151999999961
                },
                {
                    "name": "D4",
                    "midi": 62,
                    "time": 64.15378199999994,
                    "velocity": 1,
                    "duration": 0.1846151999999961
                },
                {
                    "name": "E3",
                    "midi": 52,
                    "time": 64.38455099999993,
                    "velocity": 1,
                    "duration": 0.1846151999999961
                },
                {
                    "name": "E4",
                    "midi": 64,
                    "time": 64.38455099999993,
                    "velocity": 1,
                    "duration": 0.1846151999999961
                },
                {
                    "name": "F3",
                    "midi": 53,
                    "time": 64.61531999999993,
                    "velocity": 1,
                    "duration": 0.1846151999999961
                },
                {
                    "name": "F4",
                    "midi": 65,
                    "time": 64.61531999999993,
                    "velocity": 1,
                    "duration": 0.1846151999999961
                },
                {
                    "name": "E4",
                    "midi": 64,
                    "time": 64.84608899999992,
                    "velocity": 1,
                    "duration": 0.1846151999999961
                },
                {
                    "name": "E3",
                    "midi": 52,
                    "time": 64.84608899999992,
                    "velocity": 1,
                    "duration": 0.1846151999999961
                },
                {
                    "name": "D4",
                    "midi": 62,
                    "time": 65.07685799999992,
                    "velocity": 1,
                    "duration": 0.1846151999999961
                },
                {
                    "name": "D3",
                    "midi": 50,
                    "time": 65.07685799999992,
                    "velocity": 1,
                    "duration": 0.1846151999999961
                },
                {
                    "name": "E3",
                    "midi": 52,
                    "time": 65.30762699999991,
                    "velocity": 1,
                    "duration": 0.1846151999999961
                },
                {
                    "name": "E4",
                    "midi": 64,
                    "time": 65.30762699999991,
                    "velocity": 1,
                    "duration": 0.1846151999999961
                },
                {
                    "name": "F3",
                    "midi": 53,
                    "time": 65.5383959999999,
                    "velocity": 1,
                    "duration": 0.1846151999999961
                },
                {
                    "name": "F4",
                    "midi": 65,
                    "time": 65.5383959999999,
                    "velocity": 1,
                    "duration": 0.1846151999999961
                },
                {
                    "name": "G4",
                    "midi": 67,
                    "time": 65.7691649999999,
                    "velocity": 1,
                    "duration": 0.1846151999999961
                },
                {
                    "name": "G3",
                    "midi": 55,
                    "time": 65.7691649999999,
                    "velocity": 1,
                    "duration": 0.1846151999999961
                },
                {
                    "name": "A3",
                    "midi": 57,
                    "time": 65.9999339999999,
                    "velocity": 1,
                    "duration": 0.1846151999999961
                },
                {
                    "name": "A4",
                    "midi": 69,
                    "time": 65.9999339999999,
                    "velocity": 1,
                    "duration": 0.1846151999999961
                },
                {
                    "name": "A#3",
                    "midi": 58,
                    "time": 66.23070299999989,
                    "velocity": 1,
                    "duration": 0.1846151999999961
                },
                {
                    "name": "A#4",
                    "midi": 70,
                    "time": 66.23070299999989,
                    "velocity": 1,
                    "duration": 0.1846151999999961
                },
                {
                    "name": "A3",
                    "midi": 57,
                    "time": 66.46147199999989,
                    "velocity": 1,
                    "duration": 0.3692304000000064
                },
                {
                    "name": "A4",
                    "midi": 69,
                    "time": 66.46147199999989,
                    "velocity": 1,
                    "duration": 0.7384607999999986
                },
                {
                    "name": "D3",
                    "midi": 50,
                    "time": 66.92300999999989,
                    "velocity": 1,
                    "duration": 0.3692303999999922
                },
                {
                    "name": "G4",
                    "midi": 67,
                    "time": 67.38454799999988,
                    "velocity": 1,
                    "duration": 0.3692304000000064
                },
                {
                    "name": "C#3",
                    "midi": 49,
                    "time": 67.38454799999988,
                    "velocity": 1,
                    "duration": 0.3692304000000064
                },
                {
                    "name": "A4",
                    "midi": 69,
                    "time": 67.38454799999988,
                    "velocity": 1,
                    "duration": 0.3692304000000064
                },
                {
                    "name": "F4",
                    "midi": 65,
                    "time": 67.84608599999989,
                    "velocity": 1,
                    "duration": 0.3692304000000064
                },
                {
                    "name": "D3",
                    "midi": 50,
                    "time": 67.84608599999989,
                    "velocity": 1,
                    "duration": 0.3692304000000064
                },
                {
                    "name": "A4",
                    "midi": 69,
                    "time": 67.84608599999989,
                    "velocity": 1,
                    "duration": 0.3692304000000064
                },
                {
                    "name": "C4",
                    "midi": 60,
                    "time": 68.30762399999989,
                    "velocity": 1,
                    "duration": 1.107691200000005
                },
                {
                    "name": "A3",
                    "midi": 57,
                    "time": 68.30762399999989,
                    "velocity": 1,
                    "duration": 0.3692304000000064
                },
                {
                    "name": "A4",
                    "midi": 69,
                    "time": 68.30762399999989,
                    "velocity": 1,
                    "duration": 1.107691200000005
                },
                {
                    "name": "A2",
                    "midi": 45,
                    "time": 68.7691619999999,
                    "velocity": 1,
                    "duration": 0.3692304000000064
                },
                {
                    "name": "A2",
                    "midi": 45,
                    "time": 69.2306999999999,
                    "velocity": 1,
                    "duration": 0.3692303999999922
                },
                {
                    "name": "D3",
                    "midi": 50,
                    "time": 71.5383899999999,
                    "velocity": 1,
                    "duration": 0.1846151999999961
                },
                {
                    "name": "D4",
                    "midi": 62,
                    "time": 71.5383899999999,
                    "velocity": 1,
                    "duration": 0.1846151999999961
                },
                {
                    "name": "E3",
                    "midi": 52,
                    "time": 71.76915899999989,
                    "velocity": 1,
                    "duration": 0.1846151999999961
                },
                {
                    "name": "E4",
                    "midi": 64,
                    "time": 71.76915899999989,
                    "velocity": 1,
                    "duration": 0.1846151999999961
                },
                {
                    "name": "F3",
                    "midi": 53,
                    "time": 71.99992799999988,
                    "velocity": 1,
                    "duration": 0.1846151999999961
                },
                {
                    "name": "F4",
                    "midi": 65,
                    "time": 71.99992799999988,
                    "velocity": 1,
                    "duration": 0.1846151999999961
                },
                {
                    "name": "E4",
                    "midi": 64,
                    "time": 72.23069699999988,
                    "velocity": 1,
                    "duration": 0.1846151999999961
                },
                {
                    "name": "E3",
                    "midi": 52,
                    "time": 72.23069699999988,
                    "velocity": 1,
                    "duration": 0.1846151999999961
                },
                {
                    "name": "D4",
                    "midi": 62,
                    "time": 72.46146599999987,
                    "velocity": 1,
                    "duration": 0.1846151999999961
                },
                {
                    "name": "D3",
                    "midi": 50,
                    "time": 72.46146599999987,
                    "velocity": 1,
                    "duration": 0.1846151999999961
                },
                {
                    "name": "E3",
                    "midi": 52,
                    "time": 72.69223499999987,
                    "velocity": 1,
                    "duration": 0.1846151999999961
                },
                {
                    "name": "E4",
                    "midi": 64,
                    "time": 72.69223499999987,
                    "velocity": 1,
                    "duration": 0.1846151999999961
                },
                {
                    "name": "F3",
                    "midi": 53,
                    "time": 72.92300399999986,
                    "velocity": 1,
                    "duration": 0.1846151999999961
                },
                {
                    "name": "F4",
                    "midi": 65,
                    "time": 72.92300399999986,
                    "velocity": 1,
                    "duration": 0.1846151999999961
                },
                {
                    "name": "G4",
                    "midi": 67,
                    "time": 73.15377299999986,
                    "velocity": 1,
                    "duration": 0.1846151999999961
                },
                {
                    "name": "G3",
                    "midi": 55,
                    "time": 73.15377299999986,
                    "velocity": 1,
                    "duration": 0.1846151999999961
                },
                {
                    "name": "A3",
                    "midi": 57,
                    "time": 73.38454199999985,
                    "velocity": 1,
                    "duration": 0.1846151999999961
                },
                {
                    "name": "A4",
                    "midi": 69,
                    "time": 73.38454199999985,
                    "velocity": 1,
                    "duration": 0.1846151999999961
                },
                {
                    "name": "A#3",
                    "midi": 58,
                    "time": 73.61531099999985,
                    "velocity": 1,
                    "duration": 0.1846151999999961
                },
                {
                    "name": "A#4",
                    "midi": 70,
                    "time": 73.61531099999985,
                    "velocity": 1,
                    "duration": 0.1846151999999961
                },
                {
                    "name": "A3",
                    "midi": 57,
                    "time": 73.84607999999984,
                    "velocity": 1,
                    "duration": 0.3692304000000064
                },
                {
                    "name": "A4",
                    "midi": 69,
                    "time": 73.84607999999984,
                    "velocity": 1,
                    "duration": 0.7384607999999986
                },
                {
                    "name": "D3",
                    "midi": 50,
                    "time": 74.30761799999985,
                    "velocity": 1,
                    "duration": 0.3692303999999922
                },
                {
                    "name": "G4",
                    "midi": 67,
                    "time": 74.76915599999984,
                    "velocity": 1,
                    "duration": 0.3692304000000064
                },
                {
                    "name": "C#3",
                    "midi": 49,
                    "time": 74.76915599999984,
                    "velocity": 1,
                    "duration": 0.3692304000000064
                },
                {
                    "name": "A4",
                    "midi": 69,
                    "time": 74.76915599999984,
                    "velocity": 1,
                    "duration": 0.3692304000000064
                },
                {
                    "name": "F4",
                    "midi": 65,
                    "time": 75.23069399999984,
                    "velocity": 1,
                    "duration": 0.3692304000000064
                },
                {
                    "name": "D3",
                    "midi": 50,
                    "time": 75.23069399999984,
                    "velocity": 1,
                    "duration": 0.3692304000000064
                },
                {
                    "name": "A4",
                    "midi": 69,
                    "time": 75.23069399999984,
                    "velocity": 1,
                    "duration": 0.3692304000000064
                },
                {
                    "name": "A3",
                    "midi": 57,
                    "time": 75.69223199999985,
                    "velocity": 1,
                    "duration": 0.3692304000000064
                },
                {
                    "name": "C#4",
                    "midi": 61,
                    "time": 75.69223199999985,
                    "velocity": 1,
                    "duration": 1.107691200000005
                },
                {
                    "name": "A4",
                    "midi": 69,
                    "time": 75.69223199999985,
                    "velocity": 1,
                    "duration": 1.107691200000005
                },
                {
                    "name": "A2",
                    "midi": 45,
                    "time": 76.15376999999985,
                    "velocity": 1,
                    "duration": 0.3692304000000064
                },
                {
                    "name": "A2",
                    "midi": 45,
                    "time": 76.61530799999986,
                    "velocity": 1,
                    "duration": 0.3692303999999922
                },
                {
                    "name": "C#5",
                    "midi": 73,
                    "time": 77.07684599999985,
                    "velocity": 1,
                    "duration": 0.1846151999999961
                },
                {
                    "name": "A3",
                    "midi": 57,
                    "time": 77.07684599999985,
                    "velocity": 1,
                    "duration": 1.938459599999959
                },
                {
                    "name": "D5",
                    "midi": 74,
                    "time": 77.30761499999984,
                    "velocity": 1,
                    "duration": 0.1846151999999961
                },
                {
                    "name": "E5",
                    "midi": 76,
                    "time": 77.53838399999984,
                    "velocity": 1,
                    "duration": 0.1846151999999961
                },
                {
                    "name": "A4",
                    "midi": 69,
                    "time": 77.53838399999984,
                    "velocity": 1,
                    "duration": 3.323073599999944
                },
                {
                    "name": "D5",
                    "midi": 74,
                    "time": 77.76915299999983,
                    "velocity": 1,
                    "duration": 0.1846151999999961
                },
                {
                    "name": "C#5",
                    "midi": 73,
                    "time": 77.99992199999983,
                    "velocity": 1,
                    "duration": 0.1846151999999961
                },
                {
                    "name": "D5",
                    "midi": 74,
                    "time": 78.23069099999982,
                    "velocity": 1,
                    "duration": 0.1846151999999961
                },
                {
                    "name": "E5",
                    "midi": 76,
                    "time": 78.46145999999982,
                    "velocity": 1,
                    "duration": 0.1846151999999961
                },
                {
                    "name": "D5",
                    "midi": 74,
                    "time": 78.69222899999981,
                    "velocity": 1,
                    "duration": 0.1846151999999961
                },
                {
                    "name": "C#5",
                    "midi": 73,
                    "time": 78.92299799999981,
                    "velocity": 1,
                    "duration": 0.1846151999999961
                },
                {
                    "name": "D5",
                    "midi": 74,
                    "time": 79.1537669999998,
                    "velocity": 1,
                    "duration": 0.1846151999999961
                },
                {
                    "name": "E5",
                    "midi": 76,
                    "time": 79.3845359999998,
                    "velocity": 1,
                    "duration": 0.1846151999999961
                },
                {
                    "name": "A3",
                    "midi": 57,
                    "time": 79.3845359999998,
                    "velocity": 1,
                    "duration": 3.3230735999999723
                },
                {
                    "name": "D5",
                    "midi": 74,
                    "time": 79.6153049999998,
                    "velocity": 1,
                    "duration": 0.1846151999999961
                },
                {
                    "name": "C#5",
                    "midi": 73,
                    "time": 79.84607399999979,
                    "velocity": 1,
                    "duration": 0.1846151999999961
                },
                {
                    "name": "D5",
                    "midi": 74,
                    "time": 80.07684299999978,
                    "velocity": 1,
                    "duration": 0.1846151999999961
                },
                {
                    "name": "E5",
                    "midi": 76,
                    "time": 80.30761199999978,
                    "velocity": 1,
                    "duration": 0.3692304000000064
                },
                {
                    "name": "D5",
                    "midi": 74,
                    "time": 80.76914999999978,
                    "velocity": 1,
                    "duration": 0.1846151999999961
                },
                {
                    "name": "C#5",
                    "midi": 73,
                    "time": 80.99991899999978,
                    "velocity": 1,
                    "duration": 0.1846151999999961
                },
                {
                    "name": "D5",
                    "midi": 74,
                    "time": 81.23068799999977,
                    "velocity": 1,
                    "duration": 0.3692304000000064
                },
                {
                    "name": "A4",
                    "midi": 69,
                    "time": 81.23068799999977,
                    "velocity": 1,
                    "duration": 1.4769215999999972
                },
                {
                    "name": "E5",
                    "midi": 76,
                    "time": 81.69222599999978,
                    "velocity": 1,
                    "duration": 0.1846151999999961
                },
                {
                    "name": "F5",
                    "midi": 77,
                    "time": 81.92299499999977,
                    "velocity": 1,
                    "duration": 0.1846151999999961
                },
                {
                    "name": "E5",
                    "midi": 76,
                    "time": 82.15376399999977,
                    "velocity": 1,
                    "duration": 0.04615379999999902
                },
                {
                    "name": "F5",
                    "midi": 77,
                    "time": 82.21145624999977,
                    "velocity": 1,
                    "duration": 0.04615379999999902
                },
                {
                    "name": "E5",
                    "midi": 76,
                    "time": 82.26914849999977,
                    "velocity": 1,
                    "duration": 0.27692279999999414
                },
                {
                    "name": "D5",
                    "midi": 74,
                    "time": 82.61530199999977,
                    "velocity": 1,
                    "duration": 0.3692303999999922
                },
                {
                    "name": "C#5",
                    "midi": 73,
                    "time": 83.07683999999976,
                    "velocity": 1,
                    "duration": 0.1846151999999961
                },
                {
                    "name": "A3",
                    "midi": 57,
                    "time": 83.07683999999976,
                    "velocity": 1,
                    "duration": 0.3692303999999922
                },
                {
                    "name": "B4",
                    "midi": 71,
                    "time": 83.30760899999976,
                    "velocity": 1,
                    "duration": 0.1846151999999961
                },
                {
                    "name": "A2",
                    "midi": 45,
                    "time": 83.53837799999975,
                    "velocity": 1,
                    "duration": 0.3692303999999922
                },
                {
                    "name": "E5",
                    "midi": 76,
                    "time": 83.53837799999975,
                    "velocity": 1,
                    "duration": 0.1846151999999961
                },
                {
                    "name": "D5",
                    "midi": 74,
                    "time": 83.76914699999975,
                    "velocity": 1,
                    "duration": 0.1846151999999961
                },
                {
                    "name": "C#5",
                    "midi": 73,
                    "time": 83.99991599999974,
                    "velocity": 1,
                    "duration": 0.3692304000000064
                },
                {
                    "name": "A2",
                    "midi": 45,
                    "time": 83.99991599999974,
                    "velocity": 1,
                    "duration": 0.3692304000000064
                },
                {
                    "name": "C#4",
                    "midi": 61,
                    "time": 84.46145399999975,
                    "velocity": 1,
                    "duration": 1.938459599999959
                },
                {
                    "name": "E5",
                    "midi": 76,
                    "time": 84.46145399999975,
                    "velocity": 1,
                    "duration": 0.1846151999999961
                },
                {
                    "name": "F5",
                    "midi": 77,
                    "time": 84.69222299999974,
                    "velocity": 1,
                    "duration": 0.1846151999999961
                },
                {
                    "name": "C#5",
                    "midi": 73,
                    "time": 84.92299199999974,
                    "velocity": 1,
                    "duration": 3.3230735999999297
                },
                {
                    "name": "G5",
                    "midi": 79,
                    "time": 84.92299199999974,
                    "velocity": 1,
                    "duration": 0.1846151999999961
                },
                {
                    "name": "F5",
                    "midi": 77,
                    "time": 85.15376099999973,
                    "velocity": 1,
                    "duration": 0.1846151999999961
                },
                {
                    "name": "E5",
                    "midi": 76,
                    "time": 85.38452999999973,
                    "velocity": 1,
                    "duration": 0.1846151999999961
                },
                {
                    "name": "F5",
                    "midi": 77,
                    "time": 85.61529899999972,
                    "velocity": 1,
                    "duration": 0.1846151999999961
                },
                {
                    "name": "G5",
                    "midi": 79,
                    "time": 85.84606799999972,
                    "velocity": 1,
                    "duration": 0.1846151999999961
                },
                {
                    "name": "F5",
                    "midi": 77,
                    "time": 86.07683699999971,
                    "velocity": 1,
                    "duration": 0.1846151999999961
                },
                {
                    "name": "E5",
                    "midi": 76,
                    "time": 86.30760599999971,
                    "velocity": 1,
                    "duration": 0.1846151999999961
                },
                {
                    "name": "F5",
                    "midi": 77,
                    "time": 86.5383749999997,
                    "velocity": 1,
                    "duration": 0.1846151999999961
                },
                {
                    "name": "G5",
                    "midi": 79,
                    "time": 86.7691439999997,
                    "velocity": 1,
                    "duration": 0.1846151999999961
                },
                {
                    "name": "C#4",
                    "midi": 61,
                    "time": 86.7691439999997,
                    "velocity": 1,
                    "duration": 1.4769215999999687
                },
                {
                    "name": "F5",
                    "midi": 77,
                    "time": 86.9999129999997,
                    "velocity": 1,
                    "duration": 0.1846151999999961
                },
                {
                    "name": "E5",
                    "midi": 76,
                    "time": 87.23068199999969,
                    "velocity": 1,
                    "duration": 0.1846151999999961
                },
                {
                    "name": "F5",
                    "midi": 77,
                    "time": 87.46145099999968,
                    "velocity": 1,
                    "duration": 0.1846151999999961
                },
                {
                    "name": "G5",
                    "midi": 79,
                    "time": 87.69221999999968,
                    "velocity": 1,
                    "duration": 0.1846151999999961
                },
                {
                    "name": "F5",
                    "midi": 77,
                    "time": 87.92298899999967,
                    "velocity": 1,
                    "duration": 0.1846151999999961
                },
                {
                    "name": "E5",
                    "midi": 76,
                    "time": 88.15375799999967,
                    "velocity": 1,
                    "duration": 0.1846151999999961
                },
                {
                    "name": "G5",
                    "midi": 79,
                    "time": 88.38452699999966,
                    "velocity": 1,
                    "duration": 0.1846151999999961
                },
                {
                    "name": "F5",
                    "midi": 77,
                    "time": 88.61529599999966,
                    "velocity": 1,
                    "duration": 0.3692304000000064
                },
                {
                    "name": "D5",
                    "midi": 74,
                    "time": 89.07683399999966,
                    "velocity": 1,
                    "duration": 0.3692304000000064
                },
                {
                    "name": "D4",
                    "midi": 62,
                    "time": 89.07683399999966,
                    "velocity": 1,
                    "duration": 0.3692304000000064
                },
                {
                    "name": "A4",
                    "midi": 69,
                    "time": 89.53837199999967,
                    "velocity": 1,
                    "duration": 0.3692303999999922
                },
                {
                    "name": "C#5",
                    "midi": 73,
                    "time": 89.53837199999967,
                    "velocity": 1,
                    "duration": 0.1846151999999961
                },
                {
                    "name": "D5",
                    "midi": 74,
                    "time": 89.76914099999966,
                    "velocity": 1,
                    "duration": 0.1846151999999961
                },
                {
                    "name": "G4",
                    "midi": 67,
                    "time": 89.99990999999966,
                    "velocity": 1,
                    "duration": 0.1846151999999961
                },
                {
                    "name": "A3",
                    "midi": 57,
                    "time": 89.99990999999966,
                    "velocity": 1,
                    "duration": 0.3692303999999922
                },
                {
                    "name": "A4",
                    "midi": 69,
                    "time": 90.23067899999965,
                    "velocity": 1,
                    "duration": 0.1846151999999961
                },
                {
                    "name": "D4",
                    "midi": 62,
                    "time": 90.46144799999965,
                    "velocity": 1,
                    "duration": 0.3692304000000064
                },
                {
                    "name": "F4",
                    "midi": 65,
                    "time": 90.46144799999965,
                    "velocity": 1,
                    "duration": 1.107691200000005
                },
                {
                    "name": "D3",
                    "midi": 50,
                    "time": 90.92298599999965,
                    "velocity": 1,
                    "duration": 0.3692304000000064
                },
                {
                    "name": "D2",
                    "midi": 38,
                    "time": 91.38452399999966,
                    "velocity": 1,
                    "duration": 0.3692303999999922
                }
            ],
            "controlChanges": {
                "7": [
                    {
                        "number": 7,
                        "time": 0,
                        "value": 0.6456692913385826
                    }
                ],
                "10": [
                    {
                        "number": 10,
                        "time": 0,
                        "value": 0.6850393700787402
                    }
                ],
                "91": [
                    {
                        "number": 91,
                        "time": 0.030769199999999997,
                        "value": 0.7480314960629921
                    }
                ]
            },
            "id": 2,
            "instrumentNumber": 6,
            "instrument": "harpsichord",
            "instrumentFamily": "piano",
            "channelNumber": 1,
            "isPercussion": false
        },
        {
            "startTime": 0,
            "duration": 0,
            "length": 0,
            "notes": [],
            "controlChanges": {},
            "id": 3,
            "name": "title: Rigaudon 1 e 2"
        },
        {
            "startTime": 0,
            "duration": 0,
            "length": 0,
            "notes": [],
            "controlChanges": {},
            "id": 4,
            "name": "J.P.Rameau"
        },
        {
            "startTime": 0,
            "duration": 0,
            "length": 0,
            "notes": [],
            "controlChanges": {},
            "id": 5,
            "name": "By Julio Feliz"
        }
    ]
}