{
    "header": {
        "PPQ": 120,
        "timeSignature": [
            4,
            4
        ],
        "bpm": 105.99995053335641,
        "name": ""
    },
    "startTime": 0,
    "duration": 248.91049351666632,
    "tracks": [
        {
            "startTime": 0,
            "duration": 0,
            "length": 0,
            "notes": [],
            "controlChanges": {},
            "id": 0
        },
        {
            "startTime": 2.2216991500000014,
            "duration": 248.91049351666632,
            "length": 1801,
            "notes": [
                {
                    "name": "G4",
                    "midi": 67,
                    "time": 2.2216991500000014,
                    "velocity": 0.5039370078740157,
                    "duration": 1.8537744500000009
                },
                {
                    "name": "B3",
                    "midi": 59,
                    "time": 2.2500010500000016,
                    "velocity": 0.33070866141732286,
                    "duration": 0.33490581666666674
                },
                {
                    "name": "D4",
                    "midi": 62,
                    "time": 2.693397483333335,
                    "velocity": 0.3543307086614173,
                    "duration": 0.4669813500000002
                },
                {
                    "name": "B3",
                    "midi": 59,
                    "time": 3.0613221833333353,
                    "velocity": 0.33070866141732286,
                    "duration": 0.4481134166666667
                },
                {
                    "name": "G2",
                    "midi": 43,
                    "time": 3.070756150000002,
                    "velocity": 0.29133858267716534,
                    "duration": 0.11792458333333355
                },
                {
                    "name": "D4",
                    "midi": 62,
                    "time": 3.4716997333333355,
                    "velocity": 0.41732283464566927,
                    "duration": 0.6745286166666666
                },
                {
                    "name": "C2",
                    "midi": 36,
                    "time": 3.933964100000002,
                    "velocity": 0.29133858267716534,
                    "duration": 0.15094346666666647
                },
                {
                    "name": "B3",
                    "midi": 59,
                    "time": 3.9528320333333355,
                    "velocity": 0.33858267716535434,
                    "duration": 0.1745283833333331
                },
                {
                    "name": "A4",
                    "midi": 69,
                    "time": 4.358492600000002,
                    "velocity": 0.5354330708661418,
                    "duration": 0.21698123333333363
                },
                {
                    "name": "E4",
                    "midi": 64,
                    "time": 4.377360533333335,
                    "velocity": 0.4094488188976378,
                    "duration": 0.13207553333333344
                },
                {
                    "name": "F#4",
                    "midi": 66,
                    "time": 4.787738083333335,
                    "velocity": 0.5748031496062992,
                    "duration": 0.15566045000000006
                },
                {
                    "name": "E3",
                    "midi": 52,
                    "time": 4.820756966666668,
                    "velocity": 0.3464566929133858,
                    "duration": 0.13207553333333344
                },
                {
                    "name": "B3",
                    "midi": 59,
                    "time": 4.834907916666668,
                    "velocity": 0.31496062992125984,
                    "duration": 0.27358503333333317
                },
                {
                    "name": "E4",
                    "midi": 64,
                    "time": 5.240568483333335,
                    "velocity": 0.5275590551181102,
                    "duration": 0.21698123333333363
                },
                {
                    "name": "D4",
                    "midi": 62,
                    "time": 5.665096983333335,
                    "velocity": 0.5039370078740157,
                    "duration": 0.49528325000000084
                },
                {
                    "name": "F#3",
                    "midi": 54,
                    "time": 5.683964916666668,
                    "velocity": 0.25196850393700787,
                    "duration": 0.4198115166666678
                },
                {
                    "name": "D2",
                    "midi": 38,
                    "time": 5.7264177666666685,
                    "velocity": 0.31496062992125984,
                    "duration": 0.18396235000000072
                },
                {
                    "name": "B3",
                    "midi": 59,
                    "time": 6.1132104000000025,
                    "velocity": 0.33070866141732286,
                    "duration": 0.17452838333333354
                },
                {
                    "name": "E4",
                    "midi": 64,
                    "time": 6.490569066666669,
                    "velocity": 0.5511811023622047,
                    "duration": 0.2641510666666669
                },
                {
                    "name": "F#3",
                    "midi": 54,
                    "time": 6.50472001666667,
                    "velocity": 0.30708661417322836,
                    "duration": 0.38679263333333314
                },
                {
                    "name": "B2",
                    "midi": 47,
                    "time": 6.542455883333337,
                    "velocity": 0.23622047244094488,
                    "duration": 0.11320759999999996
                },
                {
                    "name": "F#4",
                    "midi": 66,
                    "time": 6.933965500000003,
                    "velocity": 0.5433070866141733,
                    "duration": 0.13679251666666659
                },
                {
                    "name": "B3",
                    "midi": 59,
                    "time": 6.962267400000003,
                    "velocity": 0.36220472440944884,
                    "duration": 0.047169833333333244
                },
                {
                    "name": "F#4",
                    "midi": 66,
                    "time": 7.38207891666667,
                    "velocity": 0.5275590551181102,
                    "duration": 0.35849073333333337
                },
                {
                    "name": "G3",
                    "midi": 55,
                    "time": 7.410380816666669,
                    "velocity": 0.4330708661417323,
                    "duration": 0.30188693333333383
                },
                {
                    "name": "E2",
                    "midi": 40,
                    "time": 7.438682716666669,
                    "velocity": 0.2755905511811024,
                    "duration": 1.1037740999999972
                },
                {
                    "name": "E4",
                    "midi": 64,
                    "time": 7.839626300000003,
                    "velocity": 0.5039370078740157,
                    "duration": 0.14150949999999973
                },
                {
                    "name": "B3",
                    "midi": 59,
                    "time": 7.839626300000003,
                    "velocity": 0.3779527559055118,
                    "duration": 0.11792458333333311
                },
                {
                    "name": "E4",
                    "midi": 64,
                    "time": 8.297173683333336,
                    "velocity": 0.47244094488188976,
                    "duration": 0.561321016666664
                },
                {
                    "name": "G3",
                    "midi": 55,
                    "time": 8.316041616666668,
                    "velocity": 0.2992125984251969,
                    "duration": 0.4669813499999975
                },
                {
                    "name": "D3",
                    "midi": 50,
                    "time": 8.33490955,
                    "velocity": 0.29133858267716534,
                    "duration": 0.2311321833333313
                },
                {
                    "name": "B3",
                    "midi": 59,
                    "time": 8.740570116666666,
                    "velocity": 0.30708661417322836,
                    "duration": 0.0754717333333339
                },
                {
                    "name": "B4",
                    "midi": 71,
                    "time": 9.24057035,
                    "velocity": 0.6062992125984252,
                    "duration": 1.849057466666661
                },
                {
                    "name": "C4",
                    "midi": 60,
                    "time": 9.264155266666668,
                    "velocity": 0.33070866141732286,
                    "duration": 0.41509453333333113
                },
                {
                    "name": "E4",
                    "midi": 64,
                    "time": 9.688683766666665,
                    "velocity": 0.3700787401574803,
                    "duration": 0.40094358333333346
                },
                {
                    "name": "C4",
                    "midi": 60,
                    "time": 10.070759416666666,
                    "velocity": 0.36220472440944884,
                    "duration": 0.48113229999999874
                },
                {
                    "name": "G3",
                    "midi": 55,
                    "time": 10.070759416666666,
                    "velocity": 0.25984251968503935,
                    "duration": 1.014151416666662
                },
                {
                    "name": "E4",
                    "midi": 64,
                    "time": 10.500004899999999,
                    "velocity": 0.3858267716535433,
                    "duration": 0.5471700666666646
                },
                {
                    "name": "C4",
                    "midi": 60,
                    "time": 10.900948483333332,
                    "velocity": 0.3228346456692913,
                    "duration": 0.33962279999999545
                },
                {
                    "name": "A2",
                    "midi": 45,
                    "time": 10.929250383333333,
                    "velocity": 0.3543307086614173,
                    "duration": 0.12735854999999674
                },
                {
                    "name": "C5",
                    "midi": 72,
                    "time": 11.349061899999993,
                    "velocity": 0.6141732283464567,
                    "duration": 0.16037743333333232
                },
                {
                    "name": "E4",
                    "midi": 64,
                    "time": 11.367929833333326,
                    "velocity": 0.4015748031496063,
                    "duration": 0.2641510666666669
                },
                {
                    "name": "A4",
                    "midi": 69,
                    "time": 11.806609283333326,
                    "velocity": 0.5905511811023622,
                    "duration": 0.15566045000000095
                },
                {
                    "name": "G3",
                    "midi": 55,
                    "time": 11.844345149999993,
                    "velocity": 0.31496062992125984,
                    "duration": 0.13679251666666659
                },
                {
                    "name": "C4",
                    "midi": 60,
                    "time": 11.844345149999993,
                    "velocity": 0.30708661417322836,
                    "duration": 0.3396228000000008
                },
                {
                    "name": "G4",
                    "midi": 67,
                    "time": 12.226420799999994,
                    "velocity": 0.5826771653543307,
                    "duration": 0.25000011666666744
                },
                {
                    "name": "E4",
                    "midi": 64,
                    "time": 12.264156666666661,
                    "velocity": 0.2755905511811024,
                    "duration": 0.047169833333333244
                },
                {
                    "name": "F#4",
                    "midi": 66,
                    "time": 12.674534216666661,
                    "velocity": 0.5433070866141733,
                    "duration": 0.4764153166666656
                },
                {
                    "name": "C4",
                    "midi": 60,
                    "time": 12.721704049999994,
                    "velocity": 0.3543307086614173,
                    "duration": 0.29245296666666576
                },
                {
                    "name": "D3",
                    "midi": 50,
                    "time": 12.721704049999994,
                    "velocity": 0.3228346456692913,
                    "duration": 0.2641510666666651
                },
                {
                    "name": "D4",
                    "midi": 62,
                    "time": 13.122647633333326,
                    "velocity": 0.41732283464566927,
                    "duration": 0.15566045000000095
                },
                {
                    "name": "G4",
                    "midi": 67,
                    "time": 13.500006299999994,
                    "velocity": 0.5433070866141733,
                    "duration": 0.3537737500000002
                },
                {
                    "name": "C4",
                    "midi": 60,
                    "time": 13.523591216666661,
                    "velocity": 0.4094488188976378,
                    "duration": 0.15094346666666603
                },
                {
                    "name": "A4",
                    "midi": 69,
                    "time": 13.943402733333327,
                    "velocity": 0.6141732283464567,
                    "duration": 0.6698116333333317
                },
                {
                    "name": "D4",
                    "midi": 62,
                    "time": 13.966987649999995,
                    "velocity": 0.3543307086614173,
                    "duration": 0.2971699500000007
                },
                {
                    "name": "B3",
                    "midi": 59,
                    "time": 14.410384083333328,
                    "velocity": 0.41732283464566927,
                    "duration": 0.3396227999999972
                },
                {
                    "name": "G2",
                    "midi": 43,
                    "time": 14.438685983333327,
                    "velocity": 0.3543307086614173,
                    "duration": 0.25000011666666566
                },
                {
                    "name": "B4",
                    "midi": 71,
                    "time": 14.82547861666666,
                    "velocity": 0.5984251968503937,
                    "duration": 0.11792458333333222
                },
                {
                    "name": "D4",
                    "midi": 62,
                    "time": 14.839629566666659,
                    "velocity": 0.3858267716535433,
                    "duration": 0.3537737500000002
                },
                {
                    "name": "G4",
                    "midi": 67,
                    "time": 15.27830901666666,
                    "velocity": 0.5748031496062992,
                    "duration": 0.3207548666666664
                },
                {
                    "name": "F#3",
                    "midi": 54,
                    "time": 15.297176949999992,
                    "velocity": 0.33070866141732286,
                    "duration": 0.23113218333333307
                },
                {
                    "name": "B3",
                    "midi": 59,
                    "time": 15.316044883333324,
                    "velocity": 0.3543307086614173,
                    "duration": 0.5047172166666698
                },
                {
                    "name": "F#4",
                    "midi": 66,
                    "time": 15.71698846666666,
                    "velocity": 0.5275590551181102,
                    "duration": 0.13679251666666836
                },
                {
                    "name": "D4",
                    "midi": 62,
                    "time": 15.74529036666666,
                    "velocity": 0.3937007874015748,
                    "duration": 0.047169833333333244
                },
                {
                    "name": "E4",
                    "midi": 64,
                    "time": 16.193403783333327,
                    "velocity": 0.5039370078740157,
                    "duration": 0.3301888333333345
                },
                {
                    "name": "B3",
                    "midi": 59,
                    "time": 16.193403783333327,
                    "velocity": 0.3464566929133858,
                    "duration": 0.3301888333333345
                },
                {
                    "name": "C3",
                    "midi": 48,
                    "time": 16.240573616666662,
                    "velocity": 0.33070866141732286,
                    "duration": 0.36320771666666474
                },
                {
                    "name": "C4",
                    "midi": 60,
                    "time": 16.63680021666666,
                    "velocity": 0.3937007874015748,
                    "duration": 0.11320759999999908
                },
                {
                    "name": "F#4",
                    "midi": 66,
                    "time": 17.01887586666666,
                    "velocity": 0.5118110236220472,
                    "duration": 0.20754726666666556
                },
                {
                    "name": "B3",
                    "midi": 59,
                    "time": 17.056611733333327,
                    "velocity": 0.3543307086614173,
                    "duration": 0.1603774333333341
                },
                {
                    "name": "G4",
                    "midi": 67,
                    "time": 17.45755531666666,
                    "velocity": 0.5433070866141733,
                    "duration": 0.6745286166666666
                },
                {
                    "name": "C4",
                    "midi": 60,
                    "time": 17.481140233333328,
                    "velocity": 0.4251968503937008,
                    "duration": 0.2641510666666669
                },
                {
                    "name": "A3",
                    "midi": 57,
                    "time": 17.943404599999994,
                    "velocity": 0.4645669291338583,
                    "duration": 0.306603916666667
                },
                {
                    "name": "F#2",
                    "midi": 42,
                    "time": 17.99057443333333,
                    "velocity": 0.23622047244094488,
                    "duration": 1.0283023666666615
                },
                {
                    "name": "A4",
                    "midi": 69,
                    "time": 18.386801033333327,
                    "velocity": 0.5826771653543307,
                    "duration": 0.17452838333333176
                },
                {
                    "name": "C4",
                    "midi": 60,
                    "time": 18.415102933333326,
                    "velocity": 0.3937007874015748,
                    "duration": 0.18396234999999805
                },
                {
                    "name": "F#4",
                    "midi": 66,
                    "time": 18.830197466666657,
                    "velocity": 0.5118110236220472,
                    "duration": 0.17924536666666668
                },
                {
                    "name": "E3",
                    "midi": 52,
                    "time": 18.872650316666657,
                    "velocity": 0.3228346456692913,
                    "duration": 0.17924536666666668
                },
                {
                    "name": "A3",
                    "midi": 57,
                    "time": 18.872650316666657,
                    "velocity": 0.2992125984251969,
                    "duration": 0.29245296666666576
                },
                {
                    "name": "E4",
                    "midi": 64,
                    "time": 19.283027866666657,
                    "velocity": 0.5196850393700787,
                    "duration": 0.15094346666666425
                },
                {
                    "name": "C4",
                    "midi": 60,
                    "time": 19.311329766666656,
                    "velocity": 0.33858267716535434,
                    "duration": 0.061320783333332685
                },
                {
                    "name": "F#4",
                    "midi": 66,
                    "time": 19.80189603333332,
                    "velocity": 0.4881889763779528,
                    "duration": 1.9103782499999902
                },
                {
                    "name": "F#3",
                    "midi": 54,
                    "time": 19.820763966666654,
                    "velocity": 0.3464566929133858,
                    "duration": 1.4150949999999938
                },
                {
                    "name": "B2",
                    "midi": 47,
                    "time": 19.85849983333332,
                    "velocity": 0.28346456692913385,
                    "duration": 0.9716985666666638
                },
                {
                    "name": "B3",
                    "midi": 59,
                    "time": 20.25944341666665,
                    "velocity": 0.3543307086614173,
                    "duration": 0.2641510666666669
                },
                {
                    "name": "D4",
                    "midi": 62,
                    "time": 20.674537949999984,
                    "velocity": 0.33858267716535434,
                    "duration": 0.5896229166666629
                },
                {
                    "name": "B3",
                    "midi": 59,
                    "time": 21.103783433333316,
                    "velocity": 0.3228346456692913,
                    "duration": 0.20283028333333064
                },
                {
                    "name": "F#2",
                    "midi": 42,
                    "time": 21.599066683333312,
                    "velocity": 0.2992125984251969,
                    "duration": 0.3820756499999973
                },
                {
                    "name": "A4",
                    "midi": 69,
                    "time": 22.075481999999976,
                    "velocity": 0.5511811023622047,
                    "duration": 0.1509434666666678
                },
                {
                    "name": "E4",
                    "midi": 64,
                    "time": 22.099066916666644,
                    "velocity": 0.3937007874015748,
                    "duration": 0.061320783333332685
                },
                {
                    "name": "C4",
                    "midi": 60,
                    "time": 22.10850088333331,
                    "velocity": 0.25984251968503935,
                    "duration": 0.11320759999999908
                },
                {
                    "name": "F#4",
                    "midi": 66,
                    "time": 22.566048266666645,
                    "velocity": 0.4881889763779528,
                    "duration": 0.14622648333333288
                },
                {
                    "name": "G2",
                    "midi": 43,
                    "time": 22.60378413333331,
                    "velocity": 0.36220472440944884,
                    "duration": 0.14622648333333643
                },
                {
                    "name": "B3",
                    "midi": 59,
                    "time": 22.60378413333331,
                    "velocity": 0.33858267716535434,
                    "duration": 0.1084906166666677
                },
                {
                    "name": "D4",
                    "midi": 62,
                    "time": 22.61793508333331,
                    "velocity": 0.2440944881889764,
                    "duration": 0.0424528500000001
                },
                {
                    "name": "E4",
                    "midi": 64,
                    "time": 23.06604849999998,
                    "velocity": 0.4645669291338583,
                    "duration": 0.2452831333333343
                },
                {
                    "name": "F#3",
                    "midi": 54,
                    "time": 23.075482466666646,
                    "velocity": 0.33070866141732286,
                    "duration": 0.2264152000000017
                },
                {
                    "name": "C4",
                    "midi": 60,
                    "time": 23.084916433333312,
                    "velocity": 0.4094488188976378,
                    "duration": 0.2028302833333342
                },
                {
                    "name": "A2",
                    "midi": 45,
                    "time": 23.103784366666645,
                    "velocity": 0.33070866141732286,
                    "duration": 0.1745283833333353
                },
                {
                    "name": "F#4",
                    "midi": 66,
                    "time": 23.68869029999998,
                    "velocity": 0.47244094488188976,
                    "duration": 0.5660379999999989
                },
                {
                    "name": "B3",
                    "midi": 59,
                    "time": 23.712275216666647,
                    "velocity": 0.3543307086614173,
                    "duration": 2.834906983333333
                },
                {
                    "name": "D3",
                    "midi": 50,
                    "time": 23.721709183333314,
                    "velocity": 0.2440944881889764,
                    "duration": 1.3490572333333333
                },
                {
                    "name": "D4",
                    "midi": 62,
                    "time": 24.221709416666645,
                    "velocity": 0.30708661417322836,
                    "duration": 0.4905662666666686
                },
                {
                    "name": "B4",
                    "midi": 71,
                    "time": 24.825483283333313,
                    "velocity": 0.4881889763779528,
                    "duration": 1.2028307500000004
                },
                {
                    "name": "B1",
                    "midi": 35,
                    "time": 25.72642709999998,
                    "velocity": 0.29133858267716534,
                    "duration": 0.33018883333333093
                },
                {
                    "name": "B4",
                    "midi": 71,
                    "time": 26.542465216666645,
                    "velocity": 0.4409448818897638,
                    "duration": 0.31603788333333327
                },
                {
                    "name": "B3",
                    "midi": 59,
                    "time": 27.15567304999998,
                    "velocity": 0.2755905511811024,
                    "duration": 0.17924536666666668
                },
                {
                    "name": "C4",
                    "midi": 60,
                    "time": 27.16982399999998,
                    "velocity": 0.29133858267716534,
                    "duration": 0.10377363333333278
                },
                {
                    "name": "E4",
                    "midi": 64,
                    "time": 27.264163666666647,
                    "velocity": 0.4330708661417323,
                    "duration": 0.40566056666666483
                },
                {
                    "name": "G4",
                    "midi": 67,
                    "time": 27.39623919999998,
                    "velocity": 0.3937007874015748,
                    "duration": 0.2783020166666681
                },
                {
                    "name": "A1",
                    "midi": 33,
                    "time": 27.575484566666645,
                    "velocity": 0.1889763779527559,
                    "duration": 0.1603774333333341
                },
                {
                    "name": "B4",
                    "midi": 71,
                    "time": 27.632088366666647,
                    "velocity": 0.6062992125984252,
                    "duration": 1.9198122166666671
                },
                {
                    "name": "E5",
                    "midi": 76,
                    "time": 27.783031833333315,
                    "velocity": 0.4330708661417323,
                    "duration": 1.9198122166666671
                },
                {
                    "name": "E4",
                    "midi": 64,
                    "time": 28.084918766666647,
                    "velocity": 0.36220472440944884,
                    "duration": 0.3207548666666682
                },
                {
                    "name": "G4",
                    "midi": 67,
                    "time": 28.424541566666647,
                    "velocity": 0.4094488188976378,
                    "duration": 0.3396227999999972
                },
                {
                    "name": "B3",
                    "midi": 59,
                    "time": 28.452843466666646,
                    "velocity": 0.3937007874015748,
                    "duration": 1.03301935
                },
                {
                    "name": "E4",
                    "midi": 64,
                    "time": 28.85378704999998,
                    "velocity": 0.36220472440944884,
                    "duration": 0.37735866666666595
                },
                {
                    "name": "C4",
                    "midi": 60,
                    "time": 29.26416459999998,
                    "velocity": 0.4015748031496063,
                    "duration": 0.1273585500000003
                },
                {
                    "name": "A4",
                    "midi": 69,
                    "time": 29.721711983333314,
                    "velocity": 0.5826771653543307,
                    "duration": 0.18396234999999805
                },
                {
                    "name": "E4",
                    "midi": 64,
                    "time": 29.740579916666647,
                    "velocity": 0.4251968503937008,
                    "duration": 0.24528313333333074
                },
                {
                    "name": "A3",
                    "midi": 57,
                    "time": 29.75944784999998,
                    "velocity": 0.2755905511811024,
                    "duration": 0.13679251666666659
                },
                {
                    "name": "D5",
                    "midi": 74,
                    "time": 30.226429199999977,
                    "velocity": 0.5905511811023622,
                    "duration": 0.2547171000000006
                },
                {
                    "name": "G4",
                    "midi": 67,
                    "time": 30.235863166666643,
                    "velocity": 0.4094488188976378,
                    "duration": 0.3301888333333345
                },
                {
                    "name": "D4",
                    "midi": 62,
                    "time": 30.250014116666645,
                    "velocity": 0.3543307086614173,
                    "duration": 0.2971699500000007
                },
                {
                    "name": "B4",
                    "midi": 71,
                    "time": 30.646240716666643,
                    "velocity": 0.5826771653543307,
                    "duration": 0.1084906166666677
                },
                {
                    "name": "B3",
                    "midi": 59,
                    "time": 30.660391666666644,
                    "velocity": 0.4094488188976378,
                    "duration": 0.15566044999999917
                },
                {
                    "name": "E4",
                    "midi": 64,
                    "time": 30.679259599999977,
                    "velocity": 0.3464566929133858,
                    "duration": 0.04716983333333502
                },
                {
                    "name": "B4",
                    "midi": 71,
                    "time": 31.075486199999975,
                    "velocity": 0.6141732283464567,
                    "duration": 0.13679251666666659
                },
                {
                    "name": "C4",
                    "midi": 60,
                    "time": 31.094354133333308,
                    "velocity": 0.4409448818897638,
                    "duration": 0.11320759999999908
                },
                {
                    "name": "B3",
                    "midi": 59,
                    "time": 31.103788099999974,
                    "velocity": 0.4251968503937008,
                    "duration": 0.0754717333333339
                },
                {
                    "name": "F#3",
                    "midi": 54,
                    "time": 31.53303358333331,
                    "velocity": 0.30708661417322836,
                    "duration": 0.08018871666666882
                },
                {
                    "name": "E4",
                    "midi": 64,
                    "time": 31.537750566666645,
                    "velocity": 0.5039370078740157,
                    "duration": 0.1603774333333341
                },
                {
                    "name": "A2",
                    "midi": 45,
                    "time": 31.566052466666644,
                    "velocity": 0.3779527559055118,
                    "duration": 0.0849057000000002
                },
                {
                    "name": "D2",
                    "midi": 38,
                    "time": 31.61322229999998,
                    "velocity": 0.2677165354330709,
                    "duration": 0.037735866666665174
                },
                {
                    "name": "A4",
                    "midi": 69,
                    "time": 31.933977166666647,
                    "velocity": 0.6299212598425197,
                    "duration": 0.6603776666666725
                },
                {
                    "name": "F#3",
                    "midi": 54,
                    "time": 31.981146999999982,
                    "velocity": 0.3700787401574803,
                    "duration": 0.5660380000000025
                },
                {
                    "name": "E4",
                    "midi": 64,
                    "time": 32.36322264999998,
                    "velocity": 0.44881889763779526,
                    "duration": 0.39622659999999854
                },
                {
                    "name": "G4",
                    "midi": 67,
                    "time": 32.75473226666665,
                    "velocity": 0.5511811023622047,
                    "duration": 0.6037738666666641
                },
                {
                    "name": "C4",
                    "midi": 60,
                    "time": 32.783034166666646,
                    "velocity": 0.36220472440944884,
                    "duration": 1.3584912000000031
                },
                {
                    "name": "B3",
                    "midi": 59,
                    "time": 32.78775114999998,
                    "velocity": 0.3464566929133858,
                    "duration": 0.7641513000000018
                },
                {
                    "name": "E4",
                    "midi": 64,
                    "time": 33.193411716666645,
                    "velocity": 0.4015748031496063,
                    "duration": 0.27358503333333317
                },
                {
                    "name": "A4",
                    "midi": 69,
                    "time": 33.57077038333331,
                    "velocity": 0.5511811023622047,
                    "duration": 0.5566040333333362
                },
                {
                    "name": "A3",
                    "midi": 57,
                    "time": 33.603789266666645,
                    "velocity": 0.2440944881889764,
                    "duration": 0.7264154333333366
                },
                {
                    "name": "E4",
                    "midi": 64,
                    "time": 34.014166816666645,
                    "velocity": 0.3464566929133858,
                    "duration": 0.10377363333333278
                },
                {
                    "name": "E4",
                    "midi": 64,
                    "time": 34.42926134999998,
                    "velocity": 0.5590551181102362,
                    "duration": 0.6179248166666724
                },
                {
                    "name": "G3",
                    "midi": 55,
                    "time": 34.49058213333332,
                    "velocity": 0.3700787401574803,
                    "duration": 0.3396228000000008
                },
                {
                    "name": "B3",
                    "midi": 59,
                    "time": 34.90095968333332,
                    "velocity": 0.3464566929133858,
                    "duration": 0.9150947666666696
                },
                {
                    "name": "E4",
                    "midi": 64,
                    "time": 35.31605421666666,
                    "velocity": 0.3779527559055118,
                    "duration": 0.2641510666666633
                },
                {
                    "name": "B4",
                    "midi": 71,
                    "time": 35.73586573333332,
                    "velocity": 0.4094488188976378,
                    "duration": 0.5566040333333362
                },
                {
                    "name": "E4",
                    "midi": 64,
                    "time": 36.193413116666655,
                    "velocity": 0.3543307086614173,
                    "duration": 0.12735855000000385
                },
                {
                    "name": "E3",
                    "midi": 52,
                    "time": 36.193413116666655,
                    "velocity": 0.3228346456692913,
                    "duration": 0.12735855000000385
                },
                {
                    "name": "E2",
                    "midi": 40,
                    "time": 36.193413116666655,
                    "velocity": 0.28346456692913385,
                    "duration": 0.12735855000000385
                },
                {
                    "name": "D4",
                    "midi": 62,
                    "time": 36.712281283333326,
                    "velocity": 0.4330708661417323,
                    "duration": 0.3160378833333439
                },
                {
                    "name": "C5",
                    "midi": 72,
                    "time": 36.721715249999995,
                    "velocity": 0.4015748031496063,
                    "duration": 0.32547185000000667
                },
                {
                    "name": "D5",
                    "midi": 74,
                    "time": 36.731149216666665,
                    "velocity": 0.2992125984251969,
                    "duration": 0.6320757666666807
                },
                {
                    "name": "D3",
                    "midi": 50,
                    "time": 36.7358662,
                    "velocity": 0.2204724409448819,
                    "duration": 0.17924536666667024
                },
                {
                    "name": "D2",
                    "midi": 38,
                    "time": 36.7358662,
                    "velocity": 0.29133858267716534,
                    "duration": 0.13207553333333522
                },
                {
                    "name": "G4",
                    "midi": 67,
                    "time": 37.26416833333334,
                    "velocity": 0.47244094488188976,
                    "duration": 0.29245296666667286
                },
                {
                    "name": "G3",
                    "midi": 55,
                    "time": 37.316055150000004,
                    "velocity": 0.28346456692913385,
                    "duration": 0.16509441666667612
                },
                {
                    "name": "G2",
                    "midi": 43,
                    "time": 37.325489116666674,
                    "velocity": 0.3464566929133858,
                    "duration": 0.1367925166666737
                },
                {
                    "name": "F#4",
                    "midi": 66,
                    "time": 37.80190443333334,
                    "velocity": 0.4881889763779528,
                    "duration": 0.27830201666666454
                },
                {
                    "name": "D5",
                    "midi": 74,
                    "time": 37.830206333333344,
                    "velocity": 0.4251968503937008,
                    "duration": 0.22641519999999815
                },
                {
                    "name": "F#3",
                    "midi": 54,
                    "time": 37.83964030000001,
                    "velocity": 0.31496062992125984,
                    "duration": 0.16509441666666191
                },
                {
                    "name": "F#2",
                    "midi": 42,
                    "time": 37.84907426666668,
                    "velocity": 0.30708661417322836,
                    "duration": 0.16981139999999328
                },
                {
                    "name": "C5",
                    "midi": 72,
                    "time": 37.87265918333335,
                    "velocity": 0.1889763779527559,
                    "duration": 0.11320759999999552
                },
                {
                    "name": "E4",
                    "midi": 64,
                    "time": 38.42454623333334,
                    "velocity": 0.4881889763779528,
                    "duration": 0.5518870500000048
                },
                {
                    "name": "B4",
                    "midi": 71,
                    "time": 38.45756511666667,
                    "velocity": 0.33858267716535434,
                    "duration": 0.4386794500000022
                },
                {
                    "name": "E5",
                    "midi": 76,
                    "time": 38.46699908333334,
                    "velocity": 0.44881889763779526,
                    "duration": 0.39150961666666717
                },
                {
                    "name": "E3",
                    "midi": 52,
                    "time": 38.51416891666668,
                    "velocity": 0.23622047244094488,
                    "duration": 0.20754726666666556
                },
                {
                    "name": "E2",
                    "midi": 40,
                    "time": 38.51416891666668,
                    "velocity": 0.2677165354330709,
                    "duration": 0.15566044999999917
                },
                {
                    "name": "B3",
                    "midi": 59,
                    "time": 39.01416915000001,
                    "velocity": 0.47244094488188976,
                    "duration": 0.19339631666666435
                },
                {
                    "name": "D4",
                    "midi": 62,
                    "time": 39.476433516666674,
                    "velocity": 0.5354330708661418,
                    "duration": 0.49528324999999285
                },
                {
                    "name": "B4",
                    "midi": 71,
                    "time": 39.50001843333334,
                    "velocity": 0.4409448818897638,
                    "duration": 0.3490567666666635
                },
                {
                    "name": "E4",
                    "midi": 64,
                    "time": 39.905679,
                    "velocity": 0.6141732283464567,
                    "duration": 0.10849061666666415
                },
                {
                    "name": "F#4",
                    "midi": 66,
                    "time": 40.438698116666664,
                    "velocity": 0.5905511811023622,
                    "duration": 0.5330191166666651
                },
                {
                    "name": "G#3",
                    "midi": 56,
                    "time": 40.46228303333333,
                    "velocity": 0.41732283464566927,
                    "duration": 0.5849059333333315
                },
                {
                    "name": "D4",
                    "midi": 62,
                    "time": 40.48115096666666,
                    "velocity": 0.31496062992125984,
                    "duration": 0.424528500000001
                },
                {
                    "name": "E2",
                    "midi": 40,
                    "time": 40.49530191666666,
                    "velocity": 0.2283464566929134,
                    "duration": 0.4198115166666696
                },
                {
                    "name": "B2",
                    "midi": 47,
                    "time": 40.49530191666666,
                    "velocity": 0.2755905511811024,
                    "duration": 0.4009435833333299
                },
                {
                    "name": "E4",
                    "midi": 64,
                    "time": 41.47643444999999,
                    "velocity": 0.5905511811023622,
                    "duration": 0.9481136500000034
                },
                {
                    "name": "C4",
                    "midi": 60,
                    "time": 41.48586841666666,
                    "velocity": 0.5118110236220472,
                    "duration": 0.235849166666668
                },
                {
                    "name": "F#3",
                    "midi": 54,
                    "time": 41.49058539999999,
                    "velocity": 0.29133858267716534,
                    "duration": 0.8820758833333358
                },
                {
                    "name": "A2",
                    "midi": 45,
                    "time": 41.51417031666666,
                    "velocity": 0.30708661417322836,
                    "duration": 0.4528304000000034
                },
                {
                    "name": "D2",
                    "midi": 38,
                    "time": 41.52832126666666,
                    "velocity": 0.28346456692913385,
                    "duration": 0.4198115166666696
                },
                {
                    "name": "B3",
                    "midi": 59,
                    "time": 41.89624596666666,
                    "velocity": 0.5196850393700787,
                    "duration": 0.3018869333333356
                },
                {
                    "name": "A3",
                    "midi": 57,
                    "time": 42.23115178333333,
                    "velocity": 0.48031496062992124,
                    "duration": 0.14622648333332933
                },
                {
                    "name": "B1",
                    "midi": 35,
                    "time": 42.52832173333333,
                    "velocity": 0.3464566929133858,
                    "duration": 0.8820758833333358
                },
                {
                    "name": "F#2",
                    "midi": 42,
                    "time": 42.665114249999995,
                    "velocity": 0.28346456692913385,
                    "duration": 0.8349060500000007
                },
                {
                    "name": "D3",
                    "midi": 50,
                    "time": 42.750019949999995,
                    "velocity": 0.3700787401574803,
                    "duration": 0.660377666666669
                },
                {
                    "name": "F#4",
                    "midi": 66,
                    "time": 42.94341626666666,
                    "velocity": 0.5275590551181102,
                    "duration": 0.8254720833333309
                },
                {
                    "name": "F#3",
                    "midi": 54,
                    "time": 42.95756721666666,
                    "velocity": 0.31496062992125984,
                    "duration": 0.4858492833333372
                },
                {
                    "name": "B3",
                    "midi": 59,
                    "time": 42.990586099999994,
                    "velocity": 0.3700787401574803,
                    "duration": 0.5849059333333315
                },
                {
                    "name": "B3",
                    "midi": 59,
                    "time": 44.372662216666654,
                    "velocity": 0.4094488188976378,
                    "duration": 0.12735854999999674
                },
                {
                    "name": "F#3",
                    "midi": 54,
                    "time": 44.377379199999986,
                    "velocity": 0.3543307086614173,
                    "duration": 0.13207553333333522
                },
                {
                    "name": "B3",
                    "midi": 59,
                    "time": 44.84436054999999,
                    "velocity": 0.30708661417322836,
                    "duration": 0.05188681666666639
                },
                {
                    "name": "D4",
                    "midi": 62,
                    "time": 44.84436054999999,
                    "velocity": 0.2992125984251969,
                    "duration": 0.06132078333333624
                },
                {
                    "name": "F#4",
                    "midi": 66,
                    "time": 45.25945508333333,
                    "velocity": 0.4330708661417323,
                    "duration": 0.1698114000000004
                },
                {
                    "name": "D4",
                    "midi": 62,
                    "time": 45.28303999999999,
                    "velocity": 0.3228346456692913,
                    "duration": 0.06603776666666761
                },
                {
                    "name": "B4",
                    "midi": 71,
                    "time": 45.78775721666666,
                    "velocity": 0.4330708661417323,
                    "duration": 0.15566044999999917
                },
                {
                    "name": "F#4",
                    "midi": 66,
                    "time": 45.792474199999994,
                    "velocity": 0.25196850393700787,
                    "duration": 0.12264156666666537
                },
                {
                    "name": "F#5",
                    "midi": 78,
                    "time": 46.53304058333333,
                    "velocity": 0.5748031496062992,
                    "duration": 0.4528304000000034
                },
                {
                    "name": "B2",
                    "midi": 47,
                    "time": 46.556625499999996,
                    "velocity": 0.28346456692913385,
                    "duration": 1.4575478500000258
                },
                {
                    "name": "A4",
                    "midi": 69,
                    "time": 46.566059466666665,
                    "velocity": 0.23622047244094488,
                    "duration": 0.20754726666666556
                },
                {
                    "name": "B1",
                    "midi": 35,
                    "time": 46.566059466666665,
                    "velocity": 0.2677165354330709,
                    "duration": 1.4150950000000222
                },
                {
                    "name": "D5",
                    "midi": 74,
                    "time": 46.566059466666665,
                    "velocity": 0.3228346456692913,
                    "duration": 0.20754726666666556
                },
                {
                    "name": "B4",
                    "midi": 71,
                    "time": 46.59907835,
                    "velocity": 0.14173228346456693,
                    "duration": 0.16037743333333054
                },
                {
                    "name": "D5",
                    "midi": 74,
                    "time": 47.0377578,
                    "velocity": 0.1889763779527559,
                    "duration": 0.12264156666667247
                },
                {
                    "name": "A4",
                    "midi": 69,
                    "time": 47.04247478333333,
                    "velocity": 0.29133858267716534,
                    "duration": 0.07075475000000608
                },
                {
                    "name": "B4",
                    "midi": 71,
                    "time": 47.05190875,
                    "velocity": 0.2992125984251969,
                    "duration": 0.14150950000000506
                },
                {
                    "name": "G5",
                    "midi": 79,
                    "time": 47.424550433333344,
                    "velocity": 0.5511811023622047,
                    "duration": 1.1415099666666748
                },
                {
                    "name": "G4",
                    "midi": 67,
                    "time": 47.438701383333346,
                    "velocity": 0.30708661417322836,
                    "duration": 0.23113218333333663
                },
                {
                    "name": "D5",
                    "midi": 74,
                    "time": 47.448135350000015,
                    "velocity": 0.3937007874015748,
                    "duration": 0.2028302833333342
                },
                {
                    "name": "B4",
                    "midi": 71,
                    "time": 47.45285233333335,
                    "velocity": 0.33070866141732286,
                    "duration": 0.19811330000000282
                },
                {
                    "name": "D5",
                    "midi": 74,
                    "time": 47.858512900000015,
                    "velocity": 0.33070866141732286,
                    "duration": 0.16037743333333765
                },
                {
                    "name": "G4",
                    "midi": 67,
                    "time": 47.872663850000016,
                    "velocity": 0.25984251968503935,
                    "duration": 0.14622648333333643
                },
                {
                    "name": "B4",
                    "midi": 71,
                    "time": 47.88681480000002,
                    "velocity": 0.31496062992125984,
                    "duration": 0.12264156666667247
                },
                {
                    "name": "D5",
                    "midi": 74,
                    "time": 48.26417346666668,
                    "velocity": 0.3464566929133858,
                    "duration": 0.10849061666667126
                },
                {
                    "name": "G4",
                    "midi": 67,
                    "time": 48.27360743333335,
                    "velocity": 0.2755905511811024,
                    "duration": 0.08018871666666882
                },
                {
                    "name": "B4",
                    "midi": 71,
                    "time": 48.31134330000002,
                    "velocity": 0.2047244094488189,
                    "duration": 0.04245285000000365
                },
                {
                    "name": "B1",
                    "midi": 35,
                    "time": 48.32549425000002,
                    "velocity": 0.25984251968503935,
                    "duration": 0.05188681666666639
                },
                {
                    "name": "B2",
                    "midi": 47,
                    "time": 48.32549425000002,
                    "velocity": 0.2283464566929134,
                    "duration": 0.10377363333333278
                },
                {
                    "name": "F#5",
                    "midi": 78,
                    "time": 48.698135933333354,
                    "velocity": 0.5905511811023622,
                    "duration": 0.24056614999999226
                },
                {
                    "name": "D5",
                    "midi": 74,
                    "time": 48.72172085000002,
                    "velocity": 0.4566929133858268,
                    "duration": 0.12735854999999674
                },
                {
                    "name": "B4",
                    "midi": 71,
                    "time": 48.72643783333335,
                    "velocity": 0.3858267716535433,
                    "duration": 0.12264156666666537
                },
                {
                    "name": "A4",
                    "midi": 69,
                    "time": 48.764173700000015,
                    "velocity": 0.2283464566929134,
                    "duration": 0.13679251666666659
                },
                {
                    "name": "G5",
                    "midi": 79,
                    "time": 49.094362533333346,
                    "velocity": 0.5748031496062992,
                    "duration": 0.10377363333333278
                },
                {
                    "name": "D5",
                    "midi": 74,
                    "time": 49.11323046666668,
                    "velocity": 0.5039370078740157,
                    "duration": 0.12264156666666537
                },
                {
                    "name": "G4",
                    "midi": 67,
                    "time": 49.11323046666668,
                    "velocity": 0.36220472440944884,
                    "duration": 0.12735854999999674
                },
                {
                    "name": "B4",
                    "midi": 71,
                    "time": 49.12266443333335,
                    "velocity": 0.4015748031496063,
                    "duration": 0.08962268333333157
                },
                {
                    "name": "A5",
                    "midi": 81,
                    "time": 49.485872150000006,
                    "velocity": 0.6456692913385826,
                    "duration": 0.09905665000000141
                },
                {
                    "name": "F#4",
                    "midi": 66,
                    "time": 49.49058913333334,
                    "velocity": 0.33070866141732286,
                    "duration": 0.08018871666666882
                },
                {
                    "name": "B4",
                    "midi": 71,
                    "time": 49.51417405,
                    "velocity": 0.36220472440944884,
                    "duration": 0.06132078333333624
                },
                {
                    "name": "D5",
                    "midi": 74,
                    "time": 49.52360801666667,
                    "velocity": 0.3700787401574803,
                    "duration": 0.037735866666665174
                },
                {
                    "name": "D5",
                    "midi": 74,
                    "time": 49.96228746666667,
                    "velocity": 0.5826771653543307,
                    "duration": 0.5660380000000202
                },
                {
                    "name": "E4",
                    "midi": 64,
                    "time": 49.981155400000006,
                    "velocity": 0.3543307086614173,
                    "duration": 0.21698123333334962
                },
                {
                    "name": "B4",
                    "midi": 71,
                    "time": 49.990589366666676,
                    "velocity": 0.41732283464566927,
                    "duration": 0.17452838333334597
                },
                {
                    "name": "G4",
                    "midi": 67,
                    "time": 49.990589366666676,
                    "velocity": 0.3543307086614173,
                    "duration": 0.18396235000001582
                },
                {
                    "name": "B1",
                    "midi": 35,
                    "time": 50.000023333333345,
                    "velocity": 0.3543307086614173,
                    "duration": 1.448113883333356
                },
                {
                    "name": "B2",
                    "midi": 47,
                    "time": 50.009457300000015,
                    "velocity": 0.33070866141732286,
                    "duration": 1.4811327666666827
                },
                {
                    "name": "E4",
                    "midi": 64,
                    "time": 50.39153295000002,
                    "velocity": 0.2204724409448819,
                    "duration": 0.12735855000000385
                },
                {
                    "name": "B4",
                    "midi": 71,
                    "time": 50.40568390000002,
                    "velocity": 0.2283464566929134,
                    "duration": 0.14150950000000506
                },
                {
                    "name": "G4",
                    "midi": 67,
                    "time": 50.41511786666669,
                    "velocity": 0.1889763779527559,
                    "duration": 0.11320760000000263
                },
                {
                    "name": "C#5",
                    "midi": 73,
                    "time": 50.773608600000024,
                    "velocity": 0.5118110236220472,
                    "duration": 2.037736800000012
                },
                {
                    "name": "E4",
                    "midi": 64,
                    "time": 50.80191050000003,
                    "velocity": 0.2440944881889764,
                    "duration": 0.20754726666667267
                },
                {
                    "name": "B4",
                    "midi": 71,
                    "time": 50.8113444666667,
                    "velocity": 0.3228346456692913,
                    "duration": 0.2028302833333342
                },
                {
                    "name": "G4",
                    "midi": 67,
                    "time": 50.8254954166667,
                    "velocity": 0.1732283464566929,
                    "duration": 0.18867933333333298
                },
                {
                    "name": "E4",
                    "midi": 64,
                    "time": 51.217005033333365,
                    "velocity": 0.2204724409448819,
                    "duration": 0.14622648333333643
                },
                {
                    "name": "G4",
                    "midi": 67,
                    "time": 51.226439000000035,
                    "velocity": 0.2440944881889764,
                    "duration": 0.13679251666666659
                },
                {
                    "name": "B4",
                    "midi": 71,
                    "time": 51.235872966666705,
                    "velocity": 0.2047244094488189,
                    "duration": 0.14150949999999796
                },
                {
                    "name": "E4",
                    "midi": 64,
                    "time": 51.58021275000003,
                    "velocity": 0.3543307086614173,
                    "duration": 0.1509434666666678
                },
                {
                    "name": "G4",
                    "midi": 67,
                    "time": 51.59436370000003,
                    "velocity": 0.3543307086614173,
                    "duration": 0.13679251666666659
                },
                {
                    "name": "B4",
                    "midi": 71,
                    "time": 51.59436370000003,
                    "velocity": 0.2992125984251969,
                    "duration": 0.1698114000000004
                },
                {
                    "name": "G4",
                    "midi": 67,
                    "time": 51.98115633333337,
                    "velocity": 0.3700787401574803,
                    "duration": 0.14150949999999796
                },
                {
                    "name": "E4",
                    "midi": 64,
                    "time": 51.99530728333337,
                    "velocity": 0.4330708661417323,
                    "duration": 0.17452838333333176
                },
                {
                    "name": "B4",
                    "midi": 71,
                    "time": 51.99530728333337,
                    "velocity": 0.33858267716535434,
                    "duration": 0.16509441666666191
                },
                {
                    "name": "B4",
                    "midi": 71,
                    "time": 52.3820999166667,
                    "velocity": 0.36220472440944884,
                    "duration": 0.21698123333334252
                },
                {
                    "name": "G4",
                    "midi": 67,
                    "time": 52.391533883333366,
                    "velocity": 0.33858267716535434,
                    "duration": 0.13679251666666659
                },
                {
                    "name": "B3",
                    "midi": 59,
                    "time": 52.41983578333337,
                    "velocity": 0.33070866141732286,
                    "duration": 0.117924583333334
                },
                {
                    "name": "B4",
                    "midi": 71,
                    "time": 52.8490812666667,
                    "velocity": 0.2992125984251969,
                    "duration": 0.17452838333333887
                },
                {
                    "name": "G4",
                    "midi": 67,
                    "time": 52.85851523333337,
                    "velocity": 0.2283464566929134,
                    "duration": 0.13679251666666659
                },
                {
                    "name": "E4",
                    "midi": 64,
                    "time": 52.87266618333337,
                    "velocity": 0.2992125984251969,
                    "duration": 0.0849057000000002
                },
                {
                    "name": "D5",
                    "midi": 74,
                    "time": 53.396251333333375,
                    "velocity": 0.5826771653543307,
                    "duration": 0.4009435833333441
                },
                {
                    "name": "F#4",
                    "midi": 66,
                    "time": 53.42455323333338,
                    "velocity": 0.2204724409448819,
                    "duration": 0.20754726666667267
                },
                {
                    "name": "B4",
                    "midi": 71,
                    "time": 53.43398720000005,
                    "velocity": 0.3700787401574803,
                    "duration": 0.21698123333334252
                },
                {
                    "name": "G4",
                    "midi": 67,
                    "time": 53.44342116666672,
                    "velocity": 0.28346456692913385,
                    "duration": 0.19811330000000282
                },
                {
                    "name": "B2",
                    "midi": 47,
                    "time": 53.44813815000005,
                    "velocity": 0.2677165354330709,
                    "duration": 1.2924534333333213
                },
                {
                    "name": "B1",
                    "midi": 35,
                    "time": 53.44813815000005,
                    "velocity": 0.2283464566929134,
                    "duration": 1.2547175666666561
                },
                {
                    "name": "F#4",
                    "midi": 66,
                    "time": 53.844364750000054,
                    "velocity": 0.25984251968503935,
                    "duration": 0.06132078333332913
                },
                {
                    "name": "G4",
                    "midi": 67,
                    "time": 53.86794966666672,
                    "velocity": 0.3779527559055118,
                    "duration": 0.05188681666666639
                },
                {
                    "name": "E5",
                    "midi": 76,
                    "time": 54.22644040000005,
                    "velocity": 0.6456692913385826,
                    "duration": 1.1745288499999873
                },
                {
                    "name": "E4",
                    "midi": 64,
                    "time": 54.23587436666672,
                    "velocity": 0.44881889763779526,
                    "duration": 0.24056614999998516
                },
                {
                    "name": "G4",
                    "midi": 67,
                    "time": 54.25002531666672,
                    "velocity": 0.3464566929133858,
                    "duration": 0.22169821666665257
                },
                {
                    "name": "B4",
                    "midi": 71,
                    "time": 54.25474230000005,
                    "velocity": 0.48031496062992124,
                    "duration": 0.21226424999998983
                },
                {
                    "name": "B4",
                    "midi": 71,
                    "time": 54.67927080000004,
                    "velocity": 0.30708661417322836,
                    "duration": 0.17924536666666313
                },
                {
                    "name": "E4",
                    "midi": 64,
                    "time": 54.68398778333337,
                    "velocity": 0.2992125984251969,
                    "duration": 0.14150949999999796
                },
                {
                    "name": "G4",
                    "midi": 67,
                    "time": 54.6887047666667,
                    "velocity": 0.25984251968503935,
                    "duration": 0.13207553333333522
                },
                {
                    "name": "B4",
                    "midi": 71,
                    "time": 55.06606343333337,
                    "velocity": 0.29133858267716534,
                    "duration": 0.11320760000000263
                },
                {
                    "name": "G4",
                    "midi": 67,
                    "time": 55.07549740000004,
                    "velocity": 0.29133858267716534,
                    "duration": 0.06132078333333624
                },
                {
                    "name": "E4",
                    "midi": 64,
                    "time": 55.07549740000004,
                    "velocity": 0.2992125984251969,
                    "duration": 0.06603776666666761
                },
                {
                    "name": "B1",
                    "midi": 35,
                    "time": 55.10379930000004,
                    "velocity": 0.3464566929133858,
                    "duration": 0.05188681666666639
                },
                {
                    "name": "B2",
                    "midi": 47,
                    "time": 55.132101200000044,
                    "velocity": 0.1968503937007874,
                    "duration": 0.07547173333333035
                },
                {
                    "name": "D5",
                    "midi": 74,
                    "time": 55.467007016666706,
                    "velocity": 0.5905511811023622,
                    "duration": 0.2028302833333342
                },
                {
                    "name": "F#4",
                    "midi": 66,
                    "time": 55.476440983333376,
                    "velocity": 0.4015748031496063,
                    "duration": 0.16509441666666191
                },
                {
                    "name": "B4",
                    "midi": 71,
                    "time": 55.50002590000004,
                    "velocity": 0.3779527559055118,
                    "duration": 0.07075474999999898
                },
                {
                    "name": "G4",
                    "midi": 67,
                    "time": 55.50002590000004,
                    "velocity": 0.36220472440944884,
                    "duration": 0.05660379999999776
                },
                {
                    "name": "E5",
                    "midi": 76,
                    "time": 55.86795060000004,
                    "velocity": 0.6299212598425197,
                    "duration": 0.11320760000000263
                },
                {
                    "name": "B4",
                    "midi": 71,
                    "time": 55.89153551666671,
                    "velocity": 0.4566929133858268,
                    "duration": 0.10849061666667126
                },
                {
                    "name": "E4",
                    "midi": 64,
                    "time": 55.90568646666671,
                    "velocity": 0.4015748031496063,
                    "duration": 0.16509441666666902
                },
                {
                    "name": "G4",
                    "midi": 67,
                    "time": 55.90568646666671,
                    "velocity": 0.23622047244094488,
                    "duration": 0.04716983333333502
                },
                {
                    "name": "F#5",
                    "midi": 78,
                    "time": 56.27361116666671,
                    "velocity": 0.6614173228346457,
                    "duration": 0.10377363333333278
                },
                {
                    "name": "G4",
                    "midi": 67,
                    "time": 56.292479100000044,
                    "velocity": 0.4881889763779528,
                    "duration": 0.08018871666666882
                },
                {
                    "name": "D4",
                    "midi": 62,
                    "time": 56.301913066666714,
                    "velocity": 0.4566929133858268,
                    "duration": 0.05188681666666639
                },
                {
                    "name": "B4",
                    "midi": 71,
                    "time": 56.792479333333375,
                    "velocity": 0.6377952755905512,
                    "duration": 0.5660380000000202
                },
                {
                    "name": "C#4",
                    "midi": 61,
                    "time": 56.792479333333375,
                    "velocity": 0.3779527559055118,
                    "duration": 0.24528313333335205
                },
                {
                    "name": "G4",
                    "midi": 67,
                    "time": 56.81134726666671,
                    "velocity": 0.4094488188976378,
                    "duration": 0.23113218333335084
                },
                {
                    "name": "E4",
                    "midi": 64,
                    "time": 56.82078123333338,
                    "velocity": 0.4094488188976378,
                    "duration": 0.19339631666667856
                },
                {
                    "name": "B1",
                    "midi": 35,
                    "time": 56.83964916666672,
                    "velocity": 0.30708661417322836,
                    "duration": 3.2122656500000133
                },
                {
                    "name": "B2",
                    "midi": 47,
                    "time": 56.83964916666672,
                    "velocity": 0.25196850393700787,
                    "duration": 3.221699616666683
                },
                {
                    "name": "C#4",
                    "midi": 61,
                    "time": 57.20285688333339,
                    "velocity": 0.2677165354330709,
                    "duration": 0.15566045000000628
                },
                {
                    "name": "E4",
                    "midi": 64,
                    "time": 57.23587576666672,
                    "velocity": 0.3543307086614173,
                    "duration": 0.11320760000000263
                },
                {
                    "name": "G4",
                    "midi": 67,
                    "time": 57.23587576666672,
                    "velocity": 0.2677165354330709,
                    "duration": 0.14150950000000506
                },
                {
                    "name": "A4",
                    "midi": 69,
                    "time": 57.62266840000006,
                    "velocity": 0.5433070866141733,
                    "duration": 0.5613210166666605
                },
                {
                    "name": "C#4",
                    "midi": 61,
                    "time": 57.62266840000006,
                    "velocity": 0.2755905511811024,
                    "duration": 0.1839623499999945
                },
                {
                    "name": "E4",
                    "midi": 64,
                    "time": 57.65097030000006,
                    "velocity": 0.3858267716535433,
                    "duration": 0.11320759999999552
                },
                {
                    "name": "G4",
                    "midi": 67,
                    "time": 57.65568728333339,
                    "velocity": 0.33858267716535434,
                    "duration": 0.12735854999999674
                },
                {
                    "name": "G4",
                    "midi": 67,
                    "time": 58.066064833333385,
                    "velocity": 0.3858267716535433,
                    "duration": 0.13679251666666659
                },
                {
                    "name": "C#4",
                    "midi": 61,
                    "time": 58.07078181666672,
                    "velocity": 0.2047244094488189,
                    "duration": 0.19339631666667145
                },
                {
                    "name": "E4",
                    "midi": 64,
                    "time": 58.08021578333339,
                    "velocity": 0.3858267716535433,
                    "duration": 0.08962268333333157
                },
                {
                    "name": "F#4",
                    "midi": 66,
                    "time": 58.53776316666672,
                    "velocity": 0.5118110236220472,
                    "duration": 0.38207565000000443
                },
                {
                    "name": "C#4",
                    "midi": 61,
                    "time": 58.55191411666672,
                    "velocity": 0.2677165354330709,
                    "duration": 0.2500001166666692
                },
                {
                    "name": "D4",
                    "midi": 62,
                    "time": 58.556631100000054,
                    "velocity": 0.4566929133858268,
                    "duration": 0.235849166666668
                },
                {
                    "name": "F#4",
                    "midi": 66,
                    "time": 58.97172563333339,
                    "velocity": 0.15748031496062992,
                    "duration": 0.1839623500000016
                },
                {
                    "name": "D4",
                    "midi": 62,
                    "time": 59.00946150000006,
                    "velocity": 0.4094488188976378,
                    "duration": 0.11320760000000263
                },
                {
                    "name": "C#4",
                    "midi": 61,
                    "time": 59.00946150000006,
                    "velocity": 0.2125984251968504,
                    "duration": 0.14150950000000506
                },
                {
                    "name": "F#4",
                    "midi": 66,
                    "time": 59.38682016666673,
                    "velocity": 0.2755905511811024,
                    "duration": 0.16037743333333054
                },
                {
                    "name": "D4",
                    "midi": 62,
                    "time": 59.433990000000065,
                    "velocity": 0.23622047244094488,
                    "duration": 0.08962268333333157
                },
                {
                    "name": "F#4",
                    "midi": 66,
                    "time": 59.85380151666673,
                    "velocity": 0.33070866141732286,
                    "duration": 0.20754726666667267
                },
                {
                    "name": "D4",
                    "midi": 62,
                    "time": 59.86795246666673,
                    "velocity": 0.4094488188976378,
                    "duration": 0.1509434666666678
                },
                {
                    "name": "C#4",
                    "midi": 61,
                    "time": 59.88210341666673,
                    "velocity": 0.14173228346456693,
                    "duration": 0.17924536666667024
                },
                {
                    "name": "A4",
                    "midi": 69,
                    "time": 60.47644331666673,
                    "velocity": 0.5590551181102362,
                    "duration": 0.4716983333333431
                },
                {
                    "name": "F#4",
                    "midi": 66,
                    "time": 60.47644331666673,
                    "velocity": 0.33070866141732286,
                    "duration": 0.2877359833333415
                },
                {
                    "name": "C#4",
                    "midi": 61,
                    "time": 60.48116030000006,
                    "velocity": 0.25196850393700787,
                    "duration": 0.24056615000000647
                },
                {
                    "name": "D4",
                    "midi": 62,
                    "time": 60.500028233333396,
                    "velocity": 0.4015748031496063,
                    "duration": 0.2358491666666751
                },
                {
                    "name": "A2",
                    "midi": 45,
                    "time": 60.51889616666673,
                    "velocity": 0.3543307086614173,
                    "duration": 1.4905667333333454
                },
                {
                    "name": "A1",
                    "midi": 33,
                    "time": 60.54719806666673,
                    "velocity": 0.31496062992125984,
                    "duration": 1.2877364500000112
                },
                {
                    "name": "F#4",
                    "midi": 66,
                    "time": 60.94342466666674,
                    "velocity": 0.2755905511811024,
                    "duration": 0.1509434666666678
                },
                {
                    "name": "C#4",
                    "midi": 61,
                    "time": 60.962292600000076,
                    "velocity": 0.25984251968503935,
                    "duration": 0.07075474999999898
                },
                {
                    "name": "D4",
                    "midi": 62,
                    "time": 60.98587751666674,
                    "velocity": 0.2677165354330709,
                    "duration": 0.06132078333333624
                },
                {
                    "name": "B4",
                    "midi": 71,
                    "time": 61.32550031666675,
                    "velocity": 0.5590551181102362,
                    "duration": 1.1179250499999824
                },
                {
                    "name": "B3",
                    "midi": 59,
                    "time": 61.33021730000008,
                    "velocity": 0.3464566929133858,
                    "duration": 0.25943408333333196
                },
                {
                    "name": "F#4",
                    "midi": 66,
                    "time": 61.33021730000008,
                    "velocity": 0.2755905511811024,
                    "duration": 0.25943408333333196
                },
                {
                    "name": "D4",
                    "midi": 62,
                    "time": 61.33965126666675,
                    "velocity": 0.3700787401574803,
                    "duration": 0.23113218333332952
                },
                {
                    "name": "F#4",
                    "midi": 66,
                    "time": 61.77361373333341,
                    "velocity": 0.33070866141732286,
                    "duration": 0.1509434666666607
                },
                {
                    "name": "B3",
                    "midi": 59,
                    "time": 61.778330716666744,
                    "velocity": 0.3543307086614173,
                    "duration": 0.13679251666666659
                },
                {
                    "name": "D4",
                    "midi": 62,
                    "time": 61.778330716666744,
                    "velocity": 0.3937007874015748,
                    "duration": 0.14150949999999796
                },
                {
                    "name": "B3",
                    "midi": 59,
                    "time": 62.11795351666674,
                    "velocity": 0.4015748031496063,
                    "duration": 0.10849061666666415
                },
                {
                    "name": "F#4",
                    "midi": 66,
                    "time": 62.12267050000007,
                    "velocity": 0.3700787401574803,
                    "duration": 0.14150949999999796
                },
                {
                    "name": "A1",
                    "midi": 33,
                    "time": 62.160406366666734,
                    "velocity": 0.33070866141732286,
                    "duration": 0.05660379999999776
                },
                {
                    "name": "D4",
                    "midi": 62,
                    "time": 62.165123350000066,
                    "velocity": 0.2440944881889764,
                    "duration": 0.033018883333333804
                },
                {
                    "name": "A4",
                    "midi": 69,
                    "time": 62.55663296666673,
                    "velocity": 0.6220472440944882,
                    "duration": 0.26415106666667043
                },
                {
                    "name": "F#4",
                    "midi": 66,
                    "time": 62.584934866666735,
                    "velocity": 0.33858267716535434,
                    "duration": 0.3018869333333356
                },
                {
                    "name": "C#4",
                    "midi": 61,
                    "time": 62.58965185000007,
                    "velocity": 0.3779527559055118,
                    "duration": 0.24056615000000647
                },
                {
                    "name": "D4",
                    "midi": 62,
                    "time": 62.60380280000007,
                    "velocity": 0.2992125984251969,
                    "duration": 0.06132078333333624
                },
                {
                    "name": "B4",
                    "midi": 71,
                    "time": 62.98587845000007,
                    "velocity": 0.6377952755905512,
                    "duration": 0.10849061666666415
                },
                {
                    "name": "F#4",
                    "midi": 66,
                    "time": 62.99531241666674,
                    "velocity": 0.3543307086614173,
                    "duration": 0.22641519999999105
                },
                {
                    "name": "D4",
                    "midi": 62,
                    "time": 63.00946336666674,
                    "velocity": 0.41732283464566927,
                    "duration": 0.0660377666666605
                },
                {
                    "name": "B3",
                    "midi": 59,
                    "time": 63.03304828333341,
                    "velocity": 0.4015748031496063,
                    "duration": 0.2169812333333283
                },
                {
                    "name": "C#5",
                    "midi": 73,
                    "time": 63.410406950000066,
                    "velocity": 0.6692913385826772,
                    "duration": 0.11320760000000263
                },
                {
                    "name": "F#4",
                    "midi": 66,
                    "time": 63.42455790000007,
                    "velocity": 0.3858267716535433,
                    "duration": 0.07075475000000608
                },
                {
                    "name": "D4",
                    "midi": 62,
                    "time": 63.43399186666674,
                    "velocity": 0.49606299212598426,
                    "duration": 0.05188681666666639
                },
                {
                    "name": "A3",
                    "midi": 57,
                    "time": 63.43870885000007,
                    "velocity": 0.3543307086614173,
                    "duration": 0.08018871666666882
                },
                {
                    "name": "F#4",
                    "midi": 66,
                    "time": 63.91984115000007,
                    "velocity": 0.5748031496062992,
                    "duration": 0.4386794500000093
                },
                {
                    "name": "D4",
                    "midi": 62,
                    "time": 63.94342606666673,
                    "velocity": 0.48031496062992124,
                    "duration": 0.4245285000000081
                },
                {
                    "name": "G3",
                    "midi": 55,
                    "time": 63.9528600333334,
                    "velocity": 0.4566929133858268,
                    "duration": 0.4056605666666755
                },
                {
                    "name": "E2",
                    "midi": 40,
                    "time": 63.981161933333404,
                    "velocity": 0.2677165354330709,
                    "duration": 0.34433978333334636
                },
                {
                    "name": "B2",
                    "midi": 47,
                    "time": 64.00002986666674,
                    "velocity": 0.1889763779527559,
                    "duration": 0.4056605666666684
                },
                {
                    "name": "E4",
                    "midi": 64,
                    "time": 64.8585208333334,
                    "velocity": 0.5039370078740157,
                    "duration": 1.0000004666666769
                },
                {
                    "name": "B3",
                    "midi": 59,
                    "time": 64.87738876666674,
                    "velocity": 0.3858267716535433,
                    "duration": 0.8867928666666671
                },
                {
                    "name": "G3",
                    "midi": 55,
                    "time": 64.87738876666674,
                    "velocity": 0.3700787401574803,
                    "duration": 0.9150947666666696
                },
                {
                    "name": "E3",
                    "midi": 52,
                    "time": 64.89625670000008,
                    "velocity": 0.29133858267716534,
                    "duration": 0.7264154333333295
                },
                {
                    "name": "A2",
                    "midi": 45,
                    "time": 64.92455860000008,
                    "velocity": 0.2755905511811024,
                    "duration": 0.6650946500000003
                },
                {
                    "name": "D4",
                    "midi": 62,
                    "time": 66.34908756666674,
                    "velocity": 0.4881889763779528,
                    "duration": 0.22641520000000526
                },
                {
                    "name": "A3",
                    "midi": 57,
                    "time": 66.34908756666674,
                    "velocity": 0.4094488188976378,
                    "duration": 0.18867933333334008
                },
                {
                    "name": "F#3",
                    "midi": 54,
                    "time": 66.35380455000008,
                    "velocity": 0.2992125984251969,
                    "duration": 0.1509434666666749
                },
                {
                    "name": "D3",
                    "midi": 50,
                    "time": 66.39154041666674,
                    "velocity": 0.4251968503937008,
                    "duration": 0.1839623500000016
                },
                {
                    "name": "E4",
                    "midi": 64,
                    "time": 66.81135193333341,
                    "velocity": 0.5275590551181102,
                    "duration": 0.1698114000000146
                },
                {
                    "name": "E3",
                    "midi": 52,
                    "time": 66.83965383333341,
                    "velocity": 0.3543307086614173,
                    "duration": 0.11320760000000973
                },
                {
                    "name": "G3",
                    "midi": 55,
                    "time": 66.84908780000008,
                    "velocity": 0.3543307086614173,
                    "duration": 0.10849061666668547
                },
                {
                    "name": "B3",
                    "midi": 59,
                    "time": 66.84908780000008,
                    "velocity": 0.30708661417322836,
                    "duration": 0.16037743333335186
                },
                {
                    "name": "A2",
                    "midi": 45,
                    "time": 66.87738970000008,
                    "velocity": 0.14173228346456693,
                    "duration": 0.10377363333334699
                },
                {
                    "name": "F#4",
                    "midi": 66,
                    "time": 67.29248423333343,
                    "velocity": 0.4409448818897638,
                    "duration": 0.21698123333335673
                },
                {
                    "name": "G3",
                    "midi": 55,
                    "time": 67.32550311666675,
                    "velocity": 0.33858267716535434,
                    "duration": 0.19811330000003124
                },
                {
                    "name": "D4",
                    "midi": 62,
                    "time": 67.32550311666675,
                    "velocity": 0.3779527559055118,
                    "duration": 0.1886793333333685
                },
                {
                    "name": "E2",
                    "midi": 40,
                    "time": 67.34437105000009,
                    "velocity": 0.3228346456692913,
                    "duration": 0.11320760000000973
                },
                {
                    "name": "B2",
                    "midi": 47,
                    "time": 67.36795596666677,
                    "velocity": 0.2440944881889764,
                    "duration": 0.12264156666667247
                },
                {
                    "name": "E4",
                    "midi": 64,
                    "time": 67.80663541666678,
                    "velocity": 0.4645669291338583,
                    "duration": 0.8584909666666931
                },
                {
                    "name": "B3",
                    "midi": 59,
                    "time": 67.84437128333344,
                    "velocity": 0.31496062992125984,
                    "duration": 0.419811516666698
                },
                {
                    "name": "G3",
                    "midi": 55,
                    "time": 67.84908826666678,
                    "velocity": 0.29133858267716534,
                    "duration": 0.5283021333333551
                },
                {
                    "name": "E3",
                    "midi": 52,
                    "time": 67.86323921666678,
                    "velocity": 0.29133858267716534,
                    "duration": 0.3726416833333559
                },
                {
                    "name": "A2",
                    "midi": 45,
                    "time": 67.86795620000012,
                    "velocity": 0.31496062992125984,
                    "duration": 0.3584907333333547
                },
                {
                    "name": "D4",
                    "midi": 62,
                    "time": 68.8679566666668,
                    "velocity": 0.41732283464566927,
                    "duration": 0.47641531666666026
                },
                {
                    "name": "A3",
                    "midi": 57,
                    "time": 68.87739063333346,
                    "velocity": 0.25984251968503935,
                    "duration": 0.38207565000000443
                },
                {
                    "name": "F#3",
                    "midi": 54,
                    "time": 68.8962585666668,
                    "velocity": 0.18110236220472442,
                    "duration": 0.353773750000002
                },
                {
                    "name": "D3",
                    "midi": 50,
                    "time": 68.90569253333346,
                    "velocity": 0.3228346456692913,
                    "duration": 0.42924548333333234
                },
                {
                    "name": "F#5",
                    "midi": 78,
                    "time": 70.05663646666679,
                    "velocity": 0.5039370078740157,
                    "duration": 0.5660380000000202
                },
                {
                    "name": "A4",
                    "midi": 69,
                    "time": 70.09437233333345,
                    "velocity": 0.31496062992125984,
                    "duration": 0.2688680500000089
                },
                {
                    "name": "D5",
                    "midi": 74,
                    "time": 70.09437233333345,
                    "velocity": 0.4015748031496063,
                    "duration": 0.1839623500000016
                },
                {
                    "name": "B4",
                    "midi": 71,
                    "time": 70.09908931666679,
                    "velocity": 0.28346456692913385,
                    "duration": 0.2688680500000089
                },
                {
                    "name": "B1",
                    "midi": 35,
                    "time": 70.12267423333346,
                    "velocity": 0.2677165354330709,
                    "duration": 1.735849866666726
                },
                {
                    "name": "B2",
                    "midi": 47,
                    "time": 70.12267423333346,
                    "velocity": 0.2992125984251969,
                    "duration": 1.7783027166667296
                },
                {
                    "name": "D5",
                    "midi": 74,
                    "time": 70.5802216166668,
                    "velocity": 0.3464566929133858,
                    "duration": 0.04245285000000365
                },
                {
                    "name": "A4",
                    "midi": 69,
                    "time": 70.62267446666681,
                    "velocity": 0.2992125984251969,
                    "duration": 0.06603776666666761
                },
                {
                    "name": "B4",
                    "midi": 71,
                    "time": 70.62267446666681,
                    "velocity": 0.2677165354330709,
                    "duration": 0.06132078333332913
                },
                {
                    "name": "G5",
                    "midi": 79,
                    "time": 70.97173123333347,
                    "velocity": 0.5748031496062992,
                    "duration": 1.0235853833333692
                },
                {
                    "name": "G4",
                    "midi": 67,
                    "time": 70.99059916666681,
                    "velocity": 0.3464566929133858,
                    "duration": 0.24528313333335916
                },
                {
                    "name": "B4",
                    "midi": 71,
                    "time": 71.00003313333347,
                    "velocity": 0.3779527559055118,
                    "duration": 0.21226425000003246
                },
                {
                    "name": "D5",
                    "midi": 74,
                    "time": 71.00475011666681,
                    "velocity": 0.3937007874015748,
                    "duration": 0.19339631666669277
                },
                {
                    "name": "D5",
                    "midi": 74,
                    "time": 71.41984465000017,
                    "velocity": 0.3464566929133858,
                    "duration": 0.1367925166666879
                },
                {
                    "name": "G4",
                    "midi": 67,
                    "time": 71.42456163333351,
                    "velocity": 0.31496062992125984,
                    "duration": 0.12735855000001095
                },
                {
                    "name": "B4",
                    "midi": 71,
                    "time": 71.44342956666685,
                    "velocity": 0.2677165354330709,
                    "duration": 0.12264156666667247
                },
                {
                    "name": "D5",
                    "midi": 74,
                    "time": 71.81135426666685,
                    "velocity": 0.4015748031496063,
                    "duration": 0.0990566499999943
                },
                {
                    "name": "G4",
                    "midi": 67,
                    "time": 71.81135426666685,
                    "velocity": 0.29133858267716534,
                    "duration": 0.06132078333332913
                },
                {
                    "name": "F#5",
                    "midi": 78,
                    "time": 72.21229785000017,
                    "velocity": 0.5748031496062992,
                    "duration": 0.21226424999998983
                },
                {
                    "name": "D5",
                    "midi": 74,
                    "time": 72.2453167333335,
                    "velocity": 0.33858267716535434,
                    "duration": 0.06603776666666761
                },
                {
                    "name": "A4",
                    "midi": 69,
                    "time": 72.25003371666683,
                    "velocity": 0.5039370078740157,
                    "duration": 0.15566044999998496
                },
                {
                    "name": "B4",
                    "midi": 71,
                    "time": 72.25003371666683,
                    "velocity": 0.3700787401574803,
                    "duration": 0.10849061666665705
                },
                {
                    "name": "G5",
                    "midi": 79,
                    "time": 72.62267540000016,
                    "velocity": 0.5196850393700787,
                    "duration": 0.11792458333334821
                },
                {
                    "name": "G4",
                    "midi": 67,
                    "time": 72.6415433333335,
                    "velocity": 0.5275590551181102,
                    "duration": 0.14622648333333643
                },
                {
                    "name": "D5",
                    "midi": 74,
                    "time": 72.64626031666684,
                    "velocity": 0.4645669291338583,
                    "duration": 0.09433966666667004
                },
                {
                    "name": "B4",
                    "midi": 71,
                    "time": 72.64626031666684,
                    "velocity": 0.4409448818897638,
                    "duration": 0.08962268333333157
                },
                {
                    "name": "F#4",
                    "midi": 66,
                    "time": 73.05192088333351,
                    "velocity": 0.47244094488188976,
                    "duration": 0.15566044999999917
                },
                {
                    "name": "A5",
                    "midi": 81,
                    "time": 73.07078881666685,
                    "velocity": 0.5905511811023622,
                    "duration": 0.08018871666666882
                },
                {
                    "name": "B4",
                    "midi": 71,
                    "time": 73.08493976666685,
                    "velocity": 0.28346456692913385,
                    "duration": 0.11320759999999552
                },
                {
                    "name": "D5",
                    "midi": 74,
                    "time": 73.09437373333351,
                    "velocity": 0.3228346456692913,
                    "duration": 0.05660380000000487
                },
                {
                    "name": "D5",
                    "midi": 74,
                    "time": 73.58022301666684,
                    "velocity": 0.5590551181102362,
                    "duration": 0.6084908500000239
                },
                {
                    "name": "E4",
                    "midi": 64,
                    "time": 73.59909095000017,
                    "velocity": 0.3779527559055118,
                    "duration": 0.2358491666666822
                },
                {
                    "name": "G4",
                    "midi": 67,
                    "time": 73.60852491666684,
                    "velocity": 0.36220472440944884,
                    "duration": 0.221698216666681
                },
                {
                    "name": "B4",
                    "midi": 71,
                    "time": 73.6179588833335,
                    "velocity": 0.4094488188976378,
                    "duration": 0.21698123333335673
                },
                {
                    "name": "E2",
                    "midi": 40,
                    "time": 73.63682681666684,
                    "velocity": 0.2125984251968504,
                    "duration": 1.6084913166667292
                },
                {
                    "name": "E3",
                    "midi": 52,
                    "time": 73.6462607833335,
                    "velocity": 0.3543307086614173,
                    "duration": 1.5896233833334037
                },
                {
                    "name": "B4",
                    "midi": 71,
                    "time": 74.0094685000002,
                    "velocity": 0.33858267716535434,
                    "duration": 0.1839623500000016
                },
                {
                    "name": "E4",
                    "midi": 64,
                    "time": 74.01890246666686,
                    "velocity": 0.2755905511811024,
                    "duration": 0.12735854999999674
                },
                {
                    "name": "G4",
                    "midi": 67,
                    "time": 74.02833643333352,
                    "velocity": 0.2755905511811024,
                    "duration": 0.15566044999999917
                },
                {
                    "name": "C#5",
                    "midi": 73,
                    "time": 74.43871398333353,
                    "velocity": 0.5275590551181102,
                    "duration": 2.155661383333353
                },
                {
                    "name": "E4",
                    "midi": 64,
                    "time": 74.44814795000019,
                    "velocity": 0.3228346456692913,
                    "duration": 0.21226425000001825
                },
                {
                    "name": "G4",
                    "midi": 67,
                    "time": 74.46701588333353,
                    "velocity": 0.28346456692913385,
                    "duration": 0.19811330000001703
                },
                {
                    "name": "B4",
                    "midi": 71,
                    "time": 74.47173286666687,
                    "velocity": 0.4094488188976378,
                    "duration": 0.19339631666667856
                },
                {
                    "name": "E4",
                    "midi": 64,
                    "time": 74.85852550000023,
                    "velocity": 0.28346456692913385,
                    "duration": 0.1367925166666737
                },
                {
                    "name": "G4",
                    "midi": 67,
                    "time": 74.87739343333357,
                    "velocity": 0.25984251968503935,
                    "duration": 0.13207553333333522
                },
                {
                    "name": "B4",
                    "midi": 71,
                    "time": 74.87739343333357,
                    "velocity": 0.2440944881889764,
                    "duration": 0.14622648333333643
                },
                {
                    "name": "B4",
                    "midi": 71,
                    "time": 75.25475210000023,
                    "velocity": 0.30708661417322836,
                    "duration": 0.17924536666666313
                },
                {
                    "name": "E4",
                    "midi": 64,
                    "time": 75.25946908333357,
                    "velocity": 0.36220472440944884,
                    "duration": 0.12264156666665826
                },
                {
                    "name": "G4",
                    "midi": 67,
                    "time": 75.26890305000023,
                    "velocity": 0.33858267716535434,
                    "duration": 0.11320759999999552
                },
                {
                    "name": "E4",
                    "midi": 64,
                    "time": 75.66984663333356,
                    "velocity": 0.4330708661417323,
                    "duration": 0.24056614999999226
                },
                {
                    "name": "B4",
                    "midi": 71,
                    "time": 75.67928060000023,
                    "velocity": 0.33858267716535434,
                    "duration": 0.17924536666666313
                },
                {
                    "name": "G4",
                    "midi": 67,
                    "time": 75.68871456666689,
                    "velocity": 0.3543307086614173,
                    "duration": 0.11320759999999552
                },
                {
                    "name": "B4",
                    "midi": 71,
                    "time": 76.08965815000022,
                    "velocity": 0.2677165354330709,
                    "duration": 0.2028302833333271
                },
                {
                    "name": "G4",
                    "midi": 67,
                    "time": 76.11324306666688,
                    "velocity": 0.28346456692913385,
                    "duration": 0.1509434666666607
                },
                {
                    "name": "B3",
                    "midi": 59,
                    "time": 76.11324306666688,
                    "velocity": 0.30708661417322836,
                    "duration": 0.235849166666668
                },
                {
                    "name": "B4",
                    "midi": 71,
                    "time": 76.55192251666688,
                    "velocity": 0.36220472440944884,
                    "duration": 0.2169812333333283
                },
                {
                    "name": "G4",
                    "midi": 67,
                    "time": 76.56607346666688,
                    "velocity": 0.30708661417322836,
                    "duration": 0.17452838333332465
                },
                {
                    "name": "E4",
                    "midi": 64,
                    "time": 76.58494140000022,
                    "velocity": 0.31496062992125984,
                    "duration": 0.07075474999999187
                },
                {
                    "name": "D5",
                    "midi": 74,
                    "time": 77.12739448333355,
                    "velocity": 0.5984251968503937,
                    "duration": 0.42452849999999387
                },
                {
                    "name": "F#4",
                    "midi": 66,
                    "time": 77.13682845000021,
                    "velocity": 0.30708661417322836,
                    "duration": 0.20754726666666556
                },
                {
                    "name": "B4",
                    "midi": 71,
                    "time": 77.15097940000021,
                    "velocity": 0.4409448818897638,
                    "duration": 0.22169821666666678
                },
                {
                    "name": "G4",
                    "midi": 67,
                    "time": 77.15097940000021,
                    "velocity": 0.4094488188976378,
                    "duration": 0.19811330000000282
                },
                {
                    "name": "A2",
                    "midi": 45,
                    "time": 77.16041336666687,
                    "velocity": 0.3700787401574803,
                    "duration": 1.6603781333333387
                },
                {
                    "name": "A3",
                    "midi": 57,
                    "time": 77.16041336666687,
                    "velocity": 0.2204724409448819,
                    "duration": 1.735849866666669
                },
                {
                    "name": "F#4",
                    "midi": 66,
                    "time": 77.58022488333354,
                    "velocity": 0.29133858267716534,
                    "duration": 0.07547173333333035
                },
                {
                    "name": "B4",
                    "midi": 71,
                    "time": 77.6038098000002,
                    "velocity": 0.2283464566929134,
                    "duration": 0.0990566499999943
                },
                {
                    "name": "G4",
                    "midi": 67,
                    "time": 77.60852678333355,
                    "velocity": 0.25984251968503935,
                    "duration": 0.07075474999999187
                },
                {
                    "name": "E5",
                    "midi": 76,
                    "time": 77.9575835500002,
                    "velocity": 0.6062992125984252,
                    "duration": 1.0849061666666842
                },
                {
                    "name": "E4",
                    "midi": 64,
                    "time": 77.97645148333353,
                    "velocity": 0.3543307086614173,
                    "duration": 0.24056615000000647
                },
                {
                    "name": "B4",
                    "midi": 71,
                    "time": 77.97645148333353,
                    "velocity": 0.4645669291338583,
                    "duration": 0.22641520000000526
                },
                {
                    "name": "G4",
                    "midi": 67,
                    "time": 77.98116846666687,
                    "velocity": 0.33070866141732286,
                    "duration": 0.24056615000000647
                },
                {
                    "name": "G4",
                    "midi": 67,
                    "time": 78.38682903333354,
                    "velocity": 0.3700787401574803,
                    "duration": 0.14150950000001217
                },
                {
                    "name": "B4",
                    "midi": 71,
                    "time": 78.38682903333354,
                    "velocity": 0.4566929133858268,
                    "duration": 0.15566045000001338
                },
                {
                    "name": "E4",
                    "midi": 64,
                    "time": 78.38682903333354,
                    "velocity": 0.4094488188976378,
                    "duration": 0.1367925166666737
                },
                {
                    "name": "B4",
                    "midi": 71,
                    "time": 78.76890468333356,
                    "velocity": 0.3779527559055118,
                    "duration": 0.12264156666664405
                },
                {
                    "name": "E4",
                    "midi": 64,
                    "time": 78.77833865000022,
                    "velocity": 0.33070866141732286,
                    "duration": 0.08018871666665461
                },
                {
                    "name": "G4",
                    "midi": 67,
                    "time": 78.78777261666689,
                    "velocity": 0.2047244094488189,
                    "duration": 0.056603799999990656
                },
                {
                    "name": "D5",
                    "midi": 74,
                    "time": 79.16041430000021,
                    "velocity": 0.6141732283464567,
                    "duration": 0.24528313333333074
                },
                {
                    "name": "G4",
                    "midi": 67,
                    "time": 79.18871620000021,
                    "velocity": 0.4015748031496063,
                    "duration": 0.08962268333333157
                },
                {
                    "name": "B4",
                    "midi": 71,
                    "time": 79.18871620000021,
                    "velocity": 0.4251968503937008,
                    "duration": 0.10377363333333278
                },
                {
                    "name": "F#4",
                    "midi": 66,
                    "time": 79.18871620000021,
                    "velocity": 0.4330708661417323,
                    "duration": 0.20754726666666556
                },
                {
                    "name": "E5",
                    "midi": 76,
                    "time": 79.5707918500002,
                    "velocity": 0.6141732283464567,
                    "duration": 0.13207553333334943
                },
                {
                    "name": "B4",
                    "midi": 71,
                    "time": 79.59437676666687,
                    "velocity": 0.4881889763779528,
                    "duration": 0.20754726666669399
                },
                {
                    "name": "G4",
                    "midi": 67,
                    "time": 79.59909375000021,
                    "velocity": 0.3858267716535433,
                    "duration": 0.07547173333334456
                },
                {
                    "name": "E4",
                    "midi": 64,
                    "time": 79.60381073333355,
                    "velocity": 0.5039370078740157,
                    "duration": 0.14150950000001217
                },
                {
                    "name": "F#5",
                    "midi": 78,
                    "time": 79.98116940000023,
                    "velocity": 0.6377952755905512,
                    "duration": 0.11320760000000973
                },
                {
                    "name": "G4",
                    "midi": 67,
                    "time": 80.00947130000023,
                    "velocity": 0.4566929133858268,
                    "duration": 0.08018871666666882
                },
                {
                    "name": "D4",
                    "midi": 62,
                    "time": 80.02833923333357,
                    "velocity": 0.4881889763779528,
                    "duration": 0.08962268333333157
                },
                {
                    "name": "B4",
                    "midi": 71,
                    "time": 80.46701868333356,
                    "velocity": 0.5905511811023622,
                    "duration": 0.4622643666667017
                },
                {
                    "name": "C#4",
                    "midi": 61,
                    "time": 80.4717356666669,
                    "velocity": 0.3858267716535433,
                    "duration": 0.22641520000001947
                },
                {
                    "name": "G4",
                    "midi": 67,
                    "time": 80.5000375666669,
                    "velocity": 0.3543307086614173,
                    "duration": 0.2028302833333555
                },
                {
                    "name": "E4",
                    "midi": 64,
                    "time": 80.5141885166669,
                    "velocity": 0.33858267716535434,
                    "duration": 0.15566045000001338
                },
                {
                    "name": "C#4",
                    "midi": 61,
                    "time": 80.88683020000026,
                    "velocity": 0.29133858267716534,
                    "duration": 0.14622648333333643
                },
                {
                    "name": "G4",
                    "midi": 67,
                    "time": 80.9056981333336,
                    "velocity": 0.33858267716535434,
                    "duration": 0.14622648333333643
                },
                {
                    "name": "E4",
                    "midi": 64,
                    "time": 80.91513210000026,
                    "velocity": 0.3779527559055118,
                    "duration": 0.11320759999999552
                },
                {
                    "name": "C#4",
                    "midi": 61,
                    "time": 81.2877737833336,
                    "velocity": 0.33070866141732286,
                    "duration": 0.21226425000001825
                },
                {
                    "name": "A4",
                    "midi": 69,
                    "time": 81.2877737833336,
                    "velocity": 0.5748031496062992,
                    "duration": 0.5660380000000202
                },
                {
                    "name": "G4",
                    "midi": 67,
                    "time": 81.31135870000027,
                    "velocity": 0.4409448818897638,
                    "duration": 0.14622648333335064
                },
                {
                    "name": "E4",
                    "midi": 64,
                    "time": 81.31607568333361,
                    "velocity": 0.4015748031496063,
                    "duration": 0.12735855000001095
                },
                {
                    "name": "A2",
                    "midi": 45,
                    "time": 81.32079266666695,
                    "velocity": 0.2992125984251969,
                    "duration": 0.29716995000001134
                },
                {
                    "name": "A1",
                    "midi": 33,
                    "time": 81.32550965000028,
                    "velocity": 0.30708661417322836,
                    "duration": 0.3018869333333356
                },
                {
                    "name": "G4",
                    "midi": 67,
                    "time": 81.73588720000029,
                    "velocity": 0.4330708661417323,
                    "duration": 0.12264156666667247
                },
                {
                    "name": "E4",
                    "midi": 64,
                    "time": 81.75475513333363,
                    "velocity": 0.33070866141732286,
                    "duration": 0.05188681666666639
                },
                {
                    "name": "C#4",
                    "midi": 61,
                    "time": 81.75475513333363,
                    "velocity": 0.2440944881889764,
                    "duration": 0.16509441666666191
                },
                {
                    "name": "F#4",
                    "midi": 66,
                    "time": 82.17456665000029,
                    "velocity": 0.5275590551181102,
                    "duration": 0.42452849999999387
                },
                {
                    "name": "C#4",
                    "midi": 61,
                    "time": 82.18871760000029,
                    "velocity": 0.4330708661417323,
                    "duration": 0.23113218333332952
                },
                {
                    "name": "D4",
                    "midi": 62,
                    "time": 82.18871760000029,
                    "velocity": 0.47244094488188976,
                    "duration": 0.22169821666666678
                },
                {
                    "name": "D3",
                    "midi": 50,
                    "time": 82.20758553333363,
                    "velocity": 0.2677165354330709,
                    "duration": 1.3537742166666646
                },
                {
                    "name": "D2",
                    "midi": 38,
                    "time": 82.23117045000029,
                    "velocity": 0.2992125984251969,
                    "duration": 1.3915100833333298
                },
                {
                    "name": "F#4",
                    "midi": 66,
                    "time": 82.59909515000028,
                    "velocity": 0.31496062992125984,
                    "duration": 0.16509441666666191
                },
                {
                    "name": "C#4",
                    "midi": 61,
                    "time": 82.61796308333362,
                    "velocity": 0.2755905511811024,
                    "duration": 0.1509434666666607
                },
                {
                    "name": "D4",
                    "midi": 62,
                    "time": 82.62739705000028,
                    "velocity": 0.23622047244094488,
                    "duration": 0.11320759999999552
                },
                {
                    "name": "F#4",
                    "midi": 66,
                    "time": 83.02362365000027,
                    "velocity": 0.2992125984251969,
                    "duration": 0.17924536666667734
                },
                {
                    "name": "C#4",
                    "midi": 61,
                    "time": 83.03305761666694,
                    "velocity": 0.2755905511811024,
                    "duration": 0.1509434666666749
                },
                {
                    "name": "D4",
                    "midi": 62,
                    "time": 83.05192555000028,
                    "velocity": 0.25984251968503935,
                    "duration": 0.10849061666667126
                },
                {
                    "name": "F#4",
                    "midi": 66,
                    "time": 83.53777483333361,
                    "velocity": 0.2755905511811024,
                    "duration": 0.20754726666667977
                },
                {
                    "name": "C#4",
                    "midi": 61,
                    "time": 83.55664276666695,
                    "velocity": 0.23622047244094488,
                    "duration": 0.16037743333333765
                },
                {
                    "name": "D4",
                    "midi": 62,
                    "time": 83.5755107000003,
                    "velocity": 0.2125984251968504,
                    "duration": 0.11320759999999552
                },
                {
                    "name": "A4",
                    "midi": 69,
                    "time": 84.1556996500003,
                    "velocity": 0.5354330708661418,
                    "duration": 0.5283021333333693
                },
                {
                    "name": "C#4",
                    "midi": 61,
                    "time": 84.16513361666696,
                    "velocity": 0.2677165354330709,
                    "duration": 0.2688680500000231
                },
                {
                    "name": "F#4",
                    "midi": 66,
                    "time": 84.16513361666696,
                    "velocity": 0.33070866141732286,
                    "duration": 0.2735850333333616
                },
                {
                    "name": "D4",
                    "midi": 62,
                    "time": 84.1840015500003,
                    "velocity": 0.4409448818897638,
                    "duration": 0.24056615000002068
                },
                {
                    "name": "G2",
                    "midi": 43,
                    "time": 84.20286948333364,
                    "velocity": 0.2440944881889764,
                    "duration": 2.1179255166666735
                },
                {
                    "name": "G1",
                    "midi": 31,
                    "time": 84.23588836666697,
                    "velocity": 0.2283464566929134,
                    "duration": 2.0235858500000177
                },
                {
                    "name": "F#4",
                    "midi": 66,
                    "time": 84.65098290000033,
                    "velocity": 0.29133858267716534,
                    "duration": 0.14150949999999796
                },
                {
                    "name": "C#4",
                    "midi": 61,
                    "time": 84.674567816667,
                    "velocity": 0.25984251968503935,
                    "duration": 0.06132078333334334
                },
                {
                    "name": "D4",
                    "midi": 62,
                    "time": 84.67928480000033,
                    "velocity": 0.4015748031496063,
                    "duration": 0.10377363333333278
                },
                {
                    "name": "B4",
                    "midi": 71,
                    "time": 85.00947363333366,
                    "velocity": 0.5669291338582677,
                    "duration": 0.8254720833333522
                },
                {
                    "name": "F#4",
                    "midi": 66,
                    "time": 85.014190616667,
                    "velocity": 0.3858267716535433,
                    "duration": 0.2688680500000089
                },
                {
                    "name": "B3",
                    "midi": 59,
                    "time": 85.01890760000033,
                    "velocity": 0.3700787401574803,
                    "duration": 0.24528313333333074
                },
                {
                    "name": "D4",
                    "midi": 62,
                    "time": 85.01890760000033,
                    "velocity": 0.3543307086614173,
                    "duration": 0.2500001166666692
                },
                {
                    "name": "F#4",
                    "midi": 66,
                    "time": 85.43400213333366,
                    "velocity": 0.2755905511811024,
                    "duration": 0.19339631666667856
                },
                {
                    "name": "B3",
                    "midi": 59,
                    "time": 85.44343610000033,
                    "velocity": 0.33858267716535434,
                    "duration": 0.1367925166666737
                },
                {
                    "name": "D4",
                    "midi": 62,
                    "time": 85.45758705000033,
                    "velocity": 0.4015748031496063,
                    "duration": 0.12735855000001095
                },
                {
                    "name": "F#4",
                    "midi": 66,
                    "time": 85.83022873333367,
                    "velocity": 0.28346456692913385,
                    "duration": 0.1981132999999886
                },
                {
                    "name": "D4",
                    "midi": 62,
                    "time": 85.85853063333367,
                    "velocity": 0.4015748031496063,
                    "duration": 0.132075533333321
                },
                {
                    "name": "B3",
                    "midi": 59,
                    "time": 85.86796460000033,
                    "velocity": 0.2992125984251969,
                    "duration": 0.047169833333327915
                },
                {
                    "name": "C#4",
                    "midi": 61,
                    "time": 86.27362516666699,
                    "velocity": 0.3700787401574803,
                    "duration": 0.10377363333333278
                },
                {
                    "name": "A4",
                    "midi": 69,
                    "time": 86.27362516666699,
                    "velocity": 0.6299212598425197,
                    "duration": 0.13207553333333522
                },
                {
                    "name": "F#4",
                    "midi": 66,
                    "time": 86.28305913333365,
                    "velocity": 0.3779527559055118,
                    "duration": 0.17452838333333887
                },
                {
                    "name": "D4",
                    "midi": 62,
                    "time": 86.28305913333365,
                    "velocity": 0.5196850393700787,
                    "duration": 0.037735866666665174
                },
                {
                    "name": "B4",
                    "midi": 71,
                    "time": 86.73117255000032,
                    "velocity": 0.5905511811023622,
                    "duration": 0.20754726666667977
                },
                {
                    "name": "B3",
                    "midi": 59,
                    "time": 86.73588953333366,
                    "velocity": 0.2677165354330709,
                    "duration": 0.1367925166666737
                },
                {
                    "name": "F#4",
                    "midi": 66,
                    "time": 86.75947445000033,
                    "velocity": 0.3543307086614173,
                    "duration": 0.221698216666681
                },
                {
                    "name": "D4",
                    "midi": 62,
                    "time": 86.76419143333366,
                    "velocity": 0.28346456692913385,
                    "duration": 0.16037743333333765
                },
                {
                    "name": "B2",
                    "midi": 47,
                    "time": 86.77362540000033,
                    "velocity": 0.25984251968503935,
                    "duration": 0.6603776666666761
                },
                {
                    "name": "B1",
                    "midi": 35,
                    "time": 86.783059366667,
                    "velocity": 0.23622047244094488,
                    "duration": 0.5471700666666663
                },
                {
                    "name": "A3",
                    "midi": 57,
                    "time": 86.99532361666701,
                    "velocity": 0.3779527559055118,
                    "duration": 0.08962268333333157
                },
                {
                    "name": "D4",
                    "midi": 62,
                    "time": 87.08494630000034,
                    "velocity": 0.29133858267716534,
                    "duration": 0.10377363333333278
                },
                {
                    "name": "F#4",
                    "midi": 66,
                    "time": 87.13211613333367,
                    "velocity": 0.41732283464566927,
                    "duration": 0.10377363333333278
                },
                {
                    "name": "C#5",
                    "midi": 73,
                    "time": 87.25947468333366,
                    "velocity": 0.6535433070866141,
                    "duration": 0.0849057000000073
                },
                {
                    "name": "F#4",
                    "midi": 66,
                    "time": 87.78305983333367,
                    "velocity": 0.5590551181102362,
                    "duration": 0.5000002333333526
                },
                {
                    "name": "D4",
                    "midi": 62,
                    "time": 87.80664475000033,
                    "velocity": 0.4645669291338583,
                    "duration": 0.4905662666666899
                },
                {
                    "name": "G#3",
                    "midi": 56,
                    "time": 87.80664475000033,
                    "velocity": 0.3543307086614173,
                    "duration": 0.5660380000000202
                },
                {
                    "name": "C#4",
                    "midi": 61,
                    "time": 87.82079570000033,
                    "velocity": 0.25196850393700787,
                    "duration": 0.4716983333333502
                },
                {
                    "name": "B2",
                    "midi": 47,
                    "time": 87.844380616667,
                    "velocity": 0.2125984251968504,
                    "duration": 0.41509453333335955
                },
                {
                    "name": "E2",
                    "midi": 40,
                    "time": 87.84909760000033,
                    "velocity": 0.25196850393700787,
                    "duration": 0.38207565000001864
                },
                {
                    "name": "E4",
                    "midi": 64,
                    "time": 88.75947538333368,
                    "velocity": 0.5354330708661418,
                    "duration": 0.9245287333333465
                },
                {
                    "name": "C#4",
                    "midi": 61,
                    "time": 88.76890935000034,
                    "velocity": 0.36220472440944884,
                    "duration": 0.905660800000021
                },
                {
                    "name": "B3",
                    "midi": 59,
                    "time": 88.78777728333368,
                    "velocity": 0.41732283464566927,
                    "duration": 0.8160381166666753
                },
                {
                    "name": "G3",
                    "midi": 55,
                    "time": 88.79249426666702,
                    "velocity": 0.3779527559055118,
                    "duration": 0.7971701833333356
                },
                {
                    "name": "A2",
                    "midi": 45,
                    "time": 88.80664521666702,
                    "velocity": 0.31496062992125984,
                    "duration": 0.7122644833333283
                },
                {
                    "name": "E3",
                    "midi": 52,
                    "time": 88.81607918333368,
                    "velocity": 0.2283464566929134,
                    "duration": 0.7452833666666692
                },
                {
                    "name": "D4",
                    "midi": 62,
                    "time": 90.20758926666703,
                    "velocity": 0.5433070866141733,
                    "duration": 0.19811330000003124
                },
                {
                    "name": "F#3",
                    "midi": 54,
                    "time": 90.21702323333369,
                    "velocity": 0.36220472440944884,
                    "duration": 0.1226415666667009
                },
                {
                    "name": "B3",
                    "midi": 59,
                    "time": 90.24060815000037,
                    "velocity": 0.33858267716535434,
                    "duration": 0.05660380000000487
                },
                {
                    "name": "A3",
                    "midi": 57,
                    "time": 90.25004211666703,
                    "velocity": 0.2283464566929134,
                    "duration": 0.08018871666668304
                },
                {
                    "name": "D3",
                    "midi": 50,
                    "time": 90.25475910000037,
                    "velocity": 0.3700787401574803,
                    "duration": 0.15094346666668912
                },
                {
                    "name": "E4",
                    "midi": 64,
                    "time": 90.65098570000039,
                    "velocity": 0.5905511811023622,
                    "duration": 0.16037743333336607
                },
                {
                    "name": "C#4",
                    "midi": 61,
                    "time": 90.66985363333373,
                    "velocity": 0.4251968503937008,
                    "duration": 0.1698114000000288
                },
                {
                    "name": "E3",
                    "midi": 52,
                    "time": 90.6792876000004,
                    "velocity": 0.4015748031496063,
                    "duration": 0.08962268333334578
                },
                {
                    "name": "G3",
                    "midi": 55,
                    "time": 90.68400458333373,
                    "velocity": 0.33070866141732286,
                    "duration": 0.05660380000000487
                },
                {
                    "name": "A2",
                    "midi": 45,
                    "time": 90.68872156666707,
                    "velocity": 0.4330708661417323,
                    "duration": 0.10377363333334699
                },
                {
                    "name": "F#4",
                    "midi": 66,
                    "time": 91.10853308333375,
                    "velocity": 0.5275590551181102,
                    "duration": 0.22641519999999105
                },
                {
                    "name": "C#4",
                    "midi": 61,
                    "time": 91.13683498333376,
                    "velocity": 0.33070866141732286,
                    "duration": 0.14150949999998375
                },
                {
                    "name": "G#3",
                    "midi": 56,
                    "time": 91.13683498333376,
                    "velocity": 0.33858267716535434,
                    "duration": 0.21226424999998983
                },
                {
                    "name": "D4",
                    "midi": 62,
                    "time": 91.15098593333376,
                    "velocity": 0.4330708661417323,
                    "duration": 0.10849061666665705
                },
                {
                    "name": "E2",
                    "midi": 40,
                    "time": 91.16041990000042,
                    "velocity": 0.31496062992125984,
                    "duration": 0.11792458333331979
                },
                {
                    "name": "B2",
                    "midi": 47,
                    "time": 91.16041990000042,
                    "velocity": 0.25196850393700787,
                    "duration": 0.15566044999998496
                },
                {
                    "name": "E4",
                    "midi": 64,
                    "time": 91.65098616666708,
                    "velocity": 0.49606299212598426,
                    "duration": 0.5707549833333729
                },
                {
                    "name": "C#4",
                    "midi": 61,
                    "time": 91.66042013333374,
                    "velocity": 0.31496062992125984,
                    "duration": 0.5330191166667078
                },
                {
                    "name": "G3",
                    "midi": 55,
                    "time": 91.69343901666707,
                    "velocity": 0.25984251968503935,
                    "duration": 0.38207565000004706
                },
                {
                    "name": "B3",
                    "midi": 59,
                    "time": 91.70758996666707,
                    "velocity": 0.2204724409448819,
                    "duration": 0.24528313333337337
                },
                {
                    "name": "E3",
                    "midi": 52,
                    "time": 91.70758996666707,
                    "velocity": 0.2440944881889764,
                    "duration": 0.3396228000000434
                },
                {
                    "name": "A2",
                    "midi": 45,
                    "time": 91.72645790000041,
                    "velocity": 0.2677165354330709,
                    "duration": 0.28301900000003855
                },
                {
                    "name": "D4",
                    "midi": 62,
                    "time": 92.62268473333378,
                    "velocity": 0.3937007874015748,
                    "duration": 0.5330191166666935
                },
                {
                    "name": "A3",
                    "midi": 57,
                    "time": 92.63211870000045,
                    "velocity": 0.2677165354330709,
                    "duration": 0.4386794500000235
                },
                {
                    "name": "F#3",
                    "midi": 54,
                    "time": 92.64155266666711,
                    "velocity": 0.23622047244094488,
                    "duration": 0.4575473833333632
                },
                {
                    "name": "D3",
                    "midi": 50,
                    "time": 92.66513758333377,
                    "velocity": 0.2440944881889764,
                    "duration": 0.419811516666698
                },
                {
                    "name": "F#4",
                    "midi": 66,
                    "time": 93.62740218333381,
                    "velocity": 0.6062992125984252,
                    "duration": 0.4858492833333372
                },
                {
                    "name": "D4",
                    "midi": 62,
                    "time": 93.65570408333382,
                    "velocity": 0.5511811023622047,
                    "duration": 0.38207565000000443
                },
                {
                    "name": "G#3",
                    "midi": 56,
                    "time": 93.65570408333382,
                    "velocity": 0.4409448818897638,
                    "duration": 0.5047172166666627
                },
                {
                    "name": "B2",
                    "midi": 47,
                    "time": 93.66513805000048,
                    "velocity": 0.3464566929133858,
                    "duration": 0.3066039166666741
                },
                {
                    "name": "E2",
                    "midi": 40,
                    "time": 93.67457201666714,
                    "velocity": 0.33070866141732286,
                    "duration": 0.2830190000000101
                },
                {
                    "name": "E4",
                    "midi": 64,
                    "time": 94.66985550000048,
                    "velocity": 0.6220472440944882,
                    "duration": 1.0094344333333822
                },
                {
                    "name": "F#3",
                    "midi": 54,
                    "time": 94.68400645000048,
                    "velocity": 0.41732283464566927,
                    "duration": 0.759434316666713
                },
                {
                    "name": "C4",
                    "midi": 60,
                    "time": 94.68872343333382,
                    "velocity": 0.5196850393700787,
                    "duration": 0.9481136500000389
                },
                {
                    "name": "A2",
                    "midi": 45,
                    "time": 94.70759136666716,
                    "velocity": 0.4015748031496063,
                    "duration": 0.9056608000000352
                },
                {
                    "name": "D2",
                    "midi": 38,
                    "time": 94.7264593000005,
                    "velocity": 0.33858267716535434,
                    "duration": 0.9103777833333595
                },
                {
                    "name": "D4",
                    "midi": 62,
                    "time": 96.07079955000053,
                    "velocity": 0.5669291338582677,
                    "duration": 0.21698123333335673
                },
                {
                    "name": "E3",
                    "midi": 52,
                    "time": 96.07551653333387,
                    "velocity": 0.4094488188976378,
                    "duration": 0.09433966666667004
                },
                {
                    "name": "A#3",
                    "midi": 58,
                    "time": 96.08495050000055,
                    "velocity": 0.36220472440944884,
                    "duration": 0.25943408333334617
                },
                {
                    "name": "C2",
                    "midi": 36,
                    "time": 96.12268636666721,
                    "velocity": 0.33070866141732286,
                    "duration": 0.21698123333334252
                },
                {
                    "name": "G2",
                    "midi": 43,
                    "time": 96.13212033333387,
                    "velocity": 0.25196850393700787,
                    "duration": 0.17452838333335308
                },
                {
                    "name": "E4",
                    "midi": 64,
                    "time": 96.5707997833339,
                    "velocity": 0.6062992125984252,
                    "duration": 0.19811330000001703
                },
                {
                    "name": "F#3",
                    "midi": 54,
                    "time": 96.58023375000056,
                    "velocity": 0.3858267716535433,
                    "duration": 0.14622648333335064
                },
                {
                    "name": "C4",
                    "midi": 60,
                    "time": 96.58966771666722,
                    "velocity": 0.4881889763779528,
                    "duration": 0.12735855000002516
                },
                {
                    "name": "A2",
                    "midi": 45,
                    "time": 96.5991016833339,
                    "velocity": 0.31496062992125984,
                    "duration": 0.17452838333335308
                },
                {
                    "name": "D2",
                    "midi": 38,
                    "time": 96.61796961666724,
                    "velocity": 0.3228346456692913,
                    "duration": 0.17924536666667734
                },
                {
                    "name": "F#4",
                    "midi": 66,
                    "time": 97.03778113333392,
                    "velocity": 0.5669291338582677,
                    "duration": 0.18867933333334008
                },
                {
                    "name": "D4",
                    "midi": 62,
                    "time": 97.05664906666725,
                    "velocity": 0.4645669291338583,
                    "duration": 0.11792458333334821
                },
                {
                    "name": "G#3",
                    "midi": 56,
                    "time": 97.06136605000059,
                    "velocity": 0.3464566929133858,
                    "duration": 0.18396235000001582
                },
                {
                    "name": "E2",
                    "midi": 40,
                    "time": 97.08966795000059,
                    "velocity": 0.31496062992125984,
                    "duration": 0.10849061666667126
                },
                {
                    "name": "B2",
                    "midi": 47,
                    "time": 97.09438493333393,
                    "velocity": 0.2440944881889764,
                    "duration": 0.1367925166666737
                },
                {
                    "name": "E4",
                    "midi": 64,
                    "time": 97.5849512000006,
                    "velocity": 0.5826771653543307,
                    "duration": 1.141509966666689
                },
                {
                    "name": "F3",
                    "midi": 53,
                    "time": 97.60381913333394,
                    "velocity": 0.33070866141732286,
                    "duration": 0.3396228000000292
                },
                {
                    "name": "B3",
                    "midi": 59,
                    "time": 97.60381913333394,
                    "velocity": 0.4645669291338583,
                    "duration": 0.5943399000000227
                },
                {
                    "name": "G3",
                    "midi": 55,
                    "time": 97.60853611666728,
                    "velocity": 0.3543307086614173,
                    "duration": 0.221698216666681
                },
                {
                    "name": "D3",
                    "midi": 50,
                    "time": 97.63212103333395,
                    "velocity": 0.3228346456692913,
                    "duration": 1.297170416666674
                },
                {
                    "name": "G2",
                    "midi": 43,
                    "time": 97.65098896666728,
                    "velocity": 0.2677165354330709,
                    "duration": 0.8301890666666765
                },
                {
                    "name": "G#3",
                    "midi": 56,
                    "time": 98.21230998333397,
                    "velocity": 0.4015748031496063,
                    "duration": 0.3018869333333214
                },
                {
                    "name": "F#3",
                    "midi": 54,
                    "time": 98.21230998333397,
                    "velocity": 0.23622047244094488,
                    "duration": 0.3018869333333214
                },
                {
                    "name": "D4",
                    "midi": 62,
                    "time": 99.03778206666729,
                    "velocity": 0.4566929133858268,
                    "duration": 0.537736100000032
                },
                {
                    "name": "F#3",
                    "midi": 54,
                    "time": 99.04721603333395,
                    "velocity": 0.2047244094488189,
                    "duration": 0.5094342000000296
                },
                {
                    "name": "C4",
                    "midi": 60,
                    "time": 99.05665000000062,
                    "velocity": 0.3464566929133858,
                    "duration": 0.5188681666667065
                },
                {
                    "name": "A2",
                    "midi": 45,
                    "time": 99.08023491666728,
                    "velocity": 0.2440944881889764,
                    "duration": 0.4056605666666968
                },
                {
                    "name": "A3",
                    "midi": 57,
                    "time": 99.08495190000062,
                    "velocity": 0.2204724409448819,
                    "duration": 0.46698135000002594
                },
                {
                    "name": "D2",
                    "midi": 38,
                    "time": 99.08966888333396,
                    "velocity": 0.2677165354330709,
                    "duration": 0.37735866666668016
                },
                {
                    "name": "G2",
                    "midi": 43,
                    "time": 100.23589583333398,
                    "velocity": 0.3464566929133858,
                    "duration": 0.06603776666666761
                },
                {
                    "name": "D3",
                    "midi": 50,
                    "time": 100.35853740000066,
                    "velocity": 0.23622047244094488,
                    "duration": 0.037735866666665174
                },
                {
                    "name": "D4",
                    "midi": 62,
                    "time": 100.47174500000065,
                    "velocity": 0.4251968503937008,
                    "duration": 0.10849061666665705
                },
                {
                    "name": "B3",
                    "midi": 59,
                    "time": 100.47174500000065,
                    "velocity": 0.2047244094488189,
                    "duration": 0.08490569999999309
                },
                {
                    "name": "B4",
                    "midi": 71,
                    "time": 100.59438656666731,
                    "velocity": 0.48031496062992124,
                    "duration": 0.1509434666666607
                },
                {
                    "name": "G5",
                    "midi": 79,
                    "time": 100.76419796666731,
                    "velocity": 0.6220472440944882,
                    "duration": 0.41509453333333113
                },
                {
                    "name": "D5",
                    "midi": 74,
                    "time": 101.20759440000064,
                    "velocity": 0.4645669291338583,
                    "duration": 0.08018871666666882
                },
                {
                    "name": "B4",
                    "midi": 71,
                    "time": 101.55665116666731,
                    "velocity": 0.4251968503937008,
                    "duration": 0.353773750000002
                },
                {
                    "name": "D4",
                    "midi": 62,
                    "time": 101.56608513333397,
                    "velocity": 0.28346456692913385,
                    "duration": 0.14622648333333643
                },
                {
                    "name": "B3",
                    "midi": 59,
                    "time": 101.58023608333397,
                    "velocity": 0.25196850393700787,
                    "duration": 0.353773750000002
                },
                {
                    "name": "G4",
                    "midi": 67,
                    "time": 101.58967005000063,
                    "velocity": 0.29133858267716534,
                    "duration": 0.353773750000002
                },
                {
                    "name": "D5",
                    "midi": 74,
                    "time": 101.95759475000064,
                    "velocity": 0.49606299212598426,
                    "duration": 0.353773750000002
                },
                {
                    "name": "C2",
                    "midi": 36,
                    "time": 102.18872693333397,
                    "velocity": 0.3858267716535433,
                    "duration": 0.05660380000000487
                },
                {
                    "name": "G2",
                    "midi": 43,
                    "time": 102.23117978333397,
                    "velocity": 0.2440944881889764,
                    "duration": 0.10377363333333278
                },
                {
                    "name": "B4",
                    "midi": 71,
                    "time": 102.3491043666673,
                    "velocity": 0.41732283464566927,
                    "duration": 0.08018871666666882
                },
                {
                    "name": "E3",
                    "midi": 52,
                    "time": 102.38684023333397,
                    "velocity": 0.3464566929133858,
                    "duration": 0.09433966666667004
                },
                {
                    "name": "A5",
                    "midi": 81,
                    "time": 102.74533096666731,
                    "velocity": 0.6299212598425197,
                    "duration": 0.08018871666666882
                },
                {
                    "name": "A4",
                    "midi": 69,
                    "time": 102.75476493333397,
                    "velocity": 0.47244094488188976,
                    "duration": 0.08018871666666882
                },
                {
                    "name": "E4",
                    "midi": 64,
                    "time": 103.02363298333398,
                    "velocity": 0.3228346456692913,
                    "duration": 0.12735855000001095
                },
                {
                    "name": "B3",
                    "midi": 59,
                    "time": 103.05665186666731,
                    "velocity": 0.33070866141732286,
                    "duration": 0.2216982166666952
                },
                {
                    "name": "B4",
                    "midi": 71,
                    "time": 103.07551980000065,
                    "velocity": 0.3779527559055118,
                    "duration": 0.12735855000001095
                },
                {
                    "name": "F#5",
                    "midi": 78,
                    "time": 103.13212360000065,
                    "velocity": 0.6377952755905512,
                    "duration": 0.12735855000001095
                },
                {
                    "name": "G4",
                    "midi": 67,
                    "time": 103.17457645000066,
                    "velocity": 0.33858267716535434,
                    "duration": 0.08962268333334578
                },
                {
                    "name": "E5",
                    "midi": 76,
                    "time": 103.533067183334,
                    "velocity": 0.6062992125984252,
                    "duration": 0.117924583333334
                },
                {
                    "name": "D2",
                    "midi": 38,
                    "time": 103.85382205000066,
                    "velocity": 0.4251968503937008,
                    "duration": 0.037735866666679385
                },
                {
                    "name": "B3",
                    "midi": 59,
                    "time": 103.872689983334,
                    "velocity": 0.3464566929133858,
                    "duration": 0.06603776666668182
                },
                {
                    "name": "F#4",
                    "midi": 66,
                    "time": 103.91985981666734,
                    "velocity": 0.44881889763779526,
                    "duration": 0.0990566499999943
                },
                {
                    "name": "B2",
                    "midi": 47,
                    "time": 103.96231266666734,
                    "velocity": 0.23622047244094488,
                    "duration": 0.10849061666665705
                },
                {
                    "name": "D5",
                    "midi": 74,
                    "time": 104.01891646666733,
                    "velocity": 0.5511811023622047,
                    "duration": 0.3349058166666623
                },
                {
                    "name": "F#3",
                    "midi": 54,
                    "time": 104.05193535000066,
                    "velocity": 0.30708661417322836,
                    "duration": 0.05660380000000487
                },
                {
                    "name": "B4",
                    "midi": 71,
                    "time": 104.396275133334,
                    "velocity": 0.47244094488188976,
                    "duration": 0.11320759999999552
                },
                {
                    "name": "B3",
                    "midi": 59,
                    "time": 104.68401111666734,
                    "velocity": 0.31496062992125984,
                    "duration": 0.21226425000000404
                },
                {
                    "name": "E5",
                    "midi": 76,
                    "time": 104.76891681666733,
                    "velocity": 0.6377952755905512,
                    "duration": 0.12264156666667247
                },
                {
                    "name": "F#4",
                    "midi": 66,
                    "time": 104.78306776666733,
                    "velocity": 0.2755905511811024,
                    "duration": 0.11792458333334821
                },
                {
                    "name": "F#5",
                    "midi": 78,
                    "time": 105.16986040000067,
                    "velocity": 0.6220472440944882,
                    "duration": 0.18867933333332587
                },
                {
                    "name": "B4",
                    "midi": 71,
                    "time": 105.20759626666734,
                    "velocity": 0.3543307086614173,
                    "duration": 0.037735866666665174
                },
                {
                    "name": "E2",
                    "midi": 40,
                    "time": 105.45759638333399,
                    "velocity": 0.4015748031496063,
                    "duration": 0.08962268333334578
                },
                {
                    "name": "E4",
                    "midi": 64,
                    "time": 105.46703035000066,
                    "velocity": 0.4330708661417323,
                    "duration": 0.08490570000002151
                },
                {
                    "name": "B2",
                    "midi": 47,
                    "time": 105.48118130000066,
                    "velocity": 0.2677165354330709,
                    "duration": 0.13207553333334943
                },
                {
                    "name": "B4",
                    "midi": 71,
                    "time": 105.542502083334,
                    "velocity": 0.41732283464566927,
                    "duration": 0.0849057000000073
                },
                {
                    "name": "G3",
                    "midi": 55,
                    "time": 105.63212476666735,
                    "velocity": 0.4015748031496063,
                    "duration": 0.06603776666666761
                },
                {
                    "name": "F#5",
                    "midi": 78,
                    "time": 105.63684175000068,
                    "velocity": 0.5905511811023622,
                    "duration": 0.09433966666665583
                },
                {
                    "name": "E5",
                    "midi": 76,
                    "time": 106.051936283334,
                    "velocity": 0.5590551181102362,
                    "duration": 0.10849061666667126
                },
                {
                    "name": "B4",
                    "midi": 71,
                    "time": 106.07080421666734,
                    "velocity": 0.3858267716535433,
                    "duration": 0.047169833333327915
                },
                {
                    "name": "E5",
                    "midi": 76,
                    "time": 106.46231383333401,
                    "velocity": 0.5275590551181102,
                    "duration": 0.32547184999999956
                },
                {
                    "name": "E4",
                    "midi": 64,
                    "time": 106.46231383333401,
                    "velocity": 0.41732283464566927,
                    "duration": 0.32547184999999956
                },
                {
                    "name": "G4",
                    "midi": 67,
                    "time": 106.46231383333401,
                    "velocity": 0.31496062992125984,
                    "duration": 0.42452849999999387
                },
                {
                    "name": "B3",
                    "midi": 59,
                    "time": 106.50004970000067,
                    "velocity": 0.25196850393700787,
                    "duration": 0.0990566499999943
                },
                {
                    "name": "B4",
                    "midi": 71,
                    "time": 106.872691383334,
                    "velocity": 0.3228346456692913,
                    "duration": 0.05660380000000487
                },
                {
                    "name": "C3",
                    "midi": 48,
                    "time": 107.12740848333401,
                    "velocity": 0.4881889763779528,
                    "duration": 0.047169833333342126
                },
                {
                    "name": "G3",
                    "midi": 55,
                    "time": 107.17457831666735,
                    "velocity": 0.2677165354330709,
                    "duration": 0.06132078333332913
                },
                {
                    "name": "B5",
                    "midi": 83,
                    "time": 107.27363496666734,
                    "velocity": 0.6614173228346457,
                    "duration": 1.7500008166666845
                },
                {
                    "name": "B4",
                    "midi": 71,
                    "time": 107.28306893333401,
                    "velocity": 0.3700787401574803,
                    "duration": 0.2830189999999959
                },
                {
                    "name": "C5",
                    "midi": 72,
                    "time": 107.29250290000067,
                    "velocity": 0.47244094488188976,
                    "duration": 0.27358503333333317
                },
                {
                    "name": "E4",
                    "midi": 64,
                    "time": 107.30193686666733,
                    "velocity": 0.33858267716535434,
                    "duration": 0.10849061666667126
                },
                {
                    "name": "E5",
                    "midi": 76,
                    "time": 107.69816346666734,
                    "velocity": 0.47244094488188976,
                    "duration": 0.235849166666668
                },
                {
                    "name": "E4",
                    "midi": 64,
                    "time": 108.00476738333401,
                    "velocity": 0.2992125984251969,
                    "duration": 0.15566044999999917
                },
                {
                    "name": "E5",
                    "midi": 76,
                    "time": 108.08023911666734,
                    "velocity": 0.3937007874015748,
                    "duration": 0.07547173333333035
                },
                {
                    "name": "B4",
                    "midi": 71,
                    "time": 108.089673083334,
                    "velocity": 0.47244094488188976,
                    "duration": 0.34433978333333926
                },
                {
                    "name": "C5",
                    "midi": 72,
                    "time": 108.09910705000067,
                    "velocity": 0.2992125984251969,
                    "duration": 0.3160378833333368
                },
                {
                    "name": "E5",
                    "midi": 76,
                    "time": 108.45759778333401,
                    "velocity": 0.49606299212598426,
                    "duration": 0.6179248166666866
                },
                {
                    "name": "A2",
                    "midi": 45,
                    "time": 108.78306963333401,
                    "velocity": 0.3228346456692913,
                    "duration": 0.3018869333333498
                },
                {
                    "name": "E3",
                    "midi": 52,
                    "time": 108.80193756666735,
                    "velocity": 0.2992125984251969,
                    "duration": 0.3349058166666765
                },
                {
                    "name": "B4",
                    "midi": 71,
                    "time": 108.88684326666736,
                    "velocity": 0.4015748031496063,
                    "duration": 0.09905665000000852
                },
                {
                    "name": "C5",
                    "midi": 72,
                    "time": 108.8915602500007,
                    "velocity": 0.4015748031496063,
                    "duration": 0.09433966666667004
                },
                {
                    "name": "C4",
                    "midi": 60,
                    "time": 108.9198621500007,
                    "velocity": 0.4251968503937008,
                    "duration": 0.13679251666665948
                },
                {
                    "name": "C6",
                    "midi": 84,
                    "time": 109.29722081666736,
                    "velocity": 0.6535433070866141,
                    "duration": 0.0990566499999943
                },
                {
                    "name": "E5",
                    "midi": 76,
                    "time": 109.33023970000069,
                    "velocity": 0.4881889763779528,
                    "duration": 0.047169833333327915
                },
                {
                    "name": "C5",
                    "midi": 72,
                    "time": 109.33967366666735,
                    "velocity": 0.31496062992125984,
                    "duration": 0.04245285000000365
                },
                {
                    "name": "E4",
                    "midi": 64,
                    "time": 109.64627758333403,
                    "velocity": 0.1968503937007874,
                    "duration": 0.1698114000000146
                },
                {
                    "name": "A5",
                    "midi": 81,
                    "time": 109.71703233333403,
                    "velocity": 0.6456692913385826,
                    "duration": 0.15566044999999917
                },
                {
                    "name": "C5",
                    "midi": 72,
                    "time": 109.73118328333403,
                    "velocity": 0.3464566929133858,
                    "duration": 0.09433966666667004
                },
                {
                    "name": "G4",
                    "midi": 67,
                    "time": 109.75005121666737,
                    "velocity": 0.4094488188976378,
                    "duration": 0.25943408333333196
                },
                {
                    "name": "A4",
                    "midi": 69,
                    "time": 109.75476820000071,
                    "velocity": 0.4251968503937008,
                    "duration": 0.22641519999999105
                },
                {
                    "name": "G5",
                    "midi": 79,
                    "time": 110.11325893333404,
                    "velocity": 0.6456692913385826,
                    "duration": 0.08962268333333157
                },
                {
                    "name": "C5",
                    "midi": 72,
                    "time": 110.1368438500007,
                    "velocity": 0.5118110236220472,
                    "duration": 0.11320759999999552
                },
                {
                    "name": "B2",
                    "midi": 47,
                    "time": 110.38212698333403,
                    "velocity": 0.3700787401574803,
                    "duration": 0.3490567666666635
                },
                {
                    "name": "F#3",
                    "midi": 54,
                    "time": 110.51420251666737,
                    "velocity": 0.1732283464566929,
                    "duration": 0.29716995000001134
                },
                {
                    "name": "F#5",
                    "midi": 78,
                    "time": 110.53778743333403,
                    "velocity": 0.6062992125984252,
                    "duration": 0.3018869333333498
                },
                {
                    "name": "F#4",
                    "midi": 66,
                    "time": 110.5472214000007,
                    "velocity": 0.4251968503937008,
                    "duration": 0.18867933333334008
                },
                {
                    "name": "D4",
                    "midi": 62,
                    "time": 110.58495726666736,
                    "velocity": 0.3228346456692913,
                    "duration": 0.15566045000001338
                },
                {
                    "name": "D5",
                    "midi": 74,
                    "time": 110.93873101666738,
                    "velocity": 0.4015748031496063,
                    "duration": 0.14150949999999796
                },
                {
                    "name": "B4",
                    "midi": 71,
                    "time": 110.96231593333404,
                    "velocity": 0.1889763779527559,
                    "duration": 0.06132078333332913
                },
                {
                    "name": "G5",
                    "midi": 79,
                    "time": 111.31608968333404,
                    "velocity": 0.6456692913385826,
                    "duration": 0.117924583333334
                },
                {
                    "name": "G4",
                    "midi": 67,
                    "time": 111.3255236500007,
                    "velocity": 0.48031496062992124,
                    "duration": 0.06603776666666761
                },
                {
                    "name": "D4",
                    "midi": 62,
                    "time": 111.35854253333403,
                    "velocity": 0.2755905511811024,
                    "duration": 0.117924583333334
                },
                {
                    "name": "F#4",
                    "midi": 66,
                    "time": 111.37741046666737,
                    "velocity": 0.23622047244094488,
                    "duration": 0.12735854999999674
                },
                {
                    "name": "B4",
                    "midi": 71,
                    "time": 111.38684443333403,
                    "velocity": 0.2204724409448819,
                    "duration": 0.05660380000000487
                },
                {
                    "name": "A5",
                    "midi": 81,
                    "time": 111.7500521500007,
                    "velocity": 0.6456692913385826,
                    "duration": 0.3349058166666623
                },
                {
                    "name": "A4",
                    "midi": 69,
                    "time": 111.7500521500007,
                    "velocity": 0.4330708661417323,
                    "duration": 0.3349058166666623
                },
                {
                    "name": "D5",
                    "midi": 74,
                    "time": 111.76892008333404,
                    "velocity": 0.4566929133858268,
                    "duration": 0.06603776666666761
                },
                {
                    "name": "G2",
                    "midi": 43,
                    "time": 112.01892020000071,
                    "velocity": 0.3937007874015748,
                    "duration": 0.056603799999990656
                },
                {
                    "name": "D3",
                    "midi": 50,
                    "time": 112.0613730500007,
                    "velocity": 0.4015748031496063,
                    "duration": 0.07075474999999187
                },
                {
                    "name": "F#4",
                    "midi": 66,
                    "time": 112.17458065000069,
                    "velocity": 0.2047244094488189,
                    "duration": 0.08018871666668304
                },
                {
                    "name": "B3",
                    "midi": 59,
                    "time": 112.1887316000007,
                    "velocity": 0.2677165354330709,
                    "duration": 0.07547173333334456
                },
                {
                    "name": "B4",
                    "midi": 71,
                    "time": 112.19344858333403,
                    "velocity": 0.41732283464566927,
                    "duration": 0.04245285000000365
                },
                {
                    "name": "B5",
                    "midi": 83,
                    "time": 112.56609026666737,
                    "velocity": 0.5826771653543307,
                    "duration": 0.09433966666665583
                },
                {
                    "name": "B4",
                    "midi": 71,
                    "time": 112.57552423333404,
                    "velocity": 0.4566929133858268,
                    "duration": 0.0990566499999943
                },
                {
                    "name": "G5",
                    "midi": 79,
                    "time": 112.95759988333403,
                    "velocity": 0.6456692913385826,
                    "duration": 0.2735850333333616
                },
                {
                    "name": "G4",
                    "midi": 67,
                    "time": 112.97646781666737,
                    "velocity": 0.33858267716535434,
                    "duration": 0.42924548333336077
                },
                {
                    "name": "D4",
                    "midi": 62,
                    "time": 112.9953357500007,
                    "velocity": 0.31496062992125984,
                    "duration": 0.08962268333334578
                },
                {
                    "name": "B4",
                    "midi": 71,
                    "time": 112.9953357500007,
                    "velocity": 0.25984251968503935,
                    "duration": 0.0849057000000073
                },
                {
                    "name": "F#4",
                    "midi": 66,
                    "time": 113.01420368333405,
                    "velocity": 0.2440944881889764,
                    "duration": 0.10849061666667126
                },
                {
                    "name": "F#5",
                    "midi": 78,
                    "time": 113.33967553333406,
                    "velocity": 0.5748031496062992,
                    "duration": 0.0990566499999943
                },
                {
                    "name": "D5",
                    "midi": 74,
                    "time": 113.36797743333406,
                    "velocity": 0.30708661417322836,
                    "duration": 0.0330188833333267
                },
                {
                    "name": "A2",
                    "midi": 45,
                    "time": 113.60382660000072,
                    "velocity": 0.41732283464566927,
                    "duration": 0.4056605666666826
                },
                {
                    "name": "E3",
                    "midi": 52,
                    "time": 113.65099643333404,
                    "velocity": 0.33858267716535434,
                    "duration": 0.4245285000000223
                },
                {
                    "name": "E5",
                    "midi": 76,
                    "time": 113.77835498333405,
                    "velocity": 0.5748031496062992,
                    "duration": 0.47641531666667447
                },
                {
                    "name": "E4",
                    "midi": 64,
                    "time": 113.78778895000073,
                    "velocity": 0.4409448818897638,
                    "duration": 0.19339631666666435
                },
                {
                    "name": "B4",
                    "midi": 71,
                    "time": 113.80193990000073,
                    "velocity": 0.30708661417322836,
                    "duration": 0.11320759999999552
                },
                {
                    "name": "C4",
                    "midi": 60,
                    "time": 113.8113738666674,
                    "velocity": 0.4015748031496063,
                    "duration": 0.18867933333334008
                },
                {
                    "name": "C5",
                    "midi": 72,
                    "time": 114.22646840000073,
                    "velocity": 0.47244094488188976,
                    "duration": 0.08962268333333157
                },
                {
                    "name": "C4",
                    "midi": 60,
                    "time": 114.45288360000073,
                    "velocity": 0.29133858267716534,
                    "duration": 0.1698114000000004
                },
                {
                    "name": "E4",
                    "midi": 64,
                    "time": 114.5189213666674,
                    "velocity": 0.25984251968503935,
                    "duration": 0.1509434666666749
                },
                {
                    "name": "A4",
                    "midi": 69,
                    "time": 114.56609120000073,
                    "velocity": 0.4409448818897638,
                    "duration": 0.0849057000000073
                },
                {
                    "name": "F#5",
                    "midi": 78,
                    "time": 114.58967611666739,
                    "velocity": 0.5984251968503937,
                    "duration": 0.21698123333335673
                },
                {
                    "name": "F#4",
                    "midi": 66,
                    "time": 114.60854405000073,
                    "velocity": 0.4094488188976378,
                    "duration": 0.07547173333334456
                },
                {
                    "name": "G5",
                    "midi": 79,
                    "time": 115.01892160000075,
                    "velocity": 0.6220472440944882,
                    "duration": 0.16509441666667612
                },
                {
                    "name": "C5",
                    "midi": 72,
                    "time": 115.03307255000075,
                    "velocity": 0.4409448818897638,
                    "duration": 0.12735855000001095
                },
                {
                    "name": "G4",
                    "midi": 67,
                    "time": 115.03778953333409,
                    "velocity": 0.28346456692913385,
                    "duration": 0.2028302833333413
                },
                {
                    "name": "F#2",
                    "midi": 42,
                    "time": 115.3632613833341,
                    "velocity": 0.3700787401574803,
                    "duration": 0.11320759999999552
                },
                {
                    "name": "C3",
                    "midi": 48,
                    "time": 115.41514820000077,
                    "velocity": 0.4094488188976378,
                    "duration": 0.04245285000000365
                },
                {
                    "name": "A4",
                    "midi": 69,
                    "time": 115.45760105000078,
                    "velocity": 0.4645669291338583,
                    "duration": 0.08018871666666882
                },
                {
                    "name": "E4",
                    "midi": 64,
                    "time": 115.46703501666744,
                    "velocity": 0.33858267716535434,
                    "duration": 0.037735866666665174
                },
                {
                    "name": "A3",
                    "midi": 57,
                    "time": 115.53778976666744,
                    "velocity": 0.2992125984251969,
                    "duration": 0.08962268333333157
                },
                {
                    "name": "A5",
                    "midi": 81,
                    "time": 115.86797860000078,
                    "velocity": 0.6062992125984252,
                    "duration": 0.10377363333334699
                },
                {
                    "name": "A4",
                    "midi": 69,
                    "time": 115.87269558333412,
                    "velocity": 0.5039370078740157,
                    "duration": 0.09433966666667004
                },
                {
                    "name": "C4",
                    "midi": 60,
                    "time": 116.16043156666747,
                    "velocity": 0.3700787401574803,
                    "duration": 0.1839623499999874
                },
                {
                    "name": "E4",
                    "midi": 64,
                    "time": 116.2076014000008,
                    "velocity": 0.3464566929133858,
                    "duration": 0.15566044999998496
                },
                {
                    "name": "F#5",
                    "midi": 78,
                    "time": 116.28307313333413,
                    "velocity": 0.5590551181102362,
                    "duration": 0.14150949999998375
                },
                {
                    "name": "A4",
                    "midi": 69,
                    "time": 116.29250710000079,
                    "velocity": 0.4015748031496063,
                    "duration": 0.08962268333333157
                },
                {
                    "name": "F#4",
                    "midi": 66,
                    "time": 116.32552598333412,
                    "velocity": 0.30708661417322836,
                    "duration": 0.04245285000000365
                },
                {
                    "name": "C5",
                    "midi": 72,
                    "time": 116.35382788333412,
                    "velocity": 0.29133858267716534,
                    "duration": 0.037735866666665174
                },
                {
                    "name": "E5",
                    "midi": 76,
                    "time": 116.71703560000078,
                    "velocity": 0.5511811023622047,
                    "duration": 0.1367925166666737
                },
                {
                    "name": "C5",
                    "midi": 72,
                    "time": 116.73590353333412,
                    "velocity": 0.4015748031496063,
                    "duration": 0.117924583333334
                },
                {
                    "name": "B2",
                    "midi": 47,
                    "time": 117.07080935000079,
                    "velocity": 0.4251968503937008,
                    "duration": 0.09433966666665583
                },
                {
                    "name": "F#3",
                    "midi": 54,
                    "time": 117.15571505000078,
                    "velocity": 0.3543307086614173,
                    "duration": 0.10849061666667126
                },
                {
                    "name": "F#5",
                    "midi": 78,
                    "time": 117.20760186666745,
                    "velocity": 0.5433070866141733,
                    "duration": 0.10849061666667126
                },
                {
                    "name": "B4",
                    "midi": 71,
                    "time": 117.20760186666745,
                    "velocity": 0.4094488188976378,
                    "duration": 0.10849061666667126
                },
                {
                    "name": "F#4",
                    "midi": 66,
                    "time": 117.24062075000079,
                    "velocity": 0.25196850393700787,
                    "duration": 0.11320759999999552
                },
                {
                    "name": "D4",
                    "midi": 62,
                    "time": 117.28779058333411,
                    "velocity": 0.2440944881889764,
                    "duration": 0.06132078333332913
                },
                {
                    "name": "D5",
                    "midi": 74,
                    "time": 117.62741338333412,
                    "velocity": 0.41732283464566927,
                    "duration": 0.24528313333333074
                },
                {
                    "name": "F#4",
                    "midi": 66,
                    "time": 117.99533808333412,
                    "velocity": 0.2992125984251969,
                    "duration": 0.18867933333334008
                },
                {
                    "name": "D4",
                    "midi": 62,
                    "time": 117.99533808333412,
                    "velocity": 0.2992125984251969,
                    "duration": 0.18867933333334008
                },
                {
                    "name": "B4",
                    "midi": 71,
                    "time": 118.04722490000078,
                    "velocity": 0.2440944881889764,
                    "duration": 0.39622660000000565
                },
                {
                    "name": "D5",
                    "midi": 74,
                    "time": 118.40571563333413,
                    "velocity": 0.3858267716535433,
                    "duration": 0.3207548666666611
                },
                {
                    "name": "C5",
                    "midi": 72,
                    "time": 118.85854603333412,
                    "velocity": 0.36220472440944884,
                    "duration": 0.11320760000000973
                },
                {
                    "name": "A4",
                    "midi": 69,
                    "time": 118.86798000000078,
                    "velocity": 0.28346456692913385,
                    "duration": 0.09905665000000852
                },
                {
                    "name": "F#2",
                    "midi": 42,
                    "time": 118.87269698333412,
                    "velocity": 0.31496062992125984,
                    "duration": 0.2169812333333283
                },
                {
                    "name": "E4",
                    "midi": 64,
                    "time": 118.88213095000079,
                    "velocity": 0.25984251968503935,
                    "duration": 0.13207553333333522
                },
                {
                    "name": "A4",
                    "midi": 69,
                    "time": 119.33024436666746,
                    "velocity": 0.5039370078740157,
                    "duration": 0.19811330000000282
                },
                {
                    "name": "E4",
                    "midi": 64,
                    "time": 119.34439531666746,
                    "velocity": 0.3543307086614173,
                    "duration": 0.10377363333333278
                },
                {
                    "name": "C4",
                    "midi": 60,
                    "time": 119.3632632500008,
                    "velocity": 0.30708661417322836,
                    "duration": 0.12264156666665826
                },
                {
                    "name": "F#4",
                    "midi": 66,
                    "time": 119.73590493333413,
                    "velocity": 0.5039370078740157,
                    "duration": 0.14622648333336485
                },
                {
                    "name": "D4",
                    "midi": 62,
                    "time": 119.75477286666747,
                    "velocity": 0.3858267716535433,
                    "duration": 0.07547173333334456
                },
                {
                    "name": "B3",
                    "midi": 59,
                    "time": 119.76892381666747,
                    "velocity": 0.2992125984251969,
                    "duration": 0.0849057000000073
                },
                {
                    "name": "B2",
                    "midi": 47,
                    "time": 119.7877917500008,
                    "velocity": 0.3464566929133858,
                    "duration": 0.13207553333334943
                },
                {
                    "name": "E4",
                    "midi": 64,
                    "time": 120.15099946666749,
                    "velocity": 0.5433070866141733,
                    "duration": 0.2547170999999935
                },
                {
                    "name": "F#3",
                    "midi": 54,
                    "time": 120.16043343333415,
                    "velocity": 0.2047244094488189,
                    "duration": 0.14622648333333643
                },
                {
                    "name": "C4",
                    "midi": 60,
                    "time": 120.18873533333415,
                    "velocity": 0.2755905511811024,
                    "duration": 0.05188681666666639
                },
                {
                    "name": "D3",
                    "midi": 50,
                    "time": 120.20760326666749,
                    "velocity": 0.2677165354330709,
                    "duration": 0.34433978333332504
                },
                {
                    "name": "F#4",
                    "midi": 66,
                    "time": 120.66043366666749,
                    "velocity": 0.48031496062992124,
                    "duration": 0.39622660000000565
                },
                {
                    "name": "D4",
                    "midi": 62,
                    "time": 120.69345255000081,
                    "velocity": 0.3858267716535433,
                    "duration": 0.29245296666667286
                },
                {
                    "name": "B3",
                    "midi": 59,
                    "time": 120.70288651666748,
                    "velocity": 0.30708661417322836,
                    "duration": 0.26415106666667043
                },
                {
                    "name": "B2",
                    "midi": 47,
                    "time": 120.72647143333414,
                    "velocity": 0.14960629921259844,
                    "duration": 1.7358498666666833
                },
                {
                    "name": "B5",
                    "midi": 83,
                    "time": 121.52364161666749,
                    "velocity": 0.49606299212598426,
                    "duration": 0.9386796833333335
                },
                {
                    "name": "B4",
                    "midi": 71,
                    "time": 121.53307558333415,
                    "velocity": 0.3464566929133858,
                    "duration": 1.1037741000000096
                },
                {
                    "name": "B1",
                    "midi": 35,
                    "time": 122.24062308333416,
                    "velocity": 0.2440944881889764,
                    "duration": 0.21226425000000404
                },
                {
                    "name": "B5",
                    "midi": 83,
                    "time": 123.00477438333417,
                    "velocity": 0.4566929133858268,
                    "duration": 0.5943398999999943
                },
                {
                    "name": "B4",
                    "midi": 71,
                    "time": 123.01420835000083,
                    "velocity": 0.3464566929133858,
                    "duration": 0.5943398999999943
                },
                {
                    "name": "B3",
                    "midi": 59,
                    "time": 123.49062366666749,
                    "velocity": 0.3543307086614173,
                    "duration": 0.14150949999999796
                },
                {
                    "name": "C4",
                    "midi": 60,
                    "time": 123.60854825000082,
                    "velocity": 0.28346456692913385,
                    "duration": 0.17452838333333887
                },
                {
                    "name": "E4",
                    "midi": 64,
                    "time": 123.66515205000081,
                    "velocity": 0.3228346456692913,
                    "duration": 0.09433966666667004
                },
                {
                    "name": "G4",
                    "midi": 67,
                    "time": 123.72175585000082,
                    "velocity": 0.4251968503937008,
                    "duration": 0.05660380000000487
                },
                {
                    "name": "B4",
                    "midi": 71,
                    "time": 123.81137853333416,
                    "velocity": 0.4330708661417323,
                    "duration": 0.7783022500000243
                },
                {
                    "name": "C5",
                    "midi": 72,
                    "time": 123.9151521666675,
                    "velocity": 0.4566929133858268,
                    "duration": 0.5188681666666923
                },
                {
                    "name": "E5",
                    "midi": 76,
                    "time": 123.96703898333416,
                    "velocity": 0.5196850393700787,
                    "duration": 0.42924548333336077
                },
                {
                    "name": "E3",
                    "midi": 52,
                    "time": 124.18873720000084,
                    "velocity": 0.1889763779527559,
                    "duration": 0.18867933333334008
                },
                {
                    "name": "A2",
                    "midi": 45,
                    "time": 124.22175608333418,
                    "velocity": 0.25984251968503935,
                    "duration": 0.03301888333334091
                },
                {
                    "name": "B5",
                    "midi": 83,
                    "time": 124.22647306666752,
                    "velocity": 0.6141732283464567,
                    "duration": 1.5896233833333469
                },
                {
                    "name": "B3",
                    "midi": 59,
                    "time": 124.29251083333419,
                    "velocity": 0.3543307086614173,
                    "duration": 0.10849061666667126
                },
                {
                    "name": "E5",
                    "midi": 76,
                    "time": 124.70760536666752,
                    "velocity": 0.4015748031496063,
                    "duration": 0.3490567666666635
                },
                {
                    "name": "C5",
                    "midi": 72,
                    "time": 124.72647330000086,
                    "velocity": 0.33858267716535434,
                    "duration": 0.2830189999999959
                },
                {
                    "name": "E4",
                    "midi": 64,
                    "time": 125.05666213333419,
                    "velocity": 0.2755905511811024,
                    "duration": 0.8254720833333664
                },
                {
                    "name": "B4",
                    "midi": 71,
                    "time": 125.05666213333419,
                    "velocity": 0.3464566929133858,
                    "duration": 0.34905676666667773
                },
                {
                    "name": "C4",
                    "midi": 60,
                    "time": 125.06137911666752,
                    "velocity": 0.2755905511811024,
                    "duration": 0.6792456000000158
                },
                {
                    "name": "E5",
                    "midi": 76,
                    "time": 125.42930381666753,
                    "velocity": 0.33858267716535434,
                    "duration": 0.5047172166666911
                },
                {
                    "name": "C5",
                    "midi": 72,
                    "time": 125.44817175000087,
                    "velocity": 0.33070866141732286,
                    "duration": 0.43396246666668503
                },
                {
                    "name": "B4",
                    "midi": 71,
                    "time": 125.82081343333421,
                    "velocity": 0.3543307086614173,
                    "duration": 0.08018871666668304
                },
                {
                    "name": "B3",
                    "midi": 59,
                    "time": 125.83968136666755,
                    "velocity": 0.25196850393700787,
                    "duration": 0.10849061666667126
                },
                {
                    "name": "A5",
                    "midi": 81,
                    "time": 126.24534193333422,
                    "velocity": 0.6535433070866141,
                    "duration": 0.13207553333333522
                },
                {
                    "name": "A4",
                    "midi": 69,
                    "time": 126.25477590000088,
                    "velocity": 0.4566929133858268,
                    "duration": 0.05660380000000487
                },
                {
                    "name": "C5",
                    "midi": 72,
                    "time": 126.26892685000088,
                    "velocity": 0.3937007874015748,
                    "duration": 0.04245285000000365
                },
                {
                    "name": "E5",
                    "midi": 76,
                    "time": 126.27836081666754,
                    "velocity": 0.3937007874015748,
                    "duration": 0.047169833333342126
                },
                {
                    "name": "E4",
                    "midi": 64,
                    "time": 126.30194573333421,
                    "velocity": 0.1732283464566929,
                    "duration": 0.29716995000001134
                },
                {
                    "name": "A3",
                    "midi": 57,
                    "time": 126.30666271666755,
                    "velocity": 0.30708661417322836,
                    "duration": 0.19339631666667856
                },
                {
                    "name": "G4",
                    "midi": 67,
                    "time": 126.32081366666755,
                    "velocity": 0.1889763779527559,
                    "duration": 0.33018883333333804
                },
                {
                    "name": "D6",
                    "midi": 86,
                    "time": 126.66515345000089,
                    "velocity": 0.6692913385826772,
                    "duration": 0.08962268333333157
                },
                {
                    "name": "D5",
                    "midi": 74,
                    "time": 126.67458741666755,
                    "velocity": 0.5669291338582677,
                    "duration": 0.08962268333333157
                },
                {
                    "name": "D4",
                    "midi": 62,
                    "time": 126.70288931666755,
                    "velocity": 0.3700787401574803,
                    "duration": 0.117924583333334
                },
                {
                    "name": "B5",
                    "midi": 83,
                    "time": 127.01892720000089,
                    "velocity": 0.6456692913385826,
                    "duration": 0.2028302833333413
                },
                {
                    "name": "B4",
                    "midi": 71,
                    "time": 127.04251211666755,
                    "velocity": 0.3543307086614173,
                    "duration": 0.16509441666667612
                },
                {
                    "name": "E5",
                    "midi": 76,
                    "time": 127.06138005000089,
                    "velocity": 0.3779527559055118,
                    "duration": 0.09433966666667004
                },
                {
                    "name": "C5",
                    "midi": 72,
                    "time": 127.06609703333423,
                    "velocity": 0.1889763779527559,
                    "duration": 0.06132078333332913
                },
                {
                    "name": "G4",
                    "midi": 67,
                    "time": 127.0755310000009,
                    "velocity": 0.28346456692913385,
                    "duration": 0.13207553333333522
                },
                {
                    "name": "E4",
                    "midi": 64,
                    "time": 127.08024798333423,
                    "velocity": 0.2125984251968504,
                    "duration": 0.1509434666666607
                },
                {
                    "name": "B3",
                    "midi": 59,
                    "time": 127.0896819500009,
                    "velocity": 0.1889763779527559,
                    "duration": 0.15566044999999917
                },
                {
                    "name": "B5",
                    "midi": 83,
                    "time": 127.4151538000009,
                    "velocity": 0.7086614173228346,
                    "duration": 0.10849061666668547
                },
                {
                    "name": "B4",
                    "midi": 71,
                    "time": 127.43402173333423,
                    "velocity": 0.5118110236220472,
                    "duration": 0.10849061666668547
                },
                {
                    "name": "E5",
                    "midi": 76,
                    "time": 127.4434557000009,
                    "velocity": 0.4881889763779528,
                    "duration": 0.05660380000001908
                },
                {
                    "name": "B3",
                    "midi": 59,
                    "time": 127.4434557000009,
                    "velocity": 0.3464566929133858,
                    "duration": 0.08018871666668304
                },
                {
                    "name": "G4",
                    "midi": 67,
                    "time": 127.44817268333423,
                    "velocity": 0.29133858267716534,
                    "duration": 0.04245285000000365
                },
                {
                    "name": "E4",
                    "midi": 64,
                    "time": 127.4576066500009,
                    "velocity": 0.31496062992125984,
                    "duration": 0.037735866666679385
                },
                {
                    "name": "C5",
                    "midi": 72,
                    "time": 127.4717576000009,
                    "velocity": 0.16535433070866143,
                    "duration": 0.028301900000016644
                },
                {
                    "name": "E4",
                    "midi": 64,
                    "time": 127.87270118333426,
                    "velocity": 0.49606299212598426,
                    "duration": 0.0849057000000073
                },
                {
                    "name": "F#3",
                    "midi": 54,
                    "time": 127.87270118333426,
                    "velocity": 0.3700787401574803,
                    "duration": 0.04245285000000365
                },
                {
                    "name": "D2",
                    "midi": 38,
                    "time": 127.8774181666676,
                    "velocity": 0.3779527559055118,
                    "duration": 0.08962268333334578
                },
                {
                    "name": "C4",
                    "midi": 60,
                    "time": 127.88213515000093,
                    "velocity": 0.4330708661417323,
                    "duration": 0.0330188833333267
                },
                {
                    "name": "A2",
                    "midi": 45,
                    "time": 127.9198710166676,
                    "velocity": 0.2677165354330709,
                    "duration": 0.04245285000000365
                },
                {
                    "name": "A5",
                    "midi": 81,
                    "time": 128.26421080000094,
                    "velocity": 0.6614173228346457,
                    "duration": 0.4811322999999845
                },
                {
                    "name": "A4",
                    "midi": 69,
                    "time": 128.28307873333426,
                    "velocity": 0.4881889763779528,
                    "duration": 0.509434199999987
                },
                {
                    "name": "F#3",
                    "midi": 54,
                    "time": 128.29722968333425,
                    "velocity": 0.36220472440944884,
                    "duration": 0.5235851500000024
                },
                {
                    "name": "C5",
                    "midi": 72,
                    "time": 128.6698713666676,
                    "velocity": 0.3700787401574803,
                    "duration": 0.3537737499999878
                },
                {
                    "name": "E5",
                    "midi": 76,
                    "time": 128.67458835000093,
                    "velocity": 0.4330708661417323,
                    "duration": 0.537736099999961
                },
                {
                    "name": "E4",
                    "midi": 64,
                    "time": 128.68873930000092,
                    "velocity": 0.3543307086614173,
                    "duration": 0.4386794499999951
                },
                {
                    "name": "C4",
                    "midi": 60,
                    "time": 128.6981732666676,
                    "velocity": 0.3228346456692913,
                    "duration": 0.25943408333333196
                },
                {
                    "name": "G5",
                    "midi": 79,
                    "time": 129.02364511666758,
                    "velocity": 0.6220472440944882,
                    "duration": 0.3537737499999878
                },
                {
                    "name": "G4",
                    "midi": 67,
                    "time": 129.03779606666757,
                    "velocity": 0.3779527559055118,
                    "duration": 0.33018883333332383
                },
                {
                    "name": "B3",
                    "midi": 59,
                    "time": 129.06609796666757,
                    "velocity": 0.1889763779527559,
                    "duration": 0.3349058166666623
                },
                {
                    "name": "E5",
                    "midi": 76,
                    "time": 129.45760758333424,
                    "velocity": 0.2992125984251969,
                    "duration": 0.3773586666666233
                },
                {
                    "name": "C4",
                    "midi": 60,
                    "time": 129.47647551666756,
                    "velocity": 0.2204724409448819,
                    "duration": 0.250000116666655
                },
                {
                    "name": "E4",
                    "midi": 64,
                    "time": 129.47647551666756,
                    "velocity": 0.1968503937007874,
                    "duration": 0.29245296666664444
                },
                {
                    "name": "C5",
                    "midi": 72,
                    "time": 129.4953434500009,
                    "velocity": 0.2047244094488189,
                    "duration": 0.2028302833333271
                },
                {
                    "name": "A5",
                    "midi": 81,
                    "time": 129.78779641666753,
                    "velocity": 0.5590551181102362,
                    "duration": 0.5330191166666793
                },
                {
                    "name": "A4",
                    "midi": 69,
                    "time": 129.80194736666752,
                    "velocity": 0.3779527559055118,
                    "duration": 0.7594343166666704
                },
                {
                    "name": "A3",
                    "midi": 57,
                    "time": 129.8113813333342,
                    "velocity": 0.31496062992125984,
                    "duration": 0.5566040333333433
                },
                {
                    "name": "C5",
                    "midi": 72,
                    "time": 130.2076079333342,
                    "velocity": 0.2677165354330709,
                    "duration": 0.14622648333335064
                },
                {
                    "name": "E5",
                    "midi": 76,
                    "time": 130.2076079333342,
                    "velocity": 0.1968503937007874,
                    "duration": 0.08962268333334578
                },
                {
                    "name": "E4",
                    "midi": 64,
                    "time": 130.23119285000087,
                    "velocity": 0.2283464566929134,
                    "duration": 0.5518870499999764
                },
                {
                    "name": "C4",
                    "midi": 60,
                    "time": 130.2359098333342,
                    "velocity": 0.25984251968503935,
                    "duration": 0.2547170999999935
                },
                {
                    "name": "E5",
                    "midi": 76,
                    "time": 130.6179854833342,
                    "velocity": 0.5669291338582677,
                    "duration": 1.8207555666666906
                },
                {
                    "name": "G3",
                    "midi": 55,
                    "time": 130.64157040000086,
                    "velocity": 0.30708661417322836,
                    "duration": 1.2830194666666728
                },
                {
                    "name": "B4",
                    "midi": 71,
                    "time": 131.08496683333416,
                    "velocity": 0.3228346456692913,
                    "duration": 0.4103775500000211
                },
                {
                    "name": "E4",
                    "midi": 64,
                    "time": 131.0896838166675,
                    "velocity": 0.1732283464566929,
                    "duration": 0.24528313333334495
                },
                {
                    "name": "B3",
                    "midi": 59,
                    "time": 131.09911778333418,
                    "velocity": 0.1889763779527559,
                    "duration": 0.2830189999999959
                },
                {
                    "name": "E5",
                    "midi": 76,
                    "time": 131.80666528333418,
                    "velocity": 0.2755905511811024,
                    "duration": 0.7641513000000373
                },
                {
                    "name": "B4",
                    "midi": 71,
                    "time": 131.80666528333418,
                    "velocity": 0.2755905511811024,
                    "duration": 0.6320757666667021
                },
                {
                    "name": "E4",
                    "midi": 64,
                    "time": 131.8255332166675,
                    "velocity": 0.16535433070866143,
                    "duration": 0.037735866666679385
                },
                {
                    "name": "E4",
                    "midi": 64,
                    "time": 132.2594956833342,
                    "velocity": 0.2440944881889764,
                    "duration": 0.1886793333333685
                },
                {
                    "name": "E2",
                    "midi": 40,
                    "time": 132.2877975833342,
                    "velocity": 0.2677165354330709,
                    "duration": 0.12264156666668669
                },
                {
                    "name": "E3",
                    "midi": 52,
                    "time": 132.32553345000088,
                    "velocity": 0.08661417322834646,
                    "duration": 0.06132078333334334
                },
                {
                    "name": "D5",
                    "midi": 74,
                    "time": 132.7783638500009,
                    "velocity": 0.4094488188976378,
                    "duration": 0.17452838333335308
                },
                {
                    "name": "D4",
                    "midi": 62,
                    "time": 132.78308083333422,
                    "velocity": 0.33070866141732286,
                    "duration": 0.10377363333333278
                },
                {
                    "name": "C5",
                    "midi": 72,
                    "time": 132.7972317833342,
                    "velocity": 0.4015748031496063,
                    "duration": 0.11792458333334821
                },
                {
                    "name": "D2",
                    "midi": 38,
                    "time": 132.80194876666755,
                    "velocity": 0.31496062992125984,
                    "duration": 0.09433966666668425
                },
                {
                    "name": "C3",
                    "midi": 48,
                    "time": 132.8066657500009,
                    "velocity": 0.3779527559055118,
                    "duration": 0.12264156666668669
                },
                {
                    "name": "D3",
                    "midi": 50,
                    "time": 132.8255336833342,
                    "velocity": 0.28346456692913385,
                    "duration": 0.12264156666668669
                },
                {
                    "name": "G5",
                    "midi": 79,
                    "time": 133.2311942500009,
                    "velocity": 0.4409448818897638,
                    "duration": 0.1415095000000406
                },
                {
                    "name": "G4",
                    "midi": 67,
                    "time": 133.24062821666757,
                    "velocity": 0.4015748031496063,
                    "duration": 0.1367925166667021
                },
                {
                    "name": "G3",
                    "midi": 55,
                    "time": 133.25006218333425,
                    "velocity": 0.28346456692913385,
                    "duration": 0.11320760000000973
                },
                {
                    "name": "G2",
                    "midi": 43,
                    "time": 133.2547791666676,
                    "velocity": 0.29133858267716534,
                    "duration": 0.11792458333334821
                },
                {
                    "name": "F#5",
                    "midi": 78,
                    "time": 133.6793076666676,
                    "velocity": 0.4094488188976378,
                    "duration": 0.2169812333333141
                },
                {
                    "name": "F#4",
                    "midi": 66,
                    "time": 133.69345861666758,
                    "velocity": 0.36220472440944884,
                    "duration": 0.22169821666665257
                },
                {
                    "name": "F#2",
                    "midi": 42,
                    "time": 133.70760956666757,
                    "velocity": 0.33070866141732286,
                    "duration": 0.16037743333333765
                },
                {
                    "name": "F#3",
                    "midi": 54,
                    "time": 133.7123265500009,
                    "velocity": 0.2125984251968504,
                    "duration": 0.11320760000000973
                },
                {
                    "name": "D5",
                    "midi": 74,
                    "time": 133.7264775000009,
                    "velocity": 0.29133858267716534,
                    "duration": 0.0707547500000203
                },
                {
                    "name": "C3",
                    "midi": 48,
                    "time": 133.73119448333424,
                    "velocity": 0.25196850393700787,
                    "duration": 0.05660380000000487
                },
                {
                    "name": "C5",
                    "midi": 72,
                    "time": 133.73119448333424,
                    "velocity": 0.33070866141732286,
                    "duration": 0.05188681666666639
                },
                {
                    "name": "D3",
                    "midi": 50,
                    "time": 133.7406284500009,
                    "velocity": 0.25984251968503935,
                    "duration": 0.05660380000000487
                },
                {
                    "name": "E5",
                    "midi": 76,
                    "time": 134.26421360000091,
                    "velocity": 0.3779527559055118,
                    "duration": 0.3679247000000032
                },
                {
                    "name": "E4",
                    "midi": 64,
                    "time": 134.2783645500009,
                    "velocity": 0.3464566929133858,
                    "duration": 0.43396246666668503
                },
                {
                    "name": "B4",
                    "midi": 71,
                    "time": 134.28308153333424,
                    "velocity": 0.4409448818897638,
                    "duration": 0.39150961666666717
                },
                {
                    "name": "E2",
                    "midi": 40,
                    "time": 134.3066664500009,
                    "velocity": 0.3543307086614173,
                    "duration": 0.10849061666667126
                },
                {
                    "name": "E3",
                    "midi": 52,
                    "time": 134.3066664500009,
                    "velocity": 0.3228346456692913,
                    "duration": 0.1698114000000146
                },
                {
                    "name": "B2",
                    "midi": 47,
                    "time": 134.31610041666758,
                    "velocity": 0.2677165354330709,
                    "duration": 0.10849061666667126
                },
                {
                    "name": "B3",
                    "midi": 59,
                    "time": 134.81138366666758,
                    "velocity": 0.4881889763779528,
                    "duration": 0.23113218333332952
                },
                {
                    "name": "D4",
                    "midi": 62,
                    "time": 135.20289328333425,
                    "velocity": 0.5511811023622047,
                    "duration": 0.4811322999999845
                },
                {
                    "name": "B4",
                    "midi": 71,
                    "time": 135.24534613333424,
                    "velocity": 0.48031496062992124,
                    "duration": 0.41509453333333113
                },
                {
                    "name": "E4",
                    "midi": 64,
                    "time": 135.61327083333424,
                    "velocity": 0.5826771653543307,
                    "duration": 0.10377363333333278
                },
                {
                    "name": "E2",
                    "midi": 40,
                    "time": 135.8632709500009,
                    "velocity": 0.2755905511811024,
                    "duration": 0.7169814666667094
                },
                {
                    "name": "B2",
                    "midi": 47,
                    "time": 135.88213888333422,
                    "velocity": 0.29133858267716534,
                    "duration": 0.7311324166667248
                },
                {
                    "name": "G#3",
                    "midi": 56,
                    "time": 135.94345966666756,
                    "velocity": 0.4881889763779528,
                    "duration": 0.09433966666671267
                },
                {
                    "name": "E3",
                    "midi": 52,
                    "time": 135.96232760000092,
                    "velocity": 0.28346456692913385,
                    "duration": 0.6132078333333482
                },
                {
                    "name": "D4",
                    "midi": 62,
                    "time": 136.0283653666676,
                    "velocity": 0.4881889763779528,
                    "duration": 0.08018871666666882
                },
                {
                    "name": "F#4",
                    "midi": 66,
                    "time": 136.11798805000095,
                    "velocity": 0.4881889763779528,
                    "duration": 0.07547173333333035
                },
                {
                    "name": "D5",
                    "midi": 74,
                    "time": 136.31610135000093,
                    "velocity": 0.6220472440944882,
                    "duration": 0.13207553333333522
                },
                {
                    "name": "D2",
                    "midi": 38,
                    "time": 137.00006393333427,
                    "velocity": 0.29133858267716534,
                    "duration": 0.5330191166666509
                },
                {
                    "name": "F#3",
                    "midi": 54,
                    "time": 137.01421488333426,
                    "velocity": 0.4015748031496063,
                    "duration": 0.09905664999996588
                },
                {
                    "name": "A2",
                    "midi": 45,
                    "time": 137.07081868333424,
                    "velocity": 0.2755905511811024,
                    "duration": 0.4716983333333644
                },
                {
                    "name": "C4",
                    "midi": 60,
                    "time": 137.11327153333423,
                    "velocity": 0.4094488188976378,
                    "duration": 0.05660380000000487
                },
                {
                    "name": "E4",
                    "midi": 64,
                    "time": 137.1793093000009,
                    "velocity": 0.5196850393700787,
                    "duration": 0.05660380000000487
                },
                {
                    "name": "C5",
                    "midi": 72,
                    "time": 137.37742260000093,
                    "velocity": 0.6456692913385826,
                    "duration": 0.29716995000001134
                },
                {
                    "name": "B4",
                    "midi": 71,
                    "time": 137.71704540000093,
                    "velocity": 0.5748031496062992,
                    "duration": 0.2688680499999805
                },
                {
                    "name": "A4",
                    "midi": 69,
                    "time": 137.94346060000092,
                    "velocity": 0.6535433070866141,
                    "duration": 0.12264156666665826
                },
                {
                    "name": "G1",
                    "midi": 31,
                    "time": 138.06610216666758,
                    "velocity": 0.3700787401574803,
                    "duration": 0.05188681666666639
                },
                {
                    "name": "G2",
                    "midi": 43,
                    "time": 138.1415739000009,
                    "velocity": 0.3464566929133858,
                    "duration": 0.03301888333334091
                },
                {
                    "name": "B4",
                    "midi": 71,
                    "time": 138.38685703333425,
                    "velocity": 0.5669291338582677,
                    "duration": 2.518869099999961
                },
                {
                    "name": "B3",
                    "midi": 59,
                    "time": 138.40100798333424,
                    "velocity": 0.4566929133858268,
                    "duration": 2.48113323333331
                },
                {
                    "name": "B2",
                    "midi": 47,
                    "time": 138.40100798333424,
                    "velocity": 0.3543307086614173,
                    "duration": 2.48113323333331
                },
                {
                    "name": "F#4",
                    "midi": 66,
                    "time": 138.40100798333424,
                    "velocity": 0.4251968503937008,
                    "duration": 0.9622645999999975
                },
                {
                    "name": "F#3",
                    "midi": 54,
                    "time": 138.42930988333424,
                    "velocity": 0.31496062992125984,
                    "duration": 0.8396230333333392
                },
                {
                    "name": "E4",
                    "midi": 64,
                    "time": 139.7264803000009,
                    "velocity": 0.3543307086614173,
                    "duration": 0.5000002333333384
                },
                {
                    "name": "E3",
                    "midi": 52,
                    "time": 139.75949918333424,
                    "velocity": 0.2440944881889764,
                    "duration": 0.2830189999999959
                },
                {
                    "name": "E2",
                    "midi": 40,
                    "time": 139.80195203333423,
                    "velocity": 0.2283464566929134,
                    "duration": 0.2500001166666834
                },
                {
                    "name": "D4",
                    "midi": 62,
                    "time": 140.57553730000092,
                    "velocity": 0.2755905511811024,
                    "duration": 0.30660391666663145
                },
                {
                    "name": "D3",
                    "midi": 50,
                    "time": 140.6179901500009,
                    "velocity": 0.16535433070866143,
                    "duration": 0.22169821666665257
                },
                {
                    "name": "D2",
                    "midi": 38,
                    "time": 140.62742411666758,
                    "velocity": 0.14960629921259844,
                    "duration": 0.1981132999999886
                },
                {
                    "name": "G5",
                    "midi": 79,
                    "time": 141.27365083333422,
                    "velocity": 0.3937007874015748,
                    "duration": 0.40566056666662575
                },
                {
                    "name": "A#5",
                    "midi": 82,
                    "time": 141.6038396666675,
                    "velocity": 0.47244094488188976,
                    "duration": 0.24056615000000647
                },
                {
                    "name": "C6",
                    "midi": 84,
                    "time": 141.96704738333418,
                    "velocity": 0.48031496062992124,
                    "duration": 0.1650944166666477
                },
                {
                    "name": "A#5",
                    "midi": 82,
                    "time": 141.97176436666751,
                    "velocity": 0.3543307086614173,
                    "duration": 0.13679251666664527
                },
                {
                    "name": "G5",
                    "midi": 79,
                    "time": 141.99063230000084,
                    "velocity": 0.3464566929133858,
                    "duration": 0.05188681666666639
                },
                {
                    "name": "D6",
                    "midi": 86,
                    "time": 142.3255381166675,
                    "velocity": 0.5590551181102362,
                    "duration": 0.10377363333333278
                },
                {
                    "name": "A#5",
                    "midi": 82,
                    "time": 142.33497208333418,
                    "velocity": 0.2755905511811024,
                    "duration": 0.10849061666664284
                },
                {
                    "name": "F6",
                    "midi": 89,
                    "time": 142.69346281666748,
                    "velocity": 0.6299212598425197,
                    "duration": 0.6509437000000275
                },
                {
                    "name": "A#5",
                    "midi": 82,
                    "time": 142.70289678333415,
                    "velocity": 0.33858267716535434,
                    "duration": 0.4245285000000081
                },
                {
                    "name": "G5",
                    "midi": 79,
                    "time": 142.7076137666675,
                    "velocity": 0.4251968503937008,
                    "duration": 0.47641531666667447
                },
                {
                    "name": "D5",
                    "midi": 74,
                    "time": 143.04251958333415,
                    "velocity": 0.41732283464566927,
                    "duration": 0.45283040000003894
                },
                {
                    "name": "A#5",
                    "midi": 82,
                    "time": 143.39629333333417,
                    "velocity": 0.3464566929133858,
                    "duration": 0.5047172166666769
                },
                {
                    "name": "G5",
                    "midi": 79,
                    "time": 143.40572730000085,
                    "velocity": 0.30708661417322836,
                    "duration": 0.485849283333323
                },
                {
                    "name": "E6",
                    "midi": 88,
                    "time": 143.70289725000086,
                    "velocity": 0.5511811023622047,
                    "duration": 0.2547170999999935
                },
                {
                    "name": "D5",
                    "midi": 74,
                    "time": 143.71704820000085,
                    "velocity": 0.4330708661417323,
                    "duration": 0.33018883333335225
                },
                {
                    "name": "D6",
                    "midi": 86,
                    "time": 144.06610496666752,
                    "velocity": 0.5669291338582677,
                    "duration": 0.2547170999999935
                },
                {
                    "name": "A#5",
                    "midi": 82,
                    "time": 144.0802559166675,
                    "velocity": 0.3464566929133858,
                    "duration": 0.537736099999961
                },
                {
                    "name": "G5",
                    "midi": 79,
                    "time": 144.0896898833342,
                    "velocity": 0.4015748031496063,
                    "duration": 0.5047172166666201
                },
                {
                    "name": "E6",
                    "midi": 88,
                    "time": 144.41516173333417,
                    "velocity": 0.5748031496062992,
                    "duration": 0.28301899999993907
                },
                {
                    "name": "C5",
                    "midi": 72,
                    "time": 144.4198787166675,
                    "velocity": 0.3858267716535433,
                    "duration": 0.1792453666666347
                },
                {
                    "name": "G4",
                    "midi": 67,
                    "time": 144.63214296666746,
                    "velocity": 0.3228346456692913,
                    "duration": 0.23113218333332952
                },
                {
                    "name": "C6",
                    "midi": 84,
                    "time": 144.75478453333412,
                    "velocity": 0.5275590551181102,
                    "duration": 0.30660391666665987
                },
                {
                    "name": "G5",
                    "midi": 79,
                    "time": 144.7689354833341,
                    "velocity": 0.3858267716535433,
                    "duration": 0.1367925166666737
                },
                {
                    "name": "A#5",
                    "midi": 82,
                    "time": 144.7689354833341,
                    "velocity": 0.2755905511811024,
                    "duration": 0.06132078333334334
                },
                {
                    "name": "C5",
                    "midi": 72,
                    "time": 144.87742610000078,
                    "velocity": 0.4330708661417323,
                    "duration": 0.06603776666668182
                },
                {
                    "name": "D6",
                    "midi": 86,
                    "time": 145.19818096666745,
                    "velocity": 0.5039370078740157,
                    "duration": 0.18396234999997318
                },
                {
                    "name": "F5",
                    "midi": 77,
                    "time": 145.20761493333413,
                    "velocity": 0.4251968503937008,
                    "duration": 0.2122642499999472
                },
                {
                    "name": "D4",
                    "midi": 62,
                    "time": 145.22176588333411,
                    "velocity": 0.3858267716535433,
                    "duration": 0.3301888333332954
                },
                {
                    "name": "A5",
                    "midi": 81,
                    "time": 145.22176588333411,
                    "velocity": 0.3700787401574803,
                    "duration": 0.1792453666666347
                },
                {
                    "name": "G3",
                    "midi": 55,
                    "time": 145.5944075666674,
                    "velocity": 0.3937007874015748,
                    "duration": 0.2830189999999959
                },
                {
                    "name": "F4",
                    "midi": 65,
                    "time": 145.93874735000074,
                    "velocity": 0.5039370078740157,
                    "duration": 0.14622648333332222
                },
                {
                    "name": "A3",
                    "midi": 57,
                    "time": 145.95761528333406,
                    "velocity": 0.29133858267716534,
                    "duration": 0.08962268333331735
                },
                {
                    "name": "C4",
                    "midi": 60,
                    "time": 145.9623322666674,
                    "velocity": 0.3858267716535433,
                    "duration": 0.07547173333330193
                },
                {
                    "name": "D4",
                    "midi": 62,
                    "time": 145.9764832166674,
                    "velocity": 0.3858267716535433,
                    "duration": 0.10377363333333278
                },
                {
                    "name": "A4",
                    "midi": 69,
                    "time": 146.2878041166674,
                    "velocity": 0.5511811023622047,
                    "duration": 0.12264156666668669
                },
                {
                    "name": "F4",
                    "midi": 65,
                    "time": 146.30195506666738,
                    "velocity": 0.41732283464566927,
                    "duration": 0.1367925166667021
                },
                {
                    "name": "C4",
                    "midi": 60,
                    "time": 146.31138903333405,
                    "velocity": 0.4330708661417323,
                    "duration": 0.18396235000003003
                },
                {
                    "name": "D4",
                    "midi": 62,
                    "time": 146.32082300000073,
                    "velocity": 0.31496062992125984,
                    "duration": 0.12735855000002516
                },
                {
                    "name": "G3",
                    "midi": 55,
                    "time": 146.32553998333407,
                    "velocity": 0.2677165354330709,
                    "duration": 0.12264156666668669
                },
                {
                    "name": "F4",
                    "midi": 65,
                    "time": 146.64629485000074,
                    "velocity": 0.5590551181102362,
                    "duration": 0.08962268333334578
                },
                {
                    "name": "C4",
                    "midi": 60,
                    "time": 146.6698797666674,
                    "velocity": 0.4015748031496063,
                    "duration": 0.037735866666679385
                },
                {
                    "name": "A3",
                    "midi": 57,
                    "time": 146.67931373333408,
                    "velocity": 0.33070866141732286,
                    "duration": 0.05188681666666639
                },
                {
                    "name": "D4",
                    "midi": 62,
                    "time": 147.00950256666744,
                    "velocity": 0.5511811023622047,
                    "duration": 0.10377363333333278
                },
                {
                    "name": "A3",
                    "midi": 57,
                    "time": 147.0189365333341,
                    "velocity": 0.3858267716535433,
                    "duration": 0.04245284999998944
                },
                {
                    "name": "F3",
                    "midi": 53,
                    "time": 147.02365351666745,
                    "velocity": 0.3700787401574803,
                    "duration": 0.04245284999998944
                },
                {
                    "name": "G3",
                    "midi": 55,
                    "time": 147.04252145000078,
                    "velocity": 0.3779527559055118,
                    "duration": 0.0660377666666534
                },
                {
                    "name": "F4",
                    "midi": 65,
                    "time": 147.35384235000078,
                    "velocity": 0.5826771653543307,
                    "duration": 0.07547173333335877
                },
                {
                    "name": "A3",
                    "midi": 57,
                    "time": 147.36327631666745,
                    "velocity": 0.4015748031496063,
                    "duration": 0.03301888333334091
                },
                {
                    "name": "C4",
                    "midi": 60,
                    "time": 147.36327631666745,
                    "velocity": 0.4645669291338583,
                    "duration": 0.03301888333334091
                },
                {
                    "name": "A4",
                    "midi": 69,
                    "time": 147.61799341666747,
                    "velocity": 0.6692913385826772,
                    "duration": 0.08018871666666882
                },
                {
                    "name": "C4",
                    "midi": 60,
                    "time": 147.61799341666747,
                    "velocity": 0.5196850393700787,
                    "duration": 0.03301888333334091
                },
                {
                    "name": "F4",
                    "midi": 65,
                    "time": 147.6227104000008,
                    "velocity": 0.5196850393700787,
                    "duration": 0.028301900000002433
                },
                {
                    "name": "C4",
                    "midi": 60,
                    "time": 147.76893688333413,
                    "velocity": 0.5590551181102362,
                    "duration": 0.17924536666669155
                },
                {
                    "name": "G3",
                    "midi": 55,
                    "time": 147.79723878333414,
                    "velocity": 0.3464566929133858,
                    "duration": 0.0849057000000073
                },
                {
                    "name": "D5",
                    "midi": 74,
                    "time": 147.89157845000082,
                    "velocity": 0.6456692913385826,
                    "duration": 0.1367925166666737
                },
                {
                    "name": "F4",
                    "midi": 65,
                    "time": 147.91044638333415,
                    "velocity": 0.4251968503937008,
                    "duration": 0.05188681666669481
                },
                {
                    "name": "A4",
                    "midi": 69,
                    "time": 147.91516336666749,
                    "velocity": 0.4015748031496063,
                    "duration": 0.037735866666679385
                },
                {
                    "name": "E5",
                    "midi": 76,
                    "time": 148.2406352166675,
                    "velocity": 0.6771653543307087,
                    "duration": 0.7500003500000503
                },
                {
                    "name": "F4",
                    "midi": 65,
                    "time": 148.25950315000082,
                    "velocity": 0.3858267716535433,
                    "duration": 0.7452833666667118
                },
                {
                    "name": "A4",
                    "midi": 69,
                    "time": 148.26422013333416,
                    "velocity": 0.4015748031496063,
                    "duration": 0.7169814666667094
                },
                {
                    "name": "B3",
                    "midi": 59,
                    "time": 148.27837108333418,
                    "velocity": 0.5196850393700787,
                    "duration": 0.15094346666668912
                },
                {
                    "name": "D3",
                    "midi": 50,
                    "time": 148.30667298333418,
                    "velocity": 0.47244094488188976,
                    "duration": 0.0990566499999943
                },
                {
                    "name": "G2",
                    "midi": 43,
                    "time": 148.69346561666754,
                    "velocity": 0.44881889763779526,
                    "duration": 0.3160378833333368
                },
                {
                    "name": "F4",
                    "midi": 65,
                    "time": 149.35856026666755,
                    "velocity": 0.5433070866141733,
                    "duration": 0.08962268333331735
                },
                {
                    "name": "A3",
                    "midi": 57,
                    "time": 149.3632772500009,
                    "velocity": 0.4251968503937008,
                    "duration": 0.03773586666665096
                },
                {
                    "name": "C4",
                    "midi": 60,
                    "time": 149.38686216666756,
                    "velocity": 0.3228346456692913,
                    "duration": 0.03773586666665096
                },
                {
                    "name": "A4",
                    "midi": 69,
                    "time": 149.69818306666753,
                    "velocity": 0.6456692913385826,
                    "duration": 0.1037736333333612
                },
                {
                    "name": "F4",
                    "midi": 65,
                    "time": 149.7076170333342,
                    "velocity": 0.4881889763779528,
                    "duration": 0.04716983333335634
                },
                {
                    "name": "C4",
                    "midi": 60,
                    "time": 149.71233401666754,
                    "velocity": 0.4251968503937008,
                    "duration": 0.03301888333334091
                },
                {
                    "name": "D4",
                    "midi": 62,
                    "time": 149.7359189333342,
                    "velocity": 0.4094488188976378,
                    "duration": 0.17452838333335308
                },
                {
                    "name": "G3",
                    "midi": 55,
                    "time": 149.74535290000088,
                    "velocity": 0.3858267716535433,
                    "duration": 0.08018871666666882
                },
                {
                    "name": "D5",
                    "midi": 74,
                    "time": 150.02837190000088,
                    "velocity": 0.6929133858267716,
                    "duration": 0.2971699499999829
                },
                {
                    "name": "C4",
                    "midi": 60,
                    "time": 150.04252285000086,
                    "velocity": 0.5196850393700787,
                    "duration": 0.0660377666666534
                },
                {
                    "name": "A4",
                    "midi": 69,
                    "time": 150.04252285000086,
                    "velocity": 0.5118110236220472,
                    "duration": 0.0990566499999943
                },
                {
                    "name": "G3",
                    "midi": 55,
                    "time": 150.05667380000085,
                    "velocity": 0.4645669291338583,
                    "duration": 0.04245284999998944
                },
                {
                    "name": "F4",
                    "midi": 65,
                    "time": 150.05667380000085,
                    "velocity": 0.29133858267716534,
                    "duration": 0.06132078333334334
                },
                {
                    "name": "E5",
                    "midi": 76,
                    "time": 150.44346643333418,
                    "velocity": 0.7086614173228346,
                    "duration": 0.707547500000004
                },
                {
                    "name": "A4",
                    "midi": 69,
                    "time": 150.47176833333418,
                    "velocity": 0.4251968503937008,
                    "duration": 0.7641513000000089
                },
                {
                    "name": "F4",
                    "midi": 65,
                    "time": 150.47648531666752,
                    "velocity": 0.4015748031496063,
                    "duration": 0.6698116333333246
                },
                {
                    "name": "B3",
                    "midi": 59,
                    "time": 150.49535325000085,
                    "velocity": 0.3937007874015748,
                    "duration": 0.11792458333331979
                },
                {
                    "name": "D3",
                    "midi": 50,
                    "time": 150.50007023333418,
                    "velocity": 0.4330708661417323,
                    "duration": 0.10849061666664284
                },
                {
                    "name": "G2",
                    "midi": 43,
                    "time": 150.87742890000084,
                    "velocity": 0.41732283464566927,
                    "duration": 0.06132078333334334
                },
                {
                    "name": "E5",
                    "midi": 76,
                    "time": 151.58025941666753,
                    "velocity": 0.5669291338582677,
                    "duration": 0.25471709999996506
                },
                {
                    "name": "A4",
                    "midi": 69,
                    "time": 151.5896933833342,
                    "velocity": 0.2283464566929134,
                    "duration": 0.22169821666662415
                },
                {
                    "name": "B3",
                    "midi": 59,
                    "time": 151.6038443333342,
                    "velocity": 0.25984251968503935,
                    "duration": 0.264151066666642
                },
                {
                    "name": "F4",
                    "midi": 65,
                    "time": 151.61799528333418,
                    "velocity": 0.2755905511811024,
                    "duration": 0.5424530833332994
                },
                {
                    "name": "G3",
                    "midi": 55,
                    "time": 151.63214623333417,
                    "velocity": 0.2992125984251969,
                    "duration": 0.6698116333332962
                },
                {
                    "name": "C5",
                    "midi": 72,
                    "time": 152.01422188333416,
                    "velocity": 0.5511811023622047,
                    "duration": 0.9716985666666176
                },
                {
                    "name": "C3",
                    "midi": 48,
                    "time": 152.05667473333415,
                    "velocity": 0.3228346456692913,
                    "duration": 0.23113218333332952
                },
                {
                    "name": "G4",
                    "midi": 67,
                    "time": 152.41516546666747,
                    "velocity": 0.33070866141732286,
                    "duration": 0.5188681666666355
                },
                {
                    "name": "F4",
                    "midi": 65,
                    "time": 152.42931641666746,
                    "velocity": 0.3228346456692913,
                    "duration": 0.5047172166666485
                },
                {
                    "name": "G5",
                    "midi": 79,
                    "time": 152.82082603333413,
                    "velocity": 0.2204724409448819,
                    "duration": 0.6179248166666298
                },
                {
                    "name": "F5",
                    "midi": 77,
                    "time": 152.83969396666745,
                    "velocity": 0.33070866141732286,
                    "duration": 0.6037738666666428
                },
                {
                    "name": "C5",
                    "midi": 72,
                    "time": 153.25950548333412,
                    "velocity": 0.3464566929133858,
                    "duration": 0.2688680499999805
                },
                {
                    "name": "E4",
                    "midi": 64,
                    "time": 153.2830904000008,
                    "velocity": 0.2204724409448819,
                    "duration": 0.1792453666666347
                },
                {
                    "name": "G4",
                    "midi": 67,
                    "time": 153.29252436666746,
                    "velocity": 0.1889763779527559,
                    "duration": 0.1792453666666347
                },
                {
                    "name": "D#5",
                    "midi": 75,
                    "time": 153.83026046666743,
                    "velocity": 0.5039370078740157,
                    "duration": 0.24056614999994963
                },
                {
                    "name": "D#4",
                    "midi": 63,
                    "time": 153.87743030000075,
                    "velocity": 0.2440944881889764,
                    "duration": 1.2122647166665672
                },
                {
                    "name": "F5",
                    "midi": 77,
                    "time": 154.2170531000007,
                    "velocity": 0.6141732283464567,
                    "duration": 0.23113218333332952
                },
                {
                    "name": "D#5",
                    "midi": 75,
                    "time": 154.24063801666736,
                    "velocity": 0.30708661417322836,
                    "duration": 0.037735866666679385
                },
                {
                    "name": "D5",
                    "midi": 74,
                    "time": 154.2453550000007,
                    "velocity": 0.4015748031496063,
                    "duration": 0.235849166666668
                },
                {
                    "name": "G5",
                    "midi": 79,
                    "time": 154.55195891666736,
                    "velocity": 0.6456692913385826,
                    "duration": 0.16037743333333765
                },
                {
                    "name": "D#5",
                    "midi": 75,
                    "time": 154.57554383333402,
                    "velocity": 0.36220472440944884,
                    "duration": 0.03301888333334091
                },
                {
                    "name": "C5",
                    "midi": 72,
                    "time": 154.57554383333402,
                    "velocity": 0.47244094488188976,
                    "duration": 0.08962268333334578
                },
                {
                    "name": "A#5",
                    "midi": 82,
                    "time": 154.88686473333402,
                    "velocity": 0.6614173228346457,
                    "duration": 0.7405663833332881
                },
                {
                    "name": "D#5",
                    "midi": 75,
                    "time": 154.9104496500007,
                    "velocity": 0.4330708661417323,
                    "duration": 0.4009435833333157
                },
                {
                    "name": "C5",
                    "midi": 72,
                    "time": 154.91988361666736,
                    "velocity": 0.4251968503937008,
                    "duration": 0.35849073333329784
                },
                {
                    "name": "A#4",
                    "midi": 70,
                    "time": 154.93403456666735,
                    "velocity": 0.2677165354330709,
                    "duration": 0.24056614999997805
                },
                {
                    "name": "G4",
                    "midi": 67,
                    "time": 155.24063848333398,
                    "velocity": 0.33858267716535434,
                    "duration": 0.3349058166666623
                },
                {
                    "name": "D#5",
                    "midi": 75,
                    "time": 155.53309145000065,
                    "velocity": 0.3937007874015748,
                    "duration": 0.551887049999948
                },
                {
                    "name": "C5",
                    "midi": 72,
                    "time": 155.55195938333398,
                    "velocity": 0.4015748031496063,
                    "duration": 0.2877359833333344
                },
                {
                    "name": "A#4",
                    "midi": 70,
                    "time": 155.55667636666732,
                    "velocity": 0.29133858267716534,
                    "duration": 0.37264168333331327
                },
                {
                    "name": "A5",
                    "midi": 81,
                    "time": 155.8821482166673,
                    "velocity": 0.5590551181102362,
                    "duration": 0.25943408333330353
                },
                {
                    "name": "A4",
                    "midi": 69,
                    "time": 155.93403503333397,
                    "velocity": 0.3937007874015748,
                    "duration": 0.2830189999999675
                },
                {
                    "name": "G5",
                    "midi": 79,
                    "time": 156.24535593333394,
                    "velocity": 0.5275590551181102,
                    "duration": 0.26415106666667043
                },
                {
                    "name": "G4",
                    "midi": 67,
                    "time": 156.26422386666727,
                    "velocity": 0.33070866141732286,
                    "duration": 0.06132078333334334
                },
                {
                    "name": "D#5",
                    "midi": 75,
                    "time": 156.2689408500006,
                    "velocity": 0.2677165354330709,
                    "duration": 0.5188681666666355
                },
                {
                    "name": "C5",
                    "midi": 72,
                    "time": 156.27837481666728,
                    "velocity": 0.29133858267716534,
                    "duration": 0.4811322999999561
                },
                {
                    "name": "A5",
                    "midi": 81,
                    "time": 156.61328063333394,
                    "velocity": 0.5905511811023622,
                    "duration": 0.29245296666664444
                },
                {
                    "name": "F4",
                    "midi": 65,
                    "time": 156.62743158333393,
                    "velocity": 0.36220472440944884,
                    "duration": 0.13679251666664527
                },
                {
                    "name": "C4",
                    "midi": 60,
                    "time": 156.84441281666724,
                    "velocity": 0.4409448818897638,
                    "duration": 0.235849166666668
                },
                {
                    "name": "F5",
                    "midi": 77,
                    "time": 156.94818645000058,
                    "velocity": 0.5748031496062992,
                    "duration": 0.2547170999999935
                },
                {
                    "name": "D#5",
                    "midi": 75,
                    "time": 156.95762041666725,
                    "velocity": 0.3543307086614173,
                    "duration": 0.0990566499999943
                },
                {
                    "name": "C5",
                    "midi": 72,
                    "time": 156.9623374000006,
                    "velocity": 0.4330708661417323,
                    "duration": 0.11792458333331979
                },
                {
                    "name": "F4",
                    "midi": 65,
                    "time": 157.0613940500006,
                    "velocity": 0.4330708661417323,
                    "duration": 0.03301888333331249
                },
                {
                    "name": "G5",
                    "midi": 79,
                    "time": 157.38214891666723,
                    "velocity": 0.5511811023622047,
                    "duration": 0.235849166666668
                },
                {
                    "name": "G3",
                    "midi": 55,
                    "time": 157.40101685000056,
                    "velocity": 0.4566929133858268,
                    "duration": 0.06603776666668182
                },
                {
                    "name": "A#4",
                    "midi": 70,
                    "time": 157.4057338333339,
                    "velocity": 0.33858267716535434,
                    "duration": 0.2830189999999959
                },
                {
                    "name": "D5",
                    "midi": 74,
                    "time": 157.41516780000057,
                    "velocity": 0.4330708661417323,
                    "duration": 0.1981132999999886
                },
                {
                    "name": "G2",
                    "midi": 43,
                    "time": 157.8161113833339,
                    "velocity": 0.3543307086614173,
                    "duration": 0.11320760000000973
                },
                {
                    "name": "C2",
                    "midi": 36,
                    "time": 157.82554535000057,
                    "velocity": 0.3700787401574803,
                    "duration": 0.0990566499999943
                },
                {
                    "name": "A#4",
                    "midi": 70,
                    "time": 158.1981870333339,
                    "velocity": 0.49606299212598426,
                    "duration": 0.1367925166666737
                },
                {
                    "name": "D4",
                    "midi": 62,
                    "time": 158.22177195000057,
                    "velocity": 0.3464566929133858,
                    "duration": 0.04245285000001786
                },
                {
                    "name": "F4",
                    "midi": 65,
                    "time": 158.23120591666725,
                    "velocity": 0.28346456692913385,
                    "duration": 0.05660380000000487
                },
                {
                    "name": "A#3",
                    "midi": 58,
                    "time": 158.27365876666727,
                    "velocity": 0.2677165354330709,
                    "duration": 0.20754726666663714
                },
                {
                    "name": "D5",
                    "midi": 74,
                    "time": 158.5236588833339,
                    "velocity": 0.6062992125984252,
                    "duration": 0.16981139999998618
                },
                {
                    "name": "A4",
                    "midi": 69,
                    "time": 158.54724380000056,
                    "velocity": 0.36220472440944884,
                    "duration": 0.11320759999998131
                },
                {
                    "name": "F4",
                    "midi": 65,
                    "time": 158.54724380000056,
                    "velocity": 0.3858267716535433,
                    "duration": 0.11320759999998131
                },
                {
                    "name": "D4",
                    "midi": 62,
                    "time": 158.56611173333388,
                    "velocity": 0.4251968503937008,
                    "duration": 0.17452838333332465
                },
                {
                    "name": "A#4",
                    "midi": 70,
                    "time": 158.85384771666722,
                    "velocity": 0.4881889763779528,
                    "duration": 0.0849057000000073
                },
                {
                    "name": "A#3",
                    "midi": 58,
                    "time": 158.85384771666722,
                    "velocity": 0.4566929133858268,
                    "duration": 0.04245284999998944
                },
                {
                    "name": "D4",
                    "midi": 62,
                    "time": 158.88214961666722,
                    "velocity": 0.4645669291338583,
                    "duration": 0.05660380000000487
                },
                {
                    "name": "F4",
                    "midi": 65,
                    "time": 158.8963005666672,
                    "velocity": 0.2125984251968504,
                    "duration": 0.03301888333334091
                },
                {
                    "name": "G4",
                    "midi": 67,
                    "time": 159.20762146666723,
                    "velocity": 0.5826771653543307,
                    "duration": 0.09433966666671267
                },
                {
                    "name": "G3",
                    "midi": 55,
                    "time": 159.20762146666723,
                    "velocity": 0.4566929133858268,
                    "duration": 0.03301888333334091
                },
                {
                    "name": "D4",
                    "midi": 62,
                    "time": 159.21233845000057,
                    "velocity": 0.44881889763779526,
                    "duration": 0.05188681666666639
                },
                {
                    "name": "A#3",
                    "midi": 58,
                    "time": 159.21233845000057,
                    "velocity": 0.33858267716535434,
                    "duration": 0.05188681666666639
                },
                {
                    "name": "C2",
                    "midi": 36,
                    "time": 159.22648940000056,
                    "velocity": 0.4330708661417323,
                    "duration": 0.04716983333335634
                },
                {
                    "name": "G2",
                    "midi": 43,
                    "time": 159.25007431666725,
                    "velocity": 0.25196850393700787,
                    "duration": 0.04245285000001786
                },
                {
                    "name": "A#4",
                    "midi": 70,
                    "time": 159.5472442666673,
                    "velocity": 0.5748031496062992,
                    "duration": 0.07547173333330193
                },
                {
                    "name": "D4",
                    "midi": 62,
                    "time": 159.56611220000062,
                    "velocity": 0.2755905511811024,
                    "duration": 0.03773586666665096
                },
                {
                    "name": "A#3",
                    "midi": 58,
                    "time": 159.58498013333394,
                    "velocity": 0.44881889763779526,
                    "duration": 0.1320755333333068
                },
                {
                    "name": "D5",
                    "midi": 74,
                    "time": 159.8113953333339,
                    "velocity": 0.6771653543307087,
                    "duration": 0.05660380000000487
                },
                {
                    "name": "F4",
                    "midi": 65,
                    "time": 159.8255462833339,
                    "velocity": 0.28346456692913385,
                    "duration": 0.03301888333334091
                },
                {
                    "name": "D4",
                    "midi": 62,
                    "time": 159.8255462833339,
                    "velocity": 0.5354330708661418,
                    "duration": 0.08018871666669725
                },
                {
                    "name": "F5",
                    "midi": 77,
                    "time": 160.0472445000006,
                    "velocity": 0.6929133858267716,
                    "duration": 0.08962268333328893
                },
                {
                    "name": "A4",
                    "midi": 69,
                    "time": 160.0613954500006,
                    "velocity": 0.4881889763779528,
                    "duration": 0.03301888333331249
                },
                {
                    "name": "D5",
                    "midi": 74,
                    "time": 160.0613954500006,
                    "velocity": 0.5826771653543307,
                    "duration": 0.03301888333331249
                },
                {
                    "name": "F4",
                    "midi": 65,
                    "time": 160.06611243333393,
                    "velocity": 0.5118110236220472,
                    "duration": 0.0801887166666404
                },
                {
                    "name": "A#3",
                    "midi": 58,
                    "time": 160.08026338333391,
                    "velocity": 0.3779527559055118,
                    "duration": 0.15566044999999917
                },
                {
                    "name": "A5",
                    "midi": 81,
                    "time": 160.37743333333393,
                    "velocity": 0.7165354330708661,
                    "duration": 0.6650946499999577
                },
                {
                    "name": "D5",
                    "midi": 74,
                    "time": 160.3915842833339,
                    "velocity": 0.5433070866141733,
                    "duration": 0.6650946499999577
                },
                {
                    "name": "A#4",
                    "midi": 70,
                    "time": 160.3915842833339,
                    "velocity": 0.4094488188976378,
                    "duration": 0.6981135333332986
                },
                {
                    "name": "E4",
                    "midi": 64,
                    "time": 160.4057352333339,
                    "velocity": 0.4881889763779528,
                    "duration": 0.10849061666667126
                },
                {
                    "name": "G3",
                    "midi": 55,
                    "time": 160.41045221666724,
                    "velocity": 0.4645669291338583,
                    "duration": 0.11320760000000973
                },
                {
                    "name": "C2",
                    "midi": 36,
                    "time": 160.83498071666725,
                    "velocity": 0.5039370078740157,
                    "duration": 0.12264156666665826
                },
                {
                    "name": "G2",
                    "midi": 43,
                    "time": 160.83498071666725,
                    "velocity": 0.4881889763779528,
                    "duration": 0.1650944166666477
                },
                {
                    "name": "A#3",
                    "midi": 58,
                    "time": 161.47649045000054,
                    "velocity": 0.4409448818897638,
                    "duration": 0.07547173333335877
                },
                {
                    "name": "A#4",
                    "midi": 70,
                    "time": 161.49064140000053,
                    "velocity": 0.5905511811023622,
                    "duration": 0.09433966666671267
                },
                {
                    "name": "G3",
                    "midi": 55,
                    "time": 161.49535838333387,
                    "velocity": 0.4881889763779528,
                    "duration": 0.08018871666669725
                },
                {
                    "name": "D3",
                    "midi": 50,
                    "time": 161.5000753666672,
                    "velocity": 0.48031496062992124,
                    "duration": 0.0896226833333742
                },
                {
                    "name": "F4",
                    "midi": 65,
                    "time": 161.5000753666672,
                    "velocity": 0.5039370078740157,
                    "duration": 0.028301900000030855
                },
                {
                    "name": "D4",
                    "midi": 62,
                    "time": 161.51422631666722,
                    "velocity": 0.4015748031496063,
                    "duration": 0.028301900000002433
                },
                {
                    "name": "A#4",
                    "midi": 70,
                    "time": 161.80667928333392,
                    "velocity": 0.5590551181102362,
                    "duration": 0.0849057000000073
                },
                {
                    "name": "D4",
                    "midi": 62,
                    "time": 161.81139626666726,
                    "velocity": 0.5511811023622047,
                    "duration": 0.05188681666666639
                },
                {
                    "name": "D5",
                    "midi": 74,
                    "time": 161.81139626666726,
                    "velocity": 0.6771653543307087,
                    "duration": 0.0990566499999943
                },
                {
                    "name": "A#3",
                    "midi": 58,
                    "time": 161.83026420000058,
                    "velocity": 0.4094488188976378,
                    "duration": 0.07547173333333035
                },
                {
                    "name": "F3",
                    "midi": 53,
                    "time": 161.83498118333392,
                    "velocity": 0.49606299212598426,
                    "duration": 0.028301900000002433
                },
                {
                    "name": "F4",
                    "midi": 65,
                    "time": 161.83969816666726,
                    "velocity": 0.25984251968503935,
                    "duration": 0.03301888333334091
                },
                {
                    "name": "F5",
                    "midi": 77,
                    "time": 162.14630208333392,
                    "velocity": 0.6929133858267716,
                    "duration": 0.13679251666664527
                },
                {
                    "name": "F4",
                    "midi": 65,
                    "time": 162.15101906666726,
                    "velocity": 0.5669291338582677,
                    "duration": 0.07547173333333035
                },
                {
                    "name": "A4",
                    "midi": 69,
                    "time": 162.15101906666726,
                    "velocity": 0.5354330708661418,
                    "duration": 0.0660377666666534
                },
                {
                    "name": "D5",
                    "midi": 74,
                    "time": 162.15101906666726,
                    "velocity": 0.5748031496062992,
                    "duration": 0.11792458333331979
                },
                {
                    "name": "A#3",
                    "midi": 58,
                    "time": 162.16988700000059,
                    "velocity": 0.31496062992125984,
                    "duration": 0.08018871666666882
                },
                {
                    "name": "D4",
                    "midi": 62,
                    "time": 162.17932096666726,
                    "velocity": 0.48031496062992124,
                    "duration": 0.07547173333333035
                },
                {
                    "name": "A3",
                    "midi": 57,
                    "time": 162.1981889000006,
                    "velocity": 0.3543307086614173,
                    "duration": 0.04245284999998944
                },
                {
                    "name": "A5",
                    "midi": 81,
                    "time": 162.59441550000057,
                    "velocity": 0.6850393700787402,
                    "duration": 0.834906050000086
                },
                {
                    "name": "A#4",
                    "midi": 70,
                    "time": 162.5991324833339,
                    "velocity": 0.49606299212598426,
                    "duration": 0.7924532000000681
                },
                {
                    "name": "D5",
                    "midi": 74,
                    "time": 162.60384946666724,
                    "velocity": 0.5354330708661418,
                    "duration": 0.7735852666667427
                },
                {
                    "name": "A4",
                    "midi": 69,
                    "time": 162.60384946666724,
                    "velocity": 0.5275590551181102,
                    "duration": 0.8632079500000884
                },
                {
                    "name": "E4",
                    "midi": 64,
                    "time": 162.63686835000058,
                    "velocity": 0.49606299212598426,
                    "duration": 0.15094346666668912
                },
                {
                    "name": "A#3",
                    "midi": 58,
                    "time": 162.64630231666726,
                    "velocity": 0.33070866141732286,
                    "duration": 0.1556604500000276
                },
                {
                    "name": "G3",
                    "midi": 55,
                    "time": 162.64630231666726,
                    "velocity": 0.4409448818897638,
                    "duration": 0.16037743333336607
                },
                {
                    "name": "G2",
                    "midi": 43,
                    "time": 163.0991327166673,
                    "velocity": 0.4330708661417323,
                    "duration": 0.12735855000002516
                },
                {
                    "name": "C2",
                    "midi": 36,
                    "time": 163.10384970000064,
                    "velocity": 0.44881889763779526,
                    "duration": 0.08962268333334578
                },
                {
                    "name": "A5",
                    "midi": 81,
                    "time": 163.76894435000065,
                    "velocity": 0.5905511811023622,
                    "duration": 0.12735854999999674
                },
                {
                    "name": "E5",
                    "midi": 76,
                    "time": 163.79252926666732,
                    "velocity": 0.49606299212598426,
                    "duration": 0.11792458333334821
                },
                {
                    "name": "A4",
                    "midi": 69,
                    "time": 163.79252926666732,
                    "velocity": 0.3937007874015748,
                    "duration": 0.15094346666668912
                },
                {
                    "name": "C5",
                    "midi": 72,
                    "time": 163.81139720000064,
                    "velocity": 0.3858267716535433,
                    "duration": 0.10849061666669968
                },
                {
                    "name": "A#3",
                    "midi": 58,
                    "time": 163.82083116666732,
                    "velocity": 0.29133858267716534,
                    "duration": 0.1367925166666737
                },
                {
                    "name": "E4",
                    "midi": 64,
                    "time": 163.82554815000066,
                    "velocity": 0.36220472440944884,
                    "duration": 0.1037736333333612
                },
                {
                    "name": "C4",
                    "midi": 60,
                    "time": 163.84913306666732,
                    "velocity": 0.3228346456692913,
                    "duration": 0.05188681666666639
                },
                {
                    "name": "F5",
                    "midi": 77,
                    "time": 164.240642683334,
                    "velocity": 0.5590551181102362,
                    "duration": 0.735849399999978
                },
                {
                    "name": "C5",
                    "midi": 72,
                    "time": 164.2595106166673,
                    "velocity": 0.4409448818897638,
                    "duration": 0.759434316666642
                },
                {
                    "name": "A#4",
                    "midi": 70,
                    "time": 164.26422760000065,
                    "velocity": 0.29133858267716534,
                    "duration": 0.13207553333333522
                },
                {
                    "name": "F4",
                    "midi": 65,
                    "time": 164.26422760000065,
                    "velocity": 0.2992125984251969,
                    "duration": 0.7971701833332929
                },
                {
                    "name": "A#3",
                    "midi": 58,
                    "time": 164.268944583334,
                    "velocity": 0.2677165354330709,
                    "duration": 0.24056614999997805
                },
                {
                    "name": "C4",
                    "midi": 60,
                    "time": 164.27366156666733,
                    "velocity": 0.33070866141732286,
                    "duration": 0.7688682833332905
                },
                {
                    "name": "F3",
                    "midi": 53,
                    "time": 164.297246483334,
                    "velocity": 0.33858267716535434,
                    "duration": 0.7311324166666395
                },
                {
                    "name": "A4",
                    "midi": 69,
                    "time": 164.63686928333397,
                    "velocity": 0.4015748031496063,
                    "duration": 0.11792458333331979
                },
                {
                    "name": "A3",
                    "midi": 57,
                    "time": 164.6557372166673,
                    "velocity": 0.3228346456692913,
                    "duration": 0.18867933333334008
                },
                {
                    "name": "G#4",
                    "midi": 68,
                    "time": 164.9953600166673,
                    "velocity": 0.4015748031496063,
                    "duration": 0.12264156666662984
                },
                {
                    "name": "G#3",
                    "midi": 56,
                    "time": 164.9953600166673,
                    "velocity": 0.3700787401574803,
                    "duration": 0.0801887166666404
                },
                {
                    "name": "D#5",
                    "midi": 75,
                    "time": 165.33969980000057,
                    "velocity": 0.5748031496062992,
                    "duration": 0.12264156666668669
                },
                {
                    "name": "D#4",
                    "midi": 63,
                    "time": 165.3585677333339,
                    "velocity": 0.3700787401574803,
                    "duration": 0.09433966666668425
                },
                {
                    "name": "B4",
                    "midi": 71,
                    "time": 165.36800170000058,
                    "velocity": 0.4251968503937008,
                    "duration": 0.04245284999998944
                },
                {
                    "name": "G4",
                    "midi": 67,
                    "time": 165.37271868333391,
                    "velocity": 0.4094488188976378,
                    "duration": 0.03773586666665096
                },
                {
                    "name": "F3",
                    "midi": 53,
                    "time": 165.3868696333339,
                    "velocity": 0.33070866141732286,
                    "duration": 0.08490570000003572
                },
                {
                    "name": "B3",
                    "midi": 59,
                    "time": 165.3868696333339,
                    "velocity": 0.2440944881889764,
                    "duration": 0.06603776666668182
                },
                {
                    "name": "G3",
                    "midi": 55,
                    "time": 165.4010205833339,
                    "velocity": 0.31496062992125984,
                    "duration": 0.037735866666679385
                },
                {
                    "name": "C5",
                    "midi": 72,
                    "time": 165.74064338333395,
                    "velocity": 0.5196850393700787,
                    "duration": 0.7877362166666444
                },
                {
                    "name": "C4",
                    "midi": 60,
                    "time": 165.7642283000006,
                    "velocity": 0.2992125984251969,
                    "duration": 0.8254720833333238
                },
                {
                    "name": "F4",
                    "midi": 65,
                    "time": 165.7736622666673,
                    "velocity": 0.31496062992125984,
                    "duration": 0.15094346666668912
                },
                {
                    "name": "G3",
                    "midi": 55,
                    "time": 165.7736622666673,
                    "velocity": 0.36220472440944884,
                    "duration": 0.8066041499999699
                },
                {
                    "name": "C3",
                    "midi": 48,
                    "time": 165.78309623333396,
                    "velocity": 0.3779527559055118,
                    "duration": 0.7783022499999674
                },
                {
                    "name": "G4",
                    "midi": 67,
                    "time": 165.78309623333396,
                    "velocity": 0.1889763779527559,
                    "duration": 0.5660379999999634
                },
                {
                    "name": "F3",
                    "midi": 53,
                    "time": 165.79724718333398,
                    "velocity": 0.2047244094488189,
                    "duration": 0.05188681666666639
                },
                {
                    "name": "F3",
                    "midi": 53,
                    "time": 165.90573780000065,
                    "velocity": 0.07874015748031496,
                    "duration": 0.11320759999998131
                },
                {
                    "name": "E4",
                    "midi": 64,
                    "time": 166.1274360166673,
                    "velocity": 0.3700787401574803,
                    "duration": 0.10849061666661441
                },
                {
                    "name": "E3",
                    "midi": 52,
                    "time": 166.1415869666673,
                    "velocity": 0.3464566929133858,
                    "duration": 0.1981132999999602
                },
                {
                    "name": "D#3",
                    "midi": 51,
                    "time": 166.50951166666727,
                    "velocity": 0.36220472440944884,
                    "duration": 0.0849057000000073
                },
                {
                    "name": "D#4",
                    "midi": 63,
                    "time": 166.52366261666725,
                    "velocity": 0.30708661417322836,
                    "duration": 0.08962268333334578
                },
                {
                    "name": "A#4",
                    "midi": 70,
                    "time": 166.87743636666727,
                    "velocity": 0.5039370078740157,
                    "duration": 0.12264156666668669
                },
                {
                    "name": "A#3",
                    "midi": 58,
                    "time": 166.8963043000006,
                    "velocity": 0.28346456692913385,
                    "duration": 0.12264156666671511
                },
                {
                    "name": "F#4",
                    "midi": 66,
                    "time": 166.91517223333392,
                    "velocity": 0.31496062992125984,
                    "duration": 0.0896226833333742
                },
                {
                    "name": "F#3",
                    "midi": 54,
                    "time": 166.91517223333392,
                    "velocity": 0.2992125984251969,
                    "duration": 0.09905665000005115
                },
                {
                    "name": "D4",
                    "midi": 62,
                    "time": 166.9246062000006,
                    "velocity": 0.3228346456692913,
                    "duration": 0.05660380000003329
                },
                {
                    "name": "C3",
                    "midi": 48,
                    "time": 166.93404016666727,
                    "velocity": 0.3779527559055118,
                    "duration": 0.05188681666669481
                },
                {
                    "name": "D3",
                    "midi": 50,
                    "time": 166.9387571500006,
                    "velocity": 0.3858267716535433,
                    "duration": 0.03301888333334091
                },
                {
                    "name": "G4",
                    "midi": 67,
                    "time": 167.33498375000065,
                    "velocity": 0.49606299212598426,
                    "duration": 0.35377374999995936
                },
                {
                    "name": "G3",
                    "midi": 55,
                    "time": 167.35385168333397,
                    "velocity": 0.2992125984251969,
                    "duration": 0.35849073333329784
                },
                {
                    "name": "D4",
                    "midi": 62,
                    "time": 167.35385168333397,
                    "velocity": 0.29133858267716534,
                    "duration": 0.6698116333332962
                },
                {
                    "name": "D3",
                    "midi": 50,
                    "time": 167.36328565000065,
                    "velocity": 0.36220472440944884,
                    "duration": 1.3254723166666338
                },
                {
                    "name": "C4",
                    "midi": 60,
                    "time": 167.368002633334,
                    "velocity": 0.33858267716535434,
                    "duration": 1.1084910833332913
                },
                {
                    "name": "D2",
                    "midi": 38,
                    "time": 167.39158755000065,
                    "velocity": 0.1732283464566929,
                    "duration": 1.9292461833332766
                },
                {
                    "name": "E4",
                    "midi": 64,
                    "time": 168.10856901666727,
                    "velocity": 0.47244094488188976,
                    "duration": 0.3867926333333287
                },
                {
                    "name": "E3",
                    "midi": 52,
                    "time": 168.11800298333395,
                    "velocity": 0.28346456692913385,
                    "duration": 0.22641519999999105
                },
                {
                    "name": "F#4",
                    "midi": 66,
                    "time": 168.89630523333395,
                    "velocity": 0.4330708661417323,
                    "duration": 0.43867944999996666
                },
                {
                    "name": "F#3",
                    "midi": 54,
                    "time": 168.91045618333393,
                    "velocity": 0.2755905511811024,
                    "duration": 0.4009435833333157
                },
                {
                    "name": "D4",
                    "midi": 62,
                    "time": 168.93875808333394,
                    "velocity": 0.23622047244094488,
                    "duration": 0.4056605666666542
                },
                {
                    "name": "D3",
                    "midi": 50,
                    "time": 168.9481920500006,
                    "velocity": 0.1889763779527559,
                    "duration": 0.3113208999999699
                },
                {
                    "name": "G4",
                    "midi": 67,
                    "time": 169.83498491666725,
                    "velocity": 0.3543307086614173,
                    "duration": 0.5188681666666639
                },
                {
                    "name": "A#3",
                    "midi": 58,
                    "time": 169.8680038000006,
                    "velocity": 0.1732283464566929,
                    "duration": 0.41509453333333113
                },
                {
                    "name": "G3",
                    "midi": 55,
                    "time": 169.87743776666727,
                    "velocity": 0.1968503937007874,
                    "duration": 0.34433978333331083
                },
                {
                    "name": "D4",
                    "midi": 62,
                    "time": 169.87743776666727,
                    "velocity": 0.2677165354330709,
                    "duration": 0.41037754999999265
                },
                {
                    "name": "G2",
                    "midi": 43,
                    "time": 169.90102268333393,
                    "velocity": 0.11811023622047244,
                    "duration": 0.3867926333333287
                },
                {
                    "name": "G1",
                    "midi": 31,
                    "time": 169.9246076000006,
                    "velocity": 0.2047244094488189,
                    "duration": 0.3207548666666469
                },
                {
                    "name": "G5",
                    "midi": 79,
                    "time": 170.41517386666726,
                    "velocity": 0.4881889763779528,
                    "duration": 0.5801889499999504
                },
                {
                    "name": "A#5",
                    "midi": 82,
                    "time": 170.89630616666722,
                    "velocity": 0.49606299212598426,
                    "duration": 0.25943408333333196
                },
                {
                    "name": "C6",
                    "midi": 84,
                    "time": 171.26423086666722,
                    "velocity": 0.5984251968503937,
                    "duration": 0.16981139999998618
                },
                {
                    "name": "A#5",
                    "midi": 82,
                    "time": 171.2783818166672,
                    "velocity": 0.3779527559055118,
                    "duration": 0.0990566499999943
                },
                {
                    "name": "G5",
                    "midi": 79,
                    "time": 171.2925327666672,
                    "velocity": 0.3858267716535433,
                    "duration": 0.17452838333335308
                },
                {
                    "name": "D6",
                    "midi": 86,
                    "time": 171.62272160000055,
                    "velocity": 0.6062992125984252,
                    "duration": 0.19811330000001703
                },
                {
                    "name": "G5",
                    "midi": 79,
                    "time": 171.64158953333387,
                    "velocity": 0.4566929133858268,
                    "duration": 0.19811330000001703
                },
                {
                    "name": "A#5",
                    "midi": 82,
                    "time": 171.65102350000055,
                    "velocity": 0.30708661417322836,
                    "duration": 0.13207553333333522
                },
                {
                    "name": "F6",
                    "midi": 89,
                    "time": 171.97177836666722,
                    "velocity": 0.6614173228346457,
                    "duration": 0.2547170999999935
                },
                {
                    "name": "G5",
                    "midi": 79,
                    "time": 171.97649535000056,
                    "velocity": 0.4015748031496063,
                    "duration": 0.16037743333333765
                },
                {
                    "name": "A#5",
                    "midi": 82,
                    "time": 171.98592931666724,
                    "velocity": 0.41732283464566927,
                    "duration": 0.17452838333332465
                },
                {
                    "name": "D5",
                    "midi": 74,
                    "time": 172.1510237333339,
                    "velocity": 0.41732283464566927,
                    "duration": 0.49528324999999995
                },
                {
                    "name": "G5",
                    "midi": 79,
                    "time": 172.2689483166672,
                    "velocity": 0.4409448818897638,
                    "duration": 0.14150950000001217
                },
                {
                    "name": "A#5",
                    "midi": 82,
                    "time": 172.3255521166672,
                    "velocity": 0.3858267716535433,
                    "duration": 0.0849057000000073
                },
                {
                    "name": "F6",
                    "midi": 89,
                    "time": 172.40574083333388,
                    "velocity": 0.6062992125984252,
                    "duration": 0.37735866666665174
                },
                {
                    "name": "G6",
                    "midi": 91,
                    "time": 172.74536363333388,
                    "velocity": 0.3937007874015748,
                    "duration": 0.44339643333333356
                },
                {
                    "name": "A#5",
                    "midi": 82,
                    "time": 172.74536363333388,
                    "velocity": 0.4645669291338583,
                    "duration": 0.44339643333333356
                },
                {
                    "name": "G5",
                    "midi": 79,
                    "time": 172.75951458333387,
                    "velocity": 0.4015748031496063,
                    "duration": 0.39622660000000565
                },
                {
                    "name": "E6",
                    "midi": 88,
                    "time": 173.08026945000054,
                    "velocity": 0.6220472440944882,
                    "duration": 0.25943408333333196
                },
                {
                    "name": "D5",
                    "midi": 74,
                    "time": 173.08026945000054,
                    "velocity": 0.4094488188976378,
                    "duration": 0.25943408333333196
                },
                {
                    "name": "G6",
                    "midi": 91,
                    "time": 173.40574130000053,
                    "velocity": 0.3779527559055118,
                    "duration": 0.264151066666642
                },
                {
                    "name": "F6",
                    "midi": 89,
                    "time": 173.40574130000053,
                    "velocity": 0.3543307086614173,
                    "duration": 0.264151066666642
                },
                {
                    "name": "D6",
                    "midi": 86,
                    "time": 173.40574130000053,
                    "velocity": 0.5748031496062992,
                    "duration": 0.264151066666642
                },
                {
                    "name": "A#5",
                    "midi": 82,
                    "time": 173.41989225000052,
                    "velocity": 0.41732283464566927,
                    "duration": 0.5896229166666842
                },
                {
                    "name": "G5",
                    "midi": 79,
                    "time": 173.4340432000005,
                    "velocity": 0.4015748031496063,
                    "duration": 0.5283021333333409
                },
                {
                    "name": "D5",
                    "midi": 74,
                    "time": 173.43876018333384,
                    "velocity": 0.25196850393700787,
                    "duration": 0.3018869333333214
                },
                {
                    "name": "E6",
                    "midi": 88,
                    "time": 173.79725091666717,
                    "velocity": 0.5354330708661418,
                    "duration": 0.26415106666669885
                },
                {
                    "name": "C5",
                    "midi": 72,
                    "time": 173.81140186666718,
                    "velocity": 0.4094488188976378,
                    "duration": 0.16037743333333765
                },
                {
                    "name": "G4",
                    "midi": 67,
                    "time": 174.0236661166672,
                    "velocity": 0.3543307086614173,
                    "duration": 0.20754726666669399
                },
                {
                    "name": "C6",
                    "midi": 84,
                    "time": 174.09913785000055,
                    "velocity": 0.5511811023622047,
                    "duration": 0.3066039166666883
                },
                {
                    "name": "A#5",
                    "midi": 82,
                    "time": 174.11800578333387,
                    "velocity": 0.28346456692913385,
                    "duration": 0.06603776666668182
                },
                {
                    "name": "G5",
                    "midi": 79,
                    "time": 174.1227227666672,
                    "velocity": 0.3858267716535433,
                    "duration": 0.36792470000003163
                },
                {
                    "name": "C5",
                    "midi": 72,
                    "time": 174.23593036666722,
                    "velocity": 0.3228346456692913,
                    "duration": 0.037735866666679385
                },
                {
                    "name": "D6",
                    "midi": 86,
                    "time": 174.48121350000056,
                    "velocity": 0.6062992125984252,
                    "duration": 0.12735854999996832
                },
                {
                    "name": "D4",
                    "midi": 62,
                    "time": 174.54725126666722,
                    "velocity": 0.3464566929133858,
                    "duration": 0.12735854999996832
                },
                {
                    "name": "A4",
                    "midi": 69,
                    "time": 174.62743998333386,
                    "velocity": 0.4094488188976378,
                    "duration": 0.10849061666667126
                },
                {
                    "name": "D5",
                    "midi": 74,
                    "time": 174.67932680000052,
                    "velocity": 0.2204724409448819,
                    "duration": 0.028301900000002433
                },
                {
                    "name": "F5",
                    "midi": 77,
                    "time": 174.7170626666672,
                    "velocity": 0.3700787401574803,
                    "duration": 0.047169833333327915
                },
                {
                    "name": "A5",
                    "midi": 81,
                    "time": 174.76894948333387,
                    "velocity": 0.36220472440944884,
                    "duration": 0.047169833333327915
                },
                {
                    "name": "D6",
                    "midi": 86,
                    "time": 174.83027026666718,
                    "velocity": 0.48031496062992124,
                    "duration": 0.0849057000000073
                },
                {
                    "name": "A6",
                    "midi": 93,
                    "time": 175.04725150000053,
                    "velocity": 0.3937007874015748,
                    "duration": 0.0707547500000203
                },
                {
                    "name": "G3",
                    "midi": 55,
                    "time": 175.0566854666672,
                    "velocity": 0.3700787401574803,
                    "duration": 0.09905665000002273
                },
                {
                    "name": "D4",
                    "midi": 62,
                    "time": 175.06611943333388,
                    "velocity": 0.3700787401574803,
                    "duration": 0.1367925166666737
                },
                {
                    "name": "F4",
                    "midi": 65,
                    "time": 175.5472517333339,
                    "velocity": 0.5275590551181102,
                    "duration": 0.17452838333332465
                },
                {
                    "name": "A3",
                    "midi": 57,
                    "time": 175.56611966666722,
                    "velocity": 0.4566929133858268,
                    "duration": 0.07075474999999187
                },
                {
                    "name": "A4",
                    "midi": 69,
                    "time": 175.91045945000056,
                    "velocity": 0.5984251968503937,
                    "duration": 0.07547173333335877
                },
                {
                    "name": "C4",
                    "midi": 60,
                    "time": 175.9151764333339,
                    "velocity": 0.5196850393700787,
                    "duration": 0.08962268333334578
                },
                {
                    "name": "F4",
                    "midi": 65,
                    "time": 175.92932738333388,
                    "velocity": 0.41732283464566927,
                    "duration": 0.037735866666679385
                },
                {
                    "name": "D4",
                    "midi": 62,
                    "time": 175.96706325000056,
                    "velocity": 0.28346456692913385,
                    "duration": 0.06132078333334334
                },
                {
                    "name": "G3",
                    "midi": 55,
                    "time": 175.97649721666724,
                    "velocity": 0.28346456692913385,
                    "duration": 0.07547173333333035
                },
                {
                    "name": "F4",
                    "midi": 65,
                    "time": 176.24536526666725,
                    "velocity": 0.5511811023622047,
                    "duration": 0.08962268333331735
                },
                {
                    "name": "C4",
                    "midi": 60,
                    "time": 176.26423320000058,
                    "velocity": 0.4881889763779528,
                    "duration": 0.03301888333331249
                },
                {
                    "name": "A3",
                    "midi": 57,
                    "time": 176.2831011333339,
                    "velocity": 0.4094488188976378,
                    "duration": 0.047169833333327915
                },
                {
                    "name": "D4",
                    "midi": 62,
                    "time": 176.58498806666722,
                    "velocity": 0.5826771653543307,
                    "duration": 0.10377363333333278
                },
                {
                    "name": "A3",
                    "midi": 57,
                    "time": 176.58498806666722,
                    "velocity": 0.47244094488188976,
                    "duration": 0.03301888333334091
                },
                {
                    "name": "F3",
                    "midi": 53,
                    "time": 176.58970505000056,
                    "velocity": 0.3700787401574803,
                    "duration": 0.04245284999998944
                },
                {
                    "name": "G3",
                    "midi": 55,
                    "time": 176.64159186666723,
                    "velocity": 0.25196850393700787,
                    "duration": 0.1650944166666477
                },
                {
                    "name": "F4",
                    "midi": 65,
                    "time": 176.90574293333387,
                    "velocity": 0.5984251968503937,
                    "duration": 0.08490569999997888
                },
                {
                    "name": "A3",
                    "midi": 57,
                    "time": 176.9104599166672,
                    "velocity": 0.4015748031496063,
                    "duration": 0.03773586666665096
                },
                {
                    "name": "C4",
                    "midi": 60,
                    "time": 176.9104599166672,
                    "velocity": 0.4566929133858268,
                    "duration": 0.03301888333331249
                },
                {
                    "name": "C4",
                    "midi": 60,
                    "time": 177.0802713166672,
                    "velocity": 0.4566929133858268,
                    "duration": 0.1320755333333068
                },
                {
                    "name": "A4",
                    "midi": 69,
                    "time": 177.17461098333385,
                    "velocity": 0.6614173228346457,
                    "duration": 0.07547173333333035
                },
                {
                    "name": "F4",
                    "midi": 65,
                    "time": 177.19347891666717,
                    "velocity": 0.4251968503937008,
                    "duration": 0.028301900000002433
                },
                {
                    "name": "D5",
                    "midi": 74,
                    "time": 177.3963092000005,
                    "velocity": 0.7322834645669292,
                    "duration": 0.15094346666668912
                },
                {
                    "name": "A4",
                    "midi": 69,
                    "time": 177.40574316666718,
                    "velocity": 0.6220472440944882,
                    "duration": 0.05660380000000487
                },
                {
                    "name": "F4",
                    "midi": 65,
                    "time": 177.40574316666718,
                    "velocity": 0.5039370078740157,
                    "duration": 0.047169833333327915
                },
                {
                    "name": "E5",
                    "midi": 76,
                    "time": 177.72178105000052,
                    "velocity": 0.6929133858267716,
                    "duration": 0.5566040333333149
                },
                {
                    "name": "A4",
                    "midi": 69,
                    "time": 177.74064898333384,
                    "velocity": 0.47244094488188976,
                    "duration": 0.5424530833333279
                },
                {
                    "name": "F4",
                    "midi": 65,
                    "time": 177.75008295000052,
                    "velocity": 0.3700787401574803,
                    "duration": 0.5660379999999918
                },
                {
                    "name": "B3",
                    "midi": 59,
                    "time": 177.76423390000053,
                    "velocity": 0.49606299212598426,
                    "duration": 0.11792458333331979
                },
                {
                    "name": "D3",
                    "midi": 50,
                    "time": 177.77838485000052,
                    "velocity": 0.4330708661417323,
                    "duration": 0.0990566499999943
                },
                {
                    "name": "G2",
                    "midi": 43,
                    "time": 178.13687558333385,
                    "velocity": 0.5039370078740157,
                    "duration": 0.0990566499999943
                },
                {
                    "name": "F4",
                    "midi": 65,
                    "time": 178.72178151666716,
                    "velocity": 0.6062992125984252,
                    "duration": 0.08962268333334578
                },
                {
                    "name": "A3",
                    "midi": 57,
                    "time": 178.73121548333384,
                    "velocity": 0.4251968503937008,
                    "duration": 0.03301888333334091
                },
                {
                    "name": "C4",
                    "midi": 60,
                    "time": 178.73121548333384,
                    "velocity": 0.5039370078740157,
                    "duration": 0.03301888333334091
                },
                {
                    "name": "A4",
                    "midi": 69,
                    "time": 179.0661213000005,
                    "velocity": 0.6377952755905512,
                    "duration": 0.1037736333333612
                },
                {
                    "name": "C4",
                    "midi": 60,
                    "time": 179.07083828333384,
                    "velocity": 0.5196850393700787,
                    "duration": 0.03301888333334091
                },
                {
                    "name": "F4",
                    "midi": 65,
                    "time": 179.07083828333384,
                    "velocity": 0.5196850393700787,
                    "duration": 0.037735866666679385
                },
                {
                    "name": "D4",
                    "midi": 62,
                    "time": 179.09914018333384,
                    "velocity": 0.4566929133858268,
                    "duration": 0.19811330000001703
                },
                {
                    "name": "G3",
                    "midi": 55,
                    "time": 179.1180081166672,
                    "velocity": 0.3937007874015748,
                    "duration": 0.11320760000000973
                },
                {
                    "name": "D5",
                    "midi": 74,
                    "time": 179.37744220000053,
                    "velocity": 0.7007874015748031,
                    "duration": 0.235849166666668
                },
                {
                    "name": "A4",
                    "midi": 69,
                    "time": 179.39631013333386,
                    "velocity": 0.5433070866141733,
                    "duration": 0.08018871666666882
                },
                {
                    "name": "F4",
                    "midi": 65,
                    "time": 179.4010271166672,
                    "velocity": 0.4566929133858268,
                    "duration": 0.0990566499999943
                },
                {
                    "name": "C4",
                    "midi": 60,
                    "time": 179.4010271166672,
                    "velocity": 0.5511811023622047,
                    "duration": 0.0849057000000073
                },
                {
                    "name": "G3",
                    "midi": 55,
                    "time": 179.40574410000053,
                    "velocity": 0.3700787401574803,
                    "duration": 0.047169833333327915
                },
                {
                    "name": "E5",
                    "midi": 76,
                    "time": 179.77366880000054,
                    "velocity": 0.7322834645669292,
                    "duration": 0.750000349999965
                },
                {
                    "name": "A4",
                    "midi": 69,
                    "time": 179.78781975000052,
                    "velocity": 0.5354330708661418,
                    "duration": 0.7924531999999829
                },
                {
                    "name": "B3",
                    "midi": 59,
                    "time": 179.78781975000052,
                    "velocity": 0.5511811023622047,
                    "duration": 0.20754726666663714
                },
                {
                    "name": "F4",
                    "midi": 65,
                    "time": 179.79253673333386,
                    "velocity": 0.4566929133858268,
                    "duration": 0.7783022499999674
                },
                {
                    "name": "D3",
                    "midi": 50,
                    "time": 179.82083863333386,
                    "velocity": 0.47244094488188976,
                    "duration": 0.1320755333333068
                },
                {
                    "name": "G2",
                    "midi": 43,
                    "time": 180.20763126666716,
                    "velocity": 0.4330708661417323,
                    "duration": 0.07547173333333035
                },
                {
                    "name": "E5",
                    "midi": 76,
                    "time": 180.90102781666718,
                    "velocity": 0.6062992125984252,
                    "duration": 0.2924529666667013
                },
                {
                    "name": "A4",
                    "midi": 69,
                    "time": 180.90574480000052,
                    "velocity": 0.4409448818897638,
                    "duration": 0.19811330000001703
                },
                {
                    "name": "F4",
                    "midi": 65,
                    "time": 180.92461273333384,
                    "velocity": 0.36220472440944884,
                    "duration": 0.35377375000004463
                },
                {
                    "name": "B3",
                    "midi": 59,
                    "time": 180.93404670000052,
                    "velocity": 0.4015748031496063,
                    "duration": 0.2028302833333555
                },
                {
                    "name": "G3",
                    "midi": 55,
                    "time": 180.93876368333386,
                    "velocity": 0.31496062992125984,
                    "duration": 0.19339631666667856
                },
                {
                    "name": "C5",
                    "midi": 72,
                    "time": 181.36800916666724,
                    "velocity": 0.5511811023622047,
                    "duration": 1.0283023666665656
                },
                {
                    "name": "C3",
                    "midi": 48,
                    "time": 181.41046201666722,
                    "velocity": 0.28346456692913385,
                    "duration": 0.22169821666665257
                },
                {
                    "name": "G3",
                    "midi": 55,
                    "time": 181.46706581666723,
                    "velocity": 0.007874015748031496,
                    "duration": 0.1792453666666347
                },
                {
                    "name": "G4",
                    "midi": 67,
                    "time": 181.73121688333387,
                    "velocity": 0.3543307086614173,
                    "duration": 0.6179248166666014
                },
                {
                    "name": "F4",
                    "midi": 65,
                    "time": 181.75480180000054,
                    "velocity": 0.28346456692913385,
                    "duration": 0.5754719666666119
                },
                {
                    "name": "G5",
                    "midi": 79,
                    "time": 182.1604623666672,
                    "velocity": 0.29133858267716534,
                    "duration": 0.26886804999995206
                },
                {
                    "name": "F5",
                    "midi": 77,
                    "time": 182.17461331666718,
                    "velocity": 0.2992125984251969,
                    "duration": 0.2452831333332881
                },
                {
                    "name": "C5",
                    "midi": 72,
                    "time": 182.59442483333382,
                    "velocity": 0.2677165354330709,
                    "duration": 0.23584916666663958
                },
                {
                    "name": "E4",
                    "midi": 64,
                    "time": 182.6085757833338,
                    "velocity": 0.25196850393700787,
                    "duration": 0.13207553333333522
                },
                {
                    "name": "G4",
                    "midi": 67,
                    "time": 182.61800975000048,
                    "velocity": 0.2047244094488189,
                    "duration": 0.13679251666664527
                },
                {
                    "name": "D#5",
                    "midi": 75,
                    "time": 183.15102886666713,
                    "velocity": 0.5433070866141733,
                    "duration": 0.264151066666642
                },
                {
                    "name": "D#4",
                    "midi": 63,
                    "time": 183.2170666333338,
                    "velocity": 0.25984251968503935,
                    "duration": 1.1273590166666168
                },
                {
                    "name": "C5",
                    "midi": 72,
                    "time": 183.22178361666712,
                    "velocity": 0.1732283464566929,
                    "duration": 0.07075474999999187
                },
                {
                    "name": "F5",
                    "midi": 77,
                    "time": 183.5472554666671,
                    "velocity": 0.6456692913385826,
                    "duration": 0.1981132999999886
                },
                {
                    "name": "D5",
                    "midi": 74,
                    "time": 183.57084038333377,
                    "velocity": 0.4409448818897638,
                    "duration": 0.20754726666666556
                },
                {
                    "name": "G5",
                    "midi": 79,
                    "time": 183.86801033333379,
                    "velocity": 0.6456692913385826,
                    "duration": 0.1650944166666477
                },
                {
                    "name": "D#5",
                    "midi": 75,
                    "time": 183.8868782666671,
                    "velocity": 0.4645669291338583,
                    "duration": 0.17452838333332465
                },
                {
                    "name": "C5",
                    "midi": 72,
                    "time": 183.9010292166671,
                    "velocity": 0.4251968503937008,
                    "duration": 0.08962268333334578
                },
                {
                    "name": "A#5",
                    "midi": 82,
                    "time": 184.20763313333376,
                    "velocity": 0.6614173228346457,
                    "duration": 0.3820756499999902
                },
                {
                    "name": "A#4",
                    "midi": 70,
                    "time": 184.22178408333374,
                    "velocity": 0.3779527559055118,
                    "duration": 0.13207553333333522
                },
                {
                    "name": "D#5",
                    "midi": 75,
                    "time": 184.22650106666708,
                    "velocity": 0.4566929133858268,
                    "duration": 0.30660391666665987
                },
                {
                    "name": "C5",
                    "midi": 72,
                    "time": 184.23121805000042,
                    "velocity": 0.5196850393700787,
                    "duration": 0.16037743333330923
                },
                {
                    "name": "G4",
                    "midi": 67,
                    "time": 184.42461436666707,
                    "velocity": 0.3779527559055118,
                    "duration": 0.3962265999999772
                },
                {
                    "name": "A#4",
                    "midi": 70,
                    "time": 184.52367101666707,
                    "velocity": 0.4251968503937008,
                    "duration": 0.46226436666665904
                },
                {
                    "name": "C5",
                    "midi": 72,
                    "time": 184.60385973333373,
                    "velocity": 0.4409448818897638,
                    "duration": 0.12264156666665826
                },
                {
                    "name": "D#5",
                    "midi": 75,
                    "time": 184.64631258333372,
                    "velocity": 0.44881889763779526,
                    "duration": 0.10849061666667126
                },
                {
                    "name": "A#5",
                    "midi": 82,
                    "time": 184.72178431666705,
                    "velocity": 0.49606299212598426,
                    "duration": 0.46226436666668747
                },
                {
                    "name": "D#5",
                    "midi": 75,
                    "time": 185.07555806666707,
                    "velocity": 0.4881889763779528,
                    "duration": 0.4245285000000081
                },
                {
                    "name": "D#4",
                    "midi": 63,
                    "time": 185.07555806666707,
                    "velocity": 0.3937007874015748,
                    "duration": 0.4245285000000081
                },
                {
                    "name": "A5",
                    "midi": 81,
                    "time": 185.41046388333373,
                    "velocity": 0.6377952755905512,
                    "duration": 0.09905665000002273
                },
                {
                    "name": "C3",
                    "midi": 48,
                    "time": 185.41046388333373,
                    "velocity": 0.3858267716535433,
                    "duration": 0.05188681666666639
                },
                {
                    "name": "C5",
                    "midi": 72,
                    "time": 185.42933181666706,
                    "velocity": 0.14960629921259844,
                    "duration": 0.07547173333335877
                },
                {
                    "name": "C3",
                    "midi": 48,
                    "time": 185.6981998666671,
                    "velocity": 0.3543307086614173,
                    "duration": 0.028301900000002433
                },
                {
                    "name": "G5",
                    "midi": 79,
                    "time": 185.79253953333375,
                    "velocity": 0.6456692913385826,
                    "duration": 0.12735854999999674
                },
                {
                    "name": "D#5",
                    "midi": 75,
                    "time": 185.83027540000043,
                    "velocity": 0.41732283464566927,
                    "duration": 0.14150949999998375
                },
                {
                    "name": "D#4",
                    "midi": 63,
                    "time": 185.83499238333377,
                    "velocity": 0.33070866141732286,
                    "duration": 0.08490569999997888
                },
                {
                    "name": "D4",
                    "midi": 62,
                    "time": 185.83499238333377,
                    "velocity": 0.33070866141732286,
                    "duration": 0.08490569999997888
                },
                {
                    "name": "G4",
                    "midi": 67,
                    "time": 185.83499238333377,
                    "velocity": 0.4251968503937008,
                    "duration": 0.056603799999976445
                },
                {
                    "name": "C5",
                    "midi": 72,
                    "time": 185.84914333333376,
                    "velocity": 0.4015748031496063,
                    "duration": 0.05188681666666639
                },
                {
                    "name": "A5",
                    "midi": 81,
                    "time": 186.21706803333376,
                    "velocity": 0.5905511811023622,
                    "duration": 0.26415106666669885
                },
                {
                    "name": "F4",
                    "midi": 65,
                    "time": 186.25952088333378,
                    "velocity": 0.3779527559055118,
                    "duration": 0.1367925166666737
                },
                {
                    "name": "C4",
                    "midi": 60,
                    "time": 186.47178513333378,
                    "velocity": 0.3464566929133858,
                    "duration": 0.19811330000001703
                },
                {
                    "name": "F5",
                    "midi": 77,
                    "time": 186.57555876666711,
                    "velocity": 0.5590551181102362,
                    "duration": 0.09433966666668425
                },
                {
                    "name": "A4",
                    "midi": 69,
                    "time": 186.58027575000045,
                    "velocity": 0.3543307086614173,
                    "duration": 0.047169833333327915
                },
                {
                    "name": "D#5",
                    "midi": 75,
                    "time": 186.5849927333338,
                    "velocity": 0.29133858267716534,
                    "duration": 0.07547173333333035
                },
                {
                    "name": "F4",
                    "midi": 65,
                    "time": 186.67933240000048,
                    "velocity": 0.2755905511811024,
                    "duration": 0.08962268333334578
                },
                {
                    "name": "G5",
                    "midi": 79,
                    "time": 186.94348346666715,
                    "velocity": 0.5984251968503937,
                    "duration": 0.17452838333332465
                },
                {
                    "name": "G3",
                    "midi": 55,
                    "time": 187.02367218333382,
                    "velocity": 0.28346456692913385,
                    "duration": 0.26415106666667043
                },
                {
                    "name": "D4",
                    "midi": 62,
                    "time": 187.1368797833338,
                    "velocity": 0.2992125984251969,
                    "duration": 0.10849061666667126
                },
                {
                    "name": "G4",
                    "midi": 67,
                    "time": 187.18876660000046,
                    "velocity": 0.31496062992125984,
                    "duration": 0.047169833333327915
                },
                {
                    "name": "A#4",
                    "midi": 70,
                    "time": 187.21706850000047,
                    "velocity": 0.33858267716535434,
                    "duration": 0.037735866666679385
                },
                {
                    "name": "D5",
                    "midi": 74,
                    "time": 187.31140816666715,
                    "velocity": 0.4645669291338583,
                    "duration": 0.04245284999998944
                },
                {
                    "name": "G5",
                    "midi": 79,
                    "time": 187.36801196666713,
                    "velocity": 0.4645669291338583,
                    "duration": 0.04245284999998944
                },
                {
                    "name": "D6",
                    "midi": 86,
                    "time": 187.53310638333377,
                    "velocity": 0.5275590551181102,
                    "duration": 0.05188681666666639
                },
                {
                    "name": "C2",
                    "midi": 36,
                    "time": 187.5802762166671,
                    "velocity": 0.25196850393700787,
                    "duration": 0.037735866666679385
                },
                {
                    "name": "G2",
                    "midi": 43,
                    "time": 187.5802762166671,
                    "velocity": 0.2755905511811024,
                    "duration": 0.037735866666679385
                },
                {
                    "name": "A#4",
                    "midi": 70,
                    "time": 188.00952170000045,
                    "velocity": 0.5354330708661418,
                    "duration": 0.15566044999997075
                },
                {
                    "name": "F4",
                    "midi": 65,
                    "time": 188.02838963333377,
                    "velocity": 0.47244094488188976,
                    "duration": 0.07075474999999187
                },
                {
                    "name": "D4",
                    "midi": 62,
                    "time": 188.02838963333377,
                    "velocity": 0.4566929133858268,
                    "duration": 0.05660380000000487
                },
                {
                    "name": "D5",
                    "midi": 74,
                    "time": 188.37744640000042,
                    "velocity": 0.5826771653543307,
                    "duration": 0.19339631666665014
                },
                {
                    "name": "F4",
                    "midi": 65,
                    "time": 188.3868803666671,
                    "velocity": 0.4015748031496063,
                    "duration": 0.11320759999998131
                },
                {
                    "name": "D4",
                    "midi": 62,
                    "time": 188.40574830000043,
                    "velocity": 0.33070866141732286,
                    "duration": 0.14150949999998375
                },
                {
                    "name": "A#4",
                    "midi": 70,
                    "time": 188.7029182500004,
                    "velocity": 0.5590551181102362,
                    "duration": 0.08962268333334578
                },
                {
                    "name": "A#3",
                    "midi": 58,
                    "time": 188.7170692000004,
                    "velocity": 0.3464566929133858,
                    "duration": 0.02358491666669238
                },
                {
                    "name": "F4",
                    "midi": 65,
                    "time": 188.72650316666707,
                    "velocity": 0.33070866141732286,
                    "duration": 0.04245285000001786
                },
                {
                    "name": "D4",
                    "midi": 62,
                    "time": 188.7312201500004,
                    "velocity": 0.4015748031496063,
                    "duration": 0.05660380000000487
                },
                {
                    "name": "G4",
                    "midi": 67,
                    "time": 189.06140898333376,
                    "velocity": 0.5511811023622047,
                    "duration": 0.11320760000003816
                },
                {
                    "name": "A#3",
                    "midi": 58,
                    "time": 189.0661259666671,
                    "velocity": 0.33858267716535434,
                    "duration": 0.0707547500000203
                },
                {
                    "name": "D4",
                    "midi": 62,
                    "time": 189.07084295000044,
                    "velocity": 0.4094488188976378,
                    "duration": 0.07547173333335877
                },
                {
                    "name": "G3",
                    "midi": 55,
                    "time": 189.08027691666712,
                    "velocity": 0.4094488188976378,
                    "duration": 0.03301888333334091
                },
                {
                    "name": "C2",
                    "midi": 36,
                    "time": 189.10386183333378,
                    "velocity": 0.3937007874015748,
                    "duration": 0.04716983333335634
                },
                {
                    "name": "G2",
                    "midi": 43,
                    "time": 189.12272976666713,
                    "velocity": 0.25196850393700787,
                    "duration": 0.04245284999998944
                },
                {
                    "name": "A#4",
                    "midi": 70,
                    "time": 189.4151827333338,
                    "velocity": 0.6299212598425197,
                    "duration": 0.07547173333330193
                },
                {
                    "name": "D4",
                    "midi": 62,
                    "time": 189.4293336833338,
                    "velocity": 0.3464566929133858,
                    "duration": 0.04245284999998944
                },
                {
                    "name": "A#3",
                    "midi": 58,
                    "time": 189.45291860000046,
                    "velocity": 0.3937007874015748,
                    "duration": 0.18396234999997318
                },
                {
                    "name": "D5",
                    "midi": 74,
                    "time": 189.66989983333377,
                    "velocity": 0.7322834645669292,
                    "duration": 0.08962268333331735
                },
                {
                    "name": "D4",
                    "midi": 62,
                    "time": 189.68405078333376,
                    "velocity": 0.5354330708661418,
                    "duration": 0.08018871666666882
                },
                {
                    "name": "A#4",
                    "midi": 70,
                    "time": 189.68405078333376,
                    "velocity": 0.5039370078740157,
                    "duration": 0.028301900000002433
                },
                {
                    "name": "F5",
                    "midi": 77,
                    "time": 189.91989995000043,
                    "velocity": 0.7401574803149606,
                    "duration": 0.10377363333333278
                },
                {
                    "name": "F4",
                    "midi": 65,
                    "time": 189.93405090000041,
                    "velocity": 0.4645669291338583,
                    "duration": 0.0707547500000203
                },
                {
                    "name": "D5",
                    "midi": 74,
                    "time": 189.93876788333375,
                    "velocity": 0.5275590551181102,
                    "duration": 0.03301888333334091
                },
                {
                    "name": "A4",
                    "midi": 69,
                    "time": 189.9434848666671,
                    "velocity": 0.5118110236220472,
                    "duration": 0.028301900000002433
                },
                {
                    "name": "A#3",
                    "midi": 58,
                    "time": 189.9434848666671,
                    "velocity": 0.4015748031496063,
                    "duration": 0.09433966666665583
                },
                {
                    "name": "A5",
                    "midi": 81,
                    "time": 190.2548057666671,
                    "velocity": 0.7086614173228346,
                    "duration": 0.7216984500000194
                },
                {
                    "name": "A#4",
                    "midi": 70,
                    "time": 190.27367370000042,
                    "velocity": 0.4409448818897638,
                    "duration": 0.7405663833333733
                },
                {
                    "name": "D5",
                    "midi": 74,
                    "time": 190.2831076666671,
                    "velocity": 0.5275590551181102,
                    "duration": 0.669811633333353
                },
                {
                    "name": "E4",
                    "midi": 64,
                    "time": 190.28782465000043,
                    "velocity": 0.49606299212598426,
                    "duration": 0.12264156666665826
                },
                {
                    "name": "G3",
                    "midi": 55,
                    "time": 190.3114095666671,
                    "velocity": 0.4566929133858268,
                    "duration": 0.11320760000000973
                },
                {
                    "name": "G2",
                    "midi": 43,
                    "time": 190.80197583333378,
                    "velocity": 0.4409448818897638,
                    "duration": 0.03301888333334091
                },
                {
                    "name": "C2",
                    "midi": 36,
                    "time": 190.80197583333378,
                    "velocity": 0.44881889763779526,
                    "duration": 0.03301888333334091
                },
                {
                    "name": "A#3",
                    "midi": 58,
                    "time": 191.40574970000046,
                    "velocity": 0.4566929133858268,
                    "duration": 0.06603776666668182
                },
                {
                    "name": "A#4",
                    "midi": 70,
                    "time": 191.4104666833338,
                    "velocity": 0.6062992125984252,
                    "duration": 0.09905665000002273
                },
                {
                    "name": "F4",
                    "midi": 65,
                    "time": 191.42933461666712,
                    "velocity": 0.44881889763779526,
                    "duration": 0.03301888333334091
                },
                {
                    "name": "D4",
                    "midi": 62,
                    "time": 191.44820255000045,
                    "velocity": 0.2283464566929134,
                    "duration": 0.028301900000030855
                },
                {
                    "name": "G3",
                    "midi": 55,
                    "time": 191.45291953333378,
                    "velocity": 0.4566929133858268,
                    "duration": 0.1037736333333612
                },
                {
                    "name": "D3",
                    "midi": 50,
                    "time": 191.46235350000046,
                    "velocity": 0.4409448818897638,
                    "duration": 0.08962268333334578
                },
                {
                    "name": "A#4",
                    "midi": 70,
                    "time": 191.7359385333338,
                    "velocity": 0.5748031496062992,
                    "duration": 0.0849057000000073
                },
                {
                    "name": "D4",
                    "midi": 62,
                    "time": 191.74065551666715,
                    "velocity": 0.5748031496062992,
                    "duration": 0.05660380000000487
                },
                {
                    "name": "D5",
                    "midi": 74,
                    "time": 191.74065551666715,
                    "velocity": 0.6850393700787402,
                    "duration": 0.10377363333333278
                },
                {
                    "name": "F4",
                    "midi": 65,
                    "time": 191.75952345000047,
                    "velocity": 0.33858267716535434,
                    "duration": 0.037735866666679385
                },
                {
                    "name": "F3",
                    "midi": 53,
                    "time": 191.75952345000047,
                    "velocity": 0.5196850393700787,
                    "duration": 0.037735866666679385
                },
                {
                    "name": "A#3",
                    "midi": 58,
                    "time": 191.7642404333338,
                    "velocity": 0.4251968503937008,
                    "duration": 0.06603776666668182
                },
                {
                    "name": "F5",
                    "midi": 77,
                    "time": 192.0755613333338,
                    "velocity": 0.7401574803149606,
                    "duration": 0.14150950000001217
                },
                {
                    "name": "F4",
                    "midi": 65,
                    "time": 192.0849953000005,
                    "velocity": 0.6062992125984252,
                    "duration": 0.0660377666666534
                },
                {
                    "name": "D5",
                    "midi": 74,
                    "time": 192.0849953000005,
                    "velocity": 0.6141732283464567,
                    "duration": 0.10849061666667126
                },
                {
                    "name": "A4",
                    "midi": 69,
                    "time": 192.08971228333382,
                    "velocity": 0.5039370078740157,
                    "duration": 0.03773586666665096
                },
                {
                    "name": "A3",
                    "midi": 57,
                    "time": 192.1038632333338,
                    "velocity": 0.44881889763779526,
                    "duration": 0.0849057000000073
                },
                {
                    "name": "D4",
                    "midi": 62,
                    "time": 192.1038632333338,
                    "velocity": 0.47244094488188976,
                    "duration": 0.08018871666666882
                },
                {
                    "name": "A#3",
                    "midi": 58,
                    "time": 192.12273116666714,
                    "velocity": 0.30708661417322836,
                    "duration": 0.05188681666666639
                },
                {
                    "name": "A5",
                    "midi": 81,
                    "time": 192.50480681666716,
                    "velocity": 0.7244094488188977,
                    "duration": 0.8066041500000267
                },
                {
                    "name": "A#4",
                    "midi": 70,
                    "time": 192.51424078333383,
                    "velocity": 0.5354330708661418,
                    "duration": 0.6792456000000016
                },
                {
                    "name": "D5",
                    "midi": 74,
                    "time": 192.51424078333383,
                    "velocity": 0.5433070866141733,
                    "duration": 0.6556606833333376
                },
                {
                    "name": "A4",
                    "midi": 69,
                    "time": 192.51424078333383,
                    "velocity": 0.4881889763779528,
                    "duration": 0.8113211333333368
                },
                {
                    "name": "E4",
                    "midi": 64,
                    "time": 192.53310871666716,
                    "velocity": 0.5196850393700787,
                    "duration": 0.09433966666668425
                },
                {
                    "name": "A#3",
                    "midi": 58,
                    "time": 192.5378257000005,
                    "velocity": 0.41732283464566927,
                    "duration": 0.11320760000000973
                },
                {
                    "name": "G3",
                    "midi": 55,
                    "time": 192.54725966666717,
                    "velocity": 0.4566929133858268,
                    "duration": 0.10377363333333278
                },
                {
                    "name": "G2",
                    "midi": 43,
                    "time": 193.0048070500005,
                    "velocity": 0.5511811023622047,
                    "duration": 0.21698123333334252
                },
                {
                    "name": "C2",
                    "midi": 36,
                    "time": 193.01424101666717,
                    "velocity": 0.4409448818897638,
                    "duration": 0.15566044999999917
                },
                {
                    "name": "A5",
                    "midi": 81,
                    "time": 193.8114112000005,
                    "velocity": 0.6377952755905512,
                    "duration": 0.1367925166666737
                },
                {
                    "name": "A4",
                    "midi": 69,
                    "time": 193.83027913333382,
                    "velocity": 0.5196850393700787,
                    "duration": 0.1367925166666737
                },
                {
                    "name": "C5",
                    "midi": 72,
                    "time": 193.8397131000005,
                    "velocity": 0.4881889763779528,
                    "duration": 0.0990566499999943
                },
                {
                    "name": "E5",
                    "midi": 76,
                    "time": 193.84443008333383,
                    "velocity": 0.5196850393700787,
                    "duration": 0.08490569999997888
                },
                {
                    "name": "E4",
                    "midi": 64,
                    "time": 193.8538640500005,
                    "velocity": 0.3937007874015748,
                    "duration": 0.0990566499999943
                },
                {
                    "name": "A#3",
                    "midi": 58,
                    "time": 193.8680150000005,
                    "velocity": 0.25984251968503935,
                    "duration": 0.0990566499999943
                },
                {
                    "name": "C4",
                    "midi": 60,
                    "time": 193.88688293333382,
                    "velocity": 0.33070866141732286,
                    "duration": 0.047169833333327915
                },
                {
                    "name": "F5",
                    "midi": 77,
                    "time": 194.33027936666716,
                    "velocity": 0.6141732283464567,
                    "duration": 0.6650946499999577
                },
                {
                    "name": "F4",
                    "midi": 65,
                    "time": 194.34914730000048,
                    "velocity": 0.41732283464566927,
                    "duration": 0.8254720833332954
                },
                {
                    "name": "A#4",
                    "midi": 70,
                    "time": 194.34914730000048,
                    "velocity": 0.31496062992125984,
                    "duration": 0.1367925166666737
                },
                {
                    "name": "A#3",
                    "midi": 58,
                    "time": 194.34914730000048,
                    "velocity": 0.23622047244094488,
                    "duration": 0.27830201666665744
                },
                {
                    "name": "C5",
                    "midi": 72,
                    "time": 194.35858126666716,
                    "velocity": 0.4881889763779528,
                    "duration": 0.7830192333333059
                },
                {
                    "name": "C4",
                    "midi": 60,
                    "time": 194.36801523333384,
                    "velocity": 0.3464566929133858,
                    "duration": 0.7924531999999544
                },
                {
                    "name": "F3",
                    "midi": 53,
                    "time": 194.38216618333382,
                    "velocity": 0.3779527559055118,
                    "duration": 0.7783022499999674
                },
                {
                    "name": "A4",
                    "midi": 69,
                    "time": 194.73122295000047,
                    "velocity": 0.4330708661417323,
                    "duration": 0.12264156666662984
                },
                {
                    "name": "A3",
                    "midi": 57,
                    "time": 194.76895881666712,
                    "velocity": 0.31496062992125984,
                    "duration": 0.2169812333333141
                },
                {
                    "name": "G#4",
                    "midi": 68,
                    "time": 195.10858161666712,
                    "velocity": 0.4015748031496063,
                    "duration": 0.11320759999998131
                },
                {
                    "name": "G#3",
                    "midi": 56,
                    "time": 195.10858161666712,
                    "velocity": 0.3543307086614173,
                    "duration": 0.09433966666665583
                },
                {
                    "name": "D#5",
                    "midi": 75,
                    "time": 195.45763838333377,
                    "velocity": 0.5748031496062992,
                    "duration": 0.12264156666674353
                },
                {
                    "name": "D#4",
                    "midi": 63,
                    "time": 195.4717893333338,
                    "velocity": 0.4015748031496063,
                    "duration": 0.10377363333338963
                },
                {
                    "name": "G4",
                    "midi": 67,
                    "time": 195.48594028333378,
                    "velocity": 0.4566929133858268,
                    "duration": 0.061320783333371764
                },
                {
                    "name": "B4",
                    "midi": 71,
                    "time": 195.49537425000045,
                    "velocity": 0.36220472440944884,
                    "duration": 0.04245285000001786
                },
                {
                    "name": "B3",
                    "midi": 59,
                    "time": 195.50480821666713,
                    "velocity": 0.3858267716535433,
                    "duration": 0.05660380000003329
                },
                {
                    "name": "G3",
                    "midi": 55,
                    "time": 195.50952520000047,
                    "velocity": 0.36220472440944884,
                    "duration": 0.05188681666669481
                },
                {
                    "name": "F3",
                    "midi": 53,
                    "time": 195.51895916666714,
                    "velocity": 0.3464566929133858,
                    "duration": 0.05188681666669481
                },
                {
                    "name": "C5",
                    "midi": 72,
                    "time": 195.88216688333384,
                    "velocity": 0.5511811023622047,
                    "duration": 0.7971701833333213
                },
                {
                    "name": "C4",
                    "midi": 60,
                    "time": 195.89631783333382,
                    "velocity": 0.3779527559055118,
                    "duration": 0.8584909666666931
                },
                {
                    "name": "F4",
                    "midi": 65,
                    "time": 195.9057518000005,
                    "velocity": 0.36220472440944884,
                    "duration": 0.20283028333329867
                },
                {
                    "name": "G4",
                    "midi": 67,
                    "time": 195.9057518000005,
                    "velocity": 0.23622047244094488,
                    "duration": 0.7688682833333189
                },
                {
                    "name": "F3",
                    "midi": 53,
                    "time": 195.91046878333384,
                    "velocity": 0.36220472440944884,
                    "duration": 0.2500001166666266
                },
                {
                    "name": "G3",
                    "midi": 55,
                    "time": 195.91990275000052,
                    "velocity": 0.25984251968503935,
                    "duration": 0.8113211333333084
                },
                {
                    "name": "C3",
                    "midi": 48,
                    "time": 195.9340537000005,
                    "velocity": 0.33858267716535434,
                    "duration": 0.8018871666666598
                },
                {
                    "name": "E4",
                    "midi": 64,
                    "time": 196.28311046666713,
                    "velocity": 0.4094488188976378,
                    "duration": 0.13207553333333522
                },
                {
                    "name": "E3",
                    "midi": 52,
                    "time": 196.30197840000045,
                    "velocity": 0.3464566929133858,
                    "duration": 0.221698216666681
                },
                {
                    "name": "D#3",
                    "midi": 51,
                    "time": 196.66518611666714,
                    "velocity": 0.3464566929133858,
                    "duration": 0.08018871666669725
                },
                {
                    "name": "D#4",
                    "midi": 63,
                    "time": 196.67933706666716,
                    "velocity": 0.3858267716535433,
                    "duration": 0.09905665000002273
                },
                {
                    "name": "A#4",
                    "midi": 70,
                    "time": 197.06612970000052,
                    "velocity": 0.5039370078740157,
                    "duration": 0.11320759999995289
                },
                {
                    "name": "A#3",
                    "midi": 58,
                    "time": 197.0755636666672,
                    "velocity": 0.33070866141732286,
                    "duration": 0.13679251666661685
                },
                {
                    "name": "F#4",
                    "midi": 66,
                    "time": 197.08971461666718,
                    "velocity": 0.3700787401574803,
                    "duration": 0.08490569999995046
                },
                {
                    "name": "D4",
                    "midi": 62,
                    "time": 197.08971461666718,
                    "velocity": 0.4566929133858268,
                    "duration": 0.08490569999995046
                },
                {
                    "name": "F#3",
                    "midi": 54,
                    "time": 197.08971461666718,
                    "velocity": 0.31496062992125984,
                    "duration": 0.08962268333328893
                },
                {
                    "name": "D3",
                    "midi": 50,
                    "time": 197.1085825500005,
                    "velocity": 0.41732283464566927,
                    "duration": 0.03773586666665096
                },
                {
                    "name": "C3",
                    "midi": 48,
                    "time": 197.1227335000005,
                    "velocity": 0.3543307086614173,
                    "duration": 0.03773586666665096
                },
                {
                    "name": "G4",
                    "midi": 67,
                    "time": 197.53782803333382,
                    "velocity": 0.49606299212598426,
                    "duration": 0.39150961666663875
                },
                {
                    "name": "G3",
                    "midi": 55,
                    "time": 197.55669596666715,
                    "velocity": 0.29133858267716534,
                    "duration": 0.37735866666665174
                },
                {
                    "name": "D4",
                    "midi": 62,
                    "time": 197.5614129500005,
                    "velocity": 0.3700787401574803,
                    "duration": 0.7641512999999804
                },
                {
                    "name": "C4",
                    "midi": 60,
                    "time": 197.56612993333383,
                    "velocity": 0.3779527559055118,
                    "duration": 1.3254723166666054
                },
                {
                    "name": "D3",
                    "midi": 50,
                    "time": 197.58499786666715,
                    "velocity": 0.2755905511811024,
                    "duration": 1.5613214833332734
                },
                {
                    "name": "D2",
                    "midi": 38,
                    "time": 197.6180167500005,
                    "velocity": 0.1889763779527559,
                    "duration": 2.070755683333232
                },
                {
                    "name": "E4",
                    "midi": 64,
                    "time": 198.3727340833338,
                    "velocity": 0.4645669291338583,
                    "duration": 0.5471700666666379
                },
                {
                    "name": "E3",
                    "midi": 52,
                    "time": 198.38688503333378,
                    "velocity": 0.25984251968503935,
                    "duration": 0.2830189999999959
                },
                {
                    "name": "F#4",
                    "midi": 66,
                    "time": 199.26896091666708,
                    "velocity": 0.4251968503937008,
                    "duration": 0.4528303999999821
                },
                {
                    "name": "F#3",
                    "midi": 54,
                    "time": 199.28311186666707,
                    "velocity": 0.2677165354330709,
                    "duration": 0.41509453333333113
                },
                {
                    "name": "D3",
                    "midi": 50,
                    "time": 199.3019798000004,
                    "velocity": 0.06299212598425197,
                    "duration": 0.3396228000000008
                },
                {
                    "name": "D4",
                    "midi": 62,
                    "time": 199.33499868333374,
                    "velocity": 0.16535433070866143,
                    "duration": 0.39622660000000565
                },
                {
                    "name": "C4",
                    "midi": 60,
                    "time": 199.33499868333374,
                    "velocity": 0.16535433070866143,
                    "duration": 0.35849073333332626
                },
                {
                    "name": "G4",
                    "midi": 67,
                    "time": 200.21707456666707,
                    "velocity": 0.4094488188976378,
                    "duration": 0.38207565000001864
                },
                {
                    "name": "A#3",
                    "midi": 58,
                    "time": 200.24065948333373,
                    "velocity": 0.2204724409448819,
                    "duration": 0.3726416833333701
                },
                {
                    "name": "G3",
                    "midi": 55,
                    "time": 200.2500934500004,
                    "velocity": 0.2677165354330709,
                    "duration": 0.34433978333333926
                },
                {
                    "name": "D4",
                    "midi": 62,
                    "time": 200.25481043333374,
                    "velocity": 0.29133858267716534,
                    "duration": 0.34905676666667773
                },
                {
                    "name": "G2",
                    "midi": 43,
                    "time": 200.26424440000042,
                    "velocity": 0.2755905511811024,
                    "duration": 0.2830189999999959
                },
                {
                    "name": "G1",
                    "midi": 31,
                    "time": 200.2736783666671,
                    "velocity": 0.2283464566929134,
                    "duration": 0.264151066666642
                },
                {
                    "name": "D4",
                    "midi": 62,
                    "time": 202.67933986666705,
                    "velocity": 0.31496062992125984,
                    "duration": 0.047169833333327915
                },
                {
                    "name": "G2",
                    "midi": 43,
                    "time": 202.75009461666704,
                    "velocity": 0.2677165354330709,
                    "duration": 0.221698216666681
                },
                {
                    "name": "G5",
                    "midi": 79,
                    "time": 202.93877395000038,
                    "velocity": 0.5748031496062992,
                    "duration": 0.19339631666667856
                },
                {
                    "name": "B3",
                    "midi": 59,
                    "time": 202.96707585000038,
                    "velocity": 0.2677165354330709,
                    "duration": 0.08962268333334578
                },
                {
                    "name": "B4",
                    "midi": 71,
                    "time": 203.21707596666707,
                    "velocity": 0.3700787401574803,
                    "duration": 0.1839623500000016
                },
                {
                    "name": "D5",
                    "midi": 74,
                    "time": 203.4340572000004,
                    "velocity": 0.4409448818897638,
                    "duration": 0.14150950000001217
                },
                {
                    "name": "B4",
                    "midi": 71,
                    "time": 203.62273653333375,
                    "velocity": 0.41732283464566927,
                    "duration": 0.14622648333332222
                },
                {
                    "name": "G4",
                    "midi": 67,
                    "time": 203.8444347500004,
                    "velocity": 0.25196850393700787,
                    "duration": 0.08962268333331735
                },
                {
                    "name": "D4",
                    "midi": 62,
                    "time": 203.8444347500004,
                    "velocity": 0.33858267716535434,
                    "duration": 0.08962268333331735
                },
                {
                    "name": "B3",
                    "midi": 59,
                    "time": 203.86330268333373,
                    "velocity": 0.2125984251968504,
                    "duration": 0.09433966666665583
                },
                {
                    "name": "B4",
                    "midi": 71,
                    "time": 204.06141598333372,
                    "velocity": 0.3779527559055118,
                    "duration": 0.16981139999998618
                },
                {
                    "name": "D5",
                    "midi": 74,
                    "time": 204.2736802333337,
                    "velocity": 0.3858267716535433,
                    "duration": 0.12264156666665826
                },
                {
                    "name": "B4",
                    "midi": 71,
                    "time": 204.4859444833337,
                    "velocity": 0.4015748031496063,
                    "duration": 0.2028302833333271
                },
                {
                    "name": "C2",
                    "midi": 36,
                    "time": 204.6133030333337,
                    "velocity": 0.25196850393700787,
                    "duration": 0.3113208999999699
                },
                {
                    "name": "G2",
                    "midi": 43,
                    "time": 204.64632191666703,
                    "velocity": 0.1889763779527559,
                    "duration": 0.33962279999997236
                },
                {
                    "name": "E4",
                    "midi": 64,
                    "time": 204.70764270000035,
                    "velocity": 0.4251968503937008,
                    "duration": 0.0990566499999943
                },
                {
                    "name": "E3",
                    "midi": 52,
                    "time": 204.75481253333368,
                    "velocity": 0.33858267716535434,
                    "duration": 0.10849061666667126
                },
                {
                    "name": "B4",
                    "midi": 71,
                    "time": 204.90575600000034,
                    "velocity": 0.33070866141732286,
                    "duration": 0.0990566499999943
                },
                {
                    "name": "E5",
                    "midi": 76,
                    "time": 205.10858628333366,
                    "velocity": 0.2755905511811024,
                    "duration": 0.08962268333331735
                },
                {
                    "name": "A5",
                    "midi": 81,
                    "time": 205.12273723333365,
                    "velocity": 0.5984251968503937,
                    "duration": 0.12735854999999674
                },
                {
                    "name": "B4",
                    "midi": 71,
                    "time": 205.3161335500003,
                    "velocity": 0.2677165354330709,
                    "duration": 0.07547173333333035
                },
                {
                    "name": "E4",
                    "midi": 64,
                    "time": 205.46236003333362,
                    "velocity": 0.33070866141732286,
                    "duration": 0.12264156666668669
                },
                {
                    "name": "F#5",
                    "midi": 78,
                    "time": 205.54726573333363,
                    "velocity": 0.5826771653543307,
                    "duration": 0.12264156666665826
                },
                {
                    "name": "G4",
                    "midi": 67,
                    "time": 205.5708506500003,
                    "velocity": 0.33070866141732286,
                    "duration": 0.10849061666667126
                },
                {
                    "name": "E4",
                    "midi": 64,
                    "time": 205.57556763333363,
                    "velocity": 0.25984251968503935,
                    "duration": 0.08018871666666882
                },
                {
                    "name": "B3",
                    "midi": 59,
                    "time": 205.58971858333365,
                    "velocity": 0.28346456692913385,
                    "duration": 0.17452838333332465
                },
                {
                    "name": "B4",
                    "midi": 71,
                    "time": 205.77368093333365,
                    "velocity": 0.4015748031496063,
                    "duration": 0.16981139999998618
                },
                {
                    "name": "E5",
                    "midi": 76,
                    "time": 205.98122820000032,
                    "velocity": 0.5669291338582677,
                    "duration": 0.14622648333332222
                },
                {
                    "name": "B4",
                    "midi": 71,
                    "time": 206.16047356666698,
                    "velocity": 0.36220472440944884,
                    "duration": 0.05660380000000487
                },
                {
                    "name": "D2",
                    "midi": 38,
                    "time": 206.330284966667,
                    "velocity": 0.3700787401574803,
                    "duration": 0.037735866666679385
                },
                {
                    "name": "B3",
                    "midi": 59,
                    "time": 206.358586866667,
                    "velocity": 0.4409448818897638,
                    "duration": 0.07547173333333035
                },
                {
                    "name": "B2",
                    "midi": 47,
                    "time": 206.38217178333366,
                    "velocity": 0.4094488188976378,
                    "duration": 0.12264156666662984
                },
                {
                    "name": "F#3",
                    "midi": 54,
                    "time": 206.48122843333363,
                    "velocity": 0.3779527559055118,
                    "duration": 0.07547173333333035
                },
                {
                    "name": "D5",
                    "midi": 74,
                    "time": 206.50009636666695,
                    "velocity": 0.5826771653543307,
                    "duration": 0.235849166666668
                },
                {
                    "name": "F#4",
                    "midi": 66,
                    "time": 206.73594553333362,
                    "velocity": 0.3700787401574803,
                    "duration": 0.14150950000001217
                },
                {
                    "name": "B4",
                    "midi": 71,
                    "time": 206.94349280000029,
                    "velocity": 0.36220472440944884,
                    "duration": 0.13207553333333522
                },
                {
                    "name": "F#4",
                    "midi": 66,
                    "time": 207.12273816666695,
                    "velocity": 0.3464566929133858,
                    "duration": 0.09433966666665583
                },
                {
                    "name": "E5",
                    "midi": 76,
                    "time": 207.33500241666692,
                    "velocity": 0.6141732283464567,
                    "duration": 0.12735855000002516
                },
                {
                    "name": "F#4",
                    "midi": 66,
                    "time": 207.36802130000027,
                    "velocity": 0.28346456692913385,
                    "duration": 0.09433966666668425
                },
                {
                    "name": "B3",
                    "midi": 59,
                    "time": 207.39632320000027,
                    "velocity": 0.3228346456692913,
                    "duration": 0.05660380000000487
                },
                {
                    "name": "F#4",
                    "midi": 66,
                    "time": 207.5567006333336,
                    "velocity": 0.3464566929133858,
                    "duration": 0.12735854999999674
                },
                {
                    "name": "F#5",
                    "midi": 78,
                    "time": 207.76424790000027,
                    "velocity": 0.6220472440944882,
                    "duration": 0.1981132999999886
                },
                {
                    "name": "B4",
                    "midi": 71,
                    "time": 207.7831158333336,
                    "velocity": 0.5433070866141733,
                    "duration": 0.10377363333333278
                },
                {
                    "name": "E4",
                    "midi": 64,
                    "time": 208.00009706666694,
                    "velocity": 0.3700787401574803,
                    "duration": 0.1981132999999602
                },
                {
                    "name": "E2",
                    "midi": 40,
                    "time": 208.0802857833336,
                    "velocity": 0.30708661417322836,
                    "duration": 0.30660391666663145
                },
                {
                    "name": "B2",
                    "midi": 47,
                    "time": 208.09915371666693,
                    "velocity": 0.2125984251968504,
                    "duration": 0.33962279999997236
                },
                {
                    "name": "E4",
                    "midi": 64,
                    "time": 208.11330466666692,
                    "velocity": 0.44881889763779526,
                    "duration": 0.09433966666665583
                },
                {
                    "name": "G3",
                    "midi": 55,
                    "time": 208.20292735000024,
                    "velocity": 0.29133858267716534,
                    "duration": 0.2028302833333271
                },
                {
                    "name": "F#5",
                    "midi": 78,
                    "time": 208.23594623333358,
                    "velocity": 0.6141732283464567,
                    "duration": 0.1367925166666737
                },
                {
                    "name": "B4",
                    "midi": 71,
                    "time": 208.5236822166669,
                    "velocity": 0.3937007874015748,
                    "duration": 0.12735854999999674
                },
                {
                    "name": "E5",
                    "midi": 76,
                    "time": 208.6887766333336,
                    "velocity": 0.5354330708661418,
                    "duration": 0.14150950000001217
                },
                {
                    "name": "B4",
                    "midi": 71,
                    "time": 208.9010408833336,
                    "velocity": 0.29133858267716534,
                    "duration": 0.15566044999999917
                },
                {
                    "name": "G4",
                    "midi": 67,
                    "time": 209.10858815000026,
                    "velocity": 0.29133858267716534,
                    "duration": 0.15566044999999917
                },
                {
                    "name": "E5",
                    "midi": 76,
                    "time": 209.10858815000026,
                    "velocity": 0.4566929133858268,
                    "duration": 0.16037743333333765
                },
                {
                    "name": "E4",
                    "midi": 64,
                    "time": 209.12273910000025,
                    "velocity": 0.23622047244094488,
                    "duration": 0.5000002333333384
                },
                {
                    "name": "B3",
                    "midi": 59,
                    "time": 209.13217306666692,
                    "velocity": 0.2992125984251969,
                    "duration": 0.15566044999999917
                },
                {
                    "name": "B4",
                    "midi": 71,
                    "time": 209.35387128333358,
                    "velocity": 0.3228346456692913,
                    "duration": 0.1367925166666737
                },
                {
                    "name": "E5",
                    "midi": 76,
                    "time": 209.51896570000025,
                    "velocity": 0.4251968503937008,
                    "duration": 0.16509441666667612
                },
                {
                    "name": "B4",
                    "midi": 71,
                    "time": 209.70292805000025,
                    "velocity": 0.3700787401574803,
                    "duration": 0.028301900000002433
                },
                {
                    "name": "C3",
                    "midi": 48,
                    "time": 209.91047531666692,
                    "velocity": 0.3464566929133858,
                    "duration": 0.3490567666666209
                },
                {
                    "name": "G3",
                    "midi": 55,
                    "time": 209.94349420000026,
                    "velocity": 0.16535433070866143,
                    "duration": 0.36320771666657947
                },
                {
                    "name": "B5",
                    "midi": 83,
                    "time": 210.02839990000024,
                    "velocity": 0.6771653543307087,
                    "duration": 1.8584914333332279
                },
                {
                    "name": "B4",
                    "midi": 71,
                    "time": 210.04255085000023,
                    "velocity": 0.4645669291338583,
                    "duration": 0.4292454833332897
                },
                {
                    "name": "E4",
                    "midi": 64,
                    "time": 210.08500370000021,
                    "velocity": 0.33858267716535434,
                    "duration": 0.18867933333331166
                },
                {
                    "name": "C5",
                    "midi": 72,
                    "time": 210.29255096666685,
                    "velocity": 0.5118110236220472,
                    "duration": 0.12735854999999674
                },
                {
                    "name": "E5",
                    "midi": 76,
                    "time": 210.49538125000018,
                    "velocity": 0.44881889763779526,
                    "duration": 0.12264156666665826
                },
                {
                    "name": "C5",
                    "midi": 72,
                    "time": 210.6840605833335,
                    "velocity": 0.3464566929133858,
                    "duration": 0.12264156666665826
                },
                {
                    "name": "B4",
                    "midi": 71,
                    "time": 210.88217388333348,
                    "velocity": 0.3858267716535433,
                    "duration": 0.0990566499999943
                },
                {
                    "name": "E4",
                    "midi": 64,
                    "time": 210.89160785000016,
                    "velocity": 0.31496062992125984,
                    "duration": 0.0660377666666534
                },
                {
                    "name": "C5",
                    "midi": 72,
                    "time": 211.07085321666682,
                    "velocity": 0.44881889763779526,
                    "duration": 0.16509441666667612
                },
                {
                    "name": "E5",
                    "midi": 76,
                    "time": 211.2925514333335,
                    "velocity": 0.3858267716535433,
                    "duration": 0.12735854999999674
                },
                {
                    "name": "C5",
                    "midi": 72,
                    "time": 211.50009870000017,
                    "velocity": 0.48031496062992124,
                    "duration": 0.11320760000000973
                },
                {
                    "name": "A2",
                    "midi": 45,
                    "time": 211.5897213833335,
                    "velocity": 0.3464566929133858,
                    "duration": 0.3490567666666209
                },
                {
                    "name": "E3",
                    "midi": 52,
                    "time": 211.69821200000018,
                    "velocity": 0.2125984251968504,
                    "duration": 0.2971699499999545
                },
                {
                    "name": "B4",
                    "midi": 71,
                    "time": 211.70292898333352,
                    "velocity": 0.4094488188976378,
                    "duration": 0.07547173333330193
                },
                {
                    "name": "C4",
                    "midi": 60,
                    "time": 211.7595327833335,
                    "velocity": 0.4015748031496063,
                    "duration": 0.15094346666663228
                },
                {
                    "name": "C5",
                    "midi": 72,
                    "time": 211.90104228333345,
                    "velocity": 0.49606299212598426,
                    "duration": 0.1367925166666737
                },
                {
                    "name": "C6",
                    "midi": 84,
                    "time": 212.11330653333346,
                    "velocity": 0.6456692913385826,
                    "duration": 0.15566044999999917
                },
                {
                    "name": "E5",
                    "midi": 76,
                    "time": 212.13217446666678,
                    "velocity": 0.3543307086614173,
                    "duration": 0.10849061666667126
                },
                {
                    "name": "C5",
                    "midi": 72,
                    "time": 212.29255190000012,
                    "velocity": 0.5511811023622047,
                    "duration": 0.03301888333334091
                },
                {
                    "name": "C5",
                    "midi": 72,
                    "time": 212.5284010666668,
                    "velocity": 0.3937007874015748,
                    "duration": 0.12264156666665826
                },
                {
                    "name": "A5",
                    "midi": 81,
                    "time": 212.5284010666668,
                    "velocity": 0.6377952755905512,
                    "duration": 0.18867933333334008
                },
                {
                    "name": "G4",
                    "midi": 67,
                    "time": 212.54255201666678,
                    "velocity": 0.28346456692913385,
                    "duration": 0.17924536666669155
                },
                {
                    "name": "E4",
                    "midi": 64,
                    "time": 212.54255201666678,
                    "velocity": 0.36220472440944884,
                    "duration": 0.16509441666667612
                },
                {
                    "name": "A4",
                    "midi": 69,
                    "time": 212.5472690000001,
                    "velocity": 0.36220472440944884,
                    "duration": 0.1509434666666607
                },
                {
                    "name": "C5",
                    "midi": 72,
                    "time": 212.7406653166668,
                    "velocity": 0.4330708661417323,
                    "duration": 0.13207553333333522
                },
                {
                    "name": "G5",
                    "midi": 79,
                    "time": 212.94821258333346,
                    "velocity": 0.6220472440944882,
                    "duration": 0.22641519999999105
                },
                {
                    "name": "E5",
                    "midi": 76,
                    "time": 212.97179750000012,
                    "velocity": 0.41732283464566927,
                    "duration": 0.05188681666666639
                },
                {
                    "name": "C5",
                    "midi": 72,
                    "time": 213.16047683333346,
                    "velocity": 0.4015748031496063,
                    "duration": 0.17452838333329623
                },
                {
                    "name": "B2",
                    "midi": 47,
                    "time": 213.29255236666677,
                    "velocity": 0.30708661417322836,
                    "duration": 0.39150961666663875
                },
                {
                    "name": "F#5",
                    "midi": 78,
                    "time": 213.39160901666676,
                    "velocity": 0.6062992125984252,
                    "duration": 0.3018869333333214
                },
                {
                    "name": "F#3",
                    "midi": 54,
                    "time": 213.3963260000001,
                    "velocity": 0.1732283464566929,
                    "duration": 0.34433978333331083
                },
                {
                    "name": "F#4",
                    "midi": 66,
                    "time": 213.41519393333343,
                    "velocity": 0.33858267716535434,
                    "duration": 0.19339631666665014
                },
                {
                    "name": "D5",
                    "midi": 74,
                    "time": 213.4387788500001,
                    "velocity": 0.2283464566929134,
                    "duration": 0.047169833333327915
                },
                {
                    "name": "D4",
                    "midi": 62,
                    "time": 213.4670807500001,
                    "velocity": 0.1732283464566929,
                    "duration": 0.16981139999998618
                },
                {
                    "name": "B4",
                    "midi": 71,
                    "time": 213.6274581833334,
                    "velocity": 0.3700787401574803,
                    "duration": 0.09905665000002273
                },
                {
                    "name": "D5",
                    "midi": 74,
                    "time": 213.82557148333342,
                    "velocity": 0.4094488188976378,
                    "duration": 0.0990566499999943
                },
                {
                    "name": "B4",
                    "midi": 71,
                    "time": 214.00009986666674,
                    "velocity": 0.3937007874015748,
                    "duration": 0.10849061666667126
                },
                {
                    "name": "G5",
                    "midi": 79,
                    "time": 214.18877920000008,
                    "velocity": 0.6377952755905512,
                    "duration": 0.3018869333333214
                },
                {
                    "name": "G4",
                    "midi": 67,
                    "time": 214.19821316666676,
                    "velocity": 0.4251968503937008,
                    "duration": 0.17452838333332465
                },
                {
                    "name": "F#4",
                    "midi": 66,
                    "time": 214.2312320500001,
                    "velocity": 0.2755905511811024,
                    "duration": 0.28773598333330597
                },
                {
                    "name": "D4",
                    "midi": 62,
                    "time": 214.2453830000001,
                    "velocity": 0.30708661417322836,
                    "duration": 0.29245296666664444
                },
                {
                    "name": "B4",
                    "midi": 71,
                    "time": 214.41519440000008,
                    "velocity": 0.4881889763779528,
                    "duration": 0.06132078333334334
                },
                {
                    "name": "A5",
                    "midi": 81,
                    "time": 214.62274166666674,
                    "velocity": 0.6456692913385826,
                    "duration": 0.5990568833332759
                },
                {
                    "name": "A4",
                    "midi": 69,
                    "time": 214.63217563333342,
                    "velocity": 0.44881889763779526,
                    "duration": 0.047169833333327915
                },
                {
                    "name": "D5",
                    "midi": 74,
                    "time": 214.6463265833334,
                    "velocity": 0.44881889763779526,
                    "duration": 0.1509434666666607
                },
                {
                    "name": "B4",
                    "midi": 71,
                    "time": 214.8444398833334,
                    "velocity": 0.4094488188976378,
                    "duration": 0.0660377666666534
                },
                {
                    "name": "G2",
                    "midi": 43,
                    "time": 214.98594938333338,
                    "velocity": 0.36220472440944884,
                    "duration": 0.33018883333332383
                },
                {
                    "name": "D3",
                    "midi": 50,
                    "time": 215.00010033333336,
                    "velocity": 0.25984251968503935,
                    "duration": 0.36320771666666474
                },
                {
                    "name": "F#4",
                    "midi": 66,
                    "time": 215.0755720666667,
                    "velocity": 0.47244094488188976,
                    "duration": 0.12264156666665826
                },
                {
                    "name": "B3",
                    "midi": 59,
                    "time": 215.1038739666667,
                    "velocity": 0.3937007874015748,
                    "duration": 0.1509434666666607
                },
                {
                    "name": "B4",
                    "midi": 71,
                    "time": 215.25481743333336,
                    "velocity": 0.5354330708661418,
                    "duration": 0.05188681666666639
                },
                {
                    "name": "B5",
                    "midi": 83,
                    "time": 215.46708168333336,
                    "velocity": 0.6771653543307087,
                    "duration": 0.16509441666667612
                },
                {
                    "name": "D5",
                    "midi": 74,
                    "time": 215.4859496166667,
                    "velocity": 0.4645669291338583,
                    "duration": 0.037735866666679385
                },
                {
                    "name": "D5",
                    "midi": 74,
                    "time": 215.60859118333337,
                    "velocity": 0.1732283464566929,
                    "duration": 0.13207553333333522
                },
                {
                    "name": "B4",
                    "midi": 71,
                    "time": 215.67934593333337,
                    "velocity": 0.47244094488188976,
                    "duration": 0.06132078333334334
                },
                {
                    "name": "G5",
                    "midi": 79,
                    "time": 215.8963271666667,
                    "velocity": 0.6062992125984252,
                    "duration": 0.3066039166666883
                },
                {
                    "name": "B4",
                    "midi": 71,
                    "time": 215.9104781166667,
                    "velocity": 0.2992125984251969,
                    "duration": 0.10849061666667126
                },
                {
                    "name": "G4",
                    "midi": 67,
                    "time": 215.9104781166667,
                    "velocity": 0.3779527559055118,
                    "duration": 0.16509441666667612
                },
                {
                    "name": "D4",
                    "midi": 62,
                    "time": 215.92934605000002,
                    "velocity": 0.33070866141732286,
                    "duration": 0.14150950000001217
                },
                {
                    "name": "F#4",
                    "midi": 66,
                    "time": 215.9387800166667,
                    "velocity": 0.2125984251968504,
                    "duration": 0.11792458333334821
                },
                {
                    "name": "D5",
                    "midi": 74,
                    "time": 216.11330840000005,
                    "velocity": 0.47244094488188976,
                    "duration": 0.1367925166666737
                },
                {
                    "name": "F#5",
                    "midi": 78,
                    "time": 216.31142170000007,
                    "velocity": 0.5748031496062992,
                    "duration": 0.21226425000000404
                },
                {
                    "name": "D5",
                    "midi": 74,
                    "time": 216.3585915333334,
                    "velocity": 0.31496062992125984,
                    "duration": 0.1367925166666737
                },
                {
                    "name": "A2",
                    "midi": 45,
                    "time": 216.74066718333341,
                    "velocity": 0.3858267716535433,
                    "duration": 0.2971699499999545
                },
                {
                    "name": "E4",
                    "midi": 64,
                    "time": 216.76896908333342,
                    "velocity": 0.4645669291338583,
                    "duration": 0.1603774333332808
                },
                {
                    "name": "E5",
                    "midi": 76,
                    "time": 216.76896908333342,
                    "velocity": 0.5748031496062992,
                    "duration": 0.542453083333271
                },
                {
                    "name": "E3",
                    "midi": 52,
                    "time": 216.7831200333334,
                    "velocity": 0.1889763779527559,
                    "duration": 0.32075486666661845
                },
                {
                    "name": "C4",
                    "midi": 60,
                    "time": 216.8585917666667,
                    "velocity": 0.30708661417322836,
                    "duration": 0.15566044999999917
                },
                {
                    "name": "B4",
                    "midi": 71,
                    "time": 217.00481825000003,
                    "velocity": 0.4409448818897638,
                    "duration": 0.13207553333333522
                },
                {
                    "name": "C5",
                    "midi": 72,
                    "time": 217.19349758333337,
                    "velocity": 0.41732283464566927,
                    "duration": 0.18396234999997318
                },
                {
                    "name": "B4",
                    "midi": 71,
                    "time": 217.39632786666667,
                    "velocity": 0.4409448818897638,
                    "duration": 0.07075474999999187
                },
                {
                    "name": "F#5",
                    "midi": 78,
                    "time": 217.58029021666667,
                    "velocity": 0.5590551181102362,
                    "duration": 0.21698123333334252
                },
                {
                    "name": "F#4",
                    "midi": 66,
                    "time": 217.60387513333333,
                    "velocity": 0.29133858267716534,
                    "duration": 0.13207553333333522
                },
                {
                    "name": "E4",
                    "midi": 64,
                    "time": 217.60387513333333,
                    "velocity": 0.2677165354330709,
                    "duration": 0.3160378833333368
                },
                {
                    "name": "A4",
                    "midi": 69,
                    "time": 217.6133091,
                    "velocity": 0.33070866141732286,
                    "duration": 0.2547170999999935
                },
                {
                    "name": "C4",
                    "midi": 60,
                    "time": 217.6133091,
                    "velocity": 0.33070866141732286,
                    "duration": 0.3490567666666493
                },
                {
                    "name": "B4",
                    "midi": 71,
                    "time": 217.80198843333335,
                    "velocity": 0.4251968503937008,
                    "duration": 0.09433966666665583
                },
                {
                    "name": "G5",
                    "midi": 79,
                    "time": 218.00481871666665,
                    "velocity": 0.5984251968503937,
                    "duration": 0.12735854999999674
                },
                {
                    "name": "G4",
                    "midi": 67,
                    "time": 218.02368664999997,
                    "velocity": 0.4094488188976378,
                    "duration": 0.17924536666666313
                },
                {
                    "name": "C5",
                    "midi": 72,
                    "time": 218.02368664999997,
                    "velocity": 0.4566929133858268,
                    "duration": 0.07075474999999187
                },
                {
                    "name": "B4",
                    "midi": 71,
                    "time": 218.24066788333332,
                    "velocity": 0.49606299212598426,
                    "duration": 0.12735854999999674
                },
                {
                    "name": "F#2",
                    "midi": 42,
                    "time": 218.41991324999998,
                    "velocity": 0.29133858267716534,
                    "duration": 0.08962268333334578
                },
                {
                    "name": "C3",
                    "midi": 48,
                    "time": 218.44349816666664,
                    "velocity": 0.4251968503937008,
                    "duration": 0.06603776666668182
                },
                {
                    "name": "E4",
                    "midi": 64,
                    "time": 218.45293213333332,
                    "velocity": 0.49606299212598426,
                    "duration": 0.1650944166666477
                },
                {
                    "name": "A3",
                    "midi": 57,
                    "time": 218.58500766666663,
                    "velocity": 0.1732283464566929,
                    "duration": 0.06603776666668182
                },
                {
                    "name": "A4",
                    "midi": 69,
                    "time": 218.64161146666663,
                    "velocity": 0.5354330708661418,
                    "duration": 0.05188681666666639
                },
                {
                    "name": "A5",
                    "midi": 81,
                    "time": 218.86330968333328,
                    "velocity": 0.5984251968503937,
                    "duration": 0.15566044999999917
                },
                {
                    "name": "C5",
                    "midi": 72,
                    "time": 218.88689459999995,
                    "velocity": 0.4251968503937008,
                    "duration": 0.24056615000000647
                },
                {
                    "name": "A4",
                    "midi": 69,
                    "time": 219.05198901666662,
                    "velocity": 0.3700787401574803,
                    "duration": 0.05188681666666639
                },
                {
                    "name": "F#4",
                    "midi": 66,
                    "time": 219.26425326666663,
                    "velocity": 0.4645669291338583,
                    "duration": 0.15094346666668912
                },
                {
                    "name": "F#5",
                    "midi": 78,
                    "time": 219.26425326666663,
                    "velocity": 0.5590551181102362,
                    "duration": 0.21698123333334252
                },
                {
                    "name": "E4",
                    "midi": 64,
                    "time": 219.29727214999997,
                    "velocity": 0.3228346456692913,
                    "duration": 0.221698216666681
                },
                {
                    "name": "C4",
                    "midi": 60,
                    "time": 219.30670611666665,
                    "velocity": 0.33858267716535434,
                    "duration": 0.221698216666681
                },
                {
                    "name": "C5",
                    "midi": 72,
                    "time": 219.46236656666665,
                    "velocity": 0.5196850393700787,
                    "duration": 0.11320760000000973
                },
                {
                    "name": "E5",
                    "midi": 76,
                    "time": 219.67463081666665,
                    "velocity": 0.5511811023622047,
                    "duration": 0.1839623500000016
                },
                {
                    "name": "F#4",
                    "midi": 66,
                    "time": 219.89632903333333,
                    "velocity": 0.3779527559055118,
                    "duration": 0.11792458333334821
                },
                {
                    "name": "B2",
                    "midi": 47,
                    "time": 219.97651775,
                    "velocity": 0.3779527559055118,
                    "duration": 0.4528303999999821
                },
                {
                    "name": "F#3",
                    "midi": 54,
                    "time": 220.02840456666667,
                    "velocity": 0.2283464566929134,
                    "duration": 0.4811322999999845
                },
                {
                    "name": "F#5",
                    "midi": 78,
                    "time": 220.11331026666667,
                    "velocity": 0.5118110236220472,
                    "duration": 0.23584916666663958
                },
                {
                    "name": "D4",
                    "midi": 62,
                    "time": 220.15576311666666,
                    "velocity": 0.25984251968503935,
                    "duration": 0.2688680499999805
                },
                {
                    "name": "B4",
                    "midi": 71,
                    "time": 220.1934989833333,
                    "velocity": 0.25984251968503935,
                    "duration": 0.12735854999999674
                },
                {
                    "name": "B4",
                    "midi": 71,
                    "time": 220.4199141833333,
                    "velocity": 0.4094488188976378,
                    "duration": 0.11792458333334821
                },
                {
                    "name": "D5",
                    "midi": 74,
                    "time": 220.59915955,
                    "velocity": 0.4015748031496063,
                    "duration": 0.12264156666665826
                },
                {
                    "name": "B4",
                    "midi": 71,
                    "time": 220.75953698333333,
                    "velocity": 0.36220472440944884,
                    "duration": 0.14150950000001217
                },
                {
                    "name": "D4",
                    "midi": 62,
                    "time": 220.9529333,
                    "velocity": 0.3543307086614173,
                    "duration": 0.1367925166666737
                },
                {
                    "name": "F#4",
                    "midi": 66,
                    "time": 220.98123520000001,
                    "velocity": 0.1968503937007874,
                    "duration": 0.2735850333333474
                },
                {
                    "name": "B3",
                    "midi": 59,
                    "time": 221.0189710666667,
                    "velocity": 0.25984251968503935,
                    "duration": 0.26415106666667043
                },
                {
                    "name": "B4",
                    "midi": 71,
                    "time": 221.19349945000002,
                    "velocity": 0.28346456692913385,
                    "duration": 0.12735855000002516
                },
                {
                    "name": "D5",
                    "midi": 74,
                    "time": 221.35387688333338,
                    "velocity": 0.3858267716535433,
                    "duration": 0.24056614999997805
                },
                {
                    "name": "B4",
                    "midi": 71,
                    "time": 221.55199018333337,
                    "velocity": 0.29133858267716534,
                    "duration": 0.08018871666666882
                },
                {
                    "name": "F#2",
                    "midi": 42,
                    "time": 221.77368840000005,
                    "velocity": 0.2440944881889764,
                    "duration": 0.712264483333314
                },
                {
                    "name": "C5",
                    "midi": 72,
                    "time": 221.78312236666673,
                    "velocity": 0.36220472440944884,
                    "duration": 0.1650944166666477
                },
                {
                    "name": "A4",
                    "midi": 69,
                    "time": 221.78783935000007,
                    "velocity": 0.28346456692913385,
                    "duration": 0.1320755333333068
                },
                {
                    "name": "E4",
                    "midi": 64,
                    "time": 221.97180170000004,
                    "velocity": 0.4015748031496063,
                    "duration": 0.10377363333333278
                },
                {
                    "name": "A4",
                    "midi": 69,
                    "time": 222.2076508666667,
                    "velocity": 0.5511811023622047,
                    "duration": 0.30660391666665987
                },
                {
                    "name": "E4",
                    "midi": 64,
                    "time": 222.23123578333337,
                    "velocity": 0.3858267716535433,
                    "duration": 0.10849061666667126
                },
                {
                    "name": "C4",
                    "midi": 60,
                    "time": 222.4057641666667,
                    "velocity": 0.4330708661417323,
                    "duration": 0.12264156666665826
                },
                {
                    "name": "F#4",
                    "midi": 66,
                    "time": 222.6180284166667,
                    "velocity": 0.4881889763779528,
                    "duration": 0.2311321833333011
                },
                {
                    "name": "D4",
                    "midi": 62,
                    "time": 222.64161333333337,
                    "velocity": 0.4566929133858268,
                    "duration": 0.1320755333333068
                },
                {
                    "name": "B2",
                    "midi": 47,
                    "time": 222.6604812666667,
                    "velocity": 0.31496062992125984,
                    "duration": 0.37264168333331327
                },
                {
                    "name": "B3",
                    "midi": 59,
                    "time": 222.83500965000002,
                    "velocity": 0.36220472440944884,
                    "duration": 0.13679251666664527
                },
                {
                    "name": "E4",
                    "midi": 64,
                    "time": 223.0472739,
                    "velocity": 0.5669291338582677,
                    "duration": 0.27358503333331896
                },
                {
                    "name": "C4",
                    "midi": 60,
                    "time": 223.07085881666666,
                    "velocity": 0.4566929133858268,
                    "duration": 0.12264156666665826
                },
                {
                    "name": "D3",
                    "midi": 50,
                    "time": 223.0755758,
                    "velocity": 0.28346456692913385,
                    "duration": 0.4009435833333157
                },
                {
                    "name": "F#3",
                    "midi": 54,
                    "time": 223.25482116666666,
                    "velocity": 0.3779527559055118,
                    "duration": 0.12264156666665826
                },
                {
                    "name": "F#4",
                    "midi": 66,
                    "time": 223.56142508333332,
                    "velocity": 0.5118110236220472,
                    "duration": 0.41509453333333113
                },
                {
                    "name": "D4",
                    "midi": 62,
                    "time": 223.58972698333332,
                    "velocity": 0.3543307086614173,
                    "duration": 0.31132089999999835
                },
                {
                    "name": "B3",
                    "midi": 59,
                    "time": 223.59444396666666,
                    "velocity": 0.3700787401574803,
                    "duration": 0.2877359833333344
                },
                {
                    "name": "B2",
                    "midi": 47,
                    "time": 223.59444396666666,
                    "velocity": 0.3464566929133858,
                    "duration": 1.0660382333333303
                },
                {
                    "name": "B5",
                    "midi": 83,
                    "time": 224.4104820833333,
                    "velocity": 0.5354330708661418,
                    "duration": 1.226415666666668
                },
                {
                    "name": "B4",
                    "midi": 71,
                    "time": 224.41991604999998,
                    "velocity": 0.3700787401574803,
                    "duration": 1.2924534333333213
                },
                {
                    "name": "B1",
                    "midi": 35,
                    "time": 225.22652019999998,
                    "velocity": 0.2992125984251969,
                    "duration": 0.3160378833333368
                },
                {
                    "name": "B5",
                    "midi": 83,
                    "time": 226.01897339999996,
                    "velocity": 0.5905511811023622,
                    "duration": 0.6084908500000097
                },
                {
                    "name": "B4",
                    "midi": 71,
                    "time": 226.02840736666664,
                    "velocity": 0.4409448818897638,
                    "duration": 0.5990568833333327
                },
                {
                    "name": "B3",
                    "midi": 59,
                    "time": 226.49538871666664,
                    "velocity": 0.4330708661417323,
                    "duration": 0.08962268333331735
                },
                {
                    "name": "C4",
                    "midi": 60,
                    "time": 226.6180302833333,
                    "velocity": 0.33858267716535434,
                    "duration": 0.17452838333335308
                },
                {
                    "name": "E4",
                    "midi": 64,
                    "time": 226.7029359833333,
                    "velocity": 0.41732283464566927,
                    "duration": 0.07075474999999187
                },
                {
                    "name": "G4",
                    "midi": 67,
                    "time": 226.72652089999997,
                    "velocity": 0.44881889763779526,
                    "duration": 0.05660380000000487
                },
                {
                    "name": "B4",
                    "midi": 71,
                    "time": 226.80670961666664,
                    "velocity": 0.4566929133858268,
                    "duration": 1.6084913166666865
                },
                {
                    "name": "C5",
                    "midi": 72,
                    "time": 226.8868983333333,
                    "velocity": 0.3700787401574803,
                    "duration": 0.4528304000000105
                },
                {
                    "name": "E5",
                    "midi": 76,
                    "time": 226.9293511833333,
                    "velocity": 0.4881889763779528,
                    "duration": 0.39622660000003407
                },
                {
                    "name": "B5",
                    "midi": 83,
                    "time": 227.1274644833333,
                    "velocity": 0.7244094488188977,
                    "duration": 1.8679254000000185
                },
                {
                    "name": "A2",
                    "midi": 45,
                    "time": 227.1274644833333,
                    "velocity": 0.3700787401574803,
                    "duration": 0.07547173333333035
                },
                {
                    "name": "E3",
                    "midi": 52,
                    "time": 227.14161543333333,
                    "velocity": 0.2047244094488189,
                    "duration": 0.17452838333332465
                },
                {
                    "name": "B3",
                    "midi": 59,
                    "time": 227.264257,
                    "velocity": 0.33070866141732286,
                    "duration": 0.08962268333331735
                },
                {
                    "name": "E5",
                    "midi": 76,
                    "time": 227.6652005833333,
                    "velocity": 0.4409448818897638,
                    "duration": 0.5000002333333669
                },
                {
                    "name": "C5",
                    "midi": 72,
                    "time": 227.7218043833333,
                    "velocity": 0.1889763779527559,
                    "duration": 0.4056605666666826
                },
                {
                    "name": "E4",
                    "midi": 64,
                    "time": 228.00954036666664,
                    "velocity": 0.3700787401574803,
                    "duration": 1.0235853833333408
                },
                {
                    "name": "C4",
                    "midi": 60,
                    "time": 228.01425734999998,
                    "velocity": 0.36220472440944884,
                    "duration": 0.8254720833333522
                },
                {
                    "name": "E5",
                    "midi": 76,
                    "time": 228.44821981666666,
                    "velocity": 0.3464566929133858,
                    "duration": 0.5613210166666533
                },
                {
                    "name": "B4",
                    "midi": 71,
                    "time": 228.87274831666667,
                    "velocity": 0.2992125984251969,
                    "duration": 0.15094346666663228
                },
                {
                    "name": "B3",
                    "midi": 59,
                    "time": 228.91991815,
                    "velocity": 0.25984251968503935,
                    "duration": 0.12735854999996832
                },
                {
                    "name": "A5",
                    "midi": 81,
                    "time": 229.3350126833333,
                    "velocity": 0.6220472440944882,
                    "duration": 0.15094346666668912
                },
                {
                    "name": "A4",
                    "midi": 69,
                    "time": 229.33972966666664,
                    "velocity": 0.4881889763779528,
                    "duration": 0.09433966666668425
                },
                {
                    "name": "E5",
                    "midi": 76,
                    "time": 229.34916363333332,
                    "velocity": 0.5354330708661418,
                    "duration": 0.1367925166666737
                },
                {
                    "name": "E4",
                    "midi": 64,
                    "time": 229.3774655333333,
                    "velocity": 0.1889763779527559,
                    "duration": 0.36320771666669316
                },
                {
                    "name": "G4",
                    "midi": 67,
                    "time": 229.38689949999997,
                    "velocity": 0.25984251968503935,
                    "duration": 0.471698333333336
                },
                {
                    "name": "A3",
                    "midi": 57,
                    "time": 229.39633346666665,
                    "velocity": 0.25984251968503935,
                    "duration": 0.16037743333333765
                },
                {
                    "name": "D6",
                    "midi": 86,
                    "time": 229.79256006666665,
                    "velocity": 0.7007874015748031,
                    "duration": 0.10377363333333278
                },
                {
                    "name": "D5",
                    "midi": 74,
                    "time": 229.80199403333333,
                    "velocity": 0.5905511811023622,
                    "duration": 0.11792458333331979
                },
                {
                    "name": "D4",
                    "midi": 62,
                    "time": 229.81614498333332,
                    "velocity": 0.41732283464566927,
                    "duration": 0.07075474999999187
                },
                {
                    "name": "B5",
                    "midi": 83,
                    "time": 230.20293761666665,
                    "velocity": 0.7007874015748031,
                    "duration": 0.2216982166665673
                },
                {
                    "name": "B4",
                    "midi": 71,
                    "time": 230.21708856666663,
                    "velocity": 0.41732283464566927,
                    "duration": 0.1933963166665933
                },
                {
                    "name": "B3",
                    "midi": 59,
                    "time": 230.22180554999997,
                    "velocity": 0.41732283464566927,
                    "duration": 0.18867933333325482
                },
                {
                    "name": "E5",
                    "midi": 76,
                    "time": 230.2265225333333,
                    "velocity": 0.4566929133858268,
                    "duration": 0.16981139999992934
                },
                {
                    "name": "C5",
                    "midi": 72,
                    "time": 230.2406734833333,
                    "velocity": 0.3700787401574803,
                    "duration": 0.15566044999994233
                },
                {
                    "name": "C4",
                    "midi": 60,
                    "time": 230.2406734833333,
                    "velocity": 0.25196850393700787,
                    "duration": 0.14150949999995532
                },
                {
                    "name": "E4",
                    "midi": 64,
                    "time": 230.2406734833333,
                    "velocity": 0.25984251968503935,
                    "duration": 0.15566044999994233
                },
                {
                    "name": "B5",
                    "midi": 83,
                    "time": 230.66991896666656,
                    "velocity": 0.6850393700787402,
                    "duration": 0.10849061666667126
                },
                {
                    "name": "B4",
                    "midi": 71,
                    "time": 230.67935293333323,
                    "velocity": 0.4566929133858268,
                    "duration": 0.11320759999998131
                },
                {
                    "name": "B3",
                    "midi": 59,
                    "time": 230.6887868999999,
                    "velocity": 0.3858267716535433,
                    "duration": 0.10377363333330436
                },
                {
                    "name": "E4",
                    "midi": 64,
                    "time": 231.15576824999988,
                    "velocity": 0.5433070866141733,
                    "duration": 0.12264156666665826
                },
                {
                    "name": "F#3",
                    "midi": 54,
                    "time": 231.16520221666656,
                    "velocity": 0.3858267716535433,
                    "duration": 0.056603799999976445
                },
                {
                    "name": "C4",
                    "midi": 60,
                    "time": 231.17935316666654,
                    "velocity": 0.4094488188976378,
                    "duration": 0.03773586666665096
                },
                {
                    "name": "A2",
                    "midi": 45,
                    "time": 231.17935316666654,
                    "velocity": 0.3779527559055118,
                    "duration": 0.07547173333333035
                },
                {
                    "name": "D2",
                    "midi": 38,
                    "time": 231.19350411666653,
                    "velocity": 0.3779527559055118,
                    "duration": 0.037735866666679385
                },
                {
                    "name": "A5",
                    "midi": 81,
                    "time": 231.6133156333332,
                    "velocity": 0.6299212598425197,
                    "duration": 0.485849283333323
                },
                {
                    "name": "A4",
                    "midi": 69,
                    "time": 231.63218356666653,
                    "velocity": 0.4330708661417323,
                    "duration": 0.3679247000000032
                },
                {
                    "name": "F#3",
                    "midi": 54,
                    "time": 231.6557684833332,
                    "velocity": 0.29133858267716534,
                    "duration": 0.39622660000000565
                },
                {
                    "name": "C5",
                    "midi": 72,
                    "time": 232.06142904999987,
                    "velocity": 0.3858267716535433,
                    "duration": 0.32547184999998535
                },
                {
                    "name": "E5",
                    "midi": 76,
                    "time": 232.0661460333332,
                    "velocity": 0.4409448818897638,
                    "duration": 0.4716983333333076
                },
                {
                    "name": "E4",
                    "midi": 64,
                    "time": 232.0802969833332,
                    "velocity": 0.33070866141732286,
                    "duration": 0.4009435833333157
                },
                {
                    "name": "C4",
                    "midi": 60,
                    "time": 232.08501396666654,
                    "velocity": 0.2992125984251969,
                    "duration": 0.34433978333331083
                },
                {
                    "name": "G5",
                    "midi": 79,
                    "time": 232.46708961666653,
                    "velocity": 0.5826771653543307,
                    "duration": 0.46226436666665904
                },
                {
                    "name": "G4",
                    "midi": 67,
                    "time": 232.48595754999985,
                    "velocity": 0.4566929133858268,
                    "duration": 0.3537737499999878
                },
                {
                    "name": "B3",
                    "midi": 59,
                    "time": 232.50954246666652,
                    "velocity": 0.3228346456692913,
                    "duration": 0.3820756499999902
                },
                {
                    "name": "E5",
                    "midi": 76,
                    "time": 232.9293539833332,
                    "velocity": 0.3779527559055118,
                    "duration": 0.36320771666669316
                },
                {
                    "name": "E4",
                    "midi": 64,
                    "time": 232.93878794999986,
                    "velocity": 0.29133858267716534,
                    "duration": 0.419811516666698
                },
                {
                    "name": "C5",
                    "midi": 72,
                    "time": 232.9435049333332,
                    "velocity": 0.25984251968503935,
                    "duration": 0.21698123333334252
                },
                {
                    "name": "C4",
                    "midi": 60,
                    "time": 232.97652381666654,
                    "velocity": 0.1732283464566929,
                    "duration": 0.27830201666665744
                },
                {
                    "name": "A5",
                    "midi": 81,
                    "time": 233.28784471666654,
                    "velocity": 0.5590551181102362,
                    "duration": 0.5613210166666533
                },
                {
                    "name": "A4",
                    "midi": 69,
                    "time": 233.29727868333322,
                    "velocity": 0.4566929133858268,
                    "duration": 0.8254720833333238
                },
                {
                    "name": "A3",
                    "midi": 57,
                    "time": 233.3114296333332,
                    "velocity": 0.30708661417322836,
                    "duration": 0.44339643333333356
                },
                {
                    "name": "E4",
                    "midi": 64,
                    "time": 233.76897701666653,
                    "velocity": 0.2125984251968504,
                    "duration": 0.3726416833333417
                },
                {
                    "name": "C4",
                    "midi": 60,
                    "time": 233.76897701666653,
                    "velocity": 0.2755905511811024,
                    "duration": 0.3867926333333287
                },
                {
                    "name": "C5",
                    "midi": 72,
                    "time": 233.7784109833332,
                    "velocity": 0.31496062992125984,
                    "duration": 0.20754726666666556
                },
                {
                    "name": "E5",
                    "midi": 76,
                    "time": 233.7784109833332,
                    "velocity": 0.1968503937007874,
                    "duration": 0.10377363333333278
                },
                {
                    "name": "E5",
                    "midi": 76,
                    "time": 234.20765646666652,
                    "velocity": 0.5669291338582677,
                    "duration": 0.3207548666666469
                },
                {
                    "name": "E4",
                    "midi": 64,
                    "time": 234.20765646666652,
                    "velocity": 0.4015748031496063,
                    "duration": 0.3207548666666469
                },
                {
                    "name": "G3",
                    "midi": 55,
                    "time": 234.26897724999986,
                    "velocity": 0.23622047244094488,
                    "duration": 1.433962933333305
                },
                {
                    "name": "E4",
                    "midi": 64,
                    "time": 234.70765669999983,
                    "velocity": 0.1889763779527559,
                    "duration": 0.3254718500000138
                },
                {
                    "name": "E5",
                    "midi": 76,
                    "time": 234.7170906666665,
                    "velocity": 0.33858267716535434,
                    "duration": 0.5660379999999918
                },
                {
                    "name": "B3",
                    "midi": 59,
                    "time": 234.72180764999985,
                    "velocity": 0.1889763779527559,
                    "duration": 0.3537737499999878
                },
                {
                    "name": "B4",
                    "midi": 71,
                    "time": 234.74067558333317,
                    "velocity": 0.25984251968503935,
                    "duration": 0.3867926333333287
                },
                {
                    "name": "E5",
                    "midi": 76,
                    "time": 235.55671369999985,
                    "velocity": 0.31496062992125984,
                    "duration": 0.8584909666666363
                },
                {
                    "name": "B4",
                    "midi": 71,
                    "time": 235.57086464999983,
                    "velocity": 0.2440944881889764,
                    "duration": 0.485849283333323
                },
                {
                    "name": "E4",
                    "midi": 64,
                    "time": 235.5802986166665,
                    "velocity": 0.23622047244094488,
                    "duration": 0.08962268333331735
                },
                {
                    "name": "B3",
                    "midi": 59,
                    "time": 235.59916654999984,
                    "velocity": 0.1968503937007874,
                    "duration": 0.08018871666666882
                },
                {
                    "name": "E4",
                    "midi": 64,
                    "time": 236.07558186666648,
                    "velocity": 0.2755905511811024,
                    "duration": 0.1981132999999886
                },
                {
                    "name": "E3",
                    "midi": 52,
                    "time": 236.09916678333315,
                    "velocity": 0.28346456692913385,
                    "duration": 0.11792458333331979
                },
                {
                    "name": "E2",
                    "midi": 40,
                    "time": 236.11803471666647,
                    "velocity": 0.25984251968503935,
                    "duration": 0.1367925166666737
                },
                {
                    "name": "D5",
                    "midi": 74,
                    "time": 236.6180349499998,
                    "velocity": 0.4251968503937008,
                    "duration": 0.18867933333334008
                },
                {
                    "name": "C3",
                    "midi": 48,
                    "time": 236.62275193333315,
                    "velocity": 0.3858267716535433,
                    "duration": 0.13679251666664527
                },
                {
                    "name": "C5",
                    "midi": 72,
                    "time": 236.62275193333315,
                    "velocity": 0.4094488188976378,
                    "duration": 0.1509434666666607
                },
                {
                    "name": "D4",
                    "midi": 62,
                    "time": 236.62275193333315,
                    "velocity": 0.28346456692913385,
                    "duration": 0.14150949999998375
                },
                {
                    "name": "D3",
                    "midi": 50,
                    "time": 236.6557708166665,
                    "velocity": 0.33070866141732286,
                    "duration": 0.14622648333332222
                },
                {
                    "name": "D2",
                    "midi": 38,
                    "time": 236.6887896999998,
                    "velocity": 0.25196850393700787,
                    "duration": 0.0660377666666534
                },
                {
                    "name": "G5",
                    "midi": 79,
                    "time": 237.10388423333316,
                    "velocity": 0.4251968503937008,
                    "duration": 0.22169821666665257
                },
                {
                    "name": "G4",
                    "midi": 67,
                    "time": 237.1086012166665,
                    "velocity": 0.4015748031496063,
                    "duration": 0.1981132999999886
                },
                {
                    "name": "G3",
                    "midi": 55,
                    "time": 237.12746914999983,
                    "velocity": 0.29133858267716534,
                    "duration": 0.11320760000000973
                },
                {
                    "name": "G2",
                    "midi": 43,
                    "time": 237.12746914999983,
                    "velocity": 0.3543307086614173,
                    "duration": 0.12735854999999674
                },
                {
                    "name": "F#5",
                    "midi": 78,
                    "time": 237.63218636666647,
                    "velocity": 0.4015748031496063,
                    "duration": 0.2688680499999805
                },
                {
                    "name": "F#4",
                    "midi": 66,
                    "time": 237.64633731666646,
                    "velocity": 0.36220472440944884,
                    "duration": 0.30660391666665987
                },
                {
                    "name": "F#3",
                    "midi": 54,
                    "time": 237.6652052499998,
                    "velocity": 0.2440944881889764,
                    "duration": 0.1981132999999886
                },
                {
                    "name": "D5",
                    "midi": 74,
                    "time": 237.67463921666646,
                    "velocity": 0.3464566929133858,
                    "duration": 0.2169812333333141
                },
                {
                    "name": "D3",
                    "midi": 50,
                    "time": 237.6793561999998,
                    "velocity": 0.2755905511811024,
                    "duration": 0.16037743333330923
                },
                {
                    "name": "C5",
                    "midi": 72,
                    "time": 237.6793561999998,
                    "velocity": 0.30708661417322836,
                    "duration": 0.21226424999997562
                },
                {
                    "name": "F#2",
                    "midi": 42,
                    "time": 237.6793561999998,
                    "velocity": 0.2047244094488189,
                    "duration": 0.22641519999999105
                },
                {
                    "name": "C3",
                    "midi": 48,
                    "time": 237.6935071499998,
                    "velocity": 0.25984251968503935,
                    "duration": 0.14622648333332222
                },
                {
                    "name": "E5",
                    "midi": 76,
                    "time": 238.29728101666646,
                    "velocity": 0.3779527559055118,
                    "duration": 0.2547170999999935
                },
                {
                    "name": "E4",
                    "midi": 64,
                    "time": 238.30671498333314,
                    "velocity": 0.2992125984251969,
                    "duration": 0.2830189999999675
                },
                {
                    "name": "B4",
                    "midi": 71,
                    "time": 238.3161489499998,
                    "velocity": 0.33070866141732286,
                    "duration": 0.24056614999997805
                },
                {
                    "name": "E3",
                    "midi": 52,
                    "time": 238.34445084999982,
                    "velocity": 0.1968503937007874,
                    "duration": 0.301886933333293
                },
                {
                    "name": "E2",
                    "midi": 40,
                    "time": 238.34916783333315,
                    "velocity": 0.25984251968503935,
                    "duration": 0.22169821666662415
                },
                {
                    "name": "B2",
                    "midi": 47,
                    "time": 238.36803576666648,
                    "velocity": 0.29133858267716534,
                    "duration": 0.21698123333328567
                },
                {
                    "name": "B3",
                    "midi": 59,
                    "time": 238.92463979999977,
                    "velocity": 0.5354330708661418,
                    "duration": 0.2830189999999675
                },
                {
                    "name": "B2",
                    "midi": 47,
                    "time": 238.93879074999975,
                    "velocity": 0.4330708661417323,
                    "duration": 0.5424530833333279
                },
                {
                    "name": "B4",
                    "midi": 71,
                    "time": 239.47652684999974,
                    "velocity": 0.6456692913385826,
                    "duration": 0.39150961666666717
                },
                {
                    "name": "D4",
                    "midi": 62,
                    "time": 239.48124383333308,
                    "velocity": 0.5433070866141733,
                    "duration": 0.5047172166666485
                },
                {
                    "name": "D3",
                    "midi": 50,
                    "time": 239.5001117666664,
                    "velocity": 0.47244094488188976,
                    "duration": 0.5188681666666355
                },
                {
                    "name": "E4",
                    "midi": 64,
                    "time": 240.00011199999972,
                    "velocity": 0.6535433070866141,
                    "duration": 0.20754726666666556
                },
                {
                    "name": "E3",
                    "midi": 52,
                    "time": 240.02369691666638,
                    "velocity": 0.4881889763779528,
                    "duration": 0.0990566499999943
                },
                {
                    "name": "E2",
                    "midi": 40,
                    "time": 240.40105558333306,
                    "velocity": 0.49606299212598426,
                    "duration": 0.0990566499999943
                },
                {
                    "name": "B2",
                    "midi": 47,
                    "time": 240.4765273166664,
                    "velocity": 0.5511811023622047,
                    "duration": 0.09905664999996588
                },
                {
                    "name": "G#3",
                    "midi": 56,
                    "time": 240.55671603333303,
                    "velocity": 0.47244094488188976,
                    "duration": 0.08490569999997888
                },
                {
                    "name": "F#3",
                    "midi": 54,
                    "time": 240.57558396666636,
                    "velocity": 0.4330708661417323,
                    "duration": 0.023584916666663958
                },
                {
                    "name": "D4",
                    "midi": 62,
                    "time": 240.62747078333302,
                    "velocity": 0.4566929133858268,
                    "duration": 0.0660377666666534
                },
                {
                    "name": "F#4",
                    "midi": 66,
                    "time": 240.70765949999966,
                    "velocity": 0.5118110236220472,
                    "duration": 0.05188681666666639
                },
                {
                    "name": "D5",
                    "midi": 74,
                    "time": 240.853885983333,
                    "velocity": 0.5511811023622047,
                    "duration": 0.04245284999998944
                },
                {
                    "name": "F#5",
                    "midi": 78,
                    "time": 240.9718105666663,
                    "velocity": 0.5039370078740157,
                    "duration": 0.13207553333333522
                },
                {
                    "name": "D6",
                    "midi": 86,
                    "time": 241.10388609999964,
                    "velocity": 0.6456692913385826,
                    "duration": 0.07075474999999187
                },
                {
                    "name": "D2",
                    "midi": 38,
                    "time": 242.1321884666663,
                    "velocity": 0.41732283464566927,
                    "duration": 0.12264156666665826
                },
                {
                    "name": "A2",
                    "midi": 45,
                    "time": 242.24539606666627,
                    "velocity": 0.47244094488188976,
                    "duration": 0.04245285000001786
                },
                {
                    "name": "F#3",
                    "midi": 54,
                    "time": 242.33501874999962,
                    "velocity": 0.41732283464566927,
                    "duration": 0.028301900000002433
                },
                {
                    "name": "E4",
                    "midi": 64,
                    "time": 242.50954713333294,
                    "velocity": 0.2992125984251969,
                    "duration": 0.17452838333332465
                },
                {
                    "name": "C4",
                    "midi": 60,
                    "time": 242.50954713333294,
                    "velocity": 0.33858267716535434,
                    "duration": 0.29245296666667286
                },
                {
                    "name": "E5",
                    "midi": 76,
                    "time": 242.5755848999996,
                    "velocity": 0.3700787401574803,
                    "duration": 0.2594340833333604
                },
                {
                    "name": "A4",
                    "midi": 69,
                    "time": 242.60860378333294,
                    "velocity": 0.5354330708661418,
                    "duration": 0.1509434666666607
                },
                {
                    "name": "A5",
                    "midi": 81,
                    "time": 242.63690568333294,
                    "velocity": 0.5748031496062992,
                    "duration": 0.16037743333333765
                },
                {
                    "name": "C5",
                    "midi": 72,
                    "time": 242.7595472499996,
                    "velocity": 0.5905511811023622,
                    "duration": 0.09433966666668425
                },
                {
                    "name": "D6",
                    "midi": 86,
                    "time": 242.7595472499996,
                    "velocity": 0.6850393700787402,
                    "duration": 0.09433966666668425
                },
                {
                    "name": "B4",
                    "midi": 71,
                    "time": 243.2501135166663,
                    "velocity": 0.6377952755905512,
                    "duration": 0.5707549833333303
                },
                {
                    "name": "B3",
                    "midi": 59,
                    "time": 243.25483049999963,
                    "velocity": 0.4409448818897638,
                    "duration": 0.5660379999999918
                },
                {
                    "name": "A4",
                    "midi": 69,
                    "time": 243.79256659999962,
                    "velocity": 0.6535433070866141,
                    "duration": 0.15094346666668912
                },
                {
                    "name": "A3",
                    "midi": 57,
                    "time": 243.79256659999962,
                    "velocity": 0.5275590551181102,
                    "duration": 0.08962268333334578
                },
                {
                    "name": "G1",
                    "midi": 31,
                    "time": 244.27841588333297,
                    "velocity": 0.6299212598425197,
                    "duration": 0.21226424999997562
                },
                {
                    "name": "G2",
                    "midi": 43,
                    "time": 244.4859631499996,
                    "velocity": 0.5511811023622047,
                    "duration": 0.037735866666679385
                },
                {
                    "name": "F#3",
                    "midi": 54,
                    "time": 244.68879343333296,
                    "velocity": 0.4881889763779528,
                    "duration": 0.0990566499999943
                },
                {
                    "name": "B3",
                    "midi": 59,
                    "time": 244.77369913333297,
                    "velocity": 0.4566929133858268,
                    "duration": 0.03773586666665096
                },
                {
                    "name": "F#4",
                    "midi": 66,
                    "time": 244.79728404999963,
                    "velocity": 0.4881889763779528,
                    "duration": 0.05188681666666639
                },
                {
                    "name": "B4",
                    "midi": 71,
                    "time": 244.86803879999962,
                    "velocity": 0.4645669291338583,
                    "duration": 0.0990566499999943
                },
                {
                    "name": "F#5",
                    "midi": 78,
                    "time": 244.93407656666628,
                    "velocity": 0.5039370078740157,
                    "duration": 0.09433966666668425
                },
                {
                    "name": "B5",
                    "midi": 83,
                    "time": 245.01898226666628,
                    "velocity": 0.6456692913385826,
                    "duration": 0.12264156666668669
                },
                {
                    "name": "D6",
                    "midi": 86,
                    "time": 245.16520874999964,
                    "velocity": 0.7007874015748031,
                    "duration": 0.6320757666666736
                },
                {
                    "name": "E4",
                    "midi": 64,
                    "time": 246.59917168333297,
                    "velocity": 0.6456692913385826,
                    "duration": 0.8349060500000292
                },
                {
                    "name": "E3",
                    "midi": 52,
                    "time": 246.62275659999963,
                    "velocity": 0.5118110236220472,
                    "duration": 0.3867926333333571
                },
                {
                    "name": "E2",
                    "midi": 40,
                    "time": 246.6321905666663,
                    "velocity": 0.3464566929133858,
                    "duration": 0.4056605666666826
                },
                {
                    "name": "D4",
                    "midi": 62,
                    "time": 247.42936074999966,
                    "velocity": 0.6299212598425197,
                    "duration": 0.3207548666666753
                },
                {
                    "name": "D3",
                    "midi": 50,
                    "time": 247.45766264999966,
                    "velocity": 0.5748031496062992,
                    "duration": 0.1698114000000146
                },
                {
                    "name": "D2",
                    "midi": 38,
                    "time": 247.462379633333,
                    "velocity": 0.5196850393700787,
                    "duration": 0.15566044999999917
                },
                {
                    "name": "G1",
                    "midi": 31,
                    "time": 248.22181394999964,
                    "velocity": 0.5984251968503937,
                    "duration": 0.06132078333334334
                },
                {
                    "name": "G2",
                    "midi": 43,
                    "time": 248.22181394999964,
                    "velocity": 0.6692913385826772,
                    "duration": 0.10377363333333278
                },
                {
                    "name": "D6",
                    "midi": 86,
                    "time": 248.8114368666663,
                    "velocity": 0.7401574803149606,
                    "duration": 0.419811516666698
                },
                {
                    "name": "D3",
                    "midi": 50,
                    "time": 248.82087083333298,
                    "velocity": 0.6299212598425197,
                    "duration": 0.08018871666666882
                },
                {
                    "name": "G5",
                    "midi": 79,
                    "time": 248.8255878166663,
                    "velocity": 0.6692913385826772,
                    "duration": 0.39622660000000565
                },
                {
                    "name": "D5",
                    "midi": 74,
                    "time": 248.8255878166663,
                    "velocity": 0.6456692913385826,
                    "duration": 0.41509453333335955
                },
                {
                    "name": "G3",
                    "midi": 55,
                    "time": 248.83030479999965,
                    "velocity": 0.6141732283464567,
                    "duration": 0.08018871666666882
                },
                {
                    "name": "D4",
                    "midi": 62,
                    "time": 248.83030479999965,
                    "velocity": 0.6141732283464567,
                    "duration": 0.08018871666666882
                }
            ],
            "controlChanges": {
                "7": [
                    {
                        "number": 7,
                        "time": 0,
                        "value": 1
                    }
                ],
                "10": [
                    {
                        "number": 10,
                        "time": 0,
                        "value": 0.5039370078740157
                    }
                ],
                "64": [
                    {
                        "number": 64,
                        "time": 2.1084915500000005,
                        "value": 0.31496062992125984
                    },
                    {
                        "number": 64,
                        "time": 2.127359483333334,
                        "value": 0.4409448818897638
                    },
                    {
                        "number": 64,
                        "time": 2.1462274166666675,
                        "value": 0.5669291338582677
                    },
                    {
                        "number": 64,
                        "time": 2.165095350000001,
                        "value": 0.6929133858267716
                    },
                    {
                        "number": 64,
                        "time": 2.1839632833333344,
                        "value": 0.8188976377952756
                    },
                    {
                        "number": 64,
                        "time": 2.202831216666668,
                        "value": 1
                    },
                    {
                        "number": 64,
                        "time": 3.9103791833333355,
                        "value": 0.4409448818897638
                    },
                    {
                        "number": 64,
                        "time": 3.929247116666669,
                        "value": 0
                    },
                    {
                        "number": 64,
                        "time": 4.0471717000000025,
                        "value": 0.4409448818897638
                    },
                    {
                        "number": 64,
                        "time": 4.066039633333336,
                        "value": 1
                    },
                    {
                        "number": 64,
                        "time": 5.721700783333335,
                        "value": 0.31496062992125984
                    },
                    {
                        "number": 64,
                        "time": 5.740568716666669,
                        "value": 0
                    },
                    {
                        "number": 64,
                        "time": 5.910380116666669,
                        "value": 0.5669291338582677
                    },
                    {
                        "number": 64,
                        "time": 5.929248050000003,
                        "value": 1
                    },
                    {
                        "number": 64,
                        "time": 7.410380816666669,
                        "value": 0.31496062992125984
                    },
                    {
                        "number": 64,
                        "time": 7.429248750000003,
                        "value": 0
                    },
                    {
                        "number": 64,
                        "time": 7.566041266666669,
                        "value": 0.6929133858267716
                    },
                    {
                        "number": 64,
                        "time": 7.584909200000003,
                        "value": 1
                    },
                    {
                        "number": 64,
                        "time": 8.386796366666667,
                        "value": 0.6929133858267716
                    },
                    {
                        "number": 64,
                        "time": 8.4056643,
                        "value": 0
                    },
                    {
                        "number": 64,
                        "time": 8.537739833333333,
                        "value": 0.4409448818897638
                    },
                    {
                        "number": 64,
                        "time": 8.551890783333333,
                        "value": 1
                    },
                    {
                        "number": 64,
                        "time": 9.273589233333334,
                        "value": 0.5669291338582677
                    },
                    {
                        "number": 64,
                        "time": 9.292457166666667,
                        "value": 0
                    },
                    {
                        "number": 64,
                        "time": 9.46698555,
                        "value": 0.31496062992125984
                    },
                    {
                        "number": 64,
                        "time": 9.485853483333333,
                        "value": 0.6929133858267716
                    },
                    {
                        "number": 64,
                        "time": 9.504721416666666,
                        "value": 1
                    },
                    {
                        "number": 64,
                        "time": 10.933967366666666,
                        "value": 0.8188976377952756
                    },
                    {
                        "number": 64,
                        "time": 10.952835299999998,
                        "value": 0.1889763779527559
                    },
                    {
                        "number": 64,
                        "time": 10.971703233333331,
                        "value": 0
                    },
                    {
                        "number": 64,
                        "time": 11.02830703333333,
                        "value": 0.1889763779527559
                    },
                    {
                        "number": 64,
                        "time": 11.047174966666663,
                        "value": 0.6929133858267716
                    },
                    {
                        "number": 64,
                        "time": 11.066042899999996,
                        "value": 1
                    },
                    {
                        "number": 64,
                        "time": 12.721704049999994,
                        "value": 0.4409448818897638
                    },
                    {
                        "number": 64,
                        "time": 12.740571983333327,
                        "value": 0
                    },
                    {
                        "number": 64,
                        "time": 12.891515449999993,
                        "value": 0.5669291338582677
                    },
                    {
                        "number": 64,
                        "time": 12.910383383333325,
                        "value": 1
                    },
                    {
                        "number": 64,
                        "time": 14.429252016666661,
                        "value": 0.31496062992125984
                    },
                    {
                        "number": 64,
                        "time": 14.452836933333327,
                        "value": 0
                    },
                    {
                        "number": 64,
                        "time": 14.58491246666666,
                        "value": 0.4409448818897638
                    },
                    {
                        "number": 64,
                        "time": 14.603780399999993,
                        "value": 1
                    },
                    {
                        "number": 64,
                        "time": 16.273592499999996,
                        "value": 0.8188976377952756
                    },
                    {
                        "number": 64,
                        "time": 16.29246043333333,
                        "value": 0.31496062992125984
                    },
                    {
                        "number": 64,
                        "time": 16.316045349999996,
                        "value": 0
                    },
                    {
                        "number": 64,
                        "time": 16.448120883333328,
                        "value": 0.4409448818897638
                    },
                    {
                        "number": 64,
                        "time": 16.46698881666666,
                        "value": 1
                    },
                    {
                        "number": 64,
                        "time": 17.99057443333333,
                        "value": 0.5669291338582677
                    },
                    {
                        "number": 64,
                        "time": 18.00944236666666,
                        "value": 0
                    },
                    {
                        "number": 64,
                        "time": 18.13680091666666,
                        "value": 0.6929133858267716
                    },
                    {
                        "number": 64,
                        "time": 18.155668849999994,
                        "value": 1
                    },
                    {
                        "number": 64,
                        "time": 19.94812251666665,
                        "value": 0.5669291338582677
                    },
                    {
                        "number": 64,
                        "time": 19.966990449999983,
                        "value": 0
                    },
                    {
                        "number": 64,
                        "time": 20.198122633333316,
                        "value": 0.5669291338582677
                    },
                    {
                        "number": 64,
                        "time": 20.21699056666665,
                        "value": 1
                    },
                    {
                        "number": 64,
                        "time": 21.641519533333312,
                        "value": 0.4409448818897638
                    },
                    {
                        "number": 64,
                        "time": 21.660387466666645,
                        "value": 0
                    },
                    {
                        "number": 64,
                        "time": 21.75472713333331,
                        "value": 0.5669291338582677
                    },
                    {
                        "number": 64,
                        "time": 21.773595066666644,
                        "value": 1
                    },
                    {
                        "number": 64,
                        "time": 22.594350166666644,
                        "value": 0.5669291338582677
                    },
                    {
                        "number": 64,
                        "time": 22.608501116666645,
                        "value": 0
                    },
                    {
                        "number": 64,
                        "time": 22.68868983333331,
                        "value": 0.1889763779527559
                    },
                    {
                        "number": 64,
                        "time": 22.707557766666643,
                        "value": 0.6929133858267716
                    },
                    {
                        "number": 64,
                        "time": 22.72642569999998,
                        "value": 1
                    },
                    {
                        "number": 64,
                        "time": 23.10850134999998,
                        "value": 0.5669291338582677
                    },
                    {
                        "number": 64,
                        "time": 23.12265229999998,
                        "value": 0
                    },
                    {
                        "number": 64,
                        "time": 23.221708949999982,
                        "value": 0.31496062992125984
                    },
                    {
                        "number": 64,
                        "time": 23.240576883333315,
                        "value": 0.8188976377952756
                    },
                    {
                        "number": 64,
                        "time": 23.259444816666647,
                        "value": 1
                    },
                    {
                        "number": 64,
                        "time": 23.825482816666646,
                        "value": 0.8188976377952756
                    },
                    {
                        "number": 64,
                        "time": 23.849067733333314,
                        "value": 0.31496062992125984
                    },
                    {
                        "number": 64,
                        "time": 23.867935666666646,
                        "value": 0
                    },
                    {
                        "number": 64,
                        "time": 24.000011199999978,
                        "value": 0.8188976377952756
                    },
                    {
                        "number": 64,
                        "time": 24.01887913333331,
                        "value": 1
                    },
                    {
                        "number": 64,
                        "time": 27.160390033333314,
                        "value": 0.5669291338582677
                    },
                    {
                        "number": 64,
                        "time": 27.179257966666647,
                        "value": 0
                    },
                    {
                        "number": 64,
                        "time": 27.25472969999998,
                        "value": 0.31496062992125984
                    },
                    {
                        "number": 64,
                        "time": 27.273597633333313,
                        "value": 0.8188976377952756
                    },
                    {
                        "number": 64,
                        "time": 27.292465566666646,
                        "value": 1
                    },
                    {
                        "number": 64,
                        "time": 29.783032766666647,
                        "value": 0.6929133858267716
                    },
                    {
                        "number": 64,
                        "time": 29.80190069999998,
                        "value": 0.1889763779527559
                    },
                    {
                        "number": 64,
                        "time": 29.820768633333312,
                        "value": 0
                    },
                    {
                        "number": 64,
                        "time": 29.877372433333313,
                        "value": 0.1889763779527559
                    },
                    {
                        "number": 64,
                        "time": 29.896240366666646,
                        "value": 0.5669291338582677
                    },
                    {
                        "number": 64,
                        "time": 29.91510829999998,
                        "value": 1
                    },
                    {
                        "number": 64,
                        "time": 31.075486199999975,
                        "value": 0.31496062992125984
                    },
                    {
                        "number": 64,
                        "time": 31.094354133333308,
                        "value": 0
                    },
                    {
                        "number": 64,
                        "time": 31.169825866666642,
                        "value": 0.1889763779527559
                    },
                    {
                        "number": 64,
                        "time": 31.188693799999974,
                        "value": 0.8188976377952756
                    },
                    {
                        "number": 64,
                        "time": 31.207561733333307,
                        "value": 1
                    },
                    {
                        "number": 64,
                        "time": 32.91982668333331,
                        "value": 0.6929133858267716
                    },
                    {
                        "number": 64,
                        "time": 32.938694616666645,
                        "value": 0
                    },
                    {
                        "number": 64,
                        "time": 33.07548713333331,
                        "value": 0.5669291338582677
                    },
                    {
                        "number": 64,
                        "time": 33.094355066666644,
                        "value": 1
                    },
                    {
                        "number": 64,
                        "time": 33.66039306666664,
                        "value": 0.4409448818897638
                    },
                    {
                        "number": 64,
                        "time": 33.679260999999975,
                        "value": 0
                    },
                    {
                        "number": 64,
                        "time": 33.77831764999998,
                        "value": 0.4409448818897638
                    },
                    {
                        "number": 64,
                        "time": 33.79718558333331,
                        "value": 1
                    },
                    {
                        "number": 64,
                        "time": 34.50001609999999,
                        "value": 0.8188976377952756
                    },
                    {
                        "number": 64,
                        "time": 34.51888403333332,
                        "value": 0
                    },
                    {
                        "number": 64,
                        "time": 34.65095956666666,
                        "value": 0.4409448818897638
                    },
                    {
                        "number": 64,
                        "time": 34.66982749999999,
                        "value": 1
                    },
                    {
                        "number": 64,
                        "time": 36.78303603333333,
                        "value": 0.6929133858267716
                    },
                    {
                        "number": 64,
                        "time": 36.801903966666664,
                        "value": 0
                    },
                    {
                        "number": 64,
                        "time": 36.896243633333334,
                        "value": 0.31496062992125984
                    },
                    {
                        "number": 64,
                        "time": 36.91511156666667,
                        "value": 1
                    },
                    {
                        "number": 64,
                        "time": 37.334923083333344,
                        "value": 0.8188976377952756
                    },
                    {
                        "number": 64,
                        "time": 37.353791016666676,
                        "value": 0.5669291338582677
                    },
                    {
                        "number": 64,
                        "time": 37.41039481666668,
                        "value": 1
                    },
                    {
                        "number": 64,
                        "time": 37.830206333333344,
                        "value": 0.6929133858267716
                    },
                    {
                        "number": 64,
                        "time": 37.84907426666668,
                        "value": 0.1889763779527559
                    },
                    {
                        "number": 64,
                        "time": 37.867942200000016,
                        "value": 0
                    },
                    {
                        "number": 64,
                        "time": 37.91982901666668,
                        "value": 0.5669291338582677
                    },
                    {
                        "number": 64,
                        "time": 37.943413933333346,
                        "value": 1
                    },
                    {
                        "number": 64,
                        "time": 38.495300983333344,
                        "value": 0.31496062992125984
                    },
                    {
                        "number": 64,
                        "time": 38.51416891666668,
                        "value": 0
                    },
                    {
                        "number": 64,
                        "time": 38.64624445000001,
                        "value": 0.31496062992125984
                    },
                    {
                        "number": 64,
                        "time": 38.665112383333344,
                        "value": 0.8188976377952756
                    },
                    {
                        "number": 64,
                        "time": 38.68398031666668,
                        "value": 1
                    },
                    {
                        "number": 64,
                        "time": 40.603792533333326,
                        "value": 0.4409448818897638
                    },
                    {
                        "number": 64,
                        "time": 40.62266046666666,
                        "value": 0
                    },
                    {
                        "number": 64,
                        "time": 40.759452983333325,
                        "value": 0.5669291338582677
                    },
                    {
                        "number": 64,
                        "time": 40.77832091666666,
                        "value": 1
                    },
                    {
                        "number": 64,
                        "time": 41.575491099999994,
                        "value": 0.31496062992125984
                    },
                    {
                        "number": 64,
                        "time": 41.594359033333326,
                        "value": 0
                    },
                    {
                        "number": 64,
                        "time": 41.688698699999996,
                        "value": 0.31496062992125984
                    },
                    {
                        "number": 64,
                        "time": 41.70756663333333,
                        "value": 1
                    },
                    {
                        "number": 64,
                        "time": 42.6226614,
                        "value": 0.8188976377952756
                    },
                    {
                        "number": 64,
                        "time": 42.64152933333333,
                        "value": 0.31496062992125984
                    },
                    {
                        "number": 64,
                        "time": 42.66039726666666,
                        "value": 0
                    },
                    {
                        "number": 64,
                        "time": 42.75473693333333,
                        "value": 0.4409448818897638
                    },
                    {
                        "number": 64,
                        "time": 42.77360486666666,
                        "value": 1
                    },
                    {
                        "number": 64,
                        "time": 43.13681258333333,
                        "value": 0.6929133858267716
                    },
                    {
                        "number": 64,
                        "time": 43.15568051666666,
                        "value": 0.1889763779527559
                    },
                    {
                        "number": 64,
                        "time": 43.174548449999996,
                        "value": 0
                    },
                    {
                        "number": 64,
                        "time": 43.30662398333333,
                        "value": 0.31496062992125984
                    },
                    {
                        "number": 64,
                        "time": 43.325491916666664,
                        "value": 1
                    },
                    {
                        "number": 64,
                        "time": 46.61794628333333,
                        "value": 0.8188976377952756
                    },
                    {
                        "number": 64,
                        "time": 46.636814216666664,
                        "value": 0.1889763779527559
                    },
                    {
                        "number": 64,
                        "time": 46.65568215,
                        "value": 0
                    },
                    {
                        "number": 64,
                        "time": 46.76888975,
                        "value": 0.8188976377952756
                    },
                    {
                        "number": 64,
                        "time": 46.7830407,
                        "value": 1
                    },
                    {
                        "number": 64,
                        "time": 47.54719200000002,
                        "value": 0.5669291338582677
                    },
                    {
                        "number": 64,
                        "time": 47.56605993333335,
                        "value": 0.1889763779527559
                    },
                    {
                        "number": 64,
                        "time": 47.58492786666668,
                        "value": 0
                    },
                    {
                        "number": 64,
                        "time": 47.603795800000015,
                        "value": 0.31496062992125984
                    },
                    {
                        "number": 64,
                        "time": 47.62266373333335,
                        "value": 0.6929133858267716
                    },
                    {
                        "number": 64,
                        "time": 47.64153166666668,
                        "value": 1
                    },
                    {
                        "number": 64,
                        "time": 50.02360825000002,
                        "value": 0.4409448818897638
                    },
                    {
                        "number": 64,
                        "time": 50.04247618333335,
                        "value": 0
                    },
                    {
                        "number": 64,
                        "time": 50.15568378333335,
                        "value": 0.31496062992125984
                    },
                    {
                        "number": 64,
                        "time": 50.17455171666669,
                        "value": 1
                    },
                    {
                        "number": 64,
                        "time": 50.87266525000003,
                        "value": 0.6929133858267716
                    },
                    {
                        "number": 64,
                        "time": 50.8962501666667,
                        "value": 0
                    },
                    {
                        "number": 64,
                        "time": 51.0094577666667,
                        "value": 0.4409448818897638
                    },
                    {
                        "number": 64,
                        "time": 51.02832570000003,
                        "value": 1
                    },
                    {
                        "number": 64,
                        "time": 53.44813815000005,
                        "value": 0.6929133858267716
                    },
                    {
                        "number": 64,
                        "time": 53.46700608333338,
                        "value": 0.1889763779527559
                    },
                    {
                        "number": 64,
                        "time": 53.48587401666671,
                        "value": 0
                    },
                    {
                        "number": 64,
                        "time": 53.63210050000005,
                        "value": 0.6929133858267716
                    },
                    {
                        "number": 64,
                        "time": 53.65568541666672,
                        "value": 1
                    },
                    {
                        "number": 64,
                        "time": 54.29719515000005,
                        "value": 0.4409448818897638
                    },
                    {
                        "number": 64,
                        "time": 54.320780066666714,
                        "value": 0
                    },
                    {
                        "number": 64,
                        "time": 54.396251800000044,
                        "value": 0.4409448818897638
                    },
                    {
                        "number": 64,
                        "time": 54.41511973333338,
                        "value": 1
                    },
                    {
                        "number": 64,
                        "time": 56.83021520000005,
                        "value": 0.5669291338582677
                    },
                    {
                        "number": 64,
                        "time": 56.84908313333339,
                        "value": 0
                    },
                    {
                        "number": 64,
                        "time": 56.985875650000054,
                        "value": 0.1889763779527559
                    },
                    {
                        "number": 64,
                        "time": 57.004743583333386,
                        "value": 0.8188976377952756
                    },
                    {
                        "number": 64,
                        "time": 57.023611516666726,
                        "value": 1
                    },
                    {
                        "number": 64,
                        "time": 58.60380093333339,
                        "value": 0.8188976377952756
                    },
                    {
                        "number": 64,
                        "time": 58.62266886666672,
                        "value": 0.1889763779527559
                    },
                    {
                        "number": 64,
                        "time": 58.641536800000054,
                        "value": 0
                    },
                    {
                        "number": 64,
                        "time": 58.735876466666724,
                        "value": 0.5669291338582677
                    },
                    {
                        "number": 64,
                        "time": 58.75474440000006,
                        "value": 1
                    },
                    {
                        "number": 64,
                        "time": 60.580216950000064,
                        "value": 0.31496062992125984
                    },
                    {
                        "number": 64,
                        "time": 60.5990848833334,
                        "value": 0
                    },
                    {
                        "number": 64,
                        "time": 60.7122924833334,
                        "value": 0.31496062992125984
                    },
                    {
                        "number": 64,
                        "time": 60.73116041666674,
                        "value": 0.8188976377952756
                    },
                    {
                        "number": 64,
                        "time": 60.75002835000007,
                        "value": 1
                    },
                    {
                        "number": 64,
                        "time": 61.49531171666675,
                        "value": 0.4409448818897638
                    },
                    {
                        "number": 64,
                        "time": 61.51417965000008,
                        "value": 0.31496062992125984
                    },
                    {
                        "number": 64,
                        "time": 61.53304758333341,
                        "value": 0.4409448818897638
                    },
                    {
                        "number": 64,
                        "time": 61.551915516666746,
                        "value": 0.8188976377952756
                    },
                    {
                        "number": 64,
                        "time": 61.57078345000008,
                        "value": 1
                    },
                    {
                        "number": 64,
                        "time": 63.985878916666735,
                        "value": 0.6929133858267716
                    },
                    {
                        "number": 64,
                        "time": 64.00474685000007,
                        "value": 0.1889763779527559
                    },
                    {
                        "number": 64,
                        "time": 64.02361478333341,
                        "value": 0
                    },
                    {
                        "number": 64,
                        "time": 64.15569031666675,
                        "value": 0.4409448818897638
                    },
                    {
                        "number": 64,
                        "time": 64.17927523333341,
                        "value": 1
                    },
                    {
                        "number": 64,
                        "time": 65.08493603333342,
                        "value": 0.6929133858267716
                    },
                    {
                        "number": 64,
                        "time": 65.10852095000008,
                        "value": 0
                    },
                    {
                        "number": 64,
                        "time": 65.25946441666675,
                        "value": 0.4409448818897638
                    },
                    {
                        "number": 64,
                        "time": 65.27833235000008,
                        "value": 1
                    },
                    {
                        "number": 64,
                        "time": 66.36323851666674,
                        "value": 0.4409448818897638
                    },
                    {
                        "number": 64,
                        "time": 66.38210645000008,
                        "value": 0
                    },
                    {
                        "number": 64,
                        "time": 66.45757818333341,
                        "value": 0.31496062992125984
                    },
                    {
                        "number": 64,
                        "time": 66.47644611666675,
                        "value": 0.8188976377952756
                    },
                    {
                        "number": 64,
                        "time": 66.49531405000009,
                        "value": 1
                    },
                    {
                        "number": 64,
                        "time": 66.82078590000008,
                        "value": 0.5669291338582677
                    },
                    {
                        "number": 64,
                        "time": 66.83965383333341,
                        "value": 0
                    },
                    {
                        "number": 64,
                        "time": 66.91512556666675,
                        "value": 0.4409448818897638
                    },
                    {
                        "number": 64,
                        "time": 66.93399350000008,
                        "value": 1
                    },
                    {
                        "number": 64,
                        "time": 67.34908803333343,
                        "value": 0.4409448818897638
                    },
                    {
                        "number": 64,
                        "time": 67.37267295000011,
                        "value": 0
                    },
                    {
                        "number": 64,
                        "time": 67.46701261666676,
                        "value": 0.5669291338582677
                    },
                    {
                        "number": 64,
                        "time": 67.4858805500001,
                        "value": 1
                    },
                    {
                        "number": 64,
                        "time": 67.92456000000013,
                        "value": 0.8188976377952756
                    },
                    {
                        "number": 64,
                        "time": 67.94342793333347,
                        "value": 0.31496062992125984
                    },
                    {
                        "number": 64,
                        "time": 67.9622958666668,
                        "value": 0
                    },
                    {
                        "number": 64,
                        "time": 68.09437140000014,
                        "value": 0.31496062992125984
                    },
                    {
                        "number": 64,
                        "time": 68.11323933333348,
                        "value": 1
                    },
                    {
                        "number": 64,
                        "time": 69.0236171166668,
                        "value": 0.5669291338582677
                    },
                    {
                        "number": 64,
                        "time": 69.04720203333346,
                        "value": 0
                    },
                    {
                        "number": 64,
                        "time": 69.1792775666668,
                        "value": 0.4409448818897638
                    },
                    {
                        "number": 64,
                        "time": 69.19814550000014,
                        "value": 1
                    },
                    {
                        "number": 64,
                        "time": 70.18399501666678,
                        "value": 0.6929133858267716
                    },
                    {
                        "number": 64,
                        "time": 70.20286295000012,
                        "value": 0.1889763779527559
                    },
                    {
                        "number": 64,
                        "time": 70.22644786666679,
                        "value": 0
                    },
                    {
                        "number": 64,
                        "time": 70.32078753333346,
                        "value": 0.4409448818897638
                    },
                    {
                        "number": 64,
                        "time": 70.3396554666668,
                        "value": 1
                    },
                    {
                        "number": 64,
                        "time": 71.06135391666682,
                        "value": 0.5669291338582677
                    },
                    {
                        "number": 64,
                        "time": 71.08022185000016,
                        "value": 0
                    },
                    {
                        "number": 64,
                        "time": 71.16041056666683,
                        "value": 0.31496062992125984
                    },
                    {
                        "number": 64,
                        "time": 71.17927850000017,
                        "value": 1
                    },
                    {
                        "number": 64,
                        "time": 73.66984570000017,
                        "value": 0.6929133858267716
                    },
                    {
                        "number": 64,
                        "time": 73.6887136333335,
                        "value": 0.1889763779527559
                    },
                    {
                        "number": 64,
                        "time": 73.70758156666685,
                        "value": 0
                    },
                    {
                        "number": 64,
                        "time": 73.85852503333352,
                        "value": 0.5669291338582677
                    },
                    {
                        "number": 64,
                        "time": 73.87739296666686,
                        "value": 1
                    },
                    {
                        "number": 64,
                        "time": 74.5472046000002,
                        "value": 0.4409448818897638
                    },
                    {
                        "number": 64,
                        "time": 74.56607253333354,
                        "value": 0
                    },
                    {
                        "number": 64,
                        "time": 74.67928013333355,
                        "value": 0.1889763779527559
                    },
                    {
                        "number": 64,
                        "time": 74.69814806666689,
                        "value": 0.8188976377952756
                    },
                    {
                        "number": 64,
                        "time": 74.71701600000023,
                        "value": 1
                    },
                    {
                        "number": 64,
                        "time": 77.15097940000021,
                        "value": 0.6929133858267716
                    },
                    {
                        "number": 64,
                        "time": 77.16984733333354,
                        "value": 0
                    },
                    {
                        "number": 64,
                        "time": 77.3207908000002,
                        "value": 0.8188976377952756
                    },
                    {
                        "number": 64,
                        "time": 77.33965873333354,
                        "value": 1
                    },
                    {
                        "number": 64,
                        "time": 78.04720623333354,
                        "value": 0.4409448818897638
                    },
                    {
                        "number": 64,
                        "time": 78.06607416666688,
                        "value": 0
                    },
                    {
                        "number": 64,
                        "time": 78.14154590000021,
                        "value": 0.31496062992125984
                    },
                    {
                        "number": 64,
                        "time": 78.15569685000021,
                        "value": 1
                    },
                    {
                        "number": 64,
                        "time": 80.53777343333357,
                        "value": 0.31496062992125984
                    },
                    {
                        "number": 64,
                        "time": 80.55664136666691,
                        "value": 0
                    },
                    {
                        "number": 64,
                        "time": 80.65098103333358,
                        "value": 0.4409448818897638
                    },
                    {
                        "number": 64,
                        "time": 80.66984896666692,
                        "value": 1
                    },
                    {
                        "number": 64,
                        "time": 82.2453214000003,
                        "value": 0.5669291338582677
                    },
                    {
                        "number": 64,
                        "time": 82.26890631666696,
                        "value": 0
                    },
                    {
                        "number": 64,
                        "time": 82.38211391666695,
                        "value": 0.4409448818897638
                    },
                    {
                        "number": 64,
                        "time": 82.40098185000029,
                        "value": 1
                    },
                    {
                        "number": 64,
                        "time": 84.26419026666697,
                        "value": 0.8188976377952756
                    },
                    {
                        "number": 64,
                        "time": 84.28305820000031,
                        "value": 0.31496062992125984
                    },
                    {
                        "number": 64,
                        "time": 84.30192613333365,
                        "value": 0
                    },
                    {
                        "number": 64,
                        "time": 84.43400166666699,
                        "value": 0.6929133858267716
                    },
                    {
                        "number": 64,
                        "time": 84.45758658333366,
                        "value": 1
                    },
                    {
                        "number": 64,
                        "time": 85.16041710000033,
                        "value": 0.4409448818897638
                    },
                    {
                        "number": 64,
                        "time": 85.17928503333367,
                        "value": 0
                    },
                    {
                        "number": 64,
                        "time": 85.23117185000034,
                        "value": 0.6929133858267716
                    },
                    {
                        "number": 64,
                        "time": 85.254756766667,
                        "value": 1
                    },
                    {
                        "number": 64,
                        "time": 86.77834238333367,
                        "value": 0.31496062992125984
                    },
                    {
                        "number": 64,
                        "time": 86.797210316667,
                        "value": 0
                    },
                    {
                        "number": 64,
                        "time": 86.910417916667,
                        "value": 1
                    },
                    {
                        "number": 64,
                        "time": 87.93872028333367,
                        "value": 0.5669291338582677
                    },
                    {
                        "number": 64,
                        "time": 87.957588216667,
                        "value": 0
                    },
                    {
                        "number": 64,
                        "time": 88.08966375000034,
                        "value": 0.5669291338582677
                    },
                    {
                        "number": 64,
                        "time": 88.10853168333368,
                        "value": 1
                    },
                    {
                        "number": 64,
                        "time": 88.96702265000035,
                        "value": 0.4409448818897638
                    },
                    {
                        "number": 64,
                        "time": 88.98589058333368,
                        "value": 0
                    },
                    {
                        "number": 64,
                        "time": 89.13683405000035,
                        "value": 0.5669291338582677
                    },
                    {
                        "number": 64,
                        "time": 89.15570198333369,
                        "value": 1
                    },
                    {
                        "number": 64,
                        "time": 90.20287228333369,
                        "value": 0.8188976377952756
                    },
                    {
                        "number": 64,
                        "time": 90.22174021666703,
                        "value": 0.1889763779527559
                    },
                    {
                        "number": 64,
                        "time": 90.24060815000037,
                        "value": 0
                    },
                    {
                        "number": 64,
                        "time": 90.29721195000037,
                        "value": 0.1889763779527559
                    },
                    {
                        "number": 64,
                        "time": 90.31136290000038,
                        "value": 0.5669291338582677
                    },
                    {
                        "number": 64,
                        "time": 90.33494781666705,
                        "value": 1
                    },
                    {
                        "number": 64,
                        "time": 90.6792876000004,
                        "value": 0.5669291338582677
                    },
                    {
                        "number": 64,
                        "time": 90.69343855000041,
                        "value": 0
                    },
                    {
                        "number": 64,
                        "time": 90.77362726666708,
                        "value": 0.31496062992125984
                    },
                    {
                        "number": 64,
                        "time": 90.79249520000042,
                        "value": 0.8188976377952756
                    },
                    {
                        "number": 64,
                        "time": 90.81136313333376,
                        "value": 1
                    },
                    {
                        "number": 64,
                        "time": 91.13211800000042,
                        "value": 0.5669291338582677
                    },
                    {
                        "number": 64,
                        "time": 91.15098593333376,
                        "value": 0
                    },
                    {
                        "number": 64,
                        "time": 91.26891051666708,
                        "value": 0.8188976377952756
                    },
                    {
                        "number": 64,
                        "time": 91.2877784500004,
                        "value": 1
                    },
                    {
                        "number": 64,
                        "time": 91.74532583333375,
                        "value": 0.5669291338582677
                    },
                    {
                        "number": 64,
                        "time": 91.76419376666709,
                        "value": 0
                    },
                    {
                        "number": 64,
                        "time": 91.89626930000043,
                        "value": 0.31496062992125984
                    },
                    {
                        "number": 64,
                        "time": 91.91513723333377,
                        "value": 0.8188976377952756
                    },
                    {
                        "number": 64,
                        "time": 91.9340051666671,
                        "value": 1
                    },
                    {
                        "number": 64,
                        "time": 92.78777915000045,
                        "value": 0.5669291338582677
                    },
                    {
                        "number": 64,
                        "time": 92.80664708333379,
                        "value": 0
                    },
                    {
                        "number": 64,
                        "time": 92.94343960000046,
                        "value": 0.5669291338582677
                    },
                    {
                        "number": 64,
                        "time": 92.9623075333338,
                        "value": 1
                    },
                    {
                        "number": 64,
                        "time": 93.6840059833338,
                        "value": 0.8188976377952756
                    },
                    {
                        "number": 64,
                        "time": 93.70287391666714,
                        "value": 0.31496062992125984
                    },
                    {
                        "number": 64,
                        "time": 93.72174185000048,
                        "value": 0
                    },
                    {
                        "number": 64,
                        "time": 93.83494945000048,
                        "value": 0.6929133858267716
                    },
                    {
                        "number": 64,
                        "time": 93.85381738333382,
                        "value": 1
                    },
                    {
                        "number": 64,
                        "time": 94.84438388333383,
                        "value": 0.6929133858267716
                    },
                    {
                        "number": 64,
                        "time": 94.86325181666717,
                        "value": 0.31496062992125984
                    },
                    {
                        "number": 64,
                        "time": 94.88211975000051,
                        "value": 0
                    },
                    {
                        "number": 64,
                        "time": 95.07079908333385,
                        "value": 0.31496062992125984
                    },
                    {
                        "number": 64,
                        "time": 95.08966701666719,
                        "value": 0.8188976377952756
                    },
                    {
                        "number": 64,
                        "time": 95.10853495000053,
                        "value": 1
                    },
                    {
                        "number": 64,
                        "time": 96.0802335166672,
                        "value": 0.4409448818897638
                    },
                    {
                        "number": 64,
                        "time": 96.09438446666721,
                        "value": 0
                    },
                    {
                        "number": 64,
                        "time": 96.1934411166672,
                        "value": 0.31496062992125984
                    },
                    {
                        "number": 64,
                        "time": 96.21230905000054,
                        "value": 0.8188976377952756
                    },
                    {
                        "number": 64,
                        "time": 96.23117698333388,
                        "value": 1
                    },
                    {
                        "number": 64,
                        "time": 96.55193185000056,
                        "value": 0.8188976377952756
                    },
                    {
                        "number": 64,
                        "time": 96.5707997833339,
                        "value": 0.31496062992125984
                    },
                    {
                        "number": 64,
                        "time": 96.59438470000056,
                        "value": 0
                    },
                    {
                        "number": 64,
                        "time": 96.6698564333339,
                        "value": 0.4409448818897638
                    },
                    {
                        "number": 64,
                        "time": 96.68872436666724,
                        "value": 1
                    },
                    {
                        "number": 64,
                        "time": 97.04721510000059,
                        "value": 0.6929133858267716
                    },
                    {
                        "number": 64,
                        "time": 97.07080001666725,
                        "value": 0.1889763779527559
                    },
                    {
                        "number": 64,
                        "time": 97.08966795000059,
                        "value": 0
                    },
                    {
                        "number": 64,
                        "time": 97.16513968333393,
                        "value": 0.31496062992125984
                    },
                    {
                        "number": 64,
                        "time": 97.18400761666726,
                        "value": 1
                    },
                    {
                        "number": 64,
                        "time": 97.67929086666729,
                        "value": 0.6929133858267716
                    },
                    {
                        "number": 64,
                        "time": 97.69344181666729,
                        "value": 0.1889763779527559
                    },
                    {
                        "number": 64,
                        "time": 97.71230975000063,
                        "value": 0
                    },
                    {
                        "number": 64,
                        "time": 97.83023433333396,
                        "value": 0.8188976377952756
                    },
                    {
                        "number": 64,
                        "time": 97.8491022666673,
                        "value": 1
                    },
                    {
                        "number": 64,
                        "time": 99.14155570000062,
                        "value": 0.6929133858267716
                    },
                    {
                        "number": 64,
                        "time": 99.16042363333396,
                        "value": 0.1889763779527559
                    },
                    {
                        "number": 64,
                        "time": 99.1792915666673,
                        "value": 0
                    },
                    {
                        "number": 64,
                        "time": 99.37268788333397,
                        "value": 0.5669291338582677
                    },
                    {
                        "number": 64,
                        "time": 99.3915558166673,
                        "value": 1
                    },
                    {
                        "number": 64,
                        "time": 100.10382030000065,
                        "value": 0.4409448818897638
                    },
                    {
                        "number": 64,
                        "time": 100.11797125000065,
                        "value": 1
                    },
                    {
                        "number": 64,
                        "time": 102.22646280000063,
                        "value": 0.31496062992125984
                    },
                    {
                        "number": 64,
                        "time": 102.24061375000063,
                        "value": 0
                    },
                    {
                        "number": 64,
                        "time": 102.31136850000064,
                        "value": 0.31496062992125984
                    },
                    {
                        "number": 64,
                        "time": 102.32551945000064,
                        "value": 0.8188976377952756
                    },
                    {
                        "number": 64,
                        "time": 102.33967040000064,
                        "value": 1
                    },
                    {
                        "number": 64,
                        "time": 103.85382205000066,
                        "value": 0.8188976377952756
                    },
                    {
                        "number": 64,
                        "time": 103.86797300000066,
                        "value": 0
                    },
                    {
                        "number": 64,
                        "time": 103.971746633334,
                        "value": 0.8188976377952756
                    },
                    {
                        "number": 64,
                        "time": 103.98589758333401,
                        "value": 1
                    },
                    {
                        "number": 64,
                        "time": 105.49533225000066,
                        "value": 0.4409448818897638
                    },
                    {
                        "number": 64,
                        "time": 105.514200183334,
                        "value": 0
                    },
                    {
                        "number": 64,
                        "time": 105.599105883334,
                        "value": 0.5669291338582677
                    },
                    {
                        "number": 64,
                        "time": 105.613256833334,
                        "value": 1
                    },
                    {
                        "number": 64,
                        "time": 107.13684245000067,
                        "value": 0.6929133858267716
                    },
                    {
                        "number": 64,
                        "time": 107.15571038333401,
                        "value": 0
                    },
                    {
                        "number": 64,
                        "time": 107.25948401666734,
                        "value": 0.6929133858267716
                    },
                    {
                        "number": 64,
                        "time": 107.27363496666734,
                        "value": 1
                    },
                    {
                        "number": 64,
                        "time": 108.83495645000067,
                        "value": 0.8188976377952756
                    },
                    {
                        "number": 64,
                        "time": 108.85382438333401,
                        "value": 0.1889763779527559
                    },
                    {
                        "number": 64,
                        "time": 108.86797533333402,
                        "value": 0
                    },
                    {
                        "number": 64,
                        "time": 108.96703198333402,
                        "value": 0.8188976377952756
                    },
                    {
                        "number": 64,
                        "time": 108.9906169000007,
                        "value": 1
                    },
                    {
                        "number": 64,
                        "time": 110.5472214000007,
                        "value": 0.31496062992125984
                    },
                    {
                        "number": 64,
                        "time": 110.5613723500007,
                        "value": 0
                    },
                    {
                        "number": 64,
                        "time": 110.68401391666735,
                        "value": 0.8188976377952756
                    },
                    {
                        "number": 64,
                        "time": 110.7028818500007,
                        "value": 1
                    },
                    {
                        "number": 64,
                        "time": 112.05193908333403,
                        "value": 0.31496062992125984
                    },
                    {
                        "number": 64,
                        "time": 112.07080701666736,
                        "value": 0
                    },
                    {
                        "number": 64,
                        "time": 112.08495796666736,
                        "value": 0.31496062992125984
                    },
                    {
                        "number": 64,
                        "time": 112.09910891666736,
                        "value": 0.5669291338582677
                    },
                    {
                        "number": 64,
                        "time": 112.12269383333403,
                        "value": 1
                    },
                    {
                        "number": 64,
                        "time": 113.75948705000071,
                        "value": 0.8188976377952756
                    },
                    {
                        "number": 64,
                        "time": 113.78307196666739,
                        "value": 0.1889763779527559
                    },
                    {
                        "number": 64,
                        "time": 113.80193990000073,
                        "value": 0
                    },
                    {
                        "number": 64,
                        "time": 113.91986448333407,
                        "value": 0.8188976377952756
                    },
                    {
                        "number": 64,
                        "time": 113.93401543333407,
                        "value": 1
                    },
                    {
                        "number": 64,
                        "time": 115.44345010000077,
                        "value": 0.6929133858267716
                    },
                    {
                        "number": 64,
                        "time": 115.45760105000078,
                        "value": 0.1889763779527559
                    },
                    {
                        "number": 64,
                        "time": 115.50948786666744,
                        "value": 1
                    },
                    {
                        "number": 64,
                        "time": 117.09911125000079,
                        "value": 0.5669291338582677
                    },
                    {
                        "number": 64,
                        "time": 117.12269616666745,
                        "value": 0
                    },
                    {
                        "number": 64,
                        "time": 117.20760186666745,
                        "value": 0.6929133858267716
                    },
                    {
                        "number": 64,
                        "time": 117.22175281666745,
                        "value": 1
                    },
                    {
                        "number": 64,
                        "time": 118.88213095000079,
                        "value": 0.31496062992125984
                    },
                    {
                        "number": 64,
                        "time": 118.90099888333413,
                        "value": 0
                    },
                    {
                        "number": 64,
                        "time": 118.9670366500008,
                        "value": 0.4409448818897638
                    },
                    {
                        "number": 64,
                        "time": 118.9811876000008,
                        "value": 1
                    },
                    {
                        "number": 64,
                        "time": 119.75477286666747,
                        "value": 0.8188976377952756
                    },
                    {
                        "number": 64,
                        "time": 119.7736408000008,
                        "value": 0
                    },
                    {
                        "number": 64,
                        "time": 119.84439555000081,
                        "value": 0.1889763779527559
                    },
                    {
                        "number": 64,
                        "time": 119.85854650000081,
                        "value": 0.6929133858267716
                    },
                    {
                        "number": 64,
                        "time": 119.87741443333415,
                        "value": 1
                    },
                    {
                        "number": 64,
                        "time": 120.81609411666747,
                        "value": 0.4409448818897638
                    },
                    {
                        "number": 64,
                        "time": 120.83024506666747,
                        "value": 0
                    },
                    {
                        "number": 64,
                        "time": 120.93873568333414,
                        "value": 0.5669291338582677
                    },
                    {
                        "number": 64,
                        "time": 120.95760361666748,
                        "value": 1
                    },
                    {
                        "number": 64,
                        "time": 123.41515193333416,
                        "value": 0.4409448818897638
                    },
                    {
                        "number": 64,
                        "time": 123.43873685000082,
                        "value": 0
                    },
                    {
                        "number": 64,
                        "time": 123.52364255000082,
                        "value": 0.6929133858267716
                    },
                    {
                        "number": 64,
                        "time": 123.54251048333415,
                        "value": 1
                    },
                    {
                        "number": 64,
                        "time": 124.1415673666675,
                        "value": 0.5669291338582677
                    },
                    {
                        "number": 64,
                        "time": 124.1557183166675,
                        "value": 0.31496062992125984
                    },
                    {
                        "number": 64,
                        "time": 124.17458625000084,
                        "value": 0.4409448818897638
                    },
                    {
                        "number": 64,
                        "time": 124.18873720000084,
                        "value": 0.6929133858267716
                    },
                    {
                        "number": 64,
                        "time": 124.20760513333418,
                        "value": 1
                    },
                    {
                        "number": 64,
                        "time": 127.41043681666756,
                        "value": 0.1889763779527559
                    },
                    {
                        "number": 64,
                        "time": 127.4293047500009,
                        "value": 0
                    },
                    {
                        "number": 64,
                        "time": 127.47647458333424,
                        "value": 0.31496062992125984
                    },
                    {
                        "number": 64,
                        "time": 127.49534251666758,
                        "value": 1
                    },
                    {
                        "number": 64,
                        "time": 129.15100366666758,
                        "value": 0.8188976377952756
                    },
                    {
                        "number": 64,
                        "time": 129.1698716000009,
                        "value": 0.31496062992125984
                    },
                    {
                        "number": 64,
                        "time": 129.19345651666757,
                        "value": 0
                    },
                    {
                        "number": 64,
                        "time": 129.2406263500009,
                        "value": 0.5669291338582677
                    },
                    {
                        "number": 64,
                        "time": 129.25949428333422,
                        "value": 1
                    },
                    {
                        "number": 64,
                        "time": 130.66515531666752,
                        "value": 0.8188976377952756
                    },
                    {
                        "number": 64,
                        "time": 130.6793062666675,
                        "value": 0.1889763779527559
                    },
                    {
                        "number": 64,
                        "time": 130.69817420000084,
                        "value": 0
                    },
                    {
                        "number": 64,
                        "time": 130.78307990000084,
                        "value": 0.31496062992125984
                    },
                    {
                        "number": 64,
                        "time": 130.79723085000083,
                        "value": 1
                    },
                    {
                        "number": 64,
                        "time": 132.80194876666755,
                        "value": 0.4409448818897638
                    },
                    {
                        "number": 64,
                        "time": 132.82081670000088,
                        "value": 0
                    },
                    {
                        "number": 64,
                        "time": 132.90100541666757,
                        "value": 0.5669291338582677
                    },
                    {
                        "number": 64,
                        "time": 132.92459033333424,
                        "value": 1
                    },
                    {
                        "number": 64,
                        "time": 134.32553438333426,
                        "value": 0.31496062992125984
                    },
                    {
                        "number": 64,
                        "time": 134.33968533333424,
                        "value": 0
                    },
                    {
                        "number": 64,
                        "time": 134.4293080166676,
                        "value": 0.5669291338582677
                    },
                    {
                        "number": 64,
                        "time": 134.44817595000092,
                        "value": 1
                    },
                    {
                        "number": 64,
                        "time": 135.95289363333424,
                        "value": 0.4409448818897638
                    },
                    {
                        "number": 64,
                        "time": 135.9717615666676,
                        "value": 0
                    },
                    {
                        "number": 64,
                        "time": 136.03779933333428,
                        "value": 0.5669291338582677
                    },
                    {
                        "number": 64,
                        "time": 136.0566672666676,
                        "value": 1
                    },
                    {
                        "number": 64,
                        "time": 137.0330828166676,
                        "value": 0.4409448818897638
                    },
                    {
                        "number": 64,
                        "time": 137.04723376666757,
                        "value": 0
                    },
                    {
                        "number": 64,
                        "time": 137.09912058333424,
                        "value": 0.31496062992125984
                    },
                    {
                        "number": 64,
                        "time": 137.11798851666757,
                        "value": 1
                    },
                    {
                        "number": 64,
                        "time": 137.99063043333425,
                        "value": 0.5669291338582677
                    },
                    {
                        "number": 64,
                        "time": 138.00949836666757,
                        "value": 0
                    },
                    {
                        "number": 64,
                        "time": 138.06138518333424,
                        "value": 0.31496062992125984
                    },
                    {
                        "number": 64,
                        "time": 138.07553613333425,
                        "value": 1
                    },
                    {
                        "number": 64,
                        "time": 140.6745939500009,
                        "value": 0.5669291338582677
                    },
                    {
                        "number": 64,
                        "time": 140.69346188333424,
                        "value": 0
                    },
                    {
                        "number": 64,
                        "time": 140.79723551666757,
                        "value": 0.4409448818897638
                    },
                    {
                        "number": 64,
                        "time": 140.8161034500009,
                        "value": 1
                    },
                    {
                        "number": 64,
                        "time": 141.2878017833342,
                        "value": 0.6929133858267716
                    },
                    {
                        "number": 64,
                        "time": 141.3019527333342,
                        "value": 1
                    },
                    {
                        "number": 64,
                        "time": 144.4340296666675,
                        "value": 0.8188976377952756
                    },
                    {
                        "number": 64,
                        "time": 144.45289760000082,
                        "value": 0.1889763779527559
                    },
                    {
                        "number": 64,
                        "time": 144.47176553333415,
                        "value": 0
                    },
                    {
                        "number": 64,
                        "time": 144.55667123333416,
                        "value": 0.8188976377952756
                    },
                    {
                        "number": 64,
                        "time": 144.57553916666748,
                        "value": 1
                    },
                    {
                        "number": 64,
                        "time": 145.22176588333411,
                        "value": 0.8188976377952756
                    },
                    {
                        "number": 64,
                        "time": 145.24063381666744,
                        "value": 0
                    },
                    {
                        "number": 64,
                        "time": 145.34440745000077,
                        "value": 0.5669291338582677
                    },
                    {
                        "number": 64,
                        "time": 145.3632753833341,
                        "value": 1
                    },
                    {
                        "number": 64,
                        "time": 145.9764832166674,
                        "value": 0.5669291338582677
                    },
                    {
                        "number": 64,
                        "time": 145.99535115000072,
                        "value": 0.31496062992125984
                    },
                    {
                        "number": 64,
                        "time": 146.04723796666738,
                        "value": 1
                    },
                    {
                        "number": 64,
                        "time": 146.32082300000073,
                        "value": 0.6929133858267716
                    },
                    {
                        "number": 64,
                        "time": 146.33497395000074,
                        "value": 0.4409448818897638
                    },
                    {
                        "number": 64,
                        "time": 146.35384188333407,
                        "value": 0.6929133858267716
                    },
                    {
                        "number": 64,
                        "time": 146.3727098166674,
                        "value": 1
                    },
                    {
                        "number": 64,
                        "time": 148.2547861666675,
                        "value": 0.5669291338582677
                    },
                    {
                        "number": 64,
                        "time": 148.27365410000084,
                        "value": 0
                    },
                    {
                        "number": 64,
                        "time": 148.4104466166675,
                        "value": 0.6929133858267716
                    },
                    {
                        "number": 64,
                        "time": 148.4198805833342,
                        "value": 1
                    },
                    {
                        "number": 64,
                        "time": 148.68403165000086,
                        "value": 0.6929133858267716
                    },
                    {
                        "number": 64,
                        "time": 148.73591846666753,
                        "value": 1
                    },
                    {
                        "number": 64,
                        "time": 149.71233401666754,
                        "value": 0.31496062992125984
                    },
                    {
                        "number": 64,
                        "time": 149.72648496666753,
                        "value": 0
                    },
                    {
                        "number": 64,
                        "time": 149.79723971666755,
                        "value": 0.5669291338582677
                    },
                    {
                        "number": 64,
                        "time": 149.81139066666756,
                        "value": 1
                    },
                    {
                        "number": 64,
                        "time": 150.49535325000085,
                        "value": 0.31496062992125984
                    },
                    {
                        "number": 64,
                        "time": 150.51422118333417,
                        "value": 0
                    },
                    {
                        "number": 64,
                        "time": 150.6179948166675,
                        "value": 1
                    },
                    {
                        "number": 64,
                        "time": 152.05667473333415,
                        "value": 0.6929133858267716
                    },
                    {
                        "number": 64,
                        "time": 152.07082568333414,
                        "value": 0
                    },
                    {
                        "number": 64,
                        "time": 152.2076182000008,
                        "value": 1
                    },
                    {
                        "number": 64,
                        "time": 153.32082626666747,
                        "value": 0.8188976377952756
                    },
                    {
                        "number": 64,
                        "time": 153.3396942000008,
                        "value": 0.31496062992125984
                    },
                    {
                        "number": 64,
                        "time": 153.35384515000078,
                        "value": 0
                    },
                    {
                        "number": 64,
                        "time": 153.40573196666745,
                        "value": 0.1889763779527559
                    },
                    {
                        "number": 64,
                        "time": 153.42459990000077,
                        "value": 0.6929133858267716
                    },
                    {
                        "number": 64,
                        "time": 153.43875085000076,
                        "value": 1
                    },
                    {
                        "number": 64,
                        "time": 153.90573220000076,
                        "value": 0.4409448818897638
                    },
                    {
                        "number": 64,
                        "time": 153.91988315000074,
                        "value": 0.1889763779527559
                    },
                    {
                        "number": 64,
                        "time": 153.93875108333407,
                        "value": 0.31496062992125984
                    },
                    {
                        "number": 64,
                        "time": 153.9576190166674,
                        "value": 0.8188976377952756
                    },
                    {
                        "number": 64,
                        "time": 153.97176996666738,
                        "value": 1
                    },
                    {
                        "number": 64,
                        "time": 154.98120440000068,
                        "value": 0.6929133858267716
                    },
                    {
                        "number": 64,
                        "time": 155.000072333334,
                        "value": 0.1889763779527559
                    },
                    {
                        "number": 64,
                        "time": 155.01894026666733,
                        "value": 0
                    },
                    {
                        "number": 64,
                        "time": 155.06611010000066,
                        "value": 0.5669291338582677
                    },
                    {
                        "number": 64,
                        "time": 155.08026105000064,
                        "value": 1
                    },
                    {
                        "number": 64,
                        "time": 155.95761995000063,
                        "value": 0.6929133858267716
                    },
                    {
                        "number": 64,
                        "time": 155.97648788333396,
                        "value": 0.1889763779527559
                    },
                    {
                        "number": 64,
                        "time": 155.99535581666728,
                        "value": 0
                    },
                    {
                        "number": 64,
                        "time": 156.0425256500006,
                        "value": 0.8188976377952756
                    },
                    {
                        "number": 64,
                        "time": 156.06139358333394,
                        "value": 1
                    },
                    {
                        "number": 64,
                        "time": 156.6793184000006,
                        "value": 0.31496062992125984
                    },
                    {
                        "number": 64,
                        "time": 156.69346935000058,
                        "value": 0
                    },
                    {
                        "number": 64,
                        "time": 156.7406391833339,
                        "value": 0.4409448818897638
                    },
                    {
                        "number": 64,
                        "time": 156.76422410000058,
                        "value": 1
                    },
                    {
                        "number": 64,
                        "time": 157.38214891666723,
                        "value": 0.5669291338582677
                    },
                    {
                        "number": 64,
                        "time": 157.39629986666722,
                        "value": 0
                    },
                    {
                        "number": 64,
                        "time": 157.46705461666724,
                        "value": 0.5669291338582677
                    },
                    {
                        "number": 64,
                        "time": 157.48120556666723,
                        "value": 1
                    },
                    {
                        "number": 64,
                        "time": 159.2312063833339,
                        "value": 0.6929133858267716
                    },
                    {
                        "number": 64,
                        "time": 159.2453573333339,
                        "value": 0.4409448818897638
                    },
                    {
                        "number": 64,
                        "time": 159.2830932000006,
                        "value": 1
                    },
                    {
                        "number": 64,
                        "time": 160.4057352333339,
                        "value": 0.8188976377952756
                    },
                    {
                        "number": 64,
                        "time": 160.41045221666724,
                        "value": 0
                    },
                    {
                        "number": 64,
                        "time": 160.51422585000057,
                        "value": 1
                    },
                    {
                        "number": 64,
                        "time": 161.49064140000053,
                        "value": 0.8188976377952756
                    },
                    {
                        "number": 64,
                        "time": 161.50479235000054,
                        "value": 0.31496062992125984
                    },
                    {
                        "number": 64,
                        "time": 161.5236602833339,
                        "value": 0
                    },
                    {
                        "number": 64,
                        "time": 161.54252821666722,
                        "value": 0.31496062992125984
                    },
                    {
                        "number": 64,
                        "time": 161.55667916666724,
                        "value": 1
                    },
                    {
                        "number": 64,
                        "time": 162.63686835000058,
                        "value": 0.4409448818897638
                    },
                    {
                        "number": 64,
                        "time": 162.6510193000006,
                        "value": 0
                    },
                    {
                        "number": 64,
                        "time": 162.7925288000006,
                        "value": 1
                    },
                    {
                        "number": 64,
                        "time": 164.33026536666733,
                        "value": 0.4409448818897638
                    },
                    {
                        "number": 64,
                        "time": 164.34913330000066,
                        "value": 0
                    },
                    {
                        "number": 64,
                        "time": 164.46705788333398,
                        "value": 0.6929133858267716
                    },
                    {
                        "number": 64,
                        "time": 164.4859258166673,
                        "value": 1
                    },
                    {
                        "number": 64,
                        "time": 164.62271833333398,
                        "value": 0.8188976377952756
                    },
                    {
                        "number": 64,
                        "time": 164.6415862666673,
                        "value": 0.1889763779527559
                    },
                    {
                        "number": 64,
                        "time": 164.6557372166673,
                        "value": 0
                    },
                    {
                        "number": 64,
                        "time": 164.70762403333396,
                        "value": 0.4409448818897638
                    },
                    {
                        "number": 64,
                        "time": 164.72649196666728,
                        "value": 1
                    },
                    {
                        "number": 64,
                        "time": 165.33969980000057,
                        "value": 0.5669291338582677
                    },
                    {
                        "number": 64,
                        "time": 165.3585677333339,
                        "value": 0
                    },
                    {
                        "number": 64,
                        "time": 165.4293224833339,
                        "value": 0.6929133858267716
                    },
                    {
                        "number": 64,
                        "time": 165.4434734333339,
                        "value": 1
                    },
                    {
                        "number": 64,
                        "time": 165.7878132166673,
                        "value": 0.4409448818897638
                    },
                    {
                        "number": 64,
                        "time": 165.80668115000066,
                        "value": 0
                    },
                    {
                        "number": 64,
                        "time": 165.90573780000065,
                        "value": 0.4409448818897638
                    },
                    {
                        "number": 64,
                        "time": 165.92460573333398,
                        "value": 1
                    },
                    {
                        "number": 64,
                        "time": 166.1415869666673,
                        "value": 0.5669291338582677
                    },
                    {
                        "number": 64,
                        "time": 166.16517188333395,
                        "value": 0.1889763779527559
                    },
                    {
                        "number": 64,
                        "time": 166.18403981666728,
                        "value": 0.31496062992125984
                    },
                    {
                        "number": 64,
                        "time": 166.19819076666727,
                        "value": 0.8188976377952756
                    },
                    {
                        "number": 64,
                        "time": 166.2170587000006,
                        "value": 1
                    },
                    {
                        "number": 64,
                        "time": 166.8821533500006,
                        "value": 0.31496062992125984
                    },
                    {
                        "number": 64,
                        "time": 166.90102128333393,
                        "value": 0
                    },
                    {
                        "number": 64,
                        "time": 166.9481911166673,
                        "value": 0.4409448818897638
                    },
                    {
                        "number": 64,
                        "time": 166.9670590500006,
                        "value": 1
                    },
                    {
                        "number": 64,
                        "time": 167.43404040000064,
                        "value": 0.8188976377952756
                    },
                    {
                        "number": 64,
                        "time": 167.44819135000063,
                        "value": 0
                    },
                    {
                        "number": 64,
                        "time": 167.56611593333395,
                        "value": 0.8188976377952756
                    },
                    {
                        "number": 64,
                        "time": 167.58498386666727,
                        "value": 1
                    },
                    {
                        "number": 64,
                        "time": 168.19819170000062,
                        "value": 0.5669291338582677
                    },
                    {
                        "number": 64,
                        "time": 168.21705963333395,
                        "value": 0
                    },
                    {
                        "number": 64,
                        "time": 168.28781438333394,
                        "value": 0.31496062992125984
                    },
                    {
                        "number": 64,
                        "time": 168.30668231666726,
                        "value": 1
                    },
                    {
                        "number": 64,
                        "time": 169.09441853333394,
                        "value": 0.6929133858267716
                    },
                    {
                        "number": 64,
                        "time": 169.10856948333392,
                        "value": 0
                    },
                    {
                        "number": 64,
                        "time": 169.19347518333393,
                        "value": 0.5669291338582677
                    },
                    {
                        "number": 64,
                        "time": 169.21234311666726,
                        "value": 1
                    },
                    {
                        "number": 64,
                        "time": 169.92932458333394,
                        "value": 0.5669291338582677
                    },
                    {
                        "number": 64,
                        "time": 169.94819251666726,
                        "value": 0
                    },
                    {
                        "number": 64,
                        "time": 170.06611710000058,
                        "value": 0.6929133858267716
                    },
                    {
                        "number": 64,
                        "time": 170.08026805000057,
                        "value": 1
                    },
                    {
                        "number": 64,
                        "time": 170.57083431666726,
                        "value": 0.5669291338582677
                    },
                    {
                        "number": 64,
                        "time": 170.58970225000058,
                        "value": 0.31496062992125984
                    },
                    {
                        "number": 64,
                        "time": 170.60385320000057,
                        "value": 0.4409448818897638
                    },
                    {
                        "number": 64,
                        "time": 170.6227211333339,
                        "value": 0.8188976377952756
                    },
                    {
                        "number": 64,
                        "time": 170.64158906666722,
                        "value": 1
                    },
                    {
                        "number": 64,
                        "time": 170.9340420333339,
                        "value": 0.6929133858267716
                    },
                    {
                        "number": 64,
                        "time": 170.98121186666722,
                        "value": 1
                    },
                    {
                        "number": 64,
                        "time": 173.8019679000005,
                        "value": 0.6929133858267716
                    },
                    {
                        "number": 64,
                        "time": 173.82083583333386,
                        "value": 0
                    },
                    {
                        "number": 64,
                        "time": 173.92932645000053,
                        "value": 0.6929133858267716
                    },
                    {
                        "number": 64,
                        "time": 173.94347740000052,
                        "value": 1
                    },
                    {
                        "number": 64,
                        "time": 174.50951540000057,
                        "value": 0.4409448818897638
                    },
                    {
                        "number": 64,
                        "time": 174.5283833333339,
                        "value": 0
                    },
                    {
                        "number": 64,
                        "time": 174.59442110000055,
                        "value": 0.5669291338582677
                    },
                    {
                        "number": 64,
                        "time": 174.60857205000053,
                        "value": 1
                    },
                    {
                        "number": 64,
                        "time": 176.90574293333387,
                        "value": 0.5669291338582677
                    },
                    {
                        "number": 64,
                        "time": 176.9246108666672,
                        "value": 0.8188976377952756
                    },
                    {
                        "number": 64,
                        "time": 176.93876181666718,
                        "value": 1
                    },
                    {
                        "number": 64,
                        "time": 177.74064898333384,
                        "value": 0.1889763779527559
                    },
                    {
                        "number": 64,
                        "time": 177.7595169166672,
                        "value": 0
                    },
                    {
                        "number": 64,
                        "time": 177.86329055000053,
                        "value": 0.5669291338582677
                    },
                    {
                        "number": 64,
                        "time": 177.88215848333385,
                        "value": 1
                    },
                    {
                        "number": 64,
                        "time": 179.08027225000052,
                        "value": 0.8188976377952756
                    },
                    {
                        "number": 64,
                        "time": 179.09914018333384,
                        "value": 0.1889763779527559
                    },
                    {
                        "number": 64,
                        "time": 179.11329113333386,
                        "value": 0
                    },
                    {
                        "number": 64,
                        "time": 179.15102700000054,
                        "value": 0.4409448818897638
                    },
                    {
                        "number": 64,
                        "time": 179.16517795000053,
                        "value": 1
                    },
                    {
                        "number": 64,
                        "time": 179.8114046666672,
                        "value": 0.8188976377952756
                    },
                    {
                        "number": 64,
                        "time": 179.83498958333385,
                        "value": 0
                    },
                    {
                        "number": 64,
                        "time": 179.95291416666717,
                        "value": 1
                    },
                    {
                        "number": 64,
                        "time": 181.44348090000057,
                        "value": 0.4409448818897638
                    },
                    {
                        "number": 64,
                        "time": 181.4623488333339,
                        "value": 0
                    },
                    {
                        "number": 64,
                        "time": 181.61329230000055,
                        "value": 1
                    },
                    {
                        "number": 64,
                        "time": 182.23121711666718,
                        "value": 0.5669291338582677
                    },
                    {
                        "number": 64,
                        "time": 182.2500850500005,
                        "value": 0.4409448818897638
                    },
                    {
                        "number": 64,
                        "time": 182.2642360000005,
                        "value": 0.8188976377952756
                    },
                    {
                        "number": 64,
                        "time": 182.28310393333382,
                        "value": 1
                    },
                    {
                        "number": 64,
                        "time": 183.22650060000046,
                        "value": 0.31496062992125984
                    },
                    {
                        "number": 64,
                        "time": 183.24065155000045,
                        "value": 0
                    },
                    {
                        "number": 64,
                        "time": 183.32555725000046,
                        "value": 0.6929133858267716
                    },
                    {
                        "number": 64,
                        "time": 183.34442518333378,
                        "value": 1
                    },
                    {
                        "number": 64,
                        "time": 184.28782185000043,
                        "value": 0.8188976377952756
                    },
                    {
                        "number": 64,
                        "time": 184.3019728000004,
                        "value": 0.1889763779527559
                    },
                    {
                        "number": 64,
                        "time": 184.32084073333374,
                        "value": 0
                    },
                    {
                        "number": 64,
                        "time": 184.35385961666708,
                        "value": 0.5669291338582677
                    },
                    {
                        "number": 64,
                        "time": 184.3727275500004,
                        "value": 1
                    },
                    {
                        "number": 64,
                        "time": 186.2500869166671,
                        "value": 0.5669291338582677
                    },
                    {
                        "number": 64,
                        "time": 186.26895485000045,
                        "value": 0
                    },
                    {
                        "number": 64,
                        "time": 186.3585775333338,
                        "value": 0.4409448818897638
                    },
                    {
                        "number": 64,
                        "time": 186.3727284833338,
                        "value": 1
                    },
                    {
                        "number": 64,
                        "time": 186.97178536666715,
                        "value": 0.31496062992125984
                    },
                    {
                        "number": 64,
                        "time": 186.99065330000047,
                        "value": 0
                    },
                    {
                        "number": 64,
                        "time": 187.07084201666714,
                        "value": 1
                    },
                    {
                        "number": 64,
                        "time": 190.27839068333375,
                        "value": 0.6929133858267716
                    },
                    {
                        "number": 64,
                        "time": 190.29254163333377,
                        "value": 0
                    },
                    {
                        "number": 64,
                        "time": 190.41518320000043,
                        "value": 1
                    },
                    {
                        "number": 64,
                        "time": 192.48593888333383,
                        "value": 0.8188976377952756
                    },
                    {
                        "number": 64,
                        "time": 192.50480681666716,
                        "value": 0
                    },
                    {
                        "number": 64,
                        "time": 192.64159933333383,
                        "value": 1
                    },
                    {
                        "number": 64,
                        "time": 194.45763791666715,
                        "value": 0.31496062992125984
                    },
                    {
                        "number": 64,
                        "time": 194.47650585000048,
                        "value": 0
                    },
                    {
                        "number": 64,
                        "time": 194.6085813833338,
                        "value": 0.8188976377952756
                    },
                    {
                        "number": 64,
                        "time": 194.62744931666714,
                        "value": 1
                    },
                    {
                        "number": 64,
                        "time": 194.73122295000047,
                        "value": 0.31496062992125984
                    },
                    {
                        "number": 64,
                        "time": 194.7500908833338,
                        "value": 0
                    },
                    {
                        "number": 64,
                        "time": 194.7831097666671,
                        "value": 0.5669291338582677
                    },
                    {
                        "number": 64,
                        "time": 194.7972607166671,
                        "value": 1
                    },
                    {
                        "number": 64,
                        "time": 195.4623553666671,
                        "value": 0.5669291338582677
                    },
                    {
                        "number": 64,
                        "time": 195.48594028333378,
                        "value": 0
                    },
                    {
                        "number": 64,
                        "time": 195.55197805000049,
                        "value": 0.31496062992125984
                    },
                    {
                        "number": 64,
                        "time": 195.57084598333384,
                        "value": 1
                    },
                    {
                        "number": 64,
                        "time": 195.9482046500005,
                        "value": 0.8188976377952756
                    },
                    {
                        "number": 64,
                        "time": 195.96235560000048,
                        "value": 0
                    },
                    {
                        "number": 64,
                        "time": 196.11801605000048,
                        "value": 1
                    },
                    {
                        "number": 64,
                        "time": 196.28782745000046,
                        "value": 0.4409448818897638
                    },
                    {
                        "number": 64,
                        "time": 196.3066953833338,
                        "value": 0
                    },
                    {
                        "number": 64,
                        "time": 196.3916010833338,
                        "value": 1
                    },
                    {
                        "number": 64,
                        "time": 197.06141271666718,
                        "value": 0.4409448818897638
                    },
                    {
                        "number": 64,
                        "time": 197.0755636666672,
                        "value": 0
                    },
                    {
                        "number": 64,
                        "time": 197.14631841666716,
                        "value": 0.4409448818897638
                    },
                    {
                        "number": 64,
                        "time": 197.16046936666714,
                        "value": 1
                    },
                    {
                        "number": 64,
                        "time": 197.69348848333382,
                        "value": 0.6929133858267716
                    },
                    {
                        "number": 64,
                        "time": 197.7076394333338,
                        "value": 0
                    },
                    {
                        "number": 64,
                        "time": 197.81141306666714,
                        "value": 0.5669291338582677
                    },
                    {
                        "number": 64,
                        "time": 197.83028100000047,
                        "value": 1
                    },
                    {
                        "number": 64,
                        "time": 198.51424358333378,
                        "value": 0.4409448818897638
                    },
                    {
                        "number": 64,
                        "time": 198.5331115166671,
                        "value": 0
                    },
                    {
                        "number": 64,
                        "time": 198.58499833333377,
                        "value": 1
                    },
                    {
                        "number": 64,
                        "time": 199.4717912000004,
                        "value": 0.4409448818897638
                    },
                    {
                        "number": 64,
                        "time": 199.49065913333374,
                        "value": 0
                    },
                    {
                        "number": 64,
                        "time": 199.59443276666707,
                        "value": 1
                    },
                    {
                        "number": 64,
                        "time": 200.3302821666671,
                        "value": 0.4409448818897638
                    },
                    {
                        "number": 64,
                        "time": 200.3444331166671,
                        "value": 0
                    },
                    {
                        "number": 64,
                        "time": 200.44348976666708,
                        "value": 0.5669291338582677
                    },
                    {
                        "number": 64,
                        "time": 200.4623577000004,
                        "value": 1
                    },
                    {
                        "number": 64,
                        "time": 202.2972642166671,
                        "value": 0.8188976377952756
                    },
                    {
                        "number": 64,
                        "time": 202.3161321500004,
                        "value": 0.6929133858267716
                    },
                    {
                        "number": 64,
                        "time": 202.3302831000004,
                        "value": 0.4409448818897638
                    },
                    {
                        "number": 64,
                        "time": 202.34915103333373,
                        "value": 0
                    },
                    {
                        "number": 64,
                        "time": 202.64632098333374,
                        "value": 0.6929133858267716
                    },
                    {
                        "number": 64,
                        "time": 202.66047193333372,
                        "value": 1
                    },
                    {
                        "number": 64,
                        "time": 204.66518985000036,
                        "value": 0.8188976377952756
                    },
                    {
                        "number": 64,
                        "time": 204.68405778333369,
                        "value": 0
                    },
                    {
                        "number": 64,
                        "time": 204.76424650000035,
                        "value": 0.4409448818897638
                    },
                    {
                        "number": 64,
                        "time": 204.78311443333368,
                        "value": 1
                    },
                    {
                        "number": 64,
                        "time": 206.34915290000032,
                        "value": 0.5669291338582677
                    },
                    {
                        "number": 64,
                        "time": 206.36802083333367,
                        "value": 0
                    },
                    {
                        "number": 64,
                        "time": 206.4482095500003,
                        "value": 0.5669291338582677
                    },
                    {
                        "number": 64,
                        "time": 206.46707748333364,
                        "value": 1
                    },
                    {
                        "number": 64,
                        "time": 208.1840594166669,
                        "value": 0.5669291338582677
                    },
                    {
                        "number": 64,
                        "time": 208.1982103666669,
                        "value": 0
                    },
                    {
                        "number": 64,
                        "time": 208.32085193333359,
                        "value": 1
                    },
                    {
                        "number": 64,
                        "time": 209.99538101666693,
                        "value": 0.8188976377952756
                    },
                    {
                        "number": 64,
                        "time": 210.0095319666669,
                        "value": 0.1889763779527559
                    },
                    {
                        "number": 64,
                        "time": 210.02839990000024,
                        "value": 0
                    },
                    {
                        "number": 64,
                        "time": 210.13217353333354,
                        "value": 0.31496062992125984
                    },
                    {
                        "number": 64,
                        "time": 210.15104146666687,
                        "value": 1
                    },
                    {
                        "number": 64,
                        "time": 211.72651390000019,
                        "value": 0.6929133858267716
                    },
                    {
                        "number": 64,
                        "time": 211.7453818333335,
                        "value": 0.1889763779527559
                    },
                    {
                        "number": 64,
                        "time": 211.7595327833335,
                        "value": 0
                    },
                    {
                        "number": 64,
                        "time": 211.77840071666682,
                        "value": 0.1889763779527559
                    },
                    {
                        "number": 64,
                        "time": 211.7925516666668,
                        "value": 0.4409448818897638
                    },
                    {
                        "number": 64,
                        "time": 211.81141960000014,
                        "value": 1
                    },
                    {
                        "number": 64,
                        "time": 213.4387788500001,
                        "value": 0.5669291338582677
                    },
                    {
                        "number": 64,
                        "time": 213.45764678333342,
                        "value": 0
                    },
                    {
                        "number": 64,
                        "time": 213.5567034333334,
                        "value": 0.4409448818897638
                    },
                    {
                        "number": 64,
                        "time": 213.57557136666674,
                        "value": 1
                    },
                    {
                        "number": 64,
                        "time": 215.06613810000002,
                        "value": 0.5669291338582677
                    },
                    {
                        "number": 64,
                        "time": 215.08028905000003,
                        "value": 0
                    },
                    {
                        "number": 64,
                        "time": 215.16519475000004,
                        "value": 0.6929133858267716
                    },
                    {
                        "number": 64,
                        "time": 215.17934570000003,
                        "value": 1
                    },
                    {
                        "number": 64,
                        "time": 216.8255728833334,
                        "value": 0.5669291338582677
                    },
                    {
                        "number": 64,
                        "time": 216.83972383333338,
                        "value": 0
                    },
                    {
                        "number": 64,
                        "time": 216.96708238333338,
                        "value": 0.5669291338582677
                    },
                    {
                        "number": 64,
                        "time": 216.98123333333336,
                        "value": 1
                    },
                    {
                        "number": 64,
                        "time": 218.4387811833333,
                        "value": 0.6929133858267716
                    },
                    {
                        "number": 64,
                        "time": 218.45293213333332,
                        "value": 0
                    },
                    {
                        "number": 64,
                        "time": 218.5236868833333,
                        "value": 0.6929133858267716
                    },
                    {
                        "number": 64,
                        "time": 218.54255481666664,
                        "value": 1
                    },
                    {
                        "number": 64,
                        "time": 220.16991406666665,
                        "value": 0.6929133858267716
                    },
                    {
                        "number": 64,
                        "time": 220.18406501666664,
                        "value": 0
                    },
                    {
                        "number": 64,
                        "time": 220.28312166666666,
                        "value": 0.5669291338582677
                    },
                    {
                        "number": 64,
                        "time": 220.30198959999998,
                        "value": 1
                    },
                    {
                        "number": 64,
                        "time": 221.7925563333334,
                        "value": 0.5669291338582677
                    },
                    {
                        "number": 64,
                        "time": 221.81142426666673,
                        "value": 0
                    },
                    {
                        "number": 64,
                        "time": 221.8774620333334,
                        "value": 0.31496062992125984
                    },
                    {
                        "number": 64,
                        "time": 221.8963299666667,
                        "value": 0.8188976377952756
                    },
                    {
                        "number": 64,
                        "time": 221.91519790000004,
                        "value": 1
                    },
                    {
                        "number": 64,
                        "time": 222.66991523333337,
                        "value": 0.6929133858267716
                    },
                    {
                        "number": 64,
                        "time": 222.68406618333336,
                        "value": 0.1889763779527559
                    },
                    {
                        "number": 64,
                        "time": 222.7170850666667,
                        "value": 0.31496062992125984
                    },
                    {
                        "number": 64,
                        "time": 222.73595300000002,
                        "value": 0.6929133858267716
                    },
                    {
                        "number": 64,
                        "time": 222.75482093333335,
                        "value": 1
                    },
                    {
                        "number": 64,
                        "time": 223.11331166666668,
                        "value": 0.4409448818897638
                    },
                    {
                        "number": 64,
                        "time": 223.12746261666666,
                        "value": 0.1889763779527559
                    },
                    {
                        "number": 64,
                        "time": 223.17934943333333,
                        "value": 0.8188976377952756
                    },
                    {
                        "number": 64,
                        "time": 223.19350038333332,
                        "value": 1
                    },
                    {
                        "number": 64,
                        "time": 223.67934966666667,
                        "value": 0.8188976377952756
                    },
                    {
                        "number": 64,
                        "time": 223.69350061666665,
                        "value": 0
                    },
                    {
                        "number": 64,
                        "time": 223.83029313333333,
                        "value": 0.6929133858267716
                    },
                    {
                        "number": 64,
                        "time": 223.84916106666665,
                        "value": 1
                    },
                    {
                        "number": 64,
                        "time": 226.45293586666665,
                        "value": 0.5669291338582677
                    },
                    {
                        "number": 64,
                        "time": 226.46708681666664,
                        "value": 0
                    },
                    {
                        "number": 64,
                        "time": 226.55199251666664,
                        "value": 0.8188976377952756
                    },
                    {
                        "number": 64,
                        "time": 226.57086044999997,
                        "value": 1
                    },
                    {
                        "number": 64,
                        "time": 227.11803051666664,
                        "value": 0.5669291338582677
                    },
                    {
                        "number": 64,
                        "time": 227.13689845,
                        "value": 0
                    },
                    {
                        "number": 64,
                        "time": 227.16991733333333,
                        "value": 0.31496062992125984
                    },
                    {
                        "number": 64,
                        "time": 227.18406828333332,
                        "value": 0.8188976377952756
                    },
                    {
                        "number": 64,
                        "time": 227.20293621666664,
                        "value": 1
                    },
                    {
                        "number": 64,
                        "time": 229.3633145833333,
                        "value": 0.8188976377952756
                    },
                    {
                        "number": 64,
                        "time": 229.3774655333333,
                        "value": 0.1889763779527559
                    },
                    {
                        "number": 64,
                        "time": 229.39633346666665,
                        "value": 0
                    },
                    {
                        "number": 64,
                        "time": 229.46237123333333,
                        "value": 0.6929133858267716
                    },
                    {
                        "number": 64,
                        "time": 229.48123916666665,
                        "value": 1
                    },
                    {
                        "number": 64,
                        "time": 230.2689753833333,
                        "value": 0.5669291338582677
                    },
                    {
                        "number": 64,
                        "time": 230.28312633333329,
                        "value": 0.31496062992125984
                    },
                    {
                        "number": 64,
                        "time": 230.3019942666666,
                        "value": 0.4409448818897638
                    },
                    {
                        "number": 64,
                        "time": 230.32086219999994,
                        "value": 0.8188976377952756
                    },
                    {
                        "number": 64,
                        "time": 230.33501314999992,
                        "value": 1
                    },
                    {
                        "number": 64,
                        "time": 230.67935293333323,
                        "value": 0.5669291338582677
                    },
                    {
                        "number": 64,
                        "time": 230.69350388333325,
                        "value": 0
                    },
                    {
                        "number": 64,
                        "time": 230.74539069999992,
                        "value": 0.4409448818897638
                    },
                    {
                        "number": 64,
                        "time": 230.7595416499999,
                        "value": 1
                    },
                    {
                        "number": 64,
                        "time": 232.6085991166665,
                        "value": 0.5669291338582677
                    },
                    {
                        "number": 64,
                        "time": 232.63218403333317,
                        "value": 0
                    },
                    {
                        "number": 64,
                        "time": 232.7359576666665,
                        "value": 0.4409448818897638
                    },
                    {
                        "number": 64,
                        "time": 232.7501086166665,
                        "value": 1
                    },
                    {
                        "number": 64,
                        "time": 233.34916549999988,
                        "value": 0.31496062992125984
                    },
                    {
                        "number": 64,
                        "time": 233.36803343333324,
                        "value": 0
                    },
                    {
                        "number": 64,
                        "time": 233.4340711999999,
                        "value": 0.31496062992125984
                    },
                    {
                        "number": 64,
                        "time": 233.45293913333322,
                        "value": 1
                    },
                    {
                        "number": 64,
                        "time": 234.2878451833332,
                        "value": 0.4409448818897638
                    },
                    {
                        "number": 64,
                        "time": 234.31143009999985,
                        "value": 0
                    },
                    {
                        "number": 64,
                        "time": 234.41048674999985,
                        "value": 0.5669291338582677
                    },
                    {
                        "number": 64,
                        "time": 234.42935468333317,
                        "value": 1
                    },
                    {
                        "number": 64,
                        "time": 236.6557708166665,
                        "value": 0.31496062992125984
                    },
                    {
                        "number": 64,
                        "time": 236.66992176666648,
                        "value": 0
                    },
                    {
                        "number": 64,
                        "time": 236.7595444499998,
                        "value": 0.8188976377952756
                    },
                    {
                        "number": 64,
                        "time": 236.76897841666647,
                        "value": 1
                    },
                    {
                        "number": 64,
                        "time": 238.36803576666648,
                        "value": 0.6929133858267716
                    },
                    {
                        "number": 64,
                        "time": 238.38218671666647,
                        "value": 0
                    },
                    {
                        "number": 64,
                        "time": 238.4718093999998,
                        "value": 0.8188976377952756
                    },
                    {
                        "number": 64,
                        "time": 238.4859603499998,
                        "value": 1
                    },
                    {
                        "number": 64,
                        "time": 238.9435077333331,
                        "value": 0.1889763779527559
                    },
                    {
                        "number": 64,
                        "time": 238.96237566666642,
                        "value": 0.4409448818897638
                    },
                    {
                        "number": 64,
                        "time": 238.98124359999974,
                        "value": 0.6929133858267716
                    },
                    {
                        "number": 64,
                        "time": 238.99539454999973,
                        "value": 1
                    },
                    {
                        "number": 64,
                        "time": 240.40105558333306,
                        "value": 0.8188976377952756
                    },
                    {
                        "number": 64,
                        "time": 240.41520653333305,
                        "value": 0
                    },
                    {
                        "number": 64,
                        "time": 240.51898016666638,
                        "value": 0.8188976377952756
                    },
                    {
                        "number": 64,
                        "time": 240.5378480999997,
                        "value": 1
                    },
                    {
                        "number": 64,
                        "time": 242.0755846666663,
                        "value": 0.4409448818897638
                    },
                    {
                        "number": 64,
                        "time": 242.0944525999996,
                        "value": 0
                    },
                    {
                        "number": 64,
                        "time": 242.19822623333295,
                        "value": 1
                    },
                    {
                        "number": 64,
                        "time": 244.32086873333296,
                        "value": 0.31496062992125984
                    },
                    {
                        "number": 64,
                        "time": 244.33501968333294,
                        "value": 0
                    },
                    {
                        "number": 64,
                        "time": 244.43879331666628,
                        "value": 1
                    },
                    {
                        "number": 64,
                        "time": 248.18879506666633,
                        "value": 0.1889763779527559
                    },
                    {
                        "number": 64,
                        "time": 248.20294601666632,
                        "value": 0
                    },
                    {
                        "number": 64,
                        "time": 248.29256869999966,
                        "value": 0.5669291338582677
                    },
                    {
                        "number": 64,
                        "time": 248.30671964999965,
                        "value": 1
                    },
                    {
                        "number": 64,
                        "time": 251.66049479999967,
                        "value": 0.8188976377952756
                    },
                    {
                        "number": 64,
                        "time": 251.679362733333,
                        "value": 0.4409448818897638
                    },
                    {
                        "number": 64,
                        "time": 251.69823066666632,
                        "value": 0
                    }
                ],
                "91": [
                    {
                        "number": 91,
                        "time": 2.089623616666667,
                        "value": 1
                    }
                ]
            },
            "id": 1,
            "instrumentNumber": 0,
            "instrument": "acoustic grand piano",
            "instrumentFamily": "piano",
            "channelNumber": 0,
            "isPercussion": false
        }
    ]
}