{
    "header": {
        "PPQ": 120,
        "timeSignature": [
            2,
            4
        ],
        "bpm": 77.99997660000702,
        "name": "Là-bas, vers l'église"
    },
    "startTime": 0,
    "duration": 43.076935999999954,
    "tracks": [
        {
            "startTime": 0,
            "duration": 0,
            "length": 0,
            "notes": [],
            "controlChanges": {},
            "id": 0,
            "name": "Là-bas, vers l'église"
        },
        {
            "startTime": 0.769231,
            "duration": 37.11539575,
            "length": 10,
            "notes": [
                {
                    "name": "F#4",
                    "midi": 66,
                    "time": 0.769231,
                    "velocity": 0.007874015748031496,
                    "duration": 0.19230775
                },
                {
                    "name": "D#5",
                    "midi": 75,
                    "time": 6.5384635,
                    "velocity": 0.007874015748031496,
                    "duration": 0.3846154999999998
                },
                {
                    "name": "C#5",
                    "midi": 73,
                    "time": 10.000003,
                    "velocity": 0.007874015748031496,
                    "duration": 0.38461550000000067
                },
                {
                    "name": "A4",
                    "midi": 69,
                    "time": 13.4615425,
                    "velocity": 0.007874015748031496,
                    "duration": 0.38461550000000067
                },
                {
                    "name": "A4",
                    "midi": 69,
                    "time": 17.3076975,
                    "velocity": 0.007874015748031496,
                    "duration": 0.3846154999999989
                },
                {
                    "name": "G#4",
                    "midi": 68,
                    "time": 21.1538525,
                    "velocity": 0.007874015748031496,
                    "duration": 0.3846154999999989
                },
                {
                    "name": "C#5",
                    "midi": 73,
                    "time": 24.615392,
                    "velocity": 0.007874015748031496,
                    "duration": 0.3846154999999989
                },
                {
                    "name": "A4",
                    "midi": 69,
                    "time": 28.0769315,
                    "velocity": 0.007874015748031496,
                    "duration": 0.3846154999999989
                },
                {
                    "name": "A4",
                    "midi": 69,
                    "time": 31.9230865,
                    "velocity": 0.007874015748031496,
                    "duration": 0.3846154999999989
                },
                {
                    "name": "G#4",
                    "midi": 68,
                    "time": 36.923088,
                    "velocity": 0.007874015748031496,
                    "duration": 0.19230774999999767
                }
            ],
            "controlChanges": {},
            "id": 1,
            "name": "English (open lyrics window)",
            "channelNumber": 0,
            "isPercussion": false
        },
        {
            "startTime": 0.769231,
            "duration": 37.115395750000005,
            "length": 59,
            "notes": [
                {
                    "name": "F#4",
                    "midi": 66,
                    "time": 0.769231,
                    "velocity": 0.007874015748031496,
                    "duration": 0.19230775
                },
                {
                    "name": "D#5",
                    "midi": 75,
                    "time": 6.5384635,
                    "velocity": 0.007874015748031496,
                    "duration": 0.3846154999999998
                },
                {
                    "name": "E5",
                    "midi": 76,
                    "time": 6.9230789999999995,
                    "velocity": 0.007874015748031496,
                    "duration": 0.7692309999999996
                },
                {
                    "name": "E5",
                    "midi": 76,
                    "time": 7.692309999999999,
                    "velocity": 0.007874015748031496,
                    "duration": 0.38461550000000067
                },
                {
                    "name": "C#5",
                    "midi": 73,
                    "time": 8.0769255,
                    "velocity": 0.007874015748031496,
                    "duration": 0.38461550000000067
                },
                {
                    "name": "D#5",
                    "midi": 75,
                    "time": 8.461541,
                    "velocity": 0.007874015748031496,
                    "duration": 0.7692309999999996
                },
                {
                    "name": "B4",
                    "midi": 71,
                    "time": 9.230772,
                    "velocity": 0.007874015748031496,
                    "duration": 0.38461550000000067
                },
                {
                    "name": "C#5",
                    "midi": 73,
                    "time": 10.000003000000001,
                    "velocity": 0.007874015748031496,
                    "duration": 0.38461550000000067
                },
                {
                    "name": "C#5",
                    "midi": 73,
                    "time": 10.384618500000002,
                    "velocity": 0.007874015748031496,
                    "duration": 0.38461550000000067
                },
                {
                    "name": "B4",
                    "midi": 71,
                    "time": 10.769234000000003,
                    "velocity": 0.007874015748031496,
                    "duration": 0.2564103333333332
                },
                {
                    "name": "D#5",
                    "midi": 75,
                    "time": 11.025644333333336,
                    "velocity": 0.007874015748031496,
                    "duration": 0.2564103333333332
                },
                {
                    "name": "C#5",
                    "midi": 73,
                    "time": 11.282054666666669,
                    "velocity": 0.007874015748031496,
                    "duration": 0.2564103333333332
                },
                {
                    "name": "B4",
                    "midi": 71,
                    "time": 11.538465000000002,
                    "velocity": 0.007874015748031496,
                    "duration": 0.38461550000000067
                },
                {
                    "name": "A4",
                    "midi": 69,
                    "time": 11.923080500000003,
                    "velocity": 0.007874015748031496,
                    "duration": 0.38461550000000067
                },
                {
                    "name": "G#4",
                    "midi": 68,
                    "time": 12.307696000000004,
                    "velocity": 0.007874015748031496,
                    "duration": 0.7692309999999996
                },
                {
                    "name": "A4",
                    "midi": 69,
                    "time": 13.461542500000004,
                    "velocity": 0.007874015748031496,
                    "duration": 0.38461550000000067
                },
                {
                    "name": "B4",
                    "midi": 71,
                    "time": 13.846158000000004,
                    "velocity": 0.007874015748031496,
                    "duration": 0.38461550000000067
                },
                {
                    "name": "D#5",
                    "midi": 75,
                    "time": 14.615389000000006,
                    "velocity": 0.007874015748031496,
                    "duration": 0.19230774999999944
                },
                {
                    "name": "D#5",
                    "midi": 75,
                    "time": 15.000004500000005,
                    "velocity": 0.007874015748031496,
                    "duration": 0.19230774999999944
                },
                {
                    "name": "C#5",
                    "midi": 73,
                    "time": 15.192312250000004,
                    "velocity": 0.007874015748031496,
                    "duration": 0.19230774999999944
                },
                {
                    "name": "B4",
                    "midi": 71,
                    "time": 15.384620000000004,
                    "velocity": 0.007874015748031496,
                    "duration": 0.38461550000000067
                },
                {
                    "name": "G#4",
                    "midi": 68,
                    "time": 16.153851000000003,
                    "velocity": 0.007874015748031496,
                    "duration": 0.7692310000000013
                },
                {
                    "name": "A4",
                    "midi": 69,
                    "time": 17.307697500000003,
                    "velocity": 0.007874015748031496,
                    "duration": 0.3846154999999989
                },
                {
                    "name": "B4",
                    "midi": 71,
                    "time": 17.692313000000002,
                    "velocity": 0.007874015748031496,
                    "duration": 0.3846154999999989
                },
                {
                    "name": "D#5",
                    "midi": 75,
                    "time": 18.461544,
                    "velocity": 0.007874015748031496,
                    "duration": 0.19230775000000122
                },
                {
                    "name": "E5",
                    "midi": 76,
                    "time": 18.65385175,
                    "velocity": 0.007874015748031496,
                    "duration": 0.19230775000000122
                },
                {
                    "name": "D#5",
                    "midi": 75,
                    "time": 18.846159500000002,
                    "velocity": 0.007874015748031496,
                    "duration": 0.19230775000000122
                },
                {
                    "name": "C#5",
                    "midi": 73,
                    "time": 19.038467250000004,
                    "velocity": 0.007874015748031496,
                    "duration": 0.19230775000000122
                },
                {
                    "name": "B4",
                    "midi": 71,
                    "time": 19.230775000000005,
                    "velocity": 0.007874015748031496,
                    "duration": 0.3846154999999989
                },
                {
                    "name": "G#4",
                    "midi": 68,
                    "time": 20.000006000000003,
                    "velocity": 0.007874015748031496,
                    "duration": 0.7692310000000013
                },
                {
                    "name": "G#4",
                    "midi": 68,
                    "time": 21.153852500000003,
                    "velocity": 0.007874015748031496,
                    "duration": 0.3846154999999989
                },
                {
                    "name": "E5",
                    "midi": 76,
                    "time": 21.538468,
                    "velocity": 0.007874015748031496,
                    "duration": 0.7692310000000013
                },
                {
                    "name": "E5",
                    "midi": 76,
                    "time": 22.307699000000003,
                    "velocity": 0.007874015748031496,
                    "duration": 0.3846154999999989
                },
                {
                    "name": "C#5",
                    "midi": 73,
                    "time": 22.692314500000002,
                    "velocity": 0.007874015748031496,
                    "duration": 0.3846154999999989
                },
                {
                    "name": "D#5",
                    "midi": 75,
                    "time": 23.07693,
                    "velocity": 0.007874015748031496,
                    "duration": 0.7692310000000013
                },
                {
                    "name": "C#5",
                    "midi": 73,
                    "time": 24.615392000000003,
                    "velocity": 0.007874015748031496,
                    "duration": 0.3846154999999989
                },
                {
                    "name": "C#5",
                    "midi": 73,
                    "time": 25.000007500000002,
                    "velocity": 0.007874015748031496,
                    "duration": 0.3846154999999989
                },
                {
                    "name": "B4",
                    "midi": 71,
                    "time": 25.384623,
                    "velocity": 0.007874015748031496,
                    "duration": 0.25641033333333496
                },
                {
                    "name": "D#5",
                    "midi": 75,
                    "time": 25.641033333333336,
                    "velocity": 0.007874015748031496,
                    "duration": 0.25641033333333496
                },
                {
                    "name": "C#5",
                    "midi": 73,
                    "time": 25.89744366666667,
                    "velocity": 0.007874015748031496,
                    "duration": 0.25641033333333496
                },
                {
                    "name": "B4",
                    "midi": 71,
                    "time": 26.153854000000006,
                    "velocity": 0.007874015748031496,
                    "duration": 0.3846154999999989
                },
                {
                    "name": "A4",
                    "midi": 69,
                    "time": 26.538469500000005,
                    "velocity": 0.007874015748031496,
                    "duration": 0.3846154999999989
                },
                {
                    "name": "G#4",
                    "midi": 68,
                    "time": 26.923085000000004,
                    "velocity": 0.007874015748031496,
                    "duration": 0.7692310000000013
                },
                {
                    "name": "A4",
                    "midi": 69,
                    "time": 28.076931500000004,
                    "velocity": 0.007874015748031496,
                    "duration": 0.3846154999999989
                },
                {
                    "name": "B4",
                    "midi": 71,
                    "time": 28.461547000000003,
                    "velocity": 0.007874015748031496,
                    "duration": 0.3846154999999989
                },
                {
                    "name": "D#5",
                    "midi": 75,
                    "time": 29.230778,
                    "velocity": 0.007874015748031496,
                    "duration": 0.19230775000000122
                },
                {
                    "name": "D#5",
                    "midi": 75,
                    "time": 29.615393500000003,
                    "velocity": 0.007874015748031496,
                    "duration": 0.19230775000000122
                },
                {
                    "name": "C#5",
                    "midi": 73,
                    "time": 29.807701250000004,
                    "velocity": 0.007874015748031496,
                    "duration": 0.19230775000000122
                },
                {
                    "name": "B4",
                    "midi": 71,
                    "time": 30.000009000000006,
                    "velocity": 0.007874015748031496,
                    "duration": 0.3846154999999989
                },
                {
                    "name": "G#4",
                    "midi": 68,
                    "time": 30.769240000000003,
                    "velocity": 0.007874015748031496,
                    "duration": 0.7692310000000013
                },
                {
                    "name": "A4",
                    "midi": 69,
                    "time": 31.923086500000004,
                    "velocity": 0.007874015748031496,
                    "duration": 0.38461550000000244
                },
                {
                    "name": "B4",
                    "midi": 71,
                    "time": 32.307702000000006,
                    "velocity": 0.007874015748031496,
                    "duration": 0.38461550000000244
                },
                {
                    "name": "D#5",
                    "midi": 75,
                    "time": 33.07693300000001,
                    "velocity": 0.007874015748031496,
                    "duration": 0.19230774999999767
                },
                {
                    "name": "E5",
                    "midi": 76,
                    "time": 33.26924075000001,
                    "velocity": 0.007874015748031496,
                    "duration": 0.19230774999999767
                },
                {
                    "name": "D#5",
                    "midi": 75,
                    "time": 33.461548500000006,
                    "velocity": 0.007874015748031496,
                    "duration": 0.19230774999999767
                },
                {
                    "name": "C#5",
                    "midi": 73,
                    "time": 33.653856250000004,
                    "velocity": 0.007874015748031496,
                    "duration": 0.19230774999999767
                },
                {
                    "name": "B4",
                    "midi": 71,
                    "time": 33.846164,
                    "velocity": 0.007874015748031496,
                    "duration": 0.38461550000000244
                },
                {
                    "name": "G#4",
                    "midi": 68,
                    "time": 34.61539500000001,
                    "velocity": 0.007874015748031496,
                    "duration": 2.3076930000000004
                },
                {
                    "name": "G#4",
                    "midi": 68,
                    "time": 36.92308800000001,
                    "velocity": 0.007874015748031496,
                    "duration": 0.19230774999999767
                }
            ],
            "controlChanges": {},
            "id": 2,
            "name": "French (open lyrics window)",
            "channelNumber": 1,
            "isPercussion": false
        },
        {
            "startTime": 6.5384635,
            "duration": 36.923088,
            "length": 68,
            "notes": [
                {
                    "name": "D#5",
                    "midi": 75,
                    "time": 6.5384635,
                    "velocity": 0.7874015748031497,
                    "duration": 0.3846154999999998
                },
                {
                    "name": "E5",
                    "midi": 76,
                    "time": 6.9230789999999995,
                    "velocity": 0.7874015748031497,
                    "duration": 0.7692309999999996
                },
                {
                    "name": "E5",
                    "midi": 76,
                    "time": 7.692309999999999,
                    "velocity": 0.7874015748031497,
                    "duration": 0.38461550000000067
                },
                {
                    "name": "C#5",
                    "midi": 73,
                    "time": 8.0769255,
                    "velocity": 0.7874015748031497,
                    "duration": 0.38461550000000067
                },
                {
                    "name": "D#5",
                    "midi": 75,
                    "time": 8.461541,
                    "velocity": 0.7874015748031497,
                    "duration": 0.7692309999999996
                },
                {
                    "name": "B4",
                    "midi": 71,
                    "time": 9.230772,
                    "velocity": 0.7874015748031497,
                    "duration": 0.38461550000000067
                },
                {
                    "name": "C#5",
                    "midi": 73,
                    "time": 10.000003000000001,
                    "velocity": 0.7874015748031497,
                    "duration": 0.38461550000000067
                },
                {
                    "name": "C#5",
                    "midi": 73,
                    "time": 10.384618500000002,
                    "velocity": 0.7874015748031497,
                    "duration": 0.38461550000000067
                },
                {
                    "name": "B4",
                    "midi": 71,
                    "time": 10.769234000000003,
                    "velocity": 0.7874015748031497,
                    "duration": 0.2564103333333332
                },
                {
                    "name": "D#5",
                    "midi": 75,
                    "time": 11.025644333333336,
                    "velocity": 0.7874015748031497,
                    "duration": 0.2564103333333332
                },
                {
                    "name": "C#5",
                    "midi": 73,
                    "time": 11.282054666666669,
                    "velocity": 0.7874015748031497,
                    "duration": 0.2564103333333332
                },
                {
                    "name": "B4",
                    "midi": 71,
                    "time": 11.538465000000002,
                    "velocity": 0.7874015748031497,
                    "duration": 0.38461550000000067
                },
                {
                    "name": "A4",
                    "midi": 69,
                    "time": 11.923080500000003,
                    "velocity": 0.7874015748031497,
                    "duration": 0.38461550000000067
                },
                {
                    "name": "G#4",
                    "midi": 68,
                    "time": 12.307696000000004,
                    "velocity": 0.7874015748031497,
                    "duration": 0.7692309999999996
                },
                {
                    "name": "A4",
                    "midi": 69,
                    "time": 13.461542500000004,
                    "velocity": 0.7874015748031497,
                    "duration": 0.38461550000000067
                },
                {
                    "name": "B4",
                    "midi": 71,
                    "time": 13.846158000000004,
                    "velocity": 0.7874015748031497,
                    "duration": 0.38461550000000067
                },
                {
                    "name": "C#5",
                    "midi": 73,
                    "time": 14.230773500000005,
                    "velocity": 0.7874015748031497,
                    "duration": 0.38461550000000067
                },
                {
                    "name": "D#5",
                    "midi": 75,
                    "time": 14.615389000000006,
                    "velocity": 0.7874015748031497,
                    "duration": 0.19230774999999944
                },
                {
                    "name": "E5",
                    "midi": 76,
                    "time": 14.807696750000005,
                    "velocity": 0.7874015748031497,
                    "duration": 0.19230774999999944
                },
                {
                    "name": "D#5",
                    "midi": 75,
                    "time": 15.000004500000005,
                    "velocity": 0.7874015748031497,
                    "duration": 0.19230774999999944
                },
                {
                    "name": "C#5",
                    "midi": 73,
                    "time": 15.192312250000004,
                    "velocity": 0.7874015748031497,
                    "duration": 0.19230774999999944
                },
                {
                    "name": "B4",
                    "midi": 71,
                    "time": 15.384620000000004,
                    "velocity": 0.7874015748031497,
                    "duration": 0.38461550000000067
                },
                {
                    "name": "A4",
                    "midi": 69,
                    "time": 15.769235500000004,
                    "velocity": 0.7874015748031497,
                    "duration": 0.3846154999999989
                },
                {
                    "name": "G#4",
                    "midi": 68,
                    "time": 16.153851000000003,
                    "velocity": 0.7874015748031497,
                    "duration": 0.7692310000000013
                },
                {
                    "name": "A4",
                    "midi": 69,
                    "time": 17.307697500000003,
                    "velocity": 0.7874015748031497,
                    "duration": 0.3846154999999989
                },
                {
                    "name": "B4",
                    "midi": 71,
                    "time": 17.692313000000002,
                    "velocity": 0.7874015748031497,
                    "duration": 0.3846154999999989
                },
                {
                    "name": "C#5",
                    "midi": 73,
                    "time": 18.0769285,
                    "velocity": 0.7874015748031497,
                    "duration": 0.3846154999999989
                },
                {
                    "name": "D#5",
                    "midi": 75,
                    "time": 18.461544,
                    "velocity": 0.7874015748031497,
                    "duration": 0.19230775000000122
                },
                {
                    "name": "E5",
                    "midi": 76,
                    "time": 18.65385175,
                    "velocity": 0.7874015748031497,
                    "duration": 0.19230775000000122
                },
                {
                    "name": "D#5",
                    "midi": 75,
                    "time": 18.846159500000002,
                    "velocity": 0.7874015748031497,
                    "duration": 0.19230775000000122
                },
                {
                    "name": "C#5",
                    "midi": 73,
                    "time": 19.038467250000004,
                    "velocity": 0.7874015748031497,
                    "duration": 0.19230775000000122
                },
                {
                    "name": "B4",
                    "midi": 71,
                    "time": 19.230775000000005,
                    "velocity": 0.7874015748031497,
                    "duration": 0.3846154999999989
                },
                {
                    "name": "A4",
                    "midi": 69,
                    "time": 19.615390500000004,
                    "velocity": 0.7874015748031497,
                    "duration": 0.3846154999999989
                },
                {
                    "name": "G#4",
                    "midi": 68,
                    "time": 20.000006000000003,
                    "velocity": 0.7874015748031497,
                    "duration": 0.7692310000000013
                },
                {
                    "name": "G#4",
                    "midi": 68,
                    "time": 21.153852500000003,
                    "velocity": 0.7874015748031497,
                    "duration": 0.3846154999999989
                },
                {
                    "name": "E5",
                    "midi": 76,
                    "time": 21.538468,
                    "velocity": 0.7874015748031497,
                    "duration": 0.7692310000000013
                },
                {
                    "name": "E5",
                    "midi": 76,
                    "time": 22.307699000000003,
                    "velocity": 0.7874015748031497,
                    "duration": 0.3846154999999989
                },
                {
                    "name": "C#5",
                    "midi": 73,
                    "time": 22.692314500000002,
                    "velocity": 0.7874015748031497,
                    "duration": 0.3846154999999989
                },
                {
                    "name": "D#5",
                    "midi": 75,
                    "time": 23.07693,
                    "velocity": 0.7874015748031497,
                    "duration": 0.7692310000000013
                },
                {
                    "name": "B4",
                    "midi": 71,
                    "time": 23.846161000000002,
                    "velocity": 0.7874015748031497,
                    "duration": 0.3846154999999989
                },
                {
                    "name": "C#5",
                    "midi": 73,
                    "time": 24.615392,
                    "velocity": 0.7874015748031497,
                    "duration": 0.3846154999999989
                },
                {
                    "name": "C#5",
                    "midi": 73,
                    "time": 25.0000075,
                    "velocity": 0.7874015748031497,
                    "duration": 0.3846154999999989
                },
                {
                    "name": "B4",
                    "midi": 71,
                    "time": 25.384622999999998,
                    "velocity": 0.7874015748031497,
                    "duration": 0.25641033333333496
                },
                {
                    "name": "D#5",
                    "midi": 75,
                    "time": 25.641033333333333,
                    "velocity": 0.7874015748031497,
                    "duration": 0.25641033333333496
                },
                {
                    "name": "C#5",
                    "midi": 73,
                    "time": 25.897443666666668,
                    "velocity": 0.7874015748031497,
                    "duration": 0.25641033333333496
                },
                {
                    "name": "B4",
                    "midi": 71,
                    "time": 26.153854000000003,
                    "velocity": 0.7874015748031497,
                    "duration": 0.3846154999999989
                },
                {
                    "name": "A4",
                    "midi": 69,
                    "time": 26.5384695,
                    "velocity": 0.7874015748031497,
                    "duration": 0.3846154999999989
                },
                {
                    "name": "G#4",
                    "midi": 68,
                    "time": 26.923085,
                    "velocity": 0.7874015748031497,
                    "duration": 0.7692310000000013
                },
                {
                    "name": "A4",
                    "midi": 69,
                    "time": 28.0769315,
                    "velocity": 0.7874015748031497,
                    "duration": 0.3846154999999989
                },
                {
                    "name": "B4",
                    "midi": 71,
                    "time": 28.461547,
                    "velocity": 0.7874015748031497,
                    "duration": 0.3846154999999989
                },
                {
                    "name": "C#5",
                    "midi": 73,
                    "time": 28.8461625,
                    "velocity": 0.7874015748031497,
                    "duration": 0.3846154999999989
                },
                {
                    "name": "D#5",
                    "midi": 75,
                    "time": 29.230777999999997,
                    "velocity": 0.7874015748031497,
                    "duration": 0.19230775000000122
                },
                {
                    "name": "E5",
                    "midi": 76,
                    "time": 29.42308575,
                    "velocity": 0.7874015748031497,
                    "duration": 0.19230775000000122
                },
                {
                    "name": "D#5",
                    "midi": 75,
                    "time": 29.6153935,
                    "velocity": 0.7874015748031497,
                    "duration": 0.19230775000000122
                },
                {
                    "name": "C#5",
                    "midi": 73,
                    "time": 29.80770125,
                    "velocity": 0.7874015748031497,
                    "duration": 0.19230775000000122
                },
                {
                    "name": "B4",
                    "midi": 71,
                    "time": 30.000009000000002,
                    "velocity": 0.7874015748031497,
                    "duration": 0.3846154999999989
                },
                {
                    "name": "A4",
                    "midi": 69,
                    "time": 30.3846245,
                    "velocity": 0.7874015748031497,
                    "duration": 0.3846154999999989
                },
                {
                    "name": "G#4",
                    "midi": 68,
                    "time": 30.76924,
                    "velocity": 0.7874015748031497,
                    "duration": 0.7692310000000013
                },
                {
                    "name": "A4",
                    "midi": 69,
                    "time": 31.9230865,
                    "velocity": 0.7874015748031497,
                    "duration": 0.3846154999999989
                },
                {
                    "name": "B4",
                    "midi": 71,
                    "time": 32.307702,
                    "velocity": 0.7874015748031497,
                    "duration": 0.38461550000000244
                },
                {
                    "name": "C#5",
                    "midi": 73,
                    "time": 32.6923175,
                    "velocity": 0.7874015748031497,
                    "duration": 0.38461550000000244
                },
                {
                    "name": "D#5",
                    "midi": 75,
                    "time": 33.076933000000004,
                    "velocity": 0.7874015748031497,
                    "duration": 0.19230774999999767
                },
                {
                    "name": "E5",
                    "midi": 76,
                    "time": 33.26924075,
                    "velocity": 0.7874015748031497,
                    "duration": 0.19230774999999767
                },
                {
                    "name": "D#5",
                    "midi": 75,
                    "time": 33.4615485,
                    "velocity": 0.7874015748031497,
                    "duration": 0.19230774999999767
                },
                {
                    "name": "C#5",
                    "midi": 73,
                    "time": 33.65385625,
                    "velocity": 0.7874015748031497,
                    "duration": 0.19230774999999767
                },
                {
                    "name": "B4",
                    "midi": 71,
                    "time": 33.846163999999995,
                    "velocity": 0.7874015748031497,
                    "duration": 0.38461550000000244
                },
                {
                    "name": "A4",
                    "midi": 69,
                    "time": 34.2307795,
                    "velocity": 0.7874015748031497,
                    "duration": 0.38461550000000244
                },
                {
                    "name": "G#4",
                    "midi": 68,
                    "time": 34.615395,
                    "velocity": 0.7874015748031497,
                    "duration": 2.3076930000000004
                }
            ],
            "controlChanges": {},
            "id": 3,
            "name": "Vocal line (open staff view)",
            "instrumentNumber": 73,
            "instrument": "flute",
            "instrumentFamily": "pipe",
            "channelNumber": 2,
            "isPercussion": false
        },
        {
            "startTime": 0.769231,
            "duration": 43.076935999999954,
            "length": 97,
            "notes": [
                {
                    "name": "G#5",
                    "midi": 80,
                    "time": 0.769231,
                    "velocity": 0.6299212598425197,
                    "duration": 0.769231
                },
                {
                    "name": "D#6",
                    "midi": 87,
                    "time": 0.8333335833333333,
                    "velocity": 0.6299212598425197,
                    "duration": 0.7051284166666667
                },
                {
                    "name": "G#6",
                    "midi": 92,
                    "time": 0.8974361666666666,
                    "velocity": 0.6299212598425197,
                    "duration": 0.6410258333333334
                },
                {
                    "name": "G#5",
                    "midi": 80,
                    "time": 2.307693,
                    "velocity": 0.6299212598425197,
                    "duration": 0.769231
                },
                {
                    "name": "C#6",
                    "midi": 85,
                    "time": 2.3717955833333333,
                    "velocity": 0.6299212598425197,
                    "duration": 0.7051284166666667
                },
                {
                    "name": "G#6",
                    "midi": 92,
                    "time": 2.4358981666666666,
                    "velocity": 0.6299212598425197,
                    "duration": 0.6410258333333334
                },
                {
                    "name": "G#5",
                    "midi": 80,
                    "time": 3.846155,
                    "velocity": 0.6299212598425197,
                    "duration": 0.769231
                },
                {
                    "name": "D#6",
                    "midi": 87,
                    "time": 3.9102575833333333,
                    "velocity": 0.6299212598425197,
                    "duration": 0.7051284166666667
                },
                {
                    "name": "G#6",
                    "midi": 92,
                    "time": 3.9743601666666666,
                    "velocity": 0.6299212598425197,
                    "duration": 0.6410258333333334
                },
                {
                    "name": "G#5",
                    "midi": 80,
                    "time": 4.615386,
                    "velocity": 0.6299212598425197,
                    "duration": 0.7692310000000004
                },
                {
                    "name": "C#6",
                    "midi": 85,
                    "time": 4.679488583333334,
                    "velocity": 0.6299212598425197,
                    "duration": 0.7051284166666667
                },
                {
                    "name": "G#6",
                    "midi": 92,
                    "time": 4.7435911666666675,
                    "velocity": 0.6299212598425197,
                    "duration": 0.641025833333333
                },
                {
                    "name": "G#5",
                    "midi": 80,
                    "time": 6.153848,
                    "velocity": 0.6299212598425197,
                    "duration": 0.7692310000000004
                },
                {
                    "name": "D#6",
                    "midi": 87,
                    "time": 6.217950583333334,
                    "velocity": 0.6299212598425197,
                    "duration": 0.7051284166666667
                },
                {
                    "name": "E5",
                    "midi": 76,
                    "time": 7.692310000000001,
                    "velocity": 0.6299212598425197,
                    "duration": 0.7692309999999996
                },
                {
                    "name": "B5",
                    "midi": 83,
                    "time": 7.756412583333335,
                    "velocity": 0.6299212598425197,
                    "duration": 0.7051284166666658
                },
                {
                    "name": "D#5",
                    "midi": 75,
                    "time": 9.230772,
                    "velocity": 0.6299212598425197,
                    "duration": 0.7692309999999996
                },
                {
                    "name": "B5",
                    "midi": 83,
                    "time": 9.294874583333334,
                    "velocity": 0.6299212598425197,
                    "duration": 0.7051284166666658
                },
                {
                    "name": "C#5",
                    "midi": 73,
                    "time": 10.769233999999999,
                    "velocity": 0.6299212598425197,
                    "duration": 0.7692309999999996
                },
                {
                    "name": "G#5",
                    "midi": 80,
                    "time": 10.833336583333333,
                    "velocity": 0.6299212598425197,
                    "duration": 0.7051284166666658
                },
                {
                    "name": "C#5",
                    "midi": 73,
                    "time": 11.538464999999999,
                    "velocity": 0.6299212598425197,
                    "duration": 0.7692309999999996
                },
                {
                    "name": "F#5",
                    "midi": 78,
                    "time": 11.602567583333332,
                    "velocity": 0.6299212598425197,
                    "duration": 0.7051284166666658
                },
                {
                    "name": "G#4",
                    "midi": 68,
                    "time": 13.076926999999998,
                    "velocity": 0.6299212598425197,
                    "duration": 0.7692309999999996
                },
                {
                    "name": "D#5",
                    "midi": 75,
                    "time": 13.141029583333331,
                    "velocity": 0.6299212598425197,
                    "duration": 0.7051284166666658
                },
                {
                    "name": "G#4",
                    "midi": 68,
                    "time": 14.615388999999997,
                    "velocity": 0.6299212598425197,
                    "duration": 0.7692310000000013
                },
                {
                    "name": "D#5",
                    "midi": 75,
                    "time": 14.67949158333333,
                    "velocity": 0.6299212598425197,
                    "duration": 0.7051284166666676
                },
                {
                    "name": "G#5",
                    "midi": 80,
                    "time": 14.743594166666664,
                    "velocity": 0.6299212598425197,
                    "duration": 0.6410258333333338
                },
                {
                    "name": "G#4",
                    "midi": 68,
                    "time": 15.384619999999998,
                    "velocity": 0.6299212598425197,
                    "duration": 0.7692310000000013
                },
                {
                    "name": "C#5",
                    "midi": 73,
                    "time": 15.448722583333332,
                    "velocity": 0.6299212598425197,
                    "duration": 0.7051284166666676
                },
                {
                    "name": "G#5",
                    "midi": 80,
                    "time": 15.512825166666666,
                    "velocity": 0.6299212598425197,
                    "duration": 0.6410258333333338
                },
                {
                    "name": "G#4",
                    "midi": 68,
                    "time": 16.923082,
                    "velocity": 0.6299212598425197,
                    "duration": 0.7692310000000013
                },
                {
                    "name": "D#5",
                    "midi": 75,
                    "time": 16.987184583333335,
                    "velocity": 0.6299212598425197,
                    "duration": 0.7051284166666676
                },
                {
                    "name": "G#4",
                    "midi": 68,
                    "time": 18.461544000000004,
                    "velocity": 0.6299212598425197,
                    "duration": 0.7692310000000013
                },
                {
                    "name": "D#5",
                    "midi": 75,
                    "time": 18.525646583333337,
                    "velocity": 0.6299212598425197,
                    "duration": 0.7051284166666676
                },
                {
                    "name": "G#5",
                    "midi": 80,
                    "time": 18.58974916666667,
                    "velocity": 0.6299212598425197,
                    "duration": 0.6410258333333338
                },
                {
                    "name": "G#4",
                    "midi": 68,
                    "time": 19.230775000000005,
                    "velocity": 0.6299212598425197,
                    "duration": 0.7692310000000013
                },
                {
                    "name": "C#5",
                    "midi": 73,
                    "time": 19.29487758333334,
                    "velocity": 0.6299212598425197,
                    "duration": 0.7051284166666676
                },
                {
                    "name": "G#5",
                    "midi": 80,
                    "time": 19.358980166666672,
                    "velocity": 0.6299212598425197,
                    "duration": 0.6410258333333338
                },
                {
                    "name": "G#4",
                    "midi": 68,
                    "time": 20.769237000000007,
                    "velocity": 0.6299212598425197,
                    "duration": 0.7692310000000013
                },
                {
                    "name": "D#5",
                    "midi": 75,
                    "time": 20.83333958333334,
                    "velocity": 0.6299212598425197,
                    "duration": 0.7051284166666676
                },
                {
                    "name": "E4",
                    "midi": 64,
                    "time": 22.30769900000001,
                    "velocity": 0.6299212598425197,
                    "duration": 0.7692310000000013
                },
                {
                    "name": "B4",
                    "midi": 71,
                    "time": 22.371801583333344,
                    "velocity": 0.6299212598425197,
                    "duration": 0.7051284166666676
                },
                {
                    "name": "D#4",
                    "midi": 63,
                    "time": 23.846161000000013,
                    "velocity": 0.6299212598425197,
                    "duration": 0.7692310000000013
                },
                {
                    "name": "B4",
                    "midi": 71,
                    "time": 23.910263583333347,
                    "velocity": 0.6299212598425197,
                    "duration": 0.7051284166666676
                },
                {
                    "name": "C#4",
                    "midi": 61,
                    "time": 25.384623000000015,
                    "velocity": 0.6299212598425197,
                    "duration": 0.7692310000000013
                },
                {
                    "name": "G#4",
                    "midi": 68,
                    "time": 25.44872558333335,
                    "velocity": 0.6299212598425197,
                    "duration": 0.7051284166666676
                },
                {
                    "name": "C#4",
                    "midi": 61,
                    "time": 26.153854000000017,
                    "velocity": 0.6299212598425197,
                    "duration": 0.7692310000000013
                },
                {
                    "name": "F#4",
                    "midi": 66,
                    "time": 26.21795658333335,
                    "velocity": 0.6299212598425197,
                    "duration": 0.7051284166666676
                },
                {
                    "name": "G#3",
                    "midi": 56,
                    "time": 27.69231600000002,
                    "velocity": 0.6299212598425197,
                    "duration": 0.7692310000000013
                },
                {
                    "name": "D#4",
                    "midi": 63,
                    "time": 27.756418583333353,
                    "velocity": 0.6299212598425197,
                    "duration": 0.7051284166666676
                },
                {
                    "name": "G#3",
                    "midi": 56,
                    "time": 29.230778000000022,
                    "velocity": 0.6299212598425197,
                    "duration": 0.7692310000000013
                },
                {
                    "name": "D#4",
                    "midi": 63,
                    "time": 29.294880583333356,
                    "velocity": 0.6299212598425197,
                    "duration": 0.7051284166666676
                },
                {
                    "name": "G#4",
                    "midi": 68,
                    "time": 29.35898316666669,
                    "velocity": 0.6299212598425197,
                    "duration": 0.6410258333333338
                },
                {
                    "name": "G#3",
                    "midi": 56,
                    "time": 30.000009000000023,
                    "velocity": 0.6299212598425197,
                    "duration": 0.7692310000000013
                },
                {
                    "name": "C#4",
                    "midi": 61,
                    "time": 30.064111583333357,
                    "velocity": 0.6299212598425197,
                    "duration": 0.7051284166666676
                },
                {
                    "name": "G#4",
                    "midi": 68,
                    "time": 30.12821416666669,
                    "velocity": 0.6299212598425197,
                    "duration": 0.6410258333333338
                },
                {
                    "name": "G#3",
                    "midi": 56,
                    "time": 31.538471000000026,
                    "velocity": 0.6299212598425197,
                    "duration": 0.7692310000000013
                },
                {
                    "name": "D#4",
                    "midi": 63,
                    "time": 31.60257358333336,
                    "velocity": 0.6299212598425197,
                    "duration": 0.7051284166666676
                },
                {
                    "name": "G#3",
                    "midi": 56,
                    "time": 33.076933000000025,
                    "velocity": 0.6299212598425197,
                    "duration": 0.7692309999999907
                },
                {
                    "name": "D#4",
                    "midi": 63,
                    "time": 33.141035583333355,
                    "velocity": 0.6299212598425197,
                    "duration": 0.7051284166666605
                },
                {
                    "name": "G#4",
                    "midi": 68,
                    "time": 33.205138166666686,
                    "velocity": 0.6299212598425197,
                    "duration": 0.6410258333333303
                },
                {
                    "name": "G#3",
                    "midi": 56,
                    "time": 33.846164000000016,
                    "velocity": 0.6299212598425197,
                    "duration": 0.7692309999999907
                },
                {
                    "name": "C#4",
                    "midi": 61,
                    "time": 33.910266583333346,
                    "velocity": 0.6299212598425197,
                    "duration": 0.7051284166666605
                },
                {
                    "name": "G#4",
                    "midi": 68,
                    "time": 33.974369166666676,
                    "velocity": 0.6299212598425197,
                    "duration": 0.6410258333333303
                },
                {
                    "name": "G#3",
                    "midi": 56,
                    "time": 35.384626000000004,
                    "velocity": 0.6299212598425197,
                    "duration": 0.7692309999999978
                },
                {
                    "name": "D#4",
                    "midi": 63,
                    "time": 35.448728583333335,
                    "velocity": 0.6299212598425197,
                    "duration": 0.7051284166666676
                },
                {
                    "name": "B3",
                    "midi": 59,
                    "time": 36.923088,
                    "velocity": 0.6299212598425197,
                    "duration": 0.7692309999999907
                },
                {
                    "name": "D#4",
                    "midi": 63,
                    "time": 36.923088,
                    "velocity": 0.6299212598425197,
                    "duration": 0.7692309999999907
                },
                {
                    "name": "B4",
                    "midi": 71,
                    "time": 36.923088,
                    "velocity": 0.6299212598425197,
                    "duration": 0.7692309999999907
                },
                {
                    "name": "G#4",
                    "midi": 68,
                    "time": 36.923088,
                    "velocity": 0.6299212598425197,
                    "duration": 0.7692309999999907
                },
                {
                    "name": "D#5",
                    "midi": 75,
                    "time": 36.98719058333333,
                    "velocity": 0.6299212598425197,
                    "duration": 0.7051284166666605
                },
                {
                    "name": "G#5",
                    "midi": 80,
                    "time": 37.05129316666666,
                    "velocity": 0.6299212598425197,
                    "duration": 0.6410258333333303
                },
                {
                    "name": "A3",
                    "midi": 57,
                    "time": 38.46154999999999,
                    "velocity": 0.6299212598425197,
                    "duration": 0.7692309999999907
                },
                {
                    "name": "C#4",
                    "midi": 61,
                    "time": 38.46154999999999,
                    "velocity": 0.6299212598425197,
                    "duration": 0.7692309999999907
                },
                {
                    "name": "E4",
                    "midi": 64,
                    "time": 38.46154999999999,
                    "velocity": 0.6299212598425197,
                    "duration": 0.7692309999999907
                },
                {
                    "name": "B4",
                    "midi": 71,
                    "time": 38.46154999999999,
                    "velocity": 0.6299212598425197,
                    "duration": 0.7692309999999907
                },
                {
                    "name": "A4",
                    "midi": 69,
                    "time": 38.46154999999999,
                    "velocity": 0.6299212598425197,
                    "duration": 0.7692309999999907
                },
                {
                    "name": "C#5",
                    "midi": 73,
                    "time": 38.52565258333332,
                    "velocity": 0.6299212598425197,
                    "duration": 0.7051284166666605
                },
                {
                    "name": "G#5",
                    "midi": 80,
                    "time": 38.58975516666665,
                    "velocity": 0.6299212598425197,
                    "duration": 0.6410258333333303
                },
                {
                    "name": "B4",
                    "midi": 71,
                    "time": 40.00001199999998,
                    "velocity": 0.6299212598425197,
                    "duration": 0.7692309999999907
                },
                {
                    "name": "B3",
                    "midi": 59,
                    "time": 40.00001199999998,
                    "velocity": 0.6299212598425197,
                    "duration": 0.7692309999999907
                },
                {
                    "name": "D#4",
                    "midi": 63,
                    "time": 40.00001199999998,
                    "velocity": 0.6299212598425197,
                    "duration": 0.7692309999999907
                },
                {
                    "name": "G#4",
                    "midi": 68,
                    "time": 40.00001199999998,
                    "velocity": 0.6299212598425197,
                    "duration": 0.7692309999999907
                },
                {
                    "name": "D#5",
                    "midi": 75,
                    "time": 40.06411458333331,
                    "velocity": 0.6299212598425197,
                    "duration": 0.7051284166666605
                },
                {
                    "name": "G#5",
                    "midi": 80,
                    "time": 40.12821716666664,
                    "velocity": 0.6299212598425197,
                    "duration": 0.6410258333333303
                },
                {
                    "name": "A3",
                    "midi": 57,
                    "time": 40.76924299999997,
                    "velocity": 0.6299212598425197,
                    "duration": 0.7692309999999907
                },
                {
                    "name": "C#4",
                    "midi": 61,
                    "time": 40.76924299999997,
                    "velocity": 0.6299212598425197,
                    "duration": 0.7692309999999907
                },
                {
                    "name": "E4",
                    "midi": 64,
                    "time": 40.76924299999997,
                    "velocity": 0.6299212598425197,
                    "duration": 0.7692309999999907
                },
                {
                    "name": "B4",
                    "midi": 71,
                    "time": 40.76924299999997,
                    "velocity": 0.6299212598425197,
                    "duration": 0.7692309999999907
                },
                {
                    "name": "A4",
                    "midi": 69,
                    "time": 40.76924299999997,
                    "velocity": 0.6299212598425197,
                    "duration": 0.7692309999999907
                },
                {
                    "name": "C#5",
                    "midi": 73,
                    "time": 40.8333455833333,
                    "velocity": 0.6299212598425197,
                    "duration": 0.7051284166666605
                },
                {
                    "name": "G#5",
                    "midi": 80,
                    "time": 40.89744816666663,
                    "velocity": 0.6299212598425197,
                    "duration": 0.6410258333333303
                },
                {
                    "name": "B3",
                    "midi": 59,
                    "time": 42.307704999999956,
                    "velocity": 0.6299212598425197,
                    "duration": 0.7692309999999978
                },
                {
                    "name": "D#4",
                    "midi": 63,
                    "time": 42.307704999999956,
                    "velocity": 0.6299212598425197,
                    "duration": 0.7692309999999978
                },
                {
                    "name": "B4",
                    "midi": 71,
                    "time": 42.307704999999956,
                    "velocity": 0.6299212598425197,
                    "duration": 0.7692309999999978
                },
                {
                    "name": "G#4",
                    "midi": 68,
                    "time": 42.307704999999956,
                    "velocity": 0.6299212598425197,
                    "duration": 0.7692309999999978
                },
                {
                    "name": "D#5",
                    "midi": 75,
                    "time": 42.371807583333286,
                    "velocity": 0.6299212598425197,
                    "duration": 0.7051284166666676
                }
            ],
            "controlChanges": {},
            "id": 4,
            "name": "Piano (treble)",
            "instrumentNumber": 0,
            "instrument": "acoustic grand piano",
            "instrumentFamily": "piano",
            "channelNumber": 3,
            "isPercussion": false
        },
        {
            "startTime": 0,
            "duration": 42.6923205,
            "length": 90,
            "notes": [
                {
                    "name": "G#4",
                    "midi": 68,
                    "time": 0,
                    "velocity": 0.6299212598425197,
                    "duration": 0.3846155
                },
                {
                    "name": "D#5",
                    "midi": 75,
                    "time": 0.3846155,
                    "velocity": 0.6299212598425197,
                    "duration": 0.769231
                },
                {
                    "name": "B5",
                    "midi": 83,
                    "time": 0.769231,
                    "velocity": 0.6299212598425197,
                    "duration": 0.769231
                },
                {
                    "name": "G#4",
                    "midi": 68,
                    "time": 1.538462,
                    "velocity": 0.6299212598425197,
                    "duration": 0.3846155
                },
                {
                    "name": "C#5",
                    "midi": 73,
                    "time": 1.9230775,
                    "velocity": 0.6299212598425197,
                    "duration": 0.7692310000000002
                },
                {
                    "name": "A5",
                    "midi": 81,
                    "time": 2.307693,
                    "velocity": 0.6299212598425197,
                    "duration": 0.769231
                },
                {
                    "name": "E5",
                    "midi": 76,
                    "time": 2.307693,
                    "velocity": 0.6299212598425197,
                    "duration": 0.769231
                },
                {
                    "name": "G#4",
                    "midi": 68,
                    "time": 3.076924,
                    "velocity": 0.6299212598425197,
                    "duration": 0.3846154999999998
                },
                {
                    "name": "D#5",
                    "midi": 75,
                    "time": 3.4615394999999998,
                    "velocity": 0.6299212598425197,
                    "duration": 0.7692309999999996
                },
                {
                    "name": "B5",
                    "midi": 83,
                    "time": 3.8461549999999995,
                    "velocity": 0.6299212598425197,
                    "duration": 0.7692309999999996
                },
                {
                    "name": "C#5",
                    "midi": 73,
                    "time": 4.615385999999999,
                    "velocity": 0.6299212598425197,
                    "duration": 0.7692309999999996
                },
                {
                    "name": "E5",
                    "midi": 76,
                    "time": 4.615385999999999,
                    "velocity": 0.6299212598425197,
                    "duration": 0.7692309999999996
                },
                {
                    "name": "A5",
                    "midi": 81,
                    "time": 4.615385999999999,
                    "velocity": 0.6299212598425197,
                    "duration": 0.7692309999999996
                },
                {
                    "name": "G#4",
                    "midi": 68,
                    "time": 5.384616999999999,
                    "velocity": 0.6299212598425197,
                    "duration": 0.3846154999999998
                },
                {
                    "name": "D#5",
                    "midi": 75,
                    "time": 5.769232499999998,
                    "velocity": 0.6299212598425197,
                    "duration": 0.7692309999999996
                },
                {
                    "name": "B5",
                    "midi": 83,
                    "time": 6.153847999999998,
                    "velocity": 0.6299212598425197,
                    "duration": 0.7692309999999996
                },
                {
                    "name": "G#4",
                    "midi": 68,
                    "time": 6.923078999999998,
                    "velocity": 0.6299212598425197,
                    "duration": 0.3846154999999998
                },
                {
                    "name": "C#5",
                    "midi": 73,
                    "time": 7.3076944999999975,
                    "velocity": 0.6299212598425197,
                    "duration": 0.7692310000000004
                },
                {
                    "name": "G#5",
                    "midi": 80,
                    "time": 7.692309999999997,
                    "velocity": 0.6299212598425197,
                    "duration": 0.7692310000000013
                },
                {
                    "name": "G#4",
                    "midi": 68,
                    "time": 8.461540999999999,
                    "velocity": 0.6299212598425197,
                    "duration": 0.38461550000000067
                },
                {
                    "name": "B4",
                    "midi": 71,
                    "time": 8.8461565,
                    "velocity": 0.6299212598425197,
                    "duration": 0.7692310000000013
                },
                {
                    "name": "F#5",
                    "midi": 78,
                    "time": 9.230772,
                    "velocity": 0.6299212598425197,
                    "duration": 0.7692310000000013
                },
                {
                    "name": "C#4",
                    "midi": 61,
                    "time": 10.000003000000001,
                    "velocity": 0.6299212598425197,
                    "duration": 0.38461550000000067
                },
                {
                    "name": "G#4",
                    "midi": 68,
                    "time": 10.384618500000002,
                    "velocity": 0.6299212598425197,
                    "duration": 0.7692310000000013
                },
                {
                    "name": "B4",
                    "midi": 71,
                    "time": 10.769234000000003,
                    "velocity": 0.6299212598425197,
                    "duration": 0.7692310000000013
                },
                {
                    "name": "E5",
                    "midi": 76,
                    "time": 10.769234000000003,
                    "velocity": 0.6299212598425197,
                    "duration": 0.7692310000000013
                },
                {
                    "name": "A4",
                    "midi": 69,
                    "time": 11.538465000000004,
                    "velocity": 0.6299212598425197,
                    "duration": 0.7692309999999996
                },
                {
                    "name": "D#4",
                    "midi": 63,
                    "time": 11.538465000000004,
                    "velocity": 0.6299212598425197,
                    "duration": 0.7692309999999996
                },
                {
                    "name": "G#3",
                    "midi": 56,
                    "time": 12.307696000000004,
                    "velocity": 0.6299212598425197,
                    "duration": 0.38461550000000067
                },
                {
                    "name": "D#4",
                    "midi": 63,
                    "time": 12.692311500000004,
                    "velocity": 0.6299212598425197,
                    "duration": 0.7692310000000013
                },
                {
                    "name": "B4",
                    "midi": 71,
                    "time": 13.076927000000005,
                    "velocity": 0.6299212598425197,
                    "duration": 0.7692310000000013
                },
                {
                    "name": "G#3",
                    "midi": 56,
                    "time": 13.846158000000006,
                    "velocity": 0.6299212598425197,
                    "duration": 0.38461550000000067
                },
                {
                    "name": "D#4",
                    "midi": 63,
                    "time": 14.230773500000007,
                    "velocity": 0.6299212598425197,
                    "duration": 0.7692310000000013
                },
                {
                    "name": "B4",
                    "midi": 71,
                    "time": 14.615389000000008,
                    "velocity": 0.6299212598425197,
                    "duration": 0.7692310000000013
                },
                {
                    "name": "A4",
                    "midi": 69,
                    "time": 15.384620000000009,
                    "velocity": 0.6299212598425197,
                    "duration": 0.7692310000000013
                },
                {
                    "name": "E4",
                    "midi": 64,
                    "time": 15.384620000000009,
                    "velocity": 0.6299212598425197,
                    "duration": 0.7692310000000013
                },
                {
                    "name": "C#4",
                    "midi": 61,
                    "time": 15.384620000000009,
                    "velocity": 0.6299212598425197,
                    "duration": 0.7692310000000013
                },
                {
                    "name": "G#3",
                    "midi": 56,
                    "time": 16.15385100000001,
                    "velocity": 0.6299212598425197,
                    "duration": 0.3846154999999989
                },
                {
                    "name": "D#4",
                    "midi": 63,
                    "time": 16.53846650000001,
                    "velocity": 0.6299212598425197,
                    "duration": 0.7692309999999978
                },
                {
                    "name": "B4",
                    "midi": 71,
                    "time": 16.923082000000008,
                    "velocity": 0.6299212598425197,
                    "duration": 0.7692309999999978
                },
                {
                    "name": "G#3",
                    "midi": 56,
                    "time": 17.692313000000006,
                    "velocity": 0.6299212598425197,
                    "duration": 0.3846154999999989
                },
                {
                    "name": "D#4",
                    "midi": 63,
                    "time": 18.076928500000005,
                    "velocity": 0.6299212598425197,
                    "duration": 0.7692309999999978
                },
                {
                    "name": "B4",
                    "midi": 71,
                    "time": 18.461544000000004,
                    "velocity": 0.6299212598425197,
                    "duration": 0.7692309999999978
                },
                {
                    "name": "A4",
                    "midi": 69,
                    "time": 19.230775,
                    "velocity": 0.6299212598425197,
                    "duration": 0.7692310000000013
                },
                {
                    "name": "E4",
                    "midi": 64,
                    "time": 19.230775,
                    "velocity": 0.6299212598425197,
                    "duration": 0.7692310000000013
                },
                {
                    "name": "C#4",
                    "midi": 61,
                    "time": 19.230775,
                    "velocity": 0.6299212598425197,
                    "duration": 0.7692310000000013
                },
                {
                    "name": "G#3",
                    "midi": 56,
                    "time": 20.000006000000003,
                    "velocity": 0.6299212598425197,
                    "duration": 0.3846154999999989
                },
                {
                    "name": "D#4",
                    "midi": 63,
                    "time": 20.3846215,
                    "velocity": 0.6299212598425197,
                    "duration": 0.7692309999999978
                },
                {
                    "name": "B4",
                    "midi": 71,
                    "time": 20.769237,
                    "velocity": 0.6299212598425197,
                    "duration": 0.7692309999999978
                },
                {
                    "name": "G#2",
                    "midi": 44,
                    "time": 21.538467999999998,
                    "velocity": 0.6299212598425197,
                    "duration": 0.3846154999999989
                },
                {
                    "name": "C#4",
                    "midi": 61,
                    "time": 21.923083499999997,
                    "velocity": 0.6299212598425197,
                    "duration": 0.7692309999999978
                },
                {
                    "name": "G#4",
                    "midi": 68,
                    "time": 22.307698999999996,
                    "velocity": 0.6299212598425197,
                    "duration": 0.7692309999999978
                },
                {
                    "name": "G#2",
                    "midi": 44,
                    "time": 23.076929999999994,
                    "velocity": 0.6299212598425197,
                    "duration": 0.3846154999999989
                },
                {
                    "name": "B3",
                    "midi": 59,
                    "time": 23.461545499999993,
                    "velocity": 0.6299212598425197,
                    "duration": 0.7692309999999978
                },
                {
                    "name": "F#4",
                    "midi": 66,
                    "time": 23.84616099999999,
                    "velocity": 0.6299212598425197,
                    "duration": 0.7692309999999978
                },
                {
                    "name": "C#2",
                    "midi": 37,
                    "time": 24.61539199999999,
                    "velocity": 0.6299212598425197,
                    "duration": 0.3846154999999989
                },
                {
                    "name": "G#3",
                    "midi": 56,
                    "time": 25.000007499999988,
                    "velocity": 0.6299212598425197,
                    "duration": 0.7692309999999978
                },
                {
                    "name": "B3",
                    "midi": 59,
                    "time": 25.384622999999987,
                    "velocity": 0.6299212598425197,
                    "duration": 0.7692309999999978
                },
                {
                    "name": "E4",
                    "midi": 64,
                    "time": 25.384622999999987,
                    "velocity": 0.6299212598425197,
                    "duration": 0.7692309999999978
                },
                {
                    "name": "D#3",
                    "midi": 51,
                    "time": 26.153853999999985,
                    "velocity": 0.6299212598425197,
                    "duration": 0.7692310000000013
                },
                {
                    "name": "D#2",
                    "midi": 39,
                    "time": 26.153853999999985,
                    "velocity": 0.6299212598425197,
                    "duration": 0.7692310000000013
                },
                {
                    "name": "G#1",
                    "midi": 32,
                    "time": 26.923084999999986,
                    "velocity": 0.6299212598425197,
                    "duration": 0.3846154999999989
                },
                {
                    "name": "D#3",
                    "midi": 51,
                    "time": 27.307700499999985,
                    "velocity": 0.6299212598425197,
                    "duration": 0.7692309999999978
                },
                {
                    "name": "B3",
                    "midi": 59,
                    "time": 27.692315999999984,
                    "velocity": 0.6299212598425197,
                    "duration": 0.7692309999999978
                },
                {
                    "name": "G#1",
                    "midi": 32,
                    "time": 28.46154699999998,
                    "velocity": 0.6299212598425197,
                    "duration": 0.3846154999999989
                },
                {
                    "name": "D#3",
                    "midi": 51,
                    "time": 28.84616249999998,
                    "velocity": 0.6299212598425197,
                    "duration": 0.7692309999999978
                },
                {
                    "name": "B3",
                    "midi": 59,
                    "time": 29.23077799999998,
                    "velocity": 0.6299212598425197,
                    "duration": 0.7692309999999978
                },
                {
                    "name": "A3",
                    "midi": 57,
                    "time": 30.000008999999977,
                    "velocity": 0.6299212598425197,
                    "duration": 0.7692310000000013
                },
                {
                    "name": "E3",
                    "midi": 52,
                    "time": 30.000008999999977,
                    "velocity": 0.6299212598425197,
                    "duration": 0.7692310000000013
                },
                {
                    "name": "C#3",
                    "midi": 49,
                    "time": 30.000008999999977,
                    "velocity": 0.6299212598425197,
                    "duration": 0.7692310000000013
                },
                {
                    "name": "G#1",
                    "midi": 32,
                    "time": 30.76923999999998,
                    "velocity": 0.6299212598425197,
                    "duration": 0.3846154999999989
                },
                {
                    "name": "D#3",
                    "midi": 51,
                    "time": 31.153855499999977,
                    "velocity": 0.6299212598425197,
                    "duration": 0.7692309999999978
                },
                {
                    "name": "B3",
                    "midi": 59,
                    "time": 31.538470999999976,
                    "velocity": 0.6299212598425197,
                    "duration": 0.7692310000000013
                },
                {
                    "name": "G#1",
                    "midi": 32,
                    "time": 32.30770199999998,
                    "velocity": 0.6299212598425197,
                    "duration": 0.38461550000000244
                },
                {
                    "name": "D#3",
                    "midi": 51,
                    "time": 32.69231749999998,
                    "velocity": 0.6299212598425197,
                    "duration": 0.7692310000000049
                },
                {
                    "name": "B3",
                    "midi": 59,
                    "time": 33.07693299999998,
                    "velocity": 0.6299212598425197,
                    "duration": 0.7692310000000049
                },
                {
                    "name": "A3",
                    "midi": 57,
                    "time": 33.84616399999999,
                    "velocity": 0.6299212598425197,
                    "duration": 0.7692309999999978
                },
                {
                    "name": "E3",
                    "midi": 52,
                    "time": 33.84616399999999,
                    "velocity": 0.6299212598425197,
                    "duration": 0.7692309999999978
                },
                {
                    "name": "C#3",
                    "midi": 49,
                    "time": 33.84616399999999,
                    "velocity": 0.6299212598425197,
                    "duration": 0.7692309999999978
                },
                {
                    "name": "G#1",
                    "midi": 32,
                    "time": 34.615394999999985,
                    "velocity": 0.6299212598425197,
                    "duration": 0.38461550000000244
                },
                {
                    "name": "D#3",
                    "midi": 51,
                    "time": 35.00001049999999,
                    "velocity": 0.6299212598425197,
                    "duration": 0.7692310000000049
                },
                {
                    "name": "B3",
                    "midi": 59,
                    "time": 35.38462599999999,
                    "velocity": 0.6299212598425197,
                    "duration": 0.7692310000000049
                },
                {
                    "name": "G#1",
                    "midi": 32,
                    "time": 36.153856999999995,
                    "velocity": 0.6299212598425197,
                    "duration": 1.1538465000000002
                },
                {
                    "name": "G#2",
                    "midi": 44,
                    "time": 36.5384725,
                    "velocity": 0.6299212598425197,
                    "duration": 0.7692309999999978
                },
                {
                    "name": "G#1",
                    "midi": 32,
                    "time": 37.692319,
                    "velocity": 0.6299212598425197,
                    "duration": 1.1538465000000002
                },
                {
                    "name": "G#2",
                    "midi": 44,
                    "time": 38.0769345,
                    "velocity": 0.6299212598425197,
                    "duration": 0.7692309999999978
                },
                {
                    "name": "G#1",
                    "midi": 32,
                    "time": 39.230781,
                    "velocity": 0.6299212598425197,
                    "duration": 2.3076930000000004
                },
                {
                    "name": "G#2",
                    "midi": 44,
                    "time": 39.6153965,
                    "velocity": 0.6299212598425197,
                    "duration": 1.923077499999998
                },
                {
                    "name": "G#1",
                    "midi": 32,
                    "time": 41.538474,
                    "velocity": 0.6299212598425197,
                    "duration": 1.1538465000000002
                },
                {
                    "name": "G#2",
                    "midi": 44,
                    "time": 41.9230895,
                    "velocity": 0.6299212598425197,
                    "duration": 0.7692309999999978
                }
            ],
            "controlChanges": {},
            "id": 5,
            "name": "Piano (bass)",
            "instrumentNumber": 0,
            "instrument": "acoustic grand piano",
            "instrumentFamily": "piano",
            "channelNumber": 3,
            "isPercussion": false
        }
    ]
}