{
    "header": {
        "PPQ": 480,
        "timeSignature": [
            6,
            8
        ],
        "bpm": 138.00019320027047,
        "name": ""
    },
    "startTime": 0,
    "duration": 344.78212600000836,
    "tracks": [
        {
            "startTime": 0,
            "duration": 0,
            "length": 0,
            "notes": [],
            "controlChanges": {},
            "id": 0
        },
        {
            "startTime": 0,
            "duration": 0,
            "length": 0,
            "notes": [],
            "controlChanges": {},
            "id": 1
        },
        {
            "startTime": 0,
            "duration": 0,
            "length": 0,
            "notes": [],
            "controlChanges": {},
            "id": 2
        },
        {
            "startTime": 0,
            "duration": 0,
            "length": 0,
            "notes": [],
            "controlChanges": {},
            "id": 3
        },
        {
            "startTime": 0,
            "duration": 344.78212600000836,
            "length": 4390,
            "notes": [
                {
                    "name": "D4",
                    "midi": 62,
                    "time": 0,
                    "velocity": 0.8031496062992126,
                    "duration": 0.04981877083333333
                },
                {
                    "name": "D#4",
                    "midi": 63,
                    "time": 0.19021712500000001,
                    "velocity": 0.31496062992125984,
                    "duration": 0.041666608333333355
                },
                {
                    "name": "F#4",
                    "midi": 66,
                    "time": 0.20470985833333336,
                    "velocity": 0.4330708661417323,
                    "duration": 0.07608685000000001
                },
                {
                    "name": "D5",
                    "midi": 74,
                    "time": 0.22101418333333336,
                    "velocity": 0.5354330708661418,
                    "duration": 0.04166660833333333
                },
                {
                    "name": "D4",
                    "midi": 62,
                    "time": 0.434782,
                    "velocity": 0.5669291338582677,
                    "duration": 0.04619558749999997
                },
                {
                    "name": "D#4",
                    "midi": 63,
                    "time": 0.6068832083333333,
                    "velocity": 0.47244094488188976,
                    "duration": 0.03713762916666663
                },
                {
                    "name": "F#4",
                    "midi": 66,
                    "time": 0.6213759416666667,
                    "velocity": 0.6299212598425197,
                    "duration": 0.04528979166666658
                },
                {
                    "name": "D5",
                    "midi": 74,
                    "time": 0.6431150416666667,
                    "velocity": 0.84251968503937,
                    "duration": 0.041666608333333244
                },
                {
                    "name": "D4",
                    "midi": 62,
                    "time": 0.8695639999999999,
                    "velocity": 0.5669291338582677,
                    "duration": 0.06612309583333331
                },
                {
                    "name": "F#4",
                    "midi": 66,
                    "time": 1.0579695333333332,
                    "velocity": 0.47244094488188976,
                    "duration": 0.04528979166666636
                },
                {
                    "name": "A4",
                    "midi": 69,
                    "time": 1.0670274916666664,
                    "velocity": 0.5039370078740157,
                    "duration": 0.07336946249999987
                },
                {
                    "name": "F4",
                    "midi": 65,
                    "time": 1.0869549999999997,
                    "velocity": 0.4881889763779528,
                    "duration": 0.057065137499999974
                },
                {
                    "name": "F5",
                    "midi": 77,
                    "time": 1.1005419374999996,
                    "velocity": 0.4409448818897638,
                    "duration": 0.048912974999999914
                },
                {
                    "name": "D4",
                    "midi": 62,
                    "time": 1.3043459999999996,
                    "velocity": 0.7322834645669292,
                    "duration": 0.0615941166666667
                },
                {
                    "name": "D#4",
                    "midi": 63,
                    "time": 1.5027152874999996,
                    "velocity": 0.3937007874015748,
                    "duration": 0.04257240416666663
                },
                {
                    "name": "F#4",
                    "midi": 66,
                    "time": 1.509055858333333,
                    "velocity": 0.4881889763779528,
                    "duration": 0.06431150416666664
                },
                {
                    "name": "D5",
                    "midi": 74,
                    "time": 1.5344181416666662,
                    "velocity": 0.5669291338582677,
                    "duration": 0.04528979166666658
                },
                {
                    "name": "D4",
                    "midi": 62,
                    "time": 1.7391279999999996,
                    "velocity": 0.5354330708661418,
                    "duration": 0.05163036250000008
                },
                {
                    "name": "A3",
                    "midi": 57,
                    "time": 1.9565189999999997,
                    "velocity": 0.7322834645669292,
                    "duration": 0.061594116666666476
                },
                {
                    "name": "C#4",
                    "midi": 61,
                    "time": 2.159417266666666,
                    "velocity": 0.47244094488188976,
                    "duration": 0.040760812499999854
                },
                {
                    "name": "E4",
                    "midi": 64,
                    "time": 2.1684752249999995,
                    "velocity": 0.6299212598425197,
                    "duration": 0.05887672916666631
                },
                {
                    "name": "C4",
                    "midi": 60,
                    "time": 2.1739099999999993,
                    "velocity": 0.4409448818897638,
                    "duration": 0.0371376291666663
                },
                {
                    "name": "C5",
                    "midi": 72,
                    "time": 2.1802505708333326,
                    "velocity": 0.6692913385826772,
                    "duration": 0.039855016666666465
                },
                {
                    "name": "G#3",
                    "midi": 56,
                    "time": 2.3686561041666656,
                    "velocity": 0.3858267716535433,
                    "duration": 0.05525354583333275
                },
                {
                    "name": "B3",
                    "midi": 59,
                    "time": 2.380431449999999,
                    "velocity": 0.5984251968503937,
                    "duration": 0.0769926458333332
                },
                {
                    "name": "G3",
                    "midi": 55,
                    "time": 2.3913009999999986,
                    "velocity": 0.4645669291338583,
                    "duration": 0.041666608333333244
                },
                {
                    "name": "G4",
                    "midi": 67,
                    "time": 2.4030763458333317,
                    "velocity": 0.7007874015748031,
                    "duration": 0.04438399583333341
                },
                {
                    "name": "D4",
                    "midi": 62,
                    "time": 2.6086919999999987,
                    "velocity": 0.8031496062992126,
                    "duration": 0.049818770833333303
                },
                {
                    "name": "D#4",
                    "midi": 63,
                    "time": 2.798909124999999,
                    "velocity": 0.31496062992125984,
                    "duration": 0.041666608333333244
                },
                {
                    "name": "F#4",
                    "midi": 66,
                    "time": 2.8134018583333322,
                    "velocity": 0.4330708661417323,
                    "duration": 0.07608684999999982
                },
                {
                    "name": "D5",
                    "midi": 74,
                    "time": 2.8297061833333323,
                    "velocity": 0.5354330708661418,
                    "duration": 0.041666608333333244
                },
                {
                    "name": "D4",
                    "midi": 62,
                    "time": 3.043473999999999,
                    "velocity": 0.5669291338582677,
                    "duration": 0.04619558750000019
                },
                {
                    "name": "D#4",
                    "midi": 63,
                    "time": 3.215575208333332,
                    "velocity": 0.47244094488188976,
                    "duration": 0.03713762916666674
                },
                {
                    "name": "F#4",
                    "midi": 66,
                    "time": 3.2300679416666656,
                    "velocity": 0.6299212598425197,
                    "duration": 0.0452897916666668
                },
                {
                    "name": "D5",
                    "midi": 74,
                    "time": 3.2518070416666656,
                    "velocity": 0.84251968503937,
                    "duration": 0.041666608333333244
                },
                {
                    "name": "D4",
                    "midi": 62,
                    "time": 3.4782559999999987,
                    "velocity": 0.5669291338582677,
                    "duration": 0.06612309583333342
                },
                {
                    "name": "F#4",
                    "midi": 66,
                    "time": 3.666661533333332,
                    "velocity": 0.47244094488188976,
                    "duration": 0.0452897916666668
                },
                {
                    "name": "A4",
                    "midi": 69,
                    "time": 3.6757194916666656,
                    "velocity": 0.5039370078740157,
                    "duration": 0.0733694625000001
                },
                {
                    "name": "F4",
                    "midi": 65,
                    "time": 3.695646999999999,
                    "velocity": 0.4881889763779528,
                    "duration": 0.057065137499999974
                },
                {
                    "name": "F5",
                    "midi": 77,
                    "time": 3.7092339374999987,
                    "velocity": 0.4409448818897638,
                    "duration": 0.048912974999999914
                },
                {
                    "name": "D4",
                    "midi": 62,
                    "time": 3.9130379999999985,
                    "velocity": 0.7322834645669292,
                    "duration": 0.061594116666666476
                },
                {
                    "name": "D#4",
                    "midi": 63,
                    "time": 4.111407287499998,
                    "velocity": 0.3937007874015748,
                    "duration": 0.04257240416666619
                },
                {
                    "name": "F#4",
                    "midi": 66,
                    "time": 4.117747858333331,
                    "velocity": 0.4881889763779528,
                    "duration": 0.06431150416666664
                },
                {
                    "name": "D5",
                    "midi": 74,
                    "time": 4.143110141666664,
                    "velocity": 0.5669291338582677,
                    "duration": 0.0452897916666668
                },
                {
                    "name": "D4",
                    "midi": 62,
                    "time": 4.347819999999998,
                    "velocity": 0.5354330708661418,
                    "duration": 0.05163036250000008
                },
                {
                    "name": "A3",
                    "midi": 57,
                    "time": 4.565210999999998,
                    "velocity": 0.7322834645669292,
                    "duration": 0.06159411666666692
                },
                {
                    "name": "C#4",
                    "midi": 61,
                    "time": 4.768109266666665,
                    "velocity": 0.47244094488188976,
                    "duration": 0.0407608125000003
                },
                {
                    "name": "E4",
                    "midi": 64,
                    "time": 4.777167224999998,
                    "velocity": 0.6299212598425197,
                    "duration": 0.05887672916666631
                },
                {
                    "name": "C4",
                    "midi": 60,
                    "time": 4.782601999999998,
                    "velocity": 0.4409448818897638,
                    "duration": 0.03713762916666674
                },
                {
                    "name": "C5",
                    "midi": 72,
                    "time": 4.788942570833331,
                    "velocity": 0.6692913385826772,
                    "duration": 0.039855016666666465
                },
                {
                    "name": "G#3",
                    "midi": 56,
                    "time": 4.977348104166664,
                    "velocity": 0.3858267716535433,
                    "duration": 0.05525354583333364
                },
                {
                    "name": "B3",
                    "midi": 59,
                    "time": 4.9891234499999975,
                    "velocity": 0.5984251968503937,
                    "duration": 0.0769926458333332
                },
                {
                    "name": "G3",
                    "midi": 55,
                    "time": 4.999992999999997,
                    "velocity": 0.4645669291338583,
                    "duration": 0.041666608333333244
                },
                {
                    "name": "G4",
                    "midi": 67,
                    "time": 5.011768345833331,
                    "velocity": 0.7007874015748031,
                    "duration": 0.04438399583333297
                },
                {
                    "name": "D4",
                    "midi": 62,
                    "time": 5.217383999999997,
                    "velocity": 0.7716535433070866,
                    "duration": 0.05797093333333336
                },
                {
                    "name": "D#4",
                    "midi": 63,
                    "time": 5.395825779166664,
                    "velocity": 0.4881889763779528,
                    "duration": 0.051630362499999194
                },
                {
                    "name": "F#4",
                    "midi": 66,
                    "time": 5.416659083333331,
                    "velocity": 0.47244094488188976,
                    "duration": 0.04800717916666564
                },
                {
                    "name": "D5",
                    "midi": 74,
                    "time": 5.43839818333333,
                    "velocity": 0.6299212598425197,
                    "duration": 0.03623183333333291
                },
                {
                    "name": "D4",
                    "midi": 62,
                    "time": 5.652165999999997,
                    "velocity": 0.5984251968503937,
                    "duration": 0.04710138333333358
                },
                {
                    "name": "D#4",
                    "midi": 63,
                    "time": 5.826984595833331,
                    "velocity": 0.4881889763779528,
                    "duration": 0.036231833333333796
                },
                {
                    "name": "F#4",
                    "midi": 66,
                    "time": 5.843288920833331,
                    "velocity": 0.4881889763779528,
                    "duration": 0.03894922083333352
                },
                {
                    "name": "D5",
                    "midi": 74,
                    "time": 5.865933816666664,
                    "velocity": 0.6692913385826772,
                    "duration": 0.06884048333333315
                },
                {
                    "name": "D4",
                    "midi": 62,
                    "time": 6.086947999999997,
                    "velocity": 0.5669291338582677,
                    "duration": 0.05706513750000042
                },
                {
                    "name": "D#4",
                    "midi": 63,
                    "time": 6.278070920833331,
                    "velocity": 0.4094488188976378,
                    "duration": 0.044383995833333856
                },
                {
                    "name": "F#4",
                    "midi": 66,
                    "time": 6.302527408333331,
                    "velocity": 0.4094488188976378,
                    "duration": 0.04891297500000036
                },
                {
                    "name": "D5",
                    "midi": 74,
                    "time": 6.3161143458333315,
                    "velocity": 0.5984251968503937,
                    "duration": 0.05253615833333303
                },
                {
                    "name": "A4",
                    "midi": 69,
                    "time": 6.521729999999998,
                    "velocity": 0.7716535433070866,
                    "duration": 0.2173910000000001
                },
                {
                    "name": "A4",
                    "midi": 69,
                    "time": 6.739120999999998,
                    "velocity": 0.4645669291338583,
                    "duration": 0.0724636666666667
                },
                {
                    "name": "G4",
                    "midi": 67,
                    "time": 6.739120999999998,
                    "velocity": 0.4409448818897638,
                    "duration": 0.0724636666666667
                },
                {
                    "name": "C#5",
                    "midi": 73,
                    "time": 6.811584666666665,
                    "velocity": 0.3779527559055118,
                    "duration": 0.0724636666666667
                },
                {
                    "name": "D#5",
                    "midi": 75,
                    "time": 6.811584666666665,
                    "velocity": 0.47244094488188976,
                    "duration": 0.0724636666666667
                },
                {
                    "name": "A5",
                    "midi": 81,
                    "time": 6.811584666666665,
                    "velocity": 0.5669291338582677,
                    "duration": 0.0724636666666667
                },
                {
                    "name": "A4",
                    "midi": 69,
                    "time": 6.8840483333333315,
                    "velocity": 0.3937007874015748,
                    "duration": 0.0724636666666667
                },
                {
                    "name": "G4",
                    "midi": 67,
                    "time": 6.8840483333333315,
                    "velocity": 0.47244094488188976,
                    "duration": 0.0724636666666667
                },
                {
                    "name": "F4",
                    "midi": 65,
                    "time": 6.956511999999998,
                    "velocity": 0.4881889763779528,
                    "duration": 0.2173910000000001
                },
                {
                    "name": "D#4",
                    "midi": 63,
                    "time": 7.173902999999998,
                    "velocity": 0.47244094488188976,
                    "duration": 0.2173910000000001
                },
                {
                    "name": "D4",
                    "midi": 62,
                    "time": 7.357779554166665,
                    "velocity": 0.31496062992125984,
                    "duration": 0.056159341666666585
                },
                {
                    "name": "F#4",
                    "midi": 66,
                    "time": 7.372272287499999,
                    "velocity": 0.4566929133858268,
                    "duration": 0.05887672916666631
                },
                {
                    "name": "G#4",
                    "midi": 68,
                    "time": 7.3822360416666655,
                    "velocity": 0.3937007874015748,
                    "duration": 0.05253615833333303
                },
                {
                    "name": "D#5",
                    "midi": 75,
                    "time": 7.3912939999999985,
                    "velocity": 0.33070866141732286,
                    "duration": 0.05344195416666686
                },
                {
                    "name": "C4",
                    "midi": 60,
                    "time": 7.608684999999999,
                    "velocity": 0.3543307086614173,
                    "duration": 0.2173910000000001
                },
                {
                    "name": "A2",
                    "midi": 45,
                    "time": 7.826075999999999,
                    "velocity": 0.5039370078740157,
                    "duration": 0.21739099999999922
                },
                {
                    "name": "D2",
                    "midi": 38,
                    "time": 7.826075999999999,
                    "velocity": 0.6692913385826772,
                    "duration": 0.21739099999999922
                },
                {
                    "name": "A3",
                    "midi": 57,
                    "time": 8.043466999999998,
                    "velocity": 0.36220472440944884,
                    "duration": 0.21739099999999922
                },
                {
                    "name": "D3",
                    "midi": 50,
                    "time": 8.043466999999998,
                    "velocity": 0.2047244094488189,
                    "duration": 0.21739099999999922
                },
                {
                    "name": "D3",
                    "midi": 50,
                    "time": 8.260857999999997,
                    "velocity": 0.3858267716535433,
                    "duration": 0.21739099999999922
                },
                {
                    "name": "A3",
                    "midi": 57,
                    "time": 8.260857999999997,
                    "velocity": 0.3937007874015748,
                    "duration": 0.21739099999999922
                },
                {
                    "name": "D4",
                    "midi": 62,
                    "time": 8.478248999999996,
                    "velocity": 0.47244094488188976,
                    "duration": 0.21739099999999922
                },
                {
                    "name": "A4",
                    "midi": 69,
                    "time": 8.478248999999996,
                    "velocity": 0.4409448818897638,
                    "duration": 0.21739099999999922
                },
                {
                    "name": "A4",
                    "midi": 69,
                    "time": 8.695639999999996,
                    "velocity": 0.6299212598425197,
                    "duration": 0.21739099999999922
                },
                {
                    "name": "D4",
                    "midi": 62,
                    "time": 8.695639999999996,
                    "velocity": 0.5354330708661418,
                    "duration": 0.21739099999999922
                },
                {
                    "name": "A5",
                    "midi": 81,
                    "time": 8.913030999999995,
                    "velocity": 0.6299212598425197,
                    "duration": 0.21739099999999922
                },
                {
                    "name": "A4",
                    "midi": 69,
                    "time": 8.913030999999995,
                    "velocity": 0.44881889763779526,
                    "duration": 0.21739099999999922
                },
                {
                    "name": "D5",
                    "midi": 74,
                    "time": 8.913030999999995,
                    "velocity": 0.8031496062992126,
                    "duration": 0.21739099999999922
                },
                {
                    "name": "A4",
                    "midi": 69,
                    "time": 9.130421999999994,
                    "velocity": 0.7716535433070866,
                    "duration": 0.21739099999999922
                },
                {
                    "name": "A4",
                    "midi": 69,
                    "time": 9.347812999999993,
                    "velocity": 0.4645669291338583,
                    "duration": 0.07246366666666582
                },
                {
                    "name": "G4",
                    "midi": 67,
                    "time": 9.347812999999993,
                    "velocity": 0.4409448818897638,
                    "duration": 0.07246366666666582
                },
                {
                    "name": "C#5",
                    "midi": 73,
                    "time": 9.420276666666659,
                    "velocity": 0.3779527559055118,
                    "duration": 0.07246366666666582
                },
                {
                    "name": "D#5",
                    "midi": 75,
                    "time": 9.420276666666659,
                    "velocity": 0.47244094488188976,
                    "duration": 0.07246366666666582
                },
                {
                    "name": "A5",
                    "midi": 81,
                    "time": 9.420276666666659,
                    "velocity": 0.5669291338582677,
                    "duration": 0.07246366666666582
                },
                {
                    "name": "A4",
                    "midi": 69,
                    "time": 9.492740333333325,
                    "velocity": 0.3937007874015748,
                    "duration": 0.07246366666666582
                },
                {
                    "name": "G4",
                    "midi": 67,
                    "time": 9.492740333333325,
                    "velocity": 0.47244094488188976,
                    "duration": 0.07246366666666582
                },
                {
                    "name": "F4",
                    "midi": 65,
                    "time": 9.56520399999999,
                    "velocity": 0.4881889763779528,
                    "duration": 0.21739099999999922
                },
                {
                    "name": "D#4",
                    "midi": 63,
                    "time": 9.78259499999999,
                    "velocity": 0.47244094488188976,
                    "duration": 0.21739099999999745
                },
                {
                    "name": "D4",
                    "midi": 62,
                    "time": 9.966471554166656,
                    "velocity": 0.31496062992125984,
                    "duration": 0.05615934166666392
                },
                {
                    "name": "F#4",
                    "midi": 66,
                    "time": 9.980964287499988,
                    "velocity": 0.4566929133858268,
                    "duration": 0.05887672916666453
                },
                {
                    "name": "G#4",
                    "midi": 68,
                    "time": 9.990928041666654,
                    "velocity": 0.3937007874015748,
                    "duration": 0.05253615833333214
                },
                {
                    "name": "D#5",
                    "midi": 75,
                    "time": 9.999985999999987,
                    "velocity": 0.33070866141732286,
                    "duration": 0.053441954166665084
                },
                {
                    "name": "C4",
                    "midi": 60,
                    "time": 10.217376999999987,
                    "velocity": 0.3543307086614173,
                    "duration": 0.21739099999999922
                },
                {
                    "name": "A2",
                    "midi": 45,
                    "time": 10.434767999999986,
                    "velocity": 0.5039370078740157,
                    "duration": 0.21739099999999922
                },
                {
                    "name": "D2",
                    "midi": 38,
                    "time": 10.434767999999986,
                    "velocity": 0.6692913385826772,
                    "duration": 0.21739099999999922
                },
                {
                    "name": "A3",
                    "midi": 57,
                    "time": 10.652158999999985,
                    "velocity": 0.36220472440944884,
                    "duration": 0.21739099999999922
                },
                {
                    "name": "D3",
                    "midi": 50,
                    "time": 10.652158999999985,
                    "velocity": 0.2047244094488189,
                    "duration": 0.21739099999999922
                },
                {
                    "name": "D3",
                    "midi": 50,
                    "time": 10.869549999999984,
                    "velocity": 0.3858267716535433,
                    "duration": 0.21739099999999922
                },
                {
                    "name": "A3",
                    "midi": 57,
                    "time": 10.869549999999984,
                    "velocity": 0.3937007874015748,
                    "duration": 0.21739099999999922
                },
                {
                    "name": "D4",
                    "midi": 62,
                    "time": 11.086940999999984,
                    "velocity": 0.47244094488188976,
                    "duration": 0.21739099999999922
                },
                {
                    "name": "A4",
                    "midi": 69,
                    "time": 11.086940999999984,
                    "velocity": 0.4409448818897638,
                    "duration": 0.21739099999999922
                },
                {
                    "name": "A4",
                    "midi": 69,
                    "time": 11.304331999999983,
                    "velocity": 0.6299212598425197,
                    "duration": 0.21739099999999922
                },
                {
                    "name": "D4",
                    "midi": 62,
                    "time": 11.304331999999983,
                    "velocity": 0.5354330708661418,
                    "duration": 0.21739099999999922
                },
                {
                    "name": "A5",
                    "midi": 81,
                    "time": 11.521722999999982,
                    "velocity": 0.6299212598425197,
                    "duration": 0.21739099999999922
                },
                {
                    "name": "A4",
                    "midi": 69,
                    "time": 11.521722999999982,
                    "velocity": 0.44881889763779526,
                    "duration": 0.21739099999999922
                },
                {
                    "name": "D5",
                    "midi": 74,
                    "time": 11.521722999999982,
                    "velocity": 0.8031496062992126,
                    "duration": 0.21739099999999922
                },
                {
                    "name": "D2",
                    "midi": 38,
                    "time": 11.739113999999981,
                    "velocity": 0.5354330708661418,
                    "duration": 0.21739099999999922
                },
                {
                    "name": "A2",
                    "midi": 45,
                    "time": 11.739113999999981,
                    "velocity": 0.6692913385826772,
                    "duration": 0.21739099999999922
                },
                {
                    "name": "D3",
                    "midi": 50,
                    "time": 11.95650499999998,
                    "velocity": 0.5669291338582677,
                    "duration": 0.21739099999999922
                },
                {
                    "name": "A3",
                    "midi": 57,
                    "time": 11.95650499999998,
                    "velocity": 0.5669291338582677,
                    "duration": 0.21739099999999922
                },
                {
                    "name": "D2",
                    "midi": 38,
                    "time": 12.17389599999998,
                    "velocity": 0.3937007874015748,
                    "duration": 0.21739099999999922
                },
                {
                    "name": "A2",
                    "midi": 45,
                    "time": 12.17389599999998,
                    "velocity": 0.44881889763779526,
                    "duration": 0.21739099999999922
                },
                {
                    "name": "D3",
                    "midi": 50,
                    "time": 12.391286999999979,
                    "velocity": 0.3858267716535433,
                    "duration": 0.21739099999999922
                },
                {
                    "name": "A3",
                    "midi": 57,
                    "time": 12.391286999999979,
                    "velocity": 0.4409448818897638,
                    "duration": 0.21739099999999922
                },
                {
                    "name": "A2",
                    "midi": 45,
                    "time": 12.608677999999978,
                    "velocity": 0.2283464566929134,
                    "duration": 0.21739099999999922
                },
                {
                    "name": "D2",
                    "midi": 38,
                    "time": 12.608677999999978,
                    "velocity": 0.18110236220472442,
                    "duration": 0.21739099999999922
                },
                {
                    "name": "D3",
                    "midi": 50,
                    "time": 12.826068999999977,
                    "velocity": 0.2047244094488189,
                    "duration": 0.21739099999999922
                },
                {
                    "name": "A3",
                    "midi": 57,
                    "time": 12.826068999999977,
                    "velocity": 0.29133858267716534,
                    "duration": 0.21739099999999922
                },
                {
                    "name": "A2",
                    "midi": 45,
                    "time": 13.043459999999977,
                    "velocity": 0.1889763779527559,
                    "duration": 0.21739099999999922
                },
                {
                    "name": "D2",
                    "midi": 38,
                    "time": 13.043459999999977,
                    "velocity": 0.23622047244094488,
                    "duration": 0.21739099999999922
                },
                {
                    "name": "D3",
                    "midi": 50,
                    "time": 13.260850999999976,
                    "velocity": 0.14960629921259844,
                    "duration": 0.21739099999999922
                },
                {
                    "name": "A3",
                    "midi": 57,
                    "time": 13.260850999999976,
                    "velocity": 0.2283464566929134,
                    "duration": 0.21739099999999922
                },
                {
                    "name": "A2",
                    "midi": 45,
                    "time": 13.478241999999975,
                    "velocity": 0.23622047244094488,
                    "duration": 0.21739099999999922
                },
                {
                    "name": "D2",
                    "midi": 38,
                    "time": 13.478241999999975,
                    "velocity": 0.2125984251968504,
                    "duration": 0.21739099999999922
                },
                {
                    "name": "A3",
                    "midi": 57,
                    "time": 13.695632999999974,
                    "velocity": 0.07874015748031496,
                    "duration": 0.21739099999999922
                },
                {
                    "name": "D3",
                    "midi": 50,
                    "time": 13.695632999999974,
                    "velocity": 0.11023622047244094,
                    "duration": 0.21739099999999922
                },
                {
                    "name": "A2",
                    "midi": 45,
                    "time": 13.913023999999973,
                    "velocity": 0.1732283464566929,
                    "duration": 0.21739099999999745
                },
                {
                    "name": "D2",
                    "midi": 38,
                    "time": 13.913023999999973,
                    "velocity": 0.2204724409448819,
                    "duration": 0.21739099999999745
                },
                {
                    "name": "D4",
                    "midi": 62,
                    "time": 13.913023999999973,
                    "velocity": 0.31496062992125984,
                    "duration": 0.07246366666666582
                },
                {
                    "name": "A4",
                    "midi": 69,
                    "time": 13.98548766666664,
                    "velocity": 0.3858267716535433,
                    "duration": 0.07246366666666582
                },
                {
                    "name": "D5",
                    "midi": 74,
                    "time": 14.057951333333305,
                    "velocity": 0.36220472440944884,
                    "duration": 0.07246366666666582
                },
                {
                    "name": "D3",
                    "midi": 50,
                    "time": 14.13041499999997,
                    "velocity": 0.2992125984251969,
                    "duration": 0.21739099999999745
                },
                {
                    "name": "D5",
                    "midi": 74,
                    "time": 14.13041499999997,
                    "velocity": 0.30708661417322836,
                    "duration": 0.07246366666666582
                },
                {
                    "name": "D#5",
                    "midi": 75,
                    "time": 14.202878666666637,
                    "velocity": 0.16535433070866143,
                    "duration": 0.36231833333333086
                },
                {
                    "name": "A#5",
                    "midi": 82,
                    "time": 14.275342333333302,
                    "velocity": 0.33858267716535434,
                    "duration": 0.28985466666666504
                },
                {
                    "name": "G3",
                    "midi": 55,
                    "time": 14.347805999999968,
                    "velocity": 0.15748031496062992,
                    "duration": 0.21739099999999922
                },
                {
                    "name": "C3",
                    "midi": 48,
                    "time": 14.347805999999968,
                    "velocity": 0.18110236220472442,
                    "duration": 0.21739099999999922
                },
                {
                    "name": "D6",
                    "midi": 86,
                    "time": 14.347805999999968,
                    "velocity": 0.3779527559055118,
                    "duration": 0.21739099999999922
                },
                {
                    "name": "C6",
                    "midi": 84,
                    "time": 14.565196999999968,
                    "velocity": 0.3937007874015748,
                    "duration": 0.07246366666666582
                },
                {
                    "name": "D6",
                    "midi": 86,
                    "time": 14.637660666666633,
                    "velocity": 0.41732283464566927,
                    "duration": 0.07246366666666582
                },
                {
                    "name": "C6",
                    "midi": 84,
                    "time": 14.7101243333333,
                    "velocity": 0.3937007874015748,
                    "duration": 0.07246366666666404
                },
                {
                    "name": "D#4",
                    "midi": 63,
                    "time": 14.728240249999965,
                    "velocity": 0.2677165354330709,
                    "duration": 0.04800717916666564
                },
                {
                    "name": "G4",
                    "midi": 67,
                    "time": 14.749979349999965,
                    "velocity": 0.33070866141732286,
                    "duration": 0.061594116666665144
                },
                {
                    "name": "D5",
                    "midi": 74,
                    "time": 14.777153224999964,
                    "velocity": 0.4566929133858268,
                    "duration": 0.04710138333333269
                },
                {
                    "name": "A#5",
                    "midi": 82,
                    "time": 14.782587999999963,
                    "velocity": 0.29133858267716534,
                    "duration": 0.217391000000001
                },
                {
                    "name": "A#4",
                    "midi": 70,
                    "time": 14.96102977916663,
                    "velocity": 0.31496062992125984,
                    "duration": 0.05525354583333453
                },
                {
                    "name": "D#5",
                    "midi": 75,
                    "time": 14.972805124999963,
                    "velocity": 0.30708661417322836,
                    "duration": 0.08242742083333354
                },
                {
                    "name": "A5",
                    "midi": 81,
                    "time": 14.999978999999964,
                    "velocity": 0.3779527559055118,
                    "duration": 0.05072456666666625
                },
                {
                    "name": "A5",
                    "midi": 81,
                    "time": 15.013565937499964,
                    "velocity": 0.5354330708661418,
                    "duration": 0.0951085625000001
                },
                {
                    "name": "F#5",
                    "midi": 78,
                    "time": 15.217369999999963,
                    "velocity": 0.3228346456692913,
                    "duration": 0.10869549999999961
                },
                {
                    "name": "C4",
                    "midi": 60,
                    "time": 15.434760999999963,
                    "velocity": 0.16535433070866143,
                    "duration": 0.21739099999999922
                },
                {
                    "name": "G4",
                    "midi": 67,
                    "time": 15.434760999999963,
                    "velocity": 0.4015748031496063,
                    "duration": 0.21739099999999922
                },
                {
                    "name": "D#5",
                    "midi": 75,
                    "time": 15.434760999999963,
                    "velocity": 0.2992125984251969,
                    "duration": 0.10869549999999961
                },
                {
                    "name": "G5",
                    "midi": 79,
                    "time": 15.434760999999963,
                    "velocity": 0.2677165354330709,
                    "duration": 0.10869549999999961
                },
                {
                    "name": "A#4",
                    "midi": 70,
                    "time": 15.434760999999963,
                    "velocity": 0.2047244094488189,
                    "duration": 0.10869549999999961
                },
                {
                    "name": "D#5",
                    "midi": 75,
                    "time": 15.597804249999962,
                    "velocity": 0.31496062992125984,
                    "duration": 0.28985466666666504
                },
                {
                    "name": "D#5",
                    "midi": 75,
                    "time": 15.634036083333296,
                    "velocity": 0.31496062992125984,
                    "duration": 0.25362283333333124
                },
                {
                    "name": "G3",
                    "midi": 55,
                    "time": 15.652151999999962,
                    "velocity": 0.15748031496062992,
                    "duration": 0.21739099999999922
                },
                {
                    "name": "C3",
                    "midi": 48,
                    "time": 15.652151999999962,
                    "velocity": 0.18110236220472442,
                    "duration": 0.21739099999999922
                },
                {
                    "name": "D6",
                    "midi": 86,
                    "time": 15.652151999999962,
                    "velocity": 0.3779527559055118,
                    "duration": 0.21739099999999922
                },
                {
                    "name": "C6",
                    "midi": 84,
                    "time": 15.869542999999961,
                    "velocity": 0.3937007874015748,
                    "duration": 0.07246366666666582
                },
                {
                    "name": "D6",
                    "midi": 86,
                    "time": 15.942006666666627,
                    "velocity": 0.41732283464566927,
                    "duration": 0.07246366666666582
                },
                {
                    "name": "C6",
                    "midi": 84,
                    "time": 16.014470333333293,
                    "velocity": 0.3937007874015748,
                    "duration": 0.07246366666666759
                },
                {
                    "name": "D#4",
                    "midi": 63,
                    "time": 16.03258624999996,
                    "velocity": 0.2677165354330709,
                    "duration": 0.04800717916666741
                },
                {
                    "name": "G4",
                    "midi": 67,
                    "time": 16.05432534999996,
                    "velocity": 0.33070866141732286,
                    "duration": 0.061594116666665144
                },
                {
                    "name": "D5",
                    "midi": 74,
                    "time": 16.08149922499996,
                    "velocity": 0.4566929133858268,
                    "duration": 0.04710138333333447
                },
                {
                    "name": "A#5",
                    "midi": 82,
                    "time": 16.08693399999996,
                    "velocity": 0.29133858267716534,
                    "duration": 0.21739099999999567
                },
                {
                    "name": "A#4",
                    "midi": 70,
                    "time": 16.265375779166625,
                    "velocity": 0.31496062992125984,
                    "duration": 0.055253545833330975
                },
                {
                    "name": "D#5",
                    "midi": 75,
                    "time": 16.277151124999957,
                    "velocity": 0.30708661417322836,
                    "duration": 0.08242742083333354
                },
                {
                    "name": "A5",
                    "midi": 81,
                    "time": 16.304324999999956,
                    "velocity": 0.3779527559055118,
                    "duration": 0.05072456666666625
                },
                {
                    "name": "A5",
                    "midi": 81,
                    "time": 16.317911937499957,
                    "velocity": 0.5354330708661418,
                    "duration": 0.09510856249999833
                },
                {
                    "name": "F#5",
                    "midi": 78,
                    "time": 16.521715999999955,
                    "velocity": 0.3228346456692913,
                    "duration": 0.10869549999999961
                },
                {
                    "name": "C4",
                    "midi": 60,
                    "time": 16.739106999999954,
                    "velocity": 0.16535433070866143,
                    "duration": 0.21739099999999922
                },
                {
                    "name": "G4",
                    "midi": 67,
                    "time": 16.739106999999954,
                    "velocity": 0.4015748031496063,
                    "duration": 0.21739099999999922
                },
                {
                    "name": "D#5",
                    "midi": 75,
                    "time": 16.739106999999954,
                    "velocity": 0.2992125984251969,
                    "duration": 0.10869549999999961
                },
                {
                    "name": "G5",
                    "midi": 79,
                    "time": 16.739106999999954,
                    "velocity": 0.2677165354330709,
                    "duration": 0.10869549999999961
                },
                {
                    "name": "A#4",
                    "midi": 70,
                    "time": 16.739106999999954,
                    "velocity": 0.2047244094488189,
                    "duration": 0.10869549999999961
                },
                {
                    "name": "A#5",
                    "midi": 82,
                    "time": 16.956497999999954,
                    "velocity": 0.47244094488188976,
                    "duration": 0.0407608125000003
                },
                {
                    "name": "G2",
                    "midi": 43,
                    "time": 16.95830959166662,
                    "velocity": 0.31496062992125984,
                    "duration": 1.2970996333333247
                },
                {
                    "name": "D3",
                    "midi": 50,
                    "time": 16.95830959166662,
                    "velocity": 0.36220472440944884,
                    "duration": 1.2998170208333235
                },
                {
                    "name": "A5",
                    "midi": 81,
                    "time": 17.171171612499954,
                    "velocity": 0.4330708661417323,
                    "duration": 0.06249991249999809
                },
                {
                    "name": "A4",
                    "midi": 69,
                    "time": 17.173888999999953,
                    "velocity": 0.2992125984251969,
                    "duration": 0.10869549999999961
                },
                {
                    "name": "F4",
                    "midi": 65,
                    "time": 17.173888999999953,
                    "velocity": 0.3937007874015748,
                    "duration": 0.10869549999999961
                },
                {
                    "name": "A#3",
                    "midi": 58,
                    "time": 17.173888999999953,
                    "velocity": 0.25984251968503935,
                    "duration": 0.10869549999999961
                },
                {
                    "name": "A#5",
                    "midi": 82,
                    "time": 17.240012095833286,
                    "velocity": 0.4881889763779528,
                    "duration": 0.06340570833333103
                },
                {
                    "name": "A5",
                    "midi": 81,
                    "time": 17.29254825416662,
                    "velocity": 0.5669291338582677,
                    "duration": 0.07246366666666404
                },
                {
                    "name": "F5",
                    "midi": 77,
                    "time": 17.374069879166615,
                    "velocity": 0.6299212598425197,
                    "duration": 1.0833318166666608
                },
                {
                    "name": "A#4",
                    "midi": 70,
                    "time": 17.39127999999995,
                    "velocity": 0.4881889763779528,
                    "duration": 0.10869549999999961
                },
                {
                    "name": "A4",
                    "midi": 69,
                    "time": 17.608670999999948,
                    "velocity": 0.29133858267716534,
                    "duration": 0.10869549999999961
                },
                {
                    "name": "F4",
                    "midi": 65,
                    "time": 17.608670999999948,
                    "velocity": 0.4645669291338583,
                    "duration": 0.10869549999999961
                },
                {
                    "name": "A#3",
                    "midi": 58,
                    "time": 17.608670999999948,
                    "velocity": 0.2204724409448819,
                    "duration": 0.10869549999999961
                },
                {
                    "name": "A#4",
                    "midi": 70,
                    "time": 17.826061999999947,
                    "velocity": 0.3700787401574803,
                    "duration": 0.10869549999999961
                },
                {
                    "name": "A4",
                    "midi": 69,
                    "time": 18.043452999999946,
                    "velocity": 0.29133858267716534,
                    "duration": 0.10869549999999961
                },
                {
                    "name": "F4",
                    "midi": 65,
                    "time": 18.043452999999946,
                    "velocity": 0.2992125984251969,
                    "duration": 0.10869549999999961
                },
                {
                    "name": "A#3",
                    "midi": 58,
                    "time": 18.043452999999946,
                    "velocity": 0.13385826771653545,
                    "duration": 0.10869549999999961
                },
                {
                    "name": "A#4",
                    "midi": 70,
                    "time": 18.260843999999942,
                    "velocity": 0.2440944881889764,
                    "duration": 0.10869549999999961
                },
                {
                    "name": "A4",
                    "midi": 69,
                    "time": 18.478234999999945,
                    "velocity": 0.25196850393700787,
                    "duration": 0.10869549999999961
                },
                {
                    "name": "F4",
                    "midi": 65,
                    "time": 18.478234999999945,
                    "velocity": 0.3543307086614173,
                    "duration": 0.10869549999999961
                },
                {
                    "name": "A#3",
                    "midi": 58,
                    "time": 18.478234999999945,
                    "velocity": 0.2440944881889764,
                    "duration": 0.10869549999999961
                },
                {
                    "name": "D5",
                    "midi": 74,
                    "time": 18.486387162499945,
                    "velocity": 0.4645669291338583,
                    "duration": 1.0298898624999957
                },
                {
                    "name": "A#4",
                    "midi": 70,
                    "time": 18.695625999999944,
                    "velocity": 0.2440944881889764,
                    "duration": 0.10869549999999961
                },
                {
                    "name": "D4",
                    "midi": 62,
                    "time": 18.695625999999944,
                    "velocity": 0.3228346456692913,
                    "duration": 0.10869549999999961
                },
                {
                    "name": "A4",
                    "midi": 69,
                    "time": 18.913016999999943,
                    "velocity": 0.1968503937007874,
                    "duration": 0.10869549999999961
                },
                {
                    "name": "F4",
                    "midi": 65,
                    "time": 18.913016999999943,
                    "velocity": 0.33070866141732286,
                    "duration": 0.10869549999999961
                },
                {
                    "name": "A#3",
                    "midi": 58,
                    "time": 18.913016999999943,
                    "velocity": 0.2047244094488189,
                    "duration": 0.10869549999999961
                },
                {
                    "name": "D4",
                    "midi": 62,
                    "time": 19.130407999999942,
                    "velocity": 0.28346456692913385,
                    "duration": 0.10869549999999961
                },
                {
                    "name": "A#4",
                    "midi": 70,
                    "time": 19.130407999999942,
                    "velocity": 0.2992125984251969,
                    "duration": 0.10869549999999961
                },
                {
                    "name": "A4",
                    "midi": 69,
                    "time": 19.34779899999994,
                    "velocity": 0.18110236220472442,
                    "duration": 0.10869549999999961
                },
                {
                    "name": "F4",
                    "midi": 65,
                    "time": 19.34779899999994,
                    "velocity": 0.2440944881889764,
                    "duration": 0.10869549999999961
                },
                {
                    "name": "A#3",
                    "midi": 58,
                    "time": 19.34779899999994,
                    "velocity": 0.14960629921259844,
                    "duration": 0.10869549999999961
                },
                {
                    "name": "D#4",
                    "midi": 63,
                    "time": 19.52986396249994,
                    "velocity": 0.31496062992125984,
                    "duration": 0.05253615833333214
                },
                {
                    "name": "A#4",
                    "midi": 70,
                    "time": 19.547074083333275,
                    "velocity": 0.4330708661417323,
                    "duration": 0.06340570833333103
                },
                {
                    "name": "D5",
                    "midi": 74,
                    "time": 19.56518999999994,
                    "velocity": 0.47244094488188976,
                    "duration": 0.04619558749999797
                },
                {
                    "name": "G3",
                    "midi": 55,
                    "time": 19.56971897916661,
                    "velocity": 0.33070866141732286,
                    "duration": 0.08605060416666532
                },
                {
                    "name": "C3",
                    "midi": 48,
                    "time": 19.570624774999942,
                    "velocity": 0.36220472440944884,
                    "duration": 0.06431150416666398
                },
                {
                    "name": "C5",
                    "midi": 72,
                    "time": 19.77986361249994,
                    "velocity": 0.4330708661417323,
                    "duration": 0.06249991250000164
                },
                {
                    "name": "D5",
                    "midi": 74,
                    "time": 19.856856258333277,
                    "velocity": 0.3543307086614173,
                    "duration": 0.0715578708333311
                },
                {
                    "name": "G3",
                    "midi": 55,
                    "time": 19.918450374999942,
                    "velocity": 0.4015748031496063,
                    "duration": 0.048912974999996806
                },
                {
                    "name": "C5",
                    "midi": 72,
                    "time": 19.920261966666608,
                    "velocity": 0.31496062992125984,
                    "duration": 0.091485379166663
                },
                {
                    "name": "D4",
                    "midi": 62,
                    "time": 19.947435841666607,
                    "velocity": 0.3937007874015748,
                    "duration": 0.04800717916666386
                },
                {
                    "name": "A#4",
                    "midi": 70,
                    "time": 19.99816040833327,
                    "velocity": 0.47244094488188976,
                    "duration": 0.03079705833333435
                },
                {
                    "name": "A#3",
                    "midi": 58,
                    "time": 20.19652969583327,
                    "velocity": 0.3228346456692913,
                    "duration": 0.059782524999999254
                },
                {
                    "name": "D#4",
                    "midi": 63,
                    "time": 20.205587654166603,
                    "velocity": 0.3858267716535433,
                    "duration": 0.06249991250000164
                },
                {
                    "name": "A4",
                    "midi": 69,
                    "time": 20.217362999999935,
                    "velocity": 0.5984251968503937,
                    "duration": 0.04528979166666858
                },
                {
                    "name": "F#4",
                    "midi": 66,
                    "time": 20.434753999999938,
                    "velocity": 0.5039370078740157,
                    "duration": 0.029891262500001403
                },
                {
                    "name": "A#3",
                    "midi": 58,
                    "time": 20.61772475833327,
                    "velocity": 0.36220472440944884,
                    "duration": 0.0407608125000003
                },
                {
                    "name": "D#4",
                    "midi": 63,
                    "time": 20.626782716666604,
                    "velocity": 0.4645669291338583,
                    "duration": 0.049818770833336856
                },
                {
                    "name": "G4",
                    "midi": 67,
                    "time": 20.652144999999937,
                    "velocity": 0.4330708661417323,
                    "duration": 0.03623183333333557
                },
                {
                    "name": "G3",
                    "midi": 55,
                    "time": 20.663920345833272,
                    "velocity": 0.2047244094488189,
                    "duration": 0.0706520750000017
                },
                {
                    "name": "C3",
                    "midi": 48,
                    "time": 20.67116671249994,
                    "velocity": 0.33858267716535434,
                    "duration": 0.04710138333333447
                },
                {
                    "name": "D#4",
                    "midi": 63,
                    "time": 20.818811433333273,
                    "velocity": 0.4409448818897638,
                    "duration": 0.057970933333336916
                },
                {
                    "name": "A#4",
                    "midi": 70,
                    "time": 20.839644737499942,
                    "velocity": 0.4015748031496063,
                    "duration": 0.07246366666666759
                },
                {
                    "name": "F2",
                    "midi": 41,
                    "time": 20.869535999999943,
                    "velocity": 0.28346456692913385,
                    "duration": 0.0606883208333322
                },
                {
                    "name": "C3",
                    "midi": 48,
                    "time": 20.869535999999943,
                    "velocity": 0.3464566929133858,
                    "duration": 0.0715578708333311
                },
                {
                    "name": "D5",
                    "midi": 74,
                    "time": 20.880405549999942,
                    "velocity": 0.5669291338582677,
                    "duration": 0.043478199999999134
                },
                {
                    "name": "C5",
                    "midi": 72,
                    "time": 21.09236177499994,
                    "velocity": 0.4409448818897638,
                    "duration": 0.06431150416666753
                },
                {
                    "name": "D5",
                    "midi": 74,
                    "time": 21.16210805416661,
                    "velocity": 0.3937007874015748,
                    "duration": 0.07246366666666759
                },
                {
                    "name": "C5",
                    "midi": 72,
                    "time": 21.220984783333275,
                    "velocity": 0.5354330708661418,
                    "duration": 0.10416652083333133
                },
                {
                    "name": "G3",
                    "midi": 55,
                    "time": 21.236383312499942,
                    "velocity": 0.3937007874015748,
                    "duration": 0.0697462791666652
                },
                {
                    "name": "D4",
                    "midi": 62,
                    "time": 21.293448449999943,
                    "velocity": 0.23622047244094488,
                    "duration": 0.06340570833333103
                },
                {
                    "name": "A#4",
                    "midi": 70,
                    "time": 21.30341220416661,
                    "velocity": 0.4645669291338583,
                    "duration": 0.05253615833333214
                },
                {
                    "name": "A#3",
                    "midi": 58,
                    "time": 21.48094818749994,
                    "velocity": 0.3937007874015748,
                    "duration": 0.06249991250000164
                },
                {
                    "name": "D#4",
                    "midi": 63,
                    "time": 21.48910034999994,
                    "velocity": 0.5039370078740157,
                    "duration": 0.07518105416666998
                },
                {
                    "name": "A4",
                    "midi": 69,
                    "time": 21.522614795833274,
                    "velocity": 0.4645669291338583,
                    "duration": 0.056159341666671025
                },
                {
                    "name": "F#4",
                    "midi": 66,
                    "time": 21.740911591666613,
                    "velocity": 0.33858267716535434,
                    "duration": 0.03985501666666735
                },
                {
                    "name": "C4",
                    "midi": 60,
                    "time": 21.95739679583328,
                    "velocity": 0.2047244094488189,
                    "duration": 0.06521730000000048
                },
                {
                    "name": "D#4",
                    "midi": 63,
                    "time": 21.961925774999948,
                    "velocity": 0.33070866141732286,
                    "duration": 0.04710138333333447
                },
                {
                    "name": "A#3",
                    "midi": 58,
                    "time": 21.961925774999948,
                    "velocity": 0.2755905511811024,
                    "duration": 0.04891297500000036
                },
                {
                    "name": "F3",
                    "midi": 53,
                    "time": 21.96283157083328,
                    "velocity": 0.2283464566929134,
                    "duration": 0.05434775000000158
                },
                {
                    "name": "G4",
                    "midi": 67,
                    "time": 21.969172141666615,
                    "velocity": 0.5039370078740157,
                    "duration": 0.049818770833333303
                },
                {
                    "name": "A#4",
                    "midi": 70,
                    "time": 22.170258816666614,
                    "velocity": 0.5354330708661418,
                    "duration": 0.027173874999999015
                },
                {
                    "name": "A#2",
                    "midi": 46,
                    "time": 22.19380950833328,
                    "velocity": 0.30708661417322836,
                    "duration": 1.2228243749999983
                },
                {
                    "name": "A4",
                    "midi": 69,
                    "time": 22.399425162499945,
                    "velocity": 0.4330708661417323,
                    "duration": 0.07789844166666526
                },
                {
                    "name": "F3",
                    "midi": 53,
                    "time": 22.411200508333277,
                    "velocity": 0.3858267716535433,
                    "duration": 0.03894922083333441
                },
                {
                    "name": "A#4",
                    "midi": 70,
                    "time": 22.468265645833277,
                    "velocity": 0.4330708661417323,
                    "duration": 0.09420276666666538
                },
                {
                    "name": "A4",
                    "midi": 69,
                    "time": 22.538011924999942,
                    "velocity": 0.4881889763779528,
                    "duration": 0.07789844166666526
                },
                {
                    "name": "A#3",
                    "midi": 58,
                    "time": 22.604135020833276,
                    "velocity": 0.4409448818897638,
                    "duration": 0.04257240416666619
                },
                {
                    "name": "F4",
                    "midi": 65,
                    "time": 22.620439345833276,
                    "velocity": 0.47244094488188976,
                    "duration": 1.1476433208333319
                },
                {
                    "name": "F3",
                    "midi": 53,
                    "time": 22.826054999999943,
                    "velocity": 0.4094488188976378,
                    "duration": 0.0398550166666638
                },
                {
                    "name": "A3",
                    "midi": 57,
                    "time": 22.836924549999942,
                    "velocity": 0.3700787401574803,
                    "duration": 0.10869549999999961
                },
                {
                    "name": "A#3",
                    "midi": 58,
                    "time": 23.059750324999943,
                    "velocity": 0.3779527559055118,
                    "duration": 0.03260865000000024
                },
                {
                    "name": "F3",
                    "midi": 53,
                    "time": 23.27080075416661,
                    "velocity": 0.3858267716535433,
                    "duration": 0.03894922083333441
                },
                {
                    "name": "A3",
                    "midi": 57,
                    "time": 23.277141324999945,
                    "velocity": 0.3858267716535433,
                    "duration": 0.10960129583333256
                },
                {
                    "name": "A#2",
                    "midi": 46,
                    "time": 23.48456857083328,
                    "velocity": 0.2204724409448819,
                    "duration": 1.2708315541666622
                },
                {
                    "name": "D#3",
                    "midi": 51,
                    "time": 23.687466837499944,
                    "velocity": 0.3700787401574803,
                    "duration": 0.04800717916666386
                },
                {
                    "name": "D4",
                    "midi": 62,
                    "time": 23.69743059166661,
                    "velocity": 0.3858267716535433,
                    "duration": 1.0643101041666654
                },
                {
                    "name": "G3",
                    "midi": 55,
                    "time": 23.70920593749994,
                    "velocity": 0.2677165354330709,
                    "duration": 0.1403983541666669
                },
                {
                    "name": "A#3",
                    "midi": 58,
                    "time": 23.91210420416661,
                    "velocity": 0.36220472440944884,
                    "duration": 0.04438399583333208
                },
                {
                    "name": "D#3",
                    "midi": 51,
                    "time": 24.122248837499942,
                    "velocity": 0.3228346456692913,
                    "duration": 0.04710138333333447
                },
                {
                    "name": "G3",
                    "midi": 55,
                    "time": 24.130400999999942,
                    "velocity": 0.2677165354330709,
                    "duration": 0.13586937500000218
                },
                {
                    "name": "A#3",
                    "midi": 58,
                    "time": 24.33601665416661,
                    "velocity": 0.3779527559055118,
                    "duration": 0.043478199999999134
                },
                {
                    "name": "D#3",
                    "midi": 51,
                    "time": 24.55884242916661,
                    "velocity": 0.23622047244094488,
                    "duration": 0.04528979166666858
                },
                {
                    "name": "G3",
                    "midi": 55,
                    "time": 24.566088795833277,
                    "velocity": 0.2677165354330709,
                    "duration": 0.11141288749999845
                },
                {
                    "name": "A#3",
                    "midi": 58,
                    "time": 24.782573999999943,
                    "velocity": 0.5039370078740157,
                    "duration": 0.21739099999999922
                },
                {
                    "name": "A#1",
                    "midi": 34,
                    "time": 24.802501508333275,
                    "velocity": 0.30708661417322836,
                    "duration": 1.2228243750000019
                },
                {
                    "name": "A3",
                    "midi": 57,
                    "time": 25.008117162499943,
                    "velocity": 0.4330708661417323,
                    "duration": 0.07789844166666526
                },
                {
                    "name": "F2",
                    "midi": 41,
                    "time": 25.019892508333275,
                    "velocity": 0.3858267716535433,
                    "duration": 0.03894922083333441
                },
                {
                    "name": "A#3",
                    "midi": 58,
                    "time": 25.076957645833275,
                    "velocity": 0.4330708661417323,
                    "duration": 0.09420276666666538
                },
                {
                    "name": "A3",
                    "midi": 57,
                    "time": 25.14670392499994,
                    "velocity": 0.4881889763779528,
                    "duration": 0.07789844166666526
                },
                {
                    "name": "A#2",
                    "midi": 46,
                    "time": 25.212827020833274,
                    "velocity": 0.4409448818897638,
                    "duration": 0.04257240416666619
                },
                {
                    "name": "F3",
                    "midi": 53,
                    "time": 25.229131345833274,
                    "velocity": 0.47244094488188976,
                    "duration": 1.1476433208333319
                },
                {
                    "name": "F2",
                    "midi": 41,
                    "time": 25.43474699999994,
                    "velocity": 0.4094488188976378,
                    "duration": 0.0398550166666638
                },
                {
                    "name": "A2",
                    "midi": 45,
                    "time": 25.44561654999994,
                    "velocity": 0.3700787401574803,
                    "duration": 0.10869549999999961
                },
                {
                    "name": "A#2",
                    "midi": 46,
                    "time": 25.66844232499994,
                    "velocity": 0.3779527559055118,
                    "duration": 0.03260865000000024
                },
                {
                    "name": "F2",
                    "midi": 41,
                    "time": 25.87949275416661,
                    "velocity": 0.3858267716535433,
                    "duration": 0.03894922083333441
                },
                {
                    "name": "A2",
                    "midi": 45,
                    "time": 25.885833324999943,
                    "velocity": 0.3858267716535433,
                    "duration": 0.10960129583333256
                },
                {
                    "name": "A#1",
                    "midi": 34,
                    "time": 26.093260570833277,
                    "velocity": 0.2204724409448819,
                    "duration": 1.2708315541666622
                },
                {
                    "name": "D#2",
                    "midi": 39,
                    "time": 26.29615883749994,
                    "velocity": 0.3700787401574803,
                    "duration": 0.04800717916666386
                },
                {
                    "name": "D3",
                    "midi": 50,
                    "time": 26.306122591666607,
                    "velocity": 0.3858267716535433,
                    "duration": 1.0643101041666654
                },
                {
                    "name": "G2",
                    "midi": 43,
                    "time": 26.31789793749994,
                    "velocity": 0.2677165354330709,
                    "duration": 0.1403983541666669
                },
                {
                    "name": "A#2",
                    "midi": 46,
                    "time": 26.520796204166608,
                    "velocity": 0.36220472440944884,
                    "duration": 0.04438399583333208
                },
                {
                    "name": "D#2",
                    "midi": 39,
                    "time": 26.73094083749994,
                    "velocity": 0.3228346456692913,
                    "duration": 0.04710138333333447
                },
                {
                    "name": "G2",
                    "midi": 43,
                    "time": 26.73909299999994,
                    "velocity": 0.2677165354330709,
                    "duration": 0.13586937500000218
                },
                {
                    "name": "A#2",
                    "midi": 46,
                    "time": 26.944708654166607,
                    "velocity": 0.3779527559055118,
                    "duration": 0.043478199999999134
                },
                {
                    "name": "D#2",
                    "midi": 39,
                    "time": 27.167534429166608,
                    "velocity": 0.23622047244094488,
                    "duration": 0.045289791666665025
                },
                {
                    "name": "G2",
                    "midi": 43,
                    "time": 27.174780795833275,
                    "velocity": 0.2677165354330709,
                    "duration": 0.11141288749999845
                },
                {
                    "name": "A#2",
                    "midi": 46,
                    "time": 27.39398338749994,
                    "velocity": 0.4094488188976378,
                    "duration": 0.0606883208333322
                },
                {
                    "name": "A#1",
                    "midi": 34,
                    "time": 27.403041345833273,
                    "velocity": 0.47244094488188976,
                    "duration": 0.06793468749999931
                },
                {
                    "name": "D3",
                    "midi": 50,
                    "time": 27.607751204166608,
                    "velocity": 0.4330708661417323,
                    "duration": 0.04257240416666619
                },
                {
                    "name": "F3",
                    "midi": 53,
                    "time": 27.610468591666606,
                    "velocity": 0.28346456692913385,
                    "duration": 0.04800717916666741
                },
                {
                    "name": "A#2",
                    "midi": 46,
                    "time": 27.816990041666607,
                    "velocity": 0.4330708661417323,
                    "duration": 0.059782524999999254
                },
                {
                    "name": "F2",
                    "midi": 41,
                    "time": 27.98909124999994,
                    "velocity": 0.3779527559055118,
                    "duration": 0.057065137499996865
                },
                {
                    "name": "D3",
                    "midi": 50,
                    "time": 28.009018758333273,
                    "velocity": 0.4645669291338583,
                    "duration": 0.05887672916666631
                },
                {
                    "name": "F3",
                    "midi": 53,
                    "time": 28.02713467499994,
                    "velocity": 0.4881889763779528,
                    "duration": 0.06793468749999931
                },
                {
                    "name": "A#2",
                    "midi": 46,
                    "time": 28.25358363333327,
                    "velocity": 0.3937007874015748,
                    "duration": 0.06702889166666637
                },
                {
                    "name": "C#3",
                    "midi": 49,
                    "time": 28.46553985833327,
                    "velocity": 0.3779527559055118,
                    "duration": 0.0597825249999957
                },
                {
                    "name": "G#3",
                    "midi": 56,
                    "time": 28.46553985833327,
                    "velocity": 0.33070866141732286,
                    "duration": 0.09601435833332772
                },
                {
                    "name": "E3",
                    "midi": 52,
                    "time": 28.4691630416666,
                    "velocity": 0.2992125984251969,
                    "duration": 0.100543337499996
                },
                {
                    "name": "G#2",
                    "midi": 44,
                    "time": 28.472786224999933,
                    "velocity": 0.23622047244094488,
                    "duration": 0.05072456666666625
                },
                {
                    "name": "A#2",
                    "midi": 46,
                    "time": 28.691988816666598,
                    "velocity": 0.4881889763779528,
                    "duration": 0.05615934166666392
                },
                {
                    "name": "A#1",
                    "midi": 34,
                    "time": 28.70376416249993,
                    "velocity": 0.4409448818897638,
                    "duration": 0.05887672916666631
                },
                {
                    "name": "F3",
                    "midi": 53,
                    "time": 28.923872549999928,
                    "velocity": 0.31496062992125984,
                    "duration": 0.0715578708333311
                },
                {
                    "name": "D3",
                    "midi": 50,
                    "time": 28.92749573333326,
                    "velocity": 0.4094488188976378,
                    "duration": 0.06612309583333342
                },
                {
                    "name": "A#2",
                    "midi": 46,
                    "time": 29.12133604166659,
                    "velocity": 0.2755905511811024,
                    "duration": 0.08242742083333354
                },
                {
                    "name": "F2",
                    "midi": 41,
                    "time": 29.342350224999926,
                    "velocity": 0.5039370078740157,
                    "duration": 0.05887672916666631
                },
                {
                    "name": "D#3",
                    "midi": 51,
                    "time": 29.342350224999926,
                    "velocity": 0.28346456692913385,
                    "duration": 0.2201083875000016
                },
                {
                    "name": "B2",
                    "midi": 47,
                    "time": 29.342350224999926,
                    "velocity": 0.3228346456692913,
                    "duration": 0.2735503416666667
                },
                {
                    "name": "D3",
                    "midi": 50,
                    "time": 29.547965879166593,
                    "velocity": 0.3543307086614173,
                    "duration": 0.22282577500000045
                },
                {
                    "name": "G#2",
                    "midi": 44,
                    "time": 29.554306449999928,
                    "velocity": 0.3228346456692913,
                    "duration": 0.05797093333333336
                },
                {
                    "name": "A#2",
                    "midi": 46,
                    "time": 29.56336440833326,
                    "velocity": 0.2047244094488189,
                    "duration": 0.2581518124999995
                },
                {
                    "name": "C#3",
                    "midi": 49,
                    "time": 29.766262674999926,
                    "velocity": 0.33858267716535434,
                    "duration": 0.1721012083333342
                },
                {
                    "name": "A2",
                    "midi": 45,
                    "time": 29.778943816666594,
                    "velocity": 0.07874015748031496,
                    "duration": 0.1603258624999988
                },
                {
                    "name": "D#2",
                    "midi": 39,
                    "time": 29.782566999999926,
                    "velocity": 0.25984251968503935,
                    "duration": 0.04528979166666858
                },
                {
                    "name": "A#2",
                    "midi": 46,
                    "time": 30.002675387499927,
                    "velocity": 0.4094488188976378,
                    "duration": 0.0606883208333322
                },
                {
                    "name": "A#1",
                    "midi": 34,
                    "time": 30.01173334583326,
                    "velocity": 0.47244094488188976,
                    "duration": 0.06793468749999931
                },
                {
                    "name": "D3",
                    "midi": 50,
                    "time": 30.21644320416659,
                    "velocity": 0.4330708661417323,
                    "duration": 0.04257240416666619
                },
                {
                    "name": "F3",
                    "midi": 53,
                    "time": 30.21916059166659,
                    "velocity": 0.28346456692913385,
                    "duration": 0.04800717916666741
                },
                {
                    "name": "A#2",
                    "midi": 46,
                    "time": 30.42568204166659,
                    "velocity": 0.4330708661417323,
                    "duration": 0.059782524999999254
                },
                {
                    "name": "F2",
                    "midi": 41,
                    "time": 30.597783249999924,
                    "velocity": 0.3779527559055118,
                    "duration": 0.057065137499996865
                },
                {
                    "name": "D3",
                    "midi": 50,
                    "time": 30.617710758333256,
                    "velocity": 0.4645669291338583,
                    "duration": 0.05887672916666631
                },
                {
                    "name": "F3",
                    "midi": 53,
                    "time": 30.635826674999922,
                    "velocity": 0.4881889763779528,
                    "duration": 0.06793468749999931
                },
                {
                    "name": "A#2",
                    "midi": 46,
                    "time": 30.862275633333255,
                    "velocity": 0.3937007874015748,
                    "duration": 0.06702889166666637
                },
                {
                    "name": "C#3",
                    "midi": 49,
                    "time": 31.074231858333253,
                    "velocity": 0.3779527559055118,
                    "duration": 0.0597825249999957
                },
                {
                    "name": "G#3",
                    "midi": 56,
                    "time": 31.074231858333253,
                    "velocity": 0.33070866141732286,
                    "duration": 0.09601435833332772
                },
                {
                    "name": "E3",
                    "midi": 52,
                    "time": 31.077855041666584,
                    "velocity": 0.2992125984251969,
                    "duration": 0.100543337499996
                },
                {
                    "name": "G#2",
                    "midi": 44,
                    "time": 31.081478224999916,
                    "velocity": 0.23622047244094488,
                    "duration": 0.05072456666666625
                },
                {
                    "name": "A#2",
                    "midi": 46,
                    "time": 31.30068081666658,
                    "velocity": 0.4881889763779528,
                    "duration": 0.05615934166666392
                },
                {
                    "name": "A#1",
                    "midi": 34,
                    "time": 31.312456162499913,
                    "velocity": 0.4409448818897638,
                    "duration": 0.05887672916666631
                },
                {
                    "name": "F3",
                    "midi": 53,
                    "time": 31.53256454999991,
                    "velocity": 0.31496062992125984,
                    "duration": 0.0715578708333311
                },
                {
                    "name": "D3",
                    "midi": 50,
                    "time": 31.536187733333243,
                    "velocity": 0.4094488188976378,
                    "duration": 0.06612309583333342
                },
                {
                    "name": "A#2",
                    "midi": 46,
                    "time": 31.730028041666575,
                    "velocity": 0.2755905511811024,
                    "duration": 0.08242742083333354
                },
                {
                    "name": "F2",
                    "midi": 41,
                    "time": 31.95104222499991,
                    "velocity": 0.5039370078740157,
                    "duration": 0.05887672916666986
                },
                {
                    "name": "D#3",
                    "midi": 51,
                    "time": 31.95104222499991,
                    "velocity": 0.28346456692913385,
                    "duration": 0.22010838749999806
                },
                {
                    "name": "B2",
                    "midi": 47,
                    "time": 31.95104222499991,
                    "velocity": 0.3228346456692913,
                    "duration": 0.27355034166666314
                },
                {
                    "name": "D3",
                    "midi": 50,
                    "time": 32.15665787916658,
                    "velocity": 0.3543307086614173,
                    "duration": 0.2228257749999898
                },
                {
                    "name": "G#2",
                    "midi": 44,
                    "time": 32.16299844999991,
                    "velocity": 0.3228346456692913,
                    "duration": 0.05797093333332981
                },
                {
                    "name": "A#2",
                    "midi": 46,
                    "time": 32.17205640833324,
                    "velocity": 0.2047244094488189,
                    "duration": 0.25815181249998886
                },
                {
                    "name": "C#3",
                    "midi": 49,
                    "time": 32.374954674999906,
                    "velocity": 0.33858267716535434,
                    "duration": 0.17210120833332354
                },
                {
                    "name": "A2",
                    "midi": 45,
                    "time": 32.38763581666657,
                    "velocity": 0.07874015748031496,
                    "duration": 0.16032586249999525
                },
                {
                    "name": "D#2",
                    "midi": 39,
                    "time": 32.3912589999999,
                    "velocity": 0.25984251968503935,
                    "duration": 0.04528979166666147
                },
                {
                    "name": "A#2",
                    "midi": 46,
                    "time": 32.6086499999999,
                    "velocity": 0.3543307086614173,
                    "duration": 0.07608685000000293
                },
                {
                    "name": "A#1",
                    "midi": 34,
                    "time": 32.6086499999999,
                    "velocity": 0.4881889763779528,
                    "duration": 0.0815216250000006
                },
                {
                    "name": "F3",
                    "midi": 53,
                    "time": 32.825135204166564,
                    "velocity": 0.33070866141732286,
                    "duration": 0.07789844166666882
                },
                {
                    "name": "D3",
                    "midi": 50,
                    "time": 32.825135204166564,
                    "velocity": 0.4094488188976378,
                    "duration": 0.07518105416666998
                },
                {
                    "name": "A#2",
                    "midi": 46,
                    "time": 33.0461493874999,
                    "velocity": 0.36220472440944884,
                    "duration": 0.07065207499999815
                },
                {
                    "name": "F2",
                    "midi": 41,
                    "time": 33.21100422916656,
                    "velocity": 0.4330708661417323,
                    "duration": 0.0615941166666687
                },
                {
                    "name": "D3",
                    "midi": 50,
                    "time": 33.22368537083323,
                    "velocity": 0.5354330708661418,
                    "duration": 0.06521730000000048
                },
                {
                    "name": "F3",
                    "midi": 53,
                    "time": 33.2418012874999,
                    "velocity": 0.4881889763779528,
                    "duration": 0.05072456666666625
                },
                {
                    "name": "A#2",
                    "midi": 46,
                    "time": 33.48093138749989,
                    "velocity": 0.31496062992125984,
                    "duration": 0.06068832083333575
                },
                {
                    "name": "D3",
                    "midi": 50,
                    "time": 33.695604999999894,
                    "velocity": 0.3543307086614173,
                    "duration": 0.06340570833333459
                },
                {
                    "name": "F3",
                    "midi": 53,
                    "time": 33.699228183333226,
                    "velocity": 0.3464566929133858,
                    "duration": 0.0615941166666687
                },
                {
                    "name": "A#2",
                    "midi": 46,
                    "time": 33.9211481624999,
                    "velocity": 0.4330708661417323,
                    "duration": 0.07336946249999698
                },
                {
                    "name": "A#1",
                    "midi": 34,
                    "time": 33.926582937499894,
                    "velocity": 0.47244094488188976,
                    "duration": 0.08423901249999943
                },
                {
                    "name": "F3",
                    "midi": 53,
                    "time": 34.13672757083322,
                    "velocity": 0.36220472440944884,
                    "duration": 0.05072456666666625
                },
                {
                    "name": "D3",
                    "midi": 50,
                    "time": 34.13672757083322,
                    "velocity": 0.3543307086614173,
                    "duration": 0.07336946249999698
                },
                {
                    "name": "A#2",
                    "midi": 46,
                    "time": 34.35683595833322,
                    "velocity": 0.28346456692913385,
                    "duration": 0.09057958333333005
                },
                {
                    "name": "F2",
                    "midi": 41,
                    "time": 34.53527773749988,
                    "velocity": 0.33858267716535434,
                    "duration": 0.04438399583333563
                },
                {
                    "name": "D3",
                    "midi": 50,
                    "time": 34.54977047083322,
                    "velocity": 0.5039370078740157,
                    "duration": 0.06068832083333575
                },
                {
                    "name": "F3",
                    "midi": 53,
                    "time": 34.56607479583322,
                    "velocity": 0.4330708661417323,
                    "duration": 0.06340570833333459
                },
                {
                    "name": "A#2",
                    "midi": 46,
                    "time": 34.78890057083322,
                    "velocity": 0.3228346456692913,
                    "duration": 0.0697462791666652
                },
                {
                    "name": "F3",
                    "midi": 53,
                    "time": 35.00719736666655,
                    "velocity": 0.3464566929133858,
                    "duration": 0.058876729166662756
                },
                {
                    "name": "D3",
                    "midi": 50,
                    "time": 35.00991475416655,
                    "velocity": 0.2992125984251969,
                    "duration": 0.05253615833333214
                },
                {
                    "name": "A#1",
                    "midi": 34,
                    "time": 35.21915359166655,
                    "velocity": 0.4409448818897638,
                    "duration": 0.03260865000000024
                },
                {
                    "name": "A#2",
                    "midi": 46,
                    "time": 35.42929822499988,
                    "velocity": 0.3543307086614173,
                    "duration": 0.033514445833333184
                },
                {
                    "name": "A#1",
                    "midi": 34,
                    "time": 35.65121820416655,
                    "velocity": 0.23622047244094488,
                    "duration": 0.04800717916666741
                },
                {
                    "name": "A#2",
                    "midi": 46,
                    "time": 35.86136283749988,
                    "velocity": 0.33858267716535434,
                    "duration": 0.03260865000000024
                },
                {
                    "name": "A#1",
                    "midi": 34,
                    "time": 36.09234077499988,
                    "velocity": 0.2047244094488189,
                    "duration": 0.05253615833333214
                },
                {
                    "name": "A#2",
                    "midi": 46,
                    "time": 36.307920183333216,
                    "velocity": 0.2440944881889764,
                    "duration": 0.0398550166666638
                },
                {
                    "name": "A#1",
                    "midi": 34,
                    "time": 36.54342709999988,
                    "velocity": 0.2047244094488189,
                    "duration": 0.06884048333333226
                },
                {
                    "name": "A#2",
                    "midi": 46,
                    "time": 36.739078999999876,
                    "velocity": 0.2047244094488189,
                    "duration": 0.04891297500000036
                },
                {
                    "name": "A#1",
                    "midi": 34,
                    "time": 36.96462216249988,
                    "velocity": 0.16535433070866143,
                    "duration": 0.05072456666666625
                },
                {
                    "name": "A#2",
                    "midi": 46,
                    "time": 37.178389979166546,
                    "velocity": 0.15748031496062992,
                    "duration": 0.04710138333333447
                },
                {
                    "name": "A#1",
                    "midi": 34,
                    "time": 37.40483893749988,
                    "velocity": 0.07874015748031496,
                    "duration": 0.06793468749999931
                },
                {
                    "name": "A#2",
                    "midi": 46,
                    "time": 37.626758916666546,
                    "velocity": 0.14173228346456693,
                    "duration": 0.04619558750000152
                },
                {
                    "name": "A#0",
                    "midi": 22,
                    "time": 37.82603399999988,
                    "velocity": 0.7716535433070866,
                    "duration": 0.21739099999999922
                },
                {
                    "name": "F2",
                    "midi": 41,
                    "time": 38.04342499999988,
                    "velocity": 0.5984251968503937,
                    "duration": 0.07246366666666404
                },
                {
                    "name": "F3",
                    "midi": 53,
                    "time": 38.04342499999988,
                    "velocity": 0.7007874015748031,
                    "duration": 0.07246366666666404
                },
                {
                    "name": "A#2",
                    "midi": 46,
                    "time": 38.11588866666654,
                    "velocity": 0.5984251968503937,
                    "duration": 0.07246366666666404
                },
                {
                    "name": "A#3",
                    "midi": 58,
                    "time": 38.11588866666654,
                    "velocity": 0.7007874015748031,
                    "duration": 0.07246366666666404
                },
                {
                    "name": "F#3",
                    "midi": 54,
                    "time": 38.188352333333206,
                    "velocity": 0.7007874015748031,
                    "duration": 0.07246366666666404
                },
                {
                    "name": "D4",
                    "midi": 62,
                    "time": 38.188352333333206,
                    "velocity": 0.8031496062992126,
                    "duration": 0.07246366666666404
                },
                {
                    "name": "A#3",
                    "midi": 58,
                    "time": 38.26081599999987,
                    "velocity": 0.5354330708661418,
                    "duration": 0.10869549999999606
                },
                {
                    "name": "F4",
                    "midi": 65,
                    "time": 38.26081599999987,
                    "velocity": 0.7716535433070866,
                    "duration": 0.07246366666666404
                },
                {
                    "name": "A#4",
                    "midi": 70,
                    "time": 38.333279666666535,
                    "velocity": 0.84251968503937,
                    "duration": 0.07246366666666404
                },
                {
                    "name": "F#4",
                    "midi": 66,
                    "time": 38.36951149999987,
                    "velocity": 0.6299212598425197,
                    "duration": 0.10869549999999606
                },
                {
                    "name": "D5",
                    "midi": 74,
                    "time": 38.4057433333332,
                    "velocity": 0.8031496062992126,
                    "duration": 0.07246366666666404
                },
                {
                    "name": "A#5",
                    "midi": 82,
                    "time": 38.47820699999986,
                    "velocity": 0.8661417322834646,
                    "duration": 0.21739099999999922
                },
                {
                    "name": "D5",
                    "midi": 74,
                    "time": 38.47820699999986,
                    "velocity": 0.8031496062992126,
                    "duration": 0.21739099999999922
                },
                {
                    "name": "A#4",
                    "midi": 70,
                    "time": 38.47820699999986,
                    "velocity": 0.5984251968503937,
                    "duration": 0.21739099999999922
                },
                {
                    "name": "A#2",
                    "midi": 46,
                    "time": 38.491793937499864,
                    "velocity": 0.4645669291338583,
                    "duration": 0.09782595000000072
                },
                {
                    "name": "A4",
                    "midi": 69,
                    "time": 38.69559799999986,
                    "velocity": 0.5984251968503937,
                    "duration": 0.07246366666667114
                },
                {
                    "name": "D4",
                    "midi": 62,
                    "time": 38.706467549999864,
                    "velocity": 0.5669291338582677,
                    "duration": 0.09420276666666894
                },
                {
                    "name": "F3",
                    "midi": 53,
                    "time": 38.706467549999864,
                    "velocity": 0.3779527559055118,
                    "duration": 0.09873174583333366
                },
                {
                    "name": "A#3",
                    "midi": 58,
                    "time": 38.70827914166653,
                    "velocity": 0.44881889763779526,
                    "duration": 0.09692015416666777
                },
                {
                    "name": "A#5",
                    "midi": 82,
                    "time": 38.76806166666653,
                    "velocity": 0.5984251968503937,
                    "duration": 0.07246366666666404
                },
                {
                    "name": "D5",
                    "midi": 74,
                    "time": 38.76806166666653,
                    "velocity": 0.7322834645669292,
                    "duration": 0.07246366666666404
                },
                {
                    "name": "A4",
                    "midi": 69,
                    "time": 38.8405253333332,
                    "velocity": 0.5669291338582677,
                    "duration": 0.07246366666666404
                },
                {
                    "name": "F#5",
                    "midi": 78,
                    "time": 38.91298899999986,
                    "velocity": 0.7007874015748031,
                    "duration": 1.0869550000000032
                },
                {
                    "name": "D#5",
                    "midi": 75,
                    "time": 38.91298899999986,
                    "velocity": 0.7322834645669292,
                    "duration": 1.0869550000000032
                },
                {
                    "name": "B4",
                    "midi": 71,
                    "time": 38.91298899999986,
                    "velocity": 0.8031496062992126,
                    "duration": 1.0869550000000032
                },
                {
                    "name": "F#4",
                    "midi": 66,
                    "time": 38.91298899999986,
                    "velocity": 0.47244094488188976,
                    "duration": 1.0869550000000032
                },
                {
                    "name": "A#2",
                    "midi": 46,
                    "time": 38.92385854999986,
                    "velocity": 0.4645669291338583,
                    "duration": 0.07880423750000176
                },
                {
                    "name": "D#4",
                    "midi": 63,
                    "time": 39.14396693749987,
                    "velocity": 0.6299212598425197,
                    "duration": 0.07608684999999582
                },
                {
                    "name": "B3",
                    "midi": 59,
                    "time": 39.145778529166535,
                    "velocity": 0.6299212598425197,
                    "duration": 0.08605060416666532
                },
                {
                    "name": "F#3",
                    "midi": 54,
                    "time": 39.15121330416653,
                    "velocity": 0.7322834645669292,
                    "duration": 0.0914853791666701
                },
                {
                    "name": "A#2",
                    "midi": 46,
                    "time": 39.37766226249987,
                    "velocity": 0.36220472440944884,
                    "duration": 0.05797093333332981
                },
                {
                    "name": "D#4",
                    "midi": 63,
                    "time": 39.57512575416653,
                    "velocity": 0.3937007874015748,
                    "duration": 0.07246366666666404
                },
                {
                    "name": "B3",
                    "midi": 59,
                    "time": 39.57784314166653,
                    "velocity": 0.4881889763779528,
                    "duration": 0.06702889166666637
                },
                {
                    "name": "F#3",
                    "midi": 54,
                    "time": 39.58508950833319,
                    "velocity": 0.4409448818897638,
                    "duration": 0.0715578708333382
                },
                {
                    "name": "A#2",
                    "midi": 46,
                    "time": 39.791610958333195,
                    "velocity": 0.3858267716535433,
                    "duration": 0.052536158333339245
                },
                {
                    "name": "D#5",
                    "midi": 75,
                    "time": 39.999943999999864,
                    "velocity": 0.4881889763779528,
                    "duration": 0.43478199999999845
                },
                {
                    "name": "G5",
                    "midi": 79,
                    "time": 39.999943999999864,
                    "velocity": 0.7322834645669292,
                    "duration": 0.43478199999999845
                },
                {
                    "name": "G4",
                    "midi": 67,
                    "time": 39.999943999999864,
                    "velocity": 0.6692913385826772,
                    "duration": 0.43478199999999845
                },
                {
                    "name": "C5",
                    "midi": 72,
                    "time": 39.999943999999864,
                    "velocity": 0.6692913385826772,
                    "duration": 0.43478199999999845
                },
                {
                    "name": "D#4",
                    "midi": 63,
                    "time": 40.00266138749986,
                    "velocity": 0.4409448818897638,
                    "duration": 0.07246366666666404
                },
                {
                    "name": "G3",
                    "midi": 55,
                    "time": 40.00809616249986,
                    "velocity": 0.3464566929133858,
                    "duration": 0.08695639999999827
                },
                {
                    "name": "C4",
                    "midi": 60,
                    "time": 40.00809616249986,
                    "velocity": 0.47244094488188976,
                    "duration": 0.08333321666666649
                },
                {
                    "name": "A#2",
                    "midi": 46,
                    "time": 40.21914659166653,
                    "velocity": 0.4645669291338583,
                    "duration": 0.06612309583333342
                },
                {
                    "name": "A#5",
                    "midi": 82,
                    "time": 40.43472599999986,
                    "velocity": 0.7007874015748031,
                    "duration": 0.21739099999999922
                },
                {
                    "name": "D5",
                    "midi": 74,
                    "time": 40.43472599999986,
                    "velocity": 0.8031496062992126,
                    "duration": 0.21739099999999922
                },
                {
                    "name": "A#4",
                    "midi": 70,
                    "time": 40.43472599999986,
                    "velocity": 0.5984251968503937,
                    "duration": 0.21739099999999922
                },
                {
                    "name": "F3",
                    "midi": 53,
                    "time": 40.44740714166653,
                    "velocity": 0.4881889763779528,
                    "duration": 0.09239117499999594
                },
                {
                    "name": "D4",
                    "midi": 62,
                    "time": 40.4492187333332,
                    "velocity": 0.44881889763779526,
                    "duration": 0.08605060416666532
                },
                {
                    "name": "A#3",
                    "midi": 58,
                    "time": 40.451936120833196,
                    "velocity": 0.44881889763779526,
                    "duration": 0.08423901249999943
                },
                {
                    "name": "A4",
                    "midi": 69,
                    "time": 40.65211699999986,
                    "velocity": 0.5984251968503937,
                    "duration": 0.07246366666667114
                },
                {
                    "name": "A#2",
                    "midi": 46,
                    "time": 40.655740183333194,
                    "velocity": 0.5984251968503937,
                    "duration": 0.059782525000002806
                },
                {
                    "name": "A#5",
                    "midi": 82,
                    "time": 40.72458066666653,
                    "velocity": 0.5984251968503937,
                    "duration": 0.07246366666666404
                },
                {
                    "name": "D5",
                    "midi": 74,
                    "time": 40.72458066666653,
                    "velocity": 0.7322834645669292,
                    "duration": 0.07246366666666404
                },
                {
                    "name": "A4",
                    "midi": 69,
                    "time": 40.7970443333332,
                    "velocity": 0.5669291338582677,
                    "duration": 0.07246366666666404
                },
                {
                    "name": "D#4",
                    "midi": 63,
                    "time": 40.8595442458332,
                    "velocity": 0.7007874015748031,
                    "duration": 0.08061582916666055
                },
                {
                    "name": "B3",
                    "midi": 59,
                    "time": 40.86045004166653,
                    "velocity": 0.6692913385826772,
                    "duration": 0.08423901249999233
                },
                {
                    "name": "F#3",
                    "midi": 54,
                    "time": 40.8622616333332,
                    "velocity": 0.7007874015748031,
                    "duration": 0.07065207499999815
                },
                {
                    "name": "F#5",
                    "midi": 78,
                    "time": 40.86950799999986,
                    "velocity": 0.7007874015748031,
                    "duration": 1.086954999999989
                },
                {
                    "name": "D#5",
                    "midi": 75,
                    "time": 40.86950799999986,
                    "velocity": 0.7322834645669292,
                    "duration": 1.086954999999989
                },
                {
                    "name": "B4",
                    "midi": 71,
                    "time": 40.86950799999986,
                    "velocity": 0.8031496062992126,
                    "duration": 1.086954999999989
                },
                {
                    "name": "F#4",
                    "midi": 66,
                    "time": 40.86950799999986,
                    "velocity": 0.47244094488188976,
                    "duration": 1.086954999999989
                },
                {
                    "name": "A#2",
                    "midi": 46,
                    "time": 41.08689899999986,
                    "velocity": 0.4330708661417323,
                    "duration": 0.059782525000002806
                },
                {
                    "name": "D#4",
                    "midi": 63,
                    "time": 41.307007387499866,
                    "velocity": 0.4409448818897638,
                    "duration": 0.06793468749999221
                },
                {
                    "name": "B3",
                    "midi": 59,
                    "time": 41.31425375416653,
                    "velocity": 0.4330708661417323,
                    "duration": 0.06884048333332515
                },
                {
                    "name": "F#3",
                    "midi": 54,
                    "time": 41.32059432499986,
                    "velocity": 0.3228346456692913,
                    "duration": 0.06521729999999337
                },
                {
                    "name": "A#2",
                    "midi": 46,
                    "time": 41.516246224999854,
                    "velocity": 0.4330708661417323,
                    "duration": 0.06521730000000048
                },
                {
                    "name": "D#4",
                    "midi": 63,
                    "time": 41.73363722499985,
                    "velocity": 0.4094488188976378,
                    "duration": 0.08242742083333354
                },
                {
                    "name": "B3",
                    "midi": 59,
                    "time": 41.744506774999856,
                    "velocity": 0.4881889763779528,
                    "duration": 0.0715578708333311
                },
                {
                    "name": "F#3",
                    "midi": 54,
                    "time": 41.744506774999856,
                    "velocity": 0.4330708661417323,
                    "duration": 0.07608684999999582
                },
                {
                    "name": "D#5",
                    "midi": 75,
                    "time": 41.95646299999985,
                    "velocity": 0.4881889763779528,
                    "duration": 0.43478199999998424
                },
                {
                    "name": "G5",
                    "midi": 79,
                    "time": 41.95646299999985,
                    "velocity": 0.7322834645669292,
                    "duration": 0.43478199999998424
                },
                {
                    "name": "G4",
                    "midi": 67,
                    "time": 41.95646299999985,
                    "velocity": 0.6692913385826772,
                    "duration": 0.43478199999998424
                },
                {
                    "name": "C5",
                    "midi": 72,
                    "time": 41.95646299999985,
                    "velocity": 0.6692913385826772,
                    "duration": 0.43478199999998424
                },
                {
                    "name": "A#2",
                    "midi": 46,
                    "time": 41.97276732499985,
                    "velocity": 0.33070866141732286,
                    "duration": 0.07065207499999815
                },
                {
                    "name": "D#4",
                    "midi": 63,
                    "time": 42.18291195833318,
                    "velocity": 0.3464566929133858,
                    "duration": 0.09329697083332888
                },
                {
                    "name": "G3",
                    "midi": 55,
                    "time": 42.18291195833318,
                    "velocity": 0.28346456692913385,
                    "duration": 0.0896737874999971
                },
                {
                    "name": "C4",
                    "midi": 60,
                    "time": 42.187440937499844,
                    "velocity": 0.41732283464566927,
                    "duration": 0.09692015416666067
                },
                {
                    "name": "A#2",
                    "midi": 46,
                    "time": 42.391244999999834,
                    "velocity": 0.33070866141732286,
                    "duration": 0.10869550000000316
                },
                {
                    "name": "A#3",
                    "midi": 58,
                    "time": 42.60863599999984,
                    "velocity": 0.36220472440944884,
                    "duration": 0.07246366666666404
                },
                {
                    "name": "D4",
                    "midi": 62,
                    "time": 42.60863599999984,
                    "velocity": 0.2755905511811024,
                    "duration": 0.07246366666666404
                },
                {
                    "name": "F3",
                    "midi": 53,
                    "time": 42.60863599999984,
                    "velocity": 0.2677165354330709,
                    "duration": 0.07246366666666404
                },
                {
                    "name": "F4",
                    "midi": 65,
                    "time": 42.681099666666505,
                    "velocity": 0.3937007874015748,
                    "duration": 0.07246366666666404
                },
                {
                    "name": "D4",
                    "midi": 62,
                    "time": 42.75356333333317,
                    "velocity": 0.3858267716535433,
                    "duration": 0.07246366666667114
                },
                {
                    "name": "F3",
                    "midi": 53,
                    "time": 42.75356333333317,
                    "velocity": 0.1968503937007874,
                    "duration": 0.07246366666667114
                },
                {
                    "name": "A#3",
                    "midi": 58,
                    "time": 42.75356333333317,
                    "velocity": 0.30708661417322836,
                    "duration": 0.07246366666667114
                },
                {
                    "name": "F#3",
                    "midi": 54,
                    "time": 42.82602699999984,
                    "velocity": 0.5433070866141733,
                    "duration": 0.21739099999999922
                },
                {
                    "name": "F4",
                    "midi": 65,
                    "time": 43.04341799999984,
                    "velocity": 0.33070866141732286,
                    "duration": 0.10869550000000316
                },
                {
                    "name": "F3",
                    "midi": 53,
                    "time": 43.04341799999984,
                    "velocity": 0.2992125984251969,
                    "duration": 0.10869550000000316
                },
                {
                    "name": "A#3",
                    "midi": 58,
                    "time": 43.04341799999984,
                    "velocity": 0.1732283464566929,
                    "duration": 0.10869550000000316
                },
                {
                    "name": "D4",
                    "midi": 62,
                    "time": 43.04341799999984,
                    "velocity": 0.23622047244094488,
                    "duration": 0.10869550000000316
                },
                {
                    "name": "A#2",
                    "midi": 46,
                    "time": 43.26080899999984,
                    "velocity": 0.08661417322834646,
                    "duration": 0.10869550000000316
                },
                {
                    "name": "F4",
                    "midi": 65,
                    "time": 43.47819999999984,
                    "velocity": 0.25984251968503935,
                    "duration": 0.10869549999999606
                },
                {
                    "name": "D4",
                    "midi": 62,
                    "time": 43.47819999999984,
                    "velocity": 0.25196850393700787,
                    "duration": 0.10869549999999606
                },
                {
                    "name": "A#3",
                    "midi": 58,
                    "time": 43.47819999999984,
                    "velocity": 0.1732283464566929,
                    "duration": 0.10869549999999606
                },
                {
                    "name": "F3",
                    "midi": 53,
                    "time": 43.47819999999984,
                    "velocity": 0.31496062992125984,
                    "duration": 0.10869549999999606
                },
                {
                    "name": "F2",
                    "midi": 41,
                    "time": 43.69559099999984,
                    "velocity": 0.3937007874015748,
                    "duration": 0.10869550000000316
                },
                {
                    "name": "C#4",
                    "midi": 61,
                    "time": 43.855011066666506,
                    "velocity": 0.36220472440944884,
                    "duration": 0.06340570833332748
                },
                {
                    "name": "F#4",
                    "midi": 66,
                    "time": 43.89124289999984,
                    "velocity": 0.41732283464566927,
                    "duration": 0.0498187708333262
                },
                {
                    "name": "A3",
                    "midi": 57,
                    "time": 43.912981999999836,
                    "velocity": 0.5669291338582677,
                    "duration": 0.10869549999999606
                },
                {
                    "name": "D#3",
                    "midi": 51,
                    "time": 43.912981999999836,
                    "velocity": 0.3937007874015748,
                    "duration": 0.10869549999999606
                },
                {
                    "name": "D4",
                    "midi": 62,
                    "time": 44.094141166666496,
                    "velocity": 0.3700787401574803,
                    "duration": 0.05253615833333214
                },
                {
                    "name": "G4",
                    "midi": 67,
                    "time": 44.104104920833166,
                    "velocity": 0.6377952755905512,
                    "duration": 0.07065207499999104
                },
                {
                    "name": "D5",
                    "midi": 74,
                    "time": 44.12765561249983,
                    "velocity": 0.6062992125984252,
                    "duration": 0.0398550166666638
                },
                {
                    "name": "A3",
                    "midi": 57,
                    "time": 44.13037299999983,
                    "velocity": 0.4409448818897638,
                    "duration": 0.10869549999999606
                },
                {
                    "name": "D#4",
                    "midi": 63,
                    "time": 44.13037299999983,
                    "velocity": 0.4015748031496063,
                    "duration": 0.10869549999999606
                },
                {
                    "name": "A#2",
                    "midi": 46,
                    "time": 44.34776399999983,
                    "velocity": 0.33070866141732286,
                    "duration": 0.10869549999999606
                },
                {
                    "name": "A#3",
                    "midi": 58,
                    "time": 44.56515499999983,
                    "velocity": 0.36220472440944884,
                    "duration": 0.07246366666666404
                },
                {
                    "name": "D4",
                    "midi": 62,
                    "time": 44.56515499999983,
                    "velocity": 0.2755905511811024,
                    "duration": 0.07246366666666404
                },
                {
                    "name": "F3",
                    "midi": 53,
                    "time": 44.56515499999983,
                    "velocity": 0.2677165354330709,
                    "duration": 0.07246366666666404
                },
                {
                    "name": "F4",
                    "midi": 65,
                    "time": 44.63761866666649,
                    "velocity": 0.3937007874015748,
                    "duration": 0.07246366666666404
                },
                {
                    "name": "D4",
                    "midi": 62,
                    "time": 44.710082333333155,
                    "velocity": 0.3858267716535433,
                    "duration": 0.07246366666666404
                },
                {
                    "name": "F3",
                    "midi": 53,
                    "time": 44.710082333333155,
                    "velocity": 0.1968503937007874,
                    "duration": 0.07246366666666404
                },
                {
                    "name": "A#3",
                    "midi": 58,
                    "time": 44.710082333333155,
                    "velocity": 0.30708661417322836,
                    "duration": 0.07246366666666404
                },
                {
                    "name": "F#3",
                    "midi": 54,
                    "time": 44.78254599999982,
                    "velocity": 0.5433070866141733,
                    "duration": 0.21739099999999922
                },
                {
                    "name": "F4",
                    "midi": 65,
                    "time": 44.99993699999982,
                    "velocity": 0.33070866141732286,
                    "duration": 0.10869550000000316
                },
                {
                    "name": "F3",
                    "midi": 53,
                    "time": 44.99993699999982,
                    "velocity": 0.2992125984251969,
                    "duration": 0.10869550000000316
                },
                {
                    "name": "A#3",
                    "midi": 58,
                    "time": 44.99993699999982,
                    "velocity": 0.1732283464566929,
                    "duration": 0.10869550000000316
                },
                {
                    "name": "D4",
                    "midi": 62,
                    "time": 44.99993699999982,
                    "velocity": 0.23622047244094488,
                    "duration": 0.10869550000000316
                },
                {
                    "name": "A#2",
                    "midi": 46,
                    "time": 45.217327999999824,
                    "velocity": 0.08661417322834646,
                    "duration": 0.10869550000000316
                },
                {
                    "name": "F4",
                    "midi": 65,
                    "time": 45.43471899999983,
                    "velocity": 0.25984251968503935,
                    "duration": 0.10869550000000316
                },
                {
                    "name": "D4",
                    "midi": 62,
                    "time": 45.43471899999983,
                    "velocity": 0.25196850393700787,
                    "duration": 0.10869550000000316
                },
                {
                    "name": "A#3",
                    "midi": 58,
                    "time": 45.43471899999983,
                    "velocity": 0.1732283464566929,
                    "duration": 0.10869550000000316
                },
                {
                    "name": "F3",
                    "midi": 53,
                    "time": 45.43471899999983,
                    "velocity": 0.31496062992125984,
                    "duration": 0.10869550000000316
                },
                {
                    "name": "F2",
                    "midi": 41,
                    "time": 45.65210999999984,
                    "velocity": 0.3937007874015748,
                    "duration": 0.10869550000000316
                },
                {
                    "name": "C#4",
                    "midi": 61,
                    "time": 45.811530066666506,
                    "velocity": 0.36220472440944884,
                    "duration": 0.06340570833332748
                },
                {
                    "name": "F#4",
                    "midi": 66,
                    "time": 45.84776189999984,
                    "velocity": 0.41732283464566927,
                    "duration": 0.0498187708333262
                },
                {
                    "name": "A3",
                    "midi": 57,
                    "time": 45.869500999999836,
                    "velocity": 0.5669291338582677,
                    "duration": 0.10869549999999606
                },
                {
                    "name": "D#3",
                    "midi": 51,
                    "time": 45.869500999999836,
                    "velocity": 0.3937007874015748,
                    "duration": 0.10869549999999606
                },
                {
                    "name": "D4",
                    "midi": 62,
                    "time": 46.050660166666496,
                    "velocity": 0.3700787401574803,
                    "duration": 0.05253615833333214
                },
                {
                    "name": "G4",
                    "midi": 67,
                    "time": 46.060623920833166,
                    "velocity": 0.6377952755905512,
                    "duration": 0.07065207499999104
                },
                {
                    "name": "D5",
                    "midi": 74,
                    "time": 46.08417461249983,
                    "velocity": 0.6062992125984252,
                    "duration": 0.0398550166666638
                },
                {
                    "name": "A3",
                    "midi": 57,
                    "time": 46.08689199999983,
                    "velocity": 0.4409448818897638,
                    "duration": 0.10869549999999606
                },
                {
                    "name": "D#4",
                    "midi": 63,
                    "time": 46.08689199999983,
                    "velocity": 0.4015748031496063,
                    "duration": 0.10869549999999606
                },
                {
                    "name": "A#2",
                    "midi": 46,
                    "time": 46.30428299999983,
                    "velocity": 0.1968503937007874,
                    "duration": 0.10869549999999606
                },
                {
                    "name": "D4",
                    "midi": 62,
                    "time": 46.52167399999983,
                    "velocity": 0.3858267716535433,
                    "duration": 0.07246366666666404
                },
                {
                    "name": "A#3",
                    "midi": 58,
                    "time": 46.52167399999983,
                    "velocity": 0.18110236220472442,
                    "duration": 0.07246366666666404
                },
                {
                    "name": "F3",
                    "midi": 53,
                    "time": 46.52167399999983,
                    "velocity": 0.30708661417322836,
                    "duration": 0.07246366666666404
                },
                {
                    "name": "F4",
                    "midi": 65,
                    "time": 46.59413766666649,
                    "velocity": 0.31496062992125984,
                    "duration": 0.07246366666666404
                },
                {
                    "name": "D4",
                    "midi": 62,
                    "time": 46.666601333333155,
                    "velocity": 0.33070866141732286,
                    "duration": 0.07246366666666404
                },
                {
                    "name": "F3",
                    "midi": 53,
                    "time": 46.666601333333155,
                    "velocity": 0.1968503937007874,
                    "duration": 0.07246366666666404
                },
                {
                    "name": "A#3",
                    "midi": 58,
                    "time": 46.666601333333155,
                    "velocity": 0.2283464566929134,
                    "duration": 0.07246366666666404
                },
                {
                    "name": "F#3",
                    "midi": 54,
                    "time": 46.73906499999982,
                    "velocity": 0.4409448818897638,
                    "duration": 0.21739099999999922
                },
                {
                    "name": "D4",
                    "midi": 62,
                    "time": 46.95645599999982,
                    "velocity": 0.3464566929133858,
                    "duration": 0.07246366666666404
                },
                {
                    "name": "F3",
                    "midi": 53,
                    "time": 46.95645599999982,
                    "velocity": 0.3543307086614173,
                    "duration": 0.07246366666666404
                },
                {
                    "name": "A#3",
                    "midi": 58,
                    "time": 46.95645599999982,
                    "velocity": 0.2677165354330709,
                    "duration": 0.07246366666666404
                },
                {
                    "name": "F4",
                    "midi": 65,
                    "time": 47.02891966666648,
                    "velocity": 0.4015748031496063,
                    "duration": 0.07246366666666404
                },
                {
                    "name": "F3",
                    "midi": 53,
                    "time": 47.101383333333146,
                    "velocity": 0.36220472440944884,
                    "duration": 0.07246366666666404
                },
                {
                    "name": "D4",
                    "midi": 62,
                    "time": 47.101383333333146,
                    "velocity": 0.3858267716535433,
                    "duration": 0.07246366666666404
                },
                {
                    "name": "A#3",
                    "midi": 58,
                    "time": 47.101383333333146,
                    "velocity": 0.33070866141732286,
                    "duration": 0.07246366666666404
                },
                {
                    "name": "A#2",
                    "midi": 46,
                    "time": 47.17384699999981,
                    "velocity": 0.4645669291338583,
                    "duration": 0.10869550000000316
                },
                {
                    "name": "F4",
                    "midi": 65,
                    "time": 47.39123799999982,
                    "velocity": 0.5905511811023622,
                    "duration": 0.10869550000000316
                },
                {
                    "name": "F3",
                    "midi": 53,
                    "time": 47.39123799999982,
                    "velocity": 0.3937007874015748,
                    "duration": 0.10869550000000316
                },
                {
                    "name": "D4",
                    "midi": 62,
                    "time": 47.39123799999982,
                    "velocity": 0.47244094488188976,
                    "duration": 0.10869550000000316
                },
                {
                    "name": "A#3",
                    "midi": 58,
                    "time": 47.39123799999982,
                    "velocity": 0.4094488188976378,
                    "duration": 0.10869550000000316
                },
                {
                    "name": "A2",
                    "midi": 45,
                    "time": 47.61496957083315,
                    "velocity": 0.47244094488188976,
                    "duration": 0.11956504999999851
                },
                {
                    "name": "F3",
                    "midi": 53,
                    "time": 47.82420840833315,
                    "velocity": 0.3700787401574803,
                    "duration": 0.1893113291666637
                },
                {
                    "name": "A#3",
                    "midi": 58,
                    "time": 47.826019999999815,
                    "velocity": 0.41732283464566927,
                    "duration": 0.1829707583333331
                },
                {
                    "name": "D4",
                    "midi": 62,
                    "time": 47.826019999999815,
                    "velocity": 0.4881889763779528,
                    "duration": 0.07427525833333704
                },
                {
                    "name": "F4",
                    "midi": 65,
                    "time": 47.887614116666484,
                    "velocity": 0.5984251968503937,
                    "duration": 0.08333321666666649
                },
                {
                    "name": "D4",
                    "midi": 62,
                    "time": 47.952831416666484,
                    "velocity": 0.4881889763779528,
                    "duration": 0.055253545833330975
                },
                {
                    "name": "F#3",
                    "midi": 54,
                    "time": 48.04522259166648,
                    "velocity": 0.5984251968503937,
                    "duration": 0.15760847500000352
                },
                {
                    "name": "A#3",
                    "midi": 58,
                    "time": 48.27257734583315,
                    "velocity": 0.3543307086614173,
                    "duration": 0.21014463333332145
                },
                {
                    "name": "F3",
                    "midi": 53,
                    "time": 48.27348314166648,
                    "velocity": 0.28346456692913385,
                    "duration": 0.20652144999998967
                },
                {
                    "name": "D4",
                    "midi": 62,
                    "time": 48.277106324999814,
                    "velocity": 0.4094488188976378,
                    "duration": 0.0697462791666652
                },
                {
                    "name": "F4",
                    "midi": 65,
                    "time": 48.33870044166648,
                    "velocity": 0.5039370078740157,
                    "duration": 0.09510856249999478
                },
                {
                    "name": "D4",
                    "midi": 62,
                    "time": 48.40120035416648,
                    "velocity": 0.44881889763779526,
                    "duration": 0.07065207499999815
                },
                {
                    "name": "A2",
                    "midi": 45,
                    "time": 48.494497324999806,
                    "velocity": 0.5039370078740157,
                    "duration": 0.14855051666666697
                },
                {
                    "name": "F3",
                    "midi": 53,
                    "time": 48.66206955416647,
                    "velocity": 0.5039370078740157,
                    "duration": 0.0914853791666701
                },
                {
                    "name": "A#3",
                    "midi": 58,
                    "time": 48.672939104166474,
                    "velocity": 0.5669291338582677,
                    "duration": 0.08061582916666765
                },
                {
                    "name": "D4",
                    "midi": 62,
                    "time": 48.689243429166474,
                    "velocity": 0.5039370078740157,
                    "duration": 0.0715578708333311
                },
                {
                    "name": "F4",
                    "midi": 65,
                    "time": 48.71098252916647,
                    "velocity": 0.6299212598425197,
                    "duration": 0.06068832083333575
                },
                {
                    "name": "G#3",
                    "midi": 56,
                    "time": 48.91297499999981,
                    "velocity": 0.7007874015748031,
                    "duration": 0.10869550000000316
                },
                {
                    "name": "G#2",
                    "midi": 44,
                    "time": 48.91297499999981,
                    "velocity": 0.7322834645669292,
                    "duration": 0.10869550000000316
                },
                {
                    "name": "A3",
                    "midi": 57,
                    "time": 49.021670499999814,
                    "velocity": 0.5669291338582677,
                    "duration": 0.10869549999999606
                },
                {
                    "name": "C4",
                    "midi": 60,
                    "time": 49.021670499999814,
                    "velocity": 0.5984251968503937,
                    "duration": 0.10869549999999606
                },
                {
                    "name": "G#3",
                    "midi": 56,
                    "time": 49.13036599999981,
                    "velocity": 0.5984251968503937,
                    "duration": 0.10869550000000316
                },
                {
                    "name": "G#2",
                    "midi": 44,
                    "time": 49.13036599999981,
                    "velocity": 0.6299212598425197,
                    "duration": 0.10869550000000316
                },
                {
                    "name": "C4",
                    "midi": 60,
                    "time": 49.23906149999981,
                    "velocity": 0.6692913385826772,
                    "duration": 0.10869550000000316
                },
                {
                    "name": "F#3",
                    "midi": 54,
                    "time": 49.23906149999981,
                    "velocity": 0.5669291338582677,
                    "duration": 0.10869550000000316
                },
                {
                    "name": "A3",
                    "midi": 57,
                    "time": 49.23906149999981,
                    "velocity": 0.5669291338582677,
                    "duration": 0.10869550000000316
                },
                {
                    "name": "F3",
                    "midi": 53,
                    "time": 49.34775699999982,
                    "velocity": 0.6299212598425197,
                    "duration": 0.10869550000000316
                },
                {
                    "name": "F2",
                    "midi": 41,
                    "time": 49.34775699999982,
                    "velocity": 0.5669291338582677,
                    "duration": 0.10869550000000316
                },
                {
                    "name": "D#3",
                    "midi": 51,
                    "time": 49.45645249999982,
                    "velocity": 0.4881889763779528,
                    "duration": 0.10869550000000316
                },
                {
                    "name": "A3",
                    "midi": 57,
                    "time": 49.45645249999982,
                    "velocity": 0.7716535433070866,
                    "duration": 0.10869550000000316
                },
                {
                    "name": "F#3",
                    "midi": 54,
                    "time": 49.45645249999982,
                    "velocity": 0.7007874015748031,
                    "duration": 0.10869550000000316
                },
                {
                    "name": "C#3",
                    "midi": 49,
                    "time": 49.56514799999982,
                    "velocity": 0.7007874015748031,
                    "duration": 0.21739099999999922
                },
                {
                    "name": "C#2",
                    "midi": 37,
                    "time": 49.56514799999982,
                    "velocity": 0.7322834645669292,
                    "duration": 0.21739099999999922
                },
                {
                    "name": "G#3",
                    "midi": 56,
                    "time": 49.78253899999982,
                    "velocity": 0.2992125984251969,
                    "duration": 0.21739099999999922
                },
                {
                    "name": "F4",
                    "midi": 65,
                    "time": 49.78253899999982,
                    "velocity": 0.7007874015748031,
                    "duration": 0.21739099999999922
                },
                {
                    "name": "C#4",
                    "midi": 61,
                    "time": 49.78253899999982,
                    "velocity": 0.47244094488188976,
                    "duration": 0.21739099999999922
                },
                {
                    "name": "C#6",
                    "midi": 85,
                    "time": 49.78253899999982,
                    "velocity": 0.84251968503937,
                    "duration": 0.21739099999999922
                },
                {
                    "name": "F5",
                    "midi": 77,
                    "time": 49.78253899999982,
                    "velocity": 0.7322834645669292,
                    "duration": 0.21739099999999922
                },
                {
                    "name": "C#5",
                    "midi": 73,
                    "time": 49.78253899999982,
                    "velocity": 0.6692913385826772,
                    "duration": 0.21739099999999922
                },
                {
                    "name": "C#3",
                    "midi": 49,
                    "time": 49.99992999999982,
                    "velocity": 0.6692913385826772,
                    "duration": 0.21739099999999212
                },
                {
                    "name": "C5",
                    "midi": 72,
                    "time": 49.99992999999982,
                    "velocity": 0.5669291338582677,
                    "duration": 0.07246366666666404
                },
                {
                    "name": "F5",
                    "midi": 77,
                    "time": 50.072393666666486,
                    "velocity": 0.5984251968503937,
                    "duration": 0.07246366666666404
                },
                {
                    "name": "C#6",
                    "midi": 85,
                    "time": 50.072393666666486,
                    "velocity": 0.7007874015748031,
                    "duration": 0.07246366666666404
                },
                {
                    "name": "C5",
                    "midi": 72,
                    "time": 50.14485733333315,
                    "velocity": 0.7007874015748031,
                    "duration": 0.07246366666666404
                },
                {
                    "name": "A3",
                    "midi": 57,
                    "time": 50.217320999999814,
                    "velocity": 0.7322834645669292,
                    "duration": 0.21739099999999922
                },
                {
                    "name": "F#4",
                    "midi": 66,
                    "time": 50.217320999999814,
                    "velocity": 0.7322834645669292,
                    "duration": 0.21739099999999922
                },
                {
                    "name": "D4",
                    "midi": 62,
                    "time": 50.217320999999814,
                    "velocity": 0.7007874015748031,
                    "duration": 0.21739099999999922
                },
                {
                    "name": "A5",
                    "midi": 81,
                    "time": 50.217320999999814,
                    "velocity": 0.7322834645669292,
                    "duration": 0.8695639999999969
                },
                {
                    "name": "F#5",
                    "midi": 78,
                    "time": 50.217320999999814,
                    "velocity": 0.4409448818897638,
                    "duration": 0.8695639999999969
                },
                {
                    "name": "D5",
                    "midi": 74,
                    "time": 50.217320999999814,
                    "velocity": 0.7007874015748031,
                    "duration": 0.8695639999999969
                },
                {
                    "name": "A4",
                    "midi": 69,
                    "time": 50.217320999999814,
                    "velocity": 0.5669291338582677,
                    "duration": 0.8695639999999969
                },
                {
                    "name": "C#3",
                    "midi": 49,
                    "time": 50.43471199999981,
                    "velocity": 0.47244094488188976,
                    "duration": 0.21739099999999922
                },
                {
                    "name": "A3",
                    "midi": 57,
                    "time": 50.65210299999981,
                    "velocity": 0.3937007874015748,
                    "duration": 0.21739099999999922
                },
                {
                    "name": "F#4",
                    "midi": 66,
                    "time": 50.65210299999981,
                    "velocity": 0.4881889763779528,
                    "duration": 0.21739099999999922
                },
                {
                    "name": "D4",
                    "midi": 62,
                    "time": 50.65210299999981,
                    "velocity": 0.5354330708661418,
                    "duration": 0.21739099999999922
                },
                {
                    "name": "C#3",
                    "midi": 49,
                    "time": 50.86949399999981,
                    "velocity": 0.5354330708661418,
                    "duration": 0.21739099999999922
                },
                {
                    "name": "A#3",
                    "midi": 58,
                    "time": 51.08688499999981,
                    "velocity": 0.6299212598425197,
                    "duration": 0.21739099999999922
                },
                {
                    "name": "D#4",
                    "midi": 63,
                    "time": 51.08688499999981,
                    "velocity": 0.6692913385826772,
                    "duration": 0.21739099999999922
                },
                {
                    "name": "F#4",
                    "midi": 66,
                    "time": 51.08688499999981,
                    "velocity": 0.6692913385826772,
                    "duration": 0.21739099999999922
                },
                {
                    "name": "F#5",
                    "midi": 78,
                    "time": 51.08688499999981,
                    "velocity": 0.6692913385826772,
                    "duration": 0.43478200000000555
                },
                {
                    "name": "D#5",
                    "midi": 75,
                    "time": 51.08688499999981,
                    "velocity": 0.7007874015748031,
                    "duration": 0.43478200000000555
                },
                {
                    "name": "A#5",
                    "midi": 82,
                    "time": 51.08688499999981,
                    "velocity": 0.7007874015748031,
                    "duration": 0.43478200000000555
                },
                {
                    "name": "A#4",
                    "midi": 70,
                    "time": 51.08688499999981,
                    "velocity": 0.7716535433070866,
                    "duration": 0.43478200000000555
                },
                {
                    "name": "C#3",
                    "midi": 49,
                    "time": 51.30427599999981,
                    "velocity": 0.5984251968503937,
                    "duration": 0.21739100000000633
                },
                {
                    "name": "C#6",
                    "midi": 85,
                    "time": 51.521666999999816,
                    "velocity": 0.7716535433070866,
                    "duration": 0.21739099999999922
                },
                {
                    "name": "C#5",
                    "midi": 73,
                    "time": 51.521666999999816,
                    "velocity": 0.5039370078740157,
                    "duration": 0.21739099999999922
                },
                {
                    "name": "F5",
                    "midi": 77,
                    "time": 51.521666999999816,
                    "velocity": 0.7007874015748031,
                    "duration": 0.21739099999999922
                },
                {
                    "name": "F4",
                    "midi": 65,
                    "time": 51.521666999999816,
                    "velocity": 0.7322834645669292,
                    "duration": 0.15217369999999875
                },
                {
                    "name": "G#3",
                    "midi": 56,
                    "time": 51.521666999999816,
                    "velocity": 0.7007874015748031,
                    "duration": 0.15217369999999875
                },
                {
                    "name": "C#4",
                    "midi": 61,
                    "time": 51.521666999999816,
                    "velocity": 0.5669291338582677,
                    "duration": 0.15217369999999875
                },
                {
                    "name": "C5",
                    "midi": 72,
                    "time": 51.739057999999815,
                    "velocity": 0.7322834645669292,
                    "duration": 0.07246366666666404
                },
                {
                    "name": "C#3",
                    "midi": 49,
                    "time": 51.739057999999815,
                    "velocity": 0.5984251968503937,
                    "duration": 0.15217369999999164
                },
                {
                    "name": "F5",
                    "midi": 77,
                    "time": 51.81152166666648,
                    "velocity": 0.7007874015748031,
                    "duration": 0.07246366666666404
                },
                {
                    "name": "C#6",
                    "midi": 85,
                    "time": 51.81152166666648,
                    "velocity": 0.7007874015748031,
                    "duration": 0.07246366666666404
                },
                {
                    "name": "C5",
                    "midi": 72,
                    "time": 51.88398533333314,
                    "velocity": 0.7007874015748031,
                    "duration": 0.07246366666666404
                },
                {
                    "name": "F#5",
                    "midi": 78,
                    "time": 51.95644899999981,
                    "velocity": 0.6299212598425197,
                    "duration": 1.086954999999989
                },
                {
                    "name": "A5",
                    "midi": 81,
                    "time": 51.95644899999981,
                    "velocity": 0.7716535433070866,
                    "duration": 1.086954999999989
                },
                {
                    "name": "A4",
                    "midi": 69,
                    "time": 51.95644899999981,
                    "velocity": 0.7322834645669292,
                    "duration": 1.086954999999989
                },
                {
                    "name": "D5",
                    "midi": 74,
                    "time": 51.95644899999981,
                    "velocity": 0.7716535433070866,
                    "duration": 1.086954999999989
                },
                {
                    "name": "A3",
                    "midi": 57,
                    "time": 51.95644899999981,
                    "velocity": 0.6692913385826772,
                    "duration": 0.15217369999999875
                },
                {
                    "name": "F#4",
                    "midi": 66,
                    "time": 51.95644899999981,
                    "velocity": 0.7322834645669292,
                    "duration": 0.15217369999999875
                },
                {
                    "name": "D4",
                    "midi": 62,
                    "time": 51.95644899999981,
                    "velocity": 0.7007874015748031,
                    "duration": 0.15217369999999875
                },
                {
                    "name": "C#3",
                    "midi": 49,
                    "time": 52.17383999999981,
                    "velocity": 0.5039370078740157,
                    "duration": 0.15217369999999875
                },
                {
                    "name": "A3",
                    "midi": 57,
                    "time": 52.3912309999998,
                    "velocity": 0.36220472440944884,
                    "duration": 0.15217369999999875
                },
                {
                    "name": "F#4",
                    "midi": 66,
                    "time": 52.3912309999998,
                    "velocity": 0.5039370078740157,
                    "duration": 0.15217369999999875
                },
                {
                    "name": "D4",
                    "midi": 62,
                    "time": 52.3912309999998,
                    "velocity": 0.5354330708661418,
                    "duration": 0.15217369999999875
                },
                {
                    "name": "C#3",
                    "midi": 49,
                    "time": 52.6086219999998,
                    "velocity": 0.3858267716535433,
                    "duration": 0.15217369999999875
                },
                {
                    "name": "A3",
                    "midi": 57,
                    "time": 52.8260129999998,
                    "velocity": 0.4409448818897638,
                    "duration": 0.15217369999999875
                },
                {
                    "name": "F#4",
                    "midi": 66,
                    "time": 52.8260129999998,
                    "velocity": 0.4881889763779528,
                    "duration": 0.15217369999999875
                },
                {
                    "name": "D4",
                    "midi": 62,
                    "time": 52.8260129999998,
                    "velocity": 0.5039370078740157,
                    "duration": 0.15217369999999875
                },
                {
                    "name": "F#5",
                    "midi": 78,
                    "time": 53.043403999999796,
                    "velocity": 0.7007874015748031,
                    "duration": 0.43478199999999845
                },
                {
                    "name": "D#5",
                    "midi": 75,
                    "time": 53.043403999999796,
                    "velocity": 0.6299212598425197,
                    "duration": 0.43478199999999845
                },
                {
                    "name": "A#5",
                    "midi": 82,
                    "time": 53.043403999999796,
                    "velocity": 0.7007874015748031,
                    "duration": 0.43478199999999845
                },
                {
                    "name": "A#4",
                    "midi": 70,
                    "time": 53.043403999999796,
                    "velocity": 0.6692913385826772,
                    "duration": 0.43478199999999845
                },
                {
                    "name": "C#3",
                    "midi": 49,
                    "time": 53.043403999999796,
                    "velocity": 0.4881889763779528,
                    "duration": 0.15217369999999875
                },
                {
                    "name": "F#4",
                    "midi": 66,
                    "time": 53.260794999999796,
                    "velocity": 0.4881889763779528,
                    "duration": 0.15217369999999875
                },
                {
                    "name": "D#4",
                    "midi": 63,
                    "time": 53.260794999999796,
                    "velocity": 0.4881889763779528,
                    "duration": 0.15217369999999875
                },
                {
                    "name": "A#3",
                    "midi": 58,
                    "time": 53.260794999999796,
                    "velocity": 0.4881889763779528,
                    "duration": 0.15217369999999875
                },
                {
                    "name": "C#3",
                    "midi": 49,
                    "time": 53.478185999999795,
                    "velocity": 0.4330708661417323,
                    "duration": 0.21739099999999922
                },
                {
                    "name": "F4",
                    "midi": 65,
                    "time": 53.695576999999794,
                    "velocity": 0.48031496062992124,
                    "duration": 0.07246366666666404
                },
                {
                    "name": "G#3",
                    "midi": 56,
                    "time": 53.695576999999794,
                    "velocity": 0.2125984251968504,
                    "duration": 0.07246366666666404
                },
                {
                    "name": "C#4",
                    "midi": 61,
                    "time": 53.695576999999794,
                    "velocity": 0.3700787401574803,
                    "duration": 0.07246366666666404
                },
                {
                    "name": "G#4",
                    "midi": 68,
                    "time": 53.76804066666646,
                    "velocity": 0.3228346456692913,
                    "duration": 0.07246366666666404
                },
                {
                    "name": "F4",
                    "midi": 65,
                    "time": 53.84050433333312,
                    "velocity": 0.3779527559055118,
                    "duration": 0.07246366666666404
                },
                {
                    "name": "G#3",
                    "midi": 56,
                    "time": 53.84050433333312,
                    "velocity": 0.18110236220472442,
                    "duration": 0.07246366666666404
                },
                {
                    "name": "C#4",
                    "midi": 61,
                    "time": 53.84050433333312,
                    "velocity": 0.2755905511811024,
                    "duration": 0.07246366666666404
                },
                {
                    "name": "A3",
                    "midi": 57,
                    "time": 53.912967999999786,
                    "velocity": 0.5118110236220472,
                    "duration": 0.21739099999999922
                },
                {
                    "name": "G#4",
                    "midi": 68,
                    "time": 54.130358999999785,
                    "velocity": 0.1889763779527559,
                    "duration": 0.21739099999999922
                },
                {
                    "name": "F4",
                    "midi": 65,
                    "time": 54.130358999999785,
                    "velocity": 0.3937007874015748,
                    "duration": 0.21739099999999922
                },
                {
                    "name": "G#3",
                    "midi": 56,
                    "time": 54.130358999999785,
                    "velocity": 0.09448818897637795,
                    "duration": 0.21739099999999922
                },
                {
                    "name": "C#4",
                    "midi": 61,
                    "time": 54.130358999999785,
                    "velocity": 0.14960629921259844,
                    "duration": 0.21739099999999922
                },
                {
                    "name": "C#3",
                    "midi": 49,
                    "time": 54.347749999999785,
                    "velocity": 0.2283464566929134,
                    "duration": 0.21739099999999922
                },
                {
                    "name": "G#4",
                    "midi": 68,
                    "time": 54.565140999999784,
                    "velocity": 0.12598425196850394,
                    "duration": 0.21739099999999922
                },
                {
                    "name": "G#3",
                    "midi": 56,
                    "time": 54.565140999999784,
                    "velocity": 0.06299212598425197,
                    "duration": 0.21739099999999922
                },
                {
                    "name": "F4",
                    "midi": 65,
                    "time": 54.565140999999784,
                    "velocity": 0.2047244094488189,
                    "duration": 0.21739099999999922
                },
                {
                    "name": "C#4",
                    "midi": 61,
                    "time": 54.565140999999784,
                    "velocity": 0.1732283464566929,
                    "duration": 0.21739099999999922
                },
                {
                    "name": "G#2",
                    "midi": 44,
                    "time": 54.78253199999978,
                    "velocity": 0.4409448818897638,
                    "duration": 0.10869550000000316
                },
                {
                    "name": "F4",
                    "midi": 65,
                    "time": 54.98452447083312,
                    "velocity": 0.4566929133858268,
                    "duration": 0.04528979166666858
                },
                {
                    "name": "G3",
                    "midi": 55,
                    "time": 54.99992299999979,
                    "velocity": 0.5118110236220472,
                    "duration": 0.10869549999999606
                },
                {
                    "name": "C#4",
                    "midi": 61,
                    "time": 54.99992299999979,
                    "velocity": 0.5118110236220472,
                    "duration": 0.10869549999999606
                },
                {
                    "name": "A4",
                    "midi": 69,
                    "time": 55.00082879583312,
                    "velocity": 0.4566929133858268,
                    "duration": 0.049818770833333303
                },
                {
                    "name": "F4",
                    "midi": 65,
                    "time": 55.182893758333115,
                    "velocity": 0.49606299212598426,
                    "duration": 0.040760812499996746
                },
                {
                    "name": "A#4",
                    "midi": 70,
                    "time": 55.19466910416645,
                    "velocity": 0.5826771653543307,
                    "duration": 0.04800717916666031
                },
                {
                    "name": "F5",
                    "midi": 77,
                    "time": 55.21459661249978,
                    "velocity": 0.5826771653543307,
                    "duration": 0.055253545833330975
                },
                {
                    "name": "C4",
                    "midi": 60,
                    "time": 55.21731399999978,
                    "velocity": 0.5590551181102362,
                    "duration": 0.10869549999999606
                },
                {
                    "name": "F#4",
                    "midi": 66,
                    "time": 55.21731399999978,
                    "velocity": 0.6062992125984252,
                    "duration": 0.10869549999999606
                },
                {
                    "name": "C#3",
                    "midi": 49,
                    "time": 55.43470499999978,
                    "velocity": 0.4330708661417323,
                    "duration": 0.21739100000000633
                },
                {
                    "name": "F4",
                    "midi": 65,
                    "time": 55.65209599999979,
                    "velocity": 0.48031496062992124,
                    "duration": 0.07246366666666404
                },
                {
                    "name": "G#3",
                    "midi": 56,
                    "time": 55.65209599999979,
                    "velocity": 0.2125984251968504,
                    "duration": 0.07246366666666404
                },
                {
                    "name": "C#4",
                    "midi": 61,
                    "time": 55.65209599999979,
                    "velocity": 0.3700787401574803,
                    "duration": 0.07246366666666404
                },
                {
                    "name": "G#4",
                    "midi": 68,
                    "time": 55.72455966666645,
                    "velocity": 0.3228346456692913,
                    "duration": 0.07246366666666404
                },
                {
                    "name": "F4",
                    "midi": 65,
                    "time": 55.797023333333115,
                    "velocity": 0.3779527559055118,
                    "duration": 0.07246366666666404
                },
                {
                    "name": "G#3",
                    "midi": 56,
                    "time": 55.797023333333115,
                    "velocity": 0.18110236220472442,
                    "duration": 0.07246366666666404
                },
                {
                    "name": "C#4",
                    "midi": 61,
                    "time": 55.797023333333115,
                    "velocity": 0.2755905511811024,
                    "duration": 0.07246366666666404
                },
                {
                    "name": "A3",
                    "midi": 57,
                    "time": 55.86948699999978,
                    "velocity": 0.5118110236220472,
                    "duration": 0.21739099999999922
                },
                {
                    "name": "G#4",
                    "midi": 68,
                    "time": 56.08687799999978,
                    "velocity": 0.1889763779527559,
                    "duration": 0.21739099999999922
                },
                {
                    "name": "F4",
                    "midi": 65,
                    "time": 56.08687799999978,
                    "velocity": 0.3937007874015748,
                    "duration": 0.21739099999999922
                },
                {
                    "name": "G#3",
                    "midi": 56,
                    "time": 56.08687799999978,
                    "velocity": 0.09448818897637795,
                    "duration": 0.21739099999999922
                },
                {
                    "name": "C#4",
                    "midi": 61,
                    "time": 56.08687799999978,
                    "velocity": 0.14960629921259844,
                    "duration": 0.21739099999999922
                },
                {
                    "name": "C#3",
                    "midi": 49,
                    "time": 56.30426899999978,
                    "velocity": 0.2283464566929134,
                    "duration": 0.21739099999999922
                },
                {
                    "name": "G#4",
                    "midi": 68,
                    "time": 56.52165999999978,
                    "velocity": 0.12598425196850394,
                    "duration": 0.21739099999999922
                },
                {
                    "name": "G#3",
                    "midi": 56,
                    "time": 56.52165999999978,
                    "velocity": 0.06299212598425197,
                    "duration": 0.21739099999999922
                },
                {
                    "name": "F4",
                    "midi": 65,
                    "time": 56.52165999999978,
                    "velocity": 0.2047244094488189,
                    "duration": 0.21739099999999922
                },
                {
                    "name": "C#4",
                    "midi": 61,
                    "time": 56.52165999999978,
                    "velocity": 0.1732283464566929,
                    "duration": 0.21739099999999922
                },
                {
                    "name": "G#2",
                    "midi": 44,
                    "time": 56.739050999999776,
                    "velocity": 0.4409448818897638,
                    "duration": 0.10869550000000316
                },
                {
                    "name": "F4",
                    "midi": 65,
                    "time": 56.941043470833115,
                    "velocity": 0.4566929133858268,
                    "duration": 0.04528979166666858
                },
                {
                    "name": "G3",
                    "midi": 55,
                    "time": 56.95644199999978,
                    "velocity": 0.5118110236220472,
                    "duration": 0.10869549999999606
                },
                {
                    "name": "C#4",
                    "midi": 61,
                    "time": 56.95644199999978,
                    "velocity": 0.5118110236220472,
                    "duration": 0.10869549999999606
                },
                {
                    "name": "A4",
                    "midi": 69,
                    "time": 56.957347795833115,
                    "velocity": 0.4566929133858268,
                    "duration": 0.049818770833333303
                },
                {
                    "name": "F4",
                    "midi": 65,
                    "time": 57.13941275833311,
                    "velocity": 0.49606299212598426,
                    "duration": 0.040760812499996746
                },
                {
                    "name": "A#4",
                    "midi": 70,
                    "time": 57.151188104166444,
                    "velocity": 0.5826771653543307,
                    "duration": 0.04800717916666031
                },
                {
                    "name": "F5",
                    "midi": 77,
                    "time": 57.171115612499776,
                    "velocity": 0.5826771653543307,
                    "duration": 0.055253545833330975
                },
                {
                    "name": "C4",
                    "midi": 60,
                    "time": 57.173832999999775,
                    "velocity": 0.5590551181102362,
                    "duration": 0.10869549999999606
                },
                {
                    "name": "F#4",
                    "midi": 66,
                    "time": 57.173832999999775,
                    "velocity": 0.6062992125984252,
                    "duration": 0.10869549999999606
                },
                {
                    "name": "G#3",
                    "midi": 56,
                    "time": 57.391223999999774,
                    "velocity": 0.3779527559055118,
                    "duration": 0.10869550000000316
                },
                {
                    "name": "C#3",
                    "midi": 49,
                    "time": 57.391223999999774,
                    "velocity": 0.2992125984251969,
                    "duration": 0.10869550000000316
                },
                {
                    "name": "F4",
                    "midi": 65,
                    "time": 57.60861499999978,
                    "velocity": 0.47244094488188976,
                    "duration": 0.07246366666666404
                },
                {
                    "name": "G#3",
                    "midi": 56,
                    "time": 57.60861499999978,
                    "velocity": 0.16535433070866143,
                    "duration": 0.07246366666666404
                },
                {
                    "name": "C#4",
                    "midi": 61,
                    "time": 57.60861499999978,
                    "velocity": 0.2283464566929134,
                    "duration": 0.07246366666666404
                },
                {
                    "name": "G#4",
                    "midi": 68,
                    "time": 57.681078666666444,
                    "velocity": 0.36220472440944884,
                    "duration": 0.07246366666666404
                },
                {
                    "name": "F4",
                    "midi": 65,
                    "time": 57.75354233333311,
                    "velocity": 0.4330708661417323,
                    "duration": 0.07246366666666404
                },
                {
                    "name": "G#3",
                    "midi": 56,
                    "time": 57.75354233333311,
                    "velocity": 0.2283464566929134,
                    "duration": 0.07246366666666404
                },
                {
                    "name": "C#4",
                    "midi": 61,
                    "time": 57.75354233333311,
                    "velocity": 0.3937007874015748,
                    "duration": 0.07246366666666404
                },
                {
                    "name": "A3",
                    "midi": 57,
                    "time": 57.82600599999977,
                    "velocity": 0.5669291338582677,
                    "duration": 0.21739099999999922
                },
                {
                    "name": "F4",
                    "midi": 65,
                    "time": 58.04339699999977,
                    "velocity": 0.2992125984251969,
                    "duration": 0.07246366666666404
                },
                {
                    "name": "G#3",
                    "midi": 56,
                    "time": 58.04339699999977,
                    "velocity": 0.12598425196850394,
                    "duration": 0.07246366666666404
                },
                {
                    "name": "C#4",
                    "midi": 61,
                    "time": 58.04339699999977,
                    "velocity": 0.14960629921259844,
                    "duration": 0.07246366666666404
                },
                {
                    "name": "G#4",
                    "midi": 68,
                    "time": 58.115860666666435,
                    "velocity": 0.4409448818897638,
                    "duration": 0.07246366666666404
                },
                {
                    "name": "F4",
                    "midi": 65,
                    "time": 58.1883243333331,
                    "velocity": 0.3937007874015748,
                    "duration": 0.07246366666666404
                },
                {
                    "name": "G#3",
                    "midi": 56,
                    "time": 58.1883243333331,
                    "velocity": 0.36220472440944884,
                    "duration": 0.07246366666666404
                },
                {
                    "name": "C#4",
                    "midi": 61,
                    "time": 58.1883243333331,
                    "velocity": 0.4094488188976378,
                    "duration": 0.07246366666666404
                },
                {
                    "name": "G#3",
                    "midi": 56,
                    "time": 58.26078799999976,
                    "velocity": 0.47244094488188976,
                    "duration": 0.10869550000000316
                },
                {
                    "name": "C#3",
                    "midi": 49,
                    "time": 58.26078799999976,
                    "velocity": 0.41732283464566927,
                    "duration": 0.10869550000000316
                },
                {
                    "name": "D#3",
                    "midi": 51,
                    "time": 58.47817899999977,
                    "velocity": 0.5039370078740157,
                    "duration": 0.10869550000000316
                },
                {
                    "name": "A#3",
                    "midi": 58,
                    "time": 58.47817899999977,
                    "velocity": 0.5354330708661418,
                    "duration": 0.10869550000000316
                },
                {
                    "name": "E3",
                    "midi": 52,
                    "time": 58.695569999999776,
                    "velocity": 0.4881889763779528,
                    "duration": 0.10869550000000316
                },
                {
                    "name": "B3",
                    "midi": 59,
                    "time": 58.695569999999776,
                    "velocity": 0.5669291338582677,
                    "duration": 0.10869550000000316
                },
                {
                    "name": "G#4",
                    "midi": 68,
                    "time": 58.912960999999775,
                    "velocity": 0.6692913385826772,
                    "duration": 0.07246366666666404
                },
                {
                    "name": "D4",
                    "midi": 62,
                    "time": 58.912960999999775,
                    "velocity": 0.5669291338582677,
                    "duration": 0.07246366666666404
                },
                {
                    "name": "B3",
                    "midi": 59,
                    "time": 58.912960999999775,
                    "velocity": 0.4330708661417323,
                    "duration": 0.07246366666666404
                },
                {
                    "name": "B4",
                    "midi": 71,
                    "time": 58.98542466666644,
                    "velocity": 0.7007874015748031,
                    "duration": 0.07246366666666404
                },
                {
                    "name": "G#4",
                    "midi": 68,
                    "time": 59.0578883333331,
                    "velocity": 0.6299212598425197,
                    "duration": 0.07246366666666404
                },
                {
                    "name": "B3",
                    "midi": 59,
                    "time": 59.0578883333331,
                    "velocity": 0.5669291338582677,
                    "duration": 0.07246366666666404
                },
                {
                    "name": "D4",
                    "midi": 62,
                    "time": 59.0578883333331,
                    "velocity": 0.5984251968503937,
                    "duration": 0.07246366666666404
                },
                {
                    "name": "C#4",
                    "midi": 61,
                    "time": 59.13035199999977,
                    "velocity": 0.7007874015748031,
                    "duration": 0.21739099999999922
                },
                {
                    "name": "G#4",
                    "midi": 68,
                    "time": 59.34774299999977,
                    "velocity": 0.5669291338582677,
                    "duration": 0.07246366666666404
                },
                {
                    "name": "B3",
                    "midi": 59,
                    "time": 59.34774299999977,
                    "velocity": 0.4094488188976378,
                    "duration": 0.07246366666666404
                },
                {
                    "name": "D4",
                    "midi": 62,
                    "time": 59.34774299999977,
                    "velocity": 0.6299212598425197,
                    "duration": 0.07246366666666404
                },
                {
                    "name": "B4",
                    "midi": 71,
                    "time": 59.42020666666643,
                    "velocity": 0.7322834645669292,
                    "duration": 0.07246366666666404
                },
                {
                    "name": "G#4",
                    "midi": 68,
                    "time": 59.492670333333095,
                    "velocity": 0.5669291338582677,
                    "duration": 0.07246366666666404
                },
                {
                    "name": "B3",
                    "midi": 59,
                    "time": 59.492670333333095,
                    "velocity": 0.4881889763779528,
                    "duration": 0.07246366666666404
                },
                {
                    "name": "D4",
                    "midi": 62,
                    "time": 59.492670333333095,
                    "velocity": 0.7007874015748031,
                    "duration": 0.07246366666666404
                },
                {
                    "name": "B3",
                    "midi": 59,
                    "time": 59.56513399999976,
                    "velocity": 0.7322834645669292,
                    "duration": 0.10869550000000316
                },
                {
                    "name": "E3",
                    "midi": 52,
                    "time": 59.56513399999976,
                    "velocity": 0.6692913385826772,
                    "duration": 0.10869550000000316
                },
                {
                    "name": "C#4",
                    "midi": 61,
                    "time": 59.782524999999765,
                    "velocity": 0.7322834645669292,
                    "duration": 0.10869550000000316
                },
                {
                    "name": "F#3",
                    "midi": 54,
                    "time": 59.782524999999765,
                    "velocity": 0.7322834645669292,
                    "duration": 0.10869550000000316
                },
                {
                    "name": "G#3",
                    "midi": 56,
                    "time": 59.99991599999977,
                    "velocity": 0.13385826771653545,
                    "duration": 0.21739099999999922
                },
                {
                    "name": "D#4",
                    "midi": 63,
                    "time": 60.21730699999977,
                    "velocity": 0.25984251968503935,
                    "duration": 0.21739100000001343
                },
                {
                    "name": "G#4",
                    "midi": 68,
                    "time": 60.21730699999977,
                    "velocity": 0.3543307086614173,
                    "duration": 0.04619558750000152
                },
                {
                    "name": "G#4",
                    "midi": 68,
                    "time": 60.28977066666644,
                    "velocity": 0.31496062992125984,
                    "duration": 0.04619558750000152
                },
                {
                    "name": "G#4",
                    "midi": 68,
                    "time": 60.36223433333311,
                    "velocity": 0.31496062992125984,
                    "duration": 0.04619558750000152
                },
                {
                    "name": "D#5",
                    "midi": 75,
                    "time": 60.434697999999784,
                    "velocity": 0.2204724409448819,
                    "duration": 0.21739099999999922
                },
                {
                    "name": "C5",
                    "midi": 72,
                    "time": 60.434697999999784,
                    "velocity": 0.18110236220472442,
                    "duration": 0.21739099999999922
                },
                {
                    "name": "D#4",
                    "midi": 63,
                    "time": 60.65208899999978,
                    "velocity": 0.23622047244094488,
                    "duration": 0.21739100000001343
                },
                {
                    "name": "G#4",
                    "midi": 68,
                    "time": 60.65208899999978,
                    "velocity": 0.3543307086614173,
                    "duration": 0.04619558750000152
                },
                {
                    "name": "G#4",
                    "midi": 68,
                    "time": 60.724552666666455,
                    "velocity": 0.31496062992125984,
                    "duration": 0.04619558750000152
                },
                {
                    "name": "G#4",
                    "midi": 68,
                    "time": 60.797016333333126,
                    "velocity": 0.31496062992125984,
                    "duration": 0.04619558750000152
                },
                {
                    "name": "G#3",
                    "midi": 56,
                    "time": 60.8694799999998,
                    "velocity": 0.2204724409448819,
                    "duration": 0.21739100000001343
                },
                {
                    "name": "G#4",
                    "midi": 68,
                    "time": 60.8694799999998,
                    "velocity": 0.3543307086614173,
                    "duration": 0.04619558750000152
                },
                {
                    "name": "G#4",
                    "midi": 68,
                    "time": 60.94194366666647,
                    "velocity": 0.31496062992125984,
                    "duration": 0.04619558750000152
                },
                {
                    "name": "G#4",
                    "midi": 68,
                    "time": 61.01440733333314,
                    "velocity": 0.31496062992125984,
                    "duration": 0.04619558750000152
                },
                {
                    "name": "D#4",
                    "midi": 63,
                    "time": 61.08687099999981,
                    "velocity": 0.2204724409448819,
                    "duration": 0.21739100000001343
                },
                {
                    "name": "G#4",
                    "midi": 68,
                    "time": 61.08687099999981,
                    "velocity": 0.3543307086614173,
                    "duration": 0.04619558750000152
                },
                {
                    "name": "G#4",
                    "midi": 68,
                    "time": 61.15933466666648,
                    "velocity": 0.29133858267716534,
                    "duration": 0.04619558750000152
                },
                {
                    "name": "G#4",
                    "midi": 68,
                    "time": 61.23179833333315,
                    "velocity": 0.3543307086614173,
                    "duration": 0.04619558750000152
                },
                {
                    "name": "C#4",
                    "midi": 61,
                    "time": 61.304261999999824,
                    "velocity": 0.33858267716535434,
                    "duration": 0.21739099999999922
                },
                {
                    "name": "G#4",
                    "midi": 68,
                    "time": 61.52165299999982,
                    "velocity": 0.3858267716535433,
                    "duration": 0.21739100000000633
                },
                {
                    "name": "A4",
                    "midi": 69,
                    "time": 61.52165299999982,
                    "velocity": 0.36220472440944884,
                    "duration": 0.04710138333333447
                },
                {
                    "name": "G4",
                    "midi": 67,
                    "time": 61.52165299999982,
                    "velocity": 0.3543307086614173,
                    "duration": 0.04710138333333447
                },
                {
                    "name": "B4",
                    "midi": 71,
                    "time": 61.56875438333316,
                    "velocity": 0.4094488188976378,
                    "duration": 0.04710138333333447
                },
                {
                    "name": "C#5",
                    "midi": 73,
                    "time": 61.61585576666649,
                    "velocity": 0.33070866141732286,
                    "duration": 0.04710138333333447
                },
                {
                    "name": "D#5",
                    "midi": 75,
                    "time": 61.662957149999826,
                    "velocity": 0.36220472440944884,
                    "duration": 0.04710138333333447
                },
                {
                    "name": "E5",
                    "midi": 76,
                    "time": 61.71005853333316,
                    "velocity": 0.4330708661417323,
                    "duration": 0.04800717916666741
                },
                {
                    "name": "D#5",
                    "midi": 75,
                    "time": 61.73904399999983,
                    "velocity": 0.29133858267716534,
                    "duration": 0.21739100000000633
                },
                {
                    "name": "F#5",
                    "midi": 78,
                    "time": 61.75806571249983,
                    "velocity": 0.5984251968503937,
                    "duration": 0.04710138333333447
                },
                {
                    "name": "G#5",
                    "midi": 80,
                    "time": 61.80516709583316,
                    "velocity": 0.5984251968503937,
                    "duration": 0.04710138333333447
                },
                {
                    "name": "A5",
                    "midi": 81,
                    "time": 61.8522684791665,
                    "velocity": 0.7007874015748031,
                    "duration": 0.04710138333333447
                },
                {
                    "name": "G#5",
                    "midi": 80,
                    "time": 61.89936986249983,
                    "velocity": 0.4645669291338583,
                    "duration": 0.04710138333333447
                },
                {
                    "name": "F#5",
                    "midi": 78,
                    "time": 61.946471245833166,
                    "velocity": 0.4330708661417323,
                    "duration": 0.04710138333333447
                },
                {
                    "name": "G#4",
                    "midi": 68,
                    "time": 61.956434999999836,
                    "velocity": 0.30708661417322836,
                    "duration": 0.21739099999999922
                },
                {
                    "name": "E5",
                    "midi": 76,
                    "time": 61.9935726291665,
                    "velocity": 0.4645669291338583,
                    "duration": 0.04800717916666741
                },
                {
                    "name": "D#5",
                    "midi": 75,
                    "time": 62.04157980833317,
                    "velocity": 0.28346456692913385,
                    "duration": 0.04710138333333447
                },
                {
                    "name": "C#5",
                    "midi": 73,
                    "time": 62.0886811916665,
                    "velocity": 0.3937007874015748,
                    "duration": 0.04710138333333447
                },
                {
                    "name": "B4",
                    "midi": 71,
                    "time": 62.13578257499984,
                    "velocity": 0.4330708661417323,
                    "duration": 0.04710138333333447
                },
                {
                    "name": "C#4",
                    "midi": 61,
                    "time": 62.173825999999835,
                    "velocity": 0.28346456692913385,
                    "duration": 0.21739100000000633
                },
                {
                    "name": "A4",
                    "midi": 69,
                    "time": 62.18288395833317,
                    "velocity": 0.2677165354330709,
                    "duration": 0.04710138333333447
                },
                {
                    "name": "G4",
                    "midi": 67,
                    "time": 62.18288395833317,
                    "velocity": 0.2755905511811024,
                    "duration": 0.04710138333333447
                },
                {
                    "name": "B4",
                    "midi": 71,
                    "time": 62.229985341666506,
                    "velocity": 0.3937007874015748,
                    "duration": 0.04710138333333447
                },
                {
                    "name": "C#5",
                    "midi": 73,
                    "time": 62.27708672499984,
                    "velocity": 0.4015748031496063,
                    "duration": 0.04800717916666741
                },
                {
                    "name": "D#5",
                    "midi": 75,
                    "time": 62.32509390416651,
                    "velocity": 0.1968503937007874,
                    "duration": 0.04710138333333447
                },
                {
                    "name": "E5",
                    "midi": 76,
                    "time": 62.37219528749984,
                    "velocity": 0.29133858267716534,
                    "duration": 0.04710138333333447
                },
                {
                    "name": "G#4",
                    "midi": 68,
                    "time": 62.39121699999984,
                    "velocity": 0.2677165354330709,
                    "duration": 0.21739100000000633
                },
                {
                    "name": "D#5",
                    "midi": 75,
                    "time": 62.41929667083318,
                    "velocity": 0.1968503937007874,
                    "duration": 0.04710138333333447
                },
                {
                    "name": "C#5",
                    "midi": 73,
                    "time": 62.46639805416651,
                    "velocity": 0.28346456692913385,
                    "duration": 0.04710138333333447
                },
                {
                    "name": "B4",
                    "midi": 71,
                    "time": 62.513499437499846,
                    "velocity": 0.23622047244094488,
                    "duration": 0.04800717916666741
                },
                {
                    "name": "A4",
                    "midi": 69,
                    "time": 62.56150661666651,
                    "velocity": 0.2204724409448819,
                    "duration": 0.04710138333333447
                },
                {
                    "name": "G#3",
                    "midi": 56,
                    "time": 62.60860799999985,
                    "velocity": 0.29133858267716534,
                    "duration": 0.21739099999999922
                },
                {
                    "name": "D#4",
                    "midi": 63,
                    "time": 62.82599899999985,
                    "velocity": 0.2755905511811024,
                    "duration": 0.21739100000001343
                },
                {
                    "name": "G#4",
                    "midi": 68,
                    "time": 62.82599899999985,
                    "velocity": 0.3543307086614173,
                    "duration": 0.04619558750000152
                },
                {
                    "name": "G#4",
                    "midi": 68,
                    "time": 62.89846266666652,
                    "velocity": 0.31496062992125984,
                    "duration": 0.04619558750000152
                },
                {
                    "name": "G#4",
                    "midi": 68,
                    "time": 62.97092633333319,
                    "velocity": 0.31496062992125984,
                    "duration": 0.04619558750000152
                },
                {
                    "name": "C5",
                    "midi": 72,
                    "time": 63.04338999999986,
                    "velocity": 0.2047244094488189,
                    "duration": 0.21739099999999922
                },
                {
                    "name": "D#5",
                    "midi": 75,
                    "time": 63.04338999999986,
                    "velocity": 0.2047244094488189,
                    "duration": 0.21739099999999922
                },
                {
                    "name": "D#4",
                    "midi": 63,
                    "time": 63.26078099999986,
                    "velocity": 0.2125984251968504,
                    "duration": 0.21739100000001343
                },
                {
                    "name": "G#4",
                    "midi": 68,
                    "time": 63.26078099999986,
                    "velocity": 0.3543307086614173,
                    "duration": 0.04619558750000152
                },
                {
                    "name": "G#4",
                    "midi": 68,
                    "time": 63.33324466666653,
                    "velocity": 0.31496062992125984,
                    "duration": 0.04619558750000152
                },
                {
                    "name": "G#4",
                    "midi": 68,
                    "time": 63.4057083333332,
                    "velocity": 0.31496062992125984,
                    "duration": 0.04619558750000152
                },
                {
                    "name": "G#3",
                    "midi": 56,
                    "time": 63.47817199999987,
                    "velocity": 0.1732283464566929,
                    "duration": 0.21739100000000633
                },
                {
                    "name": "G#4",
                    "midi": 68,
                    "time": 63.47817199999987,
                    "velocity": 0.3543307086614173,
                    "duration": 0.04619558750000152
                },
                {
                    "name": "G#4",
                    "midi": 68,
                    "time": 63.55063566666654,
                    "velocity": 0.31496062992125984,
                    "duration": 0.04619558750000152
                },
                {
                    "name": "G#4",
                    "midi": 68,
                    "time": 63.62309933333321,
                    "velocity": 0.31496062992125984,
                    "duration": 0.04619558750000152
                },
                {
                    "name": "D#4",
                    "midi": 63,
                    "time": 63.69556299999988,
                    "velocity": 0.2047244094488189,
                    "duration": 0.21739100000000633
                },
                {
                    "name": "G#4",
                    "midi": 68,
                    "time": 63.69556299999988,
                    "velocity": 0.3543307086614173,
                    "duration": 0.04619558750000152
                },
                {
                    "name": "G#4",
                    "midi": 68,
                    "time": 63.76802666666654,
                    "velocity": 0.29133858267716534,
                    "duration": 0.04619558750000152
                },
                {
                    "name": "G#4",
                    "midi": 68,
                    "time": 63.840490333333214,
                    "velocity": 0.3543307086614173,
                    "duration": 0.04619558750000152
                },
                {
                    "name": "C#4",
                    "midi": 61,
                    "time": 63.912953999999885,
                    "velocity": 0.2992125984251969,
                    "duration": 0.21739100000000633
                },
                {
                    "name": "G#4",
                    "midi": 68,
                    "time": 64.13034499999989,
                    "velocity": 0.3700787401574803,
                    "duration": 0.2173909999999779
                },
                {
                    "name": "A4",
                    "midi": 69,
                    "time": 64.13034499999989,
                    "velocity": 0.36220472440944884,
                    "duration": 0.04710138333332736
                },
                {
                    "name": "G4",
                    "midi": 67,
                    "time": 64.13034499999989,
                    "velocity": 0.3543307086614173,
                    "duration": 0.04710138333332736
                },
                {
                    "name": "B4",
                    "midi": 71,
                    "time": 64.17744638333322,
                    "velocity": 0.4094488188976378,
                    "duration": 0.04710138333332736
                },
                {
                    "name": "C#5",
                    "midi": 73,
                    "time": 64.22454776666655,
                    "velocity": 0.33070866141732286,
                    "duration": 0.04710138333332736
                },
                {
                    "name": "D#5",
                    "midi": 75,
                    "time": 64.27164914999987,
                    "velocity": 0.36220472440944884,
                    "duration": 0.04710138333332736
                },
                {
                    "name": "E5",
                    "midi": 76,
                    "time": 64.3187505333332,
                    "velocity": 0.4330708661417323,
                    "duration": 0.04800717916667452
                },
                {
                    "name": "D#5",
                    "midi": 75,
                    "time": 64.34773599999987,
                    "velocity": 0.28346456692913385,
                    "duration": 0.21739099999999212
                },
                {
                    "name": "F#5",
                    "midi": 78,
                    "time": 64.36675771249988,
                    "velocity": 0.5984251968503937,
                    "duration": 0.04710138333332736
                },
                {
                    "name": "G#5",
                    "midi": 80,
                    "time": 64.4138590958332,
                    "velocity": 0.5984251968503937,
                    "duration": 0.04710138333332736
                },
                {
                    "name": "A5",
                    "midi": 81,
                    "time": 64.46096047916653,
                    "velocity": 0.7007874015748031,
                    "duration": 0.04710138333332736
                },
                {
                    "name": "G#5",
                    "midi": 80,
                    "time": 64.50806186249986,
                    "velocity": 0.4645669291338583,
                    "duration": 0.04710138333334157
                },
                {
                    "name": "F#5",
                    "midi": 78,
                    "time": 64.5551632458332,
                    "velocity": 0.4330708661417323,
                    "duration": 0.04710138333332736
                },
                {
                    "name": "G#4",
                    "midi": 68,
                    "time": 64.56512699999986,
                    "velocity": 0.2755905511811024,
                    "duration": 0.2173909999999779
                },
                {
                    "name": "E5",
                    "midi": 76,
                    "time": 64.60226462916653,
                    "velocity": 0.4645669291338583,
                    "duration": 0.04800717916666031
                },
                {
                    "name": "D#5",
                    "midi": 75,
                    "time": 64.65027180833319,
                    "velocity": 0.28346456692913385,
                    "duration": 0.04710138333332736
                },
                {
                    "name": "C#5",
                    "midi": 73,
                    "time": 64.69737319166651,
                    "velocity": 0.3937007874015748,
                    "duration": 0.04710138333332736
                },
                {
                    "name": "B4",
                    "midi": 71,
                    "time": 64.74447457499984,
                    "velocity": 0.4330708661417323,
                    "duration": 0.04710138333332736
                },
                {
                    "name": "C#4",
                    "midi": 61,
                    "time": 64.78251799999984,
                    "velocity": 0.25196850393700787,
                    "duration": 0.2173909999999779
                },
                {
                    "name": "A4",
                    "midi": 69,
                    "time": 64.79157595833317,
                    "velocity": 0.2677165354330709,
                    "duration": 0.04710138333332736
                },
                {
                    "name": "G4",
                    "midi": 67,
                    "time": 64.79157595833317,
                    "velocity": 0.2755905511811024,
                    "duration": 0.04710138333332736
                },
                {
                    "name": "B4",
                    "midi": 71,
                    "time": 64.8386773416665,
                    "velocity": 0.3937007874015748,
                    "duration": 0.04710138333332736
                },
                {
                    "name": "C#5",
                    "midi": 73,
                    "time": 64.88577872499982,
                    "velocity": 0.4015748031496063,
                    "duration": 0.04800717916666031
                },
                {
                    "name": "D#5",
                    "midi": 75,
                    "time": 64.93378590416648,
                    "velocity": 0.1968503937007874,
                    "duration": 0.04710138333332736
                },
                {
                    "name": "E5",
                    "midi": 76,
                    "time": 64.98088728749981,
                    "velocity": 0.29133858267716534,
                    "duration": 0.04710138333334157
                },
                {
                    "name": "G#4",
                    "midi": 68,
                    "time": 64.99990899999982,
                    "velocity": 0.2125984251968504,
                    "duration": 0.2173909999999779
                },
                {
                    "name": "D#5",
                    "midi": 75,
                    "time": 65.02798867083315,
                    "velocity": 0.1968503937007874,
                    "duration": 0.04710138333332736
                },
                {
                    "name": "C#5",
                    "midi": 73,
                    "time": 65.07509005416648,
                    "velocity": 0.28346456692913385,
                    "duration": 0.04710138333332736
                },
                {
                    "name": "B4",
                    "midi": 71,
                    "time": 65.12219143749981,
                    "velocity": 0.23622047244094488,
                    "duration": 0.04800717916666031
                },
                {
                    "name": "A4",
                    "midi": 69,
                    "time": 65.17019861666647,
                    "velocity": 0.2204724409448819,
                    "duration": 0.04710138333332736
                },
                {
                    "name": "G#3",
                    "midi": 56,
                    "time": 65.2172999999998,
                    "velocity": 0.2992125984251969,
                    "duration": 0.21739100000000633
                },
                {
                    "name": "D#4",
                    "midi": 63,
                    "time": 65.4346909999998,
                    "velocity": 0.3543307086614173,
                    "duration": 0.21739099999999212
                },
                {
                    "name": "G#4",
                    "midi": 68,
                    "time": 65.4346909999998,
                    "velocity": 0.36220472440944884,
                    "duration": 0.04619558749999442
                },
                {
                    "name": "G#4",
                    "midi": 68,
                    "time": 65.50715466666647,
                    "velocity": 0.3228346456692913,
                    "duration": 0.04619558749999442
                },
                {
                    "name": "G#4",
                    "midi": 68,
                    "time": 65.57961833333313,
                    "velocity": 0.33070866141732286,
                    "duration": 0.04619558749999442
                },
                {
                    "name": "C5",
                    "midi": 72,
                    "time": 65.6520819999998,
                    "velocity": 0.2204724409448819,
                    "duration": 0.21739100000000633
                },
                {
                    "name": "D#5",
                    "midi": 75,
                    "time": 65.6520819999998,
                    "velocity": 0.31496062992125984,
                    "duration": 0.21739100000000633
                },
                {
                    "name": "D#4",
                    "midi": 63,
                    "time": 65.8694729999998,
                    "velocity": 0.47244094488188976,
                    "duration": 0.21739099999999212
                },
                {
                    "name": "G#4",
                    "midi": 68,
                    "time": 65.8694729999998,
                    "velocity": 0.3858267716535433,
                    "duration": 0.04619558749999442
                },
                {
                    "name": "G#4",
                    "midi": 68,
                    "time": 65.94193666666646,
                    "velocity": 0.3464566929133858,
                    "duration": 0.04619558749999442
                },
                {
                    "name": "G#4",
                    "midi": 68,
                    "time": 66.01440033333313,
                    "velocity": 0.3464566929133858,
                    "duration": 0.04619558749999442
                },
                {
                    "name": "G#3",
                    "midi": 56,
                    "time": 66.08686399999979,
                    "velocity": 0.47244094488188976,
                    "duration": 0.21739099999999212
                },
                {
                    "name": "G#4",
                    "midi": 68,
                    "time": 66.08686399999979,
                    "velocity": 0.3937007874015748,
                    "duration": 0.04619558749999442
                },
                {
                    "name": "G#4",
                    "midi": 68,
                    "time": 66.15932766666646,
                    "velocity": 0.3543307086614173,
                    "duration": 0.04619558749999442
                },
                {
                    "name": "G#4",
                    "midi": 68,
                    "time": 66.23179133333312,
                    "velocity": 0.3543307086614173,
                    "duration": 0.04619558749999442
                },
                {
                    "name": "D#4",
                    "midi": 63,
                    "time": 66.30425499999978,
                    "velocity": 0.4409448818897638,
                    "duration": 0.21739099999999212
                },
                {
                    "name": "G#4",
                    "midi": 68,
                    "time": 66.30425499999978,
                    "velocity": 0.4015748031496063,
                    "duration": 0.04619558749999442
                },
                {
                    "name": "G#4",
                    "midi": 68,
                    "time": 66.37671866666645,
                    "velocity": 0.33858267716535434,
                    "duration": 0.04619558749999442
                },
                {
                    "name": "G#4",
                    "midi": 68,
                    "time": 66.44918233333311,
                    "velocity": 0.4094488188976378,
                    "duration": 0.04619558749999442
                },
                {
                    "name": "G#3",
                    "midi": 56,
                    "time": 66.52164599999978,
                    "velocity": 0.4881889763779528,
                    "duration": 0.21739100000000633
                },
                {
                    "name": "D#4",
                    "midi": 63,
                    "time": 66.73903699999978,
                    "velocity": 0.5354330708661418,
                    "duration": 0.21739099999999212
                },
                {
                    "name": "G#4",
                    "midi": 68,
                    "time": 66.73903699999978,
                    "velocity": 0.4251968503937008,
                    "duration": 0.04619558749999442
                },
                {
                    "name": "G#4",
                    "midi": 68,
                    "time": 66.81150066666645,
                    "velocity": 0.3779527559055118,
                    "duration": 0.04619558749999442
                },
                {
                    "name": "G#4",
                    "midi": 68,
                    "time": 66.88396433333311,
                    "velocity": 0.3858267716535433,
                    "duration": 0.04619558749999442
                },
                {
                    "name": "C5",
                    "midi": 72,
                    "time": 66.95642799999978,
                    "velocity": 0.47244094488188976,
                    "duration": 0.21739099999999212
                },
                {
                    "name": "D#5",
                    "midi": 75,
                    "time": 66.95642799999978,
                    "velocity": 0.4094488188976378,
                    "duration": 0.21739099999999212
                },
                {
                    "name": "D#4",
                    "midi": 63,
                    "time": 67.17381899999977,
                    "velocity": 0.5984251968503937,
                    "duration": 0.21739099999999212
                },
                {
                    "name": "G#4",
                    "midi": 68,
                    "time": 67.17381899999977,
                    "velocity": 0.44881889763779526,
                    "duration": 0.04619558749999442
                },
                {
                    "name": "G#4",
                    "midi": 68,
                    "time": 67.24628266666643,
                    "velocity": 0.4015748031496063,
                    "duration": 0.04619558749999442
                },
                {
                    "name": "G#4",
                    "midi": 68,
                    "time": 67.3187463333331,
                    "velocity": 0.4015748031496063,
                    "duration": 0.04619558749999442
                },
                {
                    "name": "G#3",
                    "midi": 56,
                    "time": 67.39120999999976,
                    "velocity": 0.5984251968503937,
                    "duration": 0.21739099999999212
                },
                {
                    "name": "G#4",
                    "midi": 68,
                    "time": 67.39120999999976,
                    "velocity": 0.4566929133858268,
                    "duration": 0.04619558749999442
                },
                {
                    "name": "G#4",
                    "midi": 68,
                    "time": 67.46367366666642,
                    "velocity": 0.4094488188976378,
                    "duration": 0.04619558749999442
                },
                {
                    "name": "G#4",
                    "midi": 68,
                    "time": 67.53613733333309,
                    "velocity": 0.4094488188976378,
                    "duration": 0.04619558749999442
                },
                {
                    "name": "D#4",
                    "midi": 63,
                    "time": 67.60860099999975,
                    "velocity": 0.5354330708661418,
                    "duration": 0.21739099999999212
                },
                {
                    "name": "G#4",
                    "midi": 68,
                    "time": 67.60860099999975,
                    "velocity": 0.4645669291338583,
                    "duration": 0.04619558749999442
                },
                {
                    "name": "G#4",
                    "midi": 68,
                    "time": 67.68106466666642,
                    "velocity": 0.3858267716535433,
                    "duration": 0.04619558749999442
                },
                {
                    "name": "G#4",
                    "midi": 68,
                    "time": 67.75352833333308,
                    "velocity": 0.47244094488188976,
                    "duration": 0.04619558749999442
                },
                {
                    "name": "G#3",
                    "midi": 56,
                    "time": 67.82599199999974,
                    "velocity": 0.7322834645669292,
                    "duration": 0.05163036249999209
                },
                {
                    "name": "G#4",
                    "midi": 68,
                    "time": 68.04338299999974,
                    "velocity": 0.4251968503937008,
                    "duration": 0.04619558749999442
                },
                {
                    "name": "G#4",
                    "midi": 68,
                    "time": 68.1158466666664,
                    "velocity": 0.3779527559055118,
                    "duration": 0.04619558749999442
                },
                {
                    "name": "G#4",
                    "midi": 68,
                    "time": 68.18831033333306,
                    "velocity": 0.3858267716535433,
                    "duration": 0.04619558749999442
                },
                {
                    "name": "G#4",
                    "midi": 68,
                    "time": 68.26711457083306,
                    "velocity": 0.6692913385826772,
                    "duration": 0.06431150416666753
                },
                {
                    "name": "G#4",
                    "midi": 68,
                    "time": 68.47816499999972,
                    "velocity": 0.44881889763779526,
                    "duration": 0.04619558749999442
                },
                {
                    "name": "G#4",
                    "midi": 68,
                    "time": 68.55062866666638,
                    "velocity": 0.4015748031496063,
                    "duration": 0.04619558749999442
                },
                {
                    "name": "G#4",
                    "midi": 68,
                    "time": 68.62309233333305,
                    "velocity": 0.4015748031496063,
                    "duration": 0.04619558749999442
                },
                {
                    "name": "G#4",
                    "midi": 68,
                    "time": 68.69555599999971,
                    "velocity": 0.4566929133858268,
                    "duration": 0.04619558750000863
                },
                {
                    "name": "G#4",
                    "midi": 68,
                    "time": 68.76801966666639,
                    "velocity": 0.4094488188976378,
                    "duration": 0.04619558750000863
                },
                {
                    "name": "G#4",
                    "midi": 68,
                    "time": 68.84048333333307,
                    "velocity": 0.4094488188976378,
                    "duration": 0.04619558749999442
                },
                {
                    "name": "G#4",
                    "midi": 68,
                    "time": 68.91294699999973,
                    "velocity": 0.4645669291338583,
                    "duration": 0.04619558749999442
                },
                {
                    "name": "G#4",
                    "midi": 68,
                    "time": 68.9854106666664,
                    "velocity": 0.3858267716535433,
                    "duration": 0.04619558749999442
                },
                {
                    "name": "G#4",
                    "midi": 68,
                    "time": 69.05787433333306,
                    "velocity": 0.47244094488188976,
                    "duration": 0.04619558749999442
                },
                {
                    "name": "G#4",
                    "midi": 68,
                    "time": 69.13033799999972,
                    "velocity": 0.7322834645669292,
                    "duration": 0.04891297499999325
                },
                {
                    "name": "G#4",
                    "midi": 68,
                    "time": 69.34772899999972,
                    "velocity": 0.4251968503937008,
                    "duration": 0.04619558749999442
                },
                {
                    "name": "G#4",
                    "midi": 68,
                    "time": 69.42019266666638,
                    "velocity": 0.3779527559055118,
                    "duration": 0.04619558749999442
                },
                {
                    "name": "G#4",
                    "midi": 68,
                    "time": 69.49265633333304,
                    "velocity": 0.3858267716535433,
                    "duration": 0.04619558749999442
                },
                {
                    "name": "G#4",
                    "midi": 68,
                    "time": 69.56693159166637,
                    "velocity": 0.7007874015748031,
                    "duration": 0.05525354583333808
                },
                {
                    "name": "G#4",
                    "midi": 68,
                    "time": 69.78251099999972,
                    "velocity": 0.44881889763779526,
                    "duration": 0.04619558749999442
                },
                {
                    "name": "G#4",
                    "midi": 68,
                    "time": 69.85497466666638,
                    "velocity": 0.4015748031496063,
                    "duration": 0.04619558749999442
                },
                {
                    "name": "G#4",
                    "midi": 68,
                    "time": 69.92743833333304,
                    "velocity": 0.4015748031496063,
                    "duration": 0.04619558749999442
                },
                {
                    "name": "G#4",
                    "midi": 68,
                    "time": 69.99990199999971,
                    "velocity": 0.4566929133858268,
                    "duration": 0.04619558749999442
                },
                {
                    "name": "G#4",
                    "midi": 68,
                    "time": 70.07236566666637,
                    "velocity": 0.4094488188976378,
                    "duration": 0.04619558749999442
                },
                {
                    "name": "G#4",
                    "midi": 68,
                    "time": 70.14482933333304,
                    "velocity": 0.4094488188976378,
                    "duration": 0.04619558749999442
                },
                {
                    "name": "G#4",
                    "midi": 68,
                    "time": 70.2172929999997,
                    "velocity": 0.4645669291338583,
                    "duration": 0.04619558749999442
                },
                {
                    "name": "G#4",
                    "midi": 68,
                    "time": 70.28975666666636,
                    "velocity": 0.3858267716535433,
                    "duration": 0.04619558749999442
                },
                {
                    "name": "G#4",
                    "midi": 68,
                    "time": 70.36222033333303,
                    "velocity": 0.47244094488188976,
                    "duration": 0.04619558749999442
                },
                {
                    "name": "G#4",
                    "midi": 68,
                    "time": 70.42743763333303,
                    "velocity": 0.44881889763779526,
                    "duration": 0.07246366666666404
                },
                {
                    "name": "G#4",
                    "midi": 68,
                    "time": 70.43468399999969,
                    "velocity": 0.4330708661417323,
                    "duration": 0.15217370000000585
                },
                {
                    "name": "G#4",
                    "midi": 68,
                    "time": 70.6520749999997,
                    "velocity": 0.3700787401574803,
                    "duration": 0.04347819999999558
                },
                {
                    "name": "G#4",
                    "midi": 68,
                    "time": 70.72453866666636,
                    "velocity": 0.33070866141732286,
                    "duration": 0.04347819999999558
                },
                {
                    "name": "G#4",
                    "midi": 68,
                    "time": 70.79700233333303,
                    "velocity": 0.33070866141732286,
                    "duration": 0.04347819999999558
                },
                {
                    "name": "G#4",
                    "midi": 68,
                    "time": 70.86946599999969,
                    "velocity": 0.3937007874015748,
                    "duration": 0.04347819999999558
                },
                {
                    "name": "G#4",
                    "midi": 68,
                    "time": 70.94192966666635,
                    "velocity": 0.2677165354330709,
                    "duration": 0.04347819999999558
                },
                {
                    "name": "G#4",
                    "midi": 68,
                    "time": 71.01439333333302,
                    "velocity": 0.23622047244094488,
                    "duration": 0.04347819999999558
                },
                {
                    "name": "G#4",
                    "midi": 68,
                    "time": 71.08685699999968,
                    "velocity": 0.30708661417322836,
                    "duration": 0.04347819999999558
                },
                {
                    "name": "G#4",
                    "midi": 68,
                    "time": 71.15932066666635,
                    "velocity": 0.1889763779527559,
                    "duration": 0.04347819999999558
                },
                {
                    "name": "G#4",
                    "midi": 68,
                    "time": 71.23178433333301,
                    "velocity": 0.23622047244094488,
                    "duration": 0.04347819999999558
                },
                {
                    "name": "G#4",
                    "midi": 68,
                    "time": 71.30424799999967,
                    "velocity": 0.25984251968503935,
                    "duration": 0.04347819999999558
                },
                {
                    "name": "G#4",
                    "midi": 68,
                    "time": 71.37671166666634,
                    "velocity": 0.16535433070866143,
                    "duration": 0.04347819999999558
                },
                {
                    "name": "G#4",
                    "midi": 68,
                    "time": 71.449175333333,
                    "velocity": 0.2047244094488189,
                    "duration": 0.04347819999999558
                },
                {
                    "name": "G#4",
                    "midi": 68,
                    "time": 71.52163899999967,
                    "velocity": 0.1968503937007874,
                    "duration": 0.04347819999999558
                },
                {
                    "name": "G#4",
                    "midi": 68,
                    "time": 71.59410266666633,
                    "velocity": 0.13385826771653545,
                    "duration": 0.04347819999999558
                },
                {
                    "name": "G#4",
                    "midi": 68,
                    "time": 71.666566333333,
                    "velocity": 0.16535433070866143,
                    "duration": 0.04347819999999558
                },
                {
                    "name": "B3",
                    "midi": 59,
                    "time": 71.73902999999966,
                    "velocity": 0.2047244094488189,
                    "duration": 0.07789844166666171
                },
                {
                    "name": "B4",
                    "midi": 71,
                    "time": 71.73902999999966,
                    "velocity": 0.25984251968503935,
                    "duration": 0.07699264583332877
                },
                {
                    "name": "G#4",
                    "midi": 68,
                    "time": 71.73902999999966,
                    "velocity": 0.28346456692913385,
                    "duration": 0.04347819999999558
                },
                {
                    "name": "F4",
                    "midi": 65,
                    "time": 71.74084159166632,
                    "velocity": 0.4094488188976378,
                    "duration": 0.07789844166666171
                },
                {
                    "name": "G#4",
                    "midi": 68,
                    "time": 71.81149366666632,
                    "velocity": 0.2755905511811024,
                    "duration": 0.04347819999999558
                },
                {
                    "name": "G#4",
                    "midi": 68,
                    "time": 71.88395733333299,
                    "velocity": 0.25984251968503935,
                    "duration": 0.04347819999999558
                },
                {
                    "name": "C#3",
                    "midi": 49,
                    "time": 71.94011667499964,
                    "velocity": 0.2440944881889764,
                    "duration": 0.1114128874999949
                },
                {
                    "name": "G#4",
                    "midi": 68,
                    "time": 71.95642099999964,
                    "velocity": 0.33858267716535434,
                    "duration": 0.04347819999999558
                },
                {
                    "name": "G#4",
                    "midi": 68,
                    "time": 72.0288846666663,
                    "velocity": 0.28346456692913385,
                    "duration": 0.04347820000000979
                },
                {
                    "name": "G#4",
                    "midi": 68,
                    "time": 72.10134833333298,
                    "velocity": 0.29133858267716534,
                    "duration": 0.04347819999999558
                },
                {
                    "name": "F#2",
                    "midi": 42,
                    "time": 72.12942800416631,
                    "velocity": 0.4330708661417323,
                    "duration": 0.12681141666665496
                },
                {
                    "name": "C#3",
                    "midi": 49,
                    "time": 72.15297869583297,
                    "velocity": 0.30708661417322836,
                    "duration": 0.109601295833329
                },
                {
                    "name": "B3",
                    "midi": 59,
                    "time": 72.1810583666663,
                    "velocity": 0.41732283464566927,
                    "duration": 0.08605060416665822
                },
                {
                    "name": "G#4",
                    "midi": 68,
                    "time": 72.2462756666663,
                    "velocity": 0.29133858267716534,
                    "duration": 0.04347819999999558
                },
                {
                    "name": "G#4",
                    "midi": 68,
                    "time": 72.31873933333297,
                    "velocity": 0.28346456692913385,
                    "duration": 0.04347819999999558
                },
                {
                    "name": "G#4",
                    "midi": 68,
                    "time": 72.39120299999963,
                    "velocity": 0.3700787401574803,
                    "duration": 0.04347819999999558
                },
                {
                    "name": "G#4",
                    "midi": 68,
                    "time": 72.4636666666663,
                    "velocity": 0.3779527559055118,
                    "duration": 0.04347819999999558
                },
                {
                    "name": "G#4",
                    "midi": 68,
                    "time": 72.53613033333296,
                    "velocity": 0.3779527559055118,
                    "duration": 0.04347819999999558
                },
                {
                    "name": "B4",
                    "midi": 71,
                    "time": 72.6049708166663,
                    "velocity": 0.2992125984251969,
                    "duration": 0.08152162499999349
                },
                {
                    "name": "G#4",
                    "midi": 68,
                    "time": 72.60859399999963,
                    "velocity": 0.4094488188976378,
                    "duration": 0.04347819999999558
                },
                {
                    "name": "B3",
                    "midi": 59,
                    "time": 72.60949979583296,
                    "velocity": 0.12598425196850394,
                    "duration": 0.0797100333333276
                },
                {
                    "name": "F4",
                    "midi": 65,
                    "time": 72.61131138749963,
                    "velocity": 0.2992125984251969,
                    "duration": 0.08605060416665822
                },
                {
                    "name": "G#4",
                    "midi": 68,
                    "time": 72.68105766666629,
                    "velocity": 0.3464566929133858,
                    "duration": 0.04347819999999558
                },
                {
                    "name": "G#4",
                    "midi": 68,
                    "time": 72.75352133333296,
                    "velocity": 0.3779527559055118,
                    "duration": 0.04347819999999558
                },
                {
                    "name": "F#4",
                    "midi": 66,
                    "time": 72.81783283749962,
                    "velocity": 0.31496062992125984,
                    "duration": 0.09420276666665472
                },
                {
                    "name": "C5",
                    "midi": 72,
                    "time": 72.81783283749962,
                    "velocity": 0.3464566929133858,
                    "duration": 0.09510856249998767
                },
                {
                    "name": "C4",
                    "midi": 60,
                    "time": 72.82055022499962,
                    "velocity": 0.3779527559055118,
                    "duration": 0.08876799166665705
                },
                {
                    "name": "C#5",
                    "midi": 73,
                    "time": 72.82598499999962,
                    "velocity": 0.3543307086614173,
                    "duration": 0.04347819999999558
                },
                {
                    "name": "C#5",
                    "midi": 73,
                    "time": 72.89844866666628,
                    "velocity": 0.3858267716535433,
                    "duration": 0.04347819999999558
                },
                {
                    "name": "C#5",
                    "midi": 73,
                    "time": 72.97091233333295,
                    "velocity": 0.30708661417322836,
                    "duration": 0.04347819999999558
                },
                {
                    "name": "B4",
                    "midi": 71,
                    "time": 73.04156440833295,
                    "velocity": 0.4015748031496063,
                    "duration": 0.07246366666666404
                },
                {
                    "name": "F4",
                    "midi": 65,
                    "time": 73.04156440833295,
                    "velocity": 0.28346456692913385,
                    "duration": 0.0797100333333276
                },
                {
                    "name": "B3",
                    "midi": 59,
                    "time": 73.04337599999961,
                    "velocity": 0.3464566929133858,
                    "duration": 0.07336946249999698
                },
                {
                    "name": "G#4",
                    "midi": 68,
                    "time": 73.04337599999961,
                    "velocity": 0.3937007874015748,
                    "duration": 0.04347819999999558
                },
                {
                    "name": "G#4",
                    "midi": 68,
                    "time": 73.11583966666628,
                    "velocity": 0.23622047244094488,
                    "duration": 0.04347819999999558
                },
                {
                    "name": "G#4",
                    "midi": 68,
                    "time": 73.18830333333294,
                    "velocity": 0.3779527559055118,
                    "duration": 0.04347819999999558
                },
                {
                    "name": "G#4",
                    "midi": 68,
                    "time": 73.2607669999996,
                    "velocity": 0.33070866141732286,
                    "duration": 0.04347819999999558
                },
                {
                    "name": "G#4",
                    "midi": 68,
                    "time": 73.33323066666627,
                    "velocity": 0.2992125984251969,
                    "duration": 0.04347819999999558
                },
                {
                    "name": "G#4",
                    "midi": 68,
                    "time": 73.40569433333293,
                    "velocity": 0.36220472440944884,
                    "duration": 0.04347819999999558
                },
                {
                    "name": "B3",
                    "midi": 59,
                    "time": 73.4754406124996,
                    "velocity": 0.31496062992125984,
                    "duration": 0.09601435833333483
                },
                {
                    "name": "G#4",
                    "midi": 68,
                    "time": 73.4781579999996,
                    "velocity": 0.2440944881889764,
                    "duration": 0.06521730000000048
                },
                {
                    "name": "F4",
                    "midi": 65,
                    "time": 73.47906379583293,
                    "velocity": 0.2677165354330709,
                    "duration": 0.09420276666666894
                },
                {
                    "name": "B4",
                    "midi": 71,
                    "time": 73.47996959166626,
                    "velocity": 0.36220472440944884,
                    "duration": 0.09510856250000188
                },
                {
                    "name": "G#4",
                    "midi": 68,
                    "time": 73.58685349999959,
                    "velocity": 0.28346456692913385,
                    "duration": 0.06521730000000048
                },
                {
                    "name": "A4",
                    "midi": 69,
                    "time": 73.69283161249959,
                    "velocity": 0.31496062992125984,
                    "duration": 0.08242742083332644
                },
                {
                    "name": "C#4",
                    "midi": 61,
                    "time": 73.69373740833292,
                    "velocity": 0.2125984251968504,
                    "duration": 0.07246366666666404
                },
                {
                    "name": "A3",
                    "midi": 57,
                    "time": 73.69464320416625,
                    "velocity": 0.3543307086614173,
                    "duration": 0.09692015416665356
                },
                {
                    "name": "D#4",
                    "midi": 63,
                    "time": 73.69554899999959,
                    "velocity": 0.31496062992125984,
                    "duration": 0.06521730000000048
                },
                {
                    "name": "D#4",
                    "midi": 63,
                    "time": 73.80424449999957,
                    "velocity": 0.2755905511811024,
                    "duration": 0.06521730000000048
                },
                {
                    "name": "G#4",
                    "midi": 68,
                    "time": 73.91293999999957,
                    "velocity": 0.30708661417322836,
                    "duration": 0.06521730000000048
                },
                {
                    "name": "B3",
                    "midi": 59,
                    "time": 73.91837477499956,
                    "velocity": 0.3464566929133858,
                    "duration": 0.11775345833332551
                },
                {
                    "name": "F4",
                    "midi": 65,
                    "time": 73.92018636666623,
                    "velocity": 0.3228346456692913,
                    "duration": 0.10869549999999606
                },
                {
                    "name": "B4",
                    "midi": 71,
                    "time": 73.9219979583329,
                    "velocity": 0.2755905511811024,
                    "duration": 0.10416652083333133
                },
                {
                    "name": "G#4",
                    "midi": 68,
                    "time": 74.02163549999956,
                    "velocity": 0.31496062992125984,
                    "duration": 0.06521730000000048
                },
                {
                    "name": "D#4",
                    "midi": 63,
                    "time": 74.13033099999956,
                    "velocity": 0.2677165354330709,
                    "duration": 0.06521730000000048
                },
                {
                    "name": "C#4",
                    "midi": 61,
                    "time": 74.1529758958329,
                    "velocity": 0.33070866141732286,
                    "duration": 0.08333321666665938
                },
                {
                    "name": "A3",
                    "midi": 57,
                    "time": 74.15659907916623,
                    "velocity": 0.47244094488188976,
                    "duration": 0.09963754166666661
                },
                {
                    "name": "A4",
                    "midi": 69,
                    "time": 74.15659907916623,
                    "velocity": 0.2440944881889764,
                    "duration": 0.10054333749999955
                },
                {
                    "name": "D#4",
                    "midi": 63,
                    "time": 74.23902649999955,
                    "velocity": 0.29133858267716534,
                    "duration": 0.06521730000000048
                },
                {
                    "name": "G#4",
                    "midi": 68,
                    "time": 74.34772199999955,
                    "velocity": 0.3228346456692913,
                    "duration": 0.04347819999999558
                },
                {
                    "name": "B4",
                    "midi": 71,
                    "time": 74.35768575416621,
                    "velocity": 0.3464566929133858,
                    "duration": 0.11231868333332784
                },
                {
                    "name": "F4",
                    "midi": 65,
                    "time": 74.35859154999955,
                    "velocity": 0.3228346456692913,
                    "duration": 0.10416652083333133
                },
                {
                    "name": "B3",
                    "midi": 59,
                    "time": 74.35949734583288,
                    "velocity": 0.4015748031496063,
                    "duration": 0.09963754166666661
                },
                {
                    "name": "G#4",
                    "midi": 68,
                    "time": 74.42018566666621,
                    "velocity": 0.29133858267716534,
                    "duration": 0.04347819999999558
                },
                {
                    "name": "G#4",
                    "midi": 68,
                    "time": 74.49264933333288,
                    "velocity": 0.31496062992125984,
                    "duration": 0.04347819999999558
                },
                {
                    "name": "G#4",
                    "midi": 68,
                    "time": 74.56511299999954,
                    "velocity": 0.3228346456692913,
                    "duration": 0.04347819999999558
                },
                {
                    "name": "C#3",
                    "midi": 49,
                    "time": 74.57326516249954,
                    "velocity": 0.2283464566929134,
                    "duration": 0.11775345833332551
                },
                {
                    "name": "G#4",
                    "midi": 68,
                    "time": 74.6375766666662,
                    "velocity": 0.3543307086614173,
                    "duration": 0.04347819999999558
                },
                {
                    "name": "G#4",
                    "midi": 68,
                    "time": 74.71004033333287,
                    "velocity": 0.33858267716535434,
                    "duration": 0.04347819999999558
                },
                {
                    "name": "F#2",
                    "midi": 42,
                    "time": 74.73721420833287,
                    "velocity": 0.41732283464566927,
                    "duration": 0.12318823333332318
                },
                {
                    "name": "C#3",
                    "midi": 49,
                    "time": 74.7571417166662,
                    "velocity": 0.1968503937007874,
                    "duration": 0.109601295833329
                },
                {
                    "name": "B3",
                    "midi": 59,
                    "time": 74.7870329791662,
                    "velocity": 0.3779527559055118,
                    "duration": 0.08605060416665822
                },
                {
                    "name": "G#4",
                    "midi": 68,
                    "time": 74.8549676666662,
                    "velocity": 0.2677165354330709,
                    "duration": 0.04347819999999558
                },
                {
                    "name": "G#4",
                    "midi": 68,
                    "time": 74.92743133333286,
                    "velocity": 0.28346456692913385,
                    "duration": 0.04347819999999558
                },
                {
                    "name": "G#4",
                    "midi": 68,
                    "time": 74.99989499999953,
                    "velocity": 0.30708661417322836,
                    "duration": 0.04347819999999558
                },
                {
                    "name": "G#4",
                    "midi": 68,
                    "time": 75.07235866666619,
                    "velocity": 0.29133858267716534,
                    "duration": 0.04347819999999558
                },
                {
                    "name": "G#4",
                    "midi": 68,
                    "time": 75.14482233333285,
                    "velocity": 0.33858267716535434,
                    "duration": 0.04347819999999558
                },
                {
                    "name": "B3",
                    "midi": 59,
                    "time": 75.21185122499952,
                    "velocity": 0.3228346456692913,
                    "duration": 0.09420276666665472
                },
                {
                    "name": "B4",
                    "midi": 71,
                    "time": 75.21456861249952,
                    "velocity": 0.2755905511811024,
                    "duration": 0.08695639999999116
                },
                {
                    "name": "F4",
                    "midi": 65,
                    "time": 75.21547440833285,
                    "velocity": 0.36220472440944884,
                    "duration": 0.11231868333332784
                },
                {
                    "name": "G#4",
                    "midi": 68,
                    "time": 75.21728599999952,
                    "velocity": 0.3937007874015748,
                    "duration": 0.04347819999999558
                },
                {
                    "name": "G#4",
                    "midi": 68,
                    "time": 75.28974966666618,
                    "velocity": 0.33858267716535434,
                    "duration": 0.04347819999999558
                },
                {
                    "name": "G#4",
                    "midi": 68,
                    "time": 75.36221333333285,
                    "velocity": 0.36220472440944884,
                    "duration": 0.04347819999999558
                },
                {
                    "name": "C#5",
                    "midi": 73,
                    "time": 75.43467699999951,
                    "velocity": 0.4015748031496063,
                    "duration": 0.04347819999999558
                },
                {
                    "name": "F#4",
                    "midi": 66,
                    "time": 75.43830018333284,
                    "velocity": 0.23622047244094488,
                    "duration": 0.09148537916665589
                },
                {
                    "name": "C5",
                    "midi": 72,
                    "time": 75.43830018333284,
                    "velocity": 0.28346456692913385,
                    "duration": 0.08514480833332527
                },
                {
                    "name": "C4",
                    "midi": 60,
                    "time": 75.44011177499951,
                    "velocity": 0.30708661417322836,
                    "duration": 0.09329697083332178
                },
                {
                    "name": "C#5",
                    "midi": 73,
                    "time": 75.50714066666617,
                    "velocity": 0.25984251968503935,
                    "duration": 0.04347819999999558
                },
                {
                    "name": "C#5",
                    "midi": 73,
                    "time": 75.57960433333284,
                    "velocity": 0.31496062992125984,
                    "duration": 0.04347819999999558
                },
                {
                    "name": "G#4",
                    "midi": 68,
                    "time": 75.6520679999995,
                    "velocity": 0.3700787401574803,
                    "duration": 0.04347819999999558
                },
                {
                    "name": "B4",
                    "midi": 71,
                    "time": 75.6547853874995,
                    "velocity": 0.3543307086614173,
                    "duration": 0.08605060416665822
                },
                {
                    "name": "F4",
                    "midi": 65,
                    "time": 75.65569118333283,
                    "velocity": 0.2125984251968504,
                    "duration": 0.08605060416665822
                },
                {
                    "name": "B3",
                    "midi": 59,
                    "time": 75.65659697916617,
                    "velocity": 0.2992125984251969,
                    "duration": 0.08786219583332411
                },
                {
                    "name": "G#4",
                    "midi": 68,
                    "time": 75.72453166666617,
                    "velocity": 0.2992125984251969,
                    "duration": 0.04347819999999558
                },
                {
                    "name": "G#4",
                    "midi": 68,
                    "time": 75.79699533333283,
                    "velocity": 0.2992125984251969,
                    "duration": 0.04347819999999558
                },
                {
                    "name": "G#4",
                    "midi": 68,
                    "time": 75.8694589999995,
                    "velocity": 0.3543307086614173,
                    "duration": 0.04347819999999558
                },
                {
                    "name": "G#4",
                    "midi": 68,
                    "time": 75.94192266666616,
                    "velocity": 0.2440944881889764,
                    "duration": 0.04347819999999558
                },
                {
                    "name": "G#4",
                    "midi": 68,
                    "time": 76.01438633333282,
                    "velocity": 0.3700787401574803,
                    "duration": 0.04347819999999558
                },
                {
                    "name": "B3",
                    "midi": 59,
                    "time": 76.08503840833282,
                    "velocity": 0.36220472440944884,
                    "duration": 0.09873174583333366
                },
                {
                    "name": "G#4",
                    "midi": 68,
                    "time": 76.08684999999949,
                    "velocity": 0.25984251968503935,
                    "duration": 0.10869549999999606
                },
                {
                    "name": "B4",
                    "midi": 71,
                    "time": 76.08866159166615,
                    "velocity": 0.28346456692913385,
                    "duration": 0.09963754166666661
                },
                {
                    "name": "F4",
                    "midi": 65,
                    "time": 76.09047318333282,
                    "velocity": 0.29133858267716534,
                    "duration": 0.09601435833333483
                },
                {
                    "name": "G#4",
                    "midi": 68,
                    "time": 76.19554549999948,
                    "velocity": 0.29133858267716534,
                    "duration": 0.10869549999999606
                },
                {
                    "name": "C#4",
                    "midi": 61,
                    "time": 76.29246565416615,
                    "velocity": 0.2204724409448819,
                    "duration": 0.09329697083333599
                },
                {
                    "name": "A4",
                    "midi": 69,
                    "time": 76.29337144999948,
                    "velocity": 0.30708661417322836,
                    "duration": 0.09420276666666894
                },
                {
                    "name": "A3",
                    "midi": 57,
                    "time": 76.29518304166615,
                    "velocity": 0.4409448818897638,
                    "duration": 0.08786219583333832
                },
                {
                    "name": "D#4",
                    "midi": 63,
                    "time": 76.30424099999948,
                    "velocity": 0.29133858267716534,
                    "duration": 0.10869550000001027
                },
                {
                    "name": "D#4",
                    "midi": 63,
                    "time": 76.41293649999949,
                    "velocity": 0.23622047244094488,
                    "duration": 0.10869549999999606
                },
                {
                    "name": "G#4",
                    "midi": 68,
                    "time": 76.52163199999949,
                    "velocity": 0.2755905511811024,
                    "duration": 0.10869549999999606
                },
                {
                    "name": "B4",
                    "midi": 71,
                    "time": 76.52706677499948,
                    "velocity": 0.28346456692913385,
                    "duration": 0.09420276666666894
                },
                {
                    "name": "F4",
                    "midi": 65,
                    "time": 76.52706677499948,
                    "velocity": 0.2755905511811024,
                    "duration": 0.09057958333333715
                },
                {
                    "name": "B3",
                    "midi": 59,
                    "time": 76.52797257083282,
                    "velocity": 0.2440944881889764,
                    "duration": 0.10054333749999955
                },
                {
                    "name": "G#4",
                    "midi": 68,
                    "time": 76.63032749999948,
                    "velocity": 0.2677165354330709,
                    "duration": 0.10869549999999606
                },
                {
                    "name": "D#4",
                    "midi": 63,
                    "time": 76.73902299999948,
                    "velocity": 0.2755905511811024,
                    "duration": 0.10869549999999606
                },
                {
                    "name": "C#4",
                    "midi": 61,
                    "time": 76.74264618333281,
                    "velocity": 0.2047244094488189,
                    "duration": 0.10054333749999955
                },
                {
                    "name": "A3",
                    "midi": 57,
                    "time": 76.74445777499947,
                    "velocity": 0.3937007874015748,
                    "duration": 0.10235492916666544
                },
                {
                    "name": "A4",
                    "midi": 69,
                    "time": 76.74445777499947,
                    "velocity": 0.2125984251968504,
                    "duration": 0.10597811249999722
                },
                {
                    "name": "D#4",
                    "midi": 63,
                    "time": 76.84771849999947,
                    "velocity": 0.2125984251968504,
                    "duration": 0.10869549999999606
                },
                {
                    "name": "F#4",
                    "midi": 66,
                    "time": 76.95641399999947,
                    "velocity": 0.4015748031496063,
                    "duration": 0.05072456666665914
                },
                {
                    "name": "G3",
                    "midi": 55,
                    "time": 76.9573197958328,
                    "velocity": 0.15748031496062992,
                    "duration": 0.13043460000000096
                },
                {
                    "name": "D4",
                    "midi": 62,
                    "time": 76.95822559166614,
                    "velocity": 0.1968503937007874,
                    "duration": 0.12771721250000212
                },
                {
                    "name": "G4",
                    "midi": 67,
                    "time": 76.95913138749947,
                    "velocity": 0.28346456692913385,
                    "duration": 0.12499982500000328
                },
                {
                    "name": "F#4",
                    "midi": 66,
                    "time": 77.02887766666613,
                    "velocity": 0.25984251968503935,
                    "duration": 0.050724566666673354
                },
                {
                    "name": "F#4",
                    "midi": 66,
                    "time": 77.1013413333328,
                    "velocity": 0.30708661417322836,
                    "duration": 0.050724566666673354
                },
                {
                    "name": "F#4",
                    "midi": 66,
                    "time": 77.17380499999948,
                    "velocity": 0.2992125984251969,
                    "duration": 0.05072456666665914
                },
                {
                    "name": "B2",
                    "midi": 47,
                    "time": 77.1801455708328,
                    "velocity": 0.33858267716535434,
                    "duration": 0.05887672916665565
                },
                {
                    "name": "F#4",
                    "midi": 66,
                    "time": 77.24626866666613,
                    "velocity": 0.28346456692913385,
                    "duration": 0.050724566666673354
                },
                {
                    "name": "F#4",
                    "midi": 66,
                    "time": 77.3187323333328,
                    "velocity": 0.28346456692913385,
                    "duration": 0.050724566666673354
                },
                {
                    "name": "E2",
                    "midi": 40,
                    "time": 77.37760906249947,
                    "velocity": 0.2755905511811024,
                    "duration": 0.07246366666664983
                },
                {
                    "name": "B2",
                    "midi": 47,
                    "time": 77.38304383749947,
                    "velocity": 0.30708661417322836,
                    "duration": 0.08876799166664284
                },
                {
                    "name": "F#4",
                    "midi": 66,
                    "time": 77.39391338749947,
                    "velocity": 0.36220472440944884,
                    "duration": 0.04619558749999442
                },
                {
                    "name": "B4",
                    "midi": 71,
                    "time": 77.39663077499947,
                    "velocity": 0.5669291338582677,
                    "duration": 0.04347819999999558
                },
                {
                    "name": "G3",
                    "midi": 55,
                    "time": 77.39844236666613,
                    "velocity": 0.33858267716535434,
                    "duration": 0.08514480833331106
                },
                {
                    "name": "F#4",
                    "midi": 66,
                    "time": 77.46365966666612,
                    "velocity": 0.28346456692913385,
                    "duration": 0.05072456666665914
                },
                {
                    "name": "F#4",
                    "midi": 66,
                    "time": 77.53612333333278,
                    "velocity": 0.28346456692913385,
                    "duration": 0.05072456666665914
                },
                {
                    "name": "F#4",
                    "midi": 66,
                    "time": 77.60858699999945,
                    "velocity": 0.36220472440944884,
                    "duration": 0.050724566666673354
                },
                {
                    "name": "F#4",
                    "midi": 66,
                    "time": 77.68105066666612,
                    "velocity": 0.30708661417322836,
                    "duration": 0.050724566666673354
                },
                {
                    "name": "F#4",
                    "midi": 66,
                    "time": 77.7535143333328,
                    "velocity": 0.2440944881889764,
                    "duration": 0.050724566666673354
                },
                {
                    "name": "F#4",
                    "midi": 66,
                    "time": 77.82597799999948,
                    "velocity": 0.3543307086614173,
                    "duration": 0.05072456666665914
                },
                {
                    "name": "G4",
                    "midi": 67,
                    "time": 77.83865914166614,
                    "velocity": 0.33070866141732286,
                    "duration": 0.12499982500000328
                },
                {
                    "name": "D4",
                    "midi": 62,
                    "time": 77.84409391666614,
                    "velocity": 0.2125984251968504,
                    "duration": 0.14673892500000818
                },
                {
                    "name": "G3",
                    "midi": 55,
                    "time": 77.84952869166614,
                    "velocity": 0.11811023622047244,
                    "duration": 0.11503607083334089
                },
                {
                    "name": "F#4",
                    "midi": 66,
                    "time": 77.89844166666614,
                    "velocity": 0.33858267716535434,
                    "duration": 0.050724566666673354
                },
                {
                    "name": "F#4",
                    "midi": 66,
                    "time": 77.97090533333281,
                    "velocity": 0.33858267716535434,
                    "duration": 0.050724566666673354
                },
                {
                    "name": "D4",
                    "midi": 62,
                    "time": 78.04246320416615,
                    "velocity": 0.2677165354330709,
                    "duration": 0.1612316583333353
                },
                {
                    "name": "B4",
                    "midi": 71,
                    "time": 78.04336899999949,
                    "velocity": 0.3858267716535433,
                    "duration": 0.05072456666665914
                },
                {
                    "name": "G#4",
                    "midi": 68,
                    "time": 78.04608638749949,
                    "velocity": 0.47244094488188976,
                    "duration": 0.17028961666666476
                },
                {
                    "name": "G#3",
                    "midi": 56,
                    "time": 78.04880377499948,
                    "velocity": 0.13385826771653545,
                    "duration": 0.16757222916666592
                },
                {
                    "name": "B4",
                    "midi": 71,
                    "time": 78.11583266666615,
                    "velocity": 0.3858267716535433,
                    "duration": 0.050724566666673354
                },
                {
                    "name": "B4",
                    "midi": 71,
                    "time": 78.18829633333283,
                    "velocity": 0.33858267716535434,
                    "duration": 0.05072456666665914
                },
                {
                    "name": "F#4",
                    "midi": 66,
                    "time": 78.2607599999995,
                    "velocity": 0.3700787401574803,
                    "duration": 0.050724566666673354
                },
                {
                    "name": "D4",
                    "midi": 62,
                    "time": 78.2607599999995,
                    "velocity": 0.30708661417322836,
                    "duration": 0.10144913333334671
                },
                {
                    "name": "G4",
                    "midi": 67,
                    "time": 78.2607599999995,
                    "velocity": 0.2283464566929134,
                    "duration": 0.10507231666667849
                },
                {
                    "name": "G3",
                    "midi": 55,
                    "time": 78.2607599999995,
                    "velocity": 0.11811023622047244,
                    "duration": 0.11050709166667616
                },
                {
                    "name": "F#4",
                    "midi": 66,
                    "time": 78.33322366666617,
                    "velocity": 0.3228346456692913,
                    "duration": 0.05072456666665914
                },
                {
                    "name": "F#4",
                    "midi": 66,
                    "time": 78.40568733333284,
                    "velocity": 0.2677165354330709,
                    "duration": 0.050724566666673354
                },
                {
                    "name": "F#4",
                    "midi": 66,
                    "time": 78.47815099999951,
                    "velocity": 0.33858267716535434,
                    "duration": 0.050724566666673354
                },
                {
                    "name": "F#4",
                    "midi": 66,
                    "time": 78.55061466666619,
                    "velocity": 0.2283464566929134,
                    "duration": 0.050724566666673354
                },
                {
                    "name": "F#4",
                    "midi": 66,
                    "time": 78.62307833333287,
                    "velocity": 0.31496062992125984,
                    "duration": 0.050724566666673354
                },
                {
                    "name": "F#4",
                    "midi": 66,
                    "time": 78.69554199999955,
                    "velocity": 0.33070866141732286,
                    "duration": 0.07608684999999582
                },
                {
                    "name": "D4",
                    "midi": 62,
                    "time": 78.69554199999955,
                    "velocity": 0.23622047244094488,
                    "duration": 0.10778970416666311
                },
                {
                    "name": "G4",
                    "midi": 67,
                    "time": 78.69554199999955,
                    "velocity": 0.2677165354330709,
                    "duration": 0.10235492916666544
                },
                {
                    "name": "G3",
                    "midi": 55,
                    "time": 78.69554199999955,
                    "velocity": 0.13385826771653545,
                    "duration": 0.10688390833333017
                },
                {
                    "name": "F#4",
                    "midi": 66,
                    "time": 78.80423749999954,
                    "velocity": 0.29133858267716534,
                    "duration": 0.07608684999999582
                },
                {
                    "name": "C#4",
                    "midi": 61,
                    "time": 78.91293299999954,
                    "velocity": 0.28346456692913385,
                    "duration": 0.07608684999999582
                },
                {
                    "name": "F3",
                    "midi": 53,
                    "time": 78.91293299999954,
                    "velocity": 0.11811023622047244,
                    "duration": 0.11231868333332784
                },
                {
                    "name": "B3",
                    "midi": 59,
                    "time": 78.91293299999954,
                    "velocity": 0.2204724409448819,
                    "duration": 0.11413027499999373
                },
                {
                    "name": "F4",
                    "midi": 65,
                    "time": 78.91293299999954,
                    "velocity": 0.33858267716535434,
                    "duration": 0.12499982499998907
                },
                {
                    "name": "C#4",
                    "midi": 61,
                    "time": 79.02162849999954,
                    "velocity": 0.3464566929133858,
                    "duration": 0.07608684999999582
                },
                {
                    "name": "F#4",
                    "midi": 66,
                    "time": 79.13032399999953,
                    "velocity": 0.33070866141732286,
                    "duration": 0.07608684999999582
                },
                {
                    "name": "G4",
                    "midi": 67,
                    "time": 79.13032399999953,
                    "velocity": 0.25196850393700787,
                    "duration": 0.10235492916666544
                },
                {
                    "name": "D4",
                    "midi": 62,
                    "time": 79.13032399999953,
                    "velocity": 0.33858267716535434,
                    "duration": 0.09963754166666661
                },
                {
                    "name": "G3",
                    "midi": 55,
                    "time": 79.13032399999953,
                    "velocity": 0.10236220472440945,
                    "duration": 0.12318823333332318
                },
                {
                    "name": "F#4",
                    "midi": 66,
                    "time": 79.23901949999953,
                    "velocity": 0.3228346456692913,
                    "duration": 0.07608684999999582
                },
                {
                    "name": "C#4",
                    "midi": 61,
                    "time": 79.34771499999952,
                    "velocity": 0.2677165354330709,
                    "duration": 0.07608684999999582
                },
                {
                    "name": "F4",
                    "midi": 65,
                    "time": 79.34771499999952,
                    "velocity": 0.2047244094488189,
                    "duration": 0.11503607083332668
                },
                {
                    "name": "B3",
                    "midi": 59,
                    "time": 79.34771499999952,
                    "velocity": 0.31496062992125984,
                    "duration": 0.1114128874999949
                },
                {
                    "name": "F3",
                    "midi": 53,
                    "time": 79.34771499999952,
                    "velocity": 0.12598425196850394,
                    "duration": 0.10869549999999606
                },
                {
                    "name": "C#4",
                    "midi": 61,
                    "time": 79.45641049999952,
                    "velocity": 0.23622047244094488,
                    "duration": 0.07608684999999582
                },
                {
                    "name": "F#4",
                    "midi": 66,
                    "time": 79.51075824999951,
                    "velocity": 0.23622047244094488,
                    "duration": 0.018115916666673115
                },
                {
                    "name": "B4",
                    "midi": 71,
                    "time": 79.52887416666618,
                    "velocity": 0.23622047244094488,
                    "duration": 0.018115916666658904
                },
                {
                    "name": "G3",
                    "midi": 55,
                    "time": 79.52887416666618,
                    "velocity": 0.23622047244094488,
                    "duration": 0.035326037499999074
                },
                {
                    "name": "D4",
                    "midi": 62,
                    "time": 79.52887416666618,
                    "velocity": 0.23622047244094488,
                    "duration": 0.035326037499999074
                },
                {
                    "name": "F#5",
                    "midi": 78,
                    "time": 79.54699008333284,
                    "velocity": 0.23622047244094488,
                    "duration": 0.018115916666673115
                },
                {
                    "name": "D6",
                    "midi": 86,
                    "time": 79.56510599999952,
                    "velocity": 0.25984251968503935,
                    "duration": 0.03623183333333202
                },
                {
                    "name": "D5",
                    "midi": 74,
                    "time": 79.56510599999952,
                    "velocity": 0.3937007874015748,
                    "duration": 0.031702854166667294
                },
                {
                    "name": "F#5",
                    "midi": 78,
                    "time": 79.56691759166618,
                    "velocity": 0.47244094488188976,
                    "duration": 0.04619558749999442
                },
                {
                    "name": "E2",
                    "midi": 40,
                    "time": 79.57688134583285,
                    "velocity": 0.14960629921259844,
                    "duration": 0.4275356333333207
                },
                {
                    "name": "B2",
                    "midi": 47,
                    "time": 79.57688134583285,
                    "velocity": 0.2283464566929134,
                    "duration": 0.4275356333333207
                },
                {
                    "name": "C#6",
                    "midi": 85,
                    "time": 79.79155495833284,
                    "velocity": 0.3937007874015748,
                    "duration": 0.06521730000000048
                },
                {
                    "name": "D6",
                    "midi": 86,
                    "time": 79.84499691249951,
                    "velocity": 0.3779527559055118,
                    "duration": 0.07427525833332993
                },
                {
                    "name": "C#6",
                    "midi": 85,
                    "time": 79.90659102916618,
                    "velocity": 0.4330708661417323,
                    "duration": 0.0978259499999865
                },
                {
                    "name": "B5",
                    "midi": 83,
                    "time": 79.9863010624995,
                    "velocity": 0.3779527559055118,
                    "duration": 0.05525354583332387
                },
                {
                    "name": "F#4",
                    "midi": 66,
                    "time": 79.99354742916617,
                    "velocity": 0.2440944881889764,
                    "duration": 0.17572439166666243
                },
                {
                    "name": "G4",
                    "midi": 67,
                    "time": 79.99535902083284,
                    "velocity": 0.3779527559055118,
                    "duration": 0.15579688333332342
                },
                {
                    "name": "B3",
                    "midi": 59,
                    "time": 79.9998879999995,
                    "velocity": 0.16535433070866143,
                    "duration": 0.14220994583332924
                },
                {
                    "name": "A#5",
                    "midi": 82,
                    "time": 80.19735149166617,
                    "velocity": 0.41732283464566927,
                    "duration": 0.0416666083333439
                },
                {
                    "name": "D5",
                    "midi": 74,
                    "time": 80.22090218333284,
                    "velocity": 0.3779527559055118,
                    "duration": 0.1449273333333423
                },
                {
                    "name": "B4",
                    "midi": 71,
                    "time": 80.22090218333284,
                    "velocity": 0.36220472440944884,
                    "duration": 0.14402153750000934
                },
                {
                    "name": "C#5",
                    "midi": 73,
                    "time": 80.44191636666618,
                    "velocity": 0.2204724409448819,
                    "duration": 0.03260865000000024
                },
                {
                    "name": "F#5",
                    "midi": 78,
                    "time": 80.44372795833284,
                    "velocity": 0.3700787401574803,
                    "duration": 0.035326037499999074
                },
                {
                    "name": "F#4",
                    "midi": 66,
                    "time": 80.63394508333285,
                    "velocity": 0.30708661417322836,
                    "duration": 0.17210120833333065
                },
                {
                    "name": "G4",
                    "midi": 67,
                    "time": 80.63394508333285,
                    "velocity": 0.3543307086614173,
                    "duration": 0.17210120833333065
                },
                {
                    "name": "B3",
                    "midi": 59,
                    "time": 80.63937985833284,
                    "velocity": 0.25984251968503935,
                    "duration": 0.14855051666665986
                },
                {
                    "name": "G5",
                    "midi": 79,
                    "time": 80.64481463333284,
                    "velocity": 0.33070866141732286,
                    "duration": 0.04166660833332969
                },
                {
                    "name": "D5",
                    "midi": 74,
                    "time": 80.64662622499951,
                    "velocity": 0.3700787401574803,
                    "duration": 0.029891262500001403
                },
                {
                    "name": "E3",
                    "midi": 52,
                    "time": 80.86311142916618,
                    "velocity": 0.2047244094488189,
                    "duration": 0.15217369999999164
                },
                {
                    "name": "B3",
                    "midi": 59,
                    "time": 80.86673461249951,
                    "velocity": 0.25984251968503935,
                    "duration": 0.14220994583332924
                },
                {
                    "name": "F#5",
                    "midi": 78,
                    "time": 80.87035779583285,
                    "velocity": 0.3937007874015748,
                    "duration": 0.07065207499999815
                },
                {
                    "name": "D5",
                    "midi": 74,
                    "time": 80.87126359166618,
                    "velocity": 0.2125984251968504,
                    "duration": 0.04438399583334274
                },
                {
                    "name": "D6",
                    "midi": 86,
                    "time": 80.87126359166618,
                    "velocity": 0.2283464566929134,
                    "duration": 0.059782525000002806
                },
                {
                    "name": "C#6",
                    "midi": 85,
                    "time": 81.08321981666617,
                    "velocity": 0.4330708661417323,
                    "duration": 0.07065207499999815
                },
                {
                    "name": "D6",
                    "midi": 86,
                    "time": 81.13937915833284,
                    "velocity": 0.4409448818897638,
                    "duration": 0.07246366666666404
                },
                {
                    "name": "C#6",
                    "midi": 85,
                    "time": 81.20369066249951,
                    "velocity": 0.47244094488188976,
                    "duration": 0.08876799166665705
                },
                {
                    "name": "B5",
                    "midi": 83,
                    "time": 81.2797775124995,
                    "velocity": 0.4330708661417323,
                    "duration": 0.061594116666654486
                },
                {
                    "name": "G4",
                    "midi": 67,
                    "time": 81.2933644499995,
                    "velocity": 0.44881889763779526,
                    "duration": 0.1295288041666538
                },
                {
                    "name": "F#4",
                    "midi": 66,
                    "time": 81.2933644499995,
                    "velocity": 0.4015748031496063,
                    "duration": 0.12590562083332202
                },
                {
                    "name": "B3",
                    "midi": 59,
                    "time": 81.2960818374995,
                    "velocity": 0.4015748031496063,
                    "duration": 0.11413027499999373
                },
                {
                    "name": "A#5",
                    "midi": 82,
                    "time": 81.49716851249948,
                    "velocity": 0.4881889763779528,
                    "duration": 0.04800717916666031
                },
                {
                    "name": "D5",
                    "midi": 74,
                    "time": 81.71637110416614,
                    "velocity": 0.4645669291338583,
                    "duration": 0.13315198749998558
                },
                {
                    "name": "B4",
                    "midi": 71,
                    "time": 81.71637110416614,
                    "velocity": 0.47244094488188976,
                    "duration": 0.13586937499998442
                },
                {
                    "name": "C#5",
                    "midi": 73,
                    "time": 81.71999428749947,
                    "velocity": 0.3937007874015748,
                    "duration": 0.04710138333332736
                },
                {
                    "name": "F#5",
                    "midi": 78,
                    "time": 81.72542906249947,
                    "velocity": 0.4330708661417323,
                    "duration": 0.0498187708333262
                },
                {
                    "name": "G5",
                    "midi": 79,
                    "time": 81.93466789999945,
                    "velocity": 0.47244094488188976,
                    "duration": 0.059782524999988595
                },
                {
                    "name": "D5",
                    "midi": 74,
                    "time": 81.93557369583279,
                    "velocity": 0.5669291338582677,
                    "duration": 0.04800717916666031
                },
                {
                    "name": "E3",
                    "midi": 52,
                    "time": 82.17198640833277,
                    "velocity": 0.4645669291338583,
                    "duration": 0.4239124499999889
                },
                {
                    "name": "A2",
                    "midi": 45,
                    "time": 82.17198640833277,
                    "velocity": 0.4330708661417323,
                    "duration": 0.43115881666665246
                },
                {
                    "name": "D6",
                    "midi": 86,
                    "time": 82.17379799999944,
                    "velocity": 0.4645669291338583,
                    "duration": 0.10235492916665123
                },
                {
                    "name": "G5",
                    "midi": 79,
                    "time": 82.1756095916661,
                    "velocity": 0.47244094488188976,
                    "duration": 0.08423901249999233
                },
                {
                    "name": "D5",
                    "midi": 74,
                    "time": 82.17651538749944,
                    "velocity": 0.3858267716535433,
                    "duration": 0.07518105416666288
                },
                {
                    "name": "C#6",
                    "midi": 85,
                    "time": 82.40205854999942,
                    "velocity": 0.5039370078740157,
                    "duration": 0.07789844166667592
                },
                {
                    "name": "D6",
                    "midi": 86,
                    "time": 82.4609352791661,
                    "velocity": 0.47244094488188976,
                    "duration": 0.0697462791666652
                },
                {
                    "name": "C#6",
                    "midi": 85,
                    "time": 82.51709462083276,
                    "velocity": 0.4881889763779528,
                    "duration": 0.08423901249999233
                },
                {
                    "name": "B5",
                    "midi": 83,
                    "time": 82.58684089999943,
                    "velocity": 0.5039370078740157,
                    "duration": 0.08514480833332527
                },
                {
                    "name": "D4",
                    "midi": 62,
                    "time": 82.6239785291661,
                    "velocity": 0.4015748031496063,
                    "duration": 0.1394925583333304
                },
                {
                    "name": "B3",
                    "midi": 59,
                    "time": 82.6239785291661,
                    "velocity": 0.31496062992125984,
                    "duration": 0.13858676249999746
                },
                {
                    "name": "G4",
                    "midi": 67,
                    "time": 82.62488432499943,
                    "velocity": 0.4330708661417323,
                    "duration": 0.14220994583332924
                },
                {
                    "name": "D5",
                    "midi": 74,
                    "time": 82.83049997916609,
                    "velocity": 0.4881889763779528,
                    "duration": 0.1195650499999914
                },
                {
                    "name": "B4",
                    "midi": 71,
                    "time": 82.83231157083276,
                    "velocity": 0.4881889763779528,
                    "duration": 0.11865925416665846
                },
                {
                    "name": "A#5",
                    "midi": 82,
                    "time": 82.83865214166609,
                    "velocity": 0.5354330708661418,
                    "duration": 0.037137629166664965
                },
                {
                    "name": "C#5",
                    "midi": 73,
                    "time": 83.03702142916609,
                    "velocity": 0.4881889763779528,
                    "duration": 0.04619558749999442
                },
                {
                    "name": "F#5",
                    "midi": 78,
                    "time": 83.03883302083275,
                    "velocity": 0.5984251968503937,
                    "duration": 0.05525354583332387
                },
                {
                    "name": "G5",
                    "midi": 79,
                    "time": 83.24988344999942,
                    "velocity": 0.5984251968503937,
                    "duration": 0.0398550166666638
                },
                {
                    "name": "G4",
                    "midi": 67,
                    "time": 83.25169504166608,
                    "velocity": 0.4409448818897638,
                    "duration": 0.17028961666666476
                },
                {
                    "name": "D4",
                    "midi": 62,
                    "time": 83.25169504166608,
                    "velocity": 0.5039370078740157,
                    "duration": 0.15217369999999164
                },
                {
                    "name": "D5",
                    "midi": 74,
                    "time": 83.25260083749941,
                    "velocity": 0.5669291338582677,
                    "duration": 0.04438399583332853
                },
                {
                    "name": "E4",
                    "midi": 64,
                    "time": 83.46093387916608,
                    "velocity": 0.4881889763779528,
                    "duration": 0.15670267916667058
                },
                {
                    "name": "A3",
                    "midi": 57,
                    "time": 83.46727444999941,
                    "velocity": 0.4645669291338583,
                    "duration": 0.14673892500000818
                },
                {
                    "name": "D6",
                    "midi": 86,
                    "time": 83.4781439999994,
                    "velocity": 0.7322834645669292,
                    "duration": 0.05706513750000397
                },
                {
                    "name": "D5",
                    "midi": 74,
                    "time": 83.47904979583274,
                    "velocity": 0.4881889763779528,
                    "duration": 0.050724566666673354
                },
                {
                    "name": "G5",
                    "midi": 79,
                    "time": 83.47904979583274,
                    "velocity": 0.5669291338582677,
                    "duration": 0.04981877083334041
                },
                {
                    "name": "C#6",
                    "midi": 85,
                    "time": 83.69191181666608,
                    "velocity": 0.5669291338582677,
                    "duration": 0.0697462791666652
                },
                {
                    "name": "D6",
                    "midi": 86,
                    "time": 83.75078854583275,
                    "velocity": 0.6692913385826772,
                    "duration": 0.06702889166665216
                },
                {
                    "name": "C#6",
                    "midi": 85,
                    "time": 83.80875947916607,
                    "velocity": 0.5984251968503937,
                    "duration": 0.08967378749999
                },
                {
                    "name": "B5",
                    "midi": 83,
                    "time": 83.8884695124994,
                    "velocity": 0.7007874015748031,
                    "duration": 0.06612309583333342
                },
                {
                    "name": "G4",
                    "midi": 67,
                    "time": 83.90205644999939,
                    "velocity": 0.4645669291338583,
                    "duration": 0.14039835416666335
                },
                {
                    "name": "D4",
                    "midi": 62,
                    "time": 83.90386804166606,
                    "velocity": 0.5039370078740157,
                    "duration": 0.1231882333333374
                },
                {
                    "name": "A#5",
                    "midi": 82,
                    "time": 84.10586051249939,
                    "velocity": 0.7007874015748031,
                    "duration": 0.04800717916666031
                },
                {
                    "name": "C#5",
                    "midi": 73,
                    "time": 84.31419355416605,
                    "velocity": 0.5669291338582677,
                    "duration": 0.033514445833333184
                },
                {
                    "name": "F#5",
                    "midi": 78,
                    "time": 84.31509934999939,
                    "velocity": 0.7007874015748031,
                    "duration": 0.042572404166662636
                },
                {
                    "name": "B4",
                    "midi": 71,
                    "time": 84.32325151249938,
                    "velocity": 0.4645669291338583,
                    "duration": 0.18206496249999304
                },
                {
                    "name": "G4",
                    "midi": 67,
                    "time": 84.32415730833272,
                    "velocity": 0.44881889763779526,
                    "duration": 0.17663018749999537
                },
                {
                    "name": "G5",
                    "midi": 79,
                    "time": 84.53249034999938,
                    "velocity": 0.6692913385826772,
                    "duration": 0.04710138333332736
                },
                {
                    "name": "D5",
                    "midi": 74,
                    "time": 84.53430194166604,
                    "velocity": 0.5669291338582677,
                    "duration": 0.042572404166662636
                },
                {
                    "name": "D6",
                    "midi": 86,
                    "time": 84.78520738749938,
                    "velocity": 0.7716535433070866,
                    "duration": 0.06702889166666637
                },
                {
                    "name": "D5",
                    "midi": 74,
                    "time": 84.78611318333272,
                    "velocity": 0.7007874015748031,
                    "duration": 0.06793468749999931
                },
                {
                    "name": "F#5",
                    "midi": 78,
                    "time": 84.78611318333272,
                    "velocity": 0.7322834645669292,
                    "duration": 0.07789844166666171
                },
                {
                    "name": "D3",
                    "midi": 50,
                    "time": 84.79426534583271,
                    "velocity": 0.5669291338582677,
                    "duration": 0.03260865000000024
                },
                {
                    "name": "D2",
                    "midi": 38,
                    "time": 84.79698273333271,
                    "velocity": 0.6692913385826772,
                    "duration": 0.027173875000002568
                },
                {
                    "name": "F#3",
                    "midi": 54,
                    "time": 85.03611283333272,
                    "velocity": 0.3700787401574803,
                    "duration": 0.028079670833335513
                },
                {
                    "name": "A3",
                    "midi": 57,
                    "time": 85.03611283333272,
                    "velocity": 0.1732283464566929,
                    "duration": 0.028985466666668458
                },
                {
                    "name": "D3",
                    "midi": 50,
                    "time": 85.20368506249939,
                    "velocity": 0.29133858267716534,
                    "duration": 0.08423901250000654
                },
                {
                    "name": "A2",
                    "midi": 45,
                    "time": 85.39933696249939,
                    "velocity": 0.3858267716535433,
                    "duration": 0.05344195416667219
                },
                {
                    "name": "F#3",
                    "midi": 54,
                    "time": 85.42288765416606,
                    "velocity": 0.4645669291338583,
                    "duration": 0.03442024166666613
                },
                {
                    "name": "A3",
                    "midi": 57,
                    "time": 85.43556879583272,
                    "velocity": 0.7007874015748031,
                    "duration": 0.031702854166667294
                },
                {
                    "name": "D3",
                    "midi": 50,
                    "time": 85.63846706249939,
                    "velocity": 0.31496062992125984,
                    "duration": 0.12771721250000212
                },
                {
                    "name": "F3",
                    "midi": 53,
                    "time": 85.84680010416605,
                    "velocity": 0.2440944881889764,
                    "duration": 0.1693838208333318
                },
                {
                    "name": "G#3",
                    "midi": 56,
                    "time": 85.85132908333271,
                    "velocity": 0.2992125984251969,
                    "duration": 0.08333321666667359
                },
                {
                    "name": "C4",
                    "midi": 60,
                    "time": 85.85132908333271,
                    "velocity": 0.3228346456692913,
                    "duration": 0.08514480833333948
                },
                {
                    "name": "D3",
                    "midi": 50,
                    "time": 86.08774179583271,
                    "velocity": 0.28346456692913385,
                    "duration": 0.11413027499999373
                },
                {
                    "name": "F#3",
                    "midi": 54,
                    "time": 86.31237916249937,
                    "velocity": 0.3543307086614173,
                    "duration": 0.04438399583332853
                },
                {
                    "name": "A3",
                    "midi": 57,
                    "time": 86.3132849583327,
                    "velocity": 0.4330708661417323,
                    "duration": 0.04619558749999442
                },
                {
                    "name": "D3",
                    "midi": 50,
                    "time": 86.50712526666602,
                    "velocity": 0.36220472440944884,
                    "duration": 0.1630432500000012
                },
                {
                    "name": "G#3",
                    "midi": 56,
                    "time": 86.7208930833327,
                    "velocity": 0.3464566929133858,
                    "duration": 0.11865925416665846
                },
                {
                    "name": "F3",
                    "midi": 53,
                    "time": 86.7208930833327,
                    "velocity": 0.31496062992125984,
                    "duration": 0.11775345833332551
                },
                {
                    "name": "A3",
                    "midi": 57,
                    "time": 86.7236104708327,
                    "velocity": 0.3228346456692913,
                    "duration": 0.11594186666665962
                },
                {
                    "name": "A2",
                    "midi": 45,
                    "time": 86.72451626666603,
                    "velocity": 0.33858267716535434,
                    "duration": 0.13858676249999746
                },
                {
                    "name": "A3",
                    "midi": 57,
                    "time": 86.9301319208327,
                    "velocity": 0.28346456692913385,
                    "duration": 0.15398529166665753
                },
                {
                    "name": "G3",
                    "midi": 55,
                    "time": 86.9301319208327,
                    "velocity": 0.33070866141732286,
                    "duration": 0.15217369999999164
                },
                {
                    "name": "E3",
                    "midi": 52,
                    "time": 86.93194351249936,
                    "velocity": 0.31496062992125984,
                    "duration": 0.14220994583332924
                },
                {
                    "name": "C3",
                    "midi": 48,
                    "time": 86.93828408333269,
                    "velocity": 0.4015748031496063,
                    "duration": 0.17663018749999537
                },
                {
                    "name": "G#2",
                    "midi": 44,
                    "time": 87.16745042916602,
                    "velocity": 0.2755905511811024,
                    "duration": 0.16213745416666825
                },
                {
                    "name": "D#3",
                    "midi": 51,
                    "time": 87.17288520416602,
                    "velocity": 0.2204724409448819,
                    "duration": 0.13496357916666568
                },
                {
                    "name": "A3",
                    "midi": 57,
                    "time": 87.17469679583269,
                    "velocity": 0.18110236220472442,
                    "duration": 0.13405778333333274
                },
                {
                    "name": "F#3",
                    "midi": 54,
                    "time": 87.17469679583269,
                    "velocity": 0.3779527559055118,
                    "duration": 0.1331519874999998
                },
                {
                    "name": "D3",
                    "midi": 50,
                    "time": 87.39389938749936,
                    "velocity": 0.5354330708661418,
                    "duration": 0.06884048333333226
                },
                {
                    "name": "D2",
                    "midi": 38,
                    "time": 87.39933416249936,
                    "velocity": 0.5039370078740157,
                    "duration": 0.05887672916666986
                },
                {
                    "name": "F#3",
                    "midi": 54,
                    "time": 87.61672516249936,
                    "velocity": 0.4330708661417323,
                    "duration": 0.06068832083333575
                },
                {
                    "name": "A3",
                    "midi": 57,
                    "time": 87.6176309583327,
                    "velocity": 0.33858267716535434,
                    "duration": 0.05525354583333808
                },
                {
                    "name": "D3",
                    "midi": 50,
                    "time": 87.81962342916603,
                    "velocity": 0.36220472440944884,
                    "duration": 0.14039835416666335
                },
                {
                    "name": "A2",
                    "midi": 45,
                    "time": 88.00078259583269,
                    "velocity": 0.41732283464566927,
                    "duration": 0.03623183333333202
                },
                {
                    "name": "F#3",
                    "midi": 54,
                    "time": 88.01436953333268,
                    "velocity": 0.4409448818897638,
                    "duration": 0.03260865000000024
                },
                {
                    "name": "A3",
                    "midi": 57,
                    "time": 88.03157965416602,
                    "velocity": 0.47244094488188976,
                    "duration": 0.02626807916665541
                },
                {
                    "name": "D3",
                    "midi": 50,
                    "time": 88.24897065416602,
                    "velocity": 0.23622047244094488,
                    "duration": 0.15217370000000585
                },
                {
                    "name": "F3",
                    "midi": 53,
                    "time": 88.44462255416602,
                    "velocity": 0.29133858267716534,
                    "duration": 0.19565190000000143
                },
                {
                    "name": "G#3",
                    "midi": 56,
                    "time": 88.46998483749935,
                    "velocity": 0.33858267716535434,
                    "duration": 0.11775345833332551
                },
                {
                    "name": "C4",
                    "midi": 60,
                    "time": 88.46998483749935,
                    "velocity": 0.30708661417322836,
                    "duration": 0.11594186666665962
                },
                {
                    "name": "D3",
                    "midi": 50,
                    "time": 88.68828163333268,
                    "velocity": 0.2992125984251969,
                    "duration": 0.14764472083332691
                },
                {
                    "name": "A3",
                    "midi": 57,
                    "time": 88.90567263333267,
                    "velocity": 0.1968503937007874,
                    "duration": 0.08061582916666055
                },
                {
                    "name": "F#3",
                    "midi": 54,
                    "time": 88.909295816666,
                    "velocity": 0.3464566929133858,
                    "duration": 0.07699264583332877
                },
                {
                    "name": "D3",
                    "midi": 50,
                    "time": 89.118534654166,
                    "velocity": 0.3543307086614173,
                    "duration": 0.16666643333333298
                },
                {
                    "name": "G#3",
                    "midi": 56,
                    "time": 89.33954883749934,
                    "velocity": 0.30708661417322836,
                    "duration": 0.10597811249999722
                },
                {
                    "name": "F3",
                    "midi": 53,
                    "time": 89.34226622499934,
                    "velocity": 0.3464566929133858,
                    "duration": 0.1014491333333325
                },
                {
                    "name": "A3",
                    "midi": 57,
                    "time": 89.34317202083267,
                    "velocity": 0.3937007874015748,
                    "duration": 0.09692015416666777
                },
                {
                    "name": "A2",
                    "midi": 45,
                    "time": 89.344077816666,
                    "velocity": 0.3464566929133858,
                    "duration": 0.15398529166667174
                },
                {
                    "name": "G3",
                    "midi": 55,
                    "time": 89.539729716666,
                    "velocity": 0.3937007874015748,
                    "duration": 0.14673892499999397
                },
                {
                    "name": "A3",
                    "midi": 57,
                    "time": 89.54063551249934,
                    "velocity": 0.33070866141732286,
                    "duration": 0.14583312916666102
                },
                {
                    "name": "E3",
                    "midi": 52,
                    "time": 89.54154130833267,
                    "velocity": 0.3543307086614173,
                    "duration": 0.12499982499998907
                },
                {
                    "name": "C3",
                    "midi": 48,
                    "time": 89.55693983749933,
                    "velocity": 0.36220472440944884,
                    "duration": 0.20199247083333205
                },
                {
                    "name": "D#3",
                    "midi": 51,
                    "time": 89.77070765416599,
                    "velocity": 0.1889763779527559,
                    "duration": 0.1711954125000119
                },
                {
                    "name": "F#3",
                    "midi": 54,
                    "time": 89.77161344999932,
                    "velocity": 0.36220472440944884,
                    "duration": 0.17663018750000958
                },
                {
                    "name": "A3",
                    "midi": 57,
                    "time": 89.77161344999932,
                    "velocity": 0.3228346456692913,
                    "duration": 0.1829707583333402
                },
                {
                    "name": "G#2",
                    "midi": 44,
                    "time": 89.78882357083266,
                    "velocity": 0.2677165354330709,
                    "duration": 0.17028961666666476
                },
                {
                    "name": "D2",
                    "midi": 38,
                    "time": 90.01436673333266,
                    "velocity": 0.3858267716535433,
                    "duration": 0.09601435833333483
                },
                {
                    "name": "D3",
                    "midi": 50,
                    "time": 90.015272529166,
                    "velocity": 0.4094488188976378,
                    "duration": 0.09782595000000072
                },
                {
                    "name": "A3",
                    "midi": 57,
                    "time": 90.23356932499934,
                    "velocity": 0.2047244094488189,
                    "duration": 0.0914853791666701
                },
                {
                    "name": "F#3",
                    "midi": 54,
                    "time": 90.23356932499934,
                    "velocity": 0.4015748031496063,
                    "duration": 0.08605060416667243
                },
                {
                    "name": "D3",
                    "midi": 50,
                    "time": 90.42197485833266,
                    "velocity": 0.3937007874015748,
                    "duration": 0.13496357916666568
                },
                {
                    "name": "A2",
                    "midi": 45,
                    "time": 90.60222822916599,
                    "velocity": 0.4015748031496063,
                    "duration": 0.09420276666665472
                },
                {
                    "name": "F#3",
                    "midi": 54,
                    "time": 90.63211949166597,
                    "velocity": 0.4881889763779528,
                    "duration": 0.056159341666671025
                },
                {
                    "name": "A3",
                    "midi": 57,
                    "time": 90.64932961249932,
                    "velocity": 0.4409448818897638,
                    "duration": 0.06521730000000048
                },
                {
                    "name": "D3",
                    "midi": 50,
                    "time": 90.85675685833264,
                    "velocity": 0.33070866141732286,
                    "duration": 0.129528804166668
                },
                {
                    "name": "A3",
                    "midi": 57,
                    "time": 91.08592320416598,
                    "velocity": 0.3228346456692913,
                    "duration": 0.10869550000001027
                },
                {
                    "name": "F#3",
                    "midi": 54,
                    "time": 91.08773479583265,
                    "velocity": 0.4094488188976378,
                    "duration": 0.08876799166667126
                },
                {
                    "name": "D2",
                    "midi": 38,
                    "time": 91.31871273333266,
                    "velocity": 0.3858267716535433,
                    "duration": 0.09601435833333483
                },
                {
                    "name": "D3",
                    "midi": 50,
                    "time": 91.319618529166,
                    "velocity": 0.4094488188976378,
                    "duration": 0.09782595000000072
                },
                {
                    "name": "A3",
                    "midi": 57,
                    "time": 91.53791532499932,
                    "velocity": 0.2047244094488189,
                    "duration": 0.0914853791666701
                },
                {
                    "name": "F#3",
                    "midi": 54,
                    "time": 91.53791532499932,
                    "velocity": 0.4015748031496063,
                    "duration": 0.08605060416667243
                },
                {
                    "name": "D3",
                    "midi": 50,
                    "time": 91.72632085833266,
                    "velocity": 0.3937007874015748,
                    "duration": 0.13496357916666568
                },
                {
                    "name": "A2",
                    "midi": 45,
                    "time": 91.90657422916598,
                    "velocity": 0.4015748031496063,
                    "duration": 0.09420276666666894
                },
                {
                    "name": "F#3",
                    "midi": 54,
                    "time": 91.93646549166598,
                    "velocity": 0.4881889763779528,
                    "duration": 0.056159341666671025
                },
                {
                    "name": "A3",
                    "midi": 57,
                    "time": 91.95367561249932,
                    "velocity": 0.4409448818897638,
                    "duration": 0.06521730000000048
                },
                {
                    "name": "D3",
                    "midi": 50,
                    "time": 92.16110285833265,
                    "velocity": 0.33070866141732286,
                    "duration": 0.129528804166668
                },
                {
                    "name": "A3",
                    "midi": 57,
                    "time": 92.39026920416599,
                    "velocity": 0.3228346456692913,
                    "duration": 0.10869550000001027
                },
                {
                    "name": "F#3",
                    "midi": 54,
                    "time": 92.39208079583265,
                    "velocity": 0.4094488188976378,
                    "duration": 0.08876799166667126
                },
                {
                    "name": "A2",
                    "midi": 45,
                    "time": 92.60856599999933,
                    "velocity": 0.31496062992125984,
                    "duration": 0.06249991249998743
                },
                {
                    "name": "D2",
                    "midi": 38,
                    "time": 92.60856599999933,
                    "velocity": 0.3543307086614173,
                    "duration": 0.05072456666665914
                },
                {
                    "name": "F#2",
                    "midi": 42,
                    "time": 92.82595699999932,
                    "velocity": 0.28346456692913385,
                    "duration": 0.057970933333336916
                },
                {
                    "name": "A2",
                    "midi": 45,
                    "time": 92.82595699999932,
                    "velocity": 0.36220472440944884,
                    "duration": 0.06340570833333459
                },
                {
                    "name": "A2",
                    "midi": 45,
                    "time": 93.04334799999933,
                    "velocity": 0.2283464566929134,
                    "duration": 0.0697462791666652
                },
                {
                    "name": "D2",
                    "midi": 38,
                    "time": 93.04334799999933,
                    "velocity": 0.3700787401574803,
                    "duration": 0.05344195416667219
                },
                {
                    "name": "F#2",
                    "midi": 42,
                    "time": 93.26073899999933,
                    "velocity": 0.2677165354330709,
                    "duration": 0.05887672916666986
                },
                {
                    "name": "A2",
                    "midi": 45,
                    "time": 93.26073899999933,
                    "velocity": 0.2440944881889764,
                    "duration": 0.06612309583333342
                },
                {
                    "name": "A2",
                    "midi": 45,
                    "time": 93.47812999999934,
                    "velocity": 0.2283464566929134,
                    "duration": 0.07246366666667825
                },
                {
                    "name": "D2",
                    "midi": 38,
                    "time": 93.47812999999934,
                    "velocity": 0.2283464566929134,
                    "duration": 0.05525354583333808
                },
                {
                    "name": "F#2",
                    "midi": 42,
                    "time": 93.69552099999935,
                    "velocity": 0.2047244094488189,
                    "duration": 0.057970933333336916
                },
                {
                    "name": "A2",
                    "midi": 45,
                    "time": 93.69552099999935,
                    "velocity": 0.2283464566929134,
                    "duration": 0.06793468749999931
                },
                {
                    "name": "D2",
                    "midi": 38,
                    "time": 93.91291199999934,
                    "velocity": 0.15748031496062992,
                    "duration": 0.05887672916666986
                },
                {
                    "name": "A2",
                    "midi": 45,
                    "time": 93.91291199999934,
                    "velocity": 0.14173228346456693,
                    "duration": 0.0715578708333311
                },
                {
                    "name": "A2",
                    "midi": 45,
                    "time": 94.13030299999933,
                    "velocity": 0.10236220472440945,
                    "duration": 0.0815216250000077
                },
                {
                    "name": "F#2",
                    "midi": 42,
                    "time": 94.13030299999933,
                    "velocity": 0.14960629921259844,
                    "duration": 0.06340570833333459
                },
                {
                    "name": "D2",
                    "midi": 38,
                    "time": 94.34769399999934,
                    "velocity": 0.25196850393700787,
                    "duration": 0.07336946249999698
                },
                {
                    "name": "A2",
                    "midi": 45,
                    "time": 94.34769399999934,
                    "velocity": 0.14173228346456693,
                    "duration": 0.06612309583333342
                },
                {
                    "name": "F#2",
                    "midi": 42,
                    "time": 94.56508499999933,
                    "velocity": 0.14173228346456693,
                    "duration": 0.0715578708333311
                },
                {
                    "name": "A2",
                    "midi": 45,
                    "time": 94.56508499999933,
                    "velocity": 0.14173228346456693,
                    "duration": 0.08695639999999116
                },
                {
                    "name": "A2",
                    "midi": 45,
                    "time": 94.78247599999932,
                    "velocity": 0.15748031496062992,
                    "duration": 0.07789844166666171
                },
                {
                    "name": "D2",
                    "midi": 38,
                    "time": 94.78247599999932,
                    "velocity": 0.2677165354330709,
                    "duration": 0.0715578708333311
                },
                {
                    "name": "A2",
                    "midi": 45,
                    "time": 94.99986699999931,
                    "velocity": 0.11811023622047244,
                    "duration": 0.08333321666665938
                },
                {
                    "name": "F#2",
                    "midi": 42,
                    "time": 94.99986699999931,
                    "velocity": 0.1968503937007874,
                    "duration": 0.07336946249999698
                },
                {
                    "name": "A1",
                    "midi": 33,
                    "time": 95.2254101624993,
                    "velocity": 0.7716535433070866,
                    "duration": 0.21739099999999212
                },
                {
                    "name": "D1",
                    "midi": 26,
                    "time": 95.2281275499993,
                    "velocity": 0.7716535433070866,
                    "duration": 0.21739099999999212
                },
                {
                    "name": "A5",
                    "midi": 81,
                    "time": 95.78428619166596,
                    "velocity": 0.5984251968503937,
                    "duration": 0.0516303625000063
                },
                {
                    "name": "B5",
                    "midi": 83,
                    "time": 95.80964847499929,
                    "velocity": 0.47244094488188976,
                    "duration": 0.07518105416666288
                },
                {
                    "name": "C#6",
                    "midi": 85,
                    "time": 95.84225712499929,
                    "velocity": 0.5669291338582677,
                    "duration": 0.059782525000002806
                },
                {
                    "name": "A5",
                    "midi": 81,
                    "time": 95.86852520416596,
                    "velocity": 0.5354330708661418,
                    "duration": 0.43478200000001266
                },
                {
                    "name": "A3",
                    "midi": 57,
                    "time": 95.88030054999929,
                    "velocity": 0.6299212598425197,
                    "duration": 0.43478200000001266
                },
                {
                    "name": "D5",
                    "midi": 74,
                    "time": 95.88030054999929,
                    "velocity": 0.7007874015748031,
                    "duration": 0.43478200000001266
                },
                {
                    "name": "D6",
                    "midi": 86,
                    "time": 95.88030054999929,
                    "velocity": 0.7716535433070866,
                    "duration": 0.43478200000001266
                },
                {
                    "name": "F#3",
                    "midi": 54,
                    "time": 95.88211214166596,
                    "velocity": 0.7322834645669292,
                    "duration": 0.43478200000001266
                },
                {
                    "name": "F#4",
                    "midi": 66,
                    "time": 95.88211214166596,
                    "velocity": 0.5984251968503937,
                    "duration": 0.43478200000001266
                },
                {
                    "name": "D4",
                    "midi": 62,
                    "time": 95.88301793749929,
                    "velocity": 0.6692913385826772,
                    "duration": 0.43478200000001266
                },
                {
                    "name": "D4",
                    "midi": 62,
                    "time": 97.78700077916596,
                    "velocity": 0.4645669291338583,
                    "duration": 1.477353004166659
                },
                {
                    "name": "E4",
                    "midi": 64,
                    "time": 99.1167090624993,
                    "velocity": 0.5669291338582677,
                    "duration": 0.42300665416667016
                },
                {
                    "name": "D4",
                    "midi": 62,
                    "time": 99.51163604583263,
                    "velocity": 0.5039370078740157,
                    "duration": 0.19021712500000376
                },
                {
                    "name": "E4",
                    "midi": 64,
                    "time": 99.63935325833263,
                    "velocity": 0.4881889763779528,
                    "duration": 0.242753283333343
                },
                {
                    "name": "F#4",
                    "midi": 66,
                    "time": 99.81960662916597,
                    "velocity": 0.5984251968503937,
                    "duration": 1.9845986708333214
                },
                {
                    "name": "F#4",
                    "midi": 66,
                    "time": 101.8965964749993,
                    "velocity": 0.44881889763779526,
                    "duration": 0.42300665416667016
                },
                {
                    "name": "F#4",
                    "midi": 66,
                    "time": 102.41199430416597,
                    "velocity": 0.4881889763779528,
                    "duration": 0.4374993874999973
                },
                {
                    "name": "F#4",
                    "midi": 66,
                    "time": 102.93645009166598,
                    "velocity": 0.5984251968503937,
                    "duration": 0.33333286666666595
                },
                {
                    "name": "F#4",
                    "midi": 66,
                    "time": 103.3422466249993,
                    "velocity": 0.6220472440944882,
                    "duration": 0.23007214166666756
                },
                {
                    "name": "F#4",
                    "midi": 66,
                    "time": 103.63934765833264,
                    "velocity": 0.5984251968503937,
                    "duration": 0.17210120833333065
                },
                {
                    "name": "F#4",
                    "midi": 66,
                    "time": 103.88210094166597,
                    "velocity": 0.5748031496062992,
                    "duration": 0.17210120833333065
                },
                {
                    "name": "A4",
                    "midi": 69,
                    "time": 104.01978190833263,
                    "velocity": 0.5826771653543307,
                    "duration": 1.8949248833333456
                },
                {
                    "name": "F#4",
                    "midi": 66,
                    "time": 105.58952608749931,
                    "velocity": 0.31496062992125984,
                    "duration": 0.644926633333327
                },
                {
                    "name": "C#4",
                    "midi": 61,
                    "time": 106.0243080874993,
                    "velocity": 0.3543307086614173,
                    "duration": 0.9501798291666574
                },
                {
                    "name": "C#4",
                    "midi": 61,
                    "time": 107.17285720416596,
                    "velocity": 0.3543307086614173,
                    "duration": 2.7853221875000003
                },
                {
                    "name": "D4",
                    "midi": 62,
                    "time": 107.3368062499993,
                    "velocity": 0.3543307086614173,
                    "duration": 0.08786219583333832
                },
                {
                    "name": "E4",
                    "midi": 64,
                    "time": 107.4998494999993,
                    "velocity": 0.33070866141732286,
                    "duration": 0.14220994583332924
                },
                {
                    "name": "B3",
                    "midi": 59,
                    "time": 109.59404946666596,
                    "velocity": 0.31496062992125984,
                    "duration": 1.460142883333333
                },
                {
                    "name": "B2",
                    "midi": 47,
                    "time": 110.8694099999993,
                    "velocity": 0.2283464566929134,
                    "duration": 0.3985501666666522
                },
                {
                    "name": "B1",
                    "midi": 35,
                    "time": 110.8694099999993,
                    "velocity": 0.29133858267716534,
                    "duration": 0.4139486958333123
                },
                {
                    "name": "A6",
                    "midi": 93,
                    "time": 111.31596734583262,
                    "velocity": 0.11023622047244094,
                    "duration": 0.5851441083333242
                },
                {
                    "name": "D6",
                    "midi": 86,
                    "time": 111.32321371249928,
                    "velocity": 0.33858267716535434,
                    "duration": 0.5760861499999947
                },
                {
                    "name": "A5",
                    "midi": 81,
                    "time": 111.32502530416595,
                    "velocity": 0.23622047244094488,
                    "duration": 0.572462966666663
                },
                {
                    "name": "D4",
                    "midi": 62,
                    "time": 111.33136587499928,
                    "velocity": 0.1968503937007874,
                    "duration": 0.5588760291666688
                },
                {
                    "name": "C#4",
                    "midi": 61,
                    "time": 111.33136587499928,
                    "velocity": 0.14960629921259844,
                    "duration": 0.5579702333333358
                },
                {
                    "name": "F#4",
                    "midi": 66,
                    "time": 111.33408326249928,
                    "velocity": 0.2755905511811024,
                    "duration": 0.5579702333333358
                },
                {
                    "name": "A4",
                    "midi": 69,
                    "time": 111.33770644583261,
                    "velocity": 0.2677165354330709,
                    "duration": 0.5615934166666676
                },
                {
                    "name": "F#6",
                    "midi": 90,
                    "time": 111.34132962916594,
                    "velocity": 0.3543307086614173,
                    "duration": 0.5570644375000029
                },
                {
                    "name": "F#2",
                    "midi": 42,
                    "time": 111.73897399999927,
                    "velocity": 0.28346456692913385,
                    "duration": 0.3641299250000003
                },
                {
                    "name": "F#1",
                    "midi": 30,
                    "time": 111.73897399999927,
                    "velocity": 0.23622047244094488,
                    "duration": 0.23913009999999701
                },
                {
                    "name": "B2",
                    "midi": 47,
                    "time": 112.17375599999927,
                    "velocity": 0.31496062992125984,
                    "duration": 0.4175718791666583
                },
                {
                    "name": "B1",
                    "midi": 35,
                    "time": 112.17375599999927,
                    "velocity": 0.23622047244094488,
                    "duration": 0.46105007916665386
                },
                {
                    "name": "A6",
                    "midi": 93,
                    "time": 112.61125538749927,
                    "velocity": 0.18110236220472442,
                    "duration": 0.11413027499999373
                },
                {
                    "name": "D6",
                    "midi": 86,
                    "time": 112.6121611833326,
                    "velocity": 0.2755905511811024,
                    "duration": 0.10869549999999606
                },
                {
                    "name": "A5",
                    "midi": 81,
                    "time": 112.61578436666593,
                    "velocity": 0.23622047244094488,
                    "duration": 0.109601295833329
                },
                {
                    "name": "F#6",
                    "midi": 90,
                    "time": 112.61578436666593,
                    "velocity": 0.33858267716535434,
                    "duration": 0.10688390833333017
                },
                {
                    "name": "F#4",
                    "midi": 66,
                    "time": 112.6175959583326,
                    "velocity": 0.33070866141732286,
                    "duration": 0.6630425499999717
                },
                {
                    "name": "D4",
                    "midi": 62,
                    "time": 112.6175959583326,
                    "velocity": 0.25984251968503935,
                    "duration": 0.6657599374999705
                },
                {
                    "name": "C#4",
                    "midi": 61,
                    "time": 112.61940754999927,
                    "velocity": 0.1889763779527559,
                    "duration": 0.6594193666666399
                },
                {
                    "name": "A4",
                    "midi": 69,
                    "time": 112.62121914166593,
                    "velocity": 0.33070866141732286,
                    "duration": 0.6548903874999752
                },
                {
                    "name": "D6",
                    "midi": 86,
                    "time": 112.83770434583259,
                    "velocity": 0.30708661417322836,
                    "duration": 0.10326072499999839
                },
                {
                    "name": "F#6",
                    "midi": 90,
                    "time": 112.83770434583259,
                    "velocity": 0.23622047244094488,
                    "duration": 0.10869549999999606
                },
                {
                    "name": "A6",
                    "midi": 93,
                    "time": 112.83861014166592,
                    "velocity": 0.1889763779527559,
                    "duration": 0.10778970416666311
                },
                {
                    "name": "A5",
                    "midi": 81,
                    "time": 112.84042173333259,
                    "velocity": 0.2204724409448819,
                    "duration": 0.10235492916666544
                },
                {
                    "name": "A6",
                    "midi": 93,
                    "time": 113.04513159166592,
                    "velocity": 0.14173228346456693,
                    "duration": 0.30797058333330085
                },
                {
                    "name": "D6",
                    "midi": 86,
                    "time": 113.04875477499925,
                    "velocity": 0.31496062992125984,
                    "duration": 0.2907604624999749
                },
                {
                    "name": "F#6",
                    "midi": 90,
                    "time": 113.04875477499925,
                    "velocity": 0.1968503937007874,
                    "duration": 0.36956469999996955
                },
                {
                    "name": "A5",
                    "midi": 81,
                    "time": 113.05147216249925,
                    "velocity": 0.2755905511811024,
                    "duration": 0.27807932083331366
                },
                {
                    "name": "F#1",
                    "midi": 30,
                    "time": 113.26071099999925,
                    "velocity": 0.14960629921259844,
                    "duration": 0.09692015416663935
                },
                {
                    "name": "F#2",
                    "midi": 42,
                    "time": 113.26071099999925,
                    "velocity": 0.4015748031496063,
                    "duration": 0.1576084749999751
                },
                {
                    "name": "B2",
                    "midi": 47,
                    "time": 113.47810199999923,
                    "velocity": 0.2440944881889764,
                    "duration": 0.3795284541666746
                },
                {
                    "name": "B1",
                    "midi": 35,
                    "time": 113.47810199999923,
                    "velocity": 0.15748031496062992,
                    "duration": 0.40307914583334536
                },
                {
                    "name": "A6",
                    "midi": 93,
                    "time": 113.90744922499924,
                    "velocity": 0.12598425196850394,
                    "duration": 0.5733687624999959
                },
                {
                    "name": "F#6",
                    "midi": 90,
                    "time": 113.91107240833257,
                    "velocity": 0.2204724409448819,
                    "duration": 0.5869557000000043
                },
                {
                    "name": "D6",
                    "midi": 86,
                    "time": 113.91560138749924,
                    "velocity": 0.2992125984251969,
                    "duration": 0.535325337499998
                },
                {
                    "name": "A5",
                    "midi": 81,
                    "time": 113.9174129791659,
                    "velocity": 0.1968503937007874,
                    "duration": 0.5335137458333321
                },
                {
                    "name": "F#4",
                    "midi": 66,
                    "time": 113.92194195833257,
                    "velocity": 0.23622047244094488,
                    "duration": 0.6268107166666681
                },
                {
                    "name": "A4",
                    "midi": 69,
                    "time": 113.92194195833257,
                    "velocity": 0.14960629921259844,
                    "duration": 0.591484679166669
                },
                {
                    "name": "C#4",
                    "midi": 61,
                    "time": 113.92465934583257,
                    "velocity": 0.16535433070866143,
                    "duration": 0.611412187500008
                },
                {
                    "name": "D4",
                    "midi": 62,
                    "time": 113.9255651416659,
                    "velocity": 0.1968503937007874,
                    "duration": 0.6213759416666704
                },
                {
                    "name": "F#1",
                    "midi": 30,
                    "time": 114.34766599999924,
                    "velocity": 0.10236220472440945,
                    "duration": 0.31612274583334
                },
                {
                    "name": "F#2",
                    "midi": 42,
                    "time": 114.34766599999924,
                    "velocity": 0.33858267716535434,
                    "duration": 0.33876764166667783
                },
                {
                    "name": "B2",
                    "midi": 47,
                    "time": 114.78244799999925,
                    "velocity": 0.29133858267716534,
                    "duration": 0.4393109791666632
                },
                {
                    "name": "B1",
                    "midi": 35,
                    "time": 114.78244799999925,
                    "velocity": 0.2677165354330709,
                    "duration": 0.43297040833333256
                },
                {
                    "name": "F#6",
                    "midi": 90,
                    "time": 115.21632420416591,
                    "velocity": 0.2125984251968504,
                    "duration": 0.12681141666665496
                },
                {
                    "name": "A6",
                    "midi": 93,
                    "time": 115.21632420416591,
                    "velocity": 0.12598425196850394,
                    "duration": 0.1295288041666538
                },
                {
                    "name": "D6",
                    "midi": 86,
                    "time": 115.22085318333258,
                    "velocity": 0.33070866141732286,
                    "duration": 0.11865925416665846
                },
                {
                    "name": "A5",
                    "midi": 81,
                    "time": 115.22357057083258,
                    "velocity": 0.28346456692913385,
                    "duration": 0.12047084583332435
                },
                {
                    "name": "F#4",
                    "midi": 66,
                    "time": 115.22538216249924,
                    "velocity": 0.2047244094488189,
                    "duration": 0.5778977416666464
                },
                {
                    "name": "C#4",
                    "midi": 61,
                    "time": 115.22628795833258,
                    "velocity": 0.10236220472440945,
                    "duration": 0.5942020666666536
                },
                {
                    "name": "D4",
                    "midi": 62,
                    "time": 115.22719375416591,
                    "velocity": 0.14960629921259844,
                    "duration": 0.6105063916666609
                },
                {
                    "name": "A4",
                    "midi": 69,
                    "time": 115.22809954999924,
                    "velocity": 0.1968503937007874,
                    "duration": 0.6168469624999915
                },
                {
                    "name": "A6",
                    "midi": 93,
                    "time": 115.4255630416659,
                    "velocity": 0.07874015748031496,
                    "duration": 0.1331519874999998
                },
                {
                    "name": "F#6",
                    "midi": 90,
                    "time": 115.42737463333256,
                    "velocity": 0.14173228346456693,
                    "duration": 0.14039835416666335
                },
                {
                    "name": "D6",
                    "midi": 86,
                    "time": 115.43190361249923,
                    "velocity": 0.2047244094488189,
                    "duration": 0.13224619166666685
                },
                {
                    "name": "A5",
                    "midi": 81,
                    "time": 115.43733838749922,
                    "velocity": 0.1889763779527559,
                    "duration": 0.12771721250000212
                },
                {
                    "name": "F#6",
                    "midi": 90,
                    "time": 115.64295404166589,
                    "velocity": 0.25196850393700787,
                    "duration": 0.33876764166667783
                },
                {
                    "name": "A6",
                    "midi": 93,
                    "time": 115.64748302083255,
                    "velocity": 0.07874015748031496,
                    "duration": 0.336050254166679
                },
                {
                    "name": "D6",
                    "midi": 86,
                    "time": 115.64929461249922,
                    "velocity": 0.23622047244094488,
                    "duration": 0.3306154791666813
                },
                {
                    "name": "A5",
                    "midi": 81,
                    "time": 115.65382359166588,
                    "velocity": 0.14960629921259844,
                    "duration": 0.32518070416668365
                },
                {
                    "name": "F#1",
                    "midi": 30,
                    "time": 115.86940299999924,
                    "velocity": 0.1732283464566929,
                    "duration": 0.14402153749999513
                },
                {
                    "name": "F#2",
                    "midi": 42,
                    "time": 115.86940299999924,
                    "velocity": 0.3464566929133858,
                    "duration": 0.19927508333333321
                },
                {
                    "name": "B1",
                    "midi": 35,
                    "time": 116.08679399999924,
                    "velocity": 0.25196850393700787,
                    "duration": 0.202898266666665
                },
                {
                    "name": "B2",
                    "midi": 47,
                    "time": 116.08679399999924,
                    "velocity": 0.07086614173228346,
                    "duration": 0.219202591666658
                },
                {
                    "name": "A4",
                    "midi": 69,
                    "time": 116.52157599999924,
                    "velocity": 0.2047244094488189,
                    "duration": 0.28804307499999027
                },
                {
                    "name": "F#4",
                    "midi": 66,
                    "time": 116.52248179583258,
                    "velocity": 0.23622047244094488,
                    "duration": 0.28351409583332554
                },
                {
                    "name": "D4",
                    "midi": 62,
                    "time": 116.52610497916591,
                    "velocity": 0.2204724409448819,
                    "duration": 0.28351409583332554
                },
                {
                    "name": "B3",
                    "midi": 59,
                    "time": 117.20092287499924,
                    "velocity": 0.3228346456692913,
                    "duration": 1.252715637499989
                },
                {
                    "name": "C#4",
                    "midi": 61,
                    "time": 118.3059937916659,
                    "velocity": 0.3779527559055118,
                    "duration": 0.664854141666666
                },
                {
                    "name": "D4",
                    "midi": 62,
                    "time": 118.84856549583256,
                    "velocity": 0.47244094488188976,
                    "duration": 1.585142708333322
                },
                {
                    "name": "C#4",
                    "midi": 61,
                    "time": 120.27972291249922,
                    "velocity": 0.4330708661417323,
                    "duration": 1.99999720000001
                },
                {
                    "name": "D4",
                    "midi": 62,
                    "time": 120.39294739166588,
                    "velocity": 0.4330708661417323,
                    "duration": 0.059782525000002806
                },
                {
                    "name": "B3",
                    "midi": 59,
                    "time": 122.1945753041659,
                    "velocity": 0.30708661417322836,
                    "duration": 0.6431150416666753
                },
                {
                    "name": "B3",
                    "midi": 59,
                    "time": 122.95997278333257,
                    "velocity": 0.3543307086614173,
                    "duration": 0.27536193333332903
                },
                {
                    "name": "G3",
                    "midi": 55,
                    "time": 123.16015366249924,
                    "velocity": 0.2992125984251969,
                    "duration": 2.7191990916666384
                },
                {
                    "name": "A1",
                    "midi": 33,
                    "time": 125.21721599999924,
                    "velocity": 0.1968503937007874,
                    "duration": 0.3260864999999882
                },
                {
                    "name": "A2",
                    "midi": 45,
                    "time": 125.21721599999924,
                    "velocity": 0.28346456692913385,
                    "duration": 0.3242749083333223
                },
                {
                    "name": "A4",
                    "midi": 69,
                    "time": 125.65743277499922,
                    "velocity": 0.2283464566929134,
                    "duration": 0.44927473333331136
                },
                {
                    "name": "G4",
                    "midi": 67,
                    "time": 125.65833857083256,
                    "velocity": 0.25984251968503935,
                    "duration": 0.44474575416664663
                },
                {
                    "name": "C4",
                    "midi": 60,
                    "time": 125.66015016249922,
                    "velocity": 0.2204724409448819,
                    "duration": 0.4483689374999784
                },
                {
                    "name": "E4",
                    "midi": 64,
                    "time": 125.66015016249922,
                    "velocity": 0.31496062992125984,
                    "duration": 0.4465573458333125
                },
                {
                    "name": "E6",
                    "midi": 88,
                    "time": 125.66920812083255,
                    "velocity": 0.1889763779527559,
                    "duration": 0.48460077083331043
                },
                {
                    "name": "C6",
                    "midi": 84,
                    "time": 125.67373709999922,
                    "velocity": 0.30708661417322836,
                    "duration": 0.511774645833313
                },
                {
                    "name": "A6",
                    "midi": 93,
                    "time": 125.67554869166588,
                    "velocity": 0.2204724409448819,
                    "duration": 0.475542812499981
                },
                {
                    "name": "G5",
                    "midi": 79,
                    "time": 125.67736028333255,
                    "velocity": 0.25196850393700787,
                    "duration": 0.49456452499998704
                },
                {
                    "name": "A5",
                    "midi": 81,
                    "time": 125.67736028333255,
                    "velocity": 0.25196850393700787,
                    "duration": 0.49456452499998704
                },
                {
                    "name": "G6",
                    "midi": 91,
                    "time": 125.68098346666588,
                    "velocity": 0.25984251968503935,
                    "duration": 0.4655790583333186
                },
                {
                    "name": "E1",
                    "midi": 28,
                    "time": 126.08677999999921,
                    "velocity": 0.18110236220472442,
                    "duration": 0.3360502541666506
                },
                {
                    "name": "E2",
                    "midi": 40,
                    "time": 126.08677999999921,
                    "velocity": 0.25984251968503935,
                    "duration": 0.3668473124999849
                },
                {
                    "name": "A2",
                    "midi": 45,
                    "time": 126.5215619999992,
                    "velocity": 0.3858267716535433,
                    "duration": 0.40941971666666177
                },
                {
                    "name": "A1",
                    "midi": 33,
                    "time": 126.5215619999992,
                    "velocity": 0.2992125984251969,
                    "duration": 0.4003617583333323
                },
                {
                    "name": "E6",
                    "midi": 88,
                    "time": 126.96902514166585,
                    "velocity": 0.16535433070866143,
                    "duration": 0.13858676249999746
                },
                {
                    "name": "C6",
                    "midi": 84,
                    "time": 126.96902514166585,
                    "velocity": 0.31496062992125984,
                    "duration": 0.14220994583332924
                },
                {
                    "name": "A6",
                    "midi": 93,
                    "time": 126.96993093749919,
                    "velocity": 0.15748031496062992,
                    "duration": 0.13768096666666452
                },
                {
                    "name": "G6",
                    "midi": 91,
                    "time": 126.97264832499918,
                    "velocity": 0.1732283464566929,
                    "duration": 0.13224619166666685
                },
                {
                    "name": "A4",
                    "midi": 69,
                    "time": 126.97627150833252,
                    "velocity": 0.1889763779527559,
                    "duration": 0.6132237791666313
                },
                {
                    "name": "G4",
                    "midi": 67,
                    "time": 126.97627150833252,
                    "velocity": 0.2125984251968504,
                    "duration": 0.6204701458332949
                },
                {
                    "name": "C4",
                    "midi": 60,
                    "time": 126.97717730416585,
                    "velocity": 0.2283464566929134,
                    "duration": 0.5978252499999712
                },
                {
                    "name": "E4",
                    "midi": 64,
                    "time": 126.97808309999918,
                    "velocity": 0.28346456692913385,
                    "duration": 0.6068832083333007
                },
                {
                    "name": "A5",
                    "midi": 81,
                    "time": 126.98080048749918,
                    "velocity": 0.1732283464566929,
                    "duration": 0.13043460000000096
                },
                {
                    "name": "G5",
                    "midi": 79,
                    "time": 126.98170628333251,
                    "velocity": 0.16535433070866143,
                    "duration": 0.129528804166668
                },
                {
                    "name": "G5",
                    "midi": 79,
                    "time": 127.18822773333251,
                    "velocity": 0.2992125984251969,
                    "duration": 0.10688390833333017
                },
                {
                    "name": "A5",
                    "midi": 81,
                    "time": 127.18822773333251,
                    "velocity": 0.29133858267716534,
                    "duration": 0.10688390833333017
                },
                {
                    "name": "C6",
                    "midi": 84,
                    "time": 127.18822773333251,
                    "velocity": 0.31496062992125984,
                    "duration": 0.12590562083332202
                },
                {
                    "name": "E6",
                    "midi": 88,
                    "time": 127.18822773333251,
                    "velocity": 0.30708661417322836,
                    "duration": 0.12590562083332202
                },
                {
                    "name": "E6",
                    "midi": 88,
                    "time": 127.18822773333251,
                    "velocity": 0.29133858267716534,
                    "duration": 0.12590562083332202
                },
                {
                    "name": "A6",
                    "midi": 93,
                    "time": 127.19366250833251,
                    "velocity": 0.15748031496062992,
                    "duration": 0.1195650499999914
                },
                {
                    "name": "G6",
                    "midi": 91,
                    "time": 127.19819148749917,
                    "velocity": 0.25196850393700787,
                    "duration": 0.1114128874999949
                },
                {
                    "name": "E6",
                    "midi": 88,
                    "time": 127.39384338749916,
                    "velocity": 0.3543307086614173,
                    "duration": 0.27173874999998304
                },
                {
                    "name": "A6",
                    "midi": 93,
                    "time": 127.39384338749916,
                    "velocity": 0.2283464566929134,
                    "duration": 0.26811556666665126
                },
                {
                    "name": "C6",
                    "midi": 84,
                    "time": 127.3947491833325,
                    "velocity": 0.2677165354330709,
                    "duration": 0.2744561374999819
                },
                {
                    "name": "G6",
                    "midi": 91,
                    "time": 127.39746657083249,
                    "velocity": 0.23622047244094488,
                    "duration": 0.26358658749998654
                },
                {
                    "name": "G5",
                    "midi": 79,
                    "time": 127.40108975416582,
                    "velocity": 0.2677165354330709,
                    "duration": 0.26992715833331715
                },
                {
                    "name": "A5",
                    "midi": 81,
                    "time": 127.40199554999916,
                    "velocity": 0.2677165354330709,
                    "duration": 0.2690213624999842
                },
                {
                    "name": "E1",
                    "midi": 28,
                    "time": 127.60851699999914,
                    "velocity": 0.2677165354330709,
                    "duration": 0.129528804166668
                },
                {
                    "name": "E2",
                    "midi": 40,
                    "time": 127.60851699999914,
                    "velocity": 0.3228346456692913,
                    "duration": 0.12681141666666917
                },
                {
                    "name": "A2",
                    "midi": 45,
                    "time": 127.82590799999915,
                    "velocity": 0.36220472440944884,
                    "duration": 0.42662983750000194
                },
                {
                    "name": "A1",
                    "midi": 33,
                    "time": 127.82590799999915,
                    "velocity": 0.14173228346456693,
                    "duration": 0.4157602875000066
                },
                {
                    "name": "A4",
                    "midi": 69,
                    "time": 128.2697479583325,
                    "velocity": 0.12598425196850394,
                    "duration": 0.4927529333334064
                },
                {
                    "name": "G4",
                    "midi": 67,
                    "time": 128.2724653458325,
                    "velocity": 0.2677165354330709,
                    "duration": 0.4945645250000723
                },
                {
                    "name": "C6",
                    "midi": 84,
                    "time": 128.27337114166585,
                    "velocity": 0.3464566929133858,
                    "duration": 0.43387620416672235
                },
                {
                    "name": "A6",
                    "midi": 93,
                    "time": 128.27337114166585,
                    "velocity": 0.2204724409448819,
                    "duration": 0.4329704083333752
                },
                {
                    "name": "E6",
                    "midi": 88,
                    "time": 128.27337114166585,
                    "velocity": 0.33070866141732286,
                    "duration": 0.4329704083333752
                },
                {
                    "name": "E4",
                    "midi": 64,
                    "time": 128.2742769374992,
                    "velocity": 0.25196850393700787,
                    "duration": 0.49003554583336495
                },
                {
                    "name": "A5",
                    "midi": 81,
                    "time": 128.27608852916586,
                    "velocity": 0.28346456692913385,
                    "duration": 0.42481824583333605
                },
                {
                    "name": "G5",
                    "midi": 79,
                    "time": 128.27608852916586,
                    "velocity": 0.2677165354330709,
                    "duration": 0.42481824583333605
                },
                {
                    "name": "G6",
                    "midi": 91,
                    "time": 128.27608852916586,
                    "velocity": 0.2677165354330709,
                    "duration": 0.4275356333333491
                },
                {
                    "name": "C4",
                    "midi": 60,
                    "time": 128.2769943249992,
                    "velocity": 0.15748031496062992,
                    "duration": 0.48188338333335423
                },
                {
                    "name": "E1",
                    "midi": 28,
                    "time": 128.6954719999992,
                    "velocity": 0.28346456692913385,
                    "duration": 0.33242707083337564
                },
                {
                    "name": "E2",
                    "midi": 40,
                    "time": 128.6954719999992,
                    "velocity": 0.07874015748031496,
                    "duration": 0.3496371916667158
                },
                {
                    "name": "A1",
                    "midi": 33,
                    "time": 129.13025399999924,
                    "velocity": 0.3228346456692913,
                    "duration": 0.3922095958333216
                },
                {
                    "name": "A2",
                    "midi": 45,
                    "time": 129.13025399999924,
                    "velocity": 0.14960629921259844,
                    "duration": 0.35507196666665664
                },
                {
                    "name": "C4",
                    "midi": 60,
                    "time": 129.5777171416659,
                    "velocity": 0.15748031496062992,
                    "duration": 0.39764437083331927
                },
                {
                    "name": "E4",
                    "midi": 64,
                    "time": 129.58315191666588,
                    "velocity": 0.2283464566929134,
                    "duration": 0.40126755416665105
                },
                {
                    "name": "G4",
                    "midi": 67,
                    "time": 129.58315191666588,
                    "velocity": 0.2755905511811024,
                    "duration": 0.4039849416666641
                },
                {
                    "name": "A4",
                    "midi": 69,
                    "time": 129.58496350833255,
                    "velocity": 0.16535433070866143,
                    "duration": 0.4021733499999982
                },
                {
                    "name": "G3",
                    "midi": 55,
                    "time": 130.5749983541659,
                    "velocity": 0.47244094488188976,
                    "duration": 0.9302523208333184
                },
                {
                    "name": "A3",
                    "midi": 57,
                    "time": 131.42735223333256,
                    "velocity": 0.5984251968503937,
                    "duration": 0.4655790583333328
                },
                {
                    "name": "B3",
                    "midi": 59,
                    "time": 131.8177502374992,
                    "velocity": 0.5984251968503937,
                    "duration": 1.1947447041666805
                },
                {
                    "name": "A3",
                    "midi": 57,
                    "time": 132.99256743333257,
                    "velocity": 0.5275590551181102,
                    "duration": 1.7970989333333307
                },
                {
                    "name": "B3",
                    "midi": 59,
                    "time": 133.09220497499922,
                    "velocity": 0.5196850393700787,
                    "duration": 0.11050709166667616
                },
                {
                    "name": "G3",
                    "midi": 55,
                    "time": 134.69002882499922,
                    "velocity": 0.3937007874015748,
                    "duration": 0.49999930000004156
                },
                {
                    "name": "F#3",
                    "midi": 54,
                    "time": 135.05506454583258,
                    "velocity": 0.4881889763779528,
                    "duration": 0.4474631416666739
                },
                {
                    "name": "A3",
                    "midi": 57,
                    "time": 135.3847742291659,
                    "velocity": 0.4015748031496063,
                    "duration": 0.3505429875000061
                },
                {
                    "name": "F#3",
                    "midi": 54,
                    "time": 135.7398461958326,
                    "velocity": 0.3779527559055118,
                    "duration": 0.12228243749999024
                },
                {
                    "name": "A3",
                    "midi": 57,
                    "time": 135.8322373708326,
                    "velocity": 0.3779527559055118,
                    "duration": 0.0978259499999865
                },
                {
                    "name": "F#3",
                    "midi": 54,
                    "time": 135.9228169541659,
                    "velocity": 0.3700787401574803,
                    "duration": 1.4900341458333344
                },
                {
                    "name": "E3",
                    "midi": 52,
                    "time": 137.24527887083258,
                    "velocity": 0.1968503937007874,
                    "duration": 1.7445627750000483
                },
                {
                    "name": "G3",
                    "midi": 55,
                    "time": 138.26067599999925,
                    "velocity": 0.23622047244094488,
                    "duration": 0.42844142916666783
                },
                {
                    "name": "G2",
                    "midi": 43,
                    "time": 138.26067599999925,
                    "velocity": 0.1732283464566929,
                    "duration": 0.4039849416666641
                },
                {
                    "name": "G5",
                    "midi": 79,
                    "time": 138.69092902083258,
                    "velocity": 0.2992125984251969,
                    "duration": 0.43025302083339056
                },
                {
                    "name": "A6",
                    "midi": 93,
                    "time": 138.69274061249925,
                    "velocity": 0.2047244094488189,
                    "duration": 0.4275356333333775
                },
                {
                    "name": "B3",
                    "midi": 59,
                    "time": 138.69545799999926,
                    "velocity": 0.2283464566929134,
                    "duration": 0.3496371916666874
                },
                {
                    "name": "A4",
                    "midi": 69,
                    "time": 138.69545799999926,
                    "velocity": 0.16535433070866143,
                    "duration": 0.33514445833336026
                },
                {
                    "name": "G4",
                    "midi": 67,
                    "time": 138.69545799999926,
                    "velocity": 0.2125984251968504,
                    "duration": 0.3324270708333472
                },
                {
                    "name": "D4",
                    "midi": 62,
                    "time": 138.69545799999926,
                    "velocity": 0.1732283464566929,
                    "duration": 0.3179343375000201
                },
                {
                    "name": "E4",
                    "midi": 64,
                    "time": 138.69545799999926,
                    "velocity": 0.2047244094488189,
                    "duration": 0.32518070416668365
                },
                {
                    "name": "E6",
                    "midi": 88,
                    "time": 138.6963637958326,
                    "velocity": 0.2283464566929134,
                    "duration": 0.42572404166671163
                },
                {
                    "name": "A5",
                    "midi": 81,
                    "time": 138.69726959166596,
                    "velocity": 0.23622047244094488,
                    "duration": 0.42119506250000427
                },
                {
                    "name": "D6",
                    "midi": 86,
                    "time": 138.69998697916597,
                    "velocity": 0.29133858267716534,
                    "duration": 0.4239124500000173
                },
                {
                    "name": "D3",
                    "midi": 50,
                    "time": 139.13023999999933,
                    "velocity": 0.2283464566929134,
                    "duration": 0.4438399583333421
                },
                {
                    "name": "D2",
                    "midi": 38,
                    "time": 139.13023999999933,
                    "velocity": 0.30708661417322836,
                    "duration": 0.4175718791666725
                },
                {
                    "name": "G3",
                    "midi": 55,
                    "time": 139.56502199999935,
                    "velocity": 0.25984251968503935,
                    "duration": 0.42119506250000427
                },
                {
                    "name": "G2",
                    "midi": 43,
                    "time": 139.56502199999935,
                    "velocity": 0.25984251968503935,
                    "duration": 0.41304289999999355
                },
                {
                    "name": "B3",
                    "midi": 59,
                    "time": 139.99980399999936,
                    "velocity": 0.23622047244094488,
                    "duration": 0.6476440208334964
                },
                {
                    "name": "A4",
                    "midi": 69,
                    "time": 139.99980399999936,
                    "velocity": 0.11811023622047244,
                    "duration": 0.636774470833501
                },
                {
                    "name": "G4",
                    "midi": 67,
                    "time": 139.99980399999936,
                    "velocity": 0.25984251968503935,
                    "duration": 0.6304339000001562
                },
                {
                    "name": "D4",
                    "midi": 62,
                    "time": 139.99980399999936,
                    "velocity": 0.18110236220472442,
                    "duration": 0.6268107166668244
                },
                {
                    "name": "E4",
                    "midi": 64,
                    "time": 139.99980399999936,
                    "velocity": 0.23622047244094488,
                    "duration": 0.6268107166668244
                },
                {
                    "name": "A6",
                    "midi": 93,
                    "time": 140.00161559166602,
                    "velocity": 0.2283464566929134,
                    "duration": 0.15036210833335417
                },
                {
                    "name": "E6",
                    "midi": 88,
                    "time": 140.0034271833327,
                    "velocity": 0.25196850393700787,
                    "duration": 0.15398529166671437
                },
                {
                    "name": "A5",
                    "midi": 81,
                    "time": 140.00523877499936,
                    "velocity": 0.2440944881889764,
                    "duration": 0.1503621083333826
                },
                {
                    "name": "D6",
                    "midi": 86,
                    "time": 140.00523877499936,
                    "velocity": 0.30708661417322836,
                    "duration": 0.14945631250003544
                },
                {
                    "name": "G5",
                    "midi": 79,
                    "time": 140.00795616249937,
                    "velocity": 0.16535433070866143,
                    "duration": 0.14764472083336955
                },
                {
                    "name": "E6",
                    "midi": 88,
                    "time": 140.2171949999994,
                    "velocity": 0.3464566929133858,
                    "duration": 0.15126790416672975
                },
                {
                    "name": "A6",
                    "midi": 93,
                    "time": 140.2171949999994,
                    "velocity": 0.23622047244094488,
                    "duration": 0.1557968833334087
                },
                {
                    "name": "D6",
                    "midi": 86,
                    "time": 140.21991238749942,
                    "velocity": 0.30708661417322836,
                    "duration": 0.14764472083336955
                },
                {
                    "name": "G5",
                    "midi": 79,
                    "time": 140.22262977499943,
                    "velocity": 0.25196850393700787,
                    "duration": 0.1431157416666906
                },
                {
                    "name": "A5",
                    "midi": 81,
                    "time": 140.22353557083278,
                    "velocity": 0.29133858267716534,
                    "duration": 0.14583312916670366
                },
                {
                    "name": "E6",
                    "midi": 88,
                    "time": 140.4436439583328,
                    "velocity": 0.31496062992125984,
                    "duration": 0.3016300125000555
                },
                {
                    "name": "A6",
                    "midi": 93,
                    "time": 140.4436439583328,
                    "velocity": 0.2440944881889764,
                    "duration": 0.3052531958333873
                },
                {
                    "name": "A5",
                    "midi": 81,
                    "time": 140.44636134583283,
                    "velocity": 0.2283464566929134,
                    "duration": 0.2961952375000294
                },
                {
                    "name": "G5",
                    "midi": 79,
                    "time": 140.44636134583283,
                    "velocity": 0.1732283464566929,
                    "duration": 0.2961952375000294
                },
                {
                    "name": "D6",
                    "midi": 86,
                    "time": 140.44726714166617,
                    "velocity": 0.28346456692913385,
                    "duration": 0.2980068291666953
                },
                {
                    "name": "D3",
                    "midi": 50,
                    "time": 140.65197699999953,
                    "velocity": 0.2047244094488189,
                    "duration": 0.2581518125000173
                },
                {
                    "name": "D2",
                    "midi": 38,
                    "time": 140.65197699999953,
                    "velocity": 0.1968503937007874,
                    "duration": 0.23369532500001355
                },
                {
                    "name": "G3",
                    "midi": 55,
                    "time": 140.86936799999955,
                    "velocity": 0.2283464566929134,
                    "duration": 0.4257240416666548
                },
                {
                    "name": "G2",
                    "midi": 43,
                    "time": 140.86936799999955,
                    "velocity": 0.2125984251968504,
                    "duration": 0.41757187916664407
                },
                {
                    "name": "B3",
                    "midi": 59,
                    "time": 141.30414999999954,
                    "velocity": 0.13385826771653545,
                    "duration": 0.43025302083336214
                },
                {
                    "name": "A4",
                    "midi": 69,
                    "time": 141.30414999999954,
                    "velocity": 0.14173228346456693,
                    "duration": 0.43206461250002803
                },
                {
                    "name": "E4",
                    "midi": 64,
                    "time": 141.30414999999954,
                    "velocity": 0.14173228346456693,
                    "duration": 0.4275356333333491
                },
                {
                    "name": "D4",
                    "midi": 62,
                    "time": 141.30414999999954,
                    "velocity": 0.14173228346456693,
                    "duration": 0.4257240416666832
                },
                {
                    "name": "G4",
                    "midi": 67,
                    "time": 141.30414999999954,
                    "velocity": 0.14173228346456693,
                    "duration": 0.4175718791666725
                },
                {
                    "name": "E3",
                    "midi": 52,
                    "time": 142.38204704166623,
                    "velocity": 0.29133858267716534,
                    "duration": 1.2726431458333423
                },
                {
                    "name": "F#3",
                    "midi": 54,
                    "time": 143.47987159166624,
                    "velocity": 0.3543307086614173,
                    "duration": 0.4954703208333342
                },
                {
                    "name": "G3",
                    "midi": 55,
                    "time": 143.97987089166625,
                    "velocity": 0.44881889763779526,
                    "duration": 0.11050709166667616
                },
                {
                    "name": "G3",
                    "midi": 55,
                    "time": 144.1628416499996,
                    "velocity": 0.4330708661417323,
                    "duration": 0.24003589583332996
                },
                {
                    "name": "D4",
                    "midi": 62,
                    "time": 144.28512408749958,
                    "velocity": 0.4330708661417323,
                    "duration": 1.8396713374999933
                },
                {
                    "name": "E4",
                    "midi": 64,
                    "time": 146.03783902499958,
                    "velocity": 0.4409448818897638,
                    "duration": 1.0697448791666488
                },
                {
                    "name": "C#4",
                    "midi": 61,
                    "time": 146.94725804166623,
                    "velocity": 0.41732283464566927,
                    "duration": 0.5597818250000159
                },
                {
                    "name": "D4",
                    "midi": 62,
                    "time": 147.39290959166624,
                    "velocity": 0.44881889763779526,
                    "duration": 0.45470950833333745
                },
                {
                    "name": "B3",
                    "midi": 59,
                    "time": 147.7099381333329,
                    "velocity": 0.4330708661417323,
                    "duration": 0.33514445833333184
                },
                {
                    "name": "C#4",
                    "midi": 61,
                    "time": 147.94725664166626,
                    "velocity": 0.44881889763779526,
                    "duration": 0.29800682916663845
                },
                {
                    "name": "A3",
                    "midi": 57,
                    "time": 148.19000992499957,
                    "velocity": 0.4645669291338583,
                    "duration": 0.27536193333332903
                },
                {
                    "name": "B3",
                    "midi": 59,
                    "time": 148.43729218749957,
                    "velocity": 0.47244094488188976,
                    "duration": 0.3224633166666706
                },
                {
                    "name": "G3",
                    "midi": 55,
                    "time": 148.6827628583329,
                    "velocity": 0.4645669291338583,
                    "duration": 0.36503572083333324
                },
                {
                    "name": "A3",
                    "midi": 57,
                    "time": 148.95540740416624,
                    "velocity": 0.4330708661417323,
                    "duration": 0.5271731750000015
                },
                {
                    "name": "F#3",
                    "midi": 54,
                    "time": 149.2751533333329,
                    "velocity": 0.41732283464566927,
                    "duration": 0.3722820874999968
                },
                {
                    "name": "G3",
                    "midi": 55,
                    "time": 149.56229061249957,
                    "velocity": 0.4015748031496063,
                    "duration": 0.44474575416666084
                },
                {
                    "name": "E3",
                    "midi": 52,
                    "time": 149.90739882499955,
                    "velocity": 0.23622047244094488,
                    "duration": 0.5824267208333538
                },
                {
                    "name": "F#3",
                    "midi": 54,
                    "time": 150.34761559999956,
                    "velocity": 0.29133858267716534,
                    "duration": 0.8976436708333608
                },
                {
                    "name": "D3",
                    "midi": 50,
                    "time": 150.71718029999957,
                    "velocity": 0.29133858267716534,
                    "duration": 0.48278917916667297
                },
                {
                    "name": "E3",
                    "midi": 52,
                    "time": 151.12478842499956,
                    "velocity": 0.25984251968503935,
                    "duration": 0.6902164250000169
                },
                {
                    "name": "C#3",
                    "midi": 49,
                    "time": 151.65467898749958,
                    "velocity": 0.2204724409448819,
                    "duration": 2.0054319749999934
                },
                {
                    "name": "B2",
                    "midi": 47,
                    "time": 153.75521952499957,
                    "velocity": 0.4645669291338583,
                    "duration": 0.389492208333337
                },
                {
                    "name": "C#3",
                    "midi": 49,
                    "time": 154.03239304999957,
                    "velocity": 0.4330708661417323,
                    "duration": 0.4121371041666748
                },
                {
                    "name": "E3",
                    "midi": 52,
                    "time": 154.31771873749958,
                    "velocity": 0.41732283464566927,
                    "duration": 0.4673906499999987
                },
                {
                    "name": "D3",
                    "midi": 50,
                    "time": 154.72713845416624,
                    "velocity": 0.36220472440944884,
                    "duration": 1.8949248833333172
                },
                {
                    "name": "F3",
                    "midi": 53,
                    "time": 154.84760929999956,
                    "velocity": 0.3543307086614173,
                    "duration": 0.15217369999999164
                },
                {
                    "name": "C#3",
                    "midi": 49,
                    "time": 156.46717224999955,
                    "velocity": 0.1968503937007874,
                    "duration": 1.222824375000016
                },
                {
                    "name": "F#1",
                    "midi": 30,
                    "time": 157.82586599999956,
                    "velocity": 0.2992125984251969,
                    "duration": 0.41666608333335375
                },
                {
                    "name": "F#2",
                    "midi": 42,
                    "time": 157.82586599999956,
                    "velocity": 0.2992125984251969,
                    "duration": 0.40670232916667715
                },
                {
                    "name": "A5",
                    "midi": 81,
                    "time": 158.26064799999958,
                    "velocity": 0.2047244094488189,
                    "duration": 0.35688355833335095
                },
                {
                    "name": "A#5",
                    "midi": 82,
                    "time": 158.26064799999958,
                    "velocity": 0.14173228346456693,
                    "duration": 0.36412992500004293
                },
                {
                    "name": "C#6",
                    "midi": 85,
                    "time": 158.26064799999958,
                    "velocity": 0.2440944881889764,
                    "duration": 0.34873139583334023
                },
                {
                    "name": "E6",
                    "midi": 88,
                    "time": 158.26064799999958,
                    "velocity": 0.23622047244094488,
                    "duration": 0.3460140083333272
                },
                {
                    "name": "A6",
                    "midi": 93,
                    "time": 158.26064799999958,
                    "velocity": 0.16535433070866143,
                    "duration": 0.3577893541666981
                },
                {
                    "name": "A#3",
                    "midi": 58,
                    "time": 158.26064799999958,
                    "velocity": 0.18110236220472442,
                    "duration": 0.3931153916667256
                },
                {
                    "name": "C#4",
                    "midi": 61,
                    "time": 158.26064799999958,
                    "velocity": 0.1968503937007874,
                    "duration": 0.39402118750007276
                },
                {
                    "name": "E4",
                    "midi": 64,
                    "time": 158.26064799999958,
                    "velocity": 0.2677165354330709,
                    "duration": 0.3777168625000513
                },
                {
                    "name": "G4",
                    "midi": 67,
                    "time": 158.26064799999958,
                    "velocity": 0.33070866141732286,
                    "duration": 0.38043425000006437
                },
                {
                    "name": "A4",
                    "midi": 69,
                    "time": 158.26064799999958,
                    "velocity": 0.25984251968503935,
                    "duration": 0.3777168625000513
                },
                {
                    "name": "C#1",
                    "midi": 25,
                    "time": 158.69542999999965,
                    "velocity": 0.16535433070866143,
                    "duration": 0.4438399583333421
                },
                {
                    "name": "C#2",
                    "midi": 37,
                    "time": 158.69542999999965,
                    "velocity": 0.13385826771653545,
                    "duration": 0.47282542499999636
                },
                {
                    "name": "F#1",
                    "midi": 30,
                    "time": 159.13021199999966,
                    "velocity": 0.07874015748031496,
                    "duration": 0.422100858333323
                },
                {
                    "name": "F#2",
                    "midi": 42,
                    "time": 159.13021199999966,
                    "velocity": 0.2440944881889764,
                    "duration": 0.43297040833331835
                },
                {
                    "name": "A5",
                    "midi": 81,
                    "time": 159.56499399999964,
                    "velocity": 0.25984251968503935,
                    "duration": 0.15217370000002006
                },
                {
                    "name": "C#6",
                    "midi": 85,
                    "time": 159.56499399999964,
                    "velocity": 0.2677165354330709,
                    "duration": 0.1512679041666729
                },
                {
                    "name": "E6",
                    "midi": 88,
                    "time": 159.56499399999964,
                    "velocity": 0.30708661417322836,
                    "duration": 0.15217370000002006
                },
                {
                    "name": "A6",
                    "midi": 93,
                    "time": 159.56499399999964,
                    "velocity": 0.18110236220472442,
                    "duration": 0.1512679041666729
                },
                {
                    "name": "A#5",
                    "midi": 82,
                    "time": 159.56499399999964,
                    "velocity": 0.23622047244094488,
                    "duration": 0.16394904583336256
                },
                {
                    "name": "A#3",
                    "midi": 58,
                    "time": 159.56499399999964,
                    "velocity": 0.2047244094488189,
                    "duration": 0.623187533333379
                },
                {
                    "name": "C#4",
                    "midi": 61,
                    "time": 159.56499399999964,
                    "velocity": 0.1889763779527559,
                    "duration": 0.6240933291667261
                },
                {
                    "name": "A4",
                    "midi": 69,
                    "time": 159.56499399999964,
                    "velocity": 0.25196850393700787,
                    "duration": 0.6068832083333859
                },
                {
                    "name": "G4",
                    "midi": 67,
                    "time": 159.56499399999964,
                    "velocity": 0.2204724409448819,
                    "duration": 0.60507161666672
                },
                {
                    "name": "E4",
                    "midi": 64,
                    "time": 159.56499399999964,
                    "velocity": 0.1968503937007874,
                    "duration": 0.6014484333333883
                },
                {
                    "name": "A5",
                    "midi": 81,
                    "time": 159.78238499999966,
                    "velocity": 0.29133858267716534,
                    "duration": 0.13768096666666452
                },
                {
                    "name": "A#5",
                    "midi": 82,
                    "time": 159.78238499999966,
                    "velocity": 0.3228346456692913,
                    "duration": 0.15036210833335417
                },
                {
                    "name": "C#6",
                    "midi": 85,
                    "time": 159.78238499999966,
                    "velocity": 0.1968503937007874,
                    "duration": 0.14039835416667756
                },
                {
                    "name": "E6",
                    "midi": 88,
                    "time": 159.78238499999966,
                    "velocity": 0.29133858267716534,
                    "duration": 0.13858676250001167
                },
                {
                    "name": "A6",
                    "midi": 93,
                    "time": 159.78238499999966,
                    "velocity": 0.14173228346456693,
                    "duration": 0.14220994583334345
                },
                {
                    "name": "A5",
                    "midi": 81,
                    "time": 159.99977599999968,
                    "velocity": 0.23622047244094488,
                    "duration": 0.42210085833337985
                },
                {
                    "name": "A#5",
                    "midi": 82,
                    "time": 159.99977599999968,
                    "velocity": 0.30708661417322836,
                    "duration": 0.4039849416666925
                },
                {
                    "name": "C#6",
                    "midi": 85,
                    "time": 159.99977599999968,
                    "velocity": 0.14960629921259844,
                    "duration": 0.44383995833337053
                },
                {
                    "name": "E6",
                    "midi": 88,
                    "time": 159.99977599999968,
                    "velocity": 0.2440944881889764,
                    "duration": 0.42572404166671163
                },
                {
                    "name": "A6",
                    "midi": 93,
                    "time": 159.99977599999968,
                    "velocity": 0.18110236220472442,
                    "duration": 0.415760287500035
                },
                {
                    "name": "C#2",
                    "midi": 37,
                    "time": 160.2171669999997,
                    "velocity": 0.2283464566929134,
                    "duration": 0.2545286291666855
                },
                {
                    "name": "C#1",
                    "midi": 25,
                    "time": 160.2171669999997,
                    "velocity": 0.14173228346456693,
                    "duration": 0.23097793750002893
                },
                {
                    "name": "F#1",
                    "midi": 30,
                    "time": 160.43455799999973,
                    "velocity": 0.18110236220472442,
                    "duration": 0.40126755416665105
                },
                {
                    "name": "F#2",
                    "midi": 42,
                    "time": 160.43455799999973,
                    "velocity": 0.25196850393700787,
                    "duration": 0.4039849416666641
                },
                {
                    "name": "A#3",
                    "midi": 58,
                    "time": 160.8693399999997,
                    "velocity": 0.12598425196850394,
                    "duration": 0.4094197166666902
                },
                {
                    "name": "C#4",
                    "midi": 61,
                    "time": 160.8693399999997,
                    "velocity": 0.2047244094488189,
                    "duration": 0.40307914583334536
                },
                {
                    "name": "E4",
                    "midi": 64,
                    "time": 160.8693399999997,
                    "velocity": 0.1889763779527559,
                    "duration": 0.3903980041666557
                },
                {
                    "name": "G4",
                    "midi": 67,
                    "time": 160.8693399999997,
                    "velocity": 0.2047244094488189,
                    "duration": 0.39130380000000287
                },
                {
                    "name": "A4",
                    "midi": 69,
                    "time": 160.8693399999997,
                    "velocity": 0.2047244094488189,
                    "duration": 0.39220959583335
                },
                {
                    "name": "A#4",
                    "midi": 70,
                    "time": 160.8693399999997,
                    "velocity": 0.1968503937007874,
                    "duration": 0.41847767500004807
                },
                {
                    "name": "C#5",
                    "midi": 73,
                    "time": 160.8693399999997,
                    "velocity": 0.1968503937007874,
                    "duration": 0.415760287500035
                },
                {
                    "name": "E5",
                    "midi": 76,
                    "time": 160.8693399999997,
                    "velocity": 0.2440944881889764,
                    "duration": 0.42210085833337985
                },
                {
                    "name": "A5",
                    "midi": 81,
                    "time": 160.8693399999997,
                    "velocity": 0.23622047244094488,
                    "duration": 0.42391245000004574
                },
                {
                    "name": "C#2",
                    "midi": 37,
                    "time": 161.30412199999975,
                    "velocity": 0.15748031496062992,
                    "duration": 0.4855065666666576
                },
                {
                    "name": "C#1",
                    "midi": 25,
                    "time": 161.30412199999975,
                    "velocity": 0.14173228346456693,
                    "duration": 0.461955875000001
                },
                {
                    "name": "F#1",
                    "midi": 30,
                    "time": 161.73890399999976,
                    "velocity": 0.1968503937007874,
                    "duration": 0.4320646124999712
                },
                {
                    "name": "F#2",
                    "midi": 42,
                    "time": 161.73890399999976,
                    "velocity": 0.25984251968503935,
                    "duration": 0.42300665416664174
                },
                {
                    "name": "A4",
                    "midi": 69,
                    "time": 162.17368599999975,
                    "velocity": 0.2047244094488189,
                    "duration": 0.12862300833333506
                },
                {
                    "name": "A#3",
                    "midi": 58,
                    "time": 162.17368599999975,
                    "velocity": 0.25984251968503935,
                    "duration": 0.12681141666666917
                },
                {
                    "name": "E4",
                    "midi": 64,
                    "time": 162.17368599999975,
                    "velocity": 0.2283464566929134,
                    "duration": 0.12862300833333506
                },
                {
                    "name": "C#4",
                    "midi": 61,
                    "time": 162.17368599999975,
                    "velocity": 0.29133858267716534,
                    "duration": 0.12409402916665613
                },
                {
                    "name": "A2",
                    "midi": 45,
                    "time": 162.17368599999975,
                    "velocity": 0.1889763779527559,
                    "duration": 0.39855016666666643
                },
                {
                    "name": "A3",
                    "midi": 57,
                    "time": 162.17368599999975,
                    "velocity": 0.2047244094488189,
                    "duration": 0.39492698333333465
                },
                {
                    "name": "A#2",
                    "midi": 46,
                    "time": 162.17368599999975,
                    "velocity": 0.16535433070866143,
                    "duration": 0.40670232916667715
                },
                {
                    "name": "C#3",
                    "midi": 49,
                    "time": 162.17368599999975,
                    "velocity": 0.2047244094488189,
                    "duration": 0.3876806166666711
                },
                {
                    "name": "E3",
                    "midi": 52,
                    "time": 162.17368599999975,
                    "velocity": 0.16535433070866143,
                    "duration": 0.38677482083332393
                },
                {
                    "name": "E4",
                    "midi": 64,
                    "time": 162.39107699999974,
                    "velocity": 0.25196850393700787,
                    "duration": 0.14583312916667523
                },
                {
                    "name": "A4",
                    "midi": 69,
                    "time": 162.39107699999974,
                    "velocity": 0.2755905511811024,
                    "duration": 0.14583312916667523
                },
                {
                    "name": "A#3",
                    "midi": 58,
                    "time": 162.39107699999974,
                    "velocity": 0.2125984251968504,
                    "duration": 0.12681141666666917
                },
                {
                    "name": "C#4",
                    "midi": 61,
                    "time": 162.39107699999974,
                    "velocity": 0.25196850393700787,
                    "duration": 0.12590562083332202
                },
                {
                    "name": "A4",
                    "midi": 69,
                    "time": 162.60846799999976,
                    "velocity": 0.2755905511811024,
                    "duration": 0.22644895833337841
                },
                {
                    "name": "E4",
                    "midi": 64,
                    "time": 162.60846799999976,
                    "velocity": 0.28346456692913385,
                    "duration": 0.22191997916669948
                },
                {
                    "name": "A#3",
                    "midi": 58,
                    "time": 162.60846799999976,
                    "velocity": 0.2440944881889764,
                    "duration": 0.21739100000002054
                },
                {
                    "name": "C#4",
                    "midi": 61,
                    "time": 162.60846799999976,
                    "velocity": 0.2204724409448819,
                    "duration": 0.2128620208333416
                },
                {
                    "name": "C#1",
                    "midi": 25,
                    "time": 162.82585899999978,
                    "velocity": 0.25196850393700787,
                    "duration": 0.26539817916668085
                },
                {
                    "name": "C#2",
                    "midi": 37,
                    "time": 162.82585899999978,
                    "velocity": 0.15748031496062992,
                    "duration": 0.3016300125000271
                },
                {
                    "name": "F#1",
                    "midi": 30,
                    "time": 163.0432499999998,
                    "velocity": 0.2283464566929134,
                    "duration": 0.3876806166666711
                },
                {
                    "name": "F#2",
                    "midi": 42,
                    "time": 163.0432499999998,
                    "velocity": 0.2283464566929134,
                    "duration": 0.37952845416666037
                },
                {
                    "name": "A3",
                    "midi": 57,
                    "time": 163.4780319999998,
                    "velocity": 0.15748031496062992,
                    "duration": 0.4239124499999889
                },
                {
                    "name": "E3",
                    "midi": 52,
                    "time": 163.4780319999998,
                    "velocity": 0.15748031496062992,
                    "duration": 0.4076081249999959
                },
                {
                    "name": "C#3",
                    "midi": 49,
                    "time": 163.4780319999998,
                    "velocity": 0.11811023622047244,
                    "duration": 0.40489073749998283
                },
                {
                    "name": "A#2",
                    "midi": 46,
                    "time": 163.4780319999998,
                    "velocity": 0.11811023622047244,
                    "duration": 0.38677482083332393
                },
                {
                    "name": "C#1",
                    "midi": 25,
                    "time": 163.9128139999998,
                    "velocity": 0.29133858267716534,
                    "duration": 0.4184776749999912
                },
                {
                    "name": "C#2",
                    "midi": 37,
                    "time": 163.9128139999998,
                    "velocity": 0.15748031496062992,
                    "duration": 0.4655790583333328
                },
                {
                    "name": "F#1",
                    "midi": 30,
                    "time": 164.34759599999978,
                    "velocity": 0.13385826771653545,
                    "duration": 0.40851392083334304
                },
                {
                    "name": "F#2",
                    "midi": 42,
                    "time": 164.34759599999978,
                    "velocity": 0.2125984251968504,
                    "duration": 0.413042900000022
                },
                {
                    "name": "C#3",
                    "midi": 49,
                    "time": 164.7823779999998,
                    "velocity": 0.2283464566929134,
                    "duration": 0.11231868333334205
                },
                {
                    "name": "A2",
                    "midi": 45,
                    "time": 164.7823779999998,
                    "velocity": 0.08661417322834646,
                    "duration": 0.10778970416666311
                },
                {
                    "name": "A#2",
                    "midi": 46,
                    "time": 164.7823779999998,
                    "velocity": 0.2204724409448819,
                    "duration": 0.1150360708333551
                },
                {
                    "name": "A2",
                    "midi": 45,
                    "time": 164.99976899999982,
                    "velocity": 0.2047244094488189,
                    "duration": 0.10960129583335743
                },
                {
                    "name": "A#2",
                    "midi": 46,
                    "time": 164.99976899999982,
                    "velocity": 0.2677165354330709,
                    "duration": 0.11594186666670225
                },
                {
                    "name": "C#3",
                    "midi": 49,
                    "time": 164.99976899999982,
                    "velocity": 0.1732283464566929,
                    "duration": 0.1032607250000126
                },
                {
                    "name": "C#3",
                    "midi": 49,
                    "time": 165.21715999999986,
                    "velocity": 0.11023622047244094,
                    "duration": 0.18206496250002147
                },
                {
                    "name": "A2",
                    "midi": 45,
                    "time": 165.21715999999986,
                    "velocity": 0.14173228346456693,
                    "duration": 0.17934757500000842
                },
                {
                    "name": "A#2",
                    "midi": 46,
                    "time": 165.21715999999986,
                    "velocity": 0.16535433070866143,
                    "duration": 0.17844177916666126
                },
                {
                    "name": "C#1",
                    "midi": 25,
                    "time": 165.43455099999989,
                    "velocity": 0.10236220472440945,
                    "duration": 0.3043474000000117
                },
                {
                    "name": "C#2",
                    "midi": 37,
                    "time": 165.43455099999989,
                    "velocity": 0.11811023622047244,
                    "duration": 0.27989091250000797
                },
                {
                    "name": "F#1",
                    "midi": 30,
                    "time": 165.65194199999988,
                    "velocity": 0.2677165354330709,
                    "duration": 0.3795284541666888
                },
                {
                    "name": "F#2",
                    "midi": 42,
                    "time": 165.65194199999988,
                    "velocity": 0.23622047244094488,
                    "duration": 0.3840574333333677
                },
                {
                    "name": "C#1",
                    "midi": 25,
                    "time": 166.08672399999992,
                    "velocity": 0.23622047244094488,
                    "duration": 0.0797100333333276
                },
                {
                    "name": "F#1",
                    "midi": 30,
                    "time": 166.5215059999999,
                    "velocity": 0.28346456692913385,
                    "duration": 0.06521730000000048
                },
                {
                    "name": "C#2",
                    "midi": 37,
                    "time": 166.95628799999992,
                    "velocity": 0.23622047244094488,
                    "duration": 0.08152162499999349
                },
                {
                    "name": "F#2",
                    "midi": 42,
                    "time": 167.3910699999999,
                    "velocity": 0.29133858267716534,
                    "duration": 0.08605060416667243
                },
                {
                    "name": "C#3",
                    "midi": 49,
                    "time": 167.8258519999999,
                    "velocity": 0.4015748031496063,
                    "duration": 0.07699264583334298
                },
                {
                    "name": "F#3",
                    "midi": 54,
                    "time": 168.26697457083324,
                    "velocity": 0.4881889763779528,
                    "duration": 0.8596002458333771
                },
                {
                    "name": "G4",
                    "midi": 67,
                    "time": 168.47802499999992,
                    "velocity": 0.5354330708661418,
                    "duration": 0.3713762916667065
                },
                {
                    "name": "F4",
                    "midi": 65,
                    "time": 168.47802499999992,
                    "velocity": 0.41732283464566927,
                    "duration": 0.37047049583335934
                },
                {
                    "name": "G3",
                    "midi": 55,
                    "time": 168.47802499999992,
                    "velocity": 0.4330708661417323,
                    "duration": 0.3659415166666804
                },
                {
                    "name": "F3",
                    "midi": 53,
                    "time": 168.47802499999992,
                    "velocity": 0.4881889763779528,
                    "duration": 0.36503572083333324
                },
                {
                    "name": "G4",
                    "midi": 67,
                    "time": 168.91280699999996,
                    "velocity": 0.3543307086614173,
                    "duration": 0.17844177916666126
                },
                {
                    "name": "F4",
                    "midi": 65,
                    "time": 168.91280699999996,
                    "velocity": 0.3543307086614173,
                    "duration": 0.1730070041666636
                },
                {
                    "name": "G3",
                    "midi": 55,
                    "time": 168.91280699999996,
                    "velocity": 0.30708661417322836,
                    "duration": 0.1811591666666743
                },
                {
                    "name": "F3",
                    "midi": 53,
                    "time": 168.91280699999996,
                    "velocity": 0.4094488188976378,
                    "duration": 0.18659394166667198
                },
                {
                    "name": "G3",
                    "midi": 55,
                    "time": 169.34758899999994,
                    "velocity": 0.3464566929133858,
                    "duration": 0.19565190000000143
                },
                {
                    "name": "F3",
                    "midi": 53,
                    "time": 169.34758899999994,
                    "velocity": 0.23622047244094488,
                    "duration": 0.19021712500000376
                },
                {
                    "name": "G4",
                    "midi": 67,
                    "time": 169.34758899999994,
                    "velocity": 0.28346456692913385,
                    "duration": 0.2047098583333593
                },
                {
                    "name": "F4",
                    "midi": 65,
                    "time": 169.34758899999994,
                    "velocity": 0.31496062992125984,
                    "duration": 0.19836928750001448
                },
                {
                    "name": "G4",
                    "midi": 67,
                    "time": 169.78237099999996,
                    "velocity": 0.23622047244094488,
                    "duration": 0.3188401333333388
                },
                {
                    "name": "F4",
                    "midi": 65,
                    "time": 169.78237099999996,
                    "velocity": 0.2204724409448819,
                    "duration": 0.31702854166667294
                },
                {
                    "name": "F3",
                    "midi": 53,
                    "time": 169.78237099999996,
                    "velocity": 0.12598425196850394,
                    "duration": 0.312499562499994
                },
                {
                    "name": "G3",
                    "midi": 55,
                    "time": 169.78237099999996,
                    "velocity": 0.2283464566929134,
                    "duration": 0.3106879708333281
                },
                {
                    "name": "G4",
                    "midi": 67,
                    "time": 170.21715299999997,
                    "velocity": 0.28346456692913385,
                    "duration": 0.3278980916666683
                },
                {
                    "name": "G3",
                    "midi": 55,
                    "time": 170.21715299999997,
                    "velocity": 0.2992125984251969,
                    "duration": 0.32155752083332345
                },
                {
                    "name": "F4",
                    "midi": 65,
                    "time": 170.21715299999997,
                    "velocity": 0.28346456692913385,
                    "duration": 0.32518070416665523
                },
                {
                    "name": "F3",
                    "midi": 53,
                    "time": 170.21715299999997,
                    "velocity": 0.29133858267716534,
                    "duration": 0.31793433749999167
                },
                {
                    "name": "G4",
                    "midi": 67,
                    "time": 170.65193499999998,
                    "velocity": 0.2440944881889764,
                    "duration": 0.3695647000000122
                },
                {
                    "name": "F4",
                    "midi": 65,
                    "time": 170.65193499999998,
                    "velocity": 0.2677165354330709,
                    "duration": 0.3659415166666804
                },
                {
                    "name": "G3",
                    "midi": 55,
                    "time": 170.65193499999998,
                    "velocity": 0.2204724409448819,
                    "duration": 0.36050674166668273
                },
                {
                    "name": "F3",
                    "midi": 53,
                    "time": 170.65193499999998,
                    "velocity": 0.14960629921259844,
                    "duration": 0.35688355833335095
                },
                {
                    "name": "C#4",
                    "midi": 61,
                    "time": 170.86389122499997,
                    "velocity": 0.5669291338582677,
                    "duration": 1.2445634750000636
                },
                {
                    "name": "C#3",
                    "midi": 49,
                    "time": 170.8666086125,
                    "velocity": 0.4330708661417323,
                    "duration": 1.2418460875000505
                },
                {
                    "name": "G3",
                    "midi": 55,
                    "time": 171.086717,
                    "velocity": 0.18110236220472442,
                    "duration": 0.3614125375000299
                },
                {
                    "name": "F3",
                    "midi": 53,
                    "time": 171.086717,
                    "velocity": 0.11811023622047244,
                    "duration": 0.35688355833335095
                },
                {
                    "name": "G4",
                    "midi": 67,
                    "time": 171.086717,
                    "velocity": 0.14960629921259844,
                    "duration": 0.35507196666668506
                },
                {
                    "name": "F4",
                    "midi": 65,
                    "time": 171.086717,
                    "velocity": 0.12598425196850394,
                    "duration": 0.352354579166672
                },
                {
                    "name": "G4",
                    "midi": 67,
                    "time": 171.52149900000003,
                    "velocity": 0.1732283464566929,
                    "duration": 0.3659415166666804
                },
                {
                    "name": "F4",
                    "midi": 65,
                    "time": 171.52149900000003,
                    "velocity": 0.16535433070866143,
                    "duration": 0.36322412916666735
                },
                {
                    "name": "G3",
                    "midi": 55,
                    "time": 171.52149900000003,
                    "velocity": 0.07086614173228346,
                    "duration": 0.35326037499999074
                },
                {
                    "name": "F3",
                    "midi": 53,
                    "time": 171.52149900000003,
                    "velocity": 0.07086614173228346,
                    "duration": 0.3460140083333272
                },
                {
                    "name": "G4",
                    "midi": 67,
                    "time": 171.95628100000005,
                    "velocity": 0.18110236220472442,
                    "duration": 0.3623183333333486
                },
                {
                    "name": "F4",
                    "midi": 65,
                    "time": 171.95628100000005,
                    "velocity": 0.1732283464566929,
                    "duration": 0.35869515000001684
                },
                {
                    "name": "G3",
                    "midi": 55,
                    "time": 171.95628100000005,
                    "velocity": 0.07874015748031496,
                    "duration": 0.34148502916667667
                },
                {
                    "name": "F3",
                    "midi": 53,
                    "time": 171.95628100000005,
                    "velocity": 0.07086614173228346,
                    "duration": 0.33333286666666595
                },
                {
                    "name": "C#4",
                    "midi": 61,
                    "time": 172.16370824583336,
                    "velocity": 0.5039370078740157,
                    "duration": 1.6874976375000017
                },
                {
                    "name": "C#3",
                    "midi": 49,
                    "time": 172.16823722500004,
                    "velocity": 0.30708661417322836,
                    "duration": 1.6829686583333228
                },
                {
                    "name": "G3",
                    "midi": 55,
                    "time": 172.39106300000006,
                    "velocity": 0.2047244094488189,
                    "duration": 0.4039849416666641
                },
                {
                    "name": "F3",
                    "midi": 53,
                    "time": 172.39106300000006,
                    "velocity": 0.16535433070866143,
                    "duration": 0.4003617583333323
                },
                {
                    "name": "G4",
                    "midi": 67,
                    "time": 172.39106300000006,
                    "velocity": 0.16535433070866143,
                    "duration": 0.4003617583333323
                },
                {
                    "name": "F4",
                    "midi": 65,
                    "time": 172.39106300000006,
                    "velocity": 0.14960629921259844,
                    "duration": 0.39492698333333465
                },
                {
                    "name": "G4",
                    "midi": 67,
                    "time": 172.82584500000004,
                    "velocity": 0.16535433070866143,
                    "duration": 0.3876806166666711
                },
                {
                    "name": "F4",
                    "midi": 65,
                    "time": 172.82584500000004,
                    "velocity": 0.18110236220472442,
                    "duration": 0.3822458416666734
                },
                {
                    "name": "G3",
                    "midi": 55,
                    "time": 172.82584500000004,
                    "velocity": 0.16535433070866143,
                    "duration": 0.38134004583332626
                },
                {
                    "name": "F3",
                    "midi": 53,
                    "time": 172.82584500000004,
                    "velocity": 0.13385826771653545,
                    "duration": 0.3777168624999945
                },
                {
                    "name": "G4",
                    "midi": 67,
                    "time": 173.26062700000006,
                    "velocity": 0.1889763779527559,
                    "duration": 0.3885864124999898
                },
                {
                    "name": "F4",
                    "midi": 65,
                    "time": 173.26062700000006,
                    "velocity": 0.1889763779527559,
                    "duration": 0.38496322916665804
                },
                {
                    "name": "G3",
                    "midi": 55,
                    "time": 173.26062700000006,
                    "velocity": 0.12598425196850394,
                    "duration": 0.37952845416666037
                },
                {
                    "name": "F3",
                    "midi": 53,
                    "time": 173.26062700000006,
                    "velocity": 0.11811023622047244,
                    "duration": 0.37952845416666037
                },
                {
                    "name": "G3",
                    "midi": 55,
                    "time": 173.69540900000004,
                    "velocity": 0.2125984251968504,
                    "duration": 0.375905270833357
                },
                {
                    "name": "F3",
                    "midi": 53,
                    "time": 173.69540900000004,
                    "velocity": 0.2047244094488189,
                    "duration": 0.37499947500000985
                },
                {
                    "name": "G4",
                    "midi": 67,
                    "time": 173.69540900000004,
                    "velocity": 0.15748031496062992,
                    "duration": 0.38224584166670184
                },
                {
                    "name": "F4",
                    "midi": 65,
                    "time": 173.69540900000004,
                    "velocity": 0.14960629921259844,
                    "duration": 0.3777168625000229
                },
                {
                    "name": "C#4",
                    "midi": 61,
                    "time": 173.90283624583336,
                    "velocity": 0.4881889763779528,
                    "duration": 0.40036175833338916
                },
                {
                    "name": "C#3",
                    "midi": 49,
                    "time": 173.9037420416667,
                    "velocity": 0.47244094488188976,
                    "duration": 0.399455962500042
                },
                {
                    "name": "G3",
                    "midi": 55,
                    "time": 174.13019100000008,
                    "velocity": 0.2047244094488189,
                    "duration": 0.37862265833334163
                },
                {
                    "name": "F3",
                    "midi": 53,
                    "time": 174.13019100000008,
                    "velocity": 0.18110236220472442,
                    "duration": 0.37681106666667574
                },
                {
                    "name": "G4",
                    "midi": 67,
                    "time": 174.13019100000008,
                    "velocity": 0.2283464566929134,
                    "duration": 0.3795284541666888
                },
                {
                    "name": "F4",
                    "midi": 65,
                    "time": 174.13019100000008,
                    "velocity": 0.2440944881889764,
                    "duration": 0.37318788333334396
                },
                {
                    "name": "C#4",
                    "midi": 61,
                    "time": 174.34124142916676,
                    "velocity": 0.5039370078740157,
                    "duration": 0.3804342500000075
                },
                {
                    "name": "C#3",
                    "midi": 49,
                    "time": 174.3421472250001,
                    "velocity": 0.4881889763779528,
                    "duration": 0.3822458416666734
                },
                {
                    "name": "G3",
                    "midi": 55,
                    "time": 174.5649730000001,
                    "velocity": 0.1968503937007874,
                    "duration": 0.37228208750008207
                },
                {
                    "name": "F3",
                    "midi": 53,
                    "time": 174.5649730000001,
                    "velocity": 0.15748031496062992,
                    "duration": 0.36865890416672187
                },
                {
                    "name": "G4",
                    "midi": 67,
                    "time": 174.5649730000001,
                    "velocity": 0.18110236220472442,
                    "duration": 0.3731878833334292
                },
                {
                    "name": "F4",
                    "midi": 65,
                    "time": 174.5649730000001,
                    "velocity": 0.1732283464566929,
                    "duration": 0.369564700000069
                },
                {
                    "name": "C#4",
                    "midi": 61,
                    "time": 174.76424808333346,
                    "velocity": 0.4881889763779528,
                    "duration": 0.9374986875000673
                },
                {
                    "name": "C#3",
                    "midi": 49,
                    "time": 174.7651538791668,
                    "velocity": 0.4645669291338583,
                    "duration": 0.9492740333333813
                },
                {
                    "name": "G3",
                    "midi": 55,
                    "time": 174.9997550000002,
                    "velocity": 0.18110236220472442,
                    "duration": 0.319745929166686
                },
                {
                    "name": "F3",
                    "midi": 53,
                    "time": 174.9997550000002,
                    "velocity": 0.14960629921259844,
                    "duration": 0.3188401333333388
                },
                {
                    "name": "G4",
                    "midi": 67,
                    "time": 174.9997550000002,
                    "velocity": 0.14960629921259844,
                    "duration": 0.3378618458333449
                },
                {
                    "name": "F4",
                    "midi": 65,
                    "time": 174.9997550000002,
                    "velocity": 0.14960629921259844,
                    "duration": 0.3342386625000131
                },
                {
                    "name": "G3",
                    "midi": 55,
                    "time": 175.4345370000002,
                    "velocity": 0.16535433070866143,
                    "duration": 0.3369560499999693
                },
                {
                    "name": "G4",
                    "midi": 67,
                    "time": 175.4345370000002,
                    "velocity": 0.18110236220472442,
                    "duration": 0.34782559999996465
                },
                {
                    "name": "F3",
                    "midi": 53,
                    "time": 175.4345370000002,
                    "velocity": 0.14173228346456693,
                    "duration": 0.3351444583333034
                },
                {
                    "name": "F4",
                    "midi": 65,
                    "time": 175.4345370000002,
                    "velocity": 0.1889763779527559,
                    "duration": 0.34601400833329876
                },
                {
                    "name": "B3",
                    "midi": 59,
                    "time": 175.65645697916688,
                    "velocity": 0.3228346456692913,
                    "duration": 0.10416652083330291
                },
                {
                    "name": "B2",
                    "midi": 47,
                    "time": 175.6709497125002,
                    "velocity": 0.3937007874015748,
                    "duration": 0.3623183333332918
                },
                {
                    "name": "G3",
                    "midi": 55,
                    "time": 175.86931900000016,
                    "velocity": 0.10236220472440945,
                    "duration": 0.3677531083333747
                },
                {
                    "name": "F3",
                    "midi": 53,
                    "time": 175.86931900000016,
                    "velocity": 0.09448818897637795,
                    "duration": 0.3677531083333747
                },
                {
                    "name": "G4",
                    "midi": 67,
                    "time": 175.86931900000016,
                    "velocity": 0.18110236220472442,
                    "duration": 0.36503572083336167
                },
                {
                    "name": "F4",
                    "midi": 65,
                    "time": 175.86931900000016,
                    "velocity": 0.1889763779527559,
                    "duration": 0.3641299250000145
                },
                {
                    "name": "G4",
                    "midi": 67,
                    "time": 176.3041010000002,
                    "velocity": 0.1968503937007874,
                    "duration": 0.3913038000000313
                },
                {
                    "name": "G3",
                    "midi": 55,
                    "time": 176.3041010000002,
                    "velocity": 0.1968503937007874,
                    "duration": 0.3840574333333393
                },
                {
                    "name": "F4",
                    "midi": 65,
                    "time": 176.3041010000002,
                    "velocity": 0.2047244094488189,
                    "duration": 0.38677482083335235
                },
                {
                    "name": "F3",
                    "midi": 53,
                    "time": 176.3041010000002,
                    "velocity": 0.15748031496062992,
                    "duration": 0.38315163749999215
                },
                {
                    "name": "B1",
                    "midi": 35,
                    "time": 176.5269267750002,
                    "velocity": 0.3228346456692913,
                    "duration": 0.029891262500001403
                },
                {
                    "name": "F#1",
                    "midi": 30,
                    "time": 176.73073083750023,
                    "velocity": 0.4330708661417323,
                    "duration": 0.04438399583335695
                },
                {
                    "name": "F#2",
                    "midi": 42,
                    "time": 176.73435402083356,
                    "velocity": 0.4330708661417323,
                    "duration": 0.03260865000001445
                },
                {
                    "name": "F3",
                    "midi": 53,
                    "time": 176.73888300000024,
                    "velocity": 0.2125984251968504,
                    "duration": 0.36503572083333324
                },
                {
                    "name": "G3",
                    "midi": 55,
                    "time": 176.73888300000024,
                    "velocity": 0.2047244094488189,
                    "duration": 0.36322412916666735
                },
                {
                    "name": "G4",
                    "midi": 67,
                    "time": 176.73888300000024,
                    "velocity": 0.14173228346456693,
                    "duration": 0.368658904166665
                },
                {
                    "name": "F4",
                    "midi": 65,
                    "time": 176.73888300000024,
                    "velocity": 0.15748031496062992,
                    "duration": 0.36503572083333324
                },
                {
                    "name": "B1",
                    "midi": 35,
                    "time": 176.94812183750025,
                    "velocity": 0.4330708661417323,
                    "duration": 0.028985466666654247
                },
                {
                    "name": "G4",
                    "midi": 67,
                    "time": 177.17366500000023,
                    "velocity": 0.15748031496062992,
                    "duration": 0.336050254166679
                },
                {
                    "name": "F4",
                    "midi": 65,
                    "time": 177.17366500000023,
                    "velocity": 0.1732283464566929,
                    "duration": 0.3342386625000131
                },
                {
                    "name": "G3",
                    "midi": 55,
                    "time": 177.17366500000023,
                    "velocity": 0.13385826771653545,
                    "duration": 0.3306154791666529
                },
                {
                    "name": "F3",
                    "midi": 53,
                    "time": 177.17366500000023,
                    "velocity": 0.13385826771653545,
                    "duration": 0.33152127500000006
                },
                {
                    "name": "B1",
                    "midi": 35,
                    "time": 177.40554873333355,
                    "velocity": 0.29133858267716534,
                    "duration": 0.04438399583332853
                },
                {
                    "name": "F#1",
                    "midi": 30,
                    "time": 177.60663540833357,
                    "velocity": 0.4015748031496063,
                    "duration": 0.054347750000005135
                },
                {
                    "name": "G3",
                    "midi": 55,
                    "time": 177.60844700000024,
                    "velocity": 0.18110236220472442,
                    "duration": 0.3949269833333915
                },
                {
                    "name": "F3",
                    "midi": 53,
                    "time": 177.60844700000024,
                    "velocity": 0.16535433070866143,
                    "duration": 0.3931153916666972
                },
                {
                    "name": "G4",
                    "midi": 67,
                    "time": 177.60844700000024,
                    "velocity": 0.1889763779527559,
                    "duration": 0.39402118750004433
                },
                {
                    "name": "F4",
                    "midi": 65,
                    "time": 177.60844700000024,
                    "velocity": 0.18110236220472442,
                    "duration": 0.39039800416668413
                },
                {
                    "name": "F#2",
                    "midi": 42,
                    "time": 177.61207018333357,
                    "velocity": 0.4409448818897638,
                    "duration": 0.04710138333334157
                },
                {
                    "name": "B1",
                    "midi": 35,
                    "time": 177.83217857083358,
                    "velocity": 0.3700787401574803,
                    "duration": 0.029891262500001403
                },
                {
                    "name": "F#1",
                    "midi": 30,
                    "time": 178.03326524583363,
                    "velocity": 0.3700787401574803,
                    "duration": 0.05163036250002051
                },
                {
                    "name": "G4",
                    "midi": 67,
                    "time": 178.0432290000003,
                    "velocity": 0.16535433070866143,
                    "duration": 0.3849632291667149
                },
                {
                    "name": "G3",
                    "midi": 55,
                    "time": 178.0432290000003,
                    "velocity": 0.1732283464566929,
                    "duration": 0.3713762916667065
                },
                {
                    "name": "F4",
                    "midi": 65,
                    "time": 178.0432290000003,
                    "velocity": 0.18110236220472442,
                    "duration": 0.3813400458333831
                },
                {
                    "name": "F3",
                    "midi": 53,
                    "time": 178.0432290000003,
                    "velocity": 0.18110236220472442,
                    "duration": 0.36684731250002756
                },
                {
                    "name": "F#2",
                    "midi": 42,
                    "time": 178.0486637750003,
                    "velocity": 0.14960629921259844,
                    "duration": 0.03804342500001212
                },
                {
                    "name": "B1",
                    "midi": 35,
                    "time": 178.256996816667,
                    "velocity": 0.2283464566929134,
                    "duration": 0.04438399583332853
                },
                {
                    "name": "G4",
                    "midi": 67,
                    "time": 178.47801100000035,
                    "velocity": 0.14173228346456693,
                    "duration": 0.37681106666670416
                },
                {
                    "name": "F4",
                    "midi": 65,
                    "time": 178.47801100000035,
                    "velocity": 0.14960629921259844,
                    "duration": 0.3731878833333724
                },
                {
                    "name": "G3",
                    "midi": 55,
                    "time": 178.47801100000035,
                    "velocity": 0.14173228346456693,
                    "duration": 0.3632241291666958
                },
                {
                    "name": "F3",
                    "midi": 53,
                    "time": 178.47801100000035,
                    "velocity": 0.14173228346456693,
                    "duration": 0.35869515000001684
                },
                {
                    "name": "B1",
                    "midi": 35,
                    "time": 178.68906142916703,
                    "velocity": 0.2755905511811024,
                    "duration": 0.037137629166664965
                },
                {
                    "name": "F#1",
                    "midi": 30,
                    "time": 178.9073582250004,
                    "velocity": 0.3937007874015748,
                    "duration": 0.04347820000000979
                },
                {
                    "name": "F#2",
                    "midi": 42,
                    "time": 178.90916981666706,
                    "velocity": 0.3700787401574803,
                    "duration": 0.04438399583335695
                },
                {
                    "name": "G3",
                    "midi": 55,
                    "time": 178.9127930000004,
                    "velocity": 0.18110236220472442,
                    "duration": 0.3777168625000229
                },
                {
                    "name": "F3",
                    "midi": 53,
                    "time": 178.9127930000004,
                    "velocity": 0.16535433070866143,
                    "duration": 0.37681106666667574
                },
                {
                    "name": "G4",
                    "midi": 67,
                    "time": 178.9127930000004,
                    "velocity": 0.14960629921259844,
                    "duration": 0.37499947500000985
                },
                {
                    "name": "F4",
                    "midi": 65,
                    "time": 178.9127930000004,
                    "velocity": 0.14960629921259844,
                    "duration": 0.37137629166667807
                },
                {
                    "name": "B1",
                    "midi": 35,
                    "time": 179.12112604166708,
                    "velocity": 0.25196850393700787,
                    "duration": 0.042572404166662636
                },
                {
                    "name": "G3",
                    "midi": 55,
                    "time": 179.3475750000004,
                    "velocity": 0.16535433070866143,
                    "duration": 0.40941971666666177
                },
                {
                    "name": "F3",
                    "midi": 53,
                    "time": 179.3475750000004,
                    "velocity": 0.14173228346456693,
                    "duration": 0.4039849416666641
                },
                {
                    "name": "G4",
                    "midi": 67,
                    "time": 179.3475750000004,
                    "velocity": 0.12598425196850394,
                    "duration": 0.4039849416666641
                },
                {
                    "name": "F4",
                    "midi": 65,
                    "time": 179.3475750000004,
                    "velocity": 0.14960629921259844,
                    "duration": 0.40126755416665105
                },
                {
                    "name": "B1",
                    "midi": 35,
                    "time": 179.5758355500004,
                    "velocity": 0.07086614173228346,
                    "duration": 0.026268079166669622
                },
                {
                    "name": "F#1",
                    "midi": 30,
                    "time": 179.7823570000004,
                    "velocity": 0.4015748031496063,
                    "duration": 0.04528979166667568
                },
                {
                    "name": "G4",
                    "midi": 67,
                    "time": 179.7823570000004,
                    "velocity": 0.1968503937007874,
                    "duration": 0.3641299250000145
                },
                {
                    "name": "F4",
                    "midi": 65,
                    "time": 179.7823570000004,
                    "velocity": 0.2047244094488189,
                    "duration": 0.3623183333333486
                },
                {
                    "name": "G3",
                    "midi": 55,
                    "time": 179.7823570000004,
                    "velocity": 0.2283464566929134,
                    "duration": 0.352354579166672
                },
                {
                    "name": "F3",
                    "midi": 53,
                    "time": 179.7823570000004,
                    "velocity": 0.2283464566929134,
                    "duration": 0.3505429875000061
                },
                {
                    "name": "F#2",
                    "midi": 42,
                    "time": 179.78688597916707,
                    "velocity": 0.36220472440944884,
                    "duration": 0.040760812499996746
                },
                {
                    "name": "B1",
                    "midi": 35,
                    "time": 179.98525526666705,
                    "velocity": 0.30708661417322836,
                    "duration": 0.042572404166662636
                },
                {
                    "name": "F#1",
                    "midi": 30,
                    "time": 180.21079842916706,
                    "velocity": 0.25196850393700787,
                    "duration": 0.04800717916668873
                },
                {
                    "name": "G4",
                    "midi": 67,
                    "time": 180.2171390000004,
                    "velocity": 0.14960629921259844,
                    "duration": 0.3152169500000639
                },
                {
                    "name": "F4",
                    "midi": 65,
                    "time": 180.2171390000004,
                    "velocity": 0.14960629921259844,
                    "duration": 0.31431115416671673
                },
                {
                    "name": "G3",
                    "midi": 55,
                    "time": 180.2171390000004,
                    "velocity": 0.15748031496062992,
                    "duration": 0.30706478750005317
                },
                {
                    "name": "F3",
                    "midi": 53,
                    "time": 180.2171390000004,
                    "velocity": 0.12598425196850394,
                    "duration": 0.306158991666706
                },
                {
                    "name": "F#2",
                    "midi": 42,
                    "time": 180.21804479583375,
                    "velocity": 0.2992125984251969,
                    "duration": 0.054347750000005135
                },
                {
                    "name": "B1",
                    "midi": 35,
                    "time": 180.44177636666709,
                    "velocity": 0.2125984251968504,
                    "duration": 0.03804342500001212
                },
                {
                    "name": "G4",
                    "midi": 67,
                    "time": 180.65192100000047,
                    "velocity": 0.16535433070866143,
                    "duration": 0.4039849416666925
                },
                {
                    "name": "F4",
                    "midi": 65,
                    "time": 180.65192100000047,
                    "velocity": 0.16535433070866143,
                    "duration": 0.4012675541666795
                },
                {
                    "name": "G3",
                    "midi": 55,
                    "time": 180.65192100000047,
                    "velocity": 0.13385826771653545,
                    "duration": 0.39855016666666643
                },
                {
                    "name": "F3",
                    "midi": 53,
                    "time": 180.65192100000047,
                    "velocity": 0.11023622047244094,
                    "duration": 0.3922095958333216
                },
                {
                    "name": "G3",
                    "midi": 55,
                    "time": 181.08670300000048,
                    "velocity": 0.2204724409448819,
                    "duration": 0.36503572083333324
                },
                {
                    "name": "G4",
                    "midi": 67,
                    "time": 181.08670300000048,
                    "velocity": 0.1968503937007874,
                    "duration": 0.37137629166667807
                },
                {
                    "name": "F4",
                    "midi": 65,
                    "time": 181.08670300000048,
                    "velocity": 0.2047244094488189,
                    "duration": 0.368658904166665
                },
                {
                    "name": "F3",
                    "midi": 53,
                    "time": 181.08670300000048,
                    "velocity": 0.1968503937007874,
                    "duration": 0.3596009458333356
                },
                {
                    "name": "B3",
                    "midi": 59,
                    "time": 181.09757255000048,
                    "velocity": 0.4094488188976378,
                    "duration": 0.2663039749999996
                },
                {
                    "name": "B2",
                    "midi": 47,
                    "time": 181.10844210000047,
                    "velocity": 0.3937007874015748,
                    "duration": 0.2327895291666664
                },
                {
                    "name": "C#4",
                    "midi": 61,
                    "time": 181.31134036666714,
                    "velocity": 0.4645669291338583,
                    "duration": 0.23097793750002893
                },
                {
                    "name": "C#3",
                    "midi": 49,
                    "time": 181.32039832500047,
                    "velocity": 0.3228346456692913,
                    "duration": 0.2282605500000443
                },
                {
                    "name": "D4",
                    "midi": 62,
                    "time": 181.51695602083382,
                    "velocity": 0.4881889763779528,
                    "duration": 0.2228257750000182
                },
                {
                    "name": "G3",
                    "midi": 55,
                    "time": 181.5214850000005,
                    "velocity": 0.28346456692913385,
                    "duration": 0.39130380000000287
                },
                {
                    "name": "G4",
                    "midi": 67,
                    "time": 181.5214850000005,
                    "velocity": 0.29133858267716534,
                    "duration": 0.39855016666666643
                },
                {
                    "name": "F3",
                    "midi": 53,
                    "time": 181.5214850000005,
                    "velocity": 0.28346456692913385,
                    "duration": 0.389492208333337
                },
                {
                    "name": "F4",
                    "midi": 65,
                    "time": 181.5214850000005,
                    "velocity": 0.30708661417322836,
                    "duration": 0.39673857500000054
                },
                {
                    "name": "D3",
                    "midi": 50,
                    "time": 181.53144875416717,
                    "velocity": 0.41732283464566927,
                    "duration": 0.21557940833332623
                },
                {
                    "name": "C#3",
                    "midi": 49,
                    "time": 181.72166587916718,
                    "velocity": 0.4881889763779528,
                    "duration": 0.2463764666666748
                },
                {
                    "name": "C#4",
                    "midi": 61,
                    "time": 181.72710065416717,
                    "velocity": 0.44881889763779526,
                    "duration": 0.22826054999998746
                },
                {
                    "name": "C#3",
                    "midi": 49,
                    "time": 181.72891224583384,
                    "velocity": 0.3937007874015748,
                    "duration": 0.24365907916669016
                },
                {
                    "name": "E4",
                    "midi": 64,
                    "time": 181.94177426666715,
                    "velocity": 0.6692913385826772,
                    "duration": 1.9972798125001816
                },
                {
                    "name": "E3",
                    "midi": 52,
                    "time": 181.94630324583383,
                    "velocity": 0.5354330708661418,
                    "duration": 0.7653974791667508
                },
                {
                    "name": "E3",
                    "midi": 52,
                    "time": 181.94630324583383,
                    "velocity": 0.47244094488188976,
                    "duration": 1.9864102625001578
                },
                {
                    "name": "G3",
                    "midi": 55,
                    "time": 181.9562670000005,
                    "velocity": 0.25196850393700787,
                    "duration": 0.3876806166666995
                },
                {
                    "name": "G4",
                    "midi": 67,
                    "time": 181.9562670000005,
                    "velocity": 0.2283464566929134,
                    "duration": 0.3949269833333915
                },
                {
                    "name": "F3",
                    "midi": 53,
                    "time": 181.9562670000005,
                    "velocity": 0.2283464566929134,
                    "duration": 0.38496322916668646
                },
                {
                    "name": "F4",
                    "midi": 65,
                    "time": 181.9562670000005,
                    "velocity": 0.23622047244094488,
                    "duration": 0.39039800416671255
                },
                {
                    "name": "G3",
                    "midi": 55,
                    "time": 182.39104900000058,
                    "velocity": 0.2204724409448819,
                    "duration": 0.3423908250000238
                },
                {
                    "name": "F3",
                    "midi": 53,
                    "time": 182.39104900000058,
                    "velocity": 0.2047244094488189,
                    "duration": 0.3405792333333295
                },
                {
                    "name": "G4",
                    "midi": 67,
                    "time": 182.39104900000058,
                    "velocity": 0.16535433070866143,
                    "duration": 0.34510821250003687
                },
                {
                    "name": "F4",
                    "midi": 65,
                    "time": 182.39104900000058,
                    "velocity": 0.1889763779527559,
                    "duration": 0.34148502916667667
                },
                {
                    "name": "G4",
                    "midi": 67,
                    "time": 182.82583100000062,
                    "velocity": 0.2204724409448819,
                    "duration": 0.4230066541666986
                },
                {
                    "name": "F4",
                    "midi": 65,
                    "time": 182.82583100000062,
                    "velocity": 0.2283464566929134,
                    "duration": 0.42028926666668553
                },
                {
                    "name": "G3",
                    "midi": 55,
                    "time": 182.82583100000062,
                    "velocity": 0.2204724409448819,
                    "duration": 0.4175718791666725
                },
                {
                    "name": "F3",
                    "midi": 53,
                    "time": 182.82583100000062,
                    "velocity": 0.1968503937007874,
                    "duration": 0.41123130833332766
                },
                {
                    "name": "G4",
                    "midi": 67,
                    "time": 183.26061300000066,
                    "velocity": 0.16535433070866143,
                    "duration": 0.3586951499999884
                },
                {
                    "name": "F4",
                    "midi": 65,
                    "time": 183.26061300000066,
                    "velocity": 0.18110236220472442,
                    "duration": 0.35507196666665664
                },
                {
                    "name": "G3",
                    "midi": 55,
                    "time": 183.26061300000066,
                    "velocity": 0.15748031496062992,
                    "duration": 0.35507196666665664
                },
                {
                    "name": "F3",
                    "midi": 53,
                    "time": 183.26061300000066,
                    "velocity": 0.12598425196850394,
                    "duration": 0.34963719166665896
                },
                {
                    "name": "G3",
                    "midi": 55,
                    "time": 183.69539500000064,
                    "velocity": 0.2440944881889764,
                    "duration": 0.36684731250002756
                },
                {
                    "name": "F3",
                    "midi": 53,
                    "time": 183.69539500000064,
                    "velocity": 0.2204724409448819,
                    "duration": 0.36503572083336167
                },
                {
                    "name": "G4",
                    "midi": 67,
                    "time": 183.69539500000064,
                    "velocity": 0.2204724409448819,
                    "duration": 0.37228208750005365
                },
                {
                    "name": "F4",
                    "midi": 65,
                    "time": 183.69539500000064,
                    "velocity": 0.2204724409448819,
                    "duration": 0.3677531083333747
                },
                {
                    "name": "D4",
                    "midi": 62,
                    "time": 183.91097440833397,
                    "velocity": 0.41732283464566927,
                    "duration": 0.48188338333335423
                },
                {
                    "name": "D3",
                    "midi": 50,
                    "time": 183.91369179583398,
                    "velocity": 0.4409448818897638,
                    "duration": 0.4918471375000024
                },
                {
                    "name": "G4",
                    "midi": 67,
                    "time": 184.13017700000069,
                    "velocity": 0.2047244094488189,
                    "duration": 0.3695647000000122
                },
                {
                    "name": "F4",
                    "midi": 65,
                    "time": 184.13017700000069,
                    "velocity": 0.2047244094488189,
                    "duration": 0.36684731249999913
                },
                {
                    "name": "G3",
                    "midi": 55,
                    "time": 184.13017700000069,
                    "velocity": 0.18110236220472442,
                    "duration": 0.365941516666652
                },
                {
                    "name": "F3",
                    "midi": 53,
                    "time": 184.13017700000069,
                    "velocity": 0.15748031496062992,
                    "duration": 0.36322412916663893
                },
                {
                    "name": "C#3",
                    "midi": 49,
                    "time": 184.362060733334,
                    "velocity": 0.29133858267716534,
                    "duration": 0.48188338333338265
                },
                {
                    "name": "C#4",
                    "midi": 61,
                    "time": 184.36568391666734,
                    "velocity": 0.33858267716535434,
                    "duration": 0.46829644583337426
                },
                {
                    "name": "G3",
                    "midi": 55,
                    "time": 184.5649590000007,
                    "velocity": 0.1968503937007874,
                    "duration": 0.39855016666669485
                },
                {
                    "name": "F3",
                    "midi": 53,
                    "time": 184.5649590000007,
                    "velocity": 0.1968503937007874,
                    "duration": 0.3940211875000159
                },
                {
                    "name": "G4",
                    "midi": 67,
                    "time": 184.5649590000007,
                    "velocity": 0.2125984251968504,
                    "duration": 0.399455962500042
                },
                {
                    "name": "F4",
                    "midi": 65,
                    "time": 184.5649590000007,
                    "velocity": 0.2204724409448819,
                    "duration": 0.39673857500002896
                },
                {
                    "name": "B3",
                    "midi": 59,
                    "time": 184.79140795833402,
                    "velocity": 0.3543307086614173,
                    "duration": 0.3931153916667256
                },
                {
                    "name": "B2",
                    "midi": 47,
                    "time": 184.79774852916736,
                    "velocity": 0.3228346456692913,
                    "duration": 0.39039800416671255
                },
                {
                    "name": "G3",
                    "midi": 55,
                    "time": 184.99974100000074,
                    "velocity": 0.16535433070866143,
                    "duration": 0.36684731250002756
                },
                {
                    "name": "F3",
                    "midi": 53,
                    "time": 184.99974100000074,
                    "velocity": 0.16535433070866143,
                    "duration": 0.3623183333333486
                },
                {
                    "name": "G4",
                    "midi": 67,
                    "time": 184.99974100000074,
                    "velocity": 0.1732283464566929,
                    "duration": 0.3641299250000145
                },
                {
                    "name": "F4",
                    "midi": 65,
                    "time": 184.99974100000074,
                    "velocity": 0.1732283464566929,
                    "duration": 0.3623183333333486
                },
                {
                    "name": "B3",
                    "midi": 59,
                    "time": 185.2162262041674,
                    "velocity": 0.4881889763779528,
                    "duration": 0.9365928916666633
                },
                {
                    "name": "B2",
                    "midi": 47,
                    "time": 185.21713200000076,
                    "velocity": 0.4330708661417323,
                    "duration": 0.9528972166666563
                },
                {
                    "name": "G3",
                    "midi": 55,
                    "time": 185.43452300000078,
                    "velocity": 0.1889763779527559,
                    "duration": 0.4021733499999982
                },
                {
                    "name": "F3",
                    "midi": 53,
                    "time": 185.43452300000078,
                    "velocity": 0.1732283464566929,
                    "duration": 0.3958327791666534
                },
                {
                    "name": "G4",
                    "midi": 67,
                    "time": 185.43452300000078,
                    "velocity": 0.18110236220472442,
                    "duration": 0.39673857500000054
                },
                {
                    "name": "F4",
                    "midi": 65,
                    "time": 185.43452300000078,
                    "velocity": 0.18110236220472442,
                    "duration": 0.3922095958333216
                },
                {
                    "name": "G3",
                    "midi": 55,
                    "time": 185.86930500000076,
                    "velocity": 0.2204724409448819,
                    "duration": 0.37771686249996606
                },
                {
                    "name": "F3",
                    "midi": 53,
                    "time": 185.86930500000076,
                    "velocity": 0.2204724409448819,
                    "duration": 0.37590527083330016
                },
                {
                    "name": "G4",
                    "midi": 67,
                    "time": 185.86930500000076,
                    "velocity": 0.1889763779527559,
                    "duration": 0.3704704958333025
                },
                {
                    "name": "F4",
                    "midi": 65,
                    "time": 185.86930500000076,
                    "velocity": 0.1889763779527559,
                    "duration": 0.3668473124999707
                },
                {
                    "name": "A#3",
                    "midi": 58,
                    "time": 186.08669600000076,
                    "velocity": 0.25984251968503935,
                    "duration": 0.40760812499996746
                },
                {
                    "name": "A#2",
                    "midi": 46,
                    "time": 186.08669600000076,
                    "velocity": 0.3937007874015748,
                    "duration": 0.3885864124999614
                },
                {
                    "name": "G4",
                    "midi": 67,
                    "time": 186.30408700000072,
                    "velocity": 0.13385826771653545,
                    "duration": 0.2065214500000252
                },
                {
                    "name": "F4",
                    "midi": 65,
                    "time": 186.30408700000072,
                    "velocity": 0.14960629921259844,
                    "duration": 0.20470985833333089
                },
                {
                    "name": "G3",
                    "midi": 55,
                    "time": 186.30408700000072,
                    "velocity": 0.16535433070866143,
                    "duration": 0.20561565416667804
                },
                {
                    "name": "F3",
                    "midi": 53,
                    "time": 186.30408700000072,
                    "velocity": 0.14173228346456693,
                    "duration": 0.21014463333335698
                },
                {
                    "name": "A#3",
                    "midi": 58,
                    "time": 186.52147800000074,
                    "velocity": 0.3700787401574803,
                    "duration": 0.18025337083332715
                },
                {
                    "name": "A#2",
                    "midi": 46,
                    "time": 186.52147800000074,
                    "velocity": 0.3543307086614173,
                    "duration": 0.17572439166664822
                },
                {
                    "name": "B3",
                    "midi": 59,
                    "time": 186.66640533333407,
                    "velocity": 0.3228346456692913,
                    "duration": 0.19474610416665428
                },
                {
                    "name": "B2",
                    "midi": 47,
                    "time": 186.66640533333407,
                    "velocity": 0.3228346456692913,
                    "duration": 0.21829679583331085
                },
                {
                    "name": "A#3",
                    "midi": 58,
                    "time": 186.8113326666674,
                    "velocity": 0.31496062992125984,
                    "duration": 0.24184748749999585
                },
                {
                    "name": "A#2",
                    "midi": 46,
                    "time": 186.8113326666674,
                    "velocity": 0.31496062992125984,
                    "duration": 0.21739099999999212
                },
                {
                    "name": "F#2",
                    "midi": 42,
                    "time": 186.95626000000073,
                    "velocity": 0.2677165354330709,
                    "duration": 0.6068832083333575
                },
                {
                    "name": "F#3",
                    "midi": 54,
                    "time": 186.95626000000073,
                    "velocity": 0.3937007874015748,
                    "duration": 0.5869557000000043
                },
                {
                    "name": "F#3",
                    "midi": 54,
                    "time": 187.16278145000072,
                    "velocity": 0.25196850393700787,
                    "duration": 0.3976443708333477
                },
                {
                    "name": "C#4",
                    "midi": 61,
                    "time": 187.1673104291674,
                    "velocity": 0.28346456692913385,
                    "duration": 0.4094197166666902
                },
                {
                    "name": "F#4",
                    "midi": 66,
                    "time": 187.19086112083406,
                    "velocity": 0.2283464566929134,
                    "duration": 0.39220959583337844
                },
                {
                    "name": "G4",
                    "midi": 67,
                    "time": 187.20988283333406,
                    "velocity": 0.2992125984251969,
                    "duration": 0.37590527083338543
                },
                {
                    "name": "F#3",
                    "midi": 54,
                    "time": 187.6039040208341,
                    "velocity": 0.23622047244094488,
                    "duration": 0.35869515000001684
                },
                {
                    "name": "C#4",
                    "midi": 61,
                    "time": 187.61386777500078,
                    "velocity": 0.2677165354330709,
                    "duration": 0.35507196666668506
                },
                {
                    "name": "F#4",
                    "midi": 66,
                    "time": 187.62473732500078,
                    "velocity": 0.25984251968503935,
                    "duration": 0.35054298750003454
                },
                {
                    "name": "G4",
                    "midi": 67,
                    "time": 187.6392300583341,
                    "velocity": 0.25984251968503935,
                    "duration": 0.33061547916670975
                },
                {
                    "name": "F#1",
                    "midi": 30,
                    "time": 187.82582400000078,
                    "velocity": 0.33070866141732286,
                    "duration": 0.035326037499999074
                },
                {
                    "name": "F#3",
                    "midi": 54,
                    "time": 188.00064259583414,
                    "velocity": 0.2283464566929134,
                    "duration": 0.42210085833337985
                },
                {
                    "name": "C#4",
                    "midi": 61,
                    "time": 188.01422953333415,
                    "velocity": 0.2755905511811024,
                    "duration": 0.4166660833333822
                },
                {
                    "name": "F#4",
                    "midi": 66,
                    "time": 188.03143965416749,
                    "velocity": 0.28346456692913385,
                    "duration": 0.40398494166672094
                },
                {
                    "name": "C#2",
                    "midi": 37,
                    "time": 188.04321500000083,
                    "velocity": 0.41732283464566927,
                    "duration": 0.18206496250002147
                },
                {
                    "name": "F#2",
                    "midi": 42,
                    "time": 188.04321500000083,
                    "velocity": 0.4409448818897638,
                    "duration": 0.17572439166667664
                },
                {
                    "name": "G4",
                    "midi": 67,
                    "time": 188.04593238750084,
                    "velocity": 0.31496062992125984,
                    "duration": 0.3876806166666995
                },
                {
                    "name": "F#1",
                    "midi": 30,
                    "time": 188.26060600000085,
                    "velocity": 0.30708661417322836,
                    "duration": 0.04710138333334157
                },
                {
                    "name": "F#4",
                    "midi": 66,
                    "time": 188.47256222500087,
                    "velocity": 0.1968503937007874,
                    "duration": 0.37499947500000985
                },
                {
                    "name": "G4",
                    "midi": 67,
                    "time": 188.47346802083422,
                    "velocity": 0.29133858267716534,
                    "duration": 0.37499947500000985
                },
                {
                    "name": "C#4",
                    "midi": 61,
                    "time": 188.48162018333423,
                    "velocity": 0.29133858267716534,
                    "duration": 0.365941516666652
                },
                {
                    "name": "F#3",
                    "midi": 54,
                    "time": 188.4834317750009,
                    "velocity": 0.25984251968503935,
                    "duration": 0.3641299249999861
                },
                {
                    "name": "F#1",
                    "midi": 30,
                    "time": 188.6953880000009,
                    "velocity": 0.3858267716535433,
                    "duration": 0.038949220833330855
                },
                {
                    "name": "G4",
                    "midi": 67,
                    "time": 188.90100365416757,
                    "velocity": 0.2992125984251969,
                    "duration": 0.39039800416668413
                },
                {
                    "name": "F#4",
                    "midi": 66,
                    "time": 188.90190945000091,
                    "velocity": 0.2755905511811024,
                    "duration": 0.39311539166666876
                },
                {
                    "name": "C#4",
                    "midi": 61,
                    "time": 188.90281524583426,
                    "velocity": 0.2755905511811024,
                    "duration": 0.38315163749999215
                },
                {
                    "name": "F#3",
                    "midi": 54,
                    "time": 188.9091558166676,
                    "velocity": 0.2283464566929134,
                    "duration": 0.3668473124999707
                },
                {
                    "name": "C#2",
                    "midi": 37,
                    "time": 188.91277900000094,
                    "velocity": 0.4881889763779528,
                    "duration": 0.06340570833333459
                },
                {
                    "name": "F#2",
                    "midi": 42,
                    "time": 188.91277900000094,
                    "velocity": 0.5354330708661418,
                    "duration": 0.059782525000002806
                },
                {
                    "name": "F#1",
                    "midi": 30,
                    "time": 189.13017000000093,
                    "velocity": 0.2440944881889764,
                    "duration": 0.028985466666654247
                },
                {
                    "name": "C#2",
                    "midi": 37,
                    "time": 189.34756100000092,
                    "velocity": 0.29133858267716534,
                    "duration": 0.050724566666673354
                },
                {
                    "name": "F#2",
                    "midi": 42,
                    "time": 189.34756100000092,
                    "velocity": 0.3779527559055118,
                    "duration": 0.038949220833330855
                },
                {
                    "name": "G4",
                    "midi": 67,
                    "time": 189.34756100000092,
                    "velocity": 0.25196850393700787,
                    "duration": 0.3867748208333808
                },
                {
                    "name": "F#4",
                    "midi": 66,
                    "time": 189.34756100000092,
                    "velocity": 0.2125984251968504,
                    "duration": 0.3931153916667256
                },
                {
                    "name": "C#4",
                    "midi": 61,
                    "time": 189.34756100000092,
                    "velocity": 0.2755905511811024,
                    "duration": 0.3849632291667149
                },
                {
                    "name": "F#3",
                    "midi": 54,
                    "time": 189.34756100000092,
                    "velocity": 0.14960629921259844,
                    "duration": 0.38224584166670184
                },
                {
                    "name": "F#1",
                    "midi": 30,
                    "time": 189.56495200000094,
                    "velocity": 0.28346456692913385,
                    "duration": 0.031702854166667294
                },
                {
                    "name": "G4",
                    "midi": 67,
                    "time": 189.782343000001,
                    "velocity": 0.30708661417322836,
                    "duration": 0.38677482083332393
                },
                {
                    "name": "F#4",
                    "midi": 66,
                    "time": 189.782343000001,
                    "velocity": 0.28346456692913385,
                    "duration": 0.389492208333337
                },
                {
                    "name": "C#4",
                    "midi": 61,
                    "time": 189.782343000001,
                    "velocity": 0.30708661417322836,
                    "duration": 0.3885864124999898
                },
                {
                    "name": "F#3",
                    "midi": 54,
                    "time": 189.782343000001,
                    "velocity": 0.23622047244094488,
                    "duration": 0.38315163749999215
                },
                {
                    "name": "F#1",
                    "midi": 30,
                    "time": 189.99973400000098,
                    "velocity": 0.3700787401574803,
                    "duration": 0.03804342500001212
                },
                {
                    "name": "C#2",
                    "midi": 37,
                    "time": 190.217125000001,
                    "velocity": 0.4094488188976378,
                    "duration": 0.052536158333339245
                },
                {
                    "name": "F#2",
                    "midi": 42,
                    "time": 190.217125000001,
                    "velocity": 0.4881889763779528,
                    "duration": 0.0416666083333439
                },
                {
                    "name": "G4",
                    "midi": 67,
                    "time": 190.217125000001,
                    "velocity": 0.3543307086614173,
                    "duration": 0.36684731249999913
                },
                {
                    "name": "F#4",
                    "midi": 66,
                    "time": 190.217125000001,
                    "velocity": 0.2677165354330709,
                    "duration": 0.3695647000000122
                },
                {
                    "name": "C#4",
                    "midi": 61,
                    "time": 190.217125000001,
                    "velocity": 0.23622047244094488,
                    "duration": 0.365941516666652
                },
                {
                    "name": "F#3",
                    "midi": 54,
                    "time": 190.217125000001,
                    "velocity": 0.2204724409448819,
                    "duration": 0.3586951499999884
                },
                {
                    "name": "F#1",
                    "midi": 30,
                    "time": 190.434516000001,
                    "velocity": 0.36220472440944884,
                    "duration": 0.030797058333320138
                },
                {
                    "name": "G4",
                    "midi": 67,
                    "time": 190.65190700000102,
                    "velocity": 0.33070866141732286,
                    "duration": 0.37862265833334163
                },
                {
                    "name": "F#4",
                    "midi": 66,
                    "time": 190.65190700000102,
                    "velocity": 0.29133858267716534,
                    "duration": 0.37862265833334163
                },
                {
                    "name": "C#4",
                    "midi": 61,
                    "time": 190.65190700000102,
                    "velocity": 0.31496062992125984,
                    "duration": 0.3722820874999968
                },
                {
                    "name": "F#3",
                    "midi": 54,
                    "time": 190.65190700000102,
                    "velocity": 0.30708661417322836,
                    "duration": 0.36503572083333324
                },
                {
                    "name": "F#1",
                    "midi": 30,
                    "time": 190.869298000001,
                    "velocity": 0.33070866141732286,
                    "duration": 0.03623183333334623
                },
                {
                    "name": "C#2",
                    "midi": 37,
                    "time": 191.08668900000103,
                    "velocity": 0.44881889763779526,
                    "duration": 0.06249991250001585
                },
                {
                    "name": "F#2",
                    "midi": 42,
                    "time": 191.08668900000103,
                    "velocity": 0.47244094488188976,
                    "duration": 0.057970933333336916
                },
                {
                    "name": "G4",
                    "midi": 67,
                    "time": 191.08668900000103,
                    "velocity": 0.30708661417322836,
                    "duration": 0.3740936791666911
                },
                {
                    "name": "F#4",
                    "midi": 66,
                    "time": 191.08668900000103,
                    "velocity": 0.31496062992125984,
                    "duration": 0.375905270833357
                },
                {
                    "name": "C#4",
                    "midi": 61,
                    "time": 191.08668900000103,
                    "velocity": 0.3543307086614173,
                    "duration": 0.36865890416669345
                },
                {
                    "name": "F#3",
                    "midi": 54,
                    "time": 191.08668900000103,
                    "velocity": 0.29133858267716534,
                    "duration": 0.35869515000001684
                },
                {
                    "name": "F#1",
                    "midi": 30,
                    "time": 191.30408000000105,
                    "velocity": 0.33070866141732286,
                    "duration": 0.028985466666654247
                },
                {
                    "name": "C#2",
                    "midi": 37,
                    "time": 191.52147100000104,
                    "velocity": 0.31496062992125984,
                    "duration": 0.04528979166667568
                },
                {
                    "name": "F#2",
                    "midi": 42,
                    "time": 191.52147100000104,
                    "velocity": 0.4015748031496063,
                    "duration": 0.0416666083333439
                },
                {
                    "name": "G4",
                    "midi": 67,
                    "time": 191.52147100000104,
                    "velocity": 0.49606299212598426,
                    "duration": 0.36865890416669345
                },
                {
                    "name": "F#4",
                    "midi": 66,
                    "time": 191.52147100000104,
                    "velocity": 0.36220472440944884,
                    "duration": 0.37409367916671954
                },
                {
                    "name": "C#4",
                    "midi": 61,
                    "time": 191.52147100000104,
                    "velocity": 0.3858267716535433,
                    "duration": 0.3713762916667065
                },
                {
                    "name": "F#3",
                    "midi": 54,
                    "time": 191.52147100000104,
                    "velocity": 0.25196850393700787,
                    "duration": 0.3659415166666804
                },
                {
                    "name": "F#1",
                    "midi": 30,
                    "time": 191.73886200000106,
                    "velocity": 0.3937007874015748,
                    "duration": 0.042572404166662636
                },
                {
                    "name": "G4",
                    "midi": 67,
                    "time": 191.95625300000108,
                    "velocity": 0.5433070866141733,
                    "duration": 0.3840574333333109
                },
                {
                    "name": "F#4",
                    "midi": 66,
                    "time": 191.95625300000108,
                    "velocity": 0.41732283464566927,
                    "duration": 0.3885864124999898
                },
                {
                    "name": "C#4",
                    "midi": 61,
                    "time": 191.95625300000108,
                    "velocity": 0.4881889763779528,
                    "duration": 0.38134004583329784
                },
                {
                    "name": "F#3",
                    "midi": 54,
                    "time": 191.95625300000108,
                    "velocity": 0.3700787401574803,
                    "duration": 0.3840574333333109
                },
                {
                    "name": "F#1",
                    "midi": 30,
                    "time": 192.17364400000108,
                    "velocity": 0.4094488188976378,
                    "duration": 0.03260864999998603
                },
                {
                    "name": "C#2",
                    "midi": 37,
                    "time": 192.39103500000107,
                    "velocity": 0.4881889763779528,
                    "duration": 0.0416666083333439
                },
                {
                    "name": "G4",
                    "midi": 67,
                    "time": 192.39103500000107,
                    "velocity": 0.5354330708661418,
                    "duration": 0.36865890416669345
                },
                {
                    "name": "F#4",
                    "midi": 66,
                    "time": 192.39103500000107,
                    "velocity": 0.3937007874015748,
                    "duration": 0.3840574333333677
                },
                {
                    "name": "C#4",
                    "midi": 61,
                    "time": 192.39103500000107,
                    "velocity": 0.4566929133858268,
                    "duration": 0.3867748208333808
                },
                {
                    "name": "F#3",
                    "midi": 54,
                    "time": 192.39103500000107,
                    "velocity": 0.3937007874015748,
                    "duration": 0.38768061666672793
                },
                {
                    "name": "F#2",
                    "midi": 42,
                    "time": 192.6084260000011,
                    "velocity": 0.5984251968503937,
                    "duration": 0.042572404166662636
                },
                {
                    "name": "C#3",
                    "midi": 49,
                    "time": 192.82581700000114,
                    "velocity": 0.4881889763779528,
                    "duration": 0.037137629166664965
                },
                {
                    "name": "G4",
                    "midi": 67,
                    "time": 192.82581700000114,
                    "velocity": 0.5590551181102362,
                    "duration": 0.3840574333333393
                },
                {
                    "name": "F#4",
                    "midi": 66,
                    "time": 192.82581700000114,
                    "velocity": 0.4566929133858268,
                    "duration": 0.38858641250001824
                },
                {
                    "name": "C#4",
                    "midi": 61,
                    "time": 192.82581700000114,
                    "velocity": 0.49606299212598426,
                    "duration": 0.3876806166666711
                },
                {
                    "name": "F#3",
                    "midi": 54,
                    "time": 192.82581700000114,
                    "velocity": 0.3700787401574803,
                    "duration": 0.38134004583332626
                },
                {
                    "name": "C#2",
                    "midi": 37,
                    "time": 193.04320800000113,
                    "velocity": 0.7007874015748031,
                    "duration": 0.03442024166668034
                },
                {
                    "name": "F#2",
                    "midi": 42,
                    "time": 193.26059900000115,
                    "velocity": 0.6299212598425197,
                    "duration": 0.04710138333334157
                },
                {
                    "name": "G4",
                    "midi": 67,
                    "time": 193.26059900000115,
                    "velocity": 0.5748031496062992,
                    "duration": 0.3840574333333393
                },
                {
                    "name": "F#4",
                    "midi": 66,
                    "time": 193.26059900000115,
                    "velocity": 0.44881889763779526,
                    "duration": 0.3931153916666972
                },
                {
                    "name": "C#4",
                    "midi": 61,
                    "time": 193.26059900000115,
                    "velocity": 0.47244094488188976,
                    "duration": 0.3913038000000313
                },
                {
                    "name": "F#3",
                    "midi": 54,
                    "time": 193.26059900000115,
                    "velocity": 0.30708661417322836,
                    "duration": 0.39039800416668413
                },
                {
                    "name": "C#3",
                    "midi": 49,
                    "time": 193.47799000000117,
                    "velocity": 0.6299212598425197,
                    "duration": 0.038949220833330855
                },
                {
                    "name": "F#3",
                    "midi": 54,
                    "time": 193.6953810000012,
                    "velocity": 0.6299212598425197,
                    "duration": 0.04347820000000979
                },
                {
                    "name": "G4",
                    "midi": 67,
                    "time": 193.6953810000012,
                    "velocity": 0.5984251968503937,
                    "duration": 0.12499982500000328
                },
                {
                    "name": "F#4",
                    "midi": 66,
                    "time": 193.6953810000012,
                    "velocity": 0.44881889763779526,
                    "duration": 0.12952880416668222
                },
                {
                    "name": "C#4",
                    "midi": 61,
                    "time": 193.6953810000012,
                    "velocity": 0.5984251968503937,
                    "duration": 0.1213766416666715
                },
                {
                    "name": "F#3",
                    "midi": 54,
                    "time": 193.6953810000012,
                    "velocity": 0.4409448818897638,
                    "duration": 0.13224619166669527
                },
                {
                    "name": "F#2",
                    "midi": 42,
                    "time": 193.9127720000012,
                    "velocity": 0.7322834645669292,
                    "duration": 0.10869550000001027
                },
                {
                    "name": "F#3",
                    "midi": 54,
                    "time": 194.02146750000122,
                    "velocity": 0.7007874015748031,
                    "duration": 0.10869550000001027
                },
                {
                    "name": "F#3",
                    "midi": 54,
                    "time": 194.13016300000123,
                    "velocity": 0.7322834645669292,
                    "duration": 0.10869550000001027
                },
                {
                    "name": "F#4",
                    "midi": 66,
                    "time": 194.23885850000124,
                    "velocity": 0.7716535433070866,
                    "duration": 0.10869550000001027
                },
                {
                    "name": "F#2",
                    "midi": 42,
                    "time": 194.34755400000125,
                    "velocity": 0.6299212598425197,
                    "duration": 0.10869550000001027
                },
                {
                    "name": "F#3",
                    "midi": 54,
                    "time": 194.45624950000126,
                    "velocity": 0.47244094488188976,
                    "duration": 0.10869550000001027
                },
                {
                    "name": "F#3",
                    "midi": 54,
                    "time": 194.56494500000127,
                    "velocity": 0.7007874015748031,
                    "duration": 0.10869550000001027
                },
                {
                    "name": "F#4",
                    "midi": 66,
                    "time": 194.67364050000128,
                    "velocity": 0.6299212598425197,
                    "duration": 0.10869550000001027
                },
                {
                    "name": "F#4",
                    "midi": 66,
                    "time": 194.7823360000013,
                    "velocity": 0.5669291338582677,
                    "duration": 0.10869549999998185
                },
                {
                    "name": "F#5",
                    "midi": 78,
                    "time": 194.89103150000128,
                    "velocity": 0.7322834645669292,
                    "duration": 0.10869550000001027
                },
                {
                    "name": "F#3",
                    "midi": 54,
                    "time": 194.9997270000013,
                    "velocity": 0.5984251968503937,
                    "duration": 0.10869550000001027
                },
                {
                    "name": "F#4",
                    "midi": 66,
                    "time": 195.1084225000013,
                    "velocity": 0.5669291338582677,
                    "duration": 0.10869550000001027
                },
                {
                    "name": "F#4",
                    "midi": 66,
                    "time": 195.2171180000013,
                    "velocity": 0.6692913385826772,
                    "duration": 0.10869550000001027
                },
                {
                    "name": "F#5",
                    "midi": 78,
                    "time": 195.32581350000132,
                    "velocity": 0.7007874015748031,
                    "duration": 0.10869550000001027
                },
                {
                    "name": "F#5",
                    "midi": 78,
                    "time": 195.43450900000133,
                    "velocity": 0.5984251968503937,
                    "duration": 0.10869550000001027
                },
                {
                    "name": "F#6",
                    "midi": 90,
                    "time": 195.54320450000134,
                    "velocity": 0.8031496062992126,
                    "duration": 0.10869549999998185
                },
                {
                    "name": "F#4",
                    "midi": 66,
                    "time": 195.65190000000132,
                    "velocity": 0.5039370078740157,
                    "duration": 0.10869549999998185
                },
                {
                    "name": "F#5",
                    "midi": 78,
                    "time": 195.7605955000013,
                    "velocity": 0.6299212598425197,
                    "duration": 0.10869550000001027
                },
                {
                    "name": "F#5",
                    "midi": 78,
                    "time": 195.8692910000013,
                    "velocity": 0.5669291338582677,
                    "duration": 0.10869550000001027
                },
                {
                    "name": "F#6",
                    "midi": 90,
                    "time": 195.97798650000132,
                    "velocity": 0.6299212598425197,
                    "duration": 0.10869550000001027
                },
                {
                    "name": "F#6",
                    "midi": 90,
                    "time": 196.08668200000133,
                    "velocity": 0.6692913385826772,
                    "duration": 0.10869550000001027
                },
                {
                    "name": "F#7",
                    "midi": 102,
                    "time": 196.19537750000134,
                    "velocity": 0.7007874015748031,
                    "duration": 0.10869550000001027
                },
                {
                    "name": "F5",
                    "midi": 77,
                    "time": 196.2316093333347,
                    "velocity": 0.6377952755905512,
                    "duration": 0.43478199999998424
                },
                {
                    "name": "G5",
                    "midi": 79,
                    "time": 196.24972525000135,
                    "velocity": 0.6377952755905512,
                    "duration": 0.43478199999998424
                },
                {
                    "name": "B5",
                    "midi": 83,
                    "time": 196.267841166668,
                    "velocity": 0.6377952755905512,
                    "duration": 0.43478199999998424
                },
                {
                    "name": "D6",
                    "midi": 86,
                    "time": 196.2859570833347,
                    "velocity": 0.6377952755905512,
                    "duration": 0.4347819999999558
                },
                {
                    "name": "G6",
                    "midi": 91,
                    "time": 196.30407300000135,
                    "velocity": 0.6141732283464567,
                    "duration": 0.4347819999999558
                },
                {
                    "name": "A2",
                    "midi": 45,
                    "time": 196.30407300000135,
                    "velocity": 0.6141732283464567,
                    "duration": 0.019927508333324795
                },
                {
                    "name": "A3",
                    "midi": 57,
                    "time": 196.52146400000134,
                    "velocity": 0.5826771653543307,
                    "duration": 0.02264489583333784
                },
                {
                    "name": "A6",
                    "midi": 93,
                    "time": 196.7388550000013,
                    "velocity": 0.5196850393700787,
                    "duration": 0.054347750000005135
                },
                {
                    "name": "A3",
                    "midi": 57,
                    "time": 196.7388550000013,
                    "velocity": 0.5196850393700787,
                    "duration": 0.03623183333334623
                },
                {
                    "name": "G6",
                    "midi": 91,
                    "time": 196.7932027500013,
                    "velocity": 0.5196850393700787,
                    "duration": 0.054347750000005135
                },
                {
                    "name": "F#6",
                    "midi": 90,
                    "time": 196.84755050000132,
                    "velocity": 0.49606299212598426,
                    "duration": 0.054347750000005135
                },
                {
                    "name": "G6",
                    "midi": 91,
                    "time": 196.90189825000132,
                    "velocity": 0.49606299212598426,
                    "duration": 0.054347750000005135
                },
                {
                    "name": "A4",
                    "midi": 69,
                    "time": 196.95624600000133,
                    "velocity": 0.4645669291338583,
                    "duration": 0.03804342500001212
                },
                {
                    "name": "B5",
                    "midi": 83,
                    "time": 197.10117333333469,
                    "velocity": 0.4881889763779528,
                    "duration": 0.6521729999999479
                },
                {
                    "name": "C#6",
                    "midi": 85,
                    "time": 197.11928925000134,
                    "velocity": 0.4881889763779528,
                    "duration": 0.6521729999999479
                },
                {
                    "name": "E6",
                    "midi": 88,
                    "time": 197.137405166668,
                    "velocity": 0.4645669291338583,
                    "duration": 0.6521729999999479
                },
                {
                    "name": "G6",
                    "midi": 91,
                    "time": 197.15552108333466,
                    "velocity": 0.4645669291338583,
                    "duration": 0.6521729999999479
                },
                {
                    "name": "B6",
                    "midi": 95,
                    "time": 197.17363700000132,
                    "velocity": 0.4645669291338583,
                    "duration": 0.6521729999999479
                },
                {
                    "name": "A3",
                    "midi": 57,
                    "time": 197.17363700000132,
                    "velocity": 0.4645669291338583,
                    "duration": 0.027173874999988357
                },
                {
                    "name": "A3",
                    "midi": 57,
                    "time": 197.3910280000013,
                    "velocity": 0.3779527559055118,
                    "duration": 0.029891262500001403
                },
                {
                    "name": "A2",
                    "midi": 45,
                    "time": 197.6084190000013,
                    "velocity": 0.3543307086614173,
                    "duration": 0.038949220833330855
                },
                {
                    "name": "G5",
                    "midi": 79,
                    "time": 197.75334633333463,
                    "velocity": 0.3543307086614173,
                    "duration": 0.43478199999998424
                },
                {
                    "name": "A5",
                    "midi": 81,
                    "time": 197.7714622500013,
                    "velocity": 0.3543307086614173,
                    "duration": 0.43478199999998424
                },
                {
                    "name": "C#6",
                    "midi": 85,
                    "time": 197.78957816666795,
                    "velocity": 0.3543307086614173,
                    "duration": 0.43478199999998424
                },
                {
                    "name": "E6",
                    "midi": 88,
                    "time": 197.8076940833346,
                    "velocity": 0.3543307086614173,
                    "duration": 0.43478199999998424
                },
                {
                    "name": "A6",
                    "midi": 93,
                    "time": 197.82581000000127,
                    "velocity": 0.3543307086614173,
                    "duration": 0.43478199999998424
                },
                {
                    "name": "A3",
                    "midi": 57,
                    "time": 197.82581000000127,
                    "velocity": 0.3543307086614173,
                    "duration": 0.023550691666656576
                },
                {
                    "name": "A2",
                    "midi": 45,
                    "time": 198.04320100000126,
                    "velocity": 0.3464566929133858,
                    "duration": 0.03442024166668034
                },
                {
                    "name": "C5",
                    "midi": 72,
                    "time": 198.18812833333462,
                    "velocity": 0.3858267716535433,
                    "duration": 0.43478199999998424
                },
                {
                    "name": "D5",
                    "midi": 74,
                    "time": 198.20624425000128,
                    "velocity": 0.3858267716535433,
                    "duration": 0.43478199999998424
                },
                {
                    "name": "F#5",
                    "midi": 78,
                    "time": 198.22436016666794,
                    "velocity": 0.4015748031496063,
                    "duration": 0.43478199999998424
                },
                {
                    "name": "A5",
                    "midi": 81,
                    "time": 198.2424760833346,
                    "velocity": 0.4015748031496063,
                    "duration": 0.43478199999998424
                },
                {
                    "name": "D6",
                    "midi": 86,
                    "time": 198.26059200000125,
                    "velocity": 0.4094488188976378,
                    "duration": 0.43478199999998424
                },
                {
                    "name": "F#3",
                    "midi": 54,
                    "time": 198.26059200000125,
                    "velocity": 0.4094488188976378,
                    "duration": 0.056159341666671025
                },
                {
                    "name": "F#4",
                    "midi": 66,
                    "time": 198.47798300000127,
                    "velocity": 0.3937007874015748,
                    "duration": 0.027173874999988357
                },
                {
                    "name": "E6",
                    "midi": 88,
                    "time": 198.69537400000124,
                    "velocity": 0.3858267716535433,
                    "duration": 0.05434774999997671
                },
                {
                    "name": "F#4",
                    "midi": 66,
                    "time": 198.69537400000124,
                    "velocity": 0.3858267716535433,
                    "duration": 0.030797058333320138
                },
                {
                    "name": "D6",
                    "midi": 86,
                    "time": 198.7497217500012,
                    "velocity": 0.3858267716535433,
                    "duration": 0.054347750000005135
                },
                {
                    "name": "C#6",
                    "midi": 85,
                    "time": 198.80406950000122,
                    "velocity": 0.3858267716535433,
                    "duration": 0.054347750000005135
                },
                {
                    "name": "D6",
                    "midi": 86,
                    "time": 198.85841725000122,
                    "velocity": 0.3779527559055118,
                    "duration": 0.054347750000005135
                },
                {
                    "name": "F#5",
                    "midi": 78,
                    "time": 198.91276500000123,
                    "velocity": 0.3779527559055118,
                    "duration": 0.054347750000005135
                },
                {
                    "name": "E5",
                    "midi": 76,
                    "time": 199.05769233333456,
                    "velocity": 0.3543307086614173,
                    "duration": 0.6521729999999479
                },
                {
                    "name": "G#5",
                    "midi": 80,
                    "time": 199.07580825000122,
                    "velocity": 0.3543307086614173,
                    "duration": 0.6521729999999479
                },
                {
                    "name": "A#5",
                    "midi": 82,
                    "time": 199.09392416666788,
                    "velocity": 0.3543307086614173,
                    "duration": 0.6521729999999479
                },
                {
                    "name": "C#6",
                    "midi": 85,
                    "time": 199.11204008333453,
                    "velocity": 0.3543307086614173,
                    "duration": 0.6521729999999479
                },
                {
                    "name": "F#6",
                    "midi": 90,
                    "time": 199.1301560000012,
                    "velocity": 0.3543307086614173,
                    "duration": 0.6521729999999479
                },
                {
                    "name": "F#4",
                    "midi": 66,
                    "time": 199.1301560000012,
                    "velocity": 0.3543307086614173,
                    "duration": 0.030797058333320138
                },
                {
                    "name": "F#4",
                    "midi": 66,
                    "time": 199.34754700000116,
                    "velocity": 0.33858267716535434,
                    "duration": 0.035326037499999074
                },
                {
                    "name": "F#3",
                    "midi": 54,
                    "time": 199.56493800000115,
                    "velocity": 0.33858267716535434,
                    "duration": 0.0416666083333439
                },
                {
                    "name": "D5",
                    "midi": 74,
                    "time": 199.7098653333345,
                    "velocity": 0.33858267716535434,
                    "duration": 0.43478200000001266
                },
                {
                    "name": "E5",
                    "midi": 76,
                    "time": 199.72798125000116,
                    "velocity": 0.33858267716535434,
                    "duration": 0.43478200000001266
                },
                {
                    "name": "G#5",
                    "midi": 80,
                    "time": 199.74609716666782,
                    "velocity": 0.3228346456692913,
                    "duration": 0.43478200000001266
                },
                {
                    "name": "B5",
                    "midi": 83,
                    "time": 199.76421308333448,
                    "velocity": 0.3228346456692913,
                    "duration": 0.43478200000001266
                },
                {
                    "name": "E6",
                    "midi": 88,
                    "time": 199.78232900000114,
                    "velocity": 0.3228346456692913,
                    "duration": 0.43478200000001266
                },
                {
                    "name": "F#4",
                    "midi": 66,
                    "time": 199.78232900000114,
                    "velocity": 0.3228346456692913,
                    "duration": 0.029891262500001403
                },
                {
                    "name": "F#3",
                    "midi": 54,
                    "time": 199.99972000000116,
                    "velocity": 0.33070866141732286,
                    "duration": 0.03442024166668034
                },
                {
                    "name": "G4",
                    "midi": 67,
                    "time": 200.14464733333452,
                    "velocity": 0.33070866141732286,
                    "duration": 0.4347819999999558
                },
                {
                    "name": "A4",
                    "midi": 69,
                    "time": 200.16276325000118,
                    "velocity": 0.33070866141732286,
                    "duration": 0.4347819999999558
                },
                {
                    "name": "C#5",
                    "midi": 73,
                    "time": 200.18087916666784,
                    "velocity": 0.33070866141732286,
                    "duration": 0.4347819999999558
                },
                {
                    "name": "E5",
                    "midi": 76,
                    "time": 200.1989950833345,
                    "velocity": 0.33070866141732286,
                    "duration": 0.4347819999999558
                },
                {
                    "name": "A5",
                    "midi": 81,
                    "time": 200.21711100000115,
                    "velocity": 0.33070866141732286,
                    "duration": 0.4347819999999558
                },
                {
                    "name": "F#2",
                    "midi": 42,
                    "time": 200.21711100000115,
                    "velocity": 0.33070866141732286,
                    "duration": 0.06340570833333459
                },
                {
                    "name": "F#3",
                    "midi": 54,
                    "time": 200.43450200000115,
                    "velocity": 0.4015748031496063,
                    "duration": 0.06068832083332154
                },
                {
                    "name": "B5",
                    "midi": 83,
                    "time": 200.6518930000011,
                    "velocity": 0.3858267716535433,
                    "duration": 0.054347750000005135
                },
                {
                    "name": "F#3",
                    "midi": 54,
                    "time": 200.6518930000011,
                    "velocity": 0.3858267716535433,
                    "duration": 0.035326037499999074
                },
                {
                    "name": "A5",
                    "midi": 81,
                    "time": 200.70624075000111,
                    "velocity": 0.4015748031496063,
                    "duration": 0.054347750000005135
                },
                {
                    "name": "G#5",
                    "midi": 80,
                    "time": 200.76058850000112,
                    "velocity": 0.3858267716535433,
                    "duration": 0.054347750000005135
                },
                {
                    "name": "A5",
                    "midi": 81,
                    "time": 200.81493625000113,
                    "velocity": 0.3700787401574803,
                    "duration": 0.054347750000005135
                },
                {
                    "name": "F#4",
                    "midi": 66,
                    "time": 200.86928400000113,
                    "velocity": 0.36220472440944884,
                    "duration": 0.048912975000007464
                },
                {
                    "name": "A#4",
                    "midi": 70,
                    "time": 201.03232725000115,
                    "velocity": 0.33070866141732286,
                    "duration": 0.6521729999999479
                },
                {
                    "name": "E5",
                    "midi": 76,
                    "time": 201.0504431666678,
                    "velocity": 0.33070866141732286,
                    "duration": 0.6521729999999479
                },
                {
                    "name": "G#5",
                    "midi": 80,
                    "time": 201.06855908333446,
                    "velocity": 0.33070866141732286,
                    "duration": 0.6521729999999479
                },
                {
                    "name": "C#6",
                    "midi": 85,
                    "time": 201.08667500000112,
                    "velocity": 0.33070866141732286,
                    "duration": 0.6521729999999479
                },
                {
                    "name": "F#3",
                    "midi": 54,
                    "time": 201.08667500000112,
                    "velocity": 0.33070866141732286,
                    "duration": 0.06521730000000048
                },
                {
                    "name": "F#3",
                    "midi": 54,
                    "time": 201.30406600000111,
                    "velocity": 0.30708661417322836,
                    "duration": 0.056159341666671025
                },
                {
                    "name": "F#2",
                    "midi": 42,
                    "time": 201.5214570000011,
                    "velocity": 0.2992125984251969,
                    "duration": 0.07427525833332993
                },
                {
                    "name": "A4",
                    "midi": 69,
                    "time": 201.66638433333443,
                    "velocity": 0.29133858267716534,
                    "duration": 0.4347819999999558
                },
                {
                    "name": "B4",
                    "midi": 71,
                    "time": 201.6845002500011,
                    "velocity": 0.29133858267716534,
                    "duration": 0.4347819999999558
                },
                {
                    "name": "D#5",
                    "midi": 75,
                    "time": 201.70261616666775,
                    "velocity": 0.29133858267716534,
                    "duration": 0.4347819999999558
                },
                {
                    "name": "F#5",
                    "midi": 78,
                    "time": 201.7207320833344,
                    "velocity": 0.29133858267716534,
                    "duration": 0.4347819999999558
                },
                {
                    "name": "B5",
                    "midi": 83,
                    "time": 201.73884800000107,
                    "velocity": 0.29133858267716534,
                    "duration": 0.4347819999999558
                },
                {
                    "name": "F#3",
                    "midi": 54,
                    "time": 201.73884800000107,
                    "velocity": 0.29133858267716534,
                    "duration": 0.07427525833332993
                },
                {
                    "name": "F#2",
                    "midi": 42,
                    "time": 201.95623900000106,
                    "velocity": 0.29133858267716534,
                    "duration": 0.06521730000000048
                },
                {
                    "name": "C4",
                    "midi": 60,
                    "time": 202.1011663333344,
                    "velocity": 0.2992125984251969,
                    "duration": 0.4347819999999558
                },
                {
                    "name": "D4",
                    "midi": 62,
                    "time": 202.11928225000105,
                    "velocity": 0.28346456692913385,
                    "duration": 0.4347819999999558
                },
                {
                    "name": "F#4",
                    "midi": 66,
                    "time": 202.1373981666677,
                    "velocity": 0.2440944881889764,
                    "duration": 0.4347819999999558
                },
                {
                    "name": "A4",
                    "midi": 69,
                    "time": 202.15551408333437,
                    "velocity": 0.2677165354330709,
                    "duration": 0.4347819999999558
                },
                {
                    "name": "F#1",
                    "midi": 30,
                    "time": 202.17363000000103,
                    "velocity": 0.15748031496062992,
                    "duration": 0.12590562083332202
                },
                {
                    "name": "D5",
                    "midi": 74,
                    "time": 202.17363000000103,
                    "velocity": 0.31496062992125984,
                    "duration": 0.4347819999999558
                },
                {
                    "name": "F#2",
                    "midi": 42,
                    "time": 202.39102100000102,
                    "velocity": 0.2755905511811024,
                    "duration": 0.10235492916666544
                },
                {
                    "name": "E5",
                    "midi": 76,
                    "time": 202.60841200000098,
                    "velocity": 0.29133858267716534,
                    "duration": 0.054347750000005135
                },
                {
                    "name": "F#3",
                    "midi": 54,
                    "time": 202.60841200000098,
                    "velocity": 0.29133858267716534,
                    "duration": 0.08152162499999349
                },
                {
                    "name": "D5",
                    "midi": 74,
                    "time": 202.662759750001,
                    "velocity": 0.29133858267716534,
                    "duration": 0.05434774999997671
                },
                {
                    "name": "C#5",
                    "midi": 73,
                    "time": 202.71710750000096,
                    "velocity": 0.29133858267716534,
                    "duration": 0.054347750000005135
                },
                {
                    "name": "D5",
                    "midi": 74,
                    "time": 202.77145525000097,
                    "velocity": 0.30708661417322836,
                    "duration": 0.054347750000005135
                },
                {
                    "name": "F#2",
                    "midi": 42,
                    "time": 202.82580300000097,
                    "velocity": 0.30708661417322836,
                    "duration": 0.08605060416667243
                },
                {
                    "name": "F#3",
                    "midi": 54,
                    "time": 203.04319400000097,
                    "velocity": 0.2677165354330709,
                    "duration": 0.09420276666665472
                },
                {
                    "name": "E4",
                    "midi": 64,
                    "time": 203.1881213333343,
                    "velocity": 0.25196850393700787,
                    "duration": 0.8695639999999969
                },
                {
                    "name": "G#4",
                    "midi": 68,
                    "time": 203.20623725000095,
                    "velocity": 0.25196850393700787,
                    "duration": 0.8695639999999969
                },
                {
                    "name": "A#4",
                    "midi": 70,
                    "time": 203.2243531666676,
                    "velocity": 0.25196850393700787,
                    "duration": 0.8695639999999969
                },
                {
                    "name": "C#5",
                    "midi": 73,
                    "time": 203.24246908333427,
                    "velocity": 0.2677165354330709,
                    "duration": 0.8695639999999969
                },
                {
                    "name": "F#5",
                    "midi": 78,
                    "time": 203.26058500000093,
                    "velocity": 0.2677165354330709,
                    "duration": 0.8695639999999969
                },
                {
                    "name": "F#3",
                    "midi": 54,
                    "time": 203.26058500000093,
                    "velocity": 0.2677165354330709,
                    "duration": 0.05706513749998976
                },
                {
                    "name": "F#4",
                    "midi": 66,
                    "time": 203.47797600000092,
                    "velocity": 0.25196850393700787,
                    "duration": 0.1295288041666538
                },
                {
                    "name": "F#3",
                    "midi": 54,
                    "time": 203.6953670000009,
                    "velocity": 0.2204724409448819,
                    "duration": 0.08423901250000654
                },
                {
                    "name": "F#3",
                    "midi": 54,
                    "time": 203.91275800000093,
                    "velocity": 0.2755905511811024,
                    "duration": 0.07518105416667709
                },
                {
                    "name": "F#2",
                    "midi": 42,
                    "time": 204.13014900000093,
                    "velocity": 0.2283464566929134,
                    "duration": 0.13768096666666452
                },
                {
                    "name": "F#3",
                    "midi": 54,
                    "time": 204.34754000000092,
                    "velocity": 0.2204724409448819,
                    "duration": 0.07880423750000887
                },
                {
                    "name": "F#3",
                    "midi": 54,
                    "time": 204.56493100000094,
                    "velocity": 0.23622047244094488,
                    "duration": 0.10416652083333133
                },
                {
                    "name": "F#4",
                    "midi": 66,
                    "time": 204.78232200000093,
                    "velocity": 0.25196850393700787,
                    "duration": 0.10597811249999722
                },
                {
                    "name": "F#3",
                    "midi": 54,
                    "time": 204.99971300000092,
                    "velocity": 0.08661417322834646,
                    "duration": 0.10144913333334671
                },
                {
                    "name": "F#3",
                    "midi": 54,
                    "time": 205.21710400000092,
                    "velocity": 0.11811023622047244,
                    "duration": 0.11775345833333972
                },
                {
                    "name": "F#2",
                    "midi": 42,
                    "time": 205.43449500000094,
                    "velocity": 0.25984251968503935,
                    "duration": 0.14855051666665986
                },
                {
                    "name": "F#3",
                    "midi": 54,
                    "time": 205.65188600000093,
                    "velocity": 0.29133858267716534,
                    "duration": 0.10144913333334671
                },
                {
                    "name": "F#4",
                    "midi": 66,
                    "time": 205.86927700000095,
                    "velocity": 0.28346456692913385,
                    "duration": 0.08605060416667243
                },
                {
                    "name": "F#3",
                    "midi": 54,
                    "time": 206.1075013041676,
                    "velocity": 0.31496062992125984,
                    "duration": 0.22554316250000284
                },
                {
                    "name": "F#4",
                    "midi": 66,
                    "time": 206.3194575291676,
                    "velocity": 0.28346456692913385,
                    "duration": 0.24003589583332996
                },
                {
                    "name": "F#3",
                    "midi": 54,
                    "time": 206.52869636666762,
                    "velocity": 0.25984251968503935,
                    "duration": 0.2291663458333062
                },
                {
                    "name": "F#4",
                    "midi": 66,
                    "time": 206.73431202083427,
                    "velocity": 0.2677165354330709,
                    "duration": 0.2789851166666608
                },
                {
                    "name": "F#3",
                    "midi": 54,
                    "time": 206.96438416250092,
                    "velocity": 0.1968503937007874,
                    "duration": 0.22644895833332157
                },
                {
                    "name": "F#4",
                    "midi": 66,
                    "time": 207.16728242916759,
                    "velocity": 0.16535433070866143,
                    "duration": 0.28351409583333975
                },
                {
                    "name": "F#3",
                    "midi": 54,
                    "time": 207.40007195833425,
                    "velocity": 0.1968503937007874,
                    "duration": 0.21376781666668876
                },
                {
                    "name": "F#4",
                    "midi": 66,
                    "time": 207.59481806250093,
                    "velocity": 0.18110236220472442,
                    "duration": 0.296195237500001
                },
                {
                    "name": "F#3",
                    "midi": 54,
                    "time": 207.84481771250094,
                    "velocity": 0.13385826771653545,
                    "duration": 0.22191997916664263
                },
                {
                    "name": "F#4",
                    "midi": 66,
                    "time": 208.03594063333426,
                    "velocity": 0.15748031496062992,
                    "duration": 0.2681155666666655
                },
                {
                    "name": "F#3",
                    "midi": 54,
                    "time": 208.26238959166758,
                    "velocity": 0.14960629921259844,
                    "duration": 0.2717387500000257
                },
                {
                    "name": "F#4",
                    "midi": 66,
                    "time": 208.47615740833427,
                    "velocity": 0.14960629921259844,
                    "duration": 0.20470985833333089
                },
                {
                    "name": "F#3",
                    "midi": 54,
                    "time": 208.70441795833426,
                    "velocity": 0.28346456692913385,
                    "duration": 0.15036210833332575
                },
                {
                    "name": "G3",
                    "midi": 55,
                    "time": 208.9209031625009,
                    "velocity": 0.1889763779527559,
                    "duration": 0.34873139583336865
                },
                {
                    "name": "F3",
                    "midi": 53,
                    "time": 208.9209031625009,
                    "velocity": 0.1889763779527559,
                    "duration": 0.34691980416670276
                },
                {
                    "name": "G4",
                    "midi": 67,
                    "time": 208.9399248750009,
                    "velocity": 0.3543307086614173,
                    "duration": 0.3278980916666967
                },
                {
                    "name": "F4",
                    "midi": 65,
                    "time": 208.94083067083426,
                    "velocity": 0.3700787401574803,
                    "duration": 0.3260865000000024
                },
                {
                    "name": "F#3",
                    "midi": 54,
                    "time": 209.1401057541676,
                    "velocity": 0.2677165354330709,
                    "duration": 0.18206496250002147
                },
                {
                    "name": "G4",
                    "midi": 67,
                    "time": 209.36111993750094,
                    "velocity": 0.2204724409448819,
                    "duration": 0.3215575208334087
                },
                {
                    "name": "F4",
                    "midi": 65,
                    "time": 209.36383732500096,
                    "velocity": 0.2204724409448819,
                    "duration": 0.3179343375000485
                },
                {
                    "name": "F3",
                    "midi": 53,
                    "time": 209.3647431208343,
                    "velocity": 0.2283464566929134,
                    "duration": 0.3143111541666883
                },
                {
                    "name": "G3",
                    "midi": 55,
                    "time": 209.37108369166765,
                    "velocity": 0.16535433070866143,
                    "duration": 0.3079705833333435
                },
                {
                    "name": "F#3",
                    "midi": 54,
                    "time": 209.57760514166765,
                    "velocity": 0.25984251968503935,
                    "duration": 0.1702896166667074
                },
                {
                    "name": "G4",
                    "midi": 67,
                    "time": 209.78503238750102,
                    "velocity": 0.2204724409448819,
                    "duration": 0.35054298750003454
                },
                {
                    "name": "F4",
                    "midi": 65,
                    "time": 209.78684397916768,
                    "velocity": 0.2125984251968504,
                    "duration": 0.34873139583336865
                },
                {
                    "name": "F3",
                    "midi": 53,
                    "time": 209.78865557083435,
                    "velocity": 0.12598425196850394,
                    "duration": 0.33876764166669204
                },
                {
                    "name": "G3",
                    "midi": 55,
                    "time": 209.7895613666677,
                    "velocity": 0.14960629921259844,
                    "duration": 0.3378618458333449
                },
                {
                    "name": "F#3",
                    "midi": 54,
                    "time": 210.02416248750103,
                    "velocity": 0.28346456692913385,
                    "duration": 0.21286202083339845
                },
                {
                    "name": "G4",
                    "midi": 67,
                    "time": 210.23340132500104,
                    "velocity": 0.25984251968503935,
                    "duration": 0.35054298750006296
                },
                {
                    "name": "F3",
                    "midi": 53,
                    "time": 210.2343071208344,
                    "velocity": 0.2755905511811024,
                    "duration": 0.3360502541667074
                },
                {
                    "name": "F4",
                    "midi": 65,
                    "time": 210.23521291666773,
                    "velocity": 0.2755905511811024,
                    "duration": 0.34691980416670276
                },
                {
                    "name": "G3",
                    "midi": 55,
                    "time": 210.23611871250108,
                    "velocity": 0.2440944881889764,
                    "duration": 0.336050254166679
                },
                {
                    "name": "F#3",
                    "midi": 54,
                    "time": 210.4562271000011,
                    "velocity": 0.2283464566929134,
                    "duration": 0.24818805833339752
                },
                {
                    "name": "G4",
                    "midi": 67,
                    "time": 210.6573137750011,
                    "velocity": 0.28346456692913385,
                    "duration": 0.3614125375000299
                },
                {
                    "name": "F3",
                    "midi": 53,
                    "time": 210.65821957083446,
                    "velocity": 0.23622047244094488,
                    "duration": 0.35326037500001917
                },
                {
                    "name": "F4",
                    "midi": 65,
                    "time": 210.6591253666678,
                    "velocity": 0.2677165354330709,
                    "duration": 0.3577893541666697
                },
                {
                    "name": "G3",
                    "midi": 55,
                    "time": 210.66093695833447,
                    "velocity": 0.23622047244094488,
                    "duration": 0.3541661708333379
                },
                {
                    "name": "F#3",
                    "midi": 54,
                    "time": 210.8837627333345,
                    "velocity": 0.3464566929133858,
                    "duration": 0.2608692000000019
                },
                {
                    "name": "G4",
                    "midi": 67,
                    "time": 211.0803204291678,
                    "velocity": 0.29133858267716534,
                    "duration": 0.37047049583335934
                },
                {
                    "name": "F4",
                    "midi": 65,
                    "time": 211.08303781666783,
                    "velocity": 0.2992125984251969,
                    "duration": 0.36684731249999913
                },
                {
                    "name": "G3",
                    "midi": 55,
                    "time": 211.08303781666783,
                    "velocity": 0.33070866141732286,
                    "duration": 0.37047049583335934
                },
                {
                    "name": "F3",
                    "midi": 53,
                    "time": 211.08394361250117,
                    "velocity": 0.2440944881889764,
                    "duration": 0.365941516666652
                },
                {
                    "name": "F#3",
                    "midi": 54,
                    "time": 211.31401575416783,
                    "velocity": 0.33070866141732286,
                    "duration": 1.254527229166797
                },
                {
                    "name": "G4",
                    "midi": 67,
                    "time": 211.5214430000012,
                    "velocity": 0.31496062992125984,
                    "duration": 0.3650357208333901
                },
                {
                    "name": "F4",
                    "midi": 65,
                    "time": 211.52234879583455,
                    "velocity": 0.3228346456692913,
                    "duration": 0.3614125375000299
                },
                {
                    "name": "F3",
                    "midi": 53,
                    "time": 211.5241603875012,
                    "velocity": 0.3779527559055118,
                    "duration": 0.352354579166672
                },
                {
                    "name": "G3",
                    "midi": 55,
                    "time": 211.52597197916788,
                    "velocity": 0.36220472440944884,
                    "duration": 0.3514487833333533
                },
                {
                    "name": "G3",
                    "midi": 55,
                    "time": 211.96075397916792,
                    "velocity": 0.2440944881889764,
                    "duration": 0.34057923333335793
                },
                {
                    "name": "G4",
                    "midi": 67,
                    "time": 211.96165977500127,
                    "velocity": 0.2204724409448819,
                    "duration": 0.34691980416667434
                },
                {
                    "name": "F3",
                    "midi": 53,
                    "time": 211.96165977500127,
                    "velocity": 0.23622047244094488,
                    "duration": 0.3396734375000108
                },
                {
                    "name": "F4",
                    "midi": 65,
                    "time": 211.96437716250128,
                    "velocity": 0.2283464566929134,
                    "duration": 0.3423908249999954
                },
                {
                    "name": "G3",
                    "midi": 55,
                    "time": 212.3919127958346,
                    "velocity": 0.2125984251968504,
                    "duration": 0.3260865000000308
                },
                {
                    "name": "F3",
                    "midi": 53,
                    "time": 212.39281859166795,
                    "velocity": 0.2204724409448819,
                    "duration": 0.32518070416668365
                },
                {
                    "name": "G4",
                    "midi": 67,
                    "time": 212.3946301833346,
                    "velocity": 0.2204724409448819,
                    "duration": 0.3315212750000285
                },
                {
                    "name": "F4",
                    "midi": 65,
                    "time": 212.39734757083463,
                    "velocity": 0.2204724409448819,
                    "duration": 0.3278980916666683
                },
                {
                    "name": "G3",
                    "midi": 55,
                    "time": 212.81854263333463,
                    "velocity": 0.1968503937007874,
                    "duration": 0.32336911250001776
                },
                {
                    "name": "F3",
                    "midi": 53,
                    "time": 212.81854263333463,
                    "velocity": 0.2125984251968504,
                    "duration": 0.32518070416668365
                },
                {
                    "name": "G4",
                    "midi": 67,
                    "time": 212.81944842916798,
                    "velocity": 0.2204724409448819,
                    "duration": 0.34873139583334023
                },
                {
                    "name": "F4",
                    "midi": 65,
                    "time": 212.82126002083464,
                    "velocity": 0.2204724409448819,
                    "duration": 0.3460140083333272
                },
                {
                    "name": "G4",
                    "midi": 67,
                    "time": 213.26147679583465,
                    "velocity": 0.2440944881889764,
                    "duration": 0.3315212750000569
                },
                {
                    "name": "F4",
                    "midi": 65,
                    "time": 213.26328838750132,
                    "velocity": 0.23622047244094488,
                    "duration": 0.32880388750004386
                },
                {
                    "name": "G3",
                    "midi": 55,
                    "time": 213.26419418333467,
                    "velocity": 0.18110236220472442,
                    "duration": 0.31068797083335653
                },
                {
                    "name": "F3",
                    "midi": 53,
                    "time": 213.265099979168,
                    "velocity": 0.1968503937007874,
                    "duration": 0.3079705833333435
                },
                {
                    "name": "G3",
                    "midi": 55,
                    "time": 213.67361390000138,
                    "velocity": 0.1732283464566929,
                    "duration": 0.4175718791667009
                },
                {
                    "name": "F3",
                    "midi": 53,
                    "time": 213.67361390000138,
                    "velocity": 0.1732283464566929,
                    "duration": 0.41485449166668786
                },
                {
                    "name": "G4",
                    "midi": 67,
                    "time": 213.67361390000138,
                    "velocity": 0.2047244094488189,
                    "duration": 0.4230066541666986
                },
                {
                    "name": "F4",
                    "midi": 65,
                    "time": 213.67542549166805,
                    "velocity": 0.2047244094488189,
                    "duration": 0.4193834708333668
                },
                {
                    "name": "C#4",
                    "midi": 61,
                    "time": 213.92542514166806,
                    "velocity": 0.5669291338582677,
                    "duration": 1.25090404583338
                },
                {
                    "name": "C#3",
                    "midi": 49,
                    "time": 213.92995412083474,
                    "velocity": 0.4330708661417323,
                    "duration": 1.246375066666701
                },
                {
                    "name": "G4",
                    "midi": 67,
                    "time": 214.15912046666807,
                    "velocity": 0.18110236220472442,
                    "duration": 0.3813400458333547
                },
                {
                    "name": "F4",
                    "midi": 65,
                    "time": 214.16093205833474,
                    "velocity": 0.1889763779527559,
                    "duration": 0.37681106666667574
                },
                {
                    "name": "G3",
                    "midi": 55,
                    "time": 214.16455524166807,
                    "velocity": 0.1968503937007874,
                    "duration": 0.375905270833357
                },
                {
                    "name": "F3",
                    "midi": 53,
                    "time": 214.16546103750142,
                    "velocity": 0.1968503937007874,
                    "duration": 0.3722820874999968
                },
                {
                    "name": "G4",
                    "midi": 67,
                    "time": 214.59571405833475,
                    "velocity": 0.2440944881889764,
                    "duration": 0.3577893541666981
                },
                {
                    "name": "F4",
                    "midi": 65,
                    "time": 214.59752565000142,
                    "velocity": 0.2440944881889764,
                    "duration": 0.35326037500001917
                },
                {
                    "name": "G3",
                    "midi": 55,
                    "time": 214.60386622083476,
                    "velocity": 0.2204724409448819,
                    "duration": 0.34148502916667667
                },
                {
                    "name": "F3",
                    "midi": 53,
                    "time": 214.6047720166681,
                    "velocity": 0.2204724409448819,
                    "duration": 0.3387676416666636
                },
                {
                    "name": "G4",
                    "midi": 67,
                    "time": 215.01147434583478,
                    "velocity": 0.16535433070866143,
                    "duration": 0.38677482083332393
                },
                {
                    "name": "F4",
                    "midi": 65,
                    "time": 215.01328593750145,
                    "velocity": 0.1889763779527559,
                    "duration": 0.38315163749999215
                },
                {
                    "name": "F3",
                    "midi": 53,
                    "time": 215.01509752916812,
                    "velocity": 0.25984251968503935,
                    "duration": 0.3768110666666473
                },
                {
                    "name": "G3",
                    "midi": 55,
                    "time": 215.01509752916812,
                    "velocity": 0.28346456692913385,
                    "duration": 0.3777168624999945
                },
                {
                    "name": "C#4",
                    "midi": 61,
                    "time": 215.22795955000143,
                    "velocity": 0.5669291338582677,
                    "duration": 1.4755414125001778
                },
                {
                    "name": "C#3",
                    "midi": 49,
                    "time": 215.23067693750144,
                    "velocity": 0.4409448818897638,
                    "duration": 1.4746356166668306
                },
                {
                    "name": "G4",
                    "midi": 67,
                    "time": 215.4498795291681,
                    "velocity": 0.2047244094488189,
                    "duration": 0.36775310833340313
                },
                {
                    "name": "F4",
                    "midi": 65,
                    "time": 215.45078532500145,
                    "velocity": 0.1968503937007874,
                    "duration": 0.36412992500004293
                },
                {
                    "name": "F3",
                    "midi": 53,
                    "time": 215.45078532500145,
                    "velocity": 0.2283464566929134,
                    "duration": 0.36050674166668273
                },
                {
                    "name": "G3",
                    "midi": 55,
                    "time": 215.4516911208348,
                    "velocity": 0.2204724409448819,
                    "duration": 0.3623183333333486
                },
                {
                    "name": "G4",
                    "midi": 67,
                    "time": 215.8665456125015,
                    "velocity": 0.2125984251968504,
                    "duration": 0.39402118750004433
                },
                {
                    "name": "F4",
                    "midi": 65,
                    "time": 215.86835720416818,
                    "velocity": 0.2204724409448819,
                    "duration": 0.3913038000000313
                },
                {
                    "name": "F3",
                    "midi": 53,
                    "time": 215.86835720416818,
                    "velocity": 0.25196850393700787,
                    "duration": 0.3822458416666734
                },
                {
                    "name": "G3",
                    "midi": 55,
                    "time": 215.86926300000152,
                    "velocity": 0.2047244094488189,
                    "duration": 0.3840574333333393
                },
                {
                    "name": "G4",
                    "midi": 67,
                    "time": 216.31491455000156,
                    "velocity": 0.23622047244094488,
                    "duration": 0.20289826666669342
                },
                {
                    "name": "F4",
                    "midi": 65,
                    "time": 216.3158203458349,
                    "velocity": 0.23622047244094488,
                    "duration": 0.20199247083334626
                },
                {
                    "name": "G3",
                    "midi": 55,
                    "time": 216.3158203458349,
                    "velocity": 0.2125984251968504,
                    "duration": 0.20289826666669342
                },
                {
                    "name": "F3",
                    "midi": 53,
                    "time": 216.31853773333492,
                    "velocity": 0.2125984251968504,
                    "duration": 0.19927508333333321
                },
                {
                    "name": "C#3",
                    "midi": 49,
                    "time": 216.74788495833494,
                    "velocity": 0.3228346456692913,
                    "duration": 0.1648548416666813
                },
                {
                    "name": "C#4",
                    "midi": 61,
                    "time": 216.75060234583495,
                    "velocity": 0.3228346456692913,
                    "duration": 0.16576063750000003
                },
                {
                    "name": "C#3",
                    "midi": 49,
                    "time": 216.95621800000163,
                    "velocity": 0.33858267716535434,
                    "duration": 0.1277172124999879
                },
                {
                    "name": "C#4",
                    "midi": 61,
                    "time": 216.95621800000163,
                    "velocity": 0.33858267716535434,
                    "duration": 0.13043460000000096
                },
                {
                    "name": "C#4",
                    "midi": 61,
                    "time": 217.11110908750163,
                    "velocity": 0.36220472440944884,
                    "duration": 0.13224619166666685
                },
                {
                    "name": "C#3",
                    "midi": 49,
                    "time": 217.11926125000164,
                    "velocity": 0.36220472440944884,
                    "duration": 0.12228243749999024
                },
                {
                    "name": "C#4",
                    "midi": 61,
                    "time": 217.27234074583495,
                    "velocity": 0.4015748031496063,
                    "duration": 0.08242742083336907
                },
                {
                    "name": "C#3",
                    "midi": 49,
                    "time": 217.27505813333497,
                    "velocity": 0.4015748031496063,
                    "duration": 0.07518105416667709
                },
                {
                    "name": "C#4",
                    "midi": 61,
                    "time": 217.386471020835,
                    "velocity": 0.4409448818897638,
                    "duration": 0.07608685000002424
                },
                {
                    "name": "C#3",
                    "midi": 49,
                    "time": 217.389188408335,
                    "velocity": 0.4409448818897638,
                    "duration": 0.07518105416667709
                },
                {
                    "name": "C#4",
                    "midi": 61,
                    "time": 217.49969550000168,
                    "velocity": 0.4566929133858268,
                    "duration": 0.059782525000002806
                },
                {
                    "name": "C#3",
                    "midi": 49,
                    "time": 217.49969550000168,
                    "velocity": 0.4566929133858268,
                    "duration": 0.059782525000002806
                },
                {
                    "name": "C#4",
                    "midi": 61,
                    "time": 217.603862020835,
                    "velocity": 0.47244094488188976,
                    "duration": 0.08152162499999349
                },
                {
                    "name": "C#3",
                    "midi": 49,
                    "time": 217.60567361250168,
                    "velocity": 0.47244094488188976,
                    "duration": 0.0797100333333276
                },
                {
                    "name": "C#3",
                    "midi": 49,
                    "time": 217.71980388750168,
                    "velocity": 0.5275590551181102,
                    "duration": 0.07427525833332993
                },
                {
                    "name": "C#4",
                    "midi": 61,
                    "time": 217.71980388750168,
                    "velocity": 0.5275590551181102,
                    "duration": 0.07880423750000887
                },
                {
                    "name": "C#4",
                    "midi": 61,
                    "time": 217.8366515500017,
                    "velocity": 0.5826771653543307,
                    "duration": 0.9085132208333846
                },
                {
                    "name": "C#3",
                    "midi": 49,
                    "time": 217.84027473333504,
                    "velocity": 0.47244094488188976,
                    "duration": 0.9184769750000612
                },
                {
                    "name": "G4",
                    "midi": 67,
                    "time": 218.05494834583504,
                    "velocity": 0.3937007874015748,
                    "duration": 0.30344160416669297
                },
                {
                    "name": "F4",
                    "midi": 65,
                    "time": 218.0558541416684,
                    "velocity": 0.3700787401574803,
                    "duration": 0.30163001249999866
                },
                {
                    "name": "G3",
                    "midi": 55,
                    "time": 218.05766573333506,
                    "velocity": 0.47244094488188976,
                    "duration": 0.29528944166665383
                },
                {
                    "name": "F3",
                    "midi": 53,
                    "time": 218.05947732500172,
                    "velocity": 0.3937007874015748,
                    "duration": 0.29347784999998794
                },
                {
                    "name": "G4",
                    "midi": 67,
                    "time": 218.4770492041684,
                    "velocity": 0.3464566929133858,
                    "duration": 0.3097821750000662
                },
                {
                    "name": "F4",
                    "midi": 65,
                    "time": 218.47795500000174,
                    "velocity": 0.3464566929133858,
                    "duration": 0.3079705833333719
                },
                {
                    "name": "G3",
                    "midi": 55,
                    "time": 218.4797665916684,
                    "velocity": 0.3464566929133858,
                    "duration": 0.2980068291666953
                },
                {
                    "name": "F3",
                    "midi": 53,
                    "time": 218.48067238750176,
                    "velocity": 0.3228346456692913,
                    "duration": 0.2980068291666953
                },
                {
                    "name": "B3",
                    "midi": 59,
                    "time": 218.70893293750174,
                    "velocity": 0.2283464566929134,
                    "duration": 0.21920259166671485
                },
                {
                    "name": "B2",
                    "midi": 47,
                    "time": 218.71346191666842,
                    "velocity": 0.4409448818897638,
                    "duration": 0.2182967958333677
                },
                {
                    "name": "G4",
                    "midi": 67,
                    "time": 218.91454859166845,
                    "velocity": 0.2125984251968504,
                    "duration": 0.32336911250001776
                },
                {
                    "name": "F4",
                    "midi": 65,
                    "time": 218.91454859166845,
                    "velocity": 0.23622047244094488,
                    "duration": 0.3224633166666706
                },
                {
                    "name": "G3",
                    "midi": 55,
                    "time": 218.91726597916846,
                    "velocity": 0.11023622047244094,
                    "duration": 0.3106879708333281
                },
                {
                    "name": "F3",
                    "midi": 53,
                    "time": 218.91907757083513,
                    "velocity": 0.10236220472440945,
                    "duration": 0.30706478749999633
                },
                {
                    "name": "G3",
                    "midi": 55,
                    "time": 219.3556711625018,
                    "velocity": 0.14173228346456693,
                    "duration": 0.3124995625000224
                },
                {
                    "name": "G4",
                    "midi": 67,
                    "time": 219.35748275416847,
                    "velocity": 0.09448818897637795,
                    "duration": 0.3143111541666883
                },
                {
                    "name": "F3",
                    "midi": 53,
                    "time": 219.35929434583514,
                    "velocity": 0.12598425196850394,
                    "duration": 0.3025358083333458
                },
                {
                    "name": "F4",
                    "midi": 65,
                    "time": 219.36472912083514,
                    "velocity": 0.07874015748031496,
                    "duration": 0.3097821750000378
                },
                {
                    "name": "B1",
                    "midi": 35,
                    "time": 219.56672159166848,
                    "velocity": 0.2440944881889764,
                    "duration": 0.050724566666673354
                },
                {
                    "name": "F#1",
                    "midi": 30,
                    "time": 219.77414883750185,
                    "velocity": 0.18110236220472442,
                    "duration": 0.07336946250003962
                },
                {
                    "name": "F4",
                    "midi": 65,
                    "time": 219.7750546333352,
                    "velocity": 0.2125984251968504,
                    "duration": 0.33061547916670975
                },
                {
                    "name": "G4",
                    "midi": 67,
                    "time": 219.7750546333352,
                    "velocity": 0.2204724409448819,
                    "duration": 0.3315212750000569
                },
                {
                    "name": "G3",
                    "midi": 55,
                    "time": 219.77777202083522,
                    "velocity": 0.12598425196850394,
                    "duration": 0.3188401333333388
                },
                {
                    "name": "F#2",
                    "midi": 42,
                    "time": 219.78411259166856,
                    "velocity": 0.29133858267716534,
                    "duration": 0.06974627916667941
                },
                {
                    "name": "F3",
                    "midi": 53,
                    "time": 219.7850183875019,
                    "velocity": 0.07086614173228346,
                    "duration": 0.3143111541666599
                },
                {
                    "name": "B1",
                    "midi": 35,
                    "time": 219.99516302083524,
                    "velocity": 0.28346456692913385,
                    "duration": 0.05887672916665565
                },
                {
                    "name": "G4",
                    "midi": 67,
                    "time": 220.21527140833527,
                    "velocity": 0.16535433070866143,
                    "duration": 0.3378618458333449
                },
                {
                    "name": "F4",
                    "midi": 65,
                    "time": 220.2188945916686,
                    "velocity": 0.1732283464566929,
                    "duration": 0.3342386625000131
                },
                {
                    "name": "F3",
                    "midi": 53,
                    "time": 220.22342357083528,
                    "velocity": 0.08661417322834646,
                    "duration": 0.3161227458333258
                },
                {
                    "name": "G3",
                    "midi": 55,
                    "time": 220.2270467541686,
                    "velocity": 0.14960629921259844,
                    "duration": 0.312499562499994
                },
                {
                    "name": "B1",
                    "midi": 35,
                    "time": 220.44353195833529,
                    "velocity": 0.28346456692913385,
                    "duration": 0.05163036249999209
                },
                {
                    "name": "F#1",
                    "midi": 30,
                    "time": 220.65639397916863,
                    "velocity": 0.3858267716535433,
                    "duration": 0.052536158333367666
                },
                {
                    "name": "F#2",
                    "midi": 42,
                    "time": 220.6582055708353,
                    "velocity": 0.4330708661417323,
                    "duration": 0.062499912500044275
                },
                {
                    "name": "F3",
                    "midi": 53,
                    "time": 220.66273455000197,
                    "velocity": 0.07874015748031496,
                    "duration": 0.31884013333336725
                },
                {
                    "name": "G3",
                    "midi": 55,
                    "time": 220.66273455000197,
                    "velocity": 0.12598425196850394,
                    "duration": 0.3197459291667144
                },
                {
                    "name": "F4",
                    "midi": 65,
                    "time": 220.66545193750198,
                    "velocity": 0.15748031496062992,
                    "duration": 0.32427490833339334
                },
                {
                    "name": "G4",
                    "midi": 67,
                    "time": 220.66635773333533,
                    "velocity": 0.13385826771653545,
                    "duration": 0.32246331666669903
                },
                {
                    "name": "B1",
                    "midi": 35,
                    "time": 220.88646612083534,
                    "velocity": 0.2440944881889764,
                    "duration": 0.05344195416665798
                },
                {
                    "name": "F#1",
                    "midi": 30,
                    "time": 221.09479916250206,
                    "velocity": 0.15748031496062992,
                    "duration": 0.05978252500005965
                },
                {
                    "name": "G4",
                    "midi": 67,
                    "time": 221.0957049583354,
                    "velocity": 0.2047244094488189,
                    "duration": 0.35416617083342317
                },
                {
                    "name": "G3",
                    "midi": 55,
                    "time": 221.09661075416875,
                    "velocity": 0.1732283464566929,
                    "duration": 0.3451082125000653
                },
                {
                    "name": "F4",
                    "midi": 65,
                    "time": 221.0975165500021,
                    "velocity": 0.2125984251968504,
                    "duration": 0.35235457916672885
                },
                {
                    "name": "F#2",
                    "midi": 42,
                    "time": 221.0975165500021,
                    "velocity": 0.1968503937007874,
                    "duration": 0.06340570833336301
                },
                {
                    "name": "F3",
                    "midi": 53,
                    "time": 221.10204552916878,
                    "velocity": 0.14960629921259844,
                    "duration": 0.3378618458333733
                },
                {
                    "name": "B1",
                    "midi": 35,
                    "time": 221.3085669791688,
                    "velocity": 0.1732283464566929,
                    "duration": 0.059782525000002806
                },
                {
                    "name": "G4",
                    "midi": 67,
                    "time": 221.5413565083355,
                    "velocity": 0.1889763779527559,
                    "duration": 0.3396734375000392
                },
                {
                    "name": "F4",
                    "midi": 65,
                    "time": 221.54226230416884,
                    "velocity": 0.16535433070866143,
                    "duration": 0.33695605000002615
                },
                {
                    "name": "F3",
                    "midi": 53,
                    "time": 221.5784941375022,
                    "velocity": 0.06299212598425197,
                    "duration": 0.2943836458333351
                },
                {
                    "name": "G3",
                    "midi": 55,
                    "time": 221.61200858333552,
                    "velocity": 0.06299212598425197,
                    "duration": 0.2608692000000019
                },
                {
                    "name": "B1",
                    "midi": 35,
                    "time": 221.74063159166886,
                    "velocity": 0.2047244094488189,
                    "duration": 0.05344195416665798
                },
                {
                    "name": "F#2",
                    "midi": 42,
                    "time": 221.9453414500022,
                    "velocity": 0.3937007874015748,
                    "duration": 0.06249991250001585
                },
                {
                    "name": "F#1",
                    "midi": 30,
                    "time": 221.95168202083553,
                    "velocity": 0.29133858267716534,
                    "duration": 0.04438399583332853
                },
                {
                    "name": "G4",
                    "midi": 67,
                    "time": 221.9670805500022,
                    "velocity": 0.18110236220472442,
                    "duration": 0.3677531083333463
                },
                {
                    "name": "F4",
                    "midi": 65,
                    "time": 221.97070373333554,
                    "velocity": 0.16535433070866143,
                    "duration": 0.36322412916666735
                },
                {
                    "name": "F3",
                    "midi": 53,
                    "time": 221.97432691666887,
                    "velocity": 0.1732283464566929,
                    "duration": 0.34148502916667667
                },
                {
                    "name": "G3",
                    "midi": 55,
                    "time": 221.97432691666887,
                    "velocity": 0.18110236220472442,
                    "duration": 0.34148502916667667
                },
                {
                    "name": "B1",
                    "midi": 35,
                    "time": 222.18900052916888,
                    "velocity": 0.16535433070866143,
                    "duration": 0.0615941166666687
                },
                {
                    "name": "G4",
                    "midi": 67,
                    "time": 222.39733357083554,
                    "velocity": 0.13385826771653545,
                    "duration": 0.35144878333332485
                },
                {
                    "name": "F4",
                    "midi": 65,
                    "time": 222.40005095833556,
                    "velocity": 0.14173228346456693,
                    "duration": 0.35144878333332485
                },
                {
                    "name": "F3",
                    "midi": 53,
                    "time": 222.41454369166888,
                    "velocity": 0.14960629921259844,
                    "duration": 0.3306154791666529
                },
                {
                    "name": "G3",
                    "midi": 55,
                    "time": 222.41997846666888,
                    "velocity": 0.12598425196850394,
                    "duration": 0.3269922958333211
                },
                {
                    "name": "B1",
                    "midi": 35,
                    "time": 222.60294922500222,
                    "velocity": 0.2440944881889764,
                    "duration": 0.05344195416665798
                },
                {
                    "name": "F#1",
                    "midi": 30,
                    "time": 222.81399965416887,
                    "velocity": 0.36220472440944884,
                    "duration": 0.04981877083338304
                },
                {
                    "name": "F#2",
                    "midi": 42,
                    "time": 222.81581124583553,
                    "velocity": 0.4015748031496063,
                    "duration": 0.04981877083338304
                },
                {
                    "name": "F4",
                    "midi": 65,
                    "time": 222.8312097750022,
                    "velocity": 0.16535433070866143,
                    "duration": 0.32518070416668365
                },
                {
                    "name": "G4",
                    "midi": 67,
                    "time": 222.83211557083555,
                    "velocity": 0.18110236220472442,
                    "duration": 0.3242749083333365
                },
                {
                    "name": "G3",
                    "midi": 55,
                    "time": 222.84026773333557,
                    "velocity": 0.14960629921259844,
                    "duration": 0.30525319583333044
                },
                {
                    "name": "F3",
                    "midi": 53,
                    "time": 222.8411735291689,
                    "velocity": 0.10236220472440945,
                    "duration": 0.3043473999999833
                },
                {
                    "name": "B1",
                    "midi": 35,
                    "time": 223.05675293750224,
                    "velocity": 0.1732283464566929,
                    "duration": 0.04800717916666031
                },
                {
                    "name": "F#1",
                    "midi": 30,
                    "time": 223.25331063333556,
                    "velocity": 0.1968503937007874,
                    "duration": 0.06068832083332154
                },
                {
                    "name": "G4",
                    "midi": 67,
                    "time": 223.2569338166689,
                    "velocity": 0.13385826771653545,
                    "duration": 0.3586951499999884
                },
                {
                    "name": "F4",
                    "midi": 65,
                    "time": 223.2569338166689,
                    "velocity": 0.14960629921259844,
                    "duration": 0.3586951499999884
                },
                {
                    "name": "F3",
                    "midi": 53,
                    "time": 223.26055700000222,
                    "velocity": 0.07874015748031496,
                    "duration": 0.3505429874999777
                },
                {
                    "name": "G3",
                    "midi": 55,
                    "time": 223.26418018333555,
                    "velocity": 0.08661417322834646,
                    "duration": 0.3487313958333118
                },
                {
                    "name": "F#2",
                    "midi": 42,
                    "time": 223.26418018333555,
                    "velocity": 0.12598425196850394,
                    "duration": 0.06431150416665332
                },
                {
                    "name": "B1",
                    "midi": 35,
                    "time": 223.48157118333555,
                    "velocity": 0.1732283464566929,
                    "duration": 0.05344195416665798
                },
                {
                    "name": "G4",
                    "midi": 67,
                    "time": 223.70711434583555,
                    "velocity": 0.13385826771653545,
                    "duration": 0.37681106666670416
                },
                {
                    "name": "F4",
                    "midi": 65,
                    "time": 223.70711434583555,
                    "velocity": 0.13385826771653545,
                    "duration": 0.3777168625000513
                },
                {
                    "name": "G3",
                    "midi": 55,
                    "time": 223.7188896916689,
                    "velocity": 0.07086614173228346,
                    "duration": 0.3623183333333486
                },
                {
                    "name": "F3",
                    "midi": 53,
                    "time": 223.71979548750224,
                    "velocity": 0.07086614173228346,
                    "duration": 0.3596009458333356
                },
                {
                    "name": "B3",
                    "midi": 59,
                    "time": 224.12649781666894,
                    "velocity": 0.2992125984251969,
                    "duration": 0.2663039750000564
                },
                {
                    "name": "B2",
                    "midi": 47,
                    "time": 224.13102679583562,
                    "velocity": 0.25984251968503935,
                    "duration": 0.2563402208333798
                },
                {
                    "name": "F4",
                    "midi": 65,
                    "time": 224.14461373333563,
                    "velocity": 0.31496062992125984,
                    "duration": 0.3731878833334008
                },
                {
                    "name": "G4",
                    "midi": 67,
                    "time": 224.14461373333563,
                    "velocity": 0.33858267716535434,
                    "duration": 0.3731878833334008
                },
                {
                    "name": "G3",
                    "midi": 55,
                    "time": 224.14733112083564,
                    "velocity": 0.3937007874015748,
                    "duration": 0.3659415166667088
                },
                {
                    "name": "F3",
                    "midi": 53,
                    "time": 224.148236916669,
                    "velocity": 0.36220472440944884,
                    "duration": 0.3641299250000145
                },
                {
                    "name": "C#4",
                    "midi": 61,
                    "time": 224.362910529169,
                    "velocity": 0.4094488188976378,
                    "duration": 0.22554316250005968
                },
                {
                    "name": "C#3",
                    "midi": 49,
                    "time": 224.362910529169,
                    "velocity": 0.3858267716535433,
                    "duration": 0.2400358958333868
                },
                {
                    "name": "F4",
                    "midi": 65,
                    "time": 224.5603740208357,
                    "velocity": 0.3858267716535433,
                    "duration": 0.399455962500042
                },
                {
                    "name": "G4",
                    "midi": 67,
                    "time": 224.5603740208357,
                    "velocity": 0.41732283464566927,
                    "duration": 0.39855016666669485
                },
                {
                    "name": "D4",
                    "midi": 62,
                    "time": 224.56490300000237,
                    "velocity": 0.41732283464566927,
                    "duration": 0.23913010000001123
                },
                {
                    "name": "F3",
                    "midi": 53,
                    "time": 224.56580879583572,
                    "velocity": 0.3228346456692913,
                    "duration": 0.38496322916665804
                },
                {
                    "name": "G3",
                    "midi": 55,
                    "time": 224.56671459166907,
                    "velocity": 0.3858267716535433,
                    "duration": 0.3840574333333109
                },
                {
                    "name": "D3",
                    "midi": 50,
                    "time": 224.57758414166906,
                    "velocity": 0.4330708661417323,
                    "duration": 0.2228257749999898
                },
                {
                    "name": "C#3",
                    "midi": 49,
                    "time": 224.7877287750024,
                    "velocity": 0.33858267716535434,
                    "duration": 0.2481880583333691
                },
                {
                    "name": "C#4",
                    "midi": 61,
                    "time": 224.79135195833572,
                    "velocity": 0.44881889763779526,
                    "duration": 0.2481880583333691
                },
                {
                    "name": "F4",
                    "midi": 65,
                    "time": 225.00693136666908,
                    "velocity": 0.2677165354330709,
                    "duration": 0.3840574333333393
                },
                {
                    "name": "G4",
                    "midi": 67,
                    "time": 225.00693136666908,
                    "velocity": 0.2677165354330709,
                    "duration": 0.3840574333333393
                },
                {
                    "name": "E4",
                    "midi": 64,
                    "time": 225.00693136666908,
                    "velocity": 0.41732283464566927,
                    "duration": 2.0217363000001
                },
                {
                    "name": "E3",
                    "midi": 52,
                    "time": 225.01146034583576,
                    "velocity": 0.28346456692913385,
                    "duration": 1.967388550000095
                },
                {
                    "name": "F3",
                    "midi": 53,
                    "time": 225.0150835291691,
                    "velocity": 0.18110236220472442,
                    "duration": 0.34963719166665896
                },
                {
                    "name": "G3",
                    "midi": 55,
                    "time": 225.01598932500244,
                    "velocity": 0.31496062992125984,
                    "duration": 0.3505429874999777
                },
                {
                    "name": "G3",
                    "midi": 55,
                    "time": 225.4417133666691,
                    "velocity": 0.23622047244094488,
                    "duration": 0.36775310833331787
                },
                {
                    "name": "F3",
                    "midi": 53,
                    "time": 225.44533655000242,
                    "velocity": 0.2440944881889764,
                    "duration": 0.3641299249999861
                },
                {
                    "name": "G4",
                    "midi": 67,
                    "time": 225.44533655000242,
                    "velocity": 0.23622047244094488,
                    "duration": 0.37952845416666037
                },
                {
                    "name": "F4",
                    "midi": 65,
                    "time": 225.44533655000242,
                    "velocity": 0.23622047244094488,
                    "duration": 0.37952845416666037
                },
                {
                    "name": "F4",
                    "midi": 65,
                    "time": 225.44533655000242,
                    "velocity": 0.23622047244094488,
                    "duration": 0.37952845416666037
                },
                {
                    "name": "G4",
                    "midi": 67,
                    "time": 225.8692490000024,
                    "velocity": 0.2125984251968504,
                    "duration": 0.3614125375000299
                },
                {
                    "name": "F4",
                    "midi": 65,
                    "time": 225.87015479583576,
                    "velocity": 0.23622047244094488,
                    "duration": 0.36050674166668273
                },
                {
                    "name": "G3",
                    "midi": 55,
                    "time": 225.87830695833577,
                    "velocity": 0.2204724409448819,
                    "duration": 0.3387676416666636
                },
                {
                    "name": "F3",
                    "midi": 53,
                    "time": 225.87830695833577,
                    "velocity": 0.12598425196850394,
                    "duration": 0.34148502916667667
                },
                {
                    "name": "G3",
                    "midi": 55,
                    "time": 226.29859622500246,
                    "velocity": 0.25196850393700787,
                    "duration": 0.3423908250000238
                },
                {
                    "name": "F4",
                    "midi": 65,
                    "time": 226.29859622500246,
                    "velocity": 0.28346456692913385,
                    "duration": 0.3677531083333463
                },
                {
                    "name": "G4",
                    "midi": 67,
                    "time": 226.29859622500246,
                    "velocity": 0.30708661417322836,
                    "duration": 0.3677531083333463
                },
                {
                    "name": "F3",
                    "midi": 53,
                    "time": 226.30131361250247,
                    "velocity": 0.2440944881889764,
                    "duration": 0.3396734375000108
                },
                {
                    "name": "G3",
                    "midi": 55,
                    "time": 226.73066083750246,
                    "velocity": 0.29133858267716534,
                    "duration": 0.3396734375000676
                },
                {
                    "name": "F3",
                    "midi": 53,
                    "time": 226.7315666333358,
                    "velocity": 0.2677165354330709,
                    "duration": 0.33876764166672046
                },
                {
                    "name": "G4",
                    "midi": 67,
                    "time": 226.73337822500247,
                    "velocity": 0.31496062992125984,
                    "duration": 0.3532603750000476
                },
                {
                    "name": "F4",
                    "midi": 65,
                    "time": 226.73428402083582,
                    "velocity": 0.31496062992125984,
                    "duration": 0.3532603750000476
                },
                {
                    "name": "D4",
                    "midi": 62,
                    "time": 226.96797934583583,
                    "velocity": 0.4015748031496063,
                    "duration": 0.49365872916672515
                },
                {
                    "name": "D3",
                    "midi": 50,
                    "time": 226.9725083250025,
                    "velocity": 0.33070866141732286,
                    "duration": 0.4664848541667084
                },
                {
                    "name": "G4",
                    "midi": 67,
                    "time": 227.16272545000254,
                    "velocity": 0.25984251968503935,
                    "duration": 0.3496371916666874
                },
                {
                    "name": "F4",
                    "midi": 65,
                    "time": 227.16272545000254,
                    "velocity": 0.2677165354330709,
                    "duration": 0.35235457916670043
                },
                {
                    "name": "G3",
                    "midi": 55,
                    "time": 227.16634863333587,
                    "velocity": 0.29133858267716534,
                    "duration": 0.34691980416670276
                },
                {
                    "name": "F3",
                    "midi": 53,
                    "time": 227.16634863333587,
                    "velocity": 0.30708661417322836,
                    "duration": 0.34510821250000845
                },
                {
                    "name": "C#4",
                    "midi": 61,
                    "time": 227.40457293750254,
                    "velocity": 0.4330708661417323,
                    "duration": 0.4601442833334204
                },
                {
                    "name": "C#3",
                    "midi": 49,
                    "time": 227.40547873333588,
                    "velocity": 0.3700787401574803,
                    "duration": 0.4347820000000695
                },
                {
                    "name": "F4",
                    "midi": 65,
                    "time": 227.58844949166925,
                    "velocity": 0.3228346456692913,
                    "duration": 0.38043425000006437
                },
                {
                    "name": "G4",
                    "midi": 67,
                    "time": 227.58844949166925,
                    "velocity": 0.36220472440944884,
                    "duration": 0.3786226583333985
                },
                {
                    "name": "G3",
                    "midi": 55,
                    "time": 227.59116687916926,
                    "velocity": 0.3228346456692913,
                    "duration": 0.3731878833333724
                },
                {
                    "name": "F3",
                    "midi": 53,
                    "time": 227.59388426666928,
                    "velocity": 0.29133858267716534,
                    "duration": 0.3677531083333463
                },
                {
                    "name": "B3",
                    "midi": 59,
                    "time": 227.83029697916928,
                    "velocity": 0.3858267716535433,
                    "duration": 0.383151637500049
                },
                {
                    "name": "B2",
                    "midi": 47,
                    "time": 227.83573175416927,
                    "velocity": 0.4330708661417323,
                    "duration": 0.37228208750005365
                },
                {
                    "name": "G3",
                    "midi": 55,
                    "time": 228.044064795836,
                    "velocity": 0.15748031496062992,
                    "duration": 0.31159376666667526
                },
                {
                    "name": "F3",
                    "midi": 53,
                    "time": 228.04768797916932,
                    "velocity": 0.15748031496062992,
                    "duration": 0.31340535833334116
                },
                {
                    "name": "F4",
                    "midi": 65,
                    "time": 228.05131116250266,
                    "velocity": 0.12598425196850394,
                    "duration": 0.32970968333333417
                },
                {
                    "name": "G4",
                    "midi": 67,
                    "time": 228.052216958336,
                    "velocity": 0.12598425196850394,
                    "duration": 0.328803887499987
                },
                {
                    "name": "B3",
                    "midi": 59,
                    "time": 228.250586245836,
                    "velocity": 0.4330708661417323,
                    "duration": 2.2128592208334794
                },
                {
                    "name": "B2",
                    "midi": 47,
                    "time": 228.253303633336,
                    "velocity": 0.4094488188976378,
                    "duration": 2.2291635458334724
                },
                {
                    "name": "A1",
                    "midi": 33,
                    "time": 228.405477333336,
                    "velocity": 0.28346456692913385,
                    "duration": 0.14492733333332808
                },
                {
                    "name": "A3",
                    "midi": 57,
                    "time": 228.486998958336,
                    "velocity": 0.2755905511811024,
                    "duration": 0.3559777625000038
                },
                {
                    "name": "G3",
                    "midi": 55,
                    "time": 228.486998958336,
                    "velocity": 0.25984251968503935,
                    "duration": 0.352354579166672
                },
                {
                    "name": "G4",
                    "midi": 67,
                    "time": 228.48881055000265,
                    "velocity": 0.23622047244094488,
                    "duration": 0.3559777625000038
                },
                {
                    "name": "A4",
                    "midi": 69,
                    "time": 228.489716345836,
                    "velocity": 0.28346456692913385,
                    "duration": 0.35507196666665664
                },
                {
                    "name": "A1",
                    "midi": 33,
                    "time": 228.55040466666932,
                    "velocity": 0.2283464566929134,
                    "duration": 0.5797093333333407
                },
                {
                    "name": "C#3",
                    "midi": 49,
                    "time": 228.69533200000265,
                    "velocity": 0.3858267716535433,
                    "duration": 0.43478200000001266
                },
                {
                    "name": "A4",
                    "midi": 69,
                    "time": 228.93717948750265,
                    "velocity": 0.2204724409448819,
                    "duration": 0.319745929166686
                },
                {
                    "name": "G4",
                    "midi": 67,
                    "time": 228.9389910791693,
                    "velocity": 0.1968503937007874,
                    "duration": 0.32065172500003314
                },
                {
                    "name": "A3",
                    "midi": 57,
                    "time": 228.94080267083598,
                    "velocity": 0.1968503937007874,
                    "duration": 0.3215575208333803
                },
                {
                    "name": "G3",
                    "midi": 55,
                    "time": 228.94170846666933,
                    "velocity": 0.2204724409448819,
                    "duration": 0.3179343375000201
                },
                {
                    "name": "G4",
                    "midi": 67,
                    "time": 229.34297602083603,
                    "velocity": 0.16535433070866143,
                    "duration": 0.3115937666667037
                },
                {
                    "name": "A4",
                    "midi": 69,
                    "time": 229.34297602083603,
                    "velocity": 0.18110236220472442,
                    "duration": 0.3115937666667037
                },
                {
                    "name": "A3",
                    "midi": 57,
                    "time": 229.34841079583603,
                    "velocity": 0.2047244094488189,
                    "duration": 0.2998184208333612
                },
                {
                    "name": "G3",
                    "midi": 55,
                    "time": 229.34931659166938,
                    "velocity": 0.2204724409448819,
                    "duration": 0.2980068291666669
                },
                {
                    "name": "G4",
                    "midi": 67,
                    "time": 229.76326528750275,
                    "velocity": 0.12598425196850394,
                    "duration": 0.3460140083333556
                },
                {
                    "name": "A4",
                    "midi": 69,
                    "time": 229.76326528750275,
                    "velocity": 0.14173228346456693,
                    "duration": 0.3460140083333556
                },
                {
                    "name": "G3",
                    "midi": 55,
                    "time": 229.76326528750275,
                    "velocity": 0.2047244094488189,
                    "duration": 0.3378618458333449
                },
                {
                    "name": "A3",
                    "midi": 57,
                    "time": 229.7650768791694,
                    "velocity": 0.2047244094488189,
                    "duration": 0.336050254166679
                },
                {
                    "name": "G3",
                    "midi": 55,
                    "time": 230.20801104166944,
                    "velocity": 0.1968503937007874,
                    "duration": 0.36412992500004293
                },
                {
                    "name": "A4",
                    "midi": 69,
                    "time": 230.20801104166944,
                    "velocity": 0.2047244094488189,
                    "duration": 0.37228208750005365
                },
                {
                    "name": "G4",
                    "midi": 67,
                    "time": 230.20891683750278,
                    "velocity": 0.1968503937007874,
                    "duration": 0.37228208750005365
                },
                {
                    "name": "A3",
                    "midi": 57,
                    "time": 230.21072842916945,
                    "velocity": 0.2125984251968504,
                    "duration": 0.36231833333337704
                },
                {
                    "name": "A#3",
                    "midi": 58,
                    "time": 230.42540204166946,
                    "velocity": 0.2047244094488189,
                    "duration": 0.42934722500007183
                },
                {
                    "name": "A#2",
                    "midi": 46,
                    "time": 230.44985852916946,
                    "velocity": 0.2047244094488189,
                    "duration": 0.40036175833338916
                },
                {
                    "name": "A3",
                    "midi": 57,
                    "time": 230.65728577500283,
                    "velocity": 0.1889763779527559,
                    "duration": 0.2228257750000182
                },
                {
                    "name": "G3",
                    "midi": 55,
                    "time": 230.65819157083618,
                    "velocity": 0.1732283464566929,
                    "duration": 0.2228257750000182
                },
                {
                    "name": "A4",
                    "midi": 69,
                    "time": 230.6618147541695,
                    "velocity": 0.16535433070866143,
                    "duration": 0.22101418333335232
                },
                {
                    "name": "G4",
                    "midi": 67,
                    "time": 230.66272055000286,
                    "velocity": 0.15748031496062992,
                    "duration": 0.22010838750000516
                },
                {
                    "name": "A#2",
                    "midi": 46,
                    "time": 230.86924200000286,
                    "velocity": 0.2125984251968504,
                    "duration": 0.14492733333332808
                },
                {
                    "name": "A#3",
                    "midi": 58,
                    "time": 230.86924200000286,
                    "velocity": 0.29133858267716534,
                    "duration": 0.14492733333332808
                },
                {
                    "name": "B3",
                    "midi": 59,
                    "time": 231.01416933333618,
                    "velocity": 0.2125984251968504,
                    "duration": 0.14492733333332808
                },
                {
                    "name": "B2",
                    "midi": 47,
                    "time": 231.01416933333618,
                    "velocity": 0.41732283464566927,
                    "duration": 0.14492733333332808
                },
                {
                    "name": "A#2",
                    "midi": 46,
                    "time": 231.1590966666695,
                    "velocity": 0.2204724409448819,
                    "duration": 0.14492733333332808
                },
                {
                    "name": "A#3",
                    "midi": 58,
                    "time": 231.1590966666695,
                    "velocity": 0.25984251968503935,
                    "duration": 0.14492733333332808
                },
                {
                    "name": "F#3",
                    "midi": 54,
                    "time": 231.30402400000284,
                    "velocity": 0.36220472440944884,
                    "duration": 0.8695640000000253
                },
                {
                    "name": "F#4",
                    "midi": 66,
                    "time": 231.30402400000284,
                    "velocity": 0.3228346456692913,
                    "duration": 0.8695640000000253
                },
                {
                    "name": "B3",
                    "midi": 59,
                    "time": 231.5313787541695,
                    "velocity": 0.11811023622047244,
                    "duration": 0.3378618458333449
                },
                {
                    "name": "A3",
                    "midi": 57,
                    "time": 231.53228455000286,
                    "velocity": 0.16535433070866143,
                    "duration": 0.3405792333333295
                },
                {
                    "name": "B4",
                    "midi": 71,
                    "time": 231.5413425083362,
                    "velocity": 0.3464566929133858,
                    "duration": 0.32518070416665523
                },
                {
                    "name": "A4",
                    "midi": 69,
                    "time": 231.5413425083362,
                    "velocity": 0.3543307086614173,
                    "duration": 0.32336911249998934
                },
                {
                    "name": "A3",
                    "midi": 57,
                    "time": 231.95076222500285,
                    "velocity": 0.3464566929133858,
                    "duration": 0.3840574333333393
                },
                {
                    "name": "B3",
                    "midi": 59,
                    "time": 231.9516680208362,
                    "velocity": 0.30708661417322836,
                    "duration": 0.3876806166666711
                },
                {
                    "name": "B4",
                    "midi": 71,
                    "time": 231.95891438750286,
                    "velocity": 0.2283464566929134,
                    "duration": 0.3813400458333547
                },
                {
                    "name": "A4",
                    "midi": 69,
                    "time": 231.96072597916952,
                    "velocity": 0.2204724409448819,
                    "duration": 0.37862265833334163
                },
                {
                    "name": "D2",
                    "midi": 38,
                    "time": 232.17358800000287,
                    "velocity": 0.2204724409448819,
                    "duration": 0.06521730000000048
                },
                {
                    "name": "A1",
                    "midi": 33,
                    "time": 232.3909790000029,
                    "velocity": 0.2204724409448819,
                    "duration": 0.08514480833338212
                },
                {
                    "name": "A2",
                    "midi": 45,
                    "time": 232.3909790000029,
                    "velocity": 0.4015748031496063,
                    "duration": 0.06793468750004195
                },
                {
                    "name": "B3",
                    "midi": 59,
                    "time": 232.40818912083623,
                    "velocity": 0.2125984251968504,
                    "duration": 0.35054298750006296
                },
                {
                    "name": "A3",
                    "midi": 57,
                    "time": 232.40909491666957,
                    "velocity": 0.2047244094488189,
                    "duration": 0.35054298750006296
                },
                {
                    "name": "B4",
                    "midi": 71,
                    "time": 232.42087026250292,
                    "velocity": 0.1732283464566929,
                    "duration": 0.3378618458333733
                },
                {
                    "name": "A4",
                    "midi": 69,
                    "time": 232.42268185416958,
                    "velocity": 0.14960629921259844,
                    "duration": 0.3360502541667074
                },
                {
                    "name": "D2",
                    "midi": 38,
                    "time": 232.60837000000294,
                    "velocity": 0.1968503937007874,
                    "duration": 0.11050709166667616
                },
                {
                    "name": "A3",
                    "midi": 57,
                    "time": 232.83028997916963,
                    "velocity": 0.2125984251968504,
                    "duration": 0.34510821250003687
                },
                {
                    "name": "B3",
                    "midi": 59,
                    "time": 232.83119577500298,
                    "velocity": 0.2204724409448819,
                    "duration": 0.34148502916667667
                },
                {
                    "name": "B4",
                    "midi": 71,
                    "time": 232.83300736666965,
                    "velocity": 0.2283464566929134,
                    "duration": 0.33695604999999773
                },
                {
                    "name": "A4",
                    "midi": 69,
                    "time": 232.83300736666965,
                    "velocity": 0.2204724409448819,
                    "duration": 0.33514445833333184
                },
                {
                    "name": "D2",
                    "midi": 38,
                    "time": 233.04315200000298,
                    "velocity": 0.2047244094488189,
                    "duration": 0.06974627916667941
                },
                {
                    "name": "B4",
                    "midi": 71,
                    "time": 233.24876765416968,
                    "velocity": 0.1889763779527559,
                    "duration": 0.34873139583336865
                },
                {
                    "name": "A4",
                    "midi": 69,
                    "time": 233.2514850416697,
                    "velocity": 0.1889763779527559,
                    "duration": 0.3442024166666897
                },
                {
                    "name": "A3",
                    "midi": 57,
                    "time": 233.2542024291697,
                    "velocity": 0.2755905511811024,
                    "duration": 0.3460140083333556
                },
                {
                    "name": "B3",
                    "midi": 59,
                    "time": 233.25510822500306,
                    "velocity": 0.2440944881889764,
                    "duration": 0.3442024166666613
                },
                {
                    "name": "A1",
                    "midi": 33,
                    "time": 233.26054300000305,
                    "velocity": 0.29133858267716534,
                    "duration": 0.07880423750000887
                },
                {
                    "name": "A2",
                    "midi": 45,
                    "time": 233.26054300000305,
                    "velocity": 0.29133858267716534,
                    "duration": 0.07971003333335602
                },
                {
                    "name": "D2",
                    "midi": 38,
                    "time": 233.47793400000307,
                    "velocity": 0.2440944881889764,
                    "duration": 0.05887672916665565
                },
                {
                    "name": "B3",
                    "midi": 59,
                    "time": 233.67630328750306,
                    "velocity": 0.1732283464566929,
                    "duration": 0.359600945833364
                },
                {
                    "name": "A3",
                    "midi": 57,
                    "time": 233.67811487916973,
                    "velocity": 0.16535433070866143,
                    "duration": 0.3577893541666981
                },
                {
                    "name": "B4",
                    "midi": 71,
                    "time": 233.6799264708364,
                    "velocity": 0.2125984251968504,
                    "duration": 0.3559777625000322
                },
                {
                    "name": "A4",
                    "midi": 69,
                    "time": 233.6799264708364,
                    "velocity": 0.2047244094488189,
                    "duration": 0.3541661708333663
                },
                {
                    "name": "A1",
                    "midi": 33,
                    "time": 233.69532500000307,
                    "velocity": 0.1889763779527559,
                    "duration": 0.0733694625000112
                },
                {
                    "name": "A2",
                    "midi": 45,
                    "time": 233.69532500000307,
                    "velocity": 0.13385826771653545,
                    "duration": 0.06793468750001352
                },
                {
                    "name": "D2",
                    "midi": 38,
                    "time": 233.9127160000031,
                    "velocity": 0.1732283464566929,
                    "duration": 0.06521730000000048
                },
                {
                    "name": "B3",
                    "midi": 59,
                    "time": 234.10927369583644,
                    "velocity": 0.16535433070866143,
                    "duration": 0.3795284541666888
                },
                {
                    "name": "A3",
                    "midi": 57,
                    "time": 234.11199108333645,
                    "velocity": 0.1889763779527559,
                    "duration": 0.3759052708333286
                },
                {
                    "name": "B4",
                    "midi": 71,
                    "time": 234.11561426666978,
                    "velocity": 0.2204724409448819,
                    "duration": 0.37318788333334396
                },
                {
                    "name": "A4",
                    "midi": 69,
                    "time": 234.11652006250313,
                    "velocity": 0.2204724409448819,
                    "duration": 0.37137629166664965
                },
                {
                    "name": "D2",
                    "midi": 38,
                    "time": 234.34749800000313,
                    "velocity": 0.2047244094488189,
                    "duration": 0.06249991249998743
                },
                {
                    "name": "B3",
                    "midi": 59,
                    "time": 234.54767887916978,
                    "velocity": 0.2125984251968504,
                    "duration": 0.3795284541667172
                },
                {
                    "name": "A3",
                    "midi": 57,
                    "time": 234.54949047083645,
                    "velocity": 0.2204724409448819,
                    "duration": 0.3777168625000513
                },
                {
                    "name": "B4",
                    "midi": 71,
                    "time": 234.5503962666698,
                    "velocity": 0.2204724409448819,
                    "duration": 0.3731878833333724
                },
                {
                    "name": "A4",
                    "midi": 69,
                    "time": 234.55130206250314,
                    "velocity": 0.2204724409448819,
                    "duration": 0.37047049583335934
                },
                {
                    "name": "A2",
                    "midi": 45,
                    "time": 234.56488900000315,
                    "velocity": 0.3228346456692913,
                    "duration": 0.09057958333335137
                },
                {
                    "name": "A1",
                    "midi": 33,
                    "time": 234.56488900000315,
                    "velocity": 0.2047244094488189,
                    "duration": 0.08242742083334065
                },
                {
                    "name": "D2",
                    "midi": 38,
                    "time": 234.78228000000317,
                    "velocity": 0.2440944881889764,
                    "duration": 0.06249991249998743
                },
                {
                    "name": "B4",
                    "midi": 71,
                    "time": 234.9815550833365,
                    "velocity": 0.25984251968503935,
                    "duration": 0.3614125375000299
                },
                {
                    "name": "A4",
                    "midi": 69,
                    "time": 234.9815550833365,
                    "velocity": 0.2755905511811024,
                    "duration": 0.359600945833364
                },
                {
                    "name": "B3",
                    "midi": 59,
                    "time": 234.98246087916985,
                    "velocity": 0.2440944881889764,
                    "duration": 0.3623183333333486
                },
                {
                    "name": "A3",
                    "midi": 57,
                    "time": 234.9833666750032,
                    "velocity": 0.2677165354330709,
                    "duration": 0.36141253750000146
                },
                {
                    "name": "D2",
                    "midi": 38,
                    "time": 235.2170620000032,
                    "velocity": 0.1968503937007874,
                    "duration": 0.06884048333333226
                },
                {
                    "name": "B4",
                    "midi": 71,
                    "time": 235.4099965125032,
                    "velocity": 0.36220472440944884,
                    "duration": 0.36503572083333324
                },
                {
                    "name": "B3",
                    "midi": 59,
                    "time": 235.4099965125032,
                    "velocity": 0.25984251968503935,
                    "duration": 0.36503572083333324
                },
                {
                    "name": "A4",
                    "midi": 69,
                    "time": 235.4099965125032,
                    "velocity": 0.36220472440944884,
                    "duration": 0.3641299249999861
                },
                {
                    "name": "A3",
                    "midi": 57,
                    "time": 235.41180810416986,
                    "velocity": 0.2677165354330709,
                    "duration": 0.3641299250000145
                },
                {
                    "name": "A2",
                    "midi": 45,
                    "time": 235.4344530000032,
                    "velocity": 0.3858267716535433,
                    "duration": 0.06884048333333226
                },
                {
                    "name": "A1",
                    "midi": 33,
                    "time": 235.4344530000032,
                    "velocity": 0.36220472440944884,
                    "duration": 0.048912975000007464
                },
                {
                    "name": "D2",
                    "midi": 38,
                    "time": 235.6518440000032,
                    "velocity": 0.25196850393700787,
                    "duration": 0.05887672916665565
                },
                {
                    "name": "B4",
                    "midi": 71,
                    "time": 235.83300316666987,
                    "velocity": 0.4409448818897638,
                    "duration": 0.39130380000000287
                },
                {
                    "name": "A4",
                    "midi": 69,
                    "time": 235.83300316666987,
                    "velocity": 0.4330708661417323,
                    "duration": 0.389492208333337
                },
                {
                    "name": "B3",
                    "midi": 59,
                    "time": 235.83572055416988,
                    "velocity": 0.4409448818897638,
                    "duration": 0.3885864124999898
                },
                {
                    "name": "A3",
                    "midi": 57,
                    "time": 235.83572055416988,
                    "velocity": 0.4409448818897638,
                    "duration": 0.389492208333337
                },
                {
                    "name": "A1",
                    "midi": 33,
                    "time": 235.86923500000321,
                    "velocity": 0.29133858267716534,
                    "duration": 0.052536158333339245
                },
                {
                    "name": "A2",
                    "midi": 45,
                    "time": 235.86923500000321,
                    "velocity": 0.4409448818897638,
                    "duration": 0.07789844166666171
                },
                {
                    "name": "D2",
                    "midi": 38,
                    "time": 236.0866260000032,
                    "velocity": 0.4645669291338583,
                    "duration": 0.0715578708333453
                },
                {
                    "name": "B4",
                    "midi": 71,
                    "time": 236.2822779000032,
                    "velocity": 0.23622047244094488,
                    "duration": 0.38677482083335235
                },
                {
                    "name": "A4",
                    "midi": 69,
                    "time": 236.28408949166987,
                    "velocity": 0.3543307086614173,
                    "duration": 0.38315163750002057
                },
                {
                    "name": "B3",
                    "midi": 59,
                    "time": 236.29043006250322,
                    "velocity": 0.4330708661417323,
                    "duration": 0.37318788333334396
                },
                {
                    "name": "A3",
                    "midi": 57,
                    "time": 236.29043006250322,
                    "velocity": 0.44881889763779526,
                    "duration": 0.3722820874999968
                },
                {
                    "name": "A1",
                    "midi": 33,
                    "time": 236.52140800000322,
                    "velocity": 0.3858267716535433,
                    "duration": 0.0914853791666701
                },
                {
                    "name": "A4",
                    "midi": 69,
                    "time": 236.72340047083657,
                    "velocity": 0.44881889763779526,
                    "duration": 0.359600945833364
                },
                {
                    "name": "B4",
                    "midi": 71,
                    "time": 236.72340047083657,
                    "velocity": 0.44881889763779526,
                    "duration": 0.35869515000001684
                },
                {
                    "name": "B3",
                    "midi": 59,
                    "time": 236.72611785833658,
                    "velocity": 0.4330708661417323,
                    "duration": 0.35507196666665664
                },
                {
                    "name": "A3",
                    "midi": 57,
                    "time": 236.72611785833658,
                    "velocity": 0.47244094488188976,
                    "duration": 0.35507196666665664
                },
                {
                    "name": "D2",
                    "midi": 38,
                    "time": 236.73879900000324,
                    "velocity": 0.47244094488188976,
                    "duration": 0.10235492916666544
                },
                {
                    "name": "A2",
                    "midi": 45,
                    "time": 236.95619000000323,
                    "velocity": 0.4881889763779528,
                    "duration": 0.1032607250000126
                },
                {
                    "name": "A4",
                    "midi": 69,
                    "time": 237.1608998583366,
                    "velocity": 0.47244094488188976,
                    "duration": 0.3614125375000583
                },
                {
                    "name": "B4",
                    "midi": 71,
                    "time": 237.1608998583366,
                    "velocity": 0.5039370078740157,
                    "duration": 0.3632241291667242
                },
                {
                    "name": "B3",
                    "midi": 59,
                    "time": 237.1636172458366,
                    "velocity": 0.4015748031496063,
                    "duration": 0.3577893541666981
                },
                {
                    "name": "A3",
                    "midi": 57,
                    "time": 237.1636172458366,
                    "velocity": 0.44881889763779526,
                    "duration": 0.36050674166671115
                },
                {
                    "name": "D3",
                    "midi": 50,
                    "time": 237.17358100000328,
                    "velocity": 0.4330708661417323,
                    "duration": 0.14764472083334113
                },
                {
                    "name": "D2",
                    "midi": 38,
                    "time": 237.3909720000033,
                    "velocity": 0.5354330708661418,
                    "duration": 0.11231868333334205
                },
                {
                    "name": "A4",
                    "midi": 69,
                    "time": 237.59296447083665,
                    "velocity": 0.5039370078740157,
                    "duration": 0.38134004583332626
                },
                {
                    "name": "B4",
                    "midi": 71,
                    "time": 237.59296447083665,
                    "velocity": 0.5984251968503937,
                    "duration": 0.3822458416666734
                },
                {
                    "name": "B3",
                    "midi": 59,
                    "time": 237.59658765416998,
                    "velocity": 0.4330708661417323,
                    "duration": 0.38315163750002057
                },
                {
                    "name": "A3",
                    "midi": 57,
                    "time": 237.59658765416998,
                    "velocity": 0.4881889763779528,
                    "duration": 0.38315163750002057
                },
                {
                    "name": "A2",
                    "midi": 45,
                    "time": 237.60836300000332,
                    "velocity": 0.5039370078740157,
                    "duration": 0.16304324999998698
                },
                {
                    "name": "D3",
                    "midi": 50,
                    "time": 237.82575400000331,
                    "velocity": 0.5669291338582677,
                    "duration": 0.15398529166668595
                },
                {
                    "name": "A4",
                    "midi": 69,
                    "time": 238.02412328750333,
                    "velocity": 0.5984251968503937,
                    "duration": 0.1730070041666636
                },
                {
                    "name": "B4",
                    "midi": 71,
                    "time": 238.02593487917,
                    "velocity": 0.6299212598425197,
                    "duration": 0.1730070041666636
                },
                {
                    "name": "A3",
                    "midi": 57,
                    "time": 238.02774647083666,
                    "velocity": 0.4881889763779528,
                    "duration": 0.14402153750000934
                },
                {
                    "name": "B3",
                    "midi": 59,
                    "time": 238.02865226667,
                    "velocity": 0.4409448818897638,
                    "duration": 0.17028961666665055
                },
                {
                    "name": "A3",
                    "midi": 57,
                    "time": 238.04314500000334,
                    "velocity": 0.6692913385826772,
                    "duration": 0.16576063750000003
                },
                {
                    "name": "A2",
                    "midi": 45,
                    "time": 238.26053600000333,
                    "velocity": 0.4881889763779528,
                    "duration": 0.10869550000001027
                },
                {
                    "name": "A3",
                    "midi": 57,
                    "time": 238.36923150000334,
                    "velocity": 0.5354330708661418,
                    "duration": 0.10869550000001027
                },
                {
                    "name": "A3",
                    "midi": 57,
                    "time": 238.47792700000335,
                    "velocity": 0.6692913385826772,
                    "duration": 0.10869550000001027
                },
                {
                    "name": "A4",
                    "midi": 69,
                    "time": 238.58662250000336,
                    "velocity": 0.5669291338582677,
                    "duration": 0.10869550000001027
                },
                {
                    "name": "A2",
                    "midi": 45,
                    "time": 238.69531800000337,
                    "velocity": 0.4645669291338583,
                    "duration": 0.10869550000001027
                },
                {
                    "name": "A3",
                    "midi": 57,
                    "time": 238.80401350000338,
                    "velocity": 0.5039370078740157,
                    "duration": 0.10869550000001027
                },
                {
                    "name": "A3",
                    "midi": 57,
                    "time": 238.9127090000034,
                    "velocity": 0.4881889763779528,
                    "duration": 0.10869550000001027
                },
                {
                    "name": "A4",
                    "midi": 69,
                    "time": 239.0214045000034,
                    "velocity": 0.44881889763779526,
                    "duration": 0.10869550000001027
                },
                {
                    "name": "A4",
                    "midi": 69,
                    "time": 239.1301000000034,
                    "velocity": 0.5039370078740157,
                    "duration": 0.10869550000001027
                },
                {
                    "name": "A5",
                    "midi": 81,
                    "time": 239.23879550000342,
                    "velocity": 0.4409448818897638,
                    "duration": 0.10869550000001027
                },
                {
                    "name": "A3",
                    "midi": 57,
                    "time": 239.34749100000343,
                    "velocity": 0.4881889763779528,
                    "duration": 0.10869549999998185
                },
                {
                    "name": "A4",
                    "midi": 69,
                    "time": 239.4561865000034,
                    "velocity": 0.6299212598425197,
                    "duration": 0.10869550000001027
                },
                {
                    "name": "A4",
                    "midi": 69,
                    "time": 239.56488200000342,
                    "velocity": 0.5354330708661418,
                    "duration": 0.10869550000001027
                },
                {
                    "name": "A5",
                    "midi": 81,
                    "time": 239.67357750000343,
                    "velocity": 0.5669291338582677,
                    "duration": 0.10869550000001027
                },
                {
                    "name": "A5",
                    "midi": 81,
                    "time": 239.78227300000344,
                    "velocity": 0.5984251968503937,
                    "duration": 0.10869550000001027
                },
                {
                    "name": "A6",
                    "midi": 93,
                    "time": 239.89096850000345,
                    "velocity": 0.6692913385826772,
                    "duration": 0.10869550000001027
                },
                {
                    "name": "A4",
                    "midi": 69,
                    "time": 239.99966400000346,
                    "velocity": 0.6299212598425197,
                    "duration": 0.10869550000001027
                },
                {
                    "name": "A5",
                    "midi": 81,
                    "time": 240.10835950000347,
                    "velocity": 0.5669291338582677,
                    "duration": 0.10869550000001027
                },
                {
                    "name": "A5",
                    "midi": 81,
                    "time": 240.21705500000348,
                    "velocity": 0.7716535433070866,
                    "duration": 0.10869550000001027
                },
                {
                    "name": "A6",
                    "midi": 93,
                    "time": 240.3257505000035,
                    "velocity": 0.5984251968503937,
                    "duration": 0.10869550000001027
                },
                {
                    "name": "A6",
                    "midi": 93,
                    "time": 240.4344460000035,
                    "velocity": 0.5984251968503937,
                    "duration": 0.10869550000001027
                },
                {
                    "name": "A7",
                    "midi": 105,
                    "time": 240.54314150000351,
                    "velocity": 0.7322834645669292,
                    "duration": 0.10869550000001027
                },
                {
                    "name": "A5",
                    "midi": 81,
                    "time": 240.57122117083685,
                    "velocity": 0.44881889763779526,
                    "duration": 0.43478200000001266
                },
                {
                    "name": "B5",
                    "midi": 83,
                    "time": 240.5938660666702,
                    "velocity": 0.5039370078740157,
                    "duration": 0.43478200000001266
                },
                {
                    "name": "D6",
                    "midi": 86,
                    "time": 240.62013414583686,
                    "velocity": 0.5354330708661418,
                    "duration": 0.43478200000001266
                },
                {
                    "name": "F#6",
                    "midi": 90,
                    "time": 240.63462687917018,
                    "velocity": 0.5984251968503937,
                    "duration": 0.43478200000001266
                },
                {
                    "name": "A4",
                    "midi": 69,
                    "time": 240.65183700000352,
                    "velocity": 0.6692913385826772,
                    "duration": 0.23822430416666407
                },
                {
                    "name": "A6",
                    "midi": 93,
                    "time": 240.65455438750354,
                    "velocity": 0.6299212598425197,
                    "duration": 0.43478200000001266
                },
                {
                    "name": "B6",
                    "midi": 95,
                    "time": 240.6726703041702,
                    "velocity": 0.7007874015748031,
                    "duration": 0.43478200000001266
                },
                {
                    "name": "A5",
                    "midi": 81,
                    "time": 240.86922800000352,
                    "velocity": 0.6692913385826772,
                    "duration": 0.16757222916669434
                },
                {
                    "name": "A5",
                    "midi": 81,
                    "time": 241.08661900000354,
                    "velocity": 0.6692913385826772,
                    "duration": 0.16394904583336256
                },
                {
                    "name": "C#7",
                    "midi": 97,
                    "time": 241.08661900000354,
                    "velocity": 0.6220472440944882,
                    "duration": 0.054347750000005135
                },
                {
                    "name": "B6",
                    "midi": 95,
                    "time": 241.14096675000354,
                    "velocity": 0.6929133858267716,
                    "duration": 0.054347750000005135
                },
                {
                    "name": "A#6",
                    "midi": 94,
                    "time": 241.19531450000355,
                    "velocity": 0.7165354330708661,
                    "duration": 0.054347750000005135
                },
                {
                    "name": "B6",
                    "midi": 95,
                    "time": 241.24966225000355,
                    "velocity": 0.7559055118110236,
                    "duration": 0.054347750000005135
                },
                {
                    "name": "A4",
                    "midi": 69,
                    "time": 241.30401000000356,
                    "velocity": 0.6220472440944882,
                    "duration": 0.15942006666668362
                },
                {
                    "name": "D#5",
                    "midi": 75,
                    "time": 241.44259676250357,
                    "velocity": 0.5826771653543307,
                    "duration": 0.6277165125000863
                },
                {
                    "name": "G5",
                    "midi": 79,
                    "time": 241.45256051667025,
                    "velocity": 0.44881889763779526,
                    "duration": 0.5978252500000565
                },
                {
                    "name": "A#5",
                    "midi": 82,
                    "time": 241.47792280000357,
                    "velocity": 0.4251968503937008,
                    "duration": 0.5788035375000788
                },
                {
                    "name": "D6",
                    "midi": 86,
                    "time": 241.49694451250357,
                    "velocity": 0.5196850393700787,
                    "duration": 0.4945645250000439
                },
                {
                    "name": "G6",
                    "midi": 91,
                    "time": 241.51415463333691,
                    "velocity": 0.5354330708661418,
                    "duration": 0.5163036250000346
                },
                {
                    "name": "A#6",
                    "midi": 94,
                    "time": 241.52321259167024,
                    "velocity": 0.5354330708661418,
                    "duration": 0.4673906500000271
                },
                {
                    "name": "D7",
                    "midi": 98,
                    "time": 241.5494806708369,
                    "velocity": 0.6771653543307087,
                    "duration": 0.4963761166667098
                },
                {
                    "name": "A5",
                    "midi": 81,
                    "time": 241.7387920000036,
                    "velocity": 0.5748031496062992,
                    "duration": 0.1594200666666552
                },
                {
                    "name": "A5",
                    "midi": 81,
                    "time": 241.9561830000036,
                    "velocity": 0.5196850393700787,
                    "duration": 0.1422099458334003
                },
                {
                    "name": "E5",
                    "midi": 76,
                    "time": 242.111979883337,
                    "velocity": 0.3779527559055118,
                    "duration": 0.47373122083337194
                },
                {
                    "name": "G5",
                    "midi": 79,
                    "time": 242.128284208337,
                    "velocity": 0.3779527559055118,
                    "duration": 0.46195587500005786
                },
                {
                    "name": "B5",
                    "midi": 83,
                    "time": 242.139153758337,
                    "velocity": 0.3464566929133858,
                    "duration": 0.4492747333333966
                },
                {
                    "name": "C#6",
                    "midi": 85,
                    "time": 242.16723342917032,
                    "velocity": 0.3779527559055118,
                    "duration": 0.41847767500004807
                },
                {
                    "name": "G6",
                    "midi": 91,
                    "time": 242.18172616250365,
                    "velocity": 0.3779527559055118,
                    "duration": 0.406702329166734
                },
                {
                    "name": "B6",
                    "midi": 95,
                    "time": 242.188066733337,
                    "velocity": 0.3779527559055118,
                    "duration": 0.3976443708333761
                },
                {
                    "name": "C#7",
                    "midi": 97,
                    "time": 242.20527685417034,
                    "velocity": 0.3779527559055118,
                    "duration": 0.3849632291667149
                },
                {
                    "name": "A4",
                    "midi": 69,
                    "time": 242.3909650000037,
                    "velocity": 0.4330708661417323,
                    "duration": 0.13768096666666452
                },
                {
                    "name": "F#4",
                    "midi": 66,
                    "time": 242.53860972083703,
                    "velocity": 0.2992125984251969,
                    "duration": 0.48369497500007697
                },
                {
                    "name": "B4",
                    "midi": 71,
                    "time": 242.55581984167037,
                    "velocity": 0.25984251968503935,
                    "duration": 0.46557905833338964
                },
                {
                    "name": "D5",
                    "midi": 74,
                    "time": 242.57212416667036,
                    "velocity": 0.2992125984251969,
                    "duration": 0.4492747333333966
                },
                {
                    "name": "F#5",
                    "midi": 78,
                    "time": 242.58480530833702,
                    "velocity": 0.2677165354330709,
                    "duration": 0.46648485416679364
                },
                {
                    "name": "B5",
                    "midi": 83,
                    "time": 242.5911458791704,
                    "velocity": 0.2992125984251969,
                    "duration": 0.4239124500000173
                },
                {
                    "name": "D6",
                    "midi": 86,
                    "time": 242.61650816250372,
                    "velocity": 0.3543307086614173,
                    "duration": 0.4085139208333999
                },
                {
                    "name": "F#6",
                    "midi": 90,
                    "time": 242.6319066916704,
                    "velocity": 0.33858267716535434,
                    "duration": 0.40036175833338916
                },
                {
                    "name": "A3",
                    "midi": 57,
                    "time": 242.85654405833708,
                    "velocity": 0.3228346456692913,
                    "duration": 0.20108667500008437
                },
                {
                    "name": "A4",
                    "midi": 69,
                    "time": 243.04223220417046,
                    "velocity": 0.28346456692913385,
                    "duration": 0.21920259166674327
                },
                {
                    "name": "G6",
                    "midi": 91,
                    "time": 243.0431380000038,
                    "velocity": 0.36220472440944884,
                    "duration": 0.05434775000003356
                },
                {
                    "name": "F#6",
                    "midi": 90,
                    "time": 243.09748575000384,
                    "velocity": 0.3464566929133858,
                    "duration": 0.054347750000005135
                },
                {
                    "name": "F6",
                    "midi": 89,
                    "time": 243.15183350000385,
                    "velocity": 0.33070866141732286,
                    "duration": 0.054347750000005135
                },
                {
                    "name": "F#6",
                    "midi": 90,
                    "time": 243.20618125000385,
                    "velocity": 0.3228346456692913,
                    "duration": 0.054347750000005135
                },
                {
                    "name": "A3",
                    "midi": 57,
                    "time": 243.26958695833721,
                    "velocity": 0.3228346456692913,
                    "duration": 0.13677517083334578
                },
                {
                    "name": "C4",
                    "midi": 60,
                    "time": 243.4072679250039,
                    "velocity": 0.3937007874015748,
                    "duration": 0.7219192791666842
                },
                {
                    "name": "D#4",
                    "midi": 63,
                    "time": 243.42176065833723,
                    "velocity": 0.28346456692913385,
                    "duration": 0.719201891666728
                },
                {
                    "name": "G4",
                    "midi": 67,
                    "time": 243.45618090000391,
                    "velocity": 0.4251968503937008,
                    "duration": 0.6775352833333557
                },
                {
                    "name": "B5",
                    "midi": 83,
                    "time": 243.46795624583726,
                    "velocity": 0.3464566929133858,
                    "duration": 0.6639483458333473
                },
                {
                    "name": "D#6",
                    "midi": 87,
                    "time": 243.48788375417058,
                    "velocity": 0.3228346456692913,
                    "duration": 0.663042550000057
                },
                {
                    "name": "G6",
                    "midi": 91,
                    "time": 243.49784750833726,
                    "velocity": 0.4015748031496063,
                    "duration": 0.6431150416667037
                },
                {
                    "name": "B6",
                    "midi": 95,
                    "time": 243.51777501667058,
                    "velocity": 0.5118110236220472,
                    "duration": 0.6186585541667
                },
                {
                    "name": "A4",
                    "midi": 69,
                    "time": 243.70074577500392,
                    "velocity": 0.36220472440944884,
                    "duration": 0.18568814583332482
                },
                {
                    "name": "A4",
                    "midi": 69,
                    "time": 243.93172371250392,
                    "velocity": 0.3464566929133858,
                    "duration": 0.1730070041666636
                },
                {
                    "name": "C#4",
                    "midi": 61,
                    "time": 244.0721220666706,
                    "velocity": 0.3858267716535433,
                    "duration": 0.45199212083338125
                },
                {
                    "name": "F4",
                    "midi": 65,
                    "time": 244.09748435000392,
                    "velocity": 0.3464566929133858,
                    "duration": 0.4365935916667638
                },
                {
                    "name": "G#5",
                    "midi": 80,
                    "time": 244.1183176541706,
                    "velocity": 0.2125984251968504,
                    "duration": 0.41576028750009186
                },
                {
                    "name": "A4",
                    "midi": 69,
                    "time": 244.12737561250393,
                    "velocity": 0.2992125984251969,
                    "duration": 0.39764437083340454
                },
                {
                    "name": "C#6",
                    "midi": 85,
                    "time": 244.1473031208373,
                    "velocity": 0.2755905511811024,
                    "duration": 0.38224584166670184
                },
                {
                    "name": "F6",
                    "midi": 89,
                    "time": 244.16994801667065,
                    "velocity": 0.3464566929133858,
                    "duration": 0.3614125375000299
                },
                {
                    "name": "A6",
                    "midi": 93,
                    "time": 244.19168711667064,
                    "velocity": 0.4251968503937008,
                    "duration": 0.34057923333338636
                },
                {
                    "name": "A3",
                    "midi": 57,
                    "time": 244.35201297917064,
                    "velocity": 0.2677165354330709,
                    "duration": 0.1530794958333388
                },
                {
                    "name": "D4",
                    "midi": 62,
                    "time": 244.44078097083732,
                    "velocity": 0.3779527559055118,
                    "duration": 0.5624992125000574
                },
                {
                    "name": "F#4",
                    "midi": 66,
                    "time": 244.45165052083732,
                    "velocity": 0.31496062992125984,
                    "duration": 0.5543470500000751
                },
                {
                    "name": "A4",
                    "midi": 69,
                    "time": 244.47610700833732,
                    "velocity": 0.3543307086614173,
                    "duration": 0.5317021541667373
                },
                {
                    "name": "B4",
                    "midi": 71,
                    "time": 244.5087156583373,
                    "velocity": 0.2677165354330709,
                    "duration": 0.49728191250008535
                },
                {
                    "name": "D5",
                    "midi": 74,
                    "time": 244.52411418750398,
                    "velocity": 0.4330708661417323,
                    "duration": 0.4809775875000639
                },
                {
                    "name": "F#5",
                    "midi": 78,
                    "time": 244.53498373750404,
                    "velocity": 0.3700787401574803,
                    "duration": 0.47826020000002245
                },
                {
                    "name": "B5",
                    "midi": 83,
                    "time": 244.56940397917072,
                    "velocity": 0.48031496062992124,
                    "duration": 0.4420283666666762
                },
                {
                    "name": "A3",
                    "midi": 57,
                    "time": 244.78226600000406,
                    "velocity": 0.36220472440944884,
                    "duration": 0.1929345124999884
                },
                {
                    "name": "A2",
                    "midi": 45,
                    "time": 244.99965700000405,
                    "velocity": 0.2992125984251969,
                    "duration": 0.23913010000001123
                },
                {
                    "name": "C#6",
                    "midi": 85,
                    "time": 244.99965700000405,
                    "velocity": 0.3543307086614173,
                    "duration": 0.054347750000005135
                },
                {
                    "name": "B5",
                    "midi": 83,
                    "time": 245.05400475000405,
                    "velocity": 0.3700787401574803,
                    "duration": 0.054347750000005135
                },
                {
                    "name": "A#5",
                    "midi": 82,
                    "time": 245.10835250000406,
                    "velocity": 0.33858267716535434,
                    "duration": 0.054347750000005135
                },
                {
                    "name": "B5",
                    "midi": 83,
                    "time": 245.16270025000406,
                    "velocity": 0.29133858267716534,
                    "duration": 0.054347750000005135
                },
                {
                    "name": "A3",
                    "midi": 57,
                    "time": 245.21704800000407,
                    "velocity": 0.28346456692913385,
                    "duration": 0.15670267916667058
                },
                {
                    "name": "D#4",
                    "midi": 63,
                    "time": 245.34204782500407,
                    "velocity": 0.2677165354330709,
                    "duration": 0.728259850000029
                },
                {
                    "name": "G4",
                    "midi": 67,
                    "time": 245.3592579458374,
                    "velocity": 0.3228346456692913,
                    "duration": 0.7083323416666758
                },
                {
                    "name": "A#4",
                    "midi": 70,
                    "time": 245.38733761667075,
                    "velocity": 0.2992125984251969,
                    "duration": 0.6802526708333403
                },
                {
                    "name": "F#5",
                    "midi": 78,
                    "time": 245.41904047083742,
                    "velocity": 0.36220472440944884,
                    "duration": 0.6838758541667005
                },
                {
                    "name": "A5",
                    "midi": 81,
                    "time": 245.43081581667076,
                    "velocity": 0.33858267716535434,
                    "duration": 0.41938347083330996
                },
                {
                    "name": "C#6",
                    "midi": 85,
                    "time": 245.45798969167075,
                    "velocity": 0.4094488188976378,
                    "duration": 0.608694799999995
                },
                {
                    "name": "F#6",
                    "midi": 90,
                    "time": 245.4951273208374,
                    "velocity": 0.29133858267716534,
                    "duration": 0.5679339874999982
                },
                {
                    "name": "A5",
                    "midi": 81,
                    "time": 245.65183000000408,
                    "velocity": 0.31496062992125984,
                    "duration": 0.4157602875000066
                },
                {
                    "name": "A4",
                    "midi": 69,
                    "time": 245.86922100000407,
                    "velocity": 0.25196850393700787,
                    "duration": 0.17572439166667664
                },
                {
                    "name": "E4",
                    "midi": 64,
                    "time": 246.04494539167075,
                    "velocity": 0.25196850393700787,
                    "duration": 0.4447457541667177
                },
                {
                    "name": "G4",
                    "midi": 67,
                    "time": 246.05943812500408,
                    "velocity": 0.36220472440944884,
                    "duration": 0.4311588166667377
                },
                {
                    "name": "C#5",
                    "midi": 73,
                    "time": 246.0811772250041,
                    "velocity": 0.28346456692913385,
                    "duration": 0.40851392083337146
                },
                {
                    "name": "B4",
                    "midi": 71,
                    "time": 246.0866120000041,
                    "velocity": 0.2283464566929134,
                    "duration": 0.4030791458333738
                },
                {
                    "name": "G5",
                    "midi": 79,
                    "time": 246.09295257083744,
                    "velocity": 0.30708661417322836,
                    "duration": 0.39855016666672327
                },
                {
                    "name": "B5",
                    "midi": 83,
                    "time": 246.10382212083746,
                    "velocity": 0.31496062992125984,
                    "duration": 0.3876806166666995
                },
                {
                    "name": "C#6",
                    "midi": 85,
                    "time": 246.12556122083745,
                    "velocity": 0.3937007874015748,
                    "duration": 0.3659415166667088
                },
                {
                    "name": "A3",
                    "midi": 57,
                    "time": 246.30400300000414,
                    "velocity": 0.25196850393700787,
                    "duration": 0.15579688333332342
                },
                {
                    "name": "D3",
                    "midi": 50,
                    "time": 246.39729997083748,
                    "velocity": 0.3464566929133858,
                    "duration": 0.5624992125000574
                },
                {
                    "name": "F#3",
                    "midi": 54,
                    "time": 246.40816952083748,
                    "velocity": 0.28346456692913385,
                    "duration": 0.5543470500000751
                },
                {
                    "name": "A3",
                    "midi": 57,
                    "time": 246.43262600833748,
                    "velocity": 0.3228346456692913,
                    "duration": 0.5317021541667373
                },
                {
                    "name": "B3",
                    "midi": 59,
                    "time": 246.46523465833747,
                    "velocity": 0.23622047244094488,
                    "duration": 0.49728191250008535
                },
                {
                    "name": "D4",
                    "midi": 62,
                    "time": 246.48063318750414,
                    "velocity": 0.3937007874015748,
                    "duration": 0.4809775875000639
                },
                {
                    "name": "F#4",
                    "midi": 66,
                    "time": 246.49150273750416,
                    "velocity": 0.33858267716535434,
                    "duration": 0.4782602000000509
                },
                {
                    "name": "B4",
                    "midi": 71,
                    "time": 246.52592297917084,
                    "velocity": 0.4409448818897638,
                    "duration": 0.44202836666670464
                },
                {
                    "name": "A2",
                    "midi": 45,
                    "time": 246.73878500000419,
                    "velocity": 0.33070866141732286,
                    "duration": 0.1929345125000168
                },
                {
                    "name": "A1",
                    "midi": 33,
                    "time": 246.9561760000042,
                    "velocity": 0.2677165354330709,
                    "duration": 0.23913010000001123
                },
                {
                    "name": "C#5",
                    "midi": 73,
                    "time": 246.9561760000042,
                    "velocity": 0.31496062992125984,
                    "duration": 0.054347750000005135
                },
                {
                    "name": "B4",
                    "midi": 71,
                    "time": 247.0105237500042,
                    "velocity": 0.33858267716535434,
                    "duration": 0.054347750000005135
                },
                {
                    "name": "A#4",
                    "midi": 70,
                    "time": 247.06487150000422,
                    "velocity": 0.31496062992125984,
                    "duration": 0.054347750000005135
                },
                {
                    "name": "B4",
                    "midi": 71,
                    "time": 247.11921925000422,
                    "velocity": 0.25984251968503935,
                    "duration": 0.054347750000005135
                },
                {
                    "name": "A2",
                    "midi": 45,
                    "time": 247.17356700000423,
                    "velocity": 0.25196850393700787,
                    "duration": 0.156702679166699
                },
                {
                    "name": "D#3",
                    "midi": 51,
                    "time": 247.29856682500423,
                    "velocity": 0.2440944881889764,
                    "duration": 0.7282598500000574
                },
                {
                    "name": "G3",
                    "midi": 55,
                    "time": 247.31577694583757,
                    "velocity": 0.2992125984251969,
                    "duration": 0.7083323416667042
                },
                {
                    "name": "A#3",
                    "midi": 58,
                    "time": 247.34385661667093,
                    "velocity": 0.2755905511811024,
                    "duration": 0.6802526708333403
                },
                {
                    "name": "F#4",
                    "midi": 66,
                    "time": 247.3755594708376,
                    "velocity": 0.33070866141732286,
                    "duration": 0.6838758541667005
                },
                {
                    "name": "A4",
                    "midi": 69,
                    "time": 247.38733481667094,
                    "velocity": 0.31496062992125984,
                    "duration": 0.41938347083330996
                },
                {
                    "name": "C#5",
                    "midi": 73,
                    "time": 247.41450869167093,
                    "velocity": 0.3779527559055118,
                    "duration": 0.608694799999995
                },
                {
                    "name": "F#5",
                    "midi": 78,
                    "time": 247.4516463208376,
                    "velocity": 0.25984251968503935,
                    "duration": 0.5679339874999982
                },
                {
                    "name": "A4",
                    "midi": 69,
                    "time": 247.60834900000427,
                    "velocity": 0.28346456692913385,
                    "duration": 0.4157602875000066
                },
                {
                    "name": "A3",
                    "midi": 57,
                    "time": 247.82574000000426,
                    "velocity": 0.2283464566929134,
                    "duration": 0.17572439166667664
                },
                {
                    "name": "E3",
                    "midi": 52,
                    "time": 248.00146439167094,
                    "velocity": 0.2283464566929134,
                    "duration": 0.44474575416668927
                },
                {
                    "name": "G3",
                    "midi": 55,
                    "time": 248.01595712500426,
                    "velocity": 0.33070866141732286,
                    "duration": 0.4311588166667093
                },
                {
                    "name": "C#4",
                    "midi": 61,
                    "time": 248.03769622500428,
                    "velocity": 0.25196850393700787,
                    "duration": 0.40851392083334304
                },
                {
                    "name": "B3",
                    "midi": 59,
                    "time": 248.04313100000428,
                    "velocity": 0.2047244094488189,
                    "duration": 0.40307914583334536
                },
                {
                    "name": "G4",
                    "midi": 67,
                    "time": 248.04947157083762,
                    "velocity": 0.2755905511811024,
                    "duration": 0.39855016666669485
                },
                {
                    "name": "B4",
                    "midi": 71,
                    "time": 248.06034112083765,
                    "velocity": 0.28346456692913385,
                    "duration": 0.3876806166666711
                },
                {
                    "name": "C#5",
                    "midi": 73,
                    "time": 248.08208022083764,
                    "velocity": 0.3543307086614173,
                    "duration": 0.3659415166666804
                },
                {
                    "name": "A2",
                    "midi": 45,
                    "time": 248.2605220000043,
                    "velocity": 0.2204724409448819,
                    "duration": 0.15579688333332342
                },
                {
                    "name": "A1",
                    "midi": 33,
                    "time": 248.47791300000432,
                    "velocity": 0.2677165354330709,
                    "duration": 0.21739099999999212
                },
                {
                    "name": "A2",
                    "midi": 45,
                    "time": 248.6953040000043,
                    "velocity": 0.25984251968503935,
                    "duration": 0.21739099999999212
                },
                {
                    "name": "A3",
                    "midi": 57,
                    "time": 248.9126950000043,
                    "velocity": 0.25196850393700787,
                    "duration": 0.21739100000002054
                },
                {
                    "name": "A4",
                    "midi": 69,
                    "time": 249.13008600000433,
                    "velocity": 0.25984251968503935,
                    "duration": 0.21739099999999212
                },
                {
                    "name": "A3",
                    "midi": 57,
                    "time": 249.34747700000432,
                    "velocity": 0.1889763779527559,
                    "duration": 0.21739100000002054
                },
                {
                    "name": "A2",
                    "midi": 45,
                    "time": 249.56486800000434,
                    "velocity": 0.07086614173228346,
                    "duration": 0.21739099999999212
                },
                {
                    "name": "A1",
                    "midi": 33,
                    "time": 249.78225900000433,
                    "velocity": 0.10236220472440945,
                    "duration": 0.21739099999999212
                },
                {
                    "name": "A2",
                    "midi": 45,
                    "time": 249.99965000000432,
                    "velocity": 0.2440944881889764,
                    "duration": 0.21739099999999212
                },
                {
                    "name": "A3",
                    "midi": 57,
                    "time": 250.21704100000431,
                    "velocity": 0.2440944881889764,
                    "duration": 0.21739100000002054
                },
                {
                    "name": "F#3",
                    "midi": 54,
                    "time": 250.33751184583764,
                    "velocity": 0.3779527559055118,
                    "duration": 1.9701059375000511
                },
                {
                    "name": "A#3",
                    "midi": 58,
                    "time": 250.37736686250432,
                    "velocity": 0.23622047244094488,
                    "duration": 1.9302509208333731
                },
                {
                    "name": "C#4",
                    "midi": 61,
                    "time": 250.42627983750432,
                    "velocity": 0.3779527559055118,
                    "duration": 1.8659394166666914
                },
                {
                    "name": "F#4",
                    "midi": 66,
                    "time": 250.47609860833768,
                    "velocity": 0.3858267716535433,
                    "duration": 1.817026441666684
                },
                {
                    "name": "A2",
                    "midi": 45,
                    "time": 250.65182300000436,
                    "velocity": 0.2440944881889764,
                    "duration": 0.21739099999999212
                },
                {
                    "name": "A3",
                    "midi": 57,
                    "time": 250.86921400000435,
                    "velocity": 0.25196850393700787,
                    "duration": 0.21739099999999212
                },
                {
                    "name": "A4",
                    "midi": 69,
                    "time": 251.08660500000434,
                    "velocity": 0.2677165354330709,
                    "duration": 0.21739099999999212
                },
                {
                    "name": "A5",
                    "midi": 81,
                    "time": 251.30399600000433,
                    "velocity": 0.3779527559055118,
                    "duration": 0.21739100000002054
                },
                {
                    "name": "A4",
                    "midi": 69,
                    "time": 251.52138700000435,
                    "velocity": 0.1889763779527559,
                    "duration": 0.21739100000002054
                },
                {
                    "name": "A3",
                    "midi": 57,
                    "time": 251.73877800000437,
                    "velocity": 0.25984251968503935,
                    "duration": 0.21739099999999212
                },
                {
                    "name": "A2",
                    "midi": 45,
                    "time": 251.95616900000437,
                    "velocity": 0.2440944881889764,
                    "duration": 0.21739099999999212
                },
                {
                    "name": "A3",
                    "midi": 57,
                    "time": 252.17356000000436,
                    "velocity": 0.14173228346456693,
                    "duration": 0.21739099999999212
                },
                {
                    "name": "G3",
                    "midi": 55,
                    "time": 252.39095100000435,
                    "velocity": 0.2677165354330709,
                    "duration": 1.228259149999957
                },
                {
                    "name": "B3",
                    "midi": 59,
                    "time": 252.39457418333768,
                    "velocity": 0.2283464566929134,
                    "duration": 1.224635966666625
                },
                {
                    "name": "C#4",
                    "midi": 61,
                    "time": 252.398197366671,
                    "velocity": 0.28346456692913385,
                    "duration": 1.2228243749999592
                },
                {
                    "name": "A4",
                    "midi": 69,
                    "time": 252.60834200000434,
                    "velocity": 0.28346456692913385,
                    "duration": 0.21739099999999212
                },
                {
                    "name": "A3",
                    "midi": 57,
                    "time": 252.82573300000433,
                    "velocity": 0.23622047244094488,
                    "duration": 0.21739099999999212
                },
                {
                    "name": "A2",
                    "midi": 45,
                    "time": 253.04312400000433,
                    "velocity": 0.2204724409448819,
                    "duration": 0.21739099999999212
                },
                {
                    "name": "A1",
                    "midi": 33,
                    "time": 253.26051500000432,
                    "velocity": 0.1732283464566929,
                    "duration": 0.21739099999999212
                },
                {
                    "name": "A2",
                    "midi": 45,
                    "time": 253.4779060000043,
                    "velocity": 0.1968503937007874,
                    "duration": 0.21739100000002054
                },
                {
                    "name": "F#4",
                    "midi": 66,
                    "time": 253.69076802083765,
                    "velocity": 0.30708661417322836,
                    "duration": 0.6548903875000178
                },
                {
                    "name": "C#4",
                    "midi": 61,
                    "time": 253.69076802083765,
                    "velocity": 0.2125984251968504,
                    "duration": 0.6376802666666777
                },
                {
                    "name": "A#3",
                    "midi": 58,
                    "time": 253.70616655000433,
                    "velocity": 0.07874015748031496,
                    "duration": 0.6349628791666646
                },
                {
                    "name": "F#3",
                    "midi": 54,
                    "time": 253.71250712083767,
                    "velocity": 0.2440944881889764,
                    "duration": 0.6376802666666777
                },
                {
                    "name": "A3",
                    "midi": 57,
                    "time": 253.91268800000435,
                    "velocity": 0.14960629921259844,
                    "duration": 0.21739099999999212
                },
                {
                    "name": "A4",
                    "midi": 69,
                    "time": 254.13007900000434,
                    "velocity": 0.2125984251968504,
                    "duration": 0.21739099999999212
                },
                {
                    "name": "A5",
                    "midi": 81,
                    "time": 254.34747000000434,
                    "velocity": 0.30708661417322836,
                    "duration": 0.21739099999999212
                },
                {
                    "name": "A4",
                    "midi": 69,
                    "time": 254.56486100000433,
                    "velocity": 0.3543307086614173,
                    "duration": 0.21739099999999212
                },
                {
                    "name": "A3",
                    "midi": 57,
                    "time": 254.78225200000432,
                    "velocity": 0.2677165354330709,
                    "duration": 0.21739099999999212
                },
                {
                    "name": "A2",
                    "midi": 45,
                    "time": 254.9996430000043,
                    "velocity": 0.3228346456692913,
                    "duration": 0.21739099999999212
                },
                {
                    "name": "A3",
                    "midi": 57,
                    "time": 255.2170340000043,
                    "velocity": 0.25196850393700787,
                    "duration": 0.21739099999999212
                },
                {
                    "name": "A2",
                    "midi": 45,
                    "time": 255.4344250000043,
                    "velocity": 0.1968503937007874,
                    "duration": 0.21739099999999212
                },
                {
                    "name": "A3",
                    "midi": 57,
                    "time": 255.6518160000043,
                    "velocity": 0.2125984251968504,
                    "duration": 0.21739099999999212
                },
                {
                    "name": "A2",
                    "midi": 45,
                    "time": 255.86920700000428,
                    "velocity": 0.07086614173228346,
                    "duration": 0.21739100000002054
                },
                {
                    "name": "A3",
                    "midi": 57,
                    "time": 256.0865980000043,
                    "velocity": 0.15748031496062992,
                    "duration": 0.21739100000002054
                },
                {
                    "name": "A2",
                    "midi": 45,
                    "time": 256.3039890000043,
                    "velocity": 0.3543307086614173,
                    "duration": 0.21739100000002054
                },
                {
                    "name": "A3",
                    "midi": 57,
                    "time": 256.52138000000434,
                    "velocity": 0.1889763779527559,
                    "duration": 0.21739100000002054
                },
                {
                    "name": "A2",
                    "midi": 45,
                    "time": 256.73877100000436,
                    "velocity": 0.07086614173228346,
                    "duration": 0.21739100000002054
                },
                {
                    "name": "A3",
                    "midi": 57,
                    "time": 256.9561620000044,
                    "velocity": 0.07086614173228346,
                    "duration": 0.21739100000002054
                },
                {
                    "name": "A2",
                    "midi": 45,
                    "time": 257.1735530000044,
                    "velocity": 0.07874015748031496,
                    "duration": 0.21739100000002054
                },
                {
                    "name": "A3",
                    "midi": 57,
                    "time": 257.3909440000044,
                    "velocity": 0.1889763779527559,
                    "duration": 0.21739100000002054
                },
                {
                    "name": "A2",
                    "midi": 45,
                    "time": 257.60833500000444,
                    "velocity": 0.14960629921259844,
                    "duration": 0.2173909999999637
                },
                {
                    "name": "A3",
                    "midi": 57,
                    "time": 257.8257260000044,
                    "velocity": 0.2125984251968504,
                    "duration": 0.2173909999999637
                },
                {
                    "name": "A2",
                    "midi": 45,
                    "time": 258.0431170000044,
                    "velocity": 0.07874015748031496,
                    "duration": 0.21739100000002054
                },
                {
                    "name": "A#2",
                    "midi": 46,
                    "time": 258.2605080000044,
                    "velocity": 0.18110236220472442,
                    "duration": 0.21739100000002054
                },
                {
                    "name": "D#2",
                    "midi": 39,
                    "time": 258.2605080000044,
                    "velocity": 0.12598425196850394,
                    "duration": 0.21739100000002054
                },
                {
                    "name": "A#3",
                    "midi": 58,
                    "time": 258.4778990000044,
                    "velocity": 0.1968503937007874,
                    "duration": 0.07246366666669246
                },
                {
                    "name": "G4",
                    "midi": 67,
                    "time": 258.5503626666711,
                    "velocity": 0.2125984251968504,
                    "duration": 0.07246366666669246
                },
                {
                    "name": "D#4",
                    "midi": 63,
                    "time": 258.5503626666711,
                    "velocity": 0.2440944881889764,
                    "duration": 0.07246366666669246
                },
                {
                    "name": "A#3",
                    "midi": 58,
                    "time": 258.6228263333378,
                    "velocity": 0.16535433070866143,
                    "duration": 0.07246366666669246
                },
                {
                    "name": "B3",
                    "midi": 59,
                    "time": 258.6952900000045,
                    "velocity": 0.2755905511811024,
                    "duration": 0.21739100000002054
                },
                {
                    "name": "G3",
                    "midi": 55,
                    "time": 258.6952900000045,
                    "velocity": 0.28346456692913385,
                    "duration": 0.21739100000002054
                },
                {
                    "name": "G4",
                    "midi": 67,
                    "time": 258.9126810000045,
                    "velocity": 0.25984251968503935,
                    "duration": 0.21739100000002054
                },
                {
                    "name": "A#3",
                    "midi": 58,
                    "time": 258.9126810000045,
                    "velocity": 0.13385826771653545,
                    "duration": 0.21739100000002054
                },
                {
                    "name": "D#4",
                    "midi": 63,
                    "time": 258.9126810000045,
                    "velocity": 0.2125984251968504,
                    "duration": 0.21739100000002054
                },
                {
                    "name": "A#2",
                    "midi": 46,
                    "time": 259.13007200000453,
                    "velocity": 0.18110236220472442,
                    "duration": 0.21739100000002054
                },
                {
                    "name": "D#2",
                    "midi": 39,
                    "time": 259.13007200000453,
                    "velocity": 0.07086614173228346,
                    "duration": 0.21739100000002054
                },
                {
                    "name": "G4",
                    "midi": 67,
                    "time": 259.34746300000455,
                    "velocity": 0.1732283464566929,
                    "duration": 0.21739100000002054
                },
                {
                    "name": "A#3",
                    "midi": 58,
                    "time": 259.34746300000455,
                    "velocity": 0.11811023622047244,
                    "duration": 0.21739100000002054
                },
                {
                    "name": "D#4",
                    "midi": 63,
                    "time": 259.34746300000455,
                    "velocity": 0.2204724409448819,
                    "duration": 0.21739100000002054
                },
                {
                    "name": "A#2",
                    "midi": 46,
                    "time": 259.5648540000046,
                    "velocity": 0.11811023622047244,
                    "duration": 0.21739100000002054
                },
                {
                    "name": "B3",
                    "midi": 59,
                    "time": 259.7822450000046,
                    "velocity": 0.3543307086614173,
                    "duration": 0.21739100000002054
                },
                {
                    "name": "A3",
                    "midi": 57,
                    "time": 259.7822450000046,
                    "velocity": 0.3543307086614173,
                    "duration": 0.21739100000002054
                },
                {
                    "name": "D#3",
                    "midi": 51,
                    "time": 259.7822450000046,
                    "velocity": 0.2440944881889764,
                    "duration": 0.21739100000002054
                },
                {
                    "name": "D#4",
                    "midi": 63,
                    "time": 259.9181143750046,
                    "velocity": 0.3779527559055118,
                    "duration": 0.17934757500000842
                },
                {
                    "name": "F#4",
                    "midi": 66,
                    "time": 259.94075927083793,
                    "velocity": 0.4330708661417323,
                    "duration": 0.16123165833334951
                },
                {
                    "name": "C#5",
                    "midi": 73,
                    "time": 259.9824258791713,
                    "velocity": 0.47244094488188976,
                    "duration": 0.11956505000000561
                },
                {
                    "name": "A3",
                    "midi": 57,
                    "time": 259.9996360000046,
                    "velocity": 0.4409448818897638,
                    "duration": 0.09057958333335137
                },
                {
                    "name": "B3",
                    "midi": 59,
                    "time": 259.9996360000046,
                    "velocity": 0.4409448818897638,
                    "duration": 0.09057958333335137
                },
                {
                    "name": "A#3",
                    "midi": 58,
                    "time": 259.9996360000046,
                    "velocity": 0.41732283464566927,
                    "duration": 0.09057958333335137
                },
                {
                    "name": "A#2",
                    "midi": 46,
                    "time": 260.21702700000463,
                    "velocity": 0.18110236220472442,
                    "duration": 0.21739100000002054
                },
                {
                    "name": "D#2",
                    "midi": 39,
                    "time": 260.21702700000463,
                    "velocity": 0.12598425196850394,
                    "duration": 0.21739100000002054
                },
                {
                    "name": "A#3",
                    "midi": 58,
                    "time": 260.43441800000465,
                    "velocity": 0.1968503937007874,
                    "duration": 0.07246366666669246
                },
                {
                    "name": "G4",
                    "midi": 67,
                    "time": 260.50688166667135,
                    "velocity": 0.2125984251968504,
                    "duration": 0.07246366666669246
                },
                {
                    "name": "D#4",
                    "midi": 63,
                    "time": 260.50688166667135,
                    "velocity": 0.2440944881889764,
                    "duration": 0.07246366666669246
                },
                {
                    "name": "A#3",
                    "midi": 58,
                    "time": 260.57934533333804,
                    "velocity": 0.16535433070866143,
                    "duration": 0.07246366666669246
                },
                {
                    "name": "B3",
                    "midi": 59,
                    "time": 260.65180900000473,
                    "velocity": 0.2755905511811024,
                    "duration": 0.21739100000002054
                },
                {
                    "name": "G3",
                    "midi": 55,
                    "time": 260.65180900000473,
                    "velocity": 0.28346456692913385,
                    "duration": 0.21739100000002054
                },
                {
                    "name": "G4",
                    "midi": 67,
                    "time": 260.86920000000475,
                    "velocity": 0.25984251968503935,
                    "duration": 0.21739100000002054
                },
                {
                    "name": "A#3",
                    "midi": 58,
                    "time": 260.86920000000475,
                    "velocity": 0.13385826771653545,
                    "duration": 0.21739100000002054
                },
                {
                    "name": "D#4",
                    "midi": 63,
                    "time": 260.86920000000475,
                    "velocity": 0.2125984251968504,
                    "duration": 0.21739100000002054
                },
                {
                    "name": "A#2",
                    "midi": 46,
                    "time": 261.0865910000048,
                    "velocity": 0.18110236220472442,
                    "duration": 0.21739100000002054
                },
                {
                    "name": "D#2",
                    "midi": 39,
                    "time": 261.0865910000048,
                    "velocity": 0.07086614173228346,
                    "duration": 0.21739100000002054
                },
                {
                    "name": "G4",
                    "midi": 67,
                    "time": 261.3039820000048,
                    "velocity": 0.1732283464566929,
                    "duration": 0.21739100000002054
                },
                {
                    "name": "A#3",
                    "midi": 58,
                    "time": 261.3039820000048,
                    "velocity": 0.11811023622047244,
                    "duration": 0.21739100000002054
                },
                {
                    "name": "D#4",
                    "midi": 63,
                    "time": 261.3039820000048,
                    "velocity": 0.2204724409448819,
                    "duration": 0.21739100000002054
                },
                {
                    "name": "A#2",
                    "midi": 46,
                    "time": 261.5213730000048,
                    "velocity": 0.11811023622047244,
                    "duration": 0.21739100000002054
                },
                {
                    "name": "B3",
                    "midi": 59,
                    "time": 261.73876400000483,
                    "velocity": 0.3543307086614173,
                    "duration": 0.21739100000002054
                },
                {
                    "name": "A3",
                    "midi": 57,
                    "time": 261.73876400000483,
                    "velocity": 0.3543307086614173,
                    "duration": 0.21739100000002054
                },
                {
                    "name": "D#3",
                    "midi": 51,
                    "time": 261.73876400000483,
                    "velocity": 0.2440944881889764,
                    "duration": 0.21739100000002054
                },
                {
                    "name": "D#4",
                    "midi": 63,
                    "time": 261.87463337500486,
                    "velocity": 0.3779527559055118,
                    "duration": 0.17934757500000842
                },
                {
                    "name": "F#4",
                    "midi": 66,
                    "time": 261.89727827083817,
                    "velocity": 0.4330708661417323,
                    "duration": 0.16123165833334951
                },
                {
                    "name": "C#5",
                    "midi": 73,
                    "time": 261.9389448791715,
                    "velocity": 0.47244094488188976,
                    "duration": 0.11956505000000561
                },
                {
                    "name": "A3",
                    "midi": 57,
                    "time": 261.95615500000486,
                    "velocity": 0.4409448818897638,
                    "duration": 0.09057958333335137
                },
                {
                    "name": "B3",
                    "midi": 59,
                    "time": 261.95615500000486,
                    "velocity": 0.4409448818897638,
                    "duration": 0.09057958333335137
                },
                {
                    "name": "A#3",
                    "midi": 58,
                    "time": 261.95615500000486,
                    "velocity": 0.41732283464566927,
                    "duration": 0.09057958333335137
                },
                {
                    "name": "A#2",
                    "midi": 46,
                    "time": 262.1735460000049,
                    "velocity": 0.14960629921259844,
                    "duration": 0.21739100000002054
                },
                {
                    "name": "D#2",
                    "midi": 39,
                    "time": 262.1735460000049,
                    "velocity": 0.07086614173228346,
                    "duration": 0.21739100000002054
                },
                {
                    "name": "A#3",
                    "midi": 58,
                    "time": 262.3909370000049,
                    "velocity": 0.25984251968503935,
                    "duration": 0.07246366666669246
                },
                {
                    "name": "G4",
                    "midi": 67,
                    "time": 262.4634006666716,
                    "velocity": 0.28346456692913385,
                    "duration": 0.07246366666669246
                },
                {
                    "name": "D#4",
                    "midi": 63,
                    "time": 262.4634006666716,
                    "velocity": 0.2677165354330709,
                    "duration": 0.07246366666669246
                },
                {
                    "name": "A#3",
                    "midi": 58,
                    "time": 262.5358643333383,
                    "velocity": 0.2047244094488189,
                    "duration": 0.07246366666669246
                },
                {
                    "name": "B3",
                    "midi": 59,
                    "time": 262.608328000005,
                    "velocity": 0.3464566929133858,
                    "duration": 0.21739100000002054
                },
                {
                    "name": "G3",
                    "midi": 55,
                    "time": 262.608328000005,
                    "velocity": 0.23622047244094488,
                    "duration": 0.21739100000002054
                },
                {
                    "name": "A#3",
                    "midi": 58,
                    "time": 262.825719000005,
                    "velocity": 0.25196850393700787,
                    "duration": 0.07246366666669246
                },
                {
                    "name": "G4",
                    "midi": 67,
                    "time": 262.8981826666717,
                    "velocity": 0.28346456692913385,
                    "duration": 0.07246366666669246
                },
                {
                    "name": "D#4",
                    "midi": 63,
                    "time": 262.8981826666717,
                    "velocity": 0.18110236220472442,
                    "duration": 0.07246366666669246
                },
                {
                    "name": "A#3",
                    "midi": 58,
                    "time": 262.9706463333384,
                    "velocity": 0.2755905511811024,
                    "duration": 0.07246366666669246
                },
                {
                    "name": "A#2",
                    "midi": 46,
                    "time": 263.0431100000051,
                    "velocity": 0.36220472440944884,
                    "duration": 0.21739100000002054
                },
                {
                    "name": "D#2",
                    "midi": 39,
                    "time": 263.0431100000051,
                    "velocity": 0.2125984251968504,
                    "duration": 0.21739100000002054
                },
                {
                    "name": "G4",
                    "midi": 67,
                    "time": 263.2605010000051,
                    "velocity": 0.33070866141732286,
                    "duration": 0.21739100000002054
                },
                {
                    "name": "A#3",
                    "midi": 58,
                    "time": 263.2605010000051,
                    "velocity": 0.2125984251968504,
                    "duration": 0.21739100000002054
                },
                {
                    "name": "D#4",
                    "midi": 63,
                    "time": 263.2605010000051,
                    "velocity": 0.3779527559055118,
                    "duration": 0.21739100000002054
                },
                {
                    "name": "A#2",
                    "midi": 46,
                    "time": 263.4778920000051,
                    "velocity": 0.4330708661417323,
                    "duration": 0.21739100000002054
                },
                {
                    "name": "D#2",
                    "midi": 39,
                    "time": 263.4778920000051,
                    "velocity": 0.28346456692913385,
                    "duration": 0.21739100000002054
                },
                {
                    "name": "A#3",
                    "midi": 58,
                    "time": 263.69528300000513,
                    "velocity": 0.41732283464566927,
                    "duration": 0.07246366666669246
                },
                {
                    "name": "D#4",
                    "midi": 63,
                    "time": 263.7677466666718,
                    "velocity": 0.3858267716535433,
                    "duration": 0.07246366666669246
                },
                {
                    "name": "G4",
                    "midi": 67,
                    "time": 263.7677466666718,
                    "velocity": 0.4330708661417323,
                    "duration": 0.07246366666669246
                },
                {
                    "name": "A#3",
                    "midi": 58,
                    "time": 263.8402103333385,
                    "velocity": 0.4015748031496063,
                    "duration": 0.07246366666669246
                },
                {
                    "name": "B3",
                    "midi": 59,
                    "time": 263.9126740000052,
                    "velocity": 0.4015748031496063,
                    "duration": 0.21739100000002054
                },
                {
                    "name": "G3",
                    "midi": 55,
                    "time": 263.9126740000052,
                    "velocity": 0.4094488188976378,
                    "duration": 0.21739100000002054
                },
                {
                    "name": "A#3",
                    "midi": 58,
                    "time": 264.13006500000523,
                    "velocity": 0.5354330708661418,
                    "duration": 0.07246366666669246
                },
                {
                    "name": "D#4",
                    "midi": 63,
                    "time": 264.2025286666719,
                    "velocity": 0.41732283464566927,
                    "duration": 0.07246366666669246
                },
                {
                    "name": "G4",
                    "midi": 67,
                    "time": 264.2025286666719,
                    "velocity": 0.5354330708661418,
                    "duration": 0.07246366666669246
                },
                {
                    "name": "A#3",
                    "midi": 58,
                    "time": 264.2749923333386,
                    "velocity": 0.47244094488188976,
                    "duration": 0.07246366666669246
                },
                {
                    "name": "A#2",
                    "midi": 46,
                    "time": 264.3474560000053,
                    "velocity": 0.5354330708661418,
                    "duration": 0.10869550000001027
                },
                {
                    "name": "D#2",
                    "midi": 39,
                    "time": 264.3474560000053,
                    "velocity": 0.4330708661417323,
                    "duration": 0.10869550000001027
                },
                {
                    "name": "C3",
                    "midi": 48,
                    "time": 264.56484700000533,
                    "velocity": 0.5984251968503937,
                    "duration": 0.10869550000001027
                },
                {
                    "name": "F2",
                    "midi": 41,
                    "time": 264.56484700000533,
                    "velocity": 0.7007874015748031,
                    "duration": 0.10869550000001027
                },
                {
                    "name": "F#2",
                    "midi": 42,
                    "time": 264.78223800000535,
                    "velocity": 0.1889763779527559,
                    "duration": 0.21739100000002054
                },
                {
                    "name": "C#3",
                    "midi": 49,
                    "time": 264.78223800000535,
                    "velocity": 0.2204724409448819,
                    "duration": 0.21739100000002054
                },
                {
                    "name": "C#4",
                    "midi": 61,
                    "time": 264.99962900000537,
                    "velocity": 0.2755905511811024,
                    "duration": 0.07246366666669246
                },
                {
                    "name": "F#4",
                    "midi": 66,
                    "time": 265.07209266667206,
                    "velocity": 0.29133858267716534,
                    "duration": 0.07246366666669246
                },
                {
                    "name": "A#4",
                    "midi": 70,
                    "time": 265.07209266667206,
                    "velocity": 0.2204724409448819,
                    "duration": 0.07246366666669246
                },
                {
                    "name": "C#4",
                    "midi": 61,
                    "time": 265.14455633333876,
                    "velocity": 0.3543307086614173,
                    "duration": 0.07246366666669246
                },
                {
                    "name": "D4",
                    "midi": 62,
                    "time": 265.21702000000545,
                    "velocity": 0.4881889763779528,
                    "duration": 0.21739100000002054
                },
                {
                    "name": "A#3",
                    "midi": 58,
                    "time": 265.21702000000545,
                    "velocity": 0.44881889763779526,
                    "duration": 0.21739100000002054
                },
                {
                    "name": "C#4",
                    "midi": 61,
                    "time": 265.43441100000547,
                    "velocity": 0.2125984251968504,
                    "duration": 0.21739100000002054
                },
                {
                    "name": "A#4",
                    "midi": 70,
                    "time": 265.43441100000547,
                    "velocity": 0.2440944881889764,
                    "duration": 0.21739100000002054
                },
                {
                    "name": "F#4",
                    "midi": 66,
                    "time": 265.43441100000547,
                    "velocity": 0.2125984251968504,
                    "duration": 0.21739100000002054
                },
                {
                    "name": "C#3",
                    "midi": 49,
                    "time": 265.6518020000055,
                    "velocity": 0.30708661417322836,
                    "duration": 0.21739100000002054
                },
                {
                    "name": "F#2",
                    "midi": 42,
                    "time": 265.6518020000055,
                    "velocity": 0.2125984251968504,
                    "duration": 0.21739100000002054
                },
                {
                    "name": "A#4",
                    "midi": 70,
                    "time": 265.8691930000055,
                    "velocity": 0.13385826771653545,
                    "duration": 0.21739100000002054
                },
                {
                    "name": "F#4",
                    "midi": 66,
                    "time": 265.8691930000055,
                    "velocity": 0.2440944881889764,
                    "duration": 0.21739100000002054
                },
                {
                    "name": "C#4",
                    "midi": 61,
                    "time": 265.8691930000055,
                    "velocity": 0.23622047244094488,
                    "duration": 0.21739100000002054
                },
                {
                    "name": "C#3",
                    "midi": 49,
                    "time": 266.08658400000553,
                    "velocity": 0.41732283464566927,
                    "duration": 0.21739100000002054
                },
                {
                    "name": "F#3",
                    "midi": 54,
                    "time": 266.30397500000555,
                    "velocity": 0.4094488188976378,
                    "duration": 0.10869550000001027
                },
                {
                    "name": "D4",
                    "midi": 62,
                    "time": 266.30397500000555,
                    "velocity": 0.4881889763779528,
                    "duration": 0.07246366666669246
                },
                {
                    "name": "C4",
                    "midi": 60,
                    "time": 266.30397500000555,
                    "velocity": 0.47244094488188976,
                    "duration": 0.07246366666669246
                },
                {
                    "name": "F#4",
                    "midi": 66,
                    "time": 266.37643866667224,
                    "velocity": 0.5984251968503937,
                    "duration": 0.07246366666663562
                },
                {
                    "name": "C#4",
                    "midi": 61,
                    "time": 266.41267050000556,
                    "velocity": 0.5669291338582677,
                    "duration": 0.10869550000001027
                },
                {
                    "name": "A4",
                    "midi": 69,
                    "time": 266.4489023333389,
                    "velocity": 0.6299212598425197,
                    "duration": 0.07246366666669246
                },
                {
                    "name": "F#4",
                    "midi": 66,
                    "time": 266.52136600000557,
                    "velocity": 0.6692913385826772,
                    "duration": 0.13043460000000096
                },
                {
                    "name": "E5",
                    "midi": 76,
                    "time": 266.52136600000557,
                    "velocity": 0.6692913385826772,
                    "duration": 0.13043460000000096
                },
                {
                    "name": "C5",
                    "midi": 72,
                    "time": 266.52136600000557,
                    "velocity": 0.6299212598425197,
                    "duration": 0.13043460000000096
                },
                {
                    "name": "F#2",
                    "midi": 42,
                    "time": 266.7387570000056,
                    "velocity": 0.1889763779527559,
                    "duration": 0.21739100000002054
                },
                {
                    "name": "C#3",
                    "midi": 49,
                    "time": 266.7387570000056,
                    "velocity": 0.2204724409448819,
                    "duration": 0.21739100000002054
                },
                {
                    "name": "C#4",
                    "midi": 61,
                    "time": 266.9561480000056,
                    "velocity": 0.2755905511811024,
                    "duration": 0.07246366666669246
                },
                {
                    "name": "F#4",
                    "midi": 66,
                    "time": 267.0286116666723,
                    "velocity": 0.29133858267716534,
                    "duration": 0.07246366666669246
                },
                {
                    "name": "A#4",
                    "midi": 70,
                    "time": 267.0286116666723,
                    "velocity": 0.2204724409448819,
                    "duration": 0.07246366666669246
                },
                {
                    "name": "C#4",
                    "midi": 61,
                    "time": 267.101075333339,
                    "velocity": 0.3543307086614173,
                    "duration": 0.07246366666669246
                },
                {
                    "name": "D4",
                    "midi": 62,
                    "time": 267.1735390000057,
                    "velocity": 0.4881889763779528,
                    "duration": 0.21739100000002054
                },
                {
                    "name": "A#3",
                    "midi": 58,
                    "time": 267.1735390000057,
                    "velocity": 0.44881889763779526,
                    "duration": 0.21739100000002054
                },
                {
                    "name": "C#4",
                    "midi": 61,
                    "time": 267.3909300000057,
                    "velocity": 0.2125984251968504,
                    "duration": 0.21739100000002054
                },
                {
                    "name": "A#4",
                    "midi": 70,
                    "time": 267.3909300000057,
                    "velocity": 0.2440944881889764,
                    "duration": 0.21739100000002054
                },
                {
                    "name": "F#4",
                    "midi": 66,
                    "time": 267.3909300000057,
                    "velocity": 0.2125984251968504,
                    "duration": 0.21739100000002054
                },
                {
                    "name": "C#3",
                    "midi": 49,
                    "time": 267.60832100000573,
                    "velocity": 0.30708661417322836,
                    "duration": 0.21739100000002054
                },
                {
                    "name": "F#2",
                    "midi": 42,
                    "time": 267.60832100000573,
                    "velocity": 0.2125984251968504,
                    "duration": 0.21739100000002054
                },
                {
                    "name": "A#4",
                    "midi": 70,
                    "time": 267.82571200000575,
                    "velocity": 0.13385826771653545,
                    "duration": 0.21739100000002054
                },
                {
                    "name": "F#4",
                    "midi": 66,
                    "time": 267.82571200000575,
                    "velocity": 0.2440944881889764,
                    "duration": 0.21739100000002054
                },
                {
                    "name": "C#4",
                    "midi": 61,
                    "time": 267.82571200000575,
                    "velocity": 0.23622047244094488,
                    "duration": 0.21739100000002054
                },
                {
                    "name": "C#3",
                    "midi": 49,
                    "time": 268.0431030000058,
                    "velocity": 0.41732283464566927,
                    "duration": 0.21739100000002054
                },
                {
                    "name": "F#3",
                    "midi": 54,
                    "time": 268.2604940000058,
                    "velocity": 0.4094488188976378,
                    "duration": 0.10869550000001027
                },
                {
                    "name": "D4",
                    "midi": 62,
                    "time": 268.2604940000058,
                    "velocity": 0.4881889763779528,
                    "duration": 0.07246366666669246
                },
                {
                    "name": "C4",
                    "midi": 60,
                    "time": 268.2604940000058,
                    "velocity": 0.47244094488188976,
                    "duration": 0.07246366666669246
                },
                {
                    "name": "F#4",
                    "midi": 66,
                    "time": 268.3329576666725,
                    "velocity": 0.5984251968503937,
                    "duration": 0.07246366666663562
                },
                {
                    "name": "C#4",
                    "midi": 61,
                    "time": 268.3691895000058,
                    "velocity": 0.5669291338582677,
                    "duration": 0.10869550000001027
                },
                {
                    "name": "A4",
                    "midi": 69,
                    "time": 268.4054213333391,
                    "velocity": 0.6299212598425197,
                    "duration": 0.07246366666669246
                },
                {
                    "name": "F#4",
                    "midi": 66,
                    "time": 268.4778850000058,
                    "velocity": 0.6692913385826772,
                    "duration": 0.13043460000000096
                },
                {
                    "name": "E5",
                    "midi": 76,
                    "time": 268.4778850000058,
                    "velocity": 0.6692913385826772,
                    "duration": 0.13043460000000096
                },
                {
                    "name": "C5",
                    "midi": 72,
                    "time": 268.4778850000058,
                    "velocity": 0.6299212598425197,
                    "duration": 0.13043460000000096
                },
                {
                    "name": "C#3",
                    "midi": 49,
                    "time": 268.69527600000583,
                    "velocity": 0.5984251968503937,
                    "duration": 0.21739100000002054
                },
                {
                    "name": "F#2",
                    "midi": 42,
                    "time": 268.69527600000583,
                    "velocity": 0.5354330708661418,
                    "duration": 0.21739100000002054
                },
                {
                    "name": "F#4",
                    "midi": 66,
                    "time": 268.91266700000585,
                    "velocity": 0.4645669291338583,
                    "duration": 0.07246366666669246
                },
                {
                    "name": "C#4",
                    "midi": 61,
                    "time": 268.91266700000585,
                    "velocity": 0.5354330708661418,
                    "duration": 0.07246366666669246
                },
                {
                    "name": "A4",
                    "midi": 69,
                    "time": 268.98513066667255,
                    "velocity": 0.4645669291338583,
                    "duration": 0.07246366666669246
                },
                {
                    "name": "C#5",
                    "midi": 73,
                    "time": 268.98513066667255,
                    "velocity": 0.4881889763779528,
                    "duration": 0.07246366666669246
                },
                {
                    "name": "F#4",
                    "midi": 66,
                    "time": 269.05759433333924,
                    "velocity": 0.4881889763779528,
                    "duration": 0.07246366666669246
                },
                {
                    "name": "C#4",
                    "midi": 61,
                    "time": 269.05759433333924,
                    "velocity": 0.5039370078740157,
                    "duration": 0.07246366666669246
                },
                {
                    "name": "D4",
                    "midi": 62,
                    "time": 269.13005800000593,
                    "velocity": 0.5669291338582677,
                    "duration": 0.21739100000002054
                },
                {
                    "name": "A#3",
                    "midi": 58,
                    "time": 269.13005800000593,
                    "velocity": 0.4645669291338583,
                    "duration": 0.21739100000002054
                },
                {
                    "name": "F#4",
                    "midi": 66,
                    "time": 269.34744900000595,
                    "velocity": 0.5984251968503937,
                    "duration": 0.07246366666669246
                },
                {
                    "name": "C#4",
                    "midi": 61,
                    "time": 269.34744900000595,
                    "velocity": 0.5669291338582677,
                    "duration": 0.07246366666669246
                },
                {
                    "name": "A4",
                    "midi": 69,
                    "time": 269.41991266667264,
                    "velocity": 0.6299212598425197,
                    "duration": 0.07246366666669246
                },
                {
                    "name": "C#5",
                    "midi": 73,
                    "time": 269.41991266667264,
                    "velocity": 0.7007874015748031,
                    "duration": 0.07246366666669246
                },
                {
                    "name": "F#4",
                    "midi": 66,
                    "time": 269.49237633333934,
                    "velocity": 0.5984251968503937,
                    "duration": 0.07246366666669246
                },
                {
                    "name": "C#4",
                    "midi": 61,
                    "time": 269.49237633333934,
                    "velocity": 0.5669291338582677,
                    "duration": 0.07246366666669246
                },
                {
                    "name": "C#3",
                    "midi": 49,
                    "time": 269.56484000000603,
                    "velocity": 0.5984251968503937,
                    "duration": 0.21739100000002054
                },
                {
                    "name": "F#2",
                    "midi": 42,
                    "time": 269.56484000000603,
                    "velocity": 0.7007874015748031,
                    "duration": 0.21739100000002054
                },
                {
                    "name": "D#3",
                    "midi": 51,
                    "time": 269.78223100000605,
                    "velocity": 0.7007874015748031,
                    "duration": 0.21739100000002054
                },
                {
                    "name": "G#2",
                    "midi": 44,
                    "time": 269.78223100000605,
                    "velocity": 0.6299212598425197,
                    "duration": 0.21739100000002054
                },
                {
                    "name": "E3",
                    "midi": 52,
                    "time": 269.99962200000607,
                    "velocity": 0.5984251968503937,
                    "duration": 0.21739100000002054
                },
                {
                    "name": "A2",
                    "midi": 45,
                    "time": 269.99962200000607,
                    "velocity": 0.5984251968503937,
                    "duration": 0.21739100000002054
                },
                {
                    "name": "E4",
                    "midi": 64,
                    "time": 270.2170130000061,
                    "velocity": 0.5984251968503937,
                    "duration": 0.07246366666669246
                },
                {
                    "name": "A4",
                    "midi": 69,
                    "time": 270.2894766666728,
                    "velocity": 0.6299212598425197,
                    "duration": 0.07246366666669246
                },
                {
                    "name": "C#5",
                    "midi": 73,
                    "time": 270.2894766666728,
                    "velocity": 0.5669291338582677,
                    "duration": 0.07246366666669246
                },
                {
                    "name": "E4",
                    "midi": 64,
                    "time": 270.3619403333395,
                    "velocity": 0.7322834645669292,
                    "duration": 0.07246366666669246
                },
                {
                    "name": "F4",
                    "midi": 65,
                    "time": 270.43440400000617,
                    "velocity": 0.6692913385826772,
                    "duration": 0.21739100000002054
                },
                {
                    "name": "C#4",
                    "midi": 61,
                    "time": 270.43440400000617,
                    "velocity": 0.5984251968503937,
                    "duration": 0.21739100000002054
                },
                {
                    "name": "E4",
                    "midi": 64,
                    "time": 270.6517950000062,
                    "velocity": 0.5669291338582677,
                    "duration": 0.07246366666669246
                },
                {
                    "name": "A4",
                    "midi": 69,
                    "time": 270.7242586666729,
                    "velocity": 0.6692913385826772,
                    "duration": 0.07246366666669246
                },
                {
                    "name": "C#5",
                    "midi": 73,
                    "time": 270.7242586666729,
                    "velocity": 0.6299212598425197,
                    "duration": 0.07246366666669246
                },
                {
                    "name": "E4",
                    "midi": 64,
                    "time": 270.7967223333396,
                    "velocity": 0.7322834645669292,
                    "duration": 0.07246366666669246
                },
                {
                    "name": "A2",
                    "midi": 45,
                    "time": 270.86918600000627,
                    "velocity": 0.5984251968503937,
                    "duration": 0.21739100000002054
                },
                {
                    "name": "E3",
                    "midi": 52,
                    "time": 270.86918600000627,
                    "velocity": 0.7007874015748031,
                    "duration": 0.21739100000002054
                },
                {
                    "name": "B2",
                    "midi": 47,
                    "time": 271.0865770000063,
                    "velocity": 0.5984251968503937,
                    "duration": 0.21739100000002054
                },
                {
                    "name": "F#3",
                    "midi": 54,
                    "time": 271.0865770000063,
                    "velocity": 0.7322834645669292,
                    "duration": 0.21739100000002054
                },
                {
                    "name": "C#3",
                    "midi": 49,
                    "time": 271.3039680000063,
                    "velocity": 0.6692913385826772,
                    "duration": 0.21739100000002054
                },
                {
                    "name": "C#4",
                    "midi": 61,
                    "time": 271.3039680000063,
                    "velocity": 0.8740157480314961,
                    "duration": 0.21739100000002054
                },
                {
                    "name": "G#3",
                    "midi": 56,
                    "time": 271.3039680000063,
                    "velocity": 0.7086614173228346,
                    "duration": 0.21739100000002054
                },
                {
                    "name": "G#4",
                    "midi": 68,
                    "time": 271.5213590000063,
                    "velocity": 0.7086614173228346,
                    "duration": 0.21739099999990685
                },
                {
                    "name": "C#5",
                    "midi": 73,
                    "time": 271.5213590000063,
                    "velocity": 0.7086614173228346,
                    "duration": 0.057970933333308494
                },
                {
                    "name": "C#5",
                    "midi": 73,
                    "time": 271.59382266667296,
                    "velocity": 0.6141732283464567,
                    "duration": 0.057970933333308494
                },
                {
                    "name": "C#5",
                    "midi": 73,
                    "time": 271.6662863333396,
                    "velocity": 0.5905511811023622,
                    "duration": 0.057970933333308494
                },
                {
                    "name": "F5",
                    "midi": 77,
                    "time": 271.73875000000623,
                    "velocity": 0.7086614173228346,
                    "duration": 0.21739100000002054
                },
                {
                    "name": "G#5",
                    "midi": 80,
                    "time": 271.73875000000623,
                    "velocity": 0.5433070866141733,
                    "duration": 0.10869550000001027
                },
                {
                    "name": "C#6",
                    "midi": 85,
                    "time": 271.73875000000623,
                    "velocity": 0.7480314960629921,
                    "duration": 0.10869550000001027
                },
                {
                    "name": "G#4",
                    "midi": 68,
                    "time": 271.95614100000626,
                    "velocity": 0.4409448818897638,
                    "duration": 0.21739099999990685
                },
                {
                    "name": "C#5",
                    "midi": 73,
                    "time": 271.95614100000626,
                    "velocity": 0.5433070866141733,
                    "duration": 0.057970933333308494
                },
                {
                    "name": "C#5",
                    "midi": 73,
                    "time": 272.0286046666729,
                    "velocity": 0.5039370078740157,
                    "duration": 0.057970933333308494
                },
                {
                    "name": "C#5",
                    "midi": 73,
                    "time": 272.1010683333395,
                    "velocity": 0.41732283464566927,
                    "duration": 0.057970933333308494
                },
                {
                    "name": "C#4",
                    "midi": 61,
                    "time": 272.17353200000616,
                    "velocity": 0.5590551181102362,
                    "duration": 0.21739099999990685
                },
                {
                    "name": "C#5",
                    "midi": 73,
                    "time": 272.17353200000616,
                    "velocity": 0.5039370078740157,
                    "duration": 0.057970933333308494
                },
                {
                    "name": "C#5",
                    "midi": 73,
                    "time": 272.2459956666728,
                    "velocity": 0.5039370078740157,
                    "duration": 0.057970933333308494
                },
                {
                    "name": "C#5",
                    "midi": 73,
                    "time": 272.31845933333943,
                    "velocity": 0.4330708661417323,
                    "duration": 0.057970933333308494
                },
                {
                    "name": "G#4",
                    "midi": 68,
                    "time": 272.39092300000607,
                    "velocity": 0.48031496062992124,
                    "duration": 0.21739099999990685
                },
                {
                    "name": "C#5",
                    "midi": 73,
                    "time": 272.39092300000607,
                    "velocity": 0.5196850393700787,
                    "duration": 0.057970933333308494
                },
                {
                    "name": "C#5",
                    "midi": 73,
                    "time": 272.4633866666727,
                    "velocity": 0.4645669291338583,
                    "duration": 0.057970933333308494
                },
                {
                    "name": "C#5",
                    "midi": 73,
                    "time": 272.53585033333934,
                    "velocity": 0.49606299212598426,
                    "duration": 0.057970933333308494
                },
                {
                    "name": "B3",
                    "midi": 59,
                    "time": 272.608314000006,
                    "velocity": 0.3937007874015748,
                    "duration": 0.21739100000002054
                },
                {
                    "name": "A4",
                    "midi": 69,
                    "time": 272.608314000006,
                    "velocity": 0.5039370078740157,
                    "duration": 0.21739100000002054
                },
                {
                    "name": "F4",
                    "midi": 65,
                    "time": 272.608314000006,
                    "velocity": 0.5354330708661418,
                    "duration": 0.21739100000002054
                },
                {
                    "name": "D4",
                    "midi": 62,
                    "time": 272.825705000006,
                    "velocity": 0.3543307086614173,
                    "duration": 0.10869550000006711
                },
                {
                    "name": "D5",
                    "midi": 74,
                    "time": 272.825705000006,
                    "velocity": 0.2204724409448819,
                    "duration": 0.03713762916669339
                },
                {
                    "name": "A4",
                    "midi": 69,
                    "time": 272.825705000006,
                    "velocity": 0.2440944881889764,
                    "duration": 0.03713762916669339
                },
                {
                    "name": "E5",
                    "midi": 76,
                    "time": 272.8628426291727,
                    "velocity": 0.31496062992125984,
                    "duration": 0.03713762916669339
                },
                {
                    "name": "B4",
                    "midi": 71,
                    "time": 272.8628426291727,
                    "velocity": 0.2440944881889764,
                    "duration": 0.03713762916669339
                },
                {
                    "name": "F5",
                    "midi": 77,
                    "time": 272.8999802583394,
                    "velocity": 0.33070866141732286,
                    "duration": 0.03804342500001212
                },
                {
                    "name": "C5",
                    "midi": 72,
                    "time": 272.8999802583394,
                    "velocity": 0.13385826771653545,
                    "duration": 0.03804342500001212
                },
                {
                    "name": "F4",
                    "midi": 65,
                    "time": 272.93440050000606,
                    "velocity": 0.3228346456692913,
                    "duration": 0.10869550000006711
                },
                {
                    "name": "G5",
                    "midi": 79,
                    "time": 272.9380236833394,
                    "velocity": 0.4015748031496063,
                    "duration": 0.03713762916669339
                },
                {
                    "name": "D5",
                    "midi": 74,
                    "time": 272.9380236833394,
                    "velocity": 0.2125984251968504,
                    "duration": 0.03713762916669339
                },
                {
                    "name": "A5",
                    "midi": 81,
                    "time": 272.9751613125061,
                    "velocity": 0.3779527559055118,
                    "duration": 0.03713762916669339
                },
                {
                    "name": "E5",
                    "midi": 76,
                    "time": 272.9751613125061,
                    "velocity": 0.3464566929133858,
                    "duration": 0.03713762916669339
                },
                {
                    "name": "B5",
                    "midi": 83,
                    "time": 273.0122989416728,
                    "velocity": 0.4881889763779528,
                    "duration": 0.03804342500001212
                },
                {
                    "name": "F5",
                    "midi": 77,
                    "time": 273.0122989416728,
                    "velocity": 0.2047244094488189,
                    "duration": 0.03804342500001212
                },
                {
                    "name": "A4",
                    "midi": 69,
                    "time": 273.04309600000613,
                    "velocity": 0.4015748031496063,
                    "duration": 0.21739100000007738
                },
                {
                    "name": "G5",
                    "midi": 79,
                    "time": 273.0503423666728,
                    "velocity": 0.3543307086614173,
                    "duration": 0.03713762916669339
                },
                {
                    "name": "C6",
                    "midi": 84,
                    "time": 273.0503423666728,
                    "velocity": 0.4409448818897638,
                    "duration": 0.03713762916669339
                },
                {
                    "name": "D6",
                    "midi": 86,
                    "time": 273.0874799958395,
                    "velocity": 0.5669291338582677,
                    "duration": 0.03804342500001212
                },
                {
                    "name": "A5",
                    "midi": 81,
                    "time": 273.0874799958395,
                    "velocity": 0.3543307086614173,
                    "duration": 0.03804342500001212
                },
                {
                    "name": "E6",
                    "midi": 88,
                    "time": 273.1255234208395,
                    "velocity": 0.5669291338582677,
                    "duration": 0.03713762916669339
                },
                {
                    "name": "B5",
                    "midi": 83,
                    "time": 273.1255234208395,
                    "velocity": 0.4881889763779528,
                    "duration": 0.03713762916669339
                },
                {
                    "name": "F6",
                    "midi": 89,
                    "time": 273.1626610500062,
                    "velocity": 0.5669291338582677,
                    "duration": 0.03713762916669339
                },
                {
                    "name": "C6",
                    "midi": 84,
                    "time": 273.1626610500062,
                    "velocity": 0.47244094488188976,
                    "duration": 0.03713762916669339
                },
                {
                    "name": "G6",
                    "midi": 91,
                    "time": 273.1997986791729,
                    "velocity": 0.5669291338582677,
                    "duration": 0.03804342500001212
                },
                {
                    "name": "D6",
                    "midi": 86,
                    "time": 273.1997986791729,
                    "velocity": 0.5039370078740157,
                    "duration": 0.03804342500001212
                },
                {
                    "name": "A6",
                    "midi": 93,
                    "time": 273.2378421041729,
                    "velocity": 0.5354330708661418,
                    "duration": 0.03713762916663654
                },
                {
                    "name": "E6",
                    "midi": 88,
                    "time": 273.2378421041729,
                    "velocity": 0.5039370078740157,
                    "duration": 0.03713762916663654
                },
                {
                    "name": "F5",
                    "midi": 77,
                    "time": 273.2604870000062,
                    "velocity": 0.4409448818897638,
                    "duration": 0.21739100000007738
                },
                {
                    "name": "D5",
                    "midi": 74,
                    "time": 273.2604870000062,
                    "velocity": 0.5354330708661418,
                    "duration": 0.21739100000007738
                },
                {
                    "name": "B6",
                    "midi": 95,
                    "time": 273.27497973333953,
                    "velocity": 0.5354330708661418,
                    "duration": 0.03713762916669339
                },
                {
                    "name": "F6",
                    "midi": 89,
                    "time": 273.27497973333953,
                    "velocity": 0.4881889763779528,
                    "duration": 0.03713762916669339
                },
                {
                    "name": "C7",
                    "midi": 96,
                    "time": 273.3121173625062,
                    "velocity": 0.6692913385826772,
                    "duration": 0.03804342500001212
                },
                {
                    "name": "G6",
                    "midi": 91,
                    "time": 273.3121173625062,
                    "velocity": 0.4015748031496063,
                    "duration": 0.03804342500001212
                },
                {
                    "name": "A6",
                    "midi": 93,
                    "time": 273.35016078750624,
                    "velocity": 0.5984251968503937,
                    "duration": 0.03713762916669339
                },
                {
                    "name": "D7",
                    "midi": 98,
                    "time": 273.35016078750624,
                    "velocity": 0.7322834645669292,
                    "duration": 0.03713762916669339
                },
                {
                    "name": "G6",
                    "midi": 91,
                    "time": 273.38729841667293,
                    "velocity": 0.36220472440944884,
                    "duration": 0.03804342500001212
                },
                {
                    "name": "C7",
                    "midi": 96,
                    "time": 273.38729841667293,
                    "velocity": 0.4645669291338583,
                    "duration": 0.03804342500001212
                },
                {
                    "name": "F6",
                    "midi": 89,
                    "time": 273.42534184167295,
                    "velocity": 0.2047244094488189,
                    "duration": 0.03713762916669339
                },
                {
                    "name": "B6",
                    "midi": 95,
                    "time": 273.42534184167295,
                    "velocity": 0.25984251968503935,
                    "duration": 0.03713762916669339
                },
                {
                    "name": "E6",
                    "midi": 88,
                    "time": 273.46247947083964,
                    "velocity": 0.3937007874015748,
                    "duration": 0.03713762916663654
                },
                {
                    "name": "A6",
                    "midi": 93,
                    "time": 273.46247947083964,
                    "velocity": 0.4409448818897638,
                    "duration": 0.03713762916663654
                },
                {
                    "name": "D6",
                    "midi": 86,
                    "time": 273.4996171000063,
                    "velocity": 0.3858267716535433,
                    "duration": 0.03804342500001212
                },
                {
                    "name": "G6",
                    "midi": 91,
                    "time": 273.4996171000063,
                    "velocity": 0.4094488188976378,
                    "duration": 0.03804342500001212
                },
                {
                    "name": "F6",
                    "midi": 89,
                    "time": 273.5376605250063,
                    "velocity": 0.3228346456692913,
                    "duration": 0.03713762916669339
                },
                {
                    "name": "C6",
                    "midi": 84,
                    "time": 273.5376605250063,
                    "velocity": 0.31496062992125984,
                    "duration": 0.03713762916669339
                },
                {
                    "name": "B5",
                    "midi": 83,
                    "time": 273.574798154173,
                    "velocity": 0.33858267716535434,
                    "duration": 0.03713762916669339
                },
                {
                    "name": "E6",
                    "midi": 88,
                    "time": 273.574798154173,
                    "velocity": 0.33070866141732286,
                    "duration": 0.03713762916669339
                },
                {
                    "name": "A5",
                    "midi": 81,
                    "time": 273.6119357833397,
                    "velocity": 0.3228346456692913,
                    "duration": 0.03804342500001212
                },
                {
                    "name": "D6",
                    "midi": 86,
                    "time": 273.6119357833397,
                    "velocity": 0.3858267716535433,
                    "duration": 0.03804342500001212
                },
                {
                    "name": "G5",
                    "midi": 79,
                    "time": 273.6499792083397,
                    "velocity": 0.29133858267716534,
                    "duration": 0.03713762916669339
                },
                {
                    "name": "C6",
                    "midi": 84,
                    "time": 273.6499792083397,
                    "velocity": 0.4015748031496063,
                    "duration": 0.03713762916669339
                },
                {
                    "name": "F5",
                    "midi": 77,
                    "time": 273.6871168375064,
                    "velocity": 0.3464566929133858,
                    "duration": 0.03804342500001212
                },
                {
                    "name": "B5",
                    "midi": 83,
                    "time": 273.6871168375064,
                    "velocity": 0.33070866141732286,
                    "duration": 0.03804342500001212
                },
                {
                    "name": "E5",
                    "midi": 76,
                    "time": 273.7251602625064,
                    "velocity": 0.33858267716535434,
                    "duration": 0.03713762916669339
                },
                {
                    "name": "A5",
                    "midi": 81,
                    "time": 273.7251602625064,
                    "velocity": 0.29133858267716534,
                    "duration": 0.03713762916669339
                },
                {
                    "name": "G5",
                    "midi": 79,
                    "time": 273.7622978916731,
                    "velocity": 0.33858267716535434,
                    "duration": 0.03713762916669339
                },
                {
                    "name": "D5",
                    "midi": 74,
                    "time": 273.7622978916731,
                    "velocity": 0.30708661417322836,
                    "duration": 0.03713762916669339
                },
                {
                    "name": "C5",
                    "midi": 72,
                    "time": 273.7994355208398,
                    "velocity": 0.3228346456692913,
                    "duration": 0.03804342500001212
                },
                {
                    "name": "F5",
                    "midi": 77,
                    "time": 273.7994355208398,
                    "velocity": 0.2992125984251969,
                    "duration": 0.03804342500001212
                },
                {
                    "name": "B4",
                    "midi": 71,
                    "time": 273.8374789458398,
                    "velocity": 0.29133858267716534,
                    "duration": 0.03713762916669339
                },
                {
                    "name": "E5",
                    "midi": 76,
                    "time": 273.8374789458398,
                    "velocity": 0.31496062992125984,
                    "duration": 0.03713762916669339
                },
                {
                    "name": "D5",
                    "midi": 74,
                    "time": 273.8746165750065,
                    "velocity": 0.2125984251968504,
                    "duration": 0.03804342500001212
                },
                {
                    "name": "A4",
                    "midi": 69,
                    "time": 273.8746165750065,
                    "velocity": 0.16535433070866143,
                    "duration": 0.03804342500001212
                },
                {
                    "name": "C#4",
                    "midi": 61,
                    "time": 273.9126600000065,
                    "velocity": 0.3700787401574803,
                    "duration": 0.21739100000002054
                },
                {
                    "name": "G#4",
                    "midi": 68,
                    "time": 274.1300510000065,
                    "velocity": 0.33070866141732286,
                    "duration": 0.21739099999990685
                },
                {
                    "name": "C#5",
                    "midi": 73,
                    "time": 274.1300510000065,
                    "velocity": 0.7086614173228346,
                    "duration": 0.057970933333308494
                },
                {
                    "name": "C#5",
                    "midi": 73,
                    "time": 274.20251466667315,
                    "velocity": 0.6141732283464567,
                    "duration": 0.057970933333308494
                },
                {
                    "name": "C#5",
                    "midi": 73,
                    "time": 274.2749783333398,
                    "velocity": 0.5905511811023622,
                    "duration": 0.057970933333308494
                },
                {
                    "name": "F5",
                    "midi": 77,
                    "time": 274.3474420000064,
                    "velocity": 0.3858267716535433,
                    "duration": 0.21739100000002054
                },
                {
                    "name": "G#5",
                    "midi": 80,
                    "time": 274.3474420000064,
                    "velocity": 0.5433070866141733,
                    "duration": 0.10869550000001027
                },
                {
                    "name": "C#6",
                    "midi": 85,
                    "time": 274.3474420000064,
                    "velocity": 0.7480314960629921,
                    "duration": 0.10869550000001027
                },
                {
                    "name": "G#4",
                    "midi": 68,
                    "time": 274.56483300000644,
                    "velocity": 0.2440944881889764,
                    "duration": 0.21739099999990685
                },
                {
                    "name": "C#5",
                    "midi": 73,
                    "time": 274.56483300000644,
                    "velocity": 0.5433070866141733,
                    "duration": 0.057970933333308494
                },
                {
                    "name": "C#5",
                    "midi": 73,
                    "time": 274.6372966666731,
                    "velocity": 0.5039370078740157,
                    "duration": 0.057970933333308494
                },
                {
                    "name": "C#5",
                    "midi": 73,
                    "time": 274.7097603333397,
                    "velocity": 0.41732283464566927,
                    "duration": 0.057970933333308494
                },
                {
                    "name": "C#4",
                    "midi": 61,
                    "time": 274.78222400000635,
                    "velocity": 0.36220472440944884,
                    "duration": 0.21739099999990685
                },
                {
                    "name": "C#5",
                    "midi": 73,
                    "time": 274.78222400000635,
                    "velocity": 0.5039370078740157,
                    "duration": 0.057970933333308494
                },
                {
                    "name": "C#5",
                    "midi": 73,
                    "time": 274.854687666673,
                    "velocity": 0.5039370078740157,
                    "duration": 0.057970933333308494
                },
                {
                    "name": "C#5",
                    "midi": 73,
                    "time": 274.9271513333396,
                    "velocity": 0.4330708661417323,
                    "duration": 0.057970933333308494
                },
                {
                    "name": "G#4",
                    "midi": 68,
                    "time": 274.99961500000626,
                    "velocity": 0.33070866141732286,
                    "duration": 0.21739099999990685
                },
                {
                    "name": "C#5",
                    "midi": 73,
                    "time": 274.99961500000626,
                    "velocity": 0.5196850393700787,
                    "duration": 0.057970933333308494
                },
                {
                    "name": "C#5",
                    "midi": 73,
                    "time": 275.0720786666729,
                    "velocity": 0.4645669291338583,
                    "duration": 0.057970933333308494
                },
                {
                    "name": "C#5",
                    "midi": 73,
                    "time": 275.14454233333953,
                    "velocity": 0.49606299212598426,
                    "duration": 0.057970933333308494
                },
                {
                    "name": "A3",
                    "midi": 57,
                    "time": 275.21700600000617,
                    "velocity": 0.4015748031496063,
                    "duration": 0.21739100000002054
                },
                {
                    "name": "G4",
                    "midi": 67,
                    "time": 275.21700600000617,
                    "velocity": 0.44881889763779526,
                    "duration": 0.21739100000002054
                },
                {
                    "name": "E4",
                    "midi": 64,
                    "time": 275.21700600000617,
                    "velocity": 0.23622047244094488,
                    "duration": 0.21739100000002054
                },
                {
                    "name": "E4",
                    "midi": 64,
                    "time": 275.4343970000062,
                    "velocity": 0.4015748031496063,
                    "duration": 0.05434775000003356
                },
                {
                    "name": "E5",
                    "midi": 76,
                    "time": 275.4343970000062,
                    "velocity": 0.25196850393700787,
                    "duration": 0.03713762916669339
                },
                {
                    "name": "C5",
                    "midi": 72,
                    "time": 275.4343970000062,
                    "velocity": 0.25196850393700787,
                    "duration": 0.03713762916669339
                },
                {
                    "name": "F5",
                    "midi": 77,
                    "time": 275.4715346291729,
                    "velocity": 0.2992125984251969,
                    "duration": 0.03713762916669339
                },
                {
                    "name": "D5",
                    "midi": 74,
                    "time": 275.4715346291729,
                    "velocity": 0.09448818897637795,
                    "duration": 0.03713762916669339
                },
                {
                    "name": "E5",
                    "midi": 76,
                    "time": 275.5086722583396,
                    "velocity": 0.30708661417322836,
                    "duration": 0.03804342500001212
                },
                {
                    "name": "G5",
                    "midi": 79,
                    "time": 275.5086722583396,
                    "velocity": 0.33070866141732286,
                    "duration": 0.03804342500001212
                },
                {
                    "name": "G4",
                    "midi": 67,
                    "time": 275.54309250000625,
                    "velocity": 0.4409448818897638,
                    "duration": 0.05434775000003356
                },
                {
                    "name": "F5",
                    "midi": 77,
                    "time": 275.5467156833396,
                    "velocity": 0.3543307086614173,
                    "duration": 0.03713762916669339
                },
                {
                    "name": "A5",
                    "midi": 81,
                    "time": 275.5467156833396,
                    "velocity": 0.3228346456692913,
                    "duration": 0.03713762916669339
                },
                {
                    "name": "G5",
                    "midi": 79,
                    "time": 275.5838533125063,
                    "velocity": 0.23622047244094488,
                    "duration": 0.03713762916669339
                },
                {
                    "name": "B5",
                    "midi": 83,
                    "time": 275.5838533125063,
                    "velocity": 0.4409448818897638,
                    "duration": 0.03713762916669339
                },
                {
                    "name": "C6",
                    "midi": 84,
                    "time": 275.62099094167297,
                    "velocity": 0.4094488188976378,
                    "duration": 0.03804342500001212
                },
                {
                    "name": "A5",
                    "midi": 81,
                    "time": 275.62099094167297,
                    "velocity": 0.4409448818897638,
                    "duration": 0.03804342500001212
                },
                {
                    "name": "C5",
                    "midi": 72,
                    "time": 275.6517880000063,
                    "velocity": 0.47244094488188976,
                    "duration": 0.21739100000007738
                },
                {
                    "name": "B5",
                    "midi": 83,
                    "time": 275.659034366673,
                    "velocity": 0.3700787401574803,
                    "duration": 0.03713762916669339
                },
                {
                    "name": "D6",
                    "midi": 86,
                    "time": 275.659034366673,
                    "velocity": 0.47244094488188976,
                    "duration": 0.03713762916669339
                },
                {
                    "name": "C6",
                    "midi": 84,
                    "time": 275.6961719958397,
                    "velocity": 0.4881889763779528,
                    "duration": 0.03804342500001212
                },
                {
                    "name": "E6",
                    "midi": 88,
                    "time": 275.6961719958397,
                    "velocity": 0.44881889763779526,
                    "duration": 0.03804342500001212
                },
                {
                    "name": "D6",
                    "midi": 86,
                    "time": 275.7342154208397,
                    "velocity": 0.41732283464566927,
                    "duration": 0.03713762916669339
                },
                {
                    "name": "F6",
                    "midi": 89,
                    "time": 275.7342154208397,
                    "velocity": 0.29133858267716534,
                    "duration": 0.03713762916669339
                },
                {
                    "name": "G6",
                    "midi": 91,
                    "time": 275.7713530500064,
                    "velocity": 0.4409448818897638,
                    "duration": 0.03713762916669339
                },
                {
                    "name": "E6",
                    "midi": 88,
                    "time": 275.7713530500064,
                    "velocity": 0.4645669291338583,
                    "duration": 0.03713762916669339
                },
                {
                    "name": "A6",
                    "midi": 93,
                    "time": 275.8084906791731,
                    "velocity": 0.4409448818897638,
                    "duration": 0.03804342500001212
                },
                {
                    "name": "F6",
                    "midi": 89,
                    "time": 275.8084906791731,
                    "velocity": 0.47244094488188976,
                    "duration": 0.03804342500001212
                },
                {
                    "name": "B6",
                    "midi": 95,
                    "time": 275.8465341041731,
                    "velocity": 0.47244094488188976,
                    "duration": 0.03713762916663654
                },
                {
                    "name": "G6",
                    "midi": 91,
                    "time": 275.8465341041731,
                    "velocity": 0.44881889763779526,
                    "duration": 0.03713762916663654
                },
                {
                    "name": "E5",
                    "midi": 76,
                    "time": 275.8691790000064,
                    "velocity": 0.5354330708661418,
                    "duration": 0.21739100000007738
                },
                {
                    "name": "C5",
                    "midi": 72,
                    "time": 275.8691790000064,
                    "velocity": 0.4645669291338583,
                    "duration": 0.21739100000007738
                },
                {
                    "name": "C7",
                    "midi": 96,
                    "time": 275.8836717333397,
                    "velocity": 0.5669291338582677,
                    "duration": 0.03713762916669339
                },
                {
                    "name": "A6",
                    "midi": 93,
                    "time": 275.8836717333397,
                    "velocity": 0.4881889763779528,
                    "duration": 0.03713762916669339
                },
                {
                    "name": "B6",
                    "midi": 95,
                    "time": 275.9208093625064,
                    "velocity": 0.47244094488188976,
                    "duration": 0.03804342500001212
                },
                {
                    "name": "D7",
                    "midi": 98,
                    "time": 275.9208093625064,
                    "velocity": 0.5984251968503937,
                    "duration": 0.03804342500001212
                },
                {
                    "name": "C7",
                    "midi": 96,
                    "time": 275.95885278750643,
                    "velocity": 0.6299212598425197,
                    "duration": 0.03713762916669339
                },
                {
                    "name": "E7",
                    "midi": 100,
                    "time": 275.95885278750643,
                    "velocity": 0.7007874015748031,
                    "duration": 0.03713762916669339
                },
                {
                    "name": "B6",
                    "midi": 95,
                    "time": 275.9959904166731,
                    "velocity": 0.4645669291338583,
                    "duration": 0.03804342500001212
                },
                {
                    "name": "D7",
                    "midi": 98,
                    "time": 275.9959904166731,
                    "velocity": 0.4409448818897638,
                    "duration": 0.03804342500001212
                },
                {
                    "name": "A6",
                    "midi": 93,
                    "time": 276.03403384167314,
                    "velocity": 0.4645669291338583,
                    "duration": 0.03713762916669339
                },
                {
                    "name": "C7",
                    "midi": 96,
                    "time": 276.03403384167314,
                    "velocity": 0.4330708661417323,
                    "duration": 0.03713762916669339
                },
                {
                    "name": "G6",
                    "midi": 91,
                    "time": 276.07117147083983,
                    "velocity": 0.3779527559055118,
                    "duration": 0.03713762916663654
                },
                {
                    "name": "B6",
                    "midi": 95,
                    "time": 276.07117147083983,
                    "velocity": 0.3937007874015748,
                    "duration": 0.03713762916663654
                },
                {
                    "name": "F6",
                    "midi": 89,
                    "time": 276.10830910000647,
                    "velocity": 0.3858267716535433,
                    "duration": 0.03804342500001212
                },
                {
                    "name": "A6",
                    "midi": 93,
                    "time": 276.10830910000647,
                    "velocity": 0.3543307086614173,
                    "duration": 0.03804342500001212
                },
                {
                    "name": "E6",
                    "midi": 88,
                    "time": 276.1463525250065,
                    "velocity": 0.30708661417322836,
                    "duration": 0.03713762916669339
                },
                {
                    "name": "G6",
                    "midi": 91,
                    "time": 276.1463525250065,
                    "velocity": 0.25984251968503935,
                    "duration": 0.03713762916669339
                },
                {
                    "name": "D6",
                    "midi": 86,
                    "time": 276.18349015417317,
                    "velocity": 0.3228346456692913,
                    "duration": 0.03713762916669339
                },
                {
                    "name": "F6",
                    "midi": 89,
                    "time": 276.18349015417317,
                    "velocity": 0.2440944881889764,
                    "duration": 0.03713762916669339
                },
                {
                    "name": "C6",
                    "midi": 84,
                    "time": 276.22062778333986,
                    "velocity": 0.3779527559055118,
                    "duration": 0.03804342500001212
                },
                {
                    "name": "E6",
                    "midi": 88,
                    "time": 276.22062778333986,
                    "velocity": 0.33858267716535434,
                    "duration": 0.03804342500001212
                },
                {
                    "name": "B5",
                    "midi": 83,
                    "time": 276.2586712083399,
                    "velocity": 0.31496062992125984,
                    "duration": 0.03713762916669339
                },
                {
                    "name": "D6",
                    "midi": 86,
                    "time": 276.2586712083399,
                    "velocity": 0.25984251968503935,
                    "duration": 0.03713762916669339
                },
                {
                    "name": "C6",
                    "midi": 84,
                    "time": 276.29580883750657,
                    "velocity": 0.2755905511811024,
                    "duration": 0.03804342500001212
                },
                {
                    "name": "A5",
                    "midi": 81,
                    "time": 276.29580883750657,
                    "velocity": 0.16535433070866143,
                    "duration": 0.03804342500001212
                },
                {
                    "name": "G5",
                    "midi": 79,
                    "time": 276.3338522625066,
                    "velocity": 0.2755905511811024,
                    "duration": 0.03713762916669339
                },
                {
                    "name": "B5",
                    "midi": 83,
                    "time": 276.3338522625066,
                    "velocity": 0.2755905511811024,
                    "duration": 0.03713762916669339
                },
                {
                    "name": "F5",
                    "midi": 77,
                    "time": 276.3709898916733,
                    "velocity": 0.33070866141732286,
                    "duration": 0.03713762916669339
                },
                {
                    "name": "A5",
                    "midi": 81,
                    "time": 276.3709898916733,
                    "velocity": 0.15748031496062992,
                    "duration": 0.03713762916669339
                },
                {
                    "name": "E5",
                    "midi": 76,
                    "time": 276.40812752083997,
                    "velocity": 0.33070866141732286,
                    "duration": 0.03804342500001212
                },
                {
                    "name": "G5",
                    "midi": 79,
                    "time": 276.40812752083997,
                    "velocity": 0.1968503937007874,
                    "duration": 0.03804342500001212
                },
                {
                    "name": "D5",
                    "midi": 74,
                    "time": 276.44617094584,
                    "velocity": 0.28346456692913385,
                    "duration": 0.03713762916669339
                },
                {
                    "name": "F5",
                    "midi": 77,
                    "time": 276.44617094584,
                    "velocity": 0.2204724409448819,
                    "duration": 0.03713762916669339
                },
                {
                    "name": "C5",
                    "midi": 72,
                    "time": 276.4833085750067,
                    "velocity": 0.11811023622047244,
                    "duration": 0.03804342500001212
                },
                {
                    "name": "E5",
                    "midi": 76,
                    "time": 276.4833085750067,
                    "velocity": 0.11023622047244094,
                    "duration": 0.03804342500001212
                },
                {
                    "name": "C#4",
                    "midi": 61,
                    "time": 276.5213520000067,
                    "velocity": 0.41732283464566927,
                    "duration": 0.21739100000002054
                },
                {
                    "name": "G#4",
                    "midi": 68,
                    "time": 276.7387430000067,
                    "velocity": 0.4330708661417323,
                    "duration": 0.21739099999990685
                },
                {
                    "name": "C#5",
                    "midi": 73,
                    "time": 276.7387430000067,
                    "velocity": 0.7086614173228346,
                    "duration": 0.057970933333308494
                },
                {
                    "name": "C#5",
                    "midi": 73,
                    "time": 276.81120666667334,
                    "velocity": 0.6141732283464567,
                    "duration": 0.057970933333308494
                },
                {
                    "name": "C#5",
                    "midi": 73,
                    "time": 276.88367033334,
                    "velocity": 0.5905511811023622,
                    "duration": 0.057970933333308494
                },
                {
                    "name": "F5",
                    "midi": 77,
                    "time": 276.9561340000066,
                    "velocity": 0.41732283464566927,
                    "duration": 0.21739100000002054
                },
                {
                    "name": "G#5",
                    "midi": 80,
                    "time": 276.9561340000066,
                    "velocity": 0.5433070866141733,
                    "duration": 0.10869550000001027
                },
                {
                    "name": "C#6",
                    "midi": 85,
                    "time": 276.9561340000066,
                    "velocity": 0.7480314960629921,
                    "duration": 0.10869550000001027
                },
                {
                    "name": "G#4",
                    "midi": 68,
                    "time": 277.17352500000663,
                    "velocity": 0.33070866141732286,
                    "duration": 0.21739099999990685
                },
                {
                    "name": "C#5",
                    "midi": 73,
                    "time": 277.17352500000663,
                    "velocity": 0.5433070866141733,
                    "duration": 0.057970933333308494
                },
                {
                    "name": "C#5",
                    "midi": 73,
                    "time": 277.24598866667327,
                    "velocity": 0.5039370078740157,
                    "duration": 0.057970933333308494
                },
                {
                    "name": "C#5",
                    "midi": 73,
                    "time": 277.3184523333399,
                    "velocity": 0.41732283464566927,
                    "duration": 0.057970933333308494
                },
                {
                    "name": "C#4",
                    "midi": 61,
                    "time": 277.39091600000654,
                    "velocity": 0.31496062992125984,
                    "duration": 0.21739099999990685
                },
                {
                    "name": "C#5",
                    "midi": 73,
                    "time": 277.39091600000654,
                    "velocity": 0.5039370078740157,
                    "duration": 0.057970933333308494
                },
                {
                    "name": "C#5",
                    "midi": 73,
                    "time": 277.4633796666732,
                    "velocity": 0.5039370078740157,
                    "duration": 0.057970933333308494
                },
                {
                    "name": "C#5",
                    "midi": 73,
                    "time": 277.5358433333398,
                    "velocity": 0.4330708661417323,
                    "duration": 0.057970933333308494
                },
                {
                    "name": "G#4",
                    "midi": 68,
                    "time": 277.60830700000645,
                    "velocity": 0.41732283464566927,
                    "duration": 0.21739099999990685
                },
                {
                    "name": "C#5",
                    "midi": 73,
                    "time": 277.60830700000645,
                    "velocity": 0.5196850393700787,
                    "duration": 0.057970933333308494
                },
                {
                    "name": "C#5",
                    "midi": 73,
                    "time": 277.6807706666731,
                    "velocity": 0.4645669291338583,
                    "duration": 0.057970933333308494
                },
                {
                    "name": "C#5",
                    "midi": 73,
                    "time": 277.7532343333397,
                    "velocity": 0.49606299212598426,
                    "duration": 0.057970933333308494
                },
                {
                    "name": "F4",
                    "midi": 65,
                    "time": 277.82569800000635,
                    "velocity": 0.6692913385826772,
                    "duration": 0.21739100000002054
                },
                {
                    "name": "D4",
                    "midi": 62,
                    "time": 277.82569800000635,
                    "velocity": 0.5669291338582677,
                    "duration": 0.21739100000002054
                },
                {
                    "name": "G3",
                    "midi": 55,
                    "time": 277.82569800000635,
                    "velocity": 0.5984251968503937,
                    "duration": 0.21739100000002054
                },
                {
                    "name": "F5",
                    "midi": 77,
                    "time": 278.0430890000064,
                    "velocity": 0.5984251968503937,
                    "duration": 0.03079705833334856
                },
                {
                    "name": "A5",
                    "midi": 81,
                    "time": 278.0430890000064,
                    "velocity": 0.5984251968503937,
                    "duration": 0.03079705833334856
                },
                {
                    "name": "D4",
                    "midi": 62,
                    "time": 278.0430890000064,
                    "velocity": 0.5984251968503937,
                    "duration": 0.10869550000006711
                },
                {
                    "name": "G5",
                    "midi": 79,
                    "time": 278.0738860583397,
                    "velocity": 0.41732283464566927,
                    "duration": 0.03079705833334856
                },
                {
                    "name": "B5",
                    "midi": 83,
                    "time": 278.0738860583397,
                    "velocity": 0.5039370078740157,
                    "duration": 0.03079705833334856
                },
                {
                    "name": "A5",
                    "midi": 81,
                    "time": 278.1046831166731,
                    "velocity": 0.47244094488188976,
                    "duration": 0.03079705833334856
                },
                {
                    "name": "C6",
                    "midi": 84,
                    "time": 278.1046831166731,
                    "velocity": 0.44881889763779526,
                    "duration": 0.03079705833334856
                },
                {
                    "name": "B5",
                    "midi": 83,
                    "time": 278.1354801750064,
                    "velocity": 0.44881889763779526,
                    "duration": 0.031702854166667294
                },
                {
                    "name": "D6",
                    "midi": 86,
                    "time": 278.1354801750064,
                    "velocity": 0.4881889763779528,
                    "duration": 0.031702854166667294
                },
                {
                    "name": "F4",
                    "midi": 65,
                    "time": 278.15178450000644,
                    "velocity": 0.6299212598425197,
                    "duration": 0.10869550000001027
                },
                {
                    "name": "C6",
                    "midi": 84,
                    "time": 278.1671830291731,
                    "velocity": 0.47244094488188976,
                    "duration": 0.03079705833334856
                },
                {
                    "name": "E6",
                    "midi": 88,
                    "time": 278.1671830291731,
                    "velocity": 0.4881889763779528,
                    "duration": 0.03079705833334856
                },
                {
                    "name": "D6",
                    "midi": 86,
                    "time": 278.19798008750644,
                    "velocity": 0.4645669291338583,
                    "duration": 0.03079705833334856
                },
                {
                    "name": "F6",
                    "midi": 89,
                    "time": 278.19798008750644,
                    "velocity": 0.5984251968503937,
                    "duration": 0.03079705833334856
                },
                {
                    "name": "E6",
                    "midi": 88,
                    "time": 278.2287771458398,
                    "velocity": 0.4881889763779528,
                    "duration": 0.031702854166667294
                },
                {
                    "name": "G6",
                    "midi": 91,
                    "time": 278.2287771458398,
                    "velocity": 0.6692913385826772,
                    "duration": 0.031702854166667294
                },
                {
                    "name": "F6",
                    "midi": 89,
                    "time": 278.26048000000645,
                    "velocity": 0.5984251968503937,
                    "duration": 0.03079705833334856
                },
                {
                    "name": "A6",
                    "midi": 93,
                    "time": 278.26048000000645,
                    "velocity": 0.5039370078740157,
                    "duration": 0.03079705833334856
                },
                {
                    "name": "B4",
                    "midi": 71,
                    "time": 278.26048000000645,
                    "velocity": 0.6299212598425197,
                    "duration": 0.21739100000007738
                },
                {
                    "name": "G6",
                    "midi": 91,
                    "time": 278.2912770583398,
                    "velocity": 0.5669291338582677,
                    "duration": 0.03079705833334856
                },
                {
                    "name": "B6",
                    "midi": 95,
                    "time": 278.2912770583398,
                    "velocity": 0.7007874015748031,
                    "duration": 0.03079705833334856
                },
                {
                    "name": "C7",
                    "midi": 96,
                    "time": 278.32207411667315,
                    "velocity": 0.6299212598425197,
                    "duration": 0.03079705833334856
                },
                {
                    "name": "A6",
                    "midi": 93,
                    "time": 278.32207411667315,
                    "velocity": 0.5984251968503937,
                    "duration": 0.03079705833334856
                },
                {
                    "name": "B6",
                    "midi": 95,
                    "time": 278.3528711750065,
                    "velocity": 0.5984251968503937,
                    "duration": 0.031702854166667294
                },
                {
                    "name": "D7",
                    "midi": 98,
                    "time": 278.3528711750065,
                    "velocity": 0.7716535433070866,
                    "duration": 0.031702854166667294
                },
                {
                    "name": "C7",
                    "midi": 96,
                    "time": 278.38457402917317,
                    "velocity": 0.7007874015748031,
                    "duration": 0.03079705833334856
                },
                {
                    "name": "E7",
                    "midi": 100,
                    "time": 278.38457402917317,
                    "velocity": 0.7007874015748031,
                    "duration": 0.03079705833334856
                },
                {
                    "name": "D7",
                    "midi": 98,
                    "time": 278.4153710875065,
                    "velocity": 0.7007874015748031,
                    "duration": 0.03079705833334856
                },
                {
                    "name": "F7",
                    "midi": 101,
                    "time": 278.4153710875065,
                    "velocity": 0.7322834645669292,
                    "duration": 0.03079705833334856
                },
                {
                    "name": "E7",
                    "midi": 100,
                    "time": 278.44616814583986,
                    "velocity": 0.7007874015748031,
                    "duration": 0.031702854166667294
                },
                {
                    "name": "G7",
                    "midi": 103,
                    "time": 278.44616814583986,
                    "velocity": 0.6299212598425197,
                    "duration": 0.031702854166667294
                },
                {
                    "name": "F7",
                    "midi": 101,
                    "time": 278.47787100000653,
                    "velocity": 0.7716535433070866,
                    "duration": 0.024456487500003732
                },
                {
                    "name": "A7",
                    "midi": 105,
                    "time": 278.47787100000653,
                    "velocity": 0.7716535433070866,
                    "duration": 0.024456487500003732
                },
                {
                    "name": "F5",
                    "midi": 77,
                    "time": 278.47787100000653,
                    "velocity": 0.7322834645669292,
                    "duration": 0.21739100000007738
                },
                {
                    "name": "B4",
                    "midi": 71,
                    "time": 278.47787100000653,
                    "velocity": 0.6299212598425197,
                    "duration": 0.21739100000007738
                },
                {
                    "name": "G7",
                    "midi": 103,
                    "time": 278.50232748750653,
                    "velocity": 0.7007874015748031,
                    "duration": 0.024456487500003732
                },
                {
                    "name": "E7",
                    "midi": 100,
                    "time": 278.50232748750653,
                    "velocity": 0.7007874015748031,
                    "duration": 0.024456487500003732
                },
                {
                    "name": "F7",
                    "midi": 101,
                    "time": 278.52678397500654,
                    "velocity": 0.5669291338582677,
                    "duration": 0.023550691666684997
                },
                {
                    "name": "D7",
                    "midi": 98,
                    "time": 278.52678397500654,
                    "velocity": 0.7322834645669292,
                    "duration": 0.023550691666684997
                },
                {
                    "name": "C7",
                    "midi": 96,
                    "time": 278.5503346666732,
                    "velocity": 0.5984251968503937,
                    "duration": 0.024456487500003732
                },
                {
                    "name": "E7",
                    "midi": 100,
                    "time": 278.5503346666732,
                    "velocity": 0.7007874015748031,
                    "duration": 0.024456487500003732
                },
                {
                    "name": "B6",
                    "midi": 95,
                    "time": 278.5747911541732,
                    "velocity": 0.5669291338582677,
                    "duration": 0.024456487500003732
                },
                {
                    "name": "D7",
                    "midi": 98,
                    "time": 278.5747911541732,
                    "velocity": 0.7007874015748031,
                    "duration": 0.024456487500003732
                },
                {
                    "name": "A6",
                    "midi": 93,
                    "time": 278.59924764167323,
                    "velocity": 0.4330708661417323,
                    "duration": 0.023550691666684997
                },
                {
                    "name": "C7",
                    "midi": 96,
                    "time": 278.59924764167323,
                    "velocity": 0.5669291338582677,
                    "duration": 0.023550691666684997
                },
                {
                    "name": "G6",
                    "midi": 91,
                    "time": 278.6227983333399,
                    "velocity": 0.4015748031496063,
                    "duration": 0.024456487500003732
                },
                {
                    "name": "B6",
                    "midi": 95,
                    "time": 278.6227983333399,
                    "velocity": 0.47244094488188976,
                    "duration": 0.024456487500003732
                },
                {
                    "name": "F6",
                    "midi": 89,
                    "time": 278.6472548208399,
                    "velocity": 0.5984251968503937,
                    "duration": 0.024456487500003732
                },
                {
                    "name": "A6",
                    "midi": 93,
                    "time": 278.6472548208399,
                    "velocity": 0.5669291338582677,
                    "duration": 0.024456487500003732
                },
                {
                    "name": "G6",
                    "midi": 91,
                    "time": 278.6717113083399,
                    "velocity": 0.33858267716535434,
                    "duration": 0.023550691666684997
                },
                {
                    "name": "E6",
                    "midi": 88,
                    "time": 278.6717113083399,
                    "velocity": 0.4409448818897638,
                    "duration": 0.023550691666684997
                },
                {
                    "name": "D6",
                    "midi": 86,
                    "time": 278.6952620000066,
                    "velocity": 0.4330708661417323,
                    "duration": 0.024456487500003732
                },
                {
                    "name": "F6",
                    "midi": 89,
                    "time": 278.6952620000066,
                    "velocity": 0.4330708661417323,
                    "duration": 0.024456487500003732
                },
                {
                    "name": "C6",
                    "midi": 84,
                    "time": 278.7197184875066,
                    "velocity": 0.36220472440944884,
                    "duration": 0.024456487500003732
                },
                {
                    "name": "E6",
                    "midi": 88,
                    "time": 278.7197184875066,
                    "velocity": 0.44881889763779526,
                    "duration": 0.024456487500003732
                },
                {
                    "name": "B5",
                    "midi": 83,
                    "time": 278.7441749750066,
                    "velocity": 0.4330708661417323,
                    "duration": 0.023550691666684997
                },
                {
                    "name": "D6",
                    "midi": 86,
                    "time": 278.7441749750066,
                    "velocity": 0.4409448818897638,
                    "duration": 0.023550691666684997
                },
                {
                    "name": "C6",
                    "midi": 84,
                    "time": 278.7677256666733,
                    "velocity": 0.44881889763779526,
                    "duration": 0.024456487500003732
                },
                {
                    "name": "A5",
                    "midi": 81,
                    "time": 278.7677256666733,
                    "velocity": 0.4330708661417323,
                    "duration": 0.024456487500003732
                },
                {
                    "name": "G5",
                    "midi": 79,
                    "time": 278.7921821541733,
                    "velocity": 0.3858267716535433,
                    "duration": 0.024456487500003732
                },
                {
                    "name": "B5",
                    "midi": 83,
                    "time": 278.7921821541733,
                    "velocity": 0.44881889763779526,
                    "duration": 0.024456487500003732
                },
                {
                    "name": "A5",
                    "midi": 81,
                    "time": 278.8166386416733,
                    "velocity": 0.4094488188976378,
                    "duration": 0.023550691666684997
                },
                {
                    "name": "F5",
                    "midi": 77,
                    "time": 278.8166386416733,
                    "velocity": 0.41732283464566927,
                    "duration": 0.023550691666684997
                },
                {
                    "name": "G5",
                    "midi": 79,
                    "time": 278.84018933334,
                    "velocity": 0.4330708661417323,
                    "duration": 0.024456487500003732
                },
                {
                    "name": "E5",
                    "midi": 76,
                    "time": 278.84018933334,
                    "velocity": 0.3464566929133858,
                    "duration": 0.024456487500003732
                },
                {
                    "name": "D5",
                    "midi": 74,
                    "time": 278.86464582084,
                    "velocity": 0.3700787401574803,
                    "duration": 0.024456487500003732
                },
                {
                    "name": "F5",
                    "midi": 77,
                    "time": 278.86464582084,
                    "velocity": 0.4330708661417323,
                    "duration": 0.024456487500003732
                },
                {
                    "name": "C5",
                    "midi": 72,
                    "time": 278.88910230834,
                    "velocity": 0.36220472440944884,
                    "duration": 0.023550691666684997
                },
                {
                    "name": "E5",
                    "midi": 76,
                    "time": 278.88910230834,
                    "velocity": 0.3937007874015748,
                    "duration": 0.023550691666684997
                },
                {
                    "name": "B4",
                    "midi": 71,
                    "time": 278.9126530000067,
                    "velocity": 0.4409448818897638,
                    "duration": 0.024456487500003732
                },
                {
                    "name": "D5",
                    "midi": 74,
                    "time": 278.9126530000067,
                    "velocity": 0.3543307086614173,
                    "duration": 0.024456487500003732
                },
                {
                    "name": "C5",
                    "midi": 72,
                    "time": 278.9371094875067,
                    "velocity": 0.3937007874015748,
                    "duration": 0.024456487500003732
                },
                {
                    "name": "A4",
                    "midi": 69,
                    "time": 278.9371094875067,
                    "velocity": 0.29133858267716534,
                    "duration": 0.024456487500003732
                },
                {
                    "name": "G4",
                    "midi": 67,
                    "time": 278.9615659750067,
                    "velocity": 0.33070866141732286,
                    "duration": 0.023550691666684997
                },
                {
                    "name": "B4",
                    "midi": 71,
                    "time": 278.9615659750067,
                    "velocity": 0.41732283464566927,
                    "duration": 0.023550691666684997
                },
                {
                    "name": "F4",
                    "midi": 65,
                    "time": 278.9851166666734,
                    "velocity": 0.3464566929133858,
                    "duration": 0.024456487500003732
                },
                {
                    "name": "A4",
                    "midi": 69,
                    "time": 278.9851166666734,
                    "velocity": 0.3700787401574803,
                    "duration": 0.024456487500003732
                },
                {
                    "name": "G4",
                    "midi": 67,
                    "time": 279.0095731541734,
                    "velocity": 0.28346456692913385,
                    "duration": 0.024456487500003732
                },
                {
                    "name": "E4",
                    "midi": 64,
                    "time": 279.0095731541734,
                    "velocity": 0.3228346456692913,
                    "duration": 0.024456487500003732
                },
                {
                    "name": "F4",
                    "midi": 65,
                    "time": 279.0340296416734,
                    "velocity": 0.23622047244094488,
                    "duration": 0.023550691666684997
                },
                {
                    "name": "D4",
                    "midi": 62,
                    "time": 279.0340296416734,
                    "velocity": 0.28346456692913385,
                    "duration": 0.023550691666684997
                },
                {
                    "name": "E4",
                    "midi": 64,
                    "time": 279.05758033334007,
                    "velocity": 0.33070866141732286,
                    "duration": 0.024456487500003732
                },
                {
                    "name": "C4",
                    "midi": 60,
                    "time": 279.05758033334007,
                    "velocity": 0.2047244094488189,
                    "duration": 0.024456487500003732
                },
                {
                    "name": "G2",
                    "midi": 43,
                    "time": 279.0802252291734,
                    "velocity": 0.5984251968503937,
                    "duration": 0.13134039583337653
                },
                {
                    "name": "B3",
                    "midi": 59,
                    "time": 279.0820368208401,
                    "velocity": 0.25984251968503935,
                    "duration": 0.024456487500003732
                },
                {
                    "name": "D4",
                    "midi": 62,
                    "time": 279.0820368208401,
                    "velocity": 0.36220472440944884,
                    "duration": 0.024456487500003732
                },
                {
                    "name": "C4",
                    "midi": 60,
                    "time": 279.1064933083401,
                    "velocity": 0.3858267716535433,
                    "duration": 0.023550691666684997
                },
                {
                    "name": "A3",
                    "midi": 57,
                    "time": 279.1064933083401,
                    "velocity": 0.28346456692913385,
                    "duration": 0.023550691666684997
                },
                {
                    "name": "D3",
                    "midi": 50,
                    "time": 279.11373967500674,
                    "velocity": 0.6692913385826772,
                    "duration": 0.08786219583333832
                },
                {
                    "name": "F3",
                    "midi": 53,
                    "time": 279.12732661250675,
                    "velocity": 0.5354330708661418,
                    "duration": 0.07427525833332993
                },
                {
                    "name": "B3",
                    "midi": 59,
                    "time": 279.1481599166734,
                    "velocity": 0.7322834645669292,
                    "duration": 0.07065207499999815
                },
                {
                    "name": "A3",
                    "midi": 57,
                    "time": 279.18439175000674,
                    "velocity": 0.7007874015748031,
                    "duration": 0.05434775000003356
                },
                {
                    "name": "F3",
                    "midi": 53,
                    "time": 279.18439175000674,
                    "velocity": 0.7007874015748031,
                    "duration": 0.05434775000003356
                },
                {
                    "name": "G3",
                    "midi": 55,
                    "time": 279.2387395000068,
                    "velocity": 0.5039370078740157,
                    "duration": 0.05434774999997671
                },
                {
                    "name": "B3",
                    "midi": 59,
                    "time": 279.2387395000068,
                    "velocity": 0.5984251968503937,
                    "duration": 0.05434774999997671
                },
                {
                    "name": "A3",
                    "midi": 57,
                    "time": 279.29308725000675,
                    "velocity": 0.4881889763779528,
                    "duration": 0.05434774999997671
                },
                {
                    "name": "C4",
                    "midi": 60,
                    "time": 279.29308725000675,
                    "velocity": 0.5669291338582677,
                    "duration": 0.05434774999997671
                },
                {
                    "name": "B3",
                    "midi": 59,
                    "time": 279.3474350000067,
                    "velocity": 0.47244094488188976,
                    "duration": 0.05434774999997671
                },
                {
                    "name": "D4",
                    "midi": 62,
                    "time": 279.3474350000067,
                    "velocity": 0.5669291338582677,
                    "duration": 0.05434774999997671
                },
                {
                    "name": "C4",
                    "midi": 60,
                    "time": 279.4017827500067,
                    "velocity": 0.4330708661417323,
                    "duration": 0.05434774999997671
                },
                {
                    "name": "E4",
                    "midi": 64,
                    "time": 279.4017827500067,
                    "velocity": 0.47244094488188976,
                    "duration": 0.05434774999997671
                },
                {
                    "name": "D4",
                    "midi": 62,
                    "time": 279.4561305000067,
                    "velocity": 0.4645669291338583,
                    "duration": 0.05434774999997671
                },
                {
                    "name": "F4",
                    "midi": 65,
                    "time": 279.4561305000067,
                    "velocity": 0.5669291338582677,
                    "duration": 0.05434774999997671
                },
                {
                    "name": "E4",
                    "midi": 64,
                    "time": 279.51047825000666,
                    "velocity": 0.3700787401574803,
                    "duration": 0.05434774999997671
                },
                {
                    "name": "G4",
                    "midi": 67,
                    "time": 279.51047825000666,
                    "velocity": 0.47244094488188976,
                    "duration": 0.05434774999997671
                },
                {
                    "name": "F4",
                    "midi": 65,
                    "time": 279.56482600000663,
                    "velocity": 0.3858267716535433,
                    "duration": 0.05434774999997671
                },
                {
                    "name": "A4",
                    "midi": 69,
                    "time": 279.56482600000663,
                    "velocity": 0.3700787401574803,
                    "duration": 0.05434774999997671
                },
                {
                    "name": "G4",
                    "midi": 67,
                    "time": 279.6191737500066,
                    "velocity": 0.1968503937007874,
                    "duration": 0.05434774999997671
                },
                {
                    "name": "B4",
                    "midi": 71,
                    "time": 279.6191737500066,
                    "velocity": 0.4330708661417323,
                    "duration": 0.05434774999997671
                },
                {
                    "name": "A4",
                    "midi": 69,
                    "time": 279.6735215000066,
                    "velocity": 0.33858267716535434,
                    "duration": 0.05434774999997671
                },
                {
                    "name": "C5",
                    "midi": 72,
                    "time": 279.6735215000066,
                    "velocity": 0.3858267716535433,
                    "duration": 0.05434774999997671
                },
                {
                    "name": "B4",
                    "midi": 71,
                    "time": 279.72786925000656,
                    "velocity": 0.2283464566929134,
                    "duration": 0.05434774999997671
                },
                {
                    "name": "D5",
                    "midi": 74,
                    "time": 279.72786925000656,
                    "velocity": 0.3937007874015748,
                    "duration": 0.05434774999997671
                },
                {
                    "name": "C5",
                    "midi": 72,
                    "time": 279.78221700000654,
                    "velocity": 0.33070866141732286,
                    "duration": 0.05434774999997671
                },
                {
                    "name": "E5",
                    "midi": 76,
                    "time": 279.78221700000654,
                    "velocity": 0.28346456692913385,
                    "duration": 0.05434774999997671
                },
                {
                    "name": "F5",
                    "midi": 77,
                    "time": 279.8365647500065,
                    "velocity": 0.33070866141732286,
                    "duration": 0.05434774999997671
                },
                {
                    "name": "D5",
                    "midi": 74,
                    "time": 279.8365647500065,
                    "velocity": 0.28346456692913385,
                    "duration": 0.05434774999997671
                },
                {
                    "name": "E5",
                    "midi": 76,
                    "time": 279.8909125000065,
                    "velocity": 0.29133858267716534,
                    "duration": 0.05434774999997671
                },
                {
                    "name": "G5",
                    "midi": 79,
                    "time": 279.8909125000065,
                    "velocity": 0.31496062992125984,
                    "duration": 0.05434774999997671
                },
                {
                    "name": "F5",
                    "midi": 77,
                    "time": 279.94526025000647,
                    "velocity": 0.30708661417322836,
                    "duration": 0.05434774999997671
                },
                {
                    "name": "A5",
                    "midi": 81,
                    "time": 279.94526025000647,
                    "velocity": 0.31496062992125984,
                    "duration": 0.05434774999997671
                },
                {
                    "name": "B5",
                    "midi": 83,
                    "time": 279.99960800000645,
                    "velocity": 0.29133858267716534,
                    "duration": 0.05434774999997671
                },
                {
                    "name": "G5",
                    "midi": 79,
                    "time": 279.99960800000645,
                    "velocity": 0.31496062992125984,
                    "duration": 0.05434774999997671
                },
                {
                    "name": "A5",
                    "midi": 81,
                    "time": 280.0539557500064,
                    "velocity": 0.28346456692913385,
                    "duration": 0.05434774999997671
                },
                {
                    "name": "C6",
                    "midi": 84,
                    "time": 280.0539557500064,
                    "velocity": 0.4881889763779528,
                    "duration": 0.05434774999997671
                },
                {
                    "name": "B5",
                    "midi": 83,
                    "time": 280.1083035000064,
                    "velocity": 0.3779527559055118,
                    "duration": 0.05434774999997671
                },
                {
                    "name": "D6",
                    "midi": 86,
                    "time": 280.1083035000064,
                    "velocity": 0.3937007874015748,
                    "duration": 0.05434774999997671
                },
                {
                    "name": "E6",
                    "midi": 88,
                    "time": 280.1626512500064,
                    "velocity": 0.23622047244094488,
                    "duration": 0.05434774999997671
                },
                {
                    "name": "C6",
                    "midi": 84,
                    "time": 280.1626512500064,
                    "velocity": 0.33070866141732286,
                    "duration": 0.05434774999997671
                },
                {
                    "name": "D6",
                    "midi": 86,
                    "time": 280.21699900000635,
                    "velocity": 0.2283464566929134,
                    "duration": 0.05434774999997671
                },
                {
                    "name": "F6",
                    "midi": 89,
                    "time": 280.21699900000635,
                    "velocity": 0.3543307086614173,
                    "duration": 0.05434774999997671
                },
                {
                    "name": "E6",
                    "midi": 88,
                    "time": 280.27134675000633,
                    "velocity": 0.2204724409448819,
                    "duration": 0.05434774999997671
                },
                {
                    "name": "G6",
                    "midi": 91,
                    "time": 280.27134675000633,
                    "velocity": 0.41732283464566927,
                    "duration": 0.05434774999997671
                },
                {
                    "name": "F6",
                    "midi": 89,
                    "time": 280.3256945000063,
                    "velocity": 0.2677165354330709,
                    "duration": 0.05434774999997671
                },
                {
                    "name": "A6",
                    "midi": 93,
                    "time": 280.3256945000063,
                    "velocity": 0.2125984251968504,
                    "duration": 0.05434774999997671
                },
                {
                    "name": "B6",
                    "midi": 95,
                    "time": 280.3800422500063,
                    "velocity": 0.15748031496062992,
                    "duration": 0.05434775000003356
                },
                {
                    "name": "G6",
                    "midi": 91,
                    "time": 280.3800422500063,
                    "velocity": 0.1889763779527559,
                    "duration": 0.05434775000003356
                },
                {
                    "name": "C#4",
                    "midi": 61,
                    "time": 280.392723391673,
                    "velocity": 0.3543307086614173,
                    "duration": 0.1548910875000047
                },
                {
                    "name": "G#4",
                    "midi": 68,
                    "time": 280.4208030625063,
                    "velocity": 0.25984251968503935,
                    "duration": 0.12681141666666917
                },
                {
                    "name": "C#6",
                    "midi": 85,
                    "time": 280.4343900000063,
                    "velocity": 0.3858267716535433,
                    "duration": 0.10869550000001027
                },
                {
                    "name": "G#6",
                    "midi": 92,
                    "time": 280.4343900000063,
                    "velocity": 0.4015748031496063,
                    "duration": 0.10869550000001027
                },
                {
                    "name": "C#7",
                    "midi": 97,
                    "time": 280.4343900000063,
                    "velocity": 0.3937007874015748,
                    "duration": 0.10869550000001027
                },
                {
                    "name": "F5",
                    "midi": 77,
                    "time": 280.4588464875063,
                    "velocity": 0.44881889763779526,
                    "duration": 0.09057958333335137
                },
                {
                    "name": "C#5",
                    "midi": 73,
                    "time": 280.65178100000634,
                    "velocity": 0.3779527559055118,
                    "duration": 0.07246366666669246
                },
                {
                    "name": "G#4",
                    "midi": 68,
                    "time": 280.65178100000634,
                    "velocity": 0.15748031496062992,
                    "duration": 0.21739100000007738
                },
                {
                    "name": "C#5",
                    "midi": 73,
                    "time": 280.72424466667303,
                    "velocity": 0.3937007874015748,
                    "duration": 0.07246366666669246
                },
                {
                    "name": "C#5",
                    "midi": 73,
                    "time": 280.7967083333397,
                    "velocity": 0.4330708661417323,
                    "duration": 0.07246366666669246
                },
                {
                    "name": "C#6",
                    "midi": 85,
                    "time": 280.8691720000064,
                    "velocity": 0.47244094488188976,
                    "duration": 0.10869550000001027
                },
                {
                    "name": "G#5",
                    "midi": 80,
                    "time": 280.8691720000064,
                    "velocity": 0.41732283464566927,
                    "duration": 0.10869550000001027
                },
                {
                    "name": "F5",
                    "midi": 77,
                    "time": 280.8691720000064,
                    "velocity": 0.28346456692913385,
                    "duration": 0.21739100000002054
                },
                {
                    "name": "C#5",
                    "midi": 73,
                    "time": 281.08656300000644,
                    "velocity": 0.3779527559055118,
                    "duration": 0.05072456666664493
                },
                {
                    "name": "G#4",
                    "midi": 68,
                    "time": 281.08656300000644,
                    "velocity": 0.1889763779527559,
                    "duration": 0.21739099999990685
                },
                {
                    "name": "C#5",
                    "midi": 73,
                    "time": 281.15902666667307,
                    "velocity": 0.36220472440944884,
                    "duration": 0.05072456666664493
                },
                {
                    "name": "C#5",
                    "midi": 73,
                    "time": 281.2314903333397,
                    "velocity": 0.3858267716535433,
                    "duration": 0.05072456666664493
                },
                {
                    "name": "C#5",
                    "midi": 73,
                    "time": 281.30395400000634,
                    "velocity": 0.4330708661417323,
                    "duration": 0.05072456666664493
                },
                {
                    "name": "C#4",
                    "midi": 61,
                    "time": 281.30395400000634,
                    "velocity": 0.2992125984251969,
                    "duration": 0.21739099999990685
                },
                {
                    "name": "C#5",
                    "midi": 73,
                    "time": 281.376417666673,
                    "velocity": 0.4409448818897638,
                    "duration": 0.05072456666664493
                },
                {
                    "name": "C#5",
                    "midi": 73,
                    "time": 281.4488813333396,
                    "velocity": 0.4330708661417323,
                    "duration": 0.05072456666664493
                },
                {
                    "name": "C#5",
                    "midi": 73,
                    "time": 281.52134500000625,
                    "velocity": 0.5354330708661418,
                    "duration": 0.050724566666701776
                },
                {
                    "name": "G#4",
                    "midi": 68,
                    "time": 281.52134500000625,
                    "velocity": 0.3228346456692913,
                    "duration": 0.2173909999999637
                },
                {
                    "name": "C#5",
                    "midi": 73,
                    "time": 281.59380866667294,
                    "velocity": 0.5354330708661418,
                    "duration": 0.05072456666664493
                },
                {
                    "name": "C#5",
                    "midi": 73,
                    "time": 281.6662723333396,
                    "velocity": 0.5984251968503937,
                    "duration": 0.05072456666664493
                },
                {
                    "name": "C#4",
                    "midi": 61,
                    "time": 281.7387360000062,
                    "velocity": 0.2283464566929134,
                    "duration": 0.21739100000002054
                },
                {
                    "name": "G#4",
                    "midi": 68,
                    "time": 281.95612700000623,
                    "velocity": 0.2440944881889764,
                    "duration": 0.2173909999999637
                },
                {
                    "name": "C#5",
                    "midi": 73,
                    "time": 282.0285906666729,
                    "velocity": 0.5354330708661418,
                    "duration": 0.05072456666664493
                },
                {
                    "name": "C#5",
                    "midi": 73,
                    "time": 282.10105433333956,
                    "velocity": 0.6692913385826772,
                    "duration": 0.05072456666664493
                },
                {
                    "name": "C#5",
                    "midi": 73,
                    "time": 282.1735180000062,
                    "velocity": 0.6692913385826772,
                    "duration": 0.05072456666664493
                },
                {
                    "name": "F5",
                    "midi": 77,
                    "time": 282.1735180000062,
                    "velocity": 0.2677165354330709,
                    "duration": 0.2173909999999637
                },
                {
                    "name": "C#6",
                    "midi": 85,
                    "time": 282.24598166667283,
                    "velocity": 0.5669291338582677,
                    "duration": 0.10869550000001027
                },
                {
                    "name": "G#5",
                    "midi": 80,
                    "time": 282.24598166667283,
                    "velocity": 0.5669291338582677,
                    "duration": 0.10869550000001027
                },
                {
                    "name": "G#4",
                    "midi": 68,
                    "time": 282.39090900000616,
                    "velocity": 0.2204724409448819,
                    "duration": 0.2173909999999637
                },
                {
                    "name": "C#5",
                    "midi": 73,
                    "time": 282.46337266667285,
                    "velocity": 0.4409448818897638,
                    "duration": 0.057970933333308494
                },
                {
                    "name": "C#5",
                    "midi": 73,
                    "time": 282.5358363333395,
                    "velocity": 0.4645669291338583,
                    "duration": 0.057970933333308494
                },
                {
                    "name": "C#5",
                    "midi": 73,
                    "time": 282.6083000000061,
                    "velocity": 0.47244094488188976,
                    "duration": 0.057970933333308494
                },
                {
                    "name": "C#4",
                    "midi": 61,
                    "time": 282.6083000000061,
                    "velocity": 0.28346456692913385,
                    "duration": 0.21739099999990685
                },
                {
                    "name": "C#5",
                    "midi": 73,
                    "time": 282.68076366667276,
                    "velocity": 0.5984251968503937,
                    "duration": 0.057970933333308494
                },
                {
                    "name": "C#5",
                    "midi": 73,
                    "time": 282.7532273333394,
                    "velocity": 0.5669291338582677,
                    "duration": 0.057970933333308494
                },
                {
                    "name": "C#5",
                    "midi": 73,
                    "time": 282.82569100000603,
                    "velocity": 0.5669291338582677,
                    "duration": 0.05797093333336534
                },
                {
                    "name": "G#4",
                    "midi": 68,
                    "time": 282.82569100000603,
                    "velocity": 0.1968503937007874,
                    "duration": 0.2173909999999637
                },
                {
                    "name": "C#5",
                    "midi": 73,
                    "time": 282.8981546666727,
                    "velocity": 0.5984251968503937,
                    "duration": 0.057970933333308494
                },
                {
                    "name": "C#5",
                    "midi": 73,
                    "time": 282.97061833333936,
                    "velocity": 0.6299212598425197,
                    "duration": 0.057970933333308494
                },
                {
                    "name": "C#4",
                    "midi": 61,
                    "time": 283.043082000006,
                    "velocity": 0.4330708661417323,
                    "duration": 0.21739100000002054
                },
                {
                    "name": "C#5",
                    "midi": 73,
                    "time": 283.260473000006,
                    "velocity": 0.5669291338582677,
                    "duration": 0.057970933333308494
                },
                {
                    "name": "C#5",
                    "midi": 73,
                    "time": 283.33293666667265,
                    "velocity": 0.7007874015748031,
                    "duration": 0.057970933333308494
                },
                {
                    "name": "C#5",
                    "midi": 73,
                    "time": 283.4054003333393,
                    "velocity": 0.7007874015748031,
                    "duration": 0.057970933333308494
                },
                {
                    "name": "C#5",
                    "midi": 73,
                    "time": 283.4778640000059,
                    "velocity": 0.7322834645669292,
                    "duration": 0.21739100000002054
                },
                {
                    "name": "C#5",
                    "midi": 73,
                    "time": 283.69525500000594,
                    "velocity": 0.6692913385826772,
                    "duration": 0.057970933333308494
                },
                {
                    "name": "C#5",
                    "midi": 73,
                    "time": 283.7677186666726,
                    "velocity": 0.5354330708661418,
                    "duration": 0.057970933333308494
                },
                {
                    "name": "C#5",
                    "midi": 73,
                    "time": 283.8401823333392,
                    "velocity": 0.4645669291338583,
                    "duration": 0.057970933333308494
                },
                {
                    "name": "C#5",
                    "midi": 73,
                    "time": 283.91264600000585,
                    "velocity": 0.5039370078740157,
                    "duration": 0.057970933333308494
                },
                {
                    "name": "C#5",
                    "midi": 73,
                    "time": 283.9851096666725,
                    "velocity": 0.33070866141732286,
                    "duration": 0.057970933333308494
                },
                {
                    "name": "C#5",
                    "midi": 73,
                    "time": 284.0575733333391,
                    "velocity": 0.33858267716535434,
                    "duration": 0.057970933333308494
                },
                {
                    "name": "C#5",
                    "midi": 73,
                    "time": 284.13003700000576,
                    "velocity": 0.2440944881889764,
                    "duration": 0.05797093333336534
                },
                {
                    "name": "C#5",
                    "midi": 73,
                    "time": 284.20250066667245,
                    "velocity": 0.2125984251968504,
                    "duration": 0.057970933333308494
                },
                {
                    "name": "C#5",
                    "midi": 73,
                    "time": 284.2749643333391,
                    "velocity": 0.25196850393700787,
                    "duration": 0.057970933333308494
                },
                {
                    "name": "C#5",
                    "midi": 73,
                    "time": 284.3474280000057,
                    "velocity": 0.4330708661417323,
                    "duration": 0.21739100000002054
                },
                {
                    "name": "C#5",
                    "midi": 73,
                    "time": 284.56481900000574,
                    "velocity": 0.4015748031496063,
                    "duration": 0.057970933333308494
                },
                {
                    "name": "C#5",
                    "midi": 73,
                    "time": 284.6372826666724,
                    "velocity": 0.3464566929133858,
                    "duration": 0.057970933333308494
                },
                {
                    "name": "C#5",
                    "midi": 73,
                    "time": 284.709746333339,
                    "velocity": 0.25196850393700787,
                    "duration": 0.057970933333308494
                },
                {
                    "name": "C#5",
                    "midi": 73,
                    "time": 284.78221000000565,
                    "velocity": 0.28346456692913385,
                    "duration": 0.057970933333308494
                },
                {
                    "name": "C#5",
                    "midi": 73,
                    "time": 284.8546736666723,
                    "velocity": 0.23622047244094488,
                    "duration": 0.057970933333308494
                },
                {
                    "name": "C#5",
                    "midi": 73,
                    "time": 284.9271373333389,
                    "velocity": 0.16535433070866143,
                    "duration": 0.057970933333308494
                },
                {
                    "name": "C#5",
                    "midi": 73,
                    "time": 284.99960100000555,
                    "velocity": 0.31496062992125984,
                    "duration": 0.057970933333308494
                },
                {
                    "name": "C#5",
                    "midi": 73,
                    "time": 285.0720646666722,
                    "velocity": 0.2125984251968504,
                    "duration": 0.057970933333308494
                },
                {
                    "name": "C#5",
                    "midi": 73,
                    "time": 285.1445283333388,
                    "velocity": 0.2204724409448819,
                    "duration": 0.057970933333308494
                },
                {
                    "name": "C#5",
                    "midi": 73,
                    "time": 285.21699200000546,
                    "velocity": 0.25984251968503935,
                    "duration": 0.057970933333308494
                },
                {
                    "name": "C#5",
                    "midi": 73,
                    "time": 285.2894556666721,
                    "velocity": 0.13385826771653545,
                    "duration": 0.057970933333308494
                },
                {
                    "name": "C#5",
                    "midi": 73,
                    "time": 285.36191933333873,
                    "velocity": 0.14173228346456693,
                    "duration": 0.057970933333308494
                },
                {
                    "name": "C#5",
                    "midi": 73,
                    "time": 285.43438300000537,
                    "velocity": 0.25196850393700787,
                    "duration": 0.057970933333308494
                },
                {
                    "name": "C#5",
                    "midi": 73,
                    "time": 285.506846666672,
                    "velocity": 0.18110236220472442,
                    "duration": 0.057970933333308494
                },
                {
                    "name": "C#5",
                    "midi": 73,
                    "time": 285.57931033333864,
                    "velocity": 0.2125984251968504,
                    "duration": 0.057970933333308494
                },
                {
                    "name": "B3",
                    "midi": 59,
                    "time": 285.6517740000053,
                    "velocity": 0.07874015748031496,
                    "duration": 0.10235492916666544
                },
                {
                    "name": "B4",
                    "midi": 71,
                    "time": 285.6517740000053,
                    "velocity": 0.2755905511811024,
                    "duration": 0.09239117499998883
                },
                {
                    "name": "F4",
                    "midi": 65,
                    "time": 285.6517740000053,
                    "velocity": 0.47244094488188976,
                    "duration": 0.0914853791666701
                },
                {
                    "name": "G#5",
                    "midi": 80,
                    "time": 285.6517740000053,
                    "velocity": 0.3700787401574803,
                    "duration": 0.06884048333336068
                },
                {
                    "name": "C#5",
                    "midi": 73,
                    "time": 285.6517740000053,
                    "velocity": 0.31496062992125984,
                    "duration": 0.06884048333336068
                },
                {
                    "name": "G#4",
                    "midi": 68,
                    "time": 285.7387304000053,
                    "velocity": 0.2992125984251969,
                    "duration": 0.06884048333330384
                },
                {
                    "name": "G#4",
                    "midi": 68,
                    "time": 285.82568680000526,
                    "velocity": 0.25196850393700787,
                    "duration": 0.06884048333330384
                },
                {
                    "name": "C#3",
                    "midi": 49,
                    "time": 285.86916500000524,
                    "velocity": 0.25196850393700787,
                    "duration": 0.1150360708333551
                },
                {
                    "name": "G#4",
                    "midi": 68,
                    "time": 285.9126432000052,
                    "velocity": 0.2440944881889764,
                    "duration": 0.06884048333336068
                },
                {
                    "name": "G#4",
                    "midi": 68,
                    "time": 285.99959960000524,
                    "velocity": 0.23622047244094488,
                    "duration": 0.06884048333336068
                },
                {
                    "name": "F#2",
                    "midi": 42,
                    "time": 286.08655600000526,
                    "velocity": 0.47244094488188976,
                    "duration": 0.12137664166669992
                },
                {
                    "name": "C#3",
                    "midi": 49,
                    "time": 286.08655600000526,
                    "velocity": 0.3228346456692913,
                    "duration": 0.12681141666672602
                },
                {
                    "name": "B3",
                    "midi": 59,
                    "time": 286.08655600000526,
                    "velocity": 0.33070866141732286,
                    "duration": 0.10144913333334671
                },
                {
                    "name": "C#5",
                    "midi": 73,
                    "time": 286.08655600000526,
                    "velocity": 0.2440944881889764,
                    "duration": 0.06884048333336068
                },
                {
                    "name": "G#5",
                    "midi": 80,
                    "time": 286.08655600000526,
                    "velocity": 0.3700787401574803,
                    "duration": 0.06884048333336068
                },
                {
                    "name": "G#4",
                    "midi": 68,
                    "time": 286.1735124000053,
                    "velocity": 0.2204724409448819,
                    "duration": 0.06884048333336068
                },
                {
                    "name": "G#4",
                    "midi": 68,
                    "time": 286.2604688000053,
                    "velocity": 0.2755905511811024,
                    "duration": 0.06884048333336068
                },
                {
                    "name": "G#4",
                    "midi": 68,
                    "time": 286.3474252000053,
                    "velocity": 0.23622047244094488,
                    "duration": 0.06884048333336068
                },
                {
                    "name": "G#4",
                    "midi": 68,
                    "time": 286.43438160000534,
                    "velocity": 0.23622047244094488,
                    "duration": 0.06884048333336068
                },
                {
                    "name": "B4",
                    "midi": 71,
                    "time": 286.52133800000536,
                    "velocity": 0.2125984251968504,
                    "duration": 0.08152162499999349
                },
                {
                    "name": "F4",
                    "midi": 65,
                    "time": 286.52133800000536,
                    "velocity": 0.44881889763779526,
                    "duration": 0.09420276666668315
                },
                {
                    "name": "B3",
                    "midi": 59,
                    "time": 286.52133800000536,
                    "velocity": 0.2204724409448819,
                    "duration": 0.07518105416664866
                },
                {
                    "name": "C#5",
                    "midi": 73,
                    "time": 286.52133800000536,
                    "velocity": 0.2440944881889764,
                    "duration": 0.10869550000001027
                },
                {
                    "name": "G#5",
                    "midi": 80,
                    "time": 286.52133800000536,
                    "velocity": 0.33070866141732286,
                    "duration": 0.10869550000001027
                },
                {
                    "name": "G#4",
                    "midi": 68,
                    "time": 286.63003350000537,
                    "velocity": 0.2992125984251969,
                    "duration": 0.10869550000001027
                },
                {
                    "name": "C5",
                    "midi": 72,
                    "time": 286.7387290000054,
                    "velocity": 0.23622047244094488,
                    "duration": 0.08605060416670085
                },
                {
                    "name": "F#4",
                    "midi": 66,
                    "time": 286.7387290000054,
                    "velocity": 0.4330708661417323,
                    "duration": 0.08423901250000654
                },
                {
                    "name": "C4",
                    "midi": 60,
                    "time": 286.7387290000054,
                    "velocity": 0.3228346456692913,
                    "duration": 0.08242742083331223
                },
                {
                    "name": "G#5",
                    "midi": 80,
                    "time": 286.7387290000054,
                    "velocity": 0.1732283464566929,
                    "duration": 0.10869550000001027
                },
                {
                    "name": "C#6",
                    "midi": 85,
                    "time": 286.7387290000054,
                    "velocity": 0.44881889763779526,
                    "duration": 0.10869550000001027
                },
                {
                    "name": "C#5",
                    "midi": 73,
                    "time": 286.8474245000054,
                    "velocity": 0.33858267716535434,
                    "duration": 0.10869550000001027
                },
                {
                    "name": "B4",
                    "midi": 71,
                    "time": 286.9561200000054,
                    "velocity": 0.2125984251968504,
                    "duration": 0.09239117500004568
                },
                {
                    "name": "F4",
                    "midi": 65,
                    "time": 286.9561200000054,
                    "velocity": 0.44881889763779526,
                    "duration": 0.08967378750003263
                },
                {
                    "name": "B3",
                    "midi": 59,
                    "time": 286.9561200000054,
                    "velocity": 0.23622047244094488,
                    "duration": 0.0833332166666878
                },
                {
                    "name": "C#5",
                    "midi": 73,
                    "time": 286.9561200000054,
                    "velocity": 0.25196850393700787,
                    "duration": 0.06884048333336068
                },
                {
                    "name": "G#5",
                    "midi": 80,
                    "time": 286.9561200000054,
                    "velocity": 0.3858267716535433,
                    "duration": 0.06884048333336068
                },
                {
                    "name": "G#4",
                    "midi": 68,
                    "time": 287.0430764000054,
                    "velocity": 0.36220472440944884,
                    "duration": 0.06884048333336068
                },
                {
                    "name": "G#4",
                    "midi": 68,
                    "time": 287.13003280000544,
                    "velocity": 0.2677165354330709,
                    "duration": 0.06884048333336068
                },
                {
                    "name": "G#4",
                    "midi": 68,
                    "time": 287.21698920000546,
                    "velocity": 0.25984251968503935,
                    "duration": 0.06884048333336068
                },
                {
                    "name": "G#4",
                    "midi": 68,
                    "time": 287.3039456000055,
                    "velocity": 0.25196850393700787,
                    "duration": 0.06884048333336068
                },
                {
                    "name": "B4",
                    "midi": 71,
                    "time": 287.3909020000055,
                    "velocity": 0.28346456692913385,
                    "duration": 0.07518105416664866
                },
                {
                    "name": "F4",
                    "midi": 65,
                    "time": 287.3909020000055,
                    "velocity": 0.47244094488188976,
                    "duration": 0.08242742083331223
                },
                {
                    "name": "B3",
                    "midi": 59,
                    "time": 287.3909020000055,
                    "velocity": 0.18110236220472442,
                    "duration": 0.086050604166644
                },
                {
                    "name": "C#5",
                    "midi": 73,
                    "time": 287.3909020000055,
                    "velocity": 0.2440944881889764,
                    "duration": 0.08695639999996274
                },
                {
                    "name": "G#5",
                    "midi": 80,
                    "time": 287.3909020000055,
                    "velocity": 0.4015748031496063,
                    "duration": 0.08695639999996274
                },
                {
                    "name": "G#4",
                    "midi": 68,
                    "time": 287.49959750000545,
                    "velocity": 0.30708661417322836,
                    "duration": 0.08695640000001958
                },
                {
                    "name": "C#4",
                    "midi": 61,
                    "time": 287.60829300000546,
                    "velocity": 0.28346456692913385,
                    "duration": 0.07789844166666171
                },
                {
                    "name": "A4",
                    "midi": 69,
                    "time": 287.60829300000546,
                    "velocity": 0.4094488188976378,
                    "duration": 0.09329697083336441
                },
                {
                    "name": "A3",
                    "midi": 57,
                    "time": 287.60829300000546,
                    "velocity": 0.11023622047244094,
                    "duration": 0.06340570833333459
                },
                {
                    "name": "D#5",
                    "midi": 75,
                    "time": 287.60829300000546,
                    "velocity": 0.31496062992125984,
                    "duration": 0.08695640000001958
                },
                {
                    "name": "C#5",
                    "midi": 73,
                    "time": 287.60829300000546,
                    "velocity": 0.25984251968503935,
                    "duration": 0.08695640000001958
                },
                {
                    "name": "D#4",
                    "midi": 63,
                    "time": 287.71698850000547,
                    "velocity": 0.25984251968503935,
                    "duration": 0.08695640000001958
                },
                {
                    "name": "B4",
                    "midi": 71,
                    "time": 287.8256840000055,
                    "velocity": 0.33070866141732286,
                    "duration": 0.06974627916667941
                },
                {
                    "name": "F4",
                    "midi": 65,
                    "time": 287.8256840000055,
                    "velocity": 0.47244094488188976,
                    "duration": 0.0733694625000112
                },
                {
                    "name": "B3",
                    "midi": 59,
                    "time": 287.8256840000055,
                    "velocity": 0.2440944881889764,
                    "duration": 0.07971003333335602
                },
                {
                    "name": "C#5",
                    "midi": 73,
                    "time": 287.8256840000055,
                    "velocity": 0.25196850393700787,
                    "duration": 0.08695640000001958
                },
                {
                    "name": "G#5",
                    "midi": 80,
                    "time": 287.8256840000055,
                    "velocity": 0.31496062992125984,
                    "duration": 0.08695640000001958
                },
                {
                    "name": "G#4",
                    "midi": 68,
                    "time": 287.9343795000055,
                    "velocity": 0.2440944881889764,
                    "duration": 0.08695640000001958
                },
                {
                    "name": "A4",
                    "midi": 69,
                    "time": 288.0430750000055,
                    "velocity": 0.31496062992125984,
                    "duration": 0.0914853791666701
                },
                {
                    "name": "C#4",
                    "midi": 61,
                    "time": 288.0430750000055,
                    "velocity": 0.36220472440944884,
                    "duration": 0.08695640000001958
                },
                {
                    "name": "A3",
                    "midi": 57,
                    "time": 288.0430750000055,
                    "velocity": 0.23622047244094488,
                    "duration": 0.0833332166666878
                },
                {
                    "name": "C#5",
                    "midi": 73,
                    "time": 288.0430750000055,
                    "velocity": 0.2204724409448819,
                    "duration": 0.08695640000001958
                },
                {
                    "name": "D#5",
                    "midi": 75,
                    "time": 288.0430750000055,
                    "velocity": 0.29133858267716534,
                    "duration": 0.08695640000001958
                },
                {
                    "name": "D#4",
                    "midi": 63,
                    "time": 288.1517705000055,
                    "velocity": 0.2440944881889764,
                    "duration": 0.08695640000001958
                },
                {
                    "name": "B4",
                    "midi": 71,
                    "time": 288.2604660000055,
                    "velocity": 0.28346456692913385,
                    "duration": 0.08423901250000654
                },
                {
                    "name": "F4",
                    "midi": 65,
                    "time": 288.2604660000055,
                    "velocity": 0.41732283464566927,
                    "duration": 0.09239117500004568
                },
                {
                    "name": "B3",
                    "midi": 59,
                    "time": 288.2604660000055,
                    "velocity": 0.2677165354330709,
                    "duration": 0.09239117500004568
                },
                {
                    "name": "C#5",
                    "midi": 73,
                    "time": 288.2604660000055,
                    "velocity": 0.3464566929133858,
                    "duration": 0.06884048333336068
                },
                {
                    "name": "G#5",
                    "midi": 80,
                    "time": 288.2604660000055,
                    "velocity": 0.36220472440944884,
                    "duration": 0.06884048333336068
                },
                {
                    "name": "G#4",
                    "midi": 68,
                    "time": 288.34742240000554,
                    "velocity": 0.28346456692913385,
                    "duration": 0.06884048333336068
                },
                {
                    "name": "G#4",
                    "midi": 68,
                    "time": 288.43437880000556,
                    "velocity": 0.23622047244094488,
                    "duration": 0.06884048333330384
                },
                {
                    "name": "C#3",
                    "midi": 49,
                    "time": 288.47785700000554,
                    "velocity": 0.2283464566929134,
                    "duration": 0.09329697083330757
                },
                {
                    "name": "G#4",
                    "midi": 68,
                    "time": 288.5213352000055,
                    "velocity": 0.2677165354330709,
                    "duration": 0.06884048333330384
                },
                {
                    "name": "G#4",
                    "midi": 68,
                    "time": 288.6082916000055,
                    "velocity": 0.2992125984251969,
                    "duration": 0.06884048333336068
                },
                {
                    "name": "F#2",
                    "midi": 42,
                    "time": 288.6952480000055,
                    "velocity": 0.33858267716535434,
                    "duration": 0.1413041499999963
                },
                {
                    "name": "C#3",
                    "midi": 49,
                    "time": 288.6952480000055,
                    "velocity": 0.16535433070866143,
                    "duration": 0.14764472083334113
                },
                {
                    "name": "B3",
                    "midi": 59,
                    "time": 288.6952480000055,
                    "velocity": 0.3858267716535433,
                    "duration": 0.11865925416668688
                },
                {
                    "name": "C#5",
                    "midi": 73,
                    "time": 288.6952480000055,
                    "velocity": 0.31496062992125984,
                    "duration": 0.06884048333336068
                },
                {
                    "name": "G#5",
                    "midi": 80,
                    "time": 288.6952480000055,
                    "velocity": 0.33070866141732286,
                    "duration": 0.06884048333336068
                },
                {
                    "name": "G#4",
                    "midi": 68,
                    "time": 288.7822044000055,
                    "velocity": 0.2440944881889764,
                    "duration": 0.06884048333330384
                },
                {
                    "name": "G#4",
                    "midi": 68,
                    "time": 288.8691608000055,
                    "velocity": 0.25984251968503935,
                    "duration": 0.06884048333336068
                },
                {
                    "name": "G#4",
                    "midi": 68,
                    "time": 288.9561172000055,
                    "velocity": 0.2992125984251969,
                    "duration": 0.06884048333336068
                },
                {
                    "name": "G#4",
                    "midi": 68,
                    "time": 289.0430736000055,
                    "velocity": 0.2677165354330709,
                    "duration": 0.06884048333336068
                },
                {
                    "name": "B4",
                    "midi": 71,
                    "time": 289.13003000000555,
                    "velocity": 0.2440944881889764,
                    "duration": 0.1068839083333728
                },
                {
                    "name": "F4",
                    "midi": 65,
                    "time": 289.13003000000555,
                    "velocity": 0.4330708661417323,
                    "duration": 0.10778970416669154
                },
                {
                    "name": "B3",
                    "midi": 59,
                    "time": 289.13003000000555,
                    "velocity": 0.2283464566929134,
                    "duration": 0.0887679916667139
                },
                {
                    "name": "C#5",
                    "midi": 73,
                    "time": 289.13003000000555,
                    "velocity": 0.2283464566929134,
                    "duration": 0.08695640000001958
                },
                {
                    "name": "G#5",
                    "midi": 80,
                    "time": 289.13003000000555,
                    "velocity": 0.28346456692913385,
                    "duration": 0.08695640000001958
                },
                {
                    "name": "G#4",
                    "midi": 68,
                    "time": 289.23872550000556,
                    "velocity": 0.29133858267716534,
                    "duration": 0.08695640000001958
                },
                {
                    "name": "F#4",
                    "midi": 66,
                    "time": 289.34742100000557,
                    "velocity": 0.33858267716535434,
                    "duration": 0.1068839083333728
                },
                {
                    "name": "C5",
                    "midi": 72,
                    "time": 289.34742100000557,
                    "velocity": 0.28346456692913385,
                    "duration": 0.09329697083336441
                },
                {
                    "name": "C4",
                    "midi": 60,
                    "time": 289.34742100000557,
                    "velocity": 0.2992125984251969,
                    "duration": 0.10869550000006711
                },
                {
                    "name": "G#5",
                    "midi": 80,
                    "time": 289.34742100000557,
                    "velocity": 0.33858267716535434,
                    "duration": 0.08695640000001958
                },
                {
                    "name": "C#6",
                    "midi": 85,
                    "time": 289.34742100000557,
                    "velocity": 0.36220472440944884,
                    "duration": 0.08695640000001958
                },
                {
                    "name": "C#5",
                    "midi": 73,
                    "time": 289.45611650000563,
                    "velocity": 0.31496062992125984,
                    "duration": 0.08695640000001958
                },
                {
                    "name": "B4",
                    "midi": 71,
                    "time": 289.56481200000565,
                    "velocity": 0.23622047244094488,
                    "duration": 0.09873174583333366
                },
                {
                    "name": "B3",
                    "midi": 59,
                    "time": 289.56481200000565,
                    "velocity": 0.1889763779527559,
                    "duration": 0.10597811249999722
                },
                {
                    "name": "F4",
                    "midi": 65,
                    "time": 289.56481200000565,
                    "velocity": 0.3937007874015748,
                    "duration": 0.11141288750002332
                },
                {
                    "name": "C#5",
                    "midi": 73,
                    "time": 289.56481200000565,
                    "velocity": 0.25196850393700787,
                    "duration": 0.06884048333336068
                },
                {
                    "name": "G#5",
                    "midi": 80,
                    "time": 289.56481200000565,
                    "velocity": 0.3858267716535433,
                    "duration": 0.06884048333336068
                },
                {
                    "name": "G#4",
                    "midi": 68,
                    "time": 289.65176840000566,
                    "velocity": 0.36220472440944884,
                    "duration": 0.06884048333336068
                },
                {
                    "name": "G#4",
                    "midi": 68,
                    "time": 289.7387248000057,
                    "velocity": 0.2677165354330709,
                    "duration": 0.06884048333336068
                },
                {
                    "name": "G#4",
                    "midi": 68,
                    "time": 289.8256812000057,
                    "velocity": 0.25984251968503935,
                    "duration": 0.06884048333336068
                },
                {
                    "name": "G#4",
                    "midi": 68,
                    "time": 289.9126376000057,
                    "velocity": 0.25196850393700787,
                    "duration": 0.06884048333336068
                },
                {
                    "name": "B4",
                    "midi": 71,
                    "time": 289.99959400000574,
                    "velocity": 0.3937007874015748,
                    "duration": 0.09782595000001493
                },
                {
                    "name": "F4",
                    "midi": 65,
                    "time": 289.99959400000574,
                    "velocity": 0.4881889763779528,
                    "duration": 0.09692015416669619
                },
                {
                    "name": "B3",
                    "midi": 59,
                    "time": 289.99959400000574,
                    "velocity": 0.2204724409448819,
                    "duration": 0.10144913333334671
                },
                {
                    "name": "C#5",
                    "midi": 73,
                    "time": 289.99959400000574,
                    "velocity": 0.2440944881889764,
                    "duration": 0.08695640000001958
                },
                {
                    "name": "G#5",
                    "midi": 80,
                    "time": 289.99959400000574,
                    "velocity": 0.4015748031496063,
                    "duration": 0.08695640000001958
                },
                {
                    "name": "G#4",
                    "midi": 68,
                    "time": 290.10828950000575,
                    "velocity": 0.30708661417322836,
                    "duration": 0.08695640000001958
                },
                {
                    "name": "A3",
                    "midi": 57,
                    "time": 290.21698500000576,
                    "velocity": 0.28346456692913385,
                    "duration": 0.08786219583333832
                },
                {
                    "name": "C#4",
                    "midi": 61,
                    "time": 290.21698500000576,
                    "velocity": 0.3779527559055118,
                    "duration": 0.0833332166666878
                },
                {
                    "name": "A4",
                    "midi": 69,
                    "time": 290.21698500000576,
                    "velocity": 0.33070866141732286,
                    "duration": 0.08061582916667476
                },
                {
                    "name": "D#5",
                    "midi": 75,
                    "time": 290.21698500000576,
                    "velocity": 0.31496062992125984,
                    "duration": 0.08695640000001958
                },
                {
                    "name": "C#5",
                    "midi": 73,
                    "time": 290.21698500000576,
                    "velocity": 0.25984251968503935,
                    "duration": 0.08695640000001958
                },
                {
                    "name": "D#4",
                    "midi": 63,
                    "time": 290.3256805000058,
                    "velocity": 0.25984251968503935,
                    "duration": 0.08695640000001958
                },
                {
                    "name": "B4",
                    "midi": 71,
                    "time": 290.4343760000058,
                    "velocity": 0.36220472440944884,
                    "duration": 0.07789844166666171
                },
                {
                    "name": "F4",
                    "midi": 65,
                    "time": 290.4343760000058,
                    "velocity": 0.4881889763779528,
                    "duration": 0.07971003333335602
                },
                {
                    "name": "B3",
                    "midi": 59,
                    "time": 290.4343760000058,
                    "velocity": 0.2047244094488189,
                    "duration": 0.09510856250000188
                },
                {
                    "name": "C#5",
                    "midi": 73,
                    "time": 290.4343760000058,
                    "velocity": 0.25196850393700787,
                    "duration": 0.08695640000001958
                },
                {
                    "name": "G#5",
                    "midi": 80,
                    "time": 290.4343760000058,
                    "velocity": 0.31496062992125984,
                    "duration": 0.08695640000001958
                },
                {
                    "name": "G#4",
                    "midi": 68,
                    "time": 290.5430715000058,
                    "velocity": 0.2440944881889764,
                    "duration": 0.08695640000001958
                },
                {
                    "name": "A4",
                    "midi": 69,
                    "time": 290.6517670000058,
                    "velocity": 0.2992125984251969,
                    "duration": 0.09510856250000188
                },
                {
                    "name": "C#4",
                    "midi": 61,
                    "time": 290.6517670000058,
                    "velocity": 0.2992125984251969,
                    "duration": 0.08695640000001958
                },
                {
                    "name": "A3",
                    "midi": 57,
                    "time": 290.6517670000058,
                    "velocity": 0.2047244094488189,
                    "duration": 0.08423901250000654
                },
                {
                    "name": "C#5",
                    "midi": 73,
                    "time": 290.6517670000058,
                    "velocity": 0.2204724409448819,
                    "duration": 0.08695640000001958
                },
                {
                    "name": "D#5",
                    "midi": 75,
                    "time": 290.6517670000058,
                    "velocity": 0.29133858267716534,
                    "duration": 0.08695640000001958
                },
                {
                    "name": "D#4",
                    "midi": 63,
                    "time": 290.7604625000058,
                    "velocity": 0.2440944881889764,
                    "duration": 0.08695640000001958
                },
                {
                    "name": "D4",
                    "midi": 62,
                    "time": 290.8691580000058,
                    "velocity": 0.2992125984251969,
                    "duration": 0.08242742083331223
                },
                {
                    "name": "G4",
                    "midi": 67,
                    "time": 290.8691580000058,
                    "velocity": 0.4409448818897638,
                    "duration": 0.08242742083331223
                },
                {
                    "name": "G3",
                    "midi": 55,
                    "time": 290.8691580000058,
                    "velocity": 0.2204724409448819,
                    "duration": 0.09239117499998883
                },
                {
                    "name": "B4",
                    "midi": 71,
                    "time": 290.8691580000058,
                    "velocity": 0.41732283464566927,
                    "duration": 0.08695639999996274
                },
                {
                    "name": "F#5",
                    "midi": 78,
                    "time": 290.8691580000058,
                    "velocity": 0.4015748031496063,
                    "duration": 0.08695639999996274
                },
                {
                    "name": "F#4",
                    "midi": 66,
                    "time": 290.9561144000058,
                    "velocity": 0.3858267716535433,
                    "duration": 0.08695640000001958
                },
                {
                    "name": "F#4",
                    "midi": 66,
                    "time": 291.0430708000058,
                    "velocity": 0.30708661417322836,
                    "duration": 0.08695640000001958
                },
                {
                    "name": "B2",
                    "midi": 47,
                    "time": 291.10647650833914,
                    "velocity": 0.41732283464566927,
                    "duration": 0.060688320833378384
                },
                {
                    "name": "F#4",
                    "midi": 66,
                    "time": 291.1300272000058,
                    "velocity": 0.31496062992125984,
                    "duration": 0.08695640000001958
                },
                {
                    "name": "F#4",
                    "midi": 66,
                    "time": 291.21698360000585,
                    "velocity": 0.25196850393700787,
                    "duration": 0.08695640000001958
                },
                {
                    "name": "E2",
                    "midi": 40,
                    "time": 291.29035306250586,
                    "velocity": 0.3858267716535433,
                    "duration": 0.08152162500005034
                },
                {
                    "name": "F#5",
                    "midi": 78,
                    "time": 291.30394000000587,
                    "velocity": 0.4409448818897638,
                    "duration": 0.08695640000001958
                },
                {
                    "name": "B4",
                    "midi": 71,
                    "time": 291.30394000000587,
                    "velocity": 0.3937007874015748,
                    "duration": 0.08695640000001958
                },
                {
                    "name": "B2",
                    "midi": 47,
                    "time": 291.30575159167256,
                    "velocity": 0.25984251968503935,
                    "duration": 0.08061582916667476
                },
                {
                    "name": "G3",
                    "midi": 55,
                    "time": 291.3437950166726,
                    "velocity": 0.3937007874015748,
                    "duration": 0.05072456666664493
                },
                {
                    "name": "F#4",
                    "midi": 66,
                    "time": 291.3908964000059,
                    "velocity": 0.30708661417322836,
                    "duration": 0.08695640000001958
                },
                {
                    "name": "F#4",
                    "midi": 66,
                    "time": 291.4778528000059,
                    "velocity": 0.29133858267716534,
                    "duration": 0.08695640000001958
                },
                {
                    "name": "F#4",
                    "midi": 66,
                    "time": 291.5648092000059,
                    "velocity": 0.3464566929133858,
                    "duration": 0.08695640000001958
                },
                {
                    "name": "F#4",
                    "midi": 66,
                    "time": 291.65176560000594,
                    "velocity": 0.2440944881889764,
                    "duration": 0.08695640000001958
                },
                {
                    "name": "F#5",
                    "midi": 78,
                    "time": 291.73872200000596,
                    "velocity": 0.28346456692913385,
                    "duration": 0.08695640000007643
                },
                {
                    "name": "B4",
                    "midi": 71,
                    "time": 291.73872200000596,
                    "velocity": 0.2992125984251969,
                    "duration": 0.08695640000007643
                },
                {
                    "name": "D4",
                    "midi": 62,
                    "time": 291.75140314167265,
                    "velocity": 0.41732283464566927,
                    "duration": 0.08242742083336907
                },
                {
                    "name": "G4",
                    "midi": 67,
                    "time": 291.75321473333935,
                    "velocity": 0.4881889763779528,
                    "duration": 0.06431150416671017
                },
                {
                    "name": "G3",
                    "midi": 55,
                    "time": 291.7622726916727,
                    "velocity": 0.14173228346456693,
                    "duration": 0.05887672916668407
                },
                {
                    "name": "F#4",
                    "midi": 66,
                    "time": 291.84741750000603,
                    "velocity": 0.3700787401574803,
                    "duration": 0.08695640000001958
                },
                {
                    "name": "B5",
                    "midi": 83,
                    "time": 291.95611300000604,
                    "velocity": 0.2204724409448819,
                    "duration": 0.08695640000001958
                },
                {
                    "name": "F#5",
                    "midi": 78,
                    "time": 291.95611300000604,
                    "velocity": 0.4015748031496063,
                    "duration": 0.08695640000001958
                },
                {
                    "name": "G#4",
                    "midi": 68,
                    "time": 291.9624535708394,
                    "velocity": 0.3543307086614173,
                    "duration": 0.05797093333336534
                },
                {
                    "name": "D4",
                    "midi": 62,
                    "time": 291.9651709583394,
                    "velocity": 0.4645669291338583,
                    "duration": 0.05163036250002051
                },
                {
                    "name": "G#3",
                    "midi": 56,
                    "time": 291.9678883458394,
                    "velocity": 0.2204724409448819,
                    "duration": 0.06068832083332154
                },
                {
                    "name": "B4",
                    "midi": 71,
                    "time": 292.06480850000605,
                    "velocity": 0.4094488188976378,
                    "duration": 0.08695640000001958
                },
                {
                    "name": "B4",
                    "midi": 71,
                    "time": 292.17350400000606,
                    "velocity": 0.3543307086614173,
                    "duration": 0.06884048333336068
                },
                {
                    "name": "F#5",
                    "midi": 78,
                    "time": 292.17350400000606,
                    "velocity": 0.3700787401574803,
                    "duration": 0.06884048333336068
                },
                {
                    "name": "D4",
                    "midi": 62,
                    "time": 292.1825619583394,
                    "velocity": 0.4409448818897638,
                    "duration": 0.06340570833333459
                },
                {
                    "name": "G4",
                    "midi": 67,
                    "time": 292.1825619583394,
                    "velocity": 0.33070866141732286,
                    "duration": 0.06612309583334763
                },
                {
                    "name": "G3",
                    "midi": 55,
                    "time": 292.1843735500061,
                    "velocity": 0.2204724409448819,
                    "duration": 0.06431150416665332
                },
                {
                    "name": "F#4",
                    "midi": 66,
                    "time": 292.2604604000061,
                    "velocity": 0.2992125984251969,
                    "duration": 0.06884048333336068
                },
                {
                    "name": "F#4",
                    "midi": 66,
                    "time": 292.3474168000061,
                    "velocity": 0.2992125984251969,
                    "duration": 0.06884048333336068
                },
                {
                    "name": "F#4",
                    "midi": 66,
                    "time": 292.4343732000061,
                    "velocity": 0.25984251968503935,
                    "duration": 0.06884048333336068
                },
                {
                    "name": "F#4",
                    "midi": 66,
                    "time": 292.52132960000614,
                    "velocity": 0.25984251968503935,
                    "duration": 0.06884048333336068
                },
                {
                    "name": "B4",
                    "midi": 71,
                    "time": 292.60828600000616,
                    "velocity": 0.33858267716535434,
                    "duration": 0.08695639999996274
                },
                {
                    "name": "F#5",
                    "midi": 78,
                    "time": 292.60828600000616,
                    "velocity": 0.3543307086614173,
                    "duration": 0.08695639999996274
                },
                {
                    "name": "D4",
                    "midi": 62,
                    "time": 292.6146265708395,
                    "velocity": 0.2047244094488189,
                    "duration": 0.07246366666663562
                },
                {
                    "name": "G3",
                    "midi": 55,
                    "time": 292.61915555000616,
                    "velocity": 0.1889763779527559,
                    "duration": 0.07155787083331688
                },
                {
                    "name": "G4",
                    "midi": 67,
                    "time": 292.6200613458395,
                    "velocity": 0.3858267716535433,
                    "duration": 0.06340570833333459
                },
                {
                    "name": "F#4",
                    "midi": 66,
                    "time": 292.7169815000061,
                    "velocity": 0.4015748031496063,
                    "duration": 0.08695640000001958
                },
                {
                    "name": "G4",
                    "midi": 67,
                    "time": 292.8256770000061,
                    "velocity": 0.3228346456692913,
                    "duration": 0.08695639999996274
                },
                {
                    "name": "C#5",
                    "midi": 73,
                    "time": 292.8256770000061,
                    "velocity": 0.11811023622047244,
                    "duration": 0.08695639999996274
                },
                {
                    "name": "B3",
                    "midi": 59,
                    "time": 292.8302059791728,
                    "velocity": 0.33858267716535434,
                    "duration": 0.0733694625000112
                },
                {
                    "name": "F4",
                    "midi": 65,
                    "time": 292.8338291625061,
                    "velocity": 0.4881889763779528,
                    "duration": 0.07518105416664866
                },
                {
                    "name": "F3",
                    "midi": 53,
                    "time": 292.8338291625061,
                    "velocity": 0.2125984251968504,
                    "duration": 0.07065207499999815
                },
                {
                    "name": "C#4",
                    "midi": 61,
                    "time": 292.9343725000061,
                    "velocity": 0.3700787401574803,
                    "duration": 0.08695640000001958
                },
                {
                    "name": "B4",
                    "midi": 71,
                    "time": 293.0430680000061,
                    "velocity": 0.28346456692913385,
                    "duration": 0.08695640000001958
                },
                {
                    "name": "F#5",
                    "midi": 78,
                    "time": 293.0430680000061,
                    "velocity": 0.28346456692913385,
                    "duration": 0.08695640000001958
                },
                {
                    "name": "G4",
                    "midi": 67,
                    "time": 293.0466911833394,
                    "velocity": 0.3937007874015748,
                    "duration": 0.06612309583334763
                },
                {
                    "name": "D4",
                    "midi": 62,
                    "time": 293.04759697917274,
                    "velocity": 0.3937007874015748,
                    "duration": 0.06340570833333459
                },
                {
                    "name": "G3",
                    "midi": 55,
                    "time": 293.0521259583394,
                    "velocity": 0.2204724409448819,
                    "duration": 0.06974627916673626
                },
                {
                    "name": "F#4",
                    "midi": 66,
                    "time": 293.1517635000061,
                    "velocity": 0.3779527559055118,
                    "duration": 0.08695640000001958
                },
                {
                    "name": "F4",
                    "midi": 65,
                    "time": 293.2604590000061,
                    "velocity": 0.4015748031496063,
                    "duration": 0.06974627916673626
                },
                {
                    "name": "G4",
                    "midi": 67,
                    "time": 293.2604590000061,
                    "velocity": 0.4015748031496063,
                    "duration": 0.08695640000007643
                },
                {
                    "name": "C#5",
                    "midi": 73,
                    "time": 293.2604590000061,
                    "velocity": 0.30708661417322836,
                    "duration": 0.08695640000007643
                },
                {
                    "name": "F3",
                    "midi": 53,
                    "time": 293.2622705916728,
                    "velocity": 0.28346456692913385,
                    "duration": 0.06793468750004195
                },
                {
                    "name": "B3",
                    "midi": 59,
                    "time": 293.2640821833395,
                    "velocity": 0.36220472440944884,
                    "duration": 0.07518105416670551
                },
                {
                    "name": "C#4",
                    "midi": 61,
                    "time": 293.3691545000062,
                    "velocity": 0.3464566929133858,
                    "duration": 0.08695639999996274
                },
                {
                    "name": "F#4",
                    "midi": 66,
                    "time": 293.42350225000615,
                    "velocity": 0.23622047244094488,
                    "duration": 0.018115916666658904
                },
                {
                    "name": "G3",
                    "midi": 55,
                    "time": 293.4416181666728,
                    "velocity": 0.3543307086614173,
                    "duration": 0.0416666083333439
                },
                {
                    "name": "D4",
                    "midi": 62,
                    "time": 293.4416181666728,
                    "velocity": 0.4645669291338583,
                    "duration": 0.04438399583335695
                },
                {
                    "name": "B4",
                    "midi": 71,
                    "time": 293.4416181666728,
                    "velocity": 0.23622047244094488,
                    "duration": 0.018115916666658904
                },
                {
                    "name": "F#5",
                    "midi": 78,
                    "time": 293.45973408333947,
                    "velocity": 0.23622047244094488,
                    "duration": 0.018115916666658904
                },
                {
                    "name": "E2",
                    "midi": 40,
                    "time": 293.47785000000613,
                    "velocity": 0.5669291338582677,
                    "duration": 0.07065207499999815
                },
                {
                    "name": "B2",
                    "midi": 47,
                    "time": 293.47785000000613,
                    "velocity": 0.4881889763779528,
                    "duration": 0.07518105416664866
                },
                {
                    "name": "D6",
                    "midi": 86,
                    "time": 293.47785000000613,
                    "velocity": 0.25984251968503935,
                    "duration": 0.03623183333337465
                },
                {
                    "name": "D5",
                    "midi": 74,
                    "time": 293.47785000000613,
                    "velocity": 0.3937007874015748,
                    "duration": 0.03170285416672414
                },
                {
                    "name": "F#5",
                    "midi": 78,
                    "time": 293.4796615916728,
                    "velocity": 0.47244094488188976,
                    "duration": 0.04619558749999442
                },
                {
                    "name": "B3",
                    "midi": 59,
                    "time": 293.6952410000061,
                    "velocity": 0.33070866141732286,
                    "duration": 0.10869550000001027
                },
                {
                    "name": "C#6",
                    "midi": 85,
                    "time": 293.70429895833945,
                    "velocity": 0.3937007874015748,
                    "duration": 0.06521729999997206
                },
                {
                    "name": "D6",
                    "midi": 86,
                    "time": 293.7577409125061,
                    "velocity": 0.3779527559055118,
                    "duration": 0.07427525833332993
                },
                {
                    "name": "D4",
                    "midi": 62,
                    "time": 293.8039365000061,
                    "velocity": 0.31496062992125984,
                    "duration": 0.10869550000001027
                },
                {
                    "name": "C#6",
                    "midi": 85,
                    "time": 293.81933502917275,
                    "velocity": 0.4330708661417323,
                    "duration": 0.09782595000001493
                },
                {
                    "name": "B5",
                    "midi": 83,
                    "time": 293.8990450625061,
                    "velocity": 0.3779527559055118,
                    "duration": 0.05525354583335229
                },
                {
                    "name": "F#4",
                    "midi": 66,
                    "time": 293.9126320000061,
                    "velocity": 0.33070866141732286,
                    "duration": 0.21739100000002054
                },
                {
                    "name": "A#5",
                    "midi": 82,
                    "time": 294.1100954916728,
                    "velocity": 0.41732283464566927,
                    "duration": 0.0416666083333439
                },
                {
                    "name": "D5",
                    "midi": 74,
                    "time": 294.13002300000613,
                    "velocity": 0.36220472440944884,
                    "duration": 0.2173909999999637
                },
                {
                    "name": "B4",
                    "midi": 71,
                    "time": 294.13002300000613,
                    "velocity": 0.30708661417322836,
                    "duration": 0.2173909999999637
                },
                {
                    "name": "B4",
                    "midi": 71,
                    "time": 294.3474140000061,
                    "velocity": 0.29133858267716534,
                    "duration": 0.10869550000001027
                },
                {
                    "name": "C#5",
                    "midi": 73,
                    "time": 294.35466036667276,
                    "velocity": 0.2204724409448819,
                    "duration": 0.03260865000004287
                },
                {
                    "name": "F#5",
                    "midi": 78,
                    "time": 294.35647195833945,
                    "velocity": 0.3700787401574803,
                    "duration": 0.035326037499999074
                },
                {
                    "name": "G4",
                    "midi": 67,
                    "time": 294.4561095000061,
                    "velocity": 0.3228346456692913,
                    "duration": 0.10869550000006711
                },
                {
                    "name": "G5",
                    "midi": 79,
                    "time": 294.55755863333945,
                    "velocity": 0.33070866141732286,
                    "duration": 0.041666608333400745
                },
                {
                    "name": "D5",
                    "midi": 74,
                    "time": 294.55937022500615,
                    "velocity": 0.3700787401574803,
                    "duration": 0.029891262500029825
                },
                {
                    "name": "D4",
                    "midi": 62,
                    "time": 294.5648050000062,
                    "velocity": 0.4881889763779528,
                    "duration": 0.10869550000001027
                },
                {
                    "name": "B3",
                    "midi": 59,
                    "time": 294.6735005000062,
                    "velocity": 0.47244094488188976,
                    "duration": 0.10869550000001027
                },
                {
                    "name": "E3",
                    "midi": 52,
                    "time": 294.7821960000062,
                    "velocity": 0.4330708661417323,
                    "duration": 0.2173909999999637
                },
                {
                    "name": "B3",
                    "midi": 59,
                    "time": 294.7821960000062,
                    "velocity": 0.5039370078740157,
                    "duration": 0.2173909999999637
                },
                {
                    "name": "F#5",
                    "midi": 78,
                    "time": 294.7831017958395,
                    "velocity": 0.3937007874015748,
                    "duration": 0.07065207499999815
                },
                {
                    "name": "D5",
                    "midi": 74,
                    "time": 294.78400759167283,
                    "velocity": 0.2125984251968504,
                    "duration": 0.04438399583335695
                },
                {
                    "name": "D6",
                    "midi": 86,
                    "time": 294.78400759167283,
                    "velocity": 0.2283464566929134,
                    "duration": 0.059782525000002806
                },
                {
                    "name": "C#6",
                    "midi": 85,
                    "time": 294.9959638166728,
                    "velocity": 0.4330708661417323,
                    "duration": 0.07065207499999815
                },
                {
                    "name": "B3",
                    "midi": 59,
                    "time": 294.99958700000616,
                    "velocity": 0.47244094488188976,
                    "duration": 0.10869550000001027
                },
                {
                    "name": "D6",
                    "midi": 86,
                    "time": 295.0521231583395,
                    "velocity": 0.4409448818897638,
                    "duration": 0.07246366666663562
                },
                {
                    "name": "D4",
                    "midi": 62,
                    "time": 295.10828250000617,
                    "velocity": 0.5984251968503937,
                    "duration": 0.10869549999995343
                },
                {
                    "name": "C#6",
                    "midi": 85,
                    "time": 295.11643466250615,
                    "velocity": 0.47244094488188976,
                    "duration": 0.08876799166665705
                },
                {
                    "name": "B5",
                    "midi": 83,
                    "time": 295.1925215125061,
                    "velocity": 0.4330708661417323,
                    "duration": 0.06159411666669712
                },
                {
                    "name": "F#4",
                    "midi": 66,
                    "time": 295.2169780000061,
                    "velocity": 0.5669291338582677,
                    "duration": 0.21739100000002054
                },
                {
                    "name": "A#5",
                    "midi": 82,
                    "time": 295.40991251250614,
                    "velocity": 0.4881889763779528,
                    "duration": 0.04800717916668873
                },
                {
                    "name": "B4",
                    "midi": 71,
                    "time": 295.43436900000614,
                    "velocity": 0.4409448818897638,
                    "duration": 0.21739100000007738
                },
                {
                    "name": "D5",
                    "midi": 74,
                    "time": 295.43436900000614,
                    "velocity": 0.47244094488188976,
                    "duration": 0.21739100000007738
                },
                {
                    "name": "C#5",
                    "midi": 73,
                    "time": 295.6327382875062,
                    "velocity": 0.3937007874015748,
                    "duration": 0.047101383333369995
                },
                {
                    "name": "F#5",
                    "midi": 78,
                    "time": 295.6381730625062,
                    "velocity": 0.4330708661417323,
                    "duration": 0.0498187708333262
                },
                {
                    "name": "B4",
                    "midi": 71,
                    "time": 295.6517600000062,
                    "velocity": 0.4330708661417323,
                    "duration": 0.10869550000001027
                },
                {
                    "name": "G4",
                    "midi": 67,
                    "time": 295.76045550000623,
                    "velocity": 0.4881889763779528,
                    "duration": 0.10869550000001027
                },
                {
                    "name": "G5",
                    "midi": 79,
                    "time": 295.84741190000625,
                    "velocity": 0.47244094488188976,
                    "duration": 0.059782525000002806
                },
                {
                    "name": "D5",
                    "midi": 74,
                    "time": 295.84831769583957,
                    "velocity": 0.5669291338582677,
                    "duration": 0.04800717916668873
                },
                {
                    "name": "D4",
                    "midi": 62,
                    "time": 295.86915100000624,
                    "velocity": 0.5354330708661418,
                    "duration": 0.10869550000001027
                },
                {
                    "name": "B3",
                    "midi": 59,
                    "time": 295.97784650000625,
                    "velocity": 0.5039370078740157,
                    "duration": 0.10869550000001027
                },
                {
                    "name": "B2",
                    "midi": 47,
                    "time": 296.08654200000626,
                    "velocity": 0.5669291338582677,
                    "duration": 0.21739100000002054
                },
                {
                    "name": "E2",
                    "midi": 40,
                    "time": 296.08654200000626,
                    "velocity": 0.47244094488188976,
                    "duration": 0.21739100000002054
                },
                {
                    "name": "F#6",
                    "midi": 90,
                    "time": 296.09922314167295,
                    "velocity": 0.6692913385826772,
                    "duration": 0.07699264583334298
                },
                {
                    "name": "B5",
                    "midi": 83,
                    "time": 296.09922314167295,
                    "velocity": 0.5669291338582677,
                    "duration": 0.07699264583334298
                },
                {
                    "name": "F#5",
                    "midi": 78,
                    "time": 296.10103473333965,
                    "velocity": 0.5039370078740157,
                    "duration": 0.07789844166666171
                },
                {
                    "name": "D4",
                    "midi": 62,
                    "time": 296.3039330000063,
                    "velocity": 0.4409448818897638,
                    "duration": 0.10869550000001027
                },
                {
                    "name": "E6",
                    "midi": 88,
                    "time": 296.3075561833396,
                    "velocity": 0.6299212598425197,
                    "duration": 0.06884048333336068
                },
                {
                    "name": "F#6",
                    "midi": 90,
                    "time": 296.37096189167295,
                    "velocity": 0.5984251968503937,
                    "duration": 0.07065207500005499
                },
                {
                    "name": "F#4",
                    "midi": 66,
                    "time": 296.4126285000063,
                    "velocity": 0.4881889763779528,
                    "duration": 0.10869550000006711
                },
                {
                    "name": "E6",
                    "midi": 88,
                    "time": 296.4289328250063,
                    "velocity": 0.5984251968503937,
                    "duration": 0.08605060416670085
                },
                {
                    "name": "D6",
                    "midi": 86,
                    "time": 296.50592547083966,
                    "velocity": 0.7007874015748031,
                    "duration": 0.05615934166672787
                },
                {
                    "name": "B4",
                    "midi": 71,
                    "time": 296.52132400000636,
                    "velocity": 0.5984251968503937,
                    "duration": 0.21739100000002054
                },
                {
                    "name": "C#6",
                    "midi": 85,
                    "time": 296.7260338583397,
                    "velocity": 0.6692913385826772,
                    "duration": 0.05525354583335229
                },
                {
                    "name": "F#5",
                    "midi": 78,
                    "time": 296.7387150000064,
                    "velocity": 0.47244094488188976,
                    "duration": 0.21739100000002054
                },
                {
                    "name": "D5",
                    "midi": 74,
                    "time": 296.7387150000064,
                    "velocity": 0.5354330708661418,
                    "duration": 0.21739100000002054
                },
                {
                    "name": "D5",
                    "midi": 74,
                    "time": 296.9561060000064,
                    "velocity": 0.4645669291338583,
                    "duration": 0.10869549999995343
                },
                {
                    "name": "A#5",
                    "midi": 82,
                    "time": 296.9570117958397,
                    "velocity": 0.5669291338582677,
                    "duration": 0.05163036249996367
                },
                {
                    "name": "C#5",
                    "midi": 73,
                    "time": 296.95791759167304,
                    "velocity": 0.6299212598425197,
                    "duration": 0.04619558749999442
                },
                {
                    "name": "F#5",
                    "midi": 78,
                    "time": 296.96063497917305,
                    "velocity": 0.7007874015748031,
                    "duration": 0.06612309583329079
                },
                {
                    "name": "B4",
                    "midi": 71,
                    "time": 297.06480150000635,
                    "velocity": 0.3937007874015748,
                    "duration": 0.10869550000001027
                },
                {
                    "name": "G4",
                    "midi": 67,
                    "time": 297.17349700000636,
                    "velocity": 0.3464566929133858,
                    "duration": 0.10869550000001027
                },
                {
                    "name": "B5",
                    "midi": 83,
                    "time": 297.180743366673,
                    "velocity": 0.6299212598425197,
                    "duration": 0.048912975000007464
                },
                {
                    "name": "G5",
                    "midi": 79,
                    "time": 297.1825549583397,
                    "velocity": 0.4645669291338583,
                    "duration": 0.04347819999998137
                },
                {
                    "name": "D5",
                    "midi": 74,
                    "time": 297.18527234583973,
                    "velocity": 0.6299212598425197,
                    "duration": 0.03985501666664959
                },
                {
                    "name": "D4",
                    "midi": 62,
                    "time": 297.2821925000064,
                    "velocity": 0.4645669291338583,
                    "duration": 0.10869550000001027
                },
                {
                    "name": "E3",
                    "midi": 52,
                    "time": 297.3908880000064,
                    "velocity": 0.4881889763779528,
                    "duration": 0.2173909999999637
                },
                {
                    "name": "B3",
                    "midi": 59,
                    "time": 297.3908880000064,
                    "velocity": 0.6299212598425197,
                    "duration": 0.2173909999999637
                },
                {
                    "name": "F#5",
                    "midi": 78,
                    "time": 297.39541697917304,
                    "velocity": 0.6692913385826772,
                    "duration": 0.06431150416665332
                },
                {
                    "name": "F#6",
                    "midi": 90,
                    "time": 297.39541697917304,
                    "velocity": 0.7322834645669292,
                    "duration": 0.06068832083332154
                },
                {
                    "name": "B5",
                    "midi": 83,
                    "time": 297.39541697917304,
                    "velocity": 0.6692913385826772,
                    "duration": 0.059782525000002806
                },
                {
                    "name": "E6",
                    "midi": 88,
                    "time": 297.60827900000635,
                    "velocity": 0.7007874015748031,
                    "duration": 0.07065207499999815
                },
                {
                    "name": "D4",
                    "midi": 62,
                    "time": 297.60827900000635,
                    "velocity": 0.4881889763779528,
                    "duration": 0.10869550000001027
                },
                {
                    "name": "F#6",
                    "midi": 90,
                    "time": 297.672590504173,
                    "velocity": 0.6692913385826772,
                    "duration": 0.07155787083331688
                },
                {
                    "name": "F#4",
                    "midi": 66,
                    "time": 297.71697450000636,
                    "velocity": 0.5669291338582677,
                    "duration": 0.10869550000001027
                },
                {
                    "name": "E6",
                    "midi": 88,
                    "time": 297.732373029173,
                    "velocity": 0.6692913385826772,
                    "duration": 0.0914853791666701
                },
                {
                    "name": "D6",
                    "midi": 86,
                    "time": 297.813894654173,
                    "velocity": 0.7322834645669292,
                    "duration": 0.06340570833339143
                },
                {
                    "name": "B4",
                    "midi": 71,
                    "time": 297.82567000000637,
                    "velocity": 0.5669291338582677,
                    "duration": 0.21739100000002054
                },
                {
                    "name": "C#6",
                    "midi": 85,
                    "time": 298.0349088375064,
                    "velocity": 0.7007874015748031,
                    "duration": 0.048912975000007464
                },
                {
                    "name": "D5",
                    "midi": 74,
                    "time": 298.0430610000064,
                    "velocity": 0.5669291338582677,
                    "duration": 0.21739100000007738
                },
                {
                    "name": "F#5",
                    "midi": 78,
                    "time": 298.0430610000064,
                    "velocity": 0.5669291338582677,
                    "duration": 0.21739100000007738
                },
                {
                    "name": "A#5",
                    "midi": 82,
                    "time": 298.2586404083398,
                    "velocity": 0.7322834645669292,
                    "duration": 0.051630362500077354
                },
                {
                    "name": "C#5",
                    "midi": 73,
                    "time": 298.26045200000647,
                    "velocity": 0.5669291338582677,
                    "duration": 0.043478200000038214
                },
                {
                    "name": "D5",
                    "midi": 74,
                    "time": 298.26045200000647,
                    "velocity": 0.6692913385826772,
                    "duration": 0.10869550000006711
                },
                {
                    "name": "F#5",
                    "midi": 78,
                    "time": 298.2631693875065,
                    "velocity": 0.5669291338582677,
                    "duration": 0.0806158291667316
                },
                {
                    "name": "B4",
                    "midi": 71,
                    "time": 298.36914750000653,
                    "velocity": 0.5039370078740157,
                    "duration": 0.10869550000001027
                },
                {
                    "name": "G4",
                    "midi": 67,
                    "time": 298.47784300000654,
                    "velocity": 0.6692913385826772,
                    "duration": 0.10869550000001027
                },
                {
                    "name": "G5",
                    "midi": 79,
                    "time": 298.48056038750656,
                    "velocity": 0.7322834645669292,
                    "duration": 0.048912975000007464
                },
                {
                    "name": "B5",
                    "midi": 83,
                    "time": 298.48056038750656,
                    "velocity": 0.7716535433070866,
                    "duration": 0.04619558749999442
                },
                {
                    "name": "D5",
                    "midi": 74,
                    "time": 298.48056038750656,
                    "velocity": 0.7007874015748031,
                    "duration": 0.0498187708333262
                },
                {
                    "name": "D4",
                    "midi": 62,
                    "time": 298.58653850000655,
                    "velocity": 0.5984251968503937,
                    "duration": 0.10869550000001027
                },
                {
                    "name": "G6",
                    "midi": 91,
                    "time": 298.69523400000656,
                    "velocity": 0.6692913385826772,
                    "duration": 0.08876799166665705
                },
                {
                    "name": "D7",
                    "midi": 98,
                    "time": 298.69523400000656,
                    "velocity": 0.84251968503937,
                    "duration": 0.09329697083330757
                },
                {
                    "name": "D6",
                    "midi": 86,
                    "time": 298.69523400000656,
                    "velocity": 0.7322834645669292,
                    "duration": 0.08967378749997579
                },
                {
                    "name": "G5",
                    "midi": 79,
                    "time": 298.9035670416732,
                    "velocity": 0.5354330708661418,
                    "duration": 0.32970968333330575
                },
                {
                    "name": "B5",
                    "midi": 83,
                    "time": 298.9035670416732,
                    "velocity": 0.5669291338582677,
                    "duration": 0.31974592916662914
                },
                {
                    "name": "F#5",
                    "midi": 78,
                    "time": 298.9053786333399,
                    "velocity": 0.4881889763779528,
                    "duration": 0.22826054999995904
                },
                {
                    "name": "E5",
                    "midi": 76,
                    "time": 299.1236754291732,
                    "velocity": 0.3858267716535433,
                    "duration": 0.11956505000000561
                },
                {
                    "name": "F#4",
                    "midi": 66,
                    "time": 299.34740700000657,
                    "velocity": 0.36220472440944884,
                    "duration": 0.2201083875000336
                },
                {
                    "name": "G4",
                    "midi": 67,
                    "time": 299.34921859167326,
                    "velocity": 0.5669291338582677,
                    "duration": 0.3632241291667242
                },
                {
                    "name": "B4",
                    "midi": 71,
                    "time": 299.3501243875066,
                    "velocity": 0.4881889763779528,
                    "duration": 0.3596009458333924
                },
                {
                    "name": "E4",
                    "midi": 64,
                    "time": 299.5675153875066,
                    "velocity": 0.4330708661417323,
                    "duration": 0.14039835416667756
                },
                {
                    "name": "G3",
                    "midi": 55,
                    "time": 299.7079137416733,
                    "velocity": 0.5039370078740157,
                    "duration": 0.11050709166676143
                },
                {
                    "name": "D4",
                    "midi": 62,
                    "time": 299.72059488333997,
                    "velocity": 0.5984251968503937,
                    "duration": 0.09239117500004568
                },
                {
                    "name": "F#4",
                    "midi": 66,
                    "time": 299.73418182084,
                    "velocity": 0.5039370078740157,
                    "duration": 0.08967378750008947
                },
                {
                    "name": "G4",
                    "midi": 67,
                    "time": 299.73871080000663,
                    "velocity": 0.5984251968503937,
                    "duration": 0.09420276666679683
                },
                {
                    "name": "D5",
                    "midi": 74,
                    "time": 299.75048614583994,
                    "velocity": 0.8031496062992126,
                    "duration": 0.08333321666680149
                },
                {
                    "name": "G5",
                    "midi": 79,
                    "time": 299.77222524583993,
                    "velocity": 0.16535433070866143,
                    "duration": 0.06612309583346132
                },
                {
                    "name": "B5",
                    "midi": 83,
                    "time": 299.7812832041733,
                    "velocity": 0.7322834645669292,
                    "duration": 0.06068832083343523
                },
                {
                    "name": "F#2",
                    "midi": 42,
                    "time": 299.99958000000674,
                    "velocity": 0.28346456692913385,
                    "duration": 0.06521729999997206
                },
                {
                    "name": "D3",
                    "midi": 50,
                    "time": 299.99958000000674,
                    "velocity": 0.2047244094488189,
                    "duration": 0.06521729999997206
                },
                {
                    "name": "A#2",
                    "midi": 46,
                    "time": 299.99958000000674,
                    "velocity": 0.3464566929133858,
                    "duration": 0.06521729999997206
                },
                {
                    "name": "A2",
                    "midi": 45,
                    "time": 300.2169710000067,
                    "velocity": 0.2440944881889764,
                    "duration": 0.06521729999997206
                },
                {
                    "name": "D2",
                    "midi": 38,
                    "time": 300.2169710000067,
                    "velocity": 0.36220472440944884,
                    "duration": 0.06521729999997206
                },
                {
                    "name": "F#2",
                    "midi": 42,
                    "time": 300.4343620000067,
                    "velocity": 0.3543307086614173,
                    "duration": 0.06521729999997206
                },
                {
                    "name": "D3",
                    "midi": 50,
                    "time": 300.4343620000067,
                    "velocity": 0.2440944881889764,
                    "duration": 0.06521729999997206
                },
                {
                    "name": "A#2",
                    "midi": 46,
                    "time": 300.4343620000067,
                    "velocity": 0.2440944881889764,
                    "duration": 0.06521729999997206
                },
                {
                    "name": "A2",
                    "midi": 45,
                    "time": 300.65175300000664,
                    "velocity": 0.2204724409448819,
                    "duration": 0.06521729999997206
                },
                {
                    "name": "A1",
                    "midi": 33,
                    "time": 300.65175300000664,
                    "velocity": 0.25984251968503935,
                    "duration": 0.06521729999997206
                },
                {
                    "name": "D3",
                    "midi": 50,
                    "time": 300.8691440000066,
                    "velocity": 0.2125984251968504,
                    "duration": 0.06521729999997206
                },
                {
                    "name": "A#2",
                    "midi": 46,
                    "time": 300.8691440000066,
                    "velocity": 0.2440944881889764,
                    "duration": 0.06521729999997206
                },
                {
                    "name": "F#2",
                    "midi": 42,
                    "time": 300.8691440000066,
                    "velocity": 0.29133858267716534,
                    "duration": 0.06521729999997206
                },
                {
                    "name": "F#3",
                    "midi": 54,
                    "time": 301.08653500000656,
                    "velocity": 0.25196850393700787,
                    "duration": 0.06521729999997206
                },
                {
                    "name": "A#2",
                    "midi": 46,
                    "time": 301.08653500000656,
                    "velocity": 0.23622047244094488,
                    "duration": 0.06521729999997206
                },
                {
                    "name": "C#3",
                    "midi": 49,
                    "time": 301.08653500000656,
                    "velocity": 0.33858267716535434,
                    "duration": 0.06521729999997206
                },
                {
                    "name": "F#2",
                    "midi": 42,
                    "time": 301.3039260000065,
                    "velocity": 0.28346456692913385,
                    "duration": 0.06521729999997206
                },
                {
                    "name": "D3",
                    "midi": 50,
                    "time": 301.3039260000065,
                    "velocity": 0.18110236220472442,
                    "duration": 0.06521729999997206
                },
                {
                    "name": "A#2",
                    "midi": 46,
                    "time": 301.3039260000065,
                    "velocity": 0.3543307086614173,
                    "duration": 0.06521729999997206
                },
                {
                    "name": "A2",
                    "midi": 45,
                    "time": 301.5213170000065,
                    "velocity": 0.31496062992125984,
                    "duration": 0.06521729999997206
                },
                {
                    "name": "D2",
                    "midi": 38,
                    "time": 301.5213170000065,
                    "velocity": 0.31496062992125984,
                    "duration": 0.06521729999997206
                },
                {
                    "name": "F#2",
                    "midi": 42,
                    "time": 301.73870800000645,
                    "velocity": 0.33070866141732286,
                    "duration": 0.06521729999997206
                },
                {
                    "name": "D3",
                    "midi": 50,
                    "time": 301.73870800000645,
                    "velocity": 0.2204724409448819,
                    "duration": 0.06521729999997206
                },
                {
                    "name": "A#2",
                    "midi": 46,
                    "time": 301.73870800000645,
                    "velocity": 0.30708661417322836,
                    "duration": 0.06521729999997206
                },
                {
                    "name": "A2",
                    "midi": 45,
                    "time": 301.9560990000064,
                    "velocity": 0.3700787401574803,
                    "duration": 0.06521729999997206
                },
                {
                    "name": "F2",
                    "midi": 41,
                    "time": 301.9560990000064,
                    "velocity": 0.2440944881889764,
                    "duration": 0.06521729999997206
                },
                {
                    "name": "A1",
                    "midi": 33,
                    "time": 301.9560990000064,
                    "velocity": 0.3858267716535433,
                    "duration": 0.06521729999997206
                },
                {
                    "name": "E2",
                    "midi": 40,
                    "time": 302.1734900000064,
                    "velocity": 0.2283464566929134,
                    "duration": 0.06521729999997206
                },
                {
                    "name": "C3",
                    "midi": 48,
                    "time": 302.1734900000064,
                    "velocity": 0.28346456692913385,
                    "duration": 0.06521729999997206
                },
                {
                    "name": "G#2",
                    "midi": 44,
                    "time": 302.1734900000064,
                    "velocity": 0.28346456692913385,
                    "duration": 0.06521729999997206
                },
                {
                    "name": "G2",
                    "midi": 43,
                    "time": 302.39088100000635,
                    "velocity": 0.33858267716535434,
                    "duration": 0.06521729999997206
                },
                {
                    "name": "D#2",
                    "midi": 39,
                    "time": 302.39088100000635,
                    "velocity": 0.2204724409448819,
                    "duration": 0.06521729999997206
                },
                {
                    "name": "F#2",
                    "midi": 42,
                    "time": 302.6082720000063,
                    "velocity": 0.28346456692913385,
                    "duration": 0.06521729999997206
                },
                {
                    "name": "D3",
                    "midi": 50,
                    "time": 302.6082720000063,
                    "velocity": 0.2047244094488189,
                    "duration": 0.06521729999997206
                },
                {
                    "name": "A#2",
                    "midi": 46,
                    "time": 302.6082720000063,
                    "velocity": 0.3464566929133858,
                    "duration": 0.06521729999997206
                },
                {
                    "name": "A2",
                    "midi": 45,
                    "time": 302.8256630000063,
                    "velocity": 0.2440944881889764,
                    "duration": 0.06521729999997206
                },
                {
                    "name": "D2",
                    "midi": 38,
                    "time": 302.8256630000063,
                    "velocity": 0.36220472440944884,
                    "duration": 0.06521729999997206
                },
                {
                    "name": "F#2",
                    "midi": 42,
                    "time": 303.04305400000624,
                    "velocity": 0.3543307086614173,
                    "duration": 0.06521729999997206
                },
                {
                    "name": "D3",
                    "midi": 50,
                    "time": 303.04305400000624,
                    "velocity": 0.2440944881889764,
                    "duration": 0.06521729999997206
                },
                {
                    "name": "A#2",
                    "midi": 46,
                    "time": 303.04305400000624,
                    "velocity": 0.2440944881889764,
                    "duration": 0.06521729999997206
                },
                {
                    "name": "A2",
                    "midi": 45,
                    "time": 303.2604450000062,
                    "velocity": 0.2204724409448819,
                    "duration": 0.06521729999997206
                },
                {
                    "name": "A1",
                    "midi": 33,
                    "time": 303.2604450000062,
                    "velocity": 0.25984251968503935,
                    "duration": 0.06521729999997206
                },
                {
                    "name": "D3",
                    "midi": 50,
                    "time": 303.47783600000616,
                    "velocity": 0.2125984251968504,
                    "duration": 0.06521729999997206
                },
                {
                    "name": "A#2",
                    "midi": 46,
                    "time": 303.47783600000616,
                    "velocity": 0.2440944881889764,
                    "duration": 0.06521729999997206
                },
                {
                    "name": "F#2",
                    "midi": 42,
                    "time": 303.47783600000616,
                    "velocity": 0.29133858267716534,
                    "duration": 0.06521729999997206
                },
                {
                    "name": "F#3",
                    "midi": 54,
                    "time": 303.6952270000061,
                    "velocity": 0.25196850393700787,
                    "duration": 0.06521729999997206
                },
                {
                    "name": "A#2",
                    "midi": 46,
                    "time": 303.6952270000061,
                    "velocity": 0.23622047244094488,
                    "duration": 0.06521729999997206
                },
                {
                    "name": "C#3",
                    "midi": 49,
                    "time": 303.6952270000061,
                    "velocity": 0.33858267716535434,
                    "duration": 0.06521729999997206
                },
                {
                    "name": "F#2",
                    "midi": 42,
                    "time": 303.9126180000061,
                    "velocity": 0.28346456692913385,
                    "duration": 0.06521729999997206
                },
                {
                    "name": "D3",
                    "midi": 50,
                    "time": 303.9126180000061,
                    "velocity": 0.18110236220472442,
                    "duration": 0.06521729999997206
                },
                {
                    "name": "A#2",
                    "midi": 46,
                    "time": 303.9126180000061,
                    "velocity": 0.3543307086614173,
                    "duration": 0.06521729999997206
                },
                {
                    "name": "A2",
                    "midi": 45,
                    "time": 304.13000900000605,
                    "velocity": 0.31496062992125984,
                    "duration": 0.06521729999997206
                },
                {
                    "name": "D2",
                    "midi": 38,
                    "time": 304.13000900000605,
                    "velocity": 0.31496062992125984,
                    "duration": 0.06521729999997206
                },
                {
                    "name": "F#2",
                    "midi": 42,
                    "time": 304.347400000006,
                    "velocity": 0.33070866141732286,
                    "duration": 0.06521729999997206
                },
                {
                    "name": "D3",
                    "midi": 50,
                    "time": 304.347400000006,
                    "velocity": 0.2204724409448819,
                    "duration": 0.06521729999997206
                },
                {
                    "name": "A#2",
                    "midi": 46,
                    "time": 304.347400000006,
                    "velocity": 0.30708661417322836,
                    "duration": 0.06521729999997206
                },
                {
                    "name": "A2",
                    "midi": 45,
                    "time": 304.564791000006,
                    "velocity": 0.3700787401574803,
                    "duration": 0.06521729999997206
                },
                {
                    "name": "F2",
                    "midi": 41,
                    "time": 304.564791000006,
                    "velocity": 0.2440944881889764,
                    "duration": 0.06521729999997206
                },
                {
                    "name": "A1",
                    "midi": 33,
                    "time": 304.564791000006,
                    "velocity": 0.3858267716535433,
                    "duration": 0.06521729999997206
                },
                {
                    "name": "E2",
                    "midi": 40,
                    "time": 304.78218200000595,
                    "velocity": 0.2283464566929134,
                    "duration": 0.06521729999997206
                },
                {
                    "name": "C3",
                    "midi": 48,
                    "time": 304.78218200000595,
                    "velocity": 0.28346456692913385,
                    "duration": 0.06521729999997206
                },
                {
                    "name": "G#2",
                    "midi": 44,
                    "time": 304.78218200000595,
                    "velocity": 0.28346456692913385,
                    "duration": 0.06521729999997206
                },
                {
                    "name": "G2",
                    "midi": 43,
                    "time": 304.9995730000059,
                    "velocity": 0.33858267716535434,
                    "duration": 0.06521729999997206
                },
                {
                    "name": "D#2",
                    "midi": 39,
                    "time": 304.9995730000059,
                    "velocity": 0.2204724409448819,
                    "duration": 0.06521729999997206
                },
                {
                    "name": "C4",
                    "midi": 60,
                    "time": 305.15355829167254,
                    "velocity": 0.28346456692913385,
                    "duration": 0.08786219583333832
                },
                {
                    "name": "E4",
                    "midi": 64,
                    "time": 305.1834495541725,
                    "velocity": 0.4015748031496063,
                    "duration": 0.07065207500005499
                },
                {
                    "name": "G3",
                    "midi": 55,
                    "time": 305.2169640000059,
                    "velocity": 0.23622047244094488,
                    "duration": 0.21739100000002054
                },
                {
                    "name": "A3",
                    "midi": 57,
                    "time": 305.2169640000059,
                    "velocity": 0.25984251968503935,
                    "duration": 0.21739100000002054
                },
                {
                    "name": "C5",
                    "midi": 72,
                    "time": 305.22421036667254,
                    "velocity": 0.4094488188976378,
                    "duration": 0.17572439166667664
                },
                {
                    "name": "B4",
                    "midi": 71,
                    "time": 305.43073181667256,
                    "velocity": 0.4881889763779528,
                    "duration": 0.0733694625000112
                },
                {
                    "name": "A2",
                    "midi": 45,
                    "time": 305.4343550000059,
                    "velocity": 0.23622047244094488,
                    "duration": 0.2173909999999637
                },
                {
                    "name": "C5",
                    "midi": 72,
                    "time": 305.4932317291726,
                    "velocity": 0.36220472440944884,
                    "duration": 0.086050604166644
                },
                {
                    "name": "B4",
                    "midi": 71,
                    "time": 305.5566374375059,
                    "velocity": 0.4015748031496063,
                    "duration": 0.1023549291666086
                },
                {
                    "name": "G#4",
                    "midi": 68,
                    "time": 305.63997065417254,
                    "velocity": 0.4330708661417323,
                    "duration": 0.46014428333336355
                },
                {
                    "name": "A1",
                    "midi": 33,
                    "time": 305.65174600000586,
                    "velocity": 0.3700787401574803,
                    "duration": 0.21739100000002054
                },
                {
                    "name": "A2",
                    "midi": 45,
                    "time": 305.8691370000059,
                    "velocity": 0.4566929133858268,
                    "duration": 0.21739100000002054
                },
                {
                    "name": "A4",
                    "midi": 69,
                    "time": 306.0810932250059,
                    "velocity": 0.33858267716535434,
                    "duration": 0.3614125375000299
                },
                {
                    "name": "G3",
                    "midi": 55,
                    "time": 306.0865280000059,
                    "velocity": 0.30708661417322836,
                    "duration": 0.21739100000002054
                },
                {
                    "name": "A3",
                    "midi": 57,
                    "time": 306.0865280000059,
                    "velocity": 0.4015748031496063,
                    "duration": 0.21739100000002054
                },
                {
                    "name": "E4",
                    "midi": 64,
                    "time": 306.3039190000059,
                    "velocity": 0.4566929133858268,
                    "duration": 0.21739100000002054
                },
                {
                    "name": "C#4",
                    "midi": 61,
                    "time": 306.3039190000059,
                    "velocity": 0.4251968503937008,
                    "duration": 0.21739100000002054
                },
                {
                    "name": "G3",
                    "midi": 55,
                    "time": 306.48145498333923,
                    "velocity": 0.29133858267716534,
                    "duration": 0.4583326916667261
                },
                {
                    "name": "B3",
                    "midi": 59,
                    "time": 306.5031940833392,
                    "velocity": 0.3858267716535433,
                    "duration": 0.43387620416672235
                },
                {
                    "name": "E4",
                    "midi": 64,
                    "time": 306.50862885833925,
                    "velocity": 0.47244094488188976,
                    "duration": 0.44927473333342505
                },
                {
                    "name": "G4",
                    "midi": 67,
                    "time": 306.52402738750595,
                    "velocity": 0.4409448818897638,
                    "duration": 0.4646732625000709
                },
                {
                    "name": "B4",
                    "midi": 71,
                    "time": 306.53670852917264,
                    "velocity": 0.5039370078740157,
                    "duration": 0.41666608333332533
                },
                {
                    "name": "E5",
                    "midi": 76,
                    "time": 306.5521070583393,
                    "velocity": 0.6692913385826772,
                    "duration": 0.32608649999997397
                },
                {
                    "name": "A2",
                    "midi": 45,
                    "time": 306.73870100000596,
                    "velocity": 0.4566929133858268,
                    "duration": 0.21739100000002054
                },
                {
                    "name": "C5",
                    "midi": 72,
                    "time": 306.95065722500595,
                    "velocity": 0.44881889763779526,
                    "duration": 0.1222824375000755
                },
                {
                    "name": "A1",
                    "midi": 33,
                    "time": 306.956092000006,
                    "velocity": 0.4015748031496063,
                    "duration": 0.21739100000007738
                },
                {
                    "name": "B4",
                    "midi": 71,
                    "time": 307.034896237506,
                    "velocity": 0.3700787401574803,
                    "duration": 0.07880423750003729
                },
                {
                    "name": "G4",
                    "midi": 67,
                    "time": 307.09739615000603,
                    "velocity": 0.3937007874015748,
                    "duration": 0.06974627916667941
                },
                {
                    "name": "E4",
                    "midi": 64,
                    "time": 307.15717867500604,
                    "velocity": 0.36220472440944884,
                    "duration": 0.11413027500003636
                },
                {
                    "name": "A0",
                    "midi": 21,
                    "time": 307.17348300000606,
                    "velocity": 0.28346456692913385,
                    "duration": 0.21739100000007738
                },
                {
                    "name": "C4",
                    "midi": 60,
                    "time": 307.23235972917274,
                    "velocity": 0.30708661417322836,
                    "duration": 0.1150360708333551
                },
                {
                    "name": "B3",
                    "midi": 59,
                    "time": 307.3093523750061,
                    "velocity": 0.28346456692913385,
                    "duration": 0.10144913333340355
                },
                {
                    "name": "G3",
                    "midi": 55,
                    "time": 307.3881566125061,
                    "velocity": 0.3464566929133858,
                    "duration": 0.08152162500005034
                },
                {
                    "name": "A1",
                    "midi": 33,
                    "time": 307.39087400000614,
                    "velocity": 0.23622047244094488,
                    "duration": 0.21739100000007738
                },
                {
                    "name": "E3",
                    "midi": 52,
                    "time": 307.4742072166728,
                    "velocity": 0.07086614173228346,
                    "duration": 0.09329697083336441
                },
                {
                    "name": "C3",
                    "midi": 48,
                    "time": 307.5430477000062,
                    "velocity": 0.29133858267716534,
                    "duration": 0.059782525000002806
                },
                {
                    "name": "A2",
                    "midi": 45,
                    "time": 307.6082650000062,
                    "velocity": 0.1889763779527559,
                    "duration": 0.21739100000002054
                },
                {
                    "name": "A1",
                    "midi": 33,
                    "time": 307.82565600000623,
                    "velocity": 0.23622047244094488,
                    "duration": 0.2173909999999637
                },
                {
                    "name": "D#4",
                    "midi": 63,
                    "time": 307.85282987500625,
                    "velocity": 0.4330708661417323,
                    "duration": 0.03713762916663654
                },
                {
                    "name": "A#3",
                    "midi": 58,
                    "time": 307.85373567083957,
                    "velocity": 0.4330708661417323,
                    "duration": 0.031702854166667294
                },
                {
                    "name": "C#4",
                    "midi": 61,
                    "time": 307.85373567083957,
                    "velocity": 0.4409448818897638,
                    "duration": 0.035326037499999074
                },
                {
                    "name": "A2",
                    "midi": 45,
                    "time": 308.0430470000062,
                    "velocity": 0.29133858267716534,
                    "duration": 0.21739100000002054
                },
                {
                    "name": "A#3",
                    "midi": 58,
                    "time": 308.23869890000617,
                    "velocity": 0.2283464566929134,
                    "duration": 0.04891297500006431
                },
                {
                    "name": "C#4",
                    "midi": 61,
                    "time": 308.23869890000617,
                    "velocity": 0.3228346456692913,
                    "duration": 0.047101383333369995
                },
                {
                    "name": "D#4",
                    "midi": 63,
                    "time": 308.24051049167286,
                    "velocity": 0.3700787401574803,
                    "duration": 0.04438399583335695
                },
                {
                    "name": "A3",
                    "midi": 57,
                    "time": 308.47782900000624,
                    "velocity": 0.36220472440944884,
                    "duration": 0.7826076000001194
                },
                {
                    "name": "C#4",
                    "midi": 61,
                    "time": 308.68435045000626,
                    "velocity": 0.3700787401574803,
                    "duration": 0.050724566666701776
                },
                {
                    "name": "A#3",
                    "midi": 58,
                    "time": 308.68435045000626,
                    "velocity": 0.2440944881889764,
                    "duration": 0.048912975000007464
                },
                {
                    "name": "D#4",
                    "midi": 63,
                    "time": 308.68435045000626,
                    "velocity": 0.3543307086614173,
                    "duration": 0.05253615833339609
                },
                {
                    "name": "D#4",
                    "midi": 63,
                    "time": 308.8963066750063,
                    "velocity": 0.2440944881889764,
                    "duration": 0.04800717916668873
                },
                {
                    "name": "C#4",
                    "midi": 61,
                    "time": 308.89721247083963,
                    "velocity": 0.28346456692913385,
                    "duration": 0.04981877083338304
                },
                {
                    "name": "G4",
                    "midi": 67,
                    "time": 308.89811826667295,
                    "velocity": 0.3543307086614173,
                    "duration": 0.04438399583335695
                },
                {
                    "name": "A#3",
                    "midi": 58,
                    "time": 309.1227556333397,
                    "velocity": 0.23622047244094488,
                    "duration": 0.042572404166662636
                },
                {
                    "name": "C#4",
                    "midi": 61,
                    "time": 309.123661429173,
                    "velocity": 0.3858267716535433,
                    "duration": 0.042572404166662636
                },
                {
                    "name": "D#4",
                    "midi": 63,
                    "time": 309.123661429173,
                    "velocity": 0.3543307086614173,
                    "duration": 0.04438399583335695
                },
                {
                    "name": "A3",
                    "midi": 57,
                    "time": 309.26043660000636,
                    "velocity": 0.5433070866141733,
                    "duration": 0.13043460000000096
                },
                {
                    "name": "A3",
                    "midi": 57,
                    "time": 309.39087120000636,
                    "velocity": 0.5590551181102362,
                    "duration": 0.13043460000000096
                },
                {
                    "name": "A3",
                    "midi": 57,
                    "time": 309.52130580000636,
                    "velocity": 0.5118110236220472,
                    "duration": 0.13043460000000096
                },
                {
                    "name": "C#4",
                    "midi": 61,
                    "time": 309.561160816673,
                    "velocity": 0.2992125984251969,
                    "duration": 0.04347819999998137
                },
                {
                    "name": "D#4",
                    "midi": 63,
                    "time": 309.561160816673,
                    "velocity": 0.3700787401574803,
                    "duration": 0.038949220833330855
                },
                {
                    "name": "A#3",
                    "midi": 58,
                    "time": 309.563878204173,
                    "velocity": 0.23622047244094488,
                    "duration": 0.042572404166662636
                },
                {
                    "name": "A3",
                    "midi": 57,
                    "time": 309.65174040000636,
                    "velocity": 0.48031496062992124,
                    "duration": 0.13043460000000096
                },
                {
                    "name": "A3",
                    "midi": 57,
                    "time": 309.78217500000636,
                    "velocity": 0.5433070866141733,
                    "duration": 0.3260865000000308
                },
                {
                    "name": "A#3",
                    "midi": 58,
                    "time": 309.79213875417304,
                    "velocity": 0.2440944881889764,
                    "duration": 0.07608685000002424
                },
                {
                    "name": "F3",
                    "midi": 53,
                    "time": 309.7984793250064,
                    "velocity": 0.2204724409448819,
                    "duration": 0.06974627916667941
                },
                {
                    "name": "C#4",
                    "midi": 61,
                    "time": 309.98779065417307,
                    "velocity": 0.33858267716535434,
                    "duration": 0.056159341666671025
                },
                {
                    "name": "A#3",
                    "midi": 58,
                    "time": 309.9923196333397,
                    "velocity": 0.2992125984251969,
                    "duration": 0.052536158333339245
                },
                {
                    "name": "G3",
                    "midi": 55,
                    "time": 310.1082615000064,
                    "velocity": 0.4330708661417323,
                    "duration": 0.3260865000000308
                },
                {
                    "name": "A#3",
                    "midi": 58,
                    "time": 310.20971063333974,
                    "velocity": 0.28346456692913385,
                    "duration": 0.0733694625000112
                },
                {
                    "name": "D#3",
                    "midi": 51,
                    "time": 310.21242802083975,
                    "velocity": 0.2755905511811024,
                    "duration": 0.07065207499999815
                },
                {
                    "name": "A1",
                    "midi": 33,
                    "time": 310.4343480000064,
                    "velocity": 0.2992125984251969,
                    "duration": 0.21739100000002054
                },
                {
                    "name": "A2",
                    "midi": 45,
                    "time": 310.65173900000644,
                    "velocity": 0.3228346456692913,
                    "duration": 0.21739100000002054
                },
                {
                    "name": "D#3",
                    "midi": 51,
                    "time": 310.65717377500647,
                    "velocity": 0.33858267716535434,
                    "duration": 0.0498187708333262
                },
                {
                    "name": "A#3",
                    "midi": 58,
                    "time": 310.6617027541731,
                    "velocity": 0.25984251968503935,
                    "duration": 0.04528979166667568
                },
                {
                    "name": "D#4",
                    "midi": 63,
                    "time": 310.8600720416731,
                    "velocity": 0.3464566929133858,
                    "duration": 0.056159341666671025
                },
                {
                    "name": "C#4",
                    "midi": 61,
                    "time": 310.8618836333398,
                    "velocity": 0.3228346456692913,
                    "duration": 0.05525354583329545
                },
                {
                    "name": "G3",
                    "midi": 55,
                    "time": 310.86913000000646,
                    "velocity": 0.5433070866141733,
                    "duration": 0.2173909999999637
                },
                {
                    "name": "A3",
                    "midi": 57,
                    "time": 311.0865210000064,
                    "velocity": 0.5748031496062992,
                    "duration": 0.21739100000002054
                },
                {
                    "name": "D#4",
                    "midi": 63,
                    "time": 311.30119461250644,
                    "velocity": 0.4094488188976378,
                    "duration": 0.05344195416665798
                },
                {
                    "name": "C#4",
                    "midi": 61,
                    "time": 311.30300620417313,
                    "velocity": 0.3779527559055118,
                    "duration": 0.05525354583329545
                },
                {
                    "name": "A#3",
                    "midi": 58,
                    "time": 311.30391200000645,
                    "velocity": 0.5039370078740157,
                    "duration": 0.21739100000002054
                },
                {
                    "name": "G3",
                    "midi": 55,
                    "time": 311.30481779583977,
                    "velocity": 0.3464566929133858,
                    "duration": 0.05525354583335229
                },
                {
                    "name": "D#4",
                    "midi": 63,
                    "time": 311.51858561250646,
                    "velocity": 0.30708661417322836,
                    "duration": 0.07065207499999815
                },
                {
                    "name": "C#4",
                    "midi": 61,
                    "time": 311.5194914083398,
                    "velocity": 0.31496062992125984,
                    "duration": 0.06702889166666637
                },
                {
                    "name": "A3",
                    "midi": 57,
                    "time": 311.52130300000647,
                    "velocity": 0.5590551181102362,
                    "duration": 0.2173909999999637
                },
                {
                    "name": "G4",
                    "midi": 67,
                    "time": 311.52854936667313,
                    "velocity": 0.3937007874015748,
                    "duration": 0.057970933333308494
                },
                {
                    "name": "C4",
                    "midi": 60,
                    "time": 311.73869400000643,
                    "velocity": 0.6377952755905512,
                    "duration": 0.32608650000008765
                },
                {
                    "name": "C#4",
                    "midi": 61,
                    "time": 311.95608500000645,
                    "velocity": 0.41732283464566927,
                    "duration": 0.08242742083336907
                },
                {
                    "name": "G4",
                    "midi": 67,
                    "time": 311.95789659167315,
                    "velocity": 0.3228346456692913,
                    "duration": 0.08967378750003263
                },
                {
                    "name": "A#3",
                    "midi": 58,
                    "time": 312.0647805000065,
                    "velocity": 0.5748031496062992,
                    "duration": 0.32608649999997397
                },
                {
                    "name": "C#5",
                    "midi": 73,
                    "time": 312.1807223666732,
                    "velocity": 0.4094488188976378,
                    "duration": 0.07246366666663562
                },
                {
                    "name": "G4",
                    "midi": 67,
                    "time": 312.18525134583984,
                    "velocity": 0.29133858267716534,
                    "duration": 0.07246366666663562
                },
                {
                    "name": "D#5",
                    "midi": 75,
                    "time": 312.19612089583984,
                    "velocity": 0.5039370078740157,
                    "duration": 0.06068832083332154
                },
                {
                    "name": "A3",
                    "midi": 57,
                    "time": 312.3908670000065,
                    "velocity": 0.4881889763779528,
                    "duration": 0.3260865000000308
                },
                {
                    "name": "C#5",
                    "midi": 73,
                    "time": 312.5928594708398,
                    "velocity": 0.47244094488188976,
                    "duration": 0.0652173000000289
                },
                {
                    "name": "G4",
                    "midi": 67,
                    "time": 312.5955768583398,
                    "velocity": 0.4094488188976378,
                    "duration": 0.05525354583335229
                },
                {
                    "name": "D#5",
                    "midi": 75,
                    "time": 312.5955768583398,
                    "velocity": 0.5039370078740157,
                    "duration": 0.06793468750004195
                },
                {
                    "name": "G3",
                    "midi": 55,
                    "time": 312.7169535000065,
                    "velocity": 0.5590551181102362,
                    "duration": 0.3260865000000308
                },
                {
                    "name": "G5",
                    "midi": 79,
                    "time": 312.8202142250065,
                    "velocity": 0.4881889763779528,
                    "duration": 0.05615934166672787
                },
                {
                    "name": "C#5",
                    "midi": 73,
                    "time": 312.8220258166732,
                    "velocity": 0.47244094488188976,
                    "duration": 0.0570651375000466
                },
                {
                    "name": "D#5",
                    "midi": 75,
                    "time": 312.8247432041732,
                    "velocity": 0.4881889763779528,
                    "duration": 0.06612309583334763
                },
                {
                    "name": "D#4",
                    "midi": 63,
                    "time": 313.04304000000656,
                    "velocity": 0.2047244094488189,
                    "duration": 0.21739100000002054
                },
                {
                    "name": "F#3",
                    "midi": 54,
                    "time": 313.04304000000656,
                    "velocity": 0.36220472440944884,
                    "duration": 0.21739100000002054
                },
                {
                    "name": "B3",
                    "midi": 59,
                    "time": 313.04304000000656,
                    "velocity": 0.23622047244094488,
                    "duration": 0.21739100000002054
                },
                {
                    "name": "B5",
                    "midi": 83,
                    "time": 313.0475689791732,
                    "velocity": 0.13385826771653545,
                    "duration": 0.06612309583334763
                },
                {
                    "name": "A4",
                    "midi": 69,
                    "time": 313.05209795833986,
                    "velocity": 0.25984251968503935,
                    "duration": 0.06159411666669712
                },
                {
                    "name": "B4",
                    "midi": 71,
                    "time": 313.05209795833986,
                    "velocity": 0.23622047244094488,
                    "duration": 0.0652173000000289
                },
                {
                    "name": "F#5",
                    "midi": 78,
                    "time": 313.0584385291732,
                    "velocity": 0.1889763779527559,
                    "duration": 0.06249991250001585
                },
                {
                    "name": "D#5",
                    "midi": 75,
                    "time": 313.0638733041732,
                    "velocity": 0.23622047244094488,
                    "duration": 0.056159341666671025
                },
                {
                    "name": "A2",
                    "midi": 45,
                    "time": 313.2604310000066,
                    "velocity": 0.2677165354330709,
                    "duration": 0.21739100000002054
                },
                {
                    "name": "B5",
                    "midi": 83,
                    "time": 313.4751046125066,
                    "velocity": 0.29133858267716534,
                    "duration": 0.052536158333339245
                },
                {
                    "name": "F#5",
                    "midi": 78,
                    "time": 313.4760104083399,
                    "velocity": 0.2440944881889764,
                    "duration": 0.0679346874999851
                },
                {
                    "name": "A1",
                    "midi": 33,
                    "time": 313.4778220000066,
                    "velocity": 0.2677165354330709,
                    "duration": 0.2173909999999637
                },
                {
                    "name": "D#5",
                    "midi": 75,
                    "time": 313.4805393875066,
                    "velocity": 0.29133858267716534,
                    "duration": 0.06249991249995901
                },
                {
                    "name": "B4",
                    "midi": 71,
                    "time": 313.48144518333993,
                    "velocity": 0.2677165354330709,
                    "duration": 0.0498187708333262
                },
                {
                    "name": "A4",
                    "midi": 69,
                    "time": 313.48416257083994,
                    "velocity": 0.2283464566929134,
                    "duration": 0.04347819999998137
                },
                {
                    "name": "A2",
                    "midi": 45,
                    "time": 313.69521300000656,
                    "velocity": 0.3228346456692913,
                    "duration": 0.21739100000002054
                },
                {
                    "name": "F#5",
                    "midi": 78,
                    "time": 313.89448808333987,
                    "velocity": 0.29133858267716534,
                    "duration": 0.04800717916668873
                },
                {
                    "name": "B5",
                    "midi": 83,
                    "time": 313.8953938791732,
                    "velocity": 0.28346456692913385,
                    "duration": 0.047101383333369995
                },
                {
                    "name": "D#5",
                    "midi": 75,
                    "time": 313.8981112666732,
                    "velocity": 0.23622047244094488,
                    "duration": 0.05615934166672787
                },
                {
                    "name": "B4",
                    "midi": 71,
                    "time": 313.9008286541732,
                    "velocity": 0.23622047244094488,
                    "duration": 0.05434775000003356
                },
                {
                    "name": "A4",
                    "midi": 69,
                    "time": 313.9026402458399,
                    "velocity": 0.2125984251968504,
                    "duration": 0.0498187708333262
                },
                {
                    "name": "A3",
                    "midi": 57,
                    "time": 313.9126040000066,
                    "velocity": 0.25196850393700787,
                    "duration": 0.2173909999999637
                },
                {
                    "name": "D6",
                    "midi": 86,
                    "time": 314.11912545000655,
                    "velocity": 0.3543307086614173,
                    "duration": 0.05434774999997671
                },
                {
                    "name": "A5",
                    "midi": 81,
                    "time": 314.12003124583987,
                    "velocity": 0.3937007874015748,
                    "duration": 0.05434774999997671
                },
                {
                    "name": "F#5",
                    "midi": 78,
                    "time": 314.12184283750656,
                    "velocity": 0.36220472440944884,
                    "duration": 0.05163036249996367
                },
                {
                    "name": "D5",
                    "midi": 74,
                    "time": 314.1281834083399,
                    "velocity": 0.36220472440944884,
                    "duration": 0.044383995833300105
                },
                {
                    "name": "C5",
                    "midi": 72,
                    "time": 314.1290892041732,
                    "velocity": 0.3464566929133858,
                    "duration": 0.04528979166661884
                },
                {
                    "name": "F#3",
                    "midi": 54,
                    "time": 314.12999500000655,
                    "velocity": 0.33070866141732286,
                    "duration": 0.2173909999999637
                },
                {
                    "name": "D4",
                    "midi": 62,
                    "time": 314.12999500000655,
                    "velocity": 0.3464566929133858,
                    "duration": 0.2173909999999637
                },
                {
                    "name": "C4",
                    "midi": 60,
                    "time": 314.12999500000655,
                    "velocity": 0.3543307086614173,
                    "duration": 0.2173909999999637
                },
                {
                    "name": "B5",
                    "midi": 83,
                    "time": 314.34557440833987,
                    "velocity": 0.2440944881889764,
                    "duration": 0.04166660833328706
                },
                {
                    "name": "B4",
                    "midi": 71,
                    "time": 314.3464802041732,
                    "velocity": 0.2440944881889764,
                    "duration": 0.040760812499968324
                },
                {
                    "name": "F#5",
                    "midi": 78,
                    "time": 314.3464802041732,
                    "velocity": 0.4409448818897638,
                    "duration": 0.05072456666664493
                },
                {
                    "name": "B3",
                    "midi": 59,
                    "time": 314.3473860000065,
                    "velocity": 0.2992125984251969,
                    "duration": 0.21739100000002054
                },
                {
                    "name": "D#4",
                    "midi": 63,
                    "time": 314.3473860000065,
                    "velocity": 0.28346456692913385,
                    "duration": 0.21739100000002054
                },
                {
                    "name": "A4",
                    "midi": 69,
                    "time": 314.3482917958398,
                    "velocity": 0.2440944881889764,
                    "duration": 0.03623183333331781
                },
                {
                    "name": "D#5",
                    "midi": 75,
                    "time": 314.3482917958398,
                    "velocity": 0.2992125984251969,
                    "duration": 0.056159341666671025
                },
                {
                    "name": "A1",
                    "midi": 33,
                    "time": 314.56477700000653,
                    "velocity": 0.33070866141732286,
                    "duration": 0.21739100000002054
                },
                {
                    "name": "B5",
                    "midi": 83,
                    "time": 314.7767332250065,
                    "velocity": 0.12598425196850394,
                    "duration": 0.047101383333369995
                },
                {
                    "name": "B4",
                    "midi": 71,
                    "time": 314.7767332250065,
                    "velocity": 0.2992125984251969,
                    "duration": 0.05615934166672787
                },
                {
                    "name": "F#5",
                    "midi": 78,
                    "time": 314.77945061250654,
                    "velocity": 0.3464566929133858,
                    "duration": 0.060688320833378384
                },
                {
                    "name": "A4",
                    "midi": 69,
                    "time": 314.77945061250654,
                    "velocity": 0.2047244094488189,
                    "duration": 0.05344195416671482
                },
                {
                    "name": "D#5",
                    "midi": 75,
                    "time": 314.78035640833986,
                    "velocity": 0.25196850393700787,
                    "duration": 0.06431150416671017
                },
                {
                    "name": "A2",
                    "midi": 45,
                    "time": 314.78216800000655,
                    "velocity": 0.3228346456692913,
                    "duration": 0.21739100000002054
                },
                {
                    "name": "C#5",
                    "midi": 73,
                    "time": 314.9932184291732,
                    "velocity": 0.2677165354330709,
                    "duration": 0.06702889166672321
                },
                {
                    "name": "F#5",
                    "midi": 78,
                    "time": 314.99955900000657,
                    "velocity": 0.3858267716535433,
                    "duration": 0.06431150416671017
                },
                {
                    "name": "E3",
                    "midi": 52,
                    "time": 314.99955900000657,
                    "velocity": 0.2440944881889764,
                    "duration": 0.21739100000007738
                },
                {
                    "name": "E4",
                    "midi": 64,
                    "time": 314.99955900000657,
                    "velocity": 0.28346456692913385,
                    "duration": 0.21739100000007738
                },
                {
                    "name": "C#4",
                    "midi": 61,
                    "time": 314.99955900000657,
                    "velocity": 0.3937007874015748,
                    "duration": 0.21739100000007738
                },
                {
                    "name": "A4",
                    "midi": 69,
                    "time": 315.0022763875066,
                    "velocity": 0.2204724409448819,
                    "duration": 0.056159341666671025
                },
                {
                    "name": "A5",
                    "midi": 81,
                    "time": 315.2078920416733,
                    "velocity": 0.33858267716535434,
                    "duration": 0.06884048333336068
                },
                {
                    "name": "G3",
                    "midi": 55,
                    "time": 315.21695000000665,
                    "velocity": 0.2047244094488189,
                    "duration": 0.2173909999999637
                },
                {
                    "name": "C#5",
                    "midi": 73,
                    "time": 315.4225656541733,
                    "velocity": 0.3464566929133858,
                    "duration": 0.06340570833333459
                },
                {
                    "name": "E5",
                    "midi": 76,
                    "time": 315.4234714500066,
                    "velocity": 0.3779527559055118,
                    "duration": 0.0652173000000289
                },
                {
                    "name": "G4",
                    "midi": 67,
                    "time": 315.4343410000066,
                    "velocity": 0.31496062992125984,
                    "duration": 0.06249991250001585
                },
                {
                    "name": "E4",
                    "midi": 64,
                    "time": 315.4343410000066,
                    "velocity": 0.25984251968503935,
                    "duration": 0.21739100000002054
                },
                {
                    "name": "B3",
                    "midi": 59,
                    "time": 315.4343410000066,
                    "velocity": 0.2677165354330709,
                    "duration": 0.21739100000002054
                },
                {
                    "name": "C4",
                    "midi": 60,
                    "time": 315.4343410000066,
                    "velocity": 0.29133858267716534,
                    "duration": 0.21739100000002054
                },
                {
                    "name": "B4",
                    "midi": 71,
                    "time": 315.64720302084,
                    "velocity": 0.23622047244094488,
                    "duration": 0.04710138333331315
                },
                {
                    "name": "F#5",
                    "midi": 78,
                    "time": 315.64720302084,
                    "velocity": 0.3543307086614173,
                    "duration": 0.07065207499999815
                },
                {
                    "name": "A4",
                    "midi": 69,
                    "time": 315.64720302084,
                    "velocity": 0.2677165354330709,
                    "duration": 0.04710138333331315
                },
                {
                    "name": "B5",
                    "midi": 83,
                    "time": 315.6481088166733,
                    "velocity": 0.2125984251968504,
                    "duration": 0.04710138333331315
                },
                {
                    "name": "D#5",
                    "midi": 75,
                    "time": 315.6508262041733,
                    "velocity": 0.29133858267716534,
                    "duration": 0.06249991250001585
                },
                {
                    "name": "D#4",
                    "midi": 63,
                    "time": 315.65173200000663,
                    "velocity": 0.2204724409448819,
                    "duration": 0.21739100000007738
                },
                {
                    "name": "F#3",
                    "midi": 54,
                    "time": 315.65173200000663,
                    "velocity": 0.33858267716535434,
                    "duration": 0.21739100000007738
                },
                {
                    "name": "B3",
                    "midi": 59,
                    "time": 315.65173200000663,
                    "velocity": 0.28346456692913385,
                    "duration": 0.21739100000007738
                },
                {
                    "name": "B5",
                    "midi": 83,
                    "time": 315.65535518333996,
                    "velocity": 0.2125984251968504,
                    "duration": 0.052536158333339245
                },
                {
                    "name": "A4",
                    "midi": 69,
                    "time": 315.6562609791733,
                    "velocity": 0.29133858267716534,
                    "duration": 0.05434775000003356
                },
                {
                    "name": "B4",
                    "midi": 71,
                    "time": 315.6562609791733,
                    "velocity": 0.3937007874015748,
                    "duration": 0.05615934166672787
                },
                {
                    "name": "F#5",
                    "midi": 78,
                    "time": 315.6562609791733,
                    "velocity": 0.4015748031496063,
                    "duration": 0.06159411666669712
                },
                {
                    "name": "D#5",
                    "midi": 75,
                    "time": 315.6589783666733,
                    "velocity": 0.3937007874015748,
                    "duration": 0.060688320833378384
                },
                {
                    "name": "A2",
                    "midi": 45,
                    "time": 315.8691230000067,
                    "velocity": 0.4015748031496063,
                    "duration": 0.05434774999997671
                },
                {
                    "name": "D#3",
                    "midi": 51,
                    "time": 315.9234707500067,
                    "velocity": 0.36220472440944884,
                    "duration": 0.05434774999997671
                },
                {
                    "name": "F#3",
                    "midi": 54,
                    "time": 315.97781850000666,
                    "velocity": 0.4094488188976378,
                    "duration": 0.05434774999997671
                },
                {
                    "name": "B3",
                    "midi": 59,
                    "time": 316.03216625000664,
                    "velocity": 0.4645669291338583,
                    "duration": 0.05434774999997671
                },
                {
                    "name": "B4",
                    "midi": 71,
                    "time": 316.07836183750663,
                    "velocity": 0.3700787401574803,
                    "duration": 0.04528979166661884
                },
                {
                    "name": "B5",
                    "midi": 83,
                    "time": 316.07926763333995,
                    "velocity": 0.2283464566929134,
                    "duration": 0.04347819999998137
                },
                {
                    "name": "A4",
                    "midi": 69,
                    "time": 316.07926763333995,
                    "velocity": 0.36220472440944884,
                    "duration": 0.0498187708333262
                },
                {
                    "name": "D#5",
                    "midi": 75,
                    "time": 316.0837966125066,
                    "velocity": 0.31496062992125984,
                    "duration": 0.0416666083333439
                },
                {
                    "name": "F#5",
                    "midi": 78,
                    "time": 316.0837966125066,
                    "velocity": 0.41732283464566927,
                    "duration": 0.05797093333336534
                },
                {
                    "name": "D#4",
                    "midi": 63,
                    "time": 316.0865140000066,
                    "velocity": 0.3937007874015748,
                    "duration": 0.21739100000002054
                },
                {
                    "name": "C#5",
                    "midi": 73,
                    "time": 316.3029992041733,
                    "velocity": 0.3228346456692913,
                    "duration": 0.07336946249995435
                },
                {
                    "name": "F#5",
                    "midi": 78,
                    "time": 316.30390500000664,
                    "velocity": 0.41732283464566927,
                    "duration": 0.07971003333329918
                },
                {
                    "name": "E3",
                    "midi": 52,
                    "time": 316.30390500000664,
                    "velocity": 0.33070866141732286,
                    "duration": 0.2173909999999637
                },
                {
                    "name": "E4",
                    "midi": 64,
                    "time": 316.30390500000664,
                    "velocity": 0.4409448818897638,
                    "duration": 0.2173909999999637
                },
                {
                    "name": "C#4",
                    "midi": 61,
                    "time": 316.30390500000664,
                    "velocity": 0.5354330708661418,
                    "duration": 0.2173909999999637
                },
                {
                    "name": "A4",
                    "midi": 69,
                    "time": 316.30752818333997,
                    "velocity": 0.3228346456692913,
                    "duration": 0.06521729999997206
                },
                {
                    "name": "A3",
                    "midi": 57,
                    "time": 316.5212960000066,
                    "velocity": 0.5354330708661418,
                    "duration": 0.21739100000002054
                },
                {
                    "name": "A5",
                    "midi": 81,
                    "time": 316.5231075916733,
                    "velocity": 0.4330708661417323,
                    "duration": 0.08695640000001958
                },
                {
                    "name": "C#5",
                    "midi": 73,
                    "time": 316.7386870000066,
                    "velocity": 0.3858267716535433,
                    "duration": 0.05978252499994596
                },
                {
                    "name": "E4",
                    "midi": 64,
                    "time": 316.7386870000066,
                    "velocity": 0.36220472440944884,
                    "duration": 0.10869549999995343
                },
                {
                    "name": "B3",
                    "midi": 59,
                    "time": 316.7386870000066,
                    "velocity": 0.3700787401574803,
                    "duration": 0.10869549999995343
                },
                {
                    "name": "C4",
                    "midi": 60,
                    "time": 316.7386870000066,
                    "velocity": 0.36220472440944884,
                    "duration": 0.10869549999995343
                },
                {
                    "name": "E5",
                    "midi": 76,
                    "time": 316.73959279583994,
                    "velocity": 0.5669291338582677,
                    "duration": 0.05978252499994596
                },
                {
                    "name": "G4",
                    "midi": 67,
                    "time": 316.7477449583399,
                    "velocity": 0.4881889763779528,
                    "duration": 0.05163036249996367
                },
                {
                    "name": "F#4",
                    "midi": 66,
                    "time": 316.90082445417323,
                    "velocity": 0.23622047244094488,
                    "duration": 0.1693838208333318
                },
                {
                    "name": "A#4",
                    "midi": 70,
                    "time": 316.9270925333399,
                    "velocity": 0.3228346456692913,
                    "duration": 0.13224619166669527
                },
                {
                    "name": "C#5",
                    "midi": 73,
                    "time": 316.93433890000654,
                    "velocity": 0.44881889763779526,
                    "duration": 0.11594186666667383
                },
                {
                    "name": "G#2",
                    "midi": 44,
                    "time": 316.9560780000065,
                    "velocity": 0.25984251968503935,
                    "duration": 0.21739100000002054
                },
                {
                    "name": "F#5",
                    "midi": 78,
                    "time": 316.9687591416732,
                    "velocity": 0.4881889763779528,
                    "duration": 0.08695640000001958
                },
                {
                    "name": "D#3",
                    "midi": 51,
                    "time": 317.17346900000655,
                    "velocity": 0.23622047244094488,
                    "duration": 0.10869549999995343
                },
                {
                    "name": "F4",
                    "midi": 65,
                    "time": 317.2024544666732,
                    "velocity": 0.4645669291338583,
                    "duration": 0.057970933333308494
                },
                {
                    "name": "F#4",
                    "midi": 66,
                    "time": 317.25317903333985,
                    "velocity": 0.30708661417322836,
                    "duration": 0.06521729999997206
                },
                {
                    "name": "F#3",
                    "midi": 54,
                    "time": 317.2821645000065,
                    "velocity": 0.3700787401574803,
                    "duration": 0.10869550000001027
                },
                {
                    "name": "F4",
                    "midi": 65,
                    "time": 317.30843257917314,
                    "velocity": 0.3937007874015748,
                    "duration": 0.0887679916667139
                },
                {
                    "name": "D4",
                    "midi": 62,
                    "time": 317.3890484083398,
                    "velocity": 0.4881889763779528,
                    "duration": 0.44927473333342505
                },
                {
                    "name": "A#3",
                    "midi": 58,
                    "time": 317.3908600000065,
                    "velocity": 0.47244094488188976,
                    "duration": 0.21739100000002054
                },
                {
                    "name": "F#4",
                    "midi": 66,
                    "time": 317.60825100000653,
                    "velocity": 0.47244094488188976,
                    "duration": 0.21739100000002054
                },
                {
                    "name": "A#4",
                    "midi": 70,
                    "time": 317.60825100000653,
                    "velocity": 0.5039370078740157,
                    "duration": 0.21739100000002054
                },
                {
                    "name": "D#4",
                    "midi": 63,
                    "time": 317.8220188166732,
                    "velocity": 0.5354330708661418,
                    "duration": 0.38496322916665804
                },
                {
                    "name": "A#3",
                    "midi": 58,
                    "time": 317.82564200000655,
                    "velocity": 0.4881889763779528,
                    "duration": 0.21739100000002054
                },
                {
                    "name": "D#3",
                    "midi": 51,
                    "time": 318.0430330000066,
                    "velocity": 0.28346456692913385,
                    "duration": 0.2173909999999637
                },
                {
                    "name": "A#4",
                    "midi": 70,
                    "time": 318.26042400000654,
                    "velocity": 0.6299212598425197,
                    "duration": 0.6376802666667345
                },
                {
                    "name": "F#2",
                    "midi": 42,
                    "time": 318.26042400000654,
                    "velocity": 0.6692913385826772,
                    "duration": 0.21739100000002054
                },
                {
                    "name": "C#3",
                    "midi": 49,
                    "time": 318.26042400000654,
                    "velocity": 0.5669291338582677,
                    "duration": 0.21739100000002054
                },
                {
                    "name": "E4",
                    "midi": 64,
                    "time": 318.26404718333987,
                    "velocity": 0.5984251968503937,
                    "duration": 0.6340570833334027
                },
                {
                    "name": "D#5",
                    "midi": 75,
                    "time": 318.2667645708399,
                    "velocity": 0.5669291338582677,
                    "duration": 0.6449266333333981
                },
                {
                    "name": "A#3",
                    "midi": 58,
                    "time": 318.47781500000656,
                    "velocity": 0.5039370078740157,
                    "duration": 0.10869550000001027
                },
                {
                    "name": "G4",
                    "midi": 67,
                    "time": 318.47781500000656,
                    "velocity": 0.5354330708661418,
                    "duration": 0.07246366666669246
                },
                {
                    "name": "G4",
                    "midi": 67,
                    "time": 318.55027866667325,
                    "velocity": 0.4881889763779528,
                    "duration": 0.07246366666663562
                },
                {
                    "name": "C#4",
                    "midi": 61,
                    "time": 318.58651050000657,
                    "velocity": 0.5354330708661418,
                    "duration": 0.10869550000001027
                },
                {
                    "name": "G4",
                    "midi": 67,
                    "time": 318.6227423333399,
                    "velocity": 0.5118110236220472,
                    "duration": 0.07246366666669246
                },
                {
                    "name": "E4",
                    "midi": 64,
                    "time": 318.6952060000066,
                    "velocity": 0.5669291338582677,
                    "duration": 0.21739100000002054
                },
                {
                    "name": "G4",
                    "midi": 67,
                    "time": 318.6952060000066,
                    "velocity": 0.4881889763779528,
                    "duration": 0.07246366666669246
                },
                {
                    "name": "G4",
                    "midi": 67,
                    "time": 318.76766966667327,
                    "velocity": 0.5118110236220472,
                    "duration": 0.07246366666669246
                },
                {
                    "name": "G4",
                    "midi": 67,
                    "time": 318.84013333333996,
                    "velocity": 0.5118110236220472,
                    "duration": 0.07246366666663562
                },
                {
                    "name": "E5",
                    "midi": 76,
                    "time": 318.9125970000066,
                    "velocity": 0.5669291338582677,
                    "duration": 0.21739100000002054
                },
                {
                    "name": "A#4",
                    "midi": 70,
                    "time": 318.9125970000066,
                    "velocity": 0.5354330708661418,
                    "duration": 0.21739100000002054
                },
                {
                    "name": "G4",
                    "midi": 67,
                    "time": 318.9125970000066,
                    "velocity": 0.5984251968503937,
                    "duration": 0.3260865000000308
                },
                {
                    "name": "E4",
                    "midi": 64,
                    "time": 319.1299880000066,
                    "velocity": 0.5039370078740157,
                    "duration": 0.10869550000001027
                },
                {
                    "name": "A#4",
                    "midi": 70,
                    "time": 319.2024516666733,
                    "velocity": 0.5669291338582677,
                    "duration": 0.09057958333329452
                },
                {
                    "name": "G4",
                    "midi": 67,
                    "time": 319.23868350000663,
                    "velocity": 0.5433070866141733,
                    "duration": 0.32608649999997397
                },
                {
                    "name": "C#4",
                    "midi": 61,
                    "time": 319.23868350000663,
                    "velocity": 0.47244094488188976,
                    "duration": 0.10869549999995343
                },
                {
                    "name": "A#3",
                    "midi": 58,
                    "time": 319.3473790000066,
                    "velocity": 0.3228346456692913,
                    "duration": 0.21739100000002054
                },
                {
                    "name": "F#4",
                    "midi": 66,
                    "time": 319.43795858333993,
                    "velocity": 0.2204724409448819,
                    "duration": 0.36412992500004293
                },
                {
                    "name": "G#4",
                    "midi": 68,
                    "time": 319.46241507083994,
                    "velocity": 0.3937007874015748,
                    "duration": 0.3396734375000392
                },
                {
                    "name": "D5",
                    "midi": 74,
                    "time": 319.49774110833994,
                    "velocity": 0.4645669291338583,
                    "duration": 0.30706478750005317
                },
                {
                    "name": "F#5",
                    "midi": 78,
                    "time": 319.5321613500066,
                    "velocity": 0.3700787401574803,
                    "duration": 0.2463764666666748
                },
                {
                    "name": "B2",
                    "midi": 47,
                    "time": 319.5647700000066,
                    "velocity": 0.2992125984251969,
                    "duration": 0.21739100000002054
                },
                {
                    "name": "E2",
                    "midi": 40,
                    "time": 319.5647700000066,
                    "velocity": 0.25196850393700787,
                    "duration": 0.21739100000002054
                },
                {
                    "name": "G#3",
                    "midi": 56,
                    "time": 319.7821610000066,
                    "velocity": 0.4015748031496063,
                    "duration": 0.10869550000001027
                },
                {
                    "name": "C#5",
                    "midi": 73,
                    "time": 319.7948421416733,
                    "velocity": 0.4015748031496063,
                    "duration": 0.07699264583334298
                },
                {
                    "name": "D5",
                    "midi": 74,
                    "time": 319.85100148334,
                    "velocity": 0.3858267716535433,
                    "duration": 0.08061582916661791
                },
                {
                    "name": "B3",
                    "midi": 59,
                    "time": 319.89085650000663,
                    "velocity": 0.4409448818897638,
                    "duration": 0.10869550000001027
                },
                {
                    "name": "C#5",
                    "midi": 73,
                    "time": 319.91621878333996,
                    "velocity": 0.4409448818897638,
                    "duration": 0.07065207499999815
                },
                {
                    "name": "D4",
                    "midi": 62,
                    "time": 319.99955200000664,
                    "velocity": 0.5984251968503937,
                    "duration": 0.21739100000002054
                },
                {
                    "name": "A#4",
                    "midi": 70,
                    "time": 320.01313893750665,
                    "velocity": 0.3858267716535433,
                    "duration": 0.40670232916670557
                },
                {
                    "name": "G#4",
                    "midi": 68,
                    "time": 320.21694300000667,
                    "velocity": 0.6299212598425197,
                    "duration": 0.21739100000002054
                },
                {
                    "name": "F#4",
                    "midi": 66,
                    "time": 320.21694300000667,
                    "velocity": 0.47244094488188976,
                    "duration": 0.21739100000002054
                },
                {
                    "name": "B4",
                    "midi": 71,
                    "time": 320.42980502084004,
                    "velocity": 0.6299212598425197,
                    "duration": 0.3722820875000252
                },
                {
                    "name": "D4",
                    "midi": 62,
                    "time": 320.4343340000067,
                    "velocity": 0.5354330708661418,
                    "duration": 0.21739100000002054
                },
                {
                    "name": "G#3",
                    "midi": 56,
                    "time": 320.6517250000067,
                    "velocity": 0.4330708661417323,
                    "duration": 0.21739100000002054
                },
                {
                    "name": "D2",
                    "midi": 38,
                    "time": 320.8691160000067,
                    "velocity": 0.7007874015748031,
                    "duration": 0.21739100000002054
                },
                {
                    "name": "A2",
                    "midi": 45,
                    "time": 320.8691160000067,
                    "velocity": 0.4881889763779528,
                    "duration": 0.21739100000002054
                },
                {
                    "name": "B5",
                    "midi": 83,
                    "time": 320.87273918334006,
                    "velocity": 0.7007874015748031,
                    "duration": 0.4284414291666394
                },
                {
                    "name": "F#5",
                    "midi": 78,
                    "time": 320.8736449791734,
                    "velocity": 0.6692913385826772,
                    "duration": 0.42572404166662636
                },
                {
                    "name": "C#5",
                    "midi": 73,
                    "time": 320.8763623666734,
                    "velocity": 0.5984251968503937,
                    "duration": 0.4230066541666133
                },
                {
                    "name": "B4",
                    "midi": 71,
                    "time": 320.8763623666734,
                    "velocity": 0.6692913385826772,
                    "duration": 0.4230066541666133
                },
                {
                    "name": "D#5",
                    "midi": 75,
                    "time": 321.08650700000675,
                    "velocity": 0.5669291338582677,
                    "duration": 0.057970933333308494
                },
                {
                    "name": "F#3",
                    "midi": 54,
                    "time": 321.08650700000675,
                    "velocity": 0.4881889763779528,
                    "duration": 0.10869549999995343
                },
                {
                    "name": "D#5",
                    "midi": 75,
                    "time": 321.1589706666734,
                    "velocity": 0.6692913385826772,
                    "duration": 0.057970933333308494
                },
                {
                    "name": "C4",
                    "midi": 60,
                    "time": 321.1952025000067,
                    "velocity": 0.5354330708661418,
                    "duration": 0.10869550000001027
                },
                {
                    "name": "D#5",
                    "midi": 75,
                    "time": 321.23143433334,
                    "velocity": 0.6692913385826772,
                    "duration": 0.057970933333308494
                },
                {
                    "name": "D#5",
                    "midi": 75,
                    "time": 321.3038980000067,
                    "velocity": 0.5354330708661418,
                    "duration": 0.057970933333308494
                },
                {
                    "name": "D#4",
                    "midi": 63,
                    "time": 321.3038980000067,
                    "velocity": 0.5039370078740157,
                    "duration": 0.21739099999990685
                },
                {
                    "name": "D#5",
                    "midi": 75,
                    "time": 321.37636166667335,
                    "velocity": 0.5669291338582677,
                    "duration": 0.057970933333308494
                },
                {
                    "name": "D#5",
                    "midi": 75,
                    "time": 321.44882533334,
                    "velocity": 0.5984251968503937,
                    "duration": 0.057970933333308494
                },
                {
                    "name": "D#5",
                    "midi": 75,
                    "time": 321.5212890000066,
                    "velocity": 0.5354330708661418,
                    "duration": 0.28985466666665616
                },
                {
                    "name": "D#4",
                    "midi": 63,
                    "time": 321.5212890000066,
                    "velocity": 0.47244094488188976,
                    "duration": 0.4347819999999274
                },
                {
                    "name": "A4",
                    "midi": 69,
                    "time": 321.5212890000066,
                    "velocity": 0.5039370078740157,
                    "duration": 0.2527170375000196
                },
                {
                    "name": "F#5",
                    "midi": 78,
                    "time": 321.73868000000664,
                    "velocity": 0.48031496062992124,
                    "duration": 0.03623183333331781
                },
                {
                    "name": "F#4",
                    "midi": 66,
                    "time": 321.73868000000664,
                    "velocity": 0.48031496062992124,
                    "duration": 0.035326037499999074
                },
                {
                    "name": "A4",
                    "midi": 69,
                    "time": 321.73868000000664,
                    "velocity": 0.48031496062992124,
                    "duration": 0.14492733333327124
                },
                {
                    "name": "D#5",
                    "midi": 75,
                    "time": 321.77491183333996,
                    "velocity": 0.48031496062992124,
                    "duration": 0.27173874999988357
                },
                {
                    "name": "D#4",
                    "midi": 63,
                    "time": 321.77491183333996,
                    "velocity": 0.48031496062992124,
                    "duration": 0.18115916666658904
                },
                {
                    "name": "C5",
                    "midi": 72,
                    "time": 321.8111436666733,
                    "velocity": 0.47244094488188976,
                    "duration": 0.03623183333331781
                },
                {
                    "name": "A4",
                    "midi": 69,
                    "time": 321.8473755000066,
                    "velocity": 0.4645669291338583,
                    "duration": 0.10869549999995343
                },
                {
                    "name": "F#4",
                    "midi": 66,
                    "time": 321.8836073333399,
                    "velocity": 0.3464566929133858,
                    "duration": 0.03623183333331781
                },
                {
                    "name": "D#4",
                    "midi": 63,
                    "time": 321.9198391666732,
                    "velocity": 0.25984251968503935,
                    "duration": 0.12681141666661233
                },
                {
                    "name": "C4",
                    "midi": 60,
                    "time": 321.95607100000655,
                    "velocity": 0.23622047244094488,
                    "duration": 0.03623183333331781
                },
                {
                    "name": "A3",
                    "midi": 57,
                    "time": 321.99230283333986,
                    "velocity": 0.2755905511811024,
                    "duration": 0.03623183333331781
                },
                {
                    "name": "F#3",
                    "midi": 54,
                    "time": 322.0285346666732,
                    "velocity": 0.28346456692913385,
                    "duration": 0.03623183333331781
                },
                {
                    "name": "D#3",
                    "midi": 51,
                    "time": 322.0647665000065,
                    "velocity": 0.14960629921259844,
                    "duration": 0.03623183333331781
                },
                {
                    "name": "C3",
                    "midi": 48,
                    "time": 322.1009983333398,
                    "velocity": 0.2440944881889764,
                    "duration": 0.03623183333331781
                },
                {
                    "name": "A2",
                    "midi": 45,
                    "time": 322.13723016667313,
                    "velocity": 0.16535433070866143,
                    "duration": 0.03623183333331781
                },
                {
                    "name": "G2",
                    "midi": 43,
                    "time": 322.17346200000645,
                    "velocity": 0.25196850393700787,
                    "duration": 0.21739100000002054
                },
                {
                    "name": "C2",
                    "midi": 36,
                    "time": 322.17346200000645,
                    "velocity": 0.25196850393700787,
                    "duration": 0.21739100000002054
                },
                {
                    "name": "D#3",
                    "midi": 51,
                    "time": 322.3908530000065,
                    "velocity": 0.18110236220472442,
                    "duration": 0.07246366666669246
                },
                {
                    "name": "B2",
                    "midi": 47,
                    "time": 322.3908530000065,
                    "velocity": 0.28346456692913385,
                    "duration": 0.07246366666669246
                },
                {
                    "name": "G3",
                    "midi": 55,
                    "time": 322.46331666667317,
                    "velocity": 0.2440944881889764,
                    "duration": 0.07246366666669246
                },
                {
                    "name": "B3",
                    "midi": 59,
                    "time": 322.46331666667317,
                    "velocity": 0.33070866141732286,
                    "duration": 0.07246366666669246
                },
                {
                    "name": "B2",
                    "midi": 47,
                    "time": 322.53578033333986,
                    "velocity": 0.2283464566929134,
                    "duration": 0.07246366666669246
                },
                {
                    "name": "D#3",
                    "midi": 51,
                    "time": 322.53578033333986,
                    "velocity": 0.2755905511811024,
                    "duration": 0.07246366666669246
                },
                {
                    "name": "G#2",
                    "midi": 44,
                    "time": 322.60824400000655,
                    "velocity": 0.47244094488188976,
                    "duration": 0.21739100000002054
                },
                {
                    "name": "B3",
                    "midi": 59,
                    "time": 322.82563500000657,
                    "velocity": 0.2440944881889764,
                    "duration": 0.21739100000002054
                },
                {
                    "name": "B2",
                    "midi": 47,
                    "time": 322.82563500000657,
                    "velocity": 0.2047244094488189,
                    "duration": 0.21739100000002054
                },
                {
                    "name": "D#3",
                    "midi": 51,
                    "time": 322.82563500000657,
                    "velocity": 0.2047244094488189,
                    "duration": 0.21739100000002054
                },
                {
                    "name": "G3",
                    "midi": 55,
                    "time": 322.82563500000657,
                    "velocity": 0.33858267716535434,
                    "duration": 0.21739100000002054
                },
                {
                    "name": "G2",
                    "midi": 43,
                    "time": 323.0430260000066,
                    "velocity": 0.2755905511811024,
                    "duration": 0.21739100000002054
                },
                {
                    "name": "C2",
                    "midi": 36,
                    "time": 323.0430260000066,
                    "velocity": 0.23622047244094488,
                    "duration": 0.21739100000002054
                },
                {
                    "name": "B2",
                    "midi": 47,
                    "time": 323.2604170000066,
                    "velocity": 0.07874015748031496,
                    "duration": 0.21739100000002054
                },
                {
                    "name": "D#3",
                    "midi": 51,
                    "time": 323.2604170000066,
                    "velocity": 0.07086614173228346,
                    "duration": 0.21739100000002054
                },
                {
                    "name": "B3",
                    "midi": 59,
                    "time": 323.2604170000066,
                    "velocity": 0.11023622047244094,
                    "duration": 0.21739100000002054
                },
                {
                    "name": "G3",
                    "midi": 55,
                    "time": 323.2604170000066,
                    "velocity": 0.07874015748031496,
                    "duration": 0.21739100000002054
                },
                {
                    "name": "G2",
                    "midi": 43,
                    "time": 323.47780800000663,
                    "velocity": 0.36220472440944884,
                    "duration": 0.21739100000002054
                },
                {
                    "name": "G1",
                    "midi": 31,
                    "time": 323.47780800000663,
                    "velocity": 0.33858267716535434,
                    "duration": 0.21739100000002054
                },
                {
                    "name": "A3",
                    "midi": 57,
                    "time": 323.69519900000665,
                    "velocity": 0.4645669291338583,
                    "duration": 0.13043460000000096
                },
                {
                    "name": "A#2",
                    "midi": 46,
                    "time": 323.69519900000665,
                    "velocity": 0.44881889763779526,
                    "duration": 0.13043460000000096
                },
                {
                    "name": "F3",
                    "midi": 53,
                    "time": 323.69519900000665,
                    "velocity": 0.3858267716535433,
                    "duration": 0.13043460000000096
                },
                {
                    "name": "C#3",
                    "midi": 49,
                    "time": 323.69519900000665,
                    "velocity": 0.28346456692913385,
                    "duration": 0.13043460000000096
                },
                {
                    "name": "F3",
                    "midi": 53,
                    "time": 323.9125900000067,
                    "velocity": 0.47244094488188976,
                    "duration": 0.13043460000000096
                },
                {
                    "name": "F4",
                    "midi": 65,
                    "time": 323.9125900000067,
                    "velocity": 0.5118110236220472,
                    "duration": 0.13043460000000096
                },
                {
                    "name": "G#3",
                    "midi": 56,
                    "time": 323.9125900000067,
                    "velocity": 0.5118110236220472,
                    "duration": 0.13043460000000096
                },
                {
                    "name": "B2",
                    "midi": 47,
                    "time": 323.9125900000067,
                    "velocity": 0.4409448818897638,
                    "duration": 0.13043460000000096
                },
                {
                    "name": "D3",
                    "midi": 50,
                    "time": 323.9125900000067,
                    "velocity": 0.4409448818897638,
                    "duration": 0.13043460000000096
                },
                {
                    "name": "G2",
                    "midi": 43,
                    "time": 324.1299810000067,
                    "velocity": 0.25196850393700787,
                    "duration": 0.21739100000002054
                },
                {
                    "name": "C2",
                    "midi": 36,
                    "time": 324.1299810000067,
                    "velocity": 0.25196850393700787,
                    "duration": 0.21739100000002054
                },
                {
                    "name": "D#3",
                    "midi": 51,
                    "time": 324.3473720000067,
                    "velocity": 0.18110236220472442,
                    "duration": 0.07246366666669246
                },
                {
                    "name": "B2",
                    "midi": 47,
                    "time": 324.3473720000067,
                    "velocity": 0.28346456692913385,
                    "duration": 0.07246366666669246
                },
                {
                    "name": "G3",
                    "midi": 55,
                    "time": 324.4198356666734,
                    "velocity": 0.2440944881889764,
                    "duration": 0.07246366666669246
                },
                {
                    "name": "B3",
                    "midi": 59,
                    "time": 324.4198356666734,
                    "velocity": 0.33070866141732286,
                    "duration": 0.07246366666669246
                },
                {
                    "name": "B2",
                    "midi": 47,
                    "time": 324.4922993333401,
                    "velocity": 0.2283464566929134,
                    "duration": 0.07246366666669246
                },
                {
                    "name": "D#3",
                    "midi": 51,
                    "time": 324.4922993333401,
                    "velocity": 0.2755905511811024,
                    "duration": 0.07246366666669246
                },
                {
                    "name": "G#2",
                    "midi": 44,
                    "time": 324.5647630000068,
                    "velocity": 0.47244094488188976,
                    "duration": 0.21739100000002054
                },
                {
                    "name": "B3",
                    "midi": 59,
                    "time": 324.7821540000068,
                    "velocity": 0.2440944881889764,
                    "duration": 0.21739100000002054
                },
                {
                    "name": "B2",
                    "midi": 47,
                    "time": 324.7821540000068,
                    "velocity": 0.2047244094488189,
                    "duration": 0.21739100000002054
                },
                {
                    "name": "D#3",
                    "midi": 51,
                    "time": 324.7821540000068,
                    "velocity": 0.2047244094488189,
                    "duration": 0.21739100000002054
                },
                {
                    "name": "G3",
                    "midi": 55,
                    "time": 324.7821540000068,
                    "velocity": 0.33858267716535434,
                    "duration": 0.21739100000002054
                },
                {
                    "name": "G2",
                    "midi": 43,
                    "time": 324.99954500000683,
                    "velocity": 0.2755905511811024,
                    "duration": 0.21739100000002054
                },
                {
                    "name": "C2",
                    "midi": 36,
                    "time": 324.99954500000683,
                    "velocity": 0.23622047244094488,
                    "duration": 0.21739100000002054
                },
                {
                    "name": "B2",
                    "midi": 47,
                    "time": 325.21693600000685,
                    "velocity": 0.07874015748031496,
                    "duration": 0.21739100000002054
                },
                {
                    "name": "D#3",
                    "midi": 51,
                    "time": 325.21693600000685,
                    "velocity": 0.07086614173228346,
                    "duration": 0.21739100000002054
                },
                {
                    "name": "B3",
                    "midi": 59,
                    "time": 325.21693600000685,
                    "velocity": 0.11023622047244094,
                    "duration": 0.21739100000002054
                },
                {
                    "name": "G3",
                    "midi": 55,
                    "time": 325.21693600000685,
                    "velocity": 0.07874015748031496,
                    "duration": 0.21739100000002054
                },
                {
                    "name": "G2",
                    "midi": 43,
                    "time": 325.4343270000069,
                    "velocity": 0.36220472440944884,
                    "duration": 0.21739100000002054
                },
                {
                    "name": "G1",
                    "midi": 31,
                    "time": 325.4343270000069,
                    "velocity": 0.33858267716535434,
                    "duration": 0.21739100000002054
                },
                {
                    "name": "A3",
                    "midi": 57,
                    "time": 325.6517180000069,
                    "velocity": 0.4645669291338583,
                    "duration": 0.13043460000000096
                },
                {
                    "name": "A#2",
                    "midi": 46,
                    "time": 325.6517180000069,
                    "velocity": 0.44881889763779526,
                    "duration": 0.13043460000000096
                },
                {
                    "name": "F3",
                    "midi": 53,
                    "time": 325.6517180000069,
                    "velocity": 0.3858267716535433,
                    "duration": 0.13043460000000096
                },
                {
                    "name": "C#3",
                    "midi": 49,
                    "time": 325.6517180000069,
                    "velocity": 0.28346456692913385,
                    "duration": 0.13043460000000096
                },
                {
                    "name": "F3",
                    "midi": 53,
                    "time": 325.8691090000069,
                    "velocity": 0.47244094488188976,
                    "duration": 0.13043460000000096
                },
                {
                    "name": "F4",
                    "midi": 65,
                    "time": 325.8691090000069,
                    "velocity": 0.5118110236220472,
                    "duration": 0.13043460000000096
                },
                {
                    "name": "G#3",
                    "midi": 56,
                    "time": 325.8691090000069,
                    "velocity": 0.5118110236220472,
                    "duration": 0.13043460000000096
                },
                {
                    "name": "B2",
                    "midi": 47,
                    "time": 325.8691090000069,
                    "velocity": 0.4409448818897638,
                    "duration": 0.13043460000000096
                },
                {
                    "name": "D3",
                    "midi": 50,
                    "time": 325.8691090000069,
                    "velocity": 0.4409448818897638,
                    "duration": 0.13043460000000096
                },
                {
                    "name": "G2",
                    "midi": 43,
                    "time": 326.08650000000694,
                    "velocity": 0.47244094488188976,
                    "duration": 0.21739100000002054
                },
                {
                    "name": "C2",
                    "midi": 36,
                    "time": 326.08650000000694,
                    "velocity": 0.4330708661417323,
                    "duration": 0.21739100000002054
                },
                {
                    "name": "B3",
                    "midi": 59,
                    "time": 326.30389100000696,
                    "velocity": 0.3937007874015748,
                    "duration": 0.07246366666669246
                },
                {
                    "name": "D#4",
                    "midi": 63,
                    "time": 326.30389100000696,
                    "velocity": 0.4409448818897638,
                    "duration": 0.07246366666669246
                },
                {
                    "name": "G4",
                    "midi": 67,
                    "time": 326.37635466667365,
                    "velocity": 0.47244094488188976,
                    "duration": 0.07246366666669246
                },
                {
                    "name": "B4",
                    "midi": 71,
                    "time": 326.37635466667365,
                    "velocity": 0.33858267716535434,
                    "duration": 0.07246366666669246
                },
                {
                    "name": "B3",
                    "midi": 59,
                    "time": 326.44881833334034,
                    "velocity": 0.4409448818897638,
                    "duration": 0.07246366666669246
                },
                {
                    "name": "D#4",
                    "midi": 63,
                    "time": 326.44881833334034,
                    "velocity": 0.47244094488188976,
                    "duration": 0.07246366666669246
                },
                {
                    "name": "G#4",
                    "midi": 68,
                    "time": 326.52128200000703,
                    "velocity": 0.6299212598425197,
                    "duration": 0.21739100000002054
                },
                {
                    "name": "G#3",
                    "midi": 56,
                    "time": 326.52128200000703,
                    "velocity": 0.4881889763779528,
                    "duration": 0.21739100000002054
                },
                {
                    "name": "G4",
                    "midi": 67,
                    "time": 326.73867300000705,
                    "velocity": 0.47244094488188976,
                    "duration": 0.21739100000002054
                },
                {
                    "name": "B3",
                    "midi": 59,
                    "time": 326.73867300000705,
                    "velocity": 0.30708661417322836,
                    "duration": 0.21739100000002054
                },
                {
                    "name": "D#4",
                    "midi": 63,
                    "time": 326.73867300000705,
                    "velocity": 0.3543307086614173,
                    "duration": 0.21739100000002054
                },
                {
                    "name": "B4",
                    "midi": 71,
                    "time": 326.73867300000705,
                    "velocity": 0.4330708661417323,
                    "duration": 0.21739100000002054
                },
                {
                    "name": "G3",
                    "midi": 55,
                    "time": 326.9560640000071,
                    "velocity": 0.41732283464566927,
                    "duration": 0.21739100000002054
                },
                {
                    "name": "B4",
                    "midi": 71,
                    "time": 327.1734550000071,
                    "velocity": 0.3937007874015748,
                    "duration": 0.21739100000002054
                },
                {
                    "name": "B3",
                    "midi": 59,
                    "time": 327.1734550000071,
                    "velocity": 0.29133858267716534,
                    "duration": 0.21739100000002054
                },
                {
                    "name": "D#4",
                    "midi": 63,
                    "time": 327.1734550000071,
                    "velocity": 0.41732283464566927,
                    "duration": 0.21739100000002054
                },
                {
                    "name": "G4",
                    "midi": 67,
                    "time": 327.1734550000071,
                    "velocity": 0.5984251968503937,
                    "duration": 0.21739100000002054
                },
                {
                    "name": "G2",
                    "midi": 43,
                    "time": 327.3908460000071,
                    "velocity": 0.4881889763779528,
                    "duration": 0.21739100000002054
                },
                {
                    "name": "G1",
                    "midi": 31,
                    "time": 327.3908460000071,
                    "velocity": 0.4645669291338583,
                    "duration": 0.21739100000002054
                },
                {
                    "name": "A#3",
                    "midi": 58,
                    "time": 327.60823700000714,
                    "velocity": 0.3543307086614173,
                    "duration": 0.21739100000002054
                },
                {
                    "name": "A4",
                    "midi": 69,
                    "time": 327.60823700000714,
                    "velocity": 0.5118110236220472,
                    "duration": 0.21739100000002054
                },
                {
                    "name": "F4",
                    "midi": 65,
                    "time": 327.60823700000714,
                    "velocity": 0.47244094488188976,
                    "duration": 0.21739100000002054
                },
                {
                    "name": "F3",
                    "midi": 53,
                    "time": 327.60823700000714,
                    "velocity": 0.3937007874015748,
                    "duration": 0.21739100000002054
                },
                {
                    "name": "C#3",
                    "midi": 49,
                    "time": 327.60823700000714,
                    "velocity": 0.3937007874015748,
                    "duration": 0.21739100000002054
                },
                {
                    "name": "F4",
                    "midi": 65,
                    "time": 327.82562800000716,
                    "velocity": 0.4094488188976378,
                    "duration": 0.21739100000002054
                },
                {
                    "name": "F5",
                    "midi": 77,
                    "time": 327.82562800000716,
                    "velocity": 0.6299212598425197,
                    "duration": 0.21739100000002054
                },
                {
                    "name": "G#4",
                    "midi": 68,
                    "time": 327.82562800000716,
                    "velocity": 0.6299212598425197,
                    "duration": 0.21739100000002054
                },
                {
                    "name": "B3",
                    "midi": 59,
                    "time": 327.82562800000716,
                    "velocity": 0.3937007874015748,
                    "duration": 0.21739100000002054
                },
                {
                    "name": "F3",
                    "midi": 53,
                    "time": 327.82562800000716,
                    "velocity": 0.4409448818897638,
                    "duration": 0.21739100000002054
                },
                {
                    "name": "G2",
                    "midi": 43,
                    "time": 328.0430190000072,
                    "velocity": 0.4094488188976378,
                    "duration": 0.21739100000002054
                },
                {
                    "name": "G1",
                    "midi": 31,
                    "time": 328.0430190000072,
                    "velocity": 0.4645669291338583,
                    "duration": 0.21739100000002054
                },
                {
                    "name": "C#4",
                    "midi": 61,
                    "time": 328.2604100000072,
                    "velocity": 0.5039370078740157,
                    "duration": 0.2173909999999637
                },
                {
                    "name": "A#3",
                    "midi": 58,
                    "time": 328.2604100000072,
                    "velocity": 0.3937007874015748,
                    "duration": 0.2173909999999637
                },
                {
                    "name": "A4",
                    "midi": 69,
                    "time": 328.2604100000072,
                    "velocity": 0.31496062992125984,
                    "duration": 0.2173909999999637
                },
                {
                    "name": "C#5",
                    "midi": 73,
                    "time": 328.2604100000072,
                    "velocity": 0.4015748031496063,
                    "duration": 0.2173909999999637
                },
                {
                    "name": "A5",
                    "midi": 81,
                    "time": 328.2604100000072,
                    "velocity": 0.4409448818897638,
                    "duration": 0.2173909999999637
                },
                {
                    "name": "F5",
                    "midi": 77,
                    "time": 328.2604100000072,
                    "velocity": 0.5039370078740157,
                    "duration": 0.2173909999999637
                },
                {
                    "name": "F4",
                    "midi": 65,
                    "time": 328.47780100000716,
                    "velocity": 0.6299212598425197,
                    "duration": 0.21739100000002054
                },
                {
                    "name": "B3",
                    "midi": 59,
                    "time": 328.47780100000716,
                    "velocity": 0.3858267716535433,
                    "duration": 0.21739100000002054
                },
                {
                    "name": "F5",
                    "midi": 77,
                    "time": 328.47780100000716,
                    "velocity": 0.36220472440944884,
                    "duration": 0.21739100000002054
                },
                {
                    "name": "G#5",
                    "midi": 80,
                    "time": 328.47780100000716,
                    "velocity": 0.47244094488188976,
                    "duration": 0.21739100000002054
                },
                {
                    "name": "F6",
                    "midi": 89,
                    "time": 328.47780100000716,
                    "velocity": 0.6692913385826772,
                    "duration": 0.21739100000002054
                },
                {
                    "name": "G2",
                    "midi": 43,
                    "time": 328.6951920000072,
                    "velocity": 0.4645669291338583,
                    "duration": 0.21739100000002054
                },
                {
                    "name": "C#4",
                    "midi": 61,
                    "time": 328.9125830000072,
                    "velocity": 0.44881889763779526,
                    "duration": 0.21739100000002054
                },
                {
                    "name": "A#3",
                    "midi": 58,
                    "time": 328.9125830000072,
                    "velocity": 0.4409448818897638,
                    "duration": 0.21739100000002054
                },
                {
                    "name": "A5",
                    "midi": 81,
                    "time": 328.9125830000072,
                    "velocity": 0.4881889763779528,
                    "duration": 0.21739100000002054
                },
                {
                    "name": "A4",
                    "midi": 69,
                    "time": 328.9125830000072,
                    "velocity": 0.4409448818897638,
                    "duration": 0.21739100000002054
                },
                {
                    "name": "F5",
                    "midi": 77,
                    "time": 328.9125830000072,
                    "velocity": 0.4881889763779528,
                    "duration": 0.21739100000002054
                },
                {
                    "name": "C#5",
                    "midi": 73,
                    "time": 328.9125830000072,
                    "velocity": 0.47244094488188976,
                    "duration": 0.21739100000002054
                },
                {
                    "name": "B3",
                    "midi": 59,
                    "time": 329.1299740000072,
                    "velocity": 0.4330708661417323,
                    "duration": 0.21739100000002054
                },
                {
                    "name": "F4",
                    "midi": 65,
                    "time": 329.1299740000072,
                    "velocity": 0.5669291338582677,
                    "duration": 0.21739100000002054
                },
                {
                    "name": "F6",
                    "midi": 89,
                    "time": 329.1299740000072,
                    "velocity": 0.7007874015748031,
                    "duration": 0.21739100000002054
                },
                {
                    "name": "G#5",
                    "midi": 80,
                    "time": 329.1299740000072,
                    "velocity": 0.5039370078740157,
                    "duration": 0.21739100000002054
                },
                {
                    "name": "F5",
                    "midi": 77,
                    "time": 329.1299740000072,
                    "velocity": 0.47244094488188976,
                    "duration": 0.21739100000002054
                },
                {
                    "name": "G2",
                    "midi": 43,
                    "time": 329.34736500000724,
                    "velocity": 0.47244094488188976,
                    "duration": 0.2173909999999637
                },
                {
                    "name": "A#3",
                    "midi": 58,
                    "time": 329.5647560000072,
                    "velocity": 0.5039370078740157,
                    "duration": 0.21739100000002054
                },
                {
                    "name": "C#4",
                    "midi": 61,
                    "time": 329.5647560000072,
                    "velocity": 0.5984251968503937,
                    "duration": 0.21739100000002054
                },
                {
                    "name": "F5",
                    "midi": 77,
                    "time": 329.5647560000072,
                    "velocity": 0.5354330708661418,
                    "duration": 0.21739100000002054
                },
                {
                    "name": "A5",
                    "midi": 81,
                    "time": 329.5647560000072,
                    "velocity": 0.6692913385826772,
                    "duration": 0.21739100000002054
                },
                {
                    "name": "A4",
                    "midi": 69,
                    "time": 329.5647560000072,
                    "velocity": 0.5984251968503937,
                    "duration": 0.21739100000002054
                },
                {
                    "name": "C#5",
                    "midi": 73,
                    "time": 329.5647560000072,
                    "velocity": 0.5669291338582677,
                    "duration": 0.21739100000002054
                },
                {
                    "name": "B3",
                    "midi": 59,
                    "time": 329.7821470000072,
                    "velocity": 0.47244094488188976,
                    "duration": 0.21739100000002054
                },
                {
                    "name": "F4",
                    "midi": 65,
                    "time": 329.7821470000072,
                    "velocity": 0.5984251968503937,
                    "duration": 0.21739100000002054
                },
                {
                    "name": "F6",
                    "midi": 89,
                    "time": 329.7821470000072,
                    "velocity": 0.7716535433070866,
                    "duration": 0.21739100000002054
                },
                {
                    "name": "F5",
                    "midi": 77,
                    "time": 329.7821470000072,
                    "velocity": 0.4881889763779528,
                    "duration": 0.21739100000002054
                },
                {
                    "name": "G#5",
                    "midi": 80,
                    "time": 329.7821470000072,
                    "velocity": 0.5669291338582677,
                    "duration": 0.21739100000002054
                },
                {
                    "name": "G2",
                    "midi": 43,
                    "time": 329.99953800000725,
                    "velocity": 0.5669291338582677,
                    "duration": 0.21739100000002054
                },
                {
                    "name": "C#4",
                    "midi": 61,
                    "time": 330.21692900000727,
                    "velocity": 0.5669291338582677,
                    "duration": 0.21739100000002054
                },
                {
                    "name": "A#3",
                    "midi": 58,
                    "time": 330.21692900000727,
                    "velocity": 0.5669291338582677,
                    "duration": 0.21739100000002054
                },
                {
                    "name": "F5",
                    "midi": 77,
                    "time": 330.21692900000727,
                    "velocity": 0.5354330708661418,
                    "duration": 0.21739100000002054
                },
                {
                    "name": "A4",
                    "midi": 69,
                    "time": 330.21692900000727,
                    "velocity": 0.44881889763779526,
                    "duration": 0.21739100000002054
                },
                {
                    "name": "A5",
                    "midi": 81,
                    "time": 330.21692900000727,
                    "velocity": 0.7007874015748031,
                    "duration": 0.21739100000002054
                },
                {
                    "name": "C#5",
                    "midi": 73,
                    "time": 330.21692900000727,
                    "velocity": 0.5354330708661418,
                    "duration": 0.21739100000002054
                },
                {
                    "name": "B3",
                    "midi": 59,
                    "time": 330.4343200000073,
                    "velocity": 0.47244094488188976,
                    "duration": 0.21739100000002054
                },
                {
                    "name": "F4",
                    "midi": 65,
                    "time": 330.4343200000073,
                    "velocity": 0.5984251968503937,
                    "duration": 0.21739100000002054
                },
                {
                    "name": "G#5",
                    "midi": 80,
                    "time": 330.4343200000073,
                    "velocity": 0.5039370078740157,
                    "duration": 0.21739100000002054
                },
                {
                    "name": "F5",
                    "midi": 77,
                    "time": 330.4343200000073,
                    "velocity": 0.6299212598425197,
                    "duration": 0.21739100000002054
                },
                {
                    "name": "F6",
                    "midi": 89,
                    "time": 330.4343200000073,
                    "velocity": 0.7716535433070866,
                    "duration": 0.21739100000002054
                },
                {
                    "name": "B2",
                    "midi": 47,
                    "time": 330.6517110000073,
                    "velocity": 0.2755905511811024,
                    "duration": 0.07246366666663562
                },
                {
                    "name": "G1",
                    "midi": 31,
                    "time": 330.6517110000073,
                    "velocity": 0.2755905511811024,
                    "duration": 0.05434774999997671
                },
                {
                    "name": "C#2",
                    "midi": 37,
                    "time": 330.6517110000073,
                    "velocity": 0.2992125984251969,
                    "duration": 0.05434774999997671
                },
                {
                    "name": "G2",
                    "midi": 43,
                    "time": 330.7060587500073,
                    "velocity": 0.3700787401574803,
                    "duration": 0.05434774999997671
                },
                {
                    "name": "C#3",
                    "midi": 49,
                    "time": 330.72417466667395,
                    "velocity": 0.3937007874015748,
                    "duration": 0.07246366666663562
                },
                {
                    "name": "C#2",
                    "midi": 37,
                    "time": 330.76040650000726,
                    "velocity": 0.31496062992125984,
                    "duration": 0.05434774999997671
                },
                {
                    "name": "G1",
                    "midi": 31,
                    "time": 330.76040650000726,
                    "velocity": 0.3543307086614173,
                    "duration": 0.05434774999997671
                },
                {
                    "name": "F3",
                    "midi": 53,
                    "time": 330.7966383333406,
                    "velocity": 0.4330708661417323,
                    "duration": 0.07246366666663562
                },
                {
                    "name": "G2",
                    "midi": 43,
                    "time": 330.81475425000724,
                    "velocity": 0.4330708661417323,
                    "duration": 0.05434774999997671
                },
                {
                    "name": "B3",
                    "midi": 59,
                    "time": 330.8691020000072,
                    "velocity": 0.5669291338582677,
                    "duration": 0.07246366666663562
                },
                {
                    "name": "C#2",
                    "midi": 37,
                    "time": 330.8691020000072,
                    "velocity": 0.33070866141732286,
                    "duration": 0.05434774999997671
                },
                {
                    "name": "G1",
                    "midi": 31,
                    "time": 330.8691020000072,
                    "velocity": 0.4330708661417323,
                    "duration": 0.05434774999997671
                },
                {
                    "name": "G2",
                    "midi": 43,
                    "time": 330.9234497500072,
                    "velocity": 0.5039370078740157,
                    "duration": 0.05434774999997671
                },
                {
                    "name": "C#4",
                    "midi": 61,
                    "time": 330.94156566667385,
                    "velocity": 0.6299212598425197,
                    "duration": 0.07246366666663562
                },
                {
                    "name": "G1",
                    "midi": 31,
                    "time": 330.97779750000717,
                    "velocity": 0.4881889763779528,
                    "duration": 0.05434774999997671
                },
                {
                    "name": "C#2",
                    "midi": 37,
                    "time": 330.97779750000717,
                    "velocity": 0.5354330708661418,
                    "duration": 0.05434774999997671
                },
                {
                    "name": "F4",
                    "midi": 65,
                    "time": 331.0140293333405,
                    "velocity": 0.5984251968503937,
                    "duration": 0.07246366666663562
                },
                {
                    "name": "G2",
                    "midi": 43,
                    "time": 331.03214525000715,
                    "velocity": 0.5669291338582677,
                    "duration": 0.05434774999997671
                },
                {
                    "name": "B4",
                    "midi": 71,
                    "time": 331.0864930000071,
                    "velocity": 0.7007874015748031,
                    "duration": 0.07246366666663562
                },
                {
                    "name": "G1",
                    "midi": 31,
                    "time": 331.0864930000071,
                    "velocity": 0.5354330708661418,
                    "duration": 0.05434774999997671
                },
                {
                    "name": "C#2",
                    "midi": 37,
                    "time": 331.0864930000071,
                    "velocity": 0.5669291338582677,
                    "duration": 0.05434774999997671
                },
                {
                    "name": "G2",
                    "midi": 43,
                    "time": 331.1408407500071,
                    "velocity": 0.5669291338582677,
                    "duration": 0.05434774999997671
                },
                {
                    "name": "C#5",
                    "midi": 73,
                    "time": 331.15895666667376,
                    "velocity": 0.6299212598425197,
                    "duration": 0.07246366666663562
                },
                {
                    "name": "C#2",
                    "midi": 37,
                    "time": 331.1951885000071,
                    "velocity": 0.5669291338582677,
                    "duration": 0.05434774999997671
                },
                {
                    "name": "G1",
                    "midi": 31,
                    "time": 331.1951885000071,
                    "velocity": 0.5669291338582677,
                    "duration": 0.05434774999997671
                },
                {
                    "name": "F5",
                    "midi": 77,
                    "time": 331.2314203333404,
                    "velocity": 0.6692913385826772,
                    "duration": 0.07246366666663562
                },
                {
                    "name": "G2",
                    "midi": 43,
                    "time": 331.24953625000705,
                    "velocity": 0.5984251968503937,
                    "duration": 0.05434774999997671
                },
                {
                    "name": "D6",
                    "midi": 86,
                    "time": 331.30388400000703,
                    "velocity": 0.8031496062992126,
                    "duration": 0.11322447916666079
                },
                {
                    "name": "F#5",
                    "midi": 78,
                    "time": 331.30388400000703,
                    "velocity": 0.7322834645669292,
                    "duration": 0.13949255833335883
                },
                {
                    "name": "D5",
                    "midi": 74,
                    "time": 331.30388400000703,
                    "velocity": 0.7322834645669292,
                    "duration": 0.11956505000000561
                },
                {
                    "name": "A2",
                    "midi": 45,
                    "time": 331.3165651416737,
                    "velocity": 0.5984251968503937,
                    "duration": 0.12681141666666917
                },
                {
                    "name": "D2",
                    "midi": 38,
                    "time": 331.32109412084037,
                    "velocity": 0.7007874015748031,
                    "duration": 0.12409402916671297
                },
                {
                    "name": "A4",
                    "midi": 69,
                    "time": 331.5303329583404,
                    "velocity": 0.7007874015748031,
                    "duration": 0.11413027500003636
                },
                {
                    "name": "D4",
                    "midi": 62,
                    "time": 331.5321445500071,
                    "velocity": 0.6692913385826772,
                    "duration": 0.11684766249999257
                },
                {
                    "name": "F#4",
                    "midi": 66,
                    "time": 331.5321445500071,
                    "velocity": 0.5984251968503937,
                    "duration": 0.1231882333333374
                },
                {
                    "name": "D6",
                    "midi": 86,
                    "time": 331.74047759167377,
                    "velocity": 0.7716535433070866,
                    "duration": 0.10054333750002797
                },
                {
                    "name": "F#5",
                    "midi": 78,
                    "time": 331.74228918334046,
                    "velocity": 0.7322834645669292,
                    "duration": 0.11322447916666079
                },
                {
                    "name": "D5",
                    "midi": 74,
                    "time": 331.7431949791738,
                    "velocity": 0.7007874015748031,
                    "duration": 0.10597811249999722
                },
                {
                    "name": "A4",
                    "midi": 69,
                    "time": 331.9361294916738,
                    "velocity": 0.6299212598425197,
                    "duration": 0.1494563124999786
                },
                {
                    "name": "F#4",
                    "midi": 66,
                    "time": 331.9388468791738,
                    "velocity": 0.5984251968503937,
                    "duration": 0.14764472083328428
                },
                {
                    "name": "D4",
                    "midi": 62,
                    "time": 331.9388468791738,
                    "velocity": 0.6299212598425197,
                    "duration": 0.1458331291666468
                },
                {
                    "name": "D5",
                    "midi": 74,
                    "time": 332.15170890000707,
                    "velocity": 0.7322834645669292,
                    "duration": 0.0833332166666878
                },
                {
                    "name": "D6",
                    "midi": 86,
                    "time": 332.15170890000707,
                    "velocity": 0.8031496062992126,
                    "duration": 0.08514480833338212
                },
                {
                    "name": "F#5",
                    "midi": 78,
                    "time": 332.15170890000707,
                    "velocity": 0.7716535433070866,
                    "duration": 0.11141288750002332
                },
                {
                    "name": "F#6",
                    "midi": 90,
                    "time": 332.3663825125071,
                    "velocity": 0.7716535433070866,
                    "duration": 0.06974627916667941
                },
                {
                    "name": "A#5",
                    "midi": 82,
                    "time": 332.3663825125071,
                    "velocity": 0.7322834645669292,
                    "duration": 0.07246366666669246
                },
                {
                    "name": "F#5",
                    "midi": 78,
                    "time": 332.3663825125071,
                    "velocity": 0.8031496062992126,
                    "duration": 0.07065207499999815
                },
                {
                    "name": "A#4",
                    "midi": 70,
                    "time": 332.3863100208404,
                    "velocity": 0.5984251968503937,
                    "duration": 0.1177534583333113
                },
                {
                    "name": "F#4",
                    "midi": 66,
                    "time": 332.38721581667374,
                    "velocity": 0.5984251968503937,
                    "duration": 0.12047084583332435
                },
                {
                    "name": "F#5",
                    "midi": 78,
                    "time": 332.5837735125071,
                    "velocity": 0.7716535433070866,
                    "duration": 0.11684766249993572
                },
                {
                    "name": "D6",
                    "midi": 86,
                    "time": 332.5837735125071,
                    "velocity": 0.84251968503937,
                    "duration": 0.09057958333329452
                },
                {
                    "name": "D5",
                    "midi": 74,
                    "time": 332.5837735125071,
                    "velocity": 0.7322834645669292,
                    "duration": 0.08967378749997579
                },
                {
                    "name": "D3",
                    "midi": 50,
                    "time": 332.8084108791737,
                    "velocity": 0.5984251968503937,
                    "duration": 0.08333321666663096
                },
                {
                    "name": "A3",
                    "midi": 57,
                    "time": 332.8763455666737,
                    "velocity": 0.7007874015748031,
                    "duration": 0.09692015416663935
                },
                {
                    "name": "D4",
                    "midi": 62,
                    "time": 332.94065707084036,
                    "velocity": 0.7007874015748031,
                    "duration": 0.09420276666668315
                },
                {
                    "name": "F#4",
                    "midi": 66,
                    "time": 333.02127290000703,
                    "velocity": 0.6299212598425197,
                    "duration": 0.10597811250011091
                },
                {
                    "name": "A4",
                    "midi": 69,
                    "time": 333.02217869584035,
                    "velocity": 0.7007874015748031,
                    "duration": 0.09782595000012861
                },
                {
                    "name": "D6",
                    "midi": 86,
                    "time": 333.02217869584035,
                    "velocity": 0.8031496062992126,
                    "duration": 0.06793468750004195
                },
                {
                    "name": "F#5",
                    "midi": 78,
                    "time": 333.02308449167367,
                    "velocity": 0.7322834645669292,
                    "duration": 0.09510856250011557
                },
                {
                    "name": "D5",
                    "midi": 74,
                    "time": 333.02489608334037,
                    "velocity": 0.7007874015748031,
                    "duration": 0.07427525833338677
                },
                {
                    "name": "G#5",
                    "midi": 80,
                    "time": 333.26040300000716,
                    "velocity": 0.6692913385826772,
                    "duration": 0.10869550000006711
                },
                {
                    "name": "A5",
                    "midi": 81,
                    "time": 333.26040300000716,
                    "velocity": 0.7716535433070866,
                    "duration": 0.10869550000006711
                },
                {
                    "name": "G#4",
                    "midi": 68,
                    "time": 333.2649319791738,
                    "velocity": 0.7007874015748031,
                    "duration": 0.05434775000003356
                },
                {
                    "name": "A3",
                    "midi": 57,
                    "time": 333.2649319791738,
                    "velocity": 0.5984251968503937,
                    "duration": 0.06702889166672321
                },
                {
                    "name": "F4",
                    "midi": 65,
                    "time": 333.2667435708405,
                    "velocity": 0.84251968503937,
                    "duration": 0.05887672916668407
                },
                {
                    "name": "A4",
                    "midi": 69,
                    "time": 333.3690985000072,
                    "velocity": 0.7007874015748031,
                    "duration": 0.10869550000001027
                },
                {
                    "name": "G5",
                    "midi": 79,
                    "time": 333.47779400000724,
                    "velocity": 0.7007874015748031,
                    "duration": 0.10869550000006711
                },
                {
                    "name": "C6",
                    "midi": 84,
                    "time": 333.47779400000724,
                    "velocity": 0.8031496062992126,
                    "duration": 0.10869550000006711
                },
                {
                    "name": "C4",
                    "midi": 60,
                    "time": 333.4868519583406,
                    "velocity": 0.5984251968503937,
                    "duration": 0.09692015416669619
                },
                {
                    "name": "G4",
                    "midi": 67,
                    "time": 333.4868519583406,
                    "velocity": 0.7716535433070866,
                    "duration": 0.08786219583333832
                },
                {
                    "name": "E4",
                    "midi": 64,
                    "time": 333.4877577541739,
                    "velocity": 0.6692913385826772,
                    "duration": 0.0833332166666878
                },
                {
                    "name": "C5",
                    "midi": 72,
                    "time": 333.5864895000073,
                    "velocity": 0.7007874015748031,
                    "duration": 0.10869550000001027
                },
                {
                    "name": "D#5",
                    "midi": 75,
                    "time": 333.6951850000073,
                    "velocity": 0.6692913385826772,
                    "duration": 0.10869550000001027
                },
                {
                    "name": "C#5",
                    "midi": 73,
                    "time": 333.6951850000073,
                    "velocity": 0.5669291338582677,
                    "duration": 0.10869550000001027
                },
                {
                    "name": "G5",
                    "midi": 79,
                    "time": 333.6951850000073,
                    "velocity": 0.7007874015748031,
                    "duration": 0.10869550000001027
                },
                {
                    "name": "D#4",
                    "midi": 63,
                    "time": 333.71239512084065,
                    "velocity": 0.6692913385826772,
                    "duration": 0.08786219583333832
                },
                {
                    "name": "C#4",
                    "midi": 61,
                    "time": 333.713300916674,
                    "velocity": 0.5984251968503937,
                    "duration": 0.08695640000001958
                },
                {
                    "name": "G3",
                    "midi": 55,
                    "time": 333.7142067125073,
                    "velocity": 0.6299212598425197,
                    "duration": 0.08061582916667476
                },
                {
                    "name": "G4",
                    "midi": 67,
                    "time": 333.8038805000073,
                    "velocity": 0.7007874015748031,
                    "duration": 0.10869550000001027
                },
                {
                    "name": "A4",
                    "midi": 69,
                    "time": 333.91438759167403,
                    "velocity": 0.6299212598425197,
                    "duration": 0.1177534583333113
                },
                {
                    "name": "F#4",
                    "midi": 66,
                    "time": 333.91438759167403,
                    "velocity": 0.7007874015748031,
                    "duration": 0.11231868333328521
                },
                {
                    "name": "D4",
                    "midi": 62,
                    "time": 333.91438759167403,
                    "velocity": 0.7322834645669292,
                    "duration": 0.1177534583333113
                },
                {
                    "name": "D6",
                    "midi": 86,
                    "time": 333.93159771250737,
                    "velocity": 0.7716535433070866,
                    "duration": 0.10597811249999722
                },
                {
                    "name": "F#5",
                    "midi": 78,
                    "time": 333.9325035083407,
                    "velocity": 0.7007874015748031,
                    "duration": 0.22644895833343526
                },
                {
                    "name": "D5",
                    "midi": 74,
                    "time": 333.933409304174,
                    "velocity": 0.6692913385826772,
                    "duration": 0.10778970416669154
                },
                {
                    "name": "D3",
                    "midi": 50,
                    "time": 334.1263438166741,
                    "velocity": 0.4881889763779528,
                    "duration": 0.10597811250005407
                },
                {
                    "name": "D5",
                    "midi": 74,
                    "time": 334.14627132500743,
                    "velocity": 0.7322834645669292,
                    "duration": 0.1249998250000317
                },
                {
                    "name": "F#5",
                    "midi": 78,
                    "time": 334.2024306666741,
                    "velocity": 0.7007874015748031,
                    "duration": 0.09692015416669619
                },
                {
                    "name": "A3",
                    "midi": 57,
                    "time": 334.2051480541741,
                    "velocity": 0.6299212598425197,
                    "duration": 0.09782595000001493
                },
                {
                    "name": "A5",
                    "midi": 81,
                    "time": 334.25949580417415,
                    "velocity": 0.6299212598425197,
                    "duration": 0.07155787083331688
                },
                {
                    "name": "D4",
                    "midi": 62,
                    "time": 334.2640247833408,
                    "velocity": 0.5984251968503937,
                    "duration": 0.09782595000001493
                },
                {
                    "name": "D6",
                    "midi": 86,
                    "time": 334.3355826541741,
                    "velocity": 0.8031496062992126,
                    "duration": 0.07789844166666171
                },
                {
                    "name": "F#5",
                    "midi": 78,
                    "time": 334.33648845000744,
                    "velocity": 0.6299212598425197,
                    "duration": 0.12047084583338119
                },
                {
                    "name": "D5",
                    "midi": 74,
                    "time": 334.33830004167413,
                    "velocity": 0.6692913385826772,
                    "duration": 0.0833332166666878
                },
                {
                    "name": "A4",
                    "midi": 69,
                    "time": 334.3482637958408,
                    "velocity": 0.7007874015748031,
                    "duration": 0.05163036249996367
                },
                {
                    "name": "F#4",
                    "midi": 66,
                    "time": 334.3491695916741,
                    "velocity": 0.6692913385826772,
                    "duration": 0.06612309583334763
                },
                {
                    "name": "A5",
                    "midi": 81,
                    "time": 334.56474900000745,
                    "velocity": 0.7007874015748031,
                    "duration": 0.10869550000001027
                },
                {
                    "name": "G#5",
                    "midi": 80,
                    "time": 334.56474900000745,
                    "velocity": 0.7007874015748031,
                    "duration": 0.10869550000001027
                },
                {
                    "name": "G#4",
                    "midi": 68,
                    "time": 334.5710895708408,
                    "velocity": 0.7007874015748031,
                    "duration": 0.05706513749998976
                },
                {
                    "name": "F4",
                    "midi": 65,
                    "time": 334.5710895708408,
                    "velocity": 0.7716535433070866,
                    "duration": 0.07699264583334298
                },
                {
                    "name": "A3",
                    "midi": 57,
                    "time": 334.5738069583408,
                    "velocity": 0.6299212598425197,
                    "duration": 0.061594116666640275
                },
                {
                    "name": "A4",
                    "midi": 69,
                    "time": 334.67344450000746,
                    "velocity": 0.7007874015748031,
                    "duration": 0.10869550000001027
                },
                {
                    "name": "C6",
                    "midi": 84,
                    "time": 334.7821400000075,
                    "velocity": 0.7716535433070866,
                    "duration": 0.10869549999995343
                },
                {
                    "name": "G5",
                    "midi": 79,
                    "time": 334.7821400000075,
                    "velocity": 0.7007874015748031,
                    "duration": 0.10869549999995343
                },
                {
                    "name": "E4",
                    "midi": 64,
                    "time": 334.79300955000747,
                    "velocity": 0.7007874015748031,
                    "duration": 0.06521729999997206
                },
                {
                    "name": "G4",
                    "midi": 67,
                    "time": 334.79300955000747,
                    "velocity": 0.7322834645669292,
                    "duration": 0.06521729999997206
                },
                {
                    "name": "C4",
                    "midi": 60,
                    "time": 334.79300955000747,
                    "velocity": 0.7322834645669292,
                    "duration": 0.0679346874999851
                },
                {
                    "name": "C5",
                    "midi": 72,
                    "time": 334.8908355000074,
                    "velocity": 0.7322834645669292,
                    "duration": 0.10869550000001027
                },
                {
                    "name": "D#5",
                    "midi": 75,
                    "time": 334.99953100000744,
                    "velocity": 0.5669291338582677,
                    "duration": 0.10869550000001027
                },
                {
                    "name": "G5",
                    "midi": 79,
                    "time": 334.99953100000744,
                    "velocity": 0.7007874015748031,
                    "duration": 0.10869550000001027
                },
                {
                    "name": "C#5",
                    "midi": 73,
                    "time": 334.99953100000744,
                    "velocity": 0.7322834645669292,
                    "duration": 0.10869550000001027
                },
                {
                    "name": "C#4",
                    "midi": 61,
                    "time": 335.0149295291741,
                    "velocity": 0.5984251968503937,
                    "duration": 0.07971003333335602
                },
                {
                    "name": "D#4",
                    "midi": 63,
                    "time": 335.0149295291741,
                    "velocity": 0.6299212598425197,
                    "duration": 0.07880423750003729
                },
                {
                    "name": "G3",
                    "midi": 55,
                    "time": 335.0212701000074,
                    "velocity": 0.47244094488188976,
                    "duration": 0.08695640000001958
                },
                {
                    "name": "G4",
                    "midi": 67,
                    "time": 335.10822650000745,
                    "velocity": 0.7007874015748031,
                    "duration": 0.10869550000001027
                },
                {
                    "name": "F#5",
                    "midi": 78,
                    "time": 335.21692200000746,
                    "velocity": 0.6299212598425197,
                    "duration": 0.10869549999995343
                },
                {
                    "name": "D6",
                    "midi": 86,
                    "time": 335.21692200000746,
                    "velocity": 0.84251968503937,
                    "duration": 0.10869549999995343
                },
                {
                    "name": "A4",
                    "midi": 69,
                    "time": 335.2214509791741,
                    "velocity": 0.7007874015748031,
                    "duration": 0.05615934166661418
                },
                {
                    "name": "F#4",
                    "midi": 66,
                    "time": 335.2223567750074,
                    "velocity": 0.5984251968503937,
                    "duration": 0.08061582916661791
                },
                {
                    "name": "D4",
                    "midi": 62,
                    "time": 335.22326257084075,
                    "velocity": 0.7007874015748031,
                    "duration": 0.08967378749997579
                },
                {
                    "name": "D5",
                    "midi": 74,
                    "time": 335.3256175000074,
                    "velocity": 0.7716535433070866,
                    "duration": 0.10869550000001027
                },
                {
                    "name": "G#5",
                    "midi": 80,
                    "time": 335.4343130000074,
                    "velocity": 0.6692913385826772,
                    "duration": 0.10869550000001027
                },
                {
                    "name": "A5",
                    "midi": 81,
                    "time": 335.4343130000074,
                    "velocity": 0.8031496062992126,
                    "duration": 0.10869550000001027
                },
                {
                    "name": "G#4",
                    "midi": 68,
                    "time": 335.4442767541741,
                    "velocity": 0.6299212598425197,
                    "duration": 0.07699264583334298
                },
                {
                    "name": "F4",
                    "midi": 65,
                    "time": 335.4442767541741,
                    "velocity": 0.7716535433070866,
                    "duration": 0.07880423750003729
                },
                {
                    "name": "A3",
                    "midi": 57,
                    "time": 335.4469941416741,
                    "velocity": 0.6692913385826772,
                    "duration": 0.07699264583334298
                },
                {
                    "name": "A4",
                    "midi": 69,
                    "time": 335.54300850000743,
                    "velocity": 0.7322834645669292,
                    "duration": 0.10869550000001027
                },
                {
                    "name": "G4",
                    "midi": 67,
                    "time": 335.6471750208408,
                    "velocity": 0.7007874015748031,
                    "duration": 0.08786219583333832
                },
                {
                    "name": "E4",
                    "midi": 64,
                    "time": 335.6471750208408,
                    "velocity": 0.6692913385826772,
                    "duration": 0.08242742083331223
                },
                {
                    "name": "C4",
                    "midi": 60,
                    "time": 335.6471750208408,
                    "velocity": 0.6299212598425197,
                    "duration": 0.09239117499998883
                },
                {
                    "name": "G5",
                    "midi": 79,
                    "time": 335.65170400000744,
                    "velocity": 0.7322834645669292,
                    "duration": 0.10869550000001027
                },
                {
                    "name": "C6",
                    "midi": 84,
                    "time": 335.65170400000744,
                    "velocity": 0.8031496062992126,
                    "duration": 0.10869550000001027
                },
                {
                    "name": "C5",
                    "midi": 72,
                    "time": 335.76039950000745,
                    "velocity": 0.7322834645669292,
                    "duration": 0.10869550000001027
                },
                {
                    "name": "D#4",
                    "midi": 63,
                    "time": 335.86818920417414,
                    "velocity": 0.7007874015748031,
                    "duration": 0.07518105416664866
                },
                {
                    "name": "C#4",
                    "midi": 61,
                    "time": 335.86818920417414,
                    "velocity": 0.7007874015748031,
                    "duration": 0.07427525833332993
                },
                {
                    "name": "D#5",
                    "midi": 75,
                    "time": 335.86909500000746,
                    "velocity": 0.7007874015748031,
                    "duration": 0.10869549999995343
                },
                {
                    "name": "C#5",
                    "midi": 73,
                    "time": 335.86909500000746,
                    "velocity": 0.7007874015748031,
                    "duration": 0.10869549999995343
                },
                {
                    "name": "G5",
                    "midi": 79,
                    "time": 335.86909500000746,
                    "velocity": 0.7716535433070866,
                    "duration": 0.10869549999995343
                },
                {
                    "name": "G3",
                    "midi": 55,
                    "time": 335.8745297750075,
                    "velocity": 0.5984251968503937,
                    "duration": 0.0842390124999497
                },
                {
                    "name": "G4",
                    "midi": 67,
                    "time": 335.9777905000074,
                    "velocity": 0.7007874015748031,
                    "duration": 0.10869550000001027
                },
                {
                    "name": "F#5",
                    "midi": 78,
                    "time": 336.0864860000074,
                    "velocity": 0.7007874015748031,
                    "duration": 0.10869549999995343
                },
                {
                    "name": "D6",
                    "midi": 86,
                    "time": 336.0864860000074,
                    "velocity": 0.8031496062992126,
                    "duration": 0.10869549999995343
                },
                {
                    "name": "F#4",
                    "midi": 66,
                    "time": 336.0937323666741,
                    "velocity": 0.6692913385826772,
                    "duration": 0.06249991249995901
                },
                {
                    "name": "A4",
                    "midi": 69,
                    "time": 336.0946381625074,
                    "velocity": 0.7007874015748031,
                    "duration": 0.05072456666664493
                },
                {
                    "name": "D4",
                    "midi": 62,
                    "time": 336.0955439583407,
                    "velocity": 0.7007874015748031,
                    "duration": 0.06340570833333459
                },
                {
                    "name": "D5",
                    "midi": 74,
                    "time": 336.1951815000074,
                    "velocity": 0.7716535433070866,
                    "duration": 0.10869550000001027
                },
                {
                    "name": "G#5",
                    "midi": 80,
                    "time": 336.3038770000074,
                    "velocity": 0.7007874015748031,
                    "duration": 0.10869550000006711
                },
                {
                    "name": "A5",
                    "midi": 81,
                    "time": 336.3038770000074,
                    "velocity": 0.7716535433070866,
                    "duration": 0.10869550000006711
                },
                {
                    "name": "G#4",
                    "midi": 68,
                    "time": 336.3093117750074,
                    "velocity": 0.7007874015748031,
                    "duration": 0.042572404166662636
                },
                {
                    "name": "F4",
                    "midi": 65,
                    "time": 336.3093117750074,
                    "velocity": 0.8031496062992126,
                    "duration": 0.05163036250002051
                },
                {
                    "name": "A3",
                    "midi": 57,
                    "time": 336.31021757084073,
                    "velocity": 0.7322834645669292,
                    "duration": 0.03623183333331781
                },
                {
                    "name": "A4",
                    "midi": 69,
                    "time": 336.41257250000746,
                    "velocity": 0.7007874015748031,
                    "duration": 0.10869550000001027
                },
                {
                    "name": "G5",
                    "midi": 79,
                    "time": 336.52126800000747,
                    "velocity": 0.7322834645669292,
                    "duration": 0.10869550000001027
                },
                {
                    "name": "C6",
                    "midi": 84,
                    "time": 336.52126800000747,
                    "velocity": 0.84251968503937,
                    "duration": 0.10869550000001027
                },
                {
                    "name": "E4",
                    "midi": 64,
                    "time": 336.52126800000747,
                    "velocity": 0.7322834645669292,
                    "duration": 0.10688390833331596
                },
                {
                    "name": "C4",
                    "midi": 60,
                    "time": 336.52126800000747,
                    "velocity": 0.6692913385826772,
                    "duration": 0.13586937500002705
                },
                {
                    "name": "G4",
                    "midi": 67,
                    "time": 336.52126800000747,
                    "velocity": 0.7007874015748031,
                    "duration": 0.13768096666672136
                },
                {
                    "name": "C5",
                    "midi": 72,
                    "time": 336.6299635000075,
                    "velocity": 0.7322834645669292,
                    "duration": 0.10869550000006711
                },
                {
                    "name": "D#4",
                    "midi": 63,
                    "time": 336.73594161250753,
                    "velocity": 0.6692913385826772,
                    "duration": 0.08786219583333832
                },
                {
                    "name": "C#4",
                    "midi": 61,
                    "time": 336.73684740834085,
                    "velocity": 0.6692913385826772,
                    "duration": 0.1068839083333728
                },
                {
                    "name": "D#5",
                    "midi": 75,
                    "time": 336.73865900000754,
                    "velocity": 0.6299212598425197,
                    "duration": 0.10869550000001027
                },
                {
                    "name": "C#5",
                    "midi": 73,
                    "time": 336.73865900000754,
                    "velocity": 0.7007874015748031,
                    "duration": 0.10869550000001027
                },
                {
                    "name": "G5",
                    "midi": 79,
                    "time": 336.73865900000754,
                    "velocity": 0.7716535433070866,
                    "duration": 0.10869550000001027
                },
                {
                    "name": "G3",
                    "midi": 55,
                    "time": 336.73956479584086,
                    "velocity": 0.5669291338582677,
                    "duration": 0.11684766250004941
                },
                {
                    "name": "G4",
                    "midi": 67,
                    "time": 336.84735450000755,
                    "velocity": 0.7007874015748031,
                    "duration": 0.10869550000001027
                },
                {
                    "name": "A4",
                    "midi": 69,
                    "time": 336.95333261250755,
                    "velocity": 0.7716535433070866,
                    "duration": 0.07789844166671855
                },
                {
                    "name": "F#4",
                    "midi": 66,
                    "time": 336.95333261250755,
                    "velocity": 0.7716535433070866,
                    "duration": 0.07971003333341287
                },
                {
                    "name": "D4",
                    "midi": 62,
                    "time": 336.95333261250755,
                    "velocity": 0.7007874015748031,
                    "duration": 0.09782595000007177
                },
                {
                    "name": "F#5",
                    "midi": 78,
                    "time": 336.95605000000756,
                    "velocity": 0.7322834645669292,
                    "duration": 0.10869550000006711
                },
                {
                    "name": "D6",
                    "midi": 86,
                    "time": 336.95605000000756,
                    "velocity": 0.7716535433070866,
                    "duration": 0.10869550000006711
                },
                {
                    "name": "D5",
                    "midi": 74,
                    "time": 337.06474550000763,
                    "velocity": 0.7322834645669292,
                    "duration": 0.10869550000001027
                },
                {
                    "name": "F4",
                    "midi": 65,
                    "time": 337.1671004291743,
                    "velocity": 0.7322834645669292,
                    "duration": 0.08242742083336907
                },
                {
                    "name": "G#4",
                    "midi": 68,
                    "time": 337.1671004291743,
                    "velocity": 0.6692913385826772,
                    "duration": 0.08967378750003263
                },
                {
                    "name": "A3",
                    "midi": 57,
                    "time": 337.168912020841,
                    "velocity": 0.7322834645669292,
                    "duration": 0.08967378750003263
                },
                {
                    "name": "G#5",
                    "midi": 80,
                    "time": 337.17344100000764,
                    "velocity": 0.7716535433070866,
                    "duration": 0.10869550000006711
                },
                {
                    "name": "A5",
                    "midi": 81,
                    "time": 337.17344100000764,
                    "velocity": 0.7322834645669292,
                    "duration": 0.10869550000006711
                },
                {
                    "name": "A4",
                    "midi": 69,
                    "time": 337.2821365000077,
                    "velocity": 0.7322834645669292,
                    "duration": 0.10869550000001027
                },
                {
                    "name": "G4",
                    "midi": 67,
                    "time": 337.38630302084107,
                    "velocity": 0.7716535433070866,
                    "duration": 0.11413027499997952
                },
                {
                    "name": "E4",
                    "midi": 64,
                    "time": 337.38630302084107,
                    "velocity": 0.7007874015748031,
                    "duration": 0.109601295833329
                },
                {
                    "name": "C4",
                    "midi": 60,
                    "time": 337.38630302084107,
                    "velocity": 0.7322834645669292,
                    "duration": 0.1494563124999786
                },
                {
                    "name": "G5",
                    "midi": 79,
                    "time": 337.3908320000077,
                    "velocity": 0.7322834645669292,
                    "duration": 0.10869550000001027
                },
                {
                    "name": "C6",
                    "midi": 84,
                    "time": 337.3908320000077,
                    "velocity": 0.7716535433070866,
                    "duration": 0.10869550000001027
                },
                {
                    "name": "C5",
                    "midi": 72,
                    "time": 337.49952750000773,
                    "velocity": 0.7322834645669292,
                    "duration": 0.10869550000001027
                },
                {
                    "name": "D#4",
                    "midi": 63,
                    "time": 337.6045998166744,
                    "velocity": 0.5669291338582677,
                    "duration": 0.0914853791666701
                },
                {
                    "name": "C#4",
                    "midi": 61,
                    "time": 337.6073172041744,
                    "velocity": 0.6299212598425197,
                    "duration": 0.08876799166665705
                },
                {
                    "name": "D#5",
                    "midi": 75,
                    "time": 337.60822300000774,
                    "velocity": 0.7007874015748031,
                    "duration": 0.10869550000001027
                },
                {
                    "name": "C#5",
                    "midi": 73,
                    "time": 337.60822300000774,
                    "velocity": 0.6692913385826772,
                    "duration": 0.10869550000001027
                },
                {
                    "name": "G5",
                    "midi": 79,
                    "time": 337.60822300000774,
                    "velocity": 0.7322834645669292,
                    "duration": 0.10869550000001027
                },
                {
                    "name": "G3",
                    "midi": 55,
                    "time": 337.61003459167443,
                    "velocity": 0.6692913385826772,
                    "duration": 0.12952880416662538
                },
                {
                    "name": "G4",
                    "midi": 67,
                    "time": 337.71691850000775,
                    "velocity": 0.7322834645669292,
                    "duration": 0.10869549999995343
                },
                {
                    "name": "F#5",
                    "midi": 78,
                    "time": 337.8256140000077,
                    "velocity": 0.7716535433070866,
                    "duration": 0.21739100000007738
                },
                {
                    "name": "D6",
                    "midi": 86,
                    "time": 337.8256140000077,
                    "velocity": 0.84251968503937,
                    "duration": 0.21739100000007738
                },
                {
                    "name": "D5",
                    "midi": 74,
                    "time": 337.8256140000077,
                    "velocity": 0.84251968503937,
                    "duration": 0.21739100000007738
                },
                {
                    "name": "F#4",
                    "midi": 66,
                    "time": 337.8382951416744,
                    "velocity": 0.5984251968503937,
                    "duration": 0.10778970416669154
                },
                {
                    "name": "A4",
                    "midi": 69,
                    "time": 337.8382951416744,
                    "velocity": 0.7322834645669292,
                    "duration": 0.11322447916671763
                },
                {
                    "name": "D4",
                    "midi": 62,
                    "time": 337.8401067333411,
                    "velocity": 0.7007874015748031,
                    "duration": 0.10597811249999722
                },
                {
                    "name": "F#3",
                    "midi": 54,
                    "time": 338.2603960000078,
                    "velocity": 0.7716535433070866,
                    "duration": 0.05072456666664493
                },
                {
                    "name": "F#3",
                    "midi": 54,
                    "time": 338.33285966667444,
                    "velocity": 0.7322834645669292,
                    "duration": 0.05072456666664493
                },
                {
                    "name": "F#3",
                    "midi": 54,
                    "time": 338.4053233333411,
                    "velocity": 0.7716535433070866,
                    "duration": 0.05072456666664493
                },
                {
                    "name": "F#1",
                    "midi": 30,
                    "time": 338.4777870000077,
                    "velocity": 0.84251968503937,
                    "duration": 0.21739100000002054
                },
                {
                    "name": "F#5",
                    "midi": 78,
                    "time": 338.91256900000775,
                    "velocity": 0.7716535433070866,
                    "duration": 0.07246366666669246
                },
                {
                    "name": "C#6",
                    "midi": 85,
                    "time": 338.98503266667444,
                    "velocity": 0.84251968503937,
                    "duration": 0.07246366666669246
                },
                {
                    "name": "F#6",
                    "midi": 90,
                    "time": 338.98503266667444,
                    "velocity": 0.7716535433070866,
                    "duration": 0.07246366666669246
                },
                {
                    "name": "F#5",
                    "midi": 78,
                    "time": 339.05749633334113,
                    "velocity": 0.7322834645669292,
                    "duration": 0.07246366666669246
                },
                {
                    "name": "A#4",
                    "midi": 70,
                    "time": 339.1299600000078,
                    "velocity": 0.8031496062992126,
                    "duration": 0.21739100000002054
                },
                {
                    "name": "G5",
                    "midi": 79,
                    "time": 339.1299600000078,
                    "velocity": 0.84251968503937,
                    "duration": 0.21739100000002054
                },
                {
                    "name": "C#5",
                    "midi": 73,
                    "time": 339.1299600000078,
                    "velocity": 0.7322834645669292,
                    "duration": 0.21739100000002054
                },
                {
                    "name": "F#5",
                    "midi": 78,
                    "time": 339.34735100000785,
                    "velocity": 0.7716535433070866,
                    "duration": 0.07246366666669246
                },
                {
                    "name": "C#6",
                    "midi": 85,
                    "time": 339.41981466667454,
                    "velocity": 0.7007874015748031,
                    "duration": 0.07246366666663562
                },
                {
                    "name": "F#6",
                    "midi": 90,
                    "time": 339.41981466667454,
                    "velocity": 0.7007874015748031,
                    "duration": 0.07246366666663562
                },
                {
                    "name": "F#5",
                    "midi": 78,
                    "time": 339.4922783333412,
                    "velocity": 0.6299212598425197,
                    "duration": 0.07246366666669246
                },
                {
                    "name": "A#4",
                    "midi": 70,
                    "time": 339.56474200000787,
                    "velocity": 0.7322834645669292,
                    "duration": 0.21739100000002054
                },
                {
                    "name": "C#5",
                    "midi": 73,
                    "time": 339.56474200000787,
                    "velocity": 0.7716535433070866,
                    "duration": 0.21739100000002054
                },
                {
                    "name": "G5",
                    "midi": 79,
                    "time": 339.56474200000787,
                    "velocity": 0.7716535433070866,
                    "duration": 0.21739100000002054
                },
                {
                    "name": "F#5",
                    "midi": 78,
                    "time": 339.7821330000079,
                    "velocity": 0.7007874015748031,
                    "duration": 0.07246366666669246
                },
                {
                    "name": "F#6",
                    "midi": 90,
                    "time": 339.8545966666746,
                    "velocity": 0.7007874015748031,
                    "duration": 0.07246366666669246
                },
                {
                    "name": "C#6",
                    "midi": 85,
                    "time": 339.8545966666746,
                    "velocity": 0.6692913385826772,
                    "duration": 0.07246366666669246
                },
                {
                    "name": "F#5",
                    "midi": 78,
                    "time": 339.9270603333413,
                    "velocity": 0.6299212598425197,
                    "duration": 0.07246366666669246
                },
                {
                    "name": "A#4",
                    "midi": 70,
                    "time": 339.99952400000797,
                    "velocity": 0.7007874015748031,
                    "duration": 0.21739100000002054
                },
                {
                    "name": "G5",
                    "midi": 79,
                    "time": 339.99952400000797,
                    "velocity": 0.7322834645669292,
                    "duration": 0.21739100000002054
                },
                {
                    "name": "C#5",
                    "midi": 73,
                    "time": 339.99952400000797,
                    "velocity": 0.7322834645669292,
                    "duration": 0.21739100000002054
                },
                {
                    "name": "F#5",
                    "midi": 78,
                    "time": 340.216915000008,
                    "velocity": 0.7322834645669292,
                    "duration": 0.07246366666669246
                },
                {
                    "name": "F#6",
                    "midi": 90,
                    "time": 340.2893786666747,
                    "velocity": 0.6692913385826772,
                    "duration": 0.07246366666669246
                },
                {
                    "name": "C#6",
                    "midi": 85,
                    "time": 340.2893786666747,
                    "velocity": 0.6692913385826772,
                    "duration": 0.07246366666669246
                },
                {
                    "name": "F#5",
                    "midi": 78,
                    "time": 340.3618423333414,
                    "velocity": 0.7322834645669292,
                    "duration": 0.07246366666669246
                },
                {
                    "name": "C#6",
                    "midi": 85,
                    "time": 340.43430600000806,
                    "velocity": 0.5984251968503937,
                    "duration": 0.10869550000001027
                },
                {
                    "name": "F#6",
                    "midi": 90,
                    "time": 340.43430600000806,
                    "velocity": 0.7322834645669292,
                    "duration": 0.10869550000001027
                },
                {
                    "name": "G5",
                    "midi": 79,
                    "time": 340.43430600000806,
                    "velocity": 0.7322834645669292,
                    "duration": 0.13586937500002705
                },
                {
                    "name": "C#5",
                    "midi": 73,
                    "time": 340.43430600000806,
                    "velocity": 0.7322834645669292,
                    "duration": 0.1385867625000401
                },
                {
                    "name": "A#4",
                    "midi": 70,
                    "time": 340.43430600000806,
                    "velocity": 0.7007874015748031,
                    "duration": 0.13586937500002705
                },
                {
                    "name": "F#5",
                    "midi": 78,
                    "time": 340.5430015000081,
                    "velocity": 0.5669291338582677,
                    "duration": 0.10869550000001027
                },
                {
                    "name": "G5",
                    "midi": 79,
                    "time": 340.64807381667475,
                    "velocity": 0.6299212598425197,
                    "duration": 0.08152162499999349
                },
                {
                    "name": "A#4",
                    "midi": 70,
                    "time": 340.64897961250807,
                    "velocity": 0.5669291338582677,
                    "duration": 0.08152162499999349
                },
                {
                    "name": "C#5",
                    "midi": 73,
                    "time": 340.64897961250807,
                    "velocity": 0.7007874015748031,
                    "duration": 0.086050604166644
                },
                {
                    "name": "C#6",
                    "midi": 85,
                    "time": 340.6516970000081,
                    "velocity": 0.6299212598425197,
                    "duration": 0.10869549999995343
                },
                {
                    "name": "F#6",
                    "midi": 90,
                    "time": 340.6516970000081,
                    "velocity": 0.5669291338582677,
                    "duration": 0.10869549999995343
                },
                {
                    "name": "F#5",
                    "midi": 78,
                    "time": 340.76039250000804,
                    "velocity": 0.6299212598425197,
                    "duration": 0.10869550000001027
                },
                {
                    "name": "G5",
                    "midi": 79,
                    "time": 340.8654648166747,
                    "velocity": 0.6299212598425197,
                    "duration": 0.10688390833331596
                },
                {
                    "name": "C#5",
                    "midi": 73,
                    "time": 340.8654648166747,
                    "velocity": 0.5905511811023622,
                    "duration": 0.10597811249999722
                },
                {
                    "name": "A#4",
                    "midi": 70,
                    "time": 340.86637061250804,
                    "velocity": 0.47244094488188976,
                    "duration": 0.10416652083335975
                },
                {
                    "name": "C#6",
                    "midi": 85,
                    "time": 340.86908800000805,
                    "velocity": 0.5984251968503937,
                    "duration": 0.10869550000001027
                },
                {
                    "name": "F#6",
                    "midi": 90,
                    "time": 340.86908800000805,
                    "velocity": 0.6692913385826772,
                    "duration": 0.10869550000001027
                },
                {
                    "name": "F#5",
                    "midi": 78,
                    "time": 340.97778350000806,
                    "velocity": 0.6299212598425197,
                    "duration": 0.10869550000001027
                },
                {
                    "name": "C#6",
                    "midi": 85,
                    "time": 341.08647900000807,
                    "velocity": 0.7322834645669292,
                    "duration": 0.10869550000001027
                },
                {
                    "name": "F#6",
                    "midi": 90,
                    "time": 341.08647900000807,
                    "velocity": 0.7716535433070866,
                    "duration": 0.10869550000001027
                },
                {
                    "name": "A#4",
                    "midi": 70,
                    "time": 341.08647900000807,
                    "velocity": 0.7322834645669292,
                    "duration": 0.11594186666673068
                },
                {
                    "name": "C#5",
                    "midi": 73,
                    "time": 341.08647900000807,
                    "velocity": 0.7007874015748031,
                    "duration": 0.11956505000006246
                },
                {
                    "name": "G5",
                    "midi": 79,
                    "time": 341.0873847958414,
                    "velocity": 0.7716535433070866,
                    "duration": 0.11322447916671763
                },
                {
                    "name": "F#5",
                    "midi": 78,
                    "time": 341.1951745000081,
                    "velocity": 0.5039370078740157,
                    "duration": 0.10869550000006711
                },
                {
                    "name": "C#6",
                    "midi": 85,
                    "time": 341.30387000000815,
                    "velocity": 0.5669291338582677,
                    "duration": 0.10869550000001027
                },
                {
                    "name": "F#6",
                    "midi": 90,
                    "time": 341.30387000000815,
                    "velocity": 0.5984251968503937,
                    "duration": 0.10869550000001027
                },
                {
                    "name": "G5",
                    "midi": 79,
                    "time": 341.3102105708415,
                    "velocity": 0.5669291338582677,
                    "duration": 0.10507231666667849
                },
                {
                    "name": "A#4",
                    "midi": 70,
                    "time": 341.3102105708415,
                    "velocity": 0.47244094488188976,
                    "duration": 0.08514480833332527
                },
                {
                    "name": "C#5",
                    "midi": 73,
                    "time": 341.3102105708415,
                    "velocity": 0.5669291338582677,
                    "duration": 0.10507231666667849
                },
                {
                    "name": "F#5",
                    "midi": 78,
                    "time": 341.41256550000816,
                    "velocity": 0.7007874015748031,
                    "duration": 0.10869550000001027
                },
                {
                    "name": "C#6",
                    "midi": 85,
                    "time": 341.52126100000817,
                    "velocity": 0.5669291338582677,
                    "duration": 0.10869550000006711
                },
                {
                    "name": "F#6",
                    "midi": 90,
                    "time": 341.52126100000817,
                    "velocity": 0.6299212598425197,
                    "duration": 0.10869550000006711
                },
                {
                    "name": "C#5",
                    "midi": 73,
                    "time": 341.52126100000817,
                    "velocity": 0.47244094488188976,
                    "duration": 0.08967378750003263
                },
                {
                    "name": "A#4",
                    "midi": 70,
                    "time": 341.52307259167486,
                    "velocity": 0.5354330708661418,
                    "duration": 0.08514480833332527
                },
                {
                    "name": "G5",
                    "midi": 79,
                    "time": 341.52307259167486,
                    "velocity": 0.5984251968503937,
                    "duration": 0.09057958333335137
                },
                {
                    "name": "F#5",
                    "midi": 78,
                    "time": 341.62995650000823,
                    "velocity": 0.6299212598425197,
                    "duration": 0.10869550000001027
                },
                {
                    "name": "C#6",
                    "midi": 85,
                    "time": 341.73865200000824,
                    "velocity": 0.7007874015748031,
                    "duration": 0.10869550000006711
                },
                {
                    "name": "F#6",
                    "midi": 90,
                    "time": 341.73865200000824,
                    "velocity": 0.7716535433070866,
                    "duration": 0.10869550000006711
                },
                {
                    "name": "C#5",
                    "midi": 73,
                    "time": 341.74408677500827,
                    "velocity": 0.7007874015748031,
                    "duration": 0.09782595000001493
                },
                {
                    "name": "G5",
                    "midi": 79,
                    "time": 341.7449925708416,
                    "velocity": 0.8031496062992126,
                    "duration": 0.086050604166644
                },
                {
                    "name": "A#4",
                    "midi": 70,
                    "time": 341.7449925708416,
                    "velocity": 0.6692913385826772,
                    "duration": 0.08786219583333832
                },
                {
                    "name": "F#5",
                    "midi": 78,
                    "time": 341.8473475000083,
                    "velocity": 0.7322834645669292,
                    "duration": 0.10869549999995343
                },
                {
                    "name": "G5",
                    "midi": 79,
                    "time": 341.95513720417495,
                    "velocity": 0.7007874015748031,
                    "duration": 0.08695639999996274
                },
                {
                    "name": "C#5",
                    "midi": 73,
                    "time": 341.95513720417495,
                    "velocity": 0.5669291338582677,
                    "duration": 0.10235492916666544
                },
                {
                    "name": "A#4",
                    "midi": 70,
                    "time": 341.95604300000826,
                    "velocity": 0.5039370078740157,
                    "duration": 0.09601435833332062
                },
                {
                    "name": "C#6",
                    "midi": 85,
                    "time": 341.95604300000826,
                    "velocity": 0.5354330708661418,
                    "duration": 0.10869550000001027
                },
                {
                    "name": "F#6",
                    "midi": 90,
                    "time": 341.95604300000826,
                    "velocity": 0.6692913385826772,
                    "duration": 0.10869550000001027
                },
                {
                    "name": "F#5",
                    "midi": 78,
                    "time": 342.0647385000083,
                    "velocity": 0.7322834645669292,
                    "duration": 0.10869550000001027
                },
                {
                    "name": "F#6",
                    "midi": 90,
                    "time": 342.1734340000083,
                    "velocity": 0.7322834645669292,
                    "duration": 0.10869550000001027
                },
                {
                    "name": "C#6",
                    "midi": 85,
                    "time": 342.1734340000083,
                    "velocity": 0.6299212598425197,
                    "duration": 0.10869550000001027
                },
                {
                    "name": "G5",
                    "midi": 79,
                    "time": 342.175245591675,
                    "velocity": 0.7322834645669292,
                    "duration": 0.0833332166666878
                },
                {
                    "name": "C#5",
                    "midi": 73,
                    "time": 342.175245591675,
                    "velocity": 0.6299212598425197,
                    "duration": 0.08876799166665705
                },
                {
                    "name": "A#4",
                    "midi": 70,
                    "time": 342.177962979175,
                    "velocity": 0.5984251968503937,
                    "duration": 0.08514480833332527
                },
                {
                    "name": "F#5",
                    "midi": 78,
                    "time": 342.2821295000083,
                    "velocity": 0.7007874015748031,
                    "duration": 0.10869550000001027
                },
                {
                    "name": "C#6",
                    "midi": 85,
                    "time": 342.3908250000083,
                    "velocity": 0.7322834645669292,
                    "duration": 0.21739100000002054
                },
                {
                    "name": "F#6",
                    "midi": 90,
                    "time": 342.3908250000083,
                    "velocity": 0.7716535433070866,
                    "duration": 0.21739100000002054
                },
                {
                    "name": "C#5",
                    "midi": 73,
                    "time": 342.39716557084165,
                    "velocity": 0.84251968503937,
                    "duration": 0.10507231666667849
                },
                {
                    "name": "A#4",
                    "midi": 70,
                    "time": 342.39807136667497,
                    "velocity": 0.84251968503937,
                    "duration": 0.09692015416669619
                },
                {
                    "name": "G5",
                    "midi": 79,
                    "time": 342.39807136667497,
                    "velocity": 0.8031496062992126,
                    "duration": 0.10326072500004102
                },
                {
                    "name": "F3",
                    "midi": 53,
                    "time": 342.91618658334164,
                    "velocity": 0.5905511811023622,
                    "duration": 0.035326037499999074
                },
                {
                    "name": "A3",
                    "midi": 57,
                    "time": 342.9614763750083,
                    "velocity": 0.5905511811023622,
                    "duration": 0.035326037499999074
                },
                {
                    "name": "A#3",
                    "midi": 58,
                    "time": 343.006766166675,
                    "velocity": 0.5905511811023622,
                    "duration": 0.035326037499999074
                },
                {
                    "name": "A#2",
                    "midi": 46,
                    "time": 343.0429980000083,
                    "velocity": 0.7716535433070866,
                    "duration": 0.3260865000000308
                },
                {
                    "name": "F2",
                    "midi": 41,
                    "time": 343.0429980000083,
                    "velocity": 0.7322834645669292,
                    "duration": 0.3260865000000308
                },
                {
                    "name": "A#1",
                    "midi": 34,
                    "time": 343.0429980000083,
                    "velocity": 0.7716535433070866,
                    "duration": 0.3260865000000308
                },
                {
                    "name": "D4",
                    "midi": 62,
                    "time": 343.0429980000083,
                    "velocity": 0.7007874015748031,
                    "duration": 0.3260865000000308
                },
                {
                    "name": "F3",
                    "midi": 53,
                    "time": 343.0429980000083,
                    "velocity": 0.7322834645669292,
                    "duration": 0.3260865000000308
                },
                {
                    "name": "A2",
                    "midi": 45,
                    "time": 343.36908450000834,
                    "velocity": 0.889763779527559,
                    "duration": 0.32608649999997397
                },
                {
                    "name": "D2",
                    "midi": 38,
                    "time": 343.36908450000834,
                    "velocity": 0.7716535433070866,
                    "duration": 0.32608649999997397
                },
                {
                    "name": "A3",
                    "midi": 57,
                    "time": 343.36908450000834,
                    "velocity": 0.7716535433070866,
                    "duration": 0.32608649999997397
                },
                {
                    "name": "D3",
                    "midi": 50,
                    "time": 343.36908450000834,
                    "velocity": 0.7007874015748031,
                    "duration": 0.32608649999997397
                },
                {
                    "name": "A1",
                    "midi": 33,
                    "time": 343.6951710000083,
                    "velocity": 0.7007874015748031,
                    "duration": 0.6521730000000616
                },
                {
                    "name": "D1",
                    "midi": 26,
                    "time": 343.6951710000083,
                    "velocity": 0.889763779527559,
                    "duration": 0.6521730000000616
                },
                {
                    "name": "D7",
                    "midi": 98,
                    "time": 344.29299625000834,
                    "velocity": 0.7480314960629921,
                    "duration": 0.02717387500001678
                },
                {
                    "name": "E7",
                    "midi": 100,
                    "time": 344.32017012500836,
                    "velocity": 0.7480314960629921,
                    "duration": 0.02717387500001678
                },
                {
                    "name": "F#5",
                    "midi": 78,
                    "time": 344.3473440000084,
                    "velocity": 0.84251968503937,
                    "duration": 0.43478199999998424
                },
                {
                    "name": "D5",
                    "midi": 74,
                    "time": 344.3473440000084,
                    "velocity": 0.7716535433070866,
                    "duration": 0.43478199999998424
                },
                {
                    "name": "A4",
                    "midi": 69,
                    "time": 344.3473440000084,
                    "velocity": 0.7716535433070866,
                    "duration": 0.43478199999998424
                },
                {
                    "name": "F#4",
                    "midi": 66,
                    "time": 344.3473440000084,
                    "velocity": 0.7716535433070866,
                    "duration": 0.43478199999998424
                },
                {
                    "name": "A7",
                    "midi": 105,
                    "time": 344.3473440000084,
                    "velocity": 0.8031496062992126,
                    "duration": 0.43478199999998424
                },
                {
                    "name": "D7",
                    "midi": 98,
                    "time": 344.3473440000084,
                    "velocity": 0.8031496062992126,
                    "duration": 0.43478199999998424
                },
                {
                    "name": "A6",
                    "midi": 93,
                    "time": 344.3473440000084,
                    "velocity": 0.7322834645669292,
                    "duration": 0.43478199999998424
                }
            ],
            "controlChanges": {
                "64": [
                    {
                        "number": 64,
                        "time": 17.834214162499947,
                        "value": 1
                    },
                    {
                        "number": 64,
                        "time": 18.73276362916661,
                        "value": 0
                    },
                    {
                        "number": 64,
                        "time": 23.896705674999943,
                        "value": 1
                    },
                    {
                        "number": 64,
                        "time": 24.062466312499943,
                        "value": 0
                    },
                    {
                        "number": 64,
                        "time": 24.27623412916661,
                        "value": 1
                    },
                    {
                        "number": 64,
                        "time": 24.649422012499944,
                        "value": 0
                    },
                    {
                        "number": 64,
                        "time": 26.168441624999943,
                        "value": 1
                    },
                    {
                        "number": 64,
                        "time": 26.356847158333274,
                        "value": 0
                    },
                    {
                        "number": 64,
                        "time": 26.75992630416661,
                        "value": 1
                    },
                    {
                        "number": 64,
                        "time": 27.185650345833274,
                        "value": 0
                    },
                    {
                        "number": 64,
                        "time": 27.456483299999938,
                        "value": 1
                    },
                    {
                        "number": 64,
                        "time": 27.577859941666606,
                        "value": 0
                    },
                    {
                        "number": 64,
                        "time": 33.17205500833323,
                        "value": 1
                    },
                    {
                        "number": 64,
                        "time": 33.296149037499895,
                        "value": 0
                    },
                    {
                        "number": 64,
                        "time": 34.01806831666656,
                        "value": 1
                    },
                    {
                        "number": 64,
                        "time": 34.13944495833322,
                        "value": 0
                    },
                    {
                        "number": 64,
                        "time": 35.46915324166655,
                        "value": 1
                    },
                    {
                        "number": 64,
                        "time": 35.98364527499988,
                        "value": 0
                    },
                    {
                        "number": 64,
                        "time": 36.079659633333215,
                        "value": 1
                    },
                    {
                        "number": 64,
                        "time": 36.30610859166655,
                        "value": 0
                    },
                    {
                        "number": 64,
                        "time": 36.38038384999988,
                        "value": 1
                    },
                    {
                        "number": 64,
                        "time": 36.50810106249988,
                        "value": 0
                    },
                    {
                        "number": 64,
                        "time": 36.63310088749988,
                        "value": 1
                    },
                    {
                        "number": 64,
                        "time": 37.53980251666655,
                        "value": 0
                    },
                    {
                        "number": 64,
                        "time": 37.89034550416655,
                        "value": 1
                    },
                    {
                        "number": 64,
                        "time": 38.6394386583332,
                        "value": 0
                    },
                    {
                        "number": 64,
                        "time": 39.4274810333332,
                        "value": 1
                    },
                    {
                        "number": 64,
                        "time": 39.8350891583332,
                        "value": 0
                    },
                    {
                        "number": 64,
                        "time": 40.17023361666653,
                        "value": 1
                    },
                    {
                        "number": 64,
                        "time": 40.286175483333196,
                        "value": 0
                    },
                    {
                        "number": 64,
                        "time": 40.585088108333196,
                        "value": 1
                    },
                    {
                        "number": 64,
                        "time": 40.8242182083332,
                        "value": 0
                    },
                    {
                        "number": 64,
                        "time": 41.1584568708332,
                        "value": 1
                    },
                    {
                        "number": 64,
                        "time": 41.83599215416652,
                        "value": 0
                    },
                    {
                        "number": 64,
                        "time": 42.06425270416651,
                        "value": 1
                    },
                    {
                        "number": 64,
                        "time": 42.16298444999985,
                        "value": 0
                    },
                    {
                        "number": 64,
                        "time": 42.67928807499984,
                        "value": 1
                    },
                    {
                        "number": 64,
                        "time": 42.781643004166504,
                        "value": 0
                    },
                    {
                        "number": 64,
                        "time": 43.10863529999984,
                        "value": 1
                    },
                    {
                        "number": 64,
                        "time": 43.20917863749984,
                        "value": 0
                    },
                    {
                        "number": 64,
                        "time": 43.45917828749984,
                        "value": 1
                    },
                    {
                        "number": 64,
                        "time": 43.48182318333317,
                        "value": 0
                    },
                    {
                        "number": 64,
                        "time": 44.451024724999826,
                        "value": 1
                    },
                    {
                        "number": 64,
                        "time": 44.70283596666649,
                        "value": 0
                    },
                    {
                        "number": 64,
                        "time": 46.410261112499825,
                        "value": 1
                    },
                    {
                        "number": 64,
                        "time": 46.647579620833156,
                        "value": 0
                    },
                    {
                        "number": 64,
                        "time": 47.401201754166486,
                        "value": 1
                    },
                    {
                        "number": 64,
                        "time": 47.47457121666648,
                        "value": 0
                    },
                    {
                        "number": 64,
                        "time": 47.82420840833315,
                        "value": 1
                    },
                    {
                        "number": 64,
                        "time": 48.02982406249981,
                        "value": 0
                    },
                    {
                        "number": 64,
                        "time": 49.06152551666648,
                        "value": 1
                    },
                    {
                        "number": 64,
                        "time": 49.20645284999981,
                        "value": 0
                    },
                    {
                        "number": 64,
                        "time": 49.28435129166648,
                        "value": 1
                    },
                    {
                        "number": 64,
                        "time": 49.36224973333315,
                        "value": 0
                    },
                    {
                        "number": 64,
                        "time": 49.70011157916649,
                        "value": 1
                    },
                    {
                        "number": 64,
                        "time": 49.932901108333155,
                        "value": 0
                    },
                    {
                        "number": 64,
                        "time": 50.47003803749981,
                        "value": 1
                    },
                    {
                        "number": 64,
                        "time": 50.513516237499815,
                        "value": 0
                    },
                    {
                        "number": 64,
                        "time": 50.604095820833145,
                        "value": 1
                    },
                    {
                        "number": 64,
                        "time": 50.958261991666475,
                        "value": 0
                    },
                    {
                        "number": 64,
                        "time": 51.364964320833145,
                        "value": 1
                    },
                    {
                        "number": 64,
                        "time": 51.39032660416648,
                        "value": 0
                    },
                    {
                        "number": 64,
                        "time": 51.66931172083315,
                        "value": 1
                    },
                    {
                        "number": 64,
                        "time": 51.864963620833144,
                        "value": 0
                    },
                    {
                        "number": 64,
                        "time": 52.06423870416647,
                        "value": 1
                    },
                    {
                        "number": 64,
                        "time": 52.3830788374998,
                        "value": 0
                    },
                    {
                        "number": 64,
                        "time": 52.640324854166465,
                        "value": 1
                    },
                    {
                        "number": 64,
                        "time": 52.78162900416646,
                        "value": 0
                    },
                    {
                        "number": 64,
                        "time": 54.25173564166645,
                        "value": 1
                    },
                    {
                        "number": 64,
                        "time": 54.55155406249978,
                        "value": 0
                    },
                    {
                        "number": 64,
                        "time": 55.57691494583312,
                        "value": 1
                    },
                    {
                        "number": 64,
                        "time": 55.72365387083312,
                        "value": 0
                    },
                    {
                        "number": 64,
                        "time": 56.19376190833311,
                        "value": 1
                    },
                    {
                        "number": 64,
                        "time": 56.20644304999978,
                        "value": 0
                    },
                    {
                        "number": 64,
                        "time": 56.47093543333311,
                        "value": 1
                    },
                    {
                        "number": 64,
                        "time": 56.74992054999978,
                        "value": 0
                    },
                    {
                        "number": 64,
                        "time": 57.57691214583311,
                        "value": 1
                    },
                    {
                        "number": 64,
                        "time": 57.80245530833311,
                        "value": 0
                    },
                    {
                        "number": 64,
                        "time": 58.87672916666644,
                        "value": 1
                    },
                    {
                        "number": 64,
                        "time": 59.1095186958331,
                        "value": 0
                    },
                    {
                        "number": 64,
                        "time": 59.57781514166643,
                        "value": 1
                    },
                    {
                        "number": 64,
                        "time": 59.6366918708331,
                        "value": 0
                    },
                    {
                        "number": 64,
                        "time": 60.215495408333105,
                        "value": 1
                    },
                    {
                        "number": 64,
                        "time": 60.813320658333126,
                        "value": 0
                    },
                    {
                        "number": 64,
                        "time": 61.486326962499824,
                        "value": 1
                    },
                    {
                        "number": 64,
                        "time": 61.9772683041665,
                        "value": 0
                    },
                    {
                        "number": 64,
                        "time": 62.98179588333319,
                        "value": 1
                    },
                    {
                        "number": 64,
                        "time": 63.275273733333194,
                        "value": 0
                    },
                    {
                        "number": 64,
                        "time": 63.53161395416654,
                        "value": 1
                    },
                    {
                        "number": 64,
                        "time": 63.76078029999988,
                        "value": 0
                    },
                    {
                        "number": 64,
                        "time": 64.10679430833322,
                        "value": 1
                    },
                    {
                        "number": 64,
                        "time": 64.53161255416653,
                        "value": 0
                    },
                    {
                        "number": 64,
                        "time": 65.28342309583313,
                        "value": 1
                    },
                    {
                        "number": 64,
                        "time": 65.77345864166647,
                        "value": 0
                    },
                    {
                        "number": 64,
                        "time": 66.17019721666645,
                        "value": 1
                    },
                    {
                        "number": 64,
                        "time": 66.31150136666645,
                        "value": 0
                    },
                    {
                        "number": 64,
                        "time": 66.57327636249978,
                        "value": 1
                    },
                    {
                        "number": 64,
                        "time": 67.0035293833331,
                        "value": 0
                    },
                    {
                        "number": 64,
                        "time": 67.37399987916642,
                        "value": 1
                    },
                    {
                        "number": 64,
                        "time": 67.49809390833309,
                        "value": 0
                    },
                    {
                        "number": 64,
                        "time": 67.82961518333308,
                        "value": 1
                    },
                    {
                        "number": 64,
                        "time": 68.11222348333307,
                        "value": 0
                    },
                    {
                        "number": 64,
                        "time": 68.71729509999972,
                        "value": 1
                    },
                    {
                        "number": 64,
                        "time": 68.78613558333306,
                        "value": 0
                    },
                    {
                        "number": 64,
                        "time": 69.05515694583306,
                        "value": 1
                    },
                    {
                        "number": 64,
                        "time": 69.19102632083305,
                        "value": 0
                    },
                    {
                        "number": 64,
                        "time": 69.52435918749971,
                        "value": 1
                    },
                    {
                        "number": 64,
                        "time": 69.62127934166638,
                        "value": 0
                    },
                    {
                        "number": 64,
                        "time": 69.96276437083304,
                        "value": 1
                    },
                    {
                        "number": 64,
                        "time": 70.08051782916637,
                        "value": 0
                    },
                    {
                        "number": 64,
                        "time": 70.52888676666636,
                        "value": 1
                    },
                    {
                        "number": 64,
                        "time": 70.61312577916637,
                        "value": 0
                    },
                    {
                        "number": 64,
                        "time": 70.87942975416635,
                        "value": 1
                    },
                    {
                        "number": 64,
                        "time": 71.06240051249968,
                        "value": 0
                    },
                    {
                        "number": 64,
                        "time": 71.27979151249967,
                        "value": 1
                    },
                    {
                        "number": 64,
                        "time": 71.44555214999967,
                        "value": 0
                    },
                    {
                        "number": 64,
                        "time": 71.78794297499965,
                        "value": 1
                    },
                    {
                        "number": 64,
                        "time": 72.00352238333296,
                        "value": 0
                    },
                    {
                        "number": 64,
                        "time": 74.9201849666662,
                        "value": 1
                    },
                    {
                        "number": 64,
                        "time": 75.11311947916619,
                        "value": 0
                    },
                    {
                        "number": 64,
                        "time": 75.74808235833282,
                        "value": 1
                    },
                    {
                        "number": 64,
                        "time": 75.77978521249949,
                        "value": 0
                    },
                    {
                        "number": 64,
                        "time": 76.28340769583282,
                        "value": 1
                    },
                    {
                        "number": 64,
                        "time": 76.32688589583282,
                        "value": 0
                    },
                    {
                        "number": 64,
                        "time": 77.00713856666613,
                        "value": 1
                    },
                    {
                        "number": 64,
                        "time": 77.08866019166614,
                        "value": 0
                    },
                    {
                        "number": 64,
                        "time": 77.50804366249945,
                        "value": 1
                    },
                    {
                        "number": 64,
                        "time": 77.57688414583278,
                        "value": 0
                    },
                    {
                        "number": 64,
                        "time": 79.6248885249995,
                        "value": 1
                    },
                    {
                        "number": 64,
                        "time": 79.76981585833283,
                        "value": 0
                    },
                    {
                        "number": 64,
                        "time": 80.89843746666618,
                        "value": 1
                    },
                    {
                        "number": 64,
                        "time": 81.04064741249951,
                        "value": 0
                    },
                    {
                        "number": 64,
                        "time": 82.13303718749944,
                        "value": 1
                    },
                    {
                        "number": 64,
                        "time": 82.34046443333276,
                        "value": 0
                    },
                    {
                        "number": 64,
                        "time": 83.46908604166607,
                        "value": 1
                    },
                    {
                        "number": 64,
                        "time": 83.59136847916608,
                        "value": 0
                    },
                    {
                        "number": 64,
                        "time": 84.76618567499938,
                        "value": 1
                    },
                    {
                        "number": 64,
                        "time": 84.98629406249938,
                        "value": 0
                    },
                    {
                        "number": 64,
                        "time": 90.25712001666601,
                        "value": 1
                    },
                    {
                        "number": 64,
                        "time": 90.37306188333267,
                        "value": 0
                    },
                    {
                        "number": 64,
                        "time": 90.49081534166599,
                        "value": 1
                    },
                    {
                        "number": 64,
                        "time": 90.61581516666598,
                        "value": 0
                    },
                    {
                        "number": 64,
                        "time": 90.95548860416598,
                        "value": 1
                    },
                    {
                        "number": 64,
                        "time": 91.11762605833265,
                        "value": 0
                    },
                    {
                        "number": 64,
                        "time": 91.41925607083266,
                        "value": 1
                    },
                    {
                        "number": 64,
                        "time": 91.49534292083266,
                        "value": 0
                    },
                    {
                        "number": 64,
                        "time": 91.73628461249932,
                        "value": 1
                    },
                    {
                        "number": 64,
                        "time": 91.84135692916598,
                        "value": 0
                    },
                    {
                        "number": 64,
                        "time": 92.61490657083266,
                        "value": 1
                    },
                    {
                        "number": 64,
                        "time": 92.74896435416598,
                        "value": 0
                    },
                    {
                        "number": 64,
                        "time": 92.79968892083265,
                        "value": 1
                    },
                    {
                        "number": 64,
                        "time": 93.240811491666,
                        "value": 0
                    },
                    {
                        "number": 64,
                        "time": 93.50258648749934,
                        "value": 1
                    },
                    {
                        "number": 64,
                        "time": 93.84044833333267,
                        "value": 0
                    },
                    {
                        "number": 64,
                        "time": 93.90475983749934,
                        "value": 1
                    },
                    {
                        "number": 64,
                        "time": 95.59225747499929,
                        "value": 0
                    },
                    {
                        "number": 64,
                        "time": 96.15837987083263,
                        "value": 1
                    },
                    {
                        "number": 64,
                        "time": 96.2525826374993,
                        "value": 0
                    },
                    {
                        "number": 64,
                        "time": 98.04968157083263,
                        "value": 1
                    },
                    {
                        "number": 64,
                        "time": 98.77612982916597,
                        "value": 0
                    },
                    {
                        "number": 64,
                        "time": 99.39297679166596,
                        "value": 1
                    },
                    {
                        "number": 64,
                        "time": 99.53156355416597,
                        "value": 0
                    },
                    {
                        "number": 64,
                        "time": 100.02884546666597,
                        "value": 1
                    },
                    {
                        "number": 64,
                        "time": 101.17195980833263,
                        "value": 0
                    },
                    {
                        "number": 64,
                        "time": 104.3368104499993,
                        "value": 1
                    },
                    {
                        "number": 64,
                        "time": 104.76706347083264,
                        "value": 0
                    },
                    {
                        "number": 64,
                        "time": 105.70275056666597,
                        "value": 1
                    },
                    {
                        "number": 64,
                        "time": 105.79061276249931,
                        "value": 0
                    },
                    {
                        "number": 64,
                        "time": 106.39840176666597,
                        "value": 1
                    },
                    {
                        "number": 64,
                        "time": 106.73264042916597,
                        "value": 0
                    },
                    {
                        "number": 64,
                        "time": 109.75075214583264,
                        "value": 1
                    },
                    {
                        "number": 64,
                        "time": 110.05238215833263,
                        "value": 0
                    },
                    {
                        "number": 64,
                        "time": 111.0514749624993,
                        "value": 1
                    },
                    {
                        "number": 64,
                        "time": 111.68734363749927,
                        "value": 0
                    },
                    {
                        "number": 64,
                        "time": 111.83589415416594,
                        "value": 1
                    },
                    {
                        "number": 64,
                        "time": 112.07321266249927,
                        "value": 0
                    },
                    {
                        "number": 64,
                        "time": 112.2181399958326,
                        "value": 1
                    },
                    {
                        "number": 64,
                        "time": 113.3358920541659,
                        "value": 0
                    },
                    {
                        "number": 64,
                        "time": 113.5723047666659,
                        "value": 1
                    },
                    {
                        "number": 64,
                        "time": 114.6402380541659,
                        "value": 0
                    },
                    {
                        "number": 64,
                        "time": 114.79512914166591,
                        "value": 1
                    },
                    {
                        "number": 64,
                        "time": 116.15925766666591,
                        "value": 0
                    },
                    {
                        "number": 64,
                        "time": 124.65833997083257,
                        "value": 1
                    },
                    {
                        "number": 64,
                        "time": 124.71721669999924,
                        "value": 0
                    },
                    {
                        "number": 64,
                        "time": 125.36395492499923,
                        "value": 1
                    },
                    {
                        "number": 64,
                        "time": 126.32228691666586,
                        "value": 0
                    },
                    {
                        "number": 64,
                        "time": 126.79420654583252,
                        "value": 1
                    },
                    {
                        "number": 64,
                        "time": 127.75706751666581,
                        "value": 0
                    },
                    {
                        "number": 64,
                        "time": 127.94819043749915,
                        "value": 1
                    },
                    {
                        "number": 64,
                        "time": 129.04058021249924,
                        "value": 0
                    },
                    {
                        "number": 64,
                        "time": 129.2380437041659,
                        "value": 1
                    },
                    {
                        "number": 64,
                        "time": 130.03242664999922,
                        "value": 0
                    },
                    {
                        "number": 64,
                        "time": 138.40469753749926,
                        "value": 1
                    },
                    {
                        "number": 64,
                        "time": 139.26882676249934,
                        "value": 0
                    },
                    {
                        "number": 64,
                        "time": 139.29147165833268,
                        "value": 1
                    },
                    {
                        "number": 64,
                        "time": 139.46810184583268,
                        "value": 0
                    },
                    {
                        "number": 64,
                        "time": 139.59853644583268,
                        "value": 1
                    },
                    {
                        "number": 64,
                        "time": 140.82951298333288,
                        "value": 0
                    },
                    {
                        "number": 64,
                        "time": 140.96719394999954,
                        "value": 1
                    },
                    {
                        "number": 64,
                        "time": 141.72443926666622,
                        "value": 0
                    },
                    {
                        "number": 64,
                        "time": 157.9626411708329,
                        "value": 1
                    },
                    {
                        "number": 64,
                        "time": 159.04325559999964,
                        "value": 0
                    },
                    {
                        "number": 64,
                        "time": 159.11481347083298,
                        "value": 1
                    },
                    {
                        "number": 64,
                        "time": 160.27876111666637,
                        "value": 0
                    },
                    {
                        "number": 64,
                        "time": 160.4445217541664,
                        "value": 1
                    },
                    {
                        "number": 64,
                        "time": 160.56408680416638,
                        "value": 0
                    },
                    {
                        "number": 64,
                        "time": 160.8285791874997,
                        "value": 1
                    },
                    {
                        "number": 64,
                        "time": 161.60031723749975,
                        "value": 0
                    },
                    {
                        "number": 64,
                        "time": 161.8793023541664,
                        "value": 1
                    },
                    {
                        "number": 64,
                        "time": 162.82042422499975,
                        "value": 0
                    },
                    {
                        "number": 64,
                        "time": 163.13745276666648,
                        "value": 1
                    },
                    {
                        "number": 64,
                        "time": 163.21535120833315,
                        "value": 0
                    },
                    {
                        "number": 64,
                        "time": 163.27241634583314,
                        "value": 1
                    },
                    {
                        "number": 64,
                        "time": 164.12295863333313,
                        "value": 0
                    },
                    {
                        "number": 64,
                        "time": 164.35393657083313,
                        "value": 1
                    },
                    {
                        "number": 64,
                        "time": 165.70085497499988,
                        "value": 0
                    },
                    {
                        "number": 64,
                        "time": 168.40103235416657,
                        "value": 1
                    },
                    {
                        "number": 64,
                        "time": 170.93907227916665,
                        "value": 0
                    },
                    {
                        "number": 64,
                        "time": 194.30860477916792,
                        "value": 1
                    },
                    {
                        "number": 64,
                        "time": 194.5142204333346,
                        "value": 0
                    },
                    {
                        "number": 64,
                        "time": 194.84302432083462,
                        "value": 1
                    },
                    {
                        "number": 64,
                        "time": 195.21077742916796,
                        "value": 0
                    },
                    {
                        "number": 64,
                        "time": 195.30498019583464,
                        "value": 1
                    },
                    {
                        "number": 64,
                        "time": 195.53505233750133,
                        "value": 0
                    },
                    {
                        "number": 64,
                        "time": 195.63016090000133,
                        "value": 1
                    },
                    {
                        "number": 64,
                        "time": 195.74791435833464,
                        "value": 0
                    },
                    {
                        "number": 64,
                        "time": 195.85389247083464,
                        "value": 1
                    },
                    {
                        "number": 64,
                        "time": 196.03052265833466,
                        "value": 0
                    },
                    {
                        "number": 64,
                        "time": 196.15008770833467,
                        "value": 1
                    },
                    {
                        "number": 64,
                        "time": 196.27237014583469,
                        "value": 0
                    },
                    {
                        "number": 64,
                        "time": 196.3321526708347,
                        "value": 1
                    },
                    {
                        "number": 64,
                        "time": 196.398275766668,
                        "value": 0
                    },
                    {
                        "number": 64,
                        "time": 197.33758604583466,
                        "value": 1
                    },
                    {
                        "number": 64,
                        "time": 197.63378128333463,
                        "value": 0
                    },
                    {
                        "number": 64,
                        "time": 198.39012080416794,
                        "value": 1
                    },
                    {
                        "number": 64,
                        "time": 198.7705550541679,
                        "value": 0
                    },
                    {
                        "number": 64,
                        "time": 199.22707615416783,
                        "value": 1
                    },
                    {
                        "number": 64,
                        "time": 199.50877865833448,
                        "value": 0
                    },
                    {
                        "number": 64,
                        "time": 199.7479087583345,
                        "value": 1
                    },
                    {
                        "number": 64,
                        "time": 199.93178531250115,
                        "value": 0
                    },
                    {
                        "number": 64,
                        "time": 200.28413989166782,
                        "value": 1
                    },
                    {
                        "number": 64,
                        "time": 200.6265307166678,
                        "value": 0
                    },
                    {
                        "number": 64,
                        "time": 201.16095025833445,
                        "value": 1
                    },
                    {
                        "number": 64,
                        "time": 201.50152949166778,
                        "value": 0
                    },
                    {
                        "number": 64,
                        "time": 201.74700016250108,
                        "value": 1
                    },
                    {
                        "number": 64,
                        "time": 201.9381230833344,
                        "value": 0
                    },
                    {
                        "number": 64,
                        "time": 203.94083767083427,
                        "value": 0
                    },
                    {
                        "number": 64,
                        "time": 204.59301067083427,
                        "value": 1
                    },
                    {
                        "number": 64,
                        "time": 205.12833600833426,
                        "value": 0
                    },
                    {
                        "number": 64,
                        "time": 205.9172841791676,
                        "value": 1
                    },
                    {
                        "number": 64,
                        "time": 206.87742776250093,
                        "value": 0
                    },
                    {
                        "number": 64,
                        "time": 207.00333338333425,
                        "value": 1
                    },
                    {
                        "number": 64,
                        "time": 213.7469833625014,
                        "value": 0
                    },
                    {
                        "number": 64,
                        "time": 239.4009329541701,
                        "value": 1
                    },
                    {
                        "number": 64,
                        "time": 240.3447722125035,
                        "value": 0
                    },
                    {
                        "number": 64,
                        "time": 240.7433223791702,
                        "value": 1
                    },
                    {
                        "number": 64,
                        "time": 241.10020593750355,
                        "value": 0
                    },
                    {
                        "number": 64,
                        "time": 241.12737981250353,
                        "value": 1
                    },
                    {
                        "number": 64,
                        "time": 241.1672348291702,
                        "value": 0
                    },
                    {
                        "number": 64,
                        "time": 241.62285013333693,
                        "value": 1
                    },
                    {
                        "number": 64,
                        "time": 242.04857417500364,
                        "value": 0
                    },
                    {
                        "number": 64,
                        "time": 242.27321154167035,
                        "value": 1
                    },
                    {
                        "number": 64,
                        "time": 242.41179830417036,
                        "value": 0
                    },
                    {
                        "number": 64,
                        "time": 242.70889933750374,
                        "value": 1
                    },
                    {
                        "number": 64,
                        "time": 243.25056524583718,
                        "value": 0
                    },
                    {
                        "number": 64,
                        "time": 243.49422432500393,
                        "value": 1
                    },
                    {
                        "number": 64,
                        "time": 243.99694101250392,
                        "value": 0
                    },
                    {
                        "number": 64,
                        "time": 244.21070882917064,
                        "value": 1
                    },
                    {
                        "number": 64,
                        "time": 244.36016514167065,
                        "value": 0
                    },
                    {
                        "number": 64,
                        "time": 244.62194013750405,
                        "value": 1
                    },
                    {
                        "number": 64,
                        "time": 245.12193943750407,
                        "value": 0
                    },
                    {
                        "number": 64,
                        "time": 245.42175785833743,
                        "value": 1
                    },
                    {
                        "number": 64,
                        "time": 245.91269920000408,
                        "value": 0
                    },
                    {
                        "number": 64,
                        "time": 246.09114097917077,
                        "value": 1
                    },
                    {
                        "number": 64,
                        "time": 246.26052480000413,
                        "value": 0
                    },
                    {
                        "number": 64,
                        "time": 246.5250171833375,
                        "value": 1
                    },
                    {
                        "number": 64,
                        "time": 246.89005290417086,
                        "value": 0
                    },
                    {
                        "number": 64,
                        "time": 247.32392910833758,
                        "value": 1
                    },
                    {
                        "number": 64,
                        "time": 248.14005115417098,
                        "value": 1
                    },
                    {
                        "number": 64,
                        "time": 248.22157277917097,
                        "value": 0
                    },
                    {
                        "number": 64,
                        "time": 248.534072341671,
                        "value": 1
                    },
                    {
                        "number": 64,
                        "time": 248.9724775250043,
                        "value": 0
                    },
                    {
                        "number": 64,
                        "time": 249.11106428750432,
                        "value": 1
                    },
                    {
                        "number": 64,
                        "time": 249.53044775833766,
                        "value": 0
                    },
                    {
                        "number": 64,
                        "time": 249.90182405000434,
                        "value": 1
                    },
                    {
                        "number": 64,
                        "time": 249.93533849583767,
                        "value": 0
                    },
                    {
                        "number": 64,
                        "time": 250.37193208750432,
                        "value": 1
                    },
                    {
                        "number": 64,
                        "time": 250.455265304171,
                        "value": 0
                    },
                    {
                        "number": 64,
                        "time": 250.53588113333768,
                        "value": 1
                    },
                    {
                        "number": 64,
                        "time": 251.36377852500434,
                        "value": 0
                    },
                    {
                        "number": 64,
                        "time": 251.51142324583768,
                        "value": 1
                    },
                    {
                        "number": 64,
                        "time": 251.59475646250436,
                        "value": 0
                    },
                    {
                        "number": 64,
                        "time": 251.93080671667104,
                        "value": 1
                    },
                    {
                        "number": 64,
                        "time": 251.9679443458377,
                        "value": 0
                    },
                    {
                        "number": 64,
                        "time": 252.12736441250436,
                        "value": 1
                    },
                    {
                        "number": 64,
                        "time": 252.36015394167103,
                        "value": 0
                    },
                    {
                        "number": 64,
                        "time": 252.54674788333767,
                        "value": 1
                    },
                    {
                        "number": 64,
                        "time": 253.09837754583765,
                        "value": 0
                    },
                    {
                        "number": 64,
                        "time": 253.33841344167098,
                        "value": 1
                    },
                    {
                        "number": 64,
                        "time": 253.60200002917097,
                        "value": 0
                    },
                    {
                        "number": 64,
                        "time": 253.89185469583768,
                        "value": 1
                    },
                    {
                        "number": 64,
                        "time": 254.54855667500433,
                        "value": 0
                    },
                    {
                        "number": 64,
                        "time": 255.12283123333765,
                        "value": 1
                    },
                    {
                        "number": 64,
                        "time": 257.67626968750443,
                        "value": 0
                    },
                    {
                        "number": 64,
                        "time": 257.89003750417106,
                        "value": 1
                    },
                    {
                        "number": 64,
                        "time": 258.43351500417106,
                        "value": 0
                    },
                    {
                        "number": 64,
                        "time": 272.9778787000061,
                        "value": 1
                    },
                    {
                        "number": 64,
                        "time": 273.65994296250636,
                        "value": 0
                    },
                    {
                        "number": 64,
                        "time": 275.683490854173,
                        "value": 1
                    },
                    {
                        "number": 64,
                        "time": 276.23149733333986,
                        "value": 0
                    },
                    {
                        "number": 64,
                        "time": 278.33294366667315,
                        "value": 1
                    },
                    {
                        "number": 64,
                        "time": 279.0612035166734,
                        "value": 0
                    },
                    {
                        "number": 64,
                        "time": 279.47424641667334,
                        "value": 1
                    },
                    {
                        "number": 64,
                        "time": 280.30757858333965,
                        "value": 0
                    },
                    {
                        "number": 64,
                        "time": 280.9977950083398,
                        "value": 1
                    },
                    {
                        "number": 64,
                        "time": 281.5548594458396,
                        "value": 0
                    },
                    {
                        "number": 64,
                        "time": 282.2477932583395,
                        "value": 1
                    },
                    {
                        "number": 64,
                        "time": 282.32478590417287,
                        "value": 0
                    },
                    {
                        "number": 64,
                        "time": 282.6735173000061,
                        "value": 1
                    },
                    {
                        "number": 64,
                        "time": 282.8492416916727,
                        "value": 0
                    },
                    {
                        "number": 64,
                        "time": 283.116451462506,
                        "value": 1
                    },
                    {
                        "number": 64,
                        "time": 283.25232083750603,
                        "value": 0
                    },
                    {
                        "number": 64,
                        "time": 283.9742401166725,
                        "value": 1
                    },
                    {
                        "number": 64,
                        "time": 284.14362393750577,
                        "value": 0
                    },
                    {
                        "number": 64,
                        "time": 285.6898174250053,
                        "value": 1
                    },
                    {
                        "number": 64,
                        "time": 285.80304190417195,
                        "value": 0
                    },
                    {
                        "number": 64,
                        "time": 286.26680937083864,
                        "value": 1
                    },
                    {
                        "number": 64,
                        "time": 286.37550487083865,
                        "value": 0
                    },
                    {
                        "number": 64,
                        "time": 288.84198692500553,
                        "value": 1
                    },
                    {
                        "number": 64,
                        "time": 288.9325665083388,
                        "value": 0
                    },
                    {
                        "number": 64,
                        "time": 291.1535778916725,
                        "value": 1
                    },
                    {
                        "number": 64,
                        "time": 291.2731429416725,
                        "value": 0
                    },
                    {
                        "number": 64,
                        "time": 293.5639006041728,
                        "value": 1
                    },
                    {
                        "number": 64,
                        "time": 293.6979583875061,
                        "value": 0
                    },
                    {
                        "number": 64,
                        "time": 297.428025629173,
                        "value": 1
                    },
                    {
                        "number": 64,
                        "time": 297.55393125000637,
                        "value": 0
                    },
                    {
                        "number": 64,
                        "time": 298.02856826667306,
                        "value": 1
                    },
                    {
                        "number": 64,
                        "time": 298.1291116041731,
                        "value": 0
                    },
                    {
                        "number": 64,
                        "time": 298.7369006083399,
                        "value": 1
                    },
                    {
                        "number": 64,
                        "time": 298.99867560417323,
                        "value": 0
                    },
                    {
                        "number": 64,
                        "time": 299.07023347500655,
                        "value": 1
                    },
                    {
                        "number": 64,
                        "time": 299.6707761125066,
                        "value": 0
                    },
                    {
                        "number": 64,
                        "time": 299.7840005916733,
                        "value": 1
                    },
                    {
                        "number": 64,
                        "time": 299.8845439291734,
                        "value": 0
                    },
                    {
                        "number": 64,
                        "time": 306.6580851708393,
                        "value": 1
                    },
                    {
                        "number": 64,
                        "time": 306.79576613750595,
                        "value": 0
                    },
                    {
                        "number": 64,
                        "time": 313.84829249583987,
                        "value": 1
                    },
                    {
                        "number": 64,
                        "time": 313.9741981166732,
                        "value": 0
                    },
                    {
                        "number": 64,
                        "time": 314.15263989583985,
                        "value": 1
                    },
                    {
                        "number": 64,
                        "time": 314.19068332083987,
                        "value": 0
                    },
                    {
                        "number": 64,
                        "time": 314.36187873333984,
                        "value": 1
                    },
                    {
                        "number": 64,
                        "time": 314.4062627291732,
                        "value": 0
                    },
                    {
                        "number": 64,
                        "time": 314.7876027750066,
                        "value": 1
                    },
                    {
                        "number": 64,
                        "time": 314.8736533791732,
                        "value": 0
                    },
                    {
                        "number": 64,
                        "time": 315.0484719750066,
                        "value": 1
                    },
                    {
                        "number": 64,
                        "time": 315.08379801250663,
                        "value": 0
                    },
                    {
                        "number": 64,
                        "time": 315.65173200000663,
                        "value": 1
                    },
                    {
                        "number": 64,
                        "time": 315.72600725834,
                        "value": 0
                    },
                    {
                        "number": 64,
                        "time": 315.93524609584,
                        "value": 1
                    },
                    {
                        "number": 64,
                        "time": 316.12274583333993,
                        "value": 0
                    },
                    {
                        "number": 64,
                        "time": 317.1227444333399,
                        "value": 1
                    },
                    {
                        "number": 64,
                        "time": 317.30933837500646,
                        "value": 0
                    },
                    {
                        "number": 64,
                        "time": 318.46151067500654,
                        "value": 1
                    },
                    {
                        "number": 64,
                        "time": 318.5910394791732,
                        "value": 0
                    },
                    {
                        "number": 64,
                        "time": 319.70245096667327,
                        "value": 1
                    },
                    {
                        "number": 64,
                        "time": 319.8953854791733,
                        "value": 0
                    },
                    {
                        "number": 64,
                        "time": 320.90534783334004,
                        "value": 1
                    },
                    {
                        "number": 64,
                        "time": 321.01404333334006,
                        "value": 0
                    },
                    {
                        "number": 64,
                        "time": 322.0502737666732,
                        "value": 1
                    },
                    {
                        "number": 64,
                        "time": 322.2894038666731,
                        "value": 0
                    },
                    {
                        "number": 64,
                        "time": 326.30207940834026,
                        "value": 1
                    },
                    {
                        "number": 64,
                        "time": 326.385412625007,
                        "value": 0
                    },
                    {
                        "number": 64,
                        "time": 328.32200411667384,
                        "value": 1
                    },
                    {
                        "number": 64,
                        "time": 328.4143952916738,
                        "value": 0
                    },
                    {
                        "number": 64,
                        "time": 328.74319917917387,
                        "value": 1
                    },
                    {
                        "number": 64,
                        "time": 329.03577123334054,
                        "value": 0
                    },
                    {
                        "number": 64,
                        "time": 329.3310606750072,
                        "value": 1
                    },
                    {
                        "number": 64,
                        "time": 329.5176546166739,
                        "value": 0
                    },
                    {
                        "number": 64,
                        "time": 329.8383063416739,
                        "value": 1
                    },
                    {
                        "number": 64,
                        "time": 329.91258160000723,
                        "value": 0
                    },
                    {
                        "number": 64,
                        "time": 330.0529799541739,
                        "value": 1
                    },
                    {
                        "number": 64,
                        "time": 330.15714647500727,
                        "value": 0
                    },
                    {
                        "number": 64,
                        "time": 330.88359473334054,
                        "value": 1
                    },
                    {
                        "number": 64,
                        "time": 331.48776055417375,
                        "value": 0
                    },
                    {
                        "number": 64,
                        "time": 332.8736281791737,
                        "value": 1
                    },
                    {
                        "number": 64,
                        "time": 333.10913509584043,
                        "value": 0
                    },
                    {
                        "number": 64,
                        "time": 333.922539754174,
                        "value": 1
                    },
                    {
                        "number": 64,
                        "time": 334.0575033333407,
                        "value": 0
                    },
                    {
                        "number": 64,
                        "time": 334.38811881250746,
                        "value": 1
                    },
                    {
                        "number": 64,
                        "time": 334.4678288458408,
                        "value": 0
                    },
                    {
                        "number": 64,
                        "time": 335.2549654250074,
                        "value": 1
                    },
                    {
                        "number": 64,
                        "time": 335.2966320333407,
                        "value": 0
                    },
                    {
                        "number": 64,
                        "time": 336.07742804167407,
                        "value": 1
                    },
                    {
                        "number": 64,
                        "time": 336.18159456250737,
                        "value": 0
                    },
                    {
                        "number": 64,
                        "time": 336.96873114167425,
                        "value": 1
                    },
                    {
                        "number": 64,
                        "time": 337.0837672125076,
                        "value": 0
                    },
                    {
                        "number": 64,
                        "time": 337.8645632208411,
                        "value": 1
                    },
                    {
                        "number": 64,
                        "time": 338.0230774916744,
                        "value": 0
                    },
                    {
                        "number": 64,
                        "time": 338.6680041250077,
                        "value": 1
                    },
                    {
                        "number": 64,
                        "time": 338.91528638750776,
                        "value": 0
                    },
                    {
                        "number": 64,
                        "time": 339.26311198750784,
                        "value": 1
                    },
                    {
                        "number": 64,
                        "time": 339.4379305833412,
                        "value": 0
                    },
                    {
                        "number": 64,
                        "time": 339.6172781583412,
                        "value": 1
                    },
                    {
                        "number": 64,
                        "time": 339.8065894875079,
                        "value": 0
                    },
                    {
                        "number": 64,
                        "time": 339.96148057500795,
                        "value": 1
                    },
                    {
                        "number": 64,
                        "time": 340.0629297083413,
                        "value": 0
                    },
                    {
                        "number": 64,
                        "time": 340.4651030583414,
                        "value": 1
                    },
                    {
                        "number": 64,
                        "time": 340.51582762500806,
                        "value": 0
                    },
                    {
                        "number": 64,
                        "time": 340.67253030417476,
                        "value": 1
                    },
                    {
                        "number": 64,
                        "time": 340.8763343666747,
                        "value": 0
                    },
                    {
                        "number": 64,
                        "time": 341.16800062500806,
                        "value": 1
                    },
                    {
                        "number": 64,
                        "time": 341.29390624584147,
                        "value": 0
                    },
                    {
                        "number": 64,
                        "time": 341.43430460000815,
                        "value": 1
                    },
                    {
                        "number": 64,
                        "time": 341.54571748750817,
                        "value": 0
                    },
                    {
                        "number": 64,
                        "time": 341.7024201666749,
                        "value": 1
                    },
                    {
                        "number": 64,
                        "time": 341.9297749208416,
                        "value": 0
                    },
                    {
                        "number": 64,
                        "time": 342.0303182583416,
                        "value": 1
                    },
                    {
                        "number": 64,
                        "time": 342.22325277084167,
                        "value": 0
                    },
                    {
                        "number": 64,
                        "time": 342.354593166675,
                        "value": 1
                    },
                    {
                        "number": 64,
                        "time": 342.5330349458417,
                        "value": 0
                    },
                    {
                        "number": 64,
                        "time": 343.16528043750833,
                        "value": 1
                    },
                    {
                        "number": 64,
                        "time": 343.599156641675,
                        "value": 0
                    },
                    {
                        "number": 64,
                        "time": 343.849156291675,
                        "value": 1
                    },
                    {
                        "number": 64,
                        "time": 345.66980591667505,
                        "value": 0
                    }
                ]
            },
            "id": 4,
            "instrumentNumber": 0,
            "instrument": "acoustic grand piano",
            "instrumentFamily": "piano",
            "channelNumber": 0,
            "isPercussion": false
        },
        {
            "startTime": 0,
            "duration": 0,
            "length": 0,
            "notes": [],
            "controlChanges": {},
            "id": 5
        },
        {
            "startTime": 0,
            "duration": 0,
            "length": 0,
            "notes": [],
            "controlChanges": {},
            "id": 6
        },
        {
            "startTime": 0,
            "duration": 0,
            "length": 0,
            "notes": [],
            "controlChanges": {},
            "id": 7
        }
    ]
}